<svg xmlns="http://www.w3.org/2000/svg" xml:space="preserve" width="72px" height="72px" viewBox="0 0 72 72">
    <path fill="currentColor" d="M12.47 29.52c.726 0 1.589.037 2.449-.009 1.171-.064 2.206.308 3.226.825.711.36 1.547.4 2.229.888.215.153.634.054.954.019 1.17-.13 2.239.224 3.319.683.608-.24 1.205-.536 1.862-.696.556-.135 1.016-1.109.837-1.733-.168-.584-.346-1.157-.454-1.762-.055-.311-.221-.742-.608-.877v-1.119c.673-1.072.836-1.17 2.054-1.188.345.529 1.046.713 1.458 1.257.401.101.708.018 1.043-.28.58-.514 1.409-.685 1.921-1.312-.009-.315.014-.604-.201-.899-.251-.343-.38-.773-.575-1.16-.439-.871-.436-.944.181-1.885h1.162c.333.388.895.568 1.26 1.015.341.416.725.808 1.145 1.142.425.339.746.766 1.124 1.143l1.171 1.171h.668c.517-.376.842-.906.762-1.64-.078-.711.364-1.293.507-1.952a4 4 0 0 1 .59-1.367c.268-.396.132-.81.224-1.195.527-.642.758-1.466 1.374-2.04.161-.149.214-.411.331-.613.168-.291.29-.6.5-.878.249-.33.714-.088.908-.441.529.021.868-.322 1.267-.601.651-.457 1.291-1.03 2.226-.508.227.127.687.183 1-.134.162-.163.49.049.668-.228.045-.071.321-.095.395-.031.373.328.815.237 1.214.193 1.419-.157 2.722.321 4.037.703.184.053.363.21.571.167.317-.065.624.16.73.289.524.63 1.28.753 1.977 1.061.158.417.384.839.476 1.29.137.667.522 1.129 1.059 1.461a3.37 3.37 0 0 1 1.339 1.505c-.295.859-.89 1.183-1.752 1.101-.319-.03-.645-.005-.955-.005l-.539.54c.073.449.005.982-.237 1.419-.285.515-.134 1.03-.209 1.55.319.549.586 1.142.975 1.638.419.534.952.979 1.441 1.468.411.121.846.21 1.167.508.198.239.136.517.086.734-.094.412-.173.829-.698 1.025-.326.122-.738.243-.848.555-.798.322-1.241-.604-2.048-.297-.59.426-1.012 1.224-1.815 1.578-.468.81-1.116 1.503-1.295 2.492-.13.719-.186 1.474-.531 2.15-.145.284-.064.562.021.882.156.584.441 1.169.298 1.814l-.338.338c-.84-.422-1.707-.853-2.841-.632-.398.16-.814.632-1.437.604-.815.639-1.23 1.642-2.063 2.236v.897c-.497.458-.801.956-.91 1.686-.095.624-.114 1.151.006 1.78.149.775.503 1.465.667 2.212.104.476.346.683.716.922.286.187.609.359.828.671.476.68.057 1.231-.229 1.784-.232.449-.551.853-.83 1.277-.216.993.67 1.831.313 2.964l-.884 1.483c-.188.045-.339-.035-.375-.165-.124-.443-.468-.627-.832-.83-.685-.383-1.205-.966-1.773-1.559h-1.416c-.842-.4-1.369-.934-1.756-1.723.071-.449-.063-.982.181-1.548.2-.464.008-1.02-.411-1.422-.52-.498-1.021-1.016-1.545-1.54-.456-.046-.862-.337-1.376-.294-.473.04-.892-.274-1.337-.392-.455-.119-.979.074-1.424-.292-.642.31-1.252.667-1.907.9a3.6 3.6 0 0 0-1.59 1.112c-.544.651-1.358.94-1.979 1.488-.061.054-.209.007-.358.007-.489-.394-.887-.938-1.482-1.268-.251-.14-.455-.405-.611-.703-.289-.552-.781-.848-1.435-.842-.376.004-.777.103-1.103-.206-.038-.036-.143-.02-.211-.003-1.114.26-2.294.163-3.351.78-.542.316-.869.814-1.36 1.161-.339-.135-.604.126-.851.261-.266.146-.543.256-.798.395-.47-.007-.671-.336-.929-.643-.334-.396-.797-.682-1.174-1.027-.888-.813-1.93-1.456-2.655-2.429h-.443c-.589.308-.715 1.068-1.25 1.377-.541.312-.892.789-1.374 1.179-.655-.411-.432-1.315-.966-1.799.042-1.184-.035-2.331-.643-3.408-.229-.403-.284-.911-.244-1.412.042-.517.068-1.05-.208-1.528-.399-.695-.14-1.453-.216-2.179-.019-.179.188-.226.208-.344.054-.336.296-.615.233-.99-.113-.676.197-1.281.481-1.846.391-.777.767-1.549 1.04-2.379.123-.374.357-.745.635-1.024.421-.425.772-.884.973-1.439.186-.529.59-.813 1.193-1.064"/>
</svg>
