<?xml version="1.0" encoding="iso-8859-1"?>
<!-- Generator: Adobe Illustrator 16.0.0, SVG Export Plug-In . SVG Version: 6.00 Build 0)  -->
<!DOCTYPE svg PUBLIC "-//W3C//DTD SVG 1.1//EN" "http://www.w3.org/Graphics/SVG/1.1/DTD/svg11.dtd">
<svg version="1.1" id="Layer_1" xmlns="http://www.w3.org/2000/svg" xmlns:xlink="http://www.w3.org/1999/xlink" x="0px" y="0px"
	 width="72.36px" height="72.18px" viewBox="0 0 72.36 72.18" style="enable-background:new 0 0 72.36 72.18;" xml:space="preserve"
	>
<g>
	
	<path fill="currentColor" d="M12.47,29.52c0.726,0,1.589,0.037,2.449-0.009
		c1.171-0.064,2.206,0.308,3.226,0.825c0.711,0.36,1.547,0.4,2.229,0.888c0.215,0.153,0.634,0.054,0.954,0.019
		c1.17-0.13,2.239,0.224,3.319,0.683c0.608-0.24,1.205-0.536,1.862-0.696c0.556-0.135,1.016-1.109,0.837-1.733
		c-0.168-0.584-0.346-1.157-0.454-1.762c-0.055-0.311-0.221-0.742-0.608-0.877c0-0.407,0-0.766,0-1.119
		c0.673-1.072,0.836-1.17,2.054-1.188c0.345,0.529,1.046,0.713,1.458,1.257c0.401,0.101,0.708,0.018,1.043-0.28
		c0.58-0.514,1.409-0.685,1.921-1.312c-0.009-0.315,0.014-0.604-0.201-0.899c-0.251-0.343-0.38-0.773-0.575-1.16
		c-0.439-0.871-0.436-0.944,0.181-1.885c0.354,0,0.74,0,1.162,0c0.333,0.388,0.895,0.568,1.26,1.015
		c0.341,0.416,0.725,0.808,1.145,1.142c0.425,0.339,0.746,0.766,1.124,1.143c0.382,0.382,0.763,0.764,1.171,1.171
		c0.183,0,0.392,0,0.668,0c0.517-0.376,0.842-0.906,0.762-1.64c-0.078-0.711,0.364-1.293,0.507-1.952
		c0.104-0.479,0.315-0.961,0.59-1.367c0.268-0.396,0.132-0.81,0.224-1.195c0.527-0.642,0.758-1.466,1.374-2.04
		c0.161-0.149,0.214-0.411,0.331-0.613c0.168-0.291,0.29-0.6,0.5-0.878c0.249-0.33,0.714-0.088,0.908-0.441
		c0.529,0.021,0.868-0.322,1.267-0.601c0.651-0.457,1.291-1.03,2.226-0.508c0.227,0.127,0.687,0.183,1-0.134
		c0.162-0.163,0.49,0.049,0.668-0.228c0.045-0.071,0.321-0.095,0.395-0.031c0.373,0.328,0.815,0.237,1.214,0.193
		c1.419-0.157,2.722,0.321,4.037,0.703c0.184,0.053,0.363,0.21,0.571,0.167c0.317-0.065,0.624,0.16,0.73,0.289
		c0.524,0.63,1.28,0.753,1.977,1.061c0.158,0.417,0.384,0.839,0.476,1.29c0.137,0.667,0.522,1.129,1.059,1.461
		c0.612,0.378,1.053,0.875,1.339,1.505c-0.295,0.859-0.89,1.183-1.752,1.101c-0.319-0.03-0.645-0.005-0.955-0.005
		c-0.164,0.164-0.316,0.317-0.539,0.54c0.073,0.449,0.005,0.982-0.237,1.419c-0.285,0.515-0.134,1.03-0.209,1.55
		c0.319,0.549,0.586,1.142,0.975,1.638c0.419,0.534,0.952,0.979,1.441,1.468c0.411,0.121,0.846,0.21,1.167,0.508
		c0.198,0.239,0.136,0.517,0.086,0.734c-0.094,0.412-0.173,0.829-0.698,1.025c-0.326,0.122-0.738,0.243-0.848,0.555
		c-0.798,0.322-1.241-0.604-2.048-0.297c-0.59,0.426-1.012,1.224-1.815,1.578c-0.468,0.81-1.116,1.503-1.295,2.492
		c-0.13,0.719-0.186,1.474-0.531,2.15c-0.145,0.284-0.064,0.562,0.021,0.882c0.156,0.584,0.441,1.169,0.298,1.814
		c-0.097,0.097-0.198,0.198-0.338,0.338c-0.84-0.422-1.707-0.853-2.841-0.632c-0.398,0.16-0.814,0.632-1.437,0.604
		c-0.815,0.639-1.23,1.642-2.063,2.236c0,0.32,0,0.607,0,0.897c-0.497,0.458-0.801,0.956-0.91,1.686
		c-0.095,0.624-0.114,1.151,0.006,1.78c0.149,0.775,0.503,1.465,0.667,2.212c0.104,0.476,0.346,0.683,0.716,0.922
		c0.286,0.187,0.609,0.359,0.828,0.671c0.476,0.68,0.057,1.231-0.229,1.784c-0.232,0.449-0.551,0.853-0.83,1.277
		c-0.216,0.993,0.67,1.831,0.313,2.964c-0.243,0.408-0.568,0.954-0.884,1.483c-0.188,0.045-0.339-0.035-0.375-0.165
		c-0.124-0.443-0.468-0.627-0.832-0.83c-0.685-0.383-1.205-0.966-1.773-1.559c-0.5,0-1.03,0-1.416,0
		c-0.842-0.4-1.369-0.934-1.756-1.723c0.071-0.449-0.063-0.982,0.181-1.548c0.2-0.464,0.008-1.02-0.411-1.422
		c-0.52-0.498-1.021-1.016-1.545-1.54c-0.456-0.046-0.862-0.337-1.376-0.294c-0.473,0.04-0.892-0.274-1.337-0.392
		c-0.455-0.119-0.979,0.074-1.424-0.292c-0.642,0.31-1.252,0.667-1.907,0.9c-0.646,0.231-1.163,0.602-1.59,1.112
		c-0.544,0.651-1.358,0.94-1.979,1.488c-0.061,0.054-0.209,0.007-0.358,0.007c-0.489-0.394-0.887-0.938-1.482-1.268
		c-0.251-0.14-0.455-0.405-0.611-0.703c-0.289-0.552-0.781-0.848-1.435-0.842c-0.376,0.004-0.777,0.103-1.103-0.206
		c-0.038-0.036-0.143-0.02-0.211-0.003c-1.114,0.26-2.294,0.163-3.351,0.78c-0.542,0.316-0.869,0.814-1.36,1.161
		c-0.339-0.135-0.604,0.126-0.851,0.261c-0.266,0.146-0.543,0.256-0.798,0.395c-0.47-0.007-0.671-0.336-0.929-0.643
		c-0.334-0.396-0.797-0.682-1.174-1.027c-0.888-0.813-1.93-1.456-2.655-2.429c-0.167,0-0.308,0-0.443,0
		c-0.589,0.308-0.715,1.068-1.25,1.377c-0.541,0.312-0.892,0.789-1.374,1.179c-0.655-0.411-0.432-1.315-0.966-1.799
		c0.042-1.184-0.035-2.331-0.643-3.408c-0.229-0.403-0.284-0.911-0.244-1.412c0.042-0.517,0.068-1.05-0.208-1.528
		c-0.399-0.695-0.14-1.453-0.216-2.179c-0.019-0.179,0.188-0.226,0.208-0.344c0.054-0.336,0.296-0.615,0.233-0.99
		c-0.113-0.676,0.197-1.281,0.481-1.846c0.391-0.777,0.767-1.549,1.04-2.379c0.123-0.374,0.357-0.745,0.635-1.024
		c0.421-0.425,0.772-0.884,0.973-1.439C11.463,30.055,11.867,29.771,12.47,29.52z"/>
</g>
</svg>
