<svg xmlns="http://www.w3.org/2000/svg" xml:space="preserve" width="72px" height="72px" viewBox="0 0 72 72">
    <g fill="currentColor">
        <path d="M50.976 45.074h.889c.345-.295.586-.714 1.087-.828.34.042.686-.051 1.086.116.406.17.326.725.87.751.44.021.167.713.528.934-.349.222-.15.586-.229.875-.494.575-1.159.564-1.54.538-.344.188-.501.272-.636.347.098.368.4.479.571.73.805-.105 1.526.179 2.257.498.393.172.799.328 1.254.373a22 22 0 0 1 2.627.43c.431.097.838.333 1.097.811.17.57-.28.99-.621 1.387-.421.49-1.067.408-1.679.365-.161-.333-.559-.373-.854-.636-1.16.069-2.326.021-2.947-1.3-.708.03-1.22.412-1.808.842h-.863c-1.369-1.438-1.995-1.803-3.908-1.22-.164.368-.265.774-.65 1.059l-1.635-.42c-.746.235-1.564.707-2.525.612-.419-.042-.762.354-1.201.226-.3.383-.738.105-1.107.238-.223.307-.578.446-.915.613-1.151.568-1.536 1.206-1.509 2.506.274.234.273.613.464.887.245.353.408.734.872.963.418.206.69.709 1.018 1.07.75-.117 1.343.141 1.938.405.783.348 1.568.679 2.435.226.112-.06.283-.009.497-.009.411.565 1.161.806 1.617 1.405.431.564 1.056.877 1.688 1.205v.981c-.202.133-.306.43-.609.517-.707.204-1.336.598-1.964.937-.809-.742-1.417-1.587-2.405-1.964-.244-.094-.482-.048-.757-.041-.199.497.113.852.39 1.176.319.374.661.714.626 1.313l-.623.508c-1.102.199-2.052-.271-2.829-1.188.042-.571-.246-.941-.771-1.146-.143.233-.401.206-.646.18-.266-.027-.359.191-.507.309-.187.827.361 1.582.165 2.438-.099.145-.408.014-.488.249-1.38.23-2.478-.236-3.336-1.384-.138-.658-.138-.658-.802-.731-.417.547-.215 1.351-.818 1.892-.244.031-.535.14-.825-.097-.213-.173-.48-.053-.722-.078-1.096-.115-2.019-.283-2.657-1.146-.123-.305-.023-.535.218-.741.191-.162.379-.338.531-.536.115-.15.17-.347.253-.526-.148-.113-.401-.077-.545-.358-.526.626-1.387-.09-1.916.613-.201.453-.66.897-.521 1.516-.872.426-1.555-.195-2.283-.393-.338-.092-.822-.117-1.086-.551-.069-.113-.462-.211-.727-.282-.658-.176-1.322-.403-1.695-1.092-.148-.272-.445-.465-.674-.694.222-.442.606-.367.976-.32l.406.406c.271 0 .561-.024.843.008.3.033.545-.159.759-.258.494-.227.902-.219 1.351.03.055.03.142.004.271.004.375-.286.586-.688.56-1.191l.969-.969c.573-.018 1.233.121 1.739-.45.869.228 1.566-.283 2.289-.644.304-.152.631-.414.771-.71.437-.917 1.183-1.648 1.537-2.602.21-.564.611-1.125.441-1.744-.106-.39-.102-.816-.295-1.167-.096-.174-.177-.39-.099-.486.556-.679-.112-1.33-.013-1.99-.372-.371-.252-.899-.399-1.344-.149-.455-.033-.997-.033-1.5-.231-.1-.165-.372-.327-.543-.081.019-.212.009-.266.068-.435.483-.622 1.107-.915 1.671-.174.335-.323.674-.615.935-.48.43-.44 1.115-.783 1.65h-1.7c-.656.576-1.607.233-2.296.744v.646c.444.151.698.619 1.195.706.11.356.134.702.312.929-.036.745-.459 1.141-1.056 1.278-.591.138-1.066-.195-1.349-.544-.994-.316-1.827.208-2.686.124-.24-.302-.718-.23-.794-.639h-.663c-.92.868-2.173 1.224-3.013 2.175-.982-.169-1.881.235-2.84.227-.955-.009-1.723-.224-2.292-1.054v-1.029l.529-.528c.463-.048.941-.055 1.303.232.23.183.441.187.683.188.54.004 1.08.001 1.62.001.849-.353 1.336-1.128 1.986-1.686.687-.291 1.521-.149 2.093-.809l-.626-.519h-1.471l-.294.419h-1.183c-.595-.577-.734-1.21-.219-1.932h1.049c.417-.394.85-.733 1.464-.657.497.061.919-.234 1.408-.271.568-.042.673-.712 1.06-1.027.447-.048.768.229 1.124.437.301-.141.601-.269.88-.48.432-.329.837-.493 1.49-.211 1.374.594 2.333.253 3.525-.94-.083-.349.146-.75-.207-1.095-.089-.087.038-.371.113-.576.209-.571.672-.991.829-1.607.082-.32.078-.589.106-.885-.477-.135-.681.252-.778.466-.282.617-.772.942-1.333 1.221-.591-.12-.948-.506-1.106-1.059-.112-.395-.364-.479-.786-.448-.835 1.323-1.858 2.543-3.215 3.448h-1.095c-.686.941-1.696.581-2.576.654-.113-.113-.19-.189-.292-.293-.125-.463-.027-.92.25-1.381 1.394-.531 2.455-1.577 3.496-2.65.505-1.317 1.748-2.001 2.568-3.027.711.106 1.003-.8 1.696-.628.44-.306.75-.726 1.214-1.003a2.67 2.67 0 0 0 1.083-1.258c.28-.677.885-1.198.935-1.994.008-.135.238-.256.367-.385-.021-.299.159-.643-.193-.869.225-.265.283-.641.631-.837.002-.338.07-.682-.063-1.055-1.186.396-1.958 1.312-2.941 2.011-.272-.314-.786-.092-1.005-.489-.96.322-1.255 1.179-1.79 1.837v1.025c-.303.439-.457.928-1.028 1.124-.392.135-.647.609-.68.982-.027.308-.311.477-.258.774-.149.193-.424.175-.591.378-.617.75-1.541 1.252-1.826 2.271-.596.458-1.019 1.097-1.407 1.694-.312.48-.696.708-1.127.961-.027.016-.071.002-.235.002-.733-.44-1.655-.813-1.978-1.896.244-.691 1.247-.688 1.293-1.463.528-.104.938-.438 1.427-.296l.871-.871h.44l.72-.789c-.205-.271-.491-.513-.833-.17-.465.466-1.015.556-1.626.521-.286-.017-.573-.003-.841-.003l-.578-.578c.316-.885 1.013-1.48 1.747-2 .74-.524 1.637-.482 2.487-.439.452-.452.902-.868 1.313-1.32.789-.868.903-1.896.642-2.995-.014-.06-.097-.103-.163-.169-.428.266-.906.126-1.289.152-.798-.442-1.549-.75-2.465-.623l-.751.822h-1.152c-.332-.19-.575-.517-.754-.912v-1.115l.854-.748c.315.048.724-.08 1.101-.359.515-.38 1.064-.413 1.611-.061.511.329 1.075.488 1.665.396.549-.085.993.367 1.647.187.068-.078.196-.254.353-.398.47-.432.984-.479 1.617-.332 1.018.237 2.052.299 3.017-.302.589-.367.943-.966 1.494-1.359l.032-.713c.349-.374.758-.52 1.236-.567.309-.42.519-.938 1.1-1.153a.75.75 0 0 0 .471-.655c.03-.419.334-.698.749-.729.304-.022.438-.343.741-.322v-1.299c-.548-.521-.767-1.301-1.379-1.827h-.684c-.335.242-.344.71-.74.918v1.362c-.803.555-1.568 1.102-2.017 1.974-.058.112-.198.207-.321.254-.535.204-.783.902-1.506.84v-2.408c-.243-.268-.512-.102-.734-.158-.254.076-.325.362-.583.442-.512.16-.773.615-.86 1.07-.106.559-.401.939-.785 1.299-.815-.04-1.536.198-2.202.681-.479.347-1.103.501-1.349 1.137-.097.25-.53-.002-.537.344-.422.001-.47-.389-.748-.473v-1.008c.963-.387 1.205-1.147 1.025-2.122l-.271-.271c-.627-.112-1.288.182-1.865-.232-.377.171-.745.354-1.009.693-.547.703-1.27.942-2.143.787l-.953-.953c.177-.445-.289-.851-.193-1.336 1.051-.103 2.036-.447 3.097-.212l.795-.953c1.166.16 2.031-.321 2.95-.823.751.075 1.504-.455 2.217-.21l1.796-.924c.203-.071.613.123 1.043-.072 2.274-1.028 2.282-1.01 3.288-2.015.296-.112.724.13.971-.374v-.855l-.526-.526h-.639c-.158.548-.587.823-1.172 1.065-.563-.167-1.156.408-1.747.135l-.684-.474c.261-1.027.802-1.661 1.809-1.807.389-.056.739-.185.983-.49.357-.448.849-.733 1.32-1.001.358-.204.756-.48.829-.763.127-.488.598-.272.659-.521.35-.125.472.129.663.168.202.042.419.01.645.01.105-.672.237-1.265.638-1.832.33-.466.442-1.119.508-1.749l.528-.52h1.07c.464.593 1.524.565 1.625 1.669-.108.472-.565 1.014-.412 1.636.147.595.692.949 1.167 1.443h1.947l1.725 1.724c.386-.053.772.058 1.157.342l.247.493c-.052.505-.425.845-.8 1.142-.371.293-.448.792-.891 1.088-.452-.368-.991-.637-1.53-.903-.575.485-.592.61-.17 1.251 1.106.063 1.106.063 1.618-.169.942.342 1.93.587 2.715 1.279 1.313.012 2.453.402 3.229 1.529.457 0 .887.005 1.316-.001.8-.013 1.552.24 2.261.538.816.344 1.374 1.024 1.768 1.825-.187.59-.883.474-1.189.877h-.658c-.414-.456-.892-.759-1.517-.624-.817.583.166 1.25-.149 1.85-.275.069-.524.421-.827.271-.387-.193-.851-.188-1.165-.6-.802-1.049-2.029-1.45-3.198-1.902-.344-.132-.764-.069-1.085-.092-.497.294-.466.766-.342 1.085.162.418.245.746-.02 1.135-.066.098-.01.281-.01.425.26.55.842.656 1.323.951-.067.324-.377.602-.137 1.155l.502.373 1.537-.791c.791.177.507 1.212 1.36 1.516h2.936c.288 0 .576.003.864-.001.248-.004.381.252.667.24.245-.01.47.204.773.212.507.014.868.374 1.19.746.021.661-.137 1.188-.824 1.494-.253.112-.546.191-.694.096-.468-.298-.949-.143-1.392-.201-.369.339-.437.86-.942 1.085h-.371l-.654-.657c-.526.103-.794-.206-.888-.215-.504.014-.593.219-.715.38-.041.417.155.731.455 1.075.088.135.283.045.405.06l.809.834h1.063c.323-.431.904-.519 1.328-.838.391.192.758.411 1.164.079.187-.153.413-.06.619-.064.61-.014 1.221-.005 1.824-.005l.318.319v.645c-.113.205-.409.283-.433.578.256.584 1.004.626 1.3 1.209v.768c-.316.554-.9.661-1.381.957-.905-.243-1.64-.914-2.588-1.251-.269-.111-.419.345-.895.172l-.835-.419c-.585.225-1.098.675-1.793.442-.382-.413-.795-.838-1.528-.827-.076.477-.055 1.018-.465 1.388-.204.303-.701-.125-.767.39-.35-.173-.62-.29-.951-.278-.302.01-.622.11-.922-.112-.273-.203-.62-.053-.814-.079l-.469.333c.056.371.369.477.551.747.79-.166 1.538.344 2.356.206.852-.144 1.656.299 2.502.212.797-.082 1.629.22 2.395-.213.449.217 1.006.284 1.334.663.318.367.725.114 1.075.308.396.218.846.436 1.288.517.558.102 1.147.024 1.777.024.46-.447 1.077-.472 1.747-.422.303.396.886.495 1.188 1v.816c-.86.507-1.786.875-2.838 1.14-.478-.314-1.129-.1-1.761-.169-.247-.212-.629-.248-.834-.56-.098-.149-.33-.183-.446-.205-.744-.144-1.529-.375-2.247-.253-.58.099-1.165.098-1.728.188l-.303.319c.007.398.422.464.516.725.879.049 1.338.557 1.657 1.261-.151.292-.21.644-.566.917-.871-.065-1.824.164-2.799-.298-.3-.573-.836-1.033-1.466-1.409-.628-.374-.753-1.265-1.664-1.528-.397.062-.974-.179-1.479.205-.416.317-1.017.427-1.172 1.04-.008.029-.071.052-.071.076.005.832-.465 1.563-.529 2.332.231.537.791.62 1.111.976-.051.18.082.383-.094.517-.177.135-.199.379-.118.477.33.398.18.748-.005 1.132-.056.116-.009.283-.009.48l.7.531c.934-.28 2.018-.381 3.1-.795.684.062.747.905 1.318 1.225h.79c.601-.436 1.295-.633 1.852-1.122.522-.454.974-.949 1.389-1.465m-4.833-11.98c.084-.327-.39-.523-.202-.867-.577-.683-1.374-1.098-1.986-1.742-.628-.662-.811-1.555-1.352-2.32-.941.328-1.773-.123-2.605-.401-.874-.293-1.401-1.107-2.015-1.757-.543.523-.689.777-.687 1.145.001.157.36 1.098.461 1.209.258.284.547.519.898.689.46.225 1.184.909 1.503 1.271.762.862 1.753 1.407 2.818 1.758.342.112.609.311.906.414.384.133.569.618 1.099.506.362-.076.734.416 1.162.095m-4.326-11.471c-.705-.605-1.053-1.639-2.101-2.104v1.504c.181.273.61.461.687.909.326.092.643.198.884.452.116-.193.35-.18.53-.296zm-9.821 8.121c.193-.193.346-.345.497-.499.023-.023.035-.057.052-.088-.033-.165.078-.36-.101-.496-.853.106-.96.333-.448 1.083m6.296 10.767c-.145.416-.039.53.16.449z"/>
        <path d="M32.743 20.828v.615c-.207.127-.397.117-.624 0-.045-.387.207-.507.624-.615"/>
    </g>
</svg>
