<?xml version="1.0" encoding="iso-8859-1"?>
<!-- Generator: Adobe Illustrator 16.0.0, SVG Export Plug-In . SVG Version: 6.00 Build 0)  -->
<!DOCTYPE svg PUBLIC "-//W3C//DTD SVG 1.1//EN" "http://www.w3.org/Graphics/SVG/1.1/DTD/svg11.dtd">
<svg version="1.1" id="Layer_1" xmlns="http://www.w3.org/2000/svg" xmlns:xlink="http://www.w3.org/1999/xlink" x="0px" y="0px"
	 width="72.36px" height="72.18px" viewBox="0 0 72.36 72.18" style="enable-background:new 0 0 72.36 72.18;" xml:space="preserve"
	>
<g>
	
	<path fill="currentColor" d="M50.976,45.074c0.317,0,0.604,0,0.889,0
		c0.345-0.295,0.586-0.714,1.087-0.828c0.34,0.042,0.686-0.051,1.086,0.116c0.406,0.17,0.326,0.725,0.87,0.751
		c0.44,0.021,0.167,0.713,0.528,0.934c-0.349,0.222-0.15,0.586-0.229,0.875c-0.494,0.575-1.159,0.564-1.54,0.538
		c-0.344,0.188-0.501,0.272-0.636,0.347c0.098,0.368,0.4,0.479,0.571,0.73c0.805-0.105,1.526,0.179,2.257,0.498
		c0.393,0.172,0.799,0.328,1.254,0.373c0.882,0.087,1.763,0.236,2.627,0.43c0.431,0.097,0.838,0.333,1.097,0.811
		c0.17,0.57-0.28,0.99-0.621,1.387c-0.421,0.49-1.067,0.408-1.679,0.365c-0.161-0.333-0.559-0.373-0.854-0.636
		c-1.16,0.069-2.326,0.021-2.947-1.3c-0.708,0.03-1.22,0.412-1.808,0.842c-0.228,0-0.541,0-0.863,0
		c-1.369-1.438-1.995-1.803-3.908-1.22c-0.164,0.368-0.265,0.774-0.65,1.059c-0.492-0.127-1.012-0.26-1.635-0.42
		c-0.746,0.235-1.564,0.707-2.525,0.612c-0.419-0.042-0.762,0.354-1.201,0.226c-0.3,0.383-0.738,0.105-1.107,0.238
		c-0.223,0.307-0.578,0.446-0.915,0.613c-1.151,0.568-1.536,1.206-1.509,2.506c0.274,0.234,0.273,0.613,0.464,0.887
		c0.245,0.353,0.408,0.734,0.872,0.963c0.418,0.206,0.69,0.709,1.018,1.07c0.75-0.117,1.343,0.141,1.938,0.405
		c0.783,0.348,1.568,0.679,2.435,0.226c0.112-0.06,0.283-0.009,0.497-0.009c0.411,0.565,1.161,0.806,1.617,1.405
		c0.431,0.564,1.056,0.877,1.688,1.205c0,0.328,0,0.644,0,0.981c-0.202,0.133-0.306,0.43-0.609,0.517
		c-0.707,0.204-1.336,0.598-1.964,0.937c-0.809-0.742-1.417-1.587-2.405-1.964c-0.244-0.094-0.482-0.048-0.757-0.041
		c-0.199,0.497,0.113,0.852,0.39,1.176c0.319,0.374,0.661,0.714,0.626,1.313c-0.159,0.13-0.353,0.287-0.623,0.508
		c-1.102,0.199-2.052-0.271-2.829-1.188c0.042-0.571-0.246-0.941-0.771-1.146c-0.143,0.233-0.401,0.206-0.646,0.18
		c-0.266-0.027-0.359,0.191-0.507,0.309c-0.187,0.827,0.361,1.582,0.165,2.438c-0.099,0.145-0.408,0.014-0.488,0.249
		c-1.38,0.23-2.478-0.236-3.336-1.384c-0.138-0.658-0.138-0.658-0.802-0.731c-0.417,0.547-0.215,1.351-0.818,1.892
		c-0.244,0.031-0.535,0.14-0.825-0.097c-0.213-0.173-0.48-0.053-0.722-0.078c-1.096-0.115-2.019-0.283-2.657-1.146
		c-0.123-0.305-0.023-0.535,0.218-0.741c0.191-0.162,0.379-0.338,0.531-0.536c0.115-0.15,0.17-0.347,0.253-0.526
		c-0.148-0.113-0.401-0.077-0.545-0.358c-0.526,0.626-1.387-0.09-1.916,0.613c-0.201,0.453-0.66,0.897-0.521,1.516
		c-0.872,0.426-1.555-0.195-2.283-0.393c-0.338-0.092-0.822-0.117-1.086-0.551c-0.069-0.113-0.462-0.211-0.727-0.282
		c-0.658-0.176-1.322-0.403-1.695-1.092c-0.148-0.272-0.445-0.465-0.674-0.694c0.222-0.442,0.606-0.367,0.976-0.32
		c0.137,0.138,0.265,0.265,0.406,0.406c0.271,0,0.561-0.024,0.843,0.008c0.3,0.033,0.545-0.159,0.759-0.258
		c0.494-0.227,0.902-0.219,1.351,0.03c0.055,0.03,0.142,0.004,0.271,0.004c0.375-0.286,0.586-0.688,0.56-1.191
		c0.321-0.32,0.626-0.626,0.969-0.969c0.573-0.018,1.233,0.121,1.739-0.45c0.869,0.228,1.566-0.283,2.289-0.644
		c0.304-0.152,0.631-0.414,0.771-0.71c0.437-0.917,1.183-1.648,1.537-2.602c0.21-0.564,0.611-1.125,0.441-1.744
		c-0.106-0.39-0.102-0.816-0.295-1.167c-0.096-0.174-0.177-0.39-0.099-0.486c0.556-0.679-0.112-1.33-0.013-1.99
		c-0.372-0.371-0.252-0.899-0.399-1.344c-0.149-0.455-0.033-0.997-0.033-1.5c-0.231-0.1-0.165-0.372-0.327-0.543
		c-0.081,0.019-0.212,0.009-0.266,0.068c-0.435,0.483-0.622,1.107-0.915,1.671c-0.174,0.335-0.323,0.674-0.615,0.935
		c-0.48,0.43-0.44,1.115-0.783,1.65c-0.556,0-1.128,0-1.7,0c-0.656,0.576-1.607,0.233-2.296,0.744c0,0.206,0,0.419,0,0.646
		c0.444,0.151,0.698,0.619,1.195,0.706c0.11,0.356,0.134,0.702,0.312,0.929c-0.036,0.745-0.459,1.141-1.056,1.278
		c-0.591,0.138-1.066-0.195-1.349-0.544c-0.994-0.316-1.827,0.208-2.686,0.124c-0.24-0.302-0.718-0.23-0.794-0.639
		c-0.267,0-0.481,0-0.663,0c-0.92,0.868-2.173,1.224-3.013,2.175c-0.982-0.169-1.881,0.235-2.84,0.227
		c-0.955-0.009-1.723-0.224-2.292-1.054c0-0.312,0-0.671,0-1.029c0.179-0.18,0.358-0.357,0.529-0.528
		c0.463-0.048,0.941-0.055,1.303,0.232c0.23,0.183,0.441,0.187,0.683,0.188c0.54,0.004,1.08,0.001,1.62,0.001
		c0.849-0.353,1.336-1.128,1.986-1.686c0.687-0.291,1.521-0.149,2.093-0.809c-0.187-0.155-0.375-0.312-0.626-0.519
		c-0.399,0-0.9,0-1.471,0c-0.09,0.129-0.214,0.305-0.294,0.419c-0.464,0-0.824,0-1.183,0c-0.595-0.577-0.734-1.21-0.219-1.932
		c0.34,0,0.697,0,1.049,0c0.417-0.394,0.85-0.733,1.464-0.657c0.497,0.061,0.919-0.234,1.408-0.271
		c0.568-0.042,0.673-0.712,1.06-1.027c0.447-0.048,0.768,0.229,1.124,0.437c0.301-0.141,0.601-0.269,0.88-0.48
		c0.432-0.329,0.837-0.493,1.49-0.211c1.374,0.594,2.333,0.253,3.525-0.94c-0.083-0.349,0.146-0.75-0.207-1.095
		c-0.089-0.087,0.038-0.371,0.113-0.576c0.209-0.571,0.672-0.991,0.829-1.607c0.082-0.32,0.078-0.589,0.106-0.885
		c-0.477-0.135-0.681,0.252-0.778,0.466c-0.282,0.617-0.772,0.942-1.333,1.221c-0.591-0.12-0.948-0.506-1.106-1.059
		c-0.112-0.395-0.364-0.479-0.786-0.448c-0.835,1.323-1.858,2.543-3.215,3.448c-0.356,0-0.716,0-1.095,0
		c-0.686,0.941-1.696,0.581-2.576,0.654c-0.113-0.113-0.19-0.189-0.292-0.293c-0.125-0.463-0.027-0.92,0.25-1.381
		c1.394-0.531,2.455-1.577,3.496-2.65c0.505-1.317,1.748-2.001,2.568-3.027c0.711,0.106,1.003-0.8,1.696-0.628
		c0.44-0.306,0.75-0.726,1.214-1.003c0.462-0.276,0.862-0.722,1.083-1.258c0.28-0.677,0.885-1.198,0.935-1.994
		c0.008-0.135,0.238-0.256,0.367-0.385c-0.021-0.299,0.159-0.643-0.193-0.869c0.225-0.265,0.283-0.641,0.631-0.837
		c0.002-0.338,0.07-0.682-0.063-1.055c-1.186,0.396-1.958,1.312-2.941,2.011c-0.272-0.314-0.786-0.092-1.005-0.489
		c-0.96,0.322-1.255,1.179-1.79,1.837c0,0.345,0,0.699,0,1.025c-0.303,0.439-0.457,0.928-1.028,1.124
		c-0.392,0.135-0.647,0.609-0.68,0.982c-0.027,0.308-0.311,0.477-0.258,0.774c-0.149,0.193-0.424,0.175-0.591,0.378
		c-0.617,0.75-1.541,1.252-1.826,2.271c-0.596,0.458-1.019,1.097-1.407,1.694c-0.312,0.48-0.696,0.708-1.127,0.961
		c-0.027,0.016-0.071,0.002-0.235,0.002c-0.733-0.44-1.655-0.813-1.978-1.896c0.244-0.691,1.247-0.688,1.293-1.463
		c0.528-0.104,0.938-0.438,1.427-0.296c0.302-0.302,0.582-0.582,0.871-0.871c0.132,0,0.273,0,0.44,0
		c0.233-0.256,0.475-0.521,0.72-0.789c-0.205-0.271-0.491-0.513-0.833-0.17c-0.465,0.466-1.015,0.556-1.626,0.521
		c-0.286-0.017-0.573-0.003-0.841-0.003c-0.191-0.191-0.37-0.369-0.578-0.578c0.316-0.885,1.013-1.48,1.747-2
		c0.74-0.524,1.637-0.482,2.487-0.439c0.452-0.452,0.902-0.868,1.313-1.32c0.789-0.868,0.903-1.896,0.642-2.995
		c-0.014-0.06-0.097-0.103-0.163-0.169c-0.428,0.266-0.906,0.126-1.289,0.152c-0.798-0.442-1.549-0.75-2.465-0.623
		c-0.23,0.252-0.496,0.542-0.751,0.822c-0.397,0-0.751,0-1.152,0c-0.332-0.19-0.575-0.517-0.754-0.912c0-0.354,0-0.709,0-1.115
		c0.23-0.202,0.498-0.436,0.854-0.748c0.315,0.048,0.724-0.08,1.101-0.359c0.515-0.38,1.064-0.413,1.611-0.061
		c0.511,0.329,1.075,0.488,1.665,0.396c0.549-0.085,0.993,0.367,1.647,0.187c0.068-0.078,0.196-0.254,0.353-0.398
		c0.47-0.432,0.984-0.479,1.617-0.332c1.018,0.237,2.052,0.299,3.017-0.302c0.589-0.367,0.943-0.966,1.494-1.359
		c0.012-0.263,0.022-0.505,0.032-0.713c0.349-0.374,0.758-0.52,1.236-0.567c0.309-0.42,0.519-0.938,1.1-1.153
		c0.214-0.079,0.445-0.305,0.471-0.655c0.03-0.419,0.334-0.698,0.749-0.729c0.304-0.022,0.438-0.343,0.741-0.322
		c0-0.432,0-0.862,0-1.299c-0.548-0.521-0.767-1.301-1.379-1.827c-0.216,0-0.457,0-0.684,0c-0.335,0.242-0.344,0.71-0.74,0.918
		c0,0.453,0,0.91,0,1.362c-0.803,0.555-1.568,1.102-2.017,1.974c-0.058,0.112-0.198,0.207-0.321,0.254
		c-0.535,0.204-0.783,0.902-1.506,0.84c0-0.811,0-1.628,0-2.408c-0.243-0.268-0.512-0.102-0.734-0.158
		c-0.254,0.076-0.325,0.362-0.583,0.442c-0.512,0.16-0.773,0.615-0.86,1.07c-0.106,0.559-0.401,0.939-0.785,1.299
		c-0.815-0.04-1.536,0.198-2.202,0.681c-0.479,0.347-1.103,0.501-1.349,1.137c-0.097,0.25-0.53-0.002-0.537,0.344
		c-0.422,0.001-0.47-0.389-0.748-0.473c0-0.345,0-0.659,0-1.008c0.963-0.387,1.205-1.147,1.025-2.122
		c-0.08-0.08-0.182-0.182-0.271-0.271c-0.627-0.112-1.288,0.182-1.865-0.232c-0.377,0.171-0.745,0.354-1.009,0.693
		c-0.547,0.703-1.27,0.942-2.143,0.787c-0.297-0.298-0.603-0.603-0.953-0.953c0.177-0.445-0.289-0.851-0.193-1.336
		c1.051-0.103,2.036-0.447,3.097-0.212c0.287-0.343,0.56-0.67,0.795-0.953c1.166,0.16,2.031-0.321,2.95-0.823
		c0.751,0.075,1.504-0.455,2.217-0.21c0.602-0.31,1.109-0.57,1.796-0.924c0.203-0.071,0.613,0.123,1.043-0.072
		c2.274-1.028,2.282-1.01,3.288-2.015c0.296-0.112,0.724,0.13,0.971-0.374c0-0.229,0-0.543,0-0.855
		c-0.169-0.169-0.347-0.347-0.526-0.526c-0.208,0-0.423,0-0.639,0c-0.158,0.548-0.587,0.823-1.172,1.065
		c-0.563-0.167-1.156,0.408-1.747,0.135c-0.233-0.161-0.465-0.322-0.684-0.474c0.261-1.027,0.802-1.661,1.809-1.807
		c0.389-0.056,0.739-0.185,0.983-0.49c0.357-0.448,0.849-0.733,1.32-1.001c0.358-0.204,0.756-0.48,0.829-0.763
		c0.127-0.488,0.598-0.272,0.659-0.521c0.35-0.125,0.472,0.129,0.663,0.168c0.202,0.042,0.419,0.01,0.645,0.01
		c0.105-0.672,0.237-1.265,0.638-1.832c0.33-0.466,0.442-1.119,0.508-1.749c0.162-0.16,0.341-0.336,0.528-0.52
		c0.349,0,0.708,0,1.07,0c0.464,0.593,1.524,0.565,1.625,1.669c-0.108,0.472-0.565,1.014-0.412,1.636
		c0.147,0.595,0.692,0.949,1.167,1.443c0.284,0,0.637,0,0.988,0c0.323,0,0.646,0,0.959,0c0.569,0.569,1.129,1.129,1.725,1.724
		c0.386-0.053,0.772,0.058,1.157,0.342c0.057,0.112,0.146,0.291,0.247,0.493c-0.052,0.505-0.425,0.845-0.8,1.142
		c-0.371,0.293-0.448,0.792-0.891,1.088c-0.452-0.368-0.991-0.637-1.53-0.903c-0.575,0.485-0.592,0.61-0.17,1.251
		c1.106,0.063,1.106,0.063,1.618-0.169c0.942,0.342,1.93,0.587,2.715,1.279c1.313,0.012,2.453,0.402,3.229,1.529
		c0.457,0,0.887,0.005,1.316-0.001c0.8-0.013,1.552,0.24,2.261,0.538c0.816,0.344,1.374,1.024,1.768,1.825
		c-0.187,0.59-0.883,0.474-1.189,0.877c-0.223,0-0.438,0-0.658,0c-0.414-0.456-0.892-0.759-1.517-0.624
		c-0.817,0.583,0.166,1.25-0.149,1.85c-0.275,0.069-0.524,0.421-0.827,0.271c-0.387-0.193-0.851-0.188-1.165-0.6
		c-0.802-1.049-2.029-1.45-3.198-1.902c-0.344-0.132-0.764-0.069-1.085-0.092c-0.497,0.294-0.466,0.766-0.342,1.085
		c0.162,0.418,0.245,0.746-0.02,1.135c-0.066,0.098-0.01,0.281-0.01,0.425c0.26,0.55,0.842,0.656,1.323,0.951
		c-0.067,0.324-0.377,0.602-0.137,1.155c0.06,0.044,0.283,0.21,0.502,0.373c0.46-0.236,0.995-0.512,1.537-0.791
		c0.791,0.177,0.507,1.212,1.36,1.516c0.855,0,1.896,0,2.936,0c0.288,0,0.576,0.003,0.864-0.001c0.248-0.004,0.381,0.252,0.667,0.24
		c0.245-0.01,0.47,0.204,0.773,0.212c0.507,0.014,0.868,0.374,1.19,0.746c0.021,0.661-0.137,1.188-0.824,1.494
		c-0.253,0.112-0.546,0.191-0.694,0.096c-0.468-0.298-0.949-0.143-1.392-0.201c-0.369,0.339-0.437,0.86-0.942,1.085
		c-0.112,0-0.292,0-0.371,0c-0.269-0.271-0.491-0.494-0.654-0.657c-0.526,0.103-0.794-0.206-0.888-0.215
		c-0.504,0.014-0.593,0.219-0.715,0.38c-0.041,0.417,0.155,0.731,0.455,1.075c0.088,0.135,0.283,0.045,0.405,0.06
		c0.296,0.305,0.567,0.585,0.809,0.834c0.407,0,0.722,0,1.063,0c0.323-0.431,0.904-0.519,1.328-0.838
		c0.391,0.192,0.758,0.411,1.164,0.079c0.187-0.153,0.413-0.06,0.619-0.064c0.61-0.014,1.221-0.005,1.824-0.005
		c0.109,0.11,0.211,0.211,0.318,0.319c0,0.209,0,0.423,0,0.645c-0.113,0.205-0.409,0.283-0.433,0.578
		c0.256,0.584,1.004,0.626,1.3,1.209c0,0.243,0,0.53,0,0.768c-0.316,0.554-0.9,0.661-1.381,0.957
		c-0.905-0.243-1.64-0.914-2.588-1.251c-0.269-0.111-0.419,0.345-0.895,0.172c-0.17-0.086-0.497-0.25-0.835-0.419
		c-0.585,0.225-1.098,0.675-1.793,0.442c-0.382-0.413-0.795-0.838-1.528-0.827c-0.076,0.477-0.055,1.018-0.465,1.388
		c-0.204,0.303-0.701-0.125-0.767,0.39c-0.35-0.173-0.62-0.29-0.951-0.278c-0.302,0.01-0.622,0.11-0.922-0.112
		c-0.273-0.203-0.62-0.053-0.814-0.079c-0.204,0.145-0.347,0.246-0.469,0.333c0.056,0.371,0.369,0.477,0.551,0.747
		c0.79-0.166,1.538,0.344,2.356,0.206c0.852-0.144,1.656,0.299,2.502,0.212c0.797-0.082,1.629,0.22,2.395-0.213
		c0.449,0.217,1.006,0.284,1.334,0.663c0.318,0.367,0.725,0.114,1.075,0.308c0.396,0.218,0.846,0.436,1.288,0.517
		c0.558,0.102,1.147,0.024,1.777,0.024c0.46-0.447,1.077-0.472,1.747-0.422c0.303,0.396,0.886,0.495,1.188,1c0,0.24,0,0.527,0,0.816
		c-0.86,0.507-1.786,0.875-2.838,1.14c-0.478-0.314-1.129-0.1-1.761-0.169c-0.247-0.212-0.629-0.248-0.834-0.56
		c-0.098-0.149-0.33-0.183-0.446-0.205c-0.744-0.144-1.529-0.375-2.247-0.253c-0.58,0.099-1.165,0.098-1.728,0.188
		c-0.11,0.116-0.207,0.219-0.303,0.319c0.007,0.398,0.422,0.464,0.516,0.725c0.879,0.049,1.338,0.557,1.657,1.261
		c-0.151,0.292-0.21,0.644-0.566,0.917c-0.871-0.065-1.824,0.164-2.799-0.298c-0.3-0.573-0.836-1.033-1.466-1.409
		c-0.628-0.374-0.753-1.265-1.664-1.528c-0.397,0.062-0.974-0.179-1.479,0.205c-0.416,0.317-1.017,0.427-1.172,1.04
		c-0.008,0.029-0.071,0.052-0.071,0.076c0.005,0.832-0.465,1.563-0.529,2.332c0.231,0.537,0.791,0.62,1.111,0.976
		c-0.051,0.18,0.082,0.383-0.094,0.517c-0.177,0.135-0.199,0.379-0.118,0.477c0.33,0.398,0.18,0.748-0.005,1.132
		c-0.056,0.116-0.009,0.283-0.009,0.48c0.194,0.147,0.418,0.317,0.7,0.531c0.934-0.28,2.018-0.381,3.1-0.795
		c0.684,0.062,0.747,0.905,1.318,1.225c0.251,0,0.539,0,0.79,0c0.601-0.436,1.295-0.633,1.852-1.122
		C50.109,46.085,50.561,45.59,50.976,45.074z M46.143,33.094c0.084-0.327-0.39-0.523-0.202-0.867
		c-0.577-0.683-1.374-1.098-1.986-1.742c-0.628-0.662-0.811-1.555-1.352-2.32c-0.941,0.328-1.773-0.123-2.605-0.401
		c-0.874-0.293-1.401-1.107-2.015-1.757c-0.543,0.523-0.689,0.777-0.687,1.145c0.001,0.157,0.36,1.098,0.461,1.209
		c0.258,0.284,0.547,0.519,0.898,0.689c0.46,0.225,1.184,0.909,1.503,1.271c0.762,0.862,1.753,1.407,2.818,1.758
		c0.342,0.112,0.609,0.311,0.906,0.414c0.384,0.133,0.569,0.618,1.099,0.506C45.343,32.923,45.715,33.415,46.143,33.094z
		 M41.817,21.623c-0.705-0.605-1.053-1.639-2.101-2.104c0,0.531,0,0.984,0,1.504c0.181,0.273,0.61,0.461,0.687,0.909
		c0.326,0.092,0.643,0.198,0.884,0.452c0.116-0.193,0.35-0.18,0.53-0.296C41.817,21.958,41.817,21.82,41.817,21.623z M31.996,29.744
		c0.193-0.193,0.346-0.345,0.497-0.499c0.023-0.023,0.035-0.057,0.052-0.088c-0.033-0.165,0.078-0.36-0.101-0.496
		C31.591,28.767,31.484,28.994,31.996,29.744z M38.292,40.511c-0.145,0.416-0.039,0.53,0.16,0.449
		C38.405,40.828,38.348,40.669,38.292,40.511z"/>
	<path fill="currentColor" d="M32.743,20.828c0,0.292,0,0.458,0,0.615c-0.207,0.127-0.397,0.117-0.624,0
		C32.074,21.056,32.326,20.936,32.743,20.828z"/>
	
	
	
	
</g>
</svg>
