<?xml version="1.0" encoding="iso-8859-1"?>
<!-- Generator: Adobe Illustrator 16.0.0, SVG Export Plug-In . SVG Version: 6.00 Build 0)  -->
<!DOCTYPE svg PUBLIC "-//W3C//DTD SVG 1.1//EN" "http://www.w3.org/Graphics/SVG/1.1/DTD/svg11.dtd">
<svg version="1.1" id="Layer_1" xmlns="http://www.w3.org/2000/svg" xmlns:xlink="http://www.w3.org/1999/xlink" x="0px" y="0px"
	 width="72.36px" height="72.18px" viewBox="0 0 72.36 72.18" style="enable-background:new 0 0 72.36 72.18;" xml:space="preserve"
	>
<g>
	<path style="fill-rule:evenodd;clip-rule:evenodd;fill:none;" d="M-6.984-6.984c28.8,0,57.6,0,86.399,0c0,28.872,0,57.744,0,86.615
		c-28.8,0-57.6,0-86.399,0C-6.984,50.76-6.984,21.888-6.984-6.984z M50.976,45.074c-0.415,0.516-0.867,1.011-1.385,1.465
		c-0.557,0.489-1.251,0.687-1.852,1.122c-0.251,0-0.539,0-0.79,0c-0.571-0.319-0.635-1.163-1.318-1.225
		c-1.082,0.414-2.166,0.515-3.1,0.795c-0.282-0.214-0.506-0.384-0.7-0.531c0-0.197-0.047-0.364,0.009-0.48
		c0.185-0.384,0.335-0.733,0.005-1.132c-0.081-0.098-0.059-0.342,0.118-0.477c0.176-0.134,0.043-0.337,0.094-0.517
		c-0.32-0.355-0.88-0.438-1.111-0.976c0.064-0.77,0.534-1.5,0.529-2.332c0-0.024,0.063-0.047,0.071-0.076
		c0.155-0.613,0.756-0.723,1.172-1.04c0.506-0.384,1.082-0.144,1.479-0.205c0.911,0.264,1.036,1.154,1.664,1.528
		c0.63,0.376,1.166,0.836,1.466,1.409c0.975,0.462,1.928,0.232,2.799,0.298c0.356-0.273,0.415-0.625,0.566-0.917
		c-0.319-0.704-0.778-1.212-1.657-1.261c-0.094-0.261-0.509-0.326-0.516-0.725c0.096-0.101,0.192-0.203,0.303-0.319
		c0.563-0.091,1.147-0.09,1.728-0.188c0.718-0.122,1.503,0.109,2.247,0.253c0.116,0.022,0.349,0.056,0.446,0.205
		c0.205,0.312,0.587,0.348,0.834,0.56c0.632,0.069,1.283-0.146,1.761,0.169c1.052-0.265,1.978-0.633,2.838-1.14
		c0-0.289,0-0.576,0-0.816c-0.303-0.505-0.886-0.604-1.188-1c-0.67-0.05-1.287-0.025-1.747,0.422c-0.63,0-1.22,0.077-1.777-0.024
		c-0.442-0.081-0.893-0.299-1.288-0.517c-0.351-0.193-0.757,0.06-1.075-0.308c-0.328-0.379-0.885-0.445-1.334-0.662
		c-0.766,0.432-1.598,0.13-2.395,0.212c-0.846,0.087-1.65-0.356-2.502-0.212c-0.818,0.138-1.566-0.372-2.356-0.206
		c-0.182-0.271-0.495-0.376-0.551-0.747c0.122-0.086,0.265-0.188,0.469-0.333c0.194,0.026,0.541-0.124,0.814,0.079
		c0.3,0.222,0.62,0.122,0.922,0.112c0.331-0.012,0.602,0.104,0.951,0.278c0.065-0.515,0.563-0.086,0.767-0.39
		c0.41-0.37,0.389-0.911,0.465-1.388c0.733-0.011,1.146,0.415,1.528,0.827c0.695,0.233,1.208-0.217,1.793-0.442
		c0.338,0.17,0.665,0.333,0.835,0.419c0.476,0.173,0.626-0.283,0.895-0.172c0.948,0.337,1.683,1.008,2.588,1.251
		c0.48-0.295,1.064-0.403,1.381-0.957c0-0.238,0-0.525,0-0.768c-0.296-0.583-1.044-0.625-1.3-1.209
		c0.023-0.295,0.319-0.373,0.433-0.578c0-0.221,0-0.436,0-0.645c-0.107-0.107-0.209-0.209-0.318-0.319
		c-0.604,0-1.214-0.009-1.824,0.005c-0.206,0.004-0.433-0.088-0.619,0.064c-0.406,0.333-0.773,0.113-1.164-0.079
		c-0.424,0.319-1.005,0.408-1.328,0.838c-0.342,0-0.656,0-1.063,0c-0.241-0.249-0.513-0.529-0.809-0.834
		c-0.122-0.015-0.317,0.075-0.405-0.06c-0.3-0.344-0.496-0.659-0.455-1.075c0.122-0.161,0.211-0.366,0.715-0.38
		c0.094,0.009,0.361,0.318,0.888,0.215c0.163,0.163,0.386,0.387,0.654,0.657c0.079,0,0.259,0,0.371,0
		c0.506-0.226,0.573-0.747,0.942-1.085c0.442,0.058,0.924-0.097,1.392,0.201c0.148,0.095,0.441,0.016,0.694-0.096
		c0.688-0.306,0.846-0.833,0.823-1.494c-0.321-0.371-0.683-0.731-1.189-0.745c-0.304-0.008-0.528-0.222-0.773-0.212
		c-0.286,0.012-0.419-0.244-0.667-0.24c-0.288,0.004-0.576,0.001-0.864,0.001c-1.04,0-2.08,0-2.936,0
		c-0.854-0.303-0.569-1.338-1.36-1.516c-0.542,0.279-1.077,0.555-1.537,0.791c-0.219-0.163-0.442-0.329-0.502-0.373
		c-0.24-0.553,0.069-0.832,0.137-1.155c-0.481-0.295-1.063-0.401-1.323-0.951c0-0.144-0.057-0.327,0.01-0.425
		c0.265-0.389,0.182-0.717,0.02-1.135c-0.124-0.319-0.155-0.791,0.342-1.085c0.321,0.022,0.741-0.041,1.085,0.092
		c1.169,0.452,2.396,0.853,3.198,1.902c0.314,0.412,0.778,0.407,1.165,0.6c0.303,0.151,0.552-0.201,0.827-0.271
		c0.315-0.6-0.668-1.267,0.149-1.85c0.625-0.135,1.103,0.168,1.517,0.624c0.22,0,0.436,0,0.658,0
		c0.307-0.403,1.003-0.287,1.189-0.877c-0.394-0.801-0.951-1.481-1.768-1.825c-0.709-0.298-1.461-0.551-2.261-0.538
		c-0.43,0.006-0.859,0.001-1.316,0.001c-0.775-1.127-1.916-1.517-3.229-1.529c-0.785-0.692-1.772-0.938-2.715-1.279
		c-0.512,0.232-0.512,0.232-1.618,0.169c-0.422-0.641-0.405-0.767,0.17-1.251c0.539,0.266,1.078,0.535,1.53,0.903
		c0.442-0.296,0.52-0.795,0.891-1.088c0.375-0.297,0.748-0.636,0.8-1.142c-0.101-0.202-0.19-0.381-0.247-0.493
		c-0.385-0.284-0.771-0.395-1.157-0.342c-0.596-0.595-1.155-1.155-1.725-1.724c-0.313,0-0.636,0-0.959,0c-0.352,0-0.704,0-0.988,0
		c-0.475-0.494-1.02-0.848-1.167-1.443c-0.154-0.622,0.303-1.164,0.412-1.636c-0.101-1.104-1.161-1.076-1.625-1.669
		c-0.362,0-0.721,0-1.07,0c-0.187,0.183-0.366,0.36-0.528,0.52c-0.065,0.63-0.178,1.283-0.508,1.749
		c-0.401,0.566-0.533,1.16-0.638,1.832c-0.226,0-0.443,0.032-0.645-0.01c-0.19-0.04-0.313-0.293-0.663-0.168
		c-0.061,0.248-0.531,0.032-0.659,0.521c-0.073,0.282-0.471,0.559-0.829,0.763c-0.471,0.268-0.962,0.553-1.32,1.001
		c-0.244,0.305-0.594,0.434-0.983,0.49c-1.007,0.146-1.548,0.78-1.809,1.807c0.218,0.151,0.451,0.313,0.684,0.474
		c0.591,0.273,1.184-0.302,1.747-0.135c0.584-0.243,1.014-0.518,1.172-1.065c0.216,0,0.431,0,0.639,0
		c0.179,0.179,0.357,0.356,0.526,0.526c0,0.312,0,0.626,0,0.855c-0.247,0.504-0.675,0.262-0.971,0.374
		c-1.005,1.005-1.014,0.987-3.288,2.015c-0.43,0.194-0.84,0.001-1.043,0.072c-0.688,0.354-1.194,0.615-1.796,0.924
		c-0.713-0.245-1.466,0.285-2.217,0.21c-0.919,0.502-1.784,0.983-2.95,0.823c-0.235,0.282-0.508,0.61-0.795,0.953
		c-1.061-0.235-2.045,0.109-3.097,0.212c-0.096,0.485,0.371,0.892,0.193,1.336c0.35,0.35,0.655,0.655,0.953,0.953
		c0.873,0.155,1.596-0.084,2.143-0.787c0.264-0.34,0.631-0.522,1.009-0.693c0.577,0.415,1.238,0.121,1.865,0.232
		c0.089,0.089,0.191,0.191,0.271,0.271c0.179,0.975-0.062,1.735-1.025,2.122c0,0.349,0,0.663,0,1.008
		c0.277,0.083,0.325,0.474,0.748,0.473c0.006-0.346,0.44-0.094,0.537-0.344c0.246-0.636,0.87-0.79,1.349-1.137
		c0.667-0.483,1.387-0.721,2.202-0.681c0.384-0.36,0.679-0.741,0.785-1.299c0.086-0.455,0.348-0.911,0.86-1.07
		c0.258-0.081,0.33-0.366,0.583-0.442c0.223,0.056,0.491-0.11,0.734,0.158c0,0.78,0,1.597,0,2.408
		c0.723,0.062,0.972-0.637,1.506-0.84c0.124-0.047,0.264-0.142,0.321-0.254c0.449-0.872,1.214-1.419,2.017-1.974
		c0-0.452,0-0.91,0-1.362c0.396-0.208,0.405-0.676,0.74-0.918c0.227,0,0.468,0,0.684,0c0.612,0.526,0.831,1.306,1.379,1.827
		c0,0.437,0,0.867,0,1.299c-0.303-0.021-0.437,0.3-0.741,0.322c-0.415,0.03-0.719,0.31-0.749,0.729
		c-0.025,0.35-0.256,0.576-0.471,0.655c-0.581,0.215-0.791,0.733-1.1,1.153c-0.478,0.048-0.887,0.193-1.236,0.567
		c-0.009,0.208-0.02,0.451-0.032,0.713c-0.551,0.393-0.905,0.992-1.494,1.359c-0.965,0.601-2,0.539-3.017,0.302
		c-0.633-0.147-1.147-0.1-1.617,0.332c-0.157,0.144-0.284,0.32-0.353,0.398c-0.654,0.18-1.098-0.271-1.647-0.187
		c-0.59,0.092-1.154-0.067-1.665-0.396c-0.546-0.352-1.096-0.319-1.611,0.061c-0.377,0.279-0.785,0.407-1.101,0.359
		c-0.357,0.312-0.625,0.546-0.854,0.748c0,0.406,0,0.761,0,1.115c0.18,0.395,0.422,0.722,0.754,0.912c0.401,0,0.755,0,1.152,0
		c0.255-0.279,0.521-0.569,0.751-0.822c0.916-0.127,1.667,0.18,2.465,0.623c0.382-0.026,0.861,0.113,1.289-0.152
		c0.066,0.066,0.149,0.109,0.163,0.169c0.261,1.099,0.146,2.127-0.642,2.995c-0.411,0.452-0.862,0.869-1.313,1.32
		c-0.85-0.043-1.747-0.085-2.487,0.439c-0.734,0.52-1.431,1.116-1.747,2c0.208,0.209,0.387,0.387,0.578,0.578
		c0.268,0,0.556-0.014,0.841,0.003c0.611,0.035,1.161-0.055,1.626-0.521c0.342-0.343,0.628-0.101,0.833,0.17
		c-0.246,0.269-0.487,0.533-0.72,0.789c-0.167,0-0.308,0-0.44,0c-0.289,0.289-0.569,0.569-0.871,0.871
		c-0.489-0.143-0.899,0.191-1.427,0.296c-0.046,0.775-1.049,0.771-1.293,1.463c0.322,1.083,1.245,1.456,1.978,1.896
		c0.164,0,0.208,0.014,0.235-0.002c0.431-0.253,0.816-0.48,1.127-0.961c0.388-0.598,0.811-1.236,1.407-1.694
		c0.285-1.019,1.208-1.521,1.826-2.271c0.167-0.203,0.442-0.185,0.591-0.378c-0.053-0.297,0.231-0.466,0.258-0.774
		c0.033-0.373,0.288-0.847,0.68-0.982c0.571-0.196,0.725-0.685,1.028-1.124c0-0.326,0-0.68,0-1.025
		c0.535-0.658,0.83-1.515,1.79-1.837c0.219,0.397,0.733,0.175,1.005,0.489c0.982-0.699,1.755-1.615,2.941-2.011
		c0.134,0.373,0.065,0.717,0.063,1.055c-0.348,0.196-0.407,0.572-0.631,0.837c0.352,0.226,0.172,0.57,0.193,0.869
		c-0.129,0.129-0.359,0.25-0.367,0.385c-0.05,0.796-0.655,1.316-0.935,1.994c-0.222,0.536-0.622,0.982-1.083,1.258
		c-0.465,0.277-0.774,0.698-1.214,1.003c-0.693-0.172-0.985,0.734-1.696,0.628c-0.82,1.026-2.063,1.71-2.568,3.027
		c-1.041,1.073-2.103,2.119-3.496,2.65c-0.277,0.461-0.375,0.918-0.25,1.381c0.103,0.104,0.179,0.18,0.292,0.293
		c0.88-0.073,1.89,0.287,2.576-0.654c0.379,0,0.739,0,1.095,0c1.357-0.905,2.38-2.125,3.215-3.448
		c0.422-0.03,0.674,0.054,0.786,0.448c0.158,0.553,0.515,0.938,1.106,1.059c0.561-0.278,1.05-0.604,1.333-1.221
		c0.097-0.214,0.302-0.601,0.778-0.466c-0.029,0.296-0.025,0.564-0.106,0.885c-0.157,0.616-0.62,1.036-0.829,1.607
		c-0.075,0.205-0.202,0.489-0.113,0.576c0.354,0.345,0.125,0.746,0.207,1.095c-1.193,1.193-2.151,1.534-3.525,0.94
		c-0.653-0.282-1.059-0.118-1.49,0.211c-0.279,0.212-0.579,0.34-0.88,0.48c-0.356-0.208-0.677-0.484-1.125-0.437
		c-0.387,0.315-0.492,0.985-1.06,1.027c-0.489,0.036-0.912,0.331-1.408,0.271c-0.614-0.076-1.046,0.264-1.464,0.657
		c-0.352,0-0.709,0-1.049,0c-0.516,0.722-0.376,1.354,0.219,1.932c0.359,0,0.719,0,1.183,0c0.081-0.114,0.204-0.29,0.294-0.419
		c0.571,0,1.071,0,1.471,0c0.25,0.207,0.439,0.363,0.626,0.519c-0.573,0.659-1.406,0.518-2.093,0.809
		c-0.65,0.558-1.138,1.333-1.986,1.686c-0.54,0-1.08,0.003-1.62-0.001c-0.242-0.002-0.453-0.006-0.683-0.188
		c-0.362-0.287-0.84-0.28-1.303-0.232c-0.171,0.171-0.35,0.349-0.529,0.528c0,0.358,0,0.718,0,1.029
		c0.569,0.83,1.336,1.045,2.292,1.054c0.958,0.009,1.858-0.396,2.84-0.227c0.84-0.951,2.092-1.307,3.013-2.175
		c0.181,0,0.396,0,0.663,0c0.076,0.408,0.554,0.337,0.794,0.639c0.859,0.084,1.692-0.44,2.686-0.124
		c0.282,0.349,0.757,0.682,1.349,0.544c0.597-0.138,1.02-0.533,1.056-1.278c-0.178-0.227-0.202-0.572-0.312-0.929
		c-0.498-0.087-0.751-0.555-1.195-0.706c0-0.227,0-0.439,0-0.646c0.688-0.511,1.64-0.168,2.296-0.744c0.572,0,1.145,0,1.7,0
		c0.343-0.535,0.303-1.221,0.783-1.65c0.292-0.261,0.441-0.6,0.615-0.935c0.293-0.563,0.479-1.188,0.915-1.671
		c0.054-0.06,0.185-0.05,0.266-0.068c0.163,0.171,0.096,0.443,0.327,0.543c0,0.503-0.116,1.045,0.033,1.5
		c0.146,0.444,0.027,0.973,0.399,1.344c-0.1,0.66,0.568,1.312,0.013,1.99c-0.079,0.097,0.002,0.313,0.099,0.486
		c0.194,0.351,0.189,0.777,0.295,1.167c0.169,0.619-0.231,1.18-0.441,1.744c-0.354,0.953-1.1,1.685-1.537,2.602
		c-0.141,0.296-0.467,0.558-0.771,0.71c-0.723,0.36-1.42,0.871-2.289,0.644c-0.506,0.571-1.167,0.433-1.739,0.45
		c-0.343,0.343-0.648,0.648-0.969,0.969c0.026,0.504-0.185,0.905-0.56,1.191c-0.129,0-0.216,0.026-0.271-0.004
		c-0.449-0.249-0.857-0.257-1.351-0.03c-0.214,0.099-0.459,0.291-0.759,0.258c-0.282-0.032-0.571-0.008-0.843-0.008
		c-0.142-0.142-0.269-0.269-0.406-0.406c-0.369-0.047-0.754-0.122-0.976,0.32c0.229,0.229,0.526,0.422,0.674,0.694
		c0.373,0.688,1.037,0.916,1.695,1.092c0.265,0.071,0.658,0.169,0.727,0.282c0.265,0.434,0.748,0.459,1.086,0.551
		c0.728,0.197,1.411,0.818,2.283,0.393c-0.14-0.618,0.319-1.063,0.521-1.516c0.529-0.703,1.389,0.013,1.916-0.613
		c0.144,0.281,0.397,0.245,0.545,0.358c-0.083,0.18-0.139,0.376-0.253,0.526c-0.151,0.198-0.339,0.374-0.531,0.536
		c-0.242,0.206-0.341,0.437-0.218,0.741c0.638,0.863,1.561,1.031,2.657,1.146c0.241,0.025,0.509-0.095,0.722,0.078
		c0.291,0.236,0.582,0.128,0.825,0.097c0.603-0.541,0.4-1.345,0.818-1.892c0.664,0.073,0.664,0.073,0.802,0.731
		c0.859,1.147,1.957,1.614,3.336,1.384c0.08-0.235,0.39-0.104,0.488-0.249c0.196-0.856-0.352-1.611-0.165-2.438
		c0.147-0.117,0.241-0.336,0.507-0.309c0.244,0.026,0.503,0.054,0.646-0.18c0.524,0.204,0.813,0.574,0.771,1.146
		c0.777,0.917,1.728,1.387,2.829,1.188c0.271-0.221,0.464-0.378,0.623-0.508c0.035-0.6-0.307-0.939-0.626-1.313
		c-0.276-0.324-0.589-0.679-0.39-1.176c0.274-0.007,0.513-0.053,0.757,0.041c0.988,0.377,1.597,1.222,2.405,1.964
		c0.628-0.339,1.257-0.732,1.964-0.937c0.304-0.087,0.407-0.384,0.609-0.517c0-0.338,0-0.653,0-0.981
		c-0.632-0.328-1.257-0.641-1.688-1.205c-0.456-0.6-1.206-0.84-1.617-1.405c-0.214,0-0.385-0.051-0.497,0.009
		c-0.866,0.453-1.651,0.122-2.435-0.226c-0.595-0.265-1.188-0.522-1.938-0.405c-0.327-0.361-0.6-0.864-1.018-1.07
		c-0.464-0.229-0.627-0.61-0.872-0.963c-0.19-0.273-0.189-0.652-0.464-0.887c-0.027-1.3,0.357-1.938,1.509-2.506
		c0.337-0.167,0.692-0.307,0.915-0.613c0.369-0.133,0.808,0.145,1.107-0.238c0.439,0.129,0.782-0.268,1.201-0.226
		c0.961,0.095,1.779-0.377,2.525-0.612c0.623,0.16,1.143,0.293,1.635,0.42c0.386-0.284,0.486-0.69,0.65-1.059
		c1.913-0.583,2.539-0.219,3.908,1.22c0.322,0,0.636,0,0.863,0c0.588-0.43,1.1-0.812,1.808-0.842c0.621,1.321,1.787,1.369,2.947,1.3
		c0.296,0.263,0.693,0.303,0.854,0.636c0.611,0.043,1.258,0.125,1.679-0.365c0.341-0.396,0.791-0.816,0.621-1.387
		c-0.259-0.478-0.666-0.714-1.097-0.811c-0.864-0.193-1.745-0.343-2.627-0.43c-0.455-0.045-0.861-0.201-1.254-0.373
		c-0.73-0.319-1.452-0.604-2.257-0.498c-0.171-0.251-0.474-0.362-0.571-0.73c0.135-0.074,0.292-0.159,0.636-0.347
		c0.381,0.026,1.046,0.037,1.54-0.538c0.079-0.289-0.119-0.653,0.229-0.875c-0.361-0.221-0.088-0.912-0.528-0.934
		c-0.544-0.026-0.464-0.581-0.87-0.751c-0.4-0.167-0.746-0.074-1.086-0.116c-0.501,0.114-0.742,0.533-1.087,0.828
		C51.581,45.074,51.293,45.074,50.976,45.074z M31.426,69.355c1.208,0.442,2.304,0.333,3.391,0.338
		c1.473,0.007,2.946-0.001,4.419,0.003c0.729,0.003,1.461,0.049,2.143-0.303c0.02-0.169,0.066-0.341-0.024-0.503
		c-0.381-0.167-0.811-0.458-1.169-0.248c-0.388,0.227-0.8,0.113-1.177,0.295c-0.59,0.285-1.136,0.083-1.603-0.329
		c-0.157-0.139-0.269-0.33-0.333-0.412c-0.423,0-0.707,0-0.893,0c-0.469,0.24-0.854,0.438-1.24,0.637
		c-0.955-0.363-1.888-0.815-2.965-0.618c-0.187,0.238-0.593,0.197-0.726,0.54C31.219,69.003,31.236,69.244,31.426,69.355z
		 M45.824,68.831c0.901-0.541,0.946-0.56,1.686-0.647c0.426-0.051,0.781-0.219,1.008-0.555c0.076-0.361-0.084-0.574-0.325-0.733
		c-0.297,0-0.582,0-0.862,0c-0.322,0.33-0.619,0.678-1.208,0.834c-0.428-0.146-0.919,0.269-1.483,0.245
		c-0.55-0.021-1.012,0.333-1.535,0.463c-0.297,0.073-0.703,0.317-0.974,0.935c0.542-0.231,0.917,0.033,1.34-0.296
		c0.259-0.202,0.702,0.021,1.097-0.207C44.888,68.683,45.405,68.831,45.824,68.831z M32.743,20.828
		c-0.417,0.107-0.669,0.228-0.624,0.616c0.226,0.117,0.417,0.127,0.624,0C32.743,21.287,32.743,21.121,32.743,20.828z"/>
	<path style="fill-rule:evenodd;clip-rule:evenodd;" d="M50.976,45.074c0.317,0,0.604,0,0.889,0
		c0.345-0.295,0.586-0.714,1.087-0.828c0.34,0.042,0.686-0.051,1.086,0.116c0.406,0.17,0.326,0.725,0.87,0.751
		c0.44,0.021,0.167,0.713,0.528,0.934c-0.349,0.222-0.15,0.586-0.229,0.875c-0.494,0.575-1.159,0.564-1.54,0.538
		c-0.344,0.188-0.501,0.272-0.636,0.347c0.098,0.368,0.4,0.479,0.571,0.73c0.805-0.105,1.526,0.179,2.257,0.498
		c0.393,0.172,0.799,0.328,1.254,0.373c0.882,0.087,1.763,0.236,2.627,0.43c0.431,0.097,0.838,0.333,1.097,0.811
		c0.17,0.57-0.28,0.99-0.621,1.387c-0.421,0.49-1.067,0.408-1.679,0.365c-0.161-0.333-0.559-0.373-0.854-0.636
		c-1.16,0.069-2.326,0.021-2.947-1.3c-0.708,0.03-1.22,0.412-1.808,0.842c-0.228,0-0.541,0-0.863,0
		c-1.369-1.438-1.995-1.803-3.908-1.22c-0.164,0.368-0.265,0.774-0.65,1.059c-0.492-0.127-1.012-0.26-1.635-0.42
		c-0.746,0.235-1.564,0.707-2.525,0.612c-0.419-0.042-0.762,0.354-1.201,0.226c-0.3,0.383-0.738,0.105-1.107,0.238
		c-0.223,0.307-0.578,0.446-0.915,0.613c-1.151,0.568-1.536,1.206-1.509,2.506c0.274,0.234,0.273,0.613,0.464,0.887
		c0.245,0.353,0.408,0.734,0.872,0.963c0.418,0.206,0.69,0.709,1.018,1.07c0.75-0.117,1.343,0.141,1.938,0.405
		c0.783,0.348,1.568,0.679,2.435,0.226c0.112-0.06,0.283-0.009,0.497-0.009c0.411,0.565,1.161,0.806,1.617,1.405
		c0.431,0.564,1.056,0.877,1.688,1.205c0,0.328,0,0.644,0,0.981c-0.202,0.133-0.306,0.43-0.609,0.517
		c-0.707,0.204-1.336,0.598-1.964,0.937c-0.809-0.742-1.417-1.587-2.405-1.964c-0.244-0.094-0.482-0.048-0.757-0.041
		c-0.199,0.497,0.113,0.852,0.39,1.176c0.319,0.374,0.661,0.714,0.626,1.313c-0.159,0.13-0.353,0.287-0.623,0.508
		c-1.102,0.199-2.052-0.271-2.829-1.188c0.042-0.571-0.246-0.941-0.771-1.146c-0.143,0.233-0.401,0.206-0.646,0.18
		c-0.266-0.027-0.359,0.191-0.507,0.309c-0.187,0.827,0.361,1.582,0.165,2.438c-0.099,0.145-0.408,0.014-0.488,0.249
		c-1.38,0.23-2.478-0.236-3.336-1.384c-0.138-0.658-0.138-0.658-0.802-0.731c-0.417,0.547-0.215,1.351-0.818,1.892
		c-0.244,0.031-0.535,0.14-0.825-0.097c-0.213-0.173-0.48-0.053-0.722-0.078c-1.096-0.115-2.019-0.283-2.657-1.146
		c-0.123-0.305-0.023-0.535,0.218-0.741c0.191-0.162,0.379-0.338,0.531-0.536c0.115-0.15,0.17-0.347,0.253-0.526
		c-0.148-0.113-0.401-0.077-0.545-0.358c-0.526,0.626-1.387-0.09-1.916,0.613c-0.201,0.453-0.66,0.897-0.521,1.516
		c-0.872,0.426-1.555-0.195-2.283-0.393c-0.338-0.092-0.822-0.117-1.086-0.551c-0.069-0.113-0.462-0.211-0.727-0.282
		c-0.658-0.176-1.322-0.403-1.695-1.092c-0.148-0.272-0.445-0.465-0.674-0.694c0.222-0.442,0.606-0.367,0.976-0.32
		c0.137,0.138,0.265,0.265,0.406,0.406c0.271,0,0.561-0.024,0.843,0.008c0.3,0.033,0.545-0.159,0.759-0.258
		c0.494-0.227,0.902-0.219,1.351,0.03c0.055,0.03,0.142,0.004,0.271,0.004c0.375-0.286,0.586-0.688,0.56-1.191
		c0.321-0.32,0.626-0.626,0.969-0.969c0.573-0.018,1.233,0.121,1.739-0.45c0.869,0.228,1.566-0.283,2.289-0.644
		c0.304-0.152,0.631-0.414,0.771-0.71c0.437-0.917,1.183-1.648,1.537-2.602c0.21-0.564,0.611-1.125,0.441-1.744
		c-0.106-0.39-0.102-0.816-0.295-1.167c-0.096-0.174-0.177-0.39-0.099-0.486c0.556-0.679-0.112-1.33-0.013-1.99
		c-0.372-0.371-0.252-0.899-0.399-1.344c-0.149-0.455-0.033-0.997-0.033-1.5c-0.231-0.1-0.165-0.372-0.327-0.543
		c-0.081,0.019-0.212,0.009-0.266,0.068c-0.435,0.483-0.622,1.107-0.915,1.671c-0.174,0.335-0.323,0.674-0.615,0.935
		c-0.48,0.43-0.44,1.115-0.783,1.65c-0.556,0-1.128,0-1.7,0c-0.656,0.576-1.607,0.233-2.296,0.744c0,0.206,0,0.419,0,0.646
		c0.444,0.151,0.698,0.619,1.195,0.706c0.11,0.356,0.134,0.702,0.312,0.929c-0.036,0.745-0.459,1.141-1.056,1.278
		c-0.591,0.138-1.066-0.195-1.349-0.544c-0.994-0.316-1.827,0.208-2.686,0.124c-0.24-0.302-0.718-0.23-0.794-0.639
		c-0.267,0-0.481,0-0.663,0c-0.92,0.868-2.173,1.224-3.013,2.175c-0.982-0.169-1.881,0.235-2.84,0.227
		c-0.955-0.009-1.723-0.224-2.292-1.054c0-0.312,0-0.671,0-1.029c0.179-0.18,0.358-0.357,0.529-0.528
		c0.463-0.048,0.941-0.055,1.303,0.232c0.23,0.183,0.441,0.187,0.683,0.188c0.54,0.004,1.08,0.001,1.62,0.001
		c0.849-0.353,1.336-1.128,1.986-1.686c0.687-0.291,1.521-0.149,2.093-0.809c-0.187-0.155-0.375-0.312-0.626-0.519
		c-0.399,0-0.9,0-1.471,0c-0.09,0.129-0.214,0.305-0.294,0.419c-0.464,0-0.824,0-1.183,0c-0.595-0.577-0.734-1.21-0.219-1.932
		c0.34,0,0.697,0,1.049,0c0.417-0.394,0.85-0.733,1.464-0.657c0.497,0.061,0.919-0.234,1.408-0.271
		c0.568-0.042,0.673-0.712,1.06-1.027c0.447-0.048,0.768,0.229,1.124,0.437c0.301-0.141,0.601-0.269,0.88-0.48
		c0.432-0.329,0.837-0.493,1.49-0.211c1.374,0.594,2.333,0.253,3.525-0.94c-0.083-0.349,0.146-0.75-0.207-1.095
		c-0.089-0.087,0.038-0.371,0.113-0.576c0.209-0.571,0.672-0.991,0.829-1.607c0.082-0.32,0.078-0.589,0.106-0.885
		c-0.477-0.135-0.681,0.252-0.778,0.466c-0.282,0.617-0.772,0.942-1.333,1.221c-0.591-0.12-0.948-0.506-1.106-1.059
		c-0.112-0.395-0.364-0.479-0.786-0.448c-0.835,1.323-1.858,2.543-3.215,3.448c-0.356,0-0.716,0-1.095,0
		c-0.686,0.941-1.696,0.581-2.576,0.654c-0.113-0.113-0.19-0.189-0.292-0.293c-0.125-0.463-0.027-0.92,0.25-1.381
		c1.394-0.531,2.455-1.577,3.496-2.65c0.505-1.317,1.748-2.001,2.568-3.027c0.711,0.106,1.003-0.8,1.696-0.628
		c0.44-0.306,0.75-0.726,1.214-1.003c0.462-0.276,0.862-0.722,1.083-1.258c0.28-0.677,0.885-1.198,0.935-1.994
		c0.008-0.135,0.238-0.256,0.367-0.385c-0.021-0.299,0.159-0.643-0.193-0.869c0.225-0.265,0.283-0.641,0.631-0.837
		c0.002-0.338,0.07-0.682-0.063-1.055c-1.186,0.396-1.958,1.312-2.941,2.011c-0.272-0.314-0.786-0.092-1.005-0.489
		c-0.96,0.322-1.255,1.179-1.79,1.837c0,0.345,0,0.699,0,1.025c-0.303,0.439-0.457,0.928-1.028,1.124
		c-0.392,0.135-0.647,0.609-0.68,0.982c-0.027,0.308-0.311,0.477-0.258,0.774c-0.149,0.193-0.424,0.175-0.591,0.378
		c-0.617,0.75-1.541,1.252-1.826,2.271c-0.596,0.458-1.019,1.097-1.407,1.694c-0.312,0.48-0.696,0.708-1.127,0.961
		c-0.027,0.016-0.071,0.002-0.235,0.002c-0.733-0.44-1.655-0.813-1.978-1.896c0.244-0.691,1.247-0.688,1.293-1.463
		c0.528-0.104,0.938-0.438,1.427-0.296c0.302-0.302,0.582-0.582,0.871-0.871c0.132,0,0.273,0,0.44,0
		c0.233-0.256,0.475-0.521,0.72-0.789c-0.205-0.271-0.491-0.513-0.833-0.17c-0.465,0.466-1.015,0.556-1.626,0.521
		c-0.286-0.017-0.573-0.003-0.841-0.003c-0.191-0.191-0.37-0.369-0.578-0.578c0.316-0.885,1.013-1.48,1.747-2
		c0.74-0.524,1.637-0.482,2.487-0.439c0.452-0.452,0.902-0.868,1.313-1.32c0.789-0.868,0.903-1.896,0.642-2.995
		c-0.014-0.06-0.097-0.103-0.163-0.169c-0.428,0.266-0.906,0.126-1.289,0.152c-0.798-0.442-1.549-0.75-2.465-0.623
		c-0.23,0.252-0.496,0.542-0.751,0.822c-0.397,0-0.751,0-1.152,0c-0.332-0.19-0.575-0.517-0.754-0.912c0-0.354,0-0.709,0-1.115
		c0.23-0.202,0.498-0.436,0.854-0.748c0.315,0.048,0.724-0.08,1.101-0.359c0.515-0.38,1.064-0.413,1.611-0.061
		c0.511,0.329,1.075,0.488,1.665,0.396c0.549-0.085,0.993,0.367,1.647,0.187c0.068-0.078,0.196-0.254,0.353-0.398
		c0.47-0.432,0.984-0.479,1.617-0.332c1.018,0.237,2.052,0.299,3.017-0.302c0.589-0.367,0.943-0.966,1.494-1.359
		c0.012-0.263,0.022-0.505,0.032-0.713c0.349-0.374,0.758-0.52,1.236-0.567c0.309-0.42,0.519-0.938,1.1-1.153
		c0.214-0.079,0.445-0.305,0.471-0.655c0.03-0.419,0.334-0.698,0.749-0.729c0.304-0.022,0.438-0.343,0.741-0.322
		c0-0.432,0-0.862,0-1.299c-0.548-0.521-0.767-1.301-1.379-1.827c-0.216,0-0.457,0-0.684,0c-0.335,0.242-0.344,0.71-0.74,0.918
		c0,0.453,0,0.91,0,1.362c-0.803,0.555-1.568,1.102-2.017,1.974c-0.058,0.112-0.198,0.207-0.321,0.254
		c-0.535,0.204-0.783,0.902-1.506,0.84c0-0.811,0-1.628,0-2.408c-0.243-0.268-0.512-0.102-0.734-0.158
		c-0.254,0.076-0.325,0.362-0.583,0.442c-0.512,0.16-0.773,0.615-0.86,1.07c-0.106,0.559-0.401,0.939-0.785,1.299
		c-0.815-0.04-1.536,0.198-2.202,0.681c-0.479,0.347-1.103,0.501-1.349,1.137c-0.097,0.25-0.53-0.002-0.537,0.344
		c-0.422,0.001-0.47-0.389-0.748-0.473c0-0.345,0-0.659,0-1.008c0.963-0.387,1.205-1.147,1.025-2.122
		c-0.08-0.08-0.182-0.182-0.271-0.271c-0.627-0.112-1.288,0.182-1.865-0.232c-0.377,0.171-0.745,0.354-1.009,0.693
		c-0.547,0.703-1.27,0.942-2.143,0.787c-0.297-0.298-0.603-0.603-0.953-0.953c0.177-0.445-0.289-0.851-0.193-1.336
		c1.051-0.103,2.036-0.447,3.097-0.212c0.287-0.343,0.56-0.67,0.795-0.953c1.166,0.16,2.031-0.321,2.95-0.823
		c0.751,0.075,1.504-0.455,2.217-0.21c0.602-0.31,1.109-0.57,1.796-0.924c0.203-0.071,0.613,0.123,1.043-0.072
		c2.274-1.028,2.282-1.01,3.288-2.015c0.296-0.112,0.724,0.13,0.971-0.374c0-0.229,0-0.543,0-0.855
		c-0.169-0.169-0.347-0.347-0.526-0.526c-0.208,0-0.423,0-0.639,0c-0.158,0.548-0.587,0.823-1.172,1.065
		c-0.563-0.167-1.156,0.408-1.747,0.135c-0.233-0.161-0.465-0.322-0.684-0.474c0.261-1.027,0.802-1.661,1.809-1.807
		c0.389-0.056,0.739-0.185,0.983-0.49c0.357-0.448,0.849-0.733,1.32-1.001c0.358-0.204,0.756-0.48,0.829-0.763
		c0.127-0.488,0.598-0.272,0.659-0.521c0.35-0.125,0.472,0.129,0.663,0.168c0.202,0.042,0.419,0.01,0.645,0.01
		c0.105-0.672,0.237-1.265,0.638-1.832c0.33-0.466,0.442-1.119,0.508-1.749c0.162-0.16,0.341-0.336,0.528-0.52
		c0.349,0,0.708,0,1.07,0c0.464,0.593,1.524,0.565,1.625,1.669c-0.108,0.472-0.565,1.014-0.412,1.636
		c0.147,0.595,0.692,0.949,1.167,1.443c0.284,0,0.637,0,0.988,0c0.323,0,0.646,0,0.959,0c0.569,0.569,1.129,1.129,1.725,1.724
		c0.386-0.053,0.772,0.058,1.157,0.342c0.057,0.112,0.146,0.291,0.247,0.493c-0.052,0.505-0.425,0.845-0.8,1.142
		c-0.371,0.293-0.448,0.792-0.891,1.088c-0.452-0.368-0.991-0.637-1.53-0.903c-0.575,0.485-0.592,0.61-0.17,1.251
		c1.106,0.063,1.106,0.063,1.618-0.169c0.942,0.342,1.93,0.587,2.715,1.279c1.313,0.012,2.453,0.402,3.229,1.529
		c0.457,0,0.887,0.005,1.316-0.001c0.8-0.013,1.552,0.24,2.261,0.538c0.816,0.344,1.374,1.024,1.768,1.825
		c-0.187,0.59-0.883,0.474-1.189,0.877c-0.223,0-0.438,0-0.658,0c-0.414-0.456-0.892-0.759-1.517-0.624
		c-0.817,0.583,0.166,1.25-0.149,1.85c-0.275,0.069-0.524,0.421-0.827,0.271c-0.387-0.193-0.851-0.188-1.165-0.6
		c-0.802-1.049-2.029-1.45-3.198-1.902c-0.344-0.132-0.764-0.069-1.085-0.092c-0.497,0.294-0.466,0.766-0.342,1.085
		c0.162,0.418,0.245,0.746-0.02,1.135c-0.066,0.098-0.01,0.281-0.01,0.425c0.26,0.55,0.842,0.656,1.323,0.951
		c-0.067,0.324-0.377,0.602-0.137,1.155c0.06,0.044,0.283,0.21,0.502,0.373c0.46-0.236,0.995-0.512,1.537-0.791
		c0.791,0.177,0.507,1.212,1.36,1.516c0.855,0,1.896,0,2.936,0c0.288,0,0.576,0.003,0.864-0.001c0.248-0.004,0.381,0.252,0.667,0.24
		c0.245-0.01,0.47,0.204,0.773,0.212c0.507,0.014,0.868,0.374,1.19,0.746c0.021,0.661-0.137,1.188-0.824,1.494
		c-0.253,0.112-0.546,0.191-0.694,0.096c-0.468-0.298-0.949-0.143-1.392-0.201c-0.369,0.339-0.437,0.86-0.942,1.085
		c-0.112,0-0.292,0-0.371,0c-0.269-0.271-0.491-0.494-0.654-0.657c-0.526,0.103-0.794-0.206-0.888-0.215
		c-0.504,0.014-0.593,0.219-0.715,0.38c-0.041,0.417,0.155,0.731,0.455,1.075c0.088,0.135,0.283,0.045,0.405,0.06
		c0.296,0.305,0.567,0.585,0.809,0.834c0.407,0,0.722,0,1.063,0c0.323-0.431,0.904-0.519,1.328-0.838
		c0.391,0.192,0.758,0.411,1.164,0.079c0.187-0.153,0.413-0.06,0.619-0.064c0.61-0.014,1.221-0.005,1.824-0.005
		c0.109,0.11,0.211,0.211,0.318,0.319c0,0.209,0,0.423,0,0.645c-0.113,0.205-0.409,0.283-0.433,0.578
		c0.256,0.584,1.004,0.626,1.3,1.209c0,0.243,0,0.53,0,0.768c-0.316,0.554-0.9,0.661-1.381,0.957
		c-0.905-0.243-1.64-0.914-2.588-1.251c-0.269-0.111-0.419,0.345-0.895,0.172c-0.17-0.086-0.497-0.25-0.835-0.419
		c-0.585,0.225-1.098,0.675-1.793,0.442c-0.382-0.413-0.795-0.838-1.528-0.827c-0.076,0.477-0.055,1.018-0.465,1.388
		c-0.204,0.303-0.701-0.125-0.767,0.39c-0.35-0.173-0.62-0.29-0.951-0.278c-0.302,0.01-0.622,0.11-0.922-0.112
		c-0.273-0.203-0.62-0.053-0.814-0.079c-0.204,0.145-0.347,0.246-0.469,0.333c0.056,0.371,0.369,0.477,0.551,0.747
		c0.79-0.166,1.538,0.344,2.356,0.206c0.852-0.144,1.656,0.299,2.502,0.212c0.797-0.082,1.629,0.22,2.395-0.213
		c0.449,0.217,1.006,0.284,1.334,0.663c0.318,0.367,0.725,0.114,1.075,0.308c0.396,0.218,0.846,0.436,1.288,0.517
		c0.558,0.102,1.147,0.024,1.777,0.024c0.46-0.447,1.077-0.472,1.747-0.422c0.303,0.396,0.886,0.495,1.188,1c0,0.24,0,0.527,0,0.816
		c-0.86,0.507-1.786,0.875-2.838,1.14c-0.478-0.314-1.129-0.1-1.761-0.169c-0.247-0.212-0.629-0.248-0.834-0.56
		c-0.098-0.149-0.33-0.183-0.446-0.205c-0.744-0.144-1.529-0.375-2.247-0.253c-0.58,0.099-1.165,0.098-1.728,0.188
		c-0.11,0.116-0.207,0.219-0.303,0.319c0.007,0.398,0.422,0.464,0.516,0.725c0.879,0.049,1.338,0.557,1.657,1.261
		c-0.151,0.292-0.21,0.644-0.566,0.917c-0.871-0.065-1.824,0.164-2.799-0.298c-0.3-0.573-0.836-1.033-1.466-1.409
		c-0.628-0.374-0.753-1.265-1.664-1.528c-0.397,0.062-0.974-0.179-1.479,0.205c-0.416,0.317-1.017,0.427-1.172,1.04
		c-0.008,0.029-0.071,0.052-0.071,0.076c0.005,0.832-0.465,1.563-0.529,2.332c0.231,0.537,0.791,0.62,1.111,0.976
		c-0.051,0.18,0.082,0.383-0.094,0.517c-0.177,0.135-0.199,0.379-0.118,0.477c0.33,0.398,0.18,0.748-0.005,1.132
		c-0.056,0.116-0.009,0.283-0.009,0.48c0.194,0.147,0.418,0.317,0.7,0.531c0.934-0.28,2.018-0.381,3.1-0.795
		c0.684,0.062,0.747,0.905,1.318,1.225c0.251,0,0.539,0,0.79,0c0.601-0.436,1.295-0.633,1.852-1.122
		C50.109,46.085,50.561,45.59,50.976,45.074z M46.143,33.094c0.084-0.327-0.39-0.523-0.202-0.867
		c-0.577-0.683-1.374-1.098-1.986-1.742c-0.628-0.662-0.811-1.555-1.352-2.32c-0.941,0.328-1.773-0.123-2.605-0.401
		c-0.874-0.293-1.401-1.107-2.015-1.757c-0.543,0.523-0.689,0.777-0.687,1.145c0.001,0.157,0.36,1.098,0.461,1.209
		c0.258,0.284,0.547,0.519,0.898,0.689c0.46,0.225,1.184,0.909,1.503,1.271c0.762,0.862,1.753,1.407,2.818,1.758
		c0.342,0.112,0.609,0.311,0.906,0.414c0.384,0.133,0.569,0.618,1.099,0.506C45.343,32.923,45.715,33.415,46.143,33.094z
		 M41.817,21.623c-0.705-0.605-1.053-1.639-2.101-2.104c0,0.531,0,0.984,0,1.504c0.181,0.273,0.61,0.461,0.687,0.909
		c0.326,0.092,0.643,0.198,0.884,0.452c0.116-0.193,0.35-0.18,0.53-0.296C41.817,21.958,41.817,21.82,41.817,21.623z M31.996,29.744
		c0.193-0.193,0.346-0.345,0.497-0.499c0.023-0.023,0.035-0.057,0.052-0.088c-0.033-0.165,0.078-0.36-0.101-0.496
		C31.591,28.767,31.484,28.994,31.996,29.744z M38.292,40.511c-0.145,0.416-0.039,0.53,0.16,0.449
		C38.405,40.828,38.348,40.669,38.292,40.511z"/>
	<path style="fill-rule:evenodd;clip-rule:evenodd;" d="M32.743,20.828c0,0.292,0,0.458,0,0.615c-0.207,0.127-0.397,0.117-0.624,0
		C32.074,21.056,32.326,20.936,32.743,20.828z"/>
	<path style="fill-rule:evenodd;clip-rule:evenodd;fill:none;" d="M46.143,33.094c-0.428,0.321-0.8-0.171-1.161-0.095
		c-0.529,0.112-0.715-0.374-1.099-0.506c-0.297-0.103-0.564-0.301-0.906-0.414c-1.065-0.351-2.057-0.896-2.818-1.758
		c-0.319-0.363-1.043-1.047-1.503-1.271c-0.352-0.17-0.641-0.405-0.898-0.689c-0.101-0.111-0.46-1.052-0.461-1.209
		c-0.003-0.368,0.144-0.622,0.687-1.145c0.613,0.65,1.141,1.464,2.015,1.757c0.832,0.278,1.664,0.729,2.605,0.401
		c0.541,0.765,0.724,1.658,1.352,2.32c0.612,0.645,1.409,1.06,1.986,1.742C45.753,32.571,46.227,32.768,46.143,33.094z"/>
	<path style="fill-rule:evenodd;clip-rule:evenodd;fill:none;" d="M41.817,21.623c0,0.197,0,0.335,0,0.465
		c-0.181,0.116-0.414,0.103-0.53,0.296c-0.241-0.254-0.558-0.36-0.884-0.452c-0.076-0.448-0.506-0.636-0.687-0.909
		c0-0.52,0-0.973,0-1.504C40.764,19.984,41.112,21.018,41.817,21.623z"/>
	<path style="fill-rule:evenodd;clip-rule:evenodd;fill:none;" d="M31.996,29.744c-0.511-0.75-0.404-0.978,0.449-1.083
		c0.179,0.136,0.068,0.331,0.101,0.496c-0.018,0.031-0.029,0.065-0.052,0.088C32.342,29.399,32.188,29.551,31.996,29.744z"/>
	<path style="fill-rule:evenodd;clip-rule:evenodd;fill:none;" d="M38.292,40.511c0.057,0.158,0.113,0.317,0.16,0.449
		C38.252,41.041,38.147,40.927,38.292,40.511z"/>
</g>
</svg>
