<?xml version="1.0" encoding="iso-8859-1"?>
<!-- Generator: Adobe Illustrator 16.0.0, SVG Export Plug-In . SVG Version: 6.00 Build 0)  -->
<!DOCTYPE svg PUBLIC "-//W3C//DTD SVG 1.1//EN" "http://www.w3.org/Graphics/SVG/1.1/DTD/svg11.dtd">
<svg version="1.1" id="Layer_1" xmlns="http://www.w3.org/2000/svg" xmlns:xlink="http://www.w3.org/1999/xlink" x="0px" y="0px"
	 width="72.36px" height="72.18px" viewBox="0 0 72.36 72.18" style="enable-background:new 0 0 72.36 72.18;" xml:space="preserve"
	>
<g>
	
	<path fill="currentColor" d="M11.819,52.951c0.003-0.313-0.209-0.561-0.261-0.875
		c-0.102-0.618-0.265-1.282-0.825-1.695c-0.221-0.163-0.273-0.414-0.356-0.613c-0.217-0.525-0.515-0.969-0.936-1.34
		c-0.47-0.415-0.698-0.916-0.665-1.564c0.047-0.902-0.231-1.741-0.632-2.541c-0.329-0.656-0.528-1.337-0.444-2.086
		c0.032-0.284,0.005-0.575,0.005-0.888c-0.27-0.418-0.493-0.865-0.441-1.417c0.024-0.264,0.029-0.519-0.159-0.8
		c-0.167-0.249-0.044-0.648-0.247-0.974c-0.18-0.288,0.227-0.532,0.214-0.872c-0.039-1.042-0.014-2.085-0.014-3.046
		c0.219-0.425,0.404-0.783,0.644-1.246c-0.163-1.333,0.446-2.602,0.961-3.896c0.185-0.463,0.33-0.942,0.506-1.451
		c-0.387-0.67-0.387-0.67-0.375-1.916c0.28-0.28,0.56-0.56,0.848-0.848c0-0.422,0-0.851,0-1.311
		c0.678-0.498,0.896-1.372,1.527-1.944c-0.087-0.513,0.088-0.958,0.453-1.31c0.628-0.605,1.234-1.216,1.484-2.087
		c0.091-0.316,0.555-0.283,0.605-0.481c0.081-0.321,0.32-0.453,0.489-0.665c0.236-0.296,0.578-0.489,0.707-0.897
		c0.063-0.201,0.327-0.376,0.541-0.477c0.129-0.061,0.281-0.106,0.334-0.22c0.563-1.217,1.96-1.515,2.735-2.498
		c0.072-0.091,0.25-0.091,0.36-0.161c0.396-0.253,0.921-0.221,1.265-0.604c0.335-0.375,0.708-0.716,1.063-1.072
		c0.218,0,0.434,0,0.619,0c0.562-0.374,1.136-0.68,1.619-1.133c0.259-0.242,0.607-0.435,1.025-0.384
		c0.282,0.034,0.571,0.006,0.817,0.006c0.799-0.413,1.279-1.213,2.232-1.434c0.686,0.44,1.563,0.425,2.404,0.323
		c0.43-0.052,0.912-0.288,1.228-0.646c0.242-0.274,0.573-0.383,0.85-0.584c0.185-0.134,0.483-0.077,0.63,0.149
		c0.781-0.331,1.597-0.555,2.411-0.344c0.323,0.083,0.497,0.128,0.835,0.011c0.432-0.15,0.966-0.187,1.436,0.057
		C38.165,7.621,39.089,7.451,40,7.496c0.457,0.463,1.05,0.453,1.639,0.418c1.035,0.589,2.084,1.092,3.283,0.823
		c0.261,0.321,0.736,0.252,0.834,0.732c0.642-0.218,1.163,0.237,1.82,0.192c0.684,0.884,1.767,1.299,2.696,1.933
		c0.895,0.61,1.764,1.252,2.711,1.789c0.375,0.213,0.742,0.565,0.939,0.997c0.201,0.44,0.567,0.738,0.915,1.017
		c1.391,1.113,1.637,1.283,2.98,3.181c0.08,0.114,0.166,0.262,0.283,0.308c1.162,0.457,1.044,1.636,1.662,2.7
		c0.394,0.264,0.678,0.987,1.213,1.501c0.156,0.149,0.283,0.417,0.278,0.627c-0.01,0.449,0.208,0.772,0.41,1.135
		c0.541,0.968,0.867,2.044,1.075,3.106c0.171,0.871,0.654,1.638,0.692,2.53c0.335,0.229,0.211,0.578,0.211,0.882
		c0,0.798-0.01,1.576,0.37,2.334c0.173,0.343,0.155,0.816-0.041,1.221c-0.177,0.363-0.189,0.728,0.013,1.092
		c0.183,0.329,0.173,0.717,0.273,1.069c0.169,0.591-0.035,1.206-0.328,1.782c-0.342,0.671-0.533,1.383-0.512,2.169
		c0.044,1.699,0.012,1.698-1.023,3.241c-0.092,0.137-0.014,0.368-0.293,0.43c0.214,0.591-0.237,1.078-0.181,1.64
		c0.019,0.179-0.121,0.249-0.218,0.342c-0.354,0.337-0.501,0.76-0.42,1.224c0.052,0.294-0.247,0.413-0.23,0.668
		c0.014,0.216,0.003,0.433,0.003,0.715c-0.566,0.409-0.959,1.021-1.241,1.687c-0.116,0.275-0.31,0.45-0.469,0.671
		c-0.175,0.243-0.347,0.506-0.442,0.786c-0.406,1.184-1.145,2.199-2.074,2.786c-0.641-0.24-0.641-0.24-1.419,0.123
		c-0.307,0.334-0.31,0.893-0.793,1.205c-0.354-0.302-0.801-0.286-1.33-0.214c-0.001,0.444,0.016,0.935-0.461,1.307
		c-0.639-0.569-1.189-1.201-1.258-2.108c-0.019-0.24-0.233-0.33-0.246-0.556c-0.009-0.143-1.435-1.584-1.592-1.701
		c-0.371-0.277-0.502-0.726-0.765-1.08c-0.384-0.518-0.686-1.101-1.106-1.582c-0.164-0.187-0.462-0.397-0.792-0.362
		c-0.27-0.02-0.344,0.214-0.483,0.357c-0.063,0.377,0.13,0.726,0.348,0.926c0.448,0.412,0.705,0.958,1.124,1.383
		c0.657,0.668,0.683,0.762,0.686,1.734c-0.263,0.274-0.51,0.534-0.745,0.779c-0.381,0-0.739,0-1.093,0
		c-0.361-0.36-0.684-0.762-1.081-1.063c-0.81-0.614-1.18-1.631-2.1-2.164c-0.343-0.197-0.476-0.737-0.359-1.215
		c0.494-0.531,1.064-0.978,1.326-1.72c0.13-0.366,0.607-0.562,1.052-0.521c0.305,0.028,0.451-0.154,0.623-0.33
		c-0.826-1.172-0.558-1.058-2.711-2.275c-0.207-0.22,0.027-0.634-0.386-0.844c0.536-0.505,0.351-1.422,1.134-1.75
		c0.147,0.037,0.276-0.015,0.422,0.069c0.615,0.355,1.12,0.869,1.78,1.17c0.383,0.174,0.488,0.636,0.695,1.052
		c0.402,0.222,0.841,0.585,1.34,0.715c0.975,0.253,1.37,0.988,1.594,1.803c0.229,0.837,0.685,1.52,1.109,2.245
		c0.589,1.006,1.087,2.064,1.644,3.136c0.49-0.164,0.717-0.655,1.103-0.931c0.187-1.038-0.032-2.035-0.232-3.255
		c0.062,0.033-0.065-0.037-0.192-0.105c-0.728-0.389-1.156-0.979-1.381-1.787c-0.138-0.494-0.439-0.899-0.933-1.239
		c-0.521-0.358-1.015-0.836-1.357-1.457c-0.231-0.417-0.757-0.698-1.196-0.964c-0.428-0.259-0.803-0.538-1.107-0.942
		c-0.227-0.299-0.502-0.572-0.892-0.699c-0.619-0.202-0.947-0.901-1.642-0.987c-0.163-0.358-0.558-0.198-0.833-0.346
		c-0.583-0.31-0.899-0.727-0.964-1.333c-0.03-0.271-0.098-0.473-0.355-0.678c-0.778,0.133-1.493-0.155-2.166-0.643
		c-0.339,0-0.699,0-0.973,0c-0.692,0.333-1.228,0.751-1.765,1.191c-0.441,0.363-1.069,0.576-1.708,0.536
		c-0.75-0.046-1.386,0.265-2.079,0.646c-0.607,0.054-1.333-0.166-1.97,0.308c0,0.273,0,0.558,0,0.88
		c0.345,0.426,0.891,0.743,1.038,1.429c-0.139,0.212-0.151,0.59-0.54,0.818c-0.281,0-0.635,0-0.95,0
		c-0.395,0.23-0.783,0.392-1.037,0.741c-0.457,0.627-1.172,0.785-1.851,1.004c-0.087,0.027-0.215,0.053-0.336-0.12
		c0-0.316,0-0.703,0-1.038c-0.388-0.5-0.839-0.406-1.282-0.26c-0.382,0.127-0.803,0.195-1.008,0.594
		c-0.487-0.233-0.952-0.389-1.22-0.947c0.603-0.378,1.116-0.885,1.624-1.437c0.268,0,0.548,0,0.903,0
		c0.207-0.563,1-0.531,1.222-1.14c-0.542-0.534-1.188-0.373-1.871-0.405c-0.22,0.416-0.802,0.44-1.056,0.871
		c-0.599,0-1.175,0-1.75,0c-0.305,0.306-0.572,0.672-0.928,0.898c-0.324,0.206-0.463,0.547-0.741,0.765
		c-0.427,0.335-0.681,0.853-0.771,1.293c-0.161,0.775-0.659,1.324-1.006,1.965c-0.19,0.35-0.471,0.668-0.576,1.059
		c-0.112,0.415-0.575,0.594-0.631,1.038c-0.015,0.117-0.217,0.166-0.209,0.344c0.036,0.85-0.393,1.332-1.203,1.521
		c-0.089,0.021-0.155,0.146-0.231,0.222c-0.104,0.533-0.419,1.026-0.301,1.479c-0.223,0.571-0.56,0.965-0.663,1.482
		c0.546,0.802,1.005,1.668,2.056,1.985c0.553-0.417,0.289-1.146,0.671-1.689c0.269-0.095,0.573-0.377,1.094-0.216
		c0.705,0.426,0.828,1.177,0.718,2.024c-0.098,0.098-0.187,0.268-0.304,0.29c-0.889,0.173-1.234,0.888-1.619,1.569
		c-0.217,0.386-0.388,0.811-0.814,1.035c-0.167-0.021-0.356,0.061-0.49-0.117c-0.134-0.177-0.331-0.069-0.552-0.114
		c-0.383-0.481-0.979-0.824-1.268-1.47c-0.125-0.279-0.504-0.318-0.772-0.456c-0.722-0.369-0.771-0.342-1.048-1.002
		c-0.104-0.25-0.274-0.394-0.417-0.583c-0.147-0.194-0.391-0.306-0.47-0.561C13.459,53.87,12.658,53.463,11.819,52.951z
		 M45.624,31.68c-0.521,0.026-0.935-0.327-1.458-0.251c-0.152,0.022-0.534-0.1-0.645-0.503c-0.083-0.304-0.459-0.528-0.721-0.804
		c-0.319,0.143-0.653-0.073-1.009,0.16c0.264,0.459,0.35,1.018,0.987,1.197c0.169,0.047,0.374,0.215,0.362,0.348
		c-0.226,0.31-0.391,0.538-0.509,0.7c-0.307,0-0.517,0-0.797,0c0.092-0.459-0.348-0.56-0.567-0.888
		c-0.427,0.192-0.783-0.071-1.135-0.268c-0.31-0.173-0.601-0.188-0.877-0.02c-0.374,0.227-0.819,0.313-1.129,0.673
		c-0.508,0.591-1.281,0.55-1.957,0.728c-0.324,0.085-0.541-0.241-0.826-0.337c-0.094-0.032-0.181-0.089-0.294-0.085
		c-0.146,0.343-0.511,0.131-0.757,0.287c-0.25,0.313-0.5,0.639-0.445,1.171c0.386,0.383,1.065,0.296,1.537,0.797
		c0.249-0.514,0.756-0.411,1.032-0.279c0.625,0.297,1.25,0.098,1.65,0.163c0.557,0.203,0.824,0.475,1.126,0.702
		c0.351,0.263,0.753,0.696,1.249,0.183c0.625,0.097,0.872-0.653,1.456-0.648c0.487,0.296,0.16,1.1,0.801,1.314
		c0.724-0.101,1.146-0.579,1.572-1.105c-0.3-0.338-0.592-0.615-0.656-1.028c0.143-0.089,0.193-0.211,0.159-0.36
		c0.708-0.554,1.555-0.232,2.352-0.369c0-0.331,0-0.645,0-0.915C45.941,32.035,45.775,31.849,45.624,31.68z M53.246,42.439
		c-0.357-0.415-0.754-0.425-1.097-0.52c-0.488-0.134-0.545-0.575-0.823-0.848c-0.121-0.119-0.224-0.25-0.399-0.331
		c-0.579-0.265-1.159-0.513-1.829-0.675c-0.188,0.2-0.381,0.401-0.566,0.606c-0.019,0.021-0.003,0.07-0.003,0.106
		c0.15,0.594,0.947,0.24,1.141,0.785c0.171,0.479,0.529,0.85,0.925,1.113c0.415,0.276,0.655,0.621,0.766,0.927
		c0.42,0.558,1.1,0.177,1.483,0.722c0,0.331,0,0.716,0,1.022c0.389,0.504,0.439,1.139,1.084,1.374
		c0.303,0.11,0.465,0.515,0.425,0.878c-0.049,0.444,0.143,0.791,0.318,1.09c0.439,0.177,0.872,0.566,1.219-0.146
		c-0.119-0.597,0.049-1.221,0.373-1.808c0.301-0.545,0.393-1.08-0.02-1.616c-0.396-0.093-0.649-0.346-0.806-0.723
		c-0.127-0.308-0.258-0.618-0.437-0.896c-0.147-0.23-0.366-0.415-0.544-0.609c-0.325,0-0.607,0-0.873,0
		C53.429,42.721,53.214,42.613,53.246,42.439z M50.148,34.919c-0.443,0-0.913-0.109-1.296,0.028
		c-0.467,0.167-1.287,0.002-1.212,0.945c0.009,0.105-0.217,0.374-0.498,0.321c-0.131-0.225-0.204-0.5-0.391-0.605
		c-0.454,0-0.84,0-1.224,0c0.051,0.662,0.058,0.644,0.556,0.829c0.529,0.195,1.096,0.305,1.543,0.654
		c0.543-0.246,0.543-0.246,1.573-0.144c0.156,0.299,0.327,0.625,0.485,0.929c1.119,0.531,2.051,1.329,3.09,2.033
		c0.732-0.271,1.443,0.434,2.205,0.131c0-0.411,0-0.797,0-1.152c-0.435-0.435-0.841-0.842-1.239-1.239
		c-0.177-0.529,0.253-1.164-0.366-1.651c-0.945,0.031-1.956,0.08-2.874-0.569c-0.005-0.017-0.012-0.126-0.061-0.208
		C50.386,35.129,50.292,35.064,50.148,34.919z M19.92,40.125c-1.27-0.261-1.783,0.762-2.555,1.431c0.33,1.21-0.26,2.315-0.389,3.387
		c0.474,0.491,0.923,0.842,1.107,1.372c0.678,0.028,0.678,0.028,1.072-0.281c0-0.501,0-1.004,0-1.452
		c0.22-0.395,0.501-0.726,0.59-1.103c0.102-0.429,0.119-0.871,0.403-1.239c0.252-0.328,0.695-0.505,0.77-0.978
		c0.009-0.058,0.128-0.096,0.142-0.155c0.109-0.492,0.492-0.767,0.876-0.983c0.193-0.108,0.327-0.232,0.45-0.377
		c0.082-0.34-0.093-0.547-0.328-0.717c-0.293,0-0.579,0-0.86,0C20.825,39.465,20.226,39.615,19.92,40.125z M51.997,30.385
		c0.386,0.196,0.794,0.405,1.207,0.615c0.26-0.167,0.351-0.415,0.289-0.727c-0.293-0.15-0.62-0.262-0.875-0.464
		c-0.274-0.217-0.481-0.519-0.726-0.793c-0.437,0.246-0.709-0.103-1.03-0.182c-0.738-0.181-1.43-0.581-2.014-1.075
		c-0.477-0.403-0.991-0.592-1.578-0.604c-0.241-0.005-0.419-0.14-0.414-0.138c-0.265,0.105-0.392,0.155-0.475,0.188
		c0.496,0.768,1.305,1.065,1.839,1.678c0.532,0.61,1.259,0.996,1.828,1.577c0.373,0.381,0.92,0.551,1.485,0.158
		C51.65,30.539,51.775,30.366,51.997,30.385z M31.117,29.282c0.415,0.045,0.801,0.028,1.202-0.179
		c0.462-0.239,0.999-0.218,1.521-0.249c0.609-0.036,1.142,0.349,1.746,0.232c0.063-0.012,0.12-0.057,0.17-0.082
		c0-0.248,0-0.488,0-0.661c-0.513-0.578-1.266-0.118-1.771-0.551c-0.491,0.203-1.004,0.268-1.529,0.214
		c-0.739-0.075-1.249,0.273-1.637,0.786C30.808,29.08,31.024,29.134,31.117,29.282z M18.142,33.494
		c-0.822-0.307-1.388,0.156-1.985,0.432c-0.7,0.324-1.194,0.865-1.501,1.577c0.208,0.083,0.145,0.303,0.247,0.471
		c0.225,0,0.466,0,0.739,0c0.446-0.613,1.088-1.046,1.721-1.475C17.742,34.241,17.882,33.87,18.142,33.494z M32.656,35.567
		c-0.354,0-0.814,0.142-1.049-0.028c-0.561-0.406-0.962-0.084-1.417,0.115c-0.085,0.305,0.006,0.548,0.364,0.811
		c0.733-0.215,1.528,0.112,2.256,0.199c0.383-0.223,0.424-0.487,0.367-0.786C33.033,35.726,32.754,35.807,32.656,35.567z
		 M22.363,25.632c-0.452,0.231-0.87,0.413-1.103,0.93c0.147,0.07,0.308,0.147,0.469,0.225c-0.039,0.04-0.077,0.08-0.116,0.12
		c0.526,0,1.052,0,1.44,0c0.283-0.222,0.477-0.375,0.607-0.477c0.126-0.422-0.084-0.613-0.306-0.798
		C23.033,25.632,22.712,25.632,22.363,25.632z M45.048,38.491c0.099,0.307,0.171,0.656,0.461,0.849
		c0.497,0.329,1.022,0.618,1.546,0.906c0.361,0.198,0.63,0.089,0.778-0.328c-0.717-0.457-1.465-0.884-2.003-1.55
		C45.566,38.418,45.307,38.282,45.048,38.491z M36.601,28.387c0.533,0.935,1.395,0.648,2.213,0.709
		C38.37,27.962,37.767,27.779,36.601,28.387z M55.211,31.48c0.103,0.747,0.103,0.747,0.862,0.902c0.237,0.25,0.503,0.53,0.829,0.875
		c0-0.408,0-0.744,0-0.952c-0.287-0.331-0.517-0.596-0.715-0.825C55.858,31.48,55.579,31.48,55.211,31.48z M16.596,37.901
		c-0.468,0.243-0.745,0.703-1.126,1.017c0.012,0.247,0.019,0.457,0.035,0.666c0.002,0.027,0.047,0.051,0.072,0.076
		c0.631-0.305,0.849-0.531,1.118-1.088C16.808,38.336,16.863,38.133,16.596,37.901z M26.161,30.824
		c0.671-0.163,1.108-0.512,1.196-1.215c-0.255-0.157-0.526-0.087-0.584-0.081c-0.593,0.248-0.704,0.65-0.868,0.97
		C25.998,30.617,26.085,30.728,26.161,30.824z M17.874,37.093c0.595-0.086,0.596-0.085,1.201-0.696
		c0.042-0.043,0.053-0.119,0.078-0.181c-0.045-0.225-0.208-0.342-0.409-0.437c-0.274,0.179-0.635,0.22-0.87,0.533
		C17.874,36.527,17.874,36.767,17.874,37.093z M41.305,30.167c0.244-0.379,0.06-0.638-0.196-0.826c-0.432,0-0.813,0-1.186,0
		c-0.136,0.393,0.287,0.531,0.285,0.826C40.584,30.167,40.938,30.167,41.305,30.167z M12.418,46.514c0-0.301,0-0.64,0-0.988
		c-0.207,0-0.376,0-0.671,0c0.333,0.367-0.237,0.371-0.122,0.777c0.127,0.107,0.336,0.283,0.545,0.459
		C12.227,46.704,12.304,46.628,12.418,46.514z M23.809,32.185c0.588,0.324,0.84-0.097,1.189-0.162
		c-0.041-0.239,0.06-0.429-0.12-0.558C24.31,31.364,24.126,31.793,23.809,32.185z M58.385,39.063
		c0.061-0.71,0.063-0.713-0.525-0.875C57.731,38.619,57.852,38.903,58.385,39.063z M44.625,26.683
		c0.399,0.019,0.74,0.104,1.087-0.073c-0.307-0.437-0.673-0.36-1.042-0.275C44.657,26.429,44.649,26.496,44.625,26.683z
		 M26.299,36.394c0.205,0,0.397,0,0.609,0c0-0.127,0-0.224,0-0.357c-0.205,0-0.397,0-0.609,0
		C26.299,36.165,26.299,36.261,26.299,36.394z M28.305,28.957c0.086-0.361,0.803-0.178,0.473-0.758
		C28.691,28.502,28.083,28.291,28.305,28.957z M33.415,34.162c-0.221-0.168-0.436-0.167-0.649-0.011
		c-0.013,0.147-0.035,0.289,0.176,0.341C33.175,34.527,33.246,34.275,33.415,34.162z M46.859,34.28
		c0.146-0.023,0.263,0.036,0.342-0.091c0.063-0.127,0.047-0.249-0.059-0.335C46.819,33.79,46.748,33.929,46.859,34.28z"/>
	<path fill="currentColor" d="M35.212,47.231c0.217,0.202,0.4,0.372,0.579,0.539
		c-0.069,0.38,0.169,0.81-0.304,1.143c-0.201,0.064-0.512,0.156-0.727-0.025c-0.511-0.431-1.095-0.361-1.667-0.356
		c-0.544,0.543-1.271,0.783-1.884,1.201c-0.248,0.169-0.565,0.158-0.872-0.047c-0.469-0.314-0.984-0.561-1.474-0.846
		c-0.21-0.123-0.253-0.329-0.152-0.694c0.492-0.517,1.15-0.97,2.042-0.906c0.4,0.028,0.778-0.146,1.055-0.302
		c0.467-0.262,0.769-0.094,1.155,0.064c0.141,0.058,0.216,0.186,0.337,0.221c0.437,0.128,0.867,0.461,1.335,0.021
		C34.731,47.155,34.982,47.231,35.212,47.231z"/>
	<path fill="currentColor" d="M26.573,45.296c0.406,0.254,0.8,0.499,1.211,0.756
		c0.14,0.885-1.012,1.278-0.859,2.162c-0.54,0.489-0.952,1.08-1.624,1.374c-0.526-0.454-1.284-0.283-1.861-0.631
		c-0.443,0.251-0.862,0.571-1.417,0.399c-0.12-0.245-0.052-0.492-0.051-0.733c0.416-0.422,0.879-0.804,1.097-1.354
		C24.598,47.194,25.78,46.585,26.573,45.296z"/>
	<path fill="currentColor" d="M23.892,50.476c0.071,0.879-0.388,1.564-0.441,2.33
		c-0.711,0.443-1.41,0.817-2.232,0.911c-0.268,0.03-0.369-0.162-0.525-0.3c-0.186-0.991,0.246-1.692,1.138-2.03
		c0.517-0.195,0.898-0.569,1.383-0.795C23.424,50.495,23.603,50.487,23.892,50.476z"/>
	<path fill="currentColor" d="M39.024,47.34c0.178-0.178,0.355-0.355,0.538-0.537c0.281,0,0.567,0,0.877,0
		c0.158,0.17,0.33,0.352,0.521,0.557c0,0.322,0,0.679,0,1.035c0.408,0.604,1.316,0.192,1.717,0.939
		c0.039,0.254,0.102,0.601-0.284,0.89c-0.268,0-0.581,0-0.906,0c-0.163-0.159-0.344-0.334-0.521-0.506c0-0.223,0-0.438,0-0.655
		c-0.146-0.093-0.203-0.298-0.469-0.329c-0.115-0.021-0.174,0.14-0.313,0.243c-0.462-0.12-0.841-0.401-1.161-0.784
		C39.024,47.915,39.024,47.627,39.024,47.34z"/>
	<path fill="currentColor" d="M43.609,43.01c-0.144,0.11-0.281,0.216-0.433,0.331
		c-0.322-0.122-0.683-0.229-0.912-0.556c-0.045-0.263,0.191-0.354,0.318-0.518c0.211,0,0.424,0,0.656,0
		C43.35,42.492,43.468,42.728,43.609,43.01z"/>
	<path fill="currentColor" d="M37.951,45.828c-0.195,0.166-0.293,0.388-0.556,0.317
		c-0.214-0.216-0.051-0.429-0.063-0.626C37.66,45.447,37.759,45.665,37.951,45.828z"/>
	
	
	
	
	
	
	
	
	
	
	
	
	
	
	
	
	
	
	
	
	
	
	
	
	<path fill="currentColor" d="M40.157,33.478c-0.252,0.187-0.479,0.354-0.814,0.603
		c0.052-0.008-0.022-0.072-0.111-0.137c-0.334-0.241-0.177-0.577-0.197-0.925C39.455,32.958,39.868,32.845,40.157,33.478z"/>
</g>
</svg>
