<?xml version="1.0" encoding="iso-8859-1"?>
<!-- Generator: Adobe Illustrator 16.0.0, SVG Export Plug-In . SVG Version: 6.00 Build 0)  -->
<!DOCTYPE svg PUBLIC "-//W3C//DTD SVG 1.1//EN" "http://www.w3.org/Graphics/SVG/1.1/DTD/svg11.dtd">
<svg version="1.1" id="Layer_1" xmlns="http://www.w3.org/2000/svg" xmlns:xlink="http://www.w3.org/1999/xlink" x="0px" y="0px"
	 width="72.36px" height="72.18px" viewBox="0 0 72.36 72.18" style="enable-background:new 0 0 72.36 72.18;" xml:space="preserve"
	>
<g>
	<path style="fill-rule:evenodd;clip-rule:evenodd;fill:none;" d="M79.416,79.631c-28.8,0-57.6,0-86.399,0
		c0-28.871,0-57.743,0-86.615c28.8,0,57.6,0,86.399,0C79.416,21.888,79.416,50.76,79.416,79.631z M56.664,38.124
		c1.07,0.238,1.578-0.531,2.039-0.965c0.829-0.261,0.842,0.37,1.015,0.673c0.251,0.442,0.519,0.776,0.995,0.986
		c0.525,0.231,1.018,0.53,1.736,0.348c0.121-0.86,0.96-1.334,1.199-2.077c0-0.168,0.024-0.253-0.006-0.309
		c-0.049-0.091-0.135-0.162-0.209-0.247c0-0.711,0-1.431,0-2.15c-0.271-0.886-1.303-1.173-1.598-2.021
		c-0.332-0.093-0.616-0.316-0.987-0.256c-0.368,0.061-0.663-0.167-0.916-0.378c-0.385-0.322-0.839-0.646-1.047-1.074
		c-0.267-0.551-0.765-0.78-1.185-1.086c-0.214-0.156-0.451-0.307-0.648-0.493c-0.784-0.737-1.259-1.696-1.828-2.588
		c-0.163-0.255-0.266-0.537-0.453-0.787c-0.521-0.694-0.99-1.426-1.457-2.111c0.262-0.339,0.208-0.749,0.522-1.048
		c0.263-0.25,0.42-0.704,0.331-0.989c-0.327-0.376-0.561-0.646-0.793-0.914c-0.64,0.186-1.036-0.33-1.478-0.442
		c-0.642-1.125-1.927-1.511-2.546-2.552c-0.405,0.113-0.657-0.245-1.015-0.225c-0.352,0.02-0.705,0.004-1.058,0.004
		c-0.67-0.463-1.201-1.029-1.777-1.631c0.054-0.597-0.051-1.185-0.563-1.655c-0.158-0.145-0.296-0.42-0.281-0.625
		c0.055-0.78-0.124-1.523-0.246-2.133c-0.309-0.352-0.543-0.619-0.774-0.883c-0.418,0.07-0.905-0.165-1.165,0.412
		c0,0.598,0,1.244,0,1.698c-0.166,0.547-0.396,0.851-0.697,1.092c-0.446,0.357-0.7,0.838-0.893,1.349c-0.167,0-0.311,0-0.452,0
		c-1.289-1.198-2.097-2.831-3.513-3.882c-0.366-0.08-0.582,0.219-0.855,0.275c-0.366,0.549-0.303,1.05-0.015,1.628
		c0.426,0.855,0.672,1.782,0.602,2.663c-0.22,0.257-0.383,0.447-0.517,0.603c-0.482,0-0.911,0-1.34,0
		c-0.706-0.144-1.128-0.678-1.568-1.163c-0.27-0.297-0.457-0.67-0.68-1.01c-0.296-0.452-1.013-0.84-1.396-0.588
		c-0.462,0.305-0.894,0.074-1.291,0.191c-0.24-0.24-0.443-0.443-0.647-0.647c-1.318-0.022-1.318-0.022-2.388-1.092
		c-0.417-0.019-0.904,0.093-1.275-0.223c-0.651-0.557-1.358-1.005-2.205-1.234c-0.164,0.246-0.467,0.13-0.736,0.163
		c-0.956,0.116-1.663,1.04-1.739,1.773c-0.086,0.827,0.156,1.589,0.471,2.293c0.329,0.734,0.126,1.239-0.366,1.792
		c-0.217,0-0.459,0-0.657,0c0.211,0.211,0.428,0.428,0.564,0.564c0,0.449,0,0.736,0,1.077c-0.797,0.598-1.606,1.225-2.77,1.132
		c-0.337-0.358-0.681-0.724-1.011-1.075c-1.648,0-1.943-0.073-2.559-0.619c-0.328,0-0.642,0-0.935,0
		c-0.604,0.577-1.01,1.296-1.265,1.994c-0.241,0.657-0.052,1.472-0.052,2.18c0.321,0.627,0.567,1.29,1.228,1.63
		c0.234-0.041,0.485,0.088,0.705-0.132c0.16-0.161,0.386-0.135,0.577-0.009c0.478,0.313,1.055,0.449,1.571,0.896
		c-0.28,0.518,0.394,0.962,0.16,1.543c-0.312,0.482-0.894,0.231-1.313,0.489c-0.452,0.278-0.411,0.915-1.103,1.105
		c-0.804-0.236-1.905-0.149-2.602-1.053c-0.404,0-0.79,0-1.179,0c-0.148,0.637,0.236,1,0.608,1.368
		c-0.023,0.242,0.072,0.494,0.007,0.603c-0.438,0.334-0.83,0.429-1.19,0.37c-0.209,0.209-0.362,0.362-0.537,0.537
		c-0.082,0.723,0.315,1.275,0.729,1.821c1.096,0.375,1.855,1.345,2.975,1.681c0.126,0.038,0.282,0.067,0.363,0.156
		c0.401,0.442,0.975,0.437,1.523,0.633c0.494,0.609,1.276,1.046,1.534,1.908c-0.208,0.36-0.335,0.845-0.726,0.981
		c-0.683,0.238-1.147,0.837-1.84,0.99c0,0.409,0,0.795,0,1.049c0.384,0.748,1.22,0.693,1.603,1.269c0.582,0,1.156,0,1.739,0
		c0.215,0.34,0.589,0.461,0.918,0.638c0.675,0.362,1.405,0.641,2.036,1.067c0.514,0.347,0.869,0.915,1.451,1.162
		c0,0.256,0,0.472,0,0.707c-0.783,0.679-1.428,1.479-1.799,2.456c-1.351,0.21-2.183,0.782-3.845,0.107
		c-0.406-0.609-1.178-0.824-1.597-1.41c-0.94,0.113-1.913-0.269-2.67,0.535c-0.021,0.372,0.059,0.802-0.085,1.135
		c-0.307,0.708-0.158,1.333,0.125,1.979c0.189,0.433,0.415,0.862,0.368,1.358c-0.125,1.312,0.602,2.354,1.197,3.386
		c0.402,0.697,0.922,1.412,1.521,1.945c0.65,0.579,1.092,1.338,1.789,1.853c0.164,0.122,0.299,0.267,0.489,0.374
		c0.445,0.253,0.981,0.529,1.203,0.944c0.294,0.552,0.702,0.793,1.223,0.981c0.513,0.186,0.954,0.55,1.18,0.99
		c0.157,0.304,0.414,0.467,0.566,0.73c0.893,0.012,0.9,0.003,1.539,0.465c0.148,0.107,0.269,0.23,0.463,0.188
		c0.268-0.059,0.472,0.075,0.666,0.219c0.733,0.543,1.651,0.744,2.353,1.294c0.207,0,0.389,0.018,0.566-0.003
		c0.754-0.089,1.386,0.134,1.851,0.74c0.225,0.294,0.577,0.359,0.8,0.521c1.036,0.181,2.109-0.29,3.026,0.468
		c0.338,0,0.698,0,1.058,0c0.429,0.452,1.009,0.59,1.523,0.374c0.322-0.135,0.606-0.144,0.907-0.149
		c0.935-0.02,1.873-0.033,2.806,0.001c0.791,0.029,1.461-0.259,2.178-0.659c0.363,0.107,0.849-0.199,1.257,0.206
		c0.091,0.09,0.376,0.073,0.521,0.003c0.661-0.319,1.432-0.373,2.075-0.852c1.473,0.101,2.644-0.64,3.712-1.596
		c0.417-0.372,0.774-0.812,1.324-1.037c-0.104-0.592,0.354-1.075,0.221-1.647c-0.096-0.411,0.093-0.775,0.296-1.061
		c0.332-0.466,0.385-0.947,0.348-1.474c-0.764-0.659-0.821-1.68-1.273-2.5c-0.076-0.139-0.094-0.411,0.068-0.604
		c0.232-0.277,0.145-0.578,0.078-0.83c-0.31-0.329-0.698-0.386-0.887-0.502c-0.606-0.772-0.934-1.535-1.056-2.382
		c-0.348,0.121-0.447-0.221-0.721-0.242c-0.197-0.016-0.373-0.308-0.528-0.449c0.042-0.511-0.174-0.86-0.47-1.158
		c-0.393-0.396-0.878-0.716-1.255-1.098c-1.125-1.145-2.441-2.074-3.534-3.249c-0.135-0.145-0.079-0.338-0.223-0.438
		c-0.522-0.324-1.119-0.439-1.689-0.618c-0.511-0.16-0.714-0.718-1.143-0.894c-0.425-0.174-0.887-0.248-1.318-0.471
		c-0.689-0.355-1.07-0.92-1.333-1.675c-0.31,0.067-0.45-0.28-0.738-0.265c-0.671,0.038-1.107-0.352-1.504-0.801
		c-1.016-1.15-2.244-2.073-3.366-3.109c-0.396-0.367-0.917-0.593-1.087-1.169c-0.196-0.894,0.125-1.621,0.796-2.137
		c0.064-0.632,0.285-1.214,0.686-1.5c0.75-0.534,1.349-1.282,2.242-1.61c0.612-0.257,1.178,0.353,1.79,0.129
		c0.32-0.593,0.32-0.593,1.085-1.038c0.592-0.003,1.201-0.081,1.672,0.418c0.218,0.197,0.096,0.507,0.26,0.764
		c0.17,0.268,0.413,0.468,0.56,0.733c0.159,0.288,0.413,0.542,0.373,0.927c-0.033,0.317-0.007,0.64-0.007,0.936
		c0.076,0.076,0.123,0.131,0.179,0.177c0.74,0.609,1.199,1.6,2.325,1.692c0.109,0.009,0.215,0.183,0.305,0.294
		c0.425,0.522,0.969,0.919,1.585,1.127c1.073,0.363,1.872,1.182,2.889,1.63c0.184,0.081,0.376,0.268,0.45,0.452
		c0.27,0.667,0.807,0.962,1.421,1.239c0.257,0.116,0.656,0.16,0.759,0.501c0.203,0.68,0.774,0.923,1.312,1.225
		c0.733-0.404,1.497-0.545,2.306-0.425c0.076,0.076,0.141,0.174,0.23,0.226c0.464,0.268,1.011,0.338,1.407,0.637
		c0.517-0.119,0.872-0.375,1.085-0.598c0.592-0.225,0.994,0.063,1.393,0.158C56.987,39.517,57.173,39.133,56.664,38.124z
		 M31.238,68.672c0.094,0.6,0.173,0.801,0.428,0.795c0.563-0.015,1.059,0.264,1.636,0.249c1.975-0.053,3.951-0.021,5.928-0.021
		c0.395,0,0.79-0.004,1.186,0.001c0.352,0.005,0.593-0.341,0.962-0.209c0-0.256,0-0.425,0-0.374
		c-0.386-0.616-0.903-0.597-1.296-0.461c-0.304,0.105-0.642,0.063-0.883,0.197c-0.898,0.498-1.506,0.063-2.097-0.535
		c-0.048-0.049-0.107-0.088-0.147-0.121c-0.298,0-0.583,0-0.78,0c-0.458,0.238-0.843,0.438-1.229,0.638
		c-0.954-0.36-1.888-0.815-2.936-0.621C31.765,68.355,31.533,68.495,31.238,68.672z M48.531,67.615c0.059-0.284-0.04-0.531-0.3-0.7
		c-0.321,0-0.634,0-0.905,0c-0.286,0.221-0.436,0.524-0.764,0.626c-0.125,0.038-0.242,0.213-0.342,0.197
		c-0.471-0.074-0.877,0.158-1.315,0.222c-0.771,0.113-1.746,0.464-2.45,0.859c-0.223,0.125-0.214,0.22-0.121,0.444
		c0.229,0,0.49,0.053,0.719-0.01c0.862-0.235,1.72-0.465,2.626-0.429c0.09,0.004,0.181-0.077,0.272-0.116
		c0.556-0.238,1.049-0.61,1.726-0.556C47.913,68.173,48.254,67.979,48.531,67.615z M36.208,30.294
		c-0.589-0.998-0.8-1.088-1.988-0.866c0.298,0.459,0.236,1.095,0.804,1.353c0.316,0,0.627,0,0.93,0
		C35.999,30.58,36.01,30.4,36.208,30.294z M62.57,31.14c0.07,0.101,0.142,0.101,0.212,0C62.711,31.039,62.64,31.039,62.57,31.14z"/>
	<path fill="currentColor" d="M56.693,38.117c0.48,1.016,0.294,1.399-0.889,2.006
		c-0.398-0.096-0.801-0.383-1.393-0.158c-0.213,0.223-0.568,0.479-1.085,0.598c-0.396-0.299-0.943-0.369-1.407-0.637
		c-0.09-0.052-0.154-0.149-0.23-0.226c-0.809-0.12-1.572,0.021-2.306,0.425c-0.537-0.302-1.108-0.545-1.312-1.225
		c-0.103-0.341-0.502-0.385-0.759-0.501c-0.614-0.277-1.151-0.572-1.421-1.239c-0.074-0.184-0.267-0.371-0.45-0.452
		c-1.017-0.448-1.815-1.267-2.889-1.63c-0.616-0.208-1.16-0.604-1.585-1.127c-0.09-0.111-0.195-0.286-0.305-0.294
		c-1.126-0.093-1.585-1.083-2.325-1.692c-0.056-0.045-0.103-0.101-0.179-0.177c0-0.296-0.026-0.619,0.007-0.936
		c0.04-0.385-0.214-0.64-0.373-0.927c-0.146-0.265-0.39-0.466-0.56-0.733c-0.164-0.256-0.042-0.566-0.26-0.764
		c-0.471-0.499-1.08-0.421-1.672-0.418c-0.765,0.445-0.765,0.445-1.085,1.038c-0.612,0.224-1.178-0.387-1.79-0.129
		c-0.894,0.328-1.492,1.076-2.242,1.61c-0.401,0.286-0.621,0.868-0.686,1.5c-0.671,0.516-0.992,1.243-0.796,2.137
		c0.17,0.576,0.691,0.802,1.087,1.169c1.122,1.036,2.35,1.959,3.366,3.109c0.397,0.449,0.833,0.839,1.504,0.801
		c0.288-0.016,0.428,0.332,0.738,0.265c0.263,0.755,0.644,1.319,1.333,1.675c0.431,0.223,0.893,0.297,1.318,0.471
		c0.429,0.176,0.632,0.733,1.143,0.894c0.57,0.179,1.167,0.294,1.689,0.618c0.144,0.101,0.088,0.294,0.223,0.438
		c1.093,1.175,2.409,2.104,3.534,3.249c0.377,0.382,0.862,0.702,1.255,1.098c0.296,0.298,0.512,0.647,0.47,1.158
		c0.155,0.142,0.331,0.434,0.528,0.449c0.273,0.021,0.373,0.363,0.721,0.242c0.122,0.847,0.449,1.609,1.056,2.382
		c0.188,0.116,0.577,0.173,0.887,0.502c0.066,0.252,0.154,0.553-0.078,0.83c-0.162,0.193-0.145,0.466-0.068,0.604
		c0.452,0.82,0.51,1.841,1.273,2.5c0.037,0.526-0.016,1.008-0.348,1.474c-0.203,0.285-0.392,0.649-0.296,1.061
		c0.134,0.572-0.324,1.056-0.221,1.647c-0.55,0.226-0.907,0.665-1.324,1.037c-1.068,0.956-2.239,1.696-3.712,1.596
		c-0.644,0.479-1.414,0.532-2.075,0.852c-0.146,0.07-0.431,0.087-0.521-0.003c-0.408-0.405-0.894-0.099-1.257-0.206
		c-0.717,0.4-1.387,0.688-2.178,0.659c-0.934-0.034-1.871-0.021-2.806-0.001c-0.301,0.006-0.585,0.015-0.907,0.149
		c-0.514,0.216-1.094,0.078-1.523-0.374c-0.36,0-0.719,0-1.058,0c-0.917-0.758-1.99-0.287-3.026-0.468
		c-0.223-0.162-0.575-0.228-0.8-0.521c-0.465-0.606-1.097-0.829-1.851-0.74c-0.177,0.021-0.359,0.003-0.566,0.003
		c-0.702-0.55-1.62-0.751-2.353-1.294c-0.194-0.144-0.398-0.277-0.666-0.219c-0.194,0.042-0.314-0.081-0.463-0.188
		c-0.639-0.462-0.646-0.453-1.539-0.465c-0.152-0.264-0.409-0.427-0.566-0.73c-0.227-0.44-0.667-0.805-1.18-0.99
		c-0.521-0.188-0.929-0.43-1.223-0.981c-0.221-0.415-0.758-0.691-1.203-0.944c-0.19-0.107-0.325-0.252-0.489-0.374
		c-0.697-0.515-1.139-1.273-1.789-1.853c-0.599-0.533-1.119-1.248-1.521-1.945c-0.596-1.031-1.322-2.074-1.197-3.386
		c0.047-0.496-0.178-0.926-0.368-1.358c-0.283-0.646-0.432-1.271-0.125-1.979c0.144-0.333,0.064-0.763,0.085-1.135
		c0.757-0.804,1.73-0.422,2.67-0.535c0.419,0.586,1.191,0.801,1.597,1.41c1.662,0.675,2.494,0.103,3.845-0.107
		c0.371-0.977,1.016-1.777,1.799-2.456c0-0.235,0-0.451,0-0.707c-0.583-0.247-0.938-0.815-1.451-1.162
		c-0.63-0.427-1.36-0.705-2.036-1.067c-0.329-0.177-0.703-0.298-0.918-0.638c-0.583,0-1.157,0-1.739,0
		c-0.383-0.575-1.219-0.521-1.603-1.269c0-0.254,0-0.64,0-1.049c0.693-0.153,1.158-0.752,1.84-0.99
		c0.391-0.136,0.518-0.622,0.726-0.981c-0.258-0.861-1.04-1.299-1.534-1.908c-0.549-0.196-1.122-0.19-1.523-0.633
		c-0.081-0.089-0.236-0.118-0.363-0.156c-1.119-0.336-1.879-1.306-2.975-1.681c-0.414-0.546-0.812-1.099-0.729-1.821
		c0.175-0.174,0.327-0.327,0.537-0.537c0.36,0.059,0.751-0.036,1.19-0.37c0.064-0.109-0.03-0.361-0.007-0.603
		c-0.372-0.368-0.756-0.73-0.608-1.368c0.389,0,0.775,0,1.179,0c0.697,0.904,1.798,0.817,2.602,1.053
		c0.691-0.19,0.65-0.827,1.103-1.105c0.419-0.258,1.001-0.007,1.313-0.489c0.234-0.582-0.44-1.025-0.16-1.543
		c-0.517-0.448-1.094-0.583-1.571-0.896c-0.191-0.125-0.417-0.151-0.577,0.009c-0.22,0.221-0.471,0.091-0.706,0.132
		c-0.66-0.34-0.907-1.002-1.228-1.63c0-0.708-0.189-1.522,0.052-2.18c0.255-0.698,0.662-1.417,1.265-1.994c0.293,0,0.607,0,0.935,0
		c0.616,0.545,0.911,0.619,2.559,0.619c0.331,0.351,0.674,0.716,1.011,1.075c1.164,0.093,1.973-0.534,2.77-1.132
		c0-0.34,0-0.628,0-1.077c-0.136-0.136-0.353-0.353-0.564-0.564c0.198,0,0.44,0,0.657,0c0.492-0.553,0.694-1.058,0.366-1.792
		c-0.315-0.704-0.557-1.466-0.471-2.293c0.076-0.733,0.783-1.657,1.739-1.773c0.27-0.033,0.572,0.083,0.736-0.163
		c0.847,0.229,1.553,0.677,2.205,1.234c0.371,0.316,0.857,0.205,1.275,0.223c1.07,1.07,1.07,1.07,2.388,1.092
		c0.204,0.204,0.407,0.407,0.647,0.647c0.397-0.118,0.829,0.114,1.291-0.191c0.383-0.252,1.1,0.136,1.396,0.588
		c0.223,0.339,0.41,0.712,0.68,1.01c0.44,0.485,0.863,1.019,1.568,1.163c0.429,0,0.858,0,1.34,0
		c0.133-0.156,0.296-0.346,0.517-0.603c0.07-0.881-0.176-1.807-0.602-2.663c-0.288-0.578-0.351-1.079,0.015-1.628
		c0.273-0.056,0.489-0.354,0.855-0.275c1.416,1.052,2.224,2.684,3.513,3.882c0.142,0,0.285,0,0.452,0
		c0.192-0.51,0.446-0.992,0.893-1.349c0.302-0.242,0.531-0.545,0.697-1.092c0-0.454,0-1.1,0-1.698
		c0.26-0.577,0.747-0.342,1.165-0.412c0.231,0.264,0.466,0.531,0.774,0.883c0.122,0.609,0.301,1.353,0.246,2.133
		c-0.015,0.204,0.123,0.48,0.281,0.625c0.513,0.47,0.617,1.058,0.563,1.655c0.576,0.602,1.107,1.168,1.777,1.631
		c0.353,0,0.706,0.016,1.058-0.004c0.357-0.021,0.609,0.337,1.015,0.225c0.619,1.041,1.904,1.426,2.546,2.552
		c0.441,0.112,0.838,0.628,1.478,0.442c0.232,0.268,0.466,0.538,0.793,0.914c0.089,0.285-0.068,0.738-0.331,0.989
		c-0.314,0.299-0.261,0.709-0.522,1.048c0.467,0.685,0.937,1.417,1.457,2.111c0.188,0.25,0.29,0.532,0.453,0.787
		c0.569,0.892,1.044,1.851,1.828,2.588c0.197,0.186,0.435,0.337,0.648,0.493c0.42,0.306,0.918,0.535,1.185,1.086
		c0.208,0.428,0.662,0.752,1.047,1.074c0.253,0.211,0.548,0.438,0.916,0.378c0.371-0.061,0.655,0.163,0.987,0.256
		c0.295,0.849,1.327,1.135,1.598,2.021c0,0.72,0,1.439,0,2.15c0.074,0.084,0.16,0.156,0.209,0.247
		c0.03,0.056,0.006,0.141,0.006,0.309c-0.239,0.743-1.078,1.217-1.199,2.077c-0.719,0.183-1.211-0.116-1.736-0.348
		c-0.477-0.21-0.744-0.544-0.995-0.986c-0.173-0.303-0.186-0.934-1.015-0.673C58.242,37.593,57.734,38.362,56.693,38.117
		c-0.09-0.425-0.09-0.425-0.953-1.254c-0.205-0.012-0.46,0.081-0.572-0.17c-0.408-0.915-1.284-1.278-2.075-1.791
		c-0.616,0-1.257,0-1.934,0c-0.775-0.777-1.56-1.562-2.31-2.313c-0.335,0-0.646,0-0.962,0c0,0.188,0,0.329,0,0.432
		c0.926,0.925,1.835,1.835,2.763,2.762c0.037,0,0.119-0.023,0.179,0.003c0.823,0.367,1.65,0.698,2.543,0.896
		c0.357,0.079,0.728,0.3,1.104,0.442c0.38,0.144,0.433,0.656,0.567,0.914C55.635,38.543,56.185,38.397,56.693,38.117z
		 M49.211,26.137c-1.009-1.204-1.97-2.424-3.48-2.98c-0.343-0.792-0.326-0.835-0.667-0.963c-0.183-0.069-0.277-0.377-0.547-0.219
		c-0.098,0.098-0.199,0.199-0.305,0.304c0,0.209,0,0.422,0,0.642c0.551,0.648,1.343,1.118,1.569,2.045
		c0.484-0.006,0.885,0.367,1.325,0.232c0.588,0.516,0.987,1.167,1.734,1.309C48.963,26.384,49.04,26.308,49.211,26.137z
		 M38.788,49.521c-0.66,0.664-1.535,0.585-2.137,1c0,0.286,0,0.499,0,0.778c0.473,0.299,1.052,0.334,1.495,0.467
		c0.275-0.219,0.492-0.392,0.642-0.511C38.788,50.661,38.788,50.167,38.788,49.521z M18.612,28.656c-0.216,0-0.432,0-0.652,0
		c-0.172,0.251-0.536,0.368-0.551,0.787c0.579,0.242,0.978,0.728,1.404,1.142c0.134-0.119,0.241-0.214,0.335-0.298
		c0-0.38,0-0.739,0-1.095C18.994,29.037,18.841,28.884,18.612,28.656z M27.327,55.299c-0.56-0.31-1.059,0.102-1.579,0.176
		c-0.214,0.03-0.527,0.334-0.565,0.683C25.992,56.832,26.626,56.571,27.327,55.299z M42.261,17.318
		c-0.026-0.86-0.47-1.623-0.938-1.623c-0.136,0.112-0.268,0.221-0.343,0.283c0,0.371,0,0.651,0,0.878
		c0.254,0.4,0.637,0.554,0.979,0.763C42.035,17.544,42.111,17.469,42.261,17.318z M31.129,45.494
		c-0.626,0.09-0.825,0.604-1.125,0.965c-0.146,0.175-0.122,0.522,0.034,0.755c0.509-0.324,1.156-0.451,1.372-0.9
		C31.558,45.845,31.338,45.696,31.129,45.494z M25.419,39.346c-0.064,0.314,0.034,0.561,0.296,0.731c0.317,0,0.629,0,0.971,0
		c0.078-0.286,0.492-0.319,0.458-0.688C26.581,38.872,26.003,38.94,25.419,39.346z M15.726,48.55
		c-0.209,0.113-0.352,0.191-0.422,0.229c0.185,0.576,0.657,0.732,0.972,1.045c0.674-0.038,0.674-0.038,0.928-0.33
		c-0.226-0.098-0.162-0.364-0.279-0.492C16.501,48.842,16.102,48.691,15.726,48.55z M29.292,47.339
		c-0.326-0.379-0.686-0.674-1.171-0.771c-0.185,0.267-0.533,0.386-0.564,0.796c0.292,0.097,0.35,0.509,0.813,0.523
		C28.619,47.742,29.005,47.71,29.292,47.339z M45.561,32.074c0.439,0,0.825,0,1.222,0c0-0.175,0-0.314,0-0.376
		c-0.193-0.258-0.361-0.482-0.509-0.679c-0.613,0.132-0.986,0.406-0.986,0.744C45.352,31.837,45.443,31.939,45.561,32.074z
		 M33.353,55.195c-0.342,0.179-0.416-0.351-0.71-0.179c-0.101,0.102-0.202,0.202-0.303,0.303c0,0.241-0.066,0.486,0.034,0.696
		c0.202,0.277,0.444,0.361,0.532,0.329c0.353-0.273,0.542-0.421,0.781-0.605C33.399,55.656,33.42,55.459,33.353,55.195z
		 M19.168,25.632c0.308,0,0.524,0,0.74,0c0.102-0.102,0.203-0.204,0.311-0.313c-0.018-0.296,0.14-0.631-0.194-0.873
		c-0.089-0.064-0.164-0.127-0.362-0.097c-0.145,0.151-0.338,0.352-0.496,0.516C19.168,25.133,19.168,25.344,19.168,25.632z
		 M41.487,57.404c-0.296,0.254-0.438,0.589-0.543,0.937c0.25,0.224,0.511,0.078,0.755,0.126c0.207-0.221,0.511-0.366,0.578-0.688
		C42.096,57.434,41.84,57.311,41.487,57.404z M24.336,46.693c0.03,0.242-0.076,0.513,0.04,0.673
		c0.309-0.264,0.578-0.492,0.844-0.719c-0.057-0.181,0.064-0.383-0.187-0.517C24.71,46.173,24.579,46.51,24.336,46.693z
		 M24.981,32.625c-0.282-0.129-0.568-0.117-0.863-0.004c-0.015,0.363,0.213,0.484,0.465,0.583
		C24.806,33.067,25.013,32.943,24.981,32.625z M22.318,53.222c-0.596,0.405-0.596,0.405-0.409,0.939
		C22.345,54.021,22.484,53.746,22.318,53.222z M39.387,22.156c-0.217,0.093-0.481-0.14-0.603,0.254
		c0.136,0.166,0.204,0.454,0.625,0.403C39.457,22.638,39.492,22.449,39.387,22.156z M36.152,53.855
		c-0.198,0.209-0.336,0.362-0.481,0.508c-0.149,0.149-0.143,0.289,0.028,0.447C36.15,54.723,36.287,54.44,36.152,53.855z
		 M27.241,17.412c-0.087,0.016-0.183,0.034-0.357,0.067c0.124,0.201-0.063,0.412,0.143,0.583c0.287,0.058,0.401-0.146,0.527-0.337
		C27.449,17.62,27.35,17.522,27.241,17.412z M37.099,58.441c0.287,0.001,0.563,0.101,0.849-0.069
		c-0.241-0.329-0.494-0.447-0.849-0.263C37.099,58.198,37.099,58.293,37.099,58.441z M39.017,59.198
		c0.255,0.354,0.52,0.432,0.876,0.258C39.656,59.123,39.402,59.016,39.017,59.198z M37.329,25.976
		c-0.229-0.153-0.339-0.542-0.712-0.216C36.842,25.831,36.901,26.19,37.329,25.976z"/>
	<path fill="currentColor" d="M36.208,30.294c-0.198,0.106-0.209,0.286-0.253,0.487
		c-0.303,0-0.614,0-0.93,0c-0.568-0.258-0.506-0.894-0.804-1.353C35.408,29.206,35.619,29.296,36.208,30.294z"/>
	<path fill="currentColor" d="M62.57,31.14c0.07-0.101,0.142-0.101,0.212,0
		C62.711,31.24,62.64,31.24,62.57,31.14z"/>
	<path style="fill-rule:evenodd;clip-rule:evenodd;fill:none;" d="M56.722,38.111c-0.537,0.286-1.087,0.432-1.68-0.072
		c-0.135-0.258-0.188-0.771-0.567-0.914c-0.376-0.142-0.746-0.363-1.104-0.442c-0.893-0.198-1.72-0.529-2.543-0.896
		c-0.06-0.027-0.142-0.003-0.179-0.003c-0.928-0.927-1.837-1.837-2.763-2.762c0-0.103,0-0.244,0-0.432c0.316,0,0.627,0,0.962,0
		c0.75,0.751,1.534,1.536,2.31,2.313c0.677,0,1.317,0,1.934,0c0.791,0.512,1.667,0.876,2.075,1.791
		c0.112,0.251,0.367,0.158,0.572,0.17C56.603,37.692,56.603,37.692,56.722,38.111z"/>
	<path style="fill-rule:evenodd;clip-rule:evenodd;fill:none;" d="M49.211,26.137c-0.172,0.171-0.248,0.247-0.37,0.37
		c-0.747-0.142-1.146-0.793-1.734-1.309c-0.44,0.135-0.841-0.238-1.325-0.232c-0.227-0.927-1.019-1.396-1.569-2.045
		c0-0.219,0-0.433,0-0.642c0.105-0.105,0.207-0.207,0.305-0.304c0.27-0.158,0.364,0.15,0.547,0.219
		c0.341,0.128,0.324,0.171,0.667,0.963C47.242,23.713,48.203,24.933,49.211,26.137z"/>
	<path style="fill-rule:evenodd;clip-rule:evenodd;fill:none;" d="M38.788,49.521c0,0.646,0,1.14,0,1.734
		c-0.149,0.119-0.366,0.292-0.642,0.511c-0.443-0.133-1.022-0.168-1.495-0.467c0-0.279,0-0.492,0-0.778
		C37.252,50.106,38.127,50.186,38.788,49.521z"/>
	<path style="fill-rule:evenodd;clip-rule:evenodd;fill:none;" d="M18.612,28.656c0.229,0.229,0.381,0.381,0.537,0.537
		c0,0.356,0,0.715,0,1.095c-0.094,0.084-0.201,0.179-0.335,0.298c-0.427-0.414-0.825-0.9-1.404-1.142
		c0.015-0.419,0.379-0.536,0.551-0.787C18.181,28.656,18.396,28.656,18.612,28.656z"/>
	<path style="fill-rule:evenodd;clip-rule:evenodd;fill:none;" d="M27.327,55.299c-0.701,1.272-1.335,1.533-2.144,0.858
		c0.038-0.349,0.351-0.652,0.565-0.683C26.268,55.4,26.768,54.989,27.327,55.299z"/>
	<path style="fill-rule:evenodd;clip-rule:evenodd;fill:none;" d="M42.261,17.318c-0.15,0.151-0.227,0.226-0.302,0.301
		c-0.342-0.209-0.725-0.363-0.979-0.763c0-0.227,0-0.507,0-0.878c0.075-0.062,0.207-0.171,0.343-0.283
		C41.792,15.696,42.235,16.458,42.261,17.318z"/>
	<path style="fill-rule:evenodd;clip-rule:evenodd;fill:none;" d="M31.129,45.494c0.209,0.202,0.428,0.351,0.28,0.819
		c-0.215,0.449-0.862,0.576-1.372,0.9c-0.156-0.232-0.18-0.58-0.034-0.755C30.304,46.098,30.503,45.584,31.129,45.494z"/>
	<path style="fill-rule:evenodd;clip-rule:evenodd;fill:none;" d="M25.419,39.346c0.583-0.405,1.162-0.474,1.725,0.044
		c0.034,0.368-0.38,0.401-0.458,0.688c-0.342,0-0.654,0-0.971,0C25.453,39.906,25.355,39.66,25.419,39.346z"/>
	<path style="fill-rule:evenodd;clip-rule:evenodd;fill:none;" d="M15.726,48.55c0.376,0.142,0.775,0.292,1.198,0.452
		c0.117,0.128,0.053,0.395,0.279,0.492c-0.254,0.292-0.254,0.292-0.928,0.33c-0.314-0.313-0.787-0.469-0.972-1.045
		C15.374,48.741,15.517,48.663,15.726,48.55z"/>
	<path style="fill-rule:evenodd;clip-rule:evenodd;fill:none;" d="M29.292,47.339c-0.287,0.371-0.673,0.403-0.923,0.549
		c-0.463-0.015-0.521-0.427-0.813-0.523c0.032-0.41,0.379-0.529,0.564-0.796C28.606,46.665,28.966,46.96,29.292,47.339z"/>
	<path style="fill-rule:evenodd;clip-rule:evenodd;fill:none;" d="M45.561,32.074c-0.118-0.135-0.209-0.237-0.273-0.312
		c0-0.338,0.373-0.612,0.986-0.744c0.147,0.197,0.315,0.421,0.509,0.679c0,0.062,0,0.201,0,0.376
		C46.386,32.074,46,32.074,45.561,32.074z"/>
	<path style="fill-rule:evenodd;clip-rule:evenodd;fill:none;" d="M33.353,55.195c0.068,0.264,0.046,0.461,0.333,0.544
		c-0.238,0.185-0.428,0.332-0.781,0.605c-0.088,0.032-0.33-0.052-0.532-0.329c-0.1-0.21-0.034-0.455-0.033-0.696
		c0.101-0.101,0.202-0.201,0.303-0.303C32.937,54.845,33.01,55.374,33.353,55.195z"/>
	<path style="fill-rule:evenodd;clip-rule:evenodd;fill:none;" d="M19.168,25.632c0-0.288,0-0.499,0-0.767
		c0.158-0.164,0.351-0.364,0.496-0.516c0.198-0.031,0.273,0.033,0.362,0.097c0.333,0.242,0.176,0.577,0.194,0.873
		c-0.108,0.109-0.209,0.211-0.312,0.313C19.692,25.632,19.476,25.632,19.168,25.632z"/>
	<path style="fill-rule:evenodd;clip-rule:evenodd;fill:none;" d="M41.487,57.404c0.354-0.094,0.609,0.029,0.79,0.374
		c-0.067,0.322-0.371,0.468-0.578,0.688c-0.244-0.048-0.505,0.098-0.755-0.126C41.048,57.993,41.191,57.658,41.487,57.404z"/>
	<path style="fill-rule:evenodd;clip-rule:evenodd;fill:none;" d="M24.336,46.693c0.243-0.184,0.375-0.521,0.697-0.563
		c0.251,0.134,0.129,0.336,0.187,0.517c-0.266,0.227-0.535,0.455-0.844,0.719C24.26,47.206,24.366,46.936,24.336,46.693z"/>
	<path style="fill-rule:evenodd;clip-rule:evenodd;fill:none;" d="M24.981,32.625c0.032,0.319-0.176,0.442-0.397,0.579
		c-0.252-0.099-0.48-0.22-0.465-0.583C24.414,32.507,24.699,32.496,24.981,32.625z"/>
	<path style="fill-rule:evenodd;clip-rule:evenodd;fill:none;" d="M22.318,53.222c0.166,0.524,0.027,0.8-0.409,0.939
		C21.722,53.627,21.722,53.627,22.318,53.222z"/>
	<path style="fill-rule:evenodd;clip-rule:evenodd;fill:none;" d="M39.387,22.156c0.104,0.293,0.069,0.482,0.022,0.657
		c-0.421,0.05-0.489-0.238-0.625-0.403C38.906,22.016,39.17,22.249,39.387,22.156z"/>
	<path style="fill-rule:evenodd;clip-rule:evenodd;fill:none;" d="M36.152,53.855c0.135,0.585-0.002,0.867-0.454,0.955
		c-0.171-0.158-0.177-0.298-0.028-0.447C35.816,54.218,35.954,54.064,36.152,53.855z"/>
	<path style="fill-rule:evenodd;clip-rule:evenodd;fill:none;" d="M27.241,17.412c0.109,0.11,0.208,0.208,0.312,0.313
		c-0.125,0.19-0.24,0.395-0.527,0.337c-0.205-0.171-0.018-0.382-0.142-0.583C27.058,17.446,27.154,17.428,27.241,17.412z"/>
	<path style="fill-rule:evenodd;clip-rule:evenodd;fill:none;" d="M37.099,58.441c0-0.148,0-0.243,0-0.332
		c0.354-0.185,0.607-0.066,0.849,0.263C37.663,58.542,37.386,58.442,37.099,58.441z"/>
	<path style="fill-rule:evenodd;clip-rule:evenodd;fill:none;" d="M39.017,59.198c0.385-0.183,0.639-0.075,0.876,0.258
		C39.537,59.63,39.272,59.553,39.017,59.198z"/>
	<path style="fill-rule:evenodd;clip-rule:evenodd;fill:none;" d="M37.329,25.976c-0.427,0.214-0.486-0.145-0.712-0.216
		C36.99,25.434,37.1,25.822,37.329,25.976z"/>
</g>
</svg>
