<?xml version="1.0" encoding="iso-8859-1"?>
<!-- Generator: Adobe Illustrator 16.0.0, SVG Export Plug-In . SVG Version: 6.00 Build 0)  -->
<!DOCTYPE svg PUBLIC "-//W3C//DTD SVG 1.1//EN" "http://www.w3.org/Graphics/SVG/1.1/DTD/svg11.dtd">
<svg version="1.1" id="Layer_1" xmlns="http://www.w3.org/2000/svg" xmlns:xlink="http://www.w3.org/1999/xlink" x="0px" y="0px"
	 width="72.36px" height="72.18px" viewBox="0 0 72.36 72.18" style="enable-background:new 0 0 72.36 72.18;" xml:space="preserve"
	>
<g>
	
	<path fill="currentColor" d="M33.552,41.392c-0.377,0-0.735,0-1.078,0c-0.693-0.322-0.54-1.16-1.01-1.617
		c0-0.36,0.019-0.721-0.004-1.079c-0.057-0.877,0.086-1.704,0.405-2.532c0.11-0.287,0.283-0.462,0.438-0.684
		c0.372-0.533,0.71-1.07,0.687-1.772c-0.009-0.269-0.365-0.376-0.23-0.666c0-0.036-0.014-0.08,0.002-0.107
		c0.285-0.494,0.713-0.957,0.824-1.486c0.119-0.567,0.348-1.09,0.477-1.646c0.084-0.365,0.247-0.716,0.559-0.953
		c0.733-0.558,0.793-1.41,0.929-2.203c0.089-0.519,0.017-1.065,0.017-1.599c-0.289-0.184-0.547-0.349-0.777-0.496
		c-0.153-0.269-0.064-0.52-0.087-0.841c0.129-0.097,0.3-0.225,0.427-0.32c0.035-0.335-0.204-0.551-0.335-0.545
		c-0.638,0.033-1.206-0.435-1.897-0.192c-0.31-0.424-0.773-0.675-1.026-1.178c-0.133-0.264-0.506-0.418-0.79-0.592
		c-0.449-0.275-0.94-0.502-0.914-1.15c-0.394-0.356-0.491-1.002-1.103-1.142c-0.371-0.084-0.574-0.377-0.826-0.611
		c-0.016-0.35-0.123-0.725,0.333-0.985c0.292,0.103,0.648,0.189,0.964,0.354c0.215,0.112,0.476,0.135,0.608,0.056
		c0.603-0.361,1.248-0.104,1.869-0.229c0.174,0.366,0.553,0.429,0.909,0.678c0.482,0,1.054,0.015,1.625-0.003
		c0.768-0.025,1.528-0.033,2.189,0.471c0.305,0.122,0.378-0.399,0.672-0.255c0.337-0.478,0.842-0.688,1.435-0.868
		c0.196,0.325,0.7,0.073,0.942,0.435c0.102-0.102,0.203-0.204,0.305-0.306c0.087-0.515-0.076-0.949-0.489-1.398
		c-0.813,0.064-1.453-0.267-1.658-1.199c-0.308-0.101-0.548-0.4-0.98-0.323c-0.55-0.803-1.453-1.2-2.251-1.736
		c-0.054-0.036-0.147-0.031-0.182-0.076c-0.551-0.705-1.392-1.084-1.971-1.749c-0.107-0.337,0.1-0.597,0.341-0.937
		c0.353-0.086,0.83-0.398,1.346-0.247c0.332,0.097,0.688,0.114,0.986,0.223c1.01,0.366,2.037,0.083,3.049,0.212
		c0.235,0.242,0.642,0.268,0.8,0.585c1.006,0.243,1.593-0.37,2.16-0.998c0.744,0.04,0.771,0.056,1.802,1.028
		c0.153,0,0.294,0,0.423,0c0.139-0.139,0.266-0.267,0.406-0.407c0.702,0,1.419,0,2.194,0c0.549,0.793,1.582,0.92,2.384,1.492
		c0.244,0,0.53,0,0.86,0c0.503,0.651,1.119,1.196,1.822,1.689c0.62,0.435,1.161,1.01,1.755,1.507
		c0.638,0.533,1.076,1.247,1.471,1.975c0.3,0.554,0.882,0.879,1.141,1.47c0.119,0.273,0.33,0.503,0.376,0.816
		c0.057,0.386,0.256,0.697,0.53,0.967c0.386,0.378,0.765,0.763,1.112,1.11c0.319,0.827,0.4,1.625,0.194,2.598
		c0.419,0.612,1.021,1.354,0.719,2.325c0.508,0.868,1.045,1.628,1.752,2.271c0,0.424,0,0.853,0,1.339
		c-0.154,0.129-0.345,0.29-0.596,0.5c-0.188,0-0.473,0-0.73,0c-0.563-0.563-1.119-1.12-1.675-1.675c-0.352,0-0.667,0-0.931,0
		c-0.584-0.449-0.497-1.39-1.37-1.511c-0.447-0.021-0.927-0.123-1.395,0.157c-0.154,0.092-0.396,0.049-0.544,0.245
		c-0.28,0.371-0.703,0.525-1.115,0.689c-0.287,0.504,0.213,0.912,0.168,1.399c-0.045,0.495-0.01,0.998-0.01,1.466
		c0.158,0.158,0.285,0.285,0.412,0.413c0.035,1.2,0.087,1.305,0.83,1.692c0.16,0.164-0.07,0.434,0.149,0.582
		c0.227,0.152,0.051,0.403,0.149,0.581c0.459,0.484,1.011,0.886,1.269,1.548c-0.143,0.288-0.204,0.636-0.524,0.883
		c-0.464,0-0.961,0-1.508,0c-0.512-0.255-0.969-0.602-1.281-1.197c-0.232-0.445-0.699-0.752-1.209-0.943
		c-0.685-0.256-1.343-0.588-2.036-0.814c-0.966-0.315-1.658-1.038-2.486-1.556c-0.57,0.096-0.591,0.623-0.429,0.897
		c0.269,0.456,0.106,0.896,0.201,1.315c-0.582,0.604-0.646,0.637-1.72,0.873c0,0.418,0,0.843,0,1.177
		c-0.165,0.587-0.523,0.931-0.897,1.234c-0.313,0.256-0.42,0.632-0.671,0.92c-0.306,0.352-0.444,0.827-0.979,0.998
		c-0.204,0.065-0.374,0.403-0.456,0.651c-0.317,0.959-0.944,1.674-1.701,2.301c-0.178,0-0.357,0-0.537,0
		c-1.203-0.97-1.559-1.34-1.48-3.104c0.901-1.353,2.189-2.333,3.3-3.572c-0.276-0.304-0.422-0.738-1.053-0.656
		c-0.88,1.015-2.002,1.882-2.849,3.044C35.654,39.536,34.336,40.213,33.552,41.392z M47.583,27.14
		c-0.438,0.027-0.879-0.116-1.168,0.212c-0.264,0.036-0.296-0.281-0.639-0.166c-0.1,0.118-0.275,0.326-0.447,0.529
		c0.3,0.302,0.29,0.821,0.745,1.167c1.283-0.102,2.35-0.632,2.977-1.915c0.4-0.273,1.068-0.154,1.294-0.694
		c0.182-0.436,0.594-0.708,0.657-1.247c0.068-0.579,0.171-0.567-0.415-0.914c-0.505,0.505-1.163,0.933-1.48,1.54
		C48.734,26.366,47.944,26.523,47.583,27.14z"/>
	<path fill="currentColor" d="M22.306,53.063c0.335,0.323,0.51,0.663,1.049,0.684
		c0.355,0.014,0.762,0.306,1.033,0.582c0.567,0.579,1.252,0.68,1.999,0.687c0.099-0.107,0.197-0.212,0.306-0.33
		c0.094-0.685,0.018-1.354-0.499-1.889c0.345-0.676,0.68-1.255,0.942-1.866c0.262-0.61,0.307-1.376,0.711-1.848
		c0.479-0.559,0.34-1.338,0.894-1.832c0.41,0,0.837,0,1.013,0c0.921-0.134,1.143-0.752,1.449-1.205
		c0.279-0.414,0.531-0.759,0.993-0.99c0.446-0.223,0.642-0.693,0.835-1.209c0.383-0.314,0.902-0.298,1.424-0.289
		c0.54,0.009,1.08,0.002,1.674,0.002c0.152,0.354,0.544,0.487,0.868,0.642c0.651,0.31,0.961,0.892,1.129,1.469
		c0.165,0.568,0.471,0.985,0.839,1.381c0.388,0.415,0.736,0.815,0.72,1.438c-0.008,0.261,0.335,0.46,0.201,0.774
		c0.354,0.431,0.866,0.729,1.084,1.29c0,0.465,0.057,0.938-0.014,1.391c-0.111,0.722,0.339,1.363,0.229,2.072
		c0.356,0.268,0.171,0.654,0.216,0.99s0.051,0.658,0.165,1.007c0.132,0.405,0.184,0.95-0.092,1.438
		c-0.14,0.247-0.065,0.614-0.094,1.015c0.82,0,1.597-0.015,2.331,0.399c0.326,0.184,0.842,0.031,1.347,0.031
		c0.594,1.442,2.001,2.266,2.822,3.712c0,0.214,0,0.574-0.001,0.934c-0.542,0.649-1.283,0.906-2.082,0.953
		c-0.393,0.022-0.688,0.327-1.083,0.268c-0.752,0.604-1.691,0.625-2.571,0.829c-0.414,0.096-0.762,0.297-1.046,0.629
		c-0.712,0.092-1.44-0.057-2.17,0.203c-0.417,0.148-0.936,0.064-1.424-0.153c-0.377-0.168-0.821-0.431-1.342-0.063
		c-0.262,0.185-0.763,0.032-1.059,0.032c-0.666-0.265-0.125-1.046-0.716-1.251c-0.768-0.307-1.385,0.229-2.071,0.395
		c-2.196,0.531-2.302,0.727-4.305-0.222c-0.029-0.014-0.071-0.002-0.103-0.002c-0.739-0.936,0.137-1.676,0.339-2.56
		c-0.772-0.136-1.241,0.546-1.902,0.588c-0.672-0.031-1.12-0.548-1.641-0.879c-0.069,0.069-0.119,0.114-0.116,0.117
		c0.124,0.159,0.252,0.315,0.396,0.49c0,0.33,0,0.689,0,1.063c-0.096,0.09-0.201,0.188-0.286,0.267
		c-1.228,0.337-1.901-0.476-2.603-1.235c-0.144,0-0.285,0-0.467,0c-0.522-0.858-1.468-0.869-2.432-1.156
		c-0.314-0.314-0.723-0.713-1.12-1.124c-0.534-0.552-1.106-1.038-1.785-1.421c-0.393-0.221-0.687-0.616-1.012-0.922
		c-0.083-0.586,0.269-0.81,0.716-1.013c0.57-0.259,1.16-0.199,1.81-0.208c0.206-0.801-0.261-1.411-0.595-2.146
		c0.04-0.89-0.213-1.93,0.252-2.824c0.223-0.429,0.281-0.997,0.728-1.287c0.289-0.067,0.393,0.272,0.692,0.225
		c0.483-0.076,0.835,0.233,1.167,0.554c0.505,0.485,0.926,1.07,1.669,1.376C21.888,53.063,22.14,53.063,22.306,53.063z
		 M32.328,58.552c0-0.216-0.069-0.439,0.012-0.568c0.378-0.599,0.599-1.264,0.844-1.917c0.056-0.148,0.168-0.31,0.25-0.313
		c0.43-0.014,0.533-0.57,0.964-0.549c0.122-0.429,0.475-0.679,0.765-0.976c0.043-0.045,0.118-0.059,0.291-0.139
		c0.239-0.334,0.382,0.589,0.74,0.184c0.103-0.316-0.144-0.49-0.347-0.546c-0.385-0.106-0.614-0.397-0.791-0.668
		c-0.302-0.462-0.596-0.95-0.63-1.495c-0.891-0.15-0.741,0.788-1.249,0.944c0,0.561,0,1.06,0,1.536
		c-0.327,0.448-0.921,0.289-1.236,0.646c-0.336,0.296-0.246,0.743-0.458,1.107c-0.607,1.044-1.464,1.244-2.332,0.454
		c-0.211-0.192-0.395-0.415-0.562-0.593c-0.413,0-0.771,0-1.125,0c-0.106,0.105-0.208,0.208-0.339,0.339
		c0.159,0.757-0.047,1.493-0.446,2.142c-0.218,0.354-0.179,0.633-0.132,1.038c0.615-0.273,1.198-0.321,1.699-0.283
		c0.413-0.198,0.754-0.363,0.954-0.649c0.885,0.013,0.885,0.013,1.608,0.522c0.056,0.541-0.132,1.026-0.392,1.521
		c-0.182,0.345-0.407,0.732-0.156,1.197c0.525,0.018,1.098-0.078,1.6,0.219c0.787,0.466,1.372,0.111,1.895-0.46
		c0.333-0.362,0.698-0.674,1.166-0.834c0.425-0.146,0.52-0.419,0.386-0.809c-0.634-0.442-1.361-0.205-2.022-0.325
		C32.901,59.15,32.618,58.899,32.328,58.552z M18.511,57.922c0.326,0.37,0.724,0.756,1.42,0.763c0.037-0.185,0.339-0.205,0.29-0.568
		c-0.158-0.129-0.371-0.305-0.628-0.517c-0.097,0-0.282-0.032-0.449,0.009c-0.182,0.044-0.203-0.314-0.4-0.147
		C18.664,57.588,18.492,57.631,18.511,57.922z M37.117,58.047c0.014,0.198-0.154,0.411,0.066,0.627
		c0.279,0.041,0.402-0.145,0.52-0.346C37.543,58.192,37.444,57.975,37.117,58.047z"/>
	<path fill="currentColor" d="M22.395,53.081c-0.296-0.817-0.816-1.452-1.449-2.005
		c-0.802-0.701-1.309-1.669-2.132-2.353c-0.158-0.131-0.076-0.42-0.305-0.516c-0.076-0.873,0.187-1.517,1.034-1.943
		c0.427-0.215,0.721-0.689,1.081-1.041c0.297-0.29,0.544-0.646,0.976-0.781c0.427,0,0.853,0,1.327,0
		c0.473,0.152,0.817,0.557,1.171,0.936c0.526,0.563,1.146,1.006,1.789,1.415c0.423,0.269,0.6,0.639,0.609,1.108
		c0.021,1.113-0.332,2.128-0.863,3.211c-0.032,0.763,0.256,1.783-1.007,2.132C23.889,53.444,23.17,52.922,22.395,53.081z"/>
	<path fill="currentColor" d="M25.743,44.426c-0.688-0.026-1.42,0.148-2.013-0.505
		c0-1.128,0-2.305,0-3.452c0.758-1.15,1.708-2.122,2.974-2.938c0.287,0,0.713,0,1.209,0c0.402,0.394,0.865,0.809,1.173,1.374
		c0.251,0.461,0.604,0.846,0.982,1.216c0.921,0.9,1.259,2.06,1.401,3.302c0.05,0.439-0.115,0.805-0.296,1.19
		c-0.524,0.108-1.128-0.165-1.583,0.351c-0.262,0.471-0.558,0.97-1.026,1.379c-0.532,0.106-0.986-0.068-1.375-0.469
		C26.711,45.386,26.223,44.906,25.743,44.426z"/>
	<path fill="currentColor" d="M61.656,19.647c-0.104,0.193-0.224,0.186-0.354,0.081
		C61.369,19.434,61.552,19.702,61.656,19.647z"/>
	<path fill="currentColor" d="M59.652,17.426c0.101,0.07,0.101,0.142,0,0.212
		C59.551,17.568,59.551,17.496,59.652,17.426z"/>
	
	
	
	
</g>
</svg>
