<svg xmlns="http://www.w3.org/2000/svg" xml:space="preserve" width="72px" height="72px" viewBox="0 0 72 72">
    <g fill="currentColor">
        <path d="M33.552 41.392h-1.078c-.693-.322-.54-1.16-1.01-1.617 0-.36.019-.721-.004-1.079a5.85 5.85 0 0 1 .405-2.532c.11-.287.283-.462.438-.684.372-.533.71-1.07.687-1.772-.009-.269-.365-.376-.23-.666 0-.036-.014-.08.002-.107.285-.494.713-.957.824-1.486.119-.567.348-1.09.477-1.646.084-.365.247-.716.559-.953.733-.558.793-1.41.929-2.203.089-.519.017-1.065.017-1.599l-.777-.496c-.153-.269-.064-.52-.087-.841l.427-.32c.035-.335-.204-.551-.335-.545-.638.033-1.206-.435-1.897-.192-.31-.424-.773-.675-1.026-1.178-.133-.264-.506-.418-.79-.592-.449-.275-.94-.502-.914-1.15-.394-.356-.491-1.002-1.103-1.142-.371-.084-.574-.377-.826-.611-.016-.35-.123-.725.333-.985.292.103.648.189.964.354.215.112.476.135.608.056.603-.361 1.248-.104 1.869-.229.174.366.553.429.909.678.482 0 1.054.015 1.625-.003.768-.025 1.528-.033 2.189.471.305.122.378-.399.672-.255.337-.478.842-.688 1.435-.868.196.325.7.073.942.435l.305-.306c.087-.515-.076-.949-.489-1.398-.813.064-1.453-.267-1.658-1.199-.308-.101-.548-.4-.98-.323-.55-.803-1.453-1.2-2.251-1.736-.054-.036-.147-.031-.182-.076-.551-.705-1.392-1.084-1.971-1.749-.107-.337.1-.597.341-.937.353-.086.83-.398 1.346-.247.332.097.688.114.986.223 1.01.366 2.037.083 3.049.212.235.242.642.268.8.585 1.006.243 1.593-.37 2.16-.998.744.04.771.056 1.802 1.028h.423l.406-.407h2.194c.549.793 1.582.92 2.384 1.492h.86c.503.651 1.119 1.196 1.822 1.689.62.435 1.161 1.01 1.755 1.507.638.533 1.076 1.247 1.471 1.975.3.554.882.879 1.141 1.47.119.273.33.503.376.816.057.386.256.697.53.967.386.378.765.763 1.112 1.11.319.827.4 1.625.194 2.598.419.612 1.021 1.354.719 2.325.508.868 1.045 1.628 1.752 2.271v1.339l-.596.5h-.73l-1.675-1.675h-.931c-.584-.449-.497-1.39-1.37-1.511-.447-.021-.927-.123-1.395.157-.154.092-.396.049-.544.245-.28.371-.703.525-1.115.689-.287.504.213.912.168 1.399-.045.495-.01.998-.01 1.466l.412.413c.035 1.2.087 1.305.83 1.692.16.164-.07.434.149.582.227.152.051.403.149.581.459.484 1.011.886 1.269 1.548-.143.288-.204.636-.524.883h-1.508c-.512-.255-.969-.602-1.281-1.197-.232-.445-.699-.752-1.209-.943-.685-.256-1.343-.588-2.036-.814-.966-.315-1.658-1.038-2.486-1.556-.57.096-.591.623-.429.897.269.456.106.896.201 1.315-.582.604-.646.637-1.72.873v1.177c-.165.587-.523.931-.897 1.234-.313.256-.42.632-.671.92-.306.352-.444.827-.979.998-.204.065-.374.403-.456.651-.317.959-.944 1.674-1.701 2.301h-.537c-1.203-.97-1.559-1.34-1.48-3.104.901-1.353 2.189-2.333 3.3-3.572-.276-.304-.422-.738-1.053-.656-.88 1.015-2.002 1.882-2.849 3.044-.825 1.133-2.143 1.81-2.927 2.989M47.583 27.14c-.438.027-.879-.116-1.168.212-.264.036-.296-.281-.639-.166l-.447.529c.3.302.29.821.745 1.167 1.283-.102 2.35-.632 2.977-1.915.4-.273 1.068-.154 1.294-.694.182-.436.594-.708.657-1.247.068-.579.171-.567-.415-.914-.505.505-1.163.933-1.48 1.54-.373.714-1.163.871-1.524 1.488M22.306 53.063c.335.323.51.663 1.049.684.355.014.762.306 1.033.582.567.579 1.252.68 1.999.687l.306-.33c.094-.685.018-1.354-.499-1.889.345-.676.68-1.255.942-1.866.262-.61.307-1.376.711-1.848.479-.559.34-1.338.894-1.832h1.013c.921-.134 1.143-.752 1.449-1.205.279-.414.531-.759.993-.99.446-.223.642-.693.835-1.209.383-.314.902-.298 1.424-.289.54.009 1.08.002 1.674.002.152.354.544.487.868.642.651.31.961.892 1.129 1.469.165.568.471.985.839 1.381.388.415.736.815.72 1.438-.008.261.335.46.201.774.354.431.866.729 1.084 1.29 0 .465.057.938-.014 1.391-.111.722.339 1.363.229 2.072.356.268.171.654.216.99s.051.658.165 1.007c.132.405.184.95-.092 1.438-.14.247-.065.614-.094 1.015.82 0 1.597-.015 2.331.399.326.184.842.031 1.347.031.594 1.442 2.001 2.266 2.822 3.712l-.001.934c-.542.649-1.283.906-2.082.953-.393.022-.688.327-1.083.268-.752.604-1.691.625-2.571.829a1.9 1.9 0 0 0-1.046.629c-.712.092-1.44-.057-2.17.203-.417.148-.936.064-1.424-.153-.377-.168-.821-.431-1.342-.063-.262.185-.763.032-1.059.032-.666-.265-.125-1.046-.716-1.251-.768-.307-1.385.229-2.071.395-2.196.531-2.302.727-4.305-.222-.029-.014-.071-.002-.103-.002-.739-.936.137-1.676.339-2.56-.772-.136-1.241.546-1.902.588-.672-.031-1.12-.548-1.641-.879-.069.069-.119.114-.116.117.124.159.252.315.396.49v1.063l-.286.267c-1.228.337-1.901-.476-2.603-1.235h-.467c-.522-.858-1.468-.869-2.432-1.156-.314-.314-.723-.713-1.12-1.124-.534-.552-1.106-1.038-1.785-1.421-.393-.221-.687-.616-1.012-.922-.083-.586.269-.81.716-1.013.57-.259 1.16-.199 1.81-.208.206-.801-.261-1.411-.595-2.146.04-.89-.213-1.93.252-2.824.223-.429.281-.997.728-1.287.289-.067.393.272.692.225.483-.076.835.233 1.167.554.505.485.926 1.07 1.669 1.376.171-.003.423-.003.589-.003m10.022 5.489c0-.216-.069-.439.012-.568.378-.599.599-1.264.844-1.917.056-.148.168-.31.25-.313.43-.014.533-.57.964-.549.122-.429.475-.679.765-.976.043-.045.118-.059.291-.139.239-.334.382.589.74.184.103-.316-.144-.49-.347-.546-.385-.106-.614-.397-.791-.668-.302-.462-.596-.95-.63-1.495-.891-.15-.741.788-1.249.944v1.536c-.327.448-.921.289-1.236.646-.336.296-.246.743-.458 1.107-.607 1.044-1.464 1.244-2.332.454-.211-.192-.395-.415-.562-.593h-1.125l-.339.339c.159.757-.047 1.493-.446 2.142-.218.354-.179.633-.132 1.038a3.5 3.5 0 0 1 1.699-.283c.413-.198.754-.363.954-.649.885.013.885.013 1.608.522.056.541-.132 1.026-.392 1.521-.182.345-.407.732-.156 1.197.525.018 1.098-.078 1.6.219.787.466 1.372.111 1.895-.46.333-.362.698-.674 1.166-.834.425-.146.52-.419.386-.809-.634-.442-1.361-.205-2.022-.325-.384-.127-.667-.378-.957-.725m-13.817-.63c.326.37.724.756 1.42.763.037-.185.339-.205.29-.568l-.628-.517c-.097 0-.282-.032-.449.009-.182.044-.203-.314-.4-.147-.08.126-.252.169-.233.46m18.606.125c.014.198-.154.411.066.627.279.041.402-.145.52-.346-.16-.136-.259-.353-.586-.281"/>
        <path d="M22.395 53.081c-.296-.817-.816-1.452-1.449-2.005-.802-.701-1.309-1.669-2.132-2.353-.158-.131-.076-.42-.305-.516-.076-.873.187-1.517 1.034-1.943.427-.215.721-.689 1.081-1.041.297-.29.544-.646.976-.781h1.327c.473.152.817.557 1.171.936.526.563 1.146 1.006 1.789 1.415.423.269.6.639.609 1.108.021 1.113-.332 2.128-.863 3.211-.032.763.256 1.783-1.007 2.132-.737.2-1.456-.322-2.231-.163m3.348-8.655c-.688-.026-1.42.148-2.013-.505v-3.452a9.9 9.9 0 0 1 2.974-2.938h1.209c.402.394.865.809 1.173 1.374.251.461.604.846.982 1.216.921.9 1.259 2.06 1.401 3.302.05.439-.115.805-.296 1.19-.524.108-1.128-.165-1.583.351-.262.471-.558.97-1.026 1.379-.532.106-.986-.068-1.375-.469-.478-.488-.966-.968-1.446-1.448m35.913-24.779c-.104.193-.224.186-.354.081.067-.294.25-.026.354-.081m-2.004-2.221q.152.106 0 .212-.151-.106 0-.212"/>
    </g>
</svg>
