<svg xmlns="http://www.w3.org/2000/svg" xml:space="preserve" width="72px" height="72px" viewBox="0 0 72 72">
    <path fill="currentColor" d="M20.438 59.432c.589-.976.92-1.995 1.288-2.993.071-.193.054-.421.251-.542.204-.125.269-.368.285-.527.114-1.125.993-1.825 1.482-2.737.085-.161.114-.314.171-.471.307-.845.648-1.676 1.042-2.671-.182-.679.208-1.475.509-2.193.342-.819.374-1.599.381-2.51-1.12.06-2.208-.025-3.186-.812-.018-.163-.226-.351-.43-.541-.018-.064-.051-.129-.052-.193-.005-.432-.036-.867.004-1.295.1-1.084-.313-2.002-.869-2.939v-.61c.144-.14.283-.311.456-.436q.906-.657 1.762.083c.217.188.414.4.611.609.171.182.331.375.517.516.476.184.813-.215 1.232-.237.224-.013.312-.282.408-.531a6 6 0 0 0 .414-2.636c-.013-.179-.001-.36-.001-.625.179-.129.408-.293.703-.507.024.002.218-.036.292.042.353.364.92.25 1.268.602.654-.056 1.258-.248 1.767-.68.289-.246.488-.607.914-.684 0-.273.124-.558-.096-.803-.513-.571-.593-1.405-1.101-1.973-.832.457-.225 1.358-.758 1.854-.246.263-.672.251-.893.511-1.207.272-2.336-.263-3.457-.17-.792-.493-1.806-.651-2.068-1.612-.235-.166-.412-.097-.598-.097-.156.378-.12.732.14 1.062a2.46 2.46 0 0 1-.776 1.085h-1.064l-.328.328c.08.906-.125 1.751-.713 2.474h-.741c-.479-.8-1.088-1.526-2.111-1.732-.21-.304-.25-.703-.513-.95-.174-.976.277-1.88.219-2.844-.038-.629-.089-1.239-.356-1.803-.084-.177-.074-.333-.099-.5-.047-.325.305-.522.237-.886-.053-.282-.058-.583.158-.902s.028-.792.148-1.223c.207-.744.554-1.439.711-2.192.072-.343.042-.708.061-1.104-.327-.199-.449-.572-.663-.916v-1.039l.283-.283c.565-.204 1.028.202 1.549.179.518-.023 1.056.105 1.455-.229 1.08.158 1.208 1.184 1.822 1.776.792-.299.829-1.103 1.129-1.771-.391-.589-.111-1.315-.211-2.053l.774-.536h1.37v-1.002c-.414-.371-.435-.888-.387-1.467l.867-.751h1.578c.798.591 1.358 1.451 1.987 2.15.31-.019.369-.226.513-.32.086-.298-.305-.462-.208-.771.16-.506-.193-.935-.259-1.411-.022-.16-.176-.352-.171-.568.019-1.02-.212-1.968-.867-2.77-.438-.537-.657-1.164-.874-1.849.139-.745.631-1.116 1.443-1.19.283.296.579.608.878.917.345.357.747.538 1.254.634.712.136 1.335.529 1.814 1.167.016.124-.022.345.071.454.219.258.16.454.066.754-.17.547-.427 1.103-.321 1.7.061.344-.294.541-.233.885.049.279-.1.646.033.847.264.398.134.814.216 1.212l.933.933h.897l.532.661h.751l.741-.741c-.084-.459.257-.834.46-1.247.181-.368.328-.685.069-1.052a.84.84 0 0 1-.062-.816c.304-.58.133-1.175.194-1.758.022-.206-.089-.428.075-.616.388-.444-.017-.841-.081-1.257-.059-.385-.336-.58-.674-.721-.124-.052-.228-.153-.272-.184-.201-.217-.097-.403-.127-.572l.566-.566 2.849.73c.573.702 1.438 1.205 1.786 2.097-.042.413-.202.706-.452 1.002 0 .572.042 1.186-.014 1.79-.047.508.301.908.254 1.426-.039.425-.213.915.178 1.325.091.094.024.348.012.527-.044.603.175 1.131.429 1.659.216.449.43.908.562 1.385.149.541.455.974.709 1.344.218.222.41.077.604.171.544-.862 1.022-1.721.935-2.77a2.3 2.3 0 0 1 .271-1.305c.902-.392.904-.561 2.084.446v1.534c.281.954 1.07 1.496 1.12 2.398.339.235.188.587.193.889.013.604.207 1.11.557 1.612.517.743 1.017 1.491 1.736 2.127.324-.063.734.165 1.051-.203.156.25.547.135.616.353.301.353.139.712.329 1.052.628 1.126.588 1.466.263 3.06-.056.272-.008.566-.046.837-.198.55-.609.964-.869 1.482-.327.65-1.063.934-1.743 1.199-.467.181-.924.387-1.534.646h-.683c-.647 0-1.296-.005-1.943.001-.592.006-1.118-.465-1.675-.171l-.37-.369c.001-.52-.029-1.036.205-1.534.128-.272.203-.568.403-.804.45-.531.898-1.064 1.318-1.561.042-.574.416-1.044.125-1.641-.268-.549-.03-1.322-.753-1.732-.572.245-.395.904-.737 1.305H43.03c-.687.837-1.714 1.412-2.104 2.549-.915.483-1.856.361-2.807.032-.506.383-.681.867-.594 1.435.229.424.614.317.933.331.612.431.759 1.134 1.105 1.745.803-.093 1.529-.665 2.406-.403.369.819.999 1.544 1.169 2.506.163.927.75 1.758.636 2.672l.787.864c.505-.178.691-.604.704-1.033.013-.438.132-.803.341-1.165h1.297c.698.601.949 1.39.983 2.287.018.441-.169.927.209 1.314.056.889-.102 1.751-.731 2.387-.527.532-.896 1.198-1.559 1.63-.615.401-.643 1.152-.469 1.803.215.803.445 1.595.372 2.429-.033.373.063.761.249.972.557.634.666 1.346.619 2.059.315.805.813 1.435.92 2.293.077.628.482 1.237.826 1.804.492.812.816 1.685 1.054 2.587.112.428.282.823.416 1.231.166.509.347 1.05.26 1.63-.05.33-.11.711.216.999-.139.262-.174.58-.504.865-.671.003-1.16.576-1.829.922h-1.241l-1.066 1.082c-.286 0-.576.031-.856-.007-.44-.06-.849.063-1.166.311-.428.332-.893.298-1.37.369-.328.049-.563-.252-.929-.078-.294.14-.793-.085-1.032.087-.299.215-.73.032-.925.397-.811-.096-1.566.443-2.431.154-.179-.226-.655-.158-.742-.575-.921-.077-1.758.254-2.643.235-.991-.021-1.902-.182-2.769-.723-1.294.671-2.602-.053-3.99.052l-.525-.654c-1.048.017-1.625-.691-2.311-1.168-.485-.336-.907-.763-1.372-1.131a2.1 2.1 0 0 0-.53-.278c-1.319-.519-1.324-.506-2.044-1.226.411-.864.528-1.811.445-2.717m10.891-41.394h-.891c-.542.926-.573 1.289-.35 2.161.143.56.234 1.138.286 1.713.047.533.01 1.073.01 1.476.377.883.775 1.612 1.117 2.374.333.743.772 1.463 1.173 2.185.939.036.887-1.03 1.57-1.317h1.414c.647-.461.77-1.223 1.041-1.632.938-.981 1.853-.119 2.757-.342 0-.352.092-.737-.02-1.049-.255-.719-.318-1.458-.457-2.192-.116-.612-.29-1.355-1.045-1.706-.198.122-.539.208-.618.4-.346.84-1.149.926-1.833 1.098-.491.124-.913.26-1.258.62-.27.281-.594.451-.99.514l-.683-.347c-.041-.853-.481-1.45-1.081-1.922-.131-.685.609-1.352-.142-2.034m3.425 26.683-.843.866c-.492.309-.844-.352-1.354-.083-.406.597-.761 1.282-.643 2.048.14.907.136 1.839.39 2.555l.616.807c.581-.369 1.178-.295 1.766-.298.215-.001.431-.015.645.003.52.043.941-.145 1.231-.452.362-.935-.347-1.639-.336-2.452.011-.835-.488-1.563-.447-2.398-.276-.195-.403-.623-1.025-.596M26.103 25.23c-.087.786.156 1.521.469 2.241.222-.068.316.211.501.196.607-.275.8-.877 1.149-1.378.021-.487.093-.996.167-1.504.073-.502.44-.972.233-1.524-.142-.118-.241-.341-.505-.294-.384.067-.774.214-.949.542-.319.597-.877 1.039-1.065 1.721M34.7 35.809c.393-.263.519-.866.906-1.058.677-.334.939-.979 1.408-1.46.117-.12.096-.249-.056-.407-.297.096-.61.192-.85.45-1.479.003-1.686.11-1.858 1.063l-.835.704v1.593c.335.265.335.265.831.247.256-.315.501-.64.454-1.132m-12.578-5.03v-2.131c-.233-.108-.246-.412-.323-.6-.117-.281-.322-.443-.486-.657-.008-.548.093-1.117-.3-1.592-.419.22-.559.652-.78 1.023 0 .608.038 1.219-.015 1.822-.03.344.092.648.25.864.403.554.874 1.075 1.654 1.271"/>
</svg>
