<?xml version="1.0" encoding="iso-8859-1"?>
<!-- Generator: Adobe Illustrator 16.0.0, SVG Export Plug-In . SVG Version: 6.00 Build 0)  -->
<!DOCTYPE svg PUBLIC "-//W3C//DTD SVG 1.1//EN" "http://www.w3.org/Graphics/SVG/1.1/DTD/svg11.dtd">
<svg version="1.1" id="Layer_1" xmlns="http://www.w3.org/2000/svg" xmlns:xlink="http://www.w3.org/1999/xlink" x="0px" y="0px"
	 width="72.359px" height="72.899px" viewBox="0 0 72.359 72.899" style="enable-background:new 0 0 72.359 72.899;"
	 xml:space="preserve">
<g>
	<path style="fill-rule:evenodd;clip-rule:evenodd;fill:none;" d="M-6.984,80.423c0-29.159,0-58.319,0-87.479
		c28.872,0,57.744,0,86.616,0c0,29.16,0,58.32,0,87.479C50.76,80.423,21.888,80.423-6.984,80.423z M20.438,59.432
		c0.083,0.906-0.033,1.854-0.444,2.717c0.72,0.72,0.725,0.707,2.044,1.226c0.174,0.069,0.376,0.156,0.53,0.278
		c0.465,0.368,0.886,0.795,1.372,1.131c0.687,0.477,1.263,1.185,2.311,1.168c0.157,0.195,0.357,0.445,0.525,0.654
		c1.388-0.104,2.696,0.619,3.99-0.052c0.867,0.541,1.777,0.701,2.769,0.723c0.885,0.019,1.722-0.313,2.643-0.235
		c0.086,0.417,0.563,0.35,0.742,0.575c0.864,0.289,1.62-0.25,2.431-0.154c0.194-0.365,0.626-0.183,0.925-0.397
		c0.239-0.172,0.738,0.053,1.032-0.087c0.365-0.174,0.601,0.127,0.929,0.078c0.478-0.071,0.942-0.037,1.37-0.369
		c0.317-0.247,0.726-0.37,1.166-0.311c0.28,0.038,0.57,0.007,0.856,0.007c0.361-0.366,0.714-0.725,1.066-1.082
		c0.436,0,0.867,0,1.241,0c0.669-0.346,1.158-0.919,1.829-0.922c0.33-0.285,0.365-0.604,0.504-0.865
		c-0.326-0.288-0.266-0.669-0.216-0.999c0.087-0.58-0.094-1.121-0.26-1.63c-0.134-0.408-0.304-0.804-0.416-1.231
		c-0.237-0.902-0.562-1.775-1.054-2.587c-0.344-0.566-0.749-1.176-0.826-1.804c-0.106-0.858-0.604-1.488-0.92-2.293
		c0.047-0.713-0.063-1.425-0.619-2.059c-0.186-0.211-0.282-0.599-0.249-0.972c0.073-0.834-0.157-1.626-0.372-2.429
		c-0.174-0.65-0.146-1.401,0.469-1.803c0.663-0.432,1.031-1.098,1.559-1.63c0.63-0.636,0.787-1.498,0.731-2.387
		c-0.378-0.388-0.191-0.873-0.209-1.314c-0.034-0.897-0.285-1.687-0.983-2.287c-0.434,0-0.865,0-1.297,0
		c-0.209,0.362-0.328,0.728-0.341,1.165c-0.013,0.43-0.199,0.855-0.704,1.033c-0.261-0.287-0.502-0.552-0.787-0.864
		c0.114-0.914-0.473-1.745-0.636-2.672c-0.17-0.962-0.8-1.687-1.169-2.506c-0.877-0.262-1.604,0.31-2.406,0.403
		c-0.347-0.611-0.493-1.313-1.105-1.745c-0.318-0.014-0.703,0.093-0.933-0.331c-0.087-0.568,0.088-1.052,0.594-1.435
		c0.95,0.329,1.892,0.451,2.807-0.032c0.39-1.137,1.417-1.712,2.104-2.549c0.492,0,0.917,0,1.309,0
		c0.343-0.401,0.165-1.06,0.737-1.305c0.723,0.411,0.485,1.183,0.753,1.732c0.291,0.597-0.083,1.066-0.125,1.641
		c-0.42,0.497-0.868,1.03-1.318,1.561c-0.2,0.236-0.275,0.532-0.403,0.804c-0.234,0.499-0.204,1.015-0.204,1.534
		c0.102,0.102,0.203,0.204,0.369,0.369c0.557-0.294,1.083,0.178,1.675,0.171c0.647-0.007,1.296-0.001,1.943-0.001
		c0.288,0,0.576,0,0.683,0c0.61-0.258,1.067-0.464,1.534-0.646c0.681-0.265,1.416-0.549,1.743-1.199
		c0.26-0.518,0.671-0.932,0.869-1.482c0.038-0.271-0.01-0.565,0.046-0.837c0.325-1.594,0.365-1.934-0.263-3.06
		c-0.19-0.34-0.028-0.699-0.329-1.052c-0.069-0.218-0.46-0.104-0.616-0.353c-0.316,0.368-0.727,0.141-1.051,0.203
		c-0.72-0.636-1.22-1.384-1.736-2.127c-0.35-0.502-0.544-1.009-0.557-1.612c-0.006-0.301,0.146-0.654-0.193-0.889
		c-0.05-0.902-0.839-1.444-1.12-2.398c0-0.417,0-0.987,0-1.534c-1.18-1.007-1.182-0.838-2.084-0.446
		c-0.223,0.414-0.311,0.839-0.271,1.305c0.088,1.049-0.391,1.908-0.935,2.77c-0.193-0.095-0.386,0.05-0.604-0.171
		c-0.254-0.371-0.56-0.803-0.709-1.344c-0.132-0.477-0.346-0.936-0.562-1.385c-0.254-0.528-0.473-1.057-0.429-1.659
		c0.013-0.179,0.079-0.433-0.012-0.527c-0.391-0.41-0.217-0.899-0.178-1.325c0.047-0.518-0.301-0.918-0.254-1.426
		c0.056-0.604,0.014-1.218,0.014-1.79c0.25-0.297,0.41-0.59,0.452-1.002c-0.349-0.892-1.213-1.396-1.786-2.097
		c-0.98-0.251-1.926-0.494-2.849-0.73c-0.209,0.209-0.388,0.388-0.566,0.566c0.03,0.168-0.074,0.355,0.127,0.572
		c0.044,0.03,0.148,0.131,0.272,0.184c0.338,0.141,0.615,0.336,0.674,0.721c0.064,0.416,0.469,0.813,0.081,1.257
		c-0.164,0.188-0.053,0.41-0.075,0.616c-0.062,0.583,0.109,1.178-0.194,1.758c-0.102,0.194-0.125,0.552,0.062,0.816
		c0.259,0.368,0.112,0.684-0.069,1.052c-0.204,0.413-0.544,0.788-0.46,1.247c-0.28,0.28-0.509,0.509-0.741,0.741
		c-0.212,0-0.427,0-0.751,0c-0.151-0.188-0.352-0.438-0.532-0.661c-0.347,0-0.63,0-0.897,0c-0.322-0.322-0.627-0.627-0.933-0.933
		c-0.082-0.398,0.048-0.814-0.215-1.212c-0.132-0.2,0.016-0.567-0.033-0.847c-0.061-0.344,0.294-0.542,0.233-0.885
		c-0.106-0.598,0.151-1.153,0.321-1.7c0.094-0.3,0.153-0.496-0.066-0.754c-0.093-0.109-0.055-0.33-0.071-0.454
		c-0.479-0.638-1.102-1.03-1.814-1.167c-0.507-0.097-0.909-0.277-1.254-0.634c-0.299-0.309-0.595-0.622-0.878-0.917
		c-0.812,0.074-1.304,0.445-1.443,1.19c0.216,0.686,0.436,1.313,0.874,1.849c0.655,0.802,0.886,1.75,0.867,2.77
		c-0.004,0.217,0.149,0.408,0.171,0.568c0.066,0.476,0.419,0.905,0.259,1.411c-0.098,0.309,0.293,0.473,0.208,0.771
		c-0.145,0.094-0.204,0.301-0.513,0.32c-0.629-0.7-1.189-1.559-1.987-2.15c-0.592,0-1.163,0-1.578,0
		c-0.361,0.313-0.63,0.546-0.867,0.751c-0.048,0.579-0.027,1.096,0.387,1.467c0,0.338,0,0.653,0,1.002c-0.562,0-1.093,0-1.37,0
		c-0.378,0.262-0.585,0.405-0.774,0.536c0.1,0.738-0.18,1.464,0.211,2.053c-0.301,0.668-0.337,1.471-1.129,1.771
		c-0.614-0.592-0.742-1.618-1.822-1.776c-0.399,0.334-0.938,0.205-1.455,0.229c-0.521,0.023-0.984-0.382-1.549-0.179
		c-0.077,0.077-0.179,0.179-0.283,0.283c0,0.357,0,0.716,0,1.039c0.214,0.343,0.336,0.716,0.663,0.916
		c-0.019,0.397,0.011,0.761-0.061,1.104c-0.157,0.752-0.504,1.448-0.711,2.192c-0.12,0.431,0.068,0.904-0.148,1.223
		c-0.216,0.318-0.21,0.62-0.158,0.902c0.068,0.364-0.284,0.562-0.237,0.886c0.024,0.167,0.014,0.323,0.099,0.5
		c0.267,0.563,0.318,1.173,0.356,1.803c0.058,0.964-0.393,1.868-0.219,2.844c0.263,0.248,0.303,0.646,0.513,0.95
		c1.023,0.207,1.631,0.933,2.111,1.732c0.282,0,0.497,0,0.741,0c0.589-0.723,0.793-1.568,0.713-2.474
		c0.123-0.123,0.225-0.224,0.328-0.328c0.357,0,0.717,0,1.064,0c0.369-0.292,0.613-0.659,0.776-1.085
		c-0.26-0.33-0.296-0.684-0.14-1.062c0.186,0,0.362-0.068,0.598,0.097c0.262,0.96,1.276,1.119,2.068,1.612
		c1.121-0.093,2.25,0.442,3.457,0.17c0.221-0.259,0.647-0.248,0.893-0.511c0.533-0.497-0.074-1.398,0.758-1.854
		c0.508,0.567,0.588,1.401,1.101,1.973c0.22,0.245,0.096,0.529,0.096,0.803c-0.426,0.077-0.625,0.438-0.914,0.684
		c-0.509,0.432-1.112,0.624-1.767,0.68c-0.348-0.352-0.915-0.237-1.268-0.602c-0.075-0.077-0.269-0.039-0.292-0.042
		c-0.295,0.213-0.524,0.378-0.703,0.507c0,0.265-0.012,0.446,0.001,0.625c0.067,0.912-0.082,1.78-0.414,2.636
		c-0.097,0.249-0.185,0.519-0.408,0.531c-0.419,0.022-0.757,0.421-1.232,0.237c-0.186-0.141-0.345-0.334-0.517-0.516
		c-0.197-0.209-0.394-0.422-0.611-0.609c-0.571-0.493-1.158-0.522-1.762-0.083c-0.172,0.125-0.312,0.296-0.456,0.436
		c0,0.235,0,0.45,0,0.61c0.555,0.938,0.968,1.855,0.869,2.939c-0.04,0.428-0.009,0.863-0.004,1.295c0,0.064,0.034,0.129,0.052,0.193
		c0.204,0.19,0.412,0.378,0.43,0.541c0.979,0.786,2.066,0.871,3.186,0.812c-0.007,0.911-0.039,1.69-0.381,2.51
		c-0.301,0.719-0.69,1.515-0.509,2.193c-0.393,0.995-0.735,1.826-1.042,2.671c-0.057,0.156-0.086,0.31-0.171,0.471
		c-0.489,0.912-1.368,1.612-1.482,2.737c-0.016,0.159-0.081,0.402-0.285,0.527c-0.197,0.121-0.18,0.349-0.251,0.542
		C21.358,57.437,21.026,58.456,20.438,59.432z M46.219,69.213c-1.164-0.231-2.082,0.685-3.236,0.626
		c-0.216,0.521-0.806,0.4-1.192,0.649c-0.271-0.148-0.535-0.293-0.833-0.457c-0.321,0.026-0.717-0.036-1.009,0.109
		c-0.308,0.153-0.641,0.201-0.948,0.316c-0.345,0.131-0.777,0.03-1.164,0.03c-0.287-0.286-0.566-0.565-0.846-0.846
		c-0.709-0.124-1.303,0.076-1.73,0.621c-0.327,0-0.612,0-0.814,0c-0.453-0.235-0.838-0.437-1.178-0.613c-0.541,0-1.037,0-1.493,0
		c-0.293,0.215-0.386,0.456-0.333,0.607c0.252,0.308,0.411,0.5,0.578,0.704c0.601-0.235,1.083,0.234,1.656,0.186
		c0.606-0.051,1.221-0.012,1.832-0.012c0.97,0,1.94,0,2.91,0c0.216,0,0.472-0.076,0.641,0.013c1.014,0.535,1.921-0.031,2.877-0.214
		c0.266,0.309,0.602,0.228,0.944,0.127c0.587-0.172,1.161-0.404,1.793-0.36c0.175,0.013,0.389,0.049,0.522-0.03
		c0.421-0.25,0.906-0.334,1.349-0.367c0.54-0.04,0.895-0.44,1.431-0.506c0.503-0.062,1.037-0.36,1.358-0.862
		c0.066-0.104,0.053-0.194,0.046-0.296c-0.141-0.156-0.426-0.067-0.501-0.257C47.835,68.082,47.056,68.59,46.219,69.213z
		 M57.52,63.915c0.409,0.152,0.754,0.08,1.081,0.08c0.165-0.263,0.427-0.379,0.532-0.682c0.095-0.274,0.328-0.545,0.672-0.6
		c0.546-0.087,0.838-0.457,1.03-0.922c0.179-0.43,0.467-0.765,0.805-1.068c0.361-0.325,0.66-0.703,1.123-0.933
		c0.442-0.219,0.574-0.765,0.906-1.129c0.622-0.685,1.171-1.441,1.699-2.202c0.651-0.937,1.028-2.037,1.71-2.966
		c0.1-0.137,0.322-0.35,0.253-0.649c-0.093-0.401,0.166-0.714,0.421-1.091c-0.071-0.257,0.107-0.612-0.078-0.906
		c-0.327-0.067-0.403,0.19-0.57,0.307c0,0.288,0,0.575,0,0.873c-0.997,0.87-1.679,1.979-2.287,3.142
		c-0.303,0.58-0.659,1.12-1.137,1.581c-0.249,0.24-0.516,0.46-0.689,0.789c-0.565,1.068-1.247,2.051-2.128,2.9
		c-0.688,0.662-1.537,1.137-2.132,1.897C57.939,62.559,57.911,63.331,57.52,63.915z M55.134,65.717
		c-0.265,0.098-0.549-0.086-0.816,0.146c-0.219,0.188-0.533,0.264-0.806,0.389c0.14,0.294-0.455,0.419-0.146,0.762
		c0.297,0,0.609,0,0.906,0c0.325-0.345,0.706-0.611,0.836-0.992c0.3-0.158,0.552-0.291,0.767-0.404
		c0.006-0.281-0.116-0.319-0.273-0.313c-0.03,0.012-0.068,0.018-0.091,0.039C55.381,65.467,55.255,65.596,55.134,65.717z
		 M68.185,50.184c0.519-0.475,0.648-0.737,0.652-1.169c0.003-0.352-0.216-0.472-0.502-0.581c-0.471,0.338-0.434,0.887-0.605,1.305
		C67.842,49.976,67.959,50.139,68.185,50.184z M52.001,67.267c-0.05,0.305,0.006,0.439,0.32,0.404
		c0.012-0.141,0.288-0.146,0.259-0.404C52.384,67.267,52.219,67.267,52.001,67.267z"/>
	<path fill="currentColor" d="M20.438,59.432c0.589-0.976,0.92-1.995,1.288-2.993
		c0.071-0.193,0.054-0.421,0.251-0.542c0.204-0.125,0.269-0.368,0.285-0.527c0.114-1.125,0.993-1.825,1.482-2.737
		c0.085-0.161,0.114-0.314,0.171-0.471c0.307-0.845,0.648-1.676,1.042-2.671c-0.182-0.679,0.208-1.475,0.509-2.193
		c0.342-0.819,0.374-1.599,0.381-2.51c-1.12,0.06-2.208-0.025-3.186-0.812c-0.018-0.163-0.226-0.351-0.43-0.541
		c-0.018-0.064-0.051-0.129-0.052-0.193c-0.005-0.432-0.036-0.867,0.004-1.295c0.1-1.084-0.313-2.002-0.869-2.939
		c0-0.16,0-0.375,0-0.61c0.144-0.14,0.283-0.311,0.456-0.436c0.604-0.439,1.191-0.41,1.762,0.083c0.217,0.188,0.414,0.4,0.611,0.609
		c0.171,0.182,0.331,0.375,0.517,0.516c0.476,0.184,0.813-0.215,1.232-0.237c0.224-0.013,0.312-0.282,0.408-0.531
		c0.332-0.856,0.481-1.725,0.414-2.636c-0.013-0.179-0.001-0.36-0.001-0.625c0.179-0.129,0.408-0.293,0.703-0.507
		c0.024,0.002,0.218-0.036,0.292,0.042c0.353,0.364,0.92,0.25,1.268,0.602c0.654-0.056,1.258-0.248,1.767-0.68
		c0.289-0.246,0.488-0.607,0.914-0.684c0-0.273,0.124-0.558-0.096-0.803c-0.513-0.571-0.593-1.405-1.101-1.973
		c-0.832,0.457-0.225,1.358-0.758,1.854c-0.246,0.263-0.672,0.251-0.893,0.511c-1.207,0.272-2.336-0.263-3.457-0.17
		c-0.792-0.493-1.806-0.651-2.068-1.612c-0.235-0.166-0.412-0.097-0.598-0.097c-0.156,0.378-0.12,0.732,0.14,1.062
		c-0.163,0.426-0.407,0.793-0.776,1.085c-0.348,0-0.707,0-1.064,0c-0.104,0.104-0.206,0.206-0.328,0.328
		c0.08,0.906-0.125,1.751-0.713,2.474c-0.244,0-0.459,0-0.741,0c-0.479-0.8-1.088-1.526-2.111-1.732
		c-0.21-0.304-0.25-0.703-0.513-0.95c-0.174-0.976,0.277-1.88,0.219-2.844c-0.038-0.629-0.089-1.239-0.356-1.803
		c-0.084-0.177-0.074-0.333-0.099-0.5c-0.047-0.325,0.305-0.522,0.237-0.886c-0.053-0.282-0.058-0.583,0.158-0.902
		c0.216-0.319,0.028-0.792,0.148-1.223c0.207-0.744,0.554-1.439,0.711-2.192c0.072-0.343,0.042-0.708,0.061-1.104
		c-0.327-0.199-0.449-0.572-0.663-0.916c0-0.322,0-0.681,0-1.039c0.104-0.104,0.206-0.206,0.283-0.283
		c0.565-0.204,1.028,0.202,1.549,0.179c0.518-0.023,1.056,0.105,1.455-0.229c1.08,0.158,1.208,1.184,1.822,1.776
		c0.792-0.299,0.829-1.103,1.129-1.771c-0.391-0.589-0.111-1.315-0.211-2.053c0.189-0.131,0.396-0.274,0.774-0.536
		c0.277,0,0.808,0,1.37,0c0-0.349,0-0.664,0-1.002c-0.414-0.371-0.435-0.888-0.387-1.467c0.237-0.206,0.506-0.438,0.867-0.751
		c0.415,0,0.986,0,1.578,0c0.798,0.591,1.358,1.451,1.987,2.15c0.31-0.019,0.369-0.226,0.513-0.32
		c0.086-0.298-0.305-0.462-0.208-0.771c0.16-0.506-0.193-0.935-0.259-1.411c-0.022-0.16-0.176-0.352-0.171-0.568
		c0.019-1.02-0.212-1.968-0.867-2.77c-0.438-0.537-0.657-1.164-0.874-1.849c0.139-0.745,0.631-1.116,1.443-1.19
		c0.283,0.296,0.579,0.608,0.878,0.917c0.345,0.357,0.747,0.538,1.254,0.634c0.712,0.136,1.335,0.529,1.814,1.167
		c0.016,0.124-0.022,0.345,0.071,0.454c0.219,0.258,0.16,0.454,0.066,0.754c-0.17,0.547-0.427,1.103-0.321,1.7
		c0.061,0.344-0.294,0.541-0.233,0.885c0.049,0.279-0.1,0.646,0.033,0.847c0.264,0.398,0.134,0.814,0.216,1.212
		c0.306,0.305,0.611,0.61,0.933,0.933c0.267,0,0.55,0,0.897,0c0.18,0.224,0.381,0.473,0.532,0.661c0.324,0,0.539,0,0.751,0
		c0.232-0.232,0.461-0.461,0.741-0.741c-0.084-0.459,0.257-0.834,0.46-1.247c0.181-0.368,0.328-0.685,0.069-1.052
		c-0.186-0.264-0.163-0.623-0.062-0.816c0.304-0.58,0.133-1.175,0.194-1.758c0.022-0.206-0.089-0.428,0.075-0.616
		c0.388-0.444-0.017-0.841-0.081-1.257c-0.059-0.385-0.336-0.58-0.674-0.721c-0.124-0.052-0.228-0.153-0.272-0.184
		c-0.201-0.217-0.097-0.403-0.127-0.572c0.178-0.178,0.356-0.356,0.566-0.566c0.923,0.237,1.869,0.479,2.849,0.73
		c0.573,0.702,1.438,1.205,1.786,2.097c-0.042,0.413-0.202,0.706-0.452,1.002c0,0.572,0.042,1.186-0.014,1.79
		c-0.047,0.508,0.301,0.908,0.254,1.426c-0.039,0.425-0.213,0.915,0.178,1.325c0.091,0.094,0.024,0.348,0.012,0.527
		c-0.044,0.603,0.175,1.131,0.429,1.659c0.216,0.449,0.43,0.908,0.562,1.385c0.149,0.541,0.455,0.974,0.709,1.344
		c0.218,0.222,0.41,0.077,0.604,0.171c0.544-0.862,1.022-1.721,0.935-2.77c-0.039-0.465,0.049-0.891,0.271-1.305
		c0.902-0.392,0.904-0.561,2.084,0.446c0,0.547,0,1.116,0,1.534c0.281,0.954,1.07,1.496,1.12,2.398
		c0.339,0.235,0.188,0.587,0.193,0.889c0.013,0.604,0.207,1.11,0.557,1.612c0.517,0.743,1.017,1.491,1.736,2.127
		c0.324-0.063,0.734,0.165,1.051-0.203c0.156,0.25,0.547,0.135,0.616,0.353c0.301,0.353,0.139,0.712,0.329,1.052
		c0.628,1.126,0.588,1.466,0.263,3.06c-0.056,0.272-0.008,0.566-0.046,0.837c-0.198,0.55-0.609,0.964-0.869,1.482
		c-0.327,0.65-1.063,0.934-1.743,1.199c-0.467,0.181-0.924,0.387-1.534,0.646c-0.106,0-0.395,0-0.683,0
		c-0.647,0-1.296-0.005-1.943,0.001c-0.592,0.006-1.118-0.465-1.675-0.171c-0.166-0.166-0.268-0.267-0.37-0.369
		c0.001-0.52-0.029-1.036,0.205-1.534c0.128-0.272,0.203-0.568,0.403-0.804c0.45-0.531,0.898-1.064,1.318-1.561
		c0.042-0.574,0.416-1.044,0.125-1.641c-0.268-0.549-0.03-1.322-0.753-1.732c-0.572,0.245-0.395,0.904-0.737,1.305
		c-0.392,0-0.816,0-1.309,0c-0.687,0.837-1.714,1.412-2.104,2.549c-0.915,0.483-1.856,0.361-2.807,0.032
		c-0.506,0.383-0.681,0.867-0.594,1.435c0.229,0.424,0.614,0.317,0.933,0.331c0.612,0.431,0.759,1.134,1.105,1.745
		c0.803-0.093,1.529-0.665,2.406-0.403c0.369,0.819,0.999,1.544,1.169,2.506c0.163,0.927,0.75,1.758,0.636,2.672
		c0.285,0.313,0.526,0.577,0.787,0.864c0.505-0.178,0.691-0.604,0.704-1.033c0.013-0.438,0.132-0.803,0.341-1.165
		c0.432,0,0.863,0,1.297,0c0.698,0.601,0.949,1.39,0.983,2.287c0.018,0.441-0.169,0.927,0.209,1.314
		c0.056,0.889-0.102,1.751-0.731,2.387c-0.527,0.532-0.896,1.198-1.559,1.63c-0.615,0.401-0.643,1.152-0.469,1.803
		c0.215,0.803,0.445,1.595,0.372,2.429c-0.033,0.373,0.063,0.761,0.249,0.972c0.557,0.634,0.666,1.346,0.619,2.059
		c0.315,0.805,0.813,1.435,0.92,2.293c0.077,0.628,0.482,1.237,0.826,1.804c0.492,0.812,0.816,1.685,1.054,2.587
		c0.112,0.428,0.282,0.823,0.416,1.231c0.166,0.509,0.347,1.05,0.26,1.63c-0.05,0.33-0.11,0.711,0.216,0.999
		c-0.139,0.262-0.174,0.58-0.504,0.865c-0.671,0.003-1.16,0.576-1.829,0.922c-0.374,0-0.806,0-1.241,0
		c-0.353,0.357-0.705,0.716-1.066,1.082c-0.286,0-0.576,0.031-0.856-0.007c-0.44-0.06-0.849,0.063-1.166,0.311
		c-0.428,0.332-0.893,0.298-1.37,0.369c-0.328,0.049-0.563-0.252-0.929-0.078c-0.294,0.14-0.793-0.085-1.032,0.087
		c-0.299,0.215-0.73,0.032-0.925,0.397c-0.811-0.096-1.566,0.443-2.431,0.154c-0.179-0.226-0.655-0.158-0.742-0.575
		c-0.921-0.077-1.758,0.254-2.643,0.235c-0.991-0.021-1.902-0.182-2.769-0.723c-1.294,0.671-2.602-0.053-3.99,0.052
		c-0.168-0.209-0.368-0.459-0.525-0.654c-1.048,0.017-1.625-0.691-2.311-1.168c-0.485-0.336-0.907-0.763-1.372-1.131
		c-0.154-0.122-0.356-0.209-0.53-0.278c-1.319-0.519-1.324-0.506-2.044-1.226C20.404,61.285,20.521,60.338,20.438,59.432z
		 M31.329,18.038c-0.289,0-0.604,0-0.891,0c-0.542,0.926-0.573,1.289-0.35,2.161c0.143,0.56,0.234,1.138,0.286,1.713
		c0.047,0.533,0.01,1.073,0.01,1.476c0.377,0.883,0.775,1.612,1.117,2.374c0.333,0.743,0.772,1.463,1.173,2.185
		c0.939,0.036,0.887-1.03,1.57-1.317c0.45,0,0.951,0,1.414,0c0.647-0.461,0.77-1.223,1.041-1.632
		c0.938-0.981,1.853-0.119,2.757-0.342c0-0.352,0.092-0.737-0.02-1.049c-0.255-0.719-0.318-1.458-0.457-2.192
		c-0.116-0.612-0.29-1.355-1.045-1.706c-0.198,0.122-0.539,0.208-0.618,0.4c-0.346,0.84-1.149,0.926-1.833,1.098
		c-0.491,0.124-0.913,0.26-1.258,0.62c-0.27,0.281-0.594,0.451-0.99,0.514c-0.235-0.12-0.468-0.238-0.683-0.347
		c-0.041-0.853-0.481-1.45-1.081-1.922C31.34,19.387,32.08,18.72,31.329,18.038z M34.754,44.721
		c-0.295,0.304-0.591,0.607-0.843,0.866c-0.492,0.309-0.844-0.352-1.354-0.083c-0.406,0.597-0.761,1.282-0.643,2.048
		c0.14,0.907,0.136,1.839,0.39,2.555c0.254,0.332,0.423,0.555,0.616,0.807c0.581-0.369,1.178-0.295,1.766-0.298
		c0.215-0.001,0.431-0.015,0.645,0.003c0.52,0.043,0.941-0.145,1.231-0.452c0.362-0.935-0.347-1.639-0.336-2.452
		c0.011-0.835-0.488-1.563-0.447-2.398C35.503,45.122,35.376,44.694,34.754,44.721z M26.103,25.23
		c-0.087,0.786,0.156,1.521,0.469,2.241c0.222-0.068,0.316,0.211,0.501,0.196c0.607-0.275,0.8-0.877,1.149-1.378
		c0.021-0.487,0.093-0.996,0.167-1.504c0.073-0.502,0.44-0.972,0.233-1.524c-0.142-0.118-0.241-0.341-0.505-0.294
		c-0.384,0.067-0.774,0.214-0.949,0.542C26.849,24.106,26.291,24.548,26.103,25.23z M34.7,35.809
		c0.393-0.263,0.519-0.866,0.906-1.058c0.677-0.334,0.939-0.979,1.408-1.46c0.117-0.12,0.096-0.249-0.056-0.407
		c-0.297,0.096-0.61,0.192-0.85,0.45c-1.479,0.003-1.686,0.11-1.858,1.063c-0.248,0.209-0.572,0.482-0.835,0.704
		c0,0.603,0,1.101,0,1.593c0.335,0.265,0.335,0.265,0.831,0.247C34.502,36.626,34.747,36.301,34.7,35.809z M22.122,30.779
		c0-0.728,0-1.424,0-2.131c-0.233-0.108-0.246-0.412-0.323-0.6c-0.117-0.281-0.322-0.443-0.486-0.657
		c-0.008-0.548,0.093-1.117-0.3-1.592c-0.419,0.22-0.559,0.652-0.78,1.023c0,0.608,0.038,1.219-0.015,1.822
		c-0.03,0.344,0.092,0.648,0.25,0.864C20.871,30.062,21.342,30.583,22.122,30.779z"/>
	<path style="fill-rule:evenodd;clip-rule:evenodd;fill:none;" d="M31.329,18.038c0.751,0.682,0.011,1.35,0.143,2.033
		c0.6,0.473,1.04,1.069,1.081,1.922c0.215,0.109,0.448,0.228,0.683,0.347c0.396-0.063,0.72-0.232,0.99-0.514
		c0.345-0.36,0.768-0.496,1.258-0.62c0.683-0.172,1.486-0.258,1.833-1.098c0.079-0.193,0.42-0.278,0.618-0.4
		c0.755,0.351,0.929,1.094,1.045,1.706c0.139,0.734,0.202,1.474,0.457,2.192c0.111,0.313,0.02,0.697,0.02,1.049
		c-0.904,0.223-1.818-0.639-2.757,0.342c-0.271,0.409-0.394,1.171-1.041,1.632c-0.463,0-0.964,0-1.414,0
		c-0.684,0.287-0.631,1.353-1.57,1.317c-0.401-0.722-0.84-1.442-1.173-2.185c-0.342-0.762-0.74-1.491-1.117-2.374
		c0-0.403,0.037-0.943-0.01-1.476c-0.051-0.576-0.143-1.154-0.286-1.713c-0.223-0.872-0.192-1.235,0.35-2.161
		C30.725,18.038,31.04,18.038,31.329,18.038z"/>
	<path style="fill-rule:evenodd;clip-rule:evenodd;fill:none;" d="M34.754,44.721c0.622-0.026,0.75,0.401,1.023,0.595
		c-0.041,0.835,0.458,1.563,0.447,2.398c-0.011,0.813,0.698,1.518,0.336,2.452c-0.29,0.308-0.711,0.495-1.231,0.452
		c-0.213-0.018-0.43-0.004-0.645-0.003c-0.587,0.003-1.185-0.071-1.766,0.298c-0.192-0.252-0.362-0.475-0.616-0.807
		c-0.254-0.716-0.25-1.647-0.39-2.555c-0.118-0.766,0.236-1.451,0.643-2.048c0.51-0.269,0.862,0.392,1.354,0.083
		C34.163,45.328,34.458,45.024,34.754,44.721z"/>
	<path style="fill-rule:evenodd;clip-rule:evenodd;fill:none;" d="M26.103,25.23c0.188-0.682,0.746-1.124,1.066-1.722
		c0.175-0.328,0.564-0.474,0.949-0.542c0.265-0.046,0.363,0.176,0.505,0.294c0.207,0.552-0.16,1.022-0.233,1.524
		c-0.074,0.509-0.146,1.017-0.167,1.504c-0.349,0.501-0.542,1.103-1.149,1.378c-0.185,0.015-0.279-0.264-0.501-0.196
		C26.258,26.751,26.016,26.016,26.103,25.23z"/>
	<path style="fill-rule:evenodd;clip-rule:evenodd;fill:none;" d="M34.7,35.809c0.047,0.492-0.198,0.817-0.454,1.131
		c-0.496,0.018-0.496,0.018-0.831-0.247c0-0.492,0-0.99,0-1.593c0.263-0.222,0.587-0.495,0.835-0.704
		c0.172-0.953,0.378-1.059,1.858-1.063c0.24-0.258,0.553-0.354,0.85-0.45c0.151,0.158,0.173,0.287,0.056,0.407
		c-0.469,0.481-0.731,1.126-1.408,1.46C35.219,34.943,35.092,35.545,34.7,35.809z"/>
	<path style="fill-rule:evenodd;clip-rule:evenodd;fill:none;" d="M22.122,30.779c-0.78-0.196-1.25-0.717-1.655-1.27
		c-0.158-0.216-0.279-0.52-0.25-0.864c0.053-0.604,0.015-1.214,0.015-1.822c0.221-0.371,0.361-0.803,0.78-1.023
		c0.394,0.475,0.292,1.044,0.301,1.592c0.165,0.214,0.37,0.375,0.486,0.657c0.078,0.188,0.09,0.491,0.323,0.6
		C22.122,29.354,22.122,30.051,22.122,30.779z"/>
</g>
</svg>
