<?xml version="1.0" encoding="iso-8859-1"?>
<!-- Generator: Adobe Illustrator 16.0.0, SVG Export Plug-In . SVG Version: 6.00 Build 0)  -->
<!DOCTYPE svg PUBLIC "-//W3C//DTD SVG 1.1//EN" "http://www.w3.org/Graphics/SVG/1.1/DTD/svg11.dtd">
<svg version="1.1" id="Layer_1" xmlns="http://www.w3.org/2000/svg" xmlns:xlink="http://www.w3.org/1999/xlink" x="0px" y="0px"
	 width="72.36px" height="72.18px" viewBox="0 0 72.36 72.18" style="enable-background:new 0 0 72.36 72.18;" xml:space="preserve"
	>
<g>
	<path style="fill-rule:evenodd;clip-rule:evenodd;fill:none;" d="M79.416,79.631c-28.8,0-57.6,0-86.399,0
		c0-28.871,0-57.743,0-86.615c28.8,0,57.6,0,86.399,0C79.416,21.888,79.416,50.76,79.416,79.631z M23.895,62.763
		c0.66-0.044,1.917,0.351,2.144,0.548c0.501,0.438,1.084,0.563,1.718,0.552c0.49-0.01,0.947,0.003,1.375,0.343
		c0.313,0.249,0.723,0.35,1.164,0.317c0.571-0.042,1.187-0.13,1.711,0.033c0.661,0.206,1.339,0.214,1.999,0.374
		c0.427,0.104,0.891-0.063,1.325,0.208c0.147,0.091,0.443,0.038,0.699-0.085c0.522-0.25,1.091-0.4,1.7-0.333
		c0.392,0.043,0.792,0.008,1.12,0.008c0.438-0.231,0.822-0.436,1.225-0.648c0.446,0,0.936,0.088,1.377-0.02
		c0.757-0.183,1.522-0.329,2.273-0.511c0.993-0.24,2.007-0.337,3.03-0.609c0.436-0.407,0.818-0.885,0.662-1.6
		c-0.104-0.094-0.194-0.223-0.316-0.279c-0.876-0.406-1.852-0.352-2.705-0.17c-1.036,0.22-1.915,0.113-2.89-0.222
		c-0.687-0.235-1.382-0.563-2.181-0.495c-1.012,0.086-1.922-0.317-2.852-0.848c-1.541,0.164-2.424-1.002-3.402-1.955
		c-0.565,0.055-1.029-0.049-1.492-0.383c-0.479-0.346-1.038-0.599-1.545-0.72c-0.327-0.658-0.663-1.212-1.287-1.461
		c-0.291-0.116-0.399-0.27-0.542-0.53c-0.274-0.498-0.547-1.003-1.165-1.255c-0.307-0.125-0.544-0.516-0.779-0.832
		c-0.504-0.68-0.882-1.495-1.735-1.868c-0.177-0.078-0.298-0.284-0.417-0.403c0.014-0.206,0.024-0.343,0.035-0.496
		c0.876-0.132,1.65,0.142,2.426,0.4c0.108-0.079,0.217-0.158,0.423-0.309c0.077,0.554,0.527,0.169,0.833,0.438
		c0.519,0.924,1.088,1.912,2.579,2.247c0.471,0,1.228,0.024,1.982-0.008c0.635-0.026,1.27,0.119,1.818,0.316
		c1.056,0.378,2.306-0.13,3.039-1.011c0.027-0.523,0.531-0.55,0.798-0.77c0.542,0.282,1.091,0.439,1.692,0.393
		c0.502-0.039,0.971,0.029,1.311,0.397c0.34,0,0.654,0,1.015,0c0.761-1.17,1.806-2.088,2.774-3.077
		c0.025-0.75,0.025-0.75,0.306-1.167c0.85-0.242,1.623,0.375,2.435,0.161c0.212,0.334,0.505,0.522,0.784,0.575
		c0.665,0.125,1.307,0.383,1.954,0.479c0.78,0.114,1.539,0.31,2.305,0.433c1.281,0.206,2.589-0.002,3.868-0.255
		c0.058-0.011,0.103-0.085,0.131-0.11c0.978,0.596,2.042,0.347,3.029,0.411c0.348-0.348,0.653-0.652,0.965-0.964
		c0.029-0.725,0.141-1.473-0.451-1.999c-0.862-0.327-1.73,0.661-2.51-0.105c-0.256-0.646,0.271-1.175,0.166-1.782
		c-0.606-0.563-0.935-1.393-1.705-1.873c-0.517,0.189-1.028-0.078-1.458-0.285c-0.415-0.201-0.64-0.042-1.017,0.13
		c-0.15-0.387-0.501-0.229-0.806-0.257c-0.869-0.081-1.761,0.186-2.616-0.201c-0.155-0.069-0.392,0.002-0.604,0.068
		c-0.616,0.193-1.235,0.384-1.909,0.361c-1.019-0.033-2.008-0.331-3.042-0.242c-0.822,0.07-1.659-0.039-2.48,0.033
		c-0.518,0.047-0.919-0.293-1.426-0.259c-0.226,0.015-0.471-0.227-0.703-0.358c-0.526-0.297-1.05-0.598-1.605-0.914
		c-0.607,0-1.255,0-1.902,0c-0.346-0.122-0.577-0.469-1.01-0.441c-0.516,0.033-1.031,0.043-1.538-0.188
		c-0.238-0.109-0.643-0.131-0.84,0.003c-0.507,0.343-1.103-0.006-1.528,0.226c-0.532,0.29-1.041,0.085-1.573,0.211
		c-0.621,0.609-1.425,1.057-1.975,1.729c-0.6-0.181-0.837-0.311-1.152-0.583c-0.548-0.22-0.977,0.121-1.384,0.094
		c-1.107-0.076-2.162,0.337-3.258,0.25c-0.098,0.231-0.374,0.158-0.521,0.305c0.025,0.287-0.361,0.473-0.225,0.765
		c0.232,0.496,0.188,1.086,0.446,1.54c0.357,0.63,0.705,1.367,1.661,1.282c0.287-0.025,0.437,0.183,0.472,0.402
		c-0.327,0.323-0.629,0.622-0.87,0.859c0.038,0.649-0.104,1.186,0.265,1.609c-0.152,0.152-0.253,0.254-0.324,0.324
		c-1.256,0.177-2.512-0.203-3.72,0.249c-0.095,0.035-0.245,0.048-0.317-0.003c-0.515-0.364-1.094-0.16-1.643-0.206
		c-0.308-0.025-0.601-0.122-0.89-0.182c-0.796-0.166-1.447-0.806-2.315-0.685c-0.192-0.261-0.607-0.203-0.753-0.538
		c0.002-0.233-0.071-0.481,0.092-0.799c0.071-0.058,0.209-0.171,0.283-0.231c0-0.385,0-0.697,0-1.008
		c-0.435-0.267-0.812-0.583-1.246-0.747c-0.816-0.308-1.254-0.948-1.636-1.636c-0.936-0.416-1.894-0.142-2.646-0.216
		c-0.326,0.236-0.529,0.384-0.589,0.428c-0.298,1.106,0.104,2.014,0.156,2.959c0.355,0.326,0.771,0.658,0.806,1.165
		c0.045,0.655,0.371,1.148,0.719,1.651c0.269,0.388,0.508,0.805,0.577,1.269c0.038,0.256,0.18,0.51,0.288,0.629
		c0.835,0.93,1.362,2.075,2.239,2.986c0.574,0.597,1.163,1.24,1.493,2.065c0.345,0.862,1.012,1.375,1.907,1.333
		c0.494,0.298,0.423,0.854,0.864,1.228c0.834,0.148,1.296,0.957,1.991,1.56c0.589-0.08,1.002,0.306,1.359,0.737
		c0.415,0.5,0.979,0.886,1.543,0.946C22.628,61.756,23.117,62.387,23.895,62.763z M24.007,23.688c0.188-0.187,0.47-0.339,0.52-0.547
		c0.066-0.279,0.206-0.545,0.351-0.714c0.598-0.692,1.253-1.33,1.826-2.054c0.907-1.147,2.165-1.942,3.179-2.989
		c0.101-0.104,0.243-0.127,0.351-0.19c0.353-0.207,0.818-0.411,0.966-0.739c0.287-0.638,0.8-0.909,1.406-1.251
		c0.282,0.5,0.742,0.202,1.113,0.279c0.801-0.694,1.344-1.759,2.474-1.53c0.928-0.343,1.572-1.017,2.495-0.834
		c0.558-0.566,1.161-0.564,1.849-0.139c0.176-0.316,0.561-0.233,0.751-0.517c0.657-0.036,1.334,0.104,1.959-0.222
		c1.048,0.092,2.119-0.204,3.153,0.206c0.187,0.074,0.477,0.092,0.635-0.004c0.672-0.408,1.382-0.089,2.042-0.167
		c0.491,0.127,0.743,0.532,1.104,0.852c0.212-0.102,0.477,0.082,0.698-0.107c0-0.313,0-0.626,0-0.909
		c-0.816-0.953-1.258-1.311-2.277-1.576c-0.373-0.097-0.692-0.223-1.021-0.416c-0.777-0.457-1.583-0.868-2.448-1.336
		c-0.781,0.157-1.396-0.259-1.878-0.85c-0.683-0.059-1.303-0.006-1.914,0.25c-0.263-0.262-0.509-0.508-0.777-0.775
		c-0.613,0.393-1.25,0.279-1.784,0.295c-0.46-0.24-0.846-0.441-1.24-0.647c-0.421,0-0.853-0.002-1.284,0
		c-0.311,0.002-0.599,0.004-0.891,0.202c-0.371,0.25-0.807,0.434-1.215,0.013c-0.402,0.158-0.726-0.449-1.074-0.174
		c-0.308,0.244-0.606,0.163-0.907,0.165c-0.468,0.003-0.895,0.068-1.23,0.426c-0.613,0.104-1.272-0.173-1.848,0.231
		c-1.297,0.083-2.446,0.72-3.693,0.984c-0.692,0.146-1.265,0.735-1.938,0.534c-0.358,0.18-0.794,0.246-0.825,0.545
		c-0.049,0.475-0.541,0.239-0.657,0.528c-0.404-0.08-0.719,0.167-1.045,0.285c-0.281,0.796-1.002,0.994-1.663,1.21
		c-0.409,0.134-0.741,0.323-1.044,0.614c-0.558,0.534-1.061,1.12-1.726,1.551c-0.327,0.212-0.697,0.484-0.817,0.943
		c-0.038,0.143-0.211,0.29-0.358,0.357c-0.639,0.295-1.106,0.828-1.468,1.356c-0.593,0.868-1.417,1.485-2.096,2.251
		c-0.077,0.087-0.244,0.095-0.322,0.124c-0.205,0.435-0.408,0.818-0.57,1.219c-0.229,0.569-0.401,1.155-0.91,1.574
		c-0.163,0.134-0.295,0.41-0.292,0.619c0.006,0.487-0.186,0.86-0.479,1.213c-0.307,0.367-0.277,0.882-0.598,1.269
		c-0.438,0.527-0.761,1.133-0.672,1.877c0.081,0.673-0.188,1.285-0.5,1.839c-0.419,0.745-0.623,1.507-0.581,2.355
		c0.025,0.518,0.081,1.05-0.256,1.49c0.199,0.408,0.374,0.767,0.535,1.098c0.851,0.482,1.75,0.619,2.685,0.481
		c0.108-0.118,0.203-0.221,0.302-0.329c-0.158-0.275-0.188-0.598-0.452-0.822c0-0.271,0-0.557,0-0.843c0-0.316,0-0.633,0-0.927
		c-0.175-0.156-0.31-0.274-0.428-0.379c0-0.24,0-0.455,0-0.666c0.106-0.106,0.208-0.208,0.31-0.31
		c1.28-0.051,1.318-0.095,2.206,0.634c0.845,0.029,1.683,0.042,2.35-0.644c0.699,0,1.427,0.074,2.133-0.021
		c0.692-0.094,1.424-0.114,2.053-0.502c-0.114-0.288,0.347-0.372,0.232-0.66c-0.606-0.694-1.389-0.993-2.291-0.972
		c-0.913,0.021-1.74-0.279-2.532-0.667c-0.394-0.193-0.692-0.576-1.081-0.787c-0.214-0.117-0.425-0.208-0.533-0.347
		c0-0.37,0-0.683,0-1.001c0.591-0.337,1.216-0.567,1.568-1.091c0.287,0,0.578,0.09,0.706-0.016c0.561-0.467,1.046-0.025,1.524,0.113
		c0.246,0.071,0.422,0.146,0.671,0.041c0.469-0.195,0.936-0.372,1.473-0.372c0.509,0,0.994-0.24,1.53-0.214
		c0.51,0.024,1.035,0.119,1.542-0.179c0.191-0.112,0.51-0.044,0.78,0.167c0.281,0.22,0.678,0.299,1.08,0.251
		C23.297,23.654,23.66,23.688,24.007,23.688z M40.664,31.934c-0.877-1.165-2.164-1.183-3.425-1.109
		c-0.302,0.16-0.567,0.302-0.872,0.464c-0.681-0.52-1.361-1.04-2.03-1.55c-0.676-0.021-1.323-0.072-1.984-0.181
		c-0.911-0.15-1.871-0.099-2.8-0.021c-0.966,0.081-1.873-0.361-2.827-0.229c-0.891,0.124-1.723-0.355-2.611-0.225
		c-0.056,0.008-0.127-0.04-0.182-0.076c-0.327-0.216-0.599-0.128-0.965,0.004c-0.664,0.241-1.225,0.565-1.657,1.056
		c0,0.458-0.026,0.856,0.006,1.249c0.045,0.539-0.136,1.021-0.371,1.468c-0.384,0.731-0.412,1.425,0.006,2.084
		c0.541,0.195,1.022,0.421,1.554,0.549c0.489,0.117,1.03,0.197,1.506,0.535c0.518,0.368,0.982,0.341,1.729,0.028
		c0.744-0.313,1.269-0.146,1.861,0.342c0.668,0.551,1.498,0.776,2.38,0.759c0.612-0.012,1.224-0.005,1.835-0.002
		c0.31,0.003,0.594,0.1,0.892,0.182c0.713,0.195,1.391,0.572,2.19,0.498c0.233-0.021,0.61,0.103,0.84,0.27
		c0.787,0.574,1.666,0.614,2.579,0.565c0.359-0.02,0.721-0.015,1.08-0.001c0.598,0.024,1.142-0.099,1.667-0.412
		c0.94-0.562,1.964-0.814,3.069-0.674c0.209,0.026,0.424,0.004,0.528,0.004c0.677-0.564,1.431-0.671,2.14-0.851
		c0.519-0.131,0.966-0.255,1.157-0.837c0.118-0.36,0.37-0.661,0.683-0.896c0.045,0.045,0.093,0.137,0.147,0.141
		c0.922,0.068,1.815,0.283,2.714,0.484c0.213,0.048,0.459,0.007,0.712-0.08c0.681-0.234,1.427-0.55,2.118-0.306
		c0.672,0.237,1.318,0.163,1.974,0.175c1.475,0.028,2.95,0.009,4.229,0.009c0.607-0.198,0.966-0.45,1.229-0.938
		c-0.159-0.301-0.266-0.645-0.525-0.941c-0.238-0.271-0.649-0.272-0.837-0.603c-0.179-0.316-0.357-0.642-0.771-0.726
		c-0.593-0.105-1.248,0.133-1.828-0.248c-0.757,0.123-1.562-0.255-2.286,0.216c-0.55-0.079-1.102,0.098-1.668-0.146
		c-0.364-0.156-0.911-0.204-1.251-0.04c-0.736,0.354-1.471,0.167-2.193,0.164c-0.894-0.005-1.671,0.128-2.232,0.829
		c-0.695,0.441-1.439,0.227-2.119,0.279c-0.907-0.695-1.822-1.264-2.928-1.721C41.583,31.449,41.583,31.449,40.664,31.934z
		 M30.503,22.403c-0.725-0.06-1.446,0.014-2.182-0.193c-0.6-0.169-1.286-0.034-1.934-0.034c-0.28,0.28-0.585,0.54-0.831,0.847
		c-0.163,0.203-0.212,0.493-0.364,0.708c-0.195,0.275-0.347,0.645-0.788,0.603c-0.167-0.016-0.259,0.079-0.358,0.183
		c-0.406,0.423-0.816,0.812-1.027,1.411c-0.294,0.831-0.04,1.714,0.789,1.826c0.479,0.064,0.914,0.28,1.417,0.271
		c1.977-0.037,3.954-0.015,5.886-0.015c0.468-0.298,0.896-0.572,1.354-0.864c1.473,0,2.983,0,4.494,0
		c0.216,0,0.522,0.091,0.631-0.017c0.349-0.345,0.745-0.177,1.115-0.188c0.366-0.011,0.774-0.139,1.091,0.188
		c0.314-0.367,0.795-0.28,1.093-0.167c0.661,0.249,1.317,0.139,1.974,0.187c0.515,0.037,1.031-0.094,1.544,0.19
		c0.247,0.137,0.721,0.148,0.939-0.003c0.412-0.285,0.82-0.177,1.225-0.181c1.836-0.02,3.671-0.015,5.507-0.003
		c0.304,0.002,0.569-0.015,0.745-0.314c0-0.374,0-0.759,0-1.125c-0.442-0.355-0.509-1.043-1.186-1.125
		c-0.293-0.034-0.622,0.006-0.938-0.044c-0.344-0.055-0.544,0.252-0.884,0.241c-1.078-0.038-2.161,0.025-3.238-0.029
		c-0.61-0.031-1.218-0.206-1.515-0.835c0.031-0.163-0.051-0.32,0.123-0.446c0.222,0,0.471,0.002,0.72,0
		c0.822-0.011,1.61-0.573,1.914-1.338c0.098-0.245,0.144-0.558,0.028-0.712c-0.37-0.492-0.432-1.151-0.939-1.616
		c-0.415,0-0.873,0-1.495,0c-0.16-0.16-0.383-0.384-0.654-0.657c-0.311,0.03-0.661,0.243-1.039,0.376
		c-0.412,0.145-0.849,0.022-1.271,0.067c-0.089,0.009-0.163,0.119-0.253,0.165c-0.617,0.319-1.363,0.091-1.97,0.459
		c-0.18-0.33-0.57-0.253-0.822-0.313c-0.801-0.191-1.641-0.226-2.465-0.317c-0.067-0.007-0.172-0.013-0.201,0.024
		c-0.249,0.323-0.595,0.171-0.897,0.183c-0.57,0.023-1.143,0.007-1.719,0.007c-0.349,0.588-1,0.795-1.429,1.258
		c-0.458,0.495-0.867,1.008-0.375,1.726c0.064,0.094,0.009,0.27,0.009,0.44c-0.355,0-0.669,0-1.004,0
		C31.064,22.964,30.784,22.684,30.503,22.403z M7.616,41.191c0.518-0.069,1.093,0.146,1.606-0.217c0.072-0.051,0.249-0.053,0.312,0
		c0.471,0.398,1.079,0.303,1.51,0.153c0.45-0.155,1.011-0.178,1.323-0.611c0.539,0,1.036,0,1.533,0
		c1.223-0.383,1.039-1.658,1.654-2.462c-0.775-0.523-1.568-0.698-2.396-0.453c-0.197,0.058-0.39,0.095-0.589,0.127
		c-0.908,0.146-1.59-0.508-2.409-0.678c-0.341-0.45-0.87-0.481-1.355-0.623c-1.299-0.379-1.492-0.318-2.18,0.76
		c0,0.32,0,0.643,0,0.966c0,0.322,0,0.645,0,0.968c0.001,0.344,0.32,0.614,0.218,0.986c-0.094,0.345,0.256,0.54,0.295,0.841
		c0.077,0.007,0.158-0.008,0.213,0.022C7.44,41.023,7.513,41.104,7.616,41.191z M35.148,69.391c0.441,0.311,0.869,0.424,1.02,0.219
		c0.102-0.139,0.135-0.393-0.059-0.563C35.771,69.063,35.394,68.941,35.148,69.391z M62.525,56.573
		c-0.365,0.361-0.908,0.58-1.077,1.154c0.129,0.036,0.252,0.113,0.313,0.079C62.233,57.546,62.328,57.032,62.525,56.573z
		 M63.888,54.665c0.508-0.237,0.651-0.525,0.572-0.983C63.928,53.964,63.928,53.964,63.888,54.665z M66.78,49.192
		c0.14-0.196,0.202-0.334-0.032-0.423C66.63,48.896,66.638,49.015,66.78,49.192z"/>
	<path style="fill-rule:evenodd;clip-rule:evenodd;" d="M23.895,62.763c-0.778-0.376-1.267-1.007-2.149-1.102
		c-0.564-0.061-1.128-0.446-1.543-0.946c-0.357-0.432-0.77-0.817-1.359-0.737c-0.695-0.603-1.157-1.411-1.991-1.56
		c-0.441-0.373-0.37-0.93-0.864-1.228c-0.895,0.042-1.562-0.471-1.907-1.333c-0.33-0.825-0.919-1.469-1.493-2.065
		c-0.876-0.911-1.404-2.057-2.239-2.986c-0.107-0.119-0.25-0.373-0.288-0.629c-0.069-0.464-0.308-0.881-0.577-1.269
		c-0.348-0.503-0.674-0.996-0.719-1.651c-0.035-0.507-0.451-0.839-0.806-1.165c-0.053-0.945-0.454-1.853-0.156-2.959
		c0.061-0.044,0.264-0.191,0.589-0.428c0.751,0.074,1.71-0.2,2.646,0.216c0.382,0.688,0.82,1.328,1.636,1.636
		c0.434,0.164,0.811,0.48,1.246,0.747c0,0.311,0,0.623,0,1.008c-0.074,0.061-0.212,0.174-0.283,0.231
		c-0.163,0.317-0.09,0.565-0.092,0.799c0.146,0.335,0.562,0.277,0.753,0.538c0.868-0.121,1.519,0.519,2.315,0.685
		c0.289,0.06,0.582,0.156,0.89,0.182c0.549,0.046,1.128-0.158,1.643,0.206c0.072,0.051,0.222,0.038,0.317,0.003
		c1.208-0.452,2.464-0.072,3.72-0.249c0.07-0.07,0.172-0.172,0.324-0.324c-0.37-0.424-0.228-0.96-0.265-1.609
		c0.241-0.237,0.543-0.536,0.87-0.859c-0.036-0.22-0.186-0.428-0.472-0.402c-0.957,0.085-1.304-0.652-1.661-1.282
		c-0.257-0.454-0.214-1.044-0.446-1.54c-0.136-0.292,0.25-0.478,0.225-0.765c0.147-0.146,0.423-0.073,0.521-0.306
		c1.096,0.088,2.151-0.325,3.258-0.249c0.407,0.027,0.836-0.313,1.384-0.094c0.315,0.272,0.553,0.402,1.152,0.583
		c0.55-0.672,1.354-1.119,1.975-1.729c0.532-0.126,1.042,0.079,1.573-0.211c0.425-0.231,1.021,0.117,1.528-0.226
		c0.197-0.134,0.602-0.112,0.84-0.003c0.507,0.23,1.021,0.221,1.538,0.188c0.433-0.027,0.664,0.319,1.01,0.441
		c0.647,0,1.295,0,1.902,0c0.556,0.316,1.079,0.617,1.605,0.914c0.232,0.132,0.478,0.373,0.703,0.358
		c0.507-0.034,0.908,0.306,1.426,0.259c0.821-0.072,1.658,0.037,2.48-0.033c1.034-0.089,2.023,0.209,3.042,0.242
		c0.674,0.022,1.293-0.168,1.909-0.361c0.213-0.066,0.449-0.138,0.604-0.068c0.855,0.387,1.747,0.12,2.616,0.201
		c0.305,0.028,0.655-0.13,0.806,0.257c0.377-0.172,0.602-0.331,1.017-0.13c0.43,0.207,0.941,0.475,1.458,0.285
		c0.771,0.48,1.099,1.31,1.705,1.873c0.104,0.607-0.422,1.136-0.166,1.782c0.779,0.767,1.647-0.222,2.51,0.105
		c0.592,0.526,0.48,1.274,0.451,1.999c-0.312,0.312-0.617,0.616-0.965,0.964c-0.987-0.064-2.052,0.185-3.029-0.411
		c-0.028,0.025-0.073,0.1-0.131,0.11c-1.279,0.253-2.587,0.461-3.868,0.255c-0.766-0.123-1.524-0.318-2.305-0.433
		c-0.647-0.096-1.289-0.354-1.954-0.479c-0.279-0.053-0.572-0.241-0.784-0.575c-0.812,0.214-1.585-0.403-2.435-0.161
		c-0.28,0.417-0.28,0.417-0.306,1.167c-0.969,0.989-2.014,1.907-2.774,3.077c-0.36,0-0.675,0-1.015,0
		c-0.34-0.368-0.809-0.437-1.311-0.397c-0.602,0.047-1.15-0.11-1.692-0.393c-0.267,0.22-0.771,0.246-0.798,0.77
		c-0.733,0.881-1.983,1.389-3.039,1.011c-0.549-0.197-1.184-0.343-1.818-0.316c-0.754,0.032-1.511,0.008-1.982,0.008
		c-1.491-0.335-2.06-1.323-2.579-2.247c-0.305-0.269-0.755,0.116-0.833-0.438c-0.206,0.15-0.314,0.229-0.423,0.309
		c-0.776-0.259-1.55-0.532-2.426-0.4c-0.011,0.153-0.021,0.29-0.035,0.496c0.119,0.119,0.24,0.325,0.417,0.403
		c0.853,0.373,1.231,1.188,1.735,1.868c0.235,0.316,0.473,0.707,0.779,0.832c0.617,0.252,0.891,0.757,1.165,1.255
		c0.143,0.261,0.252,0.414,0.542,0.53c0.624,0.249,0.96,0.803,1.287,1.461c0.507,0.121,1.065,0.374,1.545,0.72
		c0.463,0.334,0.927,0.438,1.492,0.383c0.978,0.953,1.861,2.119,3.402,1.955c0.93,0.53,1.84,0.934,2.852,0.848
		c0.799-0.068,1.494,0.26,2.181,0.495c0.975,0.335,1.854,0.441,2.89,0.222c0.854-0.182,1.829-0.236,2.705,0.17
		c0.122,0.057,0.212,0.186,0.316,0.279c0.156,0.715-0.227,1.192-0.662,1.6c-1.023,0.272-2.037,0.369-3.03,0.609
		c-0.751,0.182-1.517,0.328-2.273,0.511c-0.441,0.107-0.931,0.02-1.377,0.02c-0.402,0.213-0.787,0.417-1.225,0.648
		c-0.328,0-0.729,0.035-1.12-0.008c-0.608-0.067-1.178,0.083-1.7,0.333c-0.256,0.123-0.552,0.176-0.699,0.085
		c-0.434-0.271-0.897-0.104-1.325-0.208c-0.659-0.16-1.337-0.168-1.999-0.374c-0.525-0.163-1.141-0.075-1.711-0.033
		c-0.441,0.032-0.851-0.068-1.164-0.317c-0.428-0.34-0.885-0.353-1.375-0.343c-0.634,0.012-1.217-0.114-1.718-0.552
		C25.812,63.113,24.555,62.719,23.895,62.763z M36.628,50.167c-0.18-0.2-0.361-0.4-0.504-0.56c-0.723,0-1.367,0.007-2.011-0.004
		c-0.258-0.004-0.339,0.198-0.463,0.323c0.174,0.187,0.344,0.369,0.474,0.509c0.791,0,1.533,0,2.236,0
		C36.473,50.322,36.549,50.247,36.628,50.167z"/>
	<path style="fill-rule:evenodd;clip-rule:evenodd;" d="M24.007,23.688c-0.347,0-0.71-0.033-1.064,0.009
		c-0.402,0.048-0.799-0.032-1.08-0.251c-0.271-0.211-0.589-0.279-0.78-0.167c-0.507,0.297-1.032,0.203-1.542,0.179
		c-0.537-0.026-1.021,0.215-1.53,0.214c-0.537,0-1.003,0.176-1.473,0.372c-0.25,0.104-0.425,0.03-0.671-0.041
		c-0.478-0.138-0.963-0.581-1.524-0.113c-0.128,0.106-0.419,0.016-0.706,0.016c-0.352,0.524-0.978,0.754-1.568,1.091
		c0,0.318,0,0.631,0,1.001c0.108,0.138,0.318,0.23,0.533,0.347c0.388,0.211,0.687,0.594,1.081,0.787
		c0.792,0.388,1.619,0.688,2.532,0.667c0.902-0.021,1.685,0.278,2.291,0.972c0.115,0.288-0.346,0.372-0.232,0.659
		c-0.628,0.389-1.36,0.409-2.053,0.503c-0.706,0.095-1.434,0.021-2.133,0.021c-0.667,0.687-1.505,0.673-2.35,0.644
		c-0.888-0.729-0.926-0.685-2.206-0.634c-0.102,0.102-0.204,0.204-0.31,0.31c0,0.21,0,0.425,0,0.666
		c0.118,0.105,0.252,0.224,0.428,0.379c0,0.294,0,0.611,0,0.927c0,0.286,0,0.571,0,0.843c0.264,0.225,0.294,0.547,0.452,0.822
		c-0.099,0.108-0.194,0.211-0.302,0.329c-0.935,0.138-1.834,0.001-2.685-0.481c-0.162-0.332-0.336-0.69-0.535-1.098
		c0.337-0.44,0.282-0.973,0.256-1.49c-0.042-0.849,0.162-1.61,0.581-2.355c0.312-0.554,0.581-1.167,0.5-1.839
		c-0.089-0.744,0.234-1.35,0.672-1.877c0.321-0.387,0.292-0.901,0.598-1.269c0.294-0.353,0.486-0.726,0.479-1.213
		c-0.003-0.209,0.129-0.485,0.292-0.619c0.509-0.419,0.681-1.005,0.91-1.574c0.162-0.4,0.365-0.784,0.57-1.219
		c0.079-0.028,0.245-0.036,0.322-0.124c0.679-0.767,1.503-1.383,2.096-2.251c0.362-0.529,0.829-1.062,1.468-1.356
		c0.147-0.067,0.321-0.214,0.358-0.357c0.12-0.459,0.49-0.731,0.817-0.943c0.666-0.431,1.168-1.017,1.726-1.551
		c0.303-0.291,0.635-0.479,1.044-0.614c0.661-0.216,1.381-0.414,1.663-1.21c0.326-0.119,0.641-0.365,1.045-0.285
		c0.116-0.289,0.608-0.053,0.657-0.528c0.031-0.3,0.466-0.366,0.825-0.545c0.672,0.201,1.246-0.388,1.938-0.534
		c1.247-0.265,2.396-0.901,3.693-0.984c0.575-0.405,1.235-0.127,1.848-0.231c0.335-0.358,0.762-0.423,1.23-0.426
		c0.301-0.002,0.599,0.079,0.907-0.165c0.348-0.275,0.672,0.332,1.074,0.174c0.408,0.42,0.845,0.237,1.215-0.013
		c0.292-0.198,0.581-0.2,0.891-0.202c0.432-0.002,0.863,0,1.284,0c0.395,0.207,0.78,0.408,1.24,0.647
		c0.534-0.017,1.171,0.098,1.784-0.295c0.269,0.268,0.515,0.514,0.777,0.775c0.611-0.257,1.231-0.309,1.914-0.25
		c0.481,0.591,1.097,1.007,1.878,0.85c0.865,0.468,1.671,0.879,2.448,1.336c0.328,0.193,0.647,0.318,1.021,0.416
		c1.02,0.265,1.461,0.624,2.277,1.576c0,0.283,0,0.596,0,0.91c-0.222,0.188-0.486,0.004-0.698,0.106
		c-0.361-0.319-0.613-0.724-1.104-0.852c-0.66,0.077-1.37-0.242-2.042,0.167c-0.158,0.096-0.448,0.078-0.635,0.004
		c-1.034-0.409-2.105-0.113-3.153-0.206c-0.625,0.325-1.302,0.186-1.959,0.222c-0.19,0.283-0.575,0.201-0.751,0.517
		c-0.688-0.426-1.291-0.427-1.849,0.139c-0.923-0.183-1.566,0.491-2.495,0.834c-1.13-0.229-1.673,0.836-2.474,1.53
		c-0.371-0.077-0.831,0.221-1.113-0.279C32,15.544,31.487,15.815,31.2,16.454c-0.148,0.329-0.613,0.532-0.966,0.739
		c-0.108,0.063-0.25,0.086-0.351,0.19c-1.014,1.046-2.272,1.842-3.179,2.989c-0.573,0.725-1.228,1.362-1.826,2.054
		c-0.146,0.169-0.285,0.435-0.351,0.714C24.477,23.349,24.195,23.501,24.007,23.688z"/>
	<path style="fill-rule:evenodd;clip-rule:evenodd;" d="M40.664,31.934c0.92-0.484,0.92-0.484,2.465-0.458
		c1.105,0.458,2.021,1.026,2.928,1.721c0.68-0.052,1.424,0.163,2.119-0.279c0.562-0.701,1.339-0.833,2.232-0.829
		c0.723,0.003,1.457,0.19,2.193-0.164c0.34-0.164,0.887-0.116,1.251,0.04c0.566,0.243,1.118,0.067,1.668,0.146
		c0.725-0.471,1.529-0.093,2.286-0.216c0.58,0.38,1.235,0.143,1.828,0.248c0.414,0.084,0.593,0.41,0.771,0.726
		c0.188,0.331,0.599,0.331,0.837,0.603c0.26,0.296,0.366,0.641,0.525,0.941c-0.264,0.488-0.622,0.741-1.229,0.938
		c-1.279,0-2.755,0.02-4.229-0.009c-0.655-0.013-1.302,0.062-1.974-0.175c-0.691-0.244-1.438,0.071-2.118,0.306
		c-0.253,0.087-0.499,0.128-0.712,0.08c-0.898-0.202-1.792-0.416-2.714-0.484c-0.055-0.004-0.103-0.096-0.147-0.141
		c-0.313,0.234-0.564,0.535-0.683,0.896c-0.191,0.583-0.639,0.706-1.157,0.837c-0.709,0.18-1.463,0.287-2.14,0.851
		c-0.104,0-0.319,0.022-0.528-0.004c-1.105-0.141-2.129,0.112-3.069,0.674c-0.525,0.313-1.069,0.437-1.667,0.412
		c-0.359-0.014-0.721-0.019-1.08,0.001c-0.913,0.049-1.792,0.009-2.579-0.565c-0.229-0.167-0.606-0.291-0.84-0.27
		c-0.799,0.074-1.477-0.303-2.19-0.498c-0.298-0.082-0.583-0.179-0.892-0.182c-0.612-0.003-1.224-0.01-1.835,0.002
		c-0.882,0.017-1.711-0.208-2.38-0.759c-0.592-0.488-1.117-0.655-1.861-0.342c-0.747,0.313-1.211,0.34-1.729-0.028
		c-0.476-0.337-1.018-0.417-1.506-0.535c-0.532-0.128-1.014-0.354-1.554-0.549c-0.418-0.659-0.39-1.353-0.006-2.084
		c0.235-0.448,0.416-0.93,0.371-1.468c-0.033-0.393-0.006-0.792-0.006-1.249c0.433-0.49,0.993-0.814,1.657-1.056
		c0.366-0.133,0.638-0.221,0.965-0.004c0.055,0.036,0.125,0.084,0.182,0.076c0.888-0.13,1.721,0.349,2.611,0.225
		c0.954-0.132,1.861,0.31,2.827,0.229c0.929-0.078,1.889-0.13,2.8,0.021c0.661,0.109,1.308,0.161,1.984,0.181
		c0.668,0.51,1.349,1.03,2.03,1.55c0.304-0.162,0.57-0.304,0.872-0.464C38.5,30.751,39.787,30.769,40.664,31.934z"/>
	<path style="fill-rule:evenodd;clip-rule:evenodd;" d="M30.503,22.403c0.281,0.281,0.561,0.561,0.82,0.821c0.335,0,0.649,0,1.004,0
		c0-0.17,0.055-0.346-0.009-0.44c-0.492-0.718-0.083-1.231,0.375-1.726c0.429-0.463,1.081-0.67,1.429-1.258
		c0.576,0,1.148,0.016,1.719-0.007c0.302-0.012,0.648,0.14,0.897-0.183c0.029-0.038,0.134-0.032,0.201-0.024
		c0.825,0.091,1.665,0.125,2.465,0.317c0.252,0.06,0.643-0.017,0.822,0.313c0.606-0.368,1.353-0.14,1.97-0.459
		c0.09-0.046,0.164-0.156,0.253-0.165c0.422-0.045,0.858,0.077,1.271-0.067c0.378-0.133,0.729-0.346,1.039-0.376
		c0.271,0.273,0.494,0.497,0.654,0.657c0.622,0,1.08,0,1.495,0c0.508,0.465,0.569,1.125,0.939,1.616
		c0.115,0.154,0.069,0.467-0.028,0.712c-0.304,0.765-1.092,1.327-1.914,1.338c-0.249,0.003-0.498,0-0.72,0
		c-0.174,0.126-0.092,0.283-0.123,0.446c0.297,0.629,0.904,0.804,1.515,0.835c1.077,0.054,2.16-0.009,3.238,0.029
		c0.34,0.012,0.54-0.296,0.884-0.241c0.315,0.05,0.645,0.011,0.938,0.044c0.677,0.082,0.743,0.771,1.186,1.125
		c0,0.366,0,0.751,0,1.125c-0.176,0.299-0.441,0.316-0.745,0.314c-1.836-0.012-3.671-0.017-5.507,0.003
		c-0.404,0.004-0.813-0.104-1.225,0.181c-0.219,0.151-0.692,0.14-0.939,0.003c-0.513-0.285-1.029-0.153-1.544-0.19
		c-0.656-0.048-1.313,0.063-1.974-0.187c-0.298-0.113-0.778-0.199-1.093,0.167c-0.316-0.326-0.725-0.199-1.091-0.188
		c-0.37,0.011-0.767-0.157-1.115,0.188c-0.109,0.108-0.415,0.017-0.631,0.017c-1.51,0-3.021,0-4.494,0
		c-0.458,0.292-0.887,0.566-1.354,0.864c-1.932,0-3.91-0.022-5.886,0.015c-0.503,0.009-0.938-0.206-1.417-0.271
		c-0.829-0.112-1.083-0.995-0.789-1.826c0.211-0.599,0.621-0.988,1.027-1.411c0.099-0.104,0.191-0.198,0.358-0.183
		c0.441,0.042,0.593-0.328,0.788-0.603c0.152-0.214,0.202-0.505,0.364-0.708c0.246-0.307,0.551-0.567,0.831-0.847
		c0.648,0,1.333-0.135,1.934,0.034C29.058,22.417,29.778,22.343,30.503,22.403z"/>
	<path style="fill-rule:evenodd;clip-rule:evenodd;" d="M7.616,41.191c-0.103-0.088-0.176-0.168-0.266-0.22
		c-0.055-0.03-0.136-0.016-0.213-0.022c-0.04-0.301-0.39-0.496-0.295-0.841c0.103-0.372-0.217-0.643-0.218-0.986
		c-0.001-0.323,0-0.646,0-0.968c0-0.323,0-0.646,0-0.966c0.688-1.079,0.881-1.14,2.18-0.76c0.485,0.142,1.015,0.173,1.355,0.623
		c0.818,0.17,1.501,0.823,2.409,0.678c0.2-0.032,0.392-0.069,0.589-0.127c0.828-0.245,1.62-0.07,2.396,0.453
		c-0.615,0.804-0.431,2.079-1.654,2.462c-0.497,0-0.994,0-1.533,0c-0.312,0.434-0.873,0.456-1.323,0.611
		c-0.431,0.149-1.039,0.245-1.51-0.153c-0.063-0.053-0.24-0.051-0.312,0C8.709,41.337,8.134,41.122,7.616,41.191z"/>
	<path style="fill-rule:evenodd;clip-rule:evenodd;fill:none;" d="M36.628,50.167c-0.08,0.08-0.156,0.155-0.268,0.269
		c-0.704,0-1.446,0-2.236,0c-0.129-0.14-0.3-0.322-0.474-0.509c0.124-0.125,0.206-0.327,0.463-0.323
		c0.644,0.011,1.288,0.004,2.011,0.004C36.268,49.767,36.448,49.967,36.628,50.167z"/>
</g>
</svg>
