<?xml version="1.0" encoding="iso-8859-1"?>
<!-- Generator: Adobe Illustrator 16.0.0, SVG Export Plug-In . SVG Version: 6.00 Build 0)  -->
<!DOCTYPE svg PUBLIC "-//W3C//DTD SVG 1.1//EN" "http://www.w3.org/Graphics/SVG/1.1/DTD/svg11.dtd">
<svg version="1.1" id="Layer_1" xmlns="http://www.w3.org/2000/svg" xmlns:xlink="http://www.w3.org/1999/xlink" x="0px" y="0px"
	 width="72.36px" height="72.18px" viewBox="0 0 72.36 72.18" style="enable-background:new 0 0 72.36 72.18;" xml:space="preserve"
	>
<g>
	
	<path fill="currentColor" d="M23.895,62.763c-0.778-0.376-1.267-1.007-2.149-1.102
		c-0.564-0.061-1.128-0.446-1.543-0.946c-0.357-0.432-0.77-0.817-1.359-0.737c-0.695-0.603-1.157-1.411-1.991-1.56
		c-0.441-0.373-0.37-0.93-0.864-1.228c-0.895,0.042-1.562-0.471-1.907-1.333c-0.33-0.825-0.919-1.469-1.493-2.065
		c-0.876-0.911-1.404-2.057-2.239-2.986c-0.107-0.119-0.25-0.373-0.288-0.629c-0.069-0.464-0.308-0.881-0.577-1.269
		c-0.348-0.503-0.674-0.996-0.719-1.651c-0.035-0.507-0.451-0.839-0.806-1.165c-0.053-0.945-0.454-1.853-0.156-2.959
		c0.061-0.044,0.264-0.191,0.589-0.428c0.751,0.074,1.71-0.2,2.646,0.216c0.382,0.688,0.82,1.328,1.636,1.636
		c0.434,0.164,0.811,0.48,1.246,0.747c0,0.311,0,0.623,0,1.008c-0.074,0.061-0.212,0.174-0.283,0.231
		c-0.163,0.317-0.09,0.565-0.092,0.799c0.146,0.335,0.562,0.277,0.753,0.538c0.868-0.121,1.519,0.519,2.315,0.685
		c0.289,0.06,0.582,0.156,0.89,0.182c0.549,0.046,1.128-0.158,1.643,0.206c0.072,0.051,0.222,0.038,0.317,0.003
		c1.208-0.452,2.464-0.072,3.72-0.249c0.07-0.07,0.172-0.172,0.324-0.324c-0.37-0.424-0.228-0.96-0.265-1.609
		c0.241-0.237,0.543-0.536,0.87-0.859c-0.036-0.22-0.186-0.428-0.472-0.402c-0.957,0.085-1.304-0.652-1.661-1.282
		c-0.257-0.454-0.214-1.044-0.446-1.54c-0.136-0.292,0.25-0.478,0.225-0.765c0.147-0.146,0.423-0.073,0.521-0.306
		c1.096,0.088,2.151-0.325,3.258-0.249c0.407,0.027,0.836-0.313,1.384-0.094c0.315,0.272,0.553,0.402,1.152,0.583
		c0.55-0.672,1.354-1.119,1.975-1.729c0.532-0.126,1.042,0.079,1.573-0.211c0.425-0.231,1.021,0.117,1.528-0.226
		c0.197-0.134,0.602-0.112,0.84-0.003c0.507,0.23,1.021,0.221,1.538,0.188c0.433-0.027,0.664,0.319,1.01,0.441
		c0.647,0,1.295,0,1.902,0c0.556,0.316,1.079,0.617,1.605,0.914c0.232,0.132,0.478,0.373,0.703,0.358
		c0.507-0.034,0.908,0.306,1.426,0.259c0.821-0.072,1.658,0.037,2.48-0.033c1.034-0.089,2.023,0.209,3.042,0.242
		c0.674,0.022,1.293-0.168,1.909-0.361c0.213-0.066,0.449-0.138,0.604-0.068c0.855,0.387,1.747,0.12,2.616,0.201
		c0.305,0.028,0.655-0.13,0.806,0.257c0.377-0.172,0.602-0.331,1.017-0.13c0.43,0.207,0.941,0.475,1.458,0.285
		c0.771,0.48,1.099,1.31,1.705,1.873c0.104,0.607-0.422,1.136-0.166,1.782c0.779,0.767,1.647-0.222,2.51,0.105
		c0.592,0.526,0.48,1.274,0.451,1.999c-0.312,0.312-0.617,0.616-0.965,0.964c-0.987-0.064-2.052,0.185-3.029-0.411
		c-0.028,0.025-0.073,0.1-0.131,0.11c-1.279,0.253-2.587,0.461-3.868,0.255c-0.766-0.123-1.524-0.318-2.305-0.433
		c-0.647-0.096-1.289-0.354-1.954-0.479c-0.279-0.053-0.572-0.241-0.784-0.575c-0.812,0.214-1.585-0.403-2.435-0.161
		c-0.28,0.417-0.28,0.417-0.306,1.167c-0.969,0.989-2.014,1.907-2.774,3.077c-0.36,0-0.675,0-1.015,0
		c-0.34-0.368-0.809-0.437-1.311-0.397c-0.602,0.047-1.15-0.11-1.692-0.393c-0.267,0.22-0.771,0.246-0.798,0.77
		c-0.733,0.881-1.983,1.389-3.039,1.011c-0.549-0.197-1.184-0.343-1.818-0.316c-0.754,0.032-1.511,0.008-1.982,0.008
		c-1.491-0.335-2.06-1.323-2.579-2.247c-0.305-0.269-0.755,0.116-0.833-0.438c-0.206,0.15-0.314,0.229-0.423,0.309
		c-0.776-0.259-1.55-0.532-2.426-0.4c-0.011,0.153-0.021,0.29-0.035,0.496c0.119,0.119,0.24,0.325,0.417,0.403
		c0.853,0.373,1.231,1.188,1.735,1.868c0.235,0.316,0.473,0.707,0.779,0.832c0.617,0.252,0.891,0.757,1.165,1.255
		c0.143,0.261,0.252,0.414,0.542,0.53c0.624,0.249,0.96,0.803,1.287,1.461c0.507,0.121,1.065,0.374,1.545,0.72
		c0.463,0.334,0.927,0.438,1.492,0.383c0.978,0.953,1.861,2.119,3.402,1.955c0.93,0.53,1.84,0.934,2.852,0.848
		c0.799-0.068,1.494,0.26,2.181,0.495c0.975,0.335,1.854,0.441,2.89,0.222c0.854-0.182,1.829-0.236,2.705,0.17
		c0.122,0.057,0.212,0.186,0.316,0.279c0.156,0.715-0.227,1.192-0.662,1.6c-1.023,0.272-2.037,0.369-3.03,0.609
		c-0.751,0.182-1.517,0.328-2.273,0.511c-0.441,0.107-0.931,0.02-1.377,0.02c-0.402,0.213-0.787,0.417-1.225,0.648
		c-0.328,0-0.729,0.035-1.12-0.008c-0.608-0.067-1.178,0.083-1.7,0.333c-0.256,0.123-0.552,0.176-0.699,0.085
		c-0.434-0.271-0.897-0.104-1.325-0.208c-0.659-0.16-1.337-0.168-1.999-0.374c-0.525-0.163-1.141-0.075-1.711-0.033
		c-0.441,0.032-0.851-0.068-1.164-0.317c-0.428-0.34-0.885-0.353-1.375-0.343c-0.634,0.012-1.217-0.114-1.718-0.552
		C25.812,63.113,24.555,62.719,23.895,62.763z M36.628,50.167c-0.18-0.2-0.361-0.4-0.504-0.56c-0.723,0-1.367,0.007-2.011-0.004
		c-0.258-0.004-0.339,0.198-0.463,0.323c0.174,0.187,0.344,0.369,0.474,0.509c0.791,0,1.533,0,2.236,0
		C36.473,50.322,36.549,50.247,36.628,50.167z"/>
	<path fill="currentColor" d="M24.007,23.688c-0.347,0-0.71-0.033-1.064,0.009
		c-0.402,0.048-0.799-0.032-1.08-0.251c-0.271-0.211-0.589-0.279-0.78-0.167c-0.507,0.297-1.032,0.203-1.542,0.179
		c-0.537-0.026-1.021,0.215-1.53,0.214c-0.537,0-1.003,0.176-1.473,0.372c-0.25,0.104-0.425,0.03-0.671-0.041
		c-0.478-0.138-0.963-0.581-1.524-0.113c-0.128,0.106-0.419,0.016-0.706,0.016c-0.352,0.524-0.978,0.754-1.568,1.091
		c0,0.318,0,0.631,0,1.001c0.108,0.138,0.318,0.23,0.533,0.347c0.388,0.211,0.687,0.594,1.081,0.787
		c0.792,0.388,1.619,0.688,2.532,0.667c0.902-0.021,1.685,0.278,2.291,0.972c0.115,0.288-0.346,0.372-0.232,0.659
		c-0.628,0.389-1.36,0.409-2.053,0.503c-0.706,0.095-1.434,0.021-2.133,0.021c-0.667,0.687-1.505,0.673-2.35,0.644
		c-0.888-0.729-0.926-0.685-2.206-0.634c-0.102,0.102-0.204,0.204-0.31,0.31c0,0.21,0,0.425,0,0.666
		c0.118,0.105,0.252,0.224,0.428,0.379c0,0.294,0,0.611,0,0.927c0,0.286,0,0.571,0,0.843c0.264,0.225,0.294,0.547,0.452,0.822
		c-0.099,0.108-0.194,0.211-0.302,0.329c-0.935,0.138-1.834,0.001-2.685-0.481c-0.162-0.332-0.336-0.69-0.535-1.098
		c0.337-0.44,0.282-0.973,0.256-1.49c-0.042-0.849,0.162-1.61,0.581-2.355c0.312-0.554,0.581-1.167,0.5-1.839
		c-0.089-0.744,0.234-1.35,0.672-1.877c0.321-0.387,0.292-0.901,0.598-1.269c0.294-0.353,0.486-0.726,0.479-1.213
		c-0.003-0.209,0.129-0.485,0.292-0.619c0.509-0.419,0.681-1.005,0.91-1.574c0.162-0.4,0.365-0.784,0.57-1.219
		c0.079-0.028,0.245-0.036,0.322-0.124c0.679-0.767,1.503-1.383,2.096-2.251c0.362-0.529,0.829-1.062,1.468-1.356
		c0.147-0.067,0.321-0.214,0.358-0.357c0.12-0.459,0.49-0.731,0.817-0.943c0.666-0.431,1.168-1.017,1.726-1.551
		c0.303-0.291,0.635-0.479,1.044-0.614c0.661-0.216,1.381-0.414,1.663-1.21c0.326-0.119,0.641-0.365,1.045-0.285
		c0.116-0.289,0.608-0.053,0.657-0.528c0.031-0.3,0.466-0.366,0.825-0.545c0.672,0.201,1.246-0.388,1.938-0.534
		c1.247-0.265,2.396-0.901,3.693-0.984c0.575-0.405,1.235-0.127,1.848-0.231c0.335-0.358,0.762-0.423,1.23-0.426
		c0.301-0.002,0.599,0.079,0.907-0.165c0.348-0.275,0.672,0.332,1.074,0.174c0.408,0.42,0.845,0.237,1.215-0.013
		c0.292-0.198,0.581-0.2,0.891-0.202c0.432-0.002,0.863,0,1.284,0c0.395,0.207,0.78,0.408,1.24,0.647
		c0.534-0.017,1.171,0.098,1.784-0.295c0.269,0.268,0.515,0.514,0.777,0.775c0.611-0.257,1.231-0.309,1.914-0.25
		c0.481,0.591,1.097,1.007,1.878,0.85c0.865,0.468,1.671,0.879,2.448,1.336c0.328,0.193,0.647,0.318,1.021,0.416
		c1.02,0.265,1.461,0.624,2.277,1.576c0,0.283,0,0.596,0,0.91c-0.222,0.188-0.486,0.004-0.698,0.106
		c-0.361-0.319-0.613-0.724-1.104-0.852c-0.66,0.077-1.37-0.242-2.042,0.167c-0.158,0.096-0.448,0.078-0.635,0.004
		c-1.034-0.409-2.105-0.113-3.153-0.206c-0.625,0.325-1.302,0.186-1.959,0.222c-0.19,0.283-0.575,0.201-0.751,0.517
		c-0.688-0.426-1.291-0.427-1.849,0.139c-0.923-0.183-1.566,0.491-2.495,0.834c-1.13-0.229-1.673,0.836-2.474,1.53
		c-0.371-0.077-0.831,0.221-1.113-0.279C32,15.544,31.487,15.815,31.2,16.454c-0.148,0.329-0.613,0.532-0.966,0.739
		c-0.108,0.063-0.25,0.086-0.351,0.19c-1.014,1.046-2.272,1.842-3.179,2.989c-0.573,0.725-1.228,1.362-1.826,2.054
		c-0.146,0.169-0.285,0.435-0.351,0.714C24.477,23.349,24.195,23.501,24.007,23.688z"/>
	<path fill="currentColor" d="M40.664,31.934c0.92-0.484,0.92-0.484,2.465-0.458
		c1.105,0.458,2.021,1.026,2.928,1.721c0.68-0.052,1.424,0.163,2.119-0.279c0.562-0.701,1.339-0.833,2.232-0.829
		c0.723,0.003,1.457,0.19,2.193-0.164c0.34-0.164,0.887-0.116,1.251,0.04c0.566,0.243,1.118,0.067,1.668,0.146
		c0.725-0.471,1.529-0.093,2.286-0.216c0.58,0.38,1.235,0.143,1.828,0.248c0.414,0.084,0.593,0.41,0.771,0.726
		c0.188,0.331,0.599,0.331,0.837,0.603c0.26,0.296,0.366,0.641,0.525,0.941c-0.264,0.488-0.622,0.741-1.229,0.938
		c-1.279,0-2.755,0.02-4.229-0.009c-0.655-0.013-1.302,0.062-1.974-0.175c-0.691-0.244-1.438,0.071-2.118,0.306
		c-0.253,0.087-0.499,0.128-0.712,0.08c-0.898-0.202-1.792-0.416-2.714-0.484c-0.055-0.004-0.103-0.096-0.147-0.141
		c-0.313,0.234-0.564,0.535-0.683,0.896c-0.191,0.583-0.639,0.706-1.157,0.837c-0.709,0.18-1.463,0.287-2.14,0.851
		c-0.104,0-0.319,0.022-0.528-0.004c-1.105-0.141-2.129,0.112-3.069,0.674c-0.525,0.313-1.069,0.437-1.667,0.412
		c-0.359-0.014-0.721-0.019-1.08,0.001c-0.913,0.049-1.792,0.009-2.579-0.565c-0.229-0.167-0.606-0.291-0.84-0.27
		c-0.799,0.074-1.477-0.303-2.19-0.498c-0.298-0.082-0.583-0.179-0.892-0.182c-0.612-0.003-1.224-0.01-1.835,0.002
		c-0.882,0.017-1.711-0.208-2.38-0.759c-0.592-0.488-1.117-0.655-1.861-0.342c-0.747,0.313-1.211,0.34-1.729-0.028
		c-0.476-0.337-1.018-0.417-1.506-0.535c-0.532-0.128-1.014-0.354-1.554-0.549c-0.418-0.659-0.39-1.353-0.006-2.084
		c0.235-0.448,0.416-0.93,0.371-1.468c-0.033-0.393-0.006-0.792-0.006-1.249c0.433-0.49,0.993-0.814,1.657-1.056
		c0.366-0.133,0.638-0.221,0.965-0.004c0.055,0.036,0.125,0.084,0.182,0.076c0.888-0.13,1.721,0.349,2.611,0.225
		c0.954-0.132,1.861,0.31,2.827,0.229c0.929-0.078,1.889-0.13,2.8,0.021c0.661,0.109,1.308,0.161,1.984,0.181
		c0.668,0.51,1.349,1.03,2.03,1.55c0.304-0.162,0.57-0.304,0.872-0.464C38.5,30.751,39.787,30.769,40.664,31.934z"/>
	<path fill="currentColor" d="M30.503,22.403c0.281,0.281,0.561,0.561,0.82,0.821c0.335,0,0.649,0,1.004,0
		c0-0.17,0.055-0.346-0.009-0.44c-0.492-0.718-0.083-1.231,0.375-1.726c0.429-0.463,1.081-0.67,1.429-1.258
		c0.576,0,1.148,0.016,1.719-0.007c0.302-0.012,0.648,0.14,0.897-0.183c0.029-0.038,0.134-0.032,0.201-0.024
		c0.825,0.091,1.665,0.125,2.465,0.317c0.252,0.06,0.643-0.017,0.822,0.313c0.606-0.368,1.353-0.14,1.97-0.459
		c0.09-0.046,0.164-0.156,0.253-0.165c0.422-0.045,0.858,0.077,1.271-0.067c0.378-0.133,0.729-0.346,1.039-0.376
		c0.271,0.273,0.494,0.497,0.654,0.657c0.622,0,1.08,0,1.495,0c0.508,0.465,0.569,1.125,0.939,1.616
		c0.115,0.154,0.069,0.467-0.028,0.712c-0.304,0.765-1.092,1.327-1.914,1.338c-0.249,0.003-0.498,0-0.72,0
		c-0.174,0.126-0.092,0.283-0.123,0.446c0.297,0.629,0.904,0.804,1.515,0.835c1.077,0.054,2.16-0.009,3.238,0.029
		c0.34,0.012,0.54-0.296,0.884-0.241c0.315,0.05,0.645,0.011,0.938,0.044c0.677,0.082,0.743,0.771,1.186,1.125
		c0,0.366,0,0.751,0,1.125c-0.176,0.299-0.441,0.316-0.745,0.314c-1.836-0.012-3.671-0.017-5.507,0.003
		c-0.404,0.004-0.813-0.104-1.225,0.181c-0.219,0.151-0.692,0.14-0.939,0.003c-0.513-0.285-1.029-0.153-1.544-0.19
		c-0.656-0.048-1.313,0.063-1.974-0.187c-0.298-0.113-0.778-0.199-1.093,0.167c-0.316-0.326-0.725-0.199-1.091-0.188
		c-0.37,0.011-0.767-0.157-1.115,0.188c-0.109,0.108-0.415,0.017-0.631,0.017c-1.51,0-3.021,0-4.494,0
		c-0.458,0.292-0.887,0.566-1.354,0.864c-1.932,0-3.91-0.022-5.886,0.015c-0.503,0.009-0.938-0.206-1.417-0.271
		c-0.829-0.112-1.083-0.995-0.789-1.826c0.211-0.599,0.621-0.988,1.027-1.411c0.099-0.104,0.191-0.198,0.358-0.183
		c0.441,0.042,0.593-0.328,0.788-0.603c0.152-0.214,0.202-0.505,0.364-0.708c0.246-0.307,0.551-0.567,0.831-0.847
		c0.648,0,1.333-0.135,1.934,0.034C29.058,22.417,29.778,22.343,30.503,22.403z"/>
	<path fill="currentColor" d="M7.616,41.191c-0.103-0.088-0.176-0.168-0.266-0.22
		c-0.055-0.03-0.136-0.016-0.213-0.022c-0.04-0.301-0.39-0.496-0.295-0.841c0.103-0.372-0.217-0.643-0.218-0.986
		c-0.001-0.323,0-0.646,0-0.968c0-0.323,0-0.646,0-0.966c0.688-1.079,0.881-1.14,2.18-0.76c0.485,0.142,1.015,0.173,1.355,0.623
		c0.818,0.17,1.501,0.823,2.409,0.678c0.2-0.032,0.392-0.069,0.589-0.127c0.828-0.245,1.62-0.07,2.396,0.453
		c-0.615,0.804-0.431,2.079-1.654,2.462c-0.497,0-0.994,0-1.533,0c-0.312,0.434-0.873,0.456-1.323,0.611
		c-0.431,0.149-1.039,0.245-1.51-0.153c-0.063-0.053-0.24-0.051-0.312,0C8.709,41.337,8.134,41.122,7.616,41.191z"/>
	
</g>
</svg>
