<svg xmlns="http://www.w3.org/2000/svg" xml:space="preserve" width="72px" height="72px" viewBox="0 0 72 72">
    <path fill="currentColor" d="M43.761 59.043c-.501.354-.777.926-1.373 1.174-.179.075-.311.454-.32.699-.014.325-.087.606-.3.866-.44.345-.999.571-1.51.904-.57.372-1.29.521-1.953.74-.581.191-1.168.443-1.77.016-.096-.068-.282.001-.424-.014-.313-.03-.625.053-.944-.064-.626-.229-1.308-.317-1.856-.783h-1.509c-.662-.648-1.257-1.343-1.48-2.344l-1.445-1.445v-.653c-.822-.753-1.466-1.61-2.136-2.42-.53-.64-1.104-1.309-1.474-2.072-.26-.537-.656-.918-1.116-1.213-.339-.217-.561-.445-.733-.808-.235-.491-.536-.94-1.104-1.171-.39-.157-.605-.572-.769-.95-.363-.839-.475-1.01-1.061-1.487-.465-.38-.743-.925-1.12-1.381-.402-.485-.788-.986-1.257-1.405-.224-.199-.17-.545-.445-.658-.112-.631.179-1.15.323-1.708.135-.521.347-1.039.321-1.621.752-.013.519-.772.88-1.105-.22-.279-.167-.621-.271-.887-.328-.839-.57-1.706-.898-2.542-.139-.354-.387-.649-.676-.91-.31-.278-.623-.563-.759-1.186.098-.567-.126-1.304-.323-2.036a1.4 1.4 0 0 0-.561-.773c0-.405-.037-.836.009-1.258.061-.574-.09-1.117-.306-1.605-.127-.288-.224-.643-.111-.79.354-.459.145-.825-.019-1.246-.292-.75-.419-1.554-.618-2.329-.204-.796-.032-1.658.332-2.429.069-.147.099-.3.055-.401-.416-.95-.049-2.066-.639-2.975-.033-.836-.009-1.66.431-2.413.463-.792 1.115-1.218 2.095-1.076.696.72 1.107 1.609 1.131 2.632.015.637.477 1.133.446 1.764.565.652.581 1.573 1.087 2.247.289.385.438.83.63 1.253.196.433.336.824.844 1.057.427.195.715.659.89 1.121.279.737.745 1.356 1.123 1.983.516.082.857-.154 1.163-.431.373-.338.748-.683 1.064-1.071a3.7 3.7 0 0 1 1.231-.956c.888-.435 1.578-1.085 2.344-1.667.542-.413.937-1.006 1.613-1.283.616-.251 1.162-.677 1.779-1.05.773 0 1.634-.141 2.417.044.635.15 1.287.283 1.854.133.812-.215 1.609-.204 2.402-.157.989.059 1.975.24 2.95.429.276.054.535.293.76.494.376.334.724.701 1.072 1.064.296.307.741.459.911.899a.43.43 0 0 0 .225.226c1.085.379 1.673 1.36 2.506 2.059h.843c.395.538.285 1.343 1.016 1.81.774-1.052 1.852-1.851 2.112-3.252.899-.15.927-1.092 1.413-1.638.464-.522.769-1.187 1.164-1.823.016-.785.022-.781.44-1.714.357-.8.552-1.634.416-2.453l1.089-1.085v-.981c.237-.147.511-.113.593-.359 1.06.46 1.623 1.362 2.379 2.04.12.108.148.306.21.45.104.245.063.553.088.895-.462.238-.528.753-.644 1.19-.114.438-.056.932-.017 1.396s-.404.834-.168 1.358l.483.487h1.081c.669.679 1.384 1.317 1.907 2.125.128.197.275.392.354.609.256.713.696 1.237 1.377 1.594.529.278.45.959.922 1.349-.752.751-.386 1.566-.321 2.406-.589.428-.807 1.196-1.465 1.636-.249 0-.602.107-.812-.021-.563-.343-1.244-.244-1.806-.611-.612-.402-1.364-.571-1.926-1.086-.079-.072-.225-.025-.295-.209-.227-.592-.775-.838-1.238-1.104-.265.025-.327.227-.499.342.159.778 1.046 1.177 1.011 2.335-.136.486-.676 1.194-.581 2.112.035.336-.154.719-.317 1.043-.09.178-.066.336-.095.509-.232.421-.667.666-.918 1.119-.269.484-.514.911-.636 1.478-.104.485-.178 1.064-.591 1.48-.12.12-.334.291-.149.729.629.609 1.09 1.5.997 2.573.457.421.329 1.054.715 1.447-.207.495-.298.984-.876 1.096-.37.74-1.118 1.169-1.541 1.85-.153.248-.345.435-.524.641-.453.519-1.069.905-1.238 1.65-.034.148-.218.287-.363.383-.763.505-1.228 1.301-1.889 1.904-.407.373-.864.736-.967 1.322-.069.399-.488.366-.685.664a19 19 0 0 1-1.984 2.542c-.602.638-1.026 1.44-1.554 2.151-.125.17-.083.329-.119.59m.994-18.085c-.629.021-1.029.43-1.491.598-.599 1.502-2.019 1.979-3.171 2.726.052.288-.078.547.107.793.199-.065.315.072.439.213h1.933c1.243-.721 2.725-.867 3.939-1.701.566-.39.95-.937 1.51-1.32.741.013 1.143-.537 1.573-.968-.001-.704.422-1.318.175-1.998-.767-.324-1.47.332-2.164.152a3.75 3.75 0 0 1-1.539.635c-.601.108-.945.532-1.311.87m-21.067.801c.746.313 1.407.591 1.869 1.184.195.251.463.4.746.535.601.287 1.233.495 1.841.754.576.244 1.28.269 1.7.851.764-.091 1.597.216 2.324-.403-.389-.743-.857-1.381-1.621-1.696-.607-.251-.889-.699-1.024-1.288-.069-.3-.205-.559-.54-.498-.297.055-.378-.349-.662-.24-.444-.559-1.163-.673-1.726-1.045a2.86 2.86 0 0 0-1.315-.435c-.666-.048-1.242-.287-1.813-.578-.097-.049-.179-.095-.317-.089l-.311.276v1.365c.271.123.166.448.386.615.209.158.494.313.463.692M59.93 26.253c-.718.14-1.176-.218-1.595-.623-.598.032-.598.032-.914.395.058.809.825.952 1.247 1.416.46.505.903 1.06 1.631 1.237.226-.319.683-.481.519-1.017-.354-.36-.795-.711-.888-1.408M34.416 48.12c-.759.301-1.149.943-1.702 1.41.211.586.626.542 1.042.485.107-.107.216-.202.307-.312.08-.094.177-.091.283-.099.646-.044 1.012-.414 1.173-1.02-.211-.078-.125-.308-.244-.466-.294.002-.605.002-.859.002m5.301 1.519c-.418-.533-.697-1.14-1.257-1.543h-.154l-.833.56.329.696c.54.216 1.043.515 1.628.616zM54.982 27.72c-.504-.431-.971-.4-1.402-.336l-.282.282v1.12l.306.291c.471-.448 1.273-.328 1.605-.978-.154-.106-.231-.252-.227-.379m-36.668-.23c.266.202.208.831.821.707v-1.563c-.348-.503-.438-1.122-1.058-1.451 0 .44-.145.922.034 1.186.262.387.083.754.203 1.121m34.421 4.851c.137-.479.6-.721.714-1.192.097-.495.077-.984-.275-1.372-1.017.685-.838 1.591-.439 2.564m-32.929-1.308c.208 0 .26-.214.401-.302v-1.144c-.253-.158-.345-.489-.682-.507-.172.28-.528.574-.349.876.212.355.041.947.63 1.077"/>
</svg>
