<svg xmlns="http://www.w3.org/2000/svg" xml:space="preserve" width="72px" height="72px" viewBox="0 0 72 72">
    <g fill="currentColor">
        <path d="M34.465 65.991c-.187-.114-.512-.143-.731-.399-.601 0-1.213.024-1.821-.008-.585-.03-1.205.185-1.747-.209-.578.417-1.233.122-1.767.217-.949-.542-1.856-.947-2.879-1.088-.958-.132-1.567-.492-2.382-1.291h-1.256c-1.06-.619-2.123-1.179-2.969-2.057-.152-.158-.408-.219-.621-.315-.376-.172-.767-.33-1.008-.688-.208-.309-.553-.468-.841-.581-.58-.23-.839-.692-1.116-1.163-.133-.227-.099-.265.212-.778.669-.209 1.307.479 2.075.064.081-.13.345-.247.472-.533.269-.601.855-.847 1.431-1.073.601-.236 1.209-.459 1.583-1.032.18-.341-.277-.491-.218-.803l-.676-.34c-1.491.495-3.114.494-4.312 1.596-1.346-.542-2.101-1.51-2.653-2.688.478-.373 1.092-.389 1.285-1.03.063-.209.482-.396.759-.431.286-.036.452-.162.621-.343.297-.32.377-.813.869-.988.384-.137.629-.52.961-.583.204-.323-.007-.688.296-.817-.348-1.656-.21-3.289.071-4.883-.366-.495-.8-.813-1.313-1.059-.48-.23-.837-.619-1.095-1.09a1.6 1.6 0 0 0-.654-.638c-.593-.33-1.009-.847-1.284-1.457-.382-.845-.724-1.709-1.507-2.281V35.89c-.568-.452-.991-1.033-1.297-1.858v-.657l-.69-.589c-.923.354-2.036.331-2.701-.481-.444-.542-1.062-.935-1.369-1.669v-1.007c.57-.646.905-1.379 1.078-2.348.205-.332.531-.53.707-.907.18-.385.587-.698 1.072-.736.408-.033.713-.22 1.014-.531.108-.563-.248-.938-.627-1.307v-1.294c.444-.436.71-.972.865-1.579.104-.405.335-.741.645-1.031.163-.153.338-.053.524-.12.587-.321.771-1.039 1.287-1.465.069-.008.138-.021.207-.022.432-.002.874-.059 1.293.015.423.076.733-.189 1.093-.269.767-.169 1.562-.174 2.31-.403a29 29 0 0 0 2.161-.778c.316-.126.628-.041.937-.081.402.417.85.684 1.463.659.791-.032 1.583-.008 2.414-.008 1.1.709 2.126 1.536 2.711 2.782.081.171.174.367.301.401.526.141.73.648 1.093.888.613.137 1.18.225 1.593.725.356.432.97.583 1.275 1.077.556.898 1.504 1.519 1.813 2.598.062.216.271.392.421.58.493.623.454 1.356.427 2.104.524.282.615.931 1.084 1.247v1.314c-.291.363-.776.418-1.114.694-.414.336-.961.516-1.158 1.119-.092.28-.407.487-.559.656-.885.109-1.423-.501-2.219-.604-.765.244-1.474.753-2.118 1.416.275.773.334 1.51.079 2.322-.138.44-.113 1 .134 1.538.191.415.038.989.038 1.567l-1.169.058c-.775.364-1.325 1.329-2.305 1.071-.703.359-1.366.605-1.663 1.186-.257.564.497.643.362 1.148-.327.123-.873-.147-1.092.547.55 1.098 1.175 2.304.886 3.604.418.74 1.15.902 1.717 1.331v.966c-.318.154-.358.551-.572.792.011.508.686.683.587 1.34-.117.117-.269.319-.467.454-.228.154-.108.496-.392.612l.588.528c.525.178 1.022-.242 1.584-.211.538.029 1.079.006 1.619.006.124-.124.226-.291.432-.209.224-.364.275-.801.651-1.075h1.246c.659-.638 1.515-.906 2.293-1.288.772-.379 1.653-.224 2.491-.236.563-.476.986-1.102 1.667-1.452.311-.16.444-.518.614-1.023v-1.305c-.652-.625-1.192-1.462-2.146-1.19-.73-.27-1.085-.77-1.525-1.185 0-.531.005-1.07-.001-1.609-.006-.481-.449-.9-.165-1.422.29-.684.903-1.127 1.409-1.662a.5.5 0 0 1 .254-.161c.971-.164 1.712-.75 2.501-1.274.375-.25.865-.369 1.319-.446.876-.148 1.705-.581 2.627-.444.172.026.237-.124.354-.192.662-.388 1.316-.795 2.069-.925v-.539c-.54-.378-1.147-.564-1.842-.493-.325.285-.574.693-1.065.796-1.459.079-1.459.079-2.266-.688v-.862l-1.343-.684c-.318-.375-.564-.825-.334-1.308.18-.378.34-.853.873-.942.06-.01.12-.072.163-.124.518-.63 1.154-1.081 1.894-1.226.474-.512.402-1.149.788-1.582-.455-.68-1.244-1.032-1.188-1.924-1.099-1.122-2.48-1.918-3.739-2.874-.682-.041-.988-.504-1.285-1.049-.31-.57-1.003-.724-1.416-1.225-.498.251-.965.348-1.296.299-.936-.568-1.734-1.077-2.555-1.546-.867-.496-1.33-.831-1.865-1.681-.247-.393-.578-.694-.844-1.054-.298-.403-.609-.82-.256-1.401.184-.301.102-.722.281-1.07.087-.171.015-.424.015-.64.259-.582 1.003-.627 1.3-1.202.051-.384-.224-.67-.418-1.121v-.985c.84-.967 1.865-1.756 3.129-2.219.237.384.741.052 1.112.348.311.248.769-.094 1.139-.282.594-.302 1.301-.313 1.855-.749.133-.105.419-.016.631-.016.233.211.402.53.841.417.325-.113.421-.593.875-.645.45-.052.835-.381 1.356-.021.268.185.77.033 1.165.033h1.103c.705.406.876 1.132 1.307 1.709h.876c.282.191.54.312.726.503.413.428.929.605 1.484.583.752-.029 1.393.25 2.046.549.394.18.783.375 1.168.565.577.284 1.151.596 1.6 1.111.529.607 1.262.895 2.124 1.063.221.299.609.529.798.986.159.386.601.644.989.684 1.109.112 1.23.996 1.531 1.665l-1.181 1.18c-.168.887.716 1.288.773 2.034-.64.365-1.159.879-1.638 1.407h-1.108c-.345.001-.596.438-1.004.146-.597.644-1.299 1.143-1.682 1.915-.323.652-.947.975-1.481 1.367-.285.21-.49.498-.775.642-.771.09-1.258.517-1.638 1.143-.419.69-.588 1.483-.987 2.187-.259.457-.04 1.048-.099 1.576-.314.124-.064.591-.402.62-.091.353.408.398.189.678l1.271.604c.106.124-.063.439.295.435-.411.687-.211 1.359-.27 2.033.791.158 1.596-.158 2.323.324.429-.291.893-.475 1.373-.617.523-.155 1.031-.421 1.6-.304.612.126 1.144-.273 1.748-.229.572.042 1.162.08 1.724-.01.622-.099 1.227-.327 1.827-.532.35-.119.615-.134.968.086.615.385 1.317.523 2.071.479.872-.052 1.758-.093 2.656.156l.566.683v1.619c-.326.335-.632.763-1.392.966h-3.585c-.735.431-1.265 1.13-2.191 1.119-.229-.002-.462.254-.694.39-1.038.607-1.921 1.4-2.737 2.336.197.402-.225.739-.204 1.162.019.393.004.787.004 1.247.425-.046.747.31 1.183.244.56.583 1.175 1.046 2.034 1.093.217.013.448.148.633.283.793.575 1.683.977 2.524 1.463.32.187.692.271 1.023.557.635.71.288 1.634.388 2.468-.359.664-.799 1.257-1.104 1.938-.239.535-.728.934-1.11 1.36-.563.627-.79 1.478-1.468 2-.138.663-.688 1.021-1.086 1.497-.325.387-.775.59-1.154.893-.486.389-1.115.441-1.591-.015-.867-.834-2.043-.817-3.063-1.221-.524-.207-1.075-.27-1.487-.225-.719-.208-1.056-.849-1.706-.865-.439.068-.522.349-.496.703.037.056.063.145.113.163.473.171.945.306 1.361.638.42.334 1.03.241 1.515.505a3.16 3.16 0 0 0 1.571.387c.668-.006 1.287.189 1.7.758.057.291-.307.399-.245.682-.618.13-1.135.904-1.853.273-.579.081-.885.536-1.24.856-.178.013-.351-.028-.454.039-.793.516-1.68.876-2.405 1.509-.297.259-.694.402-1.087.622h-1.644l-1.36.867c-.646-.092-1.234.109-1.72.65-.172.191-.448.401-.682.405-.783.015-1.173.885-1.904.865-.712-.019-1.381.165-2.071.241-.199.018-.308.308-.637.175m-10.21-30.229c-.69.528-1.482.972-2.073 1.644v.645c.697.818 1.635.46 2.446.548.256-.227.62-.243.786-.547v-1.061l-.747-.817c.794-.588 1.114-1.318.93-2.26l-.504-.504c-.241.026-.494-.071-.654.07-.833.715.168 1.457-.184 2.282m-8.949-1.709c-.219.896.587 1.742-.04 2.463-.031.325.279.408.227.659-.012.06.126.16.206.229.745.643 1.304 1.435 1.769 2.261.297-.011.546.068.777-.054.174-.622-.063-1.142-.397-1.624.4-.679.279-1.322-.105-1.915-.447-.318-.882-.65-1.181-1.133-.278-.447-.529-.928-1.256-.886m25.61 18.334c.439-.556.984-.989 1.748-1.149.393-.081.708-.371.904-.775.255-.526.777-.758 1.283-.613.698.199 1.434.4 1.968.967.473.499 1.039.628 1.738.453-.118-.529-.507-.754-.914-.913-.413-.162-.682-.477-.972-.773-.317-.325-.634-.646-1.313-.876-.612-.136-1.203.338-1.693.909-.671-.082-1.157.311-1.716.424-.512.677-1.374.972-1.82 1.618v.729zm-9.1 2.423c.655 0 1.241-.632 2.038-.392l.289.373c1.297 0 1.784-.118 2.587-.625.05-.032.078-.099.119-.151-.232-.156-.34-.462-.752-.56-.176-.069-.312.256-.558.258-.623.004-1.25-.063-1.848.206-.113.051-.315.045-.409-.025-.641-.472-1.093-.046-1.547.313-.296.233-.557.495-.89.699-.386.237-.694.628-.642 1.251.694-.289 1.002-.889 1.613-1.347m10.815 1.946c-1.513.46-2.483 1.406-3.757 1.766-.128.036-.305.191-.284.405.095.193.209.36.472.407.326-.005.615-.186.881-.392.582-.452 1.241-.72 1.969-.676.351.021.669-.111.856-.263.322-.261.741-.386 1.017-.742-.063-.146.071-.333-.092-.506zm4.837-34.357c-.104-.327-.462-.194-.559-.401-1.142.375-2.03 1.137-2.868 1.74-.139.458.062.621.249.789.672.084 1.33.076 1.819-.481.477-.542.921-1.113 1.359-1.647m-6.289 21.648c.183.508.866.569 1.184 1.019.587.05 1.083-.1 1.458-.612a1.9 1.9 0 0 0-.541-.613c-.593-.183-1.127.152-1.623-.336.1.483-.455.089-.478.542M28.746 59.102c.928-.909 1.454-2.01 1.107-2.356h-.429c-.528.346-.661 1.054-1.238 1.396.125.322-.071.655.11.96zm-3.898 2.141c.309.042.448-.002.615-.107.591-.371 1.124-.861 1.842-1.007.029-.006.037-.121.072-.248-.124-.172-.453-.102-.538-.285-.684.171-1.254.658-1.995.631-.291.175-.337.436-.277.736zm24.416-23.83c-.321.313-.746.299-.974.736-.229.441-.17.845-.198 1.328.566-.061.813-.456 1.029-.764.215-.303.439-.707.143-1.3m-5.621 1.495c-.923-.365-1.453.587-2.285.298.102.323-.027.443-.153.551l.396.508c.497-.77 1.584-.405 2.042-1.357M32.09 61.741h-.958c-.314.193-.348.43-.326.6l.332.482c.355-.189.708-.247.952-.564zm19.136-8.45c.379-.461.937-.799 1.221-1.355-.095-.15-.188-.181-.372-.158-.327.547-1.063.751-1.424 1.327.162.249.357.148.575.186M46.423 41.95c.24-.495.771-.512 1.029-.898-.041-.165.075-.357-.095-.495-.022-.019-.063-.015-.186-.039-.355.334-.787.663-1.062 1.144.091.081.139.125.314.288m-6.985 11.354c-.155-.011-.268-.049-.355-.019-.245.085-.479.197-.713.297.044.192-.066.378.095.544h.672c.295-.184.37-.435.301-.822m8.657-7.469c-.001.312.209.363.326.553.229-.109.517.114.755-.125v-.506c-.232.059-.381-.123-.57-.238-.08.279-.405.109-.511.316m-.132 7.893c-.074.144-.303.181-.229.399h1.358c.073-.144.302-.18.228-.399zM38.969 22.99c.114-.147.316-.221.271-.445-.262-.472-.658-.409-1.063-.316.154.378.347.679.792.761m5.258 19.641c-.328-.631-.328-.631-1.339-.481.391.348.756.678 1.339.481M36.814 20.9c.115.458.262.705.733.561-.087-.369-.211-.614-.733-.561"/>
        <path d="M48.738 33.966v.648c-.258.165-.628.018-.829.32-.316-.063-.422-.369-.662-.53v-.705l.571-.43c.331.097.667.347.92.697"/>
    </g>
</svg>
