<?xml version="1.0" encoding="iso-8859-1"?>
<!-- Generator: Adobe Illustrator 16.0.0, SVG Export Plug-In . SVG Version: 6.00 Build 0)  -->
<!DOCTYPE svg PUBLIC "-//W3C//DTD SVG 1.1//EN" "http://www.w3.org/Graphics/SVG/1.1/DTD/svg11.dtd">
<svg version="1.1" id="Layer_1" xmlns="http://www.w3.org/2000/svg" xmlns:xlink="http://www.w3.org/1999/xlink" x="0px" y="0px"
	 width="72.36px" height="72.18px" viewBox="0 0 72.36 72.18" style="enable-background:new 0 0 72.36 72.18;" xml:space="preserve"
	>
<g>
	<path style="fill-rule:evenodd;clip-rule:evenodd;fill:none;" d="M79.416,79.631c-28.8,0-57.6,0-86.399,0
		c0-28.871,0-57.743,0-86.615c28.8,0,57.6,0,86.399,0C79.416,21.888,79.416,50.76,79.416,79.631z M34.465,65.991
		c0.329,0.133,0.438-0.157,0.635-0.179c0.69-0.076,1.359-0.26,2.071-0.241c0.731,0.02,1.121-0.851,1.904-0.865
		c0.233-0.004,0.51-0.214,0.682-0.405c0.485-0.541,1.074-0.742,1.72-0.65c0.481-0.307,0.91-0.58,1.36-0.867c0.545,0,1.121,0,1.644,0
		c0.393-0.22,0.79-0.363,1.087-0.622c0.726-0.633,1.612-0.993,2.405-1.509c0.104-0.067,0.276-0.026,0.454-0.039
		c0.355-0.32,0.661-0.775,1.24-0.856c0.718,0.631,1.234-0.144,1.853-0.273c-0.062-0.282,0.302-0.391,0.245-0.682
		c-0.413-0.568-1.032-0.764-1.7-0.758c-0.569,0.005-1.092-0.125-1.571-0.387c-0.484-0.264-1.095-0.171-1.515-0.505
		c-0.416-0.332-0.889-0.467-1.361-0.638c-0.051-0.019-0.076-0.107-0.112-0.163c-0.027-0.354,0.056-0.635,0.495-0.703
		c0.65,0.017,0.987,0.657,1.706,0.865c0.412-0.045,0.963,0.018,1.487,0.225c1.021,0.403,2.196,0.387,3.063,1.221
		c0.476,0.456,1.104,0.403,1.591,0.015c0.379-0.303,0.829-0.506,1.154-0.893c0.398-0.476,0.948-0.834,1.086-1.497
		c0.678-0.522,0.905-1.373,1.468-2c0.383-0.427,0.871-0.825,1.11-1.36c0.305-0.681,0.744-1.273,1.104-1.938
		c-0.1-0.834,0.247-1.758-0.388-2.468c-0.331-0.286-0.703-0.37-1.023-0.557c-0.842-0.486-1.731-0.888-2.524-1.463
		c-0.185-0.135-0.416-0.271-0.633-0.283c-0.859-0.047-1.475-0.51-2.034-1.093c-0.436,0.065-0.758-0.29-1.183-0.244
		c0-0.46,0.015-0.854-0.004-1.247c-0.021-0.423,0.401-0.76,0.204-1.162c0.816-0.936,1.699-1.729,2.737-2.336
		c0.232-0.136,0.465-0.392,0.694-0.39c0.927,0.011,1.456-0.688,2.191-1.119c1.244,0,2.535,0,3.585,0
		c0.76-0.203,1.065-0.631,1.392-0.966c0-0.608,0-1.148,0-1.619c-0.21-0.252-0.389-0.467-0.566-0.683
		c-0.898-0.249-1.784-0.208-2.656-0.156c-0.754,0.045-1.456-0.094-2.071-0.479c-0.353-0.22-0.618-0.205-0.968-0.086
		c-0.601,0.205-1.205,0.433-1.827,0.532c-0.562,0.089-1.151,0.052-1.724,0.01c-0.604-0.044-1.136,0.355-1.748,0.229
		c-0.568-0.117-1.076,0.149-1.6,0.304c-0.48,0.143-0.944,0.326-1.373,0.617c-0.728-0.482-1.532-0.166-2.323-0.324
		c0.059-0.674-0.142-1.346,0.27-2.033c-0.358,0.004-0.188-0.311-0.295-0.435c-0.426-0.203-0.816-0.388-1.271-0.604
		c0.219-0.28-0.28-0.326-0.189-0.678c0.338-0.028,0.088-0.496,0.402-0.62c0.059-0.528-0.16-1.119,0.099-1.576
		c0.399-0.704,0.568-1.497,0.987-2.187c0.38-0.626,0.867-1.052,1.638-1.143c0.285-0.145,0.49-0.432,0.775-0.642
		c0.534-0.393,1.158-0.715,1.481-1.367c0.383-0.772,1.085-1.271,1.682-1.915c0.408,0.291,0.659-0.146,1.004-0.146
		c0.36-0.001,0.72,0,1.108,0c0.479-0.528,0.998-1.042,1.638-1.407c-0.058-0.746-0.941-1.147-0.773-2.034
		c0.377-0.376,0.753-0.752,1.181-1.18c-0.301-0.669-0.422-1.553-1.531-1.665c-0.389-0.04-0.83-0.297-0.989-0.684
		c-0.188-0.457-0.577-0.687-0.798-0.986c-0.862-0.168-1.595-0.456-2.124-1.063c-0.448-0.515-1.022-0.828-1.6-1.111
		c-0.385-0.189-0.774-0.385-1.168-0.565c-0.653-0.299-1.294-0.578-2.046-0.549c-0.556,0.021-1.071-0.155-1.484-0.583
		C43.738,9.94,43.48,9.82,43.198,9.629c-0.256,0-0.569,0-0.876,0c-0.431-0.577-0.602-1.303-1.307-1.709c-0.315,0-0.709,0-1.103,0
		c-0.396,0-0.897,0.152-1.165-0.033c-0.521-0.36-0.906-0.031-1.356,0.021c-0.454,0.052-0.55,0.531-0.875,0.645
		c-0.438,0.113-0.608-0.206-0.841-0.417c-0.212,0-0.498-0.089-0.631,0.016C34.49,8.587,33.783,8.599,33.189,8.9
		c-0.37,0.188-0.828,0.53-1.139,0.282c-0.371-0.296-0.875,0.036-1.112-0.348c-1.264,0.463-2.289,1.252-3.129,2.219
		c0,0.403,0,0.758,0,0.985c0.194,0.451,0.47,0.737,0.418,1.121c-0.296,0.575-1.041,0.62-1.3,1.202c0,0.216,0.072,0.469-0.015,0.64
		c-0.179,0.348-0.097,0.769-0.281,1.07c-0.353,0.581-0.042,0.998,0.256,1.401c0.266,0.36,0.597,0.662,0.844,1.054
		c0.536,0.851,0.999,1.186,1.865,1.681c0.821,0.469,1.619,0.978,2.555,1.546c0.331,0.049,0.799-0.048,1.296-0.299
		c0.412,0.501,1.105,0.655,1.416,1.225c0.296,0.545,0.603,1.008,1.285,1.049c1.258,0.956,2.64,1.752,3.739,2.874
		c-0.057,0.893,0.732,1.245,1.188,1.924c-0.386,0.433-0.314,1.07-0.788,1.582c-0.739,0.145-1.376,0.596-1.894,1.226
		c-0.043,0.052-0.104,0.114-0.163,0.124c-0.533,0.089-0.693,0.564-0.873,0.942c-0.23,0.482,0.016,0.932,0.334,1.308
		c0.459,0.233,0.9,0.458,1.343,0.684c0,0.303,0,0.588,0,0.862c0.807,0.768,0.807,0.768,2.266,0.688
		c0.491-0.103,0.74-0.512,1.065-0.796c0.694-0.072,1.302,0.114,1.842,0.493c0,0.18,0,0.324,0,0.539
		c-0.753,0.129-1.407,0.537-2.069,0.925c-0.116,0.068-0.182,0.219-0.354,0.192c-0.922-0.137-1.751,0.296-2.627,0.444
		c-0.454,0.077-0.944,0.196-1.319,0.446c-0.789,0.524-1.531,1.11-2.501,1.274c-0.092,0.016-0.187,0.089-0.254,0.161
		c-0.506,0.535-1.119,0.979-1.409,1.662c-0.284,0.521,0.159,0.94,0.165,1.422c0.007,0.539,0.001,1.078,0.001,1.609
		c0.439,0.415,0.794,0.915,1.525,1.185c0.955-0.271,1.494,0.565,2.146,1.19c0,0.503,0,1.007,0,1.305
		c-0.17,0.506-0.303,0.863-0.614,1.023c-0.681,0.351-1.104,0.977-1.667,1.452c-0.837,0.013-1.719-0.143-2.491,0.236
		c-0.778,0.382-1.634,0.65-2.293,1.288c-0.416,0-0.845,0-1.246,0c-0.376,0.274-0.428,0.711-0.651,1.075
		c-0.206-0.082-0.308,0.085-0.432,0.209c-0.54,0-1.081,0.023-1.619-0.006c-0.562-0.031-1.059,0.389-1.584,0.211
		c-0.212-0.19-0.397-0.357-0.588-0.528c0.284-0.116,0.165-0.458,0.392-0.612c0.198-0.135,0.35-0.337,0.467-0.454
		c0.098-0.657-0.577-0.832-0.587-1.34c0.214-0.241,0.254-0.638,0.572-0.792c0-0.341,0-0.655,0-0.966
		c-0.567-0.429-1.299-0.591-1.717-1.331c0.29-1.3-0.335-2.506-0.886-3.604c0.22-0.694,0.766-0.424,1.092-0.547
		c0.135-0.506-0.619-0.584-0.362-1.148c0.297-0.58,0.96-0.826,1.663-1.186c0.98,0.258,1.53-0.707,2.305-1.071
		c0.42-0.021,0.801-0.039,1.169-0.058c0-0.578,0.153-1.152-0.038-1.567c-0.247-0.537-0.272-1.098-0.134-1.538
		c0.256-0.812,0.196-1.549-0.079-2.322c0.644-0.663,1.353-1.172,2.118-1.416c0.796,0.102,1.334,0.713,2.219,0.604
		c0.151-0.169,0.467-0.376,0.559-0.656c0.197-0.603,0.745-0.782,1.158-1.119c0.338-0.275,0.823-0.331,1.114-0.694
		c0-0.432,0-0.864,0-1.314c-0.469-0.316-0.56-0.965-1.084-1.247c0.027-0.748,0.066-1.482-0.427-2.104
		c-0.149-0.188-0.359-0.364-0.421-0.58c-0.309-1.079-1.257-1.699-1.813-2.598c-0.305-0.493-0.919-0.645-1.275-1.077
		c-0.413-0.5-0.979-0.588-1.593-0.725c-0.362-0.24-0.566-0.748-1.093-0.888c-0.127-0.034-0.221-0.23-0.301-0.401
		c-0.585-1.246-1.612-2.073-2.711-2.782c-0.831,0-1.624-0.024-2.414,0.008c-0.613,0.025-1.061-0.242-1.463-0.659
		c-0.309,0.041-0.62-0.045-0.937,0.081c-0.711,0.282-1.429,0.554-2.161,0.778c-0.748,0.229-1.543,0.234-2.31,0.403
		c-0.36,0.08-0.67,0.344-1.093,0.269c-0.419-0.074-0.861-0.017-1.293-0.015c-0.069,0-0.138,0.014-0.207,0.022
		c-0.516,0.427-0.7,1.145-1.287,1.465c-0.186,0.067-0.362-0.033-0.524,0.12c-0.31,0.291-0.542,0.626-0.645,1.031
		c-0.155,0.607-0.421,1.143-0.865,1.579c0,0.436,0,0.867,0,1.294c0.379,0.369,0.735,0.744,0.627,1.307
		c-0.301,0.312-0.606,0.499-1.014,0.531c-0.485,0.038-0.893,0.351-1.072,0.736c-0.176,0.377-0.502,0.576-0.707,0.907
		c-0.173,0.969-0.507,1.701-1.077,2.348c0,0.36,0,0.72,0,1.007c0.307,0.733,0.925,1.127,1.369,1.668
		c0.666,0.812,1.778,0.835,2.701,0.481c0.233,0.199,0.446,0.381,0.69,0.589c0,0.236,0,0.521,0,0.657
		c0.306,0.825,0.729,1.406,1.297,1.858c0,0.46,0,0.889,0,1.332c0.784,0.572,1.125,1.437,1.507,2.281
		c0.275,0.61,0.691,1.127,1.284,1.457c0.285,0.159,0.501,0.358,0.654,0.638c0.258,0.471,0.615,0.859,1.095,1.09
		c0.512,0.245,0.947,0.563,1.313,1.059c-0.282,1.594-0.419,3.227-0.071,4.883c-0.303,0.13-0.092,0.494-0.296,0.817
		c-0.332,0.063-0.578,0.446-0.961,0.583c-0.492,0.176-0.571,0.668-0.869,0.988c-0.169,0.181-0.335,0.307-0.621,0.343
		c-0.276,0.034-0.696,0.222-0.759,0.431c-0.192,0.642-0.807,0.657-1.285,1.03c0.552,1.179,1.307,2.146,2.653,2.688
		c1.198-1.102,2.821-1.101,4.312-1.596c0.211,0.106,0.446,0.225,0.676,0.34c-0.059,0.312,0.398,0.462,0.218,0.803
		c-0.374,0.573-0.982,0.796-1.583,1.032c-0.575,0.227-1.162,0.473-1.431,1.073c-0.127,0.286-0.392,0.403-0.472,0.533
		c-0.768,0.414-1.406-0.273-2.075-0.064c-0.312,0.514-0.345,0.552-0.212,0.778c0.277,0.471,0.536,0.933,1.116,1.163
		c0.289,0.113,0.634,0.272,0.841,0.581c0.241,0.357,0.632,0.516,1.008,0.688c0.212,0.097,0.468,0.157,0.621,0.315
		c0.846,0.878,1.909,1.438,2.969,2.057c0.396,0,0.827,0,1.256,0c0.815,0.799,1.424,1.159,2.382,1.291
		c1.022,0.141,1.93,0.546,2.879,1.088c0.533-0.095,1.189,0.2,1.767-0.217c0.542,0.394,1.162,0.179,1.747,0.209
		c0.608,0.032,1.22,0.008,1.821,0.008C33.953,65.849,34.278,65.877,34.465,65.991z M48.738,33.966c-0.253-0.35-0.589-0.6-0.92-0.696
		c-0.235,0.177-0.432,0.325-0.571,0.43c0,0.293,0,0.502,0,0.705c0.24,0.161,0.346,0.467,0.662,0.53
		c0.201-0.302,0.571-0.156,0.829-0.32C48.738,34.397,48.738,34.187,48.738,33.966z M36.214,69.091
		c-0.459-0.081-0.83-0.112-1.065,0.294c0.094,0.094,0.193,0.192,0.298,0.298c0.255-0.021,0.536,0.11,0.767-0.095
		C36.214,69.432,36.214,69.292,36.214,69.091z M62.628,56.684c-0.056-0.055-0.111-0.11-0.167-0.166
		c-0.288,0.289-0.576,0.578-0.866,0.865c-0.152,0.15-0.154,0.292,0.037,0.459C62.233,57.671,62.233,57.016,62.628,56.684z
		 M64.243,54.597c-0.097-0.36,0.442-0.497,0.207-0.852c-0.57,0.156-0.567,0.159-0.514,0.794C64,54.552,64.066,54.563,64.243,54.597z
		 M66.78,49.178c0.157-0.146,0.157-0.29,0-0.437C66.623,48.888,66.623,49.031,66.78,49.178z"/>
	<path fill="currentColor" d="M34.465,65.991c-0.187-0.114-0.512-0.143-0.731-0.399
		c-0.601,0-1.213,0.024-1.821-0.008c-0.585-0.03-1.205,0.185-1.747-0.209c-0.578,0.417-1.233,0.122-1.767,0.217
		c-0.949-0.542-1.856-0.947-2.879-1.088c-0.958-0.132-1.567-0.492-2.382-1.291c-0.429,0-0.86,0-1.256,0
		c-1.06-0.619-2.123-1.179-2.969-2.057c-0.152-0.158-0.408-0.219-0.621-0.315c-0.376-0.172-0.767-0.33-1.008-0.688
		c-0.208-0.309-0.553-0.468-0.841-0.581c-0.58-0.23-0.839-0.692-1.116-1.163c-0.133-0.227-0.099-0.265,0.212-0.778
		c0.669-0.209,1.307,0.479,2.075,0.064c0.081-0.13,0.345-0.247,0.472-0.533c0.269-0.601,0.855-0.847,1.431-1.073
		c0.601-0.236,1.209-0.459,1.583-1.032c0.18-0.341-0.277-0.491-0.218-0.803c-0.229-0.115-0.465-0.233-0.676-0.34
		c-1.491,0.495-3.114,0.494-4.312,1.596c-1.346-0.542-2.101-1.51-2.653-2.688c0.478-0.373,1.092-0.389,1.285-1.03
		c0.063-0.209,0.482-0.396,0.759-0.431c0.286-0.036,0.452-0.162,0.621-0.343c0.297-0.32,0.377-0.813,0.869-0.988
		c0.384-0.137,0.629-0.52,0.961-0.583c0.204-0.323-0.007-0.688,0.296-0.817c-0.348-1.656-0.21-3.289,0.071-4.883
		c-0.366-0.495-0.8-0.813-1.313-1.059c-0.48-0.23-0.837-0.619-1.095-1.09c-0.152-0.279-0.369-0.479-0.654-0.638
		c-0.593-0.33-1.009-0.847-1.284-1.457c-0.382-0.845-0.724-1.709-1.507-2.281c0-0.443,0-0.872,0-1.332
		c-0.568-0.452-0.991-1.033-1.297-1.858c0-0.135,0-0.42,0-0.657c-0.244-0.208-0.457-0.39-0.69-0.589
		c-0.923,0.354-2.036,0.331-2.701-0.481C7.118,31.763,6.5,31.37,6.193,30.636c0-0.287,0-0.647,0-1.007
		c0.57-0.646,0.905-1.379,1.078-2.348c0.205-0.332,0.531-0.53,0.707-0.907c0.18-0.385,0.587-0.698,1.072-0.736
		c0.408-0.033,0.713-0.22,1.014-0.531c0.108-0.563-0.248-0.938-0.627-1.307c0-0.428,0-0.858,0-1.294
		c0.444-0.436,0.71-0.972,0.865-1.579c0.104-0.405,0.335-0.741,0.645-1.031c0.163-0.153,0.338-0.053,0.524-0.12
		c0.587-0.321,0.771-1.039,1.287-1.465c0.069-0.008,0.138-0.021,0.207-0.022c0.432-0.002,0.874-0.059,1.293,0.015
		c0.423,0.076,0.733-0.189,1.093-0.269c0.767-0.169,1.562-0.174,2.31-0.403c0.731-0.224,1.449-0.497,2.161-0.778
		c0.316-0.126,0.628-0.041,0.937-0.081c0.402,0.417,0.85,0.684,1.463,0.659c0.791-0.032,1.583-0.008,2.414-0.008
		c1.1,0.709,2.126,1.536,2.711,2.782c0.081,0.171,0.174,0.367,0.301,0.401c0.526,0.141,0.73,0.648,1.093,0.888
		c0.613,0.137,1.18,0.225,1.593,0.725c0.356,0.432,0.97,0.583,1.275,1.077c0.556,0.898,1.504,1.519,1.813,2.598
		c0.062,0.216,0.271,0.392,0.421,0.58c0.493,0.623,0.454,1.356,0.427,2.104c0.524,0.282,0.615,0.931,1.084,1.247
		c0,0.45,0,0.882,0,1.314c-0.291,0.363-0.776,0.418-1.114,0.694c-0.414,0.336-0.961,0.516-1.158,1.119
		c-0.092,0.28-0.407,0.487-0.559,0.656c-0.885,0.109-1.423-0.501-2.219-0.604c-0.765,0.244-1.474,0.753-2.118,1.416
		c0.275,0.773,0.334,1.51,0.079,2.322c-0.138,0.44-0.113,1,0.134,1.538c0.191,0.415,0.038,0.989,0.038,1.567
		c-0.369,0.019-0.749,0.037-1.169,0.058c-0.775,0.364-1.325,1.329-2.305,1.071c-0.703,0.359-1.366,0.605-1.663,1.186
		c-0.257,0.564,0.497,0.643,0.362,1.148c-0.327,0.123-0.873-0.147-1.092,0.547c0.55,1.098,1.175,2.304,0.886,3.604
		c0.418,0.74,1.15,0.902,1.717,1.331c0,0.311,0,0.625,0,0.966c-0.318,0.154-0.358,0.551-0.572,0.792
		c0.011,0.508,0.686,0.683,0.587,1.34c-0.117,0.117-0.269,0.319-0.467,0.454c-0.228,0.154-0.108,0.496-0.392,0.612
		c0.19,0.171,0.376,0.338,0.588,0.528c0.525,0.178,1.022-0.242,1.584-0.211c0.538,0.029,1.079,0.006,1.619,0.006
		c0.124-0.124,0.226-0.291,0.432-0.209c0.224-0.364,0.275-0.801,0.651-1.075c0.401,0,0.83,0,1.246,0
		c0.659-0.638,1.515-0.906,2.293-1.288c0.772-0.379,1.653-0.224,2.491-0.236c0.563-0.476,0.986-1.102,1.667-1.452
		c0.311-0.16,0.444-0.518,0.614-1.023c0-0.298,0-0.802,0-1.305c-0.652-0.625-1.192-1.462-2.146-1.19
		c-0.73-0.27-1.085-0.77-1.525-1.185c0-0.531,0.005-1.07-0.001-1.609c-0.006-0.481-0.449-0.9-0.165-1.422
		c0.29-0.684,0.903-1.127,1.409-1.662c0.067-0.072,0.163-0.146,0.254-0.161c0.971-0.164,1.712-0.75,2.501-1.274
		c0.375-0.25,0.865-0.369,1.319-0.446c0.876-0.148,1.705-0.581,2.627-0.444c0.172,0.026,0.237-0.124,0.354-0.192
		c0.662-0.388,1.316-0.795,2.069-0.925c0-0.215,0-0.359,0-0.539c-0.54-0.378-1.147-0.564-1.842-0.493
		c-0.325,0.285-0.574,0.693-1.065,0.796c-1.459,0.079-1.459,0.079-2.266-0.688c0-0.274,0-0.559,0-0.862
		c-0.442-0.226-0.884-0.45-1.343-0.684c-0.318-0.375-0.564-0.825-0.334-1.308c0.18-0.378,0.34-0.853,0.873-0.942
		c0.06-0.01,0.12-0.072,0.163-0.124c0.518-0.63,1.154-1.081,1.894-1.226c0.474-0.512,0.402-1.149,0.788-1.582
		c-0.455-0.68-1.244-1.032-1.188-1.924c-1.099-1.122-2.48-1.918-3.739-2.874c-0.682-0.041-0.988-0.504-1.285-1.049
		c-0.31-0.57-1.003-0.724-1.416-1.225c-0.498,0.251-0.965,0.348-1.296,0.299c-0.936-0.568-1.734-1.077-2.555-1.546
		c-0.867-0.496-1.33-0.831-1.865-1.681c-0.247-0.393-0.578-0.694-0.844-1.054c-0.298-0.403-0.609-0.82-0.256-1.401
		c0.184-0.301,0.102-0.722,0.281-1.07c0.087-0.171,0.015-0.424,0.015-0.64c0.259-0.582,1.003-0.627,1.3-1.202
		c0.051-0.384-0.224-0.67-0.418-1.121c0-0.228,0-0.583,0-0.985c0.84-0.967,1.865-1.756,3.129-2.219
		c0.237,0.384,0.741,0.052,1.112,0.348c0.311,0.248,0.769-0.094,1.139-0.282c0.594-0.302,1.301-0.313,1.855-0.749
		c0.133-0.105,0.419-0.016,0.631-0.016c0.233,0.211,0.402,0.53,0.841,0.417c0.325-0.113,0.421-0.593,0.875-0.645
		c0.45-0.052,0.835-0.381,1.356-0.021c0.268,0.185,0.77,0.033,1.165,0.033c0.394,0,0.787,0,1.103,0
		c0.705,0.406,0.876,1.132,1.307,1.709c0.307,0,0.62,0,0.876,0c0.282,0.191,0.54,0.312,0.726,0.503
		c0.413,0.428,0.929,0.605,1.484,0.583c0.752-0.029,1.393,0.25,2.046,0.549c0.394,0.18,0.783,0.375,1.168,0.565
		c0.577,0.284,1.151,0.596,1.6,1.111c0.529,0.607,1.262,0.895,2.124,1.063c0.221,0.299,0.609,0.529,0.798,0.986
		c0.159,0.386,0.601,0.644,0.989,0.684c1.109,0.112,1.23,0.996,1.531,1.665c-0.428,0.428-0.804,0.804-1.181,1.18
		c-0.168,0.887,0.716,1.288,0.773,2.034c-0.64,0.365-1.159,0.879-1.638,1.407c-0.389,0-0.748,0-1.108,0
		c-0.345,0.001-0.596,0.438-1.004,0.146c-0.597,0.644-1.299,1.143-1.682,1.915c-0.323,0.652-0.947,0.975-1.481,1.367
		c-0.285,0.21-0.49,0.498-0.775,0.642c-0.771,0.09-1.258,0.517-1.638,1.143c-0.419,0.69-0.588,1.483-0.987,2.187
		c-0.259,0.457-0.04,1.048-0.099,1.576c-0.314,0.124-0.064,0.591-0.402,0.62c-0.091,0.353,0.408,0.398,0.189,0.678
		c0.454,0.215,0.845,0.401,1.271,0.604c0.106,0.124-0.063,0.439,0.295,0.435c-0.411,0.687-0.211,1.359-0.27,2.033
		c0.791,0.158,1.596-0.158,2.323,0.324c0.429-0.291,0.893-0.475,1.373-0.617c0.523-0.155,1.031-0.421,1.6-0.304
		c0.612,0.126,1.144-0.273,1.748-0.229c0.572,0.042,1.162,0.08,1.724-0.01c0.622-0.099,1.227-0.327,1.827-0.532
		c0.35-0.119,0.615-0.134,0.968,0.086c0.615,0.385,1.317,0.523,2.071,0.479c0.872-0.052,1.758-0.093,2.656,0.156
		c0.178,0.215,0.356,0.43,0.566,0.683c0,0.471,0,1.011,0,1.619c-0.326,0.335-0.632,0.763-1.392,0.966c-1.05,0-2.341,0-3.585,0
		c-0.735,0.431-1.265,1.13-2.191,1.119c-0.229-0.002-0.462,0.254-0.694,0.39c-1.038,0.607-1.921,1.4-2.737,2.336
		c0.197,0.402-0.225,0.739-0.204,1.162c0.019,0.393,0.004,0.787,0.004,1.247c0.425-0.046,0.747,0.31,1.183,0.244
		c0.56,0.583,1.175,1.046,2.034,1.093c0.217,0.013,0.448,0.148,0.633,0.283c0.793,0.575,1.683,0.977,2.524,1.463
		c0.32,0.187,0.692,0.271,1.023,0.557c0.635,0.71,0.288,1.634,0.388,2.468c-0.359,0.664-0.799,1.257-1.104,1.938
		c-0.239,0.535-0.728,0.934-1.11,1.36c-0.563,0.627-0.79,1.478-1.468,2c-0.138,0.663-0.688,1.021-1.086,1.497
		c-0.325,0.387-0.775,0.59-1.154,0.893c-0.486,0.389-1.115,0.441-1.591-0.015c-0.867-0.834-2.043-0.817-3.063-1.221
		c-0.524-0.207-1.075-0.27-1.487-0.225c-0.719-0.208-1.056-0.849-1.706-0.865c-0.439,0.068-0.522,0.349-0.496,0.703
		c0.037,0.056,0.063,0.145,0.113,0.163c0.473,0.171,0.945,0.306,1.361,0.638c0.42,0.334,1.03,0.241,1.515,0.505
		c0.479,0.262,1.002,0.392,1.571,0.387c0.668-0.006,1.287,0.189,1.7,0.758c0.057,0.291-0.307,0.399-0.245,0.682
		c-0.618,0.13-1.135,0.904-1.853,0.273c-0.579,0.081-0.885,0.536-1.24,0.856c-0.178,0.013-0.351-0.028-0.454,0.039
		c-0.793,0.516-1.68,0.876-2.405,1.509c-0.297,0.259-0.694,0.402-1.087,0.622c-0.522,0-1.099,0-1.644,0
		c-0.45,0.287-0.879,0.561-1.36,0.867c-0.646-0.092-1.234,0.109-1.72,0.65c-0.172,0.191-0.448,0.401-0.682,0.405
		c-0.783,0.015-1.173,0.885-1.904,0.865c-0.712-0.019-1.381,0.165-2.071,0.241C34.903,65.834,34.794,66.124,34.465,65.991z
		 M24.255,35.762c-0.69,0.528-1.482,0.972-2.073,1.644c0,0.23,0,0.444,0,0.645c0.697,0.818,1.635,0.46,2.446,0.548
		c0.256-0.227,0.62-0.243,0.786-0.547c0-0.354,0-0.713,0-1.061c-0.238-0.26-0.471-0.516-0.747-0.817
		c0.794-0.588,1.114-1.318,0.93-2.26c-0.148-0.148-0.326-0.326-0.504-0.504c-0.241,0.026-0.494-0.071-0.654,0.07
		C23.606,34.195,24.607,34.937,24.255,35.762z M15.306,34.053c-0.219,0.896,0.587,1.742-0.04,2.463
		c-0.031,0.325,0.279,0.408,0.227,0.659c-0.012,0.06,0.126,0.16,0.206,0.229c0.745,0.643,1.304,1.435,1.769,2.261
		c0.297-0.011,0.546,0.068,0.777-0.054c0.174-0.622-0.063-1.142-0.397-1.624c0.4-0.679,0.279-1.322-0.105-1.915
		c-0.447-0.318-0.882-0.65-1.181-1.133C16.284,34.492,16.033,34.011,15.306,34.053z M40.916,52.387
		c0.439-0.556,0.984-0.989,1.748-1.149c0.393-0.081,0.708-0.371,0.904-0.775c0.255-0.526,0.777-0.758,1.283-0.613
		c0.698,0.199,1.434,0.4,1.968,0.967c0.473,0.499,1.039,0.628,1.738,0.453c-0.118-0.529-0.507-0.754-0.914-0.913
		c-0.413-0.162-0.682-0.477-0.972-0.773c-0.317-0.325-0.634-0.646-1.313-0.876c-0.612-0.136-1.203,0.338-1.693,0.909
		c-0.671-0.082-1.157,0.311-1.716,0.424c-0.512,0.677-1.374,0.972-1.82,1.618c0,0.282,0,0.491,0,0.729
		C40.392,52.387,40.635,52.387,40.916,52.387z M31.816,54.81c0.655,0,1.241-0.632,2.038-0.392c0.095,0.123,0.204,0.264,0.289,0.373
		c1.297,0,1.784-0.118,2.587-0.625c0.05-0.032,0.078-0.099,0.119-0.151c-0.232-0.156-0.34-0.462-0.752-0.56
		c-0.176-0.069-0.312,0.256-0.558,0.258c-0.623,0.004-1.25-0.063-1.848,0.206c-0.113,0.051-0.315,0.045-0.409-0.025
		c-0.641-0.472-1.093-0.046-1.547,0.313c-0.296,0.233-0.557,0.495-0.89,0.699c-0.386,0.237-0.694,0.628-0.642,1.251
		C30.897,55.868,31.205,55.268,31.816,54.81z M42.631,56.756c-1.513,0.46-2.483,1.406-3.757,1.766
		c-0.128,0.036-0.305,0.191-0.284,0.405c0.095,0.193,0.209,0.36,0.472,0.407c0.326-0.005,0.615-0.186,0.881-0.392
		c0.582-0.452,1.241-0.72,1.969-0.676c0.351,0.021,0.669-0.111,0.856-0.263c0.322-0.261,0.741-0.386,1.017-0.742
		c-0.063-0.146,0.071-0.333-0.092-0.506C43.285,56.756,42.86,56.756,42.631,56.756z M47.468,22.399
		c-0.104-0.327-0.462-0.194-0.559-0.401c-1.142,0.375-2.03,1.137-2.868,1.74c-0.139,0.458,0.062,0.621,0.249,0.789
		c0.672,0.084,1.33,0.076,1.819-0.481C46.586,23.504,47.03,22.933,47.468,22.399z M41.179,44.047
		c0.183,0.508,0.866,0.569,1.184,1.019c0.587,0.05,1.083-0.1,1.458-0.612c-0.167-0.313-0.404-0.507-0.541-0.613
		c-0.593-0.183-1.127,0.152-1.623-0.336C41.757,43.988,41.202,43.594,41.179,44.047z M28.746,59.102
		c0.928-0.909,1.454-2.01,1.107-2.356c-0.131,0-0.272,0-0.429,0c-0.528,0.346-0.661,1.054-1.238,1.396
		c0.125,0.322-0.071,0.655,0.11,0.96C28.454,59.102,28.595,59.102,28.746,59.102z M24.848,61.243
		c0.309,0.042,0.448-0.002,0.615-0.107c0.591-0.371,1.124-0.861,1.842-1.007c0.029-0.006,0.037-0.121,0.072-0.248
		c-0.124-0.172-0.453-0.102-0.538-0.285c-0.684,0.171-1.254,0.658-1.995,0.631c-0.291,0.175-0.337,0.436-0.277,0.736
		C24.669,61.064,24.771,61.166,24.848,61.243z M49.264,37.413c-0.321,0.313-0.746,0.299-0.974,0.736
		c-0.229,0.441-0.17,0.845-0.198,1.328c0.566-0.061,0.813-0.456,1.029-0.764C49.336,38.41,49.56,38.006,49.264,37.413z
		 M43.643,38.908c-0.923-0.365-1.453,0.587-2.285,0.298c0.102,0.323-0.027,0.443-0.153,0.551c0.104,0.133,0.207,0.265,0.396,0.508
		C42.098,39.495,43.185,39.86,43.643,38.908z M32.09,61.741c-0.401,0-0.716,0-0.958,0c-0.314,0.193-0.348,0.43-0.326,0.6
		c0.141,0.204,0.24,0.348,0.332,0.482c0.355-0.189,0.708-0.247,0.952-0.564C32.09,62.119,32.09,61.949,32.09,61.741z M51.226,53.291
		c0.379-0.461,0.937-0.799,1.221-1.355c-0.095-0.15-0.188-0.181-0.372-0.158c-0.327,0.547-1.063,0.751-1.424,1.327
		C50.813,53.354,51.008,53.253,51.226,53.291z M46.423,41.95c0.24-0.495,0.771-0.512,1.029-0.898
		c-0.041-0.165,0.075-0.357-0.095-0.495c-0.022-0.019-0.063-0.015-0.186-0.039c-0.355,0.334-0.787,0.663-1.062,1.144
		C46.2,41.743,46.248,41.787,46.423,41.95z M39.438,53.304c-0.155-0.011-0.268-0.049-0.355-0.019
		c-0.245,0.085-0.479,0.197-0.713,0.297c0.044,0.192-0.066,0.378,0.095,0.544c0.223,0,0.46,0,0.672,0
		C39.432,53.942,39.507,53.691,39.438,53.304z M48.095,45.835c-0.001,0.312,0.209,0.363,0.326,0.553
		c0.229-0.109,0.517,0.114,0.755-0.125c0-0.145,0-0.284,0-0.506c-0.232,0.059-0.381-0.123-0.57-0.238
		C48.526,45.798,48.201,45.628,48.095,45.835z M47.963,53.728c-0.074,0.144-0.303,0.181-0.229,0.399c0.464,0,0.915,0,1.358,0
		c0.073-0.144,0.302-0.18,0.228-0.399C48.857,53.728,48.406,53.728,47.963,53.728z M38.969,22.99
		c0.114-0.147,0.316-0.221,0.271-0.445c-0.262-0.472-0.658-0.409-1.063-0.316C38.331,22.607,38.524,22.908,38.969,22.99z
		 M44.227,42.631C43.899,42,43.899,42,42.888,42.15C43.279,42.498,43.644,42.828,44.227,42.631z M36.814,20.9
		c0.115,0.458,0.262,0.705,0.733,0.561C37.46,21.092,37.336,20.847,36.814,20.9z"/>
	<path fill="currentColor" d="M48.738,33.966c0,0.221,0,0.432,0,0.648
		c-0.258,0.165-0.628,0.018-0.829,0.32c-0.316-0.063-0.422-0.369-0.662-0.53c0-0.203,0-0.412,0-0.705
		c0.14-0.105,0.336-0.253,0.571-0.43C48.149,33.366,48.485,33.616,48.738,33.966z"/>
	<path style="fill-rule:evenodd;clip-rule:evenodd;fill:none;" d="M24.255,35.762c0.352-0.825-0.649-1.567,0.185-2.282
		c0.16-0.142,0.413-0.044,0.654-0.07c0.178,0.178,0.356,0.356,0.504,0.504c0.184,0.942-0.136,1.672-0.93,2.26
		c0.275,0.301,0.509,0.557,0.747,0.817c0,0.348,0,0.707,0,1.061c-0.166,0.304-0.53,0.32-0.786,0.547
		c-0.811-0.088-1.749,0.271-2.446-0.548c0-0.2,0-0.414,0-0.645C22.773,36.734,23.565,36.29,24.255,35.762z"/>
	<path style="fill-rule:evenodd;clip-rule:evenodd;fill:none;" d="M15.306,34.053c0.728-0.042,0.978,0.439,1.255,0.887
		c0.299,0.483,0.734,0.815,1.181,1.133c0.384,0.593,0.506,1.236,0.105,1.915c0.335,0.482,0.571,1.002,0.397,1.624
		c-0.231,0.122-0.479,0.043-0.777,0.054c-0.465-0.826-1.024-1.618-1.769-2.261c-0.08-0.069-0.218-0.17-0.206-0.229
		c0.053-0.251-0.258-0.334-0.227-0.659C15.893,35.795,15.086,34.949,15.306,34.053z"/>
	<path style="fill-rule:evenodd;clip-rule:evenodd;fill:none;" d="M40.916,52.387c-0.28,0-0.523,0-0.787,0c0-0.238,0-0.447,0-0.729
		c0.446-0.646,1.309-0.941,1.82-1.618c0.559-0.113,1.045-0.506,1.716-0.424c0.49-0.571,1.081-1.045,1.693-0.909
		c0.68,0.229,0.996,0.551,1.313,0.876c0.29,0.297,0.559,0.611,0.972,0.773c0.407,0.159,0.796,0.384,0.914,0.913
		c-0.699,0.175-1.266,0.046-1.738-0.453c-0.534-0.566-1.27-0.768-1.968-0.967c-0.506-0.145-1.028,0.087-1.283,0.613
		c-0.196,0.404-0.512,0.694-0.904,0.775C41.9,51.397,41.355,51.831,40.916,52.387z"/>
	<path style="fill-rule:evenodd;clip-rule:evenodd;fill:none;" d="M31.816,54.81c-0.612,0.458-0.919,1.059-1.614,1.347
		c-0.052-0.623,0.256-1.014,0.642-1.251c0.333-0.204,0.594-0.466,0.89-0.699c0.454-0.358,0.906-0.784,1.547-0.313
		c0.094,0.07,0.296,0.076,0.409,0.025c0.598-0.269,1.226-0.202,1.848-0.206c0.246-0.002,0.382-0.327,0.558-0.258
		c0.413,0.098,0.521,0.403,0.752,0.56c-0.041,0.053-0.069,0.119-0.119,0.151c-0.803,0.507-1.29,0.625-2.587,0.625
		c-0.085-0.109-0.193-0.25-0.289-0.373C33.057,54.178,32.471,54.81,31.816,54.81z"/>
	<path style="fill-rule:evenodd;clip-rule:evenodd;fill:none;" d="M42.631,56.756c0.229,0,0.653,0,1.062,0
		c0.163,0.173,0.029,0.36,0.092,0.506c-0.275,0.356-0.694,0.481-1.017,0.742c-0.188,0.151-0.506,0.284-0.856,0.263
		c-0.728-0.044-1.387,0.224-1.969,0.676c-0.266,0.206-0.555,0.387-0.881,0.392c-0.263-0.047-0.377-0.214-0.472-0.407
		c-0.021-0.214,0.156-0.369,0.284-0.405C40.148,58.162,41.119,57.216,42.631,56.756z"/>
	<path style="fill-rule:evenodd;clip-rule:evenodd;fill:none;" d="M47.468,22.399c-0.438,0.534-0.882,1.105-1.358,1.647
		c-0.489,0.557-1.147,0.565-1.818,0.48c-0.188-0.167-0.389-0.33-0.25-0.788c0.838-0.604,1.727-1.366,2.868-1.74
		C47.006,22.205,47.364,22.072,47.468,22.399z"/>
	<path style="fill-rule:evenodd;clip-rule:evenodd;fill:none;" d="M41.179,44.047c0.022-0.453,0.578-0.059,0.478-0.543
		c0.496,0.488,1.03,0.153,1.623,0.336c0.137,0.106,0.374,0.3,0.541,0.613c-0.375,0.513-0.871,0.662-1.458,0.612
		C42.045,44.616,41.362,44.555,41.179,44.047z"/>
	<path style="fill-rule:evenodd;clip-rule:evenodd;fill:none;" d="M28.746,59.102c-0.151,0-0.292,0-0.449,0
		c-0.181-0.305,0.014-0.638-0.11-0.96c0.577-0.343,0.709-1.051,1.238-1.396c0.157,0,0.298,0,0.429,0
		C30.2,57.092,29.674,58.192,28.746,59.102z"/>
	<path style="fill-rule:evenodd;clip-rule:evenodd;fill:none;" d="M24.848,61.243c-0.077-0.077-0.179-0.179-0.28-0.28
		c-0.061-0.301-0.014-0.562,0.276-0.736c0.741,0.027,1.311-0.46,1.995-0.631c0.084,0.184,0.414,0.113,0.538,0.285
		c-0.035,0.127-0.042,0.242-0.072,0.248c-0.718,0.146-1.251,0.636-1.842,1.007C25.296,61.241,25.157,61.285,24.848,61.243z"/>
	<path style="fill-rule:evenodd;clip-rule:evenodd;fill:none;" d="M49.264,37.413c0.296,0.593,0.072,0.997-0.143,1.301
		c-0.217,0.308-0.463,0.703-1.029,0.764c0.028-0.483-0.03-0.887,0.198-1.328C48.518,37.712,48.943,37.726,49.264,37.413z"/>
	<path style="fill-rule:evenodd;clip-rule:evenodd;fill:none;" d="M43.643,38.908c-0.458,0.952-1.545,0.587-2.043,1.356
		c-0.188-0.243-0.292-0.375-0.396-0.508c0.126-0.107,0.255-0.228,0.153-0.551C42.19,39.495,42.72,38.543,43.643,38.908z"/>
	<path style="fill-rule:evenodd;clip-rule:evenodd;fill:none;" d="M32.09,61.741c0,0.208,0,0.378,0,0.518
		c-0.243,0.317-0.596,0.375-0.952,0.564c-0.092-0.135-0.191-0.278-0.332-0.482c-0.022-0.17,0.011-0.406,0.326-0.6
		C31.374,61.741,31.689,61.741,32.09,61.741z"/>
	<path style="fill-rule:evenodd;clip-rule:evenodd;fill:none;" d="M51.226,53.291c-0.218-0.038-0.413,0.063-0.575-0.187
		c0.361-0.576,1.097-0.78,1.424-1.327c0.184-0.022,0.277,0.008,0.372,0.158C52.163,52.492,51.605,52.83,51.226,53.291z"/>
	<path style="fill-rule:evenodd;clip-rule:evenodd;fill:none;" d="M46.423,41.95c-0.176-0.163-0.224-0.207-0.313-0.289
		c0.274-0.48,0.706-0.81,1.062-1.144c0.122,0.024,0.163,0.021,0.186,0.039c0.17,0.138,0.054,0.33,0.095,0.495
		C47.195,41.438,46.664,41.455,46.423,41.95z"/>
	<path style="fill-rule:evenodd;clip-rule:evenodd;fill:none;" d="M39.438,53.304c0.069,0.388-0.006,0.639-0.302,0.822
		c-0.212,0-0.449,0-0.672,0c-0.161-0.166-0.051-0.352-0.095-0.544c0.233-0.1,0.468-0.212,0.713-0.297
		C39.17,53.255,39.283,53.293,39.438,53.304z"/>
	<path style="fill-rule:evenodd;clip-rule:evenodd;fill:none;" d="M48.095,45.835c0.105-0.207,0.431-0.037,0.511-0.316
		c0.189,0.115,0.338,0.297,0.57,0.238c0,0.222,0,0.361,0,0.506c-0.238,0.239-0.526,0.016-0.755,0.125
		C48.304,46.198,48.094,46.146,48.095,45.835z"/>
	<path style="fill-rule:evenodd;clip-rule:evenodd;fill:none;" d="M47.963,53.728c0.442,0,0.894,0,1.357,0
		c0.074,0.22-0.154,0.256-0.228,0.399c-0.443,0-0.895,0-1.358,0C47.661,53.908,47.889,53.871,47.963,53.728z"/>
	<path style="fill-rule:evenodd;clip-rule:evenodd;fill:none;" d="M38.969,22.99c-0.445-0.082-0.639-0.382-0.792-0.762
		c0.404-0.093,0.801-0.155,1.063,0.316C39.286,22.769,39.083,22.843,38.969,22.99z"/>
	<path style="fill-rule:evenodd;clip-rule:evenodd;fill:none;" d="M44.227,42.631c-0.583,0.197-0.948-0.133-1.339-0.48
		C43.899,42,43.899,42,44.227,42.631z"/>
	<path style="fill-rule:evenodd;clip-rule:evenodd;fill:none;" d="M36.814,20.9c0.522-0.053,0.646,0.192,0.733,0.561
		C37.077,21.604,36.929,21.358,36.814,20.9z"/>
</g>
</svg>
