<svg xmlns="http://www.w3.org/2000/svg" xml:space="preserve" width="72px" height="72px" viewBox="0 0 72 72">
    <g fill="currentColor">
        <path d="M58.4 39.1c-1.1-.4-1.4-1.2-1.6-2-.2-.7 0-1.3.2-1.9 0-.2.1-.4 0-.7-.3-.4-.3-.8-.3-1.3.1-.8-.4-1.4-.2-2.2 0-.3-.1-.6.2-.9 0 0 .1-.4 0-.5-.3-.2-.1-.5-.2-.8l-.6-.6c0-.5-.1-1 0-1.4q.3-.75 0-1.5c-.1-.2 0-.6.2-.9.4-.6.6-1.3.4-2.2-.2-.2-.5-.4-.9-.7-.5 0-.2.7-.4.9-.3.4 0 .8-.2 1.1-.1.4-.4.7-.7.9q-.6.6-.6 1.5c0 .4.1.9-.2 1.3-.1.2 0 1.1.2 1.5.3.6.2 1.1-.2 1.6v.3c-.1.1-.4 0-.5.3h-1.3c-.2.1-.3.5-.7.4-.2-.3.3-.6.2-1-.1-.3 0-.7-.1-.9-.2-.3 0-.7-.2-1-.1-.3-.5-.4-.8-.5-.8-.4-1.2-1-1.2-1.9v-1.4c-.3-.3-.5-.6-.6-1 .2-.4.3-.9.6-1.4.2-.3.1-.7 0-1-.2-.5-.4-.9-.3-1.5 0-.3-.2-.6-.3-.9h-.4s-.1 0-.1.1c0 .3-.3.4-.2.8.1.8 0 1.6-.4 2.4-.2.6-.3 1.1-.2 1.8.2.2.4.4.5.7s.2.6 0 .9c-.2.4-.4.8-.6 1.1.1.6.7 1.1.7 1.8-.2 0-.4.2-.6.3 0 0 0 .1.1.2h-1.8c-.4-.2-.6-.7-.8-1.2.4-.3.2-.9.4-1.3.1-.3.1-.7-.1-1.1-.3-.4-.4-.9-.1-1.5.2-.3 0-.8.1-1.2-.2-.7-.7-1-1.1-1.4 0-.4 0-.7.2-1.1.2-.6 0-1.3-.4-1.9-.3-.3-.1-.7-.4-1 0-.7-.3-1.1-.8-1.5h-.9c-.2.3-.5.5-.6.8 0 .2-.1.3-.1.5 0 .4.4.9.2 1.3s-.1.9-.2 1.4c.1.1.3.2.4.3.2.6 0 1-.2 1.2-.4.5-.7 1-1 1.6v.6c-.2.4-.4.6-.5.8-.8 0-1.3-.4-1.4-1-.1-.7-.6-1.2-1-1.8-.1-.2-.1-.4-.2-.7-.2-.2-.5-.4-.7-.7-.5-.5-1-1.1-1.8-1.2-.2 0-.6-.2-.7-.6-.2-.4-.7-.7-1-1.1.1-.4 0-.8.2-1.3.2-.4.4-.8.3-1.3 0-.2-.4 0-.5-.3-.2 0-.2.3-.4.2-.2.6-.7 1-.5 1.6-.6.7-1.5 1.1-2.1 2-.1.7-.4 1.5-.2 2.3-.9.7-.7 1.9-1.5 2.6v2.2c-.3.2-.5.5-.8.8h-.8l-.8-.8c-1-1-1-1.3-.3-2.4-.5-.4 0-1-.3-1.5s0-1-.1-1.6V18l-.7-.7c-.3 0-.3.3-.5.4-.1 1.5-.3 2.9-.5 4.4-.2.2-.3.4-.5.6-.8-.4-1.1-1-1.4-1.8q-.7.4-1 1c0 .2.2.3.2.5 0 .9 0 1.8-.3 2.7-.3.7-.4 1.5-.7 2.2-.1.3.2 1 .6 1.5v.9c-.2.2-.4.4-.5.7-.1.2-.4.4-.6.6-.4 0-.7.1-1-.3 0-.5-.1-.9-.2-1.4l-.9-.9c-.4-.9-.3-1.7-.9-2.3-.7 0-.8.8-1.2 1.1v.9c.4.2.4.6.7.9-.1.3-.2.6-.5.8q.15 1.35-.9 2.4c-.3.3-.3.8-.7 1.1h-.7l-.5-.5c0-.5-.1-1 .2-1.4-.3-.6-1-.7-1.3-1.1-.2-.2 0-.6-.2-.8s-.1-.4 0-.7c.2-.3.1-.6 0-1-.5-.9-.4-.9-.4-1.6.3-.3.7-.7 1.1-1v-1.3c.8-.6 1.3-1.5 1.7-2.4.2-.3.3-.7.6-1 .4-.3.6-.8.9-1.3.3-.7.8-1.4 1.3-1.9.6-.7 1.2-1.2 1.8-1.8.2-.2.3-.3.6-.3s.6-.3.7-.7c.2-.6.7-1 1.3-1.2.5-.2.8-.5 1.2-.8.3-.3.6-.6 1.1-.7h.3c.5-.6 1.3-.8 2-1.1.5-.3 1.1-.2 1.5-.5s.8-.7 1.3-.8c.6-.2 1-.6 1.7-.7.6 0 1.1-.2 1.7-.4.8-.3 1.7-.3 2.4-.6h.4c.4.3 1 .3 1.3.1.7-.3 1.3-.1 2-.2h2.2c.4 0 .6.3 1 .2h2.1l1.2.6c.6-.1 1.2.1 1.8.4s1.3.5 2 .6c.3 0 .6.2.7.3.5.4.9.9 1.7 1.2.5 0 1.2.3 1.8.7.8.5 1.5 1 2.3 1.5.3.2.5.4.7.6.9.9 1.7 1.8 2.9 2.5.4.2.7.6.9.9.1.2.3.4.4.6.5.4.7.9 1 1.4 0 .2.2.4.4.6.8.7 1.2 1.6 1.5 2.6.2.6.7 1.2.9 1.8.2.5.5 1 .5 1.6 0 .2 0 .2.1.4.3.6.5 1.2 0 1.8-.2.2-.4 0-.7 0 0-.3-.3-.5-.3-.8-.2-.7-.4-.7-1.1-.3 0 .7 0 1.4-.4 2.2-.3.5 0 1.1.3 1.6.2.5 0 .8-.1 1.2-.4.7-.7 1.4-.2 2.1 0 .7.2 1.4-.2 2.1-.1.2 0 .5 0 .7 0 .7-.2 1.2-.7 1.7-.1 0-.2.2-.3.3Zm-44-14.8c-.2.1-.4.2-.5.6.3 0 .2.3.3.5h.5q0-.7-.3-1.1m6.2-4.5c-.2.2-.2.4 0 .7.2-.2.2-.4 0-.7m20.3 34.1c.3-.5.5-.9.8-1.5-.1-1.1 0-2.3 1.6-2.8.9 0 2 .1 3.1 0 0 0 .1 0 .2-.2.3.4.8.2 1.2.3 1.2-.7 1.5-.6 2.3.5.3.3.4.8.9 1.1.5-.6 1.3-.8 1.8-1.3h4.3c.3-.5.9 0 1.4-.4.2-.2.7 0 1 0l1.1-1.1c.3 0 .4.2.5.3v.9c-.9.3-.9 1.1-.9 1.9-.5.8-1.3 1.4-1.6 2.5l-.9.9c-.3.3-.7.5-.7.8s-.3.6-.3.9c0 .1-.2 0-.3.1 0 0-.2.1-.2.2-.5-.2-1-.4-1.6-.6-.1-.6-.6-.8-.9-1.2-.3.2-.2.4-.2.6.2.5.7.5 1.1.9v.8c-.4.8-.7 1.6-1.7 1.9H52v-1.6c.2-.3.4-.6.4-.7 0-.5-.2-.5-.3-.7-.7 0-1.5 0-2.2-.4-.8.1-1.6-.4-2.3-.2-.7.3-1.2.7-2 .6-.8-.8-1.9-1-3-.8-.6 0-1.2.2-1.5.8 0 .2.1.3.3.5h2.5c.4 0 .7.2 1.1.3.2 0 .4.3.6.5v.8-.1c-.3.8-.8 1.3-.6 2 .2.1.5.3.8.5h1.8c.7 0 1.1.3 1.4 1.1-.8.8-1.7 1.4-2.9 1.4-.9 0-1.6.3-2.3.8-.5.3-1 .4-1.4.5-.8.2-1.7.1-2.5-.4-.7.5-1.6.8-2.5.7-.3 0-.6 0-.9.2s-1.2 0-1.7-.2c-.3-.7-.4-1.3-.1-2.1.2-.7.4-1.5.2-2.4-.2-.4-.8-.4-1.3-.6-.6 0-1 .4-1.2 1-.1.4-.5.6-.7.9 0 .5-.4 1-.2 1.6-.8.5-1.6.9-2.3 1.4-.9-.3-2-.4-2.7-1.3-1 0-1.9-.2-2.7-.9-.4-.3-.8-.6-1.4-.6-.4 0-.6-.2-.9-.4-1.1-.8-2.1-1.6-3.2-2.4-.7-.5-1.6-.9-1.9-1.9 0-.3-.4-.6-.8-.7-.3-.1-.5-.2-.6-.4-.6-1-1.8-1.5-2.5-2.6 0-.7.5-1.2 1-1.5.6-.3 1.1-.7 1.5-1.1.5.2.8.5 1.1.7.7.4 1.4.7 2.1 1.1l.2.2c.7-.2 1 .5 1.6.6.3 0 .9.3 1.2-.2.4.2.5.4.5.8-.6.5-1.1 1.2-2 1.6-.3 0-1-.2-1.4.4 0 .3.2.5.5.5.4 0 .7.5 1.1.1.2-.2.6 0 .8-.3h.5c.8.4 1.7.5 2.4.9.2.1.4.1.5 0 .7-.2 1.5-.1 1.9-.7l.6.6c.7 0 1.2.2 1.8.1.1 0 .2 0 .3.1.6.4 1.3.4 1.9 0 0-.2.1-.3.2-.4-.2-.1-.3-.2-.5-.3-.9-.4-1.8-.7-2.9-.6H27c-.8.5-1.4-.1-2.1-.3-.2 0-.3-.3-.4-.5-.3-.6-.5-1.1-.4-1.8.3 0 .6-.2.9 0 .2.2.5 0 .7 0h2.9c1 0 1.7.4 2.4 1 .5.4.9.9 1.4 1.4.3 0 .6.1.8-.1.4-.4.9-.6 1.3-.7.5-.2 1 .3 1.5.2.2 0 .5.1.6.2.4.3.9.4 1.4.6.9-.7 1.9-1.3 2.9-1.7Zm-2.3 5.8c-1.4-1.3-1.2-.9-1.4-2.3-.4-.2-.6.2-.9.2 0 .1 0 .3-.2.4-.2.2-.1.3-.1.6.7.5 1.4 1.1 1.6 2h.5c.3-.2.4-.6.5-.9m-1.4 3.7c.3 0 .4-.2.5-.3v-1c-.4 0-.9-.1-1.1.4.2.3.3.7.6.9"/>
        <path d="M50.7 59.1c.4 0 .8-.2 1 .3-.3.2 0 .8-.3.9s-.6 0-.8 0l-.3-.3c.1-.3.3-.6.5-.9Z"/>
    </g>
</svg>
