<svg xmlns="http://www.w3.org/2000/svg" xml:space="preserve" width="72px" height="72px" viewBox="0 0 72 72">
    <g fill="currentColor">
        <path d="m27.736 34.868-.58.58v.752l.903.742c-.197.693-.461 1.317-.051 1.941-.119.65.23 1.339-.191 1.976-.091.138-.055.378.107.584.468.594.375 1.195-.135 1.804v1.081c-.656.376-1.241.813-1.98.747-.58-.304-.809-.889-1.169-1.35-.167-.215-.319-.497-.315-.839.01-.86-.214-1.688-.393-2.526-.103-.48-.175-1.056.188-1.524-.158-.585-.454-1.136-.432-1.765.009-.27-.064-.561.17-.74-.268-.542-.448-1.086-.374-1.705l-.884-.805c.054-.685 0-1.315.187-1.983.175-.631.038-1.349.038-2.065h1.62c.059-.336.377-.535.328-.853-.018-.27-.211-.461-.385-.463-.64-.007-1.002-.428-1.394-.821-.672-.676-1.352-1.34-1.922-2.114-.281-.382-.296-.928-.762-1.185-.761.175-1.084.645-1.196 1.435-.056.397-.168.799-.179 1.262l.681.57c-.2.634.353.86.537 1.25.187.396.627.673.944.991 0 .599.003 1.175-.001 1.751-.004.518.078 1.051-.31 1.553-.148.069-.404.108-.533.351-.169 1.343.314 2.652.222 4.003-.03.434.29.879.439 1.319.116.341.18.658.181 1.001.003 1.724.001 3.447.001 5.132.28.389.815.396.962.934.088.32.149.59.034.884-.35.899-.458 1.888-1.03 2.693-.465.545-1.023.262-1.591.106-.34.598-.789 1.081-.999 1.766-.218.711-.5 1.53-1.489 1.513l-.849-.898a3.15 3.15 0 0 1 .182-1.34c.088-.24.107-.519.236-.768.155-.301-.265-.479-.209-.771.109-.578-.178-1.175.188-1.764.162-.26.053-.705.022-1.063a3.37 3.37 0 0 1 .338-1.806c.107-.217.157-.447.087-.601-.375-.819-.15-1.674-.194-2.509-.037-.718.138-1.478-.04-2.15-.299-1.132-.129-2.252-.173-3.375-.027-.692.383-1.354.155-2.122-.635-.648-.287-1.543-.399-2.34l-.338-.352c-.54.244-1.061.649-1.729.436l-.262-.262v-2.63c-.197-.688-1.011-.899-1.178-1.594h-.923c-.456.494-1.067.933-1.371 1.627-.057.128-.018.322.063.503.265.598.217 1.208-.079 1.791.409.646 1.038 1.065 1.654 1.432.39.232.633.481.807.865.193.424.349.883.626 1.246.212.279.112.539.158.805-.48.677-1.387.935-1.716 2.019.013.495.045.848 1.276 2.759.032.526.008 1.026-.365 1.467-.364.43-.148 1.07-.571 1.505l.942.792c0 .895-.01 1.716.006 2.536.005.269-.126.572.162.8.059.046.076.213.042.296-.434 1.064-.125 2.175-.197 3.261-.017.262-.136.45-.229.665.141.574.551.907 1.095 1.157-.073.487.058.945-.203 1.434-.196.364.043.848.342 1.117.333.301.252.629.284.959-.597.45-.999.446-1.563-.053-.35-.31-.665-.657-1.008-1l-.054-.496c-.508-.442-.861-.973-1.178-1.565-.365-.682-.829-1.327-1.235-1.983-.521-.843-1.113-1.674-1.452-2.629-.033-.094-.121-.168-.201-.273-.063-.372.107-.82-.228-1.169.112-.613-.25-1.282.216-1.854-.083-.479.043-.952-.123-1.458-.182-.551-.09-1.19-.113-1.702l.903-1.448c-.332-.346-.103-.955-.679-1.16.128-.963-.119-1.884-.255-2.939l-.584-.47c-.066-.592.267-.934.493-1.366-.618-.431-1.494-.553-1.572-1.482-.059-.658.593-.999.738-1.626.149-.647.004-1.268.12-1.835.462-.923 1.021-1.784 1.843-2.286.948-.579 1.29-1.592 2.021-2.305.053-.052.007-.206.007-.401-.253-.557-1.148-.654-1.286-1.41.162-.618.488-1.199.43-1.838.313-.428.739-.639 1.248-.843.141-.269-.01-.638.051-.894.309-.413.654-.374.987-.312.325.17.324.458.324.79h2.013l.389.776c-.219.46-.46.94-.032 1.418-.135.244-.318.47-.214.778l.306.306h.653l.798.857c1.079.125.986-1.11 1.685-1.347v-.895c-.222-.313-.57-.497-.71-.903-.072-.208-.377-.376-.61-.539-.424-.297-.97-.462-1.193-1.052-.115-.305-.482-.515-.727-.76.025-.69-.427-1.087-.858-1.502v-.915c.202-.191.403-.478.679-.617.326-.165.613-.476 1.117-.186.354.204.894.083 1.311.105.477-.434.214-1.077.625-1.537.339-.379.538-.917.929-1.458.396-.223.918-.532 1.551-.54.145-.293.476-.043.662-.228.146-.145.3-.279.533-.495l.318.658c-.21.373-.438.918-.416 1.577.013.403-.159.904-.424 1.205-.529.6-.717 1.248-.62 1.97-.56.825-1.276 1.537-1.068 2.619l.517.531h.871c.234-.256.549-.449.604-.826.548-.186.74.258 1.076.591-.501.602-1.147 1.136-.987 2.073.171.773.368 1.662 1.541 1.901l.474.554h1.07c-.172-.838.482-1.343.844-2.037.12-.413-.155-.946.275-1.402-.578-.868-1.102-1.777-1.828-2.573-.473-.518-1.003-1.041-1.229-1.748-.071-.222-.267-.32-.415-.515v-.899l.271-.271h1.357c.769.512 1.718.81 2.361 1.522.496.548.783 1.264 1.368 1.88h.799c.318-.303.539-.641.514-1.174-.713-.664-1.353-1.464-1.779-2.418a.4.4 0 0 0-.15-.152c-.783-.522-1.268-1.307-1.822-2.034-.151-.198-.352-.359-.516-.523.239-.978 1.067-1.107 1.854-1.287.275-.325.518-.655.472-1.125.666-.735 1.415-1.31 2.457-1.192.611.518.146 1.082.128 1.622-.367.195-.23.618-.391.921-.332.628-.299.809-.016 1.524.161.407.214.795.193 1.223.279.276.598.526.831.84.205.276.539.462.766.492.733.095 1.173.558 1.643 1.035v1.127l-1.725 1.659c.015.253-.082.523.173.619.84.318 1.536.988 2.49 1.025.029.001.059-.03.127-.067l.038-.725c.261-.11.529-.087.799-.029.023.628.023.628-.178 1.124.322.207.822.303.612.947-.236.36-.796.361-1.183.723-.067.979-.79 1.598-1.512 2.104-.574.402-.987.813-1.149 1.482-.023.096-.045.218-.112.274-.518.43-.774 1.046-1.159 1.568-.401.544-.949.98-1.432 1.464-.204.204-.448.381-.602.617-.255.393-.536.784-.272 1.321.258.525.128 1.104.072 1.658-.011.109-.223.183-.163.325-.036.688.856.984.589 1.853m-1.807-7.546c.766-.031.811-.723 1.246-.946.45-.23.639-.554.615-1.029-.025-.484.164-.868.546-1.229h1.527c.113-.178.246-.27.319-.451.248-.607.193-1.232.202-1.856.01-.705-.251-1.319-.637-1.891-.062-.091-.154-.142-.337-.108l-.327.409v1.044c-.203.627-.493.923-1.042 1.006-.511.077-.831.522-.871.996-.037.441-.349.788-.57.81-.547.056-.908.445-1.387.562-.089.24-.073.967-.018 1.446.063.559.382.939.734 1.237m21.303 17.863c-.271.213-.23.62-.616.765-.358-.238-.947-.157-1.191-.646-.342-.686-.861-1.284-1.004-2.067-.038-.211.106-.313.21-.441-.467-.752-.582-.831-1.414-.983-.158-.183-.051-.493-.377-.553.353-.354.198-.818.505-1.085-.128-.396-.305-.762-.643-1.033v-1.304c.285-.327.69-.579.841-1.045v-1.128l.461-.331c-.002-.811-.426-1.502-.174-2.303l.387-.386c-.103-.556.146-1.173-.201-1.79-.139-.246-.145-.713.003-.942.287-.445.216-.899.17-1.329-.066-.617.244-1.148.255-1.748.014-.757-.195-1.349-.765-1.854-.489-.435-.913-.893-1.034-1.627-.079-.477-.498-.924-.979-1.16a1.6 1.6 0 0 1-.42-.285c-.725-.7-1.273-1.531-1.791-2.387a12.3 12.3 0 0 0-1.401-1.91c-1.169-1.291-2.405-2.535-3.361-4.001-.429-.657-1.1-.964-1.702-1.352-.63-.406-.885-.919-.897-1.539.264-.571.789-.626 1.215-.813.557.249 1.193.397 1.637.935.411.497.906.924 1.371 1.39h.861c.271-.163.381-.46.54-.908v-.708c-.347-.209-.435-.666-.855-.905-.493-.28-.721-.828-.636-1.491l.586-.503h1.045c.434.656 1.25.826 1.966 1.27.572.095 1.146-.087 1.697-.391.088.2.357.139.516.284.061.502-.125 1.051.396 1.617.753.335 1.656.798 2.354 1.551.679-.091 1.196-.696 1.961-.402l.483.484v1.292c-.102.498-.6.66-.868 1.022a21 21 0 0 1-1.256 1.531c-.347.386-.689.75-.916 1.241a4.1 4.1 0 0 1-1.088 1.419c.08.774.937 1.169.656 1.936.397.169.754.284 1.061.59v1.182c1.337.539 1.785 1.803 2.413 3.067 0 2.392.032 4.908-.02 7.422-.016.784.358 1.507.233 2.285-.11.687-.222 1.366-.232 2.069-.012.779.458 1.52.22 2.282-.293.938-.177 1.885-.196 2.829-.022.935-.006 1.871-.006 2.887m-4.327-30.002c.064-1.077-.285-1.972-1.07-2.621-.018-.589-.026-.587-.396-1.226-.69.362-1.027 1.149-1.762 1.467-.21.092-.282.461-.473.648-.607.599-.852 1.234-.444 1.808.853.58 1.327 1.262 1.943 1.761.972-.379 1.477-1.242 2.202-1.837"/>
        <path d="M48.525 20.735c.261-1.341-.97-1.853-1.688-2.766V16.83c.091-.134.401-.003.49-.263H48.6c.809-.65 1.354-1.483 1.765-2.399.196-.439.545-.719.855-1.058h1.066c.317.797 1.458 1.173 1.179 2.295-.286.384-.781.334-1.182.491-.288.112-.501.213-.516.547-.015.323-.186.595-.386.807-.418.445-.542.953-.457 1.604l.871.753c.462.138 1.026-.492 1.699-.153 0 .189.086.465-.017.597-.273.354-.198.734-.195 1.11.007.868-.392 1.648-.529 2.486a1.1 1.1 0 0 1-.431.687c-.339.245-.588.587-.78 1.133-.036.294.068.719.211 1.155.136.417-.173.926.229 1.31-.116.987.641 1.842.432 2.844.225.323.096.788.298 1.057.404.537.399 1.118.338 1.696-.125 1.177.308 2.308.223 3.474-.016.216.202.289.216.451.06.691.33 1.357.226 2.069-.11.749.201 1.412.509 2.054.477.995.802 2.017.785 3.131-.008.504-.019 1.008.005 1.511.014.302-.065.596.165.909.152.207.137.633-.022.916-.346.613-.108 1.116.229 1.618.151.226.306.449.489.719-.065.355.189.816-.349 1.147h-1.464c-1.025-.59-2.739-1.954-3.277-2.828-.417-.678-.804-1.417-.747-2.278.046-.697.019-1.392-.348-2.013-.145-.245-.075-.484-.076-.723-.011-1.728.011-3.455-.015-5.182-.01-.619.09-1.234-.174-1.868-.171-.41-.098-.966.183-1.408-.281-.442-.354-1-.18-1.407.228-.53.11-1.035.19-1.531-.245-.307-.292-.732-.658-.913v-.889l.628-.621v-.666l-.777-.669c-.168-.877.038-1.54.355-2.205.294-.616.504-1.26.452-1.977-.05-.68-.011-1.367-.011-2.053-.435-.438-.709-.994-1.082-1.562"/>
        <path d="M59.073 53.02c-.356.054-.706.147-1.038-.303.012-.518.011-1.108.185-1.731.152-.549-.517-1.167.028-1.755v-3.772l-.856-1.195c-.063-.595.585-.738.641-1.217 0-.392-.027-.786.006-1.175.064-.745-.071-1.443-.442-2.085-.385-.666-.254-1.36-.1-2.03.046-.198.162-.439.09-.592-.387-.818-.099-1.677-.232-2.546.358-.314.676-.673.866-1.123-.995-1.385-1.755-2.984-3.2-4.012-.001-1.236-1.084-2.059-1.107-3.331l.685-.498h.543l1.004 1.003c.229.107.475.047.752.036.479-.826 1.271-1.529 1.136-2.645a1.92 1.92 0 0 0-1.191-.802l-.527-1.047c.393-.596-.017-1.545.845-1.982.747.338.93 1.146 1.369 1.758h1.371c.13.172.313.245.298.466-.023.371.152.676.419.9.601.506.73 1.158.645 1.917-.276.412-.378 1.053-1.109 1.02-.976.707-1.869 1.487-2.33 2.646-.024.062-.003.143-.003.214.538.812 1.431 1.237 2.089 1.92.529.55.918 1.202 1.354 1.819.063.09.044.261.166.36.719.584.953 1.466 1.407 2.215.233.384.003.819.367 1.161.336.316.446.796.544 1.281.085.419.196.78-.031 1.177-.169.293-.009.628-.056.83-.411.758-.717 1.431-.661 2.219.023.322.002.647.005.972.01 1.112-.331 2.123-.798 3.124a9.2 9.2 0 0 0-.727 2.183c-.086.456-.285.9-.592 1.26-.278.326-.536.664-.462 1.098.052.3-.316.396-.23.668-.561.398-.734 1.072-1.123 1.594M38.777 40.936c.535.21.598.662.438.925-.398.655.095 1.156.171 1.722.012.085.064.188.069.291.003.071 0 .144 0 .236l-.351.313c-.387.021-.815.022-1.257.196-.807.318-.817.162-1.974.054-.896-.084-1.824-.164-2.742.106-.494.146-1.051.076-1.586.104-.085.138-.301.19-.298.48l.644.457c.579.25 1.133-.2 1.751-.354.333-.083.657-.155.998-.183.269-.021.517-.018.802-.149.479-.221 1.011-.06 1.495.324.246.32.453.708.313 1.299-.988.676-1.787 1.772-3.082 2.201-.395 0-.789.003-1.184 0a3.1 3.1 0 0 1-1.106-.192c-.961-.363-1.115-.235-2.514-.062-.615.077-1.2.358-1.85.27-.362-.05-.684.361-1.076.174-.283.293-.692.468-.58 1.013.639.645 1.394.706 2.216.296.411.034.697.279 1.089.559-1.135.473-1.403 1.514-1.88 2.423-.215.409-.013.907-.364 1.254l-.666.34c-.888-.628-1.86-.938-3.049-.468-.256-.295-.688-.196-1.05-.204-1.08.609-1.68 1.448-1.466 2.685-.472.46-1.102.596-1.574.986-.106.088-.295.156-.313.257-.162.894-1.047 1.11-1.48 1.688-.271-.006-.541.059-.622-.195-.241-.766-.908-1.146-1.439-1.624-.005-.509.221-.879.544-1.208 1.034-1.054 2.108-2.057 3.322-2.911.463-.326.827-.797 1.228-1.209.142-.146.284-.433.275-.517-.059-.598.33-1.029.508-1.557.141-.107.357-.103.51-.281.315-.366.646-.762 1.148-.856.443-.084.385-.538.655-.744.088-.427-.142-.919.292-1.29 1.207-.663 2.421-1.476 3.919-1.191.422-.438.838-.794 1.014-1.364.075-.244.352-.433.551-.632.333-.331.51-.707.519-1.192.01-.582.397-1.119.192-1.619l.35-.437c1.156.319 2.308.569 3.5.463.399-.036.738.174 1.064.303.365.146.647.227.963-.009.2-.148.416-.07.618-.067a3.26 3.26 0 0 0 2.345-.904m12.887 11.261c.374.4.785.689.961 1.412v.607c-.364.613-.97.838-1.613 1.016-.521 1.097-1.108 1.683-2.586 2.565h-1.091c-.37-.337-.784-.702-.748-1.355-.059-.067-.117-.156-.195-.221-.819-.683-.804-1.583-.567-2.479.109-.414.072-.882.44-1.286.315-.146.723-.298 1.037-.64.512-.556 1.039-.893 1.895-.521.422.183.864.301 1.283.546.321.188.713.385 1.184.356m-14.455 4.135c-.318-.453-.756-.124-1.067-.267-.298.277-.593.431-1.021.477-.55-.324-.777-.942-1.135-1.47-.318-.469-.393-.943-.357-1.451l1.338-2.286c.241 0 .465-.045.66.011.297.085.402-.292.668-.227.218-.748.948-.758 1.552-1.011.344.133.702.296.859.78.124.381.575.496.906.643.389.173.613.414.743.803.381.184.756.438 1.236.257v.711c-.363-.076-.651-.211-.988-.446-.875 1.384-2.395 2.161-3.394 3.476m3.975 4.219c0-.134.016-.184-.003-.203-.209-.24-.424-.475-.615-.687-.194-.697.234-1.306.201-1.978.421-.355.731-.84 1.279-1.067.338-.142.426-.535.602-.823.189-.313.247-.703.548-.959.479-.189.849.098 1.24.293 1.07 1.458.638 2.245-.404 2.749-.512 1.063-.112 2.217-.293 3.325l-.286.286c-.333-.041-.745.125-1.104-.192-.193.165-.445.373-.288.621.38.602.095 1.241.225 1.807-.285.293-.356.631-.509.97h-1.384l-.253-.252c-.265-.541.439-1.102.161-1.642-.284-.551-.141-1.096-.206-1.627l.473-.473c.157-.193.424.031.616-.148"/>
        <path d="M33.204 55.327c-.315.174-.181.646-.578.741-.645.05-1.048-.393-1.458-.819-.355-.046-.64-.016-.971.233-.626.471-1.393.602-2.213.577.049-.392.261-.622.396-.888.105-.207.266-.429.261-.641-.015-.716.43-1.145.882-1.576v-1.757c.714-.284 1.373-.685 2.011-1.12.536-.134 1.018-.007 1.445.293.673.66.473 1.429.188 2.114-.219.526-.269.972-.05 1.481.191.444.012.916.087 1.362m1.281 6.272-.407.407v1.095c.256.319.598.652.635 1.175.03.434-.325.657-.373.979-.37.2-.694.084-.999.124-.715-.563-.064-1.495-.613-2.154.392-.38.198-.893.267-1.409-.794-.581-1.195-1.533-1.962-2.15v-.88l.755-.74c.914-.118 1.91.295 2.63-.459.296.032.353.238.502.333 0 .645.044 1.292-.013 1.932-.053.596-.505 1.111-.422 1.747M54.153 55c.632.05.935.553 1.425.686.361.525.42 1.061-.022 1.653-.828.285-1.353 1.215-2.291 1.417-.251.391-.435.745-.468 1.174-.753.117-1.119.858-1.831 1.096-1.096-.698-1.152-.809-1.127-2.252.102-.102.211-.299.303-.29 1.125.1 1.489-.737 1.931-1.506.509-.887 1.205-1.582 2.08-1.978m-17.102 5.31c.076-.489.557-.658.765-.962.43-.097.643.215.969.259v1.394l-.45.279c.15 1.305.536 2.536-.05 3.864l-.464.44h-1.123c-.176-.19-.379-.442-.615-.659-.482-.444-.776-.941-.747-1.638.02-.467-.177-.916-.443-1.376.396-.887 1.28-1.139 2.158-1.601m6.418-14.853.79.39c.274.583.753 1.123.556 1.966-.391.391-.826.867-1.307 1.293-.348.308-.589.682-.809 1.072-.53.942-1.54.961-2.175.076-.38-.529-.614-1.11-.844-1.738.124-.543.579-.888.956-1.277.533.01.915-.262 1.267-.615.44-.442.834-.947 1.566-1.167M25.822 63.281l.512-1.051c.294-.043.486-.307.7-.529.308-.32.679-.442 1.117-.434.644.014 1.288.004 1.921.004.617.675.688 1.656 1.386 2.261v.876c-.687.784-1.592.897-2.539.656-.236-.061-.474-.143-.698-.108-.317.05-.634-.141-.742-.267-.484-.559-1.208-.835-1.657-1.408m-4.919-2.395c-.069-.716.079-1.202.385-1.708.342-.562.382-1.235.083-1.91l.641-1.293c.25.014.443-.229.671-.347.379-.195.648-.251 1.06-.062.329.151.758.087 1.147.118l.523.504v.657a10 10 0 0 0-1.533 1.957c-.091.148-.255.252-.375.385-.349.388-.732.729-1.017 1.192-.28.456-.724.845-1.323.93-.094.221-.121.483-.494.592-.057-.003-.236.076-.423-.066l-.025-.454zm4.048-1.092c.72-.296 1.092-.759 1.361-1.402.164-.39.648-.646 1.04-1.008h.979c.195.254.6.213.77.586-.167.68-.705 1.132-1.246 1.554-.114.09-.337.132-.413.273-.372.693-1.122.996-1.595 1.588.163.374-.304.608-.22.981.081.354-.086.668-.308 1.034a1.05 1.05 0 0 1-1.311.007c-.44-.324-.61-.823-.535-1.354.502-.749 1.745-.95 1.478-2.259m19.963 4.326c-.18-.651.135-1.034.373-1.533-.073-.45.173-1.033-.214-1.534.417-.571.12-1.229.232-1.849.126-.106.247-.229.213-.44.306-.027.49-.388.784-.314.374.061.452.4.689.505.153.633-.382 1.154-.142 1.813.189.19.375.507.761.558.177.185-.142.539.248.629-.039.082-.066.13-.085.182-.175.474-.487.836-.976.963-.53.137-.741.688-1.252.869-.208.072-.397.055-.631.151m10.837-45.311-.67.342h-.488l-.487-.316c.114-.404.397-.56.625-.78.328.175.721.227 1.02.754"/>
    </g>
</svg>
