<?xml version="1.0" encoding="iso-8859-1"?>
<!-- Generator: Adobe Illustrator 16.0.0, SVG Export Plug-In . SVG Version: 6.00 Build 0)  -->
<!DOCTYPE svg PUBLIC "-//W3C//DTD SVG 1.1//EN" "http://www.w3.org/Graphics/SVG/1.1/DTD/svg11.dtd">
<svg version="1.1" id="Layer_1" xmlns="http://www.w3.org/2000/svg" xmlns:xlink="http://www.w3.org/1999/xlink" x="0px" y="0px"
	 width="72.36px" height="72.18px" viewBox="0 0 72.36 72.18" style="enable-background:new 0 0 72.36 72.18;" xml:space="preserve"
	>
<g>
	
	<path fill="currentColor" d="M27.736,34.868c-0.16,0.16-0.364,0.364-0.58,0.58c0,0.2,0,0.413,0,0.752
		c0.253,0.208,0.583,0.479,0.903,0.742c-0.197,0.693-0.461,1.317-0.051,1.941c-0.119,0.65,0.23,1.339-0.191,1.976
		c-0.091,0.138-0.055,0.378,0.107,0.584c0.468,0.594,0.375,1.195-0.135,1.804c0,0.34,0,0.726,0,1.081
		c-0.656,0.376-1.241,0.813-1.98,0.747c-0.58-0.304-0.809-0.889-1.169-1.35c-0.167-0.215-0.319-0.497-0.315-0.839
		c0.01-0.86-0.214-1.688-0.393-2.526c-0.103-0.48-0.175-1.056,0.188-1.524c-0.158-0.585-0.454-1.136-0.432-1.765
		c0.009-0.27-0.064-0.561,0.17-0.74c-0.268-0.542-0.448-1.086-0.374-1.705c-0.288-0.262-0.578-0.526-0.884-0.805
		c0.054-0.685,0-1.315,0.187-1.983c0.175-0.631,0.038-1.349,0.038-2.065c0.56,0,1.09,0,1.62,0c0.059-0.336,0.377-0.535,0.328-0.853
		c-0.018-0.27-0.211-0.461-0.385-0.463c-0.64-0.007-1.002-0.428-1.394-0.821c-0.672-0.676-1.352-1.34-1.922-2.114
		c-0.281-0.382-0.296-0.928-0.762-1.185c-0.761,0.175-1.084,0.645-1.196,1.435c-0.056,0.397-0.168,0.799-0.179,1.262
		c0.219,0.183,0.464,0.389,0.681,0.57c-0.2,0.634,0.353,0.86,0.537,1.25c0.187,0.396,0.627,0.673,0.944,0.991
		c0,0.599,0.003,1.175-0.001,1.751c-0.004,0.518,0.078,1.051-0.31,1.553c-0.148,0.069-0.404,0.108-0.533,0.351
		c-0.169,1.343,0.314,2.652,0.222,4.003c-0.03,0.434,0.29,0.879,0.439,1.319c0.116,0.341,0.18,0.658,0.181,1.001
		c0.003,1.724,0.001,3.447,0.001,5.132c0.28,0.389,0.815,0.396,0.962,0.934c0.088,0.32,0.149,0.59,0.034,0.884
		c-0.35,0.899-0.458,1.888-1.03,2.693c-0.465,0.545-1.023,0.262-1.591,0.106c-0.34,0.598-0.789,1.081-0.999,1.766
		c-0.218,0.711-0.5,1.53-1.489,1.513c-0.258-0.272-0.5-0.53-0.849-0.898c-0.032-0.336-0.005-0.829,0.182-1.34
		c0.088-0.24,0.107-0.519,0.236-0.768c0.155-0.301-0.265-0.479-0.209-0.771c0.109-0.578-0.178-1.175,0.188-1.764
		c0.162-0.26,0.053-0.705,0.022-1.063C16.5,45.609,16.612,45,16.891,44.441c0.107-0.217,0.157-0.447,0.087-0.601
		c-0.375-0.819-0.15-1.674-0.194-2.509c-0.037-0.718,0.138-1.478-0.04-2.15c-0.299-1.132-0.129-2.252-0.173-3.375
		c-0.027-0.692,0.383-1.354,0.155-2.122c-0.635-0.648-0.287-1.543-0.399-2.34c-0.106-0.111-0.206-0.215-0.338-0.352
		c-0.54,0.244-1.061,0.649-1.729,0.436c-0.071-0.071-0.147-0.147-0.262-0.262c0-0.85,0-1.74,0-2.63
		c-0.197-0.688-1.011-0.899-1.178-1.594c-0.288,0-0.572,0-0.923,0c-0.456,0.494-1.067,0.933-1.371,1.627
		c-0.057,0.128-0.018,0.322,0.063,0.503c0.265,0.598,0.217,1.208-0.079,1.791c0.409,0.646,1.038,1.065,1.654,1.432
		c0.39,0.232,0.633,0.481,0.807,0.865c0.193,0.424,0.349,0.883,0.626,1.246c0.212,0.279,0.112,0.539,0.158,0.805
		c-0.48,0.677-1.387,0.935-1.716,2.019c0.013,0.495,0.045,0.848,1.276,2.759c0.032,0.526,0.008,1.026-0.365,1.467
		c-0.364,0.43-0.148,1.07-0.571,1.505c0.351,0.296,0.652,0.549,0.942,0.792c0,0.895-0.01,1.716,0.006,2.536
		c0.005,0.269-0.126,0.572,0.162,0.8c0.059,0.046,0.076,0.213,0.042,0.296c-0.434,1.064-0.125,2.175-0.197,3.261
		c-0.017,0.262-0.136,0.45-0.229,0.665c0.141,0.574,0.551,0.907,1.095,1.157c-0.073,0.487,0.058,0.945-0.203,1.434
		c-0.196,0.364,0.043,0.848,0.342,1.117c0.333,0.301,0.252,0.629,0.284,0.959c-0.597,0.45-0.999,0.446-1.563-0.053
		c-0.35-0.31-0.665-0.657-1.008-1c-0.017-0.157-0.035-0.327-0.054-0.496c-0.508-0.442-0.861-0.973-1.178-1.565
		c-0.365-0.682-0.829-1.327-1.235-1.983c-0.521-0.843-1.113-1.674-1.452-2.629c-0.033-0.094-0.121-0.168-0.201-0.273
		c-0.063-0.372,0.107-0.82-0.228-1.169c0.112-0.613-0.25-1.282,0.216-1.854c-0.083-0.479,0.043-0.952-0.123-1.458
		c-0.182-0.551-0.09-1.19-0.113-1.702c0.336-0.539,0.621-0.996,0.903-1.448c-0.332-0.346-0.103-0.955-0.679-1.16
		c0.128-0.963-0.119-1.884-0.255-2.939c-0.155-0.125-0.404-0.325-0.584-0.47c-0.066-0.592,0.267-0.934,0.493-1.366
		c-0.618-0.431-1.494-0.553-1.572-1.482c-0.059-0.658,0.593-0.999,0.738-1.626c0.149-0.647,0.004-1.268,0.12-1.835
		c0.462-0.923,1.021-1.784,1.843-2.286c0.948-0.579,1.29-1.592,2.021-2.305c0.053-0.052,0.007-0.206,0.007-0.401
		c-0.253-0.557-1.148-0.654-1.286-1.41c0.162-0.618,0.488-1.199,0.43-1.838c0.313-0.428,0.739-0.639,1.248-0.843
		c0.141-0.269-0.01-0.638,0.051-0.894c0.309-0.413,0.654-0.374,0.987-0.312c0.325,0.17,0.324,0.458,0.324,0.79
		c0.671,0,1.344,0,2.013,0c0.137,0.273,0.254,0.508,0.389,0.776c-0.219,0.46-0.46,0.94-0.032,1.418
		c-0.135,0.244-0.318,0.47-0.214,0.778c0.097,0.097,0.198,0.198,0.306,0.306c0.208,0,0.422,0,0.653,0
		c0.264,0.283,0.533,0.572,0.798,0.857c1.079,0.125,0.986-1.11,1.685-1.347c0-0.328,0-0.616,0-0.895
		c-0.222-0.313-0.57-0.497-0.71-0.903c-0.072-0.208-0.377-0.376-0.61-0.539c-0.424-0.297-0.97-0.462-1.193-1.052
		c-0.115-0.305-0.482-0.515-0.727-0.76c0.025-0.69-0.427-1.087-0.858-1.502c0-0.284,0-0.57,0-0.915
		c0.202-0.191,0.403-0.478,0.679-0.617c0.326-0.165,0.613-0.476,1.117-0.186c0.354,0.204,0.894,0.083,1.311,0.105
		c0.477-0.434,0.214-1.077,0.625-1.537c0.339-0.379,0.538-0.917,0.929-1.458c0.396-0.223,0.918-0.532,1.551-0.54
		c0.145-0.293,0.476-0.043,0.662-0.228c0.146-0.145,0.3-0.279,0.533-0.495c0.113,0.233,0.191,0.397,0.318,0.658
		c-0.21,0.373-0.438,0.918-0.416,1.577c0.013,0.403-0.159,0.904-0.424,1.205c-0.529,0.6-0.717,1.248-0.62,1.97
		c-0.56,0.825-1.276,1.537-1.068,2.619c0.171,0.176,0.347,0.356,0.517,0.531c0.297,0,0.584,0,0.871,0
		c0.234-0.256,0.549-0.449,0.604-0.826c0.548-0.186,0.74,0.258,1.076,0.591c-0.501,0.602-1.147,1.136-0.987,2.073
		c0.171,0.773,0.368,1.662,1.541,1.901c0.109,0.127,0.295,0.345,0.474,0.554c0.356,0,0.669,0,1.07,0
		c-0.172-0.838,0.482-1.343,0.844-2.037c0.12-0.413-0.155-0.946,0.275-1.402c-0.578-0.868-1.102-1.777-1.828-2.573
		c-0.473-0.518-1.003-1.041-1.229-1.748c-0.071-0.222-0.267-0.32-0.415-0.515c0-0.284,0-0.597,0-0.899
		c0.087-0.087,0.164-0.164,0.271-0.271c0.425,0,0.883,0,1.357,0c0.769,0.512,1.718,0.81,2.361,1.522
		c0.496,0.548,0.783,1.264,1.368,1.88c0.18,0,0.494,0,0.799,0c0.318-0.303,0.539-0.641,0.514-1.174
		c-0.713-0.664-1.353-1.464-1.779-2.418c-0.027-0.062-0.092-0.113-0.15-0.152c-0.783-0.522-1.268-1.307-1.822-2.034
		c-0.151-0.198-0.352-0.359-0.516-0.523c0.239-0.978,1.067-1.107,1.854-1.287c0.275-0.325,0.518-0.655,0.472-1.125
		c0.666-0.735,1.415-1.31,2.457-1.192c0.611,0.518,0.146,1.082,0.128,1.622c-0.367,0.195-0.23,0.618-0.391,0.921
		c-0.332,0.628-0.299,0.809-0.016,1.524c0.161,0.407,0.214,0.795,0.193,1.223c0.279,0.276,0.598,0.526,0.831,0.84
		c0.205,0.276,0.539,0.462,0.766,0.492c0.733,0.095,1.173,0.558,1.643,1.035c0,0.35,0,0.708,0,1.127
		c-0.56,0.538-1.154,1.109-1.725,1.659c0.015,0.253-0.082,0.523,0.173,0.619c0.84,0.318,1.536,0.988,2.49,1.025
		c0.029,0.001,0.059-0.03,0.127-0.067c0.012-0.218,0.024-0.46,0.038-0.725c0.261-0.11,0.529-0.087,0.799-0.029
		c0.023,0.628,0.023,0.628-0.178,1.124c0.322,0.207,0.822,0.303,0.612,0.947c-0.236,0.36-0.796,0.361-1.183,0.723
		c-0.067,0.979-0.79,1.598-1.512,2.104c-0.574,0.402-0.987,0.813-1.149,1.482c-0.023,0.096-0.045,0.218-0.112,0.274
		c-0.518,0.43-0.774,1.046-1.159,1.568c-0.401,0.544-0.949,0.98-1.432,1.464c-0.204,0.204-0.448,0.381-0.602,0.617
		c-0.255,0.393-0.536,0.784-0.272,1.321c0.258,0.525,0.128,1.104,0.072,1.658c-0.011,0.109-0.223,0.183-0.163,0.325
		C27.111,33.703,28.003,33.999,27.736,34.868z M25.929,27.322c0.766-0.031,0.811-0.723,1.246-0.946
		c0.45-0.23,0.639-0.554,0.615-1.029c-0.025-0.484,0.164-0.868,0.546-1.229c0.488,0,1.018,0,1.527,0
		c0.113-0.178,0.246-0.27,0.319-0.451c0.248-0.607,0.193-1.232,0.202-1.856c0.01-0.705-0.251-1.319-0.637-1.891
		c-0.062-0.091-0.154-0.142-0.337-0.108c-0.072,0.091-0.181,0.226-0.327,0.409c0,0.35,0,0.779,0,1.044
		c-0.203,0.627-0.493,0.923-1.042,1.006c-0.511,0.077-0.831,0.522-0.871,0.996c-0.037,0.441-0.349,0.788-0.57,0.81
		c-0.547,0.056-0.908,0.445-1.387,0.562c-0.089,0.24-0.073,0.967-0.018,1.446C25.258,26.644,25.577,27.024,25.929,27.322z"/>
	<path fill="currentColor" d="M47.232,45.185c-0.271,0.213-0.23,0.62-0.616,0.765
		c-0.358-0.238-0.947-0.157-1.191-0.646c-0.342-0.686-0.861-1.284-1.004-2.067c-0.038-0.211,0.106-0.313,0.21-0.441
		c-0.467-0.752-0.582-0.831-1.414-0.983c-0.158-0.183-0.051-0.493-0.377-0.553c0.353-0.354,0.198-0.818,0.505-1.085
		c-0.128-0.396-0.305-0.762-0.643-1.033c0-0.429,0-0.858,0-1.304c0.285-0.327,0.69-0.579,0.841-1.045c0-0.355,0-0.71,0-1.128
		c0.146-0.105,0.32-0.23,0.461-0.331c-0.002-0.811-0.426-1.502-0.174-2.303c0.075-0.076,0.203-0.203,0.387-0.386
		c-0.103-0.556,0.146-1.173-0.201-1.79c-0.139-0.246-0.145-0.713,0.003-0.942c0.287-0.445,0.216-0.899,0.17-1.329
		c-0.066-0.617,0.244-1.148,0.255-1.748c0.014-0.757-0.195-1.349-0.765-1.854c-0.489-0.435-0.913-0.893-1.034-1.627
		c-0.079-0.477-0.498-0.924-0.979-1.16c-0.163-0.08-0.298-0.167-0.42-0.285c-0.725-0.7-1.273-1.531-1.791-2.387
		c-0.409-0.677-0.862-1.314-1.401-1.91c-1.169-1.291-2.405-2.535-3.361-4.001c-0.429-0.657-1.1-0.964-1.702-1.352
		c-0.63-0.406-0.885-0.919-0.897-1.539c0.264-0.571,0.789-0.626,1.215-0.813c0.557,0.249,1.193,0.397,1.637,0.935
		c0.411,0.497,0.906,0.924,1.371,1.39c0.278,0,0.564,0,0.861,0c0.271-0.163,0.381-0.46,0.54-0.908c0-0.105,0-0.39,0-0.708
		c-0.347-0.209-0.435-0.666-0.855-0.905c-0.493-0.28-0.721-0.828-0.636-1.491c0.156-0.134,0.346-0.297,0.586-0.503
		c0.274,0,0.63,0,1.045,0c0.434,0.656,1.25,0.826,1.966,1.27c0.572,0.095,1.146-0.087,1.697-0.391
		c0.088,0.2,0.357,0.139,0.516,0.284c0.061,0.502-0.125,1.051,0.396,1.617c0.753,0.335,1.656,0.798,2.354,1.551
		c0.679-0.091,1.196-0.696,1.961-0.402c0.126,0.126,0.304,0.304,0.483,0.484c0,0.43,0,0.861,0,1.292
		c-0.102,0.498-0.6,0.66-0.868,1.022c-0.394,0.529-0.814,1.041-1.256,1.531c-0.347,0.386-0.689,0.75-0.916,1.241
		c-0.255,0.554-0.644,1.047-1.088,1.419c0.08,0.774,0.937,1.169,0.656,1.936c0.397,0.169,0.754,0.284,1.061,0.59
		c0,0.35,0,0.737,0,1.182c1.337,0.539,1.785,1.803,2.413,3.067c0,2.392,0.032,4.908-0.02,7.422
		c-0.016,0.784,0.358,1.507,0.233,2.285c-0.11,0.687-0.222,1.366-0.232,2.069c-0.012,0.779,0.458,1.52,0.22,2.282
		c-0.293,0.938-0.177,1.885-0.196,2.829C47.216,43.233,47.232,44.169,47.232,45.185z M42.905,15.183
		c0.064-1.077-0.285-1.972-1.07-2.621c-0.018-0.589-0.026-0.587-0.396-1.226c-0.69,0.362-1.027,1.149-1.762,1.467
		c-0.21,0.092-0.282,0.461-0.473,0.648c-0.607,0.599-0.852,1.234-0.444,1.808c0.853,0.58,1.327,1.262,1.943,1.761
		C41.675,16.641,42.18,15.778,42.905,15.183z"/>
	<path fill="currentColor" d="M48.525,20.735c0.261-1.341-0.97-1.853-1.688-2.766c0-0.316,0-0.702,0-1.139
		c0.091-0.134,0.401-0.003,0.49-0.263c0.427,0,0.856,0,1.273,0c0.809-0.65,1.354-1.483,1.765-2.399
		c0.196-0.439,0.545-0.719,0.855-1.058c0.352,0,0.71,0,1.066,0c0.317,0.797,1.458,1.173,1.179,2.295
		c-0.286,0.384-0.781,0.334-1.182,0.491c-0.288,0.112-0.501,0.213-0.516,0.547c-0.015,0.323-0.186,0.595-0.386,0.807
		c-0.418,0.445-0.542,0.953-0.457,1.604c0.221,0.191,0.49,0.424,0.871,0.753c0.462,0.138,1.026-0.492,1.699-0.153
		c0,0.189,0.086,0.465-0.017,0.597c-0.273,0.354-0.198,0.734-0.195,1.11c0.007,0.868-0.392,1.648-0.529,2.486
		c-0.037,0.232-0.181,0.505-0.431,0.687c-0.339,0.245-0.588,0.587-0.78,1.133c-0.036,0.294,0.068,0.719,0.211,1.155
		c0.136,0.417-0.173,0.926,0.229,1.31c-0.116,0.987,0.641,1.842,0.432,2.844c0.225,0.323,0.096,0.788,0.298,1.057
		c0.404,0.537,0.399,1.118,0.338,1.696c-0.125,1.177,0.308,2.308,0.223,3.474c-0.016,0.216,0.202,0.289,0.216,0.451
		c0.06,0.691,0.33,1.357,0.226,2.069c-0.11,0.749,0.201,1.412,0.509,2.054c0.477,0.995,0.802,2.017,0.785,3.131
		c-0.008,0.504-0.019,1.008,0.005,1.511c0.014,0.302-0.065,0.596,0.165,0.909c0.152,0.207,0.137,0.633-0.022,0.916
		c-0.346,0.613-0.108,1.116,0.229,1.618c0.151,0.226,0.306,0.449,0.489,0.719c-0.065,0.355,0.189,0.816-0.349,1.147
		c-0.427,0-0.925,0-1.464,0c-1.025-0.59-2.739-1.954-3.277-2.828c-0.417-0.678-0.804-1.417-0.747-2.278
		c0.046-0.697,0.019-1.392-0.348-2.013c-0.145-0.245-0.075-0.484-0.076-0.723c-0.011-1.728,0.011-3.455-0.015-5.182
		c-0.01-0.619,0.09-1.234-0.174-1.868c-0.171-0.41-0.098-0.966,0.183-1.408c-0.281-0.442-0.354-1-0.18-1.407
		c0.228-0.53,0.11-1.035,0.19-1.531c-0.245-0.307-0.292-0.732-0.658-0.913c0-0.309,0-0.596,0-0.889
		c0.202-0.2,0.406-0.402,0.628-0.621c0-0.196,0-0.406,0-0.666c-0.26-0.224-0.557-0.479-0.777-0.669
		c-0.168-0.877,0.038-1.54,0.355-2.205c0.294-0.616,0.504-1.26,0.452-1.977c-0.05-0.68-0.011-1.367-0.011-2.053
		C49.172,21.859,48.898,21.303,48.525,20.735z"/>
	<path fill="currentColor" d="M59.073,53.02c-0.356,0.054-0.706,0.147-1.038-0.303
		c0.012-0.518,0.011-1.108,0.185-1.731c0.152-0.549-0.517-1.167,0.028-1.755c0-0.611,0-1.224,0-1.835c0-0.647,0-1.295,0-1.937
		c-0.299-0.418-0.596-0.832-0.856-1.195c-0.063-0.595,0.585-0.738,0.641-1.217c0-0.392-0.027-0.786,0.006-1.175
		c0.064-0.745-0.071-1.443-0.442-2.085c-0.385-0.666-0.254-1.36-0.1-2.03c0.046-0.198,0.162-0.439,0.09-0.592
		c-0.387-0.818-0.099-1.677-0.232-2.546c0.358-0.314,0.676-0.673,0.866-1.123c-0.995-1.385-1.755-2.984-3.2-4.012
		c-0.001-1.236-1.084-2.059-1.107-3.331c0.166-0.121,0.368-0.268,0.685-0.498c0.065,0,0.307,0,0.543,0
		c0.336,0.336,0.667,0.667,1.004,1.003c0.229,0.107,0.475,0.047,0.752,0.036c0.479-0.826,1.271-1.529,1.136-2.645
		c-0.3-0.448-0.737-0.697-1.191-0.802c-0.194-0.385-0.358-0.712-0.527-1.047c0.393-0.596-0.017-1.545,0.845-1.982
		c0.747,0.338,0.93,1.146,1.369,1.758c0.483,0,0.94,0,1.371,0c0.13,0.172,0.313,0.245,0.298,0.466
		c-0.023,0.371,0.152,0.676,0.419,0.9c0.601,0.506,0.73,1.158,0.645,1.917c-0.276,0.412-0.378,1.053-1.109,1.02
		c-0.976,0.707-1.869,1.487-2.33,2.646c-0.024,0.062-0.003,0.143-0.003,0.214c0.538,0.812,1.431,1.237,2.089,1.92
		c0.529,0.55,0.918,1.202,1.354,1.819c0.063,0.09,0.044,0.261,0.166,0.36c0.719,0.584,0.953,1.466,1.407,2.215
		c0.233,0.384,0.003,0.819,0.367,1.161c0.336,0.316,0.446,0.796,0.544,1.281c0.085,0.419,0.196,0.78-0.031,1.177
		c-0.169,0.293-0.009,0.628-0.056,0.83c-0.411,0.758-0.717,1.431-0.661,2.219c0.023,0.322,0.002,0.647,0.005,0.972
		c0.01,1.112-0.331,2.123-0.798,3.124c-0.321,0.689-0.583,1.417-0.727,2.183c-0.086,0.456-0.285,0.9-0.592,1.26
		c-0.278,0.326-0.536,0.664-0.462,1.098c0.052,0.3-0.316,0.396-0.23,0.668C59.635,51.824,59.462,52.498,59.073,53.02z"/>
	<path fill="currentColor" d="M38.777,40.936c0.535,0.21,0.598,0.662,0.438,0.925
		c-0.398,0.655,0.095,1.156,0.171,1.722c0.012,0.085,0.064,0.188,0.069,0.291c0.003,0.071,0,0.144,0,0.236
		c-0.096,0.085-0.202,0.181-0.351,0.313c-0.387,0.021-0.815,0.022-1.257,0.196c-0.807,0.318-0.817,0.162-1.974,0.054
		c-0.896-0.084-1.824-0.164-2.742,0.106c-0.494,0.146-1.051,0.076-1.586,0.104c-0.085,0.138-0.301,0.19-0.298,0.48
		c0.184,0.131,0.414,0.294,0.644,0.457c0.579,0.25,1.133-0.2,1.751-0.354c0.333-0.083,0.657-0.155,0.998-0.183
		c0.269-0.021,0.517-0.018,0.802-0.149c0.479-0.221,1.011-0.06,1.495,0.324c0.246,0.32,0.453,0.708,0.313,1.299
		c-0.988,0.676-1.787,1.772-3.082,2.201c-0.395,0-0.789,0.003-1.184,0c-0.378-0.004-0.729-0.051-1.106-0.192
		c-0.961-0.363-1.115-0.235-2.514-0.062c-0.615,0.077-1.2,0.358-1.85,0.27c-0.362-0.05-0.684,0.361-1.076,0.174
		c-0.283,0.293-0.692,0.468-0.58,1.013c0.639,0.645,1.394,0.706,2.216,0.296c0.411,0.034,0.697,0.279,1.089,0.559
		c-1.135,0.473-1.403,1.514-1.88,2.423c-0.215,0.409-0.013,0.907-0.364,1.254c-0.208,0.106-0.416,0.212-0.666,0.34
		c-0.888-0.628-1.86-0.938-3.049-0.468c-0.256-0.295-0.688-0.196-1.05-0.204c-1.08,0.609-1.68,1.448-1.466,2.685
		c-0.472,0.46-1.102,0.596-1.574,0.986c-0.106,0.088-0.295,0.156-0.313,0.257c-0.162,0.894-1.047,1.11-1.48,1.688
		c-0.271-0.006-0.541,0.059-0.622-0.195c-0.241-0.766-0.908-1.146-1.439-1.624c-0.005-0.509,0.221-0.879,0.544-1.208
		c1.034-1.054,2.108-2.057,3.322-2.911c0.463-0.326,0.827-0.797,1.228-1.209c0.142-0.146,0.284-0.433,0.275-0.517
		c-0.059-0.598,0.33-1.029,0.508-1.557c0.141-0.107,0.357-0.103,0.51-0.281c0.315-0.366,0.646-0.762,1.148-0.856
		c0.443-0.084,0.385-0.538,0.655-0.744c0.088-0.427-0.142-0.919,0.292-1.29c1.207-0.663,2.421-1.476,3.919-1.191
		c0.422-0.438,0.838-0.794,1.014-1.364c0.075-0.244,0.352-0.433,0.551-0.632c0.333-0.331,0.51-0.707,0.519-1.192
		c0.01-0.582,0.397-1.119,0.192-1.619c0.16-0.2,0.25-0.312,0.35-0.437c1.156,0.319,2.308,0.569,3.5,0.463
		c0.399-0.036,0.738,0.174,1.064,0.303c0.365,0.146,0.647,0.227,0.963-0.009c0.2-0.148,0.416-0.07,0.618-0.067
		C37.328,41.85,38.104,41.561,38.777,40.936z"/>
	<path fill="currentColor" d="M51.664,52.197c0.374,0.4,0.785,0.689,0.961,1.412c0,0.048,0,0.333,0,0.607
		c-0.364,0.613-0.97,0.838-1.613,1.016c-0.521,1.097-1.108,1.683-2.586,2.565c-0.322,0-0.677,0-1.091,0
		c-0.37-0.337-0.784-0.702-0.748-1.355c-0.059-0.067-0.117-0.156-0.195-0.221c-0.819-0.683-0.804-1.583-0.567-2.479
		c0.109-0.414,0.072-0.882,0.44-1.286c0.315-0.146,0.723-0.298,1.037-0.64c0.512-0.556,1.039-0.893,1.895-0.521
		c0.422,0.183,0.864,0.301,1.283,0.546C50.801,52.029,51.193,52.226,51.664,52.197z"/>
	<path fill="currentColor" d="M37.209,56.332c-0.318-0.453-0.756-0.124-1.067-0.267
		c-0.298,0.277-0.593,0.431-1.021,0.477c-0.55-0.324-0.777-0.942-1.135-1.47c-0.318-0.469-0.393-0.943-0.357-1.451
		c0.449-0.767,0.891-1.521,1.338-2.286c0.241,0,0.465-0.045,0.66,0.011c0.297,0.085,0.402-0.292,0.668-0.227
		c0.218-0.748,0.948-0.758,1.552-1.011c0.344,0.133,0.702,0.296,0.859,0.78c0.124,0.381,0.575,0.496,0.906,0.643
		c0.389,0.173,0.613,0.414,0.743,0.803c0.381,0.184,0.756,0.438,1.236,0.257c0,0.288,0,0.457,0,0.711
		c-0.363-0.076-0.651-0.211-0.988-0.446C39.728,54.24,38.208,55.017,37.209,56.332z"/>
	<path fill="currentColor" d="M41.184,60.551c0-0.134,0.016-0.184-0.003-0.203
		c-0.209-0.24-0.424-0.475-0.615-0.687c-0.194-0.697,0.234-1.306,0.201-1.978c0.421-0.355,0.731-0.84,1.279-1.067
		c0.338-0.142,0.426-0.535,0.602-0.823c0.189-0.313,0.247-0.703,0.548-0.959c0.479-0.189,0.849,0.098,1.24,0.293
		c1.07,1.458,0.638,2.245-0.404,2.749c-0.512,1.063-0.112,2.217-0.293,3.325c-0.07,0.069-0.146,0.146-0.286,0.286
		c-0.333-0.041-0.745,0.125-1.104-0.192c-0.193,0.165-0.445,0.373-0.288,0.621c0.38,0.602,0.095,1.241,0.225,1.807
		c-0.285,0.293-0.356,0.631-0.509,0.97c-0.438,0-0.896,0-1.384,0c-0.046-0.046-0.122-0.122-0.253-0.252
		c-0.265-0.541,0.439-1.102,0.161-1.642c-0.284-0.551-0.141-1.096-0.206-1.627c0.168-0.168,0.32-0.32,0.473-0.473
		C40.725,60.506,40.992,60.73,41.184,60.551z"/>
	<path fill="currentColor" d="M33.204,55.327c-0.315,0.174-0.181,0.646-0.578,0.741
		c-0.645,0.05-1.048-0.393-1.458-0.819c-0.355-0.046-0.64-0.016-0.971,0.233c-0.626,0.471-1.393,0.602-2.213,0.577
		c0.049-0.392,0.261-0.622,0.396-0.888c0.105-0.207,0.266-0.429,0.261-0.641c-0.015-0.716,0.43-1.145,0.882-1.576
		c0-0.584,0-1.158,0-1.757c0.714-0.284,1.373-0.685,2.011-1.12c0.536-0.134,1.018-0.007,1.445,0.293
		c0.673,0.66,0.473,1.429,0.188,2.114c-0.219,0.526-0.269,0.972-0.05,1.481C33.308,54.409,33.129,54.881,33.204,55.327z"/>
	<path fill="currentColor" d="M34.485,61.599c-0.183,0.183-0.284,0.283-0.407,0.407
		c0,0.329,0,0.682,0,1.095c0.256,0.319,0.598,0.652,0.635,1.175c0.03,0.434-0.325,0.657-0.373,0.979
		c-0.37,0.2-0.694,0.084-0.999,0.124c-0.715-0.563-0.064-1.495-0.613-2.154c0.392-0.38,0.198-0.893,0.267-1.409
		c-0.794-0.581-1.195-1.533-1.962-2.15c0-0.299,0-0.586,0-0.88c0.251-0.246,0.506-0.497,0.755-0.74
		c0.914-0.118,1.91,0.295,2.63-0.459c0.296,0.032,0.353,0.238,0.502,0.333c0,0.645,0.044,1.292-0.013,1.932
		C34.854,60.448,34.402,60.963,34.485,61.599z"/>
	<path fill="currentColor" d="M54.153,55c0.632,0.05,0.935,0.553,1.425,0.686
		c0.361,0.525,0.42,1.061-0.022,1.653c-0.828,0.285-1.353,1.215-2.291,1.417c-0.251,0.391-0.435,0.745-0.468,1.174
		c-0.753,0.117-1.119,0.858-1.831,1.096c-1.096-0.698-1.152-0.809-1.127-2.252c0.102-0.102,0.211-0.299,0.303-0.29
		c1.125,0.1,1.489-0.737,1.931-1.506C52.582,56.091,53.278,55.396,54.153,55z"/>
	<path fill="currentColor" d="M37.051,60.31c0.076-0.489,0.557-0.658,0.765-0.962
		c0.43-0.097,0.643,0.215,0.969,0.259c0,0.421,0,0.845,0,1.394c-0.091,0.057-0.273,0.17-0.45,0.279
		c0.15,1.305,0.536,2.536-0.05,3.864c-0.082,0.079-0.264,0.251-0.464,0.44c-0.328,0-0.686,0-1.123,0
		c-0.176-0.19-0.379-0.442-0.615-0.659c-0.482-0.444-0.776-0.941-0.747-1.638c0.02-0.467-0.177-0.916-0.443-1.376
		C35.289,61.024,36.173,60.772,37.051,60.31z"/>
	<path fill="currentColor" d="M43.469,45.457c0.272,0.135,0.511,0.252,0.79,0.39
		c0.274,0.583,0.753,1.123,0.556,1.966c-0.391,0.391-0.826,0.867-1.307,1.293c-0.348,0.308-0.589,0.682-0.809,1.072
		c-0.53,0.942-1.54,0.961-2.175,0.076c-0.38-0.529-0.614-1.11-0.844-1.738c0.124-0.543,0.579-0.888,0.956-1.277
		c0.533,0.01,0.915-0.262,1.267-0.615C42.343,46.182,42.737,45.677,43.469,45.457z"/>
	<path fill="currentColor" d="M25.822,63.281c0.181-0.371,0.341-0.699,0.512-1.051
		c0.294-0.043,0.486-0.307,0.7-0.529c0.308-0.32,0.679-0.442,1.117-0.434c0.644,0.014,1.288,0.004,1.921,0.004
		c0.617,0.675,0.688,1.656,1.386,2.261c0,0.281,0,0.567,0,0.876c-0.687,0.784-1.592,0.897-2.539,0.656
		c-0.236-0.061-0.474-0.143-0.698-0.108c-0.317,0.05-0.634-0.141-0.742-0.267C26.995,64.13,26.271,63.854,25.822,63.281z"/>
	<path fill="currentColor" d="M20.903,60.886c-0.069-0.716,0.079-1.202,0.385-1.708
		c0.342-0.562,0.382-1.235,0.083-1.91c0.197-0.396,0.415-0.836,0.641-1.293c0.25,0.014,0.443-0.229,0.671-0.347
		c0.379-0.195,0.648-0.251,1.06-0.062c0.329,0.151,0.758,0.087,1.147,0.118c0.17,0.164,0.351,0.338,0.523,0.504
		c0,0.229,0,0.444,0,0.657c-0.599,0.586-1.098,1.245-1.533,1.957c-0.091,0.148-0.255,0.252-0.375,0.385
		c-0.349,0.388-0.732,0.729-1.017,1.192c-0.28,0.456-0.724,0.845-1.323,0.93c-0.094,0.221-0.121,0.483-0.494,0.592
		c-0.057-0.003-0.236,0.076-0.423-0.066c-0.007-0.116-0.014-0.254-0.025-0.454C20.452,61.214,20.712,61.025,20.903,60.886z"/>
	<path fill="currentColor" d="M24.951,59.794c0.72-0.296,1.092-0.759,1.361-1.402
		c0.164-0.39,0.648-0.646,1.04-1.008c0.261,0,0.62,0,0.979,0c0.195,0.254,0.6,0.213,0.77,0.586c-0.167,0.68-0.705,1.132-1.246,1.554
		c-0.114,0.09-0.337,0.132-0.413,0.273c-0.372,0.693-1.122,0.996-1.595,1.588c0.163,0.374-0.304,0.608-0.22,0.981
		c0.081,0.354-0.086,0.668-0.308,1.034c-0.372,0.285-0.871,0.331-1.311,0.007c-0.44-0.324-0.61-0.823-0.535-1.354
		C23.975,61.304,25.218,61.103,24.951,59.794z"/>
	<path fill="currentColor" d="M44.914,64.12c-0.18-0.651,0.135-1.034,0.373-1.533
		c-0.073-0.45,0.173-1.033-0.214-1.534c0.417-0.571,0.12-1.229,0.232-1.849c0.126-0.106,0.247-0.229,0.213-0.44
		c0.306-0.027,0.49-0.388,0.784-0.314c0.374,0.061,0.452,0.4,0.689,0.505c0.153,0.633-0.382,1.154-0.142,1.813
		c0.189,0.19,0.375,0.507,0.761,0.558c0.177,0.185-0.142,0.539,0.248,0.629c-0.039,0.082-0.066,0.13-0.085,0.182
		c-0.175,0.474-0.487,0.836-0.976,0.963c-0.53,0.137-0.741,0.688-1.252,0.869C45.337,64.041,45.148,64.024,44.914,64.12z"/>
	<path fill="currentColor" d="M55.751,18.809c-0.182,0.093-0.342,0.174-0.67,0.342
		c-0.032,0-0.316,0-0.488,0c-0.215-0.139-0.361-0.234-0.487-0.316c0.114-0.404,0.397-0.56,0.625-0.78
		C55.059,18.23,55.452,18.282,55.751,18.809z"/>
	
	
</g>
</svg>
