<?xml version="1.0" encoding="iso-8859-1"?>
<!-- Generator: Adobe Illustrator 16.0.0, SVG Export Plug-In . SVG Version: 6.00 Build 0)  -->
<!DOCTYPE svg PUBLIC "-//W3C//DTD SVG 1.1//EN" "http://www.w3.org/Graphics/SVG/1.1/DTD/svg11.dtd">
<svg version="1.1" id="Layer_1" xmlns="http://www.w3.org/2000/svg" xmlns:xlink="http://www.w3.org/1999/xlink" x="0px" y="0px"
	 width="72.36px" height="72.18px" viewBox="0 0 72.36 72.18" style="enable-background:new 0 0 72.36 72.18;" xml:space="preserve"
	>
<g>
	<path style="fill-rule:evenodd;clip-rule:evenodd;fill:none;" d="M-6.984-6.984c28.8,0,57.6,0,86.399,0c0,28.872,0,57.744,0,86.615
		c-28.8,0-57.6,0-86.399,0C-6.984,50.76-6.984,21.888-6.984-6.984z M27.736,34.868c0.267-0.869-0.625-1.165-0.59-1.854
		c-0.06-0.142,0.152-0.215,0.163-0.325c0.056-0.554,0.186-1.133-0.072-1.658c-0.264-0.537,0.017-0.928,0.272-1.321
		c0.153-0.236,0.398-0.413,0.602-0.617c0.483-0.483,1.031-0.92,1.432-1.464c0.385-0.522,0.641-1.138,1.159-1.568
		c0.067-0.056,0.089-0.178,0.112-0.274c0.162-0.669,0.575-1.08,1.149-1.482c0.722-0.506,1.444-1.125,1.512-2.104
		c0.386-0.362,0.946-0.363,1.183-0.723c0.21-0.644-0.29-0.74-0.612-0.947c0.201-0.495,0.201-0.495,0.178-1.124
		c-0.27-0.058-0.538-0.081-0.799,0.029c-0.014,0.265-0.026,0.507-0.038,0.725c-0.069,0.038-0.099,0.068-0.127,0.067
		c-0.954-0.038-1.649-0.707-2.49-1.025c-0.255-0.096-0.158-0.366-0.173-0.619c0.571-0.549,1.165-1.121,1.725-1.659
		c0-0.419,0-0.777,0-1.127c-0.47-0.477-0.909-0.94-1.643-1.035c-0.227-0.03-0.561-0.216-0.766-0.492
		c-0.233-0.313-0.552-0.564-0.831-0.84c0.021-0.427-0.033-0.816-0.193-1.223c-0.283-0.715-0.316-0.896,0.016-1.524
		c0.161-0.304,0.023-0.726,0.391-0.921c0.018-0.541,0.482-1.104-0.128-1.622c-1.042-0.118-1.791,0.457-2.457,1.192
		c0.045,0.47-0.197,0.8-0.472,1.125c-0.788,0.18-1.616,0.31-1.854,1.287c0.164,0.164,0.365,0.325,0.516,0.523
		c0.554,0.727,1.04,1.512,1.822,2.034c0.059,0.039,0.123,0.091,0.15,0.152c0.427,0.954,1.066,1.755,1.779,2.418
		c0.025,0.533-0.196,0.871-0.514,1.174c-0.306,0-0.619,0-0.799,0c-0.585-0.617-0.872-1.332-1.368-1.88
		c-0.644-0.712-1.593-1.01-2.361-1.522c-0.474,0-0.932,0-1.357,0c-0.107,0.107-0.184,0.184-0.271,0.271c0,0.302,0,0.616,0,0.899
		c0.148,0.194,0.344,0.293,0.415,0.515c0.226,0.707,0.756,1.23,1.229,1.748c0.727,0.796,1.25,1.706,1.828,2.573
		c-0.43,0.456-0.155,0.989-0.275,1.402c-0.362,0.693-1.016,1.199-0.844,2.037c-0.4,0-0.713,0-1.07,0
		c-0.178-0.209-0.364-0.427-0.474-0.554c-1.173-0.239-1.369-1.128-1.541-1.901c-0.16-0.938,0.485-1.472,0.987-2.073
		c-0.336-0.333-0.528-0.776-1.076-0.591c-0.055,0.377-0.37,0.57-0.604,0.826c-0.286,0-0.574,0-0.871,0
		c-0.17-0.175-0.346-0.355-0.517-0.531c-0.208-1.083,0.508-1.794,1.068-2.619c-0.097-0.722,0.091-1.37,0.62-1.97
		c0.266-0.301,0.438-0.802,0.424-1.205c-0.022-0.659,0.206-1.205,0.416-1.577c-0.126-0.261-0.205-0.425-0.318-0.658
		c-0.232,0.215-0.387,0.35-0.533,0.495c-0.186,0.185-0.517-0.065-0.662,0.228c-0.633,0.008-1.155,0.317-1.551,0.54
		c-0.391,0.542-0.59,1.079-0.929,1.458c-0.411,0.459-0.149,1.103-0.625,1.537c-0.417-0.022-0.957,0.098-1.311-0.105
		c-0.504-0.29-0.791,0.021-1.117,0.186c-0.276,0.139-0.478,0.426-0.679,0.617c0,0.344,0,0.63,0,0.915
		c0.431,0.415,0.883,0.813,0.858,1.502c0.244,0.245,0.611,0.455,0.727,0.76c0.223,0.59,0.769,0.755,1.193,1.052
		c0.232,0.162,0.538,0.33,0.61,0.539c0.14,0.406,0.488,0.589,0.71,0.903c0,0.279,0,0.567,0,0.895
		c-0.699,0.237-0.606,1.472-1.685,1.347c-0.266-0.285-0.535-0.574-0.798-0.857c-0.231,0-0.445,0-0.653,0
		c-0.108-0.108-0.209-0.209-0.306-0.306c-0.104-0.308,0.079-0.535,0.214-0.778c-0.428-0.479-0.187-0.958,0.032-1.418
		c-0.134-0.268-0.252-0.503-0.389-0.776c-0.668,0-1.341,0-2.013,0c0-0.331,0.001-0.62-0.324-0.79
		c-0.333-0.063-0.678-0.101-0.987,0.312c-0.061,0.256,0.09,0.625-0.051,0.894c-0.509,0.205-0.936,0.415-1.248,0.843
		c0.058,0.64-0.268,1.221-0.43,1.838c0.137,0.756,1.033,0.853,1.286,1.41c0,0.195,0.046,0.349-0.007,0.401
		c-0.731,0.712-1.073,1.726-2.021,2.305c-0.822,0.502-1.381,1.363-1.843,2.286c-0.115,0.567,0.03,1.188-0.12,1.835
		c-0.145,0.627-0.797,0.968-0.738,1.626c0.079,0.929,0.955,1.051,1.572,1.482c-0.227,0.433-0.559,0.774-0.493,1.366
		c0.18,0.145,0.429,0.345,0.584,0.47c0.136,1.056,0.383,1.977,0.255,2.939c0.577,0.205,0.348,0.814,0.679,1.16
		c-0.282,0.452-0.566,0.909-0.903,1.448c0.023,0.512-0.068,1.151,0.113,1.702c0.167,0.506,0.04,0.979,0.123,1.458
		c-0.467,0.571-0.104,1.24-0.216,1.854c0.335,0.349,0.165,0.797,0.228,1.169c0.08,0.105,0.167,0.18,0.201,0.273
		c0.338,0.955,0.931,1.786,1.452,2.629c0.406,0.656,0.87,1.302,1.235,1.983c0.317,0.593,0.669,1.123,1.178,1.565
		c0.019,0.169,0.037,0.339,0.054,0.496c0.343,0.343,0.658,0.69,1.008,1c0.564,0.499,0.966,0.503,1.563,0.053
		c-0.031-0.33,0.049-0.658-0.284-0.959c-0.298-0.27-0.538-0.753-0.342-1.117c0.261-0.488,0.13-0.946,0.203-1.434
		c-0.543-0.25-0.954-0.583-1.095-1.157c0.093-0.215,0.212-0.403,0.229-0.665c0.072-1.086-0.237-2.196,0.197-3.261
		c0.034-0.083,0.017-0.25-0.042-0.296c-0.288-0.228-0.157-0.531-0.162-0.8c-0.016-0.82-0.006-1.642-0.006-2.536
		c-0.29-0.243-0.591-0.496-0.942-0.792c0.423-0.435,0.207-1.075,0.571-1.505c0.373-0.44,0.396-0.94,0.365-1.467
		c-1.232-1.911-1.264-2.264-1.277-2.759c0.329-1.084,1.235-1.341,1.716-2.019c-0.046-0.267,0.055-0.526-0.158-0.805
		c-0.277-0.363-0.434-0.822-0.626-1.246c-0.174-0.383-0.417-0.633-0.807-0.865c-0.616-0.367-1.245-0.786-1.654-1.432
		c0.296-0.583,0.344-1.193,0.079-1.791c-0.081-0.181-0.12-0.375-0.063-0.503c0.304-0.694,0.915-1.133,1.371-1.627
		c0.352,0,0.635,0,0.923,0c0.167,0.695,0.981,0.906,1.178,1.594c0,0.89,0,1.78,0,2.63c0.114,0.114,0.19,0.19,0.262,0.262
		c0.668,0.213,1.19-0.192,1.729-0.436c0.132,0.137,0.231,0.241,0.338,0.352c0.112,0.796-0.235,1.691,0.399,2.34
		c0.229,0.768-0.182,1.429-0.155,2.122c0.044,1.123-0.126,2.243,0.173,3.375c0.178,0.673,0.003,1.433,0.04,2.15
		c0.043,0.835-0.181,1.689,0.194,2.509c0.07,0.153,0.021,0.384-0.087,0.601C16.612,45,16.5,45.609,16.555,46.246
		c0.031,0.357,0.14,0.803-0.022,1.063c-0.366,0.589-0.079,1.186-0.188,1.764c-0.056,0.292,0.365,0.47,0.209,0.771
		c-0.129,0.249-0.148,0.527-0.236,0.768c-0.188,0.511-0.214,1.004-0.182,1.34c0.349,0.368,0.591,0.626,0.849,0.898
		c0.989,0.018,1.271-0.802,1.489-1.513c0.21-0.685,0.658-1.168,0.999-1.766c0.568,0.155,1.125,0.438,1.591-0.106
		c0.571-0.806,0.68-1.794,1.03-2.693c0.115-0.294,0.054-0.563-0.034-0.884c-0.147-0.537-0.682-0.545-0.962-0.934
		c0-1.685,0.002-3.408-0.001-5.132c-0.001-0.343-0.065-0.66-0.181-1.001c-0.149-0.44-0.469-0.886-0.439-1.319
		c0.092-1.351-0.392-2.66-0.222-4.003c0.129-0.243,0.384-0.282,0.533-0.351c0.388-0.502,0.306-1.035,0.31-1.553
		c0.004-0.576,0.001-1.152,0.001-1.751c-0.317-0.317-0.757-0.594-0.944-0.991c-0.184-0.389-0.736-0.615-0.537-1.25
		c-0.217-0.182-0.462-0.387-0.681-0.57c0.01-0.463,0.123-0.865,0.179-1.262c0.112-0.79,0.435-1.26,1.196-1.435
		c0.466,0.257,0.481,0.803,0.762,1.185c0.57,0.774,1.25,1.438,1.922,2.114c0.391,0.393,0.754,0.814,1.394,0.821
		c0.173,0.002,0.367,0.194,0.385,0.463c0.049,0.318-0.269,0.516-0.328,0.853c-0.53,0-1.06,0-1.62,0c0,0.717,0.138,1.435-0.038,2.065
		c-0.187,0.668-0.133,1.298-0.187,1.983c0.306,0.278,0.596,0.542,0.884,0.805c-0.074,0.619,0.106,1.163,0.374,1.705
		c-0.234,0.18-0.161,0.471-0.17,0.74c-0.021,0.629,0.274,1.18,0.432,1.765c-0.364,0.469-0.291,1.044-0.188,1.524
		c0.179,0.838,0.403,1.666,0.393,2.526c-0.004,0.342,0.148,0.624,0.315,0.839c0.36,0.461,0.589,1.046,1.169,1.35
		c0.739,0.065,1.324-0.371,1.98-0.747c0-0.355,0-0.741,0-1.081c0.509-0.608,0.603-1.21,0.135-1.804
		c-0.162-0.206-0.198-0.446-0.107-0.584c0.422-0.637,0.072-1.325,0.191-1.976c-0.41-0.624-0.146-1.248,0.051-1.941
		c-0.319-0.263-0.649-0.534-0.903-0.742c0-0.339,0-0.552,0-0.752C27.372,35.231,27.576,35.028,27.736,34.868z M47.232,45.185
		c0-1.016-0.016-1.951,0.005-2.887c0.02-0.944-0.097-1.891,0.196-2.829c0.238-0.763-0.231-1.503-0.22-2.282
		c0.011-0.704,0.122-1.383,0.232-2.069c0.125-0.778-0.249-1.501-0.233-2.285c0.052-2.515,0.02-5.031,0.02-7.422
		c-0.628-1.265-1.076-2.528-2.413-3.067c0-0.444,0-0.832,0-1.182c-0.307-0.306-0.663-0.421-1.061-0.59
		c0.28-0.767-0.576-1.162-0.656-1.936c0.444-0.372,0.833-0.865,1.088-1.419c0.227-0.491,0.569-0.855,0.916-1.241
		c0.441-0.49,0.862-1.001,1.256-1.531c0.269-0.362,0.767-0.524,0.868-1.022c0-0.431,0-0.863,0-1.292
		c-0.18-0.18-0.357-0.357-0.483-0.484c-0.765-0.294-1.282,0.312-1.961,0.402c-0.697-0.753-1.601-1.216-2.354-1.551
		c-0.521-0.566-0.335-1.115-0.396-1.617c-0.158-0.146-0.428-0.084-0.516-0.284c-0.552,0.304-1.125,0.486-1.697,0.391
		c-0.716-0.443-1.532-0.613-1.966-1.27c-0.415,0-0.771,0-1.045,0c-0.241,0.207-0.43,0.369-0.586,0.503
		c-0.085,0.663,0.143,1.211,0.636,1.491c0.421,0.24,0.509,0.696,0.855,0.905c0,0.318,0,0.604,0,0.708
		c-0.159,0.448-0.269,0.745-0.54,0.908c-0.296,0-0.583,0-0.861,0c-0.465-0.465-0.96-0.893-1.371-1.39
		c-0.444-0.537-1.08-0.686-1.637-0.935c-0.427,0.187-0.951,0.242-1.215,0.813c0.012,0.619,0.267,1.132,0.897,1.539
		c0.602,0.388,1.273,0.695,1.702,1.352c0.956,1.466,2.191,2.71,3.361,4.001c0.539,0.595,0.992,1.232,1.401,1.91
		c0.518,0.856,1.066,1.688,1.791,2.387c0.122,0.118,0.257,0.205,0.42,0.285c0.481,0.236,0.9,0.683,0.979,1.16
		c0.121,0.734,0.545,1.192,1.034,1.627c0.569,0.505,0.778,1.098,0.765,1.854c-0.011,0.6-0.321,1.13-0.255,1.748
		c0.046,0.429,0.117,0.883-0.17,1.329c-0.147,0.229-0.142,0.696-0.003,0.942c0.347,0.617,0.099,1.234,0.201,1.79
		c-0.184,0.184-0.312,0.311-0.387,0.386c-0.252,0.801,0.172,1.492,0.174,2.303c-0.141,0.101-0.314,0.226-0.461,0.331
		c0,0.418,0,0.773,0,1.128c-0.15,0.466-0.556,0.718-0.841,1.045c0,0.445,0,0.875,0,1.304c0.338,0.271,0.515,0.637,0.643,1.033
		c-0.307,0.267-0.152,0.73-0.505,1.085c0.326,0.06,0.219,0.37,0.377,0.553c0.832,0.152,0.947,0.231,1.414,0.983
		c-0.104,0.129-0.248,0.23-0.21,0.441c0.143,0.783,0.662,1.382,1.004,2.067c0.244,0.488,0.833,0.407,1.191,0.646
		C47.001,45.805,46.96,45.397,47.232,45.185z M48.525,20.735c0.373,0.567,0.647,1.124,1.083,1.564c0,0.686-0.039,1.373,0.011,2.053
		c0.052,0.716-0.158,1.36-0.452,1.977c-0.317,0.665-0.523,1.328-0.355,2.205c0.221,0.19,0.518,0.445,0.777,0.669
		c0,0.26,0,0.47,0,0.666c-0.222,0.219-0.426,0.421-0.628,0.621c0,0.292,0,0.58,0,0.889c0.366,0.18,0.413,0.605,0.658,0.913
		c-0.08,0.496,0.037,1.001-0.19,1.531c-0.175,0.407-0.102,0.964,0.18,1.407c-0.28,0.442-0.354,0.998-0.183,1.408
		c0.264,0.633,0.164,1.249,0.174,1.868c0.025,1.727,0.004,3.454,0.015,5.182c0.001,0.238-0.068,0.478,0.076,0.723
		c0.366,0.621,0.394,1.315,0.348,2.013c-0.057,0.861,0.33,1.601,0.747,2.278c0.538,0.874,2.252,2.238,3.277,2.828
		c0.539,0,1.037,0,1.464,0c0.538-0.331,0.283-0.792,0.349-1.147c-0.184-0.27-0.338-0.493-0.489-0.719
		c-0.337-0.502-0.574-1.005-0.229-1.618c0.159-0.283,0.175-0.709,0.022-0.916c-0.23-0.313-0.151-0.607-0.165-0.909
		c-0.023-0.503-0.013-1.007-0.005-1.511c0.017-1.114-0.309-2.136-0.785-3.131c-0.308-0.642-0.619-1.305-0.509-2.054
		c0.104-0.712-0.166-1.378-0.226-2.069c-0.014-0.162-0.231-0.235-0.216-0.451c0.085-1.166-0.348-2.297-0.223-3.474
		c0.062-0.578,0.066-1.16-0.338-1.696c-0.202-0.269-0.073-0.733-0.298-1.057c0.209-1.001-0.548-1.856-0.432-2.844
		c-0.402-0.384-0.094-0.893-0.229-1.31c-0.143-0.436-0.247-0.86-0.211-1.155c0.192-0.546,0.441-0.888,0.78-1.133
		c0.25-0.181,0.394-0.455,0.431-0.687c0.138-0.838,0.536-1.618,0.529-2.486c-0.003-0.376-0.078-0.757,0.195-1.11
		c0.103-0.132,0.017-0.408,0.017-0.597c-0.673-0.339-1.237,0.292-1.699,0.153c-0.381-0.329-0.65-0.563-0.871-0.753
		c-0.085-0.65,0.039-1.158,0.457-1.604c0.2-0.212,0.371-0.484,0.386-0.807c0.015-0.333,0.228-0.435,0.516-0.547
		c0.4-0.157,0.896-0.107,1.182-0.491c0.279-1.123-0.861-1.498-1.179-2.295c-0.356,0-0.715,0-1.066,0
		c-0.311,0.339-0.659,0.619-0.855,1.058c-0.41,0.917-0.956,1.75-1.765,2.399c-0.417,0-0.847,0-1.273,0
		c-0.089,0.26-0.399,0.128-0.49,0.263c0,0.437,0,0.823,0,1.139C47.555,18.883,48.786,19.394,48.525,20.735z M59.073,53.02
		c0.39-0.521,0.563-1.195,1.119-1.595c-0.086-0.272,0.282-0.368,0.23-0.668c-0.074-0.434,0.184-0.771,0.462-1.098
		c0.307-0.359,0.506-0.804,0.592-1.26c0.144-0.766,0.405-1.493,0.727-2.183c0.467-1.001,0.808-2.012,0.798-3.124
		c-0.003-0.324,0.019-0.649-0.005-0.972c-0.056-0.788,0.25-1.461,0.661-2.219c0.047-0.202-0.113-0.537,0.056-0.83
		c0.228-0.396,0.116-0.758,0.031-1.177c-0.098-0.484-0.208-0.964-0.544-1.281c-0.364-0.342-0.134-0.776-0.367-1.161
		c-0.454-0.749-0.688-1.631-1.407-2.215c-0.122-0.099-0.103-0.27-0.166-0.36c-0.437-0.617-0.825-1.269-1.354-1.819
		c-0.658-0.683-1.551-1.108-2.089-1.92c0-0.072-0.021-0.152,0.003-0.214c0.461-1.16,1.354-1.939,2.33-2.646
		c0.731,0.033,0.833-0.607,1.109-1.02c0.086-0.758-0.044-1.411-0.645-1.917c-0.267-0.225-0.442-0.53-0.419-0.9
		c0.015-0.221-0.168-0.294-0.298-0.466c-0.431,0-0.888,0-1.371,0c-0.439-0.612-0.622-1.42-1.369-1.758
		c-0.861,0.437-0.452,1.386-0.845,1.982c0.169,0.335,0.333,0.662,0.527,1.047c0.454,0.105,0.892,0.354,1.191,0.802
		c0.136,1.116-0.657,1.819-1.136,2.645c-0.277,0.011-0.523,0.071-0.752-0.036c-0.337-0.336-0.668-0.667-1.004-1.003
		c-0.236,0-0.478,0-0.543,0c-0.316,0.23-0.519,0.377-0.685,0.498c0.023,1.272,1.106,2.095,1.107,3.331
		c1.445,1.028,2.205,2.626,3.2,4.012c-0.19,0.45-0.508,0.809-0.866,1.123c0.134,0.869-0.154,1.728,0.232,2.546
		c0.072,0.152-0.044,0.394-0.09,0.592c-0.154,0.67-0.285,1.364,0.1,2.03c0.371,0.642,0.507,1.34,0.442,2.085
		c-0.033,0.389-0.006,0.783-0.006,1.175c-0.056,0.479-0.704,0.622-0.641,1.217c0.261,0.363,0.558,0.777,0.856,1.195
		c0,0.642,0,1.289,0,1.937c0,0.611,0,1.224,0,1.835c-0.545,0.588,0.124,1.206-0.028,1.755c-0.174,0.623-0.173,1.214-0.185,1.731
		C58.367,53.167,58.716,53.073,59.073,53.02z M38.777,40.936c-0.673,0.625-1.449,0.914-2.345,0.902
		c-0.203-0.003-0.418-0.081-0.618,0.067c-0.316,0.235-0.598,0.154-0.963,0.009c-0.326-0.129-0.665-0.339-1.064-0.303
		c-1.191,0.106-2.343-0.144-3.5-0.463c-0.1,0.125-0.189,0.236-0.35,0.437c0.205,0.5-0.182,1.037-0.192,1.619
		c-0.008,0.485-0.186,0.861-0.519,1.192c-0.2,0.199-0.476,0.388-0.551,0.632c-0.176,0.57-0.592,0.927-1.014,1.364
		c-1.498-0.284-2.712,0.528-3.919,1.191c-0.433,0.371-0.203,0.863-0.292,1.29c-0.27,0.206-0.212,0.66-0.655,0.744
		c-0.501,0.095-0.833,0.49-1.148,0.856c-0.153,0.179-0.369,0.174-0.51,0.281c-0.178,0.527-0.566,0.959-0.508,1.557
		c0.008,0.084-0.134,0.371-0.275,0.517c-0.401,0.412-0.765,0.883-1.228,1.209c-1.214,0.854-2.288,1.857-3.322,2.911
		c-0.323,0.329-0.549,0.699-0.544,1.208c0.531,0.478,1.198,0.858,1.439,1.624c0.081,0.254,0.351,0.189,0.622,0.195
		c0.433-0.578,1.318-0.795,1.48-1.688c0.018-0.101,0.207-0.169,0.313-0.257c0.472-0.391,1.102-0.526,1.574-0.986
		c-0.214-1.236,0.386-2.075,1.466-2.685c0.361,0.008,0.793-0.091,1.05,0.204c1.189-0.47,2.161-0.16,3.049,0.468
		c0.25-0.128,0.458-0.233,0.666-0.34c0.351-0.347,0.149-0.845,0.364-1.254c0.477-0.909,0.746-1.95,1.88-2.423
		c-0.392-0.279-0.678-0.524-1.089-0.559c-0.822,0.41-1.577,0.349-2.216-0.296c-0.113-0.545,0.297-0.72,0.58-1.013
		c0.393,0.188,0.714-0.224,1.076-0.174c0.65,0.089,1.235-0.192,1.85-0.27c1.399-0.174,1.553-0.302,2.514,0.062
		c0.377,0.142,0.728,0.188,1.106,0.192c0.395,0.003,0.79,0,1.184,0c1.295-0.429,2.093-1.525,3.082-2.201
		c0.14-0.591-0.067-0.979-0.313-1.299c-0.484-0.384-1.016-0.545-1.495-0.324c-0.285,0.132-0.533,0.128-0.802,0.149
		c-0.341,0.027-0.665,0.1-0.998,0.183c-0.618,0.154-1.172,0.604-1.751,0.354c-0.23-0.163-0.46-0.326-0.644-0.457
		c-0.003-0.29,0.213-0.343,0.298-0.48c0.535-0.028,1.092,0.041,1.586-0.104c0.917-0.271,1.846-0.19,2.742-0.106
		c1.156,0.108,1.167,0.265,1.974-0.054c0.441-0.174,0.87-0.176,1.257-0.196c0.148-0.133,0.255-0.229,0.351-0.313
		c0-0.093,0.003-0.165,0-0.236c-0.005-0.103-0.058-0.206-0.069-0.291c-0.076-0.565-0.569-1.066-0.171-1.722
		C39.375,41.598,39.312,41.146,38.777,40.936z M51.664,52.197c-0.471,0.028-0.862-0.168-1.185-0.356
		c-0.419-0.245-0.861-0.363-1.283-0.546c-0.855-0.371-1.383-0.034-1.895,0.521c-0.314,0.342-0.722,0.494-1.037,0.64
		c-0.368,0.404-0.331,0.872-0.44,1.286c-0.236,0.896-0.252,1.797,0.567,2.479c0.078,0.064,0.137,0.153,0.195,0.221
		c-0.036,0.653,0.378,1.019,0.748,1.355c0.414,0,0.769,0,1.091,0c1.478-0.883,2.064-1.469,2.586-2.565
		c0.644-0.178,1.249-0.402,1.613-1.016c0-0.274,0-0.56,0-0.607C52.449,52.887,52.038,52.598,51.664,52.197z M37.209,56.332
		c0.999-1.315,2.519-2.092,3.396-3.477c0.337,0.235,0.625,0.37,0.988,0.446c0-0.254,0-0.423,0-0.711
		c-0.48,0.181-0.855-0.073-1.236-0.257c-0.13-0.389-0.354-0.63-0.743-0.803c-0.331-0.146-0.782-0.262-0.906-0.643
		c-0.157-0.484-0.516-0.647-0.859-0.78c-0.604,0.253-1.334,0.263-1.552,1.011c-0.267-0.065-0.371,0.312-0.668,0.227
		c-0.195-0.056-0.419-0.011-0.66-0.011c-0.447,0.765-0.889,1.52-1.338,2.286c-0.036,0.508,0.039,0.982,0.357,1.451
		c0.358,0.527,0.584,1.146,1.135,1.47c0.428-0.046,0.723-0.199,1.021-0.477C36.453,56.208,36.891,55.879,37.209,56.332z
		 M41.184,60.551c-0.192,0.18-0.459-0.045-0.616,0.148c-0.152,0.152-0.305,0.305-0.473,0.473c0.065,0.531-0.078,1.076,0.206,1.627
		c0.278,0.54-0.426,1.101-0.161,1.642c0.131,0.13,0.207,0.206,0.253,0.252c0.488,0,0.946,0,1.384,0
		c0.152-0.339,0.224-0.677,0.509-0.97c-0.13-0.565,0.155-1.205-0.225-1.807c-0.157-0.248,0.095-0.456,0.288-0.622
		c0.358,0.318,0.771,0.152,1.104,0.193c0.14-0.141,0.216-0.217,0.286-0.286c0.181-1.108-0.219-2.262,0.293-3.325
		c1.042-0.504,1.475-1.291,0.405-2.749c-0.393-0.195-0.762-0.482-1.241-0.293c-0.301,0.256-0.358,0.646-0.548,0.959
		c-0.176,0.288-0.264,0.682-0.602,0.823c-0.548,0.228-0.858,0.712-1.279,1.067c0.033,0.672-0.396,1.28-0.201,1.978
		c0.191,0.212,0.406,0.446,0.615,0.687C41.2,60.367,41.184,60.417,41.184,60.551z M33.204,55.327
		c-0.075-0.446,0.104-0.918-0.086-1.36c-0.219-0.51-0.169-0.955,0.05-1.481c0.285-0.686,0.485-1.454-0.188-2.114
		c-0.428-0.3-0.91-0.427-1.445-0.293c-0.639,0.436-1.297,0.836-2.012,1.12c0,0.599,0,1.173,0,1.757
		c-0.452,0.432-0.897,0.86-0.882,1.576c0.005,0.212-0.156,0.434-0.261,0.641c-0.135,0.266-0.347,0.496-0.396,0.888
		c0.82,0.024,1.587-0.106,2.213-0.577c0.331-0.249,0.616-0.279,0.971-0.233c0.41,0.427,0.813,0.869,1.458,0.819
		C33.023,55.974,32.889,55.501,33.204,55.327z M34.485,61.599c-0.083-0.636,0.368-1.15,0.422-1.748
		c0.057-0.64,0.013-1.287,0.013-1.932c-0.149-0.095-0.206-0.301-0.502-0.333c-0.72,0.754-1.716,0.341-2.63,0.459
		c-0.249,0.243-0.504,0.494-0.755,0.74c0,0.294,0,0.581,0,0.88c0.768,0.617,1.168,1.569,1.962,2.15
		c-0.068,0.517,0.125,1.029-0.267,1.409c0.548,0.659-0.103,1.592,0.613,2.154c0.304-0.04,0.629,0.076,0.999-0.124
		c0.048-0.322,0.403-0.546,0.373-0.979c-0.037-0.522-0.378-0.855-0.635-1.175c0-0.413,0-0.766,0-1.095
		C34.201,61.882,34.302,61.781,34.485,61.599z M54.153,55c-0.875,0.396-1.571,1.091-2.081,1.978
		c-0.441,0.769-0.806,1.605-1.931,1.506c-0.092-0.009-0.201,0.188-0.303,0.29c-0.025,1.443,0.031,1.554,1.127,2.252
		c0.712-0.237,1.078-0.979,1.831-1.096c0.033-0.429,0.217-0.783,0.468-1.174c0.938-0.202,1.463-1.132,2.291-1.417
		c0.442-0.593,0.384-1.128,0.022-1.653C55.087,55.553,54.785,55.05,54.153,55z M37.051,60.31c-0.878,0.463-1.763,0.715-2.158,1.602
		c0.267,0.46,0.463,0.909,0.443,1.376c-0.029,0.696,0.264,1.193,0.747,1.638c0.235,0.217,0.439,0.469,0.615,0.659
		c0.437,0,0.794,0,1.123,0c0.2-0.189,0.382-0.361,0.464-0.44c0.586-1.328,0.2-2.56,0.05-3.864c0.177-0.109,0.359-0.223,0.45-0.279
		c0-0.549,0-0.973,0-1.394c-0.326-0.044-0.539-0.355-0.969-0.259C37.608,59.651,37.127,59.82,37.051,60.31z M43.469,45.457
		c-0.732,0.22-1.126,0.725-1.565,1.166c-0.352,0.354-0.733,0.625-1.267,0.615c-0.377,0.39-0.832,0.734-0.956,1.277
		c0.229,0.628,0.464,1.209,0.844,1.738c0.635,0.885,1.645,0.866,2.175-0.076c0.22-0.391,0.461-0.765,0.809-1.072
		c0.48-0.426,0.916-0.902,1.307-1.293c0.197-0.843-0.281-1.383-0.556-1.966C43.98,45.709,43.742,45.592,43.469,45.457z
		 M25.822,63.281c0.449,0.572,1.173,0.849,1.657,1.408c0.108,0.126,0.425,0.316,0.742,0.267c0.224-0.034,0.462,0.048,0.698,0.108
		c0.947,0.241,1.852,0.128,2.539-0.656c0-0.309,0-0.595,0-0.876c-0.699-0.604-0.77-1.586-1.386-2.261
		c-0.634,0-1.278,0.01-1.921-0.004c-0.438-0.009-0.809,0.113-1.117,0.434c-0.214,0.223-0.406,0.486-0.7,0.529
		C26.163,62.582,26.003,62.91,25.822,63.281z M20.903,60.886c-0.191,0.14-0.451,0.328-0.681,0.495
		c0.011,0.2,0.019,0.338,0.025,0.454c0.187,0.143,0.366,0.063,0.423,0.066c0.373-0.108,0.4-0.371,0.494-0.592
		c0.599-0.085,1.042-0.474,1.323-0.93c0.285-0.464,0.668-0.805,1.017-1.192c0.121-0.133,0.284-0.236,0.375-0.385
		c0.435-0.712,0.934-1.371,1.533-1.957c0-0.213,0-0.428,0-0.657c-0.172-0.166-0.354-0.34-0.523-0.504
		c-0.389-0.031-0.818,0.033-1.147-0.118c-0.411-0.189-0.68-0.134-1.06,0.062c-0.228,0.117-0.421,0.36-0.671,0.347
		c-0.227,0.457-0.444,0.896-0.641,1.293c0.3,0.675,0.259,1.349-0.083,1.91C20.982,59.684,20.834,60.17,20.903,60.886z
		 M24.951,59.794c0.267,1.309-0.976,1.51-1.477,2.26c-0.076,0.53,0.094,1.029,0.535,1.354c0.44,0.324,0.938,0.278,1.311-0.007
		c0.221-0.366,0.388-0.68,0.308-1.034c-0.084-0.373,0.383-0.607,0.22-0.981c0.473-0.592,1.223-0.895,1.595-1.588
		c0.076-0.142,0.298-0.184,0.413-0.273c0.541-0.422,1.079-0.874,1.246-1.554c-0.17-0.373-0.575-0.332-0.77-0.586
		c-0.359,0-0.718,0-0.979,0c-0.392,0.362-0.876,0.618-1.04,1.008C26.043,59.035,25.671,59.498,24.951,59.794z M44.914,64.12
		c0.234-0.096,0.424-0.079,0.633-0.153c0.511-0.181,0.722-0.732,1.252-0.869c0.488-0.127,0.801-0.489,0.976-0.963
		c0.019-0.052,0.046-0.1,0.085-0.182c-0.39-0.09-0.071-0.444-0.249-0.629c-0.385-0.051-0.57-0.367-0.76-0.558
		c-0.24-0.658,0.295-1.18,0.142-1.813c-0.237-0.104-0.315-0.444-0.689-0.505c-0.294-0.073-0.479,0.287-0.784,0.314
		c0.034,0.211-0.087,0.334-0.213,0.44c-0.112,0.62,0.185,1.277-0.232,1.849c0.387,0.501,0.141,1.084,0.214,1.534
		C45.048,63.086,44.734,63.469,44.914,64.12z M55.751,18.809c-0.3-0.526-0.692-0.578-1.021-0.754
		c-0.228,0.22-0.511,0.376-0.625,0.78c0.126,0.082,0.272,0.177,0.487,0.316c0.172,0,0.456,0,0.488,0
		C55.41,18.983,55.57,18.902,55.751,18.809z M35.136,69.371c0.099,0.1,0.198,0.199,0.338,0.339c0.216-0.107,0.505,0.124,0.743-0.124
		c-0.037-0.168,0.069-0.353-0.088-0.521c-0.221,0-0.458,0-0.688,0C35.334,69.173,35.235,69.271,35.136,69.371z M61.461,57.629
		c0.105,0.209,0.299,0.251,0.362,0.155c0.262-0.39,0.69-0.7,0.753-1.423C62.138,56.911,61.664,57.169,61.461,57.629z M64.627,53.703
		c-0.704,0.196-0.709,0.195-0.762,0.542c-0.028,0.189,0.002,0.351,0.328,0.324C64.302,54.354,64.427,54.104,64.627,53.703z
		 M66.78,48.727c-0.14,0.196-0.202,0.334,0.032,0.423C66.929,49.023,66.921,48.904,66.78,48.727z"/>
	<path style="fill-rule:evenodd;clip-rule:evenodd;" d="M27.736,34.868c-0.16,0.16-0.364,0.364-0.58,0.58c0,0.2,0,0.413,0,0.752
		c0.253,0.208,0.583,0.479,0.903,0.742c-0.197,0.693-0.461,1.317-0.051,1.941c-0.119,0.65,0.23,1.339-0.191,1.976
		c-0.091,0.138-0.055,0.378,0.107,0.584c0.468,0.594,0.375,1.195-0.135,1.804c0,0.34,0,0.726,0,1.081
		c-0.656,0.376-1.241,0.813-1.98,0.747c-0.58-0.304-0.809-0.889-1.169-1.35c-0.167-0.215-0.319-0.497-0.315-0.839
		c0.01-0.86-0.214-1.688-0.393-2.526c-0.103-0.48-0.175-1.056,0.188-1.524c-0.158-0.585-0.454-1.136-0.432-1.765
		c0.009-0.27-0.064-0.561,0.17-0.74c-0.268-0.542-0.448-1.086-0.374-1.705c-0.288-0.262-0.578-0.526-0.884-0.805
		c0.054-0.685,0-1.315,0.187-1.983c0.175-0.631,0.038-1.349,0.038-2.065c0.56,0,1.09,0,1.62,0c0.059-0.336,0.377-0.535,0.328-0.853
		c-0.018-0.27-0.211-0.461-0.385-0.463c-0.64-0.007-1.002-0.428-1.394-0.821c-0.672-0.676-1.352-1.34-1.922-2.114
		c-0.281-0.382-0.296-0.928-0.762-1.185c-0.761,0.175-1.084,0.645-1.196,1.435c-0.056,0.397-0.168,0.799-0.179,1.262
		c0.219,0.183,0.464,0.389,0.681,0.57c-0.2,0.634,0.353,0.86,0.537,1.25c0.187,0.396,0.627,0.673,0.944,0.991
		c0,0.599,0.003,1.175-0.001,1.751c-0.004,0.518,0.078,1.051-0.31,1.553c-0.148,0.069-0.404,0.108-0.533,0.351
		c-0.169,1.343,0.314,2.652,0.222,4.003c-0.03,0.434,0.29,0.879,0.439,1.319c0.116,0.341,0.18,0.658,0.181,1.001
		c0.003,1.724,0.001,3.447,0.001,5.132c0.28,0.389,0.815,0.396,0.962,0.934c0.088,0.32,0.149,0.59,0.034,0.884
		c-0.35,0.899-0.458,1.888-1.03,2.693c-0.465,0.545-1.023,0.262-1.591,0.106c-0.34,0.598-0.789,1.081-0.999,1.766
		c-0.218,0.711-0.5,1.53-1.489,1.513c-0.258-0.272-0.5-0.53-0.849-0.898c-0.032-0.336-0.005-0.829,0.182-1.34
		c0.088-0.24,0.107-0.519,0.236-0.768c0.155-0.301-0.265-0.479-0.209-0.771c0.109-0.578-0.178-1.175,0.188-1.764
		c0.162-0.26,0.053-0.705,0.022-1.063C16.5,45.609,16.612,45,16.891,44.441c0.107-0.217,0.157-0.447,0.087-0.601
		c-0.375-0.819-0.15-1.674-0.194-2.509c-0.037-0.718,0.138-1.478-0.04-2.15c-0.299-1.132-0.129-2.252-0.173-3.375
		c-0.027-0.692,0.383-1.354,0.155-2.122c-0.635-0.648-0.287-1.543-0.399-2.34c-0.106-0.111-0.206-0.215-0.338-0.352
		c-0.54,0.244-1.061,0.649-1.729,0.436c-0.071-0.071-0.147-0.147-0.262-0.262c0-0.85,0-1.74,0-2.63
		c-0.197-0.688-1.011-0.899-1.178-1.594c-0.288,0-0.572,0-0.923,0c-0.456,0.494-1.067,0.933-1.371,1.627
		c-0.057,0.128-0.018,0.322,0.063,0.503c0.265,0.598,0.217,1.208-0.079,1.791c0.409,0.646,1.038,1.065,1.654,1.432
		c0.39,0.232,0.633,0.481,0.807,0.865c0.193,0.424,0.349,0.883,0.626,1.246c0.212,0.279,0.112,0.539,0.158,0.805
		c-0.48,0.677-1.387,0.935-1.716,2.019c0.013,0.495,0.045,0.848,1.276,2.759c0.032,0.526,0.008,1.026-0.365,1.467
		c-0.364,0.43-0.148,1.07-0.571,1.505c0.351,0.296,0.652,0.549,0.942,0.792c0,0.895-0.01,1.716,0.006,2.536
		c0.005,0.269-0.126,0.572,0.162,0.8c0.059,0.046,0.076,0.213,0.042,0.296c-0.434,1.064-0.125,2.175-0.197,3.261
		c-0.017,0.262-0.136,0.45-0.229,0.665c0.141,0.574,0.551,0.907,1.095,1.157c-0.073,0.487,0.058,0.945-0.203,1.434
		c-0.196,0.364,0.043,0.848,0.342,1.117c0.333,0.301,0.252,0.629,0.284,0.959c-0.597,0.45-0.999,0.446-1.563-0.053
		c-0.35-0.31-0.665-0.657-1.008-1c-0.017-0.157-0.035-0.327-0.054-0.496c-0.508-0.442-0.861-0.973-1.178-1.565
		c-0.365-0.682-0.829-1.327-1.235-1.983c-0.521-0.843-1.113-1.674-1.452-2.629c-0.033-0.094-0.121-0.168-0.201-0.273
		c-0.063-0.372,0.107-0.82-0.228-1.169c0.112-0.613-0.25-1.282,0.216-1.854c-0.083-0.479,0.043-0.952-0.123-1.458
		c-0.182-0.551-0.09-1.19-0.113-1.702c0.336-0.539,0.621-0.996,0.903-1.448c-0.332-0.346-0.103-0.955-0.679-1.16
		c0.128-0.963-0.119-1.884-0.255-2.939c-0.155-0.125-0.404-0.325-0.584-0.47c-0.066-0.592,0.267-0.934,0.493-1.366
		c-0.618-0.431-1.494-0.553-1.572-1.482c-0.059-0.658,0.593-0.999,0.738-1.626c0.149-0.647,0.004-1.268,0.12-1.835
		c0.462-0.923,1.021-1.784,1.843-2.286c0.948-0.579,1.29-1.592,2.021-2.305c0.053-0.052,0.007-0.206,0.007-0.401
		c-0.253-0.557-1.148-0.654-1.286-1.41c0.162-0.618,0.488-1.199,0.43-1.838c0.313-0.428,0.739-0.639,1.248-0.843
		c0.141-0.269-0.01-0.638,0.051-0.894c0.309-0.413,0.654-0.374,0.987-0.312c0.325,0.17,0.324,0.458,0.324,0.79
		c0.671,0,1.344,0,2.013,0c0.137,0.273,0.254,0.508,0.389,0.776c-0.219,0.46-0.46,0.94-0.032,1.418
		c-0.135,0.244-0.318,0.47-0.214,0.778c0.097,0.097,0.198,0.198,0.306,0.306c0.208,0,0.422,0,0.653,0
		c0.264,0.283,0.533,0.572,0.798,0.857c1.079,0.125,0.986-1.11,1.685-1.347c0-0.328,0-0.616,0-0.895
		c-0.222-0.313-0.57-0.497-0.71-0.903c-0.072-0.208-0.377-0.376-0.61-0.539c-0.424-0.297-0.97-0.462-1.193-1.052
		c-0.115-0.305-0.482-0.515-0.727-0.76c0.025-0.69-0.427-1.087-0.858-1.502c0-0.284,0-0.57,0-0.915
		c0.202-0.191,0.403-0.478,0.679-0.617c0.326-0.165,0.613-0.476,1.117-0.186c0.354,0.204,0.894,0.083,1.311,0.105
		c0.477-0.434,0.214-1.077,0.625-1.537c0.339-0.379,0.538-0.917,0.929-1.458c0.396-0.223,0.918-0.532,1.551-0.54
		c0.145-0.293,0.476-0.043,0.662-0.228c0.146-0.145,0.3-0.279,0.533-0.495c0.113,0.233,0.191,0.397,0.318,0.658
		c-0.21,0.373-0.438,0.918-0.416,1.577c0.013,0.403-0.159,0.904-0.424,1.205c-0.529,0.6-0.717,1.248-0.62,1.97
		c-0.56,0.825-1.276,1.537-1.068,2.619c0.171,0.176,0.347,0.356,0.517,0.531c0.297,0,0.584,0,0.871,0
		c0.234-0.256,0.549-0.449,0.604-0.826c0.548-0.186,0.74,0.258,1.076,0.591c-0.501,0.602-1.147,1.136-0.987,2.073
		c0.171,0.773,0.368,1.662,1.541,1.901c0.109,0.127,0.295,0.345,0.474,0.554c0.356,0,0.669,0,1.07,0
		c-0.172-0.838,0.482-1.343,0.844-2.037c0.12-0.413-0.155-0.946,0.275-1.402c-0.578-0.868-1.102-1.777-1.828-2.573
		c-0.473-0.518-1.003-1.041-1.229-1.748c-0.071-0.222-0.267-0.32-0.415-0.515c0-0.284,0-0.597,0-0.899
		c0.087-0.087,0.164-0.164,0.271-0.271c0.425,0,0.883,0,1.357,0c0.769,0.512,1.718,0.81,2.361,1.522
		c0.496,0.548,0.783,1.264,1.368,1.88c0.18,0,0.494,0,0.799,0c0.318-0.303,0.539-0.641,0.514-1.174
		c-0.713-0.664-1.353-1.464-1.779-2.418c-0.027-0.062-0.092-0.113-0.15-0.152c-0.783-0.522-1.268-1.307-1.822-2.034
		c-0.151-0.198-0.352-0.359-0.516-0.523c0.239-0.978,1.067-1.107,1.854-1.287c0.275-0.325,0.518-0.655,0.472-1.125
		c0.666-0.735,1.415-1.31,2.457-1.192c0.611,0.518,0.146,1.082,0.128,1.622c-0.367,0.195-0.23,0.618-0.391,0.921
		c-0.332,0.628-0.299,0.809-0.016,1.524c0.161,0.407,0.214,0.795,0.193,1.223c0.279,0.276,0.598,0.526,0.831,0.84
		c0.205,0.276,0.539,0.462,0.766,0.492c0.733,0.095,1.173,0.558,1.643,1.035c0,0.35,0,0.708,0,1.127
		c-0.56,0.538-1.154,1.109-1.725,1.659c0.015,0.253-0.082,0.523,0.173,0.619c0.84,0.318,1.536,0.988,2.49,1.025
		c0.029,0.001,0.059-0.03,0.127-0.067c0.012-0.218,0.024-0.46,0.038-0.725c0.261-0.11,0.529-0.087,0.799-0.029
		c0.023,0.628,0.023,0.628-0.178,1.124c0.322,0.207,0.822,0.303,0.612,0.947c-0.236,0.36-0.796,0.361-1.183,0.723
		c-0.067,0.979-0.79,1.598-1.512,2.104c-0.574,0.402-0.987,0.813-1.149,1.482c-0.023,0.096-0.045,0.218-0.112,0.274
		c-0.518,0.43-0.774,1.046-1.159,1.568c-0.401,0.544-0.949,0.98-1.432,1.464c-0.204,0.204-0.448,0.381-0.602,0.617
		c-0.255,0.393-0.536,0.784-0.272,1.321c0.258,0.525,0.128,1.104,0.072,1.658c-0.011,0.109-0.223,0.183-0.163,0.325
		C27.111,33.703,28.003,33.999,27.736,34.868z M25.929,27.322c0.766-0.031,0.811-0.723,1.246-0.946
		c0.45-0.23,0.639-0.554,0.615-1.029c-0.025-0.484,0.164-0.868,0.546-1.229c0.488,0,1.018,0,1.527,0
		c0.113-0.178,0.246-0.27,0.319-0.451c0.248-0.607,0.193-1.232,0.202-1.856c0.01-0.705-0.251-1.319-0.637-1.891
		c-0.062-0.091-0.154-0.142-0.337-0.108c-0.072,0.091-0.181,0.226-0.327,0.409c0,0.35,0,0.779,0,1.044
		c-0.203,0.627-0.493,0.923-1.042,1.006c-0.511,0.077-0.831,0.522-0.871,0.996c-0.037,0.441-0.349,0.788-0.57,0.81
		c-0.547,0.056-0.908,0.445-1.387,0.562c-0.089,0.24-0.073,0.967-0.018,1.446C25.258,26.644,25.577,27.024,25.929,27.322z"/>
	<path style="fill-rule:evenodd;clip-rule:evenodd;" d="M47.232,45.185c-0.271,0.213-0.23,0.62-0.616,0.765
		c-0.358-0.238-0.947-0.157-1.191-0.646c-0.342-0.686-0.861-1.284-1.004-2.067c-0.038-0.211,0.106-0.313,0.21-0.441
		c-0.467-0.752-0.582-0.831-1.414-0.983c-0.158-0.183-0.051-0.493-0.377-0.553c0.353-0.354,0.198-0.818,0.505-1.085
		c-0.128-0.396-0.305-0.762-0.643-1.033c0-0.429,0-0.858,0-1.304c0.285-0.327,0.69-0.579,0.841-1.045c0-0.355,0-0.71,0-1.128
		c0.146-0.105,0.32-0.23,0.461-0.331c-0.002-0.811-0.426-1.502-0.174-2.303c0.075-0.076,0.203-0.203,0.387-0.386
		c-0.103-0.556,0.146-1.173-0.201-1.79c-0.139-0.246-0.145-0.713,0.003-0.942c0.287-0.445,0.216-0.899,0.17-1.329
		c-0.066-0.617,0.244-1.148,0.255-1.748c0.014-0.757-0.195-1.349-0.765-1.854c-0.489-0.435-0.913-0.893-1.034-1.627
		c-0.079-0.477-0.498-0.924-0.979-1.16c-0.163-0.08-0.298-0.167-0.42-0.285c-0.725-0.7-1.273-1.531-1.791-2.387
		c-0.409-0.677-0.862-1.314-1.401-1.91c-1.169-1.291-2.405-2.535-3.361-4.001c-0.429-0.657-1.1-0.964-1.702-1.352
		c-0.63-0.406-0.885-0.919-0.897-1.539c0.264-0.571,0.789-0.626,1.215-0.813c0.557,0.249,1.193,0.397,1.637,0.935
		c0.411,0.497,0.906,0.924,1.371,1.39c0.278,0,0.564,0,0.861,0c0.271-0.163,0.381-0.46,0.54-0.908c0-0.105,0-0.39,0-0.708
		c-0.347-0.209-0.435-0.666-0.855-0.905c-0.493-0.28-0.721-0.828-0.636-1.491c0.156-0.134,0.346-0.297,0.586-0.503
		c0.274,0,0.63,0,1.045,0c0.434,0.656,1.25,0.826,1.966,1.27c0.572,0.095,1.146-0.087,1.697-0.391
		c0.088,0.2,0.357,0.139,0.516,0.284c0.061,0.502-0.125,1.051,0.396,1.617c0.753,0.335,1.656,0.798,2.354,1.551
		c0.679-0.091,1.196-0.696,1.961-0.402c0.126,0.126,0.304,0.304,0.483,0.484c0,0.43,0,0.861,0,1.292
		c-0.102,0.498-0.6,0.66-0.868,1.022c-0.394,0.529-0.814,1.041-1.256,1.531c-0.347,0.386-0.689,0.75-0.916,1.241
		c-0.255,0.554-0.644,1.047-1.088,1.419c0.08,0.774,0.937,1.169,0.656,1.936c0.397,0.169,0.754,0.284,1.061,0.59
		c0,0.35,0,0.737,0,1.182c1.337,0.539,1.785,1.803,2.413,3.067c0,2.392,0.032,4.908-0.02,7.422
		c-0.016,0.784,0.358,1.507,0.233,2.285c-0.11,0.687-0.222,1.366-0.232,2.069c-0.012,0.779,0.458,1.52,0.22,2.282
		c-0.293,0.938-0.177,1.885-0.196,2.829C47.216,43.233,47.232,44.169,47.232,45.185z M42.905,15.183
		c0.064-1.077-0.285-1.972-1.07-2.621c-0.018-0.589-0.026-0.587-0.396-1.226c-0.69,0.362-1.027,1.149-1.762,1.467
		c-0.21,0.092-0.282,0.461-0.473,0.648c-0.607,0.599-0.852,1.234-0.444,1.808c0.853,0.58,1.327,1.262,1.943,1.761
		C41.675,16.641,42.18,15.778,42.905,15.183z"/>
	<path style="fill-rule:evenodd;clip-rule:evenodd;" d="M48.525,20.735c0.261-1.341-0.97-1.853-1.688-2.766c0-0.316,0-0.702,0-1.139
		c0.091-0.134,0.401-0.003,0.49-0.263c0.427,0,0.856,0,1.273,0c0.809-0.65,1.354-1.483,1.765-2.399
		c0.196-0.439,0.545-0.719,0.855-1.058c0.352,0,0.71,0,1.066,0c0.317,0.797,1.458,1.173,1.179,2.295
		c-0.286,0.384-0.781,0.334-1.182,0.491c-0.288,0.112-0.501,0.213-0.516,0.547c-0.015,0.323-0.186,0.595-0.386,0.807
		c-0.418,0.445-0.542,0.953-0.457,1.604c0.221,0.191,0.49,0.424,0.871,0.753c0.462,0.138,1.026-0.492,1.699-0.153
		c0,0.189,0.086,0.465-0.017,0.597c-0.273,0.354-0.198,0.734-0.195,1.11c0.007,0.868-0.392,1.648-0.529,2.486
		c-0.037,0.232-0.181,0.505-0.431,0.687c-0.339,0.245-0.588,0.587-0.78,1.133c-0.036,0.294,0.068,0.719,0.211,1.155
		c0.136,0.417-0.173,0.926,0.229,1.31c-0.116,0.987,0.641,1.842,0.432,2.844c0.225,0.323,0.096,0.788,0.298,1.057
		c0.404,0.537,0.399,1.118,0.338,1.696c-0.125,1.177,0.308,2.308,0.223,3.474c-0.016,0.216,0.202,0.289,0.216,0.451
		c0.06,0.691,0.33,1.357,0.226,2.069c-0.11,0.749,0.201,1.412,0.509,2.054c0.477,0.995,0.802,2.017,0.785,3.131
		c-0.008,0.504-0.019,1.008,0.005,1.511c0.014,0.302-0.065,0.596,0.165,0.909c0.152,0.207,0.137,0.633-0.022,0.916
		c-0.346,0.613-0.108,1.116,0.229,1.618c0.151,0.226,0.306,0.449,0.489,0.719c-0.065,0.355,0.189,0.816-0.349,1.147
		c-0.427,0-0.925,0-1.464,0c-1.025-0.59-2.739-1.954-3.277-2.828c-0.417-0.678-0.804-1.417-0.747-2.278
		c0.046-0.697,0.019-1.392-0.348-2.013c-0.145-0.245-0.075-0.484-0.076-0.723c-0.011-1.728,0.011-3.455-0.015-5.182
		c-0.01-0.619,0.09-1.234-0.174-1.868c-0.171-0.41-0.098-0.966,0.183-1.408c-0.281-0.442-0.354-1-0.18-1.407
		c0.228-0.53,0.11-1.035,0.19-1.531c-0.245-0.307-0.292-0.732-0.658-0.913c0-0.309,0-0.596,0-0.889
		c0.202-0.2,0.406-0.402,0.628-0.621c0-0.196,0-0.406,0-0.666c-0.26-0.224-0.557-0.479-0.777-0.669
		c-0.168-0.877,0.038-1.54,0.355-2.205c0.294-0.616,0.504-1.26,0.452-1.977c-0.05-0.68-0.011-1.367-0.011-2.053
		C49.172,21.859,48.898,21.303,48.525,20.735z"/>
	<path style="fill-rule:evenodd;clip-rule:evenodd;" d="M59.073,53.02c-0.356,0.054-0.706,0.147-1.038-0.303
		c0.012-0.518,0.011-1.108,0.185-1.731c0.152-0.549-0.517-1.167,0.028-1.755c0-0.611,0-1.224,0-1.835c0-0.647,0-1.295,0-1.937
		c-0.299-0.418-0.596-0.832-0.856-1.195c-0.063-0.595,0.585-0.738,0.641-1.217c0-0.392-0.027-0.786,0.006-1.175
		c0.064-0.745-0.071-1.443-0.442-2.085c-0.385-0.666-0.254-1.36-0.1-2.03c0.046-0.198,0.162-0.439,0.09-0.592
		c-0.387-0.818-0.099-1.677-0.232-2.546c0.358-0.314,0.676-0.673,0.866-1.123c-0.995-1.385-1.755-2.984-3.2-4.012
		c-0.001-1.236-1.084-2.059-1.107-3.331c0.166-0.121,0.368-0.268,0.685-0.498c0.065,0,0.307,0,0.543,0
		c0.336,0.336,0.667,0.667,1.004,1.003c0.229,0.107,0.475,0.047,0.752,0.036c0.479-0.826,1.271-1.529,1.136-2.645
		c-0.3-0.448-0.737-0.697-1.191-0.802c-0.194-0.385-0.358-0.712-0.527-1.047c0.393-0.596-0.017-1.545,0.845-1.982
		c0.747,0.338,0.93,1.146,1.369,1.758c0.483,0,0.94,0,1.371,0c0.13,0.172,0.313,0.245,0.298,0.466
		c-0.023,0.371,0.152,0.676,0.419,0.9c0.601,0.506,0.73,1.158,0.645,1.917c-0.276,0.412-0.378,1.053-1.109,1.02
		c-0.976,0.707-1.869,1.487-2.33,2.646c-0.024,0.062-0.003,0.143-0.003,0.214c0.538,0.812,1.431,1.237,2.089,1.92
		c0.529,0.55,0.918,1.202,1.354,1.819c0.063,0.09,0.044,0.261,0.166,0.36c0.719,0.584,0.953,1.466,1.407,2.215
		c0.233,0.384,0.003,0.819,0.367,1.161c0.336,0.316,0.446,0.796,0.544,1.281c0.085,0.419,0.196,0.78-0.031,1.177
		c-0.169,0.293-0.009,0.628-0.056,0.83c-0.411,0.758-0.717,1.431-0.661,2.219c0.023,0.322,0.002,0.647,0.005,0.972
		c0.01,1.112-0.331,2.123-0.798,3.124c-0.321,0.689-0.583,1.417-0.727,2.183c-0.086,0.456-0.285,0.9-0.592,1.26
		c-0.278,0.326-0.536,0.664-0.462,1.098c0.052,0.3-0.316,0.396-0.23,0.668C59.635,51.824,59.462,52.498,59.073,53.02z"/>
	<path style="fill-rule:evenodd;clip-rule:evenodd;" d="M38.777,40.936c0.535,0.21,0.598,0.662,0.438,0.925
		c-0.398,0.655,0.095,1.156,0.171,1.722c0.012,0.085,0.064,0.188,0.069,0.291c0.003,0.071,0,0.144,0,0.236
		c-0.096,0.085-0.202,0.181-0.351,0.313c-0.387,0.021-0.815,0.022-1.257,0.196c-0.807,0.318-0.817,0.162-1.974,0.054
		c-0.896-0.084-1.824-0.164-2.742,0.106c-0.494,0.146-1.051,0.076-1.586,0.104c-0.085,0.138-0.301,0.19-0.298,0.48
		c0.184,0.131,0.414,0.294,0.644,0.457c0.579,0.25,1.133-0.2,1.751-0.354c0.333-0.083,0.657-0.155,0.998-0.183
		c0.269-0.021,0.517-0.018,0.802-0.149c0.479-0.221,1.011-0.06,1.495,0.324c0.246,0.32,0.453,0.708,0.313,1.299
		c-0.988,0.676-1.787,1.772-3.082,2.201c-0.395,0-0.789,0.003-1.184,0c-0.378-0.004-0.729-0.051-1.106-0.192
		c-0.961-0.363-1.115-0.235-2.514-0.062c-0.615,0.077-1.2,0.358-1.85,0.27c-0.362-0.05-0.684,0.361-1.076,0.174
		c-0.283,0.293-0.692,0.468-0.58,1.013c0.639,0.645,1.394,0.706,2.216,0.296c0.411,0.034,0.697,0.279,1.089,0.559
		c-1.135,0.473-1.403,1.514-1.88,2.423c-0.215,0.409-0.013,0.907-0.364,1.254c-0.208,0.106-0.416,0.212-0.666,0.34
		c-0.888-0.628-1.86-0.938-3.049-0.468c-0.256-0.295-0.688-0.196-1.05-0.204c-1.08,0.609-1.68,1.448-1.466,2.685
		c-0.472,0.46-1.102,0.596-1.574,0.986c-0.106,0.088-0.295,0.156-0.313,0.257c-0.162,0.894-1.047,1.11-1.48,1.688
		c-0.271-0.006-0.541,0.059-0.622-0.195c-0.241-0.766-0.908-1.146-1.439-1.624c-0.005-0.509,0.221-0.879,0.544-1.208
		c1.034-1.054,2.108-2.057,3.322-2.911c0.463-0.326,0.827-0.797,1.228-1.209c0.142-0.146,0.284-0.433,0.275-0.517
		c-0.059-0.598,0.33-1.029,0.508-1.557c0.141-0.107,0.357-0.103,0.51-0.281c0.315-0.366,0.646-0.762,1.148-0.856
		c0.443-0.084,0.385-0.538,0.655-0.744c0.088-0.427-0.142-0.919,0.292-1.29c1.207-0.663,2.421-1.476,3.919-1.191
		c0.422-0.438,0.838-0.794,1.014-1.364c0.075-0.244,0.352-0.433,0.551-0.632c0.333-0.331,0.51-0.707,0.519-1.192
		c0.01-0.582,0.397-1.119,0.192-1.619c0.16-0.2,0.25-0.312,0.35-0.437c1.156,0.319,2.308,0.569,3.5,0.463
		c0.399-0.036,0.738,0.174,1.064,0.303c0.365,0.146,0.647,0.227,0.963-0.009c0.2-0.148,0.416-0.07,0.618-0.067
		C37.328,41.85,38.104,41.561,38.777,40.936z"/>
	<path style="fill-rule:evenodd;clip-rule:evenodd;" d="M51.664,52.197c0.374,0.4,0.785,0.689,0.961,1.412c0,0.048,0,0.333,0,0.607
		c-0.364,0.613-0.97,0.838-1.613,1.016c-0.521,1.097-1.108,1.683-2.586,2.565c-0.322,0-0.677,0-1.091,0
		c-0.37-0.337-0.784-0.702-0.748-1.355c-0.059-0.067-0.117-0.156-0.195-0.221c-0.819-0.683-0.804-1.583-0.567-2.479
		c0.109-0.414,0.072-0.882,0.44-1.286c0.315-0.146,0.723-0.298,1.037-0.64c0.512-0.556,1.039-0.893,1.895-0.521
		c0.422,0.183,0.864,0.301,1.283,0.546C50.801,52.029,51.193,52.226,51.664,52.197z"/>
	<path style="fill-rule:evenodd;clip-rule:evenodd;" d="M37.209,56.332c-0.318-0.453-0.756-0.124-1.067-0.267
		c-0.298,0.277-0.593,0.431-1.021,0.477c-0.55-0.324-0.777-0.942-1.135-1.47c-0.318-0.469-0.393-0.943-0.357-1.451
		c0.449-0.767,0.891-1.521,1.338-2.286c0.241,0,0.465-0.045,0.66,0.011c0.297,0.085,0.402-0.292,0.668-0.227
		c0.218-0.748,0.948-0.758,1.552-1.011c0.344,0.133,0.702,0.296,0.859,0.78c0.124,0.381,0.575,0.496,0.906,0.643
		c0.389,0.173,0.613,0.414,0.743,0.803c0.381,0.184,0.756,0.438,1.236,0.257c0,0.288,0,0.457,0,0.711
		c-0.363-0.076-0.651-0.211-0.988-0.446C39.728,54.24,38.208,55.017,37.209,56.332z"/>
	<path style="fill-rule:evenodd;clip-rule:evenodd;" d="M41.184,60.551c0-0.134,0.016-0.184-0.003-0.203
		c-0.209-0.24-0.424-0.475-0.615-0.687c-0.194-0.697,0.234-1.306,0.201-1.978c0.421-0.355,0.731-0.84,1.279-1.067
		c0.338-0.142,0.426-0.535,0.602-0.823c0.189-0.313,0.247-0.703,0.548-0.959c0.479-0.189,0.849,0.098,1.24,0.293
		c1.07,1.458,0.638,2.245-0.404,2.749c-0.512,1.063-0.112,2.217-0.293,3.325c-0.07,0.069-0.146,0.146-0.286,0.286
		c-0.333-0.041-0.745,0.125-1.104-0.192c-0.193,0.165-0.445,0.373-0.288,0.621c0.38,0.602,0.095,1.241,0.225,1.807
		c-0.285,0.293-0.356,0.631-0.509,0.97c-0.438,0-0.896,0-1.384,0c-0.046-0.046-0.122-0.122-0.253-0.252
		c-0.265-0.541,0.439-1.102,0.161-1.642c-0.284-0.551-0.141-1.096-0.206-1.627c0.168-0.168,0.32-0.32,0.473-0.473
		C40.725,60.506,40.992,60.73,41.184,60.551z"/>
	<path style="fill-rule:evenodd;clip-rule:evenodd;" d="M33.204,55.327c-0.315,0.174-0.181,0.646-0.578,0.741
		c-0.645,0.05-1.048-0.393-1.458-0.819c-0.355-0.046-0.64-0.016-0.971,0.233c-0.626,0.471-1.393,0.602-2.213,0.577
		c0.049-0.392,0.261-0.622,0.396-0.888c0.105-0.207,0.266-0.429,0.261-0.641c-0.015-0.716,0.43-1.145,0.882-1.576
		c0-0.584,0-1.158,0-1.757c0.714-0.284,1.373-0.685,2.011-1.12c0.536-0.134,1.018-0.007,1.445,0.293
		c0.673,0.66,0.473,1.429,0.188,2.114c-0.219,0.526-0.269,0.972-0.05,1.481C33.308,54.409,33.129,54.881,33.204,55.327z"/>
	<path style="fill-rule:evenodd;clip-rule:evenodd;" d="M34.485,61.599c-0.183,0.183-0.284,0.283-0.407,0.407
		c0,0.329,0,0.682,0,1.095c0.256,0.319,0.598,0.652,0.635,1.175c0.03,0.434-0.325,0.657-0.373,0.979
		c-0.37,0.2-0.694,0.084-0.999,0.124c-0.715-0.563-0.064-1.495-0.613-2.154c0.392-0.38,0.198-0.893,0.267-1.409
		c-0.794-0.581-1.195-1.533-1.962-2.15c0-0.299,0-0.586,0-0.88c0.251-0.246,0.506-0.497,0.755-0.74
		c0.914-0.118,1.91,0.295,2.63-0.459c0.296,0.032,0.353,0.238,0.502,0.333c0,0.645,0.044,1.292-0.013,1.932
		C34.854,60.448,34.402,60.963,34.485,61.599z"/>
	<path style="fill-rule:evenodd;clip-rule:evenodd;" d="M54.153,55c0.632,0.05,0.935,0.553,1.425,0.686
		c0.361,0.525,0.42,1.061-0.022,1.653c-0.828,0.285-1.353,1.215-2.291,1.417c-0.251,0.391-0.435,0.745-0.468,1.174
		c-0.753,0.117-1.119,0.858-1.831,1.096c-1.096-0.698-1.152-0.809-1.127-2.252c0.102-0.102,0.211-0.299,0.303-0.29
		c1.125,0.1,1.489-0.737,1.931-1.506C52.582,56.091,53.278,55.396,54.153,55z"/>
	<path style="fill-rule:evenodd;clip-rule:evenodd;" d="M37.051,60.31c0.076-0.489,0.557-0.658,0.765-0.962
		c0.43-0.097,0.643,0.215,0.969,0.259c0,0.421,0,0.845,0,1.394c-0.091,0.057-0.273,0.17-0.45,0.279
		c0.15,1.305,0.536,2.536-0.05,3.864c-0.082,0.079-0.264,0.251-0.464,0.44c-0.328,0-0.686,0-1.123,0
		c-0.176-0.19-0.379-0.442-0.615-0.659c-0.482-0.444-0.776-0.941-0.747-1.638c0.02-0.467-0.177-0.916-0.443-1.376
		C35.289,61.024,36.173,60.772,37.051,60.31z"/>
	<path style="fill-rule:evenodd;clip-rule:evenodd;" d="M43.469,45.457c0.272,0.135,0.511,0.252,0.79,0.39
		c0.274,0.583,0.753,1.123,0.556,1.966c-0.391,0.391-0.826,0.867-1.307,1.293c-0.348,0.308-0.589,0.682-0.809,1.072
		c-0.53,0.942-1.54,0.961-2.175,0.076c-0.38-0.529-0.614-1.11-0.844-1.738c0.124-0.543,0.579-0.888,0.956-1.277
		c0.533,0.01,0.915-0.262,1.267-0.615C42.343,46.182,42.737,45.677,43.469,45.457z"/>
	<path style="fill-rule:evenodd;clip-rule:evenodd;" d="M25.822,63.281c0.181-0.371,0.341-0.699,0.512-1.051
		c0.294-0.043,0.486-0.307,0.7-0.529c0.308-0.32,0.679-0.442,1.117-0.434c0.644,0.014,1.288,0.004,1.921,0.004
		c0.617,0.675,0.688,1.656,1.386,2.261c0,0.281,0,0.567,0,0.876c-0.687,0.784-1.592,0.897-2.539,0.656
		c-0.236-0.061-0.474-0.143-0.698-0.108c-0.317,0.05-0.634-0.141-0.742-0.267C26.995,64.13,26.271,63.854,25.822,63.281z"/>
	<path style="fill-rule:evenodd;clip-rule:evenodd;" d="M20.903,60.886c-0.069-0.716,0.079-1.202,0.385-1.708
		c0.342-0.562,0.382-1.235,0.083-1.91c0.197-0.396,0.415-0.836,0.641-1.293c0.25,0.014,0.443-0.229,0.671-0.347
		c0.379-0.195,0.648-0.251,1.06-0.062c0.329,0.151,0.758,0.087,1.147,0.118c0.17,0.164,0.351,0.338,0.523,0.504
		c0,0.229,0,0.444,0,0.657c-0.599,0.586-1.098,1.245-1.533,1.957c-0.091,0.148-0.255,0.252-0.375,0.385
		c-0.349,0.388-0.732,0.729-1.017,1.192c-0.28,0.456-0.724,0.845-1.323,0.93c-0.094,0.221-0.121,0.483-0.494,0.592
		c-0.057-0.003-0.236,0.076-0.423-0.066c-0.007-0.116-0.014-0.254-0.025-0.454C20.452,61.214,20.712,61.025,20.903,60.886z"/>
	<path style="fill-rule:evenodd;clip-rule:evenodd;" d="M24.951,59.794c0.72-0.296,1.092-0.759,1.361-1.402
		c0.164-0.39,0.648-0.646,1.04-1.008c0.261,0,0.62,0,0.979,0c0.195,0.254,0.6,0.213,0.77,0.586c-0.167,0.68-0.705,1.132-1.246,1.554
		c-0.114,0.09-0.337,0.132-0.413,0.273c-0.372,0.693-1.122,0.996-1.595,1.588c0.163,0.374-0.304,0.608-0.22,0.981
		c0.081,0.354-0.086,0.668-0.308,1.034c-0.372,0.285-0.871,0.331-1.311,0.007c-0.44-0.324-0.61-0.823-0.535-1.354
		C23.975,61.304,25.218,61.103,24.951,59.794z"/>
	<path style="fill-rule:evenodd;clip-rule:evenodd;" d="M44.914,64.12c-0.18-0.651,0.135-1.034,0.373-1.533
		c-0.073-0.45,0.173-1.033-0.214-1.534c0.417-0.571,0.12-1.229,0.232-1.849c0.126-0.106,0.247-0.229,0.213-0.44
		c0.306-0.027,0.49-0.388,0.784-0.314c0.374,0.061,0.452,0.4,0.689,0.505c0.153,0.633-0.382,1.154-0.142,1.813
		c0.189,0.19,0.375,0.507,0.761,0.558c0.177,0.185-0.142,0.539,0.248,0.629c-0.039,0.082-0.066,0.13-0.085,0.182
		c-0.175,0.474-0.487,0.836-0.976,0.963c-0.53,0.137-0.741,0.688-1.252,0.869C45.337,64.041,45.148,64.024,44.914,64.12z"/>
	<path style="fill-rule:evenodd;clip-rule:evenodd;" d="M55.751,18.809c-0.182,0.093-0.342,0.174-0.67,0.342
		c-0.032,0-0.316,0-0.488,0c-0.215-0.139-0.361-0.234-0.487-0.316c0.114-0.404,0.397-0.56,0.625-0.78
		C55.059,18.23,55.452,18.282,55.751,18.809z"/>
	<path style="fill-rule:evenodd;clip-rule:evenodd;fill:none;" d="M25.929,27.322c-0.353-0.297-0.671-0.678-0.734-1.236
		c-0.055-0.479-0.071-1.206,0.018-1.446c0.479-0.117,0.84-0.506,1.387-0.562c0.221-0.022,0.533-0.369,0.57-0.81
		c0.04-0.474,0.36-0.919,0.871-0.996c0.549-0.083,0.84-0.379,1.042-1.006c0-0.266,0-0.695,0-1.044
		c0.146-0.183,0.254-0.318,0.327-0.409c0.184-0.034,0.276,0.018,0.337,0.108c0.386,0.571,0.647,1.186,0.637,1.891
		c-0.009,0.624,0.046,1.249-0.202,1.856c-0.074,0.181-0.207,0.273-0.319,0.451c-0.509,0-1.039,0-1.527,0
		c-0.382,0.36-0.571,0.745-0.546,1.229c0.024,0.475-0.165,0.798-0.615,1.029C26.74,26.599,26.695,27.291,25.929,27.322z"/>
	<path style="fill-rule:evenodd;clip-rule:evenodd;fill:none;" d="M42.905,15.183c-0.725,0.595-1.229,1.458-2.202,1.838
		c-0.616-0.499-1.091-1.181-1.943-1.761c-0.407-0.574-0.163-1.209,0.444-1.808c0.19-0.187,0.263-0.556,0.473-0.648
		c0.734-0.318,1.071-1.105,1.762-1.467c0.37,0.638,0.379,0.636,0.396,1.226C42.62,13.211,42.969,14.106,42.905,15.183z"/>
</g>
</svg>
