<svg xmlns="http://www.w3.org/2000/svg" xml:space="preserve" width="72px" height="72px" viewBox="0 0 72 72">
    <g fill="currentColor">
        <path d="M46.72 12.019c.595.005 1.012.347 1.369.771.013.589.329 1.046.646 1.473.351.475.222 1.055.548 1.643.284.256.609.68 1.075.935.426.318.235.863.478 1.29.521.92.948 1.895 1.767 2.615.419.368.72.805.938 1.338.263.645.728 1.199.975 1.864.239.644.665 1.172 1.053 1.728.183.26.304.636.284.948-.035.542.334.987.276 1.521-.007.067.142.151.251.261l.225-.378h.913c.17.167.024.359.099.51-.204.164-.482.167-.64.436v1.267c.202.269.235.702.625.858 0 .249.023.467-.004.678-.132.993.19 1.927.495 2.823.148.434.246.898.114 1.21-.177.424-.152.815-.17 1.225-.022.53-.011.53-.432 1.229-.039 1.061.227 2.188-.706 3.033.697.953-.276 1.865.097 2.762l-.974.919c-.456 1.223-1.3 2.165-1.467 3.452-.437.421-.796.954-1.111 1.532-.164.3-.256.667-.729.789-.365.094-.503.727-.515 1.486-.382.789-1.317.62-1.92 1.05l-.04.766c-.141.175-.339.037-.489.104-.269-.205-.091-.477-.152-.737l.461-.512c-.339-.62-.378-1.222-.014-1.793a2.7 2.7 0 0 0 .416-1.916l1.475-1.467c.13-.866-.115-1.623.258-2.316.045-.084-.013-.217.01-.32.103-.47-.403-.882-.199-1.305.198-.409.13-.814.208-1.214.106-.546-.401-.983-.185-1.564.428-.287.909-.577 1.261-1.049.039-.989-.997-.898-1.521-1.492 0-.33-.159-.856.034-1.153.354-.545-.09-1.217.397-1.68-.111-.596-.632-.952-.864-1.598v-1.526c-.449-.985-1.409-1.59-1.552-2.715-.479-.444-.887-1.046-1.496-1.168-.875-.935-1.128-2.06-1.513-3.144-1.242-.408-1.82-1.45-2.445-2.602l-1.27-.643-.561-1.089c-.446-.093-.95-.063-1.418-.476-.208-.924-1.02-1.467-1.867-2.02.201-.715-.142-1.31-.497-1.826-.307-.444-.496-.886-.552-1.396-.043-.399-.21-.716-.521-1.012h-.914l-.083.178c-.355.77-.797 1.068-1.619 1.091-.107.003-.216-.001-.324 0-.635.011-.892.16-1.31.777a6.9 6.9 0 0 0 2.146 1.031l.859.859c.06.341.108.688-.282.982h-.84c-.802.63-1.795.89-2.335 1.714-.283.03-.553-.005-.761.092-.548.256-1.059.523-1.688.645-.678.131-1.252.757-1.561 1.349-.419.804-.93 1.551-1.329 2.361-.058.117-.026.278-.043.535-.094.078-.238.287-.426.338-.501.137-.737.523-.839.939-.2.814-.645 1.5-1.149 2.11-.645.779-.838 1.631-.82 2.517-.316.596-.666 1.099-1.028 1.598-.238.328-.425.802-.514 1.295-.146.816-.418 1.664-1.136 2.214-.272.208-.278.561-.552.778 0 1.489-.001 2.998.001 4.506 0 .241-.069.51.202.672-.124.405.324.675.242 1.096-.068.347-.014.717-.014 1.021.245.418.38.944.709 1.137.42.246.507.699.872.954.374.261.562.665.587 1.154.036.694.597 1.067 1.025 1.516.083.779.688 1.394.699 2.229.61.409.972 1.079 1.408 1.66.32.427.652.964.54 1.607-.055.314-.01.646-.01.971.135.363.562.48.682.909.084.301.479.514.801.829-.078.79.579 1.212 1.073 1.744.133.511-.051.927-.379 1.32-.314.377-.088.952-.449 1.324.242.635.242.635-.117 1.392-.396.434-.907.472-1.353.415-1.112-.399-1.958-1.301-3.166-1.063l-1.088-1.088c-.535.179-1.037-.155-1.438-.459-.656-.496-1.456-.72-2.093-1.247-.235-.196-.559-.348-.664-.618-.216-.558-.667-.796-1.161-.896-.442-.089-.752-.305-1.056-.595-.222-.212-.42-.433-.736-.564-.249-.104-.439-.392-.569-.714-.203-.504-.524-.976-1.097-1.172-.344-.117-.392-.479-.528-.73-.274-.507-.415-1.077-1.071-1.274-.184-.055-.216-.341-.326-.497a16 16 0 0 1-1.516-2.616c-.389-.862-.938-1.634-1.484-2.375.071-.357.382-.464.542-.703h.969c.03.041.104.165.2.27.17.186.328.468.537.518.937.225 1.279.914 1.501 1.734.016.061.097.104.177.183.349.186.84.149 1.206.565.133.647.381 1.303 1.153 1.589a.57.57 0 0 1 .3.3c.322.903 1.042 1.568 1.433 2.431a3.38 3.38 0 0 0 1.534 1.621c.184.099.347.021.525.076.183-.3.056-.629.102-.95-.065-.073-.136-.149-.203-.229-.764-.907-1.538-1.807-2.283-2.729-.161-.199-.226-.479-.327-.725-.272-.659-.438-1.388-1.121-1.783-.239-.139-.288-.433-.347-.611-.174-.524-.489-.906-.919-1.29.263-1.536-.919-2.397-1.713-3.552v-.983c.392-.345.87-.358 1.361-.337.172.008.406.037.509-.057.457-.414.856-.03 1.251.075.444.119.192.723.539.95-.127 1.033.57 1.869.68 2.857.059.53.355 1.043 1.004 1.188l.518 1.395c.574.286 1.211.468 1.696 1.063-.198.789.284 1.521.454 2.315.072.337.368.669.644.909.649.567 1.342 1.088 2.033 1.604.092.069.279.01.474.01.343-1.009-.602-1.758-.586-2.712-.664-.518-1.101-1.231-1.496-1.959-.245-.45-.531-.77-1.006-.974-.619-.267-1.109-.731-1.346-1.359-.128-.34-.28-.529-.656-.597v-1.981c-.813-.684-1.101-1.588-1.324-2.522-.11-.464-.172-.913-.753-1.097-.209-.066-.418-.337-.557-.608-.316-.622-.736-1.181-1.283-1.603 0-.387-.004-.747 0-1.106.008-.661-.058-1.319.206-1.967.341-.835.215-1.731.224-2.606.009-1.03.099-1.225 1.007-2.048-.029-.406.533-.505.49-.868-.035-.294.214-.419.25-.666.032-.217.213-.411.329-.615.432-.497 1.337-.244 1.606-1.148-.045-.244-.679-.371-.392-.878-.623-.244-1.169-.534-1.559-1.16-.027-.156.067-.342.188-.576.371-.72.652-1.469 1.216-2.098.259-.289.462-.723.547-1.167.088-.465.327-.897.634-1.242.574-.644.938-1.344.885-2.211.236-.113.515-.115.617-.631-.285-1.078.322-2.01 1.297-2.789.14-.112.256-.252.383-.379.292-.604-.252-1.134-.14-1.806.312-.214.519-.606.981-.804.368-.157.549-.603.519-1.132.325-.223.554-.591.991-.816.473-.244.592-.817.512-1.329.344-.344.696-.616.94-.964.225-.31.387-.657.773-.886.831.117 1.663-.076 2.406-.554.292-.188.593-.069.897-.183.644-.239 1.139-.714 2.052-.983.286 0 .895.127 1.421-.026 1.125-.329 2.254-.093 3.373-.195.649-.06 1.248.073 1.759.448.483.355 1.069.492 1.593.566.894.126 1.642.593 2.484.811.394.101.74.285 1.062.582.271.249.635.415.883.709.268.317.396.679.49 1.098.085.375.365.744.752.971M23.007 24.432c-.103-.142-.244-.127-.304-.073-1.034.938-1.961 1.97-2.68 3.174-.06.101-.008.27-.008.436h1.223c.161-.164.327-.256.29-.473-.055-.321.346-.515.223-.877-.138-.409.518-.475.432-.887.443-.342.54-.892.824-1.3m8.262-7.326c-.612-.253-1.165.347-1.855.32-1.025 1.017-1.337 1.421-1.317 1.691.156.085.246-.033.371-.088.603-.265 1.2-.588 1.835-.717.618-.125 1.066-.375 1.45-.942zm-6.582 40.193-.304.416c.158.168.324.356.507.527.038.035.137.005.254.005.148-.381.037-.659-.457-.948"/>
        <path d="m44.854 44.313.422.422v.642a4.14 4.14 0 0 1-2.066 1.455c-.172.438-.566.746-.683 1.285-.697-.106-1.16.184-1.64.57-.877.709-1.886 1.134-3.092.876-.422-.467-1.094-.458-1.658-.565a4.25 4.25 0 0 1-1.819-.811c-.684-.537-1.386-1-2.194-1.245-.879-.267-1.323-1.006-1.954-1.544.027-.396-.314-.562-.545-.735-.437-.328-.881-.603-.986-1.207-.022-.128-.237-.273-.39-.319-.64-.19-1.047-.615-1.331-1.328.283-1.461-.611-2.684-1.285-4.053-.121-.67.202-1.337.339-2.16a1.6 1.6 0 0 0-.552-.768v-.682c.115-.092.235-.257.388-.296a2.04 2.04 0 0 0 1.291-.992c.201-.372.505-.514.76-.505 1.027.035 1.957-.28 2.857-.686.545-.246 1.091-.178 1.638-.207 1.671 1.065 1.636 1.118 2.458 3.676.542.042.465-.536.773-.768-.149-.589.165-1.142.192-1.727.027-.573.006-1.149.006-1.714l-.54-.543h-1.225l-1.207-.626c-.646-.104-1.336-.027-1.986.403-.555.367-1.175.571-1.899.398-.379-.501-.731-1.019-.344-1.75.135-.254.064-.617.079-.807l-.699-1.356c.658-.56 1.12-1.37 2.046-1.674.184-.06.401-.243.461-.418.244-.704.886-.889 1.434-1.211.173-.102.431-.061.525-.3h1.088l.564-.589v-1.075c.379-.23.657.033.892.168.368.212.651.241 1.06.08.725-.287 1.176-.05 1.703.635.231.301.505.573.846.787 1.188.744 2.281 1.617 3.208 2.669.583.661.838 1.517 1.114 2.34.136.402-.156.726-.343 1.038-.145.24-.396.415-.63.649-.514-.081-1.052.076-1.611-.195-.408-.197-.949.037-1.183.432-.265.449-.639.9-.547 1.497.106.686-.227 1.418.217 2.069-.111.493.304.67.552.933h.52c-.1-.396.134-.719.251-1.059.235-.681.517-1.378 1.388-1.575.163-.037.496-.08.584-.349 1.972-.049 1.794-.322 3.402 1.39 0 .504.029 1.01-.01 1.511-.033.432.297.761.243 1.209-.047.397-.154.852.198 1.204-.021 1.371.174 2.77-.293 4.09-.166.47-.123.901-.124 1.345-.002.442-.108.854-.4 1.126-.293.273-.251.559-.263.94m-9.417-5.944-1.01-1.122c-.083.871-.397 1.729.354 2.393.57.115 1.085.009 1.546-.388.76-.083 1.642.225 2.298-.616l-1.373-.729c-.595.175-1.125.535-1.815.462m.886 4.759h-.869c-.258.334-.625.507-1.014.647-.966-.871-1.193-1.013-1.637-.758-.147.085-.481-.031-.475.374.11.236.357.421.589.61.854-.042 1.685-.066 2.449.474.469-.493 1.065-.17 1.554-.195.573-.09.739.446 1.148.648.468.231.68.142.926-.17-.527-.702-1.165-1.137-2.02-.978-.245-.247-.448-.45-.651-.652m13.508 17.827c-.013-.586.022-1.126.326-1.695.226-.425.1-1.037.131-1.592.235-.143.578-.032.817-.34.173-.222.139-.564.468-.67-.148-.788.141-1.402.738-1.854.274-.207.277-.561.532-.764v-1.065c.189-.25.426-.437.553-.751.097-.24.271-.434.35-.723.095-.346.44-.64.794-.808.597-.282.849-.761.899-1.381a1.37 1.37 0 0 1 .437-.899c.207-.2.408-.406.662-.66-.344-1.078.506-1.739 1.025-2.523.299-.452.59-.885.786-1.405.108-.288.032-.552.161-.85.512-.637 1.28-.481 1.88-.494 1.289.445 1.375 1.509 1.599 2.534l1.174.467c.261 1.166-.679 1.622-1.243 2.303 0 .376-.021.772.006 1.166a1.51 1.51 0 0 1-.537 1.288c-.4.353-.589.828-.862 1.259-.161.253.03.57-.271.765-.237.151-.439.377-.613.604-.67.876-1.504 1.624-2.048 2.603-.116.21-.305.384-.477.558-.555.564-1.127 1.111-1.674 1.685-.435.455-.894.862-1.503 1.065-.454.15-.745.512-1.05.844-.207.224-.312.594-.554.718-.259.132-.439.326-.664.479-.395.268-.825.449-1.321.462-.266.004-.359-.197-.521-.326m10.594-13.201c-.084-.146.075-.343-.086-.488-.365-.122-.648.002-.786.329-.132.313.087.529.321.71z"/>
    </g>
</svg>
