<?xml version="1.0" encoding="iso-8859-1"?>
<!-- Generator: Adobe Illustrator 16.0.0, SVG Export Plug-In . SVG Version: 6.00 Build 0)  -->
<!DOCTYPE svg PUBLIC "-//W3C//DTD SVG 1.1//EN" "http://www.w3.org/Graphics/SVG/1.1/DTD/svg11.dtd">
<svg version="1.1" id="Layer_1" xmlns="http://www.w3.org/2000/svg" xmlns:xlink="http://www.w3.org/1999/xlink" x="0px" y="0px"
	 width="72.359px" height="72.899px" viewBox="0 0 72.359 72.899" style="enable-background:new 0 0 72.359 72.899;"
	 xml:space="preserve">
<g>
	<path style="fill-rule:evenodd;clip-rule:evenodd;fill:none;" d="M79.632,80.423c-28.872,0-57.744,0-86.616,0
		c0-29.159,0-58.319,0-87.479c28.872,0,57.744,0,86.616,0C79.632,22.104,79.632,51.264,79.632,80.423z M27.57,25.758
		c-0.178-0.351-0.45-0.43-0.44-0.752c0.008-0.262-0.156-0.497-0.004-0.802c0.141-0.283-0.186-0.547-0.229-0.869
		c-0.088-0.654-0.317-1.299-0.561-1.919c-0.328-0.833-0.321-1.69-0.08-2.719c0.117-0.498,0.368-0.941,0.453-1.436
		c0.183-1.063,0.688-1.962,1.536-2.586c0.428-0.315,0.802-0.669,1.189-1.019c0.134-0.121,0.236-0.327,0.386-0.368
		c0.673-0.183,0.6-0.807,0.847-1.259c0.378-0.692-0.043-1.092-0.352-1.59c-0.583,0-1.157,0.023-1.727-0.009
		c-0.301-0.017-0.555,0.054-0.772,0.229c-0.507,0.408-1.11,0.62-1.698,0.858c-1.815,0.734-2.784,2.232-3.484,3.935
		c-0.14,0.341-0.286,0.674-0.422,1.004c-0.206,0.457,0.131,0.943-0.209,1.442c-0.26,0.381,0.422,0.871,0.099,1.366
		c-0.198,0.249-0.434,0.348-0.737,0.19c-0.296-0.154-0.639-0.254-0.881-0.468c-0.734-0.647-1.699-0.782-2.525-1.211
		c-0.432-0.225-0.878-0.15-1.317-0.218c-0.65-0.102-1.227,0.235-1.856,0.23c-1.303-0.009-2.336,0.634-3.103,1.583
		c-0.458,0.566-0.951,1.146-1.26,1.842c-0.302,0.682-0.709,1.308-1.183,1.894c-0.081,0.1-0.218,0.285-0.225,0.435
		c-0.032,0.647-0.533,1.127-0.593,1.759c0.232,0.064,0.077,0.332,0.239,0.454c0.301,0,0.614,0,0.817,0
		c0.507-0.237,0.557-0.724,0.867-0.995c0.976-0.312,1.934-0.705,3.005-0.414c-0.311,0.585-0.314,0.585-0.79,0.79
		c-0.653,0.282-1.271,0.61-1.83,1.065c-0.663,0.541-1.458,0.942-2.039,1.554c-0.648,0.683-1.279,1.423-1.633,2.335
		c-0.084,0.217-0.158,0.457-0.307,0.625c-0.439,0.499-0.544,1.083-0.562,1.717c-0.009,0.337,0.147,0.72-0.194,0.997
		c0.112,0.537-0.326,0.979-0.242,1.526c0.079,0.517-0.295,0.979-0.222,1.531c0.075,0.566,0.074,1.157,0.001,1.724
		c-0.08,0.618,0.28,1.144,0.24,1.749c-0.078,1.186,0.447,2.245,0.775,3.346c0.245,0.819,0.905,1.305,1.458,1.889
		c0.31,0,0.624,0,0.763,0c0.315-0.23,0.517-0.377,0.667-0.487c0-0.592-0.039-1.1,0.013-1.598c0.039-0.375-0.068-0.717-0.244-0.982
		c-0.521-0.785-0.742-1.617-0.637-2.55c0.028-0.249-0.006-0.504,0.006-0.755c0.045-0.933,0.383-1.765,0.848-2.565
		c0.343-0.59,0.918-0.98,1.283-1.525c0.397-0.591,0.853-1.048,1.442-1.448c0.422-0.286,0.926-0.509,1.229-0.965
		c0.029-0.043,0.123-0.042,0.112-0.039c0.232,0.21,0.439,0.397,0.704,0.636c0,0.112,0,0.326,0,0.536
		c0.39,0.317,0.719,0.763,0.81,1.174c0.1,0.456,0.368,0.896,0.277,1.414c-0.09,0.514,0.371,0.979,0.18,1.504
		c0.464,0.374,0.752,0.898,1.208,1.052c0.181,0.327,0.444,0.574,0.21,1.13c0.013-0.007-0.18,0.097-0.314,0.169
		c-0.003,0.679,0.045,1.212,0.383,1.772c0.291,0.482,0.571,0.994,0.898,1.45c0.299,0.417,0.401,0.939,0.813,1.295
		c0.577,0.498,1.131,1.031,1.236,1.86c0.02,0.155,0.125,0.313,0.225,0.443c0.815,1.072,1.464,2.274,2.503,3.147
		c0,0.175,0,0.314,0,0.33c0.301,0.34,0.538,0.605,0.773,0.872c0.523-0.154,0.926,0.271,1.441,0.213
		c1.044-0.118,1.911,0.37,2.753,0.912c-0.105,1.061,0.24,1.988,0.678,2.877c0.166,0.336,0.309,0.657,0.422,1.018
		c0.123,0.391,0.35,0.814,0.81,1.019c0.456,0.202,0.76,0.562,0.965,1.032c0.3,0.691,0.854,1.16,1.523,1.513
		c0.917,0.113,1.862,0.449,2.788,0.228c0.735-0.177,1.454-0.174,2.185-0.186c0.647-0.01,1.296-0.002,1.947-0.002
		c0.173-0.217,0.466-0.334,0.548-0.628c0.257-0.92,0.951-1.513,1.589-2.151c0.348-0.348,0.72-0.582,1.228-0.699
		c0.766-0.177,1.14-0.782,1.076-1.512c-0.021-0.248-0.003-0.5-0.003-0.724c0.169-0.25,0.304-0.49,0.479-0.696
		c0.185-0.218,0.407-0.404,0.597-0.589c0.186-1.14,0.714-1.624,2.472-2.289c0.614,0.323,1.111,0.204,1.409-0.432
		c0.242-0.52,0.574-0.939,1.007-1.297c0.26,0.029,0.464-0.033,0.66-0.239c0.62-0.651,1.278-1.268,1.896-1.922
		c0.158-0.168,0.365-0.179,0.527-0.294c0.482-1.141,0.486-1.136,1.513-1.954c0.224-0.179,0.506-0.369,0.594-0.614
		c0.188-0.519,0.594-0.896,0.795-1.399c0.049-0.122,0.203-0.222,0.144-0.369c-0.146-0.356,0.249-0.559,0.227-0.885
		c-0.024-0.357-0.006-0.718-0.006-1.077c-0.106-0.386-0.433-0.615-0.688-0.966c0.351-1.521,0.825-3.055,0.916-4.632
		c-0.16-0.16-0.287-0.287-0.415-0.415c-0.06-0.35-0.08-0.688,0.186-0.979c0.614-0.674,0.953-1.613,1.928-1.977
		c0.804,0.1,1.631-0.018,2.485,0.175c0.69,0.156,1.272,0.336,1.688,0.88c0.216,0.283,0.495,0.214,0.758,0.295
		c0.087,0.14,0.051,0.329,0.217,0.452c0.573,0.426,0.952,1.034,1.364,1.595c0.501,0.684,0.865,1.453,0.851,2.344
		c-0.01,0.612-0.03,1.226,0.005,1.835c0.045,0.783-0.199,1.474-0.54,2.155c-0.255,0.508-0.516,1.022-0.558,1.617
		c0.107,0.098,0.214,0.194,0.36,0.328c1.323,0.036,2.015-1.014,2.938-1.878c-0.276-0.86,0.184-1.723,0.204-2.638
		c0.008-0.34,0.312-0.773,0.155-1.087c-0.292-0.587-0.172-1.174-0.184-1.759c-0.025-1.258-0.008-2.517-0.008-3.764
		c-0.359-0.328-0.334-0.815-0.546-1.193c-0.26-0.464,0.022-0.979-0.149-1.447c-0.154-0.155-0.293-0.418-0.463-0.44
		c-0.539-0.07-0.661-0.538-0.76-0.871c-0.276-0.923-0.849-1.558-1.669-1.969c-0.192-0.097-0.348-0.208-0.512-0.339
		c0-0.139,0-0.282,0-0.441c0.281-0.142,0.574-0.289,0.774-0.389c0.289-0.507,0.474-0.952,0.084-1.396
		c-0.128-1.524-1.074-2.574-2.114-3.545c-0.363-0.34-0.827-0.739-1.276-0.783c-0.837-0.081-1.423-0.592-2.226-0.904
		c-0.185,0-0.474-0.014-0.761,0.003c-0.943,0.054-1.882-0.074-2.836,0.176c-0.579,0.151-1.195,0.389-1.847,0.263
		c-0.308-0.06-0.638-0.01-0.854-0.01c-0.627,0.347-0.763,1.064-1.398,1.271c-0.075-0.143-0.215-0.245-0.313-0.396
		c-0.271-0.419-0.133-0.938-0.408-1.348c-0.224-0.333-0.341-0.718-0.478-1.099c-0.162-0.451-0.313-1.019-0.784-1.282
		c-0.404-0.227-0.679-0.589-0.871-0.931c-0.575-1.023-1.352-1.56-2.036-1.461c-1.655-0.201-2.055-1.443-3.075-1.85
		c-0.302,0-0.616,0-0.896,0c-0.108,0.109-0.186,0.186-0.291,0.292c0,0.111,0.002,0.25,0,0.391c-0.013,0.833,0.282,1.493,1.023,1.938
		c0.369,0.222,0.622,0.617,0.681,1.003c0.096,0.63,0.437,1.147,0.732,1.641c0.344,0.575,0.323,1.231,0.644,1.793
		c0.426,0.746,0.511,1.565,0.282,2.396c-0.215,0.781-0.659,1.505-0.558,2.362c0.008,0.062-0.022,0.133-0.051,0.193
		c-0.201,0.421-0.328,0.911-0.628,1.242c-0.417,0.46,0.112,1.083-0.363,1.479c-0.091,0.826-0.694,1.438-0.932,2.208
		c-0.051,0.163-0.24,0.365-0.575,0.297c-0.031-0.315-0.059-0.588,0.131-0.953c0.326-0.626,0.585-1.314,0.483-2.067
		c-0.034-0.247-0.006-0.501-0.006-0.667c0.326-0.634,0.616-1.197,0.906-1.761c0.11-0.316-0.279-0.4-0.278-0.688
		c0.004-0.802-0.463-1.304-1.174-1.662c-0.298-0.149-0.654-0.23-0.891-0.449c-0.557-0.518-1.214-0.585-1.918-0.602
		c-0.788-0.019-1.545-0.195-2.22-0.641c-0.644,0-1.293,0.025-1.939-0.007c-0.612-0.031-1.063,0.238-1.462,0.657
		c-0.992-0.155-1.824,0.681-2.702,0.442c-0.561,0.271-1.032,0.457-1.453,0.722c-0.2,0.126-0.475,0.116-0.61,0.366
		c-0.305,0.559-0.684,1.084-0.934,1.666c-0.353,0.822-0.341,0.921,0.075,1.721c0.111,0.214,0.119,0.395,0.125,0.597
		c0.012,0.431,0.004,0.863,0.004,1.168c0.307,0.573,0.438,1.127,0.835,1.396c0,0.309,0,0.517,0,0.713
		c-0.194,0.106-0.366,0.062-0.542,0.039c-0.115-0.563-0.689-0.772-0.967-1.253C27.465,26.645,27.683,26.193,27.57,25.758z
		 M28.046,64.437c0.027-0.708-0.414-1.187-0.908-1.615c0-0.379,0-0.736,0-1.088c-0.323-0.329-0.688-0.613-0.858-1.339
		c0-0.62-0.015-1.519,0.005-2.415c0.012-0.527-0.109-1.069-0.334-1.478c-0.272-0.495-0.313-0.97-0.32-1.465
		c-0.629-0.462-0.748-0.45-1.703,0.179c-0.092,0.768-0.456,1.48-0.901,2.318c0.021,0.825,0.43,1.774,0.169,2.754
		c-0.135,0.102-0.207,0.307-0.481,0.253c-0.351-0.323-0.604-0.716-0.8-1.229c-0.148-0.39-0.192-0.797-0.275-1.173
		c-0.232-1.054-0.735-2.035-0.784-3.144c-0.019-0.443-0.295-0.875-0.479-1.381c-0.318,0.208-0.409-0.337-0.755-0.221
		c-0.403,0.271-0.853,0.437-1.273,0.625c-0.396-0.336-0.235-0.882-0.564-1.208c-0.332-0.33-0.662-0.661-0.995-0.994
		c0.064-0.839-0.635-1.535-0.446-2.311c-0.348-0.766-0.813-1.266-1.474-1.269c-0.314,0.24-0.513,0.393-0.67,0.513
		c-0.063,1.451-0.064,2.835,0.614,4.114c-0.089,0.567,0.307,1.053,0.249,1.631c-0.056,0.554,0.131,1.066,0.504,1.514
		c0.165,0.197,0.344,0.485,0.323,0.715c-0.05,0.536,0.409,0.858,0.455,1.334c0.684,0.61,0.77,1.478,0.939,2.289
		c0.596,0.39,1.309,0.52,1.761,1.067c0.978-0.074,1.522,0.503,1.909,1.239c0.277,0.127,0.561,0.191,0.75,0.361
		c0.264,0.237,0.563,0.026,0.807,0.147c0.241,0.12,0.466,0.282,0.673,0.455c0.219,0.184,0.409,0.403,0.491,0.486
		c0.799,0.306,1.461,0.533,2.102,0.813c0.471,0.207,0.98,0.547,1.441,0.346c0.336-0.146,0.769-0.063,0.972-0.41
		c0.905,0.418,1.743,0.87,2.717,0.876c0.208,0.001,0.304,0.146,0.454,0.213c0.94,0.423,1.907,0.767,2.964,0.654
		c0.396-0.043,0.756,0.054,1.096,0.224c0.65,0.325,1.238,0.28,1.789-0.214c0.061-0.054,0.212,0.021,0.282-0.096
		c-0.017-0.29,0.188-0.425,0.422-0.576c0.254,0.132,0.521,0.269,0.829,0.428c0.769,0.16,1.525-0.094,2.191-0.518
		c0.398-0.253,0.723-0.604,1.195-0.774c0.239-0.087,0.408-0.366,0.601-0.55c-0.173-0.354-0.468-0.668-0.438-0.948
		c0.091-0.862-0.398-1.646-0.262-2.327c-0.307-1.084-1.016-1.208-1.837-1.103c-0.412,0.476-0.284,1.053-0.305,1.537
		c-0.499,0.878-0.938,1.713-0.891,2.497c-0.238,0.345-0.381,0.549-0.49,0.707c-0.229-0.014-0.367-0.021-0.57-0.033
		c0.041-0.896,0.008-1.762-0.749-2.344c-0.315,0-0.6,0-0.802,0c-0.241,0.206-0.432,0.368-0.613,0.522
		c0.101,0.358-0.074,0.572-0.312,0.759c-0.238-0.021-0.491,0.072-0.721-0.063c-0.014-0.276-0.184-0.44-0.375-0.571
		c-0.516,0-1.017,0-1.428,0c-0.52,0.242-0.564,0.781-0.928,1.065c-0.237-0.193-0.402-0.49-0.643-0.515
		c-0.419-0.504-0.482-1.079-0.651-1.62c-0.166-0.533-0.115-1.177-0.67-1.522c-0.443,0-0.872,0-1.243,0
		c-0.222,0.199-0.408,0.366-0.507,0.455c-0.322,1.212,0.36,2.297,0.088,3.42C28.267,64.437,28.196,64.437,28.046,64.437z
		 M53.877,58.721c0.481-0.974,0.901-2.021,1.762-2.794c0.026-1.027,0.277-1.735,1.002-2.498c0.335-0.352,0.48-0.803,0.498-1.191
		c0.07-1.535,0.029-3.074,0.029-4.481c-0.286-0.48-0.634-0.36-0.941-0.381c-0.847,0.825-0.966,1.096-1.234,2.39
		c-0.052,0.252-0.12,0.576-0.248,0.75c-0.493,0.664-0.529,1.527-1.032,2.172c0.028,0.875-0.616,1.574-0.641,2.431
		c-0.007,0.229-0.189,0.349-0.252,0.549c-0.096,0.306-0.41,0.47-0.814,0.284c-0.272-0.439-0.555-0.925-1.015-1.213
		c-0.239,0-0.451,0-0.594,0c-0.435,0.259-0.567,0.668-0.762,0.971c0.005,1.772-0.677,3.244-1.629,4.723
		c-0.245-0.674-0.416-1.228-0.347-1.833c0.067-0.583-0.138-1.199,0.221-1.745c-0.231-0.378-0.342-0.804-0.426-1.227
		c-0.177-0.895-0.464-1.709-1.252-2.201c-0.602-0.022-0.902,0.311-1.129,0.831c0,0.999,0,2.078,0,3.155
		c-0.074,0.08-0.182,0.146-0.212,0.238c-0.312,0.933-0.496,1.894-0.651,2.861c-0.033,0.207,0.042,0.473-0.063,0.619
		c-0.604,0.851-0.604,1.909-1.051,2.776c0.217,0.485,0.391,0.936,0.869,1.193c0.119-0.017,0.28,0.004,0.389-0.063
		c0.497-0.305,1.077-0.276,1.515-0.076c0.567,0.26,1.023,0.106,1.469-0.112c0.447-0.22,0.896-0.446,1.335-0.684
		c0.304-0.164,0.667-0.26,0.792-0.728c0.077-0.288,0.457-0.541,0.757-0.712c0.317-0.18,0.561-0.36,0.694-0.716
		c0.069-0.185,0.241-0.4,0.416-0.463c0.555-0.196,0.692-0.665,0.91-1.128C52.57,59.721,53.081,59.159,53.877,58.721z M67.308,53.038
		c-0.004-0.709,0.248-1.344,0.722-2.013c0.554-0.781,0.908-1.763,0.771-2.779c-0.025-0.188-0.043-0.646-0.477-0.67
		c-0.396,0.639-0.568,1.409-1.213,1.827c0.008,0.886-0.25,1.62-0.747,2.328c-0.185,0.264-0.399,0.539-0.57,0.83
		c-0.685,1.16-1.436,2.281-2.142,3.43c-0.365,0.594-0.892,1.075-1.251,1.644c-0.712,1.125-1.523,2.142-2.462,3.075
		c-0.352,0.351-0.744,0.594-1.195,0.754c-0.318,1.04-1.702,1.111-1.986,2.187c0,0.313,0,0.626,0,0.904
		c0.26,0.409,0.622,0.33,0.953,0.296c0.73-0.634,1.298-1.418,2.134-1.921c0.225-0.136,0.483-0.331,0.559-0.621
		c0.149-0.576,0.597-0.919,0.973-1.324c0.694-0.749,1.489-1.398,2.084-2.256c0.272-0.394,0.411-0.904,0.759-1.186
		c0.377-0.305,0.818-0.559,1.097-0.949c0.426-0.599,0.777-1.254,1.138-1.897C66.745,54.172,67.004,53.629,67.308,53.038z
		 M49.095,68.328c-0.656,0-1.186,0.041-1.705-0.015c-0.386-0.041-0.753,0.107-0.945,0.306c-0.466,0.48-1.09,0.343-1.611,0.563
		c-0.211,0.088-0.446,0.044-0.693,0.148c-0.916,0.393-1.935,0.489-2.852,0.92c-0.235,0.11-0.576,0.067-0.852,0.012
		c-1.134-0.229-1.143-0.273-1.974,0.021c-0.505,0.178-0.996,0.259-1.526,0.176c-0.274-0.276-0.552-0.558-0.828-0.835
		c-0.292,0-0.579,0-0.799,0c-0.38,0.205-0.736,0.351-0.918,0.629c-0.421,0-0.775,0-1.172,0c-0.086-0.418-0.561-0.351-0.755-0.594
		c-0.485,0-0.942,0-1.345,0c-0.311,0.229-0.388,0.471-0.244,0.789c0.725,0.267,1.462,0.49,2.268,0.481
		c0.691-0.007,1.407-0.153,2.065,0.205c1.489-0.146,2.954,0.2,4.437,0.221c0.421,0.006,0.751-0.319,1.206-0.236
		c0.417,0.076,0.861-0.008,1.29,0.022c0.565,0.039,1.123-0.113,1.587-0.334c0.545-0.259,1.077-0.017,1.633-0.22
		c0.652-0.237,1.3-0.604,1.967-0.695C48.278,69.764,48.596,69.118,49.095,68.328z M69.882,45.292
		c-0.165-0.626,0.283-1.458,0.246-2.333c0.408-0.34,0.169-0.799,0.207-1.202c0.042-0.444,0.283-0.827,0.245-1.31
		c-0.071-0.892-0.078-1.797-0.005-2.687c0.074-0.891-0.352-1.716-0.211-2.653c-0.386,0.031-0.123-0.354-0.522-0.564
		c0.277,0.506-0.161,0.729-0.152,1.121c0.02,0.896-0.056,1.798,0.023,2.688c0.082,0.928-0.26,1.798-0.235,2.709
		c0.013,0.497,0.002,0.995,0.002,1.492c-0.308,0.647-0.452,1.348-0.695,1.986c-0.273,0.718,0.01,1.195,0.145,1.761
		C69.235,45.976,69.499,45.697,69.882,45.292z M56.25,65.155c-0.192-0.377-0.604-0.39-0.839-0.263
		c-0.819,0.441-1.821,0.645-2.445,1.32c-0.692,0.75-1.666,0.899-2.419,1.467c-0.441-0.115-0.633,0.235-0.871,0.481
		c-0.06,0.062-0.056,0.186-0.079,0.274c0.23,0.117,0.438,0.222,0.654,0.332c0.49-0.18,0.875-0.516,1.192-0.876
		c1.189,0.071,2.157-0.277,2.896-1.168c0.183-0.221,0.405-0.395,0.675-0.445C55.644,66.16,56.049,65.803,56.25,65.155z"/>
	<path style="fill-rule:evenodd;clip-rule:evenodd;" d="M27.57,25.758c0.113,0.435-0.105,0.887-0.237,1.333
		c0.277,0.481,0.852,0.691,0.967,1.253c0.177,0.023,0.349,0.067,0.542-0.039c0-0.196,0-0.404,0-0.713
		c-0.396-0.27-0.528-0.823-0.835-1.396c0-0.306,0.008-0.737-0.004-1.168c-0.006-0.202-0.013-0.383-0.125-0.597
		c-0.416-0.8-0.428-0.899-0.075-1.721c0.25-0.581,0.628-1.106,0.934-1.666c0.136-0.25,0.411-0.24,0.61-0.366
		c0.421-0.265,0.893-0.45,1.453-0.722c0.878,0.239,1.71-0.597,2.702-0.442c0.399-0.419,0.85-0.688,1.462-0.657
		c0.646,0.032,1.296,0.007,1.939,0.007c0.675,0.446,1.432,0.623,2.22,0.641c0.704,0.017,1.361,0.084,1.918,0.602
		c0.236,0.219,0.593,0.3,0.891,0.449c0.711,0.358,1.178,0.86,1.174,1.662c-0.001,0.287,0.389,0.372,0.278,0.688
		c-0.29,0.563-0.58,1.127-0.906,1.761c0,0.166-0.028,0.421,0.006,0.667c0.102,0.753-0.157,1.441-0.483,2.067
		c-0.189,0.365-0.162,0.637-0.131,0.953c0.335,0.068,0.524-0.134,0.575-0.297c0.237-0.77,0.841-1.381,0.932-2.208
		c0.476-0.396-0.054-1.019,0.363-1.479c0.3-0.332,0.427-0.821,0.628-1.242c0.028-0.06,0.059-0.131,0.051-0.193
		c-0.102-0.857,0.343-1.582,0.558-2.362c0.229-0.831,0.144-1.65-0.282-2.396c-0.32-0.562-0.3-1.218-0.644-1.793
		c-0.296-0.494-0.637-1.011-0.732-1.641c-0.059-0.386-0.312-0.781-0.681-1.003c-0.741-0.445-1.036-1.104-1.023-1.938
		c0.002-0.14,0-0.28,0-0.391c0.105-0.105,0.183-0.182,0.291-0.292c0.279,0,0.594,0,0.896,0c1.021,0.406,1.42,1.649,3.075,1.85
		c0.685-0.099,1.461,0.438,2.036,1.461c0.192,0.342,0.467,0.704,0.871,0.931c0.471,0.264,0.622,0.832,0.784,1.282
		c0.137,0.381,0.254,0.766,0.478,1.099c0.275,0.41,0.138,0.929,0.408,1.348c0.098,0.151,0.237,0.253,0.313,0.396
		c0.636-0.207,0.771-0.924,1.398-1.271c0.217,0,0.547-0.049,0.854,0.01c0.651,0.126,1.268-0.112,1.847-0.263
		c0.954-0.25,1.893-0.122,2.836-0.176c0.287-0.017,0.576-0.003,0.761-0.003c0.803,0.312,1.389,0.824,2.226,0.904
		c0.449,0.044,0.913,0.443,1.276,0.783c1.04,0.971,1.986,2.021,2.114,3.545c0.39,0.444,0.205,0.889-0.084,1.396
		c-0.2,0.1-0.493,0.247-0.774,0.389c0,0.16,0,0.302,0,0.441c0.164,0.13,0.319,0.242,0.512,0.339c0.82,0.411,1.393,1.046,1.669,1.969
		c0.099,0.333,0.221,0.8,0.76,0.871c0.17,0.022,0.309,0.285,0.463,0.44c0.172,0.468-0.11,0.983,0.149,1.447
		c0.212,0.378,0.187,0.865,0.546,1.193c0,1.247-0.018,2.506,0.008,3.764c0.012,0.584-0.108,1.171,0.184,1.759
		c0.156,0.314-0.147,0.747-0.155,1.087c-0.021,0.915-0.48,1.777-0.204,2.638c-0.924,0.864-1.615,1.914-2.938,1.878
		c-0.146-0.134-0.253-0.23-0.36-0.328c0.042-0.595,0.303-1.109,0.558-1.617c0.341-0.682,0.585-1.372,0.54-2.155
		c-0.035-0.609-0.015-1.223-0.005-1.835c0.015-0.891-0.35-1.66-0.851-2.344c-0.412-0.561-0.791-1.169-1.364-1.595
		c-0.166-0.123-0.13-0.312-0.217-0.452c-0.263-0.081-0.542-0.012-0.758-0.295c-0.416-0.544-0.998-0.724-1.688-0.88
		c-0.854-0.193-1.682-0.076-2.485-0.175c-0.975,0.364-1.313,1.303-1.928,1.977c-0.266,0.292-0.245,0.629-0.186,0.979
		c0.128,0.127,0.255,0.254,0.415,0.415c-0.091,1.577-0.565,3.111-0.916,4.632c0.255,0.351,0.581,0.58,0.688,0.966
		c0,0.359-0.019,0.72,0.006,1.077c0.022,0.326-0.372,0.528-0.227,0.885c0.06,0.147-0.095,0.247-0.144,0.369
		c-0.201,0.503-0.607,0.881-0.795,1.399c-0.088,0.245-0.37,0.436-0.594,0.614c-1.026,0.818-1.03,0.813-1.513,1.954
		c-0.162,0.115-0.369,0.126-0.527,0.294c-0.617,0.654-1.275,1.271-1.896,1.922c-0.196,0.206-0.4,0.269-0.66,0.239
		c-0.433,0.357-0.765,0.777-1.007,1.297c-0.298,0.636-0.795,0.755-1.409,0.432c-1.758,0.665-2.286,1.149-2.472,2.289
		c-0.189,0.185-0.412,0.371-0.597,0.589c-0.175,0.206-0.31,0.446-0.479,0.696c0,0.224-0.019,0.476,0.003,0.724
		c0.063,0.729-0.311,1.335-1.076,1.512c-0.508,0.117-0.88,0.352-1.228,0.699c-0.638,0.639-1.332,1.231-1.589,2.151
		c-0.082,0.294-0.375,0.411-0.548,0.628c-0.651,0-1.3-0.008-1.947,0.002c-0.731,0.012-1.45,0.009-2.185,0.186
		c-0.926,0.222-1.87-0.114-2.788-0.228c-0.669-0.353-1.223-0.821-1.523-1.513c-0.205-0.471-0.509-0.83-0.965-1.032
		c-0.459-0.204-0.687-0.628-0.81-1.019c-0.113-0.36-0.256-0.682-0.422-1.018c-0.438-0.889-0.784-1.816-0.678-2.877
		c-0.842-0.542-1.709-1.03-2.753-0.912c-0.515,0.058-0.918-0.367-1.441-0.213c-0.236-0.267-0.472-0.532-0.773-0.872
		c0-0.016,0-0.155,0-0.33c-1.039-0.873-1.688-2.075-2.503-3.147c-0.1-0.131-0.205-0.288-0.225-0.443
		c-0.105-0.829-0.66-1.362-1.236-1.86c-0.412-0.355-0.514-0.878-0.813-1.295c-0.327-0.456-0.607-0.968-0.898-1.45
		c-0.338-0.561-0.387-1.094-0.383-1.772c0.134-0.072,0.327-0.176,0.314-0.169c0.234-0.556-0.03-0.803-0.21-1.13
		c-0.457-0.153-0.744-0.678-1.208-1.052c0.191-0.525-0.27-0.991-0.18-1.504C15.368,35.52,15.1,35.08,15,34.625
		c-0.091-0.411-0.42-0.857-0.81-1.174c0-0.21,0-0.424,0-0.536c-0.265-0.239-0.472-0.426-0.704-0.636
		c0.011-0.003-0.083-0.004-0.112,0.039c-0.304,0.456-0.808,0.68-1.229,0.965c-0.59,0.4-1.045,0.856-1.442,1.448
		c-0.365,0.544-0.94,0.935-1.283,1.525c-0.465,0.8-0.803,1.632-0.848,2.565c-0.013,0.251,0.022,0.506-0.006,0.755
		c-0.105,0.933,0.117,1.765,0.637,2.55c0.176,0.266,0.283,0.607,0.244,0.982c-0.051,0.498-0.013,1.006-0.013,1.598
		c-0.15,0.11-0.352,0.257-0.667,0.487c-0.14,0-0.453,0-0.763,0c-0.553-0.584-1.213-1.069-1.458-1.889
		c-0.329-1.101-0.853-2.16-0.775-3.346c0.04-0.605-0.32-1.131-0.24-1.749c0.073-0.567,0.074-1.158-0.001-1.724
		c-0.073-0.551,0.301-1.014,0.222-1.531c-0.084-0.547,0.354-0.989,0.242-1.526c0.341-0.277,0.185-0.66,0.194-0.997
		c0.018-0.634,0.123-1.218,0.562-1.717c0.148-0.168,0.223-0.409,0.307-0.625c0.354-0.912,0.984-1.652,1.633-2.335
		c0.581-0.612,1.376-1.014,2.039-1.554c0.559-0.456,1.176-0.784,1.83-1.065c0.476-0.205,0.479-0.205,0.79-0.79
		c-1.071-0.291-2.029,0.103-3.005,0.414c-0.31,0.271-0.359,0.758-0.867,0.995c-0.203,0-0.516,0-0.817,0
		c-0.162-0.122-0.006-0.39-0.239-0.454c0.06-0.631,0.561-1.111,0.593-1.759c0.007-0.149,0.145-0.335,0.225-0.435
		c0.474-0.586,0.88-1.212,1.183-1.894c0.309-0.696,0.802-1.276,1.26-1.842c0.767-0.949,1.8-1.592,3.103-1.583
		c0.629,0.004,1.206-0.332,1.856-0.23c0.439,0.068,0.886-0.006,1.317,0.218c0.827,0.43,1.791,0.564,2.525,1.211
		c0.243,0.214,0.585,0.314,0.881,0.468c0.304,0.157,0.54,0.058,0.737-0.19c0.324-0.495-0.359-0.985-0.099-1.366
		c0.341-0.499,0.003-0.985,0.209-1.442c0.136-0.33,0.282-0.663,0.422-1.004c0.7-1.703,1.669-3.201,3.484-3.935
		c0.588-0.238,1.191-0.45,1.698-0.858c0.217-0.175,0.471-0.246,0.772-0.229c0.57,0.032,1.144,0.009,1.727,0.009
		c0.309,0.498,0.73,0.898,0.352,1.59c-0.247,0.452-0.174,1.076-0.847,1.259c-0.15,0.041-0.252,0.248-0.386,0.368
		c-0.387,0.349-0.761,0.704-1.189,1.019c-0.848,0.624-1.353,1.523-1.536,2.586c-0.085,0.495-0.336,0.938-0.453,1.436
		c-0.241,1.029-0.248,1.886,0.08,2.719c0.244,0.62,0.473,1.265,0.561,1.919c0.043,0.321,0.37,0.586,0.229,0.869
		c-0.151,0.305,0.012,0.54,0.004,0.802C27.12,25.328,27.393,25.407,27.57,25.758z M22.693,31.413
		c-0.287,0.385-0.381,0.829-0.29,1.275c0.099,0.482-0.284,0.871-0.212,1.307c0.075,0.453,0.345,0.878,0.397,1.33
		c0.053,0.469,0.43,0.76,0.505,1.199c0.251,0.037,0.434,0.182,0.596,0.373c0.407,0.479,0.894,0.846,1.49,1.069
		c0.253,0.095,0.464,0.27,0.685,0.435c0.366,0.273,0.799,0.5,1.341,0.213c-0.182-0.42-0.59-0.641-0.664-1.067
		C26.55,36.76,26.138,36,26.28,35.188c0.143-0.814-0.377-1.567-0.205-2.347c-0.648-0.971-1.856-0.793-2.67-1.394
		C23.209,31.302,22.932,31.389,22.693,31.413z M48.743,35.604c0-0.467-0.135-0.992,0.033-1.387c0.238-0.561,0.135-1.101,0.184-1.648
		c0.052-0.58,0.388-1.127,0.171-1.747c-0.22-0.334-0.597-0.503-0.95-0.705c-0.099,0.098-0.217,0.147-0.346,0.206
		c-0.807,0.369-1.415,0.87-1.815,1.538c-0.22,0.367-0.348,0.788-0.516,1.185c-0.146,0.347,0.137,0.612,0.245,0.868
		c0.175,0.41,0.18,0.804,0.186,1.216c0.005,0.395-0.019,0.792,0.005,1.185c0.045,0.747-0.225,1.397-0.586,2.021
		c-0.046,0.078-0.084,0.104,0.022,0.16c0.233,0,0.474,0,0.638,0c0.655-0.405,0.839-1.073,1.219-1.599
		C47.633,36.345,48.308,36.114,48.743,35.604z M41.87,35.073c-0.165,0.182-0.406,0.401-0.593,0.66
		c-0.765,1.064-1.167,2.322-1.808,3.454c-0.078,0.139-0.253,0.227-0.236,0.442c0.041,0.535-0.382,0.849-0.657,1.213
		c0.105,0.278,0.343,0.49,0.228,0.801c0.244,0.188,0.372,0.527,0.72,0.565c0.508-0.486,0.314-1.114,0.375-1.643
		c0.41-0.449,0.889-0.56,1.438-0.541c0.785,0.027,1.572,0.007,2.266,0.007c0.426-0.277,1.014-0.34,0.777-1.037
		c-0.346-0.007-0.662-0.206-0.975-0.323c-0.314-0.502-0.291-1.128-0.72-1.576c0.066-0.685,0.011-1.368-0.3-2.022
		C42.249,35.073,42.108,35.073,41.87,35.073z M32.366,41.257c0,0.278,0,0.592,0,0.869c0.167,0.145,0.251,0.336,0.485,0.277
		c0.134-0.138,0.361-0.222,0.344-0.482c-0.191-0.713-0.314-1.453-0.594-2.129c-0.266-0.641-0.667-1.226-0.932-1.88
		c-0.292-0.718-1.129-1.029-1.348-1.759c-0.214,0-0.355,0-0.507,0c-0.414,1.025-0.997,1.994-0.94,3.158
		c0.712,0.502,1.459,0.789,2.265,0.719C31.564,40.457,31.946,40.839,32.366,41.257z M37.473,50.475
		c-0.249,0.4-0.146,0.655-0.178,0.9c0.263,0.176,0.393,0.589,0.921,0.518C38.014,51.374,37.82,50.951,37.473,50.475z M32.268,52.607
		c0.514-0.445,0.607-0.688,0.386-0.91c-0.162,0.029-0.341-0.07-0.467,0.032c-0.095,0.2-0.175,0.369-0.257,0.54
		C32.021,52.361,32.12,52.46,32.268,52.607z M48.127,22.466c0.379-0.02,0.379-0.02,0.508-0.374
		C48.376,22.102,48.221,22.236,48.127,22.466z"/>
	<path style="fill-rule:evenodd;clip-rule:evenodd;" d="M28.046,64.437c0.15,0,0.221,0,0.336,0c0.272-1.123-0.41-2.208-0.088-3.42
		c0.099-0.089,0.285-0.256,0.507-0.455c0.371,0,0.8,0,1.243,0c0.556,0.346,0.505,0.989,0.67,1.522
		c0.168,0.541,0.232,1.116,0.651,1.62c0.241,0.024,0.406,0.321,0.643,0.515c0.364-0.284,0.409-0.823,0.928-1.065
		c0.411,0,0.912,0,1.428,0c0.191,0.131,0.362,0.295,0.375,0.571c0.23,0.135,0.482,0.042,0.721,0.063
		c0.238-0.187,0.413-0.4,0.312-0.759c0.181-0.154,0.372-0.316,0.613-0.522c0.202,0,0.486,0,0.802,0
		c0.757,0.582,0.79,1.448,0.749,2.344c0.203,0.012,0.341,0.02,0.57,0.033c0.109-0.158,0.252-0.362,0.49-0.707
		c-0.047-0.784,0.392-1.619,0.891-2.497c0.021-0.484-0.107-1.062,0.305-1.537c0.821-0.105,1.53,0.019,1.837,1.103
		c-0.137,0.682,0.353,1.465,0.262,2.327c-0.029,0.28,0.266,0.595,0.438,0.948c-0.192,0.184-0.361,0.463-0.601,0.55
		c-0.473,0.17-0.797,0.521-1.195,0.774c-0.666,0.424-1.423,0.678-2.191,0.518c-0.309-0.159-0.575-0.296-0.829-0.428
		c-0.233,0.151-0.438,0.286-0.422,0.576c-0.07,0.117-0.222,0.042-0.282,0.096c-0.551,0.494-1.139,0.539-1.789,0.214
		c-0.34-0.17-0.7-0.267-1.096-0.224c-1.057,0.112-2.024-0.231-2.964-0.654c-0.15-0.067-0.247-0.212-0.454-0.213
		c-0.975-0.006-1.812-0.458-2.717-0.876c-0.203,0.347-0.636,0.265-0.972,0.41c-0.461,0.201-0.97-0.139-1.441-0.346
		c-0.64-0.279-1.303-0.507-2.102-0.813c-0.082-0.083-0.272-0.303-0.491-0.486c-0.207-0.173-0.433-0.335-0.673-0.455
		c-0.244-0.121-0.543,0.09-0.807-0.147c-0.188-0.17-0.472-0.234-0.75-0.361c-0.386-0.736-0.931-1.313-1.909-1.239
		c-0.452-0.548-1.165-0.678-1.761-1.067c-0.169-0.812-0.256-1.679-0.939-2.289c-0.046-0.476-0.505-0.798-0.455-1.334
		c0.021-0.229-0.158-0.518-0.323-0.715c-0.373-0.447-0.561-0.96-0.504-1.514c0.059-0.578-0.338-1.063-0.249-1.631
		c-0.678-1.279-0.678-2.663-0.614-4.114c0.157-0.12,0.356-0.272,0.67-0.513c0.661,0.003,1.126,0.503,1.474,1.269
		c-0.189,0.775,0.511,1.472,0.446,2.311c0.333,0.333,0.663,0.664,0.995,0.994c0.329,0.326,0.168,0.872,0.564,1.208
		c0.42-0.188,0.87-0.354,1.273-0.625c0.346-0.116,0.437,0.429,0.755,0.221c0.184,0.506,0.46,0.938,0.479,1.381
		c0.048,1.108,0.551,2.09,0.784,3.144c0.083,0.376,0.127,0.783,0.275,1.173c0.195,0.513,0.449,0.905,0.8,1.229
		c0.274,0.054,0.346-0.151,0.48-0.254c0.261-0.979-0.147-1.928-0.168-2.753c0.445-0.838,0.809-1.551,0.901-2.318
		c0.955-0.629,1.074-0.641,1.703-0.179c0.007,0.495,0.048,0.97,0.32,1.465c0.225,0.408,0.346,0.95,0.334,1.478
		c-0.021,0.896-0.005,1.795-0.005,2.415c0.17,0.726,0.535,1.01,0.858,1.339c0,0.352,0,0.709,0,1.088
		C27.632,63.25,28.073,63.729,28.046,64.437z"/>
	<path style="fill-rule:evenodd;clip-rule:evenodd;" d="M53.877,58.721c-0.796,0.438-1.307,1-1.635,1.698
		c-0.218,0.463-0.355,0.932-0.91,1.128c-0.175,0.063-0.347,0.278-0.416,0.463c-0.134,0.355-0.377,0.536-0.694,0.716
		c-0.3,0.171-0.68,0.424-0.757,0.712c-0.125,0.468-0.488,0.563-0.792,0.728c-0.438,0.237-0.888,0.464-1.335,0.684
		c-0.445,0.219-0.901,0.372-1.469,0.112c-0.438-0.2-1.018-0.229-1.515,0.076c-0.108,0.066-0.27,0.046-0.389,0.063
		c-0.479-0.258-0.652-0.708-0.869-1.193c0.446-0.867,0.446-1.926,1.051-2.776c0.104-0.146,0.029-0.412,0.063-0.619
		c0.155-0.968,0.34-1.929,0.651-2.861c0.03-0.092,0.138-0.158,0.212-0.238c0-1.077,0-2.156,0-3.155
		c0.227-0.521,0.527-0.854,1.129-0.831c0.788,0.492,1.075,1.307,1.252,2.201c0.084,0.423,0.194,0.849,0.426,1.227
		c-0.358,0.546-0.153,1.162-0.221,1.745c-0.069,0.605,0.102,1.159,0.347,1.833c0.952-1.479,1.634-2.95,1.629-4.723
		c0.194-0.303,0.327-0.712,0.762-0.971c0.143,0,0.354,0,0.594,0c0.46,0.288,0.742,0.773,1.015,1.213
		c0.404,0.186,0.719,0.021,0.814-0.284c0.063-0.2,0.245-0.319,0.252-0.549c0.024-0.856,0.669-1.556,0.641-2.431
		c0.503-0.645,0.539-1.508,1.032-2.172c0.128-0.174,0.196-0.498,0.248-0.75c0.269-1.294,0.388-1.564,1.234-2.39
		c0.308,0.021,0.655-0.1,0.941,0.381c0,1.407,0.041,2.946-0.029,4.481c-0.018,0.389-0.163,0.84-0.498,1.191
		c-0.725,0.763-0.976,1.471-1.002,2.498C54.778,56.699,54.358,57.747,53.877,58.721z"/>
	<path style="fill-rule:evenodd;clip-rule:evenodd;fill:none;" d="M22.693,31.413c0.239-0.024,0.516-0.111,0.713,0.035
		c0.814,0.601,2.021,0.423,2.67,1.394c-0.172,0.78,0.348,1.532,0.205,2.347c-0.143,0.813,0.27,1.572,0.261,2.358
		c0.074,0.427,0.482,0.647,0.664,1.067c-0.542,0.287-0.975,0.061-1.341-0.213c-0.221-0.165-0.432-0.34-0.685-0.435
		c-0.596-0.223-1.083-0.59-1.49-1.069c-0.163-0.191-0.345-0.336-0.596-0.373c-0.075-0.438-0.452-0.73-0.505-1.199
		c-0.052-0.452-0.322-0.877-0.397-1.33c-0.072-0.437,0.311-0.825,0.212-1.307C22.312,32.242,22.406,31.798,22.693,31.413z"/>
	<path style="fill-rule:evenodd;clip-rule:evenodd;fill:none;" d="M48.743,35.604c-0.436,0.511-1.11,0.741-1.511,1.294
		c-0.38,0.525-0.563,1.193-1.219,1.599c-0.164,0-0.404,0-0.638,0c-0.106-0.056-0.068-0.082-0.022-0.16
		c0.361-0.623,0.631-1.274,0.586-2.021c-0.023-0.394,0-0.79-0.005-1.185c-0.006-0.412-0.011-0.806-0.186-1.216
		c-0.108-0.256-0.392-0.521-0.245-0.868c0.168-0.397,0.296-0.818,0.516-1.185c0.4-0.668,1.009-1.169,1.815-1.538
		c0.129-0.059,0.247-0.108,0.346-0.206c0.354,0.201,0.73,0.37,0.95,0.704c0.217,0.619-0.119,1.167-0.171,1.747
		c-0.049,0.547,0.055,1.087-0.184,1.648C48.608,34.612,48.743,35.137,48.743,35.604z"/>
	<path style="fill-rule:evenodd;clip-rule:evenodd;fill:none;" d="M41.87,35.073c0.238,0,0.379,0,0.516,0
		c0.311,0.654,0.366,1.337,0.3,2.022c0.429,0.448,0.405,1.074,0.72,1.576c0.313,0.117,0.629,0.316,0.975,0.323
		c0.236,0.697-0.352,0.76-0.777,1.037c-0.693,0-1.48,0.021-2.266-0.007c-0.55-0.019-1.028,0.092-1.438,0.541
		c-0.061,0.528,0.133,1.156-0.375,1.643c-0.348-0.038-0.476-0.378-0.72-0.565c0.115-0.311-0.122-0.522-0.228-0.801
		c0.275-0.364,0.698-0.678,0.657-1.213c-0.017-0.216,0.158-0.304,0.236-0.442c0.641-1.132,1.043-2.39,1.808-3.454
		C41.464,35.474,41.705,35.255,41.87,35.073z"/>
	<path style="fill-rule:evenodd;clip-rule:evenodd;fill:none;" d="M32.366,41.257c-0.419-0.418-0.801-0.8-1.228-1.227
		c-0.806,0.07-1.553-0.217-2.265-0.719c-0.056-1.164,0.526-2.133,0.94-3.158c0.152,0,0.293,0,0.507,0
		c0.219,0.729,1.057,1.041,1.348,1.759c0.266,0.654,0.666,1.239,0.932,1.88c0.28,0.676,0.402,1.416,0.594,2.129
		c0.017,0.261-0.209,0.345-0.344,0.482c-0.233,0.059-0.317-0.133-0.485-0.277C32.366,41.849,32.366,41.535,32.366,41.257z"/>
	<path style="fill-rule:evenodd;clip-rule:evenodd;fill:none;" d="M37.473,50.475c0.348,0.477,0.541,0.899,0.743,1.418
		c-0.528,0.071-0.658-0.342-0.921-0.518C37.326,51.13,37.224,50.875,37.473,50.475z"/>
	<path style="fill-rule:evenodd;clip-rule:evenodd;fill:none;" d="M32.268,52.607c-0.147-0.147-0.246-0.246-0.338-0.338
		c0.082-0.171,0.162-0.34,0.257-0.54c0.126-0.103,0.305-0.003,0.467-0.032C32.875,51.919,32.781,52.162,32.268,52.607z"/>
	<path style="fill-rule:evenodd;clip-rule:evenodd;fill:none;" d="M48.127,22.466c0.094-0.229,0.249-0.364,0.508-0.374
		C48.506,22.446,48.506,22.446,48.127,22.466z"/>
</g>
</svg>
