<svg xmlns="http://www.w3.org/2000/svg" xml:space="preserve" width="72px" height="72px" viewBox="0 0 72 72">
    <g fill="currentColor">
        <path d="M27.57 25.758c.113.435-.105.887-.237 1.333.277.481.852.691.967 1.253.177.023.349.067.542-.039v-.713c-.396-.27-.528-.823-.835-1.396 0-.306.008-.737-.004-1.168-.006-.202-.013-.383-.125-.597-.416-.8-.428-.899-.075-1.721.25-.581.628-1.106.934-1.666.136-.25.411-.24.61-.366.421-.265.893-.45 1.453-.722.878.239 1.71-.597 2.702-.442.399-.419.85-.688 1.462-.657.646.032 1.296.007 1.939.007.675.446 1.432.623 2.22.641.704.017 1.361.084 1.918.602.236.219.593.3.891.449.711.358 1.178.86 1.174 1.662-.001.287.389.372.278.688l-.906 1.761c0 .166-.028.421.006.667.102.753-.157 1.441-.483 2.067-.189.365-.162.637-.131.953.335.068.524-.134.575-.297.237-.77.841-1.381.932-2.208.476-.396-.054-1.019.363-1.479.3-.332.427-.821.628-1.242.028-.06.059-.131.051-.193-.102-.857.343-1.582.558-2.362.229-.831.144-1.65-.282-2.396-.32-.562-.3-1.218-.644-1.793-.296-.494-.637-1.011-.732-1.641a1.47 1.47 0 0 0-.681-1.003c-.741-.445-1.036-1.104-1.023-1.938.002-.14 0-.28 0-.391.105-.105.183-.182.291-.292h.896c1.021.406 1.42 1.649 3.075 1.85.685-.099 1.461.438 2.036 1.461.192.342.467.704.871.931.471.264.622.832.784 1.282.137.381.254.766.478 1.099.275.41.138.929.408 1.348.098.151.237.253.313.396.636-.207.771-.924 1.398-1.271.217 0 .547-.049.854.01.651.126 1.268-.112 1.847-.263.954-.25 1.893-.122 2.836-.176.287-.017.576-.003.761-.003.803.312 1.389.824 2.226.904.449.044.913.443 1.276.783 1.04.971 1.986 2.021 2.114 3.545.39.444.205.889-.084 1.396l-.774.389v.441c.164.13.319.242.512.339.82.411 1.393 1.046 1.669 1.969.099.333.221.8.76.871.17.022.309.285.463.44.172.468-.11.983.149 1.447.212.378.187.865.546 1.193 0 1.247-.018 2.506.008 3.764.012.584-.108 1.171.184 1.759.156.314-.147.747-.155 1.087-.021.915-.48 1.777-.204 2.638-.924.864-1.615 1.914-2.938 1.878l-.36-.328c.042-.595.303-1.109.558-1.617.341-.682.585-1.372.54-2.155-.035-.609-.015-1.223-.005-1.835.015-.891-.35-1.66-.851-2.344-.412-.561-.791-1.169-1.364-1.595-.166-.123-.13-.312-.217-.452-.263-.081-.542-.012-.758-.295-.416-.544-.998-.724-1.688-.88-.854-.193-1.682-.076-2.485-.175-.975.364-1.313 1.303-1.928 1.977-.266.292-.245.629-.186.979l.415.415c-.091 1.577-.565 3.111-.916 4.632.255.351.581.58.688.966 0 .359-.019.72.006 1.077.022.326-.372.528-.227.885.06.147-.095.247-.144.369-.201.503-.607.881-.795 1.399-.088.245-.37.436-.594.614-1.026.818-1.03.813-1.513 1.954-.162.115-.369.126-.527.294-.617.654-1.275 1.271-1.896 1.922a.72.72 0 0 1-.66.239 3.6 3.6 0 0 0-1.007 1.297c-.298.636-.795.755-1.409.432-1.758.665-2.286 1.149-2.472 2.289-.189.185-.412.371-.597.589-.175.206-.31.446-.479.696 0 .224-.019.476.003.724.063.729-.311 1.335-1.076 1.512-.508.117-.88.352-1.228.699-.638.639-1.332 1.231-1.589 2.151-.082.294-.375.411-.548.628-.651 0-1.3-.008-1.947.002-.731.012-1.45.009-2.185.186-.926.222-1.87-.114-2.788-.228-.669-.353-1.223-.821-1.523-1.513-.205-.471-.509-.83-.965-1.032-.459-.204-.687-.628-.81-1.019a7 7 0 0 0-.422-1.018c-.438-.889-.784-1.816-.678-2.877-.842-.542-1.709-1.03-2.753-.912-.515.058-.918-.367-1.441-.213l-.773-.872v-.33c-1.039-.873-1.688-2.075-2.503-3.147-.1-.131-.205-.288-.225-.443-.105-.829-.66-1.362-1.236-1.86-.412-.355-.514-.878-.813-1.295-.327-.456-.607-.968-.898-1.45-.338-.561-.387-1.094-.383-1.772l.314-.169c.234-.556-.03-.803-.21-1.13-.457-.153-.744-.678-1.208-1.052.191-.525-.27-.991-.18-1.504.089-.521-.179-.961-.279-1.416-.091-.411-.42-.857-.81-1.174v-.536l-.704-.636c.011-.003-.083-.004-.112.039-.304.456-.808.68-1.229.965-.59.4-1.045.856-1.442 1.448-.365.544-.94.935-1.283 1.525-.465.8-.803 1.632-.848 2.565-.013.251.022.506-.006.755-.105.933.117 1.765.637 2.55.176.266.283.607.244.982-.051.498-.013 1.006-.013 1.598l-.667.487h-.763c-.553-.584-1.213-1.069-1.458-1.889-.329-1.101-.853-2.16-.775-3.346.04-.605-.32-1.131-.24-1.749a6.7 6.7 0 0 0-.001-1.724c-.073-.551.301-1.014.222-1.531-.084-.547.354-.989.242-1.526.341-.277.185-.66.194-.997.018-.634.123-1.218.562-1.717.148-.168.223-.409.307-.625.354-.912.984-1.652 1.633-2.335.581-.612 1.376-1.014 2.039-1.554.559-.456 1.176-.784 1.83-1.065.476-.205.479-.205.79-.79-1.071-.291-2.029.103-3.005.414-.31.271-.359.758-.867.995H8.66c-.162-.122-.006-.39-.239-.454.06-.631.561-1.111.593-1.759.007-.149.145-.335.225-.435a8.5 8.5 0 0 0 1.183-1.894c.309-.696.802-1.276 1.26-1.842.767-.949 1.8-1.592 3.103-1.583.629.004 1.206-.332 1.856-.23.439.068.886-.006 1.317.218.827.43 1.791.564 2.525 1.211.243.214.585.314.881.468.304.157.54.058.737-.19.324-.495-.359-.985-.099-1.366.341-.499.003-.985.209-1.442.136-.33.282-.663.422-1.004.7-1.703 1.669-3.201 3.484-3.935.588-.238 1.191-.45 1.698-.858.217-.175.471-.246.772-.229.57.032 1.144.009 1.727.009.309.498.73.898.352 1.59-.247.452-.174 1.076-.847 1.259-.15.041-.252.248-.386.368-.387.349-.761.704-1.189 1.019-.848.624-1.353 1.523-1.536 2.586-.085.495-.336.938-.453 1.436-.241 1.029-.248 1.886.08 2.719.244.62.473 1.265.561 1.919.043.321.37.586.229.869-.151.305.012.54.004.802-.009.322.264.401.441.752m-4.877 5.655a1.56 1.56 0 0 0-.29 1.275c.099.482-.284.871-.212 1.307.075.453.345.878.397 1.33.053.469.43.76.505 1.199.251.037.434.182.596.373.407.479.894.846 1.49 1.069.253.095.464.27.685.435.366.273.799.5 1.341.213-.182-.42-.59-.641-.664-1.067.009-.787-.403-1.547-.261-2.359.143-.814-.377-1.567-.205-2.347-.648-.971-1.856-.793-2.67-1.394-.196-.145-.473-.058-.712-.034m26.05 4.191c0-.467-.135-.992.033-1.387.238-.561.135-1.101.184-1.648.052-.58.388-1.127.171-1.747-.22-.334-.597-.503-.95-.705-.099.098-.217.147-.346.206-.807.369-1.415.87-1.815 1.538-.22.367-.348.788-.516 1.185-.146.347.137.612.245.868.175.41.18.804.186 1.216.005.395-.019.792.005 1.185.045.747-.225 1.397-.586 2.021-.046.078-.084.104.022.16h.638c.655-.405.839-1.073 1.219-1.599.4-.552 1.075-.783 1.51-1.293m-6.873-.531c-.165.182-.406.401-.593.66-.765 1.064-1.167 2.322-1.808 3.454-.078.139-.253.227-.236.442.041.535-.382.849-.657 1.213.105.278.343.49.228.801.244.188.372.527.72.565.508-.486.314-1.114.375-1.643.41-.449.889-.56 1.438-.541.785.027 1.572.007 2.266.007.426-.277 1.014-.34.777-1.037-.346-.007-.662-.206-.975-.323-.314-.502-.291-1.128-.72-1.576.066-.685.011-1.368-.3-2.022zm-9.504 6.184v.869c.167.145.251.336.485.277.134-.138.361-.222.344-.482-.191-.713-.314-1.453-.594-2.129-.266-.641-.667-1.226-.932-1.88-.292-.718-1.129-1.029-1.348-1.759h-.507c-.414 1.025-.997 1.994-.94 3.158.712.502 1.459.789 2.265.719.425.427.807.809 1.227 1.227m5.107 9.218c-.249.4-.146.655-.178.9.263.176.393.589.921.518-.202-.519-.396-.942-.743-1.418m-5.205 2.132c.514-.445.607-.688.386-.91-.162.029-.341-.07-.467.032l-.257.54zm15.859-30.141c.379-.02.379-.02.508-.374-.259.01-.414.144-.508.374"/>
        <path d="M28.046 64.437h.336c.272-1.123-.41-2.208-.088-3.42l.507-.455h1.243c.556.346.505.989.67 1.522.168.541.232 1.116.651 1.62.241.024.406.321.643.515.364-.284.409-.823.928-1.065h1.428c.191.131.362.295.375.571.23.135.482.042.721.063.238-.187.413-.4.312-.759l.613-.522h.802c.757.582.79 1.448.749 2.344l.57.033.49-.707c-.047-.784.392-1.619.891-2.497.021-.484-.107-1.062.305-1.537.821-.105 1.53.019 1.837 1.103-.137.682.353 1.465.262 2.327-.029.28.266.595.438.948-.192.184-.361.463-.601.55-.473.17-.797.521-1.195.774-.666.424-1.423.678-2.191.518l-.829-.428c-.233.151-.438.286-.422.576-.07.117-.222.042-.282.096-.551.494-1.139.539-1.789.214-.34-.17-.7-.267-1.096-.224-1.057.112-2.024-.231-2.964-.654-.15-.067-.247-.212-.454-.213-.975-.006-1.812-.458-2.717-.876-.203.347-.636.265-.972.41-.461.201-.97-.139-1.441-.346-.64-.279-1.303-.507-2.102-.813-.082-.083-.272-.303-.491-.486a3.5 3.5 0 0 0-.673-.455c-.244-.121-.543.09-.807-.147-.188-.17-.472-.234-.75-.361-.386-.736-.931-1.313-1.909-1.239-.452-.548-1.165-.678-1.761-1.067-.169-.812-.256-1.679-.939-2.289-.046-.476-.505-.798-.455-1.334.021-.229-.158-.518-.323-.715-.373-.447-.561-.96-.504-1.514.059-.578-.338-1.063-.249-1.631-.678-1.279-.678-2.663-.614-4.114l.67-.513c.661.003 1.126.503 1.474 1.269-.189.775.511 1.472.446 2.311q.498.5.995.994c.329.326.168.872.564 1.208.42-.188.87-.354 1.273-.625.346-.116.437.429.755.221.184.506.46.938.479 1.381.048 1.108.551 2.09.784 3.144.083.376.127.783.275 1.173.195.513.449.905.8 1.229.274.054.346-.151.48-.254.261-.979-.147-1.928-.168-2.753.445-.838.809-1.551.901-2.318.955-.629 1.074-.641 1.703-.179.007.495.048.97.32 1.465.225.408.346.95.334 1.478-.021.896-.005 1.795-.005 2.415.17.726.535 1.01.858 1.339v1.088c.495.424.936.903.909 1.611m25.831-5.716c-.796.438-1.307 1-1.635 1.698-.218.463-.355.932-.91 1.128-.175.063-.347.278-.416.463-.134.355-.377.536-.694.716-.3.171-.68.424-.757.712-.125.468-.488.563-.792.728a39 39 0 0 1-1.335.684c-.445.219-.901.372-1.469.112-.438-.2-1.018-.229-1.515.076-.108.066-.27.046-.389.063-.479-.258-.652-.708-.869-1.193.446-.867.446-1.926 1.051-2.776.104-.146.029-.412.063-.619.155-.968.34-1.929.651-2.861.03-.092.138-.158.212-.238v-3.155c.227-.521.527-.854 1.129-.831.788.492 1.075 1.307 1.252 2.201.084.423.194.849.426 1.227-.358.546-.153 1.162-.221 1.745-.069.605.102 1.159.347 1.833.952-1.479 1.634-2.95 1.629-4.723.194-.303.327-.712.762-.971h.594c.46.288.742.773 1.015 1.213.404.186.719.021.814-.284.063-.2.245-.319.252-.549.024-.856.669-1.556.641-2.431.503-.645.539-1.508 1.032-2.172.128-.174.196-.498.248-.75.269-1.294.388-1.564 1.234-2.39.308.021.655-.1.941.381 0 1.407.041 2.946-.029 4.481-.018.389-.163.84-.498 1.191-.725.763-.976 1.471-1.002 2.498-.861.771-1.281 1.819-1.762 2.793"/>
    </g>
</svg>
