<svg xmlns="http://www.w3.org/2000/svg" xml:space="preserve" width="72px" height="72px" viewBox="0 0 72 72">
    <g fill="currentColor">
        <path d="M40.303 31.05v-.937c-.733.372-.979 1.061-1.269 1.688-.438.946-.972 1.806-1.741 2.522-.288.269-.634.379-1.023.617-.422.938-.847 1.991-1.363 2.995-.354.688-.833 1.313-1.262 1.963-.058.088-.137.192-.229.225-.786.272-.995.96-1.206 1.646-.194.631-.505 1.196-.997 1.638-.628.563-1.158 1.194-1.476 1.982-.217.539-.732.895-.889 1.468-.834.624-1.002 1.594-1.264 2.5-.257.889-.469 1.789-.449 2.734.03 1.403-.056 2.812.026 4.21.08 1.347-1.127 1.988-2.083 2.075-.785.071-1.581.015-2.227.015-1.313-.577-2.489-1.13-3.735-1.505-.612-.185-1.247-.296-1.871-.439-.625-.144-1.185-.415-1.764-.703-1.066-.529-1.886-1.355-2.82-2.036a3.65 3.65 0 0 1-1.449-2.397c-.106-.76.081-1.655.754-2.248.665-.584 1.164-1.277 1.438-2.106.315-.956.838-1.86.784-2.918a.5.5 0 0 1 .069-.293c.56-.784.72-1.726.989-2.613.287-.942.762-1.785 1.238-2.618.748-1.308 1.585-2.554 2.072-4.006.187-.557.652-1.039 1.054-1.5.254-.292.442-.608.618-.938.441-.824.831-1.678 1.313-2.478.302-.501.836-.828 1.12-1.374.508-.979 1.07-1.931 1.297-3.065.756-.461 1.531-.921 2.406-.892.494.375.261 1.084.931 1.235.479-.192.429-.803.73-1.224-.114-.296-.375-.471-.634-.693-.285.273-.718.189-1.041.422-.557-.578-1.332-.335-2.171-.41l-.482-.803v-1.668c.034-.034.073-.055.083-.085.307-.949 1.105-1.418 1.891-1.873.507-.293 1.009-.578 1.419-1.002.337-.351.759-.579 1.177-.81.988-.546 1.001-.561 1.282-1.938l.786-.713c.263-.237.415-.564.744-.761.834-.501 1.639-1.067 2.544-1.423a4.7 4.7 0 0 1 1.691-.325c.542.002 1.035-.14 1.495-.329a1.53 1.53 0 0 1 1.103-.05c1.79.559 1.971.67 3.273 1.974 0 .21-.014.49.003.768.054.908-.092 1.814.18 2.729.141.47.166 1.064-.071 1.566-.225.476-.016.978-.125 1.373-.212.451-.558.368-.929.365-.548-.382-.804-1.038-1.205-1.657v-.824l-.885-.742c-1.729.707-2.571 2.329-3.442 4.08-.082.404.045.869.332 1.339.331.542.593 1.122.939 1.665.492.774 1.159 1.3 1.993 1.52.979.257 1.796.687 2.382 1.5a2.7 2.7 0 0 0 1.014-.68c.429-.44 1.063-.435 1.599-.55.976-.211 1.744-.708 2.286-1.467.223-.312.636-.557.63-1.036.02-.638.043-1.296.409-1.87.114-.178.08-.347.067-.51-.053-.706.287-1.268.7-1.761.533-.635.909-1.293.819-2.149-.134-1.278.364-2.52.216-3.799.26-.445.108-1.014.45-1.465-.425-.572-.264-1.144.063-1.721h.912l.251.251c.017.029.052.06.049.086-.14 1.208.244 2.377.258 3.583.01.849.401 1.691.603 2.542a.74.74 0 0 0 .396.475c.712.372 1.156 1.031 1.683 1.484.483 1.147.245 2.289.305 3.408.012.22-.078.377-.194.571-.463.774-.867 1.583-1.318 2.428 0 1.452.023 2.963-.012 4.474-.014.603.321 1.131.243 1.749-.072.567-.022 1.15-.015 1.726.015.985-.432 1.936-.128 3.103.133.251.386.641.352 1.166-.175 2.675.341 5.334.2 8.01-.024.464.292.832.248 1.316-.038.426-.204.908.175 1.327.107.119.019.417.016.634-.008.728.165 1.421.39 2.106a1 1 0 0 1 .041.307c-.008.972.26 1.902.392 2.851.099.715.326 1.424.272 2.174-.046.654.295 1.277.218 1.963-.072.64-.026 1.295-.006 1.942.004.116.134.229.23.381-.181.26-.232.595-.314.922-.941.468-1.837 1.021-2.835.215-.2-.404-.183-.888-.547-1.21 0-.639-.024-1.286.005-1.932.061-1.312-.383-2.592-.221-3.906-.318-.627-.097-1.326-.241-1.957-.186-.803-.179-1.597-.191-2.4-.428-.4-.108-.983-.377-1.468-.232-.419.05-1.034-.271-1.504.16-1.422-.356-2.813-.209-4.229.118-1.141-.302-2.235-.221-3.367.012-.164-.148-.259-.159-.362-.055-.543-.464-1.011-.103-1.661.229-.413.075-1.059.034-1.596-.04-.512.201-1.068-.202-1.533.134-.677-.26-1.28-.243-1.961.034-1.372.174-2.76-.254-4.133-.265.113-.582.18-.788.457-.854 1.15-2.177 1.681-3.331 2.408-.562.354-1.326.482-2.043.523-.597.034-.95-.363-1.357-.773"/>
        <path d="m33.304 53.658-.544-.614c-.187-.464.404-.903.203-1.412.587-.861 1.883-1.082 1.966-2.317-.463-.847-1.307-1.06-2.104-1.333-.365-.572-.307-1.125-.085-1.75.235-.663.467-1.345.47-2.079 0-.248.121-.577.23-.754.393-.631.412-1.299.399-1.942l.303-.328c.444-.209.759.47 1.199.107.344-.283.76-.037 1.115-.139.776.412.748 1.438 1.49 1.819-.051.563.191 1.016.373 1.492.482 1.268 1.019 2.527.919 3.971.759.381 1.276 1.067 1.947 1.682 0 .419-.015.88.006 1.34.012.269-.065.527.15.804.335.429-.219.835-.139 1.41-.158.132-.359.345-.601.489-.454.272-.907.716-1.47.184-.489.032-.921-.222-1.418-.251-.724-.044-1.445-.293-2.145-.524-.321-.106-.716-.189-.915-.06-.445.291-.893.113-1.349.205m4.641 7.499c-.729-1.183-.556-2.619-1.335-3.679.161-.737.82-1.149.942-1.804.639-.554 1.323-.283 1.949-.073.665.224 1.163.716 1.462 1.493v3.968c.189.336.545.511.842.544.709.079 1.148.574 1.666.932.54.371.809.933.742 1.626-.031.32-.005.646-.005 1.006l-.938.807c-.311.089-.872-.152-1.414.17-.447.266-.972-.077-1.393-.232-.483-.179-1.019-.395-1.376-.854a1.3 1.3 0 0 0-.57-.431c-.425-.166-.616-.62-.806-1.109.397-.737.181-1.594.234-2.364"/>
    </g>
</svg>
