<?xml version="1.0" encoding="iso-8859-1"?>
<!-- Generator: Adobe Illustrator 16.0.0, SVG Export Plug-In . SVG Version: 6.00 Build 0)  -->
<!DOCTYPE svg PUBLIC "-//W3C//DTD SVG 1.1//EN" "http://www.w3.org/Graphics/SVG/1.1/DTD/svg11.dtd">
<svg version="1.1" id="Layer_1" xmlns="http://www.w3.org/2000/svg" xmlns:xlink="http://www.w3.org/1999/xlink" x="0px" y="0px"
	 width="72.359px" height="72.899px" viewBox="0 0 72.359 72.899" style="enable-background:new 0 0 72.359 72.899;"
	 xml:space="preserve">
<g>
	<path style="fill-rule:evenodd;clip-rule:evenodd;fill:none;" d="M79.632,80.423c-28.872,0-57.744,0-86.616,0
		c0-29.159,0-58.319,0-87.479c28.872,0,57.744,0,86.616,0C79.632,22.104,79.632,51.264,79.632,80.423z M40.303,31.05
		c0.407,0.41,0.761,0.807,1.354,0.773c0.717-0.041,1.481-0.169,2.043-0.523c1.154-0.727,2.477-1.258,3.331-2.408
		c0.206-0.277,0.523-0.344,0.788-0.457c0.428,1.373,0.288,2.761,0.254,4.133c-0.017,0.681,0.377,1.284,0.243,1.961
		c0.403,0.465,0.162,1.021,0.202,1.533c0.041,0.537,0.195,1.183-0.034,1.596c-0.361,0.65,0.048,1.118,0.103,1.661
		c0.011,0.104,0.171,0.198,0.159,0.362c-0.081,1.132,0.339,2.227,0.221,3.367c-0.147,1.417,0.369,2.808,0.209,4.229
		c0.32,0.47,0.038,1.085,0.271,1.504c0.269,0.484-0.051,1.067,0.377,1.468c0.013,0.804,0.006,1.598,0.191,2.4
		c0.145,0.631-0.077,1.33,0.241,1.957c-0.162,1.314,0.281,2.595,0.221,3.906c-0.029,0.646-0.005,1.293-0.005,1.932
		c0.364,0.322,0.347,0.806,0.547,1.21c0.998,0.807,1.894,0.253,2.835-0.215c0.082-0.327,0.134-0.662,0.314-0.922
		c-0.097-0.152-0.227-0.265-0.23-0.381c-0.021-0.647-0.066-1.303,0.006-1.942c0.077-0.686-0.264-1.309-0.218-1.963
		c0.054-0.75-0.174-1.459-0.272-2.174c-0.132-0.948-0.399-1.879-0.392-2.851c0.001-0.103-0.009-0.211-0.041-0.307
		c-0.225-0.686-0.397-1.379-0.39-2.106c0.003-0.217,0.092-0.515-0.016-0.634c-0.379-0.419-0.213-0.901-0.175-1.327
		c0.044-0.484-0.272-0.853-0.248-1.316c0.141-2.676-0.375-5.335-0.2-8.01c0.034-0.525-0.219-0.915-0.352-1.166
		c-0.304-1.167,0.143-2.117,0.128-3.103c-0.008-0.576-0.058-1.159,0.015-1.726c0.078-0.617-0.257-1.146-0.243-1.749
		c0.035-1.511,0.012-3.022,0.012-4.474c0.451-0.845,0.855-1.654,1.318-2.428c0.116-0.194,0.206-0.351,0.194-0.571
		c-0.06-1.119,0.179-2.261-0.305-3.408c-0.526-0.454-0.971-1.112-1.683-1.484c-0.162-0.084-0.339-0.236-0.396-0.475
		c-0.201-0.85-0.593-1.692-0.603-2.542c-0.014-1.205-0.397-2.375-0.258-3.583c0.003-0.026-0.032-0.057-0.049-0.086
		c-0.076-0.077-0.153-0.153-0.251-0.251c-0.292,0-0.605,0-0.912,0c-0.327,0.577-0.488,1.148-0.063,1.721
		c-0.342,0.451-0.19,1.02-0.45,1.465c0.148,1.279-0.35,2.521-0.216,3.799c0.09,0.856-0.286,1.515-0.819,2.149
		c-0.413,0.493-0.753,1.055-0.7,1.761c0.013,0.164,0.047,0.333-0.067,0.51c-0.366,0.574-0.39,1.232-0.409,1.87
		c0.006,0.479-0.407,0.724-0.63,1.036c-0.542,0.759-1.311,1.256-2.286,1.467c-0.535,0.115-1.17,0.11-1.599,0.55
		c-0.288,0.296-0.604,0.525-1.014,0.68c-0.586-0.813-1.402-1.244-2.382-1.5c-0.834-0.219-1.501-0.746-1.993-1.52
		c-0.346-0.543-0.608-1.123-0.939-1.665c-0.287-0.47-0.414-0.935-0.332-1.339c0.871-1.75,1.712-3.373,3.442-4.08
		c0.35,0.293,0.624,0.523,0.885,0.742c0,0.321,0,0.605,0,0.824c0.401,0.619,0.657,1.275,1.205,1.657
		c0.371,0.002,0.717,0.085,0.929-0.365c0.109-0.395-0.1-0.897,0.125-1.373c0.237-0.502,0.212-1.097,0.071-1.566
		c-0.271-0.915-0.126-1.821-0.18-2.729c-0.017-0.278-0.003-0.558-0.003-0.768c-1.303-1.303-1.483-1.415-3.273-1.974
		c-0.366-0.115-0.707-0.111-1.103,0.05c-0.46,0.188-0.953,0.331-1.495,0.329c-0.565-0.002-1.163,0.117-1.691,0.325
		c-0.906,0.355-1.71,0.922-2.544,1.423c-0.329,0.197-0.481,0.524-0.744,0.761c-0.292,0.264-0.582,0.528-0.786,0.713
		c-0.281,1.377-0.294,1.392-1.282,1.938c-0.418,0.231-0.839,0.459-1.177,0.81c-0.41,0.424-0.912,0.709-1.419,1.002
		c-0.786,0.454-1.583,0.923-1.891,1.873c-0.01,0.031-0.049,0.052-0.083,0.085c0,0.637,0,1.283,0,1.668
		c0.243,0.404,0.391,0.649,0.482,0.803c0.839,0.075,1.614-0.168,2.171,0.41c0.323-0.233,0.756-0.149,1.041-0.422
		c0.259,0.222,0.52,0.397,0.634,0.693c-0.301,0.42-0.25,1.031-0.73,1.224c-0.67-0.151-0.438-0.861-0.931-1.235
		c-0.875-0.029-1.649,0.431-2.406,0.892c-0.228,1.134-0.789,2.086-1.297,3.065c-0.283,0.545-0.818,0.873-1.12,1.374
		c-0.481,0.799-0.871,1.654-1.313,2.478c-0.176,0.33-0.364,0.646-0.618,0.938c-0.402,0.461-0.867,0.943-1.054,1.5
		c-0.487,1.453-1.324,2.699-2.072,4.006c-0.476,0.833-0.952,1.676-1.238,2.618c-0.27,0.888-0.43,1.829-0.989,2.613
		c-0.054,0.076-0.074,0.195-0.069,0.293c0.055,1.058-0.469,1.962-0.784,2.918c-0.273,0.829-0.773,1.522-1.438,2.106
		c-0.674,0.593-0.86,1.488-0.754,2.248c0.129,0.924,0.659,1.821,1.449,2.397c0.935,0.681,1.754,1.507,2.82,2.036
		c0.579,0.288,1.138,0.56,1.764,0.703c0.625,0.144,1.259,0.255,1.871,0.439c1.246,0.375,2.423,0.928,3.735,1.505
		c0.646,0,1.442,0.057,2.227-0.015c0.957-0.087,2.163-0.729,2.083-2.075c-0.083-1.398,0.003-2.807-0.026-4.21
		c-0.02-0.945,0.192-1.846,0.449-2.734c0.262-0.906,0.43-1.876,1.264-2.5c0.157-0.573,0.671-0.929,0.889-1.468
		c0.318-0.788,0.848-1.419,1.476-1.982c0.492-0.441,0.803-1.007,0.997-1.638c0.211-0.687,0.419-1.374,1.206-1.646
		c0.092-0.032,0.17-0.137,0.229-0.225c0.429-0.649,0.908-1.274,1.262-1.963c0.517-1.004,0.941-2.057,1.363-2.995
		c0.389-0.238,0.735-0.349,1.023-0.617c0.77-0.716,1.303-1.576,1.741-2.522c0.289-0.627,0.535-1.316,1.269-1.688
		C40.303,30.461,40.303,30.775,40.303,31.05z M33.304,53.658c0.456-0.092,0.904,0.086,1.35-0.206c0.198-0.13,0.593-0.047,0.915,0.06
		c0.699,0.231,1.42,0.48,2.145,0.524c0.497,0.029,0.929,0.283,1.418,0.251c0.563,0.532,1.016,0.089,1.47-0.184
		c0.241-0.145,0.442-0.357,0.601-0.489c-0.08-0.575,0.474-0.981,0.139-1.41c-0.216-0.276-0.139-0.535-0.15-0.804
		c-0.021-0.46-0.006-0.921-0.006-1.34c-0.671-0.614-1.188-1.301-1.947-1.682c0.1-1.443-0.437-2.703-0.919-3.971
		c-0.182-0.477-0.424-0.93-0.373-1.492c-0.742-0.382-0.714-1.407-1.49-1.819c-0.354,0.102-0.771-0.145-1.115,0.139
		c-0.44,0.362-0.755-0.316-1.199-0.107c-0.074,0.081-0.171,0.186-0.303,0.328c0.013,0.644-0.006,1.312-0.399,1.942
		c-0.11,0.177-0.23,0.506-0.23,0.754c-0.003,0.734-0.235,1.416-0.47,2.079c-0.222,0.625-0.28,1.178,0.085,1.75
		c0.798,0.273,1.641,0.486,2.104,1.333c-0.083,1.235-1.379,1.456-1.966,2.317c0.202,0.509-0.39,0.948-0.203,1.412
		C32.972,53.284,33.138,53.471,33.304,53.658z M37.945,61.157c-0.054,0.77,0.163,1.627-0.233,2.362
		c0.189,0.489,0.381,0.943,0.806,1.109c0.258,0.102,0.432,0.252,0.57,0.431c0.357,0.46,0.893,0.676,1.376,0.854
		c0.421,0.155,0.945,0.498,1.393,0.232c0.542-0.322,1.104-0.081,1.414-0.17c0.42-0.361,0.688-0.593,0.938-0.807
		c0-0.359-0.026-0.686,0.005-1.006c0.066-0.693-0.202-1.255-0.742-1.626c-0.518-0.357-0.957-0.853-1.666-0.932
		c-0.297-0.033-0.652-0.208-0.842-0.544c0-1.355,0-2.72,0-3.968c-0.299-0.777-0.797-1.27-1.462-1.493
		c-0.626-0.21-1.311-0.48-1.949,0.073c-0.122,0.654-0.781,1.066-0.942,1.804C37.39,58.538,37.217,59.975,37.945,61.157z
		 M32.037,70.932c0.565-0.18,1.091,0.256,1.696,0.214c0.645-0.045,1.294-0.011,1.942-0.011c0.936,0,1.871,0,2.806,0
		c0.216,0,0.477-0.079,0.641,0.014c0.983,0.554,1.852-0.05,2.794-0.215c0.295,0.26,0.616,0.257,1.02,0.093
		c0.432-0.176,0.912-0.279,1.379-0.312c1.096-0.074,2.122-0.375,3.144-0.757c0.369-0.138,0.728-0.38,1.197-0.33
		c0.218-0.411,0.941-0.556,0.68-1.281c-0.613,0-1.215,0-1.801,0c-0.216,0.265-0.553,0.298-0.786,0.53
		c-0.158,0.157-0.427,0.378-0.72,0.309c-0.546-0.129-1.042,0.121-1.523,0.252c-0.729,0.198-1.496,0.369-2.172,0.834
		c-0.249,0-0.539-0.023-0.823,0.007c-0.218,0.023-0.317-0.206-0.451-0.206c-0.383,0-0.781-0.119-1.15,0.071
		c-0.669,0.346-1.375,0.419-2.171,0.298c-0.234-0.253-0.503-0.541-0.755-0.813c-0.315,0-0.601,0-0.696,0
		c-0.54,0.159-0.838,0.385-1.086,0.702c-0.254-0.154-0.485-0.066-0.741-0.16c-0.79-0.291-1.549-0.817-2.487-0.481
		c-0.07,0.192-0.371,0.077-0.505,0.256c0,0.139,0,0.282,0,0.442C31.638,70.551,31.82,70.725,32.037,70.932z M67.462,51.18
		c-0.482,0.621-0.712,1.234-1.19,1.715c-0.465,0.468-0.753,1.111-1.11,1.683c-0.343,0.546-0.545,1.186-1.07,1.528
		c-0.036,0.238,0.063,0.434-0.298,0.684c-0.498,0.015-0.725,0.594-1.004,1.099c-0.451,0.814-0.896,1.624-1.625,2.237
		c-0.273,0.23-0.522,0.494-0.762,0.762c-0.286,0.317-0.68,0.432-1.083,0.624c0.116,0.311-0.165,0.481-0.349,0.562
		c-0.764,0.333-1.047,1.021-1.366,1.692c-0.021,0.046,0.032,0.126,0.058,0.217c0.306,0,0.618,0,0.915,0
		c0.324-0.237,0.548-0.548,0.697-0.9c0.189-0.447,0.693-0.269,0.971-0.53c0.457-0.432,0.901-0.87,0.826-1.626
		c0.315,0.146,0.407-0.045,0.529-0.165c0.359-0.353,0.655-0.881,1.082-1.024c0.604-0.204,0.638-0.781,1.017-1.12
		c0.661-0.592,1.149-1.385,1.639-2.116c0.715-1.07,1.322-2.233,1.816-3.441C67.387,52.488,67.654,51.941,67.462,51.18z
		 M54.238,67.031c0.263-0.257,0.518-0.508,0.771-0.756c-0.04-0.173,0.074-0.362-0.079-0.511c-0.558-0.113-1.014,0.068-1.407,0.484
		c-0.021,0.257-0.104,0.531,0.069,0.782C53.786,67.031,53.965,67.031,54.238,67.031z M68.02,50.243
		c0.79-0.226,0.561-0.801,0.592-1.253c-0.121-0.12-0.221-0.22-0.319-0.319c-0.1,0.1-0.199,0.199-0.272,0.272
		C68.02,49.375,68.02,49.779,68.02,50.243z M55.869,65.413c-0.095-0.129-0.244-0.165-0.346-0.07
		c-0.097,0.091-0.299,0.148-0.254,0.353C55.605,65.837,55.694,65.536,55.869,65.413z M52.66,67.355
		c-0.275-0.156-0.468-0.138-0.705,0.001C52.212,67.501,52.403,67.501,52.66,67.355z"/>
	<path fill="currentColor" d="M40.303,31.05c0-0.275,0-0.589,0-0.937
		c-0.733,0.372-0.979,1.061-1.269,1.688c-0.438,0.946-0.972,1.806-1.741,2.522c-0.288,0.269-0.634,0.379-1.023,0.617
		c-0.422,0.938-0.847,1.991-1.363,2.995c-0.354,0.688-0.833,1.313-1.262,1.963c-0.058,0.088-0.137,0.192-0.229,0.225
		c-0.786,0.272-0.995,0.96-1.206,1.646c-0.194,0.631-0.505,1.196-0.997,1.638c-0.628,0.563-1.158,1.194-1.476,1.982
		c-0.217,0.539-0.732,0.895-0.889,1.468c-0.834,0.624-1.002,1.594-1.264,2.5c-0.257,0.889-0.469,1.789-0.449,2.734
		c0.03,1.403-0.056,2.812,0.026,4.21c0.08,1.347-1.127,1.988-2.083,2.075c-0.785,0.071-1.581,0.015-2.227,0.015
		c-1.313-0.577-2.489-1.13-3.735-1.505c-0.612-0.185-1.247-0.296-1.871-0.439c-0.625-0.144-1.185-0.415-1.764-0.703
		c-1.066-0.529-1.886-1.355-2.82-2.036c-0.791-0.576-1.32-1.474-1.449-2.397c-0.106-0.76,0.081-1.655,0.754-2.248
		c0.665-0.584,1.164-1.277,1.438-2.106c0.315-0.956,0.838-1.86,0.784-2.918c-0.005-0.098,0.015-0.217,0.069-0.293
		c0.56-0.784,0.72-1.726,0.989-2.613c0.287-0.942,0.762-1.785,1.238-2.618c0.748-1.308,1.585-2.554,2.072-4.006
		c0.187-0.557,0.652-1.039,1.054-1.5c0.254-0.292,0.442-0.608,0.618-0.938c0.441-0.824,0.831-1.678,1.313-2.478
		c0.302-0.501,0.836-0.828,1.12-1.374c0.508-0.979,1.07-1.931,1.297-3.065c0.756-0.461,1.531-0.921,2.406-0.892
		c0.494,0.375,0.261,1.084,0.931,1.235c0.479-0.192,0.429-0.803,0.73-1.224c-0.114-0.296-0.375-0.471-0.634-0.693
		c-0.285,0.273-0.718,0.189-1.041,0.422c-0.557-0.578-1.332-0.335-2.171-0.41c-0.092-0.153-0.239-0.398-0.482-0.803
		c0-0.385,0-1.031,0-1.668c0.034-0.034,0.073-0.055,0.083-0.085c0.307-0.949,1.105-1.418,1.891-1.873
		c0.507-0.293,1.009-0.578,1.419-1.002c0.337-0.351,0.759-0.579,1.177-0.81c0.988-0.546,1.001-0.561,1.282-1.938
		c0.204-0.185,0.494-0.449,0.786-0.713c0.263-0.237,0.415-0.564,0.744-0.761c0.834-0.501,1.639-1.067,2.544-1.423
		c0.528-0.208,1.125-0.327,1.691-0.325c0.542,0.002,1.035-0.14,1.495-0.329c0.396-0.162,0.736-0.165,1.103-0.05
		c1.79,0.559,1.971,0.67,3.273,1.974c0,0.21-0.014,0.49,0.003,0.768c0.054,0.908-0.092,1.814,0.18,2.729
		c0.141,0.47,0.166,1.064-0.071,1.566c-0.225,0.476-0.016,0.978-0.125,1.373c-0.212,0.451-0.558,0.368-0.929,0.365
		c-0.548-0.382-0.804-1.038-1.205-1.657c0-0.218,0-0.502,0-0.824c-0.261-0.219-0.535-0.449-0.885-0.742
		c-1.729,0.707-2.571,2.329-3.442,4.08c-0.082,0.404,0.045,0.869,0.332,1.339c0.331,0.542,0.593,1.122,0.939,1.665
		c0.492,0.774,1.159,1.3,1.993,1.52c0.979,0.257,1.796,0.687,2.382,1.5c0.41-0.155,0.726-0.384,1.014-0.68
		c0.429-0.44,1.063-0.435,1.599-0.55c0.976-0.211,1.744-0.708,2.286-1.467c0.223-0.312,0.636-0.557,0.63-1.036
		c0.02-0.638,0.043-1.296,0.409-1.87c0.114-0.178,0.08-0.347,0.067-0.51c-0.053-0.706,0.287-1.268,0.7-1.761
		c0.533-0.635,0.909-1.293,0.819-2.149c-0.134-1.278,0.364-2.52,0.216-3.799c0.26-0.445,0.108-1.014,0.45-1.465
		c-0.425-0.572-0.264-1.144,0.063-1.721c0.307,0,0.62,0,0.912,0c0.098,0.098,0.175,0.175,0.251,0.251
		c0.017,0.029,0.052,0.06,0.049,0.086c-0.14,1.208,0.244,2.377,0.258,3.583c0.01,0.849,0.401,1.691,0.603,2.542
		c0.057,0.239,0.233,0.391,0.396,0.475c0.712,0.372,1.156,1.031,1.683,1.484c0.483,1.147,0.245,2.289,0.305,3.408
		c0.012,0.22-0.078,0.377-0.194,0.571c-0.463,0.774-0.867,1.583-1.318,2.428c0,1.452,0.023,2.963-0.012,4.474
		c-0.014,0.603,0.321,1.131,0.243,1.749c-0.072,0.567-0.022,1.15-0.015,1.726c0.015,0.985-0.432,1.936-0.128,3.103
		c0.133,0.251,0.386,0.641,0.352,1.166c-0.175,2.675,0.341,5.334,0.2,8.01c-0.024,0.464,0.292,0.832,0.248,1.316
		c-0.038,0.426-0.204,0.908,0.175,1.327c0.107,0.119,0.019,0.417,0.016,0.634c-0.008,0.728,0.165,1.421,0.39,2.106
		c0.032,0.096,0.042,0.204,0.041,0.307c-0.008,0.972,0.26,1.902,0.392,2.851c0.099,0.715,0.326,1.424,0.272,2.174
		c-0.046,0.654,0.295,1.277,0.218,1.963c-0.072,0.64-0.026,1.295-0.006,1.942c0.004,0.116,0.134,0.229,0.23,0.381
		c-0.181,0.26-0.232,0.595-0.314,0.922c-0.941,0.468-1.837,1.021-2.835,0.215c-0.2-0.404-0.183-0.888-0.547-1.21
		c0-0.639-0.024-1.286,0.005-1.932c0.061-1.312-0.383-2.592-0.221-3.906c-0.318-0.627-0.097-1.326-0.241-1.957
		c-0.186-0.803-0.179-1.597-0.191-2.4c-0.428-0.4-0.108-0.983-0.377-1.468c-0.232-0.419,0.05-1.034-0.271-1.504
		c0.16-1.422-0.356-2.813-0.209-4.229c0.118-1.141-0.302-2.235-0.221-3.367c0.012-0.164-0.148-0.259-0.159-0.362
		c-0.055-0.543-0.464-1.011-0.103-1.661c0.229-0.413,0.075-1.059,0.034-1.596c-0.04-0.512,0.201-1.068-0.202-1.533
		c0.134-0.677-0.26-1.28-0.243-1.961c0.034-1.372,0.174-2.76-0.254-4.133c-0.265,0.113-0.582,0.18-0.788,0.457
		c-0.854,1.15-2.177,1.681-3.331,2.408c-0.562,0.354-1.326,0.482-2.043,0.523C41.063,31.857,40.71,31.46,40.303,31.05z"/>
	<path fill="currentColor" d="M33.304,53.658c-0.166-0.188-0.332-0.374-0.544-0.614
		c-0.187-0.464,0.404-0.903,0.203-1.412c0.587-0.861,1.883-1.082,1.966-2.317c-0.463-0.847-1.307-1.06-2.104-1.333
		c-0.365-0.572-0.307-1.125-0.085-1.75c0.235-0.663,0.467-1.345,0.47-2.079c0-0.248,0.121-0.577,0.23-0.754
		c0.393-0.631,0.412-1.299,0.399-1.942c0.131-0.143,0.229-0.247,0.303-0.328c0.444-0.209,0.759,0.47,1.199,0.107
		c0.344-0.283,0.76-0.037,1.115-0.139c0.776,0.412,0.748,1.438,1.49,1.819c-0.051,0.563,0.191,1.016,0.373,1.492
		c0.482,1.268,1.019,2.527,0.919,3.971c0.759,0.381,1.276,1.067,1.947,1.682c0,0.419-0.015,0.88,0.006,1.34
		c0.012,0.269-0.065,0.527,0.15,0.804c0.335,0.429-0.219,0.835-0.139,1.41c-0.158,0.132-0.359,0.345-0.601,0.489
		c-0.454,0.272-0.907,0.716-1.47,0.184c-0.489,0.032-0.921-0.222-1.418-0.251c-0.724-0.044-1.445-0.293-2.145-0.524
		c-0.321-0.106-0.716-0.189-0.915-0.06C34.208,53.744,33.76,53.566,33.304,53.658z"/>
	<path fill="currentColor" d="M37.945,61.157c-0.729-1.183-0.556-2.619-1.335-3.679
		c0.161-0.737,0.82-1.149,0.942-1.804c0.639-0.554,1.323-0.283,1.949-0.073c0.665,0.224,1.163,0.716,1.462,1.493
		c0,1.248,0,2.612,0,3.968c0.189,0.336,0.545,0.511,0.842,0.544c0.709,0.079,1.148,0.574,1.666,0.932
		c0.54,0.371,0.809,0.933,0.742,1.626c-0.031,0.32-0.005,0.646-0.005,1.006c-0.249,0.214-0.518,0.445-0.938,0.807
		c-0.311,0.089-0.872-0.152-1.414,0.17c-0.447,0.266-0.972-0.077-1.393-0.232c-0.483-0.179-1.019-0.395-1.376-0.854
		c-0.139-0.179-0.313-0.329-0.57-0.431c-0.425-0.166-0.616-0.62-0.806-1.109C38.108,62.784,37.892,61.927,37.945,61.157z"/>
</g>
</svg>
