<?xml version="1.0" encoding="iso-8859-1"?>
<!-- Generator: Adobe Illustrator 16.0.0, SVG Export Plug-In . SVG Version: 6.00 Build 0)  -->
<!DOCTYPE svg PUBLIC "-//W3C//DTD SVG 1.1//EN" "http://www.w3.org/Graphics/SVG/1.1/DTD/svg11.dtd">
<svg version="1.1" id="Layer_1" xmlns="http://www.w3.org/2000/svg" xmlns:xlink="http://www.w3.org/1999/xlink" x="0px" y="0px"
	 width="72.36px" height="72.18px" viewBox="0 0 72.36 72.18" style="enable-background:new 0 0 72.36 72.18;" xml:space="preserve"
	>
<g>
	
	<path fill="currentColor" d="M37.188,56.087c-0.28,0.28-0.56,0.561-0.852,0.853c-0.417,0-0.845,0-1.29,0
		c-1.273,1.241-2.834,2.143-4.112,3.446c-0.177,0-0.387,0-0.674,0c-0.122,0.171-0.267,0.373-0.525,0.734
		c-0.123,0.546-0.583,1.509-1.617,2.094c-0.288,0-0.576,0-0.893,0c-0.491-0.63-1.159-1.095-1.829-1.588c0-0.326,0-0.64,0-0.874
		c-0.243-0.434-0.589-0.333-0.9-0.345c-0.596-0.398-0.937-1.026-1.396-1.548c-0.44-0.499-1.146-0.703-1.489-1.325
		c-0.275-0.666-0.289-1.429-0.719-2.067c-0.162-0.239-0.204-0.562-0.291-0.849c-0.213-0.708-0.751-1.262-0.928-1.993
		c-0.077-0.32-0.342-0.58-0.31-0.953c0.03-0.344-0.209-0.627-0.234-0.988c-0.051-0.743-0.446-1.391-0.818-2.094
		c-0.062-0.786-0.188-1.611-0.654-2.367c-0.167-0.271-0.297-0.606-0.243-0.982c0.052-0.353,0.011-0.718,0.011-0.982
		c-0.368-0.995-0.97-1.816-0.871-2.87c0.038-0.41-0.132-0.838-0.266-1.184c-0.458-1.187-0.626-2.39-0.593-3.642
		c0.025-0.949-0.407-1.864-0.199-2.717c-0.335-0.657-0.623-1.222-0.905-1.775c0.204-0.617,0.459-1.195,0.039-1.802
		c-0.084-0.122-0.013-0.352-0.013-0.531c0-0.792-0.046-1.587,0.011-2.375c0.079-1.084-0.313-2.003-0.859-2.955
		c0.017-1.152-0.294-2.274-0.808-3.381c-0.329-0.707-0.48-1.524-0.166-2.313c0.211-0.53,0.633-0.945,0.846-1.486
		c0.133-0.34,0.513-0.509,0.821-0.599c1.5-0.434,2.921-1.295,4.441-0.889c1.343-0.697,2.43-1.592,3.842-1.8
		c0.243-0.326,0.597-0.19,0.894-0.176c0.642,0.031,1.223-0.084,1.769-0.438c0.53-0.344,1.112-0.515,1.762-0.445
		c0.389,0.042,0.787,0.008,1.221,0.008c0.681-1.168,1.805-1.188,2.933-1.048c0.166-0.166,0.293-0.293,0.42-0.42
		c0.472-0.155,0.963,0.035,1.455-0.135c0.634-0.219,1.224-0.464,1.63-1.014c0.219-0.295,0.584-0.365,0.886-0.645
		c1.104,0.194,2.153-0.032,3.006-0.859c1.382,0.672,2.375-0.127,3.432-0.833c0.588-0.022,1.225-0.127,1.737,0.427
		C44.42,8.292,44.97,8.45,45.52,8.16c0.301-0.159,0.677,0.138,0.896,0.373c0.39,0.417,0.6,0.964,0.808,1.495
		c0.046,0.116,0.038,0.333-0.037,0.403c-0.277,0.258-0.153,0.641-0.371,0.938c-0.649,0.883-0.588,1.897-0.204,2.841
		c0.2,0.493,0.331,1.052,0.144,1.41c-0.256,0.49-0.005,1.025-0.353,1.486c-0.232,0.31-0.012,0.793,0.201,1.062
		c0.661,0.833,0.76,1.802,0.842,2.789c0.019,0.215-0.03,0.438,0.01,0.646c0.078,0.4,0.168,0.846,0.607,0.99
		c0.305,0.101,0.415,0.372,0.644,0.513c0.209,0.669-0.168,1.197-0.45,1.763c0.448,0.806,0.782,1.648,1.217,2.429
		c0.448,0.804,0.366,1.791,0.973,2.519c0.023,1.058,0.381,1.989,1.087,2.862c0,0.287,0,0.642,0,0.836
		c0.608,1.537,1.352,2.851,1.734,4.309c0.085,0.323,0.258,0.616,0.261,0.986c0.001,0.258,0.192,0.564,0.426,0.785
		c0.365,0.344,0.713,0.706,1.052,1.045c-0.027,1.172,0.754,1.843,1.493,2.57c0,0.407,0,0.833,0,1.241
		c0.486,0.727,0.969,1.424,1.423,2.14c0.151,0.237,0.43,0.298,0.612,0.351c0.925,0.27,1.271,1.059,1.717,1.76
		c0.159,0.251,0.373,0.488,0.384,0.765c-0.211,1.1-1.081,1.353-1.962,1.633c-0.564-0.234-1.201-0.429-1.784-0.771
		c-0.216-0.128-0.637-0.177-0.816-0.051c-0.758,0.529-1.271-0.131-1.88-0.304c-0.061-0.017-0.097-0.105-0.154-0.146
		c-0.874-0.625-1.168-0.605-2.07,0.147c0.132,0.264,0.186,0.572,0.449,0.826c0,0.248,0.001,0.532,0,0.816
		c-0.001,0.413,0.181,0.817,0.514,0.957c0.729,0.305,0.789,0.871,0.783,1.512c-0.001,0.107-0.001,0.216-0.001,0.324
		c0.283,0.71,0.834,1.163,1.493,1.506c0,0.235,0,0.446,0,0.735c-0.522,0.283-0.669,0.979-1.285,1.33
		c-0.543,0.31-0.934,0.886-1.336,1.287c-1.02,0.272-1.924-0.257-2.807-0.165c-0.441-0.231-0.827-0.433-1.237-0.647
		c-0.215-0.063-0.272,0.342-0.58,0.202c-0.557,1.39-1.184,2.746-1.902,4.063c-0.424,0.216-0.869,0.443-1.386,0.706
		c-0.434,0.008-0.963,0.091-1.499-0.316c-0.006-0.016-0.022-0.159-0.097-0.263c-0.385-0.538-0.527-1.098-0.609-1.697
		c-0.128-0.946-0.117-1.932-0.473-2.824c-0.317-0.798-0.196-1.468,0.254-2.146c-0.47-0.465-0.44-1.523-0.671-2.4
		c-0.147-0.149-0.479,0.045-0.466-0.358c-0.782,0.369-1.401,0.783-1.707,1.534c-0.349,0.86-1.06,1.09-1.891,1.132
		C37.405,56.092,37.296,56.087,37.188,56.087z M38.542,40.807c0.29,0.2,0.176,0.578,0.286,0.676
		c0.487,0.427,0.548,1.109,1.038,1.535c0.575,0.5,1.153,1.012,1.827,1.34c0.597,0.292,0.787,0.703,0.787,1.293
		c0,0.5,0,1.001,0,1.377c0.24,0.466,0.425,0.824,0.612,1.188c0.232,0.658-0.368,1.255-0.141,1.974
		c0.325,0.165,0.378,0.585,0.483,0.722c0.446,0.891-0.396,1.354-0.289,2.188c0.233,0.193,0.562,0.466,0.846,0.702
		c0,0.655-0.048,1.236,0.019,1.805c0.038,0.327,0.279,0.629,0.197,0.992c0.441,0.258,0.114,0.769,0.392,1.146
		c0.206,0.279,0.041,0.832,0.041,1.26c0.166,0.128,0.256,0.367,0.523,0.322c0.258-0.271,0.67-0.452,0.557-0.944
		c0.451-0.669,0.578-1.522,1.197-2.1c0.088-0.082,0.106-0.24,0.157-0.363c0.724-0.392,1.459-0.429,2.113,0.093
		c0.432,0.345,0.99,0.167,1.431,0.484c0.188,0.135,0.555,0.022,0.835,0.022c0.165-0.244,0.47-0.354,0.566-0.745
		c-0.586-0.988-0.693-2.301-1.737-3.008c-0.056-0.247-0.056-0.405-0.121-0.58c-0.151-0.405-0.392-0.799-0.339-1.265
		c0.06-0.523-0.134-0.963-0.525-1.289c-0.283-0.234-0.505-0.565-0.526-0.856c-0.059-0.812-0.44-1.478-0.771-2.173
		c-0.043-0.091-0.132-0.154-0.121-0.275c0.061-0.716-0.41-1.146-0.861-1.577c0-0.943,0-1.879,0-2.813
		c0.357-0.357,0.714-0.714,1.108-1.108c0-0.42,0-0.879,0-1.33c0.3-0.031,0.479-0.182,0.603-0.368
		c0.166-0.953-0.556-1.394-1.022-1.904c-0.109-0.738-0.67-1.219-0.751-1.897c-0.34,0.11-0.433-0.252-0.733-0.209
		c-0.979,0.14-1.807-0.255-2.556-0.85c-0.791,0-1.583,0-2.375,0c-0.49,0.507-0.49,0.507-0.617,1.075
		c-0.688,0.454-1.513,0.754-2.086,1.421c0.168,0.383-0.231,0.623-0.23,0.991c0.001,0.602,0.117,1.16,0.352,1.698
		C38.907,39.913,38.851,40.326,38.542,40.807z M39.874,19.458c-0.759-0.676-1.056-1.63-1.254-2.58
		c-0.131-0.627-0.39-1.066-0.81-1.389c-0.234,0.235-0.433,0.433-0.729,0.73c0,0.376,0,0.952,0,1.407
		c-0.538,1.4-1.658,2.154-2.501,3.015c-1.64-0.397-2.178-1.897-3.227-2.782c-0.386-0.028-0.597,0.083-0.768,0.437
		c-0.331,0.682-0.156,1.376-0.179,2.066c0.396,0.394,0.099,0.873,0.22,1.321c-0.781,0.48-1.604,0.81-2.294,1.357
		c-0.863,0-1.726,0-2.588,0c-0.919-0.54-1.344-1.482-1.88-2.349c-0.252,0-0.495,0-0.738,0c-0.165,0.368-0.417,0.718-0.263,1.2
		c0.418,0.402,0.894,0.828,0.827,1.548c0.37,0.368,0.037,0.932,0.298,1.272c0.411,0.534,0.334,1.111,0.351,1.695
		c0.015,0.516,0.152,1.034,0.285,1.505c0.146,0.521,0.077,1.194,0.71,1.585c0.242,0,0.556,0,0.864,0
		c0.281-0.328,0.624-0.566,1.043-0.617c0.713-0.087,1.291-0.406,1.782-0.912c0.347-0.359,0.696-0.716,1.025-1.055
		c0.602,0.066,1.183-0.138,1.661,0.25c0.506-0.328,0.986-0.64,1.532-0.814c0.383-0.123,0.803-0.145,1.172-0.296
		c0.5-0.205,1.055-0.195,1.533-0.467c0.463-0.263,0.888-0.631,1.471-0.613c0.696-0.672,1.653-0.884,2.442-1.386
		c0.281-0.179,0.552-0.034,0.817-0.144c0.148-0.222,0.458-0.329,0.515-0.607c-0.002-0.492-0.301-0.717-0.669-0.873
		c-0.29-0.123-0.325-0.368-0.445-0.624C39.783,20.717,39.961,20.091,39.874,19.458z M28.742,34.3c-1.085-0.13-1.714,0.557-2.546,0.9
		C27.45,35.79,27.833,35.659,28.742,34.3z M22.167,36.431c-0.59-0.003-1.047,0.124-1.267,0.61c-0.059,0.131-0.224,0.236-0.198,0.39
		c0.197,0.28,0.44,0.362,0.63,0.306c0.34-0.305,0.602-0.54,0.835-0.749C22.167,36.8,22.167,36.661,22.167,36.431z M25.417,46.376
		c0-0.223-0.214-0.275-0.302-0.416c-0.47-0.108-0.857,0.062-1.196,0.333c0,0.152,0,0.291,0,0.421
		c0.226,0.106,0.436,0.206,0.655,0.309C24.85,46.799,25.308,46.813,25.417,46.376z M33.001,41.438c-0.396,0-0.735,0-1.073,0
		c-0.347,0.155-0.234,0.447-0.249,0.691c0.189,0.296,0.436,0.447,0.794,0.313C32.752,42.179,32.924,41.864,33.001,41.438z
		 M33.76,36.235c-0.364,0.204-0.435,0.472-0.286,0.824c0.24,0,0.477,0,0.662,0c0.364-0.204,0.435-0.472,0.286-0.824
		C34.182,36.235,33.945,36.235,33.76,36.235z M34.482,53.635c0.245,0.103,0.417,0.176,0.593,0.25
		c0.151-0.227,0.468-0.33,0.509-0.734c-0.103-0.074-0.244-0.176-0.411-0.297C34.569,52.932,34.569,52.933,34.482,53.635z
		 M30.436,33.368c0.426,0.066,0.869,0.168,1.039-0.443c-0.158-0.335-0.451-0.497-0.758-0.362
		C30.433,32.686,30.255,32.978,30.436,33.368z M36.432,31.137c-0.146-0.154-0.29-0.158-0.433,0.006
		c0.016,0.099-0.045,0.217,0.083,0.29c0.132,0.06,0.254,0.047,0.35-0.083C36.432,31.28,36.432,31.21,36.432,31.137z M25.599,50.389
		c0.247,0.112,0.381,0.104,0.46-0.028c0.054-0.091,0.275-0.107,0.16-0.284C25.893,49.936,25.809,50.237,25.599,50.389z
		 M34.293,31.548c-0.053,0.058-0.072,0.202,0.095,0.357c0.087-0.015,0.182-0.032,0.223-0.039
		C34.514,31.769,34.404,31.659,34.293,31.548z M30.367,51.635c-0.152,0.071-0.3,0.14-0.466,0.217
		c0.216,0.164,0.335,0.172,0.466,0.047C30.367,51.813,30.367,51.719,30.367,51.635z"/>
	
	
	
	
	
	
	
	
	
	
	
	
	
</g>
</svg>
