<?xml version="1.0" encoding="iso-8859-1"?>
<!-- Generator: Adobe Illustrator 16.0.0, SVG Export Plug-In . SVG Version: 6.00 Build 0)  -->
<!DOCTYPE svg PUBLIC "-//W3C//DTD SVG 1.1//EN" "http://www.w3.org/Graphics/SVG/1.1/DTD/svg11.dtd">
<svg version="1.1" id="Layer_1" xmlns="http://www.w3.org/2000/svg" xmlns:xlink="http://www.w3.org/1999/xlink" x="0px" y="0px"
	 width="72.359px" height="72.899px" viewBox="0 0 72.359 72.899" style="enable-background:new 0 0 72.359 72.899;"
	 xml:space="preserve">
<g>
	<path style="fill-rule:evenodd;clip-rule:evenodd;fill:none;" d="M-6.984-7.057c28.872,0,57.744,0,86.616,0
		c0,29.16,0,58.32,0,87.479c-28.872,0-57.744,0-86.616,0C-6.984,51.264-6.984,22.104-6.984-7.057z M51.554,49.924
		c-0.168-0.294-0.367-0.516-0.415-0.766c-0.047-0.241-0.183-0.449-0.266-0.649c-0.312-0.757-0.81-1.468-1.429-1.959
		c-0.479-0.379-0.924-0.752-1.107-1.288c-0.183-0.532-0.555-0.865-0.886-1.236c-0.116-0.638-0.227-0.853-0.665-1.184
		c-0.325-0.246-0.57-0.666-0.388-0.938c0.307-0.458,0.113-0.897,0.184-1.336c0.136-0.849,0.285-1.661,0.981-2.302
		c0.518-0.477,1.13-0.825,1.622-1.341c0.287-0.301,0.745-0.499,1.251-0.292c0.389,0.464,0.59,1.044,0.666,1.643
		c0.053,0.41,0.276,0.761,0.276,1.203c0,0.248,0.267,0.608,0.553,0.838c0.282,0.227,0.635,0.197,0.943,0.34
		c0.36,0.167,0.715-0.119,1.013-0.275c0.26-0.843,0.855-1.399,1.511-1.846c0.702-0.479,1.275-0.264,1.773,0.477
		c0.269,0.399,0.619,0.746,0.873,1.152c0.424,0.68,0.998,1.29,1.109,2.214c0.655,0.486,1.234,1.146,1.455,2.01
		c0.236,0.921,0.64,1.766,1.117,2.558c0.36,0.598,0.488,1.391,1.205,1.703c0.378,0,0.731,0,1.09,0
		c0.081-0.169,0.221-0.256,0.291-0.44c0.188-0.496,0.36-1.06,0.719-1.416c0.557-0.555,0.768-1.283,1.182-1.902
		c0.084-0.126,0.104-0.318,0.242-0.429c0-0.941,0-1.877,0-2.576c-0.255-1.041-0.891-1.55-1.45-2.119
		c-0.099-0.1-0.216-0.196-0.272-0.318c-0.508-1.094-1.527-1.784-2.161-2.878c0.007-0.465-0.313-0.859-0.694-1.229
		c-0.396-0.386-0.796-0.751-0.846-1.384c-0.021-0.265-0.169-0.625-0.458-0.767c-0.791-0.39-1.252-1.136-1.889-1.689
		c-0.19-0.165-0.336-0.469-0.541-0.51c-0.547-0.108-0.682-0.556-0.889-0.931c-0.203-0.368-0.446-0.612-0.813-0.857
		c-0.872-0.582-1.934-0.993-2.302-2.125c-0.733,0-1.407,0-1.98,0c-0.465-0.28-0.603-0.687-0.823-1.034
		c0-0.432,0.004-0.863-0.002-1.295c-0.003-0.211,0.028-0.443-0.049-0.627c-0.167-0.399-0.439-0.756-0.586-1.16
		c-0.162-0.449,0.316-0.842,0.202-1.309c-0.016-0.063-0.058-0.12-0.088-0.179c-0.076-0.076-0.153-0.153-0.252-0.252
		c-0.215,0.083-0.473-0.069-0.786,0.148c-0.359,0.046-0.064,0.456-0.214,0.67c-0.392,0.41-0.846,0.755-1.021,1.273
		c-0.134,1.208,0.368,2.338,0.204,3.51c-0.005,0.036-0.016,0.093,0.002,0.105c0.479,0.338-0.063,1.004,0.43,1.335
		c0,0.504-0.009,1.008,0.003,1.511c0.008,0.306,0.072,0.589,0.174,0.895c0.191,0.579,0.492,1.226,0.051,1.867
		c-0.082,0.118-0.012,0.341-0.012,0.374c-0.697,0.698-1.305,1.305-1.937,1.937c-0.021,0-0.098-0.015-0.165,0.002
		c-0.885,0.235-1.499,1.027-2.426,1.183c-0.058,0.01-0.103,0.097-0.153,0.147c-0.382,0.382-0.761,0.766-1.146,1.144
		c-0.314,0.308-0.417,0.678-0.45,1.113c-0.044,0.576,0.168,1.075,0.336,1.595c0.184,0.571,0.443,1.135,0.518,1.722
		c0.078,0.616,0.37,1.205,0.248,1.853c-0.036,0.191,0.071,0.396,0.121,0.588c0.188,0.725,0.236,1.53,0.033,2.218
		c-0.408,1.38-1.258,2.523-2.556,3.225c-0.519,0.28-0.952,0.658-1.24,1.107c-0.172,0.268-0.375,0.494-0.577,0.721
		c-0.3,0.336-0.717,0.571-1.018,0.876c-0.303,0.307-0.553,0.704-0.872,1.024c-0.481,0.485-0.966,0.967-1.393,1.395
		c-0.334,1.123,0.24,1.916,0.802,2.681c-0.043,0.908,0.069,1.782-0.203,2.65c-0.15,0.48,0.025,1.011-0.204,1.537
		c-0.194,0.448,0.111,1.047-0.247,1.517c0.065,1.128-0.435,2.222-0.163,3.4c0.061,0.061,0.163,0.162,0.291,0.29
		c0.787-0.107,1.514-0.647,2.418-0.419c0.232-0.948,0.826-1.755,0.694-2.662c0.219-0.255,0.382-0.444,0.516-0.601
		c0.337,0,0.622,0,0.897,0c0.29,0.29,0.569,0.569,0.854,0.854c0.426,0,0.857,0.01,1.288-0.005c0.17-0.005,0.36,0.085,0.51-0.066
		c0.45-0.455,1.028-0.349,1.578-0.36c0.291-0.006,1.622-0.286,1.758-0.438c0.633-0.709,1.678-0.882,2.171-1.714
		c0.601-0.073,1.129,0.137,1.629,0.316c0.572,0.207,1.12,0.009,1.519,0.093c0.908-0.322,1.549-0.832,2.205-1.297
		c0.74-0.524,1.232-1.264,1.302-2.169c-0.803-0.802-1.563-1.563-2.354-2.352c-0.088,0-0.231,0-0.276,0
		c-0.454-0.454-0.858-0.857-1.233-1.232C51.935,53.169,51.438,51.563,51.554,49.924z M5.698,42.415
		c0.851,0.969,1.101,2.15,1.167,3.365c0.097,0.097,0.173,0.173,0.274,0.274c0.288,0,0.602,0,0.809,0
		c0.777-0.29,1.158-0.835,1.496-1.458c0.322-0.593,0.688-1.179,1.128-1.688c0.775-0.898,1.717-1.635,2.299-2.722
		c0.502-0.938,1.374-1.607,2.115-2.366c0.196-0.202,0.419-0.338,0.672-0.465c0.861-0.431,0.854-0.445,1.434-1.207
		c0.137,0,0.279,0,0.429,0c0.456,0.419,0.995,0.819,1.17,1.434c0.081,0.283,0.193,0.489,0.342,0.729
		c0.404,0.648,0.906,1.214,1.364,1.815c0.708,0.933,1.517,1.729,2.451,2.415c0.081,0.06,0.137,0.153,0.173,0.196
		c0,0.329,0,0.611,0,0.886c-0.868,0.392-1.718,0.771-2.565,1.159c-0.659,0.302-1.231,0.721-1.772,1.206
		c-0.582,0.521-0.806,1.305-1.379,1.801c-0.359,0.312-0.243,0.782-0.528,1.086c0.162,0.843-0.391,1.492-0.592,2.236
		c-0.117,0.433-0.202,0.86-0.545,1.18c-0.413,0.048-0.812,0.16-1.102,0.462c-0.637,0.664-1.504,1.067-2.082,1.93
		c0,0.038,0,0.178,0,0.318c0,0.131-0.243,0.143-0.199,0.238c0.405,0.729,0.894,1.259,1.539,1.638
		c0.181,0.106,0.315,0.227,0.399,0.445c0.141,0.371,0.351,0.715,0.477,0.964c0.955,0.588,1.896,0.8,2.924,0.772
		c0.601-0.017,1.168,0.267,1.673,0.632c0.767,0.552,1.559,1.071,2.4,1.501c1.179,0.602,1.659,0.608,2.874-0.004
		c0.601-0.303,1.187-0.535,1.847-0.373c0.627,0.176,0.928,0.668,1.182,1.192c0.035,0.948-0.138,1.908,0.333,2.867
		c0.603,0.652,1.339,1.193,2.355,1.067c0.2-0.189,0.382-0.361,0.565-0.534c-0.092-0.991,0.138-1.937,0.447-2.845
		c0.14-0.413,0.166-0.802,0.196-1.214c0.023-0.302-0.108-0.62,0.176-0.906c0.11-0.11,0.082-0.426,0.025-0.621
		c-0.211-0.736-0.337-1.501-0.807-2.149c-0.513-0.71-1.095-1.37-1.413-2.222c-0.084-0.224-0.031-0.512-0.203-0.666
		c-0.634-0.571-0.848-1.384-1.18-2.108c-0.144-0.313-0.564-0.463-0.493-0.874c-0.445-0.226,0.001-0.781-0.381-1.03
		c-0.238-0.964-0.579-1.904-0.495-2.932c0.038-0.466,0.084-0.894,0.446-1.223c0.398-0.363,0.472-0.831,0.43-1.334
		c-0.067-0.794-0.351-1.565-0.227-2.229c-0.486-0.918-1.243-1.434-1.762-2.135c-0.516-0.698-1.173-1.328-1.399-2.222
		c-0.159-0.628-0.784-0.888-1.147-1.395c0-0.687,0.026-1.407-0.007-2.124C23,34.488,23.214,33.77,22.83,33.106
		c-0.046-0.079-0.047-0.257,0.007-0.31c0.409-0.396,0.111-0.889,0.204-1.324c0.108-0.504-0.057-0.991-0.247-1.409
		c-0.157-0.346-0.178-0.661-0.185-1.004c-0.007-0.36,0.051-0.729-0.013-1.078c-0.12-0.653-0.228-1.331-0.879-1.889
		c-1.093,0.629-2.217,1.27-3.561,0.935c-0.397,0.735-0.829,1.346-1.719,1.364c-0.078,0.001-0.161,0.136-0.228,0.22
		c-0.245,0.307-0.587,0.467-0.933,0.616c-0.428,0.184-0.936,0.264-1.277,0.547c-0.58,0.481-1.268,0.604-1.936,0.819
		c-0.265,0.193-0.354,0.505-0.455,0.783c-0.068,0.188-0.183,0.348-0.314,0.399c-0.421,0.163-0.708,0.557-1.123,0.671
		c-0.238,0.065-0.433,0.179-0.498,0.341c-0.369,0.91-1.122,1.499-1.785,2.205c0.131,0.271,0,0.479-0.216,0.636
		c-0.429,0.314-0.531,0.819-0.586,1.262c-0.052,0.421-0.148,0.798-0.329,1.167c-0.556,0.009-0.52,0.565-0.73,0.777
		C5.826,40.022,6.227,41.175,5.698,42.415z M28.044,8.135c-0.153,0.974,0.182,1.91-0.246,2.792c-0.038,0.079-0.002,0.21,0.033,0.304
		c0.278,0.749,0.288,1.546,0.371,2.321c0.075,0.696,0.301,1.297,0.596,1.919c0.317,0.667-0.172,1.472,0.24,2.167
		c0.064,0.108-0.002,0.292,0.057,0.406c0.113,0.214,0.175,0.426,0.228,0.666c0.105,0.474,0.106,0.974,0.234,1.415
		c0.14,0.485,0.172,0.949,0.174,1.432c0.001,0.153,0.128,0.275,0.133,0.372c0.023,0.48,0.405,0.888,0.281,1.383
		c-0.216,0.862-0.215,0.858-0.012,1.679c0.152,0.616-0.129,1.271,0.156,1.878c0.015,0.031,0.065,0.047,0.073,0.078
		c0.223,0.843,0.529,1.689,0.625,2.533c0.105,0.932,0.176,1.878,0.252,2.82c0.048,0.604,0.009,1.215,0.009,1.697
		c0.241,0.467,0.425,0.825,0.644,1.249c0.056,0.896-0.072,1.874,0.199,2.853c0.192,0.693-0.107,1.449,0.219,2.179
		c0.288,0.644,0.236,1.392,0.413,2.088c0.147,0.584,0.063,1.237,0.245,1.847c0.046,0.154,0.036,0.384-0.05,0.509
		c-0.433,0.635-0.112,1.273,0.172,1.736c0.366,0.596,0.546,1.169,0.535,1.837c-0.01,0.533,0.19,0.98,0.484,1.42
		c0.276,0.413,0.473,0.881,0.727,1.367c0.279-0.272,0.272,0.274,0.524,0.186c0.771-0.274,1.153-0.798,1.081-1.636
		c-0.014-0.163-0.037-0.33,0.071-0.509c0.375-0.617,0.367-1.313,0.363-2.01c-0.002-0.3,0.033-0.591,0.138-0.906
		c0.184-0.555,0.147-1.2,0.012-1.788c-0.203-0.884-0.237-1.06,0.064-1.674c0.074-0.149,0.227-0.241,0.215-0.454
		c-0.057-1.01,0.203-1.974,0.366-2.959c0.163-0.981,0.195-2.018,0.271-3.031c0.034-0.446-0.029-0.892,0.212-1.318
		c0.243-0.431,0.215-0.928,0.234-1.416c0.025-0.656-0.18-1.342,0.206-1.961c-0.147-0.507,0.213-0.931,0.226-1.421
		c0.025-0.943-0.003-1.876,0.163-2.832c0.208-1.2-0.021-2.454,0.228-3.686c0.087-0.428,0.09-0.904,0.268-1.298
		c0.183-0.406,0.195-0.799,0.196-1.214c0-0.503,0-1.007,0-1.51c0-0.432-0.161-0.972,0.039-1.269
		c0.278-0.413,0.015-0.845,0.251-1.201c0.282-0.425,0.092-0.896,0.138-1.345c0.028-0.273,0.147-0.542,0.182-0.779
		c0.094-0.647,0.299-1.273,0.275-1.956c-0.063-1.796-0.026-3.596-0.018-5.395c0.003-0.488,0.021-0.97-0.397-1.421
		c-1.228-0.333-2.55-0.044-3.847-0.166c-1.282-0.12-2.553,0.095-3.788,0.282c-1.207,0.182-2.405,0.588-3.609,0.889
		C28.619,7.561,28.339,7.84,28.044,8.135z M23.107,12.588c-0.661,1.557-0.93,1.838-2.028,2.171c-1.219,0.371-1.505,0.775-1.469,2.11
		c0.446,0.718,0.955,1.434,1.356,2.206c0.582,1.119,1.244,2.206,1.63,3.414c0.181,0.567,0.523,1.026,0.98,1.299
		c0.561,0.335,1.087,0.894,1.862,0.688c0.063-0.017,0.119-0.06,0.226-0.116c0.127-0.222,0.277-0.482,0.4-0.698
		c-0.229-0.649-0.619-1.246-0.61-1.837c0.016-1.064-0.386-2.082-0.252-3.141c0.076-0.603-0.105-1.194-0.309-1.704
		c-0.447-1.119-0.644-2.241-0.561-3.429c0.02-0.284,0.003-0.571,0.003-0.86c-0.313,0.034-0.435-0.359-0.765-0.305
		C23.47,12.513,23.354,12.652,23.107,12.588z M45.02,18.121c-0.582,0.728-1.136,1.419-1.663,2.079
		c0.015,0.976-0.246,1.8-0.833,2.441c-0.18,0.839,0.16,1.522,0.442,2.217c0.56,0.238,1.149,0.423,1.535,0.882
		c0.341,0,0.655,0,1.043,0c-0.137-0.335,0.089-0.542,0.163-0.795c0.089-0.306,0.339-0.443,0.525-0.642
		c0.191-0.206,0.435-0.364,0.553-0.46c0-1.387,0-2.604,0-3.833C46.088,19.552,45.842,18.694,45.02,18.121z M32.303,70.941
		c0.519-0.302,1.015,0.277,1.632,0.209c0.64-0.069,1.293-0.016,1.941-0.016c0.864,0,1.727,0,2.59,0c0.216,0,0.476-0.078,0.641,0.014
		c0.983,0.547,1.854-0.015,2.816-0.225c0.269,0.297,0.6,0.229,1,0.116c0.483-0.137,0.961-0.321,1.481-0.344
		c1.058-0.047,2.054-0.361,3.042-0.729c0.37-0.138,0.728-0.371,1.193-0.342c0.241-0.303,0.627-0.517,0.79-0.925
		c-0.128-0.133-0.226-0.235-0.339-0.354c-0.515,0-1.044,0-1.505,0c-0.627,0.487-1.204,0.908-1.993,0.847
		c-0.141-0.011-0.328-0.05-0.419,0.021c-0.503,0.392-1.143,0.394-1.708,0.564c-0.59,0.178-1.043,0.623-1.748,0.692
		c-0.445-0.483-1.135-0.586-1.75-0.349c-0.699,0.271-1.38,0.414-2.126,0.354c-0.241-0.226-0.538-0.427-0.604-0.804
		c-0.381-0.12-0.727-0.42-1.271-0.182c-0.197,0.214-0.463,0.504-0.711,0.772c-0.318,0-0.604,0-0.858,0
		c-0.454-0.289-0.882-0.563-1.335-0.852c-0.327,0-0.685,0-1.048,0c-0.54,0.542-0.66,0.79-0.452,1.081
		C31.741,70.602,31.973,70.742,32.303,70.941z M53.276,17.895c0.042,0.255-0.05,0.49,0.084,0.738
		c0.425,0.79,0.829,1.591,1.207,2.404c0.128,0.277,0.415,0.612,0.542,0.595c0.394-0.052,0.618,0.325,0.992,0.264
		c0.58-0.095,1.021-0.352,1.283-0.888c0.045-0.09,0.138-0.164,0.157-0.257c0.152-0.691,0.691-1.098,1.136-1.563
		c0-0.368,0-0.727,0-1.082c-0.18-0.18-0.357-0.357-0.567-0.567c-0.758,0.148-1.584-0.152-2.432,0.201
		c-0.652-0.331-1.381-0.481-1.882-0.365C53.645,17.526,53.492,17.678,53.276,17.895z M67.104,52.063
		c-0.985,0.729-1.561,1.776-2.133,2.789c-0.409,0.723-0.816,1.416-1.4,2.008c-0.216,0.218-0.426,0.431-0.591,0.72
		c-0.56,0.984-1.168,1.937-1.996,2.742c-0.735,0.716-1.636,1.243-2.287,2.048c-0.022,0.028-0.046,0.067-0.076,0.074
		c-0.797,0.187-0.7,0.966-1.116,1.526c0.438,0,0.753,0,1.065,0c0.638-0.236,0.531-1.366,1.511-1.256
		c0.248-0.247,0.639-0.46,0.727-0.761c0.226-0.769,0.86-1.166,1.315-1.727c0.254-0.313,0.725-0.315,0.905-0.683
		c0.172-0.352,0.433-0.619,0.687-0.904c0.597-0.67,1.103-1.42,1.63-2.138c0.705-0.96,1.179-2.091,1.765-3.141
		c0.1-0.181,0.256-0.323,0.215-0.562c-0.037-0.218,0.063-0.379,0.192-0.569c0.278-0.41,0.318-0.892,0.182-1.367
		c-0.351-0.111-0.443,0.161-0.594,0.329C67.104,51.452,67.104,51.704,67.104,52.063z M55.134,65.717
		c-0.265,0.098-0.549-0.086-0.817,0.146c-0.218,0.188-0.532,0.264-0.805,0.389c0.141,0.294-0.456,0.419-0.146,0.762
		c0.297,0,0.609,0,0.906,0c0.325-0.345,0.706-0.611,0.836-0.992c0.3-0.158,0.552-0.291,0.758-0.399
		c0.021-0.295-0.111-0.319-0.262-0.319c-0.034,0.014-0.071,0.02-0.094,0.041C55.381,65.468,55.255,65.596,55.134,65.717z
		 M68.129,50.252c0.601-0.574,0.712-0.811,0.707-1.253c-0.004-0.354-0.225-0.469-0.484-0.555c-0.504,0.24-0.332,0.804-0.615,1.105
		C67.867,49.784,67.979,49.984,68.129,50.252z M52.603,67.323c-0.193-0.119-0.384-0.107-0.577-0.011
		c-0.073,0.135-0.063,0.255,0.066,0.366C52.356,67.704,52.495,67.539,52.603,67.323z"/>
	<path style="fill-rule:evenodd;clip-rule:evenodd;" d="M51.554,49.924c-0.115,1.64,0.381,3.245,0.914,4.858
		c0.375,0.375,0.779,0.778,1.233,1.232c0.045,0,0.188,0,0.276,0c0.79,0.789,1.551,1.55,2.354,2.352
		c-0.069,0.905-0.562,1.645-1.302,2.169c-0.656,0.465-1.297,0.975-2.205,1.297c-0.398-0.084-0.946,0.114-1.519-0.093
		c-0.5-0.18-1.028-0.39-1.629-0.316c-0.493,0.832-1.538,1.005-2.171,1.714c-0.136,0.152-1.467,0.433-1.758,0.438
		c-0.55,0.012-1.128-0.095-1.578,0.36c-0.149,0.151-0.34,0.062-0.51,0.066c-0.431,0.015-0.862,0.005-1.288,0.005
		c-0.285-0.284-0.564-0.563-0.854-0.854c-0.275,0-0.561,0-0.897,0c-0.134,0.156-0.297,0.346-0.516,0.601
		c0.132,0.907-0.462,1.714-0.694,2.662c-0.904-0.229-1.632,0.312-2.418,0.419c-0.128-0.128-0.229-0.229-0.291-0.29
		c-0.272-1.179,0.228-2.272,0.163-3.4c0.358-0.47,0.052-1.068,0.247-1.517c0.229-0.526,0.054-1.057,0.204-1.537
		c0.272-0.868,0.16-1.742,0.203-2.65c-0.562-0.765-1.137-1.558-0.802-2.681c0.427-0.428,0.912-0.909,1.393-1.395
		c0.319-0.32,0.569-0.718,0.872-1.024c0.301-0.305,0.718-0.54,1.018-0.876c0.202-0.227,0.405-0.453,0.577-0.721
		c0.288-0.449,0.722-0.827,1.24-1.107c1.298-0.701,2.147-1.845,2.556-3.225c0.203-0.688,0.154-1.493-0.033-2.218
		c-0.05-0.192-0.157-0.396-0.121-0.588c0.122-0.647-0.17-1.236-0.248-1.853c-0.074-0.587-0.334-1.15-0.518-1.722
		c-0.168-0.52-0.38-1.019-0.336-1.595c0.033-0.436,0.136-0.806,0.45-1.113c0.385-0.378,0.764-0.762,1.146-1.144
		c0.051-0.051,0.096-0.138,0.153-0.147c0.927-0.156,1.541-0.948,2.426-1.183c0.067-0.018,0.144-0.002,0.165-0.002
		c0.632-0.632,1.239-1.239,1.937-1.937c0-0.033-0.07-0.256,0.012-0.374c0.441-0.641,0.141-1.288-0.051-1.867
		c-0.102-0.306-0.166-0.589-0.174-0.895c-0.012-0.503-0.003-1.007-0.003-1.511c-0.493-0.331,0.049-0.997-0.43-1.335
		c-0.018-0.012-0.007-0.069-0.002-0.105c0.164-1.172-0.338-2.303-0.204-3.51c0.176-0.518,0.63-0.863,1.021-1.273
		c0.149-0.214-0.146-0.624,0.214-0.67c0.313-0.217,0.571-0.064,0.786-0.148c0.099,0.099,0.176,0.176,0.252,0.252
		c0.03,0.059,0.072,0.116,0.088,0.179c0.114,0.467-0.364,0.86-0.202,1.309c0.146,0.404,0.419,0.761,0.586,1.16
		c0.077,0.184,0.046,0.416,0.049,0.627c0.006,0.432,0.002,0.863,0.002,1.295c0.221,0.347,0.358,0.753,0.823,1.034
		c0.573,0,1.247,0,1.98,0c0.368,1.133,1.43,1.544,2.302,2.125c0.367,0.246,0.61,0.489,0.813,0.857
		c0.207,0.375,0.342,0.823,0.889,0.931c0.205,0.041,0.351,0.345,0.541,0.51c0.637,0.553,1.098,1.299,1.889,1.689
		c0.289,0.143,0.438,0.502,0.458,0.767c0.05,0.633,0.449,0.998,0.846,1.384c0.381,0.371,0.701,0.765,0.694,1.229
		c0.634,1.094,1.653,1.785,2.161,2.878c0.057,0.122,0.174,0.219,0.272,0.318c0.56,0.569,1.195,1.078,1.45,2.119
		c0,0.699,0,1.635,0,2.576c-0.138,0.11-0.158,0.303-0.242,0.429c-0.414,0.619-0.625,1.348-1.182,1.902
		c-0.358,0.356-0.53,0.92-0.719,1.416c-0.07,0.185-0.21,0.271-0.291,0.44c-0.358,0-0.712,0-1.09,0
		c-0.717-0.313-0.845-1.105-1.205-1.703c-0.478-0.792-0.881-1.637-1.117-2.558c-0.221-0.863-0.8-1.523-1.455-2.01
		c-0.111-0.924-0.686-1.534-1.109-2.214c-0.254-0.406-0.604-0.753-0.873-1.152c-0.498-0.74-1.071-0.956-1.773-0.477
		c-0.655,0.446-1.251,1.003-1.511,1.846c-0.298,0.156-0.652,0.442-1.013,0.275c-0.309-0.143-0.661-0.113-0.943-0.34
		c-0.286-0.229-0.553-0.59-0.553-0.838c0-0.442-0.224-0.793-0.276-1.203c-0.076-0.599-0.277-1.178-0.666-1.643
		c-0.506-0.207-0.964-0.009-1.251,0.292c-0.492,0.516-1.104,0.864-1.622,1.341c-0.696,0.641-0.846,1.453-0.981,2.302
		c-0.07,0.438,0.123,0.878-0.184,1.336c-0.183,0.271,0.063,0.691,0.388,0.938c0.438,0.331,0.549,0.546,0.665,1.184
		c0.331,0.371,0.703,0.704,0.886,1.236c0.184,0.536,0.629,0.909,1.107,1.288c0.619,0.491,1.117,1.202,1.429,1.959
		c0.083,0.2,0.219,0.408,0.266,0.649C51.187,49.408,51.386,49.63,51.554,49.924z"/>
	<path style="fill-rule:evenodd;clip-rule:evenodd;" d="M5.698,42.415c0.528-1.24,0.127-2.393,0.329-3.578
		c0.211-0.212,0.175-0.769,0.73-0.776c0.18-0.37,0.276-0.748,0.329-1.168c0.055-0.443,0.157-0.948,0.586-1.262
		c0.216-0.158,0.347-0.366,0.216-0.636c0.663-0.706,1.416-1.294,1.785-2.205c0.065-0.162,0.26-0.276,0.498-0.341
		c0.416-0.114,0.702-0.508,1.123-0.671c0.131-0.051,0.246-0.21,0.314-0.399c0.101-0.278,0.189-0.589,0.455-0.783
		c0.668-0.216,1.356-0.338,1.936-0.819c0.341-0.284,0.849-0.364,1.277-0.547c0.346-0.149,0.688-0.31,0.933-0.616
		c0.067-0.084,0.15-0.219,0.228-0.22c0.89-0.019,1.322-0.629,1.719-1.364c1.344,0.334,2.468-0.306,3.561-0.935
		c0.652,0.558,0.76,1.236,0.879,1.889c0.064,0.348,0.006,0.718,0.013,1.078c0.007,0.343,0.027,0.658,0.185,1.004
		c0.19,0.418,0.355,0.905,0.247,1.409c-0.093,0.435,0.206,0.927-0.204,1.324c-0.055,0.053-0.053,0.231-0.007,0.31
		c0.384,0.663,0.17,1.382,0.202,2.074c0.033,0.717,0.007,1.438,0.007,2.124c0.363,0.507,0.988,0.767,1.147,1.395
		c0.226,0.894,0.883,1.523,1.399,2.222c0.519,0.701,1.276,1.217,1.762,2.135c-0.124,0.664,0.16,1.436,0.227,2.229
		c0.042,0.503-0.031,0.971-0.43,1.334c-0.362,0.329-0.408,0.757-0.446,1.223c-0.084,1.027,0.257,1.968,0.495,2.932
		c0.382,0.249-0.064,0.805,0.381,1.03c-0.071,0.411,0.35,0.561,0.493,0.874c0.332,0.725,0.545,1.537,1.18,2.108
		c0.171,0.154,0.119,0.442,0.203,0.666c0.318,0.852,0.899,1.512,1.413,2.222c0.469,0.648,0.595,1.413,0.807,2.149
		c0.056,0.195,0.084,0.511-0.025,0.621c-0.285,0.286-0.153,0.604-0.176,0.906c-0.031,0.412-0.056,0.801-0.196,1.214
		c-0.309,0.908-0.539,1.854-0.447,2.845c-0.183,0.173-0.366,0.345-0.565,0.534c-1.016,0.126-1.752-0.415-2.355-1.067
		c-0.471-0.959-0.297-1.919-0.333-2.867c-0.254-0.524-0.555-1.017-1.182-1.192c-0.66-0.162-1.246,0.07-1.847,0.373
		c-1.215,0.612-1.694,0.605-2.874,0.004c-0.841-0.43-1.634-0.949-2.4-1.501c-0.505-0.365-1.073-0.648-1.673-0.632
		c-1.029,0.027-1.97-0.185-2.924-0.772c-0.126-0.249-0.336-0.593-0.477-0.964c-0.083-0.219-0.218-0.339-0.399-0.445
		c-0.645-0.379-1.134-0.908-1.539-1.638c-0.044-0.096,0.199-0.107,0.199-0.238c0-0.141,0-0.28,0-0.318
		c0.578-0.862,1.444-1.266,2.082-1.93c0.29-0.302,0.689-0.414,1.101-0.462c0.344-0.319,0.429-0.747,0.545-1.18
		c0.201-0.744,0.754-1.394,0.592-2.236c0.285-0.304,0.169-0.774,0.528-1.086c0.573-0.496,0.797-1.279,1.379-1.801
		c0.542-0.485,1.114-0.904,1.772-1.206c0.847-0.388,1.697-0.768,2.565-1.159c0-0.274,0-0.557,0-0.886
		c-0.036-0.043-0.092-0.137-0.173-0.196c-0.935-0.687-1.743-1.482-2.451-2.415c-0.458-0.602-0.96-1.167-1.364-1.815
		c-0.148-0.239-0.261-0.445-0.342-0.729c-0.176-0.615-0.714-1.015-1.17-1.434c-0.149,0-0.292,0-0.429,0
		c-0.58,0.762-0.573,0.775-1.434,1.207c-0.252,0.127-0.476,0.263-0.672,0.465c-0.741,0.759-1.612,1.429-2.115,2.366
		c-0.582,1.087-1.524,1.823-2.299,2.722c-0.44,0.509-0.806,1.095-1.128,1.688c-0.338,0.623-0.719,1.168-1.496,1.458
		c-0.207,0-0.521,0-0.809,0c-0.101-0.102-0.177-0.178-0.274-0.274C6.799,44.565,6.549,43.384,5.698,42.415z M19.656,29.194
		c0.173-0.058,0.277-0.172,0.355-0.333c-0.21-0.089-0.332-0.078-0.428,0.051C19.598,29.007,19.54,29.121,19.656,29.194z"/>
	<path style="fill-rule:evenodd;clip-rule:evenodd;" d="M28.044,8.135c0.294-0.294,0.574-0.574,0.854-0.854
		c1.204-0.301,2.403-0.707,3.609-0.889c1.235-0.187,2.505-0.402,3.788-0.282c1.297,0.122,2.619-0.167,3.847,0.166
		c0.418,0.452,0.4,0.933,0.397,1.421c-0.009,1.799-0.045,3.599,0.018,5.395c0.023,0.683-0.182,1.309-0.275,1.956
		c-0.034,0.237-0.153,0.505-0.182,0.779c-0.046,0.448,0.145,0.919-0.138,1.345c-0.236,0.355,0.027,0.788-0.251,1.201
		c-0.2,0.297-0.039,0.837-0.039,1.269c0,0.503,0,1.007,0,1.51c-0.001,0.415-0.014,0.809-0.196,1.214
		c-0.178,0.395-0.181,0.87-0.268,1.298c-0.248,1.231-0.02,2.485-0.228,3.686c-0.166,0.956-0.138,1.889-0.163,2.832
		c-0.013,0.49-0.373,0.914-0.226,1.421c-0.386,0.619-0.181,1.305-0.206,1.961c-0.02,0.487,0.009,0.984-0.234,1.416
		c-0.241,0.426-0.178,0.872-0.212,1.318c-0.076,1.013-0.108,2.049-0.271,3.031c-0.163,0.985-0.423,1.949-0.366,2.959
		c0.012,0.213-0.141,0.305-0.215,0.454c-0.301,0.614-0.267,0.79-0.064,1.674c0.135,0.588,0.171,1.233-0.012,1.788
		c-0.104,0.315-0.14,0.606-0.138,0.906c0.004,0.697,0.011,1.393-0.363,2.01c-0.108,0.179-0.085,0.346-0.071,0.509
		c0.072,0.838-0.31,1.361-1.081,1.636c-0.251,0.089-0.245-0.458-0.524-0.186c-0.254-0.486-0.45-0.954-0.727-1.367
		c-0.294-0.439-0.494-0.887-0.484-1.42c0.012-0.668-0.168-1.241-0.535-1.837c-0.285-0.463-0.605-1.102-0.172-1.736
		c0.086-0.125,0.097-0.354,0.05-0.509c-0.182-0.609-0.098-1.263-0.245-1.847c-0.176-0.696-0.125-1.444-0.413-2.088
		c-0.326-0.729-0.027-1.485-0.219-2.179c-0.271-0.979-0.143-1.957-0.199-2.853c-0.219-0.424-0.403-0.782-0.644-1.249
		c0-0.482,0.04-1.093-0.009-1.697c-0.076-0.941-0.146-1.888-0.252-2.82c-0.096-0.844-0.402-1.69-0.625-2.533
		c-0.008-0.03-0.058-0.047-0.073-0.078c-0.285-0.607-0.004-1.262-0.156-1.878c-0.203-0.821-0.204-0.816,0.012-1.679
		c0.124-0.495-0.258-0.903-0.281-1.383c-0.005-0.096-0.132-0.218-0.133-0.372c-0.002-0.482-0.034-0.946-0.174-1.432
		c-0.127-0.441-0.129-0.941-0.234-1.415c-0.053-0.24-0.115-0.451-0.228-0.666c-0.06-0.114,0.007-0.298-0.057-0.406
		c-0.413-0.695,0.077-1.5-0.24-2.167c-0.295-0.622-0.521-1.223-0.596-1.919c-0.083-0.775-0.093-1.572-0.371-2.321
		c-0.035-0.094-0.071-0.226-0.033-0.304C28.227,10.045,27.892,9.109,28.044,8.135z M33.466,8.977
		c-0.083,0.083-0.205,0.216-0.338,0.336c-1.035,0.936-1.522,2.095-1.452,3.492c0.019,0.358,0.028,0.72-0.002,1.076
		c-0.081,0.945,0.151,1.774,0.829,2.458c0.063,0.564,0.594,0.568,0.939,0.802c0.423,0.286,0.807,0.287,1.231,0.005
		c0.124-0.083,0.355,0.051,0.492-0.13c0.359-0.691,0.746-1.366,1.265-1.957c0-0.823,0-1.648,0-2.474
		c0-0.035,0.006-0.069,0.008-0.095c0.247-0.26,0.398-0.556,0.446-0.979c-0.415-0.576-0.324-1.51-1.072-1.921
		C35.111,9.204,34.401,8.713,33.466,8.977z"/>
	<path style="fill-rule:evenodd;clip-rule:evenodd;" d="M23.107,12.588c0.247,0.064,0.363-0.075,0.464-0.201
		c0.331-0.054,0.452,0.339,0.765,0.305c0,0.289,0.017,0.576-0.003,0.86c-0.083,1.188,0.114,2.311,0.561,3.429
		c0.204,0.51,0.385,1.101,0.309,1.704c-0.133,1.059,0.268,2.077,0.252,3.141c-0.009,0.591,0.38,1.188,0.61,1.837
		c-0.124,0.216-0.273,0.477-0.4,0.698c-0.107,0.056-0.163,0.099-0.226,0.116c-0.775,0.205-1.302-0.354-1.862-0.688
		c-0.457-0.273-0.799-0.732-0.98-1.299c-0.386-1.208-1.048-2.295-1.63-3.414c-0.401-0.772-0.91-1.488-1.356-2.206
		c-0.036-1.335,0.25-1.74,1.469-2.11C22.177,14.426,22.446,14.145,23.107,12.588z"/>
	<path style="fill-rule:evenodd;clip-rule:evenodd;" d="M45.02,18.121c0.822,0.573,1.068,1.431,1.766,1.889c0,1.229,0,2.446,0,3.833
		c-0.118,0.096-0.361,0.255-0.553,0.46c-0.187,0.199-0.437,0.336-0.525,0.642c-0.074,0.253-0.3,0.46-0.163,0.795
		c-0.388,0-0.702,0-1.043,0c-0.386-0.459-0.976-0.644-1.535-0.882c-0.282-0.695-0.622-1.378-0.442-2.217
		C43.11,22,43.371,21.176,43.356,20.2C43.884,19.541,44.438,18.849,45.02,18.121z"/>
	<path style="fill-rule:evenodd;clip-rule:evenodd;" d="M53.276,17.895c0.216-0.217,0.368-0.369,0.521-0.521
		c0.501-0.116,1.229,0.034,1.882,0.365c0.848-0.353,1.674-0.053,2.432-0.201c0.21,0.21,0.388,0.388,0.567,0.567
		c0,0.355,0,0.714,0,1.082c-0.444,0.465-0.983,0.872-1.136,1.563c-0.02,0.093-0.112,0.167-0.157,0.257
		c-0.263,0.536-0.703,0.793-1.283,0.888c-0.374,0.061-0.599-0.316-0.992-0.264c-0.127,0.017-0.414-0.318-0.542-0.595
		c-0.378-0.813-0.782-1.614-1.207-2.404C53.227,18.385,53.318,18.15,53.276,17.895z"/>
	<path style="fill-rule:evenodd;clip-rule:evenodd;fill:none;" d="M19.656,29.194c-0.116-0.073-0.059-0.187-0.073-0.282
		c0.096-0.128,0.218-0.14,0.428-0.051C19.934,29.022,19.829,29.136,19.656,29.194z"/>
	<path style="fill-rule:evenodd;clip-rule:evenodd;fill:none;" d="M33.466,8.977c0.935-0.263,1.645,0.228,2.348,0.614
		c0.748,0.411,0.657,1.345,1.072,1.921c-0.048,0.424-0.199,0.719-0.446,0.979c-0.002,0.025-0.008,0.06-0.008,0.095
		c0,0.825,0,1.651,0,2.474c-0.519,0.59-0.905,1.266-1.265,1.957c-0.137,0.181-0.368,0.047-0.492,0.13
		c-0.425,0.282-0.809,0.281-1.231-0.005c-0.346-0.234-0.877-0.238-0.939-0.802c-0.678-0.684-0.91-1.514-0.829-2.458
		c0.03-0.356,0.021-0.718,0.002-1.076c-0.071-1.397,0.417-2.556,1.452-3.492C33.261,9.193,33.383,9.06,33.466,8.977z"/>
</g>
</svg>
