<svg xmlns="http://www.w3.org/2000/svg" xml:space="preserve" width="72px" height="72px" viewBox="0 0 72 72">
    <path fill="currentColor" d="m37.188 56.087-.852.853h-1.29c-1.273 1.241-2.834 2.143-4.112 3.446h-.674l-.525.734c-.123.546-.583 1.509-1.617 2.094h-.893c-.491-.63-1.159-1.095-1.829-1.588v-.874c-.243-.434-.589-.333-.9-.345-.596-.398-.937-1.026-1.396-1.548-.44-.499-1.146-.703-1.489-1.325-.275-.666-.289-1.429-.719-2.067-.162-.239-.204-.562-.291-.849-.213-.708-.751-1.262-.928-1.993-.077-.32-.342-.58-.31-.953.03-.344-.209-.627-.234-.988-.051-.743-.446-1.391-.818-2.094-.062-.786-.188-1.611-.654-2.367-.167-.271-.297-.606-.243-.982.052-.353.011-.718.011-.982-.368-.995-.97-1.816-.871-2.87.038-.41-.132-.838-.266-1.184-.458-1.187-.626-2.39-.593-3.642.025-.949-.407-1.864-.199-2.717l-.905-1.775c.204-.617.459-1.195.039-1.802-.084-.122-.013-.352-.013-.531 0-.792-.046-1.587.011-2.375.079-1.084-.313-2.003-.859-2.955.017-1.152-.294-2.274-.808-3.381-.329-.707-.48-1.524-.166-2.313.211-.53.633-.945.846-1.486.133-.34.513-.509.821-.599 1.5-.434 2.921-1.295 4.441-.889 1.343-.697 2.43-1.592 3.842-1.8.243-.326.597-.19.894-.176.642.031 1.223-.084 1.769-.438.53-.344 1.112-.515 1.762-.445.389.042.787.008 1.221.008.681-1.168 1.805-1.188 2.933-1.048l.42-.42c.472-.155.963.035 1.455-.135.634-.219 1.224-.464 1.63-1.014.219-.295.584-.365.886-.645 1.104.194 2.153-.032 3.006-.859 1.382.672 2.375-.127 3.432-.833.588-.022 1.225-.127 1.737.427.53-.07 1.08.088 1.63-.202.301-.159.677.138.896.373.39.417.6.964.808 1.495.046.116.038.333-.037.403-.277.258-.153.641-.371.938-.649.883-.588 1.897-.204 2.841.2.493.331 1.052.144 1.41-.256.49-.005 1.025-.353 1.486-.232.31-.012.793.201 1.062.661.833.76 1.802.842 2.789.019.215-.03.438.01.646.078.4.168.846.607.99.305.101.415.372.644.513.209.669-.168 1.197-.45 1.763.448.806.782 1.648 1.217 2.429.448.804.366 1.791.973 2.519.023 1.058.381 1.989 1.087 2.862v.836c.608 1.537 1.352 2.851 1.734 4.309.085.323.258.616.261.986.001.258.192.564.426.785.365.344.713.706 1.052 1.045-.027 1.172.754 1.843 1.493 2.57v1.241c.486.727.969 1.424 1.423 2.14.151.237.43.298.612.351.925.27 1.271 1.059 1.717 1.76.159.251.373.488.384.765-.211 1.1-1.081 1.353-1.962 1.633-.564-.234-1.201-.429-1.784-.771-.216-.128-.637-.177-.816-.051-.758.529-1.271-.131-1.88-.304-.061-.017-.097-.105-.154-.146-.874-.625-1.168-.605-2.07.147.132.264.186.572.449.826v.816c-.001.413.181.817.514.957.729.305.789.871.783 1.512l-.001.324c.283.71.834 1.163 1.493 1.506v.735c-.522.283-.669.979-1.285 1.33-.543.31-.934.886-1.336 1.287-1.02.272-1.924-.257-2.807-.165l-1.237-.647c-.215-.063-.272.342-.58.202a38 38 0 0 1-1.902 4.063l-1.386.706c-.434.008-.963.091-1.499-.316-.006-.016-.022-.159-.097-.263-.385-.538-.527-1.098-.609-1.697-.128-.946-.117-1.932-.473-2.824-.317-.798-.196-1.468.254-2.146-.47-.465-.44-1.523-.671-2.4-.147-.149-.479.045-.466-.358-.782.369-1.401.783-1.707 1.534-.349.86-1.06 1.09-1.891 1.132-.111.003-.22-.002-.328-.002m1.354-15.28c.29.2.176.578.286.676.487.427.548 1.109 1.038 1.535.575.5 1.153 1.012 1.827 1.34.597.292.787.703.787 1.293v1.377l.612 1.188c.232.658-.368 1.255-.141 1.974.325.165.378.585.483.722.446.891-.396 1.354-.289 2.188l.846.702c0 .655-.048 1.236.019 1.805.038.327.279.629.197.992.441.258.114.769.392 1.146.206.279.041.832.041 1.26.166.128.256.367.523.322.258-.271.67-.452.557-.944.451-.669.578-1.522 1.197-2.1.088-.082.106-.24.157-.363.724-.392 1.459-.429 2.113.093.432.345.99.167 1.431.484.188.135.555.022.835.022.165-.244.47-.354.566-.745-.586-.988-.693-2.301-1.737-3.008-.056-.247-.056-.405-.121-.58-.151-.405-.392-.799-.339-1.265.06-.523-.134-.963-.525-1.289-.283-.234-.505-.565-.526-.856-.059-.812-.44-1.478-.771-2.173-.043-.091-.132-.154-.121-.275.061-.716-.41-1.146-.861-1.577v-2.813l1.108-1.108V39.5a.78.78 0 0 0 .603-.368c.166-.953-.556-1.394-1.022-1.904-.109-.738-.67-1.219-.751-1.897-.34.11-.433-.252-.733-.209-.979.14-1.807-.255-2.556-.85h-2.375c-.49.507-.49.507-.617 1.075-.688.454-1.513.754-2.086 1.421.168.383-.231.623-.23.991.001.602.117 1.16.352 1.698.196.456.14.869-.169 1.35m1.332-21.349c-.759-.676-1.056-1.63-1.254-2.58-.131-.627-.39-1.066-.81-1.389l-.729.73v1.407c-.538 1.4-1.658 2.154-2.501 3.015-1.64-.397-2.178-1.897-3.227-2.782-.386-.028-.597.083-.768.437-.331.682-.156 1.376-.179 2.066.396.394.099.873.22 1.321-.781.48-1.604.81-2.294 1.357h-2.588c-.919-.54-1.344-1.482-1.88-2.349h-.738c-.165.368-.417.718-.263 1.2.418.402.894.828.827 1.548.37.368.037.932.298 1.272.411.534.334 1.111.351 1.695.015.516.152 1.034.285 1.505.146.521.077 1.194.71 1.585h.864c.281-.328.624-.566 1.043-.617.713-.087 1.291-.406 1.782-.912.347-.359.696-.716 1.025-1.055.602.066 1.183-.138 1.661.25.506-.328.986-.64 1.532-.814.383-.123.803-.145 1.172-.296.5-.205 1.055-.195 1.533-.467.463-.263.888-.631 1.471-.613.696-.672 1.653-.884 2.442-1.386.281-.179.552-.034.817-.144.148-.222.458-.329.515-.607-.002-.492-.301-.717-.669-.873-.29-.123-.325-.368-.445-.624-.294-.621-.116-1.247-.203-1.88M28.742 34.3c-1.085-.13-1.714.557-2.546.9 1.254.59 1.637.459 2.546-.9m-6.575 2.131c-.59-.003-1.047.124-1.267.61-.059.131-.224.236-.198.39.197.28.44.362.63.306l.835-.749zm3.25 9.945c0-.223-.214-.275-.302-.416-.47-.108-.857.062-1.196.333v.421l.655.309c.276-.224.734-.21.843-.647m7.584-4.938h-1.073c-.347.155-.234.447-.249.691.189.296.436.447.794.313a1.73 1.73 0 0 0 .528-1.004m.759-5.203c-.364.204-.435.472-.286.824h.662c.364-.204.435-.472.286-.824zm.722 17.4.593.25c.151-.227.468-.33.509-.734l-.411-.297c-.604.078-.604.079-.691.781m-4.046-20.267c.426.066.869.168 1.039-.443-.158-.335-.451-.497-.758-.362-.284.123-.462.415-.281.805m5.996-2.231c-.146-.154-.29-.158-.433.006.016.099-.045.217.083.29.132.06.254.047.35-.083zM25.599 50.389c.247.112.381.104.46-.028.054-.091.275-.107.16-.284-.326-.141-.41.16-.62.312m8.694-18.841c-.053.058-.072.202.095.357l.223-.039zm-3.926 20.087-.466.217c.216.164.335.172.466.047z"/>
</svg>
