<svg xmlns="http://www.w3.org/2000/svg" xml:space="preserve" width="72px" height="72px" viewBox="0 0 72 72">
    <path fill="currentColor" d="M29.304 63.891c-.766-.636-.866-1.639-1.312-2.458-.48-.881-.406-1.807-.451-2.719-.132-.475-.514-.745-.829-1.082 0-.745-.009-1.501.004-2.255.005-.319-.017-.623-.221-.882-.317-.399-.229-.869-.208-1.313.032-.673-.162-1.271-.417-1.882-.108-.261-.362-.336-.455-.569 0-.467-.035-.938.007-1.4.092-1.027-.333-1.813-1.083-2.483-.035-.568-.028-1.115-.322-1.691-.274-.536-.424-1.2-.527-1.823-.078-.475-.25-.848-.585-1.166-.372-.354-.523-.776-.524-1.298-.002-.84-.446-1.534-.854-2.315.138-.665-.393-1.342-.213-2.017-.431-.753-.723-1.466-.654-2.292.065-.784-.21-1.628.429-2.309.01-.585-.067-1.118-.321-1.694-.247-.561-.225-1.278.047-1.943a3.8 3.8 0 0 0 .293-1.611c-.045-.969-.016-1.942-.011-2.914.002-.448-.028-.89.205-1.319.272-.502.263-1.072.226-1.632-.042-.642-.01-1.261.525-1.726.254-.221.063-.579.322-.848.394-.41.274-1.222 1.038-1.377.063-.429.458-.654.624-1.036.407-.939.866-1.839 1.64-2.575.307-.292.537-.72.868-1.025.304-.279.585-.569.957-.798a2.9 2.9 0 0 0 1.15-1.336c.295-.701.833-1.025 1.554-1.187.581-.131 1.162-.241 1.695-.609a2.57 2.57 0 0 1 1.638-.463c.358.026.719.006 1.079.004.415-.002.813.008 1.211-.205.821-.438 1.727-.292 2.496.032.545.229 1.09.026 1.607.295.476.248 1.049.06 1.578.092.143.009.287.001.357.001l1.13.585c.477.221.987-.002 1.529.203s1.065.346 1.554.701c.359.261.866.411 1.317.434 1.016.052 1.791.572 2.559 1.133.22.161.394.361.673.464.646.238 1.107.748 1.337 1.36.411 1.101 1.18 1.927 1.944 2.753.899.971 1.454 1.945 1.738 3.384.041.207.29.299.232.559-.046.204-.01.426-.01.598l.869 1.361c-.059.429.136.938-.221 1.37-.029.178.222.224.207.341-.121.959.492 1.914.18 2.81-.209.597.069 1.268-.387 1.779.317.55.38 1.2.124 1.705-.44.867-.511 1.807-.777 2.704-.138.461-.105.982-.293 1.388-.237.516-.35 1.082-.654 1.565-.485.773-1.033 1.521-.991 2.503-.26.114-.229.409-.368.607-.558.796-.911 1.712-1.445 2.531-.283.435-.447.978-.536 1.494-.049.281-.149.568-.27.752-.407.626-.527 1.322-.598 2.019-.033.333-.154.643-.312.842-.852 1.07-1.156 2.332-1.456 3.616-.104.442-.159.937-.578 1.273-.465.375-.618.976-.816 1.491a16 16 0 0 1-.88 1.901c-.1.182-.037.343-.1.497-.965 1.086-1.507 2.352-1.484 3.808.013.85-.249 1.595-.506 2.384-.269.823-.763 1.587-.788 2.477-.007.249-.149.411-.249.545-.368.491-.666 1.037-.947 1.56-.523.97-1.377 1.121-2.293 1.253-.104.015-.212.002-.311.002-.375.45-.933.435-1.41.526-.914.175-1.851.233-2.779.334a.26.26 0 0 1-.187-.063c-.26-.255-.632-.215-.941-.339s-.711-.059-1.067-.021c-1.404.145-2.565-.547-3.756-1.101-.435-.202-.406-.764-.527-1.17-.098-.329-.019-.712-.019-1.09m4.657-2.682c.753-.084 1.572.167 2.338-.226.45-.23.934-.226 1.42-.219.275.004.515-.079.785-.185 1.222-.48 1.832-1.51 2.473-2.526.428-.679.781-1.396 1.081-2.141.06-.149.237-.243.208-.454-.068-.495.179-.925.31-1.38.121-.418.287-.837.321-1.264.054-.679.064-1.37 0-2.047-.067-.716.346-1.355.235-2.069-.072-.469.089-.883.427-1.222 0-.683.008-1.366-.004-2.049-.005-.235-.074-.471-.118-.697-.169-.857-.725-1.386-1.322-1.893-.775.012-.775.012-1.477.433-.922 0-1.859.051-2.788-.02a3.26 3.26 0 0 0-1.513.272c-.886.385-1.517.072-2.145-.449-.246-.203-.445-.464-.695-.731-.339.281-.493-.163-.821-.151-.431.48-1.049.063-1.544.285-.713.235-1.326.587-1.58 1.348-.129.336.003.695-.203 1.095-.176.341-.273.905-.209 1.278.074.433.005.947.218 1.293.279.453-.028.945.214 1.315.291.446.106.896.156 1.339.032.284.011.574.005.862-.005.249.185.425.25.655.106.37.174.724.188 1.106.037.985-.423 1.932-.2 2.845.459.83 1.134 1.43 1.516 2.252.587 1.264 1.434 2.345 2.474 3.345m9.31-21.295c.992-.49 1.996-.748 2.883-1.067.385-.411.334-.981.86-1.202.502-.21.729-.859 1.193-1.026.713-.255 1.122-.792 1.658-1.26-.247-.49.301-.851.174-1.321-.1-.369.076-.692.228-.985a3.64 3.64 0 0 0 .429-1.771c-.021-1.944-.008-3.888-.008-5.782l-1.098-1.819-2.167-.742c-.953.72-1.923 1.426-2.862 2.171-.538.427-.892 1.092-1.657 1.227-.115.021-.254.174-.299.297-.332.897-1.186 1.486-1.438 2.506.155.32.393.755.211 1.125-.256.523-.104.953-.018 1.458.054.315.228.563.271.874.124.881.414 1.704 1.062 2.368.185.188.415.453.413.68-.008.89.265 1.84-.382 2.566v.898zm-12.455-4.081c.329-.434.806-.488 1.174-.729a7 7 0 0 0 1.268-1.089c.39-.416.914-.657 1.239-1.186.331-.536.884-.936 1.346-1.389.387-.38.569-.813.606-1.374.06-.924-.263-1.762-.474-2.621a1.7 1.7 0 0 0-.472-.774c-.56-.533-1.136-1.055-1.532-1.735-.376-.647-.928-1.142-1.448-1.665-.05-.051-.125-.093-.149-.154-.261-.699-.852-1.065-1.477-1.44h-1.525c-.394.404-.845.819-1.238 1.283-.394.464-.337 1.161-.767 1.63-.06.3.035.61-.069.932-.48 1.479-.48 1.888-.163 3.426.042.201.073.503-.037.619-.276.29-.142.606-.167.909-.026.321.127.76-.033.947-.376.443-.081.782.039 1.134.147.434.243.859.207 1.317-.017.214-.073.463.009.641.389.847.621 1.76 1.079 2.572.13.231.333.447.604.571.514.236 1.015.5 1.53.734.528.241.663.193 1.067-.285-.189-.794-.677-1.486-.617-2.274m4.772 3.039c1.386.807 2.738.652 4.081-.004v-1.259c-.473-.694-.484-1.565-1.132-2.23l-.477.978h-.973c-.691.347-1.344.533-1.5 1.207z"/>
</svg>
