<?xml version="1.0" encoding="iso-8859-1"?>
<!-- Generator: Adobe Illustrator 16.0.0, SVG Export Plug-In . SVG Version: 6.00 Build 0)  -->
<!DOCTYPE svg PUBLIC "-//W3C//DTD SVG 1.1//EN" "http://www.w3.org/Graphics/SVG/1.1/DTD/svg11.dtd">
<svg version="1.1" id="Layer_1" xmlns="http://www.w3.org/2000/svg" xmlns:xlink="http://www.w3.org/1999/xlink" x="0px" y="0px"
	 width="72.36px" height="72.18px" viewBox="0 0 72.36 72.18" style="enable-background:new 0 0 72.36 72.18;" xml:space="preserve"
	>
<g>
	<path style="fill-rule:evenodd;clip-rule:evenodd;fill:none;" d="M79.416,79.631c-28.8,0-57.6,0-86.399,0
		c0-28.871,0-57.743,0-86.615c28.8,0,57.6,0,86.399,0C79.416,21.888,79.416,50.76,79.416,79.631z M46.586,54.209
		c0.278-1.021,0.844-1.744,1.51-2.325c0-0.939,0.017-1.804-0.007-2.666c-0.014-0.52,0.132-0.952,0.513-1.302
		c0.131-0.119,0.278-0.222,0.396-0.314c-0.176-0.395,0.142-0.584,0.182-0.845c-0.273-0.603-0.307-0.852-0.088-1.482
		c0.121-0.349,0.174-0.713,0.01-1.012c-0.302-0.553-0.047-1.12-0.142-1.671c0.438-0.378,0.112-0.877,0.231-1.285
		c-0.151-0.152-0.279-0.279-0.427-0.427c-0.115-0.494,0.09-0.912,0.413-1.347c-0.034-0.54,0.121-1.146-0.161-1.572
		c0.137-0.686,0.568-1.106,1.029-1.375c0.39-0.228,0.569-0.583,0.774-0.882c0.197-0.289,0.408-0.554,0.646-0.802
		c0.481-0.502,1.056-0.938,0.966-1.768c-0.018-0.167,0.121-0.405,0.261-0.526c0.51-0.443,0.77-1.084,1.281-1.533
		c0.527-0.461,1.173-0.785,1.6-1.363c0.353-0.478,0.659-0.995,1.118-1.325c0.282-0.845,0.395-1.677,0.179-2.499
		c-0.22-0.839-0.059-1.725-0.459-2.6c-0.099-0.109-0.267-0.295-0.464-0.515c-1.277,0.303-2.535,0.711-3.839,0.913
		c-0.431-0.32-0.64-0.851-1.13-1.131c-0.472-0.27-1.058-0.226-1.484-0.584c-0.072,0.063-0.143,0.171-0.234,0.194
		c-0.134,0.034-0.292-0.008-0.3,0.216c0.141,0.288,0.389,0.579,0.413,0.888c0.068,0.856,0.515,1.556,0.836,2.275
		c-0.198,0.202-0.16,0.501-0.395,0.639c-0.203,0.12-0.437,0.172-0.605,0.374c-0.38,0.457-0.882,0.631-1.481,0.592
		c-0.362-0.023-0.753-0.103-1.079,0.165c-0.082-0.206-0.305-0.138-0.467-0.242c-0.313-0.749-0.343-1.574-0.455-2.379
		c-0.131-0.934,0.308-1.732,0.751-2.489c0.225-0.384,0.486-0.706,0.561-1.18c0.065-0.414,0.241-0.861,0.504-1.183
		c0.573-0.702,0.753-1.506,0.804-2.351c0.156-0.113,0.223-0.323,0.45-0.285c0.519,0.252,0.501,0.809,0.569,1.233
		c0.113,0.713-0.064,1.467,0.445,2.317c0.067,0.068,0.297,0.297,0.525,0.526c1.218,0.036,1.387-0.058,2.08-1.165
		c0-0.742-0.025-1.498,0.011-2.25c0.02-0.407-0.101-0.779-0.326-1.049c-0.228-0.271-0.337-0.594-0.569-0.888c0-0.471,0-0.97,0-1.445
		c-0.803-0.871-1.82-1.339-2.829-1.739c-0.403-0.554-0.42-1.436-1.236-1.382c-0.925,0.512-1.222,1.478-1.89,1.941
		c-0.508,0.047-0.684-0.269-1.061-0.384c0.803-0.657,1.892-0.904,1.852-2.087c-0.504-0.408-1.07-0.327-1.64-0.319
		c-0.516,0.665-1.233,1.097-1.959,1.492c-0.419,0.228-0.769,0.486-0.927,0.921c-0.163,0.448-0.435,0.838-0.814,1.046
		c-0.302,0.166-0.13,0.589-0.568,0.679c-0.283,0.058-0.488,0.492-0.782,0.816c0,0.035,0,0.178,0,0.327
		c-0.55,0.528-1.018,1.127-1.362,1.807c-0.246,0.484-0.575,0.941-1.015,1.177c-0.559,0.299-0.839,0.784-1.176,1.245
		c-1.143-0.121-2.172,0.452-3.323,0.444c-0.031,0.332-0.396,0.299-0.567,0.354c-1.156,0.372-2.159,0.927-3.063,1.764
		c-0.585,0.542-1.257,0.982-1.813,1.586c-0.31,0.336-0.754,0.602-1.103,0.943c-0.419,0.41-0.808,0.831-1.417,1.017
		c-0.309,0.094-0.759,0.225-0.758,0.726c-0.738,0.882-1.457,1.78-2.22,2.64c-0.547,0.617-1.152,1.183-1.706,1.746
		c-0.632-0.009-1.043,0.384-1.518,0.626c-0.609,0.311-0.963,0.972-1.529,1.269c-1.114,0.586-2.272,1.12-3.518,1.403
		c-0.399,0.386-0.742,0.975-1.304,0.995c-1.075,0.039-1.707,0.803-2.487,1.311c-0.481,0.314-0.682,0.852-0.553,1.449
		c0.336,0.317,0.603,0.698,1.046,0.844c0.111,0.419,0.269,0.841,0.639,1.033c0.651,0.339,1.083,0.899,1.575,1.396
		c0.462,0.466,0.961,0.781,1.51,0.883c0.228,0.116,0.455,0.233,0.602,0.309c0,0.518,0,0.914,0,1.193
		c-0.84,1.31-1.794,2.425-2.475,3.686c-0.333,0.062-0.568,0.341-0.892,0.256c-0.315,0.315-0.621,0.621-0.926,0.927
		c-0.085,0.597-0.092,1.203,0.335,1.669c0.468,0.51,0.524,1.154,0.807,1.888c0.361,0.263,0.572,0.812,0.882,1.299
		c0.334,0.526,1.054,0.686,1.357,1.176c0.176,0.667,0.36,1.24,0.822,1.687c0.363,0.35,0.809,0.657,1.051,1.078
		c0.511,0.892,1.304,1.354,2.193,1.734c0.564,0.242,1.07,0.66,1.328,1.16c0.338,0.656,0.809,0.769,1.458,0.756
		c0.417,0.426,0.839,0.868,1.535,0.928c0.137,0.012,0.415,0.208,0.613,0.324c0.833,0.488,1.561,1.165,2.566,1.368
		c0.326,0.065,0.703,0.284,0.907,0.629c0.447,0,0.877,0,1.296,0c1.081,0.88,2.418,0.916,3.675,1.034
		c1.114,0.105,2.226,0.403,3.362,0.255c0.071-0.01,0.161-0.029,0.213,0.003c0.868,0.529,1.639,0.036,2.43-0.224
		c0.35,0.383,0.804,0.169,1.209,0.216c0.457,0.053,0.917,0.019,1.274-0.3c0.315-0.28,0.625-0.536,1.068-0.573
		c0.257,0.166,0.584,0.192,0.813,0.46c1.115,0.05,2.067-0.505,2.817-1.192c0.599-0.549,1.188-1.22,1.502-2.053
		c0.174-0.464,0.365-0.949,0.846-1.275c-0.515-0.944-0.873-1.854-0.131-2.738c-0.32-0.346-0.605-0.652-0.885-0.953
		c0.421-0.509,0.662-1.064,1.155-1.422C46.698,55.23,47.008,54.667,46.586,54.209z M24.876,12.672
		c0.102-0.102,0.203-0.203,0.329-0.329c-0.042-0.311,0.131-0.7-0.342-0.946c-0.186,0-0.426,0-0.571,0
		c-0.249,0.208-0.44,0.367-0.49,0.408c-0.255,0.5,0.013,0.669,0.214,0.868C24.303,12.672,24.589,12.672,24.876,12.672z
		 M16.459,20.23c0.403-0.009,0.877,0.107,0.971-0.499c-0.182-0.325-0.512-0.404-0.807-0.539c-0.06,0.276-0.423,0.066-0.544,0.485
		C16.013,19.803,16.185,19.985,16.459,20.23z M37.004,69.08c-0.346,0-0.656,0-0.955,0c-0.05,0.229-0.126,0.431,0.031,0.589
		c0.328,0,0.637,0,0.926,0c0.108-0.118,0.194-0.213,0.28-0.307C37.193,69.269,37.119,69.193,37.004,69.08z M61.469,31.466
		c-0.482-0.019-0.485,0.159-0.318,0.446c0.112-0.021,0.209-0.04,0.318-0.061C61.469,31.729,61.469,31.634,61.469,31.466z"/>
	<path fill="currentColor" d="M46.586,54.209c0.422,0.458,0.111,1.021,0.238,1.548
		c-0.493,0.357-0.734,0.913-1.155,1.422c0.279,0.301,0.564,0.607,0.885,0.953c-0.742,0.884-0.384,1.794,0.131,2.738
		c-0.48,0.326-0.672,0.812-0.846,1.275c-0.314,0.833-0.903,1.504-1.502,2.053c-0.75,0.688-1.702,1.242-2.817,1.192
		c-0.229-0.268-0.556-0.294-0.813-0.46c-0.443,0.037-0.753,0.293-1.068,0.573c-0.357,0.318-0.817,0.353-1.274,0.3
		c-0.405-0.047-0.859,0.167-1.209-0.216c-0.791,0.26-1.563,0.753-2.43,0.224c-0.052-0.032-0.143-0.013-0.213-0.003
		c-1.136,0.148-2.248-0.149-3.362-0.255c-1.257-0.118-2.595-0.154-3.675-1.034c-0.419,0-0.849,0-1.296,0
		c-0.204-0.345-0.581-0.563-0.907-0.629c-1.005-0.203-1.733-0.88-2.566-1.368c-0.199-0.116-0.477-0.313-0.613-0.324
		c-0.696-0.06-1.119-0.502-1.535-0.928c-0.649,0.013-1.119-0.1-1.458-0.756c-0.258-0.5-0.764-0.918-1.328-1.16
		c-0.889-0.381-1.682-0.843-2.193-1.734c-0.242-0.421-0.688-0.729-1.051-1.078c-0.462-0.446-0.646-1.02-0.822-1.687
		c-0.303-0.49-1.023-0.649-1.357-1.176c-0.31-0.487-0.521-1.036-0.882-1.299c-0.283-0.733-0.338-1.378-0.807-1.888
		c-0.428-0.466-0.42-1.072-0.335-1.669c0.306-0.306,0.611-0.611,0.926-0.927c0.324,0.085,0.559-0.194,0.892-0.256
		c0.681-1.261,1.634-2.376,2.475-3.686c0-0.279,0-0.676,0-1.193c-0.147-0.075-0.375-0.192-0.602-0.309
		c-0.549-0.102-1.048-0.417-1.51-0.883c-0.492-0.497-0.924-1.058-1.575-1.396c-0.37-0.192-0.528-0.614-0.639-1.033
		c-0.443-0.146-0.709-0.526-1.046-0.844c-0.129-0.597,0.072-1.135,0.553-1.449c0.78-0.508,1.412-1.272,2.487-1.311
		c0.563-0.02,0.905-0.608,1.304-0.995c1.246-0.283,2.404-0.816,3.518-1.402c0.565-0.297,0.919-0.958,1.529-1.269
		c0.475-0.242,0.886-0.635,1.518-0.626c0.554-0.563,1.159-1.128,1.706-1.746c0.763-0.86,1.482-1.758,2.22-2.64
		c-0.001-0.501,0.449-0.631,0.758-0.726c0.608-0.186,0.998-0.606,1.417-1.017c0.349-0.341,0.792-0.607,1.103-0.943
		c0.556-0.604,1.228-1.044,1.813-1.586c0.904-0.837,1.907-1.392,3.063-1.764c0.171-0.055,0.536-0.022,0.567-0.354
		c1.151,0.008,2.181-0.564,3.323-0.444c0.337-0.46,0.617-0.945,1.176-1.245c0.439-0.235,0.769-0.692,1.015-1.177
		c0.345-0.679,0.813-1.278,1.362-1.807c0-0.149,0-0.292,0-0.327c0.294-0.324,0.499-0.758,0.782-0.816
		c0.438-0.09,0.267-0.514,0.568-0.679c0.38-0.208,0.651-0.598,0.814-1.046c0.158-0.435,0.508-0.693,0.927-0.921
		c0.726-0.395,1.443-0.827,1.959-1.492c0.569-0.008,1.136-0.089,1.64,0.319c0.04,1.183-1.049,1.43-1.852,2.087
		c0.377,0.115,0.553,0.432,1.061,0.384c0.668-0.463,0.965-1.429,1.89-1.941c0.816-0.054,0.833,0.828,1.236,1.382
		c1.009,0.399,2.026,0.868,2.829,1.739c0,0.475,0,0.974,0,1.445c0.232,0.293,0.342,0.617,0.569,0.888
		c0.226,0.27,0.346,0.642,0.326,1.049c-0.036,0.753-0.011,1.509-0.011,2.25c-0.693,1.107-0.862,1.201-2.08,1.165
		c-0.229-0.229-0.458-0.458-0.525-0.526c-0.51-0.85-0.332-1.604-0.445-2.317c-0.068-0.424-0.051-0.98-0.569-1.233
		c-0.228-0.038-0.294,0.172-0.45,0.285c-0.051,0.845-0.23,1.648-0.804,2.351c-0.263,0.322-0.438,0.769-0.504,1.183
		c-0.074,0.474-0.336,0.796-0.561,1.18c-0.443,0.757-0.882,1.556-0.751,2.489c0.112,0.805,0.142,1.63,0.455,2.379
		c0.162,0.104,0.385,0.036,0.467,0.242c0.326-0.268,0.717-0.188,1.079-0.165c0.6,0.039,1.102-0.136,1.481-0.592
		c0.169-0.202,0.402-0.254,0.605-0.374c0.234-0.138,0.196-0.437,0.395-0.639c-0.321-0.719-0.768-1.419-0.836-2.275
		c-0.024-0.309-0.272-0.6-0.413-0.888c0.008-0.224,0.166-0.182,0.3-0.216c0.092-0.023,0.162-0.131,0.234-0.194
		c0.427,0.358,1.013,0.314,1.484,0.584c0.49,0.28,0.699,0.811,1.13,1.131c1.304-0.203,2.562-0.61,3.839-0.914
		c0.197,0.219,0.365,0.405,0.464,0.515c0.4,0.875,0.239,1.761,0.459,2.6c0.216,0.822,0.104,1.653-0.179,2.499
		c-0.459,0.33-0.766,0.847-1.118,1.325c-0.427,0.578-1.072,0.901-1.6,1.363c-0.512,0.449-0.771,1.089-1.281,1.533
		c-0.14,0.122-0.278,0.359-0.261,0.526c0.09,0.83-0.484,1.266-0.966,1.768c-0.237,0.248-0.448,0.514-0.646,0.802
		c-0.205,0.299-0.385,0.654-0.774,0.882c-0.461,0.269-0.893,0.689-1.029,1.375c0.282,0.427,0.127,1.032,0.161,1.572
		c-0.323,0.435-0.528,0.853-0.413,1.347c0.147,0.147,0.275,0.274,0.427,0.427c-0.119,0.408,0.207,0.907-0.231,1.285
		c0.095,0.551-0.16,1.118,0.142,1.671c0.164,0.299,0.111,0.663-0.01,1.012c-0.219,0.631-0.186,0.88,0.088,1.482
		c-0.04,0.261-0.357,0.45-0.182,0.845c-0.117,0.093-0.265,0.195-0.396,0.314c-0.381,0.35-0.526,0.782-0.513,1.302
		c0.023,0.862,0.007,1.727,0.007,2.666C47.43,52.465,46.865,53.188,46.586,54.209z M23.112,42.907
		c0.476-0.272,0.396-0.723,0.547-1.053c0.169-0.37,0.611-0.493,0.67-0.813c-0.23-0.244-0.421-0.447-0.677-0.719
		c-0.631,0.026-1.415-0.128-2.168,0.276c-0.193-0.192-0.372-0.362-0.54-0.541c-0.401-0.428-0.869-0.659-1.479-0.609
		c-0.465,0.037-0.939,0.045-1.401-0.003c-0.469-0.05-0.972-0.127-1.278-0.537c-0.205-0.275-0.561-0.277-0.785-0.558
		c-1.162,0.194-2.42-0.308-3.663,0.404c0.345,0.363,0.626,0.661,0.8,0.844c1.173,0.325,2.177,0.61,2.964,1.429
		c0.54-0.214,1.019,0.083,1.529,0.15c0.505,0.067,1.034-0.086,1.663,0.12c-0.362,0.388-0.512,0.797-1.052,0.766
		c-0.124-0.007-0.261,0.194-0.381,0.291c0.19,0.201,0.364,0.383,0.529,0.557c0.124,0,0.254-0.04,0.335,0.007
		c0.595,0.337,1.162,0.238,1.774,0.013c0.337-0.125,0.731-0.453,1.08-0.219C22.123,43.078,22.665,42.819,23.112,42.907z
		 M30.832,27.386c1.076-0.043,1.115-1.003,1.628-1.499c0.668-0.44,1.532-0.377,2.24-0.778c0-0.227,0-0.441,0-0.476
		c-0.24-0.332-0.405-0.56-0.538-0.744c-0.79,0.041-1.26,0.499-1.586,1.015c-0.15,0.238-0.322,0.447-0.502,0.645
		c-0.409,0.448-0.853,0.864-1.242,1.254C30.832,27.005,30.832,27.144,30.832,27.386z M25.524,41.184
		c-0.177,0.177-0.354,0.354-0.418,0.418c0.141,0.25,0.281,0.497,0.357,0.633c0.353,0,0.56,0,0.749,0
		c0.329-0.525,0.379-0.856,0.172-1.051C26.097,41.184,25.811,41.184,25.524,41.184z"/>
	<path fill="currentColor" d="M61.469,31.466c0,0.167,0,0.263,0,0.385
		c-0.109,0.021-0.206,0.04-0.318,0.061C60.984,31.625,60.987,31.447,61.469,31.466z"/>
	<path style="fill-rule:evenodd;clip-rule:evenodd;fill:none;" d="M23.112,42.907c-0.447-0.088-0.989,0.171-1.532-0.195
		c-0.349-0.234-0.742,0.094-1.08,0.219c-0.612,0.226-1.18,0.324-1.774-0.013c-0.082-0.047-0.212-0.007-0.335-0.007
		c-0.165-0.174-0.338-0.355-0.529-0.557c0.121-0.097,0.257-0.298,0.381-0.291c0.54,0.031,0.689-0.378,1.052-0.766
		c-0.628-0.206-1.158-0.053-1.663-0.12c-0.51-0.067-0.989-0.364-1.529-0.15c-0.787-0.818-1.791-1.104-2.964-1.429
		c-0.174-0.183-0.456-0.48-0.8-0.844c1.242-0.712,2.501-0.21,3.663-0.404c0.224,0.28,0.58,0.282,0.785,0.558
		c0.306,0.41,0.81,0.487,1.278,0.537c0.462,0.048,0.937,0.04,1.401,0.003c0.609-0.05,1.077,0.182,1.479,0.609
		c0.167,0.179,0.346,0.349,0.54,0.541c0.753-0.404,1.537-0.25,2.168-0.276c0.256,0.271,0.447,0.475,0.677,0.719
		c-0.059,0.32-0.5,0.443-0.67,0.813C23.508,42.185,23.588,42.635,23.112,42.907z M21.36,40.671c-0.356,0.219-0.547,0.58-0.906,0.594
		c-0.029,0.352,0.208,0.424,0.337,0.558c0.223,0,0.436,0,0.642,0c0.097-0.155,0.311-0.209,0.312-0.511
		C21.5,41.262,21.592,40.96,21.36,40.671z"/>
	<path style="fill-rule:evenodd;clip-rule:evenodd;fill:none;" d="M30.832,27.386c0-0.242,0-0.381,0-0.583
		c0.39-0.39,0.833-0.806,1.242-1.254c0.18-0.197,0.352-0.407,0.502-0.645c0.326-0.516,0.796-0.974,1.586-1.015
		c0.133,0.184,0.298,0.413,0.538,0.744c0,0.034,0,0.249,0,0.476c-0.708,0.401-1.572,0.338-2.24,0.778
		C31.947,26.383,31.908,27.343,30.832,27.386z"/>
	<path style="fill-rule:evenodd;clip-rule:evenodd;fill:none;" d="M25.524,41.184c0.287,0,0.573,0,0.86,0
		c0.207,0.194,0.157,0.525-0.172,1.051c-0.188,0-0.396,0-0.749,0c-0.077-0.136-0.217-0.383-0.357-0.633
		C25.169,41.538,25.347,41.36,25.524,41.184z"/>
	<path fill="currentColor" d="M21.36,40.671c0.231,0.289,0.14,0.591,0.385,0.641
		c-0.001,0.302-0.215,0.355-0.312,0.511c-0.206,0-0.418,0-0.642,0c-0.129-0.134-0.367-0.206-0.337-0.558
		C20.813,41.251,21.004,40.89,21.36,40.671z"/>
</g>
</svg>
