<svg xmlns="http://www.w3.org/2000/svg" xml:space="preserve" width="72px" height="72px" viewBox="0 0 72 72">
    <g fill="currentColor">
        <path d="M46.586 54.209c.422.458.111 1.021.238 1.548-.493.357-.734.913-1.155 1.422l.885.953c-.742.884-.384 1.794.131 2.738-.48.326-.672.812-.846 1.275-.314.833-.903 1.504-1.502 2.053-.75.688-1.702 1.242-2.817 1.192-.229-.268-.556-.294-.813-.46-.443.037-.753.293-1.068.573-.357.318-.817.353-1.274.3-.405-.047-.859.167-1.209-.216-.791.26-1.563.753-2.43.224-.052-.032-.143-.013-.213-.003-1.136.148-2.248-.149-3.362-.255-1.257-.118-2.595-.154-3.675-1.034H26.18c-.204-.345-.581-.563-.907-.629-1.005-.203-1.733-.88-2.566-1.368-.199-.116-.477-.313-.613-.324-.696-.06-1.119-.502-1.535-.928-.649.013-1.119-.1-1.458-.756-.258-.5-.764-.918-1.328-1.16-.889-.381-1.682-.843-2.193-1.734-.242-.421-.688-.729-1.051-1.078-.462-.446-.646-1.02-.822-1.687-.303-.49-1.023-.649-1.357-1.176-.31-.487-.521-1.036-.882-1.299-.283-.733-.338-1.378-.807-1.888-.428-.466-.42-1.072-.335-1.669l.926-.927c.324.085.559-.194.892-.256.681-1.261 1.634-2.376 2.475-3.686v-1.193l-.602-.309c-.549-.102-1.048-.417-1.51-.883-.492-.497-.924-1.058-1.575-1.396-.37-.192-.528-.614-.639-1.033-.443-.146-.709-.526-1.046-.844-.129-.597.072-1.135.553-1.449.78-.508 1.412-1.272 2.487-1.311.563-.02.905-.608 1.304-.995 1.246-.283 2.404-.816 3.518-1.402.565-.297.919-.958 1.529-1.269.475-.242.886-.635 1.518-.626.554-.563 1.159-1.128 1.706-1.746.763-.86 1.482-1.758 2.22-2.64-.001-.501.449-.631.758-.726.608-.186.998-.606 1.417-1.017.349-.341.792-.607 1.103-.943.556-.604 1.228-1.044 1.813-1.586.904-.837 1.907-1.392 3.063-1.764.171-.055.536-.022.567-.354 1.151.008 2.181-.564 3.323-.444.337-.46.617-.945 1.176-1.245.439-.235.769-.692 1.015-1.177a6.8 6.8 0 0 1 1.362-1.807v-.327c.294-.324.499-.758.782-.816.438-.09.267-.514.568-.679.38-.208.651-.598.814-1.046.158-.435.508-.693.927-.921.726-.395 1.443-.827 1.959-1.492.569-.008 1.136-.089 1.64.319.04 1.183-1.049 1.43-1.852 2.087.377.115.553.432 1.061.384.668-.463.965-1.429 1.89-1.941.816-.054.833.828 1.236 1.382 1.009.399 2.026.868 2.829 1.739v1.445c.232.293.342.617.569.888.226.27.346.642.326 1.049-.036.753-.011 1.509-.011 2.25-.693 1.107-.862 1.201-2.08 1.165l-.525-.526c-.51-.85-.332-1.604-.445-2.317-.068-.424-.051-.98-.569-1.233-.228-.038-.294.172-.45.285-.051.845-.23 1.648-.804 2.351-.263.322-.438.769-.504 1.183-.074.474-.336.796-.561 1.18-.443.757-.882 1.556-.751 2.489.112.805.142 1.63.455 2.379.162.104.385.036.467.242.326-.268.717-.188 1.079-.165.6.039 1.102-.136 1.481-.592.169-.202.402-.254.605-.374.234-.138.196-.437.395-.639-.321-.719-.768-1.419-.836-2.275-.024-.309-.272-.6-.413-.888.008-.224.166-.182.3-.216.092-.023.162-.131.234-.194.427.358 1.013.314 1.484.584.49.28.699.811 1.13 1.131 1.304-.203 2.562-.61 3.839-.914l.464.515c.4.875.239 1.761.459 2.6.216.822.104 1.653-.179 2.499-.459.33-.766.847-1.118 1.325-.427.578-1.072.901-1.6 1.363-.512.449-.771 1.089-1.281 1.533-.14.122-.278.359-.261.526.09.83-.484 1.266-.966 1.768a6.4 6.4 0 0 0-.646.802c-.205.299-.385.654-.774.882-.461.269-.893.689-1.029 1.375.282.427.127 1.032.161 1.572-.323.435-.528.853-.413 1.347l.427.427c-.119.408.207.907-.231 1.285.095.551-.16 1.118.142 1.671.164.299.111.663-.01 1.012-.219.631-.186.88.088 1.482-.04.261-.357.45-.182.845-.117.093-.265.195-.396.314-.381.35-.526.782-.513 1.302.023.862.007 1.727.007 2.666-.667.582-1.232 1.305-1.511 2.326M23.112 42.907c.476-.272.396-.723.547-1.053.169-.37.611-.493.67-.813l-.677-.719c-.631.026-1.415-.128-2.168.276-.193-.192-.372-.362-.54-.541-.401-.428-.869-.659-1.479-.609a7.7 7.7 0 0 1-1.401-.003c-.469-.05-.972-.127-1.278-.537-.205-.275-.561-.277-.785-.558-1.162.194-2.42-.308-3.663.404l.8.844c1.173.325 2.177.61 2.964 1.429.54-.214 1.019.083 1.529.15.505.067 1.034-.086 1.663.12-.362.388-.512.797-1.052.766-.124-.007-.261.194-.381.291l.529.557c.124 0 .254-.04.335.007.595.337 1.162.238 1.774.013.337-.125.731-.453 1.08-.219.544.366 1.086.107 1.533.195m7.72-15.521c1.076-.043 1.115-1.003 1.628-1.499.668-.44 1.532-.377 2.24-.778v-.476l-.538-.744c-.79.041-1.26.499-1.586 1.015-.15.238-.322.447-.502.645-.409.448-.853.864-1.242 1.254zm-5.308 13.798-.418.418.357.633h.749c.329-.525.379-.856.172-1.051zm35.945-9.718v.385l-.318.061c-.167-.287-.164-.465.318-.446"/>
        <path d="M21.36 40.671c.231.289.14.591.385.641-.001.302-.215.355-.312.511h-.642c-.129-.134-.367-.206-.337-.558.359-.014.55-.375.906-.594"/>
    </g>
</svg>
