<?xml version="1.0" encoding="iso-8859-1"?>
<!-- Generator: Adobe Illustrator 16.0.0, SVG Export Plug-In . SVG Version: 6.00 Build 0)  -->
<!DOCTYPE svg PUBLIC "-//W3C//DTD SVG 1.1//EN" "http://www.w3.org/Graphics/SVG/1.1/DTD/svg11.dtd">
<svg version="1.1" id="Layer_1" xmlns="http://www.w3.org/2000/svg" xmlns:xlink="http://www.w3.org/1999/xlink" x="0px" y="0px"
	 width="72.36px" height="72.18px" viewBox="0 0 72.36 72.18" style="enable-background:new 0 0 72.36 72.18;" xml:space="preserve"
	>
<g>
	
	<path fill="currentColor" d="M35.69,56.552c-0.414-0.147-0.808,0.004-1.087,0.215
		c-0.308,0.233-0.639,0.269-0.884,0.144c-0.772-0.396-1.496-0.398-2.353-0.224c-0.702,0.143-1.246,0.359-1.715,0.903
		c-0.669,0-1.348,0.045-1.882,0.568c0.105,0.245,0.197,0.459,0.291,0.677c0.353,0.085,0.647,0.424,1.207,0.194
		c0.285-0.273,0.747-0.757,1.308-0.534c0.563,0.223,1.102,0.131,1.66,0.194c0.79,0.501,0.919,0.63,1.371,1.388
		c0,0.321,0,0.676,0,1.073c-0.282,0.606-1.033,0.521-1.4,0.807c-0.525,0.431-0.383,1.066-0.837,1.457c-0.412,0-0.87,0-1.328,0
		c-0.455,0.188-0.73,0.565-1.074,0.894c-0.598-0.105-1.257,0.186-1.835-0.229c-0.557,0.272-1.124,0.506-1.813,0.414
		c-0.602-0.231-1.003-0.783-1.544-1.295c-1.002,0.298-1.835-0.411-2.889-0.733c-0.076-0.076-0.254-0.255-0.435-0.436
		c0-0.429,0-0.86,0-1.262c-0.292-0.393-0.335-0.999-1.006-0.864c-0.12-0.523-0.061-0.942-0.279-1.317
		c-0.22-0.377,0.361-0.68,0.2-1.094c0.179-0.177,0.359-0.354,0.533-0.524c0.733-0.024,1.424-0.413,2.145-0.213
		c0.266-0.282,0.676-0.304,0.859-0.674c0.672,0,1.346,0,1.911,0c0.541-0.25,0.319-0.671,0.414-0.996
		c0.604-0.574,1.108-1.226,1.54-1.946c0.198-0.33,0.5-0.663,0.835-0.83c0.881-0.439,0.949-1.248,1.043-2.045
		c0.055-0.462,0.01-0.935,0.01-1.419c0.176-0.163,0.361-0.333,0.54-0.498c1.09-0.242,2.145,0.303,3.232,0.171
		c0.372,0.406,0.838,0.475,1.342,0.443c0.623-0.038,1.236,0.033,1.863-0.193c0.62-0.224,1.138-0.524,1.428-1.092
		c0.141-0.273,0.391-0.402,0.542-0.649c0.281,0,0.566,0,0.885,0c0.632,0.557,0.971,1.352,1.435,2.062
		c0.101,0.153,0.243,0.285,0.175,0.464c-0.124,0.328,0.118,0.581,0.249,0.759c0.223,0.304,0.494,0.612,0.594,0.946
		c0.118,0.395,0.028,0.852,0.028,1.232c-0.48,0.699-1.322,0.771-1.879,1.251c-0.118,0.256-0.061,0.502-0.048,0.761
		c0.485,0.406,1.189,0.609,1.332,1.346c0.801,0.103,1.672-0.215,2.3,0.555c0.16,0.421-0.063,0.809-0.27,1.138
		c-0.224,0.354-0.647,0.44-1.076,0.512c-0.438,0.072-0.854,0.275-1.322,0.177c-0.178,0.192-0.348,0.376-0.542,0.585
		c0,0.245,0,0.531,0,0.836c0.134,0.14,0.28,0.294,0.419,0.44c0,0.368,0,0.727,0,1.077c-0.438,0.506-1.006,0.591-1.628,0.527
		c-0.921-0.537-1.386-1.364-1.374-2.421c0.005-0.379-0.164-0.663-0.296-0.965C36.332,57.729,36.014,57.178,35.69,56.552z
		 M33.714,54.355c0.848-0.644,1.151-1.563,1.423-2.536c-0.8,0.214-1.59,0.315-2.263,0.777c-0.323,0.448-0.402,0.939-0.3,1.468
		C32.869,54.542,33.338,54.31,33.714,54.355z M25.172,57.162c0.218,0.313,0.26,0.686,0.583,0.867c0.284,0,0.568,0,0.854,0
		c0.114-0.165,0.371-0.239,0.311-0.554c-0.233-0.211-0.496-0.448-0.804-0.727C25.81,56.715,25.416,56.643,25.172,57.162z"/>
	<path fill="currentColor" d="M25.107,28.872c0.237,0.342,0.604,0.467,0.932,0.647
		c0.326,0.178,0.742,0.248,0.935,0.597c0.435,0.789,1.25,1.084,1.918,1.578c0.476,0.352,0.928,0.744,1.338,1.196
		c0.464,0.511,0.863,1.115,1.559,1.414c0.29,0.125,0.419,0.572,0.643,0.781c1.087,1.015,1.675,2.45,2.895,3.319
		c-0.041,0.357,0.151,0.614,0.259,0.909c-0.099,0.107-0.194,0.21-0.359,0.388c-1.835-0.105-3.378-0.816-4.368-2.491
		c-0.199-0.337-0.353-0.628-0.742-0.794c-0.271-0.116-0.479-0.357-0.609-0.676c-0.265-0.655-0.722-1.163-1.5-1.463
		c-0.243,0-0.601,0-0.964,0c-0.387,0.425-0.216,1.176-0.983,1.499c-1.095-0.161-2.289,0.371-3.529,0.225
		c-1.135,0.427-2.315,0.127-3.472,0.216c-1.207-0.459-2.462-0.079-3.658-0.241c-0.488-0.249-0.963-0.491-1.438-0.734
		c0.375-0.66,0.863-0.877,2.396-1.062c-0.087-0.555-0.554-0.639-0.956-0.761c-0.224-0.068-0.442-0.059-0.682-0.188
		c-0.528-0.287-1.091-0.589-1.745-0.469c-0.371-0.349-0.985-0.011-1.317-0.469c-0.157-0.229-0.006-0.486-0.11-0.758
		c0.66-0.331,1.266-0.747,2.026-0.349c0.237,0.124,0.487,0.038,0.729,0.063c0.761,0.082,1.538-0.161,2.294,0.196
		c0.255,0.121,0.66,0.1,0.792-0.342c-0.271-0.358-0.759-0.419-1.159-0.473c-0.69-0.092-1.305-0.282-1.911-0.623
		c-0.461-0.26-0.977-0.439-1.523-0.488c-0.451-0.04-0.847-0.296-1.171-0.54c-0.629-0.473-1.353-0.759-2.012-1.164
		c-0.696-0.428-1.296-0.897-1.688-1.696c0-0.356,0-0.785,0-1.266c0.156-0.134,0.346-0.296,0.599-0.514
		c0.867-0.06,1.701,0.185,2.487,0.789c0.518,0.398,1.186,0.602,1.803,0.9c0.121-0.117,0.114-0.271-0.053-0.408
		c-0.374-0.309-0.615-0.766-1.125-0.932c-0.183-0.059-0.373-0.264-0.451-0.448c-0.198-0.47-0.517-0.797-0.893-1.137
		c-0.328-0.295-0.473-0.795-0.672-1.158c0.072-0.594,0.413-0.938,0.78-1.278c0.97-0.052,1.784,0.27,2.504,0.963
		c0.462,0.444,1.05,0.759,1.638,1.172c0.167,0,0.408,0,0.641,0c0.137-0.177,0.13-0.408,0.055-0.52
		c-0.343-0.508-0.583-1.091-1.057-1.506c0-0.218,0-0.434,0-0.658c0.175-0.17,0.354-0.346,0.552-0.538
		c0.246-0.143,0.311,0.21,0.531,0.229c0.326,0.028,0.195,0.524,0.491,0.581c0.308,0.059,0.521,0.247,0.663,0.473
		c0.408,0.653,0.779,1.329,1.15,2.004c0.151,0.274,0.121,0.541-0.219,0.745c0.343,0.501,0.494,1.059,0.924,1.487
		c0.478,0.475,1.031,0.768,1.657,0.964c0.29,0.09,0.602,0.159,0.803,0.402c0.538,0.651,1.3,1.086,1.702,1.882
		c0.183,0.364,0.612,0.533,1.063,0.525C24.005,28.864,24.509,28.872,25.107,28.872z M21.019,33.637
		c-0.452-0.081-0.693,0.218-1.004,0.32c0.004,0.079,0.009,0.149,0.017,0.284c0.661,0.123,1.395-0.152,2.006,0.265
		c0.098-0.091,0.178-0.227,0.254-0.225c0.805,0.021,1.463-0.516,2.257-0.572c0.304-0.021,0.576-0.131,0.881,0.027
		c0.419,0.218,0.804,0.182,1.104-0.335c-0.263-0.274-0.323-0.704-0.682-0.969c-0.838-0.618-1.172-1.574-1.602-2.463
		c-0.26,0.094-0.338-0.231-0.646-0.235c-0.137,0.335-0.481,0.209-0.789,0.216c-0.323,0.007-0.646,0.001-0.95,0.001
		c-0.347-0.331-0.952-0.37-1.006-0.984c-0.01-0.112-0.217-0.051-0.269-0.104c-0.502-0.505-1.188-0.62-1.812-0.846
		c-0.721-0.261-1.496-0.384-2.201-0.68c-0.447-0.187-0.847-0.207-1.491-0.151c1.553,1.097,2.975,2.046,4.472,2.876
		c0.173,0.654-0.255,1.41,0.282,2.024c0.664,0.093,1.366-0.156,1.903,0.384C21.855,33.064,21.269,33.209,21.019,33.637z
		 M17.291,34.497c0.152-0.078,0.368,0.08,0.57-0.123c-0.197-0.157-0.286-0.396-0.558-0.307
		C17.187,34.167,17.177,34.288,17.291,34.497z M17.134,23.199c-0.404,0.21-0.503-0.079-0.728-0.119
		c-0.096,0.124-0.101,0.244,0.012,0.362C16.617,23.457,16.825,23.56,17.134,23.199z"/>
	<path fill="currentColor" d="M48.949,22.511c-0.031-2.018,0.113-2.059,1.271-2.567
		c0.037-0.781,0.194-1.321,0.548-1.851c0.228,0,0.469,0,0.704,0c0.382,0.832,0.535,1.736,1.004,2.528
		c0.513-0.438,0.338-1.036,0.377-1.581c0.498-0.45,0.479-1.121,0.604-1.686s0.587-0.888,0.726-1.441
		c0.118-0.474,0.173-0.987,0.417-1.442c0.208-0.388,0.545-0.686,0.706-1.11c0.099-0.258,0.376-0.294,0.643-0.254
		c0.432,0.489,0.432,1,0.15,1.581c-0.194,0.399-0.323,0.843-0.191,1.363c0.132,0.198,0.346,0.359,0.734,0.276
		c0.457-0.353,0.568-1.026,1.043-1.472c0.186,0,0.396,0,0.652,0c0.35,0.173,0.521,0.56,0.743,0.992
		c0.234,1.154-0.191,2.313-0.498,3.466c-0.096,0.358-0.038,0.692-0.13,1.016c0.295,0.257,0.482,0.676,0.974,0.549
		c0.111,0.207,0.222,0.411,0.348,0.646c-0.331,0.487-0.369,1.144-0.702,1.62c-0.334,0.478-0.808,0.867-1.091,1.394
		c-0.24,0-0.452,0-0.684,0c-0.177-0.13-0.39-0.264-0.374-0.56c-0.228-0.153-0.6-0.159-0.704-0.054c-0.5,0.5-1.188,0.652-1.804,1.063
		c-0.444-0.062-0.992,0.169-1.476-0.21c-0.124-0.272-0.247-0.545-0.382-0.841c-0.478-0.114-1.041,0.14-1.474-0.294
		c-0.137,0.124-0.239,0.217-0.368,0.333c0,0.476,0,0.973,0,1.549c0.399,0.476,0.502,1.099,0.36,1.771
		c-0.411,0.57-1.191,0.015-1.653,0.664c0,0.618,0,1.364,0,2.183c-0.579,0.011-1.125,0.084-1.521,0.546c0,0.233,0,0.474,0,0.653
		c0.219,0.433,0.567,0.332,0.927,0.341c0.362-0.324,0.765-0.654,0.933-1.196c1.802-0.376,2.318-1.958,3.243-3.314
		c0.215-0.107,0.544-0.271,0.903-0.451c0.175,0.075,0.39,0.167,0.636,0.273c0,0.293,0,0.607,0,0.934
		c-0.69,1.037-1.413,2.081-1.258,3.413c-0.346,0.348-0.385,0.822-0.698,1.162c-0.482,0.523-1.067,0.847-1.7,1.126
		c-0.377,0.167-0.72,0.377-1.014,0.69c-0.641,0.681-1.316,1.33-1.979,1.991c-0.102,0.102-0.249,0.185-0.298,0.308
		c-0.333,0.827-0.997,0.965-1.789,0.876c-0.087-0.087-0.188-0.188-0.291-0.29c-0.02-0.657-0.109-1.314,0.342-1.902
		c0.18-0.234,0.188-0.611,0.605-0.596c0.539-0.581,1.259-1.025,1.425-1.883c0.023-0.229-0.149-0.342-0.284-0.428
		c-0.216-0.139-0.532-0.146-0.707-0.027c-0.373,0.253-0.862,0.202-1.332,0.646c-0.205,0.207-0.177,0.786-0.694,1.081
		c-0.48-0.262-0.781-0.771-1.278-1.16c-0.399,0-0.857,0-1.391,0c0.251-0.607,0.681-0.947,1.143-1.248
		c0.294-0.191,0.506-0.393,0.669-0.741c0.341-0.727,0.729-1.403,0.921-2.217c0.249-1.061,0.796-1.8,1.646-2.551
		c-0.041-0.526,0.396-0.98,0.198-1.494C47.523,23.937,48.236,23.224,48.949,22.511z M52.6,20.715
		c0.083,1.128-0.061,2.057,0.105,2.982c0.706-0.076,0.862-0.666,1.209-1.005c0-0.304,0-0.585,0-0.945
		C53.463,21.571,53.074,21.256,52.6,20.715z"/>
	<path fill="currentColor" d="M19.832,40.016c0.078,0.051,0.024-0.013-0.036-0.02
		c-0.912-0.104-1.764-0.542-2.689-0.528c-0.478,0.007-0.854-0.156-1.252-0.379c-0.538-0.302-1.078-0.585-1.459-1.06
		c-0.003-0.384,0.39-0.431,0.461-0.702c0.569,0,1.2-0.181,1.601,0.046c0.503,0.284,1.07-0.126,1.502,0.319
		c0.106,0.109,0.41,0.034,0.623,0.034c1.33,0.002,2.661-0.021,3.991,0.01c0.704,0.017,1.363-0.138,2.006-0.375
		c0.25-0.093,0.486-0.054,0.728-0.062c0.503-0.015,1.006-0.004,1.465-0.004c0.441,0.214,0.377,0.588,0.366,0.946
		c-0.602,0.636-0.602,0.636-0.842,1.391c0.466,0,0.924,0,1.418,0c0.25-0.221,0.565-0.415,1.06-0.389
		c0.387,0.443,0.97,0.807,1.171,1.478c0.111,0.368,0.474,0.51,0.646,0.801c0,0.294,0,0.579,0,0.859
		c-0.354,0.298-0.28,0.81-0.55,1.21c0.53-0.246,1.097-0.437,1.579-0.757c0.437-0.29,0.881-0.429,1.365-0.345
		c0.716,0.123,1.352-0.386,2.034-0.188c0.71,0.209,1,0.701,0.98,1.4c-0.003,0.108,0.002,0.208,0.101,0.282
		c0.402,0.303,0.454,0.831,0.741,1.195c-0.226,0.354-0.59,0.65-0.964,0.729c-0.833,0.174-1.198,1.19-2.142,1.106
		c-0.429-0.393-0.613-0.89-0.546-1.385c-0.253-0.347-0.58-0.394-0.838-0.563c-0.248,0.093-0.459,0.332-0.782,0.212
		c-0.992,1.075-2.044,2.065-3.565,2.186c-0.63-0.23-0.527-0.91-0.946-1.292c-0.419,0-0.877,0-1.297,0
		c-0.139-0.14-0.241-0.241-0.344-0.344c0-0.215,0-0.43,0-0.684c0.565-0.303,1.11-0.659,1.08-1.408
		c0.334-0.679,1.143-0.819,1.496-1.374c0.069-0.337-0.046-0.54-0.274-0.706c-0.197,0.082-0.41,0.145-0.627,0.198
		c-0.219,0.055-0.407,0.221-0.672,0.196c-1.016-0.094-1.994,0.096-2.934,0.463c-0.241-0.238-0.457-0.452-0.681-0.674
		c0.204-0.473,0.609-0.592,1.051-0.734c1.047-0.339,1.039-0.366,1.777-1.14c-0.007-0.068,0.008-0.152-0.026-0.203
		c-0.058-0.089-0.147-0.156-0.264-0.272C23.563,39.25,21.841,39.88,19.832,40.016z"/>
	<path fill="currentColor" d="M51.81,44.801c-0.532,1.393-1.764,1.562-2.955,1.826
		c-0.396-0.521-0.563-1.063-0.547-1.618c-0.324-0.588-0.959-0.662-1.499-1.05c0.05,0.833-0.44,1.2-1.069,1.573
		c-0.524,0.312-1.151,0.396-1.669,0.84c-0.621-0.106-1.235,0.13-1.797,0.442c-0.474,0.262-0.944,0.184-1.399,0.192
		c-0.561-0.372-1.163-0.647-1.618-1.167c0-0.191,0-0.403,0-0.704c0.19-0.154,0.44-0.355,0.628-0.507c0-0.466,0-0.825,0-1.152
		c-0.415-0.645-0.833-1.255-1.139-2.005c-0.539-0.366-1.266-0.516-1.949-0.849c0.33-0.75,1.037-0.55,1.537-0.707
		c0.568-0.179,1.07,0.165,1.429,0.618c0.597,0,1.172,0,1.769,0c0.368-0.567,1.103-0.73,1.457-1.277
		c0.654-0.095,1.294,0.129,1.901-0.214c0.163-0.092,0.443-0.049,0.688,0.131c0.369,0.271,0.839,0.402,1.239,0.639
		c0.18,0.106,0.344,0.035,0.261,0.014c0.405,0.299,0.632,0.467,0.838,0.619c-0.131,0.281-0.229,0.493-0.336,0.724
		c-0.865,0.09-1.699-0.098-2.457-0.506c-0.291-0.157-0.546-0.066-0.811-0.126c-0.181,1.15,0.015,1.562,1.001,2.072
		c0.354,0.185,0.72,0.348,1.094,0.527c0.517-0.242,0.454-0.896,0.9-1.264c0.476,0,1.006,0,1.516,0
		c0.125-0.138,0.222-0.244,0.369-0.406c-0.158-0.315-0.364-0.688-0.14-1.165c1.03,0.179,1.896,0.614,2.506,1.527
		c0.327,0.491,0.347,1.1,0.165,1.515C51.479,43.902,51.622,44.323,51.81,44.801z"/>
	<path fill="currentColor" d="M60.952,51.335c-0.342-0.361-0.854-0.368-1.308-0.586
		c-0.429,0.102-0.889,0.309-1.265,0.602c-0.457,0.355-0.868,0.237-1.223-0.028c-0.517-0.388-1.112-0.691-1.52-1.215
		c0.252-0.74,0.915-0.783,1.492-0.919c0.306-0.072,0.645-0.037,0.965-0.009c0.878,0.079,1.453-0.381,1.865-1.07
		c0.091-0.152,0.21-0.268,0.299-0.408c2.049-0.266,3.361,1.014,3.173,3.314c-0.176,0.169-0.356,0.343-0.551,0.528
		c-0.328,0.037-0.637-0.05-0.97-0.186C61.634,51.245,61.274,51.335,60.952,51.335z"/>
	<path fill="currentColor" d="M53.998,44.755c-0.398-0.459-0.259-0.965-0.296-1.549
		c0.184-0.115,0.425-0.267,0.666-0.418c0.164-0.2,0.249,0.092,0.462,0.141c0.848,0.194,1.702,0.358,2.405,0.979
		c0.269,0.238,0.773,0.188,1.145,0.336c0.431,0.172,0.829,0.426,1.242,0.638c0.36,0.186,0.604,0.6,0.968,0.987
		c0,0.272,0,0.658,0,1.065c-0.152,0.106-0.243,0.286-0.175,0.581c-0.808-0.271-1.546-0.345-2.165-0.808
		c-0.325-0.243-0.703-0.445-1.19-0.317c-0.244,0.429-0.4,0.973-0.895,1.272c-0.308-0.02-0.655,0.1-0.869-0.252
		c-0.142-0.228-0.044-0.48-0.07-0.722c0.389-0.61,0.389-0.61,0.932-0.963C55.531,45.142,54.611,45.305,53.998,44.755z"/>
	<path fill="currentColor" d="M43.985,47.144c0.429-0.271,0.799-0.506,1.186-0.75
		c0.54-0.1,1.066,0.093,1.608,0.161c0.548,0.068,1.102,0.073,1.665,0.299c0.346,0.609,0.756,1.247,1.362,1.751
		c0,0.352,0,0.707,0,1.09c-0.207,0.341-0.554,0.562-1.118,0.781c-0.685,0.088-1.365-0.169-1.76-1.05
		c-0.261-0.145-0.622-0.171-0.871-0.453c-0.271,0-0.556,0-0.873,0C44.709,48.434,44.01,48.039,43.985,47.144z"/>
	<path fill="currentColor" d="M52.376,47.026c0.465,0,0.749,0,0.785,0
		c0.733,0.178,1.021,0.591,1.375,0.918c0.063,0.712,0.305,1.368,0.699,1.885c-0.251,0.639-0.902,0.841-1.406,0.815
		c-0.887-0.045-1.563,0.42-2.453,0.606c-0.313-0.092-0.652-0.342-0.904-0.712c0-0.18,0-0.358,0-0.612
		C51.415,49.212,51.848,48.075,52.376,47.026z"/>
	<path fill="currentColor" d="M43.133,55.622c-0.333-0.771-0.964-1.197-1.479-1.775
		c-0.101-0.204,0.062-0.548-0.257-0.709c0.151-0.472,0.376-0.885,0.806-1.154c0.591,0.11,0.938,0.562,1.361,0.976
		c-0.045,0.573,0.006,1.152,0.533,1.609c0.509,0.043,1.09-0.108,1.57,0.286c0.025,0.231,0.195,0.413,0.316,0.595
		c-0.227,0.717-0.663,1.31-0.693,1.83c-0.249,0.351-0.413,0.581-0.545,0.767c-0.693-0.041-1.039-0.378-1.335-0.894
		C43.111,56.628,43.119,56.097,43.133,55.622z"/>
	<path fill="currentColor" d="M42.962,38.804c-0.481-1.177-1.557-1.505-2.684-1.816
		c0.121-0.756,0.816-1.277,0.688-2.064c0.244,0,0.387,0,0.552,0c0.183,0.194,0.379,0.401,0.522,0.554
		c0.334,0.206,0.649,0.017,0.961,0.235c0.252,0.176,0.494,0.36,0.75,0.583c0,0.505,0,1.032,0,1.469
		C43.563,38.215,43.363,38.568,42.962,38.804z"/>
	<path fill="currentColor" d="M44.641,48.527c-0.103,0.354,0.189,0.498,0.402,0.73c0,0.278,0,0.59,0,0.933
		c-0.72,0.744-1.853,0.4-2.69,0.91c-0.089-0.09-0.19-0.19-0.286-0.286c-0.192-0.412,0.362-0.681,0.196-1.08
		c0.369-0.526,1.051-0.681,1.386-1.207C44,48.527,44.32,48.527,44.641,48.527z"/>
	<path fill="currentColor" d="M27.252,17.206c-0.101-0.07-0.101-0.142,0-0.212
		C27.353,17.063,27.353,17.136,27.252,17.206z"/>
	
	
	
	
	
	
</g>
</svg>
