<?xml version="1.0" encoding="iso-8859-1"?>
<!-- Generator: Adobe Illustrator 16.0.0, SVG Export Plug-In . SVG Version: 6.00 Build 0)  -->
<!DOCTYPE svg PUBLIC "-//W3C//DTD SVG 1.1//EN" "http://www.w3.org/Graphics/SVG/1.1/DTD/svg11.dtd">
<svg version="1.1" id="Layer_1" xmlns="http://www.w3.org/2000/svg" xmlns:xlink="http://www.w3.org/1999/xlink" x="0px" y="0px"
	 width="72.36px" height="72.18px" viewBox="0 0 72.36 72.18" style="enable-background:new 0 0 72.36 72.18;" xml:space="preserve"
	>
<g>
	<path style="fill-rule:evenodd;clip-rule:evenodd;fill:none;" d="M-6.984,79.631c0-28.871,0-57.743,0-86.615
		c28.8,0,57.6,0,86.399,0c0,28.872,0,57.744,0,86.615C50.616,79.631,21.816,79.631-6.984,79.631z M18.533,44.775
		c0.104,0.105,0.175,0.241,0.258,0.248c0.652,0.058,1.264,0.331,1.945,0.278c0.822-0.062,1.655,0.022,2.48-0.022
		c1.491-0.081,2.964,0.117,4.441,0.238c0.353,0.028,0.742,0.159,1.025,0.365c0.375,0.273,0.725,0.488,1.207,0.498
		c0.218,0.005,0.531,0.099,0.629,0.259c0.338,0.548,1.001,0.23,1.387,0.592c1.043,0,2.086-0.006,3.129,0.004
		c0.255,0.003,0.498-0.191,0.665-0.188c0.912,0.021,1.819-0.131,2.744,0.107c0.854,0.221,1.785,0.166,2.653,0.016
		c0.478-0.084,0.935-0.438,1.455-0.36c0.571,0.086,0.929-0.374,1.432-0.483c0.369-0.081,0.729-0.174,1.106-0.175
		c1.113-0.003,2.228-0.001,3.271-0.001c0.813-0.484,1.611-0.739,2.504-0.649c0.578,0.06,1.11-0.036,1.532-0.525
		c0-0.291,0-0.604,0-0.877c-0.311-0.4-0.685-0.738-1.126-0.729c-0.532,0.01-0.977-0.256-1.302-0.5
		c-0.406-0.306-0.845-0.484-1.278-0.578c-0.564-0.122-0.906-0.447-1.262-0.813c0-0.671,0-1.313,0-1.938
		c-0.277-0.24-0.488-0.462-0.881-0.561c-0.384-0.096-0.916-0.123-1.146-0.601c-0.703-0.118-1.323-0.73-2.132-0.283
		c-0.249,0.138-0.63,0.089-0.941,0.053c-0.37-0.044-0.625,0.313-0.991,0.228c-0.1-0.023-0.254,0.006-0.296-0.052
		c-0.192-0.264-0.458-0.137-0.693-0.165c-1.162-0.138-2.244,0.355-3.379,0.436c-0.461,0.363-1.096,0.251-1.578,0.631
		c-0.774,0.609-1.69,0.923-2.664,1.129c-0.289,0.061-0.581,0.176-0.889,0.179c-0.647,0.005-1.299,0.046-1.941-0.011
		c-0.704-0.062-1.405-0.197-2.032-0.636c-0.722,0-1.477,0.008-2.232-0.005c-0.235-0.004-0.499-0.103-0.693-0.108
		c-0.559-0.019-0.805-0.498-1.249-0.669c-0.432-0.165-0.842-0.401-1.221-0.721c-0.474-0.401-1.033-0.792-1.71-0.635
		c-0.348,0.283-0.454,0.64-0.55,0.989c0.185,0.317,0.214,0.714,0.53,0.887c0.899,0.491,1.629,1.172,2.302,1.896
		c-0.01,0.514-0.02,0.513-0.282,0.928c-0.635-0.011-1.224,0.251-1.805,0.509c-0.37,0.165-0.737,0.369-1.135,0.371
		c-0.523,0.004-0.944,0.161-1.285,0.526C18.533,44.179,18.533,44.492,18.533,44.775z M55.87,60.438
		c0.233-0.121,0.372-0.249,0.612-0.262c0.543-0.03,1.403-0.414,1.671-0.644c1.057-0.907,1.951-1.98,2.792-3.064
		c0.89-1.146,1.606-2.434,2.48-3.604c0.339-0.455,0.578-0.965,0.776-1.513c0.293-0.81,0.755-1.551,1.07-2.362
		c0.229-0.589,0.388-1.208,0.67-1.772c0.485-0.972,0.701-2.027,0.916-3.069c0.095-0.461,0.173-0.942,0.234-1.417
		c0.061-0.477-0.056-0.978,0.228-1.42c-0.162-1.172,0.322-2.301,0.225-3.473c-0.048-0.571-0.009-1.15-0.009-1.653
		c-0.211-0.432-0.409-0.801-0.782-1.046c-0.268,0-0.555,0-0.616,0c-0.461,0.088-0.58,0.318-0.786,0.457
		c-0.511,0.345-1.053,0.724-1.269,1.359c-0.445,1.315-0.438,1.317-1.363,2.242c-0.279,0.279-0.543,0.579-0.844,0.834
		c-0.313,0.263-0.655,0.671-0.995,0.683c-0.736,0.023-1.247,0.502-1.879,0.715c-0.517,0.175-0.972,0.546-1.127,1.115
		c-0.104,0.377-0.342,0.659-0.639,0.782c-0.697,0.289-0.723,0.837-0.715,1.426c0.46,0.442,0.841,0.96,1.509,1.018
		c-0.563,0.866-1.559,1.055-2.287,1.695c-0.483-0.056-0.998-0.07-1.38,0.367c-0.06,0.326,0.089,0.543,0.357,0.696
		c0.632-0.037,0.632-0.037,1.287-0.406c0.614,0,1.184,0,1.729,0c0.215,0.225,0.396,0.441,0.695,0.463
		c0.02,0.328,0.385,0.536,0.243,0.897c-0.497,0.772-1.503,0.695-2.155,1.275c-0.622,0.553-1.585,0.501-2.302,1.011
		c-0.292,0-0.625,0.049-0.938-0.011c-0.686-0.13-1.382,0.036-1.944,0.27c-0.987,0.409-1.967,0.411-2.97,0.38
		c-0.947-0.03-1.849,0.078-2.743,0.419c-0.302,0.115-0.467,0.236-0.564,0.503c0.143,0.171,0.256,0.31,0.477,0.397
		c0.822,0.328,1.648,0.603,2.543,0.639c0.278,0.012,0.604-0.129,0.83,0.066c0.542,0.469,1.179,0.354,1.797,0.358
		c1.008,0.009,2.016-0.014,3.022,0.01c0.405,0.01,0.857-0.16,1.206,0.209c0.716-0.008,1.48,0.14,2.137-0.062
		c0.856-0.262,1.651-0.078,2.588-0.13c-0.408,0.705-0.845,1.187-1.552,1.254c-0.364,0.035-0.645,0.198-0.938,0.351
		c-0.653,0.338-1.326,0.656-1.926,1.075c-0.64,0.447-1.402,0.636-2.038,1.104c-0.308,0.228-0.596,0.426-0.831,0.705
		c0.736,0.835,0.829,0.883,1.699,0.887c0.396,0.001,0.794,0.028,1.186-0.011C55.507,60.156,55.64,60.312,55.87,60.438z
		 M9.213,52.984c0.414,0.275,0.633,0.676,0.865,1.062c0.292,0.487,0.489,1.058,0.863,1.468c0.81,0.888,1.52,1.864,2.417,2.679
		c0.824,0.748,1.613,1.541,2.361,2.365c0.48,0.529,1.163,0.798,1.6,1.361c0.5-0.034,0.623,0.491,1.013,0.677
		c1.182,0.56,2.166,1.462,3.369,2.021c0.419,0.194,0.791,0.473,1.266,0.6c0.474,0.126,0.857,0.477,1.364,0.615
		c0.73,0.2,1.518,0.314,2.098,0.853c0.792-0.087,1.584,0.16,2.241-0.189c0.657,0.308,1.284,0.116,1.848,0.183
		c0.432-0.706,0.402-0.933-0.184-1.067c-0.313-0.071-0.603-0.203-0.812-0.375c-0.459-0.378-0.934-0.553-1.523-0.515
		c-0.524,0.033-1.031-0.124-1.416-0.467c-0.473-0.423-1.065-0.568-1.588-0.855c-0.517-0.284-1.06-0.125-1.584-0.354
		c-0.535-0.234-0.958-0.624-1.487-0.833c-0.309-0.122-0.697-0.128-0.938-0.323c-0.644-0.521-1.426-0.837-2-1.482
		c-0.229-0.257-0.592-0.527-1.003-0.658c-0.86-0.273-1.139-1.131-1.638-1.765c-0.235-0.298-0.28-0.618-0.167-0.972
		c0.275-0.022,0.446-0.299,0.749-0.281c0.394,0.023,0.792,0.022,1.186,0.001c0.346-0.019,0.737,0.141,1.03-0.105
		c0.417-0.352,0.693,0.145,1.057,0.118c1.221-0.088,2.469,0.195,3.684-0.306c0-0.22,0-0.461,0-0.758
		c-0.989-0.573-2.155-0.683-3.241-0.97c-1.077-0.284-2.164-0.716-3.254-0.564c-0.721-0.402-1.391-0.707-2.181-0.655
		c-0.316,0.02-0.719,0.097-0.938-0.057c-0.879-0.614-1.938-0.719-2.895-1.097c-0.578-0.229-1.211-0.482-1.794-0.341
		C9.125,52.233,9.227,52.58,9.213,52.984z M32.877,37.84c0.965,0.46,1.874-0.462,2.787,0.1c0.052,0.032,0.174,0.035,0.208-0.001
		c0.387-0.412,0.916-0.053,1.306-0.231c0.438-0.199,0.861-0.341,1.335-0.434c0.514-0.102,1.084-0.223,1.361-0.749
		c0-0.38,0-0.736,0-1.106c-0.34-0.31-0.634-0.741-1.035-0.897c-0.411-0.16-0.588-0.539-0.603-0.753
		c-0.056-0.794-0.654-1.467-0.496-2.277c0.064-0.332-0.135-0.632-0.254-0.75c-0.583-0.576-0.692-1.255-0.631-1.842
		c-0.21-0.537-0.429-0.884-0.771-1.09c-0.454,0-0.88,0-1.159,0c-0.354,0.31-0.622,0.543-0.868,0.757
		c-0.016,0.519,0.065,1.013-0.214,1.459c-0.05,0.08,0,0.248-0.059,0.293c-0.73,0.564-0.581,1.368-0.594,2.119
		c-0.37,0.383-0.853,0.689-0.984,1.217c-0.165,0.661-0.431,1.317-0.29,2.051c0.116,0.174,0.409,0.254,0.414,0.567
		c0.082,0.317-0.371,0.517-0.192,0.924C32.36,37.387,32.627,37.621,32.877,37.84z M6.668,43.764
		c1.092,0.015,1.592-0.131,2.694-0.618c0.229-0.101,0.453-0.243,0.761-0.266c0.555-0.04,1.1-0.263,1.661-0.645
		c0.626,0.265,1.27-0.194,1.967-0.192c0.74,0.002,1.386-0.272,1.933-0.709c0.091-0.609-0.14-1.054-0.511-1.434
		c-0.321-0.063-0.643,0.07-0.95-0.078c-0.479-0.231-1.064-0.176-1.484-0.579c-0.462-0.443-1.126-0.081-1.662-0.413
		c-0.468-0.289-1.022-0.508-1.556-0.637c-0.356-0.086-0.804-0.054-1.061-0.288c-0.391-0.355-0.794-0.644-1.312-0.766
		c-0.113,0.32-0.503,0.04-0.635,0.158c-0.228,0.228-0.38,0.38-0.538,0.538c0,1.25,0.042,2.507-0.015,3.76
		C5.924,42.405,6.203,43.061,6.668,43.764z M20.01,51.195c-0.833-0.323-1.529-0.779-2.332-1.034
		c-0.822-0.262-1.518-0.827-2.275-1.241c-0.728-0.398-1.572-0.628-2.183-1.25c-0.353,0-0.709,0-0.824,0
		c-0.386,0.243-0.626,0.395-0.764,0.481c-0.17,1.271,0.082,2.195,1.347,2.538c0.031,0.008,0.055,0.04,0.081,0.063
		c1.061,0.912,2.405,0.991,3.688,1.213c0.451,0.078,0.887,0.089,1.214,0.45c0.36,0,0.719,0,1.076,0
		c0.268-0.276,0.657-0.329,0.972-0.531C20.01,51.674,20.01,51.46,20.01,51.195z M51.84,20.441c-0.386,1.004-1.173,1.613-1.802,2.279
		c0.006,0.377,0.027,0.659,0.195,0.959c0.154,0.276,0.375,0.346,0.593,0.499c0.348,0.243,0.717,0.545,0.897,0.912
		c0.166,0.336,0.397,0.542,0.615,0.761c0.735-0.052,1.341-0.273,1.543-0.752c0.136-0.321,0.358-0.51,0.566-0.732
		c0.288-0.309,0.532-0.625,0.574-1.084c-0.151-0.64-0.788-0.923-1.149-1.419c-0.394-0.542-0.525-1.299-1.251-1.656
		C52.343,20.042,52.193,20.499,51.84,20.441z M49.824,18.297c-0.212-0.822-0.257-0.936-0.869-1.296
		c-0.348-0.205-0.708-0.47-0.828-0.786c-0.217-0.572-0.67-0.602-1.093-0.768c-1.021,0.618-1.552,1.562-2.009,2.596
		c0.518,1.023,1.463,1.74,1.866,2.836c0.194-0.055,0.319,0.066,0.433,0.203c0.358-0.236,0.723-0.411,0.926-0.867
		c0.316-0.708,0.827-1.301,1.489-1.741C49.786,18.443,49.796,18.357,49.824,18.297z M46.908,23.688
		c-0.102,0.102-0.203,0.203-0.314,0.314c0,0.203,0,0.415,0,0.666c-0.854,0.577-0.984,1.439-0.85,2.383
		c0.51,0.524,0.845,1.149,1.115,1.744c0.646,0.42,1.254,0.389,1.746,0.071c0.545-0.975,1.333-1.773,0.923-2.988
		c-0.676-0.576-1.153-1.435-1.738-2.189C47.482,23.688,47.195,23.688,46.908,23.688z M38.657,55.281
		c-1.596-0.341-2.791,0.302-3.772,1.449c0.259,0.52,0.646,0.467,1.034,0.41c0.202-0.202,0.404-0.403,0.64-0.641
		c0.406,0.186,0.776-0.31,1.144-0.171c0.439,0.165,0.839,0.242,1.233,0.149c0.283-0.185,0.342-0.409,0.291-0.745
		C39.081,55.618,38.887,55.464,38.657,55.281z M36.67,61.643c0.579,0.432,1.178,0.798,1.903,1.136c0.47-0.131,0.966,0.17,1.483,0.31
		c0.153,0.042,0.311,0.156,0.478,0.121c0.256-0.054,0.443-0.2,0.436-0.52c-0.087-0.092-0.183-0.193-0.309-0.328
		c-0.281,0-0.594,0-0.898,0c-0.112-0.521-0.562-0.734-0.832-1.09c-0.804,0.184-1.416-0.791-2.26-0.349
		C36.67,61.159,36.67,61.399,36.67,61.643z M27.626,58.414c0.404,0.676,0.999,1.072,1.626,1.072
		c-0.021-0.742-0.627-1.671-1.157-1.671C27.971,57.975,27.817,58.171,27.626,58.414z M61.807,31.482
		c-0.311,0.185-0.365,0.444-0.308,0.75c0.245,0.301,0.611,0.394,0.798,0.498c0.303-0.216,0.531-0.379,0.67-0.478
		c0.1-0.404-0.049-0.59-0.282-0.77C62.403,31.482,62.091,31.482,61.807,31.482z M26.765,17.658c0.088,0.164,0.164,0.305,0.247,0.457
		c0.167-0.202,0.17-0.32,0.05-0.457C26.978,17.658,26.884,17.658,26.765,17.658z M42.865,48.165
		c-0.105,0.044-0.279-0.217-0.357,0.072C42.632,48.353,42.751,48.345,42.865,48.165z"/>
	<path style="fill-rule:evenodd;clip-rule:evenodd;" d="M18.533,44.775c0-0.283,0-0.597,0-0.92c0.341-0.365,0.762-0.522,1.285-0.526
		c0.398-0.002,0.766-0.206,1.135-0.371c0.582-0.258,1.17-0.52,1.805-0.509c0.263-0.415,0.272-0.414,0.282-0.928
		c-0.673-0.724-1.403-1.404-2.302-1.896c-0.316-0.173-0.345-0.569-0.53-0.887c0.096-0.35,0.202-0.706,0.55-0.989
		c0.678-0.157,1.236,0.233,1.71,0.635c0.379,0.319,0.789,0.556,1.221,0.721c0.444,0.171,0.69,0.65,1.249,0.669
		c0.195,0.006,0.458,0.104,0.693,0.108c0.755,0.013,1.511,0.005,2.232,0.005c0.627,0.438,1.328,0.574,2.032,0.636
		c0.643,0.057,1.294,0.016,1.941,0.011c0.308-0.003,0.6-0.118,0.889-0.179c0.974-0.206,1.89-0.52,2.664-1.129
		c0.481-0.38,1.116-0.268,1.578-0.631c1.135-0.08,2.217-0.573,3.379-0.436c0.235,0.028,0.501-0.099,0.693,0.165
		c0.042,0.058,0.196,0.028,0.296,0.052c0.366,0.085,0.621-0.271,0.991-0.228c0.312,0.036,0.692,0.085,0.941-0.053
		c0.809-0.447,1.429,0.165,2.132,0.283c0.23,0.478,0.763,0.505,1.146,0.601c0.393,0.099,0.604,0.32,0.881,0.561
		c0,0.624,0,1.267,0,1.938c0.355,0.366,0.697,0.691,1.262,0.813c0.434,0.094,0.872,0.272,1.278,0.578
		c0.325,0.244,0.77,0.51,1.302,0.5c0.441-0.009,0.815,0.329,1.126,0.729c0,0.272,0,0.586,0,0.877
		c-0.422,0.489-0.954,0.585-1.532,0.525c-0.893-0.09-1.691,0.165-2.504,0.649c-1.043,0-2.157-0.002-3.271,0.001
		c-0.378,0.001-0.737,0.094-1.106,0.175c-0.503,0.109-0.86,0.569-1.432,0.483c-0.521-0.078-0.978,0.276-1.455,0.36
		c-0.868,0.15-1.799,0.205-2.653-0.016c-0.925-0.238-1.832-0.087-2.744-0.107c-0.167-0.004-0.41,0.19-0.665,0.188
		c-1.043-0.01-2.086-0.004-3.129-0.004c-0.386-0.361-1.049-0.044-1.387-0.592c-0.098-0.16-0.412-0.254-0.629-0.259
		c-0.482-0.01-0.832-0.225-1.207-0.498c-0.283-0.206-0.672-0.337-1.025-0.365c-1.477-0.121-2.95-0.319-4.441-0.238
		c-0.825,0.045-1.658-0.039-2.48,0.022c-0.681,0.053-1.292-0.221-1.945-0.278C18.708,45.017,18.637,44.881,18.533,44.775z"/>
	<path style="fill-rule:evenodd;clip-rule:evenodd;" d="M55.87,60.438c-0.229-0.126-0.362-0.281-0.612-0.257
		c-0.392,0.039-0.79,0.012-1.186,0.011c-0.87-0.004-0.963-0.052-1.699-0.887c0.235-0.279,0.523-0.478,0.831-0.705
		c0.636-0.468,1.398-0.656,2.038-1.104c0.6-0.419,1.272-0.737,1.926-1.075c0.294-0.152,0.574-0.315,0.938-0.351
		c0.707-0.067,1.144-0.549,1.552-1.254c-0.937,0.052-1.731-0.132-2.588,0.13c-0.656,0.201-1.421,0.054-2.137,0.062
		c-0.349-0.369-0.801-0.199-1.206-0.209c-1.007-0.023-2.015-0.001-3.022-0.01c-0.618-0.005-1.255,0.11-1.797-0.358
		c-0.227-0.195-0.552-0.055-0.83-0.066c-0.895-0.036-1.721-0.311-2.543-0.639c-0.221-0.088-0.334-0.227-0.477-0.397
		c0.098-0.267,0.263-0.388,0.564-0.503c0.895-0.341,1.796-0.449,2.743-0.419c1.003,0.031,1.982,0.029,2.97-0.38
		c0.563-0.233,1.259-0.399,1.944-0.27c0.313,0.06,0.646,0.011,0.938,0.011c0.717-0.51,1.68-0.458,2.302-1.011
		c0.652-0.58,1.658-0.503,2.155-1.275c0.142-0.361-0.224-0.569-0.243-0.897c-0.3-0.021-0.48-0.238-0.695-0.463
		c-0.545,0-1.114,0-1.729,0c-0.655,0.369-0.655,0.369-1.287,0.406c-0.269-0.153-0.417-0.37-0.357-0.696
		c0.382-0.438,0.896-0.423,1.38-0.367c0.729-0.641,1.725-0.829,2.287-1.695c-0.668-0.058-1.049-0.575-1.509-1.018
		c-0.008-0.589,0.018-1.137,0.715-1.426c0.297-0.123,0.535-0.405,0.639-0.782c0.155-0.569,0.61-0.94,1.127-1.115
		c0.632-0.213,1.143-0.691,1.879-0.715c0.34-0.012,0.683-0.42,0.995-0.683c0.301-0.255,0.564-0.555,0.844-0.834
		c0.925-0.925,0.918-0.927,1.363-2.242c0.216-0.635,0.758-1.014,1.269-1.359c0.206-0.139,0.325-0.369,0.786-0.457
		c0.062,0,0.349,0,0.616,0c0.373,0.245,0.571,0.614,0.782,1.046c0,0.502-0.039,1.082,0.009,1.653
		c0.098,1.172-0.387,2.301-0.225,3.473c-0.283,0.442-0.167,0.943-0.228,1.42c-0.062,0.475-0.14,0.956-0.234,1.417
		c-0.215,1.042-0.431,2.098-0.916,3.069c-0.282,0.564-0.441,1.184-0.67,1.772c-0.315,0.812-0.777,1.553-1.07,2.362
		c-0.198,0.548-0.438,1.058-0.776,1.513c-0.874,1.171-1.591,2.458-2.48,3.604c-0.841,1.084-1.735,2.157-2.792,3.064
		c-0.268,0.229-1.128,0.613-1.671,0.644C56.242,60.188,56.103,60.316,55.87,60.438z"/>
	<path style="fill-rule:evenodd;clip-rule:evenodd;" d="M9.213,52.984c0.014-0.404-0.088-0.751,0.364-0.988
		c0.583-0.142,1.216,0.112,1.794,0.341c0.958,0.378,2.016,0.482,2.895,1.097c0.22,0.153,0.623,0.076,0.938,0.057
		c0.79-0.052,1.46,0.253,2.181,0.655c1.09-0.151,2.178,0.28,3.254,0.564c1.085,0.287,2.251,0.396,3.241,0.97
		c0,0.297,0,0.538,0,0.758c-1.215,0.501-2.463,0.218-3.684,0.306c-0.364,0.026-0.64-0.47-1.057-0.118
		c-0.293,0.246-0.684,0.087-1.03,0.105c-0.394,0.021-0.792,0.022-1.186-0.001c-0.303-0.018-0.474,0.259-0.749,0.282
		c-0.112,0.353-0.067,0.673,0.167,0.971c0.5,0.634,0.778,1.491,1.638,1.765c0.411,0.131,0.775,0.401,1.003,0.658
		c0.574,0.646,1.356,0.961,2,1.482c0.242,0.195,0.629,0.201,0.938,0.323c0.529,0.209,0.953,0.599,1.487,0.833
		c0.524,0.229,1.067,0.07,1.584,0.354c0.523,0.287,1.115,0.433,1.588,0.855c0.385,0.343,0.892,0.5,1.416,0.467
		c0.589-0.038,1.063,0.137,1.523,0.515c0.208,0.172,0.499,0.304,0.812,0.375c0.586,0.135,0.616,0.361,0.184,1.067
		c-0.564-0.066-1.191,0.125-1.848-0.183c-0.657,0.35-1.449,0.103-2.241,0.189c-0.58-0.538-1.367-0.652-2.098-0.853
		c-0.506-0.139-0.89-0.489-1.364-0.615c-0.475-0.127-0.846-0.405-1.266-0.6c-1.203-0.56-2.188-1.462-3.369-2.021
		c-0.39-0.186-0.513-0.711-1.013-0.677c-0.437-0.563-1.12-0.832-1.6-1.361c-0.748-0.824-1.537-1.617-2.361-2.365
		c-0.897-0.814-1.607-1.791-2.417-2.679c-0.374-0.41-0.57-0.98-0.863-1.468C9.846,53.66,9.626,53.26,9.213,52.984z"/>
	<path style="fill-rule:evenodd;clip-rule:evenodd;" d="M32.877,37.84c-0.25-0.219-0.517-0.453-0.737-0.646
		c-0.179-0.407,0.274-0.607,0.192-0.924c-0.005-0.313-0.298-0.393-0.414-0.567c-0.141-0.733,0.125-1.39,0.29-2.051
		c0.131-0.527,0.614-0.834,0.984-1.217c0.013-0.751-0.136-1.555,0.594-2.119c0.059-0.045,0.009-0.213,0.059-0.293
		c0.279-0.446,0.198-0.94,0.214-1.459c0.246-0.214,0.513-0.447,0.868-0.757c0.279,0,0.705,0,1.159,0
		c0.342,0.207,0.561,0.554,0.771,1.09c-0.061,0.587,0.048,1.267,0.631,1.842c0.119,0.118,0.318,0.418,0.254,0.75
		c-0.158,0.811,0.44,1.483,0.496,2.277c0.015,0.214,0.191,0.594,0.603,0.753c0.401,0.156,0.695,0.587,1.035,0.897
		c0,0.371,0,0.726,0,1.106c-0.277,0.526-0.848,0.647-1.361,0.749c-0.474,0.093-0.897,0.234-1.335,0.434
		c-0.391,0.179-0.919-0.181-1.306,0.231c-0.034,0.036-0.156,0.033-0.208,0.001C34.75,37.378,33.842,38.3,32.877,37.84z"/>
	<path style="fill-rule:evenodd;clip-rule:evenodd;" d="M6.668,43.764c-0.466-0.703-0.745-1.358-0.708-2.168
		c0.058-1.253,0.015-2.51,0.015-3.76c0.158-0.158,0.31-0.311,0.538-0.538c0.131-0.118,0.522,0.162,0.635-0.158
		c0.518,0.122,0.921,0.41,1.312,0.766c0.257,0.234,0.705,0.202,1.061,0.288c0.534,0.129,1.088,0.348,1.556,0.637
		c0.536,0.332,1.2-0.03,1.662,0.413c0.42,0.403,1.006,0.348,1.484,0.579c0.308,0.148,0.629,0.016,0.95,0.078
		c0.372,0.38,0.603,0.824,0.511,1.434c-0.547,0.437-1.193,0.711-1.933,0.709c-0.698-0.002-1.341,0.457-1.967,0.192
		c-0.561,0.382-1.105,0.604-1.661,0.645c-0.308,0.022-0.533,0.165-0.761,0.266C8.261,43.633,7.761,43.778,6.668,43.764z"/>
	<path style="fill-rule:evenodd;clip-rule:evenodd;" d="M20.01,51.195c0,0.265,0,0.479,0,0.688
		c-0.315,0.202-0.704,0.255-0.972,0.531c-0.357,0-0.715,0-1.076,0c-0.327-0.361-0.764-0.372-1.214-0.45
		c-1.283-0.222-2.627-0.301-3.688-1.213c-0.026-0.022-0.05-0.055-0.081-0.063c-1.265-0.343-1.517-1.267-1.347-2.538
		c0.137-0.087,0.377-0.238,0.764-0.481c0.115,0,0.472,0,0.824,0c0.611,0.622,1.455,0.852,2.183,1.25
		c0.757,0.414,1.453,0.979,2.275,1.241C18.481,50.416,19.178,50.872,20.01,51.195z"/>
	<path style="fill-rule:evenodd;clip-rule:evenodd;" d="M51.84,20.441c0.353,0.058,0.503-0.398,0.782-0.234
		c0.726,0.357,0.857,1.115,1.251,1.656c0.361,0.496,0.998,0.779,1.149,1.419c-0.042,0.459-0.286,0.776-0.574,1.084
		c-0.208,0.222-0.431,0.411-0.566,0.732c-0.202,0.479-0.808,0.7-1.543,0.752c-0.218-0.218-0.449-0.424-0.615-0.761
		c-0.181-0.366-0.55-0.668-0.897-0.912c-0.218-0.153-0.438-0.223-0.593-0.499c-0.168-0.3-0.189-0.583-0.195-0.959
		C50.667,22.054,51.455,21.445,51.84,20.441z"/>
	<path style="fill-rule:evenodd;clip-rule:evenodd;" d="M49.824,18.297c-0.027,0.061-0.038,0.146-0.085,0.178
		c-0.662,0.44-1.173,1.034-1.489,1.741c-0.203,0.456-0.567,0.631-0.926,0.867c-0.113-0.137-0.238-0.258-0.433-0.203
		c-0.403-1.097-1.349-1.813-1.866-2.836c0.457-1.034,0.987-1.979,2.009-2.596c0.423,0.166,0.876,0.196,1.093,0.768
		c0.12,0.316,0.48,0.582,0.828,0.786C49.567,17.361,49.612,17.475,49.824,18.297z"/>
	<path style="fill-rule:evenodd;clip-rule:evenodd;" d="M46.908,23.688c0.287,0,0.574,0,0.882,0
		c0.585,0.754,1.063,1.614,1.738,2.189c0.41,1.215-0.378,2.013-0.923,2.988c-0.492,0.318-1.101,0.349-1.746-0.071
		c-0.271-0.595-0.605-1.22-1.115-1.744c-0.135-0.943-0.005-1.806,0.85-2.383c0-0.25,0-0.463,0-0.666
		C46.705,23.891,46.806,23.789,46.908,23.688z"/>
	<path style="fill-rule:evenodd;clip-rule:evenodd;" d="M38.657,55.281c0.23,0.183,0.424,0.337,0.57,0.452
		c0.051,0.336-0.008,0.561-0.291,0.745c-0.395,0.093-0.794,0.016-1.233-0.149c-0.367-0.139-0.738,0.356-1.144,0.171
		c-0.236,0.237-0.438,0.438-0.64,0.641c-0.388,0.057-0.775,0.109-1.034-0.41C35.866,55.583,37.061,54.94,38.657,55.281z"/>
	<path style="fill-rule:evenodd;clip-rule:evenodd;" d="M36.67,61.643c0-0.243,0-0.483,0-0.72c0.844-0.442,1.457,0.532,2.26,0.349
		c0.271,0.355,0.72,0.568,0.832,1.09c0.305,0,0.617,0,0.898,0c0.126,0.135,0.222,0.236,0.309,0.328
		c0.008,0.319-0.18,0.466-0.436,0.52c-0.167,0.035-0.324-0.079-0.478-0.121c-0.518-0.14-1.014-0.44-1.483-0.31
		C37.848,62.44,37.249,62.074,36.67,61.643z"/>
	<path style="fill-rule:evenodd;clip-rule:evenodd;" d="M27.626,58.414c0.191-0.243,0.345-0.439,0.47-0.599
		c0.529,0,1.136,0.929,1.157,1.671C28.625,59.486,28.03,59.09,27.626,58.414z"/>
</g>
</svg>
