<?xml version="1.0" encoding="iso-8859-1"?>
<!-- Generator: Adobe Illustrator 16.0.0, SVG Export Plug-In . SVG Version: 6.00 Build 0)  -->
<!DOCTYPE svg PUBLIC "-//W3C//DTD SVG 1.1//EN" "http://www.w3.org/Graphics/SVG/1.1/DTD/svg11.dtd">
<svg version="1.1" id="Layer_1" xmlns="http://www.w3.org/2000/svg" xmlns:xlink="http://www.w3.org/1999/xlink" x="0px" y="0px"
	 width="72.36px" height="72.18px" viewBox="0 0 72.36 72.18" style="enable-background:new 0 0 72.36 72.18;" xml:space="preserve"
	>
<g>
	<path style="fill-rule:evenodd;clip-rule:evenodd;fill:none;" d="M79.416,79.631c-28.8,0-57.6,0-86.399,0
		c0-28.871,0-57.743,0-86.615c28.8,0,57.6,0,86.399,0C79.416,21.888,79.416,50.76,79.416,79.631z M18.738,61.829
		c0.828,0.829,0.837,0.807,2.255,1.409c0.491,0.208,0.889,0.666,1.387,0.816c0.848,0.255,1.554,0.767,2.413,1.105
		c0.529-0.01,1.134-0.07,1.594,0.432c0.432,0,0.875,0.059,1.293-0.016c0.487-0.086,0.854,0.249,1.317,0.241
		c1.583-0.026,3.168-0.029,4.751,0.006c0.313,0.007,0.517-0.159,0.835-0.255c0.197,0.429,0.596,0.229,0.93,0.231
		c2.051,0.015,4.104,0.001,6.156,0.013c0.458,0.003,0.887-0.031,1.241-0.357c-0.203-1.051-0.558-1.399-1.66-1.633
		c-0.407-0.407-0.814-0.814-1.222-1.222s-0.889-0.766-1.2-1.236c-0.302-0.454-0.576-0.917-0.928-1.343
		c-0.338-0.411-0.584-0.899-0.854-1.327c0.135-0.239,0.239-0.419,0.608-0.463c0.239,0.093,0.594,0.199,0.862,0.479
		c0.167,0.622,0.106,0.855,2.127,2.777c0.216,0,0.432,0,0.633,0c0.237,0.157,0.477,0.291,0.687,0.462
		c0.925,0.751,1.919,1.396,3,1.889c0.289,0.133,0.603,0.293,0.98,0.252c0.903-0.098,1.806,0.025,2.727-0.189
		c0.889-0.208,1.842-0.229,2.722-0.489c1.08-0.319,2.046-0.904,2.852-1.71c0.264-0.265,0.243-0.705,0.576-0.998
		c0-0.279,0-0.594,0-0.86c0.273-0.32,0.523-0.437,0.855-0.178c0.218,0.171,0.415,0.089,0.667-0.025
		c0.338-0.152,0.566-0.396,0.82-0.633c0-0.358,0-0.717,0-1.055c-0.333-0.344-0.656-0.678-0.958-0.99
		c-0.198-0.047-0.392,0.066-0.534-0.103c-0.167-0.199-0.449-0.198-0.571-0.083c-0.357,0.335-0.743,0.074-1.035,0.174
		c-0.604-0.463-0.755-1.06-0.78-1.689c-0.027-0.683-0.009-1.367-0.004-2.052c0.002-0.173-0.03-0.391,0.058-0.512
		c0.486-0.67,0.47-1.537,0.906-2.221c0.291,0.147,0.364-0.376,0.661-0.216c0.384,0.397,0.818,0.748,0.974,1.326
		c0.098,0.366,0.403,0.453,0.758,0.384c0.27-0.419,0.386-0.878,0.282-1.347c-0.369-0.993-1.599-0.787-2.126-1.562
		c0-0.435,0-0.866,0-1.312c0.579-0.481,0.985-1.195,1.848-1.403c0.571,0.184,1.147,0.538,1.825,0.451
		c0.384,0.33,0.983,0.086,1.323,0.44c0.607,0.633,1.541,0.795,1.999,1.481c0.654,0,1.225,0,1.626,0
		c0.309-0.23,0.508-0.38,0.676-0.505c-0.092-0.542-0.36-0.954-0.749-1.147c-0.471-0.233-0.858-0.541-1.274-0.845
		c-0.617-0.451-1.291-0.91-2.012-1.112C59.44,44.94,59,44.641,58.553,44.188c-0.652,0.224-1.256-0.274-1.926-0.197
		c-0.178-0.179-0.356-0.356-0.534-0.535c-0.047-0.166,0.068-0.356-0.076-0.509c-0.455-0.043-0.863-0.19-1.226-0.579
		c0-0.128,0.017-0.305-0.003-0.477c-0.065-0.583,0.187-1.205-0.213-1.747c0.024-0.958-0.227-2.003,0.869-2.66
		c0.318,0,0.671,0,1.073,0c0.642-1.125-0.351-1.614-0.85-2.257c0-0.377,0-0.733,0-0.966c0.301-0.339,0.537-0.605,0.743-0.837
		c0.259,0,0.471,0,0.774,0c0.129,0.496,0.515,0.852,0.861,1.184c-0.136,0.567,0.385,0.973,0.223,1.351
		c0.216,0.292,0.383,0.518,0.513,0.694c0.406-0.014,0.725-0.042,1.024,0.313c0.207-0.489,0.604-0.266,0.96-0.334
		c0.873-0.865,1.078-2.025,1.436-3.224c-0.298,0-0.488-0.047-0.642,0.008c-0.719,0.259-1.428,0.546-2.104,0.809
		c-0.733-0.213-1.067-0.961-1.749-1.266c-0.213-0.095-0.266-0.36-0.352-0.602c-0.19-0.53-0.37-1.1-0.817-1.422
		c0-0.637,0-1.208,0-1.734c0.329-0.37,0.647-0.708,0.622-1.194c-0.031-0.619,0.275-1.052,0.694-1.444
		c0.073-0.069,0.13-0.156,0.148-0.18c0-0.352,0-0.632,0-0.665c-0.272-0.327-0.421-0.505-0.483-0.58
		c-0.199,0.123-0.415,0.255-0.591,0.363c0,0.367,0,0.649,0,0.922c-0.253,0.159-0.354,0.45-0.678,0.514
		c-0.77,0.152-1.386,0.578-1.889,1.19c-0.076,0.593,0.25,1.097,0.45,1.707c-0.456,0.168-0.136,0.598-0.28,0.889
		c-0.155,0.337-0.431,0.347-0.723,0.295c-0.389-0.36-0.9-0.717-0.927-1.227c-0.03-0.581-0.596-1.171-0.044-1.77
		c0.054-0.059,0.012-0.209,0.007-0.317c-0.04-0.872,0.139-1.659,0.757-2.094c0.381-0.852,0.347-1.517-0.208-2.146
		c-0.364,0-0.75,0-1.097,0c-0.191-0.191-0.344-0.344-0.531-0.531c0-0.14,0-0.315,0-0.491c0-0.21,0-0.42,0-0.589
		c0.711-0.721,0.623-0.76,1.11-1.866c0.333-0.754-0.086-1.152-0.306-1.655c-0.567,0.225-0.913,0.781-1.501,0.598
		c-0.496-0.223-0.563-0.745-0.895-1.046c-0.32,0-0.634,0-0.988,0c-0.181,0.209-0.368,0.426-0.497,0.575c-0.392,0-0.704,0-1.017,0
		c-0.301-0.17-0.34-0.521-0.413-0.735c-0.227-0.668-0.365-1.377-0.446-2.081c-0.054-0.472-0.163-0.873-0.553-1.234
		c-0.497,0.104-0.921-0.264-1.364-0.282c-0.755-0.822-1.063-1.872-1.831-2.484c-0.51-0.161-0.864,0.07-1.228,0.267
		c0.019,0.316-0.344,0.52-0.23,0.881c0.247,0.789,0.463,1.613,1.255,2.032c0.634,0.335,0.828,0.932,1.146,1.489
		c0.253,0.446,0.012,1.084,0.575,1.384c0.547,1.271,1.358,2.466,1.137,3.958c-0.011,0.068,0.005,0.141,0.002,0.083
		c0.411,1.022,1.104,1.744,1.43,2.419c-0.001,1.023-0.859,1.153-1.203,1.583c0.158,0.789,0.794,1.222,0.877,1.829
		c-0.338,0.708-1.027,0.645-1.532,0.965c-0.155,1.716,0.741,3.102,1.475,4.593c0,0.258,0,0.571,0,0.84
		c-0.221,0.299-0.509,0.444-0.753,0.249c-0.195-0.157-0.455-0.295-0.619-0.333c-1.417-0.329-2.449-1.278-3.566-2.093
		c-0.728-0.53-1.087-1.523-2.112-1.682c-0.028-0.004-0.051-0.048-0.034-0.032c-0.281-0.258-0.327-0.571-0.465-0.84
		c0.243-0.218,0.383-0.533,0.739-0.595c0.222,0.245,0.437,0.481,0.623,0.687c1.22-0.062,1.996-0.658,2.529-1.625
		c-0.43-0.595-0.143-1.217,0.073-1.99c-1.155,0.656-2.055,1.383-3.174,1.648c-0.267-0.222-0.645-0.282-0.88-0.474
		c-0.516-0.418-1.062-0.64-1.702-0.593c-0.255,0.019-0.387-0.15-0.552-0.241c-0.789-0.433-1.395-1.132-1.692-1.92
		c-0.22-0.584-0.542-1.016-0.908-1.412c-0.261-2.275,0.061-2.095,0.841-3.265c0.118-1.36-0.154-2.646-0.451-3.89
		c-0.396-0.446-0.877-0.771-1.043-1.342c0-0.324,0.13-0.745-0.025-0.953c-0.412-0.553-0.126-1.003,0.114-1.421
		c0.513-0.895,0.446-1.753,0.051-2.652c-0.307,0.155-0.359-0.263-0.712-0.164c-0.699,0.629-1.027,1.532-1.151,2.529
		c-0.064,0.512,0.088,1.03-0.196,1.543c-0.137,0.249-0.153,0.728,0,0.942c0.5,0.699,0.574,1.578,1.09,2.301
		c-0.231,0.896,0.296,1.767,0.175,2.696c-0.895,1.012-2.049,1.34-3.333,1.173c-0.235,0.307-0.73,0.242-0.767,0.752
		c0.263,0.343,0.627,0.57,1.106,0.556c0.335-0.01,0.634,0.155,0.825,0.34c0.848,0.826,1.549,1.752,1.557,2.988
		c0.207,0.366,0.433,0.646,0.785,0.9c0.581,0.421,1.205,0.909,1.464,1.635c0.144,0.405,0.403,0.614,0.765,0.743
		c0.61,0.216,0.931,0.678,1.048,1.274c0.038,0.194,0.148,0.301,0.229,0.449c0.378,0.696,1.011,1.165,1.516,1.736
		c-0.118,0.647-0.359,0.914-0.998,0.945c-0.92,0.045-1.687,0.442-2.441,0.927c0,0.255,0,0.497,0,0.796
		c0.224,0.059,0.468-0.019,0.692,0.153c0.248,0.189,0.651,0.156,0.917,0.039c0.474-0.209,1.019-0.176,1.445-0.415
		c0.476-0.265,0.995-0.387,1.472-0.627c0.889,0.492,1.772,1.34,2.198,2.158c-0.709-0.134-1.205-0.722-1.821-0.644
		c-0.309,0.281-0.573,0.522-0.81,0.738c0,0.329,0,0.614,0,0.899c0.12,0.593,0.735,0.682,1.082,1.075
		c-0.067,0.499-0.168,0.917-0.738,1.204c-0.508,0.255-0.883,0.76-1.008,1.388c-0.12,0.603-0.482,1.006-1.053,1.285
		c-0.364,0.179-0.758,0.259-1.091,0.403c-0.418,0.71-0.418,0.71-0.403,1.358c0.237,0.384,0.603,0.297,0.958,0.267
		c0.405-0.433,0.815-0.865,1.486-0.844c0.429-0.432,0.859-0.866,1.292-1.302c0.355,0.171,0.56-0.24,0.886-0.215
		c0.484,0.038,0.818-0.262,1.186-0.531c0.597-0.438,1.243-0.809,1.812-1.172c0.35,0,0.632,0,0.9,0
		c0.485,0.688,0.667,1.163,0.464,1.628c-0.19,0.435-0.255,0.911-0.467,1.317c-0.129,0.249-0.206,0.53-0.112,0.692
		c0.33,0.573,0.161,1.173,0.19,1.758c0.025,0.527,0.143,1.026,0.489,1.413c0.172,0.191,0.264,0.434,0.34,0.622
		c0.301,0.738,0.757,1.271,1.457,1.659c0.36,0.2,0.514,0.618,0.532,1.063c0.051,1.231-0.154,2.474,0.203,3.693
		c0.162,0.556-0.143,1.082-0.254,1.622c-0.519,0.543-1.201,1.007-1.003,1.93c0.767,0.691,1.169,1.532,1.061,2.413
		c0.25,0.741,0.813,1.21,0.588,1.96c-0.323,0-0.637,0-0.896,0c-1.087-0.836-1.763-2.093-3.086-2.629
		c-0.544,0.279-1.064,0.547-1.709,0.489c-0.625-0.69-1.285-1.393-2.401-1.621c0.351-0.383,0.608-0.667,0.896-0.982
		c0.555,0.143,1.047-0.176,1.556-0.259c0.325-0.316,0.634-0.617,0.94-0.916c-0.142-0.418,0.344-0.693,0.232-1.098
		c0.469-0.419,0.044-0.818-0.007-1.235c-0.061-0.495-0.334-0.828-0.675-1.125c-0.231-0.202-0.622-0.041-0.836-0.337
		c-0.156,0.08-0.301,0.214-0.453,0.224c-0.873,0.06-1.729-0.02-2.572-0.295c-1.392-0.454-1.455-0.424-3.227-0.141
		c-0.471,0.076-0.992,0.099-1.416-0.209c-0.28-0.203-0.558-0.38-0.96-0.461c-0.501,0.339-1.185,0.446-1.543,1.069
		c0.007,0.134,0.014,0.272,0.022,0.448c0.839,0,1.657,0,2.427,0c0.224,0.219,0.403,0.395,0.578,0.565c0,0.151,0,0.295,0,0.438
		c-0.179,0.18-0.357,0.357-0.549,0.549c-1.413-0.192-2.556,0.848-3.892,0.876c-0.441,0.409-0.853,0.786-0.955,1.356
		c0.578,0.737,1.475,1.212,1.708,2.046c-0.302,0.37-0.527,0.647-0.736,0.904c-0.446-0.084-0.754,0.21-1.12,0.287
		c-0.166,0.035-0.497,0.076-0.618,0.376c-0.565-0.192-1.06,0.218-1.624,0.209c-0.208-0.003-0.411,0.21-0.628,0.29
		c-0.344,0.129-0.705,0.343-1.046,0.321c-1.674-0.103-3.323,0.235-4.988,0.231c-0.456-0.001-0.903-0.012-1.303,0.307
		C18.738,61.194,18.738,61.478,18.738,61.829z M24.514,34.987c0-0.562,0-1.165,0-1.773c-0.208,0-0.377,0-0.584,0
		c0,0.478,0,0.936,0,1.406c-0.283,0.126-0.364,0.467-0.748,0.532c-0.287,0.072-0.47-0.294-0.745-0.317
		c-0.448-0.699-0.189-1.458-0.297-2.167c-0.05-0.344-0.434-0.529-0.387-0.997c0.323-0.393,0.205-0.918,0.148-1.408
		c-0.043-0.403-0.353-0.601-0.588-0.853c0-0.324-0.122-0.724,0.023-0.957c0.433-0.694-0.017-1.225-0.135-1.771
		c-0.693-0.59-1.464-0.338-2.142-0.413c-0.851-0.625-0.851-1.699-1.415-2.511c-0.444-0.166-0.911-0.34-1.445-0.54
		c0.015,0.371-0.323,0.17-0.448,0.304c-0.238,0.765,0.149,1.459,0.161,2.184c0.356,0.171,0.086,0.604,0.354,0.828
		c0.328,0.275,0.442,0.65,0.538,1.075c0.076,0.338,0.269,0.71,0.632,0.926c-0.102,0.833,0.095,1.516,1.108,1.847
		c0.064,0,0.28,0,0.264,0c0.372,0.256,0.604,0.417,0.858,0.591c-0.489,0.762-0.902,1.476-0.68,2.402
		c0.63,0.459,1.01,1.139,1.272,1.874c-0.107,0.329-0.375,0.604-0.231,0.915c0.164,0.35,0.143,0.735,0.271,1.076
		c0.364,0.966,0.167,1.763-0.605,2.432c-0.348-0.006-0.728,0.088-0.956-0.32c-0.138-0.555,0.141-1.148-0.203-1.736
		c-0.298-0.51-0.771-0.959-0.718-1.683c-0.297,0.18-0.365-0.063-0.512-0.136c-0.13,0.227-0.37,0.152-0.557,0.22
		c-0.215,0.079-0.385,0.279-0.57,0.423c-1.042-0.525-1.593-0.996-2.011-1.407c-0.65-0.642-1.447-1.126-2.007-1.838
		c-0.534,0-1.038,0-1.54,0c-0.103,0.103-0.205,0.205-0.289,0.29c-0.288,1.133,0.794,1.396,1.315,2.046
		c-0.253,0.432,0.165,0.706,0.228,1.097c1.039-0.033,1.642,0.504,1.894,1.436c-0.18,0.753-0.935,1.172-0.901,1.96
		c-0.379,0.358-0.701,0.788-1.306,0.971c0.215,0.762-0.456,1.328-0.399,2.016c0.258,0.34,0.615,0.391,0.89,0.55
		c1.064-0.497,1.979-1.123,2.389-2.29c0.076-0.216,0.295-0.381,0.368-0.472c0.692,0.143,0.964,0.614,1.321,0.925
		c0,0.926,0,1.789,0,2.652c0,0.18-0.068,0.401,0.011,0.533c0.572,0.95,0.63,2.212,1.575,2.729c0.619,1.467,0.981,2.824,0.748,4.275
		c-0.399,0.537-0.563,1.193-0.826,1.816c0.154,0.225,0.284,0.464,0.234,0.754c0.283,0.283,0.563,0.563,0.816,0.816
		c0,0.342,0,0.656,0,0.986c-0.348,0-0.661,0-0.953,0c-0.479-0.449-0.845-1.029-1.463-1.221c-0.741-0.229-1.516-0.358-2.284-0.478
		c-0.545-0.085-1.005,0.127-1.327,0.569c0.219,0.709,0.742,1.128,1.212,1.578c0.592-0.01,1.072,0.306,1.462,0.645
		c0.723,0.628,1.494,0.917,2.454,0.888c0.76-0.023,1.547-0.176,2.286,0.195c0.622,0.313,1.309,0.281,1.957,0.195
		c0.515-0.067,1.065-0.219,1.48-0.57c0.42-0.355,0.84-0.74,0.837-1.379c0-0.113,0.145-0.227,0.26-0.394
		c0.23-0.069,0.535,0.083,0.763-0.07c0.169-0.17,0.322-0.322,0.477-0.477c0-0.357,0-0.717,0-1.076
		c-0.123-0.426-0.457-0.689-0.77-0.989c-0.69,0.069-1.374,0.01-1.953-0.265c-0.384-0.578-0.365-1.101-0.103-1.689
		c0.21-0.474,0.432-1.012,0.031-1.549c-0.084-0.112-0.012-0.341-0.012-0.514c0.303-0.291,0.588-0.564,0.869-0.833
		c0-0.588,0-1.162,0-1.72c0.077-0.093,0.175-0.163,0.207-0.256c0.22-0.645,0.726-0.886,1.342-0.934
		c0.517-0.04,1.041,0.054,1.536-0.21c0.13-0.068,0.399-0.051,0.505,0.041c0.358,0.311,0.738,0.076,1.055,0.169
		c0.146-0.159,0.24-0.263,0.322-0.353c-0.129-0.922-0.952-1.094-1.535-1.519c-0.173-0.126-0.384-0.126-0.501-0.064
		c-0.495,0.259-1.1,0.024-1.518,0.24c-0.733,0.378-1.163,0.055-1.607-0.33c-0.177-0.589,0.177-1.055,0.235-1.572
		c0.057-0.504,0.287-0.966-0.018-1.336c0.053-0.61,0.6-0.674,0.816-0.999c0.109-0.841-0.033-1.609-0.359-2.18
		c0.085-0.812,0.751-1.089,1.046-1.577C25.28,35.682,24.889,35.375,24.514,34.987z M33.907,34.5
		c-0.496-0.746-1.365-0.446-1.925-0.854c-0.83,0.507-0.882,0.596-1.394,1.549c-0.141,0.261-0.263,0.541-0.478,0.775
		c-0.305,0.334-0.458,0.757-0.355,1.236c0.152,0.121,0.246,0.354,0.536,0.302c0.47-0.58,1.167-0.984,1.502-1.718
		c0.071-0.157,0.316-0.161,0.422-0.247C32.713,35.134,33.435,35.11,33.907,34.5z M36.017,37.512
		c-0.426,0.392-0.765,0.703-1.09,1.002c-0.021,0.371-0.073,0.739,0.196,0.862c1.124,0.299,2.034-0.266,3.016-0.131
		c0-0.469,0-0.853,0-1.221C37.547,37.625,37.056,37.512,36.017,37.512z M21.96,19.043c-0.178-0.177-0.355-0.355-0.556-0.556
		c-0.728,0.096-1.524-0.186-2.252,0.331c0,0.118-0.003,0.257,0.001,0.397c0.003,0.102,0.016,0.204,0.024,0.3
		c1.901,0.459,1.986,0.37,2.783-0.041C21.96,19.331,21.96,19.188,21.96,19.043z M26.469,38.28c0.217,0.703,0.629,1.158,1.274,1.177
		c0.728-0.278,0.681-0.907,0.94-1.367c-0.118-0.122-0.214-0.224-0.329-0.343c-0.509,0-1.034,0-1.556,0
		C26.67,37.908,26.716,38.165,26.469,38.28z M61.076,42.87c-0.67,0.633-0.602,0.906,0.391,1.77c0.178,0,0.355,0,0.496,0
		c0.229-0.199,0.437-0.381,0.587-0.511c0-0.299,0-0.507,0-0.731C62.042,43.216,61.545,43.038,61.076,42.87z M27.903,17.165
		c0.181-0.165,0.366-0.333,0.569-0.516c-0.157-0.484-0.126-1.031-0.526-1.344c-0.369,0-0.683,0-0.915,0
		c-0.333,0.194-0.347,0.437-0.314,0.718C27.09,16.382,27.478,16.755,27.903,17.165z M33.998,31.413
		c0.204-0.203,0.482-0.434,0.69-0.717c0.068-0.093,0.085-0.34-0.065-0.51c-0.23,0-0.469,0-0.712,0
		c-0.263,0.284-0.52,0.562-0.819,0.886C33.371,31.269,33.478,31.583,33.998,31.413z M62.258,31.219
		c-0.246,0.322-0.737,0.255-0.771,0.704c0.408,0.416,0.744,0.627,0.978,0.615c0.101-0.101,0.201-0.202,0.291-0.291
		c0-0.251,0-0.491,0-0.716C62.584,31.435,62.371,31.49,62.258,31.219z"/>
	<path style="fill-rule:evenodd;clip-rule:evenodd;" d="M18.738,61.829c0-0.352,0-0.635,0-0.903
		c0.399-0.318,0.847-0.308,1.303-0.307c1.665,0.004,3.313-0.334,4.988-0.231c0.341,0.021,0.702-0.192,1.046-0.321
		c0.217-0.08,0.42-0.293,0.628-0.29c0.564,0.009,1.059-0.401,1.624-0.209c0.122-0.3,0.452-0.341,0.618-0.376
		c0.366-0.077,0.674-0.371,1.12-0.287C30.272,58.647,30.498,58.37,30.8,58c-0.233-0.834-1.13-1.309-1.708-2.046
		c0.102-0.57,0.514-0.947,0.955-1.356c1.336-0.028,2.479-1.068,3.892-0.876c0.191-0.191,0.37-0.369,0.549-0.549
		c0-0.143,0-0.286,0-0.438c-0.175-0.171-0.354-0.347-0.578-0.565c-0.77,0-1.588,0-2.427,0c-0.009-0.176-0.016-0.314-0.022-0.448
		c0.359-0.623,1.042-0.73,1.543-1.069c0.402,0.081,0.68,0.258,0.96,0.461c0.424,0.308,0.945,0.285,1.416,0.209
		c1.771-0.283,1.835-0.313,3.227,0.141c0.843,0.275,1.699,0.354,2.572,0.295c0.152-0.01,0.297-0.144,0.453-0.224
		c0.214,0.296,0.604,0.135,0.836,0.337c0.341,0.297,0.614,0.63,0.675,1.125c0.051,0.417,0.476,0.816,0.007,1.235
		c0.111,0.404-0.374,0.68-0.232,1.098c-0.307,0.299-0.615,0.6-0.94,0.916c-0.509,0.083-1.001,0.401-1.556,0.259
		c-0.288,0.315-0.546,0.6-0.896,0.982c1.116,0.229,1.776,0.931,2.401,1.621c0.645,0.058,1.165-0.21,1.709-0.489
		c1.323,0.536,1.999,1.793,3.086,2.629c0.259,0,0.572,0,0.896,0c0.225-0.75-0.338-1.219-0.588-1.96
		c0.108-0.881-0.294-1.722-1.061-2.413c-0.198-0.923,0.484-1.387,1.003-1.93c0.111-0.54,0.416-1.066,0.254-1.622
		c-0.357-1.22-0.152-2.462-0.203-3.693c-0.019-0.445-0.172-0.863-0.532-1.063c-0.7-0.389-1.156-0.921-1.457-1.659
		c-0.076-0.188-0.168-0.431-0.34-0.622c-0.347-0.387-0.464-0.886-0.489-1.413c-0.029-0.585,0.14-1.185-0.19-1.758
		c-0.094-0.162-0.017-0.443,0.112-0.692c0.212-0.406,0.276-0.883,0.467-1.317c0.203-0.465,0.021-0.94-0.464-1.628
		c-0.269,0-0.551,0-0.9,0c-0.568,0.363-1.215,0.733-1.812,1.172c-0.367,0.27-0.701,0.569-1.186,0.531
		c-0.326-0.025-0.53,0.386-0.886,0.215c-0.433,0.436-0.863,0.87-1.292,1.302c-0.671-0.021-1.081,0.411-1.486,0.844
		c-0.355,0.03-0.721,0.117-0.958-0.267c-0.016-0.648-0.016-0.648,0.403-1.358c0.333-0.145,0.727-0.225,1.091-0.403
		c0.57-0.279,0.933-0.683,1.053-1.285c0.125-0.628,0.5-1.133,1.008-1.388c0.57-0.287,0.671-0.705,0.738-1.204
		c-0.347-0.393-0.962-0.481-1.082-1.075c0-0.285,0-0.571,0-0.899c0.236-0.215,0.501-0.457,0.81-0.738
		c0.616-0.079,1.112,0.51,1.821,0.644c-0.426-0.818-1.31-1.666-2.198-2.158c-0.477,0.24-0.996,0.363-1.472,0.627
		c-0.427,0.239-0.972,0.206-1.445,0.415c-0.267,0.118-0.67,0.151-0.917-0.039c-0.224-0.172-0.469-0.095-0.692-0.153
		c0-0.299,0-0.541,0-0.796c0.754-0.485,1.521-0.882,2.441-0.927c0.639-0.031,0.88-0.298,0.998-0.945
		c-0.505-0.571-1.138-1.04-1.516-1.736c-0.081-0.148-0.19-0.255-0.229-0.449c-0.117-0.597-0.438-1.059-1.048-1.274
		c-0.362-0.129-0.621-0.338-0.765-0.743c-0.259-0.727-0.883-1.214-1.464-1.635c-0.352-0.254-0.579-0.534-0.785-0.9
		c-0.008-1.236-0.709-2.163-1.557-2.988c-0.19-0.185-0.49-0.351-0.825-0.34c-0.479,0.014-0.844-0.213-1.106-0.556
		c0.037-0.51,0.532-0.445,0.767-0.752c1.285,0.167,2.438-0.162,3.333-1.173c0.122-0.929-0.406-1.799-0.175-2.696
		c-0.516-0.723-0.589-1.602-1.09-2.301c-0.153-0.214-0.137-0.693,0-0.942c0.284-0.513,0.132-1.031,0.196-1.543
		c0.124-0.997,0.452-1.9,1.151-2.529c0.353-0.099,0.405,0.319,0.712,0.164c0.395,0.899,0.462,1.758-0.051,2.652
		c-0.24,0.418-0.525,0.869-0.114,1.421c0.155,0.208,0.025,0.629,0.025,0.953c0.167,0.57,0.647,0.896,1.043,1.342
		c0.296,1.244,0.569,2.53,0.451,3.89c-0.78,1.17-1.102,0.989-0.841,3.265c0.366,0.396,0.688,0.828,0.908,1.412
		c0.297,0.789,0.903,1.488,1.692,1.92c0.166,0.091,0.297,0.26,0.552,0.241c0.641-0.046,1.187,0.175,1.702,0.593
		c0.235,0.191,0.613,0.251,0.88,0.474c1.119-0.265,2.019-0.993,3.174-1.648c-0.216,0.773-0.503,1.396-0.073,1.99
		c-0.533,0.967-1.31,1.563-2.529,1.625c-0.187-0.206-0.401-0.442-0.623-0.687c-0.356,0.062-0.496,0.377-0.739,0.595
		c0.138,0.269,0.184,0.582,0.465,0.84c-0.017-0.017,0.006,0.027,0.034,0.032c1.025,0.159,1.385,1.152,2.112,1.682
		c1.117,0.815,2.149,1.765,3.566,2.093c0.164,0.038,0.424,0.176,0.619,0.333c0.244,0.196,0.532,0.05,0.753-0.249
		c0-0.269,0-0.582,0-0.84c-0.733-1.491-1.63-2.877-1.475-4.593c0.505-0.32,1.194-0.257,1.532-0.965
		c-0.083-0.606-0.719-1.04-0.877-1.829c0.344-0.43,1.202-0.56,1.203-1.583c-0.326-0.675-1.019-1.397-1.43-2.419
		c0.003,0.057-0.013-0.015-0.002-0.083c0.222-1.492-0.59-2.687-1.137-3.958c-0.563-0.3-0.322-0.938-0.575-1.384
		c-0.317-0.557-0.512-1.154-1.146-1.489c-0.792-0.419-1.008-1.243-1.255-2.032c-0.113-0.361,0.249-0.564,0.23-0.881
		c0.363-0.196,0.718-0.427,1.228-0.266c0.768,0.613,1.076,1.663,1.831,2.484c0.443,0.018,0.867,0.387,1.364,0.282
		c0.39,0.361,0.499,0.762,0.553,1.234c0.081,0.704,0.22,1.412,0.446,2.081c0.073,0.215,0.112,0.565,0.413,0.735
		c0.313,0,0.625,0,1.017,0c0.129-0.149,0.316-0.366,0.497-0.575c0.354,0,0.668,0,0.988,0c0.332,0.301,0.398,0.824,0.895,1.046
		c0.588,0.184,0.934-0.373,1.501-0.598c0.22,0.503,0.639,0.9,0.306,1.655c-0.487,1.106-0.399,1.145-1.11,1.866
		c0,0.168,0,0.378,0,0.589c0,0.175,0,0.351,0,0.491c0.188,0.188,0.34,0.34,0.531,0.531c0.347,0,0.732,0,1.097,0
		c0.555,0.629,0.589,1.294,0.208,2.146c-0.618,0.435-0.797,1.222-0.757,2.094c0.005,0.108,0.047,0.259-0.007,0.317
		c-0.552,0.599,0.014,1.189,0.044,1.77c0.026,0.51,0.538,0.867,0.927,1.227c0.292,0.052,0.567,0.042,0.723-0.295
		c0.145-0.291-0.176-0.72,0.28-0.889c-0.2-0.609-0.526-1.114-0.45-1.707c0.503-0.612,1.119-1.038,1.889-1.19
		c0.324-0.064,0.425-0.355,0.678-0.514c0-0.273,0-0.555,0-0.922c0.176-0.108,0.392-0.241,0.591-0.363
		c0.063,0.075,0.211,0.253,0.483,0.58c0,0.032,0,0.313,0,0.665c-0.019,0.023-0.075,0.111-0.148,0.18
		c-0.419,0.392-0.726,0.825-0.694,1.444c0.025,0.487-0.293,0.824-0.622,1.194c0,0.527,0,1.098,0,1.734
		c0.447,0.323,0.627,0.893,0.817,1.422c0.086,0.242,0.139,0.507,0.352,0.602c0.682,0.305,1.016,1.053,1.749,1.266
		c0.676-0.263,1.385-0.55,2.104-0.809c0.153-0.055,0.344-0.008,0.642-0.008c-0.357,1.198-0.563,2.358-1.436,3.224
		c-0.355,0.069-0.753-0.155-0.96,0.334c-0.3-0.355-0.618-0.327-1.024-0.313c-0.13-0.176-0.297-0.402-0.513-0.694
		c0.162-0.378-0.358-0.784-0.223-1.351c-0.347-0.333-0.732-0.688-0.861-1.184c-0.304,0-0.516,0-0.774,0
		c-0.206,0.232-0.442,0.499-0.743,0.837c0,0.232,0,0.589,0,0.966c0.499,0.643,1.491,1.132,0.85,2.257c-0.402,0-0.755,0-1.073,0
		c-1.096,0.657-0.845,1.702-0.869,2.66c0.399,0.542,0.147,1.164,0.213,1.747c0.02,0.172,0.003,0.349,0.003,0.477
		c0.362,0.389,0.771,0.536,1.226,0.579c0.145,0.152,0.029,0.343,0.076,0.509c0.178,0.179,0.356,0.356,0.534,0.535
		c0.67-0.077,1.273,0.421,1.926,0.197c0.447,0.452,0.887,0.752,1.503,0.924c0.721,0.202,1.395,0.661,2.012,1.112
		c0.416,0.304,0.804,0.611,1.274,0.845c0.389,0.193,0.657,0.605,0.749,1.147c-0.168,0.125-0.367,0.274-0.676,0.505
		c-0.401,0-0.972,0-1.626,0c-0.458-0.687-1.392-0.849-1.999-1.481c-0.34-0.354-0.939-0.11-1.323-0.44
		c-0.678,0.087-1.254-0.268-1.825-0.451c-0.862,0.208-1.269,0.922-1.848,1.403c0,0.445,0,0.877,0,1.312
		c0.527,0.774,1.757,0.568,2.126,1.562c0.104,0.469-0.013,0.928-0.282,1.347c-0.354,0.069-0.66-0.018-0.758-0.384
		c-0.155-0.578-0.59-0.929-0.974-1.326c-0.297-0.16-0.37,0.363-0.661,0.216c-0.437,0.684-0.42,1.551-0.906,2.221
		c-0.088,0.121-0.056,0.339-0.058,0.512c-0.005,0.685-0.023,1.369,0.004,2.052c0.025,0.63,0.177,1.227,0.78,1.689
		c0.292-0.1,0.678,0.161,1.035-0.174c0.122-0.115,0.404-0.116,0.571,0.083c0.143,0.169,0.336,0.056,0.534,0.103
		c0.302,0.313,0.625,0.646,0.958,0.99c0,0.338,0,0.696,0,1.055c-0.254,0.237-0.482,0.48-0.82,0.633
		c-0.252,0.114-0.449,0.196-0.667,0.025c-0.332-0.259-0.582-0.143-0.855,0.178c0,0.267,0,0.581,0,0.86
		c-0.333,0.293-0.313,0.733-0.576,0.998c-0.806,0.806-1.771,1.391-2.852,1.71c-0.88,0.26-1.833,0.281-2.722,0.489
		c-0.921,0.215-1.823,0.092-2.727,0.189c-0.378,0.041-0.691-0.119-0.98-0.252c-1.081-0.492-2.075-1.138-3-1.889
		c-0.21-0.171-0.449-0.305-0.687-0.462c-0.201,0-0.417,0-0.633-0.001c-2.021-1.921-1.96-2.154-2.127-2.776
		c-0.269-0.28-0.623-0.387-0.862-0.479c-0.369,0.044-0.474,0.224-0.608,0.463c0.27,0.428,0.516,0.916,0.854,1.327
		c0.352,0.426,0.626,0.889,0.928,1.343c0.312,0.471,0.793,0.829,1.2,1.236s0.814,0.814,1.222,1.222
		c1.103,0.233,1.457,0.582,1.66,1.633c-0.354,0.326-0.783,0.36-1.241,0.357c-2.052-0.012-4.104,0.002-6.156-0.013
		c-0.334-0.003-0.733,0.197-0.93-0.231c-0.318,0.096-0.522,0.262-0.835,0.255c-1.583-0.035-3.168-0.032-4.751-0.006
		c-0.463,0.008-0.831-0.327-1.317-0.241c-0.418,0.074-0.861,0.016-1.293,0.015c-0.459-0.501-1.065-0.44-1.594-0.431
		c-0.859-0.339-1.565-0.851-2.413-1.105c-0.499-0.15-0.896-0.608-1.387-0.816C19.576,62.636,19.566,62.658,18.738,61.829z
		 M50.491,38.86c-0.274,0.82-1.13,1.087-1.314,1.886c0.004,0.77,0.004,0.77,0.113,0.866c0.219,0,0.434,0,0.643,0
		c1.855-1.6,1.907-3.749,1.825-5.942c-0.217-0.096-0.156-0.364-0.295-0.517c-0.572-0.017-0.57-0.009-0.972,0.282
		C50.491,36.568,50.491,37.715,50.491,38.86z M43.115,36.954c-0.777-0.475-1.486-0.428-2.132,0.215
		c-0.015,0.349-0.12,0.72,0.305,0.971c0.275,0,0.587,0,0.749,0c0.524-0.189,0.859-0.42,1.078-0.757
		C43.115,37.224,43.115,37.085,43.115,36.954z M50.481,44.318c-0.237-0.35-0.396-0.583-0.522-0.77
		c-0.228,0.013-0.365,0.02-0.556,0.029c-0.043,0.667,0.013,1.238,0.74,1.538C50.209,44.777,50.513,44.576,50.481,44.318z
		 M50.381,47.646c0.135-0.16,0.411-0.285,0.295-0.515c-0.182-0.355-0.099-0.808-0.43-1.104c-0.09-0.08-0.178-0.094-0.339-0.09
		c-0.032,0.179-0.339,0.196-0.312,0.479C49.702,46.925,49.947,47.345,50.381,47.646z M47.958,36.635
		c-0.137,0.073-0.326-0.073-0.491,0.098c0,0.22,0,0.457,0,0.712c0.172,0.084,0.242,0.349,0.586,0.263
		c-0.054-0.213,0.129-0.361,0.243-0.55C48.018,37.077,48.188,36.753,47.958,36.635z"/>
	<path style="fill-rule:evenodd;clip-rule:evenodd;" d="M24.514,34.987c0.375,0.388,0.767,0.695,0.922,1.265
		c-0.295,0.488-0.961,0.766-1.046,1.577c0.326,0.57,0.468,1.339,0.359,2.18c-0.217,0.325-0.763,0.389-0.816,0.999
		c0.305,0.37,0.075,0.832,0.018,1.336c-0.058,0.518-0.412,0.983-0.235,1.572c0.444,0.385,0.874,0.708,1.607,0.33
		c0.418-0.216,1.022,0.019,1.518-0.24c0.118-0.062,0.329-0.062,0.501,0.064c0.583,0.425,1.406,0.597,1.535,1.519
		c-0.082,0.09-0.176,0.193-0.322,0.353c-0.317-0.093-0.696,0.142-1.055-0.169c-0.106-0.092-0.375-0.109-0.505-0.041
		c-0.495,0.264-1.02,0.17-1.536,0.21c-0.616,0.048-1.122,0.289-1.342,0.934c-0.032,0.093-0.129,0.163-0.207,0.256
		c0,0.558,0,1.132,0,1.72c-0.281,0.269-0.565,0.542-0.869,0.833c0,0.173-0.072,0.401,0.012,0.514
		c0.401,0.537,0.179,1.075-0.031,1.549c-0.262,0.589-0.281,1.111,0.103,1.689c0.579,0.274,1.263,0.334,1.953,0.265
		c0.313,0.3,0.646,0.563,0.77,0.989c0,0.359,0,0.719,0,1.076c-0.155,0.154-0.307,0.307-0.477,0.477
		c-0.228,0.153-0.533,0.001-0.763,0.07c-0.115,0.167-0.26,0.28-0.26,0.394c0.003,0.639-0.417,1.023-0.837,1.379
		c-0.416,0.352-0.966,0.503-1.48,0.57c-0.647,0.086-1.335,0.118-1.957-0.195c-0.739-0.371-1.526-0.219-2.286-0.195
		c-0.96,0.029-1.731-0.26-2.454-0.888c-0.39-0.339-0.87-0.654-1.462-0.645c-0.47-0.45-0.993-0.869-1.212-1.578
		c0.321-0.442,0.782-0.654,1.327-0.569c0.769,0.119,1.543,0.249,2.284,0.478c0.618,0.191,0.985,0.771,1.463,1.221
		c0.292,0,0.605,0,0.953,0c0-0.33,0-0.645,0-0.986c-0.253-0.253-0.533-0.533-0.816-0.816c0.05-0.29-0.08-0.529-0.234-0.754
		c0.263-0.623,0.427-1.279,0.826-1.816c0.233-1.451-0.129-2.809-0.748-4.275c-0.945-0.517-1.003-1.778-1.575-2.729
		c-0.08-0.132-0.011-0.354-0.011-0.533c0-0.863,0-1.727,0-2.652c-0.357-0.311-0.629-0.782-1.321-0.925
		c-0.073,0.091-0.292,0.256-0.368,0.472c-0.41,1.167-1.324,1.793-2.389,2.29c-0.274-0.159-0.632-0.21-0.89-0.55
		c-0.056-0.688,0.615-1.254,0.399-2.016c0.604-0.183,0.926-0.612,1.305-0.972c-0.033-0.787,0.722-1.206,0.902-1.959
		c-0.251-0.932-0.854-1.469-1.894-1.436c-0.063-0.392-0.481-0.665-0.228-1.097c-0.521-0.651-1.604-0.913-1.315-2.046
		c0.084-0.085,0.187-0.187,0.289-0.29c0.502,0,1.006,0,1.54,0c0.56,0.711,1.357,1.196,2.007,1.838
		c0.417,0.412,0.969,0.882,2.011,1.407c0.185-0.144,0.355-0.344,0.57-0.423c0.187-0.068,0.427,0.007,0.557-0.22
		c0.146,0.073,0.215,0.316,0.512,0.136c-0.053,0.724,0.42,1.173,0.718,1.683c0.344,0.588,0.065,1.182,0.203,1.736
		c0.229,0.408,0.608,0.314,0.956,0.32c0.772-0.669,0.97-1.466,0.605-2.432c-0.129-0.34-0.108-0.726-0.271-1.076
		c-0.145-0.31,0.124-0.585,0.231-0.915c-0.263-0.735-0.643-1.415-1.272-1.874c-0.222-0.926,0.191-1.64,0.68-2.402
		c-0.253-0.174-0.486-0.335-0.858-0.591c0.017,0-0.199,0-0.264,0c-1.014-0.331-1.21-1.014-1.108-1.847
		c-0.363-0.216-0.556-0.588-0.632-0.926c-0.095-0.424-0.21-0.799-0.538-1.075c-0.268-0.225,0.002-0.657-0.354-0.828
		c-0.012-0.725-0.399-1.418-0.161-2.184c0.125-0.134,0.463,0.066,0.448-0.304c0.534,0.2,1.001,0.374,1.445,0.54
		c0.563,0.812,0.563,1.886,1.415,2.511c0.677,0.075,1.449-0.178,2.142,0.413c0.118,0.546,0.568,1.077,0.135,1.771
		c-0.145,0.233-0.023,0.633-0.023,0.957c0.236,0.252,0.545,0.449,0.588,0.853c0.057,0.49,0.175,1.016-0.148,1.408
		c-0.047,0.468,0.337,0.653,0.387,0.997c0.108,0.708-0.151,1.468,0.297,2.167c0.274,0.023,0.458,0.389,0.745,0.317
		c0.384-0.065,0.465-0.405,0.748-0.532c0-0.47,0-0.928,0-1.406c0.208,0,0.377,0,0.584,0C24.514,33.822,24.514,34.425,24.514,34.987z
		 M20.46,40.979c-0.006,0.509-0.502,0.778-0.393,1.322c0.637-0.21,0.918-0.717,1.323-1.142c-0.177-0.165-0.298-0.278-0.418-0.392
		C20.865,40.911,20.729,41.005,20.46,40.979z"/>
	<path style="fill-rule:evenodd;clip-rule:evenodd;" d="M33.907,34.5c-0.472,0.611-1.194,0.634-1.692,1.042
		c-0.106,0.086-0.351,0.09-0.422,0.247c-0.334,0.734-1.032,1.138-1.502,1.718c-0.29,0.052-0.383-0.181-0.536-0.302
		c-0.103-0.479,0.05-0.902,0.355-1.236c0.215-0.235,0.337-0.515,0.478-0.775c0.512-0.953,0.563-1.042,1.394-1.549
		C32.542,34.053,33.411,33.753,33.907,34.5z"/>
	<path style="fill-rule:evenodd;clip-rule:evenodd;" d="M36.017,37.512c1.039,0,1.53,0.113,2.122,0.513c0,0.368,0,0.752,0,1.221
		c-0.981-0.135-1.892,0.43-3.016,0.131c-0.27-0.123-0.218-0.491-0.196-0.862C35.252,38.215,35.591,37.903,36.017,37.512z"/>
	<path style="fill-rule:evenodd;clip-rule:evenodd;" d="M21.96,19.043c0,0.144,0,0.287,0,0.431c-0.797,0.411-0.881,0.5-2.783,0.041
		c-0.008-0.096-0.021-0.198-0.024-0.3c-0.004-0.14-0.001-0.279-0.001-0.397c0.728-0.517,1.524-0.234,2.252-0.331
		C21.605,18.688,21.782,18.866,21.96,19.043z"/>
	<path style="fill-rule:evenodd;clip-rule:evenodd;" d="M26.469,38.28c0.247-0.115,0.201-0.372,0.331-0.533c0.521,0,1.047,0,1.556,0
		c0.114,0.119,0.211,0.221,0.329,0.343c-0.259,0.46-0.213,1.089-0.94,1.367C27.098,39.438,26.686,38.983,26.469,38.28z"/>
	<path style="fill-rule:evenodd;clip-rule:evenodd;" d="M61.076,42.87c0.47,0.168,0.966,0.346,1.474,0.527c0,0.225,0,0.433,0,0.731
		c-0.15,0.13-0.358,0.312-0.587,0.511c-0.141,0-0.318,0-0.496,0C60.474,43.776,60.406,43.503,61.076,42.87z"/>
	<path style="fill-rule:evenodd;clip-rule:evenodd;" d="M27.903,17.165c-0.426-0.41-0.813-0.783-1.186-1.143
		c-0.033-0.281-0.019-0.523,0.314-0.718c0.232,0,0.546,0,0.915,0c0.399,0.313,0.369,0.86,0.526,1.344
		C28.27,16.833,28.084,17,27.903,17.165z"/>
	<path style="fill-rule:evenodd;clip-rule:evenodd;" d="M33.998,31.413c-0.52,0.169-0.627-0.145-0.905-0.341
		c0.299-0.324,0.556-0.602,0.819-0.886c0.243,0,0.482,0,0.712,0c0.15,0.169,0.133,0.417,0.065,0.51
		C34.48,30.979,34.202,31.21,33.998,31.413z"/>
	<path style="fill-rule:evenodd;clip-rule:evenodd;" d="M62.258,31.219c0.112,0.271,0.326,0.216,0.498,0.312
		c0,0.225,0,0.465,0,0.716c-0.09,0.089-0.19,0.19-0.291,0.291c-0.233,0.012-0.569-0.199-0.978-0.615
		C61.521,31.474,62.012,31.542,62.258,31.219z"/>
	<path style="fill-rule:evenodd;clip-rule:evenodd;fill:none;" d="M50.491,38.86c0-1.146,0-2.292,0-3.425
		c0.401-0.291,0.399-0.298,0.972-0.282c0.139,0.152,0.078,0.421,0.295,0.517c0.082,2.193,0.03,4.342-1.825,5.942
		c-0.209,0-0.424,0-0.643,0c-0.109-0.097-0.109-0.097-0.113-0.866C49.361,39.947,50.216,39.681,50.491,38.86z"/>
	<path style="fill-rule:evenodd;clip-rule:evenodd;fill:none;" d="M43.115,36.954c0,0.131,0,0.27,0,0.429
		c-0.219,0.337-0.554,0.567-1.078,0.757c-0.162,0-0.474,0-0.749,0c-0.425-0.251-0.319-0.622-0.305-0.971
		C41.628,36.525,42.337,36.479,43.115,36.954z"/>
	<path style="fill-rule:evenodd;clip-rule:evenodd;fill:none;" d="M50.481,44.318c0.032,0.258-0.271,0.459-0.338,0.798
		c-0.728-0.3-0.783-0.871-0.74-1.538c0.19-0.01,0.328-0.017,0.556-0.029C50.085,43.735,50.244,43.969,50.481,44.318z"/>
	<path style="fill-rule:evenodd;clip-rule:evenodd;fill:none;" d="M50.381,47.646c-0.435-0.302-0.68-0.722-0.785-1.229
		c-0.027-0.283,0.279-0.301,0.312-0.479c0.161-0.004,0.249,0.01,0.339,0.09c0.331,0.297,0.248,0.749,0.43,1.104
		C50.792,47.361,50.516,47.486,50.381,47.646z"/>
	<path style="fill-rule:evenodd;clip-rule:evenodd;fill:none;" d="M47.958,36.635c0.229,0.118,0.06,0.442,0.338,0.523
		c-0.114,0.188-0.297,0.337-0.243,0.55c-0.344,0.086-0.414-0.179-0.586-0.263c0-0.255,0-0.492,0-0.712
		C47.632,36.562,47.822,36.708,47.958,36.635z"/>
	<path style="fill-rule:evenodd;clip-rule:evenodd;fill:none;" d="M20.46,40.979c0.269,0.025,0.405-0.068,0.511-0.211
		c0.121,0.113,0.242,0.227,0.418,0.392c-0.405,0.425-0.686,0.932-1.323,1.142C19.958,41.758,20.454,41.488,20.46,40.979z"/>
</g>
</svg>
