<svg xmlns="http://www.w3.org/2000/svg" xml:space="preserve" width="72px" height="72px" viewBox="0 0 72 72">
    <g fill="currentColor">
        <path d="M18.738 61.829v-.903c.399-.318.847-.308 1.303-.307 1.665.004 3.313-.334 4.988-.231.341.021.702-.192 1.046-.321.217-.08.42-.293.628-.29.564.009 1.059-.401 1.624-.209.122-.3.452-.341.618-.376.366-.077.674-.371 1.12-.287.207-.258.433-.535.735-.905-.233-.834-1.13-1.309-1.708-2.046.102-.57.514-.947.955-1.356 1.336-.028 2.479-1.068 3.892-.876l.549-.549v-.438l-.578-.565h-2.427l-.022-.448c.359-.623 1.042-.73 1.543-1.069.402.081.68.258.96.461.424.308.945.285 1.416.209 1.771-.283 1.835-.313 3.227.141.843.275 1.699.354 2.572.295.152-.01.297-.144.453-.224.214.296.604.135.836.337.341.297.614.63.675 1.125.051.417.476.816.007 1.235.111.404-.374.68-.232 1.098l-.94.916c-.509.083-1.001.401-1.556.259-.288.315-.546.6-.896.982 1.116.229 1.776.931 2.401 1.621.645.058 1.165-.21 1.709-.489 1.323.536 1.999 1.793 3.086 2.629h.896c.225-.75-.338-1.219-.588-1.96.108-.881-.294-1.722-1.061-2.413-.198-.923.484-1.387 1.003-1.93.111-.54.416-1.066.254-1.622-.357-1.22-.152-2.462-.203-3.693-.019-.445-.172-.863-.532-1.063-.7-.389-1.156-.921-1.457-1.659-.076-.188-.168-.431-.34-.622-.347-.387-.464-.886-.489-1.413-.029-.585.14-1.185-.19-1.758-.094-.162-.017-.443.112-.692.212-.406.276-.883.467-1.317.203-.465.021-.94-.464-1.628h-.9c-.568.363-1.215.733-1.812 1.172-.367.27-.701.569-1.186.531-.326-.025-.53.386-.886.215l-1.292 1.302c-.671-.021-1.081.411-1.486.844-.355.03-.721.117-.958-.267-.016-.648-.016-.648.403-1.358.333-.145.727-.225 1.091-.403.57-.279.933-.683 1.053-1.285.125-.628.5-1.133 1.008-1.388.57-.287.671-.705.738-1.204-.347-.393-.962-.481-1.082-1.075v-.899l.81-.738c.616-.079 1.112.51 1.821.644-.426-.818-1.31-1.666-2.198-2.158-.477.24-.996.363-1.472.627-.427.239-.972.206-1.445.415-.267.118-.67.151-.917-.039-.224-.172-.469-.095-.692-.153v-.796c.754-.485 1.521-.882 2.441-.927.639-.031.88-.298.998-.945-.505-.571-1.138-1.04-1.516-1.736-.081-.148-.19-.255-.229-.449-.117-.597-.438-1.059-1.048-1.274-.362-.129-.621-.338-.765-.743-.259-.727-.883-1.214-1.464-1.635a2.6 2.6 0 0 1-.785-.9c-.008-1.236-.709-2.163-1.557-2.988-.19-.185-.49-.351-.825-.34-.479.014-.844-.213-1.106-.556.037-.51.532-.445.767-.752 1.285.167 2.438-.162 3.333-1.173.122-.929-.406-1.799-.175-2.696-.516-.723-.589-1.602-1.09-2.301-.153-.214-.137-.693 0-.942.284-.513.132-1.031.196-1.543.124-.997.452-1.9 1.151-2.529.353-.099.405.319.712.164.395.899.462 1.758-.051 2.652-.24.418-.525.869-.114 1.421.155.208.025.629.025.953.167.57.647.896 1.043 1.342.296 1.244.569 2.53.451 3.89-.78 1.17-1.102.989-.841 3.265.366.396.688.828.908 1.412a3.72 3.72 0 0 0 1.692 1.92c.166.091.297.26.552.241.641-.046 1.187.175 1.702.593.235.191.613.251.88.474 1.119-.265 2.019-.993 3.174-1.648-.216.773-.503 1.396-.073 1.99-.533.967-1.31 1.563-2.529 1.625l-.623-.687c-.356.062-.496.377-.739.595.138.269.184.582.465.84-.017-.017.006.027.034.032 1.025.159 1.385 1.152 2.112 1.682 1.117.815 2.149 1.765 3.566 2.093.164.038.424.176.619.333.244.196.532.05.753-.249v-.84c-.733-1.491-1.63-2.877-1.475-4.593.505-.32 1.194-.257 1.532-.965-.083-.606-.719-1.04-.877-1.829.344-.43 1.202-.56 1.203-1.583-.326-.675-1.019-1.397-1.43-2.419.003.057-.013-.015-.002-.083.222-1.492-.59-2.687-1.137-3.958-.563-.3-.322-.938-.575-1.384-.317-.557-.512-1.154-1.146-1.489-.792-.419-1.008-1.243-1.255-2.032-.113-.361.249-.564.23-.881.363-.196.718-.427 1.228-.266.768.613 1.076 1.663 1.831 2.484.443.018.867.387 1.364.282.39.361.499.762.553 1.234.081.704.22 1.412.446 2.081.073.215.112.565.413.735h1.017l.497-.575h.988c.332.301.398.824.895 1.046.588.184.934-.373 1.501-.598.22.503.639.9.306 1.655-.487 1.106-.399 1.145-1.11 1.866v1.08l.531.531h1.097c.555.629.589 1.294.208 2.146-.618.435-.797 1.222-.757 2.094.005.108.047.259-.007.317-.552.599.014 1.189.044 1.77.026.51.538.867.927 1.227.292.052.567.042.723-.295.145-.291-.176-.72.28-.889-.2-.609-.526-1.114-.45-1.707.503-.612 1.119-1.038 1.889-1.19.324-.064.425-.355.678-.514v-.922l.591-.363.483.58v.665c-.019.023-.075.111-.148.18-.419.392-.726.825-.694 1.444.025.487-.293.824-.622 1.194v1.734c.447.323.627.893.817 1.422.086.242.139.507.352.602.682.305 1.016 1.053 1.749 1.266.676-.263 1.385-.55 2.104-.809.153-.055.344-.008.642-.008-.357 1.198-.563 2.358-1.436 3.224-.355.069-.753-.155-.96.334-.3-.355-.618-.327-1.024-.313l-.513-.694c.162-.378-.358-.784-.223-1.351-.347-.333-.732-.688-.861-1.184h-.774l-.743.837v.966c.499.643 1.491 1.132.85 2.257h-1.073c-1.096.657-.845 1.702-.869 2.66.399.542.147 1.164.213 1.747.02.172.003.349.003.477.362.389.771.536 1.226.579.145.152.029.343.076.509l.534.535c.67-.077 1.273.421 1.926.197.447.452.887.752 1.503.924.721.202 1.395.661 2.012 1.112.416.304.804.611 1.274.845.389.193.657.605.749 1.147l-.676.505h-1.626c-.458-.687-1.392-.849-1.999-1.481-.34-.354-.939-.11-1.323-.44-.678.087-1.254-.268-1.825-.451-.862.208-1.269.922-1.848 1.403v1.312c.527.774 1.757.568 2.126 1.562.104.469-.013.928-.282 1.347-.354.069-.66-.018-.758-.384-.155-.578-.59-.929-.974-1.326-.297-.16-.37.363-.661.216-.437.684-.42 1.551-.906 2.221-.088.121-.056.339-.058.512-.005.685-.023 1.369.004 2.052.025.63.177 1.227.78 1.689.292-.1.678.161 1.035-.174.122-.115.404-.116.571.083.143.169.336.056.534.103l.958.99v1.055c-.254.237-.482.48-.82.633-.252.114-.449.196-.667.025-.332-.259-.582-.143-.855.178v.86c-.333.293-.313.733-.576.998a6.7 6.7 0 0 1-2.852 1.71c-.88.26-1.833.281-2.722.489-.921.215-1.823.092-2.727.189-.378.041-.691-.119-.98-.252-1.081-.492-2.075-1.138-3-1.889-.21-.171-.449-.305-.687-.462l-.633-.001c-2.021-1.921-1.96-2.154-2.127-2.776-.269-.28-.623-.387-.862-.479-.369.044-.474.224-.608.463.27.428.516.916.854 1.327.352.426.626.889.928 1.343.312.471.793.829 1.2 1.236l1.222 1.222c1.103.233 1.457.582 1.66 1.633-.354.326-.783.36-1.241.357-2.052-.012-4.104.002-6.156-.013-.334-.003-.733.197-.93-.231-.318.096-.522.262-.835.255a123 123 0 0 0-4.751-.006c-.463.008-.831-.327-1.317-.241-.418.074-.861.016-1.293.015-.459-.501-1.065-.44-1.594-.431-.859-.339-1.565-.851-2.413-1.105-.499-.15-.896-.608-1.387-.816-1.423-.609-1.433-.587-2.261-1.416M50.491 38.86c-.274.82-1.13 1.087-1.314 1.886.004.77.004.77.113.866h.643c1.855-1.6 1.907-3.749 1.825-5.942-.217-.096-.156-.364-.295-.517-.572-.017-.57-.009-.972.282zm-7.376-1.906c-.777-.475-1.486-.428-2.132.215-.015.349-.12.72.305.971h.749c.524-.189.859-.42 1.078-.757zm7.366 7.364-.522-.77c-.228.013-.365.02-.556.029-.043.667.013 1.238.74 1.538.066-.338.37-.539.338-.797m-.1 3.328c.135-.16.411-.285.295-.515-.182-.355-.099-.808-.43-1.104-.09-.08-.178-.094-.339-.09-.032.179-.339.196-.312.479.107.509.352.929.786 1.23m-2.423-11.011c-.137.073-.326-.073-.491.098v.712c.172.084.242.349.586.263-.054-.213.129-.361.243-.55-.278-.081-.108-.405-.338-.523"/>
        <path d="M24.514 34.987c.375.388.767.695.922 1.265-.295.488-.961.766-1.046 1.577.326.57.468 1.339.359 2.18-.217.325-.763.389-.816.999.305.37.075.832.018 1.336-.058.518-.412.983-.235 1.572.444.385.874.708 1.607.33.418-.216 1.022.019 1.518-.24.118-.062.329-.062.501.064.583.425 1.406.597 1.535 1.519l-.322.353c-.317-.093-.696.142-1.055-.169-.106-.092-.375-.109-.505-.041-.495.264-1.02.17-1.536.21-.616.048-1.122.289-1.342.934-.032.093-.129.163-.207.256v1.72l-.869.833c0 .173-.072.401.012.514.401.537.179 1.075-.031 1.549-.262.589-.281 1.111.103 1.689.579.274 1.263.334 1.953.265.313.3.646.563.77.989v1.076l-.477.477c-.228.153-.533.001-.763.07-.115.167-.26.28-.26.394.003.639-.417 1.023-.837 1.379-.416.352-.966.503-1.48.57-.647.086-1.335.118-1.957-.195-.739-.371-1.526-.219-2.286-.195-.96.029-1.731-.26-2.454-.888-.39-.339-.87-.654-1.462-.645-.47-.45-.993-.869-1.212-1.578.321-.442.782-.654 1.327-.569.769.119 1.543.249 2.284.478.618.191.985.771 1.463 1.221h.953V55.3l-.816-.816c.05-.29-.08-.529-.234-.754.263-.623.427-1.279.826-1.816.233-1.451-.129-2.809-.748-4.275-.945-.517-1.003-1.778-1.575-2.729-.08-.132-.011-.354-.011-.533v-2.652c-.357-.311-.629-.782-1.321-.925-.073.091-.292.256-.368.472-.41 1.167-1.324 1.793-2.389 2.29-.274-.159-.632-.21-.89-.55-.056-.688.615-1.254.399-2.016.604-.183.926-.612 1.305-.972-.033-.787.722-1.206.902-1.959-.251-.932-.854-1.469-1.894-1.436-.063-.392-.481-.665-.228-1.097-.521-.651-1.604-.913-1.315-2.046l.289-.29h1.54c.56.711 1.357 1.196 2.007 1.838.417.412.969.882 2.011 1.407.185-.144.355-.344.57-.423.187-.068.427.007.557-.22.146.073.215.316.512.136-.053.724.42 1.173.718 1.683.344.588.065 1.182.203 1.736.229.408.608.314.956.32.772-.669.97-1.466.605-2.432-.129-.34-.108-.726-.271-1.076-.145-.31.124-.585.231-.915-.263-.735-.643-1.415-1.272-1.874-.222-.926.191-1.64.68-2.402l-.858-.591h-.264c-1.014-.331-1.21-1.014-1.108-1.847-.363-.216-.556-.588-.632-.926-.095-.424-.21-.799-.538-1.075-.268-.225.002-.657-.354-.828-.012-.725-.399-1.418-.161-2.184.125-.134.463.066.448-.304l1.445.54c.563.812.563 1.886 1.415 2.511.677.075 1.449-.178 2.142.413.118.546.568 1.077.135 1.771-.145.233-.023.633-.023.957.236.252.545.449.588.853.057.49.175 1.016-.148 1.408-.047.468.337.653.387.997.108.708-.151 1.468.297 2.167.274.023.458.389.745.317.384-.065.465-.405.748-.532v-1.406h.584zm-4.054 5.992c-.006.509-.502.778-.393 1.322.637-.21.918-.717 1.323-1.142l-.418-.392c-.107.144-.243.238-.512.212M33.907 34.5c-.472.611-1.194.634-1.692 1.042-.106.086-.351.09-.422.247-.334.734-1.032 1.138-1.502 1.718-.29.052-.383-.181-.536-.302-.103-.479.05-.902.355-1.236.215-.235.337-.515.478-.775.512-.953.563-1.042 1.394-1.549.56.408 1.429.108 1.925.855m2.11 3.012c1.039 0 1.53.113 2.122.513v1.221c-.981-.135-1.892.43-3.016.131-.27-.123-.218-.491-.196-.862zM21.96 19.043v.431c-.797.411-.881.5-2.783.041-.008-.096-.021-.198-.024-.3-.004-.14-.001-.279-.001-.397.728-.517 1.524-.234 2.252-.331zm4.509 19.237c.247-.115.201-.372.331-.533h1.556l.329.343c-.259.46-.213 1.089-.94 1.367-.647-.019-1.059-.474-1.276-1.177m34.607 4.59 1.474.527v.731l-.587.511h-.496c-.993-.863-1.061-1.136-.391-1.769M27.903 17.165l-1.186-1.143c-.033-.281-.019-.523.314-.718h.915c.399.313.369.86.526 1.344-.202.185-.388.352-.569.517m6.095 14.248c-.52.169-.627-.145-.905-.341l.819-.886h.712c.15.169.133.417.065.51-.209.283-.487.514-.691.717m28.26-.194c.112.271.326.216.498.312v.716l-.291.291c-.233.012-.569-.199-.978-.615.034-.449.525-.381.771-.704"/>
    </g>
</svg>
