<?xml version="1.0" encoding="iso-8859-1"?>
<!-- Generator: Adobe Illustrator 16.0.0, SVG Export Plug-In . SVG Version: 6.00 Build 0)  -->
<!DOCTYPE svg PUBLIC "-//W3C//DTD SVG 1.1//EN" "http://www.w3.org/Graphics/SVG/1.1/DTD/svg11.dtd">
<svg version="1.1" id="Layer_1" xmlns="http://www.w3.org/2000/svg" xmlns:xlink="http://www.w3.org/1999/xlink" x="0px" y="0px"
	 width="72.36px" height="72.18px" viewBox="0 0 72.36 72.18" style="enable-background:new 0 0 72.36 72.18;" xml:space="preserve"
	>
<g>
	
	<path fill="currentColor" d="M18.667,38.456c1.364-0.645,2.339-0.107,3.234,0.633
		c0.524,0.434,0.964,0.969,1.462,1.438c0.274,0.258,0.469,0.612,0.896,0.706c0.148,0.032,0.289,0.221,0.38,0.37
		c0.677,1.114,1.766,1.845,2.594,2.814c0.195,0.229,0.528,0.187,0.687,0.438c0.442-0.155,0.784,0.253,1.206,0.216
		c0.442-0.204,0.628-0.634,0.815-1.025c0.313-0.653,0.669-1.265,1.189-1.774c0.81-0.793,1.012-0.826,2.127-0.295
		c0.264,0.637,0.693,1.21,1.239,1.709c0.486,0.444,0.926,0.865,1.637,1.023c0.593,0.133,1.068,0.652,1.372,1.217
		c0.453,0.842,1.074,1.51,1.92,1.941c0.237,0.12,0.381,0.225,0.473,0.485c0.229,0.65,0.772,1.069,1.245,1.533
		c0.41,0.402,0.927,0.426,1.483,0.341c0.24-0.523,0.426-1.111,0.755-1.603c0.45-0.674,1.137-1.142,1.901-1.372
		c0.716-0.216,1.357-0.571,1.999-0.907c0.615-0.322,1.013-0.937,1.234-1.603c0.134-0.405,0.322-0.745,0.622-1.04
		c0.321-0.317,0.619-0.644,0.855-1.046c0.367-0.621,0.411-0.591,1.156-1.045c0.177-0.107,0.337-0.253,0.48-0.403
		c1.034-1.08,2.31-1.831,3.551-2.621c1.15,0.498,2.475,0.269,2.864-1.193c0.157-0.592,0.659-0.921,1.193-1.228
		c0.405-0.233,0.909-0.325,1.208-0.743c0.556-0.779,1.119-1.552,1.678-2.325c0.026-1.997,0.334-2.506,1.641-2.723
		c0.279-0.28,0.591-0.536,0.831-0.847c0.249-0.32,0.631-0.417,0.921-0.657c0.437,0.134,0.827,0.339,1.116,0.746
		c0.476,1.855,0.202,3.78,0.241,5.688c0.019,0.95,0.08,1.888,0.222,2.827c0.045,0.303,0.061,0.635-0.203,0.846
		c-0.046,0.265,0.272,0.313,0.227,0.597c-0.113,0.683,0.154,1.405-0.224,2.072c-0.062,0.108-0.017,0.283-0.007,0.427
		c0.062,0.881-0.115,1.741-0.197,2.611c-0.081,0.862-0.635,1.57-0.668,2.429c-0.864,1.874-1.634,3.8-2.63,5.601
		c-0.551,0.996-1.284,1.92-1.928,2.881c-0.297,0.444-0.684,0.792-1.001,1.204c-0.806,1.045-1.731,1.976-2.687,2.875
		c-0.88,0.829-1.766,1.66-2.842,2.251c-0.359,0.197-0.659,0.505-0.97,0.761c-0.745,0.614-1.596,1.023-2.413,1.5
		c-0.436,0.253-0.865,0.515-1.308,0.755c-0.41,0.223-0.878,0.313-1.259,0.629c-0.141,0.116-0.447,0.183-0.633,0.271
		c-0.483,0.231-1.146,0.045-1.475,0.614c-0.431-0.084-0.751,0.291-1.209,0.238c-0.711-0.083-1.438-0.022-2.181-0.022
		c-1.338-0.757-2.442-1.791-3.334-3.068c-0.351-0.502-0.398-1.078-0.47-1.639c-0.068-0.53-0.029-1.078-0.011-1.617
		c0.018-0.503-0.034-0.971-0.418-1.326c-0.179-1.026,0.314-1.679,1.191-2.061c0.738-0.322,1.479-0.668,2.319-0.66
		c0.361,0.004,0.665-0.163,0.898-0.432c0.877-1.011,2.069-1.617,3.112-2.457c0-0.226,0-0.467,0-0.689
		c-0.453-0.513-1.167-0.368-1.669-0.728c-0.085-0.061-0.277-0.006-0.403,0.041c-0.092,0.035-0.156,0.145-0.258,0.246
		c0,0.543,0,1.112,0,1.673c-0.448,0.646-1.034,0.893-1.8,0.846c-1.006-0.061-1.933,0.178-2.885,0.587
		c-0.781,0.335-1.696,0.516-2.527,0.506c-0.626,0.323-1.205,0.551-1.859,0.642c-0.77,0.107-1.531,0.315-1.988,1.028
		c0.371,0.894,1.387,0.942,1.932,1.638c0,0.272,0,0.587,0,0.884c-0.395,0.618-1.126,0.837-1.602,1.37
		c-0.075,0.083-0.312,0.257-0.53,0.249c-0.405-0.016-0.716,0.215-1.002,0.44c-0.44,0.346-0.993,0.526-1.475,0.586
		c-0.823,0.104-1.428,0.578-2.313,0.904c-0.292-0.037-0.775,0.125-1.235-0.188c-0.157-0.107-0.377,0.104-0.562,0.164
		c-0.325,0.105-0.709,0.056-1.066,0.032c-0.326-0.022-0.52,0.293-0.886,0.243c-0.511-0.067-0.981-0.297-1.529-0.263
		c-0.5,0.032-1.042,0.191-1.542-0.172c-0.165-0.12-0.49-0.022-0.742-0.018c-0.533,0.01-0.989-0.181-1.421-0.483
		c-0.609-0.428-1.303-0.692-1.893-1.195c-0.681-0.579-1.396-1.135-2.079-1.717c-1.333-1.136-2.371-2.557-3.573-3.82
		c-0.451-0.474-0.833-1.058-1.178-1.653c-0.318-0.549-0.694-1.086-1.061-1.617c-0.552-0.799-0.564-1.135,0.004-1.919
		c0.102-0.141,0.166-0.301,0.247-0.435c0.297-0.493,0.501-1.041,0.956-1.455c0.311-0.282,0.566-0.702,0.682-1.107
		c0.187-0.659,0.743-1.046,1.032-1.625c0.182-0.367,0.672-0.449,1.033-0.6c0.514-0.214,0.768-0.57,0.801-1.066
		c0.035-0.525,0.276-0.907,0.627-1.257c0.22-0.219,0.375-0.49,0.558-0.732c0.405-0.536,0.775-1.085,1.39-1.492
		c0.76-0.504,1.451-1.218,1.534-2.249C18.515,38.78,18.927,38.758,18.667,38.456z"/>
	<path fill="currentColor" d="M29.26,19.435c0.252,1.047-0.226,2.02-0.198,3.045
		c0.029,1.034,0.466,1.835,1.084,2.572c0.314,0.375,0.676,0.716,1.075,1.021c0.666,0.509,1.375,0.74,2.216,0.646
		c0.801-0.089,1.541,0.207,2.313,0.467c0,0.24,0,0.48,0,0.784c-0.562,0.336-1.168,0.699-1.835,1.099c-0.856,0-1.785,0-2.697,0
		c-1.521-0.736-3.228-1.21-4.076-2.985c-0.009-0.489,0.084-1.082-0.362-1.588c-0.221-0.252,0.097-0.717-0.289-0.944
		c0.209-0.655,0.468-1.29,0.434-1.985c-0.027-0.565,0.202-1.057,0.438-1.542c0.279-0.574,0.755-0.852,1.398-0.88
		C29.028,19.133,29.127,19.324,29.26,19.435z"/>
</g>
</svg>
