<?xml version="1.0" encoding="iso-8859-1"?>
<!-- Generator: Adobe Illustrator 16.0.0, SVG Export Plug-In . SVG Version: 6.00 Build 0)  -->
<!DOCTYPE svg PUBLIC "-//W3C//DTD SVG 1.1//EN" "http://www.w3.org/Graphics/SVG/1.1/DTD/svg11.dtd">
<svg version="1.1" id="Layer_1" xmlns="http://www.w3.org/2000/svg" xmlns:xlink="http://www.w3.org/1999/xlink" x="0px" y="0px"
	 width="72.36px" height="72.18px" viewBox="0 0 72.36 72.18" style="enable-background:new 0 0 72.36 72.18;" xml:space="preserve"
	>
<g>
	<path fill="currentColor" d="M32.335,55.655c-0.394,0-0.826-0.01-1.258,0.003
		c-0.455,0.014-0.927,0.045-1.285-0.283c-0.459-0.42-0.975-0.822-1.128-1.47c-0.088-0.375-0.303-0.669-0.462-0.999
		c-0.509-1.058-1.209-2.06-1.069-3.341c0.063-0.569-0.01-1.152,0.021-1.727c0.013-0.257-0.114-0.394-0.2-0.477
		c-0.307,0.307-0.617,0.617-0.928,0.928c-0.044-0.044-0.088-0.088-0.133-0.132c-0.015,0.065-0.024,0.133-0.046,0.196
		c-0.429,1.282,0.211,2.354,0.779,3.381c0.235,0.426,0.518,0.911,0.922,1.187c0.042,1.349,0.601,2.657-0.135,4.088
		c-0.257,0.269-0.845,0.607-0.888,1.164c-0.08,1.041-0.687,1.83-1.146,2.661c-0.362,0.655-0.71,1.453-1.944,1.76
		c-0.395,0.048-1.117-0.129-1.905-0.464c-0.892,0.588-2.065,0.258-3.176,0.661c-0.745-0.212-1.268-0.753-1.598-1.55
		c0.09-0.367,0.255-0.641,0.594-0.928c0.417-0.353,0.688-0.916,0.926-1.432c0.369-0.799,1.144-1.352,1.326-2.26
		c0.023-0.118,0.178-0.271,0.297-0.298c0.857-0.198,1.289-0.932,1.878-1.463c0.267-0.241,0.511-0.507,0.775-0.771
		c0.118-0.224,0.041-0.473,0.047-0.738c-0.603-0.383-0.873-1.072-1.368-1.574c-0.493-0.499-1.07-0.858-1.655-1.224
		c-0.147-0.092-0.329-0.053-0.457-0.215c-0.643-0.812-1.647-1.23-2.297-2.151c-0.023-0.641-0.678-1.054-0.91-1.695
		c0-0.393,0.018-0.787-0.004-1.179c-0.037-0.685,0.049-1.299,0.575-1.827c0.146-0.146,0.283-0.432,0.305-0.729
		c0.073-0.974,0.666-1.708,1.414-2.196c0.822-0.536,1.362-1.235,1.819-2.057c0.218-0.392,0.461-0.769,0.817-1.069
		c0.562-0.474,0.963-1.076,1.356-1.698c0.29-0.458,0.652-0.921,1.219-1.093c0.375-0.932,1.009-1.75,1.142-2.774
		c0.03-0.231,0.246-0.345,0.4-0.478c0.75-0.645,1.318-1.442,1.81-2.28c0.229-0.39,0.271-0.895,0.373-1.353
		c0.038-0.169,0.006-0.353,0.006-0.357c0.67-1.757,2.022-2.754,3.157-3.965c0.461,0.221,0.641-0.213,0.894-0.41
		c0.741-0.573,1.537-0.972,2.476-1.078c0.119-0.013,0.222-0.158,0.414-0.303c-0.288-1.46-0.652-2.956-0.388-4.624
		c0.085-0.065,0.283-0.216,0.585-0.448c0.601-0.089,1.125-0.47,1.522-1.163c0.417-0.727,0.707-1.517,1.22-2.209
		c0.295-0.399,0.618-0.766,0.967-1.089c0.406-0.375,0.84-0.745,1.287-1.062c0.596-0.421,1.361-0.521,2.056-0.756
		c0.44,0.289,0.94,0.234,1.422,0.209c0.887-0.045,1.678,0.175,2.439,0.64c0.477,0.292,1.021,0.567,1.563,0.631
		c0.639,0.075,0.988,0.579,1.527,0.766c0.268,0.093,0.245,0.404,0.366,0.604c0.168,0.278,0.16,0.666,0.338,0.933
		c0.215,0.323,0.544,0.57,0.803,0.829c0.058,0.881,0.937,1.501,0.71,2.253c0.314,1.135,1.188,1.684,1.703,2.644
		c0.119,0.642-0.268,1.25-0.653,1.857c0.143,0.83-0.567,1.277-0.855,1.997c0.053,1.136-0.381,2.264-0.721,3.4
		c-0.068,0.231-0.146,0.452-0.149,0.689c-0.009,0.612,0.002,1.224-0.004,1.835c-0.006,0.589-0.011,1.164-0.179,1.756
		c-0.116,0.408-0.354,0.82-0.268,1.307c0.074,0.419,0.016,0.861,0.016,1.253c-0.156,0.261-0.326,0.48-0.426,0.728
		c-0.205,0.514-0.473,0.892-0.98,1.225c-0.51,0.335-0.807,1.003-0.749,1.776c0.169,0.154,0.353,0.468,0.583,0.508
		c1.033,0.18,1.841,1.104,2.823,0.9c0.767,0.197,1.052,0.856,1.625,1c0.232,0.296,0.081,0.649,0.311,0.874
		c-0.315,0.646-0.217,1.393-0.522,2.052c-0.313,0.677-0.95,1.035-1.32,1.521c-1.181,0.509-2.204,1.149-3.336,1.545
		c-0.21,0.419-0.483,0.79-0.57,1.201c-0.052,0.247-0.225,0.422-0.244,0.66c-0.009,0.107-0.046,0.248,0.006,0.318
		c0.308,0.423,0.164,0.933,0.295,1.391c0.279,0.982,0.72,1.946,0.554,3.007c-0.044,0.285,0.196,0.437,0.22,0.668
		c0.068,0.679,0.384,1.287,0.49,1.972c0.117,0.756,0.263,1.598,0.891,2.211c0.979,0.576,2.012,1.206,3.238,0.992
		c1.229,0.854,1.786,2.146,2.558,3.269c-0.332,1.147-1.187,1.69-2.153,2.145c-0.688-0.035-0.791-0.844-1.366-1.144
		c-0.389,0.429-0.884,0.649-1.44,0.872c-0.579-0.233-0.933-0.688-0.931-1.431c0-0.253-0.313-0.465-0.196-0.779
		c-0.181-0.175-0.361-0.35-0.564-0.545c-0.457,0.024-0.942,0.027-1.293-0.215c-0.308,0.006-0.363,0.218-0.541,0.33
		c0.188,0.457-0.275,0.824-0.199,1.288c-0.957,0.964-0.957,0.964-2.069,0.993c-0.102,0.102-0.203,0.204-0.306,0.306
		c-0.004,0.322,0.261,0.695,1.072,1.507c0,0.28,0,0.566,0,0.891c-0.165,0.145-0.354,0.31-0.576,0.504
		c-0.242-0.015-0.521,0.063-0.831-0.174c-0.415-0.317-0.947-0.382-1.422-0.024c-0.596,0.447-1.107,0.181-1.566-0.211
		c-0.229-0.194-0.482-0.379-0.588-0.725c-0.073-0.24-0.358-0.415-0.525-0.594c-0.391,0.069-0.569,0.262-0.528,0.597
		c0.048,0.38-0.216,0.634-0.346,0.939c-0.101,0.236-0.341,0.217-0.521,0.208c-0.259-0.273-0.501-0.531-0.854-0.905
		c0.003,0.024-0.017-0.146-0.036-0.313c-0.153-0.172-0.351-0.012-0.491-0.094c-0.122,0.084-0.088,0.231-0.14,0.286
		c-0.286,0.303-0.469,0.677-0.654,0.999c-0.382,0-0.696,0-0.991,0c-0.599-0.87-0.667-0.897-0.269-1.886
		c0.34-0.845,0.169-1.525-0.345-2.175c-0.134-0.169-0.041-0.445-0.334-0.541c0.071-0.713-0.063-1.429,0.199-2.164
		c0.206-0.578-0.079-1.2-0.488-1.829c-0.316-0.484-0.458-1.038-0.612-1.696C32.813,56.045,32.62,55.887,32.335,55.655z
		 M44.424,55.408c0-0.239-0.079-0.496,0.015-0.647c0.268-0.434,0.127-0.787,0.03-1.239c-0.104-0.489-0.326-0.973-0.277-1.517
		c0.063-0.692-0.204-1.317-0.613-2.107c-0.074-0.144-0.228-0.288-0.225-0.438c0.017-0.777-0.581-1.131-0.961-1.559
		c-0.365,0-0.646,0-0.907,0c-0.306,0.328-0.64,0.533-1.059,0.634c-0.881,0.21-1.733,0.48-2.467,1.063
		c-0.472,0.375-1.03,0.637-1.52,0.991c-0.184,0.133-0.432,0.271-0.448,0.648c1.02,0.871,2.265,1.488,3.457,2.261
		c1.251-0.145,2.183,0.872,3.419,1.142c0.229,0.229,0.509,0.508,0.77,0.769C43.898,55.408,44.138,55.408,44.424,55.408z
		 M39.953,56.951c-0.389,0-0.819,0-1.013,0c-0.375,0.256-0.607,0.416-0.853,0.583c0.623,1.049,1.724,0.801,2.654,1.243
		c0.727,0.677,1.402,1.688,2.718,1.629c0.534-0.729,0.344-1.368-0.691-2.384c-0.349,0-0.705,0-0.922,0
		C41.103,57.713,40.551,57.329,39.953,56.951z M33.984,47.278c0.379-0.204,0.688-0.329,0.942-0.579
		c0.396-0.39,0.732-0.841,1.269-1.092c0.308-0.145,0.363-0.544,0.478-0.835c-0.139-0.14-0.241-0.241-0.229-0.229
		c-1.351-0.453-2.125,0.235-2.807,1.096c0,0.438,0,0.865,0,1.263C33.754,47.029,33.851,47.134,33.984,47.278z M41.061,34.511
		c-0.328,0.238-0.491,0.737-1.063,0.617c-0.248,0.302-0.616,0.522-0.818,0.952c0.148,0.139,0.273,0.255,0.373,0.347
		c0.612,0,1.181,0,1.84,0c0.225-0.594,0.453-1.206,0.439-1.916C41.565,34.511,41.358,34.511,41.061,34.511z"/>
</g>
</svg>
