<svg xmlns="http://www.w3.org/2000/svg" xml:space="preserve" width="72px" height="72px" viewBox="0 0 72 72">
    <g fill="currentColor">
        <path d="M31.266 18.188c-.083.361.038.77-.21 1.175-.202.329.15.825-.222 1.208-.108.111-.084.444-.006.626.367.852.124 1.743.223 2.619a26 26 0 0 1 1.717 2.841c.382.731.949 1.264 1.87 1.395.592.487 1.026 1.254 1.914 1.491.738.197 1.354.71 2.128.873.201.042.515.161.69.412.352.5.938.503 1.536.693l1.12 1.145c.195.72-.402 1.355-.109 2.236l.323.199c.002.957.388 1.758.241 2.611-.058.333.099.672-.195 1.009-.211.242.125.569.248.823-.169.357-.253.691-.559.964H40.88c-.14.186-.277.282-.474.267-.244.511-.563 1-.72 1.536-.408 1.396-.408 2.779.342 4.099.299.525.485 1.104.898 1.582.133.153.339.432.267.748a.5.5 0 0 0 .057.404c.594.893.418 1.833.16 2.784-.04.147-.191.265-.182.35.15 1.359-1.069 1.943-1.558 2.91-.868.152-1.624-.137-2.383-.317-.357-.085-.734.041-1.035-.099-.334-.155-.702-.188-1.037-.38-.271-.154-.7-.031-1.052-.031l-.288.288c.285.316.152.726.188 1.146.605.426 1.227.853 2.06.709.305-.327.641-.618 1.225-.646.315.275.722.537.878 1.075l.424.027.736-.872h1.258l.54.539c0 .499.112 1.038-.032 1.495-.141.444-.11.925-.373 1.359-.174.288-.089.717-.195 1.096-.119.427-.355.652-.614.906-.297.085-.354-.4-.628-.201-.438-.645-.193-1.562-1.04-2.037-.291.552-.431 1.203-1.149 1.322-.419-.136-.738-.467-.937-1.052v-.948c-.146-.093-.204-.298-.417-.324-.279.019-.357.316-.562.432h-1.079c-.397-.442-.914-.464-1.434-.421-.561-.352-1.288-.505-1.591-1.119-.478-.967-1.446-1.646-1.641-2.844l.792-.581h.859l.314-.314v-.433c-.34-.418-.855-.715-1.025-1.293-.104-.515.015-.973.287-1.458.326-.581.785-1.177.501-1.844l.779-1.59c-.796-.61-1.212-1.492-1.945-2.139-.661 0-1.343-.012-2.025.004-.458.011-.92.024-1.277-.302-.227-.208-.471-.136-.703-.124-.24.013-.397-.091-.558-.227-.758.208-1.506.461-2.305.431-.547.438-1.163.789-1.641 1.424v.823c-.471.54-1.045.611-1.661.554-.173.357-.569.396-.843.64-.045.004-.115.023-.183.016-1.315-.151-2.61.13-3.902.261-.685.069-1.308.188-1.992-.021-.393-.12-.853-.021-1.125-.021-.559.257-.985.449-1.408.648-.438.207-.832.495-.968.966-.066.229-.188.362-.325.516-1.243-.1-1.854-.902-1.87-2.458-.564-.469-.808-1.149-.822-1.805-.013-.607-.143-1.189-.295-1.734-.137-.489-.163-.952-.171-1.434-.014-.756-.057-1.518.014-2.267.051-.546.083-1.157.807-1.391.206-.066.397-.105.599-.11.54-.012 1.085.046 1.619-.015 1.033-.116 2.007.133 2.924.515.403.167.792.188 1.12.109.355-.085.757-.088 1.07-.264.336-.188.542-.131.84.066.242.161.566.204.858.454.723-.151 1.426.155 2.118.436.872.353 1.08.485 1.443.413.593-.117 1.183-.275 1.679-.704v-1.542c-.186-.433-.654-.793-.694-1.373-.004-.055-.145-.113-.137-.152.167-.862-.425-1.483-.708-2.196-.208-.526-.256-1.106-.578-1.601-.081-.125-.073-.396.056-.606q.445-.726.7-1.545c.2-.642.729-1.091 1.236-1.408.684-.427 1.098-1.071 1.719-1.524-.29-1.002-.888-1.704-1.58-2.358.144-1.044-.342-1.91-.844-2.875.27-.596-.645-1.279.023-1.98-.315-.283-.301-.657-.234-.986.106-.521.229-1.063.478-1.525a5.2 5.2 0 0 0 .609-1.916c.074-.661.371-1.299.761-1.834.625-.859 1.348-1.649 1.895-2.567.12-.201.34-.219.522-.305a7.5 7.5 0 0 0 1.141-.657c.818-.577 1.336-1.328 1.719-2.207.294-.675.923-1.02 1.479-1.36.648-.397 1.303-.806 2.007-1.134.826-.385 1.646-.629 2.551-.625 1.728.007 3.458.043 5.183-.013 1.137-.038 2.241.183 3.365.265l.492.469c.168.396-.161.619-.224.942-.671.281-1.363.581-1.85 1.2-.175.222-.445.314-.665.471-.97.693-1.89 1.447-2.521 2.492-.09.15-.227.306-.38.377-.627.291-1.018.791-1.366 1.365-.318.524-.698 1.012-1.066 1.504a2 2 0 0 1-.458.456c-.547.367-1.039.75-1.397 1.346-.312.513-.691 1.005-1.039 1.552m-2.66 21.148c.855.742 1.9 1.341 3.181 1.405.209.011.307.133.45.224.515.328 1.04.287 1.525-.04.282-.19.578-.355.843-.589.589-.519 1.044-1.152 1.488-1.771.501-.696 1.189-1.328 1.243-2.281.352-.375.347-.98.817-1.237v-.952c-.292-.687-.959-.78-1.275-1.237-.311-.448-.794-.588-1.221-.705-.29-.08-.604-.164-.853-.293-.593-.307-1.24-.47-1.839-.782-.624-.325-1.401-.411-2.077-.699-.796-.339-1.677-.428-2.423-.924-.697-.463-1.516-.41-2.271-.348-.621.384-.818 1.085-1.337 1.519-.805.672-1.031.986-1.438 1.863-.514 1.111-.571 1.303.076 2.236.394.568.436 1.192.695 1.878.379.351.746.841 1.014 1.409.219.463.506.872 1.098 1.023.721-.07 1.481.014 2.304.301"/>
        <path d="m10.951 54.677.534-.533c.382 0 .895-.152 1.217.03.757.431 1.421.105 2.071-.114.464-.156.91-.219 1.308-.042a2.08 2.08 0 0 0 1.445.083c.634-.199 1.175-.251 1.785.023.179.08.456.055.711-.069.443-.214.888-.119 1.387.028.704.208 1.401.553 2.184.489.479.554 1.027.952 1.772 1.18.857.263 1.586.824 1.979 1.86-.116.49.27 1.048.292 1.666.592.502.699 1.304 1.19 1.894.377.453.763.833 1.21 1.214.555.473 1.231.356 1.793.654l.823.823c.289 0 .642.015.993-.004.389-.021.738.071 1.102.208.448.168.919.313 1.417.228.675-.117 1.312.115 1.958.226.745.128 1.184.696 1.333 1.594-.142.331-.545.295-.752.557-.455 0-.922-.021-1.386.008-.336.021-.712-.155-1.003.196-.059.071-.349.072-.406.002-.291-.354-.668-.194-1.002-.198-1.69-.017-3.381-.043-5.07.01-.713.022-1.353-.381-2.07-.241-.208.041-.436-.017-.499.244-.973-.335-1.849-.775-2.829-.883-.071-.008-.178.026-.209-.01-.54-.63-1.4-.66-2.028-1.09-.644-.44-1.345-.777-2.012-1.158-1.001-.571-1.848-1.354-2.867-1.907-.611-.331-1.126-.931-1.683-1.412-1.485-1.286-2.643-2.887-4.028-4.273-.303-.306-.733-.664-.66-1.283M67.32 38.766c0 .339-.021.736.005 1.13.035.529-.092 1.024-.213 1.531-.11.465.164.985-.214 1.428-.071.083-.015.279-.01.423.04 1.148-.305 2.228-.671 3.285-.161.466-.48.91-.883 1.251-.38.321-.834.291-1.286.283-.396-.007-.792-.002-1.188-.001-.82.001-1.254.13-2.112.631a2.32 2.32 0 0 1-1.395-.252c-.406-.211-.904-.381-1.351-.357-1.852.095-3.674-.382-5.522-.24-.211.017-.424.003-.594.003-.242-.194-.411-.372-.341-.67.093-.295.41-.43.506-.762.059-.204.318-.42.617-.528.498-.181.959-.463 1.436-.701.496-.248 1.059-.201 1.584-.334.238-.061.511-.147.641-.265.577-.521 1.445-.743 1.702-1.824v-.426l-.313-.31c-1.792-.082-3.608.161-5.308-.256l-.656-.714c-.011-.108.212-.161.325-.345.62.057 1.155-.122 1.693-.536.329-.252.854-.399 1.366-.33.785.105 1.451-.265 2.299-.622.667.124 1.4-.369 2.211-.487.194-.028.426-.167.671-.182.716-.044 1.396-.272 2.092-.406.333-.063.471-.277.688-.445.983-.096 1.929.28 2.925.248.435-.014 1.027.191 1.296.78m-6.674 17.012c-.182.643-.597 1.015-.88 1.272-1.409.505-2.721.577-4.053.565-.542-.004-1.074.197-1.638.224-.855.039-1.65-.279-2.503-.283-.439-.002-.909-.368-1.487-.532-.203.264-.646.437-.731.969h-1.117c-.438.529-.278 1.225-.7 1.743-.542.129-1.107-.039-1.65-.221-.472.53-.342 1.347-.948 1.756-.637-.009-.746-.629-1.122-.932-.149-1.466-.604-2.883-.693-4.165l.718-.709c.629.227 1.195.724 1.888 1.069.376-.263.768-.535 1.23-.859h.598l.454.405c.485.045.821-.394 1.329-.269l.592.708c.261-.008.456.021.63-.184.303-.355.688-.642.978-1.005.581-.726 1.388-1.147 2.154-1.599.446-.264 1.049-.248 1.527-.473.406-.192.792-.212 1.151-.186.663.394 1.312.728 1.608 1.097 1.108.518 1.974.941 2.665 1.609M49.159 30.664c.351-.195.425-.576.776-.484a.22.22 0 0 1 .098.293c-.126.263-.541.292-.607.48-.094.262-.25.438-.434.566-.268.188-.541.41-.915.38-.248-.02-.499-.004-.732-.004-.343.318-.61.701-1.066.855h-1.075c-.437-.508-.437-.508.108-1.449.399.048.745-.333 1.212-.27.347.046.395-.364.68-.438.66-.172 1.313-.38 1.955.071m12.333 1.545c-.081-.326.062-.551.32-.74h.861l.365.721-.623.573c-.303-.12-.634-.205-.923-.554M44.021 44.157v-.788h.756c.077.288.367.504.295.847-.061.217-.206.351-.425.428-.317-.038-.382-.4-.626-.487"/>
    </g>
</svg>
