<svg xmlns="http://www.w3.org/2000/svg" xml:space="preserve" width="72px" height="72px" viewBox="0 0 72 72">
    <path fill="currentColor" d="M18.667 38.456c1.364-.645 2.339-.107 3.234.633.524.434.964.969 1.462 1.438.274.258.469.612.896.706.148.032.289.221.38.37.677 1.114 1.766 1.845 2.594 2.814.195.229.528.187.687.438.442-.155.784.253 1.206.216.442-.204.628-.634.815-1.025.313-.653.669-1.265 1.189-1.774.81-.793 1.012-.826 2.127-.295.264.637.693 1.21 1.239 1.709.486.444.926.865 1.637 1.023.593.133 1.068.652 1.372 1.217.453.842 1.074 1.51 1.92 1.941.237.12.381.225.473.485.229.65.772 1.069 1.245 1.533.41.402.927.426 1.483.341.24-.523.426-1.111.755-1.603.45-.674 1.137-1.142 1.901-1.372.716-.216 1.357-.571 1.999-.907.615-.322 1.013-.937 1.234-1.603.134-.405.322-.745.622-1.04.321-.317.619-.644.855-1.046.367-.621.411-.591 1.156-1.045a2.4 2.4 0 0 0 .48-.403c1.034-1.08 2.31-1.831 3.551-2.621 1.15.498 2.475.269 2.864-1.193.157-.592.659-.921 1.193-1.228.405-.233.909-.325 1.208-.743.556-.779 1.119-1.552 1.678-2.325.026-1.997.334-2.506 1.641-2.723.279-.28.591-.536.831-.847.249-.32.631-.417.921-.657.437.134.827.339 1.116.746.476 1.855.202 3.78.241 5.688.019.95.08 1.888.222 2.827.045.303.061.635-.203.846-.046.265.272.313.227.597-.113.683.154 1.405-.224 2.072-.062.108-.017.283-.007.427.062.881-.115 1.741-.197 2.611-.081.862-.635 1.57-.668 2.429-.864 1.874-1.634 3.8-2.63 5.601-.551.996-1.284 1.92-1.928 2.881-.297.444-.684.792-1.001 1.204-.806 1.045-1.731 1.976-2.687 2.875-.88.829-1.766 1.66-2.842 2.251-.359.197-.659.505-.97.761-.745.614-1.596 1.023-2.413 1.5-.436.253-.865.515-1.308.755-.41.223-.878.313-1.259.629-.141.116-.447.183-.633.271-.483.231-1.146.045-1.475.614-.431-.084-.751.291-1.209.238-.711-.083-1.438-.022-2.181-.022-1.338-.757-2.442-1.791-3.334-3.068-.351-.502-.398-1.078-.47-1.639-.068-.53-.029-1.078-.011-1.617.018-.503-.034-.971-.418-1.326-.179-1.026.314-1.679 1.191-2.061.738-.322 1.479-.668 2.319-.66.361.004.665-.163.898-.432.877-1.011 2.069-1.617 3.112-2.457v-.689c-.453-.513-1.167-.368-1.669-.728-.085-.061-.277-.006-.403.041-.092.035-.156.145-.258.246v1.673c-.448.646-1.034.893-1.8.846-1.006-.061-1.933.178-2.885.587a6.4 6.4 0 0 1-2.527.506c-.626.323-1.205.551-1.859.642-.77.107-1.531.315-1.988 1.028.371.894 1.387.942 1.932 1.638v.884c-.395.618-1.126.837-1.602 1.37-.075.083-.312.257-.53.249-.405-.016-.716.215-1.002.44-.44.346-.993.526-1.475.586-.823.104-1.428.578-2.313.904-.292-.037-.775.125-1.235-.188-.157-.107-.377.104-.562.164-.325.105-.709.056-1.066.032-.326-.022-.52.293-.886.243-.511-.067-.981-.297-1.529-.263-.5.032-1.042.191-1.542-.172-.165-.12-.49-.022-.742-.018-.533.01-.989-.181-1.421-.483-.609-.428-1.303-.692-1.893-1.195-.681-.579-1.396-1.135-2.079-1.717-1.333-1.136-2.371-2.557-3.573-3.82-.451-.474-.833-1.058-1.178-1.653-.318-.549-.694-1.086-1.061-1.617-.552-.799-.564-1.135.004-1.919.102-.141.166-.301.247-.435.297-.493.501-1.041.956-1.455.311-.282.566-.702.682-1.107.187-.659.743-1.046 1.032-1.625.182-.367.672-.449 1.033-.6.514-.214.768-.57.801-1.066.035-.525.276-.907.627-1.257.22-.219.375-.49.558-.732.405-.536.775-1.085 1.39-1.492.76-.504 1.451-1.218 1.534-2.249.024-.23.436-.252.176-.554M29.26 19.435c.252 1.047-.226 2.02-.198 3.045.029 1.034.466 1.835 1.084 2.572.314.375.676.716 1.075 1.021.666.509 1.375.74 2.216.646.801-.089 1.541.207 2.313.467v.784l-1.835 1.099h-2.697c-1.521-.736-3.228-1.21-4.076-2.985-.009-.489.084-1.082-.362-1.588-.221-.252.097-.717-.289-.944.209-.655.468-1.29.434-1.985-.027-.565.202-1.057.438-1.542.279-.574.755-.852 1.398-.88.267-.012.366.179.499.29"/>
</svg>
