<svg xmlns="http://www.w3.org/2000/svg" xml:space="preserve" width="72px" height="72px" viewBox="0 0 72 72">
    <path fill="currentColor" d="M15.481 52.832c-.469-.063-.849.231-1.278.319-.564.116-1.095.354-1.693.36-.366.003-.621-.342-1.018-.224-.446-.446-.904-.899-1.356-1.358-.45-.456-.077-1.162-.494-1.625.065-.27.293-.46.234-.784-.086-.479.174-.855.503-1.188.44-.444.95-.832 1.208-1.515-.619-.015-1.215-.118-1.767.335-.46.379-1.038.322-1.607.279-.179-.535-.539-.985-.538-1.621.001-.555-.498-1.052-.395-1.654.054-.316-.306-.455-.234-.777.125-.566.162-1.152.297-1.716.14-.584.634-.9 1.131-1.115.937-.404 3.037-.669 4.127-.416.732.169 1.478.218 2.204.398 1.096.272 1.878 1.21 1.968 2.419.013.176.001.353.001.564.824.146 1.473-.032 2.102-.619.841-.783 1.885-1.32 2.905-1.83 1.963-.981 2.562-1.385 3.456-2.453-.782-.077-1.618.168-2.204-.588.097-.641-.167-1.352.211-2.022.105-.186-.017-.411-.203-.548-.135-.269.254-.318.219-.563-.085-.591.295-1.036.563-1.489.309-.52.652-1.021.965-1.542.26-.434.529-.884.921-1.247.883-.818 1.67-1.739 2.666-2.435.083-.058.162-.138.255-.165.1-.029.214-.006.351-.006.415-.439.873-.785 1.537-.925.89-.187 1.638-.759 2.378-1.278.696-.488 1.457-.873 2.115-1.429.579-.489 1.385-.487 2.092-.654.325-.077.679-.163.97-.281.411-.167.805-.19 1.218-.182.287.007.556-.008.766-.223 1.049.321 2.075.702 3.084.666.835.273 1.196 1.195 2.104 1.069l.472.797v.828c.287.191.616.055.895.098.521-.143.821-.542 1.161-.863.578.056.932-.408 1.437-.524l.479-.935c1.027-.347 1.845-1.294 3.011-1.355l.779-.78-1.822-.511c-.311-.68-.364-.701-.09-1.397.284-.722.153-1.453.213-2.179.493-.688.879-1.408 1.101-2.248.122-.462.535-.879.896-1.235.333-.328.818-.334 1.371-.26.769.843 1.745 1.569 2.711 2.314.63.485.843 1.457.202 2.486-.089.144-.295.217-.226.506.397.199.632-.177 1.077-.364.098 0 .35.025.594-.005.385-.047.634.221.929.37.203.103 1.67 2.275 1.689 2.528.033.458.327.819.489 1.205.235.56.163 1.003-.101 1.433-.127.205-.15.378-.161.585.156.355.546.383.819.574.244.172.582.184.865.515-.011.737.615 1.37.691 2.188.379.325.192.834.4 1.241.159.311.031.769.031 1.093-.521.785-1.36 1-2.104 1.445-.632.001-1.347.12-1.918-.429-.986-.116-1.843-.569-2.723-.99-.441-.211-1.015-.134-1.468-.647.067-.517-.121-1.139.161-1.772-.248-.153-.581.039-.84-.062-.901.703-1.691 1.478-2.696 1.959a38 38 0 0 0-2.829 1.511c-.085.05-.205.055-.272.119-.309.292-.604.597-.984.977l.979.53c.313.858.357 1.797.061 2.763-.08.262-.096.572-.04.84.068.326-.205.492-.259.771-.169.873-.626 1.629-1.232 2.292-.182.198-.303.451-.465.668-.163.219-.329.438-.483.656-.375.532-.986.837-1.539 1.188-.577.366-1.14.746-1.678 1.18-.781.628-1.701 1.058-2.916 1.674-.82.914-2.348 1.427-3.694 2.331-.861-.135-1.566.365-2.394.86-.247 0-.61.048-.955-.01-.789-.132-1.506.33-2.288.231-.306-.038-.609.013-.887-.214-.409-.332-.964-.243-1.44-.424-.763-.29-1.427-.696-1.925-1.332-.2-.257-.378-.569-.325-.942.042-.297-.17-.432-.412-.562-.396.23-.821.422-1.282.521-.738.16-1.313.574-1.795 1.143-.249.293-.526.586-.904.675-.27.063-.423.229-.593.397-.274.272-.603.404-.969.533-.695.245-1.373.539-1.942 1.056-.375.341-.872.545-1.15 1.007.178.16.29.04.453-.058.692-.417 1.429-.678 2.271-.464l.486.485c.059 1-.113 2.018-.438 2.993-.314.944-.738 1.854-1.176 2.931a37 37 0 0 0-1.706 2.13c-.421.575-.939 1.143-1.773 1.168-.08.002-.156.126-.228.188-.289-.031-.474-.364-.875-.18-.166-.194-.399-.386-.528-.632-.356-.676-.931-1.151-1.468-1.652-.63-.589-1.04-1.229-.831-2.233.196-.496.605-.922 1.223-1.142.344-.123.569-.346.69-.713.095-.273.294-.518.424-.806.604.097 1.118-.077 1.644-.402.903-.558.927-.521 1.302-1.1-.35.06-.68-.072-1.028.121-.679.378-1.444.612-1.918 1.381m45.144-26.554c.104.019.169-.029.191-.127.004-.017-.047-.067-.063-.063-.099.022-.146.087-.13.193-.104-.019-.169.029-.191.127-.003.017.047.067.063.064.098-.022.146-.088.13-.194m-21.33 12.936c.459.127.713-.261 1.081-.194.665.121 1.179-.271 1.699-.575.928-.542 1.585-1.397 2.352-2.119-.041-.178.073-.369-.135-.563-.503.266-1.178.074-1.65.594-.143.157-.407.253-.629.281-.681.085-1.344.391-2.083.17-.192-.131-.488-.237-.623-.447-.167-.258-.22-.583-.615-.585-.39-.675-.968-1.364-.708-2.157.184-.563.094-1.101.226-1.614.148-.847 1.072-.936 1.477-1.554-.06-.156.066-.354-.148-.517-.274.104-.604-.095-.903.085-1.012.609-2.233.894-2.982 1.907-.218.295-.586.36-.842.607-.794.015-.817-.018-1.183.233-1.122.77-2.372 1.379-3.288 2.586.675 0 1.276-.003 1.878.001.351.003 1.649.365 1.826.532.585.551 1.14 1.125 1.529 1.844.444.821.294 1.661-.135 2.352-.553.889-1.264 1.652-2.36 2.022a3.26 3.26 0 0 0-1.637 1.212h.945c.353-.164.7-.25.949-.456.773-.638 1.678-.964 2.613-1.251.282-.087.612-.153.791-.419.154-.229.442-.332.606-.346.528-.045.801-.398 1.113-.718.298-.306.58-.63.836-.911m-9.177-3.589c-.53.003-.892.133-1.254.494a5.2 5.2 0 0 1-1.777 1.173c-.52.205-.871.594-1.251.999.505.24.973.069 1.213-.188.652-.7 1.564-.974 2.294-1.545.356-.278.638-.516.775-.933m14.506-8.451c-1.229.328-2.737 1.369-3.175 2.252 1.023-.585 1.955-1.104 2.87-1.652.162-.097.366-.241.305-.6m-31.32 18.789c.746-.121 1.121-.58 1.513-1 .084-.09.038.045-.069-.088h-.354zm16.964-1.971-.65.649c.291-.003.514-.234.753-.305.028-.195-.011-.282-.103-.344m28.045-16.248c.42.012.56-.292.904-.579-.605-.057-.708.338-.904.579m-9.509 5.529-.977.486c.44.158.718.098.977-.486"/>
</svg>
