<?xml version="1.0" encoding="iso-8859-1"?>
<!-- Generator: Adobe Illustrator 16.0.0, SVG Export Plug-In . SVG Version: 6.00 Build 0)  -->
<!DOCTYPE svg PUBLIC "-//W3C//DTD SVG 1.1//EN" "http://www.w3.org/Graphics/SVG/1.1/DTD/svg11.dtd">
<svg version="1.1" id="Layer_1" xmlns="http://www.w3.org/2000/svg" xmlns:xlink="http://www.w3.org/1999/xlink" x="0px" y="0px"
	 width="72.36px" height="72.18px" viewBox="0 0 72.36 72.18" style="enable-background:new 0 0 72.36 72.18;" xml:space="preserve"
	>
<g>
	
	<path fill="currentColor" d="M38.049,51.973c-0.833,0.115-1.604-0.208-2.458-0.447
		c-0.806,0.519-1.848,0.685-2.598,1.413c-0.862,0.181-1.348,0.918-2.007,1.392c-0.488,0.352-1.025,0.513-1.565,0.66
		c-0.537,0.146-1.075-0.063-1.38-0.519c-0.292-0.438-0.655-0.75-1.065-1.053c-0.314-0.233-0.566-0.551-0.851-0.835
		c-0.107-0.614-0.311-1.151-0.971-1.414c-0.597-0.237-1.047-0.66-1.288-1.276c-0.143-0.365-0.412-0.635-0.685-0.904
		c-0.691-0.682-1.375-1.372-2.037-2.033c-0.235-0.501,0.248-0.873,0.159-1.379c-0.606-0.31-1.052-0.912-1.747-1.161
		c-0.154-0.056-0.297-0.191-0.403-0.323c-0.646-0.801-1.508-1.321-2.381-1.817c-0.227-0.129-0.469-0.285-0.54-0.476
		c-0.199-0.54-0.644-0.781-1.077-1.045c-0.662-0.402-1.259-0.88-1.578-1.597c-0.305-0.687-1.018-1.032-1.323-1.717
		c-0.105-0.236-0.375-0.437-0.616-0.568c-0.68-0.373-1.272-0.841-1.774-1.435c0.164-0.374-0.286-0.609-0.226-0.984
		c0.051-0.315,0.099-0.679-0.007-0.963c-0.234-0.625-0.313-1.301-0.639-1.807c0.063-0.704,0.472-1.036,0.972-1.29
		c0.888-0.453,2.278-0.738,3.303-0.901c0.693-0.111,1.374-0.214,2.062-0.18c0.347-0.265,0.636-0.558,0.707-0.962
		c1.115-0.441,2.277-0.357,3.353-0.763c0.469,0.388,1.059,0.125,1.607,0.219c0.587-0.808,1.567-0.752,2.369-1.06
		c0.775-0.297,1.598-0.5,2.594-0.595c0.438,0.305,1.006,0.17,1.496-0.298c0.651-0.624,1.316-1.197,2.24-1.378
		c0.187-0.037,0.376-0.166,0.518-0.301c0.559-0.533,1.296-0.639,1.979-0.675c1.112-0.059,2.119-0.44,3.14-0.783
		c0.404-0.135,0.741-0.462,1.126-0.667c0.716-0.38,1.518-0.553,2.291-0.704c0.699-0.136,1.421-0.262,2.067-0.501
		c0.874-0.323,1.544-0.208,2.148,0.428c0.181,0.19,0.405,0.271,0.612,0.36c0.406,0.172,0.781,0.435,0.951,0.787
		c0.358,0.743,1.013,1.096,1.655,1.476c0.255,0.151,0.526,0.346,0.596,0.572c0.206,0.679,0.658,1.081,1.238,1.418
		c0.594,0.345,0.966,0.909,1.283,1.496c0.649,1.203,0.638,1.215,1.874,1.648c1.01,0.354,2.04,0.644,2.903,1.34
		c0.326,0.263,0.779,0.368,1.155,0.537c0.474,0.589,0.427,1.374,0.901,1.926c0.015,0.123,0.148,0.102,0.213,0.151
		c0.547,0.429,1.157,0.814,1.591,1.342c0.423,0.516,0.848,1.025,1.323,1.491c0.147,0.145,0.25,0.343,0.479,0.401
		c0.612,0.154,0.976,0.645,1.413,1.065c0.629,0,1.273,0,1.994,0c0.412,0.627,0.468,1.37,0.525,2.082
		c0.312,0.429,0.848,0.29,1.29,0.668c0.281,0.339,0.186,0.875,0.201,1.511c-0.14,0.089-0.352,0.223-0.563,0.355
		c0.027,0.026,0.054,0.052,0.081,0.077c-0.414,0.129-0.866,0.192-1.235,0.401c-0.783,0.444-1.657,0.604-2.503,0.71
		c-0.691,0.087-1.368,0.273-1.943,0.541c-0.839,0.389-1.724,0.733-2.484,1.314c-0.743,0.568-1.734,0.674-2.527,1.191
		c-0.177,0.115-0.493,0.017-0.744,0.017c-0.504,0-1.008,0-1.576,0c-1.045,0.854-2.276,1.288-3.573,1.067
		c-0.461,0.237-0.818,0.422-1.257,0.647c-0.85-0.009-1.708,0.181-2.491,0.799c-0.35,0.276-0.816,0.453-1.201,0.726
		c-0.431,0.307-0.99,0.181-1.442,0.429c-0.231,0.128-0.56,0.151-0.717,0.333c-0.727,0.835-1.741,1.159-2.684,1.618
		C38.211,51.815,38.139,51.899,38.049,51.973z M35.585,37.08c0.539-0.229,0.593-0.76,0.917-1.045
		c1.365-0.136,2.379-0.917,3.383-1.708c0.063-0.325-0.089-0.542-0.35-0.704c-1.337-0.002-1.283-0.152-2.731,0.647
		c-0.533,0.462-0.276,1.046-0.445,1.561c-0.166-0.214-0.389-0.304-0.363-0.57c0.034-0.348-0.199-0.481-0.491-0.559
		c-0.585-0.154-1.169-0.313-1.747-0.469c-0.123,0.135-0.219,0.241-0.33,0.363c-0.143,0.75,0.191,1.384,0.648,1.949
		C34.481,37.046,35.063,37.148,35.585,37.08z M33.717,40.319c-0.173,0.259-0.485,0.364-0.533,0.668
		c0.439,0.739,1.114,1.304,1.388,2.111c0.323,0,0.636,0,0.829,0c0.811-0.779,0.083-1.532,0.13-2.144
		c-0.213-0.281-0.363-0.479-0.481-0.636C34.583,40.319,34.188,40.319,33.717,40.319z M24.76,34.916
		c-0.29-0.698-0.946-0.65-1.526-0.938c-0.114,0.301-0.463,0.188-0.619,0.423c0,0.51,0,1.007,0,1.499
		c0.67,0.504,0.999,0.438,2.145-0.43C24.76,35.265,24.76,35.053,24.76,34.916z M39.284,46.859c0.43-0.452-0.074-0.701-0.05-1.034
		c0.027-0.384,0.006-0.771,0.006-1.078c-0.151-0.151-0.228-0.228-0.298-0.298c-0.606,0-1.207,0-1.789,0
		c-0.115,0.163-0.326,0.229-0.289,0.452C37.461,45.794,38.445,46.198,39.284,46.859z M50.98,35.383
		c0.071,0.54,0.438,0.773,0.71,1.083c0.308,0.352,0.307,0.807,0.3,1.275c0.783-0.088,1.137-0.518,1.291-1.164
		c-0.183-0.183-0.258-0.402-0.217-0.659c-0.232-0.361-0.592-0.565-1.027-0.756c-0.238,0-0.551,0-0.835,0
		C51.099,35.265,51.023,35.34,50.98,35.383z M30.834,36.425c-0.529-0.14-0.96,0.356-1.512,0.506c0,0.245,0,0.484,0,0.712
		c0.749,0.501,1.549,0.228,2.258,0.308c0.175-0.211,0.364-0.294,0.302-0.561C31.576,37.108,31.238,36.797,30.834,36.425z
		 M29.778,44.853c0.662-0.063,1.021-0.427,1.225-1.041c0-0.662,0-1.405,0-2.264c-0.354,0.296-0.429-0.329-0.834-0.064
		c0,0.552,0.029,1.154-0.008,1.752C30.125,43.782,29.606,44.237,29.778,44.853z M28.868,47.394c0.302,0.054,0.162,0.354,0.331,0.502
		c0.156,0.136,0.263,0.328,0.351,0.441c0.354-0.07,0.615,0.078,0.826-0.12c0.002-0.35,0.101-0.715-0.28-0.954
		c-0.292-0.184-0.165-0.556-0.318-0.833c-0.158-0.287-0.132-0.651-0.551-0.727C28.781,46.17,28.884,46.736,28.868,47.394z
		 M43.103,35.698c0.147,0.518,0.147,0.518,0.557,0.941c1.076,0.005,1.214-0.056,1.635-0.731c-0.373-0.462-0.977-0.601-1.414-0.978
		c-0.018,0.016-0.044,0.038-0.068,0.062C43.583,35.219,43.355,35.447,43.103,35.698z M28.55,35.134
		c0.685-0.685,0.685-0.685,0.962-1.411c-1.559-0.233-1.933-0.095-2.17,0.87c0.188,0.145,0.409,0.315,0.701,0.541
		C28.126,35.134,28.339,35.134,28.55,35.134z M36.425,31.238c-0.222,0.222-0.54,0.21-0.83,0.28c0.07,0.291-0.297,0.395-0.227,0.745
		c0.071,0.072,0.192,0.192,0.271,0.271c0.429,0,0.782,0,1.134,0c0.16-0.234,0.459-0.345,0.555-0.704
		C37.119,31.532,36.769,31.405,36.425,31.238z M37.534,39.267c0.783,0.585,1.582,0.354,2.188,0.759
		c0.292,0.194,0.664,0.063,1.114,0.073c-0.186-0.329,0.057-0.62-0.162-0.832C39.684,39.267,38.732,39.267,37.534,39.267z
		 M36.506,27.175c0.752,0.501,1.002,1.242,1.575,1.715c0.168-0.064,0.365,0.062,0.506-0.123c0-0.137,0-0.279,0-0.449
		C38.021,27.852,37.623,27.058,36.506,27.175z M30.593,28.325c0.106,0.694,0.107,0.696,0.563,0.743
		c0.336-0.232,0.568-0.393,0.725-0.501c0.055-0.411-0.044-0.633-0.301-0.719C31.251,28.006,30.954,28.15,30.593,28.325z
		 M31.891,32.42c-0.242-0.171-0.516-0.078-0.769-0.07c-0.292,0.22-0.419,0.472-0.225,0.825c0.231,0,0.469,0,0.676,0
		C31.877,32.99,31.944,32.736,31.891,32.42z M46.335,35.691c0.246-0.396,0.652-0.269,0.893-0.429c0.021-0.345-0.21-0.42-0.341-0.546
		c-0.228,0-0.44,0-0.645,0c-0.1,0.157-0.315,0.211-0.308,0.436C45.946,35.353,46.154,35.411,46.335,35.691z M46.624,38.94
		c-0.66-0.494-1.041-0.474-1.494,0.032C45.595,39.541,46.061,39.126,46.624,38.94z M42.311,43.404
		c0.239-0.239,0.417-0.417,0.566-0.565c0-0.345,0-0.659,0-1.056C42.353,42.216,42.191,42.688,42.311,43.404z M21.037,33.172
		c0.103-0.274,0.083-0.536,0.019-0.781c-0.172-0.141-0.269-0.382-0.558-0.232c-0.092,0.247-0.073,0.509-0.008,0.757
		C20.644,33.029,20.711,33.232,21.037,33.172z M26.727,39.222c-0.029-0.188,0.03-0.306-0.094-0.381
		c-0.191-0.023-0.398-0.119-0.57,0.074c0.016,0.099-0.044,0.216,0.104,0.307C26.303,39.222,26.47,39.222,26.727,39.222z
		 M44.104,39.314c-0.484,0.046-0.485,0.046-0.45,0.452C43.781,39.639,43.961,39.458,44.104,39.314z M22.65,38.845
		c0.262,0.134,0.54,0.257,0.974,0C23.177,38.845,22.914,38.845,22.65,38.845z"/>
	
	
	
	
	
	
	
	
	
	
	
	
	
	
	
	
	
	
	
	
	
	
</g>
</svg>
