<?xml version="1.0" encoding="iso-8859-1"?>
<!-- Generator: Adobe Illustrator 16.0.0, SVG Export Plug-In . SVG Version: 6.00 Build 0)  -->
<!DOCTYPE svg PUBLIC "-//W3C//DTD SVG 1.1//EN" "http://www.w3.org/Graphics/SVG/1.1/DTD/svg11.dtd">
<svg version="1.1" id="Layer_1" xmlns="http://www.w3.org/2000/svg" xmlns:xlink="http://www.w3.org/1999/xlink" x="0px" y="0px"
	 width="72.36px" height="72.18px" viewBox="0 0 72.36 72.18" style="enable-background:new 0 0 72.36 72.18;" xml:space="preserve"
	>
<g>
	<path style="fill-rule:evenodd;clip-rule:evenodd;fill:none;" d="M-6.984,79.631c0-28.871,0-57.743,0-86.615
		c28.8,0,57.6,0,86.399,0c0,28.872,0,57.744,0,86.615C50.616,79.631,21.816,79.631-6.984,79.631z M38.049,51.973
		c0.09-0.073,0.162-0.157,0.254-0.202c0.942-0.459,1.957-0.783,2.684-1.618c0.157-0.182,0.485-0.205,0.717-0.333
		c0.452-0.248,1.012-0.122,1.442-0.429c0.385-0.272,0.852-0.449,1.201-0.726c0.783-0.618,1.642-0.808,2.491-0.799
		c0.438-0.226,0.796-0.41,1.257-0.647c1.297,0.221,2.528-0.213,3.573-1.067c0.568,0,1.072,0,1.576,0
		c0.251,0,0.567,0.099,0.744-0.017c0.793-0.518,1.784-0.623,2.527-1.191c0.761-0.581,1.646-0.926,2.484-1.314
		c0.575-0.268,1.252-0.454,1.943-0.541c0.846-0.106,1.72-0.266,2.503-0.71c0.369-0.209,0.821-0.272,1.235-0.401
		c-0.027-0.025-0.054-0.051-0.081-0.077c0.211-0.133,0.423-0.267,0.563-0.355c-0.016-0.636,0.08-1.172-0.201-1.511
		c-0.442-0.378-0.979-0.239-1.29-0.668c-0.058-0.712-0.113-1.455-0.525-2.082c-0.721,0-1.365,0-1.994,0
		c-0.438-0.421-0.801-0.912-1.413-1.065c-0.229-0.058-0.332-0.256-0.479-0.401c-0.476-0.466-0.9-0.975-1.323-1.491
		c-0.434-0.528-1.044-0.913-1.591-1.342c-0.064-0.05-0.198-0.029-0.213-0.151c-0.475-0.552-0.428-1.337-0.901-1.926
		c-0.376-0.169-0.829-0.274-1.155-0.537c-0.863-0.696-1.894-0.985-2.903-1.34c-1.236-0.434-1.225-0.445-1.874-1.648
		c-0.317-0.587-0.689-1.151-1.283-1.496c-0.58-0.337-1.032-0.739-1.238-1.418c-0.069-0.226-0.341-0.421-0.596-0.572
		c-0.643-0.38-1.297-0.733-1.655-1.476c-0.17-0.352-0.545-0.615-0.951-0.787c-0.207-0.088-0.432-0.17-0.612-0.36
		c-0.604-0.635-1.274-0.75-2.148-0.428c-0.646,0.239-1.368,0.365-2.067,0.501c-0.773,0.151-1.575,0.324-2.291,0.704
		c-0.385,0.205-0.722,0.532-1.126,0.667c-1.021,0.343-2.028,0.725-3.14,0.783c-0.683,0.036-1.421,0.142-1.979,0.675
		c-0.142,0.135-0.332,0.264-0.518,0.301c-0.924,0.181-1.589,0.754-2.24,1.378c-0.49,0.469-1.058,0.604-1.496,0.298
		c-0.996,0.095-1.819,0.297-2.594,0.595c-0.802,0.308-1.782,0.251-2.369,1.06c-0.548-0.094-1.138,0.168-1.607-0.219
		c-1.076,0.406-2.238,0.322-3.353,0.763c-0.071,0.405-0.359,0.698-0.707,0.962c-0.688-0.034-1.368,0.069-2.062,0.18
		c-1.025,0.164-2.415,0.448-3.303,0.901c-0.5,0.254-0.909,0.586-0.972,1.29c0.325,0.506,0.405,1.182,0.639,1.807
		c0.106,0.284,0.058,0.647,0.007,0.963c-0.06,0.375,0.39,0.61,0.226,0.984c0.502,0.594,1.095,1.062,1.774,1.435
		c0.241,0.132,0.51,0.332,0.616,0.568c0.306,0.685,1.019,1.03,1.323,1.717c0.318,0.717,0.916,1.194,1.578,1.597
		c0.433,0.264,0.878,0.505,1.077,1.045c0.07,0.19,0.313,0.347,0.54,0.476c0.873,0.496,1.735,1.017,2.381,1.817
		c0.106,0.132,0.249,0.268,0.403,0.323c0.695,0.249,1.141,0.852,1.747,1.161c0.089,0.506-0.394,0.878-0.159,1.379
		c0.662,0.661,1.345,1.352,2.037,2.033c0.273,0.27,0.542,0.539,0.685,0.904c0.241,0.616,0.69,1.039,1.288,1.276
		c0.66,0.263,0.864,0.8,0.971,1.414c0.285,0.284,0.537,0.602,0.851,0.835c0.41,0.303,0.773,0.615,1.065,1.053
		c0.305,0.455,0.843,0.665,1.38,0.519c0.54-0.147,1.077-0.309,1.565-0.66c0.66-0.474,1.146-1.211,2.007-1.392
		c0.75-0.729,1.792-0.895,2.598-1.413C36.446,51.765,37.216,52.088,38.049,51.973z M62.028,32.544
		c0.241-0.031,0.495,0.071,0.734-0.076c0-0.313,0-0.627,0-0.933c-0.256-0.13-0.504-0.058-0.72-0.06
		c-0.195,0.184-0.377,0.354-0.559,0.525C61.671,32.188,61.85,32.366,62.028,32.544z M27.417,17.17
		c-0.371,0.248-0.76,0.509-1.167,0.783c0.544,0.298,0.934,0.012,1.328-0.25C27.548,17.536,27.652,17.34,27.417,17.17z"/>
	<path style="fill-rule:evenodd;clip-rule:evenodd;" d="M38.049,51.973c-0.833,0.115-1.604-0.208-2.458-0.447
		c-0.806,0.519-1.848,0.685-2.598,1.413c-0.862,0.181-1.348,0.918-2.007,1.392c-0.488,0.352-1.025,0.513-1.565,0.66
		c-0.537,0.146-1.075-0.063-1.38-0.519c-0.292-0.438-0.655-0.75-1.065-1.053c-0.314-0.233-0.566-0.551-0.851-0.835
		c-0.107-0.614-0.311-1.151-0.971-1.414c-0.597-0.237-1.047-0.66-1.288-1.276c-0.143-0.365-0.412-0.635-0.685-0.904
		c-0.691-0.682-1.375-1.372-2.037-2.033c-0.235-0.501,0.248-0.873,0.159-1.379c-0.606-0.31-1.052-0.912-1.747-1.161
		c-0.154-0.056-0.297-0.191-0.403-0.323c-0.646-0.801-1.508-1.321-2.381-1.817c-0.227-0.129-0.469-0.285-0.54-0.476
		c-0.199-0.54-0.644-0.781-1.077-1.045c-0.662-0.402-1.259-0.88-1.578-1.597c-0.305-0.687-1.018-1.032-1.323-1.717
		c-0.105-0.236-0.375-0.437-0.616-0.568c-0.68-0.373-1.272-0.841-1.774-1.435c0.164-0.374-0.286-0.609-0.226-0.984
		c0.051-0.315,0.099-0.679-0.007-0.963c-0.234-0.625-0.313-1.301-0.639-1.807c0.063-0.704,0.472-1.036,0.972-1.29
		c0.888-0.453,2.278-0.738,3.303-0.901c0.693-0.111,1.374-0.214,2.062-0.18c0.347-0.265,0.636-0.558,0.707-0.962
		c1.115-0.441,2.277-0.357,3.353-0.763c0.469,0.388,1.059,0.125,1.607,0.219c0.587-0.808,1.567-0.752,2.369-1.06
		c0.775-0.297,1.598-0.5,2.594-0.595c0.438,0.305,1.006,0.17,1.496-0.298c0.651-0.624,1.316-1.197,2.24-1.378
		c0.187-0.037,0.376-0.166,0.518-0.301c0.559-0.533,1.296-0.639,1.979-0.675c1.112-0.059,2.119-0.44,3.14-0.783
		c0.404-0.135,0.741-0.462,1.126-0.667c0.716-0.38,1.518-0.553,2.291-0.704c0.699-0.136,1.421-0.262,2.067-0.501
		c0.874-0.323,1.544-0.208,2.148,0.428c0.181,0.19,0.405,0.271,0.612,0.36c0.406,0.172,0.781,0.435,0.951,0.787
		c0.358,0.743,1.013,1.096,1.655,1.476c0.255,0.151,0.526,0.346,0.596,0.572c0.206,0.679,0.658,1.081,1.238,1.418
		c0.594,0.345,0.966,0.909,1.283,1.496c0.649,1.203,0.638,1.215,1.874,1.648c1.01,0.354,2.04,0.644,2.903,1.34
		c0.326,0.263,0.779,0.368,1.155,0.537c0.474,0.589,0.427,1.374,0.901,1.926c0.015,0.123,0.148,0.102,0.213,0.151
		c0.547,0.429,1.157,0.814,1.591,1.342c0.423,0.516,0.848,1.025,1.323,1.491c0.147,0.145,0.25,0.343,0.479,0.401
		c0.612,0.154,0.976,0.645,1.413,1.065c0.629,0,1.273,0,1.994,0c0.412,0.627,0.468,1.37,0.525,2.082
		c0.312,0.429,0.848,0.29,1.29,0.668c0.281,0.339,0.186,0.875,0.201,1.511c-0.14,0.089-0.352,0.223-0.563,0.355
		c0.027,0.026,0.054,0.052,0.081,0.077c-0.414,0.129-0.866,0.192-1.235,0.401c-0.783,0.444-1.657,0.604-2.503,0.71
		c-0.691,0.087-1.368,0.273-1.943,0.541c-0.839,0.389-1.724,0.733-2.484,1.314c-0.743,0.568-1.734,0.674-2.527,1.191
		c-0.177,0.115-0.493,0.017-0.744,0.017c-0.504,0-1.008,0-1.576,0c-1.045,0.854-2.276,1.288-3.573,1.067
		c-0.461,0.237-0.818,0.422-1.257,0.647c-0.85-0.009-1.708,0.181-2.491,0.799c-0.35,0.276-0.816,0.453-1.201,0.726
		c-0.431,0.307-0.99,0.181-1.442,0.429c-0.231,0.128-0.56,0.151-0.717,0.333c-0.727,0.835-1.741,1.159-2.684,1.618
		C38.211,51.815,38.139,51.899,38.049,51.973z M35.585,37.08c0.539-0.229,0.593-0.76,0.917-1.045
		c1.365-0.136,2.379-0.917,3.383-1.708c0.063-0.325-0.089-0.542-0.35-0.704c-1.337-0.002-1.283-0.152-2.731,0.647
		c-0.533,0.462-0.276,1.046-0.445,1.561c-0.166-0.214-0.389-0.304-0.363-0.57c0.034-0.348-0.199-0.481-0.491-0.559
		c-0.585-0.154-1.169-0.313-1.747-0.469c-0.123,0.135-0.219,0.241-0.33,0.363c-0.143,0.75,0.191,1.384,0.648,1.949
		C34.481,37.046,35.063,37.148,35.585,37.08z M33.717,40.319c-0.173,0.259-0.485,0.364-0.533,0.668
		c0.439,0.739,1.114,1.304,1.388,2.111c0.323,0,0.636,0,0.829,0c0.811-0.779,0.083-1.532,0.13-2.144
		c-0.213-0.281-0.363-0.479-0.481-0.636C34.583,40.319,34.188,40.319,33.717,40.319z M24.76,34.916
		c-0.29-0.698-0.946-0.65-1.526-0.938c-0.114,0.301-0.463,0.188-0.619,0.423c0,0.51,0,1.007,0,1.499
		c0.67,0.504,0.999,0.438,2.145-0.43C24.76,35.265,24.76,35.053,24.76,34.916z M39.284,46.859c0.43-0.452-0.074-0.701-0.05-1.034
		c0.027-0.384,0.006-0.771,0.006-1.078c-0.151-0.151-0.228-0.228-0.298-0.298c-0.606,0-1.207,0-1.789,0
		c-0.115,0.163-0.326,0.229-0.289,0.452C37.461,45.794,38.445,46.198,39.284,46.859z M50.98,35.383
		c0.071,0.54,0.438,0.773,0.71,1.083c0.308,0.352,0.307,0.807,0.3,1.275c0.783-0.088,1.137-0.518,1.291-1.164
		c-0.183-0.183-0.258-0.402-0.217-0.659c-0.232-0.361-0.592-0.565-1.027-0.756c-0.238,0-0.551,0-0.835,0
		C51.099,35.265,51.023,35.34,50.98,35.383z M30.834,36.425c-0.529-0.14-0.96,0.356-1.512,0.506c0,0.245,0,0.484,0,0.712
		c0.749,0.501,1.549,0.228,2.258,0.308c0.175-0.211,0.364-0.294,0.302-0.561C31.576,37.108,31.238,36.797,30.834,36.425z
		 M29.778,44.853c0.662-0.063,1.021-0.427,1.225-1.041c0-0.662,0-1.405,0-2.264c-0.354,0.296-0.429-0.329-0.834-0.064
		c0,0.552,0.029,1.154-0.008,1.752C30.125,43.782,29.606,44.237,29.778,44.853z M28.868,47.394c0.302,0.054,0.162,0.354,0.331,0.502
		c0.156,0.136,0.263,0.328,0.351,0.441c0.354-0.07,0.615,0.078,0.826-0.12c0.002-0.35,0.101-0.715-0.28-0.954
		c-0.292-0.184-0.165-0.556-0.318-0.833c-0.158-0.287-0.132-0.651-0.551-0.727C28.781,46.17,28.884,46.736,28.868,47.394z
		 M43.103,35.698c0.147,0.518,0.147,0.518,0.557,0.941c1.076,0.005,1.214-0.056,1.635-0.731c-0.373-0.462-0.977-0.601-1.414-0.978
		c-0.018,0.016-0.044,0.038-0.068,0.062C43.583,35.219,43.355,35.447,43.103,35.698z M28.55,35.134
		c0.685-0.685,0.685-0.685,0.962-1.411c-1.559-0.233-1.933-0.095-2.17,0.87c0.188,0.145,0.409,0.315,0.701,0.541
		C28.126,35.134,28.339,35.134,28.55,35.134z M36.425,31.238c-0.222,0.222-0.54,0.21-0.83,0.28c0.07,0.291-0.297,0.395-0.227,0.745
		c0.071,0.072,0.192,0.192,0.271,0.271c0.429,0,0.782,0,1.134,0c0.16-0.234,0.459-0.345,0.555-0.704
		C37.119,31.532,36.769,31.405,36.425,31.238z M37.534,39.267c0.783,0.585,1.582,0.354,2.188,0.759
		c0.292,0.194,0.664,0.063,1.114,0.073c-0.186-0.329,0.057-0.62-0.162-0.832C39.684,39.267,38.732,39.267,37.534,39.267z
		 M36.506,27.175c0.752,0.501,1.002,1.242,1.575,1.715c0.168-0.064,0.365,0.062,0.506-0.123c0-0.137,0-0.279,0-0.449
		C38.021,27.852,37.623,27.058,36.506,27.175z M30.593,28.325c0.106,0.694,0.107,0.696,0.563,0.743
		c0.336-0.232,0.568-0.393,0.725-0.501c0.055-0.411-0.044-0.633-0.301-0.719C31.251,28.006,30.954,28.15,30.593,28.325z
		 M31.891,32.42c-0.242-0.171-0.516-0.078-0.769-0.07c-0.292,0.22-0.419,0.472-0.225,0.825c0.231,0,0.469,0,0.676,0
		C31.877,32.99,31.944,32.736,31.891,32.42z M46.335,35.691c0.246-0.396,0.652-0.269,0.893-0.429c0.021-0.345-0.21-0.42-0.341-0.546
		c-0.228,0-0.44,0-0.645,0c-0.1,0.157-0.315,0.211-0.308,0.436C45.946,35.353,46.154,35.411,46.335,35.691z M46.624,38.94
		c-0.66-0.494-1.041-0.474-1.494,0.032C45.595,39.541,46.061,39.126,46.624,38.94z M42.311,43.404
		c0.239-0.239,0.417-0.417,0.566-0.565c0-0.345,0-0.659,0-1.056C42.353,42.216,42.191,42.688,42.311,43.404z M21.037,33.172
		c0.103-0.274,0.083-0.536,0.019-0.781c-0.172-0.141-0.269-0.382-0.558-0.232c-0.092,0.247-0.073,0.509-0.008,0.757
		C20.644,33.029,20.711,33.232,21.037,33.172z M26.727,39.222c-0.029-0.188,0.03-0.306-0.094-0.381
		c-0.191-0.023-0.398-0.119-0.57,0.074c0.016,0.099-0.044,0.216,0.104,0.307C26.303,39.222,26.47,39.222,26.727,39.222z
		 M44.104,39.314c-0.484,0.046-0.485,0.046-0.45,0.452C43.781,39.639,43.961,39.458,44.104,39.314z M22.65,38.845
		c0.262,0.134,0.54,0.257,0.974,0C23.177,38.845,22.914,38.845,22.65,38.845z"/>
	<path style="fill-rule:evenodd;clip-rule:evenodd;fill:none;" d="M35.585,37.08c-0.521,0.068-1.104-0.034-1.509-0.535
		c-0.457-0.565-0.791-1.2-0.648-1.949c0.111-0.122,0.208-0.228,0.33-0.363c0.578,0.156,1.162,0.315,1.747,0.469
		c0.292,0.077,0.525,0.211,0.491,0.559c-0.026,0.266,0.197,0.355,0.363,0.57c0.168-0.515-0.088-1.099,0.445-1.561
		c1.448-0.799,1.395-0.649,2.731-0.647c0.261,0.162,0.412,0.378,0.35,0.704c-1.004,0.791-2.018,1.572-3.383,1.708
		C36.178,36.32,36.124,36.851,35.585,37.08z"/>
	<path style="fill-rule:evenodd;clip-rule:evenodd;fill:none;" d="M33.717,40.319c0.472,0,0.866,0,1.333,0
		c0.118,0.156,0.268,0.354,0.481,0.636c-0.047,0.611,0.681,1.364-0.13,2.144c-0.193,0-0.505,0-0.829,0
		c-0.274-0.808-0.949-1.372-1.388-2.111C33.232,40.684,33.544,40.578,33.717,40.319z"/>
	<path style="fill-rule:evenodd;clip-rule:evenodd;fill:none;" d="M24.76,34.916c0,0.137,0,0.349,0,0.554
		c-1.146,0.869-1.475,0.935-2.145,0.43c0-0.492,0-0.989,0-1.499c0.155-0.235,0.505-0.123,0.619-0.423
		C23.813,34.266,24.47,34.218,24.76,34.916z"/>
	<path style="fill-rule:evenodd;clip-rule:evenodd;fill:none;" d="M39.284,46.859c-0.839-0.661-1.822-1.065-2.42-1.958
		c-0.037-0.224,0.174-0.289,0.289-0.452c0.582,0,1.183,0,1.789,0c0.07,0.07,0.146,0.146,0.298,0.298
		c0,0.307,0.021,0.694-0.006,1.078C39.209,46.158,39.713,46.407,39.284,46.859z"/>
	<path style="fill-rule:evenodd;clip-rule:evenodd;fill:none;" d="M50.98,35.383c0.043-0.042,0.119-0.118,0.222-0.221
		c0.284,0,0.597,0,0.835,0c0.436,0.191,0.795,0.395,1.027,0.756c-0.041,0.257,0.034,0.477,0.217,0.659
		c-0.154,0.646-0.508,1.076-1.291,1.164c0.007-0.468,0.008-0.923-0.3-1.275C51.418,36.156,51.051,35.923,50.98,35.383z"/>
	<path style="fill-rule:evenodd;clip-rule:evenodd;fill:none;" d="M30.834,36.425c0.403,0.372,0.741,0.683,1.048,0.965
		c0.062,0.267-0.127,0.35-0.302,0.561c-0.709-0.08-1.509,0.193-2.258-0.308c0-0.228,0-0.467,0-0.712
		C29.874,36.782,30.305,36.285,30.834,36.425z"/>
	<path style="fill-rule:evenodd;clip-rule:evenodd;fill:none;" d="M29.778,44.853c-0.171-0.615,0.348-1.07,0.382-1.617
		c0.037-0.598,0.008-1.2,0.008-1.752c0.406-0.265,0.481,0.36,0.834,0.064c0,0.858,0,1.602,0,2.264
		C30.799,44.426,30.439,44.79,29.778,44.853z"/>
	<path style="fill-rule:evenodd;clip-rule:evenodd;fill:none;" d="M28.868,47.394c0.016-0.657-0.087-1.224,0.359-1.69
		c0.418,0.075,0.393,0.439,0.551,0.727c0.153,0.277,0.026,0.649,0.318,0.833c0.381,0.239,0.282,0.604,0.28,0.954
		c-0.211,0.198-0.472,0.05-0.826,0.12c-0.088-0.113-0.195-0.306-0.351-0.441C29.03,47.748,29.17,47.447,28.868,47.394z"/>
	<path style="fill-rule:evenodd;clip-rule:evenodd;fill:none;" d="M43.103,35.698c0.252-0.25,0.48-0.479,0.709-0.706
		c0.024-0.024,0.051-0.045,0.068-0.062c0.438,0.377,1.041,0.516,1.414,0.978c-0.421,0.675-0.559,0.736-1.635,0.731
		C43.25,36.216,43.25,36.216,43.103,35.698z"/>
	<path style="fill-rule:evenodd;clip-rule:evenodd;fill:none;" d="M28.55,35.134c-0.21,0-0.423,0-0.507,0
		c-0.292-0.226-0.513-0.396-0.701-0.541c0.237-0.965,0.611-1.104,2.17-0.87C29.235,34.449,29.235,34.449,28.55,35.134z"/>
	<path style="fill-rule:evenodd;clip-rule:evenodd;fill:none;" d="M36.425,31.238c0.344,0.167,0.694,0.293,0.903,0.592
		c-0.096,0.358-0.395,0.469-0.555,0.704c-0.352,0-0.706,0-1.134,0c-0.079-0.078-0.199-0.199-0.271-0.271
		c-0.07-0.35,0.297-0.455,0.227-0.745C35.885,31.449,36.203,31.46,36.425,31.238z"/>
	<path style="fill-rule:evenodd;clip-rule:evenodd;fill:none;" d="M37.534,39.267c1.198,0,2.15,0,3.14,0
		c0.219,0.212-0.023,0.503,0.162,0.832c-0.45-0.01-0.822,0.121-1.114-0.073C39.116,39.621,38.317,39.852,37.534,39.267z"/>
	<path style="fill-rule:evenodd;clip-rule:evenodd;fill:none;" d="M36.506,27.175c1.116-0.117,1.515,0.677,2.081,1.144
		c0,0.17,0,0.312,0,0.449c-0.141,0.185-0.338,0.059-0.506,0.123C37.508,28.417,37.258,27.676,36.506,27.175z"/>
	<path style="fill-rule:evenodd;clip-rule:evenodd;fill:none;" d="M30.593,28.325c0.36-0.174,0.658-0.318,0.987-0.478
		c0.257,0.086,0.355,0.308,0.301,0.719c-0.157,0.108-0.389,0.269-0.725,0.501C30.7,29.021,30.7,29.019,30.593,28.325z"/>
	<path style="fill-rule:evenodd;clip-rule:evenodd;fill:none;" d="M31.891,32.42c0.053,0.316-0.014,0.57-0.317,0.755
		c-0.208,0-0.445,0-0.676,0c-0.194-0.354-0.067-0.605,0.225-0.825C31.375,32.342,31.649,32.249,31.891,32.42z"/>
	<path style="fill-rule:evenodd;clip-rule:evenodd;fill:none;" d="M46.335,35.691c-0.182-0.281-0.39-0.339-0.4-0.539
		c-0.008-0.225,0.208-0.279,0.308-0.436c0.204,0,0.417,0,0.645,0c0.131,0.126,0.362,0.201,0.341,0.546
		C46.988,35.423,46.582,35.296,46.335,35.691z"/>
	<path style="fill-rule:evenodd;clip-rule:evenodd;fill:none;" d="M46.624,38.94c-0.563,0.186-1.028,0.601-1.494,0.032
		C45.583,38.467,45.963,38.446,46.624,38.94z"/>
	<path style="fill-rule:evenodd;clip-rule:evenodd;fill:none;" d="M42.311,43.404c-0.12-0.716,0.042-1.188,0.566-1.621
		c0,0.396,0,0.711,0,1.056C42.728,42.987,42.55,43.165,42.311,43.404z"/>
	<path style="fill-rule:evenodd;clip-rule:evenodd;fill:none;" d="M21.037,33.172c-0.325,0.06-0.393-0.143-0.547-0.256
		c-0.065-0.248-0.084-0.51,0.008-0.757c0.29-0.149,0.386,0.091,0.558,0.232C21.12,32.636,21.139,32.897,21.037,33.172z"/>
	<path style="fill-rule:evenodd;clip-rule:evenodd;fill:none;" d="M26.727,39.222c-0.257,0-0.424,0-0.56,0
		c-0.148-0.091-0.089-0.208-0.104-0.307c0.172-0.193,0.379-0.098,0.57-0.074C26.757,38.916,26.698,39.033,26.727,39.222z"/>
	<path style="fill-rule:evenodd;clip-rule:evenodd;fill:none;" d="M44.104,39.314c-0.143,0.144-0.323,0.324-0.45,0.452
		C43.619,39.36,43.62,39.36,44.104,39.314z"/>
	<path style="fill-rule:evenodd;clip-rule:evenodd;fill:none;" d="M22.65,38.845c0.264,0,0.527,0,0.974,0
		C23.189,39.102,22.912,38.979,22.65,38.845z"/>
</g>
</svg>
