<?xml version="1.0" encoding="iso-8859-1"?>
<!-- Generator: Adobe Illustrator 16.0.0, SVG Export Plug-In . SVG Version: 6.00 Build 0)  -->
<!DOCTYPE svg PUBLIC "-//W3C//DTD SVG 1.1//EN" "http://www.w3.org/Graphics/SVG/1.1/DTD/svg11.dtd">
<svg version="1.1" id="Layer_1" xmlns="http://www.w3.org/2000/svg" xmlns:xlink="http://www.w3.org/1999/xlink" x="0px" y="0px"
	 width="72.36px" height="72.18px" viewBox="0 0 72.36 72.18" style="enable-background:new 0 0 72.36 72.18;" xml:space="preserve"
	>
<g>
	
	<path fill="currentColor" d="M30.266,58.68c0.892,0,1.72,0,2.624,0c0.117-0.156,0.266-0.356,0.494-0.66
		c0.005-0.141-0.035-0.41-0.128-0.723c-0.3-1-0.979-1.829-1.204-2.858c-0.032-0.146-0.112-0.386-0.277-0.53
		c-0.493-0.429-0.582-0.999-0.534-1.447c-0.425-1.354-1.838-1.634-2.362-2.746c0-0.491,0-0.993,0-1.495
		c0.589-0.587,0.73-1.521,1.504-1.899c0-0.427,0-0.785,0-1.143c-0.253-0.286-0.513-0.498-0.895-0.187
		c-0.155,0.127-0.373,0.126-0.526,0.302c-0.642,0.738-1.363,1.379-2.787,1.668c-0.846-0.12-2.11,0.479-3.48,0.229
		c-0.195,0.243-0.396,0.493-0.437,0.545c-1.058,0.489-1.94,0.326-2.738,0.364c-0.165-0.142-0.273-0.234-0.346-0.296
		c-0.156-0.396,0.191-0.614,0.215-0.877c0.958-0.679,2.111-0.993,2.903-1.846c0.163-0.011,0.35,0.034,0.438-0.039
		c0.367-0.31,0.839-0.426,1.226-0.725c0.315-0.243,0.831-0.229,1.259-0.324c0.313-0.07,0.479-0.36,0.758-0.506
		c0.281-0.146,0.615-0.311,0.859-0.584c0.516,0.064,1.078-0.135,1.569,0.099c0.492,0.234,0.976,0.04,1.432,0.139
		c0.125-0.126,0.237-0.22,0.328-0.331c0.606-0.737,0.602-1.307-0.04-1.992c-0.521-0.557-1.174-0.897-1.847-1.263
		c-1.004-0.546-2.17-0.92-2.851-1.986c0-0.253,0-0.539,0-0.767c0.563-0.902,0.906-1.855,1.199-2.801
		c0.225-0.726,0.23-1.554-0.017-2.298c-0.232-0.699-0.093-1.273,0.324-1.913c0-0.568-0.13-1.249,0.032-1.85
		c0.218-0.808,0.141-1.603,0.187-2.369c0.949-1.301,2.151-2.349,3.111-3.606c0.247-0.323,0.446-0.704,0.32-1.188
		c-0.448-0.574-1.156-0.981-1.521-1.91c-0.173-0.56,0.378-1.239,0.247-1.982c0.253-0.197,0.216-0.6,0.548-0.753
		c0.448-0.091,0.819,0.398,1.362,0.145c0.296-0.27,0.381-0.776,0.777-1.092c0.388-0.128,0.699-0.618,1.214-0.563
		c0.488,0.051,1.278,0.535,1.802,1.055c0.412,0.08,0.774-0.004,1.109-0.269c-0.022-0.239,0.217-0.51,0.348-0.642
		c0.249-0.251,0.081-0.56,0.257-0.77c0.404-0.083,0.7-0.003,0.793,0.451c0.089,0.436,0.275,0.843,0.226,1.316
		c-0.053,0.498-0.012,1.006-0.012,1.584c0.161,0.115,0.365,0.261,0.712,0.509c0.11,0,0.432,0.021,0.749-0.004
		c0.641-0.052,1.227,0.069,1.769,0.431c0.224,0.148,0.461,0.264,0.771,0.233c0.617-0.06,1.053,0.313,1.393,0.765
		c0.467,0.622,0.735,1.35,0.634,2.208c-0.129,1.095,0.484,1.975,0.689,2.967c0.018,0.088,0.137,0.164,0.223,0.229
		c1.29,0.98,2.454,2.128,3.85,2.964c0.36,0.216,0.832,0.333,1.253,0.331c0.319-0.001,0.611,0.13,0.753,0.266
		c0.558,0.536,1.385,0.608,1.898,1.178c0.174,0.192,0.396,0.054,0.592,0.141c0.852,0.377,1.74,0.677,2.564,1.103
		c0.289,0.149,0.585,0.219,0.796,0.128c0.704-0.302,1.491-0.354,2.147-0.826c0.494-0.356,1.145-0.386,1.813-0.491
		c0.078,0.103,0.191,0.205,0.245,0.332c0.051,0.124,0.04,0.273,0.051,0.355c-0.436,0.435-0.84,0.839-1.295,1.293
		c-0.569-0.183-1.079,0.256-1.694,0.494c-0.145,0.671-0.568,1.204-1.251,1.442c-0.64,0.223-1.111,0.767-1.859,0.844
		c-0.44-0.366-1.03-0.106-1.487-0.181c-0.805,0.357-1.367,1.019-2.3,1.104c-0.868,1.23-2.195,1.372-3.597,1.254
		c-0.291,0.389-0.868,0.46-0.978,1.195c0.072,0.48-0.138,1.178,0.164,1.877c0.121,0.279,0.037,0.718-0.091,1.117
		c-0.21,0.654-0.172,1.39,0.012,2.084c0.25,0.948,0.067,1.913,0.096,2.87c0.006,0.2-0.215,0.406-0.326,0.612
		c-0.491,0.917-0.728,1.881-0.758,2.935c-0.029,1.031,0.183,2.027,0.249,3.043c0.015,0.219,0.159,0.435,0.261,0.644
		c0.337,0.688,0.643,1.397,1.041,2.049c0.187,0.304,0.19,0.584,0.2,0.938c0.165,0.142,0.354,0.305,0.616,0.529
		c0.604,0.124,1.268-0.533,2.016-0.096c0.476,0.279,0.993,0.475,1.329,0.941c1.248,0.132,2.452-0.377,3.691-0.203
		c0.151,0.021,0.252-0.062,0.379-0.133c0.436-0.243,0.896-0.446,1.448-0.714c0.308,0,0.735,0,1.245,0
		c0.109,0.142,0.262,0.339,0.486,0.631c0,0.351,0,0.849,0,1.427c-1.439,2.027-3.467,3.524-5.561,5.038
		c-0.445-0.033-0.971,0.1-1.365,0.4c-0.946,0.724-2.043,1.199-2.996,1.899c-0.298,0.219-0.738-0.107-0.958,0.3
		c-0.915-0.05-1.656,0.572-2.536,0.655c-0.391,0.446-0.978,0.102-1.457,0.408c-0.996,0.636-2.226,0.704-3.306,1.133
		c-0.733,0.291-1.483,0.132-2.223,0.355c-0.726,0.219-1.574-0.003-2.359,0.069c-0.393,0.036-0.619-0.308-0.994-0.248
		c-0.315,0.051-0.644,0.011-0.983,0.011c-0.164-0.343-0.552-0.394-0.877-0.65c-0.816,0.079-1.606-0.166-2.365-0.626
		c-0.231-0.14-0.518-0.301-0.873-0.249c-0.741,0.107-1.388-0.224-2.037-0.54c-0.627-0.306-1.228-0.679-1.917-0.85
		c-0.062-0.015-0.117-0.108-0.169-0.104c-0.859,0.073-1.466-0.416-2.138-0.852c-1.095-0.709-2.239-1.354-3.412-1.925
		c-0.789-0.383-1.481-0.849-2.092-1.467c-1.189-1.204-2.392-2.395-3.586-3.592c-0.344-0.346-0.745-0.647-0.918-1.133
		c0-0.215,0-0.431,0-0.643c0.253-0.257,0.505-0.513,0.765-0.775c0.686,0.098,1.411-0.174,2.07,0.224
		c0.053,0.032,0.144-0.008,0.213,0.007c0.38,0.078,0.739-0.547,1.131-0.034c0.396-0.07,0.708,0.218,1.077,0.291
		c0.247,0.049,0.507,0.181,0.783,0.169c0.32-0.015,0.632,0.01,0.879,0.224c0.3,0.259,0.649,0.214,0.994,0.211
		c0.763-0.007,1.471,0.255,2.203,0.406c0.518,0.106,0.897,0.396,1.215,0.704c0.621,0.601,1.384,0.705,2.151,0.823
		c0.422,0.065,0.862,0.024,1.294,0.009c0.749-0.027,1.43,0.115,2.012,0.638C29.967,58.518,30.145,58.529,30.266,58.68z
		 M38.348,60.01c0.245-0.144,0.547-0.252,0.758-0.455c0.748-0.721,1.599-1.27,2.515-1.756c0.675-0.359,1.434-0.724,1.512-1.657
		c-0.271-0.656-0.675-1.262-0.654-2.006c0.006-0.215-0.176-0.367-0.26-0.537c-0.194-0.395-0.546-0.708-0.81-1.072
		c-0.337-0.465-0.621-0.96-0.689-1.548c-0.382-0.382-0.764-0.764-1.122-1.122c-0.338,0-0.652,0-0.939,0
		c-0.346,0.475-0.918,0.511-1.297,0.828c-0.603,0.022-1.211-0.104-1.739,0.274c-0.264,0.395-0.241,0.84-0.283,1.291
		c-0.117,1.247,0.283,2.451,0.239,3.691c-0.03,0.872-0.126,1.761,0.266,2.642c0.279,0.286,0.604,0.619,0.931,0.955
		C37.318,59.551,37.788,59.863,38.348,60.01z M47.52,35.568c0.691-0.54,1.157-1.34,2.048-1.729c0.293,0,0.652,0,1.013,0
		c0.178-0.178,0.355-0.356,0.539-0.54c0-0.102-0.005-0.209,0.001-0.316c0.036-0.69-0.257-1.162-0.896-1.449
		c-0.76-0.343-1.354-1.008-2.221-1.15c-0.594-0.706-1.383-0.719-2.288-0.612c-0.327,0.621-0.262,1.268-0.066,1.962
		c0.2,0.712,0.547,1.405,0.495,2.167c-0.05,0.735,0.251,1.264,0.803,1.666C47.16,35.567,47.339,35.567,47.52,35.568z M32.366,33.408
		c-1.147,0.679-1.955,1.459-2.392,2.581c0,0.321,0,0.675,0,1.002c0.367,0.429,0.898,0.342,1.329,0.526
		c0.436,0.377,0.811,0.865,1.57,0.862c0.126-0.174,0.291-0.402,0.541-0.748c0-0.093-0.112-0.454,0.02-0.653
		c0.551-0.833,0.364-1.739,0.402-2.464c-0.223-0.533-0.431-0.889-0.807-1.106C32.778,33.408,32.526,33.408,32.366,33.408z
		 M48.985,59.481c0.629,0.24,0.782-0.282,1.138-0.563c-0.235-0.354-0.458-0.539-0.855-0.446c-0.08,0.088-0.176,0.193-0.282,0.309
		C48.985,59.004,48.985,59.245,48.985,59.481z"/>
	
	
	
	
</g>
</svg>
