<?xml version="1.0" encoding="iso-8859-1"?>
<!-- Generator: Adobe Illustrator 16.0.0, SVG Export Plug-In . SVG Version: 6.00 Build 0)  -->
<!DOCTYPE svg PUBLIC "-//W3C//DTD SVG 1.1//EN" "http://www.w3.org/Graphics/SVG/1.1/DTD/svg11.dtd">
<svg version="1.1" id="Layer_1" xmlns="http://www.w3.org/2000/svg" xmlns:xlink="http://www.w3.org/1999/xlink" x="0px" y="0px"
	 width="72.36px" height="72.18px" viewBox="0 0 72.36 72.18" style="enable-background:new 0 0 72.36 72.18;" xml:space="preserve"
	>
<g>
	
	<path fill="currentColor" d="M38.913,35.158c0.444,0.657,0.444,1.242,0.021,1.87
		c-0.711,0.399-1.436,0.886-2.047,1.601c-0.589,0.688-1.146,1.363-1.55,2.462c-0.135,1.122,0.497,2.313,0.981,3.532
		c0.291,0.731,0.591,1.449,0.545,2.24c0.439,0.586,0.859,1.144,0.883,1.926c0.013,0.425,0.139,0.879,0.333,1.258
		c0.522,1.019,0.907,2.076,1.172,3.188c0.106,0.449,0.325,0.871,0.495,1.305c0.013,0.03,0.072,0.053,0.071,0.077
		c-0.03,0.975,0.691,1.814,0.459,2.938c-0.105,0.077-0.308,0.223-0.639,0.463c-0.902-0.119-2.056,0.34-3.165-0.417
		c-0.582-0.207-1.179,0.146-1.641,0.47c-0.608,0.426-1.21,0.649-1.915,0.596c-0.262-0.02-0.361,0.19-0.593,0.239
		c-0.29-0.279-0.757-0.18-1.107-0.461c-0.648,0.467-1.405,0.486-2.185,0.446c-0.44-0.206-0.846-0.507-1.338-0.647
		c-0.56-0.16-1.03-0.636-1.289-1.035c-0.225-0.347-0.034-0.695-0.153-1.037c-0.234-0.186-0.188-0.66-0.526-0.716
		c-0.807-0.135-0.993-0.813-1.347-1.368c-0.49-0.768-0.823-1.617-1.419-2.339c-0.455-0.55-0.745-1.271-0.974-1.959
		c-0.148-0.445-0.326-0.819-0.655-1.135c-0.479-0.457-0.843-1.001-0.981-1.643c-0.157-0.728-0.685-1.233-1.036-1.836
		c-0.234-0.401-0.509-0.797-0.725-1.217c-0.218-0.425-0.47-0.816-0.745-1.209c-0.375-0.536-0.696-1.17-0.826-1.806
		c-0.243-1.191-0.354-2.405-0.865-3.534c-0.095-0.209-0.128-0.596-0.005-0.726c0.393-0.416,0.055-0.947,0.33-1.39
		c0.243-0.393-0.013-0.92,0.097-1.362c0.127-0.513,0.215-1.088,0.622-1.46c0.372-0.339,0.476-0.866,0.904-1.146
		c0.059-0.039,0.146-0.1,0.147-0.151c0.017-0.936,0.76-1.296,1.357-1.805c0.718-0.612,1.22-1.389,1.274-2.379
		c0.015-0.276,0.366-0.455,0.192-0.819c0.681-0.41,0.842-1.209,1.307-1.805c0.544-0.699,1.453-0.976,2.101-0.387
		c0.443,0.403,1.022,0.638,1.338,1.246c0.256,0.494,0.753,0.905,1.371,1.058c0.626,0.155,0.999,0.706,1.497,1.053
		c0.417,0.291,0.938,0.503,1.227,0.963c0.114,0.183,0.311,0.167,0.454,0.212c1.174,0.371,2.062,1.153,3.005,1.896
		c0.7,0.553,1.278,1.217,1.96,1.772c0.343,0.279,0.461,0.688,0.747,0.997c0.597,0.646,1.365,1.048,2.086,1.504
		C38.413,34.838,38.547,35.222,38.913,35.158z"/>
	<path fill="currentColor" d="M52.042,28.002c0.956,0.088,1.307,0.851,1.64,1.476
		c0.46,0.862,0.942,1.609,1.787,2.17c0.563,0.374,1.05,0.913,1.408,1.55c0.286,0.509,0.628,1.015,1.123,1.342
		c0.097,0.587,0.053,1.142-0.194,1.647c-0.177,0.36-0.107,0.765-0.237,1.089c-0.15,0.377-0.229,0.738-0.172,1.107
		c0.068,0.445-0.298,0.767-0.241,1.208c0.055,0.425,0.119,0.896-0.009,1.285c-0.313,0.945-0.552,1.912-1.189,2.75
		c-0.488,0.643-1.19,1.143-1.424,1.993c-0.056,0.205-0.312,0.448-0.616,0.541c-0.351,0.106-0.649,0.41-0.768,0.697
		c-0.248,0.602-0.799,0.981-1.052,1.508c-0.3,0.626-0.757,1.004-1.248,1.403c-0.219,0.179-0.411,0.392-0.451,0.674
		c-0.078,0.552-0.773,0.694-0.801,1.291c-0.022,0.494-0.444,0.826-0.682,1.219c-0.396,0.653-1.129,0.992-1.809,1.377
		c-0.281,0-0.595,0-0.86,0c-0.271-0.188-0.356-0.404-0.297-0.746c-1.071-0.723-1.577-1.975-2.477-2.907
		c-0.357-0.371-0.508-0.934-0.782-1.392c-0.455-0.76-1.137-1.36-1.532-2.169c-0.073-0.148-0.154-0.293-0.227-0.446
		c-0.313-0.659-0.73-1.242-1.281-1.737c-0.487-0.438-0.731-1.054-1.075-1.597c-0.367-0.58-0.232-1.119,0.146-1.492
		c0.983-0.968,1.843-2.064,3.009-2.854c0.696-0.472,1.141-1.222,1.603-1.917c0.405-0.611,0.785-1.253,1.072-1.926
		c0.233-0.55,0.767-0.682,1.155-0.994c0.262-0.21,0.558-0.396,0.805-0.637c0.477-0.464,0.903-0.994,1.517-1.287
		c0.253-0.121,0.404-0.266,0.526-0.525c0.415-0.884,1.351-1.269,1.961-1.972c0.226-0.261,0.509-0.462,0.615-0.825
		C51.145,28.367,51.574,28.117,52.042,28.002z"/>
	<path fill="currentColor" d="M45.916,30.477c-1.705,0.943-2.993,2.252-4.472,3.36
		c-0.636-0.039-0.996-0.631-1.488-0.963c-0.505-0.341-0.999-0.756-1.479-1.159c-0.635-0.533-1.149-1.127-1.631-2.109
		c-0.184-0.812,0.395-1.862,0.234-2.951c0.24-0.192,0.007-0.39,0.02-0.575c0.025-0.402-0.171-0.823,0.173-1.225
		c0.143-0.166,0.071-0.564,0.016-0.84c-0.216-1.063-0.228-1.06,0.007-2.194c0.014-0.069,0.009-0.144,0-0.215
		c-0.153-1.348,0.386-2.658,0.198-3.967c0.275-0.571,0.567-1.068,1.199-1.245c0.433-0.106,0.894-0.101,1.272,0.172
		c0.779,0.563,1.597,0.565,2.427,0.199c0.432-0.19,0.777-0.232,1.236-0.011c0.664,0.32,1.438,0.441,1.719,1.266
		c0.928,0.813,1.428,1.983,2.356,2.801c0.438,0.386,0.856,0.792,1.062,1.39c0.095,0.276,0.362,0.572,0.628,0.694
		c0.821,0.379,1.17,1.106,1.499,1.854c0.06,0.137,0.156,0.22,0.225,0.336c-0.421,0.623-1.009,1.082-1.672,1.381
		c-0.761,0.344-1.29,0.811-1.587,1.611c-0.125,0.335-0.356,0.648-0.768,0.879C46.542,29.276,46.067,29.805,45.916,30.477z"/>
	<path fill="currentColor" d="M31.351,18.497c0.256,0.258,0.509,0.512,0.773,0.777
		c-0.149,0.988,0.273,1.871,0.658,2.727c0.339,0.755,0.597,1.499,0.632,2.326c0.019,0.44,0.234,0.825,0.409,1.229
		c0.293,0.68,0.514,1.4,0.443,2.14c-0.134,0.126-0.236,0.223-0.371,0.352c-0.686-0.245-1.324-0.458-1.817-1.147
		c-0.5-0.699-1.263-1.226-2.272-1.28c-0.368-0.377-0.78-0.776-1.165-1.201c-0.241-0.266-0.563-0.431-0.871-0.49
		c-0.274-0.053-0.438-0.173-0.62-0.34c-0.32-0.295-0.698-0.463-1.172-0.55c-0.351-0.245-0.579-0.588-0.788-1.128
		c-0.09-0.734,0.302-1.431,0.911-2.042c0.38-0.381,0.762-0.762,1.06-1.06C28.596,18.341,29.981,18.555,31.351,18.497z"/>
</g>
</svg>
