<svg xmlns="http://www.w3.org/2000/svg" xml:space="preserve" width="72px" height="72px" viewBox="0 0 72 72">
    <path fill="currentColor" d="M51.019 45.294c.293-.045.527.009.676.25a1 1 0 0 1 .151.367c.116.78.655 1.342 1.098 1.913.485.626 1.038 1.247 1.817 1.568.514.212.892.64 1.161 1.063.409.643.976 1.111 1.48 1.646.543.576 1.116 1.124 1.677 1.684.138.352-.049.726.199 1.112.257.398-.087 1.146-.572 1.387-.273.136-.523.321-.623.537-.298.641-.849.965-1.369 1.368-.475.367-.944.564-1.64.459-.397-.545-1.119-.911-1.449-1.661-.144-.328-.562-.396-.809-.625-.751-.696-1.429-1.472-2.285-2.054-.509-.345-.804-.894-1.104-1.384-.191-.312-.396-.613-.662-.787-1.182-.772-2.089-1.841-3.001-2.869-.705-.794-1.391-1.615-2.187-2.306a41 41 0 0 1-1.879-1.7c-.732-.719-1.279-1.6-2.055-2.285-.659-.584-1.255-1.23-1.966-1.767-.466-.351-.815-.853-1.187-1.322-.468-.591-1.127-1.039-1.743-1.496-.125-.092-.319-.151-.411-.286-.501-.728-1.316-.897-2.066-.997-1.048-.139-1.879-.574-2.607-1.289-.021-.021-.061-.025-.091-.038-.664.321-1.177.798-1.636 1.236-.583.557-1.056 1.218-1.793 1.642-.512.294-.88.839-1.313 1.271-1.07 1.068-2.179 2.104-2.98 3.409-.037.06-.097.106-.151.153-1.42 1.209-2.245 2.838-3.136 4.424-.347.617-.756 1.2-1.142 1.795-.057.088-.18.146-.207.238-.411 1.408-1.455 2.341-2.488 3.302h-.857c-.487-.222-.204-.772-.55-1.007.259-.583.365-1.211.622-1.8.215-.494.39-1.007.736-1.416.163-.192.105-.497.369-.609-.039-1.211 1.094-1.919 1.302-3.024.005-.029.044-.057.073-.077 1.059-.758 1.332-2.056 2.075-3.032.05-.065.054-.197.14-.262.659-.493.99-1.237 1.454-1.881.437-.606.885-1.2 1.232-1.866.095-.183.266-.382.449-.452.563-.213.835-.74 1.276-1.048-.033-.295.016-.499.226-.703.519-.505 1.128-.949 1.316-1.72.029-.12.194-.206.295-.308.356-.356.77-.673 1.052-1.081.26-.374.38-.846.562-1.274 0-.036.016-.086-.002-.105-.405-.446-.264-1.047-.389-1.561-.165-.678-.041-1.426-.041-2.107.342-.389.341-.969.783-1.226.877-.51 1.491-1.303 2.186-2.004.303-.306.791-.335.956-.75 1.362-.059 1.362-.059 2.453.611h1.266c.992-.72.908-1.872 1.299-3.003.273-.27.535-.749.833-1.195a5.5 5.5 0 0 1 1.676-1.623c.083-.051.194-.083.253-.163.913-1.244 2.388-1.739 3.566-2.628.275-.208.509-.467.826-.655.559-.034 1.104-.132 1.596-.522.74-.588 1.704-.746 2.528-1.197.331-.182.846-.03 1.245-.03.421-.339 1.007-.373 1.288-.854h1.985c.663.62 1.183 1.381 1.679 2.22-.451.949-.975 1.776-2.134 1.861a1.17 1.17 0 0 0-.633.279c-.472.423-1.053.608-1.588.89-.274.145-.546.287-.752.534-.41.492-.98.721-1.571.892a1.2 1.2 0 0 0-.363.174c-.641.443-1.305.856-1.938 1.309-.335.24-.543.635-.979.771-.152.047-.317.22-.375.373-.213.56-.722.851-1.06 1.271-.229.015-.426-.034-.612.157-.465.474-.973.904-1.481 1.334-.592.5-1.073 1.181-1.454 1.865-.403.725-.339 1.578.21 2.292.586.762.754 1.755 1.463 2.426.061.665.751.961.917 1.564.769.625 1.035 1.612 1.673 2.334.078.088.022.271.158.363.511.345.722.941 1.145 1.363.904.901 1.87 1.753 2.588 2.818.394.584.841 1.068 1.443 1.438.584.358.809 1.05 1.298 1.514.857.817 1.682 1.674 2.58 2.572"/>
</svg>
