<?xml version="1.0" encoding="iso-8859-1"?>
<!-- Generator: Adobe Illustrator 16.0.0, SVG Export Plug-In . SVG Version: 6.00 Build 0)  -->
<!DOCTYPE svg PUBLIC "-//W3C//DTD SVG 1.1//EN" "http://www.w3.org/Graphics/SVG/1.1/DTD/svg11.dtd">
<svg version="1.1" id="Layer_1" xmlns="http://www.w3.org/2000/svg" xmlns:xlink="http://www.w3.org/1999/xlink" x="0px" y="0px"
	 width="72.36px" height="72.18px" viewBox="0 0 72.36 72.18" style="enable-background:new 0 0 72.36 72.18;" xml:space="preserve"
	>
<g>
	
	<path fill="currentColor" d="M51.019,45.294c0.293-0.045,0.527,0.009,0.676,0.25
		c0.069,0.111,0.133,0.239,0.151,0.367c0.116,0.78,0.655,1.342,1.098,1.913c0.485,0.626,1.038,1.247,1.817,1.568
		c0.514,0.212,0.892,0.64,1.161,1.063c0.409,0.643,0.976,1.111,1.48,1.646c0.543,0.576,1.116,1.124,1.677,1.684
		c0.138,0.352-0.049,0.726,0.199,1.112c0.257,0.398-0.087,1.146-0.572,1.387c-0.273,0.136-0.523,0.321-0.623,0.537
		c-0.298,0.641-0.849,0.965-1.369,1.368c-0.475,0.367-0.944,0.564-1.64,0.459c-0.397-0.545-1.119-0.911-1.449-1.661
		c-0.144-0.328-0.562-0.396-0.809-0.625c-0.751-0.696-1.429-1.472-2.285-2.054c-0.509-0.345-0.804-0.894-1.104-1.384
		c-0.191-0.312-0.396-0.613-0.662-0.787c-1.182-0.772-2.089-1.841-3.001-2.869c-0.705-0.794-1.391-1.615-2.187-2.306
		c-0.64-0.554-1.275-1.108-1.879-1.7c-0.732-0.719-1.279-1.6-2.055-2.285c-0.659-0.584-1.255-1.23-1.966-1.767
		c-0.466-0.351-0.815-0.853-1.187-1.322c-0.468-0.591-1.127-1.039-1.743-1.496c-0.125-0.092-0.319-0.151-0.411-0.286
		c-0.501-0.728-1.316-0.897-2.066-0.997c-1.048-0.139-1.879-0.574-2.607-1.289c-0.021-0.021-0.061-0.025-0.091-0.038
		c-0.664,0.321-1.177,0.798-1.636,1.236c-0.583,0.557-1.056,1.218-1.793,1.642c-0.512,0.294-0.88,0.839-1.313,1.271
		c-1.07,1.068-2.179,2.104-2.98,3.409c-0.037,0.06-0.097,0.106-0.151,0.153c-1.42,1.209-2.245,2.838-3.136,4.424
		c-0.347,0.617-0.756,1.2-1.142,1.795c-0.057,0.088-0.18,0.146-0.207,0.238c-0.411,1.408-1.455,2.341-2.488,3.302
		c-0.29,0-0.604,0-0.857,0c-0.487-0.222-0.204-0.772-0.55-1.007c0.259-0.583,0.365-1.211,0.622-1.8
		c0.215-0.494,0.39-1.007,0.736-1.416c0.163-0.192,0.105-0.497,0.369-0.609c-0.039-1.211,1.094-1.919,1.302-3.024
		c0.005-0.029,0.044-0.057,0.073-0.077c1.059-0.758,1.332-2.056,2.075-3.032c0.05-0.065,0.054-0.197,0.14-0.262
		c0.659-0.493,0.99-1.237,1.454-1.881c0.437-0.606,0.885-1.2,1.232-1.866c0.095-0.183,0.266-0.382,0.449-0.452
		c0.563-0.213,0.835-0.74,1.276-1.048c-0.033-0.295,0.016-0.499,0.226-0.703c0.519-0.505,1.128-0.949,1.316-1.72
		c0.029-0.12,0.194-0.206,0.295-0.308c0.356-0.356,0.77-0.673,1.052-1.081c0.26-0.374,0.38-0.846,0.562-1.274
		c0-0.036,0.016-0.086-0.002-0.105c-0.405-0.446-0.264-1.047-0.389-1.561c-0.165-0.678-0.041-1.426-0.041-2.107
		c0.342-0.389,0.341-0.969,0.783-1.226c0.877-0.51,1.491-1.303,2.186-2.004c0.303-0.306,0.791-0.335,0.956-0.75
		c1.362-0.059,1.362-0.059,2.453,0.611c0.396,0,0.792,0,1.188,0c0.036,0,0.071,0,0.078,0c0.992-0.72,0.908-1.872,1.299-3.003
		c0.273-0.27,0.535-0.749,0.833-1.195c0.421-0.63,1-1.207,1.676-1.623c0.083-0.051,0.194-0.083,0.253-0.163
		c0.913-1.244,2.388-1.739,3.566-2.628c0.275-0.208,0.509-0.467,0.826-0.655c0.559-0.034,1.104-0.132,1.596-0.522
		c0.74-0.588,1.704-0.746,2.528-1.197c0.331-0.182,0.846-0.03,1.245-0.03c0.421-0.339,1.007-0.373,1.288-0.854
		c0.661,0,1.307,0,1.985,0c0.663,0.62,1.183,1.381,1.679,2.22c-0.451,0.949-0.975,1.776-2.134,1.861
		c-0.267,0.02-0.515,0.174-0.633,0.279c-0.472,0.423-1.053,0.608-1.588,0.89c-0.274,0.145-0.546,0.287-0.752,0.534
		c-0.41,0.492-0.98,0.721-1.571,0.892c-0.141,0.041-0.246,0.093-0.363,0.174c-0.641,0.443-1.305,0.856-1.938,1.309
		c-0.335,0.24-0.543,0.635-0.979,0.771c-0.152,0.047-0.317,0.22-0.375,0.373c-0.213,0.56-0.722,0.851-1.06,1.271
		c-0.229,0.015-0.426-0.034-0.612,0.157c-0.465,0.474-0.973,0.904-1.481,1.334c-0.592,0.5-1.073,1.181-1.454,1.865
		c-0.403,0.725-0.339,1.578,0.21,2.292c0.586,0.762,0.754,1.755,1.463,2.426c0.061,0.665,0.751,0.961,0.917,1.564
		c0.769,0.625,1.035,1.612,1.673,2.334c0.078,0.088,0.022,0.271,0.158,0.363c0.511,0.345,0.722,0.941,1.145,1.363
		c0.904,0.901,1.87,1.753,2.588,2.818c0.394,0.584,0.841,1.068,1.443,1.438c0.584,0.358,0.809,1.05,1.298,1.514
		C49.296,43.539,50.121,44.396,51.019,45.294z"/>
</g>
</svg>
