<svg xmlns="http://www.w3.org/2000/svg" xml:space="preserve" width="72px" height="72px" viewBox="0 0 72 72">
    <path fill="currentColor" d="M35.661 45.707c.518-.861.882-1.664 2.009-1.473.157.561-.038 1.023-.292 1.544-.504 1.029-1.106 1.954-1.916 2.776-.642.652-1.115 1.459-1.179 2.415a1.23 1.23 0 0 1-.306.73c-.54.568-.779 1.288-.965 1.981-.146.546-.383.957-.776 1.3-.513.446-.739 1.05-1.053 1.667a1.98 1.98 0 0 0-1.108.987c-.313.664-.812 1.207-1.031 1.952-.211.717-.608 1.394-.839 2.133-.163.519-.667.762-1.203.841-.247.036-.503.006-.755.006-.249-.174-.581-.216-.801-.522v-1.669l.612-.555c-.02-.491.161-.885-.397-1.123h-.754c-.272.212-.623.344-.906.618-.502.485-.916 1.057-1.564 1.413-.365.2-.503.723-.847 1.037-.832.76-1.439.792-2.231.031-.551-.529-1.054-1.109-1.796-1.401-.185-.073-.327-.272-.467-.432-.245-.277-.422-.663-.723-.829-.361-.199-.565-.525-.868-.762-.355-.275-.62-.634-1.044-.862-.521-.279-.8-.885-1.124-1.36-.411-.603-1.025-1.025-1.358-1.692-.098-.195-.077-.509-.388-.594.028-.847-.004-1.664-.413-2.426-.09-.168-.003-.426-.018-.64-.043-.621.01-1.229-.179-1.865-.267-.898.269-1.728.68-2.499.319-.598.776-1.129 1.214-1.654.192-.231.454-.413.711-.597.887-.635 1.553-1.48 1.664-2.611.046-.479.654-.673.503-1.2.498-.646.762-1.443 1.366-2.03.59-.572 1.078-1.231 1.393-2.01a17 17 0 0 1 .759-1.628c.271-.511.721-.899 1.005-1.417.198-.361.614-.535 1.063-.529.394.005.787.001 1.102.001.417.243.73.53 1.131.43.514.456.642.994.542 1.565-.127.725-.292 1.417-.682 2.096-.545.949-1.071 1.958-1.047 3.128.005.266.168.372.304.526.604-.172.971-.62 1.194-1.155.174-.415.612-.723.639-1.127.035-.529.487-.68.646-1.041.078-.178.251-.322.254-.542.004-.397.227-.697.456-1 .16-.212.391-.466.382-.693-.023-.597.36-1.013.542-1.514.183-.506.314-1.022.741-1.432.211-.204.209-.621.327-.933.202-.533.561-1.021.737-1.527.196-.561.556-.927.844-1.386a9 9 0 0 0 .907-1.993c.073-.226.364-.368.258-.651.555-.535.771-1.25 1.106-1.914.247-.489.335-.94.414-1.457.138-.9.52-1.739 1.086-2.456.33-.417.527-.83.658-1.357.146-.59.361-1.276 1.045-1.542.292-.114.555-.345.614-.55.263-.92 1.151-1.366 1.533-2.311-.157-.68.392-1.428.22-2.196.472-.817 1.075-1.423 1.854-1.851.125.207.334.219.63.196.213.212.49.44.704.717.201.262.194.648.463.882.172 1.269-.179 2.454-.555 3.637-.143.449-.15.943-.03 1.365.223.778.641 1.513.181 2.335-.118 1.91-.734 3.704-1.299 5.509-.069.221-.149.455-.287.634-.292.38-.347.794-.373 1.257-.034.583-.29 1.145-.203 1.748.016.104-.006.216.152.289.773-.305 1.361-.912 1.905-1.54.702-.812.672-.837 1.618-1.275.844.28 1.079.884 1.103 1.739.026.943-.251 1.809-.762 2.488-.419.558-.412 1.216-.774 1.745.037 1.26-.567 2.349-.95 3.494-.146.437-.188.952-.602 1.259-.408.302-.656.736-.898 1.145-.523.884-1.492 1.4-1.912 2.338-.402.896-1.106 1.516-1.77 2.181a2.8 2.8 0 0 0-.756 1.41c-.047.221-.15.405-.253.543-.475.627-.877 1.311-1.371 1.914a10 10 0 0 0-1.667 2.881c-.265.711-.744 1.371-1.239 1.96-.314.373-.533.811-.88 1.164-.232.237-.566.27-.779.516-.234.313.102.801-.353 1.031.249.32.244.76.649.92 1.031-.423 1.408-1.289 1.833-2.269.618-1.42 1.285-2.886 2.554-3.906.45-.361.702-.867 1.036-1.308.585-.773.545-.804 1.4-1.168m2.451 5.417c.416.011.803-.321 1.266-.25.078-.27.627-.067.521-.521.425-.37.595-.952 1.067-1.285.141-.1.254-.265.408-.315.587-.192.985-.563 1.251-1.117.23-.481.687-.817.773-1.411.11-.753.665-1.325 1.082-1.913.473-.667.87-1.386 1.3-2.07.324-.516.559-1.135.896-1.667.221-.349.022-.696.166-1.015.177-.466.511-.85.624-1.363.061-.276.244-.543.399-.805.236-.399.695-.683.676-1.234-.004-.103.146-.258.261-.312.831-.388 1.219-1.217 1.79-1.848.443-.489.841-1.031 1.326-1.486a9 9 0 0 1 .978-.763c.217-.15.479-.055.697-.055.533.336.449.98.752 1.429.069.102.003.317-.065.496a13 13 0 0 0-.557 1.818c-.113.507-.035 1.457.219 1.952.505.985.554 2.055.37 3.058-.142.775-.1 1.531-.172 2.293-.05.513.121.942.402 1.361.062 1.136.422 2.271.198 3.514-.556.241-.975.771-1.453 1.228-.061 1.591.162 3.192-.35 4.893-.19.198-.564.475-.728.929v1.749c-.673.53-.898 1.322-1.075 2.114-.078.354-.211.64-.398.87-.27 1.063.333 2.039.139 3.135a10.6 10.6 0 0 1-2.983 1.788 43 43 0 0 1-3.205 1.12c-.03.01-.051.07-.077.071-.825.021-1.591.317-2.38.51-.229.056-.455.061-.694.144a1.66 1.66 0 0 1-1.313-.074c-.265-.13-.604-.293-.96-.287-.733.012-1.396.029-2.046.568-.679.563-1.654.666-2.435 1.14-.26.158-.796.154-1.038-.016-.382-.268-.759-.079-1.114-.198-.421-.471-1.061-.411-1.588-.587-.482-.161-.962-.309-1.196-.723-.205-.362-.395-.796-.329-1.266.024-.176.004-.357.004-.342.182-.661.604-.945.863-1.351a16.4 16.4 0 0 0 1.095-2.028c.252-.553.506-1.127 1.019-1.523.28-.217.428-.547.469-.88.083-.673.443-1.18.815-1.72.597-.865 1.384-1.597 1.799-2.597.171-.413.584-.692.88-1.024.58-.654.782-1.57 1.651-2.134m5.863-35.304.556-.555h.651l.912.926c.132.569.316 1.136.6 1.671.155.294.388.576.318.943-.051.27.171.364.29.53.116.162.178.371.313.513.326.343.372.789.47 1.207.068.295.061.584.201.89.194.422.308.904.251 1.407-.065.589.471 1.119.213 1.575.303 1.067 1.047 1.623 1.696 2.302v.941c-.848 1.318-2.3 2.136-2.98 3.503h-1.211l-.296-.296c-.118-.996.079-1.93.406-2.85.239-.672.342-1.376.442-2.081.063-.438.237-.845.229-1.313-.011-.534-.245-.983-.354-1.474a.99.99 0 0 0-.842-.78c-.456-.042-.84-.343-1.126-.299l-.792-.555c.466-1.002.417-2.037.237-2.967-.212-1.1-.063-2.177-.184-3.238m15.999 32.211-1.066-1.765c-.059-.469.001-.935-.191-1.425-.172-.436-.074-.996-.025-1.495.049-.501-.16-.944-.278-1.368.277-.249.54-.103.833-.16l1.83 2.534c.272.108.551.157.682-.104.481-.96 1.344-1.405 2.288-1.764.737.362.737.362 1.08.926.18 1.439-.033 2.765-1.045 3.896v.86c-.798 1.18-1.246 2.584-2.791 2.942-.23.074-.282-.342-.548-.207-.525-.899-.829-1.858-.769-2.87"/>
</svg>
