<?xml version="1.0" encoding="iso-8859-1"?>
<!-- Generator: Adobe Illustrator 16.0.0, SVG Export Plug-In . SVG Version: 6.00 Build 0)  -->
<!DOCTYPE svg PUBLIC "-//W3C//DTD SVG 1.1//EN" "http://www.w3.org/Graphics/SVG/1.1/DTD/svg11.dtd">
<svg version="1.1" id="Layer_1" xmlns="http://www.w3.org/2000/svg" xmlns:xlink="http://www.w3.org/1999/xlink" x="0px" y="0px"
	 width="72.36px" height="72.18px" viewBox="0 0 72.36 72.18" style="enable-background:new 0 0 72.36 72.18;" xml:space="preserve"
	>
<g>
	
	<path fill="currentColor" d="M19.368,33.516c-0.19-0.19-0.333-0.355-0.498-0.494
		c-0.576-0.484-0.761-1.177-0.543-1.798c0.199-0.569,0.107-1.092,0.195-1.674c-0.441,0-0.827,0-1.199,0
		c-0.768-0.908-1.821-1.526-2.2-2.739c0.237-0.448,0.237-0.448,0.81-0.741c0.201-0.034,0.335,0.043,0.489,0.157
		c0.121,0.089,0.33,0.06,0.492,0.082c0.677,0.753,1.712,1.2,1.837,2.341c0.207,0,0.35,0,0.515,0
		c0.284-0.296,0.582-0.607,0.957-0.998c-0.067-0.523,0.168-1.029,0.625-1.456c1.014-0.945,1.801-2.099,2.813-3.054
		c0.435-0.411,0.692-0.993,0.68-1.655c-0.016-0.875-0.09-1.759,0.387-2.804c0.526-0.403,0.933-1.25,1.605-1.884
		c0.442-0.416,0.949-0.686,1.483-0.866c0.521-0.176,0.974-0.437,1.433-0.717c0.658-0.4,1.35-0.747,2.002-1.156
		c0.598-0.375,1.244-0.653,1.88-0.941c0.634-0.287,1.339-0.414,1.989-0.672c0.777-0.31,1.441-0.804,2.017-1.468
		c0.431-0.011,0.808-0.224,1.179-0.465c0.573-0.373,1.208-0.578,1.889-0.653c0.433-0.048,0.758-0.297,1.074-0.636
		c0.711,0.111,1.377-0.326,2.134-0.242c0.629,0.07,1.188,0.168,1.722,0.571c0.231,0.175,0.463,0.407,0.746,0.522
		c0.553,0.225,0.846,0.685,1.134,1.281c0,0.142-0.008,0.392,0.002,0.64c0.019,0.493-0.069,0.924-0.346,1.374
		c-0.509,0.826-0.422,1.223,0.257,1.902c0.24,0.241,0.441,0.508,0.805,0.656c1.387,0.564,2.222,1.808,3.264,2.795
		c0.184,0.173,0.253,0.466,0.365,0.683c-0.45,0.95-0.143,1.921-0.268,2.894c1.177,0.595,1.525,1.839,2.379,2.86
		c0.29,0,0.748,0,1.221,0c0.634-0.354,1.304-0.678,2.185-0.601c0.105,0.143,0.254,0.344,0.482,0.652c0,0.22,0,0.605,0,1.012
		c-0.599,0.374-1.181,0.79-1.813,1.104c-0.267,0.133-0.393,0.284-0.561,0.515c-0.526,0.724-1.039,1.459-1.612,2.153
		c-0.507,0.612-0.976,1.195-1.739,1.521c-0.332,0.142-0.555,0.551-0.509,0.955c0.14,1.209-0.365,2.284-0.654,3.405
		c-0.018,0.067-0.002,0.144-0.002,0.207c-0.271,0.413-0.746,0.628-0.926,1.138c-0.113,0.32-0.535,0.42-0.855,0.496
		c-0.812,0.193-1.637,0.349-2.474,0.182c-0.438-0.273-0.233-0.707-0.29-1.132c0.812-0.899,2.001-1.481,2.563-2.667
		c0.069-0.132-0.042-0.33,0.135-0.464c0.177-0.135,0.102-0.323,0.129-0.576c-0.105-0.063-0.257-0.155-0.518-0.313
		c-0.679,0.165-1.414,0.59-2.108,1.038c-0.793,0.512-1.532,0.658-2.354,0.186c0.015-0.244-0.03-0.438,0.159-0.625
		c0.947-0.94,1.855-1.921,3.033-2.591c0.088-0.05,0.134-0.138,0.259-0.163c0.609-0.122,1.099-0.462,1.615-0.802
		c0.622-0.409,1.125-0.979,1.842-1.275c0.308-0.127,0.551-0.483,0.726-0.863c0.169-0.365,0.213-0.633,0.013-0.967
		c-0.452-0.753-0.672-1.601-0.899-2.432c-0.118-0.434-0.062-0.923-0.043-1.386c0.021-0.519-0.135-0.947-0.51-1.304
		c-0.305-0.289-0.497-0.615-0.602-1.051c-0.107-0.451-0.414-0.856-0.812-1.219c0-0.279,0-0.593,0-0.861
		c-0.721-0.886-1.778-0.881-2.903-1.39c-0.578-0.529-1.094-1.371-1.246-2.444c-0.039-0.275-0.19-0.585-0.441-0.769
		c-0.17-0.14-0.352-0.051-0.519-0.068c-0.794,0.716-0.583,1.541-0.217,2.348c0.297,0.656,0.611,1.294,0.547,2.042
		c-0.013,0.146,0.008,0.269,0.128,0.381c0.185,0.171,0.15,0.469,0.071,0.599c-0.387,0.631-0.362,1.471-0.974,1.971
		c-0.285,0.233-0.327,0.603-0.596,0.844c-0.261,0.233-0.586,0.346-0.848,0.588c-0.682,0.627-1.196,1.391-1.821,2.061
		c-0.218,0.233-0.478,0.323-0.801,0.419c-1.797,0.534-1.961,0.502-3.089,0.19c-0.344-0.095-1.235,0.059-1.727,0.256
		c-0.254,0.486,0.104,0.804,0.416,0.945c0.792,0.358,1.136,1.245,1.949,1.549c0.357,0.83,1.271,1.373,1.239,2.4
		c-0.005,0.176,0.157,0.228,0.206,0.348c0.244,0.598,0.446,1.184,0.488,1.864c0.04,0.633,0.135,1.347,0.653,1.88
		c0.201,0.207,0.418,0.489,0.375,0.806c-0.108,0.793,0.379,1.443,0.486,2.183c0.016,0.108,0.186,0.189,0.174,0.357
		c-0.107,1.562,0.473,3.117,0.181,4.655c-0.236,1.242-0.115,2.466-0.183,3.696c-0.006,0.107,0.046,0.26-0.008,0.317
		c-0.544,0.581-0.285,1.332-0.458,1.979c-0.229,0.857-0.257,1.815-0.972,2.513c-0.442,0.433-0.258,1.051-0.288,1.446
		c-0.412,0.414-0.738,0.742-1.104,1.108c-0.156,0.026-0.223-0.184-0.392-0.305c-0.011-0.387-0.035-0.757,0.168-1.177
		c0.216-0.447,0.223-0.993,0.268-1.515c0.075-0.867,0.218-1.731,0.609-2.548c0.405-0.848,0.292-1.769,0.126-2.668
		c-0.012-0.062-0.073-0.113-0.111-0.17c0.22-0.724,0.739-1.418,0.212-2.224c0.145-0.23,0.29-0.464,0.223-0.767
		c-0.057-0.257,0.106-0.45,0.191-0.674c0.096-0.248,0.022-0.561-0.027-0.823c-0.014-0.469-0.444-0.671-0.634-1.042
		c-0.161-0.316-0.291-0.702-0.151-0.877c0.355-0.445,0.08-0.898,0.195-1.28c-0.491-0.598-0.445-1.316-0.781-2.157
		c-0.115-0.106-0.429-0.352-0.684-0.648c-0.145-0.168-0.19-0.42-0.303-0.689c0.257-0.438,0.33-0.948,0.187-1.577
		c-0.17-0.271-0.539-0.468-1.038-0.7c-0.395-0.081-1.006,0.227-1.457-0.251c-0.103-0.522-0.053-0.995,0.24-1.412
		c0.261-0.372,0.127-0.656-0.039-1.044c-0.527-1.23-1.55-1.87-2.671-2.386c-0.329-0.151-0.762-0.078-1.158-0.108
		c-0.21-0.265-0.687-0.196-0.763-0.573c-0.455-0.156-0.893,0.113-1.291-0.171c-0.368-0.262-0.837,0.055-1.229-0.158
		c-0.353-0.192-0.707-0.38-1.082-0.581c-0.476,0.212-0.973,0.392-1.181,1.004c-0.071,0.208-0.354,0.387-0.622,0.528
		c-0.869,0.46-1.629,1.108-2.056,1.997c-0.413,0.858-1.218,1.166-1.863,1.698c-0.492,0.54-0.439,1.239-0.332,1.871
		c0.079,0.462,0.325,0.944,0.918,1.132c0.379,0.12,0.703,0.418,0.998,0.726c0.403,0.42,0.563,0.944,0.395,1.435
		c-0.117,0.342-0.078,0.696-0.2,0.995c-0.335,0.824-0.119,1.775-0.629,2.547c0.046,0.635-0.22,1.186-0.396,1.774
		c-0.162,0.54-0.37,1.114-0.408,1.659c-0.083,1.165-0.304,2.372,0.358,3.486c0.186,0.313,0.284,0.688,0.239,1.092
		c-0.047,0.427,0.008,0.864-0.014,1.295c-0.042,0.806,0.258,1.557,0.354,2.326c0.162,1.285,0.394,2.657-0.636,3.788
		c-0.276,0.304-0.387,0.702-0.371,1.143c0.033,0.874-0.072,1.758,0.267,2.607c0.328,0.522,0.868,0.795,1.403,1.117
		c0.423,0.255,0.958-0.141,1.268,0.341c0.678-0.143,1.295,0.244,1.962,0.222c0.647-0.023,1.315,0.093,1.939-0.03
		c0.803-0.158,1.637-0.201,2.408-0.438c0.622-0.191,1.311-0.347,1.823-0.792c0.321-0.278,0.698-0.482,1.06-0.571
		c0.727-0.18,1.185-0.772,1.847-1.028c0.118-0.046,0.236-0.186,0.282-0.309c0.277-0.75,0.866-1.25,1.405-1.8
		c0.139,0,0.281,0,0.427,0c0.599,0.997,0.422,1.866-0.4,2.567c-0.95,0.81-1.553,1.943-2.527,2.726
		c-0.216,0.173-0.123,0.487-0.39,0.614c0,0.307,0,0.62,0,0.915c0.173,0.155,0.283,0.367,0.572,0.318
		c0.225,0.876,0.873,1.506,1.348,2.25c0,0.353,0,0.711,0,1.172c0.195,0.157,0.445,0.357,0.686,0.551
		c-0.115,0.269-0.207,0.482-0.294,0.687c-0.305,0.147-0.605,0.293-0.94,0.455c-0.383-0.116-0.689-0.355-0.873-0.805
		c-0.092-0.226-0.327-0.465-0.66-0.467c-0.154-0.226-0.041-0.482-0.088-0.818c0.201-0.168,0.447-0.373,0.648-0.541
		c0.057-0.291-0.149-0.362-0.251-0.497c-0.051-0.068-0.08-0.01-0.157,0.025c-0.393,0.181-0.771,0.355-0.656,0.884
		c-0.243,0.243-0.472,0.473-0.735,0.735c-0.134,0.012-0.354-0.034-0.465,0.055c-0.251,0.203-0.466,0.303-0.75,0.081
		c-0.075-0.06-0.188-0.117-0.275-0.105c-1.105,0.144-2.124-0.128-3.076-0.661c-0.421-0.235-0.865-0.202-1.117-0.206
		c-0.742-0.341-1.325-0.588-1.891-0.871c-0.655-0.328-1.308-0.653-1.99-0.933c-0.514-0.21-0.775-0.831-1.039-1.283
		c-0.397-0.68-0.997-1.044-1.582-1.436c-0.608-0.407-1.119-0.843-1.103-1.61c0.006-0.291-0.345-0.386-0.237-0.667
		c-0.383-0.305-0.31-0.789-0.178-1.081c0.262-0.583,0.3-1.259,0.673-1.769c0.274-0.374,0.284-0.828,0.522-1.191
		c0.113-0.173,0.107-0.38,0.05-0.51c-0.329-0.747-0.2-1.527-0.19-2.291c0.007-0.532-0.042-1.062-0.247-1.523
		c-0.383-0.864-0.349-1.844-0.825-2.686c-0.139-0.245-0.118-0.676-0.004-0.952c0.415-1.005,0.098-2.037,0.193-3.05
		c0.039-0.405-0.393-0.747-0.03-1.25c0.221-0.307-0.039-0.868,0.233-1.3c0.113-0.181,0.056-0.499,0.012-0.743
		c-0.132-0.729,0.099-1.405,0.477-1.96c0.348-0.511,0.398-1.013,0.396-1.571C19.365,35.227,19.368,34.398,19.368,33.516z"/>
	<path fill="currentColor" d="M28.858,42.867c0.052,0.683,0.42,1.085,1.105,1.34c0.672,0,1.463,0,2.257,0
		c0.277,0.28,0.556,0.561,0.844,0.852c0.709,0,1.425,0,2.184,0c0.343,0.526,1.018,0.691,1.386,1.19
		c0.108,0.545-0.136,0.953-0.46,1.376c-0.298,0-0.613,0-0.981,0c-0.388-0.278-0.375-0.895-0.779-1.232c-0.321,0-0.635,0-0.964,0
		c-0.162,1.095,0.181,2.208-0.306,3.258c0.426,0.551,1.23,0.555,1.591,1.248c-0.393,0.523-0.997,0.796-1.593,1.09
		c-0.527,0.261-1.125,0.305-1.665,0.383c-1.057,0.152-2.16,0.126-3.228,0.012c-0.584-0.062-1.083-0.532-1.542-0.943
		c-0.472-0.423-0.885-0.897-1.257-1.567c0-0.179,0-0.493,0-0.841c0.171-0.171,0.375-0.375,0.62-0.619
		c-0.082-0.369,0.152-0.809-0.133-1.186c-0.129-0.171-0.146-0.4-0.076-0.493c0.25-0.329,0.323-0.611-0.015-0.912
		c0.112-0.604-0.026-1.217-0.265-1.723c-0.27-0.572-0.049-1.117-0.182-1.63c0.091-0.214,0.237-0.354,0.289-0.566
		c0.037-0.148,0.237-0.258,0.338-0.359c0.253-0.808-0.339-1.383-0.501-2.068c-0.123-0.521-0.393-0.979-0.71-1.44
		c-0.277-0.402-0.517-0.952-0.477-1.517c0.019-0.259-0.036-0.48-0.246-0.69c0.357-0.556,0.275-1.357,1.105-1.754
		c0.41-0.033,0.917-0.149,1.417-0.42c0.266-0.144,0.391-0.287,0.543-0.529c0.557-0.887,0.665-1.895,0.953-2.992
		c0.145-0.31,0.54-0.146,0.861-0.186c0.516,0.504,1.044,0.961,0.999,1.775c-0.011,0.199,0.204,0.411,0.346,0.673
		c0.606,0.231,1.218,0.564,1.865,0.839c1.133,0.481,2.24,1.116,3.201,1.882c0.783,0.625,1.325,1.542,1.491,2.661
		c-0.143,0.233-0.37,0.436-0.571,0.588c-0.45,0.075-0.757-0.152-0.978-0.373c-0.306-0.304-0.617-0.282-0.951-0.241
		c-0.415,0.228-0.312,0.607-0.312,0.955c0.349,0.507,1.121,0.591,1.252,1.307c0.138,0.793-0.022,1.512-0.742,2.036
		c-0.705-0.035-1.435,0.07-2.164-0.185c-0.24-0.084-0.517-0.147-0.76-0.253c-0.868-0.377-1.816-0.093-2.347,0.713
		C29.169,42.523,28.999,42.697,28.858,42.867z M30.695,50.027c0.363-0.246,0.597-0.404,0.813-0.55
		c-0.382-0.63-0.724-1.186-1.25-1.601c-0.306,0.117-0.513-0.129-0.831-0.243c-0.17,0.458-0.59,0.154-0.811,0.236
		c-0.255,0.226-0.441,0.39-0.603,0.532c-0.053,0.591,0.141,1.046,0.535,1.421C29.31,49.852,30.088,49.688,30.695,50.027z
		 M29.613,38.375c0.949-0.658,2.072-0.974,2.755-1.934c-0.248-0.244-0.462-0.456-0.756-0.745c-0.101,0.389-0.502,0.257-0.716,0.531
		c-0.302,0.384-0.754,0.507-1.215,0.676c-0.539,0.198-0.956,0.199-1.448-0.027c-0.17-0.078-0.406-0.013-0.634-0.013
		c0,0.23,0,0.398,0,0.449c0.385,0.387,0.708,0.713,1.057,1.063C28.926,38.375,29.247,38.375,29.613,38.375z"/>
	<path fill="currentColor" d="M44.869,64.725c-0.681-0.128-1.364,0.255-2.101,0.378
		c-0.259,0.113-0.369-0.253-0.646-0.189c-0.344-0.747-0.509-1.499-0.074-2.272c-0.16-0.477,0.289-0.848,0.225-1.316
		c-0.022-0.167,0.497-1.335,0.645-1.45c0.539-0.42,0.731-1.127,1.271-1.486c0.166-0.744-0.472-0.755-0.825-1.008
		c-0.804,0.2-0.127,1.083-0.746,1.359c-0.514,0.193-0.727,0.899-1.357,0.999c-0.261,0.094-0.365-0.297-0.642-0.221
		c-0.322-0.414-0.324-0.896-0.296-1.335c0.449-0.689,0.603-1.522,1.298-1.971c0-0.46,0-0.891,0-1.315
		c0.55-0.78,1.077-1.563,1.554-2.385c0.25-0.433,0.672-0.822,1.207-0.952c0.397-0.097,0.505-0.333,0.455-0.931
		c-0.024-0.015-0.244-0.094-0.382-0.247c-0.692-0.77-0.573-1.774,0.315-2.272c0.494-0.276,1.02-0.53,1.65-0.459
		c0.568,0.063,1.15,0.013,1.805,0.013c0.101-0.168,0.23-0.386,0.36-0.604c0.051,0.037,0.101,0.073,0.15,0.11
		c0-0.313,0-0.627,0-0.979c0.348,0,0.663,0,1.02,0c0.163,0.164,0.365,0.368,0.604,0.609c0.249,0,0.535,0.026,0.813-0.007
		c0.311-0.038,0.471,0.276,0.783,0.271c0,0.353,0,0.705,0,1.133c-0.17,0.262-0.431,0.524-0.817,0.633
		c-0.099,1.017-0.028,1.994,0.751,2.894c-0.596,0-1.053,0-1.499,0c-0.552,0.665-1.166,1.145-2.048,1.125
		c-0.252-0.005-0.34,0.21-0.5,0.421c0.184,0.34,0.584,0.566,0.686,0.981c0,0.287,0,0.575,0,0.861
		c0.068,0.101,0.169,0.128,0.278,0.109c0.271-0.047,0.55,0.086,0.82-0.11c0.303-0.221,0.761-0.008,1.053-0.32
		c0.639,0.12,1.207-0.384,1.812-0.202c0.279,0.261,0.541,0.505,0.783,0.73c0.008,0.175-0.041,0.357,0.029,0.451
		c0.318,0.426,0.217,0.799,0.031,1.261c-0.297,0.741-0.321,1.592-0.919,2.211c0.15,0.575-0.452,1.052-0.18,1.582
		c-0.575,0.914-1.468,1.376-2.276,1.872c-0.599,0.367-1.377,0.474-2.069,0.721C46.881,63.776,45.918,64.224,44.869,64.725z
		 M45.746,56.957c0.974,0.038,1.541-0.429,1.991-1.212c-0.738-0.284-1.314,0.362-1.991,0.087
		C45.746,56.239,45.746,56.553,45.746,56.957z M49.7,48.318c0.318-0.238,0.457-0.492,0.267-0.838
		c-0.346-0.108-0.604-0.012-0.712,0.207C49.419,47.922,49.562,48.123,49.7,48.318z"/>
	<path fill="currentColor" d="M24.108,30.986c0.29-0.311,0.532-0.571,0.757-0.813c0.317,0,0.602,0,0.74,0
		c0.526,0.186,0.857,0.427,1.105,0.766c0.081,0.702-0.272,1.189-0.759,1.592c-0.47,0.053-0.911,0.019-1.357-0.301
		C24.456,31.878,24.288,31.447,24.108,30.986z"/>
	
	
	
	
</g>
</svg>
