<?xml version="1.0" encoding="iso-8859-1"?>
<!-- Generator: Adobe Illustrator 16.0.0, SVG Export Plug-In . SVG Version: 6.00 Build 0)  -->
<!DOCTYPE svg PUBLIC "-//W3C//DTD SVG 1.1//EN" "http://www.w3.org/Graphics/SVG/1.1/DTD/svg11.dtd">
<svg version="1.1" id="Layer_1" xmlns="http://www.w3.org/2000/svg" xmlns:xlink="http://www.w3.org/1999/xlink" x="0px" y="0px"
	 width="72.36px" height="72.18px" viewBox="0 0 72.36 72.18" style="enable-background:new 0 0 72.36 72.18;" xml:space="preserve"
	>
<g>
	<path style="fill-rule:evenodd;clip-rule:evenodd;fill:none;" d="M-6.984,79.631c0-28.871,0-57.743,0-86.615
		c28.8,0,57.6,0,86.399,0c0,28.872,0,57.744,0,86.615C50.616,79.631,21.816,79.631-6.984,79.631z M42.606,41.848
		c-0.572-0.543-1.29-0.812-1.917-1.208c-0.603-0.383-1.205-0.857-1.966-0.972c-0.982-0.146-1.82-0.625-2.678-1.103
		c-0.569-0.315-0.89-1.016-1.612-1.046c-0.51-0.022-0.803-0.351-1.137-0.654c-0.614-0.557-1.073-1.302-1.952-1.548
		c-0.208-0.059-0.388-0.319-0.522-0.525c-0.424-0.653-0.899-1.245-1.523-1.732c-0.462-0.361-0.848-0.807-1.084-1.379
		c-0.353-0.855-0.842-1.633-1.507-2.291c0.138-0.317-0.199-0.511-0.205-0.776c-0.012-0.533-0.187-0.988-0.49-1.421
		c-0.287-0.41-0.312-0.939-0.665-1.355c-0.219-0.258-0.409-0.615-0.603-0.921c-0.595-0.936-0.715-2.02-1.025-3.033
		c-0.354-1.158-0.644-2.321-1.365-3.377c0.257-0.928-0.23-1.837-0.182-2.79c0.018-0.351,0.003-0.704,0.003-0.967
		c-0.375-0.384-0.675-0.693-0.967-0.993c-0.302,0-0.589,0-0.872,0c-0.521,0.44-0.797,1.021-0.967,1.656
		c-0.208,0.781-0.518,1.551-0.979,2.176c-0.48,0.651-0.599,1.36-0.733,2.078c-0.082,0.44-0.194,0.861-0.388,1.247
		c-0.556,1.102-0.392,2.341-0.706,3.487c-0.025,0.091-0.013,0.249,0.045,0.296c0.287,0.229,0.151,0.532,0.159,0.801
		c0.019,0.611,0.02,1.224,0.003,1.835c-0.035,1.321,0.44,2.41,1.339,3.202c1.098,0.262,1.883,0.743,2.335,1.75
		c0,0.581,0,1.229,0,1.795c0.591,0.944,0.461,1.979,0.71,2.91c0.717,1.332,1.636,2.517,2.539,3.72
		c0.324,0.432,0.708,0.729,1.105,1.008c0.284,0.198,0.583,0.377,0.805,0.639c0.688,0.811,1.562,1.392,2.43,1.97
		c0.467,0.311,0.998,0.653,1.528,0.709c0.717,0.075,1.456,0.557,2.199,0.047c0.098-0.067,0.333-0.07,0.417,0.001
		c0.443,0.376,0.961,0.209,1.43,0.185c0.508-0.026,0.91,0.414,1.397,0.218c0.912,0.904,1.853,1.349,3.051,1.294
		c0.481-0.022,0.852,0.279,1.316,0.245c0.501-0.036,1.008-0.008,1.512-0.008c0.105,0,0.19,0.049,0.287,0.087
		c1.299,0.509,2.605,0.999,3.97,1.518c-0.438,0.223-0.491,0.643-0.728,0.948c0.053,0.671-0.024,1.286-0.551,1.823
		c-0.197,0.202-0.433,0.55-0.284,0.938c0.301,0.301,0.606,0.606,0.894,0.894c0.673,0.178,1.324,0.35,2.148,0.567
		c0.092,0.114,0.292,0.364,0.445,0.555c0.706,0.086,1.216-0.161,1.544-0.634c0.437-0.629,1.012-1.211,1.005-2.063
		c0.34-0.269,0.165-0.799,0.59-1.076c0.157-0.103,0.401-0.487,0.295-0.752c0.196-0.253,0.367-0.476,0.484-0.627
		c0.641-0.106,0.778,0.435,1.114,0.619c0.62,0.063,1.157-0.112,1.692-0.383c0.773-0.393,1.63-0.593,2.447-0.862
		c0.631-0.208,1.386,0.017,2.06-0.249c0.12-0.047,0.253,0.032,0.388,0.094c0.569,0.257,1.169,0.397,1.807,0.337
		c0.321-0.031,0.648-0.017,0.972-0.003c0.689,0.027,1.188-0.268,1.535-0.855c0.188-0.319,0.351-0.678,0.611-0.929
		c0.583-0.56,0.702-1.243,0.682-2.004c0.47-0.33,0.548-0.919,0.841-1.316c0-0.396,0-0.749,0-1.052
		c-0.311-0.417-0.692-0.634-1.042-0.732c-1.111,0.335-2.053,0.841-2.848,1.422c-0.434,0.171-0.847-0.101-1.189,0.264
		c-0.101,0.105-0.508,0.102-0.609-0.007c-0.281-0.301-0.603-0.172-0.904-0.187c-0.5-0.023-1.002-0.006-1.474-0.006
		c-0.254,0.172-0.459,0.384-0.708,0.465c-0.543,0.179-1.065,0.723-1.69,0.183c-0.557,0.113-0.887-0.488-1.441-0.441
		c-0.536,0.045-1.079,0.011-1.619,0.008c-0.067,0-0.134-0.021-0.159-0.025c-0.555-0.36-0.655-0.979-0.979-1.434
		c0-0.345-0.032-0.673,0.008-0.992c0.052-0.421-0.134-0.785-0.384-1.024c-0.615-0.589-0.952-1.414-1.72-1.917
		c-0.304,0-0.662,0-1.023,0c-1.05,0.883-1.564,2.038-1.796,3.277c-0.213,0.285-0.425,0.571-0.637,0.855
		C44.118,42.116,43.412,41.65,42.606,41.848z M48.821,19.827c-0.273,0.63-0.28,1.216-0.313,1.808
		c-0.019,0.349-0.177,0.727-0.378,1.02c-0.216,0.315-0.409,0.61-0.477,0.997c-0.038,0.223-0.152,0.443-0.274,0.639
		c-0.628,1.001-1.21,2.039-1.927,2.973c-0.402,0.524-0.599,1.134-0.968,1.659c-0.684,0.972-1.163,2.075-1.987,2.964
		c-0.257,0.277-0.455,0.549-0.819,0.723c-0.935,0.444-1.825,0.979-2.761,1.419c-0.232,0.109-0.477,0.183-0.531,0.421
		c-0.154,0.662-0.724,1-1.072,1.44c0,0.625,0,1.195,0,1.745c0.36,0.37,0.682,0.883,1.151,0.901c0.619,0.023,1.1,0.347,1.639,0.516
		c0.69,0.216,1.47,0.268,2.023,0.807c0.396,0,0.782,0,1.091,0c0.593-0.421,1.156-0.758,1.645-1.182
		c1.001-0.869,1.791-1.922,2.284-3.151c0.473-1.176,1.346-1.732,2.533-1.897c0.357-0.05,0.755-0.139,0.879-0.446
		c0.268-0.659,0.771-1.168,1.019-1.847c0.24-0.657,0.128-1.31,0.198-1.857c0.322-0.512,0.463-1.018,0.836-1.395
		c0.077-0.078,0.239-0.298,0.222-0.428c-0.083-0.61,0.186-1.163,0.227-1.748c0.03-0.426-0.14-0.986,0.073-1.253
		c0.415-0.523-0.227-0.845-0.076-1.269c0.045-0.128-0.055-0.348,0.018-0.418c0.336-0.333,0.166-0.737,0.204-1.109
		c0.096-0.954-0.096-1.885-0.287-2.878c-0.473-0.713-0.696-1.587-0.832-2.568c-0.149-0.149-0.455-0.317-0.535-0.56
		c-0.27-0.814-0.923-1.297-1.473-1.88c-0.14,0-0.282,0-0.429,0c-0.109,0.199-0.328,0.411-0.313,0.605
		c0.067,0.87-0.232,1.759,0.187,2.616c0.245,0.502,0.28,1.07,0.215,1.643C49.467,19.181,49.111,19.537,48.821,19.827z
		 M18.723,57.058c1.363-1.378,1.815-1.799,3.878-2.901c0.126-0.068,0.219-0.161,0.335-0.229c0.375-0.22,0.735-0.483,1.136-0.639
		c2.38-0.919,2.136-1.088,3.331-2.959c0.886-0.685,1.524,0.017,2.325,0.357c0.402,0,0.905,0,1.385,0
		c0.375-0.248,0.573-0.616,0.784-1.046c0-0.288,0-0.647,0-1.006c-0.331-0.331-0.661-0.661-0.991-0.991
		c-0.203-0.203-0.4-0.572-0.611-0.581c-0.787-0.029-1.209-0.725-1.892-0.929c-0.271-0.081-0.565-0.22-0.777-0.468
		c-0.443-0.517-1.019-0.688-1.662-0.559c-1.05,0.347-1.239,1.384-1.797,2.204c-0.283,0.139-0.57,0.406-1.001,0.35
		c-1.259,1.152-2.615,2.192-4.217,3.026c-0.191,0-0.494-0.058-0.763,0.013c-0.521,0.136-1.171,0.196-1.382,0.761
		c-0.195,0.522-0.581,0.902-0.799,1.395c-0.291,0.657-0.595,1.298-0.528,2.049c0.032,0.356,0,0.719,0.007,1.077
		c0.018,0.893,0.299,1.672,0.985,2.273c0.698-0.049,1.421,0.149,2.03-0.336C18.474,57.606,18.872,57.397,18.723,57.058z
		 M61.818,31.47c-0.187,0.228-0.517,0.36-0.564,0.72c0.107,0.113,0.205,0.215,0.356,0.375c0.355-0.102,0.778,0.085,1.175-0.093
		c-0.009-0.393,0.088-0.775-0.36-1.001C62.258,31.47,62.044,31.47,61.818,31.47z"/>
	<path fill="currentColor" d="M42.606,41.848c0.806-0.197,1.512,0.269,2.314,0.45
		c0.212-0.284,0.424-0.57,0.637-0.855c0.231-1.239,0.746-2.395,1.796-3.277c0.361,0,0.72,0,1.023,0
		c0.768,0.503,1.104,1.328,1.72,1.917c0.25,0.239,0.436,0.604,0.384,1.024c-0.04,0.319-0.008,0.647-0.008,0.992
		c0.324,0.454,0.425,1.073,0.979,1.434c0.025,0.005,0.092,0.025,0.159,0.025c0.54,0.003,1.083,0.037,1.619-0.008
		c0.555-0.047,0.885,0.555,1.441,0.441c0.625,0.54,1.147-0.004,1.69-0.183c0.249-0.081,0.454-0.293,0.708-0.465
		c0.472,0,0.974-0.018,1.474,0.006c0.302,0.015,0.623-0.114,0.904,0.187c0.102,0.108,0.509,0.112,0.609,0.007
		c0.343-0.364,0.756-0.093,1.189-0.264c0.795-0.581,1.736-1.087,2.848-1.422c0.35,0.099,0.731,0.315,1.042,0.732
		c0,0.303,0,0.656,0,1.052c-0.293,0.397-0.371,0.986-0.841,1.316c0.021,0.761-0.099,1.444-0.682,2.004
		c-0.261,0.251-0.423,0.609-0.611,0.929c-0.348,0.588-0.846,0.883-1.535,0.855c-0.323-0.014-0.65-0.028-0.972,0.003
		c-0.638,0.061-1.237-0.08-1.807-0.337c-0.135-0.062-0.268-0.141-0.388-0.094c-0.674,0.266-1.429,0.041-2.06,0.249
		c-0.817,0.27-1.674,0.47-2.447,0.862c-0.535,0.271-1.072,0.445-1.692,0.383c-0.336-0.185-0.474-0.726-1.114-0.619
		c-0.117,0.151-0.288,0.374-0.484,0.627c0.106,0.265-0.138,0.649-0.295,0.752c-0.425,0.277-0.25,0.808-0.59,1.076
		c0.007,0.853-0.568,1.435-1.005,2.063c-0.328,0.473-0.838,0.72-1.544,0.634c-0.153-0.19-0.354-0.44-0.445-0.555
		c-0.824-0.218-1.476-0.39-2.148-0.567c-0.287-0.287-0.593-0.593-0.894-0.894c-0.148-0.389,0.087-0.736,0.284-0.938
		c0.526-0.537,0.604-1.152,0.551-1.823c0.236-0.306,0.29-0.726,0.728-0.948c-1.364-0.519-2.671-1.009-3.97-1.518
		c-0.097-0.038-0.182-0.087-0.287-0.087c-0.504,0-1.011-0.028-1.512,0.008c-0.465,0.034-0.835-0.268-1.316-0.245
		c-1.198,0.055-2.139-0.39-3.051-1.294c-0.488,0.196-0.89-0.244-1.397-0.218c-0.469,0.024-0.987,0.191-1.43-0.185
		c-0.083-0.071-0.319-0.068-0.417-0.001c-0.744,0.51-1.482,0.028-2.199-0.047c-0.53-0.056-1.061-0.398-1.528-0.709
		c-0.868-0.578-1.742-1.159-2.43-1.97c-0.222-0.262-0.521-0.44-0.805-0.639c-0.397-0.278-0.782-0.576-1.105-1.008
		c-0.903-1.203-1.822-2.388-2.539-3.72c-0.249-0.931-0.12-1.966-0.71-2.91c0-0.566,0-1.214,0-1.795
		c-0.452-1.007-1.237-1.488-2.335-1.75c-0.899-0.792-1.374-1.88-1.339-3.202c0.016-0.611,0.015-1.224-0.003-1.835
		c-0.008-0.269,0.127-0.572-0.159-0.801c-0.059-0.047-0.07-0.206-0.045-0.296c0.314-1.146,0.149-2.385,0.706-3.487
		c0.194-0.386,0.306-0.807,0.388-1.247c0.134-0.718,0.253-1.427,0.733-2.078c0.461-0.625,0.771-1.396,0.979-2.176
		c0.17-0.635,0.446-1.216,0.967-1.656c0.283,0,0.57,0,0.872,0c0.292,0.3,0.593,0.608,0.967,0.993c0,0.263,0.015,0.616-0.003,0.967
		c-0.048,0.953,0.438,1.862,0.182,2.79c0.721,1.056,1.011,2.219,1.365,3.377c0.31,1.013,0.431,2.097,1.025,3.033
		c0.194,0.306,0.383,0.663,0.603,0.921c0.354,0.416,0.378,0.945,0.665,1.355c0.303,0.433,0.478,0.889,0.49,1.421
		c0.006,0.266,0.343,0.459,0.205,0.776c0.665,0.658,1.155,1.436,1.507,2.291c0.236,0.572,0.622,1.019,1.084,1.379
		c0.624,0.487,1.099,1.08,1.523,1.732c0.134,0.206,0.313,0.467,0.522,0.525c0.879,0.247,1.337,0.991,1.952,1.548
		c0.334,0.304,0.627,0.632,1.137,0.654c0.722,0.03,1.043,0.73,1.612,1.046c0.858,0.478,1.696,0.956,2.678,1.103
		c0.761,0.114,1.363,0.589,1.966,0.972C41.316,41.036,42.034,41.305,42.606,41.848z M45.703,48.653
		c0.271,0.125,0.464,0.128,0.652,0.003c-0.128-0.147-0.216-0.249-0.305-0.352C45.94,48.415,45.842,48.513,45.703,48.653z"/>
	<path fill="currentColor" d="M48.821,19.827c0.29-0.29,0.646-0.646,0.991-0.992
		c0.065-0.572,0.03-1.14-0.215-1.643c-0.419-0.857-0.119-1.746-0.187-2.616c-0.016-0.194,0.203-0.406,0.313-0.605
		c0.146,0,0.289,0,0.429,0c0.55,0.583,1.203,1.066,1.473,1.88c0.08,0.242,0.386,0.41,0.535,0.56
		c0.136,0.981,0.359,1.855,0.832,2.568c0.191,0.993,0.383,1.924,0.287,2.878c-0.038,0.372,0.132,0.775-0.204,1.109
		c-0.072,0.071,0.027,0.291-0.018,0.418c-0.15,0.424,0.491,0.746,0.076,1.269c-0.213,0.268-0.043,0.827-0.073,1.253
		c-0.041,0.585-0.31,1.138-0.227,1.748c0.018,0.13-0.145,0.351-0.222,0.428c-0.373,0.377-0.514,0.883-0.836,1.395
		c-0.07,0.548,0.042,1.2-0.198,1.857c-0.248,0.679-0.751,1.188-1.019,1.847c-0.124,0.307-0.521,0.396-0.879,0.446
		c-1.188,0.165-2.061,0.721-2.533,1.897c-0.493,1.229-1.283,2.282-2.284,3.151c-0.488,0.424-1.052,0.761-1.645,1.182
		c-0.309,0-0.694,0-1.091,0c-0.554-0.539-1.333-0.591-2.023-0.807c-0.539-0.169-1.02-0.492-1.639-0.516
		c-0.47-0.019-0.791-0.531-1.151-0.901c0-0.55,0-1.12,0-1.745c0.349-0.44,0.918-0.778,1.072-1.44
		c0.055-0.239,0.299-0.313,0.531-0.421c0.936-0.44,1.826-0.975,2.761-1.419c0.364-0.173,0.563-0.446,0.819-0.723
		c0.824-0.889,1.304-1.992,1.987-2.964c0.369-0.525,0.565-1.135,0.968-1.659c0.717-0.934,1.299-1.972,1.927-2.973
		c0.122-0.195,0.236-0.416,0.274-0.639c0.067-0.387,0.261-0.681,0.477-0.997c0.201-0.293,0.359-0.671,0.378-1.02
		C48.541,21.043,48.547,20.458,48.821,19.827z"/>
	<path fill="currentColor" d="M18.723,57.058c0.149,0.34-0.249,0.549-0.226,0.861
		c-0.609,0.485-1.333,0.287-2.03,0.336c-0.686-0.602-0.967-1.381-0.985-2.273c-0.007-0.358,0.025-0.721-0.007-1.077
		c-0.067-0.751,0.237-1.392,0.528-2.049c0.218-0.492,0.604-0.872,0.799-1.395c0.21-0.564,0.861-0.625,1.382-0.761
		c0.269-0.07,0.572-0.013,0.763-0.013c1.603-0.834,2.958-1.874,4.217-3.026c0.431,0.057,0.718-0.211,1.001-0.35
		c0.558-0.82,0.748-1.857,1.797-2.204c0.643-0.129,1.219,0.042,1.662,0.559c0.212,0.248,0.506,0.387,0.777,0.468
		c0.683,0.204,1.105,0.899,1.892,0.929c0.21,0.009,0.408,0.378,0.611,0.581c0.331,0.33,0.661,0.66,0.992,0.991
		c0,0.358,0,0.718,0,1.006c-0.211,0.43-0.409,0.798-0.784,1.046c-0.48,0-0.983,0-1.385,0c-0.801-0.341-1.438-1.042-2.325-0.357
		c-1.195,1.871-0.951,2.04-3.331,2.959c-0.401,0.155-0.761,0.419-1.136,0.639c-0.116,0.068-0.208,0.161-0.335,0.229
		C20.538,55.259,20.085,55.68,18.723,57.058z"/>
	<path style="fill-rule:evenodd;clip-rule:evenodd;fill:none;" d="M45.703,48.653c0.14-0.141,0.237-0.238,0.348-0.349
		c0.089,0.103,0.177,0.204,0.305,0.352C46.167,48.781,45.974,48.778,45.703,48.653z"/>
</g>
</svg>
