<svg xmlns="http://www.w3.org/2000/svg" xml:space="preserve" width="72px" height="72px" viewBox="0 0 72 72">
    <g fill="currentColor">
        <path d="M42.606 41.848c.806-.197 1.512.269 2.314.45l.637-.855c.231-1.239.746-2.395 1.796-3.277h1.023c.768.503 1.104 1.328 1.72 1.917.25.239.436.604.384 1.024-.04.319-.008.647-.008.992.324.454.425 1.073.979 1.434.025.005.092.025.159.025.54.003 1.083.037 1.619-.008.555-.047.885.555 1.441.441.625.54 1.147-.004 1.69-.183.249-.081.454-.293.708-.465.472 0 .974-.018 1.474.006.302.015.623-.114.904.187.102.108.509.112.609.007.343-.364.756-.093 1.189-.264a9.4 9.4 0 0 1 2.848-1.422c.35.099.731.315 1.042.732v1.052c-.293.397-.371.986-.841 1.316.021.761-.099 1.444-.682 2.004-.261.251-.423.609-.611.929-.348.588-.846.883-1.535.855a7 7 0 0 0-.972.003c-.638.061-1.237-.08-1.807-.337-.135-.062-.268-.141-.388-.094-.674.266-1.429.041-2.06.249-.817.27-1.674.47-2.447.862-.535.271-1.072.445-1.692.383-.336-.185-.474-.726-1.114-.619l-.484.627c.106.265-.138.649-.295.752-.425.277-.25.808-.59 1.076.007.853-.568 1.435-1.005 2.063-.328.473-.838.72-1.544.634l-.445-.555-2.148-.567-.894-.894c-.148-.389.087-.736.284-.938.526-.537.604-1.152.551-1.823.236-.306.29-.726.728-.948-1.364-.519-2.671-1.009-3.97-1.518-.097-.038-.182-.087-.287-.087-.504 0-1.011-.028-1.512.008-.465.034-.835-.268-1.316-.245-1.198.055-2.139-.39-3.051-1.294-.488.196-.89-.244-1.397-.218-.469.024-.987.191-1.43-.185-.083-.071-.319-.068-.417-.001-.744.51-1.482.028-2.199-.047-.53-.056-1.061-.398-1.528-.709-.868-.578-1.742-1.159-2.43-1.97-.222-.262-.521-.44-.805-.639-.397-.278-.782-.576-1.105-1.008-.903-1.203-1.822-2.388-2.539-3.72-.249-.931-.12-1.966-.71-2.91v-1.795c-.452-1.007-1.237-1.488-2.335-1.75-.899-.792-1.374-1.88-1.339-3.202q.024-.917-.003-1.835c-.008-.269.127-.572-.159-.801-.059-.047-.07-.206-.045-.296.314-1.146.149-2.385.706-3.487.194-.386.306-.807.388-1.247.134-.718.253-1.427.733-2.078.461-.625.771-1.396.979-2.176.17-.635.446-1.216.967-1.656h.872l.967.993c0 .263.015.616-.003.967-.048.953.438 1.862.182 2.79.721 1.056 1.011 2.219 1.365 3.377.31 1.013.431 2.097 1.025 3.033.194.306.383.663.603.921.354.416.378.945.665 1.355.303.433.478.889.49 1.421.006.266.343.459.205.776.665.658 1.155 1.436 1.507 2.291.236.572.622 1.019 1.084 1.379.624.487 1.099 1.08 1.523 1.732.134.206.313.467.522.525.879.247 1.337.991 1.952 1.548.334.304.627.632 1.137.654.722.03 1.043.73 1.612 1.046.858.478 1.696.956 2.678 1.103.761.114 1.363.589 1.966.972.625.4 1.343.669 1.915 1.212m3.097 6.805c.271.125.464.128.652.003l-.305-.352z"/>
        <path d="m48.821 19.827.991-.992c.065-.572.03-1.14-.215-1.643-.419-.857-.119-1.746-.187-2.616-.016-.194.203-.406.313-.605h.429c.55.583 1.203 1.066 1.473 1.88.08.242.386.41.535.56.136.981.359 1.855.832 2.568.191.993.383 1.924.287 2.878-.038.372.132.775-.204 1.109-.072.071.027.291-.018.418-.15.424.491.746.076 1.269-.213.268-.043.827-.073 1.253-.041.585-.31 1.138-.227 1.748.018.13-.145.351-.222.428-.373.377-.514.883-.836 1.395-.07.548.042 1.2-.198 1.857-.248.679-.751 1.188-1.019 1.847-.124.307-.521.396-.879.446-1.188.165-2.061.721-2.533 1.897-.493 1.229-1.283 2.282-2.284 3.151-.488.424-1.052.761-1.645 1.182h-1.091c-.554-.539-1.333-.591-2.023-.807-.539-.169-1.02-.492-1.639-.516-.47-.019-.791-.531-1.151-.901v-1.745c.349-.44.918-.778 1.072-1.44.055-.239.299-.313.531-.421.936-.44 1.826-.975 2.761-1.419.364-.173.563-.446.819-.723.824-.889 1.304-1.992 1.987-2.964.369-.525.565-1.135.968-1.659.717-.934 1.299-1.972 1.927-2.973.122-.195.236-.416.274-.639.067-.387.261-.681.477-.997.201-.293.359-.671.378-1.02.034-.59.04-1.175.314-1.806M18.723 57.058c.149.34-.249.549-.226.861-.609.485-1.333.287-2.03.336-.686-.602-.967-1.381-.985-2.273-.007-.358.025-.721-.007-1.077-.067-.751.237-1.392.528-2.049.218-.492.604-.872.799-1.395.21-.564.861-.625 1.382-.761.269-.07.572-.013.763-.013 1.603-.834 2.958-1.874 4.217-3.026.431.057.718-.211 1.001-.35.558-.82.748-1.857 1.797-2.204.643-.129 1.219.042 1.662.559.212.248.506.387.777.468.683.204 1.105.899 1.892.929.21.009.408.378.611.581l.992.991v1.006c-.211.43-.409.798-.784 1.046h-1.385c-.801-.341-1.438-1.042-2.325-.357-1.195 1.871-.951 2.04-3.331 2.959-.401.155-.761.419-1.136.639-.116.068-.208.161-.335.229-2.062 1.102-2.515 1.523-3.877 2.901"/>
    </g>
</svg>
