<?xml version="1.0" encoding="iso-8859-1"?>
<!-- Generator: Adobe Illustrator 16.0.0, SVG Export Plug-In . SVG Version: 6.00 Build 0)  -->
<!DOCTYPE svg PUBLIC "-//W3C//DTD SVG 1.1//EN" "http://www.w3.org/Graphics/SVG/1.1/DTD/svg11.dtd">
<svg version="1.1" id="Layer_1" xmlns="http://www.w3.org/2000/svg" xmlns:xlink="http://www.w3.org/1999/xlink" x="0px" y="0px"
	 width="72.36px" height="72.18px" viewBox="0 0 72.36 72.18" style="enable-background:new 0 0 72.36 72.18;" xml:space="preserve"
	>
<g>
	<path style="fill-rule:evenodd;clip-rule:evenodd;fill:none;" d="M79.416,79.631c-28.8,0-57.6,0-86.399,0
		c0-28.871,0-57.743,0-86.615c28.8,0,57.6,0,86.399,0C79.416,21.888,79.416,50.76,79.416,79.631z M6.842,43.89
		c0.51,0.432,0.737,0.989,0.645,1.663c-0.074,0.539,0.092,1.054,0.36,1.467c0.518,0.8,0.772,1.7,1.157,2.549
		c0.302,0.667,0.359,1.442,0.863,2.018c0.375,0.427,0.825,0.796,1.159,1.252c0.867,1.18,1.637,2.435,2.553,3.573
		c0.413,0.515,0.755,1.126,1.285,1.519c0.798,0.592,1.687,1.058,2.188,1.981c0.111,0.203,0.342,0.356,0.545,0.492
		c1.103,0.737,2.27,1.371,3.291,2.242c0.439,0.376,1.046,0.648,1.616,0.75c0.488,0.088,0.903,0.235,1.337,0.446
		c0.223,0.108,0.444,0.384,0.765,0.238c0.286-0.131,0.52,0.134,0.646,0.239c0.664,0.555,1.415,0.675,2.208,0.619
		c0.769,0.621,1.597,0.96,2.585,0.88c0.346-0.028,0.607,0.26,0.904,0.417c0.512,0.272,1.037,0.71,1.688,0.253
		c0.125-0.088,0.376-0.112,0.493,0.027c0.176,0.212,0.387,0.162,0.589,0.151c1.913-0.101,3.834,0.197,5.747-0.19
		c0.677-0.137,1.297-0.334,1.896-0.667c0.579-0.019,1.156-0.076,1.744-0.178c0.61-0.105,1.175-0.298,1.76-0.463
		c0.934-0.264,1.871-0.497,2.778-0.855c0.529-0.21,0.852-0.688,1.365-0.877c0.664-0.245,1.215-0.71,1.875-0.948
		c0.812-0.292,1.34-1.025,2.156-1.313c0.626-0.221,1.129-0.639,1.588-1.129c0.651-0.694,1.303-1.397,2.117-1.917
		c0.34-0.217,0.813-0.247,1.035-0.615c0.392-0.644,0.94-1.137,1.461-1.659c0.156-0.156,0.05-0.339,0.097-0.524
		c0.508-0.554,1.073-1.073,1.529-1.712c0.276-0.389,0.475-0.856,0.89-1.152c0.896-0.638,1.175-1.597,1.219-2.616
		c0.013-0.313,0.144-0.594,0.265-0.755c0.883-1.175,1.312-2.565,1.844-3.888c0.384-0.954,1.021-1.909,0.687-2.999
		c0.483-0.543,1.057-0.927,1.334-1.68c0-0.389,0.013-0.893-0.004-1.396c-0.016-0.49,0.288-0.905,0.24-1.424
		c-0.076-0.821-0.05-1.656-0.013-2.482c0.037-0.812-0.423-1.564-0.229-2.274c-0.645-1.269-1.354-2.399-1.291-3.795
		c-0.342-0.382-0.055-0.926-0.277-1.285c-0.363-0.585-0.517-1.23-0.738-1.857c-0.057-0.159,0.004-0.391-0.092-0.497
		c-0.331-0.367-0.529-0.754-0.653-1.252c-0.12-0.48-0.332-0.937-0.429-1.443c-0.061-0.313-0.173-0.731-0.616-0.869
		c-0.548-0.168-0.952-0.55-1.299-0.995c0.096-0.603-0.415-1.119-0.241-1.587c-0.211-0.28-0.356-0.472-0.448-0.595
		c-0.741,0.19-1.288,1.031-2.073,0.344c-0.157-0.447,0.055-0.783,0.204-1.123c-0.43-0.243-0.131-0.682-0.382-0.915
		c-0.364-0.394-0.729-0.787-1.025-1.107c-0.536-0.215-0.853,0.114-1.218,0.279c-0.265,0.746-0.243,1.547-0.442,2.302
		c-0.188,0.711-0.458,1.399-0.72,2.179c-0.609-0.782-0.747-1.72-1.59-2.232c-0.04,0-0.146,0.004-0.252,0
		c-0.493-0.024-1.017-0.043-1.347,0.378c-0.268,0.341-0.446,0.794-0.382,1.229c0.055,0.365-0.14,0.635-0.268,0.869
		c-0.295,0.538-0.429,1.076-0.401,1.674c0.008,0.175,0.001,0.351,0.001,0.509c-0.26,0.174-0.365,0.488-0.82,0.555
		c-0.947-0.442-1.705-1.222-2.302-2.183c-0.052-0.083-0.112-0.183-0.112-0.275c0.001-0.494-0.263-0.9-0.399-1.346
		c-0.27-0.879-0.637-1.76-0.473-2.724c0.091-0.532-0.121-1.018-0.331-1.48c-0.08-0.177-0.077-0.332-0.108-0.564
		c0.18-0.042,0.198-0.332,0.592-0.306c0.768,0.332,1.712,0.488,2.638,0.61c1.026,0.135,2.084,0.031,2.864,0.031
		c0.408-0.25,0.652-0.399,0.802-0.491c0-0.478,0-0.831,0-1.158c-0.721-0.667-1.74-0.947-2.142-1.919
		c-0.025-0.062-0.09-0.12-0.15-0.152c-0.892-0.462-1.671-1.219-2.745-1.028c-1.596-1.36-1.596-1.36-1.639-2.229
		c-0.576-0.819-1.334-1.163-2.231-1.011c-1.603-0.907-2.685-1.187-3.601-0.621c-0.772,0.478-1.77,0.903-1.744,2.107
		c-0.212,0-0.382,0-0.556,0c-0.157-0.602-0.714-0.854-1.022-1.264c-0.336,0-0.621,0-0.885,0C36.418,8.05,35.898,8.04,35.563,8.48
		c0.363,0.255-0.427,0.494-0.015,0.823C35.531,10.102,35.696,10.865,36,11.6c-0.164,1.133,0.378,2.225,0.198,3.313
		c-0.334,0.51-0.454,1.129-1.016,1.435c-0.225-0.058-0.493,0.111-0.69-0.11c0-0.372,0-0.73,0-1.055
		c0.443-0.59,0.496-1.277,0.637-1.931c0.035-0.163,0.028-0.374-0.048-0.514c-0.407-0.742-0.813-1.479-0.832-2.356
		c-0.563-0.79-0.705-1.689-0.619-2.538c-0.261-0.357-0.588-0.405-0.842-0.571c-0.432,0.303-1.007,0.143-1.437,0.44
		c-0.474,0.327-0.597,0.952-1.079,1.276c-0.702-0.661-1.58-0.344-2.347-0.426c-0.593,0.482-0.829,1.045-0.794,1.775
		c0.049,1.038,0.012,2.08,0.012,3.043c-0.14,0.167-0.231,0.277-0.383,0.458c-0.45-0.246-0.946-0.391-1.31-0.314
		c-0.85,0.58-1.668,0.924-2.335,1.521c-0.438-0.458-0.586-1.036-0.703-1.578c-0.181-0.839-0.64-1.423-1.323-1.873
		c-0.541-0.356-1.129-0.271-1.706-0.121c-0.419,0.11-0.826,0.268-1.292,0.421c-0.866,0.826-1.66,1.828-2.824,2.411
		c-0.245,0.123-0.474,0.363-0.606,0.605c-0.477,0.871-1.126,1.594-1.849,2.253c-0.446,0.407-0.783,0.895-1.132,1.373
		c-0.195,0.266-0.27,0.622-0.474,0.878c-0.596,0.745-1.014,1.6-1.503,2.407c-0.48,0.794-0.868,1.653-1.225,2.514
		c-0.241,0.583-0.498,1.175-0.559,1.683c0.229,0.301,0.4,0.524,0.577,0.756c0.271-0.147,0.5-0.031,0.757-0.178
		c0.532-0.304,0.905-0.721,1.269-1.194c0.375-0.489,0.575-1.074,0.987-1.544c0.67-0.767,1.526-1.461,1.392-2.662
		c-0.005-0.044,0.137-0.1,0.139-0.152c0.017-0.495,0.428-0.852,0.48-1.312c0.067-0.585,0.453-0.897,0.809-1.204
		c0.366-0.191,0.494,0.096,0.697,0.277c0,0.655,0,1.329,0,1.998c-0.264,0.092-0.144,0.383-0.316,0.531
		c-0.353,0.306-0.578,0.696-0.521,1.181c0.032,0.277-0.172,0.469-0.274,0.641c-0.28,0.473-0.457,0.976-0.582,1.489
		c-0.113,0.467-0.311,0.91-0.701,1.097c-0.549,0.264-0.816,0.687-1.091,1.268c0.494,0.119,0.101,0.664,0.497,0.936
		c0.336,0.231,0.766,0.343,0.944,0.712c1.473-0.002,2.322-0.921,2.882-1.575c0.563-1.124,0.79-2.004,1.381-2.645
		c0.663-0.718,1.209-1.491,1.67-2.44c0.018-0.217-0.062-0.597,0.087-0.833c0.527-0.835,0.352-1.799,0.538-2.688
		c0.188-0.896,0.117-1.872,0.012-2.795c-0.061-0.542-0.243-1.072-0.162-1.631c0.145-0.091,0.2-0.308,0.502-0.296
		c0.033,0.283,0.373,0.125,0.45,0.209c0.311,0.941,0.555,1.777,0.867,2.586c0.137,0.355,0.143,0.692,0.05,1.019
		c-0.197,0.692-0.374,1.381-0.391,2.108c-0.006,0.267-0.01,0.528-0.101,0.815c-0.19,0.604-0.445,1.213-0.514,1.835
		c-0.083,0.754-0.319,1.457-0.524,2.167c-0.273,0.951-0.51,1.687-0.336,2.324c0.121,0.441,0.187,0.869,0.188,1.163
		c0.397,0.972,1.129,1.706,0.648,2.736c0.185,0.949-0.528,1.666-0.667,2.536c-0.04,0.248-0.327,0.553-0.579,0.561
		c-0.395,0.011-0.683,0.328-1.1,0.253c-0.529-0.096-1.037,0.015-1.438,0.42c-0.267-0.136-0.322,0.275-0.559,0.216
		c-0.208-0.107-0.415-0.214-0.564-0.292c-0.357-0.877-0.767-1.679-1.066-2.529c-0.142-0.404-0.401-0.788-0.683-1.115
		c-0.375-0.437-0.925-0.41-1.452-0.377c-1.019,0.927-1.022,2.136-0.945,3.382c0.339,0.169,0.367,0.575,0.596,0.8
		c0,0.401,0,0.787,0,1.296c-0.307-0.304-0.34,0.116-0.555,0.085c-0.079-0.215-0.312-0.126-0.427-0.216
		c-0.478-0.717-0.186-1.52-0.312-2.261c-1.208-0.392-1.654-0.795-2.991,0.963c-0.019,0.592,0.085,1.202-0.223,1.748
		c-0.235,0.417-0.266,0.839-0.167,1.262c0.178,0.178,0.331,0.33,0.495,0.494c0.167,0,0.349,0.021,0.524-0.004
		c0.751-0.103,1.45,0.094,2.07,0.472c0.24,0.146,0.445,0.175,0.686,0.179c0.356,0.006,0.712,0.002,1.152,0.002
		c0.944-1.123,2.293-0.825,3.437-0.864c1.151-0.653,2.23-0.477,3.379-0.264c0.611-0.319,1.289-0.682,1.973-1.03
		c0.512-0.261,0.876-0.644,1.149-1.152c0.412-0.768,0.772-1.566,1.176-2.087c0.217-1.191,0.422-2.186,0.319-3.222
		c0.318,0,0.56,0,0.893,0c0.391,0.392,0.82,0.821,1.248,1.249c0.647,0.223,1.376,0.256,1.97,0.679
		c0.276,0.196,0.579,0.173,0.884,0.224c0.512,0.086,0.928-0.265,1.425-0.236c0.538,0.032,1.079,0.011,1.619,0.005
		c0.178-0.002,0.235-0.278,0.464-0.206c0.101,0.063,0.206,0.163,0.331,0.203c1.048,0.343,2.214,0.396,3.04,1.287
		c0.065,0.071,0.214,0.164,0.333,0.216c0.526,0.229,1.022,0.487,1.505,0.817c0.421,0.287,0.981,0.734,1.496,0.456
		c0.399-0.215,0.755-0.091,1.096-0.21c0.602-0.2,1.078-0.629,1.166-1.2c0.089-0.575,0.44-1.113,0.246-1.666
		c0.423-0.438,0.697-0.849,0.663-1.427c-0.021-0.353,0.267-1.132,0.456-1.2c0.563-0.201,0.694-0.757,0.792-1.169
		c0.15-0.637,0.517-1.053,0.953-1.443c0.441-0.395,0.747-0.934,1.347-1.173c0.188-0.075,0.346-0.214,0.662-0.184
		c0.38,0.503,1.133,0.591,1.61,1.078c0.537,0.547,1.396,0.316,1.824,0.804c1.479,0.293,2.757-0.453,4.119-0.385
		c0.69-0.683,1.825-0.652,2.374-1.531c0.436,0.134,0.713-0.314,1.099-0.208c0.5-0.499,0.975-0.992,1.47-1.463
		c0.263-0.25,0.571-0.435,0.975-0.472c0,0.974,0,1.863,0,2.73c-0.098,0.098-0.202,0.161-0.246,0.253
		c-0.214,0.451-0.696,0.832-0.577,1.368c0.136,0.613,0.163,1.282,0.629,1.836c0,0.748,0,1.537,0,2.327
		c-0.361,0.374-0.265,0.898-0.4,1.343c-0.141,0.459-0.031,0.996-0.031,1.488c-0.488,0.702-1.001,1.358-1.181,2.231
		c-0.082,0.398-0.282,0.847-0.662,1.121c-0.157,0.113-0.021,0.363-0.306,0.45c-0.674,0.178-1.348,0.552-1.92,0.833
		c-0.229-0.137-0.381-0.228-0.566-0.338c0.787-1.803,0.597-3.593,0.255-5.419c-0.402-0.552-0.492-1.38-1.133-1.767
		c-0.488,0-0.914,0-1.308,0c-0.319,0.246-0.38,0.596-0.558,0.947c0.289,0.438,0.265,0.998,0.455,1.505
		c0.158,0.424,0.461,0.866,0.026,1.343c-0.096,0.106,0.06,0.374,0.129,0.572c0.229,0.654,0.568,1.367-0.167,1.992
		c0.102,0.706-0.061,1.314-0.55,1.915c-0.275,0.339-0.476,0.801-0.723,1.199c-0.313,0.507-0.513,1.046-0.434,1.657
		c0.106,0.813-0.141,1.606-0.302,2.369c-0.136,0.644-0.244,1.322-0.078,1.863c0.21,0.682,0.041,1.333,0.175,1.976
		c0.157,0.762-0.48,1.177-0.687,1.774c-0.031,0.093-0.156,0.155-0.183,0.248c-0.179,0.635-0.571,1.073-1.308,1.334
		c-0.181,0.017-0.559-0.057-0.793,0.096c-0.447,0.289-0.784,0.104-1.153-0.08c-0.734-0.368-1.465-0.283-2.199,0.002
		c-0.229-0.139-0.447-0.356-0.693-0.396c-0.33-0.052-0.45-0.316-0.675-0.469c-0.54,0-1.081,0.02-1.619-0.009
		c-0.228-0.012-0.45-0.149-0.658-0.229c-1.939-0.757-1.69-0.328-3.305-1.917c-0.209-0.206-0.529-0.185-0.688-0.437
		c-0.609,0.149-1.142-0.285-1.747-0.227c-0.262,0.025-0.535-0.073-0.797-0.131c-0.957-0.209-1.905-0.502-2.944-0.114
		c-0.58,0.217-1.26,0.363-1.95,0.272c-0.601-0.08-1.221-0.017-1.669-0.017c-0.634-0.192-0.951-0.572-1.297-0.917
		c-0.203-0.202-0.397-0.415-0.62-0.592c-0.49-0.388-0.912-1.05-1.171-1.672c-0.403-0.967-0.832-1.93-1.554-2.596
		c-0.59-0.143-1.042-0.005-1.461,0.271c0,0.503,0,1.007-0.001,1.511c-0.212,0.133-0.234,0.338-0.214,0.559
		c0.19,0.366,0.424,0.693,0.688,1.018c0.581,0.713,1.262,1.367,1.613,2.242c0.22,0.548,0.521,1.032,0.953,1.371
		c-0.015,0.213-0.025,0.35-0.036,0.508c-0.419,0-0.805,0-1.168,0c-0.595-0.351-1.162-0.669-1.828-0.865
		c-1.057-0.312-1.906-1.03-2.343-2.041c-0.189-0.438-0.452-0.839-0.605-1.258c-0.178-0.486-0.645-0.488-0.867-0.813
		c-0.666-0.972-1.285-1.974-1.8-3.033c-0.329-0.676-0.792-1.188-1.498-1.469c-0.382-0.152-0.747-0.333-1.029-0.676
		c-0.813,0.131-1.597-0.093-2.395-0.169c-0.79-0.075-1.548-0.236-2.292-0.44c-0.433,0.286-1.144,0.224-1.214,0.957
		C6.842,41.431,6.842,42.654,6.842,43.89z M34.006,36.686c-0.379,0.117-0.668-0.335-1.204-0.236
		c-0.236-0.284-0.508-0.611-0.731-0.879c-1.376-0.024-2.689,0.191-3.745-0.624c-0.568,0-1.064,0-1.532,0
		c-0.178,0.178-0.331,0.33-0.482,0.482c-0.098,0.491-0.035,0.955,0.248,1.396c0.411-0.017,0.571,0.413,0.947,0.539
		c0.693,0.23,1.244,0.717,1.736,1.267c0.382,0.427,0.821,0.802,1.209,1.225c0.426,0.465,0.964,0.768,1.471,1.124
		c0.443,0.312,0.913,0.57,1.451,0.853c0.137,0,0.353,0.018,0.565-0.003c0.519-0.051,0.949-0.351,1.167-0.765
		c0.18-0.342,0.344-0.727,0.131-1.246c-0.218-0.535-0.452-1.155-0.358-1.774C34.825,37.462,34.155,37.297,34.006,36.686z
		 M45.19,36.863c0.206,0,0.422,0,0.645,0c0.159-0.259,0.455-0.385,0.565-0.738c0.081-0.257,0.459-0.42,0.521-0.472
		c0.212-1.079,1.002-1.621,1.138-2.393c0.144-0.812,0.501-1.534,0.675-2.275c-0.407-0.96-0.807-1.885-0.892-2.951
		c-0.261-0.07-0.31-0.458-0.757-0.465c-0.313,0.142-0.706,0.321-1.109,0.503c-0.003,0.314-0.261,0.468-0.449,0.668
		c-0.213,0.226-0.461,0.415-0.54,0.75c-0.127,0.533-0.456,0.968-0.763,1.434C44.171,32.916,44.066,34.937,45.19,36.863z
		 M47.188,48.33c0.671-0.125,1.289-0.443,1.771-0.996c0.033-0.565,0.027-1.1,0.178-1.658c0.171-0.633,0.04-1.348,0.04-1.995
		c-0.493-0.534-0.374-1.343-0.928-1.806c-0.533-0.098-1.033-0.368-1.489-0.268c-0.626-0.334-0.64-1.11-1.429-1.335
		c-0.338,0.281-0.9,0.343-1.313,0.777c0,0.504,0,1.031,0,1.425c0.308,0.656,0.483,1.22,0.644,1.807
		c0.147,0.542,0.148,1.144,0.491,1.621C45.758,46.746,46.292,47.652,47.188,48.33z"/>
	<path fill="currentColor" d="M6.842,43.89c0-1.235,0-2.459,0-3.683c0.07-0.733,0.781-0.671,1.214-0.957
		c0.743,0.204,1.502,0.365,2.292,0.44c0.798,0.076,1.582,0.3,2.395,0.169c0.282,0.343,0.647,0.523,1.029,0.676
		c0.706,0.28,1.169,0.793,1.498,1.469c0.515,1.06,1.135,2.062,1.8,3.033c0.222,0.325,0.688,0.327,0.867,0.813
		c0.154,0.419,0.416,0.82,0.605,1.258c0.437,1.011,1.286,1.729,2.343,2.041c0.666,0.196,1.233,0.515,1.828,0.865
		c0.363,0,0.749,0,1.168,0c0.011-0.158,0.021-0.295,0.036-0.508c-0.432-0.339-0.732-0.823-0.953-1.371
		c-0.351-0.875-1.032-1.529-1.613-2.242c-0.264-0.324-0.497-0.651-0.688-1.017c-0.02-0.222,0.002-0.427,0.215-0.56
		c0-0.504,0-1.008,0.001-1.511c0.419-0.276,0.871-0.414,1.461-0.271c0.722,0.666,1.151,1.629,1.554,2.596
		c0.259,0.622,0.681,1.284,1.171,1.672c0.223,0.177,0.417,0.39,0.62,0.592c0.346,0.345,0.663,0.725,1.297,0.917
		c0.448,0,1.068-0.063,1.669,0.017c0.689,0.091,1.37-0.056,1.95-0.272c1.039-0.388,1.987-0.095,2.944,0.114
		c0.262,0.058,0.536,0.156,0.797,0.131c0.605-0.059,1.138,0.376,1.747,0.227c0.159,0.252,0.479,0.23,0.688,0.437
		c1.614,1.589,1.365,1.16,3.305,1.917c0.208,0.08,0.431,0.218,0.658,0.229c0.538,0.028,1.079,0.009,1.619,0.009
		c0.225,0.152,0.345,0.417,0.675,0.469c0.246,0.04,0.464,0.258,0.693,0.396c0.734-0.285,1.465-0.37,2.199-0.002
		c0.369,0.185,0.706,0.369,1.153,0.08c0.234-0.152,0.612-0.079,0.793-0.096c0.736-0.261,1.129-0.699,1.308-1.334
		c0.026-0.093,0.151-0.155,0.183-0.248c0.206-0.598,0.844-1.013,0.687-1.774c-0.134-0.643,0.035-1.294-0.175-1.976
		c-0.166-0.541-0.058-1.22,0.078-1.863c0.161-0.763,0.408-1.557,0.302-2.369c-0.079-0.611,0.12-1.15,0.434-1.657
		c0.247-0.398,0.447-0.86,0.723-1.199c0.489-0.601,0.651-1.209,0.55-1.915c0.735-0.625,0.396-1.337,0.167-1.992
		c-0.069-0.198-0.225-0.466-0.129-0.572c0.435-0.478,0.132-0.919-0.026-1.343c-0.19-0.508-0.166-1.068-0.455-1.505
		c0.178-0.351,0.238-0.701,0.558-0.947c0.394,0,0.819,0,1.308,0c0.641,0.387,0.73,1.215,1.133,1.767
		c0.342,1.827,0.532,3.617-0.255,5.419c0.186,0.11,0.338,0.201,0.566,0.338c0.572-0.281,1.246-0.655,1.92-0.833
		c0.284-0.087,0.148-0.337,0.306-0.45c0.38-0.273,0.58-0.723,0.662-1.121c0.18-0.873,0.692-1.529,1.181-2.231
		c0-0.492-0.109-1.028,0.031-1.488c0.136-0.444,0.039-0.969,0.4-1.343c0-0.79,0-1.579,0-2.327c-0.466-0.555-0.493-1.224-0.629-1.836
		c-0.119-0.536,0.363-0.917,0.577-1.368c0.044-0.092,0.148-0.155,0.246-0.253c0-0.867,0-1.757,0-2.73
		c-0.403,0.037-0.712,0.222-0.975,0.472c-0.495,0.471-0.97,0.964-1.47,1.463c-0.386-0.106-0.663,0.343-1.099,0.208
		c-0.549,0.879-1.684,0.848-2.374,1.531c-1.362-0.068-2.641,0.678-4.119,0.385c-0.429-0.488-1.287-0.256-1.824-0.804
		c-0.478-0.487-1.23-0.574-1.61-1.078c-0.316-0.03-0.475,0.109-0.662,0.184c-0.6,0.239-0.905,0.779-1.347,1.173
		c-0.437,0.39-0.803,0.806-0.953,1.443c-0.098,0.413-0.229,0.968-0.792,1.169c-0.189,0.068-0.477,0.847-0.456,1.2
		c0.034,0.579-0.24,0.99-0.663,1.427c0.194,0.552-0.157,1.09-0.246,1.666c-0.088,0.571-0.564,1-1.166,1.2
		c-0.341,0.12-0.696-0.005-1.096,0.21c-0.515,0.278-1.075-0.168-1.496-0.456c-0.482-0.33-0.979-0.588-1.505-0.817
		c-0.12-0.052-0.268-0.145-0.333-0.216c-0.826-0.892-1.992-0.944-3.04-1.287c-0.125-0.041-0.229-0.14-0.331-0.203
		c-0.229-0.073-0.286,0.204-0.464,0.206c-0.54,0.005-1.081,0.026-1.619-0.005c-0.497-0.029-0.913,0.322-1.425,0.236
		c-0.305-0.051-0.608-0.028-0.884-0.224c-0.594-0.423-1.323-0.456-1.97-0.679c-0.428-0.428-0.857-0.857-1.248-1.249
		c-0.333,0-0.575,0-0.893,0c0.103,1.037-0.102,2.031-0.319,3.222c-0.404,0.521-0.764,1.32-1.176,2.087
		c-0.273,0.508-0.638,0.892-1.149,1.152c-0.685,0.348-1.362,0.711-1.973,1.03c-1.149-0.213-2.229-0.39-3.379,0.264
		c-1.144,0.039-2.493-0.259-3.437,0.864c-0.44,0-0.796,0.004-1.152-0.002c-0.241-0.004-0.445-0.032-0.686-0.179
		c-0.621-0.378-1.319-0.574-2.07-0.472c-0.175,0.024-0.356,0.004-0.524,0.004c-0.164-0.164-0.316-0.316-0.495-0.494
		c-0.1-0.423-0.068-0.846,0.167-1.262c0.308-0.545,0.204-1.155,0.223-1.748c1.337-1.758,1.783-1.354,2.991-0.963
		c0.126,0.741-0.166,1.544,0.312,2.261c0.115,0.09,0.348,0.001,0.427,0.216c0.214,0.03,0.248-0.389,0.555-0.085
		c0-0.509,0-0.895,0-1.296c-0.229-0.225-0.257-0.631-0.596-0.8c-0.077-1.247-0.073-2.455,0.945-3.382
		c0.527-0.032,1.077-0.059,1.452,0.377c0.282,0.328,0.541,0.711,0.683,1.115c0.299,0.85,0.709,1.652,1.066,2.529
		c0.149,0.078,0.357,0.185,0.564,0.292c0.237,0.059,0.292-0.353,0.559-0.216c0.402-0.405,0.91-0.516,1.438-0.42
		c0.417,0.075,0.706-0.242,1.1-0.253c0.252-0.007,0.539-0.313,0.579-0.561c0.139-0.871,0.852-1.587,0.667-2.536
		c0.48-1.03-0.251-1.764-0.648-2.736c0-0.294-0.067-0.721-0.188-1.163c-0.174-0.637,0.063-1.373,0.336-2.324
		c0.205-0.711,0.44-1.414,0.524-2.167c0.069-0.622,0.324-1.231,0.514-1.835c0.09-0.287,0.094-0.548,0.101-0.815
		c0.017-0.727,0.194-1.416,0.391-2.108c0.093-0.327,0.087-0.664-0.05-1.019c-0.313-0.81-0.557-1.645-0.867-2.586
		c-0.078-0.085-0.417,0.074-0.45-0.209c-0.302-0.012-0.357,0.205-0.502,0.296c-0.081,0.56,0.102,1.089,0.163,1.631
		c0.104,0.924,0.176,1.899-0.012,2.795c-0.187,0.89-0.011,1.853-0.538,2.688c-0.149,0.236-0.07,0.615-0.087,0.833
		c-0.461,0.949-1.007,1.723-1.67,2.44c-0.591,0.64-0.818,1.521-1.381,2.645c-0.561,0.654-1.409,1.573-2.882,1.575
		c-0.178-0.369-0.608-0.481-0.944-0.712c-0.396-0.272-0.003-0.817-0.497-0.936c0.274-0.581,0.542-1.004,1.091-1.268
		c0.39-0.187,0.588-0.629,0.701-1.097c0.125-0.513,0.302-1.017,0.582-1.489c0.102-0.172,0.306-0.364,0.274-0.641
		c-0.056-0.484,0.168-0.875,0.521-1.181c0.172-0.148,0.052-0.439,0.316-0.531c0-0.669,0-1.343,0-1.998
		c-0.203-0.181-0.331-0.468-0.697-0.277c-0.356,0.307-0.742,0.619-0.809,1.204c-0.053,0.459-0.464,0.816-0.48,1.312
		c-0.001,0.052-0.144,0.107-0.139,0.152c0.134,1.201-0.722,1.896-1.392,2.662c-0.412,0.471-0.611,1.056-0.987,1.544
		c-0.364,0.473-0.737,0.891-1.269,1.194c-0.257,0.146-0.486,0.031-0.757,0.178c-0.177-0.232-0.347-0.456-0.577-0.756
		c0.061-0.507,0.317-1.1,0.559-1.683c0.356-0.861,0.744-1.719,1.225-2.514c0.489-0.808,0.907-1.662,1.503-2.407
		c0.205-0.256,0.279-0.612,0.474-0.878c0.35-0.478,0.686-0.966,1.132-1.373c0.723-0.659,1.373-1.382,1.849-2.253
		c0.132-0.242,0.361-0.482,0.606-0.605c1.165-0.583,1.958-1.585,2.824-2.411c0.466-0.154,0.873-0.312,1.292-0.421
		c0.577-0.15,1.165-0.235,1.706,0.121c0.683,0.449,1.142,1.034,1.323,1.873c0.116,0.542,0.265,1.12,0.703,1.578
		c0.667-0.597,1.485-0.941,2.335-1.521c0.364-0.077,0.86,0.068,1.31,0.314c0.152-0.181,0.244-0.291,0.383-0.458
		c0-0.963,0.037-2.005-0.012-3.043c-0.035-0.729,0.201-1.292,0.794-1.775c0.767,0.082,1.645-0.235,2.347,0.426
		c0.482-0.324,0.604-0.949,1.079-1.276c0.43-0.297,1.005-0.137,1.437-0.44c0.254,0.166,0.581,0.214,0.842,0.571
		c-0.086,0.849,0.056,1.749,0.619,2.538c0.019,0.877,0.425,1.614,0.832,2.356c0.076,0.14,0.083,0.352,0.048,0.514
		c-0.141,0.654-0.193,1.341-0.637,1.931c0,0.324,0,0.683,0,1.055c0.197,0.221,0.465,0.052,0.69,0.11
		c0.563-0.305,0.682-0.925,1.016-1.435c0.181-1.088-0.361-2.179-0.198-3.313c-0.304-0.735-0.469-1.498-0.452-2.296
		c-0.412-0.329,0.378-0.568,0.015-0.823c0.335-0.44,0.855-0.431,1.191-0.766c0.264,0,0.549,0,0.885,0
		c0.309,0.41,0.865,0.662,1.022,1.264c0.174,0,0.344,0,0.556,0c-0.025-1.205,0.972-1.629,1.744-2.107
		c0.916-0.566,1.998-0.287,3.601,0.621c0.897-0.152,1.655,0.192,2.231,1.011c0.043,0.87,0.043,0.87,1.639,2.229
		c1.074-0.191,1.854,0.565,2.745,1.028c0.061,0.032,0.125,0.09,0.15,0.152c0.401,0.972,1.421,1.251,2.142,1.919
		c0,0.327,0,0.68,0,1.158c-0.149,0.092-0.394,0.241-0.802,0.491c-0.78,0-1.838,0.104-2.864-0.031
		c-0.926-0.122-1.87-0.278-2.638-0.61c-0.394-0.025-0.412,0.264-0.592,0.306c0.031,0.233,0.028,0.388,0.108,0.564
		c0.21,0.462,0.422,0.948,0.331,1.48c-0.164,0.964,0.203,1.845,0.473,2.724c0.137,0.446,0.4,0.852,0.399,1.346
		c0,0.092,0.061,0.191,0.112,0.275c0.597,0.961,1.354,1.74,2.302,2.183c0.455-0.066,0.561-0.381,0.82-0.555
		c0-0.158,0.007-0.334-0.001-0.509c-0.027-0.598,0.106-1.136,0.401-1.674c0.128-0.234,0.322-0.503,0.268-0.869
		c-0.064-0.436,0.114-0.888,0.382-1.229c0.33-0.421,0.854-0.402,1.347-0.378c0.105,0.005,0.212,0,0.252,0
		c0.843,0.512,0.98,1.45,1.59,2.232c0.262-0.779,0.532-1.468,0.72-2.179c0.199-0.754,0.178-1.556,0.442-2.302
		c0.365-0.165,0.682-0.494,1.218-0.279c0.297,0.321,0.661,0.714,1.025,1.107c0.251,0.233-0.048,0.672,0.382,0.915
		c-0.149,0.339-0.361,0.676-0.204,1.123c0.785,0.687,1.332-0.154,2.073-0.344c0.092,0.123,0.237,0.315,0.448,0.595
		c-0.174,0.469,0.337,0.984,0.241,1.587c0.347,0.444,0.751,0.826,1.299,0.995c0.443,0.137,0.556,0.555,0.616,0.869
		c0.097,0.506,0.309,0.963,0.429,1.443c0.124,0.498,0.322,0.885,0.653,1.252c0.096,0.106,0.035,0.338,0.092,0.497
		c0.222,0.627,0.375,1.272,0.738,1.857c0.223,0.359-0.064,0.903,0.277,1.285c-0.063,1.396,0.646,2.526,1.291,3.795
		c-0.194,0.71,0.266,1.462,0.229,2.274c-0.037,0.826-0.063,1.661,0.013,2.482c0.048,0.519-0.256,0.934-0.24,1.424
		c0.017,0.504,0.004,1.008,0.004,1.396c-0.277,0.753-0.851,1.137-1.334,1.68c0.334,1.09-0.303,2.045-0.687,2.999
		c-0.532,1.322-0.961,2.713-1.844,3.888c-0.121,0.161-0.252,0.442-0.265,0.755c-0.044,1.02-0.323,1.979-1.219,2.616
		c-0.415,0.296-0.613,0.764-0.89,1.152c-0.456,0.639-1.021,1.158-1.529,1.712c-0.047,0.186,0.06,0.368-0.097,0.524
		c-0.521,0.522-1.069,1.016-1.461,1.659c-0.223,0.368-0.695,0.398-1.035,0.615c-0.814,0.52-1.466,1.223-2.117,1.917
		c-0.459,0.49-0.962,0.908-1.588,1.129c-0.816,0.288-1.345,1.021-2.156,1.313c-0.66,0.238-1.211,0.703-1.875,0.948
		c-0.514,0.188-0.836,0.667-1.365,0.877c-0.907,0.358-1.845,0.592-2.778,0.855c-0.585,0.165-1.149,0.357-1.76,0.463
		c-0.588,0.102-1.165,0.159-1.744,0.178c-0.6,0.333-1.22,0.53-1.896,0.667c-1.912,0.388-3.833,0.09-5.747,0.19
		c-0.202,0.011-0.414,0.061-0.589-0.151c-0.117-0.14-0.368-0.115-0.493-0.027c-0.651,0.457-1.176,0.02-1.688-0.253
		c-0.297-0.157-0.558-0.445-0.904-0.417c-0.988,0.08-1.816-0.259-2.585-0.88c-0.792,0.056-1.544-0.064-2.208-0.619
		c-0.126-0.105-0.36-0.37-0.646-0.239c-0.32,0.146-0.542-0.13-0.765-0.238c-0.434-0.211-0.849-0.358-1.337-0.446
		c-0.569-0.102-1.176-0.374-1.616-0.75c-1.021-0.871-2.188-1.505-3.291-2.242c-0.203-0.136-0.434-0.289-0.545-0.492
		c-0.501-0.924-1.39-1.39-2.188-1.981c-0.53-0.393-0.872-1.004-1.285-1.519c-0.916-1.139-1.686-2.394-2.553-3.573
		c-0.334-0.456-0.784-0.825-1.159-1.252c-0.504-0.575-0.562-1.351-0.863-2.018C8.62,48.72,8.365,47.819,7.847,47.02
		c-0.268-0.413-0.434-0.928-0.36-1.467C7.579,44.879,7.353,44.321,6.842,43.89z M47.108,61.472c0.538,0.102,0.997-0.151,1.457-0.353
		c1.084-0.476,1.525-1.407,1.687-2.509c0.046-0.313-0.069-0.691,0.069-0.939c0.515-0.918,0.324-1.881,0.366-2.733
		c-0.224-0.34-0.449-0.4-0.768-0.352c-0.254,0.281-0.538,0.598-0.822,0.913c-0.613,0.225-1.213,0.154-1.801,0.151
		c-0.166,0-0.242,0.119-0.36,0.178c-0.116,0.058-0.361,0.09-0.398,0.034c-0.27-0.409-0.719-0.188-1.066-0.304
		c-0.845-0.284-1.71-0.188-2.394,0.483c-0.229,0.226-0.531,0.296-0.806,0.501c-0.395,0-0.819,0-1.235,0
		c-0.125,0.258-0.059,0.504-0.056,0.723c0.508,0.66,1.335,0.86,1.857,1.42c1.066-0.116,2.031,0.384,2.972,0.212
		c0.38,0.372,0.688,0.673,0.991,0.971c0,0.438,0,0.868,0,1.297C46.905,61.269,47.006,61.37,47.108,61.472z M34.666,57.764
		c0.158-0.479-0.052-0.864-0.263-1.194c-0.218-0.344-0.563-0.596-0.762-0.98c-0.122-0.235-0.375-0.436-0.614-0.572
		c-0.584-0.335-2.628-0.797-3.062-0.639c-0.296,0.107-0.612,0.119-0.876,0.226c-0.301,0.121-0.591,0.138-0.889,0.202
		c-0.36,0.078-0.472,0.383-0.418,0.676c0.469,0.691,1.096,0.912,1.845,0.811c0.353,0.476,0.935,0.562,1.349,0.875
		c0.421,0,0.817-0.011,1.211,0.01c0.083,0.004,0.149,0.148,0.241,0.193C33.115,57.705,33.822,57.959,34.666,57.764z M33.226,17.64
		c-0.044,0.944-0.244,1.91,0.755,2.568c0.518-0.88,0.293-1.725-0.025-2.568C33.73,17.64,33.515,17.64,33.226,17.64z M44.127,13.911
		c-0.638,0.234-0.737,0.722-0.796,1.235c0.14,0.097,0.198,0.281,0.387,0.288C44.135,15.013,44.333,14.545,44.127,13.911z
		 M55.843,21.959c-0.038-0.621-0.038-0.621-0.615-1c0.02,0.343-0.075,0.686,0.063,1C55.483,21.959,55.624,21.959,55.843,21.959z
		 M40.217,15.882c-0.168,0.274-0.137,0.467-0.01,0.706C40.363,16.336,40.353,16.145,40.217,15.882z"/>
	<path fill="currentColor" d="M34.006,36.686c0.149,0.611,0.818,0.776,0.873,1.357
		c-0.093,0.619,0.14,1.239,0.358,1.774c0.212,0.52,0.049,0.904-0.131,1.246c-0.218,0.414-0.648,0.714-1.167,0.765
		c-0.213,0.021-0.429,0.003-0.565,0.003c-0.538-0.282-1.008-0.541-1.451-0.853c-0.506-0.356-1.044-0.659-1.471-1.124
		c-0.388-0.423-0.827-0.798-1.209-1.225c-0.492-0.55-1.043-1.036-1.736-1.267c-0.376-0.126-0.536-0.556-0.947-0.539
		c-0.283-0.441-0.346-0.905-0.248-1.396c0.152-0.152,0.304-0.304,0.482-0.482c0.468,0,0.963,0,1.532,0
		c1.056,0.815,2.369,0.6,3.745,0.624c0.223,0.268,0.495,0.596,0.731,0.879C33.338,36.35,33.627,36.803,34.006,36.686z"/>
	<path fill="currentColor" d="M45.19,36.863c-1.124-1.927-1.019-3.947-0.966-5.939
		c0.307-0.466,0.636-0.901,0.763-1.434c0.079-0.335,0.327-0.524,0.54-0.75c0.188-0.2,0.446-0.354,0.449-0.668
		c0.403-0.183,0.797-0.362,1.109-0.503c0.447,0.007,0.496,0.396,0.757,0.465c0.085,1.066,0.484,1.991,0.892,2.951
		c-0.174,0.742-0.531,1.464-0.675,2.275c-0.136,0.772-0.926,1.314-1.138,2.393c-0.063,0.052-0.44,0.215-0.521,0.472
		c-0.11,0.353-0.406,0.479-0.565,0.738C45.612,36.863,45.396,36.863,45.19,36.863z"/>
	<path fill="currentColor" d="M47.188,48.33c-0.896-0.678-1.43-1.584-2.036-2.428
		c-0.343-0.478-0.344-1.079-0.491-1.621c-0.16-0.587-0.336-1.15-0.644-1.807c0-0.394,0-0.921,0-1.425
		c0.413-0.435,0.976-0.496,1.313-0.777c0.789,0.225,0.803,1.001,1.429,1.335c0.456-0.101,0.956,0.17,1.489,0.268
		c0.554,0.463,0.435,1.271,0.928,1.806c0,0.647,0.131,1.362-0.04,1.995c-0.15,0.559-0.145,1.093-0.178,1.658
		C48.477,47.887,47.859,48.205,47.188,48.33z"/>
	<path style="fill-rule:evenodd;clip-rule:evenodd;fill:none;" d="M47.108,61.472c-0.102-0.102-0.203-0.203-0.307-0.307
		c0-0.429,0-0.859,0-1.297c-0.304-0.298-0.611-0.599-0.991-0.971c-0.94,0.172-1.905-0.328-2.972-0.212
		c-0.522-0.56-1.35-0.76-1.857-1.42c-0.003-0.219-0.069-0.465,0.056-0.723c0.416,0,0.841,0,1.235,0
		c0.274-0.205,0.576-0.275,0.806-0.501c0.684-0.672,1.549-0.768,2.394-0.483c0.348,0.116,0.797-0.105,1.066,0.304
		c0.037,0.056,0.282,0.023,0.398-0.034c0.118-0.059,0.194-0.178,0.36-0.178c0.588,0.003,1.188,0.073,1.801-0.151
		c0.284-0.315,0.568-0.632,0.822-0.913c0.318-0.049,0.544,0.012,0.768,0.352c-0.042,0.853,0.148,1.815-0.366,2.733
		c-0.139,0.248-0.023,0.627-0.069,0.939c-0.161,1.102-0.603,2.033-1.687,2.509C48.105,61.32,47.646,61.573,47.108,61.472z"/>
	<path style="fill-rule:evenodd;clip-rule:evenodd;fill:none;" d="M34.666,57.764c-0.843,0.195-1.55-0.059-2.238-0.394
		c-0.091-0.045-0.158-0.189-0.241-0.193c-0.394-0.021-0.79-0.01-1.211-0.01c-0.414-0.313-0.996-0.399-1.349-0.875
		c-0.749,0.102-1.375-0.119-1.845-0.811c-0.054-0.293,0.058-0.598,0.418-0.676c0.297-0.064,0.588-0.081,0.889-0.202
		c0.264-0.106,0.58-0.118,0.876-0.226c0.434-0.158,2.478,0.304,3.062,0.639c0.239,0.137,0.493,0.337,0.614,0.572
		c0.199,0.385,0.543,0.637,0.762,0.98C34.614,56.899,34.824,57.285,34.666,57.764z"/>
	<path style="fill-rule:evenodd;clip-rule:evenodd;fill:none;" d="M33.226,17.64c0.289,0,0.504,0,0.73,0
		c0.318,0.843,0.542,1.688,0.025,2.568C32.982,19.55,33.182,18.584,33.226,17.64z"/>
	<path style="fill-rule:evenodd;clip-rule:evenodd;fill:none;" d="M44.127,13.911c0.205,0.635,0.008,1.102-0.409,1.522
		c-0.188-0.007-0.247-0.191-0.387-0.288C43.39,14.632,43.49,14.145,44.127,13.911z"/>
	<path style="fill-rule:evenodd;clip-rule:evenodd;fill:none;" d="M55.843,21.959c-0.22,0-0.36,0-0.552,0
		c-0.139-0.314-0.044-0.657-0.063-1C55.805,21.339,55.805,21.339,55.843,21.959z"/>
	<path style="fill-rule:evenodd;clip-rule:evenodd;fill:none;" d="M40.217,15.882c0.136,0.263,0.146,0.454-0.01,0.706
		C40.081,16.349,40.049,16.156,40.217,15.882z"/>
</g>
</svg>
