<svg xmlns="http://www.w3.org/2000/svg" xml:space="preserve" width="72px" height="72px" viewBox="0 0 72 72">
    <g fill="currentColor">
        <path d="M6.842 43.89v-3.683c.07-.733.781-.671 1.214-.957a13.4 13.4 0 0 0 2.292.44c.798.076 1.582.3 2.395.169.282.343.647.523 1.029.676.706.28 1.169.793 1.498 1.469.515 1.06 1.135 2.062 1.8 3.033.222.325.688.327.867.813.154.419.416.82.605 1.258.437 1.011 1.286 1.729 2.343 2.041.666.196 1.233.515 1.828.865h1.168l.036-.508c-.432-.339-.732-.823-.953-1.371-.351-.875-1.032-1.529-1.613-2.242a6 6 0 0 1-.688-1.017c-.02-.222.002-.427.215-.56l.001-1.511c.419-.276.871-.414 1.461-.271.722.666 1.151 1.629 1.554 2.596.259.622.681 1.284 1.171 1.672.223.177.417.39.62.592.346.345.663.725 1.297.917.448 0 1.068-.063 1.669.017.689.091 1.37-.056 1.95-.272 1.039-.388 1.987-.095 2.944.114.262.058.536.156.797.131.605-.059 1.138.376 1.747.227.159.252.479.23.688.437 1.614 1.589 1.365 1.16 3.305 1.917.208.08.431.218.658.229.538.028 1.079.009 1.619.009.225.152.345.417.675.469.246.04.464.258.693.396.734-.285 1.465-.37 2.199-.002.369.185.706.369 1.153.08.234-.152.612-.079.793-.096.736-.261 1.129-.699 1.308-1.334.026-.093.151-.155.183-.248.206-.598.844-1.013.687-1.774-.134-.643.035-1.294-.175-1.976-.166-.541-.058-1.22.078-1.863.161-.763.408-1.557.302-2.369-.079-.611.12-1.15.434-1.657.247-.398.447-.86.723-1.199.489-.601.651-1.209.55-1.915.735-.625.396-1.337.167-1.992-.069-.198-.225-.466-.129-.572.435-.478.132-.919-.026-1.343-.19-.508-.166-1.068-.455-1.505.178-.351.238-.701.558-.947h1.308c.641.387.73 1.215 1.133 1.767.342 1.827.532 3.617-.255 5.419l.566.338c.572-.281 1.246-.655 1.92-.833.284-.087.148-.337.306-.45.38-.273.58-.723.662-1.121.18-.873.692-1.529 1.181-2.231 0-.492-.109-1.028.031-1.488.136-.444.039-.969.4-1.343v-2.327c-.466-.555-.493-1.224-.629-1.836-.119-.536.363-.917.577-1.368.044-.092.148-.155.246-.253v-2.73c-.403.037-.712.222-.975.472-.495.471-.97.964-1.47 1.463-.386-.106-.663.343-1.099.208-.549.879-1.684.848-2.374 1.531-1.362-.068-2.641.678-4.119.385-.429-.488-1.287-.256-1.824-.804-.478-.487-1.23-.574-1.61-1.078-.316-.03-.475.109-.662.184-.6.239-.905.779-1.347 1.173-.437.39-.803.806-.953 1.443-.098.413-.229.968-.792 1.169-.189.068-.477.847-.456 1.2.034.579-.24.99-.663 1.427.194.552-.157 1.09-.246 1.666-.088.571-.564 1-1.166 1.2-.341.12-.696-.005-1.096.21-.515.278-1.075-.168-1.496-.456a9 9 0 0 0-1.505-.817 1.2 1.2 0 0 1-.333-.216c-.826-.892-1.992-.944-3.04-1.287-.125-.041-.229-.14-.331-.203-.229-.073-.286.204-.464.206-.54.005-1.081.026-1.619-.005-.497-.029-.913.322-1.425.236-.305-.051-.608-.028-.884-.224-.594-.423-1.323-.456-1.97-.679l-1.248-1.249h-.893c.103 1.037-.102 2.031-.319 3.222-.404.521-.764 1.32-1.176 2.087-.273.508-.638.892-1.149 1.152-.685.348-1.362.711-1.973 1.03-1.149-.213-2.229-.39-3.379.264-1.144.039-2.493-.259-3.437.864-.44 0-.796.004-1.152-.002-.241-.004-.445-.032-.686-.179-.621-.378-1.319-.574-2.07-.472-.175.024-.356.004-.524.004l-.495-.494c-.1-.423-.068-.846.167-1.262.308-.545.204-1.155.223-1.748 1.337-1.758 1.783-1.354 2.991-.963.126.741-.166 1.544.312 2.261.115.09.348.001.427.216.214.03.248-.389.555-.085v-1.296c-.229-.225-.257-.631-.596-.8-.077-1.247-.073-2.455.945-3.382.527-.032 1.077-.059 1.452.377.282.328.541.711.683 1.115.299.85.709 1.652 1.066 2.529l.564.292c.237.059.292-.353.559-.216.402-.405.91-.516 1.438-.42.417.075.706-.242 1.1-.253.252-.007.539-.313.579-.561.139-.871.852-1.587.667-2.536.48-1.03-.251-1.764-.648-2.736 0-.294-.067-.721-.188-1.163-.174-.637.063-1.373.336-2.324.205-.711.44-1.414.524-2.167.069-.622.324-1.231.514-1.835.09-.287.094-.548.101-.815.017-.727.194-1.416.391-2.108a1.56 1.56 0 0 0-.05-1.019c-.313-.81-.557-1.645-.867-2.586-.078-.085-.417.074-.45-.209-.302-.012-.357.205-.502.296-.081.56.102 1.089.163 1.631.104.924.176 1.899-.012 2.795-.187.89-.011 1.853-.538 2.688-.149.236-.07.615-.087.833a9.8 9.8 0 0 1-1.67 2.44c-.591.64-.818 1.521-1.381 2.645-.561.654-1.409 1.573-2.882 1.575-.178-.369-.608-.481-.944-.712-.396-.272-.003-.817-.497-.936.274-.581.542-1.004 1.091-1.268.39-.187.588-.629.701-1.097a5.4 5.4 0 0 1 .582-1.489c.102-.172.306-.364.274-.641-.056-.484.168-.875.521-1.181.172-.148.052-.439.316-.531v-1.998c-.203-.181-.331-.468-.697-.277-.356.307-.742.619-.809 1.204-.053.459-.464.816-.48 1.312-.001.052-.144.107-.139.152.134 1.201-.722 1.896-1.392 2.662-.412.471-.611 1.056-.987 1.544-.364.473-.737.891-1.269 1.194-.257.146-.486.031-.757.178l-.577-.756c.061-.507.317-1.1.559-1.683.356-.861.744-1.719 1.225-2.514.489-.808.907-1.662 1.503-2.407.205-.256.279-.612.474-.878.35-.478.686-.966 1.132-1.373.723-.659 1.373-1.382 1.849-2.253a1.5 1.5 0 0 1 .606-.605c1.165-.583 1.958-1.585 2.824-2.411.466-.154.873-.312 1.292-.421.577-.15 1.165-.235 1.706.121.683.449 1.142 1.034 1.323 1.873.116.542.265 1.12.703 1.578.667-.597 1.485-.941 2.335-1.521.364-.077.86.068 1.31.314l.383-.458c0-.963.037-2.005-.012-3.043-.035-.729.201-1.292.794-1.775.767.082 1.645-.235 2.347.426.482-.324.604-.949 1.079-1.276.43-.297 1.005-.137 1.437-.44.254.166.581.214.842.571-.086.849.056 1.749.619 2.538.019.877.425 1.614.832 2.356.076.14.083.352.048.514-.141.654-.193 1.341-.637 1.931v1.055c.197.221.465.052.69.11.563-.305.682-.925 1.016-1.435.181-1.088-.361-2.179-.198-3.313a5.6 5.6 0 0 1-.452-2.296c-.412-.329.378-.568.015-.823.335-.44.855-.431 1.191-.766h.885c.309.41.865.662 1.022 1.264h.556c-.025-1.205.972-1.629 1.744-2.107.916-.566 1.998-.287 3.601.621.897-.152 1.655.192 2.231 1.011.043.87.043.87 1.639 2.229 1.074-.191 1.854.565 2.745 1.028.061.032.125.09.15.152.401.972 1.421 1.251 2.142 1.919v1.158l-.802.491c-.78 0-1.838.104-2.864-.031-.926-.122-1.87-.278-2.638-.61-.394-.025-.412.264-.592.306.031.233.028.388.108.564.21.462.422.948.331 1.48-.164.964.203 1.845.473 2.724.137.446.4.852.399 1.346 0 .092.061.191.112.275.597.961 1.354 1.74 2.302 2.183.455-.066.561-.381.82-.555 0-.158.007-.334-.001-.509a3.1 3.1 0 0 1 .401-1.674c.128-.234.322-.503.268-.869-.064-.436.114-.888.382-1.229.33-.421.854-.402 1.347-.378.105.005.212 0 .252 0 .843.512.98 1.45 1.59 2.232.262-.779.532-1.468.72-2.179.199-.754.178-1.556.442-2.302.365-.165.682-.494 1.218-.279l1.025 1.107c.251.233-.048.672.382.915-.149.339-.361.676-.204 1.123.785.687 1.332-.154 2.073-.344l.448.595c-.174.469.337.984.241 1.587.347.444.751.826 1.299.995.443.137.556.555.616.869.097.506.309.963.429 1.443.124.498.322.885.653 1.252.096.106.035.338.092.497.222.627.375 1.272.738 1.857.223.359-.064.903.277 1.285-.063 1.396.646 2.526 1.291 3.795-.194.71.266 1.462.229 2.274-.037.826-.063 1.661.013 2.482.048.519-.256.934-.24 1.424.017.504.004 1.008.004 1.396-.277.753-.851 1.137-1.334 1.68.334 1.09-.303 2.045-.687 2.999-.532 1.322-.961 2.713-1.844 3.888a1.4 1.4 0 0 0-.265.755c-.044 1.02-.323 1.979-1.219 2.616-.415.296-.613.764-.89 1.152-.456.639-1.021 1.158-1.529 1.712-.047.186.06.368-.097.524-.521.522-1.069 1.016-1.461 1.659-.223.368-.695.398-1.035.615-.814.52-1.466 1.223-2.117 1.917-.459.49-.962.908-1.588 1.129-.816.288-1.345 1.021-2.156 1.313-.66.238-1.211.703-1.875.948-.514.188-.836.667-1.365.877-.907.358-1.845.592-2.778.855-.585.165-1.149.357-1.76.463a13 13 0 0 1-1.744.178c-.6.333-1.22.53-1.896.667-1.912.388-3.833.09-5.747.19-.202.011-.414.061-.589-.151-.117-.14-.368-.115-.493-.027-.651.457-1.176.02-1.688-.253-.297-.157-.558-.445-.904-.417-.988.08-1.816-.259-2.585-.88-.792.056-1.544-.064-2.208-.619-.126-.105-.36-.37-.646-.239-.32.146-.542-.13-.765-.238a5 5 0 0 0-1.337-.446 3.55 3.55 0 0 1-1.616-.75c-1.021-.871-2.188-1.505-3.291-2.242-.203-.136-.434-.289-.545-.492-.501-.924-1.39-1.39-2.188-1.981-.53-.393-.872-1.004-1.285-1.519-.916-1.139-1.686-2.394-2.553-3.573-.334-.456-.784-.825-1.159-1.252-.504-.575-.562-1.351-.863-2.018-.388-.846-.643-1.747-1.161-2.546-.268-.413-.434-.928-.36-1.467.092-.674-.134-1.232-.645-1.663m40.266 17.582c.538.102.997-.151 1.457-.353 1.084-.476 1.525-1.407 1.687-2.509.046-.313-.069-.691.069-.939.515-.918.324-1.881.366-2.733-.224-.34-.449-.4-.768-.352l-.822.913c-.613.225-1.213.154-1.801.151-.166 0-.242.119-.36.178-.116.058-.361.09-.398.034-.27-.409-.719-.188-1.066-.304-.845-.284-1.71-.188-2.394.483-.229.226-.531.296-.806.501h-1.235c-.125.258-.059.504-.056.723.508.66 1.335.86 1.857 1.42 1.066-.116 2.031.384 2.972.212l.991.971v1.297zm-12.442-3.708c.158-.479-.052-.864-.263-1.194-.218-.344-.563-.596-.762-.98-.122-.235-.375-.436-.614-.572-.584-.335-2.628-.797-3.062-.639-.296.107-.612.119-.876.226-.301.121-.591.138-.889.202-.36.078-.472.383-.418.676.469.691 1.096.912 1.845.811.353.476.935.562 1.349.875.421 0 .817-.011 1.211.01.083.004.149.148.241.193.687.333 1.394.587 2.238.392m-1.44-40.124c-.044.944-.244 1.91.755 2.568.518-.88.293-1.725-.025-2.568zm10.901-3.729c-.638.234-.737.722-.796 1.235.14.097.198.281.387.288.417-.421.615-.889.409-1.523m11.716 8.048c-.038-.621-.038-.621-.615-1 .02.343-.075.686.063 1zm-15.626-6.077c-.168.274-.137.467-.01.706.156-.252.146-.443.01-.706"/>
        <path d="M34.006 36.686c.149.611.818.776.873 1.357-.093.619.14 1.239.358 1.774.212.52.049.904-.131 1.246a1.47 1.47 0 0 1-1.167.765c-.213.021-.429.003-.565.003-.538-.282-1.008-.541-1.451-.853-.506-.356-1.044-.659-1.471-1.124-.388-.423-.827-.798-1.209-1.225-.492-.55-1.043-1.036-1.736-1.267-.376-.126-.536-.556-.947-.539-.283-.441-.346-.905-.248-1.396l.482-.482h1.532c1.056.815 2.369.6 3.745.624l.731.879c.536-.098.825.355 1.204.238m11.184.177c-1.124-1.927-1.019-3.947-.966-5.939.307-.466.636-.901.763-1.434.079-.335.327-.524.54-.75.188-.2.446-.354.449-.668l1.109-.503c.447.007.496.396.757.465.085 1.066.484 1.991.892 2.951-.174.742-.531 1.464-.675 2.275-.136.772-.926 1.314-1.138 2.393-.063.052-.44.215-.521.472-.11.353-.406.479-.565.738zm1.998 11.467c-.896-.678-1.43-1.584-2.036-2.428-.343-.478-.344-1.079-.491-1.621-.16-.587-.336-1.15-.644-1.807v-1.425c.413-.435.976-.496 1.313-.777.789.225.803 1.001 1.429 1.335.456-.101.956.17 1.489.268.554.463.435 1.271.928 1.806 0 .647.131 1.362-.04 1.995-.15.559-.145 1.093-.178 1.658a3.04 3.04 0 0 1-1.77.996"/>
    </g>
</svg>
