<svg xmlns="http://www.w3.org/2000/svg" xml:space="preserve" width="72px" height="72px" viewBox="0 0 72 72">
    <g fill="currentColor">
        <path d="M27.479 65.808c-.761-.627-1.667-.663-2.514-.848-.35-.076-.662-.194-.907-.416-.715-.646-1.514-1.172-2.406-1.495-.486-.176-.655-.741-1.187-.787-.735-.852-1.782-1.244-2.701-1.823-.185-.133-.088-.332-.132-.494-.034-.124-.136-.229-.208-.344.087-.469.345-.881.734-1.083.444-.229.788-.649 1.323-.717.086-.011.156-.188.238-.192.522-.025.621-.839 1.243-.657.358-.317.814-.55 1.218-.707 1.032-.402 1.846-1.113 2.774-1.652a5 5 0 0 1 1.099-.479c.465-.137.963-.326 1.314-.729.347-.398.844-.595 1.314-.727.495-.138.884-.363 1.213-.727.474-.523 1.052-.849 1.733-1.036.319-.088.65-.208.875-.489.355-.443.857-.7 1.316-1.002.417-.274.729-.588.96-1.041.408-.803.934-1.544 1.223-2.409.131-.392.381-.714.642-1.031.725-.88.96-2 1.25-3.037.261-.936.542-1.918.498-2.939-.017-.394-.14-.735-.228-1.099-.087-.362.167-.793-.222-1.097.097-.55-.087-1.096.131-1.672.274-.727.125-1.53-.181-2.23-.258-.59-.589-1.141-.594-1.805-.001-.179-.153-.226-.226-.34-.63-.992-1.3-1.96-1.777-3.062-.518-.265-1.109-.44-1.549-.9-.288-.301-.742-.326-1.082-.5-.656-.336-1.306-.394-2-.398-.268-.001-.572.121-.797-.169-.044-.057-.219-.072-.298-.034-.882.428-1.819.093-2.788.245-.265.323-.631.667-1.093.809-.276.084-.394.284-.575.437-.219.186-.458.375-.602.614-.158.263-.598.146-.634.588-.022.276-.436.295-.649.462-.935.731-1.299 1.809-1.697 2.859-.184.486-.206 1.003-.235 1.527-.09 1.636.443 3.238.204 4.784.664 1.043.94 2.165 1.515 3.152.402.691.526 1.034 1.161 1.36.621.319 1.283.588 1.882.915.606.331 1.521.412 1.688 1.363.111.827-.168 1.572-.669 2.262-.486 0-.953-.02-1.417.006-.336.02-.656.042-1.008.161-.704.238-1.417-.111-2.019-.499-.271-.175-.538-.262-.821-.375a8.5 8.5 0 0 1-1.523-.772c-.569-.372-1.275-.539-1.902-.868-1.011-.531-1.959-1.116-2.761-1.932-.353-.36-.699-.728-1.071-1.066a2.4 2.4 0 0 1-.766-1.722c-.021-.85-.167-1.651-.487-2.404-.37-.871-.283-1.74.063-2.507.276-.612.546-1.213.73-1.859.119-.416.325-.803.495-1.198.291-.676.632-1.382.415-2.168l-.583-.295c-.355.363-.974.044-1.378.554l-.618-.895c-.127-.525.133-1.239.614-1.834.406-.503.574-1.009.487-1.518l-.856-1.675V23.15l.715-.714c.316-.067.613-.065.944.163.555.381 1.222.201 1.845.229.682-.368.857-1.191 1.465-1.606-.051-.758.449-1.437.196-2.081.364-.641 1.004-.802 1.429-1.294h1.776l.527-.827h.699c.528-.695.528-.695.563-1.436.382-.398.836-.576 1.4-.54.573.036 1.151.008 1.658.008.804-.433 1.52-.878 2.185-1.431.608-.505 1.337-.415 1.993.133.206.128.042.379.121.557.469.555 1.093.568 1.875.496l.334-.53.121.085v-1.145c.876-.708 1.841-.685 2.734-.281.857.388 1.375 1.168 1.583 2.172-.192.345-.311.876-.835 1.011-.46.118-.911.361-1.361.219l-1.376.878c-.406-.057-.905.145-1.312-.085-.374-.211-.797-.081-1.165-.334-.347-.239-.796-.331-1.155-.469-.486.169-.882.367-1.161.78.636.801 1.701 1.329 1.785 2.628-.175.3-.065.747-.089 1.179.194.453.661.574 1.014.833.509-.169.987-.434 1.549-.438.567-.003.929.378 1.287.695.618-.411.463-1.071.66-1.582.445-1.159.789-1.467 2.017-1.491.478-.01.951.089 1.435-.188.452-.259.935.143 1.404.226.206.037.416.208.672.187.455-.038.88.101 1.319.186.423.081.757.27 1.114.456.048.025.132-.018.301-.046a5 5 0 0 1-.444-2.754l-.885-.835c-.511-.027-.997-.52-1.733-.754-.11-.068.134-.46-.186-.467-.093-.366.471-.369.139-.735h1.216c.424.374.949.667 1.54.609.583-.058 1.077.246 1.64.256.235.004.5.205.694.38.509.461 1.159.516 1.822.729l.428.428c.294.88-.271 1.634-.158 2.356.429.777 1.318.958 1.72 1.633.409.687 1.137.918 1.7 1.397.856-.429 1.56-.921 1.566-1.998.002-.209.196-.417.303-.625h.403c.81.543 1.055 1.42 1.402 2.232.069.162.102.371-.015.499a.63.63 0 0 0-.167.476c.021 1.252-.744 2.137-1.354 3.08-.453-.136-.712.193-1.072.208-.817.034-1.606-.043-2.268-.529-.375-.275-.813-.306-1.202-.503-.31-.158-.687-.155-1.014.281 0 .437-.06.978.018 1.497.068.456-.237.788-.248 1.208-.005.199-.204.322-.417.412-.637.269-1.27.528-1.961.414-.761.366-1.335.893-1.711 1.706v1.433c.544.692.878 1.515 1.329 2.255h.729c.37-.368.914-.707 1.137-1.193.179-.39.517-.417.708-.662.242-.313.543-.271.859-.298.119-.01.229-.134.345-.207.313.108.631.208.941.329.744.288 1.313.843 1.947 1.295.484.347.555.915.768 1.41.232.538.05 1-.252 1.511-.395-.234-.895-.227-1.3-.635-.377-.381-.982-.244-1.495-.231l-.317.317c0 .426-.011.858.003 1.289.011.306-.101.628.199.897.089.081.062.362.003.521-.095.256-.286.479-.205.778.13.484.382.922.463 1.437.039.247.201.582.529.806h1.972c.194 1.09-.039 2.117-.224 3.236-.229.698-1.154.834-1.525 1.524-.815-.088-1.642.175-2.381-.218-.531-.737-.868-1.58-1.529-2.161-.529-.13-.7.3-.977.548 0 .866-.037 1.732.014 2.594.03.506-.048 1.002-.251 1.412-.52 1.052-.755 2.207-1.298 3.2.149.341.354.464.684.452.863-.03 1.765.115 2.46-.641h1.103c.723.659 1.211 1.596 2.021 2.234.579 1.267.965 2.565.407 3.936-.236.583-.2 1.31-.82 1.712.063.359-.036.685-.217.989-.07.118-.155.228-.184.268-.218.207-.406.1-.574.133l-.308-.308c-.034-.796-.081-1.591.348-2.326.273-.468-.217-.812-.264-1.241-.03-.279-.248-.538-.39-.821a1.2 1.2 0 0 1-.557-.313c-.423.237-.683.565-1.034.794a2.75 2.75 0 0 0-.963 1.086 18 18 0 0 1-1.956 3.081c-.278.356-.482.758-.356 1.264l.511.511c.813.092 1.535-.299 2.303-.442.183-.034.331-.245.519-.393h.673c.123.187.063.362.057.516a11.8 11.8 0 0 1-2.732 2.27c-.838-.191-1.704.256-2.618.217-.767-.032-1.547.089-2.414-.329-.309-.291-.676-.775-1.249-.985-.144-.782.158-1.587-.337-2.321-.612-.445-1.079-.088-1.677.267-1.09.647-1.111 1.856-1.688 2.763-.08.125-.011.346-.011.472.199.333.467.413.766.342.289-.069.376.339.659.242.338.56.419 1.104.104 1.734-.252.503-.535.812-1.107.836-1.361.059-2.246-.072-3.747-1.103-.611-.42-1.236-.535-1.908-.618-.282-.041-.573-.011-.909-.011M15.991 25.441c.885.723 1.975.804 2.732 1.481.04.036.139.005.265.005.721-.549 1.609-.987 1.903-2.042-.7-.662-1.083-1.585-1.782-2.429-.232.499-.715.556-.921.986-.217.453-.808.514-1.122.911-.284.359-.643.658-1.075 1.088m26.6-.926h.973c.59-.23.388-.601.428-.901-.694-.703-1.089-1.708-2.105-2.071h-2.091c-.445.239-.331.619-.332.889l.977 1.053c.369-.172.583.184.896.219.539.061.677.791 1.254.811m-16.844-4.087c.18-.378.422-.629.301-.969l-.333-.333c-.857.153-1.799-.227-2.58.325-.485.482-.261 1.049-.294 1.365l.549.794c.913-.261 1.524-.988 2.357-1.182m-3.827-1.612c-.184-.323-.453-.401-.861-.221.264.254-.177.283-.13.499.14.098.204.309.52.259zm37.986 25.606c.247-.045.559.128.774-.162.401.109.719.341.923.603.528 1.248.097 2.595.716 3.777.13.25.148.675-.101 1.011-.175.237-.187.555-.597.629-.272.05-.406.471-.757.494-.151.903.295 1.925-.551 2.707h-.651c-.448-.208-.486-.827-.904-1.073-.399-.235-.728-.531-1.047-.854h-.887c-.11.115-.212.313-.361.363-.693.228-.805.761-.81 1.383-.011 1.336-.095 1.605-.851 2.885.036.84-.244 1.608-.618 2.33-.464.898-1.259 1.282-2.291 1.248l-.757-.852c-.055-.733-.217-1.564-.438-2.392-.224-.84.276-1.648.204-2.456.376-.754 1.067-1.22 1.485-2.088v-1.488c.66-1.132 1.639-1.908 2.49-2.808.72-.081 1.441.033 2.176-.197.533-.168 1.181-.125 1.617.238.468-.234.386-.685.706-.848-.438-.569-.192-1.154-.271-1.651zm-4.442-3.562c-.061-.653-.155-1.249-.649-1.714a1.43 1.43 0 0 1-.459-1.212c.021-.249.004-.501.004-.75-.37-.333-.374-.774-.453-1.224-.117-.665-.122-1.347-.373-1.998-.196-.509.083-1.025.343-1.44.232-.372.413-.824.819-1.064.301-.177.279-.557.528-.756l.001-2.373c.252-.303.61-.416.968-.592l.975.503c-.114.56.301 1.033.219 1.583.237.328.551.549.901.7.684.294 1.126.792 1.237 1.518.035.229.307.313.219.607l-.277.306h-1.196c-1.056.399-1.171 1.297-1.468 2.126.328.528.645 1.175 1.209 1.642.116.843-.253 1.786.549 2.5h.699c.278-.311.646-.647.92-1.05.252-.368.396-.777.03-1.229-.146-.181.102-.563-.188-.789.104-.269.187-.553.445-.752.223-.107.469-.042.711-.037.791.694.448 1.631.536 2.5.329.156.386.54.617.851.158.719-.181 1.272-.702 1.802-.689.699-1.387 1.378-2.273 1.816-.521.258-1.069.456-1.539.362-.975-.471-1.689-1.074-2.353-1.836"/>
        <path d="M52.116 39.016h-.65c-.557-.424-.134-1.19-.572-1.679.125-.267.277-.532.261-.836.172-.125.35-.05.488-.056.651.414.473 1.17.761 1.733.159.312-.264.525-.288.838"/>
    </g>
</svg>
