<?xml version="1.0" encoding="iso-8859-1"?>
<!-- Generator: Adobe Illustrator 16.0.0, SVG Export Plug-In . SVG Version: 6.00 Build 0)  -->
<!DOCTYPE svg PUBLIC "-//W3C//DTD SVG 1.1//EN" "http://www.w3.org/Graphics/SVG/1.1/DTD/svg11.dtd">
<svg version="1.1" id="Layer_1" xmlns="http://www.w3.org/2000/svg" xmlns:xlink="http://www.w3.org/1999/xlink" x="0px" y="0px"
	 width="72.36px" height="72.18px" viewBox="0 0 72.36 72.18" style="enable-background:new 0 0 72.36 72.18;" xml:space="preserve"
	>
<g>
	<path style="fill-rule:evenodd;clip-rule:evenodd;fill:none;" d="M-6.984,79.631c0-28.871,0-57.743,0-86.615
		c28.8,0,57.6,0,86.399,0c0,28.872,0,57.744,0,86.615C50.616,79.631,21.816,79.631-6.984,79.631z M41.738,49.606
		c0.563,0.088,0.85-0.403,1.243-0.639c0.75-0.447,1.378-1.137,2.273-1.286c0.562-0.095,0.976-0.418,1.425-0.628
		c0.387,0.179,0.752,0.38,0.984,0.745c0.079,1.211,0.765,1.969,1.943,2.451c0.169,0,0.455,0,0.767,0
		c0.232-0.244,0.479-0.505,0.781-0.822c0-0.455,0-0.986,0-1.475c0.114-0.115,0.19-0.191,0.267-0.268
		c0.668,0.28,0.989,0.893,1.18,1.497c0.155,0.496,0.37,0.947,0.657,1.345c0.253,0.351,0.368,0.752,0.42,1.118
		c0.059,0.417,0.149,0.798,0.306,1.128c0.646,0.368,1.234,0.807,1.953,0.719c0.289-0.271,0.551-0.515,0.844-0.789
		c0-0.584,0-1.186,0-1.819c1.007,0,1.969,0,2.888,0c0.521-0.486,0.586-1.045,0.513-1.563c-0.447-0.646-1.108-0.945-1.552-1.467
		c0.528-0.525,1.295-0.291,1.78-0.755c-0.131-0.313,0.157-0.51,0.217-0.767c-0.697-1.403-0.553-1.448-1.578-2.096
		c-1.137-0.15-2.165,0.119-3.167,0.511c-0.38,0.148-0.73,0.18-1.096-0.005c-0.296-0.149-0.596-0.189-0.874,0.026
		c-0.229,0.177-0.482,0.052-0.722,0.079c-0.036,0.005-0.084-0.094-0.138-0.158c-0.003-0.24,0.212-0.336,0.359-0.488
		c0.209,0,0.423,0,0.607,0c0.201-0.189,0.383-0.362,0.565-0.536c-0.174-0.359,0.296-0.577,0.198-0.887
		c-0.14-0.446-0.155-1.031-0.631-1.229c-0.466-0.194-0.911-0.509-1.539-0.278c-0.658,0.242-1.398,0.632-2.057,0.08
		c-0.327-0.49-0.566-0.967-0.742-1.512c0.049-0.063,0.155-0.137,0.165-0.223c0.12-0.959,0.152-1.938-0.004-2.876
		c-0.075-0.454-0.203-0.804,0.018-1.262c0.207-0.433-0.091-0.977,0.169-1.44c0.065-0.115,0.104-0.244,0.181-0.43
		c0.305,0.2,0.396-0.344,0.849-0.149c0.385,0.433,1.135-0.082,1.645,0.38c0.573-0.183,1.193-0.209,1.727-0.525
		c-0.038-0.208,0.095-0.327,0.219-0.436c0.028-0.565,0.08-1.128-0.31-1.591c-0.393-0.335-1.03-0.369-1.239-1.026
		c1.033-0.466,2.004-0.483,3.063,0.122c0.722,0,1.55-0.038,2.374,0.01c0.866,0.05,1.456-0.254,1.728-1.059
		c-0.244-0.829-0.566-1.583-1.284-2.044c0-0.186,0-0.33,0-0.625c0.171-0.13,0.426-0.325,0.627-0.478c0-0.43,0-0.785,0-1.055
		c-0.351-0.613-0.988-0.775-1.39-1.237c-0.483,0.039-0.963,0.02-1.409-0.32c0.125-0.442-0.402-0.796-0.189-1.242
		c-0.262-0.394-0.623-0.602-1.078-0.806c-0.595,0.048-1.319-0.168-1.915,0.312c-0.366,0.41-0.183,0.982-0.472,1.429
		c-0.551,0.851-0.742,1.85-1.094,2.785c-0.178,0.473-0.39,0.953-0.942,1.118c-0.407-0.49,0.103-0.872,0.094-1.26
		c-0.193-0.783-0.718-1.163-1.422-1.306c-0.834,0.308-1.741,0.564-2.245,1.397c0.018,0.947-0.502,1.469-1.3,1.788
		c-0.764-0.333-1.465-0.808-2.34-0.883c-0.31-0.027-0.635-0.211-0.877-0.479c-0.313-0.346-0.655-0.667-0.989-0.996
		c-0.369-0.362-0.698-0.771-1.252-0.892c-0.149-0.033-0.268-0.207-0.394-0.31c0.044-0.193-0.063-0.382,0.103-0.529
		c0.367-0.326,0.492-0.846,0.915-1.134c0.299-0.204,0.438-0.556,0.485-0.871c0.073-0.493,0.052-1.008,0.004-1.507
		c-0.021-0.21-0.211-0.405-0.325-0.609c-0.314,0.128-0.517-0.144-0.77-0.215c-1.493,0.69-1.493,0.69-2.165,0.485
		c0.312-0.53,0.539-1.082,0.965-1.557c0.419-0.467,0.67-1.083,1.015-1.621c0.332-0.519,1.119-0.593,1.256-1.313
		c0.045-0.597,0.144-1.232-0.192-1.708c-0.476-0.3-0.872-0.549-1.239-0.78c-0.557,0.176-0.917,0.553-1.198,0.851
		c-0.323,0-0.529,0-0.729,0c-0.093-0.352-0.35-0.62-0.304-0.973c-0.455-0.442-0.842-0.974-1.523-0.944
		c-0.729,0.446-1.03,1.256-1.667,1.808c-0.633-0.608-1.365-0.543-1.955-0.497c-0.405,0.4-0.734,0.725-1.067,1.054
		c0,0.322,0,0.677,0,0.998c0.486,0.544,1.087,0.94,1.288,1.669c0.05,0.183,0.266,0.323,0.415,0.474
		c0.43,0.436,0.864,0.866,1.263,1.265c0,0.35,0,0.665,0,0.984c-1.452-0.385-1.611-0.225-2.771,1.014
		c-0.041,0.782,0.331,1.389,0.855,1.911c0.477,0.476,0.752,1.04,0.892,1.664c-0.636,0.963-1.669,1.344-2.561,1.903
		c-0.343,0.215-0.764,0.319-1.014,0.664c-0.14,0.193-0.349,0.236-0.53,0.29c-0.587,0.173-1.107,0.48-1.609,0.803
		c-0.227,0.146-0.421,0.231-0.644,0.204c-0.8-0.539-0.89-1.455-1.185-2.223c-0.197-0.516-0.453-0.901-0.781-1.216
		c-0.567,0-1.065,0-1.652,0c-0.115,0.378-0.341,0.72-0.627,0.969c0,0.338,0.016,0.627-0.004,0.914
		c-0.021,0.304,0.098,0.629-0.104,0.927c-0.388-0.043-0.517-0.381-0.756-0.568c0.05-0.465-0.338-0.843-0.238-1.311
		c-0.261-0.114-0.275-0.417-0.356-0.608c-0.456-1.073-1.184-2.02-1.479-3.167c-0.016-0.06-0.098-0.103-0.148-0.154
		c-0.833-0.253-1.495,0.361-2.03,0.413c-0.364,0.245-0.571,0.385-0.74,0.499c0,0.513,0,0.938,0,1.4c-0.482,0-0.94,0-1.176,0
		c-0.849,0.317-1.293,0.78-1.58,1.495c0,0.218,0,0.531,0,0.648c0.266,0.776,1.077,0.761,1.3,1.35
		c-0.421,0.549-1.033,0.352-1.44,0.429c-0.556,0.506-0.58,1.052-0.535,1.463c0.313,0.821,0.824,1.256,1.458,1.538
		c1.73,0.117,3.302-0.583,5.033-0.854c0.168,0.083,0.405,0.201,0.634,0.314c0,0.158,0,0.301,0,0.441
		c-0.335,0.374-0.945,0.469-1.068,1.059c0,0.43,0,0.859,0,1.292c0.245,0.335,0.557,0.603,1.229,0.797
		c0.677,0.121,1.571-0.127,2.499-0.521c0.176,0.241,0.342,0.468,0.561,0.766c-0.149,0.4,0.245,0.861,0.242,1.386
		c-0.01,1.797-0.004,3.594-0.004,5.231c-0.211,0.53-0.431,0.88-0.836,1.138c-0.334-0.124-0.722,0.066-1.107-0.123
		c-0.662-0.325-1.369-0.445-2.101-0.288c-0.831,0.893-0.805,0.904-0.507,2.004c0.107,0.396,0.356,0.574,0.652,0.755
		c0.288,0.175,0.641,0.242,0.87,0.537c-0.093,0.099-0.188,0.197-0.29,0.305c-0.692,0.063-1.386,0.075-2.049-0.195
		c-0.343-0.14-0.658-0.399-1.025-0.011c-0.061,0.064-0.32,0.059-0.496-0.061c-0.46-0.313-0.918-0.157-1.349,0.08
		c-0.807-0.364-1.521-0.29-2.034,0.223c-0.106,0.216-0.224,0.455-0.293,0.597c-0.068,0.436,0.363,0.642,0.195,0.989
		c0.315,0.387,0.693,0.655,1.183,0.783c0.494,0.13,0.488,0.151,0.496,0.803c-0.748,0.521-0.748,0.521-1.029,1.288
		c0.213,0.74,0.718,1.225,1.563,1.599c0.357,0,0.888,0,1.377,0c0.114,0.114,0.191,0.19,0.305,0.306c0,0.419,0,0.876,0,1.27
		c0.286,0.362,0.583,0.597,1.112,0.753c0.144,0,0.457,0,0.745,0c0.33-0.33,0.629-0.643,0.943-0.938
		c0.234-0.221,0.391-0.533,0.408-0.795c0.026-0.402,0.22-0.706,0.347-1.053c0.229-0.627,0.422-1.266,0.645-1.944
		c0.367-0.232,0.557-0.766,1.18-0.903c0,0.537,0,1.023,0,1.416c0.385,0.392,0.688,0.698,0.985,1.001c0.224,0,0.439,0,0.625,0
		c1.046-0.521,1.547-1.424,1.888-2.316c0.335-0.332,0.609-0.603,0.917-0.907c0.8,0.45,1.683,0.927,2.674,1.118
		c1.063,1.063,1.483,1.327,2.336,1.462c0.116,0.119,0.242,0.247,0.366,0.376c0.764,0.799,0.75,1.187,0.131,2.157
		c-0.348,0.546-0.802,0.972-1.081,1.268c-0.4,0.619-0.002,0.943,0.075,1.273c0.573,0.358,1.021,0.865,1.751,0.947
		c0.395-0.229,0.954-0.244,1.365-0.627c0.118,0.284,0.085,0.474-0.07,0.713c-0.346,0.53-0.891,0.963-0.924,1.663
		c-0.006,0.134-0.083,0.194-0.159,0.259c-0.615,0.528-0.866,1.324-1.436,1.898c-0.496,0.5-0.472,1.085-0.086,1.677
		c0.136,0.208,0.286,0.407,0.343,0.488c0.641,0,1.076-0.031,1.503,0.009c0.433,0.042,0.69-0.354,1.063-0.39
		c0.5,0.435,0.423,1.316,1.233,1.453c0.286,0,0.572,0,0.846,0c0.633-0.305,0.564-1.046,0.909-1.498
		c0.614-0.096,0.815,0.528,1.297,0.608c0.604,0.096,1.146-0.032,1.606-0.494c0.444-0.446,0.479-0.975,0.425-1.459
		c-0.429-0.807-0.968-1.429-1.517-2.059c-0.607-0.697-1.074-1.515-1.693-2.216c-0.092-0.104-0.374-0.272-0.228-0.555
		c0.091-0.088,0.194-0.188,0.302-0.291c0.533,0.322,1.042,0.709,1.694,0.847c0.161-0.361,0.592-0.094,0.798-0.312
		c0.455-0.771,0.455-0.771,0.398-2.018c-0.681-0.586-1.28-1.245-1.482-2.155C40.736,50.481,41.263,50.064,41.738,49.606z"/>
	<path style="fill-rule:evenodd;clip-rule:evenodd;" d="M41.738,49.606c-0.475,0.458-1.002,0.875-1.211,1.568
		c0.202,0.91,0.802,1.569,1.482,2.155c0.057,1.247,0.057,1.247-0.398,2.018c-0.206,0.218-0.637-0.05-0.798,0.312
		c-0.652-0.138-1.161-0.524-1.694-0.847c-0.107,0.104-0.211,0.203-0.302,0.291c-0.146,0.282,0.136,0.451,0.228,0.555
		c0.619,0.701,1.086,1.519,1.693,2.216c0.549,0.63,1.088,1.252,1.517,2.059c0.054,0.484,0.02,1.013-0.425,1.459
		c-0.46,0.462-1.002,0.59-1.606,0.494c-0.481-0.08-0.683-0.704-1.297-0.608c-0.345,0.452-0.276,1.193-0.909,1.498
		c-0.273,0-0.56,0-0.846,0c-0.81-0.137-0.733-1.019-1.233-1.453c-0.372,0.035-0.629,0.432-1.063,0.39
		c-0.428-0.04-0.863-0.009-1.503-0.009c-0.057-0.081-0.208-0.28-0.343-0.488c-0.385-0.592-0.409-1.177,0.086-1.677
		c0.569-0.574,0.821-1.37,1.436-1.898c0.076-0.064,0.152-0.125,0.159-0.259c0.033-0.7,0.578-1.133,0.924-1.663
		c0.156-0.239,0.188-0.429,0.07-0.713c-0.411,0.383-0.97,0.398-1.365,0.627c-0.73-0.082-1.178-0.589-1.751-0.947
		c-0.078-0.33-0.475-0.654-0.075-1.273c0.278-0.296,0.732-0.722,1.081-1.268c0.619-0.971,0.632-1.358-0.131-2.157
		c-0.124-0.129-0.25-0.257-0.366-0.376c-0.853-0.135-1.272-0.398-2.336-1.462c-0.991-0.191-1.874-0.668-2.674-1.118
		c-0.308,0.305-0.582,0.575-0.917,0.907c-0.341,0.893-0.842,1.796-1.888,2.316c-0.186,0-0.401,0-0.625,0
		c-0.297-0.303-0.6-0.609-0.985-1.001c0-0.393,0-0.879,0-1.416c-0.623,0.138-0.813,0.671-1.18,0.903
		c-0.223,0.679-0.416,1.317-0.645,1.944c-0.127,0.347-0.321,0.65-0.347,1.053c-0.018,0.262-0.174,0.574-0.408,0.795
		c-0.314,0.296-0.613,0.608-0.943,0.938c-0.288,0-0.601,0-0.745,0c-0.528-0.156-0.826-0.391-1.112-0.753c0-0.394,0-0.851,0-1.27
		c-0.114-0.115-0.191-0.191-0.305-0.306c-0.49,0-1.02,0-1.377,0c-0.845-0.374-1.35-0.858-1.563-1.599
		c0.281-0.768,0.281-0.768,1.029-1.288c-0.008-0.651-0.002-0.673-0.496-0.803c-0.49-0.128-0.867-0.396-1.183-0.783
		c0.168-0.348-0.264-0.554-0.195-0.989c0.07-0.142,0.188-0.381,0.293-0.597c0.513-0.513,1.228-0.587,2.034-0.223
		c0.43-0.237,0.888-0.394,1.349-0.08c0.176,0.119,0.435,0.125,0.496,0.061c0.367-0.389,0.682-0.129,1.025,0.011
		c0.664,0.271,1.357,0.259,2.049,0.195c0.102-0.107,0.197-0.206,0.29-0.305c-0.229-0.295-0.582-0.362-0.87-0.537
		c-0.295-0.181-0.544-0.358-0.652-0.755c-0.298-1.1-0.323-1.111,0.507-2.004c0.732-0.157,1.439-0.037,2.101,0.288
		c0.385,0.189,0.772-0.001,1.107,0.123c0.406-0.258,0.625-0.607,0.836-1.138c0-1.638-0.006-3.435,0.004-5.231
		c0.003-0.524-0.391-0.985-0.242-1.386c-0.218-0.298-0.385-0.525-0.561-0.766c-0.928,0.394-1.822,0.641-2.499,0.521
		c-0.673-0.194-0.984-0.462-1.229-0.797c0-0.433,0-0.862,0-1.292c0.123-0.59,0.732-0.685,1.068-1.059c0-0.14,0-0.283,0-0.441
		c-0.229-0.113-0.466-0.231-0.634-0.314c-1.731,0.271-3.303,0.971-5.033,0.854c-0.635-0.282-1.146-0.717-1.458-1.538
		c-0.044-0.411-0.021-0.957,0.535-1.463c0.407-0.077,1.02,0.12,1.44-0.429c-0.224-0.589-1.035-0.574-1.3-1.35
		c0-0.117,0-0.43,0-0.648c0.287-0.715,0.731-1.178,1.58-1.495c0.236,0,0.694,0,1.176,0c0-0.462,0-0.887,0-1.4
		c0.169-0.114,0.376-0.254,0.74-0.499c0.535-0.051,1.198-0.666,2.03-0.413c0.051,0.051,0.133,0.094,0.148,0.154
		c0.295,1.146,1.023,2.093,1.479,3.167c0.081,0.191,0.095,0.495,0.356,0.608c-0.1,0.468,0.288,0.846,0.238,1.311
		c0.239,0.187,0.368,0.524,0.756,0.568c0.202-0.297,0.083-0.623,0.104-0.927c0.02-0.287,0.004-0.576,0.004-0.914
		c0.286-0.249,0.512-0.591,0.627-0.969c0.586,0,1.085,0,1.652,0c0.328,0.315,0.583,0.701,0.781,1.216
		c0.294,0.768,0.385,1.685,1.185,2.223c0.223,0.027,0.417-0.059,0.644-0.204c0.502-0.323,1.022-0.629,1.609-0.803
		c0.182-0.054,0.391-0.097,0.53-0.29c0.25-0.345,0.671-0.448,1.014-0.664c0.892-0.56,1.925-0.94,2.561-1.903
		c-0.139-0.624-0.415-1.188-0.892-1.664c-0.524-0.522-0.896-1.128-0.855-1.911c1.16-1.239,1.319-1.399,2.771-1.014
		c0-0.319,0-0.634,0-0.984c-0.398-0.398-0.833-0.829-1.263-1.265c-0.149-0.151-0.364-0.291-0.415-0.474
		c-0.201-0.729-0.802-1.125-1.288-1.669c0-0.321,0-0.675,0-0.998c0.333-0.329,0.662-0.653,1.067-1.054
		c0.59-0.046,1.322-0.111,1.955,0.497c0.637-0.551,0.938-1.361,1.667-1.808c0.681-0.03,1.068,0.501,1.523,0.944
		c-0.046,0.353,0.211,0.621,0.304,0.973c0.199,0,0.405,0,0.729,0c0.281-0.297,0.642-0.674,1.198-0.851
		c0.367,0.231,0.764,0.48,1.239,0.78c0.336,0.476,0.237,1.11,0.192,1.708c-0.137,0.72-0.924,0.794-1.256,1.313
		c-0.345,0.538-0.596,1.154-1.015,1.621c-0.426,0.475-0.653,1.026-0.965,1.557c0.672,0.205,0.672,0.205,2.165-0.485
		c0.253,0.071,0.455,0.343,0.77,0.215c0.114,0.204,0.305,0.398,0.325,0.609c0.048,0.499,0.069,1.014-0.004,1.507
		c-0.048,0.315-0.187,0.667-0.485,0.871c-0.423,0.289-0.548,0.808-0.915,1.134c-0.165,0.147-0.059,0.336-0.103,0.529
		c0.126,0.103,0.244,0.277,0.394,0.31c0.554,0.121,0.883,0.53,1.252,0.892c0.334,0.328,0.676,0.649,0.989,0.996
		c0.242,0.268,0.567,0.453,0.877,0.479c0.875,0.075,1.576,0.551,2.34,0.884c0.798-0.319,1.317-0.842,1.3-1.789
		c0.504-0.833,1.411-1.089,2.245-1.397c0.704,0.144,1.229,0.523,1.422,1.306c0.009,0.388-0.501,0.77-0.094,1.26
		c0.553-0.165,0.765-0.645,0.942-1.118c0.352-0.935,0.543-1.934,1.094-2.785c0.289-0.447,0.105-1.019,0.472-1.429
		c0.596-0.48,1.32-0.264,1.915-0.312c0.455,0.205,0.816,0.413,1.078,0.806c-0.213,0.446,0.314,0.799,0.189,1.242
		c0.446,0.34,0.926,0.359,1.409,0.32c0.401,0.462,1.039,0.625,1.39,1.237c0,0.271,0,0.625,0,1.055
		c-0.201,0.153-0.456,0.347-0.627,0.478c0,0.294,0,0.438,0,0.625c0.718,0.461,1.04,1.215,1.284,2.044
		c-0.271,0.805-0.861,1.109-1.728,1.059c-0.824-0.048-1.652-0.01-2.374-0.01c-1.06-0.605-2.03-0.588-3.063-0.122
		c0.209,0.657,0.847,0.69,1.239,1.026c0.39,0.463,0.338,1.025,0.31,1.591c-0.124,0.109-0.257,0.229-0.219,0.436
		c-0.533,0.316-1.153,0.343-1.727,0.525c-0.51-0.462-1.26,0.052-1.645-0.38c-0.452-0.195-0.544,0.349-0.849,0.149
		c-0.076,0.186-0.115,0.315-0.181,0.43c-0.26,0.463,0.038,1.008-0.169,1.44c-0.221,0.458-0.093,0.808-0.018,1.262
		c0.156,0.938,0.124,1.917,0.004,2.876c-0.01,0.086-0.116,0.16-0.165,0.223c0.176,0.545,0.415,1.021,0.742,1.512
		c0.658,0.552,1.398,0.162,2.057-0.08c0.628-0.23,1.073,0.084,1.539,0.278c0.476,0.198,0.491,0.783,0.631,1.229
		c0.098,0.31-0.372,0.527-0.198,0.887c-0.183,0.174-0.364,0.347-0.565,0.536c-0.185,0-0.398,0-0.607,0
		c-0.147,0.152-0.362,0.248-0.359,0.488c0.054,0.064,0.102,0.163,0.138,0.158c0.239-0.027,0.492,0.098,0.722-0.079
		c0.278-0.216,0.578-0.176,0.874-0.026c0.365,0.185,0.716,0.153,1.096,0.005c1.002-0.392,2.03-0.661,3.167-0.511
		c1.025,0.647,0.881,0.692,1.578,2.096c-0.06,0.257-0.348,0.454-0.217,0.767c-0.485,0.464-1.252,0.229-1.78,0.755
		c0.443,0.521,1.104,0.82,1.552,1.467c0.073,0.519,0.008,1.077-0.513,1.563c-0.919,0-1.881,0-2.888,0c0,0.634,0,1.235,0,1.819
		c-0.293,0.274-0.555,0.519-0.844,0.789c-0.719,0.088-1.307-0.351-1.953-0.719c-0.156-0.33-0.247-0.711-0.306-1.128
		c-0.052-0.366-0.167-0.768-0.42-1.118c-0.287-0.397-0.502-0.849-0.657-1.345c-0.19-0.604-0.512-1.217-1.18-1.497
		c-0.076,0.076-0.152,0.152-0.267,0.268c0,0.488,0,1.02,0,1.475c-0.302,0.317-0.549,0.578-0.781,0.822c-0.312,0-0.598,0-0.767,0
		c-1.179-0.482-1.864-1.24-1.943-2.451c-0.232-0.365-0.598-0.566-0.984-0.745c-0.449,0.21-0.863,0.533-1.425,0.628
		c-0.896,0.149-1.523,0.839-2.273,1.286C42.587,49.203,42.301,49.694,41.738,49.606z M41.616,38.697
		c0-0.479-0.031-0.981,0.007-1.479c0.069-0.896-0.302-1.592-0.893-2.217c-0.693-0.732-1.561-1.186-2.462-1.597
		c-1.132-0.517-1.421-0.624-2.305-0.191c-0.857,0.419-1.809,0.75-2.289,1.739c-0.31,0.64-0.462,1.321-0.724,1.962
		c-0.289,0.705-0.195,1.321,0.021,1.986c0.228,0.697,0.546,1.335,1.139,1.783c0.233,0.176,0.61,0.195,0.79,0.401
		c0.391,0.447,0.979,0.437,1.43,0.735c0.522,0.347,1.144,0.21,1.72,0.229c0.086-0.087,0.148-0.188,0.24-0.234
		c0.827-0.423,1.313-1.309,2.236-1.619c0.244-0.082,0.443-0.365,0.606-0.597C41.324,39.33,41.334,38.957,41.616,38.697z
		 M34.09,30.69c-0.227-1.049-0.705-1.872-1.423-2.427c-0.426-0.134-0.579,0.082-0.749,0.262c-0.21,1.082,0.644,1.796,0.904,2.713
		c0.241,0,0.453,0,0.634,0C33.678,31.047,33.888,30.865,34.09,30.69z M44.661,38.115c1.042,0.47,1.931,0.293,2.775-0.217
		c0.005-0.396,0.125-0.773-0.325-1.017c-0.692,0-1.435,0-2.173,0c-0.159,0.238-0.469,0.343-0.521,0.625
		C44.464,37.737,44.725,37.838,44.661,38.115z M32.761,46.583c0.657-0.316,1.121-0.838,1.51-1.478
		c-0.033-0.266,0.075-0.588-0.093-0.931c-0.273-0.141-0.566-0.291-0.825-0.424c-0.417,0.315-0.758,0.688-0.778,1.114
		c-0.025,0.515-0.304,0.884-0.468,1.307C32.239,46.464,32.432,46.635,32.761,46.583z M29.565,36.862
		c-0.798,0.032-1.739-0.156-2.461,0.609c0.564,0.979,1.438,0.942,2.32,0.892c0.17-0.169,0.346-0.346,0.527-0.526
		C29.931,37.502,30.069,37.116,29.565,36.862z M41.838,44.244c-0.429,0-0.743,0-1.002,0c-0.4,0.296-0.31,0.645-0.274,0.904
		c0.407,0.535,0.68,1.077,1.184,1.434c0.227-0.032,0.482,0.083,0.708-0.075c-0.063-0.25,0.21-0.346,0.247-0.576
		C42.422,45.386,42.134,44.822,41.838,44.244z M41.959,28.459c-0.929,0.468-1.566,1.117-1.418,2.214
		c0.419,0.689,0.844,0.216,1.262,0.062c0.095-0.329,0.202-0.649,0.423-0.858c0-0.419,0-0.807,0-1.151
		C42.112,28.612,42.036,28.536,41.959,28.459z"/>
	<path style="fill-rule:evenodd;clip-rule:evenodd;fill:none;" d="M41.616,38.697c-0.281,0.26-0.292,0.633-0.482,0.902
		c-0.163,0.231-0.362,0.515-0.606,0.597c-0.923,0.311-1.409,1.196-2.236,1.619c-0.092,0.046-0.154,0.147-0.24,0.234
		c-0.576-0.02-1.198,0.117-1.72-0.229c-0.451-0.299-1.039-0.288-1.43-0.735c-0.18-0.206-0.557-0.226-0.79-0.401
		c-0.593-0.448-0.912-1.086-1.139-1.783c-0.216-0.665-0.31-1.281-0.021-1.986c0.262-0.641,0.415-1.322,0.724-1.962
		c0.48-0.989,1.432-1.319,2.289-1.739c0.884-0.433,1.173-0.325,2.305,0.191c0.901,0.411,1.769,0.864,2.462,1.597
		c0.591,0.625,0.962,1.321,0.893,2.217C41.584,37.716,41.616,38.219,41.616,38.697z"/>
	<path style="fill-rule:evenodd;clip-rule:evenodd;fill:none;" d="M34.09,30.69c-0.203,0.175-0.413,0.356-0.635,0.548
		c-0.181,0-0.393,0-0.634,0c-0.26-0.917-1.114-1.632-0.904-2.713c0.17-0.18,0.323-0.396,0.749-0.262
		C33.385,28.819,33.864,29.641,34.09,30.69z"/>
	<path style="fill-rule:evenodd;clip-rule:evenodd;fill:none;" d="M44.661,38.115c0.064-0.277-0.196-0.378-0.243-0.608
		c0.052-0.282,0.361-0.388,0.521-0.625c0.738,0,1.48,0,2.173,0c0.45,0.244,0.33,0.622,0.325,1.017
		C46.591,38.408,45.703,38.585,44.661,38.115z"/>
	<path style="fill-rule:evenodd;clip-rule:evenodd;fill:none;" d="M32.761,46.583c-0.329,0.052-0.522-0.119-0.654-0.411
		c0.164-0.423,0.443-0.792,0.468-1.307c0.02-0.426,0.361-0.799,0.778-1.114c0.259,0.133,0.552,0.283,0.825,0.424
		c0.168,0.343,0.06,0.665,0.093,0.931C33.881,45.745,33.418,46.267,32.761,46.583z"/>
	<path style="fill-rule:evenodd;clip-rule:evenodd;fill:none;" d="M29.565,36.862c0.504,0.254,0.366,0.64,0.386,0.975
		c-0.181,0.181-0.357,0.357-0.527,0.526c-0.882,0.051-1.756,0.088-2.32-0.892C27.826,36.706,28.767,36.895,29.565,36.862z"/>
	<path style="fill-rule:evenodd;clip-rule:evenodd;fill:none;" d="M41.838,44.244c0.296,0.578,0.584,1.142,0.862,1.687
		c-0.037,0.23-0.311,0.326-0.247,0.576c-0.226,0.158-0.481,0.043-0.708,0.075c-0.504-0.356-0.776-0.898-1.184-1.434
		c-0.035-0.26-0.126-0.608,0.274-0.904C41.095,44.244,41.41,44.244,41.838,44.244z"/>
	<path style="fill-rule:evenodd;clip-rule:evenodd;fill:none;" d="M41.959,28.459c0.076,0.077,0.152,0.153,0.267,0.267
		c0,0.344,0,0.731,0,1.151c-0.221,0.209-0.328,0.529-0.423,0.858c-0.418,0.154-0.843,0.627-1.262-0.062
		C40.393,29.576,41.031,28.927,41.959,28.459z"/>
</g>
</svg>
