<svg xmlns="http://www.w3.org/2000/svg" xml:space="preserve" width="72px" height="72px" viewBox="0 0 72 72">
    <g fill="currentColor">
        <path d="M38.713 50.062c.41.384.613.777 1.076.61.17.277.069.531.098.772l-1.146 1.145c-.607.114-1.168.335-1.626.765a5.2 5.2 0 0 1-1.167.823c-.648.346-1.334.624-1.96 1.01-.604.371-1.16.848-1.802 1.123-1.17.503-2.175 1.315-3.388 1.727-.093.031-.164.128-.266.211-.333 0-.698-.043-1.048.01-.599.092-1.152-.175-1.515-.49-.566-.491-1.117-1.056-1.535-1.7-.315-.487-.626-.97-.986-1.43-.443-.567-1.048-.989-1.453-1.545-.393-.539-.903-1.024-1.142-1.675-.909-.739-1.359-1.85-2.184-2.675a9.4 9.4 0 0 1-1.354-1.684c-.228-.368-.356-.939-.952-.996-.303-.767-1.11-1.134-1.462-1.877-.271-.574-.639-1.105-.988-1.641a.63.63 0 0 0-.416-.293c-.542-.117-.85-.58-1.268-.962.115-.584-.213-1.238.232-1.785-.176-.722-.753-1.206-.944-1.912a4 4 0 0 1-.137-.8c-.024-.343-.13-.677-.177-.996-.072-.497-.535-.802-.486-1.327.042-.444.055-.894-.188-1.323-.078-.138-.056-.39.075-.602.41-.665.607-1.469 1.337-1.936.569.07 1.099-.389 1.688-.206.243-.304.718-.237.808-.668.683 0 1.331-.04 1.969.016.388.034.685-.146.958-.305.942-.547.93-.609 1.815-.563.715.038 1.33-.244 1.983-.435a15.2 15.2 0 0 0 3.513-1.504c.737.02 1.177-.186 2.394-.656.684-.264 1.398-.452 2.104-.653.639-.182 1.288-.313 1.929-.194.66-.727 1.531-.832 2.374-.867.672-.028 1.295-.154 1.866-.465.529-.288 1.12-.294 1.667-.39 1.387-.241 2.547-.861 3.713-1.76 1.366 0 2.839.018 4.311-.012.366-.007.717.074.979.245.847.55 1.923.695 2.628 1.491.031.036.166-.026.206.01.38.342.918.189 1.33.446.395.246.804.467 1.244.644.649.261 1.308.176 1.903.201 1.217.887 2.514 1.404 3.941 1.563.443.1.71.432 1.002.729.329.334.702.532 1.19.521.622-.013 1.135.412 1.745.483.105.012.197.18.362.163.142-.016.287-.003.456-.003.881.775 1.043 1.806.971 2.921-.488.454-.439 1.057-.42 1.721-.345.315-.68.696-.876 1.188-.27.675-.119 1.428-.426 2.091.434.435-.035 1.123.457 1.52-.163.331-.331.622-.453.931-.265.672-.713 1.188-1.373 1.449-.319.126-.631.308-.717.561-.152.447-.556.628-.774.99h-1.794c-.249-.151-.28-.412-.405-.612-.172.001-.349-.068-.51.045-.249.409.296.691.152 1.127-.58.218-.916.779-1.347 1.146-1.219.176-2.019.932-2.799 1.721-.597.11-1.223.131-1.693.607-.141.144-.407.275-.52.278-.985.02-1.249.798-1.699 1.481-.312.141-.663.392-1.142.238l-.536-.535c.149-.321.253-.688.565-.929.324-.25.815-.117 1.104-.461.274-.327.646-.483 1.028-.646.187-.078.331-.23.565-.208.13.013.273.056.405-.06.694-.608 1.556-.922 2.38-1.289a1.97 1.97 0 0 0 1.082-1.159c.07-.191.317-.307.309-.577-.236-.477-.485-.947-.707-1.431-.217-.474-.777-.704-.846-1.221.294-1.192.768-2.297 1.139-3.525-1.191-.094-2.103.309-2.897.981-.365.309-.724.636-.946 1.11-.182.389-.714.356-1.087.45a6 6 0 0 0-.767.245c-.617.251-1.147.737-1.874.688-.253.303-.713.137-.99.518-.304.417-.879.313-1.344.306-.639.602-1.514.573-2.25.94v.71c.955.415 1.03.479 1.591 1.366.185.293.185.293-.187.873h-1.327c-.542.622-1.247 1.078-1.631 1.942.226 1.382-.273 2.76-.717 4.131m-3.582.945-1.048-1.048c.016-.8-.564-1.206-1.033-1.669-.699.075-1.239.499-1.923.471-.658-.026-1.268-.443-2.017-.175-.726.447-.818.544-1.268 1.32-.261 1.678.291 3.12.942 4.661l.688.725c1.334-.517 2.417-1.394 3.387-2.441.876-.035 1.892.248 2.271-.965zM18.922 35.94l.857.514c.449-.302.879.25 1.421.191.546.524 1.033 1.134 1.884 1.499.083-.006.332.078.588-.062l.019-.374c-.135-.395-.656-.482-.652-.944-.423-.127-.621-.604-.978-.736-.744-.277-.859-.893-1.047-1.533-.759-.583-1.831-.703-2.427-1.569-.337.138-.674-.074-.946.157-.104.819.698.862 1.073 1.292-.128.557.37 1.014.208 1.565m18.253-7.254c-.81.106-1.292.538-1.726 1.085h-1.753l-.266.267v.963h.982c.317-.319.634-.691 1.124-.833.25 0 .502-.017.75.003.817.065 1.387-.248 1.653-1.044.018-.054-.026-.128-.044-.201-.229-.126-.581.058-.72-.24m1.683 15.127c-.157-.261-.259-.446-.508-.47-.224.104-.435.225-.405.545.189.094.386.19.579.287z"/>
        <path d="M44.299 47.676h.665c.296.187.379.438.325.714l-2.202 2.22c-.922.398-1.8.289-2.668.286l-.349-.349c.438-.724.585-1.581.961-2.418.259-.014.522-.002.842.08.847.219 1.724.27 2.426-.533"/>
    </g>
</svg>
