<svg xmlns="http://www.w3.org/2000/svg" xml:space="preserve" width="72px" height="72px" viewBox="0 0 72 72">
    <path fill="currentColor" d="M41.738 49.606c-.475.458-1.002.875-1.211 1.568.202.91.802 1.569 1.482 2.155.057 1.247.057 1.247-.398 2.018-.206.218-.637-.05-.798.312-.652-.138-1.161-.524-1.694-.847l-.302.291c-.146.282.136.451.228.555.619.701 1.086 1.519 1.693 2.216.549.63 1.088 1.252 1.517 2.059.054.484.02 1.013-.425 1.459-.46.462-1.002.59-1.606.494-.481-.08-.683-.704-1.297-.608-.345.452-.276 1.193-.909 1.498h-.846c-.81-.137-.733-1.019-1.233-1.453-.372.035-.629.432-1.063.39-.428-.04-.863-.009-1.503-.009-.057-.081-.208-.28-.343-.488-.385-.592-.409-1.177.086-1.677.569-.574.821-1.37 1.436-1.898.076-.064.152-.125.159-.259.033-.7.578-1.133.924-1.663.156-.239.188-.429.07-.713-.411.383-.97.398-1.365.627-.73-.082-1.178-.589-1.751-.947-.078-.33-.475-.654-.075-1.273.278-.296.732-.722 1.081-1.268.619-.971.632-1.358-.131-2.157-.124-.129-.25-.257-.366-.376-.853-.135-1.272-.398-2.336-1.462-.991-.191-1.874-.668-2.674-1.118l-.917.907c-.341.893-.842 1.796-1.888 2.316h-.625l-.985-1.001v-1.416c-.623.138-.813.671-1.18.903-.223.679-.416 1.317-.645 1.944-.127.347-.321.65-.347 1.053-.018.262-.174.574-.408.795-.314.296-.613.608-.943.938h-.745a2 2 0 0 1-1.112-.753v-1.27l-.305-.306h-1.377c-.845-.374-1.35-.858-1.563-1.599.281-.768.281-.768 1.029-1.288-.008-.651-.002-.673-.496-.803-.49-.128-.867-.396-1.183-.783.168-.348-.264-.554-.195-.989l.293-.597c.513-.513 1.228-.587 2.034-.223.43-.237.888-.394 1.349-.08.176.119.435.125.496.061.367-.389.682-.129 1.025.011.664.271 1.357.259 2.049.195l.29-.305c-.229-.295-.582-.362-.87-.537-.295-.181-.544-.358-.652-.755-.298-1.1-.323-1.111.507-2.004.732-.157 1.439-.037 2.101.288.385.189.772-.001 1.107.123.406-.258.625-.607.836-1.138 0-1.638-.006-3.435.004-5.231.003-.524-.391-.985-.242-1.386l-.561-.766c-.928.394-1.822.641-2.499.521-.673-.194-.984-.462-1.229-.797v-1.292c.123-.59.732-.685 1.068-1.059v-.441l-.634-.314c-1.731.271-3.303.971-5.033.854-.635-.282-1.146-.717-1.458-1.538-.044-.411-.021-.957.535-1.463.407-.077 1.02.12 1.44-.429-.224-.589-1.035-.574-1.3-1.35v-.648c.287-.715.731-1.178 1.58-1.495h1.176v-1.4l.74-.499c.535-.051 1.198-.666 2.03-.413.051.051.133.094.148.154.295 1.146 1.023 2.093 1.479 3.167.081.191.095.495.356.608-.1.468.288.846.238 1.311.239.187.368.524.756.568.202-.297.083-.623.104-.927.02-.287.004-.576.004-.914.286-.249.512-.591.627-.969h1.652c.328.315.583.701.781 1.216.294.768.385 1.685 1.185 2.223.223.027.417-.059.644-.204.502-.323 1.022-.629 1.609-.803.182-.054.391-.097.53-.29.25-.345.671-.448 1.014-.664.892-.56 1.925-.94 2.561-1.903-.139-.624-.415-1.188-.892-1.664-.524-.522-.896-1.128-.855-1.911 1.16-1.239 1.319-1.399 2.771-1.014v-.984c-.398-.398-.833-.829-1.263-1.265-.149-.151-.364-.291-.415-.474-.201-.729-.802-1.125-1.288-1.669v-.998l1.067-1.054c.59-.046 1.322-.111 1.955.497.637-.551.938-1.361 1.667-1.808.681-.03 1.068.501 1.523.944-.046.353.211.621.304.973h.729c.281-.297.642-.674 1.198-.851l1.239.78c.336.476.237 1.11.192 1.708-.137.72-.924.794-1.256 1.313-.345.538-.596 1.154-1.015 1.621-.426.475-.653 1.026-.965 1.557.672.205.672.205 2.165-.485.253.071.455.343.77.215.114.204.305.398.325.609.048.499.069 1.014-.004 1.507-.048.315-.187.667-.485.871-.423.289-.548.808-.915 1.134-.165.147-.059.336-.103.529.126.103.244.277.394.31.554.121.883.53 1.252.892.334.328.676.649.989.996.242.268.567.453.877.479.875.075 1.576.551 2.34.884.798-.319 1.317-.842 1.3-1.789.504-.833 1.411-1.089 2.245-1.397.704.144 1.229.523 1.422 1.306.009.388-.501.77-.094 1.26.553-.165.765-.645.942-1.118.352-.935.543-1.934 1.094-2.785.289-.447.105-1.019.472-1.429.596-.48 1.32-.264 1.915-.312.455.205.816.413 1.078.806-.213.446.314.799.189 1.242.446.34.926.359 1.409.32.401.462 1.039.625 1.39 1.237v1.055l-.627.478v.625c.718.461 1.04 1.215 1.284 2.044-.271.805-.861 1.109-1.728 1.059-.824-.048-1.652-.01-2.374-.01-1.06-.605-2.03-.588-3.063-.122.209.657.847.69 1.239 1.026.39.463.338 1.025.31 1.591-.124.109-.257.229-.219.436-.533.316-1.153.343-1.727.525-.51-.462-1.26.052-1.645-.38-.452-.195-.544.349-.849.149-.076.186-.115.315-.181.43-.26.463.038 1.008-.169 1.44-.221.458-.093.808-.018 1.262.156.938.124 1.917.004 2.876-.01.086-.116.16-.165.223.176.545.415 1.021.742 1.512.658.552 1.398.162 2.057-.08.628-.23 1.073.084 1.539.278.476.198.491.783.631 1.229.098.31-.372.527-.198.887-.183.174-.364.347-.565.536h-.607c-.147.152-.362.248-.359.488.054.064.102.163.138.158.239-.027.492.098.722-.079.278-.216.578-.176.874-.026.365.185.716.153 1.096.005 1.002-.392 2.03-.661 3.167-.511 1.025.647.881.692 1.578 2.096-.06.257-.348.454-.217.767-.485.464-1.252.229-1.78.755.443.521 1.104.82 1.552 1.467.073.519.008 1.077-.513 1.563h-2.888V52.7l-.844.789c-.719.088-1.307-.351-1.953-.719-.156-.33-.247-.711-.306-1.128-.052-.366-.167-.768-.42-1.118a4.6 4.6 0 0 1-.657-1.345c-.19-.604-.512-1.217-1.18-1.497l-.267.268v1.475l-.781.822h-.767c-1.179-.482-1.864-1.24-1.943-2.451-.232-.365-.598-.566-.984-.745-.449.21-.863.533-1.425.628-.896.149-1.523.839-2.273 1.286-.39.238-.676.729-1.239.641m-.122-10.909c0-.479-.031-.981.007-1.479.069-.896-.302-1.592-.893-2.217-.693-.732-1.561-1.186-2.462-1.597-1.132-.517-1.421-.624-2.305-.191-.857.419-1.809.75-2.289 1.739-.31.64-.462 1.321-.724 1.962-.289.705-.195 1.321.021 1.986.228.697.546 1.335 1.139 1.783.233.176.61.195.79.401.391.447.979.437 1.43.735.522.347 1.144.21 1.72.229.086-.087.148-.188.24-.234.827-.423 1.313-1.309 2.236-1.619.244-.082.443-.365.606-.597.192-.268.202-.641.484-.901M34.09 30.69c-.227-1.049-.705-1.872-1.423-2.427-.426-.134-.579.082-.749.262-.21 1.082.644 1.796.904 2.713h.634zm10.571 7.425c1.042.47 1.931.293 2.775-.217.005-.396.125-.773-.325-1.017h-2.173c-.159.238-.469.343-.521.625.047.231.308.332.244.609m-11.9 8.468c.657-.316 1.121-.838 1.51-1.478-.033-.266.075-.588-.093-.931l-.825-.424c-.417.315-.758.688-.778 1.114-.025.515-.304.884-.468 1.307.132.293.325.464.654.412m-3.196-9.721c-.798.032-1.739-.156-2.461.609.564.979 1.438.942 2.32.892l.527-.526c-.02-.335.118-.721-.386-.975m12.273 7.382h-1.002c-.4.296-.31.645-.274.904.407.535.68 1.077 1.184 1.434.227-.032.482.083.708-.075-.063-.25.21-.346.247-.576zm.121-15.785c-.929.468-1.566 1.117-1.418 2.214.419.689.844.216 1.262.062.095-.329.202-.649.423-.858v-1.151z"/>
</svg>
