<?xml version="1.0" encoding="iso-8859-1"?>
<!-- Generator: Adobe Illustrator 16.0.0, SVG Export Plug-In . SVG Version: 6.00 Build 0)  -->
<!DOCTYPE svg PUBLIC "-//W3C//DTD SVG 1.1//EN" "http://www.w3.org/Graphics/SVG/1.1/DTD/svg11.dtd">
<svg version="1.1" id="Layer_1" xmlns="http://www.w3.org/2000/svg" xmlns:xlink="http://www.w3.org/1999/xlink" x="0px" y="0px"
	 width="72.36px" height="72.18px" viewBox="0 0 72.36 72.18" style="enable-background:new 0 0 72.36 72.18;" xml:space="preserve"
	>
<g>
	<path style="fill-rule:evenodd;clip-rule:evenodd;fill:none;" d="M79.416,79.631c-28.8,0-57.6,0-86.399,0
		c0-28.871,0-57.743,0-86.615c28.8,0,57.6,0,86.399,0C79.416,21.888,79.416,50.76,79.416,79.631z M27.479,65.808
		c0.335,0,0.627-0.029,0.911,0.006c0.672,0.083,1.297,0.198,1.908,0.618c1.501,1.03,2.386,1.161,3.747,1.103
		c0.572-0.024,0.855-0.333,1.107-0.836c0.315-0.631,0.234-1.175-0.104-1.734c-0.283,0.097-0.371-0.312-0.659-0.242
		c-0.299,0.071-0.566-0.009-0.766-0.342c0-0.126-0.069-0.347,0.011-0.472c0.577-0.906,0.598-2.115,1.688-2.763
		c0.598-0.354,1.065-0.712,1.677-0.267c0.496,0.734,0.194,1.539,0.337,2.321c0.573,0.21,0.94,0.694,1.249,0.985
		c0.867,0.418,1.647,0.297,2.414,0.329c0.914,0.039,1.78-0.408,2.618-0.217c1.071-0.651,1.951-1.392,2.732-2.27
		c0.006-0.153,0.066-0.329-0.057-0.516c-0.225,0-0.467,0-0.673,0c-0.188,0.147-0.336,0.358-0.519,0.393
		c-0.768,0.144-1.489,0.534-2.303,0.442c-0.176-0.176-0.354-0.354-0.511-0.511c-0.126-0.506,0.078-0.907,0.356-1.264
		c0.754-0.964,1.417-1.991,1.956-3.081c0.237-0.478,0.584-0.839,0.963-1.086c0.352-0.229,0.611-0.557,1.034-0.794
		c0.152,0.144,0.351,0.271,0.557,0.313c0.142,0.283,0.359,0.542,0.39,0.821c0.047,0.43,0.537,0.773,0.264,1.241
		c-0.429,0.735-0.382,1.53-0.348,2.326c0.104,0.104,0.206,0.205,0.308,0.308c0.168-0.033,0.356,0.074,0.574-0.133
		c0.028-0.04,0.113-0.149,0.184-0.268c0.181-0.305,0.28-0.63,0.217-0.989c0.62-0.402,0.584-1.129,0.82-1.712
		c0.558-1.37,0.172-2.669-0.407-3.936c-0.811-0.639-1.299-1.575-2.021-2.234c-0.408,0-0.764,0-1.103,0
		c-0.695,0.756-1.597,0.61-2.46,0.641c-0.33,0.012-0.534-0.111-0.684-0.452c0.543-0.993,0.778-2.148,1.298-3.2
		c0.203-0.41,0.281-0.906,0.251-1.412c-0.051-0.861-0.014-1.728-0.014-2.594c0.276-0.248,0.447-0.678,0.977-0.548
		c0.661,0.581,0.998,1.424,1.529,2.161c0.739,0.393,1.565,0.13,2.381,0.218c0.371-0.69,1.296-0.826,1.525-1.524
		c0.185-1.119,0.418-2.146,0.224-3.236c-0.681,0-1.354,0-1.972,0c-0.328-0.224-0.49-0.559-0.529-0.806
		c-0.081-0.515-0.333-0.952-0.463-1.437c-0.081-0.3,0.11-0.522,0.205-0.778c0.059-0.158,0.086-0.439-0.003-0.521
		c-0.3-0.27-0.188-0.592-0.199-0.897c-0.014-0.431-0.003-0.862-0.003-1.289c0.106-0.107,0.208-0.208,0.317-0.317
		c0.513-0.013,1.118-0.15,1.495,0.231c0.405,0.409,0.905,0.401,1.3,0.635c0.302-0.511,0.484-0.974,0.252-1.511
		c-0.213-0.495-0.283-1.063-0.768-1.41c-0.635-0.453-1.203-1.008-1.947-1.295c-0.311-0.121-0.628-0.221-0.941-0.329
		c-0.115,0.073-0.226,0.196-0.345,0.207c-0.316,0.027-0.617-0.015-0.859,0.298c-0.191,0.246-0.529,0.272-0.708,0.662
		c-0.223,0.486-0.767,0.826-1.137,1.193c-0.266,0-0.477,0-0.729,0c-0.451-0.74-0.785-1.563-1.329-2.255c0-0.504,0-1.007,0-1.433
		c0.376-0.813,0.95-1.34,1.711-1.706c0.691,0.115,1.324-0.145,1.961-0.414c0.213-0.089,0.412-0.212,0.417-0.412
		c0.011-0.42,0.316-0.753,0.248-1.208c-0.077-0.52-0.018-1.06-0.018-1.497c0.327-0.436,0.704-0.438,1.014-0.281
		c0.39,0.197,0.827,0.228,1.202,0.503c0.661,0.486,1.45,0.563,2.268,0.529c0.36-0.015,0.619-0.344,1.072-0.208
		c0.609-0.943,1.375-1.828,1.354-3.08c-0.003-0.185,0.033-0.327,0.167-0.476c0.116-0.128,0.084-0.336,0.015-0.499
		c-0.348-0.812-0.593-1.689-1.402-2.232c-0.114,0-0.258,0-0.403,0c-0.106,0.209-0.301,0.417-0.303,0.625
		c-0.007,1.077-0.71,1.568-1.566,1.998c-0.563-0.479-1.291-0.71-1.7-1.397c-0.401-0.676-1.291-0.856-1.72-1.633
		c-0.112-0.723,0.452-1.477,0.158-2.356c-0.121-0.121-0.299-0.298-0.428-0.428c-0.663-0.213-1.313-0.268-1.822-0.729
		c-0.194-0.175-0.459-0.376-0.694-0.38c-0.563-0.01-1.057-0.314-1.64-0.256c-0.591,0.058-1.116-0.236-1.54-0.609
		c-0.381,0-0.735,0-1.216,0c0.332,0.367-0.231,0.37-0.139,0.735c0.319,0.007,0.075,0.399,0.186,0.467
		c0.736,0.234,1.223,0.727,1.733,0.754c0.341,0.322,0.599,0.565,0.885,0.835c-0.104,0.921,0.017,1.859,0.444,2.754
		c-0.169,0.028-0.253,0.071-0.301,0.046c-0.357-0.186-0.691-0.375-1.114-0.456c-0.439-0.085-0.864-0.224-1.319-0.186
		c-0.256,0.021-0.466-0.15-0.672-0.187c-0.47-0.083-0.952-0.485-1.404-0.226c-0.483,0.277-0.957,0.178-1.435,0.188
		c-1.229,0.024-1.572,0.332-2.017,1.491c-0.196,0.511-0.042,1.171-0.66,1.582c-0.358-0.317-0.72-0.699-1.287-0.695
		c-0.562,0.003-1.04,0.268-1.549,0.438c-0.354-0.258-0.82-0.38-1.015-0.833c0.024-0.432-0.086-0.879,0.089-1.179
		c-0.084-1.299-1.149-1.827-1.785-2.628c0.279-0.413,0.675-0.611,1.161-0.78c0.359,0.139,0.808,0.23,1.155,0.469
		c0.368,0.253,0.792,0.123,1.165,0.334c0.407,0.229,0.905,0.028,1.312,0.085c0.472-0.301,0.901-0.575,1.376-0.878
		c0.45,0.142,0.901-0.102,1.361-0.219c0.524-0.135,0.643-0.666,0.835-1.011c-0.208-1.004-0.726-1.784-1.583-2.172
		c-0.894-0.404-1.858-0.427-2.734,0.281c0,0.373,0,0.759,0,1.145c-0.04-0.028-0.081-0.057-0.121-0.085
		c-0.133,0.211-0.267,0.423-0.334,0.53c-0.782,0.072-1.406,0.059-1.875-0.496c-0.079-0.177,0.085-0.428-0.121-0.557
		c-0.656-0.548-1.385-0.638-1.993-0.133c-0.665,0.553-1.38,0.999-2.185,1.431c-0.507,0-1.085,0.028-1.658-0.008
		c-0.563-0.036-1.018,0.142-1.4,0.54c-0.035,0.741-0.035,0.741-0.563,1.436c-0.213,0-0.454,0-0.699,0
		c-0.181,0.284-0.346,0.543-0.527,0.827c-0.604,0-1.206,0-1.776,0c-0.425,0.492-1.064,0.653-1.429,1.294
		c0.252,0.645-0.248,1.323-0.196,2.081c-0.608,0.415-0.783,1.238-1.465,1.606c-0.623-0.028-1.291,0.152-1.845-0.229
		c-0.331-0.228-0.628-0.23-0.944-0.163c-0.256,0.256-0.485,0.485-0.715,0.714c0,0.36,0,0.719,0,1.002
		c0.29,0.567,0.549,1.074,0.856,1.675c0.087,0.509-0.081,1.015-0.487,1.518c-0.481,0.595-0.742,1.309-0.614,1.834
		c0.283,0.41,0.425,0.617,0.618,0.895c0.404-0.509,1.023-0.19,1.378-0.554c0.229,0.116,0.407,0.206,0.583,0.295
		c0.217,0.786-0.125,1.492-0.415,2.168c-0.17,0.396-0.376,0.782-0.495,1.198c-0.184,0.646-0.454,1.247-0.73,1.859
		c-0.345,0.767-0.432,1.637-0.063,2.507c0.32,0.753,0.466,1.555,0.487,2.404c0.015,0.604,0.254,1.256,0.766,1.722
		c0.372,0.339,0.718,0.706,1.071,1.066c0.801,0.815,1.75,1.4,2.761,1.932c0.627,0.329,1.333,0.496,1.902,0.868
		c0.49,0.321,0.998,0.562,1.523,0.772c0.283,0.113,0.55,0.2,0.821,0.375c0.601,0.388,1.314,0.737,2.019,0.499
		c0.352-0.119,0.671-0.142,1.008-0.161c0.464-0.025,0.93-0.006,1.417-0.006c0.501-0.689,0.78-1.435,0.669-2.262
		c-0.167-0.951-1.082-1.032-1.688-1.363c-0.599-0.327-1.261-0.596-1.882-0.915c-0.634-0.326-0.758-0.669-1.161-1.36
		c-0.575-0.987-0.851-2.109-1.515-3.152c0.24-1.545-0.294-3.147-0.204-4.784c0.029-0.523,0.051-1.041,0.235-1.527
		c0.397-1.05,0.762-2.128,1.697-2.859c0.213-0.167,0.626-0.186,0.649-0.462c0.036-0.443,0.476-0.325,0.634-0.588
		c0.144-0.239,0.382-0.428,0.602-0.614c0.181-0.153,0.299-0.353,0.575-0.437c0.462-0.142,0.828-0.486,1.093-0.809
		c0.969-0.152,1.906,0.183,2.788-0.245c0.079-0.039,0.254-0.023,0.298,0.034c0.225,0.29,0.529,0.168,0.797,0.169
		c0.694,0.004,1.345,0.062,2,0.398c0.339,0.174,0.793,0.199,1.082,0.5c0.44,0.46,1.031,0.635,1.549,0.9
		c0.478,1.102,1.147,2.07,1.777,3.062c0.072,0.114,0.225,0.161,0.226,0.34c0.005,0.664,0.336,1.215,0.594,1.805
		c0.306,0.7,0.455,1.504,0.181,2.23c-0.218,0.576-0.034,1.123-0.131,1.672c0.389,0.304,0.135,0.735,0.222,1.097
		c0.088,0.363,0.211,0.705,0.228,1.099c0.044,1.021-0.237,2.004-0.498,2.939c-0.29,1.037-0.525,2.157-1.25,3.037
		c-0.261,0.317-0.511,0.64-0.642,1.031c-0.289,0.865-0.815,1.606-1.223,2.409c-0.231,0.453-0.544,0.767-0.96,1.041
		c-0.458,0.302-0.961,0.559-1.316,1.002c-0.225,0.281-0.556,0.401-0.875,0.489c-0.681,0.188-1.259,0.513-1.733,1.036
		c-0.329,0.363-0.718,0.589-1.213,0.727c-0.47,0.132-0.967,0.328-1.314,0.727c-0.351,0.403-0.85,0.593-1.314,0.729
		c-0.396,0.117-0.765,0.285-1.099,0.479c-0.929,0.539-1.743,1.25-2.774,1.652c-0.404,0.157-0.859,0.39-1.218,0.707
		c-0.622-0.182-0.721,0.632-1.243,0.657c-0.082,0.004-0.152,0.182-0.238,0.192c-0.535,0.067-0.879,0.487-1.323,0.717
		c-0.389,0.202-0.647,0.614-0.734,1.083c0.072,0.114,0.174,0.22,0.208,0.344c0.044,0.162-0.052,0.361,0.132,0.494
		c0.919,0.579,1.966,0.972,2.701,1.823c0.532,0.046,0.7,0.611,1.187,0.787c0.892,0.323,1.691,0.85,2.406,1.495
		c0.245,0.222,0.558,0.34,0.907,0.416C25.812,65.145,26.719,65.181,27.479,65.808z M59.906,44.422
		c-0.264,0.264-0.517,0.517-0.799,0.8c0.079,0.497-0.166,1.082,0.271,1.651c-0.32,0.163-0.238,0.613-0.706,0.848
		c-0.437-0.363-1.084-0.406-1.617-0.238c-0.734,0.23-1.456,0.116-2.176,0.197c-0.852,0.899-1.83,1.676-2.49,2.808
		c0,0.522,0,1.091,0,1.488c-0.418,0.868-1.109,1.334-1.485,2.088c0.072,0.808-0.428,1.616-0.204,2.456
		c0.221,0.827,0.383,1.658,0.438,2.392c0.296,0.333,0.532,0.6,0.757,0.852c1.032,0.034,1.827-0.35,2.291-1.248
		c0.374-0.722,0.654-1.49,0.618-2.33c0.756-1.279,0.84-1.549,0.851-2.885c0.005-0.622,0.116-1.155,0.81-1.383
		c0.149-0.05,0.251-0.248,0.361-0.363c0.313,0,0.6,0,0.887,0c0.319,0.322,0.647,0.618,1.047,0.854
		c0.418,0.246,0.456,0.865,0.904,1.073c0.243,0,0.455,0,0.651,0c0.846-0.782,0.399-1.804,0.551-2.707
		c0.351-0.023,0.484-0.444,0.757-0.494c0.41-0.074,0.422-0.392,0.597-0.629c0.249-0.336,0.23-0.761,0.101-1.011
		c-0.619-1.183-0.188-2.529-0.716-3.777c-0.204-0.262-0.521-0.493-0.923-0.603C60.464,44.55,60.153,44.377,59.906,44.422z
		 M55.464,40.86c0.664,0.762,1.378,1.364,2.353,1.837c0.47,0.094,1.019-0.104,1.539-0.362c0.887-0.438,1.584-1.117,2.273-1.816
		c0.521-0.529,0.86-1.083,0.702-1.802c-0.231-0.311-0.288-0.694-0.617-0.851c-0.088-0.869,0.255-1.806-0.535-2.5
		c-0.243-0.005-0.489-0.07-0.712,0.037c-0.259,0.2-0.341,0.483-0.445,0.752c0.289,0.226,0.042,0.608,0.188,0.789
		c0.366,0.452,0.222,0.861-0.03,1.229c-0.273,0.402-0.642,0.739-0.92,1.05c-0.3,0-0.511,0-0.699,0
		c-0.802-0.714-0.433-1.656-0.549-2.5c-0.564-0.467-0.881-1.113-1.209-1.642c0.297-0.829,0.412-1.727,1.468-2.126
		c0.31,0,0.768,0,1.196,0c0.124-0.137,0.218-0.24,0.277-0.306c0.088-0.294-0.184-0.378-0.219-0.607
		c-0.111-0.725-0.554-1.224-1.237-1.518c-0.351-0.151-0.664-0.373-0.901-0.7c0.082-0.55-0.333-1.023-0.219-1.583
		c-0.365-0.188-0.661-0.341-0.975-0.503c-0.357,0.176-0.716,0.289-0.969,0.592c0,0.791,0,1.582,0,2.373
		c-0.249,0.199-0.228,0.579-0.528,0.756c-0.406,0.24-0.587,0.692-0.819,1.064c-0.26,0.415-0.539,0.931-0.343,1.44
		c0.251,0.65,0.256,1.333,0.373,1.998c0.079,0.449,0.083,0.891,0.453,1.224c0,0.249,0.018,0.501-0.004,0.75
		c-0.041,0.482,0.119,0.892,0.459,1.212C55.309,39.611,55.404,40.207,55.464,40.86z M52.116,39.016
		c0.024-0.313,0.447-0.525,0.287-0.838c-0.288-0.563-0.109-1.319-0.761-1.733c-0.139,0.006-0.316-0.068-0.488,0.056
		c0.017,0.304-0.136,0.569-0.261,0.836c0.438,0.488,0.016,1.255,0.572,1.679C51.684,39.016,51.896,39.016,52.116,39.016z"/>
	<path fill="currentColor" d="M27.479,65.808c-0.761-0.627-1.667-0.663-2.514-0.848
		c-0.35-0.076-0.662-0.194-0.907-0.416c-0.715-0.646-1.514-1.172-2.406-1.495c-0.486-0.176-0.655-0.741-1.187-0.787
		c-0.735-0.852-1.782-1.244-2.701-1.823c-0.185-0.133-0.088-0.332-0.132-0.494c-0.034-0.124-0.136-0.229-0.208-0.344
		c0.087-0.469,0.345-0.881,0.734-1.083c0.444-0.229,0.788-0.649,1.323-0.717c0.086-0.011,0.156-0.188,0.238-0.192
		c0.522-0.025,0.621-0.839,1.243-0.657c0.358-0.317,0.814-0.55,1.218-0.707c1.032-0.402,1.846-1.113,2.774-1.652
		c0.333-0.194,0.702-0.362,1.099-0.479c0.465-0.137,0.963-0.326,1.314-0.729c0.347-0.398,0.844-0.595,1.314-0.727
		c0.495-0.138,0.884-0.363,1.213-0.727c0.474-0.523,1.052-0.849,1.733-1.036c0.319-0.088,0.65-0.208,0.875-0.489
		c0.355-0.443,0.857-0.7,1.316-1.002c0.417-0.274,0.729-0.588,0.96-1.041c0.408-0.803,0.934-1.544,1.223-2.409
		c0.131-0.392,0.381-0.714,0.642-1.031c0.725-0.88,0.96-2,1.25-3.037c0.261-0.936,0.542-1.918,0.498-2.939
		c-0.017-0.394-0.14-0.735-0.228-1.099c-0.087-0.362,0.167-0.793-0.222-1.097c0.097-0.55-0.087-1.096,0.131-1.672
		c0.274-0.727,0.125-1.53-0.181-2.23c-0.258-0.59-0.589-1.141-0.594-1.805c-0.001-0.179-0.153-0.226-0.226-0.34
		c-0.63-0.992-1.3-1.96-1.777-3.062c-0.518-0.265-1.109-0.44-1.549-0.9c-0.288-0.301-0.742-0.326-1.082-0.5
		c-0.656-0.336-1.306-0.394-2-0.398c-0.268-0.001-0.572,0.121-0.797-0.169c-0.044-0.057-0.219-0.072-0.298-0.034
		c-0.882,0.428-1.819,0.093-2.788,0.245c-0.265,0.323-0.631,0.667-1.093,0.809c-0.276,0.084-0.394,0.284-0.575,0.437
		c-0.219,0.186-0.458,0.375-0.602,0.614c-0.158,0.263-0.598,0.146-0.634,0.588c-0.022,0.276-0.436,0.295-0.649,0.462
		c-0.935,0.731-1.299,1.809-1.697,2.859c-0.184,0.486-0.206,1.003-0.235,1.527c-0.09,1.636,0.443,3.238,0.204,4.784
		c0.664,1.043,0.94,2.165,1.515,3.152c0.402,0.691,0.526,1.034,1.161,1.36c0.621,0.319,1.283,0.588,1.882,0.915
		c0.606,0.331,1.521,0.412,1.688,1.363c0.111,0.827-0.168,1.572-0.669,2.262c-0.486,0-0.953-0.02-1.417,0.006
		c-0.336,0.02-0.656,0.042-1.008,0.161c-0.704,0.238-1.417-0.111-2.019-0.499c-0.271-0.175-0.538-0.262-0.821-0.375
		c-0.525-0.211-1.034-0.451-1.523-0.772c-0.569-0.372-1.275-0.539-1.902-0.868c-1.011-0.531-1.959-1.116-2.761-1.932
		c-0.353-0.36-0.699-0.728-1.071-1.066c-0.512-0.466-0.751-1.117-0.766-1.722c-0.021-0.85-0.167-1.651-0.487-2.404
		c-0.37-0.871-0.283-1.74,0.063-2.507c0.276-0.612,0.546-1.213,0.73-1.859c0.119-0.416,0.325-0.803,0.495-1.198
		c0.291-0.676,0.632-1.382,0.415-2.168c-0.175-0.089-0.354-0.179-0.583-0.295c-0.355,0.363-0.974,0.044-1.378,0.554
		c-0.192-0.278-0.335-0.485-0.618-0.895c-0.127-0.525,0.133-1.239,0.614-1.834c0.406-0.503,0.574-1.009,0.487-1.518
		c-0.307-0.601-0.566-1.107-0.856-1.675c0-0.283,0-0.642,0-1.002c0.229-0.229,0.458-0.458,0.715-0.714
		c0.316-0.067,0.613-0.065,0.944,0.163c0.555,0.381,1.222,0.201,1.845,0.229c0.682-0.368,0.857-1.191,1.465-1.606
		c-0.051-0.758,0.449-1.437,0.196-2.081c0.364-0.641,1.004-0.802,1.429-1.294c0.57,0,1.172,0,1.776,0
		c0.181-0.284,0.346-0.542,0.527-0.827c0.245,0,0.486,0,0.699,0c0.528-0.695,0.528-0.695,0.563-1.436
		c0.382-0.398,0.836-0.576,1.4-0.54c0.573,0.036,1.151,0.008,1.658,0.008c0.804-0.433,1.52-0.878,2.185-1.431
		c0.608-0.505,1.337-0.415,1.993,0.133c0.206,0.128,0.042,0.379,0.121,0.557c0.469,0.555,1.093,0.568,1.875,0.496
		c0.067-0.107,0.201-0.318,0.334-0.53c0.041,0.028,0.081,0.057,0.121,0.085c0-0.386,0-0.772,0-1.145
		c0.876-0.708,1.841-0.685,2.734-0.281c0.857,0.388,1.375,1.168,1.583,2.172c-0.192,0.345-0.311,0.876-0.835,1.011
		c-0.46,0.118-0.911,0.361-1.361,0.219c-0.475,0.303-0.904,0.577-1.376,0.878c-0.406-0.057-0.905,0.145-1.312-0.085
		c-0.374-0.211-0.797-0.081-1.165-0.334c-0.347-0.239-0.796-0.331-1.155-0.469c-0.486,0.169-0.882,0.367-1.161,0.78
		c0.636,0.801,1.701,1.329,1.785,2.628c-0.175,0.3-0.065,0.747-0.089,1.179c0.194,0.453,0.661,0.574,1.014,0.833
		c0.509-0.169,0.987-0.434,1.549-0.438c0.567-0.003,0.929,0.378,1.287,0.695c0.618-0.411,0.463-1.071,0.66-1.582
		c0.445-1.159,0.789-1.467,2.017-1.491c0.478-0.01,0.951,0.089,1.435-0.188c0.452-0.259,0.935,0.143,1.404,0.226
		c0.206,0.037,0.416,0.208,0.672,0.187c0.455-0.038,0.88,0.101,1.319,0.186c0.423,0.081,0.757,0.27,1.114,0.456
		c0.048,0.025,0.132-0.018,0.301-0.046c-0.428-0.895-0.548-1.833-0.444-2.754c-0.286-0.27-0.544-0.513-0.885-0.835
		c-0.511-0.027-0.997-0.52-1.733-0.754c-0.11-0.068,0.134-0.46-0.186-0.467c-0.093-0.366,0.471-0.369,0.139-0.735
		c0.48,0,0.835,0,1.216,0c0.424,0.374,0.949,0.667,1.54,0.609c0.583-0.058,1.077,0.246,1.64,0.256c0.235,0.004,0.5,0.205,0.694,0.38
		c0.509,0.461,1.159,0.516,1.822,0.729c0.129,0.129,0.307,0.307,0.428,0.428c0.294,0.88-0.271,1.634-0.158,2.356
		c0.429,0.777,1.318,0.958,1.72,1.633c0.409,0.687,1.137,0.918,1.7,1.397c0.856-0.429,1.56-0.921,1.566-1.998
		c0.002-0.209,0.196-0.417,0.303-0.625c0.146,0,0.289,0,0.403,0c0.81,0.543,1.055,1.42,1.402,2.232
		c0.069,0.162,0.102,0.371-0.015,0.499c-0.134,0.149-0.17,0.291-0.167,0.476c0.021,1.252-0.744,2.137-1.354,3.08
		c-0.453-0.136-0.712,0.193-1.072,0.208c-0.817,0.034-1.606-0.043-2.268-0.529c-0.375-0.275-0.813-0.306-1.202-0.503
		c-0.31-0.158-0.687-0.155-1.014,0.281c0,0.437-0.06,0.978,0.018,1.497c0.068,0.456-0.237,0.788-0.248,1.208
		c-0.005,0.199-0.204,0.322-0.417,0.412c-0.637,0.269-1.27,0.528-1.961,0.414c-0.761,0.366-1.335,0.893-1.711,1.706
		c0,0.426,0,0.929,0,1.433c0.544,0.692,0.878,1.515,1.329,2.255c0.253,0,0.464,0,0.729,0c0.37-0.368,0.914-0.707,1.137-1.193
		c0.179-0.39,0.517-0.417,0.708-0.662c0.242-0.313,0.543-0.271,0.859-0.298c0.119-0.01,0.229-0.134,0.345-0.207
		c0.313,0.108,0.631,0.208,0.941,0.329c0.744,0.288,1.313,0.843,1.947,1.295c0.484,0.347,0.555,0.915,0.768,1.41
		c0.232,0.538,0.05,1-0.252,1.511c-0.395-0.234-0.895-0.227-1.3-0.635c-0.377-0.381-0.982-0.244-1.495-0.231
		c-0.109,0.108-0.211,0.21-0.317,0.317c0,0.426-0.011,0.858,0.003,1.289c0.011,0.306-0.101,0.628,0.199,0.897
		c0.089,0.081,0.062,0.362,0.003,0.521c-0.095,0.256-0.286,0.479-0.205,0.778c0.13,0.484,0.382,0.922,0.463,1.437
		c0.039,0.247,0.201,0.582,0.529,0.806c0.617,0,1.291,0,1.972,0c0.194,1.09-0.039,2.117-0.224,3.236
		c-0.229,0.698-1.154,0.834-1.525,1.524c-0.815-0.088-1.642,0.175-2.381-0.218c-0.531-0.737-0.868-1.58-1.529-2.161
		c-0.529-0.13-0.7,0.3-0.977,0.548c0,0.866-0.037,1.732,0.014,2.594c0.03,0.506-0.048,1.002-0.251,1.412
		c-0.52,1.052-0.755,2.207-1.298,3.2c0.149,0.341,0.354,0.464,0.684,0.452c0.863-0.03,1.765,0.115,2.46-0.641
		c0.339,0,0.694,0,1.103,0c0.723,0.659,1.211,1.596,2.021,2.234c0.579,1.267,0.965,2.565,0.407,3.936
		c-0.236,0.583-0.2,1.31-0.82,1.712c0.063,0.359-0.036,0.685-0.217,0.989c-0.07,0.118-0.155,0.228-0.184,0.268
		c-0.218,0.207-0.406,0.1-0.574,0.133c-0.102-0.103-0.203-0.204-0.308-0.308c-0.034-0.796-0.081-1.591,0.348-2.326
		c0.273-0.468-0.217-0.812-0.264-1.241c-0.03-0.279-0.248-0.538-0.39-0.821c-0.206-0.041-0.404-0.169-0.557-0.313
		c-0.423,0.237-0.683,0.565-1.034,0.794c-0.379,0.247-0.726,0.608-0.963,1.086c-0.539,1.09-1.202,2.117-1.956,3.081
		c-0.278,0.356-0.482,0.758-0.356,1.264c0.156,0.156,0.335,0.335,0.511,0.511c0.813,0.092,1.535-0.299,2.303-0.442
		c0.183-0.034,0.331-0.245,0.519-0.393c0.206,0,0.448,0,0.673,0c0.123,0.187,0.063,0.362,0.057,0.516
		c-0.781,0.878-1.661,1.618-2.732,2.27c-0.838-0.191-1.704,0.256-2.618,0.217c-0.767-0.032-1.547,0.089-2.414-0.329
		c-0.309-0.291-0.676-0.775-1.249-0.985c-0.144-0.782,0.158-1.587-0.337-2.321c-0.612-0.445-1.079-0.088-1.677,0.267
		c-1.09,0.647-1.111,1.856-1.688,2.763c-0.08,0.125-0.011,0.346-0.011,0.472c0.199,0.333,0.467,0.413,0.766,0.342
		c0.289-0.069,0.376,0.339,0.659,0.242c0.338,0.56,0.419,1.104,0.104,1.734c-0.252,0.503-0.535,0.812-1.107,0.836
		c-1.361,0.059-2.246-0.072-3.747-1.103c-0.611-0.42-1.236-0.535-1.908-0.618C28.106,65.778,27.815,65.808,27.479,65.808z
		 M15.991,25.441c0.885,0.723,1.975,0.804,2.732,1.481c0.04,0.036,0.139,0.005,0.265,0.005c0.721-0.549,1.609-0.987,1.903-2.042
		c-0.7-0.662-1.083-1.585-1.782-2.429c-0.232,0.499-0.715,0.556-0.921,0.986c-0.217,0.453-0.808,0.514-1.122,0.911
		C16.782,24.712,16.423,25.011,15.991,25.441z M42.591,24.515c0.386,0,0.771,0,0.973,0c0.59-0.23,0.388-0.601,0.428-0.901
		c-0.694-0.703-1.089-1.708-2.105-2.071c-0.712,0-1.424,0-2.091,0c-0.445,0.239-0.331,0.619-0.332,0.889
		c0.351,0.378,0.666,0.718,0.977,1.053c0.369-0.172,0.583,0.184,0.896,0.219C41.876,23.765,42.014,24.495,42.591,24.515z
		 M25.747,20.428c0.18-0.378,0.422-0.629,0.301-0.969c-0.097-0.097-0.198-0.198-0.333-0.333c-0.857,0.153-1.799-0.227-2.58,0.325
		c-0.485,0.482-0.261,1.049-0.294,1.365c0.25,0.361,0.391,0.565,0.549,0.794C24.303,21.349,24.914,20.622,25.747,20.428z
		 M21.92,18.816c-0.184-0.323-0.453-0.401-0.861-0.221c0.264,0.254-0.177,0.283-0.13,0.499c0.14,0.098,0.204,0.309,0.52,0.259
		C21.577,19.208,21.755,19.005,21.92,18.816z"/>
	<path fill="currentColor" d="M59.906,44.422c0.247-0.045,0.559,0.128,0.774-0.162
		c0.401,0.109,0.719,0.341,0.923,0.603c0.528,1.248,0.097,2.595,0.716,3.777c0.13,0.25,0.148,0.675-0.101,1.011
		c-0.175,0.237-0.187,0.555-0.597,0.629c-0.272,0.05-0.406,0.471-0.757,0.494c-0.151,0.903,0.295,1.925-0.551,2.707
		c-0.196,0-0.408,0-0.651,0c-0.448-0.208-0.486-0.827-0.904-1.073c-0.399-0.235-0.728-0.531-1.047-0.854c-0.287,0-0.574,0-0.887,0
		c-0.11,0.115-0.212,0.313-0.361,0.363c-0.693,0.228-0.805,0.761-0.81,1.383c-0.011,1.336-0.095,1.605-0.851,2.885
		c0.036,0.84-0.244,1.608-0.618,2.33c-0.464,0.898-1.259,1.282-2.291,1.248c-0.225-0.252-0.461-0.519-0.757-0.852
		c-0.055-0.733-0.217-1.564-0.438-2.392c-0.224-0.84,0.276-1.648,0.204-2.456c0.376-0.754,1.067-1.22,1.485-2.088
		c0-0.397,0-0.966,0-1.488c0.66-1.132,1.639-1.908,2.49-2.808c0.72-0.081,1.441,0.033,2.176-0.197
		c0.533-0.168,1.181-0.125,1.617,0.238c0.468-0.234,0.386-0.685,0.706-0.848c-0.438-0.569-0.192-1.154-0.271-1.651
		C59.389,44.938,59.642,44.686,59.906,44.422z"/>
	<path fill="currentColor" d="M55.464,40.86c-0.061-0.653-0.155-1.249-0.649-1.714
		c-0.34-0.32-0.5-0.729-0.459-1.212c0.021-0.249,0.004-0.501,0.004-0.75c-0.37-0.333-0.374-0.774-0.453-1.224
		c-0.117-0.665-0.122-1.347-0.373-1.998c-0.196-0.509,0.083-1.025,0.343-1.44c0.232-0.372,0.413-0.824,0.819-1.064
		c0.301-0.177,0.279-0.557,0.528-0.756c0-0.791,0-1.582,0.001-2.373c0.252-0.303,0.61-0.416,0.968-0.592
		c0.313,0.162,0.609,0.315,0.975,0.503c-0.114,0.56,0.301,1.033,0.219,1.583c0.237,0.328,0.551,0.549,0.901,0.7
		c0.684,0.294,1.126,0.792,1.237,1.518c0.035,0.229,0.307,0.313,0.219,0.607c-0.06,0.066-0.153,0.169-0.277,0.306
		c-0.429,0-0.887,0-1.196,0c-1.056,0.399-1.171,1.297-1.468,2.126c0.328,0.528,0.645,1.175,1.209,1.642
		c0.116,0.843-0.253,1.786,0.549,2.5c0.188,0,0.399,0,0.699,0c0.278-0.311,0.646-0.647,0.92-1.05
		c0.252-0.368,0.396-0.777,0.03-1.229c-0.146-0.181,0.102-0.563-0.188-0.789c0.104-0.269,0.187-0.553,0.445-0.752
		c0.223-0.107,0.469-0.042,0.711-0.037c0.791,0.694,0.448,1.631,0.536,2.5c0.329,0.156,0.386,0.54,0.617,0.851
		c0.158,0.719-0.181,1.272-0.702,1.802c-0.689,0.699-1.387,1.378-2.273,1.816c-0.521,0.258-1.069,0.456-1.539,0.362
		C56.842,42.225,56.128,41.622,55.464,40.86z"/>
	<path fill="currentColor" d="M52.116,39.016c-0.22,0-0.432,0-0.65,0c-0.557-0.424-0.134-1.19-0.572-1.679
		c0.125-0.267,0.277-0.532,0.261-0.836c0.172-0.125,0.35-0.05,0.488-0.056c0.651,0.414,0.473,1.17,0.761,1.733
		C52.563,38.49,52.14,38.703,52.116,39.016z"/>
	<path style="fill-rule:evenodd;clip-rule:evenodd;fill:none;" d="M15.991,25.441c0.432-0.43,0.791-0.729,1.075-1.087
		c0.314-0.397,0.905-0.458,1.122-0.911c0.206-0.431,0.689-0.488,0.921-0.986c0.699,0.844,1.083,1.767,1.782,2.429
		c-0.294,1.055-1.182,1.493-1.903,2.042c-0.126,0-0.225,0.031-0.265-0.005C17.966,26.245,16.876,26.165,15.991,25.441z"/>
	<path style="fill-rule:evenodd;clip-rule:evenodd;fill:none;" d="M42.591,24.515c-0.577-0.02-0.715-0.75-1.256-0.811
		c-0.313-0.036-0.526-0.391-0.896-0.219c-0.311-0.335-0.626-0.675-0.977-1.053c0.001-0.27-0.113-0.649,0.332-0.889
		c0.667,0,1.379,0,2.091,0c1.017,0.364,1.411,1.368,2.105,2.071c-0.04,0.3,0.162,0.67-0.428,0.901
		C43.362,24.515,42.977,24.515,42.591,24.515z"/>
	<path style="fill-rule:evenodd;clip-rule:evenodd;fill:none;" d="M25.747,20.428c-0.833,0.194-1.444,0.92-2.357,1.182
		c-0.158-0.229-0.299-0.433-0.549-0.794c0.033-0.315-0.19-0.883,0.294-1.365c0.781-0.552,1.723-0.172,2.58-0.325
		c0.134,0.135,0.236,0.236,0.333,0.333C26.169,19.799,25.927,20.05,25.747,20.428z"/>
	<path style="fill-rule:evenodd;clip-rule:evenodd;fill:none;" d="M21.92,18.816c-0.165,0.188-0.344,0.392-0.472,0.537
		c-0.316,0.05-0.38-0.161-0.52-0.259c-0.047-0.216,0.394-0.245,0.13-0.499C21.468,18.416,21.737,18.494,21.92,18.816z"/>
</g>
</svg>
