<?xml version="1.0" encoding="iso-8859-1"?>
<!-- Generator: Adobe Illustrator 16.0.0, SVG Export Plug-In . SVG Version: 6.00 Build 0)  -->
<!DOCTYPE svg PUBLIC "-//W3C//DTD SVG 1.1//EN" "http://www.w3.org/Graphics/SVG/1.1/DTD/svg11.dtd">
<svg version="1.1" id="Layer_1" xmlns="http://www.w3.org/2000/svg" xmlns:xlink="http://www.w3.org/1999/xlink" x="0px" y="0px"
	 width="72.36px" height="72.18px" viewBox="0 0 72.36 72.18" style="enable-background:new 0 0 72.36 72.18;" xml:space="preserve"
	>
<g>
	
	<path fill="currentColor" d="M22.911,43.146c-0.352,0.372-0.781,0.693-0.926,1.173
		c-0.287,0.176-0.541,0.075-0.825,0.108c-0.544-0.719-1.07-1.446-1.164-2.426c-0.04-0.414-0.208-0.822-0.454-1.213
		c-0.668-1.063-1.574-1.845-2.564-2.588c-0.33-0.248-0.774-0.113-1.001-0.474c-0.808,0.041-1.569-0.306-2.396-0.241
		c-0.523,0.041-0.983,0.325-1.529,0.255c-0.476-0.061-0.971-0.067-1.422,0.199c-0.489,0.29-0.991,0.559-1.491,0.831
		c-0.057,0.03-0.133,0.024-0.226,0.04c-0.091-0.083-0.194-0.178-0.319-0.293c-0.2-1.35,0.474-2.437,1.242-3.42
		c0.509-0.652,0.962-1.351,1.463-2.007c0.479-0.627,1-1.214,1.59-1.681c0.528-0.417,1.01-0.87,1.484-1.334
		c0.724-0.708,1.45-1.397,2.334-1.92c0.39-0.23,0.672-0.645,0.983-0.957c0.893-0.25,1.767-0.419,2.542-0.983
		c0.462-0.335,1.113-0.434,1.695-0.572c0.361-0.085,0.738,0.009,1.106-0.209c0.284-0.168,0.586,0.135,0.828,0.291
		c0.226,0.146,0.363,0.43,0.405,0.482c0.581,0.174,0.784-0.179,1.093-0.199c0.158-0.293,0.195-0.649,0.485-0.918
		c0.025-0.625-0.097-1.3,0.322-1.994c0.122-0.061,0.356-0.179,0.533-0.269c0.511-0.044,0.771,0.376,1.183,0.438
		c0.115,0.017,0.258,0.166,0.303,0.286c0.28,0.753,0.845,1.41,0.698,2.31c-0.075,0.455-0.055,0.938,0.001,1.399
		c0.039,0.318-0.147,0.521-0.207,0.692c0.315,1.183,1.089,1.854,2.147,2.199c0.295,0.097,0.646,0.045,0.833-0.303
		c0.13-0.871-0.264-1.837,0.452-2.615c0.146-0.881,0.486-1.629,1.495-2.036c0.231,0,0.618-0.09,0.936,0.019
		c0.635,0.218,1.167,0.66,1.22,1.368c0.047,0.624,0.366,1.025,0.774,1.417c0.356,0,0.715,0,1.078,0
		c0.476-0.452,0.896-0.898,1.022-1.625c0.101-0.586,0.704-0.936,1.144-1.402c0.654,0.057,1.367-0.152,2.021,0.294
		c0.222,0.658,0.485,1.325,0.459,2.055c-0.016,0.455,0.322,0.836,0.229,1.315c-0.081,0.413,0.335,0.756,0.229,1.208
		c-0.021,0.088,0.224,0.239,0.386,0.401c1.009-0.394,1.721-1.096,2.4-1.882c0-0.25,0.034-0.502-0.007-0.743
		c-0.186-1.105,0.196-2.146,0.48-3.156c0.233-0.827,0.981-1.419,1.774-1.82c0.224-0.113,0.517-0.05,0.801,0.063
		c0.351,0.14,0.557,0.408,0.813,0.615c0.23,0.813-0.631,1.623,0.275,2.585c0.313,0.231,0.892,0.297,1.438-0.151
		c0.204-0.168,0.396-0.123,0.598-0.126c0.574-0.011,1.148-0.004,1.623-0.004c1.011,0.499,1.897,1.03,2.911,1.304
		c0.521,0.141,0.974,0.425,1.419,0.752c0.828,0.609,1.537,1.374,2.464,1.856c0.213,0.111,0.36,0.347,0.539,0.524
		c0.867,0.861,1.734,1.722,2.554,2.536c0.079,0.764,0.456,1.353,0.826,1.887c0.623,0.898,1.125,1.828,1.363,2.895
		c0.458,0.376,0.092,0.741-0.048,1.128c-0.174,0.088-0.382,0.193-0.616,0.313c-0.222-0.129-0.467-0.244-0.682-0.399
		c-1.021-0.738-2.197-1.207-3.413-1.087c-1.188,0.117-2.448,0.037-3.552,0.785c-1.271,0.861-2.393,1.804-3.03,3.252
		c-0.206,0.471,0.028,0.917-0.244,1.568c-0.213,0.324-0.408,1.026-1.253,1.067c-0.261-0.292-0.522-0.585-0.734-0.822
		c-1.074-0.179-2.055-0.079-2.982,0.21c-0.91,0.283-1.604,0.99-2.396,1.507c-0.884,0.576-0.889,1.65-1.485,2.525
		c-0.328,0.018-0.732,0.03-1.175-0.187c-0.783-0.384-1.651-0.204-2.471-0.236c-1.729,1.076-2.545,2.943-3.871,4.322
		c-0.314,0-0.602,0-0.841,0c-0.659-0.405-0.944-1.057-1.214-1.679c-0.395-0.908-1.048-1.544-1.891-1.972
		c-0.37-0.188-0.599-0.572-1.024-0.667c-0.394,0-0.787-0.002-1.18,0.001c-0.172,0.001-0.329-0.015-0.49,0.127
		c-0.394,0.346-0.89,0.328-1.376,0.298c-0.548-0.581-1.13-1.102-1.488-1.867c-0.236-0.504-0.786-0.874-1.322-1.167
		c-0.557-0.305-1.092-0.661-1.703-0.84C24.248,43.38,23.638,42.996,22.911,43.146z"/>
</g>
</svg>
