<?xml version="1.0" encoding="iso-8859-1"?>
<!-- Generator: Adobe Illustrator 16.0.0, SVG Export Plug-In . SVG Version: 6.00 Build 0)  -->
<!DOCTYPE svg PUBLIC "-//W3C//DTD SVG 1.1//EN" "http://www.w3.org/Graphics/SVG/1.1/DTD/svg11.dtd">
<svg version="1.1" id="Layer_1" xmlns="http://www.w3.org/2000/svg" xmlns:xlink="http://www.w3.org/1999/xlink" x="0px" y="0px"
	 width="72.36px" height="72.18px" viewBox="0 0 72.36 72.18" style="enable-background:new 0 0 72.36 72.18;" xml:space="preserve"
	>
<g>
	
	<path fill="currentColor" d="M41.738,49.606c-0.475,0.458-1.002,0.875-1.211,1.568
		c0.202,0.91,0.802,1.569,1.482,2.155c0.057,1.247,0.057,1.247-0.398,2.018c-0.206,0.218-0.637-0.05-0.798,0.312
		c-0.652-0.138-1.161-0.524-1.694-0.847c-0.107,0.104-0.211,0.203-0.302,0.291c-0.146,0.282,0.136,0.451,0.228,0.555
		c0.619,0.701,1.086,1.519,1.693,2.216c0.549,0.63,1.088,1.252,1.517,2.059c0.054,0.484,0.02,1.013-0.425,1.459
		c-0.46,0.462-1.002,0.59-1.606,0.494c-0.481-0.08-0.683-0.704-1.297-0.608c-0.345,0.452-0.276,1.193-0.909,1.498
		c-0.273,0-0.56,0-0.846,0c-0.81-0.137-0.733-1.019-1.233-1.453c-0.372,0.035-0.629,0.432-1.063,0.39
		c-0.428-0.04-0.863-0.009-1.503-0.009c-0.057-0.081-0.208-0.28-0.343-0.488c-0.385-0.592-0.409-1.177,0.086-1.677
		c0.569-0.574,0.821-1.37,1.436-1.898c0.076-0.064,0.152-0.125,0.159-0.259c0.033-0.7,0.578-1.133,0.924-1.663
		c0.156-0.239,0.188-0.429,0.07-0.713c-0.411,0.383-0.97,0.398-1.365,0.627c-0.73-0.082-1.178-0.589-1.751-0.947
		c-0.078-0.33-0.475-0.654-0.075-1.273c0.278-0.296,0.732-0.722,1.081-1.268c0.619-0.971,0.632-1.358-0.131-2.157
		c-0.124-0.129-0.25-0.257-0.366-0.376c-0.853-0.135-1.272-0.398-2.336-1.462c-0.991-0.191-1.874-0.668-2.674-1.118
		c-0.308,0.305-0.582,0.575-0.917,0.907c-0.341,0.893-0.842,1.796-1.888,2.316c-0.186,0-0.401,0-0.625,0
		c-0.297-0.303-0.6-0.609-0.985-1.001c0-0.393,0-0.879,0-1.416c-0.623,0.138-0.813,0.671-1.18,0.903
		c-0.223,0.679-0.416,1.317-0.645,1.944c-0.127,0.347-0.321,0.65-0.347,1.053c-0.018,0.262-0.174,0.574-0.408,0.795
		c-0.314,0.296-0.613,0.608-0.943,0.938c-0.288,0-0.601,0-0.745,0c-0.528-0.156-0.826-0.391-1.112-0.753c0-0.394,0-0.851,0-1.27
		c-0.114-0.115-0.191-0.191-0.305-0.306c-0.49,0-1.02,0-1.377,0c-0.845-0.374-1.35-0.858-1.563-1.599
		c0.281-0.768,0.281-0.768,1.029-1.288c-0.008-0.651-0.002-0.673-0.496-0.803c-0.49-0.128-0.867-0.396-1.183-0.783
		c0.168-0.348-0.264-0.554-0.195-0.989c0.07-0.142,0.188-0.381,0.293-0.597c0.513-0.513,1.228-0.587,2.034-0.223
		c0.43-0.237,0.888-0.394,1.349-0.08c0.176,0.119,0.435,0.125,0.496,0.061c0.367-0.389,0.682-0.129,1.025,0.011
		c0.664,0.271,1.357,0.259,2.049,0.195c0.102-0.107,0.197-0.206,0.29-0.305c-0.229-0.295-0.582-0.362-0.87-0.537
		c-0.295-0.181-0.544-0.358-0.652-0.755c-0.298-1.1-0.323-1.111,0.507-2.004c0.732-0.157,1.439-0.037,2.101,0.288
		c0.385,0.189,0.772-0.001,1.107,0.123c0.406-0.258,0.625-0.607,0.836-1.138c0-1.638-0.006-3.435,0.004-5.231
		c0.003-0.524-0.391-0.985-0.242-1.386c-0.218-0.298-0.385-0.525-0.561-0.766c-0.928,0.394-1.822,0.641-2.499,0.521
		c-0.673-0.194-0.984-0.462-1.229-0.797c0-0.433,0-0.862,0-1.292c0.123-0.59,0.732-0.685,1.068-1.059c0-0.14,0-0.283,0-0.441
		c-0.229-0.113-0.466-0.231-0.634-0.314c-1.731,0.271-3.303,0.971-5.033,0.854c-0.635-0.282-1.146-0.717-1.458-1.538
		c-0.044-0.411-0.021-0.957,0.535-1.463c0.407-0.077,1.02,0.12,1.44-0.429c-0.224-0.589-1.035-0.574-1.3-1.35
		c0-0.117,0-0.43,0-0.648c0.287-0.715,0.731-1.178,1.58-1.495c0.236,0,0.694,0,1.176,0c0-0.462,0-0.887,0-1.4
		c0.169-0.114,0.376-0.254,0.74-0.499c0.535-0.051,1.198-0.666,2.03-0.413c0.051,0.051,0.133,0.094,0.148,0.154
		c0.295,1.146,1.023,2.093,1.479,3.167c0.081,0.191,0.095,0.495,0.356,0.608c-0.1,0.468,0.288,0.846,0.238,1.311
		c0.239,0.187,0.368,0.524,0.756,0.568c0.202-0.297,0.083-0.623,0.104-0.927c0.02-0.287,0.004-0.576,0.004-0.914
		c0.286-0.249,0.512-0.591,0.627-0.969c0.586,0,1.085,0,1.652,0c0.328,0.315,0.583,0.701,0.781,1.216
		c0.294,0.768,0.385,1.685,1.185,2.223c0.223,0.027,0.417-0.059,0.644-0.204c0.502-0.323,1.022-0.629,1.609-0.803
		c0.182-0.054,0.391-0.097,0.53-0.29c0.25-0.345,0.671-0.448,1.014-0.664c0.892-0.56,1.925-0.94,2.561-1.903
		c-0.139-0.624-0.415-1.188-0.892-1.664c-0.524-0.522-0.896-1.128-0.855-1.911c1.16-1.239,1.319-1.399,2.771-1.014
		c0-0.319,0-0.634,0-0.984c-0.398-0.398-0.833-0.829-1.263-1.265c-0.149-0.151-0.364-0.291-0.415-0.474
		c-0.201-0.729-0.802-1.125-1.288-1.669c0-0.321,0-0.675,0-0.998c0.333-0.329,0.662-0.653,1.067-1.054
		c0.59-0.046,1.322-0.111,1.955,0.497c0.637-0.551,0.938-1.361,1.667-1.808c0.681-0.03,1.068,0.501,1.523,0.944
		c-0.046,0.353,0.211,0.621,0.304,0.973c0.199,0,0.405,0,0.729,0c0.281-0.297,0.642-0.674,1.198-0.851
		c0.367,0.231,0.764,0.48,1.239,0.78c0.336,0.476,0.237,1.11,0.192,1.708c-0.137,0.72-0.924,0.794-1.256,1.313
		c-0.345,0.538-0.596,1.154-1.015,1.621c-0.426,0.475-0.653,1.026-0.965,1.557c0.672,0.205,0.672,0.205,2.165-0.485
		c0.253,0.071,0.455,0.343,0.77,0.215c0.114,0.204,0.305,0.398,0.325,0.609c0.048,0.499,0.069,1.014-0.004,1.507
		c-0.048,0.315-0.187,0.667-0.485,0.871c-0.423,0.289-0.548,0.808-0.915,1.134c-0.165,0.147-0.059,0.336-0.103,0.529
		c0.126,0.103,0.244,0.277,0.394,0.31c0.554,0.121,0.883,0.53,1.252,0.892c0.334,0.328,0.676,0.649,0.989,0.996
		c0.242,0.268,0.567,0.453,0.877,0.479c0.875,0.075,1.576,0.551,2.34,0.884c0.798-0.319,1.317-0.842,1.3-1.789
		c0.504-0.833,1.411-1.089,2.245-1.397c0.704,0.144,1.229,0.523,1.422,1.306c0.009,0.388-0.501,0.77-0.094,1.26
		c0.553-0.165,0.765-0.645,0.942-1.118c0.352-0.935,0.543-1.934,1.094-2.785c0.289-0.447,0.105-1.019,0.472-1.429
		c0.596-0.48,1.32-0.264,1.915-0.312c0.455,0.205,0.816,0.413,1.078,0.806c-0.213,0.446,0.314,0.799,0.189,1.242
		c0.446,0.34,0.926,0.359,1.409,0.32c0.401,0.462,1.039,0.625,1.39,1.237c0,0.271,0,0.625,0,1.055
		c-0.201,0.153-0.456,0.347-0.627,0.478c0,0.294,0,0.438,0,0.625c0.718,0.461,1.04,1.215,1.284,2.044
		c-0.271,0.805-0.861,1.109-1.728,1.059c-0.824-0.048-1.652-0.01-2.374-0.01c-1.06-0.605-2.03-0.588-3.063-0.122
		c0.209,0.657,0.847,0.69,1.239,1.026c0.39,0.463,0.338,1.025,0.31,1.591c-0.124,0.109-0.257,0.229-0.219,0.436
		c-0.533,0.316-1.153,0.343-1.727,0.525c-0.51-0.462-1.26,0.052-1.645-0.38c-0.452-0.195-0.544,0.349-0.849,0.149
		c-0.076,0.186-0.115,0.315-0.181,0.43c-0.26,0.463,0.038,1.008-0.169,1.44c-0.221,0.458-0.093,0.808-0.018,1.262
		c0.156,0.938,0.124,1.917,0.004,2.876c-0.01,0.086-0.116,0.16-0.165,0.223c0.176,0.545,0.415,1.021,0.742,1.512
		c0.658,0.552,1.398,0.162,2.057-0.08c0.628-0.23,1.073,0.084,1.539,0.278c0.476,0.198,0.491,0.783,0.631,1.229
		c0.098,0.31-0.372,0.527-0.198,0.887c-0.183,0.174-0.364,0.347-0.565,0.536c-0.185,0-0.398,0-0.607,0
		c-0.147,0.152-0.362,0.248-0.359,0.488c0.054,0.064,0.102,0.163,0.138,0.158c0.239-0.027,0.492,0.098,0.722-0.079
		c0.278-0.216,0.578-0.176,0.874-0.026c0.365,0.185,0.716,0.153,1.096,0.005c1.002-0.392,2.03-0.661,3.167-0.511
		c1.025,0.647,0.881,0.692,1.578,2.096c-0.06,0.257-0.348,0.454-0.217,0.767c-0.485,0.464-1.252,0.229-1.78,0.755
		c0.443,0.521,1.104,0.82,1.552,1.467c0.073,0.519,0.008,1.077-0.513,1.563c-0.919,0-1.881,0-2.888,0c0,0.634,0,1.235,0,1.819
		c-0.293,0.274-0.555,0.519-0.844,0.789c-0.719,0.088-1.307-0.351-1.953-0.719c-0.156-0.33-0.247-0.711-0.306-1.128
		c-0.052-0.366-0.167-0.768-0.42-1.118c-0.287-0.397-0.502-0.849-0.657-1.345c-0.19-0.604-0.512-1.217-1.18-1.497
		c-0.076,0.076-0.152,0.152-0.267,0.268c0,0.488,0,1.02,0,1.475c-0.302,0.317-0.549,0.578-0.781,0.822c-0.312,0-0.598,0-0.767,0
		c-1.179-0.482-1.864-1.24-1.943-2.451c-0.232-0.365-0.598-0.566-0.984-0.745c-0.449,0.21-0.863,0.533-1.425,0.628
		c-0.896,0.149-1.523,0.839-2.273,1.286C42.587,49.203,42.301,49.694,41.738,49.606z M41.616,38.697
		c0-0.479-0.031-0.981,0.007-1.479c0.069-0.896-0.302-1.592-0.893-2.217c-0.693-0.732-1.561-1.186-2.462-1.597
		c-1.132-0.517-1.421-0.624-2.305-0.191c-0.857,0.419-1.809,0.75-2.289,1.739c-0.31,0.64-0.462,1.321-0.724,1.962
		c-0.289,0.705-0.195,1.321,0.021,1.986c0.228,0.697,0.546,1.335,1.139,1.783c0.233,0.176,0.61,0.195,0.79,0.401
		c0.391,0.447,0.979,0.437,1.43,0.735c0.522,0.347,1.144,0.21,1.72,0.229c0.086-0.087,0.148-0.188,0.24-0.234
		c0.827-0.423,1.313-1.309,2.236-1.619c0.244-0.082,0.443-0.365,0.606-0.597C41.324,39.33,41.334,38.957,41.616,38.697z
		 M34.09,30.69c-0.227-1.049-0.705-1.872-1.423-2.427c-0.426-0.134-0.579,0.082-0.749,0.262c-0.21,1.082,0.644,1.796,0.904,2.713
		c0.241,0,0.453,0,0.634,0C33.678,31.047,33.888,30.865,34.09,30.69z M44.661,38.115c1.042,0.47,1.931,0.293,2.775-0.217
		c0.005-0.396,0.125-0.773-0.325-1.017c-0.692,0-1.435,0-2.173,0c-0.159,0.238-0.469,0.343-0.521,0.625
		C44.464,37.737,44.725,37.838,44.661,38.115z M32.761,46.583c0.657-0.316,1.121-0.838,1.51-1.478
		c-0.033-0.266,0.075-0.588-0.093-0.931c-0.273-0.141-0.566-0.291-0.825-0.424c-0.417,0.315-0.758,0.688-0.778,1.114
		c-0.025,0.515-0.304,0.884-0.468,1.307C32.239,46.464,32.432,46.635,32.761,46.583z M29.565,36.862
		c-0.798,0.032-1.739-0.156-2.461,0.609c0.564,0.979,1.438,0.942,2.32,0.892c0.17-0.169,0.346-0.346,0.527-0.526
		C29.931,37.502,30.069,37.116,29.565,36.862z M41.838,44.244c-0.429,0-0.743,0-1.002,0c-0.4,0.296-0.31,0.645-0.274,0.904
		c0.407,0.535,0.68,1.077,1.184,1.434c0.227-0.032,0.482,0.083,0.708-0.075c-0.063-0.25,0.21-0.346,0.247-0.576
		C42.422,45.386,42.134,44.822,41.838,44.244z M41.959,28.459c-0.929,0.468-1.566,1.117-1.418,2.214
		c0.419,0.689,0.844,0.216,1.262,0.062c0.095-0.329,0.202-0.649,0.423-0.858c0-0.419,0-0.807,0-1.151
		C42.112,28.612,42.036,28.536,41.959,28.459z"/>
	
	
	
	
	
	
	
</g>
</svg>
