<svg xmlns="http://www.w3.org/2000/svg" xml:space="preserve" width="72px" height="72px" viewBox="0 0 72 72">
    <path fill="currentColor" d="M22.911 43.146c-.352.372-.781.693-.926 1.173-.287.176-.541.075-.825.108-.544-.719-1.07-1.446-1.164-2.426-.04-.414-.208-.822-.454-1.213-.668-1.063-1.574-1.845-2.564-2.588-.33-.248-.774-.113-1.001-.474-.808.041-1.569-.306-2.396-.241-.523.041-.983.325-1.529.255-.476-.061-.971-.067-1.422.199-.489.29-.991.559-1.491.831-.057.03-.133.024-.226.04l-.319-.293c-.2-1.35.474-2.437 1.242-3.42.509-.652.962-1.351 1.463-2.007.479-.627 1-1.214 1.59-1.681.528-.417 1.01-.87 1.484-1.334.724-.708 1.45-1.397 2.334-1.92.39-.23.672-.645.983-.957.893-.25 1.767-.419 2.542-.983.462-.335 1.113-.434 1.695-.572.361-.085.738.009 1.106-.209.284-.168.586.135.828.291.226.146.363.43.405.482.581.174.784-.179 1.093-.199.158-.293.195-.649.485-.918.025-.625-.097-1.3.322-1.994l.533-.269c.511-.044.771.376 1.183.438.115.017.258.166.303.286.28.753.845 1.41.698 2.31-.075.455-.055.938.001 1.399.039.318-.147.521-.207.692.315 1.183 1.089 1.854 2.147 2.199.295.097.646.045.833-.303.13-.871-.264-1.837.452-2.615.146-.881.486-1.629 1.495-2.036.231 0 .618-.09.936.019.635.218 1.167.66 1.22 1.368.047.624.366 1.025.774 1.417h1.078c.476-.452.896-.898 1.022-1.625.101-.586.704-.936 1.144-1.402.654.057 1.367-.152 2.021.294.222.658.485 1.325.459 2.055-.016.455.322.836.229 1.315-.081.413.335.756.229 1.208-.021.088.224.239.386.401 1.009-.394 1.721-1.096 2.4-1.882 0-.25.034-.502-.007-.743-.186-1.105.196-2.146.48-3.156.233-.827.981-1.419 1.774-1.82.224-.113.517-.05.801.063.351.14.557.408.813.615.23.813-.631 1.623.275 2.585.313.231.892.297 1.438-.151.204-.168.396-.123.598-.126.574-.011 1.148-.004 1.623-.004 1.011.499 1.897 1.03 2.911 1.304.521.141.974.425 1.419.752.828.609 1.537 1.374 2.464 1.856.213.111.36.347.539.524l2.554 2.536c.079.764.456 1.353.826 1.887.623.898 1.125 1.828 1.363 2.895.458.376.092.741-.048 1.128l-.616.313c-.222-.129-.467-.244-.682-.399-1.021-.738-2.197-1.207-3.413-1.087-1.188.117-2.448.037-3.552.785-1.271.861-2.393 1.804-3.03 3.252-.206.471.028.917-.244 1.568-.213.324-.408 1.026-1.253 1.067l-.734-.822a6.3 6.3 0 0 0-2.982.21c-.91.283-1.604.99-2.396 1.507-.884.576-.889 1.65-1.485 2.525-.328.018-.732.03-1.175-.187-.783-.384-1.651-.204-2.471-.236-1.729 1.076-2.545 2.943-3.871 4.322h-.841c-.659-.405-.944-1.057-1.214-1.679-.395-.908-1.048-1.544-1.891-1.972-.37-.188-.599-.572-1.024-.667q-.59-.002-1.18.001c-.172.001-.329-.015-.49.127-.394.346-.89.328-1.376.298-.548-.581-1.13-1.102-1.488-1.867-.236-.504-.786-.874-1.322-1.167-.557-.305-1.092-.661-1.703-.84-.644-.182-1.254-.566-1.981-.416"/>
</svg>
