<?xml version="1.0" encoding="iso-8859-1"?>
<!-- Generator: Adobe Illustrator 16.0.0, SVG Export Plug-In . SVG Version: 6.00 Build 0)  -->
<!DOCTYPE svg PUBLIC "-//W3C//DTD SVG 1.1//EN" "http://www.w3.org/Graphics/SVG/1.1/DTD/svg11.dtd">
<svg version="1.1" id="Layer_1" xmlns="http://www.w3.org/2000/svg" xmlns:xlink="http://www.w3.org/1999/xlink" x="0px" y="0px"
	 width="72.36px" height="72.18px" viewBox="0 0 72.36 72.18" style="enable-background:new 0 0 72.36 72.18;" xml:space="preserve"
	>
<g>
	
	<path fill="currentColor" d="M38.713,50.062c0.41,0.384,0.613,0.777,1.076,0.61
		c0.17,0.277,0.069,0.531,0.098,0.772c-0.382,0.382-0.764,0.764-1.146,1.145c-0.607,0.114-1.168,0.335-1.626,0.765
		c-0.351,0.331-0.728,0.59-1.167,0.823c-0.648,0.346-1.334,0.624-1.96,1.01c-0.604,0.371-1.16,0.848-1.802,1.123
		c-1.17,0.503-2.175,1.315-3.388,1.727c-0.093,0.031-0.164,0.128-0.266,0.211c-0.333,0-0.698-0.043-1.048,0.01
		c-0.599,0.092-1.152-0.175-1.515-0.49c-0.566-0.491-1.117-1.056-1.535-1.7c-0.315-0.487-0.626-0.97-0.986-1.43
		c-0.443-0.567-1.048-0.989-1.453-1.545c-0.393-0.539-0.903-1.024-1.142-1.675c-0.909-0.739-1.359-1.85-2.184-2.675
		c-0.492-0.492-0.968-1.06-1.354-1.684c-0.228-0.368-0.356-0.939-0.952-0.996c-0.303-0.767-1.11-1.134-1.462-1.877
		c-0.271-0.574-0.639-1.105-0.988-1.641c-0.086-0.134-0.211-0.249-0.416-0.293c-0.542-0.117-0.85-0.58-1.268-0.962
		c0.115-0.584-0.213-1.238,0.232-1.785c-0.176-0.722-0.753-1.206-0.944-1.912c-0.073-0.271-0.119-0.531-0.137-0.8
		c-0.024-0.343-0.13-0.677-0.177-0.996c-0.072-0.497-0.535-0.802-0.486-1.327c0.042-0.444,0.055-0.894-0.188-1.323
		c-0.078-0.138-0.056-0.39,0.075-0.602c0.41-0.665,0.607-1.469,1.337-1.936c0.569,0.07,1.099-0.389,1.688-0.206
		c0.243-0.304,0.718-0.237,0.808-0.668c0.683,0,1.331-0.04,1.969,0.016c0.388,0.034,0.685-0.146,0.958-0.305
		c0.942-0.547,0.93-0.609,1.815-0.563c0.715,0.038,1.33-0.244,1.983-0.435c1.225-0.359,2.391-0.839,3.513-1.504
		c0.737,0.02,1.177-0.186,2.394-0.656c0.684-0.264,1.398-0.452,2.104-0.653c0.639-0.182,1.288-0.313,1.929-0.194
		c0.66-0.727,1.531-0.832,2.374-0.867c0.672-0.028,1.295-0.154,1.866-0.465c0.529-0.288,1.12-0.294,1.667-0.39
		c1.387-0.241,2.547-0.861,3.713-1.76c1.366,0,2.839,0.018,4.311-0.012c0.366-0.007,0.717,0.074,0.979,0.245
		c0.847,0.55,1.923,0.695,2.628,1.491c0.031,0.036,0.166-0.026,0.206,0.01c0.38,0.342,0.918,0.189,1.33,0.446
		c0.395,0.246,0.804,0.467,1.244,0.644c0.649,0.261,1.308,0.176,1.903,0.201c1.217,0.887,2.514,1.404,3.941,1.563
		c0.443,0.1,0.71,0.432,1.002,0.729c0.329,0.334,0.702,0.532,1.19,0.521c0.622-0.013,1.135,0.412,1.745,0.483
		c0.105,0.012,0.197,0.18,0.362,0.163c0.142-0.016,0.287-0.003,0.456-0.003c0.881,0.775,1.043,1.806,0.971,2.921
		c-0.488,0.454-0.439,1.057-0.42,1.721c-0.345,0.315-0.68,0.696-0.876,1.188c-0.27,0.675-0.119,1.428-0.426,2.091
		c0.434,0.435-0.035,1.123,0.457,1.52c-0.163,0.331-0.331,0.622-0.453,0.931c-0.265,0.672-0.713,1.188-1.373,1.449
		c-0.319,0.126-0.631,0.308-0.717,0.561c-0.152,0.447-0.556,0.628-0.774,0.99c-0.616,0-1.218,0-1.794,0
		c-0.249-0.151-0.28-0.412-0.405-0.612c-0.172,0.001-0.349-0.068-0.51,0.045c-0.249,0.409,0.296,0.691,0.152,1.127
		c-0.58,0.218-0.916,0.779-1.347,1.146c-1.219,0.176-2.019,0.932-2.799,1.721c-0.597,0.11-1.223,0.131-1.693,0.607
		c-0.141,0.144-0.407,0.275-0.52,0.278c-0.985,0.02-1.249,0.798-1.699,1.481c-0.312,0.141-0.663,0.392-1.142,0.238
		c-0.145-0.145-0.323-0.322-0.536-0.535c0.149-0.321,0.253-0.688,0.565-0.929c0.324-0.25,0.815-0.117,1.104-0.461
		c0.274-0.327,0.646-0.483,1.028-0.646c0.187-0.078,0.331-0.23,0.565-0.208c0.13,0.013,0.273,0.056,0.405-0.06
		c0.694-0.608,1.556-0.922,2.38-1.289c0.545-0.242,0.897-0.651,1.082-1.159c0.07-0.191,0.317-0.307,0.309-0.577
		c-0.236-0.477-0.485-0.947-0.707-1.431c-0.217-0.474-0.777-0.704-0.846-1.221c0.294-1.192,0.768-2.297,1.139-3.525
		c-1.191-0.094-2.103,0.309-2.897,0.981c-0.365,0.309-0.724,0.636-0.946,1.11c-0.182,0.389-0.714,0.356-1.087,0.45
		c-0.264,0.066-0.516,0.143-0.767,0.245c-0.617,0.251-1.147,0.737-1.874,0.688c-0.253,0.303-0.713,0.137-0.99,0.518
		c-0.304,0.417-0.879,0.313-1.344,0.306c-0.639,0.602-1.514,0.573-2.25,0.94c0,0.233,0,0.475,0,0.71
		c0.955,0.415,1.03,0.479,1.591,1.366c0.185,0.293,0.185,0.293-0.187,0.873c-0.205,0-0.449,0-0.693,0c-0.213,0-0.427,0-0.634,0
		c-0.542,0.622-1.247,1.078-1.631,1.942C39.656,47.313,39.157,48.691,38.713,50.062z M35.131,51.007
		c-0.388-0.389-0.718-0.719-1.048-1.048c0.016-0.8-0.564-1.206-1.033-1.669c-0.699,0.075-1.239,0.499-1.923,0.471
		c-0.658-0.026-1.268-0.443-2.017-0.175c-0.726,0.447-0.818,0.544-1.268,1.32c-0.261,1.678,0.291,3.12,0.942,4.661
		c0.141,0.148,0.387,0.407,0.688,0.725c1.334-0.517,2.417-1.394,3.387-2.441c0.876-0.035,1.892,0.248,2.271-0.965
		C35.131,51.6,35.131,51.314,35.131,51.007z M18.922,35.94c0.295,0.177,0.527,0.316,0.857,0.514c0.449-0.302,0.879,0.25,1.421,0.191
		c0.546,0.524,1.033,1.134,1.884,1.499c0.083-0.006,0.332,0.078,0.588-0.062c0.006-0.128,0.014-0.266,0.019-0.374
		c-0.135-0.395-0.656-0.482-0.652-0.944c-0.423-0.127-0.621-0.604-0.978-0.736c-0.744-0.277-0.859-0.893-1.047-1.533
		c-0.759-0.583-1.831-0.703-2.427-1.569c-0.337,0.138-0.674-0.074-0.946,0.157c-0.104,0.819,0.698,0.862,1.073,1.292
		C18.586,34.932,19.084,35.389,18.922,35.94z M37.175,28.686c-0.81,0.106-1.292,0.538-1.726,1.085c-0.592,0-1.191,0-1.753,0
		c-0.111,0.111-0.187,0.187-0.266,0.267c0,0.308,0,0.62,0,0.963c0.333,0,0.646,0,0.982,0c0.317-0.319,0.634-0.691,1.124-0.833
		c0.25,0,0.502-0.017,0.75,0.003c0.817,0.065,1.387-0.248,1.653-1.044c0.018-0.054-0.026-0.128-0.044-0.201
		C37.666,28.8,37.314,28.984,37.175,28.686z M38.858,43.813c-0.157-0.261-0.259-0.446-0.508-0.47
		c-0.224,0.104-0.435,0.225-0.405,0.545c0.189,0.094,0.386,0.19,0.579,0.287C38.632,44.057,38.727,43.954,38.858,43.813z"/>
	<path fill="currentColor" d="M44.299,47.676c0.268,0,0.479,0,0.665,0
		c0.296,0.187,0.379,0.438,0.325,0.714c-0.771,0.778-1.526,1.539-2.202,2.22c-0.922,0.398-1.8,0.289-2.668,0.286
		c-0.101-0.102-0.202-0.202-0.349-0.349c0.438-0.724,0.585-1.581,0.961-2.418c0.259-0.014,0.522-0.002,0.842,0.08
		C42.72,48.428,43.597,48.479,44.299,47.676z"/>
	
	
	
	
</g>
</svg>
