<?xml version="1.0" encoding="iso-8859-1"?>
<!-- Generator: Adobe Illustrator 16.0.0, SVG Export Plug-In . SVG Version: 6.00 Build 0)  -->
<!DOCTYPE svg PUBLIC "-//W3C//DTD SVG 1.1//EN" "http://www.w3.org/Graphics/SVG/1.1/DTD/svg11.dtd">
<svg version="1.1" id="Layer_1" xmlns="http://www.w3.org/2000/svg" xmlns:xlink="http://www.w3.org/1999/xlink" x="0px" y="0px"
	 width="72.36px" height="72.18px" viewBox="0 0 72.36 72.18" style="enable-background:new 0 0 72.36 72.18;" xml:space="preserve"
	>
<g>
	
	<path fill="currentColor" d="M51.205,62.778c-0.277,0-0.563,0-0.787,0
		c-0.299-0.274-0.563-0.517-0.818-0.752c0-0.453,0-0.883,0-1.304c-0.11-0.11-0.212-0.212-0.324-0.324
		c-0.658,0.13-1.045,0.645-1.497,1.083c-0.353,0-0.71,0-1.097,0c-0.229-0.243-0.476-0.504-0.739-0.784
		c-0.092-1.049-0.771-2.017-0.646-3.217c0.852-0.67,1.108-1.555,0.663-2.702c0.168-0.65,0.532-1.291,1.063-1.848
		c0-0.495,0-0.998,0-1.474c0.194-0.193,0.371-0.371,0.553-0.552c0.947,0.158,1.573,0.825,1.596,1.766
		c0.023,0.936,0.006,1.872,0.006,2.846c0.319,0.319,0.323,0.862,0.715,1.178c0.45-0.46,0.581-0.945,0.581-2.161
		c0.232-0.506,0.619-0.831,1.063-1.18c0.929-0.727,1.594-1.714,2.188-2.745c0.34-0.589,0.749-1.153,1.204-1.657
		c0.699-0.773,1.465-1.487,2.206-2.223c0.17-0.169,0.355-0.293,0.587-0.403c0.709-0.338,1.198-0.968,1.735-1.487
		c0.162-0.171,0.047-0.362,0.105-0.568c0.747-0.55,1.268-1.346,1.729-2.157c0.5-0.882,0.739-1.856-0.034-2.769
		c-0.225-0.266-0.263-0.659-0.596-0.81c-0.464-2.498-0.178-4.996-0.242-7.482c-0.009-0.332-0.141-0.695,0.188-1.008
		c0.108-0.104,0.105-0.533,0.003-0.608c-0.371-0.274-0.054-0.7-0.279-0.98c-0.539,0.271-0.588,0.949-1.136,1.261
		c-0.475,0.091-0.97,0.02-1.466-0.382c-0.151-0.292-0.335-0.649-0.553-1.07c-0.072-1.366,0.172-2.828-0.315-4.345
		c-0.317-0.317-0.725-0.725-1.17-1.17c0-0.273,0-0.587,0-0.821c-0.502-0.857-1.254-1.475-1.367-2.499
		c-0.102-0.132-0.4-0.021-0.491-0.268c-0.148,0.166-0.328,0.214-0.553,0.213c-0.437-0.001-0.768,0.236-1.078,0.525
		c-0.234,0.217-0.251,0.556-0.519,0.769c-0.231,0.184-0.429,0.419-0.588,0.715c-0.316,0.587-0.914,0.919-1.488,1.101
		c-0.146-0.146-0.306-0.307-0.467-0.469c-0.052,0.039-0.103,0.078-0.153,0.117c0-0.314,0-0.628,0-0.913
		c-0.303-0.234-0.241-0.722-0.784-0.784c-0.647,0.903-1.72,1.344-2.673,1.932c-0.753,0.464-1.225,1.123-1.769,1.765
		c-0.517,0.609-0.853,1.424-1.697,1.715c-0.232,0.045-0.283-0.338-0.562-0.223c-0.203,0.084-0.319-0.099-0.51-0.304
		c0.077-0.546-0.401-1.088-0.225-1.7c-0.163-0.358-0.563-0.325-0.751-0.56c-0.411,0.233-0.94,0.258-1.216,0.729
		c-0.086,0.147-0.175,0.273-0.232,0.446c-0.238,0.725-0.718,1.314-1.222,1.863c-0.312,0.341-0.428,0.769-0.653,1.144
		c-0.226,0.376,0.078,0.783,0.248,1.176c0.233,0,0.474,0,0.709,0c0.604-0.643,0.744-1.692,1.815-1.877
		c0.197,0.246,0.439,0.546,0.681,0.847c0.34,0.522-0.158,1.12-0.053,1.802c0.103,0.66-0.396,1.274-0.214,1.844
		c-0.19,0.487-0.418,0.832-0.77,1.077c-0.346,0.029-0.581-0.073-0.744-0.424c-0.256-0.548-0.422-1.168-1.006-1.518
		c-0.471,0.069-0.481,0.058-0.928,0.555c-0.178,1.051-0.327,2.106-0.465,3.165c-0.092,0.71-0.145,1.49-0.618,2.109
		c-0.207,0.27-0.231,0.568-0.21,0.875c-0.246,0.197-0.483,0.39-0.774,0.623c-0.109-0.158-0.271-0.391-0.486-0.704
		c0.088-0.39-0.382-0.77-0.52-1.255c-0.141-0.494-0.277-1.017-0.133-1.425c0.324-0.915,0.156-1.825,0.161-2.73
		c0.003-0.64,0.114-1.271,0.344-1.81c0.263-0.617-0.05-0.939-0.204-1.342c-0.383-0.035-0.307,0.207-0.366,0.347
		c-0.541,1.289-1.246,2.511-1.54,3.9c-0.023,0.112-0.166,0.202-0.16,0.365c0.038,1.056-0.437,1.955-0.847,2.887
		c-0.428,0.974-0.659,2.034-1.268,2.931c-0.035,0.052-0.049,0.135-0.038,0.197c0.113,0.643-0.259,1.212-0.268,1.833
		c-0.864,0.596-1.044,0.668-1.786,0.707c-0.31-0.325-0.63-0.662-0.954-1.002c-0.139-1.068,0.114-2.104,0.533-3.094
		c0.123-0.29,0.086-0.554,0.088-0.825c0.015-1.584,0.005-3.168,0.009-4.751c0-0.309-0.079-0.643,0.209-0.862
		c0.073-0.261-0.254-0.306-0.229-0.581c0.057-0.606,0.054-1.225,0.004-1.833c-0.03-0.375,0.385-0.61,0.234-0.99
		c0.582-0.325,0.455-0.976,0.617-1.47c0.264-0.801,0.632-1.687,1.137-2.232c0.475-0.514,0.791-1.167,1.413-1.582
		c0.22,0.025,0.462,0.016,0.658-0.262c0.28,0.175,0.598,0.274,0.985,0.309c0.343,0.943,0.835,1.803,0.802,2.829
		c-0.009,0.288,0.023,0.578-0.006,0.863c-0.072,0.719,0.185,1.321,0.631,1.94c0.742-0.81,0.722-1.943,1.318-2.804
		c0-1.01-0.022-2.055,0.008-3.098c0.017-0.571-0.213-1.054-0.377-1.574c-0.272-0.863-0.761-1.627-1.026-2.494
		c-0.135-0.442-0.085-0.957-0.439-1.328c-0.217,0.079-0.304-0.121-0.445-0.206c-0.711,0.708-1.449,1.398-1.67,2.534
		c-1.271,1.164-2.186,2.707-3.16,4.291c0,0.5,0,1.071,0,1.553c-0.261,0.876-0.893,1.162-1.615,1.331
		c-0.295,0.153-0.379-0.344-0.667-0.216c-0.67-0.821-1.497-1.505-1.865-2.574c-0.248-0.719-0.817-1.279-1.497-1.806
		c-0.407,0.532-1.092,0.719-1.45,1.371c-0.259,0.472-0.74,0.829-1.425,0.86c-0.14-0.195-0.304-0.425-0.537-0.751
		c0.076-0.309-0.196-0.738-0.349-1.183c-0.319-0.93-1.08-1.524-1.752-2.182c-0.18,0-0.36,0-0.64,0
		c-0.335,0.382-0.749,0.745-0.995,1.327c-0.281,0.662-0.655,1.299-1.347,1.713c-0.318,0.19-0.59,0.169-0.891,0.2
		c-0.205-0.132-0.293-0.377-0.576-0.45c-0.213-0.055-0.383-0.278-0.572-0.426c-0.329,0.053-0.434,0.366-0.662,0.519
		c-0.078,1.096-0.265,2.157-0.583,3.215c-0.241,0.802-0.19,1.688,0.017,2.514c0.051,0.202,0.077,0.399,0.104,0.601
		c0.06,0.44-0.121,0.898,0.197,1.329c0.12,0.163,0.115,0.547,0.003,0.732c-0.526,0.868-0.052,1.687,0.113,2.498
		c0.055,0.269,0.106,0.541,0.107,0.808c0.001,0.212,0.116,0.32,0.229,0.446c-0.207,0.547-0.15,0.96,0.102,1.833
		c0.155,0.539,0.491,0.953,0.773,1.409c0.486,0.786,0.921,1.592,0.85,2.584c0.705,0.591,0.959,1.448,1.203,2.288
		c0.351,1.206,0.686,2.422,0.773,3.69c0.13,0.292,0.191,0.682,0.419,0.879c0.311,0.27-0.006,0.754,0.469,0.9
		c-0.385,0.534-0.246,1.107-0.274,1.664c-0.425,0.75-0.681,1.558-0.637,2.427c0.03,0.605-0.162,1.086-0.628,1.504
		c-0.1,0.548,0.069,1.148-0.221,1.715c-0.089,0.176-0.11,0.425-0.294,0.514c-0.178,0.087-0.407,0.068-0.71,0.11
		c-0.557-0.911-1.529-1.538-1.913-2.612c-0.191-0.536-0.672-0.85-0.945-1.334c-0.265-0.47-0.55-0.914-0.706-1.439
		c-0.103-0.349-0.197-0.767-0.443-0.991c-0.433-0.396-0.485-0.968-0.817-1.412c-0.303-0.405-0.369-0.989-0.529-1.498
		c-0.341-1.084-0.684-2.166-1.003-3.256c-0.058-0.199-0.008-0.43-0.008-0.646c0-2.7-0.022-5.4,0.013-8.099
		c0.011-0.797,0.256-1.58,0.212-2.396c-0.044-0.826-0.01-1.655-0.009-2.483c0-0.175,0.081-0.329,0.124-0.485
		c0.125-0.454,0.289-0.894,0.338-1.385c0.082-0.828,0.319-1.654,0.839-2.34c0.212-0.28,0.433-0.546,0.422-0.905
		c-0.027-0.945,0.443-1.714,0.969-2.4c0.396-0.516,0.882-0.989,1.463-1.369c0.695-0.454,1.216-1.105,1.577-1.897
		c0.192-0.424-0.125-0.941,0.316-1.274c-0.091-0.717,0.413-1.14,0.808-1.608c0.899-1.063,2.043-1.867,3.052-2.814
		c0.304-0.286,0.756-0.415,1.159-0.625c0.114,0.102,0.217,0.194,0.338,0.302c-0.364,0.482-0.105,0.932,0.081,1.387
		c0.465,0.234,0.916,0.397,1.466,0.204c0.577-0.203,0.988-0.5,1.326-1.041c0.428-0.687,0.896-1.349,1.275-2.068
		c0.168-0.319,1.175-1.279,1.387-1.572c0.601-0.832,1.627-1.02,2.362-1.647c0.192-0.164,0.465-0.281,0.653-0.481
		c0.219-0.233,0.518-0.397,0.789-0.43c0.519-0.063,0.964-0.285,1.444-0.436c0.484-0.153,0.988-0.269,1.525-0.248
		c1.114,0.043,2.232,0.03,3.347,0.006c0.55-0.012,1.031,0.091,1.432,0.532c0,0.218,0,0.459,0,0.671
		c-0.47,0.594-1.194,0.492-1.777,0.737c-0.652,0.273-1.38,0.364-1.875,0.964c-0.138,0.167-0.398,0.238-0.607,0.342
		c-1.466,0.729-2.051,1.148-2.97,2.412c-0.55,0.756-1.087,1.527-1.425,2.431c-0.116,0.311-0.166,0.584-0.173,0.891
		c0.102,0.102,0.204,0.204,0.31,0.311c0.21,0,0.425,0,0.67,0c0.616-0.663,1.088-1.425,1.4-2.312c0.256-0.73,0.629-1.346,1.354-1.831
		c0.709-0.475,1.364-1.095,1.988-1.662c0.727,0.007,0.974-0.839,1.611-0.874c0.626-0.034,1.201-0.418,1.804-0.215
		c0.875-0.511,1.477-1.313,2.52-1.719c0.651-0.056,1.446-0.35,2.252,0.027c0.612,0.431,0.966,1.111,1.399,1.805
		c-0.676,0.677-1.426,1.342-1.719,2.338c-0.036,0.122-0.187,0.21-0.286,0.313c-0.638,0.659-1.364,1.238-1.844,2.213
		c0,0.221,0,0.607,0,0.941c0.217,0.42,0.563,0.324,0.921,0.329c0.232-0.203,0.522-0.397,0.635-0.81
		c0.344-0.15,0.741-0.323,1.137-0.499c0.291-0.129,0.407-0.457,0.433-0.677c0.073-0.653,0.458-1.166,0.818-1.6
		c0.637-0.766,0.731-1.508,0.314-2.426c0.635-0.021,1.104-0.274,1.477-0.713c0.318-0.374,0.771-0.565,1.168-0.831
		c0.467-0.312,0.977-0.298,1.488-0.122c0.661,0.228,1.301,0.518,1.983,0.688c1.093,0.272,1.986,0.877,2.761,1.677
		c0.275,0.285,0.56,0.561,0.861,0.863c0,0.219,0,0.461,0,0.695c-0.634,0.468-1.36,0.241-1.932,0.301
		c-0.78,0.391-1.457,0.756-2.156,1.073c-0.825,0.374-1.434,0.971-1.831,1.759c-0.147,0.293-0.34,0.515-0.551,0.743
		c-0.349,0.376-0.518,0.805-0.384,1.313c0.185,0.093,0.363,0.184,0.594,0.301c1.104-0.46,1.978-1.239,2.656-2.293
		c0.273-0.426,0.684-0.795,1.213-0.953c0.241-0.072,0.287,0.287,0.562,0.229c0.338-0.072,0.5,0.186,0.552,0.483
		c0.102,0.578,0.338,1.039,1.01,1.156c0.167-0.149,0.513-0.165,0.707-0.458c-0.063-0.861,0.297-1.573,0.9-2.191
		c0.451-0.463,0.997-0.591,1.615-0.498c0.973,0.716,2.071,1.295,2.847,2.228c0.89,1.069,1.92,1.999,2.822,3.044
		c0.543,0.628,0.861,1.444,1.344,2.132c0.469,0.667,0.728,1.474,1.351,2.034c0.116,0.104,0.128,0.227,0.161,0.368
		c0.154,0.652,0.436,1.257,0.753,1.847c0.766,1.423,1.079,3.008,1.613,4.515c-0.026,1.479,0.985,2.543,1.513,4.014
		c0,0.688-0.118,1.608,0.035,2.481c0.135,0.77,0.211,1.527,0.169,2.292c-0.047,0.885-0.192,1.773-0.489,2.603
		c-0.158,0.44-0.125,0.922-0.413,1.345c-0.256,0.376-0.498,0.779-0.685,1.224c-0.172,0.41-0.115,0.813-0.211,1.201
		c-0.21,0.853-0.728,1.597-0.805,2.481c-0.411,0.406-0.02,1.021-0.385,1.471c-0.087,0.108-0.143,0.384-0.251,0.53
		c-0.751,1.019-1.395,2.117-2.227,3.037c-0.637-0.315-0.323-1.209-1.044-1.542c-0.321,0.331-0.711,0.591-0.901,1.082
		c-0.253,0.65-0.672,1.201-1.208,1.661c-0.272,0.233-0.521,0.498-0.766,0.762c-0.408,0.439-0.734,0.877-0.336,1.528
		c0.261,0.427,0.179,0.98,0.433,1.44c0.229,0.417-0.282,0.771-0.2,1.23c-0.962,0.997-2.105,1.817-3.129,2.762
		C53.662,61.408,52.333,61.828,51.205,62.778z"/>
	<path fill="currentColor" d="M41.303,66.229c-0.409,0.383-0.407,0.908-1.113,1.056
		c-0.638-0.13-1.459,0.47-2.12,0.284c-0.685-0.231-1.015-0.55-1.167-1.021c0.766-1.11,0.803-2.436,1.084-3.744
		c-0.281,0-0.45,0-0.63,0c-0.468,0.649-0.796,1.396-1.465,1.903c-0.428,0.063-0.873,0.071-1.377-0.352
		c-0.301-0.47-0.706-1.081-0.696-1.886c0.002-0.227-0.302-0.441-0.402-0.688c-0.223-0.543-0.304-1.052-0.075-1.679
		c0.274-0.751,0.515-1.541,0.525-2.385c0.005-0.443,0.233-0.903,0.433-1.32c0.376-0.781,0.829-1.526,1.203-2.309
		c0.261-0.544,0.545-1.097,0.494-1.775c0.588-0.538,1.043-1.329,2.059-1.19c0.175,0.175,0.353,0.353,0.537,0.537
		c0,0.424,0.167,0.986-0.042,1.254c-0.279,0.357-0.029,0.749-0.313,1.081c-0.29,0.338-0.052,0.849-0.202,1.306
		c-0.186,0.562-0.225,1.208-0.302,1.82c-0.021,0.164-0.016,0.324,0.104,0.496c0.399,0.575,0.19,1.332,0.532,1.937
		c0.046,0.08,0.049,0.26-0.005,0.311c-0.422,0.395-0.093,0.884-0.223,1.29c0.614,0.461,1.004,0.444,1.584-0.047
		c0.316-0.268,0.641-0.533,0.953-0.794c0.457-0.38,0.969-0.64,1.527-0.973c0.351,0,0.779,0,1.255,0
		c0.687,0.599,1.096,1.516,1.878,2.073c0.295,0.21,0.181,0.518,0.266,0.758c0.246,0.692,0.753,1.34,0.488,2.263
		c-0.285,0.543-0.95,0.787-1.646,1.152C43.382,65.401,42.457,66.429,41.303,66.229z"/>
	<path fill="currentColor" d="M53.708,35.952c-0.038,0.612,0.108,1.295-0.075,1.956
		c-0.159,0.577-0.394,1.147-0.648,1.669c-0.184,0.373,0.146,0.927-0.433,1.1c-0.123-0.149-0.271-0.328-0.418-0.507
		c-0.236-0.213-0.096-0.556-0.348-0.885c-0.582-0.762-0.763-1.687-0.653-2.628c0.099-0.859-0.273-1.656-0.236-2.433
		c-0.21-0.407-0.395-0.764-0.573-1.11c-0.212-1.863-0.358-3.73-0.285-5.609c0.032-0.809,0.294-1.501,0.798-2.156
		c0.549-0.714,0.942-1.523,1.177-2.423c0.115-0.441,0.176-0.868,0.188-1.291c0.25-0.249,0.479-0.478,0.731-0.73
		c0.288,0,0.602,0,0.91,0c0.712,0.677,1.258,1.479,1.809,2.26c0.101,0.264-0.237,0.329-0.221,0.571
		c0.023,0.34,0.012,0.663-0.176,1.005c-0.117,0.216-0.073,0.59,0.075,0.911c0.244,0.527,0.38,1.09,0.34,1.698
		c-0.033,0.489-0.181,1.055,0.081,1.464c0.267,0.417-0.132,0.943,0.328,1.281c0.068,0.05,0.056,0.296,0.002,0.415
		c-0.371,0.813-0.134,1.669-0.217,2.482C55.238,34.036,54.443,34.94,53.708,35.952z"/>
	<path fill="currentColor" d="M17.648,46.716c0.484-0.369,0.929-0.392,1.441-0.315
		c0.507,0.556,1.063,1.129,0.511,2.045c-0.111,0.185-0.001,0.495-0.02,0.745c-0.027,0.389,0.329,0.675,0.236,1.102
		c-0.071,0.324-0.082,0.686,0.185,0.997c0.089,0.104,0.006,0.349,0.016,0.527c0.068,1.368,0.391,2.668,1.017,3.895
		c0.195,0.382,0.317,0.802,0.481,1.199c0.075,0.212-0.223,0.263-0.201,0.447c0.055,0.441-0.187,0.775-0.356,1.148
		c-0.293,0.646-0.622,1.292-0.504,1.997c-0.292,0.287-0.342,0.637-0.521,0.983c-1.084,0.027-2.034-0.348-2.842-1.093
		c-0.37-0.341-0.718-0.705-1.069-1.066c-0.711-0.73-0.962-1.661-0.724-2.589c0.215-0.841,0.318-1.673,0.437-2.521
		c0.103-0.733,0.273-1.528,0.836-2.141c-0.086-0.605,0.16-1.258-0.222-1.843c-0.033-0.051-0.032-0.157,0-0.211
		c0.583-1.021,0.586-2.271,1.29-3.242C17.656,46.756,17.648,46.713,17.648,46.716z"/>
	<path fill="currentColor" d="M26.074,57.094c0.662-1.026,0.889-2.282,1.906-3.01
		c0.083-0.835,0.387-1.593,0.699-2.322c0.338-0.794,0.474-1.579,0.394-2.396c0.237-0.369,0.371-0.778,0.841-1.059
		c0.474-0.184,0.958,0.224,1.564,0.28c-0.106,0.533,0.075,1.049-0.195,1.624c-0.284,0.604,0.125,1.284,0.245,1.922
		c0.125,0.666,0.368,1.311,0.369,2.001c0.001,1.978,0,3.955,0,5.969c-0.404,0.111-0.355,0.639-0.798,0.831
		c-0.315,0.138-0.636,0.369-0.955,0.559c-0.177,0.105-0.327,0.26-0.484,0.396c-0.378,0.331-0.797,0.541-1.338,0.453
		c-0.287-0.294-0.588-0.602-0.895-0.915c-0.375-0.91-0.505-1.913-1.043-2.796C26.119,58.196,25.938,57.621,26.074,57.094z"/>
	<path fill="currentColor" d="M21.684,25.416c0.488,0.736,1.165,1.373,1.424,2.302
		c0.053,0.188,0.154,0.376,0.146,0.582c-0.024,0.594,0.204,1.131,0.363,1.683c0.1,0.346,0.137,0.686-0.008,1.014
		c-0.208,0.472-0.11,0.9-0.01,1.392c0.128,0.63,0.343,1.257,0.319,1.928c-0.021,0.587,0.152,1.15,0.625,1.566
		c0.039,0.851,0.101,1.709-0.813,2.273c-0.287,0-0.646,0-1.045,0c-0.1-0.108-0.197-0.303-0.347-0.36
		c-1.319-0.511-1.922-1.524-2.119-2.867c-0.036-0.249-0.243-0.47-0.361-0.709c-0.271-0.547-0.409-1.144-0.472-1.738
		c-0.052-0.491-0.092-0.93-0.423-1.345c-0.225-0.282-0.339-0.679-0.203-1.126c0.662-0.419,0.793-1.266,1.255-1.932
		c0-0.536,0-1.11,0-1.645c0.24-0.376,0.358-0.807,0.924-1.019C21.061,25.416,21.348,25.416,21.684,25.416z"/>
	<path fill="currentColor" d="M45.344,24.171c0.499-0.313,1.044-0.31,1.586-0.236
		c0.579,0.453,0.549,1.167,0.691,1.763c0.093,0.385,0.355,0.749,0.27,1.196c-0.07,0.366-0.052,0.728-0.193,1.106
		c-0.147,0.393-0.347,0.817-0.261,1.301c0.168,0.948-0.26,1.82-0.467,2.715c-0.041,0.176-0.182,0.357-0.17,0.572
		c0.058,1.051-0.214,2.022-0.761,2.947c-0.155,0.024-0.356,0.111-0.54-0.077c-0.248-0.254-0.428-0.539-0.425-0.902
		c0.005-0.591-0.283-1.116-0.375-1.669c-0.087-0.525-0.379-0.91-0.668-1.229c-0.519-0.573-0.893-1.265-1.491-1.771
		c-0.199-0.168-0.313-0.44-0.486-0.697c0.04-0.307-0.106-0.649,0.111-0.986c0.382-0.588,0.365-1.39,0.993-1.853
		c0.165-0.121,0.331-0.224,0.511-0.323C44.452,25.599,44.947,25.229,45.344,24.171z"/>
	<path fill="currentColor" d="M13.321,26.956c-0.15-1.194,0.538-2.188,1.1-3.241c0.488,0,0.945,0,1.463,0
		c0.323,0.715,0.855,1.337,1.311,2.011c0.051,0.73-0.056,1.413-0.324,2.117c-0.278,0.73-0.227,1.596-0.043,2.319
		c0.163,0.641,0.074,1.243,0.173,1.818c-0.419,0.627-0.809,1.218-1.095,1.844c-0.643,0-1.214,0-1.813,0
		c-0.524-0.329-0.796-0.932-1.167-1.417c-0.292-0.382-0.544-0.914-0.489-1.518c0.072-0.781,0.018-1.574,0.018-2.252
		C12.764,28.039,13.024,27.532,13.321,26.956z"/>
	<path fill="currentColor" d="M25.571,64.705c-0.355,0-0.708,0-1.096,0
		c-0.592-0.364-1.268-0.637-1.974-0.843c-1.09-0.318-1.251-0.755-1-1.859c0.164-0.722,0.633-1.39,0.458-2.183
		c0.353-0.313,0.079-0.813,0.34-1.148c0.074-0.094,0.104-0.182,0.091-0.286c-0.095-0.711,0.078-1.362,0.541-2.021
		c0.262-0.115,0.591-0.424,1.184-0.175c0.172,0.13,0.41,0.41,0.564,0.772c0.117,0.273,0.168,0.563,0.021,0.794
		c-0.3,0.472-0.064,0.971-0.149,1.447c0.466,0.381,0.001,1.022,0.413,1.453c0.125,0.132,0.019,0.481,0.019,0.636
		C25.539,62.425,26.254,63.432,25.571,64.705z"/>
	<path fill="currentColor" d="M30.383,66.99c-0.13-0.717-0.65-1.318-0.662-1.995
		c0.47-0.47,0.89-0.889,1.374-1.372c0.282-0.065,0.481,0.344,0.807,0.298c0.517,0.808,0.558,1.702,0.842,2.513
		c0.096,0.273,0.11,0.651-0.37,0.881C31.769,67.276,31.03,67.483,30.383,66.99z"/>
</g>
</svg>
