<?xml version="1.0" encoding="iso-8859-1"?>
<!-- Generator: Adobe Illustrator 16.0.0, SVG Export Plug-In . SVG Version: 6.00 Build 0)  -->
<!DOCTYPE svg PUBLIC "-//W3C//DTD SVG 1.1//EN" "http://www.w3.org/Graphics/SVG/1.1/DTD/svg11.dtd">
<svg version="1.1" id="Layer_1" xmlns="http://www.w3.org/2000/svg" xmlns:xlink="http://www.w3.org/1999/xlink" x="0px" y="0px"
	 width="72.36px" height="72.18px" viewBox="0 0 72.36 72.18" style="enable-background:new 0 0 72.36 72.18;" xml:space="preserve"
	>
<g>
	<path style="fill-rule:evenodd;clip-rule:evenodd;fill:none;" d="M79.416,79.631c-28.8,0-57.6,0-86.399,0
		c0-28.871,0-57.743,0-86.615c28.8,0,57.6,0,86.399,0C79.416,21.888,79.416,50.76,79.416,79.631z M51.205,62.778
		c1.128-0.95,2.457-1.37,3.487-2.319c1.023-0.944,2.167-1.765,3.129-2.762c-0.082-0.459,0.43-0.813,0.2-1.23
		c-0.254-0.46-0.172-1.014-0.433-1.44c-0.398-0.651-0.072-1.089,0.336-1.528c0.245-0.264,0.493-0.528,0.766-0.762
		c0.536-0.46,0.955-1.011,1.208-1.661c0.19-0.491,0.58-0.751,0.901-1.082c0.721,0.333,0.407,1.227,1.044,1.542
		c0.832-0.92,1.476-2.019,2.227-3.037c0.108-0.146,0.164-0.422,0.251-0.53c0.365-0.45-0.026-1.064,0.385-1.471
		c0.077-0.885,0.595-1.629,0.805-2.481c0.096-0.388,0.039-0.791,0.211-1.201c0.187-0.444,0.429-0.848,0.685-1.224
		c0.288-0.423,0.255-0.904,0.413-1.345c0.297-0.829,0.442-1.718,0.489-2.603c0.042-0.764-0.034-1.521-0.169-2.292
		c-0.153-0.873-0.035-1.793-0.035-2.481c-0.527-1.471-1.539-2.536-1.513-4.014c-0.534-1.506-0.848-3.092-1.613-4.515
		c-0.317-0.589-0.599-1.194-0.753-1.847c-0.033-0.142-0.045-0.264-0.161-0.368c-0.623-0.561-0.882-1.367-1.351-2.034
		c-0.482-0.688-0.801-1.503-1.344-2.132c-0.902-1.046-1.933-1.975-2.822-3.044c-0.775-0.933-1.874-1.512-2.846-2.228
		c-0.619-0.093-1.165,0.035-1.616,0.498c-0.604,0.618-0.964,1.33-0.9,2.191c-0.194,0.293-0.54,0.308-0.707,0.458
		c-0.672-0.118-0.908-0.579-1.01-1.156c-0.052-0.297-0.214-0.555-0.552-0.483c-0.274,0.058-0.32-0.3-0.562-0.229
		c-0.529,0.158-0.939,0.527-1.213,0.953c-0.679,1.054-1.552,1.833-2.656,2.293c-0.23-0.117-0.409-0.208-0.594-0.301
		c-0.134-0.508,0.035-0.937,0.384-1.313c0.211-0.228,0.403-0.45,0.551-0.743c0.397-0.788,1.006-1.386,1.831-1.759
		c0.699-0.316,1.376-0.682,2.156-1.073c0.571-0.06,1.298,0.167,1.932-0.301c0-0.234,0-0.476,0-0.695
		c-0.302-0.302-0.586-0.578-0.861-0.863c-0.774-0.8-1.668-1.405-2.761-1.677c-0.683-0.17-1.322-0.46-1.983-0.688
		c-0.512-0.176-1.021-0.19-1.488,0.122c-0.396,0.266-0.85,0.458-1.168,0.831c-0.373,0.438-0.842,0.692-1.477,0.713
		c0.417,0.918,0.322,1.66-0.314,2.426c-0.36,0.434-0.745,0.947-0.818,1.6c-0.025,0.22-0.142,0.547-0.433,0.677
		c-0.396,0.176-0.793,0.348-1.137,0.499c-0.112,0.412-0.402,0.606-0.635,0.81c-0.357-0.005-0.704,0.091-0.921-0.329
		c0-0.334,0-0.72,0-0.941c0.479-0.975,1.206-1.554,1.844-2.213c0.1-0.103,0.25-0.191,0.286-0.313
		c0.293-0.997,1.043-1.662,1.719-2.338c-0.434-0.694-0.787-1.375-1.399-1.805c-0.806-0.377-1.601-0.083-2.252-0.027
		c-1.043,0.406-1.645,1.208-2.52,1.719c-0.603-0.203-1.178,0.181-1.804,0.215c-0.638,0.035-0.885,0.881-1.611,0.874
		c-0.625,0.567-1.279,1.187-1.988,1.662c-0.725,0.485-1.098,1.101-1.354,1.831c-0.312,0.887-0.784,1.649-1.4,2.312
		c-0.246,0-0.46,0-0.67,0c-0.106-0.107-0.208-0.208-0.311-0.311c0.008-0.307,0.058-0.58,0.174-0.891
		c0.337-0.904,0.875-1.675,1.425-2.431c0.918-1.263,1.504-1.683,2.97-2.412c0.209-0.104,0.469-0.175,0.607-0.342
		c0.495-0.6,1.223-0.691,1.875-0.964c0.583-0.245,1.308-0.143,1.777-0.737c0-0.212,0-0.453,0-0.671
		c-0.401-0.441-0.882-0.544-1.432-0.532c-1.115,0.024-2.233,0.038-3.347-0.006c-0.537-0.021-1.041,0.094-1.525,0.248
		c-0.479,0.151-0.925,0.374-1.444,0.436c-0.271,0.033-0.57,0.197-0.789,0.43c-0.188,0.2-0.461,0.317-0.653,0.481
		c-0.735,0.627-1.761,0.815-2.362,1.647c-0.212,0.293-1.219,1.253-1.387,1.572c-0.379,0.719-0.847,1.381-1.275,2.068
		c-0.337,0.541-0.749,0.837-1.326,1.041c-0.55,0.193-1.001,0.031-1.466-0.204c-0.187-0.455-0.445-0.904-0.081-1.387
		c-0.121-0.108-0.225-0.2-0.338-0.302c-0.403,0.21-0.855,0.339-1.159,0.625c-1.009,0.947-2.152,1.75-3.052,2.814
		c-0.396,0.468-0.899,0.891-0.808,1.608c-0.441,0.333-0.124,0.85-0.316,1.274c-0.361,0.792-0.881,1.443-1.577,1.897
		c-0.581,0.379-1.067,0.853-1.463,1.369c-0.526,0.686-0.997,1.456-0.969,2.4c0.01,0.359-0.21,0.625-0.422,0.905
		c-0.52,0.687-0.757,1.513-0.839,2.34c-0.049,0.491-0.213,0.931-0.338,1.385c-0.043,0.156-0.124,0.311-0.124,0.485
		c0,0.828-0.035,1.657,0.009,2.483c0.044,0.815-0.202,1.599-0.212,2.396c-0.035,2.699-0.013,5.399-0.013,8.099
		c0,0.216-0.05,0.446,0.008,0.646c0.319,1.09,0.663,2.172,1.003,3.256c0.16,0.509,0.226,1.093,0.529,1.498
		c0.332,0.444,0.384,1.017,0.817,1.412c0.246,0.225,0.34,0.643,0.443,0.991c0.156,0.525,0.441,0.97,0.706,1.439
		c0.272,0.484,0.753,0.798,0.945,1.334c0.384,1.074,1.355,1.701,1.913,2.612c0.303-0.042,0.532-0.023,0.71-0.11
		c0.184-0.089,0.205-0.338,0.294-0.514c0.29-0.566,0.121-1.167,0.221-1.715c0.466-0.418,0.658-0.898,0.628-1.504
		c-0.043-0.869,0.212-1.677,0.637-2.427c0.028-0.557-0.111-1.13,0.274-1.664c-0.476-0.146-0.159-0.631-0.469-0.9
		c-0.228-0.197-0.289-0.587-0.419-0.879c-0.088-1.269-0.422-2.484-0.773-3.69c-0.244-0.84-0.498-1.697-1.203-2.288
		c0.072-0.992-0.363-1.798-0.85-2.584c-0.282-0.456-0.618-0.87-0.773-1.409c-0.252-0.873-0.308-1.286-0.102-1.833
		c-0.114-0.126-0.229-0.234-0.229-0.446c-0.001-0.267-0.053-0.539-0.107-0.808c-0.165-0.811-0.639-1.629-0.113-2.498
		c0.111-0.185,0.117-0.569-0.003-0.732c-0.318-0.431-0.137-0.889-0.197-1.329c-0.027-0.201-0.053-0.399-0.104-0.601
		c-0.208-0.827-0.258-1.712-0.017-2.514c0.318-1.058,0.505-2.119,0.583-3.215c0.228-0.152,0.333-0.466,0.662-0.519
		c0.189,0.148,0.359,0.371,0.572,0.426c0.282,0.073,0.371,0.318,0.576,0.45c0.301-0.031,0.572-0.01,0.891-0.2
		c0.692-0.414,1.066-1.051,1.347-1.713c0.246-0.582,0.659-0.944,0.995-1.327c0.28,0,0.46,0,0.64,0
		c0.672,0.658,1.433,1.252,1.752,2.182c0.153,0.445,0.425,0.874,0.349,1.183c0.233,0.326,0.397,0.556,0.537,0.751
		c0.685-0.032,1.166-0.389,1.425-0.86c0.358-0.652,1.042-0.838,1.45-1.371c0.68,0.527,1.249,1.086,1.497,1.806
		c0.368,1.069,1.195,1.753,1.865,2.574c0.287-0.128,0.372,0.369,0.667,0.216c0.722-0.169,1.354-0.455,1.615-1.331
		c0-0.482,0-1.053,0-1.553c0.974-1.584,1.89-3.127,3.16-4.291c0.221-1.136,0.958-1.826,1.67-2.534
		c0.141,0.085,0.228,0.285,0.444,0.207c0.354,0.371,0.304,0.885,0.439,1.328c0.265,0.867,0.754,1.631,1.026,2.494
		c0.165,0.52,0.394,1.002,0.377,1.574c-0.03,1.043-0.008,2.088-0.008,3.098c-0.596,0.861-0.576,1.994-1.318,2.804
		c-0.446-0.62-0.703-1.222-0.631-1.94c0.029-0.285-0.003-0.576,0.006-0.863c0.033-1.026-0.459-1.886-0.802-2.829
		c-0.387-0.035-0.705-0.134-0.985-0.309c-0.196,0.278-0.438,0.288-0.658,0.262c-0.622,0.415-0.938,1.068-1.413,1.582
		c-0.505,0.546-0.873,1.432-1.137,2.232c-0.163,0.494-0.035,1.145-0.617,1.47c0.15,0.379-0.265,0.615-0.234,0.99
		c0.05,0.608,0.053,1.227-0.004,1.833c-0.025,0.274,0.302,0.32,0.229,0.581c-0.288,0.22-0.208,0.553-0.209,0.862
		c-0.003,1.583,0.006,3.167-0.009,4.751c-0.002,0.271,0.034,0.535-0.088,0.825c-0.419,0.99-0.672,2.025-0.533,3.094
		c0.324,0.34,0.645,0.677,0.954,1.002c0.741-0.039,0.921-0.111,1.786-0.707c0.009-0.621,0.381-1.19,0.268-1.833
		c-0.011-0.063,0.003-0.146,0.038-0.197c0.609-0.897,0.84-1.958,1.268-2.931c0.411-0.933,0.885-1.832,0.847-2.887
		c-0.006-0.163,0.137-0.253,0.16-0.365c0.294-1.389,0.999-2.612,1.54-3.9c0.059-0.14-0.017-0.382,0.366-0.347
		c0.153,0.403,0.467,0.726,0.204,1.342c-0.23,0.539-0.341,1.17-0.344,1.81c-0.005,0.905,0.163,1.815-0.161,2.73
		c-0.145,0.408-0.008,0.931,0.133,1.425c0.138,0.485,0.608,0.865,0.52,1.255c0.216,0.313,0.377,0.545,0.486,0.704
		c0.291-0.233,0.529-0.426,0.774-0.623c-0.021-0.307,0.004-0.605,0.21-0.875c0.474-0.619,0.526-1.399,0.618-2.109
		c0.138-1.058,0.287-2.113,0.465-3.165c0.446-0.498,0.457-0.486,0.928-0.555c0.584,0.349,0.75,0.97,1.006,1.518
		c0.163,0.351,0.398,0.453,0.744,0.424c0.352-0.245,0.579-0.59,0.77-1.077c-0.183-0.569,0.316-1.184,0.214-1.844
		c-0.105-0.682,0.393-1.28,0.053-1.802c-0.241-0.301-0.483-0.602-0.681-0.847c-1.071,0.185-1.211,1.235-1.815,1.877
		c-0.235,0-0.477,0-0.709,0c-0.17-0.394-0.474-0.8-0.248-1.176c0.225-0.375,0.341-0.802,0.653-1.144
		c0.504-0.549,0.983-1.138,1.222-1.863c0.058-0.173,0.146-0.299,0.232-0.446c0.275-0.47,0.805-0.495,1.216-0.729
		c0.188,0.235,0.588,0.202,0.751,0.56c-0.177,0.611,0.302,1.153,0.225,1.7c0.19,0.205,0.307,0.389,0.51,0.304
		c0.278-0.115,0.329,0.268,0.562,0.222c0.845-0.291,1.181-1.105,1.697-1.714c0.544-0.642,1.016-1.301,1.769-1.765
		c0.953-0.588,2.025-1.029,2.673-1.932c0.543,0.062,0.481,0.55,0.784,0.784c0,0.285,0,0.599,0,0.913
		c0.051-0.039,0.102-0.078,0.153-0.117c0.161,0.162,0.321,0.323,0.467,0.469c0.574-0.181,1.172-0.513,1.488-1.101
		c0.159-0.296,0.356-0.531,0.588-0.715c0.268-0.213,0.284-0.552,0.519-0.769c0.311-0.289,0.642-0.526,1.078-0.525
		c0.225,0,0.404-0.047,0.553-0.213c0.091,0.247,0.39,0.136,0.491,0.268c0.113,1.024,0.865,1.642,1.367,2.499
		c0,0.234,0,0.548,0,0.821c0.445,0.445,0.853,0.853,1.17,1.17c0.487,1.517,0.243,2.979,0.315,4.345
		c0.218,0.421,0.401,0.778,0.553,1.07c0.496,0.402,0.991,0.473,1.466,0.382c0.548-0.312,0.597-0.99,1.136-1.261
		c0.226,0.28-0.092,0.706,0.279,0.98c0.103,0.076,0.105,0.505-0.003,0.608c-0.328,0.313-0.196,0.677-0.188,1.008
		c0.064,2.487-0.222,4.985,0.242,7.482c0.333,0.15,0.371,0.544,0.596,0.81c0.773,0.912,0.534,1.887,0.034,2.769
		c-0.461,0.812-0.981,1.607-1.729,2.157c-0.059,0.206,0.057,0.397-0.105,0.568c-0.537,0.52-1.026,1.149-1.735,1.487
		c-0.231,0.11-0.417,0.234-0.587,0.403c-0.741,0.735-1.507,1.449-2.206,2.223c-0.455,0.504-0.864,1.068-1.204,1.657
		c-0.594,1.031-1.259,2.019-2.188,2.745c-0.444,0.349-0.831,0.674-1.063,1.18c0,1.216-0.131,1.701-0.581,2.161
		c-0.392-0.315-0.396-0.858-0.715-1.178c0-0.974,0.018-1.91-0.006-2.846c-0.022-0.94-0.648-1.607-1.596-1.766
		c-0.182,0.181-0.358,0.358-0.553,0.552c0,0.476,0,0.979,0,1.474c-0.531,0.557-0.896,1.197-1.063,1.848
		c0.445,1.147,0.188,2.032-0.663,2.702c-0.125,1.2,0.555,2.168,0.646,3.217c0.264,0.28,0.51,0.541,0.739,0.784
		c0.387,0,0.744,0,1.097,0c0.452-0.438,0.839-0.953,1.497-1.083c0.112,0.112,0.214,0.214,0.324,0.324c0,0.421,0,0.851,0,1.304
		c0.256,0.235,0.52,0.478,0.818,0.752C50.641,62.778,50.927,62.778,51.205,62.778z M41.303,66.229
		c1.153,0.2,2.079-0.827,3.145-0.642c0.695-0.365,1.36-0.609,1.646-1.152c0.265-0.923-0.242-1.57-0.488-2.263
		c-0.085-0.24,0.029-0.548-0.266-0.758c-0.782-0.558-1.191-1.475-1.878-2.073c-0.476,0-0.904,0-1.255,0
		c-0.559,0.333-1.07,0.593-1.527,0.973c-0.313,0.261-0.637,0.526-0.953,0.794c-0.58,0.491-0.97,0.508-1.584,0.047
		c0.13-0.406-0.199-0.896,0.223-1.29c0.054-0.051,0.051-0.23,0.005-0.311c-0.342-0.604-0.133-1.361-0.532-1.937
		c-0.119-0.172-0.125-0.332-0.104-0.496c0.077-0.612,0.116-1.259,0.302-1.82c0.15-0.457-0.088-0.968,0.202-1.306
		c0.283-0.332,0.033-0.724,0.313-1.081c0.209-0.268,0.042-0.83,0.042-1.254c-0.185-0.185-0.362-0.362-0.537-0.537
		c-1.016-0.139-1.471,0.652-2.059,1.19c0.051,0.679-0.233,1.231-0.494,1.775c-0.375,0.782-0.827,1.527-1.203,2.309
		c-0.2,0.417-0.428,0.877-0.433,1.32c-0.01,0.844-0.251,1.634-0.525,2.385c-0.229,0.627-0.148,1.136,0.075,1.679
		c0.101,0.246,0.405,0.461,0.402,0.688c-0.01,0.805,0.395,1.416,0.696,1.886c0.505,0.423,0.95,0.414,1.377,0.352
		c0.669-0.508,0.998-1.254,1.465-1.903c0.18,0,0.349,0,0.63,0c-0.281,1.309-0.318,2.634-1.084,3.744
		c0.152,0.472,0.482,0.79,1.167,1.021c0.661,0.186,1.482-0.414,2.12-0.284C40.896,67.137,40.894,66.611,41.303,66.229z
		 M53.708,35.952c0.735-1.012,1.53-1.916,2.156-2.96c0.083-0.813-0.154-1.669,0.217-2.482c0.054-0.119,0.066-0.365-0.002-0.415
		c-0.46-0.338-0.062-0.864-0.328-1.281c-0.262-0.409-0.114-0.975-0.081-1.464c0.04-0.608-0.096-1.171-0.34-1.698
		c-0.148-0.32-0.192-0.695-0.075-0.911c0.188-0.342,0.199-0.666,0.176-1.005c-0.017-0.243,0.321-0.307,0.221-0.571
		c-0.551-0.781-1.097-1.583-1.809-2.26c-0.309,0-0.622,0-0.91,0c-0.253,0.253-0.481,0.481-0.731,0.73
		c-0.013,0.422-0.073,0.85-0.188,1.291c-0.234,0.9-0.628,1.709-1.177,2.423c-0.504,0.655-0.766,1.347-0.798,2.156
		c-0.073,1.878,0.073,3.746,0.285,5.609c0.179,0.346,0.363,0.703,0.573,1.11c-0.037,0.777,0.335,1.574,0.236,2.433
		c-0.109,0.942,0.071,1.867,0.653,2.628c0.252,0.329,0.111,0.672,0.348,0.885c0.147,0.179,0.295,0.357,0.418,0.507
		c0.579-0.173,0.249-0.727,0.433-1.1c0.255-0.521,0.489-1.092,0.648-1.669C53.816,37.247,53.669,36.564,53.708,35.952z
		 M17.648,46.716c0-0.003,0.008,0.04-0.01,0.064c-0.704,0.972-0.707,2.222-1.29,3.242c-0.031,0.054-0.033,0.16,0,0.211
		c0.382,0.585,0.136,1.237,0.222,1.843c-0.563,0.612-0.733,1.407-0.836,2.141c-0.119,0.849-0.222,1.681-0.437,2.521
		c-0.238,0.928,0.013,1.858,0.724,2.589c0.351,0.361,0.699,0.726,1.069,1.066c0.808,0.745,1.758,1.12,2.842,1.093
		c0.179-0.347,0.229-0.696,0.521-0.983c-0.117-0.705,0.211-1.352,0.504-1.997c0.17-0.373,0.412-0.707,0.356-1.148
		c-0.022-0.185,0.276-0.235,0.201-0.447c-0.164-0.397-0.287-0.817-0.481-1.199c-0.625-1.227-0.949-2.526-1.017-3.895
		c-0.009-0.179,0.073-0.423-0.016-0.527c-0.267-0.312-0.256-0.673-0.185-0.997c0.093-0.427-0.264-0.713-0.236-1.102
		c0.018-0.25-0.092-0.561,0.02-0.745c0.553-0.916-0.004-1.489-0.511-2.045C18.577,46.324,18.132,46.347,17.648,46.716z
		 M26.074,57.094c-0.136,0.527,0.045,1.103,0.31,1.537c0.538,0.883,0.667,1.886,1.043,2.796c0.307,0.313,0.607,0.621,0.895,0.915
		c0.541,0.088,0.959-0.122,1.338-0.453c0.157-0.137,0.307-0.291,0.484-0.396c0.319-0.189,0.64-0.421,0.955-0.559
		c0.442-0.192,0.394-0.72,0.798-0.831c0-2.014,0.001-3.991,0-5.969c0-0.69-0.244-1.335-0.369-2.001
		c-0.12-0.638-0.528-1.317-0.245-1.922c0.271-0.575,0.089-1.091,0.195-1.624c-0.605-0.057-1.09-0.464-1.564-0.28
		c-0.47,0.28-0.604,0.689-0.841,1.059c0.08,0.817-0.056,1.603-0.394,2.396c-0.312,0.729-0.616,1.487-0.699,2.322
		C26.963,54.812,26.736,56.067,26.074,57.094z M21.684,25.416c-0.335,0-0.623,0-0.744,0c-0.566,0.212-0.685,0.642-0.924,1.019
		c0,0.534,0,1.108,0,1.645c-0.462,0.666-0.594,1.513-1.255,1.932c-0.136,0.448-0.022,0.845,0.203,1.126
		c0.331,0.415,0.371,0.854,0.423,1.345c0.063,0.594,0.201,1.19,0.472,1.738c0.119,0.239,0.325,0.46,0.361,0.709
		c0.197,1.343,0.8,2.356,2.119,2.867c0.15,0.058,0.247,0.252,0.347,0.36c0.399,0,0.758,0,1.045,0
		c0.914-0.564,0.851-1.423,0.813-2.273c-0.473-0.416-0.646-0.979-0.625-1.566c0.024-0.671-0.191-1.298-0.319-1.928
		c-0.1-0.492-0.198-0.92,0.01-1.392c0.145-0.328,0.107-0.668,0.008-1.014c-0.159-0.551-0.388-1.089-0.363-1.683
		c0.008-0.206-0.093-0.393-0.146-0.582C22.849,26.789,22.172,26.151,21.684,25.416z M45.344,24.171
		c-0.397,1.058-0.893,1.428-1.675,1.858c-0.18,0.099-0.346,0.202-0.511,0.323c-0.628,0.463-0.611,1.265-0.993,1.853
		c-0.218,0.337-0.071,0.679-0.111,0.986c0.174,0.257,0.287,0.528,0.486,0.697c0.599,0.507,0.973,1.198,1.491,1.771
		c0.289,0.319,0.581,0.703,0.668,1.229c0.092,0.553,0.38,1.078,0.375,1.669c-0.003,0.363,0.177,0.648,0.425,0.902
		c0.184,0.188,0.385,0.102,0.54,0.077c0.547-0.925,0.818-1.896,0.761-2.947c-0.012-0.214,0.129-0.396,0.17-0.572
		c0.207-0.895,0.635-1.767,0.467-2.715c-0.086-0.484,0.113-0.908,0.261-1.301c0.142-0.379,0.123-0.74,0.193-1.106
		c0.086-0.447-0.177-0.812-0.27-1.196c-0.143-0.596-0.112-1.311-0.691-1.763C46.388,23.861,45.843,23.857,45.344,24.171z
		 M13.321,26.956c-0.296,0.576-0.557,1.083-0.865,1.682c0,0.678,0.055,1.471-0.018,2.252c-0.056,0.604,0.197,1.136,0.489,1.518
		c0.371,0.485,0.642,1.089,1.167,1.417c0.599,0,1.169,0,1.813,0c0.286-0.626,0.676-1.217,1.095-1.844
		c-0.099-0.575-0.01-1.177-0.173-1.818c-0.184-0.723-0.235-1.589,0.043-2.319c0.268-0.705,0.375-1.387,0.323-2.117
		c-0.456-0.674-0.987-1.296-1.311-2.011c-0.518,0-0.975,0-1.463,0C13.858,24.769,13.17,25.762,13.321,26.956z M25.571,64.705
		c0.684-1.273-0.032-2.28-0.587-3.413c0-0.154,0.105-0.504-0.019-0.636c-0.411-0.431,0.054-1.072-0.413-1.453
		c0.084-0.477-0.151-0.976,0.149-1.447c0.146-0.23,0.095-0.521-0.021-0.794c-0.155-0.362-0.392-0.643-0.564-0.772
		c-0.593-0.249-0.921,0.06-1.184,0.175c-0.463,0.659-0.636,1.311-0.541,2.021c0.014,0.104-0.017,0.192-0.091,0.286
		c-0.261,0.335,0.013,0.835-0.34,1.148c0.175,0.793-0.294,1.461-0.458,2.183c-0.252,1.104-0.091,1.541,1,1.859
		c0.706,0.206,1.382,0.479,1.974,0.843C24.863,64.705,25.216,64.705,25.571,64.705z M30.383,66.99
		c0.647,0.493,1.386,0.286,1.99,0.324c0.48-0.229,0.466-0.607,0.37-0.881c-0.284-0.811-0.325-1.705-0.842-2.513
		c-0.326,0.046-0.525-0.363-0.807-0.298c-0.484,0.483-0.903,0.902-1.374,1.372C29.732,65.672,30.252,66.273,30.383,66.99z"/>
	<path fill="currentColor" d="M51.205,62.778c-0.277,0-0.563,0-0.787,0
		c-0.299-0.274-0.563-0.517-0.818-0.752c0-0.453,0-0.883,0-1.304c-0.11-0.11-0.212-0.212-0.324-0.324
		c-0.658,0.13-1.045,0.645-1.497,1.083c-0.353,0-0.71,0-1.097,0c-0.229-0.243-0.476-0.504-0.739-0.784
		c-0.092-1.049-0.771-2.017-0.646-3.217c0.852-0.67,1.108-1.555,0.663-2.702c0.168-0.65,0.532-1.291,1.063-1.848
		c0-0.495,0-0.998,0-1.474c0.194-0.193,0.371-0.371,0.553-0.552c0.947,0.158,1.573,0.825,1.596,1.766
		c0.023,0.936,0.006,1.872,0.006,2.846c0.319,0.319,0.323,0.862,0.715,1.178c0.45-0.46,0.581-0.945,0.581-2.161
		c0.232-0.506,0.619-0.831,1.063-1.18c0.929-0.727,1.594-1.714,2.188-2.745c0.34-0.589,0.749-1.153,1.204-1.657
		c0.699-0.773,1.465-1.487,2.206-2.223c0.17-0.169,0.355-0.293,0.587-0.403c0.709-0.338,1.198-0.968,1.735-1.487
		c0.162-0.171,0.047-0.362,0.105-0.568c0.747-0.55,1.268-1.346,1.729-2.157c0.5-0.882,0.739-1.856-0.034-2.769
		c-0.225-0.266-0.263-0.659-0.596-0.81c-0.464-2.498-0.178-4.996-0.242-7.482c-0.009-0.332-0.141-0.695,0.188-1.008
		c0.108-0.104,0.105-0.533,0.003-0.608c-0.371-0.274-0.054-0.7-0.279-0.98c-0.539,0.271-0.588,0.949-1.136,1.261
		c-0.475,0.091-0.97,0.02-1.466-0.382c-0.151-0.292-0.335-0.649-0.553-1.07c-0.072-1.366,0.172-2.828-0.315-4.345
		c-0.317-0.317-0.725-0.725-1.17-1.17c0-0.273,0-0.587,0-0.821c-0.502-0.857-1.254-1.475-1.367-2.499
		c-0.102-0.132-0.4-0.021-0.491-0.268c-0.148,0.166-0.328,0.214-0.553,0.213c-0.437-0.001-0.768,0.236-1.078,0.525
		c-0.234,0.217-0.251,0.556-0.519,0.769c-0.231,0.184-0.429,0.419-0.588,0.715c-0.316,0.587-0.914,0.919-1.488,1.101
		c-0.146-0.146-0.306-0.307-0.467-0.469c-0.052,0.039-0.103,0.078-0.153,0.117c0-0.314,0-0.628,0-0.913
		c-0.303-0.234-0.241-0.722-0.784-0.784c-0.647,0.903-1.72,1.344-2.673,1.932c-0.753,0.464-1.225,1.123-1.769,1.765
		c-0.517,0.609-0.853,1.424-1.697,1.715c-0.232,0.045-0.283-0.338-0.562-0.223c-0.203,0.084-0.319-0.099-0.51-0.304
		c0.077-0.546-0.401-1.088-0.225-1.7c-0.163-0.358-0.563-0.325-0.751-0.56c-0.411,0.233-0.94,0.258-1.216,0.729
		c-0.086,0.147-0.175,0.273-0.232,0.446c-0.238,0.725-0.718,1.314-1.222,1.863c-0.312,0.341-0.428,0.769-0.653,1.144
		c-0.226,0.376,0.078,0.783,0.248,1.176c0.233,0,0.474,0,0.709,0c0.604-0.643,0.744-1.692,1.815-1.877
		c0.197,0.246,0.439,0.546,0.681,0.847c0.34,0.522-0.158,1.12-0.053,1.802c0.103,0.66-0.396,1.274-0.214,1.844
		c-0.19,0.487-0.418,0.832-0.77,1.077c-0.346,0.029-0.581-0.073-0.744-0.424c-0.256-0.548-0.422-1.168-1.006-1.518
		c-0.471,0.069-0.481,0.058-0.928,0.555c-0.178,1.051-0.327,2.106-0.465,3.165c-0.092,0.71-0.145,1.49-0.618,2.109
		c-0.207,0.27-0.231,0.568-0.21,0.875c-0.246,0.197-0.483,0.39-0.774,0.623c-0.109-0.158-0.271-0.391-0.486-0.704
		c0.088-0.39-0.382-0.77-0.52-1.255c-0.141-0.494-0.277-1.017-0.133-1.425c0.324-0.915,0.156-1.825,0.161-2.73
		c0.003-0.64,0.114-1.271,0.344-1.81c0.263-0.617-0.05-0.939-0.204-1.342c-0.383-0.035-0.307,0.207-0.366,0.347
		c-0.541,1.289-1.246,2.511-1.54,3.9c-0.023,0.112-0.166,0.202-0.16,0.365c0.038,1.056-0.437,1.955-0.847,2.887
		c-0.428,0.974-0.659,2.034-1.268,2.931c-0.035,0.052-0.049,0.135-0.038,0.197c0.113,0.643-0.259,1.212-0.268,1.833
		c-0.864,0.596-1.044,0.668-1.786,0.707c-0.31-0.325-0.63-0.662-0.954-1.002c-0.139-1.068,0.114-2.104,0.533-3.094
		c0.123-0.29,0.086-0.554,0.088-0.825c0.015-1.584,0.005-3.168,0.009-4.751c0-0.309-0.079-0.643,0.209-0.862
		c0.073-0.261-0.254-0.306-0.229-0.581c0.057-0.606,0.054-1.225,0.004-1.833c-0.03-0.375,0.385-0.61,0.234-0.99
		c0.582-0.325,0.455-0.976,0.617-1.47c0.264-0.801,0.632-1.687,1.137-2.232c0.475-0.514,0.791-1.167,1.413-1.582
		c0.22,0.025,0.462,0.016,0.658-0.262c0.28,0.175,0.598,0.274,0.985,0.309c0.343,0.943,0.835,1.803,0.802,2.829
		c-0.009,0.288,0.023,0.578-0.006,0.863c-0.072,0.719,0.185,1.321,0.631,1.94c0.742-0.81,0.722-1.943,1.318-2.804
		c0-1.01-0.022-2.055,0.008-3.098c0.017-0.571-0.213-1.054-0.377-1.574c-0.272-0.863-0.761-1.627-1.026-2.494
		c-0.135-0.442-0.085-0.957-0.439-1.328c-0.217,0.079-0.304-0.121-0.445-0.206c-0.711,0.708-1.449,1.398-1.67,2.534
		c-1.271,1.164-2.186,2.707-3.16,4.291c0,0.5,0,1.071,0,1.553c-0.261,0.876-0.893,1.162-1.615,1.331
		c-0.295,0.153-0.379-0.344-0.667-0.216c-0.67-0.821-1.497-1.505-1.865-2.574c-0.248-0.719-0.817-1.279-1.497-1.806
		c-0.407,0.532-1.092,0.719-1.45,1.371c-0.259,0.472-0.74,0.829-1.425,0.86c-0.14-0.195-0.304-0.425-0.537-0.751
		c0.076-0.309-0.196-0.738-0.349-1.183c-0.319-0.93-1.08-1.524-1.752-2.182c-0.18,0-0.36,0-0.64,0
		c-0.335,0.382-0.749,0.745-0.995,1.327c-0.281,0.662-0.655,1.299-1.347,1.713c-0.318,0.19-0.59,0.169-0.891,0.2
		c-0.205-0.132-0.293-0.377-0.576-0.45c-0.213-0.055-0.383-0.278-0.572-0.426c-0.329,0.053-0.434,0.366-0.662,0.519
		c-0.078,1.096-0.265,2.157-0.583,3.215c-0.241,0.802-0.19,1.688,0.017,2.514c0.051,0.202,0.077,0.399,0.104,0.601
		c0.06,0.44-0.121,0.898,0.197,1.329c0.12,0.163,0.115,0.547,0.003,0.732c-0.526,0.868-0.052,1.687,0.113,2.498
		c0.055,0.269,0.106,0.541,0.107,0.808c0.001,0.212,0.116,0.32,0.229,0.446c-0.207,0.547-0.15,0.96,0.102,1.833
		c0.155,0.539,0.491,0.953,0.773,1.409c0.486,0.786,0.921,1.592,0.85,2.584c0.705,0.591,0.959,1.448,1.203,2.288
		c0.351,1.206,0.686,2.422,0.773,3.69c0.13,0.292,0.191,0.682,0.419,0.879c0.311,0.27-0.006,0.754,0.469,0.9
		c-0.385,0.534-0.246,1.107-0.274,1.664c-0.425,0.75-0.681,1.558-0.637,2.427c0.03,0.605-0.162,1.086-0.628,1.504
		c-0.1,0.548,0.069,1.148-0.221,1.715c-0.089,0.176-0.11,0.425-0.294,0.514c-0.178,0.087-0.407,0.068-0.71,0.11
		c-0.557-0.911-1.529-1.538-1.913-2.612c-0.191-0.536-0.672-0.85-0.945-1.334c-0.265-0.47-0.55-0.914-0.706-1.439
		c-0.103-0.349-0.197-0.767-0.443-0.991c-0.433-0.396-0.485-0.968-0.817-1.412c-0.303-0.405-0.369-0.989-0.529-1.498
		c-0.341-1.084-0.684-2.166-1.003-3.256c-0.058-0.199-0.008-0.43-0.008-0.646c0-2.7-0.022-5.4,0.013-8.099
		c0.011-0.797,0.256-1.58,0.212-2.396c-0.044-0.826-0.01-1.655-0.009-2.483c0-0.175,0.081-0.329,0.124-0.485
		c0.125-0.454,0.289-0.894,0.338-1.385c0.082-0.828,0.319-1.654,0.839-2.34c0.212-0.28,0.433-0.546,0.422-0.905
		c-0.027-0.945,0.443-1.714,0.969-2.4c0.396-0.516,0.882-0.989,1.463-1.369c0.695-0.454,1.216-1.105,1.577-1.897
		c0.192-0.424-0.125-0.941,0.316-1.274c-0.091-0.717,0.413-1.14,0.808-1.608c0.899-1.063,2.043-1.867,3.052-2.814
		c0.304-0.286,0.756-0.415,1.159-0.625c0.114,0.102,0.217,0.194,0.338,0.302c-0.364,0.482-0.105,0.932,0.081,1.387
		c0.465,0.234,0.916,0.397,1.466,0.204c0.577-0.203,0.988-0.5,1.326-1.041c0.428-0.687,0.896-1.349,1.275-2.068
		c0.168-0.319,1.175-1.279,1.387-1.572c0.601-0.832,1.627-1.02,2.362-1.647c0.192-0.164,0.465-0.281,0.653-0.481
		c0.219-0.233,0.518-0.397,0.789-0.43c0.519-0.063,0.964-0.285,1.444-0.436c0.484-0.153,0.988-0.269,1.525-0.248
		c1.114,0.043,2.232,0.03,3.347,0.006c0.55-0.012,1.031,0.091,1.432,0.532c0,0.218,0,0.459,0,0.671
		c-0.47,0.594-1.194,0.492-1.777,0.737c-0.652,0.273-1.38,0.364-1.875,0.964c-0.138,0.167-0.398,0.238-0.607,0.342
		c-1.466,0.729-2.051,1.148-2.97,2.412c-0.55,0.756-1.087,1.527-1.425,2.431c-0.116,0.311-0.166,0.584-0.173,0.891
		c0.102,0.102,0.204,0.204,0.31,0.311c0.21,0,0.425,0,0.67,0c0.616-0.663,1.088-1.425,1.4-2.312c0.256-0.73,0.629-1.346,1.354-1.831
		c0.709-0.475,1.364-1.095,1.988-1.662c0.727,0.007,0.974-0.839,1.611-0.874c0.626-0.034,1.201-0.418,1.804-0.215
		c0.875-0.511,1.477-1.313,2.52-1.719c0.651-0.056,1.446-0.35,2.252,0.027c0.612,0.431,0.966,1.111,1.399,1.805
		c-0.676,0.677-1.426,1.342-1.719,2.338c-0.036,0.122-0.187,0.21-0.286,0.313c-0.638,0.659-1.364,1.238-1.844,2.213
		c0,0.221,0,0.607,0,0.941c0.217,0.42,0.563,0.324,0.921,0.329c0.232-0.203,0.522-0.397,0.635-0.81
		c0.344-0.15,0.741-0.323,1.137-0.499c0.291-0.129,0.407-0.457,0.433-0.677c0.073-0.653,0.458-1.166,0.818-1.6
		c0.637-0.766,0.731-1.508,0.314-2.426c0.635-0.021,1.104-0.274,1.477-0.713c0.318-0.374,0.771-0.565,1.168-0.831
		c0.467-0.312,0.977-0.298,1.488-0.122c0.661,0.228,1.301,0.518,1.983,0.688c1.093,0.272,1.986,0.877,2.761,1.677
		c0.275,0.285,0.56,0.561,0.861,0.863c0,0.219,0,0.461,0,0.695c-0.634,0.468-1.36,0.241-1.932,0.301
		c-0.78,0.391-1.457,0.756-2.156,1.073c-0.825,0.374-1.434,0.971-1.831,1.759c-0.147,0.293-0.34,0.515-0.551,0.743
		c-0.349,0.376-0.518,0.805-0.384,1.313c0.185,0.093,0.363,0.184,0.594,0.301c1.104-0.46,1.978-1.239,2.656-2.293
		c0.273-0.426,0.684-0.795,1.213-0.953c0.241-0.072,0.287,0.287,0.562,0.229c0.338-0.072,0.5,0.186,0.552,0.483
		c0.102,0.578,0.338,1.039,1.01,1.156c0.167-0.149,0.513-0.165,0.707-0.458c-0.063-0.861,0.297-1.573,0.9-2.191
		c0.451-0.463,0.997-0.591,1.615-0.498c0.973,0.716,2.071,1.295,2.847,2.228c0.89,1.069,1.92,1.999,2.822,3.044
		c0.543,0.628,0.861,1.444,1.344,2.132c0.469,0.667,0.728,1.474,1.351,2.034c0.116,0.104,0.128,0.227,0.161,0.368
		c0.154,0.652,0.436,1.257,0.753,1.847c0.766,1.423,1.079,3.008,1.613,4.515c-0.026,1.479,0.985,2.543,1.513,4.014
		c0,0.688-0.118,1.608,0.035,2.481c0.135,0.77,0.211,1.527,0.169,2.292c-0.047,0.885-0.192,1.773-0.489,2.603
		c-0.158,0.44-0.125,0.922-0.413,1.345c-0.256,0.376-0.498,0.779-0.685,1.224c-0.172,0.41-0.115,0.813-0.211,1.201
		c-0.21,0.853-0.728,1.597-0.805,2.481c-0.411,0.406-0.02,1.021-0.385,1.471c-0.087,0.108-0.143,0.384-0.251,0.53
		c-0.751,1.019-1.395,2.117-2.227,3.037c-0.637-0.315-0.323-1.209-1.044-1.542c-0.321,0.331-0.711,0.591-0.901,1.082
		c-0.253,0.65-0.672,1.201-1.208,1.661c-0.272,0.233-0.521,0.498-0.766,0.762c-0.408,0.439-0.734,0.877-0.336,1.528
		c0.261,0.427,0.179,0.98,0.433,1.44c0.229,0.417-0.282,0.771-0.2,1.23c-0.962,0.997-2.105,1.817-3.129,2.762
		C53.662,61.408,52.333,61.828,51.205,62.778z"/>
	<path fill="currentColor" d="M41.303,66.229c-0.409,0.383-0.407,0.908-1.113,1.056
		c-0.638-0.13-1.459,0.47-2.12,0.284c-0.685-0.231-1.015-0.55-1.167-1.021c0.766-1.11,0.803-2.436,1.084-3.744
		c-0.281,0-0.45,0-0.63,0c-0.468,0.649-0.796,1.396-1.465,1.903c-0.428,0.063-0.873,0.071-1.377-0.352
		c-0.301-0.47-0.706-1.081-0.696-1.886c0.002-0.227-0.302-0.441-0.402-0.688c-0.223-0.543-0.304-1.052-0.075-1.679
		c0.274-0.751,0.515-1.541,0.525-2.385c0.005-0.443,0.233-0.903,0.433-1.32c0.376-0.781,0.829-1.526,1.203-2.309
		c0.261-0.544,0.545-1.097,0.494-1.775c0.588-0.538,1.043-1.329,2.059-1.19c0.175,0.175,0.353,0.353,0.537,0.537
		c0,0.424,0.167,0.986-0.042,1.254c-0.279,0.357-0.029,0.749-0.313,1.081c-0.29,0.338-0.052,0.849-0.202,1.306
		c-0.186,0.562-0.225,1.208-0.302,1.82c-0.021,0.164-0.016,0.324,0.104,0.496c0.399,0.575,0.19,1.332,0.532,1.937
		c0.046,0.08,0.049,0.26-0.005,0.311c-0.422,0.395-0.093,0.884-0.223,1.29c0.614,0.461,1.004,0.444,1.584-0.047
		c0.316-0.268,0.641-0.533,0.953-0.794c0.457-0.38,0.969-0.64,1.527-0.973c0.351,0,0.779,0,1.255,0
		c0.687,0.599,1.096,1.516,1.878,2.073c0.295,0.21,0.181,0.518,0.266,0.758c0.246,0.692,0.753,1.34,0.488,2.263
		c-0.285,0.543-0.95,0.787-1.646,1.152C43.382,65.401,42.457,66.429,41.303,66.229z"/>
	<path fill="currentColor" d="M53.708,35.952c-0.038,0.612,0.108,1.295-0.075,1.956
		c-0.159,0.577-0.394,1.147-0.648,1.669c-0.184,0.373,0.146,0.927-0.433,1.1c-0.123-0.149-0.271-0.328-0.418-0.507
		c-0.236-0.213-0.096-0.556-0.348-0.885c-0.582-0.762-0.763-1.687-0.653-2.628c0.099-0.859-0.273-1.656-0.236-2.433
		c-0.21-0.407-0.395-0.764-0.573-1.11c-0.212-1.863-0.358-3.73-0.285-5.609c0.032-0.809,0.294-1.501,0.798-2.156
		c0.549-0.714,0.942-1.523,1.177-2.423c0.115-0.441,0.176-0.868,0.188-1.291c0.25-0.249,0.479-0.478,0.731-0.73
		c0.288,0,0.602,0,0.91,0c0.712,0.677,1.258,1.479,1.809,2.26c0.101,0.264-0.237,0.329-0.221,0.571
		c0.023,0.34,0.012,0.663-0.176,1.005c-0.117,0.216-0.073,0.59,0.075,0.911c0.244,0.527,0.38,1.09,0.34,1.698
		c-0.033,0.489-0.181,1.055,0.081,1.464c0.267,0.417-0.132,0.943,0.328,1.281c0.068,0.05,0.056,0.296,0.002,0.415
		c-0.371,0.813-0.134,1.669-0.217,2.482C55.238,34.036,54.443,34.94,53.708,35.952z"/>
	<path fill="currentColor" d="M17.648,46.716c0.484-0.369,0.929-0.392,1.441-0.315
		c0.507,0.556,1.063,1.129,0.511,2.045c-0.111,0.185-0.001,0.495-0.02,0.745c-0.027,0.389,0.329,0.675,0.236,1.102
		c-0.071,0.324-0.082,0.686,0.185,0.997c0.089,0.104,0.006,0.349,0.016,0.527c0.068,1.368,0.391,2.668,1.017,3.895
		c0.195,0.382,0.317,0.802,0.481,1.199c0.075,0.212-0.223,0.263-0.201,0.447c0.055,0.441-0.187,0.775-0.356,1.148
		c-0.293,0.646-0.622,1.292-0.504,1.997c-0.292,0.287-0.342,0.637-0.521,0.983c-1.084,0.027-2.034-0.348-2.842-1.093
		c-0.37-0.341-0.718-0.705-1.069-1.066c-0.711-0.73-0.962-1.661-0.724-2.589c0.215-0.841,0.318-1.673,0.437-2.521
		c0.103-0.733,0.273-1.528,0.836-2.141c-0.086-0.605,0.16-1.258-0.222-1.843c-0.033-0.051-0.032-0.157,0-0.211
		c0.583-1.021,0.586-2.271,1.29-3.242C17.656,46.756,17.648,46.713,17.648,46.716z"/>
	<path fill="currentColor" d="M26.074,57.094c0.662-1.026,0.889-2.282,1.906-3.01
		c0.083-0.835,0.387-1.593,0.699-2.322c0.338-0.794,0.474-1.579,0.394-2.396c0.237-0.369,0.371-0.778,0.841-1.059
		c0.474-0.184,0.958,0.224,1.564,0.28c-0.106,0.533,0.075,1.049-0.195,1.624c-0.284,0.604,0.125,1.284,0.245,1.922
		c0.125,0.666,0.368,1.311,0.369,2.001c0.001,1.978,0,3.955,0,5.969c-0.404,0.111-0.355,0.639-0.798,0.831
		c-0.315,0.138-0.636,0.369-0.955,0.559c-0.177,0.105-0.327,0.26-0.484,0.396c-0.378,0.331-0.797,0.541-1.338,0.453
		c-0.287-0.294-0.588-0.602-0.895-0.915c-0.375-0.91-0.505-1.913-1.043-2.796C26.119,58.196,25.938,57.621,26.074,57.094z"/>
	<path fill="currentColor" d="M21.684,25.416c0.488,0.736,1.165,1.373,1.424,2.302
		c0.053,0.188,0.154,0.376,0.146,0.582c-0.024,0.594,0.204,1.131,0.363,1.683c0.1,0.346,0.137,0.686-0.008,1.014
		c-0.208,0.472-0.11,0.9-0.01,1.392c0.128,0.63,0.343,1.257,0.319,1.928c-0.021,0.587,0.152,1.15,0.625,1.566
		c0.039,0.851,0.101,1.709-0.813,2.273c-0.287,0-0.646,0-1.045,0c-0.1-0.108-0.197-0.303-0.347-0.36
		c-1.319-0.511-1.922-1.524-2.119-2.867c-0.036-0.249-0.243-0.47-0.361-0.709c-0.271-0.547-0.409-1.144-0.472-1.738
		c-0.052-0.491-0.092-0.93-0.423-1.345c-0.225-0.282-0.339-0.679-0.203-1.126c0.662-0.419,0.793-1.266,1.255-1.932
		c0-0.536,0-1.11,0-1.645c0.24-0.376,0.358-0.807,0.924-1.019C21.061,25.416,21.348,25.416,21.684,25.416z"/>
	<path fill="currentColor" d="M45.344,24.171c0.499-0.313,1.044-0.31,1.586-0.236
		c0.579,0.453,0.549,1.167,0.691,1.763c0.093,0.385,0.355,0.749,0.27,1.196c-0.07,0.366-0.052,0.728-0.193,1.106
		c-0.147,0.393-0.347,0.817-0.261,1.301c0.168,0.948-0.26,1.82-0.467,2.715c-0.041,0.176-0.182,0.357-0.17,0.572
		c0.058,1.051-0.214,2.022-0.761,2.947c-0.155,0.024-0.356,0.111-0.54-0.077c-0.248-0.254-0.428-0.539-0.425-0.902
		c0.005-0.591-0.283-1.116-0.375-1.669c-0.087-0.525-0.379-0.91-0.668-1.229c-0.519-0.573-0.893-1.265-1.491-1.771
		c-0.199-0.168-0.313-0.44-0.486-0.697c0.04-0.307-0.106-0.649,0.111-0.986c0.382-0.588,0.365-1.39,0.993-1.853
		c0.165-0.121,0.331-0.224,0.511-0.323C44.452,25.599,44.947,25.229,45.344,24.171z"/>
	<path fill="currentColor" d="M13.321,26.956c-0.15-1.194,0.538-2.188,1.1-3.241c0.488,0,0.945,0,1.463,0
		c0.323,0.715,0.855,1.337,1.311,2.011c0.051,0.73-0.056,1.413-0.324,2.117c-0.278,0.73-0.227,1.596-0.043,2.319
		c0.163,0.641,0.074,1.243,0.173,1.818c-0.419,0.627-0.809,1.218-1.095,1.844c-0.643,0-1.214,0-1.813,0
		c-0.524-0.329-0.796-0.932-1.167-1.417c-0.292-0.382-0.544-0.914-0.489-1.518c0.072-0.781,0.018-1.574,0.018-2.252
		C12.764,28.039,13.024,27.532,13.321,26.956z"/>
	<path fill="currentColor" d="M25.571,64.705c-0.355,0-0.708,0-1.096,0
		c-0.592-0.364-1.268-0.637-1.974-0.843c-1.09-0.318-1.251-0.755-1-1.859c0.164-0.722,0.633-1.39,0.458-2.183
		c0.353-0.313,0.079-0.813,0.34-1.148c0.074-0.094,0.104-0.182,0.091-0.286c-0.095-0.711,0.078-1.362,0.541-2.021
		c0.262-0.115,0.591-0.424,1.184-0.175c0.172,0.13,0.41,0.41,0.564,0.772c0.117,0.273,0.168,0.563,0.021,0.794
		c-0.3,0.472-0.064,0.971-0.149,1.447c0.466,0.381,0.001,1.022,0.413,1.453c0.125,0.132,0.019,0.481,0.019,0.636
		C25.539,62.425,26.254,63.432,25.571,64.705z"/>
	<path fill="currentColor" d="M30.383,66.99c-0.13-0.717-0.65-1.318-0.662-1.995
		c0.47-0.47,0.89-0.889,1.374-1.372c0.282-0.065,0.481,0.344,0.807,0.298c0.517,0.808,0.558,1.702,0.842,2.513
		c0.096,0.273,0.11,0.651-0.37,0.881C31.769,67.276,31.03,67.483,30.383,66.99z"/>
</g>
</svg>
