<svg xmlns="http://www.w3.org/2000/svg" xml:space="preserve" width="72px" height="72px" viewBox="0 0 72 72">
    <path fill="currentColor" d="M31.571 48.527h1.188c.925.364 1.391 1.104 1.872 1.809 1.253-1.077 1.338-1.301.919-2.353.154-.597.486-1.123 1.126-1.296.43-.116.579-.616 1.038-.63.87-1.073 2.177-1.521 3.266-2.281.083-.058.224-.091.249-.165.332-.978 1.379-1.374 1.822-2.25.393-.774.638-1.589.463-2.565-1.161.952-1.905 2.213-2.873 3.261-.397-.16-.641.308-1.009.207-.518.427-1.186.442-1.785.64-.574.189-1.019.454-1.287 1.048-.399.886-1.086 1.614-1.45 2.531-.086.217-.334.369-.487.53h-1.326c-.178-.136-.064-.436-.322-.529 0-.642.168-1.352-.047-1.916-.22-.579-.146-1.112-.142-1.656.002-.273.31-.541.141-.899.794-.759 1.239-1.773 2.044-2.503.16-.146.283-.394.463-.442.888-.238 1.19-1.012 1.664-1.657.391-.531.879-.994 1.305-1.506.639-.77 1.259-1.543 1.679-2.446.114-.245.273-.408.442-.568.66-.627 1.083-1.438 1.669-2.122.127-.148.271-.35.271-.527.001-.634.399-1.015.804-1.399.408-.388.438-.95.81-1.315-.314-.251-.444-.147-.573-.005-1.056 1.156-2.155 2.274-2.987 3.619-.183.297-.496.513-.697.715-.628.188-1.026-.229-1.484-.398-.69.384-.872 1.2-1.478 1.616.061.395-.117.713-.323.964-.319.388-.415.827-.573 1.282-.271.779-.578 1.594-1.176 2.207a14 14 0 0 0-2.252 3.063c-.132.241-.351.452-.57.625-.894.708-1.407 1.7-1.964 2.647-.221.375-.397.656-.851.804-.41.133-.708.208-1.142.013a5.5 5.5 0 0 0-.856-.29c-.334-.084-.856-.149-.872-.713-.854-.785-.925-1.92-1.282-2.923a.82.82 0 0 1 .051-.616c.376-.778.663-1.605 1.094-2.351.375-.65.877-1.232 1.365-1.81.301-.355.367-.794.559-1.172.233-.456.03-.754-.026-1.148-.082-.579-.374-1.124-.264-1.744.063-.354-.463-1.618-.822-2.022-.53-.598-.757-1.349-1.088-2.038-.398-.83-.326-1.13.121-2.237a.9.9 0 0 0 .075-.292c.003-.072 0-.144 0-.225l1.414-1.388h.902l.47.725v1.061c-.389.57-.553 1.263-.614 1.967-.064.728.224 1.396.519 2.046.097.213.317.412.318.618.004 1.063.925 1.248 1.567 1.69.237.163.536.141.794-.001.446-.244.917-.433 1.282-.829.401-.433.791-.884 1.343-1.171.291-.151.545-.438.646-.81 0-.14-.008-.281.001-.421.062-.918-.02-1.764-.632-2.552-.76-.978-.601-2.078-.002-3.075.423-.704.985-1.325 1.499-2v-1.177c.193-.421.401-.731.679-1.004.183-.181.37-.454.381-.693.033-.685.547-1.09.872-1.584.44-.67.956-1.305 1.579-1.836.45-.383.654-.877.596-1.48-.067-.69.096-1.388-.198-2.079-.158-.373-.007-.818.351-1.204.122-.026.325-.142.467-.291.834.5.959 1.226.881 2.023.224.274.332.599.558.871.224.27.339.643.326 1.049-.033 1.041-.011 2.084-.011 2.978-.306.818-.837 1.369-.89 2.169-.022.338-.254.697-.568.945a2.96 2.96 0 0 0-.993 1.422c-.13.393-.407.717-.638 1.023-.569.756-.658 1.624-.788 2.486-.077.509.011 1.021-.204 1.538-.177.428.15.987-.239 1.412.074.815-.222 1.685.333 2.425.44.056.252-.462.531-.541-.141-.54.188-1.012.255-1.524.115-.872.102-1.783.44-2.614.313-.77.644-1.54 1.05-2.262.219-.391.555-.827.942-.985.474-.193.706-.628 1.165-.835.456-.206.71-.725.688-1.308-.024-.647.055-1.303-.022-1.941-.078-.653.373-1.213.221-1.821.624-.889 1.127-1.839 2.324-2.401.424-.068.531.593 1.006.786-.709 1.882-1.559 3.678-1.349 5.67.101.953.589 1.84.762 3.027-.143.416-.279 1.148-.79 1.647-.39.38-.509.885-.812 1.297-.142.192.022.528-.386.792.605-.052.908-.292 1.22-.558.704-.6 1.069-1.499 1.861-2.041.528.054.941-.207 1.378-.528.364-.268.847-.375 1.282-.556.293.163.632.254.856.541v.681c-.894.496-1.528 1.318-2.267 2.026-.732.701-1.275 1.557-1.916 2.334-.196.237-.185.434-.038.691.854-.868 1.854-1.538 2.88-2.146.754-.448 1.612-.717 2.539-.665l.314.33c-.014.07 0 .203-.058.255-.213.19-.19.499-.443.692-.928.708-1.466 1.734-2.097 2.685-.174.263-.431.475-.662.698-.861.831-1.268 1.839-1.281 3.036a11.2 11.2 0 0 0 .437 3.168c.019.067-.027.166.007.212.863 1.172.659 2.529.623 3.838-.016.555-.255 1.106-.613 1.641v2.284c-.786.987-1.757 1.614-2.967 1.962-.802.231-1.537.74-2.146 1.298-.648.594-1.356 1.037-2.39 1.446-.323.022-.905.048-1.413-.364-.205-.167-.478-.054-.731-.063-.353.841.234 1.635.129 2.462-.462.611-1.124.744-1.852.786l-1.083 1.092c-.342.805-.26 1.65-.604 2.546-.678.701-1.763 1.137-2.487 2.083-.11.545.184 1.218-.373 1.784-.625.087-1.164.402-1.488 1.104-.237.512-.529.999-.76 1.521a4.7 4.7 0 0 1-1.911 2.162c-.053.032-.142.004-.247.004-.335-.093-.479-.469-.778-.647-.452-.063-.746.284-1.16.423-.64-.175-1.041-.724-1.513-1.185v-.428l-.517-.517c-.56.396-1.184.088-1.713.202-.394-.307-.709-.702-1.111-.835-1.03-.341-1.526-1.076-1.762-2.146.334-.677.924-1.325 1.225-2.149.303-.828.799-1.6.611-2.578-.259-.167-.588-.034-.978-.093l-.411-.537c-.236-.345-.063-.73.138-1.015.399-.564.883-1.077 1.621-1.271.306-.671.306-.671.306-2.04.544-.328.721-.953 1.056-1.525.022-.328-.068-.78.106-1.081.21-.364.233-.811.098-1.003-.236-.333-.007-.803-.436-.956l.361-.708c1.299.114 2.5-.653 3.947-.368.528.271.803.965 1.232 1.497.329.406.653.819 1.029 1.177.56.532.97 1.104.802 1.906.178.11.231.326.336.326.501-.509.952-.959 1.294-1.302m12.637-12.819.183.101a10.8 10.8 0 0 0 1.23-4.084c-.266-.109.016-.508-.219-.674-.952.675-1.137 1.683-1.188 2.734-.032.639-.006 1.282-.006 1.923M23.45 47.18c.112.231-.068.505.176.78.233.262.256.693.554.941.065.055.187.042.381.078-.069-.773.193-1.536-.354-2.17-.312-.059-.522.041-.757.371m9.733 8.765c-.375-.075-.715-.581-1.102-.13-.256.299-.859.234-.835.838.591.287 1.103-.211 1.668-.199.098.002.3-.184.269-.509m-5.12-4.897c-.203-.587-.722-.822-1.018-1.23-.188.043-.378-.069-.536.101v.459c.396.381.773.889 1.554.67m-5.817 3.998c-.182-.222-.25-.51-.622-.466-.155.216-.162.431.026.664.152-.083.342.066.596-.198m5.884 6.864c-.146.2-.478.266-.244.667.146-.201.478-.266.244-.667m-3.847-4.977-.247-.457c-.168.202-.171.321-.05.457z"/>
</svg>
