<?xml version="1.0" encoding="iso-8859-1"?>
<!-- Generator: Adobe Illustrator 16.0.0, SVG Export Plug-In . SVG Version: 6.00 Build 0)  -->
<!DOCTYPE svg PUBLIC "-//W3C//DTD SVG 1.1//EN" "http://www.w3.org/Graphics/SVG/1.1/DTD/svg11.dtd">
<svg version="1.1" id="Layer_1" xmlns="http://www.w3.org/2000/svg" xmlns:xlink="http://www.w3.org/1999/xlink" x="0px" y="0px"
	 width="72.36px" height="72.18px" viewBox="0 0 72.36 72.18" style="enable-background:new 0 0 72.36 72.18;" xml:space="preserve"
	>
<g>
	
	<path fill="currentColor" d="M31.571,48.527c0.577,0,0.937,0,1.188,0
		c0.925,0.364,1.391,1.104,1.872,1.809c1.253-1.077,1.338-1.301,0.919-2.353c0.154-0.597,0.486-1.123,1.126-1.296
		c0.43-0.116,0.579-0.616,1.038-0.63c0.87-1.073,2.177-1.521,3.266-2.281c0.083-0.058,0.224-0.091,0.249-0.165
		c0.332-0.978,1.379-1.374,1.822-2.25c0.393-0.774,0.638-1.589,0.463-2.565c-1.161,0.952-1.905,2.213-2.873,3.261
		c-0.397-0.16-0.641,0.308-1.009,0.207c-0.518,0.427-1.186,0.442-1.785,0.64c-0.574,0.189-1.019,0.454-1.287,1.048
		c-0.399,0.886-1.086,1.614-1.45,2.531c-0.086,0.217-0.334,0.369-0.487,0.53c-0.468,0-0.899,0-1.326,0
		c-0.178-0.136-0.064-0.436-0.322-0.529c0-0.642,0.168-1.352-0.047-1.916c-0.22-0.579-0.146-1.112-0.142-1.656
		c0.002-0.273,0.31-0.541,0.141-0.899c0.794-0.759,1.239-1.773,2.044-2.503c0.16-0.146,0.283-0.394,0.463-0.442
		c0.888-0.238,1.19-1.012,1.664-1.657c0.391-0.531,0.879-0.994,1.305-1.506c0.639-0.77,1.259-1.543,1.679-2.446
		c0.114-0.245,0.273-0.408,0.442-0.568c0.66-0.627,1.083-1.438,1.669-2.122c0.127-0.148,0.271-0.35,0.271-0.527
		c0.001-0.634,0.399-1.015,0.804-1.399c0.408-0.388,0.438-0.95,0.81-1.315c-0.314-0.251-0.444-0.147-0.573-0.005
		c-1.056,1.156-2.155,2.274-2.987,3.619c-0.183,0.297-0.496,0.513-0.697,0.715c-0.628,0.188-1.026-0.229-1.484-0.398
		c-0.69,0.384-0.872,1.2-1.478,1.616c0.061,0.395-0.117,0.713-0.323,0.964c-0.319,0.388-0.415,0.827-0.573,1.282
		c-0.271,0.779-0.578,1.594-1.176,2.207c-0.896,0.918-1.638,1.94-2.252,3.063c-0.132,0.241-0.351,0.452-0.57,0.625
		c-0.894,0.708-1.407,1.7-1.964,2.647c-0.221,0.375-0.397,0.656-0.851,0.804c-0.41,0.133-0.708,0.208-1.142,0.013
		c-0.242-0.108-0.563-0.217-0.856-0.29c-0.334-0.084-0.856-0.149-0.872-0.713c-0.854-0.785-0.925-1.92-1.282-2.923
		c-0.061-0.169-0.053-0.401,0.051-0.616c0.376-0.778,0.663-1.605,1.094-2.351c0.375-0.65,0.877-1.232,1.365-1.81
		c0.301-0.355,0.367-0.794,0.559-1.172c0.233-0.456,0.03-0.754-0.026-1.148c-0.082-0.579-0.374-1.124-0.264-1.744
		c0.063-0.354-0.463-1.618-0.822-2.022c-0.53-0.598-0.757-1.349-1.088-2.038c-0.398-0.83-0.326-1.13,0.121-2.237
		c0.041-0.101,0.07-0.19,0.075-0.292c0.003-0.072,0-0.144,0-0.225c0.457-0.449,0.918-0.901,1.414-1.388c0.233,0,0.516,0,0.902,0
		c0.089,0.137,0.226,0.349,0.47,0.725c0,0.176,0,0.603,0,1.061c-0.389,0.57-0.553,1.263-0.614,1.967
		c-0.064,0.728,0.224,1.396,0.519,2.046c0.097,0.213,0.317,0.412,0.318,0.618c0.004,1.063,0.925,1.248,1.567,1.69
		c0.237,0.163,0.536,0.141,0.794-0.001c0.446-0.244,0.917-0.433,1.282-0.829c0.401-0.433,0.791-0.884,1.343-1.171
		c0.291-0.151,0.545-0.438,0.646-0.81c0-0.14-0.008-0.281,0.001-0.421c0.062-0.918-0.02-1.764-0.632-2.552
		c-0.76-0.978-0.601-2.078-0.002-3.075c0.423-0.704,0.985-1.325,1.499-2c0-0.405,0-0.837,0-1.177
		c0.193-0.421,0.401-0.731,0.679-1.004c0.183-0.181,0.37-0.454,0.381-0.693c0.033-0.685,0.547-1.09,0.872-1.584
		c0.44-0.67,0.956-1.305,1.579-1.836c0.45-0.383,0.654-0.877,0.596-1.48c-0.067-0.69,0.096-1.388-0.198-2.079
		c-0.158-0.373-0.007-0.818,0.351-1.204c0.122-0.026,0.325-0.142,0.467-0.291c0.834,0.5,0.959,1.226,0.881,2.023
		c0.224,0.274,0.332,0.599,0.558,0.871c0.224,0.27,0.339,0.643,0.326,1.049c-0.033,1.041-0.011,2.084-0.011,2.978
		c-0.306,0.818-0.837,1.369-0.89,2.169c-0.022,0.338-0.254,0.697-0.568,0.945c-0.472,0.372-0.804,0.851-0.993,1.422
		c-0.13,0.393-0.407,0.717-0.638,1.023c-0.569,0.756-0.658,1.624-0.788,2.486c-0.077,0.509,0.011,1.021-0.204,1.538
		c-0.177,0.428,0.15,0.987-0.239,1.412c0.074,0.815-0.222,1.685,0.333,2.425c0.44,0.056,0.252-0.462,0.531-0.541
		c-0.141-0.54,0.188-1.012,0.255-1.524c0.115-0.872,0.102-1.783,0.44-2.614c0.313-0.77,0.644-1.54,1.05-2.262
		c0.219-0.391,0.555-0.827,0.942-0.985c0.474-0.193,0.706-0.628,1.165-0.835c0.456-0.206,0.71-0.725,0.688-1.308
		c-0.024-0.647,0.055-1.303-0.022-1.941c-0.078-0.653,0.373-1.213,0.221-1.821c0.624-0.889,1.127-1.839,2.324-2.401
		c0.424-0.068,0.531,0.593,1.006,0.786c-0.709,1.882-1.559,3.678-1.349,5.67c0.101,0.953,0.589,1.84,0.762,3.027
		c-0.143,0.416-0.279,1.148-0.79,1.647c-0.39,0.38-0.509,0.885-0.812,1.297c-0.142,0.192,0.022,0.528-0.386,0.792
		c0.605-0.052,0.908-0.292,1.22-0.558c0.704-0.6,1.069-1.499,1.861-2.041c0.528,0.054,0.941-0.207,1.378-0.528
		c0.364-0.268,0.847-0.375,1.282-0.556c0.293,0.163,0.632,0.254,0.856,0.541c0,0.211,0,0.426,0,0.681
		c-0.894,0.496-1.528,1.318-2.267,2.026c-0.732,0.701-1.275,1.557-1.916,2.334c-0.196,0.237-0.185,0.434-0.038,0.691
		c0.854-0.868,1.854-1.538,2.88-2.146c0.754-0.448,1.612-0.717,2.539-0.665c0.092,0.096,0.19,0.2,0.314,0.33
		c-0.014,0.07,0,0.203-0.058,0.255c-0.213,0.19-0.19,0.499-0.443,0.692c-0.928,0.708-1.466,1.734-2.097,2.685
		c-0.174,0.263-0.431,0.475-0.662,0.698c-0.861,0.831-1.268,1.839-1.281,3.036c-0.012,1.082,0.146,2.132,0.437,3.168
		c0.019,0.067-0.027,0.166,0.007,0.212c0.863,1.172,0.659,2.529,0.623,3.838c-0.016,0.555-0.255,1.106-0.613,1.641
		c0,0.726,0,1.514,0,2.284c-0.786,0.987-1.757,1.614-2.967,1.962c-0.802,0.231-1.537,0.74-2.146,1.298
		c-0.648,0.594-1.356,1.037-2.39,1.446c-0.323,0.022-0.905,0.048-1.413-0.364c-0.205-0.167-0.478-0.054-0.731-0.063
		c-0.353,0.841,0.234,1.635,0.129,2.462c-0.462,0.611-1.124,0.744-1.852,0.786c-0.362,0.364-0.742,0.747-1.083,1.092
		c-0.342,0.805-0.26,1.65-0.604,2.546c-0.678,0.701-1.763,1.137-2.487,2.083c-0.11,0.545,0.184,1.218-0.373,1.784
		c-0.625,0.087-1.164,0.402-1.488,1.104c-0.237,0.512-0.529,0.999-0.76,1.521c-0.403,0.916-1.05,1.641-1.911,2.162
		c-0.053,0.032-0.142,0.004-0.247,0.004c-0.335-0.093-0.479-0.469-0.778-0.647c-0.452-0.063-0.746,0.284-1.16,0.423
		c-0.64-0.175-1.041-0.724-1.513-1.185c0-0.144,0-0.287,0-0.428c-0.18-0.181-0.358-0.358-0.517-0.517
		c-0.56,0.396-1.184,0.088-1.713,0.202c-0.394-0.307-0.709-0.702-1.111-0.835c-1.03-0.341-1.526-1.076-1.762-2.146
		c0.334-0.677,0.924-1.325,1.225-2.149c0.303-0.828,0.799-1.6,0.611-2.578c-0.259-0.167-0.588-0.034-0.978-0.093
		c-0.108-0.142-0.26-0.339-0.411-0.537c-0.236-0.345-0.063-0.73,0.138-1.015c0.399-0.564,0.883-1.077,1.621-1.271
		c0.306-0.671,0.306-0.671,0.306-2.04c0.544-0.328,0.721-0.953,1.056-1.525c0.022-0.328-0.068-0.78,0.106-1.081
		c0.21-0.364,0.233-0.811,0.098-1.003c-0.236-0.333-0.007-0.803-0.436-0.956c0.146-0.287,0.252-0.495,0.361-0.708
		c1.299,0.114,2.5-0.653,3.947-0.368c0.528,0.271,0.803,0.965,1.232,1.497c0.329,0.406,0.653,0.819,1.029,1.177
		c0.56,0.532,0.97,1.104,0.802,1.906c0.178,0.11,0.231,0.326,0.336,0.326C30.778,49.32,31.229,48.87,31.571,48.527z M44.208,35.708
		c0.062,0.034,0.122,0.067,0.183,0.101c0.677-1.269,1.087-2.627,1.23-4.084c-0.266-0.109,0.016-0.508-0.219-0.674
		c-0.952,0.675-1.137,1.683-1.188,2.734C44.182,34.424,44.208,35.067,44.208,35.708z M23.45,47.18
		c0.112,0.231-0.068,0.505,0.176,0.78c0.233,0.262,0.256,0.693,0.554,0.941c0.065,0.055,0.187,0.042,0.381,0.078
		c-0.069-0.773,0.193-1.536-0.354-2.17C23.895,46.75,23.685,46.85,23.45,47.18z M33.183,55.945c-0.375-0.075-0.715-0.581-1.102-0.13
		c-0.256,0.299-0.859,0.234-0.835,0.838c0.591,0.287,1.103-0.211,1.668-0.199C33.012,56.456,33.214,56.27,33.183,55.945z
		 M28.063,51.048c-0.203-0.587-0.722-0.822-1.018-1.23c-0.188,0.043-0.378-0.069-0.536,0.101c0,0.125,0,0.264,0,0.459
		C26.905,50.759,27.282,51.267,28.063,51.048z M22.246,55.046c-0.182-0.222-0.25-0.51-0.622-0.466
		c-0.155,0.216-0.162,0.431,0.026,0.664C21.802,55.161,21.992,55.31,22.246,55.046z M28.13,61.91
		c-0.146,0.2-0.478,0.266-0.244,0.667C28.032,62.376,28.364,62.311,28.13,61.91z M24.283,56.933
		c-0.089-0.164-0.165-0.305-0.247-0.457c-0.168,0.202-0.171,0.321-0.05,0.457C24.07,56.933,24.164,56.933,24.283,56.933z"/>
	
	
	
	
	
	
	
</g>
</svg>
