<?xml version="1.0" encoding="iso-8859-1"?>
<!-- Generator: Adobe Illustrator 16.0.0, SVG Export Plug-In . SVG Version: 6.00 Build 0)  -->
<!DOCTYPE svg PUBLIC "-//W3C//DTD SVG 1.1//EN" "http://www.w3.org/Graphics/SVG/1.1/DTD/svg11.dtd">
<svg version="1.1" id="Layer_1" xmlns="http://www.w3.org/2000/svg" xmlns:xlink="http://www.w3.org/1999/xlink" x="0px" y="0px"
	 width="72.36px" height="72.18px" viewBox="0 0 72.36 72.18" style="enable-background:new 0 0 72.36 72.18;" xml:space="preserve"
	>
<g>
	
	<path fill="currentColor" d="M26.497,40.968c0.526,0.054,0.946-0.168,1.286-0.539
		c0.287-0.313,0.614-0.576,0.99-0.746c0.402-0.183,0.702-0.358,0.771-0.867c0.044-0.329,0.341-0.542,0.712-0.678
		c0.376-0.137,0.746-0.374,0.968-0.731c0.149-0.493-0.15-0.855-0.346-1.326c0.1-0.188,0.234-0.44,0.37-0.696
		c-0.016-0.061-0.012-0.146-0.053-0.188c-0.339-0.352-0.657-0.757-1.133-0.904c-0.317-0.099-0.608-0.311-0.985-0.244
		c-0.597,0.106-1.173-0.118-1.694-0.331c-0.607-0.248-0.943,0.217-1.409,0.322c-0.024,0.449-0.597,0.815-0.218,1.318
		c0.152,0.202,0.1,0.412,0.086,0.61c-0.049,0.752,0.302,1.258,0.971,1.511c0.211,0.08,0.365,0.18,0.518,0.331
		c0.063,0.347,0.104,0.694-0.33,1.01c-0.938-0.203-2.016-0.129-2.911-0.799c-0.051-0.052-0.151-0.109-0.145-0.152
		c0.038-0.271-0.299-0.389-0.257-0.696c-0.014-0.546,0.693-0.815,0.643-1.503c-0.663-0.614-1.313-1.324-1.294-2.361
		c0.343-0.386,0.931-0.439,1.111-1.072c-0.497-0.411-0.883-0.988-1.531-1.327c-0.383-0.201-0.591-0.074-0.837,0.198
		c0.321,0.708,1.066,1.271,0.794,2.229c-0.281,0.291-0.654,0.568-0.787,1.039c-0.093,0.451,0.11,0.98-0.493,1.389
		c-0.041,0-0.251,0-0.542,0c-0.319-0.535-1.157-0.632-1.38-1.617c-0.006-0.348-0.063-0.928,0.358-1.448
		c0.198-0.244,0.053-0.615,0.06-0.861c-0.16-0.291-0.398-0.524-0.402-0.761c-0.02-1.251-1.12-2.224-0.861-3.534
		c-0.542-0.729-0.712-1.606-0.862-2.449c-0.255-1.434-0.645-2.557-1.511-4.134c-0.228-0.416-0.602-0.854-0.46-1.429
		c0.078-0.319-0.171-0.593-0.258-0.866c-0.106-0.332-0.217-0.7-0.355-1.037c-0.139-0.339-0.03-0.779-0.03-0.938
		c0.265-0.367,0.43-0.596,0.577-0.799c0.643,0.212,0.958,0.664,1.33,1.126c0.63,0.784,1.197,1.617,1.863,2.379
		c0.945,1.082,1.822,2.225,2.847,3.238c0.098,0.097,0.175,0.239,0.358,0.182c0.309-0.104,0.195-0.437,0.127-0.529
		c-0.468-0.641-0.344-1.436-0.599-2.132c-0.15-0.413,0.17-0.844,0.333-1.248c0.361-0.895,0.926-1.701,1.133-2.56
		c0.996-0.961,2.189-1.593,2.958-2.76c0.504-0.26,1.082-0.524,1.623-0.851c0.209-0.126,0.355-0.292,0.641-0.301
		c0.212-0.007,0.578-0.167,0.599-0.301c0.118-0.754,0.811-0.556,1.219-0.72c0.37-0.149,0.753-0.234,1.104-0.473
		c0.433-0.295,0.875-0.704,1.478-0.253c0.141,0.105,0.415,0.038,0.627,0.038c1.511,0.002,3.023,0.009,4.535-0.005
		c0.301-0.003,0.646,0.138,0.896-0.19c0.041-0.054,0.228-0.057,0.307-0.013c0.734,0.417,1.531,0.102,2.296,0.229
		c0.537,0.389,1.11,0.715,1.792,0.861c0.276,0.06,0.582,0.176,0.796,0.417c0.293,0.33,0.692,0.413,1.103,0.458
		c0.429,0.405,0.79,0.891,1.401,1.059c0.123,0.034,0.232,0.146,0.33,0.242c0.988,0.969,1.908,2.011,2.904,2.656
		c0.296,0.359,0.089,0.648,0.36,0.838c0.318,0.224,0.328,0.663,0.513,0.962c0.267,0.433,0.061,0.903,0.264,1.299
		c0.188,0.367,0.41,0.706,0.363,1.149c-0.021,0.206,0.355,0.288,0.239,0.573c-0.214,0.416-0.428,0.831-0.676,1.313
		c-0.037,0.567,0.084,1.214-0.346,1.833c-0.2,0.289-0.074,0.803-0.095,1.173c0.383,0.141,0.455-0.141,0.655-0.236
		c0-0.326,0.021-0.647-0.004-0.965c-0.046-0.583,0.06-1.109,0.51-1.517c0.118-0.108,0.129-0.228,0.149-0.374
		c0.048-0.344,0.242-0.619,0.455-0.891c1.023-1.302,2.097-2.563,3.087-3.894c0.453-0.608,0.879-1.28,1.602-1.829
		c0.242-0.149,0.292,0.516,0.657,0.186c0,0.983,0,1.84,0,2.778c-0.251,0.185-0.433,0.514-0.62,0.951
		c0.123,0.817-0.357,1.53-0.875,2.305c0.196,0.618-0.244,1.222-0.213,1.931c-0.194,0.16-0.415,0.342-0.553,0.455
		c-0.054,0.184-0.089,0.248-0.089,0.312c-0.004,1.072-0.411,2.061-0.682,3.071c-0.068,0.257-0.187,0.507-0.183,0.783
		c0.007,0.527-0.157,1.003-0.436,1.44c-0.56,0.878-0.714,1.846-0.646,2.864c0.01,0.136-0.005,0.304,0.066,0.401
		c0.244,0.331,0.236,0.632,0.003,0.962c-0.153,0.216-0.031,0.482-0.08,0.722c-0.689,0.664-0.82,0.722-1.631,0.729
		c-0.322-0.329-0.5-0.701-0.535-1.186c-0.04-0.544-0.446-0.917-0.842-1.266c0-0.36,0-0.718,0-1.098
		c0.349-0.271,0.516-0.669,0.719-1.208c-1.013,0.148-1.738,0.593-2.369,1.102c0.428,0.428,0.845,0.845,1.188,1.189
		c0,0.523,0,0.876,0,1.3c-0.395,0.477-0.884,0.872-1.659,0.719c-0.392-0.548-0.582-1.259-1.272-1.679
		c-0.026-0.002-0.146,0.022-0.23-0.021c-0.639-0.324-1.218-0.263-1.822,0.137c-0.742,0.491-1.524,0.888-1.976,1.741
		c-0.223,0.421-0.683,0.717-1.005,1.039c-0.028,0.408,0.043,0.721,0.456,0.754c0.532,0.042,0.879,0.361,1.243,0.738
		c0,0.184,0,0.393,0,0.655c0.361,0.295,0.646,0.683,0.891,1.1c0.314,0.54,0.666,1.011,1.321,1.204
		c0.245,0.071,0.432,0.348,0.638,0.539c0.642,0.597,0.981,0.674,1.742,0.297c0.256-0.127,0.486-0.226,0.779-0.213
		c0.75,0.033,1.376-0.3,1.965-0.674c0.047-1.237,0.047-1.237-0.659-2.2c0.56-0.479,0.94-1.205,1.895-1.232
		c0.128,0.167,0.279,0.364,0.52,0.677c-0.021-0.103,0.004-0.036,0.005,0.03c0.003,0.54,0.015,1.081-0.002,1.62
		c-0.026,0.899-0.223,1.717-0.765,2.498c-0.369,0.533-0.616,1.188-0.982,1.738c-0.207,0.313-0.166,0.593-0.196,0.918
		c-0.773,0.541-1.071,1.549-1.935,2.034c-0.802,0.451-1.232,1.353-2.114,1.813c-0.097,0.207-0.162,0.547-0.367,0.732
		c-0.248,0.227-0.268,0.569-0.563,0.803c0.267,0.867-0.48,1.479-0.655,2.271c-0.165,0.752-0.568,1.431-1.058,2.03
		c0,0.659,0,1.307,0,1.896c-0.333,0.601-0.64,1.154-1.085,1.959c-0.36,0.259-0.617,0.972-1.077,1.512
		c-0.475,0.555-0.898,1.162-1.388,1.68c-0.447-0.117-0.777,0.159-1.137,0.238c-0.971,0.217-1.904,0.34-2.853-0.033
		c-0.031-0.013-0.072-0.006-0.107-0.001c-0.959,0.146-1.865-0.39-2.7-0.209c-1.2-0.516-2.006-1.362-2.754-2.234
		c-0.474-0.552-0.992-1.125-1.159-1.888c-0.014-0.063-0.049-0.124-0.083-0.182c-0.578-0.955-0.81-1.616-0.769-2.592
		c0.035-0.826-0.333-1.448-0.836-2.08c-0.048-0.91-0.112-1.072-0.701-1.74c0.152-0.758-0.196-1.323-0.743-1.83
		c-0.58-0.539-1.134-1.105-1.681-1.678c-0.438-0.459-1.027-0.723-1.457-1.205c-0.235-0.265-0.417-0.554-0.586-0.846
		c-0.334-0.577-0.644-1.172-0.9-1.785c-0.069-0.167-0.133-0.31-0.253-0.436c-0.215-0.227-0.529-0.402-0.413-0.801
		c-0.822-0.939-0.638-2.083-0.647-3.187c-0.004-0.539,0-1.078,0-1.61c0.683-0.528,0.83-0.478,1.939,0.658c0,0.363,0,0.722,0,1.076
		c-0.25,0.214-0.278,0.54-0.425,0.774c-0.04,0.47,0.387,0.732,0.43,1.146c0.35,0.212,0.707,0.446,1.139,0.335
		c0.383-0.099,0.673,0.151,0.983,0.251c0.408,0.13,0.796,0.211,1.255,0.179C25.961,41.671,26.563,41.556,26.497,40.968z
		 M34.567,49.607c-0.47-0.553-0.459-1.185-0.593-1.723c-0.352-0.023-0.427,0.208-0.616,0.404c0,0.693,0,1.437,0,2.194
		c-1.029-0.15-1.375-1.198-2.367-1.637c0.292,0.886,0.886,1.544,0.703,2.254c0.209,0.627,0.636,1.021,0.64,1.592
		c-0.196,0.213-0.385,0.417-0.522,0.565c-0.427,0.104-0.64-0.22-0.967-0.254c0.035-0.522-0.534-0.656-0.724-1.09
		c-0.139-0.318-0.344-0.777-0.789-1.034c-0.014,0.196-0.056,0.313-0.023,0.4c0.257,0.685,0.535,1.36,0.792,2.046
		c0.087,0.23,0.19,0.433,0.382,0.6c0.368,0.319,0.55,0.765,0.8,1.17c0.326,0.526,0.348,1.16,0.731,1.64
		c0.24-0.035,0.497,0.086,0.582,0.023c0.491-0.588,0.286-1.252,0.673-1.72c0.273,0.063,0.383-0.303,0.66-0.246
		c0.14,0.355,0.516,0.12,0.73,0.286c0.517,0.33,0.292,1.06,0.775,1.414c0.207-0.325,0.689-0.038,0.874-0.382
		c0.425,0.249,0.951,0.277,1.326,0.604c0.282-0.196,0.31-0.531,0.499-0.763c-0.297-0.25-0.272-0.629-0.12-0.856
		c0.112-0.169,0.043-0.439,0.288-0.521c0.312,0.137,0.504-0.172,0.775-0.22c0.189,0.255,0.488,0.205,0.745,0.261
		c0.393,0.657,0.24,1.466,0.602,2.094c0.25,0.112,0.362-0.079,0.449-0.214c0.31-0.477,0.61-0.966,0.734-1.527
		c0.037-0.174,0.044-0.326,0.184-0.468c0.683-0.69,1.024-1.576,1.321-2.471c0.09-0.271,0.31-0.372,0.438-0.585
		c-0.004-0.232,0.071-0.48-0.081-0.772c-0.251,0.288-0.628,0.451-0.557,0.918c-0.49,0.686-0.681,1.691-1.822,1.693
		c-0.099-0.095-0.201-0.192-0.347-0.332c0.118-0.466-0.086-0.956,0.161-1.503c0.199-0.439,0.041-1.04,0.041-1.609
		c0.498-0.073,0.38-0.568,0.654-0.783c-0.142-0.328-0.553-0.268-0.708-0.469c-0.769,0.109-0.807,1.076-1.789,1.208
		c-0.205-0.052-0.693,0.174-1.115-0.054c-0.448-0.241-0.901-0.098-1.35-0.127c-0.466-0.03-0.935-0.007-1.402-0.007
		C35.02,49.607,34.805,49.607,34.567,49.607z M36.231,37.116c-0.164,0.771-0.501,1.353-1.081,1.764
		c0.054,0.945-0.688,1.591-0.819,2.463c0.216,0.161,0.161,0.572,0.502,0.683c0.081-0.259,0.403-0.104,0.494-0.315
		c0.295-0.521,0.259-1.196,0.74-1.567c0.432,0,0.818,0,1.165,0c0.49,0.484,0.474,1.151,0.795,1.665c0.238,0,0.479,0,0.751,0
		c0-0.478,0-0.935,0-1.409c-0.566-0.524-0.845-1.269-1.231-1.903c0.195-0.379,0.388-0.754,0.581-1.133
		c-0.283-0.062-0.076-0.424-0.318-0.463C37.254,36.672,36.802,37.073,36.231,37.116z M39.676,59.481
		c-0.02-0.259,0.029-0.454-0.154-0.643c-0.414-0.425-0.925-0.579-1.481-0.586c-1.362-0.018-2.725-0.006-4.113-0.006
		c-0.277,0.469-0.992,0.49-1.194,1.126c0.175,0.288,0.4,0.468,0.785,0.374c0.14-0.133,0.293-0.279,0.382-0.364
		c0.894-0.197,1.733,0.108,2.576-0.235c0.354-0.145,0.86-0.041,1.325,0.092C38.367,59.4,38.964,59.704,39.676,59.481z
		 M22.572,23.728c-0.151,0.336-0.247,0.681,0,1.005C22.572,24.398,22.572,24.063,22.572,23.728z"/>
	<path fill="currentColor" d="M44.786,37.51c0.478,0,0.978,0,1.463,0c0.389-0.319,0.659-0.703,0.804-1.21
		c0.383-0.249,0.832-0.385,1.438-0.241c0.08,0.105,0.231,0.302,0.472,0.615c0.202,0.853-0.31,1.464-1.347,1.894
		c-0.768-0.184-1.65,0.445-2.723,0.169c-0.087-0.116-0.255-0.34-0.487-0.651C44.382,37.953,44.456,37.732,44.786,37.51z"/>
	<path fill="currentColor" d="M26.46,40.926c-0.548,0.361-1.184,0.235-1.783,0.26
		c-0.441-0.341-0.727-0.794-1.345-0.958c-0.439-0.116-0.756-0.681-0.725-1.264c0.182-0.382,0.6-0.399,0.854-0.574
		c0.443,0.442,0.868,0.868,1.229,1.229c0.698,0.07,1.255,0.177,1.77,0.518C26.46,40.414,26.46,40.691,26.46,40.926z"/>
	<path fill="currentColor" d="M49.777,38.604c0.133,0.588,0.022,1.085-0.381,1.7
		c-0.329,0.197-0.871,0.522-1.457,0.874c-0.459,0.004-0.987,0.092-1.517-0.315c-0.054-0.103-0.161-0.309-0.271-0.518
		c-0.03-0.171,0.137-0.228,0.201-0.344c0.045-0.083,0.038-0.194,0.057-0.31c0.448,0,0.873,0,1.309,0
		c0.253-0.236,0.57-0.408,0.616-0.799C48.748,38.58,49.226,38.559,49.777,38.604z"/>
	<path fill="currentColor" d="M29.957,35.668c-0.262,0.249-0.372,0.566-0.465,0.897
		c-1.179,0.511-1.25,0.484-2.565-0.938c0.026-0.165-0.05-0.342,0.104-0.498c0.086-0.087,0.107-0.239,0.185-0.425
		c0.321,0,0.673,0,1.024,0c0.322,0,0.644,0,0.801,0C29.644,34.886,29.882,35.215,29.957,35.668z"/>
	<path fill="currentColor" d="M43.352,36.55c-0.043-0.54-0.028-1.064,0.376-1.468
		c0.54-0.54,1.24-0.344,1.88-0.382c0.111,0.112,0.213,0.213,0.321,0.322c0,0.208,0,0.421,0,0.654
		c-0.398,0.464-0.948,0.744-1.477,1.06C44.009,36.999,43.658,36.921,43.352,36.55z"/>
	
	
	
	
	<path fill="currentColor" d="M33.514,50.903c0.073,0,0.143,0,0.213,0c0.13,0.097,0.143,0.219,0.084,0.348
		c-0.075,0.131-0.192,0.069-0.291,0.086C33.355,51.193,33.36,51.05,33.514,50.903z"/>
</g>
</svg>
