<svg xmlns="http://www.w3.org/2000/svg" xml:space="preserve" width="72px" height="72px" viewBox="0 0 72 72">
    <path fill="currentColor" d="M15.666 58.979c.317-.621.509-1.261 1.063-1.64.127-.477-.109-1.101.604-1.27.183-.368.418-.723.276-1.189.829-.426.817-1.302 1.103-2.018.06-.151-.019-.336.144-.484.508-.466.616-1.119.713-1.749.05-.326.253-.547.367-.824.259-.628.542-1.231.526-1.947-.012-.573.188-1.124.414-1.658.266-.63.553-1.268.431-1.978-.082-.474.29-.843.233-1.317-.055-.461-.132-.976.012-1.394.372-1.082.072-2.181.213-3.218.233-.377.361-.8.88-1.008.59.146 1.059.399 1.342 1.21.288.825.663 1.691 1.255 2.388.241.282.152.643.374.935.282.37.36.896.856 1.096.232.018.281-.208.491-.333-.325-1.292.345-2.45.653-3.668.054-.216.171-.436.174-.678.004-.36.031-.723-.004-1.079-.114-1.165.285-2.238.564-3.333.016-.063.094-.126.083-.178-.159-.786.327-1.512.218-2.287-.14-.996.175-1.922.492-2.824.097-.276.153-.526.155-.796.01-1.259-.012-2.52.011-3.779.011-.598-.34-1.13-.241-1.749.04-.25.149-.446.235-.664-.277-.495-.29-1.101-.741-1.535-.505-.486-1.085-.864-1.635-1.286-.068-.052-.21-.007-.33-.007l-.523-.553c.177-.776.55-1.481 1.068-2.153 0-.365-.02-.759.006-1.151.022-.337-.033-.654.17-1.012.24-.423.02-.986-.2-1.388-.295-.539-.169-.97.07-1.438l1.047-.522c.229.003.408.46.748.185.187.454.427.807.299 1.249.75.648 1.685.522 2.449.768.579-.431.35-1.214.976-1.552.425.046.883.166 1.263.471.354.286.407.824.904 1.048.491-.04 1.051.097 1.588-.198.189-.104.508-.06.733.019.149.052.265.205.464.184.179-.018.359-.003.54-.003.553-.246.601-.936 1.161-1.268h.877l1.007 1.007c.532.17 1.177-.172 1.662.278.523-.306 1.119-.479 1.132-1.234.003-.155.284-.306.464-.485h.911c.31.114.252.482.39.617.139.104.123.149.037.207-.185.124-.12.318-.121.488-.005.9.043 1.803-.017 2.699-.048.715.069 1.415.27 2.059.146.47.234.824-.032 1.241-.049.077-.007.212-.007.329-.815.842-1.758 1.595-2.162 2.763.299.904.295 1.35.012 2.636-.038.171-.01.358-.01.537 0 1.224.006 2.448-.003 3.671-.004.628.219 1.205.451 1.758.256.612.439 1.208.424 1.88-.028 1.187.004 2.375-.013 3.563-.011.803.218 1.539.5 2.278.244.64.45 1.301.36 1.986l.645 1.236c.104.676-.154 1.474.203 2.259.625-.435.923-.942 1.182-1.51.208-.455.56-.869.752-1.31.303-.699.675-1.376.897-2.111.1-.327.213-.645.511-.917h.921c.522.432.812.982.738 1.718-.046.464-.04.938-.001 1.402q.09 1.068.378 2.107c.084.299.047.635.045.954-.016 2.318-.063 1.725.731 4.125.137.414.303.811.371 1.256.069.45.229.928.486 1.299.324.47.381.95.355 1.399.346.659.802 1.17 1.079 1.994v.764l.63.524c.023.216 0 .375.061.49.361.677.768 1.325 1.063 2.044.152.371.541.646.841.984v1.043c-.249.238-.499.455-.814.63a8.6 8.6 0 0 0-1.577 1.138c-.494.448-1.067.79-1.544 1.268-.293.294-.74.462-1.115.68-.756.439-1.512.873-2.245 1.353-.271.178-.614.252-.932.351-.594.187-1.02.652-1.694.951a1.96 1.96 0 0 0-1.578.56c-.212.203-.553.384-.942.315-.955-.167-1.871.306-2.824.205-.268-.028-.469.164-.652.252-.854.409-1.74.407-2.644.403-1.655-.009-3.311.004-4.967-.007-.495-.004-1.058.172-1.467-.09-.418-.268-.957.141-1.27-.338-1.115.027-2.128-.666-3.278-.441-.505.099-.855-.353-1.299-.501-.347-.115-.625-.433-1.04-.354-.271.052-.531-.169-.628-.271-.406-.431-.933-.607-1.442-.715-.683-.144-1.108-.647-1.67-.938-.754-.388-1.433-.886-2.164-1.295-.463-.26-.711-.727-1.218-.959-.44-.201-.748-.672-1.285-.821-.347-.096-.316-.599-.614-.812-.518-.371-.513-.379-.811-1.017m20.855-42.895c-.658.235-.954.514-.935 1.04.021.571-.387 1.062-.233 1.637-.566 1.111-.382 2.312-.449 3.488-.031.543.154 1.026.265 1.522.047.211.213.42.183.673-.049.41.165.724.387 1.025.124.168.245.298.284.537.045.282.155.587.396.802.082.073.156.141.358.103l.479-.525c.121-.292.095-.556.183-.834.275-.871.539-1.765.512-2.706a41 41 0 0 1-.001-1.941c.011-.628-.361-1.208-.22-1.852.096-.438-.084-.823-.307-1.165-.253-.39-.401-.788-.347-1.137z"/>
</svg>
