<?xml version="1.0" encoding="iso-8859-1"?>
<!-- Generator: Adobe Illustrator 16.0.0, SVG Export Plug-In . SVG Version: 6.00 Build 0)  -->
<!DOCTYPE svg PUBLIC "-//W3C//DTD SVG 1.1//EN" "http://www.w3.org/Graphics/SVG/1.1/DTD/svg11.dtd">
<svg version="1.1" id="Layer_1" xmlns="http://www.w3.org/2000/svg" xmlns:xlink="http://www.w3.org/1999/xlink" x="0px" y="0px"
	 width="72.36px" height="72.18px" viewBox="0 0 72.36 72.18" style="enable-background:new 0 0 72.36 72.18;" xml:space="preserve"
	>
<g>
	<path fill="currentColor" d="M44.424,35.024c-0.771,0.837-1.663,1.368-2.723,1.63
		c-0.255,0.063-0.516,0.17-0.728,0.322c-0.885,0.635-1.867,0.957-2.949,0.962c-0.523,0.003-0.962,0.472-1.375,0.222
		c-1.029,0.51-1.971,0.841-2.948,1.076c-0.135,0.032-0.323-0.038-0.416,0.032c-0.748,0.565-1.659,0.696-2.511,0.984
		c-0.916,0.31-1.83,0.623-2.748,0.927c-0.097,0.031-0.214,0.004-0.42,0.004c-0.157,0.196-0.358,0.445-0.472,0.587
		c-0.676,0.166-1.201,0.363-1.773,0.283c-0.371-0.052-0.642,0.19-0.926,0.413c-0.753-0.061-1.496,0.202-2.254,0.283
		c-0.682,0.073-1.432,0.327-2.104,0.812c-0.88-0.086-1.7,0.366-2.569,0.636c-1.086,0.338-2.168,0.65-3.163,1.236
		c-0.915,0.54-1.375,1.328-1.696,2.313c-0.289,0.888-0.188,1.65,0.227,2.445c0.137,0.261,0.28,0.39,0.548,0.527
		c0.505,0.259,1.002,0.446,1.564,0.396c1.028-0.092,2.011,0.386,3.042,0.22c0.441,0.414,1.044,0.166,1.567,0.388
		c0.488,0.208,1.144-0.023,1.706,0.065c0.486,0.077,0.99,0.146,1.451,0.398c0.375,0.206,0.823,0.272,1.216,0.45
		c1.116,0.506,1.598,1.432,1.659,2.614c0.013,0.249,0.002,0.498,0.002,0.719c-0.502,0.76-1.019,1.451-1.835,1.856
		c-0.153,0.075-0.273,0.235-0.383,0.376c-0.455,0.584-1.139,0.747-1.791,0.882c-0.346,0.072-0.635,0.216-0.959,0.34
		c0,0.32-0.04,0.648,0.012,0.962c0.043,0.26,0.307,0.47,0.198,0.784c-0.095,0.095-0.197,0.196-0.29,0.288
		c-0.909,0.245-1.511-0.361-2.135-0.804c-0.838-0.595-1.653-1.223-2.488-1.822c-0.087-0.062-0.154-0.151-0.23-0.227
		c-0.551-0.544-1.173-1.021-1.711-1.56c-0.512-0.512-0.998-1.081-1.476-1.641c-1.206-1.409-2.315-2.896-3.323-4.453
		c-0.91-1.406-1.514-2.976-2.324-4.437c-0.258-0.466-0.292-1.029-0.437-1.542c-0.173-0.613-0.544-1.158-0.591-1.819
		c-0.01-0.136-0.117-0.316-0.104-0.486c0.071-0.982-0.42-1.878-0.435-2.846C4.931,39.397,5.28,38.83,5.09,38.41
		c-0.313-0.693-0.099-1.394-0.201-2.079c-0.128-0.858,0.24-1.661,0.224-2.503c-0.015-0.797,0.197-1.549,0.416-2.309
		c0.14-0.488-0.135-1.058,0.232-1.526c-0.113-0.684,0.289-1.249,0.435-1.872c0.138-0.588,0.22-1.209,0.474-1.746
		c0.262-0.552,0.403-1.136,0.63-1.684c0.407-0.983,1.035-1.874,1.468-2.848c0.358-0.807,0.847-1.485,1.467-2.092
		c0.571-0.559,1.379-0.807,1.884-1.449c0.377,0.133,0.61-0.29,0.986-0.241c0.39,0.05,0.791,0.011,1.103,0.011
		c0.536,0.251,0.979,0.507,1.146,1.053c0.028,0.091,0.169,0.142,0.218,0.233c0.131,0.248,0.424,0.317,0.607,0.354
		c0.732,0.148,1.268,0.836,2.076,0.734c0.066-0.008,0.129-0.034,0.286-0.077c-0.279-0.239-0.482-0.491-0.596-0.801
		c-0.112-0.303-0.146-0.575,0.04-0.883c0.275-0.456,0.54-0.929,0.723-1.426c0.23-0.625,0.66-1.146,0.708-1.884
		c0.031-0.479,0.269-1.102,0.866-1.379c0.386,0,0.771,0,1.217,0c0.755,1.111,0.922,2.468,1.459,3.886
		c0.038,0.035,0.221,0.206,0.406,0.378c0.248-0.198,0.616-0.261,0.818-0.595c0.378,0,0.763,0,1.219,0
		c0.586,1.036,0.454,2.358,1.129,3.424c0.89,0.053,1.708-0.21,2.518-0.443c0.369-0.105,0.716-0.216,1.104-0.203
		c0.467,0.016,0.939,0.039,1.403-0.007c0.403-0.04,0.798,0.04,1.082,0.251c0.271,0.202,0.548,0.26,0.787,0.176
		c0.854-0.299,1.662-0.151,2.533-0.029c1.053,0.149,2.059,0.413,3.077,0.677c0.37,0.096,0.786,0.016,1.18,0.016
		c0.137-0.173,0.296-0.299,0.598-0.198c-0.24-1.325,0.068-2.416,0.673-3.476c0.377-0.663,0.638-1.371,1.62-1.431
		c0.518,0.306,0.827,0.604,0.862,1.203c0.024,0.394,0.273,0.709,0.242,1.097c-0.029,0.371,0.275,0.613,0.367,0.925
		c0.097,0.332,0.063,0.701,0.086,1.063c-0.323,0.289-0.639,0.572-1.14,1.02c0.797-0.036,1.343,0.192,1.864-0.182
		c0.072-0.052,0.207-0.02,0.313-0.021c0.323-0.002,0.761,0.129,0.944-0.031c0.272-0.237,0.589-0.188,0.861-0.304
		c0.487-0.208,1.058-0.276,1.598-0.3c0.835-0.038,1.602-0.217,2.336-0.634c0.398-0.226,0.869-0.352,1.323-0.442
		c0.246-0.049,0.352-0.211,0.513-0.335c-0.011-0.204,0.009-0.387-0.129-0.594c-0.3-0.452,0.119-0.854,0.26-1.226
		c0.328-0.868,0.808-1.678,1.244-2.548c0.337-0.131,0.705-0.547,1.139-0.065c0.559-0.041,0.428,0.571,0.731,0.772
		c-0.101,0.863,0.353,1.57,0.645,2.325c0.035,0.091,0.022,0.202,0.029,0.273c0.38,0.41,0.82,0.548,1.334,0.52
		c0.667-0.038,1.228,0.345,1.836,0.525c0.532,0.157,1.007,0.504,1.557,0.667c1.076,0.32,1.688,1.174,2.082,2.121
		c0.229,0.553,0.45,1.115,0.734,1.638c0.692,1.273,1.052,2.662,1.509,4.02c0.314,0.935,0.492,1.892,0.668,2.86
		c0.151,0.84,0.265,1.693,0.446,2.517c0.288,1.314,0.09,2.613,0.17,3.915c0.035,0.573,0.008,1.151,0.006,1.728
		c-0.002,0.52-0.182,1.016-0.256,1.524c-0.105,0.726-0.374,1.436-0.447,2.182c-0.009,0.09-0.162,0.179-0.152,0.254
		c0.145,1.051-0.445,1.905-0.772,2.817c-0.675,1.883-1.527,3.699-2.506,5.437c-0.542,0.962-1.116,1.919-1.709,2.857
		c-0.205,0.325-0.496,0.633-0.817,0.843c-0.771,0.506-1.421,1.107-1.896,1.903c-0.103,0.172-0.288,0.327-0.472,0.411
		c-0.504,0.231-0.87,0.623-1.107,1.079c-0.352,0.676-0.988,0.929-1.588,1.236c-0.261,0.134-0.568,0.14-0.88-0.089
		c-0.428-0.313-0.931-0.526-1.465-0.625c-0.856-0.158-1.486-0.757-2.221-1.152c-0.148-0.079-0.329-0.159-0.433-0.244
		c-0.637-0.519-1.195-1.11-0.957-2.021c0.903-1.214,2.218-1.828,3.494-2.506c0.293-0.156,0.61-0.295,0.854-0.566
		c0.177-0.197,0.136-0.387,0.156-0.59c-0.048-0.054-0.1-0.103-0.14-0.159c-0.558-0.791-1.397-1.104-2.287-1.246
		c-0.508-0.082-0.994-0.224-1.472-0.375c-0.495-0.157-1.002-0.03-1.515-0.251c-0.472-0.202-1.076-0.057-1.63-0.227
		c-0.379-0.117-0.812-0.184-1.143-0.369c-0.392-0.22-0.825,0.088-1.202-0.261c-0.257-0.238-0.702,0.033-1.09-0.226
		c-0.739-0.492-1.561-0.852-2.171-1.54c-0.189-0.215-0.369-0.437-0.433-0.688c-0.125-0.489-0.543-0.938-0.112-1.522
		c0.367-0.498,0.215-1.146,0.235-1.78c0.56-0.483,0.889-1.2,1.471-1.726c0.787-0.708,2.135-1.596,3.142-1.802
		c0.464-0.095,0.94-0.153,1.406-0.266c0.397-0.096,0.813,0.125,1.226-0.189c0.269-0.204,0.776,0.147,1.081-0.243
		c0.014-0.018,0.07-0.007,0.105-0.001c0.959,0.157,1.868-0.321,2.826-0.221c0.878,0.092,3.28-0.524,4.244-0.958
		c0.731-0.33,1.364-0.885,2.032-1.351c0.445-0.311,0.496-0.885,0.823-1.277c-0.158-0.351,0.266-0.559,0.188-1.055
		c-0.54-1.345-1.946-1.625-3.272-2.167c-0.181,0.262-0.322,0.467-0.572,0.831c0,0.444,0,1.119,0,1.768
		c-0.262,0.199-0.52,0.074-0.839,0.123c0.004-0.833-0.401-1.607-0.229-2.517c-1.206-0.433-2.371-1.018-3.689-0.94
		c-1.083,0.065-2.005-0.308-2.99-0.875c-0.368,0-0.832-0.004-1.296,0.001c-0.877,0.01-1.721-0.375-2.61-0.217
		c-0.228,0.04-0.361-0.169-0.55-0.24c-0.828-0.312-1.646-0.672-2.547-0.615c-1.129,0.072-2.179-0.153-3.229-0.559
		c-0.685-0.265-1.435-0.36-2.157-0.53c-0.866-0.203-1.709-0.48-2.629-0.462c-0.395,0.008-0.866-0.227-1.176-0.497
		c-0.417-0.363-0.916-0.686-1.134-1.245c-0.037-0.093-0.112-0.172-0.212-0.322c-0.068-0.985,0.445-1.869,0.803-2.823
		c-0.33-0.301-0.583,0.215-0.914,0.166c-0.642,0.681-1.592,0.678-2.369,1.062c-0.116,0.057-0.282,0.009-0.424,0.018
		c-1.005,0.062-1.839,0.491-2.516,1.217c-0.179,0.192-0.28,0.457-0.415,0.686c0.171,0.596,0.595,0.929,1.095,1.272
		c1.089,0.749,2.298,1.222,3.496,1.733c0.092,0.039,0.203,0.066,0.299,0.055c1.205-0.146,2.269,0.438,3.402,0.661
		c0.152,0.03,0.235,0.253,0.453,0.209c0.746-0.148,1.474,0.115,2.168,0.258c1.021,0.21,2.034,0.477,3.062,0.686
		c0.288,0.059,0.67,0.08,0.933,0.344c0.235,0.237,0.561,0.233,0.878,0.223c0.759-0.025,1.444,0.151,1.945,0.773
		c0.268,0.333,0.697,0.431,0.995,0.749c0.481,0.512,0.813,1.037,0.718,1.764C44.409,34.677,44.424,34.823,44.424,35.024z
		 M23.293,21.936c-0.149-0.726-0.359-1.322-0.885-1.73c-0.864,0.306-0.864,0.306-1.347,0.983
		C21.724,21.563,22.329,22.044,23.293,21.936z"/>
	<path fill="currentColor" d="M41.46,58.632c-0.227-0.529,0.084-1.002,0.201-1.615
		c0.197-0.139,0.489-0.345,0.78-0.551c0.315-0.115,0.637-0.38,1.114-0.583c0.157,0,0.441,0,0.759,0
		c0.294,0.459,0.859,0.431,1.313,0.641c0.559,0.258,1.271,0.31,1.482,1.059c0.026,0.095,0.112,0.181,0.116,0.272
		c0.015,0.319,0.006,0.64,0.006,1c-0.334,0-0.647,0-1.019,0c-0.241-0.414-0.76-0.599-1.165-0.923
		c-0.213-0.17-0.483-0.356-0.825-0.34c-0.422,0.02-0.802,0.185-1.131,0.389C42.173,58.548,42.102,58.607,41.46,58.632z"/>
	<path fill="currentColor" d="M32.718,52.597c-0.559,0.146-0.846-0.183-0.964-0.462
		c-0.396-0.936-1.174-0.787-1.917-0.792c-0.354,0.369-0.766,0.224-1.162,0.114c-0.424-0.117-0.851-0.245-1.096-0.7
		c0.67-0.526,1.345-1.057,2.004-1.574c0.457,0,0.884,0,1.373,0c0.247,0.587,0.739,0.954,1.361,1.173
		c0.637,0.224,0.942,0.727,1.128,1.368C33.307,52.112,32.914,52.281,32.718,52.597z"/>
	<path fill="currentColor" d="M38.86,56.101c-0.603-0.222-1.146-0.52-1.784-0.447
		c-0.455,0.052-0.888-0.021-1.28-0.307c0-0.131,0-0.271,0-0.46c0.312-0.277,0.656-0.585,1.069-0.953
		c0.684-0.106,1.396,0.051,1.922,0.73c0.153,0.197,0.474,0.129,0.704,0.606C39.631,55.622,39.173,55.825,38.86,56.101z"/>
	<path fill="currentColor" d="M45.705,52.913c0.086,0.37-0.039,0.603-0.249,0.749
		c-0.581,0.237-1.015-0.355-1.589-0.126c-0.306,0.48-0.93,0.378-1.254,0.621c-0.357-0.025-0.41-0.236-0.56-0.328
		c0-0.213,0-0.425,0-0.651c0.063-0.066,0.123-0.16,0.209-0.216c0.394-0.254,0.824-0.424,1.199-0.737
		c0.498-0.418,1.134-0.313,1.66,0.136C45.337,52.545,45.535,52.751,45.705,52.913z"/>
	<path fill="currentColor" d="M28.918,47.848c-0.462,0.088-0.711,0.001-0.898-0.292
		c0-0.187,0-0.396,0-0.63c0.241-0.452,1.384-1.308,2.041-1.408c0.616-0.095,1.038,0.401,1.506,0.606
		c0.241,0.396,0.09,0.644-0.2,0.876c-0.545,0-1.112,0-1.612,0C29.419,47.34,29.123,47.641,28.918,47.848z"/>
	<path fill="currentColor" d="M21.716,48.367c0.179-0.535,0.656-0.649,0.986-0.882
		c1.325-0.34,1.971,0.619,2.707,1.376c0,0.157,0,0.298,0,0.43c-0.109,0.109-0.21,0.21-0.314,0.314
		c-0.527,0.042-0.906-0.232-1.275-0.625c-0.494,0-1.02,0-1.546,0c0.037-0.047,0.073-0.095,0.11-0.142
		C22.155,48.677,21.926,48.516,21.716,48.367z"/>
	<path fill="currentColor" d="M36.667,43.408c0-0.306,0-0.474,0-0.646c0.848-0.658,1.81-0.804,2.95-0.684
		c0.081,0.115,0.224,0.318,0.46,0.655c0,0.039,0,0.278,0,0.529c-0.092,0.092-0.193,0.193-0.291,0.292
		C38.764,43.642,37.789,43.134,36.667,43.408z"/>
	<path fill="currentColor" d="M39.013,39.043c-0.044,0.606,0.633,1.167-0.114,1.712
		c-0.631-0.053-1.336,0.15-1.979-0.279c-0.137-0.276-0.077-0.521,0.181-0.717C37.644,39.347,38.19,38.943,39.013,39.043z"/>
	<path fill="currentColor" d="M32.652,40.752c0.431,0,0.861,0,1.292,0
		c0.353,0.311,0.511,0.711,0.597,1.229c-0.587,0.113-1.091,0.081-1.628-0.137C32.206,41.559,32.141,41.408,32.652,40.752z"/>
	<path fill="currentColor" d="M29.987,26.8c-0.135,0.119-0.241,0.212-0.375,0.332
		c-0.314,0-0.671,0-1.049,0c-0.288-0.167-0.427-0.417-0.286-0.837C28.9,26.209,29.437,26.461,29.987,26.8z"/>
	<path fill="currentColor" d="M53.148,34.252c-0.432,0.101-0.631-0.229-0.938-0.279
		c0-0.147,0-0.289,0-0.442c0.272-0.076,0.464-0.374,0.8-0.339c0.28-0.046,0.311,0.253,0.482,0.301
		C53.522,33.845,53.46,34.109,53.148,34.252z"/>
	<path fill="currentColor" d="M28.224,65.48c0,0.073,0,0.144,0,0.213
		c-0.096,0.131-0.219,0.143-0.348,0.085c-0.131-0.074-0.07-0.192-0.085-0.291C27.934,65.323,28.078,65.327,28.224,65.48z"/>
</g>
</svg>
