<svg xmlns="http://www.w3.org/2000/svg" xml:space="preserve" width="72px" height="72px" viewBox="0 0 72 72">
    <path fill="currentColor" d="M37.879 65.38c-.386.019-.774-.222-1.043-.592a2.2 2.2 0 0 1-.402-1.233c-.019-.551.094-1.124-.3-1.607-.303-.103-.544-.008-.774.309.014.709-.083 1.454-.746 2.019h-.901l-.473-.473c-.016-.029-.048-.062-.044-.088.112-.835-.174-1.68.158-2.525.218-.557.448-1.171.215-1.811-.196-.133-.317-.006-.445.125-.302.309-.613.608-.915.918-.469.48-1.029.752-1.698.861-.561.092-1.146.195-1.649.439-.782.38-1.64.377-2.462.675-1.086.782-2.046 1.798-3.231 2.528-1.656.037-2.24-.232-2.877-1.331.134-.81.921-.999 1.425-1.447.716-.639 1.587-1.076 2.313-1.722.496-.44 1.138-.716 1.772-1.1 1.071.151 2.03-.464 3.067-.756.733-.206 1.228-.762 1.729-1.302-.088-.37.126-.678.322-.933.234-.303.352-.662.561-.956.483-.681.597-1.487.594-2.227-.005-1.35.411-2.666.242-4.012-.04-.322.288-.462.242-.778-.037-.259-.128-.58.178-.782.154-1.258.318-2.516.24-3.788-.384-.486-.038-1.171-.617-1.741-.194-.104-.563-.333-.995-.211-.301.084-.446-.181-.653-.263-.771-.308-1.498-.729-2.236-1.117a8.2 8.2 0 0 1-1.446-.966c-.424-.351-.81-.753-1.077-1.18-.292-.465-.72-.765-.984-1.172-.647-.252-1.167.375-1.868.073-.127-.128-.378-.291-.508-.611a1.03 1.03 0 0 0-.672-.609c-.521-.152-.882-.487-1.043-1.072l.652-1.266c.078-.471-.184-1.061.254-1.583l-.926-.721c-.599-.41-1.342-.314-2.074-.319-.413-.002-.813-.017-1.215.199-.389.209-.849.221-1.304.252-.734.051-1.449.26-2.136.563-.403.177-.645.42-.85.822-.165.324-.262.695-.545 1.024-.216.2-.511.354-.849.39-.617-.133-.521-.583-.488-1.003l.383-.383c.097-.559.072-1.112-.249-1.596-.289-.434-.211-.781.176-1.15 1.385.08 2.817.176 3.729-1.155 1.163-.538 2.34-.28 3.489-.341.764.442 1.574.088 2.346.243l.048-.337c-.764-.376-1.506-.802-2.365-.998-.66-.15-1.637-.986-2.188-1.541a8 8 0 0 0-1.61-1.237c-.945-.554-1.532-1.471-2.348-2.149-.307-.255-.425-.608-.592-1.014.258-.392.256-.875.246-1.364-.011-.54.02-1.081-.009-1.619-.027-.496.352-.916.226-1.424-.056-.225.347-.289.218-.555.311-.027.487-.408.848-.32.304.06.413.367.616.503.248.982-.351 1.884-.149 2.864.393.385.393.385.825.523.438-.044.491-.718 1.101-.626-.049.48-.288.824-.634 1.143v.67c.151.323.518.267.678.48.676-.101 1.079-.788 1.749-.829.403.31.453.79.774 1.175.651-.517 1.233-1.111 2.035-1.468l.531 1.595c-.004.043-.256.108-.148.369-.876.196-1.352.923-1.956 1.468-.071.368.053.6.38.786.325.185.696.209 1.031.391.278.15.703.031 1.101.031.414-.535.467-1.232.715-1.849.298-.741.453-1.531.851-2.241.221-.395.424-.779.76-1.088.339-.313.613-.696.534-1.172-.051-.304.209-.414.261-.663.128-.613.433-1.187.604-1.793.067-.238.223-.339.359-.48.438-.085.81.447 1.203.196.372-.237.734-.176 1.142-.199.303.414.893.502 1.194 1.013v1.033c-.267.364-.716.461-1.11.646.214.314.214.314.576.334l.827-.839h.909c.471.296.267.73.326 1.176.363.366.839.748.864 1.513l-.688.39c-.132.083-.405.211-.68 0-.165-.126-.467-.074-.677-.098-.341.327-.549.67-.563 1.011l.805.805c.116.587.04.867-.371 1.03-.485-.174-1.022-.317-1.629-.213-.415.239-.391.815-.745 1.177 0 .477.021.979-.006 1.48-.023.431.174.8.317 1.167.146.372.56.467.943.558.114.027.221.155.455.121-.093.436.307.744.235 1.181.22.306.604.49.722.927.545.22 1.072.683 1.753.478.246.299.608.462.557.903-.023.196.197.281.316.403.577.589 1.163 1.169 1.726 1.731.28.014.559-.088.638.21.356.046.497-.447.791-.185.552-.276.624-.894 1.054-1.208-.134-.54.307-.98.231-1.53-.159-1.165.184-2.312.257-3.469.072-1.122.442-2.235.375-3.388-.02-.326.319-.519.24-.887-.06-.28-.12-.616.176-.897.108-.103.021-.413.021-.628V19.03c-.349-.266-.563-.716-1.09-.833.07-.717.027-1.427.182-2.168.188-.896.044-1.862.044-2.831l.575-.514c.188-.011.432-.06.683.041.523.595.604 1.348.677 2.087.05.5.007 1.007.011 1.511.005.618.007.618.521 1.296.304.071.558.003.777-.331-.106-.371.12-.729.279-1.145h1.358c.722-.277 1.045-1.025 1.722-1.353.762-.368 1.467-.848 2.354-.829.205.205.479.373.168.946-.219.282-.737.647-1.06 1.218-.249.44-.775.642-1.24.875-.364.183-.748.377-.991.785v.83l.437.419c-.107.489.227 1.072-.275 1.594a1.28 1.28 0 0 1-.689-.834c-.389-.347-.667-.129-1-.268-.483 1.475-1.475 2.693-1.287 4.303.082.697-.211 1.349-.333 2.021-.166.917-.102 1.83-.032 2.745.007.082.144.153.222.232.476-.154.574-.642.826-.981.647-.872 1.209-1.807 1.861-2.674.168-.223.321-.466.422-.696.36-.822.938-1.379 1.664-1.904.673-.487 1.409-.951 1.915-1.702.621.037 1.253-.12 1.81.272 1.262-.726 2.587-1.173 3.912-1.624.091-.031.124-.174.26-.155.814.117 1.571-.354 2.396-.227.33.051.703.103.997-.196.053-.054.212-.027.315-.004.69.153 1.419.225 2.058.503.525.229 1.044.449 1.601.566.208.044.246.25.412.3v1.124l-.554.516c-.493.046-.979.009-1.438-.341-.32-.245-.731-.323-1.169-.306-.932.037-1.865.011-2.823.011-.135.453-.028.7.437.882.426.167.963.31.981.927l-.264.548h-1.102c-.552-.43-.945-1.172-1.782-1.286-.227-.024-.341.148-.426.284-.137.216-.115.498-.023.711.065.153.183.272.182.467-.004.589-.063 1.186.203 1.75.053.112.008.271.008.338-.295.427-.648.372-1.023.314l-1.135-1.589c-.021-.533.102-1.109-.315-1.603h-.892c-.304.299-.617.682-1.049.809-.253.353-.017.69-.141.949l3.038 3.527c.058.29-.202.365-.317.531-.294.05-.468-.326-.776-.215-.53.185-.59.824-.967 1.088-.524-.054-.462-.543-.753-.768.101-.687-.106-1.278-.657-1.75-.344-.294-.316-.832-.758-1.166-.456.046-.874.157-1.184.677-.419.705-.95 1.343-1.476 2.068v.595c.206.492.769.197.999.552.916-.074 1.585.556 2.316.917.587.289 1.161.678 1.735 1.031a4.6 4.6 0 0 1 1.604 1.691c.408.732 1.062 1.086 1.761 1.299.57.174.985.469 1.392.899.583-.05 1.16.01 1.613.531.1.681-.564 1.111-.665 1.803l.469.931c-.229.401-.662.534-.934.821-.252.266-.408.634-.708.872h-.859l-.314-.314v-.88c-.372-.369-.646-.641-.974-.964-.106-.003-.16.214-.306.305-.051 1.924-.051 1.924.796 2.784.153.271-.122.656.23.877-.028.197-.375.249-.124.546-.252.017-.389.025-.57.036l-.95-1.082h-.604c-.049.342-.484.551-.284.933-.565.474-1.212.337-1.862.359-.827-.764.195-1.229.321-1.836v-1.087c-.431-.397-.784-.897-1.369-1.137-.854.124-.871 1.178-1.779 1.493-.079.013-.301-.06-.49-.341v-.853l.604-1.174v-.772c-.452-.617-1.043-1.147-1.778-1.344-.727-.194-1.273-.617-1.84-1.033-.172-.125-.433-.062-.547-.334-.533.354-.96.713-1.026 1.438-.067.728-.423 1.406-.663 2.097-.093.267-.175.512-.18.786-.007.36-.032.724.004 1.079.114 1.131-.289 2.17-.567 3.227-.056.21-.08.407-.082.609-.008 1.403-.152 2.828.036 4.206.204 1.491.075 2.972.196 4.449.048.587.295 1.165.504 1.729q.415 1.123.922 2.209c.088.188-.004.351.085.497.685.912 1.603 1.495 2.672 1.855.22.418.659.092.961.292.503.333 1.089.558 1.546.939.509.427 1.12.735 1.529 1.281.064.085.138.188.229.225.846.328 1.055 1.078 1.256 1.843.024.094.109.171.171.262-.163.228-.203.552-.488.756h-.888c-.232-.386-.759-.479-1.09-.854-.403-.455-.839-.89-1.305-1.279-.425-.354-1.659-.685-2.438-.889-.868-.227-1.786-.341-2.56-.852-.538-.354-1.057-.739-1.571-1.103-.361.173-.237.488-.188.673.24.88.314 1.793.572 2.673.136.459.024.991.024 1.563zm12.253-28.921c-.39-1.264-1.595-1.886-2.31-2.801-.807-.104-1.354-.583-2.086-.886-.825.012-1.677-.296-2.544-.613-.134.198-.438.306-.509.598l.267.523c.747.446 1.442.756 2.169.997.218.072.441.186.61.338.739.666 1.583 1.184 2.393 1.754.504.355 1.018.521 1.58.491zm-17.585 2.413c-.176-.73-.702-1.266-1.271-1.612-1.167-.71-2.053-1.815-3.475-2.313h-.794l-.242.516c.179.346.287.731.53.988.761.806 1.489 1.658 2.619 2.007.537.166 1.041.44 1.554.679.434.203.804.182 1.079-.265m-6.587-17.98c-.643.627-1.471 1.19-1.129 2.319.087.087.151.2.242.231.128.044.277.028.435.039a3.76 3.76 0 0 0 1.225-2.248c-.211-.251-.41-.451-.773-.341m-.758 4.321-.295-.63c-.355-.123-.604.021-.778.307v.89c.17.047.198.296.537.282.271-.15.362-.529.536-.849m-7.75-1.679c.441-.141.713-.271.542-.753-.354.106-.612.22-.542.753"/>
</svg>
