<svg xmlns="http://www.w3.org/2000/svg" xml:space="preserve" width="72px" height="72px" viewBox="0 0 72 72">
    <path fill="currentColor" d="M15.039 43.033c.598-.765 1.001-1.578.852-2.631l-.818-.738v-1.423c.407-.396.925-.843.844-1.6-.006-.057.039-.128.077-.181.473-.659.677-1.469 1.104-2.126.362-.557.596-1.069.537-1.701.753-.256.894-.824.869-1.523.689-.335.758-1.323 1.586-1.59.355 0 .717-.043 1.064.011.386.061.719-.119.95-.306.286-.232.587-.333.91-.433.469-.146.904-.349 1.192-.767.171-.249.404-.259.672-.232l.825-.85h1.971c.306.15.441.607.934.674v-3.564c.539-.489.933-1.098 1.636-1.241.759.141 1.141.721 1.697 1.232 0 .607-.149 1.328.045 1.94.171.542.532 1.077.913 1.708.193-1.125.079-2.115-.195-3.074-.2-.696-.447-1.372-.359-2.145.537-.533 1.104-1.085 1.657-1.651.197-.202.42-.339.673-.463.741-.366 1.245-.999 1.764-1.619.596-.713.932-1.61 1.655-2.237.44-.381.875-.677 1.469-.588l.896-.895c1.062.232 2.113-.304 3.229-.181.162-.339.536-.409.913-.656 2.661 0 5.428.002 8.194-.002.446 0 .796.182 1.113.524v1.337l-.276.276h-7.098c-.452.378-1.049.397-1.317.88-.534.053-1.08-.122-1.584.338-.019.385-.438.516-.927.736-1.007-.133-1.857.392-2.601 1.198a14 14 0 0 1-2.559 2.153 1.22 1.22 0 0 0-.503.65c-.059.18-.115.472-.344.611-.509.309-.751.841-.885 1.356-.108.417-.514.486-.677.817 0 .248.017.496-.004.742-.049.582.088 1.079.494 1.53.272.302.407.694.384 1.137-.018.335-.131.723.303 1.021.576-.348.704-1.144 1.365-1.479h.592l.343.344v1.854c.714-.221.995-.758 1.298-1.34-.559-.627-.18-1.312.087-1.89.216-.464.271-.899.34-1.377.089-.627.304-1.237.465-1.854.985-.311 1.679-1.356 2.857-1.169.64-.037.778-.936 1.455-.838 1.189-.865 2.194-1.928 3.597-2.587.521 0 1.132-.001 1.742.001.413.002 1.1.241 1.512.521.36.245.719.334 1.397.343l.754.84h1.446c.456.188.728.567 1.059.878.596-.064 1.127.387 1.715.206l.634.634c.456-.035.817.427 1.304.216.457.501 1.021.884 1.237 1.646l-.75.544h-1.325c-.337-.313-.605-.698-1.063-.86-.286 0-.572-.016-.857.003-.508.034-.968-.053-1.328-.445-.334-.363-.76-.439-1.229-.426q-.81.024-1.62-.001c-.27-.008-.548.087-.801-.168-.115-.116-.368-.065-.577.07-.353.229-.724.137-1.052-.114-.507.383-1.091.179-1.64.209-.573.032-1.148.007-1.712.007l-.874.874c-.686-.101-1.283.104-1.745.664-.089.107-.229.141-.345.205-.611.34-.945.919-1.014 1.584-.053.524-.233.927-.63 1.27-.138.54.109 1.126-.139 1.658-.241.515-.033 1.052-.145 1.647l-.584.486c-.094.455.001.704.187.824.975-.068 1.526-.778 2.261-1.209h.891c.348.548.999.801 1.478 1.265.27.262.587.497.86.735.268.231.604.367.821.6.651.697 1.712.846 2.161 1.711h.928c.531.603 1.226 1.069 1.604 1.854v1.03c.332.366.703.713.651 1.251-.099 1.021.236 1.89.867 2.667l.001 1.265.852 1.336v3.425c-.169.414-.539.365-.935.339-.558-.387-.797-1.058-1.213-1.619 0-.699-.019-1.418.007-2.136a2.1 2.1 0 0 0-.324-1.159 3.5 3.5 0 0 1-.548-1.946c-.681-1.259-1.56-2.252-2.55-3.101-.078-.266.04-.554-.238-.704-.545-.293-.921-.814-1.497-1.077-.496-.225-1.012-.439-1.354-.906-.131-.178-.336-.047-.529-.099l-.802-.832c-.118-.007-.222-.012-.325-.021-.922-.079-1.772.055-2.555.628a1.42 1.42 0 0 1-.977.247c-.417-.049-.842-.011-1.252-.011-.01.166-.044.277-.013.3.538.4 1.014.95 1.735.976.278.01.48.141.655.252.844.536 1.776.971 2.328 1.849.153.522.188 1.073.651 1.471.357.307.419.773.448 1.211.037.536.009 1.077.009 1.579l.855 1.341v12.284c-.262.244-.435.664-.992.538-.116-.156-.266-.358-.496-.671v-5.493l-.663-.533c0-.715-.022-1.328.007-1.938.027-.564-.389-1.055-.207-1.597-1.065-1.318-.881-2.841-.874-4.212-.758-1.206-1.762-2.064-2.686-3.021h-.882l-1.083-1.085c-.317-.054-.536.025-.733.313v1.058l-.886.887c0 .387.003.781-.001 1.176a3.4 3.4 0 0 1-.188 1.108c-.256.736-.491 1.527-.026 2.295-.102.764.188 1.55-.17 2.306-.099.207-.044.489-.045.736-.003 1.188.009 2.376-.008 3.563-.005.301.036.587-.162.908-.244.394.339.818.169 1.289.61.877.447 1.882.415 2.844-.024.751.157 1.432.458 2.085.263.569.471 1.13.428 1.77-.022.342-.085.709.229.938-.198.466-.405.86-.8 1.121-1.218.012-1.744-.613-1.595-2.191-.137-.497-.523-.81-.863-1.156v-1.929c-.356-.387-.347-1.001-.832-1.253-.118-.57.066-1.125-.22-1.676-.162-.312-.17-.862.005-1.151.239-.391.171-.749.174-1.119.016-1.728.007-3.456.007-5.186l-.347-.343c-.292.102-.607.202-.935.546-.077.247.063.66-.215.983-.076.088-.13.258-.237.321-.693.408-1.39.811-2.102 1.183-.142.074-.354.011-.584.011l-.539.646h-1.651c-.158-.328-.53-.4-.881-.627h-1.158l-.815-.857h-.971c-.298-.284-.675-.345-.887-.646-.074-.104-.154-.246-.326-.245-.676.005-1.03-.507-1.464-.901-.524-.476-.842-1.023-.686-1.729-.469-.5-.68-1.057-.677-1.704.006-1.402.001-2.805.001-4.2.436-.42.89-.816.863-1.524.525-.344.727-.986 1.201-1.417.439-.398.896-.798 1.21-1.261-.132-.315-.342-.178-.553-.258-.36.512-1.052.656-1.43 1.084-.36.408-1.021.582-1.094 1.238-.638.221-.939.837-1.492 1.23.129.392-.302.664-.206 1.123l-.658.483v1.156c-.215.491-.48.854-.884 1.165.218.73-.33 1.399-.181 2.138-.457.438-.715.927-.675 1.576.042.682-.013 1.368.018 2.051.019.431-.082.814-.283 1.22l-1.139.408c-.188-.139-.531-.131-.746-.585 0-.982-.066-2.133.024-3.271.058-.726.313-1.443.547-2.143.207-.597.362-1.186.29-1.805m3.795-6.592c.267-.397.756-.564 1.09-.905.718-.732 1.63-1.243 2.281-2.046.089-.11.186-.247.309-.291.938-.34 1.572-1.09 2.309-1.696.619-.509 1.352-.63 2.088-.662.348-.015.707.237 1.04.36.15-.168.328-.262.268-.5-.312-.316-.674-.553-1.158-.534-.431-.484-.868-.145-1.17.102-.435.354-.943.511-1.377.807-.592-.235-1.151-.453-1.719-.118-.805.474-1.658.879-2.185 1.725-.139.223-.176.563-.579.624-.285.043-.194.501-.447.658.177.508-.417.672-.483 1.096-.066.428-.452.686-.748.977-.094.093-.057.193-.058.301.141.158.33.067.539.102"/>
</svg>
