<?xml version="1.0" encoding="iso-8859-1"?>
<!-- Generator: Adobe Illustrator 16.0.0, SVG Export Plug-In . SVG Version: 6.00 Build 0)  -->
<!DOCTYPE svg PUBLIC "-//W3C//DTD SVG 1.1//EN" "http://www.w3.org/Graphics/SVG/1.1/DTD/svg11.dtd">
<svg version="1.1" id="Layer_1" xmlns="http://www.w3.org/2000/svg" xmlns:xlink="http://www.w3.org/1999/xlink" x="0px" y="0px"
	 width="72.36px" height="72.18px" viewBox="0 0 72.36 72.18" style="enable-background:new 0 0 72.36 72.18;" xml:space="preserve"
	>
<g>
	<path style="fill-rule:evenodd;clip-rule:evenodd;fill:none;" d="M-6.984,79.631c0-28.871,0-57.743,0-86.615
		c28.8,0,57.6,0,86.399,0c0,28.872,0,57.744,0,86.615C50.616,79.631,21.816,79.631-6.984,79.631z M15.039,43.033
		c0.072,0.619-0.083,1.208-0.284,1.806c-0.234,0.699-0.489,1.417-0.547,2.143c-0.091,1.138-0.024,2.288-0.024,3.271
		c0.215,0.454,0.558,0.446,0.746,0.585c0.416-0.149,0.792-0.284,1.139-0.408c0.201-0.405,0.302-0.789,0.283-1.22
		c-0.031-0.683,0.024-1.369-0.018-2.051c-0.041-0.649,0.218-1.138,0.675-1.576c-0.149-0.738,0.399-1.407,0.181-2.138
		c0.404-0.311,0.668-0.674,0.884-1.165c0-0.272,0-0.632,0-1.156c0.166-0.122,0.425-0.313,0.658-0.483
		c-0.096-0.459,0.334-0.731,0.206-1.123c0.553-0.394,0.854-1.01,1.492-1.23c0.073-0.656,0.733-0.83,1.094-1.238
		c0.378-0.429,1.07-0.572,1.43-1.084c0.211,0.08,0.421-0.057,0.553,0.258c-0.314,0.463-0.771,0.863-1.21,1.261
		c-0.474,0.431-0.676,1.073-1.201,1.417c0.027,0.708-0.427,1.104-0.863,1.524c0,1.396,0.004,2.798-0.001,4.2
		c-0.003,0.647,0.208,1.204,0.677,1.704c-0.157,0.706,0.162,1.254,0.686,1.729c0.434,0.395,0.788,0.906,1.464,0.901
		c0.172-0.001,0.252,0.141,0.326,0.245c0.212,0.301,0.588,0.361,0.887,0.646c0.261,0,0.574,0,0.971,0
		c0.247,0.259,0.516,0.542,0.815,0.857c0.383,0,0.81,0,1.158,0c0.351,0.227,0.723,0.299,0.881,0.627c0.528,0,1.032,0,1.651,0
		c0.153-0.183,0.357-0.429,0.539-0.646c0.23,0,0.443,0.063,0.584-0.011c0.712-0.372,1.409-0.774,2.102-1.183
		c0.107-0.063,0.161-0.233,0.237-0.321c0.278-0.323,0.138-0.736,0.215-0.983c0.328-0.344,0.643-0.444,0.935-0.546
		c0.143,0.142,0.245,0.242,0.347,0.343c0,1.729,0.009,3.458-0.007,5.186c-0.003,0.37,0.064,0.729-0.174,1.119
		c-0.176,0.289-0.167,0.84-0.005,1.151c0.286,0.551,0.102,1.105,0.22,1.676c0.485,0.252,0.476,0.866,0.832,1.253
		c0,0.635,0,1.282,0,1.929c0.34,0.347,0.726,0.659,0.863,1.156c-0.149,1.578,0.377,2.203,1.595,2.191
		c0.395-0.261,0.602-0.655,0.8-1.121c-0.314-0.229-0.252-0.597-0.229-0.938c0.043-0.64-0.165-1.2-0.428-1.77
		c-0.301-0.653-0.482-1.334-0.458-2.085c0.032-0.962,0.195-1.967-0.415-2.844c0.17-0.471-0.413-0.896-0.169-1.289
		c0.198-0.321,0.157-0.607,0.162-0.908c0.017-1.188,0.005-2.375,0.008-3.563c0.001-0.247-0.054-0.529,0.045-0.736
		c0.358-0.756,0.068-1.542,0.17-2.306c-0.465-0.768-0.229-1.559,0.026-2.295c0.131-0.378,0.186-0.729,0.188-1.108
		c0.004-0.395,0.001-0.789,0.001-1.176c0.288-0.288,0.568-0.568,0.886-0.887c0-0.348,0-0.734,0-1.058
		c0.197-0.288,0.416-0.367,0.733-0.313c0.345,0.346,0.721,0.723,1.083,1.085c0.325,0,0.608,0,0.882,0
		c0.924,0.956,1.928,1.814,2.686,3.021c-0.007,1.371-0.191,2.894,0.874,4.212c-0.182,0.542,0.234,1.032,0.207,1.597
		c-0.029,0.61-0.007,1.224-0.007,1.938c0.192,0.155,0.442,0.355,0.663,0.533c0,1.935,0,3.802,0,5.493
		c0.23,0.313,0.38,0.515,0.496,0.671c0.558,0.126,0.73-0.294,0.992-0.538c0-4.114,0-8.215,0-12.284
		c-0.29-0.455-0.563-0.884-0.855-1.341c0-0.502,0.028-1.043-0.009-1.579c-0.029-0.438-0.091-0.904-0.448-1.211
		c-0.463-0.397-0.498-0.948-0.651-1.471c-0.552-0.878-1.484-1.313-2.328-1.849c-0.175-0.111-0.377-0.242-0.655-0.252
		c-0.722-0.025-1.197-0.575-1.735-0.976c-0.031-0.023,0.003-0.134,0.013-0.3c0.41,0,0.835-0.037,1.25,0.011
		c0.373,0.043,0.737-0.071,0.977-0.247c0.782-0.573,1.633-0.707,2.555-0.628c0.104,0.009,0.207,0.013,0.325,0.021
		c0.272,0.283,0.547,0.567,0.802,0.832c0.193,0.052,0.398-0.079,0.529,0.099c0.343,0.467,0.858,0.681,1.354,0.906
		c0.576,0.262,0.952,0.784,1.497,1.077c0.278,0.15,0.16,0.438,0.238,0.704c0.99,0.849,1.869,1.842,2.55,3.101
		c-0.011,0.634,0.141,1.302,0.548,1.946c0.197,0.313,0.34,0.729,0.324,1.159c-0.025,0.718-0.007,1.437-0.007,2.136
		c0.416,0.562,0.655,1.232,1.213,1.619c0.396,0.026,0.766,0.075,0.935-0.339c0-1.161,0-2.31,0-3.425
		c-0.291-0.457-0.564-0.886-0.852-1.336c0-0.401,0-0.833-0.001-1.265c-0.631-0.777-0.966-1.646-0.867-2.667
		c0.052-0.538-0.319-0.885-0.651-1.251c0-0.35,0-0.707,0-1.03c-0.379-0.785-1.073-1.251-1.604-1.854c-0.295,0-0.583,0-0.928,0
		c-0.449-0.865-1.51-1.015-2.161-1.711c-0.218-0.233-0.554-0.369-0.821-0.6c-0.273-0.238-0.591-0.473-0.86-0.735
		c-0.479-0.464-1.13-0.717-1.478-1.265c-0.335,0-0.621,0-0.891,0c-0.734,0.431-1.286,1.141-2.261,1.209
		c-0.186-0.12-0.28-0.369-0.187-0.824c0.15-0.125,0.396-0.33,0.584-0.486c0.111-0.596-0.097-1.133,0.145-1.647
		c0.248-0.531,0.001-1.118,0.139-1.658c0.396-0.342,0.577-0.745,0.63-1.27c0.068-0.666,0.402-1.244,1.014-1.584
		c0.115-0.064,0.256-0.098,0.345-0.205c0.462-0.56,1.06-0.765,1.745-0.664c0.303-0.303,0.583-0.583,0.874-0.874
		c0.563,0,1.139,0.025,1.712-0.007c0.549-0.03,1.133,0.173,1.64-0.209c0.328,0.25,0.699,0.343,1.052,0.114
		c0.209-0.135,0.462-0.187,0.577-0.07c0.253,0.255,0.531,0.161,0.801,0.168c0.54,0.016,1.081,0.017,1.62,0.001
		c0.47-0.014,0.896,0.063,1.229,0.426c0.36,0.393,0.82,0.479,1.328,0.445c0.285-0.019,0.571-0.003,0.857-0.003
		c0.458,0.163,0.727,0.547,1.063,0.86c0.495,0,0.998,0,1.325,0c0.328-0.238,0.556-0.404,0.75-0.544
		c-0.216-0.761-0.78-1.145-1.237-1.646c-0.486,0.211-0.848-0.251-1.304-0.216c-0.203-0.204-0.407-0.407-0.634-0.634
		c-0.588,0.181-1.119-0.27-1.715-0.206c-0.331-0.311-0.603-0.69-1.059-0.878c-0.458,0-0.916,0-1.446,0
		c-0.244-0.273-0.506-0.564-0.754-0.84c-0.679-0.009-1.037-0.099-1.397-0.343c-0.412-0.279-1.099-0.519-1.512-0.521
		c-0.61-0.002-1.221-0.001-1.742-0.001c-1.402,0.659-2.407,1.722-3.597,2.587c-0.677-0.098-0.815,0.801-1.455,0.838
		c-1.179-0.187-1.872,0.858-2.857,1.169c-0.161,0.617-0.376,1.227-0.465,1.854c-0.068,0.479-0.124,0.913-0.34,1.377
		c-0.267,0.578-0.646,1.262-0.087,1.89c-0.303,0.582-0.584,1.119-1.298,1.34c0-0.688,0-1.291,0-1.854
		c-0.14-0.14-0.241-0.242-0.343-0.345c-0.216,0-0.432,0-0.592,0c-0.662,0.336-0.79,1.131-1.365,1.479
		c-0.434-0.298-0.32-0.686-0.303-1.021c0.023-0.443-0.111-0.834-0.384-1.137c-0.406-0.451-0.543-0.948-0.494-1.53
		c0.021-0.246,0.004-0.495,0.004-0.742c0.163-0.331,0.569-0.401,0.677-0.817c0.133-0.515,0.375-1.047,0.885-1.356
		c0.229-0.139,0.285-0.432,0.344-0.611c0.101-0.308,0.292-0.509,0.503-0.65c0.936-0.624,1.798-1.33,2.559-2.153
		c0.743-0.806,1.594-1.331,2.601-1.198c0.488-0.22,0.908-0.351,0.927-0.736c0.504-0.46,1.05-0.285,1.584-0.338
		c0.269-0.483,0.865-0.502,1.317-0.88c2.333,0,4.734,0,7.098,0c0.114-0.114,0.19-0.19,0.276-0.276c0-0.449,0-0.906,0-1.337
		c-0.317-0.342-0.667-0.524-1.113-0.524c-2.767,0.005-5.533,0.002-8.194,0.002c-0.377,0.247-0.751,0.317-0.913,0.656
		c-1.116-0.123-2.168,0.413-3.229,0.181c-0.321,0.322-0.602,0.602-0.896,0.895c-0.594-0.089-1.028,0.207-1.469,0.588
		c-0.724,0.627-1.06,1.524-1.655,2.237c-0.519,0.62-1.022,1.253-1.764,1.619c-0.253,0.124-0.476,0.261-0.673,0.463
		c-0.553,0.565-1.12,1.118-1.657,1.651c-0.087,0.773,0.16,1.449,0.359,2.145c0.274,0.958,0.388,1.948,0.195,3.074
		c-0.38-0.631-0.741-1.166-0.913-1.708c-0.194-0.612-0.045-1.333-0.045-1.94c-0.556-0.512-0.938-1.092-1.697-1.232
		c-0.704,0.144-1.097,0.752-1.636,1.241c0,1.167,0,2.343,0,3.564c-0.493-0.067-0.628-0.524-0.934-0.674c-0.676,0-1.32,0-1.971,0
		c-0.279,0.288-0.554,0.571-0.825,0.85c-0.268-0.027-0.5-0.017-0.672,0.232c-0.288,0.418-0.723,0.621-1.192,0.767
		c-0.323,0.1-0.624,0.201-0.91,0.433c-0.231,0.187-0.564,0.366-0.95,0.306c-0.347-0.054-0.708-0.011-1.064-0.011
		c-0.828,0.267-0.897,1.255-1.586,1.59c0.025,0.699-0.115,1.267-0.869,1.523c0.06,0.632-0.175,1.144-0.537,1.701
		c-0.427,0.658-0.63,1.468-1.104,2.126c-0.038,0.053-0.083,0.124-0.077,0.181c0.081,0.757-0.438,1.203-0.844,1.6
		c0,0.521,0,0.946,0,1.423c0.277,0.25,0.569,0.514,0.818,0.738C16.04,41.455,15.637,42.269,15.039,43.033z M62.681,31.499
		c-0.318,0-0.632,0-0.889,0c-0.31,0.226-0.383,0.468-0.258,0.767c0.219,0.288,0.571,0.339,0.903,0.524
		c0.184-0.2,0.371-0.404,0.561-0.609C63.034,31.926,62.994,31.694,62.681,31.499z M26.078,18.469
		c0.655,0.141,0.979-0.401,1.487-0.451c-0.107-0.257,0.209-0.339,0.171-0.537c-0.162-0.232-0.375-0.32-0.688-0.264
		c-0.325,0.222-0.527,0.67-0.971,0.71C26.078,18.146,26.078,18.285,26.078,18.469z M47.645,17.598
		c-0.439,0.298-0.673,0.457-1.031,0.7c0.344,0.13,0.343,0.459,0.802,0.408c0.263-0.144,0.745-0.162,0.953-0.768
		C48.012,17.927,47.832,17.559,47.645,17.598z M50.671,17.521c-0.295-0.397-0.663-0.4-1.035-0.219
		c-0.144,0.069-0.301,0.208-0.237,0.436c0.168,0.232,0.373,0.409,0.753,0.317C50.303,17.899,50.489,17.709,50.671,17.521z
		 M58.446,20.79c0.272,0.125,0.465,0.127,0.653,0.002c-0.128-0.146-0.217-0.249-0.305-0.351
		C58.684,20.552,58.586,20.649,58.446,20.79z"/>
	<path fill="currentColor" d="M15.039,43.033c0.598-0.765,1.001-1.578,0.852-2.631
		c-0.25-0.225-0.541-0.488-0.818-0.738c0-0.477,0-0.902,0-1.423c0.407-0.396,0.925-0.843,0.844-1.6
		c-0.006-0.057,0.039-0.128,0.077-0.181c0.473-0.659,0.677-1.469,1.104-2.126c0.362-0.557,0.596-1.069,0.537-1.701
		c0.753-0.256,0.894-0.824,0.869-1.523c0.689-0.335,0.758-1.323,1.586-1.59c0.355,0,0.717-0.043,1.064,0.011
		c0.386,0.061,0.719-0.119,0.95-0.306c0.286-0.232,0.587-0.333,0.91-0.433c0.469-0.146,0.904-0.349,1.192-0.767
		c0.171-0.249,0.404-0.259,0.672-0.232c0.271-0.279,0.546-0.563,0.825-0.85c0.651,0,1.294,0,1.971,0
		c0.306,0.15,0.441,0.607,0.934,0.674c0-1.222,0-2.397,0-3.564c0.539-0.489,0.933-1.098,1.636-1.241
		c0.759,0.141,1.141,0.721,1.697,1.232c0,0.607-0.149,1.328,0.045,1.94c0.171,0.542,0.532,1.077,0.913,1.708
		c0.193-1.125,0.079-2.115-0.195-3.074c-0.2-0.696-0.447-1.372-0.359-2.145c0.537-0.533,1.104-1.085,1.657-1.651
		c0.197-0.202,0.42-0.339,0.673-0.463c0.741-0.366,1.245-0.999,1.764-1.619c0.596-0.713,0.932-1.61,1.655-2.237
		c0.44-0.381,0.875-0.677,1.469-0.588c0.294-0.293,0.574-0.573,0.896-0.895c1.062,0.232,2.113-0.304,3.229-0.181
		c0.162-0.339,0.536-0.409,0.913-0.656c2.661,0,5.428,0.002,8.194-0.002c0.446,0,0.796,0.182,1.113,0.524c0,0.431,0,0.888,0,1.337
		c-0.086,0.085-0.162,0.162-0.276,0.276c-2.363,0-4.765,0-7.098,0c-0.452,0.378-1.049,0.397-1.317,0.88
		c-0.534,0.053-1.08-0.122-1.584,0.338c-0.019,0.385-0.438,0.516-0.927,0.736c-1.007-0.133-1.857,0.392-2.601,1.198
		c-0.761,0.824-1.623,1.529-2.559,2.153c-0.211,0.141-0.402,0.342-0.503,0.65c-0.059,0.18-0.115,0.472-0.344,0.611
		c-0.509,0.309-0.751,0.841-0.885,1.356c-0.108,0.417-0.514,0.486-0.677,0.817c0,0.248,0.017,0.496-0.004,0.742
		c-0.049,0.582,0.088,1.079,0.494,1.53c0.272,0.302,0.407,0.694,0.384,1.137c-0.018,0.335-0.131,0.723,0.303,1.021
		c0.576-0.348,0.704-1.144,1.365-1.479c0.16,0,0.376,0,0.592,0c0.102,0.103,0.203,0.204,0.343,0.344c0,0.563,0,1.166,0,1.854
		c0.714-0.221,0.995-0.758,1.298-1.34c-0.559-0.627-0.18-1.312,0.087-1.89c0.216-0.464,0.271-0.899,0.34-1.377
		c0.089-0.627,0.304-1.237,0.465-1.854c0.985-0.311,1.679-1.356,2.857-1.169c0.64-0.037,0.778-0.936,1.455-0.838
		c1.189-0.865,2.194-1.928,3.597-2.587c0.521,0,1.132-0.001,1.742,0.001c0.413,0.002,1.1,0.241,1.512,0.521
		c0.36,0.245,0.719,0.334,1.397,0.343c0.248,0.276,0.51,0.567,0.754,0.84c0.53,0,0.988,0,1.446,0
		c0.456,0.188,0.728,0.567,1.059,0.878c0.596-0.064,1.127,0.387,1.715,0.206c0.227,0.227,0.431,0.43,0.634,0.634
		c0.456-0.035,0.817,0.427,1.304,0.216c0.457,0.501,1.021,0.884,1.237,1.646c-0.194,0.141-0.422,0.306-0.75,0.544
		c-0.327,0-0.83,0-1.325,0c-0.337-0.313-0.605-0.698-1.063-0.86c-0.286,0-0.572-0.016-0.857,0.003
		c-0.508,0.034-0.968-0.053-1.328-0.445c-0.334-0.363-0.76-0.439-1.229-0.426c-0.539,0.016-1.08,0.015-1.62-0.001
		c-0.27-0.008-0.548,0.087-0.801-0.168c-0.115-0.116-0.368-0.065-0.577,0.07c-0.353,0.229-0.724,0.137-1.052-0.114
		c-0.507,0.383-1.091,0.179-1.64,0.209c-0.573,0.032-1.148,0.007-1.712,0.007c-0.291,0.291-0.571,0.571-0.874,0.874
		c-0.686-0.101-1.283,0.104-1.745,0.664c-0.089,0.107-0.229,0.141-0.345,0.205c-0.611,0.34-0.945,0.919-1.014,1.584
		c-0.053,0.524-0.233,0.927-0.63,1.27c-0.138,0.54,0.109,1.126-0.139,1.658c-0.241,0.515-0.033,1.052-0.145,1.647
		c-0.188,0.157-0.434,0.361-0.584,0.486c-0.094,0.455,0.001,0.704,0.187,0.824c0.975-0.068,1.526-0.778,2.261-1.209
		c0.27,0,0.556,0,0.891,0c0.348,0.548,0.999,0.801,1.478,1.265c0.27,0.262,0.587,0.497,0.86,0.735
		c0.268,0.231,0.604,0.367,0.821,0.6c0.651,0.697,1.712,0.846,2.161,1.711c0.345,0,0.633,0,0.928,0
		c0.531,0.603,1.226,1.069,1.604,1.854c0,0.323,0,0.681,0,1.03c0.332,0.366,0.703,0.713,0.651,1.251
		c-0.099,1.021,0.236,1.89,0.867,2.667c0.001,0.432,0.001,0.863,0.001,1.265c0.287,0.45,0.561,0.879,0.852,1.336
		c0,1.115,0,2.264,0,3.425c-0.169,0.414-0.539,0.365-0.935,0.339c-0.558-0.387-0.797-1.058-1.213-1.619
		c0-0.699-0.019-1.418,0.007-2.136c0.016-0.431-0.127-0.846-0.324-1.159c-0.407-0.645-0.559-1.313-0.548-1.946
		c-0.681-1.259-1.56-2.252-2.55-3.101c-0.078-0.266,0.04-0.554-0.238-0.704c-0.545-0.293-0.921-0.814-1.497-1.077
		c-0.496-0.225-1.012-0.439-1.354-0.906c-0.131-0.178-0.336-0.047-0.529-0.099c-0.255-0.264-0.529-0.549-0.802-0.832
		c-0.118-0.007-0.222-0.012-0.325-0.021c-0.922-0.079-1.772,0.055-2.555,0.628c-0.239,0.176-0.604,0.291-0.977,0.247
		C41.388,35.962,40.963,36,40.553,36c-0.01,0.166-0.044,0.277-0.013,0.3c0.538,0.4,1.014,0.95,1.735,0.976
		c0.278,0.01,0.48,0.141,0.655,0.252c0.844,0.536,1.776,0.971,2.328,1.849c0.153,0.522,0.188,1.073,0.651,1.471
		c0.357,0.307,0.419,0.773,0.448,1.211c0.037,0.536,0.009,1.077,0.009,1.579c0.292,0.457,0.565,0.886,0.855,1.341
		c0,4.069,0,8.17,0,12.284c-0.262,0.244-0.435,0.664-0.992,0.538c-0.116-0.156-0.266-0.358-0.496-0.671c0-1.691,0-3.559,0-5.493
		c-0.221-0.178-0.471-0.378-0.663-0.533c0-0.715-0.022-1.328,0.007-1.938c0.027-0.564-0.389-1.055-0.207-1.597
		c-1.065-1.318-0.881-2.841-0.874-4.212c-0.758-1.206-1.762-2.064-2.686-3.021c-0.273,0-0.557,0-0.882,0
		c-0.362-0.362-0.738-0.739-1.083-1.085c-0.317-0.054-0.536,0.025-0.733,0.313c0,0.323,0,0.71,0,1.058
		c-0.317,0.318-0.598,0.599-0.886,0.887c0,0.387,0.003,0.781-0.001,1.176c-0.003,0.379-0.058,0.73-0.188,1.108
		c-0.256,0.736-0.491,1.527-0.026,2.295c-0.102,0.764,0.188,1.55-0.17,2.306c-0.099,0.207-0.044,0.489-0.045,0.736
		c-0.003,1.188,0.009,2.376-0.008,3.563c-0.005,0.301,0.036,0.587-0.162,0.908c-0.244,0.394,0.339,0.818,0.169,1.289
		c0.61,0.877,0.447,1.882,0.415,2.844c-0.024,0.751,0.157,1.432,0.458,2.085c0.263,0.569,0.471,1.13,0.428,1.77
		c-0.022,0.342-0.085,0.709,0.229,0.938c-0.198,0.466-0.405,0.86-0.8,1.121c-1.218,0.012-1.744-0.613-1.595-2.191
		c-0.137-0.497-0.523-0.81-0.863-1.156c0-0.646,0-1.294,0-1.929c-0.356-0.387-0.347-1.001-0.832-1.253
		c-0.118-0.57,0.066-1.125-0.22-1.676c-0.162-0.312-0.17-0.862,0.005-1.151c0.239-0.391,0.171-0.749,0.174-1.119
		c0.016-1.728,0.007-3.456,0.007-5.186c-0.102-0.101-0.204-0.201-0.347-0.343c-0.292,0.102-0.607,0.202-0.935,0.546
		c-0.077,0.247,0.063,0.66-0.215,0.983c-0.076,0.088-0.13,0.258-0.237,0.321c-0.693,0.408-1.39,0.811-2.102,1.183
		c-0.142,0.074-0.354,0.011-0.584,0.011c-0.182,0.218-0.386,0.464-0.539,0.646c-0.619,0-1.123,0-1.651,0
		c-0.158-0.328-0.53-0.4-0.881-0.627c-0.349,0-0.775,0-1.158,0c-0.299-0.315-0.569-0.599-0.815-0.857c-0.397,0-0.71,0-0.971,0
		c-0.298-0.284-0.675-0.345-0.887-0.646c-0.074-0.104-0.154-0.246-0.326-0.245c-0.676,0.005-1.03-0.507-1.464-0.901
		c-0.524-0.476-0.842-1.023-0.686-1.729c-0.469-0.5-0.68-1.057-0.677-1.704c0.006-1.402,0.001-2.805,0.001-4.2
		c0.436-0.42,0.89-0.816,0.863-1.524c0.525-0.344,0.727-0.986,1.201-1.417c0.439-0.398,0.896-0.798,1.21-1.261
		c-0.132-0.315-0.342-0.178-0.553-0.258c-0.36,0.512-1.052,0.656-1.43,1.084c-0.36,0.408-1.021,0.582-1.094,1.238
		c-0.638,0.221-0.939,0.837-1.492,1.23c0.129,0.392-0.302,0.664-0.206,1.123c-0.233,0.171-0.492,0.361-0.658,0.483
		c0,0.524,0,0.884,0,1.156c-0.215,0.491-0.48,0.854-0.884,1.165c0.218,0.73-0.33,1.399-0.181,2.138
		c-0.457,0.438-0.715,0.927-0.675,1.576c0.042,0.682-0.013,1.368,0.018,2.051c0.019,0.431-0.082,0.814-0.283,1.22
		c-0.348,0.124-0.724,0.259-1.139,0.408c-0.188-0.139-0.531-0.131-0.746-0.585c0-0.982-0.066-2.133,0.024-3.271
		c0.058-0.726,0.313-1.443,0.547-2.143C14.956,44.241,15.111,43.652,15.039,43.033z M18.834,36.441
		c0.267-0.397,0.756-0.564,1.09-0.905c0.718-0.732,1.63-1.243,2.281-2.046c0.089-0.11,0.186-0.247,0.309-0.291
		c0.938-0.34,1.572-1.09,2.309-1.696c0.619-0.509,1.352-0.63,2.088-0.662c0.348-0.015,0.707,0.237,1.04,0.36
		c0.15-0.168,0.328-0.262,0.268-0.5c-0.312-0.316-0.674-0.553-1.158-0.534c-0.431-0.484-0.868-0.145-1.17,0.102
		c-0.435,0.354-0.943,0.511-1.377,0.807c-0.592-0.235-1.151-0.453-1.719-0.118c-0.805,0.474-1.658,0.879-2.185,1.725
		c-0.139,0.223-0.176,0.563-0.579,0.624c-0.285,0.043-0.194,0.501-0.447,0.658c0.177,0.508-0.417,0.672-0.483,1.096
		c-0.066,0.428-0.452,0.686-0.748,0.977c-0.094,0.093-0.057,0.193-0.058,0.301C18.436,36.497,18.625,36.406,18.834,36.441z"/>
	<path style="fill-rule:evenodd;clip-rule:evenodd;fill:none;" d="M18.834,36.441c-0.209-0.035-0.399,0.056-0.539-0.103
		c0.001-0.108-0.036-0.208,0.058-0.301c0.296-0.291,0.681-0.549,0.748-0.977c0.066-0.423,0.66-0.588,0.483-1.096
		c0.253-0.157,0.162-0.614,0.447-0.658c0.402-0.061,0.439-0.401,0.579-0.624c0.527-0.846,1.38-1.251,2.185-1.725
		c0.568-0.335,1.127-0.117,1.719,0.118c0.434-0.296,0.942-0.453,1.377-0.807c0.302-0.247,0.739-0.586,1.17-0.102
		c0.484-0.019,0.847,0.218,1.158,0.534c0.06,0.238-0.118,0.332-0.268,0.5c-0.333-0.124-0.692-0.375-1.04-0.36
		c-0.736,0.032-1.469,0.153-2.088,0.662c-0.737,0.606-1.372,1.356-2.309,1.696c-0.123,0.044-0.22,0.181-0.309,0.291
		c-0.651,0.804-1.563,1.314-2.281,2.046C19.59,35.876,19.102,36.044,18.834,36.441z"/>
</g>
</svg>
