<?xml version="1.0" encoding="iso-8859-1"?>
<!-- Generator: Adobe Illustrator 16.0.0, SVG Export Plug-In . SVG Version: 6.00 Build 0)  -->
<!DOCTYPE svg PUBLIC "-//W3C//DTD SVG 1.1//EN" "http://www.w3.org/Graphics/SVG/1.1/DTD/svg11.dtd">
<svg version="1.1" id="Layer_1" xmlns="http://www.w3.org/2000/svg" xmlns:xlink="http://www.w3.org/1999/xlink" x="0px" y="0px"
	 width="72.36px" height="72.18px" viewBox="0 0 72.36 72.18" style="enable-background:new 0 0 72.36 72.18;" xml:space="preserve"
	>
<g>
	<path style="fill-rule:evenodd;clip-rule:evenodd;fill:none;" d="M-6.984,79.631c0-28.871,0-57.743,0-86.615
		c28.8,0,57.6,0,86.399,0c0,28.872,0,57.744,0,86.615C50.616,79.631,21.816,79.631-6.984,79.631z M37.604,39.672
		c-0.324,0-0.655-0.041-0.97,0.011c-0.36,0.059-0.828,0.095-1.031,0.329c-0.349,0.401-0.804,0.538-1.229,0.726
		c-0.863,0.381-1.235,1.339-2.102,1.703c-0.151,0.063-0.309,0.227-0.366,0.38c-0.284,0.754-0.709,1.451-0.672,2.32
		c0.055,1.293-0.012,2.592,0.03,3.886c0.013,0.386-0.127,0.724-0.312,0.95c-0.794,0.975-1.429,2.082-2.418,2.897
		c-0.415,0.342-0.769,0.757-1.161,1.148c0.104,0.328-0.208,0.556-0.253,0.91c0.315,0.054,0.196,0.31,0.249,0.509
		c0.078,0.291-0.189,0.431-0.23,0.668c-0.099,0.574,0.153,1.087,0.281,1.702c1.191,0.813,1.683,2.338,2.87,3.258
		c0.16,0.544,0.589,0.818,1.182,1.066c0.16,0,0.458-0.05,0.731,0.008c1.294,0.275,1.425,0.283,2.847-0.004
		c0.135-0.027,0.355-0.051,0.412,0.021c0.228,0.288,0.526,0.197,0.793,0.186c1.518-0.067,3.043,0.167,4.559-0.188
		c0.43-0.101,0.868-0.19,1.247-0.383c0.724-0.367,1.449-0.624,2.228-0.494c1.854-1.082,1.854-1.082,2.579-1.091
		c0.817-0.204,1.133-0.695,1.554-1.078c0.35,0,0.71-0.016,1.068,0.004c0.716,0.037,1.406,0.015,1.909-0.607
		c0.656-0.075,1.026-0.638,1.55-0.94c1.018-0.588,1.801-1.49,2.581-2.357c0.372-0.413,0.547-0.997,0.869-1.464
		c0.146-0.211,0.115-0.4,0.116-0.602c0.007-1.51,0.004-3.019,0.004-4.352c-0.302-0.837-0.964-1.245-1.174-1.967
		c-0.153-0.527-0.557-0.81-1.114-0.897c-0.415-0.066-0.764-0.291-1.037-0.619c-0.786-0.045-1.537-0.278-2.302-0.417
		c-0.585-0.105-0.975-0.467-1.465-0.654c-0.565-0.216-0.953-0.546-1.151-1.058c-0.222-0.571-0.883-0.817-0.998-1.421
		c-0.138-0.725-0.609-1.206-1.07-1.722c-0.45-0.503-1.119-0.711-1.419-1.171c-0.667-0.187-1.218,0.078-1.781-0.247
		c-0.519-0.3-1.115-0.387-1.765-0.061c-0.43,0.216-0.976,0.332-1.516,0.257c-0.349-0.048-0.709-0.009-1.064-0.009
		C38.186,38.959,37.954,39.391,37.604,39.672z M34.556,20.634c0.453,0.838,0.503,1.59,0.315,2.227
		c-0.146,0.497-0.124,0.958-0.162,1.435c-0.028,0.357,0.021,0.721-0.01,1.078c-0.101,1.164,0.396,2.067,1.192,2.852
		c0.384,0.378,0.8,0.732,1.136,1.15c0.574,0.714,1.163,1.04,1.898,0.736c0.321-0.132,0.604-0.14,0.905-0.152
		c0.569-0.023,1.141-0.007,1.711-0.007c0.398-0.134,0.662-0.43,0.893-0.728c0.247-0.321,0.707-0.33,0.908-0.68
		c0.189-0.329,0.693-0.28,0.815-0.613c0.317-0.861,0.957-1.541,1.293-2.376c0.217-0.537,0.471-1.167,0.233-1.707
		c-0.187-0.426-0.181-0.815-0.171-1.22c0.017-0.685-0.046-1.309-0.595-1.813c-0.155-0.143-0.229-0.41-0.272-0.634
		c-0.146-0.759-0.73-1.274-1.048-1.938c-0.132-0.275-0.417-0.501-0.678-0.684c-0.244-0.169-0.18-0.549-0.582-0.639
		c-0.267-0.06-0.438-0.466-0.701-0.644c-0.301-0.203-0.616-0.431-1.022-0.389c-0.405-0.434-0.936-0.785-1.131-1.365
		c-0.286-0.85-0.813-1.506-1.458-2.094c-0.238-0.217-0.459-0.456-0.688-0.684c-0.178-0.832-0.223-0.899-1.104-1.678
		c-0.413,0.108-0.929-0.202-1.293,0.326c0,0.352,0,0.737,0,1.099c0.708,0.737,1.014,1.728,1.706,2.381c0,0.246,0,0.426,0,0.638
		c-0.687,0.771-1.726,0.982-2.544,1.489c-0.332,0.794-0.838,1.521-0.67,2.424c0.421,0.432,0.433,0.986,0.399,1.562
		C34.142,20.261,34.434,20.523,34.556,20.634z M22.608,14.287c0,0.839,0.004,1.699-0.002,2.56c-0.002,0.245,0.005,0.5-0.055,0.734
		c-0.22,0.85-0.148,1.026,0.021,1.902c0.071,0.367,0.389,0.676,0.257,1.093c-0.115,0.365-0.299,0.67-0.539,0.97
		c-0.203,0.254-0.282,0.591-0.356,0.933c-0.086,0.391-0.067,0.859-0.289,1.164c-0.37,0.51-0.326,1.046-0.331,1.597
		c-0.006,0.608-0.001,1.216-0.001,1.792c0.663,0.773,0.862,1.383,0.868,2.589c0.334,0.556,0.618,1.139,1.005,1.643
		c0.403,0.525,1.11,0.73,1.44,1.249c0.935,0.097,1.746,0.302,2.414,0.896c0.648,0,1.295,0,1.92,0
		c0.309-0.197,0.437-0.623,0.835-0.639c0.554-0.022,0.858-0.405,1.212-0.734c0.591-0.551,1.101-1.183,1.808-1.622
		c0.415-0.257,0.606-0.721,0.602-1.253c-0.008-0.872-0.152-1.678-0.633-2.445c-0.258-0.412-0.592-0.765-0.83-1.167
		c-0.566-0.958-1.179-1.886-1.753-2.838c-0.134-0.223-0.294-0.507-0.267-0.867c0.064-0.858,0.021-1.725,0.021-2.578
		c-0.521-0.86-1.208-1.538-2.053-2.055c-0.362,0-0.722,0-1.082,0c-0.534,0.16-0.838,0.906-1.565,0.6
		c-0.312-0.355-0.743-0.631-0.883-1.145c-0.082-0.959,0.239-2.06-0.865-2.696c-0.203,0-0.394-0.037-0.559,0.012
		C22.824,14.017,22.735,14.166,22.608,14.287z M17.942,49.139c0.71,0.138,1.454,0.283,2.033,0.769
		c0.671,0.563,1.419,0.422,2.016,0.095c0.583-0.32,1.179-0.643,1.758-0.982c0.493-0.29,0.882-0.684,1.279-1.077
		c0.23-0.228,0.438-0.483,0.692-0.681c0.396-0.31,0.735-0.585,0.812-1.17c0.049-0.377,0.268-0.873,0.763-0.866
		c0.409-0.604,0.242-1.21,0.286-1.77c-0.076-0.075-0.145-0.118-0.173-0.18c-0.042-0.09-0.023-0.228-0.085-0.285
		c-1.081-0.997-1.941-2.252-3.336-2.883c-0.087-0.039-0.196-0.007-0.286-0.095c-0.469-0.463-0.905-0.938-1.54-1.227
		c-0.629-0.285-1.016-0.924-1.611-1.313c-1.333-0.874-2.66-1.669-4.268-1.462c-0.516,0.334-1.071,0.455-1.328,0.813
		c-0.436,0.125-0.744-0.113-0.727-0.27c0.042-0.388-0.313-0.614-0.269-0.99c0.079-0.693-0.3-1.164-0.846-1.542
		c-0.259,0.152-0.502,0.271-0.718,0.427c-0.231,0.165-0.438,0.365-0.636,0.533c0.114,1.503,0.569,2.791,1.373,4.117
		c0,0.211-0.134,0.658,0.031,0.902c0.258,0.381,0.045,0.766,0.198,1.113c0.517,0.634,0.894,1.139,0.838,3.008
		c0.5,0.448,0.955,0.929,0.845,1.686c0.356,0.421,0.882,0.729,0.868,1.373c-0.006,0.305,0.245,0.473,0.432,0.564
		C17.004,48.069,17.389,48.685,17.942,49.139z M51.768,27.037c0,0.202,0.002,0.416-0.001,0.63c-0.011,0.815-0.235,1.542-0.822,2.141
		c-0.363,0.369-0.49,0.87-0.694,1.329c-0.243,0.55-0.173,1.201-0.6,1.694c-0.711,0.821-0.876,1.866-1.127,2.875
		c-0.12,0.482,0.269,0.848,0.254,1.299c0.509,0.509,1.019,1.015,1.525,1.525c0.464,0.468,0.993,0.796,1.627,1.023
		c0.268,0.096,0.57,0.112,0.851,0.305c0.554,0.381,1.301,0.253,2.085,0.083c1.122-0.243,1.984-0.961,2.938-1.497
		c0.364-0.205,0.808-0.441,1.063-0.813c0.4-0.579,0.741-1.201,1.109-1.807c0-1.613-0.029-3.232,0.012-4.848
		c0.021-0.816-0.071-1.579-0.514-2.271c-0.078-0.123-0.151-0.215-0.15-0.372c0.005-0.736-0.472-1.248-0.86-1.799
		c0-1.419-0.067-1.382-0.781-2.7c-0.377-0.698-0.63-1.471-1.099-2.128c-0.1-0.139-0.078-0.28-0.056-0.405
		c0.055-0.305-0.138-0.458-0.334-0.639c-0.164,0-0.35-0.033-0.52,0.006c-0.718,0.162-1.36,1.011-1.067,1.588
		c0.279,0.55,0.282,1.177,0.672,1.729c-0.343,0.166-0.253,0.636-0.703,0.804c-0.464-0.441-1.076-0.161-1.673-0.254
		C52.427,25.346,52.394,26.322,51.768,27.037z M62.706,31.5c-0.345,0-0.658,0-0.913,0c-0.312,0.227-0.385,0.469-0.257,0.768
		c0.219,0.287,0.571,0.34,0.903,0.521c0.185-0.199,0.374-0.401,0.458-0.492C63.113,31.893,62.946,31.71,62.706,31.5z"/>
	<path fill="currentColor" d="M37.604,39.672c0.35-0.281,0.582-0.713,1.06-0.864
		c0.355,0,0.716-0.039,1.064,0.009c0.54,0.075,1.086-0.041,1.516-0.257c0.649-0.326,1.246-0.239,1.765,0.061
		c0.563,0.325,1.114,0.061,1.781,0.247c0.3,0.46,0.969,0.668,1.419,1.171c0.461,0.516,0.933,0.997,1.07,1.722
		c0.115,0.604,0.776,0.85,0.998,1.421c0.198,0.512,0.586,0.842,1.151,1.058c0.49,0.188,0.88,0.549,1.465,0.654
		c0.765,0.139,1.516,0.372,2.302,0.417c0.273,0.328,0.622,0.553,1.037,0.619c0.558,0.088,0.961,0.37,1.114,0.897
		c0.21,0.722,0.872,1.13,1.174,1.967c0,1.333,0.003,2.842-0.004,4.352c-0.001,0.201,0.029,0.391-0.116,0.602
		c-0.322,0.467-0.497,1.051-0.869,1.464c-0.78,0.867-1.563,1.77-2.581,2.357c-0.523,0.303-0.894,0.865-1.55,0.94
		c-0.503,0.622-1.193,0.645-1.909,0.607c-0.358-0.02-0.719-0.004-1.068-0.004c-0.421,0.383-0.736,0.874-1.554,1.078
		c-0.726,0.009-0.726,0.009-2.579,1.091c-0.778-0.13-1.504,0.127-2.228,0.494c-0.379,0.192-0.817,0.282-1.247,0.383
		c-1.516,0.355-3.041,0.121-4.559,0.188c-0.268,0.012-0.565,0.103-0.793-0.186c-0.057-0.071-0.276-0.048-0.412-0.021
		c-1.422,0.287-1.553,0.279-2.847,0.004c-0.274-0.058-0.571-0.008-0.731-0.008c-0.593-0.248-1.022-0.522-1.182-1.066
		c-1.187-0.92-1.678-2.444-2.87-3.258c-0.128-0.615-0.38-1.128-0.281-1.702c0.041-0.237,0.308-0.377,0.23-0.668
		c-0.053-0.199,0.066-0.455-0.249-0.509c0.045-0.354,0.356-0.582,0.253-0.91c0.392-0.392,0.746-0.807,1.161-1.148
		c0.99-0.815,1.625-1.923,2.418-2.897c0.185-0.227,0.325-0.564,0.312-0.95c-0.042-1.294,0.024-2.593-0.03-3.886
		c-0.037-0.869,0.388-1.566,0.672-2.32c0.058-0.153,0.215-0.316,0.366-0.38c0.867-0.364,1.238-1.322,2.102-1.703
		c0.425-0.188,0.88-0.324,1.229-0.726c0.204-0.234,0.671-0.271,1.031-0.329C36.949,39.631,37.28,39.672,37.604,39.672z"/>
	<path fill="currentColor" d="M34.556,20.634c-0.123-0.11-0.414-0.373-0.723-0.65
		c0.033-0.576,0.021-1.129-0.399-1.562c-0.168-0.903,0.338-1.63,0.67-2.424c0.818-0.507,1.857-0.717,2.544-1.489
		c0-0.212,0-0.392,0-0.638c-0.692-0.653-0.997-1.644-1.706-2.381c0-0.362,0-0.747,0-1.099c0.364-0.528,0.88-0.218,1.293-0.326
		c0.881,0.778,0.926,0.846,1.104,1.678c0.229,0.229,0.449,0.467,0.688,0.684c0.646,0.588,1.172,1.245,1.458,2.094
		c0.195,0.581,0.726,0.932,1.131,1.365c0.406-0.042,0.722,0.187,1.022,0.389c0.264,0.177,0.435,0.583,0.701,0.644
		c0.402,0.09,0.338,0.47,0.582,0.639c0.261,0.182,0.546,0.408,0.678,0.684c0.317,0.665,0.902,1.18,1.048,1.938
		c0.043,0.224,0.117,0.491,0.272,0.634c0.549,0.505,0.611,1.129,0.595,1.813c-0.01,0.405-0.016,0.794,0.171,1.22
		c0.237,0.54-0.017,1.17-0.233,1.707c-0.336,0.835-0.976,1.516-1.293,2.376c-0.122,0.333-0.626,0.284-0.815,0.613
		c-0.201,0.351-0.661,0.359-0.908,0.68c-0.23,0.297-0.494,0.594-0.893,0.728c-0.57,0-1.142-0.017-1.711,0.007
		c-0.302,0.012-0.584,0.02-0.905,0.152c-0.735,0.303-1.324-0.022-1.898-0.736c-0.336-0.417-0.752-0.771-1.136-1.15
		c-0.796-0.784-1.293-1.688-1.192-2.852c0.031-0.357-0.018-0.72,0.01-1.078c0.038-0.477,0.016-0.938,0.162-1.435
		C35.059,22.224,35.009,21.472,34.556,20.634z"/>
	<path fill="currentColor" d="M22.608,14.287c0.127-0.122,0.216-0.271,0.338-0.307
		c0.165-0.049,0.356-0.012,0.559-0.012c1.104,0.637,0.783,1.737,0.865,2.696c0.14,0.513,0.571,0.789,0.883,1.145
		c0.727,0.306,1.031-0.44,1.565-0.6c0.359,0,0.719,0,1.082,0c0.845,0.517,1.532,1.195,2.053,2.055c0,0.854,0.043,1.72-0.021,2.578
		c-0.027,0.36,0.133,0.645,0.267,0.867c0.574,0.952,1.187,1.879,1.753,2.838c0.238,0.402,0.572,0.755,0.83,1.167
		c0.481,0.767,0.625,1.573,0.633,2.445c0.005,0.533-0.187,0.996-0.602,1.253c-0.707,0.438-1.216,1.07-1.808,1.622
		c-0.354,0.33-0.658,0.712-1.212,0.734c-0.398,0.016-0.526,0.442-0.835,0.639c-0.625,0-1.272,0-1.92,0
		c-0.667-0.593-1.479-0.799-2.414-0.896c-0.331-0.519-1.037-0.724-1.44-1.249c-0.387-0.504-0.671-1.086-1.005-1.643
		c-0.005-1.206-0.205-1.816-0.868-2.589c0-0.575-0.004-1.184,0.001-1.792c0.005-0.551-0.039-1.087,0.331-1.597
		c0.221-0.305,0.202-0.773,0.289-1.164c0.075-0.341,0.154-0.678,0.356-0.933c0.24-0.3,0.424-0.605,0.539-0.97
		c0.132-0.417-0.186-0.726-0.257-1.093c-0.169-0.876-0.24-1.052-0.021-1.902c0.06-0.234,0.053-0.489,0.055-0.734
		C22.612,15.986,22.608,15.126,22.608,14.287z"/>
	<path fill="currentColor" d="M17.942,49.139c-0.554-0.454-0.938-1.069-1.6-1.393
		c-0.187-0.092-0.438-0.26-0.432-0.564c0.014-0.645-0.512-0.952-0.868-1.373c0.11-0.757-0.344-1.237-0.845-1.686
		c0.056-1.869-0.321-2.374-0.838-3.008c-0.152-0.348,0.06-0.732-0.198-1.113c-0.165-0.244-0.031-0.691-0.031-0.902
		c-0.804-1.326-1.259-2.614-1.373-4.117c0.198-0.168,0.405-0.368,0.636-0.533c0.216-0.155,0.459-0.275,0.718-0.427
		c0.545,0.378,0.925,0.849,0.846,1.542c-0.043,0.376,0.311,0.602,0.269,0.99c-0.017,0.157,0.291,0.395,0.727,0.27
		c0.256-0.358,0.812-0.479,1.328-0.813c1.608-0.207,2.935,0.589,4.268,1.462c0.595,0.39,0.982,1.028,1.611,1.313
		c0.635,0.288,1.071,0.764,1.54,1.227c0.09,0.088,0.198,0.056,0.286,0.095c1.395,0.631,2.255,1.886,3.336,2.883
		c0.062,0.058,0.043,0.195,0.085,0.285c0.028,0.062,0.097,0.104,0.173,0.18c-0.044,0.56,0.123,1.165-0.286,1.77
		c-0.495-0.007-0.714,0.489-0.763,0.866c-0.076,0.585-0.415,0.86-0.812,1.17c-0.253,0.197-0.462,0.453-0.692,0.681
		c-0.397,0.394-0.786,0.787-1.279,1.077c-0.579,0.34-1.175,0.662-1.758,0.982c-0.597,0.327-1.345,0.469-2.016-0.095
		C19.396,49.422,18.652,49.276,17.942,49.139z"/>
	<path fill="currentColor" d="M51.768,27.037c0.626-0.715,0.659-1.691,1.135-2.501
		c0.597,0.093,1.209-0.187,1.673,0.254c0.45-0.167,0.36-0.638,0.703-0.804c-0.39-0.552-0.393-1.178-0.672-1.729
		c-0.293-0.578,0.35-1.426,1.067-1.588c0.17-0.039,0.355-0.006,0.52-0.006c0.196,0.182,0.389,0.334,0.334,0.639
		c-0.022,0.125-0.044,0.266,0.056,0.405c0.469,0.657,0.722,1.43,1.099,2.128c0.714,1.318,0.781,1.281,0.781,2.7
		c0.389,0.551,0.865,1.063,0.86,1.799c-0.001,0.157,0.072,0.25,0.15,0.372c0.442,0.692,0.535,1.456,0.514,2.271
		c-0.041,1.616-0.012,3.235-0.012,4.848c-0.368,0.606-0.709,1.228-1.109,1.807c-0.256,0.371-0.699,0.607-1.063,0.813
		c-0.953,0.536-1.815,1.254-2.938,1.497c-0.784,0.17-1.531,0.298-2.085-0.083c-0.28-0.192-0.583-0.209-0.851-0.305
		c-0.634-0.228-1.163-0.556-1.627-1.023c-0.507-0.511-1.017-1.017-1.525-1.525c0.015-0.452-0.374-0.817-0.254-1.299
		c0.251-1.009,0.416-2.054,1.127-2.875c0.427-0.493,0.356-1.145,0.6-1.694c0.204-0.459,0.331-0.96,0.694-1.329
		c0.587-0.598,0.812-1.326,0.822-2.141C51.77,27.453,51.768,27.239,51.768,27.037z"/>
</g>
</svg>
