<svg xmlns="http://www.w3.org/2000/svg" xml:space="preserve" width="72px" height="72px" viewBox="0 0 72 72">
    <path fill="currentColor" d="M26.045 60.082c-.493-.56-.408-1.385-.992-1.889-.543-.469-1.025-1.009-1.558-1.542v-2.283a3.4 3.4 0 0 0-1.238-1.385c-.583-.387-1.184-.908-1.174-1.721-1.014-1.206-2.083-2.341-2.788-3.74-.314-.625-.795-1.087-1.397-1.329-1.065-.429-1.798-1.217-2.453-2.082-.246-.324-.201-.859-.421-1.218a4.6 4.6 0 0 1-.513-1.09c-.328-1.085-.111-2.179-.182-2.978-.09-.85-.643-1.082-.882-1.544-.526-1.01-.935-2.038-.859-3.208.044-.693-.034-1.383.182-2.081.086-.278.148-.631.291-.849.321-.492.33-1.12.68-1.552.369-.455.525-.941.592-1.489.691-.652.692-1.661 1.25-2.407.268-.359.6-.843.471-1.418-.074-.331.193-.584.355-.815.241-.342.345-.737.532-1.076.553-.995.796-2.136 1.48-3.062.04-.054.058-.132.108-.169.725-.53 1.086-1.347 1.587-2.047.474-.661 1.071-1.242 1.387-2.012 1.327-1.197 2.354-2.742 4.056-3.501.31-.138.467-.424.714-.621.584-.465 1.116-1.004 1.913-1.124.217-.033.44-.182.612-.332.44-.383.957-.56 1.514-.508.756.07 1.419-.197 2.07-.488.508-.227 1.002-.398 1.567-.393 1.583.016 3.168.044 4.749-.017.515-.02.933.271 1.423.238.886.694 1.992.375 2.959.697.914.426 1.77 1.059 2.776.801.697.342 1.169.866 1.888.963.108.015.309.102.452.198.861.582.864.577 1.69.615 1.142.875 2.438 1.536 3.469 2.582.642.651 1.001 1.476 1.562 2.171.358.445.646.95.94 1.443.446.748.814 1.513 1.051 2.376.195.712.539 1.485 1.382 1.779 1.314.458 1.832 1.638 2.513 2.695.263.409.013.915.387 1.248-.163 1.101.343 2.167.198 3.254-.087.654-.267 1.295-.201 1.839-.259.553-.437 1.027-.692 1.454-.243.405-.203.941-.602 1.263-.388.313-.616.75-.919 1.13-.47.587-.851 1.25-1.575 1.614-.242.121-.449.381-.569.721-.223.63-.73 1.071-1.337 1.367-.813.397-1.55.867-1.891 1.842.667 1.419.411 2.979.467 4.513.011.306-.154.58-.3.731-.479.496-.633 1.057-.565 1.681a4.5 4.5 0 0 0-.846 1.522c-.162.483-.431.85-.779 1.191s-.692.676-.927 1.125c-.381.729-1.038 1.235-1.591 1.826-.404.434-.907.773-1.166 1.35a.79.79 0 0 1-.554.456c-.557.109-.983.454-1.375.849-.632.64-1.296 1.25-1.901 1.914-1.349 1.479-2.974 2.663-4.35 4.129h-.349c-.911.656-1.76 1.293-2.636 1.892-.868.593-1.985.583-2.949 1.145-.498 0-1.118.138-1.64-.03-.946-.306-1.891-.092-2.53-.169-1.153-.45-1.55-1.196-1.931-2.036-.357-.792-.595-1.577-.635-2.409m20.323-35.414c0 .107.027.194-.004.249-.417.721-.16 1.284.359 1.839.631.674.682 1.044.228 1.826-.115.199-.094.5-.361.609l-.006.105c-.069 1.009-.199 1.979-1.273 2.484a.96.96 0 0 0-.443.457c-.272.655-.808 1.037-1.389 1.337-.353.184-.573.41-.805.733-.379.528-.572 1.156-.952 1.655-.267.35-.383.644-.284 1.043.252.323.739.504.576 1.186l-.64.537c-.1.449-.235.871-.214 1.302-.607.4-1.154.359-1.725-.04-.323-.227-.71-.363-1.151-.581-.036.336-.377.175-.575.39.149.855-.245 1.65-.443 2.505.517.994 1.765 1.339 2.208 2.682v1.524c.661.356 1.433.271 1.937.744.718-.363.837-1.392 1.803-1.32.071.064.207.127.218.206.091.678.657 1.319.157 2.051-.067.099-.084.339-.017.407.363.368.18.813.196 1.217.031.791.02 1.584.003 2.375-.006.306.084.511.345.618.487-.395.904-.813 1.373-1.186a7.9 7.9 0 0 0 1.656-1.77c.338-.507.501-1.132 1.031-1.529a4.26 4.26 0 0 0 1.414-1.891c.084-.22.21-.359.353-.501.776-.769 1.015-1.808 1.377-2.776.085-.228-.035-.509-.154-.787-.248-.578-.511-1.192-.472-1.854.027-.465-.19-.858-.337-1.267-.124-.344-.244-.695-.386-1.026-.555-1.292-1.071-2.589-1.364-3.971-.104-.491-.145-.975-.004-1.448.21-.706.569-1.344.635-2.121.068-.82.146-.804-.023-1.683-.076-.395-.038-.809.064-1.236.158-.655.551-1.154.879-1.69.615-1.003 1.305-1.937 2.316-2.624.546-.371.934-.975 1.466-1.555.018-.153-.108-.481.19-.7-.591-.743-.671-1.72-1.281-2.417.142-.318-.257-.503-.209-.773.135-.761-.251-1.331-.659-1.889-.367-.502-.767-.979-1.152-1.468-1.426-.541-2.394-1.701-3.506-2.599-.776-.156-1.469.156-2.188.238-.253.188-.315.492-.443.729l1.689 2.594c-.101 1.235.146 2.508-.216 3.768-.26.904-.304 1.858-.641 2.758-.198.531-.4 1.116-.171 1.704.203.413.696.453 1.015.83m-8.374 4.991a20 20 0 0 1-2.251 3.113c.143.277.389.258.495.191.765-.488 1.755-.52 2.417-1.223.181-.192.141-.383.165-.75l1.015-.993c.271-.877-.338-1.665-.143-2.512-.242-.242-.49-.454-.693-.703-.208-.255-.563-.48-.765-.469-1.087.057-2.182-.25-3.271.154-.39.144-.825.321-1.306.259-.515-.066-.912.193-1.154.671.372.283.729.409 1.162.403.767-.012 1.529-.061 2.291.192.891.297 1.69.642 2.038 1.667m-9.985 2.55c-.023-.4.115-.838-.28-1.195.394-.261.235-.643.294-.974l1.065-1.061c-.049-.411-.049-.411-.304-.735-.486-.055-1.01-.106-1.369.269-.544.569-1.201.628-1.886.569-.175.175-.429.308-.461.482-.124.685-.763.58-1.171.802-.193.105-.494.042-.741.012-.267-.031-.368.169-.473.26l.808.846c.635-.15 1.156.151 1.613.632.283 0 .674-.119.834.022.442.393 1.042-.025 1.468.391.16.155.384-.074.603-.32m3.115 18.459c.257 0 .52.081.674-.015.526-.327 1.103-.466 1.682-.644.251-.077.655-.162.756-.488.185-.594.61-1.145.426-1.823-.591-.117-1.045.065-1.432.466-.548.567-1.101 1.13-1.596 1.637-.721.044-1.313.169-1.82.689h-2.135c-.427.32-.426.827-.731 1.161-.328.359-.886.438-1.094.914-.066.335.087.551.331.705h1.293c.187-.188.336-.434.551-.525.245-.104.493-.231.715-.351.841-.452 1.724-.869 2.38-1.726m-7.029.019a25.4 25.4 0 0 0 4.11-2.353c.358-.249.586-.671 1.076-.77.733-.146 1.281-.7 1.957-.986.438-.186.763-.475.619-1.052h-1.135c-.712.153-.986.529-1.311.841h-.632c-.166.148-.301.335-.484.425-.811.397-1.643.796-2.334 1.353-.521.419-1.034.805-1.664.94-.686.147-1.192.503-1.629 1.008-.04.046-.041.125-.079.25l.573.344zm32.913-20.079c-.256.269-.638.536-.825.902-.207.406-.494.785-.554 1.285-.032.273-.341.483-.647.619a7.76 7.76 0 0 0-2.979 2.291v1.072l.342.328c1.136-.14 1.729-1.168 2.619-1.621.354-1.1 1.372-1.612 1.97-2.421.096-.817.694-1.396.881-2.05-.16-.399-.429-.448-.807-.405m-38.504 5.776-.521-.595h-.895c-.457.034-.644.479-1.016.668-.539.273-.945.817-.781 1.445.138.53.229 1.138.698 1.525h1.086c.44-.271.601-.661.775-1.032.174-.37.333-.746.652-1.002.002-.342.002-.666.002-1.009m32.816-7.311c.164.306.344.654.627.971.391.437.752.925.267 1.556-.07.091-.085.348.082.503.741.088 1.305-.3 1.831-.739.479-.4.491-.964.438-1.532-.415-.786-1.326-1.323-2.219-2-.583.191-.932.569-1.026 1.241M25.859 55.994c.345.164.683.439 1.065.298.646-.24 1.343-.232 1.976-.448.36-.123.753-.216 1.091-.512.69-.604 1.497-1.072 2.229-1.632.458-.349 1.044-.514 1.41-.976-.037-.188.074-.383-.138-.544-.747.184-1.167.823-1.523 1.146-1.129.479-1.944 1.094-2.907 1.396s-1.902.693-2.946.756c-.061.149-.296.195-.257.516m-5.847-10c.008.165-.051.419.036.487.509.4.678 1.032 1.003 1.536.336.52.722.636 1.101.723l.539-.421c.338-.706-.129-1.116-.083-1.605-.749-.757-.994-.827-2.596-.72m9.52-12.258c.422.529 1.01.772 1.664.735.592-.034 1.193-.176 1.541-.762-.121-.152-.274-.069-.407-.083-.577-.064-1.157.098-1.741-.188-.289-.142-.783-.169-1.057.298M17.404 44.191c.121-.762-.23-1.273-.703-1.672h-.983v.743c.487.452.876 1.026 1.686.929m1.437-10.78c.175-.261.484-.366.536-.664-.219-.404-.386-.823-.784-1.061h-.392a1.61 1.61 0 0 0-.332 1.361c.248.449.59.349.972.364m1.283 5.181c-.262-.053-.364.17-.527.31-.124.626.407 1.166.195 1.753.201.148.27.354.493.313.217-.296.554-.637.355-.978-.261-.448.023-1.077-.516-1.398m9.574-10.313c.583-.128 1.095-.124 1.329-.706.018-.044-.045-.121-.074-.192h-.69c-.286.21-.341.519-.565.898m23.599-1.555c.551-.077.551-.077.873-.53l-.386-.277c-.07.146-.315.111-.487.233zm-26.82 9.537c-.406-.057-.805-.178-1.05.349h1.05z"/>
</svg>
