<?xml version="1.0" encoding="iso-8859-1"?>
<!-- Generator: Adobe Illustrator 16.0.0, SVG Export Plug-In . SVG Version: 6.00 Build 0)  -->
<!DOCTYPE svg PUBLIC "-//W3C//DTD SVG 1.1//EN" "http://www.w3.org/Graphics/SVG/1.1/DTD/svg11.dtd">
<svg version="1.1" id="Layer_1" xmlns="http://www.w3.org/2000/svg" xmlns:xlink="http://www.w3.org/1999/xlink" x="0px" y="0px"
	 width="72.36px" height="72.18px" viewBox="0 0 72.36 72.18" style="enable-background:new 0 0 72.36 72.18;" xml:space="preserve"
	>
<g>
	
	<path fill="currentColor" d="M26.045,60.082c-0.493-0.56-0.408-1.385-0.992-1.889
		c-0.543-0.469-1.025-1.009-1.558-1.542c0-0.761,0-1.546,0-2.283c-0.304-0.607-0.691-1.021-1.238-1.385
		c-0.583-0.387-1.184-0.908-1.174-1.721c-1.014-1.206-2.083-2.341-2.788-3.74c-0.314-0.625-0.795-1.087-1.397-1.329
		c-1.065-0.429-1.798-1.217-2.453-2.082c-0.246-0.324-0.201-0.859-0.421-1.218c-0.216-0.353-0.389-0.683-0.513-1.09
		c-0.328-1.085-0.111-2.179-0.182-2.978c-0.09-0.85-0.643-1.082-0.882-1.544c-0.526-1.01-0.935-2.038-0.859-3.208
		c0.044-0.693-0.034-1.383,0.182-2.081c0.086-0.278,0.148-0.631,0.291-0.849c0.321-0.492,0.33-1.12,0.68-1.552
		c0.369-0.455,0.525-0.941,0.592-1.489c0.691-0.652,0.692-1.661,1.25-2.407c0.268-0.359,0.6-0.843,0.471-1.418
		c-0.074-0.331,0.193-0.584,0.355-0.815c0.241-0.342,0.345-0.737,0.532-1.076c0.553-0.995,0.796-2.136,1.48-3.062
		c0.04-0.054,0.058-0.132,0.108-0.169c0.725-0.53,1.086-1.347,1.587-2.047c0.474-0.661,1.071-1.242,1.387-2.012
		c1.327-1.197,2.354-2.742,4.056-3.501c0.31-0.138,0.467-0.424,0.714-0.621c0.584-0.465,1.116-1.004,1.913-1.124
		c0.217-0.033,0.44-0.182,0.612-0.332c0.44-0.383,0.957-0.56,1.514-0.508c0.756,0.07,1.419-0.197,2.07-0.488
		c0.508-0.227,1.002-0.398,1.567-0.393c1.583,0.016,3.168,0.044,4.749-0.017c0.515-0.02,0.933,0.271,1.423,0.238
		c0.886,0.694,1.992,0.375,2.959,0.697c0.914,0.426,1.77,1.059,2.776,0.801c0.697,0.342,1.169,0.866,1.888,0.963
		c0.108,0.015,0.309,0.102,0.452,0.198c0.861,0.582,0.864,0.577,1.69,0.615c1.142,0.875,2.438,1.536,3.469,2.582
		c0.642,0.651,1.001,1.476,1.562,2.171c0.358,0.445,0.646,0.95,0.94,1.443c0.446,0.748,0.814,1.513,1.051,2.376
		c0.195,0.712,0.539,1.485,1.382,1.779c1.314,0.458,1.832,1.638,2.513,2.695c0.263,0.409,0.013,0.915,0.387,1.248
		c-0.163,1.101,0.343,2.167,0.198,3.254c-0.087,0.654-0.267,1.295-0.201,1.839c-0.259,0.553-0.437,1.027-0.692,1.454
		c-0.243,0.405-0.203,0.941-0.602,1.263c-0.388,0.313-0.616,0.75-0.919,1.13c-0.47,0.587-0.851,1.25-1.575,1.614
		c-0.242,0.121-0.449,0.381-0.569,0.721c-0.223,0.63-0.73,1.071-1.337,1.367c-0.813,0.397-1.55,0.867-1.891,1.842
		c0.667,1.419,0.411,2.979,0.467,4.513c0.011,0.306-0.154,0.58-0.3,0.731c-0.479,0.496-0.633,1.057-0.565,1.681
		c-0.403,0.469-0.667,0.987-0.846,1.522c-0.162,0.483-0.431,0.85-0.779,1.191c-0.348,0.341-0.692,0.676-0.927,1.125
		c-0.381,0.729-1.038,1.235-1.591,1.826c-0.404,0.434-0.907,0.773-1.166,1.35c-0.084,0.188-0.268,0.399-0.554,0.456
		c-0.557,0.109-0.983,0.454-1.375,0.849c-0.632,0.64-1.296,1.25-1.901,1.914c-1.349,1.479-2.974,2.663-4.35,4.129
		c-0.135,0-0.275,0-0.349,0c-0.911,0.656-1.76,1.293-2.636,1.892c-0.868,0.593-1.985,0.583-2.949,1.145
		c-0.498,0-1.118,0.138-1.64-0.03c-0.946-0.306-1.891-0.092-2.53-0.169c-1.153-0.45-1.55-1.196-1.931-2.036
		C26.323,61.699,26.085,60.914,26.045,60.082z M46.368,24.668c0,0.107,0.027,0.194-0.004,0.249c-0.417,0.721-0.16,1.284,0.359,1.839
		c0.631,0.674,0.682,1.044,0.228,1.826c-0.115,0.199-0.094,0.5-0.361,0.609c-0.002,0.035-0.003,0.07-0.006,0.105
		c-0.069,1.009-0.199,1.979-1.273,2.484c-0.183,0.085-0.366,0.273-0.443,0.457c-0.272,0.655-0.808,1.037-1.389,1.337
		c-0.353,0.184-0.573,0.41-0.805,0.733c-0.379,0.528-0.572,1.156-0.952,1.655c-0.267,0.35-0.383,0.644-0.284,1.043
		c0.252,0.323,0.739,0.504,0.576,1.186c-0.15,0.126-0.396,0.332-0.64,0.537c-0.1,0.449-0.235,0.871-0.214,1.302
		c-0.607,0.4-1.154,0.359-1.725-0.04c-0.323-0.227-0.71-0.363-1.151-0.581c-0.036,0.336-0.377,0.175-0.575,0.39
		c0.149,0.855-0.245,1.65-0.443,2.505c0.517,0.994,1.765,1.339,2.208,2.682c0,0.343,0,0.945,0,1.524
		c0.661,0.356,1.433,0.271,1.937,0.744c0.718-0.363,0.837-1.392,1.803-1.32c0.071,0.064,0.207,0.127,0.218,0.206
		c0.091,0.678,0.657,1.319,0.157,2.051c-0.067,0.099-0.084,0.339-0.017,0.407c0.363,0.368,0.18,0.813,0.196,1.217
		c0.031,0.791,0.02,1.584,0.003,2.375c-0.006,0.306,0.084,0.511,0.345,0.618c0.487-0.395,0.904-0.813,1.373-1.186
		c0.62-0.494,1.192-1.076,1.656-1.77c0.338-0.507,0.501-1.132,1.031-1.529c0.646-0.485,1.124-1.139,1.414-1.891
		c0.084-0.22,0.21-0.359,0.353-0.501c0.776-0.769,1.015-1.808,1.377-2.776c0.085-0.228-0.035-0.509-0.154-0.787
		c-0.248-0.578-0.511-1.192-0.472-1.854c0.027-0.465-0.19-0.858-0.337-1.267c-0.124-0.344-0.244-0.695-0.386-1.026
		c-0.555-1.292-1.071-2.589-1.364-3.971c-0.104-0.491-0.145-0.975-0.004-1.448c0.21-0.706,0.569-1.344,0.635-2.121
		c0.068-0.82,0.146-0.804-0.023-1.683c-0.076-0.395-0.038-0.809,0.064-1.236c0.158-0.655,0.551-1.154,0.879-1.69
		c0.615-1.003,1.305-1.937,2.316-2.624c0.546-0.371,0.934-0.975,1.466-1.555c0.018-0.153-0.108-0.481,0.19-0.7
		c-0.591-0.743-0.671-1.72-1.281-2.417c0.142-0.318-0.257-0.503-0.209-0.773c0.135-0.761-0.251-1.331-0.659-1.889
		c-0.367-0.502-0.767-0.979-1.152-1.468c-1.426-0.541-2.394-1.701-3.506-2.599c-0.776-0.156-1.469,0.156-2.188,0.238
		c-0.253,0.188-0.315,0.492-0.443,0.729c0.562,0.862,1.116,1.714,1.689,2.594c-0.101,1.235,0.146,2.508-0.216,3.768
		c-0.26,0.904-0.304,1.858-0.641,2.758c-0.198,0.531-0.4,1.116-0.171,1.704C45.556,24.251,46.049,24.291,46.368,24.668z
		 M37.994,29.659c-0.652,1.114-1.41,2.159-2.251,3.113c0.143,0.277,0.389,0.258,0.495,0.191c0.765-0.488,1.755-0.52,2.417-1.223
		c0.181-0.192,0.141-0.383,0.165-0.75c0.292-0.286,0.673-0.658,1.015-0.993c0.271-0.877-0.338-1.665-0.143-2.512
		c-0.242-0.242-0.49-0.454-0.693-0.703c-0.208-0.255-0.563-0.48-0.765-0.469c-1.087,0.057-2.182-0.25-3.271,0.154
		c-0.39,0.144-0.825,0.321-1.306,0.259c-0.515-0.066-0.912,0.193-1.154,0.671c0.372,0.283,0.729,0.409,1.162,0.403
		c0.767-0.012,1.529-0.061,2.291,0.192C36.847,28.289,37.646,28.634,37.994,29.659z M28.009,32.209
		c-0.023-0.4,0.115-0.838-0.28-1.195c0.394-0.261,0.235-0.643,0.294-0.974c0.356-0.354,0.711-0.708,1.065-1.061
		c-0.049-0.411-0.049-0.411-0.304-0.735c-0.486-0.055-1.01-0.106-1.369,0.269c-0.544,0.569-1.201,0.628-1.886,0.569
		c-0.175,0.175-0.429,0.308-0.461,0.482c-0.124,0.685-0.763,0.58-1.171,0.802c-0.193,0.105-0.494,0.042-0.741,0.012
		c-0.267-0.031-0.368,0.169-0.473,0.26c0.255,0.267,0.514,0.538,0.808,0.846c0.635-0.15,1.156,0.151,1.613,0.632
		c0.283,0,0.674-0.119,0.834,0.022c0.442,0.393,1.042-0.025,1.468,0.391C27.566,32.684,27.79,32.455,28.009,32.209z M31.124,50.668
		c0.257,0,0.52,0.081,0.674-0.015c0.526-0.327,1.103-0.466,1.682-0.644c0.251-0.077,0.655-0.162,0.756-0.488
		c0.185-0.594,0.61-1.145,0.426-1.823c-0.591-0.117-1.045,0.065-1.432,0.466c-0.548,0.567-1.101,1.13-1.596,1.637
		c-0.721,0.044-1.313,0.169-1.82,0.689c-0.696,0-1.442,0-2.135,0c-0.427,0.32-0.426,0.827-0.731,1.161
		c-0.328,0.359-0.886,0.438-1.094,0.914c-0.066,0.335,0.087,0.551,0.331,0.705c0.444,0,0.873,0,1.293,0
		c0.187-0.188,0.336-0.434,0.551-0.525c0.245-0.104,0.493-0.231,0.715-0.351C29.585,51.942,30.468,51.525,31.124,50.668z
		 M24.095,50.687c1.513-0.686,2.839-1.465,4.11-2.353c0.358-0.249,0.586-0.671,1.076-0.77c0.733-0.146,1.281-0.7,1.957-0.986
		c0.438-0.186,0.763-0.475,0.619-1.052c-0.48,0-0.937,0-1.135,0c-0.712,0.153-0.986,0.529-1.311,0.841c-0.215,0-0.43,0-0.632,0
		c-0.166,0.148-0.301,0.335-0.484,0.425c-0.811,0.397-1.643,0.796-2.334,1.353c-0.521,0.419-1.034,0.805-1.664,0.94
		c-0.686,0.147-1.192,0.503-1.629,1.008c-0.04,0.046-0.041,0.125-0.079,0.25c0.124,0.074,0.276,0.166,0.573,0.344
		C23.361,50.687,23.792,50.687,24.095,50.687z M57.008,30.608c-0.256,0.269-0.638,0.536-0.825,0.902
		c-0.207,0.406-0.494,0.785-0.554,1.285c-0.032,0.273-0.341,0.483-0.647,0.619c-1.185,0.526-2.191,1.293-2.979,2.291
		c0,0.378,0,0.732,0,1.072c0.118,0.113,0.221,0.211,0.342,0.328c1.136-0.14,1.729-1.168,2.619-1.621
		c0.354-1.1,1.372-1.612,1.97-2.421c0.096-0.817,0.694-1.396,0.881-2.05C57.655,30.614,57.386,30.565,57.008,30.608z M18.504,36.384
		c-0.211-0.241-0.375-0.429-0.521-0.595c-0.323,0-0.608,0-0.895,0c-0.457,0.034-0.644,0.479-1.016,0.668
		c-0.539,0.273-0.945,0.817-0.781,1.445c0.138,0.53,0.229,1.138,0.698,1.525c0.396,0,0.781,0,1.086,0
		c0.44-0.271,0.601-0.661,0.775-1.032c0.174-0.37,0.333-0.746,0.652-1.002C18.504,37.051,18.504,36.727,18.504,36.384z
		 M51.32,29.073c0.164,0.306,0.344,0.654,0.627,0.971c0.391,0.437,0.752,0.925,0.267,1.556c-0.07,0.091-0.085,0.348,0.082,0.503
		c0.741,0.088,1.305-0.3,1.831-0.739c0.479-0.4,0.491-0.964,0.438-1.532c-0.415-0.786-1.326-1.323-2.219-2
		C51.763,28.023,51.414,28.401,51.32,29.073z M25.859,55.994c0.345,0.164,0.683,0.439,1.065,0.298
		c0.646-0.24,1.343-0.232,1.976-0.448c0.36-0.123,0.753-0.216,1.091-0.512c0.69-0.604,1.497-1.072,2.229-1.632
		c0.458-0.349,1.044-0.514,1.41-0.976c-0.037-0.188,0.074-0.383-0.138-0.544c-0.747,0.184-1.167,0.823-1.523,1.146
		c-1.129,0.479-1.944,1.094-2.907,1.396c-0.964,0.302-1.902,0.693-2.946,0.756C26.055,55.627,25.82,55.673,25.859,55.994z
		 M20.012,45.994c0.008,0.165-0.051,0.419,0.036,0.487c0.509,0.4,0.678,1.032,1.003,1.536c0.336,0.52,0.722,0.636,1.101,0.723
		c0.283-0.221,0.502-0.393,0.539-0.421c0.338-0.706-0.129-1.116-0.083-1.605C21.859,45.957,21.614,45.887,20.012,45.994z
		 M29.532,33.736c0.422,0.529,1.01,0.772,1.664,0.735c0.592-0.034,1.193-0.176,1.541-0.762c-0.121-0.152-0.274-0.069-0.407-0.083
		c-0.577-0.064-1.157,0.098-1.741-0.188C30.3,33.296,29.806,33.269,29.532,33.736z M17.404,44.191
		c0.121-0.762-0.23-1.273-0.703-1.672c-0.359,0-0.671,0-0.983,0c0,0.28,0,0.52,0,0.743C16.205,43.714,16.594,44.288,17.404,44.191z
		 M18.841,33.411c0.175-0.261,0.484-0.366,0.536-0.664c-0.219-0.404-0.386-0.823-0.784-1.061c-0.146,0-0.286,0-0.392,0
		c-0.356,0.449-0.419,0.936-0.332,1.361C18.117,33.496,18.459,33.396,18.841,33.411z M20.124,38.592
		c-0.262-0.053-0.364,0.17-0.527,0.31c-0.124,0.626,0.407,1.166,0.195,1.753c0.201,0.148,0.27,0.354,0.493,0.313
		c0.217-0.296,0.554-0.637,0.355-0.978C20.379,39.542,20.663,38.913,20.124,38.592z M29.698,28.279
		c0.583-0.128,1.095-0.124,1.329-0.706c0.018-0.044-0.045-0.121-0.074-0.192c-0.238,0-0.479,0-0.69,0
		C29.977,27.591,29.922,27.9,29.698,28.279z M53.297,26.724c0.551-0.077,0.551-0.077,0.873-0.53
		c-0.13-0.094-0.269-0.192-0.386-0.277c-0.07,0.146-0.315,0.111-0.487,0.233C53.297,26.307,53.297,26.472,53.297,26.724z
		 M26.477,36.261c-0.406-0.057-0.805-0.178-1.05,0.349c0.371,0,0.705,0,1.05,0C26.477,36.476,26.477,36.38,26.477,36.261z"/>
	
	
	
	
	
	
	
	
	
	
	
	
	
	
	
	
	
</g>
</svg>
