<?xml version="1.0" encoding="iso-8859-1"?>
<!-- Generator: Adobe Illustrator 16.0.0, SVG Export Plug-In . SVG Version: 6.00 Build 0)  -->
<!DOCTYPE svg PUBLIC "-//W3C//DTD SVG 1.1//EN" "http://www.w3.org/Graphics/SVG/1.1/DTD/svg11.dtd">
<svg version="1.1" id="Layer_1" xmlns="http://www.w3.org/2000/svg" xmlns:xlink="http://www.w3.org/1999/xlink" x="0px" y="0px"
	 width="72.36px" height="72.18px" viewBox="0 0 72.36 72.18" style="enable-background:new 0 0 72.36 72.18;" xml:space="preserve"
	>
<g>
	<path style="fill-rule:evenodd;clip-rule:evenodd;fill:none;" d="M-6.984,79.631c0-28.871,0-57.743,0-86.615
		c28.8,0,57.6,0,86.399,0c0,28.872,0,57.744,0,86.615C50.616,79.631,21.816,79.631-6.984,79.631z M55.053,53.392
		c-0.208-1.444,0.211-2.913-0.255-4.342c-0.042-0.128-0.047-0.309,0.013-0.422c0.387-0.729,0.39-1.516,0.43-2.313
		c0.028-0.568,0.214-1.13,0.325-1.694c0.133-0.674,0.415-1.328,0.303-2.034c-0.06-0.367-0.337-0.689-0.209-1.035
		c-0.203-0.223-0.371-0.406-0.614-0.672c0.035,0.448-0.346,0.197-0.437,0.405c-0.443,0.746-0.527,1.56-0.466,2.302
		c-0.243,0.468-0.444,0.853-0.688,1.318c0.279,1.168-0.232,2.368-0.188,3.61c0.05,1.366,0.013,2.735,0.009,4.104
		c0,0.063-0.042,0.125-0.071,0.208c-0.234,0-0.476,0-0.55,0c-1.306-0.741-1.847-2.02-2.861-2.919
		c0.186-1.072-0.038-2.153-0.215-3.222c-0.201-1.221-0.322-1.687,0.045-2.629c0.326-0.836,0.197-1.678,0.161-2.507
		c-0.014-0.311-0.244-0.536,0-0.926c0.175-0.279,0.001-0.753,0.408-1.021c0.145-0.096,0.286-0.36,0.26-0.52
		c-0.089-0.551,0.229-1.004,0.282-1.503c0.317-0.379,0.768-0.64,0.926-1.172c0.969,0.27,1.547-0.563,2.291-0.856
		c0.628,0.432,1.216,0.25,1.798-0.006c0.111,0.119,0.209,0.224,0.253,0.271c0.302,0.71-0.259,1.519,0.368,2.088
		c0.435-0.199,0.804-0.392,1.033-0.815c0-0.244,0-0.526,0-0.817c0.929-0.791,1.688-1.728,2.422-2.656
		c0.506,0.084,0.874-0.382,1.33-0.191c0.381-0.385,0.735-0.742,1.085-1.096c0.174-0.04,0.365,0.074,0.519-0.085
		c0-0.167,0-0.336,0-0.491c-0.238-0.105-0.451-0.2-0.666-0.295c-0.116,0.075-0.229,0.148-0.377,0.244
		c-0.715-0.472-1.542-0.471-2.378-0.459c-1.234,0.017-1.238,0.009-2.213-0.647c-0.202-0.136-0.38-0.314-0.555-0.487
		c-1.041-1.031-1.933-2.171-2.794-3.364c-0.747-1.033-1.378-2.206-2.422-2.905c-0.166-0.759-0.225-0.833-0.802-1.265
		c-0.171-0.128-0.4-0.278-0.445-0.458c-0.203-0.817-0.877-1.31-1.348-1.916c-0.449-0.577-0.645-1.277-1.112-1.819
		c-0.493-0.572-0.42-1.335-0.729-2.03c-0.575-0.478-1-1.151-1.412-1.905c0-0.362,0-0.793,0-1.332
		c0.188-0.151,0.438-0.352,0.605-0.487c0.157-1.156-0.18-2.234,0.247-3.269c-0.363-0.212-0.047-0.787-0.546-0.988
		c-0.335,0-0.72,0-0.965,0c-0.286,0.223-0.483,0.376-0.652,0.508c0.099,0.816-0.369,1.288-0.858,1.739c0,0.516,0,1.019,0,1.623
		c-0.819,0.803-1.354,2.104-2.917,1.947c-0.279,0.28-0.56,0.56-0.878,0.878c-0.275,0-0.589,0-0.879,0
		c-0.475,0.555-0.98,0.959-1.718,0.833c-0.599,0.87-1.446,0.971-2.353,0.854c-0.55,0.735-1.298,0.924-2.23,0.879
		c-0.163,0.202-0.363,0.452-0.439,0.547c-0.899,0.348-1.76,0.262-2.293,0.97c-0.725,0-1.445,0-2.318,0
		c-0.221,0.228-0.518,0.532-0.835,0.858c-0.901-0.106-1.6,0.25-3.213,1.106c-0.532,0-1.103,0-1.738,0
		c-0.048,0.445-0.548,0.341-0.791,0.665c-1.218-0.241-2.421,0.218-3.593,0.197c-0.434,0.227-0.819,0.428-1.207,0.63
		c-1.114,0-2.229-0.002-3.346,0.001c-0.764,0.002-1.54-0.083-2.385,0.373c-0.235,0.771-0.897,1.529-0.761,2.579
		c0.345,0.146,0.467,0.521,0.582,0.814c0.17,0.432,0.475,0.792,0.806,0.934c0.54,0.233,0.995,0.576,1.461,0.892
		c0.507,0.344,1.023,0.663,1.587,0.872c0.4,0.148,0.619,0.561,1.033,0.633c0.908,0.158,1.699,0.591,2.24,0.862
		c0.633,0.737,1.027,1.324,1.349,1.954c-0.244,0.443-0.349,0.89-0.07,1.363c0.049,0.083,0.077,0.199,0.065,0.294
		c-0.135,1.1,0.377,2.15,0.211,3.222c0.278,0.238,0.417,0.551,0.425,0.83c0.033,1.197,0.339,2.371,0.25,3.583
		c-0.042,0.575-0.172,1.191,0.187,1.752c0.082,0.128,0.088,0.439-0.001,0.518c-0.344,0.301-0.208,0.676-0.191,1.005
		c0.062,1.267-0.114,2.529,0.161,3.808c0.144,0.67,0.155,1.433-0.13,2.186c-0.213,0.563-0.042,1.27-0.042,1.768
		c-0.263,0.516-0.46,0.903-0.655,1.285c0.295,0.373,0.231,0.796,0.21,1.216c-0.473,0.413-0.695,1.008-1.028,1.468
		c0,0.416,0,0.803,0,1.193c0.259,0.153,0.492,0.291,0.764,0.452c0.524,0,1.1,0,1.648,0c0.554-0.439,1.308-0.407,1.809-0.88
		c2.552,0.155,5.064-0.368,7.598-0.202c0.134,0.009,0.313,0.011,0.399-0.065c0.501-0.441,1.096-0.37,1.682-0.355
		c0.213,0.248,0.53,0.396,0.8,0.405c1.259,0.043,2.524,0.085,3.777-0.012c0.53-0.041,1.035-0.354,1.551,0.031
		c1.199-0.014,2.4,0.473,3.573,0.182c0.922-0.229,1.82-0.163,2.727-0.167c0.727-0.002,1.479-0.19,2.185,0.189
		c0.134,0.072,0.361,0.035,0.521-0.021c0.718-0.248,1.465-0.326,2.21-0.392c0.5-0.044,1.017,0.052,1.509-0.024
		c0.553-0.086,1.004,0.295,1.533,0.232c0.632-0.075,1.172,0.11,1.585,0.601c0.21,0.25,0.526,0.304,0.77,0.438
		c0.588,0.244,1.089-0.171,1.676-0.184c0.15-0.163,0.32-0.348,0.493-0.536c0-0.438,0-0.896,0-1.431
		c-0.628-0.146-1.052-0.553-1.034-1.207C55.688,54.389,55.274,53.929,55.053,53.392z M55.761,38.167
		c-0.773,0.665-0.483,1.526-0.538,2.279c0.174,0.151,0.276,0.241,0.38,0.331c0.305-0.204,0.669-0.244,0.885-0.534
		c0.102-0.726,0.021-1.424-0.288-2.076C56.031,38.167,55.89,38.167,55.761,38.167z M26.894,17.745
		c0.263,0.148,0.454,0.148,0.647,0.039c0.027-0.196,0.117-0.401-0.078-0.582C27.135,17.197,27.008,17.419,26.894,17.745z"/>
	<path style="fill-rule:evenodd;clip-rule:evenodd;" d="M55.053,53.392c0.221,0.537,0.635,0.997,0.618,1.674
		c-0.018,0.654,0.406,1.062,1.034,1.207c0,0.535,0,0.993,0,1.431c-0.173,0.188-0.343,0.373-0.493,0.536
		c-0.587,0.013-1.088,0.428-1.676,0.184c-0.243-0.135-0.56-0.188-0.77-0.438c-0.413-0.49-0.953-0.676-1.585-0.601
		c-0.529,0.063-0.98-0.318-1.533-0.232c-0.492,0.076-1.009-0.02-1.509,0.024c-0.745,0.065-1.492,0.144-2.21,0.392
		c-0.16,0.056-0.388,0.093-0.521,0.021c-0.706-0.38-1.458-0.191-2.185-0.189c-0.906,0.004-1.805-0.062-2.727,0.167
		c-1.173,0.291-2.374-0.195-3.573-0.182c-0.517-0.386-1.021-0.072-1.551-0.031c-1.252,0.097-2.518,0.055-3.777,0.012
		c-0.271-0.009-0.587-0.157-0.8-0.405c-0.586-0.015-1.181-0.086-1.682,0.355c-0.086,0.076-0.266,0.074-0.399,0.065
		c-2.533-0.166-5.046,0.357-7.598,0.202c-0.501,0.473-1.255,0.44-1.809,0.88c-0.548,0-1.124,0-1.648,0
		c-0.272-0.161-0.505-0.299-0.764-0.452c0-0.391,0-0.777,0-1.193c0.333-0.46,0.556-1.055,1.028-1.468
		c0.021-0.42,0.085-0.843-0.21-1.216c0.194-0.382,0.392-0.77,0.655-1.285c0-0.498-0.171-1.205,0.042-1.768
		c0.285-0.753,0.274-1.516,0.13-2.186c-0.274-1.278-0.099-2.541-0.161-3.808c-0.016-0.329-0.153-0.704,0.191-1.005
		c0.089-0.078,0.083-0.39,0.001-0.518c-0.359-0.561-0.229-1.177-0.187-1.752c0.089-1.212-0.217-2.386-0.25-3.583
		c-0.008-0.279-0.147-0.592-0.425-0.83c0.166-1.072-0.347-2.123-0.211-3.222c0.012-0.095-0.017-0.211-0.065-0.294
		c-0.279-0.473-0.174-0.92,0.07-1.363c-0.322-0.63-0.716-1.216-1.349-1.954c-0.541-0.271-1.333-0.705-2.24-0.862
		c-0.414-0.072-0.633-0.484-1.033-0.633c-0.564-0.209-1.08-0.528-1.587-0.872c-0.466-0.316-0.921-0.659-1.461-0.892
		c-0.331-0.143-0.635-0.502-0.806-0.934c-0.115-0.292-0.237-0.668-0.582-0.814c-0.137-1.05,0.525-1.809,0.761-2.579
		c0.846-0.456,1.622-0.371,2.385-0.373c1.116-0.003,2.232-0.001,3.346-0.001c0.388-0.202,0.773-0.403,1.207-0.63
		c1.171,0.021,2.375-0.438,3.593-0.197c0.243-0.323,0.743-0.22,0.791-0.665c0.635,0,1.206,0,1.738,0
		c1.613-0.856,2.312-1.212,3.213-1.106c0.317-0.326,0.614-0.631,0.835-0.858c0.873,0,1.593,0,2.318,0
		c0.533-0.708,1.394-0.622,2.293-0.97c0.076-0.095,0.277-0.345,0.439-0.547c0.932,0.044,1.68-0.145,2.23-0.879
		c0.906,0.117,1.754,0.016,2.353-0.854c0.737,0.126,1.243-0.278,1.718-0.833c0.29,0,0.604,0,0.879,0
		c0.318-0.318,0.599-0.598,0.878-0.878c1.563,0.158,2.098-1.144,2.917-1.947c0-0.604,0-1.107,0-1.623
		c0.489-0.451,0.957-0.923,0.858-1.739c0.169-0.132,0.366-0.285,0.652-0.508c0.245,0,0.63,0,0.965,0
		c0.499,0.201,0.183,0.776,0.546,0.988c-0.427,1.035-0.09,2.113-0.247,3.269c-0.168,0.135-0.418,0.336-0.605,0.487
		c0,0.538,0,0.969,0,1.332c0.412,0.753,0.837,1.427,1.412,1.905c0.309,0.695,0.235,1.458,0.729,2.03
		c0.468,0.542,0.663,1.242,1.112,1.819c0.471,0.606,1.145,1.099,1.348,1.916c0.045,0.18,0.274,0.33,0.445,0.458
		c0.577,0.433,0.636,0.506,0.802,1.265c1.044,0.699,1.675,1.872,2.422,2.905c0.861,1.192,1.753,2.333,2.794,3.364
		c0.175,0.173,0.353,0.351,0.555,0.487c0.975,0.657,0.979,0.665,2.213,0.647c0.836-0.012,1.663-0.013,2.378,0.459
		c0.147-0.096,0.261-0.169,0.377-0.244c0.215,0.095,0.428,0.19,0.666,0.295c0,0.155,0,0.325,0,0.491
		c-0.153,0.159-0.345,0.045-0.519,0.085c-0.35,0.354-0.704,0.711-1.085,1.096c-0.456-0.191-0.824,0.275-1.33,0.191
		c-0.734,0.928-1.493,1.865-2.422,2.656c0,0.291,0,0.574,0,0.817c-0.229,0.424-0.599,0.616-1.033,0.815
		c-0.627-0.569-0.066-1.378-0.368-2.088c-0.044-0.047-0.142-0.152-0.253-0.271c-0.582,0.256-1.17,0.438-1.798,0.006
		c-0.744,0.294-1.322,1.126-2.291,0.856c-0.158,0.532-0.608,0.793-0.926,1.172c-0.054,0.499-0.371,0.952-0.282,1.503
		c0.026,0.159-0.115,0.424-0.26,0.52c-0.407,0.269-0.233,0.742-0.408,1.021c-0.244,0.39-0.014,0.615,0,0.926
		c0.036,0.829,0.165,1.671-0.161,2.507c-0.367,0.942-0.246,1.408-0.045,2.629c0.177,1.068,0.4,2.149,0.215,3.222
		c1.015,0.899,1.556,2.178,2.861,2.919c0.074,0,0.315,0,0.55,0c0.029-0.083,0.071-0.146,0.071-0.208
		c0.004-1.368,0.041-2.737-0.009-4.104c-0.045-1.242,0.467-2.442,0.188-3.61c0.243-0.466,0.444-0.851,0.688-1.318
		c-0.062-0.742,0.022-1.556,0.466-2.302c0.091-0.208,0.472,0.043,0.437-0.405c0.243,0.266,0.411,0.449,0.614,0.672
		c-0.128,0.346,0.149,0.668,0.209,1.035c0.112,0.706-0.17,1.36-0.303,2.034c-0.111,0.564-0.297,1.126-0.325,1.694
		c-0.04,0.797-0.043,1.583-0.43,2.313c-0.06,0.113-0.055,0.294-0.013,0.422C55.264,50.479,54.845,51.947,55.053,53.392z
		 M30.276,50.688c-0.575,0.634-1.173-0.238-1.768,0.041c-0.039,0.275-0.217,0.501-0.447,0.652c-1.007,0.659-1.934,1.392-2.49,2.498
		c-0.065,0.128-0.137,0.253-0.166,0.307c-0.595-0.123-0.947,0.073-1.274,0.303c0,0.224,0,0.437,0,0.622
		c0.165,0.338,0.558,0.291,0.76,0.525c0.341-0.348,0.765-0.42,1.233-0.418c2.699,0.01,5.398,0.044,8.096-0.006
		c2.705-0.051,5.42,0.241,8.115-0.207c0.855-0.143,1.653,0.269,2.502,0.226c0.79-0.039,1.583-0.022,2.375-0.004
		c0.772,0.019,1.501-0.345,2.287-0.229c0.231,0.033,0.494,0.082,0.71-0.052c0.128-0.141,0.335-0.242,0.257-0.447
		c-0.202-0.528-0.252-1.119-0.659-1.563c-0.255-0.279-0.509-0.549-0.719-0.882c-0.219-0.345-0.494-0.833-1.084-0.719
		c-0.533-0.464-1.171-0.083-1.859-0.27c-0.059-0.074-0.19-0.242-0.34-0.434c-0.243,0.157-0.524-0.081-0.727,0.16
		c-0.142,0.17-0.376,0.17-0.486,0.099c-0.596-0.387-1.245-0.183-1.861-0.186c-0.602-0.002-1.198-0.039-1.707-0.321
		c-0.328-0.182-0.689-0.205-0.908-0.102c-0.655,0.312-1.32,0.121-1.975,0.19c-0.407,0.042-0.831-0.114-1.22,0.197
		c-0.125,0.101-0.495,0.085-0.607-0.025c-0.289-0.284-0.607-0.149-0.91-0.168c-1.272-0.08-2.517,0.375-3.796,0.212
		c-0.143-0.019-0.254,0.045-0.385,0.114C30.9,50.974,30.557,51.003,30.276,50.688z M26.48,26.711
		c0.796-0.487,1.458-0.892,2.135-1.306c0.872,0.101,1.729-0.053,2.433-0.578c0.51-0.38,1.02-0.546,1.61-0.484
		c0.318-0.371,0.651-0.675,1.206-0.87c0.224,0,0.583,0,0.942,0c0.53-0.094,0.741-0.613,1.127-0.875
		c0.461,0.068,0.828-0.103,1.174-0.342c0.955-0.662,1.966-1.182,3.196-1.196c0.345-0.651,0.332-1.383,0.52-2.061
		c0.193-0.697,0.563-1.346,0.851-2.007c-0.236-0.29-0.422-0.538-0.792-0.71c-1.029,0.573-2.081,1.158-3.21,1.786
		c-0.503-0.117-1.051,0.14-1.618,0.273c-0.407,0.407-0.813,0.813-1.256,1.256c-0.502-0.165-0.964,0.201-1.581,0.21
		c-0.155,0.188-0.358,0.436-0.521,0.634c-0.888-0.035-1.643,0.398-2.461,0.202c-0.442,0.735-1.136,1.072-1.87,1.255
		c-0.455,0.113-0.954,0.107-1.396,0.285c-0.744,0.3-1.55,0.212-2.388,0.528c-0.328,0.379-0.888,0.553-1.481,0.534
		c-0.882-0.03-1.7,0.12-2.465,0.572c-0.255,0.151-0.607,0.276-0.843,0.27c-0.851-0.025-1.637,0.453-2.512,0.217
		c-0.279,0.76-1.317,0.406-1.64,1.188c0.71,0.557,1.15,1.368,1.988,1.747c0.089,0.717,0.791,0.885,1.238,1.153
		c0.449,0.27,1.1,0.437,1.75,0.209c0.38-0.243,0.809-0.516,1.268-0.809c0.14,0,0.318,0,0.497,0c0.216,0,0.432,0.007,0.647-0.001
		c0.446-0.017,1.189-0.264,1.277-0.527c0.168-0.506,0.537-0.546,0.954-0.551C25.687,26.708,26.119,26.711,26.48,26.711z
		 M46.567,20.761c0.143-0.38,0.001-0.826-0.221-1.047c-0.769-0.767-1.105-1.877-2.047-2.475c-0.637,0.521-1.124,1.136-0.964,1.928
		c-0.49,0.995-0.67,1.952-0.917,2.944c0.19,0.141,0.362,0.268,0.438,0.324c0.092,1.249,1.133,2.111,0.914,3.256
		c0.27,0.432,0.708,0.631,0.888,1.101c0.165,0.433,0.638,0.671,0.972,0.964c0.603,0.527,0.826,1.278,1.333,1.85
		c0.257,0.29,0.352,0.73,0.263,1.117c0.381,0.299,0.592,0.682,1.034,0.818c0.183,0.056,0.346,0.267,0.457,0.446
		c0.563,0.91,1.188,1.755,2.211,2.318c0.398-0.254,0.821-0.588,1.363-0.447c0.196-0.197,0.356-0.401,0.559-0.546
		c0.213-0.153,0.468-0.25,0.699-0.369c0.106,0.098,0.174,0.21,0.264,0.233c0.459,0.115,0.83-0.341,1.311-0.206
		c0.298,0.084,0.44-0.314,0.734-0.3c0.002-0.206,0.113-0.489-0.127-0.574c-0.612-0.217-0.763-0.854-1.201-1.225
		c-0.457-0.386-0.881-0.827-1.131-1.366c-0.188-0.402-0.519-0.648-0.761-0.971c-0.007-0.149,0.043-0.343-0.03-0.424
		c-0.313-0.34-0.619-0.727-1.013-0.939c-0.283-0.152-0.369-0.328-0.508-0.575c-0.354-0.627-0.767-1.215-1.27-1.751
		c-0.688-0.733-1.36-1.501-1.896-2.345C47.526,21.878,47.127,21.288,46.567,20.761z M21.864,53.288
		c0.145-0.064,0.314,0.048,0.49-0.071c1.066-0.722,2.172-1.388,3.202-2.156c0.621-0.464,0.966-1.155,0.94-1.975
		c-0.378-0.306-0.203-0.728-0.208-1.098c-0.02-1.224-0.007-2.446-0.007-3.55c-0.229-0.647-0.754-1.001-0.865-1.598
		c0.313-0.276,0.256-0.657,0.205-0.987c-0.146-0.939-0.512-1.801-1.093-2.58c0.193-0.712-0.205-1.367-0.202-2.171
		c-0.186-0.149-0.436-0.35-0.649-0.522c0-0.648,0-1.22,0-1.78c-0.47-0.482-1.015-0.889-1.105-1.584
		c-0.357-0.028-0.576-0.376-0.925-0.236c-0.35-0.316-0.627-0.729-1.134-0.823c-0.173,0.229-0.536,0.177-0.692,0.498
		c0,0.345,0,0.73,0,1.084c0.589,0.589,0.821,1.293,0.839,2.064c0.023,0.971,0.005,1.942,0.006,2.914
		c0,0.214-0.081,0.511,0.028,0.628c0.359,0.387,0.019,0.871,0.208,1.214c0.245,0.442,0.178,0.88,0.192,1.325
		c0.015,0.463,0.003,0.926,0.003,1.426c-0.563,0.12-0.3,0.741-0.603,0.971c0.15,0.612,0.529,1.091,0.798,1.582
		c0.103,0.616,0.018,1.19,0.182,1.796c0.147,0.544,0.22,1.222-0.123,1.859c-0.157,0.292-0.083,0.79,0.086,1.222
		c0.248,0.631,0.035,1.339,0.106,2.013C21.78,52.841,21.677,53.135,21.864,53.288z M38.607,23.914
		c-0.198,0.036-0.452,0.024-0.736,0.13c-1.035,0.386-2.055,0.795-2.989,1.381c-0.448,0.281-1.018,0.122-1.469,0.531
		c0.122,0.278-0.191,0.354-0.348,0.552c-0.504-0.146-0.904,0.23-1.379,0.262c0.055,0.298-0.162,0.405-0.321,0.584
		c-0.513-0.132-0.953,0.34-1.495,0.223c-0.413-0.089-0.753,0.141-1.025,0.374c-0.394,0.337-0.861,0.438-1.316,0.47
		c-0.767,0.055-1.465,0.225-2.116,0.649c-0.147,0.096-0.291,0.313-0.548,0.236c-0.538-0.161-1.02,0.153-1.524,0.239
		c-0.424,0.072-1.003,0.169-0.941,0.996c1.108,0.804,2.285,1.659,3.451,2.505c0.552-0.443,1.093-0.829,1.66-0.892
		c0.543-0.06,0.956-0.332,1.431-0.489c0.185-0.061,0.359-0.157,0.557-0.219c0.766-0.242,1.632-0.311,2.066-1.058
		c0.528-0.033,1.006,0.115,1.395-0.223c0.699-0.607,1.644-0.739,2.396-1.27c0.43-0.304,0.879-0.622,1.367-0.852
		c0.37-0.174,0.746-0.331,1.164-0.24c0.443-1.145,0.563-2.356,1.463-3.284C39.072,24.294,38.855,24.117,38.607,23.914z
		 M40.349,25.091c-0.125,0.616,0.031,1.229-0.202,1.87c-0.163,0.447-0.306,1.049-0.216,1.505c0.137,0.698,0.055,1.406,0.207,2.07
		c0.113,0.495,0.195,1.017,0.574,1.498c0.459,0.583,0.808,1.306,1.104,2.011c0.241,0.575,0.605,1.057,1.088,1.366
		c0.474,0.303,0.827,0.733,1.252,1.039c0.777-0.102,1.352-0.527,1.997-0.908c0.386,0,0.812,0,1.049,0
		c0.325-0.233,0.528-0.378,0.819-0.587c-0.45-0.269-0.349-0.636-0.358-0.995c-0.793-0.772-1.472-1.662-2.095-2.577
		c-0.427-0.628-0.823-1.266-1.206-1.61c-0.807-2-1.922-3.521-3.063-5.008C40.958,24.788,40.612,24.675,40.349,25.091z
		 M45.041,47.523c-0.328-0.424-0.979-0.373-1.265-0.84c-0.275-0.449-0.58-0.863-0.971-1.155c-0.545-0.088-1.024-0.294-1.563-0.257
		c-0.436,0.03-0.905,0.144-1.321-0.187c-0.109-0.088-0.408-0.088-0.518-0.001c-0.484,0.387-1.045,0.068-1.533,0.217
		c-0.507,0.154-1.01,0.264-1.53,0.194c-0.404-0.054-0.801,0.035-1.082,0.244c-0.41,0.307-0.785,0.212-1.181,0.104
		c-0.662-0.182-1.266-0.071-1.603,0.521c-0.292,0.513-0.825,0.835-0.969,1.448c0.139,0.139,0.316,0.316,0.499,0.499
		c1.755,0,3.518,0.063,5.273-0.018c1.779-0.082,3.526,0.317,5.3,0.238c0.199-0.009,0.416,0.086,0.591,0.105
		c0.56,0.063,0.943,0.559,1.596,0.538c0.139-0.16,0.316-0.365,0.492-0.57C44.887,48.314,45.176,47.875,45.041,47.523z
		 M47.598,37.508c-1.091,0.647-1.091,0.647-2.1,0.661c-1.512,0.824-1.836,2.244-2.097,3.742c0.329,0.425,0.083,1.014,0.196,1.536
		c0.127,0.474,0.505,0.747,0.82,1.082c0,0.278,0,0.564,0,0.851c0.786,0.771,1.381,1.733,2.375,2.283
		c0.384,0.047,0.599-0.14,0.65-0.506c0.033-0.237-0.063-0.508,0.208-0.67c-0.282-0.199-0.184-0.498-0.205-0.769
		c-0.114-1.382,0.358-2.732,0.221-4.116c-0.024-0.248-0.072-0.532,0.019-0.746c0.324-0.768,0.362-1.638,0.9-2.318
		c-0.129-0.287-0.237-0.53-0.372-0.831C47.946,37.926,47.917,37.518,47.598,37.508z M36.123,30.821
		c-0.892,0.339-1.596,0.554-2.25,0.873c-0.467,0.228-1.074,0.069-1.425,0.438c-0.443,0.465-1.101,0.554-1.54,1.024
		c-0.115,0.123-0.455,0.227-0.737,0.277c-0.617,0.109-1.278,0.204-1.73,0.731c-0.088,0.526,0.242,0.808,0.645,0.96
		c0.734,0.276,1.467,0.566,2.295,0.455c0.492-0.066,1-0.012,1.589-0.012c0.091-0.129,0.214-0.304,0.378-0.537
		c0.498,0.244,0.983,0.446,1.488,0.281c0.306-0.201,0.421-0.601,0.847-0.63c0.108-0.008,0.272-0.176,0.294-0.293
		c0.145-0.753,0.767-1.13,1.242-1.675c0.305,0,0.616,0,1.078,0c-0.566-0.653-0.917-1.3-1.282-1.892
		C36.596,30.821,36.239,30.821,36.123,30.821z M28.456,47.338c0.188,0.32,0.449,0.371,0.605,0.341
		c0.489-0.489,0.892-0.892,1.295-1.294c0.138-0.545-0.154-1.162,0.231-1.72c0.076-0.109-0.053-0.32-0.095-0.482
		c-0.29-1.106-0.821-2.16-0.802-3.322c-0.108-0.487-0.504-0.746-0.818-1.083c0-0.242,0.002-0.493,0-0.743
		c-0.005-0.472-0.289-1.234-0.602-1.581c-0.143-0.157-0.239-0.301-0.283-0.535c-0.06-0.318-0.189-0.653-0.525-0.914
		c-0.328,0.003-0.73-0.116-0.965,0.36c0,0.299,0.002,0.623,0,0.946c-0.006,0.711,0.153,1.337,0.677,1.884
		c0.232,0.242,0.403,0.675,0.381,1.006c-0.084,1.243,0.398,2.442,0.202,3.758c0.223,0.188,0.467,0.394,0.701,0.591
		C28.456,45.513,28.456,46.442,28.456,47.338z M30.61,39.132c0.289,0.439,0.558,0.867,0.844,1.282
		c0.319,0.464,0.468,0.972,0.446,1.555c0.239,0.127,0.341,0.438,0.664,0.524c0.206-0.211,0.417-0.428,0.663-0.679
		c-0.223-0.396,0.074-0.735,0.273-1.013c0.334-0.468,0.371-0.946,0.305-1.443c-0.182-0.586-0.63-0.802-1.155-1.027
		c-0.419-0.181-0.889-0.251-1.28-0.555c-0.28-0.218-0.59,0.004-0.76,0.292C30.61,38.441,30.61,38.796,30.61,39.132z M39.054,37.016
		c0.832,0.408,1.586,0.399,2.305-0.013c-0.185-0.501-0.645-0.859-0.702-1.423c-0.69-0.556-1.011-1.367-1.458-2.093
		c-0.176-0.287-0.46-0.439-0.853-0.177C38.479,34.542,38.539,35.805,39.054,37.016z M37.953,43.26
		c0.249,0.279,0.584,0.348,0.879,0.523c0.277-0.223,0.731-0.216,0.824-0.57c-0.381-0.381-0.727-0.728-1.196-1.197
		c-0.29-0.069-0.833,0.214-1.322-0.168c-0.128-0.1-0.458-0.074-0.614,0.023c-0.458,0.285-1.02,0.425-1.349,0.899
		c-0.035,0.051-0.026,0.131-0.044,0.231c0.109,0.105,0.233,0.225,0.364,0.351c0.279,0,0.564,0,0.759,0
		c0.34,0.175,0.606,0.312,0.905,0.465C37.342,43.523,37.694,43.542,37.953,43.26z M40.658,42.284
		c0.217-0.134,0.284,0.112,0.406,0.171c0.191-0.177,0.376-0.347,0.575-0.529c-0.161-0.561,0.224-0.968,0.43-1.444
		c-0.299-0.313-0.351-0.814-0.973-1.048c-0.174,0.175-0.396,0.398-0.445,0.449c-0.479,0.559-0.554-0.194-0.94,0.054
		c-0.174,0.424,0,0.877,0.269,1.191C40.279,41.479,40.388,41.907,40.658,42.284z"/>
	<path style="fill-rule:evenodd;clip-rule:evenodd;" d="M55.761,38.167c0.129,0,0.27,0,0.438,0c0.309,0.652,0.39,1.351,0.288,2.076
		c-0.216,0.29-0.58,0.33-0.885,0.534c-0.104-0.09-0.206-0.18-0.38-0.331C55.278,39.693,54.988,38.832,55.761,38.167z"/>
	<path style="fill-rule:evenodd;clip-rule:evenodd;fill:none;" d="M30.276,50.688c0.281,0.315,0.625,0.286,0.947,0.115
		c0.131-0.069,0.243-0.133,0.385-0.114c1.279,0.163,2.524-0.292,3.796-0.212c0.302,0.019,0.621-0.116,0.91,0.168
		c0.112,0.11,0.482,0.126,0.607,0.025c0.389-0.312,0.813-0.155,1.22-0.197c0.654-0.069,1.319,0.121,1.975-0.19
		c0.219-0.104,0.58-0.08,0.908,0.102c0.509,0.282,1.105,0.319,1.707,0.321c0.616,0.003,1.266-0.201,1.861,0.186
		c0.11,0.071,0.345,0.071,0.486-0.099c0.202-0.241,0.483-0.003,0.727-0.16c0.149,0.191,0.281,0.359,0.34,0.434
		c0.688,0.187,1.326-0.194,1.859,0.27c0.59-0.114,0.865,0.374,1.084,0.719c0.21,0.333,0.464,0.603,0.719,0.882
		c0.407,0.444,0.457,1.035,0.659,1.563c0.078,0.205-0.129,0.307-0.257,0.447c-0.216,0.134-0.479,0.085-0.71,0.052
		c-0.786-0.115-1.515,0.248-2.287,0.229c-0.792-0.019-1.585-0.035-2.375,0.004c-0.849,0.043-1.646-0.368-2.502-0.226
		c-2.694,0.448-5.41,0.156-8.115,0.207c-2.698,0.05-5.397,0.016-8.096,0.006c-0.469-0.002-0.892,0.07-1.233,0.418
		c-0.202-0.234-0.595-0.188-0.76-0.525c0-0.186,0-0.398,0-0.622c0.327-0.229,0.679-0.426,1.274-0.303
		c0.029-0.054,0.101-0.179,0.166-0.307c0.556-1.106,1.483-1.839,2.49-2.498c0.23-0.151,0.408-0.377,0.447-0.652
		C29.103,50.45,29.701,51.322,30.276,50.688z"/>
	<path style="fill-rule:evenodd;clip-rule:evenodd;fill:none;" d="M26.48,26.711c-0.362,0-0.793-0.004-1.225,0.001
		c-0.417,0.005-0.786,0.044-0.954,0.551c-0.087,0.263-0.831,0.51-1.277,0.527c-0.215,0.008-0.431,0.001-0.647,0.001
		c-0.178,0-0.357,0-0.497,0c-0.459,0.293-0.887,0.566-1.268,0.809c-0.65,0.228-1.301,0.06-1.75-0.209
		c-0.447-0.269-1.149-0.437-1.238-1.153c-0.838-0.378-1.278-1.189-1.988-1.747c0.323-0.782,1.361-0.428,1.64-1.188
		c0.875,0.236,1.662-0.242,2.512-0.217c0.236,0.006,0.588-0.119,0.843-0.27c0.766-0.452,1.583-0.602,2.465-0.572
		c0.593,0.02,1.153-0.155,1.481-0.534c0.838-0.315,1.644-0.228,2.388-0.528c0.442-0.178,0.941-0.171,1.396-0.285
		c0.734-0.183,1.428-0.52,1.87-1.255c0.819,0.196,1.573-0.236,2.461-0.202c0.163-0.198,0.366-0.446,0.521-0.634
		c0.617-0.009,1.079-0.375,1.581-0.21c0.443-0.443,0.85-0.85,1.256-1.256c0.567-0.133,1.115-0.39,1.618-0.273
		c1.129-0.628,2.181-1.213,3.21-1.786c0.37,0.172,0.556,0.42,0.792,0.71c-0.288,0.661-0.657,1.31-0.851,2.007
		c-0.188,0.677-0.175,1.409-0.52,2.061c-1.23,0.014-2.241,0.535-3.196,1.196c-0.346,0.239-0.712,0.41-1.174,0.342
		c-0.386,0.261-0.597,0.78-1.127,0.875c-0.359,0-0.718,0-0.942,0c-0.555,0.195-0.888,0.499-1.206,0.87
		c-0.591-0.062-1.101,0.104-1.61,0.484c-0.705,0.525-1.562,0.679-2.433,0.578C27.938,25.819,27.276,26.225,26.48,26.711z"/>
	<path style="fill-rule:evenodd;clip-rule:evenodd;fill:none;" d="M46.567,20.761c0.561,0.527,0.959,1.118,1.354,1.738
		c0.536,0.844,1.209,1.612,1.896,2.345c0.503,0.536,0.916,1.124,1.27,1.751c0.139,0.248,0.225,0.423,0.508,0.575
		c0.394,0.212,0.7,0.599,1.013,0.939c0.073,0.081,0.023,0.274,0.03,0.424c0.242,0.323,0.573,0.569,0.761,0.971
		c0.25,0.539,0.674,0.98,1.131,1.366c0.438,0.37,0.589,1.007,1.201,1.225c0.24,0.085,0.129,0.369,0.127,0.574
		c-0.294-0.014-0.437,0.384-0.734,0.3c-0.48-0.135-0.852,0.321-1.311,0.206c-0.09-0.022-0.157-0.135-0.264-0.233
		c-0.231,0.119-0.486,0.216-0.699,0.369c-0.202,0.145-0.362,0.349-0.559,0.546c-0.542-0.142-0.965,0.193-1.363,0.447
		c-1.022-0.563-1.647-1.409-2.211-2.318c-0.111-0.179-0.274-0.39-0.457-0.446c-0.442-0.136-0.653-0.519-1.034-0.818
		c0.089-0.386-0.006-0.827-0.263-1.117c-0.507-0.572-0.73-1.323-1.333-1.85c-0.334-0.292-0.807-0.531-0.972-0.964
		c-0.18-0.47-0.618-0.668-0.888-1.101c0.219-1.145-0.822-2.007-0.914-3.256c-0.075-0.056-0.247-0.183-0.438-0.324
		c0.247-0.993,0.427-1.949,0.917-2.944c-0.16-0.792,0.327-1.407,0.964-1.928c0.941,0.598,1.278,1.708,2.047,2.475
		C46.568,19.935,46.709,20.381,46.567,20.761z"/>
	<path style="fill-rule:evenodd;clip-rule:evenodd;fill:none;" d="M21.864,53.288c-0.187-0.153-0.084-0.447-0.32-0.536
		c-0.071-0.674,0.142-1.382-0.106-2.013c-0.17-0.432-0.243-0.93-0.086-1.222c0.342-0.638,0.27-1.315,0.123-1.859
		c-0.164-0.605-0.079-1.18-0.182-1.796c-0.269-0.491-0.648-0.97-0.798-1.582c0.302-0.229,0.039-0.851,0.603-0.971
		c0-0.5,0.011-0.963-0.003-1.426c-0.014-0.445,0.053-0.883-0.192-1.325c-0.19-0.343,0.151-0.827-0.208-1.214
		c-0.109-0.117-0.027-0.414-0.028-0.628c-0.001-0.972,0.017-1.943-0.006-2.914c-0.019-0.771-0.25-1.475-0.839-2.064
		c0-0.354,0-0.739,0-1.084c0.156-0.321,0.519-0.27,0.692-0.498c0.507,0.094,0.784,0.507,1.134,0.823
		c0.35-0.14,0.568,0.208,0.925,0.236c0.091,0.695,0.636,1.102,1.105,1.584c0,0.56,0,1.132,0,1.78
		c0.214,0.172,0.464,0.373,0.649,0.522c-0.003,0.804,0.396,1.459,0.202,2.171c0.581,0.779,0.947,1.641,1.093,2.58
		c0.051,0.33,0.108,0.711-0.205,0.987c0.11,0.597,0.636,0.95,0.865,1.598c0,1.104-0.012,2.326,0.007,3.55
		c0.006,0.37-0.17,0.792,0.208,1.098c0.026,0.819-0.319,1.511-0.94,1.975c-1.03,0.769-2.136,1.435-3.202,2.156
		C22.178,53.336,22.009,53.224,21.864,53.288z"/>
	<path style="fill-rule:evenodd;clip-rule:evenodd;fill:none;" d="M38.607,23.914c0.248,0.203,0.465,0.38,0.741,0.607
		c-0.899,0.927-1.02,2.139-1.463,3.284c-0.418-0.091-0.794,0.066-1.164,0.24c-0.488,0.229-0.937,0.548-1.367,0.852
		c-0.752,0.531-1.698,0.663-2.396,1.27c-0.389,0.338-0.867,0.189-1.395,0.223c-0.435,0.747-1.3,0.816-2.066,1.058
		c-0.198,0.063-0.372,0.158-0.557,0.219c-0.475,0.157-0.888,0.429-1.431,0.489c-0.566,0.063-1.107,0.449-1.66,0.892
		c-1.166-0.846-2.343-1.701-3.451-2.505c-0.062-0.827,0.517-0.924,0.941-0.996c0.505-0.086,0.987-0.4,1.524-0.239
		c0.257,0.077,0.401-0.14,0.548-0.236c0.651-0.425,1.349-0.595,2.116-0.649c0.456-0.033,0.923-0.133,1.316-0.47
		c0.272-0.233,0.612-0.463,1.025-0.374c0.542,0.117,0.981-0.355,1.495-0.223c0.16-0.179,0.376-0.286,0.321-0.584
		c0.476-0.031,0.875-0.408,1.379-0.262c0.157-0.198,0.47-0.274,0.348-0.552c0.452-0.41,1.021-0.25,1.469-0.531
		c0.934-0.586,1.955-0.995,2.989-1.381C38.155,23.938,38.409,23.95,38.607,23.914z"/>
	<path style="fill-rule:evenodd;clip-rule:evenodd;fill:none;" d="M40.349,25.091c0.263-0.417,0.608-0.303,0.951-0.326
		c1.141,1.487,2.256,3.008,3.063,5.008c0.383,0.344,0.779,0.982,1.206,1.61c0.623,0.915,1.302,1.805,2.095,2.577
		c0.01,0.359-0.092,0.727,0.358,0.995c-0.291,0.209-0.494,0.354-0.819,0.587c-0.237,0-0.663,0-1.049,0
		c-0.646,0.381-1.22,0.806-1.997,0.908c-0.425-0.306-0.778-0.736-1.252-1.039c-0.482-0.31-0.847-0.792-1.088-1.366
		c-0.297-0.705-0.646-1.428-1.104-2.011c-0.379-0.481-0.461-1.003-0.574-1.498c-0.152-0.664-0.07-1.372-0.207-2.07
		c-0.09-0.456,0.053-1.058,0.216-1.505C40.38,26.32,40.224,25.707,40.349,25.091z"/>
	<path style="fill-rule:evenodd;clip-rule:evenodd;fill:none;" d="M45.041,47.523c0.136,0.352-0.153,0.791,0.215,1.082
		c-0.176,0.205-0.354,0.41-0.492,0.57c-0.652,0.021-1.036-0.476-1.596-0.538c-0.175-0.02-0.392-0.114-0.591-0.105
		c-1.773,0.079-3.521-0.32-5.3-0.238c-1.755,0.081-3.518,0.018-5.273,0.018c-0.182-0.183-0.36-0.36-0.499-0.499
		c0.145-0.613,0.677-0.936,0.969-1.448c0.337-0.592,0.941-0.702,1.603-0.521c0.396,0.107,0.771,0.202,1.181-0.104
		c0.281-0.209,0.678-0.298,1.082-0.244c0.52,0.069,1.023-0.04,1.53-0.194c0.488-0.148,1.049,0.17,1.533-0.217
		c0.109-0.087,0.408-0.087,0.518,0.001c0.416,0.33,0.886,0.217,1.321,0.187c0.538-0.037,1.018,0.169,1.563,0.257
		c0.391,0.292,0.695,0.706,0.971,1.155C44.062,47.15,44.712,47.1,45.041,47.523z"/>
	<path style="fill-rule:evenodd;clip-rule:evenodd;fill:none;" d="M47.598,37.508c0.318,0.01,0.348,0.418,0.616,0.199
		c0.135,0.301,0.243,0.544,0.372,0.831c-0.538,0.681-0.576,1.551-0.9,2.318c-0.091,0.214-0.043,0.498-0.019,0.746
		c0.138,1.384-0.335,2.734-0.221,4.116c0.021,0.271-0.077,0.569,0.205,0.769c-0.271,0.162-0.175,0.433-0.208,0.67
		c-0.052,0.366-0.267,0.553-0.651,0.507c-0.993-0.551-1.588-1.514-2.374-2.284c0-0.286,0-0.572,0-0.851
		c-0.315-0.335-0.693-0.608-0.82-1.082c-0.113-0.522,0.133-1.111-0.196-1.536c0.261-1.498,0.585-2.918,2.097-3.742
		C46.507,38.155,46.507,38.155,47.598,37.508z"/>
	<path style="fill-rule:evenodd;clip-rule:evenodd;fill:none;" d="M36.123,30.821c0.116,0,0.473,0,0.894,0
		c0.365,0.592,0.716,1.239,1.282,1.892c-0.462,0-0.773,0-1.078,0c-0.475,0.544-1.097,0.922-1.242,1.675
		c-0.022,0.117-0.187,0.285-0.294,0.293c-0.426,0.029-0.542,0.43-0.847,0.63c-0.504,0.165-0.99-0.038-1.488-0.281
		c-0.164,0.233-0.287,0.408-0.378,0.537c-0.59,0-1.098-0.054-1.589,0.012c-0.828,0.111-1.562-0.178-2.295-0.455
		c-0.403-0.152-0.733-0.434-0.645-0.96c0.453-0.527,1.113-0.622,1.73-0.731c0.282-0.05,0.622-0.154,0.737-0.277
		c0.439-0.471,1.097-0.559,1.54-1.024c0.351-0.369,0.958-0.209,1.425-0.438C34.527,31.375,35.231,31.16,36.123,30.821z"/>
	<path style="fill-rule:evenodd;clip-rule:evenodd;fill:none;" d="M28.456,47.338c0-0.896,0-1.825,0-2.789
		c-0.233-0.197-0.478-0.402-0.701-0.591c0.196-1.315-0.287-2.515-0.202-3.758c0.022-0.331-0.148-0.764-0.381-1.006
		c-0.524-0.547-0.683-1.173-0.677-1.884c0.003-0.323,0-0.646,0-0.946c0.235-0.476,0.638-0.357,0.965-0.36
		c0.336,0.26,0.465,0.596,0.525,0.914c0.044,0.234,0.141,0.377,0.283,0.535c0.313,0.347,0.596,1.109,0.602,1.581
		c0.003,0.25,0,0.501,0,0.743c0.313,0.337,0.709,0.596,0.818,1.083c-0.019,1.162,0.513,2.216,0.802,3.322
		c0.042,0.162,0.171,0.373,0.095,0.482c-0.386,0.558-0.094,1.175-0.231,1.72c-0.403,0.402-0.806,0.805-1.295,1.294
		C28.905,47.709,28.644,47.658,28.456,47.338z"/>
	<path style="fill-rule:evenodd;clip-rule:evenodd;fill:none;" d="M30.61,39.132c0-0.336,0-0.69,0-1.063
		c0.17-0.288,0.48-0.51,0.76-0.292c0.391,0.304,0.86,0.374,1.28,0.555c0.524,0.226,0.973,0.441,1.155,1.027
		c0.066,0.497,0.029,0.976-0.305,1.443c-0.199,0.277-0.497,0.616-0.273,1.013c-0.246,0.251-0.457,0.468-0.663,0.679
		c-0.323-0.087-0.425-0.397-0.664-0.524c0.022-0.583-0.126-1.091-0.446-1.555C31.168,39.999,30.898,39.571,30.61,39.132z"/>
	<path style="fill-rule:evenodd;clip-rule:evenodd;fill:none;" d="M39.054,37.016c-0.516-1.211-0.575-2.475-0.708-3.706
		c0.393-0.263,0.677-0.11,0.853,0.177c0.447,0.726,0.768,1.537,1.458,2.093c0.058,0.564,0.518,0.922,0.702,1.423
		C40.64,37.415,39.886,37.424,39.054,37.016z"/>
	<path style="fill-rule:evenodd;clip-rule:evenodd;fill:none;" d="M37.953,43.26c-0.259,0.282-0.61,0.264-0.795,0.558
		c-0.299-0.153-0.565-0.29-0.905-0.465c-0.195,0-0.479,0-0.759,0c-0.131-0.126-0.254-0.245-0.364-0.351
		c0.018-0.101,0.009-0.181,0.044-0.231c0.33-0.475,0.892-0.614,1.349-0.899c0.156-0.098,0.486-0.123,0.614-0.023
		c0.489,0.382,1.032,0.099,1.322,0.168c0.47,0.47,0.815,0.816,1.196,1.197c-0.093,0.354-0.547,0.348-0.824,0.57
		C38.537,43.607,38.202,43.539,37.953,43.26z"/>
	<path style="fill-rule:evenodd;clip-rule:evenodd;fill:none;" d="M40.658,42.284c-0.27-0.377-0.379-0.806-0.679-1.156
		c-0.269-0.314-0.442-0.768-0.269-1.191c0.387-0.248,0.462,0.505,0.94-0.054c0.05-0.051,0.271-0.274,0.445-0.449
		c0.622,0.233,0.674,0.734,0.973,1.048c-0.206,0.477-0.591,0.884-0.43,1.444c-0.199,0.183-0.384,0.353-0.575,0.529
		C40.942,42.396,40.875,42.15,40.658,42.284z"/>
</g>
</svg>
