<svg xmlns="http://www.w3.org/2000/svg" xml:space="preserve" width="72px" height="72px" viewBox="0 0 72 72">
    <g fill="currentColor">
        <path d="M55.053 53.392c.221.537.635.997.618 1.674-.018.654.406 1.062 1.034 1.207v1.431l-.493.536c-.587.013-1.088.428-1.676.184-.243-.135-.56-.188-.77-.438-.413-.49-.953-.676-1.585-.601-.529.063-.98-.318-1.533-.232-.492.076-1.009-.02-1.509.024-.745.065-1.492.144-2.21.392-.16.056-.388.093-.521.021-.706-.38-1.458-.191-2.185-.189-.906.004-1.805-.062-2.727.167-1.173.291-2.374-.195-3.573-.182-.517-.386-1.021-.072-1.551-.031-1.252.097-2.518.055-3.777.012a1.16 1.16 0 0 1-.8-.405c-.586-.015-1.181-.086-1.682.355-.086.076-.266.074-.399.065-2.533-.166-5.046.357-7.598.202-.501.473-1.255.44-1.809.88h-1.648l-.764-.452v-1.193c.333-.46.556-1.055 1.028-1.468.021-.42.085-.843-.21-1.216l.655-1.285c0-.498-.171-1.205.042-1.768.285-.753.274-1.516.13-2.186-.274-1.278-.099-2.541-.161-3.808-.016-.329-.153-.704.191-1.005.089-.078.083-.39.001-.518-.359-.561-.229-1.177-.187-1.752.089-1.212-.217-2.386-.25-3.583a1.16 1.16 0 0 0-.425-.83c.166-1.072-.347-2.123-.211-3.222a.5.5 0 0 0-.065-.294c-.279-.473-.174-.92.07-1.363-.322-.63-.716-1.216-1.349-1.954-.541-.271-1.333-.705-2.24-.862-.414-.072-.633-.484-1.033-.633-.564-.209-1.08-.528-1.587-.872-.466-.316-.921-.659-1.461-.892-.331-.143-.635-.502-.806-.934-.115-.292-.237-.668-.582-.814-.137-1.05.525-1.809.761-2.579.846-.456 1.622-.371 2.385-.373q1.675-.003 3.346-.001l1.207-.63c1.171.021 2.375-.438 3.593-.197.243-.323.743-.22.791-.665h1.738c1.613-.856 2.312-1.212 3.213-1.106l.835-.858h2.318c.533-.708 1.394-.622 2.293-.97l.439-.547c.932.044 1.68-.145 2.23-.879.906.117 1.754.016 2.353-.854.737.126 1.243-.278 1.718-.833h.879l.878-.878c1.563.158 2.098-1.144 2.917-1.947V10.62c.489-.451.957-.923.858-1.739l.652-.508h.965c.499.201.183.776.546.988-.427 1.035-.09 2.113-.247 3.269l-.605.487v1.332c.412.753.837 1.427 1.412 1.905.309.695.235 1.458.729 2.03.468.542.663 1.242 1.112 1.819.471.606 1.145 1.099 1.348 1.916.045.18.274.33.445.458.577.433.636.506.802 1.265 1.044.699 1.675 1.872 2.422 2.905.861 1.192 1.753 2.333 2.794 3.364.175.173.353.351.555.487.975.657.979.665 2.213.647.836-.012 1.663-.013 2.378.459l.377-.244.666.295v.491c-.153.159-.345.045-.519.085l-1.085 1.096c-.456-.191-.824.275-1.33.191-.734.928-1.493 1.865-2.422 2.656v.817c-.229.424-.599.616-1.033.815-.627-.569-.066-1.378-.368-2.088l-.253-.271c-.582.256-1.17.438-1.798.006-.744.294-1.322 1.126-2.291.856-.158.532-.608.793-.926 1.172-.054.499-.371.952-.282 1.503.026.159-.115.424-.26.52-.407.269-.233.742-.408 1.021-.244.39-.014.615 0 .926.036.829.165 1.671-.161 2.507-.367.942-.246 1.408-.045 2.629.177 1.068.4 2.149.215 3.222 1.015.899 1.556 2.178 2.861 2.919h.55c.029-.083.071-.146.071-.208.004-1.368.041-2.737-.009-4.104-.045-1.242.467-2.442.188-3.61l.688-1.318c-.062-.742.022-1.556.466-2.302.091-.208.472.043.437-.405l.614.672c-.128.346.149.668.209 1.035.112.706-.17 1.36-.303 2.034-.111.564-.297 1.126-.325 1.694-.04.797-.043 1.583-.43 2.313-.06.113-.055.294-.013.422.465 1.428.046 2.896.254 4.341m-24.777-2.704c-.575.634-1.173-.238-1.768.041-.039.275-.217.501-.447.652-1.007.659-1.934 1.392-2.49 2.498-.065.128-.137.253-.166.307-.595-.123-.947.073-1.274.303v.622c.165.338.558.291.76.525.341-.348.765-.42 1.233-.418 2.699.01 5.398.044 8.096-.006 2.705-.051 5.42.241 8.115-.207.855-.143 1.653.269 2.502.226.79-.039 1.583-.022 2.375-.004.772.019 1.501-.345 2.287-.229.231.033.494.082.71-.052.128-.141.335-.242.257-.447-.202-.528-.252-1.119-.659-1.563-.255-.279-.509-.549-.719-.882-.219-.345-.494-.833-1.084-.719-.533-.464-1.171-.083-1.859-.27l-.34-.434c-.243.157-.524-.081-.727.16-.142.17-.376.17-.486.099-.596-.387-1.245-.183-1.861-.186-.602-.002-1.198-.039-1.707-.321-.328-.182-.689-.205-.908-.102-.655.312-1.32.121-1.975.19-.407.042-.831-.114-1.22.197-.125.101-.495.085-.607-.025-.289-.284-.607-.149-.91-.168-1.272-.08-2.517.375-3.796.212-.143-.019-.254.045-.385.114-.323.173-.666.202-.947-.113M26.48 26.711l2.135-1.306c.872.101 1.729-.053 2.433-.578.51-.38 1.02-.546 1.61-.484.318-.371.651-.675 1.206-.87h.942c.53-.094.741-.613 1.127-.875.461.068.828-.103 1.174-.342.955-.662 1.966-1.182 3.196-1.196.345-.651.332-1.383.52-2.061.193-.697.563-1.346.851-2.007-.236-.29-.422-.538-.792-.71l-3.21 1.786c-.503-.117-1.051.14-1.618.273l-1.256 1.256c-.502-.165-.964.201-1.581.21l-.521.634c-.888-.035-1.643.398-2.461.202-.442.735-1.136 1.072-1.87 1.255-.455.113-.954.107-1.396.285-.744.3-1.55.212-2.388.528-.328.379-.888.553-1.481.534-.882-.03-1.7.12-2.465.572-.255.151-.607.276-.843.27-.851-.025-1.637.453-2.512.217-.279.76-1.317.406-1.64 1.188.71.557 1.15 1.368 1.988 1.747.089.717.791.885 1.238 1.153.449.27 1.1.437 1.75.209l1.268-.809h.497c.216 0 .432.007.647-.001.446-.017 1.189-.264 1.277-.527.168-.506.537-.546.954-.551.428-.005.86-.002 1.221-.002m20.087-5.95a1.05 1.05 0 0 0-.221-1.047c-.769-.767-1.105-1.877-2.047-2.475-.637.521-1.124 1.136-.964 1.928-.49.995-.67 1.952-.917 2.944l.438.324c.092 1.249 1.133 2.111.914 3.256.27.432.708.631.888 1.101.165.433.638.671.972.964.603.527.826 1.278 1.333 1.85.257.29.352.73.263 1.117.381.299.592.682 1.034.818.183.056.346.267.457.446.563.91 1.188 1.755 2.211 2.318.398-.254.821-.588 1.363-.447.196-.197.356-.401.559-.546.213-.153.468-.25.699-.369.106.098.174.21.264.233.459.115.83-.341 1.311-.206.298.084.44-.314.734-.3.002-.206.113-.489-.127-.574-.612-.217-.763-.854-1.201-1.225-.457-.386-.881-.827-1.131-1.366-.188-.402-.519-.648-.761-.971-.007-.149.043-.343-.03-.424-.313-.34-.619-.727-1.013-.939-.283-.152-.369-.328-.508-.575a9 9 0 0 0-1.27-1.751c-.688-.733-1.36-1.501-1.896-2.345-.395-.622-.794-1.212-1.354-1.739M21.864 53.288c.145-.064.314.048.49-.071 1.066-.722 2.172-1.388 3.202-2.156.621-.464.966-1.155.94-1.975-.378-.306-.203-.728-.208-1.098-.02-1.224-.007-2.446-.007-3.55-.229-.647-.754-1.001-.865-1.598.313-.276.256-.657.205-.987a5.74 5.74 0 0 0-1.093-2.58c.193-.712-.205-1.367-.202-2.171l-.649-.522V34.8c-.47-.482-1.015-.889-1.105-1.584-.357-.028-.576-.376-.925-.236-.35-.316-.627-.729-1.134-.823-.173.229-.536.177-.692.498v1.084c.589.589.821 1.293.839 2.064.023.971.005 1.942.006 2.914 0 .214-.081.511.028.628.359.387.019.871.208 1.214.245.442.178.88.192 1.325.015.463.003.926.003 1.426-.563.12-.3.741-.603.971.15.612.529 1.091.798 1.582.103.616.018 1.19.182 1.796.147.544.22 1.222-.123 1.859-.157.292-.083.79.086 1.222.248.631.035 1.339.106 2.013.237.088.134.382.321.535m16.743-29.374c-.198.036-.452.024-.736.13-1.035.386-2.055.795-2.989 1.381-.448.281-1.018.122-1.469.531.122.278-.191.354-.348.552-.504-.146-.904.23-1.379.262.055.298-.162.405-.321.584-.513-.132-.953.34-1.495.223-.413-.089-.753.141-1.025.374-.394.337-.861.438-1.316.47-.767.055-1.465.225-2.116.649-.147.096-.291.313-.548.236-.538-.161-1.02.153-1.524.239-.424.072-1.003.169-.941.996l3.451 2.505c.552-.443 1.093-.829 1.66-.892.543-.06.956-.332 1.431-.489.185-.061.359-.157.557-.219.766-.242 1.632-.311 2.066-1.058.528-.033 1.006.115 1.395-.223.699-.607 1.644-.739 2.396-1.27.43-.304.879-.622 1.367-.852.37-.174.746-.331 1.164-.24.443-1.145.563-2.356 1.463-3.284-.278-.225-.495-.402-.743-.605m1.742 1.177c-.125.616.031 1.229-.202 1.87-.163.447-.306 1.049-.216 1.505.137.698.055 1.406.207 2.07.113.495.195 1.017.574 1.498.459.583.808 1.306 1.104 2.011.241.575.605 1.057 1.088 1.366.474.303.827.733 1.252 1.039.777-.102 1.352-.527 1.997-.908h1.049l.819-.587c-.45-.269-.349-.636-.358-.995-.793-.772-1.472-1.662-2.095-2.577-.427-.628-.823-1.266-1.206-1.61-.807-2-1.922-3.521-3.063-5.008-.341.023-.687-.09-.95.326m4.692 22.432c-.328-.424-.979-.373-1.265-.84-.275-.449-.58-.863-.971-1.155-.545-.088-1.024-.294-1.563-.257-.436.03-.905.144-1.321-.187-.109-.088-.408-.088-.518-.001-.484.387-1.045.068-1.533.217-.507.154-1.01.264-1.53.194-.404-.054-.801.035-1.082.244-.41.307-.785.212-1.181.104-.662-.182-1.266-.071-1.603.521-.292.513-.825.835-.969 1.448l.499.499c1.755 0 3.518.063 5.273-.018 1.779-.082 3.526.317 5.3.238.199-.009.416.086.591.105.56.063.943.559 1.596.538l.492-.57c-.369-.289-.08-.728-.215-1.08m2.557-10.015c-1.091.647-1.091.647-2.1.661-1.512.824-1.836 2.244-2.097 3.742.329.425.083 1.014.196 1.536.127.474.505.747.82 1.082v.851c.786.771 1.381 1.733 2.375 2.283.384.047.599-.14.65-.506.033-.237-.063-.508.208-.67-.282-.199-.184-.498-.205-.769-.114-1.382.358-2.732.221-4.116-.024-.248-.072-.532.019-.746.324-.768.362-1.638.9-2.318l-.372-.831c-.267.219-.296-.189-.615-.199m-11.475-6.687c-.892.339-1.596.554-2.25.873-.467.228-1.074.069-1.425.438-.443.465-1.101.554-1.54 1.024-.115.123-.455.227-.737.277-.617.109-1.278.204-1.73.731-.088.526.242.808.645.96.734.276 1.467.566 2.295.455.492-.066 1-.012 1.589-.012l.378-.537c.498.244.983.446 1.488.281.306-.201.421-.601.847-.63.108-.008.272-.176.294-.293.145-.753.767-1.13 1.242-1.675h1.078c-.566-.653-.917-1.3-1.282-1.892zm-7.667 16.517c.188.32.449.371.605.341l1.295-1.294c.138-.545-.154-1.162.231-1.72.076-.109-.053-.32-.095-.482-.29-1.106-.821-2.16-.802-3.322-.108-.487-.504-.746-.818-1.083 0-.242.002-.493 0-.743-.005-.472-.289-1.234-.602-1.581a1 1 0 0 1-.283-.535c-.06-.318-.189-.653-.525-.914-.328.003-.73-.116-.965.36 0 .299.002.623 0 .946-.006.711.153 1.337.677 1.884.232.242.403.675.381 1.006-.084 1.243.398 2.442.202 3.758l.701.591zm2.154-8.206c.289.439.558.867.844 1.282.319.464.468.972.446 1.555.239.127.341.438.664.524l.663-.679c-.223-.396.074-.735.273-1.013.334-.468.371-.946.305-1.443-.182-.586-.63-.802-1.155-1.027-.419-.181-.889-.251-1.28-.555-.28-.218-.59.004-.76.292zm8.444-2.116c.832.408 1.586.399 2.305-.013-.185-.501-.645-.859-.702-1.423-.69-.556-1.011-1.367-1.458-2.093-.176-.287-.46-.439-.853-.177.133 1.232.193 2.495.708 3.706m-1.101 6.244c.249.279.584.348.879.523.277-.223.731-.216.824-.57l-1.196-1.197c-.29-.069-.833.214-1.322-.168-.128-.1-.458-.074-.614.023-.458.285-1.02.425-1.349.899-.035.051-.026.131-.044.231l.364.351h.759l.905.465c.183-.294.535-.275.794-.557m2.705-.976c.217-.134.284.112.406.171l.575-.529c-.161-.561.224-.968.43-1.444-.299-.313-.351-.814-.973-1.048-.174.175-.396.398-.445.449-.479.559-.554-.194-.94.054-.174.424 0 .877.269 1.191.299.351.408.779.678 1.156"/>
        <path d="M55.761 38.167h.438c.309.652.39 1.351.288 2.076-.216.29-.58.33-.885.534l-.38-.331c.056-.753-.234-1.614.539-2.279"/>
    </g>
</svg>
