<?xml version="1.0" encoding="iso-8859-1"?>
<!-- Generator: Adobe Illustrator 16.0.0, SVG Export Plug-In . SVG Version: 6.00 Build 0)  -->
<!DOCTYPE svg PUBLIC "-//W3C//DTD SVG 1.1//EN" "http://www.w3.org/Graphics/SVG/1.1/DTD/svg11.dtd">
<svg version="1.1" id="Layer_1" xmlns="http://www.w3.org/2000/svg" xmlns:xlink="http://www.w3.org/1999/xlink" x="0px" y="0px"
	 width="72.36px" height="72.18px" viewBox="0 0 72.36 72.18" style="enable-background:new 0 0 72.36 72.18;" xml:space="preserve"
	>
<g>
	<path style="fill-rule:evenodd;clip-rule:evenodd;fill:none;" d="M-6.984,79.631c0-28.871,0-57.743,0-86.615
		c28.8,0,57.6,0,86.399,0c0,28.872,0,57.744,0,86.615C50.616,79.631,21.816,79.631-6.984,79.631z M13.965,46.591
		c-0.045,0.588,0.186,1.351-0.366,1.979c-0.113,0.129-0.045,0.271-0.062,0.407c-0.08,0.67,0.135,1.297,0.326,1.917
		c0.147,0.478,0.266,0.969,0.664,1.353c0.228,0.22,0.388,0.564,0.458,0.879c0.163,0.741,0.651,1.326,0.899,2.005
		c0.326,0.893,1.076,1.364,1.635,2.024c0.414-0.082,0.53,0.367,0.886,0.48c0.914,0.29,1.824,0.17,2.729,0.154
		c0.404-0.007,0.971-0.188,1.162-0.485c0.254-0.396,0.614-0.45,0.931-0.648c0.614-0.383,1.29-0.726,1.706-1.314
		c0.246-0.348,0.571-0.75,0.648-1.118c0.09-0.427,0.285-0.845,0.292-1.256c0.716-0.933,1.703-1.53,2.537-2.297
		c0.433-0.397,0.996-0.815,1.725-0.888c0.567-0.824,1.46-1.272,2.426-1.684c0.714-0.055,1.474,0.051,2.246-0.188
		c0.526-0.162,1.143-0.03,1.718-0.03c0.403-0.35,0.654-0.487,1.135-0.649c1.485-0.501,2.807-1.807,2.642-3.616
		c-0.054-0.588,0.233-1.078,0.271-1.638c0.021-0.312,0.28-0.701,0.625-0.916c0.955-0.594,1.79-1.333,2.572-2.136
		c0.12-0.124,0.252-0.287,0.403-0.321c0.547-0.124,0.868-0.545,1.067-0.73c1.463-0.508,2.469-1.407,3.775-1.874
		c0.671,0.15,1.317-0.235,1.995-0.45c0.148-0.047,0.254-0.199,0.457-0.206c0.547-0.02,1.059-0.224,1.524-0.48
		c0.54-0.298,1.075-0.546,1.699-0.599c0.346-0.029,0.639-0.219,0.888-0.459c0.259-0.25,0.493-0.528,0.768-0.759
		c0.681-0.572,1.31-1.259,2.33-1.155c0.059,0.006,0.121-0.055,0.185-0.069c0.766-0.175,1.52-0.437,2.259-0.353
		c0.431,0.179,0.313,0.565,0.432,0.833c0.331,0,0.645,0,0.935,0c0.15-0.152,0.277-0.28,0.401-0.404
		c0.414-0.026,0.855,0.119,1.166-0.239c0.687,0.328,0.804,0.309,1.726-0.265c0-0.296,0-0.609,0-0.946
		c-0.247-0.228-0.469-0.576-0.777-0.692c-1.055-0.399-1.773-1.2-2.557-1.977c-0.924,0.184-1.566-0.492-2.527-0.846
		c-0.361,0.017-0.895-0.007-1.365-0.407c-0.102-0.086-0.34-0.191-0.529-0.261c-0.391-0.144-0.681-0.282-1.155-0.057
		c-0.812,0.386-1.731,0.527-2.618,0.705c-0.45,0.09-0.934,0.012-1.401,0.017c-0.448,0.005-0.875,0.025-1.325,0.184
		c-0.415,0.146-0.922,0.031-1.377,0.031c-0.791-0.791-0.782-0.793-1.192-2.006c-0.139-0.408-0.263-0.85-0.513-1.187
		c-0.62-0.836-1.306-1.625-1.975-2.425c-0.185-0.22-0.373-0.463-0.613-0.604c-1.186-0.697-2.21-1.669-3.566-2.076
		c-0.351-0.105-0.67-0.278-1.037-0.375c-0.672-0.178-1.382-0.256-2.013-0.607c-0.782-0.436-1.673-0.521-2.538-0.638
		c-0.456-0.062-0.894-0.074-1.257-0.467c-0.653,0.208-1.26-0.222-1.929-0.208c-0.369,0.007-0.729,0.075-1.117-0.176
		c-0.337-0.218-0.74,0.264-1.189,0.202c-0.527-0.073-1.127,0.106-1.59-0.082c-0.436-0.177-0.927,0.049-1.212-0.177
		c-0.455-0.36-0.779,0.058-1.136,0.006c-0.456-0.066-0.789,0.276-1.209,0.236c-0.424-0.04-0.807,0.118-1.209,0.203
		c-1.113,0.236-3.127,1.235-3.921,2.015c-0.204,0.2-0.381,0.5-0.625,0.571c-0.727,0.211-1.145,0.78-1.637,1.265
		c-0.807,0.795-1.666,1.549-2.279,2.513c-0.106,0.167-0.141,0.453-0.324,0.498c-0.755,0.188-0.795,0.896-0.985,1.42
		c-0.147,0.405-0.294,0.764-0.604,1.045c-0.377,0.342-0.47,0.811-0.523,1.039c-0.716,0.759-1.181,1.548-1.871,1.921
		c-1.486,0.802-1.627,2.675-1.571,3.805c0.386,0.304,0.188,0.728,0.209,1.099c0.028,0.502,0.007,1.007,0.007,1.456
		c-0.413,0.676-0.81,1.339-0.843,2.075c-0.068,1.501-0.021,3.008-0.021,4.481c0.717,0.61,1.358,1.224,1.993,1.823
		C12.669,44.555,13.492,45.387,13.965,46.591z"/>
	<path style="fill-rule:evenodd;clip-rule:evenodd;" d="M13.965,46.591c-0.473-1.204-1.296-2.036-2.108-2.803
		c-0.635-0.6-1.276-1.213-1.993-1.823c0-1.474-0.048-2.98,0.021-4.481c0.033-0.736,0.431-1.399,0.843-2.075
		c0-0.449,0.021-0.953-0.007-1.456c-0.021-0.371,0.177-0.794-0.209-1.099c-0.057-1.13,0.085-3.003,1.571-3.805
		c0.69-0.373,1.155-1.162,1.871-1.921c0.053-0.228,0.146-0.697,0.523-1.039c0.311-0.282,0.457-0.641,0.604-1.045
		c0.19-0.524,0.23-1.232,0.985-1.42c0.183-0.045,0.218-0.332,0.324-0.498c0.613-0.964,1.472-1.718,2.279-2.513
		c0.492-0.484,0.91-1.053,1.637-1.265c0.243-0.071,0.421-0.372,0.625-0.571c0.793-0.779,2.808-1.779,3.921-2.015
		c0.402-0.085,0.786-0.243,1.209-0.203c0.421,0.04,0.754-0.302,1.209-0.236c0.357,0.052,0.681-0.367,1.136-0.006
		c0.285,0.226,0.776,0,1.212,0.177c0.463,0.188,1.063,0.009,1.59,0.082c0.449,0.062,0.852-0.419,1.189-0.202
		c0.388,0.25,0.749,0.183,1.117,0.176c0.668-0.013,1.276,0.417,1.929,0.208c0.363,0.393,0.801,0.405,1.257,0.467
		c0.865,0.117,1.756,0.203,2.538,0.638c0.631,0.351,1.341,0.429,2.013,0.607c0.367,0.097,0.687,0.27,1.037,0.375
		c1.356,0.407,2.381,1.379,3.566,2.076c0.24,0.142,0.429,0.384,0.613,0.604c0.669,0.8,1.354,1.588,1.975,2.425
		c0.25,0.337,0.374,0.779,0.513,1.187c0.41,1.213,0.401,1.216,1.192,2.006c0.455,0,0.962,0.115,1.377-0.031
		c0.45-0.158,0.877-0.179,1.325-0.184c0.468-0.005,0.951,0.073,1.401-0.017c0.887-0.177,1.807-0.319,2.618-0.705
		c0.475-0.226,0.765-0.087,1.155,0.057c0.189,0.07,0.428,0.175,0.529,0.261c0.471,0.4,1.004,0.424,1.365,0.407
		c0.961,0.354,1.604,1.03,2.527,0.846c0.783,0.776,1.502,1.577,2.557,1.977c0.309,0.117,0.53,0.464,0.777,0.692
		c0,0.337,0,0.65,0,0.946c-0.922,0.574-1.039,0.593-1.726,0.265c-0.311,0.358-0.752,0.213-1.166,0.239
		c-0.124,0.125-0.251,0.252-0.401,0.404c-0.29,0-0.604,0-0.935,0c-0.118-0.268-0.001-0.654-0.432-0.833
		c-0.739-0.084-1.493,0.178-2.259,0.353c-0.063,0.015-0.126,0.075-0.185,0.069c-1.021-0.104-1.649,0.583-2.33,1.155
		c-0.274,0.231-0.509,0.509-0.768,0.759c-0.249,0.24-0.542,0.43-0.888,0.459c-0.624,0.053-1.159,0.301-1.699,0.599
		c-0.466,0.256-0.978,0.46-1.524,0.48c-0.203,0.007-0.309,0.159-0.457,0.206c-0.678,0.215-1.324,0.601-1.995,0.45
		c-1.307,0.467-2.313,1.366-3.775,1.874c-0.199,0.186-0.521,0.606-1.067,0.73c-0.151,0.034-0.283,0.197-0.403,0.321
		c-0.782,0.803-1.617,1.542-2.572,2.136c-0.345,0.215-0.604,0.604-0.625,0.916c-0.038,0.56-0.325,1.05-0.271,1.638
		c0.165,1.81-1.156,3.115-2.642,3.616c-0.481,0.162-0.732,0.3-1.135,0.649c-0.576,0-1.192-0.132-1.718,0.03
		c-0.772,0.239-1.532,0.134-2.246,0.188c-0.966,0.411-1.859,0.859-2.426,1.684c-0.729,0.072-1.292,0.49-1.725,0.888
		c-0.834,0.767-1.821,1.364-2.537,2.297c-0.007,0.411-0.202,0.829-0.292,1.256c-0.078,0.368-0.402,0.771-0.648,1.118
		c-0.417,0.589-1.092,0.932-1.706,1.314c-0.317,0.198-0.677,0.253-0.931,0.648c-0.19,0.297-0.758,0.479-1.162,0.485
		c-0.905,0.016-1.815,0.136-2.729-0.154c-0.355-0.113-0.472-0.563-0.886-0.48c-0.559-0.66-1.309-1.132-1.635-2.024
		c-0.248-0.679-0.736-1.264-0.899-2.005c-0.07-0.314-0.23-0.659-0.458-0.879c-0.398-0.384-0.517-0.875-0.664-1.353
		c-0.191-0.62-0.406-1.247-0.326-1.917c0.017-0.136-0.051-0.278,0.062-0.407C14.151,47.941,13.92,47.179,13.965,46.591z
		 M37.942,35.517c0.375,0.013,0.788,0.181,1.132-0.333c0.206,0.654,0.727,0.2,0.925,0.482c0.635,0.45,0.31,0.937,0.063,1.311
		c-0.22,0.333-0.082,0.762-0.453,0.975c0.578,0.515,1.018,0.606,1.491,0.147c0.434-0.419,0.977-0.674,1.389-1.119
		c0.758-0.818,1.591-1.566,2.351-2.382c0.515-0.553,1.137-0.742,1.885-0.774c0.229-0.489,0.778-0.502,1.214-0.613
		c1.245-0.317,1.463-0.419,2.286-1.58c-0.733,0.176-1.424-0.111-2.127,0.23c-0.328,0.159-0.878,0.18-1.242-0.049
		c-0.388-0.245-0.836-0.221-1.122-0.1c-0.664,0.28-1.323,0.182-1.976,0.167c-1.009-0.023-1.853,0.355-2.672,0.868
		c-0.454,0.284-0.876,0.599-1.403,0.784c-0.88,0.31-0.977,0.482-1.441,1.184c-0.157,0.237,0.087,0.614-0.208,0.798
		c-1.068,0.531-2.1,0.964-2.035,2.304c0.199,0.289,0.434,0.41,0.834,0.318C37.396,37.412,37.716,36.511,37.942,35.517z
		 M22.391,24.781c0.231,0.28,0.39,0.472,0.534,0.646c0.615,0,1.187,0,1.739,0c1.458,0.838,1.458,0.838,2.27,0.779
		c-0.014-0.311,0.072-0.68-0.065-0.923c-0.215-0.382-0.279-0.823-0.078-1.083c0.304-0.392,0.051-0.8,0.245-1.204
		c0.406-0.846,0.959-1.483,1.675-1.845c1.55-0.206,2.991,0.059,4.449-0.224c0.926-0.179,1.935-0.064,2.928,0.118
		c1.002,0.185,2.101,0.216,3.131-0.253c0-0.216,0-0.457,0-0.692c-0.786-0.458-1.705-0.61-2.558-1.201
		c-0.778,0.269-1.605-0.243-2.484-0.179c-0.911-0.628-1.95-0.395-2.947-0.426c-0.201-0.006-0.397-0.022-0.615,0.07
		c-0.85,0.361-1.714,0.696-2.673,0.576c-0.098-0.012-0.205,0.018-0.303,0.045c-0.451,0.125-0.909,0.231-1.348,0.39
		c-0.472,0.17-0.886,0.465-1.432,0.469c-0.225,0.001-0.522,0.232-0.659,0.441c-0.344,0.531-0.82,0.971-0.964,1.649
		c-0.13,0.609-0.271,1.251-0.637,1.777C22.349,24.066,22.413,24.438,22.391,24.781z M33.527,30.797
		c-0.463,0.516-0.998,0.937-1.256,1.642c-0.109,0.3-0.31,0.771-0.655,0.896c-0.73,0.264-1.261,0.859-2.057,1.042
		c-0.898,0.207-1.721,0.752-2.621,0.938c-0.67,0.138-1.198,0.432-1.732,0.756c-0.002,1.284,0.139,1.525,0.963,1.659
		c0.415-0.397,0.781-0.902,1.417-0.868c0.492,0.211,0.608,0.676,0.858,1.046c-0.033,0.475,0.121,0.982-0.25,1.368
		c0.246,0.396,0.625,0.473,0.955,0.622c0.122-0.09,0.23-0.169,0.324-0.238c0.465,0.181,0.899,0.349,1.289,0.499
		c0.191,0.498,0.435,0.849,1.029,0.814c0.224-0.25,0.462-0.516,0.754-0.842c0.12-0.717-0.45-1.47-0.188-2.259
		c-0.49-0.537-1.126-0.934-1.113-1.737c0.437-0.628,1.255-0.871,1.578-1.602c0.754-0.356,1.184-1.037,1.669-1.664
		c0.131-0.169,0.278-0.35,0.458-0.453c0.965-0.554,1.639-1.361,2.07-2.316c0.628-0.387,1.369-0.504,1.782-1.185
		c-0.659-0.175-1.038,0.328-1.518,0.522c-0.274,0.111-1.021,0.456-1.298,0.516c-0.461,0.1-0.91,0.192-1.298,0.527
		C34.384,30.745,33.984,30.922,33.527,30.797z M22.284,29.52c-1.265,0-2.523,0.02-3.78-0.009c-0.57-0.013-1.07,0.154-1.568,0.388
		c-0.27,0.126-0.545,0.239-0.786,0.344c-0.742,1.373-0.742,1.373-0.313,1.869c1.266,0.102,2.396-0.416,3.556-0.786
		c0.22-0.07,0.425-0.284,0.632-0.278c0.894,0.025,1.621-0.399,2.371-0.78c-0.088-0.22,0.142-0.293,0.189-0.448
		C22.508,29.744,22.432,29.667,22.284,29.52z M18.72,54.575c0-0.207,0.038-0.359-0.006-0.481c-0.261-0.725-0.664-1.405-0.642-2.212
		c-0.44-0.555-0.26-1.443-1.007-1.837c-0.196,0-0.41,0-0.619,0c-0.107,0.107-0.209,0.209-0.33,0.33
		c-0.089,1.805,1.031,3.005,2.04,4.2C18.387,54.575,18.495,54.575,18.72,54.575z M19.451,43.128
		c-0.349-0.026-0.592,0.067-0.738,0.429c-0.336,0.828-0.914,1.423-1.772,1.74c-0.213,0.078-0.451,0.229-0.363,0.547
		c0.106,0.146,0.294,0.134,0.389,0.082c1.028-0.556,2.224-0.684,3.237-1.277c0.08-0.047,0.193-0.042,0.235-0.128
		c0-0.23,0-0.442,0-0.653C19.979,43.783,19.782,43.361,19.451,43.128z M35.388,45.438c0.958,0.294,1.553-0.271,2.12-0.913
		c-0.008-0.331,0.108-0.711-0.323-0.944c-0.436-0.142-0.807,0.101-1.125,0.282C35.845,44.43,35.195,44.76,35.388,45.438z
		 M14.703,40.115c0.565-0.466,0.815-1.217,1.433-1.618c-0.048-0.269,0.081-0.527-0.083-0.743c-0.254,0-0.494,0-0.796,0
		c-0.372,0.738-0.745,1.479-1.111,2.204c0.067,0.066,0.09,0.11,0.118,0.114C14.403,40.092,14.543,40.101,14.703,40.115z
		 M23.267,44.191c-0.1-0.738-0.215-0.886-0.604-0.848c-0.355,0.034-0.448,0.226-0.407,0.848
		C22.563,44.191,22.871,44.191,23.267,44.191z M18.817,36.456c0.127-0.72,0.098-0.768-0.495-0.819
		C18.208,36.079,18.355,36.355,18.817,36.456z"/>
	<path style="fill-rule:evenodd;clip-rule:evenodd;fill:none;" d="M22.391,24.781c0.022-0.343-0.042-0.714,0.208-1.071
		c0.367-0.525,0.507-1.167,0.637-1.777c0.144-0.678,0.62-1.118,0.964-1.649c0.136-0.209,0.434-0.44,0.659-0.441
		c0.546-0.003,0.96-0.298,1.432-0.469c0.439-0.159,0.896-0.265,1.348-0.39c0.098-0.027,0.205-0.057,0.303-0.045
		c0.959,0.121,1.824-0.214,2.673-0.576c0.217-0.092,0.414-0.076,0.615-0.07c0.997,0.031,2.036-0.203,2.947,0.426
		c0.878-0.064,1.706,0.447,2.484,0.179c0.853,0.591,1.772,0.743,2.558,1.201c0,0.235,0,0.476,0,0.692
		c-1.03,0.47-2.129,0.438-3.131,0.253c-0.993-0.182-2.002-0.297-2.928-0.118c-1.458,0.282-2.899,0.018-4.449,0.224
		c-0.715,0.362-1.269,1-1.675,1.845c-0.194,0.403,0.059,0.812-0.245,1.204c-0.201,0.259-0.138,0.7,0.078,1.083
		c0.137,0.243,0.051,0.612,0.065,0.923c-0.811,0.06-0.811,0.06-2.27-0.779c-0.552,0-1.124,0-1.739,0
		C22.78,25.252,22.622,25.061,22.391,24.781z"/>
	<path style="fill-rule:evenodd;clip-rule:evenodd;fill:none;" d="M33.527,30.797c0.457,0.125,0.857-0.052,1.161-0.315
		c0.388-0.335,0.837-0.428,1.298-0.527c0.277-0.06,1.024-0.405,1.298-0.516c0.479-0.195,0.858-0.698,1.518-0.522
		c-0.413,0.681-1.154,0.798-1.782,1.185c-0.432,0.956-1.105,1.763-2.07,2.316c-0.181,0.104-0.328,0.284-0.458,0.453
		c-0.486,0.627-0.915,1.307-1.669,1.664c-0.323,0.731-1.141,0.974-1.578,1.602c-0.013,0.803,0.623,1.2,1.113,1.737
		c-0.262,0.789,0.309,1.542,0.188,2.259c-0.292,0.326-0.53,0.592-0.754,0.842c-0.594,0.034-0.838-0.316-1.029-0.814
		c-0.39-0.15-0.823-0.318-1.289-0.499c-0.094,0.069-0.203,0.148-0.324,0.238c-0.33-0.149-0.709-0.227-0.955-0.622
		c0.371-0.386,0.217-0.894,0.25-1.368c-0.25-0.37-0.367-0.835-0.858-1.046c-0.636-0.034-1.002,0.471-1.417,0.868
		c-0.824-0.134-0.965-0.375-0.963-1.659c0.535-0.324,1.062-0.618,1.732-0.756c0.899-0.185,1.722-0.731,2.621-0.938
		c0.796-0.183,1.327-0.778,2.057-1.042c0.346-0.125,0.546-0.596,0.655-0.896C32.53,31.733,33.064,31.313,33.527,30.797z"/>
	<path style="fill-rule:evenodd;clip-rule:evenodd;fill:none;" d="M37.942,35.517c0.385-0.188,0.141-0.564,0.298-0.801
		c0.465-0.701,0.562-0.874,1.441-1.184c0.527-0.186,0.949-0.5,1.403-0.784c0.819-0.512,1.663-0.891,2.672-0.868
		c0.652,0.015,1.312,0.113,1.976-0.167c0.286-0.121,0.734-0.145,1.122,0.1c0.364,0.229,0.914,0.208,1.242,0.049
		c0.703-0.341,1.394-0.054,2.127-0.23c-0.823,1.161-1.041,1.263-2.286,1.58c-0.436,0.111-0.984,0.124-1.214,0.613
		c-0.748,0.032-1.37,0.221-1.885,0.774c-0.76,0.816-1.593,1.564-2.351,2.382c-0.412,0.445-0.955,0.7-1.389,1.119
		c-0.474,0.459-0.913,0.367-1.491-0.147c0.371-0.213,0.233-0.642,0.453-0.975c0.247-0.374,0.572-0.86-0.063-1.311
		c-0.198-0.282-0.719,0.172-0.925-0.482C38.73,35.698,38.317,35.53,37.942,35.517z"/>
	<path style="fill-rule:evenodd;clip-rule:evenodd;fill:none;" d="M22.284,29.52c0.148,0.148,0.224,0.224,0.301,0.301
		c-0.048,0.154-0.278,0.228-0.189,0.447c-0.75,0.38-1.477,0.805-2.371,0.78c-0.208-0.006-0.413,0.208-0.632,0.278
		c-1.161,0.37-2.291,0.888-3.556,0.786c-0.429-0.496-0.429-0.496,0.313-1.869c0.241-0.104,0.517-0.218,0.786-0.344
		c0.498-0.233,0.998-0.401,1.568-0.388C19.761,29.54,21.02,29.52,22.284,29.52z"/>
	<path style="fill-rule:evenodd;clip-rule:evenodd;fill:none;" d="M18.72,54.575c-0.226,0-0.333,0-0.563,0
		c-1.009-1.195-2.129-2.396-2.04-4.2c0.121-0.121,0.222-0.223,0.33-0.33c0.208,0,0.422,0,0.619,0
		c0.747,0.394,0.567,1.282,1.007,1.837c-0.022,0.807,0.38,1.487,0.642,2.212C18.758,54.216,18.72,54.368,18.72,54.575z"/>
	<path style="fill-rule:evenodd;clip-rule:evenodd;fill:none;" d="M19.451,43.128c0.332,0.233,0.529,0.655,0.988,0.739
		c0,0.211,0,0.423,0,0.653c-0.042,0.086-0.156,0.081-0.235,0.128c-1.013,0.594-2.209,0.722-3.237,1.277
		c-0.095,0.052-0.283,0.064-0.389-0.082c-0.088-0.318,0.15-0.469,0.363-0.547c0.858-0.317,1.436-0.912,1.772-1.74
		C18.859,43.195,19.102,43.102,19.451,43.128z"/>
	<path style="fill-rule:evenodd;clip-rule:evenodd;fill:none;" d="M35.388,45.438c-0.193-0.679,0.457-1.009,0.671-1.575
		c0.318-0.182,0.69-0.424,1.125-0.282c0.432,0.233,0.315,0.613,0.323,0.944C36.941,45.168,36.346,45.732,35.388,45.438z"/>
	<path style="fill-rule:evenodd;clip-rule:evenodd;fill:none;" d="M38.032,35.514c-0.315,0.997-0.636,1.898-1.2,2.623
		c-0.401,0.092-0.635-0.029-0.834-0.318C35.932,36.478,36.964,36.045,38.032,35.514z"/>
	<path style="fill-rule:evenodd;clip-rule:evenodd;fill:none;" d="M14.703,40.115c-0.16-0.015-0.3-0.023-0.438-0.043
		c-0.028-0.004-0.051-0.048-0.118-0.114c0.366-0.725,0.739-1.466,1.111-2.204c0.302,0,0.542,0,0.796,0
		c0.163,0.216,0.034,0.475,0.083,0.743C15.518,38.898,15.269,39.649,14.703,40.115z"/>
	<path style="fill-rule:evenodd;clip-rule:evenodd;fill:none;" d="M23.267,44.191c-0.396,0-0.704,0-1.012,0
		c-0.041-0.622,0.052-0.813,0.407-0.848C23.051,43.306,23.167,43.453,23.267,44.191z"/>
	<path style="fill-rule:evenodd;clip-rule:evenodd;fill:none;" d="M18.817,36.456c-0.462-0.101-0.609-0.377-0.495-0.819
		C18.915,35.688,18.945,35.736,18.817,36.456z"/>
</g>
</svg>
