<?xml version="1.0" encoding="iso-8859-1"?>
<!-- Generator: Adobe Illustrator 16.0.0, SVG Export Plug-In . SVG Version: 6.00 Build 0)  -->
<!DOCTYPE svg PUBLIC "-//W3C//DTD SVG 1.1//EN" "http://www.w3.org/Graphics/SVG/1.1/DTD/svg11.dtd">
<svg version="1.1" id="Layer_1" xmlns="http://www.w3.org/2000/svg" xmlns:xlink="http://www.w3.org/1999/xlink" x="0px" y="0px"
	 width="72.36px" height="72.18px" viewBox="0 0 72.36 72.18" style="enable-background:new 0 0 72.36 72.18;" xml:space="preserve"
	>
<g>
	
	<path fill="currentColor" d="M13.965,46.591c-0.473-1.204-1.296-2.036-2.108-2.803
		c-0.635-0.6-1.276-1.213-1.993-1.823c0-1.474-0.048-2.98,0.021-4.481c0.033-0.736,0.431-1.399,0.843-2.075
		c0-0.449,0.021-0.953-0.007-1.456c-0.021-0.371,0.177-0.794-0.209-1.099c-0.057-1.13,0.085-3.003,1.571-3.805
		c0.69-0.373,1.155-1.162,1.871-1.921c0.053-0.228,0.146-0.697,0.523-1.039c0.311-0.282,0.457-0.641,0.604-1.045
		c0.19-0.524,0.23-1.232,0.985-1.42c0.183-0.045,0.218-0.332,0.324-0.498c0.613-0.964,1.472-1.718,2.279-2.513
		c0.492-0.484,0.91-1.053,1.637-1.265c0.243-0.071,0.421-0.372,0.625-0.571c0.793-0.779,2.808-1.779,3.921-2.015
		c0.402-0.085,0.786-0.243,1.209-0.203c0.421,0.04,0.754-0.302,1.209-0.236c0.357,0.052,0.681-0.367,1.136-0.006
		c0.285,0.226,0.776,0,1.212,0.177c0.463,0.188,1.063,0.009,1.59,0.082c0.449,0.062,0.852-0.419,1.189-0.202
		c0.388,0.25,0.749,0.183,1.117,0.176c0.668-0.013,1.276,0.417,1.929,0.208c0.363,0.393,0.801,0.405,1.257,0.467
		c0.865,0.117,1.756,0.203,2.538,0.638c0.631,0.351,1.341,0.429,2.013,0.607c0.367,0.097,0.687,0.27,1.037,0.375
		c1.356,0.407,2.381,1.379,3.566,2.076c0.24,0.142,0.429,0.384,0.613,0.604c0.669,0.8,1.354,1.588,1.975,2.425
		c0.25,0.337,0.374,0.779,0.513,1.187c0.41,1.213,0.401,1.216,1.192,2.006c0.455,0,0.962,0.115,1.377-0.031
		c0.45-0.158,0.877-0.179,1.325-0.184c0.468-0.005,0.951,0.073,1.401-0.017c0.887-0.177,1.807-0.319,2.618-0.705
		c0.475-0.226,0.765-0.087,1.155,0.057c0.189,0.07,0.428,0.175,0.529,0.261c0.471,0.4,1.004,0.424,1.365,0.407
		c0.961,0.354,1.604,1.03,2.527,0.846c0.783,0.776,1.502,1.577,2.557,1.977c0.309,0.117,0.53,0.464,0.777,0.692
		c0,0.337,0,0.65,0,0.946c-0.922,0.574-1.039,0.593-1.726,0.265c-0.311,0.358-0.752,0.213-1.166,0.239
		c-0.124,0.125-0.251,0.252-0.401,0.404c-0.29,0-0.604,0-0.935,0c-0.118-0.268-0.001-0.654-0.432-0.833
		c-0.739-0.084-1.493,0.178-2.259,0.353c-0.063,0.015-0.126,0.075-0.185,0.069c-1.021-0.104-1.649,0.583-2.33,1.155
		c-0.274,0.231-0.509,0.509-0.768,0.759c-0.249,0.24-0.542,0.43-0.888,0.459c-0.624,0.053-1.159,0.301-1.699,0.599
		c-0.466,0.256-0.978,0.46-1.524,0.48c-0.203,0.007-0.309,0.159-0.457,0.206c-0.678,0.215-1.324,0.601-1.995,0.45
		c-1.307,0.467-2.313,1.366-3.775,1.874c-0.199,0.186-0.521,0.606-1.067,0.73c-0.151,0.034-0.283,0.197-0.403,0.321
		c-0.782,0.803-1.617,1.542-2.572,2.136c-0.345,0.215-0.604,0.604-0.625,0.916c-0.038,0.56-0.325,1.05-0.271,1.638
		c0.165,1.81-1.156,3.115-2.642,3.616c-0.481,0.162-0.732,0.3-1.135,0.649c-0.576,0-1.192-0.132-1.718,0.03
		c-0.772,0.239-1.532,0.134-2.246,0.188c-0.966,0.411-1.859,0.859-2.426,1.684c-0.729,0.072-1.292,0.49-1.725,0.888
		c-0.834,0.767-1.821,1.364-2.537,2.297c-0.007,0.411-0.202,0.829-0.292,1.256c-0.078,0.368-0.402,0.771-0.648,1.118
		c-0.417,0.589-1.092,0.932-1.706,1.314c-0.317,0.198-0.677,0.253-0.931,0.648c-0.19,0.297-0.758,0.479-1.162,0.485
		c-0.905,0.016-1.815,0.136-2.729-0.154c-0.355-0.113-0.472-0.563-0.886-0.48c-0.559-0.66-1.309-1.132-1.635-2.024
		c-0.248-0.679-0.736-1.264-0.899-2.005c-0.07-0.314-0.23-0.659-0.458-0.879c-0.398-0.384-0.517-0.875-0.664-1.353
		c-0.191-0.62-0.406-1.247-0.326-1.917c0.017-0.136-0.051-0.278,0.062-0.407C14.151,47.941,13.92,47.179,13.965,46.591z
		 M37.942,35.517c0.375,0.013,0.788,0.181,1.132-0.333c0.206,0.654,0.727,0.2,0.925,0.482c0.635,0.45,0.31,0.937,0.063,1.311
		c-0.22,0.333-0.082,0.762-0.453,0.975c0.578,0.515,1.018,0.606,1.491,0.147c0.434-0.419,0.977-0.674,1.389-1.119
		c0.758-0.818,1.591-1.566,2.351-2.382c0.515-0.553,1.137-0.742,1.885-0.774c0.229-0.489,0.778-0.502,1.214-0.613
		c1.245-0.317,1.463-0.419,2.286-1.58c-0.733,0.176-1.424-0.111-2.127,0.23c-0.328,0.159-0.878,0.18-1.242-0.049
		c-0.388-0.245-0.836-0.221-1.122-0.1c-0.664,0.28-1.323,0.182-1.976,0.167c-1.009-0.023-1.853,0.355-2.672,0.868
		c-0.454,0.284-0.876,0.599-1.403,0.784c-0.88,0.31-0.977,0.482-1.441,1.184c-0.157,0.237,0.087,0.614-0.208,0.798
		c-1.068,0.531-2.1,0.964-2.035,2.304c0.199,0.289,0.434,0.41,0.834,0.318C37.396,37.412,37.716,36.511,37.942,35.517z
		 M22.391,24.781c0.231,0.28,0.39,0.472,0.534,0.646c0.615,0,1.187,0,1.739,0c1.458,0.838,1.458,0.838,2.27,0.779
		c-0.014-0.311,0.072-0.68-0.065-0.923c-0.215-0.382-0.279-0.823-0.078-1.083c0.304-0.392,0.051-0.8,0.245-1.204
		c0.406-0.846,0.959-1.483,1.675-1.845c1.55-0.206,2.991,0.059,4.449-0.224c0.926-0.179,1.935-0.064,2.928,0.118
		c1.002,0.185,2.101,0.216,3.131-0.253c0-0.216,0-0.457,0-0.692c-0.786-0.458-1.705-0.61-2.558-1.201
		c-0.778,0.269-1.605-0.243-2.484-0.179c-0.911-0.628-1.95-0.395-2.947-0.426c-0.201-0.006-0.397-0.022-0.615,0.07
		c-0.85,0.361-1.714,0.696-2.673,0.576c-0.098-0.012-0.205,0.018-0.303,0.045c-0.451,0.125-0.909,0.231-1.348,0.39
		c-0.472,0.17-0.886,0.465-1.432,0.469c-0.225,0.001-0.522,0.232-0.659,0.441c-0.344,0.531-0.82,0.971-0.964,1.649
		c-0.13,0.609-0.271,1.251-0.637,1.777C22.349,24.066,22.413,24.438,22.391,24.781z M33.527,30.797
		c-0.463,0.516-0.998,0.937-1.256,1.642c-0.109,0.3-0.31,0.771-0.655,0.896c-0.73,0.264-1.261,0.859-2.057,1.042
		c-0.898,0.207-1.721,0.752-2.621,0.938c-0.67,0.138-1.198,0.432-1.732,0.756c-0.002,1.284,0.139,1.525,0.963,1.659
		c0.415-0.397,0.781-0.902,1.417-0.868c0.492,0.211,0.608,0.676,0.858,1.046c-0.033,0.475,0.121,0.982-0.25,1.368
		c0.246,0.396,0.625,0.473,0.955,0.622c0.122-0.09,0.23-0.169,0.324-0.238c0.465,0.181,0.899,0.349,1.289,0.499
		c0.191,0.498,0.435,0.849,1.029,0.814c0.224-0.25,0.462-0.516,0.754-0.842c0.12-0.717-0.45-1.47-0.188-2.259
		c-0.49-0.537-1.126-0.934-1.113-1.737c0.437-0.628,1.255-0.871,1.578-1.602c0.754-0.356,1.184-1.037,1.669-1.664
		c0.131-0.169,0.278-0.35,0.458-0.453c0.965-0.554,1.639-1.361,2.07-2.316c0.628-0.387,1.369-0.504,1.782-1.185
		c-0.659-0.175-1.038,0.328-1.518,0.522c-0.274,0.111-1.021,0.456-1.298,0.516c-0.461,0.1-0.91,0.192-1.298,0.527
		C34.384,30.745,33.984,30.922,33.527,30.797z M22.284,29.52c-1.265,0-2.523,0.02-3.78-0.009c-0.57-0.013-1.07,0.154-1.568,0.388
		c-0.27,0.126-0.545,0.239-0.786,0.344c-0.742,1.373-0.742,1.373-0.313,1.869c1.266,0.102,2.396-0.416,3.556-0.786
		c0.22-0.07,0.425-0.284,0.632-0.278c0.894,0.025,1.621-0.399,2.371-0.78c-0.088-0.22,0.142-0.293,0.189-0.448
		C22.508,29.744,22.432,29.667,22.284,29.52z M18.72,54.575c0-0.207,0.038-0.359-0.006-0.481c-0.261-0.725-0.664-1.405-0.642-2.212
		c-0.44-0.555-0.26-1.443-1.007-1.837c-0.196,0-0.41,0-0.619,0c-0.107,0.107-0.209,0.209-0.33,0.33
		c-0.089,1.805,1.031,3.005,2.04,4.2C18.387,54.575,18.495,54.575,18.72,54.575z M19.451,43.128
		c-0.349-0.026-0.592,0.067-0.738,0.429c-0.336,0.828-0.914,1.423-1.772,1.74c-0.213,0.078-0.451,0.229-0.363,0.547
		c0.106,0.146,0.294,0.134,0.389,0.082c1.028-0.556,2.224-0.684,3.237-1.277c0.08-0.047,0.193-0.042,0.235-0.128
		c0-0.23,0-0.442,0-0.653C19.979,43.783,19.782,43.361,19.451,43.128z M35.388,45.438c0.958,0.294,1.553-0.271,2.12-0.913
		c-0.008-0.331,0.108-0.711-0.323-0.944c-0.436-0.142-0.807,0.101-1.125,0.282C35.845,44.43,35.195,44.76,35.388,45.438z
		 M14.703,40.115c0.565-0.466,0.815-1.217,1.433-1.618c-0.048-0.269,0.081-0.527-0.083-0.743c-0.254,0-0.494,0-0.796,0
		c-0.372,0.738-0.745,1.479-1.111,2.204c0.067,0.066,0.09,0.11,0.118,0.114C14.403,40.092,14.543,40.101,14.703,40.115z
		 M23.267,44.191c-0.1-0.738-0.215-0.886-0.604-0.848c-0.355,0.034-0.448,0.226-0.407,0.848
		C22.563,44.191,22.871,44.191,23.267,44.191z M18.817,36.456c0.127-0.72,0.098-0.768-0.495-0.819
		C18.208,36.079,18.355,36.355,18.817,36.456z"/>
	
	
	
	
	
	
	
	
	
	
	
</g>
</svg>
