<?xml version="1.0" encoding="iso-8859-1"?>
<!-- Generator: Adobe Illustrator 16.0.0, SVG Export Plug-In . SVG Version: 6.00 Build 0)  -->
<!DOCTYPE svg PUBLIC "-//W3C//DTD SVG 1.1//EN" "http://www.w3.org/Graphics/SVG/1.1/DTD/svg11.dtd">
<svg version="1.1" id="Layer_1" xmlns="http://www.w3.org/2000/svg" xmlns:xlink="http://www.w3.org/1999/xlink" x="0px" y="0px"
	 width="72.36px" height="72.18px" viewBox="0 0 72.36 72.18" style="enable-background:new 0 0 72.36 72.18;" xml:space="preserve"
	>
<g>
	<path style="fill-rule:evenodd;clip-rule:evenodd;fill:none;" d="M-6.984,79.631c0-28.871,0-57.743,0-86.615
		c28.8,0,57.6,0,86.399,0c0,28.872,0,57.744,0,86.615C50.616,79.631,21.816,79.631-6.984,79.631z M30.698,39.253
		c-0.435,0.394-0.561,0.868-0.537,1.422c0.024,0.589,0.028,1.173-0.197,1.751c-0.266,0.684-0.327,1.469-0.689,2.086
		c-0.468,0.797-0.509,1.515-0.196,2.344c0.263,0.699,0.269,0.729-0.007,1.431c-0.146,0.371-0.204,0.723-0.201,1.105
		c0.005,0.612,0.001,1.224,0.002,1.836c0.228,0.101,0.167,0.37,0.306,0.522c0.659,0.165,1.122-0.766,1.83-0.33
		c-0.083,0.278,0.321,0.379,0.233,0.678c-0.622,0.621-1.367,1.184-1.854,1.918c-0.335,0.504-0.72,0.774-1.276,1.026
		c-0.099-0.121-0.208-0.255-0.329-0.403c0-0.557,0-1.13,0-1.7c-0.566-0.435-0.623-1.113-0.854-1.705
		c-0.388-0.992-0.501-2.106-1.293-2.922c-0.043-0.044-0.052-0.121-0.081-0.194c-0.309,0-0.623,0-0.915,0
		c-0.327,0.326-0.632,0.632-0.927,0.927c-0.025,0.842-0.691,1.444-0.722,2.327c-0.029,0.82-0.513,1.621-0.376,2.451
		c-0.316,0.271-0.486,0.655-0.949,0.528c-0.35-0.222-0.574-0.566-0.77-1.075c0.149-0.58-0.402-1.19-0.23-1.832
		c-0.22-0.22-0.373-0.373-0.508-0.509c-0.404,0-0.79,0-1.185,0c-0.281,0.46-0.46,0.921-0.474,1.452
		c-0.008,0.306,0.007,0.602-0.101,0.926c-0.291,0.868-0.742,1.605-1.372,2.205c-0.256,0.937,0.615,1.85-0.057,2.762
		c0.368,0.258,0.18,0.652,0.249,0.897c0.452,0.686,1.248,0.957,1.567,1.748c-0.442,0.197-0.157,0.679-0.462,0.936
		c0.596,0.488,1.001,1.13,1.694,1.474c0.719,0.357,1.463,0.661,2.125,1.151c0.29,0.215,0.66,0.445,1.096,0.477
		c0.245,0.018,0.517,0.183,0.705,0.358c0.35,0.326,0.794,0.407,1.21,0.465c0.455,0.064,0.833,0.199,1.245,0.406
		c0.37,0.186,0.713,0.541,1.202,0.482c0.881-0.105,1.677,0.285,2.5,0.485c0.487,0.118,0.956,0.347,1.461,0.37
		c1.985,0.091,3.977-0.146,5.96,0.208c1.265,0.226,2.518-0.335,3.796-0.203c0.068,0.007,0.179,0.018,0.203-0.019
		c0.319-0.463,0.934,0.064,1.252-0.378c0.463,0.068,0.878-0.159,1.293-0.274c0.684-0.191,1.426-0.144,2.06-0.493
		c0.475-0.262,0.996-0.381,1.491-0.574c0.464-0.18,0.939-0.326,1.392-0.554c1.075-0.54,2.131-1.115,3.196-1.672
		c0.753-0.394,1.453-0.88,2.125-1.356c1.105-0.785,2.225-1.595,3.134-2.633c0.212-0.243,0.418-0.565,0.694-0.663
		c0.587-0.21,0.935-0.686,1.254-1.112c0.897-1.2,2.183-2.13,2.622-3.659c0.018-0.061,0.112-0.094,0.146-0.154
		c0.523-0.942,1.315-1.722,1.639-2.785c-0.381-1.008-1.206-1.286-2.148-1.167c-0.412-0.223-0.751-0.406-1.279-0.691
		c0.533-0.164,0.782-0.465,1.213-0.386c0.165-0.176,0.336-0.359,0.542-0.58c-0.107-0.382,0.139-0.824-0.187-1.282
		c-0.149-0.209-0.386-0.401-0.46-0.662c-0.074-0.258-0.057-0.521-0.149-0.8c-0.212-0.636-0.627-1.218-0.692-1.867
		c-0.062-0.604-0.328-1.029-0.688-1.441c0.095-1.071-0.498-1.979-0.609-2.685c-0.42-0.458-0.681-0.743-0.95-1.037
		c-0.481,0.229-1.079,0.477-1.378,0.931c-0.373,0.569-0.71,1.229-0.719,1.96c-0.006,0.461-0.133,0.917-0.401,1.231
		c-0.479,0.563-0.517,1.248-0.658,1.891c-0.088,0.399-0.138,0.78-0.406,1.096c-0.323,0.059-0.586-0.07-0.69-0.356
		c-0.172-0.47-0.5-0.913-0.429-1.436c0.053-0.391-0.127-0.724-0.313-0.949c-0.445-0.541-0.655-1.168-0.907-1.793
		c-0.086-0.214-0.15-0.415-0.031-0.584c0.327-0.463,0.069-0.972,0.158-1.449c-0.436-0.378-0.112-0.881-0.248-1.343
		c0.423-0.154,0.635-0.597,0.646-0.892c0.047-1.318,0.205-2.666-0.397-3.924c0.163-0.543-0.427-1.065-0.186-1.514
		c0.312-0.578,0.021-1.18,0.273-1.727c0.28-0.608,0.051-1.253,0.142-1.885c-0.539-0.275-0.697-0.842-0.841-1.28
		c-0.37-1.132-0.902-2.159-1.55-3.141c-0.19-0.289-0.438-0.475-0.754-0.661c-0.857-0.503-1.69-1.071-2.327-1.914
		c0.444-0.812,0.216-1.665,0.275-2.403c-0.47-0.778-0.668-1.629-1.426-2.11c-0.385,0.142-0.646-0.327-1.073-0.247
		c-0.416,0.079-0.858,0.017-1.255,0.017c-0.556,0.518-1.326,0.761-1.459,1.674c-0.104,0.715-0.817,1.281-0.613,2.049
		c-0.251,0.426-0.639,0.733-1,0.779c-0.746,0.095-1.156,0.568-1.484,0.9c-0.208,0.691-0.446,1.17-0.763,1.609
		c-0.103,0.142-0.258,0.239-0.219,0.452c0.068,0.37-0.154,0.654-0.315,0.947c-0.211,0.383-0.524,0.724-0.667,1.127
		c-0.253,0.713-0.658,1.324-1.088,1.925c-0.629,0.879-1.158,1.82-1.667,2.768c-0.458,0.853-0.885,1.713-1.61,2.237
		c-0.309,1.148-0.546,2.196,0.164,3.113c0.964,0.37,1.293-0.573,1.943-0.799c0.327-0.114,0.566-0.342,0.677-0.731
		c0.051-0.179,0.168-0.347,0.199-0.564c0.145-1.015,0.746-1.85,1.165-2.754c0.096-0.207,0.348-0.381,0.639-0.503
		c0.67-0.281,1.185-0.778,1.442-1.515c0.106-0.303,0.217-0.658,0.545-0.828c0.343-0.102,0.547,0.092,0.665,0.236
		c0.403,1.444-0.646,2.474-0.809,3.72c-0.022,0.174-0.268,0.318-0.286,0.338c-0.474,1.678-1.03,3.139-1.855,4.616
		c0.03,0.631-0.181,1.433,0.339,1.93c0.21,0.659,0.018,1.175,0.204,1.715c0.349,1.013,0.903,1.929,1.263,2.936
		c0.149,0.416,0.32,0.796,0.383,1.253c0.06,0.434-0.001,0.797-0.132,1.223c-0.616-0.216-0.736-0.702-0.76-1.23
		c-0.041-0.913-0.549-1.535-1.215-2.037c-0.233,0-0.445,0-0.648,0c-0.108,0.117-0.248,0.206-0.293,0.33
		c-0.244,0.673-0.54,1.336-0.442,2.086c0.086,0.672-0.188,1.264-0.408,1.88c-0.128,0.36-0.507,0.12-0.545,0.284
		c-0.186-0.118-0.399-0.253-0.436-0.276c-0.256-0.851-0.404-1.532-0.337-2.238c0.06-0.628-0.274-1.176-0.758-1.379
		c-0.478-0.2-0.655-0.569-0.719-0.898c-0.104-0.538-0.359-1.014-0.498-1.534c-0.167-0.628-0.289-1.361-0.963-1.713
		C31.249,39.253,30.964,39.253,30.698,39.253z M62.257,31.222c-0.237,0.304-0.642,0.259-0.764,0.59c0,0.139,0,0.279,0,0.412
		c0.252,0.31,0.617,0.399,0.828,0.52c0.286-0.216,0.507-0.384,0.711-0.538c-0.123-0.274-0.218-0.483-0.314-0.698
		C62.578,31.441,62.372,31.484,62.257,31.222z M27.251,17.199c-0.324,0.452-0.928,0.511-1.176,1.021
		c0.167,0.051,0.198,0.289,0.421,0.286c0.416-0.244,0.952-0.356,1.099-0.942C27.492,17.456,27.398,17.355,27.251,17.199z"/>
	<path style="fill-rule:evenodd;clip-rule:evenodd;" d="M30.698,39.253c0.267,0,0.551,0,0.851,0
		c0.674,0.352,0.796,1.085,0.963,1.713c0.139,0.521,0.394,0.996,0.498,1.534c0.064,0.329,0.241,0.698,0.719,0.898
		c0.484,0.203,0.817,0.751,0.758,1.379c-0.067,0.706,0.081,1.388,0.337,2.238c0.037,0.023,0.25,0.158,0.436,0.276
		c0.039-0.164,0.417,0.076,0.545-0.284c0.22-0.616,0.495-1.208,0.408-1.88c-0.097-0.75,0.199-1.413,0.442-2.086
		c0.045-0.124,0.185-0.213,0.293-0.33c0.203,0,0.415,0,0.648,0c0.666,0.502,1.174,1.124,1.215,2.037
		c0.023,0.528,0.144,1.015,0.76,1.23c0.131-0.426,0.191-0.789,0.132-1.223c-0.063-0.457-0.233-0.837-0.383-1.253
		c-0.359-1.007-0.914-1.923-1.263-2.936c-0.187-0.54,0.006-1.056-0.204-1.715c-0.52-0.497-0.309-1.299-0.339-1.93
		c0.825-1.477,1.382-2.938,1.855-4.616c0.019-0.02,0.264-0.165,0.286-0.338c0.162-1.246,1.212-2.276,0.809-3.72
		c-0.118-0.144-0.322-0.337-0.665-0.236c-0.328,0.169-0.438,0.524-0.545,0.828c-0.258,0.737-0.772,1.234-1.442,1.515
		c-0.291,0.123-0.543,0.297-0.639,0.503c-0.418,0.905-1.02,1.739-1.165,2.754c-0.031,0.217-0.148,0.386-0.199,0.564
		c-0.111,0.389-0.351,0.618-0.677,0.731c-0.649,0.226-0.979,1.169-1.943,0.799c-0.71-0.917-0.472-1.965-0.164-3.113
		c0.725-0.523,1.151-1.384,1.61-2.237c0.509-0.948,1.038-1.888,1.667-2.768c0.43-0.601,0.835-1.212,1.088-1.925
		c0.143-0.404,0.456-0.744,0.667-1.127c0.161-0.293,0.384-0.578,0.315-0.947c-0.039-0.213,0.116-0.31,0.219-0.452
		c0.316-0.439,0.555-0.917,0.763-1.609c0.328-0.332,0.738-0.806,1.484-0.9c0.361-0.045,0.749-0.353,1-0.779
		c-0.204-0.769,0.51-1.334,0.613-2.049c0.133-0.913,0.903-1.156,1.459-1.674c0.396,0,0.839,0.062,1.255-0.017
		c0.427-0.081,0.688,0.388,1.073,0.247c0.758,0.48,0.956,1.332,1.426,2.11c-0.06,0.738,0.169,1.592-0.275,2.403
		c0.637,0.843,1.47,1.411,2.327,1.914c0.315,0.186,0.563,0.372,0.754,0.661c0.647,0.982,1.18,2.008,1.55,3.141
		c0.144,0.438,0.302,1.005,0.841,1.28C52.771,28.498,53,29.143,52.72,29.75c-0.253,0.547,0.038,1.149-0.273,1.727
		c-0.241,0.449,0.349,0.971,0.186,1.514c0.603,1.258,0.444,2.606,0.397,3.924c-0.011,0.295-0.223,0.738-0.646,0.892
		c0.136,0.462-0.188,0.965,0.248,1.343c-0.089,0.478,0.169,0.986-0.158,1.449c-0.119,0.169-0.055,0.37,0.031,0.584
		c0.252,0.625,0.462,1.252,0.907,1.793c0.186,0.226,0.365,0.559,0.313,0.949c-0.071,0.522,0.257,0.966,0.429,1.436
		c0.104,0.286,0.367,0.415,0.69,0.356c0.269-0.315,0.318-0.696,0.406-1.096c0.142-0.643,0.18-1.327,0.658-1.891
		c0.269-0.314,0.396-0.771,0.401-1.231c0.009-0.73,0.346-1.391,0.719-1.96c0.299-0.454,0.896-0.701,1.378-0.931
		c0.27,0.294,0.53,0.579,0.95,1.037c0.111,0.706,0.704,1.613,0.609,2.685c0.359,0.412,0.626,0.838,0.688,1.441
		c0.065,0.649,0.48,1.231,0.692,1.867c0.093,0.278,0.075,0.542,0.149,0.8c0.074,0.261,0.311,0.453,0.46,0.662
		c0.325,0.458,0.079,0.9,0.187,1.282c-0.206,0.221-0.377,0.404-0.542,0.58c-0.431-0.079-0.68,0.222-1.213,0.386
		c0.528,0.285,0.867,0.469,1.279,0.691c0.942-0.119,1.768,0.159,2.148,1.167c-0.323,1.063-1.115,1.843-1.639,2.785
		c-0.034,0.061-0.129,0.094-0.146,0.154c-0.439,1.529-1.725,2.459-2.622,3.659c-0.319,0.427-0.667,0.902-1.254,1.112
		c-0.276,0.098-0.482,0.42-0.694,0.663c-0.909,1.038-2.028,1.848-3.134,2.633c-0.672,0.477-1.372,0.963-2.125,1.356
		c-1.065,0.557-2.121,1.132-3.196,1.672c-0.452,0.228-0.928,0.374-1.392,0.554c-0.495,0.193-1.017,0.313-1.491,0.574
		c-0.634,0.35-1.376,0.302-2.06,0.493c-0.415,0.115-0.83,0.343-1.293,0.274c-0.318,0.442-0.933-0.085-1.252,0.378
		c-0.024,0.036-0.135,0.025-0.203,0.019c-1.278-0.132-2.531,0.429-3.796,0.203c-1.983-0.354-3.975-0.117-5.96-0.208
		c-0.505-0.023-0.975-0.252-1.461-0.37c-0.824-0.2-1.619-0.591-2.5-0.485c-0.489,0.059-0.833-0.297-1.202-0.482
		c-0.412-0.207-0.79-0.342-1.245-0.406c-0.416-0.058-0.86-0.139-1.21-0.465c-0.188-0.176-0.459-0.341-0.705-0.358
		c-0.437-0.031-0.806-0.262-1.096-0.477c-0.661-0.49-1.406-0.794-2.125-1.151c-0.692-0.344-1.098-0.985-1.694-1.474
		c0.305-0.257,0.02-0.738,0.462-0.936c-0.319-0.791-1.115-1.063-1.567-1.748c-0.068-0.245,0.119-0.64-0.249-0.897
		c0.672-0.912-0.199-1.825,0.057-2.762c0.63-0.6,1.082-1.337,1.372-2.205c0.108-0.324,0.093-0.62,0.101-0.926
		c0.014-0.531,0.193-0.992,0.474-1.452c0.396,0,0.781,0,1.185,0c0.136,0.136,0.289,0.289,0.508,0.509
		c-0.171,0.642,0.38,1.252,0.23,1.832c0.196,0.509,0.42,0.854,0.77,1.075c0.463,0.127,0.633-0.257,0.949-0.528
		c-0.136-0.83,0.347-1.631,0.376-2.451c0.031-0.883,0.697-1.485,0.722-2.327c0.295-0.295,0.601-0.601,0.927-0.927
		c0.292,0,0.605,0,0.915,0c0.029,0.073,0.038,0.15,0.081,0.194c0.792,0.815,0.906,1.93,1.293,2.922
		c0.231,0.592,0.289,1.271,0.854,1.705c0,0.57,0,1.144,0,1.7c0.121,0.148,0.23,0.282,0.329,0.403
		c0.556-0.252,0.941-0.522,1.276-1.026c0.487-0.734,1.232-1.297,1.854-1.918c0.087-0.299-0.316-0.399-0.233-0.678
		c-0.708-0.436-1.171,0.495-1.83,0.33c-0.139-0.152-0.078-0.422-0.306-0.522c0-0.612,0.003-1.224-0.001-1.836
		c-0.003-0.383,0.055-0.734,0.201-1.105c0.276-0.701,0.271-0.731,0.007-1.431c-0.313-0.829-0.272-1.547,0.196-2.344
		c0.362-0.617,0.423-1.402,0.689-2.086c0.225-0.578,0.221-1.162,0.197-1.751C30.137,40.121,30.263,39.646,30.698,39.253z
		 M45.063,46.267c0.046-0.739,0.02-1.452-0.361-2.122c-0.155-0.273-0.172-0.7-0.012-0.914c0.235-0.314,0.146-0.61,0.159-0.912
		c0.023-0.57,0.007-1.142,0.007-1.711c-0.369-0.181-0.387-0.594-0.669-0.853c0.217-0.658-0.257-1.264-0.208-1.908
		c-0.182-0.192-0.353-0.373-0.56-0.593c-0.832,1.105-1.387,2.289-1.36,3.677c0.009,0.475,0.275,0.918,0.234,1.424
		c-0.009,0.107,0.121,0.408,0.271,0.513c0.309,0.217,0.376,0.578,0.585,0.852c0.359,0.471,0.559,1.095,0.371,1.645
		c-0.105,0.308-0.214,0.604-0.157,0.893c0.055,0.283-0.287,0.327-0.217,0.645c0.29,0.021,0.096,0.382,0.264,0.513
		c0.351,0,0.666,0,0.924,0C44.761,47.096,44.726,46.561,45.063,46.267z M49.46,37.982c0.217-0.217,0.396-0.395,0.576-0.575
		c-0.066-1.339,0.27-2.651,0.252-4.001c-0.019-1.368-0.696-2.636-0.454-3.906c-0.327-0.595-0.583-1.105-0.882-1.588
		c-0.174-0.281-0.431-0.478-0.799-0.286c-0.293,0.387-0.246,0.838-0.285,1.287c-0.091,1.065,0.37,2.079,0.243,3.147
		c-0.023,0.202,0.15,0.433,0.253,0.641c0.331,0.67,0.595,1.636,0.595,2.233c0.001,0.753,0,1.507,0,2.203
		C49.125,37.415,49.262,37.648,49.46,37.982z M31.114,58.042c-0.279,0.297-0.505,0.43-0.496,0.545
		c0.045,0.601-0.263,1.131-0.259,1.737c0.007,1.114,0.238,2.254-0.211,3.302c0.236,0.258,0.44,0.481,0.692,0.757
		c0.194-0.27,0.358-0.498,0.598-0.833c-0.087-0.448,0.271-0.908,0.631-1.28C32.302,60.746,31.757,59.481,31.114,58.042z
		 M25.742,62.131c-0.239,0.315-0.618,1.126-0.531,1.279c0.165,0.293,0.2,0.689,0.593,0.885c0.467-0.602,0.163-1.257,0.267-1.813
		C25.937,62.339,25.84,62.235,25.742,62.131z M54.989,47.245c-0.395,0.01-0.811-0.172-1.029,0.35
		c0.346,0.069,0.613,0.479,1.029,0.199C54.989,47.635,54.989,47.469,54.989,47.245z M22.967,58.519
		c0.513,0.746,0.592,0.755,1.112,0.229C23.815,58.344,23.442,58.455,22.967,58.519z"/>
	<path style="fill-rule:evenodd;clip-rule:evenodd;fill:none;" d="M45.063,46.267c-0.337,0.294-0.302,0.829-0.729,1.146
		c-0.258,0-0.573,0-0.924,0c-0.168-0.131,0.026-0.491-0.264-0.513c-0.07-0.317,0.271-0.361,0.217-0.645
		c-0.057-0.289,0.052-0.585,0.157-0.893c0.188-0.55-0.012-1.174-0.371-1.645c-0.209-0.273-0.276-0.635-0.585-0.852
		c-0.149-0.104-0.279-0.405-0.271-0.513c0.041-0.506-0.226-0.949-0.234-1.424c-0.026-1.388,0.528-2.571,1.36-3.677
		c0.207,0.22,0.378,0.4,0.56,0.593c-0.049,0.645,0.425,1.25,0.208,1.908c0.282,0.259,0.3,0.672,0.669,0.853
		c0,0.569,0.017,1.141-0.007,1.711c-0.013,0.302,0.076,0.598-0.159,0.912c-0.16,0.214-0.144,0.641,0.012,0.914
		C45.083,44.814,45.109,45.527,45.063,46.267z"/>
	<path style="fill-rule:evenodd;clip-rule:evenodd;fill:none;" d="M49.46,37.982c-0.198-0.334-0.336-0.567-0.501-0.846
		c0-0.696,0.001-1.449,0-2.203c0-0.597-0.264-1.563-0.595-2.233c-0.103-0.208-0.276-0.439-0.253-0.641
		c0.127-1.068-0.334-2.082-0.243-3.147c0.039-0.449-0.008-0.9,0.284-1.287c0.369-0.192,0.626,0.005,0.8,0.286
		c0.299,0.483,0.555,0.993,0.882,1.588c-0.242,1.27,0.436,2.538,0.454,3.906c0.018,1.35-0.318,2.662-0.252,4.001
		C49.856,37.588,49.677,37.766,49.46,37.982z"/>
	<path style="fill-rule:evenodd;clip-rule:evenodd;fill:none;" d="M31.114,58.042c0.643,1.439,1.188,2.704,0.955,4.228
		c-0.36,0.372-0.718,0.832-0.631,1.28c-0.24,0.335-0.404,0.563-0.598,0.833c-0.252-0.275-0.456-0.499-0.692-0.757
		c0.45-1.048,0.218-2.188,0.211-3.302c-0.004-0.606,0.305-1.137,0.259-1.737C30.609,58.472,30.835,58.339,31.114,58.042z"/>
	<path style="fill-rule:evenodd;clip-rule:evenodd;fill:none;" d="M25.742,62.131c0.098,0.104,0.194,0.208,0.329,0.351
		c-0.104,0.557,0.2,1.212-0.267,1.813c-0.393-0.195-0.429-0.592-0.593-0.885C25.125,63.257,25.503,62.446,25.742,62.131z"/>
	<path style="fill-rule:evenodd;clip-rule:evenodd;fill:none;" d="M54.989,47.245c0,0.224,0,0.39,0,0.549
		c-0.416,0.28-0.684-0.13-1.029-0.199C54.178,47.073,54.594,47.255,54.989,47.245z"/>
	<path style="fill-rule:evenodd;clip-rule:evenodd;fill:none;" d="M22.967,58.519c0.476-0.063,0.848-0.175,1.112,0.229
		C23.559,59.273,23.479,59.265,22.967,58.519z"/>
</g>
</svg>
