<?xml version="1.0" encoding="iso-8859-1"?>
<!-- Generator: Adobe Illustrator 16.0.0, SVG Export Plug-In . SVG Version: 6.00 Build 0)  -->
<!DOCTYPE svg PUBLIC "-//W3C//DTD SVG 1.1//EN" "http://www.w3.org/Graphics/SVG/1.1/DTD/svg11.dtd">
<svg version="1.1" id="Layer_1" xmlns="http://www.w3.org/2000/svg" xmlns:xlink="http://www.w3.org/1999/xlink" x="0px" y="0px"
	 width="72.36px" height="72.18px" viewBox="0 0 72.36 72.18" style="enable-background:new 0 0 72.36 72.18;" xml:space="preserve"
	>
<g>
	
	<path fill="currentColor" d="M19.358,53.661c0.051-0.064,0.161-0.141,0.168-0.224
		c0.04-0.496,0.056-0.993,0.077-1.436c-0.479-0.888-0.767-1.776-0.924-2.749c-0.108-0.123-0.304-0.259-0.381-0.444
		c-0.396-0.951-1.456-1.115-2.077-1.793c-0.514-0.054-0.945,0.124-1.317,0.458c-0.121,0.636-0.45,1.216-0.21,1.91
		c0.2,0.578,0.349,1.162,0.809,1.634c-0.204,0.67,0.382,1.262,0.202,1.824c0.315,0.817,0.912,1.401,0.87,2.241
		c-0.286,0.263-0.458,0.686-0.954,0.571c-0.562-0.337-0.745-1.063-1.439-1.321c0.074-0.637-0.148-1.154-0.616-1.568
		c-0.128-0.114-0.25-0.221-0.253-0.438c-0.008-0.441-0.283-0.759-0.587-1.049c-0.13-0.125-0.247-0.264-0.384-0.38
		c-0.572-0.485-0.876-1.078-0.736-1.819c-0.229-0.229-0.433-0.433-0.57-0.57c-0.301-0.555-0.27-1.107-0.49-1.618
		c-0.216-0.5-0.792-0.702-0.809-1.325c0.243-0.252,0.093-0.654,0.142-1.114c-0.191-0.18-0.424-0.397-0.579-0.543
		c-0.42-0.879-0.272-1.732-0.302-2.65c-0.203-0.163-0.452-0.363-0.644-0.518c0-0.79-0.008-1.474,0.004-2.157
		c0.004-0.235-0.079-0.482,0.146-0.698c0.163-0.156,0.119-0.442,0.051-0.61c-0.315-0.781-0.284-1.524-0.013-2.319
		c0.107-0.314,0.205-0.787-0.227-1.035c0.221-0.377,0.297-0.768,0.658-1.015c0-0.694,0-1.406,0-2.053
		c0.261-0.508,0.49-0.953,0.74-1.439c-0.321-0.386-0.298-0.839-0.275-1.28c0.187-0.302,0.516-0.459,0.663-0.815
		c0.115-0.278,0.402-0.485,0.609-0.72c-0.037-1.124,0.603-1.985,1.175-2.857c0.225-0.343,0.446-0.654,0.601-1.051
		c0.194-0.493,0.582-0.917,0.919-1.344c0.222-0.28,0.503-0.514,0.769-0.78c0-0.202,0-0.415,0-0.648
		c0.68-0.68,1.374-1.356,2.045-2.055c0.211-0.22,0.505-0.37,0.577-0.734c0.033-0.168,0.227-0.309,0.464-0.371
		c0.25-0.065,0.448-0.334,0.697-0.39c0.673-0.151,0.861-0.88,1.477-1.132c0.518-0.212,1.067-0.451,1.455-0.935
		c0.325-0.405,0.737-0.73,1.187-1.019c0.282-0.182,0.767-0.192,0.792-0.73c0.005-0.113,0.391-0.299,0.597-0.293
		c0.406,0.011,0.777-0.108,1.049-0.336c0.307-0.257,0.742,0.099,0.968-0.289c0.784-0.097,1.425-0.563,2.124-0.867
		c0.47-0.204,0.919-0.251,1.381-0.291c0.47-0.139,0.747-0.513,1.075-0.829c0.141,0,0.286,0.012,0.428-0.002
		c0.319-0.032,0.582,0.438,0.863,0.19c0.265-0.233,0.576-0.075,0.783-0.206c0.397-0.25,0.808-0.212,1.217-0.191
		c1.097,0.056,2.154-0.35,3.261-0.249c0.242,0.022,0.55-0.201,0.798-0.395c0.315-0.246,0.679-0.436,1.038-0.615
		c0.291-0.145,0.544-0.032,0.772,0.278c0,0.401,0,0.859,0,1.171c0.312,0.606,0.539,1.093,0.811,1.552
		c0.106,0.18,0.121,0.44,0.058,0.495c-0.304,0.266-0.175,0.594-0.201,0.899c-0.052,0.621,0.114,1.251-0.201,1.861
		c-0.187,0.36,0.218,0.708,0.244,1.074c-0.692,0.71-1.231,1.453-1.15,2.252c-0.169,0.763-0.602,0.959-1.082,1.199
		c-0.607,0.304-1.325,0.529-1.628,1.281c-0.074,0.183-0.355,0.308-0.548,0.446c-0.572,0.411-1.206,0.737-1.579,1.439
		c-0.282,0.53-0.81,0.996-1.41,1.223c-0.479,0.181-0.71,0.525-0.834,0.943c-0.06,0.201-0.175,0.453-0.256,0.53
		c-0.813,0.773-1.374,1.712-1.963,2.652c-0.493,0.787-1.177,1.452-1.724,2.209c-0.207,0.286-0.297,0.669-0.389,1.022
		c-0.111,0.428,0.048,0.861-0.175,1.335c-0.171,0.363-0.183,0.838-0.43,1.225c-0.083,0.13-0.046,0.342-0.048,0.517
		c-0.005,0.468-0.002,0.936-0.002,1.404c0.238,0.292,0.28,0.72,0.631,0.889c0.041,0.699,0.285,1.244,0.674,1.818
		c0.628,0.928,1.491,1.473,2.414,2c0.239,0.137,0.41,0.39,0.635,0.559c0.489,0.366,0.975,0.75,1.64,0.731
		c0.139-0.004,0.312-0.026,0.411,0.043c0.785,0.547,1.739,0.677,2.582,1.071c0.47,0.22,0.927,0.423,1.456,0.396
		c1.371,1.177,1.508,1.299,2.633,1.516c0.262,0.272,0.535,0.558,0.831,0.865c0.307,0,0.62,0,0.984,0
		c0.435,1.179,1.415,1.904,2.241,2.759c0.348,0.359,0.497,0.77,0.609,1.266c0.176,0.767,0.153,1.526,0.194,2.292
		c0.05,0.933,0.012,1.554-0.219,2.211c0.073,0.079,0.145,0.157,0.223,0.242c-0.292,0.78-0.644,1.543-0.858,2.343
		c-0.216,0.806-0.981,1.302-1.176,2.241c-0.522,0.435-0.956,1.073-1.231,1.84c-0.109,0.307-0.334,0.57-0.437,0.899
		c-0.104,0.332-0.522,0.305-0.744,0.534c-0.65,0.673-1.323,1.324-1.979,1.99c-0.323,0.327-0.672,0.591-1.278,0.615
		c-0.098-0.185-0.235-0.44-0.469-0.88c0.079-0.32,0.292-0.921,0.818-1.399c0-1.021-0.013-2.062,0.007-3.102
		c0.006-0.336-0.006-0.651,0.165-1.011c0.275-0.574-0.072-1.168-0.687-1.619c-0.255-0.188-0.468-0.432-0.691-0.643
		c-0.196,0-0.376,0-0.617,0c-1.137,0.96-1.727,2.275-2.044,3.723c-0.062,0.279-0.217,0.492-0.306,0.743
		c-0.098,0.279-0.462,0.411-0.586,0.728c-0.109,0.279-0.273,0.536-0.437,0.848c0.342,0.383,0.206,0.889,0.231,1.426
		c-0.166,0.134-0.36,0.29-0.537,0.432c-0.159-0.132-0.365-0.303-0.542-0.45c-0.046-0.46,0.15-0.775,0.427-1.092
		c0-0.616,0.139-1.303-0.033-1.898c-0.255-0.882-0.147-1.748-0.172-2.62c-0.01-0.368-0.048-0.722,0.173-1.116
		c0.28-0.501-0.09-1.099-0.231-1.606c-0.113-0.406-0.099-0.813-0.212-1.197c-0.232-0.582-0.733-0.936-1.142-1.371
		c-0.213,0-0.428,0-0.621,0c-0.344,0.333-0.679,0.657-0.943,0.913c-0.418,1.273-0.256,2.583-0.892,3.731
		c-0.152,0.275-0.058,0.707-0.025,1.063c0.079,0.86-0.275,1.537-0.84,2.169c-0.081,0.704-0.092,1.459-0.588,2.121
		c-0.526-0.225-0.741-0.66-0.718-1.079c0.08-1.459-0.147-2.895-0.25-4.338c-0.112-1.569,0.396-3.098,0.201-4.698
		c-0.271-0.294-0.48-0.664-0.664-1.08c-0.163-0.368-0.206-0.779-0.446-1.125c-0.807-0.408-1.634-0.391-2.463-0.016
		c-0.291,0.642-0.467,1.281-0.123,1.975c0.086,0.174,0.133,0.485,0.037,0.611c-0.322,0.424-0.144,0.887-0.201,1.327
		c-0.039,0.302,0.038,0.59-0.165,0.91c-0.164,0.258-0.178,0.774-0.023,1.037c0.417,0.708,0.126,1.24-0.263,1.835
		c0.164,0.37,0.54,0.804-0.136,1.104c-0.614-0.367-0.634-0.444-0.302-1.147c-0.336-0.619-0.535-1.239-0.652-1.925
		C19.882,54.983,19.603,54.389,19.358,53.661z"/>
	<path fill="currentColor" d="M29.651,35.346c-0.155,0-0.297,0-0.447,0
		c-0.187-0.147-0.311-0.329-0.389-0.578c-0.196-0.631-0.682-1.225-0.16-1.914c-0.034-0.525,0.031-1.029,0.208-1.533
		c0.282-0.801,0.738-1.186,1.588-1.605c0.77-0.38,1.456-0.928,1.896-1.396c0.466-0.825,0.422-1.525,0.414-2.222
		c-0.002-0.17,0.009-0.321,0.113-0.494c0.362-0.6,0.619-1.269,1.019-1.84c0.519-0.744,1.321-1.062,2.226-1.173
		c0.566-0.697,1.429-1.017,2.184-1.465c0.447-0.266,0.885-0.508,1.25-0.881c0.555-0.565,1.118-1.121,1.706-1.708
		c0.651-0.008,1.172-0.381,1.515-0.903c0.234-0.356,0.48-0.687,0.793-0.957c0.226-0.196,0.346-0.481,0.398-0.699
		c0.194-0.804,0.623-1.438,1.199-1.99c0.68-0.65,0.972-1.571,1.624-2.234c0.049-0.56-0.105-1.142,0.295-1.627
		c0.291-0.141,0.529-0.046,0.783,0.282c-0.105,0.76,0.456,1.53,0.185,2.369c-0.262,0.51-0.523,1.017-0.819,1.593
		c0.033,0.508-0.003,1.093-0.297,1.73c-0.129,0.128-0.332,0.332-0.545,0.544c0,0.304,0,0.618,0,0.909
		c0.099,0.099,0.176,0.175,0.252,0.251c0.064,0.017,0.13,0.047,0.195,0.048c0.396,0.004,0.797,0.044,1.187-0.006
		c1.033-0.135,2.046,0.119,3.035,0.274c0.892,0.14,1.817,0.447,2.628,0.917c0.493,0.286,1.155,0.271,1.495,0.827
		c0.017,0.028,0.028,0.06,0.048,0.104c-0.021,0.318-0.345,0.419-0.525,0.693c-1.011,0-2.052,0.054-3.084-0.02
		c-0.616-0.044-1.219-0.232-1.855-0.206c-0.739,0.03-1.426,0.203-1.988,0.673c-0.36,0.301-0.871,0.181-1.191,0.524
		c0.016,0.204-0.075,0.437,0.15,0.583c0.579,0.377,1.198,0.633,1.906,0.61c0.54,0.611,1.287,0.979,1.839,1.586
		c0.166,0.184,0.477,0.393,0.813,0.352c0.225-0.027,0.282,0.188,0.45,0.276c0,0.282,0,0.563,0,0.87
		c0.248,0.275,0.562,0.513,0.557,1.01c-0.578,0.614,0.467,1.346,0.164,2.139c-0.178,0.12-0.354,0.24-0.507,0.342
		c0.437,0.873,0.146,1.739,0.264,2.569c-0.42,0.411-0.827,0.811-1.244,1.219c-0.241,0.028-0.485,0.017-0.711-0.373
		c0.075-0.843-0.324-1.705-0.69-2.576c-0.661-0.326-0.332-1.353-1.204-1.657c-0.054,1.253-0.299,2.418-0.575,3.82
		c-0.003,0.008-0.318,0.072-0.35,0.362c0.039,0.259,0.329,0.342,0.434,0.564c0,0.18,0,0.36,0,0.54
		c-0.033,0.058-0.055,0.129-0.102,0.172c-0.284,0.26-0.506,0.562-0.695,0.899c-0.103,0.182-0.091,0.359-0.058,0.512
		c0.229,1.06,0.233,1.057-0.008,1.875c-0.123,0.416-0.198,0.848-0.47,1.298c0.601,0.519,0.792,1.228,0.672,2.018
		c0.371,0.31,0.566,0.764,0.891,1.035c0.313,0.262,0.647,0.514,0.961,0.796c0.352,0,0.711,0,1.076,0
		c0.274,0.281,0.551,0.563,0.818,0.837c2.578,0.087,3.093,0.035,4.058-0.412c0.281,0.082,0.384,0.405,0.628,0.534
		c0.408,0.217,0.776,0.479,1.328,0.236c0.535-0.235,1.141-0.22,1.705,0.092c0.194,0.108,0.354,0.213,0.425,0.416
		c0.294,0.832,0.927,1.348,1.689,1.771c0,0.392,0,0.778,0,1.123c0.29,0.283,0.316,0.688,0.644,0.852
		c0.217,0.761-0.346,1.44-0.171,2.18c-0.423,0.396-0.022,1.04-0.433,1.44c0.059,0.708-0.435,1.139-0.843,1.591
		c-0.558,0.619-1.1,1.229-1.568,1.936c-0.526,0.793-1.323,1.409-2.024,2.079c-0.069,0.066-0.252,0.047-0.36,0.162
		c-0.297,0.313-0.608,0.613-0.913,0.919c-0.934-0.119-1.486,0.775-2.339,0.879c-0.455-0.26-0.497-0.65-0.273-1.064
		c0.258-0.478,0.508-0.968,0.909-1.353c0.182-0.175,0.354-0.358,0.535-0.533c0.895-0.861,1.756-1.753,2.541-2.892
		c-0.164-0.739,0.309-1.505,0.535-2.316c0.081-0.287,0.152-0.468-0.01-0.751c-0.197-0.346-0.028-0.766-0.09-1.151
		c-0.626-0.6-1.163-1.313-2.237-1.603c-0.229,0-0.661,0-1.062,0c-0.469,0.32-1.055,0.424-1.419,1.008c0,0.215,0,0.529,0,0.805
		c-0.33,0.335-0.632,0.615-0.814,1.012c-0.085,0.183-0.092,0.354-0.062,0.51c0.149,0.774,0.056,1.219-0.41,1.708
		c-0.074,0.078-0.152,0.153-0.229,0.229c-0.024,1.246-0.105,1.845-1.056,2.313c0.082,0.382-0.298,0.69-0.256,1.152
		c-0.454,0.175-0.768,0.541-1.084,0.901c0.081,0.443-0.374,0.732-0.245,1.131c-0.889,0.449-1.435,1.165-2.043,1.798
		c-0.578,0.601-1.249,0.956-2.061,1.027c-0.24,0.021-0.411,0.084-0.541,0.263c-0.185,0.256-0.42,0.201-0.68,0.132
		c-0.237-0.596,0.485-0.957,0.376-1.575c0.967-0.733,1.319-1.918,1.945-2.924c0.214-0.344,0.476-0.674,0.635-1.031
		c0.238-0.534,0.268-1.137,0.246-1.736c-0.029-0.788,0.003-0.822,0.399-1.616c-0.295-0.556-0.304-1.073,0.021-1.624
		c-0.132-0.232-0.163-0.555-0.435-0.786c0.058-0.42-0.111-0.891,0.182-1.358c-0.628-1.253-1.557-2.557-2.623-3.685
		c-0.139-0.146-0.298-0.265-0.377-0.49c-0.102-0.287-0.358-0.476-0.653-0.629c-0.952-0.496-1.91-0.991-2.78-1.624
		c-0.288-0.21-0.59-0.031-0.896-0.194c-0.672-0.356-1.432-0.543-2.112-0.886c-0.229-0.115-0.513,0.045-0.685-0.197
		c-0.274-0.429-0.547-0.857-0.831-1.302c-0.063-0.575-0.028-1.135,0.332-1.665c0.226-0.333,0.011-0.766,0.125-1.186
		c0.41-0.404,0.9-0.818,0.826-1.55c-0.033-0.323,0.332-0.407,0.446-0.677c0.283-0.67,0.817-1.165,1.45-1.498
		c0.617-0.325,0.88-0.795,0.916-1.519c-0.485,0.043-0.813,0.248-1.099,0.545c-0.482,0.5-1.069,0.854-1.646,1.232
		c-0.726,0.476-1.483,0.711-2.335,0.566c-0.334-0.232-0.78-0.334-0.976-0.895c0-0.034,0-0.214,0-0.482
		c0.394-0.405,0.935-0.829,0.837-1.729c-0.33,0.291-0.702,0.177-0.886,0.652c-0.15,0.388-0.588,0.696-1.065,0.745
		c-0.529,0.054-0.88,0.362-1.239,0.749c0,0.178,0,0.387,0,0.659C30.221,34.082,30.126,34.849,29.651,35.346z M37.907,27.144
		c0.43-0.805,1.263-1.342,1.581-2.245c-0.762-0.813-1.414-0.01-2.09,0.099c-0.691,0.112-0.835,0.722-0.97,1.203
		c0.319,0.322,0.59,0.595,0.935,0.943C37.394,27.144,37.574,27.144,37.907,27.144z M35.028,30.382c0.101-0.071,0.101-0.143,0-0.214
		C34.927,30.239,34.927,30.312,35.028,30.382z"/>
	<path fill="currentColor" d="M57.366,21.192c-0.293-0.285-0.487-0.727-0.668-1.217
		c-0.294-0.801-0.834-1.525-1.541-2.044c-0.212-0.156-0.497-0.327-0.846-0.304c-0.671,0.045-1.229-0.305-1.863-0.638
		c-0.879,0.162-1.781-0.374-2.719-0.202c-0.123-0.122-0.225-0.224-0.337-0.336c0-0.131,0-0.274,0-0.417
		c0-0.54-0.053-1.086,0.015-1.617c0.065-0.511,0.553-0.835,0.736-1.31c0.049-0.124,0.102-0.246,0.087-0.211
		c0.665-0.74,1.283-0.301,1.918-0.169c0.104,0.105,0.247,0.22,0.356,0.361c0.679,0.871,1.656,1.339,2.563,1.897
		c0.26,0.16,0.576,0.196,0.612,0.604c0.01,0.111,0.208,0.249,0.383,0.331c0.56,0.262,0.986,0.732,1.29,1.224
		c0.231,0.376,0.499,0.724,0.826,0.931c0.766,0.484,1.296,1.197,1.955,1.758c0.054,0.43,0.161,0.843,0.469,1.115
		c0.44,0.39,0.626,0.89,0.749,1.422c0.24,1.029,0.839,1.885,1.303,2.807c0.24,0.478,0.489,0.952,0.778,1.515
		c0.019,0.477-0.117,1.095,0.365,1.574c-0.039,0.872,0.405,1.647,0.497,2.492c0.105,0.981,0.162,1.976,0.581,2.889
		c0.084,0.184,0.048,0.343,0.064,0.513c0.053,0.549-0.124,1.119,0.207,1.645c0.081,0.129,0.065,0.375,0.003,0.528
		c-0.332,0.812-0.191,1.594-0.019,2.421c0.137,0.655,0.027,1.361,0.027,2.083c-0.321,0.28-0.525,0.665-0.654,1.011
		c0.013,0.512,0.463,0.766,0.438,1.308c-0.689,0.645-0.719,1.686-1.153,2.541c-0.464,0.056-0.913,0.085-1.386-0.342
		c-0.08-0.186-0.358-0.478-0.269-0.891c0.007-0.034,0.012-0.076-0.001-0.107c-0.064-0.153-0.235-0.236-0.231-0.451
		c0.002-0.102-0.16-0.273-0.275-0.3c-0.529-0.124-0.486-0.895-1.113-0.944c-0.147-0.012-0.342-0.179-0.563-0.187
		c-0.535-0.018-0.896-0.434-1.359-0.644c-0.32,0-0.642,0-0.963,0c-0.323,0-0.647,0-1.005,0c-0.183-0.343-0.6-0.401-0.818-0.591
		c-1.9,0.333-3.708,0.197-5.447-0.268c-0.13-0.243-0.28-0.411-0.307-0.597c-0.045-0.317-0.013-0.646-0.013-0.97
		c0.184-0.404,0.452-0.681,0.84-0.951c0.64-0.445,1.141-1.088,1.701-1.648c0.017-0.029,0.048-0.057,0.05-0.086
		c0.041-0.749,0.577-1.272,0.859-2.012c-0.596-0.562,0.095-1.209,0.031-1.866c0.335-0.24,0.15-0.591,0.188-0.893
		c0.072-0.582-0.094-1.165,0.189-1.759c0.183-0.382-0.32-0.829-0.188-1.3c-0.41-0.732-0.235-1.463,0.021-2.143
		c-0.537-0.893-0.988-1.789-1.945-2.199c0-0.494,0-0.92,0-1.414c-0.146-0.104-0.321-0.226-0.413-0.291
		c-0.083-0.42-0.032-0.682,0.32-0.889c0.369,0.101,0.805-0.134,1.258,0.179c0.352,0.243,0.92-0.182,1.294,0.25
		c0.771,0.07,1.524-0.041,2.241-0.31c0.169-0.063,0.331-0.073,0.489-0.123C57.271,21.857,57.434,21.644,57.366,21.192z"/>
	<path fill="currentColor" d="M42.166,8.568c-0.011,0,0.205,0,0.431,0
		c0.069,0.072,0.173,0.136,0.213,0.228c0.249,0.56,0.64,0.995,1.213,1.188c0.409,0.137,0.599,0.408,0.743,0.761
		c0.137,0.338,0.198,0.668-0.121,0.95c0.052,0.729-0.489,1.189-0.86,1.678c-0.334,0.438-0.513,1.085-1.203,1.198
		c-0.461,0.076-0.94,0.09-1.403-0.276c0.082-0.502-0.172-1.074,0.227-1.58c-0.145-0.368-0.33-0.729-0.42-1.111
		c-0.051-0.213-0.07-0.461,0.108-0.703c0.171-0.23,0.163-0.564,0.289-0.844C41.475,9.849,41.4,9.565,41.4,9.32
		C41.704,9.15,41.572,8.682,42.166,8.568z"/>
	
	
</g>
</svg>
