<?xml version="1.0" encoding="iso-8859-1"?>
<!-- Generator: Adobe Illustrator 16.0.0, SVG Export Plug-In . SVG Version: 6.00 Build 0)  -->
<!DOCTYPE svg PUBLIC "-//W3C//DTD SVG 1.1//EN" "http://www.w3.org/Graphics/SVG/1.1/DTD/svg11.dtd">
<svg version="1.1" id="Layer_1" xmlns="http://www.w3.org/2000/svg" xmlns:xlink="http://www.w3.org/1999/xlink" x="0px" y="0px"
	 width="72.36px" height="72.18px" viewBox="0 0 72.36 72.18" style="enable-background:new 0 0 72.36 72.18;" xml:space="preserve"
	>
<g>
	<path style="fill-rule:evenodd;clip-rule:evenodd;fill:none;" d="M-6.984-6.984c28.8,0,57.6,0,86.399,0c0,28.872,0,57.744,0,86.615
		c-28.8,0-57.6,0-86.399,0C-6.984,50.76-6.984,21.888-6.984-6.984z M17.297,36.007c0.574-0.021,1.06-0.048,1.455,0.34
		c0.141,0.139,0.393,0.265,0.522,0.273c0.62,0.038,0.999,0.417,1.412,0.794c0.381,0.348,0.776,0.835,1.227,0.916
		c0.663,0.119,1.033,0.526,1.451,0.904c1.054,0.02,1.766,0.833,2.758,1.162c0.234-0.38,0.633-0.506,0.966-0.72
		c0.489-0.034,0.996,0.115,1.449-0.306c0.272,0.298,0.488,0.593,0.761,0.817c0.233,0.191,0.187,0.529,0.438,0.688
		c-0.13,0.6,0.292,1.03,0.478,1.53c0.189,0.511,0.357,1.024,0.381,1.567c0.024,0.539,0.005,1.08,0.005,1.591
		c1.124,1.26,1.71,2.678,1.483,4.407c-0.404,0.239-0.429,0.82-0.835,1.035c0,0.405,0,0.729,0,1.053
		c0.757,0.842,1.356,1.921,2.783,1.864c0.255-0.283,0.517-0.573,0.851-0.944c0.276,0.83,0.946,1.262,1.425,1.798
		c1.134,0,2.209,0,3.271,0c0.472-0.472,0.93-0.93,1.389-1.389c0-0.503,0-1.006,0-1.482c-0.284-0.447-0.558-0.876-0.817-1.284
		c-0.059-1.212-0.712-2.169-1.142-3.151c-0.596-0.072-1.067-0.013-1.398,0.228c-0.363,0.617-0.685,1.14-1.152,1.563
		c-0.363,0.331-0.525,0.757-0.713,1.216c-0.258,0.634-0.073,1.251-0.205,1.858c-0.156,0.128-0.252,0.364-0.543,0.279
		c-0.3-0.693-0.759-1.352-0.719-2.168c0.022-0.465-0.066-0.886-0.244-1.146c-0.441-0.214-0.667-0.459-0.896-0.792
		c0.381-0.577,1.135-0.742,1.475-1.31c0.337-0.564,0.663-1.127,1.193-1.605c0-0.28,0-0.594,0-0.859
		c0.507-0.619,0.971-0.191,1.436-0.04c0.252,0.948,1.089,1.43,1.663,2.103c0.234,0,0.45,0,0.563,0
		c1.218-0.682,1.326-1.929,1.792-3.026c0.738,0.057,1.53-0.189,2.242,0.481c0.27,0.703,0.762,1.41,0.73,2.257
		c0.41,0.389,0.844,0.562,1.239,0.518c0.292-0.232,0.512-0.406,0.681-0.54c0-0.63-0.062-1.178,0.015-1.707
		c0.123-0.858,0.063-1.23-0.478-1.792c-0.07-0.073-0.133-0.156-0.163-0.191c0-0.266,0-0.476,0-0.515
		c0.231-0.311,0.38-0.51,0.524-0.704c0.932,0.118,1.763,0.457,2.646,0.563c0.229,0.027,0.623,0.129,0.701,0.529
		c0.064,0.333,0.361,0.488,0.542,0.646c0.278,0,0.485,0,0.667,0c0.204-0.204,0.417-0.359,0.554-0.565
		c0.295-0.447,0.741-0.906,0.78-1.388c0.064-0.801,0.164-1.595,0.248-2.392c0.057-0.529,0.011-1.069,0.011-1.461
		c-0.263-0.515-0.46-0.901-0.652-1.28c0.175-0.48,0.494-0.905,0.431-1.425c-0.146-0.146-0.273-0.273-0.427-0.427
		c0.063-0.341-0.11-0.71,0.187-1.08c0.227-0.282,0.343-0.679,0.232-1.041c0.275-0.285,0.524-0.543,0.765-0.793
		c1.495-0.16,2.62-1.042,3.783-1.812c0.021-0.334-0.081-0.664,0.201-0.906c-0.322-0.241-0.176-0.573-0.18-0.87
		c0.261-0.244,0.467-0.542,0.837-0.618c0.409-1.105,0.224-1.581-0.842-2.151c-0.01-0.136-0.095-0.252-0.135-0.372
		c-0.178-0.539-0.301-1.025-1.048-1.09c-0.273-0.023-0.685-0.41-0.6-0.744c-0.581-1.343-1.915-1.964-2.409-3.251
		c-0.456-0.128-0.681-0.557-0.85-0.691c-0.498-1.261-1.447-1.986-1.878-3.02c-0.132-0.314-0.374-0.486-0.611-0.701
		c-0.214,0-0.424,0-0.45,0c-0.322-0.232-0.525-0.378-0.695-0.501c0-0.286,0-0.496,0-0.685c-0.174-0.174-0.327-0.327-0.52-0.519
		c-0.454,0.042-0.888-0.073-1.29-0.408c-0.56-0.466-1.203-0.787-1.941-0.663c-1.287-1.288-1.287-1.288-2.686-1.333
		c-0.063-0.41-0.552-0.325-0.769-0.609c-0.034-0.003-0.069-0.009-0.104-0.009c-0.937,0-1.872,0-2.808,0
		c-0.504,0-1.07,0.146-1.498-0.034c-0.644-0.272-1.19-0.152-1.727,0.056c-0.389-0.163-0.651-0.445-1.06-0.462
		c-0.88-0.036-1.741,0.165-2.579,0.327c-0.619,0.12-1.133,0.098-1.66-0.114c-0.247,0.173-0.436,0.35-0.694,0.482
		c-0.392,0.2-0.872,0.009-1.167,0.306c-0.53,0.534-1.165,0.568-1.8,0.515c-0.257,0.173-0.404,0.396-0.707,0.49
		c-0.375,0.116-0.727,0.354-1.044,0.596c-0.706,0.539-1.423,1.057-2.179,1.522c-0.931,0.574-1.525,1.456-2.139,2.33
		c-0.197,0.281-0.038,0.552-0.158,0.846c-0.36,0.204-0.493,0.687-0.87,0.908c-0.455,0.267-0.628,0.7-0.827,1.131
		c0.146,0.205,0.349,0.473,0.204,0.658c-0.28,0.359-0.159,0.739-0.2,1.111c-0.069,0.619,0.181,1.271-0.208,1.859
		c-0.049,0.075-0.053,0.26,0.001,0.312c0.413,0.394,0.189,0.886,0.191,1.322c0.001,0.457,0.409,0.832,0.194,1.316
		c-0.252,0.118-0.524,0.245-0.796,0.371c0.083,0.225-0.222,0.312-0.19,0.502c0.315,0.318,0.092,0.698,0.168,1.022
		c-0.28,0.324-0.661,0.555-0.767,0.993c-0.162,0.667-0.427,1.317-0.303,2.039c-0.542,0.47-1.006,0.983-0.868,1.777
		c-0.312,0.293-0.599,0.563-0.871,0.819c0,0.453,0,0.883,0,1.307c0.108,0.108,0.21,0.21,0.314,0.314c0.573,0,1.148,0,1.761,0
		C16.453,35.576,17.036,35.562,17.297,36.007z M52.377,47.984c0,0.525,0,0.912,0,1.326c-0.545,0.368-0.396,1.183-0.944,1.627
		c-0.553,0.448-1.021,0.999-1.501,1.478c-1.739,0-2.027,0.116-3.277,1.337c-0.327,0.319-0.715,0.474-1.142,0.637
		c-0.559,0.215-1.246,0.098-1.63,0.619c-1.539,0-1.539-0.002-2.919,0.648c-0.247,0.116-0.485,0.199-0.772,0.236
		c-0.661,0.084-1.345,0.168-2.021,0.671c-0.947-0.078-1.935-0.587-3.008-0.561c-0.025,0.001-0.051-0.069-0.076-0.07
		c-0.563-0.004-0.877-0.486-1.479-0.709c-0.382,0.273-0.784-0.221-1.27-0.218c-0.54,0.005-1.08,0.002-1.62,0.002
		c-0.108,0-0.218,0.012-0.324-0.002c-0.969-0.133-1.838,0.134-2.604,0.684c-0.446-0.35-1.037-0.271-1.405-0.688
		c-0.48,0.031-0.946,0.002-1.379-0.291c-1.206-0.813-2.077-1.834-2.456-3.291c-0.147-0.567-0.24-1.084-0.021-1.603
		c0.122-0.29,0.091-0.565,0.064-0.829c-0.034-0.344,0.423-0.621,0.215-0.869c-0.503-0.602,0.156-1.106,0.071-1.668
		c-0.015-0.098,0.164-0.348,0.164-0.562c-0.002-1.76-0.001-3.52-0.001-5.246c-0.083-0.083-0.133-0.135-0.185-0.185
		c-0.075-0.071-0.137-0.17-0.28-0.192c-0.588,0.277-1.153,0.643-1.793,0.478c-1.186,1.205-2.47,2.189-3.738,3.07
		c0.15,0.436,0.27,0.781,0.39,1.128c-0.153,0.161-0.299,0.314-0.441,0.464c0,1.053,0.003,2.097-0.001,3.141
		c-0.005,1.178-0.094,2.362,0.633,3.414c0.097,0.141,0.118,0.374,0.193,0.563c0.103,0.261,0.154,0.634-0.023,0.758
		c-0.068,0.747,0.491,1.133,0.695,1.699c0.067,0.188,0.168,0.337,0.303,0.409c0.957,0.516,1.555,1.35,2.092,2.252
		c0.158,0.266,0.346,0.525,0.682,0.605c0.57,0.135,1.062,0.396,1.521,0.775c0.298,0.247,0.71,0.355,1.125,0.551
		c0.157-0.277,0.496-0.286,0.742-0.463c2.052,0,4.104,0.008,6.155-0.006c0.505-0.003,0.97,0.045,1.331,0.442
		c0.363,0.399,0.832,0.449,1.335,0.432c0.5-0.019,1-0.004,1.468-0.004c0.874,0.863,0.874,0.863,2.062,0.863c0.467,0,0.934,0,1.395,0
		c0.286,0.286,0.566,0.566,0.863,0.863c1.013,0.019,2.09-0.181,2.972,0.591c0.046,0.04,0.132,0.065,0.19,0.055
		c0.918-0.174,1.788,0.357,2.579,0.217c0.587-0.303,1.047-0.585,1.54-0.787c0.975-0.397,1.682-1.063,2.103-2.015
		c0.079-0.178,0.194-0.364,0.315-0.394c0.503-0.12,0.678-0.574,0.987-0.791c0.049-0.679,0.183-1.039,0.524-1.386
		c0.73-0.74,1.469-1.472,2.19-2.194c0.401,0.101,0.66-0.296,1.063-0.197c0.517-0.601,1.294-0.93,1.799-1.578
		c0.061-0.078,0.122-0.16,0.256-0.164c0.658-0.017,1.041-0.416,1.304-1.072c0-0.331,0-0.763,0-1.191
		c0.572-0.612,0.572-1.506,1.086-2.205c-0.111-0.379,0.078-0.806-0.179-1.282c-0.193-0.358-0.181-0.967,0.186-1.367
		c-0.21-0.461-0.286-0.957-0.199-1.224c0.127-0.128,0.255-0.255,0.414-0.415c-0.021-0.21,0.031-0.498-0.084-0.684
		c-0.492-0.794-0.657-1.647-0.615-2.546c-0.062-0.481-0.597-0.666-0.669-1.136c-0.706-0.202-0.802-0.753-0.813-1.376
		c-0.004-0.192-0.155-0.406-0.26-0.528c-0.582-0.685-0.895-1.507-1.231-2.306c-0.478-1.136-1.523-1.33-2.517-1.768
		c0.043,0.407-0.348,0.528-0.305,0.841c0.146,0.152,0.292,0.307,0.4,0.42c0.231,1.836,0.456,3.622,1.112,5.326
		c-0.293,0.317-0.236,0.717-0.209,1.093c0.061,0.858-0.247,1.602-0.654,2.323c0,0.36-0.002,0.72,0,1.08
		c0.002,0.313,0.016,0.619-0.212,0.886c-0.212,0.248-0.226,0.56-0.229,0.879c-0.002,0.275,0.092,0.567-0.1,0.904
		c-0.62-0.422-1.29-0.688-1.646-1.45c-0.437-0.934-1.044-1.778-1.823-2.431c-0.487-0.218-0.988-0.342-1.514-0.257
		c-0.104,0.104-0.206,0.206-0.285,0.285c-0.143,1.178,0.117,2.339-0.209,3.505c-0.178,0.635-0.029,1.359-0.035,2.043
		c-0.001,0.061-0.055,0.12-0.08,0.174c-0.174,0-0.343,0-0.543,0c-0.218-0.534-0.55-0.915-1.14-1.073
		c-0.243-0.064-0.434-0.348-0.633-0.548c-0.176-0.176-0.33-0.374-0.491-0.561c-0.359,0.131-0.693-0.058-1.099,0.201
		c-0.302,0.742-0.622,1.583-0.987,2.404c-0.16,0.36-0.323,0.75-0.185,1.092c0.15,0.372,0.086,0.771,0.217,1.099
		c0.229,0.568,0.356,1.293,1.113,1.455c0.373,0.079,0.768,0.057,1.121,0.078c0.308-0.367,0.655-0.597,1.071-0.656
		c0.608-0.089,0.984-0.465,1.183-0.981c0.117-0.306,0.346-0.589,0.221-1.022c0.849,0.117,1.506,0.636,2.145,0.496
		c0.479-0.189,0.762-0.439,1.069-0.651c0.342-0.235,0.594-0.58,0.777-0.893C51.014,49.238,51.758,48.767,52.377,47.984z
		 M26.833,42.679c-1.154,1.246-2.151,2.646-2.929,4.337c-0.001,0.321-0.074,0.747-0.183,1.188c-0.134,0.541-0.005,1.142-0.038,1.714
		c-0.059,1.037,0.355,1.872,1.066,2.571c0.255,0.25,0.466,0.522,0.591,0.837c0.236,0.591,0.568,1.092,1.084,1.433
		c0.662,0.413,1.305,0.05,1.956-0.015c0.416-0.421,0.817-0.824,1.492-0.834c0.361-0.006,0.707-0.222,0.938-0.528
		c0-0.225,0-0.438,0-0.662c-0.424-0.281-0.62-0.756-0.738-1.189c-0.155-0.565-0.747-0.57-1.005-1.008
		c0.171-1.151-0.192-2.197-0.817-3.194c-0.028-0.433,0.071-0.953-0.12-1.328c-0.231-0.454-0.4-0.883-0.329-1.369
		c0.074-0.508-0.394-0.903-0.201-1.422C27.313,43.081,27.237,42.736,26.833,42.679z M62.445,31.463c-0.201,0-0.416,0-0.393,0
		c-0.375,0.256-0.608,0.416-0.774,0.529c-0.026,0.327,0.198,0.375,0.29,0.53c0.31,0,0.622,0,0.91,0
		C62.861,32.192,62.937,31.874,62.445,31.463z"/>
	<path style="fill-rule:evenodd;clip-rule:evenodd;" d="M17.297,36.007c-0.261-0.445-0.844-0.431-1.031-0.874
		c-0.613,0-1.188,0-1.761,0c-0.104-0.104-0.206-0.206-0.314-0.314c0-0.423,0-0.854,0-1.307c0.272-0.256,0.559-0.525,0.871-0.819
		c-0.138-0.794,0.327-1.307,0.868-1.777c-0.124-0.722,0.141-1.373,0.303-2.039c0.106-0.438,0.487-0.669,0.767-0.993
		c-0.077-0.324,0.146-0.704-0.168-1.022c-0.032-0.19,0.273-0.278,0.19-0.502c0.272-0.126,0.543-0.253,0.796-0.371
		c0.215-0.485-0.193-0.86-0.194-1.316c-0.001-0.436,0.222-0.928-0.191-1.322c-0.054-0.051-0.05-0.237-0.001-0.312
		c0.389-0.588,0.14-1.24,0.208-1.859c0.042-0.373-0.08-0.752,0.2-1.111c0.145-0.186-0.059-0.453-0.204-0.658
		c0.199-0.431,0.372-0.865,0.827-1.131c0.377-0.221,0.51-0.704,0.87-0.908c0.12-0.294-0.039-0.565,0.158-0.846
		c0.613-0.874,1.208-1.756,2.139-2.33c0.756-0.466,1.473-0.983,2.179-1.522c0.317-0.243,0.669-0.48,1.044-0.596
		c0.303-0.094,0.45-0.317,0.707-0.49c0.635,0.053,1.271,0.019,1.8-0.515c0.295-0.297,0.775-0.105,1.167-0.306
		c0.259-0.132,0.447-0.309,0.694-0.482c0.526,0.212,1.041,0.234,1.66,0.114c0.837-0.163,1.699-0.363,2.579-0.327
		c0.409,0.017,0.671,0.299,1.06,0.462c0.537-0.208,1.083-0.328,1.727-0.056c0.428,0.181,0.994,0.034,1.498,0.034
		c0.936,0,1.871,0,2.808,0c0.034,0,0.069,0.006,0.104,0.009c0.217,0.284,0.705,0.199,0.769,0.609
		c1.398,0.046,1.398,0.046,2.686,1.333c0.738-0.124,1.382,0.197,1.941,0.663c0.402,0.335,0.836,0.45,1.29,0.408
		c0.192,0.192,0.346,0.345,0.52,0.519c0,0.189,0,0.399,0,0.685c0.17,0.123,0.373,0.269,0.695,0.501c0.026,0,0.236,0,0.45,0
		c0.237,0.215,0.479,0.387,0.611,0.701c0.431,1.033,1.38,1.758,1.878,3.02c0.169,0.134,0.394,0.563,0.85,0.691
		c0.494,1.288,1.828,1.909,2.409,3.251c-0.085,0.334,0.326,0.721,0.6,0.744c0.747,0.065,0.87,0.552,1.048,1.09
		c0.04,0.12,0.125,0.235,0.135,0.372c1.065,0.57,1.251,1.046,0.842,2.15c-0.37,0.076-0.576,0.375-0.837,0.619
		c0.004,0.297-0.143,0.628,0.18,0.87c-0.282,0.242-0.181,0.572-0.201,0.906c-1.163,0.77-2.288,1.652-3.783,1.812
		c-0.24,0.25-0.489,0.508-0.765,0.793c0.11,0.362-0.006,0.759-0.232,1.041c-0.297,0.37-0.123,0.739-0.187,1.08
		c0.153,0.153,0.281,0.281,0.427,0.427c0.063,0.52-0.256,0.945-0.431,1.425c0.192,0.378,0.39,0.765,0.652,1.28
		c0,0.392,0.046,0.932-0.011,1.461c-0.084,0.797-0.184,1.591-0.248,2.392c-0.039,0.481-0.485,0.94-0.78,1.388
		c-0.137,0.206-0.35,0.361-0.554,0.565c-0.182,0-0.389,0-0.667,0c-0.181-0.158-0.478-0.313-0.542-0.646
		c-0.078-0.4-0.473-0.502-0.701-0.529c-0.884-0.106-1.715-0.445-2.646-0.563c-0.145,0.194-0.293,0.394-0.524,0.704
		c0,0.039,0,0.249,0,0.515c0.03,0.035,0.093,0.118,0.163,0.191c0.54,0.562,0.601,0.934,0.478,1.792
		c-0.076,0.529-0.015,1.077-0.015,1.707c-0.169,0.134-0.389,0.308-0.681,0.54c-0.396,0.044-0.829-0.129-1.239-0.518
		c0.031-0.847-0.461-1.554-0.73-2.257c-0.712-0.671-1.504-0.425-2.242-0.481c-0.466,1.098-0.574,2.345-1.792,3.026
		c-0.112,0-0.328,0-0.563,0c-0.574-0.673-1.411-1.154-1.662-2.103c-0.466-0.151-0.93-0.579-1.437,0.04c0,0.266,0,0.579,0,0.859
		c-0.531,0.479-0.856,1.041-1.193,1.605c-0.34,0.567-1.094,0.732-1.475,1.31c0.23,0.333,0.456,0.578,0.896,0.792
		c0.177,0.261,0.266,0.682,0.244,1.146c-0.04,0.816,0.419,1.475,0.719,2.168c0.291,0.085,0.387-0.151,0.543-0.279
		c0.132-0.607-0.054-1.225,0.205-1.858c0.188-0.459,0.35-0.885,0.713-1.216c0.467-0.424,0.789-0.946,1.152-1.563
		c0.331-0.24,0.803-0.3,1.398-0.228c0.43,0.982,1.083,1.939,1.142,3.151c0.26,0.408,0.533,0.837,0.817,1.284
		c0,0.477,0,0.979,0,1.482c-0.459,0.459-0.917,0.917-1.389,1.389c-1.063,0-2.138,0-3.271,0c-0.479-0.536-1.148-0.968-1.425-1.798
		c-0.334,0.371-0.595,0.661-0.851,0.944c-1.427,0.057-2.025-1.022-2.783-1.864c0-0.324,0-0.647,0-1.053
		c0.406-0.215,0.431-0.796,0.835-1.035c0.228-1.729-0.359-3.147-1.483-4.407c0-0.511,0.019-1.052-0.005-1.591
		c-0.024-0.543-0.192-1.057-0.381-1.567c-0.185-0.5-0.607-0.931-0.478-1.53c-0.252-0.158-0.206-0.496-0.438-0.688
		c-0.273-0.225-0.489-0.52-0.761-0.817c-0.453,0.421-0.96,0.271-1.449,0.306c-0.333,0.214-0.732,0.34-0.966,0.72
		c-0.992-0.329-1.704-1.143-2.758-1.162c-0.417-0.378-0.788-0.785-1.451-0.904c-0.451-0.081-0.846-0.568-1.227-0.916
		c-0.413-0.378-0.792-0.757-1.412-0.794c-0.13-0.008-0.382-0.134-0.522-0.273C18.357,35.958,17.871,35.985,17.297,36.007z
		 M25.624,25.653c-0.402,0.228-0.855,0.327-1.32,0.051c-0.235-0.14-0.501-0.111-0.721-0.059c-0.665,0.158-1.336,1.165-1.422,1.861
		c-0.093,0.755,0.358,1.419,0.233,2.135c0.474,0.326,0.481,0.845,0.636,1.281c0.2,0.565,0.438,1.057,1.057,1.272
		c0.327,0.114,0.622,0.311,0.824,0.604c0.399,0.579,1.036,0.77,1.643,0.975c0.445,0.151,0.98,0.366,1.38,0.242
		c0.666-0.206,1.313-0.172,1.969-0.167c0.836,0.005,1.666,0.046,2.382-0.591c0.022-0.664,0.021-0.67-0.301-0.935
		c-0.281,0-0.567,0-0.849,0c-0.877-0.908-0.953-1.249-0.433-1.935c0.632-0.041,1.316,0.152,1.907-0.434
		c-0.243-0.262-0.53-0.485-0.704-0.775c-0.512-0.859-1.234-1.424-2.106-1.911c-0.669-0.373-1.491-0.532-1.91-1.228
		c-0.49,0.131-0.797,0.557-1.492,0.406C26.223,26.268,25.927,25.964,25.624,25.653z M47.457,27.564
		c0.246-0.208,0.572-0.482,0.749-0.631c0.219-0.868,0.392-1.556,0.579-2.304c-0.104-0.082-0.218-0.167-0.327-0.257
		c-0.132-0.108-0.214-0.298-0.684-0.195c-0.19,0.099-0.699,0.223-0.997,0.543c-0.654,0.703-1.504,1.171-2.129,1.877
		c-0.052,0.174,0.035,0.34-0.077,0.52c-0.265,0.428-0.65,0.861-0.747,1.295c-0.144,0.643-0.537,1.022-0.901,1.424
		c0,0.25,0,0.463,0,0.574c0.288,0.327,0.523,0.594,0.727,0.824c0.269,0,0.48,0,0.646,0c0.335-0.198,0.477-0.53,0.854-0.664
		c0.306-0.108,0.604-0.428,0.756-0.729c0.183-0.359,0.394-0.577,0.751-0.775C47.149,28.793,47.442,28.306,47.457,27.564z
		 M40.269,36.609c0.513,0.077,0.9,0.509,1.378,0.106c-0.296-0.869-1.065-1.361-1.643-2.004c-0.617-0.035-0.65-0.653-1.016-1.028
		c0-0.264,0-0.579,0-0.838c-0.363-0.491-0.81-0.219-1.208-0.321c-0.165,0.575-0.505,1.059-0.096,1.615
		c0.087,0.119,0.062,0.346,0.038,0.517c-0.081,0.584,0.131,1.076,0.457,1.536c-0.387,0.479-0.188,1-0.257,1.661
		C38.751,37.313,39.666,37.323,40.269,36.609z"/>
	<path style="fill-rule:evenodd;clip-rule:evenodd;" d="M52.377,47.984c-0.619,0.782-1.363,1.254-1.821,2.035
		c-0.184,0.313-0.436,0.657-0.777,0.893c-0.308,0.212-0.591,0.462-1.069,0.651c-0.639,0.14-1.296-0.379-2.145-0.496
		c0.125,0.434-0.104,0.717-0.221,1.022c-0.198,0.517-0.574,0.893-1.183,0.981c-0.416,0.06-0.764,0.289-1.071,0.656
		c-0.354-0.021-0.748,0.001-1.121-0.078c-0.757-0.162-0.884-0.887-1.113-1.455c-0.131-0.327-0.066-0.727-0.217-1.099
		c-0.139-0.342,0.024-0.731,0.185-1.092c0.365-0.821,0.686-1.662,0.987-2.404c0.405-0.259,0.739-0.07,1.099-0.201
		c0.161,0.187,0.315,0.385,0.491,0.561c0.199,0.2,0.39,0.483,0.633,0.548c0.59,0.158,0.922,0.539,1.14,1.073c0.2,0,0.369,0,0.543,0
		c0.025-0.054,0.079-0.113,0.08-0.174c0.006-0.684-0.143-1.408,0.035-2.043c0.326-1.166,0.066-2.327,0.209-3.505
		c0.079-0.079,0.181-0.181,0.285-0.285c0.525-0.085,1.026,0.039,1.514,0.257c0.779,0.652,1.387,1.497,1.823,2.431
		c0.355,0.762,1.025,1.028,1.646,1.45c0.191-0.337,0.098-0.629,0.1-0.904c0.003-0.319,0.017-0.631,0.229-0.879
		c0.228-0.267,0.214-0.573,0.212-0.886c-0.002-0.36,0-0.72,0-1.08c0.407-0.722,0.715-1.465,0.654-2.323
		c-0.027-0.376-0.084-0.775,0.209-1.093c-0.656-1.704-0.881-3.49-1.112-5.326c-0.108-0.114-0.255-0.268-0.4-0.42
		c-0.043-0.313,0.348-0.434,0.305-0.841c0.993,0.438,2.039,0.632,2.517,1.768c0.337,0.799,0.649,1.622,1.231,2.306
		c0.104,0.122,0.256,0.336,0.26,0.528c0.012,0.623,0.107,1.174,0.813,1.376c0.072,0.47,0.607,0.654,0.669,1.136
		c-0.042,0.898,0.123,1.752,0.615,2.546c0.115,0.186,0.063,0.474,0.084,0.684c-0.159,0.16-0.287,0.287-0.414,0.415
		c-0.087,0.267-0.011,0.763,0.199,1.224c-0.366,0.4-0.379,1.009-0.186,1.367c0.257,0.477,0.067,0.903,0.179,1.282
		c-0.514,0.699-0.514,1.593-1.086,2.205c0,0.429,0,0.86,0,1.191c-0.263,0.656-0.646,1.056-1.304,1.072
		c-0.134,0.004-0.195,0.086-0.256,0.164c-0.505,0.648-1.282,0.978-1.799,1.578c-0.402-0.099-0.661,0.298-1.063,0.197
		c-0.722,0.723-1.46,1.454-2.19,2.194c-0.342,0.347-0.476,0.707-0.524,1.386c-0.31,0.217-0.484,0.671-0.987,0.791
		c-0.121,0.029-0.236,0.216-0.315,0.394c-0.421,0.952-1.128,1.617-2.103,2.015c-0.493,0.202-0.953,0.484-1.54,0.787
		c-0.791,0.141-1.661-0.391-2.579-0.217c-0.059,0.011-0.145-0.015-0.19-0.055c-0.882-0.771-1.959-0.572-2.972-0.591
		c-0.297-0.297-0.577-0.577-0.863-0.863c-0.461,0-0.928,0-1.395,0c-1.188,0-1.188,0-2.062-0.863c-0.469,0-0.969-0.015-1.468,0.004
		c-0.503,0.018-0.972-0.032-1.335-0.432c-0.361-0.397-0.826-0.445-1.331-0.442c-2.052,0.014-4.104,0.006-6.155,0.006
		c-0.246,0.177-0.584,0.186-0.742,0.463c-0.415-0.195-0.828-0.304-1.125-0.551c-0.459-0.379-0.951-0.641-1.521-0.775
		c-0.335-0.08-0.524-0.34-0.682-0.605c-0.537-0.902-1.135-1.736-2.092-2.252c-0.135-0.072-0.236-0.222-0.303-0.409
		c-0.204-0.566-0.764-0.952-0.695-1.699c0.177-0.124,0.125-0.497,0.023-0.758c-0.075-0.189-0.096-0.423-0.193-0.563
		c-0.727-1.052-0.639-2.236-0.633-3.414c0.004-1.044,0.001-2.088,0.001-3.141c0.142-0.149,0.289-0.303,0.441-0.464
		c-0.12-0.347-0.239-0.692-0.39-1.128c1.268-0.881,2.552-1.865,3.738-3.07c0.64,0.165,1.205-0.2,1.793-0.478
		c0.143,0.022,0.205,0.121,0.28,0.192c0.052,0.05,0.102,0.102,0.185,0.185c0,1.727-0.001,3.486,0.001,5.246
		c0,0.214-0.179,0.464-0.164,0.562c0.085,0.562-0.574,1.066-0.071,1.668c0.208,0.248-0.25,0.525-0.215,0.869
		c0.027,0.264,0.058,0.539-0.064,0.829c-0.218,0.519-0.126,1.035,0.021,1.603c0.379,1.457,1.25,2.479,2.456,3.291
		c0.433,0.293,0.899,0.322,1.379,0.291c0.369,0.417,0.959,0.338,1.405,0.688c0.766-0.55,1.636-0.816,2.604-0.684
		c0.106,0.014,0.216,0.002,0.324,0.002c0.54,0,1.08,0.003,1.62-0.002c0.486-0.003,0.888,0.491,1.27,0.218
		c0.603,0.223,0.917,0.705,1.479,0.709c0.025,0.001,0.051,0.071,0.076,0.07c1.073-0.026,2.061,0.482,3.008,0.561
		c0.677-0.503,1.36-0.587,2.021-0.671c0.287-0.037,0.525-0.12,0.772-0.236c1.38-0.65,1.38-0.648,2.919-0.648
		c0.384-0.521,1.071-0.404,1.63-0.619c0.427-0.163,0.814-0.317,1.142-0.637c1.25-1.221,1.538-1.337,3.277-1.337
		c0.479-0.479,0.948-1.029,1.501-1.478c0.548-0.444,0.399-1.259,0.944-1.627C52.377,48.896,52.377,48.51,52.377,47.984z"/>
	<path style="fill-rule:evenodd;clip-rule:evenodd;" d="M26.833,42.679c0.405,0.058,0.481,0.402,0.768,0.529
		c-0.193,0.519,0.275,0.914,0.201,1.422c-0.071,0.486,0.098,0.915,0.329,1.369c0.19,0.375,0.092,0.896,0.12,1.328
		c0.625,0.997,0.988,2.043,0.817,3.194c0.259,0.438,0.851,0.442,1.005,1.008c0.119,0.434,0.314,0.908,0.738,1.189
		c0,0.224,0,0.438,0,0.662c-0.231,0.307-0.578,0.522-0.938,0.528c-0.675,0.01-1.077,0.413-1.492,0.835
		c-0.65,0.063-1.293,0.427-1.956,0.014c-0.516-0.341-0.848-0.842-1.084-1.433c-0.125-0.314-0.336-0.587-0.591-0.837
		c-0.711-0.699-1.125-1.534-1.066-2.571c0.033-0.572-0.096-1.173,0.038-1.714c0.109-0.44,0.182-0.866,0.183-1.188
		C24.681,45.324,25.678,43.925,26.833,42.679z"/>
	<path style="fill-rule:evenodd;clip-rule:evenodd;fill:none;" d="M25.624,25.653c0.303,0.311,0.599,0.614,0.773,0.793
		c0.695,0.151,1.002-0.275,1.492-0.406c0.419,0.696,1.241,0.855,1.91,1.228c0.872,0.486,1.594,1.052,2.106,1.911
		c0.173,0.291,0.46,0.514,0.704,0.775c-0.59,0.586-1.275,0.393-1.907,0.434c-0.52,0.686-0.444,1.026,0.433,1.935
		c0.282,0,0.568,0,0.849,0c0.322,0.265,0.323,0.271,0.301,0.935c-0.716,0.637-1.546,0.596-2.382,0.591
		c-0.656-0.004-1.303-0.039-1.969,0.167c-0.399,0.124-0.935-0.091-1.38-0.242c-0.607-0.206-1.244-0.396-1.643-0.975
		c-0.202-0.293-0.498-0.49-0.824-0.604c-0.619-0.215-0.857-0.708-1.057-1.272c-0.154-0.436-0.162-0.955-0.636-1.281
		c0.125-0.716-0.326-1.38-0.233-2.135c0.086-0.696,0.757-1.704,1.422-1.861c0.219-0.052,0.485-0.081,0.721,0.059
		C24.769,25.98,25.222,25.881,25.624,25.653z"/>
	<path style="fill-rule:evenodd;clip-rule:evenodd;fill:none;" d="M47.457,27.564c-0.015,0.741-0.308,1.229-0.8,1.502
		c-0.357,0.198-0.568,0.416-0.751,0.775c-0.152,0.302-0.45,0.622-0.756,0.729c-0.378,0.134-0.52,0.466-0.854,0.664
		c-0.166,0-0.378,0-0.646,0c-0.203-0.23-0.438-0.497-0.727-0.824c0-0.11,0-0.323,0-0.574c0.364-0.401,0.758-0.781,0.901-1.424
		c0.097-0.434,0.482-0.867,0.747-1.295c0.112-0.18,0.025-0.346,0.077-0.52c0.625-0.707,1.475-1.174,2.129-1.877
		c0.298-0.32,0.807-0.445,0.997-0.543c0.47-0.104,0.552,0.087,0.684,0.195c0.109,0.09,0.224,0.175,0.327,0.257
		c-0.188,0.749-0.36,1.437-0.579,2.304C48.029,27.083,47.703,27.356,47.457,27.564z"/>
	<path style="fill-rule:evenodd;clip-rule:evenodd;fill:none;" d="M40.269,36.609c-0.604,0.714-1.518,0.703-2.346,1.244
		c0.068-0.661-0.13-1.182,0.257-1.661c-0.326-0.459-0.538-0.952-0.457-1.536c0.023-0.171,0.049-0.398-0.038-0.517
		c-0.409-0.557-0.069-1.04,0.096-1.615c0.398,0.103,0.845-0.169,1.208,0.321c0,0.259,0,0.574,0,0.838
		c0.365,0.375,0.398,0.993,1.016,1.028c0.577,0.643,1.347,1.135,1.643,2.004C41.169,37.118,40.782,36.687,40.269,36.609z"/>
</g>
</svg>
