<?xml version="1.0" encoding="iso-8859-1"?>
<!-- Generator: Adobe Illustrator 16.0.0, SVG Export Plug-In . SVG Version: 6.00 Build 0)  -->
<!DOCTYPE svg PUBLIC "-//W3C//DTD SVG 1.1//EN" "http://www.w3.org/Graphics/SVG/1.1/DTD/svg11.dtd">
<svg version="1.1" id="Layer_1" xmlns="http://www.w3.org/2000/svg" xmlns:xlink="http://www.w3.org/1999/xlink" x="0px" y="0px"
	 width="72.36px" height="72.18px" viewBox="0 0 72.36 72.18" style="enable-background:new 0 0 72.36 72.18;" xml:space="preserve"
	>
<g>
	
	<path fill="currentColor" d="M28.663,55.947c0-0.528,0-1.102,0-1.707c-0.1-0.077-0.212-0.165-0.401-0.312
		c-0.99,0.238-1.627-0.496-2.167-1.214c-0.251-0.334-0.615-0.595-0.777-0.963c-0.18-0.407-0.519-0.648-0.71-0.902
		c-0.52-1.538-0.144-3.041-0.308-4.607c-0.414-0.165-0.312-0.934-0.934-0.986c-0.418-0.532-0.51-1.178-0.71-1.774
		c-0.202-0.603-0.673-1.076-0.737-1.759c-0.021-0.221-0.216-0.558-0.491-0.764c-0.37-0.278-0.684-0.63-1.009-0.938
		c0.189-0.402-0.239-0.609-0.188-0.934c0.125-0.442,0.356-0.817,0.755-1.121c1.164-0.135,2.22,0.143,3.043,1.062
		c0.671-0.131,0.878-0.348,0.952-1.006c0.09-0.797,0.278-1.576,0.237-2.395c-0.025-0.503,0.263-0.994,0.203-1.53
		c-0.062-0.562,0.321-1.018,0.451-1.542c0.117-0.47,0.283-0.951,0.559-1.388c0.145-0.23,0.227-0.553,0.312-0.842
		c0.254-0.865,0.66-1.688,1.242-2.394c0.223-0.271,0.335-0.58,0.535-0.935c-0.453,0.225-1.39,0.989-1.586,1.357
		c-0.548,1.029-1.227,1.996-1.524,3.147c-0.023,0.092-0.139,0.159-0.172,0.251c-0.225,0.627-0.582,1.192-0.79,1.834
		c-0.187,0.579-0.481,1.156-1.184,1.528c-0.504,0-1.146,0-1.831,0c-0.681-0.323-1.255-0.928-2.097-1.083
		c-0.421-0.078-0.724-0.519-1.058-0.793c-0.815-0.671-1.711-1.268-2.375-2.111c-0.376-0.479-1.017-0.634-1.363-1.143
		c-0.746-0.08-1.362-0.532-2.087-0.707c-0.804-0.194-1.596-0.186-2.4-0.189c-1.113-0.005-2.227-0.001-3.322-0.001
		c-0.094-0.093-0.17-0.169-0.288-0.288c-0.181-0.659,0.134-1.213,0.659-1.57c0.993-0.677,2.044-1.259,3.217-1.609
		c0.83-0.248,1.654-0.446,2.524-0.423c0.426,0.012,0.852,0.002,1.221,0.002c0.416-0.337,0.411-0.685,0.234-1.076
		c-0.289-0.643-0.438-1.313-0.288-2.075c0.137-0.164,0.278-0.46,0.864-0.153c0.373,0.373,0.931,0.926,1.483,1.485
		c0.635,0.643,1.363,1.039,2.305,0.961c0.429-0.036,0.863-0.018,1.294-0.001c0.221,0.008,0.297-0.165,0.429-0.268
		c-0.076-0.513-0.475-0.797-0.77-1.107c0-0.342,0-0.657,0-0.933c0.111-0.111,0.188-0.188,0.292-0.292
		c0.654,0.036,1.362-0.141,1.956,0.419c0.114,0.108,0.417,0.016,0.633,0.016c0.102-0.102,0.204-0.204,0.324-0.325
		c0-0.554,0.041-1.131-0.014-1.699c-0.038-0.39,0.13-0.709,0.318-0.949c0.458-0.584,0.482-1.246,0.572-1.903
		c-0.54-0.212-1.138-0.159-1.547-0.662c0.153-0.566,0.364-1.11,0.769-1.603c0.547-0.666,1.301-1.044,1.993-1.476
		c1.01-0.629,1.953-1.308,2.766-2.176c0.382-0.407,0.781-0.79,1.271-1.088c0.354-0.216,0.857-0.341,0.913-0.887
		c0.705-0.541,1.347-1.22,2.347-1.048c0.388-0.447,0.914-0.676,1.321-1.069c0.319-0.309,0.842-0.316,1.288-0.218
		c1.143,0.252,1.814,0.232,2.761,0.03c1.199-0.256,2.354,0.021,3.333,0.702c0.504,0.35,1.052,0.691,1.464,1.188
		c0.352,0.425,0.8,0.76,0.976,1.328c0.092,0.295,0.357,0.499,0.578,0.616c0.335-0.335,0.636-0.635,0.854-0.854
		c0.382,0,0.597,0,0.825,0c0.402,0.364,0.583,0.827,0.535,1.415c0.823,0.54,1.037,1.458,1.045,2.324
		c0.01,1.009,0.285,1.779,1.13,2.373c-0.015,1.047-0.27,2.045-0.91,2.845c-0.644,0.803-1.375,1.591-2.517,1.66
		c-0.143,0.414,0.195,0.589,0.393,0.69c0.521,0.267,0.856,0.72,1.276,1.086c0.42,0.366,0.866,0.702,1.279,1.074
		c0.49,0.441,0.856,0.987,1.488,1.312c0.471,0.243,0.891,0.708,1.073,1.257c0.159,0.478,0.481,0.734,0.915,0.898
		c0.402,0.153,0.756,0.387,0.813,0.83c0.065,0.503,0.574,0.648,0.737,1.103c0.356,1,1.005,1.881,1.271,2.927
		c0.009,0.034-0.015,0.087,0.003,0.105c0.847,0.871,0.788,2.054,1.083,3.116c0.062,0.222,0.183,0.427,0.277,0.642
		c0.244,0.064,0.429,0.007,0.672-0.124c0.52-0.281,0.917-0.712,1.41-1.017c0.089-0.055,0.222-0.155,0.217-0.227
		c-0.054-0.8,0.703-1.21,0.895-1.905c0.146-0.53,0.56-0.906,1.138-1.029c0.524,0.091,0.883,0.408,1.232,0.803
		c-0.118,0.401,0.107,0.837-0.193,1.304c-0.186,0.29-0.056,0.789-0.229,1.193c-0.08,0.187-0.144,0.364-0.265,0.54
		c-0.39,0.568-0.637,1.193-0.624,1.899c0.004,0.252,0.077,0.537-0.014,0.75c-0.297,0.695-0.2,1.486-0.529,2.155
		c-0.171,0.349-0.015,0.695-0.136,1.019c-0.48,0.7-0.897,1.41-1.076,2.265c-0.063,0.298-0.398,0.646-0.692,0.764
		c-0.432,0.172-0.632,0.549-0.993,0.793c0.062,0.769-0.312,1.479-0.256,2.27c0.036,0.524,0.305,0.983,0.256,1.529
		c-0.082,0.917-0.423,1.707-0.999,2.395c-0.334,0.398-0.708,0.73-0.761,1.313c-0.041,0.448-0.577,0.405-0.864,0.638
		c-0.232-0.192-0.583-0.196-0.852-0.588c-0.001-1.016,0.632-2.077,0.397-3.261c-0.557-0.198-0.836,0.177-1.031,0.591
		c-0.256,0.54-0.562,1.053-0.725,1.648c-0.073,0.268-0.218,0.568-0.131,0.79c0.32,0.814,0.127,1.663,0.223,2.473
		c0.519,0.287,0.913-0.489,1.448-0.134c0.168,0.29,0.336,0.581,0.506,0.873c-0.18,0.678-0.605,1.276-0.442,2.022
		c-0.489,0.356-0.834,0.861-1.081,1.375c-0.366,0.764-1.017,1.287-1.474,1.971c-0.221,0.331-0.657,0.638-1.036,0.836
		c-0.629,0.328-0.969,0.991-1.634,1.262c-0.182,0.073-0.344,0.033-0.524,0.08c-0.591,0.483-0.833,1.298-1.601,1.717
		c-0.133,0-0.348,0-0.63,0c-0.061-0.417,0.001-0.896-0.317-1.245c-0.29-0.318-0.601-0.618-0.887-0.909c-0.461,0-0.892,0-1.22,0
		c-0.737,0.294-1.185,1.005-2.015,0.861c-0.196,0.255-0.602,0.202-0.757,0.516c0,0.313,0,0.627,0,1.022
		c0.524-0.148,0.936,0.184,1.416,0.223c0.162,0.148,0.006,0.345,0.087,0.49c-0.119,0.12-0.221,0.222-0.332,0.332
		c-0.204,0-0.418,0-0.621,0c-0.454-0.205-0.53-0.72-0.915-1.09c-0.957,0.106-1.979,0.577-2.993-0.045
		c-0.399-0.412-0.989-0.729-1.274-1.388c-0.557-0.269-1.094-0.574-1.486-1.23c-0.377-0.634-1.018-1.12-1.334-1.83
		c-0.756-0.343-1.156-1.12-1.852-1.528c-0.345-0.202-0.555-0.457-0.732-0.818C29.522,57.363,29.086,56.683,28.663,55.947z
		 M29.088,26.063c0.149,0.005,0.222-0.066,0.216-0.216c0.149,0.005,0.221-0.066,0.214-0.208c0.129-0.01,0.257-0.019,0.362-0.026
		c0.098-0.161,0.106-0.278-0.008-0.388c-0.168,0.094-0.321,0.198-0.353,0.407c-0.149-0.006-0.222,0.066-0.216,0.216
		C29.155,25.842,29.083,25.914,29.088,26.063c-0.104-0.018-0.17,0.03-0.192,0.129c-0.004,0.017,0.046,0.067,0.063,0.063
		C29.058,26.233,29.105,26.168,29.088,26.063z M40.22,47.226c-0.096-0.078-0.167-0.171-0.261-0.206
		c-0.643-0.239-1.034-0.752-1.125-1.367c-0.096-0.648-0.42-1.132-0.731-1.644c-0.622,0.048-1.152-0.368-1.762-0.234
		c-0.62,0.137-1.185-0.474-1.837-0.135c0,0.136,0,0.276,0,0.426c0.498,0.794,1.282,1.251,2.17,1.413
		c0.787,0.144,1.464,0.355,1.931,1.061c-0.016,0.27,0.049,0.589-0.061,0.828c-0.441,0.962-0.089,1.652,0.606,2.244
		c0.766-0.051,1.272,0.371,1.787,0.7c0,0.352,0,0.665,0,0.899c-0.26,0.401-0.604,0.572-1.029,0.769c-0.263,0-0.621,0-1.01,0
		c-0.388-0.572-1.241-0.567-1.611-1.235c0.096-0.633-0.277-1.156-0.473-1.729c-0.278-0.016-0.449-0.323-0.794-0.265
		c-0.772,0.381-1.549,0.326-2.343-0.237c-0.269,0.127-0.604-0.075-0.965,0.144c-0.753,0.455-1.556,0.451-2.236,0.047
		c-0.222-0.418-0.32-0.784-0.626-1.035c-0.393-0.045-0.673,0.046-0.77,0.498c-0.077,0.355-0.29,0.688-0.334,1.043
		c-0.059,0.474-0.447,0.918-0.261,1.371c0.097,0.234,0.202,0.451,0.162,0.683c-0.071,0.411,0.138,0.733,0.271,1.081
		c0.016,0.041,0.119,0.048,0.182,0.071c0.206-0.014,0.266-0.219,0.436-0.331c-0.062-0.655-0.062-1.316,0.518-1.821
		c0.203,0,0.417,0,0.663,0c0.359,0.359,0.726,0.755,1.123,1.115c0.423,0.385,0.941,0.669,1.206,1.212
		c0.189,0.39,0.379,0.779,0.582,1.162c0.114,0.215,0.234,0.445,0.553,0.378c0.122-0.309,0.271-0.595,0.333-0.944
		c0.112-0.618,0.244-1.289,1.02-1.51c0.137-0.039,0.219-0.27,0.235-0.29c0.545,0,0.928,0,1.274,0
		c0.188,0.741-0.098,1.33-0.392,1.921c-0.296,0.597-0.568,1.205-0.873,1.797c-0.077,0.149-0.23,0.241-0.218,0.454
		c0.013,0.218,0.056,0.344,0.309,0.309c0.381-0.451,0.296-1.201,0.9-1.494c0.383,0,0.739,0,1.096,0
		c0.374,0.083,0.577,0.385,0.832,0.629c0.208,0,0.423,0,0.743,0c0.151-0.188,0.352-0.438,0.517-0.643c0.513,0,0.944,0,1.376,0
		c0.278,0,0.513-0.174,0.764-0.251c0.728-0.222,1.441-0.374,2.205-0.419c0.615-0.037,1.145,0.326,1.772,0.231
		c0.45-0.517,0.951-1.008,1.579-1.34c-0.334-0.655-0.8-1.235-0.612-2.025c0.089-0.089,0.191-0.19,0.297-0.297
		c0.354,0,0.714,0,1.211,0c0.212,0.247,0.489,0.57,0.72,0.839c0.289,0,0.499,0,0.701,0c0.215-0.61,0.365-1.207,0.287-1.76
		c0.59-0.89,0.938-1.853,1.703-2.403c0-0.454,0-0.808,0-1.141c-0.705-0.485-0.705-0.485-1.441-0.46
		c-0.548,0.741-1.442,0.992-2.194,1.446c-0.452,0.272-0.976,0.265-1.511-0.049c-0.715-0.418-1.503-0.708-2.272-1.06
		c-0.526,0.541-1.027,1.055-1.514,1.554C42.069,47.226,41.134,47.226,40.22,47.226z M32.557,58.152
		c0.074,0.073,0.125,0.123,0.175,0.175c0.983,1.032,2.138,1.917,2.696,3.311c0.083,0.205,0.3,0.603,0.764,0.461
		c0-0.466,0-0.924,0-1.351c0.196-0.16,0.293-0.391,0.564-0.34c0.292,0.336,0.624,0.624,0.86,1.036
		c0.256,0.447,0.73,0.732,1.314,0.693c0.214-0.015,0.429-0.002,0.635-0.002c0.208-0.261,0.533-0.312,0.774-0.528
		c0.505-0.457,1.228-0.49,1.837-0.759c0.233-0.103,0.461,0.038,0.672,0.194c0.086,0.064,0.339,0.051,0.4-0.022
		c0.232-0.281,0.528-0.14,0.796-0.183c0.571-0.092,1.082,0.161,1.604,0.266c0.409,0.349,0.719,0.794,1.278,1.153
		c0.166-0.89,0.792-1.351,1.318-1.891c0.101-0.104,0.223-0.191,0.303-0.309c0.494-0.73,1.019-1.456,0.789-2.459
		c-0.296-0.16-0.59-0.318-0.869-0.469c-0.499,0.429-0.596,1.027-0.886,1.527c-0.309,0-0.622,0-0.938,0
		c-0.208-0.219-0.405-0.427-0.592-0.622c-0.163,0-0.306,0-0.514,0c-0.031,0.612-0.567,0.779-1.076,1.076
		c-0.272,0-0.644,0.061-0.984-0.016c-0.396-0.089-0.629,0.239-0.993,0.248c-1.156,0.026-2.264-0.274-3.367-0.508
		c-0.597-0.127-1.235-0.258-1.809-0.574c-0.564-0.313-1.186-0.529-1.865-0.448c-0.494,0.058-0.964-0.015-1.195-0.181
		c-0.531-0.601-0.378-1.144-0.414-1.657c-0.102-0.103-0.204-0.204-0.313-0.313c-0.207,0-0.42,0-0.624,0
		c-0.692-0.465-0.651-1.328-1.096-1.907c-0.436,0.016-0.559-0.73-0.976-0.353c-0.173,0.069-0.347,0.139-0.484,0.192
		c0.348,0.791,0.546,1.529,0.918,2.213c0.376,0.691,0.696,1.402,1.274,1.889C32.545,57.897,32.552,58.036,32.557,58.152z
		 M30.781,46.096c0.162-0.468,0.373-0.897,0.451-1.352c0.087-0.503-0.092-1.046,0.256-1.464c-0.494-0.566-0.998-0.95-1.753-0.744
		c0,0.434-0.042,0.833,0.012,1.22c0.058,0.409-0.131,0.765-0.259,1.087c-0.178,0.449-0.191,0.851-0.168,1.203
		C29.828,46.648,30.273,46.248,30.781,46.096z M40.369,12.653c-0.842,0.15-1.817-0.255-2.637,0.329
		c-0.063,0.823,0.614,0.892,1.006,1.185c0.663,0,1.302,0,1.931,0c0.106-0.227,0.204-0.437,0.305-0.651
		C40.788,13.277,40.773,12.935,40.369,12.653z M52.125,42.329c0.964-0.873,1.137-1.529,0.62-2.226c-0.662,0-1.34,0.014-2.017-0.006
		c-0.307-0.009-0.532,0.067-0.698,0.431C50.937,40.867,51.678,41.436,52.125,42.329z M32.767,38.934
		c-0.084-0.233,0.109-0.322,0.201-0.458c-0.248-0.196-0.212-0.594-0.481-0.718c-0.428,0-0.811,0-1.068,0
		c-0.415,0.19-0.393,0.535-0.565,0.765c0.234,0.179,0.188,0.533,0.459,0.674C31.802,39.34,32.249,39.202,32.767,38.934z
		 M34.92,32.713c0-0.277,0-0.491,0-0.502c-0.246-0.347-0.409-0.576-0.522-0.736c-0.419-0.019-0.754-0.084-0.969,0.319
		c0,0.264,0,0.574,0,0.869c0.158,0.327,0.553,0.273,0.736,0.498C34.398,33.021,34.629,32.885,34.92,32.713z M46.881,31.457
		c0.321-0.215,0.392-0.437,0.341-0.752c-0.164-0.171-0.356-0.372-0.496-0.517c-0.411-0.08-0.628,0.071-0.813,0.367
		c0.114,0.27-0.094,0.605,0.106,0.903C46.318,31.457,46.604,31.457,46.881,31.457z M49.824,36.997
		c0.77,0.482,0.962,0.387,1.08-0.457c-0.1-0.1-0.198-0.199-0.343-0.343c-0.211,0.12-0.501-0.12-0.737,0.125
		C49.824,36.54,49.824,36.75,49.824,36.997z M41.184,44.25c0,0.281-0.063,0.527,0.019,0.704c0.075,0.161,0.223,0.385,0.506,0.331
		c0.196-0.224,0.514-0.361,0.568-0.693C42.036,44.133,41.653,44.171,41.184,44.25z M40.673,37.529
		c0.143,0.255-0.011,0.447,0.149,0.597c0.2,0.021,0.409,0.124,0.594-0.096c-0.08-0.144,0.072-0.336-0.104-0.501
		C41.16,37.529,40.993,37.529,40.673,37.529z M35.332,17.875c0.072,0.284-0.062,0.549,0.09,0.824c0.101,0,0.197,0,0.381,0
		c-0.072-0.284,0.062-0.549-0.09-0.824C35.613,17.875,35.516,17.875,35.332,17.875z M40.111,31.696
		c-0.013,0.228-0.037,0.374,0.167,0.417c0.269,0.016,0.355-0.17,0.399-0.417C40.509,31.696,40.343,31.696,40.111,31.696z
		 M48.602,53.729c0.327,0.186-0.003,0.654,0.412,0.957c-0.106-0.414,0.028-0.677-0.129-0.957
		C48.793,53.729,48.698,53.729,48.602,53.729z M43.236,20.234c0.157-0.146,0.157-0.29,0-0.437
		C43.08,19.944,43.08,20.087,43.236,20.234z M56.196,40.966c-0.157,0.146-0.157,0.29,0,0.436
		C56.353,41.256,56.353,41.111,56.196,40.966z"/>
	<path fill="currentColor" d="M44.182,64.98c0,0.186,0,0.354,0,0.524
		c-0.415,0.224-0.839,0.448-1.529,0.169c0.039,0.037-0.084-0.079-0.152-0.143c-0.07-0.307,0.123-0.385,0.26-0.551
		C43.204,64.98,43.68,64.98,44.182,64.98z"/>
	
	
	
	
	
	
	
	
	
	
	
	
	
	
	
	
	
	
	
	
	<path fill="currentColor" d="M45.147,51.332c-0.484,0-0.984,0-1.482,0
		c-0.104-0.104-0.205-0.205-0.313-0.313c0-0.277,0-0.563,0-0.796c0.285-0.714,1.064-0.743,1.479-1.123
		c0.152-0.518-0.618-0.988,0.175-1.412c0.225,0,0.537,0,0.847,0c0.078,0.077,0.154,0.153,0.266,0.265c0,0.705,0,1.448,0,2.185
		C45.925,50.58,45.626,50.96,45.147,51.332z"/>
	<path fill="currentColor" d="M41.88,52.896c0.021-0.14-0.2-0.254-0.268-0.452
		c0.007-0.331,0.387-0.382,0.472-0.656c0.381,0,0.73,0,1.181,0c0.12,0.149,0.294,0.365,0.506,0.628
		c-0.098,0.23-0.211,0.544-0.514,0.862C42.847,53.25,42.369,53.414,41.88,52.896z"/>
</g>
</svg>
