<svg xmlns="http://www.w3.org/2000/svg" xml:space="preserve" width="72px" height="72px" viewBox="0 0 72 72">
    <g fill="currentColor">
        <path d="M19.358 53.661c.051-.064.161-.141.168-.224.04-.496.056-.993.077-1.436a8.5 8.5 0 0 1-.924-2.749c-.108-.123-.304-.259-.381-.444-.396-.951-1.456-1.115-2.077-1.793-.514-.054-.945.124-1.317.458-.121.636-.45 1.216-.21 1.91.2.578.349 1.162.809 1.634-.204.67.382 1.262.202 1.824.315.817.912 1.401.87 2.241-.286.263-.458.686-.954.571-.562-.337-.745-1.063-1.439-1.321.074-.637-.148-1.154-.616-1.568-.128-.114-.25-.221-.253-.438-.008-.441-.283-.759-.587-1.049-.13-.125-.247-.264-.384-.38-.572-.485-.876-1.078-.736-1.819l-.57-.57c-.301-.555-.27-1.107-.49-1.618-.216-.5-.792-.702-.809-1.325.243-.252.093-.654.142-1.114l-.579-.543c-.42-.879-.272-1.732-.302-2.65l-.644-.518c0-.79-.008-1.474.004-2.157.004-.235-.079-.482.146-.698.163-.156.119-.442.051-.61-.315-.781-.284-1.524-.013-2.319.107-.314.205-.787-.227-1.035.221-.377.297-.768.658-1.015v-2.053l.74-1.439c-.321-.386-.298-.839-.275-1.28.187-.302.516-.459.663-.815.115-.278.402-.485.609-.72-.037-1.124.603-1.985 1.175-2.857.225-.343.446-.654.601-1.051.194-.493.582-.917.919-1.344.222-.28.503-.514.769-.78v-.648c.68-.68 1.374-1.356 2.045-2.055.211-.22.505-.37.577-.734.033-.168.227-.309.464-.371.25-.065.448-.334.697-.39.673-.151.861-.88 1.477-1.132.518-.212 1.067-.451 1.455-.935.325-.405.737-.73 1.187-1.019.282-.182.767-.192.792-.73.005-.113.391-.299.597-.293.406.011.777-.108 1.049-.336.307-.257.742.099.968-.289.784-.097 1.425-.563 2.124-.867.47-.204.919-.251 1.381-.291.47-.139.747-.513 1.075-.829.141 0 .286.012.428-.002.319-.032.582.438.863.19.265-.233.576-.075.783-.206.397-.25.808-.212 1.217-.191 1.097.056 2.154-.35 3.261-.249.242.022.55-.201.798-.395.315-.246.679-.436 1.038-.615.291-.145.544-.032.772.278v1.171c.312.606.539 1.093.811 1.552.106.18.121.44.058.495-.304.266-.175.594-.201.899-.052.621.114 1.251-.201 1.861-.187.36.218.708.244 1.074-.692.71-1.231 1.453-1.15 2.252-.169.763-.602.959-1.082 1.199-.607.304-1.325.529-1.628 1.281-.074.183-.355.308-.548.446-.572.411-1.206.737-1.579 1.439-.282.53-.81.996-1.41 1.223-.479.181-.71.525-.834.943-.06.201-.175.453-.256.53-.813.773-1.374 1.712-1.963 2.652-.493.787-1.177 1.452-1.724 2.209-.207.286-.297.669-.389 1.022-.111.428.048.861-.175 1.335-.171.363-.183.838-.43 1.225-.083.13-.046.342-.048.517-.005.468-.002.936-.002 1.404.238.292.28.72.631.889.041.699.285 1.244.674 1.818.628.928 1.491 1.473 2.414 2 .239.137.41.39.635.559.489.366.975.75 1.64.731.139-.004.312-.026.411.043.785.547 1.739.677 2.582 1.071.47.22.927.423 1.456.396 1.371 1.177 1.508 1.299 2.633 1.516l.831.865h.984c.435 1.179 1.415 1.904 2.241 2.759.348.359.497.77.609 1.266.176.767.153 1.526.194 2.292.05.933.012 1.554-.219 2.211l.223.242c-.292.78-.644 1.543-.858 2.343-.216.806-.981 1.302-1.176 2.241-.522.435-.956 1.073-1.231 1.84-.109.307-.334.57-.437.899-.104.332-.522.305-.744.534-.65.673-1.323 1.324-1.979 1.99-.323.327-.672.591-1.278.615l-.469-.88a2.84 2.84 0 0 1 .818-1.399c0-1.021-.013-2.062.007-3.102.006-.336-.006-.651.165-1.011.275-.574-.072-1.168-.687-1.619-.255-.188-.468-.432-.691-.643h-.617c-1.137.96-1.727 2.275-2.044 3.723-.062.279-.217.492-.306.743-.098.279-.462.411-.586.728-.109.279-.273.536-.437.848.342.383.206.889.231 1.426l-.537.432-.542-.45c-.046-.46.15-.775.427-1.092 0-.616.139-1.303-.033-1.898-.255-.882-.147-1.748-.172-2.62-.01-.368-.048-.722.173-1.116.28-.501-.09-1.099-.231-1.606-.113-.406-.099-.813-.212-1.197-.232-.582-.733-.936-1.142-1.371h-.621l-.943.913c-.418 1.273-.256 2.583-.892 3.731-.152.275-.058.707-.025 1.063.079.86-.275 1.537-.84 2.169-.081.704-.092 1.459-.588 2.121-.526-.225-.741-.66-.718-1.079.08-1.459-.147-2.895-.25-4.338-.112-1.569.396-3.098.201-4.698-.271-.294-.48-.664-.664-1.08-.163-.368-.206-.779-.446-1.125-.807-.408-1.634-.391-2.463-.016-.291.642-.467 1.281-.123 1.975.086.174.133.485.037.611-.322.424-.144.887-.201 1.327-.039.302.038.59-.165.91-.164.258-.178.774-.023 1.037.417.708.126 1.24-.263 1.835.164.37.54.804-.136 1.104-.614-.367-.634-.444-.302-1.147a6 6 0 0 1-.652-1.925c-.107-.608-.386-1.202-.631-1.93"/>
        <path d="M29.651 35.346h-.447a1.13 1.13 0 0 1-.389-.578c-.196-.631-.682-1.225-.16-1.914a3.8 3.8 0 0 1 .208-1.533c.282-.801.738-1.186 1.588-1.605a7 7 0 0 0 1.896-1.396c.466-.825.422-1.525.414-2.222-.002-.17.009-.321.113-.494.362-.6.619-1.269 1.019-1.84.519-.744 1.321-1.062 2.226-1.173.566-.697 1.429-1.017 2.184-1.465.447-.266.885-.508 1.25-.881.555-.565 1.118-1.121 1.706-1.708.651-.008 1.172-.381 1.515-.903.234-.356.48-.687.793-.957.226-.196.346-.481.398-.699.194-.804.623-1.438 1.199-1.99.68-.65.972-1.571 1.624-2.234.049-.56-.105-1.142.295-1.627.291-.141.529-.046.783.282-.105.76.456 1.53.185 2.369l-.819 1.593c.033.508-.003 1.093-.297 1.73l-.545.544v.909l.252.251c.064.017.13.047.195.048.396.004.797.044 1.187-.006 1.033-.135 2.046.119 3.035.274.892.14 1.817.447 2.628.917.493.286 1.155.271 1.495.827.017.028.028.06.048.104-.021.318-.345.419-.525.693-1.011 0-2.052.054-3.084-.02-.616-.044-1.219-.232-1.855-.206-.739.03-1.426.203-1.988.673-.36.301-.871.181-1.191.524.016.204-.075.437.15.583.579.377 1.198.633 1.906.61.54.611 1.287.979 1.839 1.586.166.184.477.393.813.352.225-.027.282.188.45.276v.87c.248.275.562.513.557 1.01-.578.614.467 1.346.164 2.139-.178.12-.354.24-.507.342.437.873.146 1.739.264 2.569l-1.244 1.219c-.241.028-.485.017-.711-.373.075-.843-.324-1.705-.69-2.576-.661-.326-.332-1.353-1.204-1.657-.054 1.253-.299 2.418-.575 3.82-.003.008-.318.072-.35.362.039.259.329.342.434.564v.54c-.033.058-.055.129-.102.172-.284.26-.506.562-.695.899a.7.7 0 0 0-.058.512c.229 1.06.233 1.057-.008 1.875-.123.416-.198.848-.47 1.298.601.519.792 1.228.672 2.018.371.31.566.764.891 1.035.313.262.647.514.961.796h1.076l.818.837c2.578.087 3.093.035 4.058-.412.281.082.384.405.628.534.408.217.776.479 1.328.236a1.89 1.89 0 0 1 1.705.092c.194.108.354.213.425.416.294.832.927 1.348 1.689 1.771v1.123c.29.283.316.688.644.852.217.761-.346 1.44-.171 2.18-.423.396-.022 1.04-.433 1.44.059.708-.435 1.139-.843 1.591-.558.619-1.1 1.229-1.568 1.936-.526.793-1.323 1.409-2.024 2.079-.069.066-.252.047-.36.162-.297.313-.608.613-.913.919-.934-.119-1.486.775-2.339.879-.455-.26-.497-.65-.273-1.064.258-.478.508-.968.909-1.353.182-.175.354-.358.535-.533.895-.861 1.756-1.753 2.541-2.892-.164-.739.309-1.505.535-2.316.081-.287.152-.468-.01-.751-.197-.346-.028-.766-.09-1.151-.626-.6-1.163-1.313-2.237-1.603h-1.062c-.469.32-1.055.424-1.419 1.008v.805c-.33.335-.632.615-.814 1.012a.8.8 0 0 0-.062.51c.149.774.056 1.219-.41 1.708q-.112.116-.229.229c-.024 1.246-.105 1.845-1.056 2.313.082.382-.298.69-.256 1.152-.454.175-.768.541-1.084.901.081.443-.374.732-.245 1.131-.889.449-1.435 1.165-2.043 1.798-.578.601-1.249.956-2.061 1.027-.24.021-.411.084-.541.263-.185.256-.42.201-.68.132-.237-.596.485-.957.376-1.575.967-.733 1.319-1.918 1.945-2.924.214-.344.476-.674.635-1.031.238-.534.268-1.137.246-1.736-.029-.788.003-.822.399-1.616-.295-.556-.304-1.073.021-1.624-.132-.232-.163-.555-.435-.786.058-.42-.111-.891.182-1.358-.628-1.253-1.557-2.557-2.623-3.685-.139-.146-.298-.265-.377-.49-.102-.287-.358-.476-.653-.629-.952-.496-1.91-.991-2.78-1.624-.288-.21-.59-.031-.896-.194-.672-.356-1.432-.543-2.112-.886-.229-.115-.513.045-.685-.197l-.831-1.302c-.063-.575-.028-1.135.332-1.665.226-.333.011-.766.125-1.186.41-.404.9-.818.826-1.55-.033-.323.332-.407.446-.677.283-.67.817-1.165 1.45-1.498.617-.325.88-.795.916-1.519-.485.043-.813.248-1.099.545-.482.5-1.069.854-1.646 1.232-.726.476-1.483.711-2.335.566-.334-.232-.78-.334-.976-.895v-.482c.394-.405.935-.829.837-1.729-.33.291-.702.177-.886.652-.15.388-.588.696-1.065.745-.529.054-.88.362-1.239.749v.659c-.619.357-.714 1.124-1.189 1.621m8.256-8.202c.43-.805 1.263-1.342 1.581-2.245-.762-.813-1.414-.01-2.09.099-.691.112-.835.722-.97 1.203l.935.943zm-2.879 3.238q.152-.107 0-.214-.151.108 0 .214"/>
        <path d="M57.366 21.192c-.293-.285-.487-.727-.668-1.217a4.47 4.47 0 0 0-1.541-2.044c-.212-.156-.497-.327-.846-.304-.671.045-1.229-.305-1.863-.638-.879.162-1.781-.374-2.719-.202l-.337-.336v-.417c0-.54-.053-1.086.015-1.617.065-.511.553-.835.736-1.31.049-.124.102-.246.087-.211.665-.74 1.283-.301 1.918-.169.104.105.247.22.356.361.679.871 1.656 1.339 2.563 1.897.26.16.576.196.612.604.01.111.208.249.383.331.56.262.986.732 1.29 1.224.231.376.499.724.826.931.766.484 1.296 1.197 1.955 1.758.054.43.161.843.469 1.115.44.39.626.89.749 1.422.24 1.029.839 1.885 1.303 2.807.24.478.489.952.778 1.515.019.477-.117 1.095.365 1.574-.039.872.405 1.647.497 2.492.105.981.162 1.976.581 2.889.084.184.048.343.064.513.053.549-.124 1.119.207 1.645.081.129.065.375.003.528-.332.812-.191 1.594-.019 2.421.137.655.027 1.361.027 2.083-.321.28-.525.665-.654 1.011.013.512.463.766.438 1.308-.689.645-.719 1.686-1.153 2.541-.464.056-.913.085-1.386-.342-.08-.186-.358-.478-.269-.891a.2.2 0 0 0-.001-.107c-.064-.153-.235-.236-.231-.451.002-.102-.16-.273-.275-.3-.529-.124-.486-.895-1.113-.944-.147-.012-.342-.179-.563-.187-.535-.018-.896-.434-1.359-.644h-1.968c-.183-.343-.6-.401-.818-.591-1.9.333-3.708.197-5.447-.268-.13-.243-.28-.411-.307-.597-.045-.317-.013-.646-.013-.97.184-.404.452-.681.84-.951.64-.445 1.141-1.088 1.701-1.648.017-.029.048-.057.05-.086.041-.749.577-1.272.859-2.012-.596-.562.095-1.209.031-1.866.335-.24.15-.591.188-.893.072-.582-.094-1.165.189-1.759.183-.382-.32-.829-.188-1.3-.41-.732-.235-1.463.021-2.143-.537-.893-.988-1.789-1.945-2.199v-1.414l-.413-.291c-.083-.42-.032-.682.32-.889.369.101.805-.134 1.258.179.352.243.92-.182 1.294.25a5 5 0 0 0 2.241-.31c.169-.063.331-.073.489-.123.298-.093.461-.306.393-.758m-15.2-12.624h.431c.069.072.173.136.213.228.249.56.64.995 1.213 1.188.409.137.599.408.743.761.137.338.198.668-.121.95.052.729-.489 1.189-.86 1.678-.334.438-.513 1.085-1.203 1.198-.461.076-.94.09-1.403-.276.082-.502-.172-1.074.227-1.58-.145-.368-.33-.729-.42-1.111-.051-.213-.07-.461.108-.703.171-.23.163-.564.289-.844.092-.208.017-.492.017-.737.304-.17.172-.638.766-.752"/>
    </g>
</svg>
