<?xml version="1.0" encoding="iso-8859-1"?>
<!-- Generator: Adobe Illustrator 16.0.0, SVG Export Plug-In . SVG Version: 6.00 Build 0)  -->
<!DOCTYPE svg PUBLIC "-//W3C//DTD SVG 1.1//EN" "http://www.w3.org/Graphics/SVG/1.1/DTD/svg11.dtd">
<svg version="1.1" id="Layer_1" xmlns="http://www.w3.org/2000/svg" xmlns:xlink="http://www.w3.org/1999/xlink" x="0px" y="0px"
	 width="72.36px" height="72.18px" viewBox="0 0 72.36 72.18" style="enable-background:new 0 0 72.36 72.18;" xml:space="preserve"
	>
<g>
	
	<path fill="currentColor" d="M28.764,64.512c-0.154-0.262-0.467-0.321-0.696-0.403
		c-0.266-0.096-0.479-0.262-0.558-0.444c-0.3-0.692-0.998-0.885-1.503-1.314c-0.583-0.497-1.17-0.989-1.46-1.741
		c-0.204-0.529-0.619-0.95-0.789-1.511c-0.054-0.179-0.033-0.343-0.083-0.539c-0.315-0.302-0.651-0.625-0.933-0.896
		c-0.349-0.716-0.43-1.409-0.333-2.099c0.051-0.364-0.121-0.706-0.265-0.856c-0.392-0.409-0.614-0.942-1.041-1.313
		c0.016-0.902-0.262-1.757-0.49-2.609c-0.059-0.221-0.15-0.442-0.167-0.683c-0.046-0.692,0.146-1.41-0.215-2.07
		c0.158-1.208-0.306-2.374-0.228-3.583c0.061-0.946,0.03-0.987,0.756-1.743c0.359,0.235,0.562,0.596,0.766,1.053
		c0,0.263,0,0.622,0,1.086c0.19,0.158,0.436,0.363,0.628,0.523c0.102,0.934,0.632,1.624,0.897,2.413
		c0.609,0.354,0.859,0.956,1.144,1.559c0.286,0.604,0.695,1.15,0.993,1.75c0.149,0.302,0.377,0.483,0.631,0.716
		c0.551-0.258,0.614-0.775,0.718-1.269c0.305-0.305,0.611-0.61,0.931-0.931c0.127,0,0.295-0.05,0.407,0.008
		c1.13,0.582,2.47,0.377,3.595,0.969c0.363,0.191,0.8,0.075,1.172,0.307c0.262,0.162,0.534-0.209,0.764-0.183
		c0.998,0.117,1.939-0.391,2.938-0.22c0.311,0.35,0.739,0.605,0.854,1.123c0.315-0.366,0.567-0.66,0.818-0.953
		c0.084-0.271,0.293-0.602,0.532-0.882c0.306-0.359,0.43-0.794,0.457-1.212c0.05-0.776,0.408-1.359,0.907-1.898
		c0.17-0.184,0.33-0.376,0.408-0.466c0.355-0.121,0.426,0.116,0.562,0.161c0.245,0.045,0.427-0.138,0.438-0.258
		c0.052-0.512,0.327-0.973,0.303-1.503c-0.027-0.574,0.013-1.152-0.012-1.728c-0.028-0.666,0.039-1.313,0.342-1.911
		c0.174-0.344,0.102-0.698,0.085-1.041c-0.033-0.705,0.136-1.366,0.379-2.008c0.11-0.288,0.144-0.636,0.039-0.824
		c-0.342-0.615-0.104-1.246-0.179-1.698c0.316-1.013,1.429-1.438,1.274-2.521c-0.182-0.384-0.65-0.26-0.767-0.519
		c-0.455-0.101-0.641,0.256-0.953,0.288c0,0.222-0.011,0.438,0.002,0.651c0.044,0.717-0.037,1.354-0.588,1.927
		c-0.415,0.431-0.346,0.595-0.062,1.189c-0.463,1.356-0.815,2.736-0.897,4.281c-0.204,0.623-1.028,0.983-1.088,1.771
		c-0.589,0.127-0.851-0.228-1.021-0.616c-0.078-0.178-0.166-0.387-0.205-0.558c-0.115-0.511,0.065-1.062-0.107-1.58
		c-0.16-0.482-0.364-0.938-0.369-1.474c-0.005-0.466-0.139-0.937-0.438-1.297c-0.466-0.233-0.848,0.003-1.191,0.192
		c-0.381,0.209-0.66,0.201-1.045-0.018c-1.113-0.633-2.298-0.612-3.498-0.25c-0.097,0.029-0.204,0.005-0.284,0.101
		c-0.092,0.11-0.202,0.206-0.317,0.321c-0.198,0-0.41,0-0.68,0c-0.227-0.255-0.488-0.549-0.726-0.817
		c-0.675-0.096-1.233-0.031-1.711,0.481c0,0.353,0,0.738,0,1.124c0.042,0.469,0.481,0.706,0.671,1.12
		c0.189,0.417-0.054,0.942,0.38,1.249c0.054,0.293-0.284,0.44-0.233,0.776c0.131,0.862-0.078,1.733,0.194,2.62
		c0.171,0.558,0.196,1.259-0.173,1.738c-0.017,0.365,0.209,0.442,0.354,0.575c0.271,0.041,0.499-0.019,0.66-0.266
		c0.018-0.051,0.059-0.113,0.06-0.177c0.006-0.359,0.045-0.726-0.005-1.079c-0.128-0.896,0.281-1.681,0.488-2.504
		c0.123-0.487,0.563-0.787,0.924-1.155c0.121,0,0.276-0.037,0.399,0.01c0.124,0.047,0.216,0.177,0.337,0.283c0,0.346,0,0.7,0,1.153
		c-0.264,0.22-0.591,0.493-0.812,0.677c-0.086,0.66-0.017,1.129,0.302,1.546c0.127,0,0.271,0,0.428,0
		c0.935-0.85,1.436-1.904,1.391-3.188c-0.015-0.427,0.415-0.758,0.2-1.176c0.519-0.69,1.191-1.068,1.887-1.254
		c0.322,0.319,0.596,0.591,0.958,0.95c0.179,0.688,0.296,1.563,0.878,2.247c-0.353,0.824-0.84,1.332-1.778,1.372
		c-0.372,0.016-0.783,0.306-0.999,0.678c-0.343,0.589-0.847,1.027-1.301,1.515c-0.11,0.118-0.04,0.353-0.271,0.448
		c0,0.882,0,1.771,0,2.646c-0.664,0.65-1.152,0.127-1.696-0.16c0-0.401,0-0.787,0-1.189c0.513-0.482,0.409-1.116,0.386-1.75
		c-0.537-0.202-0.823,0.25-1.246,0.314c0,0.552,0,1.011,0,1.431c-0.216,0.217-0.395,0.395-0.571,0.571
		c-0.267,0.063-0.525-0.002-0.814,0.127c-0.489,0.219-1.025,0.358-1.6,0.325c-0.436-0.025-0.868-0.056-1.331,0.164
		c-0.438,0.209-0.935-0.082-1.31-0.481c-0.049-0.496-0.021-0.986,0.164-1.5c0.108-0.301,0.339-0.598,0.255-0.983
		c-0.066-0.301,0.18-0.642,0.164-0.877c-0.047-0.653,0.302-1.221,0.264-1.857c-0.035-0.61,0.121-1.259-0.036-1.827
		c-0.269-0.98-0.121-1.959-0.204-2.927c-0.106-0.108-0.207-0.211-0.316-0.323c-0.308,0.003-0.521,0.328-0.873,0.259
		c-0.119-0.023-0.678,0.745-0.84,1.046c-0.4-0.045-0.87,0.186-1.196-0.344c0.033-0.783-0.072-1.617,0.193-2.448
		c0.071-0.224,0.148-0.451,0.25-0.654c0.271-0.54,0.467-1.104,0.645-1.678c0.11-0.357,0.267-0.697,0.564-0.955
		c0.617-0.532,1.126-1.165,1.6-1.822c0.235-0.325,0.446-0.677,0.604-1.044c0.091-0.213,0.092-0.485-0.021-0.718
		c-0.272-0.559-0.519-1.179-1.076-1.487c-0.864-0.478-1.441-1.18-1.796-2.057c-0.216-0.534-0.621-0.837-1.08-1.027
		c-0.46-0.19-0.861-0.411-1.096-0.694c-0.292-0.733-0.357-1.384-0.277-2.029c0.11-0.118,0.208-0.223,0.298-0.319
		c0.468-0.05,0.791,0.212,1.148,0.458c0.176,0.395-0.181,0.958,0.368,1.241c0.267-0.136,0.466-0.431,0.311-0.664
		c-0.512-0.767-0.507-1.74-1.049-2.49c-0.068-0.094-0.084-0.256-0.194-0.347c-0.655-0.542-0.945-1.329-1.381-2.019
		c-0.182-0.287-0.272-0.666-0.607-0.824c-0.299-0.142-0.627-0.225-0.955-0.338c-0.104-0.188-0.217-0.39-0.335-0.602
		c-0.064-0.229,0.322-0.293,0.218-0.549c0.348-0.219,0.693-0.445,1.232-0.311c0.532,0.617,1.23,1.123,2.155,1.317
		c0.526,0.11,0.844,0.604,1.209,0.978c0.345,0.354,0.716,0.643,1.304,0.717c1.268-1.325,2.993-1.948,4.718-2.61
		c-0.199-0.995,0.278-1.615,0.953-2.162c0.331,0,0.688,0,1.057,0c0.191,0.14,0.354,0.313,0.379,0.603
		c0.488,0.131,1.056-0.136,1.477,0.29c0.674-0.413,0.658-1.047,0.634-1.652c0.176-0.176,0.329-0.328,0.495-0.495
		c0.223-0.113,0.569,0.054,0.728-0.265c0.577,0.071,0.891,0.514,1.267,0.865c0.574-0.067,0.914-0.557,1.408-0.774
		c0.659-0.29,1.301-0.558,2.053-0.537c0.618,0.018,1.238,0.103,1.865-0.175c0.436-0.193,0.978,0.101,1.383,0.261
		c0.87,0.346,1.846,0.606,2.408,1.487c0.176,0.276,0.52,0.337,0.743,0.542c0.438,0.401,0.884,0.805,1.109,1.355
		c0.258,0,0.474,0,0.708,0c0.584,0.576,0.592,1.556,1.364,1.999c0.044,0.958,0.173,1.905-0.451,2.595
		c0.101,0.463,0.425,0.557,0.565,0.834c0.511-0.161,0.964,0.076,1.421,0.201c0.618,0.17,1.065,0.592,1.294,1.208
		c0.4,1.077,0.578,1.31,1.305,1.929c0.41,0.349,0.769,0.758,1.15,1.14c0.35,0.063,0.664,0.045,0.984-0.177
		c0.555-0.383,1.185-0.528,1.867-0.446c0.283,0.034,0.573,0.006,0.842,0.006c0.257,0.263,0.663,0.289,0.823,0.611
		c1.334,0.247,2.603-0.43,4.022-0.098c0.078,0.087,0.244,0.274,0.425,0.477c0.229,0.946-0.207,1.66-0.948,2.232
		c-0.943,0.056-1.69,0.583-2.521,0.96c-0.776,0.353-1.549,0.778-2.46,1.119c-0.259,0.259-0.611,0.612-0.952,0.954
		c-0.446,0-0.833,0-1.181,0c-0.267,0.268-0.469,0.539-0.733,0.713c-0.243,0.161-0.473,0.404-0.813,0.375
		c-0.81-0.069-1.443,0.354-2.045,0.792c-0.692,0.502-1.428,0.768-2.249,0.714c-0.529-0.475-0.57-1.197-1.029-1.708
		c-0.781-0.106-1.164,0.492-1.693,0.969c0.22,1.057-0.309,2.106-0.184,3.2c0.03,0.256-0.149,0.383-0.235,0.554
		c-0.443,0.872-0.664,1.779-0.644,2.761c0.026,1.259,0.006,2.52,0.006,3.779c-0.249,0.41-0.519,0.814-0.432,1.333
		c-0.486,0.333,0.056,1-0.432,1.333c0,0.503,0,1.006,0,1.421c-0.222,0.43-0.406,0.788-0.648,1.258
		c0.001,1.05,0.104,2.244-0.54,3.438c-0.367,0.287-0.925,0.265-1.453,0.24c-0.366,0.13-0.324,0.539-0.61,0.763
		c0.176,0.786-0.372,1.533-0.171,2.408c0.241,0.228,0.528,0.498,0.812,0.765c0,0.524,0,1.023,0,1.559
		c-0.339,0.645-0.882,1.225-1.1,2.026c-1.153,0.215-1.309,1.172-1.504,2.126c-0.367,0.367-0.749,0.749-1.106,1.106
		c-0.829,0.156-1.56,0.675-2.321,0.485c-0.518,0.201-0.864,0.488-1.169,0.861c-0.456,0-0.926,0.043-1.384-0.012
		c-0.474-0.057-0.845,0.27-1.316,0.249c-0.396-0.017-0.865-0.223-1.206,0.195C30.059,64.512,29.412,64.512,28.764,64.512z
		 M43.156,23.016c0.702,0.296,1.182,0.792,1.334,1.548c0.256-0.088,0.347,0.101,0.482,0.195c0.571-0.358,1.041-0.907,1.597-1.856
		c0-0.451,0-0.875,0-1.291c-0.247-0.157-0.404-0.382-0.647-0.539c-0.487-0.314-0.96-0.25-1.318,0.042
		c-0.497,0.406-1.126,0.67-1.447,1.165C43.156,22.575,43.156,22.781,43.156,23.016z M31.724,24.134
		c0.316,0.195-0.021,0.884,0.606,1.07c0.2,0.004,0.326-0.172,0.39-0.306c0.266-0.551,0.742-0.856,1.203-1.217
		c0.569-0.445,1.142-0.966,0.979-1.847c-0.165-0.165-0.343-0.343-0.521-0.521c-0.215,0-0.43,0-0.646-0.001
		C32.934,22.123,32.008,22.84,31.724,24.134z M38.592,29.157c-0.058-0.043-0.114-0.085-0.171-0.128
		c-0.484,0.544-1.102,0.942-1.558,1.475c0,1.85,0.168,2.341,1.019,3.054c0.615-0.446,0.899-1.104,1.169-1.753
		c-0.162-0.446-0.373-0.842-0.442-1.261C38.535,30.092,38.592,29.619,38.592,29.157z M28.847,22.635
		c-0.735-0.164-1.437-0.544-2.252-0.45c-0.416,0.439-0.936,0.806-1.126,1.406c0.159,0.176,0.325,0.361,0.472,0.524
		c0.248,0,0.461,0,0.673,0c0.154-0.236,0.45-0.338,0.537-0.64c0.099-0.345,0.475-0.29,0.698-0.451
		c0.297,0.298,0.631,0.263,0.967,0.192C28.918,23.035,28.868,22.863,28.847,22.635z M35.947,55.736
		c0.426-0.951,0.74-1.849,0.697-2.869c-0.375,0-0.685,0-0.99,0c-0.199,0.254-0.602,0.211-0.761,0.623
		C35.03,54.248,35.264,55.035,35.947,55.736z M43.814,30.532c0.173-0.443,0.648-0.31,0.846-0.756
		c-0.169-0.369,0.241-0.927-0.333-1.315c-0.353,0-0.735,0-1.04,0c-0.608,0.285-0.277,0.781-0.388,1.148
		C43.167,29.878,43.417,30.132,43.814,30.532z M41.572,19.67c0.858-0.306,1.646-0.34,2.283-0.912
		c-0.396-0.498-0.479-1.257-1.384-1.083C42.292,18.344,41.647,18.764,41.572,19.67z M55.771,27.799
		c-1.285,0.172-1.676,0.514-1.843,1.61c0.189,0.225,0.39,0.424,0.728,0.323c0.626-0.404,0.84-1.176,1.44-1.607
		C55.974,28.001,55.873,27.9,55.771,27.799z M31.083,18.691c0.303-0.268,0.57-0.504,0.81-0.716c0.031-0.395-0.052-0.673-0.443-0.772
		c-0.62,0.324-1.292,0.579-1.683,1.223c0.084,0.084,0.161,0.161,0.265,0.265C30.387,18.691,30.773,18.691,31.083,18.691z
		 M46.698,18.936c0.371-0.009,0.794,0.097,0.979-0.435c-0.098-0.739-0.537-1.214-1.317-1.499
		C46.403,17.666,46.241,18.295,46.698,18.936z M33.295,54.791c0.256-0.254,0.509-0.505,0.761-0.755c0-0.146,0-0.289,0-0.486
		c-0.483-0.12-0.956-0.604-1.464,0.006c-0.204,0.479,0.091,0.846,0.28,1.235C33.014,54.791,33.157,54.791,33.295,54.791z
		 M26.733,54.5c0.238,0.097,0.313,0.487,0.71,0.517c0.117-0.112,0.24-0.232,0.338-0.327c0-0.322,0-0.606,0-0.67
		c-0.143-0.592-0.456-0.528-0.75-0.523C26.974,53.79,26.671,53.99,26.733,54.5z M45.738,27.359c0.307,0,0.518,0,0.503,0
		c0.306-0.162,0.462-0.245,0.725-0.385c-0.348-0.2-0.312-0.506-0.508-0.696c-0.237,0.035-0.49-0.082-0.72,0.083
		C45.738,26.669,45.738,26.979,45.738,27.359z M48.188,28.854c-0.337,0.553-0.407,1.105-0.205,1.308
		c0.164-0.021,0.342,0.071,0.496-0.05c0.032-0.329,0.406-0.564,0.202-1.011C48.474,29.21,48.354,29.025,48.188,28.854z
		 M36.406,23.749c0.385,0.346,0.315,0.928,0.805,1.219c0.111-0.119,0.203-0.217,0.279-0.297
		C37.19,24.31,37.394,23.469,36.406,23.749z M30.06,53.713c-0.101,0.07-0.101,0.143,0,0.213
		C30.161,53.855,30.161,53.783,30.06,53.713z"/>
	<path fill="currentColor" d="M18.774,21.309c-0.12-0.423-0.408-0.731-0.192-1.269
		c0.081-0.057,0.284-0.2,0.619-0.434c0.006,0,0.213,0,0.538,0c0.082,0.121,0.22,0.324,0.462,0.682c0,0.083,0,0.394,0,0.731
		c-0.151,0.151-0.327,0.327-0.48,0.48C19.352,21.69,19.145,21.28,18.774,21.309z"/>
	<path fill="currentColor" d="M39.788,44.54c-0.39-0.26-0.575-0.378-0.548-0.654
		c0.098-0.126,0.22-0.14,0.361-0.075C39.763,43.997,39.598,44.19,39.788,44.54z"/>
	
	
	
	
	
	
	
	
	
	
	
	
	
	
	
	
</g>
</svg>
