<?xml version="1.0" encoding="iso-8859-1"?>
<!-- Generator: Adobe Illustrator 16.0.0, SVG Export Plug-In . SVG Version: 6.00 Build 0)  -->
<!DOCTYPE svg PUBLIC "-//W3C//DTD SVG 1.1//EN" "http://www.w3.org/Graphics/SVG/1.1/DTD/svg11.dtd">
<svg version="1.1" id="Layer_1" xmlns="http://www.w3.org/2000/svg" xmlns:xlink="http://www.w3.org/1999/xlink" x="0px" y="0px"
	 width="72.36px" height="72.18px" viewBox="0 0 72.36 72.18" style="enable-background:new 0 0 72.36 72.18;" xml:space="preserve"
	>
<g>
	
	<path fill="currentColor" d="M32.085,37.809c-0.446-0.562-1.073-0.175-1.584-0.333
		c-0.417-0.134-0.66-0.523-1.01-0.711c-0.36-0.193-0.516-0.489-0.76-0.754c-0.333-0.363-0.792-0.708-1.257-0.833
		c-0.877-0.236-1.229-0.916-1.621-1.584c-0.313-0.535-0.603-1.037-1.22-1.335c-0.334-0.161-0.626-0.513-0.797-0.942
		c-0.262-0.658-0.777-1.182-1.157-1.782c-0.487-0.771-0.947-1.551-1.352-2.364c-0.083-0.167-0.201-0.276-0.296-0.419
		c-0.459-0.141-0.94,0.037-1.428-0.211c-0.284-0.145-0.779-0.142-1.207,0.135c-0.636,0.412-1.381,0.624-2.222,0.417
		c-0.054-0.044-0.149-0.121-0.292-0.175c-0.705-0.267-1.235-0.76-1.472-1.477c-0.211-0.64-0.621-1.097-1.211-1.291
		c-0.354-0.117-0.475-0.407-0.743-0.556c0-0.224,0-0.439,0-0.764c0.173-0.167,0.402-0.39,0.65-0.63
		c0.038-0.377-0.16-0.691-0.428-1.002c0-0.334,0-0.692,0-1.057c0.126-0.326,0.533-0.286,0.736-0.545c0.349,0,0.706,0,1.083,0
		c0.336-0.363,0.676-0.731,1.008-1.09c0.262,0,0.475,0.018,0.685-0.003c0.676-0.068,1.306,0.042,1.874,0.435
		c0.369,0.255,0.851,0.19,1.194,0.497c0.614-0.316,1.177-0.606,1.774-0.913c0.836-0.11,1.677,0.038,2.423,0.526
		c0.248,0.163,0.484,0.044,0.714,0.109c0.578,0.163,1.198,0.121,1.729,0.542c0.249,0.197,0.663,0.288,1.044,0.334
		c0.501,0.061,1.021,0.157,1.365,0.607c0.043,0.057,0.099,0.104,0.152,0.153c0.037,0.033,2.807,1.151,2.863,1.17
		c0.788,0.271,1.568,0.564,2.365,0.805c0.288,0.087,0.596,0.199,0.842,0.312c0.562,0.257,1.232,0.502,1.288,1.345
		c0.012,0.175,0.173,0.497,0.404,0.689c0.699,0.583,1.116,1.384,1.491,2.186c0.317,0.679,0.695,1.245,1.392,1.586
		c0.244,0.12,0.419,0.383,0.657,0.61c0.461,0,0.959,0,1.482,0c0.729-0.681,1.875-0.692,2.594-1.506
		c1.25,0.21,2.439-0.393,3.777-0.144c0.094,0.112,0.254,0.303,0.477,0.569c0.08,0.622-0.19,1.231-0.839,1.522
		c-1.507,0.678-1.885,1.95-1.966,3.418c-0.006,0.107-0.001,0.216-0.001,0.494c0.074,0.053,0.26,0.165,0.418,0.306
		c0.309,0.276,0.559,0.568,1.042,0.636c0.477,0.068,0.936,0.337,1.376,0.567c0.561,0.292,1.183,0.336,1.771,0.397
		c0.823,0.087,1.395,0.649,2.116,0.912c0.373,0.137,0.672,0.475,0.842,0.887c0.187,0.455,0.793,0.604,0.867,1.152
		c1.293,1.316,2.025,3.079,3.435,4.302c0.269,0.232,0.307,0.601,0.476,0.879c0.583,0.958,1.331,1.805,1.907,2.775
		c0.233,0.394,0.353,0.779,0.468,1.217c0.232,0.875,0.16,1.744,0.189,2.684c0.202,0.246,0.535,0.473,0.645,0.861
		c0,0.178,0.003,0.355,0,0.532c-0.01,0.552-0.041,1.058-0.327,1.597c-0.339,0.638-0.413,1.416-0.648,2.313
		c-0.044,0.028-0.257,0.163-0.47,0.298c0.03,0.043,0.061,0.086,0.09,0.129c-0.313,0-0.627,0-0.95,0
		c-0.292,0.51-0.62,0.958-1.056,1.298c-0.368,0-0.726,0-1.075,0c-0.288-0.289-0.568-0.568-0.848-0.849
		c-0.199,0.148-0.309,0.342-0.396,0.58c-0.083,0.226-0.275,0.411-0.326,0.482c-0.854,0.043-1.339-0.344-1.58-0.813
		c-0.494-0.96-1.38-1.507-2.075-2.251c-0.022-0.025-0.039-0.056-0.02-0.092c-0.577-1.296-0.336-2.765-0.958-4.133
		c-0.568-0.047-0.97-0.491-1.359-0.929c-0.694-0.781-1.562-1.103-2.529-1.063c-0.276-0.16-0.494-0.361-0.745-0.419
		c-1.756-0.403-3.201-1.486-4.828-2.167c-0.207-0.087-0.333-0.216-0.423-0.42c-0.22-0.503-0.643-0.821-1.123-1.018
		c-0.451-0.185-0.733-0.475-0.9-0.915c-0.139-0.365-0.378-0.658-0.683-0.886c-0.358-0.142-0.573,0.21-0.872,0.235
		c-0.269,0.613-0.914,1.075-0.738,1.857c0.083,0.366-0.308,0.625-0.199,1.058c-0.225,0.177-0.477,0.375-0.562,0.44
		c-0.32,1.733-1.173,2.945-2.038,4.15c-1.276,0-2.492,0-3.769,0c-0.47-0.325-0.949-0.738-1.598-0.926
		c-0.66-0.191-1.027-0.832-1.523-1.275c0.032-0.404-0.167-0.746-0.389-1.024c-0.625-0.78-0.753-1.669-0.729-2.621
		c0.009-0.337,0.185-0.62,0.361-0.818c0.693-0.781,1.437-1.514,2.421-1.951c0.791-0.351,1.572-0.728,2.342-1.123
		c0.659-0.34,1.161-0.845,1.526-1.504C32.092,38.749,32.167,38.3,32.085,37.809z"/>
</g>
</svg>
