<svg xmlns="http://www.w3.org/2000/svg" xml:space="preserve" width="72px" height="72px" viewBox="0 0 72 72">
    <path fill="currentColor" d="M32.085 37.809c-.446-.562-1.073-.175-1.584-.333-.417-.134-.66-.523-1.01-.711-.36-.193-.516-.489-.76-.754-.333-.363-.792-.708-1.257-.833-.877-.236-1.229-.916-1.621-1.584-.313-.535-.603-1.037-1.22-1.335-.334-.161-.626-.513-.797-.942-.262-.658-.777-1.182-1.157-1.782a27 27 0 0 1-1.352-2.364c-.083-.167-.201-.276-.296-.419-.459-.141-.94.037-1.428-.211-.284-.145-.779-.142-1.207.135-.636.412-1.381.624-2.222.417a1 1 0 0 0-.292-.175c-.705-.267-1.235-.76-1.472-1.477-.211-.64-.621-1.097-1.211-1.291-.354-.117-.475-.407-.743-.556v-.764l.65-.63c.038-.377-.16-.691-.428-1.002v-1.057c.126-.326.533-.286.736-.545h1.083l1.008-1.09c.262 0 .475.018.685-.003.676-.068 1.306.042 1.874.435.369.255.851.19 1.194.497l1.774-.913c.836-.11 1.677.038 2.423.526.248.163.484.044.714.109.578.163 1.198.121 1.729.542.249.197.663.288 1.044.334.501.061 1.021.157 1.365.607.043.057.099.104.152.153.037.033 2.807 1.151 2.863 1.17.788.271 1.568.564 2.365.805a7 7 0 0 1 .842.312c.562.257 1.232.502 1.288 1.345.012.175.173.497.404.689.699.583 1.116 1.384 1.491 2.186.317.679.695 1.245 1.392 1.586.244.12.419.383.657.61h1.482c.729-.681 1.875-.692 2.594-1.506 1.25.21 2.439-.393 3.777-.144l.477.569c.08.622-.19 1.231-.839 1.522-1.507.678-1.885 1.95-1.966 3.418-.006.107-.001.216-.001.494.074.053.26.165.418.306.309.276.559.568 1.042.636.477.068.936.337 1.376.567.561.292 1.183.336 1.771.397.823.087 1.395.649 2.116.912.373.137.672.475.842.887.187.455.793.604.867 1.152 1.293 1.316 2.025 3.079 3.435 4.302.269.232.307.601.476.879.583.958 1.331 1.805 1.907 2.775.233.394.353.779.468 1.217.232.875.16 1.744.189 2.684.202.246.535.473.645.861 0 .178.003.355 0 .532-.01.552-.041 1.058-.327 1.597-.339.638-.413 1.416-.648 2.313l-.47.298.09.129h-.95c-.292.51-.62.958-1.056 1.298h-1.075l-.848-.849c-.199.148-.309.342-.396.58-.083.226-.275.411-.326.482-.854.043-1.339-.344-1.58-.813-.494-.96-1.38-1.507-2.075-2.251-.022-.025-.039-.056-.02-.092-.577-1.296-.336-2.765-.958-4.133-.568-.047-.97-.491-1.359-.929-.694-.781-1.562-1.103-2.529-1.063-.276-.16-.494-.361-.745-.419-1.756-.403-3.201-1.486-4.828-2.167a.75.75 0 0 1-.423-.42c-.22-.503-.643-.821-1.123-1.018-.451-.185-.733-.475-.9-.915a2 2 0 0 0-.683-.886c-.358-.142-.573.21-.872.235-.269.613-.914 1.075-.738 1.857.083.366-.308.625-.199 1.058-.225.177-.477.375-.562.44-.32 1.733-1.173 2.945-2.038 4.15H29.43c-.47-.325-.949-.738-1.598-.926-.66-.191-1.027-.832-1.523-1.275.032-.404-.167-.746-.389-1.024-.625-.78-.753-1.669-.729-2.621.009-.337.185-.62.361-.818.693-.781 1.437-1.514 2.421-1.951a46 46 0 0 0 2.342-1.123 3.6 3.6 0 0 0 1.526-1.504c.251-.447.326-.896.244-1.387"/>
</svg>
