<svg xmlns="http://www.w3.org/2000/svg" xml:space="preserve" width="72px" height="72px" viewBox="0 0 72 72">
    <g fill="currentColor">
        <path d="m38.047 10.524.399.79c.166.078.368.219.59.268.315.069.135.468.414.539v1.942c.39.432.893.778.891 1.474-.001.204.242.429.501.383.46.023.554-.687 1.302-.253.345.285.764.985 1.603 1.166v.945c-.286.251-.63.602-.816 1.049-.076.184-.012.425-.012.652l-.871.428c-.432.425-.475.935-.413 1.563l.673.541-.465 4.182c.504.278.862-.1 1.315-.193-.105-.529-.635-.911-.454-1.46.163-.49.413-.941 1.076-1.041.903.282 1.859.71 2.882.9.479-.613.76-1.342 1.573-1.533.453-.068.935-.063 1.35.257.283.219.599.203.871.026s.535-.086.81-.086c.143.298.099.541-.158.75-.139.113-.301.231-.375.384-.161.333-.261.695-.542.963-.261.248-.511.508-.798.795.152.506-.356.941-.2 1.508.371.386.707.819.642 1.342l-.906.912c-.157-.028-.366.083-.562.235-.473-.175-.93-.396-1.418-.443a.28.28 0 0 0-.14.378c.19.416.283.843.181 1.269.538.217.997.537 1.488.091.609.143 1.157-.211 1.747-.213.219 0 .377-.081.571-.192.666-.379 1.391-.596 2.188-.42.12.281.568.059.609.387.437.047.475-.512.96-.404.053.597.01 1.224.025 1.813-.114.114-.18.238-.269.26-1.244.304-1.964 1.179-2.551 2.24-.291.527-.744.957-1.256 1.265a1.74 1.74 0 0 0-.737.806c-.141.299-.3.613-.588.842-.416.333-.477.813-.421 1.354h1.354l.64.646c.704.261 1.342-.417 2.083-.106l.421.688c.078.735.109 1.494-.715 2.304-.365.182-1.085.211-1.818.188-.232-.008-.469-.082-.709.111-.666.533-1.511.688-2.281 1.003-.03.013-.051.049-.136.134l-1.074 1.996c.193.28.392.166.556.216.533-.406.876-1.028 1.664-1.286h1.631c.323.195.262.616.731.811h.92c.386.313 1.012.344.812.971-.675.95-1.674 1.459-2.632 2.001-.348.196-.61.451-.907.718h-1.25c-.285.166-.419.516-.777.507-.219.69.364 1.291.133 2.027l-1.171 1.158h-2.145c-.159.235-.464.346-.568.757l.498.161c.474.061 1.131.355 1.709-.061.408.276.775.297 1.236.02.457-.276.932-.565 1.403-.777.997-.447 1.96-1.021 3.126-1.232.363-.321.677-.816 1.437-1.025h.797l.604.494c.137.48-.347.722-.174 1.118-.186.163-.373.329-.604.534-.533-.079-.976.205-1.413.589-.406.355-.884.631-1.341.924-.399.256-.856.237-1.263.218l-1.343.856c-.284.064-.666-.141-.902.086-.449.431-1.175.154-1.563.675.279.248.651.401.967.502.699.221 1.004.69 1.282 1.295.116.251.197.542.102.693-.296.461-.147.953-.2 1.394-.285.501-.883.213-1.107.579-.506-.14-.808-.496-1.151-.609-.332-.11-.664-.422-.946-.327l-.692-.499.889-.833c-.028-.795-.039-1.386.251-1.923-.784-.605-1.657-.286-2.467-.386-.411-.215-.825-.432-1.262-.659-.229.133-.496.229-.685.407-.664.629-1.32.63-2.033.032-.177-.277.01-.887-.728-.824 0 1.103.003 2.207-.003 3.312-.001.152.074.252.136.378.161.329.173.674-.146.967.332.502.208 1.073.229 1.627-.554.563-.042 1.14.107 1.617.143.456-.116 1 .314 1.384.053.047.02.247-.061.393-.171.307-.344.6-.684.852h-.915c-.334-.587-1.288-.674-1.356-1.567.089-.304.126-.658.292-.938.225-.379.177-.732.066-1.101-.199-.657-.374-1.308-.365-2.012.025-2.159.009-4.319.009-6.567l-.652-.522c-.493.377-1.146.147-1.786.225-.285.202-.688.277-.889.634-.228 0-.508.088-.646-.015-.742-.556-1.766-.475-2.451-1.108-.098-.298-.136-.569.206-.728l-.374-.738c-.438-.059-.725.214-1.196.433-.46.019-1.124-.131-1.605.426h-2.818l-.527-.562v-.619l.419-.44v-.668c-.787-.295-1.302-.988-2.069-1.368-.458-.148-.983.16-1.503-.201-.36-.25-.744-.643-1.311-.515-.055.013-.376-.11-.515-.274-.545-.647-1.398-.843-2.068-1.402-.43.055-.922-.117-1.37.215-.35.259-.735.469-.913.581-.536.178-.682-.223-.975-.184l-.571-1.237c.619-.7 1.022-1.548 1.701-2.188h1.446c.719-.383 1.361-.753 1.954-1.217.38-.297.874-.399 1.36-.225.506.137.789.559 1.11.851.289.72-.238 1.325-.156 2.001.463.127.706.539 1.062.837v.901l.594.459c.502-.314.803-.875 1.046-1.479.299-.18.578-.372.957-.409.703.33.919 1.063 1.24 1.573.308.312.633.057.877.227.34.296.376.843.947 1.016.51-.098.406-.558.393-.952-.171-.361-.526-.31-.814-.385-.28-.331-.473-.683-.501-1.175l-.559-.504c-.887.133-1.449-.429-1.763-1.198-.179-.438-.562-.617-.766-.969-.17 0-.378.062-.446-.01-.648-.682-1.517-.694-2.353-.86-.716-.142-1.339-.521-1.832-1.175v-.892l.294-.294h.647c.478.576 1.232.688 1.84 1.122.264-.373 1.006-.118 1.013-.565.007-.51.524-.665.504-1.108.303.034.423-.36.74-.313.029 0 .07-.013.1.002.332.155.661.314 1.028.49.239.42.349.997.867 1.225.394.08.614-.197.901-.286.176-.564-.232-.964-.41-1.433.167-.335.298-.694.626-.938-.288-.631-1.063-.127-1.396-.635-.699-1.352-2.009-2.111-3.111-3.004v-1.17c.335-.159.396-.54.629-.867v-1.069l.354-.322c.34.13.754.195.884.505.311.743.948 1.041 1.561 1.324.489.428.315 1.18.874 1.518.01.558.534.688.854.737.622.093.988.466 1.418.887.683.095 1.272-.251 1.872-.554.243-.123.188-.358.193-.623-.452-.232-1.002-.38-1.279-.917.137-.265-.358-.565-.013-.871-.238-.583-.635-1.102-.706-1.708-.214-.313-.569-.306-.828-.533-.533.476-1.171.532-1.842.443-.57-.5-.558-1.159-.501-1.83.252-.237.453-.542.837-.612.124-.74-.679-1.17-.637-1.881a5.9 5.9 0 0 1-1.054-1.621c.112-.101.254-.215.19-.405.046-.046.067-.082.097-.095.625-.268 1.892.199 2.042.851.217.945.865 1.45 1.657 1.941.829.109 1.658-.468 2.475-.168.334-.204.483-.422.417-.774l-1.003-.998c-.179-.697-.443-1.17-.86-1.542-.604-.538-1.094-1.182-1.804-1.628s-1.105-1.226-1.49-1.96c-.075-.143-.193-.276-.241-.429.406-.701.081-1.662.835-2.273.739.385 1.521.248 2.291.276.539.398.705.979.77 1.61.02.202-.01.384.133.596.647.961 1.027 2.107 2 2.839.163.123.246.332.501.358.644.065 1.022.884 1.85.586l.477-.499v-.629l-.419-.44v-.668l.843-.383.019-.408c-.831-1.012-1.86-1.79-2.982-2.666-.362-.78-.362-.78.036-1.361h1.763c.748.523 1.522 1.127 2.518 1.49.242-.097.418-.355.602-.571.029-.442-.153-.762-.484-1.111-.298-.028-.637-.167-1-.326l-.734-2.321c.23-.297.622-.21.696-.566.057-.495-.458-.951-.014-1.547.343-.46.708-.828 1.192-1.061.267-.503.212-1.102.631-1.538h.934c.555.346.153.917.399 1.489m-8.895 29.151c-.47-.165-.938.146-1.437.242-.208.039-.412.22-.668.187-.427-.055-.813.146-1.155.316-.395.196-.585.645-.663.885-.074.51.163.73.297.922.272.384.801.449 1.211.698.436-.315 1.043-.254 1.41-.682h.914c.455-.148.477-.392.451-.764-.059-.166-.457-.231-.424-.57.196-.469.196-.469.674-.59.393.309.437.329.895.433.396-.231.597-.611.769-1.021-.712-.648-1.447-.65-2.274-.056m15.145-4.313c.83-.708 1.3-.875 2.415-.875.178.351.57.42.85.599.527-.319 1.229-.433 1.344-1.139-.346-.702-1.189-.491-1.632-.997h-1.027c-.406-.399.26-.629.058-1.052-.229.04-.492-.083-.828.097-.277.112-.143.454-.234.714-.842.677-1.228 1.709-1.975 2.496.359.239.687.104 1.029.157m2.7 5.301c.188.719.188.719.889.7l.865-.748-.023-.478h-1.206zm-14.849-4.051h.983l.284-.32c-.121-.607-.453-.972-.877-1.08l-.608.42c-.162.432.204.636.218.98m.202-8.405c-.02-.888-.652-1.046-1.195-1.325-.194.301-.121.574.017.75l.369.575zm20.706-3.777c.033-.198-.028-.364.109-.53.697-.848 1.039-1.818.983-2.929-.036-.72.166-1.36.761-1.815h1.269c.405.299.643.782 1.219.95.372-.513.954-.707 1.384-1.154h.905l.484.636v.951c-.179.407-.418.852-.655 1.281-.231.418-.696.706-1.038 1.032v.974l.417.324v.915c-.247.368-.606.576-1.06.781h-.939c-.828-.629-1.684-1.103-2.719-1.068-.404.014-.723-.153-1.12-.348m-39.684 2.744c.331-.25.466-.613.795-.669.768-.132 1.484-.543 2.297-.43.46.341.403.818.226 1.238-.167.396-.309.832-.669 1.126-.337.275-.44.673-.603.994.609.749.958.915 1.897.949.3.392.3.392.265 1.061l-.743.451c-.465 0-1.005.042-1.537-.009-.854-.082-1.645.422-2.564.182l-.707-.767c-.186-.617.389-1.216.193-1.86-.429-.697-1.218-.967-1.715-1.551.102-.575.384-.893.886-.956.246-.031.588-.1.732.026.399.346.832.083 1.247.215"/>
        <path d="M19.763 53.701c-.131.871-.777.976-1.369 1.077-.665.114-1.229.367-1.697.848-.075.077-.156.148-.228.229-.471.536-1.047.779-1.726.653l-.611-.567c.309-.481.419-1.072.887-1.447v-.959l-.785-.478h-1.247l-.291-.291v-.94l.693-.455c.315.028.799-.217 1.353-.396.194.196.501.156.815.133.242-.316.42-.67.33-1.196l.778-.49c.751.453.875 1.439 1.282 2.289.221.026.395.3.696.278.283-.021.568-.005.831-.005l.287.286c.002.488.002 1.016.002 1.431m11.057 3.116c-.148.357.205.57.219.885.014.323-.388.524-.22.868-.775.746-1.428 1.644-2.547 1.85-.098-.034-.163-.052-.223-.08-.651-.304-.471-1.246-1.266-1.526-.625-.22-.616-1.124-1.15-1.536.051-.355-.509-.575-.265-1.027l.827-.594h.4c.609-.479.818-1.546 1.989-1.241.83.592 1.295 1.642 2.236 2.401M55 38.09c.071-.997.35-1.459 1.516-2.625v-1.303l.781-.718c.723-.236 1.411.187 2.16.192.429.637 1.261.565 1.895 1.021.245.546.643 1.093.814 1.761-.238.474-.66.689-1.182.91-.361-.551-1.089-.327-1.646-.707-.95.49-1.991.877-2.84 1.639-.196.176-.484.387-.731.347-.422-.049-.491-.404-.767-.517M44.526 15.447c-.411-.258-.298-.603-.32-.946.497-.398.828-1.02 1.513-1.273.024-.909-.204-1.919.831-2.5.42.141.798.354 1.081.739.601-.36 1.148-.445 1.724.007v1.31c-.291.581-.755 1.13-.604 1.875.064.321-.298.462-.258.788zM22.16 22.659c-.163.533-.748.227-1.004.666-.28-.345-.711-.189-1.037-.328-.293-.125-.486-.481-.853-.566-.827-.006-1.681.031-2.248-.795-.178-.866.183-1.584.7-2.258 1.102-.093 2.155.425 3.2.178 1.086.835 1.423 1.907 1.242 3.103M9.576 38.987l.836-.836c.722.084 1.51-.195 2.235.327.435.703.077 1.755.884 2.369v.863c-.146.188-.699.328-1.326.336-.512-.141-.811-.538-1.149-.857-.383-.058-.801.146-1.144-.268-.479.424-.984.289-1.503-.018-.229-.39-.413-.777-.07-1.273.312-.451.726-.57 1.237-.643m17.355-27.932v-.913c.766-.631 1.649-1.007 2.698-.925l.228.228c.164 1.01.267 1.172 1.149 1.79v.921c-.269.233-.29.595-.453.885-.692.285-.692.285-1.538.264-1.418-.314-1.309-1.636-2.084-2.25m32.397 34.712c0-.438-.061-.913.019-1.365.072-.415.296-.803.444-1.181.96-.768 1.942.134 2.937-.137.051.359.111.628-.067.943-.235.416-.038.902-.092 1.355.504.549.031.925-.242 1.33-.079.116-.194.208-.285.303h-1.037c-.6-.347-1.234-.574-1.677-1.248m-2.667 9.008h-.927l-.531-.564a5.3 5.3 0 0 1 .842-2.025c1.124-.646 2.035.227 3.046.657v.808l-.774.499h-.83c-.252.244-.461.533-.826.625"/>
    </g>
</svg>
