<?xml version="1.0" encoding="iso-8859-1"?>
<!-- Generator: Adobe Illustrator 16.0.0, SVG Export Plug-In . SVG Version: 6.00 Build 0)  -->
<!DOCTYPE svg PUBLIC "-//W3C//DTD SVG 1.1//EN" "http://www.w3.org/Graphics/SVG/1.1/DTD/svg11.dtd">
<svg version="1.1" id="Layer_1" xmlns="http://www.w3.org/2000/svg" xmlns:xlink="http://www.w3.org/1999/xlink" x="0px" y="0px"
	 width="72.36px" height="72.18px" viewBox="0 0 72.36 72.18" style="enable-background:new 0 0 72.36 72.18;" xml:space="preserve"
	>
<g>
	<path style="fill-rule:evenodd;clip-rule:evenodd;fill:none;" d="M79.416,79.631c-28.8,0-57.6,0-86.399,0
		c0-28.871,0-57.743,0-86.615c28.8,0,57.6,0,86.399,0C79.416,21.888,79.416,50.76,79.416,79.631z M38.047,10.524
		c-0.246-0.573,0.155-1.144-0.396-1.497c-0.323,0-0.637,0-0.934,0c-0.419,0.437-0.365,1.035-0.631,1.538
		c-0.484,0.233-0.849,0.601-1.192,1.061c-0.444,0.596,0.07,1.052,0.014,1.547c-0.074,0.356-0.466,0.27-0.696,0.566
		c0.235,0.744,0.487,1.542,0.734,2.321c0.363,0.16,0.702,0.298,1,0.326c0.332,0.349,0.513,0.669,0.484,1.111
		c-0.183,0.216-0.36,0.474-0.602,0.571c-0.996-0.362-1.77-0.966-2.518-1.49c-0.635,0-1.206,0-1.763,0
		c-0.398,0.581-0.398,0.581-0.036,1.361c1.122,0.875,2.151,1.654,2.982,2.666c-0.007,0.141-0.013,0.28-0.019,0.408
		c-0.295,0.134-0.568,0.258-0.843,0.383c0,0.223,0,0.437,0,0.668c0.134,0.141,0.281,0.295,0.419,0.44c0,0.226,0,0.44,0,0.629
		c-0.189,0.198-0.362,0.379-0.477,0.499c-0.828,0.298-1.207-0.521-1.85-0.586c-0.255-0.026-0.338-0.235-0.501-0.358
		c-0.973-0.732-1.353-1.878-2-2.839c-0.143-0.212-0.113-0.394-0.133-0.596c-0.064-0.631-0.231-1.212-0.77-1.61
		c-0.771-0.028-1.552,0.109-2.291-0.276c-0.755,0.611-0.43,1.572-0.835,2.273c0.048,0.153,0.166,0.286,0.241,0.429
		c0.385,0.734,0.78,1.514,1.49,1.96c0.709,0.446,1.2,1.09,1.804,1.628c0.417,0.372,0.681,0.845,0.86,1.542
		c0.27,0.268,0.646,0.643,1.003,0.998c0.067,0.352-0.082,0.57-0.417,0.774c-0.816-0.3-1.646,0.277-2.475,0.168
		c-0.792-0.492-1.44-0.997-1.657-1.941c-0.15-0.652-1.417-1.118-2.042-0.851c-0.03,0.013-0.051,0.049-0.097,0.095
		c0.064,0.19-0.078,0.304-0.19,0.405c0.269,0.6,0.612,1.144,1.054,1.621c-0.042,0.711,0.76,1.141,0.637,1.881
		c-0.384,0.07-0.585,0.375-0.837,0.612c-0.056,0.671-0.068,1.33,0.501,1.83c0.67,0.088,1.309,0.032,1.842-0.443
		c0.259,0.227,0.614,0.22,0.828,0.533c0.071,0.606,0.468,1.125,0.706,1.708c-0.346,0.305,0.15,0.605,0.013,0.871
		c0.277,0.537,0.828,0.685,1.279,0.917c-0.006,0.265,0.05,0.5-0.193,0.623c-0.599,0.302-1.188,0.648-1.872,0.554
		c-0.43-0.421-0.796-0.793-1.418-0.887c-0.321-0.049-0.845-0.179-0.854-0.737c-0.559-0.338-0.385-1.09-0.874-1.518
		c-0.613-0.283-1.25-0.581-1.561-1.324c-0.13-0.31-0.544-0.375-0.884-0.505c-0.124,0.113-0.251,0.229-0.354,0.322
		c0,0.419,0,0.774,0,1.069c-0.233,0.327-0.294,0.708-0.629,0.867c0,0.38,0,0.739,0,1.17c1.103,0.893,2.412,1.652,3.111,3.004
		c0.333,0.508,1.108,0.004,1.396,0.635c-0.328,0.244-0.459,0.604-0.626,0.938c0.177,0.469,0.586,0.868,0.41,1.433
		c-0.287,0.089-0.507,0.366-0.901,0.286c-0.519-0.228-0.628-0.805-0.867-1.225c-0.368-0.176-0.697-0.335-1.028-0.49
		c-0.03-0.015-0.071-0.002-0.1-0.002c-0.317-0.048-0.437,0.347-0.74,0.313c0.02,0.443-0.497,0.599-0.504,1.108
		c-0.007,0.447-0.749,0.192-1.013,0.565c-0.608-0.434-1.362-0.546-1.84-1.122c-0.216,0-0.432,0-0.647,0
		c-0.102,0.102-0.204,0.204-0.294,0.294c0,0.326,0,0.64,0,0.892c0.493,0.654,1.116,1.033,1.832,1.175
		c0.836,0.166,1.704,0.179,2.353,0.86c0.067,0.071,0.275,0.01,0.446,0.01c0.204,0.352,0.587,0.53,0.766,0.969
		c0.313,0.77,0.876,1.331,1.763,1.198c0.232,0.21,0.418,0.378,0.559,0.504c0.028,0.492,0.221,0.844,0.501,1.175
		c0.288,0.075,0.643,0.023,0.814,0.385c0.013,0.395,0.117,0.854-0.393,0.952c-0.571-0.173-0.607-0.72-0.947-1.017
		c-0.244-0.169-0.569,0.086-0.877-0.226c-0.321-0.511-0.537-1.243-1.24-1.573c-0.379,0.037-0.658,0.229-0.957,0.409
		c-0.244,0.604-0.544,1.164-1.046,1.479c-0.222-0.171-0.419-0.323-0.594-0.459c0-0.339,0-0.622,0-0.901
		c-0.355-0.298-0.599-0.71-1.062-0.837c-0.082-0.676,0.445-1.281,0.156-2.001c-0.322-0.292-0.604-0.714-1.11-0.851
		c-0.487-0.175-0.98-0.072-1.36,0.225c-0.593,0.464-1.235,0.834-1.954,1.217c-0.427,0-0.929,0-1.446,0
		c-0.679,0.641-1.082,1.488-1.701,2.188c0.208,0.451,0.389,0.844,0.571,1.237c0.293-0.039,0.439,0.361,0.975,0.184
		c0.178-0.112,0.563-0.322,0.913-0.581c0.448-0.332,0.94-0.16,1.37-0.215c0.67,0.56,1.522,0.755,2.068,1.402
		c0.138,0.164,0.46,0.287,0.515,0.274c0.567-0.128,0.951,0.265,1.311,0.515c0.521,0.361,1.046,0.053,1.503,0.201
		c0.768,0.38,1.282,1.073,2.069,1.368c0,0.222,0,0.436,0,0.668c-0.134,0.141-0.28,0.295-0.419,0.44c0,0.225,0,0.439,0,0.619
		c0.191,0.204,0.363,0.387,0.527,0.562c0.95,0,1.885,0,2.818,0c0.482-0.557,1.146-0.407,1.605-0.426
		c0.471-0.219,0.757-0.491,1.196-0.433c0.112,0.222,0.23,0.454,0.374,0.738c-0.342,0.158-0.304,0.43-0.206,0.728
		c0.685,0.634,1.709,0.553,2.451,1.108c0.138,0.103,0.418,0.015,0.646,0.015c0.202-0.356,0.604-0.432,0.889-0.634
		c0.64-0.077,1.293,0.152,1.786-0.225c0.265,0.212,0.483,0.388,0.652,0.522c0,2.248,0.016,4.408-0.009,6.567
		c-0.009,0.704,0.166,1.354,0.365,2.012c0.111,0.368,0.159,0.722-0.066,1.101c-0.165,0.279-0.202,0.634-0.292,0.938
		c0.068,0.894,1.021,0.98,1.356,1.567c0.351,0,0.664,0,0.915,0c0.34-0.252,0.513-0.545,0.684-0.852
		c0.08-0.146,0.113-0.346,0.061-0.393c-0.431-0.384-0.172-0.928-0.314-1.384c-0.149-0.478-0.661-1.054-0.107-1.617
		c-0.021-0.554,0.104-1.125-0.229-1.627c0.318-0.293,0.307-0.638,0.146-0.967c-0.062-0.126-0.137-0.226-0.136-0.378
		c0.006-1.104,0.003-2.209,0.003-3.312c0.737-0.063,0.551,0.547,0.728,0.824c0.713,0.598,1.369,0.597,2.033-0.032
		c0.188-0.179,0.456-0.274,0.685-0.407c0.437,0.228,0.851,0.444,1.262,0.659c0.81,0.1,1.683-0.22,2.467,0.386
		c-0.29,0.537-0.279,1.128-0.251,1.923c-0.225,0.21-0.533,0.499-0.889,0.833c0.185,0.133,0.413,0.298,0.692,0.499
		c0.282-0.095,0.614,0.217,0.946,0.327c0.344,0.113,0.646,0.47,1.151,0.609c0.225-0.366,0.822-0.078,1.107-0.579
		c0.053-0.44-0.096-0.933,0.2-1.394c0.096-0.151,0.015-0.442-0.102-0.693c-0.278-0.604-0.583-1.074-1.282-1.295
		c-0.315-0.101-0.688-0.254-0.967-0.502c0.388-0.521,1.113-0.244,1.563-0.675c0.236-0.227,0.618-0.021,0.902-0.086
		c0.448-0.285,0.877-0.559,1.343-0.856c0.406,0.02,0.863,0.038,1.263-0.218c0.457-0.293,0.935-0.568,1.341-0.924
		c0.438-0.384,0.88-0.668,1.413-0.589c0.231-0.205,0.419-0.371,0.604-0.534c-0.173-0.396,0.311-0.638,0.174-1.118
		c-0.137-0.112-0.353-0.289-0.604-0.494c-0.286,0-0.644,0-0.797,0c-0.76,0.209-1.073,0.704-1.437,1.025
		c-1.166,0.211-2.129,0.785-3.126,1.232c-0.472,0.212-0.946,0.501-1.403,0.777c-0.461,0.277-0.828,0.257-1.236-0.02
		c-0.578,0.416-1.235,0.121-1.709,0.061c-0.182-0.059-0.362-0.117-0.498-0.161c0.104-0.411,0.409-0.521,0.568-0.757
		c0.718,0,1.436,0,2.145,0c0.414-0.41,0.82-0.812,1.171-1.158c0.231-0.736-0.352-1.337-0.133-2.027
		c0.358,0.009,0.492-0.341,0.777-0.507c0.408,0,0.836,0,1.25,0c0.297-0.267,0.56-0.521,0.907-0.718
		c0.958-0.542,1.957-1.051,2.632-2.001c0.2-0.627-0.426-0.657-0.812-0.971c-0.31,0-0.696,0-0.92,0
		c-0.47-0.194-0.408-0.615-0.731-0.811c-0.564,0-1.165,0-1.631,0c-0.788,0.258-1.131,0.88-1.664,1.286
		c-0.164-0.05-0.362,0.064-0.556-0.216c0.353-0.655,0.732-1.36,1.074-1.996c0.085-0.085,0.105-0.121,0.136-0.134
		c0.771-0.315,1.615-0.47,2.281-1.003c0.24-0.193,0.477-0.119,0.709-0.111c0.733,0.023,1.453-0.006,1.818-0.188
		c0.824-0.81,0.793-1.568,0.715-2.304c-0.157-0.257-0.299-0.489-0.421-0.688c-0.741-0.311-1.379,0.367-2.083,0.106
		c-0.197-0.199-0.4-0.404-0.64-0.646c-0.423,0-0.882,0-1.354,0c-0.056-0.541,0.005-1.021,0.421-1.354
		c0.288-0.229,0.447-0.543,0.588-0.842c0.171-0.365,0.391-0.597,0.737-0.806c0.512-0.309,0.965-0.738,1.256-1.265
		c0.587-1.061,1.307-1.937,2.551-2.24c0.089-0.022,0.154-0.146,0.269-0.26c-0.016-0.589,0.027-1.216-0.025-1.813
		c-0.485-0.108-0.523,0.451-0.96,0.404c-0.041-0.328-0.489-0.106-0.609-0.387c-0.797-0.176-1.521,0.041-2.188,0.42
		c-0.194,0.111-0.353,0.191-0.571,0.192c-0.59,0.002-1.138,0.356-1.747,0.213c-0.491,0.446-0.95,0.126-1.488-0.091
		c0.103-0.426,0.01-0.853-0.181-1.269c-0.051-0.112-0.045-0.284,0.14-0.378c0.488,0.046,0.945,0.268,1.418,0.443
		c0.195-0.151,0.404-0.263,0.562-0.235c0.314-0.316,0.585-0.589,0.906-0.912c0.065-0.523-0.271-0.956-0.642-1.342
		c-0.156-0.567,0.353-1.002,0.2-1.508c0.287-0.287,0.537-0.547,0.798-0.795c0.281-0.268,0.381-0.63,0.542-0.963
		c0.074-0.153,0.236-0.271,0.375-0.384c0.257-0.209,0.301-0.452,0.158-0.75c-0.274,0-0.537-0.091-0.81,0.086
		c-0.272,0.177-0.588,0.193-0.871-0.026c-0.415-0.321-0.896-0.325-1.35-0.257c-0.813,0.191-1.094,0.92-1.573,1.533
		c-1.022-0.19-1.979-0.619-2.882-0.9c-0.663,0.1-0.913,0.551-1.076,1.041c-0.181,0.549,0.349,0.931,0.454,1.46
		c-0.453,0.093-0.812,0.471-1.315,0.193c0.151-1.363,0.304-2.736,0.465-4.182c-0.235-0.189-0.485-0.39-0.673-0.541
		c-0.062-0.628-0.019-1.139,0.413-1.563c0.274-0.135,0.572-0.281,0.871-0.428c0-0.227-0.064-0.469,0.012-0.652
		c0.187-0.447,0.53-0.798,0.816-1.049c0-0.393,0-0.673,0-0.945c-0.839-0.18-1.258-0.881-1.603-1.166
		c-0.748-0.434-0.842,0.276-1.302,0.253c-0.259,0.046-0.502-0.179-0.501-0.383c0.002-0.695-0.501-1.042-0.891-1.474
		c0-0.65,0-1.297,0-1.942c-0.279-0.071-0.099-0.47-0.414-0.539c-0.222-0.049-0.424-0.189-0.59-0.268
		C38.279,10.982,38.128,10.684,38.047,10.524z M53.056,24.43c0.396,0.195,0.716,0.362,1.12,0.349
		c1.035-0.035,1.891,0.439,2.719,1.068c0.313,0,0.671,0,0.939,0c0.453-0.206,0.813-0.413,1.06-0.781c0-0.269,0-0.555,0-0.915
		c-0.128-0.099-0.296-0.23-0.417-0.324c0-0.354,0-0.637,0-0.974c0.342-0.326,0.807-0.614,1.038-1.032
		c0.237-0.429,0.477-0.874,0.655-1.281c0-0.402,0-0.755,0-0.951c-0.228-0.299-0.378-0.496-0.484-0.636c-0.367,0-0.649,0-0.905,0
		c-0.43,0.447-1.012,0.641-1.384,1.154c-0.576-0.168-0.813-0.651-1.219-0.95c-0.401,0-0.831,0-1.269,0
		c-0.595,0.456-0.797,1.096-0.761,1.815c0.056,1.111-0.286,2.081-0.983,2.929C53.028,24.066,53.089,24.232,53.056,24.43z
		 M13.372,27.174c-0.415-0.132-0.848,0.13-1.245-0.215c-0.145-0.125-0.487-0.057-0.732-0.026c-0.502,0.063-0.784,0.381-0.886,0.956
		c0.497,0.584,1.287,0.854,1.715,1.551c0.195,0.644-0.379,1.243-0.193,1.86c0.272,0.295,0.515,0.559,0.707,0.767
		c0.919,0.24,1.71-0.264,2.564-0.182c0.531,0.051,1.071,0.009,1.537,0.009c0.295-0.179,0.526-0.319,0.743-0.451
		c0.035-0.669,0.035-0.669-0.265-1.061c-0.939-0.034-1.289-0.201-1.897-0.949c0.162-0.321,0.266-0.719,0.603-0.994
		c0.36-0.295,0.503-0.73,0.669-1.126c0.177-0.42,0.234-0.897-0.226-1.238c-0.813-0.114-1.529,0.298-2.297,0.43
		C13.838,26.562,13.703,26.925,13.372,27.174z M19.763,53.701c0-0.415,0-0.943,0-1.432c-0.114-0.113-0.19-0.189-0.287-0.286
		c-0.263,0-0.548-0.017-0.831,0.005c-0.301,0.021-0.475-0.252-0.696-0.278c-0.407-0.85-0.531-1.836-1.282-2.289
		c-0.34,0.214-0.581,0.366-0.778,0.49c0.09,0.526-0.088,0.88-0.33,1.196c-0.313,0.023-0.621,0.063-0.815-0.133
		c-0.553,0.179-1.037,0.424-1.353,0.396c-0.369,0.243-0.577,0.38-0.693,0.455c0,0.407,0,0.687,0,0.94
		c0.102,0.102,0.178,0.178,0.291,0.291c0.42,0,0.876,0,1.247,0c0.31,0.188,0.541,0.329,0.785,0.478c0,0.326,0,0.64,0,0.959
		c-0.468,0.375-0.578,0.966-0.887,1.447c0.223,0.207,0.406,0.377,0.611,0.567c0.678,0.126,1.255-0.117,1.726-0.653
		c0.071-0.08,0.152-0.151,0.228-0.229c0.467-0.48,1.032-0.733,1.697-0.848C18.986,54.677,19.632,54.572,19.763,53.701z
		 M30.82,56.817c-0.941-0.76-1.406-1.81-2.234-2.402c-1.171-0.305-1.38,0.762-1.989,1.241c-0.212,0-0.427,0-0.4,0
		c-0.37,0.266-0.598,0.43-0.827,0.594c-0.244,0.452,0.315,0.672,0.265,1.027c0.534,0.412,0.525,1.316,1.15,1.536
		c0.795,0.28,0.614,1.223,1.266,1.526c0.06,0.028,0.125,0.046,0.223,0.08c1.119-0.206,1.771-1.104,2.547-1.85
		c-0.167-0.344,0.234-0.545,0.22-0.868C31.025,57.388,30.672,57.175,30.82,56.817z M55,38.09c0.276,0.113,0.346,0.468,0.767,0.517
		c0.247,0.04,0.535-0.171,0.731-0.347c0.849-0.762,1.89-1.148,2.84-1.639c0.558,0.38,1.285,0.156,1.646,0.707
		c0.521-0.221,0.943-0.436,1.182-0.91c-0.172-0.667-0.569-1.214-0.814-1.761c-0.634-0.456-1.466-0.384-1.895-1.021
		c-0.749-0.006-1.438-0.428-2.16-0.192c-0.263,0.241-0.525,0.483-0.781,0.718c0,0.449,0,0.878,0,1.303
		C55.349,36.631,55.071,37.093,55,38.09z M44.526,15.447c1.324,0,2.643,0,3.966,0c-0.04-0.326,0.322-0.467,0.258-0.788
		c-0.15-0.745,0.313-1.293,0.604-1.875c0-0.465,0-0.923,0-1.31c-0.575-0.453-1.123-0.367-1.724-0.007
		c-0.283-0.385-0.661-0.599-1.081-0.739c-1.035,0.581-0.807,1.591-0.831,2.5c-0.685,0.253-1.016,0.875-1.513,1.273
		C44.228,14.844,44.115,15.189,44.526,15.447z M22.16,22.659c0.181-1.196-0.156-2.268-1.241-3.104
		c-1.045,0.247-2.098-0.271-3.2-0.178c-0.517,0.674-0.878,1.393-0.7,2.258c0.567,0.826,1.42,0.789,2.248,0.795
		c0.367,0.085,0.56,0.441,0.853,0.566c0.326,0.139,0.757-0.018,1.037,0.328C21.412,22.885,21.997,23.191,22.16,22.659z
		 M9.576,38.987c-0.511,0.072-0.925,0.191-1.237,0.644c-0.342,0.496-0.159,0.884,0.07,1.273c0.519,0.307,1.024,0.441,1.503,0.018
		c0.343,0.414,0.761,0.21,1.144,0.268c0.338,0.319,0.637,0.717,1.149,0.857c0.627-0.008,1.18-0.147,1.326-0.336
		c0-0.29,0-0.575,0-0.863c-0.807-0.614-0.45-1.666-0.884-2.369c-0.725-0.522-1.513-0.243-2.235-0.327
		C10.106,38.457,9.828,38.735,9.576,38.987z M26.931,11.055c0.774,0.614,0.666,1.936,2.085,2.25
		c0.846,0.021,0.846,0.021,1.538-0.264c0.163-0.29,0.184-0.652,0.453-0.885c0-0.314,0-0.627,0-0.921
		c-0.882-0.618-0.985-0.78-1.149-1.79c-0.076-0.076-0.152-0.152-0.228-0.228c-1.049-0.082-1.932,0.294-2.698,0.925
		C26.931,10.486,26.931,10.772,26.931,11.055z M59.328,45.767c0.443,0.675,1.077,0.901,1.676,1.249c0.304,0,0.662,0,1.037,0
		c0.091-0.095,0.206-0.187,0.285-0.303c0.273-0.405,0.746-0.781,0.242-1.33c0.054-0.453-0.144-0.939,0.092-1.355
		c0.179-0.315,0.118-0.584,0.067-0.943c-0.994,0.271-1.977-0.631-2.937,0.137c-0.148,0.378-0.372,0.766-0.444,1.181
		C59.267,44.854,59.328,45.329,59.328,45.767z M56.661,54.775c0.365-0.093,0.574-0.382,0.825-0.626c0.35,0,0.705,0,0.83,0
		c0.382-0.246,0.619-0.399,0.774-0.499c0-0.322,0-0.53,0-0.808c-1.011-0.431-1.922-1.303-3.046-0.657
		c-0.459,0.683-0.709,1.33-0.842,2.025c0.2,0.213,0.39,0.414,0.531,0.564C56.098,54.775,56.379,54.775,56.661,54.775z
		 M54.576,45.784c-0.429-0.174-0.662,0.007-0.863,0.274c0.029,0.232-0.07,0.481,0.064,0.703c0.364,0.146,0.598-0.034,0.799-0.301
		C54.576,46.253,54.576,46.041,54.576,45.784z M61.307,32.261c0.219,0.095,0.436,0.166,0.611-0.067
		c0.04-0.273-0.204-0.349-0.319-0.512C61.467,31.856,61.167,31.94,61.307,32.261z"/>
	<path style="fill-rule:evenodd;clip-rule:evenodd;" d="M38.047,10.524c0.081,0.16,0.231,0.458,0.399,0.79
		c0.166,0.078,0.368,0.219,0.59,0.268c0.315,0.069,0.135,0.468,0.414,0.539c0,0.646,0,1.292,0,1.942
		c0.39,0.432,0.893,0.778,0.891,1.474c-0.001,0.204,0.242,0.429,0.501,0.383c0.46,0.023,0.554-0.687,1.302-0.253
		c0.345,0.285,0.764,0.985,1.603,1.166c0,0.272,0,0.553,0,0.945c-0.286,0.251-0.63,0.602-0.816,1.049
		c-0.076,0.184-0.012,0.425-0.012,0.652c-0.299,0.147-0.597,0.293-0.871,0.428c-0.432,0.425-0.475,0.935-0.413,1.563
		c0.188,0.15,0.438,0.351,0.673,0.541c-0.161,1.445-0.313,2.819-0.465,4.182c0.504,0.278,0.862-0.1,1.315-0.193
		c-0.105-0.529-0.635-0.911-0.454-1.46c0.163-0.49,0.413-0.941,1.076-1.041c0.903,0.282,1.859,0.71,2.882,0.9
		c0.479-0.613,0.76-1.342,1.573-1.533c0.453-0.068,0.935-0.063,1.35,0.257c0.283,0.219,0.599,0.203,0.871,0.026
		c0.272-0.177,0.535-0.086,0.81-0.086c0.143,0.298,0.099,0.541-0.158,0.75c-0.139,0.113-0.301,0.231-0.375,0.384
		c-0.161,0.333-0.261,0.695-0.542,0.963c-0.261,0.248-0.511,0.508-0.798,0.795c0.152,0.506-0.356,0.941-0.2,1.508
		c0.371,0.386,0.707,0.819,0.642,1.342c-0.321,0.323-0.592,0.596-0.906,0.912c-0.157-0.028-0.366,0.083-0.562,0.235
		c-0.473-0.175-0.93-0.396-1.418-0.443c-0.185,0.094-0.19,0.266-0.14,0.378c0.19,0.416,0.283,0.843,0.181,1.269
		c0.538,0.217,0.997,0.537,1.488,0.091c0.609,0.143,1.157-0.211,1.747-0.213c0.219,0,0.377-0.081,0.571-0.192
		c0.666-0.379,1.391-0.596,2.188-0.42c0.12,0.281,0.568,0.059,0.609,0.387c0.437,0.047,0.475-0.512,0.96-0.404
		c0.053,0.597,0.01,1.224,0.025,1.813c-0.114,0.114-0.18,0.238-0.269,0.26c-1.244,0.304-1.964,1.179-2.551,2.24
		c-0.291,0.527-0.744,0.957-1.256,1.265c-0.347,0.209-0.566,0.441-0.737,0.806c-0.141,0.299-0.3,0.613-0.588,0.842
		c-0.416,0.333-0.477,0.813-0.421,1.354c0.473,0,0.932,0,1.354,0c0.239,0.241,0.442,0.446,0.64,0.646
		c0.704,0.261,1.342-0.417,2.083-0.106c0.122,0.199,0.264,0.432,0.421,0.688c0.078,0.735,0.109,1.494-0.715,2.304
		c-0.365,0.182-1.085,0.211-1.818,0.188c-0.232-0.008-0.469-0.082-0.709,0.111c-0.666,0.533-1.511,0.688-2.281,1.003
		c-0.03,0.013-0.051,0.049-0.136,0.134c-0.342,0.636-0.722,1.341-1.074,1.996c0.193,0.28,0.392,0.166,0.556,0.216
		c0.533-0.406,0.876-1.028,1.664-1.286c0.466,0,1.066,0,1.631,0c0.323,0.195,0.262,0.616,0.731,0.811c0.224,0,0.61,0,0.92,0
		c0.386,0.313,1.012,0.344,0.812,0.971c-0.675,0.95-1.674,1.459-2.632,2.001c-0.348,0.196-0.61,0.451-0.907,0.718
		c-0.414,0-0.842,0-1.25,0c-0.285,0.166-0.419,0.516-0.777,0.507c-0.219,0.69,0.364,1.291,0.133,2.027
		c-0.351,0.347-0.757,0.748-1.171,1.158c-0.709,0-1.427,0-2.145,0c-0.159,0.235-0.464,0.346-0.568,0.757
		c0.136,0.044,0.316,0.103,0.498,0.161c0.474,0.061,1.131,0.355,1.709-0.061c0.408,0.276,0.775,0.297,1.236,0.02
		c0.457-0.276,0.932-0.565,1.403-0.777c0.997-0.447,1.96-1.021,3.126-1.232c0.363-0.321,0.677-0.816,1.437-1.025
		c0.153,0,0.511,0,0.797,0c0.252,0.205,0.468,0.382,0.604,0.494c0.137,0.48-0.347,0.722-0.174,1.118
		c-0.186,0.163-0.373,0.329-0.604,0.534c-0.533-0.079-0.976,0.205-1.413,0.589c-0.406,0.355-0.884,0.631-1.341,0.924
		c-0.399,0.256-0.856,0.237-1.263,0.218c-0.466,0.298-0.895,0.571-1.343,0.856c-0.284,0.064-0.666-0.141-0.902,0.086
		c-0.449,0.431-1.175,0.154-1.563,0.675c0.279,0.248,0.651,0.401,0.967,0.502c0.699,0.221,1.004,0.69,1.282,1.295
		c0.116,0.251,0.197,0.542,0.102,0.693c-0.296,0.461-0.147,0.953-0.2,1.394c-0.285,0.501-0.883,0.213-1.107,0.579
		c-0.506-0.14-0.808-0.496-1.151-0.609c-0.332-0.11-0.664-0.422-0.946-0.327c-0.279-0.201-0.508-0.366-0.692-0.499
		c0.355-0.334,0.664-0.623,0.889-0.833c-0.028-0.795-0.039-1.386,0.251-1.923c-0.784-0.605-1.657-0.286-2.467-0.386
		c-0.411-0.215-0.825-0.432-1.262-0.659c-0.229,0.133-0.496,0.229-0.685,0.407c-0.664,0.629-1.32,0.63-2.033,0.032
		c-0.177-0.277,0.01-0.887-0.728-0.824c0,1.103,0.003,2.207-0.003,3.312c-0.001,0.152,0.074,0.252,0.136,0.378
		c0.161,0.329,0.173,0.674-0.146,0.967c0.332,0.502,0.208,1.073,0.229,1.627c-0.554,0.563-0.042,1.14,0.107,1.617
		c0.143,0.456-0.116,1,0.314,1.384c0.053,0.047,0.02,0.247-0.061,0.393c-0.171,0.307-0.344,0.6-0.684,0.852
		c-0.251,0-0.564,0-0.915,0c-0.334-0.587-1.288-0.674-1.356-1.567c0.089-0.304,0.126-0.658,0.292-0.938
		c0.225-0.379,0.177-0.732,0.066-1.101c-0.199-0.657-0.374-1.308-0.365-2.012c0.025-2.159,0.009-4.319,0.009-6.567
		c-0.168-0.135-0.387-0.311-0.652-0.522c-0.493,0.377-1.146,0.147-1.786,0.225c-0.285,0.202-0.688,0.277-0.889,0.634
		c-0.228,0-0.508,0.088-0.646-0.015c-0.742-0.556-1.766-0.475-2.451-1.108c-0.098-0.298-0.136-0.569,0.206-0.728
		c-0.144-0.284-0.262-0.517-0.374-0.738c-0.438-0.059-0.725,0.214-1.196,0.433c-0.46,0.019-1.124-0.131-1.605,0.426
		c-0.933,0-1.868,0-2.818,0c-0.164-0.175-0.335-0.357-0.527-0.562c0-0.18,0-0.395,0-0.619c0.139-0.146,0.285-0.3,0.419-0.44
		c0-0.232,0-0.446,0-0.668c-0.787-0.295-1.302-0.988-2.069-1.368c-0.458-0.148-0.983,0.16-1.503-0.201
		c-0.36-0.25-0.744-0.643-1.311-0.515c-0.055,0.013-0.376-0.11-0.515-0.274c-0.545-0.647-1.398-0.843-2.068-1.402
		c-0.43,0.055-0.922-0.117-1.37,0.215c-0.35,0.259-0.735,0.469-0.913,0.581c-0.536,0.178-0.682-0.223-0.975-0.184
		c-0.182-0.394-0.363-0.786-0.571-1.237c0.619-0.7,1.022-1.548,1.701-2.188c0.518,0,1.019,0,1.446,0
		c0.719-0.383,1.361-0.753,1.954-1.217c0.38-0.297,0.874-0.399,1.36-0.225c0.506,0.137,0.789,0.559,1.11,0.851
		c0.289,0.72-0.238,1.325-0.156,2.001c0.463,0.127,0.706,0.539,1.062,0.837c0,0.279,0,0.563,0,0.901
		c0.175,0.136,0.373,0.288,0.594,0.459c0.502-0.314,0.803-0.875,1.046-1.479c0.299-0.18,0.578-0.372,0.957-0.409
		c0.703,0.33,0.919,1.063,1.24,1.573c0.308,0.312,0.633,0.057,0.877,0.227c0.34,0.296,0.376,0.843,0.947,1.016
		c0.51-0.098,0.406-0.558,0.393-0.952c-0.171-0.361-0.526-0.31-0.814-0.385c-0.28-0.331-0.473-0.683-0.501-1.175
		c-0.141-0.126-0.327-0.294-0.559-0.504c-0.887,0.133-1.449-0.429-1.763-1.198c-0.179-0.438-0.562-0.617-0.766-0.969
		c-0.17,0-0.378,0.062-0.446-0.01c-0.648-0.682-1.517-0.694-2.353-0.86c-0.716-0.142-1.339-0.521-1.832-1.175
		c0-0.252,0-0.565,0-0.892c0.091-0.09,0.192-0.192,0.294-0.294c0.216,0,0.432,0,0.647,0c0.478,0.576,1.232,0.688,1.84,1.122
		c0.264-0.373,1.006-0.118,1.013-0.565c0.007-0.51,0.524-0.665,0.504-1.108c0.303,0.034,0.423-0.36,0.74-0.313
		c0.029,0,0.07-0.013,0.1,0.002c0.332,0.155,0.661,0.314,1.028,0.49c0.239,0.42,0.349,0.997,0.867,1.225
		c0.394,0.08,0.614-0.197,0.901-0.286c0.176-0.564-0.232-0.964-0.41-1.433c0.167-0.335,0.298-0.694,0.626-0.938
		c-0.288-0.631-1.063-0.127-1.396-0.635c-0.699-1.352-2.009-2.111-3.111-3.004c0-0.431,0-0.79,0-1.17
		c0.335-0.159,0.396-0.54,0.629-0.867c0-0.294,0-0.65,0-1.069c0.103-0.093,0.23-0.209,0.354-0.322
		c0.34,0.13,0.754,0.195,0.884,0.505c0.311,0.743,0.948,1.041,1.561,1.324c0.489,0.428,0.315,1.18,0.874,1.518
		c0.01,0.558,0.534,0.688,0.854,0.737c0.622,0.093,0.988,0.466,1.418,0.887c0.683,0.095,1.272-0.251,1.872-0.554
		c0.243-0.123,0.188-0.358,0.193-0.623c-0.452-0.232-1.002-0.38-1.279-0.917c0.137-0.265-0.358-0.565-0.013-0.871
		c-0.238-0.583-0.635-1.102-0.706-1.708c-0.214-0.313-0.569-0.306-0.828-0.533c-0.533,0.476-1.171,0.532-1.842,0.443
		c-0.57-0.5-0.558-1.159-0.501-1.83c0.252-0.237,0.453-0.542,0.837-0.612c0.124-0.74-0.679-1.17-0.637-1.881
		c-0.442-0.477-0.785-1.021-1.054-1.621c0.112-0.101,0.254-0.215,0.19-0.405c0.046-0.046,0.067-0.082,0.097-0.095
		c0.625-0.268,1.892,0.199,2.042,0.851c0.217,0.945,0.865,1.45,1.657,1.941c0.829,0.109,1.658-0.468,2.475-0.168
		c0.334-0.204,0.483-0.422,0.417-0.774c-0.357-0.355-0.733-0.73-1.003-0.998c-0.179-0.697-0.443-1.17-0.86-1.542
		c-0.604-0.538-1.094-1.182-1.804-1.628c-0.71-0.446-1.105-1.226-1.49-1.96c-0.075-0.143-0.193-0.276-0.241-0.429
		c0.406-0.701,0.081-1.662,0.835-2.273c0.739,0.385,1.521,0.248,2.291,0.276c0.539,0.398,0.705,0.979,0.77,1.61
		c0.02,0.202-0.01,0.384,0.133,0.596c0.647,0.961,1.027,2.107,2,2.839c0.163,0.123,0.246,0.332,0.501,0.358
		c0.644,0.065,1.022,0.884,1.85,0.586c0.114-0.119,0.288-0.301,0.477-0.499c0-0.189,0-0.403,0-0.629
		c-0.138-0.145-0.285-0.299-0.419-0.44c0-0.231,0-0.445,0-0.668c0.275-0.125,0.548-0.249,0.843-0.383
		c0.006-0.128,0.012-0.267,0.019-0.408c-0.831-1.012-1.86-1.79-2.982-2.666c-0.362-0.78-0.362-0.78,0.036-1.361
		c0.557,0,1.128,0,1.763,0c0.748,0.523,1.522,1.127,2.518,1.49c0.242-0.097,0.418-0.355,0.602-0.571
		c0.029-0.442-0.153-0.762-0.484-1.111c-0.298-0.028-0.637-0.167-1-0.326c-0.247-0.779-0.499-1.577-0.734-2.321
		c0.23-0.297,0.622-0.21,0.696-0.566c0.057-0.495-0.458-0.951-0.014-1.547c0.343-0.46,0.708-0.828,1.192-1.061
		c0.267-0.503,0.212-1.102,0.631-1.538c0.296,0,0.61,0,0.934,0C38.203,9.381,37.801,9.952,38.047,10.524z M29.152,39.675
		c-0.47-0.165-0.938,0.146-1.437,0.242c-0.208,0.039-0.412,0.22-0.668,0.187c-0.427-0.055-0.813,0.146-1.155,0.316
		c-0.395,0.196-0.585,0.645-0.663,0.885c-0.074,0.51,0.163,0.73,0.297,0.922c0.272,0.384,0.801,0.449,1.211,0.698
		c0.436-0.315,1.043-0.254,1.41-0.682c0.384,0,0.736,0,0.914,0c0.455-0.148,0.477-0.392,0.451-0.764
		c-0.059-0.166-0.457-0.231-0.424-0.57c0.196-0.469,0.196-0.469,0.674-0.59c0.393,0.309,0.437,0.329,0.895,0.433
		c0.396-0.231,0.597-0.611,0.769-1.021C30.714,39.083,29.979,39.081,29.152,39.675z M44.297,35.362
		c0.83-0.708,1.3-0.875,2.415-0.875c0.178,0.351,0.57,0.42,0.85,0.599c0.527-0.319,1.229-0.433,1.344-1.139
		c-0.346-0.702-1.189-0.491-1.632-0.997c-0.364,0-0.715,0-1.027,0c-0.406-0.399,0.26-0.629,0.058-1.052
		c-0.229,0.04-0.492-0.083-0.828,0.097c-0.277,0.112-0.143,0.454-0.234,0.714c-0.842,0.677-1.228,1.709-1.975,2.496
		C43.627,35.444,43.955,35.309,44.297,35.362z M46.997,40.663c0.188,0.719,0.188,0.719,0.889,0.7
		c0.346-0.299,0.612-0.529,0.865-0.748c-0.008-0.169-0.015-0.307-0.023-0.478c-0.402,0-0.787,0-1.206,0
		C47.378,40.281,47.202,40.458,46.997,40.663z M32.148,36.612c0.387,0,0.698,0,0.983,0c0.118-0.133,0.208-0.235,0.284-0.32
		c-0.121-0.607-0.453-0.972-0.877-1.08c-0.269,0.186-0.474,0.327-0.608,0.42C31.768,36.064,32.134,36.268,32.148,36.612z
		 M32.35,28.207c-0.02-0.888-0.652-1.046-1.195-1.325c-0.194,0.301-0.121,0.574,0.017,0.75c0.136,0.211,0.271,0.423,0.369,0.575
		C31.833,28.207,32.043,28.207,32.35,28.207z"/>
	<path style="fill-rule:evenodd;clip-rule:evenodd;" d="M53.056,24.43c0.033-0.198-0.028-0.364,0.109-0.53
		c0.697-0.848,1.039-1.818,0.983-2.929c-0.036-0.72,0.166-1.36,0.761-1.815c0.438,0,0.867,0,1.269,0
		c0.405,0.299,0.643,0.782,1.219,0.95c0.372-0.513,0.954-0.707,1.384-1.154c0.256,0,0.538,0,0.905,0
		c0.106,0.14,0.257,0.337,0.484,0.636c0,0.196,0,0.548,0,0.951c-0.179,0.407-0.418,0.852-0.655,1.281
		c-0.231,0.418-0.696,0.706-1.038,1.032c0,0.337,0,0.62,0,0.974c0.121,0.094,0.289,0.225,0.417,0.324c0,0.36,0,0.646,0,0.915
		c-0.247,0.368-0.606,0.576-1.06,0.781c-0.269,0-0.627,0-0.939,0c-0.828-0.629-1.684-1.103-2.719-1.068
		C53.772,24.792,53.453,24.625,53.056,24.43z"/>
	<path style="fill-rule:evenodd;clip-rule:evenodd;" d="M13.372,27.174c0.331-0.25,0.466-0.613,0.795-0.669
		c0.768-0.132,1.484-0.543,2.297-0.43c0.46,0.341,0.403,0.818,0.226,1.238c-0.167,0.396-0.309,0.832-0.669,1.126
		c-0.337,0.275-0.44,0.673-0.603,0.994c0.609,0.749,0.958,0.915,1.897,0.949c0.3,0.392,0.3,0.392,0.265,1.061
		c-0.216,0.131-0.448,0.272-0.743,0.451c-0.465,0-1.005,0.042-1.537-0.009c-0.854-0.082-1.645,0.422-2.564,0.182
		c-0.192-0.208-0.435-0.472-0.707-0.767c-0.186-0.617,0.389-1.216,0.193-1.86c-0.429-0.697-1.218-0.967-1.715-1.551
		c0.102-0.575,0.384-0.893,0.886-0.956c0.246-0.031,0.588-0.1,0.732,0.026C12.524,27.305,12.957,27.042,13.372,27.174z"/>
	<path style="fill-rule:evenodd;clip-rule:evenodd;" d="M19.763,53.701c-0.131,0.871-0.777,0.976-1.369,1.077
		c-0.665,0.114-1.229,0.367-1.697,0.848c-0.075,0.077-0.156,0.148-0.228,0.229c-0.471,0.536-1.047,0.779-1.726,0.653
		c-0.205-0.19-0.388-0.36-0.611-0.567c0.309-0.481,0.419-1.072,0.887-1.447c0-0.319,0-0.633,0-0.959
		c-0.244-0.148-0.475-0.289-0.785-0.478c-0.37,0-0.827,0-1.247,0c-0.112-0.113-0.188-0.189-0.291-0.291c0-0.254,0-0.533,0-0.94
		c0.116-0.075,0.324-0.212,0.693-0.455c0.315,0.028,0.799-0.217,1.353-0.396c0.194,0.196,0.501,0.156,0.815,0.133
		c0.242-0.316,0.42-0.67,0.33-1.196c0.198-0.124,0.438-0.276,0.778-0.49c0.751,0.453,0.875,1.439,1.282,2.289
		c0.221,0.026,0.395,0.3,0.696,0.278c0.283-0.021,0.568-0.005,0.831-0.005c0.097,0.097,0.173,0.173,0.287,0.286
		C19.763,52.758,19.763,53.286,19.763,53.701z"/>
	<path style="fill-rule:evenodd;clip-rule:evenodd;" d="M30.82,56.817c-0.148,0.357,0.205,0.57,0.219,0.885
		c0.014,0.323-0.388,0.524-0.22,0.868c-0.775,0.746-1.428,1.644-2.547,1.85c-0.098-0.034-0.163-0.052-0.223-0.08
		c-0.651-0.304-0.471-1.246-1.266-1.526c-0.625-0.22-0.616-1.124-1.15-1.536c0.051-0.355-0.509-0.575-0.265-1.027
		c0.229-0.164,0.457-0.328,0.827-0.594c-0.027,0,0.188,0,0.4,0c0.609-0.479,0.818-1.546,1.989-1.241
		C29.414,55.008,29.879,56.058,30.82,56.817z"/>
	<path style="fill-rule:evenodd;clip-rule:evenodd;" d="M55,38.09c0.071-0.997,0.35-1.459,1.516-2.625c0-0.424,0-0.854,0-1.303
		c0.256-0.235,0.519-0.477,0.781-0.718c0.723-0.236,1.411,0.187,2.16,0.192c0.429,0.637,1.261,0.565,1.895,1.021
		c0.245,0.546,0.643,1.093,0.814,1.761c-0.238,0.474-0.66,0.689-1.182,0.91c-0.361-0.551-1.089-0.327-1.646-0.707
		c-0.95,0.49-1.991,0.877-2.84,1.639c-0.196,0.176-0.484,0.387-0.731,0.347C55.345,38.558,55.276,38.203,55,38.09z"/>
	<path style="fill-rule:evenodd;clip-rule:evenodd;" d="M44.526,15.447c-0.411-0.258-0.298-0.603-0.32-0.946
		c0.497-0.398,0.828-1.02,1.513-1.273c0.024-0.909-0.204-1.919,0.831-2.5c0.42,0.141,0.798,0.354,1.081,0.739
		c0.601-0.36,1.148-0.445,1.724,0.007c0,0.387,0,0.845,0,1.31c-0.291,0.581-0.755,1.13-0.604,1.875
		c0.064,0.321-0.298,0.462-0.258,0.788C47.168,15.447,45.85,15.447,44.526,15.447z"/>
	<path style="fill-rule:evenodd;clip-rule:evenodd;" d="M22.16,22.659c-0.163,0.533-0.748,0.227-1.004,0.666
		c-0.28-0.345-0.711-0.189-1.037-0.328c-0.293-0.125-0.486-0.481-0.853-0.566c-0.827-0.006-1.681,0.031-2.248-0.795
		c-0.178-0.866,0.183-1.584,0.7-2.258c1.102-0.093,2.155,0.425,3.2,0.178C22.004,20.391,22.341,21.463,22.16,22.659z"/>
	<path style="fill-rule:evenodd;clip-rule:evenodd;" d="M9.576,38.987c0.252-0.252,0.53-0.53,0.836-0.836
		c0.722,0.084,1.51-0.195,2.235,0.327c0.435,0.703,0.077,1.755,0.884,2.369c0,0.288,0,0.573,0,0.863
		c-0.146,0.188-0.699,0.328-1.326,0.336c-0.512-0.141-0.811-0.538-1.149-0.857c-0.383-0.058-0.801,0.146-1.144-0.268
		c-0.479,0.424-0.984,0.289-1.503-0.018c-0.229-0.39-0.413-0.777-0.07-1.273C8.651,39.179,9.065,39.06,9.576,38.987z"/>
	<path style="fill-rule:evenodd;clip-rule:evenodd;" d="M26.931,11.055c0-0.283,0-0.569,0-0.913
		c0.766-0.631,1.649-1.007,2.698-0.925c0.076,0.076,0.152,0.152,0.228,0.228c0.164,1.01,0.267,1.172,1.149,1.79
		c0,0.294,0,0.606,0,0.921c-0.269,0.233-0.29,0.595-0.453,0.885c-0.692,0.285-0.692,0.285-1.538,0.264
		C27.597,12.991,27.706,11.669,26.931,11.055z"/>
	<path style="fill-rule:evenodd;clip-rule:evenodd;" d="M59.328,45.767c0-0.438-0.061-0.913,0.019-1.365
		c0.072-0.415,0.296-0.803,0.444-1.181c0.96-0.768,1.942,0.134,2.937-0.137c0.051,0.359,0.111,0.628-0.067,0.943
		c-0.235,0.416-0.038,0.902-0.092,1.355c0.504,0.549,0.031,0.925-0.242,1.33c-0.079,0.116-0.194,0.208-0.285,0.303
		c-0.375,0-0.733,0-1.037,0C60.405,46.668,59.771,46.441,59.328,45.767z"/>
	<path style="fill-rule:evenodd;clip-rule:evenodd;" d="M56.661,54.775c-0.281,0-0.563,0-0.927,0
		c-0.142-0.15-0.331-0.352-0.531-0.564c0.133-0.695,0.383-1.343,0.842-2.025c1.124-0.646,2.035,0.227,3.046,0.657
		c0,0.277,0,0.485,0,0.808c-0.155,0.1-0.393,0.253-0.774,0.499c-0.125,0-0.48,0-0.83,0C57.235,54.394,57.026,54.683,56.661,54.775z"
		/>
	<path style="fill-rule:evenodd;clip-rule:evenodd;fill:none;" d="M29.152,39.675c0.827-0.594,1.563-0.592,2.273,0.056
		c-0.171,0.41-0.372,0.79-0.769,1.021c-0.458-0.104-0.501-0.124-0.895-0.433c-0.478,0.121-0.478,0.121-0.674,0.59
		c-0.033,0.339,0.365,0.404,0.424,0.57c0.026,0.372,0.004,0.615-0.451,0.764c-0.177,0-0.53,0-0.914,0
		c-0.366,0.428-0.974,0.366-1.41,0.682c-0.41-0.249-0.939-0.314-1.211-0.698c-0.135-0.191-0.372-0.412-0.297-0.922
		c0.077-0.24,0.268-0.688,0.663-0.885c0.342-0.171,0.729-0.371,1.155-0.316c0.256,0.033,0.46-0.147,0.668-0.187
		C28.214,39.821,28.682,39.51,29.152,39.675z"/>
	<path style="fill-rule:evenodd;clip-rule:evenodd;fill:none;" d="M44.297,35.362c-0.343-0.053-0.67,0.082-1.03-0.156
		c0.747-0.787,1.133-1.819,1.975-2.496c0.092-0.261-0.043-0.602,0.234-0.714c0.336-0.181,0.6-0.058,0.828-0.097
		c0.202,0.423-0.464,0.653-0.058,1.052c0.313,0,0.663,0,1.027,0c0.442,0.506,1.286,0.295,1.632,0.997
		c-0.115,0.706-0.816,0.82-1.344,1.139c-0.279-0.178-0.672-0.248-0.85-0.599C45.597,34.487,45.127,34.654,44.297,35.362z"/>
	<path style="fill-rule:evenodd;clip-rule:evenodd;fill:none;" d="M46.997,40.663c0.205-0.205,0.382-0.382,0.524-0.525
		c0.419,0,0.804,0,1.206,0c0.009,0.171,0.016,0.309,0.023,0.478c-0.253,0.219-0.52,0.449-0.865,0.748
		C47.185,41.382,47.185,41.382,46.997,40.663z"/>
	<path style="fill-rule:evenodd;clip-rule:evenodd;fill:none;" d="M32.148,36.612c-0.014-0.345-0.38-0.548-0.218-0.979
		c0.135-0.093,0.34-0.234,0.608-0.42c0.425,0.107,0.757,0.473,0.877,1.08c-0.076,0.085-0.166,0.187-0.284,0.32
		C32.846,36.612,32.535,36.612,32.148,36.612z"/>
	<path style="fill-rule:evenodd;clip-rule:evenodd;fill:none;" d="M32.35,28.207c-0.307,0-0.517,0-0.809,0
		c-0.098-0.152-0.233-0.364-0.369-0.575c-0.138-0.176-0.211-0.449-0.017-0.75C31.698,27.161,32.33,27.319,32.35,28.207z"/>
</g>
</svg>
