<?xml version="1.0" encoding="iso-8859-1"?>
<!-- Generator: Adobe Illustrator 16.0.0, SVG Export Plug-In . SVG Version: 6.00 Build 0)  -->
<!DOCTYPE svg PUBLIC "-//W3C//DTD SVG 1.1//EN" "http://www.w3.org/Graphics/SVG/1.1/DTD/svg11.dtd">
<svg version="1.1" id="Layer_1" xmlns="http://www.w3.org/2000/svg" xmlns:xlink="http://www.w3.org/1999/xlink" x="0px" y="0px"
	 width="72.36px" height="72.18px" viewBox="0 0 72.36 72.18" style="enable-background:new 0 0 72.36 72.18;" xml:space="preserve"
	>
<g>
	
	<path fill="currentColor" d="M56.127,60.652c-0.904-0.4-1.512-1.058-1.947-1.859
		c-0.099-0.181-0.204-0.346-0.321-0.514c-0.236-0.34-0.401-0.703-0.37-1.145c0.031-0.43,0.011-0.863,0.007-1.295
		c-0.008-0.837,0.101-1.686-0.318-2.524c-0.965,0-1.998,0-3.004,0c-0.906,0.35-1.492,1.166-2.406,1.526
		c-0.329,0.129-0.618,0.512-0.794,0.939c-0.499,1.211-1.441,2.183-1.912,3.42c-0.07,0.185-0.262,0.391-0.442,0.451
		c-0.547,0.185-0.791,0.635-1.047,1.073c-0.49,0.844-1.224,1.472-1.93,2.104c-0.413,0.37-0.944,0.655-1.577,0.61
		c-0.534-0.038-1.072-0.008-1.581-0.008c-0.18-0.181-0.333-0.333-0.513-0.513c0-0.357,0-0.743,0-1.135
		c0.468-0.5,1.066-0.909,1.286-1.688c-0.196-0.477-0.288-1.049-0.658-1.553c0-0.677,0-1.395,0-2.144
		c-0.1-0.077-0.213-0.165-0.374-0.291c-0.693-0.087-1.447-0.047-2.231,0.297c0.167,0.663-0.36,1.277-0.212,1.922
		c-0.311,0.49-0.583,0.919-0.859,1.354c0.124,0.753,0.6,1.286,1.154,1.778c0.344,0.306,0.598,0.671,0.569,1.2
		c-0.247,0.218-0.513,0.453-0.834,0.737c-0.18-0.019-0.414,0.206-0.657,0.229c-0.92,0.085-1.779-0.117-2.464-0.805
		c-1.067-1.07-2.151-2.125-3.202-3.211c-0.858-0.888-1.389-1.99-1.913-3.093c-0.572-1.203-1.18-2.39-1.705-3.613
		c-0.115-0.269-0.31-0.332-0.402-0.574c-0.576,0.383-0.844,0.995-1.455,1.164c-0.54,0-1.137,0.145-1.603-0.041
		c-0.447-0.179-0.996,0.034-1.304-0.474c-0.17,0.149-0.273,0.24-0.401,0.353c-0.199,1.662,0.225,3.379-0.298,5.079
		c-0.958,0.798-1.639,1.994-3.021,2.409c-0.187-0.063-0.395-0.314-0.628-0.225c-1.032-0.604-1.763-1.48-2.595-2.247
		c-0.523-0.482-0.807-1.148-1.361-1.605c-0.537-0.441-0.83-1.098-1.256-1.623c-0.949-1.173-1.533-2.546-2.333-3.795
		c-0.8-1.25-1.324-2.61-1.779-4.017c-0.228-0.704-0.361-1.429-0.567-2.136c-0.075-0.255-0.136-0.518-0.243-0.767
		c-0.317-0.736-0.191-1.512-0.22-2.236c0.302-0.434,0.685-0.432,1.053-0.249c0.422,0.209,0.907,0.344,1.196,0.757
		c0.229,0.329,0.604,0.431,0.961,0.683c0.34-0.734,0.735-1.445,1.402-1.913c0.932-0.652,1.653-1.581,2.706-2.063
		c0.634-0.291,1.272-0.642,1.944-0.764c0.732-0.132,1.53-0.142,2.253,0.012c0.448,0.095,0.968,0.233,1.368,0.606
		c0.31,0.288,0.744,0.444,1.076,0.633c0.293,0.088,0.345-0.333,0.615-0.198c0.258-0.394,0.342-0.899,0.763-1.174
		c-0.001-0.363,0.09-0.741-0.359-0.994c-1.025,0.139-1.942-0.094-2.544-1.26c-0.875-0.396-1.912-0.736-2.68-1.584
		c-0.271-0.3-0.739-0.458-1.147-0.584c-0.2-0.062-0.368-0.171-0.555-0.228c-1.173-0.356-1.832-1.195-2.238-2.293
		c-0.034-0.092-0.182-0.161-0.185-0.244c-0.019-0.467-0.009-0.936-0.009-1.42c-0.478-0.679-1.223-1.128-1.656-1.885
		c-0.282-0.493-0.552-0.967-0.491-1.521c0.11-0.999-0.097-1.977-0.274-2.927c-0.131-0.703-0.119-1.386-0.179-2.097
		c0.954-1.653,1.983-3.265,3.286-4.649c0.598-0.12,1.092,0.035,1.43,0.473c0.639,0.826,1.281,1.647,1.575,2.694
		c0.143,0.506,0.423,0.979,0.786,1.405c0.481,0.564,0.849,1.195,0.944,1.985c0.075,0.622,0.292,1.241,0.535,1.824
		c0.175,0.419-0.065,0.901,0.289,1.293c0.1,0.11,0.211,0.263,0.311,0.42c0.373-0.185,0.433-0.57,0.566-0.893
		c0.323-0.779,0.468-1.613,0.638-2.432c0.137-0.66,0.372-1.23,0.851-1.703c0.487-0.48,0.965-0.97,1.453-1.449
		c0.365-0.358,0.556-0.772,0.526-1.297c-0.027-0.465-0.006-0.932-0.006-1.289c0.62-1.317,1.647-2.098,2.758-2.784
		c0.108-0.066,0.254-0.095,0.345-0.202c0.739-0.869,1.78-1.409,2.506-2.291c0.271-0.329,0.7-0.478,0.963-0.778
		c0.331-0.377,0.857,0.013,1.152-0.403c0.061-0.085,0.369-0.07,0.519-0.002c0.958,0.434,1.961,0.14,2.939,0.185
		c0.413,0.019,0.766-0.361,1.215-0.455c0.246-0.051,0.508-0.167,0.784-0.17c0.467-0.006,0.936,0.014,1.404-0.005
		c0.978-0.039,1.954-0.024,2.838,0.447c0.401,0.214,0.8,0.199,1.213,0.203c0.647,0.005,1.301,0.053,1.941-0.014
		c0.615-0.064,1.15,0.256,1.748,0.246c0.176-0.003,0.402,0.133,0.521,0.275c0.504,0.604,1.232,0.935,1.758,1.515
		c0.753,0.83,1.666,1.476,2.545,2.167c0.683,0.536,1.354,1.146,1.795,1.978c0,0.328,0.027,0.688-0.009,1.042
		c-0.033,0.333,0.44,0.519,0.181,0.866c0.491,0.485,0.955,0.937,1.41,1.396c0.933,0.938,1.573,2.003,1.441,3.314
		c0.406,0.728,0.712,1.402,0.649,2.191c-0.022,0.289-0.037,0.581,0.329,0.773c0.381-0.298,0.562-0.698,0.533-1.201
		c-0.076-1.389,0.591-2.547,1.184-3.72c0.121-0.24,0.244-0.475,0.358-0.714c0.479-0.999,0.989-1.988,1.681-2.872
		c0.313-0.399,0.568-0.83,1.096-0.974c0.718,0.26,1.166,0.79,1.521,1.445c0.305,0.562,0.667,1.095,1.02,1.629
		c0.297,0.451,0.641,0.881,0.692,1.439c0.021,0.222,0.164,0.428,0.25,0.538c0.5,0.64,0.421,1.422,0.608,2.131
		c0.177,0.666-0.271,1.247-0.434,1.865c-0.254,0.966-0.66,1.877-1.497,2.508c-0.789,0.594-0.969,1.473-1.07,2.362
		c-0.13,1.146-0.937,2.117-2.113,2.263c-0.668,0.083-1.199,0.414-1.438,0.911c-0.423,0.882-1.221,0.994-1.967,1.267
		c-0.093,0.034-0.219-0.044-0.277,0.057c-0.263,0.269-0.377,0.586-0.542,0.947c-0.26,0.135-0.586,0.303-1.041,0.537
		c-0.386,0-0.916,0-1.45,0c-0.028,0.31-0.071,0.565,0.064,0.843c0.284,0.584,0.446,0.844,0.971,1.313
		c0.646-0.154,1.196-0.551,1.801-0.829c0.517-0.238,1.052-0.589,1.63-0.472c1.245,0.252,2.504,0.439,3.592,1.241
		c0.983,0.726,1.759,1.648,2.645,2.463c0.307,0.281,0.549,0.644,1.113,0.723c0.417-0.164,0.962-0.378,1.485-0.584
		c0.638,0.523,0.796,1.081,0.572,1.782c-0.446,1.397-0.963,2.766-1.487,4.135c-0.273,0.717-0.603,1.408-0.87,2.123
		c-0.369,0.983-0.901,1.885-1.486,2.726c-0.796,1.143-1.466,2.363-2.271,3.498c-0.142,0.201-0.308,0.371-0.455,0.561
		c-0.365,0.469-0.81,0.864-1.187,1.328c-0.349,0.431-0.924,0.738-1.31,1.188C57.096,60.235,56.527,60.31,56.127,60.652z
		 M42.516,24.583c0.285,1.09,1.294,0.684,1.962,1.143c0.185-0.369,0.64-0.282,0.81-0.646c0-0.28,0-0.566,0-0.609
		c-0.267-0.372-0.431-0.601-0.612-0.854C44.029,24.176,43.177,24.127,42.516,24.583z M29.791,23.694
		c-0.356,0.255-0.556,0.398-0.685,0.49c0,0.312,0,0.52,0,0.623c0.213,0.257,0.371,0.447,0.5,0.603c0.481,0,0.906,0,1.326,0
		c0.201-0.254,0.598-0.218,0.748-0.542c0-0.131,0-0.273,0.001-0.415c-0.464-0.138-0.713-0.612-1.176-0.758
		C30.222,23.694,29.939,23.694,29.791,23.694z M36.654,37.53c-0.018,0.622-0.06,1.16,0.443,1.531
		c0.487-0.462,0.451-0.983,0.383-1.531C37.196,37.53,36.958,37.53,36.654,37.53z M48.811,33.448c0.075,0.141,0.15,0.282,0.242,0.453
		c0.17-0.31,0.156-0.504,0.018-0.712C48.942,33.317,48.844,33.415,48.811,33.448z M37.144,53.543
		c0.055,0.104-0.214,0.288,0.081,0.354C37.33,53.767,37.337,53.647,37.144,53.543z M21.42,29.951c0.101-0.071,0.101-0.143,0-0.214
		C21.319,29.808,21.319,29.88,21.42,29.951z"/>
	
	
	
	
	
	
</g>
</svg>
