<?xml version="1.0" encoding="iso-8859-1"?>
<!-- Generator: Adobe Illustrator 16.0.0, SVG Export Plug-In . SVG Version: 6.00 Build 0)  -->
<!DOCTYPE svg PUBLIC "-//W3C//DTD SVG 1.1//EN" "http://www.w3.org/Graphics/SVG/1.1/DTD/svg11.dtd">
<svg version="1.1" id="Layer_1" xmlns="http://www.w3.org/2000/svg" xmlns:xlink="http://www.w3.org/1999/xlink" x="0px" y="0px"
	 width="72.36px" height="72.18px" viewBox="0 0 72.36 72.18" style="enable-background:new 0 0 72.36 72.18;" xml:space="preserve"
	>
<g>
	
	<path fill="currentColor" d="M10.611,45.652c-0.4-0.081-0.559-0.416-0.746-0.724
		c0.194-0.502,0.271-1.07,0.783-1.402c0.152-0.098,0.188-0.336,0.206-0.446c0.214-1.372,1.042-2.603,0.947-4.038
		c-0.022-0.345,0.174-0.586,0.31-0.846c0.267-0.512,0.443-1.046,0.598-1.634c0.228-0.208,0.49-0.447,0.839-0.767
		c0.263-0.03,0.618-0.174,0.97-0.422c0.293-0.208,0.691-0.347,1.083-0.233c0.64,0.186,1.339,0.254,1.883,0.656
		c0.561,0.414,1.111,0.888,1.386,1.553c0.291,0.705,0.858,1.031,1.51,1.281c0.184,0.485,0.397,0.95,0.836,1.249
		c0.152,0,0.294,0,0.43,0c0.182-0.148,0.062-0.343,0.106-0.533c-0.296-0.23-0.476-0.642-0.863-0.741
		c-0.427-0.11-0.377-0.552-0.673-0.779c0.227-0.93-0.311-1.622-0.847-2.383c0-0.335,0.004-0.727-0.001-1.117
		c-0.005-0.413,0.002-0.808-0.202-1.213c-0.484-0.965-0.199-1.957,0.083-2.909c0.106-0.359,0.22-0.634-0.036-0.967
		c-0.091-0.119-0.063-0.33-0.09-0.504c-0.2-0.2-0.403-0.403-0.607-0.607c-0.01-0.656-0.034-1.276,0.33-1.911
		c0.34-0.591,0.005-1.267-0.23-1.876c-0.156-0.404-0.397-0.766-0.558-1.173c-0.257-0.649-0.188-1.307-0.199-1.964
		c1.042-1.183,1.113-1.975,0.243-2.999c0-0.35,0-0.736,0-1.122c0.29-1.002,1.087-1.558,1.914-2.037
		c0.011-0.828-0.061-1.587,0.407-2.277c0.131-0.194,0.19-0.435,0.428-0.525c0.872-0.333,1.611-0.962,2.557-1.131
		c0.091-0.017,0.167-0.154,0.253-0.16c0.323-0.02,0.647-0.008,0.996-0.008c0.666,0.631,1.27,1.358,2.162,1.759
		c0.235,0.105,0.406,0.437,0.578,0.706c0.448,0.699,0.738,1.542,1.623,1.929c0.429,0.187,0.589,0.784,0.679,1.203
		c0.12,0.562,0.361,1.12,0.271,1.74c-0.077,0.529,0.024,1.081-0.025,1.617c-0.078,0.867,0.333,1.516,0.873,2.236
		c0,0.151-0.028,0.403,0.005,0.646c0.156,1.13-0.425,1.862-1.309,2.414c-0.275,0.171-0.478,0.384-0.607,0.542
		c-0.135,0.466,0.145,0.628,0.349,0.812c0.701,0.635,0.706,0.63,0.648,1.644c-0.877,0.146-1.674-0.167-2.47-0.426
		c-0.186-0.41-0.281-0.88-0.56-1.182c-0.528-0.572-0.598-1.366-1.064-1.938c-0.19-0.233-0.262-0.514-0.157-0.677
		c0.333-0.521,0.063-1.16,0.394-1.681c0.081-0.126,0.083-0.367,0.241-0.429c0.767-0.303,0.638-0.941,0.635-1.514
		c-0.57-0.654-1.286-1.125-1.572-1.983c-0.102-0.305-0.484-0.517-0.739-0.771c-0.242-0.625,0.113-1.209,0.174-1.86
		c-0.761,0.412-1.621-0.088-2.388,0.535c-0.417,0.587-0.148,1.387-0.231,2.173c-0.413,0.413-0.845,0.845-1.316,1.316
		c0.499,0.937,0.941,1.92,0.905,3.051c-0.018,0.556-0.43,0.904-0.574,1.453c0.133,0.309,0.116,0.791,0.553,1.04
		c0.377,0.215,0.869,0.177,1.248,0.608c-0.017,0.399,0.336,0.785,0.286,1.297c-0.045,0.458-0.01,0.925-0.01,1.328
		c0.404,0.601,0.977,0.198,1.549,0.446c0.666,0.44,1.455,0.961,2.308,1.525c0.184,0.355,0.385,0.795,0.222,1.222
		c0.229,0.251,0.399,0.436,0.561,0.612c0.452,0,0.882,0,1.315,0c1.104,0.836,2.096,1.812,3.393,2.579c0.068,0,0.282,0,0.488,0
		c0.11-0.109,0.211-0.211,0.315-0.314c0-0.358,0-0.718,0-1.18c0.763-0.243,1.504-0.724,2.384-0.227
		c0.406,0.229,1.01,1.264,1.07,1.872c0.021,0.21,0.003,0.425,0.003,0.567c0.179,0.294,0.319,0.526,0.422,0.695
		c0.159-0.161,0.32-0.323,0.481-0.485c0.3-0.667,0.297-1.512,0.89-2.201c0.594-0.077,1.115,0.131,1.596,0.43
		c0.145,0.779,0.408,1.506,0.275,2.246c0.186,0.193,0.376,0.079,0.531,0.114c0.681-0.565,1.157-1.354,2.006-1.721
		c0.913,0.419,1.029,0.522,1.596,1.443c0,0.972,0,2.006,0,3.081c1.012,0.07,1.879-0.602,2.888-0.401
		c0.891,0.781,1.895,1.16,3.122,0.564c0.324,0.255,0.63,0.528,1.072,0.699c0.477-0.204,1.007-0.365,1.606-0.052
		c0.457,0.239,0.939-0.004,1.337-0.177c0.45,0.159,0.815,0.34,1.065,0.656c0.64,0.079,1.291-0.147,1.878,0.225
		c0.051,0.032,0.178-0.026,0.208,0.009c0.61,0.732,1.72,0.823,2.175,1.818c0.238,0.52,0.834,0.876,1.239,1.278
		c0.046,0.626,0.162,1.169,0.548,1.658c0.309,0.392,0.497,0.875,0.774,1.294c0.252,0.382,0.232,0.785,0.19,1.209
		c-0.261,0.154-0.35,0.564-0.88,0.498c-0.377-0.326-0.923-0.568-1.494-0.771c-0.243-0.086-0.594-0.137-0.622-0.47
		c-0.072-0.874-0.751-0.958-1.555-1.224c-0.077-0.097-0.278-0.347-0.395-0.492c-1.009-0.214-1.859-0.488-2.765-0.506
		c-0.266-0.005-0.586-0.158-0.793-0.4c-0.549-0.066-1.112,0.104-1.651-0.203c-0.157-0.09-0.377-0.099-0.543-0.252
		c-0.173-0.159-0.298-0.353-0.573-0.437c-0.701-0.215-1.102-0.759-1.305-1.474c-0.209,0-0.419,0-0.838,0
		c-0.05,0.068-0.163,0.314-0.353,0.46c-0.232,0.18-0.48,0.394-0.809,0.381c-0.907-0.034-1.752,0.302-2.624,0.459
		c-0.37,0.067-0.697,0.396-1.03,0.626c-0.224,0.154-0.398,0.347-0.666,0.476c-0.933,0.449-1.771,1.057-2.492,1.811
		c-0.172,0.181-0.353,0.354-0.505,0.507c-0.202,0.048-0.401-0.07-0.535,0.106c-0.135,0.177-0.356,0.177-0.484,0.111
		c-0.85-0.437-1.751-0.082-2.615-0.211c-0.25-0.038-0.375,0.147-0.558,0.226c-1.101,0.471-1.981,1.181-2.459,2.315
		c-0.774,0.332-1.508,0.803-2.398,0.698c-0.37,0.244-0.581,0.602-0.785,1.077c0,0.178,0,0.464,0,0.743
		c0.212,0.378,0.56,0.387,0.943,0.328c1.372-1.447,3.832-1.395,5.374-0.034c0.127,0.112,0.233,0.224,0.424,0.282
		c0.606,0.19,1.057,0.691,1.694,0.863c0.575,0.154,1.105,0.516,1.684,0.606c0.548,0.087,0.937,0.509,1.545,0.503
		c0.448-0.003,0.899,0.391,1.351,0.605c1.063,0.505,2.201,0.797,3.339,1.052c0.307,0.069,0.55,0.267,0.858,0.288
		c0.048,0.3,0.355,0.515,0.262,0.936c-0.245,0.317-0.611,0.49-1.089,0.542c-0.847,0.094-1.708,0.112-2.525,0.414
		c-0.158,0.059-0.357-0.003-0.536,0.01c-0.799,0.06-1.598-0.096-2.405,0.182c-0.415,0.143-0.979,0.168-1.483-0.24
		c-0.241,0.437-0.88,0.452-0.965,1.059c0.477,0.509,0.732,1.313,1.746,1.561c0.651-0.165,1.438,0.306,2.288,0.257
		c0.853-0.049,1.711-0.011,2.588-0.011c0,0.271,0,0.48,0,0.749c-0.293,0.521-1.011,0.648-1.368,1.183
		c-0.574,0.06-1.109,0.265-1.652,0.441c-0.065,0.021-0.145,0.012-0.215,0.002c-0.439-0.062-0.888-0.416-1.303-0.193
		c-0.446,0.239-0.882,0.159-1.4,0.204c-0.084-0.149-0.19-0.34-0.281-0.501c-1.011,0.274-1.834-0.319-2.703-0.145
		c-0.254-0.274-0.666-0.293-0.846-0.66c-0.391,0-0.782,0-1.173,0c-1.08-0.002-1.631-0.377-2.218-1.397
		c-0.323-0.561-0.622-1.136-1.119-1.601c-0.328-0.308-0.539-0.784-0.587-1.253c-0.046-0.438-0.188-0.795-0.557-1.152
		c-0.306,0.09-0.664-0.107-1.049,0.155c-0.226,0.154-0.568,0.115-0.874-0.106c-0.315-0.228-0.736-0.301-1.09-0.482
		c-0.691-0.354-1.293-0.788-1.647-1.541c-0.173-0.366-0.512-0.707-0.86-0.929c-0.752-0.481-1.151-1.184-1.528-1.95
		c-0.116-0.236-0.217-0.445-0.176-0.68c0.081-0.464,0.175-0.932,0.335-1.372c0.061-0.168,0.041-0.517,0.43-0.468
		c0.088,0.011,0.269-0.174,0.293-0.291c0.203-1.016,1.185-1.231,1.809-1.82c0.435,0,0.863,0,1.327,0
		c0.253-0.309,0.627-0.53,0.807-0.927c-0.34-0.349-0.591-0.141-0.833,0.038c-0.227,0.073-0.292-0.217-0.46-0.201
		c-0.629,0.056-1.13-0.15-1.614-0.566c-0.225-0.192-0.556-0.374-0.946-0.316c-0.388,0.057-0.79,0.013-1.246,0.013
		c-0.322-0.364-0.672-0.761-0.95-1.076c-0.679,0.229-1.101,0.625-1.729,0.666c-0.624,0.041-1.336,0.598-1.53,1.164
		c-0.288,0.842-0.87,1.507-1.248,2.291c-0.088,0.184-0.028,0.346-0.081,0.532c-0.456,0.443-0.907,0.9-1.142,1.555
		c-0.336,0.939-0.97,1.635-2.192,1.974c-0.068,0-0.381,0-0.674,0c-0.142-0.142-0.125-0.328-0.074-0.421
		c0.261-0.472,0.52-0.953,0.858-1.368c0.16-0.195,0.307-0.436,0.34-0.615c0.15-0.816,0.629-1.476,0.97-2.195
		c0.174-0.367,0.309-0.735,0.455-1.109c0.301-0.773,0.756-1.484,1.115-2.237c0.279-0.582,0.677-1.086,1.075-1.622
		c-0.741-0.132-0.741-0.132-1.9,0.306c-0.103,0.308-0.238,0.623-0.367,0.91c-0.216,0.479-0.382,1.023-0.844,1.385
		c-0.41,0.32-0.695,0.732-0.862,1.258c-0.273,0.859-1.125,1.139-1.849,1.605c-0.399,0-0.856,0-1.298,0
		c-0.136-0.181-0.059-0.36-0.067-0.532c0.314-0.359,0.902-0.421,1.064-0.942c0.151-0.484,0.478-0.831,0.826-1.174
		c0.058-0.057,0.015-0.204,0.044-0.302c0.359-1.198,0.945-2.278,1.619-3.33c0.253-0.395,0.632-0.819,0.526-1.38
		c-0.503-0.345-0.915,0.197-1.393,0.139c-0.088-0.011-0.302,0.207-0.287,0.286c0.08,0.412-0.394,0.683-0.248,1.102
		c-0.634,0.631-1.296,1.228-1.539,2.164C11.835,45.174,11.22,45.415,10.611,45.652z M42.914,37.887
		c-0.202,0.907-0.907,1.601-0.869,2.553c0.261,0.175,0.366,0.485,0.671,0.537c0.449-0.345,1.082-0.156,1.473-0.543
		c0.024-0.324,0.387-0.548,0.179-0.938c-0.105-0.124-0.299-0.001-0.396-0.025C43.357,39.097,43.15,38.529,42.914,37.887z"/>
	
</g>
</svg>
