<svg xmlns="http://www.w3.org/2000/svg" xml:space="preserve" width="72px" height="72px" viewBox="0 0 72 72">
    <path fill="currentColor" d="M44.092 56.775c-.57.341-1.149.687-1.686 1.006-.471.137-.935-.136-1.371.227-.167.139-.606.112-.828-.01-.719-.395-1.317-.174-1.998.247-.629.192-1.201-.204-1.738-.527-.675-.405-1.257-.469-1.815.041-1.256.345-1.932-.464-2.617-1.229h-.666c-.898.854-.898.854-2.326.866-.521.011-.772.495-1.232.679-.76.302-1.315.08-1.89-.299-.384-.253-.756-.49-1.284-.361-.316.241-.539.685-1.021.813h-4.591c-.615-.557-1.151-1.325-2.055-1.627-.083-.028-.149-.147-.192-.238-.024-.052.015-.132.039-.278.938.363 1.847.301 2.681-.213.267-.813-.069-1.542-.191-2.243l-.812-.812c-.734.606-1.389 1.393-2.352 1.749-.232.076-.285-.341-.551-.206l-.333-.616c-.031-.171.208-.261.189-.341-.13-.579.57-.822.501-1.443-.056-.504.641-.803.857-1.245.284-.579.896-.859 1.121-1.478.101-.276.399-.584.673-.671.585-.185.726-.679.972-1.063.04-.321-.469-.338-.173-.691h-1.021c-.343.322-.662.759-1.253.859l-.322-.285v-1.16c.586-.586 1.195-1.198 1.809-1.807.15-.148.292-.367.473-.414 1.187-.311 2.091-1.192 3.237-1.568.553-1.034 1.003-1.193 2.079-.877.484.143.965.42 1.719.176.043-.052.189-.333.42-.473.439-.267.914-.438 1.457-.202.5.217 1.013.392 1.588.354.292-.02.548-.066.771-.234.398-.3.939-.126 1.34-.422.067-.049.243-.042.308.012.494.412 1.272.016 1.66.572.644.229 1.262.039 1.753-.199.496-.24.837-.157 1.244.041.241.117.478.244.863.441.55.206 1.194-.311 1.893-.227.964-.513 1.856-.109 2.69.234.571-.159 1.01-.372 1.181-.937.186-.609.679-.93 1.271-1.212.83-.036.872-.051 1.568-.545v-1.301l.663-.557c.008-.563.061-1.022-.342-1.474-.63-.408-1.34-1.023-2.363-.532-.299-.154-.638-.351-.995-.504-.288-.124-.559-.099-.883.043-.566.249-1.005.681-1.68.941-.532.014-1.209.13-1.768-.359-.129-.113-.329-.107-.397-.051-.404.333-.976.142-1.406.577-.358.362-.972.539-1.609.603-.381-.246-1.007-.204-1.473-.549-.675.334-1.413.436-2.116.648-.533.161-1.004-.197-1.516-.247-.087-.009-.158-.132-.25-.175-.059-.028-.163-.035-.21-.001-.619.448-1.403-.033-2.014.351-.441.277-.9.321-1.281.294-.572-.246-.95-.542-1.187-1.05-.135-.288-.522-.404-.87-.467-.281-.05-.35.207-.526.306v1.694c-.271.54-.745.348-1.144.38-.588-.368-.855-.97-1.173-1.541-.101-.181-.118-.4-.051-.504.672-1.034.325-2.177.425-3.251-.174-.124-.247-.315-.47-.335-.768.527-1.218 1.465-2.175 1.752-.972-.904-1.022-1.177-.471-2.411.167-.372.417-.724.282-1.147 1.526-1.362 2.046-3.073 1.952-5.061h-.769c-.273.438-.876.617-1.279 1.048h-.646l-.314-.315v-1.491c.718-1.003 2.066-1.377 2.531-2.631.98-.251 1.904-.654 2.997-.508l.565-.703c.517.132.915-.032 1.229-.293.421-.351.854-.732.896-1.446-.643-.594-.791-1.551-1.385-2.331-.828 0-1.688-.045-2.539.018-.479.035-.866-.211-1.314-.252-.297-.027-.445-.314-.382-.722.362-.532 1.033-.769 1.629-1.21.692.18 1.364-.27 2.11-.221.752.05 1.538.134 2.259-.023.733-.16 1.572.001 2.252-.574-.318-.682-1.233-.552-1.568-1.376-.032-.168-.07-.513.344-.824.671 0 1.422.029 2.168-.012.404-.022.75.17 1.073.294.626.239 1.229.427 1.912.354l1.035 1.091c.456 0 .887.032 1.312-.006 1.064-.095 2.085.383 3.15.222.826.446 1.798.289 2.65.639.151.063.351.009.505.009l.955.956v2.21l-.662.514c-.439.115-.966-.101-1.479-.489-.578.337-1.212.273-1.712.262a2.7 2.7 0 0 0-1.182.855c-1.111.161-2.251-.672-3.358.117v.409c.593.403 1.381.552 1.8 1.216.333-.023.629.037.923-.201.219-.177.534-.254.798-.406.972-.557 1.985-.649 2.963-.032.365.231.729.183 1.122.209.512-.557 1.369-.642 1.753-1.288.555-.104.734.294.985.549.133.368-.112.728-.272.852-.36.278-.407.669-.489 1.003-.271 1.104-.949 1.784-1.979 2.173-.062.023-.104.098-.186.18-.65-.208-1.258.23-1.926.204-.647-.025-1.296-.005-1.919-.005-.784.597-1.739.727-2.645 1.131-.383 1.04-1.42 1.286-2.413 1.728-.118.49-.475.969-.48 1.562 1.252 1.007 2.179 1.106 3.791-.102h2.667c.81-.001 1.313-.205 2.093-.869.622.051 1.343-.166 1.913.419.489.054.947.021 1.391-.262.537-.343 1.15-.449 1.88-.327l.48.605c.442-.03.785.13 1.016-.212.199.354.702.072.926.483.394-.399.997-.134 1.352-.504.939.183 1.518.856 2.287 1.32.763-.106 1.502.096 2.217.494.477.265 1.005.442 1.627.345.624.718 1.486 1.152 2.307 1.634.476.28.77.572.935 1.123.076.254.063.581.311.853.236.258-.16.613-.283.965h-1.604v.979c.26.114.165.43.373.605 1.112.937 1.548 2.275 2.078 3.562.218.526.029 1.053.129 1.555-.199.26-.233.597-.538.813h-.697l-.507-.621v-.55l-.76-.58c-.293-.076-.473.348-.729.577-.096.384.001.714.196 1.01.262.397.369.857.563 1.278.101.217.142.465.064.606-.367.676-.113 1.391-.214 2.091-.396.764-1.15 1.269-1.517 2.109-.739-.588-.226-1.337-.469-1.956l-.273-.262c-.292-.058-.461.166-.52.324-.698 1.888-1.58 3.14-2.916 4.408-.709.118-1.308-.075-1.747-.649-1.023.361-1.894.892-2.557 1.748-.778-.13-1.113.592-1.688.865-.572.272-1.127.582-1.663.861-.244-.006-.3-.218-.458-.317-.023-.646.061-1.236.82-1.481.089-.15.036-.323.021-.487-.055-.104-.087-.083-.161-.028-.161.118-.332.261-.52.3-.516.109-.935.344-1.352.674-.24.189-.583.335-.884.448-.314.119-.708.026-1.062.026-.216.253-.543.278-.788.438-.556-.239-.332-.868-.765-1.278l-.507-.241c-.734.26-1.159.892-1.72 1.398 0 .451.007.916-.002 1.381-.008.406.121.827.45.981.414.193.633.484.815.853.42.847 1.144 1.328 2.063 1.678.232-.251.492-.533 1.093-.629.449.133 1.04-.441 1.722-.234.664-.745 1.395-1.371 2.35-1.771.365.067.726.305 1.167.243.389-.054.79-.011 1.239-.011l.562.685c.432-.063.708-.381 1.23-.164.379.637 1.227.762 2.001.963.29.075.532.31.876.255.316-.05.683-.104.964.007.933.362 1.885.113 2.813.206.124-.292.493-.152.62-.436l.584.543c-.84 1.72-2.593 2.626-3.878 2.046-.695.368-1.43.244-2.15.138-.249-.037-.47-.316-.715-.333-.321-.022-.591-.175-.883-.221-.422-.065-.861-.017-1.294-.017-.264-.145-.515-.373-.795-.417-1.131-.175-2.162-.916-3.379-.618"/>
</svg>
