<?xml version="1.0" encoding="iso-8859-1"?>
<!-- Generator: Adobe Illustrator 16.0.0, SVG Export Plug-In . SVG Version: 6.00 Build 0)  -->
<!DOCTYPE svg PUBLIC "-//W3C//DTD SVG 1.1//EN" "http://www.w3.org/Graphics/SVG/1.1/DTD/svg11.dtd">
<svg version="1.1" id="Layer_1" xmlns="http://www.w3.org/2000/svg" xmlns:xlink="http://www.w3.org/1999/xlink" x="0px" y="0px"
	 width="72.36px" height="72.18px" viewBox="0 0 72.36 72.18" style="enable-background:new 0 0 72.36 72.18;" xml:space="preserve"
	>
<g>
	
	<path fill="currentColor" d="M23.018,57.031c0,0.445,0,0.8,0,1.13c-0.099,0.099-0.175,0.176-0.251,0.252
		c-1.768,0.198-2.792-0.927-3.208-2.438c-0.294-1.063-0.081-2.11-0.201-3.155c-0.037-0.324,0.289-0.472,0.258-0.79
		c0.552-0.081,0.93-0.504,1.405-0.752c0.475-0.249,1.034-0.046,1.446-0.45c0.554-0.339,0.846-0.961,1.289-1.458
		c0.245-0.275,0.519-0.53,0.799-0.695c0.441-0.26,0.735-0.547,0.874-1.044c0.079-0.282,0.305-0.52,0.415-0.798
		c0.337-0.845,0.938-1.388,1.759-1.771c1.528-0.712,2.646-1.653,3.409-2.908c0.325-0.533,0.484-1.185,0.628-1.781
		c0.148-0.611,0.452-1.141,0.733-1.641c0.241-0.429,0.461-0.907,0.819-1.363c0-0.435,0.054-0.942-0.013-1.433
		c-0.093-0.685,0.25-1.3,0.229-1.964c0.426-0.38,0.117-0.88,0.256-1.38c0.733-1.194,1.024-2.015,0.979-2.816
		c-0.175-0.056-0.334-0.104-0.374,0.171c-0.068,0.473-0.192,0.909-0.519,1.3c-0.404,0.484-0.993,0.568-1.502,0.822
		c-0.145,0.072-0.393,0.105-0.513,0.029c-0.388-0.247-0.804-0.174-1.214-0.215c-0.114-0.012-0.213-0.174-0.311-0.26
		c-0.185-0.634,0.055-1.174,0.398-1.646c0.537-0.74,0.731-1.545,0.627-2.404c0.217-0.417,0.418-0.803,0.67-1.286
		c0.157-0.428-0.295-0.896-0.216-1.41c0.085-0.547-0.236-1-0.288-1.521c-0.028-0.289-0.235-0.512,0.008-0.83
		c0.106-0.139,0.134-0.479,0.037-0.609c-0.561-0.752,0.129-1.266,0.32-1.867c0.049-0.153,0.3-0.25,0.331-0.399
		c0.156-0.763,0.739-1.146,1.332-1.474c0.678-0.374,1.118-1.033,1.932-1.38c1.166,0.06,1.954-0.797,2.768-1.612
		c0.085-0.521-0.099-1.013-0.159-1.518c-0.183-1.546,0.228-2.943,1.403-4.046c0.132-0.123,0.256-0.254,0.401-0.4
		c1.413-0.052,2.723,0.224,3.734,1.341c0.144,0.7,0.399,1.363,0.49,2.073c0.085,0.666,0.499,1.236,0.576,2.158
		c-0.184,0.785-0.552,1.753-1.639,2.299c-0.142,0.251-0.163,0.615-0.419,0.836c0.132,0.342,0.317,0.668,0.381,1.016
		c0.151,0.825,0.323,1.612,1.222,1.961c-0.021,0.404,0.517,0.505,0.505,0.865c-0.015,0.449,0.36,0.576,0.56,0.842
		c0.624-0.133,0.998-0.496,1.194-1.104c0.102-0.313,0.3-0.596,0.522-0.869c0.271-0.333,0.512-0.76,0.255-1.229
		c-0.364-0.667-0.409-1.378-0.337-2.175c1.031-0.626,1.474-1.729,1.9-2.808c0.468,0,0.853,0,1.23,0
		c0.434,0.41,0.795,0.896,1.407,1.06c0.291,0.078,0.52,0.333,0.602,0.562c0.163,0.454,0.44,0.828,0.769,1.209
		c-0.51,0.686-0.796,1.428-1.37,1.983c-0.181,0.175-0.356,0.356-0.534,0.534c-0.613,0.612-1.156,1.196-1.344,2.153
		c-0.217,1.099-0.777,2.113-1.451,3.069c-0.571,0.812-1.093,1.654-1.715,2.339c-0.624,0.087-1.14,0.39-1.717,0.231
		c-0.522-0.123-0.833-0.57-1.153-0.854c-0.317,0.008-0.373,0.22-0.549,0.331c0.216,0.964-0.631,1.941,0.04,2.943
		c-0.081,0.11-0.161,0.218-0.259,0.35c0.188,0.329,0.225,0.743,0.686,0.927c0.684,0.275,1.382,0.49,2.087,0.698
		c1.058,0.312,2.047,0.798,3.018,1.31c0.209,0.11,0.387,0.127,0.578,0.141c0.655,0.522,1.144,1.183,1.953,1.566
		c0.777,0.368,1.176,1.192,0.926,2.291c-0.549,0.969-1.312,1.969-2.09,2.968c-0.754,0.968-1.66,1.829-2.183,2.977
		c-0.198,0.438-0.628,0.731-0.927,1.113c-0.449,0.572-0.842,1.217-1.412,1.696c-0.181,0.942,0.636,1.538,0.814,2.336
		c0.213,0.954,1.059,1.357,1.531,2.057c0.105,0.357-0.245,0.563-0.266,0.872c-0.748,0.464-1.579,0.191-2.392,0.281
		c-1.368-0.886-2.793-1.712-4.006-2.86c0-0.395,0-0.78,0-1.166c0.125-0.613,0.713-0.896,1.017-1.405
		c0.3-0.504,0.549-1.023,0.648-1.565c0.064-0.348,0.179-0.665,0.324-0.951c0.424-0.836,0.802-1.684,1.065-2.585
		c0.034-0.116,0.161-0.204,0.161-0.365c-0.001-0.59-0.097-1.193,0.283-1.735c0.143-0.282,0.475-0.46,0.639-0.86
		c-0.381-0.123-0.717-0.312-1.061-0.327c-0.97-0.043-1.95-0.092-2.912,0.008c-0.885,0.092-1.722,0.419-2.111,1.355
		c-0.229,0.554-0.449,1.11-0.675,1.664c-0.214,0.526-0.535,0.99-1.024,1.268c-0.632,0.357-1.068,0.86-1.348,1.511
		c-0.18,0.418-0.401,0.8-0.758,1.088c-0.333,0.269-0.487,0.679-0.771,0.973c-0.562,0.58-1.293,0.976-1.813,1.609
		c-0.016,0.02-0.08-0.004-0.099,0.016c-0.856,0.86-1.99,1.343-2.892,2.134c-0.344,0.302-0.773,0.407-1.137,0.663
		c-1.215,0.855-2.336,1.816-3.305,2.931c-0.363,0.419-0.689,0.876-1.088,1.269C23.944,55.224,23.839,56.252,23.018,57.031z
		 M35.016,23.045c-0.313,0.408-0.304,0.85-0.324,1.303c-0.021,0.473,0.186,0.987-0.197,1.421c-0.054,0.061-0.053,0.247,0,0.31
		c0.281,0.333,0.134,0.739,0.23,1.092c0.058,0.214,0.113,0.525,0.503,0.683c0.101-0.353,0.39-0.593,0.342-1.003
		c-0.055-0.474-0.012-0.936-0.18-1.427c-0.175-0.513-0.057-1.133-0.032-1.705C35.372,23.439,35.283,23.242,35.016,23.045z"/>
	<path fill="currentColor" d="M48.853,59.104c-0.173,0.181-0.346,0.362-0.535,0.562
		c0,0.187,0,0.401,0,0.592c-0.074,0.188-0.241,0.134-0.362,0.18c-0.776,0.298-1.529,0.658-2.346,0.855
		c-0.144,0.034-0.252,0.204-0.457,0.2c-1.109-0.02-2.107,0.429-3.13,0.775c-0.693,0.234-1.419,0.379-2.07,0.73
		c-1.111-0.054-2.257,0.202-3.312-0.34c-0.288-0.148-0.743,0-0.868-0.564c0.128-0.299,0.499-0.489,0.745-0.823
		c0.487,0,0.988-0.026,1.485,0.007c0.499,0.034,0.895-0.383,1.363-0.212c0.139-0.229,0.083-0.402,0.07-0.572
		c-0.063-0.03-0.13-0.092-0.183-0.081c-0.401,0.076-0.854-0.196-1.218,0.2c-0.065,0.07-0.348,0.068-0.407-0.003
		c-0.293-0.348-0.67-0.142-1.003-0.204c-0.819-0.153-1.608,0.123-2.384,0.264c-0.441,0.079-0.877,0.146-1.322,0.167
		c-0.72,0.034-1.387,0.3-2.056,0.513c-1.231,0.393-1.219,0.423-2.569,0.142c-0.304-0.063-0.612,0.006-0.934-0.087
		c-0.539-0.157-0.975-0.468-1.394-0.796c-0.172-0.135-0.379-0.154-0.542-0.296c0-0.207,0-0.421,0-0.684
		c0.157-0.136,0.346-0.3,0.596-0.516c0.831,0.149,1.617-0.497,2.526-0.435c0.33-0.308,0.589-0.703,1.055-0.863
		c0.356,0,0.715-0.026,1.068,0.005c0.816,0.072,1.559-0.099,2.279-0.5c0.439-0.245,0.928-0.435,1.464-0.369
		c0.635,0.077,1.215-0.181,1.8-0.35c0.212-0.061,0.465-0.146,0.601-0.066c0.729,0.424,1.585-0.004,2.325,0.393
		c0.181,0.098,0.556,0.146,0.795-0.12c0.055-0.062,0.194-0.079,0.289-0.067c1.351,0.155,2.666-0.312,4.089-0.216
		c0.21-0.247,0.489-0.501,0.849-0.653c0.25,0,0.501,0.018,0.748-0.003c0.655-0.056,1.319,0.127,1.968-0.199
		c0.563-0.282,1.225-0.265,1.809-0.591c0.511-0.286,1.141-0.418,1.732-0.48c0.498-0.053,0.901-0.196,1.341-0.434
		c0.874-0.473,1.811-0.805,2.851-0.677c0.42,0.051,0.852,0.008,1.156,0.008c0.678,0.375,0.392,0.829,0.169,1.12
		c-0.792,1.037-1.706,1.933-3.15,1.916c-0.182,0.411-0.349,0.811-0.534,1.2c-0.148,0.313-0.543,0.466-0.758,0.48
		c-0.868,0.059-1.609,0.496-2.421,0.708C49.666,59.026,49.28,59.132,48.853,59.104z"/>
	
</g>
</svg>
