<?xml version="1.0" encoding="iso-8859-1"?>
<!-- Generator: Adobe Illustrator 16.0.0, SVG Export Plug-In . SVG Version: 6.00 Build 0)  -->
<!DOCTYPE svg PUBLIC "-//W3C//DTD SVG 1.1//EN" "http://www.w3.org/Graphics/SVG/1.1/DTD/svg11.dtd">
<svg version="1.1" id="Layer_1" xmlns="http://www.w3.org/2000/svg" xmlns:xlink="http://www.w3.org/1999/xlink" x="0px" y="0px"
	 width="72.36px" height="72.18px" viewBox="0 0 72.36 72.18" style="enable-background:new 0 0 72.36 72.18;" xml:space="preserve"
	>
<g>
	
	<path fill="currentColor" d="M34.701,34.105c-0.109-0.031-0.141-0.049-0.173-0.049
		c-0.612-0.001-1.224-0.001-1.818-0.001c-1.177-0.902-1.986-2.134-2.989-3.183c-0.421-0.44-0.686-1.028-1.303-1.268
		c-0.749-1.192-1.919-1.996-2.814-3.049c-0.394-0.462-0.521-1.125-1.063-1.458c0.078-0.343-0.105-0.57-0.204-0.711
		c0-0.396,0.256-0.821,0.74-1.331c0.092-0.005,0.197-0.017,0.301-0.015c0.62,0.013,1.321-0.165,1.781,0.367
		c0.402,0.464,1.029,0.607,1.346,1.249c0.301,0.611,0.928,1.098,1.492,1.536c0.968,0.751,1.917,1.517,2.792,2.375
		c0.402,0.395,0.589,0.961,1.065,1.289c0.253,0.174,0.465,0.393,0.729,0.567c0.706,0.463,1.104,1.201,1.24,2.053
		c0.159,0.13,0.341,0.042,0.517,0.06c0.282-0.305,0.374-0.708,0.556-1.061c0.352-0.682,0.366-1.542,1.041-2.055
		c0.028-0.482,0.517-0.791,0.461-1.332c-0.028-0.276,0.191-0.554,0.372-0.809c0.491-0.695,0.859-1.435,0.919-2.322
		c0.038-0.565,0.277-1.102,0.616-1.623c0.021-1.3,0.296-2.549,1.418-3.526c0.678,0.109,1.243-0.335,1.854-0.588
		c1.065-0.44,2.121-0.932,2.919-1.816c0.217-0.241,0.52-0.314,0.804-0.406c0.528-0.17,0.913-0.428,1.263-0.921
		c0.443-0.624,0.903-1.293,1.608-1.703c0.48-0.279,0.975-0.461,1.519-0.393c0.369,0.402,0.495,0.882,0.493,1.344
		c-0.004,0.617,0.207,1.271-0.19,1.859c-0.05,0.074-0.023,0.214-0.004,0.318c0.191,1.035-0.313,1.966-0.43,2.954
		c-0.015,0.129-0.117,0.169-0.16,0.259c-0.334,0.69-0.69,1.375-0.839,2.135c-0.161,0.818-0.657,1.463-1.077,2.145
		c-0.318,0.516-0.69,0.956-0.806,1.623c-0.095,0.549-0.632,1.004-0.879,1.567c-0.391,0.888-0.979,1.638-1.654,2.347
		c-0.639,0.669-1.182,1.438-1.701,2.207c-0.182,0.269-0.377,0.513-0.611,0.709c-0.795,0.666-1.273,1.61-2.052,2.288
		c-0.073,0.063-0.119,0.164-0.16,0.255c-0.664,1.472-1.686,2.671-2.811,3.809c-0.545,0.552-1.229,0.891-1.837,1.336
		c-0.552,0.404-1.146,0.788-1.813,1.072c-0.589,0.251-1.08,0.818-1.668,1.181c-0.269,0.166-0.479,0.436-0.691,0.679
		c-0.464,0.53-1.068,0.879-1.666,1.202c-0.598,0.324-1.245,0.568-1.698,1.095c-0.176,0.204-0.417,0.276-0.615,0.354
		c-0.754,0.29-1.438,0.703-2.152,1.066c-0.675,0.344-1.45,0.489-2.17,0.75c-0.28,0.102-0.527,0.389-0.796,0.398
		c-0.333,0.012-0.539,0.309-0.883,0.254c-0.315-0.051-0.645-0.011-1.02-0.011c0,0.382,0,0.765,0,1.21
		c0.551,0.65,1.018,1.464,1.664,2.15c0.367,0.39,0.302,0.934,0.02,1.657c-0.815,0.674-1.715,0.668-2.812,0.547
		c-0.529-0.132-0.748-0.762-1.024-1.356c0.208-0.54,0.432-1.121,0.637-1.654c-0.178-0.256-0.486-0.129-0.562-0.35
		c-0.853,0.258-1.531,0.819-2.251,1.311c-0.219,0.149-0.471,0.251-0.708,0.373c-0.809,0.414-1.587,0.877-2.346,1.38
		c-0.358,0.237-0.765,0.403-1.121,0.586c-0.701-0.085-1.057-0.589-1.475-0.983c-0.109-0.314,0.052-0.572,0.216-0.774
		c0.551-0.679,1.069-1.415,1.901-1.782c0.663-0.293,1.261-0.71,1.766-1.179c0.647-0.602,1.394-0.973,2.159-1.338
		c0.138-0.065,0.216-0.168,0.327-0.233c0.236-0.262,0.022-0.541,0.109-0.763c-0.744-0.671-1.79-0.716-2.379-1.521
		c0-0.261,0-0.548,0-0.838c0.75-0.738,0.793-0.756,1.661-0.76c0.924,0.264,1.244,0.924,1.57,1.562
		c0.34,0.664,0.791,1.192,1.591,1.493c0.473-0.612,1.158-1.043,1.789-1.527c0.696-0.536,1.457-0.999,2.181-1.507
		c0.16-0.111,0.36-0.205,0.492-0.354c0.991-1.125,2.18-2.045,3.301-3.019c1.214-1.054,2.314-2.211,3.465-3.321
		c0.397-0.385,0.906-0.691,1.083-1.275c0.028-0.091,0.142-0.216,0.223-0.222c0.545-0.036,0.554-0.548,0.778-0.859
		c0.153-0.212,0.18-0.545,0.367-0.7C34.756,34.846,34.704,34.509,34.701,34.105z M41.967,26.665
		c0.399-0.403,0.753-0.629,0.943-1.018c0.271-0.554,0.143-1.199,0.411-1.77c0.098-0.208,0.109-0.555-0.074-0.857
		c-0.713,0.775-1.032,1.719-1.358,2.66C41.792,25.956,41.811,26.218,41.967,26.665z"/>
	<path fill="currentColor" d="M41.089,38.592c0.356,0,0.68,0,1.072,0c0.786,0.947,1.928,1.577,2.758,2.551
		c0.223,0.26,0.551,0.428,0.628,0.821c0.028,0.146,0.22,0.288,0.368,0.38c1.202,0.741,2.123,1.809,3.004,2.854
		c1.062,1.258,2.283,2.343,3.393,3.543c0.184,0.198,0.415,0.342,0.652,0.489c0.345,0.214,0.687,0.484,0.932,0.866
		c0.57,0.883,1.246,1.682,2.187,2.209c0.061,0.034,0.121,0.091,0.151,0.151c0.346,0.712,1.029,1.087,1.582,1.525
		c0,0.246,0,0.426,0,0.647c-0.428,0.657-1.058,0.907-1.852,0.794c-1.099-0.832-2.383-0.602-3.669-0.636
		c-0.392-0.491-1.015-0.821-1.262-1.484c-0.012-0.03-0.045-0.061-0.075-0.076c-1.36-0.665-2.048-2.051-3.181-2.959
		c-0.045-0.036-0.138-0.011-0.23-0.015c-0.298-0.638-0.582-1.301-1.339-1.575c-0.152-0.056-0.243-0.264-0.388-0.368
		c-0.439-0.316-0.575-0.873-0.985-1.214c-0.374-0.311-0.841-0.5-1.138-0.911c-0.2-0.277-0.47-0.479-0.636-0.813
		c-0.181-0.366-0.534-0.79-0.896-0.896c-0.76-0.219-1.074-0.764-1.329-1.385c-0.257-0.628-0.628-1.151-1.11-1.506
		c-0.221-0.607,0.064-1.104,0.194-1.581C40.076,39.439,40.592,39.039,41.089,38.592z"/>
	<path fill="currentColor" d="M17.419,16.667c0.255-0.241,0.515-0.487,0.795-0.753
		c0.596-0.047,1.167,0.117,1.736,0.409c0.217,0.111,0.502,0.198,0.752,0.275c0.562,0.174,1.201,0.295,1.598,0.826
		c0.885,0.263,1.602,0.834,2.394,1.268c0.511,0.279,0.661,0.646,0.713,1.12c0.043,0.39,0.009,0.789,0.009,0.962
		c-0.186,0.702-0.612,0.981-0.915,1.36c-0.317,0.397-0.842,0.506-1.139,0.904c-0.939,0-1.875,0-2.68,0
		c-0.949-0.344-1.408-1.063-1.856-1.756c-0.246-0.38-0.413-0.862-0.456-1.313c-0.085-0.896-0.564-1.647-0.815-2.479
		C17.472,17.21,17.471,16.951,17.419,16.667z"/>
	
</g>
</svg>
