<?xml version="1.0" encoding="iso-8859-1"?>
<!-- Generator: Adobe Illustrator 16.0.0, SVG Export Plug-In . SVG Version: 6.00 Build 0)  -->
<!DOCTYPE svg PUBLIC "-//W3C//DTD SVG 1.1//EN" "http://www.w3.org/Graphics/SVG/1.1/DTD/svg11.dtd">
<svg version="1.1" id="Layer_1" xmlns="http://www.w3.org/2000/svg" xmlns:xlink="http://www.w3.org/1999/xlink" x="0px" y="0px"
	 width="72.36px" height="72.18px" viewBox="0 0 72.36 72.18" style="enable-background:new 0 0 72.36 72.18;" xml:space="preserve"
	>
<g>
	<path style="fill-rule:evenodd;clip-rule:evenodd;fill:none;" d="M79.416,79.631c-28.8,0-57.6,0-86.399,0
		c0-28.871,0-57.743,0-86.615c28.8,0,57.6,0,86.399,0C79.416,21.888,79.416,50.76,79.416,79.631z M56.72,49.275
		c0.134-0.676-0.199-1.255-0.43-1.898c0.495-0.442,0.078-1.062,0.281-1.582c0.226-0.412,0.535-0.803,0.306-1.371
		c-0.104-0.091-0.239-0.208-0.353-0.307c-0.134-0.983,0.542-1.932-0.003-2.882c-0.016-0.026-0.018-0.086,0-0.104
		c0.35-0.354,0.196-0.8,0.208-1.208c0.012-0.405,0.158-0.729,0.438-1.011c0.083-0.084,0.171-0.114,0.31-0.101
		c0.187,0.175,0.39,0.365,0.555,0.521c0,1.081-0.013,2.089,0.006,3.097c0.009,0.459-0.016,0.895-0.273,1.293
		c-0.228,0.352-0.18,0.649,0.019,1.047c0.172,0.344,0.506,0.656,0.457,1.189c-0.402,0.571-0.219,1.231,0.022,1.819
		c-0.125,0.641-0.622,0.965-0.916,1.385c0.313,0.634,1.016,0.443,1.418,0.825c0.158,0.151,0.469,0.073,0.675,0.026
		c0.117-0.197,0.269-0.359,0.309-0.545c0.051-0.241,0.013-0.502,0.013-0.754c0-1.044,0.028-2.089-0.018-3.131
		c-0.015-0.318,0.185-0.51,0.236-0.771c-0.142-0.204-0.23-0.408-0.226-0.67c0.017-0.972-0.017-1.944,0.019-2.915
		c0.014-0.367-0.12-0.669-0.241-0.93c0.389-0.568,0.289-1.144,0.129-1.661c-0.076-0.243-0.191-0.537-0.096-0.692
		c0.33-0.537,0.183-1.103,0.188-1.651c0.021-2.231-0.009-4.464,0.018-6.695c0.01-0.763-0.184-1.553,0.201-2.29
		c0.044-0.085,0.045-0.235-0.001-0.317c-0.309-0.558-0.198-1.162-0.206-1.75c-0.007-0.485-0.17-0.884-0.604-1.118
		c-0.744-0.403-1.068-1.11-1.332-1.842c-0.131-0.361-0.224-0.806-0.556-0.933c-0.349-0.133-0.469-0.333-0.591-0.626
		c-0.377-0.904-1.093-1.572-1.684-2.324c-0.445-0.568-1.136-0.945-1.301-1.733c-0.024-0.118-0.179-0.27-0.298-0.296
		c-0.481-0.107-0.756-0.551-1.229-0.693c-0.345-0.104-0.635-0.393-0.945-0.594c-0.469-0.302-0.651-0.856-1.135-1.114
		c-0.454-0.243-0.834-0.615-1.268-0.857c-1.076-0.603-2.08-1.455-3.384-1.317c-0.471-0.307-0.923-0.585-1.354-0.801
		c-0.531-0.266-0.978-0.714-1.604-0.817c-0.459-0.075-0.894-0.277-1.287-0.533c-0.278-0.181-0.568-0.208-0.886-0.217
		c-0.587-0.017-1.189,0.126-1.75-0.203c-0.259-0.152-0.409,0.234-0.665,0.209c-0.275-0.313-0.703-0.319-0.977-0.192
		c-0.655,0.304-1.318,0.13-1.973,0.195c-0.236,0.023-0.466,0.043-0.707,0.104c-0.703,0.179-1.443,0.262-2.146-0.111
		c-0.676,0.355-1.36,0.684-2.113,0.887c-0.475,0.128-1.096,0.197-1.292,0.739c-0.15,0.416-0.468,0.433-0.754,0.523
		c-0.223,0.07-0.485,0.014-0.73,0.014c-1.52,0.836-3.03,1.643-4.451,2.597c-1.55,1.042-2.683,2.536-4.02,3.751
		c-0.01,0.189,0.038,0.408-0.035,0.461c-0.632,0.459-0.785,1.182-1.049,1.841c-0.086,0.215-0.178,0.432-0.248,0.656
		c-0.16,0.516-0.439,1.012-1.001,1.132c-0.249,0.703-0.744,1.261-0.769,2.015c-0.004,0.127-0.093,0.468-0.341,0.608
		c-0.105,0.06-0.236,0.147-0.241,0.327c-0.028,1.056-0.659,1.883-1.08,2.813c-0.026,0.157,0.139,0.213,0.219,0.326
		c0,0.356-0.14,0.815,0.029,1.055c0.344,0.487,0.273,1.036,0.141,1.428c-0.179,0.531-0.093,1.037-0.178,1.544
		c-0.115,0.684,0.247,1.303,0.219,1.963c-0.048,1.123,0.062,2.24-0.169,3.375c-0.161,0.792-0.079,1.654,0.137,2.503
		c0.181,0.71,0.069,1.504,0.028,2.258c-0.039,0.728,0.188,1.479-0.196,2.185c-0.075,0.139-0.086,0.441,0.003,0.519
		c0.346,0.301,0.192,0.673,0.194,1.006c0.015,2.266,0.008,4.532,0.008,6.635c0.414,1.172,1.22,1.423,2.208,1.339
		c0.617-0.053,1.196-0.367,1.84-0.193c0.295-0.324,0.561-0.615,0.815-0.895c0.524,0.123,0.696-0.302,0.947-0.53
		c0.133-0.474-0.031-0.923-0.325-1.155c-0.211-0.167-0.432-0.252-0.524-0.543c-0.081-0.256-0.324-0.426-0.466-0.664
		c-0.19-0.32-0.236-0.622-0.14-0.894c0.313-0.879,0.581-1.771,1.182-2.542c0.357-0.458,0.523-1.086,0.518-1.723
		c-0.016-1.764-0.018-3.527,0-5.291c0.007-0.69-0.25-1.224-0.845-1.542c-0.294-0.157-0.481-0.379-0.673-0.59
		c0.01-0.344-0.091-0.692,0.325-0.903c0.29-0.09,0.61-0.06,0.927,0.169c0.639-0.806-0.008-1.494-0.172-2.22
		c0.078-0.143,0.273-0.232,0.217-0.446c-0.069-0.267,0.156-0.373,0.224-0.449c0.474-0.275,0.801-0.005,1.11,0.13
		c0.192-0.099,0.271-0.319,0.518-0.23c0.082,0.088,0.179,0.194,0.309,0.334c0,0.494,0.067,1.042-0.02,1.563
		c-0.081,0.486-0.555,0.877-0.352,1.564c0.068,0.053,0.237,0.184,0.321,0.249c0.15,0.468-0.022,0.776-0.185,1.058
		c0.642,1.107,0.642,1.107,0.664,1.814c-0.178,0.179-0.356,0.356-0.535,0.535c-0.144,0-0.288,0-0.434,0
		c-0.176,0.179-0.353,0.357-0.559,0.566c0.205,0.514-0.233,0.948-0.219,1.496c0.055,2.085,0.022,4.173,0.022,6.26
		c0.459,0.42,0.822,0.984,1.632,0.967c0.142-0.168,0.322-0.382,0.524-0.621c-0.064-0.834,0.334-1.602,0.662-2.375
		c0.398-0.936,0.698-2.941,0.638-3.623c-0.006-0.069,0.012-0.168-0.026-0.202c-0.367-0.326-0.095-0.734-0.146-1.064
		c0.072-0.479,0.454-0.669,0.711-0.979c0.368,0.43,0.328,0.886,0.327,1.339c-0.005,1.512,0.012,3.023-0.01,4.535
		c-0.006,0.466,0.081,0.881,0.386,1.333c0.813-0.317,1.437-0.889,2.017-1.497c-0.135-0.521,0.186-0.908,0.228-1.362
		c0.056-0.599,0.689-0.982,0.834-1.587c-0.295-0.91-0.273-1.634-0.021-2.853c0.115-0.557,0.016-1.1-0.423-1.541
		c-0.241-0.243-0.579-0.423-0.677-0.863c0.309-0.289,0.626-0.578,0.935-0.876c0.26-0.25,0.572-0.473,0.747-0.773
		c0.161-0.277,0.377-0.563,0.315-0.953c-0.047-0.298-0.201-0.425-0.401-0.499c-0.682,0.16-1.039,0.717-1.482,1.091
		c-0.267-0.025-0.34-0.216-0.524-0.347c0.118-0.232,0.009-0.482,0.115-0.781c0.257-0.723,0.788-1.403,0.49-2.302
		c-0.75-0.75-0.75-0.75-0.738-1.32c0.601,0,1.202,0,1.885,0c0.472,0.946,0.027,2.011,0.284,3.008
		c0.444-0.008,0.705-0.437,1.178-0.447c0.259-0.042,0.38,0.351,0.682,0.32c0.101,0.431-0.268,0.765-0.217,1.205
		c0.09,0.778-0.242,1.458-0.634,2.11c0.005,0.513-0.089,1.049,0.281,1.512c0.418,0.251,0.878,0.34,1.224,0.26
		c0.297-0.236,0.492-0.392,0.638-0.507c0-1.51,0-2.946,0-4.089c-0.194-0.861-0.748-0.42-1.138-0.738
		c0.382-1.114,1.055-2.043,1.905-2.867c0.574,0.477,0.746,1.066,0.754,1.699c0.019,1.36,0.006,2.72,0.006,4.035
		c0.194,0.146,0.266,0.352,0.502,0.306c0.404-0.184,0.387-0.726,0.766-0.941c-0.08-0.367,0.338-0.639,0.228-0.974
		c-0.097-0.294-0.269-0.571-0.194-0.886c0.09-0.378-0.136-0.678-0.245-0.984c-0.156-0.439-0.235-0.858-0.179-1.242
		c0.665-0.836,1.389-1.567,1.892-2.427c0.504-0.863,1.137-1.256,2.02-1.193c0.562-0.29,0.678-0.822,0.924-1.292
		c0.362,0.076,0.771-0.155,1.101,0.212c0.064,0.072,0.314,0.068,0.413,0.001c0.408-0.273,1.043-0.241,1.202-0.887
		c0.015-0.514-0.595-0.724-0.677-1.22c0-0.426,0-0.852,0-1.27c-0.323-0.311-0.656-0.545-1.136-0.5
		c-0.21,0.2-0.497,0.357-0.624,0.835c0.201,0.343,0.645,0.685,0.705,1.215c-0.179,0.175-0.358,0.351-0.544,0.533
		c-0.479,0.04-0.959,0.012-1.37-0.248c-0.389,0.221-0.645,0.483-0.745,0.864c-1.932,0.698-3.123,2.254-4.477,3.696
		c-0.086-0.018-0.282,0.095-0.422-0.088c0-0.14,0-0.283,0-0.43c0.576-0.59,0.842-1.15,1.312-2.149
		c0.299-0.636,0.539-1.411,1.513-1.442c0.432-0.014,0.481-0.544,0.603-0.866c0.085-0.226,0.112-0.558-0.06-0.841
		c-0.106,0-0.211,0.003-0.316,0c-0.679-0.025-1.195,0.189-1.463,0.877c-0.102,0.262-0.14,0.62-0.572,0.652
		c-0.14,0.01-0.32,0.191-0.386,0.336c-0.18,0.395-0.455,0.712-0.781,0.966c-0.374,0.292-0.489,0.759-0.827,1.071
		c-0.191,0.177-0.174,0.528-0.479,0.633c-0.391-0.138-0.761-0.31-1.023-0.644c-0.748-0.1-1.431,0.296-2.184,0.228
		c-0.784-0.071-1.58-0.016-2.347-0.016c-0.198-0.191-0.378-0.366-0.55-0.532c-0.011-1.052-0.863-1.43-1.523-1.958
		c-0.22-0.175-0.438-0.186-0.661,0.044c0.021,0.4,0.724,0.564,0.365,1.155c-0.304-0.276-0.349,0.395-0.747,0.153
		c-0.278-0.551-0.859-0.998-0.907-1.724c0.938-1.007,0.938-1.007,0.777-2.098c-0.204,0.006-0.4-0.048-0.591,0.13
		c-0.395,0.371-0.605,0.818-0.642,1.263c-0.389,0.354-0.93,0.208-1.254,0.66c-0.04,0.389,0.014,0.829-0.191,1.266
		c-0.108,0.231-0.182,0.467-0.404,0.55c-0.308,0.115-0.532-0.087-0.7-0.326c-0.144-1.07,0.761-1.508,1.299-2.178
		c0-0.206,0-0.419,0-0.533c0.688-1.104,1.647-1.979,1.52-3.208c0.31-0.354,0.543-0.623,0.747-0.856
		c0.283-0.065,0.551,0.092,0.79-0.158c0.213-0.183,0.334-0.493,0.374-0.771c0.076-0.539,0.466-0.875,0.842-1.002
		c1.371-0.465,2.509-1.237,3.486-2.281c0.164-0.175,0.326-0.306,0.61-0.36c0.822-0.157,1.667-0.316,2.424-0.652
		c0.9-0.399,1.797-0.44,2.709-0.347c0.398,0.044,0.603,0.345,0.854,0.586c0.357,0,0.717,0,1.051,0
		c0.653-0.458,1.329-0.714,2.134-0.661c0.473,0.031,0.972,0.129,1.433-0.185c0.135-0.092,0.422-0.027,0.613,0.04
		c0.687,0.241,1.371,0.455,2.093,0.367c0.477,0.429,1.053,0.803,1.607,0.826c0.719,0.03,1.327,0.306,1.977,0.487
		c1.367,0.382,1.627,0.538,2.191,1.218c0.172,0.207,0.296,0.455,0.476,0.737c0.561-0.175,1.016,0.341,1.512,0.211
		c0.402,0.255,0.601,0.592,0.755,0.936c0.244,0.543,0.702,0.924,1.001,1.42c0.772,0.206,0.867,0.992,1.334,1.489
		c0.323,0.195,0.697,0.364,1.148,0.178c0.073-0.575-0.315-1.02-0.376-1.308c0.213-0.365,0.356-0.613,0.456-0.784
		c0.302,0,0.482,0,0.682,0c0.345,0.32,0.639,0.728,1.199,0.869c-0.115,0.623,0.357,1.002,0.532,1.506
		c0.272,0.789,0.829,1.488,0.753,2.386c-0.006,0.063-0.053,0.122-0.08,0.183c-0.191-0.008-0.337,0.076-0.425,0.201
		c-0.526-0.107-0.699-0.578-1.017-0.913c-0.361-0.382-0.488-0.946-0.989-1.2c-0.208,0-0.421,0-0.592,0
		c-0.211,0.195-0.396,0.365-0.562,0.518c0,0.459,0,0.89,0,1.321c0.171,0.5,0.663,0.783,0.858,1.494c0,0.208,0.165,0.76-0.04,1.039
		c-0.278,0.377-0.073,0.799-0.352,1.176c-0.205,0.279-0.04,0.831-0.04,1.25c-0.259,0.221-0.288,0.545-0.431,0.782
		c0.228,0.435,0.444,0.849,0.678,1.295c-0.485,0.544-0.136,1.214-0.294,1.794c-0.022,0.526-0.541,0.559-0.817,0.883
		c0,0.546,0.025,1.121-0.01,1.691c-0.02,0.304,0.062,0.555,0.23,0.771c0.379,0.484,0.624,1.039,0.81,1.608
		c0.097,0.295,0.293,0.464,0.481,0.679c0,0.746,0.13,1.531-0.038,2.246c-0.149,0.632-0.227,1.166,0.013,1.784
		c0.093,0.238,0.064,0.58-0.111,0.909c-0.162,0.302-0.245,0.678-0.405,0.978c-0.647,0.223-0.746-0.599-1.289-0.642
		c-0.151,0.261-0.145,0.461,0.047,0.737c0.281,0.408,0.589,0.858,0.678,1.33c0.251,1.333,1.286,1.876,2.224,2.562
		C56.226,49.788,56.475,49.529,56.72,49.275z M48.299,61.929c0.326-0.613,0.541-1.126,1.236-1.161
		c0.133-0.007,0.442-0.116,0.608-0.341c0.432-0.585,1.056-0.756,1.662-0.67c0.634-0.37,1.238-0.63,1.722-1.034
		c0.501-0.417,0.762-1.075,1.169-1.369c0.265-0.933-0.042-1.673-0.179-2.568c-0.142-0.116-0.39-0.319-0.618-0.507
		c0.144-0.773-0.08-1.445-0.322-2.077c-0.237-0.619-0.424-1.288-0.772-1.833c-0.386-0.603-0.638-1.255-0.953-1.881
		c-0.361-0.717-0.77-1.426-0.751-2.287c0.006-0.237-0.154-0.555-0.343-0.701c-0.249-0.195-0.364-0.479-0.416-0.699
		c-0.118-0.503-0.539-0.692-0.868-0.772c-0.455-0.111-0.896-0.378-1.416-0.262c-0.585,0.13-1.097-0.208-1.537-0.342
		c-0.607,0.15-1.091,0.426-1.667,0.354c-0.724-0.09-1.485,0.19-2.178-0.219c-0.876,0.26-1.738-0.504-2.641-0.022
		c-0.188,0.101-0.529,0.085-0.812-0.082c-0.414-0.246-0.96-0.215-1.339-0.069c-0.387,0.147-0.745,0.189-1.114,0.163
		c-0.948-0.066-1.662,0.347-2.295,0.991c-0.618,0.629-1.185,1.342-1.979,1.742c-0.835,0.421-1.483,1.038-2.098,1.701
		c-0.579,0.626-1.382,0.991-1.896,1.679c-0.125,0.167-0.311,0.128-0.452,0.223c-0.286,0.191-0.607,0.321-0.831,0.608
		c-0.176,0.226-0.368,0.482-0.612,0.602c-0.559,0.271-0.887,0.702-1.228,1.205c-0.326,0.48-0.806,0.867-1.12,1.379
		c-1.238,0.543-2,1.643-2.949,2.522c-0.331,0.307-0.686,0.604-0.836,1.233c0,0.565,0,1.312,0,2.03
		c0.329,0.332,0.675,0.535,1.156,0.509c0.358,0.333,0.674,0.772,1.229,0.865c0.117,0.021,0.131,0.146,0.189,0.197
		c0.627,0.55,1.261,1.102,2.171,1.101c0.094,0,1.11,0.416,1.209,0.47c0.773,0.421,1.5,0.966,2.467,0.831
		c0.273-0.039,0.543,0.143,0.778,0.172c0.616,0.078,1.202,0.389,1.851,0.263c0.23-0.044,0.449,0.066,0.685,0.158
		c0.749,0.294,1.287,0.27,2.029-0.047c0.425-0.182,0.887-0.219,1.228-0.074c0.865,0.367,1.748,0.349,2.647,0.402
		c0.891,0.054,1.738-0.191,2.611-0.232c0.366-0.373,0.905-0.061,1.279-0.296c0.861-0.541,1.804-0.622,2.834-0.559
		c0.422-0.422,0.851-0.852,1.305-1.306c0.347,0,0.813-0.132,1.121,0.032C47.684,62.176,47.93,61.767,48.299,61.929z M52.711,29.293
		c0.546,0.13,1.015-0.126,1.451-0.542c-0.082-0.219,0.066-0.475-0.088-0.705c-0.192-0.265-0.52-0.309-0.775-0.475
		c-0.211,0.099-0.422,0.196-0.568,0.265c-0.339,0.379-0.193,0.918-0.65,1.247c-0.198,0.095-0.52-0.14-0.832,0.207
		c-0.124,0.235-0.304,0.577-0.461,0.875c-0.309,0.008-0.363-0.208-0.515-0.303c-0.013-0.237-0.026-0.479-0.033-0.605
		c-0.518-0.543-0.961-1.01-1.387-1.458c-0.602,0-1.175,0-1.769,0c-0.048,0.171-0.297,0.198-0.289,0.382
		c-0.013,0.214,0.13,0.325,0.235,0.367c0.654,0.257,1.198,0.618,1.505,1.288c0.064,0.141,0.244,0.254,0.396,0.325
		c0.397,0.185,0.69,0.484,0.88,0.854c0.152,0.296,0.379,0.481,0.56,0.638c0.349,0,0.63,0,0.907,0
		c0.428-0.597,1.196-0.777,1.647-1.562C53.128,29.885,52.477,29.721,52.711,29.293z M29.779,42.712
		c0.312,0.479,0.525,0.808,0.679,1.046c0.354,0.046,0.51-0.067,0.697-0.18c0.189-0.114,0.483,0.059,0.705-0.087
		c0.627-1.075,0.608-1.375-0.131-2.151c-0.213-0.224-0.371-0.509-0.561-0.722c-0.28-0.313-0.317-0.878-0.875-0.974
		c-0.244,0.271-0.482,0.536-0.748,0.831C29.288,41.299,29.903,42.12,29.779,42.712z M33.726,42.698
		c0.641-0.263,0.641-0.263,0.946-0.716c0-1.211,0-2.388,0-3.511c-0.189-0.281-0.411-0.354-0.694-0.308
		c-0.254,0.137-0.381,0.498-0.761,0.47c-0.181,0.904-0.902,1.773-0.03,2.673c0.036,0.037,0.007,0.14,0.004,0.212
		C33.171,42.003,33.42,42.363,33.726,42.698z M39.57,18.077c-0.571-0.087-1.017,0.144-1.394,0.515c-0.078,0.925,0,1.821,0.305,2.752
		c0.747,0.238,1.281,1.024,2.201,1.058c0.19-0.58,0.033-1.054-0.241-1.509c-0.667-0.037-0.667-0.037-1.06-0.617
		c0.422-0.435,0.477-1.086,0.747-1.639C39.946,18.453,39.792,18.3,39.57,18.077z M51.004,33.199
		c-0.133,0.133-0.272,0.208-0.274,0.285c-0.016,0.812-0.01,1.625-0.01,2.44c0.243,0.19,0.199,0.596,0.578,0.734
		c0.45,0.117,0.62-0.317,0.886-0.543c0.108-0.696-0.175-1.418,0.234-2.073c-0.102-0.204-0.205-0.41-0.313-0.623
		c-0.193,0.026-0.299-0.147-0.445-0.203C51.474,33.146,51.241,33.199,51.004,33.199z M51.985,42.589
		c-0.177-0.178-0.354-0.354-0.518-0.519c-0.248,0.248-0.496,0.496-0.769,0.769c-0.127,0.39,0.13,0.737,0.271,1.109
		c0.559,0.188,0.884,0.61,1.119,1.12c0.29-0.149,0.361,0.373,0.656,0.215c0.348-0.405-0.065-0.707-0.185-1.013
		C52.344,43.716,51.877,43.254,51.985,42.589z M46.783,26.578c-0.912-0.458-1.768-0.479-2.568,0.206
		c0.349,0.576,0.986,0.688,1.556,1.071c0.165-0.483,0.786-0.09,1.013-0.607C46.783,27.047,46.783,26.808,46.783,26.578z
		 M50.72,38.808c-0.019,0.34-0.13,0.632,0.081,0.859c0.229,0.247,0.003,0.549,0.188,0.748c0.146,0.188,0.294,0.377,0.477,0.611
		c0.134-0.327,0.476-0.403,0.539-0.799c-0.451-0.332-0.644-0.861-0.738-1.42C51.085,38.808,50.943,38.808,50.72,38.808z
		 M47.011,21.655c-0.278-0.362-0.539-0.449-0.812-0.273c-0.355,0.229-0.287,0.595-0.116,0.839c0.124,0.208,0.248,0.416,0.399,0.671
		c0.096-0.369,0.439-0.185,0.528-0.399C47.011,22.196,47.011,21.911,47.011,21.655z M51.337,23c0.028-0.542-0.194-0.907-0.518-1.237
		c-0.162,0-0.329,0-0.529,0c0,0.353,0,0.686,0,0.975C50.573,23.118,50.917,23.06,51.337,23z M25.593,21.96
		c0.42-0.42,0.734-0.733,1.047-1.046c-0.062-0.059-0.16-0.153-0.205-0.196c-0.519,0.1-0.771,0.57-1.236,0.704
		c0.037,0.165-0.071,0.351,0.092,0.524C25.407,21.952,25.543,21.958,25.593,21.96z M30.171,44.731
		c0.289,0.45,0.661,0.37,1.036,0.289c0.039-0.213,0.119-0.415-0.057-0.59C30.594,44.443,30.594,44.443,30.171,44.731z M24.446,48.26
		c-0.471,0.177-0.648,0.435-0.493,0.875c0.218,0.035,0.422,0.122,0.596-0.062C24.532,48.834,24.61,48.588,24.446,48.26z
		 M53.712,41.291c-0.225-0.093-0.162-0.393-0.349-0.521c-0.378,0.524-0.41,0.734-0.107,0.859
		C53.471,41.635,53.556,41.411,53.712,41.291z M37.188,21.976c0.14-0.196,0.202-0.333-0.032-0.423
		C37.039,21.68,37.046,21.799,37.188,21.976z"/>
	<path fill="currentColor" d="M56.72,49.275c-0.245,0.254-0.494,0.513-0.812,0.842
		c-0.938-0.686-1.973-1.229-2.224-2.562c-0.089-0.472-0.396-0.922-0.678-1.33c-0.191-0.276-0.198-0.477-0.047-0.737
		c0.543,0.043,0.642,0.864,1.289,0.642c0.16-0.3,0.243-0.676,0.405-0.978c0.176-0.329,0.204-0.671,0.111-0.909
		c-0.239-0.618-0.162-1.152-0.013-1.784c0.168-0.715,0.038-1.5,0.038-2.246c-0.188-0.215-0.385-0.384-0.481-0.679
		c-0.186-0.569-0.431-1.124-0.81-1.608c-0.169-0.217-0.25-0.468-0.23-0.771c0.035-0.57,0.01-1.145,0.01-1.691
		c0.276-0.325,0.795-0.357,0.817-0.883c0.158-0.58-0.191-1.25,0.294-1.794c-0.233-0.446-0.45-0.86-0.678-1.295
		c0.143-0.237,0.172-0.561,0.431-0.782c0-0.419-0.165-0.972,0.04-1.25c0.278-0.377,0.073-0.799,0.352-1.176
		c0.205-0.279,0.04-0.831,0.04-1.039c-0.195-0.71-0.688-0.994-0.858-1.494c0-0.431,0-0.861,0-1.321
		c0.166-0.153,0.351-0.323,0.562-0.518c0.171,0,0.384,0,0.592,0c0.501,0.253,0.628,0.818,0.989,1.2
		c0.317,0.334,0.49,0.805,1.017,0.913c0.088-0.125,0.233-0.208,0.425-0.201c0.027-0.061,0.074-0.12,0.08-0.183
		c0.076-0.898-0.48-1.597-0.753-2.386c-0.175-0.504-0.647-0.884-0.532-1.506c-0.561-0.141-0.854-0.549-1.199-0.869
		c-0.199,0-0.38,0-0.682,0c-0.1,0.171-0.243,0.419-0.456,0.784c0.061,0.288,0.449,0.733,0.376,1.308
		c-0.451,0.186-0.825,0.017-1.148-0.178c-0.467-0.498-0.562-1.283-1.334-1.489c-0.299-0.497-0.757-0.877-1.001-1.42
		c-0.154-0.343-0.353-0.68-0.755-0.936c-0.496,0.13-0.951-0.386-1.512-0.211c-0.18-0.282-0.304-0.53-0.476-0.737
		c-0.564-0.68-0.824-0.836-2.191-1.218c-0.649-0.181-1.258-0.457-1.977-0.487c-0.555-0.022-1.131-0.397-1.607-0.826
		c-0.722,0.088-1.406-0.126-2.093-0.367c-0.191-0.067-0.479-0.132-0.613-0.04c-0.461,0.314-0.96,0.216-1.433,0.185
		c-0.805-0.054-1.481,0.203-2.134,0.661c-0.334,0-0.694,0-1.051,0c-0.251-0.242-0.455-0.542-0.854-0.586
		c-0.912-0.093-1.809-0.052-2.709,0.347c-0.757,0.336-1.603,0.495-2.424,0.652c-0.284,0.054-0.446,0.185-0.61,0.36
		c-0.977,1.044-2.115,1.816-3.486,2.281c-0.376,0.127-0.766,0.463-0.842,1.002c-0.04,0.278-0.161,0.588-0.374,0.771
		c-0.239,0.25-0.506,0.093-0.79,0.158c-0.203,0.233-0.437,0.501-0.747,0.856c0.127,1.229-0.832,2.104-1.52,3.208
		c0,0.114,0,0.328,0,0.533c-0.538,0.67-1.442,1.108-1.299,2.178c0.168,0.239,0.392,0.44,0.7,0.326
		c0.222-0.083,0.296-0.319,0.404-0.55c0.205-0.438,0.152-0.877,0.191-1.266c0.324-0.452,0.865-0.305,1.254-0.66
		c0.037-0.445,0.247-0.892,0.642-1.263c0.19-0.178,0.387-0.124,0.591-0.129c0.161,1.091,0.161,1.091-0.777,2.098
		c0.047,0.726,0.629,1.173,0.907,1.724c0.397,0.242,0.443-0.429,0.747-0.153c0.359-0.591-0.344-0.755-0.365-1.155
		c0.223-0.23,0.441-0.22,0.661-0.044c0.66,0.527,1.512,0.906,1.523,1.958c0.171,0.166,0.352,0.341,0.55,0.532
		c0.767,0,1.563-0.055,2.347,0.016c0.753,0.068,1.436-0.328,2.184-0.228c0.262,0.334,0.632,0.506,1.023,0.644
		c0.304-0.105,0.287-0.457,0.479-0.633c0.338-0.312,0.453-0.78,0.827-1.071c0.327-0.254,0.601-0.571,0.781-0.966
		c0.066-0.146,0.247-0.326,0.386-0.336c0.433-0.032,0.47-0.39,0.572-0.652c0.268-0.688,0.784-0.903,1.463-0.877
		c0.104,0.004,0.209,0,0.316,0c0.172,0.284,0.146,0.615,0.06,0.841c-0.122,0.322-0.171,0.853-0.603,0.866
		c-0.974,0.031-1.214,0.806-1.513,1.442c-0.47,1-0.736,1.559-1.312,2.149c0,0.147,0,0.29,0,0.43c0.14,0.183,0.336,0.071,0.422,0.088
		c1.354-1.442,2.545-2.998,4.477-3.696c0.101-0.381,0.356-0.643,0.745-0.864c0.411,0.26,0.891,0.288,1.37,0.248
		c0.186-0.182,0.365-0.358,0.544-0.533c-0.061-0.53-0.504-0.872-0.705-1.215c0.127-0.479,0.414-0.635,0.624-0.835
		c0.479-0.045,0.813,0.188,1.136,0.5c0,0.417,0,0.844,0,1.27c0.082,0.496,0.691,0.706,0.677,1.22
		c-0.159,0.646-0.794,0.613-1.202,0.887c-0.099,0.066-0.349,0.07-0.413-0.001c-0.33-0.367-0.738-0.136-1.101-0.212
		c-0.246,0.471-0.362,1.002-0.924,1.292c-0.883-0.063-1.516,0.331-2.02,1.193c-0.503,0.86-1.227,1.591-1.892,2.427
		c-0.056,0.384,0.023,0.802,0.179,1.242c0.109,0.306,0.335,0.606,0.245,0.984c-0.075,0.315,0.097,0.591,0.194,0.886
		c0.11,0.335-0.308,0.607-0.228,0.974c-0.379,0.215-0.362,0.758-0.766,0.941c-0.236,0.046-0.308-0.159-0.502-0.306
		c0-1.315,0.013-2.675-0.006-4.035c-0.009-0.633-0.18-1.222-0.754-1.699c-0.85,0.824-1.523,1.753-1.905,2.867
		c0.39,0.318,0.944-0.123,1.138,0.738c0,1.143,0,2.579,0,4.089c-0.146,0.115-0.34,0.271-0.638,0.507
		c-0.346,0.08-0.806-0.009-1.224-0.26c-0.37-0.463-0.276-0.999-0.281-1.512c0.392-0.652,0.724-1.332,0.634-2.11
		c-0.051-0.44,0.317-0.774,0.217-1.205c-0.301,0.031-0.423-0.362-0.682-0.32c-0.473,0.01-0.734,0.439-1.178,0.447
		c-0.257-0.997,0.188-2.062-0.284-3.008c-0.683,0-1.284,0-1.885,0c-0.012,0.57-0.012,0.57,0.738,1.32
		c0.297,0.898-0.233,1.579-0.49,2.302c-0.106,0.299,0.002,0.549-0.115,0.781c0.184,0.131,0.257,0.322,0.524,0.347
		c0.443-0.374,0.8-0.931,1.482-1.091c0.201,0.074,0.354,0.201,0.401,0.499c0.062,0.39-0.155,0.676-0.315,0.953
		c-0.174,0.301-0.487,0.523-0.747,0.773c-0.309,0.298-0.626,0.587-0.935,0.876c0.098,0.44,0.436,0.62,0.677,0.863
		c0.438,0.441,0.538,0.984,0.423,1.541c-0.252,1.219-0.274,1.942,0.021,2.853c-0.145,0.604-0.778,0.988-0.834,1.587
		c-0.042,0.454-0.363,0.842-0.228,1.362c-0.58,0.608-1.204,1.18-2.017,1.497c-0.305-0.452-0.393-0.867-0.386-1.333
		c0.022-1.512,0.005-3.023,0.01-4.535c0.001-0.453,0.041-0.909-0.327-1.339c-0.257,0.31-0.639,0.499-0.711,0.979
		c0.05,0.33-0.221,0.738,0.146,1.064c0.038,0.034,0.02,0.133,0.026,0.202c0.061,0.682-0.24,2.688-0.638,3.623
		c-0.328,0.773-0.726,1.541-0.662,2.375c-0.202,0.239-0.382,0.453-0.524,0.621c-0.81,0.018-1.173-0.547-1.632-0.967
		c0-2.087,0.033-4.175-0.022-6.26c-0.015-0.548,0.423-0.982,0.219-1.496c0.206-0.209,0.383-0.388,0.559-0.566
		c0.146,0,0.291,0,0.434,0c0.178-0.179,0.356-0.356,0.535-0.535c-0.021-0.707-0.021-0.707-0.664-1.814
		c0.163-0.281,0.335-0.59,0.185-1.058c-0.084-0.065-0.253-0.196-0.321-0.249c-0.203-0.687,0.271-1.078,0.352-1.564
		c0.087-0.522,0.02-1.07,0.02-1.563c-0.129-0.14-0.227-0.246-0.309-0.334c-0.247-0.089-0.325,0.131-0.518,0.23
		c-0.309-0.135-0.636-0.405-1.11-0.13c-0.068,0.077-0.293,0.183-0.224,0.449c0.056,0.213-0.139,0.303-0.217,0.446
		c0.165,0.727,0.811,1.415,0.172,2.22c-0.317-0.229-0.637-0.259-0.927-0.169c-0.417,0.211-0.315,0.56-0.325,0.903
		c0.192,0.211,0.379,0.433,0.673,0.59c0.595,0.318,0.853,0.852,0.845,1.542c-0.018,1.764-0.016,3.527,0,5.291
		c0.005,0.637-0.161,1.265-0.518,1.723c-0.601,0.771-0.869,1.663-1.182,2.542c-0.096,0.271-0.05,0.573,0.14,0.894
		c0.142,0.238,0.385,0.408,0.466,0.664c0.092,0.291,0.313,0.376,0.524,0.543c0.294,0.232,0.458,0.682,0.325,1.155
		c-0.25,0.229-0.422,0.653-0.947,0.53c-0.254,0.279-0.52,0.57-0.815,0.895c-0.644-0.174-1.223,0.141-1.84,0.193
		c-0.987,0.084-1.793-0.167-2.208-1.339c0-2.103,0.007-4.369-0.008-6.635c-0.002-0.333,0.151-0.705-0.194-1.006
		c-0.089-0.077-0.078-0.38-0.003-0.519c0.385-0.705,0.157-1.457,0.196-2.185c0.041-0.754,0.153-1.548-0.028-2.258
		c-0.216-0.849-0.298-1.711-0.137-2.503c0.231-1.135,0.121-2.252,0.169-3.375c0.028-0.661-0.334-1.28-0.219-1.963
		c0.085-0.507,0-1.014,0.178-1.544c0.132-0.392,0.203-0.94-0.141-1.428c-0.169-0.24-0.029-0.699-0.029-1.055
		c-0.081-0.113-0.246-0.168-0.219-0.326c0.42-0.93,1.051-1.757,1.08-2.813c0.005-0.18,0.135-0.268,0.241-0.327
		c0.249-0.14,0.337-0.48,0.341-0.608c0.025-0.754,0.52-1.312,0.769-2.015c0.562-0.12,0.841-0.616,1.001-1.132
		c0.07-0.225,0.162-0.441,0.248-0.656c0.265-0.659,0.417-1.381,1.049-1.841c0.072-0.053,0.024-0.271,0.035-0.461
		c1.337-1.216,2.47-2.71,4.02-3.751c1.421-0.955,2.931-1.761,4.451-2.597c0.245,0,0.508,0.056,0.73-0.014
		c0.286-0.09,0.604-0.108,0.754-0.523c0.196-0.542,0.817-0.611,1.292-0.739c0.753-0.203,1.438-0.532,2.113-0.887
		c0.702,0.374,1.443,0.291,2.146,0.111c0.241-0.061,0.471-0.082,0.707-0.104c0.655-0.064,1.318,0.109,1.973-0.195
		c0.274-0.127,0.702-0.121,0.977,0.192c0.256,0.024,0.406-0.362,0.665-0.209c0.561,0.329,1.163,0.186,1.75,0.203
		c0.317,0.009,0.607,0.036,0.886,0.217c0.394,0.256,0.828,0.458,1.287,0.533c0.627,0.103,1.073,0.551,1.604,0.817
		c0.432,0.216,0.884,0.495,1.354,0.801c1.304-0.138,2.308,0.714,3.384,1.317c0.434,0.243,0.813,0.615,1.268,0.857
		c0.483,0.258,0.666,0.813,1.135,1.114c0.311,0.201,0.601,0.49,0.945,0.594c0.473,0.142,0.747,0.586,1.229,0.693
		c0.119,0.026,0.273,0.178,0.298,0.296c0.165,0.789,0.855,1.166,1.301,1.733c0.591,0.752,1.307,1.419,1.684,2.324
		c0.122,0.293,0.242,0.493,0.591,0.626c0.332,0.127,0.425,0.572,0.556,0.933c0.264,0.732,0.588,1.439,1.332,1.842
		c0.434,0.234,0.597,0.633,0.604,1.118c0.008,0.588-0.103,1.192,0.206,1.75c0.046,0.083,0.045,0.232,0.001,0.317
		c-0.385,0.737-0.191,1.526-0.201,2.29c-0.026,2.231,0.003,4.463-0.018,6.695c-0.005,0.548,0.143,1.114-0.188,1.651
		c-0.096,0.155,0.02,0.449,0.096,0.692c0.16,0.518,0.26,1.093-0.129,1.661c0.121,0.261,0.255,0.563,0.241,0.93
		c-0.035,0.971-0.002,1.943-0.019,2.915c-0.005,0.262,0.084,0.466,0.226,0.67c-0.052,0.262-0.251,0.453-0.236,0.771
		c0.046,1.042,0.018,2.087,0.018,3.131c0,0.252,0.038,0.513-0.013,0.754c-0.04,0.186-0.191,0.348-0.309,0.545
		c-0.206,0.047-0.517,0.125-0.675-0.026c-0.402-0.382-1.105-0.191-1.418-0.825c0.294-0.42,0.791-0.744,0.916-1.385
		c-0.241-0.588-0.425-1.248-0.022-1.819c0.049-0.533-0.285-0.846-0.457-1.189c-0.198-0.397-0.246-0.695-0.019-1.047
		c0.258-0.398,0.282-0.834,0.273-1.293c-0.019-1.008-0.006-2.016-0.006-3.097c-0.165-0.155-0.368-0.346-0.555-0.521
		c-0.139-0.014-0.227,0.017-0.31,0.101c-0.279,0.281-0.426,0.605-0.438,1.011c-0.012,0.408,0.142,0.854-0.208,1.208
		c-0.018,0.019-0.016,0.078,0,0.104c0.545,0.95-0.131,1.898,0.003,2.882c0.113,0.099,0.248,0.216,0.353,0.307
		c0.229,0.568-0.08,0.959-0.306,1.371c-0.203,0.521,0.214,1.14-0.281,1.582C56.521,48.021,56.854,48.6,56.72,49.275z M19.389,20.81
		c-0.925,0.597-1.678,1.09-1.749,2.12c-0.544,0.688-0.5,1.714-1.239,2.129c-0.169,0.54,0.116,0.842,0.24,1.2
		c0.309,0,0.621,0,0.932,0c0.289-0.38,0.764-0.595,0.92-1.037c0.269-0.764,0.696-1.438,1.101-2.123
		C20.083,22.27,19.531,21.625,19.389,20.81z M35.452,10.944c-0.135,0-0.347,0.061-0.409-0.01c-0.356-0.404-0.702-0.183-1.006,0.018
		c-0.542,0.359-1.121,0.483-1.756,0.426c-0.173-0.015-0.349-0.002-0.292-0.002c-0.611,0.206-0.941,0.443-1.145,0.787
		c-0.167,0.369,0.096,0.535,0.308,0.725c0.679,0,1.361-0.043,2.036,0.012c0.708,0.058,1.341-0.434,1.942-0.235
		c0.564-0.188,0.893-0.507,1.05-1.002C35.963,11.449,35.709,11.198,35.452,10.944z M22.314,16.347
		c-1.047,0.888-1.871,1.942-2.677,2.9c0,0.445,0,0.825,0,1.2c0.339,0,0.625,0,0.911,0c0.419-0.375,0.777-0.784,0.766-1.409
		c0.248-0.241,0.504-0.49,0.772-0.751c0.811-0.127,0.856-0.158,1.558-1.035c-0.273-0.275-0.543-0.548-0.897-0.905
		C22.705,16.347,22.491,16.347,22.314,16.347z M29.427,13.563c-0.114-0.606-0.375-0.912-0.754-1.107
		c-0.116,0-0.265-0.046-0.326,0.007c-0.774,0.675-1.701,1.13-2.508,1.746c-0.409,0.312-0.89,0.787-0.57,1.467
		c1.09,0.207,1.865-0.567,2.768-0.885C28.632,14.581,29.296,14.191,29.427,13.563z M40.236,12.038
		c-1.115-0.949-2.19-1.121-3.354-0.559c-0.104,0.05-0.255,0.147-0.234,0.332c0.1,0.205,0.201,0.413,0.303,0.622
		c0.351,0.287,0.814,0.317,1.216,0.423c0.503,0.132,1.098-0.078,1.596,0.062c0.516,0.145,1.014,0.182,1.53,0.185
		c0.2-0.274,0.69-0.202,0.761-0.674c0.014-0.184-0.212-0.231-0.307-0.391C41.255,12.038,40.757,12.038,40.236,12.038z
		 M57.603,27.292c-0.479,0.398-0.875,0.756-1.023,1.256c0.444,0.824-0.09,1.584-0.07,2.239c0.23,0.289,0.404,0.507,0.463,0.581
		c0.622,0.241,0.931-0.069,1.275-0.27c0-0.358,0.021-0.718-0.007-1.073c-0.018-0.215,0.21-0.287,0.217-0.448
		C58.497,28.732,58.425,27.919,57.603,27.292z M42.695,13.165c0.474,0.733,1.249,0.813,2.105,0.805
		c0.72,1.19,2.071,1.245,3.243,1.666c0.134-0.2,0.447-0.305,0.492-0.609c-0.302-0.617-0.979-0.792-1.432-1.295
		c-0.78,0-1.598,0-2.364,0c-0.392-0.296-0.403-0.754-0.655-1.05c-0.369,0-0.727,0-1.078,0C42.911,12.836,42.694,12.89,42.695,13.165
		z M56.736,33.521c0,1.097,0.017,2.211-0.007,3.324c-0.012,0.524,0.153,0.945,0.528,1.295c0.363-0.226,0.567-0.58,0.775-1.071
		c-0.07-0.326,0.128-0.808-0.083-1.233c-0.083-0.168-0.197-0.344-0.124-0.48c0.402-0.74,0.105-1.527,0.216-2.263
		c-0.124-0.125-0.224-0.229-0.33-0.326c-0.021-0.019-0.068-0.006-0.104-0.008C57.035,33.074,57.035,33.074,56.736,33.521z
		 M16.992,52.103c0-0.444-0.013-0.876,0.003-1.306c0.018-0.454-0.162-0.887-0.187-1.311c-0.051-0.861-0.024-1.726,0.139-2.606
		c0.192-1.04,0.045-2.143,0.045-3.272c-0.369,0.062-0.04-0.596-0.578-0.466c-0.019,0.547-0.585,1.054-0.086,1.688
		c0.095,0.121,0.057,0.455-0.045,0.604c-0.298,0.435-0.257,0.964-0.118,1.324c0.27,0.702,0.151,1.388,0.17,2.077
		c0.032,1.146,0.007,2.295,0.015,3.442c0,0.047,0.085,0.094,0.124,0.135C16.707,52.468,16.789,52.274,16.992,52.103z M49.888,16.166
		c-0.091,0.2-0.126,0.402,0.021,0.584c0.361,0.446,0.837,0.69,1.399,0.705c0.033,0.359,0.323,0.567,0.255,0.927
		c-0.09,0.478,0.178,0.855,0.499,1.175c0.394,0,0.778,0,1.146,0c0.105-0.24,0.199-0.453,0.311-0.708
		c-0.393-0.392-0.734-0.9-1.212-1.165c-0.484-0.269-1.024-0.367-1.032-1.068c-0.001-0.077-0.146-0.221-0.217-0.217
		C50.645,16.423,50.33,15.98,49.888,16.166z M24.368,30.904c-0.146,0.467,0.098,0.818,0.272,1.188
		c0.586,0.227,0.746,0.268,0.949,0.167c0.464-0.231,0.92-0.478,1.344-0.699c-0.321-0.308-0.599-0.574-0.933-0.893
		c-0.152,0.104-0.334-0.234-0.595-0.284C25.076,30.547,24.75,30.711,24.368,30.904z M16.619,33.984
		c-0.268,0.568-0.662,1.117-0.448,1.664c0.138,0.353,0.154,0.667,0.167,1c0.023,0.643,0.018,1.287,0.002,1.931
		c-0.008,0.301,0.07,0.519,0.313,0.603c0.396-0.144,0.43-0.465,0.306-0.714c-0.407-0.819-0.061-1.673-0.182-2.5
		c0.386-0.5,0.144-1.075,0.219-1.549C16.858,34.261,16.767,34.155,16.619,33.984z M16.145,41.628
		c0.828-0.115,0.828-0.115,0.817-1.015c-0.142-0.089-0.194-0.3-0.489-0.293c-0.049,0.097-0.128,0.252-0.207,0.408
		c-0.041-0.037-0.081-0.074-0.121-0.111C16.145,40.926,16.145,41.233,16.145,41.628z M23.892,30.118
		c-0.211-0.172-0.417-0.339-0.622-0.506c-0.049,0.052-0.145,0.155-0.267,0.285c0.19,0.28,0.25,0.609,0.321,0.93
		c0.216-0.049,0.408,0.065,0.568-0.107C23.892,30.521,23.892,30.309,23.892,30.118z M16.379,28.674c0,0.425,0,0.831,0,1.205
		c0.108,0.108,0.181,0.185,0.26,0.256c0.011,0.01,0.048-0.007,0.1-0.018c0-0.473,0-0.95,0-1.443
		C16.607,28.674,16.511,28.674,16.379,28.674z M20.606,31.896c-0.12,0-0.189,0-0.073,0c-0.264,0.141-0.407,0.217-0.557,0.296
		c0.228,0.194,0.326,0.416,0.645,0.33C20.667,32.358,20.696,32.17,20.606,31.896z"/>
	<path fill="currentColor" d="M48.299,61.929c-0.369-0.162-0.615,0.247-1.035,0.022
		c-0.309-0.164-0.774-0.032-1.121-0.032c-0.454,0.454-0.883,0.884-1.305,1.306c-1.03-0.063-1.973,0.018-2.834,0.559
		c-0.374,0.235-0.913-0.077-1.279,0.296c-0.873,0.041-1.721,0.286-2.611,0.232c-0.899-0.054-1.782-0.035-2.647-0.402
		c-0.341-0.145-0.803-0.107-1.228,0.074c-0.742,0.316-1.28,0.341-2.029,0.047c-0.236-0.092-0.455-0.202-0.685-0.158
		c-0.649,0.126-1.235-0.185-1.851-0.263c-0.235-0.029-0.505-0.211-0.778-0.172c-0.966,0.135-1.694-0.41-2.467-0.831
		c-0.099-0.054-1.115-0.47-1.209-0.47c-0.91,0.001-1.544-0.551-2.171-1.101c-0.058-0.051-0.072-0.177-0.189-0.197
		c-0.554-0.093-0.871-0.532-1.229-0.865c-0.481,0.026-0.828-0.177-1.156-0.509c0-0.719,0-1.465,0-2.03
		c0.15-0.63,0.505-0.927,0.836-1.233c0.949-0.88,1.711-1.979,2.949-2.522c0.314-0.512,0.793-0.898,1.12-1.379
		c0.34-0.503,0.669-0.935,1.228-1.205c0.245-0.119,0.437-0.376,0.612-0.602c0.224-0.287,0.545-0.417,0.831-0.608
		c0.141-0.095,0.327-0.056,0.452-0.223c0.515-0.688,1.317-1.053,1.896-1.679c0.614-0.663,1.262-1.28,2.098-1.701
		c0.793-0.4,1.36-1.113,1.979-1.742c0.633-0.645,1.347-1.058,2.295-0.991c0.369,0.026,0.727-0.016,1.114-0.163
		c0.379-0.146,0.925-0.177,1.339,0.069c0.282,0.167,0.623,0.183,0.812,0.082c0.902-0.481,1.765,0.282,2.641,0.022
		c0.692,0.409,1.454,0.129,2.178,0.219c0.576,0.071,1.06-0.204,1.667-0.354c0.44,0.134,0.952,0.472,1.537,0.342
		c0.521-0.116,0.961,0.15,1.416,0.262c0.329,0.08,0.75,0.27,0.868,0.772c0.052,0.22,0.167,0.504,0.416,0.699
		c0.188,0.146,0.349,0.464,0.343,0.701c-0.019,0.861,0.39,1.57,0.751,2.287c0.315,0.626,0.567,1.278,0.953,1.881
		c0.349,0.545,0.535,1.214,0.772,1.833c0.242,0.632,0.466,1.304,0.322,2.077c0.229,0.188,0.477,0.391,0.618,0.507
		c0.137,0.896,0.443,1.636,0.179,2.568c-0.407,0.294-0.668,0.952-1.169,1.369c-0.483,0.404-1.088,0.664-1.722,1.034
		c-0.606-0.086-1.23,0.085-1.662,0.67c-0.166,0.225-0.476,0.334-0.608,0.341C48.84,60.803,48.625,61.315,48.299,61.929z
		 M35.637,50.061c-0.824-0.102-1.478,0.387-2.119,0.192c-0.228,0.228-0.378,0.378-0.495,0.494c0.172,0.213,0.344,0.425,0.556,0.686
		c0.559-0.724,1.16,0.033,1.794-0.133C35.275,50.865,35.431,50.495,35.637,50.061z M34.688,52.652
		c-0.401-0.079-0.65,0.012-0.861,0.341c0,0.323,0,0.707,0,1.044c-0.178,0.234-0.457,0.333-0.419,0.64
		c0.166,0.211,0.377,0.1,0.431,0.095c0.352-0.308,0.618-0.54,0.849-0.741C34.688,53.557,34.688,53.132,34.688,52.652z
		 M43.403,48.347c-0.213-0.53-0.234-1.027-0.882-1.137c0,0.213,0,0.383,0,0.589C42.722,47.95,42.848,48.294,43.403,48.347z
		 M48.115,56.502c0.305,0.05,0.44-0.006,0.405-0.32c-0.141-0.012-0.146-0.288-0.405-0.259
		C48.115,56.119,48.115,56.284,48.115,56.502z"/>
	<path fill="currentColor" d="M52.711,29.293c-0.234,0.427,0.417,0.591,0.215,0.798
		c-0.451,0.785-1.22,0.965-1.647,1.562c-0.277,0-0.559,0-0.907,0c-0.181-0.157-0.407-0.342-0.56-0.638
		c-0.189-0.369-0.482-0.669-0.88-0.854c-0.152-0.071-0.332-0.184-0.396-0.325c-0.307-0.67-0.851-1.031-1.505-1.288
		c-0.105-0.042-0.248-0.152-0.235-0.367c-0.008-0.184,0.241-0.211,0.289-0.382c0.594,0,1.167,0,1.769,0
		c0.426,0.447,0.869,0.914,1.387,1.458c0.007,0.126,0.021,0.368,0.033,0.605c0.151,0.095,0.206,0.311,0.515,0.303
		c0.157-0.298,0.337-0.641,0.461-0.875c0.313-0.346,0.634-0.111,0.832-0.207c0.457-0.329,0.312-0.868,0.65-1.247
		c0.146-0.068,0.357-0.166,0.568-0.265c0.256,0.166,0.583,0.209,0.776,0.475c0.153,0.229,0.005,0.485,0.087,0.705
		C53.726,29.167,53.257,29.424,52.711,29.293z"/>
	<path fill="currentColor" d="M29.779,42.712c0.124-0.592-0.492-1.413-0.234-2.236
		c0.265-0.295,0.503-0.56,0.748-0.831c0.558,0.096,0.595,0.66,0.875,0.974c0.19,0.213,0.348,0.498,0.561,0.722
		c0.739,0.776,0.759,1.076,0.131,2.151c-0.221,0.146-0.515-0.027-0.705,0.087c-0.188,0.112-0.343,0.226-0.697,0.18
		C30.304,43.52,30.091,43.191,29.779,42.712z"/>
	<path fill="currentColor" d="M33.726,42.698c-0.306-0.335-0.555-0.695-0.535-1.18
		c0.003-0.072,0.032-0.175-0.004-0.212c-0.873-0.899-0.151-1.769,0.03-2.673c0.38,0.028,0.506-0.333,0.761-0.47
		c0.284-0.046,0.505,0.026,0.694,0.308c0,1.123,0,2.3,0,3.511C34.367,42.436,34.367,42.436,33.726,42.698z"/>
	<path fill="currentColor" d="M39.57,18.077c0.223,0.223,0.376,0.376,0.559,0.559
		c-0.271,0.553-0.325,1.204-0.747,1.639c0.393,0.581,0.393,0.581,1.06,0.617c0.274,0.455,0.432,0.929,0.241,1.509
		c-0.92-0.033-1.454-0.82-2.201-1.058c-0.305-0.931-0.383-1.827-0.305-2.752C38.553,18.221,38.999,17.99,39.57,18.077z"/>
	<path fill="currentColor" d="M51.004,33.199c0.236,0,0.47-0.053,0.656,0.017
		c0.146,0.056,0.252,0.229,0.445,0.203c0.107,0.213,0.211,0.419,0.313,0.623c-0.409,0.655-0.126,1.376-0.234,2.073
		c-0.266,0.226-0.436,0.66-0.886,0.543c-0.379-0.138-0.335-0.544-0.578-0.734c0-0.815-0.006-1.628,0.01-2.44
		C50.732,33.406,50.872,33.332,51.004,33.199z"/>
	<path fill="currentColor" d="M51.985,42.589c-0.107,0.665,0.359,1.127,0.576,1.682
		c0.119,0.306,0.532,0.607,0.184,1.013c-0.294,0.158-0.365-0.364-0.655-0.215c-0.235-0.51-0.561-0.932-1.119-1.12
		c-0.142-0.372-0.398-0.72-0.271-1.109c0.272-0.272,0.521-0.521,0.769-0.769C51.631,42.235,51.808,42.411,51.985,42.589z"/>
	<path fill="currentColor" d="M46.783,26.578c0,0.23,0,0.469,0,0.67c-0.227,0.517-0.848,0.124-1.013,0.607
		c-0.569-0.383-1.207-0.495-1.556-1.071C45.015,26.099,45.871,26.12,46.783,26.578z"/>
	<path fill="currentColor" d="M50.72,38.808c0.223,0,0.365,0,0.547,0c0.095,0.559,0.287,1.088,0.738,1.42
		c-0.063,0.396-0.405,0.472-0.539,0.799c-0.183-0.234-0.33-0.423-0.477-0.611c-0.186-0.199,0.04-0.501-0.188-0.748
		C50.59,39.439,50.702,39.147,50.72,38.808z"/>
	<path fill="currentColor" d="M47.011,21.655c0,0.256,0,0.541,0,0.838
		c-0.089,0.214-0.433,0.03-0.528,0.399c-0.151-0.255-0.275-0.463-0.399-0.671c-0.171-0.244-0.239-0.609,0.116-0.839
		C46.472,21.207,46.733,21.293,47.011,21.655z"/>
	<path fill="currentColor" d="M51.337,23c-0.42,0.06-0.765,0.118-1.047-0.262c0-0.289,0-0.622,0-0.975
		c0.2,0,0.367,0,0.529,0C51.143,22.094,51.366,22.458,51.337,23z"/>
	<path fill="currentColor" d="M25.593,21.96c-0.05-0.002-0.187-0.009-0.301-0.014
		c-0.163-0.174-0.056-0.359-0.092-0.524c0.465-0.134,0.717-0.604,1.236-0.704c0.045,0.043,0.144,0.138,0.205,0.196
		C26.328,21.227,26.014,21.541,25.593,21.96z"/>
	<path fill="currentColor" d="M30.171,44.731c0.423-0.288,0.423-0.288,0.979-0.301
		c0.176,0.175,0.096,0.377,0.057,0.59C30.832,45.102,30.46,45.182,30.171,44.731z"/>
	<path fill="currentColor" d="M24.446,48.26c0.164,0.328,0.086,0.574,0.103,0.813
		c-0.174,0.184-0.378,0.097-0.596,0.062C23.797,48.694,23.975,48.437,24.446,48.26z"/>
	<path fill="currentColor" d="M53.712,41.291c-0.156,0.12-0.241,0.344-0.456,0.338
		c-0.303-0.125-0.271-0.335,0.107-0.859C53.55,40.898,53.488,41.198,53.712,41.291z"/>
	<path fill="currentColor" d="M37.188,21.976c-0.142-0.177-0.149-0.296-0.032-0.423
		C37.39,21.643,37.328,21.78,37.188,21.976z"/>
	<path style="fill-rule:evenodd;clip-rule:evenodd;fill:none;" d="M19.389,20.81c0.142,0.816,0.693,1.46,0.204,2.289
		c-0.404,0.685-0.832,1.359-1.101,2.123c-0.156,0.442-0.631,0.657-0.92,1.037c-0.311,0-0.623,0-0.932,0
		c-0.124-0.358-0.409-0.66-0.24-1.2c0.739-0.416,0.695-1.441,1.239-2.129C17.711,21.9,18.464,21.406,19.389,20.81z"/>
	<path style="fill-rule:evenodd;clip-rule:evenodd;fill:none;" d="M35.452,10.944c0.258,0.254,0.511,0.505,0.728,0.718
		c-0.157,0.495-0.485,0.814-1.05,1.002c-0.602-0.199-1.234,0.293-1.942,0.235c-0.674-0.055-1.357-0.012-2.036-0.012
		c-0.211-0.19-0.474-0.356-0.308-0.725c0.204-0.344,0.534-0.581,1.145-0.787c-0.057,0,0.119-0.013,0.292,0.002
		c0.635,0.057,1.213-0.067,1.756-0.426c0.304-0.201,0.649-0.422,1.006-0.018C35.105,11.004,35.317,10.944,35.452,10.944z"/>
	<path style="fill-rule:evenodd;clip-rule:evenodd;fill:none;" d="M22.314,16.347c0.177,0,0.391,0,0.432,0
		c0.354,0.357,0.625,0.63,0.897,0.905c-0.701,0.877-0.747,0.908-1.558,1.035c-0.268,0.261-0.524,0.51-0.772,0.751
		c0.011,0.625-0.346,1.034-0.766,1.409c-0.286,0-0.572,0-0.911,0c0-0.375,0-0.755,0-1.2C20.443,18.289,21.268,17.235,22.314,16.347z
		"/>
	<path style="fill-rule:evenodd;clip-rule:evenodd;fill:none;" d="M29.427,13.563c-0.131,0.628-0.795,1.018-1.39,1.228
		c-0.903,0.318-1.678,1.092-2.768,0.885c-0.32-0.68,0.161-1.155,0.57-1.467c0.807-0.615,1.733-1.071,2.508-1.746
		c0.062-0.054,0.21-0.007,0.326-0.007C29.053,12.65,29.313,12.956,29.427,13.563z"/>
	<path style="fill-rule:evenodd;clip-rule:evenodd;fill:none;" d="M40.236,12.038c0.521,0,1.02,0,1.511,0
		c0.095,0.16,0.32,0.207,0.307,0.391c-0.07,0.472-0.561,0.4-0.761,0.674c-0.517-0.003-1.015-0.041-1.53-0.185
		c-0.498-0.14-1.093,0.07-1.596-0.062c-0.402-0.106-0.865-0.136-1.216-0.423c-0.102-0.208-0.203-0.417-0.303-0.622
		c-0.021-0.185,0.129-0.282,0.234-0.332C38.045,10.917,39.121,11.089,40.236,12.038z"/>
	<path style="fill-rule:evenodd;clip-rule:evenodd;fill:none;" d="M57.603,27.292c0.822,0.626,0.894,1.439,0.854,2.284
		c-0.007,0.162-0.234,0.233-0.217,0.448c0.027,0.355,0.007,0.715,0.007,1.073c-0.345,0.201-0.653,0.511-1.275,0.27
		c-0.059-0.074-0.232-0.292-0.463-0.581c-0.02-0.655,0.515-1.415,0.07-2.239C56.728,28.049,57.125,27.691,57.603,27.292z"/>
	<path style="fill-rule:evenodd;clip-rule:evenodd;fill:none;" d="M42.695,13.165c-0.001-0.275,0.216-0.329,0.312-0.484
		c0.352,0,0.709,0,1.078,0c0.252,0.296,0.264,0.754,0.655,1.05c0.767,0,1.584,0,2.364,0c0.453,0.503,1.13,0.678,1.432,1.295
		c-0.045,0.304-0.358,0.41-0.492,0.609c-1.172-0.42-2.523-0.475-3.243-1.666C43.944,13.978,43.168,13.898,42.695,13.165z"/>
	<path style="fill-rule:evenodd;clip-rule:evenodd;fill:none;" d="M56.736,33.521c0.299-0.447,0.299-0.447,0.872-0.761
		c0.035,0.001,0.083-0.011,0.104,0.008c0.106,0.097,0.206,0.201,0.33,0.326c-0.11,0.735,0.187,1.522-0.216,2.263
		c-0.073,0.136,0.041,0.312,0.124,0.48c0.211,0.425,0.013,0.907,0.083,1.233c-0.208,0.491-0.412,0.846-0.775,1.071
		c-0.375-0.351-0.54-0.771-0.528-1.295C56.752,35.732,56.736,34.618,56.736,33.521z"/>
	<path style="fill-rule:evenodd;clip-rule:evenodd;fill:none;" d="M16.992,52.103c-0.204,0.172-0.285,0.365-0.518,0.31
		c-0.039-0.041-0.124-0.088-0.124-0.135c-0.007-1.147,0.017-2.296-0.015-3.442c-0.019-0.689,0.099-1.375-0.17-2.077
		c-0.139-0.36-0.181-0.89,0.118-1.324c0.102-0.148,0.141-0.482,0.045-0.604c-0.499-0.635,0.067-1.142,0.086-1.688
		c0.539-0.13,0.209,0.527,0.578,0.466c0,1.13,0.147,2.232-0.045,3.272c-0.163,0.881-0.189,1.745-0.139,2.606
		c0.025,0.424,0.205,0.856,0.187,1.311C16.979,51.227,16.992,51.658,16.992,52.103z"/>
	<path style="fill-rule:evenodd;clip-rule:evenodd;fill:none;" d="M49.888,16.166c0.441-0.185,0.757,0.258,1.17,0.235
		c0.071-0.004,0.216,0.14,0.217,0.217c0.008,0.701,0.548,0.799,1.032,1.068c0.478,0.265,0.819,0.773,1.212,1.165
		c-0.111,0.255-0.205,0.467-0.311,0.708c-0.367,0-0.752,0-1.146,0c-0.321-0.32-0.589-0.697-0.499-1.175
		c0.068-0.36-0.222-0.568-0.255-0.927c-0.563-0.015-1.038-0.259-1.399-0.705C49.762,16.568,49.797,16.365,49.888,16.166z"/>
	<path style="fill-rule:evenodd;clip-rule:evenodd;fill:none;" d="M24.368,30.904c0.382-0.192,0.708-0.356,1.038-0.522
		c0.26,0.049,0.442,0.387,0.595,0.284c0.333,0.319,0.612,0.585,0.933,0.893c-0.424,0.222-0.88,0.468-1.344,0.699
		c-0.204,0.102-0.363,0.06-0.949-0.167C24.466,31.722,24.222,31.371,24.368,30.904z"/>
	<path style="fill-rule:evenodd;clip-rule:evenodd;fill:none;" d="M16.619,33.984c0.148,0.17,0.24,0.276,0.376,0.434
		c-0.075,0.475,0.167,1.049-0.219,1.549c0.121,0.827-0.226,1.681,0.182,2.5c0.124,0.249,0.091,0.57-0.306,0.714
		c-0.243-0.084-0.32-0.302-0.313-0.603c0.016-0.644,0.021-1.288-0.002-1.931c-0.013-0.333-0.028-0.647-0.167-1
		C15.957,35.102,16.351,34.553,16.619,33.984z"/>
	<path style="fill-rule:evenodd;clip-rule:evenodd;fill:none;" d="M16.145,41.628c0-0.395,0-0.702,0-1.011
		c0.04,0.037,0.081,0.074,0.121,0.111c0.079-0.156,0.158-0.312,0.207-0.408c0.295-0.007,0.348,0.204,0.489,0.293
		C16.973,41.513,16.973,41.513,16.145,41.628z"/>
	<path style="fill-rule:evenodd;clip-rule:evenodd;fill:none;" d="M23.892,30.118c0,0.19,0,0.403,0,0.602
		c-0.16,0.172-0.352,0.058-0.568,0.107c-0.071-0.32-0.131-0.65-0.321-0.93c0.122-0.13,0.218-0.233,0.267-0.285
		C23.474,29.779,23.68,29.946,23.892,30.118z"/>
	<path style="fill-rule:evenodd;clip-rule:evenodd;fill:none;" d="M16.379,28.674c0.131,0,0.228,0,0.36,0c0,0.494,0,0.971,0,1.443
		c-0.052,0.01-0.089,0.028-0.1,0.018c-0.079-0.071-0.152-0.148-0.26-0.256C16.379,29.505,16.379,29.099,16.379,28.674z"/>
	<path style="fill-rule:evenodd;clip-rule:evenodd;fill:none;" d="M20.606,31.896c0.09,0.274,0.06,0.463,0.015,0.626
		c-0.319,0.086-0.417-0.136-0.645-0.33c0.15-0.08,0.292-0.156,0.557-0.296C20.417,31.896,20.487,31.896,20.606,31.896z"/>
	<path style="fill-rule:evenodd;clip-rule:evenodd;fill:none;" d="M35.637,50.061c-0.207,0.435-0.362,0.805-0.263,1.239
		c-0.634,0.166-1.235-0.591-1.794,0.133c-0.212-0.261-0.384-0.473-0.556-0.686c0.116-0.116,0.267-0.267,0.495-0.494
		C34.159,50.447,34.813,49.959,35.637,50.061z"/>
	<path style="fill-rule:evenodd;clip-rule:evenodd;fill:none;" d="M34.688,52.652c0,0.479,0,0.904,0,1.378
		c-0.231,0.201-0.497,0.434-0.849,0.741c-0.054,0.005-0.265,0.116-0.431-0.095c-0.038-0.307,0.241-0.405,0.419-0.64
		c0-0.337,0-0.721,0-1.044C34.038,52.664,34.287,52.573,34.688,52.652z"/>
	<path style="fill-rule:evenodd;clip-rule:evenodd;fill:none;" d="M43.403,48.347c-0.555-0.053-0.681-0.396-0.882-0.548
		c0-0.206,0-0.376,0-0.589C43.168,47.319,43.19,47.816,43.403,48.347z"/>
	<path style="fill-rule:evenodd;clip-rule:evenodd;fill:none;" d="M48.115,56.502c0-0.218,0-0.383,0-0.579
		c0.259-0.029,0.265,0.247,0.405,0.259C48.555,56.496,48.419,56.552,48.115,56.502z"/>
</g>
</svg>
