<?xml version="1.0" encoding="iso-8859-1"?>
<!-- Generator: Adobe Illustrator 16.0.0, SVG Export Plug-In . SVG Version: 6.00 Build 0)  -->
<!DOCTYPE svg PUBLIC "-//W3C//DTD SVG 1.1//EN" "http://www.w3.org/Graphics/SVG/1.1/DTD/svg11.dtd">
<svg version="1.1" id="Layer_1" xmlns="http://www.w3.org/2000/svg" xmlns:xlink="http://www.w3.org/1999/xlink" x="0px" y="0px"
	 width="72.36px" height="72.18px" viewBox="0 0 72.36 72.18" style="enable-background:new 0 0 72.36 72.18;" xml:space="preserve"
	>
<g>
	<path style="fill-rule:evenodd;clip-rule:evenodd;fill:none;" d="M-6.984-6.984c28.8,0,57.6,0,86.399,0c0,28.872,0,57.744,0,86.615
		c-28.8,0-57.6,0-86.399,0C-6.984,50.76-6.984,21.888-6.984-6.984z M34.701,34.105c0.003,0.404,0.056,0.741-0.285,1.022
		c-0.187,0.155-0.213,0.487-0.367,0.7c-0.224,0.311-0.233,0.823-0.778,0.859c-0.081,0.005-0.195,0.13-0.223,0.222
		c-0.177,0.584-0.686,0.891-1.083,1.275c-1.15,1.11-2.25,2.268-3.465,3.321c-1.122,0.974-2.31,1.894-3.301,3.019
		c-0.131,0.149-0.332,0.243-0.492,0.354c-0.725,0.508-1.485,0.971-2.181,1.507c-0.63,0.484-1.315,0.915-1.789,1.527
		c-0.8-0.301-1.251-0.829-1.591-1.493c-0.327-0.638-0.646-1.298-1.57-1.562c-0.868,0.004-0.912,0.021-1.661,0.76
		c0,0.29,0,0.577,0,0.838c0.589,0.806,1.636,0.851,2.379,1.521c-0.087,0.222,0.127,0.501-0.109,0.763
		c-0.11,0.065-0.189,0.168-0.327,0.233c-0.766,0.365-1.512,0.736-2.159,1.338c-0.505,0.469-1.104,0.886-1.766,1.179
		c-0.832,0.367-1.35,1.104-1.901,1.782c-0.164,0.202-0.325,0.46-0.216,0.774c0.418,0.395,0.774,0.898,1.475,0.983
		c0.355-0.183,0.762-0.349,1.121-0.586c0.758-0.503,1.537-0.966,2.346-1.38c0.237-0.122,0.489-0.224,0.708-0.373
		c0.721-0.491,1.398-1.053,2.251-1.311c0.076,0.221,0.384,0.094,0.562,0.35c-0.205,0.533-0.429,1.114-0.637,1.654
		c0.276,0.595,0.495,1.225,1.024,1.356c1.097,0.121,1.997,0.127,2.812-0.547c0.283-0.724,0.348-1.268-0.02-1.657
		c-0.646-0.687-1.112-1.5-1.664-2.15c0-0.445,0-0.828,0-1.21c0.375,0,0.705-0.04,1.02,0.011c0.344,0.055,0.551-0.242,0.883-0.254
		c0.269-0.01,0.517-0.297,0.796-0.398c0.721-0.261,1.495-0.406,2.17-0.75c0.714-0.363,1.398-0.776,2.152-1.066
		c0.199-0.077,0.439-0.149,0.615-0.354c0.453-0.526,1.1-0.771,1.698-1.095c0.598-0.323,1.202-0.672,1.666-1.202
		c0.213-0.243,0.423-0.513,0.691-0.679c0.588-0.362,1.08-0.93,1.668-1.181c0.668-0.284,1.261-0.668,1.813-1.072
		c0.608-0.445,1.292-0.784,1.837-1.336c1.125-1.138,2.146-2.337,2.811-3.809c0.041-0.091,0.087-0.192,0.16-0.255
		c0.778-0.678,1.257-1.622,2.052-2.288c0.234-0.196,0.43-0.441,0.611-0.709c0.52-0.77,1.063-1.538,1.701-2.207
		c0.675-0.708,1.264-1.459,1.654-2.347c0.247-0.563,0.784-1.018,0.879-1.567c0.115-0.667,0.487-1.106,0.806-1.623
		c0.42-0.682,0.916-1.327,1.077-2.145c0.148-0.76,0.505-1.445,0.839-2.135c0.043-0.09,0.146-0.13,0.16-0.259
		c0.116-0.988,0.621-1.919,0.43-2.954c-0.02-0.104-0.046-0.245,0.004-0.318c0.397-0.587,0.187-1.242,0.19-1.859
		c0.002-0.461-0.124-0.942-0.493-1.344c-0.544-0.068-1.038,0.114-1.519,0.393c-0.705,0.409-1.165,1.079-1.608,1.703
		c-0.35,0.493-0.734,0.751-1.263,0.921c-0.284,0.092-0.587,0.165-0.804,0.406c-0.798,0.884-1.854,1.375-2.919,1.816
		c-0.61,0.253-1.176,0.697-1.854,0.588c-1.122,0.978-1.397,2.226-1.418,3.526c-0.339,0.521-0.578,1.058-0.616,1.623
		c-0.06,0.887-0.428,1.627-0.919,2.322c-0.181,0.255-0.4,0.533-0.372,0.809c0.056,0.542-0.433,0.85-0.461,1.332
		c-0.675,0.513-0.689,1.374-1.041,2.055c-0.182,0.353-0.274,0.756-0.556,1.061c-0.176-0.017-0.357,0.071-0.517-0.06
		c-0.136-0.852-0.535-1.59-1.24-2.053c-0.264-0.174-0.476-0.393-0.729-0.567c-0.476-0.328-0.663-0.894-1.065-1.289
		c-0.875-0.859-1.824-1.625-2.792-2.375c-0.564-0.438-1.191-0.925-1.492-1.536c-0.316-0.642-0.943-0.785-1.346-1.249
		c-0.46-0.532-1.162-0.354-1.781-0.367c-0.104-0.002-0.208,0.01-0.301,0.015c-0.483,0.51-0.74,0.936-0.74,1.331
		c0.099,0.142,0.282,0.368,0.204,0.711c0.542,0.332,0.669,0.995,1.063,1.458c0.896,1.054,2.065,1.857,2.814,3.049
		c0.617,0.24,0.882,0.828,1.303,1.268c1.003,1.049,1.813,2.281,2.989,3.183c0.594,0,1.206,0,1.818,0.001
		C34.56,34.057,34.592,34.074,34.701,34.105z M41.089,38.592c-0.497,0.447-1.014,0.848-1.169,1.413
		c-0.13,0.477-0.415,0.974-0.194,1.581c0.482,0.354,0.854,0.878,1.11,1.506c0.255,0.621,0.569,1.166,1.329,1.385
		c0.362,0.105,0.716,0.529,0.896,0.896c0.166,0.335,0.436,0.536,0.636,0.813c0.297,0.411,0.764,0.601,1.138,0.911
		c0.41,0.341,0.546,0.897,0.985,1.214c0.145,0.104,0.235,0.313,0.388,0.368c0.757,0.274,1.041,0.938,1.339,1.575
		c0.093,0.004,0.186-0.021,0.23,0.015c1.133,0.908,1.82,2.294,3.181,2.959c0.03,0.016,0.063,0.046,0.075,0.076
		c0.247,0.663,0.87,0.993,1.262,1.484c1.286,0.034,2.57-0.196,3.669,0.636c0.794,0.113,1.424-0.137,1.852-0.794
		c0-0.222,0-0.401,0-0.647c-0.553-0.438-1.236-0.813-1.582-1.525c-0.03-0.061-0.091-0.117-0.151-0.151
		c-0.94-0.527-1.616-1.326-2.187-2.209c-0.245-0.382-0.587-0.652-0.932-0.866c-0.237-0.147-0.469-0.291-0.652-0.489
		c-1.109-1.2-2.331-2.285-3.393-3.543c-0.881-1.046-1.802-2.113-3.004-2.854c-0.148-0.092-0.34-0.233-0.368-0.38
		c-0.077-0.394-0.405-0.562-0.628-0.821c-0.83-0.974-1.972-1.604-2.758-2.551C41.769,38.592,41.446,38.592,41.089,38.592z
		 M17.419,16.667c0.052,0.283,0.053,0.543,0.137,0.822c0.25,0.833,0.729,1.584,0.815,2.479c0.043,0.452,0.209,0.933,0.456,1.313
		c0.448,0.693,0.907,1.412,1.856,1.756c0.806,0,1.741,0,2.68,0c0.297-0.398,0.822-0.507,1.139-0.904
		c0.303-0.379,0.729-0.659,0.915-1.36c0-0.173,0.035-0.572-0.009-0.962c-0.053-0.473-0.203-0.84-0.713-1.12
		c-0.792-0.433-1.509-1.005-2.394-1.268c-0.396-0.531-1.036-0.651-1.598-0.826c-0.25-0.077-0.535-0.165-0.752-0.275
		c-0.568-0.292-1.14-0.456-1.736-0.409C17.934,16.18,17.674,16.426,17.419,16.667z"/>
	<path style="fill-rule:evenodd;clip-rule:evenodd;" d="M34.701,34.105c-0.109-0.031-0.141-0.049-0.173-0.049
		c-0.612-0.001-1.224-0.001-1.818-0.001c-1.177-0.902-1.986-2.134-2.989-3.183c-0.421-0.44-0.686-1.028-1.303-1.268
		c-0.749-1.192-1.919-1.996-2.814-3.049c-0.394-0.462-0.521-1.125-1.063-1.458c0.078-0.343-0.105-0.57-0.204-0.711
		c0-0.396,0.256-0.821,0.74-1.331c0.092-0.005,0.197-0.017,0.301-0.015c0.62,0.013,1.321-0.165,1.781,0.367
		c0.402,0.464,1.029,0.607,1.346,1.249c0.301,0.611,0.928,1.098,1.492,1.536c0.968,0.751,1.917,1.517,2.792,2.375
		c0.402,0.395,0.589,0.961,1.065,1.289c0.253,0.174,0.465,0.393,0.729,0.567c0.706,0.463,1.104,1.201,1.24,2.053
		c0.159,0.13,0.341,0.042,0.517,0.06c0.282-0.305,0.374-0.708,0.556-1.061c0.352-0.682,0.366-1.542,1.041-2.055
		c0.028-0.482,0.517-0.791,0.461-1.332c-0.028-0.276,0.191-0.554,0.372-0.809c0.491-0.695,0.859-1.435,0.919-2.322
		c0.038-0.565,0.277-1.102,0.616-1.623c0.021-1.3,0.296-2.549,1.418-3.526c0.678,0.109,1.243-0.335,1.854-0.588
		c1.065-0.44,2.121-0.932,2.919-1.816c0.217-0.241,0.52-0.314,0.804-0.406c0.528-0.17,0.913-0.428,1.263-0.921
		c0.443-0.624,0.903-1.293,1.608-1.703c0.48-0.279,0.975-0.461,1.519-0.393c0.369,0.402,0.495,0.882,0.493,1.344
		c-0.004,0.617,0.207,1.271-0.19,1.859c-0.05,0.074-0.023,0.214-0.004,0.318c0.191,1.035-0.313,1.966-0.43,2.954
		c-0.015,0.129-0.117,0.169-0.16,0.259c-0.334,0.69-0.69,1.375-0.839,2.135c-0.161,0.818-0.657,1.463-1.077,2.145
		c-0.318,0.516-0.69,0.956-0.806,1.623c-0.095,0.549-0.632,1.004-0.879,1.567c-0.391,0.888-0.979,1.638-1.654,2.347
		c-0.639,0.669-1.182,1.438-1.701,2.207c-0.182,0.269-0.377,0.513-0.611,0.709c-0.795,0.666-1.273,1.61-2.052,2.288
		c-0.073,0.063-0.119,0.164-0.16,0.255c-0.664,1.472-1.686,2.671-2.811,3.809c-0.545,0.552-1.229,0.891-1.837,1.336
		c-0.552,0.404-1.146,0.788-1.813,1.072c-0.589,0.251-1.08,0.818-1.668,1.181c-0.269,0.166-0.479,0.436-0.691,0.679
		c-0.464,0.53-1.068,0.879-1.666,1.202c-0.598,0.324-1.245,0.568-1.698,1.095c-0.176,0.204-0.417,0.276-0.615,0.354
		c-0.754,0.29-1.438,0.703-2.152,1.066c-0.675,0.344-1.45,0.489-2.17,0.75c-0.28,0.102-0.527,0.389-0.796,0.398
		c-0.333,0.012-0.539,0.309-0.883,0.254c-0.315-0.051-0.645-0.011-1.02-0.011c0,0.382,0,0.765,0,1.21
		c0.551,0.65,1.018,1.464,1.664,2.15c0.367,0.39,0.302,0.934,0.02,1.657c-0.815,0.674-1.715,0.668-2.812,0.547
		c-0.529-0.132-0.748-0.762-1.024-1.356c0.208-0.54,0.432-1.121,0.637-1.654c-0.178-0.256-0.486-0.129-0.562-0.35
		c-0.853,0.258-1.531,0.819-2.251,1.311c-0.219,0.149-0.471,0.251-0.708,0.373c-0.809,0.414-1.587,0.877-2.346,1.38
		c-0.358,0.237-0.765,0.403-1.121,0.586c-0.701-0.085-1.057-0.589-1.475-0.983c-0.109-0.314,0.052-0.572,0.216-0.774
		c0.551-0.679,1.069-1.415,1.901-1.782c0.663-0.293,1.261-0.71,1.766-1.179c0.647-0.602,1.394-0.973,2.159-1.338
		c0.138-0.065,0.216-0.168,0.327-0.233c0.236-0.262,0.022-0.541,0.109-0.763c-0.744-0.671-1.79-0.716-2.379-1.521
		c0-0.261,0-0.548,0-0.838c0.75-0.738,0.793-0.756,1.661-0.76c0.924,0.264,1.244,0.924,1.57,1.562
		c0.34,0.664,0.791,1.192,1.591,1.493c0.473-0.612,1.158-1.043,1.789-1.527c0.696-0.536,1.457-0.999,2.181-1.507
		c0.16-0.111,0.36-0.205,0.492-0.354c0.991-1.125,2.18-2.045,3.301-3.019c1.214-1.054,2.314-2.211,3.465-3.321
		c0.397-0.385,0.906-0.691,1.083-1.275c0.028-0.091,0.142-0.216,0.223-0.222c0.545-0.036,0.554-0.548,0.778-0.859
		c0.153-0.212,0.18-0.545,0.367-0.7C34.756,34.846,34.704,34.509,34.701,34.105z M41.967,26.665
		c0.399-0.403,0.753-0.629,0.943-1.018c0.271-0.554,0.143-1.199,0.411-1.77c0.098-0.208,0.109-0.555-0.074-0.857
		c-0.713,0.775-1.032,1.719-1.358,2.66C41.792,25.956,41.811,26.218,41.967,26.665z"/>
	<path style="fill-rule:evenodd;clip-rule:evenodd;" d="M41.089,38.592c0.356,0,0.68,0,1.072,0c0.786,0.947,1.928,1.577,2.758,2.551
		c0.223,0.26,0.551,0.428,0.628,0.821c0.028,0.146,0.22,0.288,0.368,0.38c1.202,0.741,2.123,1.809,3.004,2.854
		c1.062,1.258,2.283,2.343,3.393,3.543c0.184,0.198,0.415,0.342,0.652,0.489c0.345,0.214,0.687,0.484,0.932,0.866
		c0.57,0.883,1.246,1.682,2.187,2.209c0.061,0.034,0.121,0.091,0.151,0.151c0.346,0.712,1.029,1.087,1.582,1.525
		c0,0.246,0,0.426,0,0.647c-0.428,0.657-1.058,0.907-1.852,0.794c-1.099-0.832-2.383-0.602-3.669-0.636
		c-0.392-0.491-1.015-0.821-1.262-1.484c-0.012-0.03-0.045-0.061-0.075-0.076c-1.36-0.665-2.048-2.051-3.181-2.959
		c-0.045-0.036-0.138-0.011-0.23-0.015c-0.298-0.638-0.582-1.301-1.339-1.575c-0.152-0.056-0.243-0.264-0.388-0.368
		c-0.439-0.316-0.575-0.873-0.985-1.214c-0.374-0.311-0.841-0.5-1.138-0.911c-0.2-0.277-0.47-0.479-0.636-0.813
		c-0.181-0.366-0.534-0.79-0.896-0.896c-0.76-0.219-1.074-0.764-1.329-1.385c-0.257-0.628-0.628-1.151-1.11-1.506
		c-0.221-0.607,0.064-1.104,0.194-1.581C40.076,39.439,40.592,39.039,41.089,38.592z"/>
	<path style="fill-rule:evenodd;clip-rule:evenodd;" d="M17.419,16.667c0.255-0.241,0.515-0.487,0.795-0.753
		c0.596-0.047,1.167,0.117,1.736,0.409c0.217,0.111,0.502,0.198,0.752,0.275c0.562,0.174,1.201,0.295,1.598,0.826
		c0.885,0.263,1.602,0.834,2.394,1.268c0.511,0.279,0.661,0.646,0.713,1.12c0.043,0.39,0.009,0.789,0.009,0.962
		c-0.186,0.702-0.612,0.981-0.915,1.36c-0.317,0.397-0.842,0.506-1.139,0.904c-0.939,0-1.875,0-2.68,0
		c-0.949-0.344-1.408-1.063-1.856-1.756c-0.246-0.38-0.413-0.862-0.456-1.313c-0.085-0.896-0.564-1.647-0.815-2.479
		C17.472,17.21,17.471,16.951,17.419,16.667z"/>
	<path style="fill-rule:evenodd;clip-rule:evenodd;fill:none;" d="M41.967,26.665c-0.156-0.447-0.175-0.708-0.078-0.985
		c0.326-0.941,0.646-1.885,1.358-2.66c0.184,0.303,0.172,0.649,0.074,0.857c-0.269,0.571-0.141,1.216-0.411,1.77
		C42.72,26.036,42.367,26.261,41.967,26.665z"/>
</g>
</svg>
