<?xml version="1.0" encoding="iso-8859-1"?>
<!-- Generator: Adobe Illustrator 16.0.0, SVG Export Plug-In . SVG Version: 6.00 Build 0)  -->
<!DOCTYPE svg PUBLIC "-//W3C//DTD SVG 1.1//EN" "http://www.w3.org/Graphics/SVG/1.1/DTD/svg11.dtd">
<svg version="1.1" id="Layer_1" xmlns="http://www.w3.org/2000/svg" xmlns:xlink="http://www.w3.org/1999/xlink" x="0px" y="0px"
	 width="72.36px" height="72.18px" viewBox="0 0 72.36 72.18" style="enable-background:new 0 0 72.36 72.18;" xml:space="preserve"
	>
<g>
	
	<path fill="currentColor" d="M23.267,62.89c0.331-0.408,0.675-0.394,1.069-0.221
		c0.538,0.236,1.101,0.419,1.697,0.323c0.473-0.075,0.844,0.265,1.316,0.244c0.395-0.017,0.839-0.196,1.222,0.179
		c0.11,0.107,0.416,0.017,0.631,0.017c1.439,0,2.878,0,4.314,0c0.182-0.182,0.36-0.36,0.438-0.438
		c0.275-0.85,0.514-1.581,0.75-2.313c0.186-0.578,0.419-1.127,0.464-1.763c0.037-0.514,0.134-1.066,0.399-1.552
		c0.245-0.447,0.484-0.885,0.455-1.44c-0.012-0.233,0.205-0.481,0.322-0.72c0.318-0.648,0.571-1.301,0.53-2.053
		c-0.042-0.788-0.01-1.579-0.01-2.311c-0.687-1.025-0.884-2.223-1.598-3.187c-0.715-0.967-1.767-1.516-2.618-2.354
		c-0.181,0-0.393,0-0.625,0c-0.66,0.499-1.143,1.156-1.417,1.96c-0.044,0.129-0.068,0.345,0.004,0.42
		c0.483,0.509-0.044,0.959-0.08,1.43c-0.01,0.126-0.113,0.3-0.156,0.469c-0.103,0.414,0.237,0.713,0.234,1.101
		c-0.003,0.349-0.033,0.696,0.055,1.053c0.458,1.861,0.006,2.936-1.542,3.707c-0.464-0.101-0.791-0.406-1.112-0.766
		c0-1.628,0.011-3.281-0.01-4.935c-0.003-0.3,0.078-0.537,0.225-0.757c0.028-0.244-0.192-0.353-0.254-0.563
		c-0.155-0.525-0.773-0.671-1.177-0.717c-1.173-0.135-2.101-0.707-3.011-1.357c-0.345-0.247-0.749-0.284-1.129-0.404
		c-0.334-0.106-0.552,0.236-0.857,0.268c-0.163,0.292-0.188,0.654-0.5,0.928c0.213,0.923-0.298,1.823-0.197,2.791
		c-0.639,0.662-1.337,1.262-1.545,2.269c-0.114,0.553-0.685,0.801-1.278,0.875c-0.574,0.072-1.092-0.131-1.614-0.268
		c-0.843-0.609-1.354-1.527-2.07-2.262c-0.182-0.186-0.357-0.447-0.389-0.693c-0.051-0.396-0.263-0.684-0.43-1.016
		c-0.144-0.287-0.275-0.609-0.249-0.981c0.055-0.761-0.127-1.495-0.387-2.209c-0.023-0.063-0.031-0.135-0.032-0.202
		c-0.002-0.54,0.008-1.08-0.004-1.619c-0.01-0.481-0.372-0.913-0.174-1.441c-0.372-0.225-0.522-0.661-0.988-0.788
		c-0.157-0.043-0.326-0.377-0.331-0.581c-0.022-0.904-0.365-1.709-0.638-2.547c-0.147-0.455-0.026-0.997-0.026-1.241
		c-0.237-0.985-1.074-1.261-1.281-2.097c0.336-0.281,0.15-0.764,0.181-0.964c0.298-0.886,0.908-1.239,1.353-1.797
		c-0.195-0.419-0.617-0.658-0.9-1.025c0-0.2,0-0.416,0-0.631c0.306-0.306,0.611-0.611,0.916-0.917
		c1.691-0.93,3.184-0.307,4.676,0.626c1.128-0.682,2.328-1.276,3.246-2.292c0.016-0.233,0.068-0.478-0.034-0.708
		c-0.38-0.438-1.085-0.259-1.438-0.838c0-0.141,0-0.351,0-0.626c0.255-0.208,0.558-0.457,0.861-0.705
		c0.042-0.283-0.045-0.501-0.008-0.797c-0.558-0.359-0.727-1.11-1.291-1.49c-0.076-0.783-0.527-1.453-0.437-2.256
		c0.73-0.419,1.579-0.56,2.263-1.095c0.628-0.492,1.431-0.763,2.056-1.258c0.701-0.556,1.288-1.254,1.923-1.89
		c0.125-0.902-0.843-1.21-1.07-1.933c0-0.213-0.042-0.437,0.009-0.637c0.105-0.417,0.19-0.817,0.702-1.023
		c0.593-0.24,1.192-0.529,1.463-0.934c0.958-0.486,1.813-0.299,2.649-0.351c0.246,0.267,0.488,0.529,0.784,0.85
		c0,0.11,0,0.323,0,0.45c0.221,0.269,0.399,0.485,0.641,0.779c1.046-1.058,2.03-2.093,3.489-2.708
		c0.577,0.085,1.334-0.225,2.2,0.408c0.25,0.287,0.153,0.896,0.158,1.498c0.363,0,0.676,0,0.937,0
		c0.574-0.291,1.12-0.546,1.643-0.841c0.285-0.161,0.567-0.241,0.886-0.209c0.654,0.064,1.307-0.078,1.977,0.178
		c0.362,0.139,0.865,0.019,1.328-0.092c0.794-0.19,1.664-0.251,2.492,0.197c0,0.218,0,0.459,0,0.663
		c0.141,0.14,0.242,0.242,0.383,0.382c0.84-0.64,1.878,0.037,2.82-0.429c0.539-0.267,1.19,0.171,1.791,0.292
		c0.062,0.013,0.11,0.083,0.173,0.103c0.966,0.31,0.964,0.304,2.107-0.211c0.333-0.15,0.68-0.271,1.026-0.388
		c0.128-0.043,0.295-0.084,0.409-0.039c0.598,0.241,1.282,0.131,1.853,0.48c0.68,0.417,1.382,0.815,1.872,1.459
		c0.245,0.322,0.442,0.706,0.31,1.2c-0.34,0.384-0.74,0.753-1.245,0.743c-0.283,0.221-0.504,0.393-0.654,0.511
		c-0.049,0.281,0.176,0.342,0.18,0.451c0.022,0.646,0.011,1.293,0.011,1.906c0.367,0.579,0.936,0.9,1.463,1.207
		c0.576,0.336,0.881,0.891,1.381,1.212c-0.287,0.836-1.188,0.945-1.572,1.598c0.672,1.168,2.011,1.4,2.993,2.215
		c0.551,0,1.153,0,1.73,0c0.137,0.244,0.019,0.408-0.135,0.475c-1.038,0.458-1.341,1.379-1.556,2.368
		c1.227,0.43,2.036,1.399,3.059,2.142c-0.071,0.5-0.024,1.001,0.262,1.387c0.285,0.385,0.694,0.679,0.821,1.254
		c-0.271,0.509-0.173,1.215-0.654,1.74c0,0.625,0,1.27,0,1.975c-0.438,0.424-0.864,0.921-1.373,1.312
		c-0.81,0.621-1.047,1.495-1.225,2.414c-0.032,0.167-0.016,0.319-0.131,0.489c-0.67,0.995-0.901,1.673-0.947,2.733
		c-0.018,0.403-0.156,0.731-0.437,1.015c0,0.211,0,0.426,0,0.654c0.398,0.245,0.449,0.778,0.855,1.052
		c-0.032,0.397,0.177,0.851-0.305,1.184c-0.393,0-0.818,0-1.261,0c-0.811-0.367-0.877-1.307-1.309-1.926
		c-0.289,0.013-0.464,0.078-0.663,0.165c-0.608,0.266-1.173,0.623-1.829,0.803c-0.951,0.261-1.533,0.993-1.958,1.839
		c-0.102,0.203-0.266,0.319-0.386,0.487c-0.145,1.361-0.403,2.72-0.261,4.095c0.044,0.416-0.314,0.703-0.229,1.1
		c-0.647,0.701-0.647,0.701-1.192,0.812c-0.215-0.257-0.444-0.53-0.752-0.896c0-0.314,0-0.78,0-1.245
		c0-0.54-0.042-1.084,0.013-1.618c0.052-0.498,0.372-0.921,0.531-1.398c0.097-0.288,0.063-0.541,0.094-0.824
		c-0.636-0.238-1.265-0.426-1.946-0.545c-0.941-0.164-1.887-0.431-2.785-0.813c-0.287-0.123-0.438-0.352-0.636-0.542
		c-0.326-0.314-0.64-0.633-0.885-0.69c-0.456-0.169-0.453,0.38-0.779,0.059c-0.67,2.012-0.858,4.002-0.713,5.955
		c-0.497,0.775-0.993,1.453-1.181,2.301c-0.232,1.05-0.67,2.043-0.801,3.127c-0.084,0.696-0.32,1.374-0.496,2.058
		c-0.016,0.061-0.137,0.114-0.129,0.158c0.148,0.855-0.348,1.651-0.199,2.554c0.179,0.395,0.635,0.526,0.995,0.777
		c0.575-0.198,1.152-0.388,1.765-0.43c0.215-0.016,0.432-0.003,0.647-0.003c0.575,0,1.169,0.087,1.722-0.025
		c0.508-0.103,0.994-0.384,1.45-0.652c0.485-0.286,1.027-0.31,1.539-0.465c0.484-0.146,0.978-0.262,1.454-0.404
		c0.809-0.241,1.602-0.124,2.395-0.188c0.099,0.256,0.389,0.159,0.544,0.341c-0.033,0.562-0.179,1.051-0.821,1.242
		c-0.579,0.173-0.854,0.801-1.426,0.989c-1.141,0.375-2.258,0.821-3.426,1.116c-0.416,0.104-0.841,0.179-1.215,0.469
		c-0.274,0.213-0.687,0.387-1.019,0.358c-0.55-0.047-1.087,0.098-1.512,0.29c-0.493,0.223-1.063-0.042-1.472,0.361
		c-0.704-0.075-1.346,0.293-2.061,0.261c-0.65-0.029-1.336-0.181-1.966,0.188c-0.107,0.063-0.313,0.063-0.421,0
		c-0.63-0.368-1.312-0.15-1.967-0.205c-0.75-0.063-1.49-0.18-2.212-0.395c-0.098-0.029-0.207-0.046-0.308-0.037
		c-1.128,0.104-2.191-0.296-3.167-0.699c-1.132-0.468-2.325-0.827-3.389-1.463C24.377,63.73,23.744,63.451,23.267,62.89z
		 M21.132,45.863c-0.168-0.168-0.375-0.318-0.507-0.518c-0.378-0.572-0.819-1.202-0.563-1.885c0.133-0.354,0.11-0.674,0.172-1.006
		c0.056-0.3,0.042-0.6,0.124-0.912c0.143-0.55,0.41-1.105,0.309-1.713c-0.102-0.608-0.115-1.241-0.298-1.821
		c-0.091-0.288-0.079-0.47-0.021-0.75c0.114-0.546,0.458-1.076,0.251-1.709c-0.446-0.161-0.916-0.587-1.328-0.379
		c-0.887,0.447-2.073,0.495-2.487,1.629c-0.039,0.681,0.047,1.339-0.214,1.986c-0.341,0.844-0.84,1.66-0.66,2.64
		c0.006,0.031,0,0.074-0.017,0.099c-0.425,0.582-0.261,1.276-0.149,1.851c0.102,0.523,0.257,0.961-0.038,1.454
		c-0.056,0.093-0.009,0.283,0.047,0.4c0.255,0.532,0.397,1.075,0.387,1.679c-0.009,0.582,0.348,1.132,0.186,1.714
		c0.692,0.625,0.9,1.606,1.683,2.052c0.344,0.096,0.517-0.085,0.714-0.321c-0.053-0.46,0.035-0.922,0.424-1.28
		c0.261-0.24,0.289-0.629,0.48-0.87c0.31-0.393,0.057-0.876,0.371-1.264C20.314,46.547,20.9,46.517,21.132,45.863z M50.297,31.039
		c0.549-0.359,1.169-0.479,1.451-0.999c0-0.75,0-1.465,0-2.196c-1.001-0.313-1.988-0.623-2.96-0.927
		c-0.928,0.481-1.074,0.723-1.125,1.836c-0.604,0.623-1.161,1.306-2.028,1.553c-0.215,0.463-0.323,0.969-0.627,1.292
		c-0.539,0.573-0.654,1.203-0.55,1.901c0.099,0.458,0.451,0.632,0.804,0.762c0.906-0.302,1.786-0.622,2.658-0.932
		c1.004-0.357,1.593-1.089,2.311-1.726C50.251,31.427,50.271,31.257,50.297,31.039z M49.757,39.073
		c0.498,1.354,1.826,2.016,2.65,3.131c0.126,0.559-0.383,1.088-0.176,1.711c0.087,0.088,0.189,0.189,0.291,0.292
		c0.144,0,0.287,0,0.376,0c0.985-0.677,1.461-1.557,1.24-2.591c0.214-0.428,0.429-0.696,0.453-1.147
		c-0.497-0.444-0.8-1.044-0.675-1.658c-0.398-0.4-0.725-0.729-1.074-1.079c-0.534,0.036-0.534,0.036-1.201,0.436
		C50.876,38.068,50.241,38.314,49.757,39.073z M43.56,44.538c2.228,1.91,2.733,1.865,4.902,1.085
		c0.286-0.585,0.669-1.109,0.443-1.748c-0.151-0.544-0.588-0.844-0.916-1.158c-0.274,0-0.483,0-0.68,0
		c-0.218,0.221-0.418,0.426-0.615,0.626c-0.222,0-0.437,0-0.655,0c-0.412-0.456-0.889-0.756-1.352-0.658
		c-0.444,0.441-0.77,0.766-1.128,1.122C43.56,43.99,43.56,44.241,43.56,44.538z M25.416,43.576c0-0.301,0-0.511,0-0.722
		c0.003-1.475,0.268-2.323,1.067-3.747c0.173-0.308,0.348-0.678,0.191-1.099c-0.582-0.513-1.045-1.203-1.848-1.588
		c0.021,0.362-0.334,0.131-0.463,0.307c-0.029,0.417-0.126,0.807-0.48,1.124c0.189,0.551-0.224,1.041-0.203,1.603
		c0.029,0.786,0.002,1.575,0.009,2.362C23.697,42.828,24.227,43.395,25.416,43.576z M33.07,28.453
		c0.66-0.625,1.11-1.374,1.218-2.389c-0.275,0-0.509-0.063-0.685,0.012c-0.64,0.271-1.261,0.589-1.9,0.895c0,0.26,0,0.5,0,0.735
		C32.048,28.055,32.369,28.43,33.07,28.453z M36.036,36.958c0.375,0.39,0.769,0.799,1.116,1.162c0.496,0.146,0.85-0.076,1.195-0.263
		c0-0.321,0-0.633,0-0.914c-0.471-0.464-0.863-0.962-1.498-1.162c-0.201,0.101-0.408,0.204-0.615,0.308
		C36.25,36.371,35.902,36.541,36.036,36.958z M29.628,43.56c0.442-0.35,0.722-0.57,0.95-0.751c0-0.35,0-0.632,0-0.919
		c-0.168-0.079-0.222-0.307-0.449-0.283c-0.508,0.059-0.889,0.455-1.413,0.514c-0.229,0.026-0.329,0.344-0.293,0.524
		c0.318,0.337,0.582,0.616,0.865,0.915C29.43,43.56,29.609,43.56,29.628,43.56z M61.104,33.906c-0.821-0.521-1.648-0.747-2.574-0.71
		c-0.049,0.178-0.298,0.206-0.281,0.484c0.197,0.504,0.78,0.493,1.173,0.549C59.929,34.303,60.556,34.515,61.104,33.906z
		 M36.128,25.181c0.366-0.485,0.394-0.635,0.162-0.879c-0.278-0.293-0.412-0.272-0.939,0.152c0.029,0.236-0.067,0.483,0.076,0.727
		C35.66,25.181,35.897,25.181,36.128,25.181z M57.836,33.908c-0.622-0.225-1.056,0.152-1.555,0.244
		c0.072,0.363,0.214,0.541,0.508,0.551c0.175,0.006,0.35,0.001,0.503,0.001C57.47,34.439,57.786,34.334,57.836,33.908z
		 M43.903,36.064c0.489-0.24,0.625-0.502,0.464-0.886c-0.617,0.018-0.807,0.131-0.807,0.387
		C43.694,35.761,43.791,35.902,43.903,36.064z M58.2,28.503c-0.104,0.055-0.287-0.213-0.354,0.081
		C57.976,28.689,58.096,28.696,58.2,28.503z"/>
	
	
	
	
	
	
	
	
	
	
	
	
	
</g>
</svg>
