<?xml version="1.0" encoding="iso-8859-1"?>
<!-- Generator: Adobe Illustrator 16.0.0, SVG Export Plug-In . SVG Version: 6.00 Build 0)  -->
<!DOCTYPE svg PUBLIC "-//W3C//DTD SVG 1.1//EN" "http://www.w3.org/Graphics/SVG/1.1/DTD/svg11.dtd">
<svg version="1.1" id="Layer_1" xmlns="http://www.w3.org/2000/svg" xmlns:xlink="http://www.w3.org/1999/xlink" x="0px" y="0px"
	 width="72.36px" height="72.18px" viewBox="0 0 72.36 72.18" style="enable-background:new 0 0 72.36 72.18;" xml:space="preserve"
	>
<g>
	
	<path fill="currentColor" d="M32.97,51.559c-0.207,0.877-0.934,1.353-1.666,1.939
		c-0.37,0-0.828,0-1.288,0c-0.538,0.827-0.892,1.752-1.709,2.361c-0.646-0.086-0.799-0.171-1.46-0.824
		c-0.17,0.104-0.365,0.199-0.349,0.44c0.041,0.62-0.299,1.044-0.715,1.433c-0.496,0.144-0.947,0.006-1.367-0.209
		c-0.153-0.315-0.299-0.615-0.514-1.059c0-0.442,0-1.044,0-1.613c-0.139-0.131-0.241-0.228-0.38-0.359
		c-0.781,0.409-0.999,1.285-1.572,1.891c0.099,0.668-0.178,1.392,0.226,2.047c-0.063,1.004-0.181,2.309-1.594,2.992
		c-0.314,0.001-0.628,0.001-0.916,0.001c-0.566-0.532-0.52-1.263-0.721-1.896c-0.116-0.365,0.218-0.622,0.354-0.926
		c0.371-0.828,0.558-1.69,0.5-2.601c-0.383-0.427-0.234-0.951-0.201-1.421c0.07-0.978,0.227-1.944,0.218-2.935
		c-0.008-0.881,0.051-0.923-0.23-1.677c-0.024-0.063-0.003-0.143-0.003-0.293c0.204-0.204,0.448-0.447,0.688-0.689
		c-0.18-0.346-0.333-0.642-0.484-0.933c0.206-0.401,0.404-0.787,0.66-1.285c0-0.409-0.032-0.947,0.007-1.48
		c0.055-0.746-0.026-1.482-0.46-2.074c-0.342-0.466,0.02-1.062-0.412-1.456c0.094-0.511-0.208-1.067,0.176-1.546
		c-0.089-0.792,0.371-1.428,0.625-2.118c0.067-0.183,0.044-0.343,0.059-0.513c0.019-0.214-0.085-0.523,0.022-0.63
		c0.284-0.282,0.292-0.659,0.161-0.88c-0.224-0.375-0.198-0.903-0.66-1.137c-0.061-0.031-0.104-0.099-0.119-0.115
		c-0.195-0.824,0.03-1.552,0.419-2.208c0.142-0.239,0.179-0.443,0.18-0.684c0.003-1.188,0.006-2.375-0.002-3.563
		c-0.002-0.236,0.087-0.492-0.165-0.694c-0.076-0.061-0.029-0.266-0.049-0.404c-0.048-0.325,0.417-0.576,0.201-0.87
		c-0.192-0.261-0.167-0.514-0.205-0.786c-0.106-0.782,0.382-1.502,0.183-2.36c0.208-0.208,0.434-0.433,0.677-0.677
		c-0.07-0.382,0.431-0.707,0.142-1.233c-0.717-0.219-1.34-0.806-2.037-1.261c-0.513-0.335-0.592-1.042-0.676-1.64
		c-0.063-0.457-0.013-0.93-0.013-1.34c0.204-0.222,0.374-0.406,0.469-0.511c1.417-0.34,2.581,0.295,3.789,0.645
		c0.878,0.254,1.749,0.201,2.604,0.06c0.417-0.068,0.783-0.205,1.175,0.026c0.056,0.033,0.127,0.068,0.188,0.063
		c1.636-0.133,3.259,0.472,4.872,0.188c1.276-0.225,2.536-0.15,3.803-0.178c1.295-0.029,2.592,0.016,3.887-0.014
		c0.847-0.019,1.646,0.27,2.503,0.255c0.986-0.017,1.893-0.283,2.807-0.557c0.161-0.048,0.347-0.181,0.481-0.111
		c0.704,0.361,1.543,0.196,2.238,0.6c0.163,0.096,0.372,0.023,0.586-0.071c0.531-0.235,1.098-0.432,1.7-0.32
		c0.575,0.107,1.073-0.224,1.631-0.266c0.425-0.031,0.758-0.461,1.054-0.812c0.363,0,0.722,0,1.086,0
		c0.34,0.245,0.576,0.583,0.768,1.097c0,0.295-0.03,0.729,0.007,1.157c0.053,0.611-0.186,1.076-0.611,1.479
		c-0.261,0.247-0.51,0.507-0.765,0.762c-0.313,0.115-0.741-0.127-0.984,0.383c0,0.523-0.186,1.214,0.05,1.702
		c0.258,0.536-0.131,1.156,0.359,1.582c-0.04,0.772,0.266,1.5,0.235,2.287c-0.063,1.653-0.031,3.311-0.013,4.966
		c0.007,0.571-0.122,1.056-0.421,1.559c-0.515,0.867-0.469,0.895-0.414,2.171c0.076,0.076,0.152,0.153,0.234,0.235
		c0.291-0.209,0.616-0.192,0.974-0.128c0.084,0.413,0.18,0.826-0.35,1.046c-0.241,0.069-0.293-0.35-0.56-0.216
		c-0.111,0.203-0.222,0.407-0.335,0.616c0.173,0.323,0.253,0.709,0.623,0.965c0,0.358,0,0.745,0,1.092
		c0.165,0.166,0.292,0.293,0.458,0.458c0,0.568,0.031,1.177-0.009,1.781c-0.048,0.743,0.081,1.46,0.226,2.179
		c0.232,1.151,0.214,1.144-0.205,2.542c-0.153,0.513-0.276,1.035-0.424,1.551c-0.127,0.441,0.036,0.891,0.412,1.233
		c0,0.529-0.042,1.071,0.013,1.604c0.043,0.409-0.229,0.714-0.236,1.1c-0.019,0.839,0.078,1.64,0.366,2.441
		c0.149,0.414,0.173,0.949,0.047,1.367c-0.206,0.676-0.178,1.408-0.53,2.046c-0.178,0.32-0.203,0.729-0.01,1.002
		c0.378,0.533,0.373,1.098,0.338,1.687c-0.104,0.104-0.206,0.206-0.337,0.337c-0.496-0.138-0.912-0.616-1.474-0.444
		c-0.188-0.188-0.341-0.341-0.524-0.524c-0.059-1.115-0.298-2.196-1.268-2.966c-0.478,0.519-0.478,0.519-0.49,1.43
		c-0.169,0.155-0.374,0.344-0.586,0.538c-0.389,0.079-0.672-0.336-1.05-0.235c-0.327-0.327-0.633-0.632-0.926-0.926
		c-0.161-0.915,0.241-1.899-0.337-2.723c-0.341-0.034-0.526,0.198-0.537,0.349c-0.063,0.835-0.581,1.271-1.277,1.594
		c-1.186-0.352-1.456-1.333-1.533-2.38c-0.042-0.577-0.097-1.166,0.173-1.758c0.181-0.396-0.008-0.88-0.329-1.281
		c-0.678,0.104-0.665,0.913-1.163,1.198c0,0.597,0,1.171,0,1.715c-0.189,0.201-0.362,0.383-0.56,0.592
		c-1.234-0.364-2.539-0.615-3.375-1.731c-0.293-0.391-0.551-0.8-0.976-1.131c-0.684,0.155-0.665,1.028-1.179,1.255
		C34.161,52.221,33.754,51.517,32.97,51.559z M22.246,35.318c0.319,0.354,0.198,0.768,0.685,0.929
		c0.389,0.128,0.451,0.755,0.784,0.927c0.742,0.383,1.303,0.987,1.99,1.432c0.719,0.466,1.044,1.37,1.834,1.784
		c0.618,1.096,1.576,1.785,2.688,2.318c0.329,0.157,0.717,0.28,0.916,0.661c0.688-0.188,1.314,0.151,1.953,0.256
		c0.659,0.108,1.319,0.275,1.987,0.399c0.695,0.13,1.378,0.178,2.074,0.183c0.647,0.004,1.301-0.054,1.94,0.015
		c0.728,0.078,1.359-0.152,1.978-0.451c1.283-0.62,2.367-1.431,3.363-2.504c0.176-0.189,0.391-0.266,0.602-0.378
		c0.644-0.342,0.663-0.34,0.882-1.122c0.053-0.188,0.118-0.325,0.252-0.436c0.401-0.332,0.693-0.768,1.189-1.023
		c0.299-0.153,0.537-0.515,0.766-0.836c0.336-0.474,0.491-1.058,0.928-1.459c0.308-0.284,0.593-0.586,0.774-1.173
		c0.141-0.711-0.186-1.478-0.642-2.238c-0.322-0.537-0.627-1.08-1.117-1.471c-0.255-0.204-0.63-0.263-0.874-0.476
		c-0.853-0.742-1.788-1.4-2.507-2.283c-0.753-0.927-1.776-1.339-2.872-1.668c-0.828-0.249-1.66-0.512-2.44-0.875
		c-0.543-0.252-1.066-0.425-1.663-0.417c-1.042,0.015-2.084,0.004-3.107,0.004c-0.095,0.08-0.166,0.167-0.257,0.213
		c-1.271,0.656-2.665,1.016-3.917,1.75c-1.496,0.877-2.94,1.784-4.116,3.074c-0.233,0.255-0.459,0.459-0.509,0.88
		c-0.043,0.364-0.346,0.769-0.715,0.98c-0.712,0.409-1.219,0.985-1.681,1.658C23.104,34.421,22.858,34.945,22.246,35.318z
		 M48.955,19.913c-0.396-0.553-0.936-0.286-1.399-0.305c-0.11-0.004-0.369,0.213-0.314,0.531c0.288,0.201,0.454,0.698,0.998,0.49
		C48.464,20.403,48.691,20.177,48.955,19.913z"/>
	
	
	<path fill="currentColor" d="M44.246,39.814c-0.594,0.353-1.115,0.606-1.569,0.949
		c-0.386,0.29-0.808,0.137-1.237,0.239c-0.255,0.478-0.589,0.92-1.042,1.261c-0.415-0.055-0.702,0.213-1.131,0.424
		c-0.423-0.109-1.027,0.271-1.503-0.268c-0.168-0.898,0.146-1.675,0.579-2.43c0-0.444,0-0.902,0-1.396c-0.49,0-0.948,0-1.357,0
		c-0.253-0.201-0.343-0.393-0.347-0.674c-0.016-1.204-0.244-2.368-0.595-3.526c-0.212-0.699-0.032-1.437,0.315-2.104
		c0.046-0.088,0.067-0.188,0.108-0.305c0.835-0.383,0.835-0.383,1.478-0.089c0.213,0.002,0.267-0.214,0.403-0.299
		c0.151-0.893-0.078-1.712-0.498-2.477c-0.096-0.172-0.118-0.32-0.12-0.492c-0.004-0.394-0.001-0.787-0.001-1.162
		c0.12-0.12,0.222-0.222,0.323-0.324c0.576,0,1.152,0,1.728,0c0.695,0.161,0.789,0.923,1.327,1.314
		c1.285-0.187,2.39,0.265,3.328,1.17c0,0.53,0,1.031,0,1.522c0.429,0.416,1.462,0.086,1.311,1.125
		c1.275,0.173,2.321,0.667,2.952,1.604c0.083,0.31-0.094,0.354-0.095,0.435c-0.017,0.942-0.773,0.951-1.379,1.014
		c-0.477,0.05-0.854,0.205-1.239,0.487c0.308,0.515,0.106,1.067,0.14,1.559c-0.194,1.071-1.238,0.82-1.878,1.238
		C44.246,39.005,44.246,39.393,44.246,39.814z M38.988,34.954c0.037,0.819-0.463,1.49-0.681,2.249
		c0.271,0.08,0.336,0.467,0.681,0.243C38.988,36.621,38.988,35.788,38.988,34.954z M45.518,32.646
		c-0.199-0.133-0.338-0.199-0.42,0.039C45.232,32.793,45.352,32.8,45.518,32.646z"/>
	<path fill="currentColor" d="M26.721,33.104c0-0.476,0-0.905,0-1.325
		c0.314-0.314,0.619-0.619,0.944-0.944c0.263,0,0.545,0,0.965,0c0.152-0.179,0.44-0.391,0.55-0.672
		c0.318-0.818,0.967-0.885,1.688-0.861c0.03,0.001,0.062-0.022,0.157-0.06c0.429-1.052,1.271-1.441,2.442-1.179
		c0.362-0.39,0.729-0.755,1.261-0.928c0.203,0.207,0.415,0.424,0.664,0.679c-0.289,0.487-0.298,1.041-0.256,1.415
		c-0.173,0.661-0.619,0.963-0.731,1.512c-0.053,0.26-0.104,0.531-0.129,0.799c-0.046,0.478,0.001,0.942-0.181,1.435
		c-0.158,0.425-0.173,0.897-0.375,1.357c-0.314,0.715-0.085,1.51,0.175,2.223c0.067,0.185,0.093,0.493,0.365,0.613
		c0,0.782,0,1.569,0,2.381c0.362,0.333,0.729,0.672,1.048,0.965c0.1,0.761,0.105,1.409-0.475,1.943c-0.254,0-0.535,0-0.894,0
		c-0.2-0.106-0.365-0.378-0.684-0.488c-0.237-0.081-0.394-0.396-0.579-0.601c-0.653,0.188-1.061-0.302-1.574-0.439
		c-0.097-0.214-0.193-0.426-0.293-0.645c0.38-0.517,0.76-1.033,1.127-1.532c-0.361-0.444-0.504,0.227-0.793,0.02
		c-0.08,0.395-0.364,0.606-0.626,0.877c-0.257,0-0.539,0-0.938,0c-0.083-0.121-0.224-0.327-0.475-0.692c0-0.081,0-0.395,0-0.67
		c-0.114-0.114-0.19-0.19-0.304-0.305c-0.489,0-1.02,0-1.381,0c-0.622-0.287-1.032-0.557-1.235-1.087
		c-0.144-0.376-0.594-0.614-0.898-0.636c-0.481-0.036-0.676-0.333-0.947-0.588c0-0.29,0-0.577,0-0.693
		C24.724,33.709,25.828,33.618,26.721,33.104z"/>
	
	
</g>
</svg>
