<?xml version="1.0" encoding="iso-8859-1"?>
<!-- Generator: Adobe Illustrator 16.0.0, SVG Export Plug-In . SVG Version: 6.00 Build 0)  -->
<!DOCTYPE svg PUBLIC "-//W3C//DTD SVG 1.1//EN" "http://www.w3.org/Graphics/SVG/1.1/DTD/svg11.dtd">
<svg version="1.1" id="Layer_1" xmlns="http://www.w3.org/2000/svg" xmlns:xlink="http://www.w3.org/1999/xlink" x="0px" y="0px"
	 width="72.36px" height="72.18px" viewBox="0 0 72.36 72.18" style="enable-background:new 0 0 72.36 72.18;" xml:space="preserve"
	>
<g>
	<path style="fill-rule:evenodd;clip-rule:evenodd;fill:none;" d="M-6.984,79.631c0-28.871,0-57.743,0-86.615
		c28.8,0,57.6,0,86.399,0c0,28.872,0,57.744,0,86.615C50.616,79.631,21.816,79.631-6.984,79.631z M32.97,51.559
		c0.784-0.042,1.19,0.662,1.902,0.364c0.514-0.227,0.495-1.1,1.179-1.255c0.425,0.331,0.683,0.74,0.976,1.131
		c0.836,1.116,2.141,1.367,3.375,1.731c0.197-0.209,0.37-0.391,0.56-0.592c0-0.544,0-1.118,0-1.715
		c0.498-0.285,0.485-1.094,1.163-1.198c0.321,0.401,0.51,0.885,0.329,1.281c-0.27,0.592-0.215,1.181-0.173,1.758
		c0.077,1.047,0.348,2.028,1.533,2.38c0.696-0.323,1.215-0.759,1.277-1.594c0.011-0.15,0.196-0.383,0.537-0.349
		c0.578,0.823,0.176,1.808,0.337,2.723c0.293,0.294,0.599,0.599,0.926,0.926c0.378-0.101,0.661,0.314,1.05,0.235
		c0.212-0.194,0.417-0.383,0.586-0.538c0.013-0.911,0.013-0.911,0.49-1.43c0.97,0.77,1.209,1.851,1.268,2.966
		c0.184,0.184,0.336,0.337,0.524,0.524c0.562-0.172,0.978,0.307,1.474,0.444c0.131-0.131,0.232-0.232,0.337-0.337
		c0.035-0.589,0.04-1.153-0.338-1.687c-0.193-0.273-0.168-0.682,0.01-1.002c0.353-0.638,0.324-1.37,0.53-2.046
		c0.126-0.418,0.103-0.953-0.047-1.367c-0.288-0.802-0.385-1.603-0.366-2.441c0.008-0.386,0.279-0.69,0.236-1.1
		c-0.055-0.532-0.013-1.074-0.013-1.604c-0.376-0.343-0.539-0.792-0.412-1.233c0.147-0.516,0.271-1.038,0.424-1.551
		c0.419-1.398,0.438-1.391,0.205-2.542c-0.145-0.719-0.273-1.436-0.226-2.179c0.04-0.604,0.009-1.213,0.009-1.781
		c-0.166-0.165-0.293-0.292-0.458-0.458c0-0.348,0-0.734,0-1.092c-0.37-0.256-0.45-0.642-0.623-0.965
		c0.113-0.209,0.224-0.413,0.336-0.616c0.266-0.134,0.317,0.285,0.558,0.216c0.53-0.22,0.435-0.633,0.351-1.046
		c-0.357-0.063-0.683-0.081-0.974,0.128c-0.082-0.083-0.158-0.159-0.234-0.235c-0.055-1.277-0.101-1.304,0.414-2.171
		c0.299-0.503,0.428-0.988,0.421-1.559c-0.019-1.655-0.051-3.313,0.013-4.966c0.03-0.787-0.275-1.514-0.235-2.287
		c-0.49-0.426-0.102-1.046-0.359-1.582c-0.235-0.488-0.05-1.179-0.05-1.702c0.243-0.51,0.671-0.268,0.984-0.383
		c0.255-0.255,0.504-0.515,0.765-0.762c0.426-0.403,0.664-0.868,0.611-1.479c-0.037-0.428-0.007-0.862-0.007-1.157
		c-0.191-0.514-0.428-0.852-0.768-1.097c-0.364,0-0.723,0-1.086,0c-0.296,0.351-0.629,0.78-1.054,0.812
		c-0.558,0.042-1.056,0.373-1.631,0.266c-0.603-0.112-1.169,0.084-1.7,0.32c-0.214,0.095-0.423,0.167-0.586,0.071
		c-0.695-0.404-1.534-0.239-2.238-0.6c-0.135-0.07-0.32,0.063-0.481,0.111c-0.914,0.274-1.82,0.54-2.807,0.557
		c-0.857,0.015-1.656-0.274-2.503-0.255c-1.295,0.03-2.592-0.015-3.887,0.014c-1.267,0.028-2.527-0.046-3.803,0.178
		c-1.613,0.284-3.236-0.321-4.872-0.188c-0.061,0.005-0.132-0.029-0.188-0.063c-0.392-0.23-0.758-0.094-1.175-0.026
		c-0.855,0.141-1.726,0.194-2.604-0.06c-1.208-0.35-2.371-0.985-3.789-0.645c-0.096,0.104-0.266,0.289-0.469,0.511
		c0,0.411-0.051,0.884,0.013,1.34c0.083,0.598,0.163,1.305,0.676,1.64c0.696,0.455,1.32,1.042,2.037,1.261
		c0.29,0.526-0.212,0.852-0.142,1.233c-0.244,0.244-0.469,0.469-0.677,0.677c0.199,0.858-0.29,1.578-0.183,2.36
		c0.037,0.272,0.013,0.525,0.205,0.786c0.216,0.294-0.249,0.545-0.201,0.87c0.02,0.138-0.027,0.343,0.049,0.404
		c0.251,0.203,0.163,0.458,0.165,0.694c0.008,1.188,0.006,2.375,0.002,3.563c-0.001,0.241-0.038,0.445-0.18,0.684
		c-0.389,0.656-0.614,1.385-0.419,2.208c0.016,0.016,0.058,0.084,0.119,0.115c0.461,0.234,0.436,0.763,0.66,1.137
		c0.131,0.221,0.124,0.598-0.161,0.88c-0.108,0.107-0.003,0.416-0.022,0.63c-0.015,0.169,0.009,0.33-0.059,0.513
		c-0.253,0.69-0.714,1.326-0.625,2.118c-0.385,0.479-0.082,1.035-0.176,1.546c0.432,0.395,0.07,0.99,0.412,1.456
		c0.434,0.592,0.515,1.328,0.46,2.074c-0.039,0.533-0.007,1.071-0.007,1.48c-0.256,0.498-0.454,0.884-0.66,1.285
		c0.151,0.291,0.304,0.587,0.484,0.933c-0.241,0.242-0.484,0.485-0.688,0.689c0,0.15-0.021,0.23,0.003,0.293
		c0.282,0.754,0.222,0.796,0.23,1.677c0.009,0.99-0.148,1.957-0.218,2.935c-0.033,0.47-0.183,0.994,0.201,1.421
		c0.058,0.91-0.13,1.772-0.5,2.601c-0.136,0.304-0.47,0.561-0.354,0.926c0.201,0.633,0.154,1.363,0.721,1.896
		c0.288,0,0.602,0,0.916-0.001c1.414-0.684,1.531-1.988,1.594-2.992c-0.404-0.655-0.127-1.379-0.226-2.047
		c0.573-0.605,0.791-1.481,1.572-1.891c0.139,0.132,0.242,0.229,0.38,0.359c0,0.569,0,1.171,0,1.613
		c0.215,0.443,0.361,0.743,0.514,1.059c0.419,0.215,0.871,0.353,1.366,0.208c0.417-0.388,0.757-0.812,0.716-1.432
		c-0.016-0.241,0.179-0.337,0.349-0.44c0.661,0.653,0.813,0.738,1.46,0.824c0.817-0.609,1.171-1.534,1.709-2.361
		c0.46,0,0.918,0,1.288,0C32.036,52.911,32.763,52.436,32.97,51.559z"/>
	<path style="fill-rule:evenodd;clip-rule:evenodd;" d="M32.97,51.559c-0.207,0.877-0.934,1.353-1.666,1.939
		c-0.37,0-0.828,0-1.288,0c-0.538,0.827-0.892,1.752-1.709,2.361c-0.646-0.086-0.799-0.171-1.46-0.824
		c-0.17,0.104-0.365,0.199-0.349,0.44c0.041,0.62-0.299,1.044-0.715,1.433c-0.496,0.144-0.947,0.006-1.367-0.209
		c-0.153-0.315-0.299-0.615-0.514-1.059c0-0.442,0-1.044,0-1.613c-0.139-0.131-0.241-0.228-0.38-0.359
		c-0.781,0.409-0.999,1.285-1.572,1.891c0.099,0.668-0.178,1.392,0.226,2.047c-0.063,1.004-0.181,2.309-1.594,2.992
		c-0.314,0.001-0.628,0.001-0.916,0.001c-0.566-0.532-0.52-1.263-0.721-1.896c-0.116-0.365,0.218-0.622,0.354-0.926
		c0.371-0.828,0.558-1.69,0.5-2.601c-0.383-0.427-0.234-0.951-0.201-1.421c0.07-0.978,0.227-1.944,0.218-2.935
		c-0.008-0.881,0.051-0.923-0.23-1.677c-0.024-0.063-0.003-0.143-0.003-0.293c0.204-0.204,0.448-0.447,0.688-0.689
		c-0.18-0.346-0.333-0.642-0.484-0.933c0.206-0.401,0.404-0.787,0.66-1.285c0-0.409-0.032-0.947,0.007-1.48
		c0.055-0.746-0.026-1.482-0.46-2.074c-0.342-0.466,0.02-1.062-0.412-1.456c0.094-0.511-0.208-1.067,0.176-1.546
		c-0.089-0.792,0.371-1.428,0.625-2.118c0.067-0.183,0.044-0.343,0.059-0.513c0.019-0.214-0.085-0.523,0.022-0.63
		c0.284-0.282,0.292-0.659,0.161-0.88c-0.224-0.375-0.198-0.903-0.66-1.137c-0.061-0.031-0.104-0.099-0.119-0.115
		c-0.195-0.824,0.03-1.552,0.419-2.208c0.142-0.239,0.179-0.443,0.18-0.684c0.003-1.188,0.006-2.375-0.002-3.563
		c-0.002-0.236,0.087-0.492-0.165-0.694c-0.076-0.061-0.029-0.266-0.049-0.404c-0.048-0.325,0.417-0.576,0.201-0.87
		c-0.192-0.261-0.167-0.514-0.205-0.786c-0.106-0.782,0.382-1.502,0.183-2.36c0.208-0.208,0.434-0.433,0.677-0.677
		c-0.07-0.382,0.431-0.707,0.142-1.233c-0.717-0.219-1.34-0.806-2.037-1.261c-0.513-0.335-0.592-1.042-0.676-1.64
		c-0.063-0.457-0.013-0.93-0.013-1.34c0.204-0.222,0.374-0.406,0.469-0.511c1.417-0.34,2.581,0.295,3.789,0.645
		c0.878,0.254,1.749,0.201,2.604,0.06c0.417-0.068,0.783-0.205,1.175,0.026c0.056,0.033,0.127,0.068,0.188,0.063
		c1.636-0.133,3.259,0.472,4.872,0.188c1.276-0.225,2.536-0.15,3.803-0.178c1.295-0.029,2.592,0.016,3.887-0.014
		c0.847-0.019,1.646,0.27,2.503,0.255c0.986-0.017,1.893-0.283,2.807-0.557c0.161-0.048,0.347-0.181,0.481-0.111
		c0.704,0.361,1.543,0.196,2.238,0.6c0.163,0.096,0.372,0.023,0.586-0.071c0.531-0.235,1.098-0.432,1.7-0.32
		c0.575,0.107,1.073-0.224,1.631-0.266c0.425-0.031,0.758-0.461,1.054-0.812c0.363,0,0.722,0,1.086,0
		c0.34,0.245,0.576,0.583,0.768,1.097c0,0.295-0.03,0.729,0.007,1.157c0.053,0.611-0.186,1.076-0.611,1.479
		c-0.261,0.247-0.51,0.507-0.765,0.762c-0.313,0.115-0.741-0.127-0.984,0.383c0,0.523-0.186,1.214,0.05,1.702
		c0.258,0.536-0.131,1.156,0.359,1.582c-0.04,0.772,0.266,1.5,0.235,2.287c-0.063,1.653-0.031,3.311-0.013,4.966
		c0.007,0.571-0.122,1.056-0.421,1.559c-0.515,0.867-0.469,0.895-0.414,2.171c0.076,0.076,0.152,0.153,0.234,0.235
		c0.291-0.209,0.616-0.192,0.974-0.128c0.084,0.413,0.18,0.826-0.35,1.046c-0.241,0.069-0.293-0.35-0.56-0.216
		c-0.111,0.203-0.222,0.407-0.335,0.616c0.173,0.323,0.253,0.709,0.623,0.965c0,0.358,0,0.745,0,1.092
		c0.165,0.166,0.292,0.293,0.458,0.458c0,0.568,0.031,1.177-0.009,1.781c-0.048,0.743,0.081,1.46,0.226,2.179
		c0.232,1.151,0.214,1.144-0.205,2.542c-0.153,0.513-0.276,1.035-0.424,1.551c-0.127,0.441,0.036,0.891,0.412,1.233
		c0,0.529-0.042,1.071,0.013,1.604c0.043,0.409-0.229,0.714-0.236,1.1c-0.019,0.839,0.078,1.64,0.366,2.441
		c0.149,0.414,0.173,0.949,0.047,1.367c-0.206,0.676-0.178,1.408-0.53,2.046c-0.178,0.32-0.203,0.729-0.01,1.002
		c0.378,0.533,0.373,1.098,0.338,1.687c-0.104,0.104-0.206,0.206-0.337,0.337c-0.496-0.138-0.912-0.616-1.474-0.444
		c-0.188-0.188-0.341-0.341-0.524-0.524c-0.059-1.115-0.298-2.196-1.268-2.966c-0.478,0.519-0.478,0.519-0.49,1.43
		c-0.169,0.155-0.374,0.344-0.586,0.538c-0.389,0.079-0.672-0.336-1.05-0.235c-0.327-0.327-0.633-0.632-0.926-0.926
		c-0.161-0.915,0.241-1.899-0.337-2.723c-0.341-0.034-0.526,0.198-0.537,0.349c-0.063,0.835-0.581,1.271-1.277,1.594
		c-1.186-0.352-1.456-1.333-1.533-2.38c-0.042-0.577-0.097-1.166,0.173-1.758c0.181-0.396-0.008-0.88-0.329-1.281
		c-0.678,0.104-0.665,0.913-1.163,1.198c0,0.597,0,1.171,0,1.715c-0.189,0.201-0.362,0.383-0.56,0.592
		c-1.234-0.364-2.539-0.615-3.375-1.731c-0.293-0.391-0.551-0.8-0.976-1.131c-0.684,0.155-0.665,1.028-1.179,1.255
		C34.161,52.221,33.754,51.517,32.97,51.559z M22.246,35.318c0.319,0.354,0.198,0.768,0.685,0.929
		c0.389,0.128,0.451,0.755,0.784,0.927c0.742,0.383,1.303,0.987,1.99,1.432c0.719,0.466,1.044,1.37,1.834,1.784
		c0.618,1.096,1.576,1.785,2.688,2.318c0.329,0.157,0.717,0.28,0.916,0.661c0.688-0.188,1.314,0.151,1.953,0.256
		c0.659,0.108,1.319,0.275,1.987,0.399c0.695,0.13,1.378,0.178,2.074,0.183c0.647,0.004,1.301-0.054,1.94,0.015
		c0.728,0.078,1.359-0.152,1.978-0.451c1.283-0.62,2.367-1.431,3.363-2.504c0.176-0.189,0.391-0.266,0.602-0.378
		c0.644-0.342,0.663-0.34,0.882-1.122c0.053-0.188,0.118-0.325,0.252-0.436c0.401-0.332,0.693-0.768,1.189-1.023
		c0.299-0.153,0.537-0.515,0.766-0.836c0.336-0.474,0.491-1.058,0.928-1.459c0.308-0.284,0.593-0.586,0.774-1.173
		c0.141-0.711-0.186-1.478-0.642-2.238c-0.322-0.537-0.627-1.08-1.117-1.471c-0.255-0.204-0.63-0.263-0.874-0.476
		c-0.853-0.742-1.788-1.4-2.507-2.283c-0.753-0.927-1.776-1.339-2.872-1.668c-0.828-0.249-1.66-0.512-2.44-0.875
		c-0.543-0.252-1.066-0.425-1.663-0.417c-1.042,0.015-2.084,0.004-3.107,0.004c-0.095,0.08-0.166,0.167-0.257,0.213
		c-1.271,0.656-2.665,1.016-3.917,1.75c-1.496,0.877-2.94,1.784-4.116,3.074c-0.233,0.255-0.459,0.459-0.509,0.88
		c-0.043,0.364-0.346,0.769-0.715,0.98c-0.712,0.409-1.219,0.985-1.681,1.658C23.104,34.421,22.858,34.945,22.246,35.318z
		 M48.955,19.913c-0.396-0.553-0.936-0.286-1.399-0.305c-0.11-0.004-0.369,0.213-0.314,0.531c0.288,0.201,0.454,0.698,0.998,0.49
		C48.464,20.403,48.691,20.177,48.955,19.913z"/>
	<path style="fill-rule:evenodd;clip-rule:evenodd;fill:none;" d="M22.246,35.318c0.613-0.374,0.858-0.897,1.167-1.347
		c0.462-0.672,0.969-1.249,1.681-1.658c0.369-0.212,0.672-0.616,0.715-0.98c0.05-0.421,0.276-0.625,0.509-0.88
		c1.175-1.29,2.62-2.197,4.116-3.074c1.252-0.735,2.646-1.094,3.917-1.75c0.091-0.047,0.162-0.133,0.257-0.213
		c1.023,0,2.065,0.011,3.107-0.004c0.597-0.009,1.12,0.164,1.663,0.417c0.78,0.363,1.612,0.627,2.44,0.875
		c1.096,0.33,2.119,0.742,2.872,1.668c0.719,0.883,1.654,1.542,2.507,2.283c0.244,0.212,0.619,0.271,0.874,0.476
		c0.49,0.391,0.795,0.934,1.117,1.471c0.456,0.76,0.782,1.527,0.642,2.238c-0.182,0.586-0.467,0.889-0.774,1.173
		c-0.437,0.401-0.592,0.986-0.928,1.459c-0.229,0.321-0.467,0.683-0.766,0.836c-0.496,0.256-0.788,0.691-1.189,1.023
		c-0.134,0.11-0.199,0.248-0.252,0.436c-0.219,0.782-0.238,0.78-0.882,1.122c-0.211,0.112-0.426,0.188-0.602,0.378
		c-0.996,1.073-2.08,1.884-3.363,2.504c-0.618,0.299-1.25,0.529-1.978,0.451c-0.64-0.068-1.293-0.011-1.94-0.015
		c-0.696-0.005-1.378-0.053-2.074-0.183c-0.668-0.124-1.329-0.291-1.987-0.399c-0.638-0.104-1.265-0.443-1.953-0.256
		c-0.199-0.381-0.587-0.504-0.916-0.661c-1.111-0.533-2.069-1.223-2.688-2.318c-0.791-0.414-1.115-1.318-1.834-1.784
		c-0.687-0.444-1.248-1.049-1.99-1.432c-0.333-0.171-0.396-0.798-0.784-0.927C22.444,36.086,22.565,35.672,22.246,35.318z
		 M44.246,39.814c0-0.422,0-0.81,0-1.203c0.64-0.418,1.684-0.167,1.878-1.238c-0.033-0.491,0.168-1.044-0.14-1.559
		c0.385-0.282,0.763-0.437,1.239-0.487c0.605-0.063,1.362-0.072,1.379-1.014c0.001-0.081,0.178-0.125,0.095-0.435
		c-0.631-0.937-1.677-1.431-2.952-1.604c0.151-1.039-0.882-0.709-1.311-1.125c0-0.491,0-0.992,0-1.522
		c-0.938-0.905-2.043-1.356-3.328-1.17c-0.538-0.391-0.632-1.153-1.327-1.314c-0.575,0-1.151,0-1.728,0
		c-0.102,0.102-0.203,0.204-0.323,0.324c0,0.375-0.003,0.768,0.001,1.162c0.002,0.171,0.024,0.319,0.12,0.492
		c0.42,0.764,0.649,1.583,0.498,2.477c-0.137,0.085-0.19,0.301-0.403,0.299c-0.643-0.294-0.643-0.294-1.478,0.089
		c-0.041,0.117-0.062,0.217-0.108,0.305c-0.347,0.667-0.527,1.405-0.315,2.104c0.352,1.158,0.579,2.322,0.595,3.526
		c0.004,0.281,0.094,0.473,0.347,0.674c0.409,0,0.867,0,1.357,0c0,0.494,0,0.952,0,1.396c-0.433,0.755-0.747,1.531-0.579,2.43
		c0.476,0.538,1.08,0.158,1.503,0.268c0.429-0.211,0.716-0.479,1.131-0.424c0.453-0.341,0.787-0.783,1.042-1.261
		c0.43-0.103,0.852,0.051,1.237-0.239C43.13,40.421,43.652,40.167,44.246,39.814z M26.721,33.104
		c-0.893,0.514-1.997,0.605-2.381,1.872c0,0.116,0,0.403,0,0.693c0.271,0.255,0.466,0.552,0.947,0.588
		c0.305,0.022,0.754,0.26,0.898,0.636c0.203,0.531,0.613,0.8,1.235,1.087c0.362,0,0.892,0,1.381,0
		c0.114,0.114,0.19,0.19,0.304,0.305c0,0.275,0,0.589,0,0.67c0.25,0.365,0.392,0.571,0.475,0.692c0.399,0,0.68,0,0.938,0
		c0.262-0.271,0.546-0.482,0.626-0.877c0.289,0.207,0.432-0.464,0.793-0.02c-0.367,0.499-0.747,1.016-1.127,1.532
		c0.1,0.219,0.196,0.431,0.293,0.645c0.513,0.138,0.921,0.627,1.574,0.439c0.186,0.204,0.342,0.52,0.579,0.601
		c0.319,0.11,0.484,0.382,0.684,0.488c0.358,0,0.64,0,0.894,0c0.58-0.534,0.575-1.183,0.475-1.943
		c-0.318-0.293-0.686-0.632-1.048-0.965c0-0.812,0-1.599,0-2.381c-0.272-0.12-0.298-0.429-0.365-0.613
		c-0.26-0.713-0.489-1.507-0.175-2.223c0.202-0.46,0.217-0.933,0.375-1.357c0.182-0.493,0.135-0.957,0.181-1.435
		c0.026-0.269,0.076-0.539,0.129-0.799c0.112-0.548,0.558-0.851,0.731-1.512c-0.042-0.374-0.032-0.927,0.256-1.415
		c-0.249-0.254-0.461-0.472-0.664-0.679c-0.532,0.173-0.899,0.539-1.261,0.928c-1.171-0.262-2.014,0.127-2.442,1.179
		c-0.095,0.037-0.126,0.061-0.157,0.06c-0.721-0.024-1.37,0.043-1.688,0.861c-0.11,0.282-0.398,0.493-0.55,0.672
		c-0.42,0-0.703,0-0.965,0c-0.325,0.325-0.629,0.63-0.944,0.944C26.721,32.199,26.721,32.628,26.721,33.104z"/>
	<path style="fill-rule:evenodd;clip-rule:evenodd;fill:none;" d="M48.955,19.913c-0.264,0.264-0.49,0.49-0.716,0.716
		c-0.544,0.208-0.71-0.289-0.998-0.49c-0.055-0.317,0.204-0.535,0.314-0.531C48.019,19.627,48.559,19.36,48.955,19.913z"/>
	<path style="fill-rule:evenodd;clip-rule:evenodd;" d="M44.246,39.814c-0.594,0.353-1.115,0.606-1.569,0.949
		c-0.386,0.29-0.808,0.137-1.237,0.239c-0.255,0.478-0.589,0.92-1.042,1.261c-0.415-0.055-0.702,0.213-1.131,0.424
		c-0.423-0.109-1.027,0.271-1.503-0.268c-0.168-0.898,0.146-1.675,0.579-2.43c0-0.444,0-0.902,0-1.396c-0.49,0-0.948,0-1.357,0
		c-0.253-0.201-0.343-0.393-0.347-0.674c-0.016-1.204-0.244-2.368-0.595-3.526c-0.212-0.699-0.032-1.437,0.315-2.104
		c0.046-0.088,0.067-0.188,0.108-0.305c0.835-0.383,0.835-0.383,1.478-0.089c0.213,0.002,0.267-0.214,0.403-0.299
		c0.151-0.893-0.078-1.712-0.498-2.477c-0.096-0.172-0.118-0.32-0.12-0.492c-0.004-0.394-0.001-0.787-0.001-1.162
		c0.12-0.12,0.222-0.222,0.323-0.324c0.576,0,1.152,0,1.728,0c0.695,0.161,0.789,0.923,1.327,1.314
		c1.285-0.187,2.39,0.265,3.328,1.17c0,0.53,0,1.031,0,1.522c0.429,0.416,1.462,0.086,1.311,1.125
		c1.275,0.173,2.321,0.667,2.952,1.604c0.083,0.31-0.094,0.354-0.095,0.435c-0.017,0.942-0.773,0.951-1.379,1.014
		c-0.477,0.05-0.854,0.205-1.239,0.487c0.308,0.515,0.106,1.067,0.14,1.559c-0.194,1.071-1.238,0.82-1.878,1.238
		C44.246,39.005,44.246,39.393,44.246,39.814z M38.988,34.954c0.037,0.819-0.463,1.49-0.681,2.249
		c0.271,0.08,0.336,0.467,0.681,0.243C38.988,36.621,38.988,35.788,38.988,34.954z M45.518,32.646
		c-0.199-0.133-0.338-0.199-0.42,0.039C45.232,32.793,45.352,32.8,45.518,32.646z"/>
	<path style="fill-rule:evenodd;clip-rule:evenodd;" d="M26.721,33.104c0-0.476,0-0.905,0-1.325
		c0.314-0.314,0.619-0.619,0.944-0.944c0.263,0,0.545,0,0.965,0c0.152-0.179,0.44-0.391,0.55-0.672
		c0.318-0.818,0.967-0.885,1.688-0.861c0.03,0.001,0.062-0.022,0.157-0.06c0.429-1.052,1.271-1.441,2.442-1.179
		c0.362-0.39,0.729-0.755,1.261-0.928c0.203,0.207,0.415,0.424,0.664,0.679c-0.289,0.487-0.298,1.041-0.256,1.415
		c-0.173,0.661-0.619,0.963-0.731,1.512c-0.053,0.26-0.104,0.531-0.129,0.799c-0.046,0.478,0.001,0.942-0.181,1.435
		c-0.158,0.425-0.173,0.897-0.375,1.357c-0.314,0.715-0.085,1.51,0.175,2.223c0.067,0.185,0.093,0.493,0.365,0.613
		c0,0.782,0,1.569,0,2.381c0.362,0.333,0.729,0.672,1.048,0.965c0.1,0.761,0.105,1.409-0.475,1.943c-0.254,0-0.535,0-0.894,0
		c-0.2-0.106-0.365-0.378-0.684-0.488c-0.237-0.081-0.394-0.396-0.579-0.601c-0.653,0.188-1.061-0.302-1.574-0.439
		c-0.097-0.214-0.193-0.426-0.293-0.645c0.38-0.517,0.76-1.033,1.127-1.532c-0.361-0.444-0.504,0.227-0.793,0.02
		c-0.08,0.395-0.364,0.606-0.626,0.877c-0.257,0-0.539,0-0.938,0c-0.083-0.121-0.224-0.327-0.475-0.692c0-0.081,0-0.395,0-0.67
		c-0.114-0.114-0.19-0.19-0.304-0.305c-0.489,0-1.02,0-1.381,0c-0.622-0.287-1.032-0.557-1.235-1.087
		c-0.144-0.376-0.594-0.614-0.898-0.636c-0.481-0.036-0.676-0.333-0.947-0.588c0-0.29,0-0.577,0-0.693
		C24.724,33.709,25.828,33.618,26.721,33.104z"/>
	<path style="fill-rule:evenodd;clip-rule:evenodd;fill:none;" d="M38.988,34.954c0,0.833,0,1.667,0,2.492
		c-0.345,0.224-0.409-0.163-0.681-0.243C38.525,36.444,39.025,35.773,38.988,34.954z"/>
	<path style="fill-rule:evenodd;clip-rule:evenodd;fill:none;" d="M45.518,32.646c-0.166,0.154-0.286,0.146-0.42,0.039
		C45.18,32.448,45.319,32.514,45.518,32.646z"/>
</g>
</svg>
