<?xml version="1.0" encoding="iso-8859-1"?>
<!-- Generator: Adobe Illustrator 16.0.0, SVG Export Plug-In . SVG Version: 6.00 Build 0)  -->
<!DOCTYPE svg PUBLIC "-//W3C//DTD SVG 1.1//EN" "http://www.w3.org/Graphics/SVG/1.1/DTD/svg11.dtd">
<svg version="1.1" id="Layer_1" xmlns="http://www.w3.org/2000/svg" xmlns:xlink="http://www.w3.org/1999/xlink" x="0px" y="0px"
	 width="72.36px" height="72.18px" viewBox="0 0 72.36 72.18" style="enable-background:new 0 0 72.36 72.18;" xml:space="preserve"
	>
<g>
	
	<path fill="currentColor" d="M22.413,64.295c-0.265,0-0.588,0-1.032,0
		c-0.076-0.147-0.193-0.375-0.311-0.603c-0.053,0.042-0.106,0.084-0.159,0.127c0-0.313,0-0.627,0-0.971
		c0.358-0.161,0.324-0.76,0.677-0.846c0.511-0.124,0.524-0.601,0.82-0.855c0.297-0.256,0.289-0.682,0.59-1.032
		c0.344-0.177,0.759-0.391,1.193-0.614c0.659,0.631,0.613,1.593,1.157,2.238c0.544,0.646,1.004,1.366,1.726,1.903
		c0.094,0,0.237,0,0.44,0c0.145-0.354,0.011-0.749,0.071-1.109c-0.336-0.489-0.635-0.985-0.94-1.47
		c-0.35-0.556-0.57-1.201-0.789-1.828c-0.199-0.572-0.498-1.091-0.765-1.627c-0.104-0.208-0.309-0.292-0.706-0.145
		c-0.158,0.228-0.541,0.434-0.743,0.894c-0.162,0.368-0.533,0.714-0.896,0.911c-0.966,0.524-1.492,1.42-2.08,2.267
		c-0.688,0.99-1.542,1.099-2.411,0.24c-1.537-1.518-3.046-3.063-4.595-4.568c-0.262-0.254-0.382-0.573-0.583-0.85
		c-0.523-0.721-1.136-1.353-1.783-1.949c-0.244-0.226-0.421-0.508-0.503-0.768c-0.427-1.351-1.233-2.515-1.775-3.803
		c-0.115-0.271-0.345-0.407-0.468-0.668c-0.38-0.806-0.413-0.79-0.413-2.254c-0.652-0.802-1.113-1.708-0.721-3.189
		c0.126-0.595,1.182-0.512,1.77-1.101c0-0.145,0-0.313,0-0.526c-0.794-0.207-1.756,0.246-2.46-0.489
		c-0.306-0.835-0.232-1.717-0.356-2.566c-0.107-0.731-0.232-1.459-0.161-2.182c0.108-1.109,0.135-2.255,0.759-3.243
		c0.15-0.238-0.043-0.596,0.296-0.743c-0.147-0.702,0.343-1.163,0.668-1.665c0.459-0.709,0.9-1.407,1.103-2.248
		c0.116-0.486,0.553-0.795,0.903-1.135c0.431-0.417,0.82-0.838,0.807-1.509c-0.004-0.212,0.124-0.467,0.27-0.634
		c0.475-0.539,0.346-1.15,0.361-1.857c-0.983,0.38-0.977,1.165-1.125,1.961c-0.201,0.188-0.462,0.432-0.762,0.711
		C9,26.626,8.841,26.156,8.511,25.914c0.336-0.905,0.366-1.845,0.921-2.606c0.419-0.576,0.599-1.312,1.187-1.778
		c0.213,0,0.429,0,0.685,0c0.343,0.706,0.827,1.239,1.757,1.042c0.228-0.934-0.442-1.404-1.002-1.982c0-0.274,0-0.589,0-0.817
		c0.284-1.078,1.285-1.191,2.085-1.7c0.625,0,1.344,0.034,2.058-0.011c0.605-0.038,1.156,0.212,1.741,0.277
		c0.479,0.053,0.945,0.511,1.349,0.866c0.442,0.39,0.939,0.757,1.156,1.35c0,0.504,0,1.007,0,1.46
		c-0.218,0.391-0.434,0.733-0.604,1.097c-0.212,0.452-0.516,0.798-0.895,1.133c-0.526,0.464-1.165,0.789-1.615,1.35
		c-0.162,0.202-0.441,0.31-0.679,0.468c-0.272,0-0.56,0-0.856,0c-0.703-0.607-0.873-1.661-1.759-2.128
		c-0.153,0.169-0.022,0.28,0.064,0.444c0.497,0.948,0.731,2.036,1.531,2.824c0.06,0.059,0.027,0.201,0.063,0.295
		c0.259,0.684,0.301,1.455,0.786,2.048c0.137,0.168,0.079,0.346,0.066,0.509c-0.021,0.268,0.18,0.367,0.326,0.539
		c0.488-0.51,1.12-0.442,1.747-0.417c0.594,0.513,0.612,1.28,0.717,1.956c0.139,0.89,0.335,1.705,0.858,2.465
		c0.274,0.398,0.466,0.884,0.66,1.34c0.116,0.275,0.021,0.639,0.021,0.963c-0.375,0.682-0.808,1.328-1.22,1.985
		c-0.399,0.637-0.781,1.357-0.72,2.177c0.024,0.327-0.382,0.529-0.248,0.82c-0.333,0.361-0.647,0.704-0.924,1.005
		c-0.407,0.149-0.615-0.214-0.928-0.232c-0.533-1.261-0.748-2.692-1.976-3.683c-0.047,0.704-0.074,1.291,0.373,1.901
		c0.428,0.585,0.463,1.403,1.08,1.931c0.294,0.252,0.329,0.739,0.425,1.104c0.161,0.614,0.474,1.101,0.792,1.625
		c0.395,0.649,0.666,1.376,0.967,2.079c0.293,0.687,0.665,1.32,1.109,1.918c0.159,0.214,0.298,0.45,0.401,0.695
		c0.356,0.843,0.903,1.571,1.337,2.379c0.302,0,0.583,0,0.958,0c0.302-0.421,0.848-0.674,1.333-1.048
		c0.729,0.172,1.175,0.725,1.53,1.37c0.563,1.022,1.118,1.596,2.13,2.072c0.497,0.233,0.992,0.401,1.204,1.009
		c0.072,0.209,0.311,0.444,0.629,0.52c0.535,0.128,0.854,0.58,1.24,0.949c0,0.204,0,0.417,0,0.623
		c0.251,0.247,0.417,0.596,0.718,0.604c0.439-0.063,0.544-0.377,0.783-0.537c0-0.238,0-0.479,0-0.69
		c-0.313-0.438-0.859-0.278-1.229-0.656c-0.101-0.324-0.169-0.771-0.372-1.146c-0.235-0.435-0.749-0.614-1.15-0.857
		c-0.349-0.212-0.71-0.469-0.839-0.769c-0.294-0.688-0.813-0.757-1.432-0.783c-0.86-0.615-1.346-1.511-1.641-2.511
		c-0.102-0.346-0.377-0.487-0.569-0.718c-0.961-0.09-0.869,1.024-1.569,1.292c-0.512,0-1.086,0-1.679,0
		c-0.621-0.694-0.764-1.625-1.145-2.439c-0.212-0.454-0.405-0.912-0.666-1.344c-0.399-0.659-0.742-1.353-1.159-2
		c-0.265-0.413-0.049-0.832-0.134-1.152c0.324-0.657,0.626-1.234,1.142-1.673c0.169-0.145,0.334-0.388,0.354-0.599
		c0.109-1.206,0.723-2.219,1.17-3.3c0.507-1.229,1.167-2.399,1.53-3.685c0.184-0.649,0.376-1.272,0.755-1.852
		c0.361-0.552,0.536-1.227,0.894-1.782c0.402-0.626,0.417-1.346,0.612-2.015c0.297-1.022,0.278-1.313,0.814-1.927
		c0.569-0.65,0.756-1.45,0.902-2.217c0.179-0.942,0.409-1.823,0.88-2.669c0.403-0.723,0.479-1.592,0.868-2.338
		c0.059-0.113,0.073-0.347,0.002-0.415c-0.417-0.4-0.102-0.889-0.222-1.297c0.126-0.126,0.228-0.228,0.331-0.331
		c0.626-0.023,1.241-0.07,1.759,0.433c0.543,0.527,0.545,1.17,0.521,1.841c-0.014,0.358-0.002,0.717-0.002,0.984
		c0.3,0.582,0.56,1.088,0.833,1.619c0.012,1.052,0.612,1.937,0.924,2.954c0.489-0.178,0.858-0.346,1.135-0.688
		c0.307,0,0.621,0,0.88,0c0.43,0.703,0.321,1.447,0.331,2.043c0.175,0.755,0.712,1.181,0.879,1.822
		c0.15,0.576,0.483,1.105,0.618,1.683c0.18,0.771,0.548,1.394,1.126,1.913c0.134,0.12,0.25,0.259,0.384,0.379
		c0.462,0.419,0.746,0.909,0.669,1.561c-0.017,0.139-0.002,0.282-0.002,0.314c0.309,0.6,0.569,1.106,0.865,1.681
		c-0.19,0.589,0.25,1.098,0.48,1.698c0.193,0.15,0.452,0.022,0.745,0.068c0.481-1.38,1.31-2.604,1.922-3.934
		c0.293-0.638,0.769-0.913,1.444-1.083c0.16,0.223,0.326,0.452,0.581,0.805c-0.021,0.447,0.085,1.078,0.544,1.606
		c0.262,0.301-0.053,0.786,0.329,1.052c-0.074,0.774,0.389,1.386,0.771,1.939c0.522,0.755,0.696,1.593,0.95,2.422
		c0.049,0.161,0.065,0.314,0.149,0.48c0.345,0.682,0.625,1.396,0.94,2.093c0.185,0.406,0.336,0.842,0.787,1.058
		c0.344-0.332,0.605-0.726,0.756-1.267c0.158-0.568,0.525-1.098,0.966-1.54c0.563-0.564,1.2-1.067,1.467-1.876
		c0.06-0.184,0.291-0.311,0.447-0.466c0.355,0,0.715,0,1.078,0c0.256,0.378,0.375,0.791,0.331,1.258
		c-0.083,0.883,0.089,1.714,0.591,2.452c0.131,0.193-0.07,0.438,0.156,0.598c0.131,0,0.272,0,0.428,0
		c0.601-0.385,0.712-1.245,1.493-1.524c0.494-0.177,0.916-0.555,1.479-0.648c0.473,0.313,0.438,0.669,0.251,1.16
		c-0.178,0.467-0.467,0.976-0.274,1.49c0.095,0.252,0.199,0.495,0.232,0.761c0.165,0.125,0.344,0.046,0.521,0.056
		c0.084-0.148,0.255-0.213,0.313-0.409c0.29-0.956,0.856-1.804,1.082-2.793c0.179-0.777,0.729-1.385,1.218-1.967
		c0.502-0.595,0.803-1.244,1.048-1.952c0.242-0.7,0.25-0.697,0.824-1.044c0.7,0.277,0.863,0.266,1.417-0.114c0-0.445,0-0.902,0-1.39
		c-0.749-0.118-1.435,0.01-2.134,0.257c-0.572,0.203-1.168,0.449-1.799,0.344c-0.578-0.096-1.064,0.341-1.64,0.228
		c-0.267-0.052-0.525-0.095-0.788-0.174c-0.441-0.134-0.896-0.388-1.409-0.269c-0.462,0.106-0.853-0.192-1.27-0.318
		c-0.313-0.095-0.598-0.292-0.893-0.447c-0.419-0.219-0.767-0.387-1.313-0.127c-0.623,0.297-1.372,0.346-2.073,0.456
		c-0.258,0.04-0.519-0.031-0.798-0.14c-0.426-0.165-0.89-0.381-1.398-0.286c-0.368,0.068-0.659-0.172-0.92-0.371
		c-0.584-0.447-0.959-1.134-1.663-1.464c-0.067-0.031-0.087-0.314-0.229-0.41c-0.084-1.063-0.002-2.054,0.964-2.688
		c1.268-0.188,2.402,0.123,3.487,0.83c0.239,0,0.526,0,0.832,0c0.263-0.272,0.537-0.557,0.797-0.826
		c0.422-0.1,0.837,0.037,1.233-0.23c0.302-0.203,0.657,0.159,0.961,0.252s0.596,0.116,0.97,0.187
		c0.122-0.916-0.261-1.988,0.914-2.634c0.993,0.363,2.162,0.191,3.321,0.242c0.137,0.454,0.542,0.704,0.83,1.038
		c0.522,0.108,0.958-0.041,1.279-0.339c0.944-0.263,1.78,0.193,2.589,0.167c0.38,0.196,0.708,0.364,1.033,0.531
		c0.396,0.365,0.411,0.836,0.441,1.334c0.072,1.205-0.119,2.331-0.811,3.34c-0.072,0.105-0.056,0.198-0.064,0.299
		c-0.005,0.071-0.001,0.143-0.001,0.213c0.353,0.051,0.812,0.001,1.063-0.114c0.33,0.031,0.397,0.389,0.665,0.5
		c0,1.711-0.011,3.401,0.006,5.089c0.005,0.527-0.105,1.077-0.331,1.479c-0.301,0.537-0.318,1.049-0.321,1.6
		c-0.006,0.957-0.025,0.947-0.61,2.232c-0.103,0.226-0.243,0.523-0.233,0.757c0.032,0.83-0.313,1.538-0.691,2.204
		c-0.326,0.575-0.453,1.193-0.597,1.802c-0.059,0.246-0.368,0.371-0.257,0.655c-0.758,0.957-1.244,2.072-1.834,3.128
		c-0.283,0.507-0.567,1.014-0.989,1.426c-0.198,0.193-0.353,0.405-0.481,0.663c-0.115,0.231-0.281,0.557-0.455,0.649
		c-0.255,0.137-0.459,0.304-0.653,0.495c-0.87,0.861-1.741,1.721-2.594,2.599c-0.323,0.334-0.701,0.532-1.19,0.695
		c-0.288-0.277-0.573-0.465-0.685-0.959c-0.142-0.633-0.51-1.229-0.853-1.798c-0.211-0.351-0.563-0.611-1.174-0.685
		c-0.517,0.365-1.375,0.469-2.088,0.932c-0.334,0.216-0.764,0.038-1.134,0.087c-0.42-0.404-0.704-0.816-0.795-1.427
		c-0.09-0.608-0.37-1.218-0.686-1.757c-0.537-0.919-0.821-1.896-1.027-2.929c-0.138-0.688-0.316-1.407-1.001-1.898
		c-0.142,0.527-0.006,1.056-0.084,1.567c0.638,0.893,1.013,1.912,1.287,2.929c0.328,1.222,0.871,2.311,1.546,3.423
		c-0.081,0.728,0.113,1.392,0.918,1.866c0.507-0.289,1.029-0.68,1.615-0.896c0.606-0.224,1.268-0.365,2.041-0.166
		c0.313,0.916,0.945,1.774,1.065,2.746c-0.587,0.861-1.361,1.277-2.256,1.502c-0.517,0.656-1.4,0.628-2.034,1.1
		c-0.584,0.435-1.264,0.756-1.935,1.052c-1.309,0.576-2.615,1.16-4.007,1.531c-0.832,0.222-1.64,0.533-2.523,0.424
		c-0.106-0.014-0.249-0.047-0.319,0.005c-0.739,0.538-1.629,0.261-2.407,0.463c-0.993,0.258-1.971,0.069-2.943,0.19
		c-0.513,0.063-0.928-0.267-1.424-0.235c-0.502,0.031-1.035,0.111-1.506-0.014c-1.159-0.305-2.332-0.489-3.516-0.627
		c-0.336-0.351-0.833-0.193-1.244-0.395c-0.397-0.194-0.89-0.339-1.406-0.268c-0.592,0.082-1.193-0.174-1.595-0.522
		c-0.322-0.279-0.694-0.391-1.006-0.463C23.705,65.277,23.172,64.761,22.413,64.295z M34.191,63.887
		c0.271-0.208,0.334,0.367,0.557,0.227c0.245-0.23,0.427-0.402,0.431-0.406c0.39-0.84,0.476-1.529,0.988-2.109
		c0.389-0.44,0.806-0.872,1.152-1.346c0.414-0.568,0.676-1.227,0.615-2.011c-0.617,0.022-1.173-0.027-1.929,0.058
		c0.479,0.767,0.449,1.498,0.424,2.078c-0.334,0.756-0.633,1.377-1.201,1.73c-0.309,0.079-0.628-0.095-0.826,0.222
		c-0.181-0.329-0.612-0.052-0.786-0.299c-0.273-0.283-0.333-0.626-0.479-0.918c-0.218-0.095-0.431-0.187-0.664-0.288
		c-1.181,1.061-2.179,2.323-3.417,3.255c-0.25,0-0.429-0.01-0.607,0.003c-0.207,0.014-0.424-0.063-0.618,0.063
		c-0.027,1.045,0.252,1.47,1.094,1.663c0.42-0.227,0.681-0.629,0.778-1.041c0.071-0.3,0.271-0.479,0.358-0.717
		c0.225-0.612,0.856-0.884,1.108-1.48c0.146-0.346,0.583-0.443,0.985-0.436c0.391,0.007,0.782,0.002,1.17,0.002
		C33.727,62.638,33.756,63.283,34.191,63.887z M44.76,47.893c0.275,0.325,0.679,0.563,0.835,1.029
		c0.053,0.158,0.239,0.381,0.549,0.17c0.085-0.794-0.37-1.381-0.884-2.056c0.287-0.59-0.284-1.182-0.217-1.647
		c-0.275-0.267-0.461-0.447-0.661-0.642c-0.417,0.608-0.668,1.397-0.787,2.164c-0.14,0.895-0.397,1.694-0.899,2.421
		c0,0.403-0.003,0.797,0.001,1.191c0.005,0.416,0.017,0.833,0.027,1.313c1.102-0.924,0.778-2.104,0.843-3.229
		C43.937,48.414,44.052,47.815,44.76,47.893z M40.428,52.632c-0.644,0.634-0.597,1.535-1.19,2.084
		c0.047,0.234-0.098,0.495,0.089,0.709c0.325,0.083,0.435-0.197,0.599-0.356c0.176-0.172,0.312-0.385,0.345-0.427
		c0.77-0.174,1.251,0.053,1.693,0.343c0.182-0.182,0.334-0.334,0.518-0.519c-0.014-0.592,0.024-1.217-0.023-1.834
		C41.719,52.632,41.075,52.632,40.428,52.632z M14.081,36.868c-0.253,0.172-0.578,0.274-0.685,0.486
		c-0.401,0.797-0.979,1.437-1.628,2.02c-0.173,0.155-0.2,0.361-0.284,0.536c-0.259,0.534-0.536,1.04-1.007,1.418
		c-0.111,0.09-0.216,0.189-0.175,0.369c0.174,0.283,0.379,0.151,0.48-0.04c0.425-0.809,1.173-1.316,1.768-1.966
		c0.45-0.49,0.984-0.908,1.255-1.515c0.283-0.014,0.524-0.026,0.788-0.039c0-0.28,0-0.521,0-0.758
		C14.434,37.222,14.281,37.068,14.081,36.868z M32.966,56.203c0.592,0.552,1.409,0.613,2.254,1.081
		c-0.324-1.035-0.553-1.869-1.418-2.302C33.352,55.29,33.109,55.689,32.966,56.203z"/>
	<path fill="currentColor" d="M45.868,21.096c-0.628-0.417-1.23-0.622-1.95-0.272
		c-0.234,0.114-0.555,0.053-0.773,0.067c-0.878-0.321-1.487-1.021-2.379-1.194c-0.475-0.092-0.715-0.537-0.965-0.743
		c-0.374-0.701-0.329-1.331-0.054-1.91c0.253-0.529,0.4-1.188,1.118-1.35c0.432,0,0.862,0,1.262,0
		c0.45-0.287,0.878-0.56,1.358-0.867c0.486,0.077,1.049-0.142,1.578,0.205c0.151,0.099,0.463,0.092,0.63,0.002
		c0.743-0.398,1.532-0.096,2.315-0.224c0.381-0.384,0.784-0.792,1.171-1.183c0.667-0.309,1.446-0.317,1.829-1.127
		c0.202-0.429,0.684-0.725,1.057-1.097c0.586-0.126,1.048,0.119,1.457,0.537c0.967,0.987,2.13,1.766,3.037,2.819
		c0.134,0.156,0.341,0.221,0.506,0.326c0.993,0.63,1.757,1.528,2.595,2.34c0.156,0.152,0.052,0.437,0.309,0.525
		c0,0.284,0,0.569,0,0.89c-0.28,0.219-0.469,0.59-0.844,0.74c-0.4,0.161-0.804,0.37-1.223,0.418
		c-0.723,0.083-1.459-0.05-2.179,0.216c-0.269,0.1-0.634,0.091-0.876-0.207c-0.3,0.155-0.65,0.213-0.891,0.525
		c-0.233,0.465,0.533,0.859,0.104,1.363c-0.193,0.377-0.559,0.29-0.91,0.26c-0.368-0.566,0.365-1.044,0.073-1.615
		c-0.281-0.038-0.469-0.303-0.696-0.521c-0.282,0-0.568,0-0.881,0c-0.585,0.737-1.501,0.829-2.335,1.058
		c-0.418,0.115-0.887-0.013-1.313,0.224c-0.272,0.151-0.514-0.16-0.769-0.19C46.769,21.057,46.297,21.096,45.868,21.096z"/>
	
	
	
	
	
</g>
</svg>
