<svg xmlns="http://www.w3.org/2000/svg" xml:space="preserve" width="72px" height="72px" viewBox="0 0 72 72">
    <path fill="currentColor" d="M22.413 64.295h-1.032l-.311-.603-.159.127v-.971c.358-.161.324-.76.677-.846.511-.124.524-.601.82-.855.297-.256.289-.682.59-1.032l1.193-.614c.659.631.613 1.593 1.157 2.238.544.646 1.004 1.366 1.726 1.903h.44c.145-.354.011-.749.071-1.109-.336-.489-.635-.985-.94-1.47-.35-.556-.57-1.201-.789-1.828-.199-.572-.498-1.091-.765-1.627-.104-.208-.309-.292-.706-.145-.158.228-.541.434-.743.894-.162.368-.533.714-.896.911-.966.524-1.492 1.42-2.08 2.267-.688.99-1.542 1.099-2.411.24-1.537-1.518-3.046-3.063-4.595-4.568-.262-.254-.382-.573-.583-.85-.523-.721-1.136-1.353-1.783-1.949a1.85 1.85 0 0 1-.503-.768c-.427-1.351-1.233-2.515-1.775-3.803-.115-.271-.345-.407-.468-.668-.38-.806-.413-.79-.413-2.254-.652-.802-1.113-1.708-.721-3.189.126-.595 1.182-.512 1.77-1.101v-.526c-.794-.207-1.756.246-2.46-.489-.306-.835-.232-1.717-.356-2.566-.107-.731-.232-1.459-.161-2.182.108-1.109.135-2.255.759-3.243.15-.238-.043-.596.296-.743-.147-.702.343-1.163.668-1.665.459-.709.9-1.407 1.103-2.248.116-.486.553-.795.903-1.135.431-.417.82-.838.807-1.509-.004-.212.124-.467.27-.634.475-.539.346-1.15.361-1.857-.983.38-.977 1.165-1.125 1.961l-.762.711c-.487.126-.646-.344-.976-.586.336-.905.366-1.845.921-2.606.419-.576.599-1.312 1.187-1.778h.685c.343.706.827 1.239 1.757 1.042.228-.934-.442-1.404-1.002-1.982v-.817c.284-1.078 1.285-1.191 2.085-1.7.625 0 1.344.034 2.058-.011.605-.038 1.156.212 1.741.277.479.053.945.511 1.349.866.442.39.939.757 1.156 1.35v1.46c-.218.391-.434.733-.604 1.097-.212.452-.516.798-.895 1.133-.526.464-1.165.789-1.615 1.35-.162.202-.441.31-.679.468h-.856c-.703-.607-.873-1.661-1.759-2.128-.153.169-.022.28.064.444.497.948.731 2.036 1.531 2.824.06.059.027.201.063.295.259.684.301 1.455.786 2.048.137.168.079.346.066.509-.021.268.18.367.326.539.488-.51 1.12-.442 1.747-.417.594.513.612 1.28.717 1.956.139.89.335 1.705.858 2.465.274.398.466.884.66 1.34.116.275.021.639.021.963-.375.682-.808 1.328-1.22 1.985-.399.637-.781 1.357-.72 2.177.024.327-.382.529-.248.82l-.924 1.005c-.407.149-.615-.214-.928-.232-.533-1.261-.748-2.692-1.976-3.683-.047.704-.074 1.291.373 1.901.428.585.463 1.403 1.08 1.931.294.252.329.739.425 1.104.161.614.474 1.101.792 1.625.395.649.666 1.376.967 2.079.293.687.665 1.32 1.109 1.918.159.214.298.45.401.695.356.843.903 1.571 1.337 2.379h.958c.302-.421.848-.674 1.333-1.048.729.172 1.175.725 1.53 1.37.563 1.022 1.118 1.596 2.13 2.072.497.233.992.401 1.204 1.009.072.209.311.444.629.52.535.128.854.58 1.24.949v.623c.251.247.417.596.718.604.439-.063.544-.377.783-.537v-.69c-.313-.438-.859-.278-1.229-.656-.101-.324-.169-.771-.372-1.146-.235-.435-.749-.614-1.15-.857-.349-.212-.71-.469-.839-.769-.294-.688-.813-.757-1.432-.783-.86-.615-1.346-1.511-1.641-2.511-.102-.346-.377-.487-.569-.718-.961-.09-.869 1.024-1.569 1.292h-1.679c-.621-.694-.764-1.625-1.145-2.439-.212-.454-.405-.912-.666-1.344-.399-.659-.742-1.353-1.159-2-.265-.413-.049-.832-.134-1.152.324-.657.626-1.234 1.142-1.673.169-.145.334-.388.354-.599.109-1.206.723-2.219 1.17-3.3.507-1.229 1.167-2.399 1.53-3.685.184-.649.376-1.272.755-1.852.361-.552.536-1.227.894-1.782.402-.626.417-1.346.612-2.015.297-1.022.278-1.313.814-1.927.569-.65.756-1.45.902-2.217.179-.942.409-1.823.88-2.669.403-.723.479-1.592.868-2.338.059-.113.073-.347.002-.415-.417-.4-.102-.889-.222-1.297l.331-.331c.626-.023 1.241-.07 1.759.433.543.527.545 1.17.521 1.841-.014.358-.002.717-.002.984l.833 1.619c.012 1.052.612 1.937.924 2.954.489-.178.858-.346 1.135-.688h.88c.43.703.321 1.447.331 2.043.175.755.712 1.181.879 1.822.15.576.483 1.105.618 1.683.18.771.548 1.394 1.126 1.913.134.12.25.259.384.379.462.419.746.909.669 1.561-.017.139-.002.282-.002.314l.865 1.681c-.19.589.25 1.098.48 1.698.193.15.452.022.745.068.481-1.38 1.31-2.604 1.922-3.934.293-.638.769-.913 1.444-1.083l.581.805a2.3 2.3 0 0 0 .544 1.606c.262.301-.053.786.329 1.052-.074.774.389 1.386.771 1.939.522.755.696 1.593.95 2.422.049.161.065.314.149.48.345.682.625 1.396.94 2.093.185.406.336.842.787 1.058.344-.332.605-.726.756-1.267.158-.568.525-1.098.966-1.54.563-.564 1.2-1.067 1.467-1.876.06-.184.291-.311.447-.466h1.078c.256.378.375.791.331 1.258-.083.883.089 1.714.591 2.452.131.193-.07.438.156.598h.428c.601-.385.712-1.245 1.493-1.524.494-.177.916-.555 1.479-.648.473.313.438.669.251 1.16-.178.467-.467.976-.274 1.49.095.252.199.495.232.761.165.125.344.046.521.056.084-.148.255-.213.313-.409.29-.956.856-1.804 1.082-2.793.179-.777.729-1.385 1.218-1.967.502-.595.803-1.244 1.048-1.952.242-.7.25-.697.824-1.044.7.277.863.266 1.417-.114v-1.39c-.749-.118-1.435.01-2.134.257-.572.203-1.168.449-1.799.344-.578-.096-1.064.341-1.64.228-.267-.052-.525-.095-.788-.174-.441-.134-.896-.388-1.409-.269-.462.106-.853-.192-1.27-.318-.313-.095-.598-.292-.893-.447-.419-.219-.767-.387-1.313-.127-.623.297-1.372.346-2.073.456-.258.04-.519-.031-.798-.14-.426-.165-.89-.381-1.398-.286-.368.068-.659-.172-.92-.371-.584-.447-.959-1.134-1.663-1.464-.067-.031-.087-.314-.229-.41-.084-1.063-.002-2.054.964-2.688 1.268-.188 2.402.123 3.487.83h.832l.797-.826c.422-.1.837.037 1.233-.23.302-.203.657.159.961.252s.596.116.97.187c.122-.916-.261-1.988.914-2.634.993.363 2.162.191 3.321.242.137.454.542.704.83 1.038.522.108.958-.041 1.279-.339.944-.263 1.78.193 2.589.167l1.033.531c.396.365.411.836.441 1.334.072 1.205-.119 2.331-.811 3.34-.072.105-.056.198-.064.299-.005.071-.001.143-.001.213.353.051.812.001 1.063-.114.33.031.397.389.665.5 0 1.711-.011 3.401.006 5.089.005.527-.105 1.077-.331 1.479-.301.537-.318 1.049-.321 1.6-.006.957-.025.947-.61 2.232-.103.226-.243.523-.233.757.032.83-.313 1.538-.691 2.204-.326.575-.453 1.193-.597 1.802-.059.246-.368.371-.257.655-.758.957-1.244 2.072-1.834 3.128-.283.507-.567 1.014-.989 1.426a2.4 2.4 0 0 0-.481.663c-.115.231-.281.557-.455.649a2.8 2.8 0 0 0-.653.495c-.87.861-1.741 1.721-2.594 2.599-.323.334-.701.532-1.19.695-.288-.277-.573-.465-.685-.959-.142-.633-.51-1.229-.853-1.798-.211-.351-.563-.611-1.174-.685-.517.365-1.375.469-2.088.932-.334.216-.764.038-1.134.087-.42-.404-.704-.816-.795-1.427-.09-.608-.37-1.218-.686-1.757-.537-.919-.821-1.896-1.027-2.929-.138-.688-.316-1.407-1.001-1.898-.142.527-.006 1.056-.084 1.567.638.893 1.013 1.912 1.287 2.929.328 1.222.871 2.311 1.546 3.423-.081.728.113 1.392.918 1.866.507-.289 1.029-.68 1.615-.896.606-.224 1.268-.365 2.041-.166.313.916.945 1.774 1.065 2.746-.587.861-1.361 1.277-2.256 1.502-.517.656-1.4.628-2.034 1.1-.584.435-1.264.756-1.935 1.052-1.309.576-2.615 1.16-4.007 1.531-.832.222-1.64.533-2.523.424-.106-.014-.249-.047-.319.005-.739.538-1.629.261-2.407.463-.993.258-1.971.069-2.943.19-.513.063-.928-.267-1.424-.235-.502.031-1.035.111-1.506-.014-1.159-.305-2.332-.489-3.516-.627-.336-.351-.833-.193-1.244-.395-.397-.194-.89-.339-1.406-.268-.592.082-1.193-.174-1.595-.522-.322-.279-.694-.391-1.006-.463-.771-.177-1.304-.693-2.063-1.159m11.778-.408c.271-.208.334.367.557.227l.431-.406c.39-.84.476-1.529.988-2.109.389-.44.806-.872 1.152-1.346.414-.568.676-1.227.615-2.011-.617.022-1.173-.027-1.929.058.479.767.449 1.498.424 2.078-.334.756-.633 1.377-1.201 1.73-.309.079-.628-.095-.826.222-.181-.329-.612-.052-.786-.299-.273-.283-.333-.626-.479-.918l-.664-.288c-1.181 1.061-2.179 2.323-3.417 3.255-.25 0-.429-.01-.607.003-.207.014-.424-.063-.618.063-.027 1.045.252 1.47 1.094 1.663.42-.227.681-.629.778-1.041.071-.3.271-.479.358-.717.225-.612.856-.884 1.108-1.48.146-.346.583-.443.985-.436.391.007.782.002 1.17.002.403.501.432 1.146.867 1.75M44.76 47.893c.275.325.679.563.835 1.029.053.158.239.381.549.17.085-.794-.37-1.381-.884-2.056.287-.59-.284-1.182-.217-1.647l-.661-.642c-.417.608-.668 1.397-.787 2.164-.14.895-.397 1.694-.899 2.421 0 .403-.003.797.001 1.191.005.416.017.833.027 1.313 1.102-.924.778-2.104.843-3.229.37-.193.485-.792 1.193-.714m-4.332 4.739c-.644.634-.597 1.535-1.19 2.084.047.234-.098.495.089.709.325.083.435-.197.599-.356.176-.172.312-.385.345-.427.77-.174 1.251.053 1.693.343l.518-.519c-.014-.592.024-1.217-.023-1.834zM14.081 36.868c-.253.172-.578.274-.685.486-.401.797-.979 1.437-1.628 2.02-.173.155-.2.361-.284.536-.259.534-.536 1.04-1.007 1.418-.111.09-.216.189-.175.369.174.283.379.151.48-.04.425-.809 1.173-1.316 1.768-1.966.45-.49.984-.908 1.255-1.515l.788-.039v-.758c-.159-.157-.312-.311-.512-.511m18.885 19.335c.592.552 1.409.613 2.254 1.081-.324-1.035-.553-1.869-1.418-2.302-.45.308-.693.707-.836 1.221m12.902-35.107c-.628-.417-1.23-.622-1.95-.272-.234.114-.555.053-.773.067-.878-.321-1.487-1.021-2.379-1.194-.475-.092-.715-.537-.965-.743-.374-.701-.329-1.331-.054-1.91.253-.529.4-1.188 1.118-1.35h1.262l1.358-.867c.486.077 1.049-.142 1.578.205.151.099.463.092.63.002.743-.398 1.532-.096 2.315-.224l1.171-1.183c.667-.309 1.446-.317 1.829-1.127.202-.429.684-.725 1.057-1.097.586-.126 1.048.119 1.457.537.967.987 2.13 1.766 3.037 2.819.134.156.341.221.506.326.993.63 1.757 1.528 2.595 2.34.156.152.052.437.309.525v.89c-.28.219-.469.59-.844.74-.4.161-.804.37-1.223.418-.723.083-1.459-.05-2.179.216-.269.1-.634.091-.876-.207-.3.155-.65.213-.891.525-.233.465.533.859.104 1.363-.193.377-.559.29-.91.26-.368-.566.365-1.044.073-1.615-.281-.038-.469-.303-.696-.521h-.881c-.585.737-1.501.829-2.335 1.058-.418.115-.887-.013-1.313.224-.272.151-.514-.16-.769-.19-.46-.054-.932-.015-1.361-.015"/>
</svg>
