<svg xmlns="http://www.w3.org/2000/svg" xml:space="preserve" width="72px" height="72px" viewBox="0 0 72 72">
    <path fill="currentColor" d="M31.576 39.888h1.326l.8.901c.208-.219.15-.355.004-.5-.145-.145-.237-.313-.33-.509-.31-.653-.698-1.269-1.27-1.749-.176-.147-.359-.296-.45-.565-.092-.274-.354-.479-.664-.618-.301-.136-.641-.246-.861-.545-.067-.091-.243-.097-.358-.162-.087-.05-.139-.134-.266-.147-1.42-.151-2.683-1.065-4.201-.83-.598.406-.91 1.052-1.189 1.724-.304.73-.82 1.241-1.488 1.494-1.016-.07-1.269-.819-1.586-1.575-.443.227-.867.355-1.465.22l-.493-.637-.798.798c0 .334-.035.728.007 1.112.092.853-.317 1.644-.24 2.504.077.857.017 1.727.017 2.591.338.734 1.089 1.408.298 2.314h-1.09c-2.05-2.036-3.466-4.572-4.987-7.117-.131 0-.386-.077-.55.012-1.079.593-1.923-.027-2.726-.564-.755-.505-1.063-1.341-1.088-2.233-.035-1.258-.013-2.519-.007-3.779.003-.545.67-1.994 1.137-2.209.445-.206.686-.58 1.043-.843-.086-.326-.231-.536-.573-.544-.103-.204-.263-.403-.299-.623-.04-.243-.026-.485-.261-.582.305-.739.457-1.467 1.099-1.907-.001-.451.372-.593.678-.655.443-.09.58-.617 1.039-.63.711-.794 1.702-1.083 2.656-1.405.329-.111.659-.188.899-.432.406-.411.961-.531 1.46-.642.969-.216 1.815-.639 2.692-1.08 1.194-.601 2.159-1.459 3.139-2.322.135-.119.323-.232.372-.384.293-.928 1.151-1.021 1.873-1.175a3.8 3.8 0 0 0 1.375-.591c.415-.285.847-.407 1.303-.521.587-.147 1.177-.267 1.67-.668.348-.283.789-.384 1.23-.409.466-.026.936-.006 1.403-.006.432 0 .89.089 1.289-.024.406-.116.792-.226 1.043-.199 1.256-.564 2.183-1.295 2.672-2.654.01-.895.135-1.23.761-1.873h.583c.296.278.566.515.812.776.055.058-.022.211.113.292h.613c.556-.293.854-.851 1.134-1.344.532-.938 1.242-1.358 2.337-1.221.417.175.5.685.746.931l.852-.852.136.128h1.085c.437.285.594.887 1.159 1.074.688-.353 1.365-.323 2.015.137.486.344.989.667 1.331 1.149.99-.097 1.709.45 2.457.914.177.11.311.275.477.403.858.665 1.744 1.306 2.469 2.122.299.336.455.765.349 1.209.515.381.716.472 1.224.564l.954.954v1.157h.991c.865.334 1.316.843 1.587 1.498.101.241-.053.534.187.797.128.14.052.466.068.708.567.422 1.291.595 1.709 1.314-.216.798.272 1.628.203 2.546.822.594 1.279 1.519 1.93 2.393.149 1.268-.112 2.471-1.255 3.369-.007.103-.021.206-.021.309.001.067.022.134.034.201.052.092.078.058.157-.005.418-.335.532-.914.997-1.196.438-.143.787.115 1.173.281v1.337c-.918.586-.836 1.894-1.809 2.625h1.418c.408.37.835.669.955 1.159.162.663.43 1.32.334 1.826-.462 1.109-.958 1.971-1.837 2.626.311.677.677 1.277 1.149 1.962-.032.351.183.846-.193 1.281-.036.041-.029.151-.001.21.485 1.007-.333 1.87-.315 2.834.008.417-.261.83-.326 1.257a2.8 2.8 0 0 1-.804 1.61c-.521.52-.962 1.137-1.765 1.495H61.8c-.271.299.062.396.119.571.34 1.029.549 2.09.396 3.163-.036.258-.164.729-.673.823-.216.039-.533.146-.692.4-.257-.439-.838.005-1.129-.46-.521.743-.143 1.558-.313 2.327-.447.348-.553 1.034-1.298 1.355h-.634c.215-.765-.422-1.409-.188-2.025-.287-1.004-.844-1.732-1.574-2.162-.619-.363-1.12-.883-1.859-1.192-1.553-.072-3.078.349-4.535 1.078-.866.435-.868.43-2.042.439-.681.368-1.321.732-1.978 1.065-1.489.757-1.932 1.213-2.96 2.492-.506.629-.854 1.282-1.146 2.018-.16.402-.013.771-.145 1.184.365.354.677.74 1.261.809.452.053.82.339 1.131.742v1.012c-.07.051-.253.24-.477.335-.307.129-.642.254-.967.261-.981.02-1.837.402-2.69.816-.09.043-.192.061-.308.096-.124.134-.062.403-.29.504v1.081c-.102.101-.203.202-.317.313h-.673c-.448-.541-1.041-.946-1.777-1.057-.328-.049-.429-.33-.671-.467-.569-.321-1.2-.421-1.802-.604-.338-.103-.634-.221-.954-.46-1.052.171-2-.397-3-.695a6 6 0 0 0-.685-.167c-.849-.138-1.524-.546-2.006-1.28-.357-.544-.235-1.049.111-1.504a2.6 2.6 0 0 1 .964-.781c1.26-.591 2.345-1.436 3.315-2.431.108-.11.187-.212.127-.444-.766-.068-1.496.199-2.304.411-.051.608-.527.977-.924 1.407-.512.555-1.193.676-1.825.486-.802-.241-1.562-.647-2.172-1.269-.388-.394-.604-.839-.519-1.405.248-.232.457-.51.818-.621.122-.038.23-.152.378-.124.595.115 1.189.235 1.916.381l.612-.311-.466-1.386c.155-.347.302-.779.782-1.039.618.001 1.249-.412 2.107-.173-.329-.708-.447-1.34-1.214-1.38-.436.24-.627.698-1.073.896-.368.163-.683.446-1.072.71.154.827-.393 1.33-.933 1.836-.675.159-1.408-.191-2.063.238-.086.057-.315.021-.392-.058-.247-.253-.54-.14-.808-.142-1.295-.014-2.591-.007-3.887-.007-1.091-.812-2.404-.994-3.726-1.337-.249-.188-.428-.579-.863-.671-.125-.352-.401-.698-.246-1.155l.291-.292c.468 0 .993-.134 1.388.036.41.177.913.022 1.241.396h2.29c.716-.51 1.567-.699 2.458-.895 2.652-2.581 2.035-2.008 3.963-5.551.207-.38.407-.766.58-1.162.098-.225.18-.445.387-.596.726-.523 1.262-1.205 1.771-1.939.212-.307.615-.578.964-.762 1.055-.552 1.806-1.432 2.676-2.269m27.908 6.009c.663.147 1.148-.076 1.589-.517-.146-.487.2-.896.277-1.359.635-.635.635-.635.744-1.108-.704.428-1.475.654-2.118 1.161 0 .178.042.367-.009.528-.129.412-.299.812-.216 1.333-1.226 0-1.226 0-1.914.518v.699c.909.641.909.641 1.488.187.019-.443-.089-.905.159-1.442m-1.178-27.489a1.04 1.04 0 0 0-1.236.129c-.597.544-1.304 1.029-1.551 1.731.154.513.296.934.855.828.506-.3.715-.827.904-1.322.209-.546.78-.785 1.028-1.366M34.119 50.747c-.852-.15-1.654.102-2.393-.141-.806-.266-1.593-.04-2.262-.138-.367.231-.411.463-.368.766l.344.383c.33-.219.64-.325 1.006-.291.427.04.868-.044 1.289.021.683.106 1.296-.223 1.957-.243.124-.003.244-.198.427-.357m-6.811-26.121c.577.432.672.439 1.172.211.756-.345 1.22-.929 1.494-1.682-.637-.464-1.16-.34-1.671.119-.198.178-.45.294-.68.441-.032.316-.096.609-.315.911m5.611 31.461c.77-.524 1.416-1.538 1.493-2.343-1.399.107-2.495 1.204-1.493 2.343M17.66 34.793c.222.295.47.52.815.649.354.133.395.606.818.915.025-.567.255-.927.509-1.171l-.587-.774c-.486.261-1.084-.2-1.555.381m41.978-12.448c-.659-.541-1.307-.692-2.04-.549-.027.551.24.901.522 1.237.594.05 1.092-.091 1.518-.688M21.267 36.018c.645-.077 1.086-.385 1.381-.917l-.332-.389h-1.108l-.546.531c.257.195.213.597.605.775m42.619 6.594c.528.391 1.105.302 1.688.289.065-.563-.15-.933-.505-1.266h-.69c-.237.28-.613.449-.493.977m-29.398 7.967c.176.192.383.106.584.064.466-.427.561-1.068.887-1.581.166-.26.166-.751-.321-.93-.359.413-.274.916-.293 1.59zm22.426-20.571c.581.22.925.146 1.277.148.484-.532.188-1.131.301-1.794-.66.481-.825 1.171-1.578 1.646m-5.509-1.055c-.831-.046-1.581.396-1.581.872.143.133.223.358.544.343.341-.347.506-.893 1.037-1.215m6.437 24.609c.169.402.55.339.762.55l.323-.323c-.392-.169-.509-.665-.95-.745-.277.168-.128.391-.135.518m-.621-12.453c-.489-.739-.551-.747-1.098-.214.374.266.374.266 1.098.214m-43.934-4.306c.224.071.312-.1.392-.201.084-.105.308-.146.223-.38-.404-.03-.536.204-.615.581M61.91 25.092c.227.17.442.17.668 0-.226-.171-.442-.171-.668 0"/>
</svg>
