<?xml version="1.0" encoding="iso-8859-1"?>
<!-- Generator: Adobe Illustrator 16.0.0, SVG Export Plug-In . SVG Version: 6.00 Build 0)  -->
<!DOCTYPE svg PUBLIC "-//W3C//DTD SVG 1.1//EN" "http://www.w3.org/Graphics/SVG/1.1/DTD/svg11.dtd">
<svg version="1.1" id="Layer_1" xmlns="http://www.w3.org/2000/svg" xmlns:xlink="http://www.w3.org/1999/xlink" x="0px" y="0px"
	 width="72.36px" height="72.18px" viewBox="0 0 72.36 72.18" style="enable-background:new 0 0 72.36 72.18;" xml:space="preserve"
	>
<g>
	<path style="fill-rule:evenodd;clip-rule:evenodd;fill:none;" d="M-6.984,79.631c0-28.871,0-57.743,0-86.615
		c28.8,0,57.6,0,86.399,0c0,28.872,0,57.744,0,86.615C50.616,79.631,21.816,79.631-6.984,79.631z M31.576,39.888
		c-0.87,0.837-1.621,1.718-2.675,2.271c-0.349,0.184-0.752,0.455-0.964,0.762c-0.508,0.734-1.044,1.416-1.771,1.939
		c-0.208,0.15-0.29,0.371-0.387,0.596c-0.173,0.396-0.374,0.782-0.58,1.162c-1.929,3.543-1.312,2.97-3.963,5.551
		c-0.891,0.195-1.742,0.385-2.458,0.895c-0.778,0-1.534,0-2.29,0c-0.328-0.373-0.831-0.219-1.241-0.396
		c-0.395-0.17-0.919-0.036-1.388-0.035c-0.102,0.102-0.203,0.203-0.291,0.291c-0.155,0.457,0.122,0.804,0.246,1.155
		c0.436,0.092,0.614,0.482,0.863,0.671c1.322,0.343,2.635,0.525,3.726,1.337c1.296,0,2.592-0.007,3.887,0.007
		c0.269,0.002,0.562-0.111,0.808,0.142c0.076,0.078,0.306,0.114,0.392,0.058c0.654-0.43,1.388-0.079,2.063-0.238
		c0.54-0.506,1.086-1.009,0.933-1.836c0.389-0.264,0.704-0.547,1.072-0.71c0.445-0.197,0.637-0.655,1.073-0.896
		c0.768,0.04,0.885,0.672,1.214,1.38c-0.858-0.239-1.489,0.174-2.107,0.173c-0.48,0.26-0.627,0.692-0.782,1.039
		c0.165,0.49,0.313,0.933,0.466,1.386c-0.285,0.145-0.519,0.263-0.612,0.311c-0.727-0.146-1.32-0.266-1.916-0.381
		c-0.148-0.028-0.257,0.086-0.378,0.124c-0.362,0.111-0.571,0.389-0.818,0.621c-0.085,0.566,0.131,1.012,0.519,1.405
		c0.611,0.621,1.371,1.027,2.172,1.269c0.632,0.189,1.313,0.068,1.825-0.486c0.397-0.431,0.874-0.799,0.924-1.407
		c0.808-0.212,1.538-0.479,2.304-0.411c0.059,0.232-0.02,0.334-0.127,0.444c-0.97,0.995-2.055,1.84-3.315,2.431
		c-0.398,0.188-0.716,0.454-0.964,0.781c-0.346,0.455-0.468,0.96-0.111,1.504c0.481,0.734,1.157,1.143,2.006,1.28
		c0.236,0.038,0.458,0.1,0.685,0.167c1,0.298,1.948,0.866,3,0.695c0.319,0.239,0.616,0.357,0.954,0.46
		c0.602,0.184,1.233,0.283,1.802,0.604c0.242,0.137,0.343,0.418,0.671,0.467c0.736,0.11,1.329,0.516,1.777,1.057
		c0.259,0,0.473,0,0.673,0c0.114-0.111,0.216-0.213,0.317-0.313c0-0.361,0-0.722,0.001-1.081c0.228-0.101,0.165-0.37,0.289-0.504
		c0.115-0.035,0.218-0.053,0.308-0.096c0.854-0.414,1.709-0.797,2.69-0.816c0.325-0.007,0.66-0.132,0.967-0.261
		c0.224-0.095,0.406-0.284,0.477-0.335c0-0.489,0-0.771,0-1.012c-0.311-0.403-0.679-0.689-1.131-0.742
		c-0.584-0.068-0.896-0.454-1.261-0.809c0.132-0.413-0.016-0.781,0.145-1.184c0.292-0.735,0.641-1.389,1.146-2.018
		c1.028-1.279,1.471-1.735,2.96-2.492c0.656-0.333,1.297-0.697,1.978-1.065c1.174-0.01,1.176-0.005,2.042-0.439
		c1.457-0.729,2.982-1.15,4.535-1.078c0.739,0.31,1.24,0.829,1.859,1.192c0.73,0.43,1.287,1.158,1.574,2.162
		c-0.233,0.616,0.403,1.261,0.188,2.025c0.335,0,0.576,0,0.634,0c0.745-0.321,0.851-1.008,1.298-1.355
		c0.171-0.77-0.207-1.584,0.313-2.327c0.291,0.465,0.872,0.021,1.129,0.46c0.159-0.255,0.477-0.361,0.692-0.4
		c0.509-0.094,0.637-0.565,0.673-0.823c0.153-1.073-0.056-2.134-0.396-3.163c-0.058-0.176-0.39-0.272-0.119-0.571
		c0.423,0,0.881,0,1.233,0c0.803-0.358,1.244-0.976,1.765-1.495c0.439-0.438,0.706-0.978,0.804-1.61
		c0.065-0.427,0.334-0.84,0.326-1.257c-0.018-0.964,0.801-1.827,0.315-2.834c-0.028-0.059-0.035-0.169,0.001-0.21
		c0.376-0.436,0.161-0.931,0.193-1.281c-0.473-0.685-0.839-1.285-1.149-1.962c0.879-0.655,1.375-1.517,1.837-2.626
		c0.096-0.505-0.172-1.163-0.334-1.826c-0.12-0.49-0.547-0.79-0.955-1.159c-0.417,0-0.871,0-1.418,0
		c0.973-0.732,0.891-2.039,1.809-2.625c0-0.486,0-0.915,0-1.337c-0.386-0.166-0.735-0.423-1.173-0.281
		c-0.465,0.282-0.579,0.86-0.997,1.196c-0.079,0.063-0.105,0.097-0.157,0.005c-0.012-0.067-0.033-0.134-0.034-0.201
		c0-0.103,0.014-0.206,0.021-0.309c1.143-0.898,1.404-2.101,1.255-3.369c-0.65-0.874-1.107-1.799-1.93-2.393
		c0.069-0.918-0.419-1.748-0.203-2.546c-0.418-0.719-1.142-0.892-1.709-1.314c-0.017-0.242,0.06-0.567-0.068-0.708
		c-0.239-0.263-0.086-0.556-0.187-0.797c-0.271-0.654-0.722-1.164-1.587-1.498c-0.183,0-0.569,0-0.991,0c0-0.423,0-0.809,0-1.157
		c-0.344-0.343-0.649-0.648-0.954-0.954c-0.508-0.093-0.709-0.184-1.224-0.564c0.106-0.444-0.05-0.873-0.349-1.209
		c-0.725-0.816-1.61-1.457-2.469-2.122c-0.166-0.128-0.3-0.293-0.477-0.403c-0.748-0.464-1.467-1.011-2.457-0.914
		c-0.342-0.482-0.845-0.806-1.331-1.149c-0.649-0.46-1.327-0.49-2.015-0.137c-0.565-0.187-0.723-0.789-1.159-1.074
		c-0.369,0-0.727,0-1.085,0c-0.045-0.042-0.09-0.085-0.136-0.128c-0.284,0.285-0.568,0.569-0.852,0.852
		c-0.246-0.247-0.329-0.756-0.746-0.931c-1.095-0.138-1.805,0.283-2.337,1.221c-0.28,0.493-0.578,1.051-1.134,1.344
		c-0.208,0-0.421,0-0.613,0c-0.136-0.081-0.059-0.234-0.113-0.292c-0.245-0.261-0.516-0.498-0.812-0.776c-0.15,0-0.366,0-0.583,0
		c-0.626,0.643-0.751,0.978-0.761,1.873c-0.489,1.358-1.416,2.09-2.672,2.654c-0.251-0.026-0.637,0.083-1.043,0.199
		c-0.399,0.114-0.857,0.024-1.289,0.024c-0.468,0-0.937-0.02-1.403,0.006c-0.441,0.024-0.882,0.126-1.23,0.409
		c-0.493,0.401-1.083,0.521-1.67,0.668c-0.456,0.114-0.888,0.236-1.303,0.521c-0.393,0.27-0.854,0.48-1.375,0.591
		c-0.722,0.154-1.58,0.247-1.873,1.175c-0.048,0.152-0.237,0.266-0.372,0.384c-0.979,0.863-1.944,1.721-3.139,2.322
		c-0.876,0.44-1.723,0.864-2.692,1.08c-0.499,0.111-1.054,0.23-1.46,0.642c-0.241,0.245-0.57,0.321-0.899,0.432
		c-0.954,0.322-1.945,0.61-2.656,1.405c-0.459,0.014-0.596,0.541-1.039,0.63c-0.307,0.062-0.68,0.204-0.678,0.655
		c-0.643,0.44-0.794,1.168-1.099,1.907c0.235,0.097,0.221,0.338,0.261,0.582c0.036,0.22,0.196,0.419,0.299,0.623
		c0.342,0.008,0.487,0.218,0.573,0.544c-0.358,0.264-0.598,0.637-1.043,0.843c-0.467,0.216-1.134,1.664-1.137,2.209
		c-0.006,1.26-0.028,2.521,0.007,3.779c0.024,0.892,0.333,1.729,1.088,2.233c0.803,0.537,1.646,1.157,2.726,0.564
		c0.164-0.089,0.418-0.012,0.55-0.012c1.521,2.545,2.937,5.081,4.987,7.117c0.422,0,0.779,0,1.09,0
		c0.792-0.906,0.041-1.58-0.298-2.314c0-0.864,0.06-1.733-0.017-2.591c-0.077-0.86,0.333-1.651,0.24-2.504
		c-0.042-0.385-0.007-0.778-0.007-1.112c0.282-0.282,0.511-0.511,0.798-0.798c0.193,0.25,0.386,0.5,0.493,0.637
		c0.599,0.136,1.022,0.007,1.465-0.22c0.317,0.756,0.57,1.505,1.586,1.575c0.668-0.253,1.184-0.764,1.488-1.494
		c0.28-0.671,0.592-1.318,1.189-1.724c1.518-0.236,2.781,0.679,4.201,0.83c0.127,0.013,0.178,0.097,0.266,0.147
		c0.115,0.065,0.291,0.071,0.358,0.162c0.22,0.299,0.56,0.409,0.861,0.545c0.311,0.14,0.572,0.344,0.664,0.618
		c0.091,0.27,0.274,0.418,0.45,0.565c0.572,0.48,0.96,1.096,1.27,1.749c0.092,0.195,0.185,0.364,0.33,0.509
		c0.146,0.145,0.204,0.281-0.004,0.5c-0.282-0.318-0.562-0.633-0.8-0.901C32.42,39.888,32.024,39.888,31.576,39.888z"/>
	<path style="fill-rule:evenodd;clip-rule:evenodd;" d="M31.576,39.888c0.448,0,0.844,0,1.326,0c0.238,0.269,0.518,0.583,0.8,0.901
		c0.208-0.219,0.15-0.355,0.004-0.5c-0.145-0.145-0.237-0.313-0.33-0.509c-0.31-0.653-0.698-1.269-1.27-1.749
		c-0.176-0.147-0.359-0.296-0.45-0.565c-0.092-0.274-0.354-0.479-0.664-0.618c-0.301-0.136-0.641-0.246-0.861-0.545
		c-0.067-0.091-0.243-0.097-0.358-0.162c-0.087-0.05-0.139-0.134-0.266-0.147c-1.42-0.151-2.683-1.065-4.201-0.83
		c-0.598,0.406-0.91,1.052-1.189,1.724c-0.304,0.73-0.82,1.241-1.488,1.494c-1.016-0.07-1.269-0.819-1.586-1.575
		c-0.443,0.227-0.867,0.355-1.465,0.22c-0.106-0.138-0.3-0.387-0.493-0.637c-0.287,0.287-0.516,0.516-0.798,0.798
		c0,0.334-0.035,0.728,0.007,1.112c0.092,0.853-0.317,1.644-0.24,2.504c0.077,0.857,0.017,1.727,0.017,2.591
		c0.338,0.734,1.089,1.408,0.298,2.314c-0.311,0-0.668,0-1.09,0c-2.05-2.036-3.466-4.572-4.987-7.117
		c-0.131,0-0.386-0.077-0.55,0.012c-1.079,0.593-1.923-0.027-2.726-0.564c-0.755-0.505-1.063-1.341-1.088-2.233
		c-0.035-1.258-0.013-2.519-0.007-3.779c0.003-0.545,0.67-1.994,1.137-2.209c0.445-0.206,0.686-0.58,1.043-0.843
		c-0.086-0.326-0.231-0.536-0.573-0.544c-0.103-0.204-0.263-0.403-0.299-0.623c-0.04-0.243-0.026-0.485-0.261-0.582
		c0.305-0.739,0.457-1.467,1.099-1.907c-0.001-0.451,0.372-0.593,0.678-0.655c0.443-0.09,0.58-0.617,1.039-0.63
		c0.711-0.794,1.702-1.083,2.656-1.405c0.329-0.111,0.659-0.188,0.899-0.432c0.406-0.411,0.961-0.531,1.46-0.642
		c0.969-0.216,1.815-0.639,2.692-1.08c1.194-0.601,2.159-1.459,3.139-2.322c0.135-0.119,0.323-0.232,0.372-0.384
		c0.293-0.928,1.151-1.021,1.873-1.175c0.521-0.111,0.981-0.321,1.375-0.591c0.415-0.285,0.847-0.407,1.303-0.521
		c0.587-0.147,1.177-0.267,1.67-0.668c0.348-0.283,0.789-0.384,1.23-0.409c0.466-0.026,0.936-0.006,1.403-0.006
		c0.432,0,0.89,0.089,1.289-0.024c0.406-0.116,0.792-0.226,1.043-0.199c1.256-0.564,2.183-1.295,2.672-2.654
		c0.01-0.895,0.135-1.23,0.761-1.873c0.217,0,0.433,0,0.583,0c0.296,0.278,0.566,0.515,0.812,0.776
		c0.055,0.058-0.022,0.211,0.113,0.292c0.192,0,0.405,0,0.613,0c0.556-0.293,0.854-0.851,1.134-1.344
		c0.532-0.938,1.242-1.358,2.337-1.221c0.417,0.175,0.5,0.685,0.746,0.931c0.283-0.283,0.567-0.567,0.852-0.852
		c0.046,0.042,0.091,0.085,0.136,0.128c0.358,0,0.716,0,1.085,0c0.437,0.285,0.594,0.887,1.159,1.074
		c0.688-0.353,1.365-0.323,2.015,0.137c0.486,0.344,0.989,0.667,1.331,1.149c0.99-0.097,1.709,0.45,2.457,0.914
		c0.177,0.11,0.311,0.275,0.477,0.403c0.858,0.665,1.744,1.306,2.469,2.122c0.299,0.336,0.455,0.765,0.349,1.209
		c0.515,0.381,0.716,0.472,1.224,0.564c0.305,0.306,0.61,0.611,0.954,0.954c0,0.348,0,0.733,0,1.157c0.422,0,0.809,0,0.991,0
		c0.865,0.334,1.316,0.843,1.587,1.498c0.101,0.241-0.053,0.534,0.187,0.797c0.128,0.14,0.052,0.466,0.068,0.708
		c0.567,0.422,1.291,0.595,1.709,1.314c-0.216,0.798,0.272,1.628,0.203,2.546c0.822,0.594,1.279,1.519,1.93,2.393
		c0.149,1.268-0.112,2.471-1.255,3.369c-0.007,0.103-0.021,0.206-0.021,0.309c0.001,0.067,0.022,0.134,0.034,0.201
		c0.052,0.092,0.078,0.058,0.157-0.005c0.418-0.335,0.532-0.914,0.997-1.196c0.438-0.143,0.787,0.115,1.173,0.281
		c0,0.423,0,0.852,0,1.337c-0.918,0.586-0.836,1.894-1.809,2.625c0.547,0,1.001,0,1.418,0c0.408,0.37,0.835,0.669,0.955,1.159
		c0.162,0.663,0.43,1.32,0.334,1.826c-0.462,1.109-0.958,1.971-1.837,2.626c0.311,0.677,0.677,1.277,1.149,1.962
		c-0.032,0.351,0.183,0.846-0.193,1.281c-0.036,0.041-0.029,0.151-0.001,0.21c0.485,1.007-0.333,1.87-0.315,2.834
		c0.008,0.417-0.261,0.83-0.326,1.257c-0.098,0.633-0.364,1.173-0.804,1.61c-0.521,0.52-0.962,1.137-1.765,1.495
		c-0.353,0-0.811,0-1.233,0c-0.271,0.299,0.062,0.396,0.119,0.571c0.34,1.029,0.549,2.09,0.396,3.163
		c-0.036,0.258-0.164,0.729-0.673,0.823c-0.216,0.039-0.533,0.146-0.692,0.4c-0.257-0.439-0.838,0.005-1.129-0.46
		c-0.521,0.743-0.143,1.558-0.313,2.327c-0.447,0.348-0.553,1.034-1.298,1.355c-0.058,0-0.299,0-0.634,0
		c0.215-0.765-0.422-1.409-0.188-2.025c-0.287-1.004-0.844-1.732-1.574-2.162c-0.619-0.363-1.12-0.883-1.859-1.192
		c-1.553-0.072-3.078,0.349-4.535,1.078c-0.866,0.435-0.868,0.43-2.042,0.439c-0.681,0.368-1.321,0.732-1.978,1.065
		c-1.489,0.757-1.932,1.213-2.96,2.492c-0.506,0.629-0.854,1.282-1.146,2.018c-0.16,0.402-0.013,0.771-0.145,1.184
		c0.365,0.354,0.677,0.74,1.261,0.809c0.452,0.053,0.82,0.339,1.131,0.742c0,0.24,0,0.522,0,1.012
		c-0.07,0.051-0.253,0.24-0.477,0.335c-0.307,0.129-0.642,0.254-0.967,0.261c-0.981,0.02-1.837,0.402-2.69,0.816
		c-0.09,0.043-0.192,0.061-0.308,0.096c-0.124,0.134-0.062,0.403-0.29,0.504c0,0.359,0,0.72,0,1.081
		c-0.102,0.101-0.203,0.202-0.317,0.313c-0.2,0-0.414,0-0.673,0c-0.448-0.541-1.041-0.946-1.777-1.057
		c-0.328-0.049-0.429-0.33-0.671-0.467c-0.569-0.321-1.2-0.421-1.802-0.604c-0.338-0.103-0.634-0.221-0.954-0.46
		c-1.052,0.171-2-0.397-3-0.695c-0.227-0.067-0.449-0.129-0.685-0.167c-0.849-0.138-1.524-0.546-2.006-1.28
		c-0.357-0.544-0.235-1.049,0.111-1.504c0.249-0.327,0.566-0.594,0.964-0.781c1.26-0.591,2.345-1.436,3.315-2.431
		c0.108-0.11,0.187-0.212,0.127-0.444c-0.766-0.068-1.496,0.199-2.304,0.411c-0.051,0.608-0.527,0.977-0.924,1.407
		c-0.512,0.555-1.193,0.676-1.825,0.486c-0.802-0.241-1.562-0.647-2.172-1.269c-0.388-0.394-0.604-0.839-0.519-1.405
		c0.248-0.232,0.457-0.51,0.818-0.621c0.122-0.038,0.23-0.152,0.378-0.124c0.595,0.115,1.189,0.235,1.916,0.381
		c0.093-0.048,0.327-0.166,0.612-0.311c-0.152-0.453-0.301-0.896-0.466-1.386c0.155-0.347,0.302-0.779,0.782-1.039
		c0.618,0.001,1.249-0.412,2.107-0.173c-0.329-0.708-0.447-1.34-1.214-1.38c-0.436,0.24-0.627,0.698-1.073,0.896
		c-0.368,0.163-0.683,0.446-1.072,0.71c0.154,0.827-0.393,1.33-0.933,1.836c-0.675,0.159-1.408-0.191-2.063,0.238
		c-0.086,0.057-0.315,0.021-0.392-0.058c-0.247-0.253-0.54-0.14-0.808-0.142c-1.295-0.014-2.591-0.007-3.887-0.007
		c-1.091-0.812-2.404-0.994-3.726-1.337c-0.249-0.188-0.428-0.579-0.863-0.671c-0.125-0.352-0.401-0.698-0.246-1.155
		c0.088-0.088,0.189-0.189,0.291-0.292c0.468,0,0.993-0.134,1.388,0.036c0.41,0.177,0.913,0.022,1.241,0.396c0.756,0,1.512,0,2.29,0
		c0.716-0.51,1.567-0.699,2.458-0.895c2.652-2.581,2.035-2.008,3.963-5.551c0.207-0.38,0.407-0.766,0.58-1.162
		c0.098-0.225,0.18-0.445,0.387-0.596c0.726-0.523,1.262-1.205,1.771-1.939c0.212-0.307,0.615-0.578,0.964-0.762
		C29.955,41.605,30.706,40.725,31.576,39.888z M59.484,45.897c0.663,0.147,1.148-0.076,1.589-0.517
		c-0.146-0.487,0.2-0.896,0.277-1.359c0.635-0.635,0.635-0.635,0.744-1.108c-0.704,0.428-1.475,0.654-2.118,1.161
		c0,0.178,0.042,0.367-0.009,0.528c-0.129,0.412-0.299,0.812-0.216,1.333c-1.226,0-1.226,0-1.914,0.518c0,0.236,0,0.476,0,0.699
		c0.909,0.641,0.909,0.641,1.488,0.187C59.344,46.896,59.236,46.434,59.484,45.897z M58.306,18.408
		c-0.518-0.281-0.977-0.107-1.236,0.129c-0.597,0.544-1.304,1.029-1.551,1.731c0.154,0.513,0.296,0.934,0.855,0.828
		c0.506-0.3,0.715-0.827,0.904-1.322C57.487,19.228,58.058,18.989,58.306,18.408z M34.119,50.747
		c-0.852-0.15-1.654,0.102-2.393-0.141c-0.806-0.266-1.593-0.04-2.262-0.138c-0.367,0.231-0.411,0.463-0.368,0.766
		c0.092,0.103,0.207,0.23,0.344,0.383c0.33-0.219,0.64-0.325,1.006-0.291c0.427,0.04,0.868-0.044,1.289,0.021
		c0.683,0.106,1.296-0.223,1.957-0.243C33.816,51.101,33.936,50.906,34.119,50.747z M27.308,24.626
		c0.577,0.432,0.672,0.439,1.172,0.211c0.756-0.345,1.22-0.929,1.494-1.682c-0.637-0.464-1.16-0.34-1.671,0.119
		c-0.198,0.178-0.45,0.294-0.68,0.441C27.591,24.031,27.527,24.324,27.308,24.626z M32.919,56.087
		c0.77-0.524,1.416-1.538,1.493-2.343C33.013,53.851,31.917,54.948,32.919,56.087z M17.66,34.793c0.222,0.295,0.47,0.52,0.815,0.649
		c0.354,0.133,0.395,0.606,0.818,0.915c0.025-0.567,0.255-0.927,0.509-1.171c-0.215-0.284-0.385-0.508-0.587-0.774
		C18.729,34.673,18.131,34.212,17.66,34.793z M59.638,22.345c-0.659-0.541-1.307-0.692-2.04-0.549
		c-0.027,0.551,0.24,0.901,0.522,1.237C58.714,23.083,59.212,22.942,59.638,22.345z M21.267,36.018
		c0.645-0.077,1.086-0.385,1.381-0.917c-0.146-0.171-0.257-0.301-0.332-0.389c-0.423,0-0.775,0-1.108,0
		c-0.191,0.186-0.369,0.358-0.546,0.531C20.919,35.438,20.875,35.84,21.267,36.018z M63.886,42.612
		c0.528,0.391,1.105,0.302,1.688,0.289c0.065-0.563-0.15-0.933-0.505-1.266c-0.226,0-0.467,0-0.69,0
		C64.142,41.915,63.766,42.084,63.886,42.612z M34.488,50.579c0.176,0.192,0.383,0.106,0.584,0.064
		c0.466-0.427,0.561-1.068,0.887-1.581c0.166-0.26,0.166-0.751-0.321-0.93c-0.359,0.413-0.274,0.916-0.293,1.59
		C35.136,49.932,34.837,50.229,34.488,50.579z M56.914,30.008c0.581,0.22,0.925,0.146,1.277,0.148
		c0.484-0.532,0.188-1.131,0.301-1.794C57.832,28.843,57.667,29.533,56.914,30.008z M51.405,28.953
		c-0.831-0.046-1.581,0.396-1.581,0.872c0.143,0.133,0.223,0.358,0.544,0.343C50.709,29.821,50.874,29.275,51.405,28.953z
		 M57.842,53.562c0.169,0.402,0.55,0.339,0.762,0.55c0.129-0.129,0.204-0.205,0.323-0.323c-0.392-0.169-0.509-0.665-0.95-0.745
		C57.7,53.212,57.849,53.435,57.842,53.562z M57.221,41.109c-0.489-0.739-0.551-0.747-1.098-0.214
		C56.497,41.161,56.497,41.161,57.221,41.109z M13.287,36.803c0.224,0.071,0.312-0.1,0.392-0.201
		c0.084-0.105,0.308-0.146,0.223-0.38C13.498,36.192,13.366,36.426,13.287,36.803z M61.91,25.092c0.227,0.17,0.442,0.17,0.668,0
		C62.352,24.921,62.136,24.921,61.91,25.092z"/>
	<path style="fill-rule:evenodd;clip-rule:evenodd;fill:none;" d="M58.306,18.408c-0.248,0.581-0.819,0.82-1.027,1.366
		c-0.189,0.496-0.398,1.022-0.903,1.322c-0.561,0.106-0.702-0.314-0.856-0.828c0.247-0.702,0.954-1.187,1.551-1.731
		C57.33,18.3,57.789,18.126,58.306,18.408z"/>
	<path style="fill-rule:evenodd;clip-rule:evenodd;fill:none;" d="M34.119,50.747c-0.183,0.159-0.302,0.354-0.427,0.357
		c-0.66,0.021-1.273,0.35-1.957,0.243c-0.42-0.065-0.862,0.019-1.289-0.021c-0.366-0.034-0.676,0.072-1.006,0.291
		c-0.137-0.152-0.252-0.28-0.344-0.383c-0.042-0.303,0.001-0.534,0.368-0.766c0.669,0.098,1.456-0.128,2.262,0.138
		C32.464,50.849,33.267,50.597,34.119,50.747z"/>
	<path style="fill-rule:evenodd;clip-rule:evenodd;fill:none;" d="M27.308,24.626c0.219-0.302,0.283-0.595,0.315-0.911
		c0.23-0.146,0.482-0.263,0.68-0.441c0.512-0.459,1.035-0.583,1.671-0.119c-0.273,0.753-0.738,1.337-1.494,1.682
		C27.98,25.065,27.885,25.058,27.308,24.626z"/>
	<path style="fill-rule:evenodd;clip-rule:evenodd;fill:none;" d="M59.484,45.897c0.185-0.483,0.354-0.883,0.483-1.295
		c0.051-0.161,0.009-0.351,0.009-0.528c0.644-0.507,1.414-0.733,2.118-1.161c-0.109,0.474-0.109,0.474-0.744,1.108
		c-0.077,0.464-0.424,0.872-0.277,1.359C60.632,45.821,60.147,46.045,59.484,45.897z"/>
	<path style="fill-rule:evenodd;clip-rule:evenodd;fill:none;" d="M32.919,56.087c-1.002-1.139,0.093-2.236,1.493-2.343
		C34.335,54.549,33.689,55.563,32.919,56.087z"/>
	<path style="fill-rule:evenodd;clip-rule:evenodd;fill:none;" d="M59.751,45.936c-0.516,0.498-0.407,0.96-0.426,1.403
		c-0.579,0.454-0.579,0.454-1.488-0.187c0-0.224,0-0.463,0-0.699C58.526,45.936,58.526,45.936,59.751,45.936z"/>
	<path style="fill-rule:evenodd;clip-rule:evenodd;fill:none;" d="M17.66,34.793c0.471-0.581,1.068-0.121,1.555-0.382
		c0.202,0.267,0.372,0.49,0.587,0.774c-0.254,0.245-0.483,0.604-0.509,1.171c-0.423-0.309-0.465-0.782-0.818-0.915
		C18.13,35.313,17.882,35.089,17.66,34.793z"/>
	<path style="fill-rule:evenodd;clip-rule:evenodd;fill:none;" d="M59.638,22.345c-0.426,0.598-0.924,0.738-1.518,0.688
		c-0.282-0.336-0.55-0.686-0.522-1.237C58.332,21.653,58.979,21.804,59.638,22.345z"/>
	<path style="fill-rule:evenodd;clip-rule:evenodd;fill:none;" d="M21.267,36.018c-0.392-0.177-0.348-0.58-0.605-0.775
		c0.178-0.173,0.355-0.345,0.546-0.531c0.333,0,0.685,0,1.108,0c0.075,0.087,0.186,0.217,0.332,0.389
		C22.353,35.632,21.911,35.94,21.267,36.018z"/>
	<path style="fill-rule:evenodd;clip-rule:evenodd;fill:none;" d="M63.886,42.612c-0.12-0.528,0.256-0.697,0.493-0.977
		c0.224,0,0.465,0,0.69,0c0.354,0.333,0.57,0.703,0.505,1.266C64.992,42.914,64.415,43.003,63.886,42.612z"/>
	<path style="fill-rule:evenodd;clip-rule:evenodd;fill:none;" d="M34.488,50.579c0.35-0.35,0.648-0.647,0.857-0.856
		c0.019-0.674-0.066-1.177,0.293-1.59c0.487,0.179,0.487,0.67,0.321,0.93c-0.326,0.513-0.421,1.154-0.887,1.581
		C34.871,50.686,34.664,50.771,34.488,50.579z"/>
	<path style="fill-rule:evenodd;clip-rule:evenodd;fill:none;" d="M56.914,30.008c0.754-0.475,0.918-1.166,1.578-1.646
		c-0.113,0.663,0.184,1.263-0.301,1.794C57.838,30.155,57.495,30.228,56.914,30.008z"/>
	<path style="fill-rule:evenodd;clip-rule:evenodd;fill:none;" d="M51.405,28.953c-0.531,0.322-0.695,0.868-1.037,1.214
		c-0.321,0.016-0.401-0.209-0.544-0.343C49.824,29.349,50.574,28.907,51.405,28.953z"/>
	<path style="fill-rule:evenodd;clip-rule:evenodd;fill:none;" d="M57.842,53.562c0.007-0.127-0.143-0.35,0.135-0.519
		c0.441,0.08,0.559,0.576,0.95,0.745c-0.119,0.118-0.194,0.194-0.323,0.323C58.392,53.9,58.011,53.964,57.842,53.562z"/>
	<path style="fill-rule:evenodd;clip-rule:evenodd;fill:none;" d="M57.221,41.109c-0.725,0.052-0.725,0.052-1.098-0.214
		C56.67,40.362,56.732,40.37,57.221,41.109z"/>
	<path style="fill-rule:evenodd;clip-rule:evenodd;fill:none;" d="M13.287,36.803c0.079-0.377,0.211-0.611,0.614-0.582
		c0.085,0.235-0.139,0.275-0.223,0.38C13.598,36.703,13.51,36.874,13.287,36.803z"/>
	<path style="fill-rule:evenodd;clip-rule:evenodd;fill:none;" d="M61.91,25.092c0.227-0.171,0.442-0.171,0.668,0
		C62.352,25.262,62.136,25.262,61.91,25.092z"/>
</g>
</svg>
