<svg xmlns="http://www.w3.org/2000/svg" xml:space="preserve" width="72px" height="72px" viewBox="0 0 72 72">
    <g fill="currentColor">
        <path d="M33.396 36.776c.121.772-.146 1.356-.567 2.088-.005.005-.292-.086-.392.166-.667-.049-1.33-.052-1.85.553.303.166.633.119.919.071.326-.055.485.222.771.268.393.063.719.305.993.735a24 24 0 0 0 1.305 1.855c.523.672.853 1.507 1.201 2.299.821 1.869 1.93 3.586 2.822 5.418.308.631.723 1.21 1.037 1.839.267.534.433 1.117.69 1.656.295.616.623 1.232 1.158 1.674.313.258.433.627.658.929.525.704 1.11 1.312 1.834 1.813.691.479 1.368.67 2.212.42.578-.172 1.17-.436 1.794-.299.188.181.371.354.571.545-.121 1.12-.975 1.569-1.978 2.032-.506 0-1.153-.034-1.795.012a3.1 3.1 0 0 1-1.417-.24c-.938-.392-1.934-.686-2.596-1.572-.442-.592-1.161-.895-1.668-1.448-.707-.772-1.343-1.595-1.991-2.413-.357-.45-.513-.966-.651-1.461-.215-.778-.63-1.433-1.112-2.018-.376-.456-.675-.977-1.112-1.391-.185-.176-.317-.445-.387-.696-.324-1.161-1.005-2.125-1.693-3.077-.401-.555-.781-1.128-1.182-1.682-.422-.58-.936-1.048-1.407-1.566-.327-.361-.752-.641-.912-1.136v-1.466c-.297-.507-.875-.62-1.214-1.034-.31-.38-.684-.686-1.249-.862-.531.48-.716 1.169-.76 1.867-.049.797-.244 1.532-.547 2.263-.166.398-.298.84-.311 1.267-.01.364-.149.668-.249.986-.219.697-.439 1.405-.766 2.056-.29.575-.724 1.076-1.15 1.69-.008.306.017.679.161 1.099.165.483.073 1.069.028 1.605-.043.513.199 1.057-.18 1.547-.088.113-.024.346-.025.524-.002.36-.033.724.005 1.079.145 1.352-.136 2.682-.261 4.011-.065.694-.137 1.534-.965 2.028h-1.066c-1.035-.258-1.504-1.296-2.404-1.748-.787-.395-1.306-1.126-2.028-1.614-1.105-.747-1.475-2.025-2.055-3.137a1.31 1.31 0 0 1 .02-1.216c.162-.285.076-.54.1-.805-.751-.564-1.722-.071-2.471-.594-.962-.75-1.447-1.82-1.853-2.965-.211-.596-.403-1.219-.669-1.771-.355-.737-.052-1.172.352-1.651.11-.13.294-.198.409-.272-.233-.497-.411-.855-.57-1.221-.215-.494-.546-.906-1.062-1.039-.536-.139-.725-.569-.794-.957-.241-1.346-.79-2.645-.666-4.047.019-.214-.212-.271-.229-.461.273-.394.354-.854.133-1.264-.135-.25-.117-.471-.121-.707-.012-.755-.003-1.511-.005-2.268-.002-1.04.365-2.023.464-3.047.378-.417.007-1.041.4-1.454-.086-.678.224-1.259.416-1.878.14-.449.366-.905.235-1.322.62-1.054.875-2.189 1.51-3.141-.077-.662.434-1.077.746-1.52 1.045-1.481 1.107-1.4 3.028-2.249.63-.278 1.273-.405 2.041-.699.397-.363.85-.899 1.464-1.265.57-.339 2.063-.811 2.549-.555.892.47 1.469-.156 2.145-.46.216-.098.317-.344.567-.454.458-.203.866-.513 1.307-.757.271-.149.577-.241.694-.508.935-.065 1.761.103 2.605.351.595.175 1.322.201 1.905.02.46-.144.887-.139 1.329-.163.539-.029 1.089.056 1.617-.024.555-.084 1.017.196 1.529.264.48.063 1.014.076 1.452.391.093.067.276.01.401.01.373.373.721.738 1.089 1.082.188.177.002.525.331.546-.089.45-.381.709-.479 1.081-.101.383-.715.279-.856.796.413.503 1.042.743 1.728 1.147-.066-1.035.233-1.829 1.087-2.266.722-.368 1.209-.305 1.673.041.366 1.042-.353 1.702-.772 2.454.36.397.853.493 1.313.499.544.008 1.096.145 1.654-.166.303-.168.775-.03 1.146-.03.512.142.813.534 1.157.861.475-.294.929-.584 1.393-.86.508-.302 1.041-.506 1.656-.44.32.035.648.022.971.003 1.068-.063 1.974.405 3 .855.763-.03 1.598.432 2.551.164.552-.785 1.476-.93 2.41-1.007.572-.047 1.183-.128 1.721.015 1.337.354 2.683.087 4.043.218.905.684 2.033 1.345 2.671 3.39l-.278.637c-.061.016-.132.061-.188.047-.612-.151-1.203.098-1.735.259-.901.273-1.792.44-2.696.384-.139.348.096.332.227.464.543.554 1.197.971 1.849 1.316.707.375 1.222.98 1.921 1.346.194.102.351.317.479.544.318.558.688 1.088 1.058 1.615.446.634.788 1.293.632 2.161-.253.821-.904 1.058-1.748.991a5 5 0 0 0-.971.003c-.677.086-1.309-.181-1.964-.212-.659-.031-1.272-.091-1.893-.4-.285-.143-.722-.141-1.077-.26-.586-.196-1.123-.462-1.565-.919-.851-.879-1.729-1.731-2.591-2.601-.669-.675-1.468-1.055-2.402-1.249-.694-.144-1.348-.48-2.179-.391 0 .337-.039.692.012 1.033.051.344-.224.555-.246.883-.093 1.387-.754 2.492-1.926 3.23-.482.304-.682.727-.951 1.276 1.841.052 3.268 1.144 5.04 1.641l.659.734v.789c-1.098 1.278-2.6.918-3.987.981-.382-.415-.86-.402-1.353-.454-.846-.088-1.726-.159-2.505-.46-.442-.17-.796-.083-1.21-.194.023.125.019.161.034.174a6.4 6.4 0 0 1 1.922 2.77c.124.343.383.643.666.915.959.923 1.842 1.933 2.848 2.799a44 44 0 0 1 2.033 1.852c.297-.144.306-.318.252-.427-.3-.604-.297-1.293-.599-1.915a2.95 2.95 0 0 1-.271-1.62c.064-.531.014-1.076.014-1.555.316-.507.42-1.159.937-1.377.349-.147.73-.375 1.174-.308.21.031.292.177.454.298v3.646c.404 1.293 1.217 2.105 1.901 2.981.826 1.058 1.318 2.259 1.771 3.483.078.212.248.408.244.656-.004.36-.001.721-.001 1.08-.378.659-.741.993-1.827 1.684-1.553.099-2.99-.228-4.32-1.051-.464-.288-.985-.502-1.335-.931-.409-.502-1.023-.729-1.458-1.205-.42-.461-.84-.926-1.411-1.257-.451-.262-.737-.795-1.17-1.105-.423-.303-.779-.611-1.061-1.062-.316-.508-.99-.657-1.346-1.155-.433.009-.58-.38-.82-.617-.924-.913-1.886-1.775-2.953-2.521-.289-.202-.511-.502-.768-.753-.151-.148-.289-.368-.472-.418-.728-.2-1.142-.782-1.636-1.265-.517-.504-1.112-.873-1.898-1.21M22.159 24.375c-.311-.109-.405.163-.536.162-.714-.008-.987.681-1.531.939-.156.074-.12.37-.005.551.963.214 1.569-.303 2.073-.955zm-6.355 16.593c-.407-.021-.74.055-.76.551.473.287.724-.134 1.101-.21z"/>
        <path d="M52.2 37.647c0-.319-.001-.57.001-.821.001-.032.017-.064.036-.138.746-.644 1.654-.595 2.526-.357.381.104.842-.047 1.156.315.277.319.662.481 1.057.554.67.125 1.244.45 1.854.72.775.343 1.448.771 1.98 1.423v.735h-1.563c-.456-.424-1.135-.4-1.727-.613-1.037-.373-2.115-.631-3.19-.846-.668-.133-1.203-.405-1.72-.797-.101-.078-.24-.105-.41-.175"/>
    </g>
</svg>
