<?xml version="1.0" encoding="iso-8859-1"?>
<!-- Generator: Adobe Illustrator 16.0.0, SVG Export Plug-In . SVG Version: 6.00 Build 0)  -->
<!DOCTYPE svg PUBLIC "-//W3C//DTD SVG 1.1//EN" "http://www.w3.org/Graphics/SVG/1.1/DTD/svg11.dtd">
<svg version="1.1" id="Layer_1" xmlns="http://www.w3.org/2000/svg" xmlns:xlink="http://www.w3.org/1999/xlink" x="0px" y="0px"
	 width="72.36px" height="72.18px" viewBox="0 0 72.36 72.18" style="enable-background:new 0 0 72.36 72.18;" xml:space="preserve"
	>
<g>
	<path style="fill-rule:evenodd;clip-rule:evenodd;fill:none;" d="M-6.984-6.984c28.8,0,57.6,0,86.399,0c0,28.872,0,57.744,0,86.615
		c-28.8,0-57.6,0-86.399,0C-6.984,50.76-6.984,21.888-6.984-6.984z M54.148,43.973c0.536,0.122,1.126-0.174,1.599,0.178
		c0.385-0.103,0.675-0.34,0.885-0.599c0.342,0.037,0.597-0.033,0.862,0.199c0.553,0.484,1.241,0.682,1.982,0.674
		c0.572-0.006,1.145-0.001,1.716-0.001c0.313,0.108,0.234,0.438,0.382,0.625c0.479-0.042,0.479-0.042,0.778-0.459
		c-0.641-0.707-0.766-0.934-0.876-1.586c-0.421-0.409-0.893-0.794-1.059-1.391c-0.056-0.201-0.194-0.356-0.319-0.396
		c-0.903-0.284-1.608-0.963-2.513-1.234c-0.361-0.108-0.668-0.32-0.991-0.485c-0.343-0.175-0.577-0.523-1.076-0.564
		c-0.438-0.035-1.107-0.205-1.217-0.92c-0.019-0.118-0.219-0.229-0.399-0.303c-0.342-0.138-0.684-0.308-0.936-0.613
		c-0.226-0.272-0.553-0.36-0.889-0.458c-0.896-0.262-1.774-0.583-2.669-0.85c-0.804-0.239-1.607-0.53-2.433-0.63
		c-1.075-0.13-1.93-0.601-2.53-1.436c-0.596-0.826-1.884-2.236-2.923-2.846c-0.529-0.311-0.641-0.697-0.784-1.192
		c-0.177-0.605-0.144-1.293-0.599-1.756c-0.094-1.751-0.706-3.263-1.674-4.552c-0.378-0.646-0.332-1.283-0.297-1.906
		c0.035-0.646-0.193-1.148-0.625-1.538c-0.177-0.749,0.217-1.521-0.246-2.209c-0.017-0.025-0.002-0.07-0.002-0.106
		c0.311-0.581,0.526-1.181,0.407-1.841c-0.403-0.327-0.492-0.904-0.939-1.134c-0.428-0.22-0.795-0.514-1.195-0.767
		c-0.421-0.267-0.947-0.395-1.313-0.714c-0.454-0.396-0.918-0.699-1.463-0.754c-1.275-2.129-1.346-2.208-2.113-2.334
		c-0.129,0.14-0.263,0.311-0.423,0.453c-0.525,0.468-0.827,1.015-0.744,1.749c0.039,0.343,0.007,0.695,0.007,1.041
		c-0.407-0.013-0.691,0.042-0.996-0.189c-0.281-0.213-0.679-0.289-1.083-0.247c-0.767,0.081-1.483-0.147-2.2-0.411
		c-0.515-0.19-1.064-0.281-1.634-0.242c-0.319,0.022-0.529,0.395-0.924,0.203c-0.472,0.6-0.834,1.347-1.502,1.737
		c-0.541,0.315-0.855,0.795-1.17,1.25c-0.4,0.579-1.088,1.102-0.798,1.992c0.762-0.487,1.594-0.429,2.215-0.415
		c0.438-0.09,0.472-0.444,0.85-0.435c0.247,0.265,0.499,0.509,0.612,0.98c0.088,0.371,0.616,0.632,0.822,1.348
		c0.069,0.346-0.064,0.897-0.492,1.279c-0.627-0.122-0.938-0.614-1.239-0.893c-1.215-0.544-2.606-0.282-3.319-1.349
		c-0.847-0.237-1.337,0.308-1.941,0.497c-0.484,0.152-0.727,0.544-0.771,0.86c-0.095,0.678-0.513,0.936-1.026,1.189
		c-0.36,0.179-0.703,0.393-1.008,0.565c-0.526,0.61-0.34,1.288-0.382,1.893c0.678,0.678,1.321,1.308,1.946,1.955
		c0.164,0.17,0.33,0.327,0.452,0.564c0.554,1.081,1.455,1.854,2.437,2.535c0.318,0,0.631,0,0.918,0
		c0.102-0.102,0.178-0.178,0.276-0.276c0-0.292,0-0.605,0-0.847c-0.292-0.529-0.961-0.866-0.425-1.574
		c0.09-0.12,0.045-0.382-0.134-0.58c-0.32-0.354-0.321-0.825-0.278-1.281c0.005-0.059,0.069-0.113,0.106-0.167
		c0.144,0,0.287,0,0.398,0c0.825,0.652,1.367,1.578,2.308,2.066c0.086,0.045,0.149,0.148,0.206,0.235
		c0.643,0.985,1.176,2.066,2.362,2.554c0.154,0.063,0.336,0.228,0.372,0.376c0.146,0.616,0.704,0.668,1.062,0.861
		c0.134,0.334,0.431,0.565,0.258,1.038c0.353,0.324,0.745,0.683,1.132,1.038c0,0.188,0,0.367,0,0.547c0,0.172,0,0.345,0,0.451
		c-0.716,0.853-0.716,0.853-0.441,2.068c-0.285,0.287-0.556,0.559-0.877,0.881c-0.271-0.224-0.644-0.369-0.863-0.458
		c-1.117-1.522-2.592-1.876-4.172-1.971c-0.238,0.309-0.727,0.248-0.785,0.776c0.13,0.131,0.274,0.39,0.481,0.461
		c0.846,0.29,0.976,1.25,1.644,1.707c0.077,0.053,0.239,0.316,0.258,0.522c0.095,1.023,0.792,1.837,0.873,2.618
		c0.394,0.387,0.729,0.432,1.01,0.658c0.368,0.298,0.889,0.551,1.322,0.384c0.559-0.217,1.1-0.147,1.726-0.194
		c0.095-0.121,0.228-0.289,0.313-0.397c0.566-0.116,0.946,0.116,1.396,0.401c0.658-0.016,1.373,0.056,1.934,0.68
		c1.152-0.079,2.23-0.428,3.239-1.105c0.967,0,1.975,0,2.983,0c0.32,0.314,0.627,0.623,1.133,0.663
		c0.248,0.019,0.522,0.165,0.717,0.332c1.147,0.993,2.246,2.045,3.617,2.743c0.34,0.173,0.67,0.368,0.906,0.715
		c0,0.401,0,0.833,0,1.263c0.249,0.242,0.518,0.446,0.805,0.643c0.254,0.174,0.568-0.023,0.768,0.27
		c0.18,0.263,0.447,0.466,0.677,0.693c0.152,0.152,0.295,0.413,0.463,0.432c0.416,0.045,0.468,0.346,0.595,0.624
		c0.29,0.636,0.676,1.202,1.218,1.656c0.191,0.162,0.383,0.335,0.532,0.535c0.861,1.156,1.867,2.185,2.828,3.254
		c0.66,0.735,1.474,1.322,1.999,2.192c0.227,0.374,0.67,0.604,0.828,1.056c0.29,0,0.576,0,0.861,0
		c0.353,0.114,0.59,0.499,1.02,0.423c0.449-0.264,0.494-0.652,0.258-1.063c-0.1-0.175-0.141-0.369-0.281-0.539
		c-0.305-0.367-0.461-0.822-0.471-1.311c-0.007-0.387-0.001-0.774-0.001-1.082c-0.151-0.151-0.228-0.228-0.304-0.304
		c-0.341,0.144-0.43,0.661-0.889,0.629c-0.162-0.208-0.128-0.405-0.04-0.604c0.265-0.023,0.438-0.186,0.578-0.378
		c0-0.583,0-1.157,0-1.73c-0.254-0.09-0.168-0.365-0.306-0.527c-0.346-0.407-0.886-0.559-1.22-0.983
		c-0.316-0.402-0.369-0.973-0.833-1.278c-0.088-0.058-0.154-0.149-0.23-0.226c-0.458-0.459-0.916-0.917-1.374-1.375
		c-0.308-0.307-0.656-0.585-0.72-1.059c0.436-0.229,0.74,0.329,1.21,0.14c0.438,0.439,0.867,0.868,1.344,1.345
		c0.639,0,1.354,0,2.055,0c0.218,0.221,0.42,0.426,0.62,0.63c0.566-0.131,0.894,0.522,1.521,0.417
		c0.039-0.148,0.316-0.168,0.315-0.561c-0.245-0.866-0.849-1.476-1.883-1.63C54.88,45.029,54.387,44.67,54.148,43.973z"/>
	<path style="fill-rule:evenodd;clip-rule:evenodd;" d="M54.146,43.982c0.241,0.688,0.734,1.047,1.14,1.478
		c1.034,0.154,1.638,0.764,1.883,1.63c0.001,0.393-0.276,0.412-0.315,0.561c-0.628,0.105-0.955-0.548-1.521-0.417
		c-0.2-0.204-0.402-0.409-0.62-0.63c-0.701,0-1.416,0-2.055,0c-0.477-0.477-0.905-0.905-1.344-1.345
		c-0.47,0.189-0.774-0.368-1.21-0.14c0.063,0.474,0.412,0.752,0.72,1.059c0.458,0.458,0.916,0.916,1.374,1.375
		c0.076,0.076,0.143,0.168,0.23,0.226c0.464,0.306,0.517,0.876,0.833,1.278c0.334,0.425,0.874,0.576,1.22,0.983
		c0.138,0.162,0.052,0.438,0.306,0.527c0,0.573,0,1.147,0,1.73c-0.141,0.192-0.313,0.354-0.578,0.378
		c-0.088,0.199-0.122,0.396,0.04,0.604c0.459,0.032,0.548-0.485,0.889-0.629c0.076,0.076,0.152,0.152,0.304,0.304
		c0,0.308-0.006,0.695,0.001,1.082c0.01,0.488,0.166,0.943,0.471,1.311c0.141,0.17,0.182,0.364,0.281,0.539
		c0.236,0.411,0.191,0.8-0.258,1.063c-0.43,0.076-0.667-0.309-1.02-0.423c-0.285,0-0.571,0-0.861,0
		c-0.158-0.451-0.602-0.682-0.828-1.056c-0.525-0.87-1.339-1.457-1.999-2.192c-0.961-1.069-1.967-2.098-2.828-3.254
		c-0.149-0.2-0.341-0.373-0.532-0.535c-0.542-0.454-0.928-1.021-1.218-1.656c-0.127-0.278-0.179-0.579-0.595-0.624
		c-0.168-0.019-0.311-0.279-0.463-0.432c-0.229-0.228-0.497-0.431-0.677-0.693c-0.199-0.293-0.514-0.096-0.768-0.27
		c-0.287-0.196-0.556-0.4-0.805-0.643c0-0.43,0-0.861,0-1.263c-0.236-0.347-0.566-0.542-0.906-0.715
		c-1.371-0.698-2.47-1.75-3.617-2.743c-0.194-0.167-0.469-0.313-0.717-0.332c-0.506-0.04-0.813-0.349-1.133-0.663
		c-1.009,0-2.016,0-2.983,0c-1.009,0.678-2.087,1.026-3.239,1.105c-0.561-0.624-1.276-0.695-1.934-0.68
		c-0.45-0.285-0.83-0.518-1.396-0.401c-0.085,0.108-0.217,0.276-0.313,0.397c-0.626,0.047-1.167-0.022-1.726,0.194
		c-0.433,0.167-0.954-0.086-1.322-0.384c-0.28-0.227-0.616-0.271-1.01-0.658c-0.082-0.781-0.778-1.595-0.873-2.618
		c-0.019-0.206-0.182-0.47-0.258-0.522c-0.667-0.457-0.798-1.417-1.644-1.707c-0.208-0.071-0.351-0.331-0.481-0.461
		c0.058-0.529,0.546-0.467,0.785-0.776c1.58,0.094,3.055,0.448,4.172,1.971c0.219,0.089,0.592,0.234,0.863,0.458
		c0.321-0.322,0.592-0.595,0.877-0.881c-0.275-1.216-0.275-1.216,0.441-2.068c0-0.106,0-0.279,0-0.451c0-0.18,0-0.36,0-0.547
		c-0.387-0.355-0.779-0.714-1.132-1.038c0.173-0.473-0.125-0.704-0.258-1.038c-0.358-0.193-0.916-0.246-1.062-0.861
		c-0.035-0.149-0.218-0.313-0.372-0.376c-1.187-0.488-1.72-1.569-2.362-2.554c-0.057-0.087-0.12-0.19-0.206-0.235
		c-0.941-0.489-1.483-1.415-2.308-2.066c-0.111,0-0.254,0-0.398-0.001c-0.037,0.056-0.101,0.109-0.106,0.168
		c-0.042,0.456-0.042,0.926,0.278,1.281c0.179,0.198,0.224,0.46,0.134,0.58c-0.536,0.708,0.133,1.045,0.425,1.574
		c0,0.242,0,0.555,0,0.847c-0.098,0.098-0.174,0.175-0.276,0.276c-0.287,0-0.601,0-0.918,0c-0.981-0.68-1.882-1.454-2.437-2.535
		c-0.122-0.237-0.288-0.394-0.452-0.564c-0.625-0.647-1.268-1.277-1.946-1.955c0.042-0.605-0.144-1.283,0.382-1.893
		c0.306-0.173,0.648-0.387,1.008-0.565c0.513-0.254,0.932-0.512,1.026-1.189c0.044-0.316,0.286-0.708,0.771-0.86
		c0.604-0.189,1.094-0.733,1.941-0.497c0.713,1.067,2.104,0.805,3.319,1.349c0.301,0.278,0.612,0.771,1.239,0.893
		c0.428-0.382,0.561-0.934,0.492-1.279c-0.206-0.715-0.733-0.977-0.822-1.348c-0.113-0.472-0.365-0.715-0.612-0.98
		c-0.377-0.009-0.412,0.345-0.85,0.435c-0.621-0.014-1.454-0.072-2.215,0.415c-0.29-0.89,0.398-1.413,0.798-1.992
		c0.314-0.455,0.629-0.934,1.17-1.25c0.667-0.39,1.03-1.137,1.502-1.737c0.395,0.191,0.605-0.181,0.924-0.203
		c0.57-0.04,1.119,0.052,1.634,0.242c0.717,0.264,1.433,0.491,2.2,0.411c0.403-0.042,0.802,0.034,1.083,0.247
		c0.305,0.231,0.588,0.177,0.996,0.189c0-0.346,0.032-0.697-0.007-1.041c-0.083-0.733,0.219-1.281,0.744-1.749
		c0.16-0.142,0.294-0.313,0.423-0.453c0.767,0.125,0.838,0.205,2.113,2.334c0.545,0.056,1.009,0.358,1.463,0.754
		c0.366,0.319,0.893,0.447,1.313,0.714c0.399,0.253,0.767,0.547,1.195,0.767c0.447,0.23,0.536,0.808,0.939,1.134
		c0.119,0.66-0.097,1.26-0.407,1.841c0,0.036-0.015,0.082,0.002,0.106c0.463,0.688,0.069,1.46,0.246,2.209
		c0.432,0.39,0.66,0.892,0.625,1.538c-0.035,0.623-0.081,1.26,0.297,1.906c0.968,1.29,1.58,2.801,1.674,4.552
		c0.455,0.463,0.422,1.151,0.599,1.756c0.144,0.495,0.255,0.881,0.784,1.192c1.039,0.609,2.327,2.02,2.923,2.846
		c0.601,0.834,1.455,1.306,2.53,1.436c0.825,0.1,1.629,0.391,2.433,0.63c0.895,0.267,1.773,0.588,2.669,0.85
		c0.336,0.098,0.663,0.186,0.889,0.458c0.252,0.306,0.594,0.476,0.936,0.613c0.181,0.073,0.381,0.185,0.399,0.303
		c0.109,0.715,0.778,0.885,1.217,0.92c0.499,0.041,0.733,0.39,1.076,0.564c0.323,0.165,0.63,0.377,0.991,0.485
		c0.904,0.271,1.609,0.95,2.513,1.234c0.125,0.04,0.264,0.195,0.319,0.396c0.166,0.597,0.638,0.981,1.059,1.391
		c0.11,0.652,0.235,0.879,0.876,1.586c-0.3,0.417-0.3,0.417-0.778,0.459c-0.147-0.187-0.069-0.517-0.382-0.625
		c-0.571,0-1.144-0.005-1.716,0.001c-0.741,0.008-1.43-0.189-1.982-0.674c-0.266-0.232-0.521-0.162-0.862-0.199
		c-0.21,0.259-0.5,0.496-0.885,0.599C55.274,43.799,54.684,44.095,54.146,43.982c-0.176-0.629-0.176-0.629-0.67-0.494
		C53.575,43.827,53.753,44.044,54.146,43.982z M32.57,18.558c0.327-0.315,0.585-0.563,0.845-0.813
		c-0.049-0.171,0.04-0.338-0.082-0.514c-0.634-0.92-1.299-1.822-2.158-2.536c-0.216-0.18-0.6-0.542-0.957-0.235
		c0.192,0.858,0.672,1.548,1.097,2.264c0.073,0.123,0.153,0.214,0.152,0.371C31.463,17.836,31.974,18.195,32.57,18.558z"/>
	<path style="fill-rule:evenodd;clip-rule:evenodd;fill:none;" d="M32.57,18.558c-0.596-0.363-1.107-0.721-1.102-1.463
		c0.001-0.157-0.079-0.249-0.152-0.371c-0.425-0.716-0.905-1.406-1.097-2.264c0.356-0.307,0.74,0.056,0.957,0.235
		c0.858,0.713,1.524,1.615,2.158,2.536c0.121,0.176,0.033,0.343,0.082,0.514C33.156,17.994,32.897,18.243,32.57,18.558z"/>
	<path style="fill-rule:evenodd;clip-rule:evenodd;fill:none;" d="M54.144,43.991c-0.391,0.053-0.569-0.164-0.668-0.503
		C53.97,43.354,53.97,43.354,54.144,43.991z"/>
</g>
</svg>
