<?xml version="1.0" encoding="iso-8859-1"?>
<!-- Generator: Adobe Illustrator 16.0.0, SVG Export Plug-In . SVG Version: 6.00 Build 0)  -->
<!DOCTYPE svg PUBLIC "-//W3C//DTD SVG 1.1//EN" "http://www.w3.org/Graphics/SVG/1.1/DTD/svg11.dtd">
<svg version="1.1" id="Layer_1" xmlns="http://www.w3.org/2000/svg" xmlns:xlink="http://www.w3.org/1999/xlink" x="0px" y="0px"
	 width="72.36px" height="72.18px" viewBox="0 0 72.36 72.18" style="enable-background:new 0 0 72.36 72.18;" xml:space="preserve"
	>
<g>
	
	<path fill="currentColor" d="M57.383,22.373c-0.408,0.978-0.953,1.644-1.1,2.528
		c-0.057,0.343-0.183,0.7-0.371,1.03c-0.528,0.926-0.897,1.933-1.392,2.876c-0.313,0.595-0.633,1.213-1.077,1.706
		c-0.764,0.851-1.179,1.889-1.741,2.849c-0.035,0.061-0.1,0.103-0.15,0.154c0,0.576,0,1.152,0,1.639
		c-0.889,1.661-1.746,3.249-2.59,4.846c-0.516,0.973-1.009,1.957-1.518,2.934c-0.063,0.12-0.144,0.24-0.245,0.328
		c-1.213,1.056-2.128,2.388-3.272,3.509c-0.653,0.64-1.271,1.314-1.867,2.018c-1.067,1.259-2.397,2.27-3.687,3.306
		c-0.027,0.023-0.046,0.062-0.077,0.075c-1.42,0.614-2.536,1.696-3.83,2.494c-1.243,0.766-2.354,1.67-3.443,2.621
		c-0.428-0.014-0.594,0.412-0.955,0.563c-0.938,0.393-1.71,1.086-2.555,1.651c-0.763,0.51-1.562,0.96-2.29,1.531
		c-0.334,0.263-0.621,0.565-0.936,0.84c-0.368,0.318-0.656,0.732-1.336,0.912c-0.159,0-0.519,0-0.88,0
		c-0.303-0.284-0.635-0.549-0.758-0.975c0-0.432,0-0.863,0-1.223c0.503-0.959,1.041-1.837,0.817-2.958c-0.36,0-0.713,0-1.157,0
		c-0.112-0.169-0.25-0.377-0.387-0.586c-0.266-0.314-0.085-0.656,0.081-0.993c0.176-0.36,0.483-0.594,0.855-0.702
		c0.93-0.271,1.754-0.825,2.718-0.997c0.232-0.428,0.786,0.013,1.03-0.382c1.111-0.054,1.933-0.743,2.807-1.302
		c1.614-1.031,3.129-2.177,4.479-3.56c0.572-0.586,1.082-1.24,1.719-1.755c-0.033-0.253,0.073-0.508-0.078-0.743
		c-0.874,0.431-1.483,1.157-2.061,1.891c-0.144,0.183-0.287,0.388-0.451,0.558c-0.775,0.809-1.644,1.506-2.559,2.151
		c-0.223,0.157-0.361,0.436-0.429,0.521c-1.219,0.222-2.219,0.509-3.264,0.474c-0.619-0.021-1.227,0.063-1.81-0.343
		c-0.273-0.19-0.75-0.085-1.056-0.107c-0.622,0.437-1.344,0.551-1.798,1.098c-0.396-0.025-0.517,0.341-0.744,0.543
		c-0.346,0.307-0.708,0.537-1.182,0.544c-0.267-0.385-0.403-0.8-0.338-1.264c0.125-0.884-0.219-1.564-0.887-2.117
		c-0.187-0.155-0.347-0.343-0.519-0.515c-0.094,0.095-0.17,0.171-0.28,0.28c-0.197,0.325,0.119,0.781-0.236,1.164
		c-0.175,0.188-0.292,0.37-0.542,0.521c-0.77,0.465-1.585,0.433-2.413,0.398c-0.308-0.339-0.707-0.596-0.845-1.064
		c-0.574,0-1.149,0-1.723,0c-0.423-0.411-0.895-0.786-1.005-1.467c0.166-0.334,0.342-0.691,0.502-1.016
		c1.086-0.801,2.296-1.27,3.654-1.462c-0.105-0.508-0.469-0.569-0.835-0.589c-0.395-0.021-0.792-0.005-1.163-0.005
		c-0.872,0.408-1.638,1.069-2.702,0.839c-0.289-0.237-0.395-0.599-0.558-0.946c0.305-0.8,0.807-1.411,1.568-1.723
		c1.036-0.424,1.868-1.182,2.884-1.638c1.002-0.451,1.977-0.971,2.936-1.51c0.59-0.332,1.142-0.737,1.686-1.144
		c0.899-0.67,1.89-1.2,2.81-1.841c0.355-0.247,0.589-0.67,1.082-0.766c0.384-0.074,0.777-0.235,1.099-0.456
		c0.35-0.241,0.608-0.61,0.93-0.897c0.228-0.203,0.495-0.363,0.747-0.539c0.534-0.372,0.754-1.005,1.215-1.444
		c0.429-0.408,0.86-0.81,1.177-1.339c0.152-0.254,0.36-0.525,0.465-0.784c0.292-0.719,0.738-1.292,1.246-1.868
		c0.557-0.633,1.029-1.349,1.484-2.072c0.523-0.832,1.01-1.694,1.939-2.228c0.45-0.258,0.622-0.913,1.098-1.243
		c0.638,0,1.285,0,1.928,0c0.131,0.131,0.25,0.269,0.387,0.383c0.539,0.452,0.749,1.094,0.55,1.693
		c-0.233,0.703-0.126,1.389-0.192,2.068c0.389,0.629,1.032,0.905,1.701,1.25c0.54,0.075,1.15,0.013,1.787,0.17
		c0.715,0.176,1.522,0.126,2.277-0.159c0.872-0.33,1.777-0.574,2.659-0.879c0.39-0.135,0.723-0.366,1.022-0.67
		c0.416-0.42,0.82-0.842,1.337-1.178c0.7-0.456,1.094-1.223,1.31-2.028c0.285-1.061,0.63-2.059,1.437-2.872
		c0.311-0.313,0.426-0.821,0.627-1.241c0.13-0.27,0.22-0.568,0.392-0.807c0.188-0.259,0.449-0.465,0.652-0.668
		c1.166-0.316,2.353-0.34,3.47-0.834C55.64,19,56.58,19.516,57.17,20.535c0.052,0.09,0.139,0.16,0.213,0.243
		C57.383,21.383,57.383,21.996,57.383,22.373z M19.8,45.839c0.172,0.105,0.164,0.308,0.251,0.438
		c0.558,0.833,1.088,1.716,2.239,1.826c0.338,0.478,0.913,0.066,1.362,0.387c0.338,0.242,0.869,0.304,1.313,0.447
		c0.313,0.101,0.743,0.083,1.037-0.058c0.41-0.197,0.884-0.083,1.258-0.355c0.38-0.276,0.809-0.465,1.239-0.654
		c0.206-0.09,0.451-0.235,0.324-0.641c-0.442,0.099-0.872-0.002-1.381,0.164c-0.555,0.181-1.183,0.37-1.838,0.292
		c-0.48-0.057-0.951-0.176-1.421-0.214c-0.854-0.069-1.545-0.437-2.234-0.881c-0.302-0.194-0.288-0.624-0.636-0.737
		c0-0.384,0-0.744,0-0.965c0.348-1.055,1.254-1.392,1.933-1.957c0.117-0.098,0.287-0.277,0.543-0.245
		c0.528,0.065,0.992-0.217,1.431-0.438c0.909-0.458,1.82-0.602,2.727-0.124c0.33,0.175,0.589,0.097,0.906,0.126
		c0-0.226,0-0.395,0-0.717c-0.456,0.359-0.727-0.333-1.074-0.112c-0.428,0.271-0.745,0.051-1.133,0.017
		c-0.423-0.037-0.757-0.313-1.204-0.271c-0.677,0.064-1.366,0.037-2.048,0.009c-0.431-0.017-0.826,0.146-1.167,0.314
		c-0.764,0.378-1.371,1.011-1.882,1.675c-0.332,0.432-0.641,0.964-0.554,1.601C19.839,45.117,19.8,45.481,19.8,45.839z
		 M37.944,36.979c0.484,0.333,0.891-0.046,1.289-0.145c0.469-0.116,0.979-0.229,1.37-0.577c0.213-0.189,0.432-0.37,0.568-0.486
		c0-0.418,0-0.701,0-0.914c-0.203-0.231-0.367-0.418-0.51-0.581c-0.758,0-1.473,0-2.178,0c-0.259,0.188-0.475,0.463-0.309,0.727
		c0.403,0.641,0.185,1.164-0.175,1.702C37.952,36.78,37.96,36.894,37.944,36.979z M34.432,33.677
		c-0.946,0.277-1.259,1.065-1.64,1.801c0,0.285,0,0.598,0,0.921c0.25,0.15,0.481,0.289,0.729,0.438c0.286,0,0.599,0,1.018,0
		c-0.154-0.291,0.093-0.577-0.148-0.821c-0.18-0.182-0.193-0.462-0.077-0.57c0.351-0.325,0.028-0.816,0.371-1.157
		C34.848,34.127,34.643,33.83,34.432,33.677z M33.375,41.448c-0.272,0.554-0.447,0.9-0.609,1.254
		c-0.018,0.04,0.044,0.117,0.07,0.179c0.317,0.133,0.401-0.169,0.539-0.276C33.375,42.266,33.375,41.959,33.375,41.448z
		 M31.089,45.881c-0.495-0.149-0.495-0.149-0.851,0.731C30.682,46.515,30.88,46.215,31.089,45.881z M16.512,48.897
		c-0.285-0.215-0.119-0.906-0.815-0.759C15.955,48.443,15.915,48.948,16.512,48.897z"/>
	<path fill="currentColor" d="M38.119,28.252c-1.324-0.398-1.305-1.237-1.252-1.938
		c0.252-0.678,0.596-1.089,1.329-1.296c1.623-0.032,3.162-0.935,5.145-1.532c0.676-0.021,1.171-0.157,1.949-0.616
		c0.037-0.224-0.174-0.29-0.29-0.453c-0.334,0-0.687,0-1.06,0c-0.337-0.347-0.878-0.352-1.251-0.801
		c0.08-0.656-0.169-1.4,0.232-2.07c-0.089-0.272-0.3-0.144-0.455-0.18c-0.495-0.114-1.008-0.178-1.365-0.617
		c-0.313-0.385-0.865-0.366-1.16-0.718c-0.456,0.234-0.843,0.433-1.339,0.688c-1.669,0-3.464,0.02-5.259-0.011
		c-0.647-0.011-1.135,0.21-1.566,0.665c-0.493,0.52-1.01,1.016-1.401,1.407c-1.159,0.496-2.23,0.243-3.205,0.322
		c-1.583-0.75-3.229-1.388-2.78-3.625c0.049-0.049,0.125-0.125,0.202-0.202c1.708-0.141,1.899-0.107,3.071,0.557
		c1.078,0.164,1.728-0.32,2.395-1.199c0.803-1.058,1.774-2.042,2.929-2.767c0.474-0.297,1.014-0.506,1.546-0.688
		c0.531-0.181,0.773-0.56,0.805-1.056c0.034-0.526,0.293-0.892,0.624-1.259c0.755-0.839,1.654-1.399,2.753-1.708
		c0.268-0.076,0.524-0.149,0.794-0.152c1.043-0.011,2.088,0.032,3.129-0.02c0.507-0.025,0.963,0.176,1.409,0.285
		c0.413,0.101,0.811,0.145,1.219,0.157c0.692,0.021,1.328,0.232,2.109,0.646c0.652,0.345,1.336,0.61,1.945,1.058
		c0.248,0.182,0.468,0.399,0.75,0.593c-0.075,2.43-1.145,4.315-3.125,5.701c-0.348,0-0.693-0.073-0.985,0.021
		c-0.283,0.091-0.567,0.192-0.868,0.251c0,0.189,0,0.358,0,0.565c0.406,0,0.792,0,1.14,0c0.268,0.267,0.496,0.496,0.726,0.725
		c0.045,0.861-0.227,1.71-1.063,3.274c0.645,0.414,1.476,0.363,2.15,0.892c0.434,0.966,0.382,1.125-0.405,1.979
		c-0.449,0.487-1.088,0.816-1.305,1.506c-0.567,0.281-1.055,0.736-1.751,0.728c-0.695-0.008-1.382-0.021-2.075,0.19
		c-0.607,0.185-1.278,0.148-1.866,0.451c-0.028,0.014-0.072,0.007-0.106,0.001C39.615,27.841,38.743,28.337,38.119,28.252z"/>
	<path fill="currentColor" d="M57.387,22.756c0.721-1.019,0.443-2.277,1.147-3.161c0.298,0,0.582,0,0.88,0
		c0.595,0.465,1.064,1.061,1.421,1.739c0.449,0.852,0.872,1.716,1.299,2.58c0.227,0.459,0.22,0.463,0.207,1.197
		c-0.312,1.202-1.314,1.306-2.063,1.795c-1.476,0.043-2.484-0.397-3.11-1.383c0-0.496-0.096-1.022,0.027-1.491
		C57.321,23.553,57.408,23.094,57.387,22.756z"/>
	<path fill="currentColor" d="M27.237,29.724c-1.072-0.921-0.651-2.188-0.745-3.292
		c0.439-0.617,0.593-1.344,1.144-1.854c0.537-0.497,1.228-0.766,1.774-1.304c0.535,0,1.105,0,1.704,0
		c0.028,0.019,0.091,0.05,0.139,0.097c0.326,0.314,0.639,0.632,0.646,1.135c0.008,0.568-0.248,1.069-0.528,1.503
		c-0.296,0.458-0.609,0.925-1.033,1.313c-0.513,0.47-1.02,0.948-1.407,1.562C28.576,29.446,28.014,29.853,27.237,29.724z"/>
	<path fill="currentColor" d="M31.672,59.935c0.149,0.612-0.098,1.214-0.428,1.787
		c-0.259,0.449-0.267,0.964-0.421,1.44c-0.254,0.781-0.727,1.402-1.341,1.918c-0.471,0.395-1.115,0.41-1.601,0.049
		c-0.256-0.191-0.462-0.45-0.737-0.726c0-0.162,0-0.371,0-0.58c0-0.216,0-0.431,0-0.646c0.542-1.882,1.992-2.922,3.619-3.85
		c0.017,0,0.135-0.026,0.153,0.005C31.071,59.598,31.456,59.509,31.672,59.935z"/>
	
	
	
	
	
	
</g>
</svg>
