<svg xmlns="http://www.w3.org/2000/svg" xml:space="preserve" width="72px" height="72px" viewBox="0 0 72 72">
    <path fill="currentColor" d="M54.146 43.982c.241.688.734 1.047 1.14 1.478 1.034.154 1.638.764 1.883 1.63.001.393-.276.412-.315.561-.628.105-.955-.548-1.521-.417l-.62-.63h-2.055l-1.344-1.345c-.47.189-.774-.368-1.21-.14.063.474.412.752.72 1.059l1.374 1.375c.076.076.143.168.23.226.464.306.517.876.833 1.278.334.425.874.576 1.22.983.138.162.052.438.306.527v1.73c-.141.192-.313.354-.578.378-.088.199-.122.396.04.604.459.032.548-.485.889-.629l.304.304c0 .308-.006.695.001 1.082.01.488.166.943.471 1.311.141.17.182.364.281.539.236.411.191.8-.258 1.063-.43.076-.667-.309-1.02-.423h-.861c-.158-.451-.602-.682-.828-1.056-.525-.87-1.339-1.457-1.999-2.192-.961-1.069-1.967-2.098-2.828-3.254a3.4 3.4 0 0 0-.532-.535c-.542-.454-.928-1.021-1.218-1.656-.127-.278-.179-.579-.595-.624-.168-.019-.311-.279-.463-.432-.229-.228-.497-.431-.677-.693-.199-.293-.514-.096-.768-.27a6 6 0 0 1-.805-.643v-1.263c-.236-.347-.566-.542-.906-.715-1.371-.698-2.47-1.75-3.617-2.743-.194-.167-.469-.313-.717-.332-.506-.04-.813-.349-1.133-.663h-2.983a6.5 6.5 0 0 1-3.239 1.105c-.561-.624-1.276-.695-1.934-.68-.45-.285-.83-.518-1.396-.401l-.313.397c-.626.047-1.167-.022-1.726.194-.433.167-.954-.086-1.322-.384-.28-.227-.616-.271-1.01-.658-.082-.781-.778-1.595-.873-2.618-.019-.206-.182-.47-.258-.522-.667-.457-.798-1.417-1.644-1.707-.208-.071-.351-.331-.481-.461.058-.529.546-.467.785-.776 1.58.094 3.055.448 4.172 1.971.219.089.592.234.863.458l.877-.881c-.275-1.216-.275-1.216.441-2.068v-.998l-1.132-1.038c.173-.473-.125-.704-.258-1.038-.358-.193-.916-.246-1.062-.861-.035-.149-.218-.313-.372-.376-1.187-.488-1.72-1.569-2.362-2.554-.057-.087-.12-.19-.206-.235-.941-.489-1.483-1.415-2.308-2.066l-.398-.001c-.037.056-.101.109-.106.168-.042.456-.042.926.278 1.281.179.198.224.46.134.58-.536.708.133 1.045.425 1.574v.847l-.276.276h-.918c-.981-.68-1.882-1.454-2.437-2.535-.122-.237-.288-.394-.452-.564-.625-.647-1.268-1.277-1.946-1.955.042-.605-.144-1.283.382-1.893.306-.173.648-.387 1.008-.565.513-.254.932-.512 1.026-1.189.044-.316.286-.708.771-.86.604-.189 1.094-.733 1.941-.497.713 1.067 2.104.805 3.319 1.349.301.278.612.771 1.239.893.428-.382.561-.934.492-1.279-.206-.715-.733-.977-.822-1.348-.113-.472-.365-.715-.612-.98-.377-.009-.412.345-.85.435-.621-.014-1.454-.072-2.215.415-.29-.89.398-1.413.798-1.992.314-.455.629-.934 1.17-1.25.667-.39 1.03-1.137 1.502-1.737.395.191.605-.181.924-.203.57-.04 1.119.052 1.634.242.717.264 1.433.491 2.2.411.403-.042.802.034 1.083.247.305.231.588.177.996.189 0-.346.032-.697-.007-1.041-.083-.733.219-1.281.744-1.749.16-.142.294-.313.423-.453.767.125.838.205 2.113 2.334.545.056 1.009.358 1.463.754.366.319.893.447 1.313.714.399.253.767.547 1.195.767.447.23.536.808.939 1.134.119.66-.097 1.26-.407 1.841 0 .036-.015.082.002.106.463.688.069 1.46.246 2.209.432.39.66.892.625 1.538-.035.623-.081 1.26.297 1.906.968 1.29 1.58 2.801 1.674 4.552.455.463.422 1.151.599 1.756.144.495.255.881.784 1.192 1.039.609 2.327 2.02 2.923 2.846.601.834 1.455 1.306 2.53 1.436.825.1 1.629.391 2.433.63.895.267 1.773.588 2.669.85.336.098.663.186.889.458.252.306.594.476.936.613.181.073.381.185.399.303.109.715.778.885 1.217.92.499.041.733.39 1.076.564.323.165.63.377.991.485.904.271 1.609.95 2.513 1.234.125.04.264.195.319.396.166.597.638.981 1.059 1.391.11.652.235.879.876 1.586-.3.417-.3.417-.778.459-.147-.187-.069-.517-.382-.625-.571 0-1.144-.005-1.716.001-.741.008-1.43-.189-1.982-.674-.266-.232-.521-.162-.862-.199-.21.259-.5.496-.885.599-.473-.351-1.063-.055-1.601-.168-.176-.629-.176-.629-.67-.494.099.339.277.556.67.494M32.57 18.558l.845-.813c-.049-.171.04-.338-.082-.514-.634-.92-1.299-1.822-2.158-2.536-.216-.18-.6-.542-.957-.235.192.858.672 1.548 1.097 2.264.073.123.153.214.152.371-.004.741.507 1.1 1.103 1.463"/>
</svg>
