<?xml version="1.0" encoding="iso-8859-1"?>
<!-- Generator: Adobe Illustrator 16.0.0, SVG Export Plug-In . SVG Version: 6.00 Build 0)  -->
<!DOCTYPE svg PUBLIC "-//W3C//DTD SVG 1.1//EN" "http://www.w3.org/Graphics/SVG/1.1/DTD/svg11.dtd">
<svg version="1.1" id="Layer_1" xmlns="http://www.w3.org/2000/svg" xmlns:xlink="http://www.w3.org/1999/xlink" x="0px" y="0px"
	 width="72.36px" height="72.18px" viewBox="0 0 72.36 72.18" style="enable-background:new 0 0 72.36 72.18;" xml:space="preserve"
	>
<g>
	
	<path fill="currentColor" d="M64.746,47.775c-0.058,0.982-0.39,1.819-1.211,2.462c-0.17,0-0.381,0-0.65,0
		c-0.413-0.346-0.735-0.818-0.967-1.363c-0.173-0.403-0.467-0.741-0.695-1.11c-0.311-0.502-0.945-0.706-1.475-0.499
		c-0.457,0.179-0.884,0.142-1.389,0.198c-0.758-1.045-2.041-1.506-2.934-2.466c-0.307-0.329-0.821-0.598-1.371-0.577
		c-0.326-0.243-0.572-0.574-0.974-0.762c-0.538-0.25-0.961-0.689-1.372-1.125c-0.212-0.225-0.414-0.445-0.744-0.549
		c-0.594-0.186-0.915-0.667-1.145-1.224c-0.143-0.346-0.282-0.702-0.644-0.969c0-0.36-0.012-0.751,0.002-1.141
		c0.061-1.86,0.789-2.752,2.613-3.083c0.628-0.113,1.341-0.746,1.483-1.351c0.03-0.128,0.042-0.286-0.163-0.407
		c-0.823,0.436-1.714,0.807-2.577,1.129c-0.865-0.328-0.941-1.279-1.568-1.847c-0.804,0.747-1.043,1.97-2.259,2.274
		c-0.298-0.104-0.657-0.199-0.989-0.352c-0.344-0.159-0.723-0.187-1.008-0.026c-0.358,0.201-0.625,0.2-0.97,0.016
		c-0.316-0.168-0.697-0.176-1.007-0.001c-0.529,0.298-1.025,0.657-1.542,0.995c-0.81-0.308-1.342-0.915-1.719-1.634
		c0.144-0.546,0.336-1.058,0.399-1.584c0.074-0.609,0.357-0.975,0.897-1.242c0.689-0.341,1.345-0.751,2.09-1.173
		c0.31,0,0.696,0,1.119,0c-0.211-0.349-0.501-0.144-0.632-0.175c-0.77-0.459-1.048-1.242-1.635-1.759
		c-0.349,0.205-0.539-0.31-0.876-0.189c-0.139,0.19-0.145,0.412-0.014,0.58c0.326,0.417,0.14,0.798-0.078,1.144
		c-0.479,0.759-0.96,1.529-1.912,1.927c-0.13,0-0.345,0-0.562,0c-0.511-0.42-0.636-1.058-0.724-1.631
		c-0.072-0.47,0.324-0.915,0.744-1.164c0.613-0.363,1.11-0.9,1.87-1.088c-0.681-0.624-0.995-0.574-1.839,0.163
		c-0.979,0.228-1.671-0.167-2.26-0.853c-0.323-0.376-0.723-0.64-1.299-0.608c0.186,0.867,1.069,1.514,0.745,2.541
		c-0.042,0.041-0.118,0.117-0.264,0.264c-0.469-0.089-1.028,0.202-1.546-0.206c-0.084-0.066-0.32-0.054-0.409,0.018
		c-0.546,0.436-1.04,0.125-1.542-0.07c-0.096-0.215-0.192-0.427-0.275-0.612c-0.083-0.672,0.732-0.947,0.64-1.616
		c-0.729-0.393-1.5-0.626-2.351-0.539c-0.73,0.075-1.312-0.157-1.909-0.634c-0.452-0.361-0.85-0.862-1.53-0.989
		c-0.348-0.065-0.687-0.074-1.028-0.097c-0.756-0.051-1.461-0.25-2.246-0.654c-0.444,0-1.017,0.016-1.588-0.006
		c-0.302-0.012-0.621,0.11-0.906-0.177c-0.108-0.11-0.447-0.103-0.618-0.019c-0.605,0.298-1.156,0.25-1.78,0.01
		c-0.452-0.175-0.913,0.183-1.374,0.286c-0.929,0.207-1.86,0.21-2.907-0.066c-0.659,0.134-1.312,0.685-2.193,0.646
		c-0.84-0.037-1.59-0.371-2.396-0.494c-0.153-0.153-0.305-0.306-0.472-0.472c-0.011-0.29-0.075-0.561,0.139-0.872
		c0.71-1.031,1.407-2.057,2.515-2.721c0.21-0.125,0.361-0.349,0.516-0.504c0.166-0.972,0.259-1.915,1.081-2.616
		c0.739-0.63,0.804-0.726,1.63-0.771c0.418,0.325,0.727,0.74,1.003,1.188c0.268,0.432,0.557,0.85,0.849,1.292
		c0,0.482,0,0.982,0,1.475c0.474,0.353,0.947,0.576,1.475,0.146c0.249,0.105,0.747,0.178,1.134,0.156
		c-0.172-1.529,1.004-2.51,1.502-3.792c0.36,0,0.673,0,0.9,0c0.434,0.136,0.737,0.354,0.92,0.593
		c0.371,0.081,0.646-0.024,0.715-0.261c0.113-0.394,0.373-0.765,0.427-1.108c0.079-0.507,0.427-0.973,0.272-1.515
		c0.263-0.256,0.52-0.507,0.782-0.764c0.275,0,0.563,0,0.872,0c0.096,0.129,0.286,0.267,0.288,0.407
		c0.006,0.917,0.505,1.465,1.28,1.834c0.061,0.029,0.107,0.089,0.189,0.161c0.298-0.109,0.586-0.377,1.077-0.167
		c0.115,0.142,0.317,0.389,0.462,0.568c0.344,0,0.558,0,0.778,0c0.096-0.058,0.08-0.174,0.123-0.259
		c0.265-0.524,0.469-1.06,0.423-1.66c-0.017-0.223,0.09-0.376,0.2-0.568c0.545-0.947,1.151-1.847,1.809-2.69
		c0.542,0,1.045,0,1.561,0c0.616,0.543,0.604,1.334,0.738,2.054c0.078,0.417,0.022,0.861,0.012,1.293
		c-0.027,1.205,0.443,2.247,1.078,3.224c0.35,0.538,0.67,1.042,0.274,1.698c-0.129,0.214-0.061,0.478-0.022,0.771
		c0.562,0.19,1.032,0.679,1.778,0.313c0.378-0.185,0.901-0.072,1.396-0.096c0-0.608,0-1.21,0-1.639
		c0.32-0.805,0.883-1.198,1.333-1.69c0-0.647,0-1.294,0-1.938c0.181-0.181,0.358-0.359,0.537-0.537
		c0.338-0.035,0.727,0.161,0.932-0.298c0.577,0.368,0.546,0.915,0.694,1.385c0.291,0.917,0.579,1.841,1.158,2.572
		c0.3,0.045,0.432-0.125,0.498-0.262c0.195-0.397,0.396-0.777,0.666-1.138c0.101-0.133,0.323-0.346,0.272-0.637
		c-0.096-0.553,0.295-0.969,0.543-1.386c0.313-0.526,0.613-1.017,0.788-1.627c0.105-0.372,0.274-0.844,0.687-1.167
		c0.266,0,0.58,0,0.94,0c0.788,0.877,1.371,1.866,1.386,3.17c0.005,0.463,0.152,0.976,0.376,1.452
		c0.301,0.639,0.545,1.324,0.466,2.079c-0.055,0.53-0.01,1.071-0.01,1.587c0.741,0.531,1.111,0.583,1.87,0.282
		c0.113-0.393,0.467-0.699,0.104-1.215c-0.28-0.398,0.084-0.938,0.203-1.396c0.12-0.462,0.397-0.871,1.048-0.954
		c0.787,0.292,1.164,1.112,1.641,1.866c0.124,0,0.266,0,0.42,0c0.169-0.419,0.483-0.777,0.553-1.263
		c0.12-0.835,0.588-1.767,1.148-2.373c0.283,0,0.598,0,0.929,0c0.389,0.407,0.854,0.775,0.984,1.407
		c0.089,0.428,0.46,0.687,0.755,0.98c0.713,0.71,1.372,1.453,1.809,2.382c0.144,0.306,0.431,0.681,0.72,0.752
		c0.479,0.117,0.549,0.5,0.727,0.794c0.208,0.343,0.43,0.694,0.601,1.046c0.479,0.985,1.004,1.966,1.178,3.073
		c0.084,0.533,0.313,1.031,0.485,1.529c0.192,0.556,0.315,1.093,0.402,1.673c0.124,0.824,0.354,1.646,0.662,2.419
		c0.109,0.274,0.171,0.518,0.175,0.79c0.011,0.648-0.122,1.327,0.028,1.938c0.34,1.375,0.065,2.759,0.207,4.126
		c0.078,0.758-0.313,1.438-0.232,2.18c-0.351,0.352-0.194,0.797-0.211,1.206c-0.02,0.467-0.033,0.938,0.003,1.403
		c0.036,0.464-0.375,0.84-0.224,1.314c-0.386,0.819-0.493,1.736-0.877,2.551C65.232,47.348,64.948,47.551,64.746,47.775z
		 M23.791,21.297c-0.73-0.581-0.82-0.576-1.553,0C22.706,21.297,23.156,21.297,23.791,21.297z"/>
	<path fill="currentColor" d="M17.797,48.257c-0.229,0.128-0.145,0.362-0.159,0.587
		c-0.454,0.438-0.918,0.885-1.432,1.378c-0.457,0.091-1.003,0.435-1.528,0.227c-0.625-0.247-1.241-0.147-1.899-0.203
		c-0.112,0.104-0.237,0.223-0.302,0.282c-0.065,0.319,0.137,0.394,0.241,0.541c0.488,0.17,0.942,0.015,1.365-0.193
		c0.928,0.289,1.508,1,2.01,1.684c0.368,0.502,0.77,1.021,1.038,1.609c0.278,0.609,0.522,1.199,0.086,1.846
		c-0.065,0.097-0.009,0.276-0.009,0.397c-0.477,0.478-0.935,0.936-1.393,1.394c-0.616,0.075-1.256,0.008-1.576-0.533
		c-0.152-0.257-0.472-0.425-0.487-0.763c-0.009-0.211-0.196-0.29-0.317-0.406c-0.316-0.302-0.827-0.382-0.98-0.873
		c-0.125-0.398-0.49-0.674-0.621-1.036c-0.143-0.397-0.516-0.547-0.69-0.9c-0.296-0.601-0.528-1.191-0.396-1.891
		c-1.429-0.645-1.607-2.1-2.153-3.296c-0.134-0.294-0.211-0.643-0.4-0.91c-0.476-0.674-0.742-1.456-0.864-2.224
		c-0.098-0.618-0.257-1.194-0.505-1.743c-0.214-0.473-0.22-0.945-0.195-1.427c0.025-0.495-0.009-0.989-0.237-1.414
		c-0.216-0.4-0.197-0.801-0.2-1.213c-0.005-0.647-0.02-1.296,0.005-1.942c0.019-0.506-0.064-0.961-0.417-1.329
		c-0.201-0.9,0.43-1.639,0.443-2.521c0.012-0.836,0.207-1.692,0.464-2.495c0.259-0.809,0.355-1.644,0.581-2.455
		c0.225-0.807,0.672-1.555,0.656-2.477c0.246-0.202,0.521-0.429,0.942-0.776c0.854-0.156,1.295,0.744,1.982,1.3
		c0.099,0,0.239,0,0.354,0c0.41-0.41,0.813-0.814,1.11-1.111c0.794-0.357,1.47-0.462,2.223-0.366c0.5,0.676,1.32,1.037,2.017,1.53
		c0.768,0.544,1.16,1.318,1.659,1.931c0.282,0.812-0.15,1.501-0.151,2.269c0.651,0.175,1.314,0.322,1.585,1.09
		c0.086,0.242,0.394,0.406,0.584,0.592c0,0.458,0,0.889,0,1.344c-0.556,0.335-0.735,0.961-1.074,1.54c0,0.223,0,0.51,0,0.801
		c0.473,0.594,1.409,0.794,1.438,1.789c-0.054,0.806,0.19,1.603,0.735,2.242c0.466,0.545,0.481,1.25,0.833,1.823
		c0.065,0.105,0.055,0.324-0.059,0.502c-0.3,0.471-0.47,0.97-1.045,1.297c-0.948,0.539-1.784,1.275-2.72,1.967
		c-0.538-0.051-1.11,0.021-1.552,0.532c0,0.2,0,0.413,0,0.648C17.118,47.316,17.637,47.609,17.797,48.257z M11.809,29.305
		c-0.019,0.104,0.029,0.169,0.128,0.191c0.017,0.003,0.067-0.047,0.063-0.063c-0.022-0.099-0.088-0.146-0.308-0.115
		c-0.149-0.147-0.349-0.344-0.561-0.553C11.231,29.093,11.363,29.358,11.809,29.305z M16.386,31.069c0.263,0.156,0.54,0.259,0.964,0
		C16.913,31.069,16.649,31.069,16.386,31.069z"/>
	<path fill="currentColor" d="M58.901,48.846c1.049-0.675,1.711,0.068,2.424,0.51
		c0.297,0.184,0.552,0.47,0.758,0.758c0.191,0.266,0.292,0.597,0.506,1.057c0.139,0.603-0.288,1.32-0.267,2.098
		c0.011,0.374-0.274,0.806-0.651,1.001c-0.685,0.354-1.151,0.838-1.264,1.621c-0.034,0.234-0.251,0.334-0.396,0.48
		c-1.087,1.098-2.194,2.174-3.267,3.284c-0.518,0.536-1.074,0.886-1.863,0.732c-0.461-0.537-1.122-0.39-1.729-0.414
		c-0.344-0.82-0.88-1.564-0.762-2.223c0.294-1.003,1.089-1.304,1.355-2.009c0.045-0.121,0.179-0.252,0.301-0.294
		c1.483-0.512,2.651-1.696,4.252-1.975c0.257-0.044,0.581-0.203,0.791-0.505c0-0.137,0-0.306,0-0.469
		c-0.188-0.197-0.448-0.094-0.681-0.208c-0.903-0.443-1.055-1.366-0.421-2.089C58.352,49.788,58.799,49.441,58.901,48.846z"/>
	<path fill="currentColor" d="M19.12,48.743c0.5,0,0.967,0,1.435,0c0.6,0.084,0.764,0.809,1.349,0.915
		c0.38,0.526,0.252,1.136,0.275,1.728c-0.342,0.464-0.481,1.019-0.648,1.56c-0.201,0.649-0.53,1.159-1.197,1.438
		c-0.337,0.141-0.677,0.329-0.865,0.646c-1.006-0.107-1.589-0.799-2.001-1.479c-0.33-0.545-0.708-1.01-1.121-1.461
		c0-0.511,0-1.014,0-1.519C17.128,49.788,18.083,49.262,19.12,48.743z"/>
	<path fill="currentColor" d="M52.803,45.998c1.016,1.056,2.31,2.019,2.611,3.718
		c-0.112,0.444-0.628,0.388-0.925,0.465c-0.56,0.145-1.084,0.4-1.583,0.623c-0.506,0.226-0.982,0.378-1.487,0.297
		c-0.523-0.083-0.918,0.386-1.586,0.151c-0.431-0.226-0.552-0.819-0.643-1.38c-0.104-0.628,0.154-1.26,0.514-1.711
		c0.39-0.487,0.748-1.012,1.188-1.466C51.404,46.167,51.945,45.755,52.803,45.998z"/>
	<path fill="currentColor" d="M23.833,43.775c0.799,0.862,1.372,1.91,2.013,2.922c0,0.275,0,0.562,0,0.867
		c-0.17,0.16-0.352,0.332-0.547,0.516c-0.546,0.146-1.064-0.112-1.56-0.294c-0.323-0.119-0.623-0.195-0.874-0.03
		c-0.311,0.204-0.698,0.211-0.903,0.095c-0.474-0.268-0.955-0.128-1.424-0.205c-0.504-1.138-0.332-1.928,0.693-2.547
		c0.278-0.168,0.503-0.363,0.722-0.572C22.726,43.79,22.718,43.781,23.833,43.775z"/>
	<path fill="currentColor" d="M21.784,37.424c-0.14-0.514-0.615-0.708-0.916-1.162
		c0.081-1.263,0.883-2.182,1.84-3.051c0.353,0,0.738,0,1.103,0c0.418,0.32,0.412,0.874,0.773,1.214
		c0.351,0.332,0.686,0.67,0.939,1.111c0.378,0.658,0.441,1.262,0.058,1.916c-0.886,0.486-1.856,0.187-2.786,0.282
		C22.382,37.776,22.079,37.56,21.784,37.424z"/>
	<path fill="currentColor" d="M29.847,12.24c-0.449-0.434-0.932-0.911-0.992-1.892
		c0.466,0.606,1.127,0.426,1.506,0.902c0,0.21,0,0.449,0,0.688C30.217,12.028,30.165,12.241,29.847,12.24z"/>
	<path fill="currentColor" d="M23.904,11.263c0,0.286,0,0.567,0,0.828
		c-0.116,0.144-0.223,0.276-0.28,0.347c-0.364,0.07-0.403-0.227-0.584-0.275c0-0.247,0-0.457,0-0.668
		C23.275,11.217,23.518,10.969,23.904,11.263z"/>
	
	
	
	
</g>
</svg>
