<svg xmlns="http://www.w3.org/2000/svg" xml:space="preserve" width="72px" height="72px" viewBox="0 0 72 72">
    <g fill="currentColor">
        <path d="M57.383 22.373c-.408.978-.953 1.644-1.1 2.528-.057.343-.183.7-.371 1.03-.528.926-.897 1.933-1.392 2.876-.313.595-.633 1.213-1.077 1.706-.764.851-1.179 1.889-1.741 2.849-.035.061-.1.103-.15.154v1.639c-.889 1.661-1.746 3.249-2.59 4.846-.516.973-1.009 1.957-1.518 2.934-.063.12-.144.24-.245.328-1.213 1.056-2.128 2.388-3.272 3.509a30 30 0 0 0-1.867 2.018c-1.067 1.259-2.397 2.27-3.687 3.306-.027.023-.046.062-.077.075-1.42.614-2.536 1.696-3.83 2.494-1.243.766-2.354 1.67-3.443 2.621-.428-.014-.594.412-.955.563-.938.393-1.71 1.086-2.555 1.651-.763.51-1.562.96-2.29 1.531-.334.263-.621.565-.936.84-.368.318-.656.732-1.336.912h-.88c-.303-.284-.635-.549-.758-.975v-1.223c.503-.959 1.041-1.837.817-2.958h-1.157l-.387-.586c-.266-.314-.085-.656.081-.993.176-.36.483-.594.855-.702.93-.271 1.754-.825 2.718-.997.232-.428.786.013 1.03-.382 1.111-.054 1.933-.743 2.807-1.302 1.614-1.031 3.129-2.177 4.479-3.56.572-.586 1.082-1.24 1.719-1.755-.033-.253.073-.508-.078-.743-.874.431-1.483 1.157-2.061 1.891-.144.183-.287.388-.451.558-.775.809-1.644 1.506-2.559 2.151-.223.157-.361.436-.429.521-1.219.222-2.219.509-3.264.474-.619-.021-1.227.063-1.81-.343-.273-.19-.75-.085-1.056-.107-.622.437-1.344.551-1.798 1.098-.396-.025-.517.341-.744.543-.346.307-.708.537-1.182.544-.267-.385-.403-.8-.338-1.264.125-.884-.219-1.564-.887-2.117-.187-.155-.347-.343-.519-.515l-.28.28c-.197.325.119.781-.236 1.164-.175.188-.292.37-.542.521-.77.465-1.585.433-2.413.398-.308-.339-.707-.596-.845-1.064H11.06c-.423-.411-.895-.786-1.005-1.467l.502-1.016c1.086-.801 2.296-1.27 3.654-1.462-.105-.508-.469-.569-.835-.589-.395-.021-.792-.005-1.163-.005-.872.408-1.638 1.069-2.702.839-.289-.237-.395-.599-.558-.946.305-.8.807-1.411 1.568-1.723 1.036-.424 1.868-1.182 2.884-1.638a37 37 0 0 0 2.936-1.51c.59-.332 1.142-.737 1.686-1.144.899-.67 1.89-1.2 2.81-1.841.355-.247.589-.67 1.082-.766a3 3 0 0 0 1.099-.456c.35-.241.608-.61.93-.897.228-.203.495-.363.747-.539.534-.372.754-1.005 1.215-1.444.429-.408.86-.81 1.177-1.339.152-.254.36-.525.465-.784.292-.719.738-1.292 1.246-1.868.557-.633 1.029-1.349 1.484-2.072.523-.832 1.01-1.694 1.939-2.228.45-.258.622-.913 1.098-1.243h1.928c.131.131.25.269.387.383.539.452.749 1.094.55 1.693-.233.703-.126 1.389-.192 2.068.389.629 1.032.905 1.701 1.25.54.075 1.15.013 1.787.17a3.9 3.9 0 0 0 2.277-.159c.872-.33 1.777-.574 2.659-.879.39-.135.723-.366 1.022-.67.416-.42.82-.842 1.337-1.178.7-.456 1.094-1.223 1.31-2.028.285-1.061.63-2.059 1.437-2.872.311-.313.426-.821.627-1.241.13-.27.22-.568.392-.807.188-.259.449-.465.652-.668 1.166-.316 2.353-.34 3.47-.834.977-.43 1.917.086 2.507 1.105.052.09.139.16.213.243zM19.8 45.839c.172.105.164.308.251.438.558.833 1.088 1.716 2.239 1.826.338.478.913.066 1.362.387.338.242.869.304 1.313.447.313.101.743.083 1.037-.058.41-.197.884-.083 1.258-.355.38-.276.809-.465 1.239-.654.206-.09.451-.235.324-.641-.442.099-.872-.002-1.381.164-.555.181-1.183.37-1.838.292-.48-.057-.951-.176-1.421-.214-.854-.069-1.545-.437-2.234-.881-.302-.194-.288-.624-.636-.737v-.965c.348-1.055 1.254-1.392 1.933-1.957.117-.098.287-.277.543-.245.528.065.992-.217 1.431-.438.909-.458 1.82-.602 2.727-.124.33.175.589.097.906.126v-.717c-.456.359-.727-.333-1.074-.112-.428.271-.745.051-1.133.017-.423-.037-.757-.313-1.204-.271-.677.064-1.366.037-2.048.009-.431-.017-.826.146-1.167.314-.764.378-1.371 1.011-1.882 1.675-.332.432-.641.964-.554 1.601.048.351.009.715.009 1.073m18.144-8.86c.484.333.891-.046 1.289-.145.469-.116.979-.229 1.37-.577.213-.189.432-.37.568-.486v-.914l-.51-.581h-2.178c-.259.188-.475.463-.309.727.403.641.185 1.164-.175 1.702-.047.075-.039.189-.055.274m-3.512-3.302c-.946.277-1.259 1.065-1.64 1.801v.921l.729.438h1.018c-.154-.291.093-.577-.148-.821-.18-.182-.193-.462-.077-.57.351-.325.028-.816.371-1.157.163-.162-.042-.459-.253-.612m-1.057 7.771c-.272.554-.447.9-.609 1.254-.018.04.044.117.07.179.317.133.401-.169.539-.276zm-2.286 4.433c-.495-.149-.495-.149-.851.731.444-.097.642-.397.851-.731m-14.577 3.016c-.285-.215-.119-.906-.815-.759.258.305.218.81.815.759"/>
        <path d="M38.119 28.252c-1.324-.398-1.305-1.237-1.252-1.938.252-.678.596-1.089 1.329-1.296 1.623-.032 3.162-.935 5.145-1.532.676-.021 1.171-.157 1.949-.616.037-.224-.174-.29-.29-.453h-1.06c-.337-.347-.878-.352-1.251-.801.08-.656-.169-1.4.232-2.07-.089-.272-.3-.144-.455-.18-.495-.114-1.008-.178-1.365-.617-.313-.385-.865-.366-1.16-.718l-1.339.688c-1.669 0-3.464.02-5.259-.011-.647-.011-1.135.21-1.566.665-.493.52-1.01 1.016-1.401 1.407-1.159.496-2.23.243-3.205.322-1.583-.75-3.229-1.388-2.78-3.625l.202-.202c1.708-.141 1.899-.107 3.071.557 1.078.164 1.728-.32 2.395-1.199.803-1.058 1.774-2.042 2.929-2.767.474-.297 1.014-.506 1.546-.688.531-.181.773-.56.805-1.056.034-.526.293-.892.624-1.259a5.66 5.66 0 0 1 2.753-1.708c.268-.076.524-.149.794-.152 1.043-.011 2.088.032 3.129-.02.507-.025.963.176 1.409.285.413.101.811.145 1.219.157.692.021 1.328.232 2.109.646.652.345 1.336.61 1.945 1.058.248.182.468.399.75.593-.075 2.43-1.145 4.315-3.125 5.701-.348 0-.693-.073-.985.021-.283.091-.567.192-.868.251v.565h1.14l.726.725c.045.861-.227 1.71-1.063 3.274.645.414 1.476.363 2.15.892.434.966.382 1.125-.405 1.979-.449.487-1.088.816-1.305 1.506-.567.281-1.055.736-1.751.728-.695-.008-1.382-.021-2.075.19-.607.185-1.278.148-1.866.451-.028.014-.072.007-.106.001-.923-.165-1.795.331-2.419.246m19.268-5.496c.721-1.019.443-2.277 1.147-3.161h.88a5.3 5.3 0 0 1 1.421 1.739c.449.852.872 1.716 1.299 2.58.227.459.22.463.207 1.197-.312 1.202-1.314 1.306-2.063 1.795-1.476.043-2.484-.397-3.11-1.383 0-.496-.096-1.022.027-1.491.126-.479.213-.938.192-1.276"/>
        <path d="M27.237 29.724c-1.072-.921-.651-2.188-.745-3.292.439-.617.593-1.344 1.144-1.854.537-.497 1.228-.766 1.774-1.304h1.704c.028.019.091.05.139.097.326.314.639.632.646 1.135.008.568-.248 1.069-.528 1.503-.296.458-.609.925-1.033 1.313-.513.47-1.02.948-1.407 1.562-.355.562-.917.969-1.694.84m4.435 30.211c.149.612-.098 1.214-.428 1.787-.259.449-.267.964-.421 1.44-.254.781-.727 1.402-1.341 1.918a1.27 1.27 0 0 1-1.601.049c-.256-.191-.462-.45-.737-.726v-1.226c.542-1.882 1.992-2.922 3.619-3.85.017 0 .135-.026.153.005.155.266.54.177.756.603"/>
    </g>
</svg>
