<?xml version="1.0" encoding="iso-8859-1"?>
<!-- Generator: Adobe Illustrator 16.0.0, SVG Export Plug-In . SVG Version: 6.00 Build 0)  -->
<!DOCTYPE svg PUBLIC "-//W3C//DTD SVG 1.1//EN" "http://www.w3.org/Graphics/SVG/1.1/DTD/svg11.dtd">
<svg version="1.1" id="Layer_1" xmlns="http://www.w3.org/2000/svg" xmlns:xlink="http://www.w3.org/1999/xlink" x="0px" y="0px"
	 width="72.36px" height="72.18px" viewBox="0 0 72.36 72.18" style="enable-background:new 0 0 72.36 72.18;" xml:space="preserve"
	>
<g>
	
	<path fill="currentColor" d="M15.914,47.304c-0.606-0.264-1.092-0.297-1.719-0.125
		c-0.709,0.192-1.485,0.372-2.273,0.281c-0.568-0.064-1.154-0.053-1.725-0.001c-0.512,0.047-0.932-0.19-1.387-0.316
		c-0.797-0.221-0.939-1.01-1.322-1.588c-0.006-1.105-0.542-2.094-0.692-3.181c-0.107-0.776-0.26-1.582-0.535-2.355
		c-0.218-0.614-0.178-1.355-0.004-2.001c0.141-0.524,0.129-0.949-0.012-1.48c-0.133-0.5-0.238-1.127,0.098-1.648
		c0.093-0.144,0.083-0.282,0.059-0.405c-0.203-1.04,0.386-1.95,0.48-2.94c0.01-0.106,0.192-0.186,0.178-0.355
		c-0.119-1.38,0.561-2.569,0.979-3.806c0.428-1.266,0.847-2.532,1.239-3.865c0.581-0.56,1.122-1.269,2.054-1.524
		c1.534-0.125,3.13-0.482,4.726-0.084c0.249,0.138,0.316-0.24,0.559-0.168c0.033,0.01,0.072,0.001,0.107,0.001
		c1.332,0,2.667-0.061,3.994,0.017c1.319,0.077,2.598-0.307,3.906-0.229c0.799,0.048,1.589,0.36,2.392,0.202
		c2.158-0.423,4.333-0.113,6.499-0.199c0.488-0.019,0.904-0.327,1.424-0.24c0.455,0.077,0.935,0.044,1.4,0.008
		c0.431-0.034,0.765,0.302,1.209,0.236c0.387-0.058,0.801,0.049,1.184-0.022c2.014-0.376,4.045-0.124,6.066-0.215
		c0.511-0.023,0.994-0.244,1.53-0.219c1.083,0.051,1.983,0.854,1.969,1.96c-0.014,0.941,0.187,1.893-0.176,2.835
		c-0.151,0.394-0.11,0.873-0.192,1.314c-0.078,0.417,0.093,0.95,0.234,1.388c0.319,0.988,0.204,1.993,0.111,2.955
		c-0.133,1.383-0.149,1.36,0.004,2.636c0.094,0.787,0.475,1.562,0.181,2.452c-0.296,0.292-0.654,0.646-1.008,0.993
		c0,0.296,0,0.583,0,0.793c0.444,0.878,0.747,1.694,0.911,2.628c0.214,1.209,0.127,2.396,0.155,3.59
		c0.027,1.146,0.297,2.227,0.604,3.316c0.398,1.412,0.638,2.859,0.472,4.332c-0.045,0.399-0.275,0.787-0.193,1.207
		c0.085,0.439-0.131,0.836-0.255,1.195c-0.303,0.875-0.61,1.75-1.164,2.547c-0.619,0.892-1.477,1.385-2.363,1.861
		c-0.642,0.346-1.212,0.824-1.985,0.953c-0.521,0.087-1.037,0.27-1.566,0.382c-0.814,0.174-1.635,0.378-2.353,0.884
		c-0.084,0.456-0.007,0.865,0.159,1.302c0.155,0.41,0.039,0.873,0.147,1.335c0.168,0.72,0.271,1.526-0.124,2.262
		c-0.045,0.083-0.006,0.212-0.006,0.361c-0.326,0.289-0.674,0.597-1.091,0.966c-0.449,0-1.023,0-1.578,0
		c-0.391-0.229-0.587-0.609-0.776-0.974c-0.16-0.309-0.229-0.665-0.376-1.118c-0.368,0.371-0.296,0.794-0.504,1.066
		c-0.215,0.281-0.471,0.531-0.712,0.798c-0.341-0.082-0.578,0.186-0.851,0.241c-0.459-0.005-0.715-0.441-1.142-0.453
		c-0.165-0.325-0.331-0.654-0.53-1.049c0-0.635,0.155-1.399-0.036-2.064c-0.295-1.026-0.074-2.035-0.19-2.993
		c0.497-0.651,1.111-0.904,1.837-0.785c0.203-0.174,0.078-0.368,0.123-0.545c-0.499-0.47-0.976-0.927-1.632-1.248
		c-0.94-0.461-1.638-1.281-2.215-2.169c-0.685-1.052-1.006-2.243-1.36-3.433c-0.292-0.982-0.108-1.964-0.214-2.938
		c-0.039-0.358,0.191-0.584,0.265-0.876c0.14-0.553,0.112-1.135,0.377-1.676c0.185-0.377-0.281-0.74-0.235-1.146
		c-0.81-0.123-1.152,0.621-2.064,0.825c-0.49-0.06-1.273-0.005-2.084-0.139c-0.861-0.142-1.806-0.232-2.72,0.13
		c-0.436,0.172-0.996,0.029-1.5,0.029c-0.756,0-1.512,0-2.165,0c-0.208,0.137-0.355,0.233-0.462,0.305
		c0.036,0.151,0.031,0.235,0.071,0.278c0.196,0.211,0.399,0.416,0.608,0.613c0.326,0.307,0.455,0.687,0.419,1.121
		c-0.043,0.514,0.14,1.054-0.204,1.538c-0.068,0.095-0.063,0.312-0.001,0.419c0.347,0.595,0.156,1.239,0.209,1.859
		c0.018,0.202-0.076,0.418,0.131,0.597c0.188,0.162,0.136,0.446,0.068,0.603c-0.432,0.999-0.079,2.038-0.206,3.048
		c-0.046,0.365,0.323,0.603,0.235,0.994c-0.066,0.293-0.031,0.599,0.18,0.894c0.119,0.167,0.021,0.489,0.021,0.734
		c-0.167,0.532-0.591,0.857-1.003,1.288c-1.034-0.087-1.833-0.663-2.441-1.485c-0.47-0.636-0.733-1.367-0.679-2.207
		c0.025-0.392,0.214-0.857-0.189-1.213c-0.054-0.047,0-0.208-0.009-0.315c-0.031-0.388,0.268-0.691,0.236-1.1
		c-0.028-0.352-0.331-0.603-0.242-0.99c0.387-1.682,0.192-3.393,0.205-5.092c0.002-0.286,0.162-0.482,0.264-0.648
		C15.911,47.953,15.903,47.666,15.914,47.304z M40.786,51.013c0.205-0.994,0.678-1.728,1.054-2.505
		c0.258-0.532,0.206-1.006,0.064-1.572c-0.134-0.536-0.541-0.858-0.712-1.327c-0.181-0.493-0.498-0.789-0.98-0.985
		c-0.399-0.162-0.759-0.42-1.128-0.631c-1.868-0.135-3.298,0.988-3.948,3.426c0.279,0.54,0.569,1.061,0.938,1.561
		c0.485,0.656,1.086,1.324,1.031,2.263c-0.006,0.098,0.223,0.172,0.184,0.382c-0.057,0.083-0.204,0.199-0.197,0.305
		c0.055,0.823-0.277,1.532-0.67,2.204c-0.253,0.433-0.197,0.845-0.194,1.21c0.149,0.149,0.225,0.226,0.327,0.327
		c0.802-0.136,1.663,0.215,2.471-0.222c0.111-0.06,0.313-0.061,0.422,0.001c0.736,0.408,1.526,0.104,2.233,0.214
		c0.292-0.276,0.552-0.522,0.781-0.739c0.152-0.681-0.232-1.174-0.542-1.634c-0.456-0.678-0.964-1.306-1.051-2.157
		C40.862,51.073,40.792,51.021,40.786,51.013z M34.865,38.142c0.581,0.868,1.534,1.051,2.392,1.524
		c0.227-0.11,0.586,0.169,0.956-0.188c-1.045-0.354-1.39-1.43-2.194-2.013C35.57,37.6,35.18,37.712,34.865,38.142z M45.548,36.941
		c-0.619-1.194-1.026-1.506-1.884-1.576c-0.384,0.55-0.466,1.106-0.017,1.676c0.474,0.291,1.013,0.294,1.528,0.228
		C45.302,37.158,45.409,37.065,45.548,36.941z M36.028,62.27c0.309-0.292,0.564-0.532,0.811-0.765c0-0.194,0-0.401,0-0.661
		c-0.754-0.327-1.515-0.577-2.518-0.627C34.979,61.02,35.414,61.769,36.028,62.27z M41.81,37.288
		c-0.362,0.13-0.548-0.378-0.882-0.231c-0.664,0.43-0.798,1.083-0.968,1.736c0.753,0.134,1.264-0.354,1.85-0.678
		C41.81,37.855,41.81,37.616,41.81,37.288z M42.696,34.467c0-0.231,0-0.375,0-0.472c-0.343-0.36-0.663-0.696-0.977-1.025
		c-0.255,0.048-0.514-0.088-0.766,0.114c0.109,0.444-0.221,0.985,0.325,1.383C41.708,34.467,42.164,34.467,42.696,34.467z
		 M31.336,37.498c0.708-0.257,0.708-0.257,1.219-0.829c-0.061-0.355,0.071-0.742-0.065-1.076c-0.434,0.409-0.845,0.796-1.249,1.175
		C31.292,37.024,31.151,37.282,31.336,37.498z"/>
	<path fill="currentColor" d="M46.979,19.578c-0.719,0.399-1.388,0.675-2.178,0.663
		c-1.907-0.028-3.815-0.039-5.722,0.007c-0.677,0.017-1.313-0.135-1.961-0.24c-0.628-0.102-0.978-0.632-1.429-1.053
		c-0.217,0-0.458,0-0.674,0c-0.371,0.906-1.221,1.016-1.971,1.271c-0.129,0.044-0.286,0.015-0.43,0.005
		c-2.316-0.164-4.613,0.308-6.928,0.217c-0.888,0.299-1.837,0.356-2.709,0.175c-0.919-0.19-1.825-0.074-2.724-0.191
		c-0.656-0.085-1.241,0.17-1.852,0.26c-0.981,0.145-0.968,0.215-1.684,0.029c-0.2-0.052-0.416-0.054-0.625-0.055
		c-1.08-0.005-2.159-0.002-3.239-0.002c-0.451-0.196-0.574-0.66-0.831-1.015c-0.01-0.11,0.073-0.194,0.096-0.282
		c0.285-1.115,1.039-1.829,1.976-2.409c0.205-0.126,0.373-0.336,0.515-0.538c0.6-0.856,0.606-0.873,1.49-1.375
		c0.25,0.083,0.458,0.336,0.779,0.211c0.498,0.529,1.005,0.991,1.778,1.174c0.604,0.144,1.166,0.15,1.745,0.045
		c0.11-0.02,0.22-0.159,0.374-0.132c0.782,0.14,1.506-0.33,2.286-0.216c0.356,0.052,0.606-0.308,0.993-0.229
		c0.295,0.06,0.594-0.094,0.888-0.166c0.701-0.173,1.228-0.576,1.746-1.003c0.442-0.364,0.815-0.813,1.23-1.21
		c0.456-0.437,0.541-1.084,0.954-1.655C28.742,11,29.021,10.08,29.131,9.07c0.394-0.132,0.332-0.727,0.791-0.948
		c0.389-0.188,0.768-0.402,1.164-0.581c0.417-0.187,0.888,0.095,1.32-0.213c0.422-0.301,0.843,0.179,1.334,0.198
		c0.25,0.268,0.542,0.58,0.91,0.974c0.091,0.369,0.465,0.884,0.243,1.357c-0.278,0.595-0.132,1.175-0.188,1.759
		c-0.053,0.56,0.389,1.049,0.217,1.542c0.138,0.169,0.226,0.278,0.314,0.386c0.12-0.121,0.222-0.222,0.345-0.345
		c-0.172-0.832,0.241-1.623,0.241-2.478c0-0.85-0.412-1.644-0.29-2.23c0.226-0.608,0.429-0.929,0.835-1.22
		c0.796,0,1.692-0.041,2.582,0.011c1.095,0.063,2.104,0.324,2.457,1.58c0.025,0.092,0.13,0.163,0.186,0.228
		c0.063,1.112,0.335,2.148,0.888,3.106c0.049,0.086,0.057,0.213,0.126,0.269c0.699,0.558,1.148,1.334,1.745,1.982
		c0.658,0.715,1.504,1.051,2.406,1.224c0.336,0.064,0.616,0.257,0.984,0.271c0.383,0.015,0.626-0.267,0.991-0.256
		c1.043,0.03,2.087,0.011,3.156,0.011c0.08-0.096,0.173-0.205,0.311-0.369c-0.049-0.403,0.012-0.857-0.18-1.351
		c-0.201-0.518-0.008-1.104,0.496-1.496c0.998-0.15,1.888,0.021,2.48,1.024c-0.056,0.382,0.199,0.79,0.281,1.222
		c0.107,0.569,0.592,0.976,1.269,0.969c0.178-0.002,0.355,0,0.454,0c0.524,0.328,1.03,0.526,1.439,0.921
		c0.647,0.626,1.064,1.292,0.844,2.256c-0.121,0.122-0.274,0.274-0.467,0.467c-1.072,0.147-2.277-0.246-3.392,0.531
		c0.108,0.68-0.182,1.418,0.231,2.109c0,1.223,0.178,2.482-0.054,3.66c-0.203,1.036-0.169,2.047-0.116,3.049
		c0.03,0.569,0.147,1.159,0.18,1.748c0.007,0.115,0.142,0.224,0.224,0.344c-0.169,0.274-0.244,0.555-0.241,0.881
		c0.017,1.763,0.022,3.526,0,5.29c-0.008,0.621,0.029,1.228-0.173,1.865c-0.241,0.764,0.093,1.58,0.289,2.341
		c0.184,0.712,0.167,1.42,0.059,2.098c-0.168,1.055-0.233,1.964,0.016,2.979c0.05,0.202,0.031,0.423,0.032,0.635
		c0.003,0.792,0.015,1.584-0.006,2.375c-0.007,0.302,0.122,0.63-0.181,0.903c-0.091,0.083,0.001,0.346-0.033,0.518
		c-0.098,0.505,0.293,0.908,0.245,1.426c-0.038,0.425-0.203,0.907,0.176,1.326c0.107,0.119,0.035,0.419,0.013,0.633
		c-0.111,1.08,0.247,2.188-0.19,3.248c0.455,0.807,0.035,1.682,0.217,2.447c-0.238,0.692-0.784,1.054-1.19,1.518
		c-0.488,0.024-0.488,0.024-0.889,0.222c-0.051-0.051-0.093-0.128-0.154-0.149c-0.86-0.301-1.025-0.508-1.028-1.374
		c-0.005-1.619,0.125-3.251-0.029-4.855c-0.264-2.743-0.072-5.488-0.228-8.224c-0.049-0.865-0.167-1.737-0.175-2.612
		c-0.009-0.876,0.364-1.721,0.216-2.609c-0.097-0.573-0.12-1.168-0.293-1.716c-0.176-0.558-0.108-1.053-0.018-1.61
		c0.178-1.104,0.654-2.221,0.093-3.352c0.156-0.749-0.323-1.429-0.224-2.179c0.054-0.408,0.008-0.81,0.204-1.214
		c0.157-0.321-0.135-0.77,0.22-1.102c0.072-0.067,0.001-0.277,0.019-0.418c0.041-0.325-0.327-0.519-0.235-0.887
		c0.072-0.288,0.052-0.605-0.181-0.893c-0.106-0.13-0.019-0.417-0.019-0.633c0-1.404,0.009-2.807-0.005-4.21
		c-0.004-0.408,0.118-0.836-0.197-1.217c-0.089-0.106-0.088-0.412,0-0.517c0.264-0.313,0.211-0.661,0.193-1.001
		c-0.011-0.214,0.222-0.268,0.228-0.502c-0.048-0.265-0.36-0.372-0.512-0.598c-0.855-0.19-1.666,0.418-2.491,0.173
		C48.581,19.535,47.746,19.619,46.979,19.578z M35.263,14.553c-0.518,1.006-0.285,2.04-0.351,2.97
		c0.153,0.154,0.221,0.242,0.309,0.301c0.05,0.035,0.133,0.022,0.201,0.031C36.261,16.887,36.22,15.622,35.263,14.553z"/>
	
	
	
	
	
	
	
	
</g>
</svg>
