<svg xmlns="http://www.w3.org/2000/svg" xml:space="preserve" width="72px" height="72px" viewBox="0 0 72 72">
    <g fill="currentColor">
        <path d="M15.914 47.304c-.606-.264-1.092-.297-1.719-.125-.709.192-1.485.372-2.273.281a8.6 8.6 0 0 0-1.725-.001c-.512.047-.932-.19-1.387-.316-.797-.221-.939-1.01-1.322-1.588-.006-1.105-.542-2.094-.692-3.181-.107-.776-.26-1.582-.535-2.355-.218-.614-.178-1.355-.004-2.001.141-.524.129-.949-.012-1.48-.133-.5-.238-1.127.098-1.648a.5.5 0 0 0 .059-.405c-.203-1.04.386-1.95.48-2.94.01-.106.192-.186.178-.355-.119-1.38.561-2.569.979-3.806.428-1.266.847-2.532 1.239-3.865.581-.56 1.122-1.269 2.054-1.524 1.534-.125 3.13-.482 4.726-.084.249.138.316-.24.559-.168.033.01.072.001.107.001 1.332 0 2.667-.061 3.994.017 1.319.077 2.598-.307 3.906-.229.799.048 1.589.36 2.392.202 2.158-.423 4.333-.113 6.499-.199.488-.019.904-.327 1.424-.24.455.077.935.044 1.4.008.431-.034.765.302 1.209.236.387-.058.801.049 1.184-.022 2.014-.376 4.045-.124 6.066-.215.511-.023.994-.244 1.53-.219 1.083.051 1.983.854 1.969 1.96-.014.941.187 1.893-.176 2.835-.151.394-.11.873-.192 1.314-.078.417.093.95.234 1.388.319.988.204 1.993.111 2.955-.133 1.383-.149 1.36.004 2.636.094.787.475 1.562.181 2.452-.296.292-.654.646-1.008.993v.793c.444.878.747 1.694.911 2.628.214 1.209.127 2.396.155 3.59.027 1.146.297 2.227.604 3.316.398 1.412.638 2.859.472 4.332-.045.399-.275.787-.193 1.207.085.439-.131.836-.255 1.195-.303.875-.61 1.75-1.164 2.547-.619.892-1.477 1.385-2.363 1.861-.642.346-1.212.824-1.985.953-.521.087-1.037.27-1.566.382-.814.174-1.635.378-2.353.884-.084.456-.007.865.159 1.302.155.41.039.873.147 1.335.168.72.271 1.526-.124 2.262-.045.083-.006.212-.006.361l-1.091.966h-1.578c-.391-.229-.587-.609-.776-.974-.16-.309-.229-.665-.376-1.118-.368.371-.296.794-.504 1.066-.215.281-.471.531-.712.798-.341-.082-.578.186-.851.241-.459-.005-.715-.441-1.142-.453l-.53-1.049c0-.635.155-1.399-.036-2.064-.295-1.026-.074-2.035-.19-2.993.497-.651 1.111-.904 1.837-.785.203-.174.078-.368.123-.545-.499-.47-.976-.927-1.632-1.248-.94-.461-1.638-1.281-2.215-2.169-.685-1.052-1.006-2.243-1.36-3.433-.292-.982-.108-1.964-.214-2.938-.039-.358.191-.584.265-.876.14-.553.112-1.135.377-1.676.185-.377-.281-.74-.235-1.146-.81-.123-1.152.621-2.064.825-.49-.06-1.273-.005-2.084-.139-.861-.142-1.806-.232-2.72.13-.436.172-.996.029-1.5.029h-2.165c-.208.137-.355.233-.462.305.036.151.031.235.071.278q.294.317.608.613c.326.307.455.687.419 1.121-.043.514.14 1.054-.204 1.538-.068.095-.063.312-.001.419.347.595.156 1.239.209 1.859.018.202-.076.418.131.597.188.162.136.446.068.603-.432.999-.079 2.038-.206 3.048-.046.365.323.603.235.994-.066.293-.031.599.18.894.119.167.021.489.021.734-.167.532-.591.857-1.003 1.288-1.034-.087-1.833-.663-2.441-1.485-.47-.636-.733-1.367-.679-2.207.025-.392.214-.857-.189-1.213-.054-.047 0-.208-.009-.315-.031-.388.268-.691.236-1.1-.028-.352-.331-.603-.242-.99.387-1.682.192-3.393.205-5.092.002-.286.162-.482.264-.648.183-.301.175-.588.186-.95m24.872 3.709c.205-.994.678-1.728 1.054-2.505.258-.532.206-1.006.064-1.572-.134-.536-.541-.858-.712-1.327-.181-.493-.498-.789-.98-.985-.399-.162-.759-.42-1.128-.631-1.868-.135-3.298.988-3.948 3.426.279.54.569 1.061.938 1.561.485.656 1.086 1.324 1.031 2.263-.006.098.223.172.184.382-.057.083-.204.199-.197.305.055.823-.277 1.532-.67 2.204-.253.433-.197.845-.194 1.21l.327.327c.802-.136 1.663.215 2.471-.222a.51.51 0 0 1 .422.001c.736.408 1.526.104 2.233.214l.781-.739c.152-.681-.232-1.174-.542-1.634-.456-.678-.964-1.306-1.051-2.157-.007-.061-.077-.113-.083-.121m-5.921-12.871c.581.868 1.534 1.051 2.392 1.524.227-.11.586.169.956-.188-1.045-.354-1.39-1.43-2.194-2.013-.449.135-.839.247-1.154.677m10.683-1.201c-.619-1.194-1.026-1.506-1.884-1.576-.384.55-.466 1.106-.017 1.676.474.291 1.013.294 1.528.228.127-.111.234-.204.373-.328m-9.52 25.329.811-.765v-.661c-.754-.327-1.515-.577-2.518-.627.658.803 1.093 1.552 1.707 2.053m5.782-24.982c-.362.13-.548-.378-.882-.231-.664.43-.798 1.083-.968 1.736.753.134 1.264-.354 1.85-.678zm.886-2.821v-.472l-.977-1.025c-.255.048-.514-.088-.766.114.109.444-.221.985.325 1.383zm-11.36 3.031c.708-.257.708-.257 1.219-.829-.061-.355.071-.742-.065-1.076l-1.249 1.175c.051.256-.09.514.095.73"/>
        <path d="M46.979 19.578c-.719.399-1.388.675-2.178.663a148 148 0 0 0-5.722.007c-.677.017-1.313-.135-1.961-.24-.628-.102-.978-.632-1.429-1.053h-.674c-.371.906-1.221 1.016-1.971 1.271-.129.044-.286.015-.43.005-2.316-.164-4.613.308-6.928.217a5.2 5.2 0 0 1-2.709.175c-.919-.19-1.825-.074-2.724-.191-.656-.085-1.241.17-1.852.26-.981.145-.968.215-1.684.029a2.6 2.6 0 0 0-.625-.055c-1.08-.005-2.159-.002-3.239-.002-.451-.196-.574-.66-.831-1.015-.01-.11.073-.194.096-.282.285-1.115 1.039-1.829 1.976-2.409.205-.126.373-.336.515-.538.6-.856.606-.873 1.49-1.375.25.083.458.336.779.211.498.529 1.005.991 1.778 1.174.604.144 1.166.15 1.745.045.11-.02.22-.159.374-.132.782.14 1.506-.33 2.286-.216.356.052.606-.308.993-.229.295.06.594-.094.888-.166.701-.173 1.228-.576 1.746-1.003.442-.364.815-.813 1.23-1.21.456-.437.541-1.084.954-1.655-.13-.864.149-1.784.259-2.794.394-.132.332-.727.791-.948.389-.188.768-.402 1.164-.581.417-.187.888.095 1.32-.213.422-.301.843.179 1.334.198l.91.974c.091.369.465.884.243 1.357-.278.595-.132 1.175-.188 1.759-.053.56.389 1.049.217 1.542l.314.386.345-.345c-.172-.832.241-1.623.241-2.478 0-.85-.412-1.644-.29-2.23.226-.608.429-.929.835-1.22.796 0 1.692-.041 2.582.011 1.095.063 2.104.324 2.457 1.58.025.092.13.163.186.228.063 1.112.335 2.148.888 3.106.049.086.057.213.126.269.699.558 1.148 1.334 1.745 1.982.658.715 1.504 1.051 2.406 1.224.336.064.616.257.984.271.383.015.626-.267.991-.256 1.043.03 2.087.011 3.156.011l.311-.369c-.049-.403.012-.857-.18-1.351-.201-.518-.008-1.104.496-1.496.998-.15 1.888.021 2.48 1.024-.056.382.199.79.281 1.222.107.569.592.976 1.269.969.178-.002.355 0 .454 0 .524.328 1.03.526 1.439.921.647.626 1.064 1.292.844 2.256l-.467.467c-1.072.147-2.277-.246-3.392.531.108.68-.182 1.418.231 2.109 0 1.223.178 2.482-.054 3.66-.203 1.036-.169 2.047-.116 3.049.03.569.147 1.159.18 1.748.007.115.142.224.224.344a1.6 1.6 0 0 0-.241.881c.017 1.763.022 3.526 0 5.29-.008.621.029 1.228-.173 1.865-.241.764.093 1.58.289 2.341.184.712.167 1.42.059 2.098-.168 1.055-.233 1.964.016 2.979.05.202.031.423.032.635.003.792.015 1.584-.006 2.375-.007.302.122.63-.181.903-.091.083.001.346-.033.518-.098.505.293.908.245 1.426-.038.425-.203.907.176 1.326.107.119.035.419.013.633-.111 1.08.247 2.188-.19 3.248.455.807.035 1.682.217 2.447-.238.692-.784 1.054-1.19 1.518-.488.024-.488.024-.889.222-.051-.051-.093-.128-.154-.149-.86-.301-1.025-.508-1.028-1.374-.005-1.619.125-3.251-.029-4.855-.264-2.743-.072-5.488-.228-8.224-.049-.865-.167-1.737-.175-2.612-.009-.876.364-1.721.216-2.609-.097-.573-.12-1.168-.293-1.716-.176-.558-.108-1.053-.018-1.61.178-1.104.654-2.221.093-3.352.156-.749-.323-1.429-.224-2.179.054-.408.008-.81.204-1.214.157-.321-.135-.77.22-1.102.072-.067.001-.277.019-.418.041-.325-.327-.519-.235-.887.072-.288.052-.605-.181-.893-.106-.13-.019-.417-.019-.633 0-1.404.009-2.807-.005-4.21-.004-.408.118-.836-.197-1.217-.089-.106-.088-.412 0-.517.264-.313.211-.661.193-1.001-.011-.214.222-.268.228-.502-.048-.265-.36-.372-.512-.598-.855-.19-1.666.418-2.491.173-.835-.252-1.67-.168-2.437-.209m-11.716-5.025c-.518 1.006-.285 2.04-.351 2.97.153.154.221.242.309.301.05.035.133.022.201.031.839-.968.798-2.233-.159-3.302"/>
    </g>
</svg>
