<?xml version="1.0" encoding="iso-8859-1"?>
<!-- Generator: Adobe Illustrator 16.0.0, SVG Export Plug-In . SVG Version: 6.00 Build 0)  -->
<!DOCTYPE svg PUBLIC "-//W3C//DTD SVG 1.1//EN" "http://www.w3.org/Graphics/SVG/1.1/DTD/svg11.dtd">
<svg version="1.1" id="Layer_1" xmlns="http://www.w3.org/2000/svg" xmlns:xlink="http://www.w3.org/1999/xlink" x="0px" y="0px"
	 width="72.36px" height="72.18px" viewBox="0 0 72.36 72.18" style="enable-background:new 0 0 72.36 72.18;" xml:space="preserve"
	>
<g>
	
	<path fill="currentColor" d="M33.396,36.776c0.121,0.772-0.146,1.356-0.567,2.088
		c-0.005,0.005-0.292-0.086-0.392,0.166c-0.667-0.049-1.33-0.052-1.85,0.553c0.303,0.166,0.633,0.119,0.919,0.071
		c0.326-0.055,0.485,0.222,0.771,0.268c0.393,0.063,0.719,0.305,0.993,0.735c0.399,0.628,0.839,1.256,1.305,1.855
		c0.523,0.672,0.853,1.507,1.201,2.299c0.821,1.869,1.93,3.586,2.822,5.418c0.308,0.631,0.723,1.21,1.037,1.839
		c0.267,0.534,0.433,1.117,0.69,1.656c0.295,0.616,0.623,1.232,1.158,1.674c0.313,0.258,0.433,0.627,0.658,0.929
		c0.525,0.704,1.11,1.312,1.834,1.813c0.691,0.479,1.368,0.67,2.212,0.42c0.578-0.172,1.17-0.436,1.794-0.299
		c0.188,0.181,0.371,0.354,0.571,0.545c-0.121,1.12-0.975,1.569-1.978,2.032c-0.506,0-1.153-0.034-1.795,0.012
		c-0.502,0.035-0.98-0.059-1.417-0.24c-0.938-0.392-1.934-0.686-2.596-1.572c-0.442-0.592-1.161-0.895-1.668-1.448
		c-0.707-0.772-1.343-1.595-1.991-2.413c-0.357-0.45-0.513-0.966-0.651-1.461c-0.215-0.778-0.63-1.433-1.112-2.018
		c-0.376-0.456-0.675-0.977-1.112-1.391c-0.185-0.176-0.317-0.445-0.387-0.696c-0.324-1.161-1.005-2.125-1.693-3.077
		c-0.401-0.555-0.781-1.128-1.182-1.682c-0.422-0.58-0.936-1.048-1.407-1.566c-0.327-0.361-0.752-0.641-0.912-1.136
		c0-0.504,0-1.007,0-1.466c-0.297-0.507-0.875-0.62-1.214-1.034c-0.31-0.38-0.684-0.686-1.249-0.862
		c-0.531,0.48-0.716,1.169-0.76,1.867c-0.049,0.797-0.244,1.532-0.547,2.263c-0.166,0.398-0.298,0.84-0.311,1.267
		c-0.01,0.364-0.149,0.668-0.249,0.986c-0.219,0.697-0.439,1.405-0.766,2.056c-0.29,0.575-0.724,1.076-1.15,1.69
		c-0.008,0.306,0.017,0.679,0.161,1.099c0.165,0.483,0.073,1.069,0.028,1.605c-0.043,0.513,0.199,1.057-0.18,1.547
		c-0.088,0.113-0.024,0.346-0.025,0.524c-0.002,0.36-0.033,0.724,0.005,1.079c0.145,1.352-0.136,2.682-0.261,4.011
		c-0.065,0.694-0.137,1.534-0.965,2.028c-0.294,0-0.68,0-1.066,0c-1.035-0.258-1.504-1.296-2.404-1.748
		c-0.787-0.395-1.306-1.126-2.028-1.614c-1.105-0.747-1.475-2.025-2.055-3.137c-0.189-0.363-0.191-0.846,0.02-1.216
		c0.162-0.285,0.076-0.54,0.1-0.805c-0.751-0.564-1.722-0.071-2.471-0.594c-0.962-0.75-1.447-1.82-1.853-2.965
		c-0.211-0.596-0.403-1.219-0.669-1.771c-0.355-0.737-0.052-1.172,0.352-1.651c0.11-0.13,0.294-0.198,0.409-0.272
		c-0.233-0.497-0.411-0.855-0.57-1.221c-0.215-0.494-0.546-0.906-1.062-1.039c-0.536-0.139-0.725-0.569-0.794-0.957
		c-0.241-1.346-0.79-2.645-0.666-4.047c0.019-0.214-0.212-0.271-0.229-0.461c0.273-0.394,0.354-0.854,0.133-1.264
		c-0.135-0.25-0.117-0.471-0.121-0.707c-0.012-0.755-0.003-1.511-0.005-2.268c-0.002-1.04,0.365-2.023,0.464-3.047
		c0.378-0.417,0.007-1.041,0.4-1.454c-0.086-0.678,0.224-1.259,0.416-1.878c0.14-0.449,0.366-0.905,0.235-1.322
		c0.62-1.054,0.875-2.189,1.51-3.141c-0.077-0.662,0.434-1.077,0.746-1.52c1.045-1.481,1.107-1.4,3.028-2.249
		c0.63-0.278,1.273-0.405,2.041-0.699c0.397-0.363,0.85-0.899,1.464-1.265c0.57-0.339,2.063-0.811,2.549-0.555
		c0.892,0.47,1.469-0.156,2.145-0.46c0.216-0.098,0.317-0.344,0.567-0.454c0.458-0.203,0.866-0.513,1.307-0.757
		c0.271-0.149,0.577-0.241,0.694-0.508c0.935-0.065,1.761,0.103,2.605,0.351c0.595,0.175,1.322,0.201,1.905,0.02
		c0.46-0.144,0.887-0.139,1.329-0.163c0.539-0.029,1.089,0.056,1.617-0.024c0.555-0.084,1.017,0.196,1.529,0.264
		c0.48,0.063,1.014,0.076,1.452,0.391c0.093,0.067,0.276,0.01,0.401,0.01c0.373,0.373,0.721,0.738,1.089,1.082
		c0.188,0.177,0.002,0.525,0.331,0.546c-0.089,0.45-0.381,0.709-0.479,1.081c-0.101,0.383-0.715,0.279-0.856,0.796
		c0.413,0.503,1.042,0.743,1.728,1.147c-0.066-1.035,0.233-1.829,1.087-2.266c0.722-0.368,1.209-0.305,1.673,0.041
		c0.366,1.042-0.353,1.702-0.772,2.454c0.36,0.397,0.853,0.493,1.313,0.499c0.544,0.008,1.096,0.145,1.654-0.166
		c0.303-0.168,0.775-0.03,1.146-0.03c0.512,0.142,0.813,0.534,1.157,0.861c0.475-0.294,0.929-0.584,1.393-0.86
		c0.508-0.302,1.041-0.506,1.656-0.44c0.32,0.035,0.648,0.022,0.971,0.003c1.068-0.063,1.974,0.405,3,0.855
		c0.763-0.03,1.598,0.432,2.551,0.164c0.552-0.785,1.476-0.93,2.41-1.007c0.572-0.047,1.183-0.128,1.721,0.015
		c1.337,0.354,2.683,0.087,4.043,0.218c0.905,0.684,2.033,1.345,2.671,3.39c-0.091,0.207-0.184,0.42-0.278,0.637
		c-0.061,0.016-0.132,0.061-0.188,0.047c-0.612-0.151-1.203,0.098-1.735,0.259c-0.901,0.273-1.792,0.44-2.696,0.384
		c-0.139,0.348,0.096,0.332,0.227,0.464c0.543,0.554,1.197,0.971,1.849,1.316c0.707,0.375,1.222,0.98,1.921,1.346
		c0.194,0.102,0.351,0.317,0.479,0.544c0.318,0.558,0.688,1.088,1.058,1.615c0.446,0.634,0.788,1.293,0.632,2.161
		c-0.253,0.821-0.904,1.058-1.748,0.991c-0.322-0.025-0.651-0.038-0.971,0.003c-0.677,0.086-1.309-0.181-1.964-0.212
		c-0.659-0.031-1.272-0.091-1.893-0.4c-0.285-0.143-0.722-0.141-1.077-0.26c-0.586-0.196-1.123-0.462-1.565-0.919
		c-0.851-0.879-1.729-1.731-2.591-2.601c-0.669-0.675-1.468-1.055-2.402-1.249c-0.694-0.144-1.348-0.48-2.179-0.391
		c0,0.337-0.039,0.692,0.012,1.033c0.051,0.344-0.224,0.555-0.246,0.883c-0.093,1.387-0.754,2.492-1.926,3.23
		c-0.482,0.304-0.682,0.727-0.951,1.276c1.841,0.052,3.268,1.144,5.04,1.641c0.141,0.157,0.38,0.423,0.659,0.734
		c0,0.207,0,0.494,0,0.789c-1.098,1.278-2.6,0.918-3.987,0.981c-0.382-0.415-0.86-0.402-1.353-0.454
		c-0.846-0.088-1.726-0.159-2.505-0.46c-0.442-0.17-0.796-0.083-1.21-0.194c0.023,0.125,0.019,0.161,0.034,0.174
		c0.886,0.753,1.525,1.667,1.922,2.77c0.124,0.343,0.383,0.643,0.666,0.915c0.959,0.923,1.842,1.933,2.848,2.799
		c0.708,0.609,1.406,1.239,2.033,1.852c0.297-0.144,0.306-0.318,0.252-0.427c-0.3-0.604-0.297-1.293-0.599-1.915
		c-0.225-0.463-0.342-1.04-0.271-1.62c0.064-0.531,0.014-1.076,0.014-1.555c0.316-0.507,0.42-1.159,0.937-1.377
		c0.349-0.147,0.73-0.375,1.174-0.308c0.21,0.031,0.292,0.177,0.454,0.298c0,1.27,0,2.559,0,3.646
		c0.404,1.293,1.217,2.105,1.901,2.981c0.826,1.058,1.318,2.259,1.771,3.483c0.078,0.212,0.248,0.408,0.244,0.656
		c-0.004,0.36-0.001,0.721-0.001,1.08c-0.378,0.659-0.741,0.993-1.827,1.684c-1.553,0.099-2.99-0.228-4.32-1.051
		c-0.464-0.288-0.985-0.502-1.335-0.931c-0.409-0.502-1.023-0.729-1.458-1.205c-0.42-0.461-0.84-0.926-1.411-1.257
		c-0.451-0.262-0.737-0.795-1.17-1.105c-0.423-0.303-0.779-0.611-1.061-1.062c-0.316-0.508-0.99-0.657-1.346-1.155
		c-0.433,0.009-0.58-0.38-0.82-0.617c-0.924-0.913-1.886-1.775-2.953-2.521c-0.289-0.202-0.511-0.502-0.768-0.753
		c-0.151-0.148-0.289-0.368-0.472-0.418c-0.728-0.2-1.142-0.782-1.636-1.265C34.777,37.482,34.182,37.113,33.396,36.776z
		 M22.159,24.375c-0.311-0.109-0.405,0.163-0.536,0.162c-0.714-0.008-0.987,0.681-1.531,0.939c-0.156,0.074-0.12,0.37-0.005,0.551
		c0.963,0.214,1.569-0.303,2.073-0.955C22.159,24.823,22.159,24.616,22.159,24.375z M15.804,40.968
		c-0.407-0.021-0.74,0.055-0.76,0.551c0.473,0.287,0.724-0.134,1.101-0.21C16.001,41.165,15.903,41.066,15.804,40.968z"/>
	<path fill="currentColor" d="M52.2,37.647c0-0.319-0.001-0.57,0.001-0.821
		c0.001-0.032,0.017-0.064,0.036-0.138c0.746-0.644,1.654-0.595,2.526-0.357c0.381,0.104,0.842-0.047,1.156,0.315
		c0.277,0.319,0.662,0.481,1.057,0.554c0.67,0.125,1.244,0.45,1.854,0.72c0.775,0.343,1.448,0.771,1.98,1.423
		c0,0.23,0,0.473,0,0.735c-0.522,0-1.018,0-1.563,0c-0.456-0.424-1.135-0.4-1.727-0.613c-1.037-0.373-2.115-0.631-3.19-0.846
		c-0.668-0.133-1.203-0.405-1.72-0.797C52.509,37.744,52.37,37.717,52.2,37.647z"/>
	
	
</g>
</svg>
