<svg xmlns="http://www.w3.org/2000/svg" xml:space="preserve" width="72px" height="72px" viewBox="0 0 72 72">
    <path fill="currentColor" d="M32.9 58.238c-.44-.388-.354-.819-.355-1.232q-.002-2.213-.001-4.418c-.26-.094-.143-.396-.326-.532-2.512 0-5.031.018-7.55-.012-.603-.007-1.132.396-1.659.229l-1.226.633H19.32c-.801.671-1.302.871-1.961.893-.735.161-1.013.534-1.339.85h-1.313c-.637-.81-1.191-1.703-1.937-2.381-.053-.061-.093-.086-.095-.114-.009-.143.051-.357-.021-.417-.71-.591-.947-1.55-1.691-2.125v-1.138l.284-.284h4.536l.344-.344V42.66l-.326-.323c-.66 0-1.392-.157-2.009.041-.748.239-1.464.118-2.192.167-.409.027-.852.131-1.189-.291-.478-.544-.298-1.265-.333-1.961.387-.428.885-.774.888-1.469.001-.23.23-.486.408-.683.214-.237.329-.525.417-.802.116-.361.22-.703.486-.99.134-.145.268-.332.301-.519.145-.813.946-1.333.966-2.282l.63-.506c.029-.367.043-.62-.213-.761-.25-.219-.572.02-.845-.184-.31-.351-.538-.764-.414-1.351.637-.498.994-1.178.818-2.05.583-.735 1.069-1.481.854-2.417.64-.795 1.009-1.622.882-2.573.599-.706.907-1.479.875-2.384.602-.697.945-1.494.853-2.382l.871-1.364c.021-.409-.092-.878.332-1.289.231-.036.417-.305.641-.519h.864c.108.207.31.416.306.621a4.2 4.2 0 0 0 .31 1.724l.548.529c.008.101.025.203.022.306-.017.775.053 1.499.62 2.133.145.161.358.496.26.861-.072.268-.014.569-.014.817l.871 1.365c-.124.928.12 1.796.838 2.547v2.427l-.87.724c.144.648.475 1.04.912 1.381-.238.902.416 1.467.842 2.209-.12.781.292 1.441.844 2.162v.817c.184.114.238.33.53.329.421-.343.767-.751.801-1.414.028-.547.438-.922.855-1.269-.061-.507.048-.964.435-1.323.361-.334.455-.76.417-1.3l.863-.726v-.776c-.202-.228-.393-.457-.721-.288l-.784-.807v-.846c.555-.906.647-1.268.647-2.563.792-.784.922-1.792.901-2.837.06-.44.504-.632.62-1.048.111-.399.284-.789.2-1.208a1.2 1.2 0 0 1 .252-.968c.561-.636.639-1.356.619-2.131-.003-.144 0-.288 0-.464.42-.406.721-.884.654-1.536-.053-.521.39-.978.2-1.468.271-.302.31-.7.676-.877-.092-1.005-.084-1.986.777-2.556.204-.644.396-1.183.274-1.742-.066-.3.306-.398.227-.669.408-.23.424-.691.583-1.055.286-.65.253-.664.777-.969.623.173.98.7 1.456 1.146-.13.867.116 1.661.633 2.396.347.493.197 1.082.227 1.65.313.423.391 1.012.862 1.343v1.229l.861 1.673c0 .104.013.318-.003.531-.035.506.047.969.442 1.331.362.332.448.758.427 1.228-.023.533.174.99.483 1.421.215.3.391.615.39 1.029-.001.892.187 1.259.875 1.953-.235.996.358 1.969.162 2.976-.112.583-.631.768-1.013 1.05-.191.963.198 1.705.816 2.464v.828c.288.229.29.587.562.796.165.127.308.41.297.614-.033.641.193 1.125.605 1.604.131.152.375.42.28.74-.029.099-.048.246.003.317.416.591.727 1.241.998 2.077.335-.379.478-.655.494-.935.031-.557.644-.817.653-1.351.011-.534.304-.888.623-1.264.091-.107.093-.322.246-.428v-.649c-.169-.345-.621-.31-.841-.646V29.73c.211-.269.262-.691.641-.881-.062-.471.092-.893.178-1.332.091-.464.302-.81.553-1.185.195-.292.312-.691.317-1.045.009-.569.214-1.003.677-1.424-.167-.622.182-1.233.238-1.969l.657-.549c-.207-.427.208-.631.18-.958-.025-.284-.006-.571-.006-.871.493-.28.519-.872.87-1.299-.067-.677.014-1.329.582-1.881.248-.241.243-.7.585-.977h.688c.413.376.581.846.515 1.377l.644.643c-.149.597.489 1.102.167 1.678.479.444.693.904.727 1.508.024.451.188.939.432 1.319.2.31.489.607.598.943.117.358.026.784.026 1.257.254.202.486.497.634 1.026-.124.751.229 1.509.85 2.207.108.461.039.925-.358 1.383-.186.026-.515.028-.69.363l.491 1.758.598.434c-.028.684.042 1.154.335 1.639.266.439.614.9.54 1.511-.023.187.174.442.334.602.461.458.562 1.013.501 1.601.276.22.277.578.55.787.166.127.309.405.304.612-.014.575.245.984.616 1.376.105.111.055.344.251.437v1.524c-.297.409-.696.736-1.245.985h-4.666c-.342.404-.349.878-.344 1.371.015 1.396.005 2.794.005 4.141l.324.324h4.904c.808-.353 1.652-.169 2.495-.226l.501.876c-.053.776-.814 1.146-.896 1.849-.911.732-1.284 1.902-2.089 2.682-.902.875-1.691 1.853-2.624 2.696-.849.769-1.606 1.64-2.716 2.06-.556.802-1.588.997-2.188 1.734-.364-.142-.727.106-.852.267-.526.668-1.441.639-2.011 1.218-.109.111-.353.301-.647.25-.396-.068-.733.131-1.006.42-.335.357-.755.434-1.226.438-.844.007-1.533.455-2.296.856-.227 0-.516.019-.802-.003-.883-.068-1.682.15-2.49.513-.44.198-.948.361-1.473.357-1.26-.01-2.524.063-3.778-.025-.864-.062-1.754-.206-2.535-.636-.456-.251-1-.172-1.455-.499-.096-.126-.018-.305-.026-.476.38-.407.842-.546 1.402-.537 1.62.027 3.241-.033 4.859.024 1.083.04 2.051-.153 2.889-.861.473-.072.96.076 1.422-.224a10.8 10.8 0 0 0 2.287-2.006c.195-.226.356-.559.319-.947-.056-.568-.015-1.146-.015-1.582-.508-1.165-1.421-1.809-2.295-2.595a1.63 1.63 0 0 1-1.25-.414c-.495-.451-1.123-.58-1.734-.687l-.337.337v3.994c0 .216-.008.433.003.647.011.226-.344.292-.246.514-.714.677-1.6.57-2.466.568h-1.934c-.23-.215-.414-.485-.615-.509"/>
</svg>
