<?xml version="1.0" encoding="iso-8859-1"?>
<!-- Generator: Adobe Illustrator 16.0.0, SVG Export Plug-In . SVG Version: 6.00 Build 0)  -->
<!DOCTYPE svg PUBLIC "-//W3C//DTD SVG 1.1//EN" "http://www.w3.org/Graphics/SVG/1.1/DTD/svg11.dtd">
<svg version="1.1" id="Layer_1" xmlns="http://www.w3.org/2000/svg" xmlns:xlink="http://www.w3.org/1999/xlink" x="0px" y="0px"
	 width="72.36px" height="71.459px" viewBox="0 0 72.36 71.459" style="enable-background:new 0 0 72.36 71.459;"
	 xml:space="preserve">
<g>
	
	<path fill="currentColor" d="M32.9,58.238c-0.44-0.388-0.354-0.819-0.355-1.232
		c-0.002-1.475-0.001-2.948-0.001-4.418c-0.26-0.094-0.143-0.396-0.326-0.532c-2.512,0-5.031,0.018-7.55-0.012
		c-0.603-0.007-1.132,0.396-1.659,0.229c-0.428,0.221-0.785,0.405-1.226,0.633c-0.761,0-1.622,0-2.463,0
		c-0.801,0.671-1.302,0.871-1.961,0.893c-0.735,0.161-1.013,0.534-1.339,0.85c-0.43,0-0.862,0-1.313,0
		c-0.637-0.81-1.191-1.703-1.937-2.381c-0.053-0.061-0.093-0.086-0.095-0.114c-0.009-0.143,0.051-0.357-0.021-0.417
		c-0.71-0.591-0.947-1.55-1.691-2.125c0-0.384,0-0.77,0-1.138c0.093-0.094,0.169-0.17,0.284-0.284c1.499,0,3.037,0,4.536,0
		c0.14-0.14,0.242-0.242,0.344-0.344c0-1.728,0-3.456,0-5.186c-0.101-0.101-0.203-0.201-0.326-0.323
		c-0.66,0-1.392-0.157-2.009,0.041c-0.748,0.239-1.464,0.118-2.192,0.167c-0.409,0.027-0.852,0.131-1.189-0.291
		c-0.478-0.544-0.298-1.265-0.333-1.961c0.387-0.428,0.885-0.774,0.888-1.469c0.001-0.23,0.23-0.486,0.408-0.683
		c0.214-0.237,0.329-0.525,0.417-0.802c0.116-0.361,0.22-0.703,0.486-0.99c0.134-0.145,0.268-0.332,0.301-0.519
		c0.145-0.813,0.946-1.333,0.966-2.282c0.198-0.159,0.448-0.36,0.63-0.506c0.029-0.367,0.043-0.62-0.213-0.761
		c-0.25-0.219-0.572,0.02-0.845-0.184c-0.31-0.351-0.538-0.764-0.414-1.351c0.637-0.498,0.994-1.178,0.818-2.05
		c0.583-0.735,1.069-1.481,0.854-2.417c0.64-0.795,1.009-1.622,0.882-2.573c0.599-0.706,0.907-1.479,0.875-2.384
		c0.602-0.697,0.945-1.494,0.853-2.382c0.306-0.479,0.579-0.908,0.871-1.364c0.021-0.409-0.092-0.878,0.332-1.289
		c0.231-0.036,0.417-0.305,0.641-0.519c0.288,0,0.576,0,0.864,0c0.108,0.207,0.31,0.416,0.306,0.621
		c-0.011,0.565,0.063,1.106,0.31,1.724c0.125,0.121,0.332,0.32,0.548,0.529c0.008,0.101,0.025,0.203,0.022,0.306
		c-0.017,0.775,0.053,1.499,0.62,2.133c0.145,0.161,0.358,0.496,0.26,0.861c-0.072,0.268-0.014,0.569-0.014,0.817
		c0.294,0.46,0.567,0.889,0.871,1.365c-0.124,0.928,0.12,1.796,0.838,2.547c0,0.754,0,1.541,0,2.427
		c-0.263,0.219-0.591,0.492-0.87,0.724c0.144,0.648,0.475,1.04,0.912,1.381c-0.238,0.902,0.416,1.467,0.842,2.209
		c-0.12,0.781,0.292,1.441,0.844,2.162c0,0.213,0,0.526,0,0.817c0.184,0.114,0.238,0.33,0.53,0.329
		c0.421-0.343,0.767-0.751,0.801-1.414c0.028-0.547,0.438-0.922,0.855-1.269c-0.061-0.507,0.048-0.964,0.435-1.323
		c0.361-0.334,0.455-0.76,0.417-1.3c0.291-0.245,0.617-0.519,0.863-0.726c0-0.356,0-0.57,0-0.776
		c-0.202-0.228-0.393-0.457-0.721-0.288c-0.276-0.284-0.526-0.541-0.784-0.807c0-0.271,0-0.559,0-0.846
		c0.555-0.906,0.647-1.268,0.647-2.563c0.792-0.784,0.922-1.792,0.901-2.837c0.06-0.44,0.504-0.632,0.62-1.048
		c0.111-0.399,0.284-0.789,0.2-1.208c-0.075-0.376,0.074-0.766,0.252-0.968c0.561-0.636,0.639-1.356,0.619-2.131
		c-0.003-0.144,0-0.288,0-0.464c0.42-0.406,0.721-0.884,0.654-1.536c-0.053-0.521,0.39-0.978,0.2-1.468
		c0.271-0.302,0.31-0.7,0.676-0.877c-0.092-1.005-0.084-1.986,0.777-2.556c0.204-0.644,0.396-1.183,0.274-1.742
		c-0.066-0.3,0.306-0.398,0.227-0.669c0.408-0.23,0.424-0.691,0.583-1.055c0.286-0.65,0.253-0.664,0.777-0.969
		c0.623,0.173,0.98,0.7,1.456,1.146c-0.13,0.867,0.116,1.661,0.633,2.396c0.347,0.493,0.197,1.082,0.227,1.65
		c0.313,0.423,0.391,1.012,0.862,1.343c0,0.442,0,0.874,0,1.229c0.292,0.567,0.553,1.074,0.861,1.673
		c0,0.104,0.013,0.318-0.003,0.531c-0.035,0.506,0.047,0.969,0.442,1.331c0.362,0.332,0.448,0.758,0.427,1.228
		c-0.023,0.533,0.174,0.99,0.483,1.421c0.215,0.3,0.391,0.615,0.39,1.029c-0.001,0.892,0.187,1.259,0.875,1.953
		c-0.235,0.996,0.358,1.969,0.162,2.976c-0.112,0.583-0.631,0.768-1.013,1.05c-0.191,0.963,0.198,1.705,0.816,2.464
		c0,0.231,0,0.545,0,0.828c0.288,0.229,0.29,0.587,0.562,0.796c0.165,0.127,0.308,0.41,0.297,0.614
		c-0.033,0.641,0.193,1.125,0.605,1.604c0.131,0.152,0.375,0.42,0.28,0.74c-0.029,0.099-0.048,0.246,0.003,0.317
		c0.416,0.591,0.727,1.241,0.998,2.077c0.335-0.379,0.478-0.655,0.494-0.935c0.031-0.557,0.644-0.817,0.653-1.351
		c0.011-0.534,0.304-0.888,0.623-1.264c0.091-0.107,0.093-0.322,0.246-0.428c0-0.22,0-0.435,0-0.649
		c-0.169-0.345-0.621-0.31-0.841-0.646c0-0.394,0-0.821,0-1.273c0.211-0.269,0.262-0.691,0.641-0.881
		c-0.062-0.471,0.092-0.893,0.178-1.332c0.091-0.464,0.302-0.81,0.553-1.185c0.195-0.292,0.312-0.691,0.317-1.045
		c0.009-0.569,0.214-1.003,0.677-1.424c-0.167-0.622,0.182-1.233,0.238-1.969c0.184-0.153,0.43-0.359,0.657-0.549
		c-0.207-0.427,0.208-0.631,0.18-0.958c-0.025-0.284-0.006-0.571-0.006-0.871c0.493-0.28,0.519-0.872,0.87-1.299
		c-0.067-0.677,0.014-1.329,0.582-1.881c0.248-0.241,0.243-0.7,0.585-0.977c0.205,0,0.446,0,0.688,0
		c0.413,0.376,0.581,0.846,0.515,1.377c0.225,0.225,0.428,0.428,0.644,0.643c-0.149,0.597,0.489,1.102,0.167,1.678
		c0.479,0.444,0.693,0.904,0.727,1.508c0.024,0.451,0.188,0.939,0.432,1.319c0.2,0.31,0.489,0.607,0.598,0.943
		c0.117,0.358,0.026,0.784,0.026,1.257c0.254,0.202,0.486,0.497,0.634,1.026c-0.124,0.751,0.229,1.509,0.85,2.207
		c0.108,0.461,0.039,0.925-0.358,1.383c-0.186,0.026-0.515,0.028-0.69,0.363c0.15,0.539,0.305,1.089,0.491,1.758
		c0.159,0.115,0.419,0.304,0.598,0.434c-0.028,0.684,0.042,1.154,0.335,1.639c0.266,0.439,0.614,0.9,0.54,1.511
		c-0.023,0.187,0.174,0.442,0.334,0.602c0.461,0.458,0.562,1.013,0.501,1.601c0.276,0.22,0.277,0.578,0.55,0.787
		c0.166,0.127,0.309,0.405,0.304,0.612c-0.014,0.575,0.245,0.984,0.616,1.376c0.105,0.111,0.055,0.344,0.251,0.437
		c0,0.501,0,1.001,0,1.524c-0.297,0.409-0.696,0.736-1.245,0.985c-1.504,0-3.087,0-4.666,0c-0.342,0.404-0.349,0.878-0.344,1.371
		c0.015,1.396,0.005,2.794,0.005,4.141c0.126,0.127,0.203,0.203,0.324,0.324c1.604,0,3.254,0,4.904,0
		c0.808-0.353,1.652-0.169,2.495-0.226c0.187,0.327,0.353,0.618,0.501,0.876c-0.053,0.776-0.814,1.146-0.896,1.849
		c-0.911,0.732-1.284,1.902-2.089,2.682c-0.902,0.875-1.691,1.853-2.624,2.696c-0.849,0.769-1.606,1.64-2.716,2.06
		c-0.556,0.802-1.588,0.997-2.188,1.734c-0.364-0.142-0.727,0.106-0.852,0.267c-0.526,0.668-1.441,0.639-2.011,1.218
		c-0.109,0.111-0.353,0.301-0.647,0.25c-0.396-0.068-0.733,0.131-1.006,0.42c-0.335,0.357-0.755,0.434-1.226,0.438
		c-0.844,0.007-1.533,0.455-2.296,0.856c-0.227,0-0.516,0.019-0.802-0.003c-0.883-0.068-1.682,0.15-2.49,0.513
		c-0.44,0.198-0.948,0.361-1.473,0.357c-1.26-0.01-2.524,0.063-3.778-0.025c-0.864-0.062-1.754-0.206-2.535-0.636
		c-0.456-0.251-1-0.172-1.455-0.499c-0.096-0.126-0.018-0.305-0.026-0.476c0.38-0.407,0.842-0.546,1.402-0.537
		c1.62,0.027,3.241-0.033,4.859,0.024c1.083,0.04,2.051-0.153,2.889-0.861c0.473-0.072,0.96,0.076,1.422-0.224
		c0.863-0.561,1.622-1.237,2.287-2.006c0.195-0.226,0.356-0.559,0.319-0.947c-0.056-0.568-0.015-1.146-0.015-1.582
		c-0.508-1.165-1.421-1.809-2.295-2.595c-0.416,0.031-0.867-0.066-1.25-0.414c-0.495-0.451-1.123-0.58-1.734-0.687
		c-0.132,0.132-0.233,0.233-0.337,0.337c0,1.331,0,2.662,0,3.994c0,0.216-0.008,0.433,0.003,0.647
		c0.011,0.226-0.344,0.292-0.246,0.514c-0.714,0.677-1.6,0.57-2.466,0.568c-0.647-0.001-1.294,0-1.934,0
		C33.285,58.532,33.101,58.262,32.9,58.238z"/>
</g>
</svg>
