<?xml version="1.0" encoding="iso-8859-1"?>
<!-- Generator: Adobe Illustrator 16.0.0, SVG Export Plug-In . SVG Version: 6.00 Build 0)  -->
<!DOCTYPE svg PUBLIC "-//W3C//DTD SVG 1.1//EN" "http://www.w3.org/Graphics/SVG/1.1/DTD/svg11.dtd">
<svg version="1.1" id="Layer_1" xmlns="http://www.w3.org/2000/svg" xmlns:xlink="http://www.w3.org/1999/xlink" x="0px" y="0px"
	 width="72.36px" height="71.459px" viewBox="0 0 72.36 71.459" style="enable-background:new 0 0 72.36 71.459;"
	 xml:space="preserve">
<g>
	<path fill="currentColor" d="M22.925,25.136c0.461-0.182,0.619-0.746,1.185-0.427
		c0.516,0.423,0.35,1.308,0.911,1.794c0.253,0.107,0.488,0.129,0.669-0.104c0.169-0.217,0.379-0.308,0.732-0.246
		c0.108,0.141,0.26,0.339,0.471,0.615c-0.091,0.47,0.459,0.978,0.176,1.648c0.814,0.168,0.224,1.075,0.811,1.373
		c0.351,0.028,0.666,0.068,0.968-0.252c0.303-0.32,0.758-0.375,1.399-0.395c0.212-0.19,0.398-0.358,0.648-0.582
		c-0.47-1.049-1.034-2.04-1.811-3.054c-0.012-0.279,0.102-0.725-0.268-1.071c-0.314,0-0.627,0-0.932,0
		c-0.434,0.277-0.862,0.55-1.313,0.838c-0.4,0-0.833,0-1.265,0c-0.102-0.102-0.203-0.204-0.353-0.354
		c0.276-0.564,0.563-1.15,0.875-1.786c-0.654-0.115-1.056,0.396-1.796,0.606c-0.157,0-0.542,0-0.905,0
		c-0.167-0.134,0.011-0.413-0.321-0.441c0.34-0.436,0.248-1.005,0.692-1.398c-0.517-0.221-0.867,0.071-1.192,0.334
		c-0.396,0.321-0.807,0.526-1.333,0.429c-0.466-0.278-0.271-0.748-0.321-1.246c0.204-0.164,0.454-0.364,0.641-0.514
		c0.054-0.362-0.003-0.59-0.268-0.762c-0.477,0.09-0.771,0.47-1.089,0.781c-0.401,0-0.788,0-1.141,0
		c-0.107-0.106-0.183-0.183-0.261-0.261c-0.138-0.665,0.04-1.228,0.543-1.69c0.381-0.35,0.542-0.784,0.507-1.303
		c-0.019-0.287-0.003-0.576-0.003-0.864c-0.138-0.497-0.536-0.799-0.86-1.142c0-0.731,0-1.45,0-2.117
		c0.162-0.273,0.3-0.506,0.453-0.763c0.464,0,0.923,0,1.384,0c1.116,0.608,2.123,1.421,3.221,2.094
		c0.602,0.369,1.225,0.702,1.823,1.083c0.401,0.255,0.611,0.74,1.037,0.868c0.523,0.157,0.658,0.731,1.146,0.889
		c0.473,0.152,0.785,0.55,1.178,0.816c0.958,0.648,1.92,1.29,2.844,1.989c0.689,0.008,1.265,0.563,1.98,0.428
		c0.371-0.07,0.612,0.288,0.994,0.237c0.289-0.039,0.653-0.156,0.884,0.19c0.984-0.195,1.783,0.347,2.648,0.645
		c0.249,0.085,0.449,0.379,0.812,0.205c0.196,0.236,0.4,0.482,0.522,0.63c0.643,0.106,1.122,0.254,1.601,0.425
		c1,0.358,1.009,0.361,2.116-0.099c0.184-0.076,0.345-0.027,0.518-0.076c0.961-0.913,1.813-1.93,2.603-3.008
		c0.315-0.431,0.729-0.8,1.143-1.144c0.313-0.261,0.692-0.448,1.25-0.353c0.108,0.146,0.275,0.373,0.514,0.695
		c0,0.661,0.016,1.49-0.006,2.317c-0.015,0.58-0.208,1.121-0.419,1.661c-0.182,0.465-0.412,0.958-0.409,1.438
		c0.003,0.595-0.259,1.069-0.5,1.53c-0.196,0.373-0.429,0.701-0.392,1.136c0.03,0.348-0.343,0.407-0.449,0.68
		c-0.217,0.558-0.516,1.083-0.795,1.65c0.081,0.193,0.271,0.247,0.509,0.335c1.091,0.404,2.182,0.814,3.264,1.243
		c0.904,0.358,1.714,0.893,2.631,1.213c0.537,0.188,1.907,1.336,2.176,1.731c-0.143,0.325-0.543,0.29-0.696,0.483
		c-0.796,0.274-1.486-0.134-2.218-0.161c-1.167-0.042-2.295,0.415-3.441,0.198c-0.118,0.189-0.332,0.244-0.336,0.545
		c0.351,0.454,0.843,0.869,1.122,1.498c0.251,0.563,0.781,1.035,1.022,1.63c0.225,0.554,0.644,0.986,0.732,1.654
		c0.078,0.577,0.679,1.09,0.771,1.711c0.097,0.645,0.423,1.221,0.476,1.975c-0.104,0.052-0.267,0.133-0.429,0.213
		c0.029,0.03,0.059,0.06,0.088,0.089c-0.216,0-0.432,0-0.646,0c-0.943-0.913-2.12-1.505-3.156-2.289
		c-0.522,0.007-0.83-0.426-1.252-0.626c-0.254-0.121-0.443-0.165-0.726,0.028c0.624,0.821,0.454,1.953,1.122,2.767
		c-0.116,0.537,0.332,0.979,0.235,1.525c-0.188,1.063,0.238,2.094,0.206,3.149c-0.028,0.944-0.401,1.864-0.158,2.795
		c-0.236,0.284-0.417,0.537-0.763,0.687c-0.866-0.826-1.583-1.769-2.315-2.696c-0.064-0.082-0.127-0.166-0.197-0.242
		c-0.737-0.812-1.483-1.615-2.211-2.434c-0.428-0.482-0.793-1.022-1.398-1.333c-0.239,0.176-0.438,0.422-0.243,0.769
		c0.263,0.468,0.261,0.933,0.012,1.383c-0.081,0.146-0.027,0.276-0.067,0.405c-0.118,0.375,0.477,0.657,0.13,1.063
		c-0.265,0.31-0.077,0.685-0.128,1.026c-0.041,0.268-0.074,0.53-0.144,0.799c-0.248,0.956-0.365,1.947-0.501,2.929
		c-0.138,1.002-0.433,1.918-1.182,2.597c-0.537,0.126-0.709-0.298-0.99-0.556c0.063-1.563-0.033-3.102-0.851-4.573
		c0.001-0.695,0.02-1.467-0.609-2.052c0.013-0.452-0.295-0.818-0.284-1.297c0.015-0.651-0.258-0.877-0.942-1.025
		c-1.463,1.941-3.019,3.824-5.337,5.167c-0.112,0-0.426,0-0.747,0c-0.311-0.187-0.276-0.638-0.618-0.829
		c-0.652,0.527-0.496,1.359-0.83,2.092c0.686,0.106,1.248,0.09,1.832-0.264c0.416-0.251,0.858-0.489,1.382-0.578
		c0.539-0.091,0.862-0.634,1.34-0.914c0.678-0.397,1.271-0.94,1.894-1.431c0.301-0.237,0.627-0.398,1.014-0.468
		c0.249,0.291,0.48,0.561,0.784,0.916c-0.136,0.32,0.161,0.723,0.28,1.135c0.179,0.623,0.341,1.231,0.425,1.879
		c0.076,0.587,0.33,1.152,0.516,1.725c0.168,0.519,0.314,1.027,0.352,1.591c0.05,0.736,0.387,1.439,0.423,2.196
		c0.006,0.106,0.19,0.204,0.338,0.352c0.517-0.833,1.237-1.524,1.385-2.558c0.036-0.253,0.158-0.543,0.338-0.714
		c0.355-0.339,0.38-0.797,0.494-1.204c0.117-0.421,0.239-0.832,0.402-1.239c0.278-0.695,0.511-1.406,0.486-2.177
		c-0.02-0.611,0.012-1.225-0.009-1.836c-0.017-0.476,0.094-0.889,0.509-1.28c0.684-0.196,1.288,0.15,1.618,0.717
		c0.618,1.063,1.488,1.903,2.234,2.852c0.509,0.646,1.022,1.296,1.455,1.992c0.156,0.25,0.384,0.405,0.532,0.64
		c0.172,0,0.342,0,0.575,0c-0.056-0.957,0.093-1.864,0.424-2.739c0.012-0.031,0.006-0.071,0-0.106
		c-0.134-0.959,0.278-1.866,0.247-2.828c-0.018-0.535-0.335-0.981-0.262-1.531c0.071-0.53,0.168-1.139-0.019-1.604
		c-0.311-0.777-0.059-1.54-0.211-2.287c0.549-0.29,0.95,0.012,1.357,0.249c0.52,0.303,0.952,0.708,1.365,1.142
		c0.568,0.599,1.151,1.183,1.685,1.727c0.339,0.045,0.575,0.011,0.806-0.364c0-0.76,0.111-1.669-0.034-2.534
		c-0.123-0.732-0.202-1.479-0.389-2.205c-0.103-0.4-0.628-0.597-0.494-1.093c-0.477-1.08-0.988-2.139-1.754-3.055
		c-0.412-0.493-0.395-1.082-0.321-1.676c0.709-0.372,1.435-0.43,2.188-0.132c0.124,0.049,0.276,0.068,0.409,0.051
		c1.102-0.143,2.168,0.25,3.258,0.207c0.31-0.012,0.464,0.349,0.775,0.229c0.384-0.296,0.384-0.296,0.467-0.695
		c-0.036-0.057-0.064-0.122-0.111-0.169c-0.328-0.333-0.678-0.648-0.988-0.997c-0.769-0.867-1.782-1.397-2.723-2.032
		c-0.671-0.453-1.418-0.765-2.098-1.216c-0.62-0.412-1.408-0.579-2.088-0.936c-0.397-0.208-0.812-0.383-1.064-0.784
		c0-0.144-0.05-0.313,0.008-0.428c0.353-0.696,0.404-1.495,0.72-2.186c0.379-0.833,0.622-1.668,0.559-2.572
		c-0.033-0.469,0.094-0.887,0.227-1.315c0.442-1.423,0.469-2.886,0.434-4.357c-0.014-0.576,0.006-1.152-0.005-1.728
		c-0.008-0.496,0.114-1.072-0.097-1.466c-0.229-0.428,0.056-0.882-0.297-1.301c-0.209-0.249,0.049-0.815-0.265-1.131
		c0.068-0.24,0.302-0.352,0.258-0.626c0.391,0,0.775,0,1.208,0c0.654,0.475,1.336,1.001,2.004,1.555
		c1.293,1.072,2.421,2.307,3.648,3.442c0.728,0.673,1.23,1.489,1.751,2.305c0.582,0.912,1.15,1.832,1.76,2.725
		c0.254,0.371,0.203,0.862,0.528,1.187c0.301,0.302,0.428,0.663,0.543,1.075c0.158,0.57,0.481,1.096,0.722,1.641
		c0.18,0.41,0.042,0.8,0.224,1.206c0.269,0.596,0.557,1.214,0.67,1.886c0.027,0.158,0.082,0.329,0.087,0.498
		c0.015,0.554,0.047,1.091,0.193,1.645c0.208,0.784,0.476,1.57,0.46,2.406c-0.015,0.864,0.026,1.729-0.014,2.591
		c-0.024,0.518,0.171,1.049-0.137,1.561c-0.25,0.417,0.141,0.992-0.284,1.393c0.15,0.854-0.329,1.654-0.213,2.502
		c0.06,0.437-0.084,0.819-0.281,1.181c-0.293,0.537-0.602,1.063-0.582,1.702c0.005,0.163-0.112,0.244-0.168,0.364
		c-0.461,0.996-0.899,2.003-1.351,3.004c-0.042,0.092-0.188,0.177-0.175,0.246c0.128,0.708-0.484,1.101-0.702,1.659
		c-0.218,0.557-0.56,1.063-0.851,1.591c-0.033,0.061-0.085,0.114-0.139,0.158c-0.768,0.639-1.242,1.535-1.972,2.216
		c-0.588,0.548-1.01,1.258-1.609,1.813c-0.97,0.896-2.044,1.653-3.069,2.474c-0.569,0.455-1.251,0.721-1.772,1.248
		c-0.473,0.477-1.153,0.7-1.731,1.031c-0.653,0.374-1.353,0.793-2.059,0.994c-0.817,0.232-1.51,0.764-2.34,0.877
		c-1.012,0.138-1.945,0.537-2.92,0.793c-0.557,0.146-1.097,0.222-1.645,0.172c-0.476-0.043-0.831,0.327-1.318,0.249
		c-0.396-0.063-0.799,0.025-1.216,0.161c-0.488,0.159-1.071,0.072-1.607,0.027c-0.513-0.043-1.067,0.213-1.54-0.189
		c-0.043-0.036-0.139-0.024-0.207-0.015c-1.103,0.165-2.161-0.294-3.259-0.224c-0.762,0.048-1.491-0.029-2.209-0.403
		c-0.557-0.289-1.249-0.244-1.865-0.439c-0.333-0.105-0.654-0.188-0.894-0.451c-0.123-0.136-0.31-0.157-0.436-0.243
		c-0.41-0.282-0.962-0.123-1.328-0.449c-0.37-0.329-0.738-0.58-1.262-0.627c-0.237-0.021-0.454-0.28-0.676-0.437
		c-0.309-0.218-0.611-0.447-1.066-0.396c-0.368-0.658-1.147-0.806-1.713-1.26c-0.56-0.449-1.185-0.818-1.714-1.318
		c-0.844-0.798-1.772-1.517-2.553-2.371c-1.275-1.394-2.495-2.848-3.385-4.531c-0.174-0.33-0.482-0.506-0.661-0.813
		c0.054-0.362-0.125-0.688-0.334-0.929c-0.394-0.453-0.587-0.979-0.746-1.532c-0.009-0.033,0.011-0.091-0.007-0.104
		c-0.658-0.473-0.615-1.26-0.843-1.92c-0.058-0.168-0.135-0.302-0.215-0.453c-0.36-0.679-0.583-1.396-0.399-2.245
		c0.11-0.267,0.524-0.193,0.68-0.393c0.545,0.105,0.982,0.366,1.312,0.789c1.039,0.169,1.814,1.04,2.896,1.085
		c0.173,0.008,0.228,0.157,0.348,0.208c0.993,0.423,2,0.765,3.089,0.906c0.579,0.075,1.154,0.33,1.731,0.502
		c0.242,0.072,0.469,0.112,0.704,0.112c2.448,0.008,4.896,0.036,7.343-0.011c0.944-0.019,1.839-0.409,2.772-0.64
		c0.307,0.039,0.412,0.354,0.665,0.524c0.074,0.584-0.274,1.102-0.325,1.665c-0.078,0.867-0.669,1.531-0.853,2.352
		c-0.108,0.483-0.236,0.963-0.278,1.473c0.645-0.769,1.187-1.593,1.445-2.548c0.103-0.378,0.326-0.663,0.462-1
		c0.54-1.333,1.499-2.54,1.288-4.11c-0.099-0.741,0.316-1.422,0.233-2.181c-0.083-0.747-0.018-1.51-0.018-2.303
		c-0.572-0.9-1.304-1.683-2.222-2.292c-0.174-0.116-0.335-0.265-0.471-0.426c-0.829-0.984-1.859-1.762-2.84-2.563
		c-1.03-0.84-2.088-1.666-3.17-2.452c-1.133-0.823-2.468-1.33-3.483-2.314c-0.583-0.07-0.689-0.617-0.99-1.028
		c0-0.238-0.019-0.526,0.003-0.811c0.057-0.739-0.125-1.432-0.375-2.115c-0.125-0.344-0.179-0.794-0.03-1.035
		c0.286-0.463-0.01-1.066,0.507-1.422c0.158-0.094,0.381-0.166,0.501-0.338c0.965,0.456,0.771,1.556,1.362,2.127
		c0.469,0.247,0.675-0.098,0.918-0.339c0.318,0,0.631,0,0.935,0C22.668,24.23,22.787,24.647,22.925,25.136z M39.237,25.388
		c-0.085-0.152-0.257-0.068-0.366-0.124c-0.887-0.448-1.801-0.839-2.692-1.267c-0.959-0.46-1.822-0.641-2.801-0.147
		c0.415,1.155,0.93,2.174,2.184,2.716c0.531,0.136,1.13-0.122,1.689-0.317c0.657-0.229,1.274-0.57,1.986-0.573
		C39.237,25.532,39.237,25.461,39.237,25.388z"/>
</g>
</svg>
