<?xml version="1.0" encoding="iso-8859-1"?>
<!-- Generator: Adobe Illustrator 16.0.0, SVG Export Plug-In . SVG Version: 6.00 Build 0)  -->
<!DOCTYPE svg PUBLIC "-//W3C//DTD SVG 1.1//EN" "http://www.w3.org/Graphics/SVG/1.1/DTD/svg11.dtd">
<svg version="1.1" id="Layer_1" xmlns="http://www.w3.org/2000/svg" xmlns:xlink="http://www.w3.org/1999/xlink" x="0px" y="0px"
	 width="72.36px" height="71.459px" viewBox="0 0 72.36 71.459" style="enable-background:new 0 0 72.36 71.459;"
	 xml:space="preserve">
<g>
	
	<path fill="currentColor" d="M58.672,55.08c0.255,0.745,0.784,1.394,0.136,2.194
		c-1.098-0.233-2.147,0.202-3.244,0.206c-1.098,0.004-2.171-0.173-3.196-0.288c-0.839,0.68-1.727,0.855-2.722,0.961
		c-0.946,0.101-1.887,0.128-2.831,0.173c-0.635,0.029-1.197-0.481-1.799-0.17c-0.258-0.258-0.462-0.462-0.694-0.694
		c-0.508,0.133-0.947-0.347-1.555-0.197c-0.187-0.221-0.393-0.466-0.542-0.645c-1.393-0.186-2.293-0.961-3.021-1.933
		c-0.507-0.102-1.058,0.064-1.319-0.593c-0.069-0.174-0.472-0.336-0.816-0.32c-0.681,0.032-1.365,0.01-2.024,0.01
		c-0.297-0.219-0.459-0.571-0.807-0.676c-0.081,0.07-0.131,0.114-0.181,0.157c-0.049,0.351,0.357,0.413,0.438,0.706
		c-0.031,0.306-0.349,0.409-0.52,0.664c-0.501,0.007-1.026,0.13-1.523-0.281c-0.619,1.444-0.199,2.909-0.38,4.405
		c-0.749,0.285-1.498,0.695-2.479,0.635c-0.099-0.152-0.237-0.363-0.375-0.573c-0.041,0.027-0.082,0.056-0.123,0.084
		c0-0.313,0-0.627,0-0.968c-0.426,0.236-0.353,0.773-0.803,1.011c-0.236,0-0.549,0-0.808,0c-0.649-0.593-0.008-1.488-0.799-2.119
		c-0.082-0.021-0.3-0.31-0.687-0.228c-0.546,0.24-0.59,0.986-1.173,1.285c-0.169,0-0.385,0-0.542,0
		c-0.583-0.311-0.707-0.998-1.236-1.287c-0.507-0.276-0.783-0.807-1.337-1.142c-0.206,0.346-0.404,0.702-0.742,0.915
		c-0.498,0.119-0.671-0.293-0.94-0.547c0.277-0.336,0.684-0.438,1.05-0.609c0.013-0.178,0.07-0.351-0.054-0.553
		c-0.294,0-0.607,0-0.944,0c-0.525-0.852-1.446-1.18-2.186-1.743c-0.118-0.02-0.2,0.03-0.285,0.198
		c0.456,0.628,1.01,1.189,1.739,1.554c0,0.395,0,0.748,0,1.129c-0.174,0.21-0.202,0.553-0.504,0.767c-0.207,0-0.448,0-0.688,0
		c-0.186-0.396-0.371-0.787-0.594-1.262c-0.273,0.03-0.561-0.059-0.918,0.174c-0.252,0.164-0.698,0.031-1.043,0.031
		c-0.322-0.161-0.318-0.541-0.483-0.712c-0.123-0.078-0.184-0.152-0.235-0.146c-0.439,0.052-0.843-0.086-1.143-0.364
		c-0.475-0.442-1.015-0.561-1.609-0.499c-0.611-1.043-0.268-1.514,0.531-2.262c0-1.353,0-2.718,0-4.11
		c0.477-0.446,0.898-0.912,0.907-1.665c0.003-0.277,0.243-0.618,0.524-0.855c0.357-0.299,0.653-0.671,1.004-0.978
		c0.203-0.177,0.161-0.376,0.167-0.623c0.678-0.511,0.92-1.211,0.879-2.086c-0.057-1.222-0.034-2.448-0.004-3.671
		c0.011-0.442-0.195-0.928,0.173-1.328c-0.395-0.342-0.026-0.857-0.303-1.255c-0.253-0.365-0.07-0.832-0.091-1.252
		c-0.023-0.467-0.005-0.936-0.005-1.424c-0.423-0.34-0.713-0.851-1.276-1.058c-0.29-0.106-0.393-0.496-0.413-0.676
		c-0.053-0.468-0.351-0.804-0.472-1.217c0.136-0.285,0.339-0.448,0.781-0.363c0.394,0.482,1.055,0.829,1.271,1.509
		c0.416-0.057,0.374-0.325,0.313-0.425c-0.258-0.421-0.237-0.877-0.194-1.321c0.087-0.923-0.361-1.796-0.225-2.719
		c0.024-0.169-0.056-0.356,0.105-0.547c0.479,0.12,0.762,0.486,0.961,0.876c0.211,0.412,0.568,0.806,0.438,1.324
		c-0.073,0.292,0.219,0.42,0.225,0.668c0.015,0.661,0.477,1.321-0.002,1.981c0.102,0.579-0.125,1.163,0.17,1.768
		c0.178,0.365,0.175,0.931-0.032,1.349c-0.359,0.727,0.109,1.219,0.337,1.775c0.276,0,0.492,0,0.708,0
		c0.306-1.127,1.427-2.015,0.991-3.154c0.172-0.705,0.689-0.972,0.842-1.48c0.002-0.035,0.007-0.07,0.007-0.105c0-0.9,0-1.8,0-2.699
		c1.376-1.266,1.842-2.868,1.722-4.671c0.208-0.398,0.409-0.783,0.663-1.27c-0.157-1.054,0.144-2.195,0.24-3.369
		c0.303-0.449,0.426-1.067,0.906-1.354c0.572-0.173,0.947,0.171,1.437,0.383c0-0.742,0.041-1.456-0.009-2.164
		c-0.09-1.305,0.459-2.166,1.672-2.622c0.419-0.598,0.249-1.281,0.283-1.994c0.214-0.171,0.463-0.371,0.663-0.531
		c-0.091-0.416,0.061-0.65,0.204-0.879c-0.458-0.645-0.152-1.164,0.211-1.643c0.233-0.156,0.452-0.067,0.671-0.096
		c0.571,0.21,0.621,0.896,1.082,1.223c0.425,0.301,0.904,0.542,1.25,1.084c0,0.217,0,0.531,0,0.83
		c0.888,0.683,1.237,1.853,2.356,2.262c0,0.411,0,0.798,0,1.223c-0.419,0.383-0.651,0.883-0.619,1.529
		c0.021,0.44,0.099,0.891-0.183,1.328c-0.128,0.2-0.021,0.549-0.021,0.755c0.268-0.268,0.554-0.554,0.841-0.841
		c1.037-0.076,0.782,0.817,1.136,1.209c-0.371,0.318-0.225,0.759-0.251,1.167c0.456,0.609,1.205,0.765,1.812,1.118
		c0.565,0.329,0.781,0.712,0.781,1.301c0.001,1.476,0.001,2.952,0.001,4.417c-0.206,0.395-0.407,0.78-0.643,1.231
		c0,0.494,0,1.068,0,1.636c-0.242,0.26-0.478,0.513-0.753,0.809c0.375,0.321,0.744,0.123,1.09,0.201
		c0.155,0.16,0.33,0.34,0.497,0.513c0.121,0.36-0.15,0.783,0.227,1.112c0.063,0.054,0.063,0.32-0.06,0.495
		c-0.358,0.507-0.253,1.176-0.565,1.709c-0.063,0.107-0.053,0.3-0.003,0.423c0.449,1.102,0.071,2.251,0.237,3.379
		c-0.3,0.274-0.59,0.539-0.869,0.794c0,1.406,0,2.768,0,4.178c-0.349,0.305-0.665,0.667-0.85,1.1
		c0.319,0.521,0.208,1.039-0.002,1.646c0.105,0.215,0.168,0.563,0.488,0.811c0.208,0,0.45,0,0.691,0
		c0.028-0.063,0.078-0.123,0.078-0.184c0.005-0.973,0.032-1.945-0.007-2.915c-0.025-0.61,0.187-1.077,0.615-1.479
		c0.178-0.167,0.346-0.344,0.468-0.467c0.025-0.312,0.01-0.52-0.211-0.655c0.05-1.397-0.164-2.817,0.314-4.208
		c0.249-0.469,1.034,0.055,1.2-0.611c-0.657-0.969-0.657-0.969-0.637-2.535c0.186-0.203,0.354-0.401,0.487-0.659
		c0.102-0.197,0.086-0.503,0.377-0.623c-0.112-0.749,0.148-1.521-0.205-2.281c-0.153-0.329,0.222-0.684,0.301-1.048
		c0.025-0.118,0.151-0.25,0.104-0.381c-0.437-1.211-0.117-2.463-0.206-3.692c-0.03-0.43-0.005-0.864-0.005-1.295
		c0-0.18,0.071-0.407-0.013-0.531c-0.289-0.431-0.267-0.813,0.001-1.241c0.08-0.13,0.012-0.352,0.012-0.535
		c0.201-0.112,0.403-0.224,0.613-0.341c0.206,0.091,0.419,0.185,0.635,0.28c0.146,0.374,0.364,0.733,0.252,1.142
		c0.284,0.156,0.534,0.073,0.776,0.084c0.075-0.371,0.374-0.576,0.646-0.866c0.375,0.086,0.806-0.14,1.198,0.133
		c0.44,0.307,1.101-0.229,1.496,0.487c0,1.688-0.007,3.484,0.007,5.279c0.002,0.3-0.1,0.612,0.168,0.909
		c0.132,0.146,0.144,0.522-0.024,0.695c-0.256,0.262-0.066,0.549-0.181,0.805c0.206,0.183,0.394,0.35,0.622,0.553
		c0.477,0.195,0.915-0.401,1.56-0.144c0.1,0.063,0.179,0.358,0.466,0.368c0.358-0.081,0.114-0.362,0.191-0.532
		c-0.491-0.272-0.491-0.272-0.883-1.064c0.081-0.342,0.221-0.682,0.508-0.949c0.555-0.25,0.718,0.274,1.032,0.484
		c0,0.247,0,0.46,0,0.657c0.113,0.116,0.213,0.218,0.313,0.322c0.038-0.061,0.096-0.115,0.105-0.176
		c0.111-0.672-0.304-1.277-0.229-1.963c0.073-0.676-0.009-1.367,0.028-2.049c0.014-0.253-0.153-0.383-0.24-0.553
		c-0.626-1.223-0.636-1.218-0.636-2.505c-0.804-0.478-0.727-1.418-0.815-2.172c-0.128-1.078-0.282-2.247,0.369-3.232
		c0.28-0.164,0.532-0.071,0.774-0.091c0.102,0.102,0.203,0.204,0.33,0.331c-0.176,1.004,0.429,1.976,0.175,2.964
		c0.666,1.009,0.985,1.864,0.895,3.899c0.552,0.651,0.569,0.703,0.737,2.07c0.505,0.14,0.314-0.438,0.59-0.577
		c0.244-0.124,0.417-0.388,0.617-0.586c0-0.656,0-1.304,0.001-1.952c0.103-0.102,0.204-0.204,0.306-0.306
		c0.572-0.015,0.571-0.008,0.966,0.28c0.099,0.564-0.144,1.189,0.239,1.669c0.002,0.611-0.471,0.806-0.834,1.117
		c0,0.661,0,1.335,0,2.036c0.287,0.176,0.412,0.51,0.618,0.944c0,0.608-0.024,1.362,0.008,2.114c0.024,0.585-0.094,1.164,0.17,1.764
		c0.133,0.303,0.213,0.823-0.161,1.206c-0.108,0.11-0.017,0.415-0.017,0.629c0.345,0.266,0.589,0.08,0.818-0.174
		c0.165-0.521-0.048-0.936-0.377-1.359c0-0.32,0-0.678,0-1.045c0.118-0.326,0.527-0.284,0.714-0.523
		c0.177,0.084,0.352,0.167,0.551,0.261c0,0.337,0,0.691,0,1.087c0.312,0.269,0.635,0.546,0.882,0.759c0,0.281,0,0.424,0,0.557
		c-0.184,0.343-0.632,0.313-0.837,0.629c0,0.233,0,0.475,0,0.687c0.108,0.125,0.261,0.125,0.309,0.068
		c0.396-0.473,0.733-0.98,0.747-1.631c0.004-0.18-0.001-0.36,0.001-0.54c0.01-0.732-0.096-1.476,0.354-2.343
		c0.08-0.067,0.326-0.272,0.567-0.474c-0.235-0.578,0.236-0.979,0.172-1.489c-0.059-0.459-0.013-0.931-0.013-1.386
		c0.215-0.215,0.419-0.418,0.626-0.626c-0.019-0.281,0.061-0.536,0.242-0.752c-0.184-0.466-0.43-0.876-0.85-1.154
		c0-0.306,0-0.589,0-0.916c0.258-0.231,0.55-0.493,0.814-0.73c0-0.287,0-0.494,0-0.71c0.264-0.191,0.514-0.372,0.763-0.553
		c0.473,0.447,0.538,0.594,0.561,1.341c-0.28,0.28-0.561,0.56-0.84,0.84c-0.079,0.306-0.021,0.62,0.27,0.724
		c0.635,0.227,0.796,0.691,0.792,1.285c-0.001,0.067,0.013,0.137,0.032,0.202c0.01,0.03,0.048,0.052,0.073,0.077
		c0.229-0.229,0.459-0.459,0.726-0.726c0-1.354,0-2.749,0-4.142c0.215-0.476,0.581-0.763,0.974-0.918
		c0.235-0.279,0.094-0.541,0.141-0.783c0.164-0.249,0.378-0.409,0.803-0.319c0.091,0.134,0.231,0.343,0.47,0.695
		c0,0.133,0,0.488,0,0.909c-0.197,0.165-0.443,0.369-0.613,0.511c-0.075,1.571,0.161,3.032-0.316,4.534
		c-0.128,0.128-0.332,0.332-0.552,0.552c-0.034,0.317,0.039,0.667-0.21,0.976c-0.075,0.093-0.127,0.265-0.235,0.323
		c-0.969,0.515-1.532,1.468-2.381,2.145c0.067,0.75,0.021,1.474-0.647,1.959c0.103,1.807-0.472,3.556-0.153,5.237
		c-0.456,0.787-0.753,1.496-0.711,2.317c0.017,0.303-0.081,0.599-0.159,0.896c-0.111,0.428-0.223,0.982,0.108,1.434
		c0.119,0.162,0.103,0.374,0.047,0.511c-0.404,0.996-0.107,2.024-0.212,3.017c0.311,0.303,0.594,0.579,0.869,0.847
		c0,1.956,0,3.899,0,5.84c-0.508,0.45-0.305,1.169-0.711,1.699c0.595,0.354,0.73,1.052,1.271,1.43
		C57.998,55.08,58.285,55.08,58.672,55.08z M27.792,40.278c-0.816,0.971-0.938,2.082-0.841,3.369
		c0.164,0.138,0.409,0.344,0.643,0.541c0,0.391,0,0.744,0,1.115c0.307,0.063,0.618,0.077,0.862,0.292
		c0.122-0.307,0.603-0.081,0.658-0.55c0.042-0.356,0.596-0.311,0.839-0.682c-0.089-0.324,0.157-0.654,0.199-1.013
		c0.071-0.613-0.096-1.27,0.44-1.763c-0.078-0.396,0.201-0.734,0.209-1.094c0.036-1.534,0.015-3.07,0.015-4.559
		c-0.557-0.272-1.101-0.392-1.481-0.807c-0.21-0.23-0.43-0.188-0.678-0.042c0,0.208,0,0.422,0,0.635
		c-0.001,0.244-0.124,0.463-0.176,0.676c-0.151,0.629-0.56,1.162-0.663,1.773C27.706,38.834,27.792,39.532,27.792,40.278z
		 M25.751,47.977c-0.496,0.221-0.301,0.607-0.335,0.951c0.099,0.098,0.209,0.191,0.302,0.3c0.44,0.509,0.983,0.746,1.661,0.671
		c0.212-0.023,0.466-0.077,0.639,0.009c0.848,0.424,1.712,0.105,2.555,0.198c0-0.831,0-1.575,0-2.28
		c-0.346-0.464-0.789-0.273-1.189-0.296c-0.289,0.296-0.563,0.577-0.831,0.852c-0.155,0-0.298,0-0.438,0
		c-0.104-0.104-0.205-0.205-0.294-0.294c0.123-0.309,0.381-0.549,0.419-0.871c-0.155-0.198-0.452-0.089-0.555-0.368
		c-0.587,0-1.187,0-1.703,0c-0.704-0.537-1.348-0.977-2.204-0.813c-0.287,0.174-0.355,0.431-0.283,0.791
		c0.524,0.117,1,0.479,1.607,0.482C25.266,47.479,25.441,47.659,25.751,47.977z M39.468,49.572c0.028-0.318-0.125-0.867,0.146-1.353
		c-0.107-0.108-0.198-0.261-0.258-0.249c-0.842,0.165-1.67-0.581-2.522-0.028c-0.135,0.087-0.335,0.008-0.471-0.151
		c-0.053-0.062-0.192-0.05-0.323-0.077c-0.223,0.111-0.459,0.229-0.666,0.331c-0.223,0.377,0.295,0.566,0.174,0.897
		c-0.282,0.281-0.562,0.562-0.872,0.871c0.569,0.397,1.228,0.534,1.931,0.825c0.208-0.269,0.404-0.522,0.56-0.725
		c0.5,0,0.926,0,1.457,0c0.839,0.662,1.573,1.569,2.513,2.105c0.21-0.202,0.41-0.396,0.692-0.67c0-0.271,0-0.701,0-1.118
		c-0.638-0.887-1.147,0.233-1.83,0.075C39.884,50.146,39.719,49.917,39.468,49.572z M47.595,55.08
		c-0.502-0.334-0.654-0.838-0.884-1.284c-0.305-0.056-0.659,0.115-0.882-0.227c-0.44,0.199-0.211-0.634-0.67-0.42
		c-0.219,0.445-0.393,0.937-0.82,1.259c-0.215,0.161-0.117,0.38-0.116,0.63c0.197,0.017,0.359,0.121,0.528,0.245
		c0.551,0.404,1.129,0.706,1.871,0.675c1.214-0.052,2.432-0.013,3.648-0.018c0.06,0,0.119-0.054,0.175-0.08c0-0.172,0-0.34,0-0.601
		c-0.496,0.201-0.854-0.199-1.309-0.184C48.636,55.092,48.135,55.08,47.595,55.08z M53.879,36.072
		c-0.389,0.041-0.642-0.459-1.031-0.11c0,0.084-0.031,0.201,0.005,0.291c0.246,0.624,0.325,1.204,0.035,1.88
		c-0.171,0.398-0.162,0.968,0.177,1.396c0.404,0.51,0.566,1.123,0.72,1.733c0.134-0.02,0.252,0.041,0.358-0.137
		c0-0.757,0-1.571,0-2.25c0.243-0.476,0.426-0.831,0.6-1.169C54.545,37.15,54.023,36.76,53.879,36.072z M31.675,27.718
		c0.511-0.267,0.662-0.77,0.818-1.298c-0.413-0.25,0.001-0.754-0.247-1.128c-0.155,0-0.323,0-0.476,0
		c-0.513,0.441-0.565,1.015-0.522,1.543c-0.471,0.625-0.91,1.187-0.867,1.977c0.216,0.206,0.364,0.503,0.737,0.589
		C31.541,28.959,31.703,28.432,31.675,27.718z M50.651,34.966c-0.221-0.189-0.543-0.465-0.833-0.713
		c0.088-0.907-0.746-1.219-1.033-1.85c-0.006-0.014-0.124,0.024-0.224,0.044c0,0.518,0,1.045,0,1.604
		c0.22,0.2,0.41,0.514,0.746,0.56c0.239,0.471,0.465,0.914,0.733,1.441c0.031,0.464-0.135,1.078,0.373,1.533
		c0.067-0.012,0.134-0.023,0.237-0.041C50.651,36.74,50.651,35.928,50.651,34.966z M41.612,25.385
		c-0.044,1.246,0.627,2.31,0.902,3.477c0.009,0.039,0.113,0.056,0.174,0.083c0.215,0.008,0.269-0.207,0.394-0.285
		c-0.322-0.591-0.062-1.237-0.181-1.834c-0.128-0.639-0.28-1.268-0.189-1.925C42.121,24.666,41.913,25.119,41.612,25.385z
		 M48.561,48.588c0.38,0.056,0.524-0.289,0.813-0.289c0.011-0.173,0.068-0.346-0.048-0.536c-0.228,0-0.468,0-0.715,0
		c-0.303,0.42-0.924,0.484-1.164,0.995c0.198,0.711-0.711,1.209-0.372,1.957c0.276-0.043,0.408,0.385,0.625,0.28
		c0.195-0.162,0.305-0.253,0.4-0.333c0-0.458,0-0.887,0-1.311C48.283,49.141,48.556,49,48.561,48.588z M18.099,46.989
		c0.924,0.421,1.5-0.538,2.331-0.348c0-0.225,0-0.393,0-0.568c-0.414,0.027-0.522-0.446-0.886-0.515
		c-0.372,0.051-0.678,0.255-0.964,0.435c-0.404,0.018-0.783,0.034-1.155,0.051c0,0.216,0,0.358,0,0.492
		C17.571,46.862,17.97,46.826,18.099,46.989z M32.328,49.455c-0.221,0.489-0.349,0.908-0.851,1c0.729,0.067,0.729,0.067,2.08-0.681
		c-0.269-0.581-0.219-1.137,0.105-1.683c-0.471-0.196-0.903-0.711-1.334-0.002C32.328,48.555,32.328,49.023,32.328,49.455z
		 M42.263,49.584c0.212,0.104,0.388,0.19,0.57,0.281c0.157-0.157,0.334-0.334,0.477-0.476c0-0.419,0-0.801,0-1.173
		c-0.467-0.138-0.873-0.532-1.355-0.084c-0.104,0.097-0.343,0.092-0.493-0.018c-0.442-0.322-0.89-0.134-1.292-0.112
		c0.333,0.333,0.65,0.651,0.966,0.968c0.249-0.167,0.383-0.554,0.801-0.612c0.093,0.114,0.182,0.225,0.327,0.402
		C42.263,48.983,42.263,49.294,42.263,49.584z M50.342,26.373c-0.313,0.459,0.168,0.836,0.128,1.264
		c-0.043,0.445,0.248,0.78,0.46,1.084c0.229,0.329-0.015,0.924,0.602,1.023c0-0.457,0-0.91,0-1.361
		c-0.28-0.28-0.558-0.557-0.835-0.833c-0.049-0.399,0.069-0.82-0.087-1.206C50.477,26.358,50.41,26.365,50.342,26.373z
		 M47.111,53.599c0.376-0.111,0.711-0.256,0.966-0.553c0.083-0.353-0.009-0.649-0.362-0.766c-0.306-0.101-0.537,0.081-0.702,0.347
		C47.051,52.933,46.941,53.258,47.111,53.599z M44.852,51.088c0.064-0.317-0.033-0.563-0.351-0.771
		c-0.277,0.086-0.635-0.104-0.955,0.11c0.105,0.601,0.634,0.695,1.005,0.957C44.654,51.285,44.755,51.184,44.852,51.088z
		 M54.815,54.167c0.614,0.16,1.074-0.065,1.562-0.565c-0.517,0-0.92,0-1.315,0C54.959,53.766,54.753,53.832,54.815,54.167z
		 M49.765,30.938c0.089-0.408,0.079-0.767,0.015-1.15c-0.159,0.027-0.256,0.044-0.367,0.063c0,0.263,0,0.5,0,0.734
		C49.516,30.688,49.616,30.788,49.765,30.938z M50.353,31.536c-0.254,0.374-0.062,0.629,0.257,0.874
		c0.111-0.305,0.13-0.591-0.006-0.874C50.504,31.536,50.434,31.536,50.353,31.536z M41.695,52.647
		c-0.035,0.637-0.035,0.637,0.419,0.843C41.969,53.199,41.849,52.958,41.695,52.647z M25.613,19.659
		c-0.482-0.019-0.485,0.159-0.325,0.433c0.118-0.018,0.234,0.041,0.325-0.106C25.613,19.921,25.613,19.826,25.613,19.659z"/>
	<path fill="currentColor" d="M34.92,56.052c0.178-0.179,0.356-0.356,0.538-0.537c0.21,0,0.426,0,0.641,0
		c0.315,0.146,0.302,0.532,0.542,0.754c0,0.416,0,0.846,0,1.267c0.546,0.642,1.131,1.184,2.066,0.98
		c0.086,0.312,0.342,0.535,0.341,0.792c-0.045,0.136-0.046,0.227-0.09,0.258c-0.949,0.677-1.582,0.646-2.36-0.108
		c-0.65-0.632-1.13-1.398-1.678-2.11C34.92,56.916,34.92,56.484,34.92,56.052z"/>
	<path fill="currentColor" d="M34.325,59.795c-0.207-0.538-0.587-1.054,0.1-1.476
		c0.264-0.049,0.374,0.302,0.67,0.228c0.24-0.062,0.517-0.048,0.631,0.294c0.067,0.311,0.156,0.659-0.243,0.954
		C35.152,59.795,34.766,59.795,34.325,59.795z"/>
	<path fill="currentColor" d="M33.227,56.124c0.034-0.657,0.144-0.828,0.51-0.828
		c0.359,0,0.471,0.183,0.493,0.828C33.895,56.124,33.562,56.124,33.227,56.124z"/>
	
	
	
	
	
	
	
	
	
	
	
	
	
	
	
	
	
	
	
	
</g>
</svg>
