<?xml version="1.0" encoding="iso-8859-1"?>
<!-- Generator: Adobe Illustrator 16.0.0, SVG Export Plug-In . SVG Version: 6.00 Build 0)  -->
<!DOCTYPE svg PUBLIC "-//W3C//DTD SVG 1.1//EN" "http://www.w3.org/Graphics/SVG/1.1/DTD/svg11.dtd">
<svg version="1.1" id="Layer_1" xmlns="http://www.w3.org/2000/svg" xmlns:xlink="http://www.w3.org/1999/xlink" x="0px" y="0px"
	 width="72.36px" height="71.459px" viewBox="0 0 72.36 71.459" style="enable-background:new 0 0 72.36 71.459;"
	 xml:space="preserve">
<g>
	<path style="fill-rule:evenodd;clip-rule:evenodd;fill:none;" d="M-6.984,78.839c0-28.584,0-57.167,0-85.751
		c28.8,0,57.6,0,86.399,0c0,28.584,0,57.167,0,85.751C50.616,78.839,21.816,78.839-6.984,78.839z M58.672,55.08
		c-0.388,0-0.675,0-0.946,0c-0.541-0.378-0.677-1.075-1.271-1.43c0.406-0.53,0.203-1.249,0.711-1.699c0-1.94,0-3.884,0-5.84
		c-0.275-0.268-0.559-0.544-0.869-0.847c0.104-0.992-0.192-2.021,0.212-3.017c0.056-0.137,0.072-0.349-0.047-0.511
		c-0.331-0.451-0.22-1.006-0.108-1.434c0.078-0.297,0.176-0.593,0.159-0.896c-0.042-0.821,0.255-1.53,0.711-2.317
		c-0.318-1.681,0.256-3.431,0.153-5.237c0.669-0.485,0.715-1.209,0.647-1.959c0.849-0.677,1.412-1.63,2.381-2.145
		c0.108-0.058,0.16-0.229,0.235-0.323c0.249-0.309,0.176-0.659,0.21-0.976c0.22-0.22,0.424-0.424,0.552-0.552
		c0.478-1.502,0.241-2.963,0.316-4.534c0.17-0.142,0.416-0.347,0.613-0.511c0-0.421,0-0.776,0-0.909
		c-0.238-0.353-0.379-0.561-0.47-0.695c-0.425-0.089-0.639,0.07-0.803,0.319c-0.047,0.242,0.095,0.503-0.141,0.783
		c-0.393,0.155-0.759,0.442-0.974,0.918c0,1.394,0,2.788,0,4.142c-0.267,0.267-0.496,0.496-0.726,0.726
		c-0.025-0.025-0.063-0.047-0.073-0.077c-0.02-0.065-0.033-0.135-0.032-0.202c0.004-0.594-0.157-1.059-0.792-1.285
		c-0.29-0.104-0.349-0.418-0.27-0.724c0.279-0.28,0.56-0.56,0.84-0.84c-0.022-0.747-0.088-0.894-0.561-1.341
		c-0.249,0.181-0.499,0.362-0.763,0.553c0,0.216,0,0.423,0,0.71c-0.265,0.238-0.557,0.499-0.814,0.73c0,0.327,0,0.61,0,0.916
		c0.42,0.278,0.666,0.688,0.85,1.154c-0.182,0.216-0.261,0.471-0.242,0.752c-0.207,0.208-0.411,0.411-0.626,0.626
		c0,0.455-0.046,0.927,0.013,1.386c0.064,0.51-0.407,0.911-0.172,1.489c-0.241,0.202-0.487,0.407-0.567,0.474
		c-0.449,0.867-0.344,1.611-0.354,2.343c-0.002,0.18,0.003,0.36-0.001,0.54c-0.014,0.65-0.351,1.158-0.747,1.631
		c-0.048,0.057-0.2,0.058-0.309-0.068c0-0.212,0-0.454,0-0.687c0.205-0.316,0.653-0.286,0.837-0.629c0-0.133,0-0.276,0-0.557
		c-0.247-0.212-0.57-0.49-0.882-0.759c0-0.396,0-0.75,0-1.087c-0.199-0.094-0.374-0.177-0.551-0.261
		c-0.187,0.239-0.596,0.197-0.714,0.523c0,0.368,0,0.725,0,1.045c0.329,0.423,0.542,0.838,0.377,1.359
		c-0.229,0.254-0.474,0.44-0.818,0.174c0-0.215-0.092-0.52,0.017-0.629c0.374-0.382,0.294-0.903,0.161-1.206
		c-0.264-0.6-0.146-1.179-0.17-1.764c-0.032-0.751-0.008-1.505-0.008-2.114c-0.206-0.434-0.331-0.768-0.618-0.944
		c0-0.701,0-1.375,0-2.036c0.363-0.312,0.836-0.506,0.834-1.117c-0.383-0.48-0.141-1.104-0.239-1.669
		c-0.395-0.288-0.394-0.295-0.966-0.28c-0.102,0.102-0.203,0.204-0.307,0.306c0,0.647,0,1.295,0,1.952
		c-0.2,0.198-0.373,0.462-0.617,0.586c-0.275,0.139-0.085,0.716-0.59,0.577c-0.168-1.368-0.186-1.419-0.737-2.07
		c0.091-2.035-0.229-2.891-0.895-3.899c0.254-0.989-0.351-1.96-0.175-2.964c-0.127-0.127-0.229-0.229-0.33-0.331
		c-0.242,0.021-0.494-0.072-0.774,0.091c-0.651,0.986-0.497,2.155-0.369,3.232c0.089,0.754,0.012,1.694,0.815,2.172
		c0,1.287,0.01,1.282,0.636,2.505c0.087,0.17,0.254,0.299,0.24,0.553c-0.037,0.682,0.045,1.374-0.028,2.049
		c-0.075,0.687,0.34,1.291,0.229,1.963c-0.01,0.062-0.067,0.115-0.105,0.176c-0.101-0.104-0.2-0.207-0.313-0.322
		c0-0.197,0-0.411,0-0.657c-0.314-0.21-0.478-0.735-1.032-0.484c-0.287,0.267-0.427,0.607-0.508,0.949
		c0.392,0.792,0.392,0.792,0.883,1.064c-0.077,0.17,0.167,0.452-0.191,0.532c-0.287-0.01-0.366-0.305-0.466-0.368
		c-0.645-0.258-1.083,0.338-1.56,0.144c-0.229-0.203-0.416-0.37-0.622-0.553c0.114-0.256-0.075-0.543,0.181-0.805
		c0.168-0.172,0.156-0.549,0.024-0.695c-0.268-0.296-0.166-0.608-0.168-0.909c-0.014-1.795-0.007-3.59-0.007-5.279
		c-0.396-0.716-1.056-0.181-1.496-0.487c-0.393-0.273-0.823-0.047-1.198-0.133c-0.271,0.29-0.57,0.495-0.646,0.866
		c-0.242-0.012-0.492,0.072-0.776-0.084c0.112-0.409-0.105-0.768-0.252-1.142c-0.216-0.095-0.429-0.189-0.635-0.28
		c-0.21,0.117-0.412,0.229-0.613,0.341c0,0.183,0.068,0.405-0.012,0.535c-0.268,0.429-0.29,0.811-0.001,1.241
		c0.084,0.124,0.013,0.352,0.013,0.531c0,0.432-0.025,0.866,0.005,1.295c0.089,1.229-0.23,2.481,0.206,3.692
		c0.048,0.131-0.078,0.263-0.104,0.381c-0.079,0.364-0.454,0.719-0.301,1.048c0.354,0.76,0.093,1.532,0.205,2.281
		c-0.291,0.12-0.275,0.425-0.377,0.623c-0.133,0.258-0.302,0.456-0.487,0.659c-0.021,1.565-0.021,1.565,0.637,2.535
		c-0.166,0.666-0.951,0.142-1.2,0.611c-0.479,1.391-0.265,2.811-0.314,4.208c0.221,0.136,0.236,0.344,0.211,0.655
		c-0.122,0.123-0.29,0.3-0.468,0.467c-0.428,0.401-0.64,0.868-0.615,1.479c0.039,0.97,0.012,1.942,0.007,2.915
		c0,0.061-0.05,0.121-0.078,0.184c-0.242,0-0.483,0-0.691,0c-0.32-0.247-0.383-0.596-0.488-0.811
		c0.21-0.606,0.322-1.124,0.002-1.646c0.185-0.433,0.5-0.795,0.85-1.1c0-1.41,0-2.771,0-4.178c0.279-0.255,0.569-0.52,0.869-0.794
		c-0.166-1.127,0.212-2.277-0.237-3.379c-0.05-0.123-0.061-0.316,0.003-0.423c0.313-0.534,0.207-1.203,0.565-1.709
		c0.123-0.175,0.122-0.441,0.06-0.495c-0.377-0.329-0.105-0.752-0.227-1.112c-0.167-0.172-0.342-0.353-0.497-0.513
		c-0.346-0.079-0.715,0.12-1.09-0.201c0.275-0.296,0.511-0.549,0.753-0.809c0-0.568,0-1.143,0-1.636
		c0.235-0.451,0.437-0.836,0.643-1.231c0-1.465,0-2.941-0.001-4.417c0-0.589-0.216-0.973-0.781-1.301
		c-0.607-0.353-1.356-0.508-1.812-1.118c0.026-0.407-0.12-0.848,0.251-1.167c-0.354-0.392-0.1-1.285-1.136-1.209
		c-0.287,0.287-0.573,0.573-0.841,0.841c0-0.206-0.106-0.555,0.021-0.755c0.281-0.437,0.204-0.888,0.183-1.328
		c-0.032-0.646,0.2-1.146,0.619-1.529c0-0.425,0-0.812,0-1.223c-1.119-0.41-1.468-1.579-2.356-2.262c0-0.299,0-0.613,0-0.83
		c-0.346-0.542-0.825-0.783-1.25-1.084c-0.461-0.327-0.51-1.012-1.082-1.223c-0.219,0.028-0.438-0.061-0.671,0.096
		c-0.363,0.479-0.67,0.998-0.211,1.643c-0.143,0.229-0.295,0.463-0.204,0.879c-0.2,0.16-0.449,0.36-0.663,0.531
		c-0.034,0.713,0.136,1.396-0.283,1.994c-1.213,0.456-1.763,1.317-1.672,2.622c0.049,0.708,0.009,1.422,0.009,2.164
		c-0.49-0.212-0.865-0.557-1.437-0.383c-0.48,0.288-0.603,0.905-0.906,1.354c-0.097,1.174-0.397,2.314-0.24,3.369
		c-0.254,0.487-0.455,0.872-0.663,1.27c0.12,1.804-0.346,3.405-1.722,4.671c0,0.9,0,1.8,0,2.7c0,0.035-0.005,0.07-0.007,0.105
		c-0.153,0.508-0.67,0.775-0.842,1.48c0.436,1.139-0.685,2.027-0.991,3.154c-0.216,0-0.431,0-0.708,0
		c-0.228-0.556-0.696-1.048-0.337-1.775c0.207-0.418,0.21-0.984,0.032-1.349c-0.295-0.604-0.068-1.188-0.17-1.768
		c0.479-0.66,0.017-1.32,0.002-1.981c-0.006-0.248-0.298-0.376-0.225-0.668c0.129-0.519-0.228-0.913-0.438-1.324
		c-0.2-0.39-0.482-0.756-0.961-0.876c-0.161,0.191-0.081,0.378-0.105,0.547c-0.136,0.922,0.313,1.795,0.225,2.719
		c-0.042,0.444-0.064,0.9,0.194,1.321c0.061,0.1,0.103,0.368-0.313,0.425c-0.216-0.68-0.877-1.027-1.271-1.509
		c-0.442-0.085-0.645,0.079-0.781,0.363c0.121,0.414,0.419,0.75,0.472,1.217c0.021,0.18,0.123,0.569,0.413,0.676
		c0.563,0.207,0.853,0.717,1.276,1.058c0,0.488-0.018,0.957,0.005,1.424c0.021,0.42-0.162,0.887,0.091,1.252
		c0.277,0.398-0.092,0.914,0.303,1.255c-0.368,0.4-0.162,0.886-0.173,1.328c-0.03,1.223-0.053,2.449,0.004,3.671
		c0.041,0.875-0.202,1.575-0.879,2.086c-0.006,0.247,0.036,0.446-0.167,0.623c-0.352,0.307-0.647,0.679-1.004,0.978
		c-0.282,0.237-0.521,0.578-0.524,0.855c-0.009,0.753-0.43,1.219-0.907,1.665c0,1.393,0,2.758,0,4.11
		c-0.799,0.748-1.142,1.219-0.531,2.262c0.594-0.062,1.134,0.057,1.609,0.499c0.299,0.278,0.704,0.416,1.143,0.364
		c0.052-0.007,0.113,0.067,0.235,0.146c0.165,0.171,0.161,0.551,0.483,0.712c0.345,0,0.791,0.133,1.043-0.031
		c0.357-0.232,0.645-0.144,0.918-0.174c0.224,0.475,0.408,0.866,0.594,1.262c0.24,0,0.481,0,0.688,0
		c0.303-0.214,0.33-0.557,0.504-0.767c0-0.381,0-0.734,0-1.129c-0.729-0.364-1.283-0.926-1.739-1.554
		c0.085-0.168,0.167-0.218,0.285-0.199c0.74,0.564,1.661,0.893,2.186,1.744c0.336,0,0.65,0,0.944,0
		c0.124,0.202,0.066,0.375,0.054,0.553c-0.366,0.171-0.772,0.273-1.05,0.609c0.269,0.254,0.443,0.666,0.94,0.547
		c0.338-0.213,0.536-0.569,0.742-0.915c0.554,0.335,0.83,0.865,1.337,1.142c0.529,0.289,0.652,0.977,1.236,1.287
		c0.157,0,0.373,0,0.542,0c0.583-0.299,0.627-1.045,1.173-1.285c0.387-0.082,0.605,0.207,0.687,0.228
		c0.791,0.631,0.15,1.526,0.799,2.119c0.259,0,0.572,0,0.808,0c0.45-0.237,0.377-0.774,0.803-1.011c0,0.341,0,0.654,0,0.968
		c0.041-0.028,0.082-0.057,0.123-0.084c0.138,0.21,0.275,0.421,0.375,0.573c0.981,0.061,1.729-0.35,2.479-0.635
		c0.181-1.496-0.238-2.961,0.38-4.405c0.497,0.411,1.022,0.288,1.523,0.281c0.17-0.255,0.488-0.358,0.52-0.664
		c-0.081-0.293-0.486-0.355-0.438-0.706c0.049-0.043,0.1-0.087,0.181-0.157c0.348,0.104,0.51,0.457,0.807,0.676
		c0.66,0,1.343,0.022,2.024-0.01c0.345-0.016,0.747,0.146,0.816,0.32c0.262,0.657,0.813,0.491,1.319,0.593
		c0.729,0.972,1.629,1.747,3.021,1.933c0.149,0.179,0.355,0.424,0.542,0.645c0.607-0.149,1.047,0.33,1.555,0.197
		c0.232,0.232,0.437,0.437,0.694,0.694c0.602-0.312,1.164,0.199,1.799,0.17c0.944-0.045,1.885-0.072,2.831-0.173
		c0.995-0.105,1.883-0.281,2.722-0.961c1.025,0.115,2.099,0.292,3.196,0.288c1.097-0.004,2.146-0.439,3.244-0.206
		C59.457,56.473,58.927,55.825,58.672,55.08z M34.92,56.052c0,0.432,0,0.863,0,1.295c0.548,0.712,1.028,1.479,1.678,2.11
		c0.778,0.755,1.411,0.785,2.36,0.108c0.044-0.031,0.045-0.122,0.09-0.258c0.001-0.257-0.255-0.48-0.341-0.792
		c-0.935,0.203-1.52-0.339-2.066-0.98c0-0.421,0-0.851,0-1.267c-0.241-0.222-0.228-0.608-0.542-0.754c-0.215,0-0.431,0-0.641,0
		C35.276,55.696,35.098,55.874,34.92,56.052z M34.325,59.795c0.441,0,0.827,0,1.159,0c0.399-0.295,0.31-0.644,0.243-0.954
		c-0.114-0.342-0.391-0.355-0.631-0.294c-0.297,0.074-0.406-0.276-0.67-0.228C33.738,58.742,34.118,59.257,34.325,59.795z
		 M33.227,56.124c0.335,0,0.668,0,1.003,0c-0.022-0.646-0.134-0.828-0.493-0.828C33.37,55.295,33.261,55.466,33.227,56.124z"/>
	<path fill="currentColor" d="M58.672,55.08c0.255,0.745,0.784,1.394,0.136,2.194
		c-1.098-0.233-2.147,0.202-3.244,0.206c-1.098,0.004-2.171-0.173-3.196-0.288c-0.839,0.68-1.727,0.855-2.722,0.961
		c-0.946,0.101-1.887,0.128-2.831,0.173c-0.635,0.029-1.197-0.481-1.799-0.17c-0.258-0.258-0.462-0.462-0.694-0.694
		c-0.508,0.133-0.947-0.347-1.555-0.197c-0.187-0.221-0.393-0.466-0.542-0.645c-1.393-0.186-2.293-0.961-3.021-1.933
		c-0.507-0.102-1.058,0.064-1.319-0.593c-0.069-0.174-0.472-0.336-0.816-0.32c-0.681,0.032-1.365,0.01-2.024,0.01
		c-0.297-0.219-0.459-0.571-0.807-0.676c-0.081,0.07-0.131,0.114-0.181,0.157c-0.049,0.351,0.357,0.413,0.438,0.706
		c-0.031,0.306-0.349,0.409-0.52,0.664c-0.501,0.007-1.026,0.13-1.523-0.281c-0.619,1.444-0.199,2.909-0.38,4.405
		c-0.749,0.285-1.498,0.695-2.479,0.635c-0.099-0.152-0.237-0.363-0.375-0.573c-0.041,0.027-0.082,0.056-0.123,0.084
		c0-0.313,0-0.627,0-0.968c-0.426,0.236-0.353,0.773-0.803,1.011c-0.236,0-0.549,0-0.808,0c-0.649-0.593-0.008-1.488-0.799-2.119
		c-0.082-0.021-0.3-0.31-0.687-0.228c-0.546,0.24-0.59,0.986-1.173,1.285c-0.169,0-0.385,0-0.542,0
		c-0.583-0.311-0.707-0.998-1.236-1.287c-0.507-0.276-0.783-0.807-1.337-1.142c-0.206,0.346-0.404,0.702-0.742,0.915
		c-0.498,0.119-0.671-0.293-0.94-0.547c0.277-0.336,0.684-0.438,1.05-0.609c0.013-0.178,0.07-0.351-0.054-0.553
		c-0.294,0-0.607,0-0.944,0c-0.525-0.852-1.446-1.18-2.186-1.743c-0.118-0.02-0.2,0.03-0.285,0.198
		c0.456,0.628,1.01,1.189,1.739,1.554c0,0.395,0,0.748,0,1.129c-0.174,0.21-0.202,0.553-0.504,0.767c-0.207,0-0.448,0-0.688,0
		c-0.186-0.396-0.371-0.787-0.594-1.262c-0.273,0.03-0.561-0.059-0.918,0.174c-0.252,0.164-0.698,0.031-1.043,0.031
		c-0.322-0.161-0.318-0.541-0.483-0.712c-0.123-0.078-0.184-0.152-0.235-0.146c-0.439,0.052-0.843-0.086-1.143-0.364
		c-0.475-0.442-1.015-0.561-1.609-0.499c-0.611-1.043-0.268-1.514,0.531-2.262c0-1.353,0-2.718,0-4.11
		c0.477-0.446,0.898-0.912,0.907-1.665c0.003-0.277,0.243-0.618,0.524-0.855c0.357-0.299,0.653-0.671,1.004-0.978
		c0.203-0.177,0.161-0.376,0.167-0.623c0.678-0.511,0.92-1.211,0.879-2.086c-0.057-1.222-0.034-2.448-0.004-3.671
		c0.011-0.442-0.195-0.928,0.173-1.328c-0.395-0.342-0.026-0.857-0.303-1.255c-0.253-0.365-0.07-0.832-0.091-1.252
		c-0.023-0.467-0.005-0.936-0.005-1.424c-0.423-0.34-0.713-0.851-1.276-1.058c-0.29-0.106-0.393-0.496-0.413-0.676
		c-0.053-0.468-0.351-0.804-0.472-1.217c0.136-0.285,0.339-0.448,0.781-0.363c0.394,0.482,1.055,0.829,1.271,1.509
		c0.416-0.057,0.374-0.325,0.313-0.425c-0.258-0.421-0.237-0.877-0.194-1.321c0.087-0.923-0.361-1.796-0.225-2.719
		c0.024-0.169-0.056-0.356,0.105-0.547c0.479,0.12,0.762,0.486,0.961,0.876c0.211,0.412,0.568,0.806,0.438,1.324
		c-0.073,0.292,0.219,0.42,0.225,0.668c0.015,0.661,0.477,1.321-0.002,1.981c0.102,0.579-0.125,1.163,0.17,1.768
		c0.178,0.365,0.175,0.931-0.032,1.349c-0.359,0.727,0.109,1.219,0.337,1.775c0.276,0,0.492,0,0.708,0
		c0.306-1.127,1.427-2.015,0.991-3.154c0.172-0.705,0.689-0.972,0.842-1.48c0.002-0.035,0.007-0.07,0.007-0.105c0-0.9,0-1.8,0-2.699
		c1.376-1.266,1.842-2.868,1.722-4.671c0.208-0.398,0.409-0.783,0.663-1.27c-0.157-1.054,0.144-2.195,0.24-3.369
		c0.303-0.449,0.426-1.067,0.906-1.354c0.572-0.173,0.947,0.171,1.437,0.383c0-0.742,0.041-1.456-0.009-2.164
		c-0.09-1.305,0.459-2.166,1.672-2.622c0.419-0.598,0.249-1.281,0.283-1.994c0.214-0.171,0.463-0.371,0.663-0.531
		c-0.091-0.416,0.061-0.65,0.204-0.879c-0.458-0.645-0.152-1.164,0.211-1.643c0.233-0.156,0.452-0.067,0.671-0.096
		c0.571,0.21,0.621,0.896,1.082,1.223c0.425,0.301,0.904,0.542,1.25,1.084c0,0.217,0,0.531,0,0.83
		c0.888,0.683,1.237,1.853,2.356,2.262c0,0.411,0,0.798,0,1.223c-0.419,0.383-0.651,0.883-0.619,1.529
		c0.021,0.44,0.099,0.891-0.183,1.328c-0.128,0.2-0.021,0.549-0.021,0.755c0.268-0.268,0.554-0.554,0.841-0.841
		c1.037-0.076,0.782,0.817,1.136,1.209c-0.371,0.318-0.225,0.759-0.251,1.167c0.456,0.609,1.205,0.765,1.812,1.118
		c0.565,0.329,0.781,0.712,0.781,1.301c0.001,1.476,0.001,2.952,0.001,4.417c-0.206,0.395-0.407,0.78-0.643,1.231
		c0,0.494,0,1.068,0,1.636c-0.242,0.26-0.478,0.513-0.753,0.809c0.375,0.321,0.744,0.123,1.09,0.201
		c0.155,0.16,0.33,0.34,0.497,0.513c0.121,0.36-0.15,0.783,0.227,1.112c0.063,0.054,0.063,0.32-0.06,0.495
		c-0.358,0.507-0.253,1.176-0.565,1.709c-0.063,0.107-0.053,0.3-0.003,0.423c0.449,1.102,0.071,2.251,0.237,3.379
		c-0.3,0.274-0.59,0.539-0.869,0.794c0,1.406,0,2.768,0,4.178c-0.349,0.305-0.665,0.667-0.85,1.1
		c0.319,0.521,0.208,1.039-0.002,1.646c0.105,0.215,0.168,0.563,0.488,0.811c0.208,0,0.45,0,0.691,0
		c0.028-0.063,0.078-0.123,0.078-0.184c0.005-0.973,0.032-1.945-0.007-2.915c-0.025-0.61,0.187-1.077,0.615-1.479
		c0.178-0.167,0.346-0.344,0.468-0.467c0.025-0.312,0.01-0.52-0.211-0.655c0.05-1.397-0.164-2.817,0.314-4.208
		c0.249-0.469,1.034,0.055,1.2-0.611c-0.657-0.969-0.657-0.969-0.637-2.535c0.186-0.203,0.354-0.401,0.487-0.659
		c0.102-0.197,0.086-0.503,0.377-0.623c-0.112-0.749,0.148-1.521-0.205-2.281c-0.153-0.329,0.222-0.684,0.301-1.048
		c0.025-0.118,0.151-0.25,0.104-0.381c-0.437-1.211-0.117-2.463-0.206-3.692c-0.03-0.43-0.005-0.864-0.005-1.295
		c0-0.18,0.071-0.407-0.013-0.531c-0.289-0.431-0.267-0.813,0.001-1.241c0.08-0.13,0.012-0.352,0.012-0.535
		c0.201-0.112,0.403-0.224,0.613-0.341c0.206,0.091,0.419,0.185,0.635,0.28c0.146,0.374,0.364,0.733,0.252,1.142
		c0.284,0.156,0.534,0.073,0.776,0.084c0.075-0.371,0.374-0.576,0.646-0.866c0.375,0.086,0.806-0.14,1.198,0.133
		c0.44,0.307,1.101-0.229,1.496,0.487c0,1.688-0.007,3.484,0.007,5.279c0.002,0.3-0.1,0.612,0.168,0.909
		c0.132,0.146,0.144,0.522-0.024,0.695c-0.256,0.262-0.066,0.549-0.181,0.805c0.206,0.183,0.394,0.35,0.622,0.553
		c0.477,0.195,0.915-0.401,1.56-0.144c0.1,0.063,0.179,0.358,0.466,0.368c0.358-0.081,0.114-0.362,0.191-0.532
		c-0.491-0.272-0.491-0.272-0.883-1.064c0.081-0.342,0.221-0.682,0.508-0.949c0.555-0.25,0.718,0.274,1.032,0.484
		c0,0.247,0,0.46,0,0.657c0.113,0.116,0.213,0.218,0.313,0.322c0.038-0.061,0.096-0.115,0.105-0.176
		c0.111-0.672-0.304-1.277-0.229-1.963c0.073-0.676-0.009-1.367,0.028-2.049c0.014-0.253-0.153-0.383-0.24-0.553
		c-0.626-1.223-0.636-1.218-0.636-2.505c-0.804-0.478-0.727-1.418-0.815-2.172c-0.128-1.078-0.282-2.247,0.369-3.232
		c0.28-0.164,0.532-0.071,0.774-0.091c0.102,0.102,0.203,0.204,0.33,0.331c-0.176,1.004,0.429,1.976,0.175,2.964
		c0.666,1.009,0.985,1.864,0.895,3.899c0.552,0.651,0.569,0.703,0.737,2.07c0.505,0.14,0.314-0.438,0.59-0.577
		c0.244-0.124,0.417-0.388,0.617-0.586c0-0.656,0-1.304,0.001-1.952c0.103-0.102,0.204-0.204,0.306-0.306
		c0.572-0.015,0.571-0.008,0.966,0.28c0.099,0.564-0.144,1.189,0.239,1.669c0.002,0.611-0.471,0.806-0.834,1.117
		c0,0.661,0,1.335,0,2.036c0.287,0.176,0.412,0.51,0.618,0.944c0,0.608-0.024,1.362,0.008,2.114c0.024,0.585-0.094,1.164,0.17,1.764
		c0.133,0.303,0.213,0.823-0.161,1.206c-0.108,0.11-0.017,0.415-0.017,0.629c0.345,0.266,0.589,0.08,0.818-0.174
		c0.165-0.521-0.048-0.936-0.377-1.359c0-0.32,0-0.678,0-1.045c0.118-0.326,0.527-0.284,0.714-0.523
		c0.177,0.084,0.352,0.167,0.551,0.261c0,0.337,0,0.691,0,1.087c0.312,0.269,0.635,0.546,0.882,0.759c0,0.281,0,0.424,0,0.557
		c-0.184,0.343-0.632,0.313-0.837,0.629c0,0.233,0,0.475,0,0.687c0.108,0.125,0.261,0.125,0.309,0.068
		c0.396-0.473,0.733-0.98,0.747-1.631c0.004-0.18-0.001-0.36,0.001-0.54c0.01-0.732-0.096-1.476,0.354-2.343
		c0.08-0.067,0.326-0.272,0.567-0.474c-0.235-0.578,0.236-0.979,0.172-1.489c-0.059-0.459-0.013-0.931-0.013-1.386
		c0.215-0.215,0.419-0.418,0.626-0.626c-0.019-0.281,0.061-0.536,0.242-0.752c-0.184-0.466-0.43-0.876-0.85-1.154
		c0-0.306,0-0.589,0-0.916c0.258-0.231,0.55-0.493,0.814-0.73c0-0.287,0-0.494,0-0.71c0.264-0.191,0.514-0.372,0.763-0.553
		c0.473,0.447,0.538,0.594,0.561,1.341c-0.28,0.28-0.561,0.56-0.84,0.84c-0.079,0.306-0.021,0.62,0.27,0.724
		c0.635,0.227,0.796,0.691,0.792,1.285c-0.001,0.067,0.013,0.137,0.032,0.202c0.01,0.03,0.048,0.052,0.073,0.077
		c0.229-0.229,0.459-0.459,0.726-0.726c0-1.354,0-2.749,0-4.142c0.215-0.476,0.581-0.763,0.974-0.918
		c0.235-0.279,0.094-0.541,0.141-0.783c0.164-0.249,0.378-0.409,0.803-0.319c0.091,0.134,0.231,0.343,0.47,0.695
		c0,0.133,0,0.488,0,0.909c-0.197,0.165-0.443,0.369-0.613,0.511c-0.075,1.571,0.161,3.032-0.316,4.534
		c-0.128,0.128-0.332,0.332-0.552,0.552c-0.034,0.317,0.039,0.667-0.21,0.976c-0.075,0.093-0.127,0.265-0.235,0.323
		c-0.969,0.515-1.532,1.468-2.381,2.145c0.067,0.75,0.021,1.474-0.647,1.959c0.103,1.807-0.472,3.556-0.153,5.237
		c-0.456,0.787-0.753,1.496-0.711,2.317c0.017,0.303-0.081,0.599-0.159,0.896c-0.111,0.428-0.223,0.982,0.108,1.434
		c0.119,0.162,0.103,0.374,0.047,0.511c-0.404,0.996-0.107,2.024-0.212,3.017c0.311,0.303,0.594,0.579,0.869,0.847
		c0,1.956,0,3.899,0,5.84c-0.508,0.45-0.305,1.169-0.711,1.699c0.595,0.354,0.73,1.052,1.271,1.43
		C57.998,55.08,58.285,55.08,58.672,55.08z M27.792,40.278c-0.816,0.971-0.938,2.082-0.841,3.369
		c0.164,0.138,0.409,0.344,0.643,0.541c0,0.391,0,0.744,0,1.115c0.307,0.063,0.618,0.077,0.862,0.292
		c0.122-0.307,0.603-0.081,0.658-0.55c0.042-0.356,0.596-0.311,0.839-0.682c-0.089-0.324,0.157-0.654,0.199-1.013
		c0.071-0.613-0.096-1.27,0.44-1.763c-0.078-0.396,0.201-0.734,0.209-1.094c0.036-1.534,0.015-3.07,0.015-4.559
		c-0.557-0.272-1.101-0.392-1.481-0.807c-0.21-0.23-0.43-0.188-0.678-0.042c0,0.208,0,0.422,0,0.635
		c-0.001,0.244-0.124,0.463-0.176,0.676c-0.151,0.629-0.56,1.162-0.663,1.773C27.706,38.834,27.792,39.532,27.792,40.278z
		 M25.751,47.977c-0.496,0.221-0.301,0.607-0.335,0.951c0.099,0.098,0.209,0.191,0.302,0.3c0.44,0.509,0.983,0.746,1.661,0.671
		c0.212-0.023,0.466-0.077,0.639,0.009c0.848,0.424,1.712,0.105,2.555,0.198c0-0.831,0-1.575,0-2.28
		c-0.346-0.464-0.789-0.273-1.189-0.296c-0.289,0.296-0.563,0.577-0.831,0.852c-0.155,0-0.298,0-0.438,0
		c-0.104-0.104-0.205-0.205-0.294-0.294c0.123-0.309,0.381-0.549,0.419-0.871c-0.155-0.198-0.452-0.089-0.555-0.368
		c-0.587,0-1.187,0-1.703,0c-0.704-0.537-1.348-0.977-2.204-0.813c-0.287,0.174-0.355,0.431-0.283,0.791
		c0.524,0.117,1,0.479,1.607,0.482C25.266,47.479,25.441,47.659,25.751,47.977z M39.468,49.572c0.028-0.318-0.125-0.867,0.146-1.353
		c-0.107-0.108-0.198-0.261-0.258-0.249c-0.842,0.165-1.67-0.581-2.522-0.028c-0.135,0.087-0.335,0.008-0.471-0.151
		c-0.053-0.062-0.192-0.05-0.323-0.077c-0.223,0.111-0.459,0.229-0.666,0.331c-0.223,0.377,0.295,0.566,0.174,0.897
		c-0.282,0.281-0.562,0.562-0.872,0.871c0.569,0.397,1.228,0.534,1.931,0.825c0.208-0.269,0.404-0.522,0.56-0.725
		c0.5,0,0.926,0,1.457,0c0.839,0.662,1.573,1.569,2.513,2.105c0.21-0.202,0.41-0.396,0.692-0.67c0-0.271,0-0.701,0-1.118
		c-0.638-0.887-1.147,0.233-1.83,0.075C39.884,50.146,39.719,49.917,39.468,49.572z M47.595,55.08
		c-0.502-0.334-0.654-0.838-0.884-1.284c-0.305-0.056-0.659,0.115-0.882-0.227c-0.44,0.199-0.211-0.634-0.67-0.42
		c-0.219,0.445-0.393,0.937-0.82,1.259c-0.215,0.161-0.117,0.38-0.116,0.63c0.197,0.017,0.359,0.121,0.528,0.245
		c0.551,0.404,1.129,0.706,1.871,0.675c1.214-0.052,2.432-0.013,3.648-0.018c0.06,0,0.119-0.054,0.175-0.08c0-0.172,0-0.34,0-0.601
		c-0.496,0.201-0.854-0.199-1.309-0.184C48.636,55.092,48.135,55.08,47.595,55.08z M53.879,36.072
		c-0.389,0.041-0.642-0.459-1.031-0.11c0,0.084-0.031,0.201,0.005,0.291c0.246,0.624,0.325,1.204,0.035,1.88
		c-0.171,0.398-0.162,0.968,0.177,1.396c0.404,0.51,0.566,1.123,0.72,1.733c0.134-0.02,0.252,0.041,0.358-0.137
		c0-0.757,0-1.571,0-2.25c0.243-0.476,0.426-0.831,0.6-1.169C54.545,37.15,54.023,36.76,53.879,36.072z M31.675,27.718
		c0.511-0.267,0.662-0.77,0.818-1.298c-0.413-0.25,0.001-0.754-0.247-1.128c-0.155,0-0.323,0-0.476,0
		c-0.513,0.441-0.565,1.015-0.522,1.543c-0.471,0.625-0.91,1.187-0.867,1.977c0.216,0.206,0.364,0.503,0.737,0.589
		C31.541,28.959,31.703,28.432,31.675,27.718z M50.651,34.966c-0.221-0.189-0.543-0.465-0.833-0.713
		c0.088-0.907-0.746-1.219-1.033-1.85c-0.006-0.014-0.124,0.024-0.224,0.044c0,0.518,0,1.045,0,1.604
		c0.22,0.2,0.41,0.514,0.746,0.56c0.239,0.471,0.465,0.914,0.733,1.441c0.031,0.464-0.135,1.078,0.373,1.533
		c0.067-0.012,0.134-0.023,0.237-0.041C50.651,36.74,50.651,35.928,50.651,34.966z M41.612,25.385
		c-0.044,1.246,0.627,2.31,0.902,3.477c0.009,0.039,0.113,0.056,0.174,0.083c0.215,0.008,0.269-0.207,0.394-0.285
		c-0.322-0.591-0.062-1.237-0.181-1.834c-0.128-0.639-0.28-1.268-0.189-1.925C42.121,24.666,41.913,25.119,41.612,25.385z
		 M48.561,48.588c0.38,0.056,0.524-0.289,0.813-0.289c0.011-0.173,0.068-0.346-0.048-0.536c-0.228,0-0.468,0-0.715,0
		c-0.303,0.42-0.924,0.484-1.164,0.995c0.198,0.711-0.711,1.209-0.372,1.957c0.276-0.043,0.408,0.385,0.625,0.28
		c0.195-0.162,0.305-0.253,0.4-0.333c0-0.458,0-0.887,0-1.311C48.283,49.141,48.556,49,48.561,48.588z M18.099,46.989
		c0.924,0.421,1.5-0.538,2.331-0.348c0-0.225,0-0.393,0-0.568c-0.414,0.027-0.522-0.446-0.886-0.515
		c-0.372,0.051-0.678,0.255-0.964,0.435c-0.404,0.018-0.783,0.034-1.155,0.051c0,0.216,0,0.358,0,0.492
		C17.571,46.862,17.97,46.826,18.099,46.989z M32.328,49.455c-0.221,0.489-0.349,0.908-0.851,1c0.729,0.067,0.729,0.067,2.08-0.681
		c-0.269-0.581-0.219-1.137,0.105-1.683c-0.471-0.196-0.903-0.711-1.334-0.002C32.328,48.555,32.328,49.023,32.328,49.455z
		 M42.263,49.584c0.212,0.104,0.388,0.19,0.57,0.281c0.157-0.157,0.334-0.334,0.477-0.476c0-0.419,0-0.801,0-1.173
		c-0.467-0.138-0.873-0.532-1.355-0.084c-0.104,0.097-0.343,0.092-0.493-0.018c-0.442-0.322-0.89-0.134-1.292-0.112
		c0.333,0.333,0.65,0.651,0.966,0.968c0.249-0.167,0.383-0.554,0.801-0.612c0.093,0.114,0.182,0.225,0.327,0.402
		C42.263,48.983,42.263,49.294,42.263,49.584z M50.342,26.373c-0.313,0.459,0.168,0.836,0.128,1.264
		c-0.043,0.445,0.248,0.78,0.46,1.084c0.229,0.329-0.015,0.924,0.602,1.023c0-0.457,0-0.91,0-1.361
		c-0.28-0.28-0.558-0.557-0.835-0.833c-0.049-0.399,0.069-0.82-0.087-1.206C50.477,26.358,50.41,26.365,50.342,26.373z
		 M47.111,53.599c0.376-0.111,0.711-0.256,0.966-0.553c0.083-0.353-0.009-0.649-0.362-0.766c-0.306-0.101-0.537,0.081-0.702,0.347
		C47.051,52.933,46.941,53.258,47.111,53.599z M44.852,51.088c0.064-0.317-0.033-0.563-0.351-0.771
		c-0.277,0.086-0.635-0.104-0.955,0.11c0.105,0.601,0.634,0.695,1.005,0.957C44.654,51.285,44.755,51.184,44.852,51.088z
		 M54.815,54.167c0.614,0.16,1.074-0.065,1.562-0.565c-0.517,0-0.92,0-1.315,0C54.959,53.766,54.753,53.832,54.815,54.167z
		 M49.765,30.938c0.089-0.408,0.079-0.767,0.015-1.15c-0.159,0.027-0.256,0.044-0.367,0.063c0,0.263,0,0.5,0,0.734
		C49.516,30.688,49.616,30.788,49.765,30.938z M50.353,31.536c-0.254,0.374-0.062,0.629,0.257,0.874
		c0.111-0.305,0.13-0.591-0.006-0.874C50.504,31.536,50.434,31.536,50.353,31.536z M41.695,52.647
		c-0.035,0.637-0.035,0.637,0.419,0.843C41.969,53.199,41.849,52.958,41.695,52.647z M25.613,19.659
		c-0.482-0.019-0.485,0.159-0.325,0.433c0.118-0.018,0.234,0.041,0.325-0.106C25.613,19.921,25.613,19.826,25.613,19.659z"/>
	<path fill="currentColor" d="M34.92,56.052c0.178-0.179,0.356-0.356,0.538-0.537c0.21,0,0.426,0,0.641,0
		c0.315,0.146,0.302,0.532,0.542,0.754c0,0.416,0,0.846,0,1.267c0.546,0.642,1.131,1.184,2.066,0.98
		c0.086,0.312,0.342,0.535,0.341,0.792c-0.045,0.136-0.046,0.227-0.09,0.258c-0.949,0.677-1.582,0.646-2.36-0.108
		c-0.65-0.632-1.13-1.398-1.678-2.11C34.92,56.916,34.92,56.484,34.92,56.052z"/>
	<path fill="currentColor" d="M34.325,59.795c-0.207-0.538-0.587-1.054,0.1-1.476
		c0.264-0.049,0.374,0.302,0.67,0.228c0.24-0.062,0.517-0.048,0.631,0.294c0.067,0.311,0.156,0.659-0.243,0.954
		C35.152,59.795,34.766,59.795,34.325,59.795z"/>
	<path fill="currentColor" d="M33.227,56.124c0.034-0.657,0.144-0.828,0.51-0.828
		c0.359,0,0.471,0.183,0.493,0.828C33.895,56.124,33.562,56.124,33.227,56.124z"/>
	<path style="fill-rule:evenodd;clip-rule:evenodd;fill:none;" d="M27.792,40.278c0-0.746-0.086-1.443,0.025-2.106
		c0.103-0.611,0.511-1.145,0.663-1.773c0.052-0.213,0.174-0.432,0.176-0.676c0.001-0.213,0-0.427,0-0.635
		c0.249-0.147,0.468-0.188,0.678,0.042c0.38,0.416,0.924,0.535,1.481,0.807c0,1.489,0.021,3.025-0.015,4.559
		c-0.008,0.359-0.287,0.698-0.209,1.094c-0.536,0.493-0.369,1.149-0.44,1.763c-0.042,0.358-0.288,0.688-0.199,1.013
		c-0.243,0.371-0.797,0.325-0.839,0.682c-0.055,0.469-0.536,0.243-0.658,0.55c-0.244-0.215-0.556-0.229-0.862-0.292
		c0-0.371,0-0.725,0-1.115c-0.234-0.197-0.479-0.403-0.643-0.541C26.854,42.36,26.976,41.249,27.792,40.278z"/>
	<path style="fill-rule:evenodd;clip-rule:evenodd;fill:none;" d="M25.751,47.977c-0.31-0.318-0.485-0.498-0.651-0.669
		c-0.607-0.003-1.083-0.365-1.607-0.482c-0.072-0.36-0.003-0.617,0.283-0.791c0.856-0.163,1.5,0.276,2.204,0.813
		c0.516,0,1.116,0,1.703,0c0.103,0.279,0.4,0.17,0.555,0.368c-0.038,0.322-0.296,0.563-0.419,0.871
		c0.089,0.089,0.191,0.19,0.294,0.294c0.141,0,0.283,0,0.438,0c0.268-0.274,0.542-0.556,0.831-0.852
		c0.4,0.022,0.843-0.168,1.189,0.296c0,0.705,0,1.449,0,2.28c-0.843-0.093-1.708,0.226-2.555-0.198
		c-0.172-0.086-0.426-0.032-0.639-0.009c-0.678,0.075-1.221-0.162-1.661-0.671c-0.093-0.108-0.203-0.202-0.302-0.3
		C25.45,48.584,25.255,48.198,25.751,47.977z"/>
	<path style="fill-rule:evenodd;clip-rule:evenodd;fill:none;" d="M39.468,49.572c0.251,0.346,0.416,0.574,0.532,0.734
		c0.683,0.158,1.192-0.962,1.83-0.075c0,0.417,0,0.848,0,1.118c-0.282,0.273-0.482,0.468-0.692,0.67
		c-0.939-0.536-1.674-1.443-2.513-2.105c-0.531,0-0.957,0-1.457,0c-0.156,0.202-0.352,0.456-0.56,0.725
		c-0.703-0.291-1.362-0.428-1.931-0.825c0.311-0.31,0.59-0.59,0.872-0.871c0.121-0.331-0.397-0.521-0.174-0.897
		c0.206-0.103,0.442-0.22,0.666-0.331c0.13,0.027,0.27,0.016,0.323,0.077c0.136,0.159,0.335,0.238,0.471,0.151
		c0.852-0.553,1.68,0.193,2.522,0.028c0.06-0.012,0.15,0.141,0.258,0.249C39.343,48.705,39.497,49.253,39.468,49.572z"/>
	<path style="fill-rule:evenodd;clip-rule:evenodd;fill:none;" d="M47.595,55.08c0.54,0,1.041,0.013,1.542-0.004
		c0.454-0.016,0.813,0.385,1.309,0.184c0,0.261,0,0.429,0,0.601c-0.056,0.026-0.115,0.08-0.175,0.08
		c-1.217,0.005-2.435-0.034-3.648,0.018c-0.742,0.031-1.32-0.271-1.871-0.675c-0.169-0.124-0.331-0.229-0.528-0.245
		c-0.001-0.25-0.099-0.469,0.116-0.63c0.428-0.322,0.602-0.813,0.82-1.259c0.459-0.214,0.229,0.619,0.67,0.42
		c0.223,0.342,0.577,0.171,0.882,0.227C46.941,54.242,47.093,54.746,47.595,55.08z"/>
	<path style="fill-rule:evenodd;clip-rule:evenodd;fill:none;" d="M53.879,36.072c0.144,0.688,0.666,1.078,0.863,1.634
		c-0.174,0.338-0.356,0.693-0.6,1.169c0,0.679,0,1.493,0,2.25c-0.106,0.178-0.225,0.117-0.358,0.137
		c-0.153-0.61-0.315-1.224-0.72-1.733c-0.339-0.428-0.348-0.997-0.177-1.396c0.29-0.676,0.211-1.256-0.035-1.88
		c-0.036-0.09-0.005-0.207-0.005-0.291C53.238,35.613,53.491,36.112,53.879,36.072z"/>
	<path style="fill-rule:evenodd;clip-rule:evenodd;fill:none;" d="M31.675,27.718c0.028,0.714-0.135,1.242-0.556,1.683
		c-0.373-0.085-0.521-0.383-0.737-0.589c-0.043-0.79,0.396-1.351,0.867-1.977c-0.043-0.529,0.009-1.103,0.522-1.543
		c0.153,0,0.321,0,0.476,0c0.248,0.374-0.166,0.878,0.247,1.128C32.337,26.948,32.186,27.451,31.675,27.718z"/>
	<path style="fill-rule:evenodd;clip-rule:evenodd;fill:none;" d="M50.651,34.966c0,0.962,0,1.774,0,2.578
		c-0.104,0.018-0.17,0.029-0.237,0.041c-0.508-0.455-0.342-1.069-0.373-1.533c-0.269-0.527-0.494-0.97-0.733-1.441
		c-0.336-0.046-0.526-0.36-0.746-0.56c0-0.558,0-1.085,0-1.604c0.1-0.02,0.218-0.058,0.224-0.044c0.287,0.63,1.121,0.943,1.033,1.85
		C50.108,34.501,50.43,34.776,50.651,34.966z"/>
	<path style="fill-rule:evenodd;clip-rule:evenodd;fill:none;" d="M41.612,25.385c0.301-0.266,0.509-0.719,1.1-0.485
		c-0.091,0.657,0.062,1.287,0.189,1.925c0.119,0.597-0.142,1.243,0.181,1.834c-0.125,0.079-0.179,0.293-0.394,0.285
		c-0.061-0.027-0.165-0.044-0.174-0.083C42.239,27.695,41.568,26.631,41.612,25.385z"/>
	<path style="fill-rule:evenodd;clip-rule:evenodd;fill:none;" d="M48.561,48.588C48.556,49,48.283,49.141,48.1,49.352
		c0,0.424,0,0.853,0,1.311c-0.096,0.08-0.205,0.171-0.4,0.333c-0.217,0.104-0.349-0.323-0.625-0.28
		c-0.339-0.748,0.57-1.246,0.372-1.957c0.24-0.511,0.861-0.575,1.164-0.995c0.247,0,0.487,0,0.715,0
		c0.116,0.19,0.059,0.363,0.048,0.536C49.085,48.299,48.941,48.644,48.561,48.588z"/>
	<path style="fill-rule:evenodd;clip-rule:evenodd;fill:none;" d="M18.099,46.989c-0.129-0.163-0.528-0.127-0.674-0.453
		c0-0.134,0-0.276,0-0.492c0.372-0.017,0.75-0.033,1.155-0.051c0.286-0.18,0.592-0.384,0.964-0.435
		c0.364,0.068,0.472,0.542,0.886,0.515c0,0.176,0,0.344,0,0.568C19.598,46.451,19.023,47.41,18.099,46.989z"/>
	<path style="fill-rule:evenodd;clip-rule:evenodd;fill:none;" d="M32.328,49.455c0-0.432,0-0.899,0-1.365
		c0.431-0.709,0.864-0.194,1.334,0.002c-0.324,0.546-0.374,1.102-0.105,1.683c-1.351,0.748-1.351,0.748-2.08,0.681
		C31.979,50.363,32.107,49.944,32.328,49.455z"/>
	<path style="fill-rule:evenodd;clip-rule:evenodd;fill:none;" d="M42.263,49.584c0-0.29,0-0.602,0-0.823
		c-0.146-0.178-0.234-0.288-0.327-0.402c-0.418,0.059-0.552,0.445-0.801,0.612c-0.315-0.316-0.633-0.635-0.966-0.968
		c0.402-0.021,0.85-0.21,1.292,0.112c0.15,0.109,0.389,0.114,0.493,0.018c0.482-0.448,0.889-0.054,1.355,0.084
		c0,0.372,0,0.754,0,1.173c-0.143,0.142-0.319,0.318-0.477,0.476C42.651,49.775,42.475,49.689,42.263,49.584z"/>
	<path style="fill-rule:evenodd;clip-rule:evenodd;fill:none;" d="M50.342,26.373c0.067-0.007,0.135-0.015,0.268-0.029
		c0.156,0.386,0.038,0.807,0.088,1.206c0.276,0.277,0.554,0.553,0.834,0.833c0,0.451,0,0.904,0,1.361
		c-0.616-0.099-0.373-0.695-0.602-1.023c-0.212-0.304-0.503-0.639-0.46-1.084C50.51,27.209,50.029,26.832,50.342,26.373z"/>
	<path style="fill-rule:evenodd;clip-rule:evenodd;fill:none;" d="M47.111,53.599c-0.17-0.341-0.06-0.666-0.099-0.972
		c0.165-0.266,0.396-0.447,0.702-0.347c0.354,0.116,0.445,0.413,0.362,0.766C47.822,53.343,47.487,53.488,47.111,53.599z"/>
	<path style="fill-rule:evenodd;clip-rule:evenodd;fill:none;" d="M44.852,51.088c-0.097,0.096-0.198,0.196-0.301,0.297
		c-0.371-0.262-0.899-0.356-1.005-0.957c0.32-0.215,0.678-0.024,0.955-0.11C44.819,50.525,44.917,50.771,44.852,51.088z"/>
	<path style="fill-rule:evenodd;clip-rule:evenodd;fill:none;" d="M54.815,54.167c-0.062-0.335,0.145-0.4,0.246-0.565
		c0.396,0,0.799,0,1.315,0C55.889,54.101,55.429,54.327,54.815,54.167z"/>
	<path style="fill-rule:evenodd;clip-rule:evenodd;fill:none;" d="M49.765,30.938c-0.149-0.149-0.249-0.249-0.353-0.354
		c0-0.233,0-0.471,0-0.734c0.111-0.019,0.208-0.036,0.367-0.063C49.844,30.171,49.854,30.53,49.765,30.938z"/>
	<path style="fill-rule:evenodd;clip-rule:evenodd;fill:none;" d="M50.353,31.536c0.081,0,0.151,0,0.251,0
		c0.136,0.283,0.117,0.569,0.006,0.874C50.292,32.165,50.099,31.91,50.353,31.536z"/>
	<path style="fill-rule:evenodd;clip-rule:evenodd;fill:none;" d="M41.695,52.647c0.154,0.312,0.274,0.552,0.419,0.843
		C41.66,53.284,41.66,53.284,41.695,52.647z"/>
	<path style="fill-rule:evenodd;clip-rule:evenodd;fill:none;" d="M25.613,19.659c0,0.167,0,0.263,0,0.327
		c-0.091,0.147-0.208,0.088-0.325,0.106C25.128,19.818,25.131,19.64,25.613,19.659z"/>
</g>
</svg>
