<?xml version="1.0" encoding="iso-8859-1"?>
<!-- Generator: Adobe Illustrator 16.0.0, SVG Export Plug-In . SVG Version: 6.00 Build 0)  -->
<!DOCTYPE svg PUBLIC "-//W3C//DTD SVG 1.1//EN" "http://www.w3.org/Graphics/SVG/1.1/DTD/svg11.dtd">
<svg version="1.1" id="Layer_1" xmlns="http://www.w3.org/2000/svg" xmlns:xlink="http://www.w3.org/1999/xlink" x="0px" y="0px"
	 width="72.36px" height="71.459px" viewBox="0 0 72.36 71.459" style="enable-background:new 0 0 72.36 71.459;"
	 xml:space="preserve">
<g>
	<path style="fill-rule:evenodd;clip-rule:evenodd;fill:none;" d="M-6.984,78.839c0-28.584,0-57.167,0-85.751
		c28.8,0,57.6,0,86.399,0c0,28.584,0,57.167,0,85.751C50.616,78.839,21.816,78.839-6.984,78.839z M40.108,62.875
		c-0.004,0.017,0.002-0.093,0.05-0.177c0.271-0.473,0.671-0.923,0.167-1.486c-0.036-0.04-0.022-0.145-0.002-0.211
		c0.146-0.477-0.257-0.851-0.229-1.315c0.03-0.48,0.088-0.981-0.206-1.422c0.125-1.384-0.179-2.745-0.214-4.121
		c-0.014-0.503,0.18-1.121-0.046-1.484c-0.317-0.509-0.013-1.024-0.288-1.513c-0.279-0.496-0.057-1.116-0.097-1.681
		c-0.004-0.06,0.046-0.123,0.13-0.329c0.016-0.229,0.495-0.007,0.596-0.264c1.607-0.157,3.188-0.367,4.786-0.276
		c0.395,0.022,0.793,0.02,1.188,0c0.613-0.031,1.195-0.222,1.785-0.378c1.075-0.284,2.082-0.674,3.043-1.271
		c0.667-0.415,1.35-0.809,1.916-1.34c0.959-0.896,1.698-1.948,2.004-3.268c0.127-0.55,0.498-1.074,0.504-1.613
		c0.014-1.273,0.387-2.519,0.247-3.797c-0.077-0.703,0.339-1.354,0.231-2.063c0.522-1.154,0.441-2.414,0.624-3.626
		c0.104-0.685-0.172-1.413,0.223-2.069c-0.207-0.737,0.266-1.332,0.463-1.971c0.093-0.301,0.212-0.586,0.179-0.892
		c-0.103-0.923,0.385-1.793,0.222-2.718c-0.029-0.171,0.162-0.237,0.187-0.353c0.184-0.867,0.622-1.688,0.471-2.619
		c-0.025-0.158-0.063-0.337,0.067-0.509c0.233-0.311,0.224-0.614-0.015-0.96c-0.121-0.176-0.067-0.471-0.101-0.787
		c-0.834-0.477-1.555-1.263-2.637-1.336c-1.088,1.062-1.243,2.429-1.419,3.778c-0.066,0.51-0.013,1.002-0.334,1.491
		c-0.221,0.336-0.34,0.794-0.339,1.263c0.002,0.608-0.244,1.189-0.359,1.784c-0.201,1.042-0.695,2.043-0.488,3.148
		c0.1,0.535-0.347,0.982-0.229,1.533c0.046,0.217-0.166,0.423-0.229,0.656c-0.206,0.762-0.418,1.513-0.407,2.312
		c0.008,0.54,0.006,1.08,0,1.62c-0.006,0.519-0.017,1.02-0.186,1.539c-0.153,0.474-0.131,1.016-0.205,1.527
		c-0.142,0.984-0.57,1.927-0.472,2.946c-0.297,0.265-0.176,0.696-0.448,1.011c-0.319,0.368-0.49,0.866-0.729,1.317
		c-0.428,0-0.49,0.387-0.551,0.496c-1.611,1.176-3.263,1.713-5.063,1.709c-0.121-0.121-0.313-0.227-0.31-0.324
		c0.023-0.599-0.285-1.13-0.262-1.743c0.059-1.473,0.02-2.95,0.02-4.426c0-1.079-0.021-2.16,0.005-3.239
		c0.026-1.087-0.069-2.171,0.182-3.264c0.186-0.803-0.014-1.66,0.215-2.503c0.167-0.618-0.052-1.324,0.246-1.954
		c-0.09-1.525,0.337-3.022,0.229-4.554c-0.067-0.967-0.033-1.943-0.004-2.914c0.016-0.549-0.148-1.118,0.192-1.648
		c0.099-0.153,0.085-0.454,0.004-0.633c-0.389-0.854-0.129-1.746-0.199-2.615c-0.011-0.13,0.01-0.262,0.056-0.405
		c0.371-1.163-0.329-2.163-1.509-2.188c-0.428-0.009-0.855-0.001-1.261-0.001c-0.4,0.549-0.725,1.41-0.75,1.889
		c-0.058,1.087,0.175,2.193-0.214,3.258c0.145,1.457-0.379,2.883-0.208,4.336c0.104,0.893-0.358,1.724-0.222,2.61
		c0.021,0.138-0.136,0.176-0.146,0.263c-0.131,1.053-0.547,2.04-0.532,3.141c0.02,1.443,0.252,2.909-0.188,4.337
		c0.162,1.636-0.301,3.242-0.226,4.878c0.052,1.112,0.015,2.23,0.006,3.346c-0.002,0.207,0.06,0.419-0.055,0.624
		c-0.333,0.601-0.081,1.254-0.157,1.878c0.412,0.35,0.136,0.774,0.207,1.107c-0.449,0.416-0.884,0.536-1.4,0.526
		c-1.404-0.026-2.808-0.008-4.211-0.013c-0.061,0-0.122-0.05-0.225-0.094c-0.119-0.202-0.257-0.436-0.418-0.709
		c0-0.595,0-1.242,0-1.89c-0.492-0.331-0.075-0.909-0.394-1.359c-0.267-0.377,0.037-0.984-0.216-1.521
		c-0.194-0.412-0.039-0.989-0.039-1.493c0-1.116,0-2.231,0-3.347c0-0.216,0.088-0.499-0.016-0.635
		c-0.325-0.423-0.222-0.892-0.18-1.325c0.046-0.48-0.244-0.86-0.241-1.316c0.003-0.66,0.107-1.335-0.21-1.962
		c0.152-1.314-0.223-2.599-0.218-3.905c0.007-1.979,0.039-3.96-0.008-5.938c-0.048-1.993,0.393-3.962,0.228-5.957
		c-0.011-0.141-0.001-0.283-0.001-0.358c-0.208-0.23-0.375-0.417-0.523-0.58c-0.61,0-1.184,0-1.758,0
		c-0.846,0.149-1.17,0.868-1.606,1.463c0,0.504,0,1.008,0,1.512c0,0.18,0.076,0.43-0.013,0.528
		c-0.395,0.428-0.021,0.988-0.271,1.404c-0.307,0.512-0.056,1.046-0.149,1.56c-0.147,0.819,0.229,1.588,0.22,2.394
		c-0.01,0.864-0.002,1.728-0.002,2.591c0,2.735-0.017,5.471,0.008,8.205c0.01,1.124,0.332,2.231,0.209,3.366
		c-0.007,0.068-0.017,0.171,0.021,0.203c0.34,0.285,0.217,0.678,0.175,1c-0.054,0.416,0.24,0.705,0.249,1.1
		c0.034,1.447-0.145,2.897,0.179,4.343c0.138,0.617-0.008,1.293,0.033,1.938c0.028,0.439-0.119,0.806-0.279,1.146
		c-1.482,0.419-2.756-0.514-4.168-0.596c-0.276-0.176-0.482-0.451-0.786-0.65c-0.827-0.539-1.319-1.409-1.927-2.168
		c-0.285-0.355-0.154-0.723-0.293-1.074c-0.52-1.312-0.862-2.674-0.769-4.11c0.028-0.431,0.14-0.928-0.026-1.281
		c-0.279-0.595-0.039-1.203-0.208-1.753c-0.181-0.587-0.189-1.164-0.192-1.753c-0.005-0.972,0.044-1.946-0.014-2.915
		c-0.057-0.959,0.289-1.864,0.255-2.827c-0.037-1.045-0.067-2.092,0.147-3.157c0.212-1.05,0.005-2.166,0.226-3.256
		c0.094-0.46,0.076-0.982,0.274-1.403c0.162-0.342,0.179-0.659,0.189-1.002c0.005-0.18-0.072-0.412,0.014-0.531
		c0.396-0.556,0.174-1.014-0.149-1.46c-0.51,0-1.011,0-1.43,0c-0.304,0.164-0.544,0.285-0.776,0.419
		c-0.476,0.275-1.085,0.494-1.292,0.982c-0.219,0.521-0.477,1.027-0.698,1.546c-0.412,0.966-0.446,2.029-0.842,2.998
		c-0.125,0.306-0.246,0.619-0.239,0.986c0.029,1.547-0.02,3.096,0.022,4.642c0.042,1.554-0.149,3.111,0.181,4.667
		c0.153,0.723-0.07,1.522,0.054,2.257c0.117,0.697,0.303,1.413,0.359,2.097c0.093,1.117,0.381,2.223,0.273,3.363
		c-0.064,0.678-0.012,1.366-0.012,1.984c0.248,0.501,0.506,0.924,0.661,1.413c0.129,0.408,0.302,0.836,0.569,1.161
		c0.683,0.828,1.362,1.641,2.235,2.325c1.058,0.829,2.146,1.538,3.389,2.017c0.436,0.168,0.892,0.309,1.352,0.378
		c0.422,0.063,0.862,0.014,1.293,0.014s0.864-0.002,1.296,0c0.449,0.001,0.832,0.339,1.316,0.225
		c0.415-0.099,0.816,0.184,1.204,0.183c0.952-0.002,1.854,0.424,2.734,0.236c0.481,0.266,0.364,0.654,0.365,0.998
		c0.003,4.245,0.002,8.49,0.002,12.722c0.115,0.115,0.217,0.217,0.324,0.324c2.009,0,4.024-0.005,6.039,0.004
		C39.292,63.293,39.669,63.3,40.108,62.875z"/>
	<path fill="currentColor" d="M40.108,62.875c-0.438,0.425-0.815,0.418-1.201,0.416
		c-2.015-0.009-4.029-0.004-6.039-0.004c-0.107-0.107-0.209-0.209-0.324-0.324c0-4.231,0.001-8.477-0.002-12.722
		c0-0.344,0.117-0.732-0.365-0.998c-0.88,0.188-1.782-0.238-2.734-0.236c-0.388,0.001-0.789-0.281-1.204-0.183
		c-0.484,0.114-0.867-0.224-1.316-0.225c-0.432-0.002-0.864,0-1.296,0s-0.871,0.05-1.293-0.014c-0.46-0.069-0.917-0.21-1.352-0.378
		c-1.242-0.479-2.331-1.188-3.389-2.017c-0.873-0.685-1.553-1.497-2.235-2.325c-0.268-0.325-0.44-0.753-0.569-1.161
		c-0.154-0.489-0.413-0.912-0.661-1.413c0-0.618-0.052-1.307,0.012-1.984c0.108-1.141-0.18-2.246-0.273-3.363
		c-0.057-0.684-0.242-1.4-0.359-2.097c-0.124-0.735,0.1-1.534-0.054-2.257c-0.33-1.556-0.139-3.113-0.181-4.667
		c-0.042-1.546,0.007-3.095-0.022-4.642c-0.007-0.367,0.114-0.681,0.239-0.986c0.396-0.969,0.43-2.032,0.842-2.998
		c0.222-0.52,0.479-1.026,0.698-1.546c0.206-0.489,0.815-0.707,1.292-0.982c0.232-0.134,0.472-0.256,0.776-0.419
		c0.419,0,0.919,0,1.43,0c0.323,0.446,0.545,0.905,0.149,1.46c-0.085,0.12-0.008,0.351-0.014,0.531
		c-0.01,0.343-0.028,0.66-0.189,1.002c-0.198,0.421-0.18,0.943-0.274,1.403c-0.221,1.09-0.014,2.206-0.226,3.256
		c-0.215,1.065-0.184,2.112-0.147,3.157c0.034,0.963-0.312,1.868-0.255,2.827c0.058,0.968,0.009,1.943,0.014,2.915
		c0.003,0.589,0.011,1.166,0.192,1.753c0.169,0.55-0.071,1.158,0.208,1.753c0.166,0.354,0.054,0.851,0.026,1.281
		c-0.093,1.437,0.25,2.799,0.769,4.11c0.139,0.352,0.008,0.719,0.293,1.074c0.608,0.759,1.1,1.629,1.927,2.168
		c0.304,0.199,0.51,0.475,0.786,0.65c1.412,0.082,2.686,1.015,4.168,0.596c0.16-0.341,0.308-0.707,0.279-1.146
		c-0.041-0.645,0.105-1.32-0.033-1.938c-0.324-1.445-0.145-2.896-0.179-4.343c-0.009-0.395-0.303-0.684-0.249-1.1
		c0.042-0.323,0.165-0.715-0.175-1c-0.038-0.032-0.028-0.135-0.021-0.203c0.123-1.135-0.199-2.243-0.209-3.366
		c-0.025-2.734-0.008-5.47-0.008-8.205c0-0.864-0.007-1.728,0.002-2.591c0.009-0.806-0.367-1.575-0.22-2.394
		c0.093-0.514-0.158-1.048,0.149-1.56c0.25-0.417-0.123-0.976,0.271-1.404c0.089-0.098,0.013-0.348,0.013-0.528
		c0-0.504,0-1.008,0-1.512c0.436-0.595,0.76-1.313,1.606-1.463c0.574,0,1.148,0,1.758,0c0.147,0.163,0.315,0.349,0.523,0.58
		c0,0.076-0.01,0.218,0.001,0.358c0.166,1.995-0.276,3.964-0.228,5.957c0.047,1.978,0.016,3.958,0.008,5.938
		c-0.005,1.307,0.37,2.591,0.218,3.905c0.318,0.627,0.214,1.302,0.21,1.962c-0.002,0.456,0.288,0.836,0.241,1.316
		c-0.042,0.433-0.145,0.901,0.18,1.325c0.104,0.136,0.016,0.419,0.016,0.635c0,1.116,0,2.231,0,3.347
		c0,0.504-0.155,1.081,0.039,1.493c0.252,0.537-0.051,1.145,0.216,1.521c0.318,0.45-0.099,1.028,0.394,1.359c0,0.647,0,1.295,0,1.89
		c0.161,0.273,0.299,0.507,0.418,0.709c0.103,0.044,0.164,0.094,0.225,0.094c1.403,0.005,2.807-0.014,4.211,0.013
		c0.517,0.01,0.951-0.11,1.4-0.526c-0.071-0.333,0.205-0.758-0.207-1.107c0.076-0.624-0.176-1.277,0.157-1.878
		c0.114-0.205,0.053-0.417,0.055-0.624c0.009-1.115,0.046-2.233-0.006-3.346c-0.075-1.636,0.388-3.242,0.226-4.878
		c0.439-1.428,0.207-2.894,0.188-4.337c-0.015-1.101,0.401-2.088,0.532-3.141c0.011-0.086,0.168-0.125,0.146-0.263
		c-0.137-0.886,0.326-1.718,0.222-2.61c-0.171-1.453,0.353-2.879,0.208-4.336c0.389-1.065,0.156-2.171,0.214-3.258
		c0.025-0.479,0.35-1.34,0.75-1.889c0.405,0,0.833-0.008,1.261,0.001c1.18,0.025,1.88,1.025,1.509,2.188
		c-0.046,0.143-0.066,0.275-0.056,0.405c0.07,0.87-0.189,1.762,0.199,2.615c0.081,0.179,0.095,0.48-0.004,0.633
		c-0.341,0.53-0.177,1.099-0.192,1.648c-0.029,0.971-0.063,1.947,0.004,2.914c0.108,1.532-0.318,3.028-0.229,4.554
		c-0.298,0.629-0.079,1.335-0.246,1.954c-0.229,0.843-0.029,1.701-0.215,2.503c-0.251,1.093-0.155,2.177-0.182,3.264
		c-0.025,1.079-0.005,2.16-0.005,3.239c0,1.476,0.039,2.953-0.02,4.426c-0.023,0.613,0.285,1.145,0.262,1.743
		c-0.004,0.098,0.188,0.203,0.31,0.324c1.801,0.004,3.452-0.533,5.063-1.709c0.061-0.109,0.123-0.496,0.551-0.496
		c0.239-0.451,0.41-0.949,0.729-1.317c0.272-0.314,0.151-0.746,0.448-1.011c-0.099-1.02,0.33-1.962,0.472-2.946
		c0.074-0.511,0.052-1.053,0.205-1.527c0.169-0.52,0.18-1.021,0.186-1.539c0.006-0.54,0.008-1.08,0-1.62
		c-0.011-0.798,0.201-1.549,0.407-2.312c0.063-0.233,0.275-0.439,0.229-0.656c-0.117-0.551,0.329-0.998,0.229-1.533
		c-0.207-1.104,0.287-2.106,0.488-3.148c0.115-0.595,0.361-1.176,0.359-1.784c-0.001-0.468,0.118-0.926,0.339-1.263
		c0.321-0.488,0.268-0.981,0.334-1.491c0.176-1.349,0.331-2.716,1.419-3.778c1.082,0.073,1.803,0.859,2.637,1.336
		c0.033,0.315-0.021,0.611,0.101,0.787c0.238,0.346,0.248,0.649,0.015,0.96c-0.13,0.172-0.093,0.352-0.067,0.509
		c0.151,0.931-0.287,1.752-0.471,2.619c-0.024,0.115-0.216,0.182-0.187,0.353c0.163,0.925-0.324,1.795-0.222,2.718
		c0.033,0.306-0.086,0.591-0.179,0.892c-0.197,0.639-0.67,1.234-0.463,1.971c-0.395,0.656-0.119,1.384-0.223,2.069
		c-0.183,1.213-0.102,2.472-0.624,3.626c0.107,0.708-0.309,1.36-0.231,2.063c0.14,1.278-0.233,2.523-0.247,3.797
		c-0.006,0.539-0.377,1.063-0.504,1.613c-0.306,1.319-1.045,2.371-2.004,3.268c-0.566,0.531-1.249,0.925-1.916,1.34
		c-0.961,0.598-1.968,0.987-3.043,1.271c-0.59,0.156-1.172,0.347-1.785,0.378c-0.395,0.02-0.793,0.022-1.188,0
		c-1.598-0.091-3.179,0.119-4.786,0.276c-0.101,0.257-0.58,0.034-0.596,0.264c-0.084,0.206-0.134,0.27-0.13,0.329
		c0.04,0.564-0.183,1.185,0.097,1.681c0.275,0.488-0.029,1.004,0.288,1.513c0.226,0.363,0.032,0.981,0.046,1.484
		c0.035,1.376,0.339,2.737,0.214,4.121c0.294,0.44,0.236,0.941,0.206,1.422c-0.028,0.465,0.375,0.839,0.229,1.315
		c-0.021,0.066-0.034,0.171,0.002,0.211c0.504,0.563,0.104,1.014-0.167,1.486C40.11,62.783,40.104,62.892,40.108,62.875z"/>
</g>
</svg>
