<?xml version="1.0" encoding="iso-8859-1"?>
<!-- Generator: Adobe Illustrator 16.0.0, SVG Export Plug-In . SVG Version: 6.00 Build 0)  -->
<!DOCTYPE svg PUBLIC "-//W3C//DTD SVG 1.1//EN" "http://www.w3.org/Graphics/SVG/1.1/DTD/svg11.dtd">
<svg version="1.1" id="Layer_1" xmlns="http://www.w3.org/2000/svg" xmlns:xlink="http://www.w3.org/1999/xlink" x="0px" y="0px"
	 width="72.36px" height="71.459px" viewBox="0 0 72.36 71.459" style="enable-background:new 0 0 72.36 71.459;"
	 xml:space="preserve">
<g>
	<path style="fill-rule:evenodd;clip-rule:evenodd;fill:none;" d="M79.416,78.839c-28.8,0-57.6,0-86.399,0
		c0-28.584,0-57.167,0-85.751c28.8,0,57.6,0,86.399,0C79.416,21.672,79.416,50.255,79.416,78.839z M42.224,19.037
		c0.122-0.842,0.342-1.654,0.763-2.314c0.368-0.577,0.545-1.153,0.608-1.832c0.146-0.105,0.29-0.21,0.369-0.268
		c0.135-0.852-0.162-1.438-0.838-1.937c-0.395,0-0.848,0-1.292,0c0-0.417,0-0.776,0-1.063c0.232-0.443,0.436-0.829,0.653-1.244
		c-0.02-0.938-0.104-1.919,0.416-2.816c0.063-0.108,0.015-0.284,0.005-0.427c-0.005-0.063-0.043-0.125-0.073-0.206
		c-0.235,0-0.477,0-0.703,0c-0.348,0.375-0.762,0.664-0.918,1.169c-0.03,0.268,0.079,0.63-0.056,0.822
		c-0.212,0.303-0.171,0.593-0.198,1.013c-0.18,0.15-0.426,0.355-0.549,0.458c-0.237,0.888-0.362,1.642-0.323,2.419
		c0.009,0.17-0.178,0.35-0.307,0.582c-0.285-0.188-0.378,0.356-0.711,0.213c-0.568-0.072-0.87-0.534-1.243-0.867
		c-0.391,0.061-0.814-0.112-0.931-0.338c-0.261-0.506-0.643-0.523-1.087-0.523c-0.28,0-0.561,0-0.865,0c0,0.298,0,0.541,0,0.734
		c0.247,0.428,0.732,0.452,1.022,0.688c0.749,0.609,1.603,1.051,2.369,1.629c0.362,0.273,0.719,0.491,0.868,0.949
		c0.1,0.799-0.126,1.535-0.635,2.174c-0.576,0.725-1.375,1.208-2.071,1.797c-0.575,0.486-1.25,0.861-1.782,1.412
		c-0.27,0.278-0.547,0.549-0.79,0.792c-0.212-0.052-0.367,0.044-0.518-0.136c-0.042-1.094,0.626-1.862,1.442-2.446
		c0.348-0.249,0.6-0.571,0.925-0.767c0-0.261,0-0.474,0-0.687c-0.237-0.16-0.346-0.467-0.635-0.533
		c-0.583,0.266-0.583,0.266-1.51,0.124c-0.044-0.975-0.134-1.138-0.905-1.548c-0.211-0.112-0.434-0.18-0.603-0.38
		c-0.271-0.321-0.611-0.562-1.059-0.558c-0.221,0.002-0.283-0.191-0.461-0.308c0-0.724,0-1.47,0-2.187
		c-0.302-0.227-0.225-0.736-0.702-0.749c-0.583,0.328-0.753,0.917-0.889,1.529c-0.141-0.092-0.14-0.197-0.14-0.305
		c0.001-0.54-0.022-1.081,0.007-1.62c0.03-0.564-0.367-1.063-0.225-1.639c0.036-0.146-0.096-0.26-0.123-0.377
		c-0.174-0.743-0.643-1.279-1.162-1.789c-0.041-0.04-0.099-0.061-0.15-0.091c-0.068,0.275-0.418,0.085-0.507,0.318
		c0,1.044,0.013,2.088-0.006,3.131c-0.008,0.416,0.041,0.811,0.252,1.152c-0.594,0.425-0.846,0.438-1.574,0.123
		c-0.206,0.11-0.411,0.22-0.614,0.329c0,0.361,0,0.72,0,1.157c0.657,0.348,1.127,1.064,1.95,1.212
		c0.522,0.094,0.66,0.723,1.193,0.781c0.083,0.009,0.151,0.146,0.23,0.219c0.163,0.149,0.037,0.341,0.093,0.535
		c-0.536,0.534-1.312,0.696-1.893,1.166c-0.398-0.118-0.567,0.206-0.803,0.41c-0.183,0.158-0.29,0.414-0.636,0.469
		c-0.745-0.31-1.525-0.702-2.381-0.879c-0.558-0.706-1.478-0.794-2.197-1.236c-0.719-0.443-1.493-0.88-2.318-1.164
		c-0.4-0.308-0.717-0.747-1.314-0.848c-0.233,0.255-0.642,0.413-0.568,0.901c0.032,0.058,0.056,0.124,0.098,0.174
		c0.454,0.538,1.031,0.899,1.643,1.241c0.382,0.214,0.598,0.709,1.068,0.813c0.505,0.112,0.697,0.631,1.183,0.803
		c0.337,0.12,0.527,0.678,0.86,0.777c0.624,0.186,0.965,0.752,1.553,0.953c0.602,0.205,1.014,0.806,1.706,0.835
		c0.333,0.473,0.974,0.566,1.252,1.189c0.208,0.467,0.538,0.978,1.015,1.273c-0.045,0.35,0.068,0.676-0.091,0.982
		c-0.122,0-0.24,0.03-0.333-0.004c-1.095-0.413-1.982-1.258-3.154-1.512c-0.352-0.53-0.997-0.575-1.458-0.891
		c-0.451-0.31-0.925-0.581-1.401-0.814c-1.178-0.578-2.243-1.312-3.183-2.203c-0.785-0.745-1.681-1.315-2.561-1.918
		c-0.252-0.172-0.458-0.389-0.746-0.539c-0.426-0.22-0.652-0.074-0.904,0.209c-0.019,0.706-0.025,1.404,0.82,1.695
		c0.061,0.021,0.128,0.089,0.15,0.15c0.24,0.671,0.827,0.99,1.384,1.344c0,0.186,0,0.355,0,0.584
		c-1.413-0.036-2.667,0.423-3.821,1.096c-0.095,0.461-0.111,0.836,0.307,1.073c0.648,0,1.296,0,1.944,0
		c0.612,0,1.286,0.164,1.821-0.04c0.714-0.272,1.407-0.195,2.083-0.144c0.683,0.052,1.423,0.139,1.977,0.684
		c0.163,0.16,0.4,0.244,0.602,0.364c0.692,0.415,1.43,0.771,2.064,1.262c0.731,0.566,1.469,1.102,2.277,1.552
		c0.715,0.399,1.29,0.93,1.35,1.829c0.021,0.317,0.179,0.599,0.389,0.805c0.322,0.315,0.398,0.748,0.443,1.109
		c0.085,0.683,0.271,1.331,0.473,1.974c0.291,0.929,0.527,1.854,0.395,2.837c-0.8,1.137-1.576,2.294-2.812,3.029
		c-1.154,0.687-2.193,1.568-3.409,2.081c-0.969-0.801-1.037-0.883-1.306-1.772c-0.048-0.159,0.037-0.352-0.144-0.482
		c-0.403-0.294-0.399-0.789-0.483-1.197c-0.071-0.347-0.245-0.621-0.354-0.926c-0.5-0.129-0.687,0.289-0.969,0.538
		c0,0.432,0,0.864,0,1.169c0.248,0.524,0.509,0.931,0.634,1.374c0.231,0.821,0.378,1.658,1.072,2.272
		c0.076,0.067,0.315,0.29,0.237,0.535c0.052,0.324-0.376,0.531-0.188,0.935c-0.434,0.244-0.672,0.67-0.888,1.104
		c-0.492,0.986-1.053,1.906-1.855,2.695c-0.835,0.822-1.845,1.445-2.597,2.354c-0.046,0.055-0.092,0.126-0.154,0.149
		c-0.701,0.261-1.064,0.854-1.438,1.473c0.026,0.978-0.35,1.895-0.697,2.881c0.827,1.052,0.712,2.317,0.681,3.555
		c1.358,1.699,2.751,3.332,5.015,4.164c0.344,0.344,0.78,0.827,1.265,1.254c0.841,0.74,1.709,1.428,2.961,1.2
		c0.459-0.083,0.893,0.053,1.231,0.409c0.794,0.011,0.794,0.011,1.139-0.334c-0.787-1.059-1.848-1.539-3.127-1.389
		c-0.141-0.356,0.115-0.444,0.264-0.639c0.184,0,0.472-0.089,0.592,0.016c0.478,0.413,0.904,0.117,1.346-0.017
		c0.688-0.209,0.732-0.471,0.19-1.079c-0.72,0-1.44-0.004-2.16,0.002c-0.933,0.006-1.771-0.234-2.41-0.953
		c-0.134-0.151-0.343-0.069-0.452-0.219c0.002-0.33-0.454-0.583-0.133-0.983c0.684-0.032,1.333,0.044,1.901,0.556
		c0.171,0.154,0.434,0.298,0.731,0.311c0.693,0.028,1.409-0.156,2.074,0.2c0.076,0.041,0.228,0.02,0.302-0.032
		c0.382-0.265,0.958-0.242,1.139-0.72c0-0.266,0-0.476,0-0.685c-0.527-0.066-0.976-0.338-1.524-0.306
		c-0.55,0.032-1.045,0.466-1.649,0.179c-0.471-0.409-0.517-0.991-0.478-1.506c-0.408-0.721-0.869-1.307-0.888-2.115
		c-0.006-0.261-0.206-0.561-0.434-0.786c-0.167-0.164-0.296-0.38-0.433-0.565c-0.55-0.75-1.022-1.567-1.712-2.229
		c0-0.133,0.038-0.288-0.006-0.415c-0.303-0.871-0.274-0.833,0.409-1.49c0.433-0.416,0.949-0.72,1.37-1.137
		c0.832-0.82,1.756-1.578,2.35-2.592c0.355-0.606,1.108-0.986,1.075-1.82c-0.002-0.058,0.047-0.132,0.093-0.175
		c0.593-0.537,1.083-1.17,1.839-1.55c0.685-0.344,1.528-0.384,2.07-1.033c0.045-0.055,0.421-0.182,0.556,0.21
		c-0.203,0.295-0.509,0.58-0.674,1.108c0,0.278,0,0.71,0,1.108c0.264,0.277,0.511,0.538,0.754,0.793
		c0.389-0.08,0.652,0.188,0.963,0.307c-0.061,0.538-0.072,0.52-0.484,0.776c-0.371,0.231-0.824,0.373-1.018,0.827
		c0,1.169,0,1.169,0.43,1.869c0,0.436,0,0.867,0,1.296c-0.18,0.181-0.358,0.358-0.537,0.537c-0.638-0.437-1.291-0.832-1.992-1.179
		c-0.71-0.351-1.328-0.879-2.152-0.997c-0.233,0.646,0.342,0.98,0.412,1.479c0.14,0.079,0.303,0.122,0.452,0.203
		c0.595,0.325,1.088,0.796,1.699,1.104c0.359,0.183,0.596,0.588,0.6,1.029c0.003,0.455,0.156,0.897,0.287,1.291
		c0.267,0.8,0.197,1.47-0.297,2.221c0.096,0.376-0.053,0.792-0.181,1.229c-0.163,0.558-0.318,1.136-0.248,1.735
		c-0.505,0.635-0.093,1.156,0.212,1.772c0.029,0.925,0.109,1.054,0.811,2.499c0.146,0.302,0.389,0.675,0.28,1.064
		c-0.083,0.299,0.292,0.401,0.256,0.544c-0.352,0.866-1.026,1.302-1.539,1.885c0.02,0.233-0.072,0.485,0.018,0.642
		c0.465,0.384,0.962,0.325,1.399,0.325c0.297,0.449,0.853,0.457,1.059,0.88c0.401,0,0.757,0,1.172,0
		c0.246,0.635,0.895,0.802,1.431,0.798c0.404-0.004,0.915-0.038,1.296-0.208c0.701-0.313,1.456-0.285,2.074-0.116
		c0.646,0.178,1.253,0.072,1.87,0.158c0.705,0.098,1.188-0.435,1.781-0.646c0.553,0.245,1.146,0.409,1.596,0.847
		c0.416,0.031,0.8-0.019,1.212-0.163c0.269-0.094,0.574-0.42,0.86-0.238c0.467,0.297,0.946,0.154,1.376,0.206
		c0.857-0.493,1.297-0.527,2.096-0.32c0.558,0.145,1.104,0.396,1.706,0.313c0.063-0.009,0.124-0.048,0.196-0.077
		c0-0.31,0-0.623,0-0.844c-0.559-0.87-1.571-1.19-1.982-2.07c-0.276-0.591-0.949-0.92-1.027-1.707
		c0.104-0.635,0.698-1.011,0.995-1.358c0.239-0.588-0.099-0.882-0.187-1.24c-0.634-0.14-0.872-0.658-1-1.185
		c-0.126-0.524-0.469-0.982-0.449-1.545c-0.487-0.463,0.045-1.191-0.432-1.656c0.044-0.566-0.134-1.072-0.39-1.568
		c-0.092-0.179-0.027-0.374,0.059-0.587c0.226-0.556,0.462-1.134,0.52-1.721c0.051-0.522,0.204-0.997,0.333-1.49
		c0.11-0.422,0.245-0.846,0.377-1.251c0.204-0.632,0.202-1.317,0.595-1.915c0.417-0.637,0.619-1.383,0.395-2.213
		c-0.232-0.079-0.282-0.465-0.667-0.468c-0.316,0.152-0.443,0.623-0.879,0.669c-0.141-0.688-0.152-0.693-0.012-1.102
		c0.247-0.721,0.128-1.358-0.405-1.906c-0.314-0.323-0.667-0.616-0.8-1.12c0.085-0.468-0.027-0.971,0.189-1.504
		c0.19-0.467-0.066-1.097,0.42-1.515c0.217-0.001,0.405-0.005,0.578,0.19c0.357,0.403,0.779,0.75,1.13,1.159
		c0.238,0.276,0.568,0.525,0.844,0.558c0.504,0.06,0.875,0.354,1.307,0.522c0.375,0.148,0.689,0.426,1.14,0.391
		c0.145-0.011,0.307,0.12,0.448,0.205c0.492,0.295,0.979,0.598,1.53,0.936c-0.142,0.347,0.279,0.691-0.016,1.071
		c-0.029,1.426,0.373,2.704,1.354,3.755c0.268,0.287,0.412,0.622,0.628,1c-0.565,0.596-1.218,1.049-2.099,1.313
		c-1.367,1.006-3.01,1.845-3.958,3.447c0,1.119,0,2.225,0,3.292c0.283,0.376,0.629,0.337,0.965,0.274
		c0.292-0.15,0.419-0.487,0.444-0.687c0.082-0.663,0.031-1.343,0.031-1.814c0.225-0.427,0.373-0.654,0.47-0.902
		c0.121-0.313,0.348-0.519,0.623-0.667c0.853-0.46,1.726-0.883,2.563-1.369c0.244-0.142,0.43-0.187,0.734-0.056
		c-0.101,0.172,0.054,0.366-0.135,0.568c-0.512,0.55-0.831,1.229-1.186,1.882c-0.207,0.381-0.378,0.787-0.593,1.156
		c-0.527,0.904-1.172,1.73-1.968,2.428c-0.561,0.492-0.849,1.082-0.619,1.833c0.135,0.085,0.181,0.245,0.354,0.252
		c0.687,0.025,1.2-0.259,1.525-0.861c0.211-0.391,0.444-0.709,0.962-0.663c0.114,0.01,0.163-0.235,0.345-0.184
		c1.1,0.347,2.151,0.335,3.171-0.44c0.176-0.01,0.42-0.059,0.673,0.043c0.084,0.394,0.102,0.766-0.247,0.989
		c-0.483,0.129-0.982-0.17-1.363,0.25c-0.503-0.114-0.946,0.197-1.423,0.207c-0.964,0.02-1.803,0.321-2.521,0.943
		c0,0.185,0,0.354,0,0.544c0.125,0.013,0.227,0.032,0.328,0.032c0.792,0.003,1.636,0.175,2.361-0.045
		c0.775-0.236,1.565-0.047,2.335-0.346c0.48-0.187,1.032-0.216,1.547-0.44c0.533-0.232,0.759-0.722,1.211-1.007
		c-0.212-0.705,0.359-1.292,0.135-2.061c0.949,0.126,1.162-0.827,1.862-1.084c0.708-0.259,1.133-0.912,1.583-1.327
		c0.194-0.85-0.087-1.473-0.681-1.835c-0.341-0.208-0.608-0.46-0.882-0.72c-0.548-0.521-1.073-1.064-1.607-1.6
		c-0.509-0.509-0.976-1.073-1.539-1.512c-0.576-0.448-0.936-1.084-1.387-1.427c-0.472-1.317-0.286-2.558-0.328-3.731
		c0.264-0.366,0.575-0.679,0.93-0.716c0.49-0.052,0.743-0.351,1.039-0.64c0.284-0.276,0.562-0.56,0.806-0.804
		c0-0.638,0-1.24,0-1.733c-0.287-0.51-0.652-0.339-0.981-0.32c-0.263,0.527-0.321,1.12-0.661,1.553
		c-0.888,0.489-1.739,0.825-2.661,0.152c-0.108-0.08-0.209-0.178-0.325-0.249c-0.572-0.354-1.108-0.867-1.731-1.017
		c-0.702-0.17-1.139-0.554-1.575-1.013c0.637-0.834,1.767-0.969,2.326-1.706c0.099-0.395-0.053-0.582-0.263-0.746
		c-1.015-0.119-2.005-0.104-2.798,0.574c-0.433,0-0.819,0-1.195,0c-0.459-0.641-0.759-1.353-1.288-1.759
		c-0.163-1.304,0.002-2.445,0.645-3.456c-0.103-0.103-0.15-0.157-0.205-0.203c-0.078-0.065-0.123-0.187-0.27-0.155
		c-0.797,0.262-1.229,0.992-1.872,1.525c-0.528-0.725-1.105-1.416-1.562-2.179c-0.308-0.515-0.62-1.142-0.421-1.745
		c0.162-0.491,0.22-1.076,0.683-1.413c0.608-0.377,1.28-0.305,1.938-0.29c0.464,0.01,0.859-0.101,1.269-0.339
		c0.617-0.361,1.288-0.632,2.004-0.524c0.723-0.518,1.434-0.934,2.29-1.106c0.478-0.097,1.023-0.286,1.346-0.619
		c0.714-0.737,1.271-1.607,1.242-2.829c0.184-0.153,0.43-0.357,0.639-0.53c0.011-0.197,0.018-0.335,0.022-0.436
		c0.592-0.604,1.172-1.117,1.896-1.516c0.893-0.492,1.67-1.193,2.496-1.805c0.229-0.169,0.454-0.343,0.538-0.407
		c0-0.506,0-0.787,0-1.06c-0.26-0.121-0.506-0.062-0.749-0.05c-0.438,0.505-1.075,0.719-1.626,1.037
		c-0.485,0.28-1.015,0.505-1.52,0.762c-0.794,0.403-1.373,1.117-2.191,1.348c-0.26,0.505-0.441,0.985-0.734,1.383
		c-0.182,0.245-0.294,0.445-0.294,0.753c0,0.308-0.172,0.587-0.381,0.807c-0.361,0.377-0.688,0.805-1.357,0.996
		c-0.424-0.149-0.911,0.285-1.476,0.247c-0.62-0.043-1.008,0.518-1.631,0.658c-0.128-0.28-0.53-0.211-0.733-0.544
		c0-0.773,0-1.591,0-2.398c0.432-0.631,1.305-0.669,1.726-1.309c0.075-0.114,0.196-0.054,0.288-0.088
		c0.125-0.046,0.167-0.212,0.345-0.216c0.672-0.015,0.836-0.696,1.298-0.957c-0.05-0.358,0.072-0.685-0.098-0.98
		c-0.377,0-0.877-0.152-1.071,0.028c-0.615,0.573-1.532,0.615-2.079,1.266c-0.728,0.075-1.277,0.451-1.759,0.982
		C42.738,18.854,42.476,18.911,42.224,19.037z"/>
	<path style="fill-rule:evenodd;clip-rule:evenodd;" d="M42.226,19c0.25-0.088,0.512-0.145,0.658-0.306
		c0.481-0.531,1.031-0.907,1.759-0.982c0.547-0.651,1.464-0.693,2.079-1.266c0.194-0.18,0.694-0.028,1.071-0.028
		c0.17,0.295,0.048,0.622,0.098,0.98c-0.462,0.261-0.626,0.942-1.298,0.957c-0.178,0.004-0.22,0.169-0.345,0.216
		c-0.092,0.034-0.213-0.026-0.288,0.088c-0.421,0.64-1.294,0.678-1.726,1.309c0,0.807,0,1.625,0,2.398
		c0.203,0.333,0.605,0.264,0.733,0.544c0.623-0.14,1.011-0.701,1.631-0.658c0.564,0.039,1.052-0.396,1.476-0.247
		c0.67-0.191,0.996-0.618,1.357-0.996c0.209-0.219,0.381-0.499,0.381-0.807c0-0.308,0.112-0.508,0.294-0.753
		c0.293-0.397,0.475-0.877,0.734-1.383c0.818-0.231,1.397-0.945,2.191-1.348c0.505-0.257,1.034-0.482,1.52-0.762
		c0.551-0.318,1.188-0.532,1.626-1.037c0.243-0.012,0.489-0.07,0.749,0.05c0,0.272,0,0.554,0,1.06
		c-0.084,0.064-0.31,0.238-0.538,0.407c-0.826,0.612-1.604,1.313-2.496,1.805c-0.724,0.399-1.304,0.913-1.896,1.516
		c-0.005,0.101-0.012,0.239-0.022,0.436c-0.209,0.173-0.455,0.377-0.639,0.53c0.028,1.221-0.528,2.091-1.242,2.829
		c-0.322,0.333-0.868,0.522-1.346,0.619c-0.856,0.173-1.567,0.588-2.29,1.106c-0.716-0.107-1.387,0.164-2.004,0.524
		c-0.409,0.238-0.805,0.349-1.269,0.339c-0.658-0.015-1.33-0.087-1.938,0.29c-0.463,0.337-0.521,0.921-0.683,1.413
		c-0.199,0.604,0.113,1.23,0.421,1.745c0.456,0.763,1.033,1.454,1.562,2.179c0.644-0.533,1.075-1.263,1.872-1.525
		c0.146-0.032,0.191,0.09,0.27,0.155c0.055,0.046,0.103,0.101,0.205,0.203c-0.643,1.01-0.808,2.151-0.645,3.456
		c0.529,0.406,0.829,1.118,1.288,1.759c0.376,0,0.763,0,1.195,0c0.793-0.677,1.783-0.692,2.798-0.574
		c0.21,0.164,0.361,0.351,0.263,0.746c-0.56,0.737-1.689,0.872-2.326,1.706c0.437,0.459,0.873,0.843,1.575,1.013
		c0.623,0.149,1.159,0.662,1.731,1.017c0.116,0.071,0.217,0.169,0.325,0.249c0.922,0.673,1.773,0.337,2.661-0.152
		c0.34-0.433,0.398-1.025,0.661-1.553c0.329-0.019,0.694-0.189,0.981,0.32c0,0.493,0,1.096,0,1.733
		c-0.244,0.244-0.521,0.527-0.806,0.804c-0.296,0.289-0.549,0.588-1.039,0.64c-0.354,0.037-0.666,0.35-0.93,0.716
		c0.042,1.174-0.144,2.414,0.328,3.731c0.451,0.343,0.811,0.979,1.387,1.427c0.563,0.438,1.03,1.003,1.539,1.512
		c0.534,0.535,1.06,1.079,1.607,1.6c0.273,0.26,0.541,0.512,0.882,0.72c0.594,0.362,0.875,0.985,0.681,1.835
		c-0.45,0.415-0.875,1.068-1.583,1.327c-0.7,0.257-0.913,1.21-1.862,1.084c0.225,0.769-0.347,1.355-0.135,2.061
		c-0.452,0.285-0.678,0.774-1.211,1.007c-0.515,0.225-1.066,0.254-1.547,0.44c-0.77,0.299-1.56,0.109-2.335,0.346
		c-0.726,0.22-1.569,0.048-2.361,0.045c-0.102,0-0.203-0.02-0.328-0.032c0-0.19,0-0.359,0-0.544
		c0.718-0.622,1.557-0.924,2.521-0.943c0.477-0.01,0.92-0.321,1.423-0.207c0.381-0.42,0.88-0.121,1.363-0.25
		c0.349-0.224,0.331-0.596,0.247-0.989c-0.253-0.102-0.497-0.053-0.673-0.043c-1.02,0.775-2.071,0.787-3.171,0.44
		c-0.182-0.052-0.23,0.193-0.345,0.184c-0.518-0.046-0.751,0.272-0.962,0.663c-0.325,0.603-0.839,0.887-1.525,0.861
		c-0.173-0.007-0.219-0.167-0.354-0.252c-0.229-0.751,0.059-1.341,0.619-1.833c0.796-0.697,1.44-1.523,1.968-2.428
		c0.215-0.369,0.386-0.775,0.593-1.156c0.354-0.652,0.674-1.332,1.186-1.882c0.188-0.202,0.034-0.396,0.135-0.568
		c-0.305-0.131-0.49-0.086-0.734,0.056c-0.837,0.486-1.71,0.909-2.563,1.369c-0.275,0.148-0.502,0.354-0.623,0.667
		c-0.097,0.248-0.245,0.476-0.47,0.902c0,0.472,0.051,1.151-0.031,1.814c-0.025,0.199-0.152,0.536-0.444,0.687
		c-0.336,0.063-0.682,0.102-0.965-0.274c0-1.067,0-2.173,0-3.292c0.948-1.603,2.591-2.441,3.958-3.447
		c0.881-0.264,1.533-0.717,2.099-1.313c-0.216-0.378-0.36-0.713-0.628-1c-0.98-1.051-1.383-2.329-1.354-3.755
		c0.295-0.38-0.126-0.725,0.016-1.071c-0.551-0.338-1.038-0.641-1.53-0.936c-0.142-0.085-0.304-0.216-0.448-0.205
		c-0.45,0.035-0.765-0.242-1.14-0.391c-0.432-0.169-0.803-0.463-1.307-0.522c-0.275-0.032-0.605-0.281-0.844-0.558
		c-0.351-0.409-0.772-0.756-1.13-1.159c-0.173-0.195-0.361-0.191-0.578-0.19c-0.486,0.418-0.229,1.048-0.42,1.515
		c-0.217,0.533-0.104,1.036-0.189,1.504c0.133,0.504,0.485,0.797,0.8,1.12c0.533,0.548,0.652,1.186,0.405,1.906
		c-0.141,0.408-0.129,0.413,0.012,1.102c0.436-0.046,0.563-0.517,0.879-0.669c0.385,0.003,0.435,0.389,0.667,0.468
		c0.225,0.83,0.022,1.576-0.395,2.213c-0.393,0.598-0.391,1.283-0.595,1.915c-0.132,0.405-0.267,0.829-0.377,1.251
		c-0.129,0.493-0.282,0.968-0.333,1.49c-0.058,0.587-0.294,1.165-0.52,1.721c-0.086,0.213-0.15,0.408-0.059,0.587
		c0.256,0.496,0.434,1.002,0.39,1.568c0.477,0.465-0.056,1.193,0.432,1.656c-0.02,0.563,0.323,1.021,0.449,1.545
		c0.128,0.526,0.366,1.045,1,1.185c0.088,0.358,0.426,0.652,0.187,1.24c-0.297,0.348-0.892,0.724-0.995,1.358
		c0.078,0.787,0.751,1.116,1.027,1.707c0.411,0.88,1.424,1.2,1.982,2.07c0,0.221,0,0.534,0,0.844
		c-0.072,0.029-0.133,0.068-0.196,0.077c-0.602,0.083-1.148-0.169-1.706-0.313c-0.799-0.207-1.238-0.173-2.096,0.32
		c-0.43-0.052-0.909,0.091-1.376-0.206c-0.286-0.182-0.592,0.145-0.86,0.238c-0.412,0.145-0.796,0.194-1.212,0.163
		c-0.449-0.438-1.043-0.602-1.596-0.847c-0.593,0.211-1.076,0.743-1.781,0.646c-0.617-0.086-1.224,0.02-1.87-0.158
		c-0.618-0.169-1.374-0.196-2.074,0.116c-0.381,0.17-0.892,0.204-1.296,0.208c-0.536,0.004-1.185-0.163-1.431-0.798
		c-0.415,0-0.771,0-1.172,0c-0.207-0.423-0.762-0.431-1.059-0.88c-0.437,0-0.934,0.059-1.399-0.325
		c-0.09-0.156,0.001-0.408-0.018-0.642c0.513-0.583,1.188-1.019,1.539-1.885c0.036-0.143-0.34-0.245-0.256-0.544
		c0.109-0.39-0.133-0.763-0.28-1.064c-0.701-1.445-0.781-1.574-0.811-2.499c-0.305-0.616-0.717-1.138-0.212-1.772
		c-0.07-0.6,0.085-1.178,0.248-1.735c0.128-0.438,0.277-0.854,0.181-1.229c0.495-0.751,0.564-1.421,0.297-2.221
		c-0.131-0.394-0.284-0.836-0.287-1.291c-0.004-0.441-0.241-0.847-0.6-1.029c-0.61-0.309-1.104-0.779-1.699-1.104
		c-0.149-0.081-0.312-0.124-0.452-0.203c-0.07-0.498-0.646-0.833-0.412-1.479c0.824,0.118,1.441,0.646,2.152,0.997
		c0.701,0.347,1.354,0.742,1.992,1.179c0.178-0.179,0.356-0.356,0.537-0.537c0-0.429,0-0.86,0-1.296c-0.43-0.7-0.43-0.7-0.43-1.869
		c0.193-0.454,0.647-0.596,1.018-0.827c0.412-0.257,0.423-0.238,0.484-0.776c-0.311-0.119-0.574-0.387-0.963-0.307
		c-0.243-0.255-0.49-0.516-0.754-0.793c0-0.398,0-0.83,0-1.108c0.165-0.528,0.471-0.813,0.674-1.108
		c-0.134-0.392-0.51-0.265-0.556-0.21c-0.542,0.649-1.385,0.689-2.07,1.033c-0.756,0.38-1.246,1.013-1.839,1.55
		c-0.046,0.043-0.095,0.117-0.093,0.175c0.033,0.834-0.72,1.214-1.075,1.82c-0.594,1.014-1.518,1.771-2.35,2.592
		c-0.421,0.417-0.937,0.721-1.37,1.137c-0.683,0.657-0.712,0.619-0.409,1.49c0.044,0.127,0.006,0.282,0.006,0.415
		c0.69,0.662,1.162,1.479,1.712,2.229c0.136,0.186,0.266,0.401,0.433,0.565c0.229,0.226,0.428,0.525,0.434,0.786
		c0.019,0.809,0.479,1.395,0.888,2.115c-0.039,0.515,0.007,1.097,0.478,1.506c0.604,0.287,1.1-0.146,1.649-0.179
		c0.549-0.032,0.998,0.239,1.524,0.306c0,0.209,0,0.419,0,0.685c-0.181,0.478-0.756,0.455-1.139,0.72
		c-0.075,0.052-0.227,0.073-0.302,0.032c-0.666-0.356-1.381-0.172-2.074-0.2c-0.297-0.013-0.56-0.156-0.731-0.311
		c-0.568-0.512-1.217-0.588-1.901-0.556c-0.321,0.4,0.135,0.653,0.133,0.983c0.108,0.149,0.317,0.067,0.452,0.219
		c0.638,0.719,1.477,0.959,2.41,0.953c0.72-0.006,1.44-0.002,2.16-0.002c0.542,0.608,0.498,0.87-0.19,1.079
		c-0.442,0.134-0.869,0.43-1.346,0.017c-0.121-0.104-0.409-0.016-0.592-0.016c-0.148,0.194-0.404,0.282-0.264,0.639
		c1.279-0.15,2.341,0.33,3.127,1.389c-0.345,0.345-0.345,0.345-1.139,0.334c-0.338-0.356-0.772-0.492-1.231-0.409
		c-1.251,0.228-2.12-0.46-2.961-1.2c-0.485-0.427-0.921-0.91-1.265-1.254c-2.264-0.832-3.657-2.465-5.015-4.164
		c0.032-1.237,0.146-2.503-0.681-3.555c0.347-0.986,0.723-1.903,0.697-2.881c0.374-0.618,0.738-1.212,1.438-1.473
		c0.062-0.023,0.108-0.095,0.154-0.149c0.752-0.908,1.762-1.531,2.597-2.354c0.802-0.789,1.363-1.709,1.855-2.695
		c0.216-0.434,0.455-0.859,0.888-1.104c-0.188-0.403,0.241-0.61,0.188-0.935c0.079-0.245-0.161-0.468-0.237-0.535
		c-0.694-0.614-0.841-1.451-1.072-2.272c-0.125-0.443-0.386-0.85-0.634-1.374c0-0.306,0-0.738,0-1.169
		c0.282-0.249,0.469-0.667,0.969-0.538c0.109,0.306,0.283,0.58,0.354,0.926c0.084,0.408,0.08,0.903,0.483,1.197
		c0.18,0.131,0.095,0.323,0.144,0.482c0.27,0.89,0.337,0.972,1.306,1.772c1.215-0.513,2.255-1.395,3.409-2.081
		c1.236-0.735,2.012-1.892,2.812-3.03c0.132-0.983-0.104-1.908-0.395-2.836c-0.201-0.644-0.388-1.291-0.473-1.974
		c-0.045-0.362-0.121-0.794-0.443-1.109c-0.21-0.206-0.367-0.488-0.389-0.805c-0.061-0.899-0.635-1.43-1.35-1.829
		c-0.808-0.451-1.546-0.986-2.277-1.552c-0.634-0.491-1.372-0.847-2.064-1.262c-0.202-0.121-0.439-0.204-0.602-0.364
		c-0.554-0.545-1.294-0.632-1.977-0.684c-0.677-0.051-1.369-0.128-2.083,0.144c-0.535,0.204-1.208,0.04-1.821,0.04
		c-0.648,0-1.296,0-1.944,0c-0.418-0.237-0.402-0.612-0.307-1.073c1.153-0.673,2.408-1.132,3.821-1.096c0-0.229,0-0.399,0-0.584
		c-0.557-0.354-1.144-0.673-1.384-1.344c-0.022-0.061-0.089-0.129-0.15-0.15c-0.845-0.291-0.838-0.989-0.819-1.695
		c0.251-0.284,0.477-0.43,0.903-0.209c0.289,0.149,0.494,0.366,0.746,0.539c0.88,0.603,1.776,1.173,2.561,1.918
		c0.94,0.891,2.005,1.625,3.183,2.203c0.476,0.233,0.95,0.504,1.401,0.814c0.461,0.316,1.106,0.361,1.458,0.891
		c1.172,0.253,2.059,1.099,3.154,1.512c0.093,0.035,0.211,0.004,0.333,0.004c0.159-0.307,0.045-0.632,0.091-0.982
		c-0.477-0.296-0.807-0.807-1.015-1.273c-0.278-0.624-0.918-0.717-1.252-1.189c-0.691-0.029-1.104-0.63-1.706-0.835
		c-0.588-0.2-0.929-0.767-1.553-0.953c-0.333-0.099-0.523-0.658-0.86-0.777c-0.486-0.172-0.678-0.691-1.183-0.803
		c-0.47-0.104-0.686-0.6-1.068-0.813c-0.611-0.342-1.188-0.704-1.643-1.241c-0.042-0.05-0.066-0.116-0.098-0.175
		c-0.073-0.487,0.335-0.645,0.568-0.9c0.597,0.101,0.915,0.54,1.314,0.848c0.825,0.284,1.599,0.721,2.318,1.164
		c0.719,0.442,1.639,0.53,2.197,1.236c0.856,0.177,1.636,0.569,2.381,0.879c0.346-0.055,0.453-0.311,0.636-0.469
		c0.236-0.204,0.405-0.527,0.803-0.41c0.581-0.47,1.356-0.632,1.893-1.166c-0.057-0.194,0.07-0.385-0.093-0.535
		c-0.08-0.073-0.147-0.21-0.23-0.219c-0.534-0.059-0.671-0.687-1.193-0.781c-0.823-0.148-1.293-0.865-1.95-1.212
		c0-0.437,0-0.796,0-1.157c0.203-0.108,0.408-0.218,0.614-0.329c0.729,0.315,0.98,0.302,1.574-0.123
		c-0.211-0.342-0.26-0.736-0.252-1.152c0.019-1.043,0.006-2.087,0.006-3.131c0.089-0.233,0.439-0.043,0.507-0.318
		c0.051,0.031,0.109,0.052,0.15,0.091c0.519,0.509,0.988,1.046,1.162,1.789c0.027,0.117,0.159,0.231,0.123,0.377
		c-0.142,0.576,0.254,1.075,0.225,1.639c-0.029,0.539-0.006,1.08-0.007,1.62c0,0.108-0.001,0.213,0.14,0.305
		c0.136-0.611,0.307-1.201,0.889-1.529c0.477,0.013,0.4,0.522,0.702,0.749c0,0.717,0,1.463,0,2.187
		c0.178,0.117,0.24,0.31,0.461,0.308c0.448-0.004,0.788,0.237,1.059,0.558c0.168,0.2,0.392,0.268,0.603,0.38
		c0.771,0.41,0.861,0.574,0.905,1.548c0.927,0.142,0.927,0.142,1.51-0.124c0.289,0.066,0.397,0.374,0.635,0.533
		c0,0.212,0,0.426,0,0.687c-0.325,0.195-0.577,0.518-0.925,0.767c-0.816,0.584-1.485,1.352-1.442,2.446
		c0.151,0.18,0.306,0.084,0.518,0.136c0.243-0.243,0.521-0.513,0.79-0.792c0.533-0.551,1.207-0.926,1.782-1.412
		c0.696-0.589,1.495-1.072,2.071-1.797c0.509-0.64,0.734-1.375,0.635-2.174c-0.149-0.458-0.506-0.676-0.868-0.949
		c-0.766-0.578-1.62-1.02-2.369-1.629c-0.29-0.235-0.775-0.259-1.022-0.688c0-0.193,0-0.436,0-0.734c0.304,0,0.584,0,0.865,0
		c0.444,0,0.826,0.017,1.087,0.523c0.117,0.226,0.541,0.399,0.931,0.338c0.373,0.333,0.675,0.795,1.243,0.867
		c0.333,0.144,0.426-0.4,0.711-0.213c0.129-0.232,0.315-0.412,0.307-0.582c-0.039-0.777,0.086-1.532,0.323-2.419
		c0.123-0.103,0.369-0.308,0.549-0.458c0.027-0.42-0.014-0.71,0.198-1.013c0.135-0.192,0.025-0.554,0.056-0.822
		c0.156-0.505,0.57-0.795,0.918-1.169c0.227,0,0.468,0,0.703,0c0.03,0.081,0.068,0.142,0.073,0.206
		c0.01,0.144,0.058,0.319-0.005,0.427c-0.521,0.897-0.436,1.878-0.416,2.816c-0.218,0.415-0.421,0.801-0.653,1.244
		c0,0.287,0,0.646,0,1.063c0.444,0,0.897,0,1.292,0c0.676,0.5,0.973,1.085,0.838,1.937c-0.079,0.058-0.224,0.162-0.369,0.268
		c-0.063,0.679-0.24,1.254-0.608,1.832C42.566,17.383,42.346,18.195,42.226,19c-0.664,1.256-1.519,2.386-2.561,3.358
		c0.045,0.184-0.077,0.377,0.084,0.513c0.323,0,0.635,0,0.958,0c0.313-0.556,1-0.653,1.333-1.185
		C42.122,20.808,41.855,19.881,42.226,19z M36.864,37.181c0-0.566-0.011-1.029,0.003-1.491c0.016-0.51,0.55-0.754,0.66-1.235
		c0.033-0.147,0.309-0.237,0.351-0.388c0.086-0.313,0.43-0.566,0.23-0.983c-0.291,0-0.605,0-1.021,0
		c-0.506,1.025-1.858,1.171-2.467,2.102c-0.369,0-0.65,0-1.06,0c-0.448-0.449-0.95-0.952-1.531-1.533
		c-0.264,0.137-0.626,0.285-1.019,0.331c0.073,0.393,0.319,0.459,0.557,0.611c0.413,0.265,0.667,0.838,1.095,1.005
		c0.659,0.257,1.098,0.714,1.552,1.182c0.185,0.191,0.382,0.141,0.678,0.16c0.163-0.2,0.365-0.448,0.523-0.643
		C36.174,36.203,36.317,36.892,36.864,37.181z M29.452,18.052c-0.532,0.531-1.184,1.184-1.876,1.876c0,0.025,0,0.132,0,0.265
		c0.288,0.092,0.53,0.274,0.725,0.514c0.312,0.383,0.732,0.63,1.127,0.908c0.417,0.294,0.423,0.293,0.957-0.131
		c0-0.429,0-0.858,0-1.288s-0.146-0.934,0.03-1.271c0.355-0.684,0.18-1.245-0.117-1.84C29.625,17.146,29.625,17.146,29.452,18.052z
		 M50.273,55.944c0.523,0,0.953,0,1.361,0c0.65-0.502,1.515-0.606,2.185-1.297c-0.412-0.396-0.253-0.938-0.343-1.439
		c-0.064-0.358-0.196-0.708-0.252-1.078c-0.018-0.117-0.184-0.306-0.515-0.285c-0.776,1.102-1.545,2.301-2.437,3.385
		C50.273,55.45,50.273,55.66,50.273,55.944z M19.042,55.693c-0.425-0.629-0.257-1.347-0.778-1.842
		c-0.502-0.478-0.79-1.152-1.39-1.555c-0.378,0.232-0.453,0.651-0.251,0.975c0.25,0.4,0.036,0.898,0.369,1.244
		c-0.115,0.843,0.432,1.343,0.962,1.851c0.396,0.379,0.849,0.538,1.267,0.427c0.376-0.221,0.391-0.461,0.36-0.723
		C19.443,55.869,19.271,55.711,19.042,55.693z M32.364,30.59c-0.538-0.862-2.378-2.661-3.022-2.931
		c-0.124-0.052-0.345-0.091-0.44,0.076c0.433,0.761,0.422,1.738,1.207,2.314C30.938,29.78,31.469,30.875,32.364,30.59z
		 M35.581,29.48c-0.07,0.364,0.062,0.587,0.324,0.747c0.623-0.472,1.326-0.845,1.863-1.437c-0.18-0.532,0.255-1.166-0.384-1.555
		c-0.247,0.247-0.605,0.44-0.679,0.712C36.516,28.636,35.976,29.026,35.581,29.48z M55.693,52.075c0,0.624,0,1.151,0,1.701
		c0.748,0.056,1.158-0.354,1.474-0.802c-0.298-0.353-0.546-0.646-0.761-0.899C56.144,52.075,55.935,52.075,55.693,52.075z
		 M41.811,14.994c-0.433-0.22-0.628-0.014-0.835,0.229c0.01,0.315-0.071,0.656,0.072,1.019c0.207-0.306,0.622-0.237,0.763-0.571
		C41.811,15.444,41.811,15.208,41.811,14.994z"/>
	<path style="fill-rule:evenodd;clip-rule:evenodd;fill:none;" d="M36.864,37.181c-0.547-0.289-0.689-0.979-1.449-0.882
		c-0.159,0.195-0.36,0.443-0.523,0.643c-0.296-0.02-0.493,0.031-0.678-0.16c-0.454-0.468-0.893-0.925-1.552-1.182
		c-0.428-0.167-0.682-0.74-1.095-1.005c-0.237-0.152-0.483-0.218-0.557-0.611c0.392-0.046,0.754-0.194,1.019-0.331
		c0.581,0.582,1.083,1.084,1.531,1.533c0.41,0,0.691,0,1.06,0c0.609-0.93,1.961-1.076,2.467-2.102c0.416,0,0.73,0,1.021,0
		c0.199,0.417-0.145,0.67-0.23,0.983c-0.042,0.15-0.317,0.24-0.351,0.388c-0.109,0.48-0.644,0.725-0.66,1.235
		C36.853,36.152,36.864,36.615,36.864,37.181z"/>
	<path style="fill-rule:evenodd;clip-rule:evenodd;fill:none;" d="M29.452,18.052c0.172-0.906,0.172-0.906,0.846-0.966
		c0.296,0.595,0.472,1.156,0.117,1.84c-0.176,0.338-0.03,0.842-0.03,1.271s0,0.858,0,1.288c-0.533,0.424-0.539,0.425-0.957,0.131
		c-0.395-0.278-0.815-0.525-1.127-0.908c-0.194-0.24-0.437-0.422-0.725-0.514c0-0.133,0-0.24,0-0.265
		C28.269,19.236,28.92,18.583,29.452,18.052z"/>
	<path style="fill-rule:evenodd;clip-rule:evenodd;fill:none;" d="M50.273,55.944c0-0.284,0-0.494,0-0.715
		c0.892-1.084,1.66-2.283,2.437-3.385c0.331-0.021,0.497,0.168,0.515,0.285c0.056,0.37,0.188,0.72,0.252,1.078
		c0.09,0.502-0.069,1.044,0.343,1.439c-0.67,0.69-1.534,0.795-2.185,1.297C51.226,55.944,50.796,55.944,50.273,55.944z"/>
	<path style="fill-rule:evenodd;clip-rule:evenodd;fill:none;" d="M19.042,55.693c0.229,0.019,0.401,0.176,0.539,0.377
		c0.031,0.262,0.016,0.502-0.36,0.723c-0.418,0.111-0.871-0.048-1.267-0.427c-0.53-0.508-1.077-1.008-0.962-1.851
		c-0.333-0.346-0.12-0.844-0.369-1.244c-0.202-0.323-0.126-0.742,0.251-0.975c0.6,0.402,0.888,1.077,1.39,1.555
		C18.785,54.346,18.617,55.064,19.042,55.693z"/>
	<path style="fill-rule:evenodd;clip-rule:evenodd;fill:none;" d="M32.364,30.59c-0.895,0.285-1.426-0.81-2.256-0.541
		c-0.785-0.576-0.774-1.553-1.207-2.314c0.096-0.167,0.316-0.127,0.44-0.076C29.985,27.929,31.826,29.728,32.364,30.59z"/>
	<path style="fill-rule:evenodd;clip-rule:evenodd;fill:none;" d="M42.227,18.962c-0.372,0.919-0.105,1.846-0.187,2.724
		c-0.333,0.532-1.021,0.629-1.333,1.185c-0.323,0-0.635,0-0.958,0c-0.161-0.136-0.039-0.329-0.084-0.513
		C40.708,21.386,41.562,20.255,42.227,18.962z"/>
	<path style="fill-rule:evenodd;clip-rule:evenodd;fill:none;" d="M35.581,29.48c0.396-0.454,0.935-0.844,1.125-1.533
		c0.074-0.271,0.432-0.465,0.679-0.712c0.639,0.389,0.204,1.023,0.384,1.555c-0.537,0.591-1.24,0.964-1.863,1.437
		C35.643,30.067,35.51,29.844,35.581,29.48z"/>
	<path style="fill-rule:evenodd;clip-rule:evenodd;fill:none;" d="M55.693,52.075c0.242,0,0.451,0,0.713,0
		c0.215,0.254,0.463,0.547,0.761,0.899c-0.315,0.448-0.726,0.857-1.474,0.802C55.693,53.226,55.693,52.699,55.693,52.075z"/>
	<path style="fill-rule:evenodd;clip-rule:evenodd;fill:none;" d="M41.811,14.994c0,0.214,0,0.451,0,0.676
		c-0.141,0.334-0.556,0.265-0.763,0.571c-0.144-0.362-0.063-0.704-0.072-1.019C41.183,14.98,41.378,14.774,41.811,14.994z"/>
</g>
</svg>
