<svg xmlns="http://www.w3.org/2000/svg" xml:space="preserve" width="72px" height="72px" viewBox="0 0 72 72">
    <path fill="currentColor" d="M42.226 19c.25-.088.512-.145.658-.306.481-.531 1.031-.907 1.759-.982.547-.651 1.464-.693 2.079-1.266.194-.18.694-.028 1.071-.028.17.295.048.622.098.98-.462.261-.626.942-1.298.957-.178.004-.22.169-.345.216-.092.034-.213-.026-.288.088-.421.64-1.294.678-1.726 1.309v2.398c.203.333.605.264.733.544.623-.14 1.011-.701 1.631-.658.564.039 1.052-.396 1.476-.247.67-.191.996-.618 1.357-.996.209-.219.381-.499.381-.807s.112-.508.294-.753c.293-.397.475-.877.734-1.383.818-.231 1.397-.945 2.191-1.348.505-.257 1.034-.482 1.52-.762.551-.318 1.188-.532 1.626-1.037.243-.012.489-.07.749.05v1.06c-.084.064-.31.238-.538.407-.826.612-1.604 1.313-2.496 1.805-.724.399-1.304.913-1.896 1.516l-.022.436-.639.53c.028 1.221-.528 2.091-1.242 2.829-.322.333-.868.522-1.346.619-.856.173-1.567.588-2.29 1.106-.716-.107-1.387.164-2.004.524a2.3 2.3 0 0 1-1.269.339c-.658-.015-1.33-.087-1.938.29-.463.337-.521.921-.683 1.413-.199.604.113 1.23.421 1.745.456.763 1.033 1.454 1.562 2.179.644-.533 1.075-1.263 1.872-1.525.146-.032.191.09.27.155.055.046.103.101.205.203-.643 1.01-.808 2.151-.645 3.456.529.406.829 1.118 1.288 1.759h1.195c.793-.677 1.783-.692 2.798-.574.21.164.361.351.263.746-.56.737-1.689.872-2.326 1.706.437.459.873.843 1.575 1.013.623.149 1.159.662 1.731 1.017.116.071.217.169.325.249.922.673 1.773.337 2.661-.152.34-.433.398-1.025.661-1.553.329-.019.694-.189.981.32v1.733c-.244.244-.521.527-.806.804-.296.289-.549.588-1.039.64-.354.037-.666.35-.93.716.042 1.174-.144 2.414.328 3.731.451.343.811.979 1.387 1.427.563.438 1.03 1.003 1.539 1.512.534.535 1.06 1.079 1.607 1.6.273.26.541.512.882.72.594.362.875.985.681 1.835-.45.415-.875 1.068-1.583 1.327-.7.257-.913 1.21-1.862 1.084.225.769-.347 1.355-.135 2.061-.452.285-.678.774-1.211 1.007-.515.225-1.066.254-1.547.44-.77.299-1.56.109-2.335.346-.726.22-1.569.048-2.361.045-.102 0-.203-.02-.328-.032v-.544c.718-.622 1.557-.924 2.521-.943.477-.01.92-.321 1.423-.207.381-.42.88-.121 1.363-.25.349-.224.331-.596.247-.989-.253-.102-.497-.053-.673-.043-1.02.775-2.071.787-3.171.44-.182-.052-.23.193-.345.184-.518-.046-.751.272-.962.663-.325.603-.839.887-1.525.861-.173-.007-.219-.167-.354-.252-.229-.751.059-1.341.619-1.833.796-.697 1.44-1.523 1.968-2.428.215-.369.386-.775.593-1.156.354-.652.674-1.332 1.186-1.882.188-.202.034-.396.135-.568-.305-.131-.49-.086-.734.056-.837.486-1.71.909-2.563 1.369-.275.148-.502.354-.623.667-.097.248-.245.476-.47.902 0 .472.051 1.151-.031 1.814-.025.199-.152.536-.444.687-.336.063-.682.102-.965-.274v-3.292c.948-1.603 2.591-2.441 3.958-3.447.881-.264 1.533-.717 2.099-1.313-.216-.378-.36-.713-.628-1-.98-1.051-1.383-2.329-1.354-3.755.295-.38-.126-.725.016-1.071-.551-.338-1.038-.641-1.53-.936-.142-.085-.304-.216-.448-.205-.45.035-.765-.242-1.14-.391-.432-.169-.803-.463-1.307-.522-.275-.032-.605-.281-.844-.558-.351-.409-.772-.756-1.13-1.159-.173-.195-.361-.191-.578-.19-.486.418-.229 1.048-.42 1.515-.217.533-.104 1.036-.189 1.504.133.504.485.797.8 1.12.533.548.652 1.186.405 1.906-.141.408-.129.413.012 1.102.436-.046.563-.517.879-.669.385.003.435.389.667.468.225.83.022 1.576-.395 2.213-.393.598-.391 1.283-.595 1.915-.132.405-.267.829-.377 1.251-.129.493-.282.968-.333 1.49-.058.587-.294 1.165-.52 1.721-.086.213-.15.408-.059.587.256.496.434 1.002.39 1.568.477.465-.056 1.193.432 1.656-.02.563.323 1.021.449 1.545.128.526.366 1.045 1 1.185.088.358.426.652.187 1.24-.297.348-.892.724-.995 1.358.078.787.751 1.116 1.027 1.707.411.88 1.424 1.2 1.982 2.07v.844c-.072.029-.133.068-.196.077-.602.083-1.148-.169-1.706-.313-.799-.207-1.238-.173-2.096.32-.43-.052-.909.091-1.376-.206-.286-.182-.592.145-.86.238a2.9 2.9 0 0 1-1.212.163c-.449-.438-1.043-.602-1.596-.847-.593.211-1.076.743-1.781.646-.617-.086-1.224.02-1.87-.158-.618-.169-1.374-.196-2.074.116-.381.17-.892.204-1.296.208-.536.004-1.185-.163-1.431-.798h-1.172c-.207-.423-.762-.431-1.059-.88-.437 0-.934.059-1.399-.325-.09-.156.001-.408-.018-.642.513-.583 1.188-1.019 1.539-1.885.036-.143-.34-.245-.256-.544.109-.39-.133-.763-.28-1.064-.701-1.445-.781-1.574-.811-2.499-.305-.616-.717-1.138-.212-1.772-.07-.6.085-1.178.248-1.735.128-.438.277-.854.181-1.229.495-.751.564-1.421.297-2.221-.131-.394-.284-.836-.287-1.291-.004-.441-.241-.847-.6-1.029-.61-.309-1.104-.779-1.699-1.104-.149-.081-.312-.124-.452-.203-.07-.498-.646-.833-.412-1.479.824.118 1.441.646 2.152.997.701.347 1.354.742 1.992 1.179l.537-.537v-1.296c-.43-.7-.43-.7-.43-1.869.193-.454.647-.596 1.018-.827.412-.257.423-.238.484-.776-.311-.119-.574-.387-.963-.307l-.754-.793v-1.108c.165-.528.471-.813.674-1.108a.36.36 0 0 0-.556-.21c-.542.649-1.385.689-2.07 1.033-.756.38-1.246 1.013-1.839 1.55-.046.043-.095.117-.093.175.033.834-.72 1.214-1.075 1.82-.594 1.014-1.518 1.771-2.35 2.592-.421.417-.937.721-1.37 1.137-.683.657-.712.619-.409 1.49.044.127.006.282.006.415.69.662 1.162 1.479 1.712 2.229.136.186.266.401.433.565.229.226.428.525.434.786.019.809.479 1.395.888 2.115-.039.515.007 1.097.478 1.506.604.287 1.1-.146 1.649-.179.549-.032.998.239 1.524.306v.685c-.181.478-.756.455-1.139.72-.075.052-.227.073-.302.032-.666-.356-1.381-.172-2.074-.2a1.2 1.2 0 0 1-.731-.311c-.568-.512-1.217-.588-1.901-.556-.321.4.135.653.133.983.108.149.317.067.452.219.638.719 1.477.959 2.41.953.72-.006 1.44-.002 2.16-.002.542.608.498.87-.19 1.079-.442.134-.869.43-1.346.017-.121-.104-.409-.016-.592-.016-.148.194-.404.282-.264.639 1.279-.15 2.341.33 3.127 1.389-.345.345-.345.345-1.139.334a1.32 1.32 0 0 0-1.231-.409c-1.251.228-2.12-.46-2.961-1.2-.485-.427-.921-.91-1.265-1.254-2.264-.832-3.657-2.465-5.015-4.164.032-1.237.146-2.503-.681-3.555.347-.986.723-1.903.697-2.881.374-.618.738-1.212 1.438-1.473.062-.023.108-.095.154-.149.752-.908 1.762-1.531 2.597-2.354.802-.789 1.363-1.709 1.855-2.695.216-.434.455-.859.888-1.104-.188-.403.241-.61.188-.935.079-.245-.161-.468-.237-.535-.694-.614-.841-1.451-1.072-2.272-.125-.443-.386-.85-.634-1.374v-1.169c.282-.249.469-.667.969-.538.109.306.283.58.354.926.084.408.08.903.483 1.197.18.131.095.323.144.482.27.89.337.972 1.306 1.772 1.215-.513 2.255-1.395 3.409-2.081 1.236-.735 2.012-1.892 2.812-3.03.132-.983-.104-1.908-.395-2.836-.201-.644-.388-1.291-.473-1.974-.045-.362-.121-.794-.443-1.109a1.26 1.26 0 0 1-.389-.805c-.061-.899-.635-1.43-1.35-1.829-.808-.451-1.546-.986-2.277-1.552-.634-.491-1.372-.847-2.064-1.262-.202-.121-.439-.204-.602-.364-.554-.545-1.294-.632-1.977-.684-.677-.051-1.369-.128-2.083.144-.535.204-1.208.04-1.821.04h-1.944c-.418-.237-.402-.612-.307-1.073 1.153-.673 2.408-1.132 3.821-1.096v-.584c-.557-.354-1.144-.673-1.384-1.344a.28.28 0 0 0-.15-.15c-.845-.291-.838-.989-.819-1.695.251-.284.477-.43.903-.209.289.149.494.366.746.539.88.603 1.776 1.173 2.561 1.918a12.8 12.8 0 0 0 3.183 2.203c.476.233.95.504 1.401.814.461.316 1.106.361 1.458.891 1.172.253 2.059 1.099 3.154 1.512.093.035.211.004.333.004.159-.307.045-.632.091-.982-.477-.296-.807-.807-1.015-1.273-.278-.624-.918-.717-1.252-1.189-.691-.029-1.104-.63-1.706-.835-.588-.2-.929-.767-1.553-.953-.333-.099-.523-.658-.86-.777-.486-.172-.678-.691-1.183-.803-.47-.104-.686-.6-1.068-.813-.611-.342-1.188-.704-1.643-1.241-.042-.05-.066-.116-.098-.175-.073-.487.335-.645.568-.9.597.101.915.54 1.314.848.825.284 1.599.721 2.318 1.164s1.639.53 2.197 1.236c.856.177 1.636.569 2.381.879.346-.055.453-.311.636-.469.236-.204.405-.527.803-.41.581-.47 1.356-.632 1.893-1.166-.057-.194.07-.385-.093-.535-.08-.073-.147-.21-.23-.219-.534-.059-.671-.687-1.193-.781-.823-.148-1.293-.865-1.95-1.212v-1.157l.614-.329c.729.315.98.302 1.574-.123-.211-.342-.26-.736-.252-1.152.019-1.043.006-2.087.006-3.131.089-.233.439-.043.507-.318.051.031.109.052.15.091.519.509.988 1.046 1.162 1.789.027.117.159.231.123.377-.142.576.254 1.075.225 1.639-.029.539-.006 1.08-.007 1.62 0 .108-.001.213.14.305.136-.611.307-1.201.889-1.529.477.013.4.522.702.749v2.187c.178.117.24.31.461.308.448-.004.788.237 1.059.558.168.2.392.268.603.38.771.41.861.574.905 1.548.927.142.927.142 1.51-.124.289.066.397.374.635.533v.687c-.325.195-.577.518-.925.767-.816.584-1.485 1.352-1.442 2.446.151.18.306.084.518.136.243-.243.521-.513.79-.792.533-.551 1.207-.926 1.782-1.412.696-.589 1.495-1.072 2.071-1.797.509-.64.734-1.375.635-2.174-.149-.458-.506-.676-.868-.949-.766-.578-1.62-1.02-2.369-1.629-.29-.235-.775-.259-1.022-.688v-.734h.865c.444 0 .826.017 1.087.523.117.226.541.399.931.338.373.333.675.795 1.243.867.333.144.426-.4.711-.213.129-.232.315-.412.307-.582-.039-.777.086-1.532.323-2.419l.549-.458c.027-.42-.014-.71.198-1.013.135-.192.025-.554.056-.822.156-.505.57-.795.918-1.169h.703c.03.081.068.142.073.206.01.144.058.319-.005.427-.521.897-.436 1.878-.416 2.816l-.653 1.244v1.063h1.292c.676.5.973 1.085.838 1.937l-.369.268c-.063.679-.24 1.254-.608 1.832-.423.65-.643 1.462-.763 2.267a12.7 12.7 0 0 1-2.561 3.358c.045.184-.077.377.084.513h.958c.313-.556 1-.653 1.333-1.185.082-.878-.185-1.805.186-2.686m-5.362 18.181c0-.566-.011-1.029.003-1.491.016-.51.55-.754.66-1.235.033-.147.309-.237.351-.388.086-.313.43-.566.23-.983h-1.021c-.506 1.025-1.858 1.171-2.467 2.102h-1.06l-1.531-1.533a3 3 0 0 1-1.019.331c.073.393.319.459.557.611.413.265.667.838 1.095 1.005.659.257 1.098.714 1.552 1.182.185.191.382.141.678.16l.523-.643c.759-.096.902.593 1.449.882m-7.412-19.129-1.876 1.876v.265c.288.092.53.274.725.514.312.383.732.63 1.127.908.417.294.423.293.957-.131v-1.288c0-.43-.146-.934.03-1.271.355-.684.18-1.245-.117-1.84-.673.061-.673.061-.846.967m20.821 37.892h1.361c.65-.502 1.515-.606 2.185-1.297-.412-.396-.253-.938-.343-1.439-.064-.358-.196-.708-.252-1.078-.018-.117-.184-.306-.515-.285-.776 1.102-1.545 2.301-2.437 3.385zm-31.231-.251c-.425-.629-.257-1.347-.778-1.842-.502-.478-.79-1.152-1.39-1.555-.378.232-.453.651-.251.975.25.4.036.898.369 1.244-.115.843.432 1.343.962 1.851.396.379.849.538 1.267.427.376-.221.391-.461.36-.723-.138-.201-.31-.359-.539-.377M32.364 30.59c-.538-.862-2.378-2.661-3.022-2.931-.124-.052-.345-.091-.44.076.433.761.422 1.738 1.207 2.314.829-.269 1.36.826 2.255.541m3.217-1.11c-.07.364.062.587.324.747.623-.472 1.326-.845 1.863-1.437-.18-.532.255-1.166-.384-1.555-.247.247-.605.44-.679.712-.189.689-.729 1.079-1.124 1.533m20.112 22.595v1.701c.748.056 1.158-.354 1.474-.802l-.761-.899zM41.811 14.994c-.433-.22-.628-.014-.835.229.01.315-.071.656.072 1.019.207-.306.622-.237.763-.571z"/>
</svg>
