<?xml version="1.0" encoding="iso-8859-1"?>
<!-- Generator: Adobe Illustrator 16.0.0, SVG Export Plug-In . SVG Version: 6.00 Build 0)  -->
<!DOCTYPE svg PUBLIC "-//W3C//DTD SVG 1.1//EN" "http://www.w3.org/Graphics/SVG/1.1/DTD/svg11.dtd">
<svg version="1.1" id="Layer_1" xmlns="http://www.w3.org/2000/svg" xmlns:xlink="http://www.w3.org/1999/xlink" x="0px" y="0px"
	 width="72.36px" height="71.459px" viewBox="0 0 72.36 71.459" style="enable-background:new 0 0 72.36 71.459;"
	 xml:space="preserve">
<g>
	<path style="fill-rule:evenodd;clip-rule:evenodd;fill:none;" d="M79.416,78.839c-28.8,0-57.6,0-86.399,0
		c0-28.584,0-57.167,0-85.751c28.8,0,57.6,0,86.399,0C79.416,21.672,79.416,50.255,79.416,78.839z M56.872,45.114
		c0.37-0.295,0.373-0.647,0.202-1.037c-0.246-0.562-0.657-0.943-1.206-1.214c-0.654-0.322-1.161-1.115-1.293-1.934
		c-0.277-0.272-0.56-0.55-0.839-0.825c0-0.322,0-0.636,0-0.934c0.163-0.112,0.227-0.326,0.515-0.282
		c0.073,0.096,0.181,0.232,0.331,0.427c0,0.335,0,0.766,0,1.19c0.311,0.311,0.616,0.616,0.924,0.924c0.531,0,0.915,0.395,1.4,0.533
		c0.06,0.562,0.555,0.646,0.944,0.792c0.387,0.145,0.711-0.155,1.045-0.311c0-0.291,0-0.578-0.001-0.866
		c-0.382-0.382-0.701-0.906-1.162-1.108c-0.551-0.241-0.577-0.693-0.857-1.106c0.669-0.548-0.001-1.15,0.092-1.779
		c0.179,0,0.335-0.044,0.449,0.007c0.854,0.384,1.594,1.005,1.871,1.854c0.307,0.935,0.817,1.63,1.514,2.308
		c0.984-0.565,1.582-1.306,1.553-2.458c-0.044-1.696,0.157-3.404-0.308-5.065c-0.089-0.531-0.608-0.888-0.571-1.4
		c-0.679-1.129-1.625-1.937-2.472-2.809c-0.69,0.081-1.047-0.494-1.565-0.725c-0.511-0.228-1.064-0.302-1.632-0.464
		c0.64-0.729,1.091-0.614,2.2-0.317c0.421-0.206,0.891-0.354,1.077-0.763c0-0.431,0-0.784,0-1.133
		c-0.977-0.737-2.268-1.075-2.74-2.358c0.157-0.429,0.255-2.379,0.031-2.506c-0.132-0.216-0.263-0.432-0.356-0.585
		c-0.28,0-0.46,0-0.64,0c-0.264,0.089-0.327,0.493-0.572,0.452c-0.491-0.247-0.657-0.641-0.877-1.059c0-0.367,0-0.798,0-1.157
		c0.203-0.389,0.355-0.74,0.656-0.942c0.07-1.439-0.849-2.065-1.961-2.578c-0.01-0.741,0.457-1.467,0.225-2.061
		c-0.584-0.917-1.309-1.079-2.178-1.108c-0.713-0.023-1.351,0.41-2.108,0.207c-0.48-0.921-1.233-1.583-2.269-1.91
		c-0.093-0.029-0.16-0.134-0.24-0.201c-0.086-0.073-0.136-0.159-0.099-0.381c0.067-0.052,0.206-0.157,0.357-0.272
		c0.521-0.054,1.103,0.145,1.62-0.265c0.152,0.179,0.313,0.288,0.549,0.265c0.631-0.061,1.246,0.013,1.794,0.353
		c0.143,0.089,0.269,0.068,0.402,0.072c0.484,0.014,0.976-0.056,1.427,0.212c0.071,0.042,0.215,0.044,0.299-0.099
		c0-0.188,0-0.4,0-0.631C52.165,9.73,51.814,9.59,51.411,9.43c-0.737-0.293-1.401-0.756-2.154-1.055
		c-1.101-0.437-1.583-0.551-2.883-0.165c-0.556,0.166-1.115,0.402-1.642-0.033c-0.157-0.13-0.236-0.354-0.251-0.377
		c-0.516,0-0.797,0-1.02,0c-0.467,0.324-0.645,0.772-0.829,1.239c-0.509,0.224-1.094,0.306-1.502,0.802
		c-0.155,0.189-0.493,0.301-0.828,0.326c-0.782,0.058-1.5-0.345-2.276-0.258c-0.734-0.476-1.64-0.354-2.431-0.702
		c-0.341-0.341-0.693-0.701-1.054-1.053c-0.706-0.688-0.839-0.707-1.732-0.253c-0.367,0.286-0.142,0.801-0.48,1.098
		c0.074,0.942-0.479,1.449-1.252,1.801c-0.828,0-1.656,0-2.484,0c-0.848,0.587-1.686,0.027-2.482-0.12
		c-0.596-0.11-1.233-0.171-1.788-0.358c-0.645-0.218-1.242-0.079-1.826-0.179c-0.86,1.241-0.689,2.034,0.543,2.714
		c0.093,1.207-0.603,2.119-1.091,3.098c-0.329,0.011-0.602,0.114-0.86-0.083c-0.248-0.188-0.528-0.099-0.702,0.044
		c-0.217,0.13-0.433,0.261-0.564,0.34c0,0.397,0,0.679,0,0.889c0.442,0.58,0.776,1.158,1.377,1.605
		c-0.726,0.735-1.005,1.59-0.979,2.434c-0.543,0.82-1.03,1.557-1.533,2.317c0.142,0.565-0.1,1.158,0.232,1.743
		c0.393,0.691,0.644,1.46,0.993,2.177c0.136,0.279,0.093,0.534,0.069,0.843c-0.887,0.176-1.613,0.78-2.51,0.955
		c-0.585,0.585-1.163,1.179-1.759,1.754c-0.551,0.532-0.859,1.24-1.273,1.859c-0.276,0.413-0.437,0.96-0.675,1.439
		c-0.146,0.295-0.263,0.613-0.246,0.985c0.022,0.475-0.023,0.942-0.155,1.433c-0.194,0.722,0.024,1.495,0.457,2.21
		c1.177-0.096,2.066-0.681,2.814-1.505c0.4,0,0.786,0,1.301,0c0.168,0.893,1.095,1.248,1.5,2.051
		c0.15,0.298,0.488,0.554,0.849,0.757c0.534,0.302,1.058,0.669,1.472,1.16c0.256,0.305,0.419,0.614,0.422,1.017
		c0.005,0.768,0.107,1.532,0.162,2.29c0.076,1.044,0.344,2.038,0.514,3.052c0.083,0.497,0.308,1.004,0.633,1.464
		c0.597,0.845,1.288,1.657,1.451,2.56c-0.275,1.045-0.258,1.967-0.088,2.852c0.193,1.003,0.079,1.86-0.633,2.644
		c-0.371,0.408-0.597,0.843-0.53,1.375c-0.81,1.126-1.607,2.234-2.401,3.338c0.245,0.444,0.411,0.873,0.878,1.137
		c0.331,0.187,0.754,0.104,1.02,0.413c0.506-0.2,0.685,0.371,1.109,0.469c0.9,0.206,1.861,0.36,2.556,1.069
		c0.784-0.169,1.432,0.209,2.116,0.409c0.128,0.038,0.163,0.226,0.343,0.216c0.772-0.042,1.501,0.329,2.288,0.223
		c0.389-0.054,0.843-0.128,1.173,0.021c0.415,0.186,0.82,0.238,1.216,0.168c0.457-0.081,0.786,0.27,1.209,0.235
		c1.444-0.116,2.912,0.247,4.338-0.218c1.03,0.157,2.016-0.323,3.042-0.215c0.565,0.06,1.079-0.176,1.602-0.311
		c0.783-0.204,1.503-0.615,2.361-0.575c0.306,0.015,0.678-0.144,0.922-0.343c0.396-0.323,0.843-0.407,1.31-0.506
		c0.424-0.091,0.873-0.146,1.206-0.473c0.104-0.104,0.22-0.137,0.359-0.18c1.504-0.466,2.935-1.121,4.257-1.959
		c0.643-0.406,1.443-0.735,1.667-1.646c-0.202-0.304-1.182-1.096-1.595-1.39c-0.693-0.493-1.478-0.85-2.109-1.437
		c-0.223-0.207-0.5-0.355-0.745-0.541c-0.273-0.207-0.546-0.429-0.804-0.639c-0.596-0.486-1.326-0.846-1.758-1.504
		c-0.477-0.725-1.039-1.374-1.58-2.037c-0.03-0.172-0.024-0.328-0.095-0.506c-0.626-1.567-0.599-1.569-0.358-3.139
		c0.035-0.23,0.234-0.329,0.239-0.556c0.027-1.168,0.421-2.272,0.673-3.396c0.132-0.589,0.183-1.245,0.528-1.764
		c0.309,0,0.525,0.238,0.499,0.368c-0.133,0.67,0.503,0.955,0.704,1.465c0,0.531,0,1.062,0,1.56c0.773,0.73,1.414,1.542,2.357,2.01
		c0.201-0.009,0.259-0.218,0.385-0.299c0-0.399,0-0.785,0-1.131c-0.583-0.708-0.614-0.782-0.615-1.523
		c-0.003-0.936,0.021-1.872-0.013-2.807c-0.013-0.332,0.106-0.534,0.348-0.716c0.426,0.462,0.806,0.999,1.252,1.4
		c0.496,0.445,1.061,0.866,1.603,1.282C55.708,45.001,56.216,45.246,56.872,45.114z"/>
	<path style="fill-rule:evenodd;clip-rule:evenodd;" d="M56.872,45.114c-0.655,0.132-1.164-0.112-1.697-0.522
		c-0.542-0.416-1.106-0.837-1.603-1.282c-0.446-0.401-0.826-0.938-1.252-1.4c-0.241,0.182-0.36,0.384-0.348,0.716
		c0.034,0.935,0.01,1.871,0.013,2.807c0.001,0.741,0.032,0.815,0.615,1.523c0,0.346,0,0.731,0,1.131
		c-0.126,0.081-0.184,0.29-0.385,0.299c-0.943-0.468-1.584-1.279-2.357-2.01c0-0.498,0-1.028,0-1.56
		c-0.201-0.51-0.837-0.795-0.704-1.465c0.026-0.13-0.19-0.368-0.499-0.368c-0.346,0.519-0.396,1.175-0.528,1.764
		c-0.252,1.124-0.646,2.229-0.673,3.396c-0.005,0.227-0.204,0.325-0.239,0.556c-0.24,1.569-0.268,1.571,0.358,3.139
		c0.07,0.178,0.064,0.334,0.095,0.506c0.541,0.663,1.104,1.313,1.58,2.037c0.432,0.658,1.162,1.018,1.758,1.504
		c0.258,0.21,0.53,0.432,0.804,0.639c0.245,0.186,0.522,0.334,0.745,0.541c0.632,0.587,1.416,0.943,2.109,1.437
		c0.413,0.294,1.393,1.086,1.595,1.39c-0.224,0.91-1.024,1.239-1.667,1.646c-1.322,0.838-2.753,1.493-4.257,1.959
		c-0.14,0.043-0.255,0.076-0.359,0.18c-0.333,0.327-0.782,0.382-1.206,0.473c-0.467,0.099-0.913,0.183-1.31,0.506
		c-0.244,0.199-0.616,0.357-0.922,0.343c-0.858-0.04-1.578,0.371-2.361,0.575c-0.522,0.135-1.036,0.37-1.602,0.311
		c-1.026-0.108-2.012,0.372-3.042,0.215c-1.427,0.465-2.895,0.102-4.338,0.218c-0.423,0.034-0.752-0.316-1.209-0.235
		c-0.396,0.07-0.801,0.018-1.216-0.168c-0.33-0.148-0.785-0.074-1.173-0.021c-0.786,0.106-1.516-0.265-2.288-0.223
		c-0.18,0.01-0.215-0.178-0.343-0.216c-0.684-0.2-1.333-0.578-2.116-0.409c-0.695-0.709-1.656-0.863-2.556-1.069
		c-0.424-0.098-0.603-0.669-1.109-0.469c-0.266-0.31-0.688-0.227-1.02-0.413c-0.467-0.264-0.633-0.692-0.878-1.137
		c0.794-1.104,1.591-2.212,2.401-3.338c-0.067-0.532,0.16-0.967,0.53-1.375c0.712-0.783,0.826-1.641,0.633-2.644
		c-0.17-0.885-0.187-1.807,0.088-2.852c-0.164-0.902-0.854-1.715-1.451-2.56c-0.325-0.46-0.55-0.967-0.633-1.464
		c-0.17-1.014-0.438-2.008-0.514-3.052c-0.055-0.758-0.157-1.522-0.162-2.29c-0.003-0.402-0.166-0.712-0.422-1.017
		c-0.414-0.491-0.938-0.858-1.472-1.16c-0.36-0.203-0.699-0.459-0.849-0.757c-0.405-0.803-1.331-1.158-1.5-2.051
		c-0.515,0-0.901,0-1.301,0c-0.748,0.824-1.638,1.409-2.814,1.505c-0.433-0.715-0.651-1.488-0.457-2.21
		c0.132-0.491,0.178-0.958,0.155-1.433c-0.018-0.372,0.099-0.689,0.246-0.985c0.238-0.479,0.398-1.026,0.675-1.439
		c0.415-0.62,0.722-1.327,1.273-1.859c0.596-0.575,1.173-1.168,1.759-1.754c0.897-0.175,1.624-0.779,2.51-0.955
		c0.023-0.309,0.066-0.563-0.069-0.843c-0.35-0.717-0.601-1.486-0.993-2.177c-0.332-0.585-0.09-1.178-0.232-1.743
		c0.503-0.76,0.99-1.497,1.533-2.317c-0.026-0.844,0.253-1.699,0.979-2.434c-0.601-0.447-0.935-1.025-1.377-1.605
		c0-0.21,0-0.492,0-0.889c0.131-0.079,0.347-0.209,0.564-0.34c0.174-0.144,0.454-0.233,0.702-0.044
		c0.258,0.197,0.531,0.093,0.86,0.083c0.489-0.979,1.185-1.891,1.092-3.098c-1.233-0.68-1.404-1.473-0.544-2.714
		c0.584,0.1,1.182-0.039,1.826,0.179c0.555,0.187,1.192,0.248,1.788,0.358c0.796,0.147,1.635,0.707,2.482,0.12
		c0.828,0,1.656,0,2.484,0c0.773-0.353,1.326-0.859,1.252-1.801c0.338-0.296,0.113-0.812,0.48-1.098
		c0.894-0.453,1.026-0.435,1.732,0.253c0.361,0.352,0.713,0.712,1.054,1.053c0.791,0.348,1.696,0.226,2.431,0.702
		c0.776-0.086,1.494,0.316,2.276,0.258c0.335-0.025,0.673-0.137,0.828-0.326c0.408-0.497,0.993-0.579,1.502-0.802
		c0.185-0.467,0.362-0.916,0.829-1.239c0.223,0,0.504,0,1.02,0c0.015,0.023,0.094,0.248,0.251,0.377
		c0.526,0.435,1.086,0.199,1.642,0.033c1.3-0.387,1.782-0.272,2.883,0.165c0.753,0.299,1.417,0.761,2.154,1.055
		c0.403,0.16,0.754,0.301,0.992,0.633c0,0.231,0,0.444,0,0.631c-0.084,0.144-0.228,0.141-0.299,0.099
		c-0.451-0.268-0.942-0.198-1.427-0.212c-0.134-0.004-0.26,0.017-0.402-0.072c-0.548-0.34-1.163-0.414-1.794-0.353
		c-0.235,0.023-0.396-0.086-0.549-0.265c-0.518,0.41-1.1,0.211-1.62,0.265c-0.151,0.115-0.29,0.22-0.357,0.272
		c-0.037,0.222,0.013,0.308,0.099,0.381c0.08,0.067,0.147,0.172,0.24,0.201c1.035,0.327,1.788,0.989,2.269,1.91
		c0.758,0.203,1.396-0.23,2.108-0.207c0.869,0.029,1.594,0.191,2.178,1.108c0.232,0.594-0.234,1.32-0.225,2.061
		c1.112,0.513,2.031,1.139,1.961,2.578c-0.301,0.202-0.453,0.553-0.656,0.942c0,0.359,0,0.791,0,1.157
		c0.22,0.417,0.386,0.812,0.877,1.059c0.245,0.042,0.309-0.363,0.572-0.452c0.18,0,0.359,0,0.64,0
		c0.094,0.154,0.225,0.37,0.356,0.585c0.224,0.127,0.126,2.078-0.031,2.506c0.473,1.283,1.764,1.622,2.74,2.358
		c0,0.349,0,0.702,0,1.133c-0.187,0.409-0.656,0.558-1.077,0.763c-1.109-0.297-1.561-0.413-2.2,0.317
		c0.567,0.163,1.121,0.237,1.632,0.464c0.519,0.23,0.875,0.806,1.565,0.725c0.847,0.873,1.793,1.68,2.472,2.809
		c-0.037,0.512,0.482,0.869,0.571,1.4c0.465,1.661,0.264,3.369,0.308,5.065c0.029,1.152-0.568,1.893-1.553,2.458
		c-0.696-0.678-1.207-1.373-1.514-2.308c-0.277-0.85-1.017-1.471-1.871-1.854c-0.114-0.051-0.271-0.007-0.449-0.007
		c-0.093,0.629,0.577,1.231-0.092,1.779c0.28,0.413,0.307,0.865,0.857,1.106c0.461,0.202,0.78,0.727,1.162,1.108
		c0.001,0.288,0.001,0.575,0.001,0.866c-0.334,0.155-0.658,0.455-1.045,0.311c-0.39-0.146-0.885-0.23-0.944-0.792
		c-0.485-0.139-0.869-0.533-1.4-0.533c-0.308-0.308-0.613-0.613-0.924-0.924c0-0.425,0-0.855,0-1.19
		c-0.15-0.194-0.258-0.331-0.331-0.427c-0.288-0.044-0.352,0.17-0.515,0.282c0,0.298,0,0.611,0,0.934
		c0.279,0.275,0.562,0.553,0.839,0.825c0.132,0.818,0.639,1.611,1.293,1.934c0.549,0.271,0.96,0.652,1.206,1.214
		C57.245,44.466,57.242,44.819,56.872,45.114z M41.801,29.755c0.054-0.88,1.153-1.202,1.106-2.23
		c-0.162-0.12-0.386-0.286-0.58-0.431c-0.102,0.275-0.49,0.012-0.701,0.215c-0.508,0.488-1.146,0.563-1.813,0.558
		c-1.256-0.009-2.514,0.039-3.767-0.02c-0.678-0.032-1.333,0.074-1.948,0.26c-0.729,0.22-1.47,0.55-1.855,1.473
		c0.695-0.064,1.269,0.105,1.917-0.143c0.474-0.182,1.103-0.2,1.646,0.065c0.711,0.346,1.46,0.538,2.259,0.527
		c0.166-0.002,0.329-0.036,0.509,0.07c0.649,0.382,1.368,0.413,2.078,0.294C41.114,30.381,41.277,29.872,41.801,29.755z
		 M25.082,29.808c0.068,0,0.436-0.115,0.625,0.021c0.709,0.506,1.147,0,1.712-0.345c-0.312-0.552,0.438-1.024,0.075-1.594
		c-0.25-0.295-0.711-0.306-0.868-0.646c-0.372-0.111-0.761,0.151-1.051-0.191c-0.794,0.038-1.373-0.508-2.055-0.771
		c-0.483-0.186-0.469-0.221-0.973,0.327C23.126,27.787,23.488,29.143,25.082,29.808z M39.522,51.666
		c-0.316,0.324-0.563,0.728-0.875,1.014c-0.669,0.613-1.45,1.104-2.281,1.502c-0.422,0.202-0.8,0.51-1.234,0.669
		c-0.637,0.233-1.154,0.641-1.711,1.041c0.582-0.037,1.125,0.106,1.732-0.13c0.743-0.29,1.428-0.725,2.219-0.905
		c0.587-0.135,1.005-0.682,1.638-0.734c0.497-0.565,0.987-1.135,1.141-1.938C39.941,52.011,39.749,51.852,39.522,51.666z
		 M32.657,34.313c0.34-0.23,0.809-0.353,0.967-0.807c0.007-0.233-0.207-0.287-0.311-0.453c-0.995-0.058-1.776,0.286-2.286,1.26
		C31.564,34.313,32.055,34.313,32.657,34.313z M31.914,40.199c-0.122,0.85,0.381,1.543,0.193,2.263
		c0.207,0.155,0.284,0.352,0.557,0.292c0.291-0.24,0.459-0.595,0.564-1.041c-0.35-0.437-0.259-1.098-0.773-1.514
		C32.314,40.199,32.146,40.199,31.914,40.199z M35.645,41.933c0.644-0.618,0.777-1.26,0.208-1.993
		c-0.261,0.157-0.339-0.361-0.63-0.176c-0.283,0.216-0.342,0.568-0.523,0.843C34.958,41.063,34.931,41.699,35.645,41.933z
		 M34.675,46.533c0.185,0.702,0.185,0.702,0.826,0.73c0.288-0.217,0.333-0.575,0.517-0.874c-0.166-0.322-0.422-0.445-0.639-0.239
		C35.126,46.288,34.874,46.424,34.675,46.533z M32.109,46.542c0.085,0.225-0.12,0.309-0.202,0.45
		c0.27,0.073,0.094,0.489,0.491,0.543c0.348-0.232,0.504-0.623,0.578-1.065c0.02-0.119-0.036-0.196-0.184-0.265
		C32.583,46.308,32.346,46.424,32.109,46.542z M29.557,48.41c0.168-0.047,0.287,0.022,0.377-0.132c0-0.346,0-0.727,0-1.102
		c-0.159-0.135-0.259-0.355-0.519-0.305C29.04,47.438,29.637,47.869,29.557,48.41z M27.036,46.845
		c-0.116,0.236-0.203,0.412-0.292,0.593c0.26,0.2,0.185,0.772,0.739,0.729c0.167-0.251,0.089-0.525,0.082-0.599
		C27.328,47.245,27.188,47.052,27.036,46.845z M24.999,33.952c-0.327-0.021-0.601-0.126-0.853,0.04
		c0.218,0.386,0.484,0.452,0.811,0.283C24.967,34.195,24.976,34.128,24.999,33.952z M28.007,42.444
		c-0.071-0.101-0.143-0.101-0.213,0C27.864,42.544,27.936,42.544,28.007,42.444z"/>
	<path style="fill-rule:evenodd;clip-rule:evenodd;fill:none;" d="M41.801,29.755c-0.524,0.117-0.688,0.626-1.149,0.639
		c-0.71,0.118-1.429,0.087-2.078-0.294c-0.18-0.105-0.343-0.072-0.509-0.07c-0.799,0.01-1.548-0.181-2.259-0.527
		c-0.543-0.265-1.172-0.247-1.646-0.065c-0.647,0.248-1.221,0.079-1.917,0.143c0.386-0.923,1.127-1.253,1.855-1.473
		c0.614-0.186,1.27-0.292,1.948-0.26c1.253,0.059,2.511,0.01,3.767,0.02c0.667,0.005,1.306-0.069,1.813-0.558
		c0.211-0.203,0.6,0.061,0.701-0.215c0.194,0.145,0.418,0.311,0.58,0.431C42.955,28.553,41.855,28.875,41.801,29.755z"/>
	<path style="fill-rule:evenodd;clip-rule:evenodd;fill:none;" d="M25.082,29.808c-1.594-0.665-1.956-2.021-2.535-3.201
		c0.504-0.547,0.49-0.513,0.973-0.327c0.682,0.263,1.261,0.809,2.055,0.771c0.29,0.342,0.679,0.081,1.051,0.191
		c0.157,0.341,0.618,0.352,0.868,0.647c0.363,0.569-0.386,1.042-0.075,1.594c-0.564,0.344-1.002,0.851-1.712,0.345
		C25.518,29.693,25.15,29.808,25.082,29.808z"/>
	<path style="fill-rule:evenodd;clip-rule:evenodd;fill:none;" d="M39.522,51.666c0.227,0.187,0.419,0.346,0.628,0.519
		c-0.153,0.803-0.644,1.372-1.141,1.938c-0.633,0.053-1.051,0.6-1.638,0.734c-0.792,0.181-1.476,0.615-2.219,0.905
		c-0.607,0.236-1.15,0.093-1.732,0.13c0.557-0.4,1.074-0.808,1.711-1.041c0.435-0.159,0.812-0.467,1.234-0.669
		c0.831-0.397,1.612-0.889,2.281-1.502C38.958,52.393,39.206,51.99,39.522,51.666z"/>
	<path style="fill-rule:evenodd;clip-rule:evenodd;fill:none;" d="M32.657,34.313c-0.602,0-1.093,0-1.63,0
		c0.51-0.974,1.292-1.317,2.286-1.26c0.104,0.166,0.317,0.219,0.311,0.453C33.466,33.959,32.998,34.082,32.657,34.313z"/>
	<path style="fill-rule:evenodd;clip-rule:evenodd;fill:none;" d="M31.914,40.199c0.232,0,0.401,0,0.54,0
		c0.514,0.416,0.424,1.077,0.773,1.514c-0.105,0.446-0.273,0.801-0.564,1.041c-0.273,0.06-0.35-0.137-0.557-0.292
		C32.295,41.742,31.792,41.048,31.914,40.199z"/>
	<path style="fill-rule:evenodd;clip-rule:evenodd;fill:none;" d="M35.645,41.933c-0.714-0.234-0.687-0.87-0.945-1.326
		c0.181-0.274,0.24-0.627,0.523-0.842c0.291-0.187,0.37,0.332,0.63,0.175C36.422,40.673,36.289,41.315,35.645,41.933z"/>
	<path style="fill-rule:evenodd;clip-rule:evenodd;fill:none;" d="M34.675,46.533c0.199-0.108,0.452-0.245,0.704-0.383
		c0.216-0.206,0.473-0.083,0.639,0.239c-0.184,0.299-0.229,0.657-0.517,0.874C34.86,47.235,34.86,47.235,34.675,46.533z"/>
	<path style="fill-rule:evenodd;clip-rule:evenodd;fill:none;" d="M32.109,46.542c0.237-0.117,0.474-0.233,0.684-0.337
		c0.147,0.068,0.203,0.146,0.184,0.265c-0.074,0.442-0.23,0.833-0.578,1.065c-0.397-0.054-0.221-0.47-0.49-0.543
		C31.989,46.85,32.194,46.766,32.109,46.542z"/>
	<path style="fill-rule:evenodd;clip-rule:evenodd;fill:none;" d="M29.557,48.41c0.08-0.541-0.518-0.972-0.141-1.538
		c0.259-0.051,0.359,0.17,0.518,0.305c0,0.375,0,0.756,0,1.102C29.844,48.432,29.725,48.363,29.557,48.41z"/>
	<path style="fill-rule:evenodd;clip-rule:evenodd;fill:none;" d="M27.036,46.845c0.151,0.207,0.292,0.399,0.528,0.723
		c0.007,0.073,0.085,0.348-0.082,0.599c-0.554,0.044-0.479-0.528-0.739-0.729C26.833,47.257,26.92,47.082,27.036,46.845z"/>
	<path style="fill-rule:evenodd;clip-rule:evenodd;fill:none;" d="M24.999,33.952c-0.023,0.177-0.032,0.243-0.042,0.322
		c-0.327,0.169-0.593,0.103-0.811-0.283C24.398,33.826,24.672,33.931,24.999,33.952z"/>
	<path style="fill-rule:evenodd;clip-rule:evenodd;fill:none;" d="M28.007,42.444c-0.071,0.101-0.143,0.101-0.213,0
		C27.864,42.343,27.936,42.343,28.007,42.444z"/>
</g>
</svg>
