<svg xmlns="http://www.w3.org/2000/svg" xml:space="preserve" width="72px" height="72px" viewBox="0 0 72 72">
    <path fill="currentColor" d="M22.076 50.328c-1.416.452-2.227 1.651-3.523 1.748l-1.56-1.56v-1.01c.192-.63.662-.929.823-1.568-.014-.151-.477.218-.398-.169-.564.105-.841.52-1.182.826h-.652l-.314-.314v-1.086l1.379-1.35c.575-.176 1.164-.376 1.756-.259 1.771-2.622 1.353-2.034 3.437-3.456.661-.08 1.228.077 1.698.583.18.194.442.313.667.465.338-.115.432-.481.499-.718.082-.29.241-.559.307-.931.702-.271 1.537-.428 1.976-1.089.992-.13 1.557-.97 2.433-1.139.58-.717 1.677-.682 2.11-1.503h.705l.485-.578c-.263-.158-.456-.03-.728.128-.617.358-1.137.228-1.825-.315-.105-.525.436-.841.442-1.431-.259-.418-.822-.75-.873-1.362-.054-.377.454-.465.339-.853-.032-.554-.753-.126-.936-.591.056-.815-.209-1.5-.935-1.983.161-.823-.196-1.429-.834-1.948v-.923c-.601-.394-1.227-.726-1.452-1.523l.549-1.066c-.141-.314-.596-.273-.829-.636v-.795c-.259-.348-.316-.732-.652-.893v-1.093c-.127-.203-.325-.093-.566-.137a7.1 7.1 0 0 0-2.158-1.682c-.517.35-.645 1.208-1.461 1.266-.325.05-.522-.288-.886-.249-.235.025-.329-.386-.456-.612-.449-.14-.755.466-1.223.172-.662-.571-.762-.762-.814-1.552l.448-.51c-.043-.404-.515-.242-.632-.651v-.81c.252-.449.925-.611.829-1.319l-.814-.371c-.377-.488-.304-.978.074-1.455.333-.365.761-.454 1.235-.42.334.2.56.498.696.863.099.264.244.486.457.677.412.37.585.843.508 1.44.72.44 1.499.704 2.332.869-.548-.318-1.061-.66-1.411-1.109-.311-.687-.647-1.307-.868-1.966-.136-.408-.49-.583-.692-.911-.012-.197.072-.43-.166-.571.064-.248.284-.451.141-.725l.854-.544v-1.122l.574-.574h1.076c.204.128.283.424.558.434.588-.105.256-.782.738-1.038h.875c.674.325.765 1.158 1.278 1.671.508.508 1.013 1.019 1.64 1.649-.16-.829.35-1.44.168-2.22l-.802-.75c.058-.357-.18-.602-.235-.898-.061-.322.379-.53.21-.878.457-.446 1.032-.33 1.587-.349.269.255.549.452.609.917.052.408.541.613.916.769.32.133.686.103.958-.168.251-.065.305.35.61.193l.542 1.442c.398.231.919.363 1.24.865.179.761-.355 1.237-.836 1.7a.78.78 0 0 0 .217.707c-.145.301-.209.648-.535.901-.635.101-1.366-.154-2.049.337-.386.903-.287 1.881-.074 3.026l-.367 1.02c.145.46.598.311.886.489.332.522.468 1.179 1.051 1.463v.864c.391.752 1.412.675 1.743 1.444-.043.493-.289.855-.692 1.23 1.083.51 1.614 1.397 1.783 2.645l.566.454c.163.708.262 1.279.692 1.663.117.414-.367.654-.188 1.06.266.207.602.012 1.048.177l.529.74c.052.152-.499.434-.229.88h.888c.228.288.631.251.774.59.05.42-.232.734-.407 1.091.237.142.49.045.731.07l.629-.628h.649c.429-.426.842-.857 1.543-.923.567-.054.798-.882 1.501-.83.417-.385.771-.911 1.549-.848l.778-.877c.306.02.571-.093.666.192l.407-.322c-.259-.506-.785-.813-.924-1.389.232-.213.129-.591.312-.816.316-.389.702-.722 1.077-1.097h2.09c.786-.417 1.416-.947 1.791-1.725.53-1.097.522-1.101 1.777-1.102h.54c.257.16.581.211.808.519v1.126c-.351.236-.912.239-1.083.795.261.249.548.118.803.135.248-.129.29-.382.371-.57.96-.213 1.9-.516 2.856-.069l.521.545c.13.383-.227.865.222 1.091.043.278-.168.313-.197.444-.263 1.183-.246 1.207-1.247 1.805-.558.333-.952.776-1.274 1.324-.106.181-.033.345-.084.527-.677.722-1.53 1.227-2.376 1.76-.775.489-1.63.884-2.265 1.584h-.925c-.579.189-.901.505-1.21.852h-.662l-.758.824c-.978.092-1.039.124-1.858.923-.135 0-.339-.063-.411.009-.686.68-1.629 1.101-2.062 2.038-.043.092-.174.147-.202.239-.394 1.303-1.201 2.387-1.865 3.546-.104.18-.05.341-.084.49-.425.602-1.059.977-1.726 1.488.603.283 1.026.087 1.489.229.413-1.141 1.247-1.974 1.743-3.011.244-.51.428-1.047.656-1.563.181-.409.329-.847.834-1.087.319.037.791-.186 1.114.343-.171.695.267 1.372.219 2.118-.048.753-.004 1.511-.015 2.267-.003.226.1.376.206.566.786 1.399 1.372 2.907 2.309 4.226.046.91.922 1.471.979 2.414.027.445.469.826.82 1.107.054.315-.054.577.172.851.537.649.735 1.491 1.11 2.236.118.236.303.374.442.605v1.764c-1.067.3-2.104.858-3.446.688l-.645-.841v1.286c-.001.444-.17.878-.534 1.056-.505.247-.802.602-1.06 1.071-.149.272-.443.466-.673.695h-.649l-1.191-1.195c.126-.736-.327-1.255-.869-1.718 0-.229.09-.516-.015-.646-.561-.694-.742-1.586-1.229-2.299-.335-.491-.546-.951-.455-1.591-.493-.286-.656-.85-.847-1.33-.164-.413-.294-.81-.573-1.171-.199-.259-.224-.648-.36-.925-.368-.748-.7-1.517-1.083-2.25-.408-.783-.766-1.668-1.676-2.115-.28-.138-.581-.405-.668-.786-.075-.326-.404-.336-.627-.478-.03-.385-.125-.794.414-1.013 1.132.354 2.306.75 3.565.668l.302-.302c-.119-.337-.479-.435-.721-.512-.799-.256-1.649-.381-2.48-.239-.326.057-.725.344-.973.159-.348-.258-.677-.145-1.013-.18-.247-.025-.499-.005-.664-.005-.622.364-1.148.747-1.733.992-.576.24-.949.734-1.526 1.001-.613.283-1.058.945-1.555 1.462-.47.489-1.056.723-1.879 1.001-.284.262-.658.827-1.363.722l-.87.87c-.432.005-.863.005-1.071.005m3.989-32.617c.104.019.169-.029.191-.128.004-.017-.047-.067-.063-.063-.099.022-.146.088-.13.193-.104-.019-.169.029-.191.128-.003.017.047.067.063.063.099-.022.147-.088.13-.193m9.404 17.893c-.256.074-.449-.063-.533.164.149.144.287.126.417-.13.104.019.169-.029.191-.128.003-.017-.047-.067-.063-.063-.099.023-.147.088-.012.157m.497-.401c.342.053.527-.093.673-.373-.42-.152-.514.138-.64.379-.104-.019-.169.029-.191.127-.004.017.047.067.063.063.099-.021.147-.086.095-.196m-12.603-24c-.179.289-.077.544-.076.536l.598.598v-.42c-.226-.311-.368-.504-.522-.714m20.053 41.472c-.189.565.012.958.287 1.319.137.019.226-.016.288-.11.134-.262-.268-.316-.212-.54.072-.294-.116-.449-.363-.669m-.905-1.142.648.65c-.232-.384-.155-.893-.585-1.205-.186.238-.052.497-.063.555m-8.608-15.276-.688.341c-.043.184 0 .271.13.368l.688-.341c.044-.183.001-.27-.13-.368m11.413 21.118c.176.123.273.443.584.226l-.541-1.084a1.8 1.8 0 0 0-.043.858m-1.076-2.658c.084.393.179.765.726 1.138-.233-.568-.288-.961-.726-1.138M27.036 15.552q.201-.54 0-1.08-.201.54 0 1.08m14.897 34.839c.245-.575-.013-.508-.288-.46zm14.479 11.387q.153.105 0 .212-.152-.108 0-.212"/>
</svg>
