<?xml version="1.0" encoding="iso-8859-1"?>
<!-- Generator: Adobe Illustrator 16.0.0, SVG Export Plug-In . SVG Version: 6.00 Build 0)  -->
<!DOCTYPE svg PUBLIC "-//W3C//DTD SVG 1.1//EN" "http://www.w3.org/Graphics/SVG/1.1/DTD/svg11.dtd">
<svg version="1.1" id="Layer_1" xmlns="http://www.w3.org/2000/svg" xmlns:xlink="http://www.w3.org/1999/xlink" x="0px" y="0px"
	 width="72.36px" height="71.459px" viewBox="0 0 72.36 71.459" style="enable-background:new 0 0 72.36 71.459;"
	 xml:space="preserve">
<g>
	<path style="fill-rule:evenodd;clip-rule:evenodd;fill:none;" d="M-6.984,78.839c0-28.584,0-57.167,0-85.751
		c28.8,0,57.6,0,86.399,0c0,28.584,0,57.167,0,85.751C50.616,78.839,21.816,78.839-6.984,78.839z M22.076,50.328
		c0.208,0,0.64,0,1.071,0c0.28-0.28,0.56-0.561,0.87-0.87c0.705,0.105,1.079-0.46,1.363-0.722c0.823-0.278,1.41-0.512,1.879-1.001
		c0.497-0.517,0.941-1.179,1.555-1.462c0.578-0.267,0.95-0.761,1.526-1.001c0.584-0.245,1.111-0.628,1.733-0.992
		c0.165,0,0.417-0.021,0.664,0.005c0.336,0.035,0.665-0.078,1.013,0.18c0.249,0.185,0.647-0.103,0.973-0.159
		c0.831-0.142,1.681-0.017,2.48,0.239c0.242,0.077,0.602,0.175,0.721,0.512c-0.098,0.099-0.2,0.2-0.302,0.302
		c-1.259,0.082-2.433-0.314-3.565-0.668c-0.54,0.219-0.444,0.628-0.414,1.013c0.223,0.142,0.553,0.151,0.627,0.478
		c0.087,0.381,0.389,0.648,0.668,0.786c0.91,0.447,1.268,1.332,1.676,2.115c0.382,0.733,0.714,1.502,1.083,2.25
		c0.137,0.276,0.161,0.666,0.36,0.925c0.279,0.361,0.409,0.758,0.573,1.171c0.19,0.48,0.354,1.044,0.847,1.33
		c-0.091,0.64,0.12,1.1,0.455,1.591c0.486,0.713,0.668,1.604,1.229,2.299c0.104,0.131,0.015,0.418,0.015,0.646
		c0.542,0.463,0.995,0.981,0.869,1.718c0.431,0.433,0.812,0.815,1.191,1.195c0.218,0,0.434,0,0.649,0
		c0.229-0.229,0.523-0.423,0.673-0.695c0.258-0.47,0.555-0.824,1.06-1.071c0.364-0.178,0.533-0.611,0.534-1.056
		c0-0.35,0-0.699,0-1.286c0.334,0.436,0.525,0.686,0.645,0.841c1.342,0.171,2.379-0.388,3.446-0.688c0-0.648,0-1.221,0-1.764
		c-0.14-0.231-0.324-0.369-0.442-0.605c-0.375-0.745-0.573-1.587-1.11-2.236c-0.226-0.273-0.118-0.535-0.172-0.851
		c-0.352-0.281-0.793-0.662-0.82-1.107c-0.058-0.943-0.934-1.504-0.979-2.414c-0.937-1.318-1.522-2.826-2.309-4.226
		c-0.106-0.19-0.209-0.341-0.206-0.566c0.011-0.756-0.033-1.514,0.015-2.267c0.048-0.746-0.39-1.423-0.219-2.118
		c-0.323-0.528-0.795-0.306-1.114-0.343c-0.505,0.24-0.653,0.678-0.834,1.087c-0.229,0.517-0.412,1.054-0.656,1.563
		c-0.496,1.037-1.33,1.87-1.743,3.011c-0.463-0.142-0.887,0.055-1.489-0.229c0.667-0.512,1.301-0.887,1.726-1.488
		c0.034-0.149-0.02-0.311,0.084-0.49c0.664-1.159,1.472-2.243,1.865-3.546c0.028-0.092,0.159-0.147,0.202-0.239
		c0.433-0.938,1.376-1.358,2.062-2.038c0.072-0.071,0.276-0.009,0.411-0.009c0.819-0.799,0.881-0.831,1.858-0.923
		c0.231-0.251,0.498-0.542,0.758-0.824c0.237,0,0.45,0,0.662,0c0.309-0.347,0.631-0.663,1.21-0.852c0.207,0,0.566,0,0.925,0
		c0.635-0.7,1.489-1.095,2.265-1.584c0.846-0.533,1.699-1.038,2.376-1.76c0.051-0.183-0.022-0.346,0.084-0.527
		c0.322-0.547,0.717-0.99,1.274-1.324c1.001-0.598,0.984-0.623,1.247-1.805c0.029-0.132,0.24-0.166,0.197-0.444
		c-0.448-0.226-0.092-0.708-0.222-1.091c-0.173-0.182-0.347-0.363-0.521-0.545c-0.956-0.446-1.896-0.144-2.856,0.069
		c-0.081,0.188-0.123,0.441-0.371,0.57c-0.255-0.018-0.542,0.113-0.803-0.135c0.171-0.556,0.732-0.56,1.083-0.795
		c0-0.401,0-0.788,0-1.126c-0.227-0.308-0.551-0.359-0.809-0.519c-0.18,0-0.359,0-0.539,0c-1.255,0.001-1.247,0.005-1.777,1.102
		c-0.375,0.778-1.005,1.308-1.791,1.725c-0.68,0-1.395,0-2.09,0c-0.375,0.375-0.761,0.708-1.077,1.097
		c-0.183,0.225-0.079,0.603-0.312,0.816c0.139,0.577,0.665,0.883,0.924,1.389c-0.146,0.116-0.258,0.204-0.407,0.322
		c-0.095-0.285-0.36-0.172-0.666-0.192c-0.249,0.281-0.532,0.6-0.778,0.877c-0.778-0.063-1.132,0.462-1.549,0.848
		c-0.703-0.052-0.934,0.776-1.501,0.83c-0.701,0.066-1.114,0.498-1.543,0.923c-0.245,0-0.456,0-0.649,0
		c-0.221,0.221-0.425,0.425-0.629,0.629c-0.241-0.025-0.494,0.072-0.731-0.07c0.175-0.357,0.457-0.671,0.407-1.091
		c-0.144-0.339-0.547-0.302-0.774-0.59c-0.284,0-0.598,0-0.888,0c-0.269-0.446,0.282-0.728,0.229-0.88
		c-0.297-0.415-0.461-0.645-0.529-0.74c-0.446-0.165-0.782,0.03-1.048-0.177c-0.179-0.406,0.306-0.646,0.188-1.06
		c-0.431-0.383-0.529-0.955-0.692-1.663c-0.141-0.113-0.391-0.313-0.566-0.454c-0.169-1.248-0.7-2.135-1.783-2.645
		c0.403-0.375,0.649-0.737,0.692-1.23c-0.332-0.77-1.353-0.692-1.743-1.444c0-0.233,0-0.521,0-0.864
		c-0.583-0.284-0.719-0.941-1.051-1.463c-0.288-0.178-0.741-0.028-0.886-0.489c0.133-0.369,0.28-0.776,0.367-1.02
		c-0.213-1.146-0.313-2.123,0.074-3.026c0.683-0.491,1.415-0.236,2.049-0.337c0.326-0.253,0.391-0.601,0.535-0.901
		c-0.181-0.195-0.266-0.413-0.217-0.707c0.481-0.463,1.016-0.939,0.836-1.7c-0.321-0.502-0.842-0.633-1.24-0.865
		c-0.19-0.506-0.365-0.971-0.542-1.442c-0.306,0.157-0.359-0.258-0.61-0.193c-0.272,0.271-0.639,0.301-0.958,0.168
		c-0.375-0.156-0.863-0.361-0.916-0.769c-0.06-0.464-0.34-0.661-0.609-0.917c-0.555,0.02-1.13-0.097-1.587,0.349
		c0.168,0.349-0.271,0.556-0.21,0.878c0.056,0.296,0.293,0.541,0.235,0.898c0.281,0.263,0.568,0.532,0.802,0.75
		c0.182,0.779-0.328,1.391-0.168,2.22c-0.626-0.63-1.132-1.141-1.64-1.649c-0.513-0.513-0.604-1.346-1.278-1.671
		c-0.339,0-0.651,0-0.875,0c-0.481,0.256-0.149,0.933-0.738,1.038c-0.275-0.01-0.354-0.306-0.558-0.434c-0.358,0-0.718,0-1.076,0
		c-0.18,0.18-0.358,0.358-0.574,0.574c0,0.349,0,0.736,0,1.122c-0.285,0.181-0.543,0.346-0.854,0.544
		c0.143,0.274-0.077,0.477-0.141,0.725c0.238,0.141,0.154,0.374,0.166,0.571c0.202,0.328,0.556,0.502,0.692,0.911
		c0.22,0.66,0.557,1.28,0.868,1.966c0.35,0.449,0.863,0.791,1.411,1.109c-0.833-0.165-1.611-0.429-2.332-0.869
		c0.077-0.598-0.096-1.07-0.508-1.44c-0.213-0.19-0.358-0.413-0.457-0.677c-0.136-0.365-0.362-0.663-0.696-0.863
		c-0.474-0.034-0.902,0.055-1.235,0.419c-0.378,0.478-0.451,0.967-0.074,1.455c0.291,0.132,0.561,0.255,0.814,0.371
		c0.096,0.708-0.576,0.87-0.829,1.319c0,0.298,0,0.612,0,0.81c0.117,0.409,0.588,0.247,0.632,0.651
		c-0.144,0.164-0.302,0.343-0.448,0.51c0.053,0.79,0.152,0.98,0.814,1.552c0.468,0.293,0.774-0.312,1.223-0.172
		c0.127,0.227,0.221,0.638,0.456,0.612c0.364-0.04,0.562,0.298,0.886,0.249c0.816-0.058,0.944-0.916,1.461-1.266
		c0.854,0.438,1.585,1.015,2.158,1.682c0.241,0.044,0.439-0.066,0.566,0.137c0,0.354,0,0.714,0,1.093
		c0.336,0.16,0.393,0.544,0.652,0.893c0,0.228,0,0.542,0,0.795c0.233,0.362,0.688,0.321,0.829,0.636
		c-0.203,0.395-0.396,0.77-0.549,1.066c0.225,0.797,0.852,1.129,1.452,1.523c0,0.315,0,0.629,0,0.923
		c0.639,0.519,0.996,1.125,0.834,1.948c0.726,0.483,0.991,1.167,0.935,1.983c0.183,0.465,0.904,0.037,0.936,0.591
		c0.114,0.388-0.393,0.476-0.339,0.853c0.051,0.612,0.614,0.944,0.873,1.362c-0.006,0.589-0.547,0.905-0.442,1.43
		c0.688,0.544,1.208,0.675,1.825,0.316c0.271-0.158,0.464-0.286,0.728-0.128c-0.175,0.209-0.351,0.418-0.485,0.578
		c-0.27,0-0.45,0-0.705,0c-0.433,0.821-1.53,0.786-2.11,1.503c-0.875,0.169-1.44,1.009-2.433,1.139
		c-0.438,0.661-1.274,0.818-1.976,1.089c-0.066,0.372-0.226,0.641-0.307,0.931c-0.067,0.236-0.161,0.603-0.499,0.718
		c-0.225-0.152-0.487-0.271-0.667-0.465c-0.47-0.506-1.038-0.663-1.698-0.584c-2.084,1.423-1.667,0.835-3.438,3.457
		c-0.592-0.117-1.181,0.083-1.756,0.259c-0.466,0.456-0.928,0.908-1.379,1.35c0,0.374,0,0.732,0,1.086
		c0.107,0.107,0.208,0.209,0.314,0.314c0.211,0,0.426,0,0.652,0c0.34-0.307,0.617-0.721,1.182-0.826
		c-0.078,0.387,0.384,0.018,0.398,0.169c-0.161,0.64-0.631,0.938-0.823,1.568c0,0.283,0,0.715,0,1.01
		c0.548,0.548,1.027,1.027,1.56,1.56C19.849,51.979,20.66,50.78,22.076,50.328z M63.318,53.968c0.297-0.558,0.786-1.018,1.049-1.872
		C63.713,52.739,63.282,53.222,63.318,53.968z M60.896,57.185c0.283-0.292,0.791-0.434,0.822-1.193
		C61.343,56.489,60.917,56.66,60.896,57.185z M66.155,48.405c-0.058-0.053-0.201-0.072-0.356,0.096
		c0.015,0.087,0.031,0.182,0.085,0.489C66.017,48.702,66.085,48.553,66.155,48.405z M56.412,61.778
		c-0.101,0.069-0.101,0.142,0,0.212C56.513,61.919,56.513,61.847,56.412,61.778z"/>
	<path style="fill-rule:evenodd;clip-rule:evenodd;" d="M22.076,50.328c-1.416,0.452-2.227,1.651-3.523,1.748
		c-0.533-0.532-1.012-1.012-1.56-1.56c0-0.295,0-0.727,0-1.01c0.192-0.63,0.662-0.929,0.823-1.568
		c-0.014-0.151-0.477,0.218-0.398-0.169c-0.564,0.105-0.841,0.52-1.182,0.826c-0.226,0-0.441,0-0.652,0
		c-0.106-0.105-0.208-0.207-0.314-0.314c0-0.354,0-0.712,0-1.086c0.451-0.441,0.914-0.894,1.379-1.35
		c0.575-0.176,1.164-0.376,1.756-0.259c1.771-2.622,1.353-2.034,3.437-3.456c0.661-0.08,1.228,0.077,1.698,0.583
		c0.18,0.194,0.442,0.313,0.667,0.465c0.338-0.115,0.432-0.481,0.499-0.718c0.082-0.29,0.241-0.559,0.307-0.931
		c0.702-0.271,1.537-0.428,1.976-1.089c0.992-0.13,1.557-0.97,2.433-1.139c0.58-0.717,1.677-0.682,2.11-1.503
		c0.255,0,0.436,0,0.705,0c0.134-0.16,0.31-0.369,0.485-0.578c-0.263-0.158-0.456-0.03-0.728,0.128
		c-0.617,0.358-1.137,0.228-1.825-0.315c-0.105-0.525,0.436-0.841,0.442-1.431c-0.259-0.418-0.822-0.75-0.873-1.362
		c-0.054-0.377,0.454-0.465,0.339-0.853c-0.032-0.554-0.753-0.126-0.936-0.591c0.056-0.815-0.209-1.5-0.935-1.983
		c0.161-0.823-0.196-1.429-0.834-1.948c0-0.294,0-0.608,0-0.923c-0.601-0.394-1.227-0.726-1.452-1.523
		c0.153-0.297,0.346-0.672,0.549-1.066c-0.141-0.314-0.596-0.273-0.829-0.636c0-0.254,0-0.567,0-0.795
		c-0.259-0.348-0.316-0.732-0.652-0.893c0-0.379,0-0.738,0-1.093c-0.127-0.203-0.325-0.093-0.566-0.137
		c-0.572-0.667-1.304-1.244-2.158-1.682c-0.517,0.35-0.645,1.208-1.461,1.266c-0.325,0.05-0.522-0.288-0.886-0.249
		c-0.235,0.025-0.329-0.386-0.456-0.612c-0.449-0.14-0.755,0.466-1.223,0.172c-0.662-0.571-0.762-0.762-0.814-1.552
		c0.146-0.167,0.305-0.346,0.448-0.51c-0.043-0.404-0.515-0.242-0.632-0.651c0-0.198,0-0.511,0-0.81
		c0.252-0.449,0.925-0.611,0.829-1.319c-0.253-0.116-0.524-0.239-0.814-0.371c-0.377-0.488-0.304-0.978,0.074-1.455
		c0.333-0.365,0.761-0.454,1.235-0.42c0.334,0.2,0.56,0.498,0.696,0.863c0.099,0.264,0.244,0.486,0.457,0.677
		c0.412,0.37,0.585,0.843,0.508,1.44c0.72,0.44,1.499,0.704,2.332,0.869c-0.548-0.318-1.061-0.66-1.411-1.109
		c-0.311-0.687-0.647-1.307-0.868-1.966c-0.136-0.408-0.49-0.583-0.692-0.911c-0.012-0.197,0.072-0.43-0.166-0.571
		c0.064-0.248,0.284-0.451,0.141-0.725c0.312-0.198,0.57-0.363,0.854-0.544c0-0.386,0-0.773,0-1.122
		c0.216-0.216,0.394-0.395,0.574-0.574c0.358,0,0.718,0,1.076,0c0.204,0.128,0.283,0.424,0.558,0.434
		c0.588-0.105,0.256-0.782,0.738-1.038c0.224,0,0.537,0,0.875,0c0.674,0.325,0.765,1.158,1.278,1.671
		c0.508,0.508,1.013,1.019,1.64,1.649c-0.16-0.829,0.35-1.44,0.168-2.22c-0.233-0.218-0.521-0.487-0.802-0.75
		c0.058-0.357-0.18-0.602-0.235-0.898c-0.061-0.322,0.379-0.53,0.21-0.878c0.457-0.446,1.032-0.33,1.587-0.349
		c0.269,0.255,0.549,0.452,0.609,0.917c0.052,0.408,0.541,0.613,0.916,0.769c0.32,0.133,0.686,0.103,0.958-0.168
		c0.251-0.065,0.305,0.35,0.61,0.193c0.177,0.471,0.352,0.936,0.542,1.442c0.398,0.231,0.919,0.363,1.24,0.865
		c0.179,0.761-0.355,1.237-0.836,1.7c-0.049,0.294,0.036,0.512,0.217,0.707c-0.145,0.301-0.209,0.648-0.535,0.901
		c-0.635,0.101-1.366-0.154-2.049,0.337c-0.386,0.903-0.287,1.881-0.074,3.026c-0.087,0.244-0.234,0.651-0.367,1.02
		c0.145,0.46,0.598,0.311,0.886,0.489c0.332,0.522,0.468,1.179,1.051,1.463c0,0.343,0,0.631,0,0.864
		c0.391,0.752,1.412,0.675,1.743,1.444c-0.043,0.493-0.289,0.855-0.692,1.23c1.083,0.51,1.614,1.397,1.783,2.645
		c0.175,0.141,0.425,0.341,0.566,0.454c0.163,0.708,0.262,1.279,0.692,1.663c0.117,0.414-0.367,0.654-0.188,1.06
		c0.266,0.207,0.602,0.012,1.048,0.177c0.068,0.095,0.232,0.325,0.529,0.74c0.052,0.152-0.499,0.434-0.229,0.88
		c0.291,0,0.604,0,0.888,0c0.228,0.288,0.631,0.251,0.774,0.59c0.05,0.42-0.232,0.734-0.407,1.091
		c0.237,0.142,0.49,0.045,0.731,0.07c0.204-0.204,0.408-0.407,0.629-0.628c0.193,0,0.404,0,0.649,0
		c0.429-0.426,0.842-0.857,1.543-0.923c0.567-0.054,0.798-0.882,1.501-0.83c0.417-0.385,0.771-0.911,1.549-0.848
		c0.246-0.277,0.529-0.596,0.778-0.877c0.306,0.02,0.571-0.093,0.666,0.192c0.149-0.118,0.261-0.207,0.407-0.322
		c-0.259-0.506-0.785-0.813-0.924-1.389c0.232-0.213,0.129-0.591,0.312-0.816c0.316-0.389,0.702-0.722,1.077-1.097
		c0.695,0,1.41,0,2.09,0c0.786-0.417,1.416-0.947,1.791-1.725c0.53-1.097,0.522-1.101,1.777-1.102c0.18,0,0.359,0,0.54,0
		c0.257,0.16,0.581,0.211,0.808,0.519c0,0.339,0,0.725,0,1.126c-0.351,0.236-0.912,0.239-1.083,0.795
		c0.261,0.249,0.548,0.118,0.803,0.135c0.248-0.129,0.29-0.382,0.371-0.57c0.96-0.213,1.9-0.516,2.856-0.069
		c0.174,0.182,0.348,0.363,0.521,0.545c0.13,0.383-0.227,0.865,0.222,1.091c0.043,0.278-0.168,0.313-0.197,0.444
		c-0.263,1.183-0.246,1.207-1.247,1.805c-0.558,0.333-0.952,0.776-1.274,1.324c-0.106,0.181-0.033,0.345-0.084,0.527
		c-0.677,0.722-1.53,1.227-2.376,1.76c-0.775,0.489-1.63,0.884-2.265,1.584c-0.358,0-0.718,0-0.925,0
		c-0.579,0.189-0.901,0.505-1.21,0.852c-0.212,0-0.425,0-0.662,0c-0.26,0.282-0.526,0.572-0.758,0.824
		c-0.978,0.092-1.039,0.124-1.858,0.923c-0.135,0-0.339-0.063-0.411,0.009c-0.686,0.68-1.629,1.101-2.062,2.038
		c-0.043,0.092-0.174,0.147-0.202,0.239c-0.394,1.303-1.201,2.387-1.865,3.546c-0.104,0.18-0.05,0.341-0.084,0.49
		c-0.425,0.602-1.059,0.977-1.726,1.488c0.603,0.283,1.026,0.087,1.489,0.229c0.413-1.141,1.247-1.974,1.743-3.011
		c0.244-0.51,0.428-1.047,0.656-1.563c0.181-0.409,0.329-0.847,0.834-1.087c0.319,0.037,0.791-0.186,1.114,0.343
		c-0.171,0.695,0.267,1.372,0.219,2.118c-0.048,0.753-0.004,1.511-0.015,2.267c-0.003,0.226,0.1,0.376,0.206,0.566
		c0.786,1.399,1.372,2.907,2.309,4.226c0.046,0.91,0.922,1.471,0.979,2.414c0.027,0.445,0.469,0.826,0.82,1.107
		c0.054,0.315-0.054,0.577,0.172,0.851c0.537,0.649,0.735,1.491,1.11,2.236c0.118,0.236,0.303,0.374,0.442,0.605
		c0,0.543,0,1.115,0,1.764c-1.067,0.3-2.104,0.858-3.446,0.688c-0.119-0.155-0.311-0.405-0.645-0.841c0,0.587,0,0.937,0,1.286
		c-0.001,0.444-0.17,0.878-0.534,1.056c-0.505,0.247-0.802,0.602-1.06,1.071c-0.149,0.272-0.443,0.466-0.673,0.695
		c-0.216,0-0.432,0-0.649,0c-0.38-0.38-0.761-0.763-1.191-1.195c0.126-0.736-0.327-1.255-0.869-1.718
		c0-0.229,0.09-0.516-0.015-0.646c-0.561-0.694-0.742-1.586-1.229-2.299c-0.335-0.491-0.546-0.951-0.455-1.591
		c-0.493-0.286-0.656-0.85-0.847-1.33c-0.164-0.413-0.294-0.81-0.573-1.171c-0.199-0.259-0.224-0.648-0.36-0.925
		c-0.368-0.748-0.7-1.517-1.083-2.25c-0.408-0.783-0.766-1.668-1.676-2.115c-0.28-0.138-0.581-0.405-0.668-0.786
		c-0.075-0.326-0.404-0.336-0.627-0.478c-0.03-0.385-0.125-0.794,0.414-1.013c1.132,0.354,2.306,0.75,3.565,0.668
		c0.102-0.102,0.204-0.203,0.302-0.302c-0.119-0.337-0.479-0.435-0.721-0.512c-0.799-0.256-1.649-0.381-2.48-0.239
		c-0.326,0.057-0.725,0.344-0.973,0.159c-0.348-0.258-0.677-0.145-1.013-0.18c-0.247-0.025-0.499-0.005-0.664-0.005
		c-0.622,0.364-1.148,0.747-1.733,0.992c-0.576,0.24-0.949,0.734-1.526,1.001c-0.613,0.283-1.058,0.945-1.555,1.462
		c-0.47,0.489-1.056,0.723-1.879,1.001c-0.284,0.262-0.658,0.827-1.363,0.722c-0.31,0.31-0.59,0.59-0.87,0.87
		C22.715,50.328,22.284,50.328,22.076,50.328z M26.065,17.711c0.104,0.019,0.169-0.029,0.191-0.128
		c0.004-0.017-0.047-0.067-0.063-0.063c-0.099,0.022-0.146,0.088-0.13,0.193c-0.104-0.019-0.169,0.029-0.191,0.128
		c-0.003,0.017,0.047,0.067,0.063,0.063C26.034,17.882,26.082,17.816,26.065,17.711z M35.469,35.604
		c-0.256,0.074-0.449-0.063-0.533,0.164c0.149,0.144,0.287,0.126,0.417-0.13c0.104,0.019,0.169-0.029,0.191-0.128
		c0.003-0.017-0.047-0.067-0.063-0.063C35.382,35.47,35.334,35.535,35.469,35.604z M35.966,35.203
		c0.342,0.053,0.527-0.093,0.673-0.373c-0.42-0.152-0.514,0.138-0.64,0.379c-0.104-0.019-0.169,0.029-0.191,0.127
		c-0.004,0.017,0.047,0.067,0.063,0.063C35.97,35.378,36.018,35.313,35.966,35.203z M23.363,11.203
		c-0.179,0.289-0.077,0.544-0.076,0.536c0.292,0.292,0.475,0.475,0.598,0.598c0-0.12,0-0.361,0-0.42
		C23.659,11.606,23.517,11.413,23.363,11.203z M43.416,52.675c-0.189,0.565,0.012,0.958,0.287,1.319
		c0.137,0.019,0.226-0.016,0.288-0.11c0.134-0.262-0.268-0.316-0.212-0.54C43.851,53.05,43.663,52.895,43.416,52.675z
		 M42.511,51.533c0.26,0.261,0.443,0.445,0.648,0.65c-0.232-0.384-0.155-0.893-0.585-1.205
		C42.388,51.216,42.522,51.475,42.511,51.533z M33.903,36.257c-0.231,0.115-0.483,0.24-0.688,0.341c-0.043,0.184,0,0.271,0.13,0.368
		c0.231-0.114,0.483-0.239,0.688-0.341C34.077,36.442,34.034,36.355,33.903,36.257z M45.316,57.375
		c0.176,0.123,0.273,0.443,0.584,0.226c-0.168-0.336-0.335-0.673-0.541-1.084C45.267,56.845,45.264,57.108,45.316,57.375z
		 M44.24,54.717c0.084,0.393,0.179,0.765,0.726,1.138C44.733,55.287,44.678,54.894,44.24,54.717z M27.036,15.552
		c0.134-0.36,0.134-0.72,0-1.08C26.902,14.832,26.902,15.192,27.036,15.552z M41.933,50.391c0.245-0.575-0.013-0.508-0.288-0.46
		C41.745,50.09,41.828,50.224,41.933,50.391z"/>
	<path style="fill-rule:evenodd;clip-rule:evenodd;" d="M56.412,61.778c0.102,0.069,0.102,0.142,0,0.212
		C56.311,61.919,56.311,61.847,56.412,61.778z"/>
	<path style="fill-rule:evenodd;clip-rule:evenodd;fill:none;" d="M23.363,11.203c0.154,0.21,0.295,0.403,0.522,0.713
		c0,0.059,0,0.301,0,0.42c-0.123-0.123-0.306-0.306-0.598-0.598C23.287,11.747,23.184,11.492,23.363,11.203z"/>
	<path style="fill-rule:evenodd;clip-rule:evenodd;fill:none;" d="M43.416,52.675c0.247,0.22,0.436,0.375,0.363,0.669
		c-0.056,0.224,0.346,0.278,0.212,0.54c-0.063,0.095-0.151,0.129-0.288,0.11C43.427,53.633,43.226,53.241,43.416,52.675z"/>
	<path style="fill-rule:evenodd;clip-rule:evenodd;fill:none;" d="M42.511,51.533c0.011-0.058-0.123-0.316,0.063-0.555
		c0.43,0.313,0.353,0.821,0.585,1.205C42.955,51.978,42.771,51.793,42.511,51.533z"/>
	<path style="fill-rule:evenodd;clip-rule:evenodd;fill:none;" d="M33.903,36.257c0.13,0.099,0.173,0.185,0.13,0.369
		c-0.206,0.102-0.458,0.227-0.688,0.341c-0.13-0.098-0.173-0.185-0.13-0.368C33.42,36.497,33.672,36.372,33.903,36.257z"/>
	<path style="fill-rule:evenodd;clip-rule:evenodd;fill:none;" d="M45.316,57.375c-0.052-0.268-0.049-0.53,0.043-0.858
		c0.206,0.411,0.373,0.748,0.541,1.084C45.589,57.819,45.492,57.499,45.316,57.375z"/>
	<path style="fill-rule:evenodd;clip-rule:evenodd;fill:none;" d="M44.24,54.717c0.438,0.177,0.493,0.569,0.726,1.138
		C44.418,55.482,44.324,55.11,44.24,54.717z"/>
	<path style="fill-rule:evenodd;clip-rule:evenodd;fill:none;" d="M27.036,15.552c-0.134-0.36-0.134-0.72,0-1.08
		C27.17,14.832,27.17,15.192,27.036,15.552z"/>
	<path style="fill-rule:evenodd;clip-rule:evenodd;fill:none;" d="M35.966,35.203c0.159-0.235,0.253-0.525,0.673-0.373
		C36.494,35.109,36.309,35.255,35.966,35.203z"/>
	<path style="fill-rule:evenodd;clip-rule:evenodd;fill:none;" d="M41.933,50.391c-0.105-0.167-0.188-0.301-0.288-0.46
		C41.92,49.883,42.178,49.816,41.933,50.391z"/>
	<path style="fill-rule:evenodd;clip-rule:evenodd;fill:none;" d="M35.469,35.604c-0.246,0.29-0.383,0.308-0.533,0.164
		C35.021,35.542,35.213,35.678,35.469,35.604z"/>
	<path style="fill-rule:evenodd;clip-rule:evenodd;fill:none;" d="M26.065,17.711c-0.019-0.104,0.029-0.169,0.128-0.191
		c0.017-0.004,0.067,0.047,0.063,0.063C26.234,17.682,26.168,17.729,26.065,17.711z"/>
	<path style="fill-rule:evenodd;clip-rule:evenodd;fill:none;" d="M26.063,17.713c0.019,0.104-0.029,0.169-0.128,0.191
		c-0.017,0.004-0.067-0.047-0.063-0.063C25.894,17.742,25.959,17.694,26.063,17.713z"/>
	<path style="fill-rule:evenodd;clip-rule:evenodd;fill:none;" d="M35.999,35.209c0.019,0.104-0.029,0.169-0.128,0.191
		c-0.017,0.004-0.067-0.046-0.063-0.063C35.83,35.238,35.896,35.19,35.999,35.209z"/>
	<path style="fill-rule:evenodd;clip-rule:evenodd;fill:none;" d="M35.353,35.639c-0.019-0.104,0.029-0.169,0.128-0.191
		c0.017-0.003,0.067,0.047,0.063,0.063C35.522,35.61,35.457,35.657,35.353,35.639z"/>
</g>
</svg>
