<?xml version="1.0" encoding="iso-8859-1"?>
<!-- Generator: Adobe Illustrator 16.0.0, SVG Export Plug-In . SVG Version: 6.00 Build 0)  -->
<!DOCTYPE svg PUBLIC "-//W3C//DTD SVG 1.1//EN" "http://www.w3.org/Graphics/SVG/1.1/DTD/svg11.dtd">
<svg version="1.1" id="Layer_1" xmlns="http://www.w3.org/2000/svg" xmlns:xlink="http://www.w3.org/1999/xlink" x="0px" y="0px"
	 width="72.36px" height="71.459px" viewBox="0 0 72.36 71.459" style="enable-background:new 0 0 72.36 71.459;"
	 xml:space="preserve">
<g>
	
	<path fill="currentColor" d="M59.65,53.788c-0.157-0.04-0.28,0.018-0.366,0.149
		c-1.128,1.74-2.669,3.109-4.134,4.541c-0.533,0.521-1.249,0.836-1.813,1.348c-0.606,0.551-1.339,0.958-2.028,1.369
		c-0.759,0.453-1.51,0.957-2.382,1.271c-0.863,0.311-1.701,0.751-2.548,1.141c-0.618,0.283-1.225,0.541-1.933,0.565
		c-0.457,0.016-0.903,0.239-1.361,0.343c-0.86,0.193-1.681,0.604-2.61,0.49c-0.243-0.207-0.645-0.218-0.799-0.56
		c-0.047-0.231,0.12-0.353,0.258-0.437c0.604-0.371,1.173-0.796,1.784-1.158c1.312-0.776,2.635-1.536,3.825-2.503
		c0.28-0.227,0.651-0.329,0.968-0.528c0.71-0.448,1.483-0.795,2.228-1.484c0.146-0.276,0.414-0.705,0.603-1.165
		c0.2-0.493,0.351-1.011,0.477-1.529c0.174-0.719-0.106-1.379-0.448-1.967c-0.862-1.484-2.244-2.709-3.763-3.569
		c-1.347-0.762-2.824-1.179-4.264-1.692c-0.215-0.076-0.438-0.185-0.646-0.268c-0.406-0.161-0.748-0.443-1.234-0.427
		c-0.207,0.008-0.451-0.146-0.623-0.291c-0.238-0.201-0.445-0.436-0.78-0.509c-0.694,0.087-1.361-0.198-1.925-0.515
		c-0.559-0.313-1.081-0.418-1.717-0.389c-0.628-0.53-1.504-0.737-2.089-1.412c0-0.276,0.036-0.568-0.01-0.848
		c-0.051-0.311,0.076-0.555,0.232-0.771c0.431-0.598,0.918-1.136,1.571-1.52c0.843-0.495,1.653-1.047,2.483-1.565
		c0.226-0.141,0.472-0.249,0.709-0.371c0.334-0.172,0.682-0.318,0.934-0.62c0.084-0.102,0.163-0.278,0.326-0.237
		c0.312,0.078,0.535-0.152,0.763-0.252c0.308-0.136,0.528-0.47,0.803-0.734c-0.134-0.462-0.515-0.614-0.861-0.843
		c-0.35-0.232-0.616-0.591-0.912-0.887c0.043-0.802,0.501-1.265,1.315-1.61c0.167,0,0.487,0.004,0.806-0.002
		c0.139-0.002,0.314,0.023,0.408-0.048c0.697-0.529,1.628-0.824,1.955-1.738c0.335-0.935,1.726-2.224,2.563-2.748
		c0.344,0,0.737-0.022,1.127,0.005c0.568,0.041,1.002-0.195,1.38-0.584c0.251-0.258,0.528-0.493,0.758-0.768
		c0.298-0.357,0.668-0.616,1.074-0.804c0.635-0.294,0.946-0.757,0.938-1.455c-0.009-0.684-0.002-1.367-0.002-2.051
		c0.221-0.346,0.347-0.759,0.824-1.039c0.281,0,0.672,0.007,1.063-0.001c0.814-0.018,1.555,0.199,2.18,0.727
		c0.439,0.371,0.937,0.401,1.473,0.33c0.089-0.174,0.343-0.13,0.426-0.237c0.618-0.795,1.458-0.864,2.367-0.829
		c0.549,0.021,1.112,0.109,1.646-0.189c0.14-0.078,0.397-0.069,0.603,0.074c0.243,0.17,0.53,0.276,0.813,0.417
		c0.053,0.305,0.377,0.556,0.278,0.941c-0.021,0.079,0.041,0.204,0.102,0.275c0.633,0.734,0.697,1.727,1.166,2.544
		c0.314,0.548,0.438,1.188,0.48,1.858c0.049,0.765,0.3,1.519,0.5,2.268c0.032,0.121,0.146,0.236,0.118,0.38
		c-0.149,0.749,0.293,1.429,0.231,2.179c-0.062,0.75-0.014,1.51-0.014,2.266c0,0.936,0.015,1.871-0.005,2.807
		c-0.014,0.658,0.008,1.303-0.172,1.972c-0.155,0.58-0.239,1.178-0.416,1.771c-0.202,0.673-0.459,1.407-0.273,2.03
		c-0.297,0.797-0.88,1.342-0.864,2.146c0.001,0.063-0.013,0.148-0.055,0.19c-0.765,0.768-0.681,1.957-1.419,2.773
		c-0.375,0.415-0.421,1.111-0.696,1.64c-0.265,0.506-0.474,1.049-0.92,1.464C59.894,53.122,59.805,53.487,59.65,53.788z"/>
	<path fill="currentColor" d="M26.461,58.863c-0.599,0.208-1.09,0.336-1.541,0.548
		c-0.399,0.188-0.753,0.401-1.228,0.447c-0.48,0.047-0.85,0.435-1.166,0.825c-0.502,0-1.002,0-1.518,0
		c-0.948-0.885-2.034-1.623-3.079-2.417c-0.482-0.366-0.896-0.835-1.3-1.292c-0.393-0.443-0.904-0.765-1.173-1.346
		c-0.198-0.426-0.765-0.623-0.895-1.143c-0.75-0.553-1.036-1.473-1.676-2.115c-0.362-0.363-0.377-0.968-0.844-1.269
		c-0.294-1.035-1.146-1.819-1.313-2.911c-0.005-0.035,0.014-0.093-0.003-0.104c-0.598-0.417-0.601-1.127-0.798-1.722
		c-0.117-0.353-0.289-0.677-0.396-1.025c-0.127-0.417-0.405-0.806-0.314-1.272c0.098-0.505-0.357-0.913-0.229-1.419
		c-0.506-0.461-0.302-1.103-0.443-1.655c-0.369-1.445-0.135-2.898-0.183-4.344c-0.048-1.475-0.082-2.957,0.022-4.425
		c0.046-0.645,0.152-1.329,0.455-1.961c0.228-0.476,0.354-1.015,0.387-1.57c0.045-0.761,0.277-1.47,0.826-1.998
		c0.13-1.337,0.689-2.476,1.337-3.614c0.98,0.237,1.556-0.816,2.472-0.604c0.658,0.674,1.496,0.66,2.38,0.63
		c0.486-0.638,1.316-0.712,1.998-1.067c0.113-0.059,0.302-0.053,0.425-0.001c1.029,0.435,2.107,0.073,3.237,0.261
		c0.284,0.178,0.49,0.538,0.693,1.006c-0.067,1.009,0.472,1.933,1.01,2.821c0.337,0.556,0.954,0.881,1.556,1.159
		c0.423,0.196,0.882,0.35,1.248,0.625c0.395,0.297,0.701,0.713,1.004,1.032c1.035-0.012,1.627,0.673,2.29,1.182
		c0.355,0.273,0.676,0.582,1.093,0.763c0.178,0.03,0.234-0.135,0.347-0.215c0.428,0,0.86,0,1.264,0
		c0.692,0.458,0.875,1.237,1.19,1.895c0.43,0.894,1.068,1.519,1.889,1.987c0.968,0.553,1.892,1.152,2.648,2.063
		c0,0.369,0,0.794,0,1.281c-0.398,0.77-1.445,0.58-2.009,1.182c-0.695,0.018-1.336,0.112-1.931,0.579
		c-0.233,0.183-0.658,0.307-1.051,0.313c-0.549,0.01-1.089,0.124-1.491,0.56c-0.123,0.134-0.363,0.199-0.447,0.2
		c-0.998,0.016-1.672,0.892-2.638,0.957c-1.003,0.771-2.278,0.926-3.378,1.495c-1.798,0.929-3.767,2.189-4.733,3.375
		c0,0.295,0,0.581,0,0.836c0.294,0.377,0.508,0.82,0.859,1.069c0.792,0.561,1.484,1.296,2.516,1.481
		c0.555,0.1,0.996,0.518,1.547,0.693c0.539,0.172,1.11,0.206,1.631,0.496c0.489,0.271,1.033,0.494,1.63,0.5
		c0.151,0.001,0.313,0.114,0.448,0.209c0.732,0.51,1.607,0.83,2.161,1.69c0,0.16-0.028,0.414,0.005,0.659
		c0.105,0.786-0.221,1.441-0.845,1.79c-0.641,0.357-1.206,0.791-1.734,1.268C27.953,57.9,27.038,58.275,26.461,58.863z"/>
	<path fill="currentColor" d="M37.385,16.21c0.333,0,0.617,0,0.902,0c0.427,0.134,0.684,0.479,0.978,0.773
		c1.053,1.055,2.113,2.1,3.059,3.26c1.206,1.479,1.686,1.838,3.424,2.873c0.178,0.105,0.327,0.26,0.482,0.399
		c0.53,0.478,0.931,1.08,1.506,1.521c0.385,0.293,0.664,0.721,1.122,0.852c0.387,0.75-0.298,1.097-0.498,1.604
		c-0.672,0.241-0.979,0.979-1.652,1.218c-0.063,0.022-0.139,0.014-0.307,0.027c-0.237,0.01-0.491-0.206-0.708-0.389
		c-0.243-0.204-0.553-0.271-0.812-0.518c-1.048,0.565-1.916,1.309-2.405,2.446c-0.193,0.45-0.98,1.371-1.374,1.693
		c-0.156,0.128-0.269,0.28-0.37,0.476c-0.246,0.473-0.682,0.789-1.234,0.808c-0.538,0.019-0.893,0.317-1.237,0.654
		c-0.362,0-0.721,0-1.076,0c-0.664-0.665-1.324-1.327-1.986-1.986c-0.393-0.391-0.692-0.835-0.937-1.338
		c-0.32-0.657-0.783-1.205-1.571-1.437c-0.58,0.17-1.184,0.393-1.83,0.447c-0.661,0.055-1.213-0.231-1.5-0.751
		c-0.216-0.391-0.554-0.624-0.781-0.971c-0.297,0-0.582,0-0.908,0c-0.261-0.461-0.813-0.601-1.176-0.979
		c-0.349-0.363-0.71-0.713-1.072-1.076c0-0.208,0-0.422,0-0.645c0.051-0.094,0.163-0.083,0.251-0.125
		c0.838-0.394,1.56-0.959,2.277-1.541c0.825-0.667,1.677-1.305,2.558-1.896c0.603-0.405,1.191-0.811,1.724-1.308
		c0.704-0.656,1.404-1.32,2.299-1.734c0.472-0.218,0.805-0.654,1.199-0.977C36.294,17.129,36.966,16.782,37.385,16.21z
		 M36.799,22.463c0.551,0.237,1.154,0.331,1.721,0.767c0.416-0.589,1.038-0.198,1.521-0.374c0.14-0.165,0.332-0.247,0.267-0.517
		c-0.603-0.602-1.302-1.181-1.84-1.885c-0.276-0.362-0.563-0.493-0.914-0.607c-0.807,0.32-1.292,0.945-1.792,1.492
		c0.201,0.201,0.35,0.35,0.498,0.498c0.076,0.306-0.214,0.636,0.072,0.833C36.572,22.751,36.642,22.515,36.799,22.463z"/>
	
</g>
</svg>
