<svg xmlns="http://www.w3.org/2000/svg" xml:space="preserve" width="72px" height="72px" viewBox="0 0 72 72">
    <path fill="currentColor" d="M49.375 53.253c.205.145.407.285.699.49.273-.116.65.36 1.018.229.411-.148.802-.188 1.216-.188l.524.523c.171.361-.229.571-.208.889-.136.166-.431.062-.521.304-.641-.121-1.208.319-1.852.237-.227-.029-.482-.087-.697.138-.16.166-.43.108-.611.057-1.014-.289-2.082-.279-3.088-.62-.331-.111-.632-.228-.91-.447h-1.212c-.437.234-.799.539-1.208.629-1.267.277-1.838 1.241-2.375 2.251-.155.293.039.679-.242.988-.098.107-.201.267-.311.429h-.662c-.386-.195-.585-.61-.766-1.01-.244-.538-.215-.552-.607-.923-.13.014-.277.005-.404.052-.092.035-.156.145-.232.222-.177.784-.208 1.617-.666 2.209-.482.327-.722-.114-1.05-.131-.246-.474-.353-.998-.705-1.441-.414-.521-.521-1.218-.795-1.824-.261-.577-.684-.868-1.206-.995-.352-.085-.568-.37-.732-.363-.974-.319-1.603.353-2.359.339-.193.306-.5.214-.774.214-1.075-.001-2.166.107-3.168-.43-.673.104-1.286-.366-1.961-.213-.373.085-.61-.379-1.009-.208l-.531-.582v-.859l.622-.514c.315 0 .752.052 1.169-.015.395-.063.765-.272 1.207-.184-.049-.27-.232-.446-.325-.433-.79.122-1.291-.566-2-.676-.706-.109-1.255-.607-1.892-.898-.679-.309-1.124-.944-1.68-1.427-.597-.519-1.203-1.054-1.885-1.442-1.427-.813-2.348-2.063-3.225-3.388-.604-.912-1.276-1.78-1.935-2.655-.37-.491-.461-1.179-1.114-1.463.146-.481-.081-.844-.262-1.206-.289-.577-.585-1.146-.57-1.816a.74.74 0 0 0-.102-.391c-.656-1.207-.96-2.552-1.483-3.811-.103-.247-.155-.468-.132-.696.048-.472-.141-.894-.321-1.274a5.6 5.6 0 0 1-.549-2.76l.535-.516c.159-.017.236.054.33.095a2.85 2.85 0 0 1 1.483 1.533c.267.64.651 1.225.757 1.965.089.626.656 1.143.79 1.823.098.498.64.763.807 1.175.166.408.241.842.574 1.166.125.122.224.295.517.2-.014-.975.388-1.94.257-2.968a1.25 1.25 0 0 1 .203-.887c.488-.738.594-1.624.87-2.445.022-.064-.028-.176.007-.21.645-.613.686-1.523 1.111-2.242.412-.694.804-1.405 1.271-2.062.395-.556.886-1.028 1.195-1.666.189-.392.42-.743.56-1.177.113-.349.384-.723.633-1.02.328-.39.05-.878.387-1.263.246-.281.451-.638.57-1.055.109-.382.079-.786.282-1.177.255-.491.605-.958.703-1.546.041-.245.319-.451.457-.631 1.251.212.818 1.451 1.468 1.898v1.103c.228.152.415.103.669-.016 1.049-.494 1.947-1.215 2.917-1.828.638-.402 1.218-.874 1.836-1.295a4.6 4.6 0 0 0 1.213-1.186c.197-.29.399-.57.65-.796.268-.242.283-.633.598-.843.329-.219.404-.613.636-1.026.548-.384 1.165-.385 1.822.254.009.258-.033.537-.145.892-.327 1.035-.95 1.818-1.712 2.534-.557.523-.92 1.197-1.356 1.813-.017.024.014.086-.004.104-1.048 1.036-1.912 2.24-3.02 3.224-1.239 1.1-2.796 1.742-3.979 2.949-.958.978-1.879 1.945-2.503 3.169-.86.62-.841 1.769-1.509 2.508-.313.346-.217.787-.211 1.204.422.334.884.07 1.139-.143.536-.446 1.177-.667 1.753-1.014.508-.307 1.016-.674 1.656-.687.034-.001.086.003.1-.016.396-.57 1.058-.568 1.629-.764.317-.108.613-.265.91-.418.362-.188.81-.298 1.268-.335a6.3 6.3 0 0 0 2.742-.852c1.163.114 2.312-.145 3.422-.848.613-.068 1.34.161 2.016-.328-.1-.42-.302-.793-.672-1.08.127-.512-.163-.934-.295-1.387-.294-1.012-.136-1.895.651-2.637 1.049.08.937.962 1.209 1.58l1.256 1.256c.139.009.408.048.547-.23.312-.627.859-1.136.963-1.867.051-.36.367-.49.557-.705.355-.105.607.07.732.327.407.845.675 1.685.248 2.652-.279.632-.28 1.379-.671 1.969-.006.231.148.203.286.235.092.021.165.123.252.192.468.101.975-.132 1.439.152.669.41 1.341.736 2.181.769.439.018.894.406 1.346.62.536.253 1.13.157 1.672.398.459.204.855.577 1.349.64.515.066.901.278 1.264.622.138.131.35.25.532.257.493.017.805.319 1.178.57.271.183.61.48 1.043.233-.067-.597-.451-1.052-.788-1.407-.952-1.005-1.686-2.232-2.811-3.048-1.469-1.065-2.737-2.331-4.01-3.603-.53-.53-.91-1.202-1.585-1.598-.536-.314-.659-.945-.96-1.435-.173-.283-.232-.635-.494-.873-.053-.048-.146-.102-.146-.152.018-1.207-1.006-1.949-1.354-3.008-.171-.52-.436-.99-.396-1.562.019-.284.003-.571.003-.853.242-.164.354-.468.654-.545.617.342.98.925 1.267 1.49.486.961 1.139 1.772 1.801 2.607.959 1.21 2.174 2.049 3.46 2.839.654.402 1.28.864 1.714 1.471.354.089.604.012.824-.312 0-1.304.015-2.667-.007-4.028-.009-.548.088-1.031.527-1.438h.936l.338.564c.212.499.258 1.103.695 1.605.208.238.34.562.334.941-.009.633.356 1.375.858 1.957-.164.813.369 1.6.207 2.454.426.719.482 1.625 1.065 2.253.543.585.889 1.295 1.265 1.968.527.944.987 1.914 1.69 2.757.335.403.562.913.767 1.404.246.588.836 1 .85 1.699.331.239.135.593.197.891.163.789.104 1.64.644 2.356v.844l.31.558c.157-.044.243-.042.283-.083.63-.647 1.206-1.343 1.676-2.113.35-.572.913-.905 1.372-1.353.45-.438.812-.987 1.571-1.213.266.031.737-.192 1.033.291.089.712-.085 1.299-.531 1.926-.437.614-.778 1.324-1.168 1.99-.828 1.415-1.341 3.004-2.379 4.303-.138.89-1.078 1.409-1.085 2.358-.705.633-.911 1.574-1.389 2.349-.474.767-1.032 1.496-1.416 2.319-.191.412-.524.733-.796 1.063-.694.841-1.335 1.741-2.181 2.454a27 27 0 0 1-2.143 1.631c-.666.455-1.553.575-2.312.911-.597.265-1.305.075-1.879.539M40.6 49.891c.747-.533 1.188-1.319 1.667-2.08.411-.654.725-1.361 1.146-2.014.436-.673.913-1.361 1.184-2.095.247-.671.606-1.263.818-1.808.291-1.549.579-2.994.737-4.461.163-1.521-.299-3.017-.223-4.344l.511-.672h.688c.657.547.839 1.332 1.197 2.016.1.189.209.339.206.566-.012.792.014 1.584-.01 2.375-.022.773.418 1.493.202 2.242l.371.37c1.339-1.013 1.799-2.655 2.762-3.915h.884l.561.561c-.109 1.073-.478 2.132-.476 3.218-.073.1-.149.176-.192.268-.415.887-.767 1.818-1.494 2.51-.701.665-1.161 1.564-2.04 2.058-.478.269-.587.86-.992 1.208-.773.664-1.208 1.607-1.89 2.356-.254.279-.513.759-.162 1.211.456.056.769-.242 1.124-.431.86 0 .854-.015 1.77-.421.206-.093.391-.227.658-.254.383-.039.771-.22 1.115-.413.883-.496 1.672-1.141 2.557-1.643.376-.214.687-.537 1.096-.746.532-.271.943-.743 1.272-1.246.273-.419.365-.944.746-1.31.395-.38.309-.944.513-1.407.263-.599.253-1.276.283-1.941.032-.726-.469-1.283-.47-1.976-.632-.616-1.017-1.475-1.766-1.958-.945-.609-1.683-1.514-2.764-1.922-1.157-1.084-2.668-1.544-4.047-2.228-.316-.157-.735-.327-1.193-.278-.331.036-.703-.178-1.037-.324-.692-.304-1.38-.604-2.165-.512-.142.017-.304.044-.429-.004-1.096-.43-2.276-.407-3.411-.604-1.014-.176-2.085.016-3.125-.051-1.068-.069-2.087.347-3.15.231-.036-.004-.094-.015-.105.001-.313.481-.858.049-1.271.346-.363.261-.906.104-1.359.067-.414-.035-.732.152-1.084.271-.042.014-.053.116-.097.22.12.279.587.189.668.588-.055.818-.042 1.682-.179 2.563-.278 1.794.168 3.603.177 5.411.369.369.114.874.279 1.288a7.9 7.9 0 0 1 .587 3.213c-.01.309.077.589.18.893.195.572.598 1.106.641 1.668.057.753.606 1.14.929 1.675.391.65 1.028 1.094 1.768 1.28l.364-.364v-1.721l.125.118.403-.696c1.144.286 1.451.61 1.722 1.742h.423c.527-.197.631-.755.729-1.167.112-.473.288-.73.711-.889.073-.027.105-.094.156-.04.074.221.318.111.445.229.454.936.299 1.881.02 2.794.192.288.405.448.736.378M17.153 38.913c.38.32.295.703.256 1.033-.043.377.083.754.258.971.58.722.863 1.615 1.475 2.315.658.754 1.318 1.524 2.122 2.092.419.295.927.546 1.36.845.447.309 1.085.335 1.362.895.272-.067.394.227.653.26.354.046.705.2 1.034.354.759.358 1.541.575 2.386.486.058-.006.109-.073.161-.109v-.391c-.301-.343-.745-.624-.829-.988-.205-.886-.973-1.46-1.157-2.332-.411-.298-.432-.863-.772-1.184-.564-.531-.722-1.337-1.321-1.85-.094-.081-.3-.346-.26-.644.027-.199-.099-.48-.249-.635-.53-.546-.606-1.212-.598-1.861-.423-.669-.673-1.356-.878-2.039l.308-.672c.269.057.377-.304.62-.217.567.12 1.004.508 1.214.947.312.65.729 1.212 1.122 1.797.364.543.668 1.164 1.375 1.349.127-.127.318-.229.316-.33-.011-.595.329-1.124.263-1.739-.068-.64-.021-1.293-.011-1.94.003-.201.052-.393.114-.596.187-.611.631-1.15.68-1.76.056-.696.61-1.168.642-1.855-.991-.11-1.875.441-2.846.427-.227.196-.421.38-.781.455-.811.167-1.584.501-2.313.912-.087.05-.137.14-.266.146-.476.02-.847.268-1.141.619-.185.221-.4.269-.713.232-.412.756-1.363.843-1.931 1.5s-.86 1.466-1.371 2.071c-.062.502.123.981-.284 1.436"/>
</svg>
