<svg xmlns="http://www.w3.org/2000/svg" xml:space="preserve" width="72px" height="72px" viewBox="0 0 72 72">
    <path fill="currentColor" d="M24.24 51.884c-.334-.711.193-1.159.074-1.73-.25-.011-.316.227-.458.338-.168.133-.309.301-.461.453s-.315.298-.456.461c-.132.152-.248.32-.356.493-.241.386-.614.691-.946 1.017-.402.395-.783.79-.772 1.414.001.075-.134.153-.193.217-.044.184.15.289.148.38-.027.918.567 1.465 1.163 2.008.651.593 1.194 1.289 1.956 1.781.516.333.896.867 1.249 1.406.593.905 1.24 1.774 1.791 2.776-.584.586-.687 1.443-1.203 2.109-.726.016-1.457.088-2.271-.313-1.349-1.262-1.468-1.45-1.553-2.633l-.751-.487c-.513-.085-1.015-.521-1.464-1.22-.733-1.141-1.401-2.33-2.258-3.393-.362-.45-.728-.916-.983-1.429-.337-.677-.854-1.222-1.229-1.878v-1.493c.384-.385.771-.761 1.146-1.149.732-.757.809-1.259.146-2.057-.346-.417-.326-.949-.654-1.362-.306-.385-.566-.824-.655-1.346-.043-.251-.247-.471-.35-.716-.279-.658-.569-1.31-.509-2.062.035-.442.125-.922-.477-1.307-.146.044-.535-.204-.879.121-.062.059-.22.081-.296.044-.938-.452-2.17-.378-2.685-1.605-.163-.388-.66-.615-.838-1.065 0-.681.019-1.362-.006-2.043-.02-.521.158-.934.514-1.304.236-.246.595-.412.598-.812 1.136-.663 2.28-.709 3.39-.235.403.405.376.983.847 1.254.5-.095.563-.563.692-.914.297-.804.734-1.517 1.261-2.177.753-.943 1.531-1.866 2.209-2.867v-1.081c.545-.158.82-.587 1.035-1.103l-.201-.233c.496-.843.819-1.786 1.517-2.582a53 53 0 0 1 1.868-2.017c.365-.377.474-.95.974-1.142-.064-.641.398-.993.539-1.502l1.47-.752.569-1.104v-.797l.576-.527h.797c.224-.147.374-.327.401-.589.331-.063.563-.429.91-.271.761-.682 1.219-1.65 2.215-1.78.373-.332.349-.786.625-1.029.269-.237.628-.373.743-.761v-1.076c.779-.586 1.702-.204 2.58-.38-.022-.487-.292-.819-.625-1.131V8.963l.704-.354 2.967.912.6-.71c.484.241.786.557 1.237.471.124-.377.361-.661.695-.859.469.077.786.401.966.579.46.178.602-.144.846-.146.531.216.722.765.981 1.176.312.496.698.898 1.119 1.244.433.356.944.643 1.578.613 1.005-.047 1.997.166 2.842.674.384.231.821.011 1.159.377.227.245.654.303.987.454.092.042.168.12.272.197.371.074.822-.109 1.168.232.426-.1.729-.554 1.226-.43.407.101.771.284 1.036.649.369-.064.728.083 1.114-.183.238-.164.706-.135.858.14.46 1.558-.412 2.492-1.25 3.453-.743.086-1.459.261-2.063.735.074.428.573.326.803.751.131.627-.229 1.504.453 2.125-.092.623-.555.964-.856 1.279-1.631.658-3.247.563-4.888.547-.233.505-.786.491-1.217.634-.913.302-1.812.583-2.472 1.342-.226.26-.56.467-.836.583-.935.392-.987 1.24-1.164 2.005-.103.442-.019.928-.019 1.386a.47.47 0 0 0 .593.039c.683-.48 1.511-.538 2.271-.77.28-.085.589-.147.872-.251.988-.361 1.974-.31 2.918.092.555.236 1.097.398 1.693.343.636-.06 1.238.127 1.856.2.616.072 1.188.283 1.776.399.634.125 1.266.456 1.882.26.576.333 1.154.542 1.722 1.175.143.646.751 1.455.591 2.449-.698.538-1.489.87-2.276 1.097-.521.15-1.12-.201-1.588-.523-.485-.334-1.034-.611-1.338-1.166-.604 0-1.18-.042-1.745.015-.388.038-.717-.127-.948-.313-.287-.229-.608-.291-.906-.441-.346-.174-.606-.088-.968.013-.645.179-1.24.594-1.813.527l-.903.913c.051.18.188.331.481.374 1.135.163 1.977.958 2.969 1.431.815.389 1.536.979 2.356 1.354 1.104.503 2.056 1.257 3.142 1.793.499.247.925.754 1.172 1.457-.18.555.286 1.158.228 1.855l-.549.5c-.356.027-.823-.069-1.107.115-.41.268-.635-.027-.947-.074-.386-.058-.787-.014-.989-.014-.783-.229-1.108-.763-1.553-1.139-.052-.427-.173-.792-.447-1.131-.251-.31-.458-.638-.868-.756-.238.016-.384.323-.782.171-.846-.667-1.919-1.232-2.83-2.135-1.153.21-2.315-.28-3.52-.199-.394.026-.803.063-1.185-.011-.423-.083-.737.184-1.093.268-1.123.263-2.241.486-3.392.38-.415-.038-.703.316-1.1.231-1.852 1.624-3.679 3.277-5.741 4.583-.125.461.108.805.345 1.059.563.607.546 1.437.908 2.116.176.331-.363.604-.204.984-.396.557-.318 1.331-.772 1.833-.469.52-.588 1.214-1.037 1.746-.287.34-.464.825-.549 1.271-.127.673.044 1.284.571 1.81.913.911 2.037 1.531 3.038 2.317.662.521 1.368.965 1.906 1.68.477.635.896 1.361 1.461 1.755.598 1.259.46 2.267-.675 3.035h-1.419c-.892-.578-2.011-.782-2.519-1.839v-1.266c-.344-.497-.945-.332-1.377-.608-.826-.951-1.871-1.703-2.849-2.511-.712-.588-1.307-1.303-2.044-1.834-.557-.402-.971-.983-1.632-1.258-.215-.088-.372-.324-.406-.356M13.039 37.808c-.399-.257-.357-.713-.712-.871-.487-.127-.668.297-.945.534-.045.859-.073 1.707 1.221 2.078.355.045.9-.083 1.35-.541.248-.252.344-.568.479-.853l-.348-.348zM52.12 17.741c-.94-.182-1.736.224-2.527.624-.307.155-.609.348-.652.809h2.334c.379-.345.678-.774 1.14-.944.009-.294-.207-.349-.295-.489"/>
</svg>
