<?xml version="1.0" encoding="iso-8859-1"?>
<!-- Generator: Adobe Illustrator 16.0.0, SVG Export Plug-In . SVG Version: 6.00 Build 0)  -->
<!DOCTYPE svg PUBLIC "-//W3C//DTD SVG 1.1//EN" "http://www.w3.org/Graphics/SVG/1.1/DTD/svg11.dtd">
<svg version="1.1" id="Layer_1" xmlns="http://www.w3.org/2000/svg" xmlns:xlink="http://www.w3.org/1999/xlink" x="0px" y="0px"
	 width="72.36px" height="71.459px" viewBox="0 0 72.36 71.459" style="enable-background:new 0 0 72.36 71.459;"
	 xml:space="preserve">
<g>
	<path style="fill-rule:evenodd;clip-rule:evenodd;fill:none;" d="M79.416,78.839c-28.8,0-57.6,0-86.399,0
		c0-28.584,0-57.167,0-85.751c28.8,0,57.6,0,86.399,0C79.416,21.672,79.416,50.255,79.416,78.839z M49.375,53.253
		c0.573-0.465,1.281-0.274,1.877-0.538c0.759-0.336,1.646-0.456,2.312-0.911c0.733-0.5,1.455-1.052,2.143-1.631
		c0.846-0.713,1.486-1.613,2.181-2.454c0.271-0.329,0.604-0.65,0.796-1.063c0.384-0.823,0.942-1.553,1.416-2.319
		c0.478-0.774,0.684-1.716,1.389-2.349c0.007-0.949,0.947-1.469,1.085-2.358c1.038-1.299,1.551-2.889,2.379-4.303
		c0.39-0.666,0.731-1.375,1.168-1.99c0.446-0.627,0.62-1.214,0.531-1.926c-0.296-0.483-0.768-0.259-1.033-0.291
		c-0.76,0.226-1.121,0.774-1.571,1.213c-0.459,0.447-1.022,0.781-1.372,1.353c-0.47,0.77-1.046,1.465-1.676,2.113
		c-0.04,0.042-0.126,0.039-0.283,0.083c-0.063-0.113-0.149-0.27-0.31-0.558c0-0.157,0-0.516,0-0.844
		c-0.539-0.717-0.48-1.568-0.644-2.356c-0.063-0.298,0.134-0.652-0.197-0.891c-0.014-0.699-0.604-1.111-0.85-1.699
		c-0.205-0.491-0.432-1.001-0.767-1.404c-0.703-0.843-1.163-1.813-1.69-2.757c-0.376-0.673-0.722-1.382-1.265-1.968
		c-0.583-0.628-0.64-1.534-1.065-2.253c0.162-0.854-0.371-1.641-0.207-2.454c-0.502-0.583-0.867-1.324-0.858-1.957
		c0.006-0.38-0.126-0.703-0.334-0.941c-0.438-0.502-0.483-1.106-0.695-1.605c-0.13-0.217-0.26-0.434-0.338-0.564
		c-0.397,0-0.68,0-0.936,0c-0.439,0.407-0.536,0.89-0.527,1.438c0.021,1.362,0.007,2.725,0.007,4.028
		c-0.221,0.323-0.471,0.4-0.824,0.312c-0.434-0.606-1.06-1.069-1.714-1.471c-1.286-0.79-2.501-1.628-3.46-2.839
		c-0.662-0.835-1.314-1.646-1.801-2.607c-0.286-0.565-0.649-1.148-1.267-1.49c-0.301,0.077-0.412,0.381-0.654,0.545
		c0,0.281,0.016,0.568-0.003,0.853c-0.039,0.571,0.226,1.042,0.396,1.562c0.348,1.059,1.371,1.801,1.354,3.008
		c0,0.05,0.094,0.104,0.146,0.152c0.262,0.238,0.321,0.59,0.494,0.873c0.301,0.49,0.424,1.121,0.96,1.435
		c0.675,0.396,1.055,1.068,1.585,1.598c1.272,1.272,2.541,2.538,4.01,3.603c1.125,0.816,1.858,2.043,2.811,3.048
		c0.337,0.355,0.721,0.81,0.788,1.407c-0.433,0.248-0.771-0.05-1.043-0.233c-0.373-0.251-0.685-0.553-1.178-0.57
		c-0.183-0.006-0.395-0.126-0.532-0.257c-0.362-0.344-0.749-0.556-1.264-0.622c-0.493-0.063-0.89-0.437-1.349-0.64
		c-0.542-0.241-1.136-0.146-1.672-0.398c-0.452-0.213-0.906-0.602-1.346-0.62c-0.84-0.033-1.512-0.359-2.181-0.769
		c-0.465-0.285-0.972-0.051-1.439-0.152c-0.087-0.069-0.16-0.171-0.252-0.192c-0.138-0.033-0.292-0.004-0.286-0.235
		c0.391-0.59,0.392-1.337,0.671-1.969c0.427-0.968,0.159-1.808-0.248-2.652c-0.125-0.257-0.377-0.433-0.732-0.327
		c-0.189,0.215-0.506,0.345-0.557,0.705c-0.104,0.731-0.651,1.24-0.963,1.867c-0.139,0.278-0.408,0.239-0.547,0.23
		c-0.463-0.463-0.867-0.866-1.256-1.256c-0.273-0.618-0.16-1.5-1.209-1.58c-0.787,0.743-0.945,1.625-0.651,2.637
		c0.132,0.453,0.422,0.875,0.295,1.387c0.371,0.287,0.573,0.66,0.672,1.08c-0.675,0.489-1.403,0.259-2.016,0.328
		c-1.11,0.703-2.259,0.961-3.422,0.848c-0.89,0.524-1.803,0.774-2.742,0.852c-0.458,0.038-0.906,0.148-1.268,0.335
		c-0.296,0.154-0.592,0.31-0.91,0.418c-0.571,0.195-1.233,0.194-1.629,0.764c-0.013,0.019-0.065,0.015-0.1,0.016
		c-0.641,0.013-1.148,0.38-1.656,0.687c-0.576,0.348-1.217,0.568-1.753,1.014c-0.255,0.213-0.717,0.477-1.139,0.143
		c-0.006-0.417-0.102-0.857,0.211-1.204c0.668-0.739,0.649-1.888,1.509-2.508c0.625-1.224,1.546-2.191,2.503-3.169
		c1.182-1.207,2.739-1.85,3.979-2.949c1.108-0.983,1.972-2.188,3.02-3.224c0.018-0.018-0.013-0.08,0.004-0.104
		c0.436-0.617,0.799-1.29,1.356-1.813c0.762-0.716,1.385-1.499,1.712-2.534c0.112-0.354,0.154-0.633,0.145-0.892
		c-0.658-0.639-1.274-0.638-1.822-0.254c-0.232,0.413-0.308,0.807-0.636,1.026c-0.314,0.21-0.33,0.602-0.598,0.843
		c-0.251,0.226-0.453,0.506-0.65,0.796c-0.31,0.455-0.735,0.86-1.213,1.186c-0.618,0.422-1.198,0.893-1.836,1.295
		c-0.97,0.612-1.868,1.334-2.917,1.828c-0.254,0.119-0.441,0.168-0.669,0.016c0-0.367,0-0.726,0-1.103
		c-0.65-0.447-0.217-1.686-1.468-1.898c-0.138,0.181-0.416,0.386-0.457,0.631c-0.098,0.587-0.448,1.055-0.703,1.546
		c-0.204,0.392-0.173,0.795-0.282,1.177c-0.119,0.417-0.324,0.773-0.57,1.055c-0.337,0.385-0.059,0.873-0.387,1.263
		c-0.249,0.296-0.521,0.67-0.633,1.02c-0.14,0.435-0.371,0.785-0.56,1.177c-0.309,0.638-0.8,1.109-1.195,1.666
		c-0.467,0.657-0.859,1.367-1.271,2.062c-0.425,0.719-0.466,1.628-1.111,2.242c-0.036,0.034,0.015,0.146-0.007,0.21
		c-0.275,0.821-0.382,1.707-0.87,2.445c-0.189,0.287-0.242,0.578-0.203,0.887c0.131,1.028-0.271,1.993-0.257,2.968
		c-0.293,0.095-0.392-0.078-0.517-0.2c-0.333-0.324-0.409-0.758-0.574-1.166c-0.167-0.412-0.709-0.677-0.807-1.175
		c-0.133-0.68-0.701-1.197-0.79-1.823c-0.106-0.741-0.49-1.326-0.757-1.965c-0.278-0.666-0.779-1.22-1.483-1.533
		c-0.094-0.042-0.171-0.112-0.33-0.095c-0.173,0.167-0.373,0.36-0.535,0.516c-0.048,1.016,0.14,1.898,0.549,2.76
		c0.181,0.38,0.37,0.803,0.321,1.274c-0.023,0.229,0.029,0.45,0.132,0.696c0.523,1.258,0.827,2.604,1.483,3.811
		c0.074,0.136,0.105,0.252,0.102,0.391c-0.015,0.671,0.281,1.239,0.57,1.816c0.181,0.362,0.408,0.725,0.262,1.206
		c0.652,0.284,0.744,0.972,1.114,1.463c0.659,0.875,1.331,1.743,1.935,2.655c0.876,1.325,1.797,2.574,3.225,3.388
		c0.682,0.389,1.288,0.924,1.885,1.442c0.557,0.482,1.001,1.118,1.68,1.427c0.637,0.291,1.186,0.789,1.892,0.898
		c0.709,0.109,1.21,0.798,2,0.676c0.093-0.014,0.276,0.163,0.325,0.433c-0.442-0.089-0.812,0.12-1.207,0.184
		c-0.417,0.066-0.854,0.015-1.169,0.015c-0.269,0.222-0.461,0.382-0.622,0.514c0,0.337,0,0.623,0,0.859
		c0.197,0.215,0.366,0.4,0.531,0.582c0.398-0.171,0.636,0.293,1.009,0.208c0.675-0.153,1.288,0.317,1.961,0.213
		c1.003,0.537,2.093,0.429,3.168,0.43c0.274,0,0.581,0.092,0.774-0.214c0.756,0.014,1.385-0.658,2.359-0.339
		c0.164-0.007,0.38,0.278,0.732,0.363c0.522,0.127,0.945,0.418,1.206,0.995c0.274,0.606,0.382,1.304,0.795,1.824
		c0.352,0.443,0.459,0.968,0.705,1.441c0.328,0.017,0.568,0.458,1.05,0.131c0.458-0.592,0.489-1.425,0.667-2.209
		c0.076-0.077,0.14-0.187,0.232-0.222c0.127-0.047,0.274-0.038,0.404-0.052c0.393,0.371,0.363,0.385,0.607,0.923
		c0.181,0.399,0.38,0.814,0.766,1.01c0.254,0,0.464,0,0.662,0c0.109-0.161,0.213-0.321,0.311-0.429
		c0.281-0.31,0.087-0.695,0.242-0.988c0.537-1.01,1.108-1.974,2.375-2.251c0.409-0.09,0.771-0.395,1.208-0.629
		c0.364,0,0.795,0,1.212,0c0.278,0.22,0.579,0.336,0.91,0.447c1.006,0.341,2.074,0.331,3.088,0.62
		c0.182,0.052,0.451,0.109,0.611-0.057c0.215-0.225,0.471-0.167,0.697-0.138c0.644,0.082,1.211-0.358,1.852-0.237
		c0.091-0.242,0.386-0.138,0.521-0.304c-0.021-0.317,0.379-0.527,0.208-0.889c-0.168-0.168-0.346-0.346-0.523-0.523
		c-0.415-0.001-0.806,0.039-1.217,0.188c-0.367,0.132-0.744-0.345-1.018-0.229C49.783,53.539,49.581,53.398,49.375,53.253z"/>
	<path style="fill-rule:evenodd;clip-rule:evenodd;" d="M49.375,53.253c0.205,0.145,0.407,0.285,0.699,0.49
		c0.273-0.116,0.65,0.36,1.018,0.229c0.411-0.148,0.802-0.188,1.216-0.188c0.179,0.178,0.356,0.355,0.524,0.523
		c0.171,0.361-0.229,0.571-0.208,0.889c-0.136,0.166-0.431,0.062-0.521,0.304c-0.641-0.121-1.208,0.319-1.852,0.237
		c-0.227-0.029-0.482-0.087-0.697,0.138c-0.16,0.166-0.43,0.108-0.611,0.057c-1.014-0.289-2.082-0.279-3.088-0.62
		c-0.331-0.111-0.632-0.228-0.91-0.447c-0.417,0-0.848,0-1.212,0c-0.437,0.234-0.799,0.539-1.208,0.629
		c-1.267,0.277-1.838,1.241-2.375,2.251c-0.155,0.293,0.039,0.679-0.242,0.988C39.81,58.84,39.707,59,39.597,59.162
		c-0.198,0-0.408,0-0.662,0c-0.386-0.195-0.585-0.61-0.766-1.01c-0.244-0.538-0.215-0.552-0.607-0.923
		c-0.13,0.014-0.277,0.005-0.404,0.052c-0.092,0.035-0.156,0.145-0.232,0.222c-0.177,0.784-0.208,1.617-0.666,2.209
		c-0.482,0.327-0.722-0.114-1.05-0.131c-0.246-0.474-0.353-0.998-0.705-1.441c-0.414-0.521-0.521-1.218-0.795-1.824
		c-0.261-0.577-0.684-0.868-1.206-0.995c-0.352-0.085-0.568-0.37-0.732-0.363c-0.974-0.319-1.603,0.353-2.359,0.339
		c-0.193,0.306-0.5,0.214-0.774,0.214c-1.075-0.001-2.166,0.107-3.168-0.43c-0.673,0.104-1.286-0.366-1.961-0.213
		c-0.373,0.085-0.61-0.379-1.009-0.208c-0.165-0.182-0.334-0.367-0.531-0.582c0-0.236,0-0.522,0-0.859
		c0.16-0.132,0.353-0.292,0.622-0.514c0.315,0,0.752,0.052,1.169-0.015c0.395-0.063,0.765-0.272,1.207-0.184
		c-0.049-0.27-0.232-0.446-0.325-0.433c-0.79,0.122-1.291-0.566-2-0.676c-0.706-0.109-1.255-0.607-1.892-0.898
		c-0.679-0.309-1.124-0.944-1.68-1.427c-0.597-0.519-1.203-1.054-1.885-1.442c-1.427-0.813-2.348-2.063-3.225-3.388
		c-0.604-0.912-1.276-1.78-1.935-2.655c-0.37-0.491-0.461-1.179-1.114-1.463c0.146-0.481-0.081-0.844-0.262-1.206
		c-0.289-0.577-0.585-1.146-0.57-1.816c0.003-0.139-0.028-0.255-0.102-0.391c-0.656-1.207-0.96-2.552-1.483-3.811
		c-0.103-0.247-0.155-0.468-0.132-0.696c0.048-0.472-0.141-0.894-0.321-1.274c-0.41-0.862-0.597-1.744-0.549-2.76
		c0.162-0.156,0.362-0.349,0.535-0.516c0.159-0.017,0.236,0.054,0.33,0.095c0.704,0.313,1.205,0.867,1.483,1.533
		c0.267,0.64,0.651,1.225,0.757,1.965c0.089,0.626,0.656,1.143,0.79,1.823c0.098,0.498,0.64,0.763,0.807,1.175
		c0.166,0.408,0.241,0.842,0.574,1.166c0.125,0.122,0.224,0.295,0.517,0.2c-0.014-0.975,0.388-1.94,0.257-2.968
		c-0.04-0.31,0.014-0.601,0.203-0.887c0.488-0.738,0.594-1.624,0.87-2.445c0.022-0.064-0.028-0.176,0.007-0.21
		c0.645-0.613,0.686-1.523,1.111-2.242c0.412-0.694,0.804-1.405,1.271-2.062c0.395-0.556,0.886-1.028,1.195-1.666
		c0.189-0.392,0.42-0.743,0.56-1.177c0.113-0.349,0.384-0.723,0.633-1.02c0.328-0.39,0.05-0.878,0.387-1.263
		c0.246-0.281,0.451-0.638,0.57-1.055c0.109-0.382,0.079-0.786,0.282-1.177c0.255-0.491,0.605-0.958,0.703-1.546
		c0.041-0.245,0.319-0.451,0.457-0.631c1.251,0.212,0.818,1.451,1.468,1.898c0,0.377,0,0.736,0,1.103
		c0.228,0.152,0.415,0.103,0.669-0.016c1.049-0.494,1.947-1.215,2.917-1.828c0.638-0.402,1.218-0.874,1.836-1.295
		c0.478-0.326,0.903-0.731,1.213-1.186c0.197-0.29,0.399-0.57,0.65-0.796c0.268-0.242,0.283-0.633,0.598-0.843
		c0.329-0.219,0.404-0.613,0.636-1.026c0.548-0.384,1.165-0.385,1.822,0.254c0.009,0.258-0.033,0.537-0.145,0.892
		c-0.327,1.035-0.95,1.818-1.712,2.534c-0.557,0.523-0.92,1.197-1.356,1.813c-0.017,0.024,0.014,0.086-0.004,0.104
		c-1.048,1.036-1.912,2.24-3.02,3.224c-1.239,1.1-2.796,1.742-3.979,2.949c-0.958,0.978-1.879,1.945-2.503,3.169
		c-0.86,0.62-0.841,1.769-1.509,2.508c-0.313,0.346-0.217,0.787-0.211,1.204c0.422,0.334,0.884,0.07,1.139-0.143
		c0.536-0.446,1.177-0.667,1.753-1.014c0.508-0.307,1.016-0.674,1.656-0.687c0.034-0.001,0.086,0.003,0.1-0.016
		c0.396-0.57,1.058-0.568,1.629-0.764c0.317-0.108,0.613-0.265,0.91-0.418c0.362-0.188,0.81-0.298,1.268-0.335
		c0.939-0.078,1.852-0.327,2.742-0.852c1.163,0.114,2.312-0.145,3.422-0.848c0.613-0.068,1.34,0.161,2.016-0.328
		c-0.1-0.42-0.302-0.793-0.672-1.08c0.127-0.512-0.163-0.934-0.295-1.387c-0.294-1.012-0.136-1.895,0.651-2.637
		c1.049,0.08,0.937,0.962,1.209,1.58c0.389,0.39,0.793,0.793,1.256,1.256c0.139,0.009,0.408,0.048,0.547-0.23
		c0.312-0.627,0.859-1.136,0.963-1.867c0.051-0.36,0.367-0.49,0.557-0.705c0.355-0.105,0.607,0.07,0.732,0.327
		c0.407,0.845,0.675,1.685,0.248,2.652c-0.279,0.632-0.28,1.379-0.671,1.969c-0.006,0.231,0.148,0.203,0.286,0.235
		c0.092,0.021,0.165,0.123,0.252,0.192c0.468,0.101,0.975-0.132,1.439,0.152c0.669,0.41,1.341,0.736,2.181,0.769
		c0.439,0.018,0.894,0.406,1.346,0.62c0.536,0.253,1.13,0.157,1.672,0.398c0.459,0.204,0.855,0.577,1.349,0.64
		c0.515,0.066,0.901,0.278,1.264,0.622c0.138,0.131,0.35,0.25,0.532,0.257c0.493,0.017,0.805,0.319,1.178,0.57
		c0.271,0.183,0.61,0.48,1.043,0.233c-0.067-0.597-0.451-1.052-0.788-1.407c-0.952-1.005-1.686-2.232-2.811-3.048
		c-1.469-1.065-2.737-2.331-4.01-3.603c-0.53-0.53-0.91-1.202-1.585-1.598c-0.536-0.314-0.659-0.945-0.96-1.435
		c-0.173-0.283-0.232-0.635-0.494-0.873c-0.053-0.048-0.146-0.102-0.146-0.152c0.018-1.207-1.006-1.949-1.354-3.008
		c-0.171-0.52-0.436-0.99-0.396-1.562c0.019-0.284,0.003-0.571,0.003-0.853c0.242-0.164,0.354-0.468,0.654-0.545
		c0.617,0.342,0.98,0.925,1.267,1.49c0.486,0.961,1.139,1.772,1.801,2.607c0.959,1.21,2.174,2.049,3.46,2.839
		c0.654,0.402,1.28,0.864,1.714,1.471c0.354,0.089,0.604,0.012,0.824-0.312c0-1.304,0.015-2.667-0.007-4.028
		c-0.009-0.548,0.088-1.031,0.527-1.438c0.256,0,0.538,0,0.936,0c0.078,0.131,0.208,0.348,0.338,0.564
		c0.212,0.499,0.258,1.103,0.695,1.605c0.208,0.238,0.34,0.562,0.334,0.941c-0.009,0.633,0.356,1.375,0.858,1.957
		c-0.164,0.813,0.369,1.6,0.207,2.454c0.426,0.719,0.482,1.625,1.065,2.253c0.543,0.585,0.889,1.295,1.265,1.968
		c0.527,0.944,0.987,1.914,1.69,2.757c0.335,0.403,0.562,0.913,0.767,1.404c0.246,0.588,0.836,1,0.85,1.699
		c0.331,0.239,0.135,0.593,0.197,0.891c0.163,0.789,0.104,1.64,0.644,2.356c0,0.328,0,0.687,0,0.844
		c0.16,0.289,0.247,0.445,0.31,0.558c0.157-0.044,0.243-0.042,0.283-0.083c0.63-0.647,1.206-1.343,1.676-2.113
		c0.35-0.572,0.913-0.905,1.372-1.353c0.45-0.438,0.812-0.987,1.571-1.213c0.266,0.031,0.737-0.192,1.033,0.291
		c0.089,0.712-0.085,1.299-0.531,1.926c-0.437,0.614-0.778,1.324-1.168,1.99c-0.828,1.415-1.341,3.004-2.379,4.303
		c-0.138,0.89-1.078,1.409-1.085,2.358c-0.705,0.633-0.911,1.574-1.389,2.349c-0.474,0.767-1.032,1.496-1.416,2.319
		c-0.191,0.412-0.524,0.733-0.796,1.063c-0.694,0.841-1.335,1.741-2.181,2.454c-0.688,0.579-1.409,1.131-2.143,1.631
		c-0.666,0.455-1.553,0.575-2.312,0.911C50.657,52.979,49.949,52.789,49.375,53.253z M40.6,49.891
		c0.747-0.533,1.188-1.319,1.667-2.08c0.411-0.654,0.725-1.361,1.146-2.014c0.436-0.673,0.913-1.361,1.184-2.095
		c0.247-0.671,0.606-1.263,0.818-1.808c0.291-1.549,0.579-2.994,0.737-4.461c0.163-1.521-0.299-3.017-0.223-4.344
		c0.254-0.335,0.405-0.533,0.511-0.672c0.298,0,0.509,0,0.688,0c0.657,0.547,0.839,1.332,1.197,2.016
		c0.1,0.189,0.209,0.339,0.206,0.566c-0.012,0.792,0.014,1.584-0.01,2.375c-0.022,0.773,0.418,1.493,0.202,2.242
		c0.139,0.139,0.241,0.24,0.371,0.37c1.339-1.013,1.799-2.655,2.762-3.915c0.311,0,0.598,0,0.884,0
		c0.18,0.18,0.357,0.358,0.561,0.561c-0.109,1.073-0.478,2.132-0.476,3.218c-0.073,0.1-0.149,0.176-0.192,0.268
		c-0.415,0.887-0.767,1.818-1.494,2.51c-0.701,0.665-1.161,1.564-2.04,2.058c-0.478,0.269-0.587,0.86-0.992,1.208
		c-0.773,0.664-1.208,1.607-1.89,2.356c-0.254,0.279-0.513,0.759-0.162,1.211c0.456,0.056,0.769-0.242,1.124-0.431
		c0.86,0,0.854-0.015,1.77-0.421c0.206-0.093,0.391-0.227,0.658-0.254c0.383-0.039,0.771-0.22,1.115-0.413
		c0.883-0.496,1.672-1.141,2.557-1.643c0.376-0.214,0.687-0.537,1.096-0.746c0.532-0.271,0.943-0.743,1.272-1.246
		c0.273-0.419,0.365-0.944,0.746-1.31c0.395-0.38,0.309-0.944,0.513-1.407c0.263-0.599,0.253-1.276,0.283-1.941
		c0.032-0.726-0.469-1.283-0.47-1.976c-0.632-0.616-1.017-1.475-1.766-1.958c-0.945-0.609-1.683-1.514-2.764-1.922
		c-1.157-1.084-2.668-1.544-4.047-2.228c-0.316-0.157-0.735-0.327-1.193-0.278c-0.331,0.036-0.703-0.178-1.037-0.324
		c-0.692-0.304-1.38-0.604-2.165-0.512c-0.142,0.017-0.304,0.044-0.429-0.004c-1.096-0.43-2.276-0.407-3.411-0.604
		c-1.014-0.176-2.085,0.016-3.125-0.051c-1.068-0.069-2.087,0.347-3.15,0.231c-0.036-0.004-0.094-0.015-0.105,0.001
		c-0.313,0.481-0.858,0.049-1.271,0.346c-0.363,0.261-0.906,0.104-1.359,0.067c-0.414-0.035-0.732,0.152-1.084,0.271
		c-0.042,0.014-0.053,0.116-0.097,0.22c0.12,0.279,0.587,0.189,0.668,0.588c-0.055,0.818-0.042,1.682-0.179,2.563
		c-0.278,1.794,0.168,3.603,0.177,5.411c0.369,0.369,0.114,0.874,0.279,1.288c0.412,1.031,0.621,2.099,0.587,3.213
		c-0.01,0.309,0.077,0.589,0.18,0.893c0.195,0.572,0.598,1.106,0.641,1.668c0.057,0.753,0.606,1.14,0.929,1.675
		c0.391,0.65,1.028,1.094,1.768,1.28c0.156-0.157,0.258-0.259,0.364-0.364c0-0.571,0-1.146,0-1.721
		c0.042,0.04,0.083,0.079,0.125,0.118c0.145-0.249,0.288-0.497,0.403-0.696c1.144,0.286,1.451,0.61,1.722,1.742
		c0.138,0,0.278,0,0.423,0c0.527-0.197,0.631-0.755,0.729-1.167c0.112-0.473,0.288-0.73,0.711-0.889
		c0.073-0.027,0.105-0.094,0.156-0.04c0.074,0.221,0.318,0.111,0.445,0.229c0.454,0.936,0.299,1.881,0.02,2.794
		C40.056,49.801,40.269,49.961,40.6,49.891z M17.153,38.913c0.38,0.32,0.295,0.703,0.256,1.033
		c-0.043,0.377,0.083,0.754,0.258,0.971c0.58,0.722,0.863,1.615,1.475,2.315c0.658,0.754,1.318,1.524,2.122,2.092
		c0.419,0.295,0.927,0.546,1.36,0.845c0.447,0.309,1.085,0.335,1.362,0.895c0.272-0.067,0.394,0.227,0.653,0.26
		c0.354,0.046,0.705,0.2,1.034,0.354c0.759,0.358,1.541,0.575,2.386,0.486c0.058-0.006,0.109-0.073,0.161-0.109
		c0-0.146,0-0.289,0-0.391c-0.301-0.343-0.745-0.624-0.829-0.988c-0.205-0.886-0.973-1.46-1.157-2.332
		c-0.411-0.298-0.432-0.863-0.772-1.184c-0.564-0.531-0.722-1.337-1.321-1.85c-0.094-0.081-0.3-0.346-0.26-0.644
		c0.027-0.199-0.099-0.48-0.249-0.635c-0.53-0.546-0.606-1.212-0.598-1.861c-0.423-0.669-0.673-1.356-0.878-2.039
		c0.113-0.246,0.21-0.457,0.308-0.672c0.269,0.057,0.377-0.304,0.62-0.217c0.567,0.12,1.004,0.508,1.214,0.947
		c0.312,0.65,0.729,1.212,1.122,1.797c0.364,0.543,0.668,1.164,1.375,1.349c0.127-0.127,0.318-0.229,0.316-0.33
		c-0.011-0.595,0.329-1.124,0.263-1.739c-0.068-0.64-0.021-1.293-0.011-1.94c0.003-0.201,0.052-0.393,0.114-0.596
		c0.187-0.611,0.631-1.15,0.68-1.76c0.056-0.696,0.61-1.168,0.642-1.855c-0.991-0.11-1.875,0.441-2.846,0.427
		c-0.227,0.196-0.421,0.38-0.781,0.455c-0.811,0.167-1.584,0.501-2.313,0.912c-0.087,0.05-0.137,0.14-0.266,0.146
		c-0.476,0.02-0.847,0.268-1.141,0.619c-0.185,0.221-0.4,0.269-0.713,0.232c-0.412,0.756-1.363,0.843-1.931,1.5
		c-0.568,0.657-0.86,1.466-1.371,2.071C17.375,37.979,17.56,38.458,17.153,38.913z"/>
	<path style="fill-rule:evenodd;clip-rule:evenodd;fill:none;" d="M40.6,49.891c-0.331,0.07-0.544-0.09-0.734-0.376
		c0.279-0.913,0.435-1.858-0.02-2.794c-0.127-0.118-0.371-0.009-0.445-0.229c-0.051-0.054-0.083,0.013-0.156,0.04
		c-0.423,0.158-0.599,0.416-0.711,0.889c-0.099,0.412-0.202,0.97-0.729,1.167c-0.145,0-0.285,0-0.423,0
		c-0.271-1.132-0.578-1.456-1.722-1.742c-0.115,0.199-0.259,0.447-0.403,0.696c-0.041-0.039-0.083-0.078-0.125-0.118
		c0,0.575,0,1.149,0,1.721c-0.105,0.105-0.208,0.207-0.364,0.364c-0.739-0.187-1.376-0.63-1.768-1.28
		c-0.322-0.535-0.872-0.922-0.929-1.675c-0.042-0.562-0.446-1.096-0.641-1.668c-0.103-0.304-0.19-0.584-0.18-0.893
		c0.034-1.114-0.176-2.182-0.587-3.213c-0.165-0.414,0.089-0.919-0.279-1.288c-0.009-1.809-0.455-3.617-0.177-5.411
		c0.136-0.881,0.124-1.745,0.179-2.563c-0.082-0.399-0.549-0.309-0.668-0.588c0.043-0.104,0.055-0.206,0.097-0.22
		c0.353-0.119,0.671-0.306,1.084-0.271c0.453,0.037,0.996,0.194,1.359-0.067c0.413-0.297,0.958,0.135,1.271-0.346
		c0.011-0.017,0.069-0.005,0.105-0.001c1.063,0.116,2.083-0.3,3.15-0.231c1.04,0.067,2.111-0.125,3.125,0.051
		c1.135,0.198,2.315,0.175,3.411,0.604c0.125,0.049,0.287,0.021,0.429,0.004c0.785-0.092,1.473,0.208,2.165,0.512
		c0.334,0.146,0.706,0.36,1.037,0.324c0.458-0.049,0.877,0.121,1.193,0.278c1.379,0.684,2.89,1.143,4.047,2.228
		c1.081,0.408,1.818,1.313,2.764,1.922c0.749,0.482,1.134,1.341,1.766,1.958c0.001,0.692,0.502,1.25,0.47,1.976
		c-0.03,0.665-0.021,1.343-0.283,1.941c-0.204,0.463-0.118,1.027-0.513,1.407c-0.381,0.365-0.473,0.891-0.746,1.31
		c-0.329,0.503-0.74,0.976-1.272,1.246c-0.409,0.209-0.72,0.532-1.096,0.746c-0.885,0.502-1.674,1.146-2.557,1.643
		c-0.345,0.193-0.732,0.374-1.115,0.413c-0.268,0.027-0.452,0.161-0.658,0.254c-0.916,0.406-0.909,0.421-1.77,0.421
		c-0.355,0.188-0.668,0.486-1.124,0.431c-0.351-0.452-0.092-0.932,0.162-1.211c0.682-0.749,1.116-1.692,1.89-2.356
		c0.405-0.348,0.515-0.939,0.992-1.208c0.879-0.493,1.339-1.393,2.04-2.058c0.728-0.691,1.079-1.623,1.494-2.51
		c0.043-0.092,0.119-0.168,0.192-0.268c-0.002-1.086,0.366-2.146,0.476-3.218c-0.203-0.203-0.381-0.38-0.561-0.561
		c-0.286,0-0.573,0-0.884,0c-0.963,1.259-1.423,2.902-2.762,3.915c-0.13-0.13-0.232-0.231-0.371-0.37
		c0.216-0.749-0.225-1.469-0.202-2.242c0.023-0.791-0.002-1.583,0.01-2.375c0.003-0.227-0.106-0.377-0.206-0.566
		c-0.358-0.685-0.54-1.469-1.197-2.016c-0.18,0-0.391,0-0.688,0c-0.105,0.139-0.257,0.337-0.511,0.672
		c-0.076,1.327,0.386,2.823,0.223,4.344c-0.158,1.467-0.446,2.912-0.737,4.461c-0.212,0.545-0.571,1.137-0.818,1.808
		c-0.271,0.733-0.748,1.422-1.184,2.095c-0.422,0.652-0.735,1.359-1.146,2.014C41.789,48.572,41.347,49.358,40.6,49.891z"/>
	<path style="fill-rule:evenodd;clip-rule:evenodd;fill:none;" d="M17.153,38.913c0.406-0.454,0.222-0.934,0.285-1.437
		c0.511-0.605,0.803-1.414,1.371-2.071c0.567-0.657,1.519-0.744,1.931-1.5c0.313,0.036,0.528-0.012,0.713-0.232
		c0.293-0.351,0.665-0.599,1.141-0.619c0.129-0.005,0.179-0.096,0.266-0.146c0.729-0.41,1.503-0.744,2.313-0.912
		c0.359-0.074,0.554-0.258,0.781-0.455c0.971,0.014,1.855-0.537,2.846-0.427c-0.032,0.688-0.586,1.16-0.642,1.855
		c-0.049,0.609-0.493,1.149-0.68,1.76c-0.062,0.203-0.111,0.395-0.114,0.596c-0.01,0.647-0.057,1.3,0.011,1.94
		c0.065,0.615-0.274,1.145-0.263,1.739c0.002,0.101-0.189,0.203-0.316,0.33c-0.707-0.185-1.011-0.806-1.375-1.349
		c-0.393-0.585-0.811-1.147-1.122-1.797c-0.21-0.439-0.647-0.828-1.214-0.947c-0.243-0.087-0.351,0.274-0.62,0.217
		c-0.098,0.215-0.195,0.426-0.308,0.672c0.206,0.683,0.456,1.37,0.878,2.039c-0.008,0.649,0.068,1.315,0.598,1.861
		c0.15,0.154,0.276,0.436,0.249,0.635c-0.041,0.298,0.166,0.563,0.26,0.644c0.599,0.513,0.757,1.318,1.321,1.85
		c0.34,0.32,0.362,0.886,0.772,1.184c0.184,0.872,0.952,1.446,1.157,2.332c0.084,0.364,0.527,0.646,0.829,0.988
		c0,0.102,0,0.245,0,0.391c-0.051,0.036-0.103,0.104-0.161,0.109c-0.846,0.089-1.627-0.128-2.386-0.486
		c-0.33-0.154-0.68-0.309-1.034-0.354c-0.259-0.033-0.38-0.327-0.653-0.26c-0.277-0.56-0.915-0.586-1.362-0.895
		c-0.434-0.299-0.941-0.55-1.36-0.845c-0.804-0.567-1.464-1.338-2.122-2.092c-0.612-0.7-0.896-1.594-1.475-2.315
		c-0.175-0.217-0.302-0.594-0.258-0.971C17.448,39.616,17.534,39.233,17.153,38.913z"/>
</g>
</svg>
