<svg xmlns="http://www.w3.org/2000/svg" xml:space="preserve" width="72px" height="72px" viewBox="0 0 72 72">
    <path fill="currentColor" d="M18.429 44.065c1.776.699 3.167 1.656 4.142 3.146.119.229-.037.5.159.784.249.361.207.896.063 1.238-.323.771-.083 1.536-.17 2.114.157.579.434.884.683 1.072l2.686.753c.04-.16.089-.24.068-.289-.598-1.366.187-2.487.66-3.655.178-.438.561-.823.939-.988.796-.35 1.405-1.064 2.329-1.165.234-.026.416-.241.401-.529-.484-.339-.881.008-1.245.199-.213.111-.462.197-.585.109-.61-.436-1.242-.38-1.905-.203-.135.035-.287.005-.487.005l-.554-.664c-.461.063-.871-.121-1.144.172-.493-.111-.776-.479-1.096-.798-.473-.471-1.113-.743-1.516-1.297-.58-.796-1.014-1.623-.605-2.645.025-.063.063-.129.058-.19-.054-.669.051-1.316.207-1.966.052-.217.109-.509-.173-.68.163-.206.225-.465.37-.688.106-.164.137-.513-.045-.701-.294-.306-.369-.757-.623-1.032-.742-.803-1.471-1.637-2.336-2.245h-.971c-.423.406-.821.903-1.493 1.183.657.642.108 1.149-.061 1.78.323.339.923.478 1.185 1.009.125.368-.044.801.252 1.183.097.125.174.352.305.395.766.25.797.859.794 1.5v.34c-.554.556-.676 1.444-1.436 1.877-.349-.152-.583.287-.959.24-.333-.043-.655.015-1.003.171-.444.201-.918-.146-1.357-.31-.623-.229-1.22-.528-1.954-.854-.319-.3-.004-1.006-.536-1.397-.354-.037-.539.346-.898.379-.244-.309-.765-.096-1.047-.455-.17-.329-.434-.678-.277-1.152.577-.51 1.044-1.202 1.771-1.555.843-.135 1.584.034 2.055.751.105.161.255.326.324.508.172.449.545.719.862 1.072h.701c.148-.209.055-.429.096-.728-.635-.385-.79-1.188-1.284-1.767-.152-.178-.284-.509-.26-.862.058-.857.019-1.722.019-2.536.421-.551.536-1.216 1.004-1.695.688-.703 1.518-1.143 2.426-1.452.191-.065.375-.117.566-.199.657-.285.94-.278 1.642-.021.627.229 1.293.384 1.88.669.695.337 1.402.703 1.948 1.317.53.596.891 1.283 1.282 1.959.048.083.045.2.049.302.015.413.022.806.19 1.218.146.358-.043.819.23 1.204.085.12-.028.363.021.528.126.418-.318.686-.238 1.104.066.348.03.719.004 1.077-.009.121-.236.165-.22.266.26.793.592 1.457 1.19 1.999 1.159.085 2.282-.164 3.398-.548a5.8 5.8 0 0 1 1.604-.29c1.003-.045 2.011-.013 2.986-.013.274.263.677.295.844.638h.921c.26-.431.802-.583 1.22-1.016h-1.654c-.231-.456-.78-.471-1.082-.918-.242 0-.523-.013-.803.003-.334.02-.547-.247-.836-.329.048-.476-.468-.479-.628-.5-.58-.073-.937-.415-1.306-.784-.691-.69-1.366-1.392-2.252-1.859-.416-.219-.539-.684-.579-1.192l-.744-.688c-.29-.817-.331-1.602-.965-2.087v-3.176c.674-1.386 1.666-2.445 2.58-3.557v-.633l-.308-.308c-.696.508-1.452.785-2.282.622-.548.223-1 .806-1.612.236-1.2.148-2.274-.664-3.494-.411-.311-.55-.71-.986-1.124-1.418-.374-.39-.649-.894-.656-1.442-.003-.309-.297-.467-.246-.775.042-.245-.065-.532.022-.749.26-.645.207-1.308.194-1.968-.006-.325.388-.531.253-.813.625-1.119 1.614-1.884 2.421-2.788l-.222-.236c-.287.072-.498.214-.51.534l-3.203 1.855c-.572-.058-1.258.167-1.877-.266-.036-.308-.328-.479-.549-.74.069-1.069.229-2.106 1.429-2.646h1.321c.208.336-.044.721.174 1.081.741-.155 1.261-.679 1.617-1.235.528-.825 1.275-1.317 2.125-1.806h1.241l1.34 1.359c.184.571.332 1.132.291 1.736-.03.436-.128.805-.444 1.117-.962.949-1.621 2.123-2.372 3.275v1.93c.163.156.345.329.525.503.31.3.668.458 1.112.448.72-.017 1.441.025 2.159-.015.502-.028.982-.201 1.46-.377.533-.196 1.089-.328 1.639-.475.608-.163 1.152.238 1.746.214.849.577 1.839.982 2.369 1.945.13.238.271.464.229.775-.047.352-.011.715-.011 1.072-.176.105-.183.285-.25.443-.385.916-.982 1.71-1.612 2.458-.601.713-1.029 1.532-1.517 2.172-.357 1.358.182 2.279 1.133 3.048.334.271.615.605.921.911.204.204.452.379.6.618.193.312.523.076.759.287.645.577 1.506.709 2.302.942.527.155.941.594 1.457.638.596.052.951.506 1.47.652h.956c.109-.741.326-1.414.896-1.801.061-.49-.17-.613-.479-.782-1.303-.711-2.549-1.505-3.563-2.625-.765-.845-1.354-1.808-2.001-2.735-.807-1.158-.612-2.458-.639-3.733.54-.977.611-2.264 1.845-2.781.687-.767 1.639-1.247 2.271-2.067.243-.316.403-.696.63-1.097.161-.875-.396-1.575-.829-2.284-.619-1.016-.657-2.542-.004-3.506.118-.174.195-.358.283-.535.38-.771.687-1.129 1.207-1.646.501-.498 1.025-.909 1.727-1.062.096-.021.218-.042.275-.108.602-.704 1.408-.663 2.22-.647.9.017 1.801.004 2.7.003.527 0 .998.168 1.426.468.085.059.165.171.25.173 1.016.023 1.337.85 1.759 1.533.314.51.552 1.068.863 1.683v1.427c-.101.201-.344.298-.433.557-.256.746-.752 1.369-1.241 1.96-.36.436-.923.702-1.383 1.059-.396.308-.905.217-1.345.406-.293.125-.657.042-.994.212-.201.101-.583.152-.814-.051-.326-.284-.695-.023-1.088-.212-.327-.069-.582-.425-.987-.649-.242.412-.097.808-.123 1.175-.028.393-.007.788-.007 1.033-.27.784-.975 1.14-1.083 1.817-.43.45-1.083.501-1.387 1.164-.221.479-.865.726-1.202 1.342 0 .456-.002 1.027.001 1.599.005 1.183.379 1.716 1.386 2.554.518.43 1.038.756 1.658.975.487.172.928.427 1.278.831.361.415.833.605 1.361.547.519-.277.33-.748.363-1.154.37-.684 1.157-.657 1.732-.99.521-.301 1.11-.501 1.755-.457.739.051 1.435-.061 2.027-.602.095-.086.338-.194.525-.267 1.091-.423 1.682-1.185 1.503-2.441-.396-.711-.881-1.405-1.353-2.109-.491-.732-1.348-1.142-1.583-2.057-.116-.656-.125-1.391.387-1.912.759-.772 1.69-1.216 2.852-.923 1.325.494 2.454 1.369 3.521 2.326.314-.019.662.097.898-.3-.122-.24-.252-.447-.538-.652-.737-.528-1.214-1.303-1.613-2.151.285-.743.764-1.333 1.336-1.869.598-.561 1.402-.616 2.079-.882l.388-.852c.184.043.301-.021.399-.171l.989.481c.276.343.271.794.235 1.31-.57.831-1.872.811-2.394 1.873.298.469.898.75 1.056 1.36.158.336.035.703.209 1.096.229.521.065 1.133-.293 1.666-.572.847-1.271 1.519-2.189 1.983-.209.106-.393.108-.611.138-.294.528.068 1.001.22 1.45.134.393.142.726.055 1.103-.229.993-.844 1.811-1.25 2.722-.176.394-.675.561-1.135.558-.39.33-.204.938-.663 1.268H51.31c-.292.235-.652.291-.88.583-.116.15-.416.285-.514.274-.928-.094-1.8.375-2.72.238-.115-.017-.218-.117-.331-.181-.099.175-.272.203-.448.205.074.455.351.742.688 1.03.629.158 1.377-.208 2.036.389.146.381.345.857.845 1.156h.592c.594.75 1.229 1.545 2.023 2.218v.893c.364.334.724.706.905 1.255-.735.808-.464 1.66-.016 2.513-.092.517-.472.833-.851 1.207-.005.309-.067.652.05 1 .376-.021.506-.222.591-.521.15-.525.377-.951.927-1.255.421-.232.884-.585 1.031-1.157.039-.149.241-.258.357-.373.308-.917-.315-1.524-.761-2.133-.453-.618-1.123-1.068-1.561-2.021 0-.7-.029-1.667.013-2.63.021-.464.239-.888.447-1.323.521-1.087 1.453-1.792 2.233-2.638h1.922l1.584.927c.09.166.184.343.281.518.392.701.862 1.355.963 2.198.047.394.209.804.595 1.044.167.104.178.284.192.448.321-.01.482.335.79.263.297 0 .565-.351.704-.932-.204-.215-.354-.5-.693-.582-.361-.087-.352-.481-.546-.73.113-.399.311-.727.784-.888.463-.158.832-.043 1.279.068.44.109.771.432 1.222.48.164.359.464.689.282 1.17l.475.373-.001.935-.42.42v1.369c-.828.136-1.408.676-2.069 1.126-.48 0-.987.043-1.483-.011-.672-.073-1.379-.123-1.656-.946a.5.5 0 0 0-.489-.344c-.366.014-.642-.197-.94-.448-.131-.602-.373-1.188-.78-1.678-.38-.115-.62.047-.829.354.2.458.299 1.015.626 1.346.33.333.771.584 1.118.977v.627l1.094 1.009c0 .475.027.904-.008 1.328-.033.397.023.789.239 1.088.214.295.191.584.201.91-.354.341-.716.689-1.11 1.071.212.466-.264.828-.187 1.292-.272.261-.477.535-.944.599-.331.046-.935.245-.783.897-.279.307-.297.809-.947.97-.476-.098-.941.374-1.554.61-.179-.252-.504-.111-.815-.16-.653-.363-.835-1.18-1.436-1.593v-.67l-.648-.455c-.526.189-.725.684-.624 1.424a4.6 4.6 0 0 1 1.928 1.435c.546.688 1.178 1.312 1.407 2.227.09.358.185.75.071 1.025-.343.834-.097 1.681-.215 2.58-.708.611-1.054 1.668-2.066 2.072-.649.821-1.78.804-2.571 1.485-.535-.18-1.102.065-1.571.248-.729.283-1.542.703-1.533 1.718.003.252-.104.396-.302.578H44.48c-.272-.464-.847-.641-1.252-1.031-.635-.613-1.116-1.295-1.244-2.221l-1.332 1.343h-.659c-.036-.057-.089-.109-.106-.171-.157-.575.313-1.069.214-1.638.521-1.1.538-2.352 1.046-3.455.041-.09.026-.206.033-.31.03-.445-.051-.885.192-1.328.137-.249.146-.715-.004-.939-.229-.345-.179-.671-.179-1.01 0-.26-.066-.472-.229-.57.011-.308.331-.388.226-.656-.06-.153.044-.302.173-.352.69-.267 1.181-.915 1.953-1.019.036-.005.072-.001.145-.001l.71-.782c-.388-.466-.879-.812-1.582-.726-.319-.327-.554-.694-.54-1.201l-.565-.522h-.777c-.714-.368-.772-1.389-1.685-1.496-.201-.049-.242.19-.424.258.287.354.567.688.683 1.173-.232.374-.285.901-.902 1.005 0 .134-.06.347.009.402.61.494.74 1.332 1.332 1.833.075.063.16.165.164.252.029.766.572 1.354.714 2.091.041.211.153.443.155.684.005.756.079 1.522-.021 2.265-.101.757-.084 1.575-.626 2.219.124.285-.317.366-.229.67.054.184-.039.379-.132.585-.457 1.014-.945 1.99-1.955 2.727-1.301.374-2.703.315-4.079.059-.223-.614.102-.989.29-1.426.123-.285.574-.609.067-1.062-.633.966-1.669 1.46-2.497 2.211-.762.154-1.326-.193-1.836-.733-.465-.492-.974-.943-1.466-1.408-.019-.019-.07-.003-.131-.003-.448.4.225.736.039 1.255l-.788.501c-.574.105-1.366.531-2.358.373l-.482-.6c-.712-.105-1.247.359-1.856.173l-1.219-1.219c-.618-.093-1.144-.384-1.666-.771v-.837c-.25-.366-.39-.678-.638-.934-.43-.442-.63-1.002-.339-1.599.17-.351.208-.746.051-1.009-.35-.584-.105-1.064.135-1.543a1 1 0 0 0 .128-.591c-.33-.276-.571-.717-.694-1.19h-.533c-.033.469-.454.905-.252 1.372.175.406.47.755.396 1.34-.208.196-.496.452-.582.844-.072 1.494-.166 1.677-1.012 1.848l-.76.833c-.85.086-1.674-.121-2.431.295-.624-.556-.939-1.416-1.925-1.486.126-.817-.152-1.44-.428-2.117.515-.398.792-.992 1.275-1.646.374-.254.909-.352 1.464.084-.008.266.457.414.329.678-.057.382-.349.464-.415.606-.189.679.344.734.697.954.387-.063.672-.341.948-.654.212-.875-.108-1.668-.432-2.466-.189-.468-.368-.946-.383-1.461-.011-.359-.002-.72-.002-1.054.357-.483.53-1.091 1.004-1.438.456-.333.99-.56 1.528-.854.526-.006 1.103-.006 1.496-.006M44.64 54.432h1.383l.82.749c.375-.513.642-1.049 1.325-1.191.274.321.763.205 1.136.512.074-.253.322-.283.31-.458-.04-.323-.348-.392-.439-.626.047-.232-.103-.495.113-.725.181-.295.797-.169.751-.743-.194-.253-.673.057-.794-.365-.082-.288-.095-.599-.291-.83.155-.505.581-.79.841-1.185.271-.413.84-.747.618-1.436-.633.539-.898 1.325-1.679 1.798h-.762c-.508.335-.188.832-.422 1.14l-.374.521c-.347.08-.613-.077-.848.175-.322.286-.313.763-.497 1.159-.345.33-.9.333-1.191.752 0 .251 0 .502-.002.793l-.453.526.079.254c.487-.159.362-.513.376-.82m-8.667-5.482c-.246-.568-.594-1.024-1.287-1.155v1.147l-.53.529c-.759-.136-1.261.351-1.725.867h-.804c-.38.34-.307.882-.878 1.111-.356.143-.521.74-.302 1.172.092.181.119.456.481.575.415.136.431.854.997 1.031.483-.489.922-.153 1.322.166.334.267.61.605.899.899h.551c.148-.607.698-.964 1.146-1.482-.661-.817-.702-1.612.164-2.29-.052-.303.037-.557-.164-.839-.414-.585-.403-1.21.13-1.731m11.886-6.669c.037-.446.031-.832-.177-1.234-.193-.375-.463-.722-.5-1.202-.018-.216-.166-.674-.498-.728-.339-.056-.453-.315-.663-.484-.243-.194-.407-.439-.805-.438-.177.001-.506-.149-.688-.388-.214-.28-.548-.361-.837-.456-.422.361-.458.706-.207 1.147.195.346.403.723.26 1.183l-1.037.398c-.045.224.092.3.185.401.611.668 1.465 1.009 2.145 1.608.623.55 1.219 1.098 1.713 1.76.478.001.494-.464.627-.726.151-.296.123-.684.482-.841M46.26 13.824c-.167.037-.354-.072-.535.1-.08.606.427.999.643 1.703 0 .161-.004.515.006.87.001.04.08.077.103.096l.377-.342c.404-.792-.211-1.295-.051-1.884zm-5.786 1.558c-.578.114-.647.385-.548 1.791l.317.691c.191-.94-.098-1.742.231-2.482"/>
</svg>
