<svg xmlns="http://www.w3.org/2000/svg" xml:space="preserve" width="72px" height="72px" viewBox="0 0 72 72">
    <g fill="currentColor">
        <path d="M29.088 23.848v-1.279c.639-.63 1.399-1.128 2.293-1.385.181-.052.294-.164.446-.232.675-.303 1.364-.57 2.107-.645.48-.048.804-.54 1.326-.451.163-.274.432-.191.673-.199.996-.035 1.935-.36 2.9-.55 1.025-.201 2.064-.267 3.028.323.188.116.364.249.468.414.874 1.389 2.026 2.538 3.229 3.619 1.445 1.3 2.97 2.492 4.755 3.356.989.479 2.016.88 2.984 1.401.182.098.343.036.504.079.404.274.615.772 1.138.918.128.036.222.229.299.402a8.3 8.3 0 0 0 2.076 2.808c.987.878 1.753 1.953 2.65 2.91.551.587.92 1.342 1.4 1.999.124.169.114.321.128.604l-.83.504c-2.484-.228-4.933-1.058-6.52-3.43-.259-.013-.434-.071-.597.034-.017.065-.069.152-.045.192.484.808 1.02 1.59 1.46 2.421.538 1.015 1.385 1.747 2.14 2.571.775.848 1.539 1.718 2.2 2.654.349.493.682.911 1.22 1.212.363.203.744.541.896.909.193.47.636.655.904 1.196.317 1.076 1.205 2.172.827 3.652l-.53.458c-.655.027-1.42.151-1.964-.51-.197-.239-.455-.113-.678-.198-.539-.207-.786-.765-1.334-.953-.533-.184-.77-.731-1.144-1.112-1.817-1.849-3.663-3.667-5.485-5.51-.307-.311-.676-.441-.996-.578-.394.05-.499.365-.744.529v1.058c1.014 1.721 1.824 3.548 2.777 5.667.498.715 1.319 1.597 2.009 2.592.433.626.58 1.354.99 1.982.214.328.037.911.037 1.379v.524c-.442.508-1.008.598-1.616.534-.726-.431-1.435-.885-2.175-1.279-.606-.323-1.079-.766-1.387-1.362a18.4 18.4 0 0 0-2.041-3.145c-.858-1.063-1.513-2.234-2.059-3.471-.173-.393-.418-.743-.489-1.211-.055-.351-.313-.777-.854-.965h-.513c-.035.066-.093.125-.094.185-.003.484.022.949.186 1.431.148.439-.078.974.235 1.418.052.072-.032.261.022.308.515.442.582 1.162 1.002 1.634.396.445.745.933 1.102 1.396.588.767 1.164 1.585 1.139 2.658-.009.365-.392.609-.231.988-.661.472-1.27.376-1.985.02a14.4 14.4 0 0 1-2.14-1.336c-.732-.543-1.012-1.442-1.476-2.191a7 7 0 0 0-.29-.421c-.164-.095-.336-.045-.55-.022v1.13l-.6.565a1.43 1.43 0 0 1-.958-.2c-.311-.19-.665-.305-.993-.468-1.108-.553-1.142-.539-1.714-1.736-.244-.511-.695-.832-.951-1.33-.313-.607-.68-1.15-.682-1.889-.001-.45-.256-.896-.364-1.351-.286-1.206-.701-2.372-1.144-3.523-.159-.413-.19-.802-.195-1.215-.009-.829-.273-1.599-.579-2.352-.413-1.019-.735-2.07-1.135-3.093a.65.65 0 0 1-.012-.317c.15-1.031-.298-2.017-.222-3.042.013-.172-.753-3.403-.867-3.523-.737-.778-.945-1.854-1.553-2.713-.297-.424-.475-.953-.814-1.447M39.72 44.542c-.273.69.355 1.324.148 1.998.215.141.306.489.636.258.205-.705-.367-1.327-.177-1.982-.212-.169-.305-.424-.607-.274"/>
        <path d="m28.639 25.035.621.311c.271.616.449 1.293.887 1.877.222.297.415.666.484 1.096.054.332.415.58.482.989.029.173.111.379.138.583.056.412-.148.852.132 1.241.252.351-.121.841.282 1.19.106.093.017.414.016.629-.003.727.175 1.418.382 2.108.059.196.068.421.044.627-.064.54.117 1.035.358 1.473.591 1.073.685 2.304 1.16 3.408-.12.605.343 1.143.212 1.745-.082.373.38.61.22.99.647.731.598 1.704.826 2.567.1.378.384.758.254 1.196.393.624.211 1.242.004 1.874-.29.886-.491 1.791-.434 2.782-.73.81-1.063 1.896-1.685 2.827-.592.887-1.453 1.298-2.115 1.802-.458.072-.63-.229-.906-.25-.237-.433-.36-.89-.201-1.478-.811.709-1.109 1.271-1.174 2.125-.904.773-1.597 1.798-2.659 2.429h-1.538l-.513-.563c.14-.562-.469-1.069-.061-1.875.227-.248.709-.601.732-1.293.005-.167.079-.655.534-.611.314-.518.582-1.072.957-1.542.405-.508.298-1.188.648-1.676.371-.518.392-1.137.608-1.694.144-.37.027-.841.027-1.245-.285-.131-.53-.073-.738-.063-.664.423-.479 1.184-.764 1.753-.476.951-.543 2.087-1.306 2.913-.167.939-.926 1.635-1.068 2.577-.031.206-.149.303-.253.439-.229.3-.43.615-.423 1.048-.292.388-.669.742-.979 1.17-.678.935-1.698 1.499-2.678 2.089-.25.15-.483.043-.763.103l-.521-.629c0 .006-.011-.099-.011-.202-.001-.648.003-1.296-.002-1.943-.005-.565.205-1.035.484-1.53.521-.924 1.158-1.757 1.761-2.619.161-.229.374-.486.35-.823-.051-.721.628-1.19.657-1.887.441-.261.032-.798.401-1.143.269-.252.319-.724.523-1.064.236-.394.179-.85.336-1.265.098-.258.28-.391.438-.611v-.691l-.532-.512c-.102.016-.192.002-.233.041a18 18 0 0 0-2.311 2.706c-.399.566-.974 1.001-1.364 1.598-.635.972-1.425 1.832-2.029 2.83-.212.35-.547.596-.899.842a17.7 17.7 0 0 1-2.522 1.482h-.766c-.108-.185-.294-.373-.324-.584-.054-.389-.126-.832.004-1.178.459-1.212.7-2.508 1.47-3.607.268-.383.63-.652.892-1.026.86-1.231 1.804-2.408 2.598-3.68.689-1.104 1.677-2.043 1.952-3.402.076-.374.339-.739.597-1.039.31-.359.264-.799.509-1.184-.53-.165-.706.227-.837.438-.68 1.102-1.634 1.843-2.802 2.346-.062.026-.103.099-.191.187a2.75 2.75 0 0 0-1.801.441l-.666-.319V41.42c.652-1.037 1.24-2.11 1.963-3.082.727-.977 1.454-1.967 2.188-2.656.41-.993.989-1.679 1.25-2.521.549-.132.815-.675 1.316-.936 1.174-.611 2.173-1.506 3.298-2.206.178-.111.313-.293.464-.445l2.673-2.673c.127-.127.338-.237.368-.384.174-.855.879-1.125 1.569-1.482"/>
        <path d="M42.388 14.964c-.674-.671-1.066-1.373-1.452-2.099-.255-.479-.741-.897-1.221-1.179-.582-.341-.896-.815-1.148-1.376.072-.414.246-.737.54-.997.531-.139 1.021.066 1.575.135l.585.729c.414-.151.724.094.909.254.478.412 1.051.608 1.585.89 1.334.704 2.674 1.395 3.948 2.206.269.17.626.2.937.292.173-.186.119-.338-.045-.458-.304-.223-.609-.449-1.037-.399-.424-.38-.77-.92-1.462-.866-.458-.418-1.074-.57-1.566-.898a13.3 13.3 0 0 0-3.047-1.525 3.43 3.43 0 0 1-1.804-1.415c.027-.107-.11-.317.063-.444.521-.382 1.013-.933 1.598-1.072.755-.179 1.623-.17 2.358.226a7.8 7.8 0 0 0 1.77.692c.343.09.779.098.978.514.017.035.146.001.194.037.407.309.964.271 1.361.642.339.316.829.431 1.229.664 1.368.796 2.713 1.633 4.045 2.489.325.209.566.549.854.837v1.079c-.119.226-.475.318-.433.667-.308.205-.7.254-.968.529h-1.295c-.121-.127-.229-.287-.449-.193a.214.214 0 0 0-.08.278c.187.328.552.499.69.905.104.305.342.574.416.979-.251.414-.795.655-.863 1.178-.553.123-1.001.399-1.569.301.285.566.879.504 1.214.874.699 0 1.42-.037 2.134.015.388.028.711-.128.946-.322.511-.42 1.014-.878 1.312-1.497.255-.529.552-1.027 1.008-1.43h1.289c.784.838 2.057 1.375 1.827 2.852-.541.94-1.379 1.608-2.086 2.393-.407.452-.955.704-1.392 1.115-.239.225-.681.263-1.041.32-.316.05-.646.011-.991.011-.363.552-1.086.283-1.572.652-.19.061-.252-.233-.425-.215-.784.083-1.469-.29-2.152-.549-.323-.123-.656-.045-.99-.226-.297-.16-.465-.543-.856-.527-.624.025-1.076-.357-1.563-.661-.228-.143-.453-.292-.693-.412-.087-.043-.213-.007-.294-.007-1.251-.972-2.576-1.791-4.011-2.592-.854 0-1.796-.083-2.715.021-1.18.134-2.374.272-3.502.661-.227.078-.436.168-.679.184-.716.044-1.418.189-2.031.563-.398.243-.859.206-1.246.385-.676.312-1.342.665-1.888 1.209h-.857l-.92-.929c-.065-.86-.949-1.651-.232-2.55l-.308-.387c-.328-.06-.394.153-.572.26v1.34c-.282.878-.967 1.228-1.12 1.95-.142.668-.811.999-1.165 1.56-.44.696-1.174 1.18-1.923 1.559-.891.452-1.75.953-2.679 1.352-1.003.431-2.117.819-2.833 1.768-.164.217-.362.389-.496.655-.114.226-.066.589-.395.645.019.337.372.517.183.913.245.221.514.456.772.701.261.249.511.508.775.773-.042.394.184.858-.313 1.176h-1.222c-1.524-1.002-3.234-1.799-3.861-3.728 0-.283.036-.572-.007-.849-.11-.723.145-1.356.441-1.981.258-.542.405-.684.971-.98.084-.044.22.041.29-.081.267-.462.762-.593 1.203-.742.297-.101.435-.347.671-.47.654-.34 1.453-.416 1.929-1.078.618.075.976-.429 1.451-.666.57-.283 1.146-.575 1.654-.952.457-.34.825-.8 1.285-1.26.136-.735.403-1.503.489-2.318.049-.473.437-1.009.16-1.394-.321-.447.087-1.02-.384-1.363.078-.403-.165-.844.182-1.226.093-.103.048-.331.065-.487.439-.227.804.051 1.229.198v-1.24c.157-.534.731-.608 1.024-.975.307-.384.793-.333 1.211-.463.354-.11.807-.142 1.086-.523.12-.164.411-.294.619-.289.988.029 1.826-.473 2.729-.735.153-.044.297-.147.478-.146.54.004 1.081-.011 1.62.005.49.015.914-.367 1.423-.222.067.019.145.01.215.001 1.82-.214 2.588.089 3.447 1.73.08.153-.176.211-.203.341-.028.136-.006.283-.006.421-.16.082-.302.176-.458.23-.381.133-.791.133-1.178.285-.25.098-.649-.087-.834.051-.248.185-.519.16-.771.274 1.009.234 2.031.196 2.947-.172.674-.271 1.128.023 1.622.245.577.259 1.025.728 1.462 1.25v.884l-.773.634c1.079.198 2.038.249 3.078.586-.023.356.312.073.524.156-.019.104.029.17.128.192.017.003.067-.047.063-.063-.022-.099-.088-.146-.191-.129-.101-.416-.435-.134-.524-.156m-17.62-1.356c-.005.149.066.222.184.225l.406 1.234c.305-.366.677-.5.731-1.094-.479.312-.696-.259-1.105-.149q.008-.224-.216-.216c.018-.104-.03-.17-.129-.192-.017-.004-.067.047-.063.063.022.099.088.146.192.129m6.64 2.129c-.518.104-1.05.123-1.505.629.648.179 1.084-.173 1.576-.258zm18.635-1.355c-.221-.302-.458-.463-.871-.253.221.302.458.464.871.253m-5.177 1.724c-.201-.146-.266-.478-.667-.244.2.145.265.478.667.244"/>
    </g>
</svg>
