<?xml version="1.0" encoding="iso-8859-1"?>
<!-- Generator: Adobe Illustrator 16.0.0, SVG Export Plug-In . SVG Version: 6.00 Build 0)  -->
<!DOCTYPE svg PUBLIC "-//W3C//DTD SVG 1.1//EN" "http://www.w3.org/Graphics/SVG/1.1/DTD/svg11.dtd">
<svg version="1.1" id="Layer_1" xmlns="http://www.w3.org/2000/svg" xmlns:xlink="http://www.w3.org/1999/xlink" x="0px" y="0px"
	 width="72.36px" height="71.459px" viewBox="0 0 72.36 71.459" style="enable-background:new 0 0 72.36 71.459;"
	 xml:space="preserve">
<g>
	
	<path fill="currentColor" d="M29.088,23.848c0-0.439,0-0.835,0-1.279c0.639-0.63,1.399-1.128,2.293-1.385
		c0.181-0.052,0.294-0.164,0.446-0.232c0.675-0.303,1.364-0.57,2.107-0.645c0.48-0.048,0.804-0.54,1.326-0.451
		c0.163-0.274,0.432-0.191,0.673-0.199c0.996-0.035,1.935-0.36,2.9-0.55c1.025-0.201,2.064-0.267,3.028,0.323
		c0.188,0.116,0.364,0.249,0.468,0.414c0.874,1.389,2.026,2.538,3.229,3.619c1.445,1.3,2.97,2.492,4.755,3.356
		c0.989,0.479,2.016,0.88,2.984,1.401c0.182,0.098,0.343,0.036,0.504,0.079c0.404,0.274,0.615,0.772,1.138,0.918
		c0.128,0.036,0.222,0.229,0.299,0.402c0.486,1.083,1.192,2.022,2.076,2.808c0.987,0.878,1.753,1.953,2.65,2.91
		c0.551,0.587,0.92,1.342,1.4,1.999c0.124,0.169,0.114,0.321,0.128,0.604c-0.178,0.107-0.422,0.256-0.83,0.504
		c-2.484-0.228-4.933-1.058-6.52-3.43c-0.259-0.013-0.434-0.071-0.597,0.034c-0.017,0.065-0.069,0.152-0.045,0.192
		c0.484,0.808,1.02,1.59,1.46,2.421c0.538,1.015,1.385,1.747,2.14,2.571c0.775,0.848,1.539,1.718,2.2,2.654
		c0.349,0.493,0.682,0.911,1.22,1.212c0.363,0.203,0.744,0.541,0.896,0.909c0.193,0.47,0.636,0.655,0.904,1.196
		c0.317,1.076,1.205,2.172,0.827,3.652c-0.107,0.093-0.298,0.257-0.53,0.458c-0.655,0.027-1.42,0.151-1.964-0.51
		c-0.197-0.239-0.455-0.113-0.678-0.198c-0.539-0.207-0.786-0.765-1.334-0.953c-0.533-0.184-0.77-0.731-1.144-1.112
		c-1.817-1.849-3.663-3.667-5.485-5.51c-0.307-0.311-0.676-0.441-0.996-0.578c-0.394,0.05-0.499,0.365-0.744,0.529
		c0,0.347,0,0.702,0,1.058c1.014,1.721,1.824,3.548,2.777,5.667c0.498,0.715,1.319,1.597,2.009,2.592
		c0.433,0.626,0.58,1.354,0.99,1.982c0.214,0.328,0.037,0.911,0.037,1.379c0,0.179,0,0.357,0,0.524
		c-0.442,0.508-1.008,0.598-1.616,0.534c-0.726-0.431-1.435-0.885-2.175-1.279c-0.606-0.323-1.079-0.766-1.387-1.362
		c-0.575-1.118-1.256-2.172-2.041-3.145c-0.858-1.063-1.513-2.234-2.059-3.471c-0.173-0.393-0.418-0.743-0.489-1.211
		c-0.055-0.351-0.313-0.777-0.854-0.965c-0.089,0-0.303,0-0.513,0c-0.035,0.066-0.093,0.125-0.094,0.185
		c-0.003,0.484,0.022,0.949,0.186,1.431c0.148,0.439-0.078,0.974,0.235,1.418c0.052,0.072-0.032,0.261,0.022,0.308
		c0.515,0.442,0.582,1.162,1.002,1.634c0.396,0.445,0.745,0.933,1.102,1.396c0.588,0.767,1.164,1.585,1.139,2.658
		c-0.009,0.365-0.392,0.609-0.231,0.988c-0.661,0.472-1.27,0.376-1.985,0.02c-0.763-0.381-1.467-0.837-2.14-1.336
		c-0.732-0.543-1.012-1.442-1.476-2.191c-0.09-0.145-0.188-0.281-0.29-0.421c-0.164-0.095-0.336-0.045-0.55-0.022
		c0,0.38,0,0.766,0,1.13c-0.215,0.203-0.397,0.375-0.6,0.565c-0.32,0.042-0.642-0.007-0.958-0.2
		c-0.311-0.19-0.665-0.305-0.993-0.468c-1.108-0.553-1.142-0.539-1.714-1.736c-0.244-0.511-0.695-0.832-0.951-1.33
		c-0.313-0.607-0.68-1.15-0.682-1.889c-0.001-0.45-0.256-0.896-0.364-1.351c-0.286-1.206-0.701-2.372-1.144-3.523
		c-0.159-0.413-0.19-0.802-0.195-1.215c-0.009-0.829-0.273-1.599-0.579-2.352c-0.413-1.019-0.735-2.07-1.135-3.093
		c-0.037-0.094-0.027-0.213-0.012-0.317c0.15-1.031-0.298-2.017-0.222-3.042c0.013-0.172-0.753-3.403-0.867-3.523
		c-0.737-0.778-0.945-1.854-1.553-2.713C29.605,24.871,29.427,24.342,29.088,23.848z M39.72,44.542
		c-0.273,0.69,0.355,1.324,0.148,1.998c0.215,0.141,0.306,0.489,0.636,0.258c0.205-0.705-0.367-1.327-0.177-1.982
		C40.115,44.647,40.022,44.392,39.72,44.542z"/>
	<path fill="currentColor" d="M28.639,25.035c0.243,0.122,0.421,0.211,0.621,0.311
		c0.271,0.616,0.449,1.293,0.887,1.877c0.222,0.297,0.415,0.666,0.484,1.096c0.054,0.332,0.415,0.58,0.482,0.989
		c0.029,0.173,0.111,0.379,0.138,0.583c0.056,0.412-0.148,0.852,0.132,1.241c0.252,0.351-0.121,0.841,0.282,1.19
		c0.106,0.093,0.017,0.414,0.016,0.629c-0.003,0.727,0.175,1.418,0.382,2.108c0.059,0.196,0.068,0.421,0.044,0.627
		c-0.064,0.54,0.117,1.035,0.358,1.473c0.591,1.073,0.685,2.304,1.16,3.408c-0.12,0.605,0.343,1.143,0.212,1.745
		c-0.082,0.373,0.38,0.61,0.22,0.99c0.647,0.731,0.598,1.704,0.826,2.567c0.1,0.378,0.384,0.758,0.254,1.196
		c0.393,0.624,0.211,1.242,0.004,1.874c-0.29,0.886-0.491,1.791-0.434,2.782c-0.73,0.81-1.063,1.896-1.685,2.827
		c-0.592,0.887-1.453,1.298-2.115,1.802c-0.458,0.072-0.63-0.229-0.906-0.25c-0.237-0.433-0.36-0.89-0.201-1.478
		c-0.811,0.709-1.109,1.271-1.174,2.125c-0.904,0.773-1.597,1.798-2.659,2.429c-0.5,0-1.002,0-1.538,0
		c-0.15-0.164-0.318-0.35-0.513-0.563c0.14-0.562-0.469-1.069-0.061-1.875c0.227-0.248,0.709-0.601,0.732-1.293
		c0.005-0.167,0.079-0.655,0.534-0.611c0.314-0.518,0.582-1.072,0.957-1.542c0.405-0.508,0.298-1.188,0.648-1.676
		c0.371-0.518,0.392-1.137,0.608-1.694c0.144-0.37,0.027-0.841,0.027-1.245c-0.285-0.131-0.53-0.073-0.738-0.063
		c-0.664,0.423-0.479,1.184-0.764,1.753c-0.476,0.951-0.543,2.087-1.306,2.913c-0.167,0.939-0.926,1.635-1.068,2.577
		c-0.031,0.206-0.149,0.303-0.253,0.439c-0.229,0.3-0.43,0.615-0.423,1.048c-0.292,0.388-0.669,0.742-0.979,1.17
		c-0.678,0.935-1.698,1.499-2.678,2.089c-0.25,0.15-0.483,0.043-0.763,0.103c-0.145-0.174-0.304-0.366-0.521-0.629
		c0,0.006-0.011-0.099-0.011-0.202c-0.001-0.648,0.003-1.296-0.002-1.943c-0.005-0.565,0.205-1.035,0.484-1.53
		c0.521-0.924,1.158-1.757,1.761-2.619c0.161-0.229,0.374-0.486,0.35-0.823c-0.051-0.721,0.628-1.19,0.657-1.887
		c0.441-0.261,0.032-0.798,0.401-1.143c0.269-0.252,0.319-0.724,0.523-1.064c0.236-0.394,0.179-0.85,0.336-1.265
		c0.098-0.258,0.28-0.391,0.438-0.611c0-0.183,0-0.393,0-0.691c-0.146-0.141-0.346-0.333-0.532-0.512
		c-0.102,0.016-0.192,0.002-0.233,0.041c-0.865,0.821-1.621,1.729-2.311,2.706c-0.399,0.566-0.974,1.001-1.364,1.598
		c-0.635,0.972-1.425,1.832-2.029,2.83c-0.212,0.35-0.547,0.596-0.899,0.842c-0.777,0.545-1.583,1.029-2.522,1.482
		c-0.182,0-0.467,0-0.766,0c-0.108-0.185-0.294-0.373-0.324-0.584c-0.054-0.389-0.126-0.832,0.004-1.178
		c0.459-1.212,0.7-2.508,1.47-3.607c0.268-0.383,0.63-0.652,0.892-1.026c0.86-1.231,1.804-2.408,2.598-3.68
		c0.689-1.104,1.677-2.043,1.952-3.402c0.076-0.374,0.339-0.739,0.597-1.039c0.31-0.359,0.264-0.799,0.509-1.184
		c-0.53-0.165-0.706,0.227-0.837,0.438c-0.68,1.102-1.634,1.843-2.802,2.346c-0.062,0.026-0.103,0.099-0.191,0.187
		c-0.628-0.065-1.25,0.082-1.801,0.441c-0.232-0.111-0.443-0.213-0.666-0.319c0-0.422,0-0.85,0-1.259
		c0.652-1.037,1.24-2.11,1.963-3.082c0.727-0.977,1.454-1.967,2.188-2.656c0.41-0.993,0.989-1.679,1.25-2.521
		c0.549-0.132,0.815-0.675,1.316-0.936c1.174-0.611,2.173-1.506,3.298-2.206c0.178-0.111,0.313-0.293,0.464-0.445
		c0.892-0.891,1.782-1.782,2.673-2.673c0.127-0.127,0.338-0.237,0.368-0.384C27.244,25.662,27.949,25.392,28.639,25.035z"/>
	<path fill="currentColor" d="M42.388,14.964c-0.674-0.671-1.066-1.373-1.452-2.099
		c-0.255-0.479-0.741-0.897-1.221-1.179c-0.582-0.341-0.896-0.815-1.148-1.376c0.072-0.414,0.246-0.737,0.54-0.997
		c0.531-0.139,1.021,0.066,1.575,0.135c0.2,0.25,0.401,0.5,0.585,0.729c0.414-0.151,0.724,0.094,0.909,0.254
		c0.478,0.412,1.051,0.608,1.585,0.89c1.334,0.704,2.674,1.395,3.948,2.206c0.269,0.17,0.626,0.2,0.937,0.292
		c0.173-0.186,0.119-0.338-0.045-0.458c-0.304-0.223-0.609-0.449-1.037-0.399c-0.424-0.38-0.77-0.92-1.462-0.866
		c-0.458-0.418-1.074-0.57-1.566-0.898c-0.96-0.639-1.956-1.148-3.047-1.525c-0.718-0.248-1.354-0.709-1.804-1.415
		c0.027-0.107-0.11-0.317,0.063-0.444c0.521-0.382,1.013-0.933,1.598-1.072c0.755-0.179,1.623-0.17,2.358,0.226
		c0.568,0.308,1.147,0.529,1.77,0.692c0.343,0.09,0.779,0.098,0.978,0.514c0.017,0.035,0.146,0.001,0.194,0.037
		c0.407,0.309,0.964,0.271,1.361,0.642c0.339,0.316,0.829,0.431,1.229,0.664c1.368,0.796,2.713,1.633,4.045,2.489
		c0.325,0.209,0.566,0.549,0.854,0.837c0,0.35,0,0.708,0,1.079c-0.119,0.226-0.475,0.318-0.433,0.667
		c-0.308,0.205-0.7,0.254-0.968,0.529c-0.432,0-0.863,0-1.295,0c-0.121-0.127-0.229-0.287-0.449-0.193
		c-0.108,0.065-0.124,0.201-0.08,0.278c0.187,0.328,0.552,0.499,0.69,0.905c0.104,0.305,0.342,0.574,0.416,0.979
		c-0.251,0.414-0.795,0.655-0.863,1.178c-0.553,0.123-1.001,0.399-1.569,0.301c0.285,0.566,0.879,0.504,1.214,0.874
		c0.699,0,1.42-0.037,2.134,0.015c0.388,0.028,0.711-0.128,0.946-0.322c0.511-0.42,1.014-0.878,1.312-1.497
		c0.255-0.529,0.552-1.027,1.008-1.43c0.417,0,0.847,0,1.289,0c0.784,0.838,2.057,1.375,1.827,2.852
		c-0.541,0.94-1.379,1.608-2.086,2.393c-0.407,0.452-0.955,0.704-1.392,1.115c-0.239,0.225-0.681,0.263-1.041,0.32
		c-0.316,0.05-0.646,0.011-0.991,0.011c-0.363,0.552-1.086,0.283-1.572,0.652c-0.19,0.061-0.252-0.233-0.425-0.215
		c-0.784,0.083-1.469-0.29-2.152-0.549c-0.323-0.123-0.656-0.045-0.99-0.226c-0.297-0.16-0.465-0.543-0.856-0.527
		c-0.624,0.025-1.076-0.357-1.563-0.661c-0.228-0.143-0.453-0.292-0.693-0.412c-0.087-0.043-0.213-0.007-0.294-0.007
		c-1.251-0.972-2.576-1.791-4.011-2.592c-0.854,0-1.796-0.083-2.715,0.021c-1.18,0.134-2.374,0.272-3.502,0.661
		c-0.227,0.078-0.436,0.168-0.679,0.184c-0.716,0.044-1.418,0.189-2.031,0.563c-0.398,0.243-0.859,0.206-1.246,0.385
		c-0.676,0.312-1.342,0.665-1.888,1.209c-0.276,0-0.564,0-0.857,0c-0.3-0.304-0.604-0.61-0.92-0.929
		c-0.065-0.86-0.949-1.651-0.232-2.55c-0.147-0.186-0.255-0.321-0.308-0.387c-0.328-0.06-0.394,0.153-0.572,0.26
		c0,0.516,0,1.046,0,1.34c-0.282,0.878-0.967,1.228-1.12,1.95c-0.142,0.668-0.811,0.999-1.165,1.56
		c-0.44,0.696-1.174,1.18-1.923,1.559c-0.891,0.452-1.75,0.953-2.679,1.352c-1.003,0.431-2.117,0.819-2.833,1.768
		c-0.164,0.217-0.362,0.389-0.496,0.655c-0.114,0.226-0.066,0.589-0.395,0.645c0.019,0.337,0.372,0.517,0.183,0.913
		c0.245,0.221,0.514,0.456,0.772,0.701c0.261,0.249,0.511,0.508,0.775,0.773c-0.042,0.394,0.184,0.858-0.313,1.176
		c-0.4,0-0.828,0-1.222,0c-1.524-1.002-3.234-1.799-3.861-3.728c0-0.283,0.036-0.572-0.007-0.849
		c-0.11-0.723,0.145-1.356,0.441-1.981c0.258-0.542,0.405-0.684,0.971-0.98c0.084-0.044,0.22,0.041,0.29-0.081
		c0.267-0.462,0.762-0.593,1.203-0.742c0.297-0.101,0.435-0.347,0.671-0.47c0.654-0.34,1.453-0.416,1.929-1.078
		c0.618,0.075,0.976-0.429,1.451-0.666c0.57-0.283,1.146-0.575,1.654-0.952c0.457-0.34,0.825-0.8,1.285-1.26
		c0.136-0.735,0.403-1.503,0.489-2.318c0.049-0.473,0.437-1.009,0.16-1.394c-0.321-0.447,0.087-1.02-0.384-1.363
		c0.078-0.403-0.165-0.844,0.182-1.226c0.093-0.103,0.048-0.331,0.065-0.487c0.439-0.227,0.804,0.051,1.229,0.198
		c0-0.465,0-0.853,0-1.24c0.157-0.534,0.731-0.608,1.024-0.975c0.307-0.384,0.793-0.333,1.211-0.463
		c0.354-0.11,0.807-0.142,1.086-0.523c0.12-0.164,0.411-0.294,0.619-0.289c0.988,0.029,1.826-0.473,2.729-0.735
		c0.153-0.044,0.297-0.147,0.478-0.146c0.54,0.004,1.081-0.011,1.62,0.005c0.49,0.015,0.914-0.367,1.423-0.222
		c0.067,0.019,0.145,0.01,0.215,0.001c1.82-0.214,2.588,0.089,3.447,1.73c0.08,0.153-0.176,0.211-0.203,0.341
		c-0.028,0.136-0.006,0.283-0.006,0.421c-0.16,0.082-0.302,0.176-0.458,0.23c-0.381,0.133-0.791,0.133-1.178,0.285
		c-0.25,0.098-0.649-0.087-0.834,0.051c-0.248,0.185-0.519,0.16-0.771,0.274c1.009,0.234,2.031,0.196,2.947-0.172
		c0.674-0.271,1.128,0.023,1.622,0.245c0.577,0.259,1.025,0.728,1.462,1.25c0,0.238,0,0.521,0,0.884
		c-0.192,0.158-0.439,0.36-0.773,0.634C40.389,14.576,41.348,14.627,42.388,14.964c-0.023,0.356,0.312,0.073,0.524,0.156
		c-0.019,0.104,0.029,0.17,0.128,0.192c0.017,0.003,0.067-0.047,0.063-0.063c-0.022-0.099-0.088-0.146-0.191-0.129
		C42.811,14.704,42.477,14.986,42.388,14.964z M24.768,13.608c-0.005,0.149,0.066,0.222,0.184,0.225
		c0.121,0.366,0.24,0.73,0.406,1.234c0.305-0.366,0.677-0.5,0.731-1.094c-0.479,0.312-0.696-0.259-1.105-0.149
		C24.99,13.674,24.917,13.603,24.768,13.608c0.018-0.104-0.03-0.17-0.129-0.192c-0.017-0.004-0.067,0.047-0.063,0.063
		C24.598,13.578,24.664,13.625,24.768,13.608z M31.408,15.737c-0.518,0.104-1.05,0.123-1.505,0.629
		c0.648,0.179,1.084-0.173,1.576-0.258C31.452,15.969,31.439,15.904,31.408,15.737z M50.043,14.382
		c-0.221-0.302-0.458-0.463-0.871-0.253C49.393,14.431,49.63,14.593,50.043,14.382z M44.866,16.106
		c-0.201-0.146-0.266-0.478-0.667-0.244C44.399,16.007,44.464,16.34,44.866,16.106z"/>
	
	
	
	
	
	
	
	
	
</g>
</svg>
