<svg xmlns="http://www.w3.org/2000/svg" xml:space="preserve" width="72px" height="72px" viewBox="0 0 72 72">
    <path fill="currentColor" d="m40.32 40.597.618-1.198c-.156-.208-.359-.391-.709-.296-.228.229-.463.446-.628.78-.18.364-.241.653-.007.964.32.424.3.904.295 1.392-.006.647.143 1.338-.034 1.935-.281.952-.074 1.898-.196 2.834-.067.517.289.918.239 1.425-.103 1.047-.308 2.085-.247 3.151.018.304-.192.632-.336.931-.296.619-.232 1.32-.485 1.958-.133.335.263.667.216 1.093-.078.711-.021 1.438-.021 2.157-.303.554-.914.686-1.489 1.029-.432 0-.97-.009-1.507.003-.455.01-.92.039-1.278-.296-.158-.146-.312-.139-.486-.139h-1.181c-.375.485-.931.612-1.467.633-1.258.047-2.52.038-3.779.002-.432-.012-.907-.083-1.28-.28-.684-.363-1.392-.372-1.988-.355-.505-.198-.851-.425-1.095-.777-.104-.405.327-.688.244-1.086.536-.535 1.057-1.085 1.608-1.601.501-.468 1.199-.584 1.814-.844v-1.253c.687-.349 1.509-.556 1.869-1.224.215-.397.623-.61.758-1.089a5 5 0 0 0 .181-1.474c-.377-.624-.801-1.171-1.046-1.789-.147-.37-.452-.528-.639-.816-.591-.906-1.145-1.839-1.773-2.718-.809-1.132-1.487-2.345-2.252-3.503-.438-.663-.808-1.388-1.187-2.097-.192-.358-.412-.567-.821-.7-.807-.263-1.445-.675-1.829-1.582-.344-.813-.875-1.574-1.197-2.539.183-.502.165-.848-.158-1.257-.388-.491-.949-.913-1.145-1.468-.208-.586-.795-.867-.915-1.459-.952-.789-1.369-1.984-2.197-2.878-.548-.591-.921-1.341-1.395-2.004a87 87 0 0 0-1.835-2.479c-.21-.272-.256-.663-.604-.808-.126-1.253.679-1.983 1.398-2.74.221.028.444-.071.538.126.237.5.673.848.94 1.336.389.712.866 1.383 1.365 2.026.586.754 1.048 1.586 1.593 2.364.719 1.026 1.316 2.124 1.968 3.188.406.663.875 1.282 1.273 1.951a4.8 4.8 0 0 0 1.778 1.753c.429.24.813.52 1.111.863h2.266c.625-1.412 1.714-2.495 2.823-3.542v-.953c-.318-.94-.933-1.169-1.743-1.125-.369.02-.78.134-1.148-.146-.235.291-.647.224-.972.335-.685.235-1.361-.114-1.708-.712-.354-.613-.854-.897-1.434-1.223-.688-.386-1.401-.625-2.311-.979l-.801-.869c-.066-.893-.46-1.833-.75-2.794-.071-.233-.14-.456-.143-.692-.01-.792-.028-1.584.001-2.375.044-1.181.536-2.119 1.655-2.606.177-.077.312-.256.55-.245.503.024 1.012-.033 1.51.02.473.049.829-.298 1.318-.249.906.091 1.792-.345 2.716-.196.226.037.358-.17.55-.239 1.083-.388 2.235-.484 3.326-.83a.94.94 0 0 0 .345-.213c.32.391.853.087 1.233.402.33.273.598.604.954.875h.896c.062-.072.203-.167.24-.292.162-.551.598-.987 1.02-1.162.624-.258 1.103-.691 1.6-1.067.739-.558 1.532-1.028 2.313-1.578.608 0 1.322.17 1.883-.05.512-.201.973-.063 1.442-.166.615.426 1.311.119 2.023.242a15 15 0 0 0 1.886 1.009c.64.289 1.203.746 1.803 1.125.798.505 1.572 1.058 2.406 1.495.542.284.934.757 1.536.983.57.213 1.017.722 1.457 1.183.6.628 1 1.362 1.292 2.167.034.094.115.189.106.277-.129 1.234.607 2.063 1.441 2.737.634.513 1.205 1.081 1.805 1.627 0 .793.052 1.589-.015 2.375-.071.857.379 1.648.242 2.506-.016.1.173.218.198.341.248 1.258.83 2.439.87 3.745.335.434.091.975.242 1.414.166.482.232.952.18 1.43-.114 1.031.146 1.998.519 2.922.116.288.092.54.146.827-.255.237-.517.481-.809.755-.357.02-.755-.004-1.161.195-.353.172-.85-.146-1.196.237-.766-.096-1.547.166-2.312-.156-.275-.115-.629-.053-.947-.058-.468-.007-.936-.002-1.403-.002-.595.304-.685 1.056-1.245 1.37v.675c.264.373.701.602 1.063.798.598.325.736.996 1.264 1.324.094.731.923 1.109.907 1.892-.003.176.154.228.24.332.092.11.243.188.297.311.62 1.418 1.948 2.214 2.908 3.331.255.296.626.388.953.564.766.414 1.472.931 1.639 1.867a.79.79 0 0 0 .433.567c.572.305.854.866 1.292 1.325v3.088c-1.091.745-2.154 1.677-3.696 1.567-.802-.057-1.521.322-2.281.487-.093.021-.179.158-.257.148-1.174-.138-2.329.417-3.469.191-.914-.182-1.813-.139-2.603-.187-.573-.186-.282-.759-.63-.98l.503-1.839c.497-.313 1.027-.408 1.571-.446.152-.154.04-.344.076-.512-.213-.346-.657-.366-.913-.68-.349-.427-.823-.757-.824-1.395 0-.114-.133-.229-.206-.342-.365-.569-.65-1.219-1.117-1.686-.679-.679-1.289-1.422-1.862-2.167-1.06-1.376-2.309-2.567-3.434-3.872-.665-.771-1.245-1.715-1.149-2.86.017-.246 0-.5 0-.721m-9.445 4.33h.645c.828-.574 1.06-1.339 1.042-2.297-.05-2.627-.02-5.256-.015-7.884 0-.342-.097-.712.214-.99-.199-.483.377-.614.458-1.004.078-.376.117-.803.399-1.128.054-.062-.008-.197.09-.285.546-.489.71-1.243 1.276-1.714-.377-.93-.839-1.763-.907-2.424l-.917-.917c-.046.052-.159.154-.199.356-.088.448.229.795.229 1.209.002.936.014 1.872-.004 2.808-.013.697-.557 1.799-1.139 2.105-.635.334-1.201.783-1.812 1.11-1.346.722-2.58 1.699-4.118 2.044-.089.02-.154.146-.251.242v.92c.101.6.744.796.953 1.341.253.657.742 1.215 1.153 1.78.602.828 1.029 1.755 1.637 2.575.479.645.823 1.387 1.266 2.153"/>
</svg>
