<?xml version="1.0" encoding="iso-8859-1"?>
<!-- Generator: Adobe Illustrator 16.0.0, SVG Export Plug-In . SVG Version: 6.00 Build 0)  -->
<!DOCTYPE svg PUBLIC "-//W3C//DTD SVG 1.1//EN" "http://www.w3.org/Graphics/SVG/1.1/DTD/svg11.dtd">
<svg version="1.1" id="Layer_1" xmlns="http://www.w3.org/2000/svg" xmlns:xlink="http://www.w3.org/1999/xlink" x="0px" y="0px"
	 width="72.36px" height="71.459px" viewBox="0 0 72.36 71.459" style="enable-background:new 0 0 72.36 71.459;"
	 xml:space="preserve">
<g>
	<path style="fill-rule:evenodd;clip-rule:evenodd;fill:none;" d="M-6.984,78.839c0-28.584,0-57.167,0-85.751
		c28.8,0,57.6,0,86.399,0c0,28.584,0,57.167,0,85.751C50.616,78.839,21.816,78.839-6.984,78.839z M40.32,40.597
		c0,0.221,0.018,0.475-0.003,0.725c-0.096,1.146,0.484,2.089,1.149,2.86c1.125,1.305,2.374,2.496,3.434,3.872
		c0.573,0.745,1.184,1.488,1.862,2.167c0.467,0.467,0.752,1.116,1.117,1.686c0.073,0.113,0.206,0.228,0.206,0.342
		c0.001,0.638,0.476,0.968,0.824,1.395c0.256,0.313,0.7,0.334,0.914,0.68c-0.037,0.168,0.075,0.357-0.077,0.512
		c-0.544,0.038-1.074,0.133-1.571,0.446c-0.167,0.611-0.335,1.224-0.503,1.839c0.348,0.222,0.057,0.795,0.63,0.98
		c0.789,0.048,1.688,0.005,2.603,0.187c1.14,0.226,2.295-0.329,3.469-0.191c0.078,0.01,0.164-0.128,0.257-0.148
		c0.76-0.165,1.479-0.544,2.281-0.487c1.542,0.109,2.605-0.822,3.696-1.567c0-1.104,0-2.108,0-3.088
		c-0.438-0.459-0.72-1.021-1.292-1.325c-0.186-0.099-0.38-0.271-0.433-0.567c-0.167-0.937-0.873-1.453-1.639-1.867
		c-0.327-0.177-0.698-0.269-0.953-0.564c-0.96-1.117-2.288-1.913-2.908-3.331c-0.054-0.123-0.205-0.2-0.297-0.311
		c-0.086-0.104-0.243-0.156-0.24-0.332c0.016-0.782-0.813-1.16-0.907-1.892c-0.527-0.328-0.666-0.999-1.264-1.324
		c-0.361-0.196-0.799-0.425-1.063-0.798c0-0.222,0-0.437,0-0.675c0.561-0.314,0.65-1.066,1.245-1.37
		c0.468,0,0.936-0.005,1.403,0.002c0.318,0.005,0.672-0.058,0.947,0.058c0.765,0.322,1.546,0.061,2.312,0.156
		c0.347-0.384,0.844-0.065,1.196-0.237c0.406-0.199,0.804-0.176,1.161-0.195c0.292-0.273,0.554-0.518,0.809-0.755
		c-0.054-0.287-0.029-0.539-0.146-0.827c-0.373-0.924-0.633-1.891-0.519-2.922c0.053-0.478-0.014-0.948-0.18-1.43
		c-0.151-0.438,0.093-0.979-0.242-1.414c-0.04-1.306-0.622-2.487-0.87-3.745c-0.025-0.123-0.214-0.242-0.198-0.341
		c0.137-0.857-0.313-1.648-0.242-2.506c0.066-0.786,0.015-1.581,0.015-2.375c-0.6-0.546-1.171-1.114-1.805-1.627
		c-0.834-0.675-1.57-1.503-1.441-2.737c0.009-0.087-0.072-0.183-0.106-0.277c-0.292-0.805-0.692-1.539-1.292-2.167
		c-0.44-0.461-0.887-0.97-1.457-1.183c-0.603-0.226-0.994-0.699-1.536-0.983c-0.834-0.437-1.608-0.989-2.406-1.495
		c-0.6-0.38-1.163-0.836-1.803-1.125c-0.675-0.305-1.32-0.647-1.886-1.009c-0.713-0.123-1.408,0.185-2.023-0.242
		c-0.47,0.103-0.931-0.035-1.442,0.166c-0.561,0.22-1.274,0.05-1.883,0.05c-0.782,0.55-1.575,1.021-2.313,1.578
		c-0.497,0.375-0.976,0.809-1.6,1.067c-0.421,0.174-0.857,0.61-1.02,1.162c-0.037,0.125-0.178,0.219-0.24,0.292
		c-0.348,0-0.635,0-0.896,0c-0.355-0.271-0.624-0.602-0.954-0.875c-0.38-0.315-0.913-0.011-1.233-0.402
		c-0.104,0.089-0.196,0.166-0.345,0.213c-1.091,0.346-2.243,0.442-3.326,0.83c-0.192,0.069-0.325,0.275-0.55,0.239
		c-0.924-0.149-1.811,0.287-2.716,0.196c-0.489-0.049-0.845,0.298-1.318,0.249c-0.499-0.053-1.007,0.005-1.51-0.02
		c-0.238-0.011-0.373,0.168-0.55,0.245c-1.119,0.487-1.611,1.425-1.655,2.606c-0.029,0.791-0.012,1.584-0.001,2.375
		c0.003,0.236,0.072,0.458,0.143,0.692c0.291,0.962,0.685,1.902,0.75,2.794c0.37,0.401,0.661,0.716,0.801,0.869
		c0.909,0.354,1.623,0.593,2.311,0.979c0.58,0.326,1.08,0.61,1.434,1.223c0.346,0.598,1.022,0.947,1.708,0.712
		c0.325-0.112,0.737-0.044,0.972-0.335c0.369,0.281,0.779,0.167,1.148,0.146c0.81-0.044,1.425,0.185,1.743,1.125
		c0,0.216,0,0.575,0,0.953c-1.109,1.048-2.198,2.131-2.823,3.542c-0.792,0-1.509,0-2.266,0c-0.298-0.343-0.682-0.624-1.111-0.863
		c-0.747-0.418-1.346-1.026-1.778-1.753c-0.398-0.668-0.867-1.288-1.273-1.951c-0.651-1.064-1.249-2.162-1.968-3.188
		c-0.544-0.777-1.007-1.609-1.593-2.364c-0.499-0.643-0.976-1.314-1.365-2.026c-0.267-0.488-0.704-0.836-0.94-1.336
		c-0.094-0.197-0.317-0.099-0.538-0.126c-0.72,0.756-1.525,1.487-1.398,2.74c0.347,0.145,0.394,0.535,0.604,0.808
		c0.628,0.814,1.238,1.642,1.835,2.479c0.474,0.663,0.847,1.413,1.395,2.004c0.829,0.894,1.246,2.089,2.197,2.878
		c0.12,0.592,0.708,0.873,0.915,1.459c0.196,0.555,0.757,0.977,1.145,1.468c0.323,0.409,0.341,0.754,0.158,1.257
		c0.321,0.964,0.853,1.725,1.197,2.539c0.384,0.907,1.022,1.319,1.829,1.582c0.409,0.133,0.629,0.342,0.821,0.7
		c0.379,0.709,0.749,1.434,1.187,2.097c0.765,1.158,1.443,2.371,2.252,3.503c0.629,0.879,1.183,1.812,1.773,2.718
		c0.188,0.288,0.492,0.446,0.639,0.816c0.245,0.618,0.669,1.165,1.046,1.789c0.012,0.46-0.035,0.956-0.181,1.474
		c-0.135,0.479-0.543,0.691-0.758,1.089c-0.36,0.668-1.182,0.875-1.869,1.224c0,0.404,0,0.791,0,1.253
		c-0.615,0.26-1.313,0.376-1.814,0.844c-0.552,0.516-1.073,1.065-1.608,1.601c0.083,0.397-0.349,0.681-0.245,1.086
		c0.245,0.353,0.59,0.579,1.096,0.777c0.596-0.017,1.304-0.008,1.988,0.355c0.374,0.197,0.848,0.269,1.28,0.28
		c1.259,0.036,2.521,0.045,3.779-0.002c0.537-0.021,1.092-0.147,1.467-0.633c0.391,0,0.786-0.001,1.181,0
		c0.174,0,0.329-0.008,0.486,0.139c0.358,0.335,0.823,0.306,1.278,0.296c0.537-0.012,1.075-0.003,1.507-0.003
		c0.575-0.344,1.187-0.476,1.489-1.029c0-0.72-0.057-1.446,0.021-2.157c0.047-0.426-0.349-0.758-0.216-1.093
		c0.253-0.638,0.189-1.339,0.485-1.958c0.144-0.299,0.354-0.627,0.336-0.931c-0.061-1.066,0.145-2.104,0.247-3.151
		c0.05-0.507-0.307-0.908-0.239-1.425c0.122-0.936-0.085-1.882,0.196-2.834c0.177-0.597,0.028-1.287,0.034-1.935
		c0.005-0.487,0.025-0.968-0.295-1.392c-0.234-0.311-0.173-0.6,0.007-0.964c0.165-0.334,0.4-0.552,0.628-0.78
		c0.35-0.095,0.553,0.088,0.709,0.296C40.747,39.77,40.562,40.127,40.32,40.597z"/>
	<path fill="currentColor" d="M40.32,40.597c0.242-0.47,0.427-0.827,0.618-1.198
		c-0.156-0.208-0.359-0.391-0.709-0.296c-0.228,0.229-0.463,0.446-0.628,0.78c-0.18,0.364-0.241,0.653-0.007,0.964
		c0.32,0.424,0.3,0.904,0.295,1.392c-0.006,0.647,0.143,1.338-0.034,1.935c-0.281,0.952-0.074,1.898-0.196,2.834
		c-0.067,0.517,0.289,0.918,0.239,1.425c-0.103,1.047-0.308,2.085-0.247,3.151c0.018,0.304-0.192,0.632-0.336,0.931
		c-0.296,0.619-0.232,1.32-0.485,1.958c-0.133,0.335,0.263,0.667,0.216,1.093c-0.078,0.711-0.021,1.438-0.021,2.157
		c-0.303,0.554-0.914,0.686-1.489,1.029c-0.432,0-0.97-0.009-1.507,0.003c-0.455,0.01-0.92,0.039-1.278-0.296
		c-0.158-0.146-0.312-0.139-0.486-0.139c-0.396-0.001-0.791,0-1.181,0c-0.375,0.485-0.931,0.612-1.467,0.633
		c-1.258,0.047-2.52,0.038-3.779,0.002c-0.432-0.012-0.907-0.083-1.28-0.28c-0.684-0.363-1.392-0.372-1.988-0.355
		c-0.505-0.198-0.851-0.425-1.095-0.777c-0.104-0.405,0.327-0.688,0.244-1.086c0.536-0.535,1.057-1.085,1.608-1.601
		c0.501-0.468,1.199-0.584,1.814-0.844c0-0.462,0-0.849,0-1.253c0.687-0.349,1.509-0.556,1.869-1.224
		c0.215-0.397,0.623-0.61,0.758-1.089c0.146-0.518,0.192-1.014,0.181-1.474c-0.377-0.624-0.801-1.171-1.046-1.789
		c-0.147-0.37-0.452-0.528-0.639-0.816c-0.591-0.906-1.145-1.839-1.773-2.718c-0.809-1.132-1.487-2.345-2.252-3.503
		c-0.438-0.663-0.808-1.388-1.187-2.097c-0.192-0.358-0.412-0.567-0.821-0.7c-0.807-0.263-1.445-0.675-1.829-1.582
		c-0.344-0.813-0.875-1.574-1.197-2.539c0.183-0.502,0.165-0.848-0.158-1.257c-0.388-0.491-0.949-0.913-1.145-1.468
		c-0.208-0.586-0.795-0.867-0.915-1.459c-0.952-0.789-1.369-1.984-2.197-2.878c-0.548-0.591-0.921-1.341-1.395-2.004
		c-0.598-0.836-1.208-1.665-1.835-2.479c-0.21-0.272-0.256-0.663-0.604-0.808c-0.126-1.253,0.679-1.983,1.398-2.74
		c0.221,0.028,0.444-0.071,0.538,0.126c0.237,0.5,0.673,0.848,0.94,1.336c0.389,0.712,0.866,1.383,1.365,2.026
		c0.586,0.754,1.048,1.586,1.593,2.364c0.719,1.026,1.316,2.124,1.968,3.188c0.406,0.663,0.875,1.282,1.273,1.951
		c0.433,0.727,1.031,1.335,1.778,1.753c0.429,0.24,0.813,0.52,1.111,0.863c0.757,0,1.474,0,2.266,0
		c0.625-1.412,1.714-2.495,2.823-3.542c0-0.377,0-0.737,0-0.953c-0.318-0.94-0.933-1.169-1.743-1.125
		c-0.369,0.02-0.78,0.134-1.148-0.146c-0.235,0.291-0.647,0.224-0.972,0.335c-0.685,0.235-1.361-0.114-1.708-0.712
		c-0.354-0.613-0.854-0.897-1.434-1.223c-0.688-0.386-1.401-0.625-2.311-0.979c-0.141-0.152-0.432-0.468-0.801-0.869
		c-0.066-0.893-0.46-1.833-0.75-2.794c-0.071-0.233-0.14-0.456-0.143-0.692c-0.01-0.792-0.028-1.584,0.001-2.375
		c0.044-1.181,0.536-2.119,1.655-2.606c0.177-0.077,0.312-0.256,0.55-0.245c0.503,0.024,1.012-0.033,1.51,0.02
		c0.473,0.049,0.829-0.298,1.318-0.249c0.906,0.091,1.792-0.345,2.716-0.196c0.226,0.037,0.358-0.17,0.55-0.239
		c1.083-0.388,2.235-0.484,3.326-0.83c0.148-0.047,0.241-0.124,0.345-0.213c0.32,0.391,0.853,0.087,1.233,0.402
		c0.33,0.273,0.598,0.604,0.954,0.875c0.262,0,0.548,0,0.896,0c0.062-0.072,0.203-0.167,0.24-0.292
		c0.162-0.551,0.598-0.987,1.02-1.162c0.624-0.258,1.103-0.691,1.6-1.067c0.739-0.558,1.532-1.028,2.313-1.578
		c0.608,0,1.322,0.17,1.883-0.05c0.512-0.201,0.973-0.063,1.442-0.166c0.615,0.426,1.311,0.119,2.023,0.242
		c0.565,0.362,1.211,0.704,1.886,1.009c0.64,0.289,1.203,0.746,1.803,1.125c0.798,0.505,1.572,1.058,2.406,1.495
		c0.542,0.284,0.934,0.757,1.536,0.983c0.57,0.213,1.017,0.722,1.457,1.183c0.6,0.628,1,1.362,1.292,2.167
		c0.034,0.094,0.115,0.189,0.106,0.277c-0.129,1.234,0.607,2.063,1.441,2.737c0.634,0.513,1.205,1.081,1.805,1.627
		c0,0.793,0.052,1.589-0.015,2.375c-0.071,0.857,0.379,1.648,0.242,2.506c-0.016,0.1,0.173,0.218,0.198,0.341
		c0.248,1.258,0.83,2.439,0.87,3.745c0.335,0.434,0.091,0.975,0.242,1.414c0.166,0.482,0.232,0.952,0.18,1.43
		c-0.114,1.031,0.146,1.998,0.519,2.922c0.116,0.288,0.092,0.54,0.146,0.827c-0.255,0.237-0.517,0.481-0.809,0.755
		c-0.357,0.02-0.755-0.004-1.161,0.195c-0.353,0.172-0.85-0.146-1.196,0.237c-0.766-0.096-1.547,0.166-2.312-0.156
		c-0.275-0.115-0.629-0.053-0.947-0.058c-0.468-0.007-0.936-0.002-1.403-0.002c-0.595,0.304-0.685,1.056-1.245,1.37
		c0,0.238,0,0.453,0,0.675c0.264,0.373,0.701,0.602,1.063,0.798c0.598,0.325,0.736,0.996,1.264,1.324
		c0.094,0.731,0.923,1.109,0.907,1.892c-0.003,0.176,0.154,0.228,0.24,0.332c0.092,0.11,0.243,0.188,0.297,0.311
		c0.62,1.418,1.948,2.214,2.908,3.331c0.255,0.296,0.626,0.388,0.953,0.564c0.766,0.414,1.472,0.931,1.639,1.867
		c0.053,0.296,0.247,0.469,0.433,0.567c0.572,0.305,0.854,0.866,1.292,1.325c0,0.979,0,1.983,0,3.088
		c-1.091,0.745-2.154,1.677-3.696,1.567c-0.802-0.057-1.521,0.322-2.281,0.487c-0.093,0.021-0.179,0.158-0.257,0.148
		c-1.174-0.138-2.329,0.417-3.469,0.191c-0.914-0.182-1.813-0.139-2.603-0.187c-0.573-0.186-0.282-0.759-0.63-0.98
		c0.168-0.615,0.336-1.228,0.503-1.839c0.497-0.313,1.027-0.408,1.571-0.446c0.152-0.154,0.04-0.344,0.076-0.512
		c-0.213-0.346-0.657-0.366-0.913-0.68c-0.349-0.427-0.823-0.757-0.824-1.395c0-0.114-0.133-0.229-0.206-0.342
		c-0.365-0.569-0.65-1.219-1.117-1.686c-0.679-0.679-1.289-1.422-1.862-2.167c-1.06-1.376-2.309-2.567-3.434-3.872
		c-0.665-0.771-1.245-1.715-1.149-2.86C40.337,41.072,40.32,40.818,40.32,40.597z M30.875,44.927c0.265,0,0.48,0,0.645,0
		c0.828-0.574,1.06-1.339,1.042-2.297c-0.05-2.627-0.02-5.256-0.015-7.884c0-0.342-0.097-0.712,0.214-0.99
		c-0.199-0.483,0.377-0.614,0.458-1.004c0.078-0.376,0.117-0.803,0.399-1.128c0.054-0.062-0.008-0.197,0.09-0.285
		c0.546-0.489,0.71-1.243,1.276-1.714c-0.377-0.93-0.839-1.763-0.907-2.424c-0.414-0.414-0.67-0.67-0.917-0.917
		c-0.046,0.052-0.159,0.154-0.199,0.356c-0.088,0.448,0.229,0.795,0.229,1.209c0.002,0.936,0.014,1.872-0.004,2.808
		c-0.013,0.697-0.557,1.799-1.139,2.105c-0.635,0.334-1.201,0.783-1.812,1.11c-1.346,0.722-2.58,1.699-4.118,2.044
		c-0.089,0.02-0.154,0.146-0.251,0.242c0,0.293,0,0.606,0,0.92c0.101,0.6,0.744,0.796,0.953,1.341
		c0.253,0.657,0.742,1.215,1.153,1.78c0.602,0.828,1.029,1.755,1.637,2.575C30.088,43.419,30.432,44.161,30.875,44.927z"/>
	<path style="fill-rule:evenodd;clip-rule:evenodd;fill:none;" d="M30.875,44.927c-0.443-0.767-0.788-1.508-1.264-2.151
		c-0.608-0.82-1.036-1.747-1.637-2.575c-0.411-0.565-0.9-1.123-1.153-1.78c-0.209-0.545-0.852-0.741-0.953-1.341
		c0-0.313,0-0.627,0-0.92c0.097-0.097,0.162-0.222,0.251-0.242c1.538-0.345,2.771-1.322,4.118-2.044
		c0.61-0.328,1.177-0.776,1.812-1.11c0.582-0.307,1.126-1.409,1.139-2.105c0.018-0.936,0.006-1.872,0.004-2.808
		c-0.001-0.415-0.317-0.762-0.229-1.209c0.04-0.203,0.153-0.305,0.199-0.356c0.246,0.246,0.503,0.502,0.917,0.917
		c0.067,0.662,0.529,1.494,0.907,2.424c-0.566,0.471-0.73,1.225-1.276,1.714c-0.098,0.088-0.037,0.223-0.09,0.285
		c-0.283,0.326-0.322,0.752-0.399,1.128c-0.08,0.39-0.656,0.521-0.458,1.004c-0.311,0.278-0.213,0.648-0.214,0.99
		c-0.004,2.628-0.035,5.257,0.015,7.884c0.018,0.958-0.213,1.723-1.042,2.297C31.356,44.927,31.14,44.927,30.875,44.927z"/>
</g>
</svg>
