<svg xmlns="http://www.w3.org/2000/svg" xml:space="preserve" width="72px" height="72px" viewBox="0 0 72 72">
    <g fill="currentColor">
        <path d="M18.85 25.605c.188-.218.511-.253.771-.405.232-.134.471-.257.796-.433.362 0 .841.074 1.289-.013 1.872-.366 3.758-.153 5.636-.186.355-.006.511-.375.846-.219.067-.721.127-1.349-.396-1.852 0-.929.021-1.865-.007-2.799-.019-.668.415-1.276.207-1.921.501-.938 1.369-1.485 2.015-2.283.35.061.704-.084.931-.28.476-.412 1.109-.283 1.604-.587.131-.081.386-.076.527-.002.94.493 1.804.074 2.644-.248.412-.159.801-.185 1.214-.194.144-.003.29-.014.432.001 1.474.164 2.62-.509 3.783-1.315.721-.5 1.368-1.054 2.028-1.617.672-.573 1.299-1.193 1.976-1.751.431-.354.838-.738 1.276-1.079.569-.441 1.324-.433 1.917-.25.952.294 1.936.627 2.646 1.434.331.375.56.768.605 1.303h1.666c.824.443 1.475.893 2.025 1.482.181.194.445.308.667.465 1.038.738 2.756 2.529 3.662 3.643.992 1.218 1.771 2.556 2.545 3.914.467.819.921 1.662 1.556 2.388.354.403.437.967.58 1.481.036.132-.02.311.05.41.883 1.26.533 2.696.602 4.072-.407.986-.099 2.111-.625 3.092-.15.279-.043.708-.019 1.067.048.704-.137 1.362-.352 2.016-.148.453-.115.933-.269 1.397-.117.354-.208.706-.417 1.019-.339.506-.681.992-.719 1.654-.019.341-.258.679-.43 1-.394.736-.854 1.436-1.063 2.261-.197.777-.666 1.445-.897 2.224-.144.482-.45.968-.846 1.382-.757.789-1.509 1.604-1.926 2.649.059.438.546.375.755.649.318 0 .648.042.963-.011.409-.068.714.223 1.1.237.44.016.362.548.639.746v1.736c-.776.844-1.765.876-2.778.638-.199-.048-.425-.153-.594-.094-.716.252-1.472.268-2.204.403-.322.06-.368.443-.683.446-.449.006-.83.314-1.316.233-.454-.075-.931-.017-1.381-.017-.831-.466-1.185-1.168-1.201-2.094-.027-1.524.392-3.025.22-4.554-.114-1.011-.274-2.016-.23-3.043.013-.28-.17-.569-.269-.853-.143-.412-.332-.799-.377-1.252-.057-.576-.373-1.085-.706-1.534a5.1 5.1 0 0 1-.812-1.614c-.122-.412-.35-.871-.798-1.025-.494-.171-.721-.585-.854-.967-.194-.555-.553-.941-.941-1.335-.61-.621-1.296-1.141-2.028-1.613-.296-.19-.521-.495-.77-.754-.41-.426-.91-.712-1.421-.999-.938-.528-1.936-.962-2.765-1.672-1.248-.269-2.261-1.119-3.553-1.351-.872-.157-1.737-.487-2.614-.702-.619-.152-1.256-.228-1.919-.344v.572c.054.025.126.041.171.085.701.681 1.639.899 2.482 1.308.754.364 1.453.841 2.208 1.288.531-.052 1.013.11 1.522.405.923.535 1.977.82 2.836 1.51.208.167.469.318.631.523.709.897 1.741 1.383 2.608 2.075.355.283.718.507.915.941.083.184.257.341.42.471.815.651 1.098 1.623 1.503 2.513.274.604.469 1.248.653 1.888.346 1.195.903 2.293 1.507 3.444a4.6 4.6 0 0 1-.313 1.84c-.346.866-.599 1.854-.145 2.815-.149.693.612 1.372.037 2.073.041 1.013-.279 1.942-.645 2.864-.037.094.016.237-.038.307-.518.663-.616 1.477-.836 2.248-.063.221-.151.473-.312.621-.819.763-1.207 1.814-1.853 2.689-.316.428-.694.843-1.125 1.148a55 55 0 0 1-4.867 3.101c-.353.198-.726.391-1.013.666-.258.245-.575.379-.915.627a4.15 4.15 0 0 0-1.827.331c-.628.266-1.338.055-2.01.101-.218-.417-.665-.08-.958-.297-.517-.382-1.192-.416-1.735-.769-.215-.141-.431-.216-.45-.591.39-.038.699-.296 1.043-.481.581-.313 1.183-.621 1.878-.68.761-.064 1.373-.556 1.976-.939s1.255-.643 1.857-1.004c.259-.156.553-.249.776-.485 1.077-1.137 2.312-2.104 3.443-3.186.791-.756 1.161-1.676 1.549-2.613.318-.769.532-1.579.794-2.371.021-.063.087-.127.077-.181-.152-.891.266-1.728.235-2.611-.014-.399-.066-.798.16-1.228.152-.292.053-.782-.098-1.214-.277-.794-.617-1.613-.5-2.49.051-.376-.389-.61-.214-1.006-.562-.431-.957-.999-1.217-1.646-.21-.521-.62-.859-1.012-1.194-.786-.672-.879-1.653-1.164-2.591-.118-.081-.256-.144-.35-.245-.546-.597-1.161-1.117-1.632-1.8-.383-.555-.957-.96-1.593-1.31-.518-.284-1.073-.57-1.552-.979-.88-.752-2.005-1.085-3.108-1.33-1.14-.252-2.288-.581-3.487-.46-.444.044-.882-.034-1.325.199-.346.182-.781-.022-1.217.195-.402.2-.982.042-1.418.042-.408.229-.746.455-1.112.618-.591.264-1.159.529-1.656.979-.301.272-.723.473-1.16.566-.643.137-1.067.542-1.429 1.086-.349.524-.607 1.121-1.271 1.424-.383.174-.714.563-.849 1.028v.913c.103.104.169.231.257.248 1.054.201 1.761.982 2.609 1.528.64.413 1.289.791 1.816 1.368.312.342.796.543 1.253.59.611.063 1.016.376 1.381.787.065.902-.413 1.432-1.222 1.807-.638.207-1.246-.145-1.744-.507-.717-.522-1.521-.893-2.225-1.423-.668-.503-1.378-.96-1.926-1.607-.308-.364-.462-.814-.658-1.239-.132-.287-.336-.441-.769-.373-.483.507-1.045.992-1.263 1.853-.149.589-.492 1.154-.67 1.771-.059.205-.132.409-.097.599.119.647-.085 1.279-.267 1.842-.232.716-.195 1.333.038 1.995.022.064.003.144.003.254l.62.542c1.019-.047 2.121-.308 3.253-.245 1.112.062 2.231.014 3.357.014.197.266.613.393.524.978-.572.764-1.521 1.052-2.489 1.16-.922.104-1.865.022-2.782.022-.623-.618-1.396-.379-2.062-.439l-1.064 1.069v1.113l-.348.427c-.111-.025-.204-.017-.239-.058-.735-.878-1.538-1.717-2.179-2.664a2.76 2.76 0 0 1-.477-1.524c.013-1.259-.022-2.52.016-3.778.018-.605.209-1.194.371-1.783.125-.455.358-.9.271-1.405-.022-.13-.012-.3.055-.403.657-1.015.963-2.204 1.659-3.206.464-.669.902-1.358 1.389-2.012.021-.029.071-.05.073-.077.075-.937.781-1.453 1.385-2.014.592-.549 1.134-1.141 1.783-1.648.868-.679 1.88-1.103 2.729-1.791.845-.685 1.897-1.074 2.692-1.838.425-.007.678-.418 1.115-.452.282-.021.549-.229.906-.392.804-.042 1.682-.307 2.607-.26.578.029.998-.52 1.105-1.219-.449-.105-.909-.041-1.362-.051a26 26 0 0 0-1.404 0c-.445.014-.894-.077-1.326.194-.181.113-.492.017-.744.019-.7.004-.687.037-1.558.409-.208.088-.484.204-.487.331-.014.54-.511.65-.782.718-1.081.269-1.84 1.005-2.669 1.644a4.5 4.5 0 0 1-.677.458c-.612.318-1.181.697-1.663 1.208-.431.457-.843.941-1.429 1.232-.493.245-.874.582-1.053 1.163-.095.309-.444.539-.683.81H9.56c-.344-.197-.55-.555-.777-1.092 0-.293-.037-.761.007-1.22.146-1.531-.277-3.029-.233-4.555.021-.732.148-1.283.877-1.698.55-.313 1.159-.608 1.58-1.101 1.221-.232 2.407.435 3.582.156 1.415-.335 2.825-.076 4.254-.218m39.914-1.677c-.424.28-.875.526-1.266.845-.875.713-1.772 1.383-2.749 1.958-.35.207-.687.434-1.072.544-.731.209-1.418.479-1.929 1.075-.402-.016-.505.502-.863.512-.626.017-1.196.415-1.815.205-.272.364-.769.317-.999.613.095.364.479.228.564.487.36 0 .721-.016 1.079.004.457.025.894-.025 1.314-.218 1.367-.628 2.879-.828 4.26-1.439.465-.207.96-.308 1.327-.705a14 14 0 0 1 2.719-2.29c.312-.201.417-.549.597-.836.168-.27.026-.54-.267-.754zm-13.235-7.313c.463-.178.942-.256 1.027-.62.128-.54.576-.58.912-.699.24-.086.448-.156.614-.343.291-.327.521-.755.88-.965.93-.545 1.615-1.345 2.374-2.067-.031-.245.071-.5-.067-.724-.456-.202-.749.348-1.031.223-.875.495-1.225 1.311-1.821 1.911-.421.423-.979.664-1.371 1.133-.494.591-.901 1.261-1.511 1.756-.047.037-.006.185-.006.395m-3.146 1.389c1.185.085 1.185.085 1.359-.553-.532-.12-.875.212-1.359.553"/>
        <path d="M29.209 44.207c1.723.817 2.549 2.569 3.913 3.697.255 1.113.521 2.191-.067 3.473-.696.681-1.714 1.249-2.824 1.699-.527.215-1.059.393-1.601.555-.962.288-1.789-.155-1.9-1.106-.067-.573-.371-1.001-.626-1.468-.129-.236-.308-.446-.451-.676-.37-.594-.164-1.146.137-1.686.26-.467.622-.853.8-1.396.12-.361.105-.687.114-1.022.032-1.237.842-2.061 2.081-2.069zm-3.225 10.827c.415.385.7.833.765 1.489.042.424.334.856.511 1.287.257.627.458 1.248.579 1.928.085.478.288.997.141 1.419-.328.942-.077 1.892-.223 2.853-1.033.26-1.897-.019-2.538-.925-.25-1.129-.373-2.291-.5-3.459-.092-.842-.262-1.721-.563-2.556-.296-.824.199-1.512 1.128-1.861.186-.069.334-.244.7-.175m1.319-20.317c.479.646.773 1.309.693 2.047-.12 1.106.283 2.159.24 3.259-.051 1.297-.449 2.342-1.713 2.892-.528-.15-.897-.467-1.106-1.141 0-.979-.17-2.164.05-3.271.206-1.032.041-2.04.207-3.076.107-.087.22-.216.194-.417.414-.313.892-.343 1.435-.293m4.276 19.648h1.296c.37.369.787.678 1.307.916.859.394 1.506 1.1 1.972 1.937.292.525.279.533.279 1.711-.355.623-.355.623-1.256 1.063-.818-.38-1.646-.771-2.047-1.695-.108-.249-.435-.202-.589-.384-.253-.296-.599-.459-.894-.691-.264-.207-.278-.636-.618-.794.032-.702-.153-1.433.55-2.063m4.79-15.979c.708.115.947.56 1.146 1.052-.099.244-.327.458-.221.754-.19.301-.494.479-.666.813-.255.497-.935.598-1.216 1.099-.25.444-.43.956-.852 1.256-.542.386-1.133.718-1.804.841-.126.023-.178.101-.273.171-.211.083-.234-.415-.469-.14-.359-.463-.36-.944-.33-1.434 1.275-1.791 2.827-3.285 4.685-4.412m-.507 12.476-.724-.729v-1.067l.427-.427c.862-.321 1.648-.353 2.416-.505.771-.153 1.561-.458 2.49-.173.142.167.372.437.722.845.101.876-.616 1.397-1.426 1.882-.659 0-1.341.01-2.022-.003-.629-.012-1.204.408-1.883.177m-15.556 2.665h.93l.292.292c0 .252.034.54-.008.817-.062.404-.166.837-.591 1.005-.254.1-.352.256-.497.461-.381.537-.805 1.041-1.434 1.343-.431.207-.783.256-1.072-.092-.297-.525.229-.893.133-1.431 1.07-.473 1.404-1.683 2.247-2.395"/>
    </g>
</svg>
