<?xml version="1.0" encoding="iso-8859-1"?>
<!-- Generator: Adobe Illustrator 16.0.0, SVG Export Plug-In . SVG Version: 6.00 Build 0)  -->
<!DOCTYPE svg PUBLIC "-//W3C//DTD SVG 1.1//EN" "http://www.w3.org/Graphics/SVG/1.1/DTD/svg11.dtd">
<svg version="1.1" id="Layer_1" xmlns="http://www.w3.org/2000/svg" xmlns:xlink="http://www.w3.org/1999/xlink" x="0px" y="0px"
	 width="72.36px" height="72.18px" viewBox="0 0 72.36 72.18" style="enable-background:new 0 0 72.36 72.18;" xml:space="preserve"
	>
<g>
	<path style="fill-rule:evenodd;clip-rule:evenodd;fill:none;" d="M79.416,79.631c-28.8,0-57.6,0-86.399,0
		c0-28.871,0-57.743,0-86.615c28.8,0,57.6,0,86.399,0C79.416,21.888,79.416,50.76,79.416,79.631z M22.252,33.213
		c-0.35,0.252-0.274,0.549-0.294,0.825c-0.159,2.138,0.312,4.255,0.212,6.39c-0.058,1.23,0.107,2.457-0.175,3.698
		c-0.198,0.869-0.104,1.805-0.205,2.715c-0.109,0.99-0.256,2.048,0.17,3.037c-0.118,0.902,0.252,1.843-0.216,2.718
		c0.068,0.906-0.094,1.812,0.185,2.728c0.17,0.561,0.021,1.214,0.034,1.826c0.013,0.63-0.408,1.205-0.183,1.868
		c0.259,0.318,0.268,0.875,0.662,1.085c0.419,0.224,0.689,0.502,0.913,0.912c0.113,0.209,0.33,0.4,0.644,0.498
		c0.501,0.157,1.039,0.393,1.401,0.754c0.654,0.651,1.461,1.114,2.072,1.81c0.555,0.632,1.205,0.9,1.994,0.38
		c0.164-0.374,0.286-0.746,0.281-1.181c-0.024-2.268-0.011-4.535-0.011-6.803c0-0.216,0.061-0.454-0.011-0.644
		c-0.259-0.69-0.344-1.346-0.247-2.116c0.156-1.24,0.081-2.517,0.031-3.774c-0.049-1.229,0.236-2.481-0.205-3.689
		c0.147-0.748-0.32-1.435-0.218-2.179c0.014-0.104-0.047-0.19-0.086-0.287c-0.4-0.998-0.535-2.063-0.545-3.115
		c-0.038-3.959-0.01-7.919-0.023-11.878c-0.001-0.369,0.07-0.729-0.166-1.122c-0.163-0.271-0.158-0.778,0.039-1.129
		c0.25-0.445,0.247-0.975,0.097-1.333c-0.251-0.602-0.145-1.178-0.169-1.763c-0.032-0.754-0.012-1.511-0.007-2.267
		c0.005-0.661,0.038-1.309,0.17-1.971c0.08-0.399,0.444-0.567,0.461-0.893c0.031-0.588,0.389-0.943,0.763-1.312
		c0.48,0.009,0.945-0.048,1.428,0.183c0.362,0.172,0.799-0.126,1.197-0.168c0.748-0.079,1.515-0.081,2.264-0.005
		c0.678,0.068,1.278,0.302,1.614,1.043c0.247,0.544,0.294,1.186,0.741,1.649c0,1.357,0,2.725,0,3.852
		c-0.382,0.403-0.648,0.683-0.956,1.008c-0.58-0.315-1.281-0.234-1.712-0.22c-0.792,0.198-1.064,0.579-1.231,1.108
		c-0.183,0.583-0.416,1.142-0.427,1.769c-0.005,0.301,0.133,0.639-0.187,0.899c-0.072,0.059-0.077,0.354-0.012,0.402
		c0.463,0.335,0.061,0.863,0.332,1.283c0.261,0.403,0.076,0.972,0.088,1.467c0.018,0.732-0.072,1.478,0.223,2.177
		c0.284,0.673,0.205,1.375,0.211,2.071c0.007,0.72-0.033,1.442,0.012,2.159c0.037,0.578,0.083,1.183,0.283,1.716
		c0.186,0.496,0.55,0.893,1.089,1.177c0.512,0.27,1.079,0.368,1.566,0.656c0.726,0.429,1.506,0.613,2.341,0.608
		c0.684-0.004,1.367-0.001,2.052-0.001c0.684,0,1.438,0.182,2.032-0.048c0.654-0.253,1.256-0.104,1.874-0.155
		c0.68-0.056,1.367-0.013,2.051-0.013s1.368,0,2.052,0c1.042,0,2.085,0,3.05,0c0.627-0.352,1.201-0.652,1.864-0.642
		c0.977,0.017,1.587-0.545,1.885-1.351c0.232-0.63,0.574-1.202,0.793-1.832c0.12-0.346,0.427-0.734,0.347-1.017
		c-0.131-0.465-0.151-0.938-0.254-1.4c-0.213-0.96-0.464-1.923-0.55-2.898c-0.095-1.071-0.085-2.162-0.004-3.236
		c0.084-1.108-0.334-2.166-0.226-3.259c0.07-0.72-0.227-1.342-0.462-1.973c-0.194-0.52-0.574-0.914-1.182-0.969
		c-0.746,0.097-1.318,0.735-2.123,0.648c-0.19-0.195-0.537-0.339-0.539-0.61c-0.002-0.396-0.245-0.698-0.262-1.097
		c-0.047-1.066,0.386-2.088,0.234-3.15c-0.063-0.445,0.13-0.801,0.328-1.21c0.367,0.024,0.798-0.051,1.128,0.097
		c0.649,0.293,1.188,0.11,1.766-0.153c0.534-0.244,0.875-0.694,1.294-1.086c-0.056-0.316,0.174-0.563,0.252-0.841
		c-0.082-0.13-0.201-0.237-0.219-0.359c-0.152-1.007-0.849-1.63-1.691-1.919c-0.763-0.262-1.424-0.75-2.262-0.885
		c-0.48,0.232-0.925,0.607-1.417,0.899c-0.793,0.469-1.585,0.801-2.589,0.41c-0.884-0.345-1.842-0.522-2.834-0.483
		c-0.721,0.028-1.481,0.208-2.181-0.189c-0.081-0.046-0.271-0.049-0.31,0.002c-0.247,0.331-0.608,0.248-0.889,0.188
		c-0.368-0.08-0.562,0.273-0.887,0.24c-0.282-0.028-0.597,0.052-0.848-0.044c-1.209-0.465-2.488-0.45-3.742-0.616
		c-0.442-0.059-0.782,0.226-1.207,0.24c-0.814,0.028-1.61-0.081-2.39-0.252c-0.377-0.083-0.767-0.307-1.128-0.375
		c-0.567-0.105-0.958-0.381-1.306-0.77c-0.355-0.397-0.779-0.666-1.276-0.837c-0.448-0.155-0.855-0.47-1.024-0.853
		c-0.193-0.437-0.537-0.583-0.919-0.815c-0.371,0-0.802,0-1.141,0c-0.871,0.529-1.358,1.34-1.888,2.07
		c-0.313,0.43-0.491,0.933-1.147,1.167c-0.519,0-1.167,0-1.858,0c-0.031,0.324-0.417,0.131-0.56,0.378
		c-0.225,0.388-0.636,0.53-1.039,0.605c-0.924,0.171-1.648,0.729-2.427,1.182c-0.174,0.102-0.264,0.289-0.378,0.463
		c-0.409,0.625-0.137,1.098,0.231,1.612c0.235,0.095,0.55,0.131,0.716,0.308c0.533,0.567,1.33,0.253,1.906,0.632
		c0.05,0.033,0.167,0.035,0.209,0c0.617-0.522,1.149,0.052,1.654,0.07c0.31,0.265,0.448,0.579,0.465,0.854
		c0.045,0.725,0.235,1.404,0.441,2.091c0.069,0.231,0.115,0.592-0.01,0.734c-0.317,0.36-0.167,0.745-0.189,1.117
		c-0.027,0.466,0.054,0.945-0.022,1.401c-0.086,0.52,0.269,0.933,0.233,1.425c-0.091,1.229,0.024,2.453-0.167,3.698
		c-0.193,1.265,0.258,2.576,0.212,3.882C22.004,32.982,22.128,33.063,22.252,33.213z"/>
	<path fill="currentColor" d="M22.252,33.213c-0.125-0.15-0.248-0.231-0.246-0.308
		c0.045-1.306-0.406-2.618-0.212-3.882c0.19-1.245,0.076-2.469,0.167-3.698c0.036-0.492-0.319-0.905-0.233-1.425
		c0.076-0.456-0.004-0.935,0.022-1.401c0.021-0.372-0.128-0.757,0.189-1.117c0.125-0.142,0.079-0.503,0.01-0.734
		c-0.206-0.687-0.396-1.366-0.441-2.091c-0.017-0.274-0.155-0.588-0.465-0.854c-0.505-0.018-1.038-0.592-1.654-0.07
		c-0.042,0.036-0.159,0.034-0.209,0c-0.577-0.379-1.374-0.065-1.906-0.632c-0.166-0.176-0.48-0.212-0.716-0.308
		c-0.368-0.514-0.64-0.987-0.231-1.612c0.114-0.175,0.205-0.362,0.378-0.463c0.779-0.453,1.503-1.011,2.427-1.182
		c0.402-0.075,0.813-0.217,1.039-0.605c0.143-0.247,0.529-0.054,0.56-0.378c0.692,0,1.339,0,1.858,0
		c0.656-0.234,0.835-0.737,1.147-1.167c0.53-0.73,1.017-1.541,1.888-2.07c0.339,0,0.77,0,1.141,0
		c0.383,0.231,0.727,0.378,0.919,0.815c0.169,0.383,0.576,0.698,1.024,0.853c0.497,0.172,0.921,0.44,1.276,0.837
		c0.348,0.389,0.739,0.665,1.306,0.77c0.362,0.067,0.751,0.292,1.128,0.375c0.78,0.171,1.576,0.28,2.39,0.252
		c0.425-0.015,0.765-0.299,1.207-0.24c1.253,0.166,2.533,0.151,3.742,0.616c0.251,0.096,0.565,0.016,0.848,0.044
		c0.325,0.033,0.519-0.319,0.887-0.24c0.28,0.06,0.642,0.144,0.889-0.188c0.038-0.052,0.229-0.048,0.31-0.002
		c0.699,0.397,1.46,0.217,2.181,0.189c0.992-0.039,1.95,0.138,2.834,0.483c1.004,0.391,1.796,0.06,2.589-0.41
		c0.492-0.292,0.937-0.667,1.417-0.899c0.838,0.135,1.499,0.624,2.262,0.885c0.843,0.289,1.539,0.913,1.691,1.919
		c0.018,0.122,0.137,0.229,0.219,0.359c-0.078,0.278-0.308,0.525-0.252,0.841c-0.419,0.392-0.76,0.842-1.294,1.086
		c-0.577,0.264-1.116,0.446-1.766,0.153c-0.33-0.148-0.761-0.073-1.128-0.097c-0.198,0.409-0.392,0.765-0.328,1.21
		c0.151,1.062-0.281,2.084-0.234,3.15c0.017,0.399,0.26,0.701,0.262,1.097c0.002,0.271,0.349,0.416,0.539,0.61
		c0.805,0.087,1.377-0.552,2.123-0.648c0.607,0.055,0.987,0.449,1.182,0.969c0.235,0.63,0.532,1.252,0.462,1.973
		c-0.108,1.093,0.31,2.151,0.226,3.259c-0.081,1.074-0.091,2.165,0.004,3.236c0.086,0.975,0.337,1.938,0.55,2.898
		c0.103,0.462,0.123,0.935,0.254,1.4c0.08,0.283-0.227,0.671-0.347,1.017c-0.219,0.63-0.561,1.202-0.793,1.832
		c-0.298,0.806-0.908,1.367-1.885,1.351c-0.663-0.011-1.237,0.29-1.864,0.642c-0.965,0-2.008,0-3.05,0c-0.684,0-1.368,0-2.052,0
		s-1.371-0.043-2.051,0.013c-0.618,0.052-1.22-0.098-1.874,0.155c-0.595,0.229-1.349,0.048-2.032,0.048
		c-0.685,0-1.368-0.003-2.052,0.001c-0.835,0.005-1.615-0.18-2.341-0.608c-0.487-0.288-1.055-0.387-1.566-0.656
		c-0.54-0.284-0.903-0.681-1.089-1.177c-0.2-0.533-0.246-1.138-0.283-1.716c-0.045-0.717-0.005-1.439-0.012-2.159
		c-0.006-0.696,0.073-1.398-0.211-2.071c-0.294-0.699-0.205-1.444-0.223-2.177c-0.012-0.495,0.173-1.063-0.088-1.467
		c-0.271-0.419,0.132-0.947-0.332-1.283c-0.065-0.047-0.06-0.343,0.012-0.402c0.32-0.261,0.182-0.598,0.187-0.899
		c0.011-0.626,0.244-1.186,0.427-1.769c0.167-0.529,0.438-0.91,1.231-1.108c0.431-0.014,1.133-0.095,1.712,0.22
		c0.308-0.325,0.574-0.605,0.956-1.008c0-1.127,0-2.495,0-3.852c-0.447-0.463-0.494-1.104-0.741-1.649
		c-0.336-0.741-0.936-0.975-1.614-1.043c-0.749-0.075-1.516-0.073-2.264,0.005c-0.398,0.042-0.834,0.341-1.197,0.168
		C30.565,16.952,30.1,17.009,29.62,17c-0.374,0.369-0.731,0.724-0.763,1.312c-0.017,0.325-0.382,0.494-0.461,0.893
		c-0.132,0.662-0.166,1.31-0.17,1.971c-0.005,0.756-0.025,1.513,0.007,2.267c0.025,0.585-0.082,1.161,0.169,1.763
		c0.15,0.358,0.153,0.888-0.097,1.333c-0.197,0.351-0.201,0.857-0.039,1.129c0.236,0.393,0.165,0.753,0.166,1.122
		c0.013,3.959-0.015,7.919,0.023,11.878c0.01,1.053,0.146,2.117,0.545,3.115c0.039,0.097,0.1,0.183,0.086,0.287
		c-0.103,0.744,0.365,1.431,0.218,2.179c0.441,1.208,0.156,2.46,0.205,3.689c0.05,1.258,0.125,2.534-0.031,3.774
		c-0.097,0.771-0.012,1.426,0.247,2.116c0.071,0.189,0.011,0.428,0.011,0.644c0,2.268-0.013,4.535,0.011,6.803
		c0.004,0.435-0.117,0.807-0.281,1.181c-0.789,0.521-1.439,0.252-1.994-0.38c-0.611-0.695-1.418-1.158-2.072-1.81
		c-0.363-0.361-0.9-0.597-1.401-0.754c-0.314-0.098-0.531-0.289-0.644-0.498c-0.224-0.41-0.494-0.688-0.913-0.912
		c-0.394-0.21-0.403-0.767-0.662-1.085c-0.225-0.663,0.196-1.238,0.183-1.868c-0.013-0.612,0.136-1.266-0.034-1.826
		c-0.278-0.916-0.117-1.821-0.185-2.728c0.468-0.875,0.098-1.815,0.216-2.718c-0.426-0.989-0.279-2.047-0.17-3.037
		c0.101-0.91,0.007-1.846,0.205-2.715c0.283-1.241,0.118-2.468,0.175-3.698c0.1-2.135-0.371-4.251-0.212-6.39
		C21.979,33.763,21.903,33.466,22.252,33.213z M40.857,39.077c1.064,0.487,1.916,0.364,2.755,0.377
		c0.539,0.008,1.083-0.036,1.618,0.012c0.538,0.048,0.986-0.282,1.532-0.245c0.818,0.057,1.551-0.413,1.739-1.167
		c0.254-1.016,0.842-1.821,1.387-2.669c0.232-0.362,0.554-0.774,0.549-1.16c-0.009-0.747,0.212-1.45,0.246-2.179
		c0.025-0.538,0.011-1.079,0.004-1.619c-0.016-1.093-0.675-1.888-1.268-2.713c-0.04-0.055-0.099-0.104-0.158-0.136
		c-0.598-0.319-1.082-0.814-1.828-1.082c-0.387,0-0.893-0.029-1.395,0.006c-1.05,0.073-2.123-0.221-3.152,0.204
		c-0.088,0.037-0.24,0.036-0.31-0.017c-0.604-0.456-1.208-0.173-1.771,0.037c-0.65,0.243-1.372,0.434-1.64,1.232
		c-0.071,0.213-0.413,0.294-0.371,0.602c-0.427-0.012-0.533,0.555-0.966,0.538c-0.024-0.001-0.051,0.047,0.093-0.096
		c-0.343,0.455-0.358,0.822-0.626,1.059c0,0.54,0.049,1.086-0.014,1.618c-0.068,0.579,0.247,1.07,0.262,1.639
		c0.013,0.479,0.164,1.087,0.676,1.313c0.794,0.35,0.975,1.053,1.243,1.748C39.863,37.414,40.067,38.571,40.857,39.077z
		 M39.5,23.908c0.626,0.382,1.223,0.642,1.948,0.283c0.357-0.177,0.845-0.187,1.132-0.025c0.356,0.201,0.678,0.152,1.014,0.162
		c0.553,0.017,1.093-0.085,1.642-0.17c0.813-0.126,1.683-0.157,2.445,0.204c0.465-0.257,0.628-0.686,0.834-1.046
		c0.07-0.535-0.104-1.063,0.209-1.564c0.094-0.15,0.024-0.441-0.096-0.695c-0.313-0.658-0.576-1.38-0.698-2.07
		c-0.149-0.845-0.474-1.399-1.397-1.807c-2.22,0.611-4.631,0.037-6.99,0.013c-0.225,0.464-0.291,0.853-0.321,1.274
		c-0.034,0.476,0.24,0.878,0.222,1.313c-0.039,0.869,0.208,1.76-0.187,2.614c-0.071,0.154-0.116,0.441,0.061,0.605
		C39.579,23.241,39.386,23.542,39.5,23.908z"/>
	<path style="fill-rule:evenodd;clip-rule:evenodd;fill:none;" d="M40.857,39.077c-0.79-0.506-0.994-1.663-1.394-2.699
		c-0.269-0.695-0.449-1.398-1.243-1.748c-0.512-0.226-0.663-0.833-0.676-1.313c-0.015-0.568-0.33-1.06-0.262-1.639
		c0.063-0.532,0.014-1.078,0.014-1.618c0.268-0.238,0.283-0.604,0.626-1.06c-0.144,0.144-0.117,0.095-0.093,0.096
		c0.433,0.017,0.539-0.55,0.966-0.538c-0.042-0.308,0.3-0.389,0.371-0.602c0.268-0.798,0.989-0.989,1.64-1.232
		c0.563-0.21,1.167-0.493,1.771-0.037c0.069,0.053,0.222,0.054,0.31,0.017c1.029-0.425,2.103-0.131,3.152-0.204
		c0.502-0.036,1.008-0.006,1.395-0.006c0.746,0.268,1.23,0.763,1.828,1.082c0.06,0.032,0.118,0.081,0.158,0.136
		c0.593,0.825,1.252,1.62,1.268,2.713c0.007,0.54,0.021,1.081-0.004,1.619c-0.034,0.729-0.255,1.432-0.246,2.179
		c0.005,0.386-0.316,0.798-0.549,1.16c-0.545,0.848-1.133,1.654-1.387,2.669c-0.188,0.754-0.921,1.224-1.739,1.167
		c-0.546-0.037-0.994,0.293-1.532,0.245c-0.535-0.048-1.079-0.004-1.618-0.012C42.773,39.441,41.921,39.564,40.857,39.077z
		 M48.312,32.186c0.229-1.166,0.195-1.443-0.274-2.187c-0.336,0-0.674,0-1.025,0c-0.402,0.806-0.915,1.532-0.854,2.493
		c0.275,0.098,0.337,0.465,0.739,0.495C47.368,32.793,47.989,32.768,48.312,32.186z M40.536,31.617
		c0.32,0.845,0.788,1.292,1.455,1.536c0.078-0.238,0.323-0.123,0.448-0.244c-0.033-0.291,0.351-0.438,0.257-0.751
		c-0.209-0.698-0.164-1.497-0.795-2.03c-0.078-0.065-0.156-0.129-0.214-0.177c-0.214,0-0.393,0-0.591,0
		c-0.192,0.18-0.395,0.369-0.561,0.524C40.536,30.939,40.536,31.333,40.536,31.617z M44.385,36.035
		c0.547-0.066,0.754-0.316,0.686-0.793c-0.1-0.099-0.201-0.199-0.337-0.333c-0.258,0.083-0.604-0.137-0.842,0.212
		c-0.06,0.088-0.137,0.158-0.143,0.126C44.002,35.561,44.177,35.777,44.385,36.035z"/>
	<path style="fill-rule:evenodd;clip-rule:evenodd;fill:none;" d="M39.5,23.908c-0.113-0.367,0.079-0.667-0.184-0.91
		c-0.177-0.164-0.132-0.451-0.061-0.605c0.395-0.854,0.147-1.745,0.187-2.614c0.019-0.436-0.256-0.838-0.222-1.313
		c0.03-0.421,0.097-0.811,0.321-1.274c2.359,0.024,4.771,0.599,6.99-0.013c0.924,0.408,1.248,0.962,1.397,1.807
		c0.122,0.69,0.385,1.413,0.698,2.07c0.12,0.253,0.189,0.544,0.096,0.695c-0.313,0.501-0.139,1.029-0.209,1.564
		c-0.206,0.361-0.369,0.789-0.834,1.046c-0.763-0.361-1.632-0.33-2.445-0.204c-0.549,0.085-1.089,0.188-1.642,0.17
		c-0.336-0.01-0.657,0.039-1.014-0.162c-0.287-0.162-0.774-0.151-1.132,0.025C40.722,24.55,40.125,24.29,39.5,23.908z"/>
	<path fill="currentColor" d="M48.312,32.186c-0.323,0.583-0.944,0.607-1.414,0.802
		c-0.402-0.029-0.464-0.396-0.739-0.495c-0.062-0.961,0.451-1.687,0.854-2.493c0.352,0,0.689,0,1.025,0
		C48.507,30.743,48.542,31.021,48.312,32.186z"/>
	<path fill="currentColor" d="M40.536,31.617c0-0.285,0-0.678,0-1.141
		c0.166-0.155,0.368-0.345,0.561-0.524c0.198,0,0.377,0,0.591,0c0.058,0.047,0.136,0.111,0.214,0.177
		c0.631,0.533,0.586,1.332,0.795,2.03c0.094,0.313-0.29,0.46-0.257,0.751c-0.125,0.122-0.37,0.006-0.448,0.244
		C41.324,32.909,40.856,32.462,40.536,31.617z"/>
	<path fill="currentColor" d="M44.385,36.035c-0.208-0.258-0.383-0.475-0.636-0.788
		c0.006,0.031,0.083-0.039,0.143-0.126c0.238-0.35,0.584-0.129,0.842-0.212c0.136,0.134,0.237,0.234,0.337,0.333
		C45.139,35.719,44.932,35.969,44.385,36.035z"/>
</g>
</svg>
