<?xml version="1.0" encoding="iso-8859-1"?>
<!-- Generator: Adobe Illustrator 16.0.0, SVG Export Plug-In . SVG Version: 6.00 Build 0)  -->
<!DOCTYPE svg PUBLIC "-//W3C//DTD SVG 1.1//EN" "http://www.w3.org/Graphics/SVG/1.1/DTD/svg11.dtd">
<svg version="1.1" id="Layer_1" xmlns="http://www.w3.org/2000/svg" xmlns:xlink="http://www.w3.org/1999/xlink" x="0px" y="0px"
	 width="72.36px" height="72.18px" viewBox="0 0 72.36 72.18" style="enable-background:new 0 0 72.36 72.18;" xml:space="preserve"
	>
<g>
	<path style="fill-rule:evenodd;clip-rule:evenodd;fill:none;" d="M79.416,79.631c-28.8,0-57.6,0-86.399,0
		c0-28.871,0-57.743,0-86.615c28.8,0,57.6,0,86.399,0C79.416,21.888,79.416,50.76,79.416,79.631z M21.735,32.446
		c-0.355,0.339-0.554,0.667-0.656,1.097c-0.123,0.522-0.34,0.999-0.746,1.428c-0.449,0.476-0.78,1.059-1.014,1.73
		c-0.215,0.616-0.092,1.182-0.158,1.764c-0.04,0.343-0.003,0.68-0.219,0.995c-0.322,0.471-0.601,0.971-0.871,1.414
		c0,0.672,0,1.283,0,1.896c-0.355,0.172-0.188,0.56-0.335,0.836c-0.35,0.658-0.367,1.432-0.512,2.157
		c-0.146,0.733-0.604,2.515-1.047,3.24c-0.456,0.747-0.912,1.494-1.372,2.239c-0.341,0.553-0.647,1.133-1.137,1.584
		c-0.306,0.282-0.63,0.558-0.751,1.188c0,0.103,0,0.417,0,0.662c0.246,0.37,0.604,0.412,0.768,0.495
		c0.976-0.252,1.797-0.658,2.708-0.224c0.236,0.112,0.547,0.143,0.711,0.022c0.414-0.302,1.002-0.328,1.261-0.828
		c0.563,0,1.113-0.065,1.638,0.021c0.378,0.063,0.745,0.297,1.072,0.519c0.21,0.143,0.405,0.097,0.607,0.104
		c0.432,0.014,0.865,0.021,1.296,0.001c1.188-0.054,2.296,0.148,3.423,0.602c0.755,0.304,1.559,0.619,2.384,0.731
		c0.645,0.562,1.129,1.287,1.881,1.663c0.414,0,0.8,0,1.152,0c0.26-0.261,0.49-0.49,0.722-0.722
		c-0.09-0.301,0.188-0.519,0.204-0.771c0.052-0.873,0.337-1.718,0.241-2.61c-0.113-1.041,0.358-1.916,0.909-2.758
		c0.259,0,0.5,0,0.709,0c0.808,0.56,0.546,1.633,1.18,2.248c0,1.258,0.052,2.52-0.017,3.775c-0.052,0.945,0.316,1.743,0.719,2.517
		c0.49,0.938,0.89,1.242,1.946,1.743c0.448,0.213,0.943,0.327,1.413,0.498c0.438,0.159,0.962,0.234,1.281,0.527
		c0.443,0.407,0.965,0.647,1.517,0.978c0.423,0.053,0.897,0.025,1.315-0.285c0.164-0.122,1.256-1.786,1.328-2.042
		c0.3-1.062,0.63-2.108,1.184-3.075c0.162-0.283,0.287-0.62,0.314-0.942c0.042-0.492,0.176-0.938,0.463-1.323
		c0.308-0.411,0.31-0.942,0.66-1.357c0.385-0.455,0.716-1.004,0.627-1.679c-0.026-0.198,0.104-0.413,0.127-0.583
		c0.126-0.915,0.615-1.759,0.519-2.712c-0.018-0.168,0.054-0.327,0.104-0.493c0.205-0.691,0.71-1.215,0.952-1.814
		c0-1.199,0-2.346,0-3.461c-0.584-0.659-1.301-1.151-1.734-1.987c0.004-1.57,0.78-2.866,1.756-4.149
		c-0.045-0.597,0.145-1.21,0.396-1.817c0.289-0.696,0.552-1.399,0.473-2.183c-0.037-0.356-0.007-0.719-0.007-0.996
		c0.291-0.573,0.549-1.082,0.862-1.701c-0.021-0.429,0.044-0.937,0.408-1.428c0.266-0.359,0.47-0.818,0.61-1.25
		c0.187-0.572,0.444-1.065,0.865-1.478c0.379-0.37,0.574-0.844,0.7-1.33c0.294-1.131,0.798-2.117,1.733-2.804
		c-0.028-0.667,0.443-1.083,0.631-1.555c0-0.409,0-0.763,0-1.101c-0.121-0.114-0.225-0.21-0.327-0.308
		c-0.52,0.027-0.985,0.42-1.456,0.121c-0.205-0.146-0.41-0.291-0.407-0.289c-0.328-0.667-0.027-1.068,0.054-1.504
		c0.088-0.471-0.275-0.841-0.257-1.272c-0.197-0.197-0.378-0.372-0.553-0.554c-0.527-0.55-1.213-0.792-1.932-0.798
		c-3.275-0.029-6.552-0.038-9.827,0.006c-0.728,0.01-1.479,0.164-2.086,0.688c-0.333,0.288-1.382,0.551-1.774,0.349
		c-0.554-0.285-1.103-0.133-1.65-0.192c-1.529-0.163-3.028,0.274-4.555,0.227c-0.435-0.013-0.823-0.108-1.146-0.365
		c-0.678-0.539-1.442-0.754-2.293-0.729c-0.396,0.012-0.859,0.133-1.173-0.027c-0.523-0.267-1.033-0.164-1.546-0.177
		c-0.721-0.018-1.479,0.459-1.789,1.093c-0.249,0.507-0.567,1.013-0.664,1.554c-0.111,0.619-0.336,1.16-0.646,1.681
		c-0.061,0.103-0.055,0.195-0.081,0.292c-0.357,1.357-0.88,2.662-1.27,4.006c-0.176,0.608-0.518,1.176-0.47,1.867
		c0.07,1.015-0.321,1.923-0.852,2.847c0.087,0.752-0.221,1.623,0.341,2.332c0.343,0.341,0.799,0.506,1.164,0.818
		C21.735,31.696,21.735,32.054,21.735,32.446z"/>
	<path fill="currentColor" d="M21.735,32.446c0-0.393,0-0.75,0-1.115
		c-0.365-0.312-0.821-0.478-1.164-0.818c-0.562-0.709-0.254-1.579-0.341-2.332c0.53-0.924,0.921-1.832,0.852-2.847
		c-0.047-0.691,0.294-1.258,0.47-1.867c0.39-1.344,0.913-2.649,1.27-4.006c0.025-0.098,0.02-0.19,0.081-0.292
		c0.31-0.521,0.535-1.063,0.646-1.681c0.097-0.541,0.415-1.047,0.664-1.554c0.311-0.633,1.068-1.111,1.789-1.093
		c0.513,0.013,1.023-0.089,1.546,0.177c0.314,0.161,0.777,0.04,1.173,0.027c0.851-0.025,1.615,0.189,2.293,0.729
		c0.324,0.257,0.711,0.352,1.146,0.365c1.526,0.047,3.025-0.39,4.555-0.227c0.548,0.059,1.097-0.093,1.65,0.192
		c0.393,0.202,1.441-0.062,1.774-0.349c0.607-0.524,1.358-0.678,2.086-0.688c3.275-0.044,6.552-0.035,9.827-0.006
		c0.719,0.006,1.404,0.249,1.932,0.798c0.175,0.182,0.355,0.357,0.553,0.554c-0.019,0.431,0.345,0.801,0.257,1.272
		c-0.081,0.437-0.382,0.837-0.054,1.504c-0.003-0.002,0.202,0.143,0.407,0.289c0.471,0.299,0.937-0.094,1.456-0.121
		c0.103,0.097,0.206,0.193,0.327,0.308c0,0.338,0,0.692,0,1.101c-0.188,0.471-0.659,0.888-0.631,1.555
		c-0.936,0.687-1.439,1.673-1.733,2.804c-0.126,0.485-0.321,0.959-0.7,1.33c-0.421,0.413-0.679,0.906-0.865,1.478
		c-0.141,0.431-0.345,0.891-0.61,1.25c-0.364,0.491-0.429,0.999-0.408,1.428c-0.313,0.619-0.571,1.127-0.862,1.701
		c0,0.277-0.03,0.64,0.007,0.996c0.079,0.784-0.184,1.487-0.473,2.183c-0.252,0.607-0.441,1.221-0.396,1.817
		c-0.976,1.283-1.752,2.579-1.756,4.149c0.434,0.836,1.15,1.328,1.734,1.987c0,1.115,0,2.262,0,3.461
		c-0.242,0.6-0.747,1.123-0.952,1.814c-0.05,0.166-0.121,0.325-0.104,0.493c0.097,0.953-0.393,1.797-0.519,2.712
		c-0.023,0.17-0.153,0.385-0.127,0.583c0.089,0.675-0.242,1.224-0.627,1.679c-0.351,0.415-0.353,0.946-0.66,1.357
		c-0.287,0.385-0.421,0.831-0.463,1.323c-0.027,0.322-0.152,0.659-0.314,0.942c-0.554,0.967-0.884,2.014-1.184,3.075
		c-0.072,0.256-1.164,1.92-1.328,2.042c-0.418,0.311-0.893,0.338-1.315,0.285c-0.552-0.33-1.073-0.57-1.517-0.978
		c-0.319-0.293-0.844-0.368-1.281-0.527c-0.47-0.171-0.965-0.285-1.413-0.498c-1.056-0.501-1.456-0.805-1.946-1.743
		c-0.403-0.773-0.771-1.571-0.719-2.517c0.069-1.256,0.017-2.518,0.017-3.775c-0.634-0.615-0.373-1.688-1.18-2.248
		c-0.208,0-0.45,0-0.709,0c-0.551,0.842-1.022,1.717-0.909,2.758c0.097,0.893-0.189,1.737-0.241,2.61
		c-0.015,0.252-0.294,0.47-0.204,0.771c-0.232,0.231-0.461,0.461-0.722,0.722c-0.352,0-0.738,0-1.152,0
		c-0.752-0.376-1.236-1.102-1.881-1.663c-0.826-0.112-1.629-0.428-2.384-0.731c-1.127-0.453-2.236-0.655-3.423-0.602
		c-0.431,0.02-0.864,0.013-1.296-0.001c-0.202-0.007-0.396,0.039-0.607-0.104c-0.328-0.222-0.694-0.455-1.072-0.519
		c-0.524-0.087-1.075-0.021-1.638-0.021c-0.258,0.5-0.847,0.526-1.261,0.828c-0.165,0.12-0.476,0.09-0.711-0.022
		c-0.911-0.435-1.731-0.028-2.708,0.224c-0.164-0.083-0.522-0.125-0.768-0.495c0-0.245,0-0.56,0-0.662
		c0.121-0.631,0.445-0.906,0.751-1.188c0.49-0.451,0.796-1.031,1.137-1.584c0.46-0.745,0.916-1.492,1.372-2.239
		c0.443-0.726,0.901-2.507,1.047-3.24c0.145-0.726,0.162-1.499,0.512-2.157c0.146-0.276-0.021-0.664,0.335-0.836
		c0-0.612,0-1.224,0-1.896c0.27-0.443,0.548-0.943,0.871-1.414c0.216-0.315,0.179-0.652,0.219-0.995
		c0.066-0.582-0.057-1.148,0.158-1.764c0.234-0.671,0.565-1.254,1.014-1.73c0.405-0.429,0.623-0.906,0.746-1.428
		C21.181,33.113,21.38,32.785,21.735,32.446z M37.107,21.818c0.224,0.609,0.66,0.829,1.269,0.794
		c0.465-0.026,0.934-0.005,1.146-0.005c0.92-0.188,1.17-0.793,1.501-1.263c0.351-0.033,0.757,0.049,0.954-0.118
		c0.301-0.254,0.717,0.06,0.952-0.29c-0.082-0.347-0.377-0.497-0.569-0.69c-0.244,0-0.456,0-0.651,0
		c-0.143,0.143-0.277,0.262-0.395,0.398c-0.441,0.51-0.985,0.718-1.666,0.676c-0.678-0.042-1.361-0.009-1.969-0.009
		C37.447,21.517,37.261,21.682,37.107,21.818z M30.719,25.424c0.471,0.49,1.007,0.661,1.537,0.868
		c0.339,0.132,0.707,0.167,1.026,0.388c0.566,0.39,1.175,0.661,1.911,0.101c-0.955-0.616-1.884-1.215-2.751-1.774
		c-0.498,0-0.923,0-1.331,0C30.997,25.128,30.901,25.23,30.719,25.424z M33.959,37.896c-0.402,0.205-0.833,0.259-0.994,0.666
		c0.03,0.247,0.24,0.441,0.322,0.432c0.571-0.065,1.052,0.329,1.628,0.258c0.618-0.076,1.229,0.01,1.78,0.354
		c0.182,0.113,0.391,0.121,0.596-0.03c-0.421-0.512-1.021-0.768-1.538-1.138C35.19,38.031,34.466,38.332,33.959,37.896z
		 M37.324,26.637c0.474,0.538,0.983,0.308,1.498,0.076c0.231-0.104,0.444-0.213,0.412-0.604c-0.285,0.088-0.401-0.262-0.642-0.263
		C38.139,26.114,37.553,26.096,37.324,26.637z M29.847,44.183c-0.838,0.213-1.626-0.428-2.477-0.115
		c0.136,0.164,0.223,0.326,0.469,0.365c0.734,0.118,1.46,0.281,2.192,0.416c0.038,0.007,0.093-0.085,0.116-0.106
		C30.232,44.485,30.019,44.415,29.847,44.183z M33.613,33.355c0.805,0.083,1.318,0.026,1.862-0.144
		c0.65-0.202,1.057-0.313,1.329-0.643C35.709,32.399,34.808,32.933,33.613,33.355z M40.838,32.742
		c-0.043,0.122-0.098,0.226-0.082,0.239c0.439,0.341,0.877,0.684,1.333,1c0.245,0.17,0.523,0.068,0.85,0.031
		C42.238,33.547,41.689,32.965,40.838,32.742z M40.745,45.173c-0.307-0.32-0.647-0.528-1.173-0.543
		c-0.074,0.167-0.371,0.216-0.323,0.603C39.728,45.129,40.176,45.899,40.745,45.173z M46.177,26.38
		c-0.16-0.604-0.679-0.648-1.156-0.743c-0.047-0.009-0.109,0.066-0.165,0.102c0,0.14,0,0.281,0,0.425
		C45.266,26.346,45.644,26.707,46.177,26.38z M23.884,38.608c0.056,0.257-0.05,0.442,0.078,0.581c0.422,0,0.828,0,1.218,0
		c0.086-0.314-0.143-0.412-0.284-0.581C24.599,38.608,24.289,38.608,23.884,38.608z M29.986,33.369
		c0.344-0.089,0.587,0.547,1.056,0.138c-0.021-0.525-0.544-0.508-0.833-0.743c-0.032-0.026-0.125,0.021-0.223,0.042
		C29.986,32.963,29.986,33.129,29.986,33.369z M24.571,43.799c0.355-0.092,0.707,0.088,1.035-0.097
		c-0.255-0.522-0.652-0.332-1.035-0.342C24.571,43.509,24.571,43.604,24.571,43.799z M34.723,20.8c0.21,0.117,0.4,0.117,0.591,0.01
		c0.069-0.137,0.056-0.258-0.067-0.359C34.968,20.415,34.847,20.602,34.723,20.8z M32.151,33.967
		c0.267,0.035,0.552,0.239,0.902-0.175C32.671,33.894,32.406,33.755,32.151,33.967z M28.98,25.201c-0.101,0.071-0.101,0.143,0,0.214
		C29.081,25.344,29.081,25.271,28.98,25.201z"/>
	<path style="fill-rule:evenodd;clip-rule:evenodd;fill:none;" d="M37.107,21.818c0.154-0.137,0.34-0.301,0.572-0.507
		c0.607,0,1.291-0.033,1.969,0.009c0.681,0.042,1.225-0.166,1.666-0.676c0.117-0.136,0.252-0.255,0.395-0.398
		c0.195,0,0.407,0,0.651,0c0.192,0.193,0.487,0.344,0.569,0.69c-0.235,0.349-0.651,0.035-0.952,0.29
		c-0.197,0.167-0.604,0.085-0.954,0.118c-0.331,0.47-0.581,1.075-1.501,1.263c-0.213,0-0.682-0.021-1.146,0.005
		C37.767,22.647,37.331,22.428,37.107,21.818z"/>
	<path style="fill-rule:evenodd;clip-rule:evenodd;fill:none;" d="M30.719,25.424c0.182-0.193,0.278-0.296,0.393-0.418
		c0.408,0,0.833,0,1.331,0c0.868,0.56,1.796,1.159,2.751,1.774c-0.736,0.56-1.345,0.289-1.911-0.101
		c-0.319-0.22-0.687-0.255-1.026-0.388C31.727,26.085,31.19,25.914,30.719,25.424z"/>
	<path style="fill-rule:evenodd;clip-rule:evenodd;fill:none;" d="M33.959,37.896c0.507,0.437,1.231,0.136,1.795,0.542
		c0.517,0.37,1.117,0.626,1.538,1.138c-0.205,0.151-0.415,0.144-0.596,0.03c-0.552-0.345-1.163-0.431-1.78-0.354
		c-0.576,0.071-1.057-0.323-1.628-0.258c-0.083,0.01-0.292-0.185-0.322-0.432C33.126,38.154,33.558,38.101,33.959,37.896z"/>
	<path style="fill-rule:evenodd;clip-rule:evenodd;fill:none;" d="M37.324,26.637c0.229-0.541,0.815-0.523,1.269-0.791
		c0.24,0.001,0.356,0.351,0.642,0.263c0.032,0.391-0.181,0.5-0.412,0.604C38.307,26.944,37.797,27.174,37.324,26.637z"/>
	<path style="fill-rule:evenodd;clip-rule:evenodd;fill:none;" d="M29.847,44.183c0.172,0.232,0.385,0.303,0.299,0.56
		c-0.023,0.021-0.078,0.113-0.116,0.106c-0.731-0.135-1.458-0.298-2.192-0.416c-0.246-0.039-0.333-0.201-0.469-0.365
		C28.221,43.755,29.009,44.396,29.847,44.183z"/>
	<path style="fill-rule:evenodd;clip-rule:evenodd;fill:none;" d="M33.613,33.355c1.194-0.423,2.096-0.956,3.191-0.787
		c-0.272,0.33-0.679,0.441-1.329,0.643C34.932,33.381,34.418,33.438,33.613,33.355z"/>
	<path style="fill-rule:evenodd;clip-rule:evenodd;fill:none;" d="M40.838,32.742c0.851,0.223,1.399,0.805,2.101,1.271
		c-0.326,0.037-0.604,0.139-0.85-0.031c-0.456-0.316-0.894-0.66-1.333-1C40.741,32.968,40.795,32.863,40.838,32.742z"/>
	<path style="fill-rule:evenodd;clip-rule:evenodd;fill:none;" d="M40.745,45.173c-0.568,0.727-1.017-0.044-1.496,0.06
		c-0.048-0.387,0.249-0.436,0.323-0.603C40.097,44.645,40.438,44.853,40.745,45.173z"/>
	<path style="fill-rule:evenodd;clip-rule:evenodd;fill:none;" d="M46.177,26.38c-0.533,0.327-0.911-0.034-1.321-0.215
		c0-0.145,0-0.285,0-0.425c0.056-0.036,0.118-0.111,0.165-0.102C45.499,25.732,46.017,25.777,46.177,26.38z"/>
	<path style="fill-rule:evenodd;clip-rule:evenodd;fill:none;" d="M23.884,38.608c0.405,0,0.715,0,1.011,0
		c0.142,0.169,0.371,0.267,0.284,0.581c-0.39,0-0.796,0-1.218,0C23.834,39.051,23.94,38.865,23.884,38.608z"/>
	<path style="fill-rule:evenodd;clip-rule:evenodd;fill:none;" d="M29.986,33.369c0-0.24,0-0.406,0-0.563
		c0.099-0.02,0.191-0.068,0.223-0.042c0.288,0.235,0.811,0.217,0.833,0.743C30.574,33.916,30.33,33.28,29.986,33.369z"/>
	<path style="fill-rule:evenodd;clip-rule:evenodd;fill:none;" d="M24.571,43.799c0-0.194,0-0.29,0-0.438
		c0.383,0.01,0.78-0.181,1.035,0.342C25.278,43.887,24.926,43.707,24.571,43.799z"/>
	<path style="fill-rule:evenodd;clip-rule:evenodd;fill:none;" d="M34.723,20.8c0.124-0.198,0.245-0.385,0.524-0.349
		c0.123,0.102,0.136,0.223,0.067,0.36C35.123,20.917,34.933,20.917,34.723,20.8z"/>
	<path style="fill-rule:evenodd;clip-rule:evenodd;fill:none;" d="M32.151,33.967c0.255-0.212,0.52-0.074,0.902-0.175
		C32.703,34.206,32.418,34.002,32.151,33.967z"/>
	<path style="fill-rule:evenodd;clip-rule:evenodd;fill:none;" d="M28.98,25.201c0.101,0.071,0.101,0.143,0,0.214
		C28.879,25.344,28.879,25.271,28.98,25.201z"/>
</g>
</svg>
