<?xml version="1.0" encoding="iso-8859-1"?>
<!-- Generator: Adobe Illustrator 16.0.0, SVG Export Plug-In . SVG Version: 6.00 Build 0)  -->
<!DOCTYPE svg PUBLIC "-//W3C//DTD SVG 1.1//EN" "http://www.w3.org/Graphics/SVG/1.1/DTD/svg11.dtd">
<svg version="1.1" id="Layer_1" xmlns="http://www.w3.org/2000/svg" xmlns:xlink="http://www.w3.org/1999/xlink" x="0px" y="0px"
	 width="72.36px" height="72.18px" viewBox="0 0 72.36 72.18" style="enable-background:new 0 0 72.36 72.18;" xml:space="preserve"
	>
<g>
	
	<path fill="currentColor" d="M21.735,32.446c0-0.393,0-0.75,0-1.115
		c-0.365-0.312-0.821-0.478-1.164-0.818c-0.562-0.709-0.254-1.579-0.341-2.332c0.53-0.924,0.921-1.832,0.852-2.847
		c-0.047-0.691,0.294-1.258,0.47-1.867c0.39-1.344,0.913-2.649,1.27-4.006c0.025-0.098,0.02-0.19,0.081-0.292
		c0.31-0.521,0.535-1.063,0.646-1.681c0.097-0.541,0.415-1.047,0.664-1.554c0.311-0.633,1.068-1.111,1.789-1.093
		c0.513,0.013,1.023-0.089,1.546,0.177c0.314,0.161,0.777,0.04,1.173,0.027c0.851-0.025,1.615,0.189,2.293,0.729
		c0.324,0.257,0.711,0.352,1.146,0.365c1.526,0.047,3.025-0.39,4.555-0.227c0.548,0.059,1.097-0.093,1.65,0.192
		c0.393,0.202,1.441-0.062,1.774-0.349c0.607-0.524,1.358-0.678,2.086-0.688c3.275-0.044,6.552-0.035,9.827-0.006
		c0.719,0.006,1.404,0.249,1.932,0.798c0.175,0.182,0.355,0.357,0.553,0.554c-0.019,0.431,0.345,0.801,0.257,1.272
		c-0.081,0.437-0.382,0.837-0.054,1.504c-0.003-0.002,0.202,0.143,0.407,0.289c0.471,0.299,0.937-0.094,1.456-0.121
		c0.103,0.097,0.206,0.193,0.327,0.308c0,0.338,0,0.692,0,1.101c-0.188,0.471-0.659,0.888-0.631,1.555
		c-0.936,0.687-1.439,1.673-1.733,2.804c-0.126,0.485-0.321,0.959-0.7,1.33c-0.421,0.413-0.679,0.906-0.865,1.478
		c-0.141,0.431-0.345,0.891-0.61,1.25c-0.364,0.491-0.429,0.999-0.408,1.428c-0.313,0.619-0.571,1.127-0.862,1.701
		c0,0.277-0.03,0.64,0.007,0.996c0.079,0.784-0.184,1.487-0.473,2.183c-0.252,0.607-0.441,1.221-0.396,1.817
		c-0.976,1.283-1.752,2.579-1.756,4.149c0.434,0.836,1.15,1.328,1.734,1.987c0,1.115,0,2.262,0,3.461
		c-0.242,0.6-0.747,1.123-0.952,1.814c-0.05,0.166-0.121,0.325-0.104,0.493c0.097,0.953-0.393,1.797-0.519,2.712
		c-0.023,0.17-0.153,0.385-0.127,0.583c0.089,0.675-0.242,1.224-0.627,1.679c-0.351,0.415-0.353,0.946-0.66,1.357
		c-0.287,0.385-0.421,0.831-0.463,1.323c-0.027,0.322-0.152,0.659-0.314,0.942c-0.554,0.967-0.884,2.014-1.184,3.075
		c-0.072,0.256-1.164,1.92-1.328,2.042c-0.418,0.311-0.893,0.338-1.315,0.285c-0.552-0.33-1.073-0.57-1.517-0.978
		c-0.319-0.293-0.844-0.368-1.281-0.527c-0.47-0.171-0.965-0.285-1.413-0.498c-1.056-0.501-1.456-0.805-1.946-1.743
		c-0.403-0.773-0.771-1.571-0.719-2.517c0.069-1.256,0.017-2.518,0.017-3.775c-0.634-0.615-0.373-1.688-1.18-2.248
		c-0.208,0-0.45,0-0.709,0c-0.551,0.842-1.022,1.717-0.909,2.758c0.097,0.893-0.189,1.737-0.241,2.61
		c-0.015,0.252-0.294,0.47-0.204,0.771c-0.232,0.231-0.461,0.461-0.722,0.722c-0.352,0-0.738,0-1.152,0
		c-0.752-0.376-1.236-1.102-1.881-1.663c-0.826-0.112-1.629-0.428-2.384-0.731c-1.127-0.453-2.236-0.655-3.423-0.602
		c-0.431,0.02-0.864,0.013-1.296-0.001c-0.202-0.007-0.396,0.039-0.607-0.104c-0.328-0.222-0.694-0.455-1.072-0.519
		c-0.524-0.087-1.075-0.021-1.638-0.021c-0.258,0.5-0.847,0.526-1.261,0.828c-0.165,0.12-0.476,0.09-0.711-0.022
		c-0.911-0.435-1.731-0.028-2.708,0.224c-0.164-0.083-0.522-0.125-0.768-0.495c0-0.245,0-0.56,0-0.662
		c0.121-0.631,0.445-0.906,0.751-1.188c0.49-0.451,0.796-1.031,1.137-1.584c0.46-0.745,0.916-1.492,1.372-2.239
		c0.443-0.726,0.901-2.507,1.047-3.24c0.145-0.726,0.162-1.499,0.512-2.157c0.146-0.276-0.021-0.664,0.335-0.836
		c0-0.612,0-1.224,0-1.896c0.27-0.443,0.548-0.943,0.871-1.414c0.216-0.315,0.179-0.652,0.219-0.995
		c0.066-0.582-0.057-1.148,0.158-1.764c0.234-0.671,0.565-1.254,1.014-1.73c0.405-0.429,0.623-0.906,0.746-1.428
		C21.181,33.113,21.38,32.785,21.735,32.446z M37.107,21.818c0.224,0.609,0.66,0.829,1.269,0.794
		c0.465-0.026,0.934-0.005,1.146-0.005c0.92-0.188,1.17-0.793,1.501-1.263c0.351-0.033,0.757,0.049,0.954-0.118
		c0.301-0.254,0.717,0.06,0.952-0.29c-0.082-0.347-0.377-0.497-0.569-0.69c-0.244,0-0.456,0-0.651,0
		c-0.143,0.143-0.277,0.262-0.395,0.398c-0.441,0.51-0.985,0.718-1.666,0.676c-0.678-0.042-1.361-0.009-1.969-0.009
		C37.447,21.517,37.261,21.682,37.107,21.818z M30.719,25.424c0.471,0.49,1.007,0.661,1.537,0.868
		c0.339,0.132,0.707,0.167,1.026,0.388c0.566,0.39,1.175,0.661,1.911,0.101c-0.955-0.616-1.884-1.215-2.751-1.774
		c-0.498,0-0.923,0-1.331,0C30.997,25.128,30.901,25.23,30.719,25.424z M33.959,37.896c-0.402,0.205-0.833,0.259-0.994,0.666
		c0.03,0.247,0.24,0.441,0.322,0.432c0.571-0.065,1.052,0.329,1.628,0.258c0.618-0.076,1.229,0.01,1.78,0.354
		c0.182,0.113,0.391,0.121,0.596-0.03c-0.421-0.512-1.021-0.768-1.538-1.138C35.19,38.031,34.466,38.332,33.959,37.896z
		 M37.324,26.637c0.474,0.538,0.983,0.308,1.498,0.076c0.231-0.104,0.444-0.213,0.412-0.604c-0.285,0.088-0.401-0.262-0.642-0.263
		C38.139,26.114,37.553,26.096,37.324,26.637z M29.847,44.183c-0.838,0.213-1.626-0.428-2.477-0.115
		c0.136,0.164,0.223,0.326,0.469,0.365c0.734,0.118,1.46,0.281,2.192,0.416c0.038,0.007,0.093-0.085,0.116-0.106
		C30.232,44.485,30.019,44.415,29.847,44.183z M33.613,33.355c0.805,0.083,1.318,0.026,1.862-0.144
		c0.65-0.202,1.057-0.313,1.329-0.643C35.709,32.399,34.808,32.933,33.613,33.355z M40.838,32.742
		c-0.043,0.122-0.098,0.226-0.082,0.239c0.439,0.341,0.877,0.684,1.333,1c0.245,0.17,0.523,0.068,0.85,0.031
		C42.238,33.547,41.689,32.965,40.838,32.742z M40.745,45.173c-0.307-0.32-0.647-0.528-1.173-0.543
		c-0.074,0.167-0.371,0.216-0.323,0.603C39.728,45.129,40.176,45.899,40.745,45.173z M46.177,26.38
		c-0.16-0.604-0.679-0.648-1.156-0.743c-0.047-0.009-0.109,0.066-0.165,0.102c0,0.14,0,0.281,0,0.425
		C45.266,26.346,45.644,26.707,46.177,26.38z M23.884,38.608c0.056,0.257-0.05,0.442,0.078,0.581c0.422,0,0.828,0,1.218,0
		c0.086-0.314-0.143-0.412-0.284-0.581C24.599,38.608,24.289,38.608,23.884,38.608z M29.986,33.369
		c0.344-0.089,0.587,0.547,1.056,0.138c-0.021-0.525-0.544-0.508-0.833-0.743c-0.032-0.026-0.125,0.021-0.223,0.042
		C29.986,32.963,29.986,33.129,29.986,33.369z M24.571,43.799c0.355-0.092,0.707,0.088,1.035-0.097
		c-0.255-0.522-0.652-0.332-1.035-0.342C24.571,43.509,24.571,43.604,24.571,43.799z M34.723,20.8c0.21,0.117,0.4,0.117,0.591,0.01
		c0.069-0.137,0.056-0.258-0.067-0.359C34.968,20.415,34.847,20.602,34.723,20.8z M32.151,33.967
		c0.267,0.035,0.552,0.239,0.902-0.175C32.671,33.894,32.406,33.755,32.151,33.967z M28.98,25.201c-0.101,0.071-0.101,0.143,0,0.214
		C29.081,25.344,29.081,25.271,28.98,25.201z"/>
	
	
	
	
	
	
	
	
	
	
	
	
	
	
	
</g>
</svg>
