<?xml version="1.0" encoding="iso-8859-1"?>
<!-- Generator: Adobe Illustrator 16.0.0, SVG Export Plug-In . SVG Version: 6.00 Build 0)  -->
<!DOCTYPE svg PUBLIC "-//W3C//DTD SVG 1.1//EN" "http://www.w3.org/Graphics/SVG/1.1/DTD/svg11.dtd">
<svg version="1.1" id="Layer_1" xmlns="http://www.w3.org/2000/svg" xmlns:xlink="http://www.w3.org/1999/xlink" x="0px" y="0px"
	 width="72.36px" height="72.18px" viewBox="0 0 72.36 72.18" style="enable-background:new 0 0 72.36 72.18;" xml:space="preserve"
	>
<g>
	<path style="fill-rule:evenodd;clip-rule:evenodd;fill:none;" d="M-6.984,79.631c0-28.871,0-57.743,0-86.615
		c28.8,0,57.6,0,86.399,0c0,28.872,0,57.744,0,86.615C50.616,79.631,21.816,79.631-6.984,79.631z M31.248,29.845
		c0,0.792-0.018,1.583,0.005,2.375c0.023,0.77-0.27,1.484-0.48,2.183c-0.175,0.581-0.117,1.043,0.042,1.562
		c0.31,1.01,0.953,1.726,1.979,1.961c0.827,0.189,1.666-0.065,2.48-0.246c0.247-0.055,0.55-0.239,0.661-0.451
		c0.572-1.098,1.555-1.97,1.78-3.276c-0.219-0.46-0.332-0.949-0.119-1.357c0.222-0.422,0.252-0.939,0.089-1.217
		c-0.255-0.435-0.174-0.837-0.148-1.229c0.028-0.445-0.283-0.765-0.257-1.208c0.056-0.932-0.04-1.875,0.033-2.804
		c0.075-0.963-0.393-1.855-0.229-2.749c-0.194-0.286-0.343-0.513-0.499-0.735c-0.379-0.538-0.993-1.997-1.005-2.602
		c-0.013-0.637-0.266-1.185-0.528-1.728c-0.305-0.632-0.501-1.308-0.795-1.937c-0.527-1.13-0.916-2.359-1.943-3.189
		c-0.498-0.402-0.888-0.911-1.2-1.45c-0.18-0.311-0.404-0.556-0.63-0.815c-0.742-0.852-1.71-1.428-2.591-2.118
		c-0.366,0-0.751,0-1.092,0c-0.307,0.224-0.354,0.551-0.509,0.787c-0.094,0.94,0.144,1.764,0.62,2.565
		c0.354,0.596,0.594,1.268,0.708,1.934c0.353,0.437,0.768,0.726,1.248,0.956c0.632,0.303,1.225,0.72,1.603,1.304
		c0.234,0.361,0.566,0.584,0.87,0.779c0.299,0.191,0.545,0.401,0.779,0.646c-0.058,0.245,0.099,0.511-0.139,0.747
		c-0.635-0.131-1.23-0.37-1.677-0.873c-0.286-0.321-0.627-0.587-1.025-0.649c-0.678-0.107-1.345-0.408-2.103-0.169
		c-0.53,0.393-0.016,1.214-0.609,1.652c-0.268-0.01-0.479,0.376-0.826,0.227c-0.258,0.258-0.468,0.612-0.775,0.749
		c-0.983,0.437-1.167,1.45-1.71,2.202c0.114,0.443-0.223,0.657-0.486,0.874c-0.578,0.476-0.917,1.107-1.244,1.755
		c-0.151,0.299-0.285,0.601-0.49,0.882c-0.271,0.37-0.417,0.83-0.628,1.246c-0.226,0.446-0.604,0.799-0.695,1.333
		c-0.131,0.774-0.418,1.523-0.338,2.302c-0.296,0.226-0.262,0.634-0.673,0.782c-0.337,0.121-0.588,0.48-0.856,0.716
		c0.095,0.448-0.206,0.752-0.232,1.147c-0.057,0.858,0.259,1.661,0.243,2.502c0.407,0.423,0.166,0.946,0.209,1.422
		c0.048,0.533-0.356,0.859-0.633,1.247c-0.152,0.213-0.243,0.474-0.335,0.723c-0.129,0.351-0.16,0.752-0.536,0.965
		c-0.116,0.752-0.714,1.266-0.947,1.985c-0.313,0.968-0.776,1.91-1.556,2.451c-0.146,0.578-0.4,1.019-0.31,1.524
		c0.083,0.466,0.373,0.907,0.166,1.389c-0.076,0.418-0.411,0.636-0.656,0.926c-0.46,0.546-0.499,1.12-0.12,1.685
		c0.138,0.206,0.319,0.383,0.446,0.532c0.493-0.097,0.781,0.299,1.213,0.219c0.845,1.129,2,1.892,3.313,2.552
		c0.193,0,0.475,0,0.739,0c0.324-0.323,0.629-0.629,0.85-0.85c0.445-1.07-0.424-1.749-0.563-2.596
		c0.442-0.676,1.017-1.148,1.672-1.582c0.451-0.299,0.901-0.699,1.15-1.231c0.109-0.233,0.271-0.332,0.52-0.438
		c0.736-0.313,1.376-0.795,1.895-1.42c0.409-0.493,0.958-0.789,1.559-0.92c0.553-0.12,0.91-0.432,1.134-0.701
		c0.437-1.574,0.388-2.988,0.033-4.381c-0.234-0.255-0.476-0.519-0.711-0.774c-0.31,0-0.595,0-0.873,0
		c-0.26-0.305-0.686-0.294-0.908-0.552c-0.319-0.361-0.361-0.749-0.192-1.14c0.286-0.304,0.676-0.359,0.989-0.554
		c-0.04-0.208,0.096-0.326,0.229-0.445c0-0.503,0.18-1.11-0.038-1.489c-0.453-0.791-0.357-1.605-0.459-2.407
		c-0.136-0.59-0.746-1.002-0.562-1.728c0.158-0.271,0.513-0.416,0.637-0.78c0.106-0.311,0.303-0.591,0.459-0.885
		c0.102-0.31-0.318-0.404-0.262-0.687c0.047-0.238-0.094-0.449-0.178-0.675c-0.249-0.674,0.425-1.552,1.167-1.604
		c0.429-0.031,0.862-0.006,1.288-0.006c0.056,0.056,0.098,0.127,0.159,0.155c1.32,0.605,2.183,1.561,2.599,2.994
		C30.612,28.715,30.761,29.38,31.248,29.845z M49.903,50.224c0.232,0.052,0.509,0.113,0.709-0.016
		c0.823-0.53,1.781-0.809,2.491-1.571c0.713-0.766,1.72-1.234,2.318-2.142c0.02-0.029,0.046-0.06,0.076-0.075
		c1.133-0.586,1.77-1.66,2.513-2.617c0.144-0.185,0.278-0.405,0.456-0.551c0.234-0.191,0.348-0.484,0.403-0.699
		c0.267-1.032,0.796-1.893,1.578-2.58c0.772-0.679,1.276-1.521,1.676-2.439c0.06-0.137,0.138-0.233,0.229-0.35
		c0-1.104,0.014-2.217-0.005-3.331c-0.014-0.816-0.304-1.52-0.895-2.112c-0.469-0.47-1.049-0.766-1.611-1.14
		c-0.473,0-0.976,0-1.486,0c-0.289,0.334-0.616,0.627-0.86,1.03c-0.249,0.413-0.375,0.886-0.616,1.252
		c-0.515,0.781-0.844,1.771-1.856,2.138c-0.092,0.033-0.195,0.134-0.224,0.226c-0.168,0.536-0.624,0.891-0.856,1.373
		c-0.196,0.408-0.522,0.605-0.723,0.716c-0.686,0.816-0.718,1.727-0.982,2.545c-0.363,1.121-0.502,2.321-0.661,3.498
		c-0.039,0.29-0.294,0.459-0.254,0.772c0.033,0.26-0.026,0.515-0.143,0.796c-0.303,0.736-0.537,1.499-0.916,2.21
		c-0.4,0.751-0.443,1.613-0.653,2.425C49.54,49.857,49.69,50.055,49.903,50.224z M46.359,29.202
		c0.048,0.764,0.017,1.446,0.188,2.148c0.179,0.727-0.052,1.537,0.253,2.276c-0.166,1.849,0.334,3.67,0.209,5.509
		c0.245,0.169,0.358,0.469,0.634,0.546c0.161-0.038,0.286-0.011,0.432-0.08c1.17-0.553,1.75-1.635,2.386-2.654
		c0.263-0.421,0.421-0.9,0.689-1.335c0.544-0.884,1.448-1.465,1.889-2.45c0.188-0.419,0.333-0.87,0.549-1.287
		c0.291-0.56,0.71-1.049,0.883-1.685c0.102-0.375,0.241-0.755,0.416-1.121c0.2-0.415,0.388-0.943,0.297-1.36
		c-0.104-0.48-0.065-0.977-0.198-1.424c-0.226-0.761-0.438-1.599-1.341-1.899c-0.204-0.068-0.352-0.226-0.525-0.296
		c-0.689-0.282-0.999-1.072-1.656-1.242c-0.655,0-1.225,0-1.763,0c-0.409,0.382-0.81,0.733-0.952,1.26
		c-0.257,0.946-0.464,1.912-1.216,2.625c-0.13,0.123-0.036,0.275-0.088,0.396C47.141,27.834,47,28.626,46.359,29.202z
		 M41.905,31.889c0.973-0.729,1.54-1.791,2.403-2.586c0.481-0.444,0.944-0.887,1.034-1.631c0.032-0.266,0.224-0.631,0.427-0.889
		c1.112-1.413,1.266-3.108,1.466-4.795c0.097-0.816-0.276-1.573-0.261-2.395c0.009-0.447-0.349-0.917-0.927-1.104
		c-0.565-0.183-1.169-0.4-1.609-0.775c-0.443-0.377-0.998-0.405-1.445-0.713c-0.492-0.339-1.079-0.214-1.633-0.223
		c-0.396-0.006-0.792,0.01-1.188-0.004c-0.49-0.017-0.97-0.014-1.331,0.311c-0.048,0.304-0.392,0.541-0.237,0.797
		c0.387,0.638,0.128,1.316,0.201,1.97c0.046,0.408,0.09,0.806,0.181,1.214c0.253,1.14,0.603,2.285,0.474,3.484
		c-0.026,0.249-0.004,0.504-0.004,0.707c0.335,0.564,0.646,1.087,1.032,1.577c0.304,0.385,0.544,0.918,0.501,1.518
		c-0.033,0.454-0.163,0.878-0.217,1.315c-0.078,0.635-0.021,1.287-0.021,1.887C41.071,32.074,41.542,31.848,41.905,31.889z
		 M60.716,45.085c-0.33,0.346-0.729,0.649-0.906,1.126c-0.178,0.478-0.505,0.795-0.958,1.025c-0.884,0.45-1.629,1.116-1.873,2.072
		c-0.318,1.245-0.84,2.389-1.424,3.509c-0.222,0.426-0.079,0.646,0.211,0.892c0.186-0.368,0.634-0.132,0.907-0.44
		c0.535-0.604,1.169-1.139,1.555-1.847c0.267-0.49,0.624-0.908,0.966-1.312c0.495-0.584,0.927-1.127,0.851-1.888
		c-0.025-0.881,1.002-0.717,1.222-1.39c-0.006-0.465,0.426-0.924,0.181-1.448C61.321,45.115,61.1,45.038,60.716,45.085z"/>
	<path style="fill-rule:evenodd;clip-rule:evenodd;" d="M31.248,29.846c-0.487-0.466-0.636-1.131-0.806-1.713
		c-0.416-1.433-1.279-2.389-2.599-2.994c-0.062-0.028-0.103-0.099-0.159-0.155c-0.426,0-0.858-0.025-1.288,0.006
		c-0.742,0.052-1.416,0.931-1.167,1.604c0.083,0.227,0.225,0.437,0.178,0.675c-0.056,0.283,0.364,0.377,0.262,0.687
		c-0.156,0.294-0.353,0.574-0.459,0.885c-0.124,0.364-0.479,0.508-0.637,0.78c-0.184,0.726,0.426,1.138,0.562,1.728
		c0.102,0.801,0.006,1.616,0.459,2.407c0.217,0.379,0.038,0.985,0.037,1.489c-0.133,0.119-0.269,0.237-0.229,0.445
		c-0.313,0.194-0.703,0.25-0.989,0.554c-0.168,0.391-0.126,0.779,0.192,1.14c0.223,0.258,0.648,0.247,0.908,0.552
		c0.278,0,0.563,0,0.873,0c0.235,0.256,0.477,0.52,0.711,0.774c0.355,1.393,0.404,2.807-0.033,4.381
		c-0.225,0.27-0.581,0.581-1.134,0.701c-0.601,0.131-1.149,0.427-1.559,0.92c-0.518,0.625-1.158,1.106-1.895,1.42
		c-0.25,0.106-0.411,0.205-0.52,0.438c-0.249,0.532-0.7,0.933-1.15,1.231c-0.656,0.434-1.23,0.906-1.672,1.582
		c0.138,0.847,1.008,1.525,0.563,2.596c-0.221,0.221-0.526,0.526-0.85,0.85c-0.264,0-0.546,0-0.739,0
		c-1.312-0.66-2.468-1.423-3.313-2.552c-0.432,0.08-0.72-0.315-1.213-0.219c-0.127-0.149-0.308-0.326-0.446-0.532
		c-0.378-0.564-0.34-1.139,0.12-1.685c0.245-0.29,0.581-0.508,0.656-0.926c0.207-0.481-0.083-0.923-0.166-1.389
		c-0.09-0.506,0.164-0.946,0.31-1.524c0.78-0.541,1.243-1.483,1.556-2.451c0.232-0.72,0.831-1.233,0.947-1.985
		c0.376-0.213,0.407-0.614,0.536-0.965c0.092-0.249,0.184-0.51,0.335-0.723c0.277-0.388,0.682-0.714,0.633-1.247
		c-0.043-0.477,0.198-1-0.209-1.422c0.016-0.841-0.3-1.645-0.243-2.502c0.026-0.396,0.327-0.7,0.232-1.147
		c0.269-0.236,0.52-0.595,0.856-0.716c0.411-0.148,0.377-0.556,0.673-0.782c-0.08-0.779,0.207-1.528,0.338-2.302
		c0.09-0.534,0.469-0.888,0.695-1.333c0.211-0.416,0.358-0.875,0.628-1.246c0.205-0.281,0.339-0.583,0.49-0.882
		c0.326-0.648,0.666-1.279,1.244-1.755c0.264-0.217,0.6-0.431,0.486-0.874c0.542-0.752,0.727-1.766,1.71-2.202
		c0.307-0.136,0.517-0.491,0.775-0.749c0.347,0.149,0.558-0.237,0.826-0.227c0.593-0.438,0.08-1.26,0.609-1.652
		c0.758-0.239,1.425,0.063,2.103,0.169c0.398,0.063,0.739,0.328,1.025,0.649c0.447,0.503,1.042,0.742,1.677,0.873
		c0.238-0.235,0.081-0.501,0.139-0.747c-0.234-0.245-0.48-0.454-0.779-0.646c-0.304-0.194-0.636-0.417-0.87-0.779
		c-0.378-0.583-0.971-1-1.603-1.304c-0.48-0.23-0.896-0.52-1.248-0.956c-0.114-0.666-0.354-1.337-0.708-1.934
		c-0.476-0.802-0.714-1.625-0.62-2.565c0.154-0.236,0.202-0.563,0.509-0.787c0.341,0,0.727,0,1.092,0
		c0.88,0.69,1.849,1.267,2.591,2.118c0.226,0.259,0.45,0.504,0.63,0.815c0.313,0.539,0.702,1.047,1.2,1.45
		c1.027,0.83,1.416,2.059,1.943,3.189c0.293,0.629,0.49,1.305,0.795,1.937c0.262,0.543,0.515,1.091,0.528,1.728
		c0.013,0.605,0.626,2.063,1.005,2.602c0.156,0.222,0.305,0.449,0.499,0.735c-0.164,0.894,0.304,1.786,0.229,2.749
		c-0.073,0.93,0.022,1.872-0.033,2.804c-0.026,0.443,0.285,0.763,0.257,1.208c-0.025,0.393-0.106,0.795,0.148,1.229
		c0.163,0.277,0.133,0.795-0.089,1.217c-0.213,0.408-0.1,0.897,0.119,1.357c-0.226,1.307-1.208,2.179-1.78,3.276
		c-0.111,0.212-0.415,0.396-0.661,0.451c-0.814,0.181-1.653,0.436-2.48,0.246c-1.025-0.235-1.669-0.951-1.979-1.961
		c-0.159-0.519-0.217-0.981-0.042-1.562c0.211-0.699,0.503-1.413,0.48-2.183C31.23,31.429,31.248,30.637,31.248,29.846z"/>
	<path style="fill-rule:evenodd;clip-rule:evenodd;" d="M49.903,50.224c-0.213-0.169-0.363-0.366-0.293-0.642
		c0.21-0.812,0.253-1.674,0.653-2.425c0.379-0.711,0.613-1.474,0.916-2.21c0.116-0.281,0.176-0.536,0.143-0.796
		c-0.04-0.313,0.215-0.482,0.254-0.772c0.159-1.177,0.298-2.377,0.661-3.498c0.265-0.818,0.297-1.729,0.982-2.545
		c0.2-0.11,0.526-0.308,0.723-0.716c0.232-0.482,0.688-0.837,0.856-1.373c0.028-0.091,0.132-0.192,0.224-0.226
		c1.013-0.367,1.342-1.356,1.856-2.138c0.241-0.366,0.367-0.839,0.616-1.252c0.244-0.403,0.571-0.696,0.86-1.03
		c0.511,0,1.014,0,1.486,0c0.563,0.374,1.143,0.67,1.611,1.14c0.591,0.592,0.881,1.296,0.895,2.112
		c0.019,1.113,0.005,2.227,0.005,3.331c-0.091,0.116-0.169,0.213-0.229,0.35c-0.399,0.918-0.903,1.761-1.676,2.439
		c-0.782,0.688-1.312,1.548-1.578,2.58c-0.056,0.215-0.169,0.508-0.403,0.699c-0.178,0.146-0.313,0.366-0.456,0.551
		c-0.743,0.957-1.38,2.031-2.513,2.617c-0.03,0.016-0.057,0.046-0.076,0.075c-0.599,0.907-1.605,1.376-2.318,2.142
		c-0.71,0.763-1.668,1.041-2.491,1.571C50.412,50.337,50.135,50.275,49.903,50.224z"/>
	<path style="fill-rule:evenodd;clip-rule:evenodd;" d="M46.359,29.202c0.642-0.576,0.782-1.368,1.085-2.074
		c0.052-0.121-0.042-0.273,0.088-0.396c0.752-0.713,0.959-1.679,1.216-2.625c0.143-0.526,0.543-0.877,0.952-1.26
		c0.538,0,1.107,0,1.763,0c0.657,0.17,0.967,0.959,1.656,1.242c0.174,0.071,0.321,0.228,0.525,0.296
		c0.902,0.3,1.115,1.138,1.341,1.899c0.133,0.447,0.094,0.943,0.198,1.424c0.091,0.417-0.097,0.946-0.297,1.36
		c-0.175,0.366-0.314,0.746-0.416,1.121c-0.173,0.636-0.592,1.125-0.883,1.685c-0.216,0.417-0.361,0.868-0.549,1.287
		c-0.44,0.985-1.345,1.566-1.889,2.45c-0.269,0.436-0.427,0.914-0.689,1.335c-0.636,1.019-1.216,2.101-2.386,2.654
		c-0.146,0.069-0.271,0.042-0.432,0.08c-0.275-0.077-0.389-0.377-0.634-0.546c0.125-1.839-0.375-3.66-0.209-5.509
		c-0.305-0.739-0.074-1.549-0.253-2.276C46.375,30.647,46.407,29.965,46.359,29.202z"/>
	<path style="fill-rule:evenodd;clip-rule:evenodd;" d="M41.905,31.889c-0.363-0.042-0.834,0.185-1.153-0.337
		c0-0.601-0.058-1.252,0.021-1.887c0.054-0.437,0.184-0.861,0.217-1.315c0.043-0.6-0.197-1.132-0.501-1.518
		c-0.386-0.49-0.697-1.013-1.032-1.577c0-0.203-0.022-0.458,0.004-0.707c0.129-1.199-0.221-2.344-0.474-3.484
		c-0.091-0.409-0.135-0.807-0.181-1.214c-0.073-0.654,0.186-1.332-0.201-1.97c-0.154-0.256,0.189-0.493,0.237-0.797
		c0.361-0.324,0.841-0.328,1.331-0.311c0.396,0.015,0.792-0.002,1.188,0.004C41.914,16.786,42.5,16.66,42.993,17
		c0.447,0.309,1.002,0.336,1.445,0.713c0.44,0.375,1.044,0.592,1.609,0.775c0.578,0.187,0.936,0.658,0.927,1.104
		c-0.016,0.822,0.357,1.578,0.261,2.395c-0.2,1.688-0.354,3.382-1.466,4.795c-0.203,0.258-0.395,0.624-0.427,0.889
		c-0.09,0.745-0.553,1.187-1.034,1.631C43.445,30.098,42.877,31.161,41.905,31.889z"/>
	<path style="fill-rule:evenodd;clip-rule:evenodd;" d="M60.716,45.085c0.384-0.047,0.604,0.03,0.73,0.3
		c0.245,0.524-0.187,0.983-0.181,1.448c-0.22,0.673-1.247,0.509-1.222,1.39c0.076,0.761-0.355,1.304-0.851,1.888
		c-0.342,0.403-0.699,0.821-0.966,1.312c-0.386,0.708-1.02,1.243-1.555,1.847c-0.273,0.309-0.722,0.072-0.907,0.44
		c-0.29-0.245-0.433-0.466-0.211-0.892c0.584-1.12,1.105-2.264,1.424-3.509c0.244-0.956,0.989-1.622,1.873-2.072
		c0.453-0.23,0.78-0.548,0.958-1.025C59.988,45.734,60.386,45.431,60.716,45.085z"/>
</g>
</svg>
