<svg xmlns="http://www.w3.org/2000/svg" xml:space="preserve" width="72px" height="72px" viewBox="0 0 72 72">
    <path fill="currentColor" d="M31.248 29.846c-.487-.466-.636-1.131-.806-1.713-.416-1.433-1.279-2.389-2.599-2.994-.062-.028-.103-.099-.159-.155-.426 0-.858-.025-1.288.006-.742.052-1.416.931-1.167 1.604.083.227.225.437.178.675-.056.283.364.377.262.687-.156.294-.353.574-.459.885-.124.364-.479.508-.637.78-.184.726.426 1.138.562 1.728.102.801.006 1.616.459 2.407.217.379.038.985.037 1.489-.133.119-.269.237-.229.445-.313.194-.703.25-.989.554-.168.391-.126.779.192 1.14.223.258.648.247.908.552h.873l.711.774c.355 1.393.404 2.807-.033 4.381-.225.27-.581.581-1.134.701-.601.131-1.149.427-1.559.92a5 5 0 0 1-1.895 1.42c-.25.106-.411.205-.52.438-.249.532-.7.933-1.15 1.231-.656.434-1.23.906-1.672 1.582.138.847 1.008 1.525.563 2.596l-.85.85h-.739c-1.312-.66-2.468-1.423-3.313-2.552-.432.08-.72-.315-1.213-.219-.127-.149-.308-.326-.446-.532-.378-.564-.34-1.139.12-1.685.245-.29.581-.508.656-.926.207-.481-.083-.923-.166-1.389-.09-.506.164-.946.31-1.524.78-.541 1.243-1.483 1.556-2.451.232-.72.831-1.233.947-1.985.376-.213.407-.614.536-.965.092-.249.184-.51.335-.723.277-.388.682-.714.633-1.247-.043-.477.198-1-.209-1.422.016-.841-.3-1.645-.243-2.502.026-.396.327-.7.232-1.147.269-.236.52-.595.856-.716.411-.148.377-.556.673-.782-.08-.779.207-1.528.338-2.302.09-.534.469-.888.695-1.333.211-.416.358-.875.628-1.246.205-.281.339-.583.49-.882.326-.648.666-1.279 1.244-1.755.264-.217.6-.431.486-.874.542-.752.727-1.766 1.71-2.202.307-.136.517-.491.775-.749.347.149.558-.237.826-.227.593-.438.08-1.26.609-1.652.758-.239 1.425.063 2.103.169.398.063.739.328 1.025.649.447.503 1.042.742 1.677.873.238-.235.081-.501.139-.747a4.2 4.2 0 0 0-.779-.646c-.304-.194-.636-.417-.87-.779-.378-.583-.971-1-1.603-1.304-.48-.23-.896-.52-1.248-.956a5.7 5.7 0 0 0-.708-1.934c-.476-.802-.714-1.625-.62-2.565.154-.236.202-.563.509-.787h1.092c.88.69 1.849 1.267 2.591 2.118.226.259.45.504.63.815.313.539.702 1.047 1.2 1.45 1.027.83 1.416 2.059 1.943 3.189.293.629.49 1.305.795 1.937.262.543.515 1.091.528 1.728.013.605.626 2.063 1.005 2.602.156.222.305.449.499.735-.164.894.304 1.786.229 2.749-.073.93.022 1.872-.033 2.804-.026.443.285.763.257 1.208-.025.393-.106.795.148 1.229.163.277.133.795-.089 1.217-.213.408-.1.897.119 1.357-.226 1.307-1.208 2.179-1.78 3.276-.111.212-.415.396-.661.451-.814.181-1.653.436-2.48.246-1.025-.235-1.669-.951-1.979-1.961-.159-.519-.217-.981-.042-1.562.211-.699.503-1.413.48-2.183-.02-.789-.002-1.581-.002-2.372m18.655 20.378c-.213-.169-.363-.366-.293-.642.21-.812.253-1.674.653-2.425.379-.711.613-1.474.916-2.21.116-.281.176-.536.143-.796-.04-.313.215-.482.254-.772.159-1.177.298-2.377.661-3.498.265-.818.297-1.729.982-2.545.2-.11.526-.308.723-.716.232-.482.688-.837.856-1.373a.4.4 0 0 1 .224-.226c1.013-.367 1.342-1.356 1.856-2.138.241-.366.367-.839.616-1.252.244-.403.571-.696.86-1.03h1.486c.563.374 1.143.67 1.611 1.14a2.95 2.95 0 0 1 .895 2.112c.019 1.113.005 2.227.005 3.331-.091.116-.169.213-.229.35-.399.918-.903 1.761-1.676 2.439a5.04 5.04 0 0 0-1.578 2.58c-.056.215-.169.508-.403.699-.178.146-.313.366-.456.551-.743.957-1.38 2.031-2.513 2.617a.2.2 0 0 0-.076.075c-.599.907-1.605 1.376-2.318 2.142-.71.763-1.668 1.041-2.491 1.571-.199.129-.476.067-.708.016m-3.544-21.022c.642-.576.782-1.368 1.085-2.074.052-.121-.042-.273.088-.396.752-.713.959-1.679 1.216-2.625.143-.526.543-.877.952-1.26h1.763c.657.17.967.959 1.656 1.242.174.071.321.228.525.296.902.3 1.115 1.138 1.341 1.899.133.447.094.943.198 1.424.091.417-.097.946-.297 1.36a6.7 6.7 0 0 0-.416 1.121c-.173.636-.592 1.125-.883 1.685-.216.417-.361.868-.549 1.287-.44.985-1.345 1.566-1.889 2.45-.269.436-.427.914-.689 1.335-.636 1.019-1.216 2.101-2.386 2.654-.146.069-.271.042-.432.08-.275-.077-.389-.377-.634-.546.125-1.839-.375-3.66-.209-5.509-.305-.739-.074-1.549-.253-2.276-.171-.702-.139-1.384-.187-2.147m-4.454 2.687c-.363-.042-.834.185-1.153-.337 0-.601-.058-1.252.021-1.887.054-.437.184-.861.217-1.315.043-.6-.197-1.132-.501-1.518-.386-.49-.697-1.013-1.032-1.577 0-.203-.022-.458.004-.707.129-1.199-.221-2.344-.474-3.484-.091-.409-.135-.807-.181-1.214-.073-.654.186-1.332-.201-1.97-.154-.256.189-.493.237-.797.361-.324.841-.328 1.331-.311.396.015.792-.002 1.188.004.553.01 1.139-.116 1.632.224.447.309 1.002.336 1.445.713.44.375 1.044.592 1.609.775.578.187.936.658.927 1.104-.016.822.357 1.578.261 2.395-.2 1.688-.354 3.382-1.466 4.795-.203.258-.395.624-.427.889-.09.745-.553 1.187-1.034 1.631-.863.796-1.431 1.859-2.403 2.587m18.811 13.196c.384-.047.604.03.73.3.245.524-.187.983-.181 1.448-.22.673-1.247.509-1.222 1.39.076.761-.355 1.304-.851 1.888-.342.403-.699.821-.966 1.312-.386.708-1.02 1.243-1.555 1.847-.273.309-.722.072-.907.44-.29-.245-.433-.466-.211-.892.584-1.12 1.105-2.264 1.424-3.509.244-.956.989-1.622 1.873-2.072.453-.23.78-.548.958-1.025.18-.478.578-.781.908-1.127"/>
</svg>
