<?xml version="1.0" encoding="iso-8859-1"?>
<!-- Generator: Adobe Illustrator 16.0.0, SVG Export Plug-In . SVG Version: 6.00 Build 0)  -->
<!DOCTYPE svg PUBLIC "-//W3C//DTD SVG 1.1//EN" "http://www.w3.org/Graphics/SVG/1.1/DTD/svg11.dtd">
<svg version="1.1" id="Layer_1" xmlns="http://www.w3.org/2000/svg" xmlns:xlink="http://www.w3.org/1999/xlink" x="0px" y="0px"
	 width="72.36px" height="72.18px" viewBox="0 0 72.36 72.18" style="enable-background:new 0 0 72.36 72.18;" xml:space="preserve"
	>
<g>
	
	<path fill="currentColor" d="M51,11.298c0.32,0.646,0.756,1.267,1.185,1.844
		c0.427,0.574,0.912,1.177,1.632,1.483c0.153,0.065,0.257,0.247,0.386,0.372c0.717,0.699,1.313,1.512,2.115,2.135
		c0.528,0.41,0.688,1.044,0.88,1.683c0.223,0.734,0.142,1.456,0.191,2.115c0.543,0.954,0.896,1.895,0.861,2.952
		c-0.012,0.359,0.02,0.721-0.006,1.079c-0.052,0.705,0.153,1.356,0.368,2.009c0.031,0.095,0.067,0.198,0.064,0.295
		c-0.025,0.767,0.045,1.497,0.418,2.205c0.225,0.425-0.262,0.833-0.243,1.25c-0.507,0.739-1.364,1.044-1.898,1.732
		c0,0.161,0,0.341,0,0.595c0.154,0.198,0.327,0.5,0.64,0.564c0.701,0.144,0.939,0.757,1.289,1.229
		c0.424,0.571,0.229,1.68-0.417,2.325c-0.597,0.595-1.064,1.271-1.518,1.968c-0.057,0.088-0.162,0.147-0.207,0.238
		c-0.192,0.388-0.313,0.825-0.568,1.163c-0.322,0.427-0.749,0.774-1.146,1.173c0,0.194,0,0.405,0,0.667
		c-0.263,0.207-0.543,0.429-0.936,0.74c-0.023,0-0.235,0-0.505,0c-0.204-0.23-0.439-0.498-0.728-0.823c0-0.258,0-0.615,0-0.984
		c0.343-0.429,0.751-0.805,1.208-0.959c0.191-1.123,0.364-2.136,0.533-3.129c-0.221-0.278-0.502-0.032-0.727-0.194
		c-0.469,0.505-1.053,0.881-1.023,1.65c-0.389,0.354-0.569,0.866-0.969,1.224c-0.646,0.579-1.049,1.318-1.319,2.148
		c-0.104,0.321-0.129,0.64-0.074,0.932c0.267,1.437,0.199,2.854,0.027,4.147c-0.077,0.58-0.374,1.131-0.244,1.713
		c-0.252,0.252-0.469,0.495-0.714,0.705c-0.206,0.175-0.445,0.31-0.664,0.458c-0.547,0.24-1.01-0.18-1.548-0.186
		c-0.276-0.297-0.568-0.611-0.956-1.027c0.117-0.494-0.411-1.028-0.24-1.579c-0.489-0.903-0.953-1.719-1.374-2.556
		c-0.226-0.452-0.524-0.834-0.942-1.085c-0.489-0.295-0.806-0.713-1.157-1.147c-0.514-0.636-1.182-1.145-1.683-1.612
		c-0.106-0.875,0.25-1.365,0.771-1.805c0.766,0.206,1.479-0.384,2.235-0.182c0.718-0.388,1.258-0.937,1.793-1.491
		c0.123-0.127,0.306-0.24,0.351-0.393c0.257-0.863,0.934-1.32,1.61-1.809c0.25-0.18,0.685-0.181,0.742-0.522
		c0.056-0.332,0.377-0.43,0.452-0.68c0.091-0.304,0.288-0.386,0.528-0.542c0.585-0.381,0.937-1.027,1.188-1.644
		c0.354-0.868,0.824-1.739,0.657-2.758c-0.513-0.422-0.51-0.412-0.938-0.132c-1.041,0.679-2.126,1.216-3.431,1.107
		c-0.594-0.049-1.128,0.122-1.639,0.478c-0.345,0.24-0.782,0.392-1.241,0.381c-0.468-0.011-0.936-0.002-1.412-0.002
		c-0.947,0.562-1.956,0.93-3.088,0.866c-0.251-0.014-0.511-0.04-0.755,0.005c-0.919,0.167-1.664-0.282-2.43-0.657
		c-0.395-0.193-0.576-0.577-0.813-1.08c-0.158-0.726,0.188-1.366,0.773-2.013c0.365-0.404,0.74-0.774,1.162-1.103
		c0.183-0.142,0.407-0.319,0.614-0.322c0.954-0.013,1.181-0.781,1.668-1.469c-0.563,0-1.015,0-1.569,0
		c-1.074,0.66-2.25,1.381-3.441,2.112c-0.429-0.159-0.866-0.32-1.263-0.468c-0.252-0.398-0.486-0.768-0.752-1.188
		c-1.057-0.164-1.842-0.889-2.648-1.559c-0.301-0.25-0.572-0.458-0.973-0.536c-0.588-0.113-1.113-0.436-1.68-0.635
		c-0.448-0.157-0.914-0.41-1.305-0.781c-0.375-0.355-0.897-0.593-1.395-0.773c-1.285-0.465-1.91-1.521-2.343-2.672
		c-0.27-0.716-0.587-1.461-0.477-2.295c0.057-0.433,0.179-0.794,0.465-1.108c0.496-0.544,1.123-0.975,1.45-1.667
		c1.346-0.79,2.093-2.35,3.683-2.841c0.281-0.087,0.536-0.264,0.732-0.629c0.234-0.437,0.838-0.669,1.269-1.006
		c1.29-1.009,2.83-1.49,4.319-2.085c0.289-0.116,0.558-0.03,0.833-0.071c0.236-0.035,0.399-0.208,0.664-0.239
		c1.089-0.124,1.084-0.148,2.449,0.199c0.201,0.051,0.421,0.035,0.633,0.036c0.972,0.003,1.943,0.019,2.914-0.003
		c0.947-0.022,1.815,0.22,2.648,0.65c0.77,0.397,1.549,0.775,2.33,1.15c0.299,0.144,0.596,0.287,0.917,0.397
		c0.494,0.171,1.043,0.366,1.378,0.83c0.216,0.3,0.546,0.424,0.837,0.597C49.949,10.749,50.596,10.693,51,11.298z"/>
	<path fill="currentColor" d="M44.537,51.341c0.226,0.226,0.379,0.378,0.535,0.534
		c0,0.283-0.047,0.58,0.009,0.855c0.177,0.871-0.261,1.546-0.705,2.191c-0.245,0.356-0.708,0.51-1.083,0.741
		c-0.317,0.196-0.676,0.323-0.929,0.637c-0.508,0.628-1.176,1.016-1.928,1.326c-0.486,0.2-1.01,0.429-1.362,0.888
		c-0.224,0.291-0.65,0.32-0.921,0.346c-1.295,0.12-2.594,0.434-3.896,0.235c-0.824-0.126-1.703-0.272-2.408-0.673
		c-0.661-0.375-1.366-0.348-2.027-0.589c-0.923-0.336-1.835-0.591-2.6-1.306c-0.956-0.895-1.611-1.965-2.24-3.076
		c-0.249-0.439-0.469-0.916-0.807-1.276c-0.398-0.425-0.556-0.972-0.659-1.453c-0.139-0.647-0.344-1.221-0.674-1.782
		c-0.079-0.134-0.308-0.219-0.228-0.424c-0.109-0.33,0.268-0.487,0.243-0.776c0.227-0.17,0.487-0.005,0.701-0.096
		c0.62,0.599,1.166,1.228,1.974,1.562c0.387,0.16,0.584,0.604,0.734,0.978c0.261,0.646,0.577,1.229,1.1,1.704
		c0.485,0.441,0.915,0.874,1.633,1.032c0.519,0.113,1.061,0.455,1.441,0.941c0.264,0.337,0.603,0.616,0.86,0.874
		c0.524,0.236,0.894-0.206,1.357-0.168c0.464,0.039,0.949-0.064,1.399,0.023c1.09,0.214,2.228,0.16,3.257,0.731
		c0.863,0.479,1.238,0.265,2.14-0.156c0.978-0.456,1.604-1.295,2.438-1.898c0.475-0.343,0.793-0.959,1.244-1.402
		C43.528,51.478,43.973,51.264,44.537,51.341z"/>
	<path fill="currentColor" d="M17.646,25.781c0.164-0.274,0.302-0.507,0.454-0.762
		c0.321,0,0.635,0,0.979,0c0.461,0.402,0.767,0.896,0.737,1.601c-0.026,0.619,0.311,1.155,0.634,1.823
		c0,0.756,0.003,1.652-0.001,2.547c-0.003,0.565,0.169,1.047,0.494,1.525c0.772,1.138,1.515,2.299,2.149,3.542
		c-0.422,0.987-0.972,1.862-1.548,2.735c-0.671,1.019-0.738,1.45-0.662,2.204c-0.191,0.542-0.52,0.94-1.125,1.053
		c-0.238,0.083-0.375-0.213-0.549-0.202c-0.705,0.043-0.873-0.549-1.071-0.972c-0.144-0.308-0.27-0.73-0.249-1.067
		c0.037-0.581-0.204-1.089-0.274-1.635c-0.062-0.481-0.075-1.019-0.404-1.443c-0.01-1.047-0.088-2.11,0.337-3.097
		c0.151-0.35-0.023-0.75,0.294-1.074c0.181-0.185-0.217-0.441-0.184-0.647c0.123-0.755-0.265-1.44-0.238-2.179
		c0.028-0.754-0.118-1.538,0.045-2.256C17.597,26.886,17.603,26.312,17.646,25.781z"/>
	<path fill="currentColor" d="M38.026,39.896c-0.512-0.082-1.096,0.163-1.6-0.224
		c-0.219-0.007-0.291,0.334-0.59,0.216c-0.401,1.73-1.634,2.109-3.138,1.924c-1.026-0.348-1.028-1.37-1.556-2.118
		c-0.233,0.023-0.492-0.015-0.822,0.111c-0.949,0.361-2.019-0.15-2.424-0.985c-0.154-0.316-0.057-0.621-0.107-0.925
		c0.813-0.876,0.813-0.876,2.335-0.544c0.394,0.413,0.494,1.006,0.837,1.457c0.405-0.29,0.621-0.948,0.412-1.482
		c-0.203-0.518-0.139-1.014-0.034-1.526c0.108-0.529,0.375-1.029,0.335-1.583c-0.023-0.328,0.377-0.532,0.187-0.953
		c0.295-0.272,0.631-0.543,0.92-0.857c0.505-0.548,1.079-0.863,1.829-0.676c0.506,0.145,0.79,0.564,1.161,0.902
		c0,1.209,0,2.427,0,3.701c0.172,0.134,0.369,0.287,0.688,0.534c0.477,0.017,1.15-0.098,1.795,0.186
		c0.232,0.269,0.466,0.537,0.769,0.886C39.204,38.737,38.689,39.336,38.026,39.896z"/>
	<path fill="currentColor" d="M30.124,30.817c-0.872-0.485-1.683-0.968-2.48-1.472
		c-0.534-0.337-0.976-0.755-1.48-1.102c-0.629-0.432-1.336-0.751-2.023-1.095c-0.369-0.185-0.718-0.369-1.022-0.667
		c-0.502-0.491-0.826-1.024-0.729-1.753c0.019-0.141,0.003-0.287,0.003-0.436c0.071-0.182,0.173-0.377,0.273-0.524
		c0.436-0.638,1.087-0.931,1.86-0.944c0.323-0.005,0.654,0.042,0.969-0.01c0.597-0.097,1.023,0.328,1.546,0.446
		c0.61,0.802,1.587,1.029,2.408,1.484c0.695,0.385,1.386,0.748,1.919,1.339c0.546,0.606,1.357,0.902,1.823,1.679
		c0,0.708,0,1.499,0,2.3C32.337,31.079,31.153,30.757,30.124,30.817z"/>
	<path fill="currentColor" d="M12.44,28.44c0,0.861,0,1.647,0,2.516c-0.142,0.108-0.339,0.26-0.635,0.486
		c-0.057,0-0.266,0-0.532,0c-0.196-0.228-0.428-0.496-0.805-0.933c-0.267-0.574-0.057-1.52-0.588-2.297
		c-0.208-0.305-0.62-0.482-0.645-0.922c0-1.36,0-2.721,0-4.162c0.362-0.19,0.399-0.727,0.779-0.985
		c0.331-0.225,0.698-0.397,1.066-0.602c0.789-0.183,1.539,0.369,2.268,0.203c0.895,0.462,1.719,0.89,2.338,1.622
		c0.065,0.599-0.012,1.167-0.49,1.577c-0.806,0.174-1.516-0.058-2.206-0.396c-0.41-0.201-0.409-0.208-0.875-0.195
		c-0.409,0.379-0.558,0.842-0.532,1.401c0.033,0.716,0.008,1.435,0.008,2.152C11.883,28.096,11.979,28.543,12.44,28.44z"/>
	<path fill="currentColor" d="M64.504,34.819c0,0.806,0,1.595,0,2.329
		c-0.222,0.396-0.397,0.761-0.623,1.092c-0.199,0.29-0.393,0.576-0.731,0.772c-0.331,0.191-0.54,0.581-0.855,0.812
		c-0.933,0.683-1.892,1.328-2.839,1.989c-0.355,0.248-1.442,0.636-1.998,0.676c-0.091-0.145-0.224-0.356-0.357-0.567
		c-0.209-0.149-0.133-0.397-0.139-0.646c0.67-0.595,1.188-1.37,2.104-1.688c0.32-0.11,0.488-0.483,0.611-0.81
		c0.199-0.525,0.5-0.967,0.911-1.353c0.193-0.181,0.309-0.444,0.466-0.679c0.031-0.879-0.167-1.812,0.624-2.716
		c0.393-0.308,0.943-0.249,1.522,0.106C63.595,34.378,64.131,34.348,64.504,34.819z"/>
	<path fill="currentColor" d="M60.415,31.442c-0.06-0.364,0.368-0.569,0.207-0.916
		c1.106-1.377,2.601-1.595,3.798-1.457c1.342,0.259,1.361,1.129,1.563,1.792c0.103,0.333,0.342,0.686,0.257,1.081
		c0.567,0.813,0.435,1.625-0.107,2.509c-0.408,0.262-0.934,0.433-1.571-0.085c-0.308-0.503-0.525-1.218-0.983-1.809
		c-0.794,0-1.578,0-2.514,0c-0.093-0.119-0.265-0.303-0.391-0.514C60.556,31.846,60.489,31.619,60.415,31.442z"/>
	<path fill="currentColor" d="M41.616,44.26c0,0.331-0.06,0.635,0.016,0.898
		c0.091,0.315-0.374,0.378-0.231,0.67c-0.327,0.168-0.653,0.336-1.051,0.54c-0.653-0.089-1.337,0.138-2.021,0.367
		c-0.128,0.043-0.27,0.056-0.405,0.062c-0.215,0.01-0.431,0.003-0.646,0.003c-0.61,0-1.221-0.003-1.832,0.001
		c-0.553,0.002-1.056,0.395-1.644,0.179c-0.214-0.236-0.451-0.497-0.799-0.882c0-0.07,0-0.351,0-0.752
		c0.15-0.097,0.388-0.252,0.757-0.49c0.325,0,0.864-0.011,1.403,0.003c0.696,0.017,1.364-0.159,1.969-0.45
		c1.123-0.54,2.285-0.729,3.51-0.631C40.993,43.807,41.258,44.027,41.616,44.26z"/>
	<path fill="currentColor" d="M23.551,39.674c0.396,0,0.754,0,1.111,0
		c0.104,0.104,0.206,0.205,0.307,0.307c0.104,0.665-0.083,1.221-0.572,1.695c-0.191,0.185-0.354,0.425-0.454,0.67
		c-0.154,0.383-0.331,0.73-0.612,1.044c-0.439,0.488-0.546,1.144-0.704,1.75c-0.101,0.386-0.243,0.704-0.541,0.992
		c-0.333,0-0.688,0-1.147,0c-0.087-0.136-0.222-0.348-0.358-0.56c-0.037,0.029-0.074,0.059-0.111,0.088c0-0.426,0-0.852,0-1.307
		c0.184-0.353,0.385-0.737,0.62-1.188c0-0.35,0-0.779,0-1.239C21.895,41.16,22.867,40.553,23.551,39.674z"/>
	<path fill="currentColor" d="M42.826,32.354c0.261,0.277,0.667,0.301,0.845,0.417
		c0.548,0.507,0.576,1.021,0.522,1.626c-1.016,1.091-2.25,1.021-3.47,0.551c-0.777-0.7-0.242-1.333,0.066-1.863
		C41.221,32.345,42.009,32.226,42.826,32.354z"/>
	<path fill="currentColor" d="M27.586,44.959c-0.042-0.465-0.03-0.91,0.389-1.458
		c-0.012,0.01,0.255,0.07,0.35-0.145c1.018-0.071,2.002-0.014,2.833,0.636c0.118,0.375,0.228,0.724,0.306,0.976
		c-0.321,0.322-0.592,0.595-0.983,0.989c-0.663,0.107-1.452-0.302-2.285-0.461C27.906,45.44,27.786,45.129,27.586,44.959z"/>
	<path fill="currentColor" d="M25.215,31.555c0.573-0.415,1.177-0.287,1.754-0.31
		c1.48,0.857,1.65,1.812,0.519,3.008c-0.405,0-0.829,0-1.274,0C25.147,33.295,24.846,32.516,25.215,31.555z"/>
	<path fill="currentColor" d="M30.924,47.016c0.615,0.579,1.084,1.195,0.368,2.226
		c-0.081,0.078-0.539-0.307-0.604,0.183c-0.515-0.192-0.882-0.438-1.165-0.8c0-0.357,0-0.716,0-1.071
		c0.182-0.182,0.359-0.359,0.537-0.537C30.348,47.016,30.636,47.016,30.924,47.016z"/>
	<path fill="currentColor" d="M42.139,47.028c0.346,0,0.7,0,1.126,0c0.117,0.147,0.272,0.341,0.492,0.615
		c0,0.186,0,0.498,0,0.795c-0.168,0.167-0.319,0.319-0.496,0.496c-0.358,0-0.742,0-1.129,0
		C41.713,48.307,41.708,47.674,42.139,47.028z"/>
	<path fill="currentColor" d="M39.554,49.606c-0.216,0-0.428,0-0.64,0
		c-0.175-0.176-0.351-0.351-0.532-0.532c0-0.204,0-0.414,0-0.623c0.116-0.337,0.521-0.289,0.712-0.533
		c0.392,0.179,0.781,0.361,1.019,0.797C40.219,49.165,39.79,49.329,39.554,49.606z"/>
	<path fill="currentColor" d="M35.767,48.851c0,0.276,0,0.584,0,0.918
		c-0.383,0.079-0.75,0.165-1.043-0.259c0-0.207,0-0.444,0-0.679c0.104-0.103,0.203-0.203,0.3-0.3
		C35.326,48.481,35.581,48.542,35.767,48.851z"/>
	<path fill="currentColor" d="M12.886,28.187c0.147-0.243,0.266-0.436,0.55-0.387
		c0.126,0.103,0.123,0.226,0.051,0.387C13.302,28.187,13.111,28.187,12.886,28.187z"/>
</g>
</svg>
