<svg xmlns="http://www.w3.org/2000/svg" xml:space="preserve" width="72px" height="72px" viewBox="0 0 72 72">
    <path fill="currentColor" d="M12.558 21.962c.261-.278.617-.317.914-.48.346-.675.332-1.44.599-2.333.25-.336.811-.467 1.323-.729.66-.339 1.137.104 1.74.113l.506.537c-.012.308.045.625.192.958.12.271.024.637.024.961l.52.519c.791.162 1.36-.183 1.862-.733.363-.398.76-.767 1.162-1.169h1.527c1.116.412 1.456 1.487 1.815 2.5.124.351.262.681.41 1.02.255.583.463 1.199.48 1.853.019.725-.251 1.267-.972 1.525-.061.022-.094.122-.155.146-.695.262-.932.785-1.054 1.497-.183 1.066-.499 2.056-1.571 2.701-.868.522-1.297 1.321-.845 2.41.102.246.063.557.059.838-.021 1.882.376 3.748.219 5.634.313.702.238 1.447.207 2.178-.038.88.29 1.452 1.174 1.654.844-.252 1.787-.318 2.075-.868.556-1.224.406-2.38 1.799-2.804 1.808 0 3.83-.115 5.829.043 1.197.095 2.389.151 3.586.171.414.006.845.086 1.29-.419.041-.104.264-.366.247-.741-.167-3.753.33-7.495.214-11.249-.025-.827.004-1.655-.006-2.483-.011-.887-.389-1.597-1.212-1.937a3.9 3.9 0 0 1-1.636-1.232c-.288-.365-.645-.677-.987-.997-.384-.359-.699-.751-.923-1.238-.379-.825-1.211-.926-1.966-1.073-.847-.165-1.589.294-2.354.558-.144.05-.31.106-.459.199-.653.403-1.353.697-2.158.509-1.158-.342-1.094-1.476-1.465-2.376.076-.206.263-.411.219-.729-.04-.295-.068-.598.176-.901.141-.174.025-.554.025-.7a4.7 4.7 0 0 1 1.379-1.948c1.088-.933 2.293-1.688 3.656-2.119.883-.279 1.833-.095 2.585.394a29 29 0 0 0 2.494 1.482h1.402c.689-.395.756-1.13 1.002-1.75.512-1.288.445-1.361 1.637-2.135.228 0 .479.014.727-.003.478-.033.866.121 1.227.44.369.327.508.822.488 1.189-.075 1.391.325 2.739.26 4.125-.049 1.042.049 2.091-.023 3.13-.096 1.354.306 2.664.244 4.015-.063 1.365-.165 2.757.029 4.097.189 1.313-.021 2.634.208 3.906.251 1.385-.022 2.777.218 4.122.222 1.242.139 2.466.162 3.696.007.367.227.633.278.982.068.463.714.269 1.048.522.138.104.419.017.636.017h5.81c.586.208.933.552 1.259.924.221.793.106 1.777 1.111 2.164l.871-.971v-8.175c-.138-.116-.375-.331-.627-.526-.851-.656-1.188-1.523-1.081-2.577.055-.534-.23-.982-.353-1.471-.136-.538-.584-.761-.956-.781-.761-.041-1.201-.488-1.716-1.008 0-.878.004-1.808-.001-2.738-.002-.448.046-.896-.207-1.319-.242-.404-.201-.902-.407-1.343-.212-.451.091-.938.181-1.408.02-.104.003-.215.003-.229.558-.953 1.509-1.322 2.276-1.916.436-.337.997-.232 1.469-.221.746.493 1.027 1.235 1.209 2.008.082.35.212.64.437.903.196.232.597-.04.741.314.181-.216.413-.234.689-.203.269-.432.806-.634.99-1.196.091-.274.411-.498.668-.689.802-.596 1.785-.233 2.107.749.105.325.32.622.202.974.24.386.604.587 1.059.791 1.353-.045 2.519.522 3.46 1.6.144.165.187.349.264.541.424 1.049.707 2.168 1.415 3.084.174.225-.074.604.294.744-.061 1.057.486 1.955.782 2.917.029.095.083.185.081.289-.016 1.114.317 2.183.479 3.27.107.734.131 1.456.17 2.185.011.207-.04.414.166.587.076.064.101.313.039.396-.406.554-.11 1.175-.207 1.754-.073.439.131.882-.176 1.337-.233.348.058.848-.214 1.315-.214.369-.155.937-.213 1.404-.124 1.025-.523 1.958-.749 2.943a13 13 0 0 1-.458 1.536c-.17.468-.497.852-.592 1.381-.091.511-.6.866-.711 1.43-.215 1.086-.957 1.918-1.543 2.807-.262.397-.496.816-.716 1.225-.625 1.163-1.679 1.996-2.313 3.143-.195.353-.637.404-.903.686-.446.47-.935.9-1.367 1.382-.897.999-1.96 1.835-3.057 2.556-1.45.954-2.879 1.999-4.524 2.608-.599.222-1.214.44-1.721.781-.365.246-.727.141-1.078.286-1.321.547-2.688.985-4.028 1.487-.122.047-.222.143-.375.139-.913-.022-1.795.363-2.718.213-1.827.461-3.685.154-5.527.193-.828.018-1.672-.134-2.496-.237-.776-.097-1.607-.263-2.319-.624-.779-.396-1.609-.671-2.417-.938-.92-.304-1.843-.625-2.714-1.015-1.56-.697-3.18-1.315-4.466-2.528-.435-.41-.942-.799-1.567-.888-.3-.042-.473-.244-.569-.43-.439-.842-1.212-1.276-1.968-1.747a1.1 1.1 0 0 1-.381-.373c-.498-.887-1.309-1.484-1.998-2.192-.728-.746-1.387-1.555-1.794-2.5-.177-.412-.508-.645-.73-.986-.387-.597-.687-1.236-1.034-1.849-.364-.64-.585-1.347-1.073-1.938-.259-.313-.371-.789-.442-1.209-.177-1.035-.599-1.982-.946-2.958-.368-1.018-.844-2.02-.785-3.13.023-.441-.282-.765-.255-1.208.024-.394.222-.862-.188-1.211-.035-.03-.004-.139-.004-.21v-4.536c.33-.663.098-1.394.235-2.066.295-1.445.435-2.925 1.118-4.287.385-.766.605-1.632.775-2.478.061-.305.151-.607.267-.867.296-.671.721-1.284 1.033-1.949.338-.722.863-1.072 1.644-1.232.438-.089.865-.195 1.293-.184M35.46 55.871c1.11 0 2.223-.029 3.333.01.803.028 1.427-.167 1.742-1.145 0-1.228-.001-2.626.001-4.023.001-.313.012-.617-.215-.881-.593-.692-1.112-1.454-1.789-1.911-.682 0-1.273-.101-1.813.023-.817.188-1.795 1.669-1.798 2.552-.005 1.613-.001 3.227-.001 4.835zM11.916 40.319c.353 0 .713.018 1.071-.004.467-.028.783-.377.996-.836.17-.366.212-.723.201-1.104-.043-1.409.162-2.833-.292-4.272l-.459-.481c-.259.024-.498.025-.642-.167-.507.205-.948.518-1.182.988-.22.442-.428.953-.424 1.432.01 1.328-.243 2.685.265 3.977.155.157.308.309.466.467m14.658 10.158c-.444.611-.796 1.242-.737 2.059.052.712.011 1.431.011 2.108.263.385.385.856.832 1.012h.573l.756-.761c-.068-.802.447-1.592.186-2.366-.239-.708-.302-1.533-.954-2.052zm34.482-11.573c0-1.176-.009-2.574.005-3.972.004-.457-.005-.896-.306-1.288h-.919c-.391.329-.462.816-.483 1.214-.068 1.287-.041 2.581-.012 3.871.006.248.186.491.282.73.319-.054.492.32.934.163zm-4.011 10.711c-.741-.303-.839-.414-1.842.552.198.417-.218.749-.2 1.17.02.466.005.933.005 1.405l.516.506h.833c.813-.422.796-1.204.988-1.819.164-.526.167-1.181-.3-1.814m-7.312 5.381c.296-.548.43-1.145.504-1.73.084-.669.02-1.356.02-1.942l-.527-1.056c-.17.006-.347-.066-.478.027-.851 1.603-.539 3.16-.009 4.701zm-30.922-2.982c.246 1.096.226 2.248 1.081 2.977.402.074.618-.074.786-.368-.115-1.14.263-2.372-.468-3.455h-.868c-.609.174-.224.686-.531.846"/>
</svg>
