<?xml version="1.0" encoding="iso-8859-1"?>
<!-- Generator: Adobe Illustrator 16.0.0, SVG Export Plug-In . SVG Version: 6.00 Build 0)  -->
<!DOCTYPE svg PUBLIC "-//W3C//DTD SVG 1.1//EN" "http://www.w3.org/Graphics/SVG/1.1/DTD/svg11.dtd">
<svg version="1.1" id="Layer_1" xmlns="http://www.w3.org/2000/svg" xmlns:xlink="http://www.w3.org/1999/xlink" x="0px" y="0px"
	 width="72.36px" height="72.18px" viewBox="0 0 72.36 72.18" style="enable-background:new 0 0 72.36 72.18;" xml:space="preserve"
	>
<g>
	
	<path fill="currentColor" d="M38.325,55.168c-0.278,0.013-0.449,0.324-0.915,0.243
		c-0.347-0.08-0.467-0.561-0.762-0.999c0-0.228,0.011-0.547-0.002-0.865c-0.019-0.446,0.051-0.884-0.193-1.326
		c-0.188-0.344,0.174-0.853-0.227-1.199c0.051-0.626-0.163-1.271,0.132-1.881c0.182-0.375-0.019-0.774,0.073-1.026
		c-0.271-0.748-0.733-1.002-1.411-1.133c-0.654-0.126-1.223-0.162-1.889-0.005c-0.655,0.155-1.178,0.308-1.435,1.159
		c0.074,0.433-0.201,1.071,0.187,1.667c0.083,0.127,0.089,0.43-0.001,0.519c-0.423,0.418,0.016,1.062-0.419,1.454
		c0.111,0.502-0.216,0.927-0.256,1.419c-0.044,0.535-0.234,1.122-0.666,1.572c-0.313,0-0.626,0-0.938,0
		c-0.307-0.307-0.612-0.612-0.775-0.775c-0.483-0.909-0.43-1.727-0.367-2.522c0.033-0.419-0.394-0.697-0.233-1.099
		c0.169-0.423-0.492-0.738-0.134-1.172c0.29-0.351,0.036-0.762,0.145-1.112c-0.186-0.272-0.23-0.603-0.601-0.871
		c-0.208,0-0.578,0.106-0.823-0.022c-0.454-0.24-1.017-0.146-1.303-0.414c-0.615-0.559-0.558-1.173-0.52-1.759
		c0.038-0.588,0.321-1.038,1.315-1.232c0.459,0.02,1.294-0.006,1.889-0.74c0.143-0.402-0.147-0.854,0.154-1.236
		c0.27-0.344-0.143-0.869,0.305-1.169c0.09-1.184-0.216-2.25-1-3.146c-0.425-0.487-0.91-0.921-1.373-1.384c0-0.354,0-0.713,0-1.066
		c0.384-0.516,0.887-0.884,1.492-1.068c0.49-0.149,0.798-0.55,0.85-0.926c0.16-1.162,0.83-1.949,1.674-2.667
		c0.235,0.026,0.479,0.021,0.695-0.29c0.25,0.39,0.767,0.165,1.059,0.542c0.231,0.299,0.576,0.512,0.707,0.908
		c0,0.392-0.001,0.784,0,1.177c0.002,0.971,0.006,0.98,0.686,1.694c0.835,0.241,1.625,0.373,2.479,0.259
		c0.136-0.147,0.307-0.332,0.511-0.554c-0.085-0.562,0.053-1.168-0.188-1.807c-0.258-0.686,0.331-1.753,0.969-2.146
		c0.706-0.435,1.557-0.186,2.021,0.6c0.152,0.259,0.18,0.585,0.429,0.799c0,0.787,0,1.578,0,2.37
		c0.787,0.97,1.887,0.738,2.898,0.768c0.349-0.177,0.265-0.558,0.419-0.803c0.21-0.334,0.07-0.528-0.037-0.839
		c-0.105-0.302-0.18-0.656-0.227-0.981c-0.088-0.597-0.025-1.215-0.025-1.709c0.337-0.665,0.623-1.23,0.967-1.907
		c-0.996,0.046-1.88-0.189-2.786,0.144c-0.38,0.14-0.861,0.108-1.275,0.033c-1.365-0.247-1.36-0.262-2.632,0.007
		c-0.207,0.044-0.431,0.006-0.647,0.006c-0.936,0-1.872-0.009-2.807,0.003c-0.7,0.008-1.352-0.276-2.071-0.243
		c-1.089,0.05-2.156,0.376-3.258,0.251c-0.104-0.012-0.227,0.132-0.39,0.235c-0.647-0.566-1.343-0.125-2.068-0.006
		c-0.321,0.224-0.547,0.57-0.743,1.063c0,0.384,0.114,0.924-0.032,1.38c-0.143,0.444-0.031,0.972-0.399,1.343
		c0.159,0.61-0.284,1.136-0.232,1.748c0.04,0.472-0.266,0.911-0.218,1.422c0.044,0.471,0.082,0.952-0.17,1.435
		c-0.148,0.282,0.011,0.711-0.036,1.064c-0.063,0.475,0.155,0.951-0.177,1.443c-0.229,0.339,0.173,0.912-0.241,1.3
		c-0.036,0.033-0.015,0.14-0.003,0.21c0.147,0.889-0.152,1.749-0.265,2.604c-0.15,1.138-0.072,2.335-0.586,3.415
		c0.119,0.641-0.275,1.222-0.226,1.848c0.128,1.601-0.363,3.171-0.221,4.771c-0.452,1.899-0.11,3.828-0.214,5.741
		c-0.022,0.412,0.012,0.813-0.201,1.215c-0.17,0.321,0.083,0.729-0.176,1.121c-0.164,0.248-0.03,0.692-0.03,1.083
		c-0.189,0.154-0.383,0.312-0.678,0.552c-0.557,0.067-1.137-0.311-1.6-0.691c-0.511-0.42-1.043-0.834-1.561-1.24
		c-0.65-0.512-1.165-1.192-1.931-1.566c-0.214-0.104-0.352-0.357-0.542-0.521c-0.801-0.694-1.389-1.618-2.347-2.149
		c-0.302-0.168-0.38-0.561-0.597-0.833c-0.368-0.461-0.543-1.019-1.127-1.373c-0.411-0.249-0.62-0.862-0.872-1.337
		c-0.476-0.896-1.05-1.728-1.609-2.568c-0.1-0.151-0.17-0.324-0.197-0.458c-0.158-0.783-0.675-1.388-0.969-2.086
		c-0.281-0.668-0.566-1.352-0.793-2.046c-0.229-0.702-0.334-1.443-0.548-2.15c-0.345-1.145-0.479-2.302-0.44-3.495
		c0.013-0.394-0.119-0.834-0.273-1.175c-0.316-0.694-0.374-1.39-0.361-2.12c0.01-0.575,0.013-1.152-0.001-1.728
		c-0.013-0.524,0.369-0.989,0.219-1.53c0.368-0.771,0.179-1.594,0.21-2.394c0.019-0.486,0.379-0.913,0.222-1.422
		c0.385-0.727,0.408-1.56,0.601-2.335c0.188-0.755,0.533-1.452,0.679-2.207c0.062-0.319,0.264-0.54,0.36-0.827
		c0.211-0.631,0.547-1.212,0.799-1.829c0.44-1.077,1.122-2.056,1.72-3.065c0.201-0.34,0.707-0.318,0.887-0.708
		c0.692,0,1.375-0.017,2.055,0.007c0.335,0.012,0.708-0.145,1.004,0.193c0.063,0.072,0.291,0.057,0.416,0.009
		c1.066-0.409,2.175-0.105,3.287-0.232c0.887-0.485,1.155-1.368,1.375-2.3c0.279-1.183,0.159-2.455,0.795-3.557
		c0.132-0.229,0.04-0.486,0.061-0.73c0.063-0.748,0.235-1.471,0.456-2.16c0.383-0.185,0.743-0.357,1.125-0.541
		c0.634,0.148,1.122,0.521,1.434,1.082c0.16,0.289,0.347,0.532,0.628,0.661c0.44,0.201,0.722,0.574,1.014,0.914
		c0.179,0.208,0.359,0.49,0.321,0.835c-0.035,0.319-0.007,0.645-0.007,0.959c0.11,0.11,0.212,0.212,0.319,0.319
		c0.353,0,0.712,0,1.077,0c0.811-0.581,0.791-1.775,1.777-2.341c0.356,0,0.813,0,1.287,0c0.376,0.301,0.474,0.797,0.705,1.205
		c0.22,0.387,0.357,0.816,0.793,1.12c0.219,0,0.501,0,0.833,0c0.398-0.23,0.645-0.651,0.759-1.117
		c0.321-1.308,0.401-1.458,1.372-2.074c0.919-0.194,1.51,0.273,2.041,0.921c0.027,0.441,0.256,0.868,0.326,1.346
		c0.078,0.531,0.542,0.827,0.935,0.934c0.583,0.05,0.845-0.382,1.265-0.421c0.2-0.45,0.543-0.846,0.587-1.431
		c0.293-0.249,0.547-0.617,0.99-0.818c0.25-0.113,0.518-0.193,0.696-0.107c0.557,0.266,1.254,0.37,1.471,1.114
		c0.083,0.284,0.261,0.54,0.372,0.817c0.206,0.516,0.514,0.885,1.121,0.911c0.082,0.003,0.158,0.119,0.223,0.171
		c0.657-0.153,0.9-0.614,1.165-1.165c0.334-0.693,0.66-1.426,1.29-1.989c-0.222-0.658,0.27-1.262,0.198-1.932
		c0.178-0.178,0.355-0.356,0.536-0.536c0.357,0,0.717,0,1.029,0c0.932,0.571,1.072,1.58,1.441,2.442
		c0.275,0.641,0.472,1.311,0.808,1.935c0.302,0.562,0.492,1.169,0.523,1.841c0.03,0.629,0.345,1.214,0.549,1.816
		c0.136,0.4,0.195,0.821,0.775,1.027c2.072-0.428,4.322-0.122,6.56-0.199c0.517-0.018,0.974-0.444,1.542-0.173
		c0.074,0.079,0.185,0.131,0.326,0.178c0.424,0.142,0.697,0.432,0.945,0.841c0.489,0.807,1.078,1.553,1.516,2.399
		c0.094,0.182,0.042,0.342,0.095,0.556c0.874,0.588,0.968,1.633,1.259,2.553c0.204,0.645,0.27,1.323,0.77,1.845
		c0.397,0.414,0.412,1.017,0.499,1.508c0.114,0.643,0.383,1.227,0.531,1.849c0.133,0.554,0.249,1.118,0.365,1.675
		c0.09,0.432,0.036,0.874,0.212,1.319c0.241,0.612,0.266,1.284,0.246,1.954c-0.017,0.55,0.268,1.058,0.22,1.639
		c-0.153,1.849-0.221,3.706-0.846,5.485c-0.09,0.256-0.055,0.569-0.024,0.85c0.033,0.302-0.302,0.46-0.229,0.777
		c0.172,0.755-0.418,1.359-0.444,2.079c-0.623,0.861-0.818,1.895-1.143,2.874c-0.295,0.896-0.716,1.739-1.24,2.506
		c-0.648,0.949-1.228,1.927-1.705,2.969c-0.098,0.213-0.188,0.447-0.347,0.61c-1.154,1.186-1.993,2.642-3.267,3.732
		c-0.858,0.734-1.574,1.633-2.626,2.291c-0.247,0-0.604,0-0.973,0c-0.413-0.43-0.389-1.043-0.539-1.573
		c-0.269-0.946-0.285-1.94-0.24-2.928c0.047-1.044-0.306-2.023-0.522-3.023c-0.137-0.634-0.324-1.244-0.365-1.908
		c-0.042-0.702-0.139-1.415-0.374-2.103c-0.109-0.322-0.026-0.71-0.033-1.067c-0.013-0.688,0.132-1.412-0.432-1.98
		c0.032-0.49-0.319-0.903-0.233-1.425c0.08-0.491,0.018-1.006,0.018-1.515c-0.392-0.604-0.646-1.3-0.62-1.993
		c0.036-0.966-0.271-1.822-0.562-2.696c-0.042-0.126-0.107-0.24-0.117-0.383c-0.088-1.226-0.462-2.386-0.739-3.572
		c-0.309-1.317-0.941-2.592-0.772-4.009c0.103-0.858-0.171-1.621-0.863-2.49c-0.566-0.536-1.231,0.036-1.921,0.37
		c-0.063,0.483-0.078,0.979,0.267,1.373c0.356,0.407,0.376,0.872,0.362,1.366c-0.013,0.432-0.018,0.864,0.001,1.295
		c0.027,0.634,0.191,1.213,0.697,1.656c0.27,0.236,0.512,0.506,0.771,0.766c0.104,0.396,0.024,0.709-0.281,1.038
		c-0.315,0.339-0.648,0.764-0.728,1.196c-0.121,0.662-0.171,1.402,0.012,2.033c0.153,0.53,0.146,1.028,0.167,1.543
		c0.023,0.575,0.006,1.151,0.006,1.728c0.219,0.429,0.627,0.653,1.033,0.805c0.821,0.308,0.921,1.096,1.089,1.729
		c0.193,0.73-0.1,1.4-0.914,1.759c-0.369,0.162-0.633,0.538-0.775,0.952c0,1.8,0,3.599,0,5.316c-0.26,0.512-0.487,0.958-0.738,1.453
		c-0.258,0-0.573,0-0.911,0c-0.231-0.477-0.594-0.964-0.693-1.501c-0.094-0.5-0.401-0.981-0.251-1.524
		c0.092-0.331-0.298-0.524-0.235-0.886c0.05-0.283,0.022-0.583-0.135-0.906c-0.169-0.351-0.078-0.841-0.055-1.268
		c0.032-0.554-0.099-1.029-0.521-1.411c-0.416-0.162-0.857,0.061-1.326-0.186c-0.396-0.208-0.99,0.004-1.48-0.075
		c-0.486-0.078-0.854,0.306-1.325,0.23c-0.172,0.178-0.346,0.358-0.55,0.569c0.136,0.366-0.134,0.691-0.2,1.058
		c-0.067,0.365,0.155,0.785-0.215,1.099c-0.035,0.03-0.014,0.14-0.004,0.211c0.145,0.958-0.184,1.881-0.257,2.822
		C38.712,53.708,38.695,54.488,38.325,55.168z M36.4,39.177c-0.175-0.711-0.7-0.974-1.218-1.229
		c-0.49-0.031-0.996,0.109-1.402-0.265c-0.257,0.379-0.604,0.23-0.913,0.261c-0.176,0.175-0.476,0.337-0.502,0.534
		c-0.038,0.286-0.249,0.529-0.234,0.765c0.07,1.132-0.185,2.236-0.258,3.299c0.219,0.229,0.392,0.411,0.426,0.448
		c1.14,0.458,2.162,0.334,3.077,0.354c0.321-0.299,0.583-0.542,0.767-0.714C36.627,41.457,36.349,40.314,36.4,39.177z
		 M43.992,41.301c-0.543-0.577-0.618-1.352-0.366-1.951c0.252-0.603,0.018-0.959-0.185-1.355c-0.322-0.318-0.71-0.271-1.089-0.268
		c-0.429,0.004-0.857,0.001-1.285,0.001c-0.521,0.19-0.829,0.622-1.119,0.927c-0.464,1.412-0.332,2.731,0.025,4.036
		c0.842,0.72,1.83,0.396,2.746,0.413c0.445,0.009,0.95-0.104,1.272-0.523C43.992,42.187,43.992,41.793,43.992,41.301z"/>
	
	
</g>
</svg>
