<?xml version="1.0" encoding="iso-8859-1"?>
<!-- Generator: Adobe Illustrator 16.0.0, SVG Export Plug-In . SVG Version: 6.00 Build 0)  -->
<!DOCTYPE svg PUBLIC "-//W3C//DTD SVG 1.1//EN" "http://www.w3.org/Graphics/SVG/1.1/DTD/svg11.dtd">
<svg version="1.1" id="Layer_1" xmlns="http://www.w3.org/2000/svg" xmlns:xlink="http://www.w3.org/1999/xlink" x="0px" y="0px"
	 width="72.36px" height="72.18px" viewBox="0 0 72.36 72.18" style="enable-background:new 0 0 72.36 72.18;" xml:space="preserve"
	>
<g>
	<path style="fill-rule:evenodd;clip-rule:evenodd;fill:none;" d="M-6.984,79.631c0-28.871,0-57.743,0-86.615
		c28.8,0,57.6,0,86.399,0c0,28.872,0,57.744,0,86.615C50.616,79.631,21.816,79.631-6.984,79.631z M48.753,64.178
		c-0.04-0.428,0.148-0.831,0.168-1.216c0.035-0.68,0.075-1.364-0.124-2.083c-0.195-0.702-0.215-1.468-0.467-2.188
		c-0.118-0.34-0.011-0.732-0.217-1.102c-0.197-0.355,0.217-0.698,0.204-1.088c-0.021-0.609-0.006-1.221-0.006-1.766
		c-0.229-0.405-0.396-0.778-0.63-1.103c-0.434-0.602-0.676-1.249-0.668-1.994c0.009-0.863-0.018-1.728,0.008-2.591
		c0.019-0.637-0.176-1.198-0.426-1.771c-0.227-0.521-0.384-1.063-0.476-1.646c-0.124-0.788-0.317-1.581-1.01-2.178
		c-0.477-0.411-1.004-0.757-1.431-1.16c-1.652-0.161-3.283,0.146-4.914-0.209c-0.522-0.113-1.106-0.119-1.607-0.309
		c-0.79-0.298-1.475-0.229-2.129,0.273c-0.428,0.329-0.949,0.55-1.434,0.405c-0.792-0.237-1.601-0.438-2.359-0.817
		c-0.636-0.318-1.33-0.774-2.1-0.241c-0.048,0.033-0.143,0.015-0.212,0.002c-0.788-0.134-1.481,0.236-2.191,0.453
		c-0.436,0.133-0.982,0.265-1.21,0.672c-0.211,0.377-0.539,0.628-0.678,0.85c-0.211,0.668-0.364,1.2-0.297,1.769
		c0.055,0.459-0.095,0.853-0.331,1.268c-0.35,0.617-0.585,1.291-0.54,2.046c0.048,0.789-0.016,1.584,0.018,2.374
		c0.034,0.789-0.252,1.463-0.645,2.185c-0.105,0.866,0.186,1.836-0.227,2.749c0.151,0.475-0.214,0.854-0.229,1.313
		c-0.055,1.626,0.184,3.259-0.182,4.883c-0.131,0.579-0.021,1.212-0.021,1.634c0.319,0.395,0.544,0.672,0.762,0.941
		c0.357-0.171,0.536,0.185,0.809,0.198c0.279-0.288,0.709-0.199,1.015-0.433c0.432-0.329,0.877-0.27,1.334-0.011
		c0.17,0.097,0.352,0.189,0.532,0.273c0.69,0.322,1.329,0.798,2.15,0.388c0.086-0.043,0.213-0.007,0.321-0.006
		c0.766,0.009,1.544-0.095,2.422,0.382c0.161,0.16,0.466,0.466,0.771,0.771c-0.068,0.698,0.476,0.819,0.948,1.006
		c0.489-0.301,1.088-0.33,1.525-0.696c0.535,0.546,1.002,1.093,1.961,0.837c0.271-0.271,0.624-0.625,0.881-0.883
		c1.889-0.885,3.604-0.778,4.953,0.333c0.81,0.428,1.279-0.051,1.717-0.07c0.762-0.37,0.87-1.202,1.599-1.571
		c0.719-0.365,1.416-0.271,2.122-0.335C48.375,64.557,48.527,64.404,48.753,64.178z M25.848,9.981c0,0.484-0.012,0.987,0.003,1.488
		c0.017,0.565-0.081,1.059-0.416,1.561c-0.547,0.818-0.701,1.813-0.858,2.763c-0.122,0.735-0.09,1.514-0.007,2.26
		c0.088,0.793-0.3,1.507-0.242,2.287c0.043,0.572,0.008,1.15,0.008,1.661c-0.329,0.618-0.647,1.175-0.648,1.847
		c0,2.226,0,4.452,0,6.467c0.27,0.81,0.687,1.17,1.353,1.144c0.593-0.023,1.157-0.156,1.566-0.644c0.288,0,0.576-0.003,0.863,0.001
		c0.661,0.009,1.311-0.027,1.968,0.194c0.535,0.18,1.115,0.439,1.647,0.418c1.247-0.048,2.45,0.283,3.689,0.262
		c2.266-0.038,4.533-0.002,6.798-0.017c0.514-0.003,1.029,0.094,1.544-0.182c0.215-0.115,0.588-0.01,0.909,0.079
		c0.897,0.25,1.801,0.255,2.485-0.568c0.089-0.108,0.217-0.185,0.282-0.24c0-0.503,0-0.934,0-1.168
		c-0.158-0.544-0.386-0.842-0.657-1.056c0.082-1.077-0.062-2.09,0.201-3.111c0.165-0.641-0.022-1.364,0.045-2.041
		c0.071-0.718-0.387-1.357-0.229-2.07c0.029-0.136-0.131-0.176-0.144-0.263c-0.087-0.603-0.433-1.167-0.47-1.737
		c-0.064-1.015-0.385-2.005-0.262-3.039c0.059-0.497,0.014-1.006,0.009-1.509c-0.003-0.241-0.069-0.448-0.171-0.685
		c-0.412-0.967-0.777-1.964-0.69-2.977c-0.234-0.415-0.429-0.768-0.634-1.114c-0.054-0.091-0.146-0.153-0.37-0.106
		c-0.123,0.146-0.303,0.359-0.482,0.573c-0.403,0.743-0.227,1.564-0.238,2.366c-0.019,1.219-0.005,2.438-0.005,3.553
		c-0.273,0.467-0.533,0.828-0.705,1.227c-0.171,0.396-0.396,0.853-0.337,1.242c0.067,0.435,0.232,0.853,0.146,1.318
		c-0.584,0.495-0.99,1.137-1.204,1.862c-0.233,0.79-0.59,1.486-1.068,2.153c-0.406,0.566-0.767,1.178-0.988,1.8
		c-0.897,0.527-1.85,0.833-2.839,1.181c-0.194-0.472-0.659-0.186-1.012-0.322c-0.93-0.359-1.84-0.774-2.821-1.018
		c-0.565-0.141-1.121-0.479-1.578-0.854c-0.664-0.545-1.23-1.209-1.848-1.813c-0.229-0.224-0.395-0.532-0.412-0.794
		c-0.067-1.014-0.361-2.008-0.246-3.039c0.047-0.426,0.104-0.89-0.011-1.289c-0.311-1.078-0.445-2.165-0.416-3.28
		c0.013-0.503-0.022-1.009,0.009-1.51c0.033-0.549,0.013-1.083,0.164-1.65c0.205-0.77-0.162-1.537-0.678-2.16
		c-0.173,0-0.316,0-0.457,0C26.217,9.612,26.04,9.79,25.848,9.981z M38.048,36.983c-0.85,0.333-1.588,0.445-2.328,0.52
		c-0.463,0.047-0.936,0.015-1.403,0.007c-0.49-0.009-0.928,0.046-1.38,0.331c-0.601,0.379-1.289,0.599-2.042,0.543
		c-0.573-0.042-1.152,0.014-1.727-0.015c-0.5-0.025-0.96,0.042-1.338,0.305c0,0.343,0,0.658,0,0.976
		c0.312-0.072,0.422,0.248,0.692,0.246c1.198-0.009,2.402-0.096,3.582,0.208c3.671,0,7.343,0.002,11.014-0.005
		c0.205,0,0.413,0.061,0.622-0.061c0.769-0.447,1.398-0.996,1.581-1.938c-0.521-0.601-1.143-0.985-1.91-0.733
		c-0.496,0.163-0.918,0.204-1.395,0.014c-0.42-0.167-0.954-0.031-1.268-0.49c0.05-0.269,0.222-0.37,0.48-0.473
		c0.61-0.242,1.236-0.228,1.858-0.19c0.472,0.028,0.865-0.193,1.283-0.311c0.296-0.083,0.318-0.499,0.456-0.709
		c0-0.396,0-0.75,0-1.195c-0.479-0.132-0.908-0.407-1.447-0.392c-0.576,0.016-1.152,0.003-1.728,0.003
		c-0.553,0.551-1.099-0.073-1.658-0.013c-1.225,0.13-2.475-0.176-3.693,0.216c-0.258,0.083-0.666,0.12-0.834-0.023
		c-0.364-0.31-0.759-0.081-0.913-0.135c-2.626-1.403-5.089-0.947-7.465-0.127c-0.279,0.221-0.558,0.442-0.785,0.622
		c0,0.422,0,0.776,0,1.099c0.369,0.375,0.679,0.764,1.173,0.918c0.387,0.132,0.83-0.132,1.217,0.177
		c0.43,0.343,0.75-0.314,1.177-0.148c0.125,0.049,0.348-0.039,0.41,0.034c0.264,0.312,0.6,0.149,0.902,0.187
		c0.741,0.09,1.453-0.144,2.179-0.199c0.859-0.065,1.727-0.011,2.59-0.017C36.703,36.209,37.332,36.518,38.048,36.983z
		 M38.53,18.296c0.7-1.105,2.144-1.49,2.629-2.716c0-0.635,0-1.204,0-1.746c-0.204-0.204-0.405-0.365-0.554-0.565
		c-0.123-0.166-0.316-0.125-0.451-0.225c-0.19-0.141-0.308-0.347-0.592-0.409c-0.171-0.037-0.301-0.39-0.361-0.578
		c-0.217-0.662-0.809-0.811-1.308-1.025c-0.457-0.196-0.99-0.271-1.494-0.292c-1.042-0.042-2.087-0.017-3.13-0.01
		c-0.381,0.002-1.641,0.361-1.815,0.559c-0.564,0.639-1.317,1.052-1.916,1.66c-0.632,0.642-1.049,1.299-0.858,2.167
		c0.314,0.586,0.559,1.157,1.061,1.565c1.111,0.902,2.436,1.405,3.684,2.055c0.409,0.213,0.802,0.187,1.214,0.2
		c0.277,0.008,0.466,0.376,0.772,0.213c0.663-0.353,1.44-0.277,2.126-0.608C37.797,18.413,38.123,18.136,38.53,18.296z"/>
	<path fill="currentColor" d="M48.753,64.178c-0.227,0.227-0.379,0.379-0.539,0.539
		c-0.706,0.063-1.403-0.03-2.122,0.335c-0.729,0.369-0.837,1.201-1.599,1.571c-0.438,0.02-0.907,0.498-1.717,0.07
		c-1.35-1.111-3.064-1.218-4.953-0.333c-0.257,0.258-0.609,0.611-0.881,0.883c-0.959,0.256-1.427-0.291-1.961-0.837
		c-0.437,0.366-1.036,0.396-1.525,0.696c-0.472-0.187-1.016-0.308-0.948-1.006c-0.305-0.306-0.61-0.611-0.771-0.771
		c-0.878-0.477-1.656-0.373-2.422-0.382c-0.108-0.001-0.234-0.037-0.321,0.006c-0.821,0.41-1.46-0.065-2.15-0.388
		c-0.18-0.084-0.362-0.177-0.532-0.273c-0.457-0.259-0.902-0.318-1.334,0.011c-0.305,0.233-0.735,0.145-1.015,0.433
		c-0.273-0.014-0.452-0.369-0.809-0.198c-0.218-0.27-0.443-0.547-0.762-0.941c0-0.422-0.11-1.055,0.021-1.634
		c0.366-1.624,0.127-3.257,0.182-4.883c0.015-0.459,0.381-0.839,0.229-1.313c0.413-0.913,0.121-1.883,0.227-2.749
		c0.392-0.722,0.678-1.396,0.645-2.185c-0.034-0.79,0.03-1.585-0.018-2.374c-0.045-0.755,0.19-1.429,0.54-2.046
		c0.235-0.415,0.385-0.809,0.331-1.268c-0.067-0.568,0.085-1.101,0.297-1.769c0.139-0.222,0.467-0.473,0.678-0.85
		c0.228-0.407,0.774-0.539,1.21-0.672c0.71-0.217,1.403-0.587,2.191-0.453c0.07,0.013,0.164,0.031,0.212-0.002
		c0.77-0.533,1.463-0.077,2.1,0.241c0.758,0.379,1.567,0.58,2.359,0.817c0.485,0.145,1.006-0.076,1.434-0.405
		c0.654-0.503,1.339-0.571,2.129-0.273c0.501,0.189,1.085,0.195,1.607,0.309c1.631,0.354,3.262,0.048,4.914,0.209
		c0.427,0.403,0.954,0.749,1.431,1.16c0.692,0.597,0.886,1.39,1.01,2.178c0.092,0.583,0.249,1.126,0.476,1.646
		c0.25,0.572,0.444,1.134,0.426,1.771c-0.025,0.863,0.001,1.728-0.008,2.591c-0.008,0.745,0.234,1.393,0.668,1.994
		c0.233,0.324,0.401,0.697,0.63,1.103c0,0.545-0.016,1.156,0.006,1.766c0.013,0.39-0.401,0.732-0.204,1.088
		c0.206,0.369,0.099,0.762,0.217,1.102c0.252,0.721,0.271,1.486,0.467,2.188c0.199,0.719,0.159,1.403,0.124,2.083
		C48.902,63.347,48.713,63.75,48.753,64.178z"/>
	<path fill="currentColor" d="M25.848,9.981c0.191-0.191,0.369-0.369,0.548-0.548c0.14,0,0.284,0,0.457,0
		c0.517,0.623,0.883,1.39,0.678,2.16c-0.151,0.566-0.131,1.101-0.164,1.65c-0.031,0.501,0.004,1.007-0.009,1.51
		c-0.03,1.115,0.104,2.202,0.416,3.28c0.115,0.398,0.058,0.862,0.011,1.289c-0.115,1.031,0.179,2.025,0.246,3.039
		c0.018,0.263,0.183,0.57,0.412,0.794c0.618,0.603,1.184,1.267,1.848,1.813c0.457,0.375,1.013,0.713,1.578,0.854
		c0.981,0.244,1.891,0.659,2.821,1.018c0.353,0.136,0.818-0.15,1.012,0.322c0.989-0.349,1.941-0.654,2.839-1.181
		c0.222-0.623,0.582-1.234,0.988-1.8c0.479-0.667,0.835-1.363,1.068-2.153c0.214-0.725,0.62-1.367,1.204-1.862
		c0.086-0.465-0.079-0.883-0.146-1.318c-0.06-0.389,0.166-0.846,0.337-1.242c0.172-0.399,0.432-0.76,0.705-1.227
		c0-1.115-0.014-2.334,0.005-3.553c0.012-0.801-0.165-1.623,0.238-2.366c0.18-0.213,0.359-0.427,0.482-0.573
		c0.224-0.047,0.316,0.015,0.37,0.106c0.205,0.346,0.399,0.699,0.634,1.114c-0.087,1.013,0.278,2.01,0.69,2.977
		c0.102,0.237,0.168,0.444,0.171,0.685c0.005,0.503,0.05,1.013-0.009,1.509c-0.123,1.034,0.197,2.024,0.262,3.039
		c0.037,0.571,0.383,1.134,0.47,1.737c0.013,0.086,0.173,0.127,0.144,0.263c-0.157,0.713,0.301,1.353,0.229,2.07
		c-0.067,0.677,0.12,1.4-0.045,2.041c-0.263,1.021-0.119,2.034-0.201,3.111c0.271,0.214,0.499,0.511,0.657,1.056
		c0,0.234,0,0.665,0,1.168c-0.065,0.055-0.193,0.131-0.282,0.24c-0.685,0.824-1.588,0.819-2.485,0.568
		c-0.321-0.089-0.694-0.194-0.909-0.079c-0.515,0.276-1.03,0.179-1.544,0.182c-2.266,0.015-4.532-0.021-6.798,0.017
		c-1.239,0.021-2.442-0.31-3.689-0.262c-0.532,0.021-1.112-0.239-1.647-0.418c-0.657-0.221-1.308-0.185-1.968-0.194
		c-0.288-0.004-0.575-0.001-0.863-0.001c-0.409,0.488-0.973,0.62-1.566,0.644c-0.667,0.026-1.083-0.334-1.353-1.144
		c0-2.015,0-4.241,0-6.467c0-0.672,0.319-1.229,0.648-1.847c0-0.511,0.035-1.089-0.008-1.661c-0.058-0.78,0.33-1.494,0.242-2.287
		c-0.083-0.747-0.115-1.525,0.007-2.26c0.157-0.95,0.311-1.945,0.858-2.763c0.335-0.502,0.433-0.996,0.416-1.561
		C25.836,10.968,25.848,10.465,25.848,9.981z"/>
	<path fill="currentColor" d="M38.048,36.983c-0.717-0.465-1.346-0.774-2.096-0.769
		c-0.864,0.006-1.731-0.048-2.59,0.017c-0.726,0.055-1.438,0.289-2.179,0.199c-0.302-0.037-0.638,0.125-0.902-0.187
		c-0.062-0.073-0.285,0.015-0.41-0.034c-0.428-0.167-0.748,0.491-1.177,0.148c-0.387-0.31-0.831-0.045-1.217-0.177
		c-0.494-0.155-0.805-0.543-1.173-0.918c0-0.323,0-0.676,0-1.099c0.227-0.18,0.506-0.401,0.785-0.622
		c2.376-0.82,4.839-1.276,7.465,0.127c0.154,0.054,0.549-0.175,0.913,0.135c0.168,0.143,0.576,0.106,0.834,0.023
		c1.218-0.392,2.468-0.085,3.693-0.216c0.56-0.06,1.105,0.564,1.658,0.013c0.575,0,1.151,0.012,1.728-0.003
		c0.539-0.015,0.969,0.259,1.447,0.392c0,0.446,0,0.799,0,1.195c-0.138,0.21-0.16,0.626-0.456,0.709
		c-0.418,0.118-0.812,0.339-1.283,0.311c-0.622-0.038-1.248-0.052-1.858,0.19c-0.259,0.103-0.431,0.204-0.48,0.473
		c0.313,0.459,0.848,0.323,1.268,0.49c0.477,0.19,0.898,0.149,1.395-0.014c0.768-0.252,1.39,0.133,1.91,0.733
		c-0.183,0.942-0.813,1.491-1.581,1.938c-0.209,0.121-0.417,0.061-0.622,0.061c-3.671,0.007-7.342,0.005-11.014,0.005
		c-1.18-0.304-2.384-0.217-3.582-0.208c-0.27,0.002-0.381-0.318-0.692-0.246c0-0.317,0-0.633,0-0.976
		c0.377-0.263,0.838-0.33,1.338-0.305c0.574,0.028,1.154-0.027,1.727,0.015c0.753,0.056,1.441-0.164,2.042-0.543
		c0.452-0.285,0.89-0.34,1.38-0.331c0.468,0.008,0.94,0.04,1.403-0.007C36.46,37.428,37.199,37.316,38.048,36.983z"/>
	<path fill="currentColor" d="M38.53,18.296c-0.407-0.16-0.732,0.117-0.994,0.244
		c-0.686,0.331-1.464,0.255-2.126,0.608c-0.306,0.163-0.495-0.205-0.772-0.213c-0.412-0.013-0.805,0.014-1.214-0.2
		c-1.248-0.65-2.573-1.153-3.684-2.055c-0.502-0.408-0.746-0.979-1.061-1.565c-0.19-0.868,0.226-1.525,0.858-2.167
		c0.599-0.607,1.352-1.021,1.916-1.66c0.174-0.197,1.435-0.557,1.815-0.559c1.043-0.006,2.088-0.032,3.13,0.01
		c0.504,0.021,1.037,0.095,1.494,0.292c0.499,0.215,1.091,0.364,1.308,1.025c0.061,0.188,0.19,0.541,0.361,0.578
		c0.284,0.062,0.401,0.269,0.592,0.409c0.135,0.1,0.328,0.059,0.451,0.225c0.148,0.2,0.35,0.361,0.554,0.565
		c0,0.542,0,1.111,0,1.746C40.673,16.806,39.23,17.19,38.53,18.296z M35.979,16.014c-0.223-0.37,0.348-0.613,0.254-1.083
		c-0.082-0.414-0.017-0.856-0.017-1.285c-0.132-0.723-0.803-0.729-1.331-0.996c-0.346,0.245-0.791,0.377-1.04,0.801
		c-0.03,1.214-0.164,2.494,1.294,3.128C35.379,16.365,35.734,16.374,35.979,16.014z"/>
	<path style="fill-rule:evenodd;clip-rule:evenodd;fill:none;" d="M35.979,16.014c-0.245,0.36-0.6,0.352-0.839,0.564
		c-1.458-0.634-1.324-1.914-1.294-3.128c0.249-0.424,0.694-0.556,1.04-0.801c0.528,0.267,1.198,0.273,1.331,0.996
		c0,0.429-0.065,0.872,0.017,1.285C36.327,15.401,35.756,15.644,35.979,16.014z"/>
</g>
</svg>
