<?xml version="1.0" encoding="iso-8859-1"?>
<!-- Generator: Adobe Illustrator 16.0.0, SVG Export Plug-In . SVG Version: 6.00 Build 0)  -->
<!DOCTYPE svg PUBLIC "-//W3C//DTD SVG 1.1//EN" "http://www.w3.org/Graphics/SVG/1.1/DTD/svg11.dtd">
<svg version="1.1" id="Layer_1" xmlns="http://www.w3.org/2000/svg" xmlns:xlink="http://www.w3.org/1999/xlink" x="0px" y="0px"
	 width="72.36px" height="72.18px" viewBox="0 0 72.36 72.18" style="enable-background:new 0 0 72.36 72.18;" xml:space="preserve"
	>
<g>
	<path style="fill-rule:evenodd;clip-rule:evenodd;fill:none;" d="M-6.984-6.984c28.8,0,57.6,0,86.399,0c0,28.872,0,57.744,0,86.615
		c-28.8,0-57.6,0-86.399,0C-6.984,50.76-6.984,21.888-6.984-6.984z M63.648,44.767c0-0.38,0-0.739,0-1.083
		c0.149-0.168,0.366-0.306,0.418-0.489c0.155-0.553,0.472-1.037,0.703-1.545c0.293-0.646,0.516-1.299,0.728-1.969
		c0.067-0.211,0.171-0.446,0.042-0.577c-0.284-0.288-0.176-0.621-0.144-0.909c0.039-0.351-0.302-0.54-0.243-0.886
		c0.133-0.784-0.12-1.491-0.532-2.162c-0.426-0.145-0.861-0.388-1.312-0.421c-0.691-0.051-1.383-0.022-2.007-0.327
		c-0.146-0.438,0.172-0.92-0.237-1.328c-0.352-0.35-0.169-0.898-0.412-1.339c-0.267-0.485-0.393-1.083-0.438-1.643
		c-0.048-0.569-0.314-0.965-0.678-1.358c0-0.348,0-0.706,0-1.049c-0.708-1.152-1.084-1.393-2.119-1.35
		c-0.464,0.66-0.761,1.4-0.93,2.253c-0.142,0.135-0.323,0.309-0.42,0.402c-0.888,0.035-0.853-0.7-1.032-1.199
		c-0.115-0.319-0.188-0.668-0.414-0.904c-0.436-0.454-0.666-1.054-1.151-1.396c0.336-1.087,1.2-1.59,2.432-1.358
		c0.452,0.233,0.81,0.418,1.23,0.635c0.353,0,0.783,0,1.207,0c0.18-0.179,0.356-0.356,0.545-0.544
		c0.018-1.132,0.011-1.128-0.578-2.105c-0.104-0.173-0.132-0.4,0.034-0.573c0.879-0.136,1.423,0.573,2.129,0.762
		c0.221,0.44,0.415,0.827,0.557,1.109c-0.217,0.82-0.78,1.349-1.055,2.029c0.193,0.439,0.362,0.875,0.572,1.29
		c0.328,0.647,0.664,1.284,0.52,1.931c0.211,0.481,0.416,0.842,0.813,1.09c0.83-0.065,1.646-0.253,1.946-1.177
		c0.457-1.408,0.427-1.89-0.561-2.794c-0.18-0.165-0.346-0.344-0.502-0.5c0.249-0.563,0.318-1.179,0.17-1.342
		c-0.133-0.171-0.307-0.273-0.561-0.312c-0.2-1.113-0.814-2.089-1.156-3.157c-0.465-0.041-0.614-0.474-0.906-0.654
		c-0.468-0.088-0.896-0.019-1.359-0.19c-0.5-0.185-1.182-0.169-1.685,0.021c-0.61,0.231-1.195,0.154-1.771,0.119
		c-0.454-0.027-0.888-0.337-1.155-0.822c0-0.181,0-0.39,0-0.628c-0.706-0.338-1.456-0.609-1.901-1.229
		c-0.09-0.303,0.319-0.358,0.198-0.62c-0.253-0.356-0.664-0.449-1.032-0.617c-0.084-0.561-0.548-0.914-0.779-1.401
		c-0.165-0.345-0.19-0.575,0.097-0.824c0.071-0.063,0.127-0.143,0.188-0.214c-0.217-0.217-0.421-0.421-0.662-0.663
		c0-0.78,0-1.598,0-2.274c-0.543-0.543-0.998-0.998-1.495-1.496c-0.215,0-0.498,0-0.782,0c-0.489-0.643-1.113-0.943-1.923-0.854
		c-0.297,0.032-0.625,0.08-0.869-0.186c-1.276,0.564-1.276,0.564-2.066,1.876c-0.304-0.05-0.503,0.389-0.901,0.26
		c-0.372,0.479-0.845,0.166-1.097-0.026c-0.682-0.521-1.526-0.497-2.264-0.811c-0.266-0.113-0.643-0.011-1,0.141
		c-0.509,0.215-0.884,0.622-1.334,0.778c-0.397,0.571-0.268,1.176-0.273,1.704c0.188,0.303,0.25,0.635,0.532,0.803
		c0.221,0,0.442,0.028,0.65-0.011c0.118-0.022,0.169-0.231,0.346-0.202c0.776,0.457,1.635,0.619,2.521,0.688
		c0.092,0.116,0.205,0.213,0.259,0.337c0.159,0.366,0.372,0.732,0.418,1.117c0.063,0.531,0.344,0.884,0.69,1.232
		c0.571,0.573,1.187,1.109,1.604,1.817c0.867,0.332,1.111,1.129,1.385,1.891c0.051,0.141,0.108,0.248,0.212,0.353
		c0.468,0.24,0.944,0.484,1.508,0.773c0.326,0,0.789,0.102,1.179-0.023c0.596-0.191,1.447-0.144,1.46-1.152
		c0.002-0.121,0.161-0.356,0.295-0.569c1.129,1.233,1.828,2.799,3.12,3.764c0.085,0.58-0.306,0.755-0.543,0.996
		c-0.346,0.049-0.673-0.08-0.955,0.1c0,0.75,0.009,1.47-0.002,2.19c-0.012,0.734,0.414,1.418,0.223,2.069
		c0.243,0.471,0.565,0.842,0.615,1.247c0.075,0.612,0.47,1.039,0.697,1.554c0.249,0.565,0.771,0.861,1.426,0.842
		c0.212-0.006,0.424-0.001,0.666-0.001c0.344-0.364,0.688-0.729,1.012-1.071c0.176,0,0.317,0,0.443,0
		c0.468,0.638,0.379,1.291,0.085,1.888c0.173,0.577,0.57,0.922,0.896,1.246c-0.064,0.581,0.213,0.991,0.349,1.441
		c0.136,0.45,0.569,0.781,0.494,1.368c-0.17,0.154-0.346,0.433-0.586,0.511c-0.782,0.257-1.237,0.831-1.563,1.42
		c-1.084,0.479-2.069,0.428-3.042-0.137c-0.185,0.063-0.293,0.293-0.543,0.255c-0.196-0.029-0.382,0.036-0.59,0.13
		c-0.48,0.219-0.909,0.604-1.518,0.531c-0.187-0.022-0.452,0.173-0.597,0.341c-0.351,0.41-0.821,0.623-1.288,0.816
		c-0.31,0.128-0.516,0.341-0.743,0.55c-0.864,0.792-1.473,1.813-2.36,2.59c-0.57,0.499-0.948,1.151-1.242,1.856
		c-0.063,0.153-0.213,0.273-0.176,0.466c0.125,0.663-0.216,1.201-0.514,1.729c-0.119,0.209-0.116,0.391-0.137,0.613
		c-0.355,0.255-0.558,0.723-1.053,0.807c-0.079,0.558-0.231,1.047-0.582,1.511c-0.174,0.23-0.455,0.454-0.513,0.747
		c-0.209,1.063-0.883,2.031-0.631,3.149c-0.344,0.359-0.719,0.636-0.865,1.308c0,0.096,0,0.409,0,0.694
		c0.333,0.333,0.639,0.638,0.92,0.92c1.417,0.18,2.659-0.268,3.82-0.971c1.118-0.678,2.239-1.346,3.406-1.895
		c0.159-0.516,0.388-0.959,0.884-1.215c1.127-0.581,2.159-1.337,3.374-1.76c0.375-0.131,0.746-0.372,0.946-0.732
		c0.035-0.471,0.21-0.889,0.306-1.315c0.055-0.244,0.171-0.632,0.609-0.757c0.304-0.087,0.654-0.401,0.769-0.697
		c0.473-1.226,1.32-2.249,1.791-3.47c0.021-0.053,0.101-0.083,0.163-0.132c0.256,0.148,0.578,0.179,0.792,0.429
		c0.181,0.352,0.364,0.708,0.554,1.077c0.058,0.827-0.184,1.604-0.511,2.363c-0.308,0.027-0.557,0.225-0.863,0.29
		c-0.245,0.053-0.766,0.128-0.775,0.572c-0.015,0.677-0.504,1.034-0.864,1.423c-0.208,0.968-0.266,1.032-1.021,1.456
		c-0.355,0.2-0.738,0.382-0.958,0.826c0,0.164,0,0.373,0,0.559c-0.583,0.583-1.143,1.143-1.661,1.661
		c-0.213,0.619,0.154,1.121,0.193,1.677c0.041,0.574-0.389,1.059-0.221,1.606c0.112,0.121,0.21,0.226,0.308,0.331
		c0.367,0.233,0.547-0.325,0.881-0.205c0.103,0.102,0.204,0.203,0.272,0.271c-0.289,0.82-0.697,1.543-1.233,2.218
		c-0.202,0.254-0.455,0.72-0.149,1.153c0.264-0.031,0.55,0.123,0.797-0.119c0.541-0.531,1.372-0.571,1.907-1.15
		c0.238-0.258,0.68-0.292,0.931-0.604c0.244-0.304,0.605-0.476,0.841-0.817c0.249-0.362,0.666-0.599,1.014-0.881
		c0.408-0.332,0.949-0.401,1.302-0.806c0.274-0.313,0.384-0.748,0.755-0.987c0.087-0.056,0.096-0.197,0.146-0.257
		c0.599-0.701,0.972-1.622,1.944-1.966c-0.044-0.488-0.038-0.972,0.365-1.237c0.239-0.157,0.393-0.279,0.521-0.557
		c0.185-0.397,0.529-0.721,0.854-1.138c0-0.243,0-0.557,0-0.81c0.23-0.363,0.694-0.316,0.844-0.699
		c-0.017-0.535-0.056-1.096,0.328-1.566c0.101-0.012,0.219,0.038,0.292-0.088c0-0.309,0-0.621,0-0.89
		c-0.398-0.521-0.976-0.513-1.527-0.593C62.726,46.074,62.917,45.274,63.648,44.767z M10.955,28.871
		c-0.178-0.029-0.226,0.205-0.342,0.207c-0.659,0.01-0.97,0.32-0.982,0.981c-0.001,0.08-0.157,0.293-0.367,0.283
		c-0.173-0.515,0.195-0.84,0.385-1.222c0-1.652,0-1.652-0.979-2.632c-0.047,0.053-0.085,0.131-0.144,0.154
		c-0.742,0.283-1.036,0.839-1.041,1.607c-0.004,0.695-0.318,1.298-0.643,1.891c0,0.396,0,0.792,0,1.243
		c0.269,0.097,0.425,0.371,0.695,0.551c0.285,0.19,0.648,0.03,0.879,0.361c0.283,0.038,0.193,0.377,0.319,0.576
		c0.162,0.254,0.035,0.655,0.255,0.97c0.167,0.24-0.194,0.42-0.2,0.659c-0.003,0.133-0.041,0.268,0.075,0.401
		c0.233,0.269,0.156,0.567,0.043,0.874c-0.183,0.498-0.249,0.631-0.834,1.254c-0.105,0.111-0.1,0.277-0.165,0.36
		c-0.591,0.763-0.429,1.701-0.628,2.551c-0.182,0.775,0.297,1.494,0.229,2.259c0.596,0.437,0.795,1.189,1.413,1.566
		c0.428,0,0.857,0,1.183,0c0.329-0.289,0.597-0.524,0.872-0.766c-0.495-1.264-1.172-2.461-0.857-3.847
		c-0.517-0.435-0.791-0.924-0.636-1.684c0.352,0.176,0.684,0.002,1.1,0.164c0.564,0.22,1.262,0.233,1.857-0.022
		c0.395-0.169,0.862-0.202,1.125-0.061c0.412,0.222,0.822,0.092,1.244,0.225c0.313,0.537,0.61,1.104,0.963,1.637
		c0.323,0.488,0.461,0.979,0.278,1.592c-0.496-0.211-0.865,0.255-1.327,0.181c-0.993,0.992-1.983,1.987-2.979,2.977
		c-0.996,0.989-2.226,1.71-3.177,2.756c0.018,0.24,0.035,0.485-0.168,0.627c0.206,0.495,0.48,0.925,0.827,1.024
		c0.578,0.426,0.286,0.989,0.623,1.4c0.335,0.409,0.521,0.927,0.669,1.446c0.054,0.188,0.146,0.397,0.286,0.523
		c0.793,0.71,1.001,1.752,1.55,2.627c1.003,0.423,1.003,0.423,1.197,1.48c0.131,0.118,0.293,0.376,0.508,0.435
		c0.498,0.135,0.688,0.592,1.051,0.858c0.206,0.15,0.131,0.47,0.379,0.602c0.208,0.11,0.414,0.225,0.612,0.36
		c0.347,0.236,0.688,0.466,0.968,0.78c0.498,0.558,1.085,0.842,1.847,0.612c0.007-0.191,0.063-0.361-0.036-0.529
		c-0.375-0.639-0.84-1.189-1.492-1.568c-0.147-0.086-0.317-0.192-0.39-0.333c-0.346-0.668-0.857-1.229-1.214-1.876
		c-0.309-0.559-0.687-1.172-0.437-1.991c0.588,1.065,1.489,1.71,2.155,2.461c0.245,0.017,0.381,0.026,0.531,0.037
		c0.651,0.975,1.793,1.331,2.541,2.131c0.297,0.05,0.516-0.029,0.685-0.276c0.16-0.302-0.066-0.682,0.126-1.005
		c0.229,0,0.443,0,0.742,0c0.098,0.112,0.246,0.269,0.378,0.437c0.146,0.186,0.158,0.46,0.383,0.599
		c0.18,0.108,0.387,0.043,0.593,0.13c0.708,0.296,1.641,0.134,1.871-0.396c0.237-0.546,0.683-0.726,1.064-0.967
		c0.466,0,0.892,0,1.29,0c0.153,0.153,0.271,0.292,0.409,0.406c0.58,0.478,1.32,0.646,1.995,0.598
		c0.458-0.032,0.959-0.078,1.422-0.184c0.688-0.156,1.447-0.297,1.848-0.965c0.134-0.223,0.271-0.459,0.333-0.751
		c0.368,0.603,0.018,1.101-0.124,1.561c-0.253,0.82-0.753,1.552-1.607,1.88c-0.217,0.083-0.364,0.195-0.508,0.336
		c-1.074,1.061-1.488,2.461-2.016,3.774c0.438,0.433,0.438,0.433,1.151,0.356c0.402-0.717,0.914-1.345,1.747-1.647
		c0.185-0.066,0.38-0.23,0.473-0.403c0.395-0.729,0.994-1.261,1.596-1.806c0.734-0.664,1.191-1.586,1.933-2.121
		c0.207-0.692,0.554-1.318-0.08-1.914c-0.578-0.088-0.944-0.574-1.364-0.983c0-0.505,0-1.009-0.001-1.513
		c-0.28-0.279-0.567-0.554-0.838-0.842c-0.236-0.25-0.445-0.539-0.448-0.89c-0.005-0.62-0.357-1.023-0.771-1.395
		c-0.248-0.045-0.507,0.087-0.65-0.105c-0.515-0.374-0.224-0.923-0.349-1.368c-0.785-0.068-1.33-0.479-1.675-1.106
		c-0.127-0.231-0.289-0.494-0.465-0.539c-0.519-0.134-0.603-0.619-0.881-0.927c-0.449-0.12-0.911-0.126-1.144-0.665
		c-0.128-0.297-0.533-0.48-0.863-0.453c-0.299,0.024-0.379-0.367-0.667-0.244c-0.531-0.56-1.292-0.714-1.917-1.097
		c-0.501-0.307-0.987-0.46-1.565-0.4c-0.271-0.523-0.891-0.508-1.259-0.87c-0.411-0.404-0.784-0.854-1.234-1.206
		c-0.277-0.217-0.643-0.354-0.993-0.345c-0.104-0.379-0.238-0.681-0.284-1.03c-0.115-0.884-0.324-1.741-1.103-2.354
		c-0.342-0.27-0.725-0.544-0.865-1.038c-0.148-0.522-0.606-0.848-0.983-1.208c-0.314-0.3-1.478-0.731-1.673-0.565
		c-0.365,0.311-0.742,0.104-1.071,0.189c-0.112-0.112-0.188-0.188-0.298-0.297c0-0.278,0-0.593,0-0.861
		c0.273-0.709,0.81-1.107,1.428-1.45c0.591-0.327,1.285-0.623,1.665-1.133c0.429-0.575,0.978-1.01,1.272-1.398
		c0.29-0.782,0.407-1.412,0.764-1.917c0-0.528,0-1.027,0-1.503c-0.403-0.403-0.785-0.785-1.167-1.167
		c-0.241,0.031-0.496-0.072-0.729,0.073c-0.213,0.791-0.488,1.568-0.461,2.403c-0.604,0.521-0.671,1.468-1.432,1.815
		c-0.721,0.058-1.122,0.944-1.965,0.626C11.922,29.537,11.55,29.06,10.955,28.871z M33.462,17.802
		c0.928,0.316,1.805,0.424,2.677,0.052c0.813-0.347,1.655-0.655,2.209-1.391c0.15-0.599,0.404-1.188,0.151-1.856
		c-0.205-0.121-0.438-0.259-0.71-0.42c-0.235,0-0.521,0-0.808,0c-0.667,0.552-1.126,1.483-2.238,1.257
		c-0.022-0.459-0.364-0.566-0.612-0.675c-0.458-0.768-0.69-1.575-0.92-2.367c-0.248-0.849-0.574-1.606-1.27-2.175
		c-0.041-0.034-0.033-0.127-0.082-0.352c0.046-0.025,0.164-0.13,0.298-0.159c0.81-0.178,1.616-0.399,2.482-0.267
		c0.244-0.429,0.641-0.817,1.035-0.839c0.627-0.034,1.079-0.377,1.58-0.552c0.123-0.478,0.753-0.759,0.438-1.319
		c-0.169-0.187-0.338-0.372-0.494-0.544c-1.044-0.073-2.027,0.262-3.06,0.25c-1.011-0.013-1.989,0.511-2.984,0.389
		c-0.875,0.76-1.311,1.743-1.776,2.677c-0.21,0.421-0.221,0.827-0.842,0.831c-0.159,0.001-0.487,0.292-0.524,0.61
		c-0.025,0.21-0.188,0.342-0.32,0.397c-0.643,0.271-1.304,0.498-2.085,0.788c-0.537,0.771-1.582,1.242-2.119,2.209
		c-0.142,0.438,0.142,0.771,0.318,1.134c0.675,0.115,1.048,0.648,1.443,1.021c0.805,0.253,1.495-0.159,2.234-0.172
		c0.169-0.168,0.347-0.346,0.525-0.524c-0.101-0.381,0.192-0.638,0.3-0.95c0.628-0.126,1.275-0.222,1.824-0.548
		c0.416-0.248,0.646-0.087,0.915,0.217c-0.142,0.719,0.224,1.307,0.597,1.88c0.178,0.273,0.443,0.457,0.799,0.377
		C32.779,17.119,33.109,17.449,33.462,17.802z M19.472,11.811c-0.283-0.033-0.479,0.05-0.684,0.236
		c-0.411,0.372-0.685,0.915-1.274,1.075c-0.822,0.917-1.867,1.635-2.465,2.7c0,1.276,0.006,1.27,0.882,2.168
		c0.238,0.244,0.584,0.417,0.651,0.791c-0.783,0.833-1.345,1.879-2.595,2.159c-0.627,0.771-1.479,1.456-1.324,2.503
		c0.246,0.543,0.448,0.944,0.936,1.141c0.708-0.625,1.709-0.28,2.495-0.749c0.071-0.315,0.318-0.585,0.288-0.95
		c0.955-0.844,1.582-1.987,2.594-2.773c-0.215-0.71,0.41-1.308,0.117-1.967c-0.329-0.719-1.315-0.417-1.714-1.185
		c0.346-0.282,0.311-0.856,0.699-1.142c0.482-0.356,0.999-0.737,1.561-0.897c0.716-0.205,1.485-0.391,2.189-0.08
		c0.939-0.853,1.573-1.855,2.388-2.88c-0.489-0.094-0.223-0.498-0.379-0.747c-0.602-0.873-1.454-1.054-2.41-0.875
		C20.575,10.566,20.058,11.247,19.472,11.811z M25.007,22.712c0.812-0.444,1.637-0.642,1.961-1.532
		c0.067-0.183,0.266-0.385,0.449-0.448c0.87-0.299,0.946-1.049,0.767-1.691c-0.17-0.611-0.091-1.23-0.209-1.778
		c-0.982-0.257-1.844,0.229-2.764,0.2c-0.285-0.009-0.759,0.155-0.905,0.685c-0.102,0.369-0.263,0.75-0.394,1.124
		c-0.335,0.963-0.878,1.388-1.873,1.392c-0.428,0.002-0.856,0-1.212,0c-0.234,0.208-0.421,0.375-0.583,0.52
		c-0.093,0.861,0.245,1.557,0.658,2.243c1.116,0.25,2.222,0.443,3.282,0.491C24.646,23.565,24.879,23.155,25.007,22.712z
		 M10.12,21.302c-0.079,1.265-0.842,2.134-1.751,2.879c-0.042,0.585-0.07,1.137,0.282,1.647c0.228,0,0.468,0,0.717,0
		c0.229-0.353,0.592-0.561,0.786-0.975c0.139-0.297,0.443-0.596,0.845-0.75c0.655-0.25,1.158-0.72,1.452-1.486
		c0.01-1.028,0.01-1.028-0.508-1.712c-0.39,0-0.774,0-1.123,0C10.596,21.075,10.496,21.356,10.12,21.302z M62.59,32.54
		c0.455-0.27,0.507-0.543,0.339-0.811c-0.227-0.36-0.597-0.288-0.717-0.269c-0.567,0.206-0.586,0.518-0.471,0.779
		C61.922,32.646,62.332,32.546,62.59,32.54z M54.604,14.642c-0.157,0.669,0.487,0.975,0.666,1.47c0.231-0.024,0.46,0.14,0.644-0.195
		c-0.419-0.167-0.098-0.682-0.513-0.998C55.151,14.996,55.027,14.542,54.604,14.642z M29.052,64.947
		c0.021-0.325,0.127-0.614-0.107-0.93c-0.24,0.13-0.447,0.225-0.508,0.5C28.514,64.753,28.642,64.938,29.052,64.947z"/>
	<path fill="currentColor" d="M63.648,44.767c-0.731,0.508-0.922,1.308-1.12,2.191
		c0.552,0.08,1.129,0.072,1.527,0.593c0,0.269,0,0.581,0,0.89c-0.073,0.126-0.191,0.076-0.292,0.087
		c-0.384,0.472-0.345,1.032-0.328,1.567c-0.149,0.383-0.613,0.336-0.844,0.699c0,0.253,0,0.566,0,0.81
		c-0.325,0.417-0.67,0.74-0.854,1.138c-0.129,0.277-0.282,0.399-0.521,0.557c-0.403,0.266-0.409,0.749-0.365,1.237
		c-0.973,0.344-1.346,1.265-1.944,1.966c-0.05,0.06-0.059,0.201-0.146,0.257c-0.371,0.239-0.48,0.674-0.755,0.987
		c-0.353,0.404-0.894,0.474-1.302,0.806c-0.348,0.282-0.765,0.519-1.014,0.881c-0.235,0.342-0.597,0.514-0.841,0.817
		c-0.251,0.313-0.692,0.347-0.931,0.604c-0.535,0.579-1.366,0.619-1.907,1.15c-0.247,0.242-0.533,0.088-0.797,0.119
		c-0.306-0.434-0.053-0.899,0.149-1.153c0.536-0.675,0.944-1.397,1.233-2.218c-0.068-0.068-0.17-0.17-0.272-0.271
		c-0.334-0.12-0.514,0.438-0.881,0.205c-0.098-0.105-0.195-0.21-0.308-0.331c-0.168-0.548,0.262-1.032,0.221-1.606
		c-0.039-0.556-0.406-1.058-0.193-1.677c0.519-0.519,1.078-1.078,1.661-1.661c0-0.186,0-0.395,0-0.559
		c0.22-0.444,0.603-0.626,0.958-0.826c0.755-0.424,0.813-0.488,1.021-1.456c0.36-0.389,0.85-0.746,0.864-1.423
		c0.01-0.444,0.53-0.52,0.775-0.572c0.307-0.065,0.556-0.263,0.863-0.29c0.327-0.759,0.568-1.536,0.511-2.363
		c-0.189-0.369-0.373-0.726-0.554-1.077c-0.214-0.25-0.536-0.28-0.792-0.429c-0.063,0.049-0.143,0.079-0.163,0.132
		c-0.471,1.221-1.318,2.244-1.791,3.47c-0.114,0.296-0.465,0.61-0.769,0.697c-0.438,0.125-0.555,0.513-0.609,0.757
		c-0.096,0.427-0.271,0.845-0.306,1.315c-0.2,0.36-0.571,0.602-0.946,0.732c-1.215,0.423-2.247,1.179-3.374,1.76
		c-0.496,0.256-0.725,0.699-0.884,1.215c-1.167,0.549-2.288,1.217-3.406,1.895c-1.161,0.703-2.403,1.15-3.82,0.971
		c-0.281-0.282-0.587-0.587-0.92-0.92c0-0.285,0-0.599,0-0.694c0.146-0.672,0.521-0.948,0.865-1.308
		c-0.252-1.118,0.422-2.086,0.631-3.149c0.058-0.293,0.339-0.517,0.513-0.747c0.351-0.464,0.503-0.953,0.582-1.511
		c0.495-0.084,0.697-0.552,1.053-0.807c0.021-0.223,0.018-0.404,0.137-0.613c0.298-0.527,0.639-1.065,0.514-1.729
		c-0.037-0.192,0.112-0.313,0.176-0.466c0.294-0.705,0.672-1.357,1.242-1.856c0.888-0.776,1.496-1.798,2.36-2.59
		c0.228-0.209,0.434-0.422,0.743-0.55c0.467-0.193,0.938-0.406,1.288-0.816c0.145-0.168,0.41-0.363,0.597-0.341
		c0.608,0.073,1.037-0.313,1.518-0.531c0.208-0.094,0.394-0.159,0.59-0.13c0.25,0.038,0.358-0.192,0.543-0.255
		c0.973,0.564,1.958,0.616,3.042,0.137c0.325-0.589,0.78-1.163,1.563-1.42c0.24-0.079,0.416-0.357,0.586-0.511
		c0.075-0.586-0.358-0.918-0.494-1.368c-0.136-0.45-0.413-0.86-0.349-1.441c-0.326-0.323-0.724-0.668-0.896-1.246
		c0.294-0.597,0.383-1.25-0.085-1.888c-0.126,0-0.268,0-0.443,0c-0.323,0.342-0.668,0.707-1.012,1.071
		c-0.242,0-0.454-0.005-0.666,0.001c-0.654,0.02-1.177-0.276-1.426-0.842c-0.228-0.515-0.622-0.942-0.697-1.554
		c-0.05-0.405-0.372-0.776-0.615-1.247c0.191-0.651-0.234-1.335-0.223-2.069c0.011-0.72,0.002-1.439,0.002-2.19
		c0.282-0.179,0.609-0.05,0.955-0.1c0.237-0.24,0.628-0.416,0.543-0.996c-1.292-0.965-1.991-2.531-3.12-3.764
		c-0.134,0.213-0.293,0.448-0.295,0.569c-0.013,1.009-0.864,0.961-1.46,1.152c-0.39,0.125-0.853,0.023-1.179,0.023
		c-0.563-0.289-1.04-0.533-1.508-0.773c-0.104-0.104-0.161-0.212-0.212-0.353c-0.273-0.762-0.518-1.559-1.385-1.891
		c-0.418-0.708-1.033-1.245-1.604-1.817c-0.347-0.348-0.627-0.701-0.69-1.232c-0.046-0.384-0.259-0.751-0.418-1.117
		c-0.054-0.124-0.167-0.221-0.259-0.337c-0.886-0.07-1.744-0.232-2.521-0.688c-0.177-0.029-0.228,0.179-0.346,0.202
		c-0.208,0.04-0.429,0.011-0.65,0.011c-0.282-0.168-0.345-0.5-0.532-0.803c0.005-0.528-0.125-1.133,0.273-1.704
		c0.45-0.157,0.825-0.563,1.334-0.778c0.357-0.151,0.734-0.254,1-0.141c0.737,0.314,1.582,0.29,2.264,0.811
		c0.252,0.192,0.725,0.505,1.097,0.026c0.398,0.129,0.598-0.31,0.901-0.26c0.79-1.312,0.79-1.312,2.066-1.876
		c0.244,0.265,0.572,0.218,0.869,0.186c0.81-0.089,1.434,0.21,1.923,0.854c0.284,0,0.567,0,0.782,0
		c0.497,0.498,0.952,0.952,1.495,1.496c0,0.676,0,1.494,0,2.274c0.241,0.242,0.445,0.445,0.662,0.663
		c-0.062,0.071-0.117,0.151-0.188,0.214c-0.287,0.249-0.262,0.479-0.097,0.824c0.231,0.488,0.695,0.841,0.779,1.401
		c0.368,0.168,0.779,0.261,1.032,0.617c0.121,0.261-0.288,0.316-0.198,0.62c0.445,0.619,1.195,0.89,1.901,1.229
		c0,0.238,0,0.447,0,0.628c0.268,0.485,0.701,0.795,1.155,0.822c0.575,0.035,1.16,0.112,1.771-0.119
		c0.503-0.19,1.185-0.207,1.685-0.021c0.464,0.171,0.892,0.103,1.359,0.19c0.292,0.18,0.441,0.613,0.906,0.654
		c0.342,1.068,0.956,2.043,1.156,3.157c0.254,0.038,0.428,0.14,0.561,0.312c0.148,0.163,0.079,0.778-0.17,1.342
		c0.156,0.156,0.322,0.335,0.502,0.5c0.987,0.904,1.018,1.386,0.561,2.794c-0.301,0.924-1.116,1.112-1.946,1.177
		c-0.396-0.248-0.602-0.608-0.813-1.09c0.145-0.647-0.191-1.284-0.52-1.931c-0.21-0.415-0.379-0.851-0.572-1.29
		c0.274-0.68,0.838-1.209,1.055-2.029c-0.142-0.282-0.336-0.669-0.557-1.109c-0.706-0.189-1.25-0.898-2.129-0.762
		c-0.166,0.173-0.139,0.399-0.034,0.573c0.589,0.978,0.596,0.974,0.578,2.105c-0.188,0.188-0.365,0.365-0.545,0.544
		c-0.424,0-0.854,0-1.207,0c-0.421-0.217-0.778-0.401-1.23-0.635c-1.231-0.232-2.096,0.271-2.432,1.358
		c0.485,0.343,0.716,0.943,1.151,1.396c0.227,0.235,0.299,0.585,0.414,0.904c0.18,0.499,0.145,1.234,1.032,1.199
		c0.097-0.093,0.278-0.267,0.42-0.402c0.169-0.853,0.466-1.593,0.93-2.253c1.035-0.043,1.411,0.198,2.119,1.35
		c0,0.343,0,0.701,0,1.049c0.363,0.393,0.63,0.789,0.678,1.358c0.046,0.561,0.172,1.158,0.438,1.643
		c0.243,0.441,0.061,0.989,0.412,1.339c0.409,0.408,0.091,0.891,0.237,1.328c0.624,0.305,1.315,0.276,2.007,0.327
		c0.45,0.033,0.886,0.276,1.312,0.421c0.412,0.671,0.665,1.378,0.532,2.162c-0.059,0.346,0.282,0.535,0.243,0.886
		c-0.032,0.288-0.141,0.621,0.144,0.909c0.129,0.131,0.025,0.366-0.042,0.577c-0.212,0.67-0.435,1.322-0.728,1.969
		c-0.231,0.508-0.548,0.992-0.703,1.545c-0.052,0.184-0.269,0.321-0.418,0.489C63.648,44.027,63.648,44.387,63.648,44.767z
		 M43.569,54.025c0.584-0.633,1.339-1.241,2.178-1.751c0.541-0.328,1.035-0.729,1.436-1.222c0.408-0.503,1.067-0.756,1.361-1.359
		c0.35-0.719,0.803-1.333,1.516-1.73c0.091-0.051,0.167-0.141,0.229-0.228c0.564-0.792,1.132-1.582,1.834-2.263
		c-0.027-0.404,0.456-0.502,0.514-0.867c0.104-0.669,0.397-1.278,0.723-1.856c0.18-0.32,0.194-0.608,0.05-0.88
		c-0.204-0.383-0.293-0.844-0.74-1.161c-1.796,0.738-3.23,2.015-4.581,3.405c0,0.369,0,0.727,0,1.142
		c-0.885,0.335-1.314,1.109-1.725,1.911c-0.184,0.359-0.36,0.758-0.648,1.021c-1.258,1.146-2.081,2.67-3.345,3.807
		c-0.125,0.112-0.279,0.205-0.326,0.403c-0.125,0.526-0.52,0.877-0.843,1.188c-0.076,0.396,0.074,0.613,0.318,0.764
		C42.168,54.406,42.789,54.353,43.569,54.025z M44.001,13.876c0.459,0.412,0.835,0.997,1.521,1.167
		c0.792,0.197,1.453,0.578,1.936,1.255c-0.048,0.458-0.021,0.901,0.264,1.29c0.489,0.068,0.819,0.65,1.449,0.419
		c0.473-1.279,0.081-2.642,0.253-3.963c0.125-0.125,0.298-0.231,0.369-0.385c0.1-0.218,0.482,0.014,0.458-0.435
		c-0.386-0.532-1.029-0.911-1.665-1.162c-0.454-0.18-0.834-0.416-1.245-0.65c-0.597-0.34-1.143-0.963-2.004-0.621
		c-0.084,0.124-0.287,0.207-0.274,0.484c0.039,0.839-0.225,1.538-1.061,1.878C44.001,13.405,44.001,13.618,44.001,13.876z
		 M59.195,37.918c-0.203,0.937-1.031,1.428-1.6,2.104c0.153,0.707,0.361,0.913,1.376,1.379c1.34-0.77,2.11-2.004,2.79-3.333
		c-0.176-0.382-0.295-0.736-0.599-0.988c-0.216,0-0.431,0-0.659,0C60.222,37.498,59.72,37.59,59.195,37.918z M59.77,49.289
		c-0.563-0.074-0.62-0.005-0.592,0.825C59.402,49.785,59.761,49.687,59.77,49.289z"/>
	<path fill="currentColor" d="M10.955,28.871c0.596,0.188,0.967,0.666,1.342,1.03
		c0.844,0.317,1.245-0.569,1.965-0.626c0.761-0.347,0.828-1.295,1.432-1.815c-0.027-0.835,0.248-1.612,0.461-2.403
		c0.234-0.145,0.489-0.042,0.729-0.073c0.382,0.382,0.764,0.764,1.167,1.167c0,0.476,0,0.975,0,1.503
		c-0.357,0.505-0.474,1.136-0.764,1.917c-0.294,0.388-0.844,0.824-1.272,1.398c-0.38,0.51-1.074,0.806-1.665,1.133
		c-0.619,0.343-1.155,0.741-1.428,1.45c0,0.268,0,0.583,0,0.861c0.109,0.109,0.186,0.186,0.298,0.297
		c0.33-0.085,0.707,0.122,1.071-0.189c0.195-0.166,1.358,0.266,1.673,0.565c0.377,0.361,0.835,0.687,0.983,1.208
		c0.14,0.494,0.522,0.768,0.865,1.038c0.779,0.613,0.988,1.471,1.103,2.354c0.046,0.35,0.18,0.651,0.284,1.03
		c0.35-0.01,0.716,0.128,0.993,0.345c0.451,0.353,0.824,0.802,1.234,1.206c0.368,0.362,0.988,0.347,1.259,0.87
		c0.578-0.06,1.064,0.094,1.565,0.4c0.625,0.383,1.386,0.537,1.917,1.097c0.287-0.123,0.368,0.269,0.667,0.244
		c0.33-0.027,0.735,0.156,0.863,0.453c0.233,0.539,0.695,0.545,1.144,0.665c0.278,0.308,0.362,0.793,0.881,0.927
		c0.176,0.045,0.338,0.308,0.465,0.539c0.345,0.628,0.89,1.038,1.675,1.106c0.125,0.445-0.166,0.994,0.349,1.368
		c0.144,0.192,0.403,0.061,0.65,0.105c0.414,0.371,0.766,0.774,0.771,1.395c0.003,0.351,0.212,0.64,0.448,0.89
		c0.271,0.288,0.558,0.563,0.838,0.842c0,0.504,0,1.008,0,1.513c0.419,0.409,0.786,0.896,1.364,0.983
		c0.633,0.596,0.287,1.222,0.08,1.914c-0.741,0.535-1.198,1.457-1.933,2.121c-0.602,0.545-1.201,1.077-1.596,1.806
		c-0.093,0.173-0.289,0.337-0.473,0.403c-0.833,0.303-1.345,0.931-1.747,1.647c-0.713,0.076-0.713,0.076-1.151-0.356
		c0.528-1.313,0.941-2.714,2.016-3.774c0.144-0.141,0.291-0.253,0.508-0.336c0.854-0.328,1.354-1.06,1.607-1.88
		c0.142-0.46,0.492-0.958,0.124-1.561c-0.063,0.292-0.199,0.528-0.333,0.751c-0.401,0.668-1.159,0.809-1.848,0.965
		c-0.462,0.105-0.963,0.151-1.422,0.184c-0.675,0.048-1.416-0.12-1.995-0.598c-0.138-0.114-0.256-0.253-0.409-0.406
		c-0.398,0-0.823,0-1.29,0c-0.382,0.241-0.828,0.421-1.064,0.967c-0.23,0.53-1.163,0.692-1.871,0.396
		c-0.206-0.087-0.414-0.021-0.593-0.13c-0.226-0.139-0.237-0.413-0.383-0.599c-0.132-0.168-0.28-0.324-0.378-0.437
		c-0.298,0-0.512,0-0.742,0c-0.193,0.323,0.034,0.703-0.126,1.005c-0.169,0.247-0.388,0.326-0.685,0.276
		c-0.748-0.8-1.89-1.156-2.541-2.131c-0.15-0.011-0.287-0.021-0.531-0.037c-0.666-0.751-1.566-1.396-2.155-2.461
		c-0.25,0.819,0.127,1.433,0.437,1.991c0.357,0.646,0.868,1.208,1.214,1.876c0.073,0.141,0.243,0.247,0.39,0.333
		c0.651,0.379,1.116,0.93,1.492,1.568c0.099,0.168,0.043,0.338,0.036,0.529c-0.762,0.229-1.35-0.055-1.847-0.612
		c-0.281-0.314-0.622-0.544-0.968-0.78c-0.198-0.136-0.403-0.25-0.612-0.36c-0.249-0.132-0.173-0.451-0.379-0.602
		c-0.363-0.267-0.553-0.724-1.051-0.858c-0.215-0.059-0.377-0.316-0.508-0.435c-0.194-1.058-0.194-1.058-1.197-1.48
		c-0.549-0.875-0.756-1.917-1.55-2.627c-0.141-0.126-0.232-0.335-0.286-0.523c-0.149-0.52-0.334-1.037-0.669-1.446
		c-0.337-0.411-0.045-0.975-0.623-1.4c-0.347-0.1-0.622-0.529-0.827-1.024c0.203-0.142,0.186-0.387,0.168-0.627
		c0.951-1.046,2.181-1.767,3.177-2.756c0.996-0.989,1.986-1.984,2.979-2.977c0.462,0.074,0.831-0.392,1.327-0.181
		c0.184-0.612,0.045-1.104-0.278-1.592c-0.353-0.532-0.65-1.1-0.963-1.637c-0.422-0.133-0.832-0.003-1.244-0.225
		c-0.263-0.142-0.73-0.108-1.125,0.061c-0.595,0.256-1.293,0.242-1.857,0.022c-0.416-0.162-0.748,0.012-1.1-0.164
		c-0.155,0.76,0.119,1.249,0.636,1.684c-0.315,1.386,0.362,2.583,0.857,3.847c-0.275,0.241-0.543,0.477-0.872,0.766
		c-0.325,0-0.754,0-1.183,0c-0.618-0.377-0.817-1.13-1.413-1.566c0.067-0.765-0.411-1.483-0.229-2.259
		c0.199-0.85,0.038-1.788,0.628-2.551c0.065-0.083,0.06-0.249,0.165-0.36c0.585-0.623,0.651-0.756,0.834-1.254
		c0.113-0.307,0.19-0.605-0.043-0.874c-0.116-0.133-0.078-0.268-0.075-0.401c0.006-0.239,0.368-0.418,0.2-0.659
		c-0.22-0.315-0.093-0.716-0.255-0.97c-0.126-0.199-0.036-0.538-0.319-0.576c-0.231-0.331-0.595-0.171-0.879-0.361
		c-0.27-0.18-0.426-0.454-0.695-0.551c0-0.451,0-0.847,0-1.243c0.325-0.593,0.639-1.196,0.643-1.891
		c0.005-0.769,0.299-1.325,1.041-1.607c0.059-0.022,0.097-0.101,0.144-0.154c0.979,0.98,0.979,0.98,0.979,2.632
		c-0.19,0.382-0.558,0.707-0.385,1.222c0.21,0.01,0.366-0.203,0.367-0.283c0.013-0.662,0.324-0.972,0.982-0.981
		C10.729,29.076,10.777,28.842,10.955,28.871z M31.652,53.343c-0.548-0.468-1.088-1.001-1.417-1.655
		c-0.204-0.405-0.48-0.719-0.802-0.949c-0.655-0.472-1.151-1.063-1.678-1.663c-0.876-0.995-1.787-1.981-2.989-2.645
		c-0.249-0.138-0.563-0.246-0.771-0.502c-0.392-0.483-0.912-0.726-1.561-0.631c-0.463-0.902-0.943-1.742-1.882-2.131
		c-0.529,0-1.06,0-1.578,0c-0.177,0.807,0.139,1.386,0.693,1.885c0.416,0.375,0.808,0.775,0.777,1.475
		c0.099,0.084,0.269,0.177,0.364,0.32c0.382,0.573,0.763,1.1,1.499,1.31c0.275,0.078,0.426,0.466,0.558,0.825
		c0.192,0.525,0.089,1.182,0.744,1.698c0.176,0.133,0.729,0.121,0.874,0.507c0.312,0.828,1.006,1.283,1.627,1.779
		c0.621,0.495,1.31,0.918,2.087,1.201c0.585,0.213,1.243,0.098,1.766,0.42c0.671,0.415,1.161,0.126,1.689-0.283
		C31.652,53.995,31.652,53.682,31.652,53.343z M23.163,53.513c-0.691,0.02-1.111-0.362-1.398-0.965
		c-0.415-0.867-1.05-1.435-2.05-1.451c-0.202,0.201-0.379,0.379-0.541,0.541c0.201,0.456,0.69,0.555,1.033,0.841
		c0.387,0.323,0.5,0.84,0.901,1.141c0.113,0.085,0.187,0.248,0.309,0.294c0.816,0.302,1.356,0.945,1.949,1.525
		c0.526-0.018,0.952,0.303,1.435,0.426c0.123,0.032,0.287,0.056,0.395-0.099c0-0.133,0-0.274,0-0.495
		C24.422,54.854,23.824,54.157,23.163,53.513z M15.479,46.016c-0.414-0.206-0.554-0.951-1.252-0.678
		c-0.187,0.464,0.104,0.81,0.226,1.19c0.277,0.012,0.444,0.317,0.747,0.274c0.106-0.015,0.21-0.01,0.279-0.112
		C15.479,46.479,15.479,46.264,15.479,46.016z M18.042,42.174c-0.201-0.369-0.47-0.425-0.861-0.256
		c0.108,0.174-0.083,0.39,0.128,0.555C17.604,42.518,17.866,42.479,18.042,42.174z"/>
	<path fill="currentColor" d="M33.462,17.802c-0.353-0.353-0.683-0.683-1.021-1.021
		c-0.356,0.08-0.622-0.104-0.799-0.377c-0.373-0.574-0.738-1.161-0.597-1.88c-0.268-0.304-0.499-0.464-0.915-0.217
		c-0.549,0.326-1.195,0.421-1.824,0.548c-0.107,0.313-0.4,0.569-0.3,0.95c-0.178,0.178-0.355,0.356-0.524,0.524
		c-0.739,0.013-1.429,0.425-2.234,0.172c-0.395-0.374-0.768-0.906-1.443-1.021c-0.176-0.363-0.46-0.695-0.318-1.134
		c0.538-0.968,1.583-1.438,2.119-2.209c0.781-0.29,1.442-0.517,2.085-0.788c0.132-0.055,0.295-0.187,0.32-0.397
		c0.038-0.317,0.365-0.609,0.524-0.61c0.621-0.004,0.632-0.41,0.842-0.831c0.466-0.935,0.902-1.917,1.776-2.677
		c0.995,0.122,1.973-0.402,2.984-0.389c1.032,0.013,2.015-0.322,3.06-0.25c0.156,0.172,0.325,0.358,0.494,0.544
		c0.315,0.56-0.314,0.842-0.438,1.319c-0.501,0.175-0.953,0.518-1.58,0.552c-0.394,0.021-0.791,0.41-1.035,0.839
		c-0.866-0.133-1.672,0.089-2.482,0.267c-0.134,0.029-0.252,0.134-0.298,0.159c0.049,0.224,0.041,0.318,0.082,0.352
		c0.696,0.568,1.022,1.326,1.27,2.175c0.23,0.792,0.462,1.599,0.92,2.367c0.248,0.109,0.59,0.216,0.612,0.675
		c1.111,0.227,1.571-0.705,2.238-1.257c0.286,0,0.572,0,0.808,0c0.272,0.161,0.505,0.299,0.71,0.42
		c0.253,0.669-0.001,1.257-0.151,1.856c-0.555,0.736-1.396,1.044-2.209,1.391C35.268,18.226,34.391,18.118,33.462,17.802z"/>
	<path fill="currentColor" d="M19.472,11.811c0.586-0.564,1.103-1.245,1.956-1.471
		c0.957-0.179,1.809,0.001,2.41,0.875c0.156,0.25-0.11,0.653,0.379,0.747c-0.815,1.025-1.449,2.028-2.388,2.88
		c-0.705-0.311-1.473-0.125-2.189,0.08c-0.562,0.161-1.079,0.541-1.561,0.897c-0.388,0.286-0.353,0.86-0.699,1.142
		c0.399,0.768,1.385,0.466,1.714,1.185c0.292,0.659-0.333,1.256-0.117,1.967c-1.012,0.786-1.64,1.929-2.594,2.773
		c0.03,0.364-0.217,0.635-0.288,0.95c-0.786,0.469-1.787,0.124-2.495,0.749c-0.488-0.197-0.69-0.598-0.936-1.141
		c-0.154-1.048,0.697-1.733,1.324-2.503c1.25-0.28,1.813-1.326,2.595-2.159c-0.067-0.374-0.413-0.546-0.651-0.791
		c-0.875-0.898-0.882-0.892-0.882-2.168c0.599-1.065,1.644-1.782,2.465-2.7c0.59-0.16,0.863-0.703,1.274-1.075
		C18.993,11.861,19.188,11.778,19.472,11.811z"/>
	<path fill="currentColor" d="M25.007,22.712c-0.128,0.442-0.361,0.853-0.823,1.205
		c-1.06-0.048-2.166-0.242-3.282-0.491c-0.413-0.686-0.751-1.381-0.658-2.243c0.162-0.145,0.349-0.312,0.583-0.52
		c0.356,0,0.784,0.002,1.212,0c0.994-0.004,1.537-0.429,1.873-1.392c0.13-0.374,0.292-0.754,0.394-1.124
		c0.146-0.529,0.62-0.694,0.905-0.685c0.919,0.03,1.782-0.457,2.764-0.2c0.118,0.548,0.04,1.167,0.209,1.778
		c0.179,0.642,0.103,1.392-0.767,1.691c-0.183,0.063-0.382,0.265-0.449,0.448C26.644,22.071,25.819,22.268,25.007,22.712z"/>
	<path fill="currentColor" d="M10.12,21.302c0.376,0.054,0.476-0.227,0.699-0.396c0.348,0,0.733,0,1.123,0
		c0.518,0.684,0.518,0.684,0.508,1.712c-0.294,0.766-0.797,1.235-1.452,1.486c-0.402,0.154-0.706,0.453-0.845,0.75
		c-0.193,0.414-0.557,0.622-0.786,0.975c-0.249,0-0.489,0-0.717,0c-0.352-0.51-0.324-1.062-0.282-1.647
		C9.277,23.436,10.041,22.567,10.12,21.302z"/>
	<path style="fill-rule:evenodd;clip-rule:evenodd;fill:none;" d="M43.569,54.025c-0.78,0.327-1.4,0.381-2.05,0.323
		c-0.244-0.15-0.395-0.367-0.318-0.764c0.323-0.312,0.718-0.662,0.843-1.188c0.047-0.198,0.201-0.291,0.326-0.403
		c1.264-1.137,2.087-2.66,3.345-3.807c0.288-0.263,0.465-0.661,0.648-1.021c0.41-0.802,0.84-1.576,1.725-1.911
		c0-0.415,0-0.772,0-1.142c1.351-1.391,2.785-2.667,4.581-3.405c0.447,0.317,0.536,0.778,0.74,1.161
		c0.145,0.271,0.13,0.56-0.05,0.88c-0.325,0.578-0.618,1.188-0.723,1.856c-0.058,0.365-0.541,0.463-0.514,0.867
		c-0.702,0.681-1.27,1.471-1.834,2.263c-0.063,0.087-0.139,0.177-0.229,0.228c-0.713,0.397-1.166,1.012-1.516,1.73
		c-0.294,0.604-0.953,0.856-1.361,1.359c-0.4,0.493-0.895,0.894-1.436,1.222C44.908,52.784,44.153,53.393,43.569,54.025z"/>
	<path style="fill-rule:evenodd;clip-rule:evenodd;fill:none;" d="M44.001,13.876c0-0.258,0-0.471,0-0.722
		c0.836-0.34,1.1-1.039,1.061-1.878c-0.013-0.277,0.19-0.36,0.274-0.484c0.861-0.342,1.407,0.281,2.004,0.621
		c0.411,0.234,0.791,0.47,1.245,0.65c0.636,0.251,1.279,0.63,1.665,1.162c0.024,0.449-0.358,0.216-0.458,0.435
		c-0.071,0.153-0.244,0.259-0.369,0.385c-0.172,1.322,0.22,2.684-0.253,3.963c-0.63,0.231-0.96-0.351-1.449-0.419
		c-0.285-0.389-0.312-0.833-0.264-1.29c-0.482-0.677-1.144-1.058-1.936-1.255C44.836,14.873,44.46,14.288,44.001,13.876z"/>
	<path style="fill-rule:evenodd;clip-rule:evenodd;fill:none;" d="M59.195,37.918c0.525-0.328,1.027-0.42,1.309-0.839
		c0.229,0,0.443,0,0.659,0c0.304,0.252,0.423,0.606,0.599,0.988c-0.68,1.329-1.45,2.563-2.79,3.333
		c-1.015-0.466-1.223-0.672-1.376-1.379C58.164,39.346,58.992,38.854,59.195,37.918z"/>
	<path style="fill-rule:evenodd;clip-rule:evenodd;fill:none;" d="M59.77,49.289c-0.009,0.397-0.368,0.496-0.592,0.825
		C59.15,49.284,59.208,49.215,59.77,49.289z"/>
	<path style="fill-rule:evenodd;clip-rule:evenodd;fill:none;" d="M31.652,53.343c0,0.339,0,0.652,0,0.961
		c-0.528,0.409-1.018,0.698-1.689,0.283c-0.522-0.322-1.18-0.207-1.766-0.42c-0.778-0.283-1.466-0.706-2.087-1.201
		c-0.621-0.496-1.315-0.951-1.627-1.779c-0.146-0.386-0.698-0.374-0.874-0.507c-0.654-0.517-0.551-1.173-0.744-1.698
		c-0.131-0.359-0.283-0.747-0.558-0.825c-0.735-0.21-1.117-0.736-1.499-1.31c-0.095-0.144-0.266-0.236-0.364-0.32
		c0.03-0.699-0.361-1.1-0.777-1.475c-0.554-0.499-0.87-1.078-0.693-1.885c0.518,0,1.048,0,1.578,0
		c0.939,0.389,1.419,1.229,1.882,2.131c0.648-0.095,1.168,0.147,1.561,0.631c0.208,0.256,0.523,0.364,0.771,0.502
		c1.202,0.663,2.112,1.649,2.989,2.645c0.527,0.6,1.022,1.191,1.678,1.663c0.321,0.23,0.598,0.544,0.802,0.949
		C30.564,52.342,31.104,52.875,31.652,53.343z"/>
	<path style="fill-rule:evenodd;clip-rule:evenodd;fill:none;" d="M23.163,53.513c0.661,0.645,1.259,1.341,2.031,1.758
		c0,0.221,0,0.362,0,0.495c-0.108,0.154-0.271,0.131-0.395,0.099c-0.483-0.123-0.909-0.443-1.435-0.426
		c-0.593-0.58-1.133-1.224-1.949-1.525c-0.122-0.046-0.195-0.209-0.309-0.294c-0.4-0.301-0.514-0.817-0.901-1.141
		c-0.342-0.286-0.832-0.385-1.033-0.841c0.162-0.162,0.339-0.34,0.541-0.541c1,0.017,1.635,0.584,2.05,1.451
		C22.052,53.15,22.472,53.532,23.163,53.513z"/>
	<path style="fill-rule:evenodd;clip-rule:evenodd;fill:none;" d="M15.479,46.016c0,0.248,0,0.463,0,0.675
		c-0.069,0.103-0.173,0.098-0.279,0.112c-0.303,0.043-0.47-0.263-0.747-0.274c-0.122-0.381-0.413-0.727-0.226-1.19
		C14.925,45.064,15.065,45.81,15.479,46.016z"/>
	<path style="fill-rule:evenodd;clip-rule:evenodd;fill:none;" d="M18.042,42.174c-0.176,0.306-0.437,0.344-0.733,0.299
		c-0.211-0.165-0.02-0.381-0.128-0.555C17.571,41.749,17.841,41.805,18.042,42.174z"/>
</g>
</svg>
