<svg xmlns="http://www.w3.org/2000/svg" xml:space="preserve" width="72px" height="72px" viewBox="0 0 72 72">
    <g fill="currentColor">
        <path d="m48.753 64.178-.539.539c-.706.063-1.403-.03-2.122.335-.729.369-.837 1.201-1.599 1.571-.438.02-.907.498-1.717.07-1.35-1.111-3.064-1.218-4.953-.333l-.881.883c-.959.256-1.427-.291-1.961-.837-.437.366-1.036.396-1.525.696-.472-.187-1.016-.308-.948-1.006l-.771-.771c-.878-.477-1.656-.373-2.422-.382-.108-.001-.234-.037-.321.006-.821.41-1.46-.065-2.15-.388a8 8 0 0 1-.532-.273c-.457-.259-.902-.318-1.334.011-.305.233-.735.145-1.015.433-.273-.014-.452-.369-.809-.198l-.762-.941c0-.422-.11-1.055.021-1.634.366-1.624.127-3.257.182-4.883.015-.459.381-.839.229-1.313.413-.913.121-1.883.227-2.749.392-.722.678-1.396.645-2.185s.03-1.585-.018-2.374c-.045-.755.19-1.429.54-2.046.235-.415.385-.809.331-1.268-.067-.568.085-1.101.297-1.769.139-.222.467-.473.678-.85.228-.407.774-.539 1.21-.672.71-.217 1.403-.587 2.191-.453.07.013.164.031.212-.002.77-.533 1.463-.077 2.1.241.758.379 1.567.58 2.359.817.485.145 1.006-.076 1.434-.405.654-.503 1.339-.571 2.129-.273.501.189 1.085.195 1.607.309 1.631.354 3.262.048 4.914.209.427.403.954.749 1.431 1.16.692.597.886 1.39 1.01 2.178.092.583.249 1.126.476 1.646.25.572.444 1.134.426 1.771-.025.863.001 1.728-.008 2.591-.008.745.234 1.393.668 1.994.233.324.401.697.63 1.103 0 .545-.016 1.156.006 1.766.013.39-.401.732-.204 1.088.206.369.099.762.217 1.102.252.721.271 1.486.467 2.188.199.719.159 1.403.124 2.083-.021.384-.21.787-.17 1.215M25.848 9.981l.548-.548h.457c.517.623.883 1.39.678 2.16-.151.566-.131 1.101-.164 1.65-.031.501.004 1.007-.009 1.51-.03 1.115.104 2.202.416 3.28.115.398.058.862.011 1.289-.115 1.031.179 2.025.246 3.039.018.263.183.57.412.794.618.603 1.184 1.267 1.848 1.813.457.375 1.013.713 1.578.854.981.244 1.891.659 2.821 1.018.353.136.818-.15 1.012.322.989-.349 1.941-.654 2.839-1.181.222-.623.582-1.234.988-1.8a7 7 0 0 0 1.068-2.153 3.84 3.84 0 0 1 1.204-1.862c.086-.465-.079-.883-.146-1.318-.06-.389.166-.846.337-1.242.172-.399.432-.76.705-1.227 0-1.115-.014-2.334.005-3.553.012-.801-.165-1.623.238-2.366l.482-.573c.224-.047.316.015.37.106.205.346.399.699.634 1.114-.087 1.013.278 2.01.69 2.977.102.237.168.444.171.685.005.503.05 1.013-.009 1.509-.123 1.034.197 2.024.262 3.039.037.571.383 1.134.47 1.737.013.086.173.127.144.263-.157.713.301 1.353.229 2.07-.067.677.12 1.4-.045 2.041-.263 1.021-.119 2.034-.201 3.111.271.214.499.511.657 1.056v1.168c-.065.055-.193.131-.282.24-.685.824-1.588.819-2.485.568-.321-.089-.694-.194-.909-.079-.515.276-1.03.179-1.544.182-2.266.015-4.532-.021-6.798.017-1.239.021-2.442-.31-3.689-.262-.532.021-1.112-.239-1.647-.418-.657-.221-1.308-.185-1.968-.194-.288-.004-.575-.001-.863-.001-.409.488-.973.62-1.566.644-.667.026-1.083-.334-1.353-1.144v-6.467c0-.672.319-1.229.648-1.847 0-.511.035-1.089-.008-1.661-.058-.78.33-1.494.242-2.287-.083-.747-.115-1.525.007-2.26.157-.95.311-1.945.858-2.763.335-.502.433-.996.416-1.561-.017-.502-.005-1.005-.005-1.489m12.2 27.002c-.717-.465-1.346-.774-2.096-.769-.864.006-1.731-.048-2.59.017-.726.055-1.438.289-2.179.199-.302-.037-.638.125-.902-.187-.062-.073-.285.015-.41-.034-.428-.167-.748.491-1.177.148-.387-.31-.831-.045-1.217-.177-.494-.155-.805-.543-1.173-.918v-1.099l.785-.622c2.376-.82 4.839-1.276 7.465.127.154.054.549-.175.913.135.168.143.576.106.834.023 1.218-.392 2.468-.085 3.693-.216.56-.06 1.105.564 1.658.013.575 0 1.151.012 1.728-.003.539-.015.969.259 1.447.392v1.195c-.138.21-.16.626-.456.709-.418.118-.812.339-1.283.311-.622-.038-1.248-.052-1.858.19-.259.103-.431.204-.48.473.313.459.848.323 1.268.49.477.19.898.149 1.395-.014.768-.252 1.39.133 1.91.733-.183.942-.813 1.491-1.581 1.938-.209.121-.417.061-.622.061-3.671.007-7.342.005-11.014.005-1.18-.304-2.384-.217-3.582-.208-.27.002-.381-.318-.692-.246v-.976c.377-.263.838-.33 1.338-.305.574.028 1.154-.027 1.727.015.753.056 1.441-.164 2.042-.543.452-.285.89-.34 1.38-.331.468.008.94.04 1.403-.007.738-.074 1.477-.186 2.326-.519"/>
        <path d="M38.53 18.296c-.407-.16-.732.117-.994.244-.686.331-1.464.255-2.126.608-.306.163-.495-.205-.772-.213-.412-.013-.805.014-1.214-.2-1.248-.65-2.573-1.153-3.684-2.055-.502-.408-.746-.979-1.061-1.565-.19-.868.226-1.525.858-2.167.599-.607 1.352-1.021 1.916-1.66.174-.197 1.435-.557 1.815-.559 1.043-.006 2.088-.032 3.13.01.504.021 1.037.095 1.494.292.499.215 1.091.364 1.308 1.025.061.188.19.541.361.578.284.062.401.269.592.409.135.1.328.059.451.225.148.2.35.361.554.565v1.746c-.485 1.227-1.928 1.611-2.628 2.717m-2.551-2.282c-.223-.37.348-.613.254-1.083-.082-.414-.017-.856-.017-1.285-.132-.723-.803-.729-1.331-.996-.346.245-.791.377-1.04.801-.03 1.214-.164 2.494 1.294 3.128.24-.214.595-.205.84-.565"/>
    </g>
</svg>
