<?xml version="1.0" encoding="iso-8859-1"?>
<!-- Generator: Adobe Illustrator 16.0.0, SVG Export Plug-In . SVG Version: 6.00 Build 0)  -->
<!DOCTYPE svg PUBLIC "-//W3C//DTD SVG 1.1//EN" "http://www.w3.org/Graphics/SVG/1.1/DTD/svg11.dtd">
<svg version="1.1" id="Layer_1" xmlns="http://www.w3.org/2000/svg" xmlns:xlink="http://www.w3.org/1999/xlink" x="0px" y="0px"
	 width="72.36px" height="72.18px" viewBox="0 0 72.36 72.18" style="enable-background:new 0 0 72.36 72.18;" xml:space="preserve"
	>
<g>
	<path style="fill-rule:evenodd;clip-rule:evenodd;fill:none;" d="M-6.984,79.631c0-28.871,0-57.743,0-86.615
		c28.8,0,57.6,0,86.399,0c0,28.872,0,57.744,0,86.615C50.616,79.631,21.816,79.631-6.984,79.631z M12.558,21.962
		c-0.428-0.011-0.855,0.095-1.294,0.185c-0.781,0.16-1.306,0.51-1.644,1.232c-0.312,0.665-0.736,1.278-1.033,1.949
		c-0.115,0.26-0.206,0.562-0.267,0.867c-0.17,0.846-0.391,1.712-0.775,2.478c-0.684,1.361-0.823,2.842-1.118,4.287
		c-0.137,0.672,0.095,1.403-0.235,2.066c0,1.512,0,3.024,0,4.536c0,0.071-0.031,0.18,0.004,0.21c0.41,0.349,0.212,0.817,0.188,1.211
		c-0.027,0.443,0.278,0.767,0.255,1.208c-0.06,1.109,0.417,2.111,0.778,3.127c0.347,0.976,0.769,1.923,0.946,2.958
		c0.072,0.42,0.183,0.896,0.442,1.209c0.488,0.591,0.709,1.298,1.073,1.938c0.348,0.612,0.647,1.252,1.034,1.849
		c0.222,0.342,0.553,0.574,0.73,0.986c0.407,0.945,1.066,1.754,1.794,2.5c0.689,0.708,1.5,1.306,1.998,2.192
		c0.084,0.149,0.232,0.281,0.381,0.373c0.756,0.471,1.529,0.905,1.968,1.747c0.097,0.186,0.269,0.388,0.569,0.43
		c0.625,0.089,1.133,0.478,1.567,0.888c1.286,1.213,2.907,1.831,4.466,2.528c0.872,0.39,1.794,0.711,2.714,1.015
		c0.808,0.267,1.638,0.541,2.417,0.938c0.712,0.361,1.542,0.527,2.319,0.624c0.824,0.104,1.668,0.255,2.496,0.237
		c1.842-0.039,3.7,0.268,5.527-0.193c0.923,0.15,1.805-0.235,2.718-0.213c0.153,0.004,0.253-0.092,0.375-0.139
		c1.341-0.502,2.707-0.94,4.028-1.487c0.352-0.146,0.713-0.04,1.078-0.286c0.507-0.341,1.122-0.56,1.721-0.781
		c1.646-0.609,3.074-1.654,4.524-2.608c1.097-0.721,2.159-1.557,3.057-2.556c0.433-0.481,0.921-0.912,1.367-1.382
		c0.267-0.281,0.708-0.333,0.903-0.686c0.635-1.146,1.688-1.979,2.313-3.143c0.22-0.408,0.454-0.827,0.716-1.225
		c0.586-0.889,1.328-1.721,1.543-2.807c0.111-0.563,0.62-0.919,0.711-1.43c0.095-0.529,0.422-0.913,0.592-1.381
		c0.183-0.501,0.34-1.016,0.458-1.536c0.226-0.985,0.625-1.918,0.749-2.943c0.058-0.468-0.001-1.035,0.213-1.404
		c0.271-0.468-0.02-0.968,0.214-1.315c0.307-0.455,0.103-0.897,0.176-1.337c0.097-0.579-0.199-1.2,0.207-1.754
		c0.062-0.083,0.037-0.332-0.039-0.396c-0.206-0.173-0.155-0.38-0.166-0.587c-0.039-0.729-0.063-1.451-0.17-2.185
		c-0.161-1.087-0.494-2.156-0.479-3.27c0.002-0.104-0.052-0.194-0.081-0.289c-0.296-0.962-0.843-1.859-0.782-2.917
		c-0.368-0.139-0.12-0.519-0.294-0.744c-0.708-0.916-0.991-2.035-1.415-3.084c-0.077-0.191-0.12-0.375-0.264-0.541
		c-0.941-1.078-2.107-1.645-3.46-1.6c-0.454-0.204-0.818-0.405-1.059-0.791c0.118-0.352-0.097-0.649-0.202-0.974
		c-0.322-0.981-1.306-1.345-2.107-0.749c-0.257,0.191-0.577,0.415-0.668,0.689c-0.185,0.563-0.722,0.765-0.99,1.196
		c-0.276-0.032-0.509-0.014-0.689,0.203c-0.145-0.354-0.545-0.082-0.741-0.314c-0.225-0.263-0.354-0.553-0.437-0.903
		c-0.182-0.773-0.463-1.515-1.209-2.008c-0.472-0.011-1.033-0.116-1.469,0.221c-0.768,0.593-1.719,0.963-2.276,1.916
		c0,0.014,0.017,0.125-0.003,0.229c-0.09,0.47-0.393,0.958-0.181,1.408c0.206,0.441,0.165,0.939,0.407,1.343
		c0.253,0.423,0.205,0.871,0.207,1.319c0.005,0.93,0.001,1.859,0.001,2.738c0.515,0.521,0.955,0.967,1.716,1.008
		c0.372,0.02,0.82,0.243,0.956,0.781c0.122,0.489,0.407,0.937,0.353,1.471c-0.106,1.054,0.23,1.921,1.081,2.577
		c0.252,0.195,0.489,0.411,0.627,0.526c0,2.906,0,5.637,0,8.175c-0.337,0.376-0.574,0.64-0.871,0.971
		c-1.005-0.387-0.891-1.371-1.111-2.164c-0.326-0.372-0.673-0.716-1.259-0.924c-1.851,0-3.83,0-5.81,0
		c-0.217,0-0.498,0.087-0.636-0.017c-0.334-0.254-0.979-0.06-1.048-0.522c-0.052-0.35-0.271-0.615-0.278-0.982
		c-0.023-1.23,0.06-2.455-0.162-3.696c-0.24-1.345,0.033-2.737-0.218-4.122c-0.229-1.272-0.019-2.593-0.208-3.906
		c-0.194-1.34-0.092-2.732-0.029-4.097c0.062-1.351-0.34-2.661-0.244-4.015c0.072-1.039-0.025-2.089,0.023-3.13
		c0.065-1.385-0.335-2.733-0.26-4.125c0.02-0.367-0.119-0.863-0.488-1.189c-0.36-0.319-0.749-0.473-1.227-0.44
		c-0.248,0.017-0.499,0.003-0.727,0.003c-1.191,0.773-1.125,0.847-1.637,2.135c-0.246,0.62-0.313,1.355-1.002,1.75
		c-0.472,0-0.975,0-1.402,0c-0.899-0.468-1.699-0.966-2.494-1.482c-0.752-0.489-1.702-0.673-2.585-0.394
		c-1.363,0.431-2.568,1.186-3.656,2.119c-0.588,0.504-1.054,1.1-1.379,1.948c0,0.146,0.115,0.526-0.025,0.7
		c-0.244,0.303-0.216,0.606-0.176,0.901c0.044,0.318-0.143,0.523-0.219,0.729c0.371,0.9,0.308,2.034,1.465,2.376
		c0.806,0.188,1.505-0.106,2.158-0.509c0.15-0.093,0.315-0.149,0.459-0.199c0.765-0.264,1.507-0.722,2.354-0.558
		c0.754,0.147,1.586,0.249,1.966,1.073c0.224,0.487,0.54,0.879,0.923,1.238c0.342,0.319,0.699,0.632,0.987,0.997
		c0.442,0.562,0.966,0.956,1.636,1.232c0.824,0.34,1.202,1.05,1.212,1.937c0.01,0.828-0.02,1.657,0.006,2.483
		c0.116,3.754-0.381,7.496-0.214,11.249c0.017,0.375-0.206,0.637-0.247,0.741c-0.444,0.505-0.876,0.425-1.29,0.419
		c-1.197-0.02-2.389-0.076-3.586-0.171c-2-0.158-4.021-0.043-5.829-0.043c-1.393,0.424-1.243,1.58-1.799,2.804
		c-0.288,0.55-1.23,0.616-2.075,0.868c-0.884-0.202-1.211-0.774-1.174-1.654c0.031-0.73,0.106-1.476-0.207-2.178
		c0.158-1.887-0.24-3.752-0.219-5.634c0.003-0.281,0.042-0.592-0.059-0.838c-0.452-1.089-0.022-1.888,0.845-2.41
		c1.072-0.645,1.388-1.635,1.571-2.701c0.122-0.712,0.359-1.235,1.054-1.497c0.061-0.023,0.094-0.124,0.155-0.146
		c0.721-0.258,0.991-0.801,0.972-1.525c-0.017-0.653-0.225-1.269-0.48-1.853c-0.148-0.339-0.286-0.669-0.41-1.02
		c-0.359-1.012-0.699-2.088-1.815-2.5c-0.551,0-1.049,0-1.527,0c-0.402,0.402-0.799,0.771-1.162,1.169
		c-0.501,0.55-1.071,0.895-1.862,0.733c-0.163-0.163-0.341-0.34-0.52-0.519c0-0.324,0.096-0.69-0.024-0.961
		c-0.146-0.333-0.204-0.649-0.192-0.958c-0.197-0.208-0.369-0.391-0.506-0.537c-0.603-0.008-1.08-0.452-1.74-0.113
		c-0.512,0.263-1.073,0.394-1.323,0.729c-0.267,0.893-0.252,1.658-0.599,2.333C13.175,21.645,12.819,21.684,12.558,21.962z"/>
	<path fill="currentColor" d="M12.558,21.962c0.261-0.278,0.617-0.317,0.914-0.48
		c0.346-0.675,0.332-1.44,0.599-2.333c0.25-0.336,0.811-0.467,1.323-0.729c0.66-0.339,1.137,0.104,1.74,0.113
		c0.137,0.146,0.31,0.328,0.506,0.537c-0.012,0.308,0.045,0.625,0.192,0.958c0.12,0.271,0.024,0.637,0.024,0.961
		c0.178,0.178,0.356,0.356,0.52,0.519c0.791,0.162,1.36-0.183,1.862-0.733c0.363-0.398,0.76-0.767,1.162-1.169
		c0.478,0,0.976,0,1.527,0c1.116,0.412,1.456,1.487,1.815,2.5c0.124,0.351,0.262,0.681,0.41,1.02
		c0.255,0.583,0.463,1.199,0.48,1.853c0.019,0.725-0.251,1.267-0.972,1.525c-0.061,0.022-0.094,0.122-0.155,0.146
		c-0.695,0.262-0.932,0.785-1.054,1.497c-0.183,1.066-0.499,2.056-1.571,2.701c-0.868,0.522-1.297,1.321-0.845,2.41
		c0.102,0.246,0.063,0.557,0.059,0.838c-0.021,1.882,0.376,3.748,0.219,5.634c0.313,0.702,0.238,1.447,0.207,2.178
		c-0.038,0.88,0.29,1.452,1.174,1.654c0.844-0.252,1.787-0.318,2.075-0.868c0.556-1.224,0.406-2.38,1.799-2.804
		c1.808,0,3.83-0.115,5.829,0.043c1.197,0.095,2.389,0.151,3.586,0.171c0.414,0.006,0.845,0.086,1.29-0.419
		c0.041-0.104,0.264-0.366,0.247-0.741c-0.167-3.753,0.33-7.495,0.214-11.249c-0.025-0.827,0.004-1.655-0.006-2.483
		c-0.011-0.887-0.389-1.597-1.212-1.937c-0.67-0.276-1.194-0.671-1.636-1.232c-0.288-0.365-0.645-0.677-0.987-0.997
		c-0.384-0.359-0.699-0.751-0.923-1.238c-0.379-0.825-1.211-0.926-1.966-1.073c-0.847-0.165-1.589,0.294-2.354,0.558
		c-0.144,0.05-0.31,0.106-0.459,0.199c-0.653,0.403-1.353,0.697-2.158,0.509c-1.158-0.342-1.094-1.476-1.465-2.376
		c0.076-0.206,0.263-0.411,0.219-0.729c-0.04-0.295-0.068-0.598,0.176-0.901c0.141-0.174,0.025-0.554,0.025-0.7
		c0.325-0.848,0.792-1.444,1.379-1.948c1.088-0.933,2.293-1.688,3.656-2.119c0.883-0.279,1.833-0.095,2.585,0.394
		c0.794,0.516,1.594,1.014,2.494,1.482c0.427,0,0.93,0,1.402,0c0.689-0.395,0.756-1.13,1.002-1.75
		c0.512-1.288,0.445-1.361,1.637-2.135c0.228,0,0.479,0.014,0.727-0.003c0.478-0.033,0.866,0.121,1.227,0.44
		c0.369,0.327,0.508,0.822,0.488,1.189c-0.075,1.391,0.325,2.739,0.26,4.125c-0.049,1.042,0.049,2.091-0.023,3.13
		c-0.096,1.354,0.306,2.664,0.244,4.015c-0.063,1.365-0.165,2.757,0.029,4.097c0.189,1.313-0.021,2.634,0.208,3.906
		c0.251,1.385-0.022,2.777,0.218,4.122c0.222,1.242,0.139,2.466,0.162,3.696c0.007,0.367,0.227,0.633,0.278,0.982
		c0.068,0.463,0.714,0.269,1.048,0.522c0.138,0.104,0.419,0.017,0.636,0.017c1.979,0,3.959,0,5.81,0
		c0.586,0.208,0.933,0.552,1.259,0.924c0.221,0.793,0.106,1.777,1.111,2.164c0.297-0.331,0.534-0.595,0.871-0.971
		c0-2.538,0-5.269,0-8.175c-0.138-0.116-0.375-0.331-0.627-0.526c-0.851-0.656-1.188-1.523-1.081-2.577
		c0.055-0.534-0.23-0.982-0.353-1.471c-0.136-0.538-0.584-0.761-0.956-0.781c-0.761-0.041-1.201-0.488-1.716-1.008
		c0-0.878,0.004-1.808-0.001-2.738c-0.002-0.448,0.046-0.896-0.207-1.319c-0.242-0.404-0.201-0.902-0.407-1.343
		c-0.212-0.451,0.091-0.938,0.181-1.408c0.02-0.104,0.003-0.215,0.003-0.229c0.558-0.953,1.509-1.322,2.276-1.916
		c0.436-0.337,0.997-0.232,1.469-0.221c0.746,0.493,1.027,1.235,1.209,2.008c0.082,0.35,0.212,0.64,0.437,0.903
		c0.196,0.232,0.597-0.04,0.741,0.314c0.181-0.216,0.413-0.234,0.689-0.203c0.269-0.432,0.806-0.634,0.99-1.196
		c0.091-0.274,0.411-0.498,0.668-0.689c0.802-0.596,1.785-0.233,2.107,0.749c0.105,0.325,0.32,0.622,0.202,0.974
		c0.24,0.386,0.604,0.587,1.059,0.791c1.353-0.045,2.519,0.522,3.46,1.6c0.144,0.165,0.187,0.349,0.264,0.541
		c0.424,1.049,0.707,2.168,1.415,3.084c0.174,0.225-0.074,0.604,0.294,0.744c-0.061,1.057,0.486,1.955,0.782,2.917
		c0.029,0.095,0.083,0.185,0.081,0.289c-0.016,1.114,0.317,2.183,0.479,3.27c0.107,0.734,0.131,1.456,0.17,2.185
		c0.011,0.207-0.04,0.414,0.166,0.587c0.076,0.064,0.101,0.313,0.039,0.396c-0.406,0.554-0.11,1.175-0.207,1.754
		c-0.073,0.439,0.131,0.882-0.176,1.337c-0.233,0.348,0.058,0.848-0.214,1.315c-0.214,0.369-0.155,0.937-0.213,1.404
		c-0.124,1.025-0.523,1.958-0.749,2.943c-0.118,0.521-0.275,1.035-0.458,1.536c-0.17,0.468-0.497,0.852-0.592,1.381
		c-0.091,0.511-0.6,0.866-0.711,1.43c-0.215,1.086-0.957,1.918-1.543,2.807c-0.262,0.397-0.496,0.816-0.716,1.225
		c-0.625,1.163-1.679,1.996-2.313,3.143c-0.195,0.353-0.637,0.404-0.903,0.686c-0.446,0.47-0.935,0.9-1.367,1.382
		c-0.897,0.999-1.96,1.835-3.057,2.556c-1.45,0.954-2.879,1.999-4.524,2.608c-0.599,0.222-1.214,0.44-1.721,0.781
		c-0.365,0.246-0.727,0.141-1.078,0.286c-1.321,0.547-2.688,0.985-4.028,1.487c-0.122,0.047-0.222,0.143-0.375,0.139
		c-0.913-0.022-1.795,0.363-2.718,0.213c-1.827,0.461-3.685,0.154-5.527,0.193c-0.828,0.018-1.672-0.134-2.496-0.237
		c-0.776-0.097-1.607-0.263-2.319-0.624c-0.779-0.396-1.609-0.671-2.417-0.938c-0.92-0.304-1.843-0.625-2.714-1.015
		c-1.56-0.697-3.18-1.315-4.466-2.528c-0.435-0.41-0.942-0.799-1.567-0.888c-0.3-0.042-0.473-0.244-0.569-0.43
		c-0.439-0.842-1.212-1.276-1.968-1.747c-0.149-0.092-0.297-0.224-0.381-0.373c-0.498-0.887-1.309-1.484-1.998-2.192
		c-0.728-0.746-1.387-1.555-1.794-2.5c-0.177-0.412-0.508-0.645-0.73-0.986c-0.387-0.597-0.687-1.236-1.034-1.849
		c-0.364-0.64-0.585-1.347-1.073-1.938c-0.259-0.313-0.371-0.789-0.442-1.209c-0.177-1.035-0.599-1.982-0.946-2.958
		C7.057,44.302,6.581,43.3,6.64,42.19c0.023-0.441-0.282-0.765-0.255-1.208c0.024-0.394,0.222-0.862-0.188-1.211
		c-0.035-0.03-0.004-0.139-0.004-0.21c0-1.512,0-3.024,0-4.536c0.33-0.663,0.098-1.394,0.235-2.066
		c0.295-1.445,0.435-2.925,1.118-4.287c0.385-0.766,0.605-1.632,0.775-2.478c0.061-0.305,0.151-0.607,0.267-0.867
		c0.296-0.671,0.721-1.284,1.033-1.949c0.338-0.722,0.863-1.072,1.644-1.232C11.703,22.057,12.13,21.951,12.558,21.962z
		 M35.46,55.871c1.11,0,2.223-0.029,3.333,0.01c0.803,0.028,1.427-0.167,1.742-1.145c0-1.228-0.001-2.626,0.001-4.023
		c0.001-0.313,0.012-0.617-0.215-0.881c-0.593-0.692-1.112-1.454-1.789-1.911c-0.682,0-1.273-0.101-1.813,0.023
		c-0.817,0.188-1.795,1.669-1.798,2.552c-0.005,1.613-0.001,3.227-0.001,4.835C35.103,55.515,35.28,55.691,35.46,55.871z
		 M11.916,40.319c0.353,0,0.713,0.018,1.071-0.004c0.467-0.028,0.783-0.377,0.996-0.836c0.17-0.366,0.212-0.723,0.201-1.104
		c-0.043-1.409,0.162-2.833-0.292-4.272c-0.118-0.124-0.291-0.305-0.459-0.481c-0.259,0.024-0.498,0.025-0.642-0.167
		c-0.507,0.205-0.948,0.518-1.182,0.988c-0.22,0.442-0.428,0.953-0.424,1.432c0.01,1.328-0.243,2.685,0.265,3.977
		C11.605,40.009,11.758,40.161,11.916,40.319z M26.574,50.477c-0.444,0.611-0.796,1.242-0.737,2.059
		c0.052,0.712,0.011,1.431,0.011,2.108c0.263,0.385,0.385,0.856,0.832,1.012c0.211,0,0.39,0,0.573,0
		c0.25-0.252,0.502-0.505,0.756-0.761c-0.068-0.802,0.447-1.592,0.186-2.366c-0.239-0.708-0.302-1.533-0.954-2.052
		C27.02,50.477,26.807,50.477,26.574,50.477z M61.056,38.904c0-1.176-0.009-2.574,0.005-3.972c0.004-0.457-0.005-0.896-0.306-1.288
		c-0.305,0-0.617,0-0.919,0c-0.391,0.329-0.462,0.816-0.483,1.214c-0.068,1.287-0.041,2.581-0.012,3.871
		c0.006,0.248,0.186,0.491,0.282,0.73c0.319-0.054,0.492,0.32,0.934,0.163C60.643,39.5,60.803,39.268,61.056,38.904z M57.045,49.615
		c-0.741-0.303-0.839-0.414-1.842,0.552c0.198,0.417-0.218,0.749-0.2,1.17c0.02,0.466,0.005,0.933,0.005,1.405
		c0.176,0.172,0.354,0.348,0.516,0.506c0.327,0,0.641,0,0.833,0c0.813-0.422,0.796-1.204,0.988-1.819
		C57.509,50.903,57.512,50.248,57.045,49.615z M49.733,54.996c0.296-0.548,0.43-1.145,0.504-1.73c0.084-0.669,0.02-1.356,0.02-1.942
		c-0.2-0.4-0.364-0.728-0.527-1.056c-0.17,0.006-0.347-0.066-0.478,0.027c-0.851,1.603-0.539,3.16-0.009,4.701
		C49.458,54.996,49.599,54.996,49.733,54.996z M18.811,52.014c0.246,1.096,0.226,2.248,1.081,2.977
		c0.402,0.074,0.618-0.074,0.786-0.368c-0.115-1.14,0.263-2.372-0.468-3.455c-0.37,0-0.708,0-0.868,0
		C18.733,51.342,19.118,51.854,18.811,52.014z"/>
	<path style="fill-rule:evenodd;clip-rule:evenodd;fill:none;" d="M35.46,55.871c-0.18-0.18-0.357-0.356-0.54-0.54
		c0-1.608-0.004-3.222,0.001-4.835c0.003-0.883,0.981-2.363,1.798-2.552c0.54-0.124,1.131-0.023,1.813-0.023
		c0.677,0.457,1.196,1.219,1.789,1.911c0.227,0.264,0.216,0.568,0.215,0.881c-0.002,1.397-0.001,2.796-0.001,4.023
		c-0.315,0.978-0.939,1.173-1.742,1.145C37.683,55.842,36.57,55.871,35.46,55.871z"/>
	<path style="fill-rule:evenodd;clip-rule:evenodd;fill:none;" d="M11.916,40.319c-0.158-0.158-0.311-0.311-0.467-0.468
		c-0.508-1.292-0.254-2.648-0.265-3.977c-0.004-0.479,0.205-0.99,0.424-1.432c0.233-0.47,0.675-0.783,1.182-0.988
		c0.144,0.192,0.383,0.191,0.642,0.167c0.168,0.176,0.341,0.357,0.459,0.481c0.454,1.439,0.249,2.863,0.292,4.272
		c0.012,0.382-0.031,0.738-0.201,1.104c-0.212,0.459-0.529,0.808-0.996,0.836C12.629,40.337,12.269,40.319,11.916,40.319z"/>
	<path style="fill-rule:evenodd;clip-rule:evenodd;fill:none;" d="M26.574,50.477c0.232,0,0.446,0,0.667,0
		c0.652,0.519,0.715,1.344,0.954,2.052c0.261,0.774-0.254,1.564-0.186,2.366c-0.254,0.256-0.506,0.509-0.756,0.761
		c-0.183,0-0.362,0-0.573,0c-0.447-0.155-0.569-0.627-0.832-1.012c0-0.678,0.041-1.396-0.011-2.108
		C25.778,51.719,26.13,51.088,26.574,50.477z"/>
	<path style="fill-rule:evenodd;clip-rule:evenodd;fill:none;" d="M61.056,38.904c-0.253,0.363-0.413,0.596-0.499,0.719
		c-0.441,0.157-0.614-0.217-0.934-0.163c-0.097-0.239-0.276-0.482-0.282-0.73c-0.029-1.29-0.057-2.583,0.012-3.871
		c0.021-0.398,0.093-0.886,0.483-1.214c0.302,0,0.614,0,0.919,0c0.301,0.392,0.31,0.832,0.306,1.288
		C61.047,36.331,61.056,37.729,61.056,38.904z"/>
	<path style="fill-rule:evenodd;clip-rule:evenodd;fill:none;" d="M57.045,49.615c0.467,0.633,0.464,1.288,0.3,1.813
		c-0.192,0.615-0.175,1.397-0.988,1.819c-0.192,0-0.506,0-0.833,0c-0.161-0.158-0.34-0.334-0.516-0.506
		c0-0.473,0.015-0.939-0.005-1.405c-0.018-0.421,0.398-0.753,0.2-1.17C56.207,49.201,56.304,49.313,57.045,49.615z"/>
	<path style="fill-rule:evenodd;clip-rule:evenodd;fill:none;" d="M49.733,54.996c-0.134,0-0.274,0-0.49,0
		c-0.53-1.541-0.842-3.099,0.009-4.701c0.131-0.094,0.308-0.021,0.478-0.026c0.163,0.327,0.327,0.654,0.527,1.055
		c0,0.586,0.064,1.273-0.02,1.942C50.163,53.852,50.029,54.448,49.733,54.996z"/>
	<path style="fill-rule:evenodd;clip-rule:evenodd;fill:none;" d="M18.811,52.014c0.307-0.16-0.078-0.672,0.531-0.847
		c0.16,0,0.499,0,0.868,0c0.73,1.083,0.353,2.315,0.468,3.455c-0.168,0.294-0.384,0.442-0.786,0.368
		C19.037,54.262,19.057,53.109,18.811,52.014z"/>
</g>
</svg>
