<svg xmlns="http://www.w3.org/2000/svg" xml:space="preserve" width="72px" height="72px" viewBox="0 0 72 72">
    <g fill="currentColor">
        <path d="M63.648 44.767c-.731.508-.922 1.308-1.12 2.191.552.08 1.129.072 1.527.593v.89c-.073.126-.191.076-.292.087-.384.472-.345 1.032-.328 1.567-.149.383-.613.336-.844.699v.81c-.325.417-.67.74-.854 1.138-.129.277-.282.399-.521.557-.403.266-.409.749-.365 1.237-.973.344-1.346 1.265-1.944 1.966-.05.06-.059.201-.146.257-.371.239-.48.674-.755.987-.353.404-.894.474-1.302.806-.348.282-.765.519-1.014.881-.235.342-.597.514-.841.817-.251.313-.692.347-.931.604-.535.579-1.366.619-1.907 1.15-.247.242-.533.088-.797.119-.306-.434-.053-.899.149-1.153a7.5 7.5 0 0 0 1.233-2.218l-.272-.271c-.334-.12-.514.438-.881.205l-.308-.331c-.168-.548.262-1.032.221-1.606-.039-.556-.406-1.058-.193-1.677l1.661-1.661v-.559c.22-.444.603-.626.958-.826.755-.424.813-.488 1.021-1.456.36-.389.85-.746.864-1.423.01-.444.53-.52.775-.572.307-.065.556-.263.863-.29.327-.759.568-1.536.511-2.363l-.554-1.077c-.214-.25-.536-.28-.792-.429-.063.049-.143.079-.163.132-.471 1.221-1.318 2.244-1.791 3.47-.114.296-.465.61-.769.697-.438.125-.555.513-.609.757-.096.427-.271.845-.306 1.315-.2.36-.571.602-.946.732-1.215.423-2.247 1.179-3.374 1.76-.496.256-.725.699-.884 1.215-1.167.549-2.288 1.217-3.406 1.895-1.161.703-2.403 1.15-3.82.971l-.92-.92v-.694c.146-.672.521-.948.865-1.308-.252-1.118.422-2.086.631-3.149.058-.293.339-.517.513-.747.351-.464.503-.953.582-1.511.495-.084.697-.552 1.053-.807.021-.223.018-.404.137-.613.298-.527.639-1.065.514-1.729-.037-.192.112-.313.176-.466.294-.705.672-1.357 1.242-1.856.888-.776 1.496-1.798 2.36-2.59.228-.209.434-.422.743-.55.467-.193.938-.406 1.288-.816.145-.168.41-.363.597-.341.608.073 1.037-.313 1.518-.531.208-.094.394-.159.59-.13.25.038.358-.192.543-.255.973.564 1.958.616 3.042.137.325-.589.78-1.163 1.563-1.42.24-.079.416-.357.586-.511.075-.586-.358-.918-.494-1.368s-.413-.86-.349-1.441c-.326-.323-.724-.668-.896-1.246.294-.597.383-1.25-.085-1.888h-.443l-1.012 1.071c-.242 0-.454-.005-.666.001-.654.02-1.177-.276-1.426-.842-.228-.515-.622-.942-.697-1.554-.05-.405-.372-.776-.615-1.247.191-.651-.234-1.335-.223-2.069.011-.72.002-1.439.002-2.19.282-.179.609-.05.955-.1.237-.24.628-.416.543-.996-1.292-.965-1.991-2.531-3.12-3.764-.134.213-.293.448-.295.569-.013 1.009-.864.961-1.46 1.152-.39.125-.853.023-1.179.023l-1.508-.773a.9.9 0 0 1-.212-.353c-.273-.762-.518-1.559-1.385-1.891-.418-.708-1.033-1.245-1.604-1.817-.347-.348-.627-.701-.69-1.232-.046-.384-.259-.751-.418-1.117-.054-.124-.167-.221-.259-.337-.886-.07-1.744-.232-2.521-.688-.177-.029-.228.179-.346.202-.208.04-.429.011-.65.011-.282-.168-.345-.5-.532-.803.005-.528-.125-1.133.273-1.704.45-.157.825-.563 1.334-.778.357-.151.734-.254 1-.141.737.314 1.582.29 2.264.811.252.192.725.505 1.097.026.398.129.598-.31.901-.26.79-1.312.79-1.312 2.066-1.876.244.265.572.218.869.186.81-.089 1.434.21 1.923.854h.782l1.495 1.496v2.274l.662.663c-.062.071-.117.151-.188.214-.287.249-.262.479-.097.824.231.488.695.841.779 1.401.368.168.779.261 1.032.617.121.261-.288.316-.198.62.445.619 1.195.89 1.901 1.229v.628c.268.485.701.795 1.155.822.575.035 1.16.112 1.771-.119.503-.19 1.185-.207 1.685-.021.464.171.892.103 1.359.19.292.18.441.613.906.654.342 1.068.956 2.043 1.156 3.157.254.038.428.14.561.312.148.163.079.778-.17 1.342.156.156.322.335.502.5.987.904 1.018 1.386.561 2.794-.301.924-1.116 1.112-1.946 1.177-.396-.248-.602-.608-.813-1.09.145-.647-.191-1.284-.52-1.931-.21-.415-.379-.851-.572-1.29.274-.68.838-1.209 1.055-2.029l-.557-1.109c-.706-.189-1.25-.898-2.129-.762-.166.173-.139.399-.034.573.589.978.596.974.578 2.105l-.545.544h-1.207l-1.23-.635c-1.231-.232-2.096.271-2.432 1.358.485.343.716.943 1.151 1.396.227.235.299.585.414.904.18.499.145 1.234 1.032 1.199l.42-.402c.169-.853.466-1.593.93-2.253 1.035-.043 1.411.198 2.119 1.35v1.049c.363.393.63.789.678 1.358.046.561.172 1.158.438 1.643.243.441.061.989.412 1.339.409.408.091.891.237 1.328.624.305 1.315.276 2.007.327.45.033.886.276 1.312.421.412.671.665 1.378.532 2.162-.059.346.282.535.243.886-.032.288-.141.621.144.909.129.131.025.366-.042.577-.212.67-.435 1.322-.728 1.969-.231.508-.548.992-.703 1.545-.052.184-.269.321-.418.489zm-20.079 9.258c.584-.633 1.339-1.241 2.178-1.751a5.5 5.5 0 0 0 1.436-1.222c.408-.503 1.067-.756 1.361-1.359.35-.719.803-1.333 1.516-1.73a.8.8 0 0 0 .229-.228c.564-.792 1.132-1.582 1.834-2.263-.027-.404.456-.502.514-.867.104-.669.397-1.278.723-1.856.18-.32.194-.608.05-.88-.204-.383-.293-.844-.74-1.161-1.796.738-3.23 2.015-4.581 3.405v1.142c-.885.335-1.314 1.109-1.725 1.911-.184.359-.36.758-.648 1.021-1.258 1.146-2.081 2.67-3.345 3.807-.125.112-.279.205-.326.403-.125.526-.52.877-.843 1.188-.076.396.074.613.318.764a4.04 4.04 0 0 0 2.049-.324m.432-40.149c.459.412.835.997 1.521 1.167.792.197 1.453.578 1.936 1.255-.048.458-.021.901.264 1.29.489.068.819.65 1.449.419.473-1.279.081-2.642.253-3.963.125-.125.298-.231.369-.385.1-.218.482.014.458-.435-.386-.532-1.029-.911-1.665-1.162-.454-.18-.834-.416-1.245-.65-.597-.34-1.143-.963-2.004-.621-.084.124-.287.207-.274.484.039.839-.225 1.538-1.061 1.878zm15.194 24.042c-.203.937-1.031 1.428-1.6 2.104.153.707.361.913 1.376 1.379 1.34-.77 2.11-2.004 2.79-3.333-.176-.382-.295-.736-.599-.988h-.659c-.281.418-.783.51-1.308.838m.575 11.371c-.563-.074-.62-.005-.592.825.224-.329.583-.427.592-.825M10.955 28.871c.596.188.967.666 1.342 1.03.844.317 1.245-.569 1.965-.626.761-.347.828-1.295 1.432-1.815-.027-.835.248-1.612.461-2.403.234-.145.489-.042.729-.073l1.167 1.167v1.503c-.357.505-.474 1.136-.764 1.917-.294.388-.844.824-1.272 1.398-.38.51-1.074.806-1.665 1.133-.619.343-1.155.741-1.428 1.45v.861l.298.297c.33-.085.707.122 1.071-.189.195-.166 1.358.266 1.673.565.377.361.835.687.983 1.208.14.494.522.768.865 1.038.779.613.988 1.471 1.103 2.354.046.35.18.651.284 1.03.35-.01.716.128.993.345.451.353.824.802 1.234 1.206.368.362.988.347 1.259.87.578-.06 1.064.094 1.565.4.625.383 1.386.537 1.917 1.097.287-.123.368.269.667.244.33-.027.735.156.863.453.233.539.695.545 1.144.665.278.308.362.793.881.927.176.045.338.308.465.539.345.628.89 1.038 1.675 1.106.125.445-.166.994.349 1.368.144.192.403.061.65.105.414.371.766.774.771 1.395.003.351.212.64.448.89.271.288.558.563.838.842v1.513c.419.409.786.896 1.364.983.633.596.287 1.222.08 1.914-.741.535-1.198 1.457-1.933 2.121-.602.545-1.201 1.077-1.596 1.806a.94.94 0 0 1-.473.403c-.833.303-1.345.931-1.747 1.647-.713.076-.713.076-1.151-.356.528-1.313.941-2.714 2.016-3.774a1.4 1.4 0 0 1 .508-.336c.854-.328 1.354-1.06 1.607-1.88.142-.46.492-.958.124-1.561-.063.292-.199.528-.333.751-.401.668-1.159.809-1.848.965-.462.105-.963.151-1.422.184-.675.048-1.416-.12-1.995-.598-.138-.114-.256-.253-.409-.406h-1.29c-.382.241-.828.421-1.064.967-.23.53-1.163.692-1.871.396-.206-.087-.414-.021-.593-.13-.226-.139-.237-.413-.383-.599-.132-.168-.28-.324-.378-.437h-.742c-.193.323.034.703-.126 1.005-.169.247-.388.326-.685.276-.748-.8-1.89-1.156-2.541-2.131l-.531-.037c-.666-.751-1.566-1.396-2.155-2.461-.25.819.127 1.433.437 1.991.357.646.868 1.208 1.214 1.876.073.141.243.247.39.333.651.379 1.116.93 1.492 1.568.099.168.043.338.036.529-.762.229-1.35-.055-1.847-.612-.281-.314-.622-.544-.968-.78a6 6 0 0 0-.612-.36c-.249-.132-.173-.451-.379-.602-.363-.267-.553-.724-1.051-.858-.215-.059-.377-.316-.508-.435-.194-1.058-.194-1.058-1.197-1.48-.549-.875-.756-1.917-1.55-2.627-.141-.126-.232-.335-.286-.523-.149-.52-.334-1.037-.669-1.446-.337-.411-.045-.975-.623-1.4-.347-.1-.622-.529-.827-1.024.203-.142.186-.387.168-.627.951-1.046 2.181-1.767 3.177-2.756s1.986-1.984 2.979-2.977c.462.074.831-.392 1.327-.181.184-.612.045-1.104-.278-1.592-.353-.532-.65-1.1-.963-1.637-.422-.133-.832-.003-1.244-.225-.263-.142-.73-.108-1.125.061a2.5 2.5 0 0 1-1.857.022c-.416-.162-.748.012-1.1-.164-.155.76.119 1.249.636 1.684-.315 1.386.362 2.583.857 3.847l-.872.766H8.925c-.618-.377-.817-1.13-1.413-1.566.067-.765-.411-1.483-.229-2.259.199-.85.038-1.788.628-2.551.065-.083.06-.249.165-.36.585-.623.651-.756.834-1.254.113-.307.19-.605-.043-.874-.116-.133-.078-.268-.075-.401.006-.239.368-.418.2-.659-.22-.315-.093-.716-.255-.97-.126-.199-.036-.538-.319-.576-.231-.331-.595-.171-.879-.361-.27-.18-.426-.454-.695-.551v-1.243c.325-.593.639-1.196.643-1.891.005-.769.299-1.325 1.041-1.607.059-.022.097-.101.144-.154.979.98.979.98.979 2.632-.19.382-.558.707-.385 1.222.21.01.366-.203.367-.283.013-.662.324-.972.982-.981.114-.001.162-.235.34-.206m20.697 24.472c-.548-.468-1.088-1.001-1.417-1.655a2.6 2.6 0 0 0-.802-.949c-.655-.472-1.151-1.063-1.678-1.663-.876-.995-1.787-1.981-2.989-2.645-.249-.138-.563-.246-.771-.502-.392-.483-.912-.726-1.561-.631-.463-.902-.943-1.742-1.882-2.131h-1.578c-.177.807.139 1.386.693 1.885.416.375.808.775.777 1.475.099.084.269.177.364.32.382.573.763 1.1 1.499 1.31.275.078.426.466.558.825.192.525.089 1.182.744 1.698.176.133.729.121.874.507.312.828 1.006 1.283 1.627 1.779.621.495 1.31.918 2.087 1.201.585.213 1.243.098 1.766.42.671.415 1.161.126 1.689-.283zm-8.489.17c-.691.02-1.111-.362-1.398-.965-.415-.867-1.05-1.435-2.05-1.451l-.541.541c.201.456.69.555 1.033.841.387.323.5.84.901 1.141.113.085.187.248.309.294.816.302 1.356.945 1.949 1.525.526-.018.952.303 1.435.426.123.032.287.056.395-.099v-.495c-.774-.417-1.372-1.114-2.033-1.758m-7.684-7.497c-.414-.206-.554-.951-1.252-.678-.187.464.104.81.226 1.19.277.012.444.317.747.274.106-.015.21-.01.279-.112zm2.563-3.842c-.201-.369-.47-.425-.861-.256.108.174-.083.39.128.555.295.045.557.006.733-.299"/>
        <path d="m33.462 17.802-1.021-1.021c-.356.08-.622-.104-.799-.377-.373-.574-.738-1.161-.597-1.88-.268-.304-.499-.464-.915-.217-.549.326-1.195.421-1.824.548-.107.313-.4.569-.3.95l-.524.524c-.739.013-1.429.425-2.234.172-.395-.374-.768-.906-1.443-1.021-.176-.363-.46-.695-.318-1.134.538-.968 1.583-1.438 2.119-2.209.781-.29 1.442-.517 2.085-.788a.51.51 0 0 0 .32-.397c.038-.317.365-.609.524-.61.621-.004.632-.41.842-.831.466-.935.902-1.917 1.776-2.677.995.122 1.973-.402 2.984-.389 1.032.013 2.015-.322 3.06-.25l.494.544c.315.56-.314.842-.438 1.319-.501.175-.953.518-1.58.552-.394.021-.791.41-1.035.839-.866-.133-1.672.089-2.482.267-.134.029-.252.134-.298.159.049.224.041.318.082.352.696.568 1.022 1.326 1.27 2.175.23.792.462 1.599.92 2.367.248.109.59.216.612.675 1.111.227 1.571-.705 2.238-1.257h.808l.71.42c.253.669-.001 1.257-.151 1.856-.555.736-1.396 1.044-2.209 1.391-.87.372-1.747.264-2.676-.052m-13.99-5.991c.586-.564 1.103-1.245 1.956-1.471.957-.179 1.809.001 2.41.875.156.25-.11.653.379.747-.815 1.025-1.449 2.028-2.388 2.88-.705-.311-1.473-.125-2.189.08-.562.161-1.079.541-1.561.897-.388.286-.353.86-.699 1.142.399.768 1.385.466 1.714 1.185.292.659-.333 1.256-.117 1.967-1.012.786-1.64 1.929-2.594 2.773.03.364-.217.635-.288.95-.786.469-1.787.124-2.495.749-.488-.197-.69-.598-.936-1.141-.154-1.048.697-1.733 1.324-2.503 1.25-.28 1.813-1.326 2.595-2.159-.067-.374-.413-.546-.651-.791-.875-.898-.882-.892-.882-2.168.599-1.065 1.644-1.782 2.465-2.7.59-.16.863-.703 1.274-1.075.204-.187.399-.27.683-.237m5.535 10.901a2.23 2.23 0 0 1-.823 1.205c-1.06-.048-2.166-.242-3.282-.491-.413-.686-.751-1.381-.658-2.243l.583-.52c.356 0 .784.002 1.212 0 .994-.004 1.537-.429 1.873-1.392.13-.374.292-.754.394-1.124a.92.92 0 0 1 .905-.685c.919.03 1.782-.457 2.764-.2.118.548.04 1.167.209 1.778.179.642.103 1.392-.767 1.691a.84.84 0 0 0-.449.448c-.324.892-1.149 1.089-1.961 1.533m-14.887-1.41c.376.054.476-.227.699-.396h1.123c.518.684.518.684.508 1.712-.294.766-.797 1.235-1.452 1.486-.402.154-.706.453-.845.75-.193.414-.557.622-.786.975H8.65c-.352-.51-.324-1.062-.282-1.647.909-.746 1.673-1.615 1.752-2.88"/>
    </g>
</svg>
