<svg xmlns="http://www.w3.org/2000/svg" xml:space="preserve" width="72px" height="72px" viewBox="0 0 72 72">
    <path fill="currentColor" d="M38.325 55.168c-.278.013-.449.324-.915.243-.347-.08-.467-.561-.762-.999 0-.228.011-.547-.002-.865-.019-.446.051-.884-.193-1.326-.188-.344.174-.853-.227-1.199.051-.626-.163-1.271.132-1.881.182-.375-.019-.774.073-1.026-.271-.748-.733-1.002-1.411-1.133-.654-.126-1.223-.162-1.889-.005-.655.155-1.178.308-1.435 1.159.074.433-.201 1.071.187 1.667.083.127.089.43-.001.519-.423.418.016 1.062-.419 1.454.111.502-.216.927-.256 1.419-.044.535-.234 1.122-.666 1.572h-.938l-.775-.775c-.483-.909-.43-1.727-.367-2.522.033-.419-.394-.697-.233-1.099.169-.423-.492-.738-.134-1.172.29-.351.036-.762.145-1.112-.186-.272-.23-.603-.601-.871-.208 0-.578.106-.823-.022-.454-.24-1.017-.146-1.303-.414-.615-.559-.558-1.173-.52-1.759.038-.588.321-1.038 1.315-1.232.459.02 1.294-.006 1.889-.74.143-.402-.147-.854.154-1.236.27-.344-.143-.869.305-1.169.09-1.184-.216-2.25-1-3.146-.425-.487-.91-.921-1.373-1.384v-1.066a2.9 2.9 0 0 1 1.492-1.068c.49-.149.798-.55.85-.926.16-1.162.83-1.949 1.674-2.667.235.026.479.021.695-.29.25.39.767.165 1.059.542.231.299.576.512.707.908v1.177c.002.971.006.98.686 1.694.835.241 1.625.373 2.479.259l.511-.554c-.085-.562.053-1.168-.188-1.807-.258-.686.331-1.753.969-2.146.706-.435 1.557-.186 2.021.6.152.259.18.585.429.799v2.37c.787.97 1.887.738 2.898.768.349-.177.265-.558.419-.803.21-.334.07-.528-.037-.839a5.5 5.5 0 0 1-.227-.981c-.088-.597-.025-1.215-.025-1.709l.967-1.907c-.996.046-1.88-.189-2.786.144-.38.14-.861.108-1.275.033-1.365-.247-1.36-.262-2.632.007-.207.044-.431.006-.647.006-.936 0-1.872-.009-2.807.003-.7.008-1.352-.276-2.071-.243-1.089.05-2.156.376-3.258.251-.104-.012-.227.132-.39.235-.647-.566-1.343-.125-2.068-.006-.321.224-.547.57-.743 1.063 0 .384.114.924-.032 1.38-.143.444-.031.972-.399 1.343.159.61-.284 1.136-.232 1.748.04.472-.266.911-.218 1.422.044.471.082.952-.17 1.435-.148.282.011.711-.036 1.064-.063.475.155.951-.177 1.443-.229.339.173.912-.241 1.3-.036.033-.015.14-.003.21.147.889-.152 1.749-.265 2.604-.15 1.138-.072 2.335-.586 3.415.119.641-.275 1.222-.226 1.848.128 1.601-.363 3.171-.221 4.771-.452 1.899-.11 3.828-.214 5.741-.022.412.012.813-.201 1.215-.17.321.083.729-.176 1.121-.164.248-.03.692-.03 1.083l-.678.552c-.557.067-1.137-.311-1.6-.691-.511-.42-1.043-.834-1.561-1.24-.65-.512-1.165-1.192-1.931-1.566-.214-.104-.352-.357-.542-.521-.801-.694-1.389-1.618-2.347-2.149-.302-.168-.38-.561-.597-.833-.368-.461-.543-1.019-1.127-1.373-.411-.249-.62-.862-.872-1.337-.476-.896-1.05-1.728-1.609-2.568-.1-.151-.17-.324-.197-.458-.158-.783-.675-1.388-.969-2.086-.281-.668-.566-1.352-.793-2.046-.229-.702-.334-1.443-.548-2.15a10.8 10.8 0 0 1-.44-3.495c.013-.394-.119-.834-.273-1.175-.316-.694-.374-1.39-.361-2.12.01-.575.013-1.152-.001-1.728-.013-.524.369-.989.219-1.53.368-.771.179-1.594.21-2.394.019-.486.379-.913.222-1.422.385-.727.408-1.56.601-2.335.188-.755.533-1.452.679-2.207.062-.319.264-.54.36-.827.211-.631.547-1.212.799-1.829.44-1.077 1.122-2.056 1.72-3.065.201-.34.707-.318.887-.708.692 0 1.375-.017 2.055.007.335.012.708-.145 1.004.193.063.072.291.057.416.009 1.066-.409 2.175-.105 3.287-.232.887-.485 1.155-1.368 1.375-2.3.279-1.183.159-2.455.795-3.557.132-.229.04-.486.061-.73a9.8 9.8 0 0 1 .456-2.16l1.125-.541a2.15 2.15 0 0 1 1.434 1.082c.16.289.347.532.628.661.44.201.722.574 1.014.914.179.208.359.49.321.835-.035.319-.007.645-.007.959l.319.319h1.077c.811-.581.791-1.775 1.777-2.341h1.287c.376.301.474.797.705 1.205.22.387.357.816.793 1.12h.833c.398-.23.645-.651.759-1.117.321-1.308.401-1.458 1.372-2.074.919-.194 1.51.273 2.041.921.027.441.256.868.326 1.346.078.531.542.827.935.934.583.05.845-.382 1.265-.421.2-.45.543-.846.587-1.431.293-.249.547-.617.99-.818.25-.113.518-.193.696-.107.557.266 1.254.37 1.471 1.114.083.284.261.54.372.817.206.516.514.885 1.121.911.082.003.158.119.223.171.657-.153.9-.614 1.165-1.165.334-.693.66-1.426 1.29-1.989-.222-.658.27-1.262.198-1.932l.536-.536h1.029c.932.571 1.072 1.58 1.441 2.442.275.641.472 1.311.808 1.935.302.562.492 1.169.523 1.841.03.629.345 1.214.549 1.816.136.4.195.821.775 1.027 2.072-.428 4.322-.122 6.56-.199.517-.018.974-.444 1.542-.173.074.079.185.131.326.178.424.142.697.432.945.841.489.807 1.078 1.553 1.516 2.399.094.182.042.342.095.556.874.588.968 1.633 1.259 2.553.204.645.27 1.323.77 1.845.397.414.412 1.017.499 1.508.114.643.383 1.227.531 1.849.133.554.249 1.118.365 1.675.09.432.036.874.212 1.319.241.612.266 1.284.246 1.954-.017.55.268 1.058.22 1.639-.153 1.849-.221 3.706-.846 5.485-.09.256-.055.569-.024.85.033.302-.302.46-.229.777.172.755-.418 1.359-.444 2.079-.623.861-.818 1.895-1.143 2.874a10 10 0 0 1-1.24 2.506 20 20 0 0 0-1.705 2.969c-.098.213-.188.447-.347.61-1.154 1.186-1.993 2.642-3.267 3.732-.858.734-1.574 1.633-2.626 2.291h-.973c-.413-.43-.389-1.043-.539-1.573-.269-.946-.285-1.94-.24-2.928.047-1.044-.306-2.023-.522-3.023-.137-.634-.324-1.244-.365-1.908-.042-.702-.139-1.415-.374-2.103-.109-.322-.026-.71-.033-1.067-.013-.688.132-1.412-.432-1.98.032-.49-.319-.903-.233-1.425.08-.491.018-1.006.018-1.515-.392-.604-.646-1.3-.62-1.993.036-.966-.271-1.822-.562-2.696-.042-.126-.107-.24-.117-.383-.088-1.226-.462-2.386-.739-3.572-.309-1.317-.941-2.592-.772-4.009.103-.858-.171-1.621-.863-2.49-.566-.536-1.231.036-1.921.37-.063.483-.078.979.267 1.373.356.407.376.872.362 1.366-.013.432-.018.864.001 1.295.027.634.191 1.213.697 1.656.27.236.512.506.771.766.104.396.024.709-.281 1.038-.315.339-.648.764-.728 1.196-.121.662-.171 1.402.012 2.033.153.53.146 1.028.167 1.543.023.575.006 1.151.006 1.728.219.429.627.653 1.033.805.821.308.921 1.096 1.089 1.729.193.73-.1 1.4-.914 1.759-.369.162-.633.538-.775.952v5.316l-.738 1.453h-.911c-.231-.477-.594-.964-.693-1.501-.094-.5-.401-.981-.251-1.524.092-.331-.298-.524-.235-.886a1.44 1.44 0 0 0-.135-.906c-.169-.351-.078-.841-.055-1.268.032-.554-.099-1.029-.521-1.411-.416-.162-.857.061-1.326-.186-.396-.208-.99.004-1.48-.075-.486-.078-.854.306-1.325.23l-.55.569c.136.366-.134.691-.2 1.058-.067.365.155.785-.215 1.099-.035.03-.014.14-.004.211.145.958-.184 1.881-.257 2.822-.062.715-.079 1.495-.449 2.175M36.4 39.177c-.175-.711-.7-.974-1.218-1.229-.49-.031-.996.109-1.402-.265-.257.379-.604.23-.913.261-.176.175-.476.337-.502.534-.038.286-.249.529-.234.765.07 1.132-.185 2.236-.258 3.299l.426.448c1.14.458 2.162.334 3.077.354l.767-.714c.484-1.173.206-2.316.257-3.453m7.592 2.124a1.82 1.82 0 0 1-.366-1.951c.252-.603.018-.959-.185-1.355-.322-.318-.71-.271-1.089-.268-.429.004-.857.001-1.285.001-.521.19-.829.622-1.119.927-.464 1.412-.332 2.731.025 4.036.842.72 1.83.396 2.746.413.445.009.95-.104 1.272-.523z"/>
</svg>
