<?xml version="1.0" encoding="iso-8859-1"?>
<!-- Generator: Adobe Illustrator 16.0.0, SVG Export Plug-In . SVG Version: 6.00 Build 0)  -->
<!DOCTYPE svg PUBLIC "-//W3C//DTD SVG 1.1//EN" "http://www.w3.org/Graphics/SVG/1.1/DTD/svg11.dtd">
<svg version="1.1" id="Layer_1" xmlns="http://www.w3.org/2000/svg" xmlns:xlink="http://www.w3.org/1999/xlink" x="0px" y="0px"
	 width="72.36px" height="72.18px" viewBox="0 0 72.36 72.18" style="enable-background:new 0 0 72.36 72.18;" xml:space="preserve"
	>
<g>
	<path style="fill-rule:evenodd;clip-rule:evenodd;fill:none;" d="M79.416,79.631c-28.8,0-57.6,0-86.399,0
		c0-28.871,0-57.743,0-86.615c28.8,0,57.6,0,86.399,0C79.416,21.888,79.416,50.76,79.416,79.631z M37.986,44.285
		c-0.097,0.361-0.245,0.496-0.45,0.569c-1.146,0.412-2.226,1.056-3.529,0.876c-0.494-0.068-1.006-0.014-1.51-0.01
		c-0.175,0.002-0.422-0.048-0.513,0.045c-0.281,0.29-0.623,0.195-0.906,0.149c-0.361-0.06-0.543,0.324-0.886,0.24
		c-0.711-0.173-1.376,0.185-2.063,0.264c-0.497,0.057-1.049,0.186-1.566,0.339c-0.835,0.247-1.611,0.669-2.47,0.822
		c-0.765,0.137-1.47,0.436-2.192,0.699c-0.237,0.086-0.44,0.308-0.764,0.263c-0.632-0.089-1.166,0.28-1.733,0.488
		c-0.282,0.104-0.479,0.377-0.822,0.366c-0.413-0.013-0.815,0.114-1.211,0.171c-0.774,0.111-1.277,0.497-1.666,1.095
		c-0.25,0.385-0.524,0.685-0.95,0.907c-0.571,0.297-0.995,1.145-0.754,1.574c0.177,0.318,0.095,0.618,0.199,0.895
		c0.15,0.402,0.146,0.875,0.523,1.188s0.628,0.759,0.89,1.147c0.722,1.07,1.695,1.771,2.812,2.337
		c1.317,0.669,2.602,1.352,3.628,2.49c0.581,0.645,1.487,1.045,2.399,0.906c0.788-0.12,1.541-0.448,2.16-1.038
		c0.479-0.456,0.912-0.95,1.479-1.345c0.73-0.508,1.528-0.848,2.298-1.253c1.27-0.668,2.638-1.173,3.552-2.372
		c0.194-0.255,0.517-0.354,0.791-0.426c0.539-0.141,0.977-0.433,1.434-0.716c0.885-0.549,1.773-1.098,2.686-1.596
		c0.415-0.227,0.811-0.48,1.217-0.714c0.671-0.386,1.463-0.461,2.204-0.667c0.835-0.233,1.705-0.339,2.465-0.832
		c0.643-0.418,1.344-0.744,2.018-1.109c0.626-0.024,1.232-0.026,1.863-0.188c1.449-0.372,2.152-0.866,2.283-2.767
		c0.029-0.427,0.004-0.856,0.004-1.24c-0.759-1.252-1.824-2.009-3.182-2.285c-0.312-0.362-0.777-0.207-1.161-0.316
		c-1.201-0.342-2.285-0.932-3.375-1.497c-0.456-0.236-0.879-0.394-1.37-0.343c-1.084,0.113-1.999-0.315-2.941-0.854
		c-1.103,0.014-2.111-0.444-3.092-0.991c0.086-0.218-0.135-0.296-0.212-0.482c0.438-0.076,0.041-0.527,0.317-0.712
		c0.949-0.616,2.01-0.907,3.118-1.071c0.662-0.098,1.31-0.357,1.653-0.915c0.4-0.648,0.909-1.107,1.555-1.458
		c0.72,0,1.439-0.009,2.159,0.003c0.491,0.008,0.932-0.047,1.379-0.331c0.604-0.383,1.291-0.569,2.042-0.552
		c0.642,0.015,1.275-0.156,1.887-0.379c0.781-0.286,1.563-0.571,2.352-0.837c0.538-0.182,1.085-0.458,1.631-0.462
		c0.606-0.005,1.139-0.371,1.745-0.25c0.229,0.045,0.434-0.153,0.539-0.239c1.03-0.84,1.587-1.943,1.657-3.286
		c0.017-0.326-0.386-0.53-0.193-0.93c-0.125-0.107-0.243-0.262-0.398-0.333c-0.52-0.238-0.877-0.807-1.492-0.817
		c-0.842-0.014-1.648-0.372-2.502-0.227c-0.188,0.032-0.4-0.176-0.455-0.159c-0.535,0.17-0.713-0.383-1.102-0.516
		c-0.659-0.225-1.312-0.158-1.779-0.184c-1.001-0.312-1.333-1.071-1.804-1.696c0.191-0.742,1.063-1.212,0.888-1.914
		c-0.263-0.343-0.415-0.542-0.538-0.704c-0.485,0-0.914,0-1.271,0c-0.559,0.306-1.065,0.568-1.555,0.859
		c-0.179,0.106-0.314,0.403-0.473,0.405c-0.776,0.009-1.138,0.587-1.495,0.908c-0.249,0.566-0.019,0.966,0.199,1.202
		c0.891,0.963,1.784,1.93,3.127,2.332c0.501,0.15,0.978,0.03,1.443,0.129c0.254,0.249,0.657,0.279,0.82,0.609
		c0.919,0.036,1.785,0.383,2.613,0.241c0.429,0.321,0.363,0.669,0.341,0.818c-0.43,0.708-1.026,0.387-1.509,0.565
		c-0.844,0.31-1.652,0.708-2.554,0.892c-0.424,0.086-0.861-0.039-1.234,0.128c-0.642,0.288-1.346,0.373-1.992,0.368
		c-1.339-0.01-2.645,0.126-3.918,0.486c-0.764,0.215-1.592,0.333-2.197,0.956c-0.154,0.158-0.399,0.278-0.619,0.312
		c-0.771,0.119-1.466,0.469-2.21,0.669c-0.223,0.06-0.418,0.179-0.666,0.224c-0.757,0.135-1.57,0.145-2.16,0.78
		c-0.128,0.138-0.339,0.234-0.528,0.275c-0.908,0.196-1.652,0.713-2.434,1.169c-0.425,0.248-0.835,0.592-1.378,0.568
		c-0.52,0.377-0.881,0.873-1.08,1.479c-0.315,0.967-0.435,1.958-0.351,2.784c0.528,1.494,1.607,2.216,2.76,2.863
		c0.468,0,0.936-0.006,1.403,0.001c0.317,0.006,0.652-0.029,0.948,0.058c0.554,0.162,1.091,0.405,1.679,0.366
		c0.637-0.041,1.201,0.319,1.856,0.24C36.554,43.702,37.256,44.023,37.986,44.285z"/>
	<path style="fill-rule:evenodd;clip-rule:evenodd;" d="M37.986,44.285c-0.729-0.262-1.432-0.583-2.188-0.492
		c-0.656,0.079-1.22-0.281-1.856-0.24c-0.588,0.039-1.125-0.204-1.679-0.366c-0.296-0.087-0.631-0.052-0.948-0.058
		c-0.468-0.007-0.936-0.001-1.403-0.001c-1.153-0.647-2.232-1.369-2.76-2.863c-0.083-0.826,0.036-1.817,0.351-2.784
		c0.198-0.606,0.56-1.102,1.08-1.479c0.542,0.023,0.953-0.32,1.378-0.568c0.782-0.456,1.526-0.973,2.434-1.169
		c0.188-0.041,0.399-0.137,0.528-0.275c0.59-0.635,1.403-0.645,2.16-0.78c0.247-0.044,0.443-0.164,0.666-0.224
		c0.744-0.2,1.439-0.55,2.21-0.669c0.22-0.034,0.465-0.154,0.619-0.312c0.605-0.624,1.434-0.741,2.197-0.956
		c1.273-0.36,2.579-0.496,3.918-0.486c0.646,0.005,1.351-0.08,1.992-0.368c0.373-0.167,0.811-0.042,1.234-0.128
		c0.901-0.184,1.71-0.582,2.554-0.892c0.482-0.178,1.079,0.144,1.509-0.565c0.022-0.149,0.088-0.497-0.341-0.818
		c-0.828,0.142-1.694-0.205-2.613-0.241c-0.163-0.331-0.566-0.361-0.82-0.609c-0.466-0.1-0.942,0.021-1.443-0.129
		c-1.343-0.402-2.236-1.369-3.127-2.332c-0.218-0.236-0.448-0.636-0.199-1.202c0.357-0.321,0.719-0.898,1.495-0.908
		c0.158-0.002,0.294-0.299,0.473-0.405c0.489-0.292,0.996-0.553,1.555-0.859c0.356,0,0.785,0,1.271,0
		c0.123,0.162,0.275,0.361,0.538,0.704c0.175,0.702-0.696,1.172-0.888,1.914c0.471,0.625,0.803,1.384,1.804,1.696
		c0.468,0.026,1.12-0.041,1.779,0.184c0.389,0.133,0.566,0.687,1.102,0.516c0.055-0.018,0.267,0.19,0.455,0.159
		c0.854-0.145,1.66,0.212,2.502,0.227c0.615,0.01,0.973,0.579,1.492,0.817c0.155,0.072,0.273,0.226,0.398,0.333
		c-0.192,0.399,0.21,0.604,0.193,0.93c-0.07,1.343-0.627,2.446-1.657,3.286c-0.105,0.086-0.311,0.284-0.539,0.239
		c-0.606-0.12-1.139,0.245-1.745,0.25c-0.546,0.004-1.093,0.28-1.631,0.462c-0.788,0.267-1.57,0.551-2.352,0.837
		c-0.611,0.223-1.245,0.394-1.887,0.379c-0.751-0.018-1.438,0.168-2.042,0.552c-0.447,0.284-0.888,0.339-1.379,0.331
		c-0.72-0.012-1.439-0.003-2.159-0.003c-0.646,0.35-1.154,0.81-1.555,1.458c-0.344,0.558-0.991,0.817-1.653,0.915
		c-1.108,0.164-2.169,0.455-3.118,1.071c-0.276,0.185,0.121,0.636-0.317,0.712c0.077,0.187,0.298,0.265,0.212,0.482
		c0.981,0.547,1.989,1.005,3.092,0.991c0.942,0.539,1.857,0.968,2.941,0.854c0.491-0.051,0.914,0.106,1.37,0.343
		c1.09,0.565,2.174,1.155,3.375,1.497c0.384,0.109,0.85-0.046,1.161,0.316c1.357,0.276,2.423,1.033,3.182,2.285
		c0,0.384,0.025,0.813-0.004,1.24c-0.131,1.9-0.834,2.395-2.283,2.767c-0.631,0.162-1.237,0.164-1.863,0.188
		c-0.674,0.365-1.375,0.691-2.018,1.109c-0.76,0.493-1.63,0.599-2.465,0.832c-0.741,0.206-1.533,0.281-2.204,0.667
		c-0.406,0.233-0.802,0.487-1.217,0.714c-0.913,0.498-1.801,1.047-2.686,1.596c-0.458,0.283-0.896,0.575-1.434,0.716
		c-0.274,0.071-0.597,0.171-0.791,0.426c-0.914,1.199-2.282,1.704-3.552,2.372c-0.77,0.405-1.568,0.745-2.298,1.253
		c-0.566,0.395-1,0.889-1.479,1.345c-0.619,0.59-1.372,0.918-2.16,1.038c-0.913,0.139-1.819-0.262-2.399-0.906
		c-1.026-1.139-2.311-1.821-3.628-2.49c-1.117-0.566-2.09-1.267-2.812-2.337c-0.262-0.389-0.513-0.834-0.89-1.147
		s-0.373-0.786-0.523-1.188c-0.104-0.276-0.021-0.576-0.199-0.895c-0.241-0.43,0.183-1.277,0.754-1.574
		c0.426-0.223,0.7-0.522,0.95-0.907c0.388-0.598,0.891-0.983,1.666-1.095c0.396-0.057,0.799-0.184,1.211-0.171
		c0.343,0.011,0.541-0.263,0.822-0.366c0.567-0.208,1.101-0.577,1.733-0.488c0.324,0.045,0.527-0.177,0.764-0.263
		c0.723-0.264,1.428-0.563,2.192-0.699c0.859-0.153,1.635-0.575,2.47-0.822c0.517-0.153,1.069-0.282,1.566-0.339
		c0.687-0.079,1.352-0.437,2.063-0.264c0.343,0.084,0.525-0.3,0.886-0.24c0.283,0.046,0.625,0.141,0.906-0.149
		c0.091-0.093,0.337-0.043,0.513-0.045c0.504-0.004,1.016-0.059,1.51,0.01c1.303,0.18,2.384-0.464,3.529-0.876
		C37.741,44.781,37.889,44.646,37.986,44.285z"/>
</g>
</svg>
