<svg xmlns="http://www.w3.org/2000/svg" xml:space="preserve" width="72px" height="72px" viewBox="0 0 72 72">
    <g fill="currentColor">
        <path d="M51.796 39.431c-1.303.479-2.203 1.458-3.313 2.099-1.295.747-2.269 1.933-3.713 2.5-.846.332-1.632.692-2.57.599-.689-.475-1.118-1.166-1.451-1.937-.202-.467-.393-.939-.976-1.103-.181-.051-.384-.265-.446-.448-.135-.394-.436-.628-.705-.896-.737-.734-1.526-1.427-1.836-2.479-.027-.091-.146-.155-.234-.243h-1.074c-.293.222-.577.488-.673.871-.084.334-.326.527-.543.747-.607.614-1.194 1.252-1.837 1.826-.816.729-1.435 1.583-1.817 2.599-.312.831-.889 1.155-1.748 1.079-.321-.029-.65.021-.971-.011-.549-.053-1.078-.171-1.473-.613-.421-.474-1.027-.723-1.445-1.215-.407-.478-.854-.93-1.425-1.236-.119-.063-.23-.127-.356-.183-.667-.294-1.293-.671-1.739-1.266-.183-.244-.535-.182-.692-.469-.565.144-1.201-.218-1.735.235-.659-.113-1.055.402-1.576.628-1.283.556-2.431 1.304-3.551 2.123-.396.29-.897.438-1.464.705-.4 0-.945-.046-1.477.013-.51.057-.909-.405-1.393-.213l-.56-.56v-.862c.631-.887 1.325-1.699 2.268-2.293.38-.239.725-.61.954-.999a3.24 3.24 0 0 1 1.419-1.318c.231-.11.387-.229.548-.416.622-.72.986-1.675 1.931-2.105.153-.07.342-.23.371-.376.105-.549.588-.601.976-.819.5.055.866.356 1.202.717.476.509.958.974 1.711 1.099.247.041.552.237.765.497.318.387.708.716 1.057 1.078.267.276.539.544.905.684.158.061.32.082.449.228.778.877 1.865 1.421 2.539 2.389h.746c.28-.281.689-.561.917-.946a5.24 5.24 0 0 1 1.89-1.888c.607-.363.873-1.042 1.167-1.675-.311-.729-.758-1.397-1.097-2.125a4.7 4.7 0 0 0-.961-1.323c-.528-.518-.778-1.223-1.288-1.74-.239-.242-.055-.538-.141-.806-.284-.876-.252-1.987.032-2.75 1.146-.557 2.023-.45 2.547.414.145.239.439.436.453.663.033.543.574.451.78.747.543-.156.982.383 1.454.224l.818.744c-.061.592.4.946.534 1.441.79.493 1.643.718 2.56.607.663-.08 1.112-.51 1.437-1.069.26-.448.673-.773.929-1.233.184-.331.529-.542 1.094-.703.658.062 1.354-.149 1.723-1.043.338-.821.973-1.223 1.883-1.129.106.011.214.001.266.001l.849.791c-.335.54.418 1.013.072 1.583-.294.484.123 1.13-.415 1.58-1.352 1.253-2.025 3-2.938 4.709v.664c.318.605.528 1.239 1.078 1.565 1.056.628 1.514 1.723 2.316 2.673.171.04.389.333.838.237.232-.233.531-.535.833-.833.346-.341.651-.758 1.152-.86.29-.059.497-.265.556-.445.197-.602.765-.759 1.187-1.059.35-.248.694-.492.882-.857.339-.664.976-.942 1.542-1.316.074-.049.209-.007.306-.007l1.486-1.486h.918a8.7 8.7 0 0 0 1.95 1.535c.561.327.855.942 1.188 1.454.263.404.571.683.948.863.734.353 1.154.998 1.561 1.62.333.509.708.884 1.214 1.22.653.436 1.125 1.059.997 1.945-.024.174-.003.354-.003.519l-.473.473a4.3 4.3 0 0 1-1.826.286c-.769-.052-1.485-.238-2.043-.796-.182-.182-.395-.265-.605-.373-.957-.493-1.898-1.012-2.779-1.638-.528-.375-1.632-.729-2.444-.876-.13-.026-.237-.141-.392-.238M29.308 63.984c-.169.349.263.555.199.96-.124.226-.162.585-.53.832h-1.758c-.399-.456-.995-.678-1.509-1.051h-2.356c-1.096-.318-1.732-.888-1.997-2.069.155-.595-.361-1.382-.263-2.231.02-.171.339-1.577.436-1.764.304-.589.479-1.199.437-1.874a14 14 0 0 1-.001-1.512c.025-.515-.086-1.026.185-1.544.147-.283.143-.762.003-1.056-.328-.69-.113-1.392-.203-2.071.482-.479.482-.479.991-.57.484.578.732 1.313 1.073 1.976.723-.201.736-.982 1.343-1.306.916-.216 1.71.295 2.473.799.584.385 1.188.661 1.875.681.272.008.462.128.663.238.821.448 1.678.805 2.547 1.152.741.296 1.403.786 2.121 1.202l.183.015c.953.072 1.79-.178 2.668-.604.914-.443 1.841-.943 2.877-1.138.349-.065.728-.23.984-.468.626-.579 1.411-.766 2.172-1.029.321-.111.604-.277.889-.472.409-.279.88-.471 1.233-.652l1.399 1.399c.241 1.013-.212 2.18-.255 3.374-.021.615-.437 1.261-.805 1.804-.248.364-.499.775-.944 1.017-.247.134-.446.404-.604.703a2.4 2.4 0 0 1-1.044 1.019c-.169.083-.284.196-.409.31-.213.192-.52.371-.592.614-.17.573-.828.754-.965 1.332-.036.153-.204.244-.22.451-.05.641-.36 1.103-.955 1.429-.688.378-.866.625-1.281 1.493-.156.328-.379.575-.646.845h-1.125c-.807-.75-.421-1.725-.531-2.627-.673-1.212-1.009-2.521-.827-3.912-.13-.151-.253-.172-.419-.074-.083 1.414-.141 2.854-.896 4.25v1.851l-.599.532c-.64.113-1.198-.219-1.537-.759-.325-.52-.709-.882-1.215-1.219-.529-.353-.932-.894-1.415-1.375.145-.613-.196-1.159-.539-1.566-.49-.581-.973-1.212-1.704-1.575-.306-.151-.566-.455-.767-.746-.812-1.177-1.974-2.108-2.46-3.516-.042-.122-.196-.206-.354-.364-.025-.798.115-1.685-.33-2.492-.385-.01-.49.372-.726.524-.145.593.084 1.118.299 1.608.112.256.179.555.085.698-.282.434-.151.886-.202 1.313.291.733.905 1.176 1.419 1.697.635.644 1.295 1.253 1.621 2.14.205.559.799.841 1.063 1.395.393.808 1.145 1.332 1.745 1.983"/>
        <path d="M53.064 57.925c.539-1.004 1.518-1.238 2.572-1.493.096-.095-.019-.285.02-.452-.133-.184-.33-.07-.575-.145-.246-.365-.819-.562-.932-1.137-.068-.347-.235-.619-.443-.899-.41-.555-.649-1.184-.644-1.891.007-.792-.035-1.586.013-2.374.046-.754-.173-1.442-.545-2.042-.282-.455-.334-.891-.331-1.379.005-1.008.021-2.016-.008-3.022-.013-.431.091-.813.269-1.194.411-.323.892-.315 1.253-.275 1.354.595 2.371 1.512 3.557 2.158.091.049.17.137.23.224.599.86 1.565 1.277 2.37 1.867.583.428.994.999 1.59 1.413v1.109l-.62 1.188v4.428c0 .144-.058.329.01.426.566.804.031 1.468-.353 2.053-.261.396-.387.874-.73 1.216-.587.584-1.103 1.271-1.773 1.73-.902.618-1.514 1.554-2.474 2.091-.584.326-1.161.66-1.857.875-.462-.384-.573-.914-.589-1.452-.032-1.008-.01-2.016-.01-3.023m-34.969 3.341h-1c-1.303-1.303-2.598-2.602-3.897-3.896-.32-.318-.625-.634-.749-1.094-.06-.22-.164-.463-.325-.614-.608-.571-.807-1.377-.91-2.095-.102-.712-.288-1.434-.27-2.168.002-.107-.039-.237.006-.32.554-1.007-.288-1.899-.222-2.863-.389-.304-.152-.729-.214-1.054.867-1.118 2.084-1.743 3.18-2.524.915-.653 1.758-1.396 2.742-1.967.519-.301 1-.705 1.574-1.045.391-.021.848-.096 1.241.252.299.367.362.827.342 1.326-.029.718-.033 1.439.001 2.157.025.537-.17 1.002-.368 1.469-.428 1.011-.765 2.053-.705 3.153.056 1.031-.155 2.027-.25 3.038-.045.487-.335.936-.451 1.432-.053.228-.195.488-.185.689-.559.498-1.27.556-1.721 1.045.432.492.915.865 1.611.761.231.162.321.513.608.449.812.926.544 2.008.593 3.033-.181.252-.193.6-.631.836m16.144-47.805c.035-.54-.054-1.022.122-1.371.202-.401.097-.765.114-1.138.02-.419.409-.756.209-1.171l.558-.564h1.299l.475.475c.09.336.221.688.27 1.05.048.354-.035.726.021 1.077.094.597.34 1.145.625 1.684.174.328.384.556.678.715.621-.493.247-1.649 1.26-1.799 1.263 1.093 1.263 1.094 1.099 4.453-.492.616-1.193.859-1.918 1.072-.318.093-.628.334-.936.324-.916-.031-1.686.609-2.632.475-.552-.078-1.056-.127-1.557-.436-.615-.379-1.316-.617-2.005-.435l-1.103-1.108c0-.791.031-1.725-.009-2.657-.035-.829.275-1.389 1.071-1.643a.64.64 0 0 0 .312-.194c.585.231.976.616 1.002 1.273.011.264.292.267.329.458.394-.088.502-.397.716-.54M48.43 57.36c.389-.761.141-1.523.358-2.146.237-.682.065-1.325.181-1.938-.142-.537-.543-.836-.873-1.188v-.693c.2-.677.619-1 .979-1.358.51.076.521.063.964.563 0 .683.159 1.417-.04 2.036-.251.781-.293 1.583-.125 2.283.205.854.063 1.681.199 2.566.217.354.288.831.45 1.255.18.469-.023.963.191 1.315.297.488.136.963.18 1.438.042.463.009.934-.021 1.372-.271.931-.895 1.511-2.042 1.863-.304 0-.877-.029-1.445.007-.815.052-1.649.12-2.278.729-.25.242-.671-.038-.833.345-.315-.136-.502.19-.815.224-.262.053-.428-.273-.692-.275-.099-.184-.24-.351-.276-.538-.048-.242-.012-.501-.012-.672.269-.808.917-1.293 1.256-1.937.377-.714.991-1.165 1.434-1.777.965-1.341 2.265-2.355 3.26-3.474M19.37 26.637c.744.675 1.454 1.337 1.94 2.199.555.984 1.277 1.805 2.252 2.389.054.032.137.017.273.031.084-.326.094-.583-.08-.953-.301-.64-.631-1.265-1.036-1.83-.429-.599-.592-1.21-.535-1.836.232-.457.586-.337.939-.363.439.399.827.836 1.063 1.449.238.615.779 1.09.897 1.786.145.857.66 1.52 1.109 2.242.627 1.01 1.066 2.14 1.539 3.239.116.271.052.619.068.889-.296.287-.342.638-.497.934-.674.421-1.252.312-1.855-.209-.369-.318-.82-.553-1.313-.723-.657-.227-1.173-.751-1.854-.992-.383-.135-.494-.65-.725-.983-.225-.325-.477-.515-.776-.746-.651-.5-1.33-.932-2.076-1.257-.28-.122-.397-.397-.632-.523v-.666c.395-.511 1.177-.471 1.505-1.149.037-.655.054-1.384-.366-2.03-.091-.14-.052-.273-.055-.408 0-.134-.06-.29.215-.49m32.507.722h.508c.072.832.001 1.678.041 2.513.419.454 1.162.301 1.495.85.048.079.007.212.007.394-.344.466-.916.7-1.423 1.036-.698.462-1.492.793-1.92 1.638-.238.47-.747.808-1.248 1.095-.676.386-1.33.82-1.94 1.301-.271.214-.598.321-.853.581-.429.437-1.034.312-1.559.31-.729-.526-.873-1.249-.774-1.93.27-.673.735-1.137.645-1.812.432-.719.739-1.511 1.271-2.172.26-.323.434-.662.479-1.104.035-.347.259-.677.411-1.01.447-.979.965-1.907 1.902-2.556.228-.032.46.013.652.317v.883c-.552.936-1.03 1.923-1.276 3.125.713-.219 1.308-.436 1.761-1.061.585-.806 1.037-1.719 1.821-2.398M31.016 47.127c.242-1.027 1.111-1.125 1.803-1.551l.865-1.694c1.004-.685 2.136-.527 3.243-.538.414-.005.795.18.964.509.638 1.246 1.588 2.148 2.837 2.753v.893c-.255.692-.771 1.084-1.228 1.514-.606.57-1.44.533-2.088.326-.791-.254-1.544-.046-2.303-.162-.614.433-1.311.109-1.896.22-.77-.313-1.41-.711-1.938-1.434.089-.261-.231-.512-.259-.836m-.165-22.044c.033-1.57-.459-3.132-.198-4.801l.527-.482c.482.172.911-.26 1.457-.246.666.018 1.167.316 1.684.629.185.112.597 1.272.598 1.574q.004 2.257.002 4.515c0 .578-.377.938-.699 1.249-1.375.353-2.069-.557-2.736-1.412-.24-.305-.546-.606-.635-1.026m7.386 2.727-.662-.284c-.032-.265-.276-.443-.289-.74-.019-.441.072-.873-.175-1.33-.193-.359.086-.893-.237-1.304-.07-.089-.062-.308-.001-.419.377-.702.171-1.453.197-2.18.017-.471.102-.878.445-1.223.361-.363.82-.488 1.293-.52.608-.042 1.222-.01 1.824-.01.327.148.293.549.543.747-.146 1.383.283 2.734.228 4.036-.332.64-.587 1.27-1.15 1.646-.693.461-1.003 1.386-2.016 1.581M24.148 45.367c.129-.143.383-.011.453-.238.744.212 1.259.738 1.81 1.243a54 54 0 0 0 2.943 2.508c.383.304.858.595 1.326.666.727.111 1.169.55 1.64 1.027v.847c-.268.499-.798.588-1.332.766-1.2-.418-2.191-1.248-3.119-2.173-.268-.268-.539-.515-.884-.712-.339-.194-.558-.589-.802-.932-.41-.577-.984-1.038-1.496-1.54-.416-.408-.666-.868-.539-1.462m22.111.128c.324.124.532-.125.967-.275.047.083.171.229.215.396.113.435-.091.813-.308 1.159-.13.208-.354.354-.523.54-.423.465-.901.865-1.245 1.418-.224.358-.612.64-1.002.902-.583.393-1.047.968-1.55 1.478-.615.624-1.377.832-2.226.884-.353.021-.551-.264-.86-.282-.087-.142-.024-.361-.236-.446l.074-.15c.233-.471.583-.794 1.023-1.106.557-.395 1.089-.801 1.727-1.056a.8.8 0 0 0 .245-.188c1.158-1.18 2.604-2.032 3.699-3.274m-10.872 6.92c-.6-.195-.922-.523-1.101-.995-.117-.27.323-.359.192-.721.412.082.696-.248 1.089-.231.395.017.792.004 1.187.004.159.306.643.155.735.563.037.676-.343 1.106-1.064 1.381z"/>
    </g>
</svg>
