<?xml version="1.0" encoding="iso-8859-1"?>
<!-- Generator: Adobe Illustrator 16.0.0, SVG Export Plug-In . SVG Version: 6.00 Build 0)  -->
<!DOCTYPE svg PUBLIC "-//W3C//DTD SVG 1.1//EN" "http://www.w3.org/Graphics/SVG/1.1/DTD/svg11.dtd">
<svg version="1.1" id="Layer_1" xmlns="http://www.w3.org/2000/svg" xmlns:xlink="http://www.w3.org/1999/xlink" x="0px" y="0px"
	 width="72.36px" height="72.18px" viewBox="0 0 72.36 72.18" style="enable-background:new 0 0 72.36 72.18;" xml:space="preserve"
	>
<g>
	<path style="fill-rule:evenodd;clip-rule:evenodd;fill:none;" d="M79.416,79.631c-28.8,0-57.6,0-86.399,0
		c0-28.871,0-57.743,0-86.615c28.8,0,57.6,0,86.399,0C79.416,21.888,79.416,50.76,79.416,79.631z M51.796,39.431
		c0.154,0.098,0.262,0.212,0.385,0.233c0.813,0.146,1.916,0.501,2.444,0.876c0.881,0.626,1.822,1.145,2.779,1.638
		c0.211,0.108,0.424,0.191,0.605,0.373c0.558,0.558,1.274,0.744,2.043,0.796c0.633,0.043,1.237-0.063,1.826-0.286
		c0.152-0.153,0.305-0.306,0.473-0.473c0-0.164-0.021-0.345,0.003-0.519c0.128-0.887-0.344-1.51-0.997-1.945
		c-0.506-0.336-0.881-0.711-1.214-1.22c-0.406-0.622-0.826-1.268-1.561-1.62c-0.377-0.18-0.686-0.458-0.948-0.863
		c-0.333-0.511-0.628-1.127-1.188-1.454c-0.728-0.423-1.376-0.93-1.95-1.535c-0.317,0-0.631,0-0.918,0
		c-0.51,0.509-0.993,0.993-1.486,1.486c-0.097,0-0.231-0.042-0.306,0.007c-0.566,0.374-1.203,0.652-1.542,1.316
		c-0.188,0.365-0.532,0.609-0.882,0.857c-0.422,0.3-0.989,0.457-1.187,1.059c-0.059,0.181-0.266,0.387-0.556,0.445
		c-0.501,0.103-0.807,0.52-1.152,0.86c-0.302,0.298-0.601,0.6-0.833,0.833c-0.449,0.096-0.667-0.197-0.838-0.237
		c-0.803-0.95-1.261-2.045-2.316-2.673c-0.55-0.326-0.76-0.96-1.078-1.565c0-0.211,0-0.499,0-0.664
		c0.913-1.709,1.587-3.456,2.938-4.709c0.538-0.45,0.121-1.095,0.415-1.58c0.346-0.57-0.407-1.043-0.072-1.583
		c-0.292-0.272-0.554-0.517-0.849-0.791c-0.052,0-0.159,0.009-0.266-0.001c-0.91-0.094-1.545,0.309-1.883,1.129
		c-0.368,0.894-1.064,1.105-1.723,1.043c-0.564,0.161-0.91,0.372-1.094,0.703c-0.256,0.459-0.669,0.785-0.929,1.233
		c-0.324,0.559-0.773,0.989-1.437,1.069c-0.917,0.111-1.77-0.114-2.56-0.607c-0.134-0.496-0.595-0.849-0.534-1.441
		c-0.249-0.227-0.514-0.467-0.818-0.744c-0.472,0.159-0.911-0.38-1.454-0.224c-0.206-0.296-0.748-0.203-0.78-0.747
		c-0.014-0.227-0.308-0.423-0.453-0.663c-0.523-0.863-1.401-0.97-2.547-0.414c-0.284,0.764-0.316,1.875-0.032,2.75
		c0.086,0.268-0.098,0.564,0.141,0.806c0.51,0.517,0.759,1.222,1.288,1.74c0.385,0.378,0.735,0.836,0.961,1.323
		c0.339,0.728,0.786,1.396,1.097,2.125c-0.294,0.633-0.56,1.312-1.167,1.675c-0.801,0.479-1.417,1.083-1.89,1.888
		c-0.228,0.386-0.637,0.665-0.917,0.946c-0.286,0-0.496,0-0.746,0c-0.674-0.968-1.76-1.512-2.539-2.389
		c-0.129-0.146-0.291-0.167-0.449-0.228c-0.366-0.14-0.638-0.407-0.905-0.684c-0.35-0.362-0.739-0.691-1.057-1.078
		c-0.213-0.26-0.518-0.457-0.765-0.497c-0.753-0.125-1.235-0.589-1.711-1.099c-0.336-0.36-0.702-0.662-1.202-0.717
		c-0.388,0.219-0.871,0.27-0.976,0.819c-0.028,0.146-0.217,0.307-0.371,0.376c-0.945,0.43-1.31,1.386-1.931,2.105
		c-0.161,0.187-0.317,0.305-0.548,0.416c-0.595,0.284-1.068,0.723-1.419,1.318c-0.229,0.389-0.574,0.76-0.954,0.999
		c-0.943,0.594-1.637,1.406-2.268,2.293c0,0.288,0,0.576,0,0.862c0.178,0.178,0.356,0.355,0.56,0.56
		c0.483-0.192,0.882,0.27,1.393,0.213c0.532-0.059,1.077-0.013,1.477-0.013c0.567-0.267,1.068-0.415,1.464-0.705
		c1.12-0.819,2.268-1.567,3.551-2.123c0.521-0.226,0.917-0.741,1.576-0.628c0.535-0.453,1.17-0.092,1.735-0.235
		c0.157,0.287,0.51,0.225,0.692,0.469c0.446,0.595,1.072,0.972,1.739,1.266c0.126,0.056,0.238,0.119,0.356,0.183
		c0.57,0.307,1.018,0.759,1.425,1.236c0.418,0.492,1.024,0.741,1.445,1.215c0.395,0.442,0.924,0.561,1.473,0.613
		c0.321,0.031,0.649-0.019,0.971,0.011c0.859,0.076,1.437-0.248,1.748-1.079c0.382-1.016,1.001-1.87,1.817-2.599
		c0.643-0.574,1.23-1.212,1.837-1.826c0.218-0.22,0.459-0.413,0.543-0.747c0.097-0.383,0.38-0.649,0.673-0.871
		c0.372,0,0.729,0,1.074,0c0.088,0.088,0.207,0.152,0.234,0.243c0.31,1.053,1.099,1.745,1.836,2.479
		c0.27,0.268,0.57,0.502,0.705,0.896c0.063,0.184,0.266,0.397,0.446,0.448c0.583,0.163,0.773,0.636,0.976,1.103
		c0.333,0.771,0.762,1.462,1.451,1.937c0.938,0.094,1.725-0.267,2.57-0.599c1.444-0.567,2.418-1.753,3.713-2.5
		C49.593,40.889,50.494,39.909,51.796,39.431z M29.308,63.984c-0.6-0.651-1.353-1.176-1.74-1.985
		c-0.264-0.554-0.858-0.836-1.063-1.395c-0.326-0.887-0.986-1.496-1.621-2.14c-0.514-0.521-1.128-0.964-1.419-1.697
		c0.051-0.427-0.081-0.879,0.202-1.313c0.093-0.144,0.026-0.442-0.085-0.698c-0.215-0.49-0.444-1.016-0.299-1.608
		c0.235-0.152,0.34-0.534,0.726-0.524c0.445,0.808,0.305,1.694,0.33,2.492c0.158,0.158,0.312,0.242,0.354,0.364
		c0.486,1.407,1.648,2.339,2.46,3.516c0.2,0.291,0.461,0.595,0.767,0.746c0.731,0.363,1.214,0.994,1.704,1.575
		c0.343,0.407,0.684,0.953,0.539,1.566c0.482,0.481,0.886,1.022,1.415,1.375c0.505,0.337,0.89,0.699,1.215,1.219
		c0.338,0.54,0.896,0.872,1.537,0.759c0.231-0.205,0.418-0.372,0.599-0.532c0-0.665,0-1.312,0-1.851
		c0.755-1.396,0.812-2.836,0.896-4.25c0.166-0.098,0.289-0.077,0.419,0.074c-0.183,1.391,0.153,2.7,0.827,3.912
		c0.11,0.902-0.276,1.877,0.531,2.627c0.378,0,0.764,0,1.125,0c0.267-0.27,0.489-0.517,0.646-0.845
		c0.415-0.868,0.594-1.115,1.281-1.493c0.595-0.326,0.905-0.788,0.955-1.429c0.016-0.207,0.184-0.298,0.22-0.451
		c0.137-0.578,0.795-0.759,0.965-1.332c0.072-0.243,0.379-0.422,0.592-0.614c0.125-0.113,0.24-0.227,0.409-0.31
		c0.447-0.22,0.818-0.591,1.044-1.019c0.158-0.299,0.357-0.569,0.604-0.703c0.445-0.241,0.696-0.652,0.944-1.017
		c0.368-0.543,0.783-1.188,0.805-1.804c0.043-1.194,0.496-2.361,0.255-3.374c-0.511-0.511-0.912-0.912-1.399-1.399
		c-0.354,0.182-0.824,0.373-1.233,0.652c-0.284,0.194-0.567,0.36-0.889,0.472c-0.761,0.264-1.546,0.45-2.172,1.029
		c-0.257,0.237-0.636,0.402-0.984,0.468c-1.036,0.194-1.963,0.694-2.877,1.138c-0.879,0.427-1.716,0.677-2.668,0.604
		c-0.07-0.005-0.139-0.011-0.183-0.015c-0.717-0.416-1.38-0.906-2.121-1.202c-0.869-0.348-1.726-0.704-2.547-1.152
		c-0.201-0.11-0.391-0.23-0.663-0.238c-0.688-0.02-1.291-0.296-1.875-0.681c-0.763-0.504-1.557-1.015-2.473-0.799
		c-0.606,0.323-0.62,1.104-1.343,1.306c-0.341-0.663-0.589-1.397-1.073-1.976c-0.509,0.091-0.509,0.091-0.991,0.57
		c0.09,0.68-0.125,1.381,0.203,2.071c0.14,0.294,0.145,0.772-0.003,1.056c-0.271,0.518-0.16,1.029-0.185,1.544
		c-0.024,0.503-0.03,1.01,0.001,1.512c0.042,0.675-0.132,1.285-0.437,1.874c-0.097,0.187-0.417,1.593-0.436,1.764
		c-0.098,0.85,0.417,1.637,0.263,2.231c0.265,1.182,0.901,1.751,1.997,2.069c0.655,0,1.518,0,2.356,0
		c0.515,0.373,1.11,0.595,1.509,1.051c0.621,0,1.223,0,1.758,0c0.368-0.247,0.406-0.606,0.53-0.832
		C29.571,64.539,29.139,64.333,29.308,63.984z M53.064,57.925c0,1.007-0.021,2.016,0.009,3.021c0.016,0.538,0.127,1.068,0.589,1.452
		c0.696-0.215,1.273-0.549,1.857-0.875c0.96-0.537,1.571-1.473,2.474-2.091c0.671-0.46,1.187-1.146,1.773-1.73
		c0.344-0.342,0.47-0.819,0.73-1.216c0.384-0.585,0.919-1.249,0.353-2.053c-0.067-0.097-0.01-0.282-0.01-0.426
		c0-1.509,0-3.018,0-4.428c0.245-0.47,0.446-0.855,0.62-1.188c0-0.406,0-0.759,0-1.109c-0.596-0.414-1.007-0.985-1.59-1.413
		c-0.805-0.59-1.771-1.007-2.37-1.867c-0.061-0.087-0.14-0.175-0.23-0.224c-1.186-0.646-2.203-1.563-3.557-2.158
		c-0.361-0.04-0.842-0.048-1.253,0.275c-0.178,0.382-0.281,0.764-0.269,1.194c0.028,1.007,0.013,2.015,0.008,3.022
		c-0.003,0.488,0.049,0.924,0.331,1.379c0.372,0.6,0.591,1.288,0.545,2.042c-0.048,0.788-0.006,1.582-0.013,2.374
		c-0.006,0.707,0.233,1.336,0.644,1.891c0.208,0.28,0.375,0.553,0.443,0.899c0.112,0.575,0.686,0.771,0.932,1.137
		c0.245,0.074,0.442-0.039,0.575,0.145c-0.038,0.167,0.076,0.357-0.02,0.452C54.582,56.687,53.603,56.921,53.064,57.925z
		 M18.095,61.266c0.438-0.235,0.45-0.584,0.63-0.835c-0.049-1.025,0.218-2.107-0.593-3.033c-0.287,0.063-0.377-0.287-0.608-0.449
		c-0.696,0.104-1.179-0.269-1.611-0.761c0.451-0.489,1.163-0.547,1.721-1.045c-0.011-0.201,0.131-0.462,0.185-0.689
		c0.116-0.496,0.406-0.944,0.451-1.432c0.095-1.011,0.306-2.007,0.25-3.038c-0.06-1.101,0.277-2.143,0.705-3.153
		c0.198-0.467,0.394-0.932,0.368-1.469c-0.034-0.718-0.03-1.439-0.001-2.157c0.02-0.499-0.042-0.959-0.342-1.326
		c-0.393-0.348-0.85-0.273-1.241-0.252c-0.573,0.34-1.055,0.744-1.574,1.045c-0.984,0.57-1.827,1.313-2.742,1.967
		c-1.095,0.781-2.313,1.406-3.18,2.524c0.062,0.325-0.175,0.75,0.214,1.054c-0.066,0.964,0.776,1.856,0.222,2.863
		c-0.045,0.083-0.004,0.213-0.006,0.32c-0.018,0.734,0.168,1.456,0.27,2.168c0.103,0.718,0.301,1.523,0.91,2.095
		c0.161,0.151,0.265,0.395,0.325,0.614c0.125,0.46,0.429,0.775,0.749,1.094c1.3,1.294,2.595,2.593,3.897,3.896
		C17.446,61.266,17.804,61.266,18.095,61.266z M34.239,13.461c-0.214,0.144-0.322,0.452-0.717,0.54
		c-0.037-0.191-0.318-0.194-0.329-0.458c-0.027-0.657-0.417-1.042-1.002-1.273c0.003-0.003-0.022,0.023-0.048,0.048
		c-0.075,0.072-0.157,0.112-0.264,0.146c-0.796,0.253-1.106,0.813-1.071,1.643c0.04,0.932,0.009,1.866,0.009,2.657
		c0.408,0.41,0.734,0.737,1.103,1.108c0.689-0.183,1.39,0.055,2.005,0.435c0.501,0.309,1.005,0.358,1.557,0.436
		c0.947,0.134,1.716-0.505,2.632-0.475c0.308,0.01,0.617-0.231,0.936-0.324c0.725-0.213,1.426-0.457,1.918-1.072
		c0.164-3.359,0.164-3.36-1.099-4.453c-1.013,0.149-0.639,1.306-1.26,1.799c-0.294-0.16-0.504-0.387-0.678-0.715
		c-0.285-0.539-0.531-1.086-0.625-1.684c-0.056-0.351,0.027-0.723-0.021-1.077c-0.049-0.362-0.18-0.714-0.27-1.05
		c-0.169-0.169-0.322-0.322-0.475-0.475c-0.432,0-0.863,0-1.299,0c-0.175,0.177-0.352,0.355-0.558,0.564
		c0.199,0.415-0.19,0.752-0.209,1.171c-0.017,0.373,0.087,0.737-0.114,1.138C34.185,12.439,34.274,12.921,34.239,13.461z
		 M48.43,57.36c-0.995,1.119-2.295,2.133-3.261,3.472c-0.442,0.612-1.057,1.063-1.434,1.777c-0.339,0.644-0.987,1.129-1.256,1.937
		c0,0.171-0.036,0.43,0.012,0.672c0.036,0.188,0.178,0.354,0.276,0.538c0.265,0.002,0.431,0.328,0.692,0.275
		c0.313-0.033,0.5-0.359,0.815-0.224c0.162-0.383,0.583-0.103,0.833-0.345c0.629-0.608,1.463-0.677,2.278-0.729
		c0.568-0.036,1.142-0.007,1.445-0.007c1.147-0.353,1.771-0.933,2.042-1.863c0.029-0.438,0.063-0.909,0.021-1.372
		c-0.044-0.475,0.117-0.949-0.18-1.438c-0.215-0.353-0.012-0.847-0.191-1.315c-0.162-0.424-0.233-0.901-0.45-1.255
		c-0.137-0.886,0.006-1.713-0.199-2.566c-0.168-0.7-0.126-1.502,0.125-2.283c0.199-0.619,0.04-1.354,0.04-2.036
		c-0.443-0.499-0.454-0.486-0.964-0.563c-0.36,0.358-0.779,0.682-0.979,1.358c0,0.119,0,0.406-0.001,0.693
		c0.331,0.353,0.732,0.651,0.874,1.188c-0.115,0.613,0.057,1.257-0.181,1.938C48.571,55.837,48.819,56.6,48.43,57.36z M19.37,26.637
		c-0.275,0.2-0.215,0.356-0.213,0.49c0.002,0.135-0.036,0.268,0.055,0.408c0.42,0.646,0.403,1.375,0.366,2.03
		c-0.328,0.678-1.11,0.638-1.505,1.149c0,0.208,0,0.423,0,0.666c0.235,0.126,0.352,0.401,0.632,0.523
		c0.746,0.325,1.425,0.756,2.076,1.257c0.299,0.23,0.552,0.421,0.776,0.746c0.231,0.333,0.342,0.848,0.725,0.983
		c0.681,0.241,1.196,0.766,1.854,0.992c0.493,0.17,0.944,0.404,1.313,0.723c0.603,0.521,1.181,0.63,1.855,0.208
		c0.154-0.295,0.2-0.646,0.497-0.933c-0.016-0.271,0.048-0.619-0.068-0.889c-0.473-1.099-0.912-2.229-1.539-3.239
		c-0.449-0.723-0.964-1.385-1.109-2.242c-0.118-0.695-0.659-1.171-0.897-1.786c-0.237-0.613-0.625-1.05-1.063-1.449
		c-0.354,0.026-0.707-0.094-0.939,0.363c-0.057,0.626,0.106,1.238,0.535,1.836c0.404,0.564,0.734,1.189,1.036,1.83
		c0.174,0.37,0.164,0.627,0.08,0.953c-0.137-0.014-0.219,0.001-0.273-0.031c-0.976-0.583-1.697-1.404-2.252-2.389
		C20.824,27.974,20.113,27.312,19.37,26.637z M51.877,27.359c-0.784,0.678-1.236,1.592-1.821,2.398
		c-0.453,0.625-1.048,0.842-1.761,1.061c0.246-1.202,0.725-2.189,1.276-3.125c0-0.321,0-0.636,0-0.883
		c-0.192-0.304-0.425-0.349-0.652-0.317c-0.938,0.649-1.455,1.578-1.902,2.556c-0.152,0.333-0.376,0.663-0.411,1.01
		c-0.045,0.441-0.219,0.781-0.479,1.104c-0.532,0.661-0.84,1.453-1.271,2.172c0.091,0.674-0.375,1.138-0.645,1.812
		c-0.099,0.681,0.046,1.403,0.774,1.93c0.524,0.002,1.13,0.127,1.559-0.31c0.255-0.26,0.581-0.367,0.853-0.581
		c0.61-0.481,1.265-0.915,1.94-1.301c0.501-0.287,1.01-0.625,1.248-1.095c0.428-0.845,1.222-1.176,1.92-1.638
		c0.507-0.335,1.079-0.57,1.423-1.036c0-0.182,0.041-0.315-0.007-0.394c-0.333-0.548-1.076-0.396-1.495-0.85
		c-0.04-0.834,0.031-1.681-0.041-2.513C52.183,27.359,52.076,27.359,51.877,27.359z M31.016,47.127
		c0.028,0.324,0.348,0.575,0.259,0.835c0.527,0.723,1.168,1.12,1.938,1.434c0.585-0.11,1.282,0.213,1.896-0.22
		c0.758,0.116,1.512-0.092,2.303,0.162c0.647,0.207,1.481,0.244,2.088-0.326c0.457-0.43,0.973-0.821,1.228-1.514
		c0-0.23,0-0.544,0-0.893c-1.249-0.604-2.199-1.507-2.837-2.753c-0.169-0.329-0.55-0.514-0.964-0.509
		c-1.106,0.011-2.238-0.146-3.243,0.538c-0.285,0.558-0.587,1.152-0.865,1.694C32.127,46.002,31.258,46.1,31.016,47.127z
		 M30.851,25.083c0.089,0.42,0.395,0.721,0.634,1.026c0.667,0.855,1.361,1.765,2.736,1.412c0.322-0.311,0.699-0.671,0.699-1.249
		c0-1.505,0.002-3.01-0.002-4.515c-0.001-0.301-0.413-1.461-0.598-1.574c-0.518-0.313-1.019-0.611-1.684-0.629
		c-0.546-0.015-0.975,0.417-1.457,0.246c-0.225,0.206-0.409,0.374-0.527,0.482C30.392,21.951,30.884,23.513,30.851,25.083z
		 M38.237,27.81c1.014-0.194,1.323-1.12,2.016-1.581c0.563-0.376,0.818-1.006,1.15-1.646c0.056-1.301-0.373-2.653-0.228-4.036
		c-0.25-0.198-0.216-0.599-0.543-0.747c-0.603,0-1.216-0.032-1.824,0.01c-0.473,0.032-0.932,0.157-1.293,0.52
		c-0.344,0.345-0.429,0.752-0.445,1.223c-0.026,0.727,0.18,1.478-0.197,2.18c-0.06,0.111-0.068,0.33,0.001,0.419
		c0.323,0.411,0.043,0.944,0.237,1.304c0.247,0.457,0.156,0.888,0.175,1.33c0.013,0.297,0.257,0.475,0.289,0.74
		C37.792,27.619,38.005,27.71,38.237,27.81z M24.148,45.367c-0.128,0.594,0.123,1.054,0.539,1.462
		c0.512,0.502,1.086,0.963,1.496,1.54c0.244,0.343,0.462,0.737,0.802,0.932c0.345,0.197,0.616,0.444,0.884,0.712
		c0.928,0.925,1.919,1.755,3.119,2.173c0.533-0.178,1.063-0.267,1.332-0.766c0-0.288,0-0.572,0-0.847
		c-0.47-0.478-0.913-0.916-1.64-1.027c-0.468-0.071-0.942-0.362-1.326-0.666c-1.01-0.801-1.994-1.637-2.943-2.508
		c-0.55-0.505-1.065-1.031-1.81-1.243C24.532,45.356,24.277,45.225,24.148,45.367z M46.259,45.495
		c-1.096,1.242-2.541,2.094-3.699,3.273c-0.071,0.073-0.153,0.15-0.245,0.188c-0.638,0.255-1.17,0.661-1.727,1.056
		c-0.44,0.313-0.79,0.636-1.023,1.106c-0.024,0.05-0.049,0.099-0.074,0.15c0.212,0.085,0.149,0.305,0.237,0.446
		c0.309,0.019,0.507,0.304,0.859,0.282c0.849-0.052,1.61-0.26,2.226-0.884c0.503-0.51,0.967-1.085,1.55-1.478
		c0.39-0.263,0.778-0.544,1.002-0.902c0.344-0.553,0.822-0.953,1.245-1.418c0.17-0.186,0.394-0.332,0.523-0.54
		c0.217-0.347,0.421-0.725,0.308-1.159c-0.044-0.167-0.168-0.313-0.215-0.396C46.792,45.37,46.583,45.619,46.259,45.495z
		 M35.387,52.415c0.289,0,0.721,0,1.039,0c0.721-0.274,1.101-0.705,1.064-1.381c-0.092-0.407-0.576-0.257-0.735-0.563
		c-0.396,0-0.792,0.013-1.187-0.004c-0.393-0.017-0.677,0.313-1.089,0.231c0.13,0.361-0.309,0.451-0.192,0.721
		C34.465,51.892,34.788,52.22,35.387,52.415z"/>
	<path fill="currentColor" d="M51.796,39.431c-1.303,0.479-2.203,1.458-3.313,2.099
		c-1.295,0.747-2.269,1.933-3.713,2.5c-0.846,0.332-1.632,0.692-2.57,0.599c-0.689-0.475-1.118-1.166-1.451-1.937
		c-0.202-0.467-0.393-0.939-0.976-1.103c-0.181-0.051-0.384-0.265-0.446-0.448c-0.135-0.394-0.436-0.628-0.705-0.896
		c-0.737-0.734-1.526-1.427-1.836-2.479c-0.027-0.091-0.146-0.155-0.234-0.243c-0.345,0-0.702,0-1.074,0
		c-0.293,0.222-0.577,0.488-0.673,0.871c-0.084,0.334-0.326,0.527-0.543,0.747c-0.607,0.614-1.194,1.252-1.837,1.826
		c-0.816,0.729-1.435,1.583-1.817,2.599c-0.312,0.831-0.889,1.155-1.748,1.079c-0.321-0.029-0.65,0.021-0.971-0.011
		c-0.549-0.053-1.078-0.171-1.473-0.613c-0.421-0.474-1.027-0.723-1.445-1.215c-0.407-0.478-0.854-0.93-1.425-1.236
		c-0.119-0.063-0.23-0.127-0.356-0.183c-0.667-0.294-1.293-0.671-1.739-1.266c-0.183-0.244-0.535-0.182-0.692-0.469
		c-0.565,0.144-1.201-0.218-1.735,0.235c-0.659-0.113-1.055,0.402-1.576,0.628c-1.283,0.556-2.431,1.304-3.551,2.123
		c-0.396,0.29-0.897,0.438-1.464,0.705c-0.4,0-0.945-0.046-1.477,0.013c-0.51,0.057-0.909-0.405-1.393-0.213
		c-0.204-0.204-0.382-0.382-0.56-0.56c0-0.286,0-0.574,0-0.862c0.631-0.887,1.325-1.699,2.268-2.293
		c0.38-0.239,0.725-0.61,0.954-0.999c0.351-0.596,0.824-1.034,1.419-1.318c0.231-0.11,0.387-0.229,0.548-0.416
		c0.622-0.72,0.986-1.675,1.931-2.105c0.153-0.07,0.342-0.23,0.371-0.376c0.105-0.549,0.588-0.601,0.976-0.819
		c0.5,0.055,0.866,0.356,1.202,0.717c0.476,0.509,0.958,0.974,1.711,1.099c0.247,0.041,0.552,0.237,0.765,0.497
		c0.318,0.387,0.708,0.716,1.057,1.078c0.267,0.276,0.539,0.544,0.905,0.684c0.158,0.061,0.32,0.082,0.449,0.228
		c0.778,0.877,1.865,1.421,2.539,2.389c0.25,0,0.46,0,0.746,0c0.28-0.281,0.689-0.561,0.917-0.946
		c0.474-0.805,1.089-1.409,1.89-1.888c0.607-0.363,0.873-1.042,1.167-1.675c-0.311-0.729-0.758-1.397-1.097-2.125
		c-0.227-0.487-0.576-0.944-0.961-1.323c-0.528-0.518-0.778-1.223-1.288-1.74c-0.239-0.242-0.055-0.538-0.141-0.806
		c-0.284-0.876-0.252-1.987,0.032-2.75c1.146-0.557,2.023-0.45,2.547,0.414c0.145,0.239,0.439,0.436,0.453,0.663
		c0.033,0.543,0.574,0.451,0.78,0.747c0.543-0.156,0.982,0.383,1.454,0.224c0.304,0.277,0.569,0.517,0.818,0.744
		c-0.061,0.592,0.4,0.946,0.534,1.441c0.79,0.493,1.643,0.718,2.56,0.607c0.663-0.08,1.112-0.51,1.437-1.069
		c0.26-0.448,0.673-0.773,0.929-1.233c0.184-0.331,0.529-0.542,1.094-0.703c0.658,0.062,1.354-0.149,1.723-1.043
		c0.338-0.821,0.973-1.223,1.883-1.129c0.106,0.011,0.214,0.001,0.266,0.001c0.295,0.274,0.557,0.519,0.849,0.791
		c-0.335,0.54,0.418,1.013,0.072,1.583c-0.294,0.484,0.123,1.13-0.415,1.58c-1.352,1.253-2.025,3-2.938,4.709
		c0,0.165,0,0.452,0,0.664c0.318,0.605,0.528,1.239,1.078,1.565c1.056,0.628,1.514,1.723,2.316,2.673
		c0.171,0.04,0.389,0.333,0.838,0.237c0.232-0.233,0.531-0.535,0.833-0.833c0.346-0.341,0.651-0.758,1.152-0.86
		c0.29-0.059,0.497-0.265,0.556-0.445c0.197-0.602,0.765-0.759,1.187-1.059c0.35-0.248,0.694-0.492,0.882-0.857
		c0.339-0.664,0.976-0.942,1.542-1.316c0.074-0.049,0.209-0.007,0.306-0.007c0.493-0.494,0.977-0.977,1.486-1.486
		c0.287,0,0.601,0,0.918,0c0.574,0.604,1.223,1.112,1.95,1.535c0.561,0.327,0.855,0.942,1.188,1.454
		c0.263,0.404,0.571,0.683,0.948,0.863c0.734,0.353,1.154,0.998,1.561,1.62c0.333,0.509,0.708,0.884,1.214,1.22
		c0.653,0.436,1.125,1.059,0.997,1.945c-0.024,0.174-0.003,0.354-0.003,0.519c-0.168,0.167-0.32,0.319-0.473,0.473
		c-0.589,0.223-1.193,0.329-1.826,0.286c-0.769-0.052-1.485-0.238-2.043-0.796c-0.182-0.182-0.395-0.265-0.605-0.373
		c-0.957-0.493-1.898-1.012-2.779-1.638c-0.528-0.375-1.632-0.729-2.444-0.876C52.058,39.643,51.951,39.528,51.796,39.431z"/>
	<path fill="currentColor" d="M29.308,63.984c-0.169,0.349,0.263,0.555,0.199,0.96
		c-0.124,0.226-0.162,0.585-0.53,0.832c-0.536,0-1.138,0-1.758,0c-0.399-0.456-0.995-0.678-1.509-1.051c-0.838,0-1.702,0-2.356,0
		c-1.096-0.318-1.732-0.888-1.997-2.069c0.155-0.595-0.361-1.382-0.263-2.231c0.02-0.171,0.339-1.577,0.436-1.764
		c0.304-0.589,0.479-1.199,0.437-1.874c-0.031-0.502-0.025-1.009-0.001-1.512c0.025-0.515-0.086-1.026,0.185-1.544
		c0.147-0.283,0.143-0.762,0.003-1.056c-0.328-0.69-0.113-1.392-0.203-2.071c0.482-0.479,0.482-0.479,0.991-0.57
		c0.484,0.578,0.732,1.313,1.073,1.976c0.723-0.201,0.736-0.982,1.343-1.306c0.916-0.216,1.71,0.295,2.473,0.799
		c0.584,0.385,1.188,0.661,1.875,0.681c0.272,0.008,0.462,0.128,0.663,0.238c0.821,0.448,1.678,0.805,2.547,1.152
		c0.741,0.296,1.403,0.786,2.121,1.202c0.044,0.004,0.113,0.01,0.183,0.015c0.953,0.072,1.79-0.178,2.668-0.604
		c0.914-0.443,1.841-0.943,2.877-1.138c0.349-0.065,0.728-0.23,0.984-0.468c0.626-0.579,1.411-0.766,2.172-1.029
		c0.321-0.111,0.604-0.277,0.889-0.472c0.409-0.279,0.88-0.471,1.233-0.652c0.487,0.487,0.889,0.889,1.399,1.399
		c0.241,1.013-0.212,2.18-0.255,3.374c-0.021,0.615-0.437,1.261-0.805,1.804c-0.248,0.364-0.499,0.775-0.944,1.017
		c-0.247,0.134-0.446,0.404-0.604,0.703c-0.226,0.428-0.597,0.799-1.044,1.019c-0.169,0.083-0.284,0.196-0.409,0.31
		c-0.213,0.192-0.52,0.371-0.592,0.614c-0.17,0.573-0.828,0.754-0.965,1.332c-0.036,0.153-0.204,0.244-0.22,0.451
		c-0.05,0.641-0.36,1.103-0.955,1.429c-0.688,0.378-0.866,0.625-1.281,1.493c-0.156,0.328-0.379,0.575-0.646,0.845
		c-0.361,0-0.747,0-1.125,0c-0.807-0.75-0.421-1.725-0.531-2.627c-0.673-1.212-1.009-2.521-0.827-3.912
		c-0.13-0.151-0.253-0.172-0.419-0.074c-0.083,1.414-0.141,2.854-0.896,4.25c0,0.539,0,1.186,0,1.851
		c-0.18,0.16-0.368,0.327-0.599,0.532c-0.64,0.113-1.198-0.219-1.537-0.759c-0.325-0.52-0.709-0.882-1.215-1.219
		c-0.529-0.353-0.932-0.894-1.415-1.375c0.145-0.613-0.196-1.159-0.539-1.566c-0.49-0.581-0.973-1.212-1.704-1.575
		c-0.306-0.151-0.566-0.455-0.767-0.746c-0.812-1.177-1.974-2.108-2.46-3.516c-0.042-0.122-0.196-0.206-0.354-0.364
		c-0.025-0.798,0.115-1.685-0.33-2.492c-0.385-0.01-0.49,0.372-0.726,0.524c-0.145,0.593,0.084,1.118,0.299,1.608
		c0.112,0.256,0.179,0.555,0.085,0.698c-0.282,0.434-0.151,0.886-0.202,1.313c0.291,0.733,0.905,1.176,1.419,1.697
		c0.635,0.644,1.295,1.253,1.621,2.14c0.205,0.559,0.799,0.841,1.063,1.395C27.956,62.809,28.708,63.333,29.308,63.984z"/>
	<path fill="currentColor" d="M53.064,57.925c0.539-1.004,1.518-1.238,2.572-1.493
		c0.096-0.095-0.019-0.285,0.02-0.452c-0.133-0.184-0.33-0.07-0.575-0.145c-0.246-0.365-0.819-0.562-0.932-1.137
		c-0.068-0.347-0.235-0.619-0.443-0.899c-0.41-0.555-0.649-1.184-0.644-1.891c0.007-0.792-0.035-1.586,0.013-2.374
		c0.046-0.754-0.173-1.442-0.545-2.042c-0.282-0.455-0.334-0.891-0.331-1.379c0.005-1.008,0.021-2.016-0.008-3.022
		c-0.013-0.431,0.091-0.813,0.269-1.194c0.411-0.323,0.892-0.315,1.253-0.275c1.354,0.595,2.371,1.512,3.557,2.158
		c0.091,0.049,0.17,0.137,0.23,0.224c0.599,0.86,1.565,1.277,2.37,1.867c0.583,0.428,0.994,0.999,1.59,1.413
		c0,0.351,0,0.703,0,1.109c-0.174,0.332-0.375,0.718-0.62,1.188c0,1.41,0,2.919,0,4.428c0,0.144-0.058,0.329,0.01,0.426
		c0.566,0.804,0.031,1.468-0.353,2.053c-0.261,0.396-0.387,0.874-0.73,1.216c-0.587,0.584-1.103,1.271-1.773,1.73
		c-0.902,0.618-1.514,1.554-2.474,2.091c-0.584,0.326-1.161,0.66-1.857,0.875c-0.462-0.384-0.573-0.914-0.589-1.452
		C53.042,59.94,53.064,58.932,53.064,57.925z"/>
	<path fill="currentColor" d="M18.095,61.266c-0.291,0-0.648,0-1,0c-1.303-1.303-2.598-2.602-3.897-3.896
		c-0.32-0.318-0.625-0.634-0.749-1.094c-0.06-0.22-0.164-0.463-0.325-0.614c-0.608-0.571-0.807-1.377-0.91-2.095
		c-0.102-0.712-0.288-1.434-0.27-2.168c0.002-0.107-0.039-0.237,0.006-0.32c0.554-1.007-0.288-1.899-0.222-2.863
		c-0.389-0.304-0.152-0.729-0.214-1.054c0.867-1.118,2.084-1.743,3.18-2.524c0.915-0.653,1.758-1.396,2.742-1.967
		c0.519-0.301,1-0.705,1.574-1.045c0.391-0.021,0.848-0.096,1.241,0.252c0.299,0.367,0.362,0.827,0.342,1.326
		c-0.029,0.718-0.033,1.439,0.001,2.157c0.025,0.537-0.17,1.002-0.368,1.469c-0.428,1.011-0.765,2.053-0.705,3.153
		c0.056,1.031-0.155,2.027-0.25,3.038c-0.045,0.487-0.335,0.936-0.451,1.432c-0.053,0.228-0.195,0.488-0.185,0.689
		c-0.559,0.498-1.27,0.556-1.721,1.045c0.432,0.492,0.915,0.865,1.611,0.761c0.231,0.162,0.321,0.513,0.608,0.449
		c0.812,0.926,0.544,2.008,0.593,3.033C18.545,60.682,18.533,61.03,18.095,61.266z"/>
	<path fill="currentColor" d="M34.239,13.461c0.035-0.54-0.054-1.022,0.122-1.371
		c0.202-0.401,0.097-0.765,0.114-1.138c0.02-0.419,0.409-0.756,0.209-1.171c0.206-0.208,0.383-0.387,0.558-0.564
		c0.436,0,0.867,0,1.299,0c0.153,0.153,0.306,0.305,0.475,0.475c0.09,0.336,0.221,0.688,0.27,1.05
		c0.048,0.354-0.035,0.726,0.021,1.077c0.094,0.597,0.34,1.145,0.625,1.684c0.174,0.328,0.384,0.556,0.678,0.715
		c0.621-0.493,0.247-1.649,1.26-1.799c1.263,1.093,1.263,1.094,1.099,4.453c-0.492,0.616-1.193,0.859-1.918,1.072
		c-0.318,0.093-0.628,0.334-0.936,0.324c-0.916-0.031-1.686,0.609-2.632,0.475c-0.552-0.078-1.056-0.127-1.557-0.436
		c-0.615-0.379-1.316-0.617-2.005-0.435c-0.369-0.371-0.695-0.698-1.103-1.108c0-0.791,0.031-1.725-0.009-2.657
		c-0.035-0.829,0.275-1.389,1.071-1.643c0.107-0.034,0.189-0.075,0.264-0.146c0.026-0.025,0.051-0.051,0.048-0.048
		c0.585,0.231,0.976,0.616,1.002,1.273c0.011,0.264,0.292,0.267,0.329,0.458C33.917,13.913,34.025,13.604,34.239,13.461z"/>
	<path fill="currentColor" d="M48.43,57.36c0.389-0.761,0.141-1.523,0.358-2.146
		c0.237-0.682,0.065-1.325,0.181-1.938c-0.142-0.537-0.543-0.836-0.873-1.188c0-0.287,0-0.574,0-0.693
		c0.2-0.677,0.619-1,0.979-1.358c0.51,0.076,0.521,0.063,0.964,0.563c0,0.683,0.159,1.417-0.04,2.036
		c-0.251,0.781-0.293,1.583-0.125,2.283c0.205,0.854,0.063,1.681,0.199,2.566c0.217,0.354,0.288,0.831,0.45,1.255
		c0.18,0.469-0.023,0.963,0.191,1.315c0.297,0.488,0.136,0.963,0.18,1.438c0.042,0.463,0.009,0.934-0.021,1.372
		c-0.271,0.931-0.895,1.511-2.042,1.863c-0.304,0-0.877-0.029-1.445,0.007c-0.815,0.052-1.649,0.12-2.278,0.729
		c-0.25,0.242-0.671-0.038-0.833,0.345c-0.315-0.136-0.502,0.19-0.815,0.224c-0.262,0.053-0.428-0.273-0.692-0.275
		c-0.099-0.184-0.24-0.351-0.276-0.538c-0.048-0.242-0.012-0.501-0.012-0.672c0.269-0.808,0.917-1.293,1.256-1.937
		c0.377-0.714,0.991-1.165,1.434-1.777C46.135,59.493,47.435,58.479,48.43,57.36z"/>
	<path fill="currentColor" d="M19.37,26.637c0.744,0.675,1.454,1.337,1.94,2.199
		c0.555,0.984,1.277,1.805,2.252,2.389c0.054,0.032,0.137,0.017,0.273,0.031c0.084-0.326,0.094-0.583-0.08-0.953
		c-0.301-0.64-0.631-1.265-1.036-1.83c-0.429-0.599-0.592-1.21-0.535-1.836c0.232-0.457,0.586-0.337,0.939-0.363
		c0.439,0.399,0.827,0.836,1.063,1.449c0.238,0.615,0.779,1.09,0.897,1.786c0.145,0.857,0.66,1.52,1.109,2.242
		c0.627,1.01,1.066,2.14,1.539,3.239c0.116,0.271,0.052,0.619,0.068,0.889c-0.296,0.287-0.342,0.638-0.497,0.934
		c-0.674,0.421-1.252,0.312-1.855-0.209c-0.369-0.318-0.82-0.553-1.313-0.723c-0.657-0.227-1.173-0.751-1.854-0.992
		c-0.383-0.135-0.494-0.65-0.725-0.983c-0.225-0.325-0.477-0.515-0.776-0.746c-0.651-0.5-1.33-0.932-2.076-1.257
		c-0.28-0.122-0.397-0.397-0.632-0.523c0-0.242,0-0.458,0-0.666c0.395-0.511,1.177-0.471,1.505-1.149
		c0.037-0.655,0.054-1.384-0.366-2.03c-0.091-0.14-0.052-0.273-0.055-0.408C19.155,26.993,19.095,26.837,19.37,26.637z"/>
	<path fill="currentColor" d="M51.877,27.359c0.198,0,0.306,0,0.508,0
		c0.072,0.832,0.001,1.678,0.041,2.513c0.419,0.454,1.162,0.301,1.495,0.85c0.048,0.079,0.007,0.212,0.007,0.394
		c-0.344,0.466-0.916,0.7-1.423,1.036c-0.698,0.462-1.492,0.793-1.92,1.638c-0.238,0.47-0.747,0.808-1.248,1.095
		c-0.676,0.386-1.33,0.82-1.94,1.301c-0.271,0.214-0.598,0.321-0.853,0.581c-0.429,0.437-1.034,0.312-1.559,0.31
		c-0.729-0.526-0.873-1.249-0.774-1.93c0.27-0.673,0.735-1.137,0.645-1.812c0.432-0.719,0.739-1.511,1.271-2.172
		c0.26-0.323,0.434-0.662,0.479-1.104c0.035-0.347,0.259-0.677,0.411-1.01c0.447-0.979,0.965-1.907,1.902-2.556
		c0.228-0.032,0.46,0.013,0.652,0.317c0,0.247,0,0.562,0,0.883c-0.552,0.936-1.03,1.923-1.276,3.125
		c0.713-0.219,1.308-0.436,1.761-1.061C50.641,28.951,51.093,28.038,51.877,27.359z"/>
	<path fill="currentColor" d="M31.016,47.127c0.242-1.027,1.111-1.125,1.803-1.551
		c0.277-0.542,0.58-1.137,0.865-1.694c1.004-0.685,2.136-0.527,3.243-0.538c0.414-0.005,0.795,0.18,0.964,0.509
		c0.638,1.246,1.588,2.148,2.837,2.753c0,0.349,0,0.662,0,0.893c-0.255,0.692-0.771,1.084-1.228,1.514
		c-0.606,0.57-1.44,0.533-2.088,0.326c-0.791-0.254-1.544-0.046-2.303-0.162c-0.614,0.433-1.311,0.109-1.896,0.22
		c-0.77-0.313-1.41-0.711-1.938-1.434C31.364,47.702,31.044,47.451,31.016,47.127z"/>
	<path fill="currentColor" d="M30.851,25.083c0.033-1.57-0.459-3.132-0.198-4.801
		c0.118-0.108,0.302-0.276,0.527-0.482c0.482,0.172,0.911-0.26,1.457-0.246c0.666,0.018,1.167,0.316,1.684,0.629
		c0.185,0.112,0.597,1.272,0.598,1.574c0.004,1.504,0.002,3.01,0.002,4.515c0,0.578-0.377,0.938-0.699,1.249
		c-1.375,0.353-2.069-0.557-2.736-1.412C31.246,25.804,30.94,25.503,30.851,25.083z"/>
	<path fill="currentColor" d="M38.237,27.81c-0.231-0.099-0.444-0.19-0.662-0.284
		c-0.032-0.265-0.276-0.443-0.289-0.74c-0.019-0.441,0.072-0.873-0.175-1.33c-0.193-0.359,0.086-0.893-0.237-1.304
		c-0.07-0.089-0.062-0.308-0.001-0.419c0.377-0.702,0.171-1.453,0.197-2.18c0.017-0.471,0.102-0.878,0.445-1.223
		c0.361-0.363,0.82-0.488,1.293-0.52c0.608-0.042,1.222-0.01,1.824-0.01c0.327,0.148,0.293,0.549,0.543,0.747
		c-0.146,1.383,0.283,2.734,0.228,4.036c-0.332,0.64-0.587,1.27-1.15,1.646C39.56,26.69,39.25,27.615,38.237,27.81z"/>
	<path fill="currentColor" d="M24.148,45.367c0.129-0.143,0.383-0.011,0.453-0.238
		c0.744,0.212,1.259,0.738,1.81,1.243c0.949,0.871,1.934,1.707,2.943,2.508c0.383,0.304,0.858,0.595,1.326,0.666
		c0.727,0.111,1.169,0.55,1.64,1.027c0,0.274,0,0.559,0,0.847c-0.268,0.499-0.798,0.588-1.332,0.766
		c-1.2-0.418-2.191-1.248-3.119-2.173c-0.268-0.268-0.539-0.515-0.884-0.712c-0.339-0.194-0.558-0.589-0.802-0.932
		c-0.41-0.577-0.984-1.038-1.496-1.54C24.271,46.421,24.021,45.961,24.148,45.367z"/>
	<path fill="currentColor" d="M46.259,45.495c0.324,0.124,0.532-0.125,0.967-0.275
		c0.047,0.083,0.171,0.229,0.215,0.396c0.113,0.435-0.091,0.813-0.308,1.159c-0.13,0.208-0.354,0.354-0.523,0.54
		c-0.423,0.465-0.901,0.865-1.245,1.418c-0.224,0.358-0.612,0.64-1.002,0.902c-0.583,0.393-1.047,0.968-1.55,1.478
		c-0.615,0.624-1.377,0.832-2.226,0.884c-0.353,0.021-0.551-0.264-0.86-0.282c-0.087-0.142-0.024-0.361-0.236-0.446
		c0.025-0.052,0.05-0.101,0.074-0.15c0.233-0.471,0.583-0.794,1.023-1.106c0.557-0.395,1.089-0.801,1.727-1.056
		c0.092-0.037,0.174-0.114,0.245-0.188C43.718,47.589,45.164,46.737,46.259,45.495z"/>
	<path fill="currentColor" d="M35.387,52.415c-0.6-0.195-0.922-0.523-1.101-0.995
		c-0.117-0.27,0.323-0.359,0.192-0.721c0.412,0.082,0.696-0.248,1.089-0.231c0.395,0.017,0.792,0.004,1.187,0.004
		c0.159,0.306,0.643,0.155,0.735,0.563c0.037,0.676-0.343,1.106-1.064,1.381C36.108,52.415,35.676,52.415,35.387,52.415z"/>
</g>
</svg>
