<?xml version="1.0" encoding="iso-8859-1"?>
<!-- Generator: Adobe Illustrator 16.0.0, SVG Export Plug-In . SVG Version: 6.00 Build 0)  -->
<!DOCTYPE svg PUBLIC "-//W3C//DTD SVG 1.1//EN" "http://www.w3.org/Graphics/SVG/1.1/DTD/svg11.dtd">
<svg version="1.1" id="Layer_1" xmlns="http://www.w3.org/2000/svg" xmlns:xlink="http://www.w3.org/1999/xlink" x="0px" y="0px"
	 width="72.36px" height="72.18px" viewBox="0 0 72.36 72.18" style="enable-background:new 0 0 72.36 72.18;" xml:space="preserve"
	>
<g>
	
	<path fill="currentColor" d="M21.541,26.593c-0.191-1.162,0.498-2.068,1.066-2.968
		c0.302-0.477,0.879-0.806,1.357-1.128c0.479-0.324,0.857-0.722,1.256-1.109c0.626-0.606,1.381-1.059,2.012-1.629
		c0.912-0.822,2.01-1.394,2.843-2.321c0.869-0.968,0.923-1.293,0.42-2.591c-0.251-0.65-0.697-1.219-0.835-1.922
		c-0.012-0.059-0.139-0.112-0.133-0.156c0.145-0.96-0.402-1.806-0.45-2.737c-0.023-0.438-0.336-0.843-0.136-1.431
		c0.092-0.074,0.287-0.229,0.561-0.448c0.23,0,0.585,0,0.983,0c0.61,0.477,0.987,1.128,1.22,1.917
		c0.099,0.334,0.214,0.714,0.705,0.913c0.525,0.212,0.741,0.859,1.015,1.375c0.4,0.754,0.893,1.45,1.447,2.1
		c0.046,0.055,0.127,0.093,0.148,0.154c0.534,1.599,1.982,2.65,2.53,4.244c0.188,0.547,0.638,0.932,1.072,1.274
		c0.473,0.372,0.691,0.878,0.811,1.396c0.116,0.506,0.332,0.904,0.709,1.219c0.545,0.456,0.927,1.027,1.212,1.661
		c0.326,0.725,0.927,1.257,1.308,1.941c0.05,0.09,0.192,0.142,0.219,0.233c0.297,1.039,0.979,1.858,1.631,2.664
		c0.48,0.593,0.586,1.399,1.2,1.887c0.258,0.92,0.961,1.607,1.304,2.483c0.166,0.424,0.391,0.816,0.761,1.084
		c0.476,0.345,0.737,0.863,0.886,1.361c0.265,0.89,0.742,1.602,1.365,2.192c0.044,0.214-0.023,0.379,0.105,0.552
		c0.71,0.947,1.037,2.141,1.914,2.984c0.072,0.069,0.117,0.157,0.164,0.254c0.65,1.342,1.604,2.497,2.348,3.781
		c0.61,1.054,1.478,1.945,1.944,3.08c0.089,0.215,0.201,0.388,0.361,0.489c0.296,0.188,0.465,0.552,0.483,0.769
		c0.059,0.682,0.767,1.213,0.371,2.049c-0.047,0.059-0.203-0.042-0.426,0.016c-0.934-1.046-2.161-1.884-2.906-3.151
		c-0.658-1.12-1.666-1.956-2.351-3.027c-0.424-0.662-1.21-1.058-1.364-1.915c-0.032-0.177-0.277-0.313-0.421-0.471
		c-0.739-0.815-1.486-1.633-1.927-2.656c-0.167-0.389-0.457-0.721-0.759-0.846c-0.554-0.229-0.775-0.656-0.973-1.118
		c-0.303-0.71-0.721-1.315-1.281-1.851c-0.345-0.328-0.655-0.724-0.871-1.146c-0.237-0.465-0.594-0.871-0.99-1.069
		c-0.457-0.229-0.666-0.565-0.88-0.944c-0.321-0.572-0.66-1.124-1.146-1.578c-0.395-0.368-0.756-0.771-1.15-1.14
		c-0.485-0.454-0.913-0.938-1.148-1.578c-0.143-0.389-0.354-0.722-0.802-0.875c-0.502-0.171-0.666-0.71-0.912-1.1
		c-0.618-0.979-1.298-1.854-2.288-2.498c-0.39-0.254-0.653-0.708-0.956-1.092c-0.845-1.072-2.683-2.07-4.32-1.351
		c-0.989-0.052-1.759,0.696-2.708,0.751c-0.66,0.039-0.914,0.602-1.315,0.937c-0.756,0.631-1.58,1.193-2.226,1.958
		c-0.302,0.358-0.774,0.4-1.209,0.455C22.071,26.961,21.738,26.966,21.541,26.593z"/>
	<path fill="currentColor" d="M16.484,35.818c-1.183-0.2-2.034,0.305-2.875,0.858
		c-0.335,0.221-0.701,0.396-1.094,0.616c-1.115-0.084-2.095,0.531-3.29,0.979c-0.219,0.237-0.558,0.605-0.826,0.897
		c-0.769,0.152-1.416,0.577-2.181-0.083c-0.238-0.392-0.431-0.933-0.043-1.559c0.093-0.15,0.175-0.329,0.309-0.402
		c0.795-0.429,1.364-1.086,1.861-1.811c0.165-0.24,0.438-0.299,0.645-0.452c0.532-0.394,1.08-0.734,1.354-1.381
		c0.064-0.153,0.238-0.267,0.374-0.384c0.903-0.783,1.531-1.777,2.165-2.895c0.108-0.426-0.124-0.992,0.194-1.533
		c0.12-0.204-0.022-0.599-0.071-0.906c-0.127-0.809-0.374-1.581-0.542-2.375c-0.225-1.061-0.226-2.173-0.667-3.181
		c-0.176-0.403-0.223-0.793-0.197-1.23c0.168-0.162,0.349-0.336,0.577-0.556c0.592,0.347,1.43,0.298,1.8,1.118
		c0.302,0.671,0.677,1.307,1.058,1.94c0.393,0.654,0.42,1.478,0.878,2.118c-0.095,0.534,0.363,0.842,0.614,1.137
		c0.887,1.038,1.549,2.266,2.637,3.139c0.196,0.158,0.322,0.438,0.414,0.685c0.399,1.073,1.181,1.893,1.806,2.817
		c0.376,0.557,0.821,1.047,1.299,1.515c0.316,0.31,0.818,0.393,1.01,0.857c0.153,0.369,0.335,0.725,0.507,1.086
		c0.134,0.282,0.304,0.532,0.527,0.758c0.188,0.189,0.412,0.427,0.449,0.669c0.166,1.087,0.911,1.815,1.559,2.593
		c0.224,0.27,0.455,0.549,0.577,0.847c0.307,0.748,0.769,1.352,1.298,1.956c0.599,0.684,1.096,1.474,1.537,2.273
		c0.19,0.345,0.502,0.553,0.702,0.889c0.309,0.519,0.69,1.002,1.007,1.528c0.121,0.2,0.239,0.409,0.358,0.612
		c0.141,0.241,0.42,0.213,0.612,0.368c0.42,0.34,0.499,0.841,0.56,1.28c0.123,0.88,0.397,1.623,1.014,2.297
		c0.418,0.457,0.849,0.959,0.975,1.643c0.057,0.309,0.222,0.635,0.493,0.875c0.209,0.185,0.44,0.387,0.557,0.63
		c0.622,1.297,1.421,2.47,2.341,3.568c0.1,0.119,0.061,0.343,0.234,0.431c0,0.395,0,0.78,0,1.183
		c-0.524,0.133-0.897-0.115-1.203-0.445c-0.72-0.778-1.617-1.396-2.145-2.35c-0.017-0.03-0.048-0.053-0.075-0.076
		c-1.135-0.981-1.959-2.252-3.051-3.274c-0.687-0.644-1.229-1.408-1.775-2.174c-0.351-0.492-0.79-0.984-1.303-1.273
		c-0.371-0.21-0.54-0.484-0.727-0.789c-0.729-1.192-1.593-2.272-2.595-3.249c-0.338-0.33-0.595-0.744-0.765-1.191
		c-0.157-0.411-0.429-0.776-0.78-0.955c-0.539-0.274-0.737-0.731-0.98-1.212c-0.141-0.277-0.195-0.611-0.652-0.72
		c-0.379-0.089-0.643-0.565-0.75-0.947c-0.216-0.772-0.754-1.315-1.342-1.692c-0.858-0.551-1.355-1.351-1.918-2.125
		c-0.061-0.084-0.115-0.175-0.188-0.245c-0.651-0.627-1.248-1.288-1.544-2.17C17.091,36.008,16.667,36.051,16.484,35.818z"/>
	<path fill="currentColor" d="M55.277,29.735c-0.413,0-0.813,0.037-1.204-0.007
		c-1.188-0.133-2.234,0.301-3.189,0.893c-0.709,0.439-1.404,0.7-2.275,0.612c-0.062-0.077-0.151-0.188-0.279-0.344
		c0-0.431,0-0.93,0-1.45c0.426-0.625,1.057-1.049,1.645-1.546c0.804-0.679,1.685-1.292,2.414-2.14c0-0.772,0-1.59,0-2.407
		c-0.283-0.991-0.997-1.796-1.09-2.902c-0.063-0.746-0.376-1.52-1.038-2.024c0-0.375,0-0.734,0-1.083
		c0.215-0.379,0.564-0.385,0.957-0.327c0.293,0.204,0.559,0.482,0.665,0.858c0.19,0.666,0.667,1.083,1.218,1.415
		c0.637,0.384,1.127,0.867,1.53,1.506c0.329,0.521,0.818,0.949,1.227,1.427c0.458,0.536,0.803,1.139,1.007,1.75
		c0.403,1.213,1.357,1.91,2.181,2.745c0.59,0.086,0.552,0.737,0.916,1.041c0.104,0.085,0,0.387,0.198,0.558
		c0.314,0.271,0.406,0.724,0.767,0.975c0.53,0.37,0.767,0.997,1.222,1.435c0.449,0.433,0.667,1.076,1.097,1.47
		c0.677,0.622,0.782,1.5,1.243,2.207c0.104,0.16,0.178,0.442,0.335,0.488c0.857,0.25,1.047,1.056,1.387,1.691
		c0.142,0.265,0.202,0.63,0.352,0.929c0.408,0.815,0.411,0.813,0.05,1.691c-0.304,0.125-0.53,0.024-0.74-0.213
		c-0.463-0.522-0.996-0.957-1.634-1.262c-0.152-0.072-0.302-0.204-0.392-0.348c-0.713-1.128-1.791-1.916-2.68-2.879
		c-0.438-0.475-0.917-0.914-1.369-1.377C58.484,31.774,57.006,30.654,55.277,29.735z"/>
</g>
</svg>
