<?xml version="1.0" encoding="iso-8859-1"?>
<!-- Generator: Adobe Illustrator 16.0.0, SVG Export Plug-In . SVG Version: 6.00 Build 0)  -->
<!DOCTYPE svg PUBLIC "-//W3C//DTD SVG 1.1//EN" "http://www.w3.org/Graphics/SVG/1.1/DTD/svg11.dtd">
<svg version="1.1" id="Layer_1" xmlns="http://www.w3.org/2000/svg" xmlns:xlink="http://www.w3.org/1999/xlink" x="0px" y="0px"
	 width="72.36px" height="72.18px" viewBox="0 0 72.36 72.18" style="enable-background:new 0 0 72.36 72.18;" xml:space="preserve"
	>
<g>
	
	<path fill="currentColor" d="M37.134,26.064c-1.244,0-2.539,0-3.59,0
		c-0.943,0.208-1.251,0.92-1.888,1.242c-0.702,0.355-1.373,0.794-1.908,1.416c-0.202,0.234-0.575,0.323-0.875,0.47
		c-0.373,0.182-0.68,0.389-0.887,0.8c-0.194,0.388-0.534,0.695-0.989,0.879c-0.917,0.372-1.671,1.028-2.462,1.604
		c-0.615,0.448-0.792,1.189-0.834,1.908c-0.054,0.932-0.013,1.87-0.013,2.804c-0.789,0.681-1.103,1.559-1.081,2.578
		c0.005,0.251-0.013,0.504,0.003,0.755c0.07,1.066-0.403,1.974-0.866,3.086c0,0.668-0.003,1.527,0.001,2.386
		c0.002,0.559-0.071,1.05-0.394,1.57c-0.48,0.775-0.677,1.694-0.684,2.625c-0.006,0.705-0.322,1.289-0.623,1.903
		c-0.292,0.6-0.563,1.127-1.216,1.438c-0.367,0.176-0.746,0.535-0.902,0.903c-0.372,0.871-1.099,0.928-1.852,1.005
		c-0.143,0.015-0.288,0.002-0.432,0.002c-0.881-0.469-1.532-1.102-1.786-2.13c-0.079-0.318-0.148-0.64-0.087-0.919
		c0.187-0.85,0.44-1.685,0.701-2.515c0.046-0.148,0.25-0.247,0.357-0.346c0-0.474,0-0.904,0-1.356
		c-0.488-0.268-0.502-0.868-0.83-1.255c-0.192-0.786,0.139-1.487,0.426-2.175c0.212-0.509,0.404-1.025,0.391-1.558
		c-0.021-0.881,0.111-1.708,0.442-2.523c0.367-0.905,0.535-1.854,0.433-2.727c0.417-0.85,0.896-1.564,0.866-2.456
		c-0.01-0.3,0.183-0.509,0.304-0.738c0.464-0.884,0.723-1.821,0.766-2.81c0.011-0.268,0.148-0.447,0.23-0.666
		c0.226-0.604,0.545-1.186,0.422-1.832c0.431-0.575,0.753-1.167,1.09-1.824c0-0.288,0-0.647,0-1.007
		c-0.178-0.178-0.356-0.356-0.541-0.541c-2.188,0-4.383-0.047-6.575,0.019c-1.177,0.035-2.001-0.491-2.695-1.316
		c-0.32-0.381-0.536-0.85-0.78-1.247c0.25-0.766,0.778-1.312,1.164-1.942c0.157-0.256,0.477-0.383,0.723-0.563
		c0.488-0.357,0.88-0.845,1.315-1.275c0.296-0.293,0.546-0.646,0.978-0.784c0.643,0,1.285,0,1.965,0
		c0.516,0.271,0.979,0.617,1.286,1.214c0.264,0.514,0.938,0.592,1.422,0.67c0.803,0.13,1.669,0.162,2.414-0.381
		c0.111-0.081,0.276-0.153,0.313-0.257c0.184-0.535,0.674-0.8,0.987-1.2c0.58-0.159,1.13-0.396,1.785-0.251
		c0.312,0.197,0.666,0.36,0.907,0.806c0.346,0.64,1.042,0.987,1.792,1.314c0.99,0.073,2.027,0.003,2.995-0.616
		c0.307-0.196,0.563-0.419,0.792-0.67c0.869-0.953,1.881-0.773,2.877-0.155c0.238,0.148,0.464,0.282,0.628,0.578
		c0.21,0.378,0.579,0.698,1.232,0.853c0.411-0.07,1.033,0.157,1.652-0.178c0.466-0.253,0.896-0.508,1.302-0.987
		c0.387-0.456,0.955-0.624,1.517-0.755c0.566-0.133,1.088,0.139,1.654,0.26c0.279,0.279,0.581,0.588,0.891,0.889
		c0.298,0.29,0.545,0.647,0.979,0.778c0.572,0,1.145,0,1.752,0c0.786-0.621,1.601-1.265,2.435-1.924c0.537,0,1.111,0,1.673,0
		c0.699,0.689,1.472,1.253,2.511,1.724c0.403,0.061,0.997-0.088,1.567,0.198c0.434,0.217,0.85-0.242,1.329-0.215
		c0.535-0.545,1.088-1.109,1.691-1.724c0.505,0.163,0.942-0.324,1.474-0.2c0.454,0.106,0.916,0.202,1.408,0.553
		c0.244,0.412,0.605,0.92,1.207,1.166c1.28,0.521,2.222,1.374,2.699,2.702c0.183,0.749-0.138,1.328-0.694,1.823
		c-0.924,0.823-1.963,1.55-3.229,1.277c-1.422-0.307-2.828-0.08-4.236-0.178c-0.414-0.029-0.845-0.085-1.207,0.289
		c-0.396,0.896-0.555,1.81,0.191,2.735c0.244,0.303,0.437,0.782,0.358,1.242c-0.114,0.669,0.163,1.267,0.532,1.715
		c0.47,0.571,0.591,1.153,0.556,1.833c-0.016,0.287-0.003,0.576-0.003,0.856c0.342,0.594,0.685,1.203,0.637,1.897
		c-0.091,1.331,0.21,2.522,1.091,3.581c0,0.224,0.021,0.476-0.003,0.722c-0.103,1.029,0.064,2.001,0.659,2.857
		c0.247,0.355,0.224,0.728,0.202,1.104c-0.038,0.672,0.165,1.268,0.422,1.879c0.233,0.553,0.461,1.129,0.45,1.758
		c-0.017,1.006,0.119,1.971,0.379,2.965c0.271,1.032,0.032,2.141-0.813,2.976c-0.231,0.801-0.896,0.808-1.51,0.724
		c-0.375-0.052-0.844-0.242-1.054-0.528c-0.608-0.829-1.374-1.541-1.855-2.463c-0.265-0.508-0.501-1.027-0.545-1.608
		c-0.011-0.146-0.063-0.251-0.133-0.379c-0.483-0.881-0.839-1.809-1.088-2.789c-0.329-1.294-0.572-2.618-1.16-3.836
		c0.052-0.737-0.33-1.39-0.408-2.092c-0.044-0.396-0.409-0.504-0.485-0.893c-0.285-1.464-0.925-2.858-0.836-4.397
		c0.008-0.138-0.362-1.139-0.459-1.21c-0.426-0.314-0.507-0.812-0.606-1.26c-0.352-1.583-1.06-2.941-2.287-4.023
		c-0.527-0.465-1.198-0.611-1.82-0.818c-0.44-0.147-0.856-0.276-1.138-0.633c-0.313-0.4-0.795-0.561-1.165-0.881
		c-0.142-0.123-0.434-0.338-0.751-0.25c-0.319,0.089-0.592-0.104-0.883-0.205C38.507,26.692,37.812,26.461,37.134,26.064z"/>
	<path fill="currentColor" d="M34.375,40.275c-0.7,0.15-1.34-0.046-1.731-0.644
		c-0.278-0.424-0.792-0.262-1.062-0.599c-1.78,0.741-2.163,1.16-2.702,2.039c0.011,0.47-0.038,0.932,0.183,1.417
		c0.196,0.433-0.162,0.842-0.424,1.23c-0.387,0.081-0.764,0.171-1.067-0.292c0.077-1.588-0.196-3.149-1.084-4.679
		c0.682-0.79,1.483-1.562,2.378-2.162c0-0.354,0-0.641,0-0.86c-0.296-0.412-0.558-0.776-0.852-1.186c0-0.366,0-0.797,0-1.224
		c0.243-0.354,0.595-0.574,1.071-0.772c0.253,0,0.612,0,0.98,0c0.171,0.175,0.347,0.354,0.528,0.54
		c0.126,1.319-0.694,2.284-1.297,3.309c0.334,1.038,1.243,1.438,2.084,1.97c0.236,0,0.52,0,0.822,0
		c0.557-0.41,0.947-0.994,1.395-1.636c0-0.229,0-0.543,0-0.86c-0.249-0.081-0.153-0.358-0.291-0.524
		c-0.773-0.934-0.765-0.94-0.753-2.007c0.525-0.825,0.781-1.756,1.409-2.581c0.476,1.343,1.252,2.466,1.897,3.66
		c-0.378,0.71-1.195,0.846-1.575,1.524c0,0.213,0,0.498,0,0.797c0.364,0.504,0.891,0.8,1.452,1.087
		c0.293,0.15,0.66,0.201,0.791,0.087c0.362-0.314,0.759-0.086,1.101-0.223c0.653-0.268,1.224-0.649,1.673-1.229
		c0.307,0,0.621,0,0.92,0c0.542,0.537,1.078,1.068,1.646,1.631c-0.132,0.986-0.848,1.533-1.639,1.973
		c-0.29,0.161-0.66,0.053-0.976-0.167c-0.557-0.387-1.187-0.519-1.868-0.443c-0.618,0.068-1.23-0.033-1.866,0.182
		C35.062,39.787,34.851,40.239,34.375,40.275z"/>
	<path fill="currentColor" d="M45.072,41.531c-0.611,0.385-0.994,0.373-1.051-0.057
		c-0.054-0.409-0.41-0.752-0.213-1.229c-0.552-0.564-1.167-1.087-1.56-1.911c0.203-0.731,0.591-1.464,1.139-2.095
		c0.279,0,0.52,0,0.732,0c0.342,0.299,0.497,0.695,0.761,1.015c0.339,0.413,0.584,1.02,0.379,1.526
		c-0.269,0.662-0.129,1.31-0.184,1.96C45.054,40.988,45.072,41.24,45.072,41.531z"/>
	<path fill="currentColor" d="M40.565,34.137c-0.28,0.273-0.534,0.521-0.801,0.78
		c-0.691,0-1.403,0-2.086,0c-0.222-0.195-0.43-0.377-0.599-0.525c0-0.63,1.527-1.593,2.466-1.633
		C39.973,33.117,40.345,33.515,40.565,34.137z"/>
	<path fill="currentColor" d="M43.609,35.352c-0.148,0-0.327,0-0.419,0
		c-0.313-0.31-0.584-0.579-0.923-0.914c0-0.219,0-0.574,0-0.926c0.104-0.104,0.205-0.205,0.313-0.313c0.347,0,0.7,0,1.11,0
		c0.129,0.155,0.288,0.345,0.5,0.598c0,0.251,0,0.602,0,1.042C44.04,34.973,43.833,35.155,43.609,35.352z"/>
</g>
</svg>
