<?xml version="1.0" encoding="iso-8859-1"?>
<!-- Generator: Adobe Illustrator 16.0.0, SVG Export Plug-In . SVG Version: 6.00 Build 0)  -->
<!DOCTYPE svg PUBLIC "-//W3C//DTD SVG 1.1//EN" "http://www.w3.org/Graphics/SVG/1.1/DTD/svg11.dtd">
<svg version="1.1" id="Layer_1" xmlns="http://www.w3.org/2000/svg" xmlns:xlink="http://www.w3.org/1999/xlink" x="0px" y="0px"
	 width="72.36px" height="72.18px" viewBox="0 0 72.36 72.18" style="enable-background:new 0 0 72.36 72.18;" xml:space="preserve"
	>
<g>
	<path style="fill-rule:evenodd;clip-rule:evenodd;fill:none;" d="M-6.984,79.631c0-28.871,0-57.743,0-86.615
		c28.8,0,57.6,0,86.399,0c0,28.872,0,57.744,0,86.615C50.616,79.631,21.816,79.631-6.984,79.631z M37.134,26.064
		c0.678,0.397,1.373,0.628,2.066,0.869c0.291,0.101,0.563,0.294,0.883,0.205c0.317-0.088,0.609,0.127,0.751,0.25
		c0.37,0.321,0.852,0.481,1.165,0.881c0.281,0.357,0.697,0.486,1.138,0.633c0.622,0.207,1.293,0.353,1.82,0.818
		c1.228,1.083,1.936,2.441,2.287,4.023c0.1,0.448,0.181,0.946,0.606,1.26c0.097,0.071,0.467,1.073,0.459,1.21
		c-0.089,1.539,0.551,2.934,0.836,4.397c0.076,0.389,0.441,0.496,0.485,0.893c0.078,0.702,0.46,1.354,0.408,2.092
		c0.588,1.218,0.831,2.542,1.16,3.836c0.249,0.98,0.604,1.908,1.088,2.789c0.07,0.128,0.122,0.233,0.133,0.379
		c0.044,0.581,0.28,1.101,0.545,1.608c0.481,0.922,1.247,1.634,1.855,2.463c0.21,0.286,0.679,0.477,1.054,0.528
		c0.614,0.084,1.278,0.077,1.51-0.724c0.845-0.835,1.084-1.943,0.813-2.976c-0.26-0.994-0.396-1.959-0.379-2.965
		c0.011-0.629-0.217-1.205-0.45-1.758c-0.257-0.611-0.46-1.207-0.422-1.879c0.021-0.376,0.045-0.748-0.202-1.104
		c-0.595-0.856-0.762-1.828-0.659-2.857c0.024-0.246,0.003-0.498,0.003-0.722c-0.881-1.059-1.182-2.25-1.091-3.581
		c0.048-0.695-0.295-1.303-0.637-1.897c0-0.28-0.013-0.569,0.003-0.856c0.035-0.68-0.086-1.262-0.556-1.833
		c-0.369-0.448-0.646-1.046-0.532-1.715c0.078-0.46-0.114-0.939-0.358-1.242c-0.746-0.925-0.587-1.84-0.191-2.735
		c0.362-0.374,0.793-0.318,1.207-0.289c1.408,0.099,2.814-0.128,4.236,0.178c1.266,0.273,2.305-0.455,3.229-1.277
		c0.557-0.495,0.877-1.074,0.694-1.823c-0.478-1.328-1.419-2.18-2.699-2.702c-0.602-0.245-0.963-0.753-1.207-1.166
		c-0.492-0.351-0.954-0.446-1.408-0.553c-0.531-0.125-0.969,0.363-1.474,0.2c-0.604,0.615-1.156,1.179-1.691,1.724
		c-0.479-0.027-0.896,0.432-1.329,0.215c-0.57-0.286-1.164-0.137-1.567-0.198c-1.039-0.471-1.812-1.035-2.511-1.724
		c-0.562,0-1.136,0-1.673,0c-0.834,0.659-1.648,1.303-2.435,1.924c-0.607,0-1.18,0-1.752,0c-0.434-0.13-0.681-0.488-0.979-0.778
		c-0.31-0.301-0.611-0.609-0.891-0.889c-0.566-0.121-1.088-0.393-1.654-0.26c-0.562,0.132-1.13,0.299-1.517,0.755
		c-0.406,0.479-0.836,0.733-1.302,0.987c-0.619,0.335-1.242,0.108-1.652,0.178c-0.654-0.155-1.022-0.475-1.232-0.853
		c-0.164-0.295-0.39-0.43-0.628-0.578c-0.996-0.619-2.008-0.798-2.877,0.155c-0.229,0.25-0.485,0.474-0.792,0.67
		c-0.968,0.619-2.005,0.689-2.995,0.616c-0.75-0.327-1.446-0.674-1.792-1.314c-0.241-0.446-0.595-0.609-0.907-0.806
		c-0.655-0.144-1.206,0.092-1.785,0.251c-0.313,0.4-0.803,0.666-0.987,1.2c-0.036,0.104-0.202,0.177-0.313,0.257
		c-0.745,0.542-1.61,0.511-2.414,0.381c-0.484-0.078-1.159-0.157-1.422-0.67c-0.307-0.597-0.77-0.944-1.286-1.214
		c-0.68,0-1.322,0-1.965,0c-0.432,0.138-0.682,0.491-0.978,0.784c-0.435,0.43-0.827,0.917-1.315,1.275
		c-0.246,0.18-0.566,0.307-0.723,0.563c-0.386,0.631-0.914,1.176-1.164,1.942c0.244,0.397,0.459,0.866,0.78,1.247
		c0.694,0.825,1.518,1.352,2.695,1.316c2.192-0.066,4.388-0.019,6.575-0.019c0.185,0.185,0.363,0.362,0.541,0.541
		c0,0.36,0,0.72,0,1.007c-0.336,0.657-0.659,1.25-1.09,1.824c0.123,0.646-0.196,1.228-0.422,1.832
		c-0.082,0.219-0.219,0.397-0.23,0.666c-0.043,0.988-0.302,1.926-0.766,2.81c-0.121,0.229-0.314,0.438-0.304,0.738
		c0.03,0.892-0.45,1.606-0.866,2.456c0.102,0.872-0.065,1.821-0.433,2.727c-0.331,0.815-0.463,1.643-0.442,2.523
		c0.013,0.532-0.179,1.049-0.391,1.558c-0.287,0.688-0.618,1.389-0.426,2.175c0.328,0.387,0.341,0.987,0.83,1.255
		c0,0.452,0,0.883,0,1.356c-0.107,0.099-0.311,0.197-0.357,0.346c-0.261,0.83-0.515,1.665-0.701,2.515
		c-0.062,0.279,0.008,0.601,0.087,0.919c0.253,1.028,0.904,1.661,1.786,2.13c0.144,0,0.289,0.013,0.432-0.002
		c0.753-0.077,1.48-0.134,1.852-1.005c0.157-0.368,0.535-0.728,0.902-0.903c0.653-0.312,0.923-0.839,1.216-1.438
		c0.3-0.614,0.617-1.198,0.623-1.903c0.007-0.931,0.204-1.85,0.684-2.625c0.323-0.521,0.396-1.012,0.394-1.57
		c-0.004-0.858-0.001-1.718-0.001-2.386c0.463-1.112,0.936-2.02,0.866-3.086c-0.016-0.251,0.002-0.504-0.003-0.755
		c-0.022-1.02,0.292-1.897,1.081-2.578c0-0.934-0.041-1.872,0.013-2.804c0.042-0.719,0.219-1.46,0.834-1.908
		c0.791-0.576,1.545-1.231,2.462-1.604c0.455-0.185,0.795-0.492,0.989-0.879c0.207-0.412,0.515-0.618,0.887-0.8
		c0.3-0.147,0.673-0.236,0.875-0.47c0.536-0.622,1.207-1.061,1.908-1.416c0.637-0.322,0.945-1.034,1.888-1.242
		C34.595,26.064,35.891,26.064,37.134,26.064z M34.375,40.275c0.477-0.036,0.687-0.488,1.143-0.643
		c0.635-0.215,1.248-0.113,1.866-0.182c0.682-0.075,1.312,0.057,1.868,0.443c0.315,0.22,0.686,0.328,0.976,0.167
		c0.791-0.439,1.507-0.986,1.639-1.973c-0.567-0.563-1.104-1.094-1.646-1.631c-0.299,0-0.613,0-0.92,0
		c-0.449,0.579-1.02,0.961-1.673,1.229c-0.342,0.137-0.738-0.092-1.101,0.223c-0.131,0.114-0.497,0.063-0.791-0.087
		c-0.562-0.287-1.088-0.583-1.452-1.087c0-0.299,0-0.583,0-0.797c0.379-0.678,1.196-0.813,1.575-1.524
		c-0.645-1.193-1.421-2.317-1.897-3.66c-0.628,0.824-0.884,1.755-1.409,2.581c-0.012,1.067-0.02,1.074,0.753,2.007
		c0.138,0.166,0.042,0.444,0.291,0.524c0,0.317,0,0.631,0,0.86c-0.448,0.642-0.838,1.226-1.395,1.636c-0.302,0-0.586,0-0.822,0
		c-0.842-0.532-1.75-0.932-2.084-1.97c0.603-1.025,1.423-1.99,1.297-3.309c-0.182-0.186-0.357-0.365-0.528-0.54
		c-0.368,0-0.727,0-0.98,0c-0.477,0.198-0.828,0.417-1.071,0.772c0,0.427,0,0.858,0,1.224c0.294,0.41,0.556,0.774,0.852,1.186
		c0,0.219,0,0.505,0,0.86c-0.895,0.601-1.697,1.372-2.378,2.162c0.888,1.529,1.161,3.091,1.084,4.679
		c0.303,0.463,0.68,0.373,1.067,0.292c0.262-0.389,0.62-0.798,0.424-1.23c-0.221-0.485-0.171-0.947-0.183-1.417
		c0.539-0.879,0.922-1.298,2.702-2.038c0.27,0.336,0.784,0.174,1.062,0.598C33.035,40.229,33.675,40.426,34.375,40.275z
		 M45.072,41.531c0-0.291-0.018-0.543,0.004-0.791c0.055-0.65-0.085-1.298,0.184-1.96c0.205-0.507-0.04-1.113-0.379-1.526
		c-0.264-0.32-0.419-0.716-0.761-1.015c-0.213,0-0.453,0-0.732,0c-0.548,0.631-0.936,1.364-1.139,2.095
		c0.393,0.824,1.008,1.347,1.56,1.911c-0.197,0.478,0.159,0.82,0.213,1.229C44.078,41.904,44.46,41.916,45.072,41.531z
		 M40.565,34.137c-0.22-0.622-0.592-1.02-1.02-1.377c-0.938,0.04-2.466,1.003-2.466,1.633c0.169,0.147,0.377,0.33,0.599,0.525
		c0.683,0,1.395,0,2.086,0C40.031,34.658,40.285,34.41,40.565,34.137z M43.609,35.352c0.224-0.196,0.431-0.379,0.582-0.512
		c0-0.44,0-0.792,0-1.042c-0.212-0.253-0.371-0.443-0.5-0.598c-0.41,0-0.764,0-1.11,0c-0.108,0.108-0.209,0.209-0.313,0.313
		c0,0.352,0,0.707,0,0.926c0.339,0.335,0.61,0.604,0.923,0.914C43.282,35.352,43.46,35.352,43.609,35.352z"/>
	<path fill="currentColor" d="M37.134,26.064c-1.244,0-2.539,0-3.59,0
		c-0.943,0.208-1.251,0.92-1.888,1.242c-0.702,0.355-1.373,0.794-1.908,1.416c-0.202,0.234-0.575,0.323-0.875,0.47
		c-0.373,0.182-0.68,0.389-0.887,0.8c-0.194,0.388-0.534,0.695-0.989,0.879c-0.917,0.372-1.671,1.028-2.462,1.604
		c-0.615,0.448-0.792,1.189-0.834,1.908c-0.054,0.932-0.013,1.87-0.013,2.804c-0.789,0.681-1.103,1.559-1.081,2.578
		c0.005,0.251-0.013,0.504,0.003,0.755c0.07,1.066-0.403,1.974-0.866,3.086c0,0.668-0.003,1.527,0.001,2.386
		c0.002,0.559-0.071,1.05-0.394,1.57c-0.48,0.775-0.677,1.694-0.684,2.625c-0.006,0.705-0.322,1.289-0.623,1.903
		c-0.292,0.6-0.563,1.127-1.216,1.438c-0.367,0.176-0.746,0.535-0.902,0.903c-0.372,0.871-1.099,0.928-1.852,1.005
		c-0.143,0.015-0.288,0.002-0.432,0.002c-0.881-0.469-1.532-1.102-1.786-2.13c-0.079-0.318-0.148-0.64-0.087-0.919
		c0.187-0.85,0.44-1.685,0.701-2.515c0.046-0.148,0.25-0.247,0.357-0.346c0-0.474,0-0.904,0-1.356
		c-0.488-0.268-0.502-0.868-0.83-1.255c-0.192-0.786,0.139-1.487,0.426-2.175c0.212-0.509,0.404-1.025,0.391-1.558
		c-0.021-0.881,0.111-1.708,0.442-2.523c0.367-0.905,0.535-1.854,0.433-2.727c0.417-0.85,0.896-1.564,0.866-2.456
		c-0.01-0.3,0.183-0.509,0.304-0.738c0.464-0.884,0.723-1.821,0.766-2.81c0.011-0.268,0.148-0.447,0.23-0.666
		c0.226-0.604,0.545-1.186,0.422-1.832c0.431-0.575,0.753-1.167,1.09-1.824c0-0.288,0-0.647,0-1.007
		c-0.178-0.178-0.356-0.356-0.541-0.541c-2.188,0-4.383-0.047-6.575,0.019c-1.177,0.035-2.001-0.491-2.695-1.316
		c-0.32-0.381-0.536-0.85-0.78-1.247c0.25-0.766,0.778-1.312,1.164-1.942c0.157-0.256,0.477-0.383,0.723-0.563
		c0.488-0.357,0.88-0.845,1.315-1.275c0.296-0.293,0.546-0.646,0.978-0.784c0.643,0,1.285,0,1.965,0
		c0.516,0.271,0.979,0.617,1.286,1.214c0.264,0.514,0.938,0.592,1.422,0.67c0.803,0.13,1.669,0.162,2.414-0.381
		c0.111-0.081,0.276-0.153,0.313-0.257c0.184-0.535,0.674-0.8,0.987-1.2c0.58-0.159,1.13-0.396,1.785-0.251
		c0.312,0.197,0.666,0.36,0.907,0.806c0.346,0.64,1.042,0.987,1.792,1.314c0.99,0.073,2.027,0.003,2.995-0.616
		c0.307-0.196,0.563-0.419,0.792-0.67c0.869-0.953,1.881-0.773,2.877-0.155c0.238,0.148,0.464,0.282,0.628,0.578
		c0.21,0.378,0.579,0.698,1.232,0.853c0.411-0.07,1.033,0.157,1.652-0.178c0.466-0.253,0.896-0.508,1.302-0.987
		c0.387-0.456,0.955-0.624,1.517-0.755c0.566-0.133,1.088,0.139,1.654,0.26c0.279,0.279,0.581,0.588,0.891,0.889
		c0.298,0.29,0.545,0.647,0.979,0.778c0.572,0,1.145,0,1.752,0c0.786-0.621,1.601-1.265,2.435-1.924c0.537,0,1.111,0,1.673,0
		c0.699,0.689,1.472,1.253,2.511,1.724c0.403,0.061,0.997-0.088,1.567,0.198c0.434,0.217,0.85-0.242,1.329-0.215
		c0.535-0.545,1.088-1.109,1.691-1.724c0.505,0.163,0.942-0.324,1.474-0.2c0.454,0.106,0.916,0.202,1.408,0.553
		c0.244,0.412,0.605,0.92,1.207,1.166c1.28,0.521,2.222,1.374,2.699,2.702c0.183,0.749-0.138,1.328-0.694,1.823
		c-0.924,0.823-1.963,1.55-3.229,1.277c-1.422-0.307-2.828-0.08-4.236-0.178c-0.414-0.029-0.845-0.085-1.207,0.289
		c-0.396,0.896-0.555,1.81,0.191,2.735c0.244,0.303,0.437,0.782,0.358,1.242c-0.114,0.669,0.163,1.267,0.532,1.715
		c0.47,0.571,0.591,1.153,0.556,1.833c-0.016,0.287-0.003,0.576-0.003,0.856c0.342,0.594,0.685,1.203,0.637,1.897
		c-0.091,1.331,0.21,2.522,1.091,3.581c0,0.224,0.021,0.476-0.003,0.722c-0.103,1.029,0.064,2.001,0.659,2.857
		c0.247,0.355,0.224,0.728,0.202,1.104c-0.038,0.672,0.165,1.268,0.422,1.879c0.233,0.553,0.461,1.129,0.45,1.758
		c-0.017,1.006,0.119,1.971,0.379,2.965c0.271,1.032,0.032,2.141-0.813,2.976c-0.231,0.801-0.896,0.808-1.51,0.724
		c-0.375-0.052-0.844-0.242-1.054-0.528c-0.608-0.829-1.374-1.541-1.855-2.463c-0.265-0.508-0.501-1.027-0.545-1.608
		c-0.011-0.146-0.063-0.251-0.133-0.379c-0.483-0.881-0.839-1.809-1.088-2.789c-0.329-1.294-0.572-2.618-1.16-3.836
		c0.052-0.737-0.33-1.39-0.408-2.092c-0.044-0.396-0.409-0.504-0.485-0.893c-0.285-1.464-0.925-2.858-0.836-4.397
		c0.008-0.138-0.362-1.139-0.459-1.21c-0.426-0.314-0.507-0.812-0.606-1.26c-0.352-1.583-1.06-2.941-2.287-4.023
		c-0.527-0.465-1.198-0.611-1.82-0.818c-0.44-0.147-0.856-0.276-1.138-0.633c-0.313-0.4-0.795-0.561-1.165-0.881
		c-0.142-0.123-0.434-0.338-0.751-0.25c-0.319,0.089-0.592-0.104-0.883-0.205C38.507,26.692,37.812,26.461,37.134,26.064z"/>
	<path fill="currentColor" d="M34.375,40.275c-0.7,0.15-1.34-0.046-1.731-0.644
		c-0.278-0.424-0.792-0.262-1.062-0.599c-1.78,0.741-2.163,1.16-2.702,2.039c0.011,0.47-0.038,0.932,0.183,1.417
		c0.196,0.433-0.162,0.842-0.424,1.23c-0.387,0.081-0.764,0.171-1.067-0.292c0.077-1.588-0.196-3.149-1.084-4.679
		c0.682-0.79,1.483-1.562,2.378-2.162c0-0.354,0-0.641,0-0.86c-0.296-0.412-0.558-0.776-0.852-1.186c0-0.366,0-0.797,0-1.224
		c0.243-0.354,0.595-0.574,1.071-0.772c0.253,0,0.612,0,0.98,0c0.171,0.175,0.347,0.354,0.528,0.54
		c0.126,1.319-0.694,2.284-1.297,3.309c0.334,1.038,1.243,1.438,2.084,1.97c0.236,0,0.52,0,0.822,0
		c0.557-0.41,0.947-0.994,1.395-1.636c0-0.229,0-0.543,0-0.86c-0.249-0.081-0.153-0.358-0.291-0.524
		c-0.773-0.934-0.765-0.94-0.753-2.007c0.525-0.825,0.781-1.756,1.409-2.581c0.476,1.343,1.252,2.466,1.897,3.66
		c-0.378,0.71-1.195,0.846-1.575,1.524c0,0.213,0,0.498,0,0.797c0.364,0.504,0.891,0.8,1.452,1.087
		c0.293,0.15,0.66,0.201,0.791,0.087c0.362-0.314,0.759-0.086,1.101-0.223c0.653-0.268,1.224-0.649,1.673-1.229
		c0.307,0,0.621,0,0.92,0c0.542,0.537,1.078,1.068,1.646,1.631c-0.132,0.986-0.848,1.533-1.639,1.973
		c-0.29,0.161-0.66,0.053-0.976-0.167c-0.557-0.387-1.187-0.519-1.868-0.443c-0.618,0.068-1.23-0.033-1.866,0.182
		C35.062,39.787,34.851,40.239,34.375,40.275z"/>
	<path fill="currentColor" d="M45.072,41.531c-0.611,0.385-0.994,0.373-1.051-0.057
		c-0.054-0.409-0.41-0.752-0.213-1.229c-0.552-0.564-1.167-1.087-1.56-1.911c0.203-0.731,0.591-1.464,1.139-2.095
		c0.279,0,0.52,0,0.732,0c0.342,0.299,0.497,0.695,0.761,1.015c0.339,0.413,0.584,1.02,0.379,1.526
		c-0.269,0.662-0.129,1.31-0.184,1.96C45.054,40.988,45.072,41.24,45.072,41.531z"/>
	<path fill="currentColor" d="M40.565,34.137c-0.28,0.273-0.534,0.521-0.801,0.78
		c-0.691,0-1.403,0-2.086,0c-0.222-0.195-0.43-0.377-0.599-0.525c0-0.63,1.527-1.593,2.466-1.633
		C39.973,33.117,40.345,33.515,40.565,34.137z"/>
	<path fill="currentColor" d="M43.609,35.352c-0.148,0-0.327,0-0.419,0
		c-0.313-0.31-0.584-0.579-0.923-0.914c0-0.219,0-0.574,0-0.926c0.104-0.104,0.205-0.205,0.313-0.313c0.347,0,0.7,0,1.11,0
		c0.129,0.155,0.288,0.345,0.5,0.598c0,0.251,0,0.602,0,1.042C44.04,34.973,43.833,35.155,43.609,35.352z"/>
</g>
</svg>
