<svg xmlns="http://www.w3.org/2000/svg" xml:space="preserve" width="72px" height="72px" viewBox="0 0 72 72">
    <g fill="currentColor">
        <path d="M37.134 26.064h-3.59c-.943.208-1.251.92-1.888 1.242-.702.355-1.373.794-1.908 1.416-.202.234-.575.323-.875.47-.373.182-.68.389-.887.8-.194.388-.534.695-.989.879-.917.372-1.671 1.028-2.462 1.604-.615.448-.792 1.189-.834 1.908-.054.932-.013 1.87-.013 2.804-.789.681-1.103 1.559-1.081 2.578.005.251-.013.504.003.755.07 1.066-.403 1.974-.866 3.086 0 .668-.003 1.527.001 2.386.002.559-.071 1.05-.394 1.57-.48.775-.677 1.694-.684 2.625-.006.705-.322 1.289-.623 1.903-.292.6-.563 1.127-1.216 1.438-.367.176-.746.535-.902.903-.372.871-1.099.928-1.852 1.005-.143.015-.288.002-.432.002-.881-.469-1.532-1.102-1.786-2.13-.079-.318-.148-.64-.087-.919.187-.85.44-1.685.701-2.515.046-.148.25-.247.357-.346v-1.356c-.488-.268-.502-.868-.83-1.255-.192-.786.139-1.487.426-2.175.212-.509.404-1.025.391-1.558a6.2 6.2 0 0 1 .442-2.523c.367-.905.535-1.854.433-2.727.417-.85.896-1.564.866-2.456-.01-.3.183-.509.304-.738a6.6 6.6 0 0 0 .766-2.81c.011-.268.148-.447.23-.666.226-.604.545-1.186.422-1.832.431-.575.753-1.167 1.09-1.824v-1.007l-.541-.541c-2.188 0-4.383-.047-6.575.019-1.177.035-2.001-.491-2.695-1.316-.32-.381-.536-.85-.78-1.247.25-.766.778-1.312 1.164-1.942.157-.256.477-.383.723-.563.488-.357.88-.845 1.315-1.275.296-.293.546-.646.978-.784h1.965c.516.271.979.617 1.286 1.214.264.514.938.592 1.422.67.803.13 1.669.162 2.414-.381.111-.081.276-.153.313-.257.184-.535.674-.8.987-1.2.58-.159 1.13-.396 1.785-.251.312.197.666.36.907.806.346.64 1.042.987 1.792 1.314.99.073 2.027.003 2.995-.616a4 4 0 0 0 .792-.67c.869-.953 1.881-.773 2.877-.155.238.148.464.282.628.578.21.378.579.698 1.232.853.411-.07 1.033.157 1.652-.178.466-.253.896-.508 1.302-.987.387-.456.955-.624 1.517-.755.566-.133 1.088.139 1.654.26.279.279.581.588.891.889.298.29.545.647.979.778h1.752l2.435-1.924h1.673a8.4 8.4 0 0 0 2.511 1.724c.403.061.997-.088 1.567.198.434.217.85-.242 1.329-.215l1.691-1.724c.505.163.942-.324 1.474-.2.454.106.916.202 1.408.553.244.412.605.92 1.207 1.166 1.28.521 2.222 1.374 2.699 2.702.183.749-.138 1.328-.694 1.823-.924.823-1.963 1.55-3.229 1.277-1.422-.307-2.828-.08-4.236-.178-.414-.029-.845-.085-1.207.289-.396.896-.555 1.81.191 2.735.244.303.437.782.358 1.242-.114.669.163 1.267.532 1.715.47.571.591 1.153.556 1.833-.016.287-.003.576-.003.856.342.594.685 1.203.637 1.897-.091 1.331.21 2.522 1.091 3.581 0 .224.021.476-.003.722-.103 1.029.064 2.001.659 2.857.247.355.224.728.202 1.104-.038.672.165 1.268.422 1.879.233.553.461 1.129.45 1.758-.017 1.006.119 1.971.379 2.965.271 1.032.032 2.141-.813 2.976-.231.801-.896.808-1.51.724-.375-.052-.844-.242-1.054-.528-.608-.829-1.374-1.541-1.855-2.463-.265-.508-.501-1.027-.545-1.608a.9.9 0 0 0-.133-.379 11.8 11.8 0 0 1-1.088-2.789c-.329-1.294-.572-2.618-1.16-3.836.052-.737-.33-1.39-.408-2.092-.044-.396-.409-.504-.485-.893-.285-1.464-.925-2.858-.836-4.397.008-.138-.362-1.139-.459-1.21-.426-.314-.507-.812-.606-1.26-.352-1.583-1.06-2.941-2.287-4.023-.527-.465-1.198-.611-1.82-.818-.44-.147-.856-.276-1.138-.633-.313-.4-.795-.561-1.165-.881-.142-.123-.434-.338-.751-.25-.319.089-.592-.104-.883-.205-.694-.242-1.389-.473-2.067-.87"/>
        <path d="M34.375 40.275c-.7.15-1.34-.046-1.731-.644-.278-.424-.792-.262-1.062-.599-1.78.741-2.163 1.16-2.702 2.039.011.47-.038.932.183 1.417.196.433-.162.842-.424 1.23-.387.081-.764.171-1.067-.292.077-1.588-.196-3.149-1.084-4.679.682-.79 1.483-1.562 2.378-2.162v-.86l-.852-1.186v-1.224c.243-.354.595-.574 1.071-.772h.98l.528.54c.126 1.319-.694 2.284-1.297 3.309.334 1.038 1.243 1.438 2.084 1.97h.822c.557-.41.947-.994 1.395-1.636v-.86c-.249-.081-.153-.358-.291-.524-.773-.934-.765-.94-.753-2.007.525-.825.781-1.756 1.409-2.581.476 1.343 1.252 2.466 1.897 3.66-.378.71-1.195.846-1.575 1.524v.797c.364.504.891.8 1.452 1.087.293.15.66.201.791.087.362-.314.759-.086 1.101-.223.653-.268 1.224-.649 1.673-1.229h.92l1.646 1.631c-.132.986-.848 1.533-1.639 1.973-.29.161-.66.053-.976-.167-.557-.387-1.187-.519-1.868-.443-.618.068-1.23-.033-1.866.182-.456.154-.667.606-1.143.642m10.697 1.256c-.611.385-.994.373-1.051-.057-.054-.409-.41-.752-.213-1.229-.552-.564-1.167-1.087-1.56-1.911a5.5 5.5 0 0 1 1.139-2.095h.732c.342.299.497.695.761 1.015.339.413.584 1.02.379 1.526-.269.662-.129 1.31-.184 1.96-.021.248-.003.5-.003.791"/>
        <path d="m40.565 34.137-.801.78h-2.086l-.599-.525c0-.63 1.527-1.593 2.466-1.633.428.358.8.756 1.02 1.378m3.044 1.215h-.419l-.923-.914v-.926l.313-.313h1.11l.5.598v1.042c-.15.134-.357.316-.581.513"/>
    </g>
</svg>
