<svg xmlns="http://www.w3.org/2000/svg" xml:space="preserve" width="72px" height="72px" viewBox="0 0 72 72">
    <path fill="currentColor" d="M21.541 26.593c-.191-1.162.498-2.068 1.066-2.968.302-.477.879-.806 1.357-1.128.479-.324.857-.722 1.256-1.109.626-.606 1.381-1.059 2.012-1.629.912-.822 2.01-1.394 2.843-2.321.869-.968.923-1.293.42-2.591-.251-.65-.697-1.219-.835-1.922-.012-.059-.139-.112-.133-.156.145-.96-.402-1.806-.45-2.737-.023-.438-.336-.843-.136-1.431l.561-.448h.983c.61.477.987 1.128 1.22 1.917.099.334.214.714.705.913.525.212.741.859 1.015 1.375.4.754.893 1.45 1.447 2.1.046.055.127.093.148.154.534 1.599 1.982 2.65 2.53 4.244.188.547.638.932 1.072 1.274.473.372.691.878.811 1.396.116.506.332.904.709 1.219.545.456.927 1.027 1.212 1.661.326.725.927 1.257 1.308 1.941.05.09.192.142.219.233.297 1.039.979 1.858 1.631 2.664.48.593.586 1.399 1.2 1.887.258.92.961 1.607 1.304 2.483.166.424.391.816.761 1.084.476.345.737.863.886 1.361.265.89.742 1.602 1.365 2.192.044.214-.023.379.105.552.71.947 1.037 2.141 1.914 2.984a.9.9 0 0 1 .164.254c.65 1.342 1.604 2.497 2.348 3.781.61 1.054 1.478 1.945 1.944 3.08.089.215.201.388.361.489.296.188.465.552.483.769.059.682.767 1.213.371 2.049-.047.059-.203-.042-.426.016-.934-1.046-2.161-1.884-2.906-3.151-.658-1.12-1.666-1.956-2.351-3.027-.424-.662-1.21-1.058-1.364-1.915-.032-.177-.277-.313-.421-.471-.739-.815-1.486-1.633-1.927-2.656-.167-.389-.457-.721-.759-.846-.554-.229-.775-.656-.973-1.118a5.5 5.5 0 0 0-1.281-1.851 4.4 4.4 0 0 1-.871-1.146c-.237-.465-.594-.871-.99-1.069-.457-.229-.666-.565-.88-.944-.321-.572-.66-1.124-1.146-1.578-.395-.368-.756-.771-1.15-1.14-.485-.454-.913-.938-1.148-1.578-.143-.389-.354-.722-.802-.875-.502-.171-.666-.71-.912-1.1-.618-.979-1.298-1.854-2.288-2.498-.39-.254-.653-.708-.956-1.092-.845-1.072-2.683-2.07-4.32-1.351-.989-.052-1.759.696-2.708.751-.66.039-.914.602-1.315.937-.756.631-1.58 1.193-2.226 1.958-.302.358-.774.4-1.209.455-.318.041-.651.046-.848-.327m-5.057 9.225c-1.183-.2-2.034.305-2.875.858-.335.221-.701.396-1.094.616-1.115-.084-2.095.531-3.29.979l-.826.897c-.769.152-1.416.577-2.181-.083-.238-.392-.431-.933-.043-1.559.093-.15.175-.329.309-.402.795-.429 1.364-1.086 1.861-1.811.165-.24.438-.299.645-.452.532-.394 1.08-.734 1.354-1.381.064-.153.238-.267.374-.384.903-.783 1.531-1.777 2.165-2.895.108-.426-.124-.992.194-1.533.12-.204-.022-.599-.071-.906-.127-.809-.374-1.581-.542-2.375-.225-1.061-.226-2.173-.667-3.181-.176-.403-.223-.793-.197-1.23l.577-.556c.592.347 1.43.298 1.8 1.118.302.671.677 1.307 1.058 1.94.393.654.42 1.478.878 2.118-.095.534.363.842.614 1.137.887 1.038 1.549 2.266 2.637 3.139.196.158.322.438.414.685.399 1.073 1.181 1.893 1.806 2.817.376.557.821 1.047 1.299 1.515.316.31.818.393 1.01.857.153.369.335.725.507 1.086.134.282.304.532.527.758.188.189.412.427.449.669.166 1.087.911 1.815 1.559 2.593.224.27.455.549.577.847.307.748.769 1.352 1.298 1.956.599.684 1.096 1.474 1.537 2.273.19.345.502.553.702.889.309.519.69 1.002 1.007 1.528.121.2.239.409.358.612.141.241.42.213.612.368.42.34.499.841.56 1.28.123.88.397 1.623 1.014 2.297.418.457.849.959.975 1.643.057.309.222.635.493.875.209.185.44.387.557.63.622 1.297 1.421 2.47 2.341 3.568.1.119.061.343.234.431v1.183c-.524.133-.897-.115-1.203-.445-.72-.778-1.617-1.396-2.145-2.35-.017-.03-.048-.053-.075-.076-1.135-.981-1.959-2.252-3.051-3.274-.687-.644-1.229-1.408-1.775-2.174-.351-.492-.79-.984-1.303-1.273-.371-.21-.54-.484-.727-.789a16.7 16.7 0 0 0-2.595-3.249 3.3 3.3 0 0 1-.765-1.191c-.157-.411-.429-.776-.78-.955-.539-.274-.737-.731-.98-1.212-.141-.277-.195-.611-.652-.72-.379-.089-.643-.565-.75-.947-.216-.772-.754-1.315-1.342-1.692-.858-.551-1.355-1.351-1.918-2.125-.061-.084-.115-.175-.188-.245-.651-.627-1.248-1.288-1.544-2.17-.116-.337-.54-.294-.723-.527m38.793-6.083c-.413 0-.813.037-1.204-.007-1.188-.133-2.234.301-3.189.893-.709.439-1.404.7-2.275.612-.062-.077-.151-.188-.279-.344v-1.45c.426-.625 1.057-1.049 1.645-1.546.804-.679 1.685-1.292 2.414-2.14v-2.407c-.283-.991-.997-1.796-1.09-2.902-.063-.746-.376-1.52-1.038-2.024v-1.083c.215-.379.564-.385.957-.327.293.204.559.482.665.858.19.666.667 1.083 1.218 1.415a4.5 4.5 0 0 1 1.53 1.506c.329.521.818.949 1.227 1.427a5.3 5.3 0 0 1 1.007 1.75c.403 1.213 1.357 1.91 2.181 2.745.59.086.552.737.916 1.041.104.085 0 .387.198.558.314.271.406.724.767.975.53.37.767.997 1.222 1.435.449.433.667 1.076 1.097 1.47.677.622.782 1.5 1.243 2.207.104.16.178.442.335.488.857.25 1.047 1.056 1.387 1.691.142.265.202.63.352.929.408.815.411.813.05 1.691-.304.125-.53.024-.74-.213-.463-.522-.996-.957-1.634-1.262a1 1 0 0 1-.392-.348c-.713-1.128-1.791-1.916-2.68-2.879-.438-.475-.917-.914-1.369-1.377a18.2 18.2 0 0 0-4.521-3.382"/>
</svg>
