<?xml version="1.0" encoding="iso-8859-1"?>
<!-- Generator: Adobe Illustrator 16.0.0, SVG Export Plug-In . SVG Version: 6.00 Build 0)  -->
<!DOCTYPE svg PUBLIC "-//W3C//DTD SVG 1.1//EN" "http://www.w3.org/Graphics/SVG/1.1/DTD/svg11.dtd">
<svg version="1.1" id="Layer_1" xmlns="http://www.w3.org/2000/svg" xmlns:xlink="http://www.w3.org/1999/xlink" x="0px" y="0px"
	 width="72.36px" height="72.18px" viewBox="0 0 72.36 72.18" style="enable-background:new 0 0 72.36 72.18;" xml:space="preserve"
	>
<g>
	
	<path fill="currentColor" d="M25.416,40.997c-0.254-0.717-0.653-1.068-1.312-1.12
		c-0.301-0.023-0.411-0.367-0.635-0.537c0-1.367,0-2.734,0-4.046c-0.363-0.625-0.777-1.161-1.078-1.923
		c0-0.244-0.034-0.642,0.006-1.033c0.131-1.28-0.354-2.521-0.222-3.797c-0.303-0.591-0.275-1.237-0.199-1.852
		c0.107-0.866,0.219-1.74,0.616-2.548c0.083-0.168,0.205-0.274,0.325-0.46c0.766,0.067,1.24,0.491,1.659,1.152
		c0.342,0.539,0.454,1.13,0.599,1.696c0.316,1.241,0.578,2.505,0.463,3.81c-0.046,0.522,0.163,0.983,0.395,1.455
		c0.136,0.276,0.272,0.408,0.529,0.547c0.604,0.329,1.167,0.703,1.475,1.39c0.136,0.305,0.486,0.515,0.747,0.775
		c0.369-0.042,0.499-0.379,0.734-0.564c0.158-0.736,0.263-1.479,0.486-2.185c0.167-0.529,0.558-0.94,1.134-1.111
		c0.523-0.23,0.984,0.195,1.506,0.17c0.781,0.656,0.938,1.722,1.621,2.469c0.099,1.296-0.333,2.57-0.237,3.886
		c0.029,0.396,0.315,0.681,0.28,1.099c-0.016,0.179,0.358,0.392,0.542,0.575c0.386-0.114,0.302-0.484,0.505-0.645
		c-0.451-0.813-0.28-1.65,0.1-2.373c0.45-0.857,0.939-1.701,1.41-2.589c0.353,0,0.691,0,1.018,0c0.521,0.462,0.446,1.475,1.41,1.48
		c0.386-0.351,0.392-0.79,0.384-1.243c-0.013-0.72-0.009-1.439-0.001-2.159c0.004-0.378,0.438-1.436,0.714-1.754
		c0.26-0.298,0.617-0.405,0.95-0.493c0.54,0.15,0.643,0.645,0.928,1.029c-0.031,0.614,0.061,1.234,0.346,1.858
		c0.189,0.412,0.202,0.926,0.269,1.391c0.047,0.325,0.27,0.552,0.29,0.86c0.382,0.312,0.832,0.306,1.329,0.271
		c0.595-0.413,0.855-0.996,0.797-1.763c-0.044-0.573,0.014-1.152-0.016-1.727c-0.024-0.478,0.129-0.964-0.187-1.437
		c-0.133-0.199-0.095-0.585-0.009-0.844c0.247-0.745,0.281-1.443,0.015-2.21c-0.155-0.45-0.068-1.002-0.017-1.5
		c0.05-0.475-0.234-1.005,0.204-1.423c0-0.719,0-1.438,0-2.104c0.163-0.274,0.301-0.508,0.453-0.767c0.317,0,0.633,0,1.025,0
		c0.241,0.109,0.398,0.488,0.425,0.712c0.117,1.007,0.701,1.758,1.269,2.502c0.509,0.667,0.627,1.424,0.706,2.192
		c0.147,1.44,0.325,2.881,0.227,4.336c-0.004,0.071-0.029,0.163,0.004,0.213c0.538,0.814,0.418,1.732,0.431,2.63
		c0.002,0.099,0.022,0.208,0.069,0.294c0.216,0.396,0.138,0.754,0.009,1.178c-0.195,0.639-0.332,1.301-0.495,1.953
		c-0.146,0.581-0.37,1.02-0.992,1.178c-1.22,0.2-2.513-0.185-3.755,0.232c0,0.522,0,0.949,0,1.436
		c0.209,0.547,0.638,0.937,1.232,1.203c0.479,0.214,0.902,0.509,0.929,1.15c0.007,0.155,0.176,0.335,0.205,0.557
		c0.061,0.476,0.271,0.922,0.208,1.425c-0.168,1.348,0.231,2.669,0.215,4.012c-0.017,1.332-0.157,2.686,0.037,3.988
		c0.218,1.456,0.072,2.9,0.19,4.342c0.052,0.632,0.165,1.305,0.447,1.857c0.273,0.534,0.237,1.06,0.159,1.542
		c-0.224,1.387-0.258,2.479,0.018,3.929c0.079,0.414-0.205,0.774-0.325,1.156c-0.123,0.393-0.399,0.657-0.786,0.89
		c-1.161,0.698-2.456,1.03-3.704,1.492c-0.423,0.157-0.856,0.313-1.313,0.211c-0.546-0.122-0.985,0.28-1.532,0.246
		c-0.501-0.03-1.067-0.224-1.529,0.191c-1.243-0.164-2.462,0.397-3.685,0.192c-1.055-0.177-2.128-0.22-3.165-0.439
		c-0.736-0.155-1.454-0.183-2.184-0.177c-0.325,0.003-0.531-0.385-0.882-0.224c-0.574-0.506-1.347-0.578-1.994-0.92
		c-1.456-0.769-1.577-1.72-1.2-2.806c0.155-0.446,0.172-0.973,0.031-1.368c-0.361-1.008-0.34-2.073-0.573-3.099
		c-0.144-0.632-0.251-1.399,0.153-2.068c0.08-0.132,0.028-0.353,0.015-0.53c-0.074-1.05,0.136-2.105-0.195-3.155
		c-0.237-0.752,0.03-1.571,0.244-2.266c0.343-1.111,0.157-2.142-0.121-3.155c-0.216-0.787-0.045-1.547-0.142-2.313
		c0.45-0.535,0.195-1.168,0.192-1.745c-0.002-0.578,0.198-1.175-0.165-1.763C25.283,41.656,25.416,41.214,25.416,40.997z
		 M39.26,54.52c0.192-0.399,0.601-0.855,0.591-1.302c-0.025-1.172,0.228-2.311,0.251-3.47c0.011-0.554-0.365-1.061-0.214-1.635
		c-0.397-0.744-0.708-1.618-1.585-1.885c-0.47-0.144-0.973-0.282-1.498-0.315c-0.751-0.049-1.447,0.218-2.176,0.235
		c-1.256,0.031-2.078,0.836-2.085,2.063c-0.001,0.215,0,0.43,0,0.579c0.948,1.559,0.547,3.243,0.671,4.881
		c0.276,0.12,0.399,0.364,0.468,0.646c0.605,0.215,1.176,0.482,1.854,0.494c0.74,0.013,1.229-0.538,1.831-0.683
		C38.004,54.287,38.521,54.707,39.26,54.52z"/>
	<path fill="currentColor" d="M54.678,22.386c0.589,0.011,1.137,0.007,1.691-0.348
		c0.735-0.473,1.621-0.263,2.413-0.299c0.19,0.19,0.343,0.343,0.521,0.521c0,0.327,0,0.681,0,1.076
		c-0.543,0.913-0.947,1.901-0.851,3.056c0.061,0.714,0.055,1.442-0.002,2.157c-0.047,0.583,0.093,1.149-0.153,1.767
		c-0.2,0.502-0.308,1.104-0.414,1.658c-0.326,1.694-1.262,3.165-1.659,4.83c-0.084,0.354-0.33,0.722-0.569,1.059
		c-0.384,0.542-0.676,1.141-0.883,1.791c-0.148,0.469-0.333,0.966-0.735,1.313c-0.403,0.349-0.569,0.849-0.742,1.312
		c-0.409,1.096-0.379,1.107-1.165,1.894c-1.426,0.064-1.492,0.035-2.069-0.922c-0.179-1.39,0.364-2.672,0.716-3.982
		c0.357-1.329,0.978-2.563,1.67-3.729c0.55-0.924,1.106-1.843,1.614-2.791c0.094-0.176,0.068-0.426,0.308-0.527
		c-0.073-0.874,0.157-1.701,0.361-2.541c0.219-0.904-0.04-1.748-0.418-2.62c-0.911,0.399-0.752,1.242-1.084,1.843
		c-0.246,0.25-0.517,0.523-0.834,0.844c-0.611,0.067-0.708-0.565-1.058-1.013c0-0.684,0.068-1.452-0.408-2.125
		c-0.086-0.121-0.021-0.349-0.023-0.527c-0.022-1.271-0.334-2.063-1.041-3.349c-0.646-1.174-1.443-2.266-1.97-3.5
		c-0.21-0.491-0.738-0.83-0.673-1.455c0.011-0.105-0.213-0.246-0.19-0.338c0.123-0.515-0.266-0.936-0.229-1.425
		c0.056-0.737-0.193-1.412-0.361-2.113c-0.13-0.538-0.026-1.132-0.026-1.766c0.148-0.287,0.332-0.643,0.515-0.996
		c1.866-1.069,1.866-1.069,3.448-1.046c0.152,0.153,0.305,0.305,0.525,0.526c0.086,1.002-0.727,1.708-1.071,2.788
		c0.002,0.249-0.122,0.718,0.276,1.098c0.471,0.383,0.973,0.401,1.497-0.035c0.396-0.329,0.888-0.34,1.379-0.257
		c0.229,0.229,0.458,0.458,0.708,0.708c0,0.404,0,0.831,0,1.291c-0.359,0.577-0.698,1.209-1.229,1.72
		c-0.482,0.465-0.653,1.005-0.272,1.658c0.232,0.398,0.374,0.851,0.54,1.286c0.227,0.593,0.668,0.971,1.265,1.064
		C54.335,21.991,54.462,22.222,54.678,22.386z"/>
	<path fill="currentColor" d="M41.999,26.308c-0.129,0.471-0.372,0.761-0.705,1.032
		c-0.388,0-0.813,0-1.312,0c-0.728-0.536-1.521-1.109-2.676-0.768c-0.512,0.526-0.823,1.433-1.771,1.655
		c-0.477-0.229-0.632-0.694-0.831-1.107c-0.04-0.634,0.479-0.98,0.744-1.431c0.305-0.519,0.419-1.093,0.502-1.618
		c0.082-0.516-0.247-1.092-0.59-1.604c0.017-1.319-0.479-2.518-1.389-3.472c-0.899-0.943-1.324-2.104-1.877-3.223
		c-0.28-0.566-0.488-1.172-0.804-1.737c-0.224-1.556-0.503-3.148,0.071-4.835c0.995-1.026,2.297-1.841,3.724-2.574
		c0.368,0,0.798,0,1.167,0c0.565,0.184,0.191,0.827,0.633,0.982c-0.257,0.881-0.778,1.509-1.317,2.17
		c0,0.321,0.028,0.681-0.005,1.036c-0.085,0.918,0.283,1.69,0.841,2.346c0.739,0.87,1.257,1.825,1.554,2.924
		c0.084,0.313,0.183,0.665,0.543,0.886c0.263,0,0.576,0,0.867,0c0.397-0.375,0.501-0.813,0.535-1.324
		c0.06-0.887-0.167-1.704-0.448-2.519c-0.087-0.254-0.388-0.519-0.198-0.761c0.258-0.329,0.11-0.867,0.588-1.061
		c0.06-0.024,0.1-0.101,0.144-0.147c0.406,0,0.802,0,1.197,0c0.036,0,0.072,0,0.093,0c1.183,1.053,2.062,2.311,2.714,4.02
		c0,0.409-0.03,1.09,0.008,1.767c0.054,0.965-0.374,1.729-0.974,2.402c-0.83,0.934-1.479,1.942-1.626,3.214
		c-0.506,0.728-0.051,1.367,0.229,1.991C41.884,25.126,42.217,25.658,41.999,26.308z"/>
	<path fill="currentColor" d="M16.58,20.251c0.298,0.061,0.402-0.191,0.602-0.236
		c0.422,0.281,0.935,0.33,1.391,0.558c0.562,0.28,0.863,0.692,0.988,1.214c0.091,0.382,0.242,0.716,0.466,0.995
		c0.46,0.571,0.554,1.287,0.836,1.925c0.439,0.992,0.242,2.029-0.046,3.027c-0.19,0.66-0.459,1.306-0.361,2.004
		c0.072,0.51-0.396,0.907-0.218,1.373c-0.327,0.422-0.737,0.69-0.964,1.164c-0.14,0.292-0.183,0.597-0.096,0.804
		c0.248,0.585,0.428,1.209,0.96,1.661c0.607,0.515,1.054,1.167,1.173,1.99c0.732,0.854,0.958,2.016,1.731,2.849
		c0.18,0.193,0.405,0.451,0.41,0.684c0.023,1.183,0.536,2.285,0.478,3.492c-0.041,0.852-0.251,1.462-1.084,1.747
		c-1.193-0.315-1.49-1.396-1.696-2.327c-0.176-0.797-0.564-1.381-1.022-1.956c-0.218-0.274-0.395-0.563-0.536-0.864
		c-0.704-1.504-1.642-2.84-2.806-4.019c-0.506-0.512-1.01-1.026-1.528-1.525c-0.792-0.762-1.511-1.608-2.174-2.461
		c-0.885-1.139-1.613-2.438-1.5-4.011c0.051-0.716,0.009-1.439,0.009-2.116c0.235-0.382,0.365-0.804,0.882-1.02
		c0.237,0,0.597,0,0.888,0c0.554,0.22,0.779,0.671,1.038,1.092c0.203,0.33,0.421,0.556,0.86,0.669
		c0.499,0.129,1.032,0.357,1.395,0.819c0.205,0,0.418,0,0.662,0c0.21-0.071,0.106-0.34,0.266-0.506
		c0.383-0.398,0.537-1.369,0.336-1.885c-0.084-0.219-0.024-0.417-0.063-0.621c-0.147-0.76-0.204-1.521-0.742-2.184
		C16.609,21.963,16.48,21.154,16.58,20.251z"/>
	<path fill="currentColor" d="M26.925,17.688c0.433,0.662,0.533,1.383,0.876,1.99
		c0.268,0.474,0.533,0.97,1.087,1.207c0.292,0.125,0.522,0.342,0.63,0.653c0.178,0.511,0.54,0.879,0.922,1.236
		c0.737,0.688,1.098,1.624,1.594,2.468c0.275,0.469-0.007,0.932-0.139,1.386c-0.142,0.49-0.39,0.925-0.698,1.354
		c-0.387,0-0.772,0-1.203,0c-0.219-0.348-0.467-0.713-0.685-1.095c-0.145-0.253-0.34-0.518-0.58-0.586
		c-0.548-0.157-0.62-0.607-0.709-1.015c-0.207-0.946-0.63-1.739-1.208-2.533c-0.578-0.793-1.467-1.311-1.866-2.235
		c-0.76-0.431-1.48-0.961-2.423-0.938c-0.6-0.521-1.168-1.064-1.314-1.916c-0.019-0.107-0.062-0.286-0.143-0.364
		c-0.919-0.897-1.092-2.027-1.051-3.081c0.193-0.531,0.431-0.866,0.767-1.108c0.44,0,0.87,0,1.279,0
		c0.306,0.271,0.621,0.466,1.07,0.421c0.214-0.245,0.448-0.512,0.772-0.883c0.237-0.866-0.402-1.839-0.167-2.95
		c0.116-0.099,0.307-0.26,0.57-0.483c0.212,0,0.532-0.01,0.852,0.002c0.659,0.025,1.282,0.424,1.307,1.046
		c0.029,0.707,0.405,1.289,0.513,1.968c0.075,0.475,0.152,0.948,0.161,1.428c0.015,0.719,0.128,1.467-0.032,2.148
		C26.959,16.437,26.951,17.045,26.925,17.688z"/>
	
</g>
</svg>
