<?xml version="1.0" encoding="iso-8859-1"?>
<!-- Generator: Adobe Illustrator 16.0.0, SVG Export Plug-In . SVG Version: 6.00 Build 0)  -->
<!DOCTYPE svg PUBLIC "-//W3C//DTD SVG 1.1//EN" "http://www.w3.org/Graphics/SVG/1.1/DTD/svg11.dtd">
<svg version="1.1" id="Layer_1" xmlns="http://www.w3.org/2000/svg" xmlns:xlink="http://www.w3.org/1999/xlink" x="0px" y="0px"
	 width="72.36px" height="72.18px" viewBox="0 0 72.36 72.18" style="enable-background:new 0 0 72.36 72.18;" xml:space="preserve"
	>
<g>
	
	<path fill="currentColor" d="M28.176,64.937c-0.841,0.049-1.356-0.28-1.76-1.013
		c-0.495-0.898-0.69-1.876-1.017-2.821c-0.193-0.56-0.255-1.212-0.857-1.654c0.161-0.53-0.059-1.069-0.266-1.55
		c-0.392-0.906-0.672-1.831-0.791-2.799c-0.058-0.474-0.723-0.515-0.545-1.088c-0.207-0.926-0.307-1.907-0.979-2.891
		c-0.054-0.522,0.111-1.237-0.216-1.891c-0.224-0.446-0.594-0.896-0.608-1.352c-0.016-0.538-0.218-1.016-0.295-1.523
		c-0.086-0.569-0.537-1.051-0.682-1.654c-0.117-0.487-0.435-0.937-0.351-1.465c0.041-0.261-0.184-0.355-0.244-0.555
		c-0.078-0.258-0.25-0.479-0.202-0.78c0.109-0.678-0.141-1.309-0.449-1.859c-0.434-0.773-0.703-1.552-0.63-2.318
		c-0.411-0.923-0.868-1.694-1.193-2.545c-0.153-0.402,0.146-0.875-0.268-1.183c-0.091-0.786-0.638-1.391-0.849-2.132
		c-0.086-0.303-0.122-0.543,0.162-0.718c-0.216-0.736-0.501-1.414-0.881-2.041c-0.238-0.391-0.192-0.798-0.208-1.163
		c-0.545-0.869-0.932-1.76-1.066-2.734c-0.055-0.401-0.223-0.719-0.471-0.993c-0.41-0.454-0.909-0.833-1.277-1.314
		c-0.342-0.447-0.562-0.988-0.856-1.523c0-0.313,0-0.672,0-0.945c0.81-1.923,2.27-2.658,4.199-2.581
		c1.442,0.912,1.442,0.912,2.279,2.274c0,0.72,0,1.439,0,1.916c0.267,0.372,0.432,0.601,0.613,0.854
		c1.581-0.593,2.814-1.611,4.079-2.662c0.363-0.007,0.755-0.02,1.163-0.197c0.639-0.278,1.346-0.371,2.013-0.607
		c0.546-0.194,1.263-0.231,1.77,0.033c0.375,0.195,0.95-0.198,1.114,0.45c0.157,0.787-0.129,1.653,0.238,2.526
		c-0.502,0.581,0.112,1.462-0.42,2.141c0.175,0.352,0.437,0.547,0.83,0.339c0.533-0.284,1.182-0.497,1.533-0.938
		c0.46-0.579,1.059-1.072,1.334-1.81c0.339-0.908,0.968-1.64,1.607-2.396c0.676,0.217,1.29-0.165,1.95-0.211
		c0.684-0.048,1.296,0.265,1.964,0.242c0.646-0.022,1.303,0.057,1.94-0.022c0.689-0.085,1.272,0.421,1.892,0.209
		c0.641,0.563,1.418,0.598,2.091,0.884c0.062,0.025,0.162-0.026,0.212,0.007c1.148,0.771,2.462,0.767,3.725,0.609
		c1.091-0.136,2.173-0.149,3.261-0.193c0.396-0.017,0.792-0.158,1.178-0.275c0.317-0.096,0.611-0.291,0.933-0.347
		c0.349-0.062,0.719,0.008,1.076-0.019c0.728-0.056,1.461,0.135,2.189-0.187c0.327-0.145,0.773-0.024,1.138-0.024
		c0.104,0.104,0.18,0.18,0.29,0.29c0,0.421,0,0.88,0,1.375c-0.422,0.678-0.967,1.278-1.712,1.716
		c-1.03,0.605-1.924,1.392-2.731,2.277c-0.372,0.408-0.815,0.659-1.368,0.865c-0.895,0.334-1.785,0.763-2.573,1.315
		c0,0.18,0,0.322,0,0.552c0.377-0.085,0.656,0.242,1.034,0.249c0.396,0.007,0.793,0.017,1.188-0.002
		c0.631-0.028,1.206,0.273,1.829,0.288c0.082,0.002,0.123,0.178,0.261,0.146c0.578-0.396,1.229-0.155,1.849-0.205
		c0.272,0.352,0.657,0.178,0.994,0.201c0.395,0.026,0.795,0.042,1.187-0.001c0.888-0.098,1.731,0.181,2.593,0.286
		c0.161,0.02,0.259-0.019,0.386-0.024c0.968-0.045,1.952-0.131,2.901,0.003c0.479,0.068,1.098,0.135,1.509,0.726
		c0.206,0.81-0.119,1.494-0.788,2.123c-1.077,1.014-1.864,1.433-3.34,2.11c-0.874,0.401-1.826,0.662-2.652,1.242
		c-0.82,0.054-1.662,0.159-2.386,0.672c-0.469,0.333-1.102,0.042-1.55,0.43c-0.781-0.135-1.505,0.375-2.285,0.213
		c-0.577-0.12-1.077,0.243-1.639,0.224c-0.539-0.02-1.106-0.108-1.611,0.024c-0.517,0.137-1.017,0.188-1.537,0.187
		c-0.333-0.489-0.909-0.083-1.361-0.389c-0.338-0.228-0.92-0.052-1.402-0.234c-0.493-0.187-1.037-0.24-1.552-0.422
		c-0.508-0.179-1.122,0.124-1.627-0.248c-0.023-0.017-0.071-0.006-0.106-0.001c-1.384,0.166-2.73-0.403-4.122-0.188
		c-0.082,0.234-0.384,0.115-0.515,0.291c-0.342,0.459-0.878,0.69-1.278,1.076c-0.393,0.378-0.603,0.908-0.86,1.37
		c-0.647,1.166-1.678,1.878-2.708,2.616c-0.688,0.016-1.229,0.664-1.974,0.456c-0.132-0.036-0.322-0.057-0.421,0.011
		c-0.889,0.597-1.889,0.377-2.853,0.414c-0.251,0.011-0.503,0.002-0.755,0.002c-0.355-0.188-0.667-0.487-1.148-0.429
		c-0.224-0.253-0.46-0.521-0.714-0.809c-0.301-1.17-0.423-2.401-0.002-3.64c-0.344-0.179-0.674-0.023-0.998-0.12
		c-0.163,0.202-0.32,0.397-0.538,0.668c0.068,0.287-0.116,0.694,0.106,1.116c0.352,0.665,0.305,1.446,0.523,2.156
		c0.05,0.162,0.007,0.354,0.007,0.503c0.263,0.271,0.294,0.674,0.671,0.859c-0.154,1.122,0.077,2.185,0.564,3.197
		c0.18,0.374-0.118,0.858,0.276,1.182c-0.066,0.606,0.263,1.111,0.434,1.655c0.269,0.86,0.397,1.765,0.814,2.578
		c0.03,0.059,0.053,0.133,0.045,0.195c-0.098,0.855,0.311,1.59,0.572,2.356c0.12,0.351,0.228,0.746,0.251,1.067
		c0.044,0.638,0.477,1.042,0.625,1.592c0.11,0.766,0.265,1.523,0.483,2.281c0.255,0.884,0.597,1.768,0.449,2.623
		C28.617,62.658,29.03,63.714,28.176,64.937z"/>
</g>
</svg>
