<?xml version="1.0" encoding="iso-8859-1"?>
<!-- Generator: Adobe Illustrator 16.0.0, SVG Export Plug-In . SVG Version: 6.00 Build 0)  -->
<!DOCTYPE svg PUBLIC "-//W3C//DTD SVG 1.1//EN" "http://www.w3.org/Graphics/SVG/1.1/DTD/svg11.dtd">
<svg version="1.1" id="Layer_1" xmlns="http://www.w3.org/2000/svg" xmlns:xlink="http://www.w3.org/1999/xlink" x="0px" y="0px"
	 width="72.36px" height="72.18px" viewBox="0 0 72.36 72.18" style="enable-background:new 0 0 72.36 72.18;" xml:space="preserve"
	>
<g>
	
	<path fill="currentColor" d="M24.035,35.583c0.299-0.078,0.353,0.337,0.629,0.195
		c0.118,0.238,0.236,0.477,0.32,0.646c0,0.119,0.014,0.164-0.002,0.189c-0.47,0.746,0.013,1.376,0.339,1.946
		c0.266,0.465,0.712,0.894,1.263,1.064c0.207,0.064,0.335,0.233,0.638,0.28c0.556-0.868,1.656-1.061,2.446-1.722
		c0.133-0.111,0.355-0.2,0.493-0.346c0.861-0.916,1.946-1.547,2.97-2.239c0.391-0.264,0.64-0.751,1.167-0.812
		c0.551-0.651,1.273-1.115,1.918-1.653c0.93-0.776,1.725-1.689,2.651-2.452c0.68-0.559,1.298-1.248,2.165-1.531
		c0.408-0.134,0.632-0.436,0.894-0.706c0.679-0.702,1.389-1.357,2.311-1.728c0.214-0.086,0.341-0.255,0.475-0.409
		c0.662-0.759,1.609-1.284,1.921-2.334c0.026-0.091,0.134-0.201,0.224-0.224c0.526-0.132,0.734-0.642,1.149-0.899
		c0.844-0.139,1.59-0.53,2.002-1.277c0.182-0.329,0.402-0.489,0.666-0.55c0.669-0.154,1.153-0.59,1.474-1.1
		c0.539-0.856,1.39-1.296,2.137-1.878c0.314-0.245,0.776-0.379,1.242-0.406c0.113,0.196,0.229,0.395,0.347,0.599
		c-0.043,0.604-0.567,0.918-0.879,1.352c-0.667,0.927-1.304,1.869-2.106,2.71c-0.953,1-1.975,1.956-2.822,3.038
		c-0.672,0.857-1.313,1.751-1.963,2.632c-0.423,0.572-0.8,1.179-1.199,1.77c-0.02,0.029-0.047,0.055-0.076,0.076
		c-1.171,0.841-1.739,2.243-2.886,3.106c-0.227,0.17-0.36,0.405-0.464,0.671c-0.27,0.694-0.885,1.138-1.321,1.71
		c-0.522,0.685-1.092,1.338-1.577,2.056c-0.077,0.114-0.249,0.221-0.245,0.324c0.027,0.636-0.5,0.756-0.877,1.036
		c-0.147,0.109-0.383-0.01-0.413,0.135c-0.279,0.381-0.495,0.688-0.446,1.136c-1.435,1.472-3.111,2.789-3.725,4.857
		c-0.506,0.338-1.088,0.447-1.439,1.005c0,0.28,0,0.634,0,1.099c0.964,0.716,1.893,1.661,3.297,1.59
		c0.261,0.155,0.494,0.294,0.679,0.404c0.19,0.281,0.041,0.538,0.122,0.753c-0.253,0.252-0.482,0.481-0.711,0.711
		c-0.063,0.021-0.125,0.047-0.19,0.062c-1.274,0.292-1.27,0.283-2.559-0.429c-0.836-0.461-1.673-0.923-2.355-1.603
		c-0.185-0.185-0.537-0.015-0.555-0.366c-0.456,0.155-0.824,0.329-1.092,0.667c-0.864,0-1.727,0-2.594,0
		c-0.677,0.647-1.272,1.395-2.183,1.761c-0.154,0.062-0.289,0.227-0.381,0.376c-0.743,1.2-1.923,1.991-2.821,3.045
		c-0.176,0.206-0.419,0.291-0.613,0.351c-0.574,0.178-0.913,0.648-0.981,1.095c-0.072,0.475-0.382,0.645-0.559,0.915
		c-1.084,0.131-1.992,0.903-3.093,0.625c-0.297-0.234-0.367-0.578-0.474-0.813c-0.071-0.277,0.126-0.393,0.158-0.536
		c0.122-0.537,0.677-0.706,0.896-1.144c0.206-0.413,0.523-0.718,0.848-1.044c0.721-0.724,1.494-1.391,2.107-2.239
		c0.564-0.781,1.223-1.506,1.803-2.286c0.364-0.489,0.935-0.726,1.38-1.123c0.657-0.588,0.933-1.342,1.185-2.112
		c0.091-0.278,0.352-0.514,0.252-0.879c-0.073-0.267-0.015-0.57,0.018-0.845c0.108-0.535,0.844-0.794,0.542-1.583
		c-0.506-0.403-0.905-1.014-1.14-1.767c-0.115-0.367-0.289-0.745-0.581-1.059c-0.433-0.466-0.372-1.136-0.577-1.7
		c-0.046-0.126-0.009-0.281-0.047-0.413c-0.269-0.943-0.184-1.167,0.627-1.63C23.928,35.686,24,35.611,24.035,35.583z"/>
</g>
</svg>
