<?xml version="1.0" encoding="iso-8859-1"?>
<!-- Generator: Adobe Illustrator 16.0.0, SVG Export Plug-In . SVG Version: 6.00 Build 0)  -->
<!DOCTYPE svg PUBLIC "-//W3C//DTD SVG 1.1//EN" "http://www.w3.org/Graphics/SVG/1.1/DTD/svg11.dtd">
<svg version="1.1" id="Layer_1" xmlns="http://www.w3.org/2000/svg" xmlns:xlink="http://www.w3.org/1999/xlink" x="0px" y="0px"
	 width="72.36px" height="72.18px" viewBox="0 0 72.36 72.18" style="enable-background:new 0 0 72.36 72.18;" xml:space="preserve"
	>
<g>
	
	<path fill="currentColor" d="M51.228,43.775c-2.059-0.313-2.574-0.21-4.322,0.864
		c-0.936,0-1.872-0.015-2.807,0.007c-0.371,0.009-0.756-0.124-1.116,0.188c-0.145,0.125-0.514,0.092-0.733,0.007
		c-0.681-0.261-1.379-0.192-2.075-0.2c-0.684-0.009-1.367-0.002-2.078-0.002c-0.718,0.546-1.462,0.631-2.22,0
		c-0.167,0-0.347,0-0.526,0c-0.612-0.001-1.271,0.141-1.821-0.043c-0.514-0.172-1.053-0.259-1.536-0.455
		c-0.36-0.146-0.681-0.135-1.017-0.139C30.651,44,30.453,43.702,30.09,43.76c-0.852,0.138-1.602-0.159-2.329-0.619
		c-0.701-0.444-1.399-0.868-1.982-1.473c-0.508-0.526-0.89-1.126-1.227-1.764c-0.234-0.443-0.378-0.927-0.958-1.12
		c-0.275-0.092-0.6-0.396-0.671-0.666c-0.19-0.718-0.825-0.676-1.29-0.795c-0.649-0.167-1.186-0.437-1.708-0.853
		c-1.003-0.799-1.901-1.704-2.796-2.614c-0.158-0.161-0.419-0.166-0.512-0.31c-0.204-0.314-0.65-0.298-0.795-0.73
		c-0.103-0.305-0.479-0.519-0.734-0.773c-0.068-0.755-0.332-1.339-0.917-2.017c0.127-0.734-0.08-1.443-0.436-2.063
		c-0.482-0.839-0.703-1.702-0.634-2.657c0.021-0.287,0.003-0.576,0.003-0.864c-0.605-0.601-0.4-1.369-0.433-2.095
		c0.398-0.474,0.592-1.174,1.362-1.252c0.635,0.413,1.004,1.083,1.41,1.668c0.346,0.5,0.736,0.755,1.258,0.923
		c0.72,0.231,1.014,0.488,1.415,1.232c0.379,0.326,0.836,0.282,1.288,0.281c1.368-0.004,2.737-0.052,4.103,0.009
		c2.641,0.118,5.263-0.379,7.9-0.21c0.354,0.023,0.6-0.17,0.874-0.262c0.62-0.208,1.153-0.231,1.782,0.009
		c0.935,0.356,1.925,0.566,2.944,0.45c0.673-0.077,1.311,0.121,1.963,0.211c0.161,0.022,0.255,0.098,0.352,0.198
		c0.427,0.445,0.963,0.516,1.548,0.434c0.569,0.907,1.577,0.874,2.432,1.169c0.67,0.898,1.375,1.748,2.343,2.371
		c0.556,0.357,0.884,0.997,1.283,1.516c0.826,1.074,1.509,2.258,2.322,3.346c0.593,0.793,0.991,1.667,1.295,2.597
		c0.021,0.062,0.095,0.104,0.156,0.169c-0.013,0.299-0.299,0.515-0.242,0.872c0.119,0.755-0.095,1.522,0.198,2.296
		c0.166,0.438,0.373,0.787,0.668,1.13c0.646,0.749,1.548,1.265,1.99,2.196c0.448,0.099,0.722,0.449,0.97,0.771
		c0.895,1.159,1.957,2.157,2.991,3.182c0.268,0.265,0.477,0.592,0.894,0.712c0.212,0.062,0.455,0.306,0.523,0.52
		c0.296,0.923,1.319,1.236,1.693,2.088c0.081,0.185,0.295,0.311,0.451,0.466c0,0.716,0,1.436,0,2.15
		c-0.164,0.366-0.623,0.276-0.785,0.604c-0.421-0.129-0.772-0.236-1.172-0.358c-0.41-0.876-1.052-1.652-1.315-2.667
		c-0.154-0.59-0.685-1.074-0.997-1.634c-0.28-0.502-0.683-0.885-1.078-1.279c-0.767-0.766-1.49-1.554-2.089-2.476
		c-0.305-0.47-0.734-0.926-1.322-1.188C51.741,44.441,51.508,44.056,51.228,43.775z M41.797,32.825
		c0.124,0.418,0.361,0.633,0.733,0.812c0.81,0.39,1.577,0.865,2.378,1.275c0.245,0.125,0.336,0.418,0.675,0.456
		c0.659,0.072,1.093,0.513,1.435,1.059c0.334,0.533,0.912,0.756,1.424,1.085c-0.307-0.695-0.479-1.45-1.108-1.941
		c-0.571,0.01-0.962-0.311-1.333-0.689c-0.365-0.371-0.682-0.863-1.206-0.969c-0.535-0.108-0.931-0.415-1.314-0.719
		C42.974,32.793,42.462,32.67,41.797,32.825z"/>
	
</g>
</svg>
