<?xml version="1.0" encoding="iso-8859-1"?>
<!-- Generator: Adobe Illustrator 16.0.0, SVG Export Plug-In . SVG Version: 6.00 Build 0)  -->
<!DOCTYPE svg PUBLIC "-//W3C//DTD SVG 1.1//EN" "http://www.w3.org/Graphics/SVG/1.1/DTD/svg11.dtd">
<svg version="1.1" id="Layer_1" xmlns="http://www.w3.org/2000/svg" xmlns:xlink="http://www.w3.org/1999/xlink" x="0px" y="0px"
	 width="72.36px" height="72.18px" viewBox="0 0 72.36 72.18" style="enable-background:new 0 0 72.36 72.18;" xml:space="preserve"
	>
<g>
	<path style="fill-rule:evenodd;clip-rule:evenodd;fill:none;" d="M-6.984,79.631c0-28.871,0-57.743,0-86.615
		c28.8,0,57.6,0,86.399,0c0,28.872,0,57.744,0,86.615C50.616,79.631,21.816,79.631-6.984,79.631z M55.649,55.123
		c0.046-0.623,0.22-1.102,0.453-1.317c0.837-0.778,0.921-0.981,1.297-2.037c0.188-0.527,0.267-1.122,0.741-1.534
		c0.163-0.142,0.311-0.409,0.305-0.614c-0.013-0.406,0.207-0.713,0.31-1.067c0.236-0.81,0.561-1.612,0.556-2.462
		c-0.004-0.57,0.161-1.085,0.303-1.611c0.031-0.116,0.154-0.21,0.15-0.369c-0.021-1.092,0.344-2.154,0.226-3.259
		c-0.038-0.363-0.097-0.745,0.179-1.115c0.135-0.181,0.085-0.579-0.007-0.834c-0.271-0.753-0.413-1.518-0.403-2.316
		c0.002-0.173,0.011-0.361-0.047-0.519c-0.199-0.544-0.261-1.123-0.414-1.668c-0.167-0.591-0.161-1.166-0.188-1.751
		c-0.648-0.719-0.869-1.657-1.285-2.494c-0.177-0.355-0.323-0.732-0.471-1.101c-0.562-1.41-1.031-2.905-2.298-3.9
		c-0.274-0.215-0.244-0.481-0.294-0.742c-0.183-0.183-0.377-0.348-0.534-0.543c-0.123-0.154-0.345-0.122-0.441-0.233
		c-0.444-0.509-1.143-0.726-1.516-1.294c-0.47-0.715-0.963-1.347-1.94-1.289c-0.079,0.004-0.161-0.12-0.249-0.172
		c-1.2-0.715-2.475-1.323-3.4-2.396c-0.54,0-1.039,0-1.538,0c-0.276-0.158-0.504-0.396-0.761-0.532
		c-0.528-0.28-1.049-0.666-1.723-0.533c-0.528,0.104-1.086-0.008-1.507-0.251c-0.288-0.166-0.618-0.056-0.856-0.3
		c-0.349-0.358-0.619,0.178-0.948,0.122c-0.169-0.029-0.33,0.011-0.514-0.063c-0.507-0.202-1.001-0.616-1.606-0.169
		c-0.114,0.085-0.378,0.016-0.594-0.083c-0.695-0.32-1.516-0.37-2.077-0.979c-0.748,0.019-1.026-0.56-1.242-1.092
		c-0.276-0.681-0.863-1.014-1.421-1.253c-0.92-0.395-1.751-0.883-2.496-1.52c-0.779-0.131-1.409-0.515-1.896-1.066
		c-0.345,0-0.66,0-0.976,0c-0.374,0.107-0.145,0.591-0.457,0.712c0,0.861,0,1.723,0,2.588c0.116,0.235,0.505,0.308,0.413,0.677
		c-0.143,0.173-0.337,0.052-0.534,0.099c-0.337-0.495-0.929-0.662-1.384-1.008c-0.528-0.403-1.118-0.455-1.694-0.555
		c-0.814-0.924-1.724-1.685-2.738-2.32c-0.052-0.033-0.139-0.011-0.23-0.015c-0.162,0.174-0.423,0.328-0.502,0.57
		c-0.135,0.413,0.058,0.917-0.231,1.382c-0.198,0.32,0.203,0.633,0.201,0.98c-0.002,0.574,0,1.149,0,1.708
		c0.539,0.784,1.05,1.566,1.752,2.182c-0.062,0.2,0.056,0.399-0.175,0.544c-0.407-0.066-0.555-0.607-1.021-0.621
		c-0.728-0.007-1.412-0.13-1.993-0.672c-0.088-0.082-0.306-0.265-0.536-0.243c-0.669,0.065-1.108-0.335-1.508-0.784
		c-0.493-0.552-1.024-1.033-1.79-1.158c-1.021,0.638-1.424,1.349-1.425,2.51c0,0.573,0,1.146,0,1.675
		c0.403,0.712,0.662,1.511,1.196,2.019c0.554,0.526,1.278,0.894,1.836,1.475c-0.264,0.145-0.444,0.102-0.701-0.028
		c-0.635-0.32-1.302-0.643-2.047-0.514c-0.359,0.062-0.559-0.247-0.867-0.268c-0.158-0.701-1.008-0.688-1.227-1.239
		c-0.354,0-0.638,0-0.91,0c-0.307,0.397-0.28,0.845-0.32,1.296c-0.054,0.61,0.292,1.138,0.243,1.748
		c-0.085,1.054,0.259,1.969,0.897,2.524c0.408,1.052,1.254,1.617,1.5,2.573c-0.938,0.229-1.571-0.196-2.104-0.842
		c-0.4,0.141-0.702-0.063-0.96-0.191c-0.879,0.285-1.037,0.967-1.069,1.703c-0.036,0.844,0.085,1.089,0.622,2.118
		c0.11,0.211,0.299,0.427,0.257,0.765c-0.108,0.874,0.199,1.67,0.624,2.431c0.529,0.947,1.143,1.789,2.112,2.358
		c0.448,0.264,0.716,0.745,0.703,1.319c0.618,0.628,0.618,0.628,0.883,1.433c-0.611,0.765-0.752,1.699-0.673,2.689
		c0.023,0.285,0.004,0.573,0.004,0.849c0.214,0.214,0.417,0.418,0.648,0.648c0,0.186-0.016,0.399,0.004,0.609
		c0.019,0.201-0.156,0.319-0.187,0.461c-0.064,0.3-0.134,0.653,0.039,0.93c0.215,0.344,0.232,0.632-0.003,0.963
		c-0.153,0.215-0.054,0.479-0.057,0.721c0.28,0.28,0.56,0.56,0.84,0.84c0.031,0.969,0.352,1.809,1.107,2.396
		c-0.079,0.507,0.073,0.905,0.352,1.207c0.634,0.687,1.232,1.457,1.998,1.959c0.886,0.582,1.327,1.462,1.974,2.255
		c-0.261,1.031,0.448,1.537,1.305,2.053c0.853-0.288,1.743,0.348,2.663,0.179c0.458,0.508,1.027,0.612,1.615,0.655
		c1.265,0.093,2.55-0.207,3.799,0.211c0.129,0.043,0.33,0.063,0.422-0.006c0.624-0.468,1.319-0.053,2.061-0.254
		c0.184,0.231,0.383,0.481,0.555,0.698c0.525,0,1.071-0.153,1.443,0.036c0.534,0.272,1.046,0.188,1.547,0.154
		c0.548-0.035,0.99,0.271,1.532,0.266c0.953-0.009,1.86-0.36,2.827-0.251c1.667,0.188,3.318-0.241,4.983-0.194
		c0.249,0.007,0.315-0.303,0.5-0.245c0.534,0.327,1.027,0.332,1.535,0.104c0.722-0.323,1.466-0.538,2.269-0.521
		c0.717,0.016,1.436,0.003,2.145,0.003c0.333-0.415,0.896-0.313,1.274-0.617c0.089-0.071,0.327-0.087,0.407-0.021
		c0.478,0.399,1.032,0.106,1.523,0.222c0.346-0.343,0.676-0.67,1.005-0.996c0-0.511,0-1.013,0-1.274
		C54.964,55.737,55.326,55.45,55.649,55.123z M62.626,32.404c0.219-0.293,0.223-0.509,0.052-0.727
		c-0.104,0.017-0.223-0.044-0.295,0.082C62.361,31.973,62.248,32.221,62.626,32.404z"/>
	<path style="fill-rule:evenodd;clip-rule:evenodd;" d="M55.649,55.123c-0.323,0.327-0.685,0.614-0.852,1.302
		c0,0.262,0,0.764,0,1.274c-0.329,0.326-0.659,0.653-1.005,0.996c-0.491-0.115-1.046,0.178-1.523-0.222
		c-0.08-0.066-0.318-0.051-0.407,0.021c-0.378,0.305-0.941,0.202-1.274,0.617c-0.709,0-1.428,0.013-2.145-0.003
		c-0.803-0.018-1.547,0.197-2.269,0.521c-0.508,0.229-1.001,0.224-1.535-0.104c-0.185-0.058-0.251,0.252-0.5,0.245
		c-1.665-0.047-3.316,0.382-4.983,0.194c-0.967-0.109-1.874,0.242-2.827,0.251c-0.542,0.006-0.984-0.301-1.532-0.266
		c-0.5,0.033-1.013,0.118-1.547-0.154c-0.372-0.189-0.917-0.036-1.443-0.036c-0.172-0.217-0.371-0.467-0.555-0.698
		c-0.742,0.201-1.438-0.214-2.061,0.254c-0.092,0.069-0.293,0.049-0.422,0.006c-1.249-0.418-2.535-0.118-3.799-0.211
		c-0.588-0.043-1.157-0.147-1.615-0.655c-0.92,0.169-1.81-0.467-2.663-0.179c-0.857-0.516-1.566-1.021-1.305-2.053
		c-0.647-0.793-1.088-1.673-1.974-2.255c-0.766-0.502-1.364-1.272-1.998-1.959c-0.278-0.302-0.43-0.7-0.352-1.207
		c-0.755-0.587-1.076-1.427-1.107-2.396c-0.28-0.28-0.56-0.56-0.84-0.84c0.003-0.242-0.096-0.506,0.058-0.721
		c0.235-0.331,0.219-0.619,0.003-0.963c-0.172-0.276-0.103-0.63-0.039-0.93c0.031-0.142,0.206-0.26,0.187-0.461
		c-0.02-0.21-0.004-0.424-0.004-0.609c-0.23-0.23-0.434-0.435-0.648-0.648c0-0.275,0.019-0.563-0.004-0.849
		c-0.079-0.99,0.062-1.925,0.673-2.689c-0.266-0.805-0.266-0.805-0.883-1.433c0.013-0.574-0.255-1.056-0.703-1.319
		c-0.969-0.569-1.583-1.411-2.112-2.358c-0.425-0.76-0.732-1.557-0.624-2.431c0.042-0.338-0.147-0.554-0.257-0.765
		c-0.537-1.029-0.658-1.274-0.622-2.118c0.032-0.736,0.19-1.418,1.069-1.703c0.258,0.129,0.56,0.332,0.96,0.191
		c0.533,0.646,1.166,1.072,2.104,0.842c-0.246-0.957-1.092-1.521-1.5-2.573c-0.638-0.555-0.982-1.47-0.897-2.524
		c0.049-0.61-0.297-1.138-0.243-1.748c0.041-0.451,0.013-0.899,0.32-1.296c0.272,0,0.556,0,0.91,0
		c0.219,0.551,1.068,0.538,1.227,1.239c0.308,0.021,0.508,0.33,0.867,0.268c0.746-0.129,1.413,0.193,2.047,0.514
		c0.257,0.129,0.437,0.172,0.701,0.028c-0.558-0.582-1.283-0.949-1.836-1.475c-0.534-0.508-0.793-1.307-1.196-2.019
		c0-0.528,0-1.102,0-1.675c0-1.161,0.404-1.872,1.425-2.51c0.766,0.124,1.297,0.605,1.79,1.157c0.4,0.448,0.839,0.849,1.508,0.784
		c0.23-0.022,0.448,0.161,0.536,0.243c0.582,0.542,1.266,0.665,1.993,0.672c0.466,0.014,0.614,0.554,1.021,0.621
		c0.231-0.145,0.113-0.344,0.175-0.544c-0.702-0.616-1.213-1.397-1.752-2.182c0-0.559-0.002-1.134,0-1.708
		c0.002-0.347-0.399-0.661-0.201-0.98c0.289-0.465,0.096-0.97,0.231-1.382c0.079-0.242,0.341-0.396,0.502-0.57
		c0.091,0.004,0.178-0.018,0.23,0.015c1.014,0.636,1.924,1.396,2.738,2.32c0.576,0.1,1.166,0.152,1.694,0.555
		c0.455,0.347,1.046,0.514,1.384,1.008c0.197-0.047,0.392,0.074,0.534-0.099c0.093-0.37-0.297-0.442-0.413-0.677
		c0-0.865,0-1.727,0-2.588c0.313-0.121,0.083-0.605,0.457-0.712c0.315,0,0.63,0,0.976,0c0.487,0.552,1.117,0.935,1.896,1.066
		c0.745,0.637,1.576,1.125,2.496,1.52c0.558,0.24,1.145,0.572,1.421,1.253c0.215,0.532,0.494,1.111,1.242,1.092
		c0.562,0.609,1.382,0.659,2.077,0.979c0.216,0.1,0.48,0.168,0.594,0.083c0.605-0.447,1.1-0.033,1.606,0.169
		c0.184,0.073,0.345,0.034,0.514,0.063c0.329,0.057,0.6-0.479,0.948-0.122c0.238,0.245,0.568,0.135,0.856,0.3
		c0.421,0.243,0.979,0.355,1.507,0.251c0.674-0.132,1.194,0.253,1.723,0.533c0.257,0.136,0.484,0.374,0.761,0.532
		c0.499,0,0.998,0,1.538,0c0.926,1.073,2.2,1.681,3.4,2.396c0.088,0.052,0.17,0.176,0.249,0.172c0.978-0.058,1.471,0.573,1.94,1.289
		c0.373,0.568,1.071,0.786,1.516,1.294c0.097,0.111,0.318,0.079,0.441,0.233c0.157,0.195,0.352,0.36,0.534,0.543
		c0.05,0.261,0.02,0.526,0.294,0.742c1.267,0.995,1.736,2.49,2.298,3.9c0.147,0.369,0.294,0.746,0.471,1.101
		c0.416,0.836,0.637,1.774,1.285,2.494c0.027,0.585,0.021,1.16,0.188,1.751c0.153,0.545,0.215,1.124,0.414,1.668
		c0.058,0.158,0.049,0.346,0.047,0.519c-0.01,0.799,0.133,1.563,0.403,2.316c0.092,0.255,0.142,0.653,0.007,0.834
		c-0.275,0.37-0.217,0.752-0.179,1.115c0.118,1.104-0.247,2.167-0.226,3.259c0.004,0.159-0.119,0.253-0.15,0.369
		c-0.142,0.526-0.307,1.041-0.303,1.611c0.005,0.85-0.319,1.652-0.556,2.462c-0.103,0.354-0.322,0.661-0.31,1.067
		c0.006,0.205-0.142,0.473-0.305,0.614c-0.475,0.412-0.554,1.007-0.741,1.534c-0.376,1.056-0.46,1.259-1.297,2.037
		C55.869,54.021,55.695,54.5,55.649,55.123z M37.702,38.548c0.625,1.264,0.326,2.613,0.708,3.79
		c-0.205,0.205-0.332,0.332-0.425,0.425c-0.181,0.859,0.202,1.732-0.183,2.4c-0.043,0.635,0.587,1.05,0.307,1.544
		c-0.392,0.691-0.057,1.172,0.266,1.787c-0.052,0.391,0.142,0.9-0.224,1.341c0.074,0.145,0.208,0.289,0.215,0.44
		c0.033,0.695-0.058,1.395,0.214,2.072c0.072,0.18,0.081,0.502-0.028,0.616c-0.278,0.288-0.16,0.606-0.168,0.907
		c-0.021,0.755-0.008,1.51-0.007,2.265c0.001,0.104,0.013,0.207,0.012,0.186c0.222,0.274,0.379,0.469,0.458,0.566
		c0.579,0.188,1.004-0.178,1.419-0.127c0.885,0.109,1.724-0.312,2.638-0.062c0.669,0.184,1.43,0.01,2.147,0.044
		c0.74,0.035,1.427-0.393,2.176-0.225c0.034,0.008,0.082,0.016,0.106-0.001c0.948-0.649,2.026-0.384,3.058-0.426
		c0.572-0.023,1.146-0.005,1.665-0.005c0.221-0.203,0.405-0.373,0.577-0.53c0-1.247-0.001-2.47,0-3.691
		c0-0.215-0.071-0.472,0.02-0.637c0.35-0.632,0.188-1.398,0.602-2.025c0.126-0.191,0.04-0.587-0.073-0.91
		c-0.249-0.708-0.22-1.427,0.315-2.049c0-3.441,0-6.893,0-10.353c-0.986-0.987-1.96-1.996-2.979-2.958
		c-0.314-0.297-0.396-0.801-0.763-0.966c-0.447-0.202-0.742-0.539-1.032-0.873c-0.33-0.381-0.828-0.515-1.146-0.901
		c-0.537-0.649-1.23-1.11-1.966-1.5c-0.555,0.208-0.995,0.634-1.321,1.112c-0.196,0.289-0.4,0.557-0.637,0.807
		c-0.335,0.354-0.677,0.689-0.932,1.122c-0.171,0.291-0.382,0.582-0.72,0.779c-0.315,0.184-0.596,0.485-0.699,0.882
		c-0.092,0.355-0.362,0.583-0.608,0.827c-0.256,0.252-0.608,0.465-0.741,0.771c-0.225,0.52-0.666,0.812-1.02,1.192
		c-0.357,0.384-0.522,0.919-0.984,1.187C37.941,38.073,37.941,38.073,37.702,38.548z M20.664,48.853
		c0.032,0.943-0.132,1.902,0.277,2.868c0.232,0.231,0.512,0.511,0.792,0.791c0.047,0.196-0.062,0.424,0.15,0.588
		c0.17,0.133,0.127,0.429,0.063,0.489c-0.36,0.337-0.132,0.742-0.2,1.068c0.198,0.21,0.37,0.393,0.536,0.569
		c0.427-0.022,0.864,0.103,1.171-0.241c0.583,0.302,1.117,0.578,1.713,0.886c0.535,0,1.148-0.033,1.756,0.011
		c0.547,0.039,1.083-0.104,1.656,0.169c0.491,0.233,1.095,0.293,1.662,0.476c0.401-0.423,0.909-0.145,1.329-0.228
		c0.178,0.178,0.305,0.306,0.437,0.437c0.607,0,1.271-0.15,1.815,0.04c0.592,0.207,1.037,0.166,1.525-0.141
		c-0.083-0.299,0.122-0.517,0.221-0.768c0.119-0.303-0.272-0.476-0.216-0.773c0.02-0.104-0.041-0.247,0.01-0.318
		c0.367-0.515,0.208-1.097,0.193-1.643c-0.017-0.581,0.144-1.164-0.167-1.763c-0.172-0.331-0.067-0.849,0.019-1.26
		c0.167-0.792,0.204-0.786-0.044-1.679c-0.085-0.308,0.085-0.528,0.218-0.773c-0.294-0.603-0.71-1.165-0.25-1.901
		c0.146-0.233,0.145-0.712-0.002-0.941c-0.33-0.514,0.008-1.103-0.222-1.529c-0.287-0.531-0.102-1.038-0.185-1.547
		c-0.075-0.461,0.308-0.829,0.232-1.316c-0.076-0.491-0.017-1.004-0.018-1.508c-0.102-0.102-0.203-0.204-0.343-0.343
		c-0.493,0.024-1.046-0.037-1.542,0.104c-0.424,0.12-0.77,0.17-1.182-0.004c-0.352-0.148-0.708-0.104-1.099,0.052
		c-0.329,0.131-0.672,0.344-1.063,0.299c-0.446-0.051-0.809,0.116-1.147,0.427c-0.451,0.05-0.931-0.066-1.405,0.198
		c-0.247,0.138-0.733,0.152-0.937-0.004c-0.378-0.292-0.75-0.173-1.119-0.18c-1.223-0.022-2.445-0.009-3.788-0.009
		c-0.151,0.185-0.354,0.432-0.53,0.646c-0.709,0.034-1.392-0.132-1.986,0.271c-0.095,0.22-0.188,0.434-0.277,0.64
		c0.25,0.497,0.479,0.987,0.438,1.559c-0.026,0.347,0.048,0.661,0.196,0.997c0.316,0.722,0.313,1.531,0.42,2.301
		c0.069,0.497,0.225,0.914,0.464,1.333C20.22,47.789,20.167,48.393,20.664,48.853z M29.199,26.063
		c-0.524,0.507-1.045,0.97-1.594,1.412c-0.751,0.605-1.386,1.355-2.077,2.037c-0.175,0.173-0.285,0.369-0.392,0.593
		c-0.284,0.594-0.519,1.25-1.328,1.377c-0.173,0.027-0.312,0.28-0.462,0.434c-0.366,0.373-0.776,0.71-0.992,1.207
		c-0.924,0.287-1.095,1.328-1.817,1.817c0.063,0.311-0.467,0.453-0.231,0.845c0.356,0,0.736,0.08,1.063-0.017
		c0.747-0.22,1.462-0.313,2.203,0.007c0.151,0.066,0.397,0.078,0.528-0.002c0.561-0.343,1.167-0.155,1.751-0.202
		c0.274-0.022,0.567,0.068,0.783-0.211c0.041-0.052,0.241-0.052,0.309,0c0.441,0.341,0.94,0.156,1.305,0.204
		c0.453-0.233,0.81-0.417,1.249-0.643c1.172,0.165,2.438-0.64,3.708-0.001c0.587-0.351,1.175-0.292,1.762,0
		c0.458-0.129,0.755-0.475,1.073-0.794c0.724-0.725,1.404-1.485,2.076-2.26c0.745-0.859,1.351-1.791,1.813-2.629
		c0.563-0.457,1.236-0.612,1.444-1.167c0.236-0.63,0.708-1.015,1.102-1.468c0.092-0.342-0.07-0.562-0.361-0.783
		c-1.569,0.17-3.193-0.123-4.824,0.211c-0.932,0.19-1.936-0.001-2.905,0.043c-1.157,0.053-2.332-0.213-3.473,0.197
		c-0.189,0.068-0.509,0.095-0.625-0.014C29.932,25.926,29.544,26.125,29.199,26.063z"/>
	<path style="fill-rule:evenodd;clip-rule:evenodd;fill:none;" d="M37.702,38.548c0.239-0.475,0.239-0.475,0.246-1.174
		c0.462-0.268,0.627-0.803,0.984-1.187c0.354-0.38,0.795-0.672,1.02-1.192c0.133-0.307,0.485-0.519,0.741-0.771
		c0.246-0.244,0.517-0.471,0.608-0.827C41.405,33,41.685,32.698,42,32.515c0.338-0.197,0.549-0.488,0.72-0.779
		c0.255-0.433,0.597-0.768,0.932-1.122c0.236-0.25,0.44-0.518,0.637-0.807c0.326-0.479,0.767-0.904,1.321-1.112
		c0.735,0.39,1.429,0.851,1.966,1.5c0.318,0.386,0.816,0.52,1.146,0.901c0.29,0.334,0.585,0.671,1.032,0.873
		c0.366,0.165,0.448,0.668,0.763,0.966c1.019,0.962,1.992,1.971,2.979,2.958c0,3.46,0,6.911,0,10.353
		c-0.535,0.622-0.564,1.341-0.315,2.049c0.113,0.323,0.199,0.719,0.073,0.91c-0.413,0.627-0.252,1.394-0.602,2.025
		c-0.091,0.165-0.02,0.422-0.02,0.637c-0.001,1.222,0,2.444,0,3.691c-0.172,0.157-0.356,0.327-0.577,0.53
		c-0.519,0-1.093-0.019-1.665,0.005c-1.031,0.042-2.109-0.224-3.058,0.426c-0.024,0.017-0.072,0.009-0.106,0.001
		c-0.749-0.168-1.436,0.26-2.176,0.225c-0.718-0.034-1.479,0.14-2.147-0.044c-0.914-0.25-1.753,0.171-2.638,0.062
		c-0.415-0.051-0.84,0.315-1.419,0.127c-0.079-0.098-0.236-0.292-0.458-0.566c0.001,0.021-0.011-0.082-0.012-0.186
		c-0.001-0.755-0.015-1.51,0.007-2.265c0.008-0.301-0.11-0.619,0.168-0.907c0.109-0.114,0.101-0.437,0.028-0.616
		c-0.271-0.678-0.181-1.377-0.214-2.072c-0.007-0.151-0.141-0.296-0.215-0.44c0.365-0.44,0.172-0.95,0.224-1.341
		c-0.322-0.615-0.657-1.096-0.266-1.787c0.28-0.494-0.35-0.909-0.307-1.544c0.385-0.668,0.002-1.541,0.183-2.4
		c0.093-0.093,0.22-0.22,0.425-0.425C38.028,41.161,38.327,39.812,37.702,38.548z"/>
	<path style="fill-rule:evenodd;clip-rule:evenodd;fill:none;" d="M20.664,48.853c-0.498-0.46-0.444-1.063-0.429-1.651
		c-0.239-0.419-0.395-0.836-0.464-1.333c-0.107-0.77-0.104-1.579-0.42-2.301c-0.147-0.336-0.222-0.65-0.196-0.997
		c0.042-0.571-0.188-1.062-0.438-1.559c0.089-0.206,0.182-0.42,0.277-0.64c0.595-0.403,1.277-0.237,1.986-0.271
		c0.176-0.214,0.379-0.461,0.53-0.646c1.343,0,2.565-0.014,3.788,0.009c0.369,0.007,0.741-0.112,1.119,0.18
		c0.203,0.156,0.69,0.142,0.937,0.004c0.474-0.265,0.954-0.148,1.405-0.198c0.339-0.311,0.702-0.478,1.147-0.427
		c0.391,0.045,0.735-0.168,1.063-0.299c0.391-0.156,0.747-0.2,1.099-0.052c0.412,0.174,0.758,0.124,1.182,0.004
		c0.497-0.141,1.05-0.079,1.542-0.104c0.14,0.139,0.241,0.241,0.343,0.343c0,0.504-0.059,1.017,0.017,1.508
		c0.075,0.487-0.308,0.855-0.232,1.316c0.083,0.509-0.102,1.016,0.185,1.547c0.23,0.427-0.107,1.016,0.222,1.529
		c0.147,0.229,0.148,0.708,0.002,0.941c-0.461,0.736-0.044,1.299,0.25,1.901c-0.133,0.245-0.304,0.466-0.218,0.773
		c0.248,0.893,0.211,0.887,0.044,1.679c-0.086,0.411-0.191,0.929-0.019,1.26c0.31,0.599,0.149,1.182,0.167,1.763
		c0.016,0.546,0.174,1.128-0.193,1.643c-0.051,0.071,0.01,0.214-0.01,0.318c-0.056,0.298,0.335,0.471,0.216,0.773
		c-0.099,0.251-0.303,0.469-0.221,0.768c-0.488,0.307-0.933,0.348-1.525,0.141c-0.544-0.19-1.208-0.04-1.815-0.04
		c-0.131-0.131-0.258-0.259-0.437-0.437c-0.419,0.083-0.928-0.195-1.329,0.228c-0.567-0.183-1.171-0.242-1.662-0.476
		c-0.574-0.272-1.109-0.13-1.656-0.169c-0.608-0.044-1.221-0.011-1.756-0.011c-0.596-0.308-1.13-0.584-1.713-0.886
		c-0.308,0.344-0.745,0.219-1.171,0.241c-0.166-0.177-0.338-0.359-0.536-0.569c0.068-0.326-0.16-0.731,0.2-1.068
		c0.065-0.061,0.107-0.356-0.063-0.489c-0.211-0.164-0.103-0.392-0.15-0.588c-0.28-0.28-0.56-0.56-0.792-0.791
		C20.531,50.755,20.695,49.796,20.664,48.853z"/>
	<path style="fill-rule:evenodd;clip-rule:evenodd;fill:none;" d="M29.199,26.063c0.346,0.062,0.733-0.138,1.086,0.192
		c0.116,0.108,0.436,0.082,0.625,0.014c1.141-0.41,2.316-0.144,3.473-0.197c0.969-0.044,1.973,0.146,2.905-0.043
		c1.631-0.333,3.255-0.041,4.824-0.211c0.291,0.221,0.453,0.44,0.361,0.783c-0.394,0.453-0.865,0.837-1.102,1.468
		c-0.208,0.556-0.881,0.71-1.444,1.167c-0.462,0.838-1.067,1.77-1.813,2.629c-0.672,0.775-1.352,1.536-2.076,2.26
		c-0.318,0.319-0.615,0.665-1.073,0.794c-0.587-0.292-1.175-0.351-1.762,0c-1.271-0.638-2.537,0.167-3.708,0.001
		c-0.439,0.226-0.796,0.41-1.249,0.643c-0.365-0.048-0.864,0.137-1.305-0.204c-0.068-0.052-0.268-0.052-0.309,0
		c-0.216,0.279-0.508,0.188-0.783,0.211c-0.584,0.047-1.19-0.141-1.751,0.202c-0.131,0.08-0.376,0.068-0.528,0.002
		c-0.74-0.32-1.456-0.227-2.203-0.007c-0.327,0.097-0.706,0.017-1.063,0.017c-0.236-0.392,0.295-0.535,0.231-0.845
		c0.722-0.489,0.893-1.53,1.817-1.817c0.215-0.497,0.626-0.833,0.992-1.207c0.15-0.153,0.29-0.407,0.462-0.434
		c0.809-0.126,1.044-0.783,1.328-1.377c0.107-0.224,0.217-0.42,0.392-0.593c0.691-0.682,1.326-1.431,2.077-2.037
		C28.154,27.033,28.674,26.57,29.199,26.063z"/>
</g>
</svg>
