<svg xmlns="http://www.w3.org/2000/svg" xml:space="preserve" width="72px" height="72px" viewBox="0 0 72 72">
    <path fill="currentColor" d="M55.649 55.123c-.323.327-.685.614-.852 1.302v1.274l-1.005.996c-.491-.115-1.046.178-1.523-.222-.08-.066-.318-.051-.407.021-.378.305-.941.202-1.274.617-.709 0-1.428.013-2.145-.003-.803-.018-1.547.197-2.269.521-.508.229-1.001.224-1.535-.104-.185-.058-.251.252-.5.245-1.665-.047-3.316.382-4.983.194-.967-.109-1.874.242-2.827.251-.542.006-.984-.301-1.532-.266-.5.033-1.013.118-1.547-.154-.372-.189-.917-.036-1.443-.036l-.555-.698c-.742.201-1.438-.214-2.061.254-.092.069-.293.049-.422.006-1.249-.418-2.535-.118-3.799-.211-.588-.043-1.157-.147-1.615-.655-.92.169-1.81-.467-2.663-.179-.857-.516-1.566-1.021-1.305-2.053-.647-.793-1.088-1.673-1.974-2.255-.766-.502-1.364-1.272-1.998-1.959-.278-.302-.43-.7-.352-1.207-.755-.587-1.076-1.427-1.107-2.396l-.84-.84c.003-.242-.096-.506.058-.721.235-.331.219-.619.003-.963-.172-.276-.103-.63-.039-.93.031-.142.206-.26.187-.461-.02-.21-.004-.424-.004-.609l-.648-.648c0-.275.019-.563-.004-.849-.079-.99.062-1.925.673-2.689-.266-.805-.266-.805-.883-1.433.013-.574-.255-1.056-.703-1.319-.969-.569-1.583-1.411-2.112-2.358-.425-.76-.732-1.557-.624-2.431.042-.338-.147-.554-.257-.765-.537-1.029-.658-1.274-.622-2.118.032-.736.19-1.418 1.069-1.703.258.129.56.332.96.191.533.646 1.166 1.072 2.104.842-.246-.957-1.092-1.521-1.5-2.573-.638-.555-.982-1.47-.897-2.524.049-.61-.297-1.138-.243-1.748.041-.451.013-.899.32-1.296h.91c.219.551 1.068.538 1.227 1.239.308.021.508.33.867.268.746-.129 1.413.193 2.047.514.257.129.437.172.701.028-.558-.582-1.283-.949-1.836-1.475-.534-.508-.793-1.307-1.196-2.019v-1.675c0-1.161.404-1.872 1.425-2.51.766.124 1.297.605 1.79 1.157.4.448.839.849 1.508.784.23-.022.448.161.536.243.582.542 1.266.665 1.993.672.466.014.614.554 1.021.621.231-.145.113-.344.175-.544-.702-.616-1.213-1.397-1.752-2.182 0-.559-.002-1.134 0-1.708.002-.347-.399-.661-.201-.98.289-.465.096-.97.231-1.382.079-.242.341-.396.502-.57.091.004.178-.018.23.015a12.4 12.4 0 0 1 2.738 2.32c.576.1 1.166.152 1.694.555.455.347 1.046.514 1.384 1.008.197-.047.392.074.534-.099.093-.37-.297-.442-.413-.677v-2.588c.313-.121.083-.605.457-.712h.976a3.2 3.2 0 0 0 1.896 1.066c.745.637 1.576 1.125 2.496 1.52.558.24 1.145.572 1.421 1.253.215.532.494 1.111 1.242 1.092.562.609 1.382.659 2.077.979.216.1.48.168.594.083.605-.447 1.1-.033 1.606.169.184.073.345.034.514.063.329.057.6-.479.948-.122.238.245.568.135.856.3.421.243.979.355 1.507.251.674-.132 1.194.253 1.723.533.257.136.484.374.761.532h1.538c.926 1.073 2.2 1.681 3.4 2.396.088.052.17.176.249.172.978-.058 1.471.573 1.94 1.289.373.568 1.071.786 1.516 1.294.097.111.318.079.441.233.157.195.352.36.534.543.05.261.02.526.294.742 1.267.995 1.736 2.49 2.298 3.9.147.369.294.746.471 1.101.416.836.637 1.774 1.285 2.494.027.585.021 1.16.188 1.751.153.545.215 1.124.414 1.668.058.158.049.346.047.519-.01.799.133 1.563.403 2.316.092.255.142.653.007.834-.275.37-.217.752-.179 1.115.118 1.104-.247 2.167-.226 3.259.004.159-.119.253-.15.369-.142.526-.307 1.041-.303 1.611.005.85-.319 1.652-.556 2.462-.103.354-.322.661-.31 1.067.006.205-.142.473-.305.614-.475.412-.554 1.007-.741 1.534-.376 1.056-.46 1.259-1.297 2.037-.232.218-.406.697-.452 1.32M37.702 38.548c.625 1.264.326 2.613.708 3.79l-.425.425c-.181.859.202 1.732-.183 2.4-.043.635.587 1.05.307 1.544-.392.691-.057 1.172.266 1.787-.052.391.142.9-.224 1.341.074.145.208.289.215.44.033.695-.058 1.395.214 2.072.072.18.081.502-.028.616-.278.288-.16.606-.168.907-.021.755-.008 1.51-.007 2.265.001.104.013.207.012.186l.458.566c.579.188 1.004-.178 1.419-.127.885.109 1.724-.312 2.638-.062.669.184 1.43.01 2.147.044.74.035 1.427-.393 2.176-.225.034.008.082.016.106-.001.948-.649 2.026-.384 3.058-.426.572-.023 1.146-.005 1.665-.005l.577-.53v-3.691c0-.215-.071-.472.02-.637.35-.632.188-1.398.602-2.025.126-.191.04-.587-.073-.91-.249-.708-.22-1.427.315-2.049V35.89c-.986-.987-1.96-1.996-2.979-2.958-.314-.297-.396-.801-.763-.966-.447-.202-.742-.539-1.032-.873-.33-.381-.828-.515-1.146-.901-.537-.649-1.23-1.11-1.966-1.5-.555.208-.995.634-1.321 1.112-.196.289-.4.557-.637.807-.335.354-.677.689-.932 1.122-.171.291-.382.582-.72.779-.315.184-.596.485-.699.882-.092.355-.362.583-.608.827-.256.252-.608.465-.741.771-.225.52-.666.812-1.02 1.192-.357.384-.522.919-.984 1.187-.008.702-.008.702-.247 1.177M20.664 48.853c.032.943-.132 1.902.277 2.868l.792.791c.047.196-.062.424.15.588.17.133.127.429.063.489-.36.337-.132.742-.2 1.068l.536.569c.427-.022.864.103 1.171-.241l1.713.886c.535 0 1.148-.033 1.756.011.547.039 1.083-.104 1.656.169.491.233 1.095.293 1.662.476.401-.423.909-.145 1.329-.228l.437.437c.607 0 1.271-.15 1.815.04.592.207 1.037.166 1.525-.141-.083-.299.122-.517.221-.768.119-.303-.272-.476-.216-.773.02-.104-.041-.247.01-.318.367-.515.208-1.097.193-1.643-.017-.581.144-1.164-.167-1.763-.172-.331-.067-.849.019-1.26.167-.792.204-.786-.044-1.679-.085-.308.085-.528.218-.773-.294-.603-.71-1.165-.25-1.901.146-.233.145-.712-.002-.941-.33-.514.008-1.103-.222-1.529-.287-.531-.102-1.038-.185-1.547-.075-.461.308-.829.232-1.316-.076-.491-.017-1.004-.018-1.508l-.343-.343c-.493.024-1.046-.037-1.542.104-.424.12-.77.17-1.182-.004-.352-.148-.708-.104-1.099.052-.329.131-.672.344-1.063.299-.446-.051-.809.116-1.147.427-.451.05-.931-.066-1.405.198-.247.138-.733.152-.937-.004-.378-.292-.75-.173-1.119-.18-1.223-.022-2.445-.009-3.788-.009l-.53.646c-.709.034-1.392-.132-1.986.271l-.277.64c.25.497.479.987.438 1.559-.026.347.048.661.196.997.316.722.313 1.531.42 2.301.069.497.225.914.464 1.333-.015.586-.068 1.19.429 1.65m8.535-22.79c-.524.507-1.045.97-1.594 1.412-.751.605-1.386 1.355-2.077 2.037-.175.173-.285.369-.392.593-.284.594-.519 1.25-1.328 1.377-.173.027-.312.28-.462.434-.366.373-.776.71-.992 1.207-.924.287-1.095 1.328-1.817 1.817.063.311-.467.453-.231.845.356 0 .736.08 1.063-.017.747-.22 1.462-.313 2.203.007.151.066.397.078.528-.002.561-.343 1.167-.155 1.751-.202.274-.022.567.068.783-.211.041-.052.241-.052.309 0 .441.341.94.156 1.305.204l1.249-.643c1.172.165 2.438-.64 3.708-.001.587-.351 1.175-.292 1.762 0 .458-.129.755-.475 1.073-.794a44 44 0 0 0 2.076-2.26 15.4 15.4 0 0 0 1.813-2.629c.563-.457 1.236-.612 1.444-1.167.236-.63.708-1.015 1.102-1.468.092-.342-.07-.562-.361-.783-1.569.17-3.193-.123-4.824.211-.932.19-1.936-.001-2.905.043-1.157.053-2.332-.213-3.473.197-.189.068-.509.095-.625-.014-.355-.33-.743-.131-1.088-.193"/>
</svg>
