<svg xmlns="http://www.w3.org/2000/svg" xml:space="preserve" width="72px" height="72px" viewBox="0 0 72 72">
    <path fill="currentColor" d="M23.267 44.762v.648c.179.12.248.401.558.279l.533 1.405-.238.255c0 .26.52 1.085 1.08 1.718v1.418c-.411.933-.991 1.65-1.53 2.287-1.458.369-2.682-.212-3.773-.865-1.037-.62-1.708-1.691-2.08-2.923h-2.674c-.487-.208-.778-.62-1.116-.937-.252-.885-.54-1.751-.021-2.604-.104-.364-.204-.694-.482-.919-.692-.557-1.118-1.317-1.606-2.034-.36-.529-.511-1.104-.091-1.597.371-.438.563-.92.728-1.435.101-.314.299-.543.544-.74v-1.521c-.944-1.033-1.797-2.138-2.371-3.622 0-.541.011-1.259-.004-1.976a1.45 1.45 0 0 1 .44-1.116c.225-.225.445-.457.641-.707.534-.681.84-1.431.59-2.374-.327-.353-.814-.672-1.018-1.229v-1.024c.206-.372.392-.695.672-.97.235-.23.346-.551.421-.901.253-1.186.653-2.301 1.864-2.883.123-.059.212-.192.307-.3a3.96 3.96 0 0 1 1.779-1.187c.795-.266 1.316-.873 1.221-1.773.519-.673 1.15-1.098 1.942-1.359a4.5 4.5 0 0 0 1.948-1.282c.501-.559 1.082-.872 1.77-.742.922-.605 1.844-.514 2.771-.312.968.211 1.87.207 2.571-.646.159-.194.354-.359.535-.54.373.082.686-.137.938-.318.658-.473 1.381-.56 2.148-.568.26-.003.374.273.668.238.548-.065 1.091-.01 1.644-.213.987-.363 1.659-.226 3.058-.046 1.18.152 2.37.389 3.578.247.175-.021.354-.003.483-.003.492.323.937.621 1.456.793.186.061.385.107.53.292.488.623 1.268.758 1.939 1.045.263.112.648.056 1.015-.098 1.103-.463 1.132-.443 2.281.136.627.316 1.38.4 1.861 1.019.078.1.33.249.523.261 1.176.074 2.005.9 3.003 1.359.281.493.706.922.705 1.574.544.487.965 1.196 1.861 1.199.725.854 1.7 1.35 2.696 1.823.436.523.496 1.189.596 1.804.08.5.219.902.525 1.306.319.421.548.919.766 1.406.079.178.013.421.013.688-.532.349-.694 1.078-1.256 1.443-.176.959.416 1.636.812 2.371.15.28.29.295.81.388.322.358.749.637.895 1.148.093.574.1 1.14-.278 1.667-.214.299-.194.718-.271 1.064-.092.415-.322.682-.59.828-.704.384-1.173.957-1.614 1.669.02.813-.106 1.696.222 2.536.309.789.976 1.373 1.311 2.102-.436 1.389-1.251 2.469-2.138 3.505-.146.537.003 1.014.297 1.462.296.449.458.908-.027 1.435l-1.969 1.146c-1.013-.082-2.033.148-2.995.706-.017.41-.729.563-.517 1.108-1.856 2.212-3.266 2.05-4.885 1.628-.357-.662-.621-.926-1.334-1.313-.149-.395-.315-.829-.485-1.276.258-.645.659-1.227 1.056-1.823.023-.858.422-2.078.86-2.58v-.896c-.198-.293-.559-.302-.76-.511-.983.303-2.033.25-3.122.803-.36.612-1.547.762-1.713 1.847-.69.598-1.088 1.397-1.513 2.293-.095.902.031 1.908-.172 2.938-.277 1.402.311 2.771.65 4.132.023.093.163.169.163.253.001 1.564 1.133 2.39 2.158 3.261.541.46 1.186.796 1.755 1.225.764.577 1.147 1.463 1.701 2.21.203.273.33.615.164 1.04-.306.143-.318.602-.66.895h-.94l-.271-.271v-.884l-.679-.563c-.195-.074-.636.215-.937-.169-.193.251-.629.139-.762.745v1.513l-.605.509h-1.697l-.313-.312c.1-.698-.158-1.477.211-2.26-.153-.236-.168-.615-.563-.848l-.199.418c-.153.136.111.209.123.369.025.354.008.712.008 1.021-.252.381-.775.317-.898.752h-1.173l-.286-.286v-.778c-.47-.838-.902-1.55-1.642-2.112-.98-.384-1.986-.439-2.921.483.151.53-.319.994-.23 1.547l-.472.473c-.484.196-.854-.097-1.294-.314l-.709-1.377c-.57.354-.57.354-.987 1.187.377.526.208 1.16.252 1.761-.548.548-1.198.176-1.824.339l-.567-.706v-1.577l-.567-.568c-.361-.156-.601.326-.97.222-.63.281-.755 1.145-1.497 1.297-.208-.024-.299-.313-.491-.258-.659-.624-.286-1.277-.031-1.886.378-.901.92-1.662 1.941-1.983.338-.107.653-.364.919-.659a6.2 6.2 0 0 1 1.105-.95c.594-.408.879-1.131 1.316-1.706-.028-1.055.377-2.079.226-3.145.459-1.347.467-2.741.422-4.165-.187-.471-.566-.875-.653-1.433-.039-.249-.201-.501-.366-.705-.216-.269-.432-.527-.623-.82-.205-.315-.422-.634-.793-.862-.701-.432-1.314-1.004-1.976-1.502-.447-.338-1.326-.564-1.971-.432-.517.107-1.078.23-1.369.755m25.25-8.286a4.13 4.13 0 0 0-2.934 1.047c-.783.687-1.174 1.756-2.188 2.212a.45.45 0 0 0-.225.226c-.24.729-.714 1.347-.937 2.096-.133.447-.212.841-.153 1.279 1.074.01 1.063-.008 1.976-.584.43-.271.842-.593 1.278-.821 1.126-.59 2.258-1.235 3.606-1.18.448.019.775-.228 1.07-.505v-.938c-.9-.757-.898-1.972-1.493-2.832m-24.613-.152c0 .493.005.995-.001 1.496-.008.551-.485.871-.707 1.318-.126.252-.034.565-.269.752-.076.061-.101.104-.056.154.211.078.127.309.237.456.719.226 1.437.525 2.185.656.434.076.824.357 1.308.254.503-.108.922.114 1.324.433.84.666 1.818 1.087 2.773 1.528.35-.518-.083-.899-.111-1.33a2.1 2.1 0 0 0-.748-1.519c-.534-.457-1.047-.968-1.352-1.592-.279-.574-.733-.969-1.187-1.316a15 15 0 0 1-.952-.793c-.604-.554-1.273-.929-2.132-.811zm17.314.062c.347.34.671.34 1.071.143.452-.223.817-.52 1.048-.957.152-.289.343-.544.641-.643.558-.185.917-.604 1.317-.986.606-.579.889-1.211.369-1.995-.396-.214-.781-.402-1.056-.815-.404-.608-1.242-.728-1.818-.287-.38.292-.71.649-.75 1.194-.045.612-.288 1.167-.66 1.784.264.788-.372 1.605-.162 2.562M26.93 33.322c.113.107.284.208.367.356.705 1.268 1.899 1.955 3.09 2.653.268.157.531.094.792.065l.289-.65c-.131-.208-.237-.406-.227-.669.023-.574.002-1.149.009-1.724.006-.533-.218-.967-.48-1.421-.308-.531-.754-.91-1.128-1.325h-.879c-.598.565-1.105 1.21-1.832 1.574zm5.274-5.957c-.171.242-.078.516-.07.769.22.292.471.418.825.225v-.677c-.185-.304-.438-.37-.755-.317m7.675.572c.668.056.668.056.543-.607-.286.071-.514.182-.543.607"/>
</svg>
