<?xml version="1.0" encoding="iso-8859-1"?>
<!-- Generator: Adobe Illustrator 16.0.0, SVG Export Plug-In . SVG Version: 6.00 Build 0)  -->
<!DOCTYPE svg PUBLIC "-//W3C//DTD SVG 1.1//EN" "http://www.w3.org/Graphics/SVG/1.1/DTD/svg11.dtd">
<svg version="1.1" id="Layer_1" xmlns="http://www.w3.org/2000/svg" xmlns:xlink="http://www.w3.org/1999/xlink" x="0px" y="0px"
	 width="72.36px" height="72.18px" viewBox="0 0 72.36 72.18" style="enable-background:new 0 0 72.36 72.18;" xml:space="preserve"
	>
<g>
	
	<path fill="currentColor" d="M23.267,44.762c0,0.23,0,0.443,0,0.648c0.179,0.12,0.248,0.401,0.558,0.279
		c0.185,0.487,0.362,0.954,0.533,1.405c-0.096,0.103-0.168,0.181-0.238,0.255c0,0.26,0.52,1.085,1.08,1.718c0,0.505,0,1.009,0,1.418
		c-0.411,0.933-0.991,1.65-1.53,2.287c-1.458,0.369-2.682-0.212-3.773-0.865c-1.037-0.62-1.708-1.691-2.08-2.923
		c-0.894,0-1.784,0-2.674,0c-0.487-0.208-0.778-0.62-1.116-0.937c-0.252-0.885-0.54-1.751-0.021-2.604
		c-0.104-0.364-0.204-0.694-0.482-0.919c-0.692-0.557-1.118-1.317-1.606-2.034c-0.36-0.529-0.511-1.104-0.091-1.597
		c0.371-0.438,0.563-0.92,0.728-1.435c0.101-0.314,0.299-0.543,0.544-0.74c0-0.511,0-1.014,0-1.521
		c-0.944-1.033-1.797-2.138-2.371-3.622c0-0.541,0.011-1.259-0.004-1.976c-0.009-0.441,0.129-0.805,0.44-1.116
		c0.225-0.225,0.445-0.457,0.641-0.707c0.534-0.681,0.84-1.431,0.59-2.374c-0.327-0.353-0.814-0.672-1.018-1.229
		c0-0.359,0-0.719,0-1.024c0.206-0.372,0.392-0.695,0.672-0.97c0.235-0.23,0.346-0.551,0.421-0.901
		c0.253-1.186,0.653-2.301,1.864-2.883c0.123-0.059,0.212-0.192,0.307-0.3c0.487-0.556,1.052-0.942,1.779-1.187
		c0.795-0.266,1.316-0.873,1.221-1.773c0.519-0.673,1.15-1.098,1.942-1.359c0.742-0.245,1.416-0.687,1.948-1.282
		c0.501-0.559,1.082-0.872,1.77-0.742c0.922-0.605,1.844-0.514,2.771-0.312c0.968,0.211,1.87,0.207,2.571-0.646
		c0.159-0.194,0.354-0.359,0.535-0.54c0.373,0.082,0.686-0.137,0.938-0.318c0.658-0.473,1.381-0.56,2.148-0.568
		c0.26-0.003,0.374,0.273,0.668,0.238c0.548-0.065,1.091-0.01,1.644-0.213c0.987-0.363,1.659-0.226,3.058-0.046
		c1.18,0.152,2.37,0.389,3.578,0.247c0.175-0.021,0.354-0.003,0.483-0.003c0.492,0.323,0.937,0.621,1.456,0.793
		c0.186,0.061,0.385,0.107,0.53,0.292c0.488,0.623,1.268,0.758,1.939,1.045c0.263,0.112,0.648,0.056,1.015-0.098
		c1.103-0.463,1.132-0.443,2.281,0.136c0.627,0.316,1.38,0.4,1.861,1.019c0.078,0.1,0.33,0.249,0.523,0.261
		c1.176,0.074,2.005,0.9,3.003,1.359c0.281,0.493,0.706,0.922,0.705,1.574c0.544,0.487,0.965,1.196,1.861,1.199
		c0.725,0.854,1.7,1.35,2.696,1.823c0.436,0.523,0.496,1.189,0.596,1.804c0.08,0.5,0.219,0.902,0.525,1.306
		c0.319,0.421,0.548,0.919,0.766,1.406c0.079,0.178,0.013,0.421,0.013,0.688c-0.532,0.349-0.694,1.078-1.256,1.443
		c-0.176,0.959,0.416,1.636,0.812,2.371c0.15,0.28,0.29,0.295,0.81,0.388c0.322,0.358,0.749,0.637,0.895,1.148
		c0.093,0.574,0.1,1.14-0.278,1.667c-0.214,0.299-0.194,0.718-0.271,1.064c-0.092,0.415-0.322,0.682-0.59,0.828
		c-0.704,0.384-1.173,0.957-1.614,1.669c0.02,0.813-0.106,1.696,0.222,2.536c0.309,0.789,0.976,1.373,1.311,2.102
		c-0.436,1.389-1.251,2.469-2.138,3.505c-0.146,0.537,0.003,1.014,0.297,1.462c0.296,0.449,0.458,0.908-0.027,1.435
		c-0.567,0.331-1.233,0.718-1.969,1.146c-1.013-0.082-2.033,0.148-2.995,0.706c-0.017,0.41-0.729,0.563-0.517,1.108
		c-1.856,2.212-3.266,2.05-4.885,1.628c-0.357-0.662-0.621-0.926-1.334-1.313c-0.149-0.395-0.315-0.829-0.485-1.276
		c0.258-0.645,0.659-1.227,1.056-1.823c0.023-0.858,0.422-2.078,0.86-2.58c0-0.289,0-0.603,0-0.896
		c-0.198-0.293-0.559-0.302-0.76-0.511c-0.983,0.303-2.033,0.25-3.122,0.803c-0.36,0.612-1.547,0.762-1.713,1.847
		c-0.69,0.598-1.088,1.397-1.513,2.293c-0.095,0.902,0.031,1.908-0.172,2.938c-0.277,1.402,0.311,2.771,0.65,4.132
		c0.023,0.093,0.163,0.169,0.163,0.253c0.001,1.564,1.133,2.39,2.158,3.261c0.541,0.46,1.186,0.796,1.755,1.225
		c0.764,0.577,1.147,1.463,1.701,2.21c0.203,0.273,0.33,0.615,0.164,1.04c-0.306,0.143-0.318,0.602-0.66,0.895
		c-0.291,0-0.63,0-0.94,0c-0.105-0.105-0.182-0.182-0.271-0.271c0-0.272,0-0.557,0-0.884c-0.176-0.146-0.368-0.305-0.679-0.563
		c-0.195-0.074-0.636,0.215-0.937-0.169c-0.193,0.251-0.629,0.139-0.762,0.745c0,0.327,0,0.9,0,1.513
		c-0.176,0.147-0.367,0.309-0.605,0.509c-0.519,0-1.12,0-1.697,0c-0.101-0.1-0.177-0.177-0.313-0.312
		c0.1-0.698-0.158-1.477,0.211-2.26c-0.153-0.236-0.168-0.615-0.563-0.848c-0.055,0.115-0.127,0.267-0.199,0.418
		c-0.153,0.136,0.111,0.209,0.123,0.369c0.025,0.354,0.008,0.712,0.008,1.021c-0.252,0.381-0.775,0.317-0.898,0.752
		c-0.421,0-0.807,0-1.173,0c-0.096-0.096-0.172-0.172-0.286-0.286c0-0.274,0-0.588,0-0.778c-0.47-0.838-0.902-1.55-1.642-2.112
		c-0.98-0.384-1.986-0.439-2.921,0.483c0.151,0.53-0.319,0.994-0.23,1.547c-0.167,0.167-0.319,0.32-0.472,0.473
		c-0.484,0.196-0.854-0.097-1.294-0.314c-0.223-0.433-0.466-0.904-0.709-1.377c-0.57,0.354-0.57,0.354-0.987,1.187
		c0.377,0.526,0.208,1.16,0.252,1.761c-0.548,0.548-1.198,0.176-1.824,0.339c-0.166-0.206-0.341-0.425-0.567-0.706
		c0-0.468,0-1.042,0-1.577c-0.2-0.2-0.377-0.378-0.567-0.568c-0.361-0.156-0.601,0.326-0.97,0.222
		c-0.63,0.281-0.755,1.145-1.497,1.297c-0.208-0.024-0.299-0.313-0.491-0.258c-0.659-0.624-0.286-1.277-0.031-1.886
		c0.378-0.901,0.92-1.662,1.941-1.983c0.338-0.107,0.653-0.364,0.919-0.659c0.323-0.359,0.694-0.667,1.105-0.95
		c0.594-0.408,0.879-1.131,1.316-1.706c-0.028-1.055,0.377-2.079,0.226-3.145c0.459-1.347,0.467-2.741,0.422-4.165
		c-0.187-0.471-0.566-0.875-0.653-1.433c-0.039-0.249-0.201-0.501-0.366-0.705c-0.216-0.269-0.432-0.527-0.623-0.82
		c-0.205-0.315-0.422-0.634-0.793-0.862c-0.701-0.432-1.314-1.004-1.976-1.502c-0.447-0.338-1.326-0.564-1.971-0.432
		C24.119,44.114,23.558,44.237,23.267,44.762z M48.517,36.476c-1.143-0.053-2.161,0.368-2.934,1.047
		c-0.783,0.687-1.174,1.756-2.188,2.212c-0.092,0.041-0.194,0.135-0.225,0.226c-0.24,0.729-0.714,1.347-0.937,2.096
		c-0.133,0.447-0.212,0.841-0.153,1.279c1.074,0.01,1.063-0.008,1.976-0.584c0.43-0.271,0.842-0.593,1.278-0.821
		c1.126-0.59,2.258-1.235,3.606-1.18c0.448,0.019,0.775-0.228,1.07-0.505c0-0.328,0-0.641,0-0.938
		C49.11,38.551,49.112,37.336,48.517,36.476z M23.904,36.324c0,0.493,0.005,0.995-0.001,1.496c-0.008,0.551-0.485,0.871-0.707,1.318
		c-0.126,0.252-0.034,0.565-0.269,0.752c-0.076,0.061-0.101,0.104-0.056,0.154c0.211,0.078,0.127,0.309,0.237,0.456
		c0.719,0.226,1.437,0.525,2.185,0.656c0.434,0.076,0.824,0.357,1.308,0.254c0.503-0.108,0.922,0.114,1.324,0.433
		c0.84,0.666,1.818,1.087,2.773,1.528c0.35-0.518-0.083-0.899-0.111-1.33c-0.038-0.59-0.273-1.113-0.748-1.519
		c-0.534-0.457-1.047-0.968-1.352-1.592c-0.279-0.574-0.733-0.969-1.187-1.316c-0.328-0.253-0.648-0.514-0.952-0.793
		c-0.604-0.554-1.273-0.929-2.132-0.811C24.115,36.112,24.014,36.214,23.904,36.324z M41.218,36.386
		c0.347,0.34,0.671,0.34,1.071,0.143c0.452-0.223,0.817-0.52,1.048-0.957c0.152-0.289,0.343-0.544,0.641-0.643
		c0.558-0.185,0.917-0.604,1.317-0.986c0.606-0.579,0.889-1.211,0.369-1.995c-0.396-0.214-0.781-0.402-1.056-0.815
		c-0.404-0.608-1.242-0.728-1.818-0.287c-0.38,0.292-0.71,0.649-0.75,1.194c-0.045,0.612-0.288,1.167-0.66,1.784
		C41.644,34.612,41.008,35.429,41.218,36.386z M26.93,33.322c0.113,0.107,0.284,0.208,0.367,0.356
		c0.705,1.268,1.899,1.955,3.09,2.653c0.268,0.157,0.531,0.094,0.792,0.065c0.101-0.228,0.195-0.44,0.289-0.65
		c-0.131-0.208-0.237-0.406-0.227-0.669c0.023-0.574,0.002-1.149,0.009-1.724c0.006-0.533-0.218-0.967-0.48-1.421
		c-0.308-0.531-0.754-0.91-1.128-1.325c-0.323,0-0.608,0-0.879,0c-0.598,0.565-1.105,1.21-1.832,1.574
		C26.93,32.574,26.93,32.933,26.93,33.322z M32.204,27.365c-0.171,0.242-0.078,0.516-0.07,0.769c0.22,0.292,0.471,0.418,0.825,0.225
		c0-0.231,0-0.469,0-0.677C32.774,27.378,32.521,27.312,32.204,27.365z M39.879,27.937c0.668,0.056,0.668,0.056,0.543-0.607
		C40.136,27.401,39.908,27.512,39.879,27.937z"/>
	
	
	
	
	
	
</g>
</svg>
