<?xml version="1.0" encoding="iso-8859-1"?>
<!-- Generator: Adobe Illustrator 16.0.0, SVG Export Plug-In . SVG Version: 6.00 Build 0)  -->
<!DOCTYPE svg PUBLIC "-//W3C//DTD SVG 1.1//EN" "http://www.w3.org/Graphics/SVG/1.1/DTD/svg11.dtd">
<svg version="1.1" id="Layer_1" xmlns="http://www.w3.org/2000/svg" xmlns:xlink="http://www.w3.org/1999/xlink" x="0px" y="0px"
	 width="72.36px" height="72.18px" viewBox="0 0 72.36 72.18" style="enable-background:new 0 0 72.36 72.18;" xml:space="preserve"
	>
<g>
	
	<path fill="currentColor" d="M32.915,64.059c-0.428-0.045-0.722,0.217-1.052,0.378
		c-0.604,0.296-1.164,0.422-1.857,0.108c-0.502-0.229-1.082-0.328-1.623-0.591c-0.163-0.317-0.33-0.646-0.498-0.973
		c-0.373-0.38-0.839-0.428-1.341-0.421c-0.444,0.005-0.874-0.021-1.328-0.166c-0.378-0.119-0.583-0.354-0.88-0.56
		c0-1.072-0.013-2.149,0.005-3.225c0.011-0.63-0.187-1.225-0.309-1.823c-0.126-0.625-0.495-1.182-0.965-1.647
		c-0.871-0.86-1.732-1.729-2.597-2.595c-0.016-0.555-0.241-1.062-0.699-1.313c-0.517-0.282-0.843-0.733-1.264-1.072
		c0-0.381,0-0.739,0-1.096c0.104-0.104,0.206-0.206,0.314-0.314c0.352,0,0.71,0,1.076,0c0.87,0.845,1.965,1.438,2.787,2.343
		c0.364,0.122,0.802-0.152,1.102,0.233c0.137-0.094,0.23-0.281,0.445-0.21c0.257-0.386,0.332-0.806,0.328-1.271
		c-0.017-2.627-0.022-5.255,0.002-7.882c0.005-0.604-0.178-1.075-0.603-1.483c-0.651-0.627-1.283-1.249-2.097-1.707
		c-0.705-0.396-0.94-1.314-1.738-1.751c-0.676-0.37-1.006-1.19-1.392-1.81c-0.058-0.296,0.345-0.351,0.208-0.62
		c0.174-0.274,0.628,0.127,0.699-0.328c0.46,0.291,0.957,0.502,1.396,0.605c0.573,0.134,0.908,0.467,1.119,0.864
		c0.434,0.817,1.249,0.979,1.763,1.334c0.412,0.034,0.461-0.191,0.621-0.288c0-3.588,0-7.184,0-10.842
		c-0.788-0.675-1.442-1.558-2.365-2.19c-0.457-0.313-0.799-0.868-1.055-1.381c-0.276-0.553-0.693-0.952-1.078-1.356
		c-0.149-0.367,0.15-0.601,0.274-0.929c1-0.448,1.177-0.417,2.005,0.401c0.409,0.405,0.814,0.814,1.242,1.242
		c0.293,0,0.606,0,0.915,0c0.03-0.077,0.069-0.137,0.076-0.201c0.076-0.733-0.166-1.489,0.163-2.2
		c0.032-0.068-0.002-0.084-0.029-0.158c-0.189-0.535-0.25-1.067,0.04-1.604c0.076-0.14,0.041-0.345,0.042-0.521
		c0.004-0.54,0.044-1.083-0.007-1.619c-0.132-1.388,0.304-2.739,0.231-4.123c-0.028-0.542,0.391-0.862,0.742-1.212
		c0.278,0,0.563,0,0.885,0c0.22,0.244,0.46,0.509,0.738,0.817c0,0.931,0,1.938,0,2.926c0.146,0.344,0.549,0.308,0.746,0.557
		c0.403,0.06,0.851-0.112,1.136,0.19c0.231-0.232,0.453-0.456,0.585-0.59c0.696,0,1.195,0,1.744,0
		c0.144,0.126,0.325,0.286,0.498,0.438c0.512-0.351,0.99-0.315,1.488,0.074c0.03,0.302,0.364,0.481,0.594,0.759
		c0.392-0.255,0.41-0.81,1.065-1.096c0.528-0.152,1.097,0.217,1.682,0.755c0.264-0.358,0.64-0.522,0.985-0.733
		c0.602,0.057,0.91,0.58,1.278,0.88c0.557-0.099,0.47-0.656,0.823-0.858c0.298,0,0.611,0,0.898,0
		c0.342,0.318,0.545,0.667,0.52,1.113c-0.049,0.84,0.004,1.655,0.43,2.415c0.346,0.616,0.185,1.302,0.224,1.894
		c0.211,0.408,0.396,0.766,0.64,1.235c-0.072,0.755,0.162,1.549,0.644,2.295c0.341,0.526,0.244,1.153,0.217,1.74
		c-0.037,0.789,0.258,1.46,0.633,2.185c-0.05,1.26,0.751,2.488,0.432,3.69c0.376,0.84,0.784,1.48,1.454,1.969
		c1.08,0.179,2.172-0.364,3.303-0.197c0.334,0.05,0.689-0.127,1.012,0.193c0.104,0.103,0.489,0.118,0.699-0.059
		c0.321-0.27,0.738-0.215,1.016-0.109c0.763,0.291,1.532,0.134,2.357,0.202c0.215,0.235,0.624,0.392,0.541,0.94
		c-0.419,0.608-1.185,0.797-1.793,1.209c-0.476,0.322-1.012,0.547-1.243,1.175c-0.142,0.386-0.671,0.446-0.966,0.763
		c-0.81,0.868-1.669,1.689-2.509,2.529c-0.255,0.255-0.509,0.509-0.807,0.807c-0.06,1.146-0.06,2.332,0.338,3.639
		c0.408,0.72,0.788,1.632,0.707,2.646c-0.033,0.417,0.339,0.68,0.249,1.104c-0.073,0.342-0.016,0.712-0.016,0.971
		c0.401,0.751,0.703,1.424,0.652,2.213c-0.052,0.803,0.207,1.541,0.504,2.272c0.163,0.402,0.328,0.803,0.371,1.255
		c0.044,0.464,0.203,0.918,0.322,1.373c0.196,0.751,0.513,1.467,0.542,2.265c0.012,0.32,0.193,0.634,0.297,0.951
		c0.294,0.91,0.544,1.825,0.56,2.795c0.009,0.522-0.15,0.945-0.558,1.329c-0.511-0.08-1.049,0.078-1.61-0.191
		c-0.326-0.157-0.836-0.152-1.156,0.3c-0.854,1.139-1.937,1.859-3.291,1.618c-0.702-0.232-1.096-0.663-1.692-0.658
		c-0.185-0.191-0.406-0.355-0.563-0.603c-0.5-0.791-1.257-0.918-1.959-0.336c-0.276,0.229-0.503,0.517-0.771,0.756
		c-0.176,0.157-0.334,0.313-0.576,0.426c-0.934,0.438-0.938,0.536-2.106,0.158c-0.411-0.133-0.81-0.113-1.023-0.166
		c-0.918-0.363-1.314-1.084-1.941-1.553C34.106,62.942,33.437,63.396,32.915,64.059z M46.131,36.912
		c0.297,0.397,0.399,0.889,0.895,1.043c0.235-0.203,0.55-0.239,0.783-0.467c0.767-0.743,1.301-1.712,2.202-2.182
		c0.099-0.438-0.069-0.648-0.364-0.851c-1.051,0.262-2.095-0.408-3.207-0.142C45.918,35.1,46.252,36.007,46.131,36.912z"/>
	
</g>
</svg>
