<svg xmlns="http://www.w3.org/2000/svg" xml:space="preserve" width="72px" height="72px" viewBox="0 0 72 72">
    <path fill="currentColor" d="M32.915 64.059c-.428-.045-.722.217-1.052.378-.604.296-1.164.422-1.857.108-.502-.229-1.082-.328-1.623-.591l-.498-.973c-.373-.38-.839-.428-1.341-.421-.444.005-.874-.021-1.328-.166-.378-.119-.583-.354-.88-.56 0-1.072-.013-2.149.005-3.225.011-.63-.187-1.225-.309-1.823-.126-.625-.495-1.182-.965-1.647-.871-.86-1.732-1.729-2.597-2.595-.016-.555-.241-1.062-.699-1.313-.517-.282-.843-.733-1.264-1.072v-1.096l.314-.314h1.076c.87.845 1.965 1.438 2.787 2.343.364.122.802-.152 1.102.233.137-.094.23-.281.445-.21.257-.386.332-.806.328-1.271-.017-2.627-.022-5.255.002-7.882.005-.604-.178-1.075-.603-1.483-.651-.627-1.283-1.249-2.097-1.707-.705-.396-.94-1.314-1.738-1.751-.676-.37-1.006-1.19-1.392-1.81-.058-.296.345-.351.208-.62.174-.274.628.127.699-.328.46.291.957.502 1.396.605.573.134.908.467 1.119.864.434.817 1.249.979 1.763 1.334.412.034.461-.191.621-.288V25.936c-.788-.675-1.442-1.558-2.365-2.19-.457-.313-.799-.868-1.055-1.381-.276-.553-.693-.952-1.078-1.356-.149-.367.15-.601.274-.929 1-.448 1.177-.417 2.005.401.409.405.814.814 1.242 1.242h.915c.03-.077.069-.137.076-.201.076-.733-.166-1.489.163-2.2.032-.068-.002-.084-.029-.158-.189-.535-.25-1.067.04-1.604.076-.14.041-.345.042-.521.004-.54.044-1.083-.007-1.619-.132-1.388.304-2.739.231-4.123-.028-.542.391-.862.742-1.212h.885l.738.817v2.926c.146.344.549.308.746.557.403.06.851-.112 1.136.19l.585-.59h1.744l.498.438c.512-.351.99-.315 1.488.074.03.302.364.481.594.759.392-.255.41-.81 1.065-1.096.528-.152 1.097.217 1.682.755.264-.358.64-.522.985-.733.602.057.91.58 1.278.88.557-.099.47-.656.823-.858h.898c.342.318.545.667.52 1.113-.049.84.004 1.655.43 2.415.346.616.185 1.302.224 1.894l.64 1.235c-.072.755.162 1.549.644 2.295.341.526.244 1.153.217 1.74-.037.789.258 1.46.633 2.185-.05 1.26.751 2.488.432 3.69.376.84.784 1.48 1.454 1.969 1.08.179 2.172-.364 3.303-.197.334.05.689-.127 1.012.193.104.103.489.118.699-.059.321-.27.738-.215 1.016-.109.763.291 1.532.134 2.357.202.215.235.624.392.541.94-.419.608-1.185.797-1.793 1.209-.476.322-1.012.547-1.243 1.175-.142.386-.671.446-.966.763-.81.868-1.669 1.689-2.509 2.529l-.807.807c-.06 1.146-.06 2.332.338 3.639.408.72.788 1.632.707 2.646-.033.417.339.68.249 1.104-.073.342-.016.712-.016.971.401.751.703 1.424.652 2.213-.052.803.207 1.541.504 2.272.163.402.328.803.371 1.255.044.464.203.918.322 1.373.196.751.513 1.467.542 2.265.012.32.193.634.297.951.294.91.544 1.825.56 2.795.009.522-.15.945-.558 1.329-.511-.08-1.049.078-1.61-.191-.326-.157-.836-.152-1.156.3-.854 1.139-1.937 1.859-3.291 1.618-.702-.232-1.096-.663-1.692-.658-.185-.191-.406-.355-.563-.603-.5-.791-1.257-.918-1.959-.336-.276.229-.503.517-.771.756-.176.157-.334.313-.576.426-.934.438-.938.536-2.106.158-.411-.133-.81-.113-1.023-.166-.918-.363-1.314-1.084-1.941-1.553-.856.185-1.525.639-2.047 1.302m13.216-27.147c.297.397.399.889.895 1.043.235-.203.55-.239.783-.467.767-.743 1.301-1.712 2.202-2.182.099-.438-.069-.648-.364-.851-1.051.262-2.095-.408-3.207-.142-.522.787-.188 1.694-.309 2.599"/>
</svg>
