<?xml version="1.0" encoding="iso-8859-1"?>
<!-- Generator: Adobe Illustrator 16.0.0, SVG Export Plug-In . SVG Version: 6.00 Build 0)  -->
<!DOCTYPE svg PUBLIC "-//W3C//DTD SVG 1.1//EN" "http://www.w3.org/Graphics/SVG/1.1/DTD/svg11.dtd">
<svg version="1.1" id="Layer_1" xmlns="http://www.w3.org/2000/svg" xmlns:xlink="http://www.w3.org/1999/xlink" x="0px" y="0px"
	 width="72.36px" height="72.18px" viewBox="0 0 72.36 72.18" style="enable-background:new 0 0 72.36 72.18;" xml:space="preserve"
	>
<g>
	<path style="fill-rule:evenodd;clip-rule:evenodd;fill:none;" d="M-6.984-6.984c28.8,0,57.6,0,86.399,0c0,28.872,0,57.744,0,86.615
		c-28.8,0-57.6,0-86.399,0C-6.984,50.76-6.984,21.888-6.984-6.984z M32.915,64.059c0.522-0.662,1.192-1.116,2.045-1.301
		c0.627,0.469,1.023,1.189,1.941,1.553c0.213,0.053,0.612,0.033,1.023,0.166c1.168,0.378,1.173,0.28,2.106-0.158
		c0.242-0.113,0.4-0.269,0.576-0.426c0.269-0.239,0.495-0.526,0.771-0.756c0.702-0.582,1.459-0.455,1.959,0.336
		c0.156,0.247,0.378,0.411,0.563,0.603c0.597-0.005,0.99,0.426,1.692,0.658c1.354,0.241,2.438-0.479,3.291-1.618
		c0.32-0.452,0.83-0.457,1.156-0.3c0.562,0.27,1.1,0.111,1.61,0.191c0.407-0.384,0.566-0.807,0.558-1.329
		c-0.016-0.97-0.266-1.885-0.56-2.795c-0.104-0.317-0.285-0.631-0.297-0.951c-0.029-0.798-0.346-1.514-0.542-2.265
		c-0.119-0.455-0.278-0.909-0.322-1.373c-0.043-0.452-0.208-0.853-0.371-1.255c-0.297-0.731-0.556-1.47-0.504-2.272
		c0.051-0.789-0.251-1.462-0.652-2.213c0-0.259-0.058-0.629,0.016-0.971c0.09-0.424-0.282-0.687-0.249-1.104
		c0.081-1.015-0.299-1.927-0.707-2.646c-0.397-1.307-0.397-2.492-0.338-3.639c0.298-0.298,0.552-0.552,0.807-0.807
		c0.84-0.84,1.699-1.661,2.509-2.529c0.295-0.316,0.824-0.376,0.966-0.763c0.231-0.628,0.768-0.853,1.243-1.175
		c0.608-0.412,1.374-0.601,1.793-1.209c0.083-0.548-0.326-0.705-0.541-0.94c-0.825-0.068-1.595,0.088-2.357-0.202
		c-0.277-0.105-0.694-0.16-1.016,0.109c-0.21,0.177-0.596,0.162-0.699,0.059c-0.322-0.32-0.678-0.143-1.012-0.193
		c-1.131-0.167-2.223,0.376-3.303,0.197c-0.67-0.489-1.078-1.128-1.454-1.969c0.319-1.202-0.481-2.43-0.432-3.69
		c-0.375-0.725-0.67-1.396-0.633-2.185c0.027-0.587,0.124-1.214-0.217-1.74c-0.481-0.746-0.716-1.54-0.644-2.295
		c-0.243-0.47-0.429-0.827-0.64-1.235c-0.039-0.592,0.122-1.278-0.224-1.894c-0.426-0.759-0.479-1.575-0.43-2.415
		c0.025-0.446-0.178-0.795-0.52-1.113c-0.287,0-0.601,0-0.898,0c-0.354,0.202-0.267,0.759-0.823,0.858
		c-0.368-0.3-0.677-0.823-1.278-0.88c-0.346,0.211-0.722,0.375-0.985,0.733c-0.585-0.538-1.154-0.907-1.682-0.755
		c-0.655,0.286-0.673,0.84-1.065,1.096c-0.229-0.278-0.563-0.457-0.594-0.759c-0.498-0.389-0.976-0.424-1.488-0.074
		c-0.173-0.152-0.354-0.312-0.498-0.438c-0.548,0-1.047,0-1.744,0c-0.133,0.134-0.354,0.357-0.585,0.59
		c-0.285-0.303-0.732-0.13-1.136-0.19c-0.197-0.249-0.601-0.213-0.746-0.557c0-0.988,0-1.995,0-2.926
		c-0.278-0.308-0.518-0.573-0.738-0.817c-0.322,0-0.607,0-0.885,0c-0.352,0.35-0.771,0.67-0.742,1.212
		c0.073,1.384-0.363,2.734-0.231,4.123c0.051,0.535,0.011,1.079,0.007,1.619c-0.001,0.175,0.033,0.38-0.042,0.521
		c-0.29,0.536-0.229,1.068-0.04,1.604c0.026,0.074,0.061,0.09,0.029,0.158c-0.329,0.711-0.087,1.467-0.163,2.2
		c-0.007,0.063-0.046,0.124-0.076,0.201c-0.308,0-0.622,0-0.915,0c-0.428-0.428-0.833-0.837-1.242-1.242
		c-0.828-0.818-1.005-0.849-2.005-0.401c-0.124,0.328-0.423,0.562-0.274,0.929c0.385,0.404,0.802,0.803,1.078,1.356
		c0.256,0.514,0.598,1.068,1.055,1.381c0.923,0.632,1.578,1.515,2.365,2.19c0,3.658,0,7.253,0,10.842
		c-0.16,0.096-0.209,0.322-0.621,0.288c-0.514-0.355-1.329-0.517-1.763-1.334c-0.211-0.396-0.546-0.73-1.119-0.864
		c-0.438-0.103-0.936-0.314-1.396-0.605c-0.07,0.455-0.524,0.053-0.699,0.328c0.137,0.269-0.266,0.324-0.208,0.62
		c0.385,0.62,0.715,1.439,1.392,1.81c0.798,0.437,1.033,1.356,1.738,1.751c0.814,0.458,1.446,1.08,2.097,1.707
		c0.425,0.408,0.608,0.879,0.603,1.483c-0.024,2.627-0.019,5.255-0.002,7.882c0.003,0.466-0.071,0.886-0.328,1.271
		c-0.215-0.071-0.308,0.116-0.445,0.21c-0.299-0.386-0.737-0.111-1.102-0.233c-0.822-0.904-1.917-1.498-2.787-2.343
		c-0.366,0-0.725,0-1.076,0c-0.108,0.108-0.21,0.21-0.314,0.314c0,0.356,0,0.715,0,1.096c0.42,0.339,0.747,0.79,1.264,1.072
		c0.458,0.251,0.684,0.758,0.699,1.313c0.865,0.865,1.727,1.734,2.597,2.595c0.471,0.466,0.839,1.022,0.965,1.647
		c0.122,0.599,0.319,1.193,0.309,1.823c-0.019,1.075-0.005,2.152-0.005,3.225c0.298,0.205,0.502,0.44,0.88,0.56
		c0.454,0.146,0.883,0.171,1.328,0.166c0.502-0.007,0.969,0.041,1.341,0.421c0.168,0.327,0.335,0.655,0.498,0.973
		c0.541,0.263,1.12,0.362,1.623,0.591c0.693,0.313,1.253,0.188,1.857-0.108C32.193,64.275,32.486,64.014,32.915,64.059z
		 M62.273,32.719c0.321-0.217,0.555-0.375,0.689-0.467c0.11-0.413-0.052-0.593-0.276-0.77c-0.288,0-0.6,0-0.781,0
		c-0.447,0.177-0.446,0.456-0.404,0.75C61.719,32.514,62.063,32.593,62.273,32.719z"/>
	<path style="fill-rule:evenodd;clip-rule:evenodd;" d="M32.915,64.059c-0.428-0.045-0.722,0.217-1.052,0.378
		c-0.604,0.296-1.164,0.422-1.857,0.108c-0.502-0.229-1.082-0.328-1.623-0.591c-0.163-0.317-0.33-0.646-0.498-0.973
		c-0.373-0.38-0.839-0.428-1.341-0.421c-0.444,0.005-0.874-0.021-1.328-0.166c-0.378-0.119-0.583-0.354-0.88-0.56
		c0-1.072-0.013-2.149,0.005-3.225c0.011-0.63-0.187-1.225-0.309-1.823c-0.126-0.625-0.495-1.182-0.965-1.647
		c-0.871-0.86-1.732-1.729-2.597-2.595c-0.016-0.555-0.241-1.062-0.699-1.313c-0.517-0.282-0.843-0.733-1.264-1.072
		c0-0.381,0-0.739,0-1.096c0.104-0.104,0.206-0.206,0.314-0.314c0.352,0,0.71,0,1.076,0c0.87,0.845,1.965,1.438,2.787,2.343
		c0.364,0.122,0.802-0.152,1.102,0.233c0.137-0.094,0.23-0.281,0.445-0.21c0.257-0.386,0.332-0.806,0.328-1.271
		c-0.017-2.627-0.022-5.255,0.002-7.882c0.005-0.604-0.178-1.075-0.603-1.483c-0.651-0.627-1.283-1.249-2.097-1.707
		c-0.705-0.396-0.94-1.314-1.738-1.751c-0.676-0.37-1.006-1.19-1.392-1.81c-0.058-0.296,0.345-0.351,0.208-0.62
		c0.174-0.274,0.628,0.127,0.699-0.328c0.46,0.291,0.957,0.502,1.396,0.605c0.573,0.134,0.908,0.467,1.119,0.864
		c0.434,0.817,1.249,0.979,1.763,1.334c0.412,0.034,0.461-0.191,0.621-0.288c0-3.588,0-7.184,0-10.842
		c-0.788-0.675-1.442-1.558-2.365-2.19c-0.457-0.313-0.799-0.868-1.055-1.381c-0.276-0.553-0.693-0.952-1.078-1.356
		c-0.149-0.367,0.15-0.601,0.274-0.929c1-0.448,1.177-0.417,2.005,0.401c0.409,0.405,0.814,0.814,1.242,1.242
		c0.293,0,0.606,0,0.915,0c0.03-0.077,0.069-0.137,0.076-0.201c0.076-0.733-0.166-1.489,0.163-2.2
		c0.032-0.068-0.002-0.084-0.029-0.158c-0.189-0.535-0.25-1.067,0.04-1.604c0.076-0.14,0.041-0.345,0.042-0.521
		c0.004-0.54,0.044-1.083-0.007-1.619c-0.132-1.388,0.304-2.739,0.231-4.123c-0.028-0.542,0.391-0.862,0.742-1.212
		c0.278,0,0.563,0,0.885,0c0.22,0.244,0.46,0.509,0.738,0.817c0,0.931,0,1.938,0,2.926c0.146,0.344,0.549,0.308,0.746,0.557
		c0.403,0.06,0.851-0.112,1.136,0.19c0.231-0.232,0.453-0.456,0.585-0.59c0.696,0,1.195,0,1.744,0
		c0.144,0.126,0.325,0.286,0.498,0.438c0.512-0.351,0.99-0.315,1.488,0.074c0.03,0.302,0.364,0.481,0.594,0.759
		c0.392-0.255,0.41-0.81,1.065-1.096c0.528-0.152,1.097,0.217,1.682,0.755c0.264-0.358,0.64-0.522,0.985-0.733
		c0.602,0.057,0.91,0.58,1.278,0.88c0.557-0.099,0.47-0.656,0.823-0.858c0.298,0,0.611,0,0.898,0
		c0.342,0.318,0.545,0.667,0.52,1.113c-0.049,0.84,0.004,1.655,0.43,2.415c0.346,0.616,0.185,1.302,0.224,1.894
		c0.211,0.408,0.396,0.766,0.64,1.235c-0.072,0.755,0.162,1.549,0.644,2.295c0.341,0.526,0.244,1.153,0.217,1.74
		c-0.037,0.789,0.258,1.46,0.633,2.185c-0.05,1.26,0.751,2.488,0.432,3.69c0.376,0.84,0.784,1.48,1.454,1.969
		c1.08,0.179,2.172-0.364,3.303-0.197c0.334,0.05,0.689-0.127,1.012,0.193c0.104,0.103,0.489,0.118,0.699-0.059
		c0.321-0.27,0.738-0.215,1.016-0.109c0.763,0.291,1.532,0.134,2.357,0.202c0.215,0.235,0.624,0.392,0.541,0.94
		c-0.419,0.608-1.185,0.797-1.793,1.209c-0.476,0.322-1.012,0.547-1.243,1.175c-0.142,0.386-0.671,0.446-0.966,0.763
		c-0.81,0.868-1.669,1.689-2.509,2.529c-0.255,0.255-0.509,0.509-0.807,0.807c-0.06,1.146-0.06,2.332,0.338,3.639
		c0.408,0.72,0.788,1.632,0.707,2.646c-0.033,0.417,0.339,0.68,0.249,1.104c-0.073,0.342-0.016,0.712-0.016,0.971
		c0.401,0.751,0.703,1.424,0.652,2.213c-0.052,0.803,0.207,1.541,0.504,2.272c0.163,0.402,0.328,0.803,0.371,1.255
		c0.044,0.464,0.203,0.918,0.322,1.373c0.196,0.751,0.513,1.467,0.542,2.265c0.012,0.32,0.193,0.634,0.297,0.951
		c0.294,0.91,0.544,1.825,0.56,2.795c0.009,0.522-0.15,0.945-0.558,1.329c-0.511-0.08-1.049,0.078-1.61-0.191
		c-0.326-0.157-0.836-0.152-1.156,0.3c-0.854,1.139-1.937,1.859-3.291,1.618c-0.702-0.232-1.096-0.663-1.692-0.658
		c-0.185-0.191-0.406-0.355-0.563-0.603c-0.5-0.791-1.257-0.918-1.959-0.336c-0.276,0.229-0.503,0.517-0.771,0.756
		c-0.176,0.157-0.334,0.313-0.576,0.426c-0.934,0.438-0.938,0.536-2.106,0.158c-0.411-0.133-0.81-0.113-1.023-0.166
		c-0.918-0.363-1.314-1.084-1.941-1.553C34.106,62.942,33.437,63.396,32.915,64.059z M46.131,36.912
		c0.297,0.397,0.399,0.889,0.895,1.043c0.235-0.203,0.55-0.239,0.783-0.467c0.767-0.743,1.301-1.712,2.202-2.182
		c0.099-0.438-0.069-0.648-0.364-0.851c-1.051,0.262-2.095-0.408-3.207-0.142C45.918,35.1,46.252,36.007,46.131,36.912z"/>
	<path style="fill-rule:evenodd;clip-rule:evenodd;fill:none;" d="M46.131,36.912c0.121-0.904-0.213-1.812,0.309-2.598
		c1.112-0.267,2.156,0.403,3.207,0.142c0.295,0.203,0.463,0.414,0.364,0.851c-0.901,0.47-1.436,1.439-2.202,2.182
		c-0.233,0.228-0.548,0.264-0.783,0.467C46.531,37.801,46.428,37.309,46.131,36.912z"/>
</g>
</svg>
