<svg xmlns="http://www.w3.org/2000/svg" xml:space="preserve" width="72px" height="72px" viewBox="0 0 72 72">
    <path fill="currentColor" d="M15.209 42.048c-.784.548-1.396 1.156-2.347 1.503h-.745l-.736-.801v-.566c.227-.385.592-.653.971-.758.583-.161.86-.568 1.203-.991.442-.547.539-1.224.824-1.825.12-.253.111-.652-.368-.878-.37.051-.82-.004-1.316.172-.512.181-1.154-.044-1.708.064-.509.101-.96.481-1.469.601-.421.099-.913.126-1.287-.28-.424-.318-.133-.956-.526-1.344-.068-.268.305-.37.229-.67-.061-.236-.012-.5-.012-.72.311-.847 1.011-1.459 1.184-2.351a1.36 1.36 0 0 1 .768-.955c.847-.361 1.184-1.179 1.688-1.8 1.141-1.406 1.08-1.45 2.759-2.7.428-.319.76-.765 1.154-1.133.751-.703 1.566-1.314 2.541-1.682.145-.555.6-.891 1.005-1.19 1.088-.803 2.08-1.724 3.168-2.518.609-.445 1.357-.702 2.097-1.071.077-.416.222-.805.771-1.025.676-.271 1.28-.696 2.004-.906.277-.08.714-.167.782-.638.601.238 1.053-.209 1.49-.175.846-.453 1.099-1.305 1.607-1.958.18-.232.269-.598.276-.841.024-.852.63-1.345 1.039-1.956.176-.264.449-.464.696-.711-.017-.494.255-.78.704-1.013.444-.231.948-.369 1.308-.768.185-.205.48-.011.689-.1.708.534.78 1.528 1.605 1.959.161-.01.368.052.541-.16.194-.239.443-.41.732-.562.359-.187.619-.186.97-.005.634.326 1.325.492 2.041.543l.39.391c.572.058 1.188-.126 1.76.288.15.312.334.673.779.808.188.057.421.122.532.263.929 1.178 2.391 1.572 3.547 2.415.382.278.827.548 1.381.581.455.028.863.333 1.262.583.881.55 1.764 1.097 2.968 1.459.662.662 1.475 1.472 2.282 2.285.145.145.23.327.329.507.356.648.882 1.178 1.467 1.702-.11.376.312.652.227 1.064a17 17 0 0 1 1.522 2.014c-.233.951.432 1.665.921 2.352.41.575.794 1.089.892 1.805.043.321.244.618.334.937.115.41.607.317.784.629.033.058.058.12.122.258l-.635.518c-.034.458-.447.941-.183 1.584.229.555.432 1.165.346 1.798-.082.61-.062 1.278-.317 1.809-.264.548.039 1.087-.229 1.638a3.2 3.2 0 0 0-.324 1.486c.034.898-.016 1.8.018 2.699a2.77 2.77 0 0 1-.47 1.637c-.381.564-.642 1.187-1.035 1.819v2.493c-1.249.778-1.249.778-1.857.813-.696-.872-1.563-1.169-2.646-.586-.183.447.011.86.275 1.214.27.359.621.687 1.12.658.468-.027.74.309 1.121.414v.939c-.44.984-1.189 1.666-1.761 2.479-.236.336-.56.6-.77.977-.224.398-.439.846-.96 1.001-.152.045-.299.221-.379.372-.37.697-1.046 1.021-1.653 1.444-.428.299-.926.378-1.383.578-.343.149-.65-.142-.996-.243-.263-.679-.512-1.378-.499-2.146.014-.753.003-1.507.003-2.244-.51-.471-.509-1.141-.611-1.704-.154-.85.063-1.754-.458-2.754-.139-.08-.279-.532-.763-.633-.332-.069-.388-.485-.516-.745-.219-.442-.426-.796-1.021-.75-.612-.62-1.252-1.251-1.873-1.899-.554-.58-1.313-.957-1.62-1.794-.099-.269-.384-.605-.824-.648-.176-.506-.658-.938-.508-1.602.161-.257.454-.373.863-.521.966-.007 2.039-.174 3.065-.602.154-.064.342-.059.515-.06.789-.006 1.578-.003 2.335-.003.689.437 1.252.998 2.024 1.282 1.243-.462 2.477-1.079 3.899-1.361l.843-.844c.114-.555.399-1.073.26-1.639-.125-.505-.304-1.011-.2-1.529.104-.517-.2-.939-.239-1.423-.053-.643-.542-1.101-.932-1.542-.349-.395-.704-.816-.929-1.25-.244-.47-.595-.672-.996-.734-.261-.041-.461-.177-.65-.271-.833-.412-1.41-.609-2.117-.629-.587-.017-1.16-.019-1.758-.164-.51-.123-1.124.157-1.685.289-.735.174-1.434.198-2.052-.33-.374.321-.452.947-1.051 1.062h-1.239c-.387.136-.46.496-.568.749-.263.614-.714.882-1.318.989-.469.083-.905.19-1.31.5-.477.366-1.082.383-1.679.37-.713-.015-1.354.18-1.792.774.005.24-.03.446.186.607.122.092.256.091.373.149.882.44 1.715.958 2.473 1.594.098.081.242.105.365.157.307.499.325 1.042.247 1.601-.667.569-1.532.161-2.285.479-.72.304-1.498-.246-2.248-.186l-1.229.649h-1.839l-1.417-.886c-.495.387-1.077.188-1.646.249-.346-.427-.763-.78-1.078-1.266-.52-.802-1.403-1.05-2.303-1.145a3.33 3.33 0 0 1-2.556.888l-.577.637h-2.075c-.437.261-.617.799-1.157.919-.148.033-.281.225-.38.37-.245.361-.415.729-.896.928-.554.23-1.079.425-1.67.389m32.967-13.587c-.741.38-1.208 1.058-1.804 1.581.253.348.579.393.732.494.707.243 1.241-.167 1.831-.155.644.013 1.287.003 1.93.003.321 0 .644.005.965-.006.053-.002.103-.077.148-.115v-.429c-.424-.417-.876-.806-1.107-1.374zm-22.733-6.308c1.138.141 2.15-.347 3.209-.197.519.074.927-.164 1.285-.519.227-.225.47-.433.652-.598.049-.441-.049-.71-.463-.841-.731.195-1.381.712-2.14.876-1.042-.612-1.874.181-2.669.281-.337.459.173.623.126.998m18.451 7.558c-.887.372-1.877.24-2.604.889-1.028 0-1.765.593-2.454 1.138-.128.42.077.617.302.805h.677c.357-.809 1.429-.383 1.892-1.062.687-.023 1.323-.387 1.978-.227.325-.384.566-.713.522-1.183zm-8.429-10.962c-1.221-.127-1.808.64-2.51 1.16.077.29-.097.56.229.833.885-.403 1.729-.887 2.281-1.993m-3.175 21.3v-1.003h-.729c-.246.183-.372.381-.299.714.165.201.348.451.672.597zm-8.386-6.831c0 .365.005.71-.002 1.056-.005.208.131.209.355.219.039-.332.416-.561.281-1.009-.162-.069-.223-.342-.634-.266m-10.238-.47c.083-.145.288-.189.244-.389-.211-.02-.415-.113-.596.083zm30.37-14.088c.191.002.403.138.621-.061-.25-.128-.442-.139-.621.061"/>
</svg>
