<?xml version="1.0" encoding="iso-8859-1"?>
<!-- Generator: Adobe Illustrator 16.0.0, SVG Export Plug-In . SVG Version: 6.00 Build 0)  -->
<!DOCTYPE svg PUBLIC "-//W3C//DTD SVG 1.1//EN" "http://www.w3.org/Graphics/SVG/1.1/DTD/svg11.dtd">
<svg version="1.1" id="Layer_1" xmlns="http://www.w3.org/2000/svg" xmlns:xlink="http://www.w3.org/1999/xlink" x="0px" y="0px"
	 width="72.36px" height="72.18px" viewBox="0 0 72.36 72.18" style="enable-background:new 0 0 72.36 72.18;" xml:space="preserve"
	>
<g>
	<path style="fill-rule:evenodd;clip-rule:evenodd;fill:none;" d="M-6.984,79.631c0-28.871,0-57.743,0-86.615
		c28.8,0,57.6,0,86.399,0c0,28.872,0,57.744,0,86.615C50.616,79.631,21.816,79.631-6.984,79.631z M15.209,42.048
		c0.59,0.036,1.116-0.159,1.668-0.387c0.481-0.198,0.651-0.566,0.896-0.928c0.1-0.146,0.232-0.337,0.38-0.37
		c0.54-0.12,0.72-0.658,1.157-0.919c0.626,0,1.271,0,2.075,0c0.143-0.157,0.355-0.392,0.577-0.637
		c0.947,0.064,1.805-0.208,2.556-0.888c0.9,0.095,1.783,0.343,2.303,1.145c0.315,0.485,0.731,0.839,1.078,1.266
		c0.569-0.061,1.151,0.138,1.646-0.249c0.477,0.298,0.935,0.584,1.417,0.886c0.612,0,1.26,0,1.839,0
		c0.439-0.232,0.824-0.436,1.229-0.649c0.75-0.061,1.528,0.489,2.248,0.186c0.753-0.317,1.618,0.091,2.285-0.479
		c0.078-0.559,0.06-1.102-0.247-1.601c-0.123-0.052-0.268-0.076-0.365-0.157c-0.758-0.636-1.591-1.153-2.473-1.594
		c-0.117-0.058-0.25-0.058-0.373-0.149c-0.216-0.161-0.181-0.367-0.186-0.607c0.437-0.594,1.078-0.789,1.792-0.774
		c0.597,0.013,1.203-0.004,1.679-0.37c0.404-0.311,0.841-0.417,1.31-0.5c0.604-0.107,1.056-0.375,1.318-0.989
		c0.108-0.253,0.182-0.613,0.568-0.749c0.381,0,0.81,0,1.239,0c0.599-0.115,0.677-0.741,1.051-1.062
		c0.618,0.528,1.316,0.503,2.052,0.33c0.561-0.132,1.175-0.412,1.685-0.289c0.598,0.145,1.171,0.146,1.758,0.164
		c0.707,0.02,1.284,0.218,2.117,0.629c0.189,0.094,0.39,0.23,0.65,0.271c0.401,0.063,0.752,0.265,0.996,0.734
		c0.225,0.434,0.58,0.855,0.929,1.25c0.39,0.441,0.879,0.899,0.932,1.542c0.039,0.484,0.343,0.906,0.239,1.423
		c-0.104,0.519,0.075,1.024,0.2,1.529c0.14,0.565-0.146,1.084-0.26,1.639c-0.289,0.29-0.595,0.595-0.843,0.844
		c-1.423,0.282-2.656,0.899-3.899,1.361c-0.772-0.284-1.335-0.846-2.024-1.282c-0.757,0-1.546-0.003-2.335,0.003
		c-0.173,0.001-0.36-0.005-0.515,0.06c-1.026,0.428-2.1,0.595-3.065,0.602c-0.409,0.148-0.702,0.265-0.863,0.521
		c-0.15,0.664,0.332,1.096,0.508,1.602c0.44,0.043,0.726,0.38,0.824,0.648c0.308,0.837,1.066,1.214,1.62,1.794
		c0.621,0.648,1.261,1.279,1.873,1.899c0.596-0.046,0.803,0.308,1.021,0.75c0.128,0.26,0.184,0.676,0.516,0.745
		c0.483,0.101,0.624,0.553,0.763,0.633c0.521,1,0.304,1.904,0.458,2.754c0.103,0.563,0.102,1.233,0.611,1.704
		c0,0.737,0.011,1.491-0.003,2.244c-0.013,0.769,0.236,1.468,0.499,2.146c0.346,0.102,0.653,0.393,0.996,0.243
		c0.457-0.2,0.955-0.279,1.383-0.578c0.607-0.423,1.283-0.747,1.653-1.444c0.08-0.151,0.227-0.327,0.379-0.372
		c0.521-0.155,0.736-0.603,0.96-1.001c0.21-0.377,0.533-0.641,0.77-0.977c0.571-0.813,1.32-1.494,1.761-2.479
		c0-0.233,0-0.547,0-0.939c-0.381-0.105-0.653-0.441-1.121-0.414c-0.499,0.028-0.851-0.299-1.12-0.658
		c-0.265-0.354-0.458-0.767-0.275-1.214c1.082-0.583,1.949-0.286,2.646,0.586c0.608-0.035,0.608-0.035,1.857-0.813
		c0-0.85,0-1.709,0-2.493c0.394-0.633,0.654-1.255,1.035-1.819c0.304-0.45,0.492-1.028,0.47-1.637
		c-0.033-0.899,0.017-1.801-0.018-2.699c-0.021-0.533,0.121-1.067,0.324-1.486c0.268-0.551-0.035-1.09,0.229-1.638
		c0.256-0.531,0.235-1.199,0.317-1.809c0.086-0.634-0.117-1.244-0.346-1.798c-0.265-0.643,0.148-1.127,0.183-1.584
		c0.254-0.207,0.452-0.369,0.635-0.518c-0.064-0.138-0.089-0.201-0.122-0.258c-0.177-0.312-0.669-0.219-0.784-0.629
		c-0.09-0.319-0.291-0.616-0.334-0.937c-0.098-0.715-0.481-1.229-0.892-1.805c-0.489-0.687-1.154-1.401-0.921-2.352
		c-0.486-0.739-0.978-1.401-1.522-2.014c0.085-0.412-0.337-0.688-0.227-1.064c-0.585-0.524-1.11-1.054-1.467-1.702
		c-0.099-0.181-0.185-0.362-0.329-0.507c-0.808-0.813-1.62-1.623-2.282-2.285c-1.204-0.362-2.087-0.909-2.968-1.459
		c-0.398-0.249-0.807-0.555-1.262-0.583c-0.554-0.033-0.999-0.303-1.381-0.581c-1.156-0.843-2.618-1.236-3.547-2.415
		c-0.111-0.141-0.344-0.206-0.532-0.263c-0.445-0.135-0.629-0.497-0.779-0.808c-0.572-0.414-1.188-0.23-1.76-0.288
		c-0.136-0.136-0.263-0.264-0.39-0.392c-0.716-0.051-1.407-0.217-2.041-0.543c-0.351-0.18-0.61-0.182-0.97,0.005
		c-0.289,0.151-0.538,0.323-0.732,0.562c-0.173,0.212-0.38,0.15-0.541,0.16c-0.825-0.432-0.897-1.426-1.605-1.959
		c-0.209,0.088-0.504-0.105-0.689,0.1c-0.359,0.399-0.863,0.537-1.308,0.768c-0.449,0.233-0.721,0.519-0.704,1.013
		c-0.247,0.247-0.52,0.447-0.696,0.711c-0.408,0.611-1.015,1.104-1.039,1.956c-0.007,0.244-0.096,0.609-0.276,0.841
		c-0.509,0.653-0.761,1.506-1.607,1.958c-0.437-0.034-0.89,0.414-1.49,0.175c-0.068,0.472-0.504,0.558-0.782,0.638
		c-0.724,0.209-1.328,0.635-2.004,0.906c-0.549,0.22-0.694,0.61-0.771,1.025c-0.74,0.369-1.487,0.625-2.097,1.071
		c-1.088,0.794-2.08,1.715-3.168,2.518c-0.405,0.299-0.861,0.635-1.006,1.19c-0.974,0.369-1.79,0.979-2.541,1.683
		c-0.394,0.369-0.726,0.814-1.154,1.133c-1.68,1.25-1.619,1.294-2.759,2.7c-0.503,0.621-0.841,1.439-1.688,1.8
		c-0.35,0.149-0.684,0.518-0.768,0.955c-0.172,0.891-0.873,1.503-1.184,2.351c0,0.219-0.049,0.484,0.012,0.72
		c0.077,0.3-0.296,0.402-0.229,0.67c0.393,0.388,0.102,1.026,0.526,1.344c0.375,0.406,0.866,0.379,1.287,0.28
		c0.509-0.119,0.96-0.5,1.469-0.601c0.555-0.108,1.197,0.116,1.708-0.064c0.496-0.176,0.946-0.121,1.316-0.172
		c0.479,0.226,0.488,0.625,0.368,0.878c-0.285,0.602-0.382,1.278-0.824,1.825c-0.343,0.423-0.62,0.83-1.203,0.991
		c-0.379,0.104-0.744,0.373-0.971,0.758c0,0.201,0,0.415,0,0.566c0.274,0.299,0.517,0.563,0.736,0.801c0.325,0,0.61,0,0.745,0
		C13.813,43.204,14.426,42.596,15.209,42.048z"/>
	<path fill="currentColor" d="M15.209,42.048c-0.784,0.548-1.396,1.156-2.347,1.503
		c-0.134,0-0.42,0-0.745,0c-0.219-0.238-0.462-0.502-0.736-0.801c0-0.151,0-0.365,0-0.566c0.227-0.385,0.592-0.653,0.971-0.758
		c0.583-0.161,0.86-0.568,1.203-0.991c0.442-0.547,0.539-1.224,0.824-1.825c0.12-0.253,0.111-0.652-0.368-0.878
		c-0.37,0.051-0.82-0.004-1.316,0.172c-0.512,0.181-1.154-0.044-1.708,0.064c-0.509,0.101-0.96,0.481-1.469,0.601
		c-0.421,0.099-0.913,0.126-1.287-0.28c-0.424-0.318-0.133-0.956-0.526-1.344c-0.068-0.268,0.305-0.37,0.229-0.67
		c-0.061-0.236-0.012-0.5-0.012-0.72c0.311-0.847,1.011-1.459,1.184-2.351c0.084-0.438,0.418-0.806,0.768-0.955
		c0.847-0.361,1.184-1.179,1.688-1.8c1.141-1.406,1.08-1.45,2.759-2.7c0.428-0.319,0.76-0.765,1.154-1.133
		c0.751-0.703,1.566-1.314,2.541-1.682c0.145-0.555,0.6-0.891,1.005-1.19c1.088-0.803,2.08-1.724,3.168-2.518
		c0.609-0.445,1.357-0.702,2.097-1.071c0.077-0.416,0.222-0.805,0.771-1.025c0.676-0.271,1.28-0.696,2.004-0.906
		c0.277-0.08,0.714-0.167,0.782-0.638c0.601,0.238,1.053-0.209,1.49-0.175c0.846-0.453,1.099-1.305,1.607-1.958
		c0.18-0.232,0.269-0.598,0.276-0.841c0.024-0.852,0.63-1.345,1.039-1.956c0.176-0.264,0.449-0.464,0.696-0.711
		c-0.017-0.494,0.255-0.78,0.704-1.013c0.444-0.231,0.948-0.369,1.308-0.768c0.185-0.205,0.48-0.011,0.689-0.1
		c0.708,0.534,0.78,1.528,1.605,1.959c0.161-0.01,0.368,0.052,0.541-0.16c0.194-0.239,0.443-0.41,0.732-0.562
		c0.359-0.187,0.619-0.186,0.97-0.005c0.634,0.326,1.325,0.492,2.041,0.543c0.127,0.127,0.254,0.255,0.39,0.391
		c0.572,0.058,1.188-0.126,1.76,0.288c0.15,0.312,0.334,0.673,0.779,0.808c0.188,0.057,0.421,0.122,0.532,0.263
		c0.929,1.178,2.391,1.572,3.547,2.415c0.382,0.278,0.827,0.548,1.381,0.581c0.455,0.028,0.863,0.333,1.262,0.583
		c0.881,0.55,1.764,1.097,2.968,1.459c0.662,0.662,1.475,1.472,2.282,2.285c0.145,0.145,0.23,0.327,0.329,0.507
		c0.356,0.648,0.882,1.178,1.467,1.702c-0.11,0.376,0.312,0.652,0.227,1.064c0.545,0.613,1.036,1.275,1.522,2.014
		c-0.233,0.951,0.432,1.665,0.921,2.352c0.41,0.575,0.794,1.089,0.892,1.805c0.043,0.321,0.244,0.618,0.334,0.937
		c0.115,0.41,0.607,0.317,0.784,0.629c0.033,0.058,0.058,0.12,0.122,0.258c-0.183,0.149-0.381,0.311-0.635,0.518
		c-0.034,0.458-0.447,0.941-0.183,1.584c0.229,0.555,0.432,1.165,0.346,1.798c-0.082,0.61-0.062,1.278-0.317,1.809
		c-0.264,0.548,0.039,1.087-0.229,1.638c-0.203,0.419-0.345,0.953-0.324,1.486c0.034,0.898-0.016,1.8,0.018,2.699
		c0.022,0.608-0.166,1.187-0.47,1.637c-0.381,0.564-0.642,1.187-1.035,1.819c0,0.784,0,1.644,0,2.493
		c-1.249,0.778-1.249,0.778-1.857,0.813c-0.696-0.872-1.563-1.169-2.646-0.586c-0.183,0.447,0.011,0.86,0.275,1.214
		c0.27,0.359,0.621,0.687,1.12,0.658c0.468-0.027,0.74,0.309,1.121,0.414c0,0.393,0,0.706,0,0.939
		c-0.44,0.984-1.189,1.666-1.761,2.479c-0.236,0.336-0.56,0.6-0.77,0.977c-0.224,0.398-0.439,0.846-0.96,1.001
		c-0.152,0.045-0.299,0.221-0.379,0.372c-0.37,0.697-1.046,1.021-1.653,1.444c-0.428,0.299-0.926,0.378-1.383,0.578
		c-0.343,0.149-0.65-0.142-0.996-0.243c-0.263-0.679-0.512-1.378-0.499-2.146c0.014-0.753,0.003-1.507,0.003-2.244
		c-0.51-0.471-0.509-1.141-0.611-1.704c-0.154-0.85,0.063-1.754-0.458-2.754c-0.139-0.08-0.279-0.532-0.763-0.633
		c-0.332-0.069-0.388-0.485-0.516-0.745c-0.219-0.442-0.426-0.796-1.021-0.75c-0.612-0.62-1.252-1.251-1.873-1.899
		c-0.554-0.58-1.313-0.957-1.62-1.794c-0.099-0.269-0.384-0.605-0.824-0.648c-0.176-0.506-0.658-0.938-0.508-1.602
		c0.161-0.257,0.454-0.373,0.863-0.521c0.966-0.007,2.039-0.174,3.065-0.602c0.154-0.064,0.342-0.059,0.515-0.06
		c0.789-0.006,1.578-0.003,2.335-0.003c0.689,0.437,1.252,0.998,2.024,1.282c1.243-0.462,2.477-1.079,3.899-1.361
		c0.248-0.249,0.554-0.554,0.843-0.844c0.114-0.555,0.399-1.073,0.26-1.639c-0.125-0.505-0.304-1.011-0.2-1.529
		c0.104-0.517-0.2-0.939-0.239-1.423c-0.053-0.643-0.542-1.101-0.932-1.542c-0.349-0.395-0.704-0.816-0.929-1.25
		c-0.244-0.47-0.595-0.672-0.996-0.734c-0.261-0.041-0.461-0.177-0.65-0.271c-0.833-0.412-1.41-0.609-2.117-0.629
		c-0.587-0.017-1.16-0.019-1.758-0.164c-0.51-0.123-1.124,0.157-1.685,0.289c-0.735,0.174-1.434,0.198-2.052-0.33
		c-0.374,0.321-0.452,0.947-1.051,1.062c-0.43,0-0.858,0-1.239,0c-0.387,0.136-0.46,0.496-0.568,0.749
		c-0.263,0.614-0.714,0.882-1.318,0.989c-0.469,0.083-0.905,0.19-1.31,0.5c-0.477,0.366-1.082,0.383-1.679,0.37
		c-0.713-0.015-1.354,0.18-1.792,0.774c0.005,0.24-0.03,0.446,0.186,0.607c0.122,0.092,0.256,0.091,0.373,0.149
		c0.882,0.44,1.715,0.958,2.473,1.594c0.098,0.081,0.242,0.105,0.365,0.157c0.307,0.499,0.325,1.042,0.247,1.601
		c-0.667,0.569-1.532,0.161-2.285,0.479c-0.72,0.304-1.498-0.246-2.248-0.186c-0.405,0.214-0.79,0.417-1.229,0.649
		c-0.579,0-1.227,0-1.839,0c-0.482-0.302-0.94-0.588-1.417-0.886c-0.495,0.387-1.077,0.188-1.646,0.249
		c-0.346-0.427-0.763-0.78-1.078-1.266c-0.52-0.802-1.403-1.05-2.303-1.145c-0.751,0.68-1.609,0.952-2.556,0.888
		c-0.222,0.245-0.435,0.479-0.577,0.637c-0.804,0-1.449,0-2.075,0c-0.437,0.261-0.617,0.799-1.157,0.919
		c-0.148,0.033-0.281,0.225-0.38,0.37c-0.245,0.361-0.415,0.729-0.896,0.928C16.325,41.889,15.8,42.084,15.209,42.048z
		 M48.176,28.461c-0.741,0.38-1.208,1.058-1.804,1.581c0.253,0.348,0.579,0.393,0.732,0.494c0.707,0.243,1.241-0.167,1.831-0.155
		c0.644,0.013,1.287,0.003,1.93,0.003c0.321,0,0.644,0.005,0.965-0.006c0.053-0.002,0.103-0.077,0.148-0.115
		c0-0.146,0-0.288,0-0.429c-0.424-0.417-0.876-0.806-1.107-1.374C49.954,28.461,49.069,28.461,48.176,28.461z M25.443,22.153
		c1.138,0.141,2.15-0.347,3.209-0.197c0.519,0.074,0.927-0.164,1.285-0.519c0.227-0.225,0.47-0.433,0.652-0.598
		c0.049-0.441-0.049-0.71-0.463-0.841c-0.731,0.195-1.381,0.712-2.14,0.876c-1.042-0.612-1.874,0.181-2.669,0.281
		C24.98,21.614,25.49,21.778,25.443,22.153z M43.894,29.711c-0.887,0.372-1.877,0.24-2.604,0.889c-1.028,0-1.765,0.593-2.454,1.138
		c-0.128,0.42,0.077,0.617,0.302,0.805c0.213,0,0.428,0,0.677,0c0.357-0.809,1.429-0.383,1.892-1.062
		c0.687-0.023,1.323-0.387,1.978-0.227c0.325-0.384,0.566-0.713,0.522-1.183C44.103,29.952,43.991,29.822,43.894,29.711z
		 M35.465,18.749c-1.221-0.127-1.808,0.64-2.51,1.16c0.077,0.29-0.097,0.56,0.229,0.833C34.069,20.339,34.913,19.855,35.465,18.749z
		 M32.29,40.049c0-0.368,0-0.683,0-1.003c-0.28,0-0.521,0-0.729,0c-0.246,0.183-0.372,0.381-0.299,0.714
		c0.165,0.201,0.348,0.451,0.672,0.597C32.05,40.257,32.153,40.167,32.29,40.049z M23.904,33.218c0,0.365,0.005,0.71-0.002,1.056
		c-0.005,0.208,0.131,0.209,0.355,0.219c0.039-0.332,0.416-0.561,0.281-1.009C24.376,33.415,24.315,33.142,23.904,33.218z
		 M13.666,32.748c0.083-0.145,0.288-0.189,0.244-0.389c-0.211-0.02-0.415-0.113-0.596,0.083
		C13.416,32.53,13.518,32.619,13.666,32.748z M44.036,18.66c0.191,0.002,0.403,0.138,0.621-0.061
		C44.407,18.471,44.215,18.46,44.036,18.66z"/>
	<path style="fill-rule:evenodd;clip-rule:evenodd;fill:none;" d="M48.176,28.461c0.893,0,1.777,0,2.695,0
		c0.231,0.567,0.684,0.957,1.107,1.374c0,0.141,0,0.283,0,0.429c-0.046,0.038-0.096,0.113-0.148,0.115
		c-0.321,0.011-0.644,0.006-0.965,0.006c-0.643,0-1.286,0.01-1.93-0.003c-0.59-0.012-1.124,0.398-1.831,0.155
		c-0.153-0.102-0.479-0.146-0.732-0.494C46.968,29.519,47.435,28.841,48.176,28.461z"/>
	<path style="fill-rule:evenodd;clip-rule:evenodd;fill:none;" d="M25.443,22.153c0.047-0.375-0.462-0.54-0.126-0.998
		c0.795-0.1,1.627-0.893,2.669-0.281c0.759-0.164,1.409-0.681,2.14-0.876c0.415,0.13,0.512,0.399,0.463,0.841
		c-0.182,0.166-0.425,0.374-0.652,0.598c-0.358,0.355-0.766,0.592-1.285,0.519C27.593,21.807,26.581,22.294,25.443,22.153z"/>
	<path style="fill-rule:evenodd;clip-rule:evenodd;fill:none;" d="M43.894,29.711c0.097,0.111,0.209,0.241,0.313,0.361
		c0.044,0.47-0.197,0.799-0.522,1.183c-0.654-0.16-1.291,0.203-1.978,0.227c-0.463,0.679-1.534,0.252-1.892,1.062
		c-0.249,0-0.464,0-0.677,0c-0.225-0.188-0.43-0.385-0.302-0.805c0.689-0.545,1.426-1.139,2.454-1.138
		C42.017,29.951,43.007,30.083,43.894,29.711z"/>
	<path style="fill-rule:evenodd;clip-rule:evenodd;fill:none;" d="M35.465,18.749c-0.552,1.106-1.396,1.59-2.281,1.993
		c-0.326-0.273-0.152-0.543-0.229-0.833C33.657,19.389,34.244,18.622,35.465,18.749z"/>
	<path style="fill-rule:evenodd;clip-rule:evenodd;fill:none;" d="M32.29,40.049c-0.137,0.118-0.24,0.208-0.355,0.308
		c-0.324-0.146-0.507-0.396-0.672-0.597c-0.073-0.333,0.053-0.531,0.299-0.714c0.208,0,0.449,0,0.729,0
		C32.29,39.366,32.29,39.681,32.29,40.049z"/>
	<path style="fill-rule:evenodd;clip-rule:evenodd;fill:none;" d="M23.904,33.218c0.411-0.077,0.472,0.196,0.633,0.265
		c0.135,0.449-0.242,0.677-0.281,1.009c-0.224-0.01-0.36-0.011-0.355-0.219C23.91,33.929,23.904,33.583,23.904,33.218z"/>
	<path style="fill-rule:evenodd;clip-rule:evenodd;fill:none;" d="M13.666,32.748c-0.148-0.128-0.25-0.217-0.353-0.306
		c0.182-0.196,0.385-0.102,0.596-0.083C13.954,32.558,13.75,32.603,13.666,32.748z"/>
	<path style="fill-rule:evenodd;clip-rule:evenodd;fill:none;" d="M44.036,18.66c0.18-0.2,0.371-0.189,0.621-0.061
		C44.439,18.798,44.227,18.663,44.036,18.66z"/>
</g>
</svg>
