<svg xmlns="http://www.w3.org/2000/svg" xml:space="preserve" width="72px" height="72px" viewBox="0 0 72 72">
    <path fill="currentColor" d="M47.362 53.063h-.987c-.09.112-.229.323-.403.499-.559.564-1.062 1.193-1.939 1.327-.174.026-.425.158-.612.344-.703.697-1.564.823-2.477.49-.252-.092-.486-.033-.758-.073-.177-.32-.021-.671-.069-.879.843-.726 1.608-1.38 2.368-2.04.128-.111.303-.221.155-.483-.222-.138-.516-.041-.789-.04a3.1 3.1 0 0 1-1.292-.279c-.622-.271-1.296-.464-1.988-.366-.261-.189-.594-.229-.785-.495-.152-.228.013-.812.266-.782.394.046.622-.335.995-.252.17.038.354.006.511.006.266-.269.61-.328.919-.476.125-.229.042-.479.058-.822-1.298-.392-2.134-1.512-3.244-2.251-.263-.175-.547-.446-.954-.309-.979-1.16-2.215-1.964-3.557-2.61-.205-.1-.388-.203-.44-.396-.114-.419-.459-.76-.749-.849-.891-.271-1.505-.925-2.213-1.429-.963-.685-1.894-1.443-2.717-2.289a56 56 0 0 0-2.307-2.247c-1.219-1.118-2.021-2.536-2.972-3.849-.076-.104-.036-.204-.071-.296-.223-.595-.288-1.27-.84-1.704-.154-.839-.845-1.448-.99-2.289-.127-.735-.26-1.464-.759-2.061.098-.5-.21-.954-.197-1.422.024-.883-.319-1.672-.508-2.5-.025-.113-.177-.2-.161-.364.157-1.635-.412-3.258-.176-4.871.144-.986.133-1.958.171-2.651l.581-.82c.111 0 .163-.016.181.002.389.393.84.742.972 1.323.016.068 0 .144.002.215.026.663.59 1.107.68 1.779.076.574.287 1.154.697 1.652.401.487.549 1.145.971 1.654.137.165.253.408.424.565.471.433.739.983.88 1.579.058.244.18.424.342.498.567.258.88.71 1.228 1.205.396.564.917 1.073 1.568 1.385.118.056.267.031.368.158.396.5.952.77 1.492 1.082.962.556 1.714 1.387 2.408 2.226.361.437.677.973.845 1.584.207.754.847 1.298 1.234 1.971.269.467.634.832 1.004 1.201.174.173.304.353.391.596.195.546.621.954 1.068 1.275.951.682 1.779 1.463 2.424 2.441.098.147.229.324.382.371.36.112.579.379.821.625a32 32 0 0 0 3.479 3.063c.482.367.874.854 1.307 1.287.229.229.432.495.693.679.382.268.805.476 1.264.74l.599-.826v-1.233c.337-.511.448-1.137 1.061-1.453.285-.021.495.096.681.433.57 1.042.984 2.104.854 3.321-.026.242-.004.489-.004.704.218.133.392.076.593.062.591-.999 1.251-1.969 2.112-2.789.287-.129.365.358.664.228.151.264.035.626.313.835-.397.514-.151 1.103-.216 1.507-.336.799-.776 1.388-.95 2.131-.158.675-.664 1.233-.804 1.963.301.658.758 1.142 1.388 1.576.859.591 1.469 1.473 2.017 2.374.109.182.023.347.094.576.897.545 1.108 1.623 1.645 2.486.082.132.053.341.056.514.006.468-.016.937.006 1.403.032.667-.05 1.307-.336 1.914-.21.246-.536.272-.833.461-.379-.217-.934-.205-1.026-.822-.005-.028-.046-.055-.074-.076-.985-.722-1.432-1.837-2.042-2.829a2 2 0 0 0-.251-.324c-.609-.636-1.261-1.227-1.764-1.967-.509-.74-1.413-1.065-1.978-1.797"/>
</svg>
