<?xml version="1.0" encoding="iso-8859-1"?>
<!-- Generator: Adobe Illustrator 16.0.0, SVG Export Plug-In . SVG Version: 6.00 Build 0)  -->
<!DOCTYPE svg PUBLIC "-//W3C//DTD SVG 1.1//EN" "http://www.w3.org/Graphics/SVG/1.1/DTD/svg11.dtd">
<svg version="1.1" id="Layer_1" xmlns="http://www.w3.org/2000/svg" xmlns:xlink="http://www.w3.org/1999/xlink" x="0px" y="0px"
	 width="72.36px" height="72.18px" viewBox="0 0 72.36 72.18" style="enable-background:new 0 0 72.36 72.18;" xml:space="preserve"
	>
<g>
	<path style="fill-rule:evenodd;clip-rule:evenodd;fill:none;" d="M-6.984-6.984c28.8,0,57.6,0,86.399,0c0,28.872,0,57.744,0,86.615
		c-28.8,0-57.6,0-86.399,0C-6.984,50.76-6.984,21.888-6.984-6.984z M47.362,53.063c0.565,0.731,1.469,1.057,1.972,1.795
		c0.503,0.74,1.154,1.331,1.764,1.967c0.093,0.097,0.176,0.202,0.251,0.324c0.61,0.992,1.057,2.107,2.042,2.829
		c0.028,0.021,0.069,0.048,0.074,0.076c0.093,0.617,0.647,0.605,1.026,0.822c0.297-0.188,0.623-0.215,0.833-0.461
		c0.286-0.607,0.368-1.247,0.336-1.914c-0.021-0.467,0-0.936-0.006-1.403c-0.003-0.173,0.026-0.382-0.056-0.514
		c-0.536-0.863-0.747-1.941-1.645-2.486c-0.07-0.229,0.016-0.395-0.094-0.576c-0.548-0.901-1.157-1.783-2.017-2.374
		c-0.63-0.435-1.087-0.918-1.388-1.576c0.14-0.729,0.646-1.288,0.804-1.963c0.174-0.743,0.614-1.332,0.95-2.131
		c0.064-0.404-0.182-0.993,0.216-1.507c-0.277-0.209-0.161-0.571-0.313-0.835c-0.299,0.131-0.377-0.356-0.664-0.228
		c-0.861,0.82-1.521,1.79-2.112,2.789c-0.201,0.015-0.375,0.071-0.593-0.062c0-0.215-0.022-0.462,0.004-0.704
		c0.131-1.217-0.283-2.279-0.854-3.321c-0.186-0.337-0.396-0.453-0.681-0.433c-0.612,0.316-0.724,0.942-1.061,1.453
		c0,0.458,0,0.962,0,1.233c-0.264,0.363-0.43,0.592-0.599,0.826c-0.459-0.265-0.882-0.473-1.264-0.74
		c-0.262-0.184-0.465-0.449-0.693-0.679c-0.433-0.433-0.824-0.92-1.307-1.287c-1.234-0.939-2.393-1.959-3.479-3.063
		c-0.242-0.246-0.461-0.513-0.821-0.625c-0.152-0.047-0.284-0.224-0.382-0.371c-0.645-0.978-1.473-1.759-2.424-2.441
		c-0.447-0.321-0.873-0.729-1.068-1.275c-0.087-0.243-0.216-0.422-0.391-0.596c-0.371-0.369-0.736-0.733-1.004-1.201
		c-0.387-0.673-1.027-1.216-1.234-1.971c-0.168-0.611-0.484-1.148-0.845-1.584c-0.694-0.839-1.446-1.67-2.408-2.226
		c-0.54-0.312-1.096-0.582-1.492-1.082c-0.101-0.127-0.25-0.102-0.368-0.158c-0.65-0.313-1.172-0.821-1.568-1.385
		c-0.348-0.494-0.66-0.947-1.228-1.205c-0.162-0.074-0.284-0.254-0.342-0.498c-0.141-0.596-0.409-1.146-0.88-1.579
		c-0.171-0.157-0.288-0.4-0.424-0.565c-0.422-0.509-0.57-1.167-0.971-1.654c-0.41-0.499-0.621-1.079-0.697-1.652
		c-0.089-0.672-0.653-1.116-0.68-1.779c-0.003-0.072,0.013-0.147-0.002-0.215c-0.132-0.581-0.583-0.93-0.972-1.323
		c-0.018-0.018-0.07-0.002-0.181-0.002c-0.13,0.184-0.293,0.415-0.581,0.82c-0.038,0.693-0.027,1.665-0.171,2.651
		c-0.235,1.613,0.333,3.236,0.176,4.871c-0.016,0.164,0.136,0.25,0.161,0.364c0.188,0.828,0.532,1.617,0.508,2.5
		c-0.013,0.468,0.295,0.922,0.197,1.422c0.499,0.597,0.632,1.326,0.759,2.061c0.146,0.841,0.836,1.449,0.99,2.289
		c0.552,0.434,0.617,1.108,0.84,1.704c0.035,0.092-0.005,0.192,0.071,0.296c0.952,1.313,1.753,2.731,2.972,3.849
		c0.79,0.724,1.557,1.477,2.307,2.247c0.823,0.846,1.754,1.604,2.717,2.289c0.708,0.504,1.323,1.157,2.213,1.429
		c0.289,0.089,0.635,0.43,0.749,0.849c0.052,0.193,0.235,0.297,0.44,0.396c1.342,0.646,2.578,1.45,3.557,2.61
		c0.407-0.138,0.691,0.134,0.954,0.309c1.11,0.739,1.946,1.859,3.244,2.251c-0.016,0.344,0.067,0.594-0.058,0.822
		c-0.309,0.147-0.653,0.207-0.919,0.476c-0.156,0-0.341,0.032-0.511-0.006c-0.373-0.083-0.602,0.298-0.995,0.252
		c-0.253-0.029-0.418,0.555-0.266,0.782c0.191,0.267,0.524,0.306,0.785,0.495c0.692-0.098,1.366,0.096,1.988,0.366
		c0.431,0.187,0.835,0.281,1.292,0.279c0.273-0.001,0.567-0.098,0.789,0.04c0.147,0.263-0.027,0.372-0.155,0.483
		c-0.76,0.66-1.525,1.314-2.368,2.04c0.049,0.208-0.107,0.559,0.069,0.879c0.271,0.04,0.506-0.019,0.758,0.073
		c0.912,0.333,1.773,0.207,2.477-0.49c0.188-0.186,0.438-0.317,0.612-0.344c0.878-0.134,1.381-0.763,1.939-1.327
		c0.174-0.176,0.313-0.387,0.403-0.499C46.773,53.063,47.025,53.063,47.362,53.063z"/>
	<path style="fill-rule:evenodd;clip-rule:evenodd;" d="M47.362,53.063c-0.337,0-0.589,0-0.987,0
		c-0.09,0.112-0.229,0.323-0.403,0.499c-0.559,0.564-1.062,1.193-1.939,1.327c-0.174,0.026-0.425,0.158-0.612,0.344
		c-0.703,0.697-1.564,0.823-2.477,0.49c-0.252-0.092-0.486-0.033-0.758-0.073c-0.177-0.32-0.021-0.671-0.069-0.879
		c0.843-0.726,1.608-1.38,2.368-2.04c0.128-0.111,0.303-0.221,0.155-0.483c-0.222-0.138-0.516-0.041-0.789-0.04
		c-0.457,0.002-0.861-0.093-1.292-0.279c-0.622-0.271-1.296-0.464-1.988-0.366c-0.261-0.189-0.594-0.229-0.785-0.495
		c-0.152-0.228,0.013-0.812,0.266-0.782c0.394,0.046,0.622-0.335,0.995-0.252c0.17,0.038,0.354,0.006,0.511,0.006
		c0.266-0.269,0.61-0.328,0.919-0.476c0.125-0.229,0.042-0.479,0.058-0.822c-1.298-0.392-2.134-1.512-3.244-2.251
		c-0.263-0.175-0.547-0.446-0.954-0.309c-0.979-1.16-2.215-1.964-3.557-2.61c-0.205-0.1-0.388-0.203-0.44-0.396
		c-0.114-0.419-0.459-0.76-0.749-0.849c-0.891-0.271-1.505-0.925-2.213-1.429c-0.963-0.685-1.894-1.443-2.717-2.289
		c-0.75-0.771-1.517-1.523-2.307-2.247c-1.219-1.118-2.021-2.536-2.972-3.849c-0.076-0.104-0.036-0.204-0.071-0.296
		c-0.223-0.595-0.288-1.27-0.84-1.704c-0.154-0.839-0.845-1.448-0.99-2.289c-0.127-0.735-0.26-1.464-0.759-2.061
		c0.098-0.5-0.21-0.954-0.197-1.422c0.024-0.883-0.319-1.672-0.508-2.5c-0.025-0.113-0.177-0.2-0.161-0.364
		c0.157-1.635-0.412-3.258-0.176-4.871c0.144-0.986,0.133-1.958,0.171-2.651c0.287-0.406,0.45-0.636,0.581-0.82
		c0.111,0,0.163-0.016,0.181,0.002c0.389,0.393,0.84,0.742,0.972,1.323c0.016,0.068,0,0.144,0.002,0.215
		c0.026,0.663,0.59,1.107,0.68,1.779c0.076,0.574,0.287,1.154,0.697,1.652c0.401,0.487,0.549,1.145,0.971,1.654
		c0.137,0.165,0.253,0.408,0.424,0.565c0.471,0.433,0.739,0.983,0.88,1.579c0.058,0.244,0.18,0.424,0.342,0.498
		c0.567,0.258,0.88,0.71,1.228,1.205c0.396,0.564,0.917,1.073,1.568,1.385c0.118,0.056,0.267,0.031,0.368,0.158
		c0.396,0.5,0.952,0.77,1.492,1.082c0.962,0.556,1.714,1.387,2.408,2.226c0.361,0.437,0.677,0.973,0.845,1.584
		c0.207,0.754,0.847,1.298,1.234,1.971c0.269,0.467,0.634,0.832,1.004,1.201c0.174,0.173,0.304,0.353,0.391,0.596
		c0.195,0.546,0.621,0.954,1.068,1.275c0.951,0.682,1.779,1.463,2.424,2.441c0.098,0.147,0.229,0.324,0.382,0.371
		c0.36,0.112,0.579,0.379,0.821,0.625c1.086,1.104,2.244,2.124,3.479,3.063c0.482,0.367,0.874,0.854,1.307,1.287
		c0.229,0.229,0.432,0.495,0.693,0.679c0.382,0.268,0.805,0.476,1.264,0.74c0.169-0.234,0.335-0.463,0.599-0.826
		c0-0.271,0-0.775,0-1.233c0.337-0.511,0.448-1.137,1.061-1.453c0.285-0.021,0.495,0.096,0.681,0.433
		c0.57,1.042,0.984,2.104,0.854,3.321c-0.026,0.242-0.004,0.489-0.004,0.704c0.218,0.133,0.392,0.076,0.593,0.062
		c0.591-0.999,1.251-1.969,2.112-2.789c0.287-0.129,0.365,0.358,0.664,0.228c0.151,0.264,0.035,0.626,0.313,0.835
		c-0.397,0.514-0.151,1.103-0.216,1.507c-0.336,0.799-0.776,1.388-0.95,2.131c-0.158,0.675-0.664,1.233-0.804,1.963
		c0.301,0.658,0.758,1.142,1.388,1.576c0.859,0.591,1.469,1.473,2.017,2.374c0.109,0.182,0.023,0.347,0.094,0.576
		c0.897,0.545,1.108,1.623,1.645,2.486c0.082,0.132,0.053,0.341,0.056,0.514c0.006,0.468-0.016,0.937,0.006,1.403
		c0.032,0.667-0.05,1.307-0.336,1.914c-0.21,0.246-0.536,0.272-0.833,0.461c-0.379-0.217-0.934-0.205-1.026-0.822
		c-0.005-0.028-0.046-0.055-0.074-0.076c-0.985-0.722-1.432-1.837-2.042-2.829c-0.075-0.122-0.158-0.228-0.251-0.324
		c-0.609-0.636-1.261-1.227-1.764-1.967C48.831,54.12,47.927,53.795,47.362,53.063z"/>
</g>
</svg>
