<?xml version="1.0" encoding="iso-8859-1"?>
<!-- Generator: Adobe Illustrator 16.0.0, SVG Export Plug-In . SVG Version: 6.00 Build 0)  -->
<!DOCTYPE svg PUBLIC "-//W3C//DTD SVG 1.1//EN" "http://www.w3.org/Graphics/SVG/1.1/DTD/svg11.dtd">
<svg version="1.1" id="Layer_1" xmlns="http://www.w3.org/2000/svg" xmlns:xlink="http://www.w3.org/1999/xlink" x="0px" y="0px"
	 width="72.36px" height="72.18px" viewBox="0 0 72.36 72.18" style="enable-background:new 0 0 72.36 72.18;" xml:space="preserve"
	>
<g>
	
	<path fill="currentColor" d="M46.593,52.15c-0.036-0.769,0.133-1.464-0.433-1.994
		c0.072-0.396-0.005-0.852-0.248-1.071c-0.661-0.598-0.9-1.476-1.57-2.073C43.27,46.054,42.284,45,41.28,43.968
		c-0.266-0.272-0.591-0.485-0.761-0.87c-0.133-0.3-0.553-0.348-0.769-0.632c-0.239-0.312-0.54-0.579-0.834-0.843
		c-0.281-0.253-0.479-0.591-0.894-0.713c-0.204-0.06-0.424-0.317-0.492-0.531c-0.107-0.34-0.384-0.484-0.581-0.707
		c-0.193,0-0.373,0-0.553-0.001c-0.058,0.034-0.123,0.061-0.173,0.103c-0.508,0.43-0.856,1.045-1.516,1.298
		c-0.642,1.2-1.944,1.83-2.609,3.021c-0.168,0.301-0.46,0.578-0.761,0.75c-0.689,0.393-1.203,0.932-1.605,1.601
		c-0.072,0.118-0.166,0.26-0.283,0.309c-1.188,0.495-1.251,1.613-1.416,2.635c-0.055,0.344-0.119,0.702-0.268,0.973
		c-0.466,0.844-0.772,1.689-0.884,2.674c-0.087,0.771-0.201,1.606-0.702,2.381c-0.413,0.148-0.916,0.328-1.417,0.509
		c-0.801,0.557-1.247,1.48-2.028,2.09c-0.298,0.232-0.564,0.501-0.875,0.727c-0.321,0.232-0.694,0.291-0.986,0.506
		c-0.396,0.292-0.633-0.161-0.96-0.135c-0.143,0.012-0.288,0.002-0.432,0.002c-0.438-0.391-0.77-0.92-1.459-1.056
		c-0.362,0.126-0.719,0.381-1.025,0.723c-0.369,0.41-0.833,0.604-1.421,0.544c-0.226-0.246-0.468-0.511-0.732-0.8
		c-0.198-1.173,0.467-2.105,1.111-3.09c-0.321-0.491-0.914-0.776-1.11-1.37c0-0.355,0-0.712,0-1.11
		c0.749-0.876,1.886-1.313,2.826-2.341c0.294-0.848,0.971-1.672,1.965-2.252c0.756-0.44,1.395-1.072,2.238-1.378
		c0.119-0.043,0.186-0.204,0.356-0.184c0.854,0.101,1.595-0.283,2.349-0.584c0.146-0.059,0.276-0.068,0.406-0.057
		c0.77,0.067,1.373-0.378,1.634-0.941c0.439-0.947,1.245-1.371,2.029-1.867c0.361-0.229,0.638-0.515,0.875-0.867
		c0.458-0.679,1.053-1.237,1.705-1.726c0.872-0.653,1.734-1.315,2.461-2.131c0.428-0.479,0.41-1.078,0.346-1.673
		c-0.482-0.732-1.047-1.352-1.804-1.845c-0.59-0.385-1.066-0.966-1.536-1.509c-0.75-0.864-1.764-1.428-2.514-2.285
		c-0.391-0.446-0.833-0.832-1.172-1.343c-0.397-0.597-1.003-1.033-1.699-1.327c-0.555-0.234-1.084-0.64-1.334-1.15
		c-0.367-0.748-1.006-0.983-1.669-1.198c-0.54-0.174-1.05-0.441-1.65-0.474c-0.335-0.019-0.657-0.299-1.013-0.476
		c-0.033-0.305-0.298-0.495-0.52-0.712c-0.374-0.364-0.606-0.806-0.868-1.256c-0.671-1.15-1.301-2.353-2.262-3.167
		c-0.229-1.291-0.918-2.256-1.56-3.451c0-0.12,0-0.434,0-0.753c0.492-0.698,1.204-0.582,1.804-0.267
		c0.53,0.278,1.072,0.574,1.599,0.851c0.649,0.341,1.309,0.674,1.931,1.06c0.915,0.566,1.977,0.814,2.876,1.411
		c0.268,0.178,0.567,0.412,0.95,0.307c0.274-0.075,0.423,0.189,0.648,0.264c0.468,0.155,0.887,0.455,1.385,0.727
		c0.091,0.708-0.195,1.453-0.479,2.09c-0.266,0.599,0.018,0.885,0.212,1.289c0.015,0.031,0.047,0.054,0.075,0.077
		c0.847,0.696,1.34,1.657,1.928,2.549c0.096,0.146,0.217,0.308,0.366,0.383c0.808,0.405,1.357,1.05,1.808,1.811
		c0.257,0.435,0.79,0.558,1.131,0.915c0.698,0.728,1.489,1.375,2.117,2.156c0.782,0.974,1.689,1.818,2.528,2.731
		c0.337,0.367,0.54,0.861,1.099,0.995c0.203-0.225,0.659-0.092,0.728-0.576c0.029-0.2,0.332-0.36,0.51-0.538
		c0.331-0.331,0.662-0.662,0.993-0.993c0.356-0.356,0.773-0.671,1.051-1.081c0.254-0.375,0.635-0.574,0.925-0.888
		c0.316-0.344,0.637-0.691,0.994-0.99c0.686-0.573,1.116-1.364,1.749-1.98c0.646-0.627,1.328-1.228,1.896-1.92
		c0.511-0.623,0.897-1.348,1.323-2.038c0.404-0.654,0.835-1.28,1.113-2.023c0.255-0.681,0.695-1.333,1.195-1.865
		c0.309-0.328,0.728-0.617,1.131-0.88c0.43-0.28,0.912-0.496,1.241-0.906c0.126-0.157,0.3-0.153,0.451-0.224
		c1.017-0.472,1.98-1.015,2.846-1.745c0.512-0.431,1.192-0.583,1.825-0.795c0.41-0.138,0.821-0.274,1.255-0.419
		c0.211,0.172,0.561,0.177,0.81,0.539c0.138,0.555-0.122,1.162-0.443,1.627c-0.55,0.795-0.856,1.662-1.15,2.555
		c-0.169,0.512-0.443,0.968-0.72,1.437c-0.419,0.711-0.749,1.49-1.191,2.198c-0.324,0.52-0.686,1.022-1.073,1.497
		c-0.164,0.202-0.439,0.313-0.72,0.504c-0.861-0.129-1.721,0.278-2.648,0.259c-0.471-0.01-0.978,0.388-1.396,0.763
		c-0.879,0.785-1.504,1.793-2.363,2.588c-0.199,0.184-0.344,0.412-0.652,0.511c-0.423,0.137-0.751,0.468-1.085,0.78
		c-0.339,0.318-0.538,0.724-0.83,1.067c-0.272,0.321-0.716,0.411-0.989,0.756c-0.234,0.298-0.57,0.539-0.661,0.915
		c-0.065,0.269-0.22,0.435-0.399,0.591c-0.829,0.717-1.457,1.639-2.416,2.236c-0.644,0.4-0.642,1.276-0.082,1.896
		c0.458,0.507,0.974,0.961,1.442,1.459c0.382,0.406,0.866,0.722,1.083,1.278c0.06,0.153,0.222,0.324,0.375,0.375
		c0.989,0.33,1.354,1.258,1.97,1.958c0.782,0.89,1.61,1.76,2.525,2.507c0.584,0.477,1.337,0.823,2.145,0.777
		c0.376-0.021,0.652,0.273,0.99,0.221c0.392-0.061,0.551,0.249,0.82,0.384c0.443,0.222,0.932,0.393,1.419,0.467
		c0.256,0.04,0.465,0.138,0.657,0.25c0.835,0.489,1.685,0.967,2.305,1.743c0.066,0.084,0.197,0.142,0.221,0.231
		c0.327,1.241,1.438,1.722,2.371,2.3c0.473,0.292,0.713,0.889,1.336,0.821c0.166,1.409-0.297,2.428-1.274,3.219
		c-0.021,0.896,1.215,1.049,1.068,1.976c-0.024,0.71-0.704,0.902-1.161,1.345c-0.237,0-0.52,0-0.881,0
		c-0.171-0.301-0.557-0.342-0.896-0.493c-0.5-0.223-0.938-0.183-1.363,0.087c-0.548,0.348-1.126,0.505-1.801,0.408
		c-0.61-0.336-1.057-0.869-1.533-1.428c-0.628-0.735-1.148-1.622-2.138-2.038c-0.378-0.158-0.666-0.573-0.87-1.014
		c-0.414-0.892-0.844-1.787-1.585-2.479C46.732,52.456,46.85,52.195,46.593,52.15z"/>
</g>
</svg>
