<?xml version="1.0" encoding="iso-8859-1"?>
<!-- Generator: Adobe Illustrator 16.0.0, SVG Export Plug-In . SVG Version: 6.00 Build 0)  -->
<!DOCTYPE svg PUBLIC "-//W3C//DTD SVG 1.1//EN" "http://www.w3.org/Graphics/SVG/1.1/DTD/svg11.dtd">
<svg version="1.1" id="Layer_1" xmlns="http://www.w3.org/2000/svg" xmlns:xlink="http://www.w3.org/1999/xlink" x="0px" y="0px"
	 width="72.36px" height="72.18px" viewBox="0 0 72.36 72.18" style="enable-background:new 0 0 72.36 72.18;" xml:space="preserve"
	>
<g>
	
	<path fill="currentColor" d="M32.334,33.482c0.349-0.172,0.378-0.577,0.614-0.815
		c0.243-0.926-0.367-1.63-0.607-2.51c0.231-0.575,0.569-1.188,0.666-1.912c0.048-0.362,0.396-0.7,0.653-1.013
		c0.129-0.156,0.358-0.23,0.365-0.234c0.062-0.477-0.156-0.536-0.285-0.731c-0.83,0.106-1.718-0.192-2.557,0.229
		c-1.31-0.047-2.669,0.24-3.863-0.578c-0.053-0.037-0.129-0.075-0.186-0.066c-0.747,0.129-1.427-0.398-2.189-0.193
		c-0.313-0.215-0.504-0.598-0.958-0.594c-1.627-0.131-3.073-0.573-3.754-2.526c0-2.101-0.005-4.401,0.003-6.701
		c0.002-0.781,0.523-1.528,1.166-2.102c0.604-0.54,1.234-0.949,2.021-1.139c0.115-0.027,0.213-0.161,0.371-0.143
		c0.955,0.111,1.857-0.447,2.699-0.183c0.73-0.43,1.378-0.765,1.792-1.279c0.923-0.252,1.717,0.192,2.566,0.193
		c0.885,0.001,1.665-0.384,2.519-0.474c0.49-0.052,0.954-0.342,1.444-0.397c0.64-0.072,1.293-0.018,1.669-0.018
		c1.022,0.199,1.244,1.105,2.079,1.216c0.359-0.247,0.852-0.228,1.299-0.027c0.215,0.096,0.405,0.11,0.604,0.101
		c1.676-0.076,3.27,0.399,4.81,0.915c1.029,0.345,2.067,0.579,3.114,0.807c0.352,0.077,0.639,0.213,0.93,0.457
		c0.788-0.182,1.538,0.369,2.254,0.207c0.876,0.42,1.677,0.741,2.556,0.87c0.461,0.068,0.904,0.247,1.36,0.356
		c0.367,0.088,0.578,0.368,0.736,0.533c0.426,0.968,0.196,1.902,0.321,2.798c0.102,0.728,0.196,1.445,0.2,2.181
		c0.003,0.601-0.189,1.126-0.432,1.66c-0.239,0.529-0.673,0.812-1.183,0.868c-0.805,0.088-1.459,0.481-2.293,0.882
		c-0.199,0-0.558,0.034-0.908-0.006c-0.995-0.113-1.941,0.368-2.934,0.219c-0.216-0.033-0.275,0.178-0.448,0.229
		c-0.993,0.293-1.967,0.648-2.974,0.899c-0.093,0.023-0.178,0.173-0.251,0.161c-0.854-0.132-1.66,0.252-2.54,0.238
		c-0.462,0.68-1.276,0.688-1.985,0.819c-0.44,0.081-0.932,0.068-1.442-0.114c-0.604-0.215-1.332-0.128-2.002-0.007
		c-0.087,0.016-0.153,0.144-0.229,0.22c0.13,0.294,0.2,0.641,0.403,0.872c0.312,0.354,0.038,0.824,0.231,1.089
		c0.255,0.35,0.174,0.677,0.179,1.011c0.02,1.258,0.008,2.517,0.008,3.7c0.407,0.722,0.678,1.396,0.656,2.185
		c-0.032,1.223,0.036,2.449-0.025,3.669c-0.036,0.716,0.377,1.362,0.231,2.07c-0.398,1.938-0.168,3.898-0.206,5.849
		c-0.037,1.942-0.015,3.887-0.004,5.829c0.003,0.595-0.321,1.128-0.236,1.748c0.077,0.565-0.101,1.18,0.039,1.719
		c0.329,1.267,0.148,2.537,0.185,3.804c0.037,1.292,0.009,2.587,0.009,3.78c-0.563,0.919-1.468,1.235-2.298,1.685
		c-1.367,0.203-2.571-0.366-3.748-0.945c-0.401-0.393-0.446-0.859-0.44-1.361c0.015-1.331-0.004-2.663,0.012-3.994
		c0.004-0.301-0.129-0.636,0.177-0.903c0.074-0.063,0.089-0.33,0.022-0.4c-0.38-0.404-0.186-0.885-0.195-1.324
		c-0.028-1.295-0.014-2.591-0.008-3.886c0.002-0.453,0.026-0.906-0.219-1.313c-0.249-0.411-0.218-0.864-0.216-1.314
		c0.003-0.718,0.001-1.436,0.001-2.115c0.618-0.764,0.505-1.629,0.371-2.437c-0.156-0.938-0.218-1.185,0.042-2.33
		c0.047-0.204,0.018-0.427,0.018-0.642c0.001-0.899-0.015-1.799,0.009-2.698c0.009-0.334-0.151-0.704,0.194-1.006
		c0.089-0.077,0.07-0.369,0.004-0.521c-0.449-1.03-0.09-2.106-0.207-3.153C32.431,34.854,32.306,34.212,32.334,33.482z"/>
</g>
</svg>
