<?xml version="1.0" encoding="iso-8859-1"?>
<!-- Generator: Adobe Illustrator 16.0.0, SVG Export Plug-In . SVG Version: 6.00 Build 0)  -->
<!DOCTYPE svg PUBLIC "-//W3C//DTD SVG 1.1//EN" "http://www.w3.org/Graphics/SVG/1.1/DTD/svg11.dtd">
<svg version="1.1" id="Layer_1" xmlns="http://www.w3.org/2000/svg" xmlns:xlink="http://www.w3.org/1999/xlink" x="0px" y="0px"
	 width="72.36px" height="72.18px" viewBox="0 0 72.36 72.18" style="enable-background:new 0 0 72.36 72.18;" xml:space="preserve"
	>
<g>
	<path style="fill-rule:evenodd;clip-rule:evenodd;fill:none;" d="M-6.984-6.984c28.8,0,57.6,0,86.399,0c0,28.872,0,57.744,0,86.615
		c-28.8,0-57.6,0-86.399,0C-6.984,50.76-6.984,21.888-6.984-6.984z M55.44,38.658c-0.481-0.273-0.567-0.788-0.78-1.203
		c-0.17-0.33-0.373-0.504-0.688-0.677c-0.675-0.372-1.417-0.578-2.102-0.938c-0.555-0.292-1.248-0.378-1.671-0.889
		c-0.438-0.53-1.192-0.574-1.595-1.132c-0.057-0.08-0.096-0.106,0.028-0.177c1.201,0.312,2.359,0.964,3.578,0.844
		c0.47-0.219,0.839-0.415,1.091-0.82c-0.054-0.659-0.333-1.319-0.252-2.036c0.045-0.4-0.045-0.804-0.152-1.218
		c-0.106-0.411-0.393-0.836-0.263-1.3c0.143-0.513-0.141-0.963-0.262-1.412c-0.069-0.257-0.124-0.52-0.182-0.784
		c-0.105-0.479,0.255-0.861,0.224-1.316c-0.051-0.729,0.155-1.482-0.216-2.178c0.099-1.312-0.122-2.605-0.211-3.906
		c-0.036-0.516,0.074-1.057-0.358-1.473c-0.054-0.795-0.641-1.054-1.237-1.296c-1.028,0.276-1.48,1.209-2.235,1.757
		c-0.573,0.091-0.774-0.538-1.262-0.621c-0.496,0.012-1.036-0.152-1.471,0.229c-0.164-0.208-0.338-0.31-0.372-0.563
		c-0.03-0.223-0.31-0.336-0.432-0.57c-0.297-0.569-0.697-0.679-1.332-0.468c-0.244,0.081-0.482,0.052-0.731,0.026
		c-0.082-0.147-0.276-0.198-0.3-0.415c-0.104-0.954-0.298-1.88-0.995-2.607c-0.092-0.095-0.051-0.197-0.082-0.292
		c-0.363-1.113-0.813-1.415-2.051-1.4c-0.837,0.755-1.438,1.671-2.015,2.623c-0.401,0.663-0.691,1.318-0.685,2.096
		c0.005,0.64,0.001,1.28,0.001,1.92c-0.082-0.06-0.163-0.119-0.244-0.178c-0.101,0.218-0.202,0.436-0.323,0.698
		c-0.194-0.319-0.334-0.551-0.521-0.86c0.016-0.229-0.038-0.574,0.076-0.849c0.188-0.452,0.305-0.853-0.068-1.253
		c0.16-0.642-0.435-0.695-0.746-0.938c-0.689-0.242-1.294,0.253-1.962,0.19c-0.385,0.396-0.838,0.744-0.918,1.117
		c0.165,1.132,0.682,2.061-0.112,2.955c-0.256,0-0.497,0-0.724,0c-0.105-0.239-0.2-0.452-0.261-0.589
		c0.302-0.917,0.305-1.75-0.074-2.569c-0.795-0.478-1.65-0.192-2.409-0.28c-0.408,0.348-0.923,0.422-1.029,1.038
		c-0.086,0.503-0.396,0.965,0.02,1.466c-0.459,0.28-0.03,0.802-0.268,1.126c-0.101,0.101-0.177,0.177-0.275,0.275
		c-0.086-0.109-0.173-0.219-0.328-0.414c-0.065-0.935,0.463-1.952,0.154-3.062c-0.913-0.662-1.533-1.642-2.104-2.58
		c-0.526,0-0.957,0-1.46,0c-0.002,0.192-0.036,0.406-0.247,0.531c0,0.711-0.024,1.43,0.008,2.146c0.025,0.567-0.15,1.096-0.32,1.601
		c-0.354,1.054-0.626,2.101-0.563,3.226c0.019,0.331,0.042,0.655-0.154,1.014c-0.356,0.656-0.562,1.388-0.491,2.173
		c0.045,0.5,0.018,1.007,0.003,1.511c-0.005,0.169,0.018,0.33-0.06,0.513c-0.522,1.229-0.45,2.551-0.582,3.554
		c0.27,0.411,0.408,0.622,0.55,0.839c1.142-0.254,2.2,0.233,3.295,0.169c0.249-0.015,0.336,0.185,0.452,0.351
		c-0.107,0.101-0.199,0.265-0.316,0.287c-1.24,0.227-2.437,0.756-3.724,0.645c-0.695-0.06-1.29,0.166-1.867,0.458
		c-0.329,0.167-0.767,0.305-0.892,0.678c-0.138,0.41-0.339,0.808-0.317,1.279c0.039,0.824,0.011,1.65,0.011,2.521
		c-0.419,0.084-0.352,0.56-0.648,0.798c0,0.448-0.043,0.919,0.012,1.378c0.057,0.474-0.297,0.842-0.235,1.316
		c0.175,1.338-0.344,2.573-0.667,3.827c-0.115,0.446-0.17,0.873-0.193,1.321c-0.013,0.27-0.02,0.512-0.167,0.796
		c-0.345,0.663-0.58,1.393-0.478,2.175c0.102,0.781-0.164,1.491-0.473,2.179c-0.182,0.403-0.422,0.808-0.375,1.241
		c0.086,0.788-0.349,1.508-0.229,2.287c0.021,0.137-0.084,0.186-0.151,0.263c-0.136,0.157-0.122,0.418-0.045,0.495
		c0.404,0.402,0.061,0.899,0.238,1.306c0.169,0.578,0.707,0.859,1.031,1.31c0.722,1.003,1.788,1.891,2.854,2.476
		c0.887,0.486,1.772,0.969,2.586,1.602c0.841,0.651,1.792,1.215,2.894,1.213c0.337,0.32,0.587,0.724,1.018,0.782
		c0.658,0.091,1.141,0.556,1.758,0.723c0.151,0.041,0.242,0.207,0.453,0.217c0.832,0.038,1.521,0.482,2.234,0.854
		c0.432,0,0.87,0.045,1.294-0.013c0.443-0.061,0.789,0.332,1.206,0.218c0.304-0.083,0.374,0.27,0.67,0.244
		c0.679-0.056,1.37-0.063,2.049-0.005c0.69,0.06,1.373,0.177,2.07,0.225c1.461,0.101,2.876-0.349,4.162-0.242
		c0.536-0.214,0.887-0.431,1.073-0.742c0-0.631,0.146-1.254-0.037-1.76c-0.232-0.646-0.087-1.26-0.124-1.883
		c-0.011-0.188,0.214-0.392,0.316-0.563c0.171,0,0.311,0,0.438,0c0.355,0.427,0.31,0.92,0.308,1.405
		c-0.003,0.502-0.001,1.005-0.001,1.507c0.138,0.474,0.509,0.77,0.86,1.044c0.345,0.269,0.756,0.49,1.236,0.304
		c0.713-0.277,1.445-0.516,2.126-0.857c0.337-0.168,0.688-0.276,1.012-0.427c0.478-0.22,1.045-0.356,1.362-0.842
		c0.308,0,0.593,0,0.886,0c0.276-0.375,0.636-0.673,1.053-0.837c0.544-0.213,1.072-0.387,1.506-0.83
		c0.162-0.166,0.497-0.403,0.851-0.262c0.468-0.403,0.827-0.932,1.488-1.105c0.241-0.063,0.521-0.333,0.607-0.571
		c0.266-0.731,0.915-0.832,1.547-1.057c0.173-0.335,0.357-0.692,0.574-1.114c0.021-0.512-0.021-1.08-0.175-1.669
		c-0.141-0.539,0.007-1.146-0.04-1.719c-0.048-0.584-0.282-1.143-0.213-1.748c0.034-0.305-0.124-0.609-0.167-0.889
		c-0.089-0.575-0.393-1.129-0.264-1.74c0.027-0.131,0.009-0.286-0.035-0.414c-0.242-0.719-0.399-1.449-0.393-2.214
		c0.008-0.972,0.142-1.97-0.035-2.908c-0.205-1.096-0.394-2.203-0.671-3.282c-0.068-0.264-0.144-0.524-0.152-0.794
		C55.429,39.763,55.44,39.259,55.44,38.658z M61.437,32.038c0.216,0.516,0.651,0.509,0.921,0.729
		c0.23-0.222,0.446-0.431,0.657-0.634c-0.115-0.233-0.217-0.439-0.324-0.658c-0.203,0-0.413,0-0.668,0
		C61.853,31.638,61.654,31.829,61.437,32.038z"/>
	<path fill="currentColor" d="M55.44,38.658c0,0.601-0.011,1.104,0.004,1.608
		c0.009,0.27,0.084,0.53,0.152,0.794c0.277,1.079,0.466,2.187,0.671,3.282c0.177,0.938,0.043,1.937,0.035,2.908
		c-0.007,0.765,0.15,1.495,0.393,2.214c0.044,0.128,0.063,0.283,0.035,0.414c-0.129,0.611,0.175,1.165,0.264,1.74
		c0.043,0.279,0.201,0.584,0.167,0.889c-0.069,0.605,0.165,1.164,0.213,1.748c0.047,0.572-0.101,1.18,0.04,1.719
		c0.154,0.589,0.196,1.157,0.175,1.669c-0.217,0.422-0.401,0.779-0.574,1.114c-0.632,0.225-1.281,0.325-1.547,1.057
		c-0.087,0.238-0.366,0.508-0.607,0.571c-0.661,0.174-1.021,0.702-1.488,1.105c-0.354-0.142-0.688,0.096-0.851,0.262
		c-0.434,0.443-0.962,0.617-1.506,0.83c-0.417,0.164-0.776,0.462-1.053,0.837c-0.293,0-0.578,0-0.886,0
		c-0.317,0.485-0.885,0.622-1.362,0.842c-0.324,0.15-0.675,0.259-1.012,0.427c-0.681,0.342-1.413,0.58-2.126,0.857
		c-0.48,0.187-0.892-0.035-1.236-0.304c-0.352-0.274-0.723-0.57-0.86-1.044c0-0.502-0.002-1.005,0.001-1.507
		c0.002-0.485,0.048-0.979-0.308-1.405c-0.127,0-0.267,0-0.438,0c-0.103,0.172-0.327,0.375-0.316,0.563
		c0.037,0.623-0.108,1.237,0.124,1.883c0.183,0.506,0.037,1.129,0.037,1.76c-0.187,0.312-0.537,0.528-1.073,0.742
		c-1.286-0.106-2.701,0.343-4.162,0.242c-0.697-0.048-1.38-0.165-2.07-0.225c-0.679-0.059-1.37-0.051-2.049,0.005
		c-0.297,0.025-0.366-0.327-0.67-0.244c-0.417,0.114-0.762-0.278-1.206-0.218c-0.424,0.058-0.862,0.013-1.294,0.013
		c-0.712-0.371-1.402-0.815-2.234-0.854c-0.21-0.01-0.302-0.176-0.453-0.217c-0.617-0.167-1.1-0.632-1.758-0.723
		c-0.431-0.059-0.681-0.462-1.018-0.782c-1.102,0.002-2.053-0.562-2.894-1.213c-0.814-0.633-1.699-1.115-2.586-1.602
		c-1.067-0.585-2.133-1.473-2.854-2.476c-0.324-0.45-0.861-0.731-1.031-1.31c-0.177-0.406,0.166-0.903-0.238-1.306
		c-0.077-0.077-0.091-0.338,0.045-0.495c0.066-0.077,0.172-0.126,0.151-0.263c-0.119-0.779,0.315-1.499,0.229-2.287
		c-0.047-0.434,0.193-0.838,0.375-1.241c0.31-0.688,0.575-1.397,0.473-2.179c-0.102-0.782,0.133-1.512,0.478-2.175
		c0.147-0.284,0.154-0.526,0.167-0.796c0.022-0.448,0.078-0.875,0.193-1.321c0.323-1.254,0.842-2.489,0.667-3.827
		c-0.062-0.475,0.292-0.843,0.235-1.316c-0.055-0.459-0.012-0.93-0.012-1.378c0.296-0.238,0.229-0.714,0.648-0.798
		c0-0.871,0.028-1.698-0.011-2.521c-0.022-0.471,0.179-0.869,0.317-1.279c0.125-0.373,0.563-0.511,0.892-0.678
		c0.577-0.292,1.172-0.519,1.867-0.458c1.287,0.111,2.484-0.418,3.724-0.645c0.118-0.021,0.209-0.186,0.316-0.287
		c-0.116-0.166-0.203-0.365-0.452-0.351c-1.095,0.064-2.154-0.423-3.295-0.169c-0.142-0.217-0.28-0.428-0.55-0.839
		c0.132-1.003,0.06-2.325,0.582-3.554c0.078-0.184,0.055-0.344,0.06-0.513c0.015-0.503,0.042-1.011-0.003-1.511
		c-0.071-0.785,0.135-1.517,0.491-2.173c0.195-0.359,0.172-0.683,0.154-1.014c-0.063-1.125,0.209-2.171,0.563-3.226
		c0.169-0.504,0.345-1.034,0.32-1.601c-0.032-0.717-0.008-1.436-0.008-2.146c0.211-0.125,0.244-0.339,0.247-0.531
		c0.503,0,0.935,0,1.46,0c0.572,0.938,1.192,1.918,2.104,2.58c0.309,1.109-0.219,2.127-0.154,3.062
		c0.154,0.195,0.241,0.305,0.328,0.414c0.098-0.098,0.175-0.174,0.275-0.275c0.238-0.324-0.192-0.847,0.268-1.126
		c-0.417-0.501-0.106-0.963-0.02-1.466c0.105-0.615,0.621-0.689,1.029-1.038c0.759,0.088,1.614-0.197,2.409,0.28
		c0.379,0.819,0.376,1.651,0.074,2.569c0.061,0.138,0.155,0.351,0.261,0.589c0.227,0,0.468,0,0.724,0
		c0.794-0.894,0.277-1.823,0.112-2.955c0.08-0.374,0.533-0.721,0.919-1.117c0.667,0.063,1.272-0.433,1.962-0.19
		c0.311,0.242,0.906,0.296,0.746,0.938c0.373,0.4,0.256,0.801,0.068,1.253c-0.114,0.275-0.061,0.619-0.076,0.849
		c0.187,0.309,0.328,0.541,0.521,0.86c0.122-0.263,0.222-0.48,0.323-0.698c0.081,0.06,0.162,0.119,0.244,0.178
		c0-0.64,0.004-1.28-0.001-1.92c-0.007-0.777,0.284-1.433,0.685-2.096c0.576-0.952,1.178-1.867,2.015-2.623
		c1.238-0.015,1.688,0.287,2.051,1.4c0.031,0.095-0.01,0.197,0.082,0.292c0.697,0.727,0.892,1.654,0.995,2.607
		c0.023,0.217,0.218,0.268,0.3,0.415c0.249,0.026,0.487,0.055,0.731-0.026c0.635-0.21,1.035-0.101,1.332,0.468
		c0.122,0.234,0.401,0.347,0.432,0.57c0.034,0.253,0.208,0.355,0.372,0.563c0.435-0.381,0.975-0.217,1.471-0.229
		c0.487,0.083,0.688,0.712,1.262,0.621c0.755-0.548,1.207-1.481,2.235-1.757c0.597,0.243,1.184,0.501,1.237,1.296
		c0.433,0.416,0.322,0.958,0.358,1.473c0.089,1.301,0.31,2.595,0.211,3.906c0.371,0.696,0.165,1.45,0.216,2.178
		c0.031,0.455-0.329,0.837-0.224,1.316c0.058,0.265,0.112,0.527,0.182,0.784c0.121,0.448,0.404,0.898,0.262,1.412
		c-0.13,0.464,0.156,0.889,0.263,1.3c0.107,0.414,0.197,0.817,0.152,1.218c-0.081,0.717,0.198,1.377,0.252,2.036
		c-0.252,0.405-0.621,0.601-1.091,0.82c-1.219,0.12-2.377-0.532-3.578-0.844c-0.124,0.071-0.085,0.097-0.028,0.177
		c0.402,0.559,1.156,0.603,1.595,1.132c0.423,0.511,1.116,0.597,1.671,0.889c0.685,0.36,1.427,0.566,2.102,0.938
		c0.314,0.173,0.518,0.347,0.688,0.677C54.873,37.87,54.958,38.385,55.44,38.658z M28.319,38.833
		c-0.773,0.401-1.277,1.142-1.631,2.131c-0.147,0.412-0.332,0.864-0.149,1.188c0.297,0.527,0.271,1.1,0.133,1.535
		c-0.277,0.88-0.092,1.738-0.174,2.465c0.243,0.568,0.724,0.547,0.958,0.391c0.351-0.233,0.676-0.138,1.012-0.171
		c0.247-0.024,0.497-0.005,0.663-0.005c0.242-0.212,0.43-0.377,0.568-0.498c0.164-1.352-0.186-2.672,0.245-3.953
		c0.054-0.161,0.079-0.406-0.005-0.527c-0.36-0.516-0.122-1.095-0.212-1.561C29.402,39.25,28.795,39.18,28.319,38.833z
		 M50.256,47.791c0-0.697,0.172-1.41-0.045-1.974c-0.255-0.66,0.029-1.19,0.044-1.777c0.003-0.107,0.046-0.273-0.007-0.313
		c-0.46-0.355-0.04-0.928-0.384-1.366c-0.29-0.371-0.475-0.873-0.666-1.329c-0.09-0.214-0.23-0.336-0.35-0.494
		c-0.147,0-0.29,0-0.432,0c-0.18,0.181-0.357,0.358-0.537,0.538c0,0.68-0.071,1.372,0.03,2.038c0.049,0.322,0.071,0.724,0.219,0.975
		c0.327,0.554,0.271,1.157,0.135,1.639c-0.139,0.491-0.116,0.948-0.174,1.391C49.195,48.223,49.449,48.305,50.256,47.791z
		 M33.852,30.741c-0.206-0.24-0.337-0.395-0.596-0.364c-0.248,0.03-0.563,0.103-0.744-0.01c-0.867-0.542-1.679,0.066-2.502,0.115
		c-0.691,0.041-1.373,0.385-2.111,0.338c-0.43-0.027-0.863,0.003-1.294-0.007c-0.449-0.011-0.808,0.225-1.319,0.354
		c0.364,0.447,0.741,0.48,1.154,0.522c1.423,0.143,2.809-0.278,4.226-0.236C31.764,31.485,32.809,31.17,33.852,30.741z
		 M35.244,31.032c0.544,0,1.162,0.169,1.599-0.04c0.658-0.314,1.34-0.112,2.007-0.341c0.673-0.231,1.486-0.051,2.238-0.051
		c0.214,0,0.429,0,0.636,0c0.107-0.108,0.209-0.209,0.311-0.311c-0.557-0.197-0.819-0.81-1.638-0.985c-0.112,0-0.471,0-0.869,0
		c-0.214,0.517-0.782,0.564-1.199,0.614c-0.963,0.113-1.954-0.041-2.614,0.217c-0.412,0.28-0.613,0.417-0.814,0.553
		C35.021,30.809,35.097,30.884,35.244,31.032z M42.703,30.7c0.654,0.839,1.743,0.989,2.555,1.598
		c0.591,0.443,1.391,0.61,2.103,0.889c0.088,0.035,0.215,0.03,0.323-0.15c-0.822-0.626-1.745-1.102-2.671-1.562
		c-0.446-0.222-0.962-0.249-1.373-0.628C43.485,30.704,43.083,30.352,42.703,30.7z"/>
	<path style="fill-rule:evenodd;clip-rule:evenodd;fill:none;" d="M28.319,38.833c0.476,0.347,1.083,0.417,1.408,0.995
		c0.091,0.466-0.147,1.045,0.212,1.561c0.084,0.121,0.06,0.366,0.005,0.527c-0.431,1.281-0.081,2.602-0.245,3.953
		c-0.138,0.121-0.326,0.286-0.568,0.498c-0.166,0-0.417-0.02-0.663,0.005c-0.335,0.033-0.661-0.063-1.012,0.171
		c-0.234,0.156-0.714,0.178-0.958-0.391c0.082-0.727-0.103-1.585,0.174-2.465c0.137-0.436,0.164-1.008-0.133-1.535
		c-0.183-0.324,0.001-0.776,0.149-1.188C27.042,39.975,27.546,39.234,28.319,38.833z"/>
	<path style="fill-rule:evenodd;clip-rule:evenodd;fill:none;" d="M50.256,47.791c-0.808,0.514-1.062,0.432-2.166-0.674
		c0.058-0.442,0.035-0.899,0.174-1.391c0.136-0.481,0.192-1.085-0.135-1.639c-0.147-0.251-0.17-0.652-0.219-0.975
		c-0.102-0.666-0.03-1.358-0.03-2.038c0.18-0.18,0.357-0.357,0.537-0.538c0.142,0,0.284,0,0.432,0c0.119,0.158,0.26,0.28,0.35,0.494
		c0.191,0.456,0.376,0.958,0.666,1.329c0.344,0.438-0.076,1.011,0.384,1.366c0.053,0.04,0.01,0.206,0.007,0.313
		c-0.015,0.587-0.299,1.117-0.044,1.777C50.428,46.381,50.256,47.094,50.256,47.791z"/>
	<path style="fill-rule:evenodd;clip-rule:evenodd;fill:none;" d="M33.852,30.741c-1.043,0.429-2.088,0.745-3.187,0.712
		c-1.417-0.042-2.803,0.379-4.226,0.236c-0.413-0.042-0.79-0.075-1.154-0.522c0.512-0.129,0.87-0.365,1.319-0.354
		c0.431,0.01,0.864-0.02,1.294,0.007c0.738,0.047,1.42-0.297,2.111-0.338c0.824-0.049,1.635-0.657,2.502-0.115
		c0.181,0.113,0.496,0.04,0.744,0.01C33.515,30.346,33.646,30.501,33.852,30.741z"/>
	<path style="fill-rule:evenodd;clip-rule:evenodd;fill:none;" d="M35.244,31.032c-0.147-0.147-0.224-0.223-0.344-0.344
		c0.201-0.137,0.402-0.273,0.814-0.553c0.661-0.258,1.651-0.104,2.614-0.217c0.417-0.049,0.985-0.097,1.199-0.614
		c0.398,0,0.757,0,0.869,0c0.818,0.175,1.081,0.788,1.638,0.985c-0.102,0.101-0.203,0.203-0.311,0.311c-0.207,0-0.422,0-0.636,0
		c-0.752,0-1.565-0.18-2.238,0.051c-0.667,0.229-1.349,0.027-2.007,0.341C36.406,31.201,35.788,31.032,35.244,31.032z"/>
	<path style="fill-rule:evenodd;clip-rule:evenodd;fill:none;" d="M42.703,30.7c0.381-0.348,0.782,0.004,0.937,0.146
		c0.411,0.379,0.927,0.406,1.373,0.628c0.926,0.459,1.849,0.935,2.671,1.562c-0.108,0.181-0.235,0.185-0.323,0.15
		c-0.712-0.278-1.512-0.445-2.103-0.889C44.446,31.689,43.357,31.539,42.703,30.7z"/>
</g>
</svg>
