<?xml version="1.0" encoding="iso-8859-1"?>
<!-- Generator: Adobe Illustrator 16.0.0, SVG Export Plug-In . SVG Version: 6.00 Build 0)  -->
<!DOCTYPE svg PUBLIC "-//W3C//DTD SVG 1.1//EN" "http://www.w3.org/Graphics/SVG/1.1/DTD/svg11.dtd">
<svg version="1.1" id="Layer_1" xmlns="http://www.w3.org/2000/svg" xmlns:xlink="http://www.w3.org/1999/xlink" x="0px" y="0px"
	 width="72.36px" height="72.18px" viewBox="0 0 72.36 72.18" style="enable-background:new 0 0 72.36 72.18;" xml:space="preserve"
	>
<g>
	
	<path fill="currentColor" d="M49.818,34.554c0,0.49,0,0.92,0,1.229c-0.188,0.459-0.378,0.79-0.793,1.075
		c-0.644-0.148-1.303,0.41-2.191,0.158c-0.764-0.522-1.813-0.851-2.688-1.446c-0.903-0.615-1.922-1.094-2.657-1.991
		c-0.617,0.284-1.078,0.643-1.457,1.242c-0.271,0.426-0.568,0.845-0.786,1.303c-0.331,0.696-0.924,1.143-1.503,1.586
		c-0.16,0.122-0.329,0.246-0.481,0.383c-0.496,0.443-0.912,0.964-1.506,1.313c-0.346,0.203-0.641,0.542-0.773,0.962
		c-0.063,0.198-0.122,0.396-0.313,0.524c-0.46,0.076-0.869,0.422-1.403,0.263c-0.601,0.855-1.387,1.532-1.841,2.505
		c-0.225,0.481-0.737,0.901-1.218,1.174c-0.716,0.405-1.295,0.938-1.85,1.517c-0.34,0.355-0.694,0.706-1.154,0.867
		c-0.333,0.117-0.525,0.35-0.702,0.595c-0.551,0.767-0.851,0.856-1.673,0.505c-0.663-0.283-1.337-0.508-2.087-0.448
		c-0.436,0.035-0.808,0.137-1.113,0.451c-0.629,0.649-1.347,1.146-2.236,1.381c-0.304,0.079-0.523,0.313-0.757,0.522
		c-0.562,0.503-1.142,0.994-1.826,1.322c-0.47,0.226-0.913,0.595-1.063,0.991c-0.209,0.554-0.682,0.496-0.844,0.674
		c-0.42,0.182-0.139,0.647-0.547,0.688c-0.386,0-0.772,0-1.174,0c-0.196-0.199,0.013-0.47-0.089-0.651
		c1.589-1.283,2.898-2.798,4.329-4.186c0.278-0.269,0.556-0.542,0.912-0.67c0.354-0.126,0.637-0.344,0.811-0.63
		c0.507-0.834,1.283-1.41,1.952-2.165c0-0.344,0.036-0.739-0.007-1.126c-0.131-1.174,0.451-2.056,1.294-2.688
		c0.718-0.538,1.298-1.193,1.949-1.786c0.409-0.372,0.751-0.823,1.325-0.978c0.123-0.033,0.245-0.14,0.327-0.244
		c0.554-0.695,1.31-0.857,1.988-0.841c0.788-0.368,1.282-0.871,1.678-1.502c0.238-0.379,0.621-0.661,1.046-0.841
		c0.122-0.052,0.277-0.023,0.366-0.16c0.418-0.643,1.191-0.81,1.742-1.284c0.21-0.181,0.569-0.229,0.844-0.273
		c0.288-0.046,0.568-0.164,0.741-0.297c0.582-0.446,1.302-0.339,2.058-0.72c0.617-0.434,1.017-1.207,1.291-2.086
		c0.246-0.786,0.664-1.493,1.348-2.05c-0.231-0.455-0.654-0.692-0.948-1.082c0.169-0.386-0.028-0.79-0.242-1.042
		c-0.519-0.609-0.614-1.288-0.603-2.028c0.008-0.489-0.282-1.226-0.646-1.643c0-0.082,0-0.219,0-0.356c0-0.144,0-0.288,0-0.506
		c0.517-0.314,0.535-1.035,1.018-1.45c0.111-0.096,0.21-0.151,0.364-0.172c0.632-0.084,1.178-0.35,1.557-0.902
		c0.458,0.236,0.874,0.45,1.307,0.672c0.104-0.357,0.217-0.743,0.359-1.229c0.283-0.268,0.647-0.612,0.978-0.924
		c0.04-0.576,0.403-1.037,0.215-1.598c0.613-0.388,0.76-1.256,1.505-1.392c0.348,0.347,0.673,0.673,1.103,1.103
		c0,0.094,0,0.376,0,0.754c-0.107,0.075-0.283,0.198-0.381,0.266c0,0.285,0,0.455,0,0.65c0.13-0.005,0.283,0.028,0.315-0.02
		c0.413-0.62,0.95-1.126,1.443-1.675c0.183-0.202,0.403-0.471,0.37-0.812c-0.093-0.964,0.502-1.704,0.981-2.39
		c0.51-0.728,1.105-1.416,1.643-2.138c0.085-0.114,0.182-0.22,0.24-0.29c0.791-0.032,1.185,0.489,1.65,0.947
		c0,0.292,0,0.605,0,0.909c-0.902,0.771-1.352,1.796-1.696,2.875c-0.049,0.152-0.174,0.22-0.22,0.342
		c-0.279,0.748-0.707,1.435-0.89,2.177c-0.338,0.166-0.638,0.313-0.985,0.484c-0.063,0.495-0.249,0.958-0.524,1.306
		c0.061,0.277,0.206,0.255,0.396,0.23c0.032-0.729,0.793-0.977,1.079-1.559s0.93-0.805,1.243-1.406
		c0.479-0.919,1.209-1.719,1.547-2.708c0.168-0.492,0.547-0.606,0.876-0.768c0.343-0.168,0.743,0.002,1.051,0.312
		c0.178,0.383,0.468,0.776,0.127,1.353c-0.205,0.347-0.038,0.914-0.064,1.364c-0.215,0.919-1.036,1.43-1.462,2.219
		c0,0.305,0,0.619,0,0.904c0.525,0.579,1.257,0.698,1.9,0.955c0,0.275,0,0.486,0,0.741c-0.298,0.275-0.51,0.656-0.677,1.109
		c-0.319,0.118-0.612,0.346-0.811,0.674c-0.064,0.333,0.086,0.55,0.338,0.707c0.174,0.042,0.255-0.089,0.373-0.161
		c0.48-0.292,1.205-0.909,1.499-1.289c0.243-0.313,0.662-0.371,0.941-0.569c0.729-0.517,1.592-0.885,2.091-1.622
		c0.554-0.138,0.996,0.111,1.422,0.298c0.387,0.17,0.515,0.621,0.695,1.042c-0.148,0.504-0.354,0.964-0.915,1.241
		c-0.479,0.237-0.783,0.768-1.374,0.864c-0.115,0.019-0.281,0.183-0.295,0.295c-0.069,0.596-0.858,0.72-0.903,1.345
		c0.408,0.227,0.548-0.301,0.861-0.237c0.48-0.565,1.264-0.631,1.818-1.117c0.289-0.252,0.832-0.231,1.267-0.293
		c0.282-0.04,0.575-0.007,0.902-0.007c0.238,0.25,0.634,0.42,0.55,0.986c-0.469,0.284-0.604,0.948-1.092,1.285
		c-0.437,0.3-0.948,0.49-1.499,0.765c0.097,0.377-0.118,0.727,0.143,1.113c0.227,0.335,0.014,0.765,0.109,1.125
		c-0.19,0.146-0.313,0.287-0.537,0.362c-0.47,0.157-0.931,0.385-1.34,0.665c-0.421,0.287-0.91,0.434-1.304,0.802
		c-0.289,0.271-0.79,0.422-1.202,0.434c-0.859,0.025-1.412,0.625-2.081,0.986c-0.39,0.211-0.467,0.723-0.53,1.203
		c-0.55,0.188-0.9,0.638-1.313,1.04C50.486,34.209,50.207,34.435,49.818,34.554z M48.199,27.141c0.392-0.389,0.946-0.51,1.309-1.017
		c0.321-0.45,0.994-0.646,1.141-1.38c-1.444-0.016-1.947,1.214-2.782,1.894C47.899,26.938,48.105,26.995,48.199,27.141z
		 M50.526,19.635c-0.377,0.404-0.874,0.747-0.911,1.385c0.514,0.215,0.892-0.032,1.277-0.235c0.014-0.421,0.442-0.674,0.445-1.15
		C51.1,19.635,50.863,19.635,50.526,19.635z M48.31,29.419c0.008-0.144,0.031-0.288-0.233-0.347
		c-0.198,0.124-0.472,0.234-0.391,0.649C47.927,29.604,48.121,29.511,48.31,29.419z M49.062,21.28
		c-0.096,0.239-0.484,0.281-0.204,0.711C48.954,21.752,49.342,21.711,49.062,21.28z M33.511,37.497
		c-0.133,0.199-0.199,0.338,0.04,0.42C33.657,37.783,33.665,37.664,33.511,37.497z"/>
	
	
	
	
	
</g>
</svg>
