<?xml version="1.0" encoding="iso-8859-1"?>
<!-- Generator: Adobe Illustrator 16.0.0, SVG Export Plug-In . SVG Version: 6.00 Build 0)  -->
<!DOCTYPE svg PUBLIC "-//W3C//DTD SVG 1.1//EN" "http://www.w3.org/Graphics/SVG/1.1/DTD/svg11.dtd">
<svg version="1.1" id="Layer_1" xmlns="http://www.w3.org/2000/svg" xmlns:xlink="http://www.w3.org/1999/xlink" x="0px" y="0px"
	 width="72.36px" height="72.18px" viewBox="0 0 72.36 72.18" style="enable-background:new 0 0 72.36 72.18;" xml:space="preserve"
	>
<g>
	
	<path fill="currentColor" d="M11.587,44.586c-0.213-0.873-0.705-1.261-0.904-1.877
		c-0.208-0.64-0.07-1.251-0.174-1.736c-0.379-0.905-0.971-1.642-0.438-2.585c0.062-0.108,0.063-0.314,0-0.422
		c-0.393-0.664-0.103-1.388-0.228-2.033c0.285-0.285,0.539-0.538,0.801-0.801c0.129,0,0.272,0,0.412,0
		c0.232-0.232,0.461-0.461,0.754-0.754c-0.215-0.7,0.656-1.437-0.037-2.153c0.254-0.558,0.46-1.01,1.04-1.271
		c0.414-0.187,0.794-0.618,0.918-1.104c0.247-0.967,0.802-1.758,1.269-2.612c0.289-0.528,0.736-0.722,1.14-0.933
		c1.324-0.694,2.61-1.495,4.087-1.852c0.749-0.181,1.469-0.446,2.2-0.682c0.952-0.307,1.827-0.808,2.792-1.079
		c0.487-0.137,0.939-0.316,1.353-0.662c0.371-0.312,0.888-0.448,1.454-0.714c0.71,0.061,1.449-0.21,2.217-0.569
		c0.649-0.304,1.288-0.729,2.069-0.75c0.24-0.006,0.518-0.183,0.703-0.36c0.827-0.792,1.769-1.423,2.711-2.06
		c0.234-0.158,0.412-0.4,0.615-0.604c0.396-0.396,0.774-0.805,1.283-1.072c0.922-0.485,1.738-1.149,2.683-1.601
		c1.547-0.739,3.169-1.169,4.88-0.957c0.729,0.09,1.502,0.201,2.168,0.482c0.458,0.194,1.003-0.075,1.363,0.357
		c0.604-0.113,1.137,0.29,1.747,0.229c0.432-0.043,0.715,0.174,1.303,0.744c-0.001,0.288-0.001,0.576-0.001,0.85
		c-0.677,0.817-1.688,1.224-2.441,2.028c0.386,0.564,0.955,0.663,1.52,0.673c0.637,0.012,1.229,0.094,1.763,0.501
		c0,0.315,0,0.628,0,0.789c-0.217,0.641-0.641,1.04-0.644,1.607c0.474,0.495,0.895,1.028,1.65,1.013
		c0.219,0.304,0.638,0.309,0.864,0.489c0.59,0.472,1.275,0.586,1.928,0.849c0.392,0.158,0.755,0.066,1.084,0.178
		c0.696,0.538,1.536,0.708,2.293,1.05c0.938,0.423,1.955,0.674,2.883,1.115c0.685,0.325,1.274,0.835,1.637,1.553
		c0.092,0.184,0.271,0.323,0.419,0.492c-0.018,0.288-0.014,0.561-0.183,0.877c-0.355,0.669-0.725,1.304-1.251,1.856
		c-0.357,0.376-0.782,0.68-1.021,1.191c-0.187,0.398-0.643,0.581-1.09,0.714c-0.587,0.174-1.157,0.411-1.565,0.903
		c-0.06,0.072-0.066,0.188-0.115,0.338c-1.089,0.317-1.921,1.148-2.871,1.79c-0.159,0.107-0.407,0.248-0.313,0.506
		c0.101,0.279-0.249,0.337-0.223,0.584c0.471,1.066,1.327,1.667,2.576,2.015c0.209,0.17,0.509,0.457,0.662,0.867
		c0,0.143-0.014,0.287,0.003,0.428c0.1,0.861-0.118,1.596-0.832,2.141c-0.057,0.043-0.123,0.092-0.15,0.152
		c-0.306,0.704-0.819,1.218-1.435,1.659c-0.317,0.228-0.581,0.529-0.839,0.77c0.135,0.725,0.536,1.239,1.129,1.206
		c0.754-0.043,1.425,0.447,2.135,0.205c0.358,0.301,0.853,0.319,1.054,0.761c0,0.428,0,0.855,0,1.307
		c-0.445,0.66-1.113,0.896-1.905,1.03c-0.346,0.059-0.808,0.094-1.098,0.476c-0.223,0.294-0.699,0.244-0.98,0.575
		c-1.037-0.12-1.933,0.437-2.892,0.744c-0.126,0.041-0.241,0.108-0.384,0.114c-0.376,0.017-0.74-0.047-1.112,0.191
		c-0.262,0.169-0.658-0.063-1,0.195c-0.283,0.215-0.778-0.137-1.078,0.248c-0.601-0.077-1.17,0.244-1.739,0.205
		c-1.426-0.096-2.811,0.355-4.229,0.238c-1.682,0.438-3.396,0.13-5.092,0.21c-0.719,0.034-1.44-0.022-2.159,0.012
		c-1.562,0.074-3.096-0.386-4.66-0.222c-1.173-0.408-2.393-0.09-3.578-0.235c-0.7-0.086-1.423-0.104-2.098-0.394
		c-0.212-0.092-0.548-0.109-0.738-0.002c-0.572,0.324-1.171,0.141-1.755,0.2c-0.235,0.023-0.464-0.042-0.705,0.138
		c-0.166,0.124-0.509,0.145-0.711,0.062c-0.858-0.354-1.745-0.143-2.616-0.197c-0.394-0.024-0.792-0.024-1.187,0.001
		c-0.799,0.051-1.587-0.013-2.403,0.168c-0.998,0.222-2.075,0.152-2.744-1.047c-0.049-0.323,0.185-0.852-0.075-1.227
		c-0.518-0.749-0.746-1.569-0.902-2.439c-0.114-0.631-0.481-1.168-0.747-1.741C11.578,45.427,11.571,44.91,11.587,44.586z
		 M27.74,42.27c0.295,0.271,0.364,0.687,0.695,0.982c0.644,0.572,1.243,1.197,1.836,1.824c0.415,0.438,0.929,0.677,1.481,0.856
		c0.414,0.134,0.836,0.241,1.254,0.358c0.843,0.237,1.727,0.47,2.57,0.263c0.952-0.232,1.949-0.248,3.055-0.785
		c0.414-0.396,1.068-0.881,1.823-1.18c0.168-0.335,0.332-0.663,0.512-1.022c-0.021-0.771,0.197-1.681-0.865-2.065
		c0-0.503,0-1.006,0-1.33c-0.939-2.562-1.958-4.899-3.688-6.857c0.185-0.894-0.422-1.716-0.15-2.654
		c0.031-0.031,0.105-0.11,0.184-0.183c0.394-0.368,0.387-0.919,0.61-1.368c0.102-0.205-0.011-0.505-0.146-0.785
		c-0.138-0.287-0.15-0.719,0.146-1.092c0.216-0.272,0.229-0.691,0.265-1.078c0.04-0.452-0.262-0.786-0.247-1.208
		c0.018-0.536,0.004-1.072,0.004-1.512c-0.219-0.254-0.382-0.444-0.525-0.61c-0.618,0-1.193,0-1.769,0
		c-0.467,0-0.938,0.033-1.402-0.009c-0.501-0.045-0.958,0.177-1.41,0.278c-0.436,0.097-0.893,0.058-1.306,0.21
		c-1.279,0.471-2.571,0.905-3.772,1.579c-0.608,0.341-1.115,0.794-1.456,1.338c-0.599,0.956-1.045,1.992-1.358,3.105
		c-0.223,0.792-0.237,1.451,0.08,2.045c0.753,0.388,1.45,0.47,2.172,0.555c1.333,0.158,1.314,0.148,2.526-0.001
		c0.834-0.103,1.32-0.422,1.553-1.253c-0.458-0.235-0.662-0.683-0.874-1.076c-0.222-1.514,0.821-2.316,1.686-3.181
		c0.081-0.822,0.158-1.58,1.063-1.966c0.29-0.124,0.637,0.039,0.794-0.142c0.462-0.527,0.866-0.003,1.238,0.069
		c0.473,0.093,0.726,0.634,0.796,1.107c0.066,0.445,0.256,0.835,0.364,1.256c0.12,0.468,0.213,0.925-0.111,1.397
		c-0.203,0.296-0.275,0.685-0.244,1.087c0.044,0.569,0.012,1.145,0.012,1.718c-0.091,0.428-0.5,0.637-0.666,1.026
		c-0.288,0.675-0.795,1.157-1.506,1.456c-0.489,0.206-1.027,0.383-1.366,0.817c-0.512,0.164-1.089-0.218-1.539,0.246
		c-0.744-0.048-1.5,0.117-2.233-0.079c-0.818-0.219-1.321,0.012-1.775,0.744c-0.291,0.47-0.154,0.941-0.193,1.261
		c0.184,0.41,0.25,0.771,0.565,0.874c0.7,0.229,1.288,0.686,2.005,0.898c0.462,0.137,0.972,0.314,1.305,0.733
		c0,0.218,0,0.434,0,0.539C29.314,40.589,28.089,40.994,27.74,42.27z M47.772,41.399c0.318,0.318,0.604,0.591,0.874,0.878
		c0.22,0.234,0.523,0.378,0.797,0.4c0.972,0.076,1.899-0.112,2.735-0.659c0-0.42,0-0.804,0-1.194
		c-0.726-0.627-1.646-0.702-2.511-0.968c-0.658-0.202-1.173-0.232-1.664,0.228c-0.968,0.18-1.87-0.357-2.843-0.176
		c-0.105,0.215-0.223,0.452-0.314,0.639c0.12,0.236,0.21,0.414,0.305,0.602c0.366,0.158,0.741,0.294,1.173,0.26
		C46.787,41.371,47.254,41.399,47.772,41.399z M45.067,31.165c-1.195-0.813-2.413-0.333-3.459-0.321
		c-0.287,0.22-0.483,0.371-0.626,0.48c0,0.434,0,0.787,0,1.154c0.355,0.157,0.386,0.553,0.61,0.815
		c0.238,0.276,0.576,0.354,0.694,0.437c1.43,0.398,2.204-0.251,2.78-1.443C45.067,32.019,45.067,31.592,45.067,31.165z
		 M54.393,28.112c-0.117-0.33-0.274-0.461-0.591-0.556c-0.942-0.281-1.927-0.339-2.867-0.619c-0.262-0.078-0.65,0.062-0.817-0.085
		c-0.26-0.23-0.683,0.026-0.834-0.356c-0.689-0.138-1.389-0.474-2.024,0.121c-0.1,0.364-0.427,0.719-0.172,1.133
		c0.589,0.236,1.144,0.438,1.774,0.069c0.219-0.128,0.569-0.018,0.887,0.149c0.255,0.134,0.395,0.395,0.663,0.471
		C51.775,28.822,53.096,28.742,54.393,28.112z M50.262,34.487c1.607,0,2.015-0.158,3.006-1.21c0-0.152,0-0.292,0-0.473
		c-1.223-0.531-2.513-0.115-3.735-0.289c-0.27,0.308-0.7,0.481-0.57,0.98C49.296,33.897,49.667,34.259,50.262,34.487z M21.18,42.318
		c-0.365-0.74-0.519-1.535-1.199-2.064c-0.734,0.685-1.127,1.495-1.512,2.299c0.211,0.211,0.388,0.387,0.535,0.533
		c0.565,0.207,1.022-0.19,1.427-0.18C20.708,42.688,20.926,42.517,21.18,42.318z M45.912,47.62c0.166,0.485,0.603,0.645,0.896,0.658
		c0.779,0.036,1.604,0.229,2.335-0.257c-0.055-0.219,0.197-0.319,0.201-0.546c-0.251-0.028-0.103-0.29-0.222-0.41
		c-0.356-0.104-0.66-0.338-1.072-0.277c-0.38,0.055-0.775,0.012-1.019,0.012C46.524,47.019,46.167,47.224,45.912,47.62z
		 M43.589,24.262c1.04-0.181,1.927-0.5,2.537-1.332c0-0.29,0-0.602,0-0.942c-0.479,0-0.935,0-1.376,0
		c-0.755,0.456-0.883,1.355-1.466,1.943C43.424,24.083,43.519,24.185,43.589,24.262z M19.612,34.113
		c-0.491-0.039-0.901-0.355-1.41-0.268c-0.489,0.438-0.481,0.445-0.562,0.931c0.231,0.365,0.584,0.579,1.033,0.764
		c0.234,0,0.548,0,0.634,0c0.359-0.242,0.565-0.382,0.76-0.513C19.91,34.711,19.791,34.473,19.612,34.113z"/>
	
	
	
	
	
	
	
	
	
	<path fill="currentColor" d="M32.349,36.086c0.077-0.076,0.153-0.152,0.303-0.303
		c0.812,0,1.72-0.116,2.581,0.035c0.733,0.129,1.548,0.269,2.079,0.945c0.177,0.225,0.402,0.41,0.629,0.636
		c-0.14,0.513,0.352,0.952,0.219,1.491c0.305,0.236,0.209,0.574,0.213,0.88c0.003,0.25,0.15,0.473,0.183,0.671
		c0.073,0.46,0.44,0.894,0.072,1.453c-0.198,0.301-0.035,0.839-0.035,1.297c-0.453,0.634-1.063,0.929-1.499,0.842
		c-1.155-0.384-1.817-0.82-1.989-1.724c-1.216-0.355-1.853-1.265-2.344-2.445c0-0.269-0.003-0.664,0.001-1.059
		c0.004-0.381-0.014-0.742-0.207-1.101C32.285,37.205,32.283,36.644,32.349,36.086z"/>
</g>
</svg>
