<?xml version="1.0" encoding="iso-8859-1"?>
<!-- Generator: Adobe Illustrator 16.0.0, SVG Export Plug-In . SVG Version: 6.00 Build 0)  -->
<!DOCTYPE svg PUBLIC "-//W3C//DTD SVG 1.1//EN" "http://www.w3.org/Graphics/SVG/1.1/DTD/svg11.dtd">
<svg version="1.1" id="Layer_1" xmlns="http://www.w3.org/2000/svg" xmlns:xlink="http://www.w3.org/1999/xlink" x="0px" y="0px"
	 width="72.36px" height="72.18px" viewBox="0 0 72.36 72.18" style="enable-background:new 0 0 72.36 72.18;" xml:space="preserve"
	>
<g>
	<path style="fill-rule:evenodd;clip-rule:evenodd;fill:none;" d="M79.416,79.631c-28.8,0-57.6,0-86.399,0
		c0-28.871,0-57.743,0-86.615c28.8,0,57.6,0,86.399,0C79.416,21.888,79.416,50.76,79.416,79.631z M10.346,40.478
		c0.902,0.282,1.691-0.247,2.543-0.168c0.775,0.071,1.449-0.232,2.098-0.664c0.575-0.382,1.102-0.845,1.669-1.194
		c0.884-0.546,1.59-1.245,2.318-1.946c0.044-0.042,0.122-0.05,0.001-0.004c0.28,0.111,0.48,0.19,0.445,0.176
		c0.288,0.428,0.113,0.575-0.08,0.75c0.148,0.731-0.19,1.532,0.241,2.262c-0.344,0.546-0.304,1.139-0.098,1.696
		c0.132,0.356,0.196,0.746,0.034,1.005c-0.179,0.285-0.153,0.541-0.143,0.807c0.023,0.628-0.277,1.158-0.761,1.388
		c-0.5,0.236-0.683,0.642-0.975,1.073c0,0.299,0.061,0.673-0.025,1.009c-0.045,0.179-0.293,0.375-0.179,0.558
		c0.352,0.563,0.201,1.171,0.188,1.753c-0.013,0.568,0.032,1.143,0.284,1.613c0.248,0.464,0.24,0.921,0.103,1.314
		c-0.311,0.891-0.188,1.68,0.278,2.454c0.294,0.489,0.593,0.975,0.89,1.463c0,0.368,0,0.722,0,1.063
		c0.83,0.328,1.574,0.876,2.433,0.693c0.404-0.27,0.584-0.607,0.785-1.069c0.034-0.326,0.074-0.841-0.24-1.162
		c-0.445-0.456-0.734-0.99-1.06-1.604c0-0.309-0.04-0.708,0.011-1.096c0.05-0.376-0.384-0.61-0.23-0.99
		c-0.441-0.227-0.049-0.729-0.364-1.047c-0.243-0.245-0.329-0.646-0.475-0.955c-0.112-1.11-0.083-2.149,1.194-2.602
		c0.286,0,0.602,0,0.949,0c0,0.494,0,0.952,0,1.152c0.258,0.387,0.398,0.596,0.452,0.677c0.947,0.306,1.701-0.28,2.489-0.115
		c0.943,1.105,1.642,2.267,1.366,3.649c0.241,0.469,0.425,0.826,0.644,1.25c0.324-0.095,0.489,0.229,0.82,0.286
		c0.463,0.08,0.951,0.314,1.124,0.801c0.235,0.665,0.746,1.08,1.204,1.549c0.433,0,0.864,0,1.19,0
		c0.475-0.198,0.827-0.417,1.07-0.772c0-0.427,0-0.856,0-1.287c-0.099-0.61-0.718-0.694-1.061-1.055
		c-0.854-0.898-1.824-1.69-2.518-2.736c-0.681-1.025-1.293-2.072-1.159-3.312c0.682-0.716,1.107-1.561,1.896-2.068
		c1.08,0,2.159-0.006,3.238,0.005c0.27,0.002,0.526,0.082,0.792,0.159c0.845,0.246,1.673,0.694,2.546,0.456
		c1.082,0.675,2.135,1.816,2.565,2.76c0.234,0.515,0.49,1.022,0.68,1.554c0.201,0.564,0.388,1.135,0.583,1.702
		c0.251,0.725,0.4,1.497,0.745,2.173c0.371,0.727,0.665,1.429,0.556,2.255c-0.014,0.106-0.002,0.216-0.002,0.324
		c-0.003,1.361,0.661,2.475,1.428,3.504c0.395,0.527,0.712,1.056,0.962,1.66c0.303,0.735,0.576,1.536,1.463,1.806
		c0.699-0.004,1.431,0.137,1.979-0.559c0-0.381-0.035-0.813,0.01-1.236c0.046-0.423-0.137-0.782-0.381-1.025
		c-0.458-0.453-0.653-1.026-0.978-1.568c0.697-0.589,1.258-1.245,1.554-2.078c0.08-0.227,0.247-0.337,0.386-0.486
		c0.318-0.342,0.633-0.696,0.994-0.989c0.771-0.626,1.073-1.421,1.016-2.395c-0.014-0.229-0.054-0.458,0.108-0.71
		c0.397-0.617,0.633-1.321,1.063-1.937c0.34-0.486,0.659-1.035,0.558-1.713c-0.058-0.386-0.01-0.788-0.01-1.088
		c-0.26-0.656-0.674-1.138-1.17-1.424c-0.418-0.24-0.789-0.53-1.014-0.887c-0.44-0.699-1.016-1.215-1.691-1.623
		c-0.182-1.861,0.639-3.189,1.979-4.216c0.782,0.268,1.008,0.893,1.336,1.445c0.931,0.368,1.142,0.355,1.824-0.28
		c0.286-0.268,0.61-0.423,0.995-0.573c0.561,0.658,1.287,1.08,2.049,1.291c1.638-0.674,2.883-1.657,3.209-3.509
		c-0.156-0.561-0.399-1.148-1.094-1.394c-0.092-0.032-0.155-0.146-0.231-0.223c-0.612-0.622-1.306-1.973-1.437-2.858
		c-0.063-0.426-0.195-0.887-0.562-1.034c-0.332-0.133-0.512-0.367-0.73-0.576c-0.776-0.746-1.528-1.518-2.286-2.276
		c-0.369,0.173-0.575-0.256-1.022-0.185c-0.218,0.199-0.675,0.231-0.888,0.624c-0.644-0.018-0.665,0.016-1.182-0.305
		c-0.467-0.29-0.934-0.418-1.446-0.276c-0.637,0.122-0.881,0.769-1.394,1.062c-0.57-0.178-1.022-0.383-1.315-0.938
		c-0.208-0.394-0.55-0.818-0.938-0.992c-0.582-0.26-0.788-0.707-1.001-1.199c0.294-0.34,0.419-0.794,0.41-1.135
		c-0.017-0.699-0.235-1.396-0.398-2.088c-0.118-0.499-0.528-0.803-0.884-1.171c0.194-0.502-0.273-0.67-0.522-0.941
		c-0.329-0.358-0.728-0.681-0.74-1.205c-0.016-0.62-0.36-1.021-0.748-1.365c-1.31-0.138-1.671-1.245-2.284-2.087
		c0-0.493,0.014-0.998-0.005-1.5c-0.017-0.457,0.019-0.896,0.219-1.315c0.432-0.903,0.483-1.866,0.435-2.843
		c-0.009-0.18-0.023-0.363,0.003-0.539c0.065-0.435-0.104-0.808-0.268-1.185c-0.492-0.106-0.697-0.558-1.046-0.816
		c0.113-0.373-0.093-0.569-0.32-0.757c-0.791-0.149-1.368,0.712-2.208,0.393c-0.512,0.958-1.184,1.601-2.295,1.306
		c-0.748,0.801-1.702,1.389-1.659,2.53c-0.113,0.114-0.157,0.175-0.216,0.214c-1.157,0.765-1.889,1.539-2.176,2.757
		c-0.069,0.293-0.302,0.682-0.155,0.867c0.258,0.325,0.088,0.769,0.42,0.979c-0.295,0.915-1.216,1.296-1.563,2.109
		c-0.055,0.128-0.19,0.059-0.289,0.081c-0.03,0.006-0.052,0.048-0.042,0.038c-0.27,0.517-0.416,1.036-0.79,1.455
		c-0.356,0.4-0.589,0.87-0.111,1.323c-0.099,0.207-0.275,0.29-0.25,0.506c0.079,0.689-0.038,1.372,0.181,2.082
		c0.192,0.624,0.041,1.355,0.041,2.021c-0.583,0.748-0.434,1.77-0.743,2.179c-0.79,0.749-1.405,0.469-1.97,0.556
		c-0.53-0.67-1.199-1.063-1.958-1.342c-0.545-0.201-1.104-0.509-1.664-0.367c-0.534,0.136-1.09,0.193-1.599,0.588
		c-0.796,0.619-1.734,1.067-2.505,1.735c-0.628,0.545-1.129,1.245-1.987,1.486c-1.055,0.196-1.933-0.225-2.691-0.932
		c-0.259-0.242-0.564-0.374-0.858-0.533c-0.982,0.354-1.387,1.047-1.314,2.079C9.038,33.103,9,33.751,9,34.286
		c0.32,0.63,0.616,1.155,0.855,1.706c0.151,0.348-0.164,0.663-0.251,0.974c-0.166,0.588-0.05,1.236-0.432,1.734
		c0.193,0.413,0.327,0.798,0.543,1.129C9.889,40.094,10.163,40.294,10.346,40.478z M61.491,32.223
		c0.249,0.293,0.593,0.428,0.856,0.524c0.265-0.209,0.483-0.381,0.701-0.554c0.116-0.372-0.163-0.502-0.347-0.706
		c-0.29,0-0.602,0-0.908,0C61.519,31.662,61.431,31.911,61.491,32.223z"/>
	<path style="fill-rule:evenodd;clip-rule:evenodd;" d="M10.346,40.478c-0.184-0.184-0.457-0.384-0.63-0.648
		C9.5,39.498,9.366,39.113,9.172,38.7c0.382-0.498,0.266-1.146,0.432-1.734c0.087-0.311,0.402-0.626,0.251-0.974
		C9.616,35.441,9.32,34.916,9,34.286c0-0.535,0.038-1.184-0.008-1.826c-0.073-1.032,0.332-1.725,1.314-2.079
		c0.294,0.159,0.599,0.291,0.858,0.533c0.759,0.708,1.637,1.128,2.691,0.932c0.858-0.241,1.359-0.941,1.987-1.486
		c0.771-0.668,1.708-1.116,2.505-1.735c0.509-0.395,1.064-0.452,1.599-0.588c0.559-0.142,1.119,0.167,1.664,0.367
		c0.759,0.279,1.428,0.671,1.958,1.342c0.564-0.087,1.18,0.193,1.97-0.556c0.31-0.409,0.16-1.431,0.743-2.179
		c0-0.666,0.152-1.396-0.041-2.021c-0.219-0.71-0.102-1.393-0.181-2.082c-0.025-0.216,0.152-0.299,0.25-0.506
		c-0.479-0.453-0.246-0.923,0.111-1.323c0.374-0.419,0.521-0.938,0.79-1.455c-0.01,0.01,0.012-0.031,0.042-0.038
		c0.099-0.021,0.234,0.047,0.289-0.081c0.348-0.813,1.268-1.194,1.563-2.109c-0.332-0.211-0.162-0.655-0.42-0.979
		c-0.147-0.185,0.086-0.574,0.155-0.867c0.288-1.218,1.019-1.992,2.176-2.757c0.059-0.039,0.103-0.1,0.216-0.214
		c-0.042-1.142,0.911-1.729,1.659-2.53c1.111,0.295,1.783-0.348,2.295-1.306c0.84,0.32,1.417-0.542,2.208-0.393
		c0.228,0.188,0.434,0.385,0.32,0.757c0.349,0.259,0.554,0.71,1.046,0.816c0.163,0.376,0.333,0.75,0.268,1.185
		c-0.026,0.176-0.012,0.359-0.003,0.539c0.049,0.978-0.003,1.94-0.435,2.843c-0.2,0.419-0.235,0.858-0.219,1.315
		c0.019,0.502,0.005,1.007,0.005,1.5c0.613,0.842,0.975,1.949,2.284,2.087c0.388,0.345,0.732,0.745,0.748,1.365
		c0.013,0.524,0.411,0.847,0.74,1.205c0.249,0.271,0.717,0.439,0.522,0.941c0.355,0.368,0.766,0.672,0.884,1.171
		c0.163,0.691,0.382,1.389,0.398,2.088c0.009,0.34-0.116,0.795-0.41,1.135c0.213,0.492,0.419,0.938,1.001,1.199
		c0.389,0.173,0.73,0.598,0.938,0.992c0.293,0.554,0.745,0.759,1.315,0.938c0.513-0.292,0.757-0.939,1.394-1.062
		c0.513-0.142,0.979-0.013,1.446,0.276c0.517,0.321,0.538,0.288,1.182,0.305c0.213-0.393,0.67-0.425,0.888-0.624
		c0.447-0.071,0.653,0.358,1.022,0.185c0.758,0.759,1.51,1.53,2.286,2.276c0.219,0.209,0.398,0.443,0.73,0.576
		c0.366,0.147,0.499,0.607,0.562,1.034c0.131,0.885,0.824,2.236,1.437,2.858c0.076,0.077,0.14,0.191,0.231,0.223
		c0.694,0.246,0.938,0.833,1.094,1.394c-0.326,1.852-1.571,2.835-3.209,3.509c-0.762-0.211-1.488-0.633-2.049-1.291
		c-0.385,0.15-0.709,0.306-0.995,0.573c-0.683,0.636-0.894,0.648-1.824,0.28c-0.328-0.553-0.554-1.178-1.336-1.445
		c-1.341,1.026-2.161,2.354-1.979,4.216c0.676,0.408,1.251,0.924,1.691,1.623c0.225,0.356,0.596,0.646,1.014,0.887
		c0.496,0.286,0.91,0.768,1.17,1.424c0,0.3-0.048,0.702,0.01,1.088c0.102,0.678-0.218,1.227-0.558,1.713
		c-0.431,0.615-0.666,1.319-1.063,1.937c-0.162,0.252-0.122,0.48-0.108,0.71c0.058,0.974-0.245,1.769-1.016,2.395
		c-0.361,0.293-0.676,0.647-0.994,0.989c-0.139,0.149-0.306,0.26-0.386,0.486c-0.296,0.833-0.856,1.489-1.554,2.078
		c0.324,0.542,0.52,1.115,0.978,1.568c0.244,0.243,0.427,0.603,0.381,1.025c-0.045,0.424-0.01,0.855-0.01,1.236
		c-0.549,0.695-1.28,0.555-1.979,0.559c-0.887-0.27-1.16-1.07-1.463-1.806c-0.25-0.604-0.567-1.133-0.962-1.66
		c-0.767-1.029-1.431-2.143-1.428-3.504c0-0.108-0.012-0.218,0.002-0.324c0.109-0.826-0.185-1.528-0.556-2.255
		c-0.345-0.676-0.494-1.448-0.745-2.173c-0.195-0.567-0.382-1.138-0.583-1.702c-0.189-0.531-0.445-1.039-0.68-1.554
		c-0.43-0.943-1.483-2.085-2.565-2.76c-0.874,0.238-1.702-0.21-2.546-0.456c-0.266-0.077-0.521-0.157-0.792-0.159
		c-1.079-0.011-2.159-0.005-3.238-0.005c-0.789,0.508-1.214,1.353-1.896,2.068c-0.134,1.239,0.479,2.286,1.159,3.312
		c0.694,1.046,1.664,1.838,2.518,2.736c0.343,0.36,0.962,0.444,1.061,1.055c0,0.431,0,0.86,0,1.287
		c-0.243,0.355-0.595,0.574-1.07,0.772c-0.326,0-0.757,0-1.19,0c-0.458-0.469-0.969-0.884-1.204-1.549
		c-0.173-0.486-0.661-0.721-1.124-0.801c-0.331-0.057-0.496-0.381-0.82-0.286c-0.218-0.424-0.402-0.781-0.644-1.25
		c0.276-1.383-0.423-2.544-1.366-3.649c-0.788-0.165-1.542,0.421-2.489,0.115c-0.054-0.081-0.193-0.29-0.452-0.677
		c0-0.2,0-0.658,0-1.152c-0.347,0-0.663,0-0.949,0c-1.276,0.452-1.306,1.491-1.194,2.602c0.146,0.31,0.231,0.71,0.475,0.955
		c0.315,0.317-0.077,0.82,0.364,1.047c-0.153,0.38,0.281,0.614,0.23,0.99c-0.051,0.388-0.011,0.787-0.011,1.096
		c0.326,0.614,0.615,1.148,1.06,1.604c0.314,0.321,0.274,0.836,0.24,1.162c-0.201,0.462-0.381,0.8-0.785,1.069
		c-0.859,0.183-1.603-0.365-2.433-0.693c0-0.341,0-0.694,0-1.063c-0.297-0.488-0.596-0.974-0.89-1.463
		c-0.466-0.774-0.589-1.563-0.278-2.454c0.137-0.394,0.145-0.851-0.103-1.314c-0.252-0.471-0.297-1.045-0.284-1.613
		c0.013-0.582,0.164-1.189-0.188-1.753c-0.114-0.183,0.134-0.379,0.179-0.558c0.086-0.336,0.025-0.71,0.025-1.009
		c0.292-0.432,0.476-0.837,0.975-1.073c0.484-0.229,0.785-0.76,0.761-1.388c-0.01-0.266-0.036-0.521,0.143-0.807
		c0.162-0.259,0.098-0.648-0.034-1.005c-0.206-0.558-0.247-1.15,0.098-1.696c-0.432-0.729-0.093-1.53-0.241-2.262
		c0.193-0.176,0.368-0.322,0.08-0.75c0.035,0.014-0.165-0.065-0.445-0.176c0.12-0.046,0.042-0.039-0.001,0.004
		c-0.728,0.701-1.435,1.4-2.318,1.946c-0.567,0.35-1.094,0.813-1.669,1.194c-0.649,0.432-1.323,0.735-2.098,0.664
		C12.038,40.23,11.249,40.76,10.346,40.478z M46.768,53.42c0.226-1.021,0.482-1.983,0.936-2.89c0.247-0.493,0.627-1.001,0.175-1.574
		c-0.475-0.601-0.955-1.185-1.657-1.561c-0.847-0.454-1.637-0.533-2.467,0.044c-0.527,0.366-0.744,0.858-0.552,1.489
		c0.168,0.553,0.521,1.004,0.789,1.502c0,1.039,0.005,2.079-0.002,3.119c-0.004,0.568,0.185,1.053,0.522,1.444
		c0.271,0,0.482,0,0.681,0C45.712,54.475,46.22,53.968,46.768,53.42z M36.312,13.758c-0.656-0.002-0.647,0.02-1.076,0.204
		c-0.546,0.234-0.934,0.681-1.414,1.001c-0.112,0.075-0.189,0.18-0.206,0.345c-0.052,0.519-0.419,0.9-0.607,1.403
		c0,0.262,0,0.574,0,1c1.076,0.182,1.962,1.073,3.171,0.732c0.016-0.052,0.037-0.084,0.034-0.115
		c-0.044-0.512-0.032-1.011-0.17-1.537c-0.188-0.715,0.138-1.472,0.477-2.14C36.693,14.313,36.703,14.072,36.312,13.758z
		 M20.396,34.244c0.455-0.713,1.085-1.366,0.873-2.345c-0.271,0-0.483,0-0.695,0c-0.698,0.495-0.822,1.271-1.01,1.998
		C19.751,34.171,19.958,34.337,20.396,34.244z"/>
	<path style="fill-rule:evenodd;clip-rule:evenodd;fill:none;" d="M46.768,53.42c-0.548,0.548-1.056,1.055-1.575,1.574
		c-0.198,0-0.41,0-0.681,0c-0.338-0.392-0.526-0.876-0.522-1.444c0.007-1.04,0.002-2.08,0.002-3.119
		c-0.268-0.498-0.621-0.949-0.789-1.502c-0.192-0.631,0.024-1.123,0.552-1.489c0.83-0.577,1.62-0.498,2.467-0.044
		c0.702,0.376,1.183,0.96,1.657,1.561c0.452,0.573,0.072,1.081-0.175,1.574C47.25,51.437,46.994,52.398,46.768,53.42z"/>
	<path style="fill-rule:evenodd;clip-rule:evenodd;fill:none;" d="M36.312,13.758c0.391,0.313,0.381,0.555,0.209,0.894
		c-0.339,0.668-0.665,1.425-0.477,2.14c0.139,0.526,0.126,1.025,0.17,1.537c0.003,0.031-0.018,0.063-0.034,0.115
		c-1.209,0.341-2.096-0.551-3.171-0.732c0-0.426,0-0.738,0-1c0.188-0.503,0.556-0.884,0.607-1.403
		c0.017-0.166,0.094-0.271,0.206-0.345c0.48-0.32,0.868-0.768,1.414-1.001C35.665,13.778,35.656,13.756,36.312,13.758z"/>
	<path style="fill-rule:evenodd;clip-rule:evenodd;fill:none;" d="M20.396,34.244c-0.438,0.094-0.645-0.073-0.832-0.348
		c0.188-0.726,0.312-1.503,1.01-1.998c0.212,0,0.424,0,0.695,0C21.481,32.877,20.851,33.531,20.396,34.244z"/>
</g>
</svg>
