<?xml version="1.0" encoding="iso-8859-1"?>
<!-- Generator: Adobe Illustrator 16.0.0, SVG Export Plug-In . SVG Version: 6.00 Build 0)  -->
<!DOCTYPE svg PUBLIC "-//W3C//DTD SVG 1.1//EN" "http://www.w3.org/Graphics/SVG/1.1/DTD/svg11.dtd">
<svg version="1.1" id="Layer_1" xmlns="http://www.w3.org/2000/svg" xmlns:xlink="http://www.w3.org/1999/xlink" x="0px" y="0px"
	 width="72.36px" height="72.18px" viewBox="0 0 72.36 72.18" style="enable-background:new 0 0 72.36 72.18;" xml:space="preserve"
	>
<g>
	
	<path fill="currentColor" d="M10.346,40.478c-0.184-0.184-0.457-0.384-0.63-0.648
		C9.5,39.498,9.366,39.113,9.172,38.7c0.382-0.498,0.266-1.146,0.432-1.734c0.087-0.311,0.402-0.626,0.251-0.974
		C9.616,35.441,9.32,34.916,9,34.286c0-0.535,0.038-1.184-0.008-1.826c-0.073-1.032,0.332-1.725,1.314-2.079
		c0.294,0.159,0.599,0.291,0.858,0.533c0.759,0.708,1.637,1.128,2.691,0.932c0.858-0.241,1.359-0.941,1.987-1.486
		c0.771-0.668,1.708-1.116,2.505-1.735c0.509-0.395,1.064-0.452,1.599-0.588c0.559-0.142,1.119,0.167,1.664,0.367
		c0.759,0.279,1.428,0.671,1.958,1.342c0.564-0.087,1.18,0.193,1.97-0.556c0.31-0.409,0.16-1.431,0.743-2.179
		c0-0.666,0.152-1.396-0.041-2.021c-0.219-0.71-0.102-1.393-0.181-2.082c-0.025-0.216,0.152-0.299,0.25-0.506
		c-0.479-0.453-0.246-0.923,0.111-1.323c0.374-0.419,0.521-0.938,0.79-1.455c-0.01,0.01,0.012-0.031,0.042-0.038
		c0.099-0.021,0.234,0.047,0.289-0.081c0.348-0.813,1.268-1.194,1.563-2.109c-0.332-0.211-0.162-0.655-0.42-0.979
		c-0.147-0.185,0.086-0.574,0.155-0.867c0.288-1.218,1.019-1.992,2.176-2.757c0.059-0.039,0.103-0.1,0.216-0.214
		c-0.042-1.142,0.911-1.729,1.659-2.53c1.111,0.295,1.783-0.348,2.295-1.306c0.84,0.32,1.417-0.542,2.208-0.393
		c0.228,0.188,0.434,0.385,0.32,0.757c0.349,0.259,0.554,0.71,1.046,0.816c0.163,0.376,0.333,0.75,0.268,1.185
		c-0.026,0.176-0.012,0.359-0.003,0.539c0.049,0.978-0.003,1.94-0.435,2.843c-0.2,0.419-0.235,0.858-0.219,1.315
		c0.019,0.502,0.005,1.007,0.005,1.5c0.613,0.842,0.975,1.949,2.284,2.087c0.388,0.345,0.732,0.745,0.748,1.365
		c0.013,0.524,0.411,0.847,0.74,1.205c0.249,0.271,0.717,0.439,0.522,0.941c0.355,0.368,0.766,0.672,0.884,1.171
		c0.163,0.691,0.382,1.389,0.398,2.088c0.009,0.34-0.116,0.795-0.41,1.135c0.213,0.492,0.419,0.938,1.001,1.199
		c0.389,0.173,0.73,0.598,0.938,0.992c0.293,0.554,0.745,0.759,1.315,0.938c0.513-0.292,0.757-0.939,1.394-1.062
		c0.513-0.142,0.979-0.013,1.446,0.276c0.517,0.321,0.538,0.288,1.182,0.305c0.213-0.393,0.67-0.425,0.888-0.624
		c0.447-0.071,0.653,0.358,1.022,0.185c0.758,0.759,1.51,1.53,2.286,2.276c0.219,0.209,0.398,0.443,0.73,0.576
		c0.366,0.147,0.499,0.607,0.562,1.034c0.131,0.885,0.824,2.236,1.437,2.858c0.076,0.077,0.14,0.191,0.231,0.223
		c0.694,0.246,0.938,0.833,1.094,1.394c-0.326,1.852-1.571,2.835-3.209,3.509c-0.762-0.211-1.488-0.633-2.049-1.291
		c-0.385,0.15-0.709,0.306-0.995,0.573c-0.683,0.636-0.894,0.648-1.824,0.28c-0.328-0.553-0.554-1.178-1.336-1.445
		c-1.341,1.026-2.161,2.354-1.979,4.216c0.676,0.408,1.251,0.924,1.691,1.623c0.225,0.356,0.596,0.646,1.014,0.887
		c0.496,0.286,0.91,0.768,1.17,1.424c0,0.3-0.048,0.702,0.01,1.088c0.102,0.678-0.218,1.227-0.558,1.713
		c-0.431,0.615-0.666,1.319-1.063,1.937c-0.162,0.252-0.122,0.48-0.108,0.71c0.058,0.974-0.245,1.769-1.016,2.395
		c-0.361,0.293-0.676,0.647-0.994,0.989c-0.139,0.149-0.306,0.26-0.386,0.486c-0.296,0.833-0.856,1.489-1.554,2.078
		c0.324,0.542,0.52,1.115,0.978,1.568c0.244,0.243,0.427,0.603,0.381,1.025c-0.045,0.424-0.01,0.855-0.01,1.236
		c-0.549,0.695-1.28,0.555-1.979,0.559c-0.887-0.27-1.16-1.07-1.463-1.806c-0.25-0.604-0.567-1.133-0.962-1.66
		c-0.767-1.029-1.431-2.143-1.428-3.504c0-0.108-0.012-0.218,0.002-0.324c0.109-0.826-0.185-1.528-0.556-2.255
		c-0.345-0.676-0.494-1.448-0.745-2.173c-0.195-0.567-0.382-1.138-0.583-1.702c-0.189-0.531-0.445-1.039-0.68-1.554
		c-0.43-0.943-1.483-2.085-2.565-2.76c-0.874,0.238-1.702-0.21-2.546-0.456c-0.266-0.077-0.521-0.157-0.792-0.159
		c-1.079-0.011-2.159-0.005-3.238-0.005c-0.789,0.508-1.214,1.353-1.896,2.068c-0.134,1.239,0.479,2.286,1.159,3.312
		c0.694,1.046,1.664,1.838,2.518,2.736c0.343,0.36,0.962,0.444,1.061,1.055c0,0.431,0,0.86,0,1.287
		c-0.243,0.355-0.595,0.574-1.07,0.772c-0.326,0-0.757,0-1.19,0c-0.458-0.469-0.969-0.884-1.204-1.549
		c-0.173-0.486-0.661-0.721-1.124-0.801c-0.331-0.057-0.496-0.381-0.82-0.286c-0.218-0.424-0.402-0.781-0.644-1.25
		c0.276-1.383-0.423-2.544-1.366-3.649c-0.788-0.165-1.542,0.421-2.489,0.115c-0.054-0.081-0.193-0.29-0.452-0.677
		c0-0.2,0-0.658,0-1.152c-0.347,0-0.663,0-0.949,0c-1.276,0.452-1.306,1.491-1.194,2.602c0.146,0.31,0.231,0.71,0.475,0.955
		c0.315,0.317-0.077,0.82,0.364,1.047c-0.153,0.38,0.281,0.614,0.23,0.99c-0.051,0.388-0.011,0.787-0.011,1.096
		c0.326,0.614,0.615,1.148,1.06,1.604c0.314,0.321,0.274,0.836,0.24,1.162c-0.201,0.462-0.381,0.8-0.785,1.069
		c-0.859,0.183-1.603-0.365-2.433-0.693c0-0.341,0-0.694,0-1.063c-0.297-0.488-0.596-0.974-0.89-1.463
		c-0.466-0.774-0.589-1.563-0.278-2.454c0.137-0.394,0.145-0.851-0.103-1.314c-0.252-0.471-0.297-1.045-0.284-1.613
		c0.013-0.582,0.164-1.189-0.188-1.753c-0.114-0.183,0.134-0.379,0.179-0.558c0.086-0.336,0.025-0.71,0.025-1.009
		c0.292-0.432,0.476-0.837,0.975-1.073c0.484-0.229,0.785-0.76,0.761-1.388c-0.01-0.266-0.036-0.521,0.143-0.807
		c0.162-0.259,0.098-0.648-0.034-1.005c-0.206-0.558-0.247-1.15,0.098-1.696c-0.432-0.729-0.093-1.53-0.241-2.262
		c0.193-0.176,0.368-0.322,0.08-0.75c0.035,0.014-0.165-0.065-0.445-0.176c0.12-0.046,0.042-0.039-0.001,0.004
		c-0.728,0.701-1.435,1.4-2.318,1.946c-0.567,0.35-1.094,0.813-1.669,1.194c-0.649,0.432-1.323,0.735-2.098,0.664
		C12.038,40.23,11.249,40.76,10.346,40.478z M46.768,53.42c0.226-1.021,0.482-1.983,0.936-2.89c0.247-0.493,0.627-1.001,0.175-1.574
		c-0.475-0.601-0.955-1.185-1.657-1.561c-0.847-0.454-1.637-0.533-2.467,0.044c-0.527,0.366-0.744,0.858-0.552,1.489
		c0.168,0.553,0.521,1.004,0.789,1.502c0,1.039,0.005,2.079-0.002,3.119c-0.004,0.568,0.185,1.053,0.522,1.444
		c0.271,0,0.482,0,0.681,0C45.712,54.475,46.22,53.968,46.768,53.42z M36.312,13.758c-0.656-0.002-0.647,0.02-1.076,0.204
		c-0.546,0.234-0.934,0.681-1.414,1.001c-0.112,0.075-0.189,0.18-0.206,0.345c-0.052,0.519-0.419,0.9-0.607,1.403
		c0,0.262,0,0.574,0,1c1.076,0.182,1.962,1.073,3.171,0.732c0.016-0.052,0.037-0.084,0.034-0.115
		c-0.044-0.512-0.032-1.011-0.17-1.537c-0.188-0.715,0.138-1.472,0.477-2.14C36.693,14.313,36.703,14.072,36.312,13.758z
		 M20.396,34.244c0.455-0.713,1.085-1.366,0.873-2.345c-0.271,0-0.483,0-0.695,0c-0.698,0.495-0.822,1.271-1.01,1.998
		C19.751,34.171,19.958,34.337,20.396,34.244z"/>
	
	
	
</g>
</svg>
