<svg xmlns="http://www.w3.org/2000/svg" xml:space="preserve" width="72px" height="72px" viewBox="0 0 72 72">
    <path fill="currentColor" d="M49.818 34.554v1.229c-.188.459-.378.79-.793 1.075-.644-.148-1.303.41-2.191.158-.764-.522-1.813-.851-2.688-1.446-.903-.615-1.922-1.094-2.657-1.991-.617.284-1.078.643-1.457 1.242-.271.426-.568.845-.786 1.303-.331.696-.924 1.143-1.503 1.586-.16.122-.329.246-.481.383-.496.443-.912.964-1.506 1.313a1.73 1.73 0 0 0-.773.962c-.063.198-.122.396-.313.524-.46.076-.869.422-1.403.263-.601.855-1.387 1.532-1.841 2.505-.225.481-.737.901-1.218 1.174-.716.405-1.295.938-1.85 1.517-.34.355-.694.706-1.154.867-.333.117-.525.35-.702.595-.551.767-.851.856-1.673.505-.663-.283-1.337-.508-2.087-.448-.436.035-.808.137-1.113.451-.629.649-1.347 1.146-2.236 1.381-.304.079-.523.313-.757.522-.562.503-1.142.994-1.826 1.322-.47.226-.913.595-1.063.991-.209.554-.682.496-.844.674-.42.182-.139.647-.547.688h-1.174c-.196-.199.013-.47-.089-.651 1.589-1.283 2.898-2.798 4.329-4.186.278-.269.556-.542.912-.67.354-.126.637-.344.811-.63.507-.834 1.283-1.41 1.952-2.165 0-.344.036-.739-.007-1.126-.131-1.174.451-2.056 1.294-2.688.718-.538 1.298-1.193 1.949-1.786.409-.372.751-.823 1.325-.978.123-.033.245-.14.327-.244.554-.695 1.31-.857 1.988-.841.788-.368 1.282-.871 1.678-1.502.238-.379.621-.661 1.046-.841.122-.052.277-.023.366-.16.418-.643 1.191-.81 1.742-1.284.21-.181.569-.229.844-.273.288-.046.568-.164.741-.297.582-.446 1.302-.339 2.058-.72.617-.434 1.017-1.207 1.291-2.086.246-.786.664-1.493 1.348-2.05-.231-.455-.654-.692-.948-1.082.169-.386-.028-.79-.242-1.042-.519-.609-.614-1.288-.603-2.028.008-.489-.282-1.226-.646-1.643v-.862c.517-.314.535-1.035 1.018-1.45a.64.64 0 0 1 .364-.172c.632-.084 1.178-.35 1.557-.902l1.307.672.359-1.229.978-.924c.04-.576.403-1.037.215-1.598.613-.388.76-1.256 1.505-1.392l1.103 1.103v.754l-.381.266v.65c.13-.005.283.028.315-.02.413-.62.95-1.126 1.443-1.675.183-.202.403-.471.37-.812-.093-.964.502-1.704.981-2.39.51-.728 1.105-1.416 1.643-2.138.085-.114.182-.22.24-.29.791-.032 1.185.489 1.65.947v.909c-.902.771-1.352 1.796-1.696 2.875-.049.152-.174.22-.22.342-.279.748-.707 1.435-.89 2.177l-.985.484A2.67 2.67 0 0 1 47 19.557c.061.277.206.255.396.23.032-.729.793-.977 1.079-1.559s.93-.805 1.243-1.406c.479-.919 1.209-1.719 1.547-2.708.168-.492.547-.606.876-.768.343-.168.743.002 1.051.312.178.383.468.776.127 1.353-.205.347-.038.914-.064 1.364-.215.919-1.036 1.43-1.462 2.219v.904c.525.579 1.257.698 1.9.955v.741c-.298.275-.51.656-.677 1.109a1.6 1.6 0 0 0-.811.674c-.064.333.086.55.338.707.174.042.255-.089.373-.161.48-.292 1.205-.909 1.499-1.289.243-.313.662-.371.941-.569.729-.517 1.592-.885 2.091-1.622.554-.138.996.111 1.422.298.387.17.515.621.695 1.042-.148.504-.354.964-.915 1.241-.479.237-.783.768-1.374.864-.115.019-.281.183-.295.295-.069.596-.858.72-.903 1.345.408.227.548-.301.861-.237.48-.565 1.264-.631 1.818-1.117.289-.252.832-.231 1.267-.293.282-.04.575-.007.902-.007.238.25.634.42.55.986-.469.284-.604.948-1.092 1.285-.437.3-.948.49-1.499.765.097.377-.118.727.143 1.113.227.335.014.765.109 1.125-.19.146-.313.287-.537.362-.47.157-.931.385-1.34.665-.421.287-.91.434-1.304.802-.289.271-.79.422-1.202.434-.859.025-1.412.625-2.081.986-.39.211-.467.723-.53 1.203-.55.188-.9.638-1.313 1.04-.343-.031-.622.195-1.011.314m-1.619-7.413c.392-.389.946-.51 1.309-1.017.321-.45.994-.646 1.141-1.38-1.444-.016-1.947 1.214-2.782 1.894.032.3.238.357.332.503m2.327-7.506c-.377.404-.874.747-.911 1.385.514.215.892-.032 1.277-.235.014-.421.442-.674.445-1.15zm-2.216 9.784c.008-.144.031-.288-.233-.347-.198.124-.472.234-.391.649zm.752-8.139c-.096.239-.484.281-.204.711.096-.239.484-.28.204-.711M33.511 37.497c-.133.199-.199.338.04.42.106-.134.114-.253-.04-.42"/>
</svg>
