<svg xmlns="http://www.w3.org/2000/svg" xml:space="preserve" width="72px" height="72px" viewBox="0 0 72 72">
    <path fill="currentColor" d="m46.26 48.527-.628-.627c-.085-.007-.188-.02-.292-.02-.539-.003-1.084-.048-1.617.011-.611.066-1.13-.345-1.75-.24-.587.098-1.136-.1-1.694-.323a4.2 4.2 0 0 0-1.598-.293c-.905.021-1.81-.135-2.73.156-.473.148-1.113.226-1.635-.163-.116-.087-.35-.013-.568-.013-.595.46-.813 1.297-1.651 1.722-.368-.021-.697-.392-1.016-.679l-1.376 1.379c-.499-.094-.642-.472-.923-.666h-.531v.826c-.256.519-.718.677-1.179.896-.302-.324-.659-.577-1.103-.678-.31.446-.424.936-.298 1.492h-1.424c-.35.45-.834.753-1.383.971a2 2 0 0 0-.757.524c-1.169 1.293-1.813 1.429-3.123 1.347-.985.124-.951 1.345-1.875 1.46-.369-.032-.815.242-1.112-.19-1.209.521-2.03.285-2.676-.739 0-.781.003-1.572-.002-2.363-.002-.251.104-.451.189-.678.171-.451.676-.705.677-1.232.001-.501.404-.771.63-1.146.235-.392.255-.916.504-1.294.266-.404.574-.745.624-1.268.012-.129.131-.384.275-.522 1.005-.965 1.528-2.224 2.144-3.432.213-.418.402-.849.732-1.22.225-.254.407-.651.231-1.113l.635-.522c.184-.706-.184-1.342.271-1.879.018-.021.007-.07.001-.105-.06-.404-.352-.785-.205-1.203.127-.363.314-.73.194-1.098-.301-.929-.104-1.963-.706-2.844-.287-.42-.259-1.021-.566-1.49-.241-.369-.43-.726-.945-.671-.358.667-.358.667-.395 1.694-.711.213-1.002-.666-1.606-.627-.336-.407-.308-.91-.41-1.372-.082-.145.068-.247.122-.398.213-.604.607-1.052 1.296-1.154.655-.097 1.093-.646 1.707-.827v-.446c-.135-.23-.531.015-.536-.364-.525.263-.972.464-1.391-.058v-1.093c.676-.885 1.687-.746 2.653-.754.383.403.878.131 1.349.243.351-.72.442-1.398.118-2.177-.145-.346-.322-.742-.27-1.196.048-.418-.277-.754-.604-1.06v-.871c-.312-.21-.466-.56-.67-.955.115-.807-.385-1.648-.208-2.529.194-.966.104-1.987.54-2.906.176-.371.028-.827.317-1.164.224-.26.317-.601.591-.839.557-.486.818-1.239 1.544-1.663h.589c.081.088.212.178.267.302.054.122.031.277.047.492l-.662.547v1.126c-.67.524-.953 1.29-.846 2.158.044.361-.267.564-.241.868.08.112.179.133.311.112.525-.958 1.077-1.917 2.305-2.368h1.385c.201.201.473.37.295.741-.156.315-.547.466-.661.891-.065.241-.346.498-.592.602-.804.341-1.158 1.054-1.482 1.757-.125.273-.324.44-.469.66v1.082l.105-.1.243.438c.129-.046.208-.051.252-.093.861-.842 1.666-1.745 2.513-2.271.293-.342.491-.19.737-.321.387-.263.648-.771.985-1.212.381-.5.372-1.14.558-1.711.042-.129-.011-.318.064-.401.581-.636.705-1.526 1.274-2.183.5-.577.75-1.307.621-1.964.236-.725.748-1.069 1.146-1.504.399-.082.635.022.804.443.216.536.182 1.083.2 1.61.385.148.708.331 1.001.334.686.613.459 1.358.519 2.023l.278.278h.924c.733.304 1.194.771 1.842.688.846-.457.987-1.388 1.482-2.069-.121-.492.291-.68.544-.956h.658c.618 1.005.136 2.141.369 3.252.579-.057.732-.641 1.18-.881h1.253c.458-.493.928-.969 1.623-.866l.654.546c-.235.983-.391 1.236-1.302 2.146v.427c.33.434.736.817 1.283.979.396.118.552.498.896.693.411.233.84.412 1.263.613.394.188.657.584 1.133.661.218.035.451.176.609.336.61.618 1.447.517 2.097.771.793-.373.808-1.156 1.158-1.738h.965c.25.223.544.38.923.418.359-.094.5-.473.825-.666h1.905l.407-.407h.522c.76.195.251.837.638 1.111-.19.414-.12.971-.656 1.223l-.71.032-1.173 1.173c-.017.569.069 1.154-.354 1.678-.22.271-.104.695-.068 1.039.075.739.141 1.497.688 2.086.049.053.152.112.146.151-.159.849.504 1.331.904 1.891.421.59.613 1.266.912 1.897.232.49.489.953.799 1.455-.057.557.024 1.127.521 1.56.507.098.818-.264 1.192-.442v-1.138c.439-.43.73-.912.665-1.563a6.4 6.4 0 0 1-.002-1.079c.033-.46-.024-.897-.255-1.267l.329-.766c.576.066 1.21-.173 1.839.366.193.507.549 1.111.455 1.825-.089.685-.274 1.357-.253 2.058.002.076-.124.156-.2.246.314.437.195.997.456 1.441-.292.478-.197 1.011-.221 1.563-.871.41-1.127 1.367-1.729 2.034-.248.274-.203.578-.212.946.672.728 1.859 1.1 1.974 2.354-.521.511-1.049.772-1.754.363-.159-.091-.36-.193-.393-.316-.165-.639-.727-.758-1.177-1.045-1.154.423-1.809 1.276-2.312 2.415-.083.744-.066 1.572.756 2.155.434-.346.495-.914.86-1.436.274-.14.641-.433 1.157-.213.357.525.593 1.009.309 1.77-.236.631-.06 1.416-.068 2.134-.005.448-.027.878-.185 1.324-.105.298-.415.423-.449.676-.129.966-.962 1.605-1.121 2.568-.082.496-.551.86-.862 1.247-.559.694-1.146 1.394-2.057 1.736-.324.122-.585.124-.862.106-.448-.291-.248-.722-.299-1.11.502-.73 1.438-1.002 1.916-1.802v-.94c-.494.003-.699.387-.924.654-.83.989-.813 1.003-1.664 1.429-.539.49-.235 1.517-1.181 1.741-.852-.192-1.096-1.104-1.652-1.622-.372-.13-.716.05-1.066-.163-.657-.401-1.546-.4-1.976-1.21-.501.216-.868-.252-1.331-.175m1.948-11.62c-.855-.197-1.778-.179-2.423-.941-.199-.235-.504-.337-.803-.392-.14-.025-.267-.022-.375-.142-.374-.415-.85-.577-1.401-.511-.164.02-.248-.135-.362-.163-.856-.21-1.669-.629-2.602-.502-.312.042-.584.457-.864.214-.362-.314-.739-.17-1.109-.193-.43-.027-.861-.006-1.282-.006-.163.147-.297.358-.481.42-.776.259-1.4.719-1.927 1.328-.125.144-.284.158-.454.209-.62.188-.655.449-.179 1.067.494 0 1 .041 1.495-.014.389-.043.713.125.942.323.425.369.953.498 1.352.803.548-.292.552-.302.884-.112.552.314 1.099.637 1.668.967.86-.168 1.616.107 2.318.625h3.001c.842-.931 2.025-1.424 2.919-2.281.028-.258.025-.504-.317-.699m-21.6-3.72c.71-.604.442-1.604.903-2.23-.298-.889-.691-1.705-.817-2.632-.832-.848-.953-.916-1.937-1.053-.301-.479-.256-1.088-.494-1.605-.538-.187-.73.26-1.022.544v1.287c-.203.545-.78.871-.857 1.551.256.569.575 1.142 1.059 1.657.851.906 1.952 1.525 2.701 2.482zm28.403 10.402c-.011.321-.038.558.209.731.231.161.436.159.652.002-.095-.688-.095-.688-.861-.733"/>
</svg>
