<?xml version="1.0" encoding="iso-8859-1"?>
<!-- Generator: Adobe Illustrator 16.0.0, SVG Export Plug-In . SVG Version: 6.00 Build 0)  -->
<!DOCTYPE svg PUBLIC "-//W3C//DTD SVG 1.1//EN" "http://www.w3.org/Graphics/SVG/1.1/DTD/svg11.dtd">
<svg version="1.1" id="Layer_1" xmlns="http://www.w3.org/2000/svg" xmlns:xlink="http://www.w3.org/1999/xlink" x="0px" y="0px"
	 width="72.36px" height="72.18px" viewBox="0 0 72.36 72.18" style="enable-background:new 0 0 72.36 72.18;" xml:space="preserve"
	>
<g>
	<path style="fill-rule:evenodd;clip-rule:evenodd;fill:none;" d="M-6.984,79.631c0-28.871,0-57.743,0-86.615
		c28.8,0,57.6,0,86.399,0c0,28.872,0,57.744,0,86.615C50.616,79.631,21.816,79.631-6.984,79.631z M46.26,48.527
		c0.463-0.077,0.83,0.391,1.333,0.178c0.43,0.81,1.318,0.809,1.976,1.21c0.351,0.213,0.694,0.033,1.066,0.163
		c0.557,0.519,0.801,1.43,1.652,1.622c0.945-0.225,0.642-1.251,1.181-1.741c0.851-0.426,0.834-0.439,1.664-1.429
		c0.225-0.268,0.43-0.651,0.924-0.654c0,0.36,0,0.674,0,0.94c-0.478,0.8-1.414,1.071-1.916,1.802
		c0.051,0.389-0.149,0.819,0.299,1.11c0.277,0.018,0.538,0.016,0.862-0.106c0.911-0.343,1.498-1.042,2.057-1.736
		c0.312-0.387,0.78-0.751,0.862-1.247c0.159-0.963,0.992-1.603,1.121-2.568c0.034-0.253,0.344-0.378,0.449-0.676
		c0.157-0.446,0.18-0.876,0.185-1.324c0.009-0.718-0.168-1.503,0.068-2.134c0.284-0.761,0.049-1.244-0.309-1.77
		c-0.517-0.22-0.883,0.073-1.157,0.213c-0.365,0.521-0.427,1.09-0.86,1.436c-0.822-0.583-0.839-1.411-0.756-2.155
		c0.503-1.139,1.157-1.992,2.312-2.415c0.45,0.287,1.012,0.406,1.177,1.045c0.032,0.123,0.233,0.226,0.393,0.316
		c0.705,0.409,1.232,0.147,1.754-0.363c-0.114-1.254-1.302-1.625-1.974-2.354c0.009-0.368-0.036-0.672,0.212-0.946
		c0.602-0.667,0.857-1.624,1.729-2.034c0.023-0.552-0.071-1.086,0.221-1.563c-0.261-0.445-0.142-1.004-0.456-1.441
		c0.076-0.09,0.202-0.17,0.2-0.246c-0.021-0.701,0.164-1.373,0.253-2.058c0.094-0.714-0.262-1.318-0.455-1.825
		c-0.629-0.539-1.263-0.3-1.839-0.366c-0.123,0.286-0.215,0.5-0.329,0.766c0.23,0.37,0.288,0.807,0.255,1.267
		c-0.025,0.358-0.034,0.722,0.002,1.079c0.065,0.65-0.226,1.133-0.665,1.563c0,0.362,0,0.719,0,1.138
		c-0.374,0.178-0.686,0.54-1.191,0.441c-0.498-0.432-0.579-1.002-0.522-1.56c-0.31-0.501-0.566-0.965-0.799-1.455
		c-0.299-0.631-0.491-1.307-0.912-1.897c-0.4-0.561-1.063-1.042-0.904-1.891c0.007-0.04-0.097-0.099-0.146-0.151
		c-0.547-0.59-0.612-1.347-0.688-2.086c-0.035-0.344-0.151-0.768,0.068-1.039c0.423-0.524,0.337-1.109,0.354-1.678
		c0.394-0.394,0.775-0.776,1.173-1.173c0.226-0.01,0.468-0.021,0.71-0.032c0.536-0.251,0.466-0.809,0.656-1.223
		c-0.387-0.273,0.122-0.916-0.638-1.111c-0.064,0-0.306,0-0.522,0c-0.151,0.151-0.279,0.278-0.407,0.407c-0.646,0-1.294,0-1.905,0
		c-0.325,0.193-0.466,0.572-0.825,0.666c-0.379-0.038-0.673-0.195-0.923-0.418c-0.32,0-0.634,0-0.965,0
		c-0.351,0.582-0.365,1.365-1.158,1.738c-0.649-0.254-1.486-0.153-2.097-0.771c-0.158-0.16-0.392-0.301-0.609-0.336
		c-0.476-0.077-0.739-0.474-1.133-0.661c-0.423-0.201-0.852-0.38-1.263-0.613c-0.345-0.195-0.501-0.576-0.896-0.693
		c-0.547-0.162-0.953-0.545-1.283-0.979c0-0.157,0-0.298,0-0.427c0.911-0.91,1.066-1.163,1.302-2.146
		c-0.186-0.154-0.399-0.333-0.654-0.546c-0.695-0.104-1.165,0.373-1.623,0.866c-0.435,0-0.865,0-1.253,0
		c-0.447,0.24-0.601,0.824-1.18,0.881c-0.233-1.111,0.249-2.247-0.369-3.252c-0.226,0-0.44,0-0.658,0
		c-0.253,0.276-0.665,0.464-0.544,0.956c-0.495,0.682-0.637,1.612-1.482,2.069c-0.648,0.082-1.109-0.384-1.842-0.688
		c-0.193,0-0.578,0-0.924,0c-0.114-0.114-0.19-0.19-0.278-0.278c-0.059-0.665,0.167-1.41-0.519-2.023
		c-0.293-0.003-0.616-0.186-1.001-0.334c-0.018-0.527,0.016-1.074-0.2-1.61c-0.169-0.421-0.405-0.525-0.804-0.443
		c-0.398,0.435-0.909,0.779-1.146,1.504c0.129,0.658-0.12,1.387-0.621,1.964c-0.569,0.657-0.693,1.547-1.274,2.183
		c-0.076,0.083-0.022,0.272-0.064,0.401c-0.186,0.571-0.176,1.21-0.558,1.711c-0.336,0.442-0.598,0.95-0.985,1.212
		c-0.246,0.131-0.443-0.021-0.737,0.321c-0.847,0.525-1.652,1.428-2.513,2.271c-0.043,0.042-0.123,0.047-0.252,0.093
		c-0.07-0.126-0.156-0.283-0.243-0.438c-0.035,0.033-0.07,0.066-0.105,0.1c0-0.358,0-0.717,0-1.082
		c0.145-0.22,0.343-0.387,0.469-0.66c0.324-0.703,0.678-1.416,1.482-1.757c0.246-0.104,0.527-0.361,0.592-0.602
		c0.114-0.425,0.505-0.575,0.661-0.891c0.178-0.371-0.094-0.541-0.295-0.741c-0.503,0-1.007,0-1.385,0
		c-1.228,0.45-1.78,1.41-2.305,2.368c-0.132,0.021-0.231,0-0.311-0.112c-0.026-0.304,0.286-0.507,0.241-0.868
		c-0.107-0.869,0.175-1.634,0.846-2.158c0-0.396,0-0.72,0-1.126c0.202-0.167,0.448-0.37,0.662-0.547
		c-0.017-0.215,0.006-0.371-0.047-0.492c-0.055-0.124-0.186-0.214-0.267-0.302c-0.246,0-0.461,0-0.589,0
		c-0.726,0.423-0.987,1.176-1.544,1.663c-0.273,0.239-0.367,0.58-0.591,0.839c-0.289,0.337-0.141,0.793-0.317,1.164
		c-0.436,0.919-0.346,1.939-0.54,2.906c-0.177,0.881,0.323,1.723,0.208,2.529c0.204,0.395,0.358,0.745,0.67,0.955
		c0,0.326,0,0.608,0,0.871c0.328,0.306,0.653,0.642,0.604,1.06c-0.053,0.455,0.125,0.85,0.27,1.196
		c0.324,0.779,0.233,1.457-0.118,2.177c-0.471-0.112-0.965,0.16-1.349-0.243c-0.966,0.008-1.977-0.131-2.653,0.754
		c0,0.4,0,0.756,0,1.093c0.419,0.522,0.866,0.321,1.391,0.058c0.004,0.379,0.401,0.134,0.536,0.364c0,0.149,0,0.292,0,0.446
		c-0.614,0.181-1.051,0.73-1.707,0.827c-0.689,0.102-1.083,0.55-1.296,1.154c-0.053,0.151-0.204,0.253-0.122,0.398
		c0.102,0.462,0.074,0.965,0.41,1.372c0.604-0.039,0.895,0.84,1.606,0.627c0.037-1.027,0.037-1.027,0.395-1.694
		c0.515-0.054,0.704,0.303,0.945,0.671c0.307,0.469,0.279,1.07,0.566,1.49c0.601,0.88,0.404,1.915,0.706,2.844
		c0.12,0.368-0.067,0.735-0.194,1.098c-0.146,0.418,0.145,0.799,0.205,1.203c0.005,0.035,0.016,0.085-0.001,0.105
		c-0.454,0.537-0.086,1.173-0.271,1.879c-0.144,0.119-0.391,0.322-0.635,0.522c0.176,0.462-0.006,0.859-0.231,1.113
		c-0.33,0.371-0.52,0.802-0.732,1.22c-0.615,1.208-1.139,2.467-2.144,3.432c-0.144,0.139-0.263,0.394-0.275,0.522
		c-0.049,0.522-0.357,0.863-0.624,1.268c-0.249,0.378-0.269,0.902-0.504,1.294c-0.226,0.375-0.629,0.645-0.63,1.146
		c0,0.527-0.505,0.781-0.677,1.232c-0.086,0.227-0.191,0.427-0.189,0.678c0.006,0.791,0.002,1.582,0.002,2.363
		c0.646,1.024,1.467,1.26,2.676,0.739c0.296,0.433,0.743,0.158,1.112,0.19c0.924-0.115,0.89-1.336,1.875-1.46
		c1.31,0.082,1.954-0.054,3.123-1.347c0.216-0.239,0.473-0.411,0.757-0.524c0.549-0.218,1.034-0.521,1.383-0.971
		c0.486,0,0.911,0,1.424,0c-0.126-0.557-0.012-1.046,0.298-1.492c0.444,0.101,0.801,0.354,1.103,0.678
		c0.461-0.219,0.923-0.377,1.179-0.896c0-0.236,0-0.518,0-0.826c0.194,0,0.364,0,0.531,0c0.281,0.194,0.425,0.572,0.923,0.666
		c0.423-0.424,0.874-0.875,1.376-1.379c0.319,0.287,0.648,0.657,1.016,0.679c0.838-0.425,1.056-1.262,1.651-1.722
		c0.218,0,0.453-0.074,0.568,0.013c0.522,0.389,1.162,0.312,1.635,0.163c0.921-0.291,1.825-0.136,2.73-0.156
		c0.533-0.012,1.103,0.095,1.598,0.293c0.559,0.224,1.107,0.421,1.694,0.323c0.62-0.104,1.139,0.307,1.75,0.24
		c0.533-0.059,1.078-0.014,1.617-0.011c0.104,0,0.207,0.013,0.292,0.02C45.853,48.12,46.056,48.324,46.26,48.527z"/>
	<path fill="currentColor" d="M46.26,48.527c-0.204-0.203-0.407-0.407-0.628-0.627
		c-0.085-0.007-0.188-0.02-0.292-0.02c-0.539-0.003-1.084-0.048-1.617,0.011c-0.611,0.066-1.13-0.345-1.75-0.24
		c-0.587,0.098-1.136-0.1-1.694-0.323c-0.495-0.198-1.064-0.305-1.598-0.293c-0.905,0.021-1.81-0.135-2.73,0.156
		c-0.473,0.148-1.113,0.226-1.635-0.163c-0.116-0.087-0.35-0.013-0.568-0.013c-0.595,0.46-0.813,1.297-1.651,1.722
		c-0.368-0.021-0.697-0.392-1.016-0.679c-0.503,0.504-0.954,0.955-1.376,1.379c-0.499-0.094-0.642-0.472-0.923-0.666
		c-0.167,0-0.337,0-0.531,0c0,0.309,0,0.59,0,0.826c-0.256,0.519-0.718,0.677-1.179,0.896c-0.302-0.324-0.659-0.577-1.103-0.678
		c-0.31,0.446-0.424,0.936-0.298,1.492c-0.513,0-0.938,0-1.424,0c-0.35,0.45-0.834,0.753-1.383,0.971
		c-0.284,0.113-0.541,0.285-0.757,0.524c-1.169,1.293-1.813,1.429-3.123,1.347c-0.985,0.124-0.951,1.345-1.875,1.46
		c-0.369-0.032-0.815,0.242-1.112-0.19c-1.209,0.521-2.03,0.285-2.676-0.739c0-0.781,0.003-1.572-0.002-2.363
		c-0.002-0.251,0.104-0.451,0.189-0.678c0.171-0.451,0.676-0.705,0.677-1.232c0.001-0.501,0.404-0.771,0.63-1.146
		c0.235-0.392,0.255-0.916,0.504-1.294c0.266-0.404,0.574-0.745,0.624-1.268c0.012-0.129,0.131-0.384,0.275-0.522
		c1.005-0.965,1.528-2.224,2.144-3.432c0.213-0.418,0.402-0.849,0.732-1.22c0.225-0.254,0.407-0.651,0.231-1.113
		c0.244-0.2,0.491-0.403,0.635-0.522c0.184-0.706-0.184-1.342,0.271-1.879c0.018-0.021,0.007-0.07,0.001-0.105
		c-0.06-0.404-0.352-0.785-0.205-1.203c0.127-0.363,0.314-0.73,0.194-1.098c-0.301-0.929-0.104-1.963-0.706-2.844
		c-0.287-0.42-0.259-1.021-0.566-1.49c-0.241-0.369-0.43-0.726-0.945-0.671c-0.358,0.667-0.358,0.667-0.395,1.694
		c-0.711,0.213-1.002-0.666-1.606-0.627c-0.336-0.407-0.308-0.91-0.41-1.372c-0.082-0.145,0.068-0.247,0.122-0.398
		c0.213-0.604,0.607-1.052,1.296-1.154c0.655-0.097,1.093-0.646,1.707-0.827c0-0.154,0-0.297,0-0.446
		c-0.135-0.23-0.531,0.015-0.536-0.364c-0.525,0.263-0.972,0.464-1.391-0.058c0-0.337,0-0.693,0-1.093
		c0.676-0.885,1.687-0.746,2.653-0.754c0.383,0.403,0.878,0.131,1.349,0.243c0.351-0.72,0.442-1.398,0.118-2.177
		c-0.145-0.346-0.322-0.742-0.27-1.196c0.048-0.418-0.277-0.754-0.604-1.06c0-0.263,0-0.545,0-0.871
		c-0.312-0.21-0.466-0.56-0.67-0.955c0.115-0.807-0.385-1.648-0.208-2.529c0.194-0.966,0.104-1.987,0.54-2.906
		c0.176-0.371,0.028-0.827,0.317-1.164c0.224-0.26,0.317-0.601,0.591-0.839c0.557-0.486,0.818-1.239,1.544-1.663
		c0.127,0,0.343,0,0.589,0c0.081,0.088,0.212,0.178,0.267,0.302c0.054,0.122,0.031,0.277,0.047,0.492
		c-0.214,0.177-0.46,0.38-0.662,0.547c0,0.406,0,0.73,0,1.126c-0.67,0.524-0.953,1.29-0.846,2.158
		c0.044,0.361-0.267,0.564-0.241,0.868c0.08,0.112,0.179,0.133,0.311,0.112c0.525-0.958,1.077-1.917,2.305-2.368
		c0.377,0,0.881,0,1.385,0c0.201,0.201,0.473,0.37,0.295,0.741c-0.156,0.315-0.547,0.466-0.661,0.891
		c-0.065,0.241-0.346,0.498-0.592,0.602c-0.804,0.341-1.158,1.054-1.482,1.757c-0.125,0.273-0.324,0.44-0.469,0.66
		c0,0.365,0,0.724,0,1.082c0.035-0.033,0.07-0.066,0.105-0.1c0.086,0.156,0.172,0.312,0.243,0.438
		c0.129-0.046,0.208-0.051,0.252-0.093c0.861-0.842,1.666-1.745,2.513-2.271c0.293-0.342,0.491-0.19,0.737-0.321
		c0.387-0.263,0.648-0.771,0.985-1.212c0.381-0.5,0.372-1.14,0.558-1.711c0.042-0.129-0.011-0.318,0.064-0.401
		c0.581-0.636,0.705-1.526,1.274-2.183c0.5-0.577,0.75-1.307,0.621-1.964c0.236-0.725,0.748-1.069,1.146-1.504
		c0.399-0.082,0.635,0.022,0.804,0.443c0.216,0.536,0.182,1.083,0.2,1.61c0.385,0.148,0.708,0.331,1.001,0.334
		c0.686,0.613,0.459,1.358,0.519,2.023c0.087,0.087,0.164,0.164,0.278,0.278c0.346,0,0.731,0,0.924,0
		c0.733,0.304,1.194,0.771,1.842,0.688c0.846-0.457,0.987-1.388,1.482-2.069c-0.121-0.492,0.291-0.68,0.544-0.956
		c0.218,0,0.433,0,0.658,0c0.618,1.005,0.136,2.141,0.369,3.252c0.579-0.057,0.732-0.641,1.18-0.881c0.388,0,0.818,0,1.253,0
		c0.458-0.493,0.928-0.969,1.623-0.866c0.255,0.213,0.469,0.392,0.654,0.546c-0.235,0.983-0.391,1.236-1.302,2.146
		c0,0.129,0,0.27,0,0.427c0.33,0.434,0.736,0.817,1.283,0.979c0.396,0.118,0.552,0.498,0.896,0.693
		c0.411,0.233,0.84,0.412,1.263,0.613c0.394,0.188,0.657,0.584,1.133,0.661c0.218,0.035,0.451,0.176,0.609,0.336
		c0.61,0.618,1.447,0.517,2.097,0.771c0.793-0.373,0.808-1.156,1.158-1.738c0.331,0,0.645,0,0.965,0
		c0.25,0.223,0.544,0.38,0.923,0.418c0.359-0.094,0.5-0.473,0.825-0.666c0.611,0,1.259,0,1.905,0
		c0.128-0.128,0.256-0.255,0.407-0.407c0.217,0,0.458,0,0.522,0c0.76,0.195,0.251,0.837,0.638,1.111
		c-0.19,0.414-0.12,0.971-0.656,1.223c-0.242,0.011-0.484,0.022-0.71,0.032c-0.397,0.397-0.779,0.779-1.173,1.173
		c-0.017,0.569,0.069,1.154-0.354,1.678c-0.22,0.271-0.104,0.695-0.068,1.039c0.075,0.739,0.141,1.497,0.688,2.086
		c0.049,0.053,0.152,0.112,0.146,0.151c-0.159,0.849,0.504,1.331,0.904,1.891c0.421,0.59,0.613,1.266,0.912,1.897
		c0.232,0.49,0.489,0.953,0.799,1.455c-0.057,0.557,0.024,1.127,0.521,1.56c0.507,0.098,0.818-0.264,1.192-0.442
		c0-0.419,0-0.776,0-1.138c0.439-0.43,0.73-0.912,0.665-1.563c-0.036-0.356-0.027-0.721-0.002-1.079
		c0.033-0.46-0.024-0.897-0.255-1.267c0.114-0.266,0.206-0.48,0.329-0.766c0.576,0.066,1.21-0.173,1.839,0.366
		c0.193,0.507,0.549,1.111,0.455,1.825c-0.089,0.685-0.274,1.357-0.253,2.058c0.002,0.076-0.124,0.156-0.2,0.246
		c0.314,0.437,0.195,0.997,0.456,1.441c-0.292,0.478-0.197,1.011-0.221,1.563c-0.871,0.41-1.127,1.367-1.729,2.034
		c-0.248,0.274-0.203,0.578-0.212,0.946c0.672,0.728,1.859,1.1,1.974,2.354c-0.521,0.511-1.049,0.772-1.754,0.363
		c-0.159-0.091-0.36-0.193-0.393-0.316c-0.165-0.639-0.727-0.758-1.177-1.045c-1.154,0.423-1.809,1.276-2.312,2.415
		c-0.083,0.744-0.066,1.572,0.756,2.155c0.434-0.346,0.495-0.914,0.86-1.436c0.274-0.14,0.641-0.433,1.157-0.213
		c0.357,0.525,0.593,1.009,0.309,1.77c-0.236,0.631-0.06,1.416-0.068,2.134c-0.005,0.448-0.027,0.878-0.185,1.324
		c-0.105,0.298-0.415,0.423-0.449,0.676c-0.129,0.966-0.962,1.605-1.121,2.568c-0.082,0.496-0.551,0.86-0.862,1.247
		c-0.559,0.694-1.146,1.394-2.057,1.736c-0.324,0.122-0.585,0.124-0.862,0.106c-0.448-0.291-0.248-0.722-0.299-1.11
		c0.502-0.73,1.438-1.002,1.916-1.802c0-0.267,0-0.58,0-0.94c-0.494,0.003-0.699,0.387-0.924,0.654
		c-0.83,0.989-0.813,1.003-1.664,1.429c-0.539,0.49-0.235,1.517-1.181,1.741c-0.852-0.192-1.096-1.104-1.652-1.622
		c-0.372-0.13-0.716,0.05-1.066-0.163c-0.657-0.401-1.546-0.4-1.976-1.21C47.09,48.918,46.723,48.45,46.26,48.527z M48.208,36.907
		c-0.855-0.197-1.778-0.179-2.423-0.941c-0.199-0.235-0.504-0.337-0.803-0.392c-0.14-0.025-0.267-0.022-0.375-0.142
		c-0.374-0.415-0.85-0.577-1.401-0.511c-0.164,0.02-0.248-0.135-0.362-0.163c-0.856-0.21-1.669-0.629-2.602-0.502
		c-0.312,0.042-0.584,0.457-0.864,0.214c-0.362-0.314-0.739-0.17-1.109-0.193c-0.43-0.027-0.861-0.006-1.282-0.006
		c-0.163,0.147-0.297,0.358-0.481,0.42c-0.776,0.259-1.4,0.719-1.927,1.328c-0.125,0.144-0.284,0.158-0.454,0.209
		c-0.62,0.188-0.655,0.449-0.179,1.067c0.494,0,1,0.041,1.495-0.014c0.389-0.043,0.713,0.125,0.942,0.323
		c0.425,0.369,0.953,0.498,1.352,0.803c0.548-0.292,0.552-0.302,0.884-0.112c0.552,0.314,1.099,0.637,1.668,0.967
		c0.86-0.168,1.616,0.107,2.318,0.625c0.99,0,1.996,0,3.001,0c0.842-0.931,2.025-1.424,2.919-2.281
		C48.553,37.348,48.55,37.102,48.208,36.907z M26.608,33.187c0.71-0.604,0.442-1.604,0.903-2.23
		c-0.298-0.889-0.691-1.705-0.817-2.632c-0.832-0.848-0.953-0.916-1.937-1.053c-0.301-0.479-0.256-1.088-0.494-1.605
		c-0.538-0.187-0.73,0.26-1.022,0.544c0,0.434,0,0.86,0,1.287c-0.203,0.545-0.78,0.871-0.857,1.551
		c0.256,0.569,0.575,1.142,1.059,1.657c0.851,0.906,1.952,1.525,2.701,2.482C26.329,33.187,26.472,33.187,26.608,33.187z
		 M55.011,43.589C55,43.91,54.973,44.147,55.22,44.32c0.231,0.161,0.436,0.159,0.652,0.002
		C55.777,43.634,55.777,43.634,55.011,43.589z"/>
	<path style="fill-rule:evenodd;clip-rule:evenodd;fill:none;" d="M48.208,36.907c0.342,0.194,0.345,0.44,0.316,0.699
		c-0.894,0.857-2.077,1.351-2.919,2.281c-1.005,0-2.011,0-3.001,0c-0.702-0.518-1.458-0.793-2.318-0.625
		c-0.569-0.33-1.116-0.652-1.668-0.967c-0.332-0.189-0.336-0.18-0.884,0.112c-0.399-0.305-0.927-0.434-1.352-0.803
		c-0.229-0.198-0.553-0.366-0.942-0.323c-0.495,0.055-1.001,0.014-1.495,0.014c-0.476-0.618-0.441-0.879,0.179-1.067
		c0.17-0.052,0.33-0.065,0.454-0.209c0.527-0.609,1.151-1.069,1.927-1.328c0.184-0.062,0.318-0.272,0.481-0.42
		c0.42,0,0.852-0.021,1.282,0.006c0.37,0.023,0.747-0.121,1.109,0.193c0.28,0.243,0.553-0.172,0.864-0.214
		c0.933-0.127,1.745,0.292,2.602,0.502c0.114,0.028,0.198,0.182,0.362,0.163c0.552-0.066,1.027,0.096,1.401,0.511
		c0.108,0.12,0.235,0.117,0.375,0.142c0.299,0.055,0.604,0.157,0.803,0.392C46.43,36.728,47.353,36.71,48.208,36.907z"/>
	<path style="fill-rule:evenodd;clip-rule:evenodd;fill:none;" d="M26.608,33.187c-0.136,0-0.279,0-0.464,0
		c-0.75-0.957-1.851-1.576-2.701-2.482c-0.484-0.515-0.803-1.087-1.059-1.657c0.078-0.68,0.655-1.006,0.857-1.551
		c0-0.426,0-0.853,0-1.287c0.292-0.284,0.484-0.73,1.022-0.544c0.237,0.517,0.192,1.126,0.494,1.605
		c0.984,0.137,1.105,0.205,1.937,1.053c0.126,0.927,0.52,1.743,0.817,2.632C27.05,31.583,27.318,32.583,26.608,33.187z"/>
	<path style="fill-rule:evenodd;clip-rule:evenodd;fill:none;" d="M55.011,43.589c0.766,0.045,0.766,0.045,0.861,0.733
		c-0.217,0.157-0.421,0.159-0.652-0.002C54.973,44.147,55,43.91,55.011,43.589z"/>
</g>
</svg>
