<?xml version="1.0" encoding="iso-8859-1"?>
<!-- Generator: Adobe Illustrator 16.0.0, SVG Export Plug-In . SVG Version: 6.00 Build 0)  -->
<!DOCTYPE svg PUBLIC "-//W3C//DTD SVG 1.1//EN" "http://www.w3.org/Graphics/SVG/1.1/DTD/svg11.dtd">
<svg version="1.1" id="Layer_1" xmlns="http://www.w3.org/2000/svg" xmlns:xlink="http://www.w3.org/1999/xlink" x="0px" y="0px"
	 width="72.36px" height="72.18px" viewBox="0 0 72.36 72.18" style="enable-background:new 0 0 72.36 72.18;" xml:space="preserve"
	>
<g>
	<path style="fill-rule:evenodd;clip-rule:evenodd;fill:none;" d="M-6.984-6.984c28.8,0,57.6,0,86.399,0c0,28.872,0,57.744,0,86.615
		c-28.8,0-57.6,0-86.399,0C-6.984,50.76-6.984,21.888-6.984-6.984z M27.252,40.968c1.007,0,2.014,0,3.005,0
		c0.66-0.553,1.537-0.596,2.29-1.104c-0.008,0.772-0.071,1.476,0.17,1.873c0.404,0.429,0.647,0.686,0.904,0.958
		c0.075,0,0.185-0.012,0.291,0.002c0.755,0.095,1.384-0.139,1.85-0.743c0.225-0.292,0.572-0.365,0.853-0.555
		c1.083,0,1.083,0,1.524,0.296c0,0.371,0,0.756,0,1.11c-0.718,0.823-1.641,1.428-2.141,2.391c-0.393,0.756-1.012,1.316-1.504,1.978
		c-0.349,0.47-0.9,0.837-0.975,1.537c-0.041,0.386-0.343,0.757-0.776,0.888c-0.157,0.047-0.227,0.16-0.329,0.249
		c-0.647,0.565-1.123,1.3-1.816,1.823c-0.281,0.213-0.437,0.531-0.428,0.897c0.011,0.491-0.228,0.858-0.57,1.167
		c-0.44,0.396-0.821,0.843-1.344,1.173c-0.583,0.366-0.948,1.036-1.603,1.354c-0.082,0.04-0.116,0.174-0.169,0.245
		c-0.284,0.376-0.174,0.804-0.21,1.207c-0.255,0.203-0.255,0.561-0.532,0.765c-0.339,0.25-0.444,0.649-0.563,1.058
		c-0.128,0.44-0.306,0.866-0.643,1.253c-0.56,0.641-0.971,1.407-0.809,2.295c0.201,0.724,0.721,0.891,1.388,1.031
		c0.565,0.119,1.232,0.101,1.691,0.595c0.357,0.385,0.813,0.49,1.325,0.453c0.322-0.024,0.652,0.028,0.971-0.012
		c0.572-0.074,1.117,0.065,1.624,0.262c0.686,0.265,1.373,0.376,2.103,0.416c0.417,0.022,0.711-0.225,1.096-0.271
		c0.651-0.079,1.3-0.288,1.897-0.611c0.542-0.295,1.017-1.14,0.81-1.552c-0.344-0.683-0.589-1.471-1.447-1.769
		c-0.354-0.122-0.673-0.358-0.921-0.726c0.227-0.681-0.628-1.187-0.395-1.925c0.072-0.071,0.16-0.139,0.222-0.226
		c0.56-0.776,1.013-1.62,1.663-2.343c0.393-0.437,0.727-1.006,0.866-1.57c0.193-0.78,0.663-1.339,1.145-1.903
		c0.393-0.461,0.852-0.866,1.263-1.276c-0.054-1.097,0.623-1.604,1.592-2.011c-0.567,0.591-0.271,1.112-0.012,1.665
		c0.406-0.097,0.507,0.365,0.859,0.477c0.965,0.308,1.945,0.646,2.416,1.692c0.069,0.153,0.268,0.243,0.37,0.388
		c0.334,0.475,0.881,0.684,1.292,1.063c0.644,0.591,1.039,1.458,1.953,1.755c0.121,0.04,0.213,0.189,0.307,0.298
		c0.69,0.797,1.601,1.304,2.492,1.813c0.413,0.235,0.893,0.507,0.995,0.873c0.139,0.496,0.547,0.64,0.809,0.7
		c0.855,0.197,1.672,0.726,2.611,0.415c0.504-0.274,0.637-0.896,1.071-1.25c0.753-0.612,1.203-1.397,1.418-2.35
		c1.646-0.221,2.333-1.551,3.183-2.698c0.074-0.953,0.17-1.905,0.877-2.636c0-0.369,0-0.726,0-1.081
		c-0.301-0.085-0.519-0.37-0.861-0.299c-0.276,0.032-0.337,0.352-0.577,0.432c-0.671,0.078-1.181-0.3-1.669-0.654
		c-0.483-0.352-0.803-0.849-0.793-1.506c-0.267,0-0.479,0-0.69,0c-0.245,0-0.491,0-0.715,0c-0.271-0.378-0.614-0.606-0.814-1.012
		c-0.169-0.343-0.522-0.626-0.943-0.794c-0.437-0.175-0.751-0.494-1.011-0.95c-0.534-0.939-0.606-0.882-1.623-1.461
		c-0.539-0.308-1.063-0.601-1.475-1.166c-0.361-0.498-0.525-1.133-1.021-1.526c-0.725,0-1.443,0-2.159,0
		c-0.684,0.516-0.754,1.511-1.585,1.94c-0.117-0.049-0.315,0.084-0.479-0.125c0.092-0.61,0.287-1.122,0.97-1.403
		c0.604-0.248,1.146-0.662,1.194-1.408c0.022-0.353,0.285-0.555,0.492-0.644c0.449-0.192,0.697-0.57,1.033-0.852
		c-0.106-0.423,0.32-0.707,0.24-1.104c0.306-0.307,0.566-0.696,0.931-0.892c0.299-0.16,0.41-0.397,0.608-0.6
		c0.546-0.556,0.613-1.376,1.191-1.9c0.586-0.531,1.125-1.113,1.686-1.673c0.102-0.102,0.222-0.192,0.299-0.31
		c0.05-0.078-0.037-0.215,0.225-0.372c0.282-0.251,0.788-0.118,1.266-0.173c1.246-0.146,2.29,0.149,3.074,1.201
		c0.302,0.404,0.759,0.567,1.285,0.54c0.538-0.028,1.078-0.006,1.61-0.006c0.865-0.467,1.402-1.267,2.265-2.007
		c-0.483-0.068-0.35-0.394-0.511-0.56c-0.631-0.183-1.195,0.452-1.766,0.15c-0.402-0.496-0.297-1.032-0.316-1.627
		c-0.562-0.266-0.707-0.951-1.176-1.389c-0.153-0.144-0.352-0.417-0.332-0.713c0.038-0.581-0.296-0.972-0.68-1.338
		c-0.378-0.359-0.696-0.737-0.861-1.265c-0.107-0.342-0.309-0.759-0.672-0.893c-0.579-0.214-0.662-0.667-0.842-1.16
		c-0.13-0.359-0.078-0.853-0.519-1.076c-0.283,0-0.571,0-0.856,0c-0.104,0.104-0.189,0.235-0.31,0.302
		c-0.613,0.342-1.262,0.627-1.845,1.012c-0.381,0.251-0.679,0.252-1.043,0.032c-0.109-0.066-0.27-0.047-0.487-0.079
		c-0.078,0.114-0.178,0.258-0.297,0.432c0,0.152-0.091,0.45,0.016,0.565c0.417,0.451,0.114,0.838-0.029,1.244
		c-0.156,0.438-0.492,0.742-0.794,1.079c-0.395,0.441-0.91,0.759-1.166,1.349c-0.415,0.956-1.006,1.805-1.814,2.491
		c-0.35,0.297-0.556,0.693-0.548,1.167c-0.519,0.65-1.258,1.091-1.553,1.957c-0.126,0.369-0.543,0.73-1.021,0.852
		c0.025,0.287-0.173,0.519-0.263,0.756c-0.218,0.57-0.416,1.153-1.079,1.505c-0.515,0.273-1.196,0.414-1.488,1.069
		c0.093,0.424-0.063,0.84-0.35,1.119c-0.54,0.527-0.966,1.205-1.816,1.594c0.043-0.779,0.218-1.399,0.64-1.876
		c0.447-0.505,0.686-1.23,1.424-1.45c0.84-0.889,1.36-1.895,1.166-3.147c-0.26-0.264-0.291-0.627-0.474-0.903
		c-0.201-0.304-0.521-0.5-1.015-0.722c1.229-0.571,2.233-1.145,2.808-2.299c0-0.617-0.168-1.357,0.044-1.965
		c0.24-0.687,0.008-1.066-0.347-1.551c-0.252-0.342-0.51-0.769-0.528-1.168c-0.022-0.494-0.366-0.799-0.467-1.225
		c0.278-0.284,0.241-0.63,0.192-0.978c-0.843-0.829-1.207-2.023-2.078-2.731c-0.229-1.198-1.059-1.909-1.784-2.644
		c0-0.224,0.056-0.428-0.01-0.58c-0.354-0.81-0.47-1.651-0.424-2.524c0.009-0.18,0.076-0.427-0.014-0.527
		c-0.247-0.278-0.257-0.603-0.185-0.891c0.092-0.368-0.284-0.563-0.231-0.886c0.027-0.169-0.09-0.37,0.083-0.503
		c0.177-0.135,0.16-0.324,0.125-0.486c-0.128-0.588-0.083-1.209-0.529-1.73c-0.294-0.343-0.426-0.824-0.63-1.244
		c-0.852-0.258-1.706-0.514-2.462-0.461c-0.603,0.205-0.938,0.56-1.154,0.79c-0.79,0.257-1.258-0.206-1.814-0.395
		c-0.91,0.482-1.891,0.685-2.871,0.929c-1.095,0.273-2.196,0.571-3.23,1.054c-0.543,0.253-1.084,0.526-1.675,0.644
		c-0.601,0.12-1.079,0.508-1.659,0.7c-0.724,0.24-1.4,0.732-1.888,1.371c0,0.295,0,0.581,0,0.861
		c0.253,0.216,0.284,0.54,0.362,0.673c-0.042,0.544-0.377,0.812-0.594,1.154c-0.246,0.388-0.222,0.789-0.19,1.205
		c0.28,0.28,0.56,0.56,0.84,0.84c0.021,1.845,0.648,2.17,2.024,2.378c0.335,0.631,0.17,1.67,1.192,1.901
		c0.03,0.708,0.03,0.708-0.087,0.797c-0.151,0-0.293,0-0.444,0c-0.165-0.257,0.009-0.669-0.5-0.859c-0.258,0-0.645,0-0.893,0
		c-0.486-0.254-0.875-0.422-1.093-0.87c0-0.161,0-0.371,0-0.556c-0.583-0.583-1.143-1.144-1.704-1.703c0-0.36,0-0.72,0-1.082
		c-0.679-0.532-0.893-1.53-1.837-1.791c-0.849-0.171-1.564,0.076-2.12,0.774c-0.221,0.278-0.578,0.333-0.875,0.487
		c-0.548,0.286-1.114,0.602-1.291,1.26c-0.239,0.889-0.936,1.481-1.391,2.229c-0.2,0.33-0.517,0.588-0.739,0.833
		c-0.241,0-0.381,0-0.438,0c-0.242,0.207-0.432,0.37-0.588,0.503c0,0.41,0,0.767,0,1.107c0.344,0.563,0.379,0.507,1.198,1.009
		c1.204,0.739,2.519,0.965,3.845,1.112c0.747,0.2,1.154,0.852,1.746,1.273c1.036,0.737,2.29,1.214,2.978,2.322
		c0.639,0,1.213,0,1.775,0c0.188-0.185,0.368-0.361,0.58-0.568c-0.223-0.302,0.054-0.558,0.198-0.732
		c0.649-0.788,1.126-1.72,1.876-2.408c0.482,0.106,0.854,0.255,1.127,0.585c0,0.219,0,0.434,0,0.642
		c-0.183,0.184-0.331,0.457-0.543,0.523c-0.642,0.2-0.963,0.723-1.157,1.245c-0.315,0.849-0.975,1.376-1.595,1.916
		c-0.34,0.295-0.854,0.533-1.402,0.114c-0.401-0.306-0.883-0.513-1.244-0.878c-0.436,0-0.867,0-1.295,0
		c-0.105,0.104-0.207,0.207-0.377,0.377c0.341,0.46-0.086,0.881-0.187,1.342c-0.103,0.474-0.69,0.77-0.622,1.357
		c0.304,0.646,1.016,0.632,1.537,0.912c0.541,0.292,1.166,0.423,1.802,0.313c0.681,0.772,1.713,0.982,2.493,1.615
		c0,0.356-0.022,0.715,0.004,1.07c0.06,0.802,0.738,1.512,1.505,1.654c0.935,0.173,1.844,0.482,2.813,0.448
		c-0.08,0.681,0.376,1.211,0.195,1.797C26.896,40.611,27.074,40.79,27.252,40.968z M30.709,47.086
		c0.359-0.174,0.681,0.042,0.986-0.181c0.378-0.276,0.809-0.53,1.211-0.706c0.437-0.19,0.825-0.435,1.242-0.639
		c0.694-0.338,0.785-0.854,0.772-1.438c-0.107-0.177-0.262-0.082-0.32-0.14c-0.496-0.497-1.134-0.683-1.768-0.932
		c-0.58-0.228-1.176-0.276-1.756-0.434c-1.43-0.388-2.614-0.007-3.538,1.243c0.329,0.284,0.665,0.593,0.818,1.022
		c0.317,0.887,0.92,1.465,1.792,1.815C30.318,46.767,30.592,46.73,30.709,47.086z M31.262,48.049
		c-0.568,0.235-1.241,0.214-1.524,0.878c-0.071,0.55,0.373,0.679,0.646,0.938c0.577-0.146,0.997-0.399,1.268-0.793
		C31.724,48.661,31.709,48.319,31.262,48.049z M46.132,29.944c0.173-0.328,0.42-0.589,0.426-0.856
		c0.008-0.36,0.203-0.642,0.262-0.94c-0.12-0.179-0.295-0.185-0.401-0.132c-0.513,0.255-1.012,0.539-1.349,0.994
		c0.034,0.564,0.034,0.564,0.348,0.934C45.635,29.944,45.847,29.944,46.132,29.944z"/>
	<path fill="currentColor" d="M27.252,40.968c-0.178-0.178-0.356-0.356-0.559-0.56
		c0.181-0.586-0.275-1.116-0.195-1.797c-0.969,0.034-1.878-0.275-2.813-0.448c-0.768-0.142-1.445-0.852-1.505-1.654
		c-0.027-0.355-0.004-0.714-0.004-1.07c-0.78-0.633-1.812-0.843-2.493-1.615c-0.636,0.109-1.261-0.022-1.802-0.313
		c-0.521-0.28-1.233-0.266-1.537-0.912c-0.069-0.587,0.519-0.883,0.622-1.357c0.1-0.461,0.528-0.882,0.187-1.342
		c0.17-0.17,0.272-0.272,0.377-0.377c0.428,0,0.859,0,1.295,0c0.361,0.365,0.843,0.572,1.244,0.878
		c0.548,0.419,1.062,0.181,1.402-0.114c0.62-0.54,1.28-1.067,1.595-1.916c0.193-0.521,0.515-1.044,1.157-1.245
		c0.212-0.066,0.361-0.339,0.543-0.523c0-0.208,0-0.423,0-0.642c-0.273-0.33-0.646-0.479-1.127-0.585
		c-0.75,0.688-1.227,1.62-1.876,2.408c-0.144,0.175-0.42,0.43-0.198,0.732c-0.212,0.207-0.392,0.383-0.58,0.568
		c-0.562,0-1.136,0-1.775,0c-0.688-1.107-1.941-1.584-2.978-2.322c-0.592-0.421-0.999-1.073-1.746-1.273
		c-1.327-0.147-2.642-0.373-3.845-1.112c-0.819-0.502-0.854-0.447-1.198-1.009c0-0.34,0-0.697,0-1.107
		c0.156-0.133,0.346-0.296,0.588-0.503c0.056,0,0.196,0,0.438,0c0.222-0.245,0.539-0.504,0.739-0.833
		c0.455-0.748,1.152-1.34,1.391-2.229c0.177-0.658,0.743-0.974,1.291-1.26c0.297-0.155,0.654-0.209,0.875-0.487
		c0.555-0.699,1.271-0.945,2.12-0.774c0.944,0.261,1.158,1.259,1.837,1.791c0,0.362,0,0.722,0,1.082
		c0.56,0.56,1.12,1.12,1.703,1.703c0,0.186,0,0.395,0,0.556c0.218,0.448,0.607,0.616,1.093,0.87c0.248,0,0.634,0,0.893,0
		c0.509,0.189,0.335,0.602,0.5,0.859c0.15,0,0.292,0,0.444,0c0.117-0.089,0.117-0.089,0.087-0.797
		c-1.022-0.231-0.857-1.27-1.192-1.901c-1.375-0.208-2.003-0.534-2.024-2.378c-0.28-0.28-0.56-0.56-0.84-0.84
		c-0.032-0.416-0.055-0.817,0.19-1.205c0.217-0.342,0.552-0.609,0.594-1.154c-0.078-0.133-0.108-0.457-0.362-0.673
		c0-0.28,0-0.565,0-0.861c0.488-0.639,1.164-1.13,1.888-1.371c0.58-0.192,1.058-0.58,1.659-0.7c0.591-0.118,1.132-0.391,1.675-0.644
		c1.034-0.483,2.136-0.78,3.23-1.054c0.979-0.245,1.961-0.447,2.871-0.929c0.556,0.189,1.025,0.652,1.814,0.395
		c0.216-0.229,0.551-0.584,1.154-0.79c0.756-0.053,1.611,0.203,2.462,0.461c0.205,0.419,0.336,0.901,0.63,1.244
		c0.446,0.521,0.401,1.142,0.529,1.73c0.035,0.162,0.052,0.351-0.125,0.486c-0.173,0.133-0.056,0.334-0.083,0.503
		c-0.053,0.323,0.323,0.518,0.231,0.886c-0.072,0.288-0.063,0.613,0.185,0.891c0.09,0.1,0.022,0.347,0.014,0.527
		c-0.046,0.873,0.07,1.715,0.424,2.524c0.065,0.151,0.01,0.356,0.01,0.58c0.726,0.735,1.556,1.445,1.784,2.644
		c0.871,0.708,1.235,1.902,2.078,2.731c0.049,0.348,0.086,0.694-0.192,0.978c0.101,0.425,0.444,0.731,0.467,1.225
		c0.019,0.4,0.276,0.827,0.528,1.168c0.354,0.484,0.587,0.864,0.347,1.551c-0.212,0.608-0.044,1.348-0.044,1.965
		c-0.574,1.154-1.578,1.728-2.808,2.299c0.493,0.223,0.813,0.418,1.015,0.722c0.183,0.276,0.214,0.64,0.474,0.903
		c0.194,1.252-0.326,2.258-1.166,3.147c-0.738,0.22-0.977,0.945-1.424,1.45c-0.422,0.477-0.597,1.097-0.64,1.876
		c0.851-0.389,1.276-1.066,1.816-1.594c0.287-0.279,0.442-0.695,0.35-1.119c0.292-0.655,0.974-0.796,1.488-1.069
		c0.663-0.352,0.861-0.935,1.079-1.505c0.09-0.237,0.288-0.469,0.263-0.756c0.478-0.122,0.895-0.483,1.021-0.852
		c0.295-0.866,1.034-1.307,1.553-1.957c-0.008-0.474,0.198-0.87,0.548-1.167c0.809-0.687,1.399-1.536,1.814-2.491
		c0.256-0.59,0.771-0.907,1.166-1.349c0.302-0.337,0.638-0.641,0.794-1.079c0.144-0.406,0.446-0.793,0.029-1.244
		c-0.106-0.116-0.016-0.414-0.016-0.565c0.119-0.174,0.219-0.318,0.297-0.432c0.218,0.032,0.378,0.013,0.487,0.079
		c0.364,0.22,0.662,0.219,1.043-0.032c0.583-0.385,1.231-0.67,1.845-1.012c0.12-0.067,0.206-0.198,0.31-0.302
		c0.285,0,0.573,0,0.856,0c0.44,0.224,0.389,0.717,0.519,1.076c0.18,0.493,0.263,0.946,0.842,1.16
		c0.363,0.134,0.564,0.551,0.672,0.893c0.165,0.528,0.483,0.906,0.861,1.265c0.384,0.366,0.718,0.757,0.68,1.338
		c-0.02,0.297,0.179,0.57,0.332,0.713c0.469,0.438,0.614,1.123,1.176,1.389c0.02,0.595-0.086,1.132,0.316,1.627
		c0.57,0.302,1.135-0.333,1.766-0.15c0.161,0.166,0.027,0.491,0.511,0.56c-0.862,0.74-1.399,1.54-2.265,2.007
		c-0.532,0-1.072-0.022-1.61,0.006c-0.526,0.027-0.983-0.136-1.285-0.54c-0.784-1.052-1.828-1.347-3.074-1.201
		c-0.478,0.056-0.983-0.078-1.266,0.173c-0.262,0.156-0.175,0.294-0.225,0.372c-0.077,0.118-0.197,0.208-0.299,0.31
		c-0.561,0.56-1.1,1.142-1.686,1.673c-0.578,0.524-0.646,1.344-1.191,1.9c-0.198,0.203-0.31,0.439-0.608,0.6
		c-0.364,0.195-0.625,0.585-0.931,0.892c0.08,0.396-0.347,0.681-0.24,1.104c-0.336,0.281-0.584,0.659-1.033,0.852
		c-0.207,0.089-0.47,0.291-0.492,0.644c-0.048,0.746-0.59,1.16-1.194,1.408c-0.683,0.281-0.878,0.793-0.97,1.403
		c0.164,0.209,0.362,0.076,0.479,0.125c0.831-0.43,0.901-1.425,1.585-1.94c0.716,0,1.435,0,2.159,0
		c0.495,0.394,0.659,1.028,1.021,1.526c0.411,0.565,0.936,0.858,1.475,1.166c1.017,0.579,1.089,0.521,1.623,1.461
		c0.26,0.456,0.574,0.775,1.011,0.95c0.421,0.168,0.774,0.451,0.943,0.794c0.2,0.405,0.544,0.634,0.814,1.012
		c0.224,0,0.47,0,0.715,0c0.212,0,0.424,0,0.69,0c-0.01,0.657,0.31,1.154,0.793,1.506c0.488,0.354,0.998,0.732,1.669,0.654
		c0.24-0.08,0.301-0.399,0.577-0.432c0.343-0.071,0.561,0.214,0.861,0.299c0,0.355,0,0.712,0,1.081
		c-0.707,0.73-0.803,1.683-0.877,2.636c-0.85,1.147-1.536,2.478-3.183,2.698c-0.215,0.952-0.665,1.737-1.418,2.35
		c-0.435,0.354-0.567,0.976-1.071,1.25c-0.939,0.311-1.756-0.218-2.611-0.415c-0.262-0.061-0.67-0.204-0.809-0.7
		c-0.103-0.366-0.582-0.638-0.995-0.873c-0.892-0.509-1.802-1.016-2.492-1.813c-0.094-0.108-0.186-0.258-0.307-0.298
		c-0.914-0.297-1.31-1.164-1.953-1.755c-0.411-0.379-0.958-0.588-1.292-1.063c-0.103-0.145-0.301-0.234-0.37-0.388
		c-0.471-1.047-1.451-1.385-2.416-1.692c-0.353-0.111-0.453-0.573-0.859-0.477c-0.259-0.553-0.556-1.074,0.012-1.665
		c-0.969,0.406-1.646,0.914-1.592,2.011c-0.411,0.41-0.87,0.815-1.263,1.276c-0.482,0.564-0.952,1.123-1.145,1.903
		c-0.14,0.564-0.473,1.134-0.866,1.57c-0.65,0.723-1.104,1.566-1.663,2.343c-0.062,0.087-0.15,0.154-0.222,0.226
		c-0.233,0.738,0.622,1.244,0.395,1.925c0.248,0.367,0.567,0.604,0.921,0.726c0.858,0.298,1.104,1.086,1.447,1.769
		c0.208,0.412-0.268,1.257-0.81,1.552c-0.597,0.323-1.246,0.532-1.897,0.611c-0.384,0.047-0.679,0.294-1.096,0.271
		c-0.729-0.04-1.417-0.151-2.103-0.416c-0.507-0.196-1.051-0.336-1.624-0.262c-0.319,0.04-0.648-0.013-0.971,0.012
		c-0.512,0.037-0.967-0.068-1.325-0.453c-0.458-0.494-1.126-0.476-1.691-0.595c-0.667-0.141-1.188-0.308-1.388-1.031
		c-0.163-0.888,0.249-1.654,0.809-2.295c0.337-0.387,0.515-0.813,0.643-1.253c0.119-0.408,0.224-0.808,0.563-1.058
		c0.277-0.204,0.277-0.562,0.532-0.765c0.036-0.403-0.074-0.831,0.21-1.207c0.054-0.071,0.087-0.205,0.169-0.245
		c0.655-0.318,1.02-0.988,1.603-1.354c0.523-0.33,0.903-0.776,1.344-1.173c0.342-0.309,0.582-0.676,0.57-1.167
		c-0.009-0.366,0.147-0.685,0.428-0.897c0.693-0.523,1.169-1.258,1.816-1.823c0.102-0.089,0.172-0.202,0.329-0.249
		c0.433-0.131,0.735-0.502,0.776-0.888c0.074-0.7,0.625-1.067,0.975-1.537c0.492-0.661,1.111-1.222,1.504-1.978
		c0.5-0.963,1.423-1.567,2.141-2.391c0-0.354,0-0.739,0-1.11c-0.441-0.296-0.441-0.296-1.524-0.296
		c-0.281,0.189-0.628,0.263-0.853,0.555c-0.466,0.604-1.095,0.838-1.85,0.743c-0.106-0.014-0.215-0.002-0.291-0.002
		c-0.257-0.272-0.5-0.529-0.904-0.958c-0.241-0.397-0.178-1.101-0.17-1.873c-0.753,0.508-1.63,0.551-2.29,1.104
		C29.266,40.968,28.259,40.968,27.252,40.968z M34.157,30.39c-0.572-0.006-0.922-0.269-1.237-0.602
		c-0.336-0.355-0.697-0.639-1.216-0.711c-0.46-0.064-0.935-0.352-1.059-0.744c-0.193-0.611-0.821-0.571-1.115-0.973
		c-0.567,0.043-0.938-0.617-1.543-0.43c-0.063,0.019-0.119,0.059-0.187,0.093c0,0.137,0,0.279,0,0.431
		c0.372,0.483,0.957,0.806,1.176,1.356c0.716,0.374,1.458,0.256,2.121,0.278c0.721,0.551,1.174,1.181,1.011,2.031
		c0.414,0.583,0.959,0.249,1.516,0.388c0.183-0.227,0.382-0.475,0.591-0.735c0.73,0.256,1.501,0.343,2.027,1.08
		c0,0.599,0,1.271,0,1.965c0.276,0,0.518,0,0.729,0c0.793-0.704,1.682-1.159,2.771-1.342c-0.708-0.557-1.482-0.898-2.02-1.547
		c-0.055-0.067-0.178-0.089-0.273-0.109c-0.926-0.197-1.716-0.71-2.614-1.104C34.604,29.944,34.36,30.188,34.157,30.39z
		 M44.23,47.021c-0.076-0.875,0.073-1.644-0.138-2.552c-0.32,0.323-0.641,0.504-0.728,0.763c-0.21,0.633-0.68,1.031-1.114,1.473
		c-0.226,0.229-0.483,0.435-0.676,0.689c-0.237,0.314-0.493,0.649-0.331,1.166C42.133,47.828,43.177,47.481,44.23,47.021z
		 M34.3,37.032c0.106,0.021,0.204,0.068,0.233,0.042c0.49-0.457,1.026-0.881,1.428-1.408c0.154-0.202,0.54-0.602,0.163-0.927
		c-0.243-0.086-0.336,0.043-0.414,0.152C35.35,35.4,34.979,35.9,34.501,36.31C34.616,36.594,34.161,36.678,34.3,37.032z
		 M25.456,33.957c-0.614-0.345-0.95,0.101-1.347,0.316c-0.626,0.339-0.624,0.343-0.993,0.83
		C24.199,35.026,24.912,34.688,25.456,33.957z M29.839,35.563c-0.479,0.597-1.236,0.869-1.705,1.489
		c-0.121,0.161-0.192,0.283-0.004,0.479c0.816-0.205,1.248-0.917,1.829-1.423C29.913,35.923,30.036,35.73,29.839,35.563z
		 M55.383,55.607c-0.302-0.273-0.436-0.828-1.048-0.825C54.428,55.486,54.973,55.456,55.383,55.607z"/>
	<path fill="currentColor" d="M30.709,47.086c-0.117-0.355-0.391-0.319-0.56-0.387
		c-0.872-0.351-1.475-0.929-1.792-1.815c-0.154-0.43-0.489-0.738-0.818-1.022c0.923-1.25,2.107-1.631,3.538-1.243
		c0.58,0.157,1.176,0.206,1.756,0.434c0.634,0.249,1.272,0.435,1.768,0.932c0.058,0.058,0.213-0.037,0.32,0.14
		c0.013,0.584-0.078,1.1-0.772,1.438c-0.417,0.204-0.805,0.448-1.242,0.639c-0.402,0.176-0.833,0.43-1.211,0.706
		C31.39,47.128,31.068,46.912,30.709,47.086z"/>
	<path fill="currentColor" d="M31.262,48.049c0.448,0.271,0.462,0.612,0.389,1.023
		c-0.271,0.394-0.69,0.647-1.268,0.793c-0.273-0.26-0.717-0.389-0.646-0.938C30.021,48.263,30.693,48.284,31.262,48.049z"/>
	<path fill="currentColor" d="M46.132,29.944c-0.285,0-0.497,0-0.715,0
		c-0.313-0.37-0.313-0.37-0.348-0.934c0.337-0.456,0.836-0.739,1.349-0.994c0.106-0.053,0.281-0.046,0.401,0.132
		c-0.059,0.298-0.254,0.58-0.262,0.94C46.552,29.355,46.305,29.616,46.132,29.944z"/>
	<path style="fill-rule:evenodd;clip-rule:evenodd;fill:none;" d="M34.157,30.39c0.203-0.202,0.446-0.445,0.677-0.676
		c0.897,0.394,1.688,0.907,2.614,1.104c0.096,0.02,0.219,0.042,0.273,0.109c0.537,0.649,1.312,0.991,2.02,1.547
		c-1.089,0.184-1.978,0.639-2.771,1.342c-0.211,0-0.452,0-0.729,0c0-0.694,0-1.367,0-1.965c-0.526-0.736-1.296-0.824-2.027-1.08
		c-0.209,0.26-0.409,0.508-0.591,0.735c-0.557-0.139-1.103,0.195-1.516-0.388c0.164-0.85-0.29-1.479-1.011-2.031
		c-0.662-0.022-1.404,0.096-2.121-0.278c-0.219-0.551-0.804-0.873-1.176-1.356c0-0.152,0-0.293,0-0.431
		c0.068-0.034,0.124-0.074,0.187-0.093c0.606-0.187,0.977,0.474,1.543,0.43c0.294,0.401,0.921,0.361,1.115,0.973
		c0.125,0.392,0.599,0.68,1.059,0.744c0.519,0.073,0.88,0.356,1.216,0.711C33.235,30.121,33.585,30.384,34.157,30.39z"/>
	<path style="fill-rule:evenodd;clip-rule:evenodd;fill:none;" d="M44.23,47.021c-1.053,0.461-2.097,0.808-2.986,1.539
		c-0.162-0.517,0.094-0.852,0.331-1.166c0.192-0.255,0.45-0.46,0.676-0.689c0.435-0.441,0.904-0.84,1.114-1.473
		c0.087-0.259,0.407-0.439,0.728-0.763C44.303,45.377,44.154,46.146,44.23,47.021z"/>
	<path style="fill-rule:evenodd;clip-rule:evenodd;fill:none;" d="M34.3,37.032c-0.139-0.354,0.316-0.438,0.202-0.723
		c0.478-0.41,0.848-0.909,1.209-1.418c0.077-0.108,0.171-0.238,0.414-0.152c0.377,0.325-0.009,0.725-0.163,0.927
		c-0.402,0.526-0.938,0.951-1.428,1.408C34.504,37.101,34.406,37.054,34.3,37.032z"/>
	<path style="fill-rule:evenodd;clip-rule:evenodd;fill:none;" d="M25.456,33.957c-0.544,0.731-1.257,1.069-2.34,1.146
		c0.37-0.487,0.367-0.491,0.993-0.83C24.506,34.058,24.842,33.611,25.456,33.957z"/>
	<path style="fill-rule:evenodd;clip-rule:evenodd;fill:none;" d="M29.839,35.563c0.197,0.167,0.074,0.36,0.121,0.545
		c-0.582,0.506-1.013,1.218-1.829,1.423c-0.188-0.196-0.117-0.318,0.004-0.479C28.603,36.432,29.36,36.16,29.839,35.563z"/>
	<path style="fill-rule:evenodd;clip-rule:evenodd;fill:none;" d="M55.383,55.607c-0.41-0.151-0.955-0.121-1.048-0.825
		C54.948,54.779,55.082,55.334,55.383,55.607z"/>
</g>
</svg>
