<svg xmlns="http://www.w3.org/2000/svg" xml:space="preserve" width="72px" height="72px" viewBox="0 0 72 72">
    <g fill="currentColor">
        <path d="m27.252 40.968-.559-.56c.181-.586-.275-1.116-.195-1.797-.969.034-1.878-.275-2.813-.448-.768-.142-1.445-.852-1.505-1.654-.027-.355-.004-.714-.004-1.07-.78-.633-1.812-.843-2.493-1.615a2.8 2.8 0 0 1-1.802-.313c-.521-.28-1.233-.266-1.537-.912-.069-.587.519-.883.622-1.357.1-.461.528-.882.187-1.342l.377-.377h1.295c.361.365.843.572 1.244.878.548.419 1.062.181 1.402-.114.62-.54 1.28-1.067 1.595-1.916.193-.521.515-1.044 1.157-1.245.212-.066.361-.339.543-.523v-.642c-.273-.33-.646-.479-1.127-.585-.75.688-1.227 1.62-1.876 2.408-.144.175-.42.43-.198.732l-.58.568H19.21c-.688-1.107-1.941-1.584-2.978-2.322-.592-.421-.999-1.073-1.746-1.273-1.327-.147-2.642-.373-3.845-1.112-.819-.502-.854-.447-1.198-1.009v-1.107l.588-.503h.438c.222-.245.539-.504.739-.833.455-.748 1.152-1.34 1.391-2.229.177-.658.743-.974 1.291-1.26.297-.155.654-.209.875-.487.555-.699 1.271-.945 2.12-.774.944.261 1.158 1.259 1.837 1.791v1.082l1.703 1.703v.556c.218.448.607.616 1.093.87h.893c.509.189.335.602.5.859h.444c.117-.089.117-.089.087-.797-1.022-.231-.857-1.27-1.192-1.901-1.375-.208-2.003-.534-2.024-2.378l-.84-.84c-.032-.416-.055-.817.19-1.205.217-.342.552-.609.594-1.154-.078-.133-.108-.457-.362-.673v-.861a4.03 4.03 0 0 1 1.888-1.371c.58-.192 1.058-.58 1.659-.7.591-.118 1.132-.391 1.675-.644 1.034-.483 2.136-.78 3.23-1.054.979-.245 1.961-.447 2.871-.929.556.189 1.025.652 1.814.395.216-.229.551-.584 1.154-.79.756-.053 1.611.203 2.462.461.205.419.336.901.63 1.244.446.521.401 1.142.529 1.73.035.162.052.351-.125.486-.173.133-.056.334-.083.503-.053.323.323.518.231.886-.072.288-.063.613.185.891.09.1.022.347.014.527-.046.873.07 1.715.424 2.524.065.151.01.356.01.58.726.735 1.556 1.445 1.784 2.644.871.708 1.235 1.902 2.078 2.731.049.348.086.694-.192.978.101.425.444.731.467 1.225.019.4.276.827.528 1.168.354.484.587.864.347 1.551-.212.608-.044 1.348-.044 1.965-.574 1.154-1.578 1.728-2.808 2.299.493.223.813.418 1.015.722.183.276.214.64.474.903.194 1.252-.326 2.258-1.166 3.147-.738.22-.977.945-1.424 1.45-.422.477-.597 1.097-.64 1.876.851-.389 1.276-1.066 1.816-1.594.287-.279.442-.695.35-1.119.292-.655.974-.796 1.488-1.069.663-.352.861-.935 1.079-1.505.09-.237.288-.469.263-.756.478-.122.895-.483 1.021-.852.295-.866 1.034-1.307 1.553-1.957-.008-.474.198-.87.548-1.167.809-.687 1.399-1.536 1.814-2.491.256-.59.771-.907 1.166-1.349.302-.337.638-.641.794-1.079.144-.406.446-.793.029-1.244-.106-.116-.016-.414-.016-.565l.297-.432c.218.032.378.013.487.079.364.22.662.219 1.043-.032.583-.385 1.231-.67 1.845-1.012.12-.067.206-.198.31-.302h.856c.44.224.389.717.519 1.076.18.493.263.946.842 1.16.363.134.564.551.672.893.165.528.483.906.861 1.265.384.366.718.757.68 1.338-.02.297.179.57.332.713.469.438.614 1.123 1.176 1.389.02.595-.086 1.132.316 1.627.57.302 1.135-.333 1.766-.15.161.166.027.491.511.56-.862.74-1.399 1.54-2.265 2.007-.532 0-1.072-.022-1.61.006-.526.027-.983-.136-1.285-.54-.784-1.052-1.828-1.347-3.074-1.201-.478.056-.983-.078-1.266.173-.262.156-.175.294-.225.372-.077.118-.197.208-.299.31-.561.56-1.1 1.142-1.686 1.673-.578.524-.646 1.344-1.191 1.9-.198.203-.31.439-.608.6-.364.195-.625.585-.931.892.08.396-.347.681-.24 1.104-.336.281-.584.659-1.033.852-.207.089-.47.291-.492.644-.048.746-.59 1.16-1.194 1.408-.683.281-.878.793-.97 1.403.164.209.362.076.479.125.831-.43.901-1.425 1.585-1.94h2.159c.495.394.659 1.028 1.021 1.526.411.565.936.858 1.475 1.166 1.017.579 1.089.521 1.623 1.461.26.456.574.775 1.011.95.421.168.774.451.943.794.2.405.544.634.814 1.012h1.405c-.01.657.31 1.154.793 1.506.488.354.998.732 1.669.654.24-.08.301-.399.577-.432.343-.071.561.214.861.299v1.081c-.707.73-.803 1.683-.877 2.636-.85 1.147-1.536 2.478-3.183 2.698-.215.952-.665 1.737-1.418 2.35-.435.354-.567.976-1.071 1.25-.939.311-1.756-.218-2.611-.415-.262-.061-.67-.204-.809-.7-.103-.366-.582-.638-.995-.873-.892-.509-1.802-1.016-2.492-1.813-.094-.108-.186-.258-.307-.298-.914-.297-1.31-1.164-1.953-1.755-.411-.379-.958-.588-1.292-1.063-.103-.145-.301-.234-.37-.388-.471-1.047-1.451-1.385-2.416-1.692-.353-.111-.453-.573-.859-.477-.259-.553-.556-1.074.012-1.665-.969.406-1.646.914-1.592 2.011-.411.41-.87.815-1.263 1.276-.482.564-.952 1.123-1.145 1.903-.14.564-.473 1.134-.866 1.57-.65.723-1.104 1.566-1.663 2.343-.062.087-.15.154-.222.226-.233.738.622 1.244.395 1.925.248.367.567.604.921.726.858.298 1.104 1.086 1.447 1.769.208.412-.268 1.257-.81 1.552a5.4 5.4 0 0 1-1.897.611c-.384.047-.679.294-1.096.271-.729-.04-1.417-.151-2.103-.416-.507-.196-1.051-.336-1.624-.262-.319.04-.648-.013-.971.012-.512.037-.967-.068-1.325-.453-.458-.494-1.126-.476-1.691-.595-.667-.141-1.188-.308-1.388-1.031-.163-.888.249-1.654.809-2.295.337-.387.515-.813.643-1.253.119-.408.224-.808.563-1.058.277-.204.277-.562.532-.765.036-.403-.074-.831.21-1.207.054-.071.087-.205.169-.245.655-.318 1.02-.988 1.603-1.354.523-.33.903-.776 1.344-1.173.342-.309.582-.676.57-1.167a1.07 1.07 0 0 1 .428-.897c.693-.523 1.169-1.258 1.816-1.823.102-.089.172-.202.329-.249.433-.131.735-.502.776-.888.074-.7.625-1.067.975-1.537.492-.661 1.111-1.222 1.504-1.978.5-.963 1.423-1.567 2.141-2.391v-1.11c-.441-.296-.441-.296-1.524-.296-.281.189-.628.263-.853.555-.466.604-1.095.838-1.85.743-.106-.014-.215-.002-.291-.002l-.904-.958c-.241-.397-.178-1.101-.17-1.873-.753.508-1.63.551-2.29 1.104-.989-.003-1.996-.003-3.003-.003m6.905-10.578c-.572-.006-.922-.269-1.237-.602-.336-.355-.697-.639-1.216-.711-.46-.064-.935-.352-1.059-.744-.193-.611-.821-.571-1.115-.973-.567.043-.938-.617-1.543-.43-.063.019-.119.059-.187.093v.431c.372.483.957.806 1.176 1.356.716.374 1.458.256 2.121.278.721.551 1.174 1.181 1.011 2.031.414.583.959.249 1.516.388l.591-.735c.73.256 1.501.343 2.027 1.08v1.965h.729c.793-.704 1.682-1.159 2.771-1.342-.708-.557-1.482-.898-2.02-1.547-.055-.067-.178-.089-.273-.109-.926-.197-1.716-.71-2.614-1.104zM44.23 47.021c-.076-.875.073-1.644-.138-2.552-.32.323-.641.504-.728.763-.21.633-.68 1.031-1.114 1.473-.226.229-.483.435-.676.689-.237.314-.493.649-.331 1.166.89-.732 1.934-1.079 2.987-1.539m-9.93-9.989c.106.021.204.068.233.042.49-.457 1.026-.881 1.428-1.408.154-.202.54-.602.163-.927-.243-.086-.336.043-.414.152-.36.509-.731 1.009-1.209 1.419.115.284-.34.368-.201.722m-8.844-3.075c-.614-.345-.95.101-1.347.316-.626.339-.624.343-.993.83 1.083-.077 1.796-.415 2.34-1.146m4.383 1.606c-.479.597-1.236.869-1.705 1.489-.121.161-.192.283-.004.479.816-.205 1.248-.917 1.829-1.423-.046-.185.077-.378-.12-.545m25.544 20.044c-.302-.273-.436-.828-1.048-.825.093.704.638.674 1.048.825"/>
        <path d="M30.709 47.086c-.117-.355-.391-.319-.56-.387-.872-.351-1.475-.929-1.792-1.815-.154-.43-.489-.738-.818-1.022.923-1.25 2.107-1.631 3.538-1.243.58.157 1.176.206 1.756.434.634.249 1.272.435 1.768.932.058.058.213-.037.32.14.013.584-.078 1.1-.772 1.438-.417.204-.805.448-1.242.639-.402.176-.833.43-1.211.706-.306.22-.628.004-.987.178m.553.963c.448.271.462.612.389 1.023-.271.394-.69.647-1.268.793-.273-.26-.717-.389-.646-.938.284-.664.956-.643 1.525-.878m14.87-18.105h-.715c-.313-.37-.313-.37-.348-.934.337-.456.836-.739 1.349-.994.106-.053.281-.046.401.132-.059.298-.254.58-.262.94-.005.267-.252.528-.425.856"/>
    </g>
</svg>
