<?xml version="1.0" encoding="iso-8859-1"?>
<!-- Generator: Adobe Illustrator 16.0.0, SVG Export Plug-In . SVG Version: 6.00 Build 0)  -->
<!DOCTYPE svg PUBLIC "-//W3C//DTD SVG 1.1//EN" "http://www.w3.org/Graphics/SVG/1.1/DTD/svg11.dtd">
<svg version="1.1" id="Layer_1" xmlns="http://www.w3.org/2000/svg" xmlns:xlink="http://www.w3.org/1999/xlink" x="0px" y="0px"
	 width="72.36px" height="72.18px" viewBox="0 0 72.36 72.18" style="enable-background:new 0 0 72.36 72.18;" xml:space="preserve"
	>
<g>
	
	<path fill="currentColor" d="M27.144,52.317c0.205,0.177,0.289,0.368,0.58,0.296
		c0.043-0.589,0.427-1.063,0.716-1.701c0-0.319,0.01-0.75-0.002-1.18c-0.026-0.905,0.236-1.77,0.477-2.614
		c0.188-0.662,0.337-1.306,0.41-1.992c0.074-0.702,0.29-1.413,0.352-2.1c0.085-0.939,0.617-1.631,0.903-2.447
		c0.301-0.856,0.573-1.706,1.086-2.47c0.149-0.222,0.354-0.386,0.473-0.664c0.352-0.819,0.4-0.798,0.4-1.578
		c-0.357-0.188-0.417-0.603-0.651-0.913c0.162-0.248,0.258-0.532,0.419-0.793c0.383-0.62,0.283-1.208-0.221-1.764
		c-0.749-0.825-1.105-1.839-1.338-3.051c-0.22-0.187-0.544-0.463-0.827-0.704c0.071-0.275-0.055-0.47,0.138-0.635
		c0.08,0.016,0.245,0.012,0.26,0.058c0.079,0.237,0.168,0.456,0.443,0.586c0.156-0.012,0.34,0.004,0.546-0.137
		c0.335-0.23,0.735-0.312,1.171-0.302c1.196,0.026,2.188-0.454,3.019-1.311c0.25-0.257,0.382-0.566,0.494-0.878
		c0.236-0.663,0.46-1.322,0.868-1.91c0.384-0.554,0.764-1.119,1.068-1.717c0.14-0.274,0.393-0.401,0.548-0.653
		c0.459,0,0.93,0.043,1.389-0.013c0.442-0.053,0.779,0.298,1.208,0.23c0.303-0.047,0.525,0.185,0.725,0.321
		c0.396,0.272,0.684,0.685,1.14,0.908c0.219,0.107,0.609,1.228,0.622,1.567c0.01,0.251-0.024,0.507,0.007,0.755
		c0.093,0.736-0.199,1.361-0.621,1.9c-0.421,0.537-0.513,1.161-0.776,1.959c-0.093,0.077-0.339,0.282-0.585,0.486
		c-0.266,0.662-0.18,1.334-0.18,1.995c0,0.404-0.144,0.735-0.415,0.998c-0.189,0.957,0.487,1.599,0.844,2.569
		c0,0.295,0.05,0.801-0.01,1.294c-0.12,0.998,0.252,1.909,0.461,2.841c0.197,0.883,0.276,0.871,0.029,1.681
		c-0.087,0.285-0.136,0.636-0.023,0.829c0.275,0.476,0.151,0.958,0.19,1.437c0.037,0.468-0.062,0.894-0.431,1.248
		c0,0.809,0.016,1.635-0.008,2.46c-0.01,0.335,0.052,0.656-0.167,1.015c-0.151,0.247-0.152,0.722,0.156,1.089
		c0.245,0.292,0.268,0.769,0.505,1.072c0.215,0.276,0.251,0.627,0.137,0.786c-0.313,0.438-0.117,0.894-0.195,1.274
		c0.139,0.166,0.25,0.298,0.328,0.391c0.284,0.049,0.346-0.169,0.54-0.277c0-0.695,0.012-1.408-0.004-2.121
		c-0.018-0.836,0.112-1.642,0.403-2.426c0.047-0.126,0.034-0.278,0.03-0.418c-0.027-1.08,0.097-2.137,0.425-3.171
		c0.063-0.196,0.012-0.43,0.009-0.646c-0.006-0.382,0.019-0.741,0.206-1.104c0.354-0.684,0.194-1.442,0.237-2.21
		c0.279-0.399,0.49-0.856,0.423-1.403c-0.072-0.582,0.146-1.186-0.198-1.758c-0.093-0.155-0.124-0.489,0.118-0.688
		c0.17-0.14,0.033-0.34,0.088-0.517c0.193-0.193,0.397-0.396,0.646-0.644c-0.145-1.08,0.346-2.119,0.452-3.25
		c0.511-0.623,1.405-1.066,1.264-2.129c0.718-0.709,1.433-1.417,2.131-2.108c0.213-1.547,1.167-2.912,0.853-4.581
		c0.533-0.309,0.686-0.895,0.96-1.426c0.374,0,0.732-0.031,1.083,0.008c0.501,0.055,0.976-0.059,1.417-0.238
		c0.401-0.164,0.791-0.231,1.261-0.188c0.587,0.745,1.411,1.266,2.184,1.735c0.199,0.741-0.221,1.497,0.33,2.144
		c0.325,0,0.639,0,0.897,0c0.265,0.2,0.397,0.396,0.311,0.779c-0.982,1.057-2.425,1.792-3.202,3.354c0,0.409,0,0.981,0,1.613
		c1.043,0.663,0.874,1.764,0.835,2.802c0.419,0.079,0.656,0.354,0.864,0.625c0.32,0.419,0.262,1.131-0.164,1.675
		c-0.193,0.248-0.299,0.53-0.467,0.783c0.111,0.458,0.403,0.793,0.76,1.103c0.269,0,0.555,0,0.799,0
		c0.61,0.449,1.189,0.876,1.811,1.333c1.283-0.369,2.194,0.682,3.335,0.95c0.444,0.677,1.139,1.197,1.361,2.104
		c-0.504,0.322-0.662,0.866-0.9,1.341c-0.202,0.403-0.449,0.64-0.843,0.83c-0.39,0.188-0.687,0.217-1.051-0.054
		c-0.139-0.104-0.418-0.017-0.627-0.017c-0.185,0.184-0.362,0.361-0.551,0.55c-0.004,0.307,0.359,0.523,0.239,0.867
		c0.402,0.348,0.294,0.887,0.162,1.194c-0.21,0.495-0.12,0.949-0.171,1.315c0.226,0.483,0.574,0.388,0.9,0.392
		c0.513-0.363,1.021-0.765,1.682-0.861c0.271-0.039,0.495,0.043,0.653,0.462c0,0.194-0.022,0.553,0.005,0.908
		c0.055,0.702-0.261,1.273-0.684,1.763c-0.231,0.267-0.405,0.563-0.581,0.849c-0.286,0.467-0.559,0.93-0.924,1.346
		c-0.617,0.702-1.253,1.389-1.775,2.173c-0.188,0.281-0.431,0.591-0.781,0.693c-0.198,0.058-0.27,0.219-0.415,0.308
		c-0.306,0.186-0.353,0.636-0.638,0.763c-0.353,0.156-0.499,0.495-0.823,0.655c-0.483,0.092-0.909,0.175-1.192,0.754
		c-0.255,0.521-0.815,0.819-1.487,0.782c-0.682-0.038-1.366-0.009-1.968-0.009c-0.424,0.22-0.781,0.404-1.132,0.585
		c-0.918,0.39-1.784-0.379-2.761-0.053c-0.848,0.283-1.763-0.313-2.607-0.069c-0.731-0.439-0.731-0.439-1.384-0.431
		c-0.128,0.128-0.255,0.255-0.386,0.386c-0.35,0.056-0.681,0.022-0.98-0.2c-0.352-0.261-0.729-0.478-1.28-0.566
		c-0.534,0.167-0.907,0.734-1.439,1.219c-0.309-0.105-0.692,0.152-1.053-0.179c-0.12-0.109-0.474-0.124-0.61-0.026
		c-0.479,0.34-1.05,0.294-1.543,0.464c-0.52,0.179-0.901,0.228-1.354-0.042c-0.08-0.047-0.264-0.053-0.312,0.001
		c-0.422,0.475-0.848,0.08-1.228-0.027c-0.573-0.161-1.07-0.311-1.678-0.012c-0.347,0.171-0.848,0.031-1.283,0.031
		c-0.125-0.126-0.251-0.254-0.432-0.437c-0.312,0.094-0.667-0.099-1.057,0.156c-0.219,0.145-0.655,0.127-0.915,0.01
		c-1.099-0.496-2.236-0.677-3.443-0.577c-0.314,0.349-0.743,0.487-1.207,0.406c-0.546-0.095-1.046,0.139-1.521,0.264
		c-0.988,0.259-1.969,0.204-2.942,0.151c-0.792-0.043-1.509,0.347-2.374,0.219c-0.428-0.82-1.26-1.287-2.102-1.688
		c-0.909-0.433-2.217-1.174-2.596-1.783c-0.348-0.558-0.777-1.052-1.125-1.59c-0.257-0.397-0.637-0.654-0.868-1.037
		c-0.607-1.005-1.149-2.051-1.786-3.035c-0.319-0.495-0.406-1.06-0.662-1.565c-0.241-0.475-0.584-0.89-0.657-1.466
		c-0.023-0.182-0.143-0.529-0.412-0.685c-0.318-0.184-0.375-0.573-0.631-0.864c0-0.82,0.01-1.682-0.004-2.543
		c-0.007-0.441,0.125-0.81,0.442-1.114c0.455-0.436,0.848-0.944,1.47-1.19c0.02-1.116,0.99-1.56,1.549-2.289
		c-0.09-0.434,0.411-0.759,0.171-1.243c0.55-0.404,0.876-0.991,1.321-1.561c0-0.29,0-0.644,0-0.907
		c0.143-0.522,0.472-0.842,0.698-1.208c0.272-0.44,0.486-0.858,0.386-1.349c-0.081-0.395,0.382-0.615,0.193-1.003
		c0.404-0.437,0.883-0.796,0.917-1.467c0.02-0.388,0.45-0.591,0.666-0.896c0.446-0.631,0.633-1.278,0.627-1.998
		c0.51-0.609,1.116-1.047,1.895-1.184c0.325-0.057,0.419-0.364,0.685-0.528c0-0.665,0-1.344,0-2.024c0-0.18,0.076-0.42-0.012-0.53
		c-0.601-0.754,0.086-1.291,0.343-1.852c0.129-0.282,0.397-0.563,0.518-0.866c0.239-0.604,0.578-1.077,1.369-1.334
		c0.505,0,1.188-0.006,1.87,0.002c0.565,0.006,1.091,0.062,1.322,0.727c0.122,0.351,0.544,0.38,0.825,0.569
		c0.22,0.028,0.278-0.191,0.458-0.308c0-0.362,0-0.749,0-1.123c0.429-0.109,0.805-0.626,1.268,0.027
		c0.214,0.834-0.359,1.292-1.02,1.667c-0.09,0.975,0.014,1.867,0.38,2.768c0.409,1.006,0.177,1.654-0.614,2.464
		c-0.252,0.257-0.509,0.509-0.766,0.767c-0.443,0.015-0.91-0.081-1.3,0.261c-0.175,0.099-0.068,0.395-0.292,0.479
		c0.359,0.819,0.593,1.697,1.127,2.449c0.286,0.019,0.49,0.371,0.964,0.229c0.272-0.313,0.621-0.715,0.896-1.032
		c0.39-0.023,0.673,0.094,0.772-0.312c0.668,0.433,1.335,0.714,1.821,1.274c0.043,0.627-0.123,1.193-0.409,1.766
		c-0.266,0.533-0.368,1.147-0.535,1.725c-0.119,0.413-0.029,0.909-0.352,1.25c-0.304,0.322-0.263,0.755-0.419,1.125
		c-0.351,0.83-0.35,1.676-0.011,2.518c0.025,0.062,0.003,0.143,0.003,0.307c0.198,0.155,0.448,0.352,0.718,0.563
		c-0.51,0.398-1.03,0.645-1.35,1.121c-0.15,0.767,0.153,1.383,0.754,1.823c0.395,0.289,0.279,0.753,0.501,1.102
		c0.122,0.189-0.026,0.495-0.17,0.771c-0.643,1.234-0.614,1.249,0.194,2.564C27.144,49.141,27.144,50.724,27.144,52.317z
		 M57.325,50.234c0.241-0.214,0.45-0.399,0.682-0.605c-0.133-0.312,0.299-0.548,0.254-0.923c-0.053-0.426,0.011-0.864-0.019-1.294
		c-0.029-0.418,0.181-0.89-0.106-1.244c-0.375-0.464,0.274-0.758,0.121-1.171c-0.046-0.123-0.087-0.259-0.118-0.381
		c-0.101-0.39-0.379-0.733-0.35-0.961c-0.238-0.332-0.403-0.562-0.527-0.733c-0.728-0.091-0.709,0.511-1.035,0.906
		c0.368,0.127,0.276,0.427,0.298,0.704c0.054,0.69-0.006,1.372,0.161,2.081c0.159,0.676,0.183,1.458-0.101,2.192
		C56.318,49.497,56.687,50.073,57.325,50.234z"/>
	
</g>
</svg>
