<svg xmlns="http://www.w3.org/2000/svg" xml:space="preserve" width="72px" height="72px" viewBox="0 0 72 72">
    <g fill="currentColor">
        <path d="M57.6 29.588v-.204c0-1.604-.012-1.696-.666-3.071-.071-.151-.2-.256-.206-.458-.021-.726-.411-1.195-1.067-1.484a4.7 4.7 0 0 1-1.365-.896c-.409-.387-.914-.732-1.528-.712-.33.011-.518-.443-.881-.17-.364-.605-.989-.784-1.592-1.135-.522.054-1.231.027-1.481-.539-.179-.407-.766-.996.056-1.519.192-.208.605-.218.896-.402.606-.386 1.038.125 1.551.17.525.729 1.369.979 2.104 1.394.19-.162.378-.331.28-.667-1.318-1.864-3.339-2.417-5.418-2.747-.587-.268-.583-.856-.833-1.29.345-.833 1.16-1.025 1.875-1.292.533-.198 1.08.103 1.581.315.495.207.994.382 1.506.541.807.251 1.522.677 2.212 1.19.889.664 1.621 1.479 2.417 2.232.456.431.792.941 1.074 1.499.198.388.401.797.694 1.111.444.478.581 1.01.511 1.617.538.432.674 1.114 1.082 1.621.435.54.707 1.127.693 1.886-.01.455.223.978.532 1.381.453.593.828 1.231 1.16 1.9-.17.373-.367.716-.656 1.029-.267.288-.41.688-.657 1.127.218 1.017-.161 2.025-.68 2.952-.283.506-.044.977-.251 1.618-.344.624-.665 1.514-1.241 2.184-.835.974-1.43 2.11-2.276 3.077-.605.69-1.169 1.434-1.883 1.996-.331.26-.433.658-.772.88-.063.042-.009.269-.009.477-1.009.565-1.616 1.579-2.453 2.362a2.76 2.76 0 0 0-1.541.699c-.492.439-.979.867-1.588 1.133-.549.241-.93.82-1.615.802-.079-.002-.151.14-.242.189-.466.262-.816.673-1.449.709-.372.021-.738.462-1.074.75-.371.317-.683.692-1.131.925-.183.095-.315.293-.556.223-.277-.081-.434.183-.675.222-.293-.145-.52-.247-.93-.094-.539.203-1.011.516-1.816.729a3.04 3.04 0 0 0-1.619.37c-.193.109-.48.064-.725.069-.429.01-.859.003-1.209.003-.585.366-1.237.507-1.52 1.076h-.704c-.288-.225-.376-.567-.54-.856.125-.388.324-.74.47-1.109.264-.668.586-1.43 1.36-1.667.541-.165.676-.832 1.034-.806.624-.164 1.066.02 1.434-.297.093-.078.345.084.477.091.999.042 1.932.407 2.871.583.231-.271.088-.533.141-.804-.803-.723-1.733-1.283-2.802-1.827.01 0-.096.007-.201-.001-1.606-.118-3.034.353-4.324 1.296-.438.32-.939.507-1.499.701-.65-.584-1.497-.694-2.368-.977l-.474-.492v-.872c1.037-.283 1.551-1.123 2.035-2.022.797-.105 1.555.279 2.374.234.673-.037 1.279-.135 1.876-.45.609-.322 1.28-.458 1.977-.441.558.012 1.125.052 1.553-.422.999-.183 1.781-.916 2.786-1.102.217-.04.393-.294.611-.336.561-.111.742-.788 1.407-.813.464-.018.915-.365 1.372-.568a3.9 3.9 0 0 0 1.017-.683c.533-.478 1.084-.959 1.749-1.245.213-.091.384-.217.48-.378.167-.278.468-.331.696-.433 1.58-.704 1.629-.661 2.363-1.775.295-.45.71-.735 1.095-1.018.771-.566 1.39-1.229 1.977-1.979.598-.763 1.239-1.495 1.814-2.279.247-.337.382-.688.487-1.1.156-.606.492-1.165.837-1.931M19.858 49.931c.734.263 1.473.516 2.28.473.31-.017.594.019.891.199.637.385 1.391.487 2.105.63.312.063.553.263.861.285.43.619.368 1.207-.17 1.831-.823.211-1.75.416-2.148 1.357.046.248.385.339.022.787.075-.089-.063-.093-.127-.146a7 7 0 0 1-.615-.605c-.613-.678-1.317-1.17-2.236-1.387-.988-.234-1.858-.74-2.68-1.35a31 31 0 0 0-2.431-1.659 4.66 4.66 0 0 1-1.869-2.214c-.157-.383-.444-.696-.752-.986-.478-.453-.82-.946-1.038-1.623-.312-.972-.914-1.851-1.438-2.857 0-.33-.006-.758.002-1.186.007-.413.025-.801.187-1.217.261-.675-.313-1.349-.189-2.06-.548-.642-.083-1.244.112-1.827.19-.57.548-1.088.531-1.72-.006-.228.17-.372.247-.547.242-.552.673-1.015.636-1.688a.7.7 0 0 1 .257-.525c.581-.396.663-1.127 1.133-1.594.365-.363.277-.95.664-1.356.22-.231.407-.544.635-.803.114-.129.249-.226.329-.402.854-1.876 2.229-3.354 3.732-4.708.634-.571 1.382-1.016 2.048-1.565 1.033-.85 2.23-1.488 3.2-2.423.343-.331.775-.604.79-1.19.004-.156.283-.306.458-.48h1.3l.534-.716c.634.163 1.056-.132 1.509-.259.869-.244 1.683-.655 2.591-.787.562-.081.961-.569 1.562-.677.324-.059.654-.17.997-.173.648-.007 1.309.077 1.94-.023.676-.107 1.285-.192 1.909.212.203.131.671.144.828.002.435-.396.908-.027 1.176-.18.553.158.824.479 1.14.752.473.408.964.824 1.639.324.091-.067.275-.009.458-.009.146.863.021 1.605-.737 2.16-.513 0-1.061-.061-1.589.016-.655.094-1.22-.291-1.853-.241-.53-.58-1.023.103-1.538.045-.236.479-.806.333-1.124.595-.788-.185-1.398-.672-2.077-1.15-.187.406-.082.753-.102.976.913 1.324 2.146 1.937 3.629 2.154v1.857c-.279.254-.607.518-1.049.496-1.008-.052-1.767.444-2.517 1.09-1.135-.153-2.081.381-2.964 1.058-.604.463-1.303.699-2.016.866-.616.144-1.158.376-1.609.811-.466.45-.918.914-1.375 1.373-.319.322-.657.554-1.134.661-.731.163-1.424.506-1.908 1.103-.37.457-.962.508-1.374.891-.263.244-.594.362-.76.757-.129.307-.479.524-.739.773-.629.604-1.176 1.27-1.604 2.035-.373.664-.913 1.218-1.401 1.782-.589.679-.732 1.509-1.112 2.252-.029.057.027.166-.008.212-.816 1.062-.609 2.308-.653 3.513-.018.488.393.783.442 1.225.552.338.463.975.62 1.469.25.785.397 1.534 1.25 1.97.475.244.81.746 1.287 1.059.436.285.635.826.7 1.309.048.353.24.628.305.973m8.809 1.236c-.02 1.095-.61 1.969-1.131 2.883h-.528c-.029-.07-.061-.13-.079-.194-.115-.401.124-.759.245-1.087.217-.587.482-1.181.877-1.672.222-.047.429-.133.616.07m18.361-35.345h-1.007c-.166-.401-.461-.769-.232-1.245.491-.139.82.162 1.151.415.142.25.049.499.088.83"/>
        <path d="M40.491 19.982c.136.397-.009.645-.33.835-.288-.15-.654-.18-.925-.623-.028-.066.258-.029.205-.212z"/>
    </g>
</svg>
