<svg xmlns="http://www.w3.org/2000/svg" xml:space="preserve" width="72px" height="72px" viewBox="0 0 72 72">
    <path fill="currentColor" d="M19.594 40.366v-1.048c-.242-.38-.606-.581-1.077-.798-.25 0-.714.138-.939-.035-.278-.215-.597-.104-.863-.311-.216-.169-.556-.159-.869.065-.489.35-1.04.611-1.594.928h-2.029c-.656.292-1.157.742-1.873.658-.249-.029-.428-.188-.656-.256-.655-.195-1.338-.224-1.997-.362-1.1-.23-1.883-.694-2.262-1.769-.011-.03-.049-.051-.075-.076-.109-.561.02-1.09.17-1.628.057-.202.177-.454.254-.531.683-.67 1.239-1.446 1.886-2.144a1.23 1.23 0 0 1 .599-.361c.788-.167 1.296-.621 1.727-1.298.459-.725.943-1.44 1.565-2.065.516-.518 1.134-.777 1.776-.933.324-.078.662-.174.975-.272.717-.224 1.397-.32 2.096.017.059.028.143.004.269.004.313-.412.715-.778 1.061-1.227.626-.813 1.539-1.356 2.447-1.855.686-.377 1.202-.852 1.373-1.686.068-.334.281-.662.715-.899.728-.399 1.146-1.205 1.624-1.889.43-.614.932-1.097 1.664-1.347.18-.391.371-.731.914-.846.474-.099 1.023-.216 1.315-.721.113-.196.444-.037.496-.331.272 0 .523-.018.77.003.568.048.996-.202 1.379-.587.339-.341.633-.702 1.187-.8.273-.048.464-.115.75-.002.46.181.979.189 1.438.003 1.042-.424 2.126-.377 3.202-.322.35.018.756.115 1.069.261.344.161.531.183.843-.035.16-.113.465-.069.711.026.656.252 1.293.545 2.021.616.369.036.789.273 1.05.548.596.625 1.365.905 2.13 1.132a8.8 8.8 0 0 1 2.755 1.404c.723.541 1.349 1.291 1.579 2.235.048.199.165.299.278.427 1.195 1.361 2.286 2.786 2.986 4.483.202.488.619.869.768 1.412.07.254.117.428-.033.671-.195.31-.204.718-.021 1.001.607.935.598 1.963.569 3.005q-.002.162 0 .324c.217.348.344.76.818 1.039.366-.059.819.069 1.313-.179.39-.194.876.035 1.212.393.364.389.772.65 1.347.674.32.013.607.25.882.464.762.596 1.216 1.432 1.734 2.206.425.634.866 1.242 1.341 1.764.552.214 1.112.211 1.584.489.551.325 1.104.646 1.638.996.267.175.409.528.418.785.029.835.19 1.707-.199 2.495-.458.929-.864 1.91-1.839 2.462-.09.051-.159.145-.229.227-.856 1.004-1.993 1.704-2.896 2.661-.299.317-.704.534-1.11.833-1.257-.729-2.646-.441-3.999-.504-.215-.009-.286.182-.446.224-.526-.137-.997-.395-1.459-.657-.593-.338-1.277-.38-1.903-.615-.41-.153-.848-.308-1.168-.55-.506-.381-1.104-.486-1.645-.746-.168-.081-.351-.225-.546-.233-.539-.021-1.079-.007-1.616-.007-1.138.918-2.368 1.697-3.76 2.127-.458.141-.89.33-1.285.546-.532.291-1.122.416-1.657.708-.336.184-.833.074-1.327.099l-.513.46c-.662-.354-1.369-.262-2.065-.267-.684-.005-1.367-.001-2.051-.001-.288 0-.576.009-.863-.003-.239-.009-.442-.165-.656-.241-.792-.281-1.583-.457-2.413-.398-.758-.447-1.47-.939-2.364-1.107-.422-.078-.676-.545-1.075-.774-1.806-1.041-3.074-2.7-4.563-4.105-.201-.634-.911-.921-1.057-1.617-.083-.393-.549-.582-.731-.986-.104-.229-.001-.492-.194-.678-.267-.25-.517-.509-.781-.773m24.111 5.458c1.039.222 1.937-.158 2.755-.808 1.038-.036 2.094-.161 2.984.574.025.022.055.051.086.056 1.595.269 2.862 1.26 4.404 1.945.48 0 1.091-.023 1.699.007.585.029 1.189-.154 1.758.192.132.08.394.05.61-.047.577-.258 1.189-.437 1.758-.708.424-.203.902-.333 1.205-.75.187-.257.496-.374.695-.658.196-.284.58-.467.915-.618a3.36 3.36 0 0 0 1.323-1.057c-.115-.797-.693-1.287-1.299-1.763-.562-.439-1.316-.594-1.756-1.198-.001-.484-.219-.858-.549-1.184-.732-.719-1.445-1.452-2.084-2.261-.139-.175-.114-.411-.378-.563-.636-.367-1.255-.656-2.013-.633-1.038.031-2.077.008-3.09.008-.432-.479-.899-.739-1.502-.918-.564-.168-1.186-.199-1.713-.554-.436-.294-.938-.559-1.444-.662-.553-.113-1.146-.026-1.722-.026h-1.386c-.064.064-.106.14-.167.163-1.401.535-2.495 1.513-3.432 2.622-.478.564-.987 1.095-1.475 1.649.1.378-.199.632-.298.929-.591.189-1.129.521-1.765.477-.779.779-.767.861-1.428.967-.531.085-.955.334-1.383.579-.199.115-.366.177-.579.175-.391-.003-.782 0-1.146 0-.331.369-.624.704-.894 1.071-.282.383-.235.846-.528 1.135.318.433.706.649 1.127.817.431-.355.936-.164 1.312-.214.323.175.558.304.797.428.03.017.073.004.108.004.762-.269 1.31-.3 3.086.875.493-.188.949.224 1.472.205.925.688 1.983.71 3.078.624.274-.279.549-.562.859-.88m-34.51-8.385h1.085c.569-.206.911-.551 1.201-.863.651 0 1.247.093 1.796-.027.51-.11.977-.405 1.52-.495.534-.088 1.021-.616 1.6-.126 1.035.038 2.044.254 3.075.435.301.261.581.555.956.769.353.201.65.517 1.082.517.421 0 .853.481 1.182.195.363-.316.874.028 1.15-.396.032-.05.208-.021.313-.005.488.076.839-.224 1.27-.46h.986c.282-.255.441-.476.203-.843-.321-.495-.556-1.057-1.242-1.096-.328.197-.477.566-.896.692-.377-.224-.964-.129-1.25-.639.836-1.162 1.187-.889 2.874-.885.581.208.305.7.471.998.093.531.623.106.937.622.065.162.283.513.625.731h.63c.525-.442.86-.946.752-1.597.293-.339.788-.396.805-.937-.221-.665-.892-1.07-1.521-1.248-.809-.229-1.315-.734-1.885-1.297.104-.508-.075-1.035-.374-1.413-.577-.734-.701-1.591-.964-2.525-.626-.607-1.41-1.178-2.183-1.743h-.812a14 14 0 0 0-3.014 2.469c-.27.289-.589.537-.832.846-.444.566-1.07.858-1.67 1.191-.545.302-1.189.364-1.714.146-.405-.167-.745-.05-1.044-.146-.23.174-.352.336-.546.445-.672.375-.948.595-1.312 1.201-.295.492-.695.873-1.08 1.277-.219.231-.542.438-.618.711-.108.396-.419.485-.672.554-.808.222-1.426.682-1.944 1.357v.805c.247.369.612.573 1.06.78"/>
</svg>
