<?xml version="1.0" encoding="iso-8859-1"?>
<!-- Generator: Adobe Illustrator 16.0.0, SVG Export Plug-In . SVG Version: 6.00 Build 0)  -->
<!DOCTYPE svg PUBLIC "-//W3C//DTD SVG 1.1//EN" "http://www.w3.org/Graphics/SVG/1.1/DTD/svg11.dtd">
<svg version="1.1" id="Layer_1" xmlns="http://www.w3.org/2000/svg" xmlns:xlink="http://www.w3.org/1999/xlink" x="0px" y="0px"
	 width="72.18px" height="70.921px" viewBox="0 0 72.18 70.921" style="enable-background:new 0 0 72.18 70.921;"
	 xml:space="preserve">
<g>
	
	<path fill="currentColor" d="M19.594,40.366c0-0.349,0-0.704,0-1.048
		c-0.242-0.38-0.606-0.581-1.077-0.798c-0.25,0-0.714,0.138-0.939-0.035c-0.278-0.215-0.597-0.104-0.863-0.311
		c-0.216-0.169-0.556-0.159-0.869,0.065c-0.489,0.35-1.04,0.611-1.594,0.928c-0.679,0-1.399,0-2.029,0
		c-0.656,0.292-1.157,0.742-1.873,0.658c-0.249-0.029-0.428-0.188-0.656-0.256c-0.655-0.195-1.338-0.224-1.997-0.362
		c-1.1-0.23-1.883-0.694-2.262-1.769c-0.011-0.03-0.049-0.051-0.075-0.076c-0.109-0.561,0.02-1.09,0.17-1.628
		c0.057-0.202,0.177-0.454,0.254-0.531c0.683-0.67,1.239-1.446,1.886-2.144c0.154-0.166,0.382-0.315,0.599-0.361
		c0.788-0.167,1.296-0.621,1.727-1.298c0.459-0.725,0.943-1.44,1.565-2.065c0.516-0.518,1.134-0.777,1.776-0.933
		c0.324-0.078,0.662-0.174,0.975-0.272c0.717-0.224,1.397-0.32,2.096,0.017c0.059,0.028,0.143,0.004,0.269,0.004
		c0.313-0.412,0.715-0.778,1.061-1.227c0.626-0.813,1.539-1.356,2.447-1.855c0.686-0.377,1.202-0.852,1.373-1.686
		c0.068-0.334,0.281-0.662,0.715-0.899c0.728-0.399,1.146-1.205,1.624-1.889c0.43-0.614,0.932-1.097,1.664-1.347
		c0.18-0.391,0.371-0.731,0.914-0.846c0.474-0.099,1.023-0.216,1.315-0.721c0.113-0.196,0.444-0.037,0.496-0.331
		c0.272,0,0.523-0.018,0.77,0.003c0.568,0.048,0.996-0.202,1.379-0.587c0.339-0.341,0.633-0.702,1.187-0.8
		c0.273-0.048,0.464-0.115,0.75-0.002c0.46,0.181,0.979,0.189,1.438,0.003c1.042-0.424,2.126-0.377,3.202-0.322
		c0.35,0.018,0.756,0.115,1.069,0.261c0.344,0.161,0.531,0.183,0.843-0.035c0.16-0.113,0.465-0.069,0.711,0.026
		c0.656,0.252,1.293,0.545,2.021,0.616c0.369,0.036,0.789,0.273,1.05,0.548c0.596,0.625,1.365,0.905,2.13,1.132
		c1.016,0.302,1.94,0.795,2.755,1.404c0.723,0.541,1.349,1.291,1.579,2.235c0.048,0.199,0.165,0.299,0.278,0.427
		c1.195,1.361,2.286,2.786,2.986,4.483c0.202,0.488,0.619,0.869,0.768,1.412c0.07,0.254,0.117,0.428-0.033,0.671
		c-0.195,0.31-0.204,0.718-0.021,1.001c0.607,0.935,0.598,1.963,0.569,3.005c-0.002,0.108,0,0.216,0,0.324
		c0.217,0.348,0.344,0.76,0.818,1.039c0.366-0.059,0.819,0.069,1.313-0.179c0.39-0.194,0.876,0.035,1.212,0.393
		c0.364,0.389,0.772,0.65,1.347,0.674c0.32,0.013,0.607,0.25,0.882,0.464c0.762,0.596,1.216,1.432,1.734,2.206
		c0.425,0.634,0.866,1.242,1.341,1.764c0.552,0.214,1.112,0.211,1.584,0.489c0.551,0.325,1.104,0.646,1.638,0.996
		c0.267,0.175,0.409,0.528,0.418,0.785c0.029,0.835,0.19,1.707-0.199,2.495c-0.458,0.929-0.864,1.91-1.839,2.462
		c-0.09,0.051-0.159,0.145-0.229,0.227c-0.856,1.004-1.993,1.704-2.896,2.661c-0.299,0.317-0.704,0.534-1.11,0.833
		c-1.257-0.729-2.646-0.441-3.999-0.504c-0.215-0.009-0.286,0.182-0.446,0.224c-0.526-0.137-0.997-0.395-1.459-0.657
		c-0.593-0.338-1.277-0.38-1.903-0.615c-0.41-0.153-0.848-0.308-1.168-0.55c-0.506-0.381-1.104-0.486-1.645-0.746
		c-0.168-0.081-0.351-0.225-0.546-0.233c-0.539-0.021-1.079-0.007-1.616-0.007c-1.138,0.918-2.368,1.697-3.76,2.127
		c-0.458,0.141-0.89,0.33-1.285,0.546c-0.532,0.291-1.122,0.416-1.657,0.708c-0.336,0.184-0.833,0.074-1.327,0.099
		c-0.129,0.116-0.309,0.277-0.513,0.46c-0.662-0.354-1.369-0.262-2.065-0.267c-0.684-0.005-1.367-0.001-2.051-0.001
		c-0.288,0-0.576,0.009-0.863-0.003c-0.239-0.009-0.442-0.165-0.656-0.241c-0.792-0.281-1.583-0.457-2.413-0.398
		c-0.758-0.447-1.47-0.939-2.364-1.107c-0.422-0.078-0.676-0.545-1.075-0.774c-1.806-1.041-3.074-2.7-4.563-4.105
		c-0.201-0.634-0.911-0.921-1.057-1.617c-0.083-0.393-0.549-0.582-0.731-0.986c-0.104-0.229-0.001-0.492-0.194-0.678
		C20.108,40.889,19.858,40.63,19.594,40.366z M43.705,45.824c1.039,0.222,1.937-0.158,2.755-0.808
		c1.038-0.036,2.094-0.161,2.984,0.574c0.025,0.022,0.055,0.051,0.086,0.056c1.595,0.269,2.862,1.26,4.404,1.945
		c0.48,0,1.091-0.023,1.699,0.007c0.585,0.029,1.189-0.154,1.758,0.192c0.132,0.08,0.394,0.05,0.61-0.047
		c0.577-0.258,1.189-0.437,1.758-0.708c0.424-0.203,0.902-0.333,1.205-0.75c0.187-0.257,0.496-0.374,0.695-0.658
		c0.196-0.284,0.58-0.467,0.915-0.618c0.519-0.235,0.945-0.565,1.323-1.057c-0.115-0.797-0.693-1.287-1.299-1.763
		c-0.562-0.439-1.316-0.594-1.756-1.198c-0.001-0.484-0.219-0.858-0.549-1.184c-0.732-0.719-1.445-1.452-2.084-2.261
		c-0.139-0.175-0.114-0.411-0.378-0.563c-0.636-0.367-1.255-0.656-2.013-0.633c-1.038,0.031-2.077,0.008-3.09,0.008
		c-0.432-0.479-0.899-0.739-1.502-0.918c-0.564-0.168-1.186-0.199-1.713-0.554c-0.436-0.294-0.938-0.559-1.444-0.662
		c-0.553-0.113-1.146-0.026-1.722-0.026c-0.467,0-0.933,0-1.386,0c-0.064,0.064-0.106,0.14-0.167,0.163
		c-1.401,0.535-2.495,1.513-3.432,2.622c-0.478,0.564-0.987,1.095-1.475,1.649c0.1,0.378-0.199,0.632-0.298,0.929
		c-0.591,0.189-1.129,0.521-1.765,0.477c-0.779,0.779-0.767,0.861-1.428,0.967c-0.531,0.085-0.955,0.334-1.383,0.579
		c-0.199,0.115-0.366,0.177-0.579,0.175c-0.391-0.003-0.782,0-1.146,0c-0.331,0.369-0.624,0.704-0.894,1.071
		c-0.282,0.383-0.235,0.846-0.528,1.135c0.318,0.433,0.706,0.649,1.127,0.817c0.431-0.355,0.936-0.164,1.312-0.214
		c0.323,0.175,0.558,0.304,0.797,0.428C35.132,45.013,35.175,45,35.21,45c0.762-0.269,1.31-0.3,3.086,0.875
		c0.493-0.188,0.949,0.224,1.472,0.205c0.925,0.688,1.983,0.71,3.078,0.624C43.12,46.425,43.395,46.142,43.705,45.824z
		 M9.195,37.439c0.346,0,0.777,0,1.085,0c0.569-0.206,0.911-0.551,1.201-0.863c0.651,0,1.247,0.093,1.796-0.027
		c0.51-0.11,0.977-0.405,1.52-0.495c0.534-0.088,1.021-0.616,1.6-0.126c1.035,0.038,2.044,0.254,3.075,0.435
		c0.301,0.261,0.581,0.555,0.956,0.769c0.353,0.201,0.65,0.517,1.082,0.517c0.421,0,0.853,0.481,1.182,0.195
		c0.363-0.316,0.874,0.028,1.15-0.396c0.032-0.05,0.208-0.021,0.313-0.005c0.488,0.076,0.839-0.224,1.27-0.46
		c0.308,0,0.662,0,0.986,0c0.282-0.255,0.441-0.476,0.203-0.843c-0.321-0.495-0.556-1.057-1.242-1.096
		c-0.328,0.197-0.477,0.566-0.896,0.692c-0.377-0.224-0.964-0.129-1.25-0.639c0.836-1.162,1.187-0.889,2.874-0.885
		c0.581,0.208,0.305,0.7,0.471,0.998c0.093,0.531,0.623,0.106,0.937,0.622c0.065,0.162,0.283,0.513,0.625,0.731
		c0.234,0,0.446,0,0.63,0c0.525-0.442,0.86-0.946,0.752-1.597c0.293-0.339,0.788-0.396,0.805-0.937
		c-0.221-0.665-0.892-1.07-1.521-1.248c-0.809-0.229-1.315-0.734-1.885-1.297c0.104-0.508-0.075-1.035-0.374-1.413
		c-0.577-0.734-0.701-1.591-0.964-2.525c-0.626-0.607-1.41-1.178-2.183-1.743c-0.324,0-0.637,0-0.812,0
		c-1.191,0.73-2.151,1.542-3.014,2.469c-0.27,0.289-0.589,0.537-0.832,0.846c-0.444,0.566-1.07,0.858-1.67,1.191
		c-0.545,0.302-1.189,0.364-1.714,0.146c-0.405-0.167-0.745-0.05-1.044-0.146c-0.23,0.174-0.352,0.336-0.546,0.445
		c-0.672,0.375-0.948,0.595-1.312,1.201c-0.295,0.492-0.695,0.873-1.08,1.277c-0.219,0.231-0.542,0.438-0.618,0.711
		c-0.108,0.396-0.419,0.485-0.672,0.554c-0.808,0.222-1.426,0.682-1.944,1.357c0,0.245,0,0.532,0,0.805
		C8.382,37.028,8.747,37.232,9.195,37.439z"/>
	
	
</g>
</svg>
