<svg xmlns="http://www.w3.org/2000/svg" data-name="Layer 1" width="72px" height="72px" viewBox="0 0 72 72">
    <g fill="currentColor">
        <path d="M15.5 56.4c0-.3.1-.6.3-.8l2.1-2.1c.6-.7 1.2-1.4 1.8-2 .4-.4.8-.7 1.2-1.1.3-.2.6-.4.8-.7.4-1.3 1.5-2 2.4-2.8.3-.3.6-.7.9-1l2.3-2.3c1.2-1.2 2.4-2.5 3.7-3.7.3-.3.8-.6 1.1-.9.4-.3.8-.6 1-1 .7-1.2 1.5-2.2 2.8-2.8.2-.1.4-.3.5-.5.5-1.2 1.8-1.8 2.7-2.7 1.2-1.2 2.4-2.3 3.6-3.5 0 0 0-.1.1-.2 1.3-1.2 2.5-2.4 3.8-3.7.6-.6 1.1-1.3 1.7-2 .3-.3.6-.7.9-.8.8-.3 1.2-.8 1.6-1.5.4-.6.2-1.1-.4-1.5-.2-.2-.5-.4-.6-.7q-.45-1.05-1.5-1.5c-.3-.1-.5-.3-.8-.5-.8-.6-.8-1.2 0-1.9.2-.2.4-.5.6-.7.5-.6 1-.5 1.5 0 .4.5.9.9 1.4 1.3.2.1.4.3.4.5.3.7 1 1.1 1.7 1.4.2.1.6.1.8 0l1.8-.9c.6-.3 1-.8 1.3-1.5.2-.4.6-.7.9-1s.6-.7.8-1l.3-.6c.6-1.4 1.9-1.9 3.3-2.1h.2c.7.1 1.9 1.9 1.8 2.6-.1.5-.2 1-.2 1.4 0 .6-.3.8-.9.9-1.6.4-3.1.9-4.2 2.3-.2.3-.5.6-.8.7-1.3.7-1.8 2.3-.9 3.5.6.8 1.4 1.5 2.1 2.3.4.5.8 1.1 1.1 1.7v.3c-.2.9-1 .8-1.6 1.2-.2.1-.7 0-.9-.2-.6-.7-1.1-1.5-1.8-2.1-.6-.6-1.3-1.1-2-1.5-.2-.1-.6 0-.8.2-.8.7-1.6 1.4-2.3 2.1-1 1-2 2.1-3.1 3.1-.2.2-.4.4-.5.7-.4 1-1.3 1.5-2 2.2-1.3 1.4-2.9 2.5-3.9 4.1-.2.3-.5.5-.8.6-1 .4-1.5 1.1-2 2-.2.4-.6.8-1 1.2-.4.3-.8.5-1.2.9-1.1 1-2.4 2-3.2 3.2-1 1.4-2.3 2.5-3.3 3.8-.5.7-1.3 1.2-2 1.8-.1 0-.3.2-.3.3-.4 1-1.3 1.4-2.1 1.9-.5.3-.9.9-1.4 1.3-.6.5-1.1 1.1-1.7 1.6-.8.7-1.6 1.4-2.4 2.2-.5.5-1 1.2-1.4 1.8-.3.4-1.7 1.2-2.2 1.1-.2 0-.5-.2-.5-.4-.2-.6-.4-1.3-.6-1.9Z"/>
        <path d="M12.1 25c0-.7.4-1.4 1.1-1.7 1.3-.6 1.8-1.9 2.5-2.9.5-.7 0-1.9-.9-2.4-.6-.3-.9-.8-1.3-1.2-.7-.8-1.5-1.8-2.8-1.8-.2 0-.4-.1-.6-.1-1-.1-1.6-.5-1.5-1.6 0-.2 0-.3-.1-.5 0-.4-.4-1-.2-1.3.3-.6.9-1.2 1.4-1.7.1-.1.6 0 .8 0 .3 0 .5.3.8.3 1.4 0 1.9 1 2.3 2 .3.8.6 1.5 1.4 1.9 0 0 .2 0 .2.2.7 1.3 1.9 1.8 3 2.6.5.4 1 .5 1.5 0 .5-.4 1-.9 1.4-1.4.1-.1.2-.3.3-.3.7-.3 1.3-.9 1.7-1.5.3-.4.7-.4 1 0 .1.2.3.4.4.5.7.7.8 1.5 0 2-.7.5-1.2 1.1-1.6 1.8-.1.2-.4.4-.6.6-.7.5-.8 1.3-.3 2 .4.6 1 1.1 1.5 1.6 0 .1.2.2.3.3.5.6 1 1.2 1.5 1.7.6.7 1.3 1.4 1.9 2 .2.2.4.5.7.6 1 .5 1.7 1.2 2.3 2.1.4.6 1 1 1.5 1.5.7.6 1.4 1.2 2 1.9.6.6.6 1.1 0 1.7L32.6 35c-.6.6-1.1.6-1.7 0-.5-.4-1-.7-1.5-1.1-.1 0-.3-.2-.3-.3-.7-1.2-1.7-2-2.8-2.8l-.6-.6c-.8-1.1-1.5-2.1-2.3-3.2 0-.1-.2-.3-.3-.4-1.1-1-2.3-2-3.3-3.1-.8-.9-1.4-1.1-2.5-.4-1 .7-2 1.3-2.7 2.4-.3.4-.6.8-1.2.6s-1.3-.9-1.3-1.4Zm24.6 35c1.5-.3 2.9-.6 4-1.5.6-.6 1.3-1.1 1.9-1.7.7-.7 1.4-1.5 2.2-2.3.4-.3.8-.6 1.2-.8.2 0 .6 0 .8.2.1.1.2.6 0 .7-.4.6-.9 1.1-1.4 1.7-.2.2-.5.4-.7.6-.8 1.2-1.9 2-3 2.9-1 .8-2.2 1.1-3.2 1.8-.6.5-1.6.8-2.5.8s-1.8-.5-2.7-.8c-.5-.2-1-.4-1.4-.7-.8-.5-1.6-1.1-2.4-1.7-.8-.7-1.6-1.5-2.4-2.3-.6-.6-1.1-1.2-1.6-1.8s-.6-1.1 0-1.7c.9-1 1.8-1.9 2.8-2.9l2.3-2.3c.3-.3.6-.6.8-.9.6-.6 1.1-1.3 1.7-1.9s1.2-1.3 1.9-1.8c.7-.6 1.3-.3 1.4.7V60Z"/>
        <path d="M17.1 30.8V30c.1-1.1.2-1.2 1.3-1.4.3 0 .5 0 .7-.2.8-.3 1.6-.1 2.3.3.9.6 1.8 1.3 2.6 2l5.4 5.4c.7.7.8 1.1 0 1.8-1.6 1.6-3.3 3.2-4.9 4.7-.9.9-1.7 1.8-2.6 2.6-.7.7-1.2.6-1.6-.3-.2-.5-.5-.9-.7-1.4-.3-.9-.5-1.7-.7-2.6 0-.4 0-.8-.3-1.1-.6-1-.7-2.1-.8-3.2-.2-1.8-.5-3.5-.8-5.3v-.7Zm40 25.9c0 .4 0 .9-.1 1.3-.1.7-.6.9-1.2.6-.8-.5-1.7-.9-2.2-1.8-.3-.5-1-.7-1.4-1.2-.4-.4-.9-.8-1.2-1.3-.5-.6-1-1.2-1.8-1.5-.2 0-.5-.3-.7-.5l-10-10c-.7-.7-.7-1.4 0-2l.9-.9q.9-.75 1.8 0c.1.1.2.2.3.4 1 1.5 2.4 2.6 3.7 3.8.5.5 1.1.9 1.6 1.4 0 0 .2.2.2.3.3 1 1 1.5 1.8 2.1.6.5 1.1 1.2 1.5 1.8s.8 1.1 1.5 1.3c.3.1.6.4.8.7.3.3.6.7.9 1.1 1 1 2 2 2.9 3.1.3.4.5.9.7 1.4H57ZM36.6 27v3c0 .8-.5 1.3-1.2.9-.8-.4-1.5-1.1-2.2-1.7-.6-.6-1.1-1.4-1.8-1.9-1.2-1-1.2-1.9.2-2.6 1.3-.6 2.7-1.1 4-1.6.3-.1.7 0 1.1 0l3.9 1.5s.2 0 .3.1c.3.3.9.6.8.8 0 .4-.5.8-.8 1-.3.1-.9 0-1.2-.2q-1.05-.9-2.4-.9c-.8 0-.8 0-.8.8v.6h.1ZM52 28.2c.9.1 1.5.2 2.1.3.3 0 .6.4.6.6.2 1 .4 2 0 3 0 .1-.1.3 0 .4.4 2-.7 3.8-.7 5.8 0 .8-.5 1.7-.8 2.5-.5 1.5-.9 3-1.4 4.5 0 .2-.3.4-.5.6-.2-.2-.5-.5-.4-.7 0-.6 0-1.2.3-1.6.5-.9.7-1.8.8-2.8.2-1.6.5-3.2.7-4.8.2-1.4.4-2.9.5-4.3 0-1-.7-1.5-1.7-1.2-.5.2-1.1.2-1.4-.4-.3-.5 0-1 .4-1.3.6-.4 1.2-.6 1.6-.7Z"/>
    </g>
</svg>
