<?xml version="1.0" encoding="iso-8859-1"?>
<!-- Generator: Adobe Illustrator 16.0.0, SVG Export Plug-In . SVG Version: 6.00 Build 0)  -->
<!DOCTYPE svg PUBLIC "-//W3C//DTD SVG 1.1//EN" "http://www.w3.org/Graphics/SVG/1.1/DTD/svg11.dtd">
<svg version="1.1" id="Layer_1" xmlns="http://www.w3.org/2000/svg" xmlns:xlink="http://www.w3.org/1999/xlink" x="0px" y="0px"
	 width="72.36px" height="72.18px" viewBox="0 0 72.36 72.18" style="enable-background:new 0 0 72.36 72.18;" xml:space="preserve"
	>
<g>
	<path style="fill-rule:evenodd;clip-rule:evenodd;fill:none;" d="M-6.984,79.631c0-28.871,0-57.743,0-86.615
		c28.8,0,57.6,0,86.399,0c0,28.872,0,57.744,0,86.615C50.616,79.631,21.816,79.631-6.984,79.631z M23.655,28.794
		c0.992,0.732,1.323,1.654,1.343,2.752c0.007,0.399-0.205,0.74-0.205,1.099c0,0.358,0.274,0.698,0.194,1.099
		c-0.053,0.266-0.057,0.533-0.125,0.806c-0.122,0.487-0.509,1.025-0.284,1.486c0.467,0.957,0.056,1.831-0.103,2.721
		c-0.128,0.721-0.146,1.347-0.008,2.04c0.105,0.527,0.454,1.047,0.266,1.594c-0.22,0.641-0.44,1.326-1.061,1.714
		c-0.606,0.379-1.038,0.955-1.605,1.353c-0.264,0.185-0.419,0.362-0.603,0.607c-0.206,0.274-0.326,0.611-0.577,0.843
		c-0.06,0.804,0.084,1.604-0.202,2.405c-0.188,0.525,0.163,1.093,0.171,1.631c0.017,1.119,0.549,2.095,0.737,3.159
		c0.46,0.447,0.356,1.025,0.365,1.576c0.003,0.18,0.004,0.36,0,0.54c-0.015,0.708,0.146,1.324,0.604,1.918
		c0.377,0.488,0.694,1.077,0.708,1.709c0.366,0.508,0.89,0.823,1.17,1.39c0.14,0.283,0.458,0.507,0.768,0.701
		c0.485,0.305,0.976,0.593,1.488,0.852c0.212-0.101,0.461-0.158,0.626-0.307c0.454-0.41,0.873-0.857,1.307-1.292
		c0-0.601,0-1.202,0-1.804c-0.502-0.354-0.787-0.905-1.379-1.16c-0.717-0.311-1.271-0.824-1.22-1.641
		c-0.323-0.317-0.579-0.57-0.838-0.824c0.171-0.354-0.267-0.561-0.209-0.883c0.107-0.605-0.161-1.163-0.214-1.747
		c-0.024-0.275-0.292-0.445-0.234-0.776c0.099-0.566-0.25-0.979-0.63-1.346c0-0.291,0-0.578,0-0.892
		c0.554-0.419,0.938-0.998,1.292-1.599c0.321-0.544,0.773-0.872,1.425-0.853c1.009,0.03,1.93-0.396,2.899-0.575
		c0.43-0.078,0.826-0.011,1.226-0.087c0.229,0.253,0.42,0.466,0.62,0.687c0.377-0.126,0.673,0.106,1.003,0.174
		c0.365,0.075,0.771-0.056,1.024,0.265c0.759-0.348,1.016-0.339,1.916,0.035c0.282,0.707,0.262,0.702,0.064,1.541
		c-0.077,0.328-0.182,0.682-0.204,0.984c-0.067,0.942-0.358,1.86-0.265,2.824c0.098,1.009-0.218,1.981-0.663,2.849
		c-0.489,0.953-0.848,1.956-1.286,2.831c-0.53,0.291-0.934,0.656-1.438,0.868c-0.24,0.101-0.45,0.362-0.519,0.743
		c-0.11,0.613-0.401,1.194-0.643,1.864c0.193,0.146,0.417,0.316,0.723,0.549c0.517,0.021,1.193-0.097,1.818,0.216
		c0.486,0.243,0.994,0.257,1.581,0.171c0.535-0.812,0.274-2.068,1.305-2.625c0-0.401,0-0.76,0-1.115
		c0.284-0.283,0.529-0.615,0.852-0.831c0.442-0.295,0.943-0.502,1.477-0.776c1.247-0.014,1.247-0.014,2.136-1.004
		c0.444-0.683,0.23-1.438,0.294-2.143c0.466-0.56,1.273-0.706,1.633-1.262c0.354-0.547,1.054-0.954,0.934-1.809
		c-0.676-0.443-1.384-0.908-2.095-1.376c-0.365,0-0.719,0-0.831,0c-0.297-0.151-0.418-0.213-0.465-0.237
		c0.22-0.494,0.472-0.905,0.585-1.352c0.272-1.073,0.51-2.152,0.851-3.211c0.1-0.306,0.26-0.609,0.458-0.651
		c0.647-0.135,1.039-0.794,1.731-0.788c0.219,0.003,0.45-0.174,0.528-0.254c0.665-0.69,1.592-1.101,2.129-1.899
		c0.255-0.38,0.517-0.674,0.881-0.83c0.946,0.339,1.343,1.193,1.84,1.92c0.362,0.529,0.509,1.181,0.464,1.86
		c-0.015,0.235-0.24,0.318-0.238,0.558c0.009,0.946,0.104,1.902-0.415,3.118c-0.45,0.595-1.535,0.896-2.361,1.558
		c-0.328,0.264-0.631,0.524-0.889,0.854c-0.67,0.856-1.08,1.849-1.511,2.831c-0.109,0.249-0.164,0.517-0.244,0.766
		c-0.181,0.566-0.126,1.229-0.591,1.695c-0.205,0.831,0.408,1.489,0.442,2.229c0.493,0.496,1.003,0.586,1.592,0.286
		c0.593-0.302,1.184-0.619,1.805-0.854c0.508-0.192,0.895-0.461,1.102-1.188c0-0.107-0.041-0.437,0.01-0.751
		c0.061-0.376-0.253-0.655-0.215-0.99c0.046-0.4-0.476-0.434-0.445-0.791c0.06-0.286,0.354-0.384,0.458-0.68
		c0.319-0.901,1.097-1.354,1.958-1.649c0.16-0.055,0.335-0.029,0.466-0.186c0.938-1.121,2.197-1.902,3.212-3.011
		c-0.185-0.622-0.06-1.268,0.196-1.822c0.349-0.756,0.439-1.513,0.41-2.315c-0.015-0.432,0.041-0.869-0.015-1.294
		c-0.057-0.442,0.3-0.779,0.236-1.209c-0.004-0.028,0.104-0.073,0.161-0.11c0.265-0.021,0.338,0.215,0.481,0.359
		c-0.029,0.672,0.14,1.259,0.537,1.833c0.354,0.513,0.544,1.14,0.776,1.648c0.762,0.218,1.382-0.371,2.037-0.153
		c0.599,0.198,1.291,0.149,1.776,0.597c0.636,0.304,1.159-0.206,1.759-0.189c0.604,0.017,1.024-0.334,1.319-0.841
		c0.287-0.493,0.57-0.988,0.78-1.352c0.384-1.367-0.35-2.127-1.177-2.815c-0.088-0.606-0.207-1.172-0.693-1.589
		c-0.003-1.083,0.313-2.145,0.245-3.251c-0.065-1.084-0.425-2.143-0.21-3.198c-0.856-0.668-0.454-1.745-0.955-2.447
		c-1.038-0.42-1.566-1.489-2.467-1.946c-1.035-0.525-1.478-1.535-2.365-2.217c-0.337,0.22-0.592-0.384-0.919-0.191
		c-0.538,0.317-1.096,0.145-1.63,0.21c-0.218-0.284-0.616-0.258-0.778-0.654c-0.395-0.96-1.119-1.619-2.095-2.017
		c-0.712-0.291-1.323-0.742-1.76-1.357c0-0.379,0-0.735,0-1.043c0.409-0.713,1.062-1.28,0.816-2.21
		c-0.508-0.634-0.865-1.402-1.247-2.148c-0.188-0.368-0.41-0.572-0.771-0.751c-0.681-0.337-1.35-0.721-1.852-1.471
		c0-0.347,0-0.805,0-1.243c-0.269-0.168-0.388-0.426-0.691-0.531c-0.266-0.093-0.529-0.33-0.594-0.681
		c-0.121-0.66-0.725-0.909-1.188-1.195c-0.468-0.289-0.994-0.589-1.636-0.489c-0.455,0.071-0.931,0.014-1.547,0.014
		c-0.058,0.103-0.165,0.293-0.295,0.524c-1.321-0.305-2.656-0.197-3.856-0.497c-0.332-0.482-0.214-1.079-0.686-1.342
		c-0.761-0.424-1.265-1.121-1.9-1.687c-0.584,0.022-1.116-0.341-1.729-0.247c-0.579,0.089-1.137,0.356-1.727,0.206
		c-0.411,0.458-0.945,0.698-1.418,1.023c-0.283,0.71-0.308,1.526-0.852,2.114c-0.108,0.938,0.185,1.765,0.696,2.561
		c-0.226,0.218-0.425,0.412-0.598,0.579c-0.805,0.037-1.589-0.052-1.992-0.731c-0.376-0.633-0.883-1.044-1.489-1.419
		c-0.217,0.022-0.47-0.074-0.796,0.121c-0.104,0.295-0.33,0.669-0.345,1.052c-0.017,0.435-0.142,0.801-0.323,1.174
		c-0.24,0-0.481,0-0.692,0c-0.482-0.448-0.853-0.99-1.738-1.094c0.021,0.004-0.047,0.159-0.164,0.225
		c-0.824,0.468-0.964,0.881-0.562,1.732c0.213,0.451,0.435,0.899,0.683,1.412c-0.431,0.244-0.459,0.859-0.905,1.079
		c-0.461,0.227-0.751,0.597-0.993,0.809c-0.245,0.934,0.046,1.576,0.623,2.086c-0.27,0.813-0.557,1.539-0.519,2.364
		c0.016,0.338-0.093,0.763-0.217,1.084c-0.213,0.549-0.033,1.203-0.412,1.66c-0.551,0.663-0.511,1.518-0.825,2.255
		c-0.113,0.265-0.014,0.641,0.144,0.999c0.248,0.567,0.595,1.001,0.984,1.355c0.731,0.085,1.309,0.545,2.03,0.488
		c0.711-0.057,1.429-0.013,2.095-0.013C23.128,30.275,23.038,29.384,23.655,28.794z M10.112,32.903
		c0.189-0.422,0.654-0.307,0.718-0.457c0.208-0.534,0.061-0.757-0.196-0.965c-0.29,0-0.602,0-0.876,0
		c-0.325,0.188-0.367,0.451-0.313,0.744C9.622,32.405,9.797,32.583,10.112,32.903z"/>
	<path style="fill-rule:evenodd;clip-rule:evenodd;" d="M23.655,28.794c-0.617,0.59-0.527,1.481-1.168,2.021
		c-0.666,0-1.384-0.044-2.095,0.013c-0.721,0.057-1.299-0.403-2.03-0.488c-0.389-0.354-0.736-0.788-0.984-1.355
		c-0.157-0.358-0.256-0.734-0.144-0.999c0.314-0.737,0.274-1.592,0.825-2.255c0.379-0.457,0.199-1.11,0.412-1.66
		c0.125-0.321,0.233-0.746,0.217-1.084c-0.038-0.825,0.25-1.551,0.519-2.364c-0.576-0.51-0.867-1.152-0.623-2.086
		c0.242-0.212,0.532-0.582,0.993-0.809c0.446-0.22,0.474-0.834,0.905-1.079c-0.248-0.512-0.469-0.96-0.683-1.412
		c-0.402-0.851-0.262-1.265,0.562-1.732c0.117-0.066,0.185-0.221,0.164-0.225c0.886,0.104,1.256,0.646,1.738,1.094
		c0.211,0,0.452,0,0.692,0c0.181-0.373,0.306-0.739,0.323-1.174c0.015-0.382,0.241-0.757,0.345-1.052
		c0.327-0.195,0.58-0.099,0.796-0.121c0.606,0.375,1.113,0.786,1.489,1.419c0.403,0.679,1.187,0.768,1.992,0.731
		c0.172-0.167,0.372-0.36,0.598-0.579c-0.511-0.796-0.805-1.623-0.696-2.561c0.544-0.588,0.569-1.404,0.852-2.114
		c0.473-0.326,1.007-0.565,1.418-1.023c0.59,0.15,1.148-0.116,1.727-0.206c0.613-0.095,1.145,0.269,1.729,0.247
		c0.635,0.566,1.14,1.263,1.9,1.687c0.472,0.263,0.354,0.86,0.686,1.342c1.2,0.3,2.535,0.192,3.856,0.497
		c0.13-0.231,0.237-0.422,0.295-0.524c0.616,0,1.092,0.057,1.547-0.014c0.642-0.1,1.168,0.201,1.636,0.489
		c0.463,0.286,1.066,0.535,1.188,1.195c0.064,0.351,0.328,0.588,0.594,0.681c0.304,0.105,0.423,0.363,0.691,0.531
		c0,0.438,0,0.896,0,1.243c0.502,0.75,1.171,1.133,1.852,1.471c0.361,0.179,0.584,0.383,0.771,0.751
		c0.382,0.746,0.739,1.514,1.247,2.148c0.245,0.931-0.407,1.497-0.816,2.21c0,0.308,0,0.664,0,1.043
		c0.437,0.616,1.048,1.067,1.76,1.357c0.976,0.397,1.7,1.057,2.095,2.017c0.162,0.396,0.561,0.37,0.778,0.654
		c0.534-0.065,1.092,0.107,1.63-0.21c0.327-0.193,0.582,0.411,0.919,0.191c0.888,0.682,1.33,1.692,2.365,2.217
		c0.9,0.457,1.429,1.525,2.467,1.946c0.501,0.703,0.099,1.779,0.955,2.447c-0.215,1.055,0.145,2.114,0.21,3.198
		c0.067,1.106-0.248,2.168-0.245,3.251c0.486,0.417,0.605,0.982,0.693,1.589c0.827,0.688,1.561,1.448,1.177,2.815
		c-0.21,0.363-0.493,0.858-0.78,1.352c-0.295,0.507-0.716,0.857-1.319,0.841c-0.6-0.017-1.123,0.493-1.759,0.189
		c-0.485-0.447-1.178-0.398-1.776-0.597c-0.655-0.218-1.275,0.371-2.037,0.153c-0.232-0.509-0.422-1.136-0.776-1.648
		c-0.397-0.574-0.566-1.161-0.537-1.833c-0.144-0.145-0.217-0.38-0.481-0.359c-0.057,0.037-0.165,0.082-0.161,0.11
		c0.063,0.43-0.293,0.767-0.236,1.209c0.056,0.425,0,0.862,0.015,1.294c0.029,0.803-0.062,1.56-0.41,2.315
		c-0.256,0.555-0.381,1.2-0.196,1.822c-1.015,1.108-2.274,1.89-3.212,3.011c-0.131,0.156-0.306,0.131-0.466,0.186
		c-0.861,0.295-1.639,0.748-1.958,1.649c-0.104,0.296-0.398,0.394-0.458,0.68c-0.03,0.357,0.491,0.391,0.445,0.791
		c-0.038,0.335,0.275,0.614,0.215,0.99c-0.051,0.314-0.01,0.644-0.01,0.751c-0.207,0.728-0.594,0.996-1.102,1.188
		c-0.621,0.235-1.212,0.553-1.805,0.854c-0.589,0.3-1.099,0.21-1.592-0.286c-0.034-0.739-0.647-1.397-0.442-2.229
		c0.465-0.467,0.41-1.129,0.591-1.695c0.08-0.249,0.135-0.517,0.244-0.766c0.431-0.982,0.841-1.975,1.511-2.831
		c0.258-0.329,0.561-0.59,0.889-0.854c0.826-0.662,1.911-0.963,2.361-1.558c0.52-1.216,0.424-2.172,0.415-3.118
		c-0.002-0.239,0.224-0.322,0.238-0.558c0.045-0.68-0.102-1.331-0.464-1.86c-0.497-0.727-0.894-1.581-1.84-1.92
		c-0.364,0.156-0.626,0.45-0.881,0.83c-0.537,0.799-1.464,1.209-2.129,1.899c-0.078,0.08-0.31,0.257-0.528,0.254
		c-0.692-0.006-1.084,0.653-1.731,0.788c-0.198,0.042-0.358,0.346-0.458,0.651c-0.341,1.059-0.578,2.138-0.851,3.211
		c-0.113,0.446-0.365,0.857-0.585,1.352c0.047,0.024,0.168,0.086,0.465,0.237c0.112,0,0.466,0,0.831,0
		c0.711,0.468,1.419,0.933,2.095,1.376c0.12,0.854-0.58,1.262-0.934,1.809c-0.359,0.556-1.167,0.702-1.633,1.262
		c-0.063,0.705,0.15,1.46-0.294,2.143c-0.889,0.99-0.889,0.99-2.136,1.004c-0.534,0.274-1.035,0.481-1.477,0.776
		c-0.323,0.216-0.568,0.548-0.852,0.831c0,0.355,0,0.714,0,1.115c-1.031,0.557-0.771,1.813-1.305,2.625
		c-0.586,0.086-1.095,0.072-1.581-0.171c-0.625-0.313-1.302-0.194-1.818-0.216c-0.306-0.232-0.53-0.402-0.723-0.549
		c0.242-0.67,0.533-1.251,0.643-1.864c0.069-0.381,0.278-0.643,0.519-0.743c0.504-0.212,0.908-0.577,1.438-0.868
		c0.438-0.875,0.796-1.878,1.286-2.831c0.444-0.867,0.761-1.84,0.663-2.849c-0.094-0.964,0.197-1.882,0.265-2.824
		c0.021-0.303,0.127-0.656,0.204-0.984c0.197-0.839,0.218-0.834-0.064-1.541c-0.9-0.374-1.157-0.383-1.916-0.035
		c-0.252-0.32-0.659-0.189-1.024-0.265c-0.33-0.067-0.626-0.3-1.003-0.174c-0.2-0.221-0.391-0.434-0.62-0.687
		c-0.399,0.076-0.796,0.009-1.226,0.087c-0.969,0.179-1.89,0.605-2.899,0.575c-0.652-0.02-1.104,0.309-1.425,0.853
		c-0.355,0.601-0.738,1.18-1.292,1.599c0,0.313,0,0.601,0,0.892c0.38,0.367,0.729,0.779,0.63,1.346
		c-0.058,0.331,0.21,0.501,0.234,0.776c0.053,0.584,0.321,1.142,0.214,1.747c-0.058,0.322,0.38,0.529,0.209,0.883
		c0.259,0.254,0.515,0.507,0.838,0.824c-0.05,0.816,0.503,1.33,1.22,1.641c0.592,0.255,0.877,0.807,1.379,1.16
		c0,0.602,0,1.203,0,1.804c-0.435,0.435-0.854,0.882-1.307,1.292c-0.166,0.148-0.414,0.206-0.626,0.307
		c-0.512-0.259-1.002-0.547-1.488-0.852c-0.31-0.194-0.628-0.418-0.768-0.701c-0.28-0.566-0.804-0.882-1.17-1.39
		c-0.015-0.632-0.331-1.221-0.708-1.709c-0.458-0.594-0.619-1.21-0.604-1.918c0.004-0.18,0.003-0.36,0-0.54
		c-0.009-0.551,0.095-1.129-0.365-1.576c-0.188-1.064-0.72-2.04-0.737-3.159c-0.009-0.538-0.359-1.105-0.171-1.631
		c0.286-0.801,0.142-1.602,0.202-2.405c0.251-0.231,0.371-0.568,0.577-0.843c0.184-0.245,0.339-0.423,0.603-0.607
		c0.567-0.397,0.999-0.974,1.605-1.353c0.621-0.388,0.84-1.073,1.061-1.714c0.188-0.547-0.16-1.066-0.266-1.594
		c-0.138-0.693-0.121-1.319,0.008-2.04c0.158-0.89,0.57-1.764,0.103-2.721c-0.225-0.461,0.162-0.999,0.284-1.486
		c0.068-0.273,0.073-0.54,0.125-0.806c0.08-0.4-0.194-0.74-0.194-1.099c0-0.359,0.212-0.699,0.205-1.099
		C24.978,30.448,24.646,29.526,23.655,28.794z M53.857,41.23c0.082-0.012,0.163-0.022,0.245-0.033
		c0.07-0.792,0.533-1.502,0.342-2.251c-0.135-0.192-0.27-0.385-0.419-0.597c-0.115,0.258-0.318,0.223-0.47,0.29
		c-0.319,0.491-0.309,1.037-0.266,1.512C53.5,40.553,53.679,40.892,53.857,41.23z"/>
	<path style="fill-rule:evenodd;clip-rule:evenodd;fill:none;" d="M53.857,41.23c-0.178-0.339-0.356-0.678-0.567-1.079
		c-0.043-0.475-0.054-1.021,0.266-1.512c0.151-0.067,0.354-0.032,0.47-0.29c0.149,0.212,0.284,0.404,0.419,0.597
		c0.191,0.749-0.271,1.459-0.342,2.251C54.02,41.208,53.939,41.219,53.857,41.23z"/>
</g>
</svg>
