<svg xmlns="http://www.w3.org/2000/svg" xml:space="preserve" width="72px" height="72px" viewBox="0 0 72 72">
    <path fill="currentColor" d="M23.655 28.794c-.617.59-.527 1.481-1.168 2.021-.666 0-1.384-.044-2.095.013-.721.057-1.299-.403-2.03-.488a3.95 3.95 0 0 1-.984-1.355c-.157-.358-.256-.734-.144-.999.314-.737.274-1.592.825-2.255.379-.457.199-1.11.412-1.66.125-.321.233-.746.217-1.084-.038-.825.25-1.551.519-2.364-.576-.51-.867-1.152-.623-2.086.242-.212.532-.582.993-.809.446-.22.474-.834.905-1.079-.248-.512-.469-.96-.683-1.412-.402-.851-.262-1.265.562-1.732.117-.066.185-.221.164-.225.886.104 1.256.646 1.738 1.094h.692c.181-.373.306-.739.323-1.174.015-.382.241-.757.345-1.052.327-.195.58-.099.796-.121.606.375 1.113.786 1.489 1.419.403.679 1.187.768 1.992.731l.598-.579c-.511-.796-.805-1.623-.696-2.561.544-.588.569-1.404.852-2.114.473-.326 1.007-.565 1.418-1.023.59.15 1.148-.116 1.727-.206.613-.095 1.145.269 1.729.247.635.566 1.14 1.263 1.9 1.687.472.263.354.86.686 1.342 1.2.3 2.535.192 3.856.497l.295-.524c.616 0 1.092.057 1.547-.014.642-.1 1.168.201 1.636.489.463.286 1.066.535 1.188 1.195a.9.9 0 0 0 .594.681c.304.105.423.363.691.531v1.243c.502.75 1.171 1.133 1.852 1.471.361.179.584.383.771.751.382.746.739 1.514 1.247 2.148.245.931-.407 1.497-.816 2.21v1.043c.437.616 1.048 1.067 1.76 1.357.976.397 1.7 1.057 2.095 2.017.162.396.561.37.778.654.534-.065 1.092.107 1.63-.21.327-.193.582.411.919.191.888.682 1.33 1.692 2.365 2.217.9.457 1.429 1.525 2.467 1.946.501.703.099 1.779.955 2.447-.215 1.055.145 2.114.21 3.198.067 1.106-.248 2.168-.245 3.251.486.417.605.982.693 1.589.827.688 1.561 1.448 1.177 2.815-.21.363-.493.858-.78 1.352-.295.507-.716.857-1.319.841-.6-.017-1.123.493-1.759.189-.485-.447-1.178-.398-1.776-.597-.655-.218-1.275.371-2.037.153-.232-.509-.422-1.136-.776-1.648a2.87 2.87 0 0 1-.537-1.833c-.144-.145-.217-.38-.481-.359-.057.037-.165.082-.161.11.063.43-.293.767-.236 1.209.056.425 0 .862.015 1.294.029.803-.062 1.56-.41 2.315-.256.555-.381 1.2-.196 1.822-1.015 1.108-2.274 1.89-3.212 3.011-.131.156-.306.131-.466.186-.861.295-1.639.748-1.958 1.649-.104.296-.398.394-.458.68-.03.357.491.391.445.791-.038.335.275.614.215.99-.051.314-.01.644-.01.751-.207.728-.594.996-1.102 1.188-.621.235-1.212.553-1.805.854-.589.3-1.099.21-1.592-.286-.034-.739-.647-1.397-.442-2.229.465-.467.41-1.129.591-1.695.08-.249.135-.517.244-.766.431-.982.841-1.975 1.511-2.831.258-.329.561-.59.889-.854.826-.662 1.911-.963 2.361-1.558.52-1.216.424-2.172.415-3.118-.002-.239.224-.322.238-.558.045-.68-.102-1.331-.464-1.86-.497-.727-.894-1.581-1.84-1.92-.364.156-.626.45-.881.83-.537.799-1.464 1.209-2.129 1.899-.078.08-.31.257-.528.254-.692-.006-1.084.653-1.731.788-.198.042-.358.346-.458.651-.341 1.059-.578 2.138-.851 3.211-.113.446-.365.857-.585 1.352l.465.237h.831l2.095 1.376c.12.854-.58 1.262-.934 1.809-.359.556-1.167.702-1.633 1.262-.063.705.15 1.46-.294 2.143-.889.99-.889.99-2.136 1.004-.534.274-1.035.481-1.477.776-.323.216-.568.548-.852.831v1.115c-1.031.557-.771 1.813-1.305 2.625-.586.086-1.095.072-1.581-.171-.625-.313-1.302-.194-1.818-.216l-.723-.549c.242-.67.533-1.251.643-1.864.069-.381.278-.643.519-.743.504-.212.908-.577 1.438-.868.438-.875.796-1.878 1.286-2.831.444-.867.761-1.84.663-2.849-.094-.964.197-1.882.265-2.824.021-.303.127-.656.204-.984.197-.839.218-.834-.064-1.541-.9-.374-1.157-.383-1.916-.035-.252-.32-.659-.189-1.024-.265-.33-.067-.626-.3-1.003-.174l-.62-.687c-.399.076-.796.009-1.226.087-.969.179-1.89.605-2.899.575-.652-.02-1.104.309-1.425.853-.355.601-.738 1.18-1.292 1.599v.892c.38.367.729.779.63 1.346-.058.331.21.501.234.776.053.584.321 1.142.214 1.747-.058.322.38.529.209.883l.838.824c-.05.816.503 1.33 1.22 1.641.592.255.877.807 1.379 1.16v1.804c-.435.435-.854.882-1.307 1.292-.166.148-.414.206-.626.307a19 19 0 0 1-1.488-.852c-.31-.194-.628-.418-.768-.701-.28-.566-.804-.882-1.17-1.39-.015-.632-.331-1.221-.708-1.709-.458-.594-.619-1.21-.604-1.918q.005-.27 0-.54c-.009-.551.095-1.129-.365-1.576-.188-1.064-.72-2.04-.737-3.159-.009-.538-.359-1.105-.171-1.631.286-.801.142-1.602.202-2.405.251-.231.371-.568.577-.843.184-.245.339-.423.603-.607.567-.397.999-.974 1.605-1.353.621-.388.84-1.073 1.061-1.714.188-.547-.16-1.066-.266-1.594-.138-.693-.121-1.319.008-2.04.158-.89.57-1.764.103-2.721-.225-.461.162-.999.284-1.486.068-.273.073-.54.125-.806.08-.4-.194-.74-.194-1.099s.212-.699.205-1.099c-.025-1.093-.357-2.015-1.348-2.747M53.857 41.23l.245-.033c.07-.792.533-1.502.342-2.251l-.419-.597c-.115.258-.318.223-.47.29-.319.491-.309 1.037-.266 1.512z"/>
</svg>
