<svg xmlns="http://www.w3.org/2000/svg" xml:space="preserve" width="72px" height="72px" viewBox="0 0 72 72">
    <g fill="currentColor">
        <path d="M59.457 42.944c-.544-.213-1.035.309-1.517.157-.518-.163-1.028-.247-1.536-.173-.547.081-.983-.406-1.538-.199-.295.315-.637.603-.841 1.035-.174.368-.655.516-.767.982-.043.179-.288.31-.44.462q-1.41 1.415-2.826 2.825c-.824.82-1.207.896-2.286.421-.426-.188-.831-.422-1.282-.654-.021-.252-.236-.434-.468-.655-.079-.47.019-.983-.211-1.491-.208-.457-.434-.9-.673-1.426v-1.131c-.294-.761-.99-.919-1.521-1.331-.877.449-1.872.557-2.502 1.382-.647.849-1.485 1.271-2.636 1.006-1.03-.919-1.313-2.343-2.003-3.429-.901-.819-1.313-1.756-1.28-2.768.276-.702.77-1.102 1.096-1.627.24-.386.669-.571 1.076-.771.45-.222.93-.442 1.292-.776.688-.636 1.602-.932 2.216-1.591h1.391c.772.97 1.636 1.908 2.228 3.05.078.15.195.363.326.389.69.137 1.145.689 1.76.969.496.225.95.372 1.479.337.265-.212.449-.452.257-.813-.248-.163-.37.077-.458.159-.36.052-.382-.253-.532-.285-.155-.463.165-.638.392-.879v-1.793l.73-.568c-.231-.129-.289-.391-.492-.341-.29.071-.478-.126-.66-.238-.83-.509-1.756-.815-2.605-1.279-.757-.413-1.57-.283-2.348-.106-.728.166-1.342.567-1.96 1.022-.689.507-1.544.912-2.513.311l-.339-.677c.295-.405.305-.915.663-1.348.343-.415.558-1 .478-1.631-.063-.496-.013-1.006-.013-1.545.433-.594 1.072-.769 1.786-.782.586-.01 1.193.1 1.694-.345.213-.189.583-.167.702-.067.67.569 1.458.368 2.199.42.206.259.523.352.774.518.497.329 1.033.672 1.71.563.3-.048.641-.087.806.246l1.319-.688c.338-.038.816.125 1.339-.473.12-.327.384-.894.434-1.561.047-.622.492-1.117.897-1.559.519-.563.613-1.28.777-1.947.104-.425-.163-.9-.433-1.313-.33-.506-.715-1.013-.615-1.68-.336-.336-.662-.672-.999-.996a3.8 3.8 0 0 1-.693-.901c-.411-.747-.934-1.408-1.601-1.861-.948-.085-1.844.085-2.727-.105-.06-.013-.106-.086-.192-.159-.564.239-1.152.473-1.726.738-.346.16-.689.357-.9.685-.475.736-1.16 1.22-1.887 1.666-.342.209-.267.747-.727.866v3.706c-.206.387-.506.424-.782.349-.448-.122-.958-.212-1.299-.491-.776-.636-1.636-.835-2.595-.796-.18.007-.36.001-.528.001l-.933-.49a1.64 1.64 0 0 1-1.292.264c-.549-.105-.992.367-1.532.227-.292.421-.741.095-1.123.27-.234.18-.521.313-.873.395-.772.18-1.444.58-1.999 1.166-.55.581-1.263.971-1.854 1.484-.612.532-1.284 1.018-1.793 1.694-.39.517-.878.984-1.472 1.346-.382.233-.682.667-.972 1.075-.436.612-.683 1.365-1.32 1.855-.189.146-.326.479-.381.803-.106.624-.232 1.243-.531 1.83-.19.374-.387.801-.322 1.271.03.212.051.446-.261.51.579.846.018 1.536-.127 2.323.283.327.17.843.367 1.285.206.461-.073 1.013.158 1.554.183.429.081.979.103 1.416l-.54 1.068c-.258.132-.606.186-.899.478-.487-.137-.956.173-1.453.221-.961.6-1.259 1.752-2.086 2.463-.206.72-.916.841-1.414 1.223-.554.426-1.233.517-1.818.838-.234.052-.336-.19-.549-.249-.525-.146-.634-.751-.728-1.175-.123-.556-.455-.972-.647-1.467-.193-.496-.238-1.063-.488-1.522-.348-.641-.446-1.34-.599-2.017-.073-.329-.134-.666-.249-.984-.181-.498-.111-1.044-.239-1.524-.377-1.411-.086-2.829-.185-4.237-.042-.592.309-1.128.229-1.749-.077-.602-.01-1.222-.021-1.833-.003-.16.137-.259.153-.366.068-.473.402-.893.283-1.398-.063-.269.158-.446.208-.669.395-1.775 1.154-3.405 1.945-5.028.407-.835.669-1.745 1.104-2.563.462-.868.995-1.706 1.664-2.446.549-.608 1.063-1.238 1.398-2.011.13-.301.218-.761.73-.77.078-.001.158-.138.229-.219.962-1.103 2.232-1.875 3.197-2.975.14-.16.285-.354.469-.429 1.193-.479 2.136-1.32 3.133-2.087.18-.139.427-.294.628-.276.29.026.492-.142.656-.256a3.34 3.34 0 0 1 2.119-.616c.31.016.486-.266.776-.241.081-.355.371-.567.643-.853.357 0 .749.004 1.14-.001.414-.005.816.024 1.213-.203.461-.264.998-.254 1.523-.23.485.021.994.065 1.382-.3.195-.184.397-.125.599-.125 2.085-.006 4.171-.004 6.228-.004.314.283.637.495 1.044.427.9-.15 1.701.237 2.48.537.659.252 1.381.263 2.003.644.594.364 1.244.628 1.903.876.358.135.695.02 1.052.14.416.542.994.915 1.629 1.208.434.201.848.439 1.188.772.188.185.387.132.615.15.559.765 1.454 1.134 2.188 1.709.215.169.39.275.525.55.164.336.493.634.819.842 1.19.76 2.068 1.853 3.009 2.86.659.705 1.266 1.494 1.651 2.435.265.646.73 1.212 1.126 1.8.302.449.581.894.721 1.433.071.277.19.572.418.798.4.399.527.955.62 1.463.136.736.207 1.476.605 2.131.181.297-.103.728.283.962-.114.709.338 1.35.232 2.073-.058.396-.062.807.177 1.217.196.337-.146.825.207 1.214.108.12.03.413.031.627q.002 1.134.001 2.267c0 .36.047.729-.015 1.078-.056.32-.35.631-.326.929.053.698-.526 1.284-.138 2.085.329.678-.101 1.487-.475 2.134-.162.28-.309.62-.635.884h-.931c-.385-.411-.955-.667-1.454-1.007m-9.224-7.678-.733-.785c-.172.154-.083.342-.109.504l.604.52z"/>
        <path d="M31.104 44.813c.556-.153.84-.573 1.227-.926-.038-.659.135-1.36-.417-1.959-.161-.175-.062-.518-.135-.795-.222-.845-.772-1.487-1.196-2.202-.118-.199-.318-.458-.328-.611-.031-.494-.314-.803-.651-1.027-.644-.43-1.068-1.057-1.572-1.608-.793-.867-1.885-1.397-2.596-2.453-.264-.765.298-1.389.742-1.94.543-.674 1.121-1.376 2.007-1.772h5.538c.326.15.292.55.537.745.081.622-.133 1.114-.488 1.634a6.4 6.4 0 0 0-.817 1.707c-.215.692-.655 1.307-.847 2.141.008.517.519.832.821 1.179.238.787-.301 1.427-.13 2.232.718.908 1.923 1.446 2.59 2.57.652 1.099 1.68 1.905 2.548 2.8v1.189c-.53.21-1.07.51-1.647.63-.667.138-1.25.342-1.69.88-.406.495-1.045.608-1.551.932-.801.512-1.688.673-2.586.785-.444.057-.826.386-1.264.218-.475.542-1.041.927-1.336 1.556-.157.334-.587.353-.826.616h-.877c-.672-.801-1.15-1.715-1.352-2.827.187-.373.177-1.013.698-1.213.314-.12.448-.438.767-.495a.44.44 0 0 0 .186-.07c.484-.379.771-.971 1.497-1.092.54-.091 1.044-.417 1.552-.663.511-.249 1.047-.035 1.596-.161"/>
        <path d="m21.025 47.228-.783.911c.35.773.952 1.438 1.783 1.83.446.211.749.482.885.923.114.371.45.581.575.95.17.506.236 1.009.193 1.563l-.566.51c-.253-.018-.519 0-.84-.174-1.094-.594-1.121-.567-2.473-.128-.598.195-1.196.049-1.792.095-.369.029-.643-.192-.944-.443-.605.206-1.187-.154-1.805-.225-.433-.05-.846-.358-1.076-.75a3.96 3.96 0 0 0-1.445-1.433c-.09-.054-.154-.149-.256-.252v-1.317c.188-.195.444-.391.726-.592.417-.298.909-.519 1.237-.955.256-.341.639-.464 1.076-.526.455-.065.976-.163 1.315-.437.676-.546 1.414-.67 2.228-.619.236-.36.625-.55.778-.994.179-.522.549-.947 1.115-1.12l2.944-.459c.623-.293.672-.854.86-1.317.247-.607.292-1.331 1.055-1.599.092-.032.207-.138.223-.225.111-.616.629-.821 1.097-.966.464-.144.9.245 1.354.322.422.071.511.61.95.524.114.277.156.583.33.755.256.253.152.526.191.854-.332.297-.658.625-1.08.895-.911.583-1.706 1.306-2.304 2.245-.315.494-.923.729-1.368 1.128-.327.293-.692.567-1.034.861-.792.685-1.438.758-2.633.27-.174-.072-.329-.082-.516-.105"/>
    </g>
</svg>
