<?xml version="1.0" encoding="iso-8859-1"?>
<!-- Generator: Adobe Illustrator 16.0.0, SVG Export Plug-In . SVG Version: 6.00 Build 0)  -->
<!DOCTYPE svg PUBLIC "-//W3C//DTD SVG 1.1//EN" "http://www.w3.org/Graphics/SVG/1.1/DTD/svg11.dtd">
<svg version="1.1" id="Layer_1" xmlns="http://www.w3.org/2000/svg" xmlns:xlink="http://www.w3.org/1999/xlink" x="0px" y="0px"
	 width="72.36px" height="72.18px" viewBox="0 0 72.36 72.18" style="enable-background:new 0 0 72.36 72.18;" xml:space="preserve"
	>
<g>
	<path style="fill-rule:evenodd;clip-rule:evenodd;fill:none;" d="M-6.984,79.631c0-28.871,0-57.743,0-86.615
		c28.8,0,57.6,0,86.399,0c0,28.872,0,57.744,0,86.615C50.616,79.631,21.816,79.631-6.984,79.631z M59.457,42.944
		c0.499,0.34,1.069,0.596,1.457,1.005c0.358,0,0.673,0,0.931,0c0.326-0.264,0.473-0.604,0.635-0.884
		c0.374-0.646,0.804-1.456,0.475-2.134c-0.389-0.801,0.19-1.387,0.138-2.085c-0.023-0.298,0.271-0.608,0.326-0.929
		c0.062-0.35,0.015-0.718,0.015-1.078c0-0.755,0.001-1.512-0.001-2.267c-0.001-0.214,0.077-0.507-0.031-0.627
		c-0.353-0.389-0.011-0.877-0.207-1.214c-0.238-0.411-0.234-0.821-0.177-1.217c0.105-0.723-0.347-1.363-0.232-2.073
		c-0.386-0.235-0.103-0.666-0.283-0.962c-0.398-0.655-0.47-1.395-0.605-2.131c-0.093-0.508-0.22-1.064-0.62-1.463
		c-0.228-0.227-0.347-0.521-0.418-0.798c-0.14-0.539-0.419-0.983-0.721-1.433c-0.396-0.588-0.861-1.154-1.126-1.8
		c-0.386-0.94-0.992-1.73-1.651-2.435c-0.94-1.007-1.818-2.1-3.009-2.86c-0.326-0.208-0.655-0.506-0.819-0.842
		c-0.136-0.275-0.311-0.381-0.525-0.55c-0.734-0.575-1.63-0.944-2.188-1.709c-0.229-0.019-0.427,0.035-0.615-0.15
		c-0.34-0.333-0.754-0.571-1.188-0.772c-0.635-0.293-1.213-0.666-1.629-1.208c-0.356-0.121-0.693-0.005-1.052-0.14
		c-0.659-0.249-1.31-0.512-1.903-0.876c-0.622-0.381-1.344-0.392-2.003-0.644c-0.779-0.299-1.58-0.687-2.48-0.537
		c-0.407,0.068-0.729-0.145-1.044-0.427c-2.057,0-4.142-0.002-6.228,0.004c-0.201,0-0.403-0.059-0.599,0.125
		c-0.388,0.365-0.897,0.322-1.382,0.3c-0.526-0.023-1.063-0.034-1.523,0.23c-0.397,0.228-0.8,0.198-1.213,0.203
		c-0.391,0.005-0.782,0.001-1.14,0.001c-0.272,0.285-0.562,0.497-0.643,0.853c-0.29-0.025-0.466,0.256-0.776,0.241
		c-0.766-0.038-1.472,0.167-2.119,0.616c-0.164,0.114-0.366,0.282-0.656,0.256c-0.201-0.018-0.448,0.138-0.628,0.276
		c-0.998,0.767-1.94,1.609-3.133,2.087c-0.184,0.074-0.329,0.269-0.469,0.429c-0.965,1.101-2.235,1.872-3.197,2.975
		c-0.071,0.081-0.151,0.218-0.229,0.219c-0.512,0.008-0.6,0.468-0.73,0.77c-0.334,0.773-0.849,1.402-1.398,2.011
		c-0.669,0.74-1.202,1.578-1.664,2.446c-0.436,0.819-0.697,1.728-1.104,2.563c-0.791,1.623-1.55,3.252-1.945,5.028
		c-0.049,0.223-0.271,0.4-0.208,0.669c0.119,0.505-0.215,0.926-0.283,1.398c-0.016,0.107-0.156,0.206-0.153,0.366
		c0.011,0.612-0.056,1.231,0.021,1.833c0.08,0.62-0.271,1.156-0.229,1.749c0.099,1.409-0.192,2.826,0.185,4.237
		c0.128,0.48,0.059,1.026,0.239,1.524c0.115,0.317,0.177,0.654,0.251,0.982c0.152,0.677,0.25,1.376,0.599,2.017
		c0.25,0.459,0.295,1.026,0.488,1.522c0.193,0.495,0.525,0.911,0.647,1.467c0.093,0.424,0.203,1.029,0.728,1.175
		c0.213,0.059,0.315,0.301,0.549,0.249c0.585-0.321,1.264-0.412,1.818-0.838c0.498-0.382,1.208-0.503,1.414-1.223
		c0.827-0.711,1.125-1.863,2.086-2.463c0.497-0.048,0.965-0.357,1.453-0.221c0.293-0.292,0.641-0.346,0.899-0.478
		c0.181-0.358,0.347-0.686,0.54-1.068c-0.021-0.437,0.081-0.987-0.103-1.416c-0.231-0.541,0.048-1.093-0.158-1.554
		c-0.197-0.442-0.084-0.958-0.367-1.285c0.146-0.787,0.707-1.478,0.127-2.323c0.313-0.064,0.291-0.298,0.261-0.51
		c-0.065-0.47,0.131-0.896,0.322-1.271c0.299-0.587,0.425-1.207,0.531-1.83c0.055-0.324,0.192-0.657,0.381-0.803
		c0.637-0.491,0.884-1.243,1.32-1.855c0.291-0.408,0.59-0.842,0.972-1.075c0.594-0.362,1.082-0.829,1.472-1.346
		c0.51-0.676,1.182-1.163,1.793-1.694c0.591-0.513,1.304-0.903,1.854-1.484c0.555-0.586,1.227-0.986,1.999-1.166
		c0.352-0.082,0.638-0.215,0.873-0.395c0.382-0.175,0.831,0.151,1.123-0.27c0.54,0.14,0.983-0.332,1.532-0.227
		c0.447,0.085,0.899,0.016,1.292-0.264c0.333,0.175,0.628,0.33,0.933,0.49c0.168,0,0.348,0.006,0.528-0.001
		c0.958-0.04,1.818,0.16,2.595,0.796c0.341,0.278,0.851,0.369,1.299,0.491c0.276,0.075,0.576,0.038,0.782-0.349
		c0-1.172,0-2.422,0-3.706c0.46-0.12,0.385-0.657,0.727-0.866c0.727-0.446,1.412-0.93,1.887-1.666
		c0.211-0.328,0.555-0.525,0.9-0.685c0.573-0.266,1.161-0.499,1.726-0.738c0.086,0.073,0.133,0.146,0.192,0.159
		c0.883,0.19,1.778,0.02,2.727,0.105c0.667,0.453,1.189,1.114,1.601,1.861c0.188,0.341,0.416,0.634,0.693,0.901
		c0.337,0.324,0.663,0.66,0.999,0.996c-0.1,0.667,0.285,1.174,0.615,1.68c0.27,0.412,0.537,0.887,0.433,1.313
		c-0.164,0.667-0.259,1.383-0.777,1.947c-0.405,0.442-0.851,0.937-0.897,1.559c-0.05,0.667-0.313,1.234-0.434,1.561
		c-0.522,0.598-1.001,0.435-1.339,0.473c-0.473,0.247-0.858,0.448-1.319,0.688c-0.165-0.333-0.506-0.293-0.806-0.246
		c-0.677,0.108-1.213-0.235-1.71-0.563c-0.251-0.166-0.568-0.259-0.774-0.518c-0.741-0.052-1.529,0.149-2.199-0.42
		c-0.119-0.101-0.489-0.122-0.702,0.067c-0.501,0.445-1.108,0.334-1.694,0.345c-0.714,0.013-1.354,0.188-1.786,0.782
		c0,0.539-0.051,1.049,0.013,1.545c0.08,0.631-0.135,1.217-0.478,1.631c-0.358,0.433-0.368,0.943-0.663,1.348
		c0.14,0.278,0.257,0.514,0.339,0.677c0.969,0.601,1.823,0.196,2.513-0.311c0.618-0.455,1.232-0.856,1.96-1.022
		c0.777-0.177,1.591-0.307,2.348,0.106c0.85,0.464,1.775,0.77,2.605,1.279c0.183,0.112,0.37,0.31,0.66,0.238
		c0.203-0.05,0.261,0.212,0.492,0.341c-0.273,0.213-0.523,0.407-0.73,0.568c0,0.662,0,1.234,0,1.793
		c-0.227,0.242-0.547,0.416-0.392,0.879c0.15,0.032,0.172,0.337,0.532,0.285c0.088-0.082,0.21-0.322,0.459-0.158
		c0.191,0.359,0.007,0.6-0.258,0.812c-0.528,0.035-0.982-0.112-1.479-0.337c-0.615-0.279-1.069-0.832-1.76-0.969
		c-0.131-0.026-0.248-0.239-0.326-0.389c-0.592-1.143-1.455-2.081-2.228-3.05c-0.479,0-0.911,0-1.391,0
		c-0.614,0.659-1.528,0.955-2.216,1.591c-0.362,0.334-0.842,0.554-1.292,0.776c-0.407,0.2-0.836,0.385-1.076,0.771
		c-0.326,0.526-0.819,0.925-1.096,1.627c-0.034,1.012,0.379,1.948,1.28,2.768c0.69,1.086,0.973,2.51,2.003,3.429
		c1.15,0.265,1.988-0.157,2.636-1.006c0.63-0.825,1.625-0.933,2.502-1.382c0.53,0.412,1.227,0.57,1.521,1.331
		c0,0.353,0,0.785,0,1.131c0.239,0.525,0.465,0.969,0.673,1.426c0.229,0.508,0.132,1.021,0.211,1.491
		c0.231,0.222,0.447,0.403,0.468,0.655c0.451,0.232,0.856,0.467,1.282,0.654c1.079,0.476,1.462,0.399,2.286-0.421
		c0.944-0.939,1.885-1.883,2.826-2.825c0.152-0.152,0.397-0.283,0.44-0.462c0.111-0.467,0.593-0.614,0.767-0.982
		c0.204-0.433,0.546-0.72,0.841-1.035c0.555-0.207,0.991,0.28,1.538,0.199c0.508-0.074,1.019,0.01,1.536,0.173
		C58.421,43.253,58.913,42.731,59.457,42.944z M31.104,44.813c-0.549,0.126-1.085-0.089-1.599,0.159
		c-0.508,0.246-1.013,0.572-1.552,0.663c-0.727,0.121-1.013,0.713-1.497,1.092c-0.05,0.039-0.121,0.059-0.186,0.07
		c-0.318,0.058-0.453,0.375-0.767,0.495c-0.521,0.2-0.511,0.84-0.698,1.213c0.202,1.112,0.68,2.026,1.352,2.827
		c0.31,0,0.597,0,0.877,0c0.239-0.264,0.669-0.282,0.826-0.616c0.295-0.629,0.861-1.014,1.336-1.556
		c0.438,0.168,0.82-0.161,1.264-0.218c0.898-0.112,1.785-0.273,2.586-0.785c0.506-0.323,1.146-0.437,1.551-0.932
		c0.44-0.538,1.023-0.742,1.69-0.88c0.577-0.12,1.117-0.42,1.647-0.63c0-0.447,0-0.805,0-1.189c-0.868-0.895-1.896-1.701-2.548-2.8
		c-0.667-1.124-1.872-1.662-2.59-2.57c-0.171-0.805,0.368-1.445,0.13-2.232c-0.302-0.347-0.813-0.663-0.821-1.179
		c0.192-0.834,0.632-1.449,0.847-2.141c0.192-0.619,0.469-1.198,0.817-1.707c0.355-0.52,0.569-1.013,0.488-1.634
		c-0.245-0.194-0.211-0.594-0.537-0.745c-1.862,0-3.731,0-5.538,0c-0.886,0.396-1.464,1.098-2.007,1.772
		c-0.444,0.551-1.006,1.175-0.742,1.94c0.711,1.055,1.803,1.586,2.596,2.453c0.504,0.551,0.929,1.178,1.572,1.608
		c0.336,0.225,0.62,0.533,0.651,1.027c0.01,0.153,0.21,0.412,0.328,0.611c0.424,0.715,0.974,1.357,1.196,2.202
		c0.073,0.277-0.026,0.62,0.135,0.795c0.553,0.599,0.38,1.3,0.417,1.959C31.944,44.24,31.66,44.66,31.104,44.813z M21.025,47.228
		c0.188,0.023,0.342,0.033,0.517,0.104c1.194,0.488,1.84,0.415,2.633-0.27c0.341-0.294,0.707-0.568,1.034-0.861
		c0.445-0.398,1.052-0.634,1.368-1.128c0.598-0.939,1.393-1.662,2.304-2.245c0.422-0.27,0.749-0.598,1.08-0.895
		c-0.039-0.327,0.065-0.601-0.191-0.854c-0.174-0.172-0.216-0.478-0.33-0.755c-0.439,0.086-0.528-0.453-0.95-0.524
		c-0.455-0.077-0.89-0.466-1.354-0.322c-0.467,0.145-0.985,0.35-1.097,0.966c-0.016,0.087-0.131,0.192-0.223,0.225
		c-0.763,0.268-0.808,0.991-1.055,1.599c-0.188,0.463-0.237,1.024-0.86,1.317c-0.916,0.143-1.93,0.301-2.944,0.459
		c-0.566,0.173-0.936,0.598-1.115,1.12c-0.153,0.444-0.542,0.634-0.778,0.994c-0.814-0.051-1.551,0.073-2.228,0.619
		c-0.339,0.273-0.86,0.371-1.315,0.437c-0.437,0.063-0.819,0.186-1.076,0.526c-0.328,0.437-0.82,0.657-1.237,0.955
		c-0.282,0.201-0.539,0.396-0.726,0.592c0,0.495,0,0.92,0,1.317c0.102,0.103,0.166,0.198,0.256,0.252
		c0.603,0.356,1.086,0.817,1.445,1.433c0.229,0.392,0.643,0.7,1.076,0.75c0.618,0.07,1.199,0.431,1.805,0.225
		c0.301,0.251,0.575,0.473,0.944,0.443c0.596-0.046,1.194,0.101,1.792-0.095c1.352-0.439,1.379-0.466,2.473,0.128
		c0.321,0.174,0.587,0.156,0.84,0.174c0.214-0.192,0.4-0.36,0.566-0.51c0.043-0.554-0.022-1.057-0.193-1.563
		c-0.125-0.369-0.461-0.579-0.575-0.95c-0.136-0.44-0.439-0.712-0.885-0.923c-0.832-0.392-1.434-1.057-1.783-1.83
		C20.53,47.804,20.781,47.512,21.025,47.228z"/>
	<path fill="currentColor" d="M59.457,42.944c-0.544-0.213-1.035,0.309-1.517,0.157
		c-0.518-0.163-1.028-0.247-1.536-0.173c-0.547,0.081-0.983-0.406-1.538-0.199c-0.295,0.315-0.637,0.603-0.841,1.035
		c-0.174,0.368-0.655,0.516-0.767,0.982c-0.043,0.179-0.288,0.31-0.44,0.462c-0.941,0.942-1.882,1.886-2.826,2.825
		c-0.824,0.82-1.207,0.896-2.286,0.421c-0.426-0.188-0.831-0.422-1.282-0.654c-0.021-0.252-0.236-0.434-0.468-0.655
		c-0.079-0.47,0.019-0.983-0.211-1.491c-0.208-0.457-0.434-0.9-0.673-1.426c0-0.346,0-0.778,0-1.131
		c-0.294-0.761-0.99-0.919-1.521-1.331c-0.877,0.449-1.872,0.557-2.502,1.382c-0.647,0.849-1.485,1.271-2.636,1.006
		c-1.03-0.919-1.313-2.343-2.003-3.429c-0.901-0.819-1.313-1.756-1.28-2.768c0.276-0.702,0.77-1.102,1.096-1.627
		c0.24-0.386,0.669-0.571,1.076-0.771c0.45-0.222,0.93-0.442,1.292-0.776c0.688-0.636,1.602-0.932,2.216-1.591
		c0.479,0,0.911,0,1.391,0c0.772,0.97,1.636,1.908,2.228,3.05c0.078,0.15,0.195,0.363,0.326,0.389
		c0.69,0.137,1.145,0.689,1.76,0.969c0.496,0.225,0.95,0.372,1.479,0.337c0.265-0.212,0.449-0.452,0.257-0.813
		c-0.248-0.163-0.37,0.077-0.458,0.159c-0.36,0.052-0.382-0.253-0.532-0.285c-0.155-0.463,0.165-0.638,0.392-0.879
		c0-0.559,0-1.131,0-1.793c0.207-0.161,0.457-0.355,0.73-0.568c-0.231-0.129-0.289-0.391-0.492-0.341
		c-0.29,0.071-0.478-0.126-0.66-0.238c-0.83-0.509-1.756-0.815-2.605-1.279c-0.757-0.413-1.57-0.283-2.348-0.106
		c-0.728,0.166-1.342,0.567-1.96,1.022c-0.689,0.507-1.544,0.912-2.513,0.311c-0.082-0.164-0.199-0.399-0.339-0.677
		c0.295-0.405,0.305-0.915,0.663-1.348c0.343-0.415,0.558-1,0.478-1.631c-0.063-0.496-0.013-1.006-0.013-1.545
		c0.433-0.594,1.072-0.769,1.786-0.782c0.586-0.01,1.193,0.1,1.694-0.345c0.213-0.189,0.583-0.167,0.702-0.067
		c0.67,0.569,1.458,0.368,2.199,0.42c0.206,0.259,0.523,0.352,0.774,0.518c0.497,0.329,1.033,0.672,1.71,0.563
		c0.3-0.048,0.641-0.087,0.806,0.246c0.461-0.24,0.847-0.441,1.319-0.688c0.338-0.038,0.816,0.125,1.339-0.473
		c0.12-0.327,0.384-0.894,0.434-1.561c0.047-0.622,0.492-1.117,0.897-1.559c0.519-0.563,0.613-1.28,0.777-1.947
		c0.104-0.425-0.163-0.9-0.433-1.313c-0.33-0.506-0.715-1.013-0.615-1.68c-0.336-0.336-0.662-0.672-0.999-0.996
		c-0.277-0.267-0.505-0.56-0.693-0.901c-0.411-0.747-0.934-1.408-1.601-1.861c-0.948-0.085-1.844,0.085-2.727-0.105
		c-0.06-0.013-0.106-0.086-0.192-0.159c-0.564,0.239-1.152,0.473-1.726,0.738c-0.346,0.16-0.689,0.357-0.9,0.685
		c-0.475,0.736-1.16,1.22-1.887,1.666c-0.342,0.209-0.267,0.747-0.727,0.866c0,1.284,0,2.534,0,3.706
		c-0.206,0.387-0.506,0.424-0.782,0.349c-0.448-0.122-0.958-0.212-1.299-0.491c-0.776-0.636-1.636-0.835-2.595-0.796
		c-0.18,0.007-0.36,0.001-0.528,0.001c-0.305-0.16-0.6-0.315-0.933-0.49c-0.394,0.28-0.846,0.35-1.292,0.264
		c-0.549-0.105-0.992,0.367-1.532,0.227c-0.292,0.421-0.741,0.095-1.123,0.27c-0.234,0.18-0.521,0.313-0.873,0.395
		c-0.772,0.18-1.444,0.58-1.999,1.166c-0.55,0.581-1.263,0.971-1.854,1.484c-0.612,0.532-1.284,1.018-1.793,1.694
		c-0.39,0.517-0.878,0.984-1.472,1.346c-0.382,0.233-0.682,0.667-0.972,1.075c-0.436,0.612-0.683,1.365-1.32,1.855
		c-0.189,0.146-0.326,0.479-0.381,0.803c-0.106,0.624-0.232,1.243-0.531,1.83c-0.19,0.374-0.387,0.801-0.322,1.271
		c0.03,0.212,0.051,0.446-0.261,0.51c0.579,0.846,0.018,1.536-0.127,2.323c0.283,0.327,0.17,0.843,0.367,1.285
		c0.206,0.461-0.073,1.013,0.158,1.554c0.183,0.429,0.081,0.979,0.103,1.416c-0.193,0.383-0.359,0.71-0.54,1.068
		c-0.258,0.132-0.606,0.186-0.899,0.478c-0.487-0.137-0.956,0.173-1.453,0.221c-0.961,0.6-1.259,1.752-2.086,2.463
		c-0.206,0.72-0.916,0.841-1.414,1.223c-0.554,0.426-1.233,0.517-1.818,0.838c-0.234,0.052-0.336-0.19-0.549-0.249
		c-0.525-0.146-0.634-0.751-0.728-1.175c-0.123-0.556-0.455-0.972-0.647-1.467c-0.193-0.496-0.238-1.063-0.488-1.522
		c-0.348-0.641-0.446-1.34-0.599-2.017C7.876,41.77,7.815,41.433,7.7,41.115c-0.181-0.498-0.111-1.044-0.239-1.524
		c-0.377-1.411-0.086-2.829-0.185-4.237c-0.042-0.592,0.309-1.128,0.229-1.749c-0.077-0.602-0.01-1.222-0.021-1.833
		c-0.003-0.16,0.137-0.259,0.153-0.366c0.068-0.473,0.402-0.893,0.283-1.398c-0.063-0.269,0.158-0.446,0.208-0.669
		c0.395-1.775,1.154-3.405,1.945-5.028c0.407-0.835,0.669-1.745,1.104-2.563c0.462-0.868,0.995-1.706,1.664-2.446
		c0.549-0.608,1.063-1.238,1.398-2.011c0.13-0.301,0.218-0.761,0.73-0.77c0.078-0.001,0.158-0.138,0.229-0.219
		c0.962-1.103,2.232-1.875,3.197-2.975c0.14-0.16,0.285-0.354,0.469-0.429c1.193-0.479,2.136-1.32,3.133-2.087
		c0.18-0.139,0.427-0.294,0.628-0.276c0.29,0.026,0.492-0.142,0.656-0.256c0.647-0.449,1.353-0.654,2.119-0.616
		c0.31,0.016,0.486-0.266,0.776-0.241c0.081-0.355,0.371-0.567,0.643-0.853c0.357,0,0.749,0.004,1.14-0.001
		c0.414-0.005,0.816,0.024,1.213-0.203c0.461-0.264,0.998-0.254,1.523-0.23c0.485,0.021,0.994,0.065,1.382-0.3
		c0.195-0.184,0.397-0.125,0.599-0.125c2.085-0.006,4.171-0.004,6.228-0.004c0.314,0.283,0.637,0.495,1.044,0.427
		c0.9-0.15,1.701,0.237,2.48,0.537c0.659,0.252,1.381,0.263,2.003,0.644c0.594,0.364,1.244,0.628,1.903,0.876
		c0.358,0.135,0.695,0.02,1.052,0.14c0.416,0.542,0.994,0.915,1.629,1.208c0.434,0.201,0.848,0.439,1.188,0.772
		c0.188,0.185,0.387,0.132,0.615,0.15c0.559,0.765,1.454,1.134,2.188,1.709c0.215,0.169,0.39,0.275,0.525,0.55
		c0.164,0.336,0.493,0.634,0.819,0.842c1.19,0.76,2.068,1.853,3.009,2.86c0.659,0.705,1.266,1.494,1.651,2.435
		c0.265,0.646,0.73,1.212,1.126,1.8c0.302,0.449,0.581,0.894,0.721,1.433c0.071,0.277,0.19,0.572,0.418,0.798
		c0.4,0.399,0.527,0.955,0.62,1.463c0.136,0.736,0.207,1.476,0.605,2.131c0.181,0.297-0.103,0.728,0.283,0.962
		c-0.114,0.709,0.338,1.35,0.232,2.073c-0.058,0.396-0.062,0.807,0.177,1.217c0.196,0.337-0.146,0.825,0.207,1.214
		c0.108,0.12,0.03,0.413,0.031,0.627c0.002,0.755,0.001,1.512,0.001,2.267c0,0.36,0.047,0.729-0.015,1.078
		c-0.056,0.32-0.35,0.631-0.326,0.929c0.053,0.698-0.526,1.284-0.138,2.085c0.329,0.678-0.101,1.487-0.475,2.134
		c-0.162,0.28-0.309,0.62-0.635,0.884c-0.258,0-0.572,0-0.931,0C60.526,43.54,59.956,43.284,59.457,42.944z M50.233,35.266
		c-0.252-0.269-0.491-0.525-0.733-0.785c-0.172,0.154-0.083,0.342-0.109,0.504c0.203,0.175,0.404,0.348,0.604,0.52
		C50.042,35.457,50.118,35.381,50.233,35.266z"/>
	<path fill="currentColor" d="M31.104,44.813c0.556-0.153,0.84-0.573,1.227-0.926
		c-0.038-0.659,0.135-1.36-0.417-1.959c-0.161-0.175-0.062-0.518-0.135-0.795c-0.222-0.845-0.772-1.487-1.196-2.202
		c-0.118-0.199-0.318-0.458-0.328-0.611c-0.031-0.494-0.314-0.803-0.651-1.027c-0.644-0.43-1.068-1.057-1.572-1.608
		c-0.793-0.867-1.885-1.397-2.596-2.453c-0.264-0.765,0.298-1.389,0.742-1.94c0.543-0.674,1.121-1.376,2.007-1.772
		c1.807,0,3.676,0,5.538,0c0.326,0.15,0.292,0.55,0.537,0.745c0.081,0.622-0.133,1.114-0.488,1.634
		c-0.348,0.509-0.625,1.088-0.817,1.707c-0.215,0.692-0.655,1.307-0.847,2.141c0.008,0.517,0.519,0.832,0.821,1.179
		c0.238,0.787-0.301,1.427-0.13,2.232c0.718,0.908,1.923,1.446,2.59,2.57c0.652,1.099,1.68,1.905,2.548,2.8c0,0.385,0,0.742,0,1.189
		c-0.53,0.21-1.07,0.51-1.647,0.63c-0.667,0.138-1.25,0.342-1.69,0.88c-0.406,0.495-1.045,0.608-1.551,0.932
		c-0.801,0.512-1.688,0.673-2.586,0.785c-0.444,0.057-0.826,0.386-1.264,0.218c-0.475,0.542-1.041,0.927-1.336,1.556
		c-0.157,0.334-0.587,0.353-0.826,0.616c-0.281,0-0.567,0-0.877,0c-0.672-0.801-1.15-1.715-1.352-2.827
		c0.187-0.373,0.177-1.013,0.698-1.213c0.314-0.12,0.448-0.438,0.767-0.495c0.064-0.012,0.136-0.031,0.186-0.07
		c0.484-0.379,0.771-0.971,1.497-1.092c0.54-0.091,1.044-0.417,1.552-0.663C30.019,44.725,30.555,44.939,31.104,44.813z"/>
	<path fill="currentColor" d="M21.025,47.228c-0.244,0.284-0.495,0.576-0.783,0.911
		c0.35,0.773,0.952,1.438,1.783,1.83c0.446,0.211,0.749,0.482,0.885,0.923c0.114,0.371,0.45,0.581,0.575,0.95
		c0.17,0.506,0.236,1.009,0.193,1.563c-0.166,0.149-0.352,0.317-0.566,0.51c-0.253-0.018-0.519,0-0.84-0.174
		c-1.094-0.594-1.121-0.567-2.473-0.128c-0.598,0.195-1.196,0.049-1.792,0.095c-0.369,0.029-0.643-0.192-0.944-0.443
		c-0.605,0.206-1.187-0.154-1.805-0.225c-0.433-0.05-0.846-0.358-1.076-0.75c-0.359-0.615-0.842-1.076-1.445-1.433
		c-0.09-0.054-0.154-0.149-0.256-0.252c0-0.397,0-0.822,0-1.317c0.188-0.195,0.444-0.391,0.726-0.592
		c0.417-0.298,0.909-0.519,1.237-0.955c0.256-0.341,0.639-0.464,1.076-0.526c0.455-0.065,0.976-0.163,1.315-0.437
		c0.676-0.546,1.414-0.67,2.228-0.619c0.236-0.36,0.625-0.55,0.778-0.994c0.179-0.522,0.549-0.947,1.115-1.12
		c1.014-0.158,2.028-0.316,2.944-0.459c0.623-0.293,0.672-0.854,0.86-1.317c0.247-0.607,0.292-1.331,1.055-1.599
		c0.092-0.032,0.207-0.138,0.223-0.225c0.111-0.616,0.629-0.821,1.097-0.966c0.464-0.144,0.9,0.245,1.354,0.322
		c0.422,0.071,0.511,0.61,0.95,0.524c0.114,0.277,0.156,0.583,0.33,0.755c0.256,0.253,0.152,0.526,0.191,0.854
		c-0.332,0.297-0.658,0.625-1.08,0.895c-0.911,0.583-1.706,1.306-2.304,2.245c-0.315,0.494-0.923,0.729-1.368,1.128
		c-0.327,0.293-0.692,0.567-1.034,0.861c-0.792,0.685-1.438,0.758-2.633,0.27C21.367,47.261,21.212,47.251,21.025,47.228z"/>
	<path style="fill-rule:evenodd;clip-rule:evenodd;fill:none;" d="M50.233,35.266c-0.115,0.115-0.19,0.19-0.239,0.24
		c-0.199-0.172-0.4-0.345-0.604-0.52c0.026-0.162-0.063-0.35,0.109-0.504C49.742,34.741,49.981,34.997,50.233,35.266z"/>
</g>
</svg>
