<?xml version="1.0" encoding="iso-8859-1"?>
<!-- Generator: Adobe Illustrator 16.0.0, SVG Export Plug-In . SVG Version: 6.00 Build 0)  -->
<!DOCTYPE svg PUBLIC "-//W3C//DTD SVG 1.1//EN" "http://www.w3.org/Graphics/SVG/1.1/DTD/svg11.dtd">
<svg version="1.1" id="Layer_1" xmlns="http://www.w3.org/2000/svg" xmlns:xlink="http://www.w3.org/1999/xlink" x="0px" y="0px"
	 width="72.18px" height="70.921px" viewBox="0 0 72.18 70.921" style="enable-background:new 0 0 72.18 70.921;"
	 xml:space="preserve">
<g>
	
	<path fill="currentColor" d="M30.384,54.533c0.064-0.641-0.116-1.388,0.129-2.173
		c-0.24-0.484-0.537-1.067-1.059-1.498c-0.194-0.159-0.573-1.296-0.581-1.589c-0.007-0.288-0.002-0.575-0.002-0.845
		c0.21-0.399,0.414-0.785,0.617-1.172c-0.217-0.287-0.327-0.655-0.778-0.841c-0.494-0.203-0.416-0.882-0.675-1.318
		c-0.167-0.278-0.006-0.663,0.183-0.979c0.188-0.312,0.328-0.653,0.471-0.947c-0.096-0.399-0.354-0.649-0.622-0.74
		c-0.307-0.102-0.423-0.361-0.652-0.505c-0.228-0.642-0.009-1.262,0.221-1.812c0.29-0.695,0.162-1.265-0.2-1.839
		c-0.274-0.435-0.505-1.062-0.507-1.517c-0.003-0.72-0.001-1.439-0.001-2.236c-0.874-0.71-1.217-1.771-1.517-2.845
		c0.144-0.404,0.316-0.773,0.652-1.036c0-0.292,0-0.58,0-0.89c-0.126-0.096-0.249-0.239-0.404-0.297
		c-0.66-0.25-0.848-0.862-1.099-1.414c-0.179-0.393,0.345-0.683,0.22-1.089c0.489-0.459,0.199-1.003-0.076-1.296
		c-0.538-0.573-0.784-1.192-0.821-1.944c-0.004-0.081-0.132-0.155-0.199-0.229c0.129-0.408,0.308-0.773,0.646-1.044
		c0-0.212,0-0.427,0-0.677c-1.043-0.798-1.4-1.908-1.288-3.124c-0.343-0.645-0.834-1.053-1.345-1.455
		c-0.389-0.306-0.662-0.723-0.597-1.256c0.054-0.432-0.178-0.812-0.271-1.193c-0.102-0.412-0.148-0.809-0.163-1.219
		c-0.017-0.519,0.09-1.073-0.228-1.523c-0.421-0.595-0.082-1.014,0.246-1.505c0.303,0,0.615,0,0.959,0
		c0.271,0.4,0.521,0.878,0.882,1.292c0.329,0.379,0.224,1.007,0.733,1.353c0,0.288,0,0.602,0,0.833
		c0.233,0.447,0.577,0.362,0.94,0.36c0.284-0.174,0.449-0.595,0.877-0.644c0.394,0,0.788,0.006,1.182-0.002
		c0.273-0.007,0.528-0.099,0.787-0.169c0.481-0.133,1.003-0.219,1.512-0.292c2.453-0.353,4.917-0.021,7.36-0.223
		c0.979-0.08,1.981-0.032,2.928-0.217c0.882-0.172,1.744-0.131,2.669-0.185c0.169-0.164,0.369-0.357,0.526-0.51
		c0.048-0.488-0.146-0.803-0.425-1.116c0-0.331-0.126-0.766,0.033-1.028c0.19-0.314,0.155-0.596,0.183-0.901
		c0.178-0.178,0.356-0.356,0.538-0.537c0.293-0.157,0.365,0.365,0.68,0.208c0.313,0.735,0.607,1.479,0.954,2.197
		c0.123,0.257,0.248,0.488,0.204,0.779c-0.073,0.503,0.244,0.91,0.337,1.37c0.055,0.273,0.338,0.431,0.313,0.736
		c-0.038,0.52,0.379,0.983,0.115,1.713c-0.078,0.502-0.855,0.582-1.196,1.101c0,0.211,0,0.427,0,0.617
		c0.786,0.994,0.268,2.14,0.479,3.284c0.338,0.22,0.413,0.764,0.834,1.074c-0.117,0.495,0.176,1.048-0.223,1.527
		c-0.068,0.082-0.06,0.342,0.013,0.406c0.37,0.322,0.086,0.751,0.239,1.095c0.321,0.657,0.685,1.288,0.922,1.995
		c0.109,0.324,0.203,0.702,0.086,0.909c-0.484,0.86,0.018,1.531,0.398,2.159c0.3,0.496,0.523,0.941,0.499,1.528
		c-0.033,0.752-0.008,1.507-0.008,2.162c0.227,0.442,0.411,0.799,0.637,1.237c-0.376,0.494,0.617,1.064,0.043,1.66
		c0.566,1.297,1.225,2.576,1.055,4.084c-0.081,0.711,0.059,1.332,0.563,1.936c0.368,0.439,0.549,1.08,0.513,1.719
		c-0.016,0.287,0.021,0.578-0.007,0.862c-0.081,0.818,0.104,1.559,0.502,2.278c0.245,0.44,0.418,0.928,0.372,1.467
		c-0.032,0.393-0.006,0.791-0.006,1.148c0.324,0.659,0.598,1.307,0.955,1.907c0.209,0.352,0.078,0.688,0.122,1.029
		c0.048,0.372-0.119,0.784,0.265,1.141c-0.486,0.412-0.302,0.914,0.025,1.249c0.423,0.433,0.66,0.956,0.997,1.545
		c0.177,0.786-0.233,1.582-0.442,2.397c-0.096,0.371-0.418,0.69-0.657,1.019c-0.254,0.349-0.71,0.38-1.037,0.615
		c-0.294,0.212-0.618,0.065-1.102,0.147c-0.136,0.156-0.364,0.428-0.605,0.688c-0.341,0.368-0.745,0.631-1.271,0.568
		c-0.271-0.031-0.457,0.109-0.667,0.222c-1.064,0.571-2.276,0.748-3.359,1.271c-0.944-0.064-1.78,0.521-2.725,0.459
		c-0.106-0.006-0.246-0.044-0.319,0.007c-0.812,0.562-1.736,0.443-2.631,0.408c-0.376-0.015-0.621,0.294-0.992,0.243
		c-0.317-0.046-0.648-0.031-0.969-0.004c-0.265,0.022-0.462-0.098-0.684-0.234c-0.527,0.383-1.145,0.229-1.728,0.216
		c-0.954-0.023-1.698-0.471-2.18-1.31c-0.223-0.385-0.213-0.391-0.192-1.096c0.255-0.529,0.472-0.979,0.643-1.334
		c-0.524-0.519-0.978-0.966-1.317-1.301c0-0.7-0.139-1.23,0.038-1.616c0.19-0.41,0.036-0.89,0.372-1.261
		c0.098-0.109,0.085-0.456-0.064-0.702C30.886,55.567,30.664,55.079,30.384,54.533z M48.074,54.707
		c-0.824,0.077-1.629-0.042-2.47,0.193c-0.632,0.179-1.356,0.077-2.033,0.023c-0.675-0.053-1.271,0.314-1.958,0.247
		c-0.853-0.082-1.72-0.019-2.581-0.019c-0.179,0-0.417-0.073-0.526,0.013c-0.337,0.27-0.753,0.302-1.129,0.396
		c-0.403,0.101-0.852,0.022-1.269,0.022c-0.113,0.113-0.215,0.214-0.317,0.317c0.149,0.262,0.444,0.031,0.659,0.209
		c0.188,0.153,0.444-0.119,0.713-0.11c1.219,0.036,2.439,0.019,3.658,0.015c0.342-0.001,0.664-0.096,0.996-0.177
		c0.514-0.126,1.08-0.585,1.653-0.052c0.071,0.065,0.316,0.032,0.498-0.053c0.357-0.164,1.108-0.165,1.479-0.156
		c0.73,0.016,1.466,0.082,2.173-0.203C47.897,55.263,48.125,55.155,48.074,54.707z M44.619,59.472c-0.732,0-1.444,0-2.155,0
		c-0.661,0.567-1.321-0.071-1.98,0c-0.104,0.012-0.258-0.013-0.3,0.045c-0.19,0.263-0.455,0.161-0.69,0.167
		c-0.416,0.01-0.823-0.01-1.211,0.213c-0.398,0.23-0.852,0.256-1.31,0.227c-0.314-0.02-0.63-0.003-0.92-0.003
		c-0.063,0.189-0.275,0.2-0.222,0.37c0.088,0.088,0.165,0.164,0.278,0.278c0.281,0,0.613-0.058,0.916,0.014
		c0.362,0.087,0.55-0.247,0.886-0.244c1.232,0.017,2.464,0.073,3.692-0.183c0.552-0.114,1.148-0.032,1.724-0.016
		c0.458,0.014,0.901,0.002,1.293-0.305C44.619,59.874,44.619,59.705,44.619,59.472z M40.349,46.649
		c-0.019-0.046-0.037-0.092-0.055-0.137c-0.315,0-0.633,0.021-0.947-0.004c-2.102-0.164-4.177,0.321-6.258,0.215
		c-0.119,0.118-0.221,0.22-0.336,0.335c0.107,0.093,0.213,0.185,0.366,0.317c0.223,0,0.559,0.095,0.781-0.022
		c0.344-0.182,0.604-0.341,0.921,0.016c0.047,0.053,0.213-0.017,0.314,0.012c0.34,0.09,0.585-0.383,0.873-0.204
		c0.296,0.184,0.583,0.199,0.893,0.198c0.249-0.002,0.55,0.072,0.736-0.04c0.757-0.463,1.592-0.387,2.303-0.553
		C40.076,46.737,40.213,46.692,40.349,46.649z M35.49,42.353c-0.128,0.044-0.256,0.089-0.446,0.154
		c1.248,0.92,2.366,0.548,3.483,0.067c0.04-0.019,0.045-0.12,0.068-0.19c-0.015-0.2-0.227-0.253-0.291-0.359
		C37.324,41.781,36.417,42.211,35.49,42.353z M33.16,29.386c-0.436,0.334-0.671-0.317-1.057-0.144
		c-0.688,0.308-1.465,0.216-2.146,0.525c-0.065,0.266,0.166,0.363,0.294,0.519c0.907,0.093,1.801,0.025,2.667-0.256
		C33.051,29.987,33.222,29.835,33.16,29.386z M47.065,50.168c-1.089-0.069-1.938,0.196-2.589,0.608
		c0.375,0.161,0.739,0.321,1.175,0.281c0.406-0.037,0.838-0.094,1.15,0.244c0.28-0.229,0.623-0.254,0.807-0.525
		c0.035-0.053,0.038-0.126,0.083-0.284C47.577,50.433,47.417,50.351,47.065,50.168z M43.453,41.348
		c-0.41,0.312-0.956,0.339-1.404,0.506c-0.006,0.342,0.212,0.423,0.307,0.507c0.975,0.212,1.827-0.155,2.73-0.241
		C44.669,41.544,43.92,41.75,43.453,41.348z M38.132,51.219c-0.157-0.229-0.268-0.382-0.527-0.4
		c-0.745-0.053-1.415,0.172-2.083,0.443c-0.24,0.098-0.208,0.234-0.058,0.478c0.392-0.189,0.814,0.056,1.291-0.197
		C37.132,51.342,37.617,51.125,38.132,51.219z M46.106,45.917c-0.783-0.225-1.519,0.191-2.287,0.239
		c-0.091,0.006-0.172,0.163-0.332,0.323c0.877,0,1.64,0,2.379,0C46.011,46.3,46.257,46.204,46.106,45.917z M44.177,37.439
		c-0.354,0-0.642,0.02-0.926-0.006c-0.211-0.019-0.308,0.125-0.455,0.21c-0.108,0.063-0.338,0.074-0.415,0.003
		c-0.521-0.486-0.95-0.085-1.441,0.106c0.264,0.131,0.497,0.247,0.656,0.327c0.881-0.448,1.8-0.022,2.62-0.281
		C44.203,37.662,44.194,37.595,44.177,37.439z M34.051,34.065c0.335,0.532,0.802,0.303,1.197,0.347
		c0.11-0.11,0.212-0.212,0.313-0.312C35.097,33.439,34.594,33.872,34.051,34.065z M36.386,38.25c0.473,0,0.902,0,1.368,0
		c-0.19-0.221-0.321-0.379-0.612-0.396C36.808,37.835,36.621,37.983,36.386,38.25z M33.184,42.683
		c-0.396-0.11-0.777-0.15-1.072,0.268c0.193,0.095,0.385,0.189,0.578,0.283C32.734,42.946,33.212,43.205,33.184,42.683z
		 M47.925,59.533c0.111,0.426,0.418,0.382,0.71,0.371c0.087-0.13,0.275-0.187,0.276-0.381c-0.108-0.099-0.211-0.191-0.312-0.282
		C48.366,59.342,48.153,59.435,47.925,59.533z M35.245,29.881c0.192-0.427,0.698-0.044,1.087-0.465
		c-0.567,0.071-0.985-0.045-1.436,0.116C35.021,29.656,35.095,29.731,35.245,29.881z"/>
	
	
	
	
	
	
	
	
	
	
	
	
	
	
	
</g>
</svg>
