<svg xmlns="http://www.w3.org/2000/svg" xml:space="preserve" width="72px" height="72px" viewBox="0 0 72 72">
    <g fill="currentColor">
        <path d="M21.537 34.595c-.081.661.169 1.201-.204 1.734-.102.146-.02.42-.02.635 0 .827.008 1.655-.002 2.482-.013.987.307 1.823 1.073 2.482v.934c.071.054.194.13.294.229.767.761 1.517 1.537 2.296 2.283.401.385.863.705 1.277 1.078.388.35.72.762 1.21.99.604.281 1.185.617 1.806.85.27.102.581-.016.885-.18.78-.42.965-.356 1.574.363.171.203.399.29.609.363.443.152.909.259 1.375.327.475.069.941-.002 1.432.196.668.271 1.356-.208 2.055-.195.676-.648 1.524-.356 2.407-.443l.252-.375c.157-.026.192-.04.225-.037 1.443.157 2.569-.509 3.657-1.346.475-.364.974-.726 1.544-.899.343-.377.335-.961.779-1.215.434-.247.792-.566 1.165-.972v-1.104c.548-.194.914-.5 1.259-.965.741-.994 1.193-2.1 1.526-3.259.073-.256.38-.45.263-.675-.103-.543-.384-.885-.681-1.136.035-.57.286-.928.643-1.261v-.857c-.37-.42-.607-.94-.621-1.537-.007-.355.265-.608.449-.951a15 15 0 0 1-.915-2.173c-.206-.624-.627-1.204-1.405-1.33-.273-.49-.501-1.025-.842-1.473-.331-.434-.748-.77-1.347-.906-.597-.136-1.101-.491-1.36-1.142-.233-.584-.589-1.121-.95-1.788 1.268-.009 2.246-.583 3.296-1.147h.577c.338-.303.595-.702 1.078-.814.483-.2.933.061 1.389.176.525.132.931-.292 1.421-.227.425-.366.722-.879 1.516-1.066.885.223 1.866-.315 2.896-.548.488-.111.899-.141 1.396.039.733.266 1.529.359 2.066 1.021-.017.897.164 1.774.468 2.608.161.445.15.877.203 1.32.387 3.239.139 6.49.209 9.735.003.108-.041.242.007.32.556.889-.022 1.543-.44 2.236-.225.373-.435.754-.654 1.138.172.371.313.703.114 1.158-.242.558-.498 1.156-.3 1.709-.256.42-.425.74-.835.958-.527.28-.8.857-.682 1.568-1.108.437-1.568 1.477-2.175 2.387-.035.053-.011.157-.052.19-.777.631-1.272 1.514-1.979 2.208-.161.158-.328.208-.548.256-.281.062-.652.216-.765.44-.258.516-.761.68-1.178.796-.499.14-.888.348-1.223.706-.239.257-.657.265-.809.612-.743.072-1.48-.083-2.198.21-.246.1-.462.265-.729.327-.458.106-.863.394-1.369.349-.557-.05-1.062.366-1.637.21-.389.457-.994.057-1.467.393-.264.188-.767.039-1.161.039-.684.001-1.368.011-2.051-.006a.47.47 0 0 0-.434.227c-.638-.162-1.274-.593-1.875-.393-.498.165-.961.104-1.436.176-.536.081-.986-.304-1.532-.232-.495.063-1.07.16-1.493-.024-.518-.227-1.062-.142-1.581-.354-.462-.189-1.062-.04-1.599-.04-.333-.37-.759-.439-1.229-.439-.408-.001-.823.097-1.22-.188-.166-.119-.58-.125-.725-.001-.488.419-.928.144-1.344-.031-.716-.302-1.453-.163-2.182-.21-.362-.394-.83-.443-1.333-.431-.719.019-1.445-.053-2.157.021-.652.068-1.229-.207-1.854-.248-.541-.036-1.017.186-1.531.232q-1.498.138-2.513-.972v-1.018c.204-.38.391-.703.676-.973.411-.388.487-.964.589-1.473a3.8 3.8 0 0 1 .339-.945c.285-.579.567-1.151.559-1.822a1.13 1.13 0 0 1 .432-.896c.465-.386.751-.894.983-1.43.237-.548.525-1.048.999-1.421.311-.244.468-.59.6-.939.254-.674.704-1.233 1.118-1.794.159-.215.517-.41.809-.581.474-.277.954-.548 1.329-.969.374-.418.916-.537 1.513-.86"/>
        <path d="M28.112 44.198c-.452.369-.277 1.157-.962 1.305-.5-.094-.41-.711-.798-.897a2.56 2.56 0 0 1-.915-.72v-.685c.365-.132.68-.334 1.042-.324-.199-.607-.661-.944-1.075-1.388.181-.436-.268-.802-.205-1.311-.259-.249-.533-.534-.83-.793-.509-.442-.66-1.023-.681-1.661a6 6 0 0 1 0-.539c.051-.873-.057-1.723-.439-2.515-.274-.567-.191-1.159-.215-1.762.234-.395.836-.583.682-1.141.341-.41.852-.41 1.167-.738h1.29c.226-.215.433-.428.748-.546.973-.364 1.677-1.026 2.041-2.021.022-.061.098-.103.224-.229.645.105 1.132-.29 1.641-.748a3.86 3.86 0 0 1 2.067-.954c1.13-.134 2.2-.411 3.186-.923a5.9 5.9 0 0 1 2.116-.62c.216-.023.43 0 .487-.212.328-.049.442.259.737.219.771-.105 1.508.036 2.23.606-.331.943-1.104 1.636-1.822 2.357-.809.188-1.596.387-2.159 1.069-.194.234-.47.39-.726.565-.477.327-1.109.588-1.159 1.316-.568.391-.729 1.072-1.13 1.582-.566.72-.765 1.552-.832 2.465-.084 1.141.328 2.232.234 3.363.269.366.219.79.213 1.252.756.569 1.163 1.375 1.337 2.45 1.174.848 2.39 1.815 2.772 3.446-.038.274-.191.48-.475.458-.362-.029-.633.471-1.058.119-.322-.267-.837-.219-1.122-.079-.956.466-1.819.024-2.715-.114-.084-.013-.137-.149-.267-.134-1.049.12-1.904-.404-2.766-.869-.566-.305-1.195-.41-1.863-.649"/>
    </g>
</svg>
