<?xml version="1.0" encoding="iso-8859-1"?>
<!-- Generator: Adobe Illustrator 16.0.0, SVG Export Plug-In . SVG Version: 6.00 Build 0)  -->
<!DOCTYPE svg PUBLIC "-//W3C//DTD SVG 1.1//EN" "http://www.w3.org/Graphics/SVG/1.1/DTD/svg11.dtd">
<svg version="1.1" id="Layer_1" xmlns="http://www.w3.org/2000/svg" xmlns:xlink="http://www.w3.org/1999/xlink" x="0px" y="0px"
	 width="72.36px" height="72.18px" viewBox="0 0 72.36 72.18" style="enable-background:new 0 0 72.36 72.18;" xml:space="preserve"
	>
<g>
	
	<path fill="currentColor" d="M21.537,34.595c-0.081,0.661,0.169,1.201-0.204,1.734
		c-0.102,0.146-0.02,0.42-0.02,0.635c0,0.827,0.008,1.655-0.002,2.482c-0.013,0.987,0.307,1.823,1.073,2.482
		c0,0.278,0,0.563,0,0.934c0.071,0.054,0.194,0.13,0.294,0.229c0.767,0.761,1.517,1.537,2.296,2.283
		c0.401,0.385,0.863,0.705,1.277,1.078c0.388,0.35,0.72,0.762,1.21,0.99c0.604,0.281,1.185,0.617,1.806,0.85
		c0.27,0.102,0.581-0.016,0.885-0.18c0.78-0.42,0.965-0.356,1.574,0.363c0.171,0.203,0.399,0.29,0.609,0.363
		c0.443,0.152,0.909,0.259,1.375,0.327c0.475,0.069,0.941-0.002,1.432,0.196c0.668,0.271,1.356-0.208,2.055-0.195
		c0.676-0.648,1.524-0.356,2.407-0.443c0.071-0.106,0.19-0.284,0.252-0.375c0.157-0.026,0.192-0.04,0.225-0.037
		c1.443,0.157,2.569-0.509,3.657-1.346c0.475-0.364,0.974-0.726,1.544-0.899c0.343-0.377,0.335-0.961,0.779-1.215
		c0.434-0.247,0.792-0.566,1.165-0.972c0-0.337,0-0.723,0-1.104c0.548-0.194,0.914-0.5,1.259-0.965
		c0.741-0.994,1.193-2.1,1.526-3.259c0.073-0.256,0.38-0.45,0.263-0.675c-0.103-0.543-0.384-0.885-0.681-1.136
		c0.035-0.57,0.286-0.928,0.643-1.261c0-0.262,0-0.544,0-0.857c-0.37-0.42-0.607-0.94-0.621-1.537
		c-0.007-0.355,0.265-0.608,0.449-0.951c-0.352-0.678-0.663-1.408-0.915-2.173c-0.206-0.624-0.627-1.204-1.405-1.33
		c-0.273-0.49-0.501-1.025-0.842-1.473c-0.331-0.434-0.748-0.77-1.347-0.906c-0.597-0.136-1.101-0.491-1.36-1.142
		c-0.233-0.584-0.589-1.121-0.95-1.788c1.268-0.009,2.246-0.583,3.296-1.147c0.148,0,0.364,0,0.577,0
		c0.338-0.303,0.595-0.702,1.078-0.814c0.483-0.2,0.933,0.061,1.389,0.176c0.525,0.132,0.931-0.292,1.421-0.227
		c0.425-0.366,0.722-0.879,1.516-1.066c0.885,0.223,1.866-0.315,2.896-0.548c0.488-0.111,0.899-0.141,1.396,0.039
		c0.733,0.266,1.529,0.359,2.066,1.021c-0.017,0.897,0.164,1.774,0.468,2.608c0.161,0.445,0.15,0.877,0.203,1.32
		c0.387,3.239,0.139,6.49,0.209,9.735c0.003,0.108-0.041,0.242,0.007,0.32c0.556,0.889-0.022,1.543-0.44,2.236
		c-0.225,0.373-0.435,0.754-0.654,1.138c0.172,0.371,0.313,0.703,0.114,1.158c-0.242,0.558-0.498,1.156-0.3,1.709
		c-0.256,0.42-0.425,0.74-0.835,0.958c-0.527,0.28-0.8,0.857-0.682,1.568c-1.108,0.437-1.568,1.477-2.175,2.387
		c-0.035,0.053-0.011,0.157-0.052,0.19c-0.777,0.631-1.272,1.514-1.979,2.208c-0.161,0.158-0.328,0.208-0.548,0.256
		c-0.281,0.062-0.652,0.216-0.765,0.44c-0.258,0.516-0.761,0.68-1.178,0.796c-0.499,0.14-0.888,0.348-1.223,0.706
		c-0.239,0.257-0.657,0.265-0.809,0.612c-0.743,0.072-1.48-0.083-2.198,0.21c-0.246,0.1-0.462,0.265-0.729,0.327
		c-0.458,0.106-0.863,0.394-1.369,0.349c-0.557-0.05-1.062,0.366-1.637,0.21c-0.389,0.457-0.994,0.057-1.467,0.393
		c-0.264,0.188-0.767,0.039-1.161,0.039c-0.684,0.001-1.368,0.011-2.051-0.006c-0.207-0.005-0.335,0.079-0.434,0.227
		c-0.638-0.162-1.274-0.593-1.875-0.393c-0.498,0.165-0.961,0.104-1.436,0.176c-0.536,0.081-0.986-0.304-1.532-0.232
		c-0.495,0.063-1.07,0.16-1.493-0.024c-0.518-0.227-1.062-0.142-1.581-0.354c-0.462-0.189-1.062-0.04-1.599-0.04
		c-0.333-0.37-0.759-0.439-1.229-0.439c-0.408-0.001-0.823,0.097-1.22-0.188c-0.166-0.119-0.58-0.125-0.725-0.001
		c-0.488,0.419-0.928,0.144-1.344-0.031c-0.716-0.302-1.453-0.163-2.182-0.21c-0.362-0.394-0.83-0.443-1.333-0.431
		c-0.719,0.019-1.445-0.053-2.157,0.021c-0.652,0.068-1.229-0.207-1.854-0.248c-0.541-0.036-1.017,0.186-1.531,0.232
		c-0.999,0.091-1.836-0.231-2.513-0.972c0-0.359,0-0.719,0-1.018c0.204-0.38,0.391-0.703,0.676-0.973
		c0.411-0.388,0.487-0.964,0.589-1.473c0.069-0.348,0.192-0.646,0.339-0.945c0.285-0.579,0.567-1.151,0.559-1.822
		c-0.004-0.36,0.159-0.67,0.432-0.896c0.465-0.386,0.751-0.894,0.983-1.43c0.237-0.548,0.525-1.048,0.999-1.421
		c0.311-0.244,0.468-0.59,0.6-0.939c0.254-0.674,0.704-1.233,1.118-1.794c0.159-0.215,0.517-0.41,0.809-0.581
		c0.474-0.277,0.954-0.548,1.329-0.969C20.398,35.037,20.94,34.918,21.537,34.595z"/>
	<path fill="currentColor" d="M28.112,44.198c-0.452,0.369-0.277,1.157-0.962,1.305
		c-0.5-0.094-0.41-0.711-0.798-0.897c-0.349-0.168-0.652-0.392-0.915-0.72c0-0.209,0-0.45,0-0.685
		c0.365-0.132,0.68-0.334,1.042-0.324c-0.199-0.607-0.661-0.944-1.075-1.388c0.181-0.436-0.268-0.802-0.205-1.311
		c-0.259-0.249-0.533-0.534-0.83-0.793c-0.509-0.442-0.66-1.023-0.681-1.661c-0.006-0.18-0.01-0.359,0-0.539
		c0.051-0.873-0.057-1.723-0.439-2.515c-0.274-0.567-0.191-1.159-0.215-1.762c0.234-0.395,0.836-0.583,0.682-1.141
		c0.341-0.41,0.852-0.41,1.167-0.738c0.429,0,0.86,0,1.29,0c0.226-0.215,0.433-0.428,0.748-0.546
		c0.973-0.364,1.677-1.026,2.041-2.021c0.022-0.061,0.098-0.103,0.224-0.229c0.645,0.105,1.132-0.29,1.641-0.748
		c0.574-0.517,1.333-0.867,2.067-0.954c1.13-0.134,2.2-0.411,3.186-0.923c0.683-0.354,1.376-0.54,2.116-0.62
		c0.216-0.023,0.43,0,0.487-0.212c0.328-0.049,0.442,0.259,0.737,0.219c0.771-0.105,1.508,0.036,2.23,0.606
		c-0.331,0.943-1.104,1.636-1.822,2.357c-0.809,0.188-1.596,0.387-2.159,1.069c-0.194,0.234-0.47,0.39-0.726,0.565
		c-0.477,0.327-1.109,0.588-1.159,1.316c-0.568,0.391-0.729,1.072-1.13,1.582c-0.566,0.72-0.765,1.552-0.832,2.465
		c-0.084,1.141,0.328,2.232,0.234,3.363c0.269,0.366,0.219,0.79,0.213,1.252c0.756,0.569,1.163,1.375,1.337,2.45
		c1.174,0.848,2.39,1.815,2.772,3.446c-0.038,0.274-0.191,0.48-0.475,0.458c-0.362-0.029-0.633,0.471-1.058,0.119
		c-0.322-0.267-0.837-0.219-1.122-0.079c-0.956,0.466-1.819,0.024-2.715-0.114c-0.084-0.013-0.137-0.149-0.267-0.134
		c-1.049,0.12-1.904-0.404-2.766-0.869C29.409,44.542,28.78,44.437,28.112,44.198z"/>
</g>
</svg>
