<svg xmlns="http://www.w3.org/2000/svg" xml:space="preserve" width="72px" height="72px" viewBox="0 0 72 72">
    <g fill="currentColor">
        <path d="M63.634 42.743v1.813c-.748.401-.851 1.245-1.033 1.979-.138.554-.461.966-.681 1.577l-.001.953c-.977 1.179-1.554 2.582-2.221 3.938a2.8 2.8 0 0 1-.594.839c-.762.713-1.484 1.468-2.23 2.214-.309.104-.711-.105-.951.249-.611-.114-.957-.507-1.12-1.059-.045-.153-.136-.235-.221-.342-.289-.359-.757-.477-1.069-.827-.271-.304-.53-.625-.945-.823-.49-.233-.833-.712-1.29-1.042-1.052-.762-2.039-1.609-3.157-2.289-.285-.173-.566-.37-.864-.53-1.563-.837-3.151-1.638-4.385-2.962-.337-.361-.811-.484-1.224-.7-.819-.425-1.624-.821-2.309-1.489-.612-.597-1.361-.824-2.328-.505a8.3 8.3 0 0 0-3.114 1.85c-.764.718-1.63 1.264-2.506 1.798-.335.204-.602.388-.805.738-.298.515-.728.956-1.299 1.166-1.054.386-1.865 1.183-2.885 1.635-.546.242-.691.942-1.142 1.353-.368.335-1.41 1.368-1.82 1.572-.387.192-.782.369-1.195.563-.345.923-1.238 1.395-1.894 2.073-.683.708-1.288 1.517-2.225 1.978-.755-.234-1.332-.756-1.92-1.302-.967-.897-1.766-1.941-2.649-2.91-.349-.382-.602-.852-1.001-1.2-.154-.135-.288-.444-.277-.514.111-.714-.483-1.115-.711-1.667-.214-.52-.479-1.038-.909-1.467-.466-.463-.49-1.491-.179-2.248.038-.093.052-.194.077-.288.622-.331 1.292-.558 1.864-.986.233-.174.483-.348.811-.391.253-.034.522-.156.728-.313.917-.697 1.913-1.228 2.964-1.708.693-.317 1.378-.677 2.095-.938.365-.133.535-.442.824-.621.541-.334 1.11-.622 1.659-.942.608-.355 1.308-.491 1.864-1.016.347-.326.949-.486 1.514-.502.42-.389.79-.799 1.463-.895.519-.073.945-.536 1.267-1.042-.45-.72-1.188-1.077-1.913-1.261-.83-.211-1.451-.718-2.114-1.152a10 10 0 0 0-1.598-.847c-.673-.29-1.309-.693-1.908-1.122-1.265-.905-2.595-1.696-3.959-2.436-.327-.177-.673-.284-1.029-.385-.65-.186-1.183-.615-1.778-.917-.597-.302-1.16-.638-1.837-.795a2.5 2.5 0 0 1-1.041-.552l-.346-.672c-.046-.645.544-.915.685-1.448l.659-.324c.136.037.247.042.33.094.995.626 2.106 1.016 3.194 1.408.623.225 1.216.542 1.872.706.64.16 1.237.485 1.865.701.82.283 1.646.552 2.48.788.873.247 1.797.355 2.623.705.416.176.922-.013 1.246.381.552-.096.979.215 1.442.427.657.302 1.327.579 2.005.417.672.501 1.427.6 2.108.857.314.119.61.268.919.391.342.136.674.269 1.067.309.796.083 1.578.234 2.337.598a4.9 4.9 0 0 0 3.309.319c.53-.131 1.008-.374 1.524-.499.523-.126 1.054-.183 1.554-.427.266-.13.615.026.934-.087a5.3 5.3 0 0 0 1.406-.775c.333-.25.66-.491 1.109-.453a.6.6 0 0 0 .295-.067c.496-.216.831-.758 1.399-.78.585-.023.994-.39 1.484-.597.797-.335 1.618-.611 2.421-.932.712-.285 1.415-.579 2.086-.967.546-.316 1.094-.771 1.738-.514.964-.658 2.108-.847 2.856-1.736h1.024c.45-.354 1.056-.406 1.37-.879h1.155c.543.182.871.429 1.11.774v1.067c-.485.458-.875 1.022-1.573 1.184-.091.021-.173.12-.239.199-.637.763-1.509 1.136-2.382 1.547-.576.271-1.095.686-1.599 1.109-1.054.886-2.225 1.637-3.246 2.556-.98.882-2.193 1.425-3.15 2.332-.373.354-.864.582-1.186 1.008.469.565.96 1.024 1.861 1.197 1.393.266 2.703.8 3.823 1.696.344.275.769.386 1.117.403.434.021.873.124 1.186.292.755.403 1.585.525 2.363.819.851.32 1.778.395 2.635.681.786.26 1.651.357 2.331.889m-6.415-23.831c-.119.18-.223.284-.259.408-.037.127-.009.274-.009.372l-.727.728c-.443.036-.837.235-1.244.384-.593.217-1.174.467-1.769.679-.343.122-.683.085-.965-.17-.255-.01-.384.271-.674.228-.649-.099-1.298.021-1.971-.188-.644-.199-1.383-.034-1.921.496-.159.156-.451.031-.505.329-.702 0-1.384-.038-2.06.014-.389.031-.652-.418-1.08-.183-.316.174-.694.234-1.023.391-.563.269-1.15.225-1.735.192-.378-.376-.843-.432-1.345-.419q-1.133.028-2.266 0c-.502-.012-.971.033-1.335.427-1.501.167-2.514-.862-3.746-1.502-.444 0-.951-.037-1.45.01-.503.047-.951-.135-1.423-.224-.471-.089-.934.036-1.439-.174-.491-.204-1.136-.082-1.708-.034-.606.051-1.182-.072-1.725-.277-.867-.327-1.611-.224-2.36.475-.677-.046-1.381.208-2.109.374-.84.19-1.712.16-2.479-.417-.34-.257-.772-.389-1.15-.6-.358-.199-.763-.338-1.025-.785v-1.479c.227-.209.409-.501.869-.578.321-.054.846-.177.854-.735.586-.558 1.084-1.219 1.824-1.59.113-.057.265-.04.364-.164.595-.742 1.463-.87 2.313-.905.496-.021.913-.391 1.42-.24.387-.456.983-.094 1.461-.397.354-.225.889.098 1.23.317.892.571 1.722.555 2.647.105.257-.125.527-.283.816-.348v-.461c-.349-.098-.781-.375-1.042-.261-.769.334-1.541.076-2.265.194-.354-.159-.32-.561-.558-.75.28-.51.54-.999 1.238-1.087.401-.051.709-.416.991-.767.274 0 .561-.024.842.004.678.069 1.289-.147 1.867-.447.291-.151.569-.212.887-.209.935.009 1.871-.016 2.806.008.983.026 1.93-.42 2.952-.174l.998.999c.809.005 1.557.878 2.52.228.356.309.817.346 1.239.167.484-.206.926-.234 1.391 0 .059.029.126.071.187.067 1.053-.068 1.986.401 2.969.652 1.374.351 2.641.99 3.793 1.763a40 40 0 0 1 2.661 1.938c.452.36 1.101.468 1.411 1.001.247.425.686.622.994.968.319.359.647.716 1.17.818.403.075.35.559.653.829"/>
        <path d="m13.346 31.567.612.733v.362c-.228.209-.496.012-.707.123-.471-.571-.471-.571.095-1.218m47.929.563h.385l.061.318c-.287.167-.466.164-.446-.318"/>
    </g>
</svg>
