<?xml version="1.0" encoding="iso-8859-1"?>
<!-- Generator: Adobe Illustrator 16.0.0, SVG Export Plug-In . SVG Version: 6.00 Build 0)  -->
<!DOCTYPE svg PUBLIC "-//W3C//DTD SVG 1.1//EN" "http://www.w3.org/Graphics/SVG/1.1/DTD/svg11.dtd">
<svg version="1.1" id="Layer_1" xmlns="http://www.w3.org/2000/svg" xmlns:xlink="http://www.w3.org/1999/xlink" x="0px" y="0px"
	 width="72.36px" height="72.18px" viewBox="0 0 72.36 72.18" style="enable-background:new 0 0 72.36 72.18;" xml:space="preserve"
	>
<g>
	<path style="fill-rule:evenodd;clip-rule:evenodd;fill:none;" d="M-6.984,79.631c0-28.871,0-57.743,0-86.615
		c28.8,0,57.6,0,86.399,0c0,28.872,0,57.744,0,86.615C50.616,79.631,21.816,79.631-6.984,79.631z M63.634,42.743
		c-0.681-0.532-1.545-0.629-2.329-0.89c-0.856-0.286-1.784-0.36-2.635-0.681c-0.778-0.294-1.608-0.416-2.363-0.819
		c-0.313-0.168-0.752-0.271-1.186-0.292c-0.349-0.018-0.773-0.128-1.117-0.403c-1.12-0.896-2.431-1.431-3.823-1.696
		c-0.901-0.173-1.393-0.632-1.861-1.197c0.321-0.427,0.813-0.655,1.186-1.008c0.957-0.906,2.17-1.449,3.15-2.332
		c1.021-0.919,2.192-1.67,3.246-2.556c0.504-0.424,1.022-0.838,1.599-1.109c0.873-0.411,1.745-0.784,2.382-1.547
		c0.066-0.079,0.148-0.177,0.239-0.199c0.698-0.162,1.088-0.726,1.573-1.184c0-0.35,0-0.708,0-1.067
		c-0.239-0.345-0.567-0.592-1.11-0.774c-0.272,0-0.703,0-1.155,0c-0.314,0.473-0.92,0.525-1.37,0.879c-0.332,0-0.687,0-1.024,0
		c-0.748,0.889-1.893,1.078-2.856,1.736c-0.645-0.257-1.192,0.198-1.738,0.514c-0.671,0.388-1.374,0.682-2.086,0.967
		c-0.803,0.321-1.624,0.597-2.421,0.932c-0.49,0.207-0.899,0.573-1.484,0.597c-0.568,0.022-0.903,0.564-1.399,0.78
		c-0.104,0.045-0.194,0.076-0.295,0.067c-0.449-0.038-0.776,0.203-1.109,0.453c-0.431,0.323-0.892,0.591-1.406,0.775
		c-0.318,0.114-0.668-0.042-0.934,0.087c-0.5,0.244-1.03,0.301-1.554,0.427c-0.517,0.125-0.994,0.367-1.524,0.499
		c-1.054,0.261-2.225,0.202-3.309-0.319c-0.759-0.364-1.541-0.515-2.337-0.598c-0.394-0.041-0.725-0.173-1.067-0.309
		c-0.309-0.123-0.605-0.271-0.919-0.391c-0.681-0.258-1.436-0.356-2.108-0.857c-0.678,0.163-1.348-0.115-2.005-0.417
		c-0.463-0.212-0.89-0.523-1.442-0.427c-0.324-0.394-0.83-0.205-1.246-0.381c-0.826-0.35-1.75-0.458-2.623-0.705
		c-0.834-0.236-1.661-0.505-2.48-0.788c-0.628-0.216-1.225-0.541-1.865-0.701c-0.656-0.164-1.249-0.481-1.872-0.706
		c-1.088-0.393-2.199-0.782-3.194-1.408c-0.083-0.052-0.194-0.057-0.33-0.094c-0.224,0.11-0.463,0.227-0.659,0.324
		c-0.141,0.533-0.73,0.803-0.685,1.448c0.108,0.209,0.246,0.476,0.346,0.672c0.351,0.301,0.733,0.48,1.041,0.552
		c0.678,0.157,1.24,0.493,1.837,0.795c0.596,0.302,1.128,0.731,1.778,0.917c0.355,0.102,0.702,0.208,1.029,0.385
		c1.364,0.74,2.695,1.53,3.959,2.436c0.599,0.429,1.235,0.832,1.908,1.122c0.563,0.242,1.082,0.509,1.598,0.847
		c0.663,0.435,1.284,0.941,2.114,1.152c0.725,0.185,1.463,0.541,1.913,1.261c-0.322,0.506-0.748,0.969-1.267,1.042
		c-0.673,0.096-1.042,0.506-1.463,0.895c-0.565,0.016-1.167,0.176-1.514,0.502c-0.556,0.524-1.256,0.66-1.864,1.016
		c-0.549,0.32-1.118,0.608-1.659,0.942c-0.29,0.179-0.459,0.488-0.824,0.621c-0.717,0.262-1.402,0.621-2.095,0.938
		c-1.051,0.48-2.046,1.011-2.964,1.708c-0.206,0.157-0.474,0.279-0.728,0.313c-0.327,0.043-0.578,0.217-0.811,0.391
		c-0.572,0.429-1.243,0.655-1.864,0.986c-0.024,0.094-0.039,0.195-0.077,0.288c-0.311,0.757-0.287,1.785,0.179,2.248
		c0.431,0.429,0.695,0.947,0.909,1.467c0.228,0.552,0.822,0.953,0.711,1.667c-0.011,0.069,0.123,0.379,0.277,0.514
		c0.4,0.349,0.653,0.818,1.001,1.2c0.884,0.969,1.682,2.013,2.649,2.91c0.588,0.546,1.166,1.067,1.92,1.302
		c0.937-0.461,1.542-1.27,2.225-1.978c0.655-0.679,1.548-1.15,1.894-2.073c0.413-0.193,0.808-0.37,1.195-0.563
		c0.411-0.204,1.453-1.237,1.82-1.572c0.45-0.41,0.596-1.11,1.142-1.353c1.02-0.452,1.831-1.249,2.885-1.635
		c0.571-0.21,1.001-0.651,1.299-1.166c0.203-0.351,0.47-0.534,0.805-0.738c0.876-0.534,1.742-1.08,2.506-1.798
		c0.887-0.832,1.914-1.452,3.114-1.85c0.966-0.319,1.715-0.092,2.328,0.505c0.685,0.668,1.489,1.064,2.309,1.489
		c0.413,0.216,0.887,0.339,1.224,0.7c1.233,1.324,2.821,2.125,4.385,2.962c0.298,0.16,0.579,0.357,0.864,0.53
		c1.118,0.68,2.105,1.527,3.157,2.289c0.457,0.33,0.8,0.809,1.29,1.042c0.415,0.198,0.674,0.52,0.945,0.823
		c0.313,0.351,0.78,0.468,1.069,0.827c0.085,0.106,0.176,0.188,0.221,0.342c0.163,0.552,0.509,0.944,1.12,1.059
		c0.24-0.354,0.643-0.146,0.951-0.249c0.746-0.746,1.469-1.501,2.23-2.214c0.265-0.247,0.445-0.537,0.594-0.839
		c0.667-1.355,1.244-2.759,2.222-3.938c0-0.36,0-0.72,0-0.953c0.22-0.611,0.543-1.023,0.681-1.577
		c0.183-0.734,0.285-1.578,1.033-1.979C63.634,43.92,63.634,43.348,63.634,42.743z M57.219,18.912
		c-0.304-0.271-0.25-0.754-0.652-0.833c-0.522-0.102-0.851-0.458-1.17-0.818c-0.309-0.347-0.747-0.543-0.994-0.968
		c-0.311-0.533-0.959-0.641-1.411-1.001c-0.859-0.685-1.757-1.333-2.661-1.938c-1.152-0.772-2.419-1.412-3.793-1.763
		c-0.982-0.251-1.916-0.72-2.969-0.652c-0.061,0.004-0.128-0.038-0.187-0.067c-0.465-0.235-0.906-0.206-1.391,0
		c-0.422,0.178-0.883,0.142-1.239-0.167c-0.963,0.65-1.711-0.223-2.52-0.228c-0.364-0.365-0.695-0.695-0.998-0.999
		c-1.021-0.246-1.969,0.2-2.952,0.174c-0.935-0.024-1.871,0.001-2.806-0.008c-0.317-0.003-0.596,0.058-0.887,0.209
		c-0.578,0.3-1.189,0.516-1.867,0.447c-0.281-0.028-0.567-0.004-0.842-0.004c-0.282,0.351-0.59,0.716-0.991,0.767
		c-0.699,0.089-0.958,0.578-1.238,1.087c0.238,0.189,0.204,0.59,0.558,0.75c0.724-0.118,1.496,0.14,2.265-0.194
		c0.261-0.114,0.693,0.164,1.042,0.261c0,0.167,0,0.311,0,0.461c-0.289,0.065-0.559,0.223-0.816,0.348
		c-0.925,0.45-1.755,0.465-2.647-0.105c-0.342-0.219-0.877-0.542-1.23-0.317c-0.478,0.303-1.075-0.058-1.461,0.397
		c-0.507-0.151-0.924,0.22-1.42,0.24c-0.85,0.035-1.718,0.163-2.313,0.905c-0.099,0.124-0.251,0.106-0.364,0.164
		c-0.74,0.372-1.238,1.033-1.824,1.59c-0.008,0.558-0.533,0.681-0.854,0.735c-0.459,0.077-0.642,0.369-0.869,0.578
		c0,0.563,0,1.062,0,1.479c0.263,0.447,0.667,0.586,1.025,0.785c0.378,0.211,0.81,0.343,1.15,0.6
		c0.766,0.577,1.639,0.607,2.479,0.417c0.728-0.166,1.433-0.42,2.109-0.374c0.749-0.699,1.493-0.802,2.36-0.475
		c0.543,0.205,1.119,0.328,1.725,0.277c0.572-0.048,1.217-0.17,1.708,0.034c0.505,0.21,0.968,0.085,1.439,0.174
		c0.472,0.089,0.919,0.271,1.423,0.224c0.499-0.047,1.006-0.01,1.45-0.01c1.231,0.641,2.245,1.67,3.746,1.503
		c0.365-0.395,0.833-0.439,1.335-0.428c0.755,0.018,1.511,0.019,2.266,0c0.502-0.013,0.967,0.043,1.345,0.419
		c0.585,0.033,1.172,0.076,1.735-0.192c0.329-0.157,0.707-0.216,1.023-0.391c0.428-0.235,0.691,0.214,1.08,0.183
		c0.676-0.052,1.357-0.014,2.06-0.014c0.054-0.298,0.346-0.173,0.505-0.329c0.538-0.53,1.277-0.695,1.921-0.496
		c0.673,0.208,1.321,0.089,1.971,0.188c0.29,0.043,0.419-0.237,0.674-0.228c0.282,0.255,0.622,0.292,0.965,0.17
		c0.595-0.212,1.176-0.462,1.769-0.679c0.407-0.149,0.801-0.348,1.244-0.384c0.229-0.229,0.457-0.458,0.727-0.728
		c0-0.098-0.028-0.244,0.009-0.372C56.997,19.196,57.1,19.092,57.219,18.912z M13.346,31.567c-0.566,0.646-0.566,0.646-0.095,1.218
		c0.211-0.111,0.479,0.086,0.707-0.123c0-0.132,0-0.274,0-0.362C13.76,32.062,13.581,31.848,13.346,31.567z M61.275,32.13
		c-0.02,0.482,0.159,0.485,0.445,0.318c-0.021-0.112-0.04-0.208-0.061-0.318C61.538,32.13,61.442,32.13,61.275,32.13z"/>
	<path fill="currentColor" d="M63.634,42.743c0,0.604,0,1.177,0,1.813
		c-0.748,0.401-0.851,1.245-1.033,1.979c-0.138,0.554-0.461,0.966-0.681,1.577c0,0.233,0,0.593-0.001,0.953
		c-0.977,1.179-1.554,2.582-2.221,3.938c-0.148,0.302-0.329,0.592-0.594,0.839c-0.762,0.713-1.484,1.468-2.23,2.214
		c-0.309,0.104-0.711-0.105-0.951,0.249c-0.611-0.114-0.957-0.507-1.12-1.059c-0.045-0.153-0.136-0.235-0.221-0.342
		c-0.289-0.359-0.757-0.477-1.069-0.827c-0.271-0.304-0.53-0.625-0.945-0.823c-0.49-0.233-0.833-0.712-1.29-1.042
		c-1.052-0.762-2.039-1.609-3.157-2.289c-0.285-0.173-0.566-0.37-0.864-0.53c-1.563-0.837-3.151-1.638-4.385-2.962
		c-0.337-0.361-0.811-0.484-1.224-0.7c-0.819-0.425-1.624-0.821-2.309-1.489c-0.612-0.597-1.361-0.824-2.328-0.505
		c-1.201,0.397-2.228,1.018-3.114,1.85c-0.764,0.718-1.63,1.264-2.506,1.798c-0.335,0.204-0.602,0.388-0.805,0.738
		c-0.298,0.515-0.728,0.956-1.299,1.166c-1.054,0.386-1.865,1.183-2.885,1.635c-0.546,0.242-0.691,0.942-1.142,1.353
		c-0.368,0.335-1.41,1.368-1.82,1.572c-0.387,0.192-0.782,0.369-1.195,0.563c-0.345,0.923-1.238,1.395-1.894,2.073
		c-0.683,0.708-1.288,1.517-2.225,1.978c-0.755-0.234-1.332-0.756-1.92-1.302c-0.967-0.897-1.766-1.941-2.649-2.91
		c-0.349-0.382-0.602-0.852-1.001-1.2c-0.154-0.135-0.288-0.444-0.277-0.514c0.111-0.714-0.483-1.115-0.711-1.667
		c-0.214-0.52-0.479-1.038-0.909-1.467c-0.466-0.463-0.49-1.491-0.179-2.248c0.038-0.093,0.052-0.194,0.077-0.288
		c0.622-0.331,1.292-0.558,1.864-0.986c0.233-0.174,0.483-0.348,0.811-0.391c0.253-0.034,0.522-0.156,0.728-0.313
		c0.917-0.697,1.913-1.228,2.964-1.708c0.693-0.317,1.378-0.677,2.095-0.938c0.365-0.133,0.535-0.442,0.824-0.621
		c0.541-0.334,1.11-0.622,1.659-0.942c0.608-0.355,1.308-0.491,1.864-1.016c0.347-0.326,0.949-0.486,1.514-0.502
		c0.42-0.389,0.79-0.799,1.463-0.895c0.519-0.073,0.945-0.536,1.267-1.042c-0.45-0.72-1.188-1.077-1.913-1.261
		c-0.83-0.211-1.451-0.718-2.114-1.152c-0.516-0.338-1.035-0.605-1.598-0.847c-0.673-0.29-1.309-0.693-1.908-1.122
		c-1.265-0.905-2.595-1.696-3.959-2.436c-0.327-0.177-0.673-0.284-1.029-0.385c-0.65-0.186-1.183-0.615-1.778-0.917
		c-0.597-0.302-1.16-0.638-1.837-0.795c-0.308-0.071-0.69-0.25-1.041-0.552c-0.101-0.196-0.238-0.462-0.346-0.672
		c-0.046-0.645,0.544-0.915,0.685-1.448c0.196-0.097,0.435-0.214,0.659-0.324c0.136,0.037,0.247,0.042,0.33,0.094
		c0.995,0.626,2.106,1.016,3.194,1.408c0.623,0.225,1.216,0.542,1.872,0.706c0.64,0.16,1.237,0.485,1.865,0.701
		c0.82,0.283,1.646,0.552,2.48,0.788c0.873,0.247,1.797,0.355,2.623,0.705c0.416,0.176,0.922-0.013,1.246,0.381
		c0.552-0.096,0.979,0.215,1.442,0.427c0.657,0.302,1.327,0.579,2.005,0.417c0.672,0.501,1.427,0.6,2.108,0.857
		c0.314,0.119,0.61,0.268,0.919,0.391c0.342,0.136,0.674,0.269,1.067,0.309c0.796,0.083,1.578,0.234,2.337,0.598
		c1.084,0.521,2.255,0.58,3.309,0.319c0.53-0.131,1.008-0.374,1.524-0.499c0.523-0.126,1.054-0.183,1.554-0.427
		c0.266-0.13,0.615,0.026,0.934-0.087c0.515-0.184,0.976-0.452,1.406-0.775c0.333-0.25,0.66-0.491,1.109-0.453
		c0.101,0.008,0.191-0.022,0.295-0.067c0.496-0.216,0.831-0.758,1.399-0.78c0.585-0.023,0.994-0.39,1.484-0.597
		c0.797-0.335,1.618-0.611,2.421-0.932c0.712-0.285,1.415-0.579,2.086-0.967c0.546-0.316,1.094-0.771,1.738-0.514
		c0.964-0.658,2.108-0.847,2.856-1.736c0.338,0,0.692,0,1.024,0c0.45-0.354,1.056-0.406,1.37-0.879c0.452,0,0.883,0,1.155,0
		c0.543,0.182,0.871,0.429,1.11,0.774c0,0.359,0,0.717,0,1.067c-0.485,0.458-0.875,1.022-1.573,1.184
		c-0.091,0.021-0.173,0.12-0.239,0.199c-0.637,0.763-1.509,1.136-2.382,1.547c-0.576,0.271-1.095,0.686-1.599,1.109
		c-1.054,0.886-2.225,1.637-3.246,2.556c-0.98,0.882-2.193,1.425-3.15,2.332c-0.373,0.354-0.864,0.582-1.186,1.008
		c0.469,0.565,0.96,1.024,1.861,1.197c1.393,0.266,2.703,0.8,3.823,1.696c0.344,0.275,0.769,0.386,1.117,0.403
		c0.434,0.021,0.873,0.124,1.186,0.292c0.755,0.403,1.585,0.525,2.363,0.819c0.851,0.32,1.778,0.395,2.635,0.681
		C62.089,42.114,62.954,42.211,63.634,42.743z"/>
	<path fill="currentColor" d="M57.219,18.912c-0.119,0.18-0.223,0.284-0.259,0.408
		c-0.037,0.127-0.009,0.274-0.009,0.372c-0.27,0.27-0.498,0.499-0.727,0.728c-0.443,0.036-0.837,0.235-1.244,0.384
		c-0.593,0.217-1.174,0.467-1.769,0.679c-0.343,0.122-0.683,0.085-0.965-0.17c-0.255-0.01-0.384,0.271-0.674,0.228
		c-0.649-0.099-1.298,0.021-1.971-0.188c-0.644-0.199-1.383-0.034-1.921,0.496c-0.159,0.156-0.451,0.031-0.505,0.329
		c-0.702,0-1.384-0.038-2.06,0.014c-0.389,0.031-0.652-0.418-1.08-0.183c-0.316,0.174-0.694,0.234-1.023,0.391
		c-0.563,0.269-1.15,0.225-1.735,0.192c-0.378-0.376-0.843-0.432-1.345-0.419c-0.755,0.02-1.511,0.018-2.266,0
		c-0.502-0.012-0.971,0.033-1.335,0.427c-1.501,0.167-2.514-0.862-3.746-1.502c-0.444,0-0.951-0.037-1.45,0.01
		c-0.503,0.047-0.951-0.135-1.423-0.224c-0.471-0.089-0.934,0.036-1.439-0.174c-0.491-0.204-1.136-0.082-1.708-0.034
		c-0.606,0.051-1.182-0.072-1.725-0.277c-0.867-0.327-1.611-0.224-2.36,0.475c-0.677-0.046-1.381,0.208-2.109,0.374
		c-0.84,0.19-1.712,0.16-2.479-0.417c-0.34-0.257-0.772-0.389-1.15-0.6c-0.358-0.199-0.763-0.338-1.025-0.785
		c0-0.418,0-0.916,0-1.479c0.227-0.209,0.409-0.501,0.869-0.578c0.321-0.054,0.846-0.177,0.854-0.735
		c0.586-0.558,1.084-1.219,1.824-1.59c0.113-0.057,0.265-0.04,0.364-0.164c0.595-0.742,1.463-0.87,2.313-0.905
		c0.496-0.021,0.913-0.391,1.42-0.24c0.387-0.456,0.983-0.094,1.461-0.397c0.354-0.225,0.889,0.098,1.23,0.317
		c0.892,0.571,1.722,0.555,2.647,0.105c0.257-0.125,0.527-0.283,0.816-0.348c0-0.15,0-0.294,0-0.461
		c-0.349-0.098-0.781-0.375-1.042-0.261c-0.769,0.334-1.541,0.076-2.265,0.194c-0.354-0.159-0.32-0.561-0.558-0.75
		c0.28-0.51,0.54-0.999,1.238-1.087c0.401-0.051,0.709-0.416,0.991-0.767c0.274,0,0.561-0.024,0.842,0.004
		c0.678,0.069,1.289-0.147,1.867-0.447c0.291-0.151,0.569-0.212,0.887-0.209c0.935,0.009,1.871-0.016,2.806,0.008
		c0.983,0.026,1.93-0.42,2.952-0.174c0.303,0.303,0.634,0.634,0.998,0.999c0.809,0.005,1.557,0.878,2.52,0.228
		c0.356,0.309,0.817,0.346,1.239,0.167c0.484-0.206,0.926-0.234,1.391,0c0.059,0.029,0.126,0.071,0.187,0.067
		c1.053-0.068,1.986,0.401,2.969,0.652c1.374,0.351,2.641,0.99,3.793,1.763c0.904,0.605,1.802,1.253,2.661,1.938
		c0.452,0.36,1.101,0.468,1.411,1.001c0.247,0.425,0.686,0.622,0.994,0.968c0.319,0.359,0.647,0.716,1.17,0.818
		C56.969,18.158,56.916,18.642,57.219,18.912z"/>
	<path fill="currentColor" d="M13.346,31.567c0.234,0.28,0.414,0.495,0.612,0.733c0,0.088,0,0.229,0,0.362
		c-0.228,0.209-0.496,0.012-0.707,0.123C12.78,32.214,12.78,32.214,13.346,31.567z"/>
	<path fill="currentColor" d="M61.275,32.13c0.167,0,0.263,0,0.385,0c0.021,0.11,0.039,0.206,0.061,0.318
		C61.434,32.615,61.255,32.612,61.275,32.13z"/>
</g>
</svg>
