<svg xmlns="http://www.w3.org/2000/svg" xml:space="preserve" width="72px" height="72px" viewBox="0 0 72 72">
    <path fill="currentColor" d="M23.688 61.61v-1.433c.34-.819.888-1.5 1.115-2.374.155-.597.757-1.03 1.037-1.724-.091-.324.177-.79-.183-1.225-.114-.138-.071-.507.119-.791.148-.222.406-.496.291-.834.358-.643 1.21-.905 1.348-1.772l-1.942-.82c-.127-.595-.229-1.164-.585-1.711-.486-.746-.803-1.604-1.161-2.429-.079-.182-.035-.42-.036-.632-.004-.576.027-1.153-.007-1.728-.084-1.44.388-2.759.886-4.063.118-.311.446-.54.68-.81.116-.01.218-.021.321-.025.139-.004.279-.001.384-.001.409.386.57.814.548 1.334-.025.575-.006 1.152-.006 1.697.252.501.492.978.748 1.483h.689c.126-.136.125-.316.214-.467.511-.858 1.288-1.311 2.137-.965.404.165.745.062 1.074.169.174-.201.16-.44.089-.548-.806-1.228-.469-2.465.045-3.636.264-.6.467-1.286 1.021-1.737-.048-.447.414-.38.61-.586a21 21 0 0 0 2.065-2.494c.345-.494.842-.885 1.285-1.308.655-.625 1.117-1.367 1.547-2.165.557-1.029 1.002-2.112 1.581-3.127.099-.174.296-.37.271-.526-.198-1.181.685-2.215.44-3.386-.081-.385.211-.641.234-.991.058-.852-.146-1.631-.526-2.379-.338-.664-.338-.664-.348-1.315-.302-.61-.653-1.156-.846-1.752-.214-.665-.983-.797-1.203-1.321-.291-.696-1.037-.797-1.401-1.379V13c.367-.413.775-.721 1.389-.781.525-.051 1.034-.452 1.553.017.02.018.07.006.105.002.885-.098 1.743.119 2.71.271.549.479 1.383.538 2.147.857.289.671.871 1.189 1.457 1.595.596.412 1.016.975 1.57 1.404.288.223.264.733.612.808.432.093.44.506.685.675.38.262.155.755.516.995.291.194.483.57.567.835.108.337.215.734.331 1.057.201.553.535 1.068.71 1.648.029.095.109.185.108.277-.036 1.811.38 3.603.221 5.418-.475.706-.081 1.548-.389 2.322-.223.559-.043 1.278-.043 1.926v.494c-.452.676-.587 1.41-.639 2.154-.039.555-.028 1.07-.413 1.566-.494.636-.462 1.517-.876 2.226-.384.656-.604 1.405-.908 2.104-.409.944-.548 1.995-1.241 2.845-.355.437-.364 1.131-.824 1.748-.426.272-1.04.587-1.405 1.047-.849.208-1.638.229-2.324.571a.476.476 0 0 0 .312.557c1.159.36 1.64 1.239 1.884 2.328.02.089.124.159.179.226-.024.091-.024.169-.062.219-.401.545-.517 1.251-1.058 1.729-.498.441-1.123.607-1.686.901-.348.181-.468.379-.441.75.324.459.795.585 1.348.57q1.08-.03 2.159 0c.665.017 1.31-.028 1.91-.347.37-.196.77-.031 1.165-.106l.479.527c-.121.37-.266.739-.361 1.121-.162.653-.524 1.062-1.212 1.186-.255.046-.557.143-.72.323-.372.414-.957.381-1.334.692-.39.322-.838.431-1.275.586-1.194.425-1.777.367-3.129.151-.71-.113-1.398-.205-2.093-.431-.462-.15-.929-.214-1.269-.591-.151-.169-.339-.042-.52-.12-.404.563-.851 1.087-1.185 1.676-.456.803-1.222.972-2.006 1.162-.339.082-.589-.146-.87-.229-.366.259-.507.607-.663 1.015-.345.898-.819 1.749-1.279 2.6-.204.377-.634.514-.993.716-.245-.001-.382-.301-.669-.226-.12.031-.275.06-.404-.056-.9-.8-2.257-.716-3.114-1.604-.588.044-.836-.445-1.247-.796m10.178-14.677c.333.515.813.217 1.192.304.376-.482.64-.907.467-1.461-.175-.105-.348-.048-.541-.037-.28.472-.916.625-1.118 1.194m3.646 8.398-.534-.534c-.169.024-.354-.073-.534.086.003.319-.077.664.053.985h.479zm-8.069-5.64c-.669-.038-.901.045-1.131.373-.151.216-.173.439.103.669.383-.237.677-.556 1.028-1.042m7.341 3.163c.054-.328.522-.077.515-.435-.407-.463-.642-.553-.83-.365-.111.342-.006.576.315.8m-5.971-4.065c-.089-.437.579-.093.432-.588-.362-.271-.616-.07-.866.227zm-1.578-1.164c.106-.19.106-.381-.011-.591-.198.124-.385.245-.349.524.102.123.223.136.36.067m3.201 10.408q-.152.107 0 .212.151-.105 0-.212m-5.028-38.961.532-.191c.055.226.055.226-.532.191"/>
</svg>
