<?xml version="1.0" encoding="iso-8859-1"?>
<!-- Generator: Adobe Illustrator 16.0.0, SVG Export Plug-In . SVG Version: 6.00 Build 0)  -->
<!DOCTYPE svg PUBLIC "-//W3C//DTD SVG 1.1//EN" "http://www.w3.org/Graphics/SVG/1.1/DTD/svg11.dtd">
<svg version="1.1" id="Layer_1" xmlns="http://www.w3.org/2000/svg" xmlns:xlink="http://www.w3.org/1999/xlink" x="0px" y="0px"
	 width="72.36px" height="72.18px" viewBox="0 0 72.36 72.18" style="enable-background:new 0 0 72.36 72.18;" xml:space="preserve"
	>
<g>
	<path style="fill-rule:evenodd;clip-rule:evenodd;fill:none;" d="M-6.984-6.984c28.8,0,57.6,0,86.399,0c0,28.872,0,57.744,0,86.615
		c-28.8,0-57.6,0-86.399,0C-6.984,50.76-6.984,21.888-6.984-6.984z M23.688,61.61c0.411,0.351,0.659,0.84,1.247,0.8
		c0.856,0.889,2.213,0.805,3.114,1.604c0.129,0.115,0.284,0.087,0.404,0.056c0.287-0.075,0.424,0.225,0.669,0.225
		c0.359-0.201,0.79-0.338,0.993-0.715c0.459-0.851,0.934-1.701,1.279-2.6c0.156-0.407,0.297-0.756,0.663-1.015
		c0.281,0.082,0.53,0.311,0.87,0.229c0.784-0.19,1.551-0.359,2.006-1.162c0.334-0.589,0.781-1.113,1.185-1.676
		c0.18,0.078,0.368-0.049,0.52,0.12c0.34,0.377,0.807,0.44,1.269,0.591c0.694,0.226,1.383,0.317,2.093,0.431
		c1.352,0.216,1.935,0.273,3.129-0.151c0.438-0.155,0.886-0.264,1.275-0.586c0.377-0.312,0.962-0.278,1.334-0.692
		c0.163-0.181,0.465-0.277,0.72-0.323c0.688-0.124,1.05-0.532,1.212-1.186c0.096-0.382,0.24-0.751,0.361-1.121
		c-0.141-0.155-0.309-0.341-0.479-0.527c-0.396,0.075-0.795-0.09-1.165,0.106c-0.601,0.318-1.245,0.363-1.91,0.347
		c-0.719-0.02-1.439-0.02-2.159,0c-0.553,0.015-1.023-0.111-1.348-0.57c-0.026-0.371,0.094-0.569,0.441-0.75
		c0.563-0.294,1.188-0.46,1.686-0.901c0.541-0.479,0.656-1.185,1.058-1.729c0.037-0.05,0.037-0.128,0.062-0.219
		c-0.055-0.066-0.159-0.137-0.179-0.226c-0.244-1.089-0.725-1.968-1.884-2.328c-0.16-0.05-0.367-0.237-0.312-0.557
		c0.687-0.343,1.476-0.363,2.324-0.571c0.365-0.46,0.979-0.774,1.405-1.047c0.46-0.617,0.469-1.312,0.824-1.748
		c0.693-0.85,0.832-1.9,1.241-2.845c0.304-0.699,0.524-1.448,0.908-2.104c0.414-0.709,0.382-1.59,0.876-2.226
		c0.385-0.496,0.374-1.012,0.413-1.566c0.052-0.744,0.187-1.478,0.639-2.154c0-0.134,0-0.314,0-0.494
		c0-0.648-0.18-1.367,0.043-1.926c0.308-0.774-0.086-1.616,0.389-2.322c0.159-1.815-0.257-3.607-0.221-5.418
		c0.001-0.092-0.079-0.182-0.108-0.277c-0.175-0.58-0.509-1.095-0.71-1.648c-0.116-0.323-0.223-0.72-0.331-1.057
		c-0.084-0.265-0.276-0.642-0.567-0.835c-0.36-0.24-0.136-0.733-0.516-0.995c-0.244-0.169-0.253-0.582-0.685-0.675
		c-0.349-0.075-0.324-0.585-0.612-0.808c-0.555-0.429-0.975-0.992-1.57-1.404c-0.586-0.406-1.168-0.924-1.457-1.595
		c-0.765-0.319-1.599-0.378-2.147-0.857c-0.967-0.153-1.825-0.369-2.71-0.271c-0.035,0.004-0.086,0.016-0.105-0.002
		c-0.519-0.469-1.027-0.068-1.553-0.017c-0.613,0.06-1.022,0.368-1.389,0.781c0,0.299,0,0.585,0,0.839
		c0.364,0.582,1.11,0.684,1.401,1.379c0.22,0.523,0.989,0.656,1.203,1.321c0.192,0.596,0.544,1.142,0.846,1.752
		c0.01,0.651,0.01,0.651,0.348,1.315c0.381,0.748,0.584,1.527,0.526,2.379c-0.023,0.351-0.315,0.606-0.234,0.991
		c0.244,1.17-0.639,2.205-0.44,3.386c0.025,0.156-0.172,0.352-0.271,0.526c-0.579,1.016-1.024,2.098-1.581,3.127
		c-0.431,0.798-0.893,1.54-1.547,2.165c-0.442,0.423-0.939,0.813-1.285,1.308c-0.623,0.891-1.315,1.71-2.065,2.494
		c-0.196,0.206-0.658,0.139-0.61,0.586c-0.554,0.451-0.757,1.138-1.021,1.737c-0.514,1.171-0.851,2.408-0.045,3.636
		c0.071,0.107,0.084,0.347-0.089,0.548c-0.329-0.107-0.67-0.004-1.074-0.169c-0.849-0.346-1.626,0.106-2.137,0.965
		c-0.089,0.15-0.088,0.331-0.214,0.467c-0.24,0-0.481,0-0.689,0c-0.255-0.506-0.495-0.982-0.748-1.483
		c0-0.545-0.019-1.122,0.006-1.697c0.022-0.52-0.139-0.948-0.548-1.334c-0.105,0-0.245-0.003-0.384,0.001
		c-0.103,0.004-0.205,0.016-0.321,0.025c-0.234,0.27-0.562,0.499-0.68,0.81c-0.498,1.305-0.971,2.623-0.886,4.063
		c0.034,0.574,0.003,1.151,0.007,1.728c0.001,0.212-0.043,0.45,0.036,0.632c0.358,0.824,0.675,1.683,1.161,2.429
		c0.356,0.547,0.458,1.116,0.585,1.711c0.635,0.268,1.271,0.537,1.942,0.82c-0.138,0.867-0.99,1.13-1.348,1.772
		c0.115,0.338-0.143,0.612-0.291,0.834c-0.19,0.284-0.232,0.653-0.119,0.791c0.36,0.435,0.092,0.9,0.183,1.225
		c-0.279,0.693-0.881,1.127-1.037,1.724c-0.227,0.874-0.775,1.555-1.115,2.374C23.688,60.622,23.688,61.091,23.688,61.61z
		 M27.408,19.072c0.586,0.036,0.586,0.036,0.532-0.191C27.868,18.907,27.71,18.964,27.408,19.072z"/>
	<path fill="currentColor" d="M23.688,61.61c0-0.52,0-0.988,0-1.433c0.34-0.819,0.888-1.5,1.115-2.374
		c0.155-0.597,0.757-1.03,1.037-1.724c-0.091-0.324,0.177-0.79-0.183-1.225c-0.114-0.138-0.071-0.507,0.119-0.791
		c0.148-0.222,0.406-0.496,0.291-0.834c0.358-0.643,1.21-0.905,1.348-1.772c-0.671-0.283-1.308-0.553-1.942-0.82
		c-0.127-0.595-0.229-1.164-0.585-1.711c-0.486-0.746-0.803-1.604-1.161-2.429c-0.079-0.182-0.035-0.42-0.036-0.632
		c-0.004-0.576,0.027-1.153-0.007-1.728c-0.084-1.44,0.388-2.759,0.886-4.063c0.118-0.311,0.446-0.54,0.68-0.81
		c0.116-0.01,0.218-0.021,0.321-0.025c0.139-0.004,0.279-0.001,0.384-0.001c0.409,0.386,0.57,0.814,0.548,1.334
		c-0.025,0.575-0.006,1.152-0.006,1.697c0.252,0.501,0.492,0.978,0.748,1.483c0.208,0,0.449,0,0.689,0
		c0.126-0.136,0.125-0.316,0.214-0.467c0.511-0.858,1.288-1.311,2.137-0.965c0.404,0.165,0.745,0.062,1.074,0.169
		c0.174-0.201,0.16-0.44,0.089-0.548c-0.806-1.228-0.469-2.465,0.045-3.636c0.264-0.6,0.467-1.286,1.021-1.737
		c-0.048-0.447,0.414-0.38,0.61-0.586c0.75-0.784,1.442-1.603,2.065-2.494c0.345-0.494,0.842-0.885,1.285-1.308
		c0.655-0.625,1.117-1.367,1.547-2.165c0.557-1.029,1.002-2.112,1.581-3.127c0.099-0.174,0.296-0.37,0.271-0.526
		c-0.198-1.181,0.685-2.215,0.44-3.386c-0.081-0.385,0.211-0.641,0.234-0.991c0.058-0.852-0.146-1.631-0.526-2.379
		c-0.338-0.664-0.338-0.664-0.348-1.315c-0.302-0.61-0.653-1.156-0.846-1.752c-0.214-0.665-0.983-0.797-1.203-1.321
		c-0.291-0.696-1.037-0.797-1.401-1.379c0-0.254,0-0.541,0-0.839c0.367-0.413,0.775-0.721,1.389-0.781
		c0.525-0.051,1.034-0.452,1.553,0.017c0.02,0.018,0.07,0.006,0.105,0.002c0.885-0.098,1.743,0.119,2.71,0.271
		c0.549,0.479,1.383,0.538,2.147,0.857c0.289,0.671,0.871,1.189,1.457,1.595c0.596,0.412,1.016,0.975,1.57,1.404
		c0.288,0.223,0.264,0.733,0.612,0.808c0.432,0.093,0.44,0.506,0.685,0.675c0.38,0.262,0.155,0.755,0.516,0.995
		c0.291,0.194,0.483,0.57,0.567,0.835c0.108,0.337,0.215,0.734,0.331,1.057c0.201,0.553,0.535,1.068,0.71,1.648
		c0.029,0.095,0.109,0.185,0.108,0.277c-0.036,1.811,0.38,3.603,0.221,5.418c-0.475,0.706-0.081,1.548-0.389,2.322
		c-0.223,0.559-0.043,1.278-0.043,1.926c0,0.18,0,0.36,0,0.494c-0.452,0.676-0.587,1.41-0.639,2.154
		c-0.039,0.555-0.028,1.07-0.413,1.566c-0.494,0.636-0.462,1.517-0.876,2.226c-0.384,0.656-0.604,1.405-0.908,2.104
		c-0.409,0.944-0.548,1.995-1.241,2.845c-0.355,0.437-0.364,1.131-0.824,1.748c-0.426,0.272-1.04,0.587-1.405,1.047
		c-0.849,0.208-1.638,0.229-2.324,0.571c-0.056,0.319,0.151,0.507,0.312,0.557c1.159,0.36,1.64,1.239,1.884,2.328
		c0.02,0.089,0.124,0.159,0.179,0.226c-0.024,0.091-0.024,0.169-0.062,0.219c-0.401,0.545-0.517,1.251-1.058,1.729
		c-0.498,0.441-1.123,0.607-1.686,0.901c-0.348,0.181-0.468,0.379-0.441,0.75c0.324,0.459,0.795,0.585,1.348,0.57
		c0.72-0.02,1.44-0.02,2.159,0c0.665,0.017,1.31-0.028,1.91-0.347c0.37-0.196,0.77-0.031,1.165-0.106
		c0.17,0.187,0.338,0.372,0.479,0.527c-0.121,0.37-0.266,0.739-0.361,1.121c-0.162,0.653-0.524,1.062-1.212,1.186
		c-0.255,0.046-0.557,0.143-0.72,0.323c-0.372,0.414-0.957,0.381-1.334,0.692c-0.39,0.322-0.838,0.431-1.275,0.586
		c-1.194,0.425-1.777,0.367-3.129,0.151c-0.71-0.113-1.398-0.205-2.093-0.431c-0.462-0.15-0.929-0.214-1.269-0.591
		c-0.151-0.169-0.339-0.042-0.52-0.12c-0.404,0.563-0.851,1.087-1.185,1.676c-0.456,0.803-1.222,0.972-2.006,1.162
		c-0.339,0.082-0.589-0.146-0.87-0.229c-0.366,0.259-0.507,0.607-0.663,1.015c-0.345,0.898-0.819,1.749-1.279,2.6
		c-0.204,0.377-0.634,0.514-0.993,0.716c-0.245-0.001-0.382-0.301-0.669-0.226c-0.12,0.031-0.275,0.06-0.404-0.056
		c-0.9-0.8-2.257-0.716-3.114-1.604C24.347,62.45,24.099,61.961,23.688,61.61z M33.866,46.933c0.333,0.515,0.813,0.217,1.192,0.304
		c0.376-0.482,0.64-0.907,0.467-1.461c-0.175-0.105-0.348-0.048-0.541-0.037C34.704,46.211,34.068,46.364,33.866,46.933z
		 M37.512,55.331c-0.179-0.178-0.356-0.355-0.534-0.534c-0.169,0.024-0.354-0.073-0.534,0.086c0.003,0.319-0.077,0.664,0.053,0.985
		c0.195,0,0.338,0,0.479,0C37.156,55.688,37.333,55.51,37.512,55.331z M29.443,49.691c-0.669-0.038-0.901,0.045-1.131,0.373
		c-0.151,0.216-0.173,0.439,0.103,0.669C28.798,50.496,29.092,50.177,29.443,49.691z M36.784,52.854
		c0.054-0.328,0.522-0.077,0.515-0.435c-0.407-0.463-0.642-0.553-0.83-0.365C36.358,52.396,36.463,52.63,36.784,52.854z
		 M30.813,48.789c-0.089-0.437,0.579-0.093,0.432-0.588c-0.362-0.271-0.616-0.07-0.866,0.227
		C30.481,48.513,30.584,48.599,30.813,48.789z M29.235,47.625c0.106-0.19,0.106-0.381-0.011-0.591
		c-0.198,0.124-0.385,0.245-0.349,0.524C28.977,47.681,29.098,47.694,29.235,47.625z M32.436,58.033
		c-0.101,0.07-0.101,0.143,0,0.212C32.537,58.176,32.537,58.104,32.436,58.033z"/>
	<path fill="currentColor" d="M27.408,19.072c0.302-0.108,0.46-0.165,0.532-0.191
		C27.995,19.107,27.995,19.107,27.408,19.072z"/>
	<path style="fill-rule:evenodd;clip-rule:evenodd;fill:none;" d="M33.866,46.933c0.202-0.568,0.838-0.722,1.119-1.194
		c0.193-0.011,0.365-0.068,0.541,0.037c0.173,0.554-0.09,0.979-0.467,1.461C34.678,47.149,34.199,47.447,33.866,46.933z"/>
	<path style="fill-rule:evenodd;clip-rule:evenodd;fill:none;" d="M37.512,55.331c-0.179,0.179-0.356,0.356-0.537,0.537
		c-0.14,0-0.283,0-0.479,0c-0.13-0.321-0.049-0.666-0.053-0.985c0.181-0.159,0.365-0.062,0.534-0.086
		C37.156,54.976,37.333,55.153,37.512,55.331z"/>
	<path style="fill-rule:evenodd;clip-rule:evenodd;fill:none;" d="M29.443,49.691c-0.351,0.485-0.645,0.805-1.028,1.042
		c-0.276-0.229-0.254-0.453-0.103-0.669C28.542,49.736,28.773,49.653,29.443,49.691z"/>
	<path style="fill-rule:evenodd;clip-rule:evenodd;fill:none;" d="M36.784,52.854c-0.32-0.225-0.426-0.459-0.315-0.8
		c0.188-0.188,0.423-0.098,0.83,0.365C37.306,52.777,36.838,52.526,36.784,52.854z"/>
	<path style="fill-rule:evenodd;clip-rule:evenodd;fill:none;" d="M30.813,48.789c-0.228-0.19-0.332-0.276-0.434-0.361
		c0.25-0.297,0.503-0.498,0.866-0.227C31.391,48.696,30.724,48.353,30.813,48.789z"/>
	<path style="fill-rule:evenodd;clip-rule:evenodd;fill:none;" d="M29.235,47.625c-0.137,0.069-0.258,0.056-0.36-0.066
		c-0.036-0.279,0.151-0.4,0.349-0.524C29.341,47.244,29.341,47.435,29.235,47.625z"/>
	<path style="fill-rule:evenodd;clip-rule:evenodd;fill:none;" d="M32.436,58.033c0.101,0.07,0.101,0.143,0,0.212
		C32.335,58.176,32.335,58.104,32.436,58.033z"/>
</g>
</svg>
