<?xml version="1.0" encoding="iso-8859-1"?>
<!-- Generator: Adobe Illustrator 16.0.0, SVG Export Plug-In . SVG Version: 6.00 Build 0)  -->
<!DOCTYPE svg PUBLIC "-//W3C//DTD SVG 1.1//EN" "http://www.w3.org/Graphics/SVG/1.1/DTD/svg11.dtd">
<svg version="1.1" id="Layer_1" xmlns="http://www.w3.org/2000/svg" xmlns:xlink="http://www.w3.org/1999/xlink" x="0px" y="0px"
	 width="72.36px" height="71.459px" viewBox="0 0 72.36 71.459" style="enable-background:new 0 0 72.36 71.459;"
	 xml:space="preserve">
<g>
	<path style="fill-rule:evenodd;clip-rule:evenodd;fill:none;" d="M-6.984,78.839c0-28.584,0-57.167,0-85.751
		c28.8,0,57.6,0,86.399,0c0,28.584,0,57.167,0,85.751C50.616,78.839,21.816,78.839-6.984,78.839z M54.144,44.778
		c0.46,0.591,0.899,1.155,0.867,1.941c-0.016,0.366,0.164,0.66,0.424,0.901c0.393,0.366,0.471,0.826,0.44,1.332
		c-0.018,0.284-0.004,0.57-0.004,0.721c0.441,0.833,0.687,1.652,1.426,2.157c1.273,0.185,2.1-0.599,2.853-1.352
		c0.176-0.863,0.542-1.502,1.112-1.971c0.052-0.318-0.025-0.57,0.166-0.854c0.351-0.521,0.6-1.114,0.854-1.692
		c0.243-0.554,0.473-1.104,0.522-1.734c0.041-0.524,0.15-1.113,0.438-1.531c0.457-0.666,0.461-1.419,0.59-2.131
		c0.109-0.605,0.154-1.197,0.407-1.782c0.108-0.253,0.288-0.553,0.264-0.857c-0.032-0.413,0.146-0.846-0.129-1.24
		s0.142-0.915-0.228-1.311c-0.16-0.171-0.134-0.473-0.05-0.607c0.353-0.567,0.129-1.174,0.2-1.756
		c0.067-0.547-0.143-1.004-0.445-1.436c0.095-1.196-0.189-2.301-0.597-3.421c-0.199-0.548-0.543-1.112-0.469-1.75
		c0.06-0.506-0.168-0.941-0.36-1.363c-0.306-0.667-0.71-1.289-1.053-1.94c-0.521-0.986-0.938-2.026-1.74-2.851
		c-0.203-0.208-0.403-0.56-0.316-0.946c-0.818-0.754-1.604-1.537-1.995-2.633c-0.315-0.002-0.461-0.27-0.671-0.446
		c-0.987-0.827-1.575-2.117-2.935-2.516c-0.121-0.036-0.216-0.187-0.306-0.298c-0.379-0.47-0.926-0.728-1.38-1.1
		c-0.452-0.37-1.098-0.396-1.517-0.751c-0.56-0.474-1.241-0.806-1.594-1.328c-1.048-0.392-2.138-0.339-2.89-1.16
		C45.156,9.12,44.36,8.79,43.562,8.513c-0.28-0.097-0.634-0.016-0.844-0.305c-0.748,0.107-1.438-0.103-2.084-0.441
		c-0.395-0.206-0.796-0.191-1.21-0.212c-0.729-0.036-1.478,0.152-2.183-0.203c-0.114-0.058-0.335-0.069-0.418,0.002
		c-0.409,0.347-0.886,0.222-1.322,0.192c-1.065-0.073-2.084,0.391-3.15,0.229c-0.128-0.02-0.181,0.107-0.27,0.13
		c-0.853,0.229-1.672,0.521-2.591,0.56c-0.821,0.034-1.723,0.22-2.217,1.04c-0.709-0.035-1.302,0.235-1.856,0.554
		c-0.602,0.346-1.303,0.316-1.904,0.596c-0.364,0.336-0.697,0.677-1.131,0.936c-0.758,0.452-1.539,0.92-2.163,1.532
		c-0.736,0.72-1.62,1.263-2.3,2.038c-0.189,0.215-0.372,0.505-0.617,0.588c-0.634,0.215-0.855,0.765-1.172,1.245
		c-0.201,0.304-0.307,0.766-0.583,0.908c-0.864,0.445-1.223,1.298-1.789,1.979c-0.54,0.649-0.891,1.427-1.21,2.195
		c-0.319,0.77-0.989,1.377-1.025,2.279c-0.007,0.178-0.175,0.359-0.294,0.521c-0.8,1.087-1.221,2.321-1.345,3.647
		c-0.028,0.295-0.264,0.473-0.248,0.773c0.014,0.264,0.141,0.58-0.159,0.792c-0.025,0.824-0.483,1.56-0.48,2.394
		c0.009,2.123,0.001,4.246,0.005,6.369c0,0.208-0.002,0.428,0.06,0.623c0.196,0.619,0.416,1.229,0.377,1.897
		c-0.01,0.165-0.013,0.328,0.061,0.511c0.269,0.67,0.441,1.369,0.371,1.972c0.502,1.048,1.047,1.933,1.295,2.953
		c0.054,0.225,0.115,0.485,0.265,0.64c0.417,0.43,0.565,0.994,0.854,1.483c0.117,0.198,0.178,0.429,0.345,0.623
		c0.798,0.925,1.261,2.058,1.887,3.13c0.432,0.165,0.741,0.489,0.978,0.947c0.263,0.508,0.583,0.952,1.144,1.271
		c0.49,0.278,0.95,0.731,1.225,1.293c0.074,0.15,0.19,0.327,0.333,0.39c1.039,0.456,1.875,1.17,2.625,2
		c0.048,0.054,0.093,0.119,0.154,0.151c1.065,0.557,2.147,1.081,3.192,1.678c0.084,0.048,0.196,0.044,0.295,0.068
		c0.334,0.082,0.655,0.204,0.882,0.472c0.254,0.301,0.598,0.448,0.94,0.616c0.358-0.181,0.715-0.361,0.984-0.498
		c0.419-0.659,0.648-1.298,0.525-1.933c0.389-0.719,0.685-1.404,1.107-2.001c0.305-0.43,0.437-0.847,0.408-1.349
		c-0.013-0.21,0.156-0.444,0.15-0.568c-0.028-0.558,0.441-1.019,0.23-1.606c-0.255-0.715-0.189-1.314-0.03-2.032
		c0.127-0.572,0.147-1.146-0.065-1.743c-0.375-1.053-0.875-2.092-0.719-3.266c-0.354-0.791-0.386-1.647-0.541-2.48
		c-0.065-0.354-0.103-0.605,0.03-0.971c0.131-0.362,0.341-0.733,0.319-1.177c-0.015-0.294-0.271-0.539-0.058-0.919
		c0.169-0.301,0.034-0.772,0.034-1.168c0-0.145-0.06-0.336,0.01-0.424c0.316-0.399,0.289-0.902,0.394-1.347
		c0.121-0.512,0.004-1.074,0.035-1.613c0.027-0.478-0.061-0.941,0.17-1.44c0.183-0.396,0.135-0.967-0.165-1.334
		c0.57-1.45-0.102-2.83-0.018-4.124c0.642-1.272,1.561-2.254,2.381-3.296c0-0.308-0.016-0.595,0.004-0.879
		c0.035-0.509-0.039-0.992-0.455-1.317c-0.219-0.17-0.208-0.422-0.359-0.619c-0.668-0.869-0.653-1.099-0.041-1.985
		c0.181-0.262,0.507-1.099,0.409-1.222c-0.383-0.481-0.202-1.03-0.19-1.537c0.022-0.943-0.171-1.897,0.182-2.833
		c0.113-0.299,0.088-0.7-0.19-0.939c0.161-0.669,0.575-1.17,0.848-1.741c0.272-0.568,0.476-1.169,0.733-1.817
		c0.33,0.271,0.371-0.311,0.673-0.159c0.37,0.383,0.792,0.588,1.345,0.68c0.504,0.083,1.024,0.261,1.473,0.604
		c1.022,0.779,2.281,2.028,3.195,3.195c0.25,0.321,0.52,0.674,0.968,0.768c0.533,1.549,2.004,2.087,3.19,2.971
		c1.045-0.132,1.863,0.432,2.687,0.979c0.3,1.05,1.292,1.532,1.929,2.304c0.533,0.647,1.019,1.275,1.158,2.136
		c1.123,0.384,1.34,1.478,1.889,2.312c-0.069,0.789,0.188,1.615-0.417,2.329c-0.113,0.133,0.013,0.508,0.101,0.79
		c0.181,0.571,0.517,1.111,0.518,1.729c0.001,0.461,0.2,0.856,0.363,1.256c0.345,0.846,0.58,1.709,0.745,2.611
		c0.141,0.762,0.482,1.486,0.47,2.284c0,0.025,0.065,0.048,0.07,0.077c0.168,0.893,0.688,1.665,0.852,2.565
		c0.194,1.075,0.656,2.103,0.535,3.232C54.121,44.303,54.144,44.557,54.144,44.778z M36.676,40.472
		c0.977-0.342,1.838,0.366,2.695,0.099c0.497-0.367,0.214-0.813,0.305-1.148c-0.214-0.213-0.366-0.365-0.519-0.519
		c-0.61-0.047-1.219-0.1-1.672-0.594c0.324-0.665,0.631-1.294,0.955-1.959c-0.308-0.503-0.604-0.989-0.907-1.484
		c-0.562-0.167-1.097-0.398-1.717-0.292c-0.282-0.317-0.542-0.61-0.806-0.907c-0.474,0.153-0.807-0.13-1.203-0.325
		c0.329-0.641,0.319-1.484,1.179-1.84c0.348,0.41,0.91,0.388,1.346,0.645c0.338-0.185,0.707-0.378,0.963-0.746
		c0-0.333,0-0.692,0-0.947c-0.21-0.547-0.545-0.896-0.857-1.179c-0.041-0.549,0.061-0.972,0.388-1.269c0-0.35,0-0.663,0-0.983
		c-0.256-0.152-0.49-0.29-0.763-0.452c-0.235,0-0.521,0-0.809,0c-0.329,0.325-0.66,0.651-0.989,0.976c0,0.439,0,0.869,0,1.28
		c-0.078,0.096-0.159,0.169-0.208,0.26c-0.275,0.51-0.543,1.008-1.031,1.375c-0.962,0.725-1.732,1.578-1.554,2.894
		c0.188,0.199,0.36,0.381,0.515,0.545c0.192,0.051,0.387-0.077,0.529,0.085c0.127,0.674-0.055,1.237-0.558,1.699
		c-0.342,0.315-0.575,0.683-0.465,1.204c1.266,0.847,2.679,1.023,3.929,0.905c0.371,0.377,0.626,0.637,0.882,0.896
		c-0.516,0.188-1.101,0.434-1.706,0.61c-0.607,0.177-1.168,0.389-1.567,0.917c-0.171,0.228-0.389,0.42-0.566,0.608
		c-0.403,0-0.761,0-1.103,0c-0.191,0.186-0.372,0.361-0.545,0.53c0,0.369,0,0.729,0,1.113c0.242,0.121,0.335,0.444,0.646,0.514
		c0.335-0.135,0.601-0.312,0.799-0.662c0.188-0.332,0.54-0.571,0.818-0.85c0.178,0.178,0.355,0.355,0.495,0.494
		c0.256,1.139-0.194,2.197-0.173,3.29c0.024,1.222,0.006,2.445,0.006,3.65c-0.627,0.764-0.552,1.508,0.025,2.248
		c-0.141,1.374,0.045,2.744-0.192,4.132c-0.172,1.006-0.199,2.1,0.146,3.146c0.128,0.39,0.042,0.858,0.015,1.288
		c-0.023,0.371,0.048,0.725-0.172,1.119c-0.183,0.327-0.038,0.839-0.038,1.256c0.198,0.216,0.458,0.367,0.47,0.688
		c0.359,0.008,0.494,0.356,0.729,0.486c0.318,0,0.602,0,0.739,0c0.354-0.31,0.622-0.543,0.863-0.754
		c0.034-0.808,0.102-1.568,0.178-2.331c0.099-0.993,0.211-2.032-0.147-3.044c-0.128-0.36,0.034-0.794,0.155-1.209
		c0.155-0.529-0.089-1.179,0.072-1.705c0.172-0.563,0.253-1.039-0.028-1.562c-0.042-0.078-0.032-0.26,0.023-0.302
		c0.292-0.221,0.166-0.522,0.185-0.793c0.083-1.192-0.186-2.404,0.21-3.582c0.054-0.162,0.082-0.42-0.006-0.526
		c-0.316-0.381-0.133-0.814-0.209-1.216c-0.135-0.718,0.182-1.376,0.243-2.068c0.048-0.55-0.251-1.007-0.24-1.531
		c0.014-0.646,0.003-1.293,0.003-1.934C36.541,40.607,36.642,40.505,36.676,40.472z"/>
	<path fill="currentColor" d="M54.144,44.778c0-0.221-0.023-0.475,0.004-0.724
		c0.121-1.13-0.341-2.157-0.535-3.232c-0.163-0.9-0.684-1.673-0.852-2.565c-0.005-0.029-0.07-0.052-0.07-0.077
		c0.013-0.798-0.329-1.522-0.47-2.284c-0.165-0.902-0.4-1.765-0.745-2.611c-0.163-0.4-0.362-0.794-0.363-1.256
		c-0.001-0.618-0.337-1.158-0.518-1.729c-0.088-0.282-0.214-0.657-0.101-0.79c0.605-0.713,0.348-1.54,0.417-2.329
		c-0.549-0.834-0.766-1.928-1.889-2.312c-0.14-0.861-0.625-1.489-1.158-2.136c-0.637-0.772-1.629-1.254-1.929-2.304
		c-0.823-0.547-1.642-1.111-2.687-0.979c-1.187-0.883-2.657-1.421-3.19-2.971c-0.448-0.093-0.718-0.447-0.968-0.768
		c-0.914-1.167-2.173-2.416-3.195-3.195c-0.449-0.342-0.969-0.52-1.473-0.604c-0.553-0.092-0.976-0.296-1.346-0.679
		c-0.301-0.152-0.342,0.429-0.672,0.158c-0.258,0.647-0.461,1.249-0.733,1.817c-0.273,0.571-0.688,1.072-0.848,1.741
		c0.278,0.24,0.303,0.641,0.19,0.939c-0.353,0.936-0.16,1.89-0.182,2.833c-0.012,0.507-0.192,1.056,0.19,1.537
		c0.098,0.123-0.228,0.959-0.409,1.222c-0.612,0.886-0.628,1.116,0.041,1.985c0.151,0.197,0.141,0.449,0.359,0.619
		c0.417,0.326,0.49,0.809,0.455,1.317c-0.02,0.285-0.004,0.572-0.004,0.879c-0.82,1.042-1.739,2.023-2.381,3.296
		c-0.084,1.294,0.588,2.674,0.018,4.124c0.3,0.367,0.348,0.938,0.165,1.334c-0.231,0.499-0.144,0.962-0.17,1.44
		c-0.031,0.539,0.085,1.101-0.035,1.613c-0.105,0.444-0.077,0.947-0.394,1.347c-0.07,0.088-0.01,0.279-0.01,0.424
		c0,0.396,0.135,0.867-0.034,1.168c-0.213,0.38,0.043,0.625,0.058,0.919c0.022,0.443-0.188,0.814-0.319,1.177
		c-0.132,0.365-0.095,0.617-0.03,0.971c0.154,0.833,0.186,1.689,0.541,2.48c-0.156,1.174,0.345,2.213,0.719,3.266
		c0.212,0.597,0.193,1.171,0.065,1.743c-0.16,0.718-0.226,1.317,0.03,2.032c0.21,0.588-0.258,1.049-0.23,1.606
		c0.006,0.124-0.163,0.358-0.15,0.568c0.029,0.502-0.103,0.919-0.408,1.349c-0.422,0.597-0.719,1.282-1.107,2.001
		c0.124,0.635-0.105,1.273-0.525,1.933c-0.269,0.137-0.625,0.317-0.984,0.498c-0.342-0.168-0.686-0.315-0.94-0.616
		c-0.227-0.268-0.548-0.39-0.882-0.472c-0.099-0.024-0.211-0.021-0.295-0.068c-1.045-0.597-2.127-1.121-3.192-1.678
		c-0.061-0.032-0.105-0.098-0.154-0.151c-0.75-0.83-1.586-1.544-2.625-2c-0.142-0.063-0.259-0.239-0.333-0.39
		c-0.275-0.562-0.735-1.015-1.225-1.293c-0.561-0.318-0.88-0.763-1.144-1.271c-0.237-0.458-0.546-0.782-0.978-0.947
		c-0.625-1.072-1.089-2.205-1.887-3.13c-0.167-0.194-0.228-0.425-0.345-0.623c-0.288-0.489-0.436-1.054-0.854-1.483
		c-0.15-0.154-0.211-0.415-0.265-0.64c-0.248-1.021-0.793-1.905-1.295-2.953c0.071-0.603-0.102-1.302-0.371-1.972
		c-0.074-0.183-0.07-0.346-0.061-0.511c0.039-0.669-0.181-1.278-0.377-1.897C9,39.278,9.003,39.058,9.002,38.85
		c-0.004-2.123,0.004-4.246-0.005-6.369c-0.003-0.834,0.455-1.569,0.48-2.394c0.3-0.212,0.173-0.528,0.159-0.792
		c-0.016-0.3,0.22-0.478,0.248-0.773c0.124-1.326,0.545-2.561,1.345-3.647c0.119-0.162,0.287-0.343,0.294-0.521
		c0.036-0.902,0.706-1.51,1.025-2.279c0.319-0.768,0.67-1.545,1.21-2.195c0.566-0.681,0.925-1.534,1.789-1.979
		c0.276-0.143,0.382-0.604,0.583-0.908c0.317-0.479,0.538-1.03,1.172-1.245c0.245-0.083,0.428-0.373,0.617-0.588
		c0.681-0.775,1.564-1.318,2.3-2.038c0.625-0.612,1.405-1.08,2.163-1.532c0.434-0.259,0.767-0.6,1.131-0.936
		c0.602-0.279,1.302-0.25,1.904-0.596c0.554-0.319,1.146-0.589,1.856-0.554c0.494-0.82,1.396-1.006,2.217-1.04
		c0.919-0.039,1.738-0.332,2.591-0.56c0.088-0.023,0.142-0.15,0.27-0.13c1.065,0.163,2.084-0.301,3.15-0.229
		c0.436,0.03,0.913,0.155,1.322-0.192c0.083-0.071,0.304-0.06,0.418-0.002c0.705,0.355,1.454,0.167,2.183,0.203
		c0.414,0.021,0.815,0.006,1.21,0.212c0.646,0.338,1.336,0.548,2.084,0.441c0.21,0.289,0.563,0.208,0.844,0.305
		c0.798,0.276,1.594,0.607,2.469,0.559c0.752,0.821,1.842,0.768,2.89,1.16c0.353,0.522,1.034,0.854,1.594,1.328
		c0.419,0.355,1.064,0.381,1.517,0.751c0.454,0.373,1.001,0.63,1.38,1.1c0.09,0.112,0.185,0.263,0.306,0.298
		c1.359,0.399,1.947,1.689,2.935,2.516c0.21,0.176,0.355,0.443,0.671,0.446c0.391,1.096,1.177,1.879,1.995,2.633
		c-0.087,0.386,0.113,0.738,0.316,0.946c0.803,0.825,1.22,1.865,1.74,2.851c0.343,0.651,0.747,1.273,1.053,1.94
		c0.192,0.422,0.42,0.857,0.36,1.363c-0.074,0.637,0.27,1.202,0.469,1.75c0.407,1.12,0.691,2.225,0.597,3.421
		c0.303,0.431,0.513,0.888,0.445,1.436c-0.071,0.582,0.152,1.188-0.2,1.756c-0.084,0.134-0.11,0.436,0.05,0.607
		c0.369,0.396-0.047,0.917,0.228,1.311s0.097,0.827,0.129,1.24c0.024,0.305-0.155,0.604-0.264,0.857
		c-0.253,0.585-0.298,1.177-0.407,1.782c-0.129,0.712-0.133,1.465-0.59,2.131c-0.287,0.418-0.396,1.007-0.438,1.531
		c-0.05,0.631-0.279,1.181-0.522,1.734c-0.255,0.578-0.504,1.172-0.854,1.692c-0.191,0.284-0.114,0.536-0.166,0.854
		c-0.57,0.469-0.937,1.107-1.112,1.971c-0.753,0.753-1.579,1.536-2.853,1.352c-0.739-0.505-0.984-1.324-1.426-2.157
		c0-0.15-0.014-0.437,0.004-0.721c0.03-0.506-0.048-0.966-0.44-1.332c-0.26-0.241-0.439-0.535-0.424-0.901
		C55.043,45.933,54.604,45.369,54.144,44.778z"/>
	<path fill="currentColor" d="M36.676,40.472c-0.034,0.033-0.135,0.135-0.244,0.243
		c0,0.641,0.011,1.287-0.003,1.934c-0.012,0.524,0.288,0.981,0.24,1.531c-0.061,0.692-0.378,1.351-0.243,2.068
		c0.076,0.401-0.107,0.835,0.209,1.216c0.088,0.106,0.061,0.364,0.006,0.526c-0.396,1.178-0.128,2.39-0.21,3.582
		c-0.019,0.271,0.108,0.572-0.185,0.793c-0.055,0.042-0.064,0.224-0.023,0.302c0.281,0.522,0.2,0.999,0.028,1.562
		c-0.161,0.526,0.083,1.176-0.072,1.705c-0.121,0.415-0.283,0.849-0.155,1.209c0.359,1.012,0.246,2.051,0.147,3.044
		c-0.076,0.763-0.145,1.523-0.178,2.331c-0.241,0.211-0.509,0.444-0.863,0.754c-0.137,0-0.421,0-0.739,0
		c-0.234-0.13-0.369-0.479-0.729-0.486c-0.012-0.32-0.271-0.472-0.47-0.688c0-0.417-0.146-0.929,0.038-1.256
		c0.221-0.395,0.149-0.748,0.172-1.119c0.027-0.43,0.114-0.898-0.015-1.288c-0.345-1.047-0.318-2.141-0.146-3.146
		c0.237-1.388,0.051-2.758,0.192-4.132c-0.577-0.74-0.653-1.484-0.025-2.248c0-1.205,0.018-2.429-0.006-3.65
		c-0.021-1.093,0.429-2.151,0.173-3.29c-0.139-0.139-0.317-0.316-0.495-0.494c-0.278,0.278-0.63,0.518-0.818,0.85
		c-0.198,0.351-0.464,0.527-0.799,0.662c-0.311-0.069-0.404-0.393-0.646-0.514c0-0.385,0-0.744,0-1.113
		c0.174-0.169,0.354-0.345,0.545-0.53c0.342,0,0.7,0,1.103,0c0.177-0.188,0.395-0.381,0.566-0.608
		c0.399-0.528,0.96-0.74,1.567-0.917c0.605-0.177,1.19-0.423,1.706-0.61c-0.256-0.26-0.512-0.52-0.882-0.896
		c-1.25,0.118-2.663-0.059-3.929-0.905c-0.11-0.521,0.123-0.889,0.465-1.204c0.502-0.462,0.685-1.025,0.558-1.699
		c-0.142-0.163-0.336-0.035-0.529-0.085c-0.155-0.164-0.327-0.346-0.515-0.545c-0.178-1.315,0.591-2.169,1.554-2.894
		c0.488-0.367,0.756-0.865,1.031-1.375c0.049-0.091,0.129-0.165,0.208-0.26c0-0.411,0-0.841,0-1.28
		c0.329-0.325,0.66-0.651,0.989-0.976c0.288,0,0.574,0,0.809,0c0.273,0.162,0.506,0.3,0.763,0.452c0,0.321,0,0.634,0,0.983
		c-0.328,0.297-0.429,0.72-0.388,1.269c0.312,0.283,0.647,0.632,0.857,1.179c0,0.255,0,0.615,0,0.947
		c-0.257,0.368-0.625,0.562-0.963,0.746c-0.436-0.256-0.998-0.234-1.346-0.645c-0.86,0.355-0.85,1.199-1.179,1.84
		c0.396,0.195,0.729,0.478,1.203,0.325c0.264,0.296,0.524,0.59,0.806,0.907c0.62-0.106,1.156,0.125,1.717,0.292
		c0.303,0.495,0.6,0.981,0.907,1.484c-0.324,0.665-0.631,1.294-0.955,1.959c0.453,0.494,1.062,0.547,1.672,0.594
		c0.152,0.153,0.305,0.306,0.519,0.519c-0.091,0.335,0.192,0.781-0.305,1.148C38.514,40.838,37.653,40.13,36.676,40.472z"/>
</g>
</svg>
