<svg xmlns="http://www.w3.org/2000/svg" xml:space="preserve" width="72px" height="72px" viewBox="0 0 72 72">
    <g fill="currentColor">
        <path d="M48.096 26.1c.907-1.36.872-1.126.646-3.683l.592-.526c1.049-.155 1.498.79 2.175 1.347.244 1.634-.273 2.994-1.468 4.043 0 .26-.024.44.003.611.17 1.059-.284 1.897-.979 2.613-.229.236-.271.564-.529.77v1.923c-.604.727-1.332 1.197-2.309 1.252-.127.216-.112.401.052.653.327.506.474 1.11.919 1.566.337.346.295.887.426 1.325.235.777.695 1.448.896 2.225.062.235.198.382.385.454.675.261.839.839.964 1.461.55.529.963 1.071 1.123 1.915.164.864.738 1.671 1.402 2.318.431.418.778.873.984 1.432.332.897 1.104 1.479 1.604 2.253.657 1.018 1.314 2.028 2.21 2.867.705.662 1.513 1.267 1.604 2.393-.207.17-.093.503-.114.802-1.379 1.494-3.025 2.653-4.69 3.79-.616.421-1.276.79-1.846 1.267-.743.621-1.603.978-2.478 1.33-.588.238-1.148.534-1.7.852-.966.554-2.004.882-3.104 1.123a50 50 0 0 1-3.513.651c-.732.106-1.453.176-2.185.173-.354-.003-.68.156-.979.255-1.09.358-2.185.075-3.27.182-.4-.41-.994-.082-1.462-.401-.237-.163-.734-.111-1.038.02-.743.321-1.385.194-2.06-.174-.695-.379-1.464-.532-2.189-.541-1.126-.649-2.407-.579-3.513-1.07l-1.256-1.256c-.062-.007-.173.005-.26-.036-1.243-.579-2.564-.977-3.646-1.9-1.204-1.028-2.505-1.941-3.747-2.924-.193-.153-.488-.116-.703-.594-.086-.323.057-.787.454-1.176a7 7 0 0 1 1.04-.864c.776-.515 1.427-1.221 2.214-1.716.869-.546 1.398-1.477 2.347-1.896 0-.532-.016-1.035.003-1.535.036-.97.364-1.827.873-2.665.459-.756 1.052-1.371 1.607-2.037.775-.931 1.642-1.825 1.882-3.108.029-.156.099-.483.399-.627-.153-.694.131-1.319.42-1.942.427-.918.43-.917.432-1.658 0-.394 0-.787.033-1.161.117-.439.45-.706.747-.998.334-.33.537-.703.519-1.191-.026-.728.217-1.34.773-1.841.507-.458 1.026-.921 1.438-1.459.312-.408.833-.33 1.138-.67.81.057 1.574-.292 2.396-.246.34.02.557.296 1.026.223.32-.162.636-.648 1.206-.628.49.017.879.321 1.391.45.912-.953 2.142-1.297 3.433-1.497.298-.112.454.25.782.228l.036.732c.141.173.335.053.51.094.211-.26.524-.407.577-.833.056-.436.22-.459.84-.353.069.327-.284.38-.391.61-.105 1 .327 1.911.636 2.821.248.723.888 1.222 1.585 1.757.127-.471.332-.856.307-1.226-.035-.544.234-1.006.275-1.529.028-.371.31-.815.694-.983.662-.29.994-.799 1.221-1.433.033-.093.136-.161.21-.244zm-20.52 17.635c-1.33 1.196-2.22 2.943-3.869 3.893-.024.798-.417 1.488-.234 2.145-.375.837-.976 1.348-1.701 1.742v.957l.313.325c.149-.09.325.049.498-.095.915-.76 1.962-1.308 2.997-1.88.475-.262 1.04-.538 1.307-.968.64-1.029 1.477-1.858 2.31-2.69h1.084l.32.319c0 .42-.009.852.005 1.281.005.17-.033.335.054.516.593 1.228 1.469 2.188 2.773 2.606.678.218 1.176.538 1.436 1.17a5.8 5.8 0 0 0 1.46 2.094c.262.24.452.538.525.861a3.38 3.38 0 0 0 1.229 1.951c.176-.033.371.074.509-.108v-1.657c-.349-.602-.709-1.137-.974-1.714a4.9 4.9 0 0 0-1.076-1.5c-.473-.455-1-.871-1.202-1.552-.054-.184-.259-.327-.407-.477-.429-.437-.864-.867-1.307-1.31-.018-.537.067-1.092-.287-1.596-.443-.63-.521-1.307-.197-2.047a1.25 1.25 0 0 0-.179-1.281c-.501-.598-.644-1.314-.914-2.003a2.13 2.13 0 0 1-.123-1.226c.111-.517.261-1.039.419-1.549.206-.662.503-1.304.82-1.925.346-.678.851-1.245 1.333-1.836.412-.507.934-.974 1.124-1.684.165-.615.664-1.015 1.411-1.185.214.03.442.366.845.215.355-.688.971-1.223 1.56-1.773.194-.182.17-.459.374-.605.089-.064.1-.104.006-.155l-.229-.229c-.491.218-.976.46-1.538.413-.076.076-.146.161-.229.228-.755.599-1.482 1.284-2.524.486-.214-.164-.531-.12-.792.024-.643.354-1.304.666-1.995.917-.883.321-1.574.824-1.695 1.851-.02.166-.152.346-.231.434-.695.771-.912 1.795-1.441 2.658-.671 1.096-1.012 2.384-1.362 3.64-.123.439-.229.861-.204 1.318.011.288-.002.577-.002 1.001m9.913-6.368c-.08.576-.498.979-.387 1.561.321.011.594.103.891-.105-.2-.42.212-.979-.504-1.456m-1.135 2.501c-.106.178-.524.135-.25.618.128-.198.383-.27.25-.618"/>
        <path d="M40.644 27.288h-1.232c-.409-.228-.815-.378-1.039-.879v-1.281c-.248-.632-.741-1.006-.867-1.622-.294-.078-.519-.286-.72-.511h-2.26c-.505.847-.521 1.919-1.307 2.649v.911c.156.638.905.862.987 1.369.212.439-.375.471-.122.769-.583.269-1.108.576-1.68.111-.043-.035-.161-.034-.209 0-.737.518-1.474.017-2.198-.032-.615-.041-1.222-.23-1.857-.203-.138.007-.231-.273-.455-.194-.064-.301-.365-.502-.325-.839.212-.77 1.057-.626 1.578-1.101-.852-.687-1.824-1.176-2.603-1.955-.751-.75-1.807-1.181-2.435-2.135-.04-.237.04-.456.315-.645h1.122c.543.549 1.36.492 2.014.828a.42.42 0 0 0 .318 0c.919-.406 1.887-.114 2.84-.232.122-.15.278-.282.515-.199v-.553c-.676-.524-1.189-1.255-1.555-2.018-.566-1.183-1.081-2.612-.056-3.694.797.075 1.5.465 1.937 1.126.299.454.627.79 1.173 1.039h.556c.101-.068.086-.178.117-.276.118-.379-.152-.669-.243-.986-.259-.903-.173-1.814-.196-2.723.619-.526.701-1.547 1.589-1.796.512-.144 1.027-.442 1.598-.214l.274.273c-.077.77.242 1.463.63 2.161.532.954.56 2.042.285 3.198-.098.408-.052.849-.073 1.328l.575.54c.167-.174.107-.37.084-.53-.107-.755.261-1.409.466-2.083.154-.508.662-.773 1.209-.832.28-.03.566-.005.818-.005.083.082.165.125.179.185.22.933.753 1.713 1.241 2.508.118.191.207.345.202.568-.01.466-.003.932-.003 1.218-.285.824-.759 1.36-.898 2.089-.058.295-.284.522-.027.827.314.371-.211.624-.146 1.004.124.229.236.504.389.77.426.74.338 1.139-.275 1.834-.073.084-.154.157-.23.233M18.29 22.823c-.46.664-.768 1.338-.627 2.187.451.6.688 1.417 1.519 1.797.407.187.522.608.62 1.24.959.949 1.93 1.892 2.376 3.223.043.127.232.164.216.343-.072.808.483 1.256.786 1.537.809.475 1.444.407 2.07.396.338-.006.532.286.816.334.26.222.291.545.445.812-.039.355-.192.651-.451.924-.176.221-.498.143-.742.242-.419.17-.914.042-1.403-.115-.797-.255-1.409-.777-2.111-1.164-.61-.335-.452-1.134-.916-1.562-.032-.833-.588-1.431-1.015-2.056-.354-.519-.613-.999-.482-1.568-.377-.822-1.291-1.043-1.679-1.735-.389-.694-1.106-1.013-1.587-1.57.083-.418-.167-.755-.278-1.093-.188-.565-.257-1.072.072-1.568.273-.413.206-.907.398-1.348.169-.386.346-.823.252-1.304-.102-.521.375-.984.207-1.527.424-.539.109-1.167.231-1.729-.627-.821-1.579-1.342-1.979-2.355.72-1.318 1.868-2.132 3.229-2.758.215 1.077-.773 1.62-1.003 2.493.302.425.602.875 1.135 1.218.55.354.911 1.092.731 1.803a5 5 0 0 0-.182 1.214c-.005.432-.001.863-.001 1.331-.705.644-.665 1.523-.647 2.358M53.207 11.81c.401.99.162 2.077.938 2.832 0 .592-.021 1.168.006 1.742.024.528-.487.966-.242 1.359-.185.681-.58.932-1.081 1.139-.582.241-1.186.525-1.649.937-.557.494-1.147.607-1.844.548-.662-.381-.662-.381-1.02-1.115l.874-.797c.433-.002.959-.219 1.49-.444.213-.09.384-.205.434-.403.156-.618.644-.975 1.067-1.428v-1.065c-.438-.636-.549-1.403-.663-2.224-.15-.182-.345-.389-.741-.271-.415.415-.866.874-1.325 1.325-.73.715-1.654.929-2.717.641-.065-.018-.132-.04-.199-.04q-.86-.003-1.725-.002c-.531-.258-1.024-.557-1.224-1.373v-.714c.164-.109.388-.038.469-.245.55.313 1.15.15 1.726.162.5.01.97.037 1.334.432 1.211.008 1.801-.268 2.877-1.346.16-.627.211-1.301.865-1.672.265.032.451.36.764.217.699.503 1.087 1.274 1.586 1.805m-32.331 1.565c-.041-.56.025-1.235.491-1.824.43-.106.928.135 1.257-.314l.399.365v1.521l.723.724c.533.219 1.042-.018 1.496-.196.39-.152.676-.252 1.024.022.067.052.21.008.319.008.316.271.632.544.77.963v.884l-.57.512c-.23-.003-1.555-.299-1.792-.407l-1.266.467c-1.089-.665-2.282-1.191-2.851-2.725m11.918-5.527.838.756c-.132.471-.347.853-.733 1.14-2.194.497-4.313.574-5.969-1.379.077-.471.077-.471.54-.949.519.005 1.054-.071 1.523.22.416.257.866.209 1.313.211.86.004 1.719.001 2.488.001"/>
    </g>
</svg>
