<?xml version="1.0" encoding="iso-8859-1"?>
<!-- Generator: Adobe Illustrator 16.0.0, SVG Export Plug-In . SVG Version: 6.00 Build 0)  -->
<!DOCTYPE svg PUBLIC "-//W3C//DTD SVG 1.1//EN" "http://www.w3.org/Graphics/SVG/1.1/DTD/svg11.dtd">
<svg version="1.1" id="Layer_1" xmlns="http://www.w3.org/2000/svg" xmlns:xlink="http://www.w3.org/1999/xlink" x="0px" y="0px"
	 width="72.18px" height="70.921px" viewBox="0 0 72.18 70.921" style="enable-background:new 0 0 72.18 70.921;"
	 xml:space="preserve">
<g>
	
	<path fill="currentColor" d="M48.096,26.1c0.907-1.36,0.872-1.126,0.646-3.683
		c0.175-0.155,0.362-0.321,0.592-0.526c1.049-0.155,1.498,0.79,2.175,1.347c0.244,1.634-0.273,2.994-1.468,4.043
		c0,0.26-0.024,0.44,0.003,0.611c0.17,1.059-0.284,1.897-0.979,2.613c-0.229,0.236-0.271,0.564-0.529,0.77c0,0.639,0,1.285,0,1.923
		c-0.604,0.727-1.332,1.197-2.309,1.252c-0.127,0.216-0.112,0.401,0.052,0.653c0.327,0.506,0.474,1.11,0.919,1.566
		c0.337,0.346,0.295,0.887,0.426,1.325c0.235,0.777,0.695,1.448,0.896,2.225c0.062,0.235,0.198,0.382,0.385,0.454
		c0.675,0.261,0.839,0.839,0.964,1.461c0.55,0.529,0.963,1.071,1.123,1.915c0.164,0.864,0.738,1.671,1.402,2.318
		c0.431,0.418,0.778,0.873,0.984,1.432c0.332,0.897,1.104,1.479,1.604,2.253c0.657,1.018,1.314,2.028,2.21,2.867
		c0.705,0.662,1.513,1.267,1.604,2.393c-0.207,0.17-0.093,0.503-0.114,0.802c-1.379,1.494-3.025,2.653-4.69,3.79
		c-0.616,0.421-1.276,0.79-1.846,1.267c-0.743,0.621-1.603,0.978-2.478,1.33c-0.588,0.238-1.148,0.534-1.7,0.852
		c-0.966,0.554-2.004,0.882-3.104,1.123c-1.168,0.256-2.329,0.479-3.513,0.651c-0.732,0.106-1.453,0.176-2.185,0.173
		c-0.354-0.003-0.68,0.156-0.979,0.255c-1.09,0.358-2.185,0.075-3.27,0.182c-0.4-0.41-0.994-0.082-1.462-0.401
		c-0.237-0.163-0.734-0.111-1.038,0.02c-0.743,0.321-1.385,0.194-2.06-0.174c-0.695-0.379-1.464-0.532-2.189-0.541
		c-1.126-0.649-2.407-0.579-3.513-1.07c-0.407-0.406-0.814-0.814-1.256-1.256c-0.062-0.007-0.173,0.005-0.26-0.036
		c-1.243-0.579-2.564-0.977-3.646-1.9c-1.204-1.028-2.505-1.941-3.747-2.924c-0.193-0.153-0.488-0.116-0.703-0.594
		c-0.086-0.323,0.057-0.787,0.454-1.176c0.321-0.315,0.654-0.606,1.04-0.864c0.776-0.515,1.427-1.221,2.214-1.716
		c0.869-0.546,1.398-1.477,2.347-1.896c0-0.532-0.016-1.035,0.003-1.535c0.036-0.97,0.364-1.827,0.873-2.665
		c0.459-0.756,1.052-1.371,1.607-2.037c0.775-0.931,1.642-1.825,1.882-3.108c0.029-0.156,0.099-0.483,0.399-0.627
		c-0.153-0.694,0.131-1.319,0.42-1.942c0.427-0.918,0.43-0.917,0.432-1.658c0-0.394,0-0.787,0.033-1.161
		c0.117-0.439,0.45-0.706,0.747-0.998c0.334-0.33,0.537-0.703,0.519-1.191c-0.026-0.728,0.217-1.34,0.773-1.841
		c0.507-0.458,1.026-0.921,1.438-1.459c0.312-0.408,0.833-0.33,1.138-0.67c0.81,0.057,1.574-0.292,2.396-0.246
		c0.34,0.02,0.557,0.296,1.026,0.223c0.32-0.162,0.636-0.648,1.206-0.628c0.49,0.017,0.879,0.321,1.391,0.45
		c0.912-0.953,2.142-1.297,3.433-1.497c0.298-0.112,0.454,0.25,0.782,0.228c0.013,0.245,0.024,0.487,0.036,0.732
		c0.141,0.173,0.335,0.053,0.51,0.094c0.211-0.26,0.524-0.407,0.577-0.833c0.056-0.436,0.22-0.459,0.84-0.353
		c0.069,0.327-0.284,0.38-0.391,0.61c-0.105,1,0.327,1.911,0.636,2.821c0.248,0.723,0.888,1.222,1.585,1.757
		c0.127-0.471,0.332-0.856,0.307-1.226c-0.035-0.544,0.234-1.006,0.275-1.529c0.028-0.371,0.31-0.815,0.694-0.983
		c0.662-0.29,0.994-0.799,1.221-1.433c0.033-0.093,0.136-0.161,0.21-0.244C48.095,27.541,48.095,26.82,48.096,26.1z M27.576,43.735
		c-1.33,1.196-2.22,2.943-3.869,3.893c-0.024,0.798-0.417,1.488-0.234,2.145c-0.375,0.837-0.976,1.348-1.701,1.742
		c0,0.331,0,0.644,0,0.957c0.097,0.102,0.197,0.205,0.313,0.325c0.149-0.09,0.325,0.049,0.498-0.095
		c0.915-0.76,1.962-1.308,2.997-1.88c0.475-0.262,1.04-0.538,1.307-0.968c0.64-1.029,1.477-1.858,2.31-2.69c0.371,0,0.729,0,1.084,0
		c0.106,0.105,0.208,0.207,0.32,0.319c0,0.42-0.009,0.852,0.005,1.281c0.005,0.17-0.033,0.335,0.054,0.516
		c0.593,1.228,1.469,2.188,2.773,2.606c0.678,0.218,1.176,0.538,1.436,1.17c0.333,0.813,0.819,1.505,1.46,2.094
		c0.262,0.24,0.452,0.538,0.525,0.861c0.183,0.806,0.596,1.444,1.229,1.951c0.176-0.033,0.371,0.074,0.509-0.108
		c0-0.574,0-1.148,0-1.657c-0.349-0.602-0.709-1.137-0.974-1.714c-0.266-0.579-0.622-1.063-1.076-1.5
		c-0.473-0.455-1-0.871-1.202-1.552c-0.054-0.184-0.259-0.327-0.407-0.477c-0.429-0.437-0.864-0.867-1.307-1.31
		c-0.018-0.537,0.067-1.092-0.287-1.596c-0.443-0.63-0.521-1.307-0.197-2.047c0.185-0.423,0.112-0.934-0.179-1.281
		c-0.501-0.598-0.644-1.314-0.914-2.003c-0.171-0.435-0.202-0.854-0.123-1.226c0.111-0.517,0.261-1.039,0.419-1.549
		c0.206-0.662,0.503-1.304,0.82-1.925c0.346-0.678,0.851-1.245,1.333-1.836c0.412-0.507,0.934-0.974,1.124-1.684
		c0.165-0.615,0.664-1.015,1.411-1.185c0.214,0.03,0.442,0.366,0.845,0.215c0.355-0.688,0.971-1.223,1.56-1.773
		c0.194-0.182,0.17-0.459,0.374-0.605c0.089-0.064,0.1-0.104,0.006-0.155c-0.077-0.077-0.153-0.153-0.229-0.229
		c-0.491,0.218-0.976,0.46-1.538,0.413c-0.076,0.076-0.146,0.161-0.229,0.228c-0.755,0.599-1.482,1.284-2.524,0.486
		c-0.214-0.164-0.531-0.12-0.792,0.024c-0.643,0.354-1.304,0.666-1.995,0.917c-0.883,0.321-1.574,0.824-1.695,1.851
		c-0.02,0.166-0.152,0.346-0.231,0.434c-0.695,0.771-0.912,1.795-1.441,2.658c-0.671,1.096-1.012,2.384-1.362,3.64
		c-0.123,0.439-0.229,0.861-0.204,1.318C27.589,43.022,27.576,43.311,27.576,43.735z M37.489,37.367
		c-0.08,0.576-0.498,0.979-0.387,1.561c0.321,0.011,0.594,0.103,0.891-0.105C37.793,38.403,38.205,37.844,37.489,37.367z
		 M36.354,39.868c-0.106,0.178-0.524,0.135-0.25,0.618C36.232,40.288,36.487,40.216,36.354,39.868z"/>
	<path fill="currentColor" d="M40.644,27.288c-0.504,0-0.899,0-1.232,0
		c-0.409-0.228-0.815-0.378-1.039-0.879c0-0.39,0-0.893,0-1.281c-0.248-0.632-0.741-1.006-0.867-1.622
		c-0.294-0.078-0.519-0.286-0.72-0.511c-0.753,0-1.499,0-2.26,0c-0.505,0.847-0.521,1.919-1.307,2.649c0,0.284,0,0.598,0,0.911
		c0.156,0.638,0.905,0.862,0.987,1.369c0.212,0.439-0.375,0.471-0.122,0.769c-0.583,0.269-1.108,0.576-1.68,0.111
		c-0.043-0.035-0.161-0.034-0.209,0c-0.737,0.518-1.474,0.017-2.198-0.032c-0.615-0.041-1.222-0.23-1.857-0.203
		c-0.138,0.007-0.231-0.273-0.455-0.194c-0.064-0.301-0.365-0.502-0.325-0.839c0.212-0.77,1.057-0.626,1.578-1.101
		c-0.852-0.687-1.824-1.176-2.603-1.955c-0.751-0.75-1.807-1.181-2.435-2.135c-0.04-0.237,0.04-0.456,0.315-0.645
		c0.335,0,0.722,0,1.122,0c0.543,0.549,1.36,0.492,2.014,0.828c0.085,0.043,0.228,0.041,0.318,0c0.919-0.406,1.887-0.114,2.84-0.232
		c0.122-0.15,0.278-0.282,0.515-0.199c0-0.232,0-0.375,0-0.553c-0.676-0.524-1.189-1.255-1.555-2.018
		c-0.566-1.183-1.081-2.612-0.056-3.694c0.797,0.075,1.5,0.465,1.937,1.126c0.299,0.454,0.627,0.79,1.173,1.039
		c0.126,0,0.342,0,0.556,0c0.101-0.068,0.086-0.178,0.117-0.276c0.118-0.379-0.152-0.669-0.243-0.986
		c-0.259-0.903-0.173-1.814-0.196-2.723c0.619-0.526,0.701-1.547,1.589-1.796c0.512-0.144,1.027-0.442,1.598-0.214
		c0.077,0.076,0.153,0.152,0.274,0.273c-0.077,0.77,0.242,1.463,0.63,2.161c0.532,0.954,0.56,2.042,0.285,3.198
		c-0.098,0.408-0.052,0.849-0.073,1.328c0.179,0.169,0.375,0.352,0.575,0.54c0.167-0.174,0.107-0.37,0.084-0.53
		c-0.107-0.755,0.261-1.409,0.466-2.083c0.154-0.508,0.662-0.773,1.209-0.832c0.28-0.03,0.566-0.005,0.818-0.005
		c0.083,0.082,0.165,0.125,0.179,0.185c0.22,0.933,0.753,1.713,1.241,2.508c0.118,0.191,0.207,0.345,0.202,0.568
		c-0.01,0.466-0.003,0.932-0.003,1.218c-0.285,0.824-0.759,1.36-0.898,2.089c-0.058,0.295-0.284,0.522-0.027,0.827
		c0.314,0.371-0.211,0.624-0.146,1.004c0.124,0.229,0.236,0.504,0.389,0.77c0.426,0.74,0.338,1.139-0.275,1.834
		C40.801,27.139,40.72,27.212,40.644,27.288z"/>
	<path fill="currentColor" d="M18.29,22.823c-0.46,0.664-0.768,1.338-0.627,2.187
		c0.451,0.6,0.688,1.417,1.519,1.797c0.407,0.187,0.522,0.608,0.62,1.24c0.959,0.949,1.93,1.892,2.376,3.223
		c0.043,0.127,0.232,0.164,0.216,0.343c-0.072,0.808,0.483,1.256,0.786,1.537c0.809,0.475,1.444,0.407,2.07,0.396
		c0.338-0.006,0.532,0.286,0.816,0.334c0.26,0.222,0.291,0.545,0.445,0.812c-0.039,0.355-0.192,0.651-0.451,0.924
		c-0.176,0.221-0.498,0.143-0.742,0.242c-0.419,0.17-0.914,0.042-1.403-0.115c-0.797-0.255-1.409-0.777-2.111-1.164
		c-0.61-0.335-0.452-1.134-0.916-1.562c-0.032-0.833-0.588-1.431-1.015-2.056c-0.354-0.519-0.613-0.999-0.482-1.568
		c-0.377-0.822-1.291-1.043-1.679-1.735c-0.389-0.694-1.106-1.013-1.587-1.57c0.083-0.418-0.167-0.755-0.278-1.093
		c-0.188-0.565-0.257-1.072,0.072-1.568c0.273-0.413,0.206-0.907,0.398-1.348c0.169-0.386,0.346-0.823,0.252-1.304
		c-0.102-0.521,0.375-0.984,0.207-1.527c0.424-0.539,0.109-1.167,0.231-1.729c-0.627-0.821-1.579-1.342-1.979-2.355
		c0.72-1.318,1.868-2.132,3.229-2.758c0.215,1.077-0.773,1.62-1.003,2.493c0.302,0.425,0.602,0.875,1.135,1.218
		c0.55,0.354,0.911,1.092,0.731,1.803c-0.104,0.409-0.177,0.801-0.182,1.214c-0.005,0.432-0.001,0.863-0.001,1.331
		C18.232,21.109,18.272,21.988,18.29,22.823z"/>
	<path fill="currentColor" d="M53.207,11.81c0.401,0.99,0.162,2.077,0.938,2.832
		c0,0.592-0.021,1.168,0.006,1.742c0.024,0.528-0.487,0.966-0.242,1.359c-0.185,0.681-0.58,0.932-1.081,1.139
		c-0.582,0.241-1.186,0.525-1.649,0.937c-0.557,0.494-1.147,0.607-1.844,0.548c-0.662-0.381-0.662-0.381-1.02-1.115
		c0.263-0.24,0.525-0.478,0.874-0.797c0.433-0.002,0.959-0.219,1.49-0.444c0.213-0.09,0.384-0.205,0.434-0.403
		c0.156-0.618,0.644-0.975,1.067-1.428c0-0.327,0-0.681,0-1.065c-0.438-0.636-0.549-1.403-0.663-2.224
		c-0.15-0.182-0.345-0.389-0.741-0.271c-0.415,0.415-0.866,0.874-1.325,1.325c-0.73,0.715-1.654,0.929-2.717,0.641
		c-0.065-0.018-0.132-0.04-0.199-0.04c-0.573-0.003-1.149-0.002-1.725-0.002c-0.531-0.258-1.024-0.557-1.224-1.373
		c0-0.104,0-0.417,0-0.714c0.164-0.109,0.388-0.038,0.469-0.245c0.55,0.313,1.15,0.15,1.726,0.162c0.5,0.01,0.97,0.037,1.334,0.432
		c1.211,0.008,1.801-0.268,2.877-1.346c0.16-0.627,0.211-1.301,0.865-1.672c0.265,0.032,0.451,0.36,0.764,0.217
		C52.32,10.508,52.708,11.279,53.207,11.81z"/>
	<path fill="currentColor" d="M20.876,13.375c-0.041-0.56,0.025-1.235,0.491-1.824
		c0.43-0.106,0.928,0.135,1.257-0.314c0.16,0.146,0.263,0.24,0.399,0.365c0,0.5,0,1.03,0,1.521c0.266,0.266,0.494,0.495,0.723,0.724
		c0.533,0.219,1.042-0.018,1.496-0.196c0.39-0.152,0.676-0.252,1.024,0.022c0.067,0.052,0.21,0.008,0.319,0.008
		c0.316,0.271,0.632,0.544,0.77,0.963c0,0.287,0,0.573,0,0.884c-0.171,0.154-0.358,0.321-0.57,0.512
		c-0.23-0.003-1.555-0.299-1.792-0.407c-0.421,0.155-0.827,0.305-1.266,0.467C22.638,15.435,21.445,14.909,20.876,13.375z"/>
	<path fill="currentColor" d="M32.794,7.848c0.321,0.289,0.585,0.528,0.838,0.756
		c-0.132,0.471-0.347,0.853-0.733,1.14c-2.194,0.497-4.313,0.574-5.969-1.379c0.077-0.471,0.077-0.471,0.54-0.949
		c0.519,0.005,1.054-0.071,1.523,0.22c0.416,0.257,0.866,0.209,1.313,0.211C31.166,7.851,32.025,7.848,32.794,7.848z"/>
	
	
	
</g>
</svg>
