<?xml version="1.0" encoding="iso-8859-1"?>
<!-- Generator: Adobe Illustrator 16.0.0, SVG Export Plug-In . SVG Version: 6.00 Build 0)  -->
<!DOCTYPE svg PUBLIC "-//W3C//DTD SVG 1.1//EN" "http://www.w3.org/Graphics/SVG/1.1/DTD/svg11.dtd">
<svg version="1.1" id="Layer_1" xmlns="http://www.w3.org/2000/svg" xmlns:xlink="http://www.w3.org/1999/xlink" x="0px" y="0px"
	 width="72.18px" height="70.921px" viewBox="0 0 72.18 70.921" style="enable-background:new 0 0 72.18 70.921;"
	 xml:space="preserve">
<g>
	<path fill="currentColor" d="M30.265,57.972c-0.708,0.698-1.359,1.359-2.214,1.82
		c-0.472,0.254-0.935,0.597-1.307,1.036c-0.634,0.748-1.499,1.162-2.419,1.443c-0.486,0.15-0.955,0.251-1.378,0.607
		c-0.531,0.446-1.121,0.352-1.674-0.1c-0.239-0.196-0.404-0.46-0.748-0.549c-0.339-0.087-0.217-0.575-0.541-0.71
		c0.11-0.257,0.202-0.472,0.297-0.69c0.537-0.264,1.146-0.418,1.563-0.92c0.641,0,1.287,0,1.952,0
		c0.539-0.596,1.137-1.136,1.732-1.495c0.421-1.236,0.209-2.418,0.361-3.558c0.083-0.632,0.119-1.161-0.199-1.706
		c-0.049-0.082-0.055-0.198-0.057-0.299c-0.016-1.198,0.103-2.404-0.271-3.579c-0.343-0.65-0.67-1.331-0.585-2.109
		c0.067-0.61-0.231-1.147-0.258-1.746c-0.022-0.509-0.319-1.008-0.517-1.502c-0.16-0.401-0.178-0.869-0.53-1.184
		c0-0.721,0.166-1.496-0.05-2.144c-0.192-0.578-0.243-1.153-0.118-1.644c0.115-0.452,0.125-0.885,0.184-1.363
		c0.218-0.434,0.678-0.595,1.118-0.802c0.739,0.061,1.093,0.69,1.569,1.08c0.243,0,0.456,0,0.641,0
		c0.621-0.431,0.361-1.39,1.21-1.712c0.715,0.029,1.245-0.568,1.928-1.01c0.183-0.31-0.244-0.546-0.264-0.876
		c-0.597-0.235-1.171-0.502-1.846-0.518c-0.34-0.008-0.75-0.187-0.993-0.426c-0.404-0.396-0.935-0.617-1.315-1.052
		c-0.276,0-0.562,0-0.864,0c-0.34-0.361-0.683-0.727-1-1.064c-0.493-0.08-0.979,0.113-1.274-0.248
		c-1.043,0.066-1.16,1.103-1.88,1.505c-0.394,0.019-0.854,0.108-1.245-0.261c-0.165-0.277-0.337-0.585-0.357-0.99
		c-0.025-0.52-0.469-0.887-0.744-1.299c-0.269-0.401-0.52-0.83-1.017-1.102c-0.547-0.3-0.899-0.872-0.798-1.656
		c0.148-0.117,0.343-0.272,0.621-0.492c0.446,0.152,0.936-0.228,1.494-0.243c0.786-0.021,1.629,0.223,2.309-0.419
		c0.038-0.036,0.143,0.007,0.211-0.006c0.397-0.079,0.736,0.161,1.101,0.197c0.322,0.032,0.624-0.312,0.986-0.189
		c0.125,0.042,0.226,0.158,0.365,0.259c0,0.737,0,1.483,0,2.229c0.788,0.519,1.452,1.178,2.354,1.449
		c1.087,0.328,1.99,1.119,3.158,1.249c0.085,0.01,0.146,0.159,0.239,0.2c0.662,0.299,1.322,0.617,2.237,0.361
		c0.073-0.09,0.249-0.307,0.474-0.584c0.014-0.637-0.337-1.275-0.579-1.934c-0.091-0.245-0.085-0.508-0.251-0.767
		c-0.216-0.339,0.146-0.765,0.278-1.139c0.059-0.167,0.104-0.32,0.113-0.529c-0.436-0.708-1.169-0.577-1.831-0.584
		c-0.522-0.446-0.595-1.017-0.538-1.628c0.641-0.711,1.502-1.172,2.14-1.896c0.229-0.26,0.614-0.472,0.956-0.521
		c0.412-0.06,0.518-0.537,0.992-0.524c0.33,0.008,0.635-0.363,0.95-0.549c0.804-0.474,1.724-0.743,2.464-1.351
		c0.083-0.069,0.27-0.009,0.374-0.009c0.443-0.443,0.851-0.851,1.257-1.257c0.883-0.055,1.623-0.462,2.28-1.003
		c0.375-0.308,0.758-0.558,1.188-0.787c0.745-0.397,1.455-0.889,2.102-1.435c0.401-0.341,0.828-0.606,1.291-0.813
		c0.58-0.258,0.898-0.683,1.067-1.275c0.204-0.722,0.511-1.409,0.446-2.199c-0.028-0.348,0.407-0.774,0.145-1.063
		c-0.305-0.335-0.003-0.754-0.331-1.08C46.26,8.66,46.39,8.214,46.39,7.923c0.166-0.124,0.247-0.348,0.458-0.287
		c0.845,0.246,1.73,0.406,2.123,1.385c0.21,0.524,0.535,1.003,0.822,1.529c0.047,1.59,0.379,3.199,0.249,4.832
		c-0.013,0.17,0.047,0.321,0.115,0.491c0.404,1.008,0.747,2.038,0.749,3.146c0,0.309,0.062,0.586,0.184,0.894
		c0.257,0.646,0.363,1.347,0.646,2.002c0.095,0.221,0.292,0.459,0.256,0.761c-0.035,0.284,0.009,0.577-0.011,0.863
		c-0.059,0.789,0.248,1.462,0.649,2.201c-0.165,0.523,0.274,1.048,0.228,1.654c-0.045,0.572-0.01,1.151-0.01,1.709
		c0.575,0.609,0.871,1.336,0.852,2.143c-0.027,1.168,0.368,2.299,0.242,3.476c-0.052,0.475,0.369,0.833,0.466,1.319
		c0.186,0.926,0.247,2.003-0.09,2.848c-0.229,0.125-0.479,0.043-0.701,0.053c-0.6-0.51-1.103-1.078-1.417-2.014
		c0,0.031,0.003-0.147-0.001-0.324c-0.014-0.827,0.045-1.631-0.398-2.431c-0.313-0.566-0.263-1.323-0.481-1.957
		c-0.203-0.584-0.24-1.168-0.182-1.751c0.045-0.446-0.195-0.805-0.277-1.199c-0.094-0.443-0.179-0.875-0.168-1.324
		c0.008-0.32-0.011-0.63-0.224-0.879c-0.227-0.266-0.216-0.573-0.214-0.885c0.004-0.361,0.002-0.72,0.002-1.08
		c-0.202-0.386-0.403-0.771-0.668-1.278c-0.088-0.267,0.189-0.711-0.113-1.101c-0.264-0.341,0.144-0.866-0.3-1.17
		c0.023-1.285-0.687-2.43-0.686-3.728c0-0.396-0.212-0.846-0.165-1.244c-0.767-0.469-1.329-0.382-1.721,0.297
		c-0.107,0.186-0.208,0.404-0.37,0.479c-0.404,0.189-0.817,0.459-1.069,0.741c-0.266,0.296-0.539,0.625-0.809,0.938
		c-0.307,0.357-0.745,0.448-1.227,0.546c-0.222,0.527-0.635,0.896-1.152,1.216c-0.701,0.434-1.38,0.918-1.974,1.507
		c-0.388,0.385-0.975,0.472-1.355,0.911c-0.365,0.419-0.433,1.005-0.895,1.372c-0.286,0.227-0.436,0.582-0.467,0.988
		c-0.065,0.854-0.537,1.498-1.253,1.909c-0.259,0.148-0.412,0.374-0.663,0.53c0,0.205,0,0.416,0,0.713
		c0.197,0.148,0.453,0.341,0.63,0.474c0,0.539-0.056,0.945,0.013,1.329c0.093,0.517-0.232,0.935-0.241,1.424
		c-0.008,0.441,0.079,0.874-0.177,1.331c-0.234,0.418,0.165,0.834,0.356,1.25c0.998,0.153,1.632,0.938,2.479,1.369
		c0.354,0,0.706,0,1.1,0c0.729,0.65,1.728,0.968,2.37,1.744c0.249,0.301,0.573,0.236,0.841,0.34c0.841,0.326,1.729,0.527,2.71,0.809
		c0.425,0.506,1.065,0.841,1.818,1.046c0.33,0.091,0.582,0.458,1.123,0.633c0.654,0.058,1.427-0.134,2.15-0.604
		c0.358-0.234,0.813-0.321,1.167-0.559c0.313-0.209,0.6-0.186,0.882-0.062c0.518,0.225,0.999,0.232,1.513-0.078
		c0.79,0.05,0.896,0.936,1.484,1.228c0.682,0.268,1.362,0.535,1.996,0.784c0.538,0.93,0.538,0.93,0.188,1.784
		c-1.092,0.514-2.237,0.213-3.32,0.326c-0.484,0.429-0.59,0.956-0.53,1.412c0.52,1.352,1.183,2.526,1.33,3.931
		c-0.447,0-0.834,0-1.22,0c-0.922-0.514-1.841-1.06-2.884-1.357c-0.122-0.035-0.235-0.135-0.381-0.118
		c-0.564,0.064-1.105-0.05-1.716-0.288c-0.13,0.775-0.786,1.179-1.09,1.821c-0.225,0.476-0.765,0.538-1.147,0.585
		c-0.504,0.063-0.934,0.246-1.316,0.488c-1.004,0.637-2.092,1.149-2.96,1.984c-0.108,0.104-0.228,0.127-0.363,0.172
		c-0.895,0.287-1.696,0.775-2.52,1.213c-0.21,0.111-0.391,0.229-0.63,0.312c-0.944,0.326-1.692,1.085-2.708,1.278
		c-0.563,0.683-1.406,0.959-2.104,1.445c-0.466,0.324-0.885,0.663-1.533,0.759c-0.654,0.098-1.26,0.584-1.864,0.938
		C30.639,57.972,30.48,57.932,30.265,57.972z M47.662,43.262c-0.445-0.761-1.102-1.229-1.815-1.438
		c-0.757-0.221-1.384-0.664-2.1-0.94c-0.37-0.144-0.665-0.498-1.039-0.616c-0.543-0.171-1.034-0.474-1.583-0.609
		c-0.623-0.155-1.068-0.737-1.761-0.706c-0.429-0.553-1.136-0.566-1.688-0.875c-0.322-0.181-0.728-0.266-0.907-0.649
		c-0.814,0.098-1.496-0.187-2.037-0.644c-0.683,0.016-1.005,0.455-1.375,0.816c-0.447,0.436-0.914,0.751-1.546,0.971
		c-0.766,0.268-1.559,0.688-2.071,1.375c-0.074,0.646,0.301,1.138,0.352,1.65c-0.02,0.808-0.61,1.276-0.99,1.875
		c-0.458,0.723-0.926,1.538-0.63,2.41c0.182,0.53,0.208,1.034,0.163,1.54c-0.048,0.547,0.29,0.996,0.247,1.534
		c-0.048,0.606-0.024,1.223-0.004,1.833c0.008,0.236,0.027,0.468,0.089,0.713c0.21,0.836,0.556,1.718,0.301,2.554
		c-0.207,0.674-0.108,1.292-0.191,1.922c0.607,0.102,1.075,0.007,1.413-0.401c0.254-0.308,0.599-0.486,0.936-0.617
		c0.261-0.101,0.372-0.314,0.587-0.454c0.091,0,0.198-0.002,0.306,0c0.712,0.013,1.386-0.093,1.874-0.683
		c0.126-0.152,0.32-0.133,0.444-0.232c0.373-0.3,0.821-0.49,1.223-0.72c0.507-0.287,0.933-0.68,1.438-0.95
		c0.763-0.408,1.642-0.654,2.306-1.18c0.734-0.579,1.814-0.538,2.35-1.413c0.029-0.048,0.217,0.024,0.313-0.011
		c0.747-0.28,1.577-0.447,2.216-0.888c0.985-0.681,2.107-1.191,2.771-2.032c0.6-0.271,1.031,0.096,1.61,0.065
		C48.166,45.385,47.874,44.287,47.662,43.262z"/>
	
</g>
</svg>
