<svg xmlns="http://www.w3.org/2000/svg" xml:space="preserve" width="72px" height="72px" viewBox="0 0 72 72">
    <g fill="currentColor">
        <path d="M24.294 62.634a3.6 3.6 0 0 0-1.75-.278c-.648-.449-1.458-.482-2.03-.938a70 70 0 0 0-1.807-1.387c-.31-.503-.3-1.121.026-1.67-.073-.488-.369-.498-.702-.571-.238-.053-.424-.342-.628-.521.829-1.289 2.493-1.931 3.542-1.433.92-.368 1.735-.832 2.463-1.466.519-.452 1.223-.51 1.878-.671 1.055-.261 2.176-.153 3.195-.626.465-.216.739-.302 1.141-.653h3.004c.425-.29.427-.995 1.068-1.089h1.111c.28-.231.405-.464.302-.782-.103-.139-.291-.014-.387-.085-.738-.556-1.591-.398-2.418-.431-.39-.015-.743.06-1.101.216-.84.367-1.735.18-2.67.229-.428.539-1.082.86-1.707 1.254-1.882.146-3.791.571-5.701-.023-.368-.482-.725-.955-.186-1.573.264-.238.727-.245 1-.637v-.684c-.682-.603-1.649-.695-2.268-1.374h-1.502c-1.95-.677-3.374-2.027-4.636-3.593.141-.314-.177-.504-.222-.801l.886-.769h1.176c.441.354.777.94 1.52 1.076.49-.218 1.102-.308 1.6-.665.445-.319.944-.175 1.422-.219l.271-.272c-.534-1.162-1.088-2.299-1.451-3.511-.082-.272-.19-.506-.428-.514-.566-.021-.915-.418-1.274-.68-.355.063-.204.294-.264.435-.104.245-.241.477-.37.711-.177.323-.661 0-.813.382-.437-.08-.862.025-1.335-.166-.464-.187-.798-.332-.945-.813-.019-.061-.096-.104-.148-.153-.643-.593-1.235-1.227-1.595-2.132-.545.189-.97-.297-1.614-.172l-.407-.686-.106.109v-.843c.255-.263.331-.599.467-.912.224-.077.462-.144.579-.351.154-.597-.077-1.174.201-1.785.216-.478.043-1.132.043-1.472.684-1.45 1.686-2.389 2.667-3.325 1.126-.196 2.121-.032 2.767 1.017h.635c-.097-.417.15-.845-.237-1.196-.001-.106.075-.208.082-.286.1-1.183 1.083-1.92 1.484-2.954.114-.292.473-.471.8-.63 1.027-.5 1.016-.521 1.521-1.591.228-.482.461-.96.704-1.464l1.171-.556c.219-.396.431-.833.239-1.307.429-.398.669-.847.917-1.301.401-.737.873-1.413 1.839-1.46.083-.004.152-.144.242-.191.056-.03.141-.006.213-.005.44.126.823.343 1.14.77l.028.644c.486.562 1.113.564 1.864.517 1.022-1.518 2.826-2.331 3.981-3.846.191-.017.404.028.525-.058.459-.324.917-.217 1.393-.082.42.12.844.304 1.269.31.991.014 1.477.572 1.805 1.445.261.104.526.357.897.299.526-.404.854-1.044 1.758-1.305.613-.064 1.367.166 2.115.583.392.218.804.444 1.289.548.404.087.838.354 1.041.896.346.923 1.142 1.382 2.065 1.666.477.146 1.037.185 1.365.841v.757c.231.28.458.421.783.304.151-.53.58-.806 1.17-1.049-.015 0 .096.018.198-.003 1.227-.243 2.105.408 2.666 1.318.403.654 1.009.891 1.557 1.235.486.306.981.486 1.286 1.065.236.451.687.863 1.143 1.105.371.197.533.563.898.704v.843c-.162.141-.395.454-.704.593-1.045.467-2.014 1.255-3.353.833-.341-.341-.735-.761-1.158-1.152-.518-.48-.803-1.073-1.043-1.73-.286-.783-.566-1.59-1.164-2.218h-.651c-.037.053-.105.105-.108.163-.083 1.292.491 3.564 1.516 5.152-.105.388.201.876-.214 1.265.095.133.278.227.199.475 1.799.442 1.493 1.895 1.52 3.21l.552.524c.519.079 1.068-.084 1.618.205.561.295.485.969.938 1.289h.52c.191-1.084-.11-2.081-.537-3.001-.376-.814-.623-1.601-.467-2.499.22-.083.116-.376.294-.521.456 0 .923-.009 1.389.003.318.009.628-.006.881-.221.263-.223.569-.219.885-.215.465.006.931.001 1.235.001.677.256 1.091.596 1.313 1.394-.073.602.226 1.346.572 2.103.262.571.403 1.211.512 1.835.086.498.424.973.191 1.511-.165.305-.587.216-.729.552-.404-.284-.934-.187-1.204-.619-.741-.163-.891-.821-1.028-1.387-.143-.58-.435-.975-.816-1.304-.44.078-.322.404-.271.524.269.617.514 1.26 1.072 1.769-.195 1.063.379 2.107.164 3.335l-.626.502c-.001.803.722 1 1.084 1.619.005.111-.073.414.043.584.328.481.156.871-.001 1.356-.239.737-.33 1.526-.45 2.298-.058.368-.409 1.153-.591 1.486-.438.802-1.15 1.204-1.957 1.512-.186.071-.402.159-.514.308-.631.847-1.737.925-2.492 1.567-.063.053-.21.007-.405.007l-.538-.663c-.065-.89 1.192-1.262 1.092-2.277.681-.547 1.173-1.304 1.967-1.755.348-.198.603-.56.782-.959.218-.486.464-.971.771-1.404.146-.206.138-.385.151-.606-.272-.244-.613-.014-.874-.136-.83.595-1.485 1.446-2.652 1.318-.466-.392-1.09-.439-1.529-.667-.354.062-.469.229-.573.445.34.78 1.302.922 1.747 1.735.034.277-.063.536-.506.659-.783.219-1.124.164-1.863-.308-.513-.327-1.028-.65-1.523-1.051-.621.42-.786 1.169-1.276 1.609-.525.472-.427 1.245-.989 1.672h-1.327c-.349-.53-.675-1.162-1.44-1.285-.626.385-.381.869-.138 1.334-.136.183-.25.322-.471.407-.528.203-.662.365-1.147 1.05-.483.682-2.084.971-2.619.391-.219-.237-.4-.553-.627-.796-.57-.056-1.113.15-1.647.164-.496.014-1.021-.281-1.495-.515-.476-.234-1.054-.357-1.294-.924-.06-.287.061-.524.289-.634.753-.362 1.543-.583 2.394-.478.378.436.882.11 1.297.246.436.168.771.468 1.057.804.346.119.686-.018 1.042.139.627.275 1.142.09 1.459-.53.165-.325.439-.39.669-.563.045-.558-.514-.498-.779-.724-.201-.172-1.181.034-1.501.19-.178.042-.281-.15-.374-.149-.86.008-1.402-.517-1.936-1.082-.438-.463-.899-.904-1.35-1.354-.361.328-.427.851-.938 1.079h-2.853c-.718-.214-.138-1.015-.772-1.275h-.868c-.101.159-.248.239-.307.435-.144.474-.632.777-.999.8-.699.044-1.347.363-2.069.276-.49-.06-.971-.042-1.342-.447-.476.002-.979-.11-1.417.462.042.891 1.018 1.011 1.658 1.478h1.485c.123-.135.24-.278.453-.214.483.123.879.376 1.164.788.11.494-.273.713-.573.929-.378.272-.895.384-1.277.166-.36-.204-.686-.093-1.013-.161-.776.644-.97.726-1.984.647-.69-.534-.988-1.398-1.741-1.9-.578-.149-1.222-.246-1.807-.487-.551-.228-1.036-.288-1.56.012-.081.046-.209.006-.364.006v1.369c-.558.521-1.37.64-1.767 1.388v.502l.588.713c.487-.358 1.123-.142 1.497-.527.271-.608-.162-1.069-.155-1.576.356-.553 1-.545 1.513-.768.376-.164 1.446.569 1.732 1.076.132.232.251.474.398.698.077.117.199.206.364.371 1.173-.256 2.046.849 3.215.893.155-.495.549-.754.881-1.114h2.012c.432 0 .867-.033 1.295.01.401.04.686-.316 1.102-.238.367.069.768-.058 1.098.227.286.245.647.179.986.23.767.117 1.577.168 2.146.852.705 0 1.425.026 2.141-.013.307-.017.552.078.771.234.579.41 1.226.697 1.824 1.022.22.416.184.907.547 1.227 1.465.735 2.843.174 4.262-.271.04.036.134.178.197.165.579-.112.71.346.879.703.354.748.326.85.978.938.655.088 1.229.378 1.813.598.626.237 1.158.189 1.677-.078 1.113-.575 2.223-1.162 3.165-2.02.318-.29.725-.494 1.115-.688.252-.125.472-.268.672-.465 1.003-.982 1.003-.98 1.457-2.529.266-.906.619-1.764 1.199-2.532.253-.335.479-.778.496-1.182.021-.487.333-.67.582-.934h.462c.265.734.564 1.459.488 2.274-.467.326-.565.862-.615 1.353-.057.557-.197 1.078-.472 1.536-.182.303-.086.687-.362.933.095.867-.613 1.468-.749 2.294-.118.721-.705 1.352-.989 2.062a3.3 3.3 0 0 1-.856 1.266c-.159.146-.401.283-.441.461-.123.547-.606.563-.965.787-.405.253-.719.29-1.138.006-.272-.185-.581.098-.924.35-.209.5-.691.928-1.336 1.136-.794.257-1.564.576-2.377.788-1.009.263-1.9.804-2.78 1.369-1.072.69-1.997 1.567-3.047 2.283-.142.097-.287.225-.183.48.574.283 1.09-.276 1.689-.182.598.094 1.221.021 1.833.021.302.386.302.386.332.952-.333.398-.722.683-1.271.794-.38.077-.741.299-1.082.506-1.119.678-2.453.872-3.554 1.593-.077.051-.201.038-.305.042-.378.012-.74-.016-1.11.196-.274.157-.656-.05-1 .202-.279.205-.775-.144-1.082.246-.028.035-.14.014-.21.003-.853-.129-1.647.371-2.504.224a.57.57 0 0 0-.399.075c-.763.437-1.611.355-2.444.352-.072-.001-.163.028-.213-.005-.816-.527-1.75-.316-2.625-.465-.588-.1-1.166-.136-1.752-.188a15 15 0 0 1-1.74-.242c-1.214-.251-2.406-.661-3.329-1.578-.179-.177-.357-.356-.48-.479m12.913-8.072c.95-.047 1.796.463 2.607.634.98-.372 1.917-.07 2.786-.264 1.762-.61 3.126-1.852 4.628-2.831.035-.384-.052-.66-.561-.805L42.771 53.5c-.687-.143-1.36.371-2.109.211-.253.271-.485.185-.826.095-.66-.176-1.184-.503-1.545-.933-.615-.138-1.022.318-1.541.223-.057-.011-.362.137-.524.278v.298c.175.545.633.63.981.89m-12.344 3.045c.325-.055.674.117.947-.092.333-.255.684-.068 1.018-.138.109.177.3.179.439.261.154.091.29.146.466.188.947.218 1.843.575 2.625 1.089.684-.233.903-.812 1.156-1.225.538-.313 1.073-.445 1.46-.838v-.434c-.152-.325-.552-.293-.754-.548-.283 0-.703-.12-.832.022-.378.42-.879.029-1.291.325-.363.262-.9.06-1.359.081-.394.019-.798.053-1.184-.007-.683-.105-1.322.124-1.952.268-.282.063-.692.055-.921.365-.062.084-.158.145-.112.345zm-3.547-19.336c-.019.435-.106.968.229 1.272.548.498.849 1.197 1.424 1.661.318-.176.672-.229.914-.547v-1.369c-.401-1.004-1.499-.943-1.932-1.74.074-.563-.032-1.088-.511-1.525h-.903c-.484.295-.256.766-.304 1.165zm4.532-4.13c-.235-.131-.34-.44-.673-.53-.814.107-1.239.752-1.81 1.333l.582.415c.598.03 1.268-.189 1.901-.458zm10.369 25.01c-.011.4.187.515.429.61.595.235 1.174.533 1.878.409.116-.226.431-.322.526-.71-.334-.354-.786-.723-1.28-.532-.508.197-1.012.114-1.553.223m-.428-10.688c-.041.449-.011.927.301 1.343.243.015.487.068.722-.035.251-.438.354-.895.23-1.389-.392-.091-.769-.621-1.253.081m18.14-12.475-1.204-1.203-.462.389c.085.557.55.81.714 1.249h.639c.096-.152.307-.208.313-.435m-34.917-3.819c-.149.161-.453.305-.533.687l.543.538h.688c.307-.423.4-.864.228-1.037-.288.027-.443-.35-.926-.188m9.585 5.783c-.145.02-.363-.075-.571.076v.923l.122-.103.37.596c.344-.261.906-.274.8-.763zm7.386-20.243c-.413-.168-.636-.021-.833.247-.137.574.333 1.056.233 1.612.342.065.44-.157.6-.291zm-16.827 10.4q-.1.478.308.745c.236.015.481.068.714-.036.404-.583.404-.584-.189-1.027-.34-.047-.54.264-.833.318m20.283-4.335-.565-.279c-.116.222-.428.321-.489.561-.061.447.152.628.491.73l.563-.528zm-14.127-.708c-.646-.566-.646-.566-1.193-.115.043.237-.09.497.09.727h.371zm.453 3.191c.436-.571.434-.572-.156-1.085-.25.172-.502.361-.614.662-.042.111-.068.282.074.423zm14.676 8.062.746-.373c-.102-.62-.194-.75-.534-.755-.343-.005-.433.112-.557.758zM28.017 21.008c.435.315.709-.177 1.127-.234l-.38-.766-.462.022c-.087.339-.407.582-.285.978m7.037 17.521c.313.573.7.562 1.127.436-.027-.467-.287-.94-.431-.97zm-3.29.112.381-.763c-.223-.264-.422-.464-.763-.361-.136.136-.369.209-.349.501.186.216.362.473.731.623m-3.711-13.275c.371.077.743.161 1.002-.245l-.302-.57c-.204.016-.398-.037-.581.144-.212.21-.182.418-.119.671M24.518 26.5c-.323-.014-.561-.039-.73.213-.156.231-.159.435.005.648.687-.097.687-.097.725-.861m8.233-4.338c.079.256.209.436.519.449.308-.193.473-.445.291-.828-.392-.116-.664 0-.81.379m13.996 12.124c-.368-.076-.614.025-.724.191l.562.563c.197-.144.29-.386.162-.754m-.312-5.759c.192-.31.18-.5.083-.696-.285.066-.45-.479-.819-.13.089.384.392.573.736.826m-11.281-2.252c.504.027.828-.062.851-.582-.309-.091-.572-.1-.851-.003zm-5.319 2.083c.604.434.604.434.981.399-.284-.522-.284-.522-.981-.399m-8.218-3.991c.23.404.346.672.835.583-.14-.226.051-.442-.128-.583zm-6.021 9.041c.162-.217.166-.433-.005-.65-.104.017-.223-.044-.295.083-.016.191-.123.4.08.567zm17.398 3.255c.188-.029.305.03.381-.094.022-.191.119-.399-.075-.57-.099.015-.215-.044-.306.104zm25.565-8.026-.492-.999v.999zm-21.138 4.976c.141-.197.453-.296.227-.614-.292-.121-.389.167-.575.305zm5.708-12.411c-.031.277.152.399.396.551v-.603c-.174-.085-.295-.071-.396.052m-9.503 8.651q.317.242.65-.004c-.164-.12-.236-.363-.453-.335-.229.048-.205.193-.197.339m-7.562 5.826c.146.153.29.157.433-.007-.016-.099.045-.216-.127-.315-.208-.048-.343.03-.306.322m-.208 1.342c-.022-.147.036-.263-.09-.342-.127-.063-.249-.046-.334.058-.067.325.074.395.424.284m8.191-4.203c.023.147-.036.263.091.342.127.063.249.047.334-.058.067-.324-.074-.395-.425-.284m-2.567-6.862c-.196-.14-.333-.203-.423.032.127.116.247.109.423-.032m5.492 3.547c-.14.196-.203.333.032.423.117-.127.11-.246-.032-.423"/>
        <path d="M12.811 47.465c-.657.033-1.227-.275-1.842-.519v-.962c.631-.452 1.246-.645 2.077-.299.632.263 1.32.44 1.976.68.788.286 1.308.857 1.696 1.567a8.4 8.4 0 0 0 1.349 1.79v1.067l-.531.545h-1.043c-.758-.564-1.209-1.427-2.078-1.828-.091-.042-.205-.138-.222-.225-.163-.829-.887-1.222-1.382-1.816m-1.867-3.09c-.817.486-1.465 1.209-2.575.827-.403-.354-.755-.847-.666-1.546.055-.426-.142-.829-.333-1.145-.295-.485-.315-.969-.314-1.485v-1.679l.29-.29h.943c.513.549.646 1.329.986 2.06.297.182.7.268 1 .572.431.438.742.897.676 1.552-.036.355-.007.715-.007 1.134m12.433-29.111h-1.526l-.576-.562c.146-.52.24-.939.801-1.227.559-.286 1-.839 1.595-1.09.604-.254 1.053-.72 1.615-1.028.259-.143.415-.476.66-.662.461-.106.772.18 1.163.295.089.47.084.936-.283 1.407-.222.084-.518.22-.851.306-.412.105-.836.396-1.052.801-.378.707-1.025 1.153-1.546 1.76m5.276-5.571c.225-.072.277.229.557.187.515-.078.922.222 1.235.597.289.346.46.756.351 1.241-.485.368-1.199.468-2.242.306-.404-.375-.8-.756-.981-1.311.218-.448.388-.945 1.08-1.02M7.966 29.366c.74-.565.494-1.744 1.435-2.235.311.029.438.374.68.556 0 .186.013.367-.003.545-.018.202.281.236.246.353-.246.91-1.148 1.226-1.37 2.008h-.696c-.187-.351-.456-.686-.292-1.227m42.413 20.229c-.563.089-1.017-.103-1.394-.501-.134-.315.268-.451.239-.711.633-.381 1.284-.635 2.1-.452.094.78-.502 1.188-.945 1.664"/>
    </g>
</svg>
