<?xml version="1.0" encoding="iso-8859-1"?>
<!-- Generator: Adobe Illustrator 16.0.0, SVG Export Plug-In . SVG Version: 6.00 Build 0)  -->
<!DOCTYPE svg PUBLIC "-//W3C//DTD SVG 1.1//EN" "http://www.w3.org/Graphics/SVG/1.1/DTD/svg11.dtd">
<svg version="1.1" id="Layer_1" xmlns="http://www.w3.org/2000/svg" xmlns:xlink="http://www.w3.org/1999/xlink" x="0px" y="0px"
	 width="72.18px" height="70.921px" viewBox="0 0 72.18 70.921" style="enable-background:new 0 0 72.18 70.921;"
	 xml:space="preserve">
<g>
	
	<path fill="currentColor" d="M17.856,44.239c0-0.601-0.003-1.177,0.001-1.752
		c0.003-0.414-0.01-0.812,0.202-1.213c0.373-0.709,0.277-1.458-0.11-2.381c0.006,0.005-0.134-0.201-0.322-0.265
		c-0.913-0.307-1.403-1.006-1.811-1.813c-0.093-0.184-0.288-0.316-0.417-0.452c-1.586,0.347-2.908,1.134-4.03,2.126
		c-0.399,0-0.713,0-1.049,0c0-0.455,0-0.881,0-1.322c0.27-0.4,0.573-0.813,0.832-1.251c0.131-0.221,0.227-0.434,0.528-0.421
		c0.334,0.015,0.572-0.209,0.814-0.375c0.647-0.442,1.36-0.729,2.109-0.9c0.258-0.059,0.439-0.145,0.636-0.306
		c0.323-0.264,0.705-0.422,1.112-0.361c0.257-0.272,0.5-0.53,0.835-0.885c0-0.071,0-0.313,0-0.616
		c-0.933-0.5-1.836-0.919-2.983-0.469c-0.783,0.308-1.612,0.646-2.537,0.408c-0.194-0.114-0.427-0.252-0.629-0.372
		c-0.043-0.103-0.087-0.164-0.091-0.226c-0.043-0.693,0.264-1.169,0.898-1.445c0.185-0.081,0.381-0.121,0.528-0.299
		c0.402-0.49,0.98-0.58,1.57-0.634c0.584-0.054,1.2,0.17,1.751-0.207c0.074-0.051,0.239-0.049,0.315,0
		c0.524,0.337,1.023,0.318,1.562,0.008c0.16-0.093,0.417-0.014,0.636-0.014c0.347-0.481,0.646-0.965,0.752-1.572
		c-0.273-0.232-0.543-0.462-0.944-0.804c-0.583,0-1.408-0.152-2.149,0.033c-1.382,0.345-2.759,0.05-4.139,0.213
		c-0.244-0.281-0.478-0.551-0.79-0.911c-0.106-0.656,0.28-1.167,0.968-1.478c0.393-0.178,0.803-0.391,1.219-0.425
		c0.481-0.04,0.719-0.458,1.199-0.543c0.561-0.1,1.058-0.135,1.612-0.011c0.904,0.204,1.827,0.126,2.741,0.023
		c0.085-0.009,0.128-0.177,0.264-0.14c0.801,0.447,1.666,0.102,2.474,0.18c0.446-0.061,0.645-0.489,1.051-0.626
		c0.506-0.17,1.01-0.235,1.535-0.203c0.352,0.022,0.702,0.024,0.989-0.218c0.581-0.489,1.348-0.384,2.009-0.624
		c0.326-0.119,0.635-0.219,0.915-0.451c0.627,0,1.274,0,1.797,0c0.982,0.401,1.312,1.334,2.079,1.914c0.256,0,0.57,0,0.882,0
		c0.309-0.115,0.251-0.483,0.446-0.672c-0.121-1.127-0.832-1.897-1.644-2.621c0.111-0.366-0.343-0.65-0.208-0.966
		c0.175-0.404,0.046-0.901,0.232-1.191c0.342-0.535,0.011-1.054,0.166-1.379c-0.3-1.149-1.188-1.366-1.995-1.534
		c-0.589-0.124-1.03-0.351-1.433-0.777c0-0.197,0-0.409,0-0.689c0.157-0.113,0.362-0.258,0.709-0.505
		c-0.112,0.007-0.009-0.005,0.095-0.005c0.648-0.002,1.295-0.001,1.943-0.001c1.217,0,1.217,0,2.116,0.854c0.368,0,0.725,0,1.072,0
		c0.239-0.238,0.468-0.468,0.711-0.711c-0.036-0.56,0.395-0.922,0.692-1.306c0.463-0.6,1.09-1.053,1.375-1.814
		c0.184-0.493,0.772-0.569,1.214-0.671c0.603-0.14,1.052-0.61,1.692-0.617c0.246-0.021,0.432,0.198,0.754,0.179
		c1.234-0.075,2.352,0.27,3.344,1.046c0.189,0.147,0.415,0.206,0.475,0.479c0.021,0.093,0.1,0.18,0.171,0.251
		c1.179,1.188,1.18,1.188,1.664,2.532c0.187,0.516,0.433,1.03,0.313,1.594c-0.103,0.48,0.448,0.829,0.188,1.282
		c0.213,0.212,0.392,0.39,0.575,0.573c0.82,0.012,1.617,0.011,2.425,0.39c0.503,0.235,1.203,0.043,1.899,0.043
		c0.156,0.43,0.779,0.354,0.997,0.892c0.124,0.307,0.176,0.584,0.188,0.963c-0.16,0.122-0.358,0.273-0.675,0.515
		c0.106-0.021,0.04,0.008-0.025,0.003c-0.798-0.063-1.62,0.17-2.396-0.208c-0.326-0.158-0.627,0.093-0.871,0.228
		c-1.019,0.56-1.843,1.281-1.635,2.632c-0.4,0.44-0.434,1.039-0.743,1.613c-0.817,0.393-1.722,0.779-2.763,0.201
		c-0.505,0.502-0.995,0.96-1.068,1.699c0.358,0.134,0.614,0.357,1.002,0.334c0.438-0.025,0.69,0.408,1.023,0.624
		c0.613,0.396,1.012,1.058,1.665,1.455c0.303,0.183,0.421,0.669,0.652,1.071c0,0.12,0.009,0.298-0.001,0.474
		c-0.045,0.683,0.171,1.229,0.551,1.833c0.543,0.866,1.137,1.817,0.95,2.938c-0.109,0.659-0.288,1.317-0.533,1.937
		c-0.139,0.349-0.01,0.77-0.31,0.899c-0.028,0.421,0.204,0.496,0.36,0.646c0.211-0.088,0.45-0.143,0.635-0.275
		c0.229-0.167,0.428-0.387,0.614-0.604c0.459-0.536,1.01-0.948,1.657-1.215c0.777-0.321,1.083-0.904,1.046-1.713
		c-0.011-0.214-0.001-0.429-0.001-0.63c-0.197-0.215-0.379-0.396-0.484-0.682c-0.423-1.146-1.149-2.122-1.796-3.148
		c-0.402-0.639-0.804-1.344-0.734-2.258c0.149-0.102,0.356-0.243,0.706-0.481c-0.008,0,0.203,0,0.445,0
		c0.025,0.017,0.088,0.047,0.138,0.092c0.944,0.864,1.606,1.989,2.597,2.812c0.84,1.513,2.24,2.529,3.34,3.809
		c0.428,0.498,0.823,0.98,1.373,1.356c0.58,0.396,0.792,1.111,1.214,1.655c0.541,0.697,0.9,1.529,1.539,2.166
		c0.141,0.14,0.228,0.363,0.28,0.527c0.258,0.801,0.665,1.526,1.012,2.284c0.192,0.419,0.14,0.91,0.447,1.332
		c0.25,0.342,0.045,0.848,0.257,1.293c0.193,0.405-0.111,0.858-0.486,1.205c-0.398,0-0.825,0-1.336,0
		c-0.217-0.197-0.435-0.541-0.837-0.624c-0.575,0-1.153-0.036-1.725,0.007c-1.215,0.092-2.208-0.4-3.082-1.157
		c-0.295-0.256-0.631-0.396-1.009-0.617c-0.249,0.359-0.568,0.645-0.842,1.016c-0.568,0.774-1.38,1.333-2.332,1.613
		c-0.828,0.242-1.531,0.712-2.178,1.247c-0.554,0.457-1.028,1.008-1.537,1.516c-0.496,0.157-0.981,0.051-1.374-0.227
		c-0.314-0.224-0.593-0.184-0.886-0.095c-0.588,0.174-1.159,0.411-1.791,0.37c-0.071-0.005-0.16-0.029-0.213,0.003
		c-0.964,0.586-1.922,0.279-2.887,0.003c-0.158-0.046-0.342-0.007-0.567-0.007c0.675,1.012,1.307,1.959,1.899,2.849
		c0.263,0.81-0.324,1.485-0.17,2.149c0.32,0.612,0.613,1.145,1.058,1.599c0.318,0.326,0.271,0.838,0.246,1.136
		c-0.34,0.927-0.948,1.533-1.198,2.371c-0.112,0.377-0.008,0.744-0.171,1.111c-0.263,0.6-0.526,1.18-1.002,1.626
		c-0.129,0.771,0.326,1.253,0.847,1.724c-0.181,0.646,0.729,1.291-0.086,1.959c-0.323,0.289-0.785,0.354-1.284,0.336
		c-0.298-0.012-0.651-0.149-0.891,0.193c-0.024,0.035-0.146,0.032-0.205,0.007c-0.451-0.196-0.919-0.356-1.387-0.122
		c-0.517,0.259-1.047,0.082-1.569,0.118c-0.501,0.035-1.01,0.036-1.511,0.001c-0.748-0.054-1.487-0.171-2.212-0.386
		c-0.421-0.126-0.874-0.142-1.306-0.216c-1.173-0.204-2.327-0.509-3.504-0.688c-0.068-0.01-0.159,0.012-0.204-0.025
		c-0.819-0.668-1.998-0.646-2.757-1.439c-0.129-0.135-0.357-0.171-0.534-0.265c-0.622-0.329-1.275-0.583-1.859-1.009
		c-0.316-0.23-0.719-0.463-1.185-0.521c-0.633-0.077-1.005-0.666-1.525-0.985c-0.474-0.289-0.974-0.581-1.256-1.17
		c-0.174-0.363-0.636-0.67-1.037-0.82c-0.338-0.126-0.478-0.403-0.675-0.524c-0.264-0.902,0.066-1.721,0.185-2.543
		c0.11-0.755,0.68-1.366,1.047-2.109c-0.462-0.708-0.172-1.451,0.107-2.192c0.047-0.124,0.094-0.25,0.153-0.368
		c0.607-1.214,0.607-1.213,0.603-2.349c-0.226-0.152-0.417-0.118-0.669,0.015c-0.289,0.15-0.551,0.458-1.007,0.264
		c-0.041-0.042-0.141-0.146-0.264-0.273c0.016-0.072,0.014-0.18,0.059-0.263c0.347-0.647,0.809-1.245,1.006-1.957
		C17.129,44.928,17.526,44.607,17.856,44.239z M39.765,23.1c-0.399-0.024-0.179-0.462-0.484-0.567
		c-0.606-0.021-1.016,0.668-1.705,0.384c-0.471-0.291-0.687-1.04-1.415-1.05c-0.206,0.207-0.382,0.383-0.564,0.564
		c0,0.294,0,0.606,0,0.78c0.376,0.399,0.806,0.351,1.19,0.46c0.376,0.108,0.708,0.372,1.062,0.57
		c0.364-0.455,0.944-0.002,1.231-0.181C39.486,23.773,39.477,23.418,39.765,23.1z M33.625,45.771
		c0.672,0.344,1.459,0.516,2.046,0.988c0.624,0.502,1.418,0.594,2.05,1.037c0.08,0.056,0.278,0.069,0.396-0.053
		c-0.908-1.054-1.041-1.137-2.821-2.054c-0.55-0.282-1.096-0.303-1.671-0.214C33.625,45.613,33.625,45.686,33.625,45.771z
		 M40.987,18.864c0.661,0,1.231,0,1.769,0c0.439-0.29,0.686-0.686,0.813-1.199c-0.096-0.076-0.207-0.164-0.371-0.294
		c-0.234,0-0.545,0-0.836,0c-0.469,0.307-0.919,0.601-1.374,0.899C40.987,18.454,40.987,18.622,40.987,18.864z M36.912,35.121
		c0.252-0.23,0.234-0.512,0.114-0.624c-0.361-0.335-0.494-0.831-0.886-1.146c-0.297-0.238-0.616-0.52-0.766-0.854
		c-0.221-0.489-0.646-0.498-1.194-0.82C34.941,33.157,35.583,34.417,36.912,35.121z M40.416,38.298
		c0.688,0.009,1.223,0.482,1.903,0.451c0.684-0.033,1.157-0.401,1.797-0.845c-0.551,0-0.938,0-1.332,0
		c-0.371,0.319-0.798,0.496-1.302,0.365c-0.541-0.476-0.943-1.13-1.697-1.272c-0.18,0.204-0.084,0.388-0.099,0.503
		C39.951,37.789,40.192,38.053,40.416,38.298z M36.549,15.656c-0.255,0.24-0.516,0.485-0.721,0.677c0,0.379,0,0.692,0,1.033
		c0.47,0.16,0.865,0.476,1.364,0.397c0.136-0.021,0.244-0.227,0.378-0.362C37.186,16.791,37.208,16.015,36.549,15.656z
		 M56.99,40.735c0,0.368,0,0.682,0,1.003c0.279,0,0.521,0,0.729,0c0.246-0.183,0.371-0.382,0.291-0.754
		c-0.201-0.114-0.314-0.441-0.673-0.551C57.23,40.526,57.126,40.617,56.99,40.735z M28.021,42.503
		c-0.263-0.142-0.455-0.122-0.671,0.002c0.14,0.141,0.237,0.237,0.335,0.335C27.782,42.742,27.879,42.646,28.021,42.503z"/>
	
	
	
	
	
	
	
	
</g>
</svg>
