<svg xmlns="http://www.w3.org/2000/svg" xml:space="preserve" width="72px" height="72px" viewBox="0 0 72 72">
    <path fill="currentColor" d="M17.856 44.239c0-.601-.003-1.177.001-1.752.003-.414-.01-.812.202-1.213.373-.709.277-1.458-.11-2.381.006.005-.134-.201-.322-.265-.913-.307-1.403-1.006-1.811-1.813-.093-.184-.288-.316-.417-.452-1.586.347-2.908 1.134-4.03 2.126H10.32v-1.322c.27-.4.573-.813.832-1.251.131-.221.227-.434.528-.421.334.015.572-.209.814-.375a6.1 6.1 0 0 1 2.109-.9c.258-.059.439-.145.636-.306.323-.264.705-.422 1.112-.361l.835-.885v-.616c-.933-.5-1.836-.919-2.983-.469-.783.308-1.612.646-2.537.408l-.629-.372c-.043-.103-.087-.164-.091-.226-.043-.693.264-1.169.898-1.445.185-.081.381-.121.528-.299.402-.49.98-.58 1.57-.634.584-.054 1.2.17 1.751-.207.074-.051.239-.049.315 0 .524.337 1.023.318 1.562.008.16-.093.417-.014.636-.014.347-.481.646-.965.752-1.572l-.944-.804c-.583 0-1.408-.152-2.149.033-1.382.345-2.759.05-4.139.213l-.79-.911c-.106-.656.28-1.167.968-1.478.393-.178.803-.391 1.219-.425.481-.04.719-.458 1.199-.543.561-.1 1.058-.135 1.612-.011.904.204 1.827.126 2.741.023.085-.009.128-.177.264-.14.801.447 1.666.102 2.474.18.446-.061.645-.489 1.051-.626a4 4 0 0 1 1.535-.203c.352.022.702.024.989-.218.581-.489 1.348-.384 2.009-.624.326-.119.635-.219.915-.451h1.797c.982.401 1.312 1.334 2.079 1.914h.882c.309-.115.251-.483.446-.672-.121-1.127-.832-1.897-1.644-2.621.111-.366-.343-.65-.208-.966.175-.404.046-.901.232-1.191.342-.535.011-1.054.166-1.379-.3-1.149-1.188-1.366-1.995-1.534-.589-.124-1.03-.351-1.433-.777v-.689l.709-.505c-.112.007-.009-.005.095-.005q.971-.002 1.943-.001c1.217 0 1.217 0 2.116.854h1.072l.711-.711c-.036-.56.395-.922.692-1.306.463-.6 1.09-1.053 1.375-1.814.184-.493.772-.569 1.214-.671.603-.14 1.052-.61 1.692-.617.246-.021.432.198.754.179 1.234-.075 2.352.27 3.344 1.046.189.147.415.206.475.479.021.093.1.18.171.251 1.179 1.188 1.18 1.188 1.664 2.532.187.516.433 1.03.313 1.594-.103.48.448.829.188 1.282l.575.573c.82.012 1.617.011 2.425.39.503.235 1.203.043 1.899.043.156.43.779.354.997.892.124.307.176.584.188.963l-.675.515c.106-.021.04.008-.025.003-.798-.063-1.62.17-2.396-.208-.326-.158-.627.093-.871.228-1.019.56-1.843 1.281-1.635 2.632-.4.44-.434 1.039-.743 1.613-.817.393-1.722.779-2.763.201-.505.502-.995.96-1.068 1.699.358.134.614.357 1.002.334.438-.025.69.408 1.023.624.613.396 1.012 1.058 1.665 1.455.303.183.421.669.652 1.071 0 .12.009.298-.001.474-.045.683.171 1.229.551 1.833.543.866 1.137 1.817.95 2.938a9.5 9.5 0 0 1-.533 1.937c-.139.349-.01.77-.31.899-.028.421.204.496.36.646.211-.088.45-.143.635-.275.229-.167.428-.387.614-.604a4.35 4.35 0 0 1 1.657-1.215c.777-.321 1.083-.904 1.046-1.713-.011-.214-.001-.429-.001-.63-.197-.215-.379-.396-.484-.682-.423-1.146-1.149-2.122-1.796-3.148-.402-.639-.804-1.344-.734-2.258l.706-.481h.445c.025.017.088.047.138.092.944.864 1.606 1.989 2.597 2.812.84 1.513 2.24 2.529 3.34 3.809.428.498.823.98 1.373 1.356.58.396.792 1.111 1.214 1.655.541.697.9 1.529 1.539 2.166.141.14.228.363.28.527.258.801.665 1.526 1.012 2.284.192.419.14.91.447 1.332.25.342.045.848.257 1.293.193.405-.111.858-.486 1.205h-1.336c-.217-.197-.435-.541-.837-.624-.575 0-1.153-.036-1.725.007-1.215.092-2.208-.4-3.082-1.157-.295-.256-.631-.396-1.009-.617-.249.359-.568.645-.842 1.016a4.4 4.4 0 0 1-2.332 1.613c-.828.242-1.531.712-2.178 1.247-.554.457-1.028 1.008-1.537 1.516a1.53 1.53 0 0 1-1.374-.227c-.314-.224-.593-.184-.886-.095-.588.174-1.159.411-1.791.37-.071-.005-.16-.029-.213.003-.964.586-1.922.279-2.887.003-.158-.046-.342-.007-.567-.007q1.012 1.516 1.899 2.849c.263.81-.324 1.485-.17 2.149.32.612.613 1.145 1.058 1.599.318.326.271.838.246 1.136-.34.927-.948 1.533-1.198 2.371-.112.377-.008.744-.171 1.111-.263.6-.526 1.18-1.002 1.626-.129.771.326 1.253.847 1.724-.181.646.729 1.291-.086 1.959-.323.289-.785.354-1.284.336-.298-.012-.651-.149-.891.193-.024.035-.146.032-.205.007-.451-.196-.919-.356-1.387-.122-.517.259-1.047.082-1.569.118-.501.035-1.01.036-1.511.001a10.4 10.4 0 0 1-2.212-.386c-.421-.126-.874-.142-1.306-.216-1.173-.204-2.327-.509-3.504-.688-.068-.01-.159.012-.204-.025-.819-.668-1.998-.646-2.757-1.439-.129-.135-.357-.171-.534-.265-.622-.329-1.275-.583-1.859-1.009-.316-.23-.719-.463-1.185-.521-.633-.077-1.005-.666-1.525-.985-.474-.289-.974-.581-1.256-1.17-.174-.363-.636-.67-1.037-.82-.338-.126-.478-.403-.675-.524-.264-.902.066-1.721.185-2.543.11-.755.68-1.366 1.047-2.109-.462-.708-.172-1.451.107-2.192.047-.124.094-.25.153-.368.607-1.214.607-1.213.603-2.349-.226-.152-.417-.118-.669.015-.289.15-.551.458-1.007.264l-.264-.273c.016-.072.014-.18.059-.263.347-.647.809-1.245 1.006-1.957.155-.551.552-.872.882-1.24M39.765 23.1c-.399-.024-.179-.462-.484-.567-.606-.021-1.016.668-1.705.384-.471-.291-.687-1.04-1.415-1.05l-.564.564v.78c.376.399.806.351 1.19.46.376.108.708.372 1.062.57.364-.455.944-.002 1.231-.181.406-.287.397-.642.685-.96m-6.14 22.671c.672.344 1.459.516 2.046.988.624.502 1.418.594 2.05 1.037a.34.34 0 0 0 .396-.053c-.908-1.054-1.041-1.137-2.821-2.054-.55-.282-1.096-.303-1.671-.214zm7.362-26.907h1.769c.439-.29.686-.686.813-1.199l-.371-.294h-.836l-1.374.899zm-4.075 16.257c.252-.23.234-.512.114-.624-.361-.335-.494-.831-.886-1.146-.297-.238-.616-.52-.766-.854-.221-.489-.646-.498-1.194-.82.761 1.48 1.403 2.74 2.732 3.444m3.504 3.177c.688.009 1.223.482 1.903.451.684-.033 1.157-.401 1.797-.845h-1.332c-.371.319-.798.496-1.302.365-.541-.476-.943-1.13-1.697-1.272-.18.204-.084.388-.099.503zm-3.867-22.642-.721.677v1.033c.47.16.865.476 1.364.397.136-.021.244-.227.378-.362-.384-.61-.362-1.386-1.021-1.745M56.99 40.735v1.003h.729c.246-.183.371-.382.291-.754-.201-.114-.314-.441-.673-.551zm-28.969 1.768c-.263-.142-.455-.122-.671.002l.335.335z"/>
</svg>
