<svg xmlns="http://www.w3.org/2000/svg" xml:space="preserve" width="72px" height="72px" viewBox="0 0 72 72">
    <path fill="currentColor" d="M50.904 50.877c-.287.469-.458.912-.992 1.087-.274.09-.556.395-.677.671-.254.587-.71.911-1.308 1.211h-3.856l-.584-.724c-.128-.257.372-.627.29-1.081a7.4 7.4 0 0 1 2.342-1.849h1.206c.649-.585 1.11-1.317 1.607-2.036.092-.851.102-1.683-.768-2.293-.19-.083-.468.077-.746-.11a3.8 3.8 0 0 0-1.18-.525c-.811-.207-1.412-.64-1.822-1.369-.118-.21-.311-.392-.5-.546-.616-.501-.979-1.131-1.002-1.837-.013-.396-.029-.794.003-1.188.059-.714-.322-1.204-.824-1.599-.506-.397-1.077-.623-1.691-.169-.959-.012-1.651.627-2.334 1.118-1.036.742-2.101 1.137-3.358 1.043-.107-.009-.215-.002-.368-.002-.681.834-.647 2.03-1.364 2.927-.024.608.097 1.284-.168 1.952l-.718.608c.161.399-.085.721-.247.897-.743.816-.861 1.777-.808 2.782a22 22 0 0 0-3.485 3.412c-.213.263-.547.575-1.009.612-.343.028-.673.442-1.013-.01-.441.145-.783-.267-1.204-.22-.405.045-.768.219-1.139.377-.185.078-.415.051-.646.072l-.779-.903v-.976c.557-.396.962-1.009 1.222-1.679.17-.438.563-.62.771-1.009.81.087 1.63-.17 2.398.227 1.481-.436 1.705-1.457 1.833-2.533.094-.784.175-1.554.417-2.314.13-.411-.07-.966.27-1.283.364-.339-.026-.878.415-1.136-.053-.724.166-1.479-.295-2.199h-.916c-.495.655-.234 1.455-.313 2.249l-.789.731c-.295.007-.596.014-.917-.27-.427-.378-.946-.664-1.423-.988-.357-.244-.79-.357-1.33-.063-.923.502-1.994.517-3.044.473-.231-.01-.313-.305-.558-.226-.266-.601-.945-.312-1.369-.624-.182-.134-.638-.119-.82.021-.341.266-.683.111-1.006.176-.272.146-.528.31-.806.423-.677.279-1.324.612-1.755 1.218-.204.287-.595.24-.758.528-.174.309-.607.306-.747.646-.141.343-.478.514-.706.822h-1.167c-.488-.374-.636-1.072-1.314-1.458h-.732c-1.064-.702-.803-1.715-.836-2.641.142-.499.523-.814.864-1.159.101-.102.206-.201.305-.306.727-.764.745-1.067.111-2.1.047-1.604.283-3.156 1.7-4.223.218-.889-.207-1.492-.799-1.985-.069-.583-.389-1.096-.18-1.763.104-.166.155-.49.463-.716h.917l1.01 1.01h.93c.683-.485.905-1.315 1.126-2.072.213-.727.604-1.296 1.072-1.823.507-.57 1.093-1.06 1.218-1.878.053-.349.405-.545.547-.851.25-.544.47-1.101.72-1.695l.927-.459c.363.295.999.364.972 1.013.321.053.558.059.733-.184.083-.115.256-.188.293-.31.439-1.425 1.367-2.6 2.113-3.992.604-.246 1.343-.486 2.154-.469l.371-1.246c.19-.271.53-.294.771-.471.563.167.932.521 1.104 1.147-.476.721-1.247.81-2.058.802-.435.686-.454 1.534-.897 2.226-.148.232-.063.614-.088.958.534.163.901-.117 1.217-.405.609-.559 1.173-1.168 1.765-1.748.335-.328.478-.734.533-1.184.598-.421 1.281-.25 2.047-.287l.327.602c.278.658-.062 1.345-.243 2.087a.613.613 0 0 0 .873.318c.962-.551 2.111-.79 2.878-1.694h.843c.531.201.543.761.757 1.17.158.303.041.677-.181.974-.394.53-.26 1.078.112 1.497.852.959 1.783 1.841 3.084 2.182.095.024.21.055.27.124.338.384.804.518 1.266.596.874.148 1.524.703 2.211 1.173.385.264.796.408 1.212.46.561.071 1.234.175 1.686-.063.506-.267 1.062.128 1.508-.311.124-.122.499-.024.787.075.797.273 1.593.619 2.452.575.641.104.844.806 1.438.988.51.156.99.409 1.616.521.595.709 1.447 1.216 2.429 1.69.814-.083 1.674.148 2.588.41.866-.333 1.534-.108 2.426.882-.161.434-.313.893-.247 1.392.053.395.201.8.533.952.875.403 1.564 1.07 2.38 1.552.527.312.64.883.747 1.41.094.469-.202.85-.524 1.177-.176.181-.354.357-.488.491-.235.589.216 1.044.167 1.592.632.406.913 1.134 1.441 1.656.33.327.336.819.261 1.353-.261.829-1.235 1.137-1.705 2.012 0 .355-.021.82.006 1.283.03.531-.215 1-.312 1.5-.043.221-.132.551-.431.68-.808.352-1.463.872-1.887 1.664-.065.122-.186.216-.22.253-.529.149-.925-.019-1.241-.278-.397-.326-.832-.683-.871-1.247-.022-.319-.231-.551-.271-.877-.04-.318-.257-.753-.627-.907-.942-.39-1.037-1.185-1.059-2.034-.002-.107 0-.217 0-.34l-.595-.557c-.023-.107-.052-.173-.052-.239-.003-.971.053-1.947-.019-2.914-.057-.753.227-1.444.242-2.18.01-.438-.096-.835-.369-1.142-.345-.385-.382-.855-.596-1.467-.259-.268-.583-.726-1.245-.851-.206.116-.562.169-.803.486v1.903c-.824.986-1.479 2.086-2.336 3.039-.302.337-.348.819-.241 1.384l.52.393c.422.229.786-.056 1.191-.23.519-.223.968-.682 1.628-.508.212.212.441.442.701.7v1.25c-.22.609-.582 1.047-.658 1.661-.043.349-.129.784-.461 1.104-.292.279-.392.697-.372 1.137.028.629-.205 1.225-.576 1.694-.397.502-.548 1.02-.494 1.544M12.507 40.542c-.789-.274-1.202.21-1.596.535-.442.366-.522.943-.305 1.577.989-.385 1.675-1.002 1.901-2.112m23.709-4.694v-.911l-.639-.888c-.167.312-.402.35-.609.432l-.263.614.555 1.049c.504-.009.502-.018.956-.296m-25.188.472c.5-.05.24.336.419.442.402.157.649-.185.998-.263-.003-.334.077-.68-.053-1.001h-.697c-.378.112-.228.595-.667.822"/>
</svg>
