<?xml version="1.0" encoding="iso-8859-1"?>
<!-- Generator: Adobe Illustrator 16.0.0, SVG Export Plug-In . SVG Version: 6.00 Build 0)  -->
<!DOCTYPE svg PUBLIC "-//W3C//DTD SVG 1.1//EN" "http://www.w3.org/Graphics/SVG/1.1/DTD/svg11.dtd">
<svg version="1.1" id="Layer_1" xmlns="http://www.w3.org/2000/svg" xmlns:xlink="http://www.w3.org/1999/xlink" x="0px" y="0px"
	 width="72.18px" height="70.921px" viewBox="0 0 72.18 70.921" style="enable-background:new 0 0 72.18 70.921;"
	 xml:space="preserve">
<g>
	<path style="fill-rule:evenodd;clip-rule:evenodd;fill:none;" d="M-6.983,78.048c0-28.297,0-56.591,0-84.887
		c28.799,0,57.599,0,86.399,0c0,28.296,0,56.59,0,84.887C50.616,78.048,21.816,78.048-6.983,78.048z M50.904,50.877
		c-0.054-0.524,0.098-1.042,0.496-1.545c0.371-0.47,0.604-1.065,0.576-1.694c-0.02-0.439,0.08-0.857,0.372-1.137
		c0.332-0.319,0.418-0.755,0.461-1.104c0.076-0.614,0.438-1.052,0.658-1.661c0-0.365,0-0.824,0-1.25
		c-0.26-0.258-0.489-0.488-0.701-0.7c-0.66-0.174-1.109,0.285-1.628,0.508c-0.405,0.175-0.77,0.459-1.191,0.23
		c-0.199-0.151-0.398-0.301-0.52-0.393c-0.106-0.564-0.061-1.047,0.241-1.384c0.857-0.953,1.512-2.053,2.336-3.039
		c0-0.646,0-1.288,0-1.903c0.241-0.316,0.597-0.37,0.803-0.486c0.662,0.125,0.986,0.583,1.245,0.851
		c0.214,0.612,0.251,1.083,0.596,1.467c0.273,0.307,0.379,0.703,0.369,1.142c-0.016,0.735-0.299,1.427-0.242,2.18
		c0.071,0.967,0.016,1.943,0.019,2.914c0,0.066,0.028,0.132,0.052,0.239c0.184,0.172,0.394,0.368,0.595,0.557
		c0,0.123-0.002,0.232,0,0.34c0.021,0.85,0.116,1.645,1.059,2.034c0.37,0.154,0.587,0.589,0.627,0.907
		c0.04,0.326,0.249,0.558,0.271,0.877c0.039,0.564,0.474,0.921,0.871,1.247c0.316,0.26,0.712,0.428,1.241,0.278
		c0.034-0.037,0.154-0.131,0.22-0.253c0.424-0.792,1.079-1.313,1.887-1.664c0.299-0.129,0.388-0.459,0.431-0.68
		c0.097-0.5,0.342-0.969,0.312-1.5c-0.027-0.463-0.006-0.928-0.006-1.283c0.47-0.875,1.444-1.183,1.705-2.012
		c0.075-0.533,0.069-1.025-0.261-1.353c-0.528-0.522-0.81-1.25-1.441-1.656c0.049-0.548-0.402-1.003-0.167-1.592
		c0.134-0.134,0.313-0.311,0.488-0.491c0.322-0.327,0.618-0.708,0.524-1.177c-0.107-0.527-0.22-1.099-0.747-1.41
		c-0.815-0.482-1.505-1.149-2.38-1.552c-0.332-0.152-0.48-0.557-0.533-0.952c-0.065-0.499,0.086-0.958,0.247-1.392
		c-0.892-0.991-1.56-1.216-2.426-0.882c-0.914-0.261-1.773-0.493-2.588-0.41c-0.981-0.474-1.834-0.981-2.429-1.69
		c-0.626-0.112-1.106-0.366-1.616-0.521c-0.595-0.182-0.798-0.884-1.438-0.988c-0.859,0.043-1.655-0.302-2.452-0.575
		c-0.288-0.099-0.663-0.197-0.787-0.075c-0.446,0.439-1.002,0.044-1.508,0.311c-0.451,0.239-1.125,0.134-1.686,0.063
		c-0.416-0.053-0.827-0.197-1.212-0.46c-0.687-0.47-1.337-1.025-2.211-1.173c-0.462-0.078-0.928-0.212-1.266-0.596
		c-0.06-0.069-0.175-0.099-0.27-0.124c-1.301-0.341-2.232-1.223-3.084-2.182c-0.372-0.419-0.505-0.966-0.112-1.497
		c0.221-0.297,0.339-0.671,0.181-0.974c-0.213-0.41-0.226-0.97-0.757-1.17c-0.282,0-0.567,0-0.843,0
		c-0.767,0.904-1.917,1.144-2.878,1.694c-0.272,0.156-0.715,0.087-0.873-0.318c0.181-0.742,0.521-1.43,0.243-2.087
		c-0.121-0.224-0.243-0.448-0.327-0.602c-0.766,0.037-1.449-0.134-2.047,0.287c-0.054,0.45-0.197,0.856-0.532,1.184
		c-0.591,0.58-1.155,1.188-1.765,1.748c-0.316,0.289-0.684,0.568-1.217,0.405c0.024-0.344-0.06-0.725,0.088-0.958
		c0.443-0.692,0.462-1.541,0.897-2.226c0.811,0.008,1.582-0.081,2.058-0.802c-0.171-0.627-0.541-0.981-1.104-1.147
		c-0.241,0.176-0.58,0.2-0.771,0.471c-0.124,0.416-0.248,0.833-0.371,1.246c-0.811-0.018-1.55,0.223-2.154,0.469
		c-0.746,1.393-1.673,2.567-2.113,3.992c-0.038,0.122-0.21,0.195-0.293,0.31c-0.176,0.243-0.412,0.237-0.733,0.184
		c0.026-0.649-0.609-0.718-0.972-1.013c-0.326,0.162-0.653,0.324-0.927,0.459c-0.25,0.594-0.47,1.151-0.72,1.695
		c-0.143,0.306-0.495,0.502-0.547,0.851c-0.125,0.818-0.711,1.308-1.218,1.878c-0.468,0.527-0.858,1.096-1.072,1.823
		c-0.221,0.757-0.443,1.587-1.126,2.072c-0.343,0-0.658,0-0.93,0c-0.369-0.368-0.7-0.7-1.01-1.01c-0.336,0-0.649,0-0.917,0
		c-0.308,0.226-0.358,0.551-0.463,0.716c-0.209,0.667,0.111,1.18,0.18,1.763c0.592,0.493,1.017,1.096,0.799,1.985
		c-1.417,1.066-1.653,2.618-1.7,4.223c0.634,1.032,0.616,1.336-0.111,2.1c-0.099,0.104-0.204,0.204-0.305,0.306
		c-0.341,0.345-0.723,0.66-0.864,1.159c0.033,0.926-0.228,1.939,0.835,2.643c0.22,0,0.534,0,0.732,0
		c0.678,0.386,0.826,1.084,1.314,1.458c0.409,0,0.795,0,1.167,0c0.228-0.309,0.564-0.479,0.706-0.822
		c0.14-0.34,0.573-0.337,0.747-0.646c0.163-0.288,0.554-0.241,0.758-0.528c0.431-0.605,1.079-0.938,1.755-1.218
		c0.277-0.113,0.533-0.277,0.806-0.423c0.323-0.064,0.665,0.09,1.006-0.176c0.182-0.14,0.638-0.154,0.82-0.021
		c0.423,0.313,1.103,0.023,1.369,0.624c0.245-0.079,0.327,0.216,0.558,0.226c1.05,0.044,2.121,0.029,3.044-0.473
		c0.54-0.294,0.973-0.181,1.33,0.063c0.478,0.324,0.996,0.61,1.423,0.988c0.321,0.283,0.622,0.276,0.917,0.27
		c0.291-0.271,0.554-0.514,0.789-0.731c0.08-0.794-0.181-1.594,0.313-2.249c0.335,0,0.651,0,0.916,0
		c0.461,0.72,0.242,1.476,0.295,2.199c-0.44,0.258-0.05,0.797-0.415,1.136c-0.34,0.317-0.139,0.872-0.27,1.283
		c-0.243,0.761-0.323,1.53-0.417,2.314c-0.128,1.076-0.352,2.098-1.833,2.533c-0.768-0.396-1.588-0.14-2.398-0.227
		c-0.208,0.389-0.601,0.571-0.771,1.009c-0.26,0.67-0.666,1.283-1.222,1.679c0,0.43,0,0.785,0,0.976
		c0.316,0.366,0.548,0.636,0.779,0.903c0.231-0.021,0.461,0.006,0.646-0.072c0.371-0.158,0.734-0.332,1.139-0.377
		c0.421-0.047,0.762,0.364,1.204,0.22c0.34,0.452,0.67,0.038,1.013,0.01c0.461-0.037,0.796-0.35,1.009-0.612
		c1.03-1.27,2.192-2.389,3.485-3.412c-0.054-1.005,0.064-1.966,0.808-2.782c0.161-0.177,0.408-0.498,0.247-0.897
		c0.229-0.194,0.474-0.402,0.718-0.608c0.265-0.668,0.144-1.344,0.168-1.952c0.717-0.896,0.684-2.093,1.364-2.927
		c0.153,0,0.261-0.007,0.368,0.002c1.258,0.094,2.322-0.301,3.358-1.043c0.683-0.491,1.375-1.13,2.334-1.118
		c0.614-0.454,1.186-0.229,1.691,0.169c0.502,0.395,0.883,0.885,0.824,1.599c-0.032,0.394-0.016,0.791-0.003,1.188
		c0.023,0.706,0.386,1.336,1.002,1.837c0.189,0.154,0.382,0.336,0.5,0.546c0.41,0.729,1.012,1.162,1.822,1.369
		c0.414,0.105,0.827,0.287,1.18,0.525c0.278,0.188,0.556,0.027,0.746,0.11c0.869,0.61,0.859,1.442,0.768,2.293
		c-0.497,0.719-0.958,1.451-1.607,2.036c-0.438,0-0.868,0-1.206,0c-0.957,0.48-1.702,1.099-2.342,1.849
		c0.082,0.454-0.418,0.824-0.29,1.081c0.301,0.372,0.457,0.566,0.584,0.724c1.352,0,2.645,0,3.856,0
		c0.598-0.3,1.054-0.624,1.308-1.211c0.121-0.276,0.402-0.581,0.677-0.671C50.446,51.789,50.617,51.346,50.904,50.877z
		 M61.125,31.646c0.215-0.213,0.39-0.39,0.545-0.544c0.182-0.524-0.23-0.918-0.229-1.414c-0.25,0-0.489,0-0.716,0
		c-0.369,0.276-0.591,0.652-0.768,1.116C60.221,31.189,60.621,31.422,61.125,31.646z M22.25,56.041
		c0.395-0.099,0.829,0.084,1.313-0.162c-0.227-0.347-0.453-0.578-0.608-0.692c-0.389-0.086-0.55,0.03-0.689,0.199
		C22.113,55.569,22.166,55.765,22.25,56.041z M40.801,41.523c-0.114-0.458-0.263-0.704-0.733-0.56
		C40.156,41.332,40.28,41.576,40.801,41.523z"/>
	<path style="fill-rule:evenodd;clip-rule:evenodd;" d="M50.904,50.877c-0.287,0.469-0.458,0.912-0.992,1.087
		c-0.274,0.09-0.556,0.395-0.677,0.671c-0.254,0.587-0.71,0.911-1.308,1.211c-1.212,0-2.505,0-3.856,0
		c-0.127-0.157-0.283-0.352-0.584-0.724c-0.128-0.257,0.372-0.627,0.29-1.081c0.64-0.75,1.385-1.368,2.342-1.849
		c0.338,0,0.769,0,1.206,0c0.649-0.585,1.11-1.317,1.607-2.036c0.092-0.851,0.102-1.683-0.768-2.293
		c-0.19-0.083-0.468,0.077-0.746-0.11c-0.353-0.238-0.766-0.42-1.18-0.525c-0.811-0.207-1.412-0.64-1.822-1.369
		c-0.118-0.21-0.311-0.392-0.5-0.546c-0.616-0.501-0.979-1.131-1.002-1.837c-0.013-0.396-0.029-0.794,0.003-1.188
		c0.059-0.714-0.322-1.204-0.824-1.599c-0.506-0.397-1.077-0.623-1.691-0.169c-0.959-0.012-1.651,0.627-2.334,1.118
		c-1.036,0.742-2.101,1.137-3.358,1.043c-0.107-0.009-0.215-0.002-0.368-0.002c-0.681,0.834-0.647,2.03-1.364,2.927
		c-0.024,0.608,0.097,1.284-0.168,1.952c-0.244,0.206-0.489,0.414-0.718,0.608c0.161,0.399-0.085,0.721-0.247,0.897
		c-0.743,0.816-0.861,1.777-0.808,2.782c-1.293,1.023-2.455,2.143-3.485,3.412c-0.213,0.263-0.547,0.575-1.009,0.612
		c-0.343,0.028-0.673,0.442-1.013-0.01c-0.441,0.145-0.783-0.267-1.204-0.22c-0.405,0.045-0.768,0.219-1.139,0.377
		c-0.185,0.078-0.415,0.051-0.646,0.072c-0.231-0.268-0.463-0.537-0.779-0.903c0-0.19,0-0.546,0-0.976
		c0.557-0.396,0.962-1.009,1.222-1.679c0.17-0.438,0.563-0.62,0.771-1.009c0.81,0.087,1.63-0.17,2.398,0.227
		c1.481-0.436,1.705-1.457,1.833-2.533c0.094-0.784,0.175-1.554,0.417-2.314c0.13-0.411-0.07-0.966,0.27-1.283
		c0.364-0.339-0.026-0.878,0.415-1.136c-0.053-0.724,0.166-1.479-0.295-2.199c-0.265,0-0.58,0-0.916,0
		c-0.495,0.655-0.234,1.455-0.313,2.249c-0.235,0.218-0.498,0.46-0.789,0.731c-0.295,0.007-0.596,0.014-0.917-0.27
		c-0.427-0.378-0.946-0.664-1.423-0.988c-0.357-0.244-0.79-0.357-1.33-0.063c-0.923,0.502-1.994,0.517-3.044,0.473
		c-0.231-0.01-0.313-0.305-0.558-0.226c-0.266-0.601-0.945-0.312-1.369-0.624c-0.182-0.134-0.638-0.119-0.82,0.021
		c-0.341,0.266-0.683,0.111-1.006,0.176c-0.272,0.146-0.528,0.31-0.806,0.423c-0.677,0.279-1.324,0.612-1.755,1.218
		c-0.204,0.287-0.595,0.24-0.758,0.528c-0.174,0.309-0.607,0.306-0.747,0.646c-0.141,0.343-0.478,0.514-0.706,0.822
		c-0.371,0-0.757,0-1.167,0c-0.488-0.374-0.636-1.072-1.314-1.458c-0.198,0-0.512,0-0.732,0C7.259,43.239,7.52,42.226,7.487,41.3
		c0.142-0.499,0.523-0.814,0.864-1.159c0.101-0.102,0.206-0.201,0.305-0.306c0.727-0.764,0.745-1.067,0.111-2.1
		c0.047-1.604,0.283-3.156,1.7-4.223c0.218-0.889-0.207-1.492-0.799-1.985c-0.069-0.583-0.389-1.096-0.18-1.763
		c0.104-0.166,0.155-0.49,0.463-0.716c0.268,0,0.581,0,0.917,0c0.31,0.31,0.641,0.642,1.01,1.01c0.271,0,0.587,0,0.93,0
		c0.683-0.485,0.905-1.315,1.126-2.072c0.213-0.727,0.604-1.296,1.072-1.823c0.507-0.57,1.093-1.06,1.218-1.878
		c0.053-0.349,0.405-0.545,0.547-0.851c0.25-0.544,0.47-1.101,0.72-1.695c0.274-0.135,0.601-0.297,0.927-0.459
		c0.363,0.295,0.999,0.364,0.972,1.013c0.321,0.053,0.558,0.059,0.733-0.184c0.083-0.115,0.256-0.188,0.293-0.31
		c0.439-1.425,1.367-2.6,2.113-3.992c0.604-0.246,1.343-0.486,2.154-0.469c0.124-0.413,0.247-0.83,0.371-1.246
		c0.19-0.271,0.53-0.294,0.771-0.471c0.563,0.167,0.932,0.521,1.104,1.147c-0.476,0.721-1.247,0.81-2.058,0.802
		c-0.435,0.686-0.454,1.534-0.897,2.226c-0.148,0.232-0.063,0.614-0.088,0.958c0.534,0.163,0.901-0.117,1.217-0.405
		c0.609-0.559,1.173-1.168,1.765-1.748c0.335-0.328,0.478-0.734,0.533-1.184c0.598-0.421,1.281-0.25,2.047-0.287
		c0.084,0.154,0.206,0.378,0.327,0.602c0.278,0.658-0.062,1.345-0.243,2.087c0.158,0.405,0.601,0.474,0.873,0.318
		c0.962-0.551,2.111-0.79,2.878-1.694c0.276,0,0.561,0,0.843,0c0.531,0.201,0.543,0.761,0.757,1.17
		c0.158,0.303,0.041,0.677-0.181,0.974c-0.394,0.53-0.26,1.078,0.112,1.497c0.852,0.959,1.783,1.841,3.084,2.182
		c0.095,0.024,0.21,0.055,0.27,0.124c0.338,0.384,0.804,0.518,1.266,0.596c0.874,0.148,1.524,0.703,2.211,1.173
		c0.385,0.264,0.796,0.408,1.212,0.46c0.561,0.071,1.234,0.175,1.686-0.063c0.506-0.267,1.062,0.128,1.508-0.311
		c0.124-0.122,0.499-0.024,0.787,0.075c0.797,0.273,1.593,0.619,2.452,0.575c0.641,0.104,0.844,0.806,1.438,0.988
		c0.51,0.156,0.99,0.409,1.616,0.521c0.595,0.709,1.447,1.216,2.429,1.69c0.814-0.083,1.674,0.148,2.588,0.41
		c0.866-0.333,1.534-0.108,2.426,0.882c-0.161,0.434-0.313,0.893-0.247,1.392c0.053,0.395,0.201,0.8,0.533,0.952
		c0.875,0.403,1.564,1.07,2.38,1.552c0.527,0.312,0.64,0.883,0.747,1.41c0.094,0.469-0.202,0.85-0.524,1.177
		c-0.176,0.181-0.354,0.357-0.488,0.491c-0.235,0.589,0.216,1.044,0.167,1.592c0.632,0.406,0.913,1.134,1.441,1.656
		c0.33,0.327,0.336,0.819,0.261,1.353c-0.261,0.829-1.235,1.137-1.705,2.012c0,0.355-0.021,0.82,0.006,1.283
		c0.03,0.531-0.215,1-0.312,1.5c-0.043,0.221-0.132,0.551-0.431,0.68c-0.808,0.352-1.463,0.872-1.887,1.664
		c-0.065,0.122-0.186,0.216-0.22,0.253c-0.529,0.149-0.925-0.019-1.241-0.278c-0.397-0.326-0.832-0.683-0.871-1.247
		c-0.022-0.319-0.231-0.551-0.271-0.877c-0.04-0.318-0.257-0.753-0.627-0.907c-0.942-0.39-1.037-1.185-1.059-2.034
		c-0.002-0.107,0-0.217,0-0.34c-0.201-0.188-0.411-0.385-0.595-0.557c-0.023-0.107-0.052-0.173-0.052-0.239
		c-0.003-0.971,0.053-1.947-0.019-2.914c-0.057-0.753,0.227-1.444,0.242-2.18c0.01-0.438-0.096-0.835-0.369-1.142
		c-0.345-0.385-0.382-0.855-0.596-1.467c-0.259-0.268-0.583-0.726-1.245-0.851c-0.206,0.116-0.562,0.169-0.803,0.486
		c0,0.615,0,1.257,0,1.903c-0.824,0.986-1.479,2.086-2.336,3.039c-0.302,0.337-0.348,0.819-0.241,1.384
		c0.121,0.092,0.32,0.241,0.52,0.393c0.422,0.229,0.786-0.056,1.191-0.23c0.519-0.223,0.968-0.682,1.628-0.508
		c0.212,0.212,0.441,0.442,0.701,0.7c0,0.426,0,0.885,0,1.25c-0.22,0.609-0.582,1.047-0.658,1.661
		c-0.043,0.349-0.129,0.784-0.461,1.104c-0.292,0.279-0.392,0.697-0.372,1.137c0.028,0.629-0.205,1.225-0.576,1.694
		C51.001,49.835,50.85,50.353,50.904,50.877z M12.507,40.542c-0.789-0.274-1.202,0.21-1.596,0.535
		c-0.442,0.366-0.522,0.943-0.305,1.577C11.595,42.269,12.281,41.652,12.507,40.542z M36.216,35.848c0-0.388,0-0.745,0-0.911
		c-0.243-0.338-0.407-0.565-0.639-0.888c-0.167,0.312-0.402,0.35-0.609,0.432c-0.093,0.218-0.184,0.429-0.263,0.614
		c0.195,0.369,0.378,0.715,0.555,1.049C35.764,36.135,35.762,36.126,36.216,35.848z M11.028,36.32c0.5-0.05,0.24,0.336,0.419,0.442
		c0.402,0.157,0.649-0.185,0.998-0.263c-0.003-0.334,0.077-0.68-0.053-1.001c-0.268,0-0.482,0-0.697,0
		C11.317,35.61,11.467,36.093,11.028,36.32z"/>
	<path style="fill-rule:evenodd;clip-rule:evenodd;fill:none;" d="M12.507,40.542c-0.226,1.11-0.912,1.727-1.901,2.112
		c-0.217-0.634-0.137-1.211,0.305-1.577C11.305,40.752,11.718,40.268,12.507,40.542z"/>
	<path style="fill-rule:evenodd;clip-rule:evenodd;fill:none;" d="M36.216,35.848c-0.454,0.278-0.452,0.287-0.956,0.296
		c-0.177-0.334-0.36-0.68-0.555-1.049c0.079-0.185,0.17-0.396,0.263-0.614c0.207-0.082,0.442-0.12,0.609-0.432
		c0.232,0.322,0.396,0.55,0.639,0.888C36.216,35.103,36.216,35.459,36.216,35.848z"/>
	<path style="fill-rule:evenodd;clip-rule:evenodd;fill:none;" d="M11.028,36.32c0.439-0.227,0.289-0.71,0.667-0.821
		c0.215,0,0.43,0,0.697,0c0.13,0.321,0.05,0.667,0.053,1.001c-0.349,0.078-0.596,0.42-0.998,0.263
		C11.268,36.656,11.528,36.271,11.028,36.32z"/>
</g>
</svg>
