<?xml version="1.0" encoding="iso-8859-1"?>
<!-- Generator: Adobe Illustrator 16.0.0, SVG Export Plug-In . SVG Version: 6.00 Build 0)  -->
<!DOCTYPE svg PUBLIC "-//W3C//DTD SVG 1.1//EN" "http://www.w3.org/Graphics/SVG/1.1/DTD/svg11.dtd">
<svg version="1.1" id="Layer_1" xmlns="http://www.w3.org/2000/svg" xmlns:xlink="http://www.w3.org/1999/xlink" x="0px" y="0px"
	 width="72.36px" height="72.18px" viewBox="0 0 72.36 72.18" style="enable-background:new 0 0 72.36 72.18;" xml:space="preserve"
	>
<g>
	<path style="fill-rule:evenodd;clip-rule:evenodd;fill:none;" d="M-6.984,79.631c0-28.871,0-57.743,0-86.615
		c28.8,0,57.6,0,86.399,0c0,28.872,0,57.744,0,86.615C50.616,79.631,21.816,79.631-6.984,79.631z M17.185,29.003
		c-0.489,0.415-0.817,1.008-0.592,1.63c0.195,0.537,0.251,0.962-0.021,1.458c-0.07,0.129,0.042,0.318,0.101,0.486
		c0.132,0.374,0.495,0.798,0.282,1.143c-0.22,0.355-0.162,0.676-0.171,1.012c-0.022,0.827-0.006,1.655-0.008,2.483
		c0,0.213,0.063,0.471-0.031,0.632c-0.403,0.686-0.178,1.349,0.047,1.991c0.129,0.372,0.405,0.692,0.565,0.953
		c-0.082,0.434-0.33,0.717-0.58,0.941c0,2.001-0.009,3.944,0.007,5.887c0.004,0.515-0.119,1.04,0.191,1.541
		c0.112,0.183,0.123,0.582-0.002,0.729c-0.366,0.428-0.101,0.896-0.21,1.304c0.139,0.233,0.436,0.311,0.454,0.676
		c-0.034,0.314-0.254,0.618-0.455,0.962c0.177,0.759-0.246,1.475-0.233,2.261c0.012,0.744,0.477,1.489,0.212,2.163
		c-0.311,0.793,0.249,1.471,0.063,2.036c0.19,0.723,0.67,0.98,1.116,1.31c1.308,0.969,2.643,1.895,4.124,2.567
		c0.764,0.348,1.382,0.962,2.218,1.16c0.881,0.84,2.042,0.986,3.147,1.262c0.915,0.228,1.858,0.37,2.745,0.678
		c0.444,0.154,0.948,0.104,1.342,0.404c1.095-0.07,2.173,0.095,3.258,0.208c1.307,0.136,2.605-0.198,3.903-0.178
		c0.998,0.016,1.944-0.337,2.935-0.249c0.062,0.006,0.132-0.027,0.19-0.056c0.642-0.313,1.357-0.373,2.032-0.558
		c0.744-0.204,1.491-0.376,2.208-0.674c0.736-0.307,1.51-0.503,2.246-0.836c0.611-0.276,1.174-0.634,1.784-0.902
		c0.609-0.268,1.201-0.576,1.804-0.858c0.647-0.303,1.058-0.979,1.798-1.136c0.059-0.013,0.118-0.089,0.151-0.149
		c0.25-0.456,0.667-0.684,1.111-0.92c0.289-0.153,0.518-0.447,0.626-0.807c0.208-0.691,0.189-1.36-0.102-2.021
		c0.427-0.892,0.385-0.896,0.44-1.548c0.126-1.459-0.294-2.883-0.231-4.323c-0.212-0.284-0.562-0.448-0.691-0.864
		c0.256-0.205,0.506-0.406,0.698-0.562c0-1.614,0.006-3.126-0.005-4.637c-0.002-0.27,0.107-0.562-0.146-0.808
		c-0.078-0.075-0.112-0.306-0.055-0.392c0.37-0.557,0.114-1.175,0.213-1.752c0.098-0.565-0.343-1.109-0.15-1.609
		c0.219-0.569,0.094-1.115,0.134-1.668c0.039-0.529,0.009-1.064,0.009-1.629c-0.228-0.19-0.441-0.37-0.655-0.549
		c0.231-0.231,0.435-0.435,0.665-0.666c-0.101-0.588,0.177-1.235-0.215-1.827c-0.053-0.08-0.068-0.272,0.06-0.396
		c0.46-0.445,0.357-1.025,0.36-1.576c0.005-1.152,0.001-2.303,0.001-3.455c0-0.216,0.087-0.496-0.016-0.636
		c-0.333-0.45,0.011-1.055-0.261-1.398c-0.434-0.546,0.25-0.908,0.066-1.371c-0.129-0.325,0.228-0.542,0.224-0.88
		c-0.024-2.519,0-5.038-0.026-7.557c-0.005-0.428-0.177-0.856-0.293-1.278c-0.024-0.09-0.145-0.155-0.228-0.238
		c-0.424,0-0.854,0-1.168,0c-0.283,0.22-0.505,0.392-0.703,0.545c0,0.278,0,0.486,0,0.678c-0.447,0.236-0.809-0.065-1.145-0.165
		c-1.139,1.139-1.143,1.138-1.414,2.619c-0.038,0.206-0.228,0.262-0.3,0.387c-1.124,0-2.229,0-3.372,0c0-0.705,0-1.379,0-2.096
		c-0.771-0.537-1.581-1.042-1.957-1.9c-0.951-0.291-1.85-0.508-2.787,0.001c-0.511,1.288-0.039,2.694-0.291,4.027
		c-1.129,0-2.209,0-3.288-0.001c-0.102-0.102-0.203-0.204-0.343-0.343c0-1.14,0-2.317,0-3.441c-0.229-0.317-0.561-0.36-0.772-0.507
		c-1.583-0.198-2.853,0.38-3.98,1.38c0,0.315,0.099,0.654-0.022,0.873c-0.212,0.384-0.201,0.665-0.004,1.052
		c0.154,0.302,0.13,0.697-0.279,0.977c-0.985,0.067-2.042-0.127-2.995,0.236c-0.324-0.236-0.374-0.55-0.43-0.789
		c0.082-0.585,0.046-1.181,0.09-1.771c0.045-0.605-0.105-1.162-0.281-1.703c-0.756-0.479-1.586-0.228-2.38-0.267
		c-0.174-0.008-0.49,0.143-0.511,0.261c-0.083,0.465-0.477,0.547-0.776,0.743c-0.339,0.223-0.368,0.672-0.686,0.906
		c-0.23-0.081-0.287-0.402-0.61-0.414c-0.165,0.013-0.229,0.213-0.368,0.313c-0.166,0.118-0.246,0.379-0.508,0.333
		c-0.313-0.055-0.511,0.153-0.563,0.369c-0.053,0.221-0.086,0.443-0.163,0.571c0.17,0.219,0.322,0.416,0.475,0.613
		c0.39,0.226,0.515-0.325,0.821-0.253c0.165,0.151,0.44,0.244,0.331,0.57c-0.227,0.157-0.483,0.053-0.724,0.074
		c-0.62,0.055-1.257-0.126-1.86,0.207c-0.263,0.146-0.449-0.121-0.657-0.344c0-0.345,0-0.732,0-1.092
		c-0.602-0.552-1.19-1.068-1.061-1.84c-0.393-0.64-0.941-0.846-1.524-1.019c-0.629,0.391-1.357,0.109-2.029,0.216
		c-0.187,0.179-0.368,0.353-0.559,0.537c-0.005,0.708,0.265,1.32,0.745,1.875c-0.581,0.461-0.783,1.012-0.736,1.688
		c0.049,0.693-0.013,1.381,0.202,2.076c0.211,0.679-0.167,1.371-0.188,2.063c-0.028,0.899,0.019,1.8-0.015,2.699
		C16.523,27.653,16.803,28.325,17.185,29.003z M62.024,31.463c-0.174,0.248-0.521,0.37-0.553,0.723
		c0.437,0.357,0.796,0.574,0.848,0.574c0.278-0.209,0.501-0.376,0.691-0.518c-0.08-0.544-0.08-0.544-0.343-0.778
		C62.49,31.463,62.312,31.463,62.024,31.463z M59.892,32.298c-0.789,0.204-0.789,0.204-0.734,1.294c0.31,0,0.624,0,0.962,0
		c0.228-0.162,0.363-0.394,0.165-0.594C60.144,32.747,60.002,32.495,59.892,32.298z M31.587,14.154
		c-0.516,0.066-0.874-0.047-1.239,0.132C30.847,15.031,31.001,15.031,31.587,14.154z"/>
	<path style="fill-rule:evenodd;clip-rule:evenodd;" d="M17.185,29.003c-0.381-0.678-0.662-1.35-0.632-2.14
		c0.034-0.898-0.013-1.8,0.015-2.699c0.021-0.692,0.399-1.384,0.188-2.063c-0.215-0.694-0.153-1.382-0.202-2.076
		c-0.047-0.676,0.155-1.227,0.736-1.688c-0.48-0.555-0.75-1.167-0.745-1.875c0.191-0.184,0.373-0.357,0.559-0.537
		c0.672-0.107,1.399,0.175,2.029-0.216c0.583,0.173,1.131,0.379,1.524,1.019c-0.13,0.772,0.458,1.288,1.061,1.84
		c0,0.36,0,0.747,0,1.092c0.208,0.223,0.394,0.49,0.657,0.344c0.603-0.333,1.24-0.151,1.86-0.207
		c0.241-0.021,0.497,0.083,0.724-0.074c0.109-0.326-0.166-0.419-0.331-0.57c-0.307-0.072-0.431,0.479-0.821,0.253
		c-0.153-0.197-0.305-0.394-0.475-0.613c0.077-0.128,0.11-0.35,0.163-0.571c0.052-0.216,0.25-0.424,0.563-0.369
		c0.262,0.045,0.343-0.215,0.508-0.333c0.14-0.1,0.203-0.3,0.368-0.313c0.324,0.012,0.38,0.333,0.611,0.414
		c0.317-0.234,0.346-0.683,0.685-0.906c0.299-0.196,0.693-0.278,0.776-0.743c0.021-0.118,0.337-0.269,0.511-0.261
		c0.794,0.039,1.625-0.212,2.38,0.267c0.175,0.541,0.326,1.098,0.281,1.703c-0.043,0.59-0.008,1.186-0.09,1.771
		c0.056,0.239,0.106,0.553,0.43,0.789c0.953-0.363,2.01-0.169,2.995-0.236c0.41-0.279,0.433-0.675,0.279-0.977
		c-0.196-0.387-0.208-0.667,0.004-1.052c0.121-0.218,0.022-0.558,0.022-0.873c1.127-1,2.397-1.578,3.98-1.38
		c0.212,0.147,0.543,0.19,0.772,0.507c0,1.124,0,2.302,0,3.441c0.14,0.14,0.241,0.241,0.343,0.343
		c1.079,0.001,2.159,0.001,3.288,0.001c0.252-1.333-0.22-2.739,0.291-4.027c0.938-0.51,1.836-0.292,2.787-0.001
		c0.376,0.859,1.186,1.364,1.957,1.9c0,0.717,0,1.391,0,2.096c1.143,0,2.248,0,3.372,0c0.072-0.125,0.262-0.181,0.3-0.387
		c0.271-1.481,0.275-1.48,1.414-2.619c0.336,0.1,0.697,0.4,1.145,0.165c0-0.192,0-0.4,0-0.678c0.198-0.154,0.42-0.326,0.703-0.545
		c0.314,0,0.744,0,1.168,0c0.083,0.083,0.203,0.147,0.228,0.238c0.116,0.422,0.288,0.85,0.293,1.278
		c0.026,2.519,0.002,5.038,0.026,7.557c0.004,0.337-0.353,0.555-0.224,0.88c0.184,0.462-0.5,0.825-0.066,1.371
		c0.271,0.343-0.072,0.948,0.261,1.398c0.103,0.14,0.016,0.42,0.016,0.636c0,1.152,0.004,2.303-0.001,3.455
		c-0.003,0.551,0.1,1.131-0.36,1.576c-0.128,0.124-0.112,0.316-0.06,0.396c0.392,0.592,0.114,1.239,0.215,1.827
		c-0.23,0.23-0.434,0.434-0.665,0.666c0.214,0.179,0.428,0.358,0.655,0.549c0,0.564,0.03,1.1-0.009,1.629
		c-0.04,0.553,0.085,1.099-0.134,1.668c-0.192,0.5,0.248,1.044,0.15,1.609c-0.099,0.577,0.157,1.195-0.213,1.752
		c-0.058,0.086-0.023,0.316,0.055,0.392c0.253,0.246,0.144,0.538,0.146,0.808c0.011,1.511,0.005,3.022,0.005,4.637
		c-0.192,0.155-0.442,0.356-0.698,0.562c0.13,0.416,0.479,0.58,0.691,0.864c-0.063,1.44,0.357,2.864,0.231,4.323
		c-0.056,0.652-0.014,0.656-0.44,1.548c0.291,0.661,0.31,1.33,0.102,2.021c-0.108,0.359-0.337,0.653-0.626,0.807
		c-0.444,0.236-0.861,0.464-1.111,0.92c-0.033,0.061-0.093,0.137-0.151,0.149c-0.74,0.157-1.15,0.833-1.798,1.136
		c-0.603,0.282-1.194,0.591-1.804,0.858c-0.61,0.269-1.173,0.626-1.784,0.902c-0.736,0.333-1.51,0.529-2.246,0.836
		c-0.717,0.298-1.464,0.47-2.208,0.674c-0.675,0.185-1.391,0.245-2.032,0.558c-0.059,0.028-0.129,0.062-0.19,0.056
		c-0.99-0.088-1.937,0.265-2.935,0.249c-1.298-0.021-2.596,0.313-3.903,0.178c-1.085-0.113-2.163-0.278-3.258-0.208
		c-0.394-0.3-0.897-0.25-1.342-0.404c-0.886-0.308-1.83-0.45-2.745-0.678c-1.106-0.275-2.267-0.422-3.147-1.262
		c-0.836-0.198-1.454-0.813-2.218-1.16c-1.481-0.673-2.816-1.599-4.124-2.567c-0.445-0.329-0.925-0.587-1.116-1.31
		c0.186-0.565-0.374-1.243-0.063-2.036c0.265-0.674-0.201-1.419-0.212-2.163c-0.013-0.786,0.411-1.502,0.233-2.261
		c0.201-0.344,0.421-0.647,0.455-0.962c-0.018-0.365-0.315-0.442-0.454-0.676c0.109-0.407-0.156-0.876,0.21-1.304
		c0.125-0.146,0.114-0.546,0.002-0.729c-0.31-0.501-0.188-1.026-0.191-1.541c-0.016-1.942-0.007-3.886-0.007-5.887
		c0.25-0.225,0.498-0.508,0.58-0.941c-0.16-0.261-0.436-0.581-0.565-0.953c-0.225-0.643-0.45-1.306-0.047-1.991
		c0.095-0.161,0.031-0.419,0.031-0.632c0.002-0.828-0.014-1.656,0.008-2.483c0.009-0.336-0.048-0.657,0.171-1.012
		c0.212-0.344-0.15-0.769-0.282-1.143c-0.059-0.167-0.171-0.357-0.101-0.486c0.271-0.496,0.215-0.922,0.021-1.458
		C16.367,30.011,16.695,29.418,17.185,29.003z M36.45,30.398c-0.788-0.098-1.018,0.735-1.64,0.851
		c-0.741,0.815-1.615,1.5-2.273,2.399c-0.702,0.959-1.358,1.948-1.994,2.951c-0.483,0.762-0.719,1.653-1.235,2.4
		c-0.034,0.049,0.026,0.172-0.009,0.208c-0.343,0.343-0.156,0.835-0.403,1.242c-0.519,0.854-0.634,1.867-0.646,2.844
		c-0.008,0.675-0.121,1.331-0.324,1.928c-0.323,0.946-0.389,1.874-0.332,2.785c0.132,0.132,0.209,0.209,0.306,0.306
		c0.803,0,1.632-0.056,2.449,0.017c0.738,0.065,1.464-0.605,2.195-0.017c0.827,0,1.653,0,2.48,0s1.653,0,2.48,0
		c0.826,0,1.653,0,2.479,0c0.791,0,1.582,0,2.372,0c0.819,0,1.638,0,2.433,0c0.078-0.221,0.063-0.416,0.266-0.514
		c-0.254-0.204-0.191-0.486-0.198-0.753c-0.016-0.624-0.03-1.231-0.184-1.859c-0.176-0.718-0.508-1.417-0.465-2.186
		c0.058-1.028-0.197-1.963-0.85-2.777c-0.011-0.693-0.08-1.353-0.588-1.921c-0.142-0.158-0.291-0.43-0.31-0.73
		c-0.016-0.247-0.149-0.546-0.331-0.712c-0.625-0.57-0.779-1.491-1.511-1.972c-0.047-0.031-0.054-0.119-0.083-0.179
		c-0.389-0.775-0.902-1.458-1.52-2.067C38.213,31.85,37.453,31.01,36.45,30.398z M47.34,49.823
		c-0.263-0.052-0.364,0.171-0.519,0.302c0.46,0.549,0.09,1.004-0.176,1.463c-0.043,0.075-0.074,0.104,0.021,0.155
		c0.241,0,0.481,0,0.706,0c0.321-0.52,0.336-1.062,0.27-1.616C47.542,50.025,47.441,49.925,47.34,49.823z M17.856,49.846
		c0,0.193-0.044,0.333,0.007,0.404c0.326,0.454,0.24,0.892,0,1.341c-0.017,0.031,0.061,0.112,0.103,0.184
		c0.173-0.185,0.343-0.367,0.507-0.543c0-0.45,0-0.908,0-1.386C18.271,49.846,18.102,49.846,17.856,49.846z M18.857,30.341
		c-0.238-0.252-0.135-0.92-0.837-0.767C18.166,30.025,18.429,30.261,18.857,30.341z M47.117,47.454
		c-0.066,0.484-0.066,0.484,0.244,0.874c0.077-0.193,0.351-0.249,0.303-0.518C47.523,47.632,47.414,47.401,47.117,47.454z
		 M29.019,23.202c0.425,0,0.781,0,1.191,0C29.632,22.725,29.632,22.725,29.019,23.202z M25.434,50.669
		c-0.068-0.28,0.061-0.544-0.089-0.827c-0.095,0-0.191,0-0.378,0c0.068,0.28-0.062,0.544,0.089,0.827
		C25.151,50.669,25.247,50.669,25.434,50.669z M30.365,61.505c-0.305-0.05-0.44,0.006-0.405,0.316
		c0.087,0.083,0.21,0.199,0.405,0.384C30.365,61.888,30.365,61.723,30.365,61.505z M25.311,47.231
		c0.154-0.146,0.158-0.29-0.006-0.434c-0.099,0.017-0.217-0.045-0.29,0.084c-0.06,0.131-0.047,0.253,0.083,0.35
		C25.167,47.231,25.238,47.231,25.311,47.231z M45.69,51.785c0.034,0.188,0.052,0.283,0.07,0.384
		c0.209-0.061,0.302-0.184,0.423-0.384C45.982,51.785,45.888,51.785,45.69,51.785z M30.818,22.932c-0.146-0.157-0.291-0.157-0.437,0
		C30.528,23.088,30.672,23.088,30.818,22.932z M36.446,27.03c-0.199-0.133-0.338-0.199-0.42,0.04
		C36.161,27.177,36.28,27.185,36.446,27.03z M45.618,40.117c0.132-0.199,0.198-0.337-0.04-0.42
		C45.47,39.832,45.463,39.951,45.618,40.117z"/>
	<path style="fill-rule:evenodd;clip-rule:evenodd;fill:none;" d="M36.45,30.398c1.002,0.612,1.763,1.452,2.566,2.244
		c0.617,0.609,1.131,1.292,1.52,2.067c0.029,0.06,0.036,0.148,0.083,0.179c0.731,0.48,0.886,1.402,1.511,1.972
		c0.182,0.166,0.315,0.465,0.331,0.712c0.019,0.301,0.168,0.572,0.31,0.73c0.508,0.568,0.577,1.228,0.588,1.921
		c0.652,0.814,0.907,1.749,0.85,2.777c-0.043,0.769,0.289,1.468,0.465,2.186c0.153,0.628,0.168,1.235,0.184,1.859
		c0.007,0.267-0.056,0.549,0.198,0.753c-0.202,0.098-0.188,0.293-0.266,0.514c-0.795,0-1.613,0-2.433,0c-0.79,0-1.581,0-2.372,0
		c-0.826,0-1.653,0-2.479,0c-0.827,0-1.654,0-2.48,0s-1.653,0-2.48,0c-0.731-0.589-1.457,0.082-2.195,0.017
		c-0.817-0.072-1.646-0.017-2.449-0.017c-0.097-0.097-0.173-0.174-0.306-0.306c-0.057-0.911,0.009-1.839,0.332-2.785
		c0.204-0.597,0.316-1.253,0.324-1.928c0.012-0.977,0.126-1.99,0.646-2.844c0.248-0.407,0.061-0.899,0.403-1.242
		c0.036-0.036-0.024-0.159,0.009-0.208c0.516-0.747,0.752-1.639,1.235-2.4c0.636-1.002,1.292-1.991,1.994-2.951
		c0.658-0.899,1.532-1.584,2.273-2.399C35.433,31.133,35.662,30.3,36.45,30.398z"/>
	<path style="fill-rule:evenodd;clip-rule:evenodd;fill:none;" d="M47.34,49.823c0.101,0.102,0.202,0.202,0.303,0.304
		c0.066,0.555,0.052,1.097-0.27,1.616c-0.225,0-0.465,0-0.706,0c-0.096-0.051-0.064-0.08-0.021-0.155
		c0.266-0.459,0.636-0.914,0.176-1.463C46.976,49.994,47.078,49.771,47.34,49.823z"/>
	<path style="fill-rule:evenodd;clip-rule:evenodd;fill:none;" d="M17.856,49.846c0.246,0,0.415,0,0.616,0c0,0.478,0,0.936,0,1.386
		c-0.164,0.176-0.334,0.358-0.507,0.543c-0.042-0.071-0.119-0.152-0.103-0.184c0.24-0.449,0.326-0.887,0-1.341
		C17.812,50.179,17.856,50.039,17.856,49.846z"/>
	<path style="fill-rule:evenodd;clip-rule:evenodd;fill:none;" d="M18.857,30.341c-0.429-0.08-0.691-0.315-0.837-0.767
		C18.722,29.421,18.619,30.089,18.857,30.341z"/>
	<path style="fill-rule:evenodd;clip-rule:evenodd;fill:none;" d="M47.117,47.454c0.297-0.053,0.406,0.178,0.547,0.356
		c0.048,0.269-0.226,0.324-0.303,0.518C47.05,47.938,47.05,47.938,47.117,47.454z"/>
	<path style="fill-rule:evenodd;clip-rule:evenodd;fill:none;" d="M29.019,23.202c0.614-0.477,0.614-0.477,1.191,0
		C29.8,23.202,29.443,23.202,29.019,23.202z"/>
	<path style="fill-rule:evenodd;clip-rule:evenodd;fill:none;" d="M25.434,50.669c-0.187,0-0.283,0-0.378,0
		c-0.151-0.283-0.021-0.547-0.089-0.827c0.187,0,0.283,0,0.378,0C25.495,50.125,25.366,50.389,25.434,50.669z"/>
	<path style="fill-rule:evenodd;clip-rule:evenodd;fill:none;" d="M30.365,61.505c0,0.218,0,0.383,0,0.7
		c-0.195-0.185-0.318-0.301-0.405-0.384C29.925,61.511,30.06,61.455,30.365,61.505z"/>
	<path style="fill-rule:evenodd;clip-rule:evenodd;fill:none;" d="M25.311,47.231c-0.073,0-0.143,0-0.213,0
		c-0.13-0.097-0.143-0.219-0.083-0.35c0.073-0.129,0.19-0.067,0.29-0.084C25.469,46.941,25.464,47.086,25.311,47.231z"/>
	<path style="fill-rule:evenodd;clip-rule:evenodd;fill:none;" d="M45.69,51.785c0.198,0,0.292,0,0.493,0
		c-0.121,0.2-0.214,0.323-0.423,0.384C45.742,52.068,45.724,51.973,45.69,51.785z"/>
	<path style="fill-rule:evenodd;clip-rule:evenodd;fill:none;" d="M30.818,22.932c-0.146,0.157-0.291,0.157-0.437,0
		C30.528,22.774,30.672,22.774,30.818,22.932z"/>
	<path style="fill-rule:evenodd;clip-rule:evenodd;fill:none;" d="M36.446,27.03c-0.167,0.154-0.286,0.147-0.42,0.04
		C36.108,26.832,36.247,26.897,36.446,27.03z"/>
	<path style="fill-rule:evenodd;clip-rule:evenodd;fill:none;" d="M45.618,40.117c-0.154-0.166-0.147-0.285-0.04-0.42
		C45.816,39.78,45.75,39.918,45.618,40.117z"/>
</g>
</svg>
