<svg xmlns="http://www.w3.org/2000/svg" xml:space="preserve" width="72px" height="72px" viewBox="0 0 72 72">
    <path fill="currentColor" d="M58.226 50.534c-.439.421-.913.838-1.077 1.443.124.617.528 1 .918 1.369-.132.411-.495.563-.688.865.085 1.157-.229 2.22-.854 3.259v1.5l1.275.844v1.062l-.853.756c-.648 0-1.438-.007-2.226.002-.7.009-1.122-.329-1.455-.939-.551-1.015-1.117-2.029-1.843-2.782-.41-.903-.298-1.754-.302-2.593-.007-1.943-.021-3.886.008-5.83.012-.8-.109-1.598.172-2.406.127-.365.217-.902-.151-1.32-.09-.103-.029-.344-.029-.521-.001-1.548-.101-3.104.036-4.64.084-.943.19-1.883.17-2.829-.008-.369.003-.723-.155-1.119-.153-.384-.216-.967.1-1.43.07-.102.107-.302.055-.397-.313-.563-.226-1.083-.022-1.673.109-.313.168-.764-.085-1.129-.196-.283-.181-.669-.075-.919.263-.619.239-1.16.004-1.784-.144-.377-.027-.852-.027-1.275-.368-.388-.733-.761-1.435-.762l-.513.894v1.745c-.368.799-.871 1.317-1.795 1.252-.607-.422-.864-1.014-.8-1.776.036-.429.006-.863.006-1.328-.46-.647-1.309-.835-1.84-1.426l-1.399 1.399c0 .368-.034.763.007 1.152.075.73-.201 1.291-.77 1.755h-1.096l-.52-.597c-.014-1.039.269-2.299-1.315-2.846-.358.041-.835-.019-1.331-.305l-.594.859v1.773c-.334 1.016-1.01 1.216-1.832 1.113-.552-.456-.84-1.008-.766-1.743.054-.529-.18-.991-.455-1.455h-2.076c-.173.086.108.484-.266.445v2.207c-.247.317-.593.452-.945.561-.75-.29-.75-.29-1.438-.989v-2.151l-.227-.227c-.738-.417-1.394.535-2.054-.073-.114.304-.609.06-.654.481-.189.934-.155 1.974-1.04 2.713h-1.37c-.647-.848-.458-1.851-.487-2.906l-.64-.511c-1.028.19-1.508.721-1.516 1.764-.006.864-.044 1.73.012 2.59.044.69.371 1.382.184 2.065-.2.729-.207 1.452-.188 2.183.008.334-.159.717.197 1 .053.043.051.231.003.31-.356.591-.044 1.275-.234 1.85-.336 1.019-.236 2.05-.147 3.047.066.76.183 1.522.166 2.288-.011.479.069.95-.179 1.438-.16.313-.161.846.002 1.155.222.421.164.814.179 1.224.02.539-.051 1.087.02 1.617.082.617-.242 1.147-.247 1.748-.01 1.166.396 2.301.232 3.474.382.623.137 1.239.017 1.875-.061.319-.191.641-.375.808-.505.455-.738 1.132-1.287 1.522-.286.205-.46.561-.476.77-.046.615-.423.826-.876 1.038-.333.154-.656.334-1.075.55-.708.123-1.422-.026-1.98-.779.097-.554-.122-1.17.185-1.801.132-.271.188-.76-.103-1.115-.173-.212-.053-.48-.077-.722-.07-.69.173-1.411-.211-2.073-.047-.081-.043-.229 0-.317.355-.739.205-1.525.192-2.289-.006-.371.226-.646.245-.903-.079-.657-.541-.96-.867-1.324v-1.091l.432-.432c-.162-.771.299-1.514.224-2.338-.072-.785-.002-1.582-.022-2.373-.007-.302.126-.634-.186-.901-.078-.068-.053-.318.035-.497a1.73 1.73 0 0 0-.002-1.595c-.104-.21-.113-.457-.042-.619.421-.962.124-1.963.184-2.941.02-.317-.24-.616-.212-.989.046-.617.009-.619.436-1.336.047-.455.074-.949-.227-1.293-.292-.335-.216-.684-.171-1.003.035-.251.206-.48.2-.778-.022-1.151.004-2.303-.018-3.455-.005-.298-.223-.546-.224-.883-.003-.952.41-1.771.761-2.606.071-.169.115-.317.119-.491-.035-.395-.479-.33-.703-.637.974-.775 1.017-2.077 1.707-3.032.101-.14.054-.269.077-.402.07-.413.41-1.161.683-1.444.29-.301.543-.618.779-.97.292-.438.488-1.015 1.114-1.144.402-.845 1.266-1.301 1.749-2.082.319-.515.767-.924 1.257-1.269.1-.07.245-.112.339-.212.677-.721 1.409-1.382 2.244-1.943.428-.112.874-.232 1.307-.435.206-.097.401-.201.452-.385.149-.537.601-.637 1.02-.694.433-.06.817-.173 1.089-.503.683-.826 1.633-.944 2.601-1.023.25-.021.504-.003.766-.003.742-.7 1.645-.942 2.623-.858.429-.428 1.04-.356 1.407-.666.678.027 1.004.552 1.502.76.461.192 1.04.073 1.397.555.668-.038 1.241.106 1.861.458A16 16 0 0 1 43.7 9.976c.452.347 1.062.65 1.685.452l.831.832c.42.041.863.16 1.149.515.604.753 1.44 1.183 2.23 1.673.184.114.323.257.485.383.39.308.465.934.927 1.107.477.178.665.619 1.12.882.095.013.311-.021.422.071.145.12.303.151.517.228-.003.39-.072.824.246 1.156l.88.406c.074.052-.066.292-.006.489.287.922.859 1.684 1.405 2.438.914 1.26 1.145 1.761 1.145 3.302.155.364.615.321.864.708 0 .485.009 1.054-.005 1.623-.005.236-.072.465-.134.693-.126.48-.131.993.088 1.524.409.99.316 2.056.199 3.103-.006.056-.096.103-.145.152.07.079.202.157.202.235-.005.731.136 1.489-.216 2.173-.239.466-.195.943-.208 1.473.266.226.493.524.604.898.12.639-.036 1.219-.571 1.671-.126.454.128.976-.237 1.409-.071.083-.063.308-.001.419.385.702.126 1.457.211 2.182.038.335.012.648.171 1.009.253.572-.132 1.201-.285 1.793-.042.162-.169.373-.094.484.354.524.222 1.104.182 1.646-.044.613.227 1.158.233 1.747.002.219.187.286.283.424.262.373.46.767.349 1.258m-32.013-35.6c.653.139 1.145-.04 1.551-.47.006-.193.126-.407-.088-.567h-.419c-.329.326-.653.649-1.033 1.077-.354-.017-.566.167-.594.513.197-.171.41-.354.583-.553m20.11 10.582c.494-1.037.144-2.077.281-3.068-.271-.27-.525-.521-.785-.776-1.202 0-1.696.116-2.275.549.21 1.076-.382 2.119-.164 3.269l.733.698c.846.236 1.441-.432 2.21-.672m-6.145-3.855c-.765.08-1.562-.189-2.235.351-.448 1.055-.094 2.161-.223 3.126l.55 1.069h.598c.749-.467 1.635-.668 2.084-1.432V22.87c-.161-.624-.41-.908-.774-1.209m-10.549 3.814c.495-.469.311-1.018.315-1.53.004-.521.393-.98.168-1.583-.59-.758-1.544-.754-2.341-.924l-.86.781c0 .449.133.938-.028 1.292-.34.751-.175 1.389.117 2.049.507 0 1.036-.139 1.423.036.476.216.826.142 1.206-.121m3.857-3.991c-.201.221-.45.388-.731.538-.278.149-.281.521-.415.74.375.738.23 1.433-.042 2.098.215.31.231.788.554.861.301.068.557.242.863.275.325.035.583-.188.869-.266.402-.109.603-.619.773-1.034-.439-.729-.099-1.529-.261-2.331-.395-.105-.325-.633-.703-.88zm6.762-1.558c.401-.443.572-.874.505-1.386.541-.499.078-.93-.193-1.23-.379-.418-.918-.689-1.375-1.041-.301-.23-.615-.273-.882-.081l-.563.369v3.07c.227.302.588.351.862.537.501-.391 1.086-.145 1.646-.238m-6.714-3.657c-.429.384-.861.714-.953 1.188-.084.431-.318.821-.279 1.302.03.371.215.636.301.881.635.478 1.322.247 1.865.302l.644-.507v-2.854c-.244-.319-.595-.376-.889-.53-.201.16-.411.266-.689.218m21.337 30.057.138-.07c0-1.453.001-2.906-.007-4.359 0-.048-.082-.096-.118-.136-.122-.004-.229-.009-.299.101-.055.468.076.947-.2 1.414-.108.186-.146.583.05.807.2.228.13.46.138.694.016.42.004.841.004 1.262l.152-.093zm.103 5.813v-4.664l-.398.311c0 .471.024 1.008-.007 1.541-.026.444.161.919-.145 1.329-.123.165-.11.445-.047.488.375.257.058.69.271.965.084.007.153.013.326.03M29.6 18.62c-1.098.567-1.098.567-1.112 1.347.35-.193.472.394.8.149l.661-.601v-.545zm-5.562 5.237c-.227.191-.637.192-.72.481-.083.287-.18.567-.304.877.126.114.236.263.383.333.114.055.275.011.404.011.685-.903.706-1.062.237-1.702m19.554-4.975v1.041h1.176c.09-.137.292-.195.297-.278l-.607-.763zm6.449 6.894v-1.187q-.07.068-.139.138l-.55-.546c-.384.34-.09.855-.185 1.288.16.13.257.253.381.297s.277.01.493.01M47.28 15.245l1.232 1.234c.2-.043.515.141.755-.245-.737-.261-1.014-1.038-1.711-1.223zm7.742 40.986c-.21-.434.287-.698.2-1.142-.134-.186-.243-.417-.547-.361-.15.997-.148 1.347.009 1.503zM44.004 13.464c.792.56 1.411.885 2.184 1.103-.354-.722-1.107-.656-1.53-1.093-.065-.068-.259-.01-.654-.01m10.988 44.579c-.145-.073-.181-.303-.359-.241v1.247c.156-.022.274.035.359-.113zm-36.743-.942c-.538.272-.398.662-.346 1.054h.346zm18.792-46.777c-.268-.086-.543-.181-.886.031.36.122.623.117.886-.031m-3.696.853c-.326-.068-.326-.068-.284.456z"/>
</svg>
