<?xml version="1.0" encoding="iso-8859-1"?>
<!-- Generator: Adobe Illustrator 16.0.0, SVG Export Plug-In . SVG Version: 6.00 Build 0)  -->
<!DOCTYPE svg PUBLIC "-//W3C//DTD SVG 1.1//EN" "http://www.w3.org/Graphics/SVG/1.1/DTD/svg11.dtd">
<svg version="1.1" id="Layer_1" xmlns="http://www.w3.org/2000/svg" xmlns:xlink="http://www.w3.org/1999/xlink" x="0px" y="0px"
	 width="72.36px" height="72.18px" viewBox="0 0 72.36 72.18" style="enable-background:new 0 0 72.36 72.18;" xml:space="preserve"
	>
<g>
	
	<path fill="currentColor" d="M25.614,65.586c-0.604-0.284-1.113-0.517-1.647-0.725
		c-1.118-0.435-2.051-1.259-3.202-1.654c-0.731-0.856-1.767-1.266-2.688-1.847c-0.403-0.255-0.661-0.736-1.144-0.895
		c-0.381-0.126-0.702-0.5-1.011-0.296c-1.661-1.025-2.588-2.549-3.679-4.037c0.099-0.345-0.073-0.765,0.155-1.241
		c0.179-0.376,0.218-0.975-0.088-1.423c-0.12-0.177-0.118-0.393-0.057-0.506c0.541-0.98-0.226-1.836-0.266-2.761
		c-0.015-0.335-0.262-0.771-0.595-0.908c-0.079-0.579,0.229-0.722,0.585-0.827c0.055-0.535,0.487-1.047,0.209-1.594
		c-0.272-0.537-0.078-1.288-0.781-1.592c0-0.426,0-0.813,0-1.146c0.263-0.692,0.802-1.113,1.293-1.559
		c0.734-0.667,1.264-1.672,1.269-2.593c0.002-0.359,0-0.718,0-1.069c0.135-0.135,0.286-0.246,0.383-0.394
		c0.09-0.137,0.053-0.348,0.277-0.452c-0.02-0.375,0.083-0.832-0.09-1.126c-0.216-0.365-0.061-0.695-0.176-1.13
		c0.294-0.243,0.623-0.515,0.857-0.708c0.161-0.479-0.206-0.68-0.22-0.99c-0.193-0.156-0.5,0.066-0.671-0.224
		c-0.072-0.124-0.154-0.216-0.148-0.374c0.012-0.341,0.126-0.433,0.744-0.543c0.147,0.139,0.301,0.284,0.454,0.428
		c0.547-0.58,1.193-1.066,1.473-1.876c0.095-0.275,0.399-0.579,0.674-0.672c0.637-0.216,0.911-0.746,1.171-1.246
		c0.165-0.316,0.292-0.468,0.65-0.539c0.397-0.078,0.815-0.282,1.009-0.661c0.42-0.818,1.144-1.354,1.786-1.947
		c0.511-0.473,1.191-0.771,1.797-1.127c0.51-0.301,0.681-0.703,0.894-1.232c0.525,0.179,0.951-0.332,1.531-0.166
		c0.486-0.543,1.112-0.96,1.428-1.744c0-0.416,0-0.92,0-1.424c-0.285-0.193-0.387-0.631-0.906-0.528
		c0.167-0.675,0.319-1.255,0.318-1.986c0.056,0.045-0.054-0.043-0.178-0.143c-0.192,0.064-0.264,0.363-0.537,0.394
		c-0.206,0.001-0.259-0.215-0.422-0.316c0.268-0.235,0.532-0.467,0.89-0.78c0.157-0.032,0.418,0.023,0.608,0.345
		c0.009,0.206,0.02,0.448,0.029,0.646c0.081,0.116,0.116,0.091,0.185,0.017c0.293-0.314,0.468-0.672,0.456-1.109
		c1.489-1.489,1.489-1.489,1.527-2.607c0.791-1.076,1.35-2.319,2.364-3.235c0.334-0.302,0.664-0.568,1.093-0.756
		c0.655-0.287,1.255-0.692,1.764-1.223c0.849-0.885,1.813-1.637,2.783-2.386c0.359-0.277,0.816-0.349,1.111-0.642
		c0.945-0.264,1.821,0.155,2.728,0.204c0.448,0.024,0.947,0.327,1.313,0.713c0.471,0.497,0.964,0.971,1.48,1.487
		c-0.003,0.819,0.374,1.526,0.899,2.203c-0.081,0.343,0.057,0.697-0.188,1.092c-0.226,0.363,0.116,0.88,0.241,1.273
		c0.249,0.782,0.566,1.568,1.09,2.249c0.347,0.451,0.58,1.013,0.567,1.592c-0.032,1.443,0.363,2.752,1.088,3.982
		c0.152,0.258,0.173,0.587,0.436,0.811c0,0.272,0.034,0.563-0.008,0.843c-0.061,0.403,0.029,0.81,0.247,1.081
		c0.246,0.308,0.146,0.597,0.208,0.91c-0.443,0.432-0.881,0.857-1.306,1.271c0,0.377,0,0.735,0,1.089
		c0.284,0.226,0.218,0.701,0.702,0.805c-0.403,0.379-0.761,0.704-0.894,1.268c0.206,0.66,0.424,1.427,1.234,1.909
		c0.05,0,0.191,0,0.38,0c0.346,0.689,0.927,1.208,1.498,1.723c0.25,0.225,0.469,0.546,0.487,0.766
		c0.063,0.712,0.497,1.137,0.959,1.554c0.343,0.311,0.613,0.67,0.802,1.076c0.199,0.429,0.296,0.895,0.854,1.044
		c0.185,0.05,0.322,0.273,0.355,0.304c0.433,1.977,0.307,3.826,0.299,5.671c-0.002,0.335,0.314,0.522,0.249,0.886
		c-0.05,0.282,0.005,0.585,0.128,0.905c0.16,0.419,0.122,0.941-0.043,1.438c-0.31,0.928-0.027,1.825,0.312,2.746
		c-0.152,0.531-0.59,1.158-0.374,1.696c0.281,0.698-0.127,1.58,0.605,2.107c0,0.161,0.009,0.306-0.002,0.448
		c-0.064,0.877,0.064,1.711,0.418,2.528c0.157,0.363,0.294,0.762,0.241,1.2c-0.07,0.592,0.412,0.977,0.637,1.554
		c0,0.265,0,0.624,0,0.916c-0.62,1.321-1.889,1.875-2.89,2.712c-0.238,0.199-0.661-0.015-0.976,0.253
		c-0.274,0.234-0.684,0.288-0.936,0.6c-0.454,0.561-1.287,0.412-1.776,0.919c-0.367-0.077-0.552,0.229-0.822,0.365
		c-1.071,0.535-2.193,0.962-3.264,1.511c-0.395,0.202-0.979,0.032-1.546,0.032c-0.277-0.178-0.688-0.309-0.962-0.771
		c0.048-0.38-0.045-0.837,0.183-1.327c0.188-0.404-0.058-0.873-0.4-1.208c0-0.435,0-0.865,0-1.296
		c0.18-0.18,0.357-0.357,0.537-0.537c0.574,0,1.15,0,1.727,0c0.213,0.235,0.536,0.272,0.792,0.431
		c0.426,0.263,0.849,0.462,1.111,0.986c0.263,0.526,0.84,0.818,1.543,0.735c0.212-0.242,0.446-0.51,0.751-0.858
		c-0.019-0.267,0.182-0.716-0.326-1.079c-0.213,0-0.496-0.023-0.775,0.004c-0.748,0.074-1.409-0.203-2.065-0.493
		c-0.608-0.27-1.182-0.598-1.813-0.84c-0.914-0.35-1.604-0.208-2.285,0.506c-0.492,0-1.021,0-1.66,0
		c0.297,0.458,0.363,0.892,0.274,1.326c0.411,0.455,0.949,0.802,0.879,1.611c-0.333,0.29-0.735,0.639-1.087,0.944
		c0.04,0.596,0.397,1.026,0.151,1.671c-0.269,0.269-0.644,0.649-1.026,1.023c-0.549,0.536-1.204,0.697-1.901,0.395
		c-0.394-0.171-0.817-0.177-1.137-0.07c-0.727,0.24-1.379,0.228-2.107-0.002c-0.458-0.146-1-0.027-1.503-0.027
		c-0.396,0-0.792-0.003-1.188,0.001c-0.348,0.004-0.697-0.139-0.977-0.251c-1.215-0.483-2.55-0.535-3.736-1.154
		C26.802,65.651,26.148,65.465,25.614,65.586z M37.624,27.955c0.647-0.084,1.044-0.375,1.455-0.707
		c0.309-0.249,0.719-0.545,1.168-0.526c1.051,0.044,2.037-0.256,3.037-0.488c0.102-0.486,0.625-0.725,0.705-1.202
		c0.028-1.069,0.103-2.118,0.169-3.167c0.092-1.429,0.249-2.893-0.143-4.336c-0.145-0.536-0.023-1.144-0.023-1.719
		c-0.165-0.543-0.545-0.968-0.689-1.555c-0.19-0.769-0.121-1.563-0.367-2.32c-0.091-0.278-0.353-0.51-0.251-0.877
		c0.126-0.462-0.157-0.842-0.348-1.25c-0.297-0.639-0.882-0.977-1.216-1.414c-0.727-0.187-0.929,0.394-0.942,0.684
		c-0.031,0.654-0.466,1.045-0.723,1.611c0,1.448,0.005,2.958-0.004,4.468c-0.002,0.24,0.078,0.493-0.071,0.724
		c-0.422,0.653-0.375,1.39-0.354,2.117c0.024,0.844-0.191,1.625-0.662,2.313c-0.22,0.32-0.407,0.583-0.468,1.008
		c-0.044,0.311-0.088,0.673-0.201,0.983c-0.462,1.264-1.015,2.5-1.055,3.877c-0.558,0.629,0.005,1.063,0.222,1.532
		C37.143,27.862,37.494,27.682,37.624,27.955z M23.487,48.507c0.489-0.864,1.336-1.468,1.03-2.454
		c-0.203-0.365-0.454-0.354-0.681-0.335c-0.738,0.553-1.113,1.23-1.027,2.175c0.063,0.691-0.292,1.3-0.571,1.787
		c0,0.548,0,0.997,0,1.372c0.653,0.317,0.725-0.551,1.092-0.442C24.124,49.88,23.276,49.186,23.487,48.507z M27.995,47.584
		c0,0.277,0.052,0.575-0.009,0.846c-0.209,0.928-0.205,0.92-0.026,1.678c0.12,0.511,0.128,1.031-0.204,1.493
		c0.427,0.224,0.052,0.884,0.612,0.995c0.085-0.322,0.271-0.592,0.316-0.953c0.086-0.69,0.366-1.354,0.508-2.04
		c0.182-0.879,0.286-1.768-0.199-2.575C28.453,46.899,28.283,47.326,27.995,47.584z M40.536,50.178
		c0.293,0.105,0.575,0.14,0.877-0.035c0.256-0.149,0.531-0.272,0.809-0.38c0.617-0.239,1.209-0.642,1.919-0.175
		c0.146,0.096,0.482,0.115,0.688-0.056c0-0.474,0-0.93,0-1.367c-0.241-0.105-0.454-0.198-0.632-0.276
		c-0.493,0.268-1.022,0.377-1.503,0.604c-0.21,0.1-0.462,0.272-0.755,0.256c-0.656-0.036-1.065,0.361-1.402,0.779
		C40.536,49.789,40.536,49.969,40.536,50.178z M35.877,60.623c-0.345,0-0.704,0-1.067,0c-0.175,0.248-0.529,0.369-0.554,0.745
		c0.516,0.4,1.091,0.38,1.667,0.303C36.292,61.352,36.37,61.033,35.877,60.623z M45.262,53.17c-0.627,0.234-1.163,0.411-1.677,0.641
		c-0.164,0.074-0.377,0.251-0.156,0.533c0.611,0.072,1.199-0.035,1.729-0.397C45.378,53.795,45.277,53.567,45.262,53.17z
		 M21.344,53.707c0.615,0.044,0.544-0.527,0.841-0.758c-0.057-0.387,0.081-0.811-0.136-1.268
		C21.153,52.213,21.302,52.967,21.344,53.707z M17.832,43.521c0.467,0,0.877,0,1.255,0c0.145-0.168,0.336-0.251,0.28-0.472
		c-0.24-0.417-0.614-0.401-1.011-0.319C18.202,42.96,17.886,43.064,17.832,43.521z M32.98,44.086
		c0.109,0.106,0.183,0.268,0.382,0.301c-0.038-0.29,0.362-0.427,0.261-0.688c-0.131-0.148-0.224-0.255-0.314-0.357
		C33.054,43.535,32.891,43.755,32.98,44.086z M45.015,56.854c0.449,0.229,0.569-0.078,0.699-0.341
		c0.019-0.038-0.043-0.116-0.08-0.204C45.313,56.27,45.163,56.462,45.015,56.854z"/>
	
	
	
	
	
	
	
	
	
	
</g>
</svg>
