<?xml version="1.0" encoding="iso-8859-1"?>
<!-- Generator: Adobe Illustrator 16.0.0, SVG Export Plug-In . SVG Version: 6.00 Build 0)  -->
<!DOCTYPE svg PUBLIC "-//W3C//DTD SVG 1.1//EN" "http://www.w3.org/Graphics/SVG/1.1/DTD/svg11.dtd">
<svg version="1.1" id="Layer_1" xmlns="http://www.w3.org/2000/svg" xmlns:xlink="http://www.w3.org/1999/xlink" x="0px" y="0px"
	 width="72.18px" height="70.921px" viewBox="0 0 72.18 70.921" style="enable-background:new 0 0 72.18 70.921;"
	 xml:space="preserve">
<g>
	<path style="fill-rule:evenodd;clip-rule:evenodd;fill:none;" d="M-6.983,78.048c0-28.297,0-56.591,0-84.887
		c28.799,0,57.599,0,86.399,0c0,28.296,0,56.59,0,84.887C50.616,78.048,21.816,78.048-6.983,78.048z M58.226,50.534
		c0.111-0.491-0.087-0.885-0.348-1.259c-0.097-0.138-0.281-0.205-0.283-0.424c-0.007-0.589-0.277-1.134-0.233-1.747
		c0.04-0.541,0.173-1.121-0.182-1.646c-0.075-0.111,0.052-0.322,0.094-0.484c0.153-0.592,0.538-1.221,0.285-1.793
		c-0.159-0.36-0.133-0.674-0.171-1.009c-0.085-0.725,0.174-1.479-0.211-2.182c-0.062-0.111-0.07-0.336,0.001-0.419
		c0.365-0.434,0.111-0.955,0.237-1.409c0.535-0.452,0.691-1.032,0.571-1.671c-0.111-0.375-0.339-0.673-0.604-0.898
		c0.013-0.53-0.031-1.007,0.208-1.473c0.352-0.684,0.211-1.442,0.216-2.173c0-0.078-0.132-0.156-0.202-0.235
		c0.049-0.049,0.139-0.096,0.145-0.152c0.117-1.047,0.21-2.113-0.199-3.103c-0.219-0.531-0.214-1.043-0.088-1.524
		c0.062-0.229,0.129-0.458,0.134-0.693c0.014-0.569,0.005-1.138,0.005-1.623c-0.249-0.387-0.709-0.344-0.864-0.708
		c0-1.541-0.23-2.042-1.145-3.302c-0.546-0.753-1.118-1.515-1.405-2.438c-0.061-0.197,0.08-0.438,0.006-0.489
		c-0.396-0.184-0.639-0.295-0.88-0.406c-0.318-0.333-0.249-0.767-0.246-1.156c-0.214-0.077-0.372-0.108-0.517-0.228
		c-0.111-0.093-0.327-0.059-0.422-0.071c-0.455-0.264-0.644-0.704-1.12-0.882c-0.462-0.173-0.537-0.799-0.927-1.107
		c-0.162-0.126-0.302-0.269-0.485-0.383c-0.79-0.49-1.627-0.92-2.23-1.673c-0.286-0.355-0.729-0.475-1.149-0.515
		c-0.28-0.28-0.534-0.534-0.831-0.832c-0.623,0.198-1.232-0.104-1.685-0.452c-0.603-0.461-1.208-0.857-1.869-1.231
		c-0.62-0.352-1.193-0.496-1.861-0.458c-0.357-0.481-0.937-0.362-1.397-0.555C38.074,7.524,37.748,7,37.07,6.972
		c-0.367,0.309-0.978,0.238-1.407,0.666c-0.978-0.083-1.88,0.159-2.623,0.858c-0.262,0-0.516-0.017-0.766,0.003
		c-0.968,0.079-1.918,0.197-2.601,1.023c-0.272,0.33-0.656,0.443-1.089,0.503c-0.418,0.058-0.87,0.157-1.02,0.694
		c-0.051,0.184-0.247,0.288-0.452,0.385c-0.433,0.203-0.879,0.323-1.307,0.435c-0.835,0.561-1.567,1.222-2.244,1.943
		c-0.094,0.1-0.239,0.142-0.339,0.212c-0.49,0.345-0.938,0.754-1.257,1.269c-0.483,0.781-1.347,1.237-1.749,2.082
		c-0.626,0.129-0.823,0.705-1.114,1.144c-0.235,0.352-0.489,0.669-0.779,0.97c-0.273,0.283-0.613,1.031-0.683,1.444
		c-0.022,0.133,0.024,0.262-0.077,0.402c-0.69,0.955-0.732,2.257-1.707,3.032c0.224,0.307,0.668,0.243,0.703,0.637
		c-0.004,0.173-0.048,0.321-0.119,0.491C16.09,26,15.676,26.818,15.68,27.771c0.001,0.337,0.219,0.585,0.224,0.883
		c0.021,1.151-0.004,2.303,0.018,3.455c0.006,0.297-0.165,0.527-0.2,0.778c-0.044,0.319-0.12,0.668,0.171,1.003
		c0.301,0.344,0.273,0.839,0.226,1.293c-0.426,0.717-0.389,0.72-0.436,1.336c-0.028,0.373,0.232,0.672,0.212,0.989
		c-0.061,0.979,0.237,1.979-0.184,2.941c-0.071,0.162-0.061,0.409,0.042,0.619c0.261,0.525,0.26,1.07,0.002,1.595
		c-0.088,0.179-0.113,0.429-0.035,0.497c0.312,0.268,0.178,0.6,0.186,0.901c0.02,0.791-0.05,1.588,0.022,2.373
		c0.075,0.824-0.386,1.566-0.224,2.338c-0.17,0.17-0.297,0.298-0.432,0.432c0,0.352,0,0.709,0,1.091
		c0.327,0.364,0.789,0.667,0.867,1.324c-0.019,0.257-0.251,0.532-0.245,0.903c0.013,0.764,0.164,1.55-0.192,2.289
		c-0.042,0.088-0.046,0.236,0,0.317c0.384,0.662,0.141,1.383,0.211,2.073c0.024,0.241-0.096,0.51,0.077,0.722
		c0.291,0.355,0.234,0.844,0.103,1.115c-0.307,0.631-0.088,1.247-0.185,1.801c0.559,0.753,1.273,0.902,1.98,0.779
		c0.418-0.216,0.741-0.396,1.075-0.55c0.453-0.212,0.83-0.423,0.876-1.038c0.016-0.209,0.189-0.564,0.476-0.77
		c0.548-0.391,0.781-1.067,1.287-1.522c0.184-0.167,0.315-0.488,0.375-0.808c0.12-0.636,0.365-1.252-0.017-1.875
		c0.163-1.173-0.242-2.308-0.232-3.474c0.005-0.601,0.329-1.131,0.247-1.748c-0.071-0.53,0-1.078-0.02-1.617
		c-0.015-0.409,0.043-0.803-0.179-1.224c-0.164-0.31-0.163-0.842-0.002-1.155c0.249-0.488,0.168-0.959,0.179-1.438
		c0.018-0.766-0.099-1.528-0.166-2.288c-0.089-0.997-0.189-2.028,0.147-3.047c0.19-0.574-0.122-1.259,0.234-1.85
		c0.047-0.078,0.05-0.267-0.003-0.31c-0.356-0.283-0.189-0.666-0.197-1c-0.019-0.731-0.011-1.455,0.188-2.183
		c0.188-0.683-0.139-1.375-0.184-2.065c-0.056-0.86-0.019-1.727-0.012-2.59c0.007-1.043,0.487-1.573,1.516-1.764
		c0.256,0.204,0.474,0.378,0.64,0.511c0.029,1.055-0.161,2.058,0.487,2.906c0.486,0,0.944,0,1.37,0
		c0.885-0.74,0.851-1.779,1.04-2.713c0.045-0.422,0.54-0.177,0.654-0.481c0.66,0.608,1.316-0.344,2.054,0.073
		c0.02,0.021,0.122,0.122,0.227,0.227c0,0.716,0,1.435,0,2.151c0.688,0.699,0.688,0.699,1.438,0.989
		c0.353-0.108,0.698-0.243,0.945-0.561c0-0.714,0-1.433,0-2.207c0.374,0.039,0.093-0.359,0.266-0.445c0.717,0,1.391,0,2.076,0
		c0.275,0.464,0.509,0.926,0.455,1.455c-0.074,0.735,0.214,1.287,0.766,1.743c0.822,0.104,1.498-0.097,1.832-1.113
		c0-0.565,0-1.285,0-1.773c0.256-0.371,0.416-0.604,0.594-0.859c0.496,0.286,0.973,0.345,1.331,0.305
		c1.584,0.546,1.302,1.807,1.315,2.846c0.217,0.25,0.383,0.438,0.52,0.597c0.405,0,0.763,0,1.096,0
		c0.568-0.465,0.845-1.025,0.77-1.755c-0.041-0.389-0.007-0.784-0.007-1.152c0.483-0.483,0.941-0.941,1.399-1.399
		c0.531,0.59,1.38,0.778,1.84,1.426c0,0.465,0.03,0.899-0.006,1.328c-0.064,0.762,0.192,1.354,0.8,1.776
		c0.924,0.065,1.427-0.453,1.795-1.252c0-0.645,0-1.363,0-1.745c0.269-0.467,0.412-0.716,0.513-0.894
		c0.701,0.001,1.066,0.375,1.435,0.762c0,0.423-0.116,0.898,0.027,1.275c0.235,0.625,0.259,1.166-0.004,1.784
		c-0.105,0.25-0.121,0.636,0.075,0.919c0.253,0.365,0.194,0.816,0.085,1.129c-0.203,0.591-0.29,1.11,0.022,1.673
		c0.053,0.096,0.016,0.295-0.055,0.397c-0.315,0.463-0.253,1.046-0.1,1.43c0.158,0.396,0.147,0.75,0.155,1.119
		c0.021,0.946-0.086,1.886-0.17,2.829c-0.137,1.535-0.037,3.092-0.036,4.64c0,0.177-0.061,0.418,0.029,0.521
		c0.368,0.418,0.278,0.955,0.151,1.32c-0.281,0.809-0.16,1.606-0.172,2.406c-0.028,1.944-0.015,3.887-0.008,5.83
		c0.004,0.839-0.108,1.689,0.302,2.593c0.726,0.753,1.292,1.768,1.843,2.782c0.333,0.61,0.755,0.948,1.455,0.939
		c0.788-0.009,1.577-0.002,2.226-0.002c0.354-0.314,0.62-0.55,0.853-0.756c0-0.402,0-0.759,0-1.062
		c-0.457-0.303-0.879-0.583-1.275-0.844c0-0.554,0-1.057,0-1.5c0.625-1.039,0.939-2.102,0.854-3.259
		c0.193-0.302,0.557-0.454,0.688-0.865c-0.39-0.369-0.794-0.752-0.918-1.369C57.313,51.372,57.787,50.955,58.226,50.534z
		 M36.695,68.729c-0.283-0.355-0.537-0.596-0.921-0.277c-0.103,0.085-0.237,0.171-0.183,0.463c0.064,0.037,0.216,0.129,0.436,0.259
		C36.321,69.129,36.321,69.129,36.695,68.729z M27.53,59.455c0.112-0.442,0.01-0.723-0.383-0.857
		c-0.243,0.095-0.439,0.213-0.437,0.502C26.86,59.442,27.135,59.521,27.53,59.455z"/>
	<path fill="currentColor" d="M58.226,50.534c-0.439,0.421-0.913,0.838-1.077,1.443
		c0.124,0.617,0.528,1,0.918,1.369c-0.132,0.411-0.495,0.563-0.688,0.865c0.085,1.157-0.229,2.22-0.854,3.259c0,0.443,0,0.946,0,1.5
		c0.396,0.261,0.818,0.541,1.275,0.844c0,0.303,0,0.659,0,1.062c-0.232,0.206-0.499,0.441-0.853,0.756
		c-0.648,0-1.438-0.007-2.226,0.002c-0.7,0.009-1.122-0.329-1.455-0.939c-0.551-1.015-1.117-2.029-1.843-2.782
		c-0.41-0.903-0.298-1.754-0.302-2.593c-0.007-1.943-0.021-3.886,0.008-5.83c0.012-0.8-0.109-1.598,0.172-2.406
		c0.127-0.365,0.217-0.902-0.151-1.32c-0.09-0.103-0.029-0.344-0.029-0.521c-0.001-1.548-0.101-3.104,0.036-4.64
		c0.084-0.943,0.19-1.883,0.17-2.829c-0.008-0.369,0.003-0.723-0.155-1.119c-0.153-0.384-0.216-0.967,0.1-1.43
		c0.07-0.102,0.107-0.302,0.055-0.397c-0.313-0.563-0.226-1.083-0.022-1.673c0.109-0.313,0.168-0.764-0.085-1.129
		c-0.196-0.283-0.181-0.669-0.075-0.919c0.263-0.619,0.239-1.16,0.004-1.784c-0.144-0.377-0.027-0.852-0.027-1.275
		c-0.368-0.388-0.733-0.761-1.435-0.762c-0.101,0.177-0.244,0.426-0.513,0.894c0,0.382,0,1.101,0,1.745
		c-0.368,0.799-0.871,1.317-1.795,1.252c-0.607-0.422-0.864-1.014-0.8-1.776c0.036-0.429,0.006-0.863,0.006-1.328
		c-0.46-0.647-1.309-0.835-1.84-1.426c-0.458,0.458-0.916,0.917-1.399,1.399c0,0.368-0.034,0.763,0.007,1.152
		c0.075,0.73-0.201,1.291-0.77,1.755c-0.333,0-0.69,0-1.096,0c-0.137-0.158-0.303-0.347-0.52-0.597
		c-0.014-1.039,0.269-2.299-1.315-2.846c-0.358,0.041-0.835-0.019-1.331-0.305c-0.178,0.256-0.338,0.489-0.594,0.859
		c0,0.489,0,1.208,0,1.773c-0.334,1.016-1.01,1.216-1.832,1.113c-0.552-0.456-0.84-1.008-0.766-1.743
		c0.054-0.529-0.18-0.991-0.455-1.455c-0.685,0-1.358,0-2.076,0c-0.173,0.086,0.108,0.484-0.266,0.445c0,0.774,0,1.493,0,2.207
		c-0.247,0.317-0.593,0.452-0.945,0.561c-0.75-0.29-0.75-0.29-1.438-0.989c0-0.716,0-1.435,0-2.151
		c-0.105-0.105-0.207-0.206-0.227-0.227c-0.738-0.417-1.394,0.535-2.054-0.073c-0.114,0.304-0.609,0.06-0.654,0.481
		c-0.189,0.934-0.155,1.974-1.04,2.713c-0.426,0-0.884,0-1.37,0c-0.647-0.848-0.458-1.851-0.487-2.906
		c-0.166-0.132-0.384-0.307-0.64-0.511c-1.028,0.19-1.508,0.721-1.516,1.764c-0.006,0.864-0.044,1.73,0.012,2.59
		c0.044,0.69,0.371,1.382,0.184,2.065c-0.2,0.729-0.207,1.452-0.188,2.183c0.008,0.334-0.159,0.717,0.197,1
		c0.053,0.043,0.051,0.231,0.003,0.31c-0.356,0.591-0.044,1.275-0.234,1.85c-0.336,1.019-0.236,2.05-0.147,3.047
		c0.066,0.76,0.183,1.522,0.166,2.288c-0.011,0.479,0.069,0.95-0.179,1.438c-0.16,0.313-0.161,0.846,0.002,1.155
		c0.222,0.421,0.164,0.814,0.179,1.224c0.02,0.539-0.051,1.087,0.02,1.617c0.082,0.617-0.242,1.147-0.247,1.748
		c-0.01,1.166,0.396,2.301,0.232,3.474c0.382,0.623,0.137,1.239,0.017,1.875c-0.061,0.319-0.191,0.641-0.375,0.808
		c-0.505,0.455-0.738,1.132-1.287,1.522c-0.286,0.205-0.46,0.561-0.476,0.77c-0.046,0.615-0.423,0.826-0.876,1.038
		c-0.333,0.154-0.656,0.334-1.075,0.55c-0.708,0.123-1.422-0.026-1.98-0.779c0.097-0.554-0.122-1.17,0.185-1.801
		c0.132-0.271,0.188-0.76-0.103-1.115c-0.173-0.212-0.053-0.48-0.077-0.722c-0.07-0.69,0.173-1.411-0.211-2.073
		c-0.047-0.081-0.043-0.229,0-0.317c0.355-0.739,0.205-1.525,0.192-2.289c-0.006-0.371,0.226-0.646,0.245-0.903
		c-0.079-0.657-0.541-0.96-0.867-1.324c0-0.382,0-0.739,0-1.091c0.135-0.134,0.262-0.262,0.432-0.432
		c-0.162-0.771,0.299-1.514,0.224-2.338c-0.072-0.785-0.002-1.582-0.022-2.373c-0.007-0.302,0.126-0.634-0.186-0.901
		c-0.078-0.068-0.053-0.318,0.035-0.497c0.258-0.524,0.259-1.069-0.002-1.595c-0.104-0.21-0.113-0.457-0.042-0.619
		c0.421-0.962,0.124-1.963,0.184-2.941c0.02-0.317-0.24-0.616-0.212-0.989c0.046-0.617,0.009-0.619,0.436-1.336
		c0.047-0.455,0.074-0.949-0.227-1.293c-0.292-0.335-0.216-0.684-0.171-1.003c0.035-0.251,0.206-0.48,0.2-0.778
		c-0.022-1.151,0.004-2.303-0.018-3.455c-0.005-0.298-0.223-0.546-0.224-0.883c-0.003-0.952,0.41-1.771,0.761-2.606
		c0.071-0.169,0.115-0.317,0.119-0.491c-0.035-0.395-0.479-0.33-0.703-0.637c0.974-0.775,1.017-2.077,1.707-3.032
		c0.101-0.14,0.054-0.269,0.077-0.402c0.07-0.413,0.41-1.161,0.683-1.444c0.29-0.301,0.543-0.618,0.779-0.97
		c0.292-0.438,0.488-1.015,1.114-1.144c0.402-0.845,1.266-1.301,1.749-2.082c0.319-0.515,0.767-0.924,1.257-1.269
		c0.1-0.07,0.245-0.112,0.339-0.212c0.677-0.721,1.409-1.382,2.244-1.943c0.428-0.112,0.874-0.232,1.307-0.435
		c0.206-0.097,0.401-0.201,0.452-0.385c0.149-0.537,0.601-0.637,1.02-0.694c0.433-0.06,0.817-0.173,1.089-0.503
		c0.683-0.826,1.633-0.944,2.601-1.023c0.25-0.021,0.504-0.003,0.766-0.003c0.742-0.7,1.645-0.942,2.623-0.858
		c0.429-0.428,1.04-0.356,1.407-0.666c0.678,0.027,1.004,0.552,1.502,0.76c0.461,0.192,1.04,0.073,1.397,0.555
		c0.668-0.038,1.241,0.106,1.861,0.458c0.661,0.375,1.267,0.771,1.869,1.231c0.452,0.347,1.062,0.65,1.685,0.452
		c0.297,0.297,0.551,0.552,0.831,0.832c0.42,0.041,0.863,0.16,1.149,0.515c0.604,0.753,1.44,1.183,2.23,1.673
		c0.184,0.114,0.323,0.257,0.485,0.383c0.39,0.308,0.465,0.934,0.927,1.107c0.477,0.178,0.665,0.619,1.12,0.882
		c0.095,0.013,0.311-0.021,0.422,0.071c0.145,0.12,0.303,0.151,0.517,0.228c-0.003,0.39-0.072,0.824,0.246,1.156
		c0.241,0.111,0.483,0.222,0.88,0.406c0.074,0.052-0.066,0.292-0.006,0.489c0.287,0.922,0.859,1.684,1.405,2.438
		c0.914,1.26,1.145,1.761,1.145,3.302c0.155,0.364,0.615,0.321,0.864,0.708c0,0.485,0.009,1.054-0.005,1.623
		c-0.005,0.236-0.072,0.465-0.134,0.693c-0.126,0.48-0.131,0.993,0.088,1.524c0.409,0.99,0.316,2.056,0.199,3.103
		c-0.006,0.056-0.096,0.103-0.145,0.152c0.07,0.079,0.202,0.157,0.202,0.235c-0.005,0.731,0.136,1.489-0.216,2.173
		c-0.239,0.466-0.195,0.943-0.208,1.473c0.266,0.226,0.493,0.524,0.604,0.898c0.12,0.639-0.036,1.219-0.571,1.671
		c-0.126,0.454,0.128,0.976-0.237,1.409c-0.071,0.083-0.063,0.308-0.001,0.419c0.385,0.702,0.126,1.457,0.211,2.182
		c0.038,0.335,0.012,0.648,0.171,1.009c0.253,0.572-0.132,1.201-0.285,1.793c-0.042,0.162-0.169,0.373-0.094,0.484
		c0.354,0.524,0.222,1.104,0.182,1.646c-0.044,0.613,0.227,1.158,0.233,1.747c0.002,0.219,0.187,0.286,0.283,0.424
		C58.139,49.649,58.337,50.043,58.226,50.534z M26.213,14.934c0.653,0.139,1.145-0.04,1.551-0.47
		c0.006-0.193,0.126-0.407-0.088-0.567c-0.143,0-0.284,0-0.419,0c-0.329,0.326-0.653,0.649-1.033,1.077
		c-0.354-0.017-0.566,0.167-0.594,0.513C25.827,15.316,26.04,15.133,26.213,14.934z M46.323,25.516
		c0.494-1.037,0.144-2.077,0.281-3.068c-0.271-0.27-0.525-0.521-0.785-0.776c-1.202,0-1.696,0.116-2.275,0.549
		c0.21,1.076-0.382,2.119-0.164,3.269c0.213,0.204,0.473,0.45,0.733,0.698C44.959,26.424,45.554,25.756,46.323,25.516z
		 M40.178,21.661c-0.765,0.08-1.562-0.189-2.235,0.351c-0.448,1.055-0.094,2.161-0.223,3.126c0.217,0.421,0.385,0.747,0.55,1.069
		c0.22,0,0.434,0,0.598,0c0.749-0.467,1.635-0.668,2.084-1.432c0-0.741,0-1.454,0-1.905C40.791,22.246,40.542,21.962,40.178,21.661z
		 M29.629,25.475c0.495-0.469,0.311-1.018,0.315-1.53c0.004-0.521,0.393-0.98,0.168-1.583c-0.59-0.758-1.544-0.754-2.341-0.924
		c-0.336,0.305-0.6,0.544-0.86,0.781c0,0.449,0.133,0.938-0.028,1.292C26.543,24.262,26.708,24.9,27,25.56
		c0.507,0,1.036-0.139,1.423,0.036C28.899,25.812,29.249,25.738,29.629,25.475z M33.486,21.484c-0.201,0.221-0.45,0.388-0.731,0.538
		c-0.278,0.149-0.281,0.521-0.415,0.74c0.375,0.738,0.23,1.433-0.042,2.098c0.215,0.31,0.231,0.788,0.554,0.861
		c0.301,0.068,0.557,0.242,0.863,0.275c0.325,0.035,0.583-0.188,0.869-0.266c0.402-0.109,0.603-0.619,0.773-1.034
		c-0.439-0.729-0.099-1.529-0.261-2.331c-0.395-0.105-0.325-0.633-0.703-0.88C34.124,21.484,33.81,21.484,33.486,21.484z
		 M40.248,19.926c0.401-0.443,0.572-0.874,0.505-1.386c0.541-0.499,0.078-0.93-0.193-1.23c-0.379-0.418-0.918-0.689-1.375-1.041
		c-0.301-0.23-0.615-0.273-0.882-0.081c-0.209,0.137-0.418,0.273-0.563,0.369c0,1.091,0,2.088,0,3.07
		c0.227,0.302,0.588,0.351,0.862,0.537C39.103,19.773,39.688,20.019,40.248,19.926z M33.534,16.269
		c-0.429,0.384-0.861,0.714-0.953,1.188c-0.084,0.431-0.318,0.821-0.279,1.302c0.03,0.371,0.215,0.636,0.301,0.881
		c0.635,0.478,1.322,0.247,1.865,0.302c0.279-0.22,0.499-0.393,0.644-0.507c0-1.034,0-1.96,0-2.854
		c-0.244-0.319-0.595-0.376-0.889-0.53C34.022,16.211,33.812,16.317,33.534,16.269z M54.871,46.326
		c0.046-0.023,0.092-0.047,0.138-0.07c0-1.453,0.001-2.906-0.007-4.359c0-0.048-0.082-0.096-0.118-0.136
		c-0.122-0.004-0.229-0.009-0.299,0.101c-0.055,0.468,0.076,0.947-0.2,1.414c-0.108,0.186-0.146,0.583,0.05,0.807
		c0.2,0.228,0.13,0.46,0.138,0.694c0.016,0.42,0.004,0.841,0.004,1.262c0.051-0.031,0.102-0.063,0.152-0.093
		C54.776,46.073,54.823,46.199,54.871,46.326z M54.974,52.139c0-1.618,0-3.171,0-4.664c-0.109,0.084-0.236,0.184-0.398,0.311
		c0,0.471,0.024,1.008-0.007,1.541c-0.026,0.444,0.161,0.919-0.145,1.329c-0.123,0.165-0.11,0.445-0.047,0.488
		c0.375,0.257,0.058,0.69,0.271,0.965C54.732,52.116,54.801,52.122,54.974,52.139z M29.6,18.62
		c-1.098,0.567-1.098,0.567-1.112,1.347c0.35-0.193,0.472,0.394,0.8,0.149c0.205-0.187,0.41-0.373,0.661-0.601
		c0-0.123,0-0.335,0-0.545C29.846,18.867,29.746,18.766,29.6,18.62z M24.038,23.857c-0.227,0.191-0.637,0.192-0.72,0.481
		c-0.083,0.287-0.18,0.567-0.304,0.877c0.126,0.114,0.236,0.263,0.383,0.333c0.114,0.055,0.275,0.011,0.404,0.011
		C24.486,24.656,24.507,24.497,24.038,23.857z M43.592,18.882c0,0.404,0,0.713,0,1.041c0.413,0,0.793,0,1.176,0
		c0.09-0.137,0.292-0.195,0.297-0.278c-0.235-0.297-0.425-0.533-0.607-0.763C44.186,18.882,43.909,18.882,43.592,18.882z
		 M50.041,25.776c0-0.468,0-0.828,0-1.187c-0.047,0.045-0.093,0.092-0.139,0.138c-0.184-0.183-0.368-0.366-0.55-0.546
		c-0.384,0.34-0.09,0.855-0.185,1.288c0.16,0.13,0.257,0.253,0.381,0.297C49.672,25.81,49.825,25.776,50.041,25.776z M47.28,15.245
		c0.413,0.414,0.815,0.816,1.232,1.234c0.2-0.043,0.515,0.141,0.755-0.245c-0.737-0.261-1.014-1.038-1.711-1.223
		C47.438,15.111,47.332,15.202,47.28,15.245z M55.022,56.231c-0.21-0.434,0.287-0.698,0.2-1.142
		c-0.134-0.186-0.243-0.417-0.547-0.361c-0.15,0.997-0.148,1.347,0.009,1.503C54.754,56.231,54.825,56.231,55.022,56.231z
		 M44.004,13.464c0.792,0.56,1.411,0.885,2.184,1.103c-0.354-0.722-1.107-0.656-1.53-1.093
		C44.593,13.406,44.399,13.464,44.004,13.464z M54.992,58.043c-0.145-0.073-0.181-0.303-0.359-0.241c0,0.433,0,0.838,0,1.247
		c0.156-0.022,0.274,0.035,0.359-0.113C54.992,58.654,54.992,58.345,54.992,58.043z M18.249,57.101
		c-0.538,0.272-0.398,0.662-0.346,1.054c0.115,0,0.21,0,0.346,0C18.249,57.815,18.249,57.481,18.249,57.101z M37.041,10.324
		c-0.268-0.086-0.543-0.181-0.886,0.031C36.515,10.477,36.778,10.472,37.041,10.324z M33.345,11.177
		c-0.326-0.068-0.326-0.068-0.284,0.456C33.196,11.417,33.279,11.283,33.345,11.177z"/>
	<path style="fill-rule:evenodd;clip-rule:evenodd;fill:none;" d="M46.323,25.516c-0.769,0.24-1.363,0.908-2.21,0.673
		c-0.261-0.249-0.521-0.495-0.733-0.698c-0.218-1.15,0.374-2.193,0.164-3.269c0.579-0.433,1.073-0.549,2.275-0.549
		c0.26,0.255,0.514,0.506,0.785,0.776C46.466,23.438,46.817,24.479,46.323,25.516z"/>
	<path style="fill-rule:evenodd;clip-rule:evenodd;fill:none;" d="M40.178,21.661c0.363,0.301,0.612,0.585,0.773,1.209
		c0,0.451,0,1.164,0,1.905c-0.449,0.764-1.335,0.965-2.084,1.432c-0.164,0-0.378,0-0.598,0c-0.165-0.322-0.333-0.647-0.55-1.069
		c0.129-0.965-0.226-2.071,0.223-3.126C38.617,21.472,39.414,21.741,40.178,21.661z"/>
	<path style="fill-rule:evenodd;clip-rule:evenodd;fill:none;" d="M29.629,25.475c-0.381,0.263-0.73,0.336-1.207,0.121
		C28.036,25.421,27.507,25.56,27,25.56c-0.291-0.66-0.456-1.298-0.115-2.048c0.161-0.354,0.028-0.843,0.028-1.292
		c0.261-0.237,0.524-0.476,0.86-0.781c0.796,0.169,1.751,0.166,2.341,0.924c0.225,0.603-0.165,1.062-0.168,1.583
		C29.94,24.458,30.124,25.006,29.629,25.475z"/>
	<path style="fill-rule:evenodd;clip-rule:evenodd;fill:none;" d="M33.486,21.484c0.324,0,0.638,0,0.907,0
		c0.377,0.248,0.308,0.775,0.703,0.88c0.162,0.802-0.178,1.602,0.261,2.331c-0.17,0.416-0.371,0.925-0.773,1.034
		c-0.286,0.078-0.543,0.301-0.869,0.266c-0.306-0.033-0.562-0.208-0.863-0.275c-0.323-0.073-0.339-0.551-0.554-0.861
		c0.272-0.666,0.417-1.36,0.042-2.098c0.134-0.219,0.137-0.591,0.415-0.74C33.036,21.872,33.285,21.705,33.486,21.484z"/>
	<path style="fill-rule:evenodd;clip-rule:evenodd;fill:none;" d="M40.248,19.926c-0.56,0.093-1.145-0.153-1.646,0.238
		c-0.274-0.187-0.636-0.235-0.862-0.537c0-0.982,0-1.979,0-3.07c0.145-0.096,0.354-0.232,0.563-0.369
		c0.267-0.193,0.581-0.15,0.882,0.081c0.457,0.351,0.996,0.622,1.375,1.041c0.271,0.3,0.734,0.732,0.193,1.23
		C40.82,19.053,40.649,19.483,40.248,19.926z"/>
	<path style="fill-rule:evenodd;clip-rule:evenodd;fill:none;" d="M33.534,16.269c0.278,0.048,0.488-0.057,0.688-0.219
		c0.294,0.154,0.645,0.211,0.889,0.53c0,0.894,0,1.82,0,2.854c-0.145,0.114-0.365,0.287-0.644,0.507
		c-0.543-0.056-1.229,0.176-1.865-0.302c-0.086-0.245-0.271-0.511-0.301-0.881c-0.039-0.481,0.194-0.871,0.279-1.302
		C32.673,16.982,33.105,16.653,33.534,16.269z"/>
	<path style="fill-rule:evenodd;clip-rule:evenodd;fill:none;" d="M54.871,46.326c-0.048-0.127-0.095-0.253-0.143-0.381
		c-0.051,0.03-0.102,0.062-0.152,0.093c0-0.421,0.012-0.842-0.004-1.262c-0.008-0.234,0.063-0.467-0.138-0.694
		c-0.196-0.224-0.158-0.621-0.05-0.807c0.276-0.467,0.146-0.946,0.2-1.414c0.07-0.109,0.177-0.104,0.299-0.101
		c0.036,0.04,0.118,0.088,0.118,0.136c0.008,1.453,0.007,2.906,0.007,4.359C54.962,46.279,54.917,46.303,54.871,46.326z"/>
	<path style="fill-rule:evenodd;clip-rule:evenodd;fill:none;" d="M54.974,52.139c-0.173-0.017-0.242-0.022-0.325-0.03
		c-0.214-0.274,0.104-0.708-0.271-0.965c-0.063-0.043-0.076-0.323,0.047-0.488c0.306-0.41,0.118-0.885,0.145-1.329
		c0.031-0.533,0.007-1.07,0.007-1.541c0.162-0.127,0.289-0.227,0.398-0.311C54.974,48.968,54.974,50.521,54.974,52.139z"/>
	<path style="fill-rule:evenodd;clip-rule:evenodd;fill:none;" d="M29.6,18.62c0.146,0.146,0.246,0.247,0.349,0.35
		c0,0.21,0,0.423,0,0.545c-0.251,0.228-0.456,0.414-0.661,0.601c-0.328,0.245-0.45-0.342-0.8-0.149
		C28.502,19.187,28.502,19.187,29.6,18.62z"/>
	<path style="fill-rule:evenodd;clip-rule:evenodd;fill:none;" d="M24.038,23.857c0.469,0.639,0.448,0.799-0.238,1.703
		c-0.129,0-0.29,0.043-0.404-0.011c-0.147-0.069-0.257-0.218-0.383-0.333c0.124-0.31,0.22-0.591,0.304-0.877
		C23.4,24.05,23.811,24.048,24.038,23.857z"/>
	<path style="fill-rule:evenodd;clip-rule:evenodd;fill:none;" d="M43.592,18.882c0.316,0,0.594,0,0.865,0
		c0.183,0.229,0.372,0.466,0.607,0.763c-0.005,0.083-0.207,0.141-0.297,0.278c-0.383,0-0.763,0-1.176,0
		C43.592,19.596,43.592,19.287,43.592,18.882z"/>
	<path style="fill-rule:evenodd;clip-rule:evenodd;fill:none;" d="M50.041,25.776c-0.216,0-0.368,0.034-0.492-0.01
		c-0.124-0.044-0.221-0.167-0.381-0.297c0.095-0.432-0.199-0.947,0.185-1.288c0.182,0.18,0.366,0.363,0.55,0.546
		c0.046-0.046,0.092-0.093,0.139-0.138C50.041,24.948,50.041,25.309,50.041,25.776z"/>
	<path style="fill-rule:evenodd;clip-rule:evenodd;fill:none;" d="M47.28,15.245c0.052-0.043,0.158-0.134,0.276-0.233
		c0.697,0.185,0.974,0.961,1.711,1.223c-0.24,0.386-0.555,0.202-0.755,0.245C48.095,16.062,47.693,15.659,47.28,15.245z"/>
	<path style="fill-rule:evenodd;clip-rule:evenodd;fill:none;" d="M26.213,14.934c0.391-0.388,0.715-0.712,1.044-1.038
		c0.136,0,0.277,0,0.419,0c0.214,0.161,0.094,0.374,0.088,0.567C27.358,14.895,26.866,15.073,26.213,14.934z"/>
	<path style="fill-rule:evenodd;clip-rule:evenodd;fill:none;" d="M55.022,56.231c-0.197,0-0.268,0-0.338,0
		c-0.157-0.156-0.159-0.506-0.009-1.503c0.304-0.056,0.413,0.176,0.547,0.361C55.309,55.533,54.812,55.798,55.022,56.231z"/>
	<path style="fill-rule:evenodd;clip-rule:evenodd;fill:none;" d="M44.004,13.464c0.395,0,0.589-0.058,0.653,0.009
		c0.423,0.437,1.177,0.371,1.53,1.093C45.416,14.35,44.796,14.024,44.004,13.464z"/>
	<path style="fill-rule:evenodd;clip-rule:evenodd;fill:none;" d="M54.992,58.043c0,0.302,0,0.611,0,0.893
		c-0.085,0.148-0.203,0.091-0.359,0.113c0-0.409,0-0.814,0-1.247C54.811,57.74,54.847,57.97,54.992,58.043z"/>
	<path style="fill-rule:evenodd;clip-rule:evenodd;fill:none;" d="M18.249,57.101c0,0.381,0,0.715,0,1.054c-0.136,0-0.231,0-0.346,0
		C17.851,57.763,17.711,57.373,18.249,57.101z"/>
	<path style="fill-rule:evenodd;clip-rule:evenodd;fill:none;" d="M26.224,14.974c-0.185,0.159-0.397,0.343-0.594,0.513
		C25.658,15.141,25.87,14.957,26.224,14.974z"/>
	<path style="fill-rule:evenodd;clip-rule:evenodd;fill:none;" d="M37.041,10.324c-0.263,0.147-0.526,0.152-0.886,0.031
		C36.498,10.144,36.772,10.238,37.041,10.324z"/>
	<path style="fill-rule:evenodd;clip-rule:evenodd;fill:none;" d="M33.345,11.177c-0.066,0.106-0.149,0.24-0.284,0.456
		C33.02,11.109,33.02,11.109,33.345,11.177z"/>
</g>
</svg>
