<svg xmlns="http://www.w3.org/2000/svg" xml:space="preserve" width="72px" height="72px" viewBox="0 0 72 72">
    <g fill="currentColor">
        <path d="M35.946 51.035c.477.578.181 1.15.29 1.715h-1.001c-.204-.092-.328-.464-.606-.447-.878-1.188-.625-2.318.131-3.419-.224-.271-.427-.48-.703-.652-1.226-.768-1.394-1.74-.613-3.181.464-.858 1.146-1.535 1.692-2.376v-.592c-.262-.112-.179-.432-.375-.605-.372-.331-.74-.606-1.275-.587-.572.022-1.146.005-1.577.005-.751-.275-1.118-.814-1.608-1.269h-.648c-.601.321-.842.99-1.203 1.659v1.006l-.845.755c-.312-.116-.667.082-.996.237-1.271.595-2.083 1.488-2.466 2.924-.248.925-.69 1.729-1.08 2.58-.44.963-1.564 1.335-2.4.424-.098-.105-.203-.203-.305-.306-.743-.047-.743-.047-1.396-.533-.229-.94.339-1.612.885-2.194.722-.77 1.379-1.623 2.329-2.166.503-.287.769-.825.836-1.366.047-.376.36-.58.297-.921.525-.261 1.085-.265 1.429-.694.132-.475-.043-.901-.333-1.233-.396-.452-.54-.94-.509-1.526.025-.48.121-.986-.283-1.332l.598-1.178c.471-.416 1.145-.224 1.802-.275.342.761.976 1.215 1.435 1.723.589.089.745-.321.972-.528.093-.338-.118-.516-.197-.735.546-.869.035-1.611-.418-2.232-.772-1.057-1.843-1.7-3.19-1.923a15 15 0 0 0-1.536-.188c-.337-.02-.655-.003-1.014-.156-.409-.176-.938-.12-1.407.149-.431.247-.908.436-1.433.471-.188.476-.397.947-.854 1.27h-.624l-.538-.537v-1.107c.062-.056.131-.146.223-.197 1.094-.615 1.156-.587 1.63-1.665.316-.72.939-.923 1.521-.996.992-.125 2.03-.156 3.014-.002 1.121.175 2.259.494 3.089 1.369.229.243.563.274.769.533h5.38c.372.26.473.656.589.998-.234.792-1.065.766-1.509 1.259v1.112c.206.299.56.315.812.556.938-.641 1.512.041 2.131.671 1.73-.452 2.759-1.825 3.945-2.959v-1.567c-.205-.683-.59-.956-1.092-1.152-.467-.183-.866-.43-1.117-.968-.263-.563-.896-.866-1.443-1.158-.234-.125-.334-.361-.56-.42-.52-.227-.918.339-1.585.097l-.443-.575c.092-.481.501-.861.931-1.247 1.004-.261 1.982.323 3.035.16.582-.333.627-.975.813-1.629a23 23 0 0 1 2.899-2.69c.503-.391 1.231-.362 1.699-.844.691.032 1.158-.501 1.761-.705.501-.168.925-.498 1.472-.63.465-.111.848-.54 1.282-.802 1.202-.728 2.443-1.377 3.849-1.805l.499.691-.528.529v.91l.334.315c.729-.006 1.156-.698 1.835-.801.677-.103 1.323-.416 2.052-.275.293.144.271.532.466.716-.148.482-.52.804-.832 1.111.132.64.132.642.766.754.419.398.912.789.981 1.389-.023.428-.394.487-.507.78-.473-.023-.945.017-1.385-.083-.908-.208-1.174-.129-1.632.664-.034.06-.1.103-.152.155v.833c.404.63 1.066.886 1.688 1.239v.994l-.469.463c-.602.205-1.098-.216-1.661-.186-.536.029-1.078.006-1.585.049-1.383.43-2.231 1.532-3.198 2.483-.309.302-.586.641-.923.909-.874.7-1.185 1.728-1.58 2.696-.123.299-.169.695.073 1.008.628.813.545 1.758.525 2.432-.135.636-.413.856-.716.955-.557-.008-.534-.664-.964-.798-.41-.128-.587-.59-1.062-.607-.583.112-1.153.491-1.822.371-.504.458-.504.458-.621.911.257.583 1.002.628 1.28 1.167.105.792.485 1.464.88 2.227-.08.523.144 1.155-.2 1.765-.184.322.348.599.214.977.762.711.625 1.646.636 2.594.47.284.617.877 1.062 1.26v1.757l.693.528h1.142c.466.327.306.875.654 1.236.806.72 1.735-.081 2.615.074.141.139.267.267.395.395.975.268 2.098-.112 3.051-1.054h1.504a2.2 2.2 0 0 0 .725-1.26c.119-.61.465-.985.847-1.387.235-.249.428-.474.524-.867.228-.925.672-1.802.181-2.764.126-.506-.147-.95-.259-1.408a4.44 4.44 0 0 0-.915-1.77c-.349-.414-.496-.876-.594-1.231-.408-.564-1.063-.392-1.408-.808-.31-.374-.529-.814-.913-1.136-.302-.253-.564-.556-.845-.835-.076-.609-.416-1.124-.614-1.689-.223-.636.028-1.22.177-1.771.565-.876 1.459-1.322 2.268-1.851.841-.55 1.633-1.17 2.572-1.597.583-.264.986-.926 1.471-1.412.354-.063.701-.104.978.277v.852c-.007.013-.031.079-.076.127-.231.255-.451.503-.628.817a5.4 5.4 0 0 1-1.2 1.452c-.192.162-.439.322-.522.538-.334.87-1.038.901-1.791.876-.283-.009-.569-.001-.832-.001l-.709.709c-.017.066-.03.131-.047.196-.233.905-.234.905.216 1.892.112.247.31.468.229.733.42.67 1.169.936 1.649 1.497.234.274.671-.011.823.373 1.308.126 1.803 1.142 2.238 2.15.112.261.218.558.323.836.195.514.259 1.054.388 1.574.236.95.13 1.891.183 2.758-.597 1.304-1.316 2.475-1.704 3.813-.361.351-.761.668-1.075 1.055-1.049 1.291-2.614 1.646-4.024 2.284-.644-.141-1.211.277-1.855.232-.655-.046-1.277.271-1.963.226-.529-.036-1.008-.174-1.478-.362-.836-.331-1.682-.639-2.508-.985-.426-.178-.945-.313-1.182-.876-.211-.503-.71-.83-1.032-1.293-.486-.697-1.074-1.322-1.431-2.112-.057-.123-.198-.208-.314-.324.018-1.043-.168-2.023-1.079-2.784-.765.705-1.918.602-2.584 1.464v.758c1.164.427 1.88 1.418 2.766 2.252v.709l-.591.33c-.496.318-1.012.068-1.498-.257-.66.066-.34.773-.753 1.063"/>
        <path d="M20.985 38.736c.293-.038.369.098.322.306-.099.172-.216.111-.315.128-.164-.144-.16-.287-.007-.434"/>
    </g>
</svg>
