<?xml version="1.0" encoding="iso-8859-1"?>
<!-- Generator: Adobe Illustrator 16.0.0, SVG Export Plug-In . SVG Version: 6.00 Build 0)  -->
<!DOCTYPE svg PUBLIC "-//W3C//DTD SVG 1.1//EN" "http://www.w3.org/Graphics/SVG/1.1/DTD/svg11.dtd">
<svg version="1.1" id="Layer_1" xmlns="http://www.w3.org/2000/svg" xmlns:xlink="http://www.w3.org/1999/xlink" x="0px" y="0px"
	 width="72.18px" height="70.921px" viewBox="0 0 72.18 70.921" style="enable-background:new 0 0 72.18 70.921;"
	 xml:space="preserve">
<g>
	<path style="fill-rule:evenodd;clip-rule:evenodd;fill:none;" d="M-6.983,78.048c0-28.297,0-56.591,0-84.887
		c28.799,0,57.599,0,86.399,0c0,28.296,0,56.59,0,84.887C50.616,78.048,21.816,78.048-6.983,78.048z M24.333,66.357
		c-0.069-0.213-0.198-0.39-0.469-0.407c-0.251,0.063-0.199,0.218-0.111,0.407c0.187,0,0.385,0,0.58,0.059
		c0.567,0.936,1.433,1.209,2.547,1.005c0.199,0.233,0.405,0.475,0.549,0.642c0.682,0,1.276,0,1.863,0
		c0.005-0.119,0.008-0.189,0.014-0.32c-0.615-0.122-1.204-0.419-1.785-0.279c-0.488-0.34-1.033-0.428-1.338-0.863
		C25.542,66.688,24.981,66.182,24.333,66.357z M35.946,51.035c0.413-0.29,0.093-0.997,0.751-1.068
		c0.486,0.325,1.002,0.575,1.498,0.257c0.223-0.124,0.445-0.248,0.591-0.33c0-0.308,0-0.517,0-0.709
		c-0.886-0.834-1.602-1.825-2.766-2.252c0-0.297,0-0.538,0-0.758c0.666-0.862,1.819-0.759,2.584-1.464
		c0.911,0.761,1.097,1.741,1.079,2.784c0.116,0.116,0.258,0.201,0.314,0.324c0.356,0.79,0.944,1.415,1.431,2.112
		c0.322,0.463,0.821,0.79,1.032,1.293c0.236,0.563,0.756,0.698,1.182,0.876c0.826,0.347,1.672,0.654,2.508,0.985
		c0.47,0.188,0.948,0.326,1.478,0.362c0.686,0.046,1.308-0.271,1.963-0.226c0.645,0.045,1.212-0.373,1.855-0.232
		c1.41-0.638,2.976-0.993,4.024-2.284c0.314-0.387,0.714-0.704,1.075-1.055c0.388-1.338,1.107-2.509,1.704-3.813
		c-0.053-0.867,0.054-1.808-0.183-2.758c-0.129-0.521-0.192-1.061-0.388-1.574c-0.105-0.278-0.211-0.575-0.323-0.836
		c-0.436-1.009-0.931-2.024-2.238-2.15c-0.152-0.384-0.589-0.099-0.823-0.373c-0.48-0.562-1.229-0.827-1.649-1.497
		c0.08-0.266-0.117-0.487-0.229-0.733c-0.45-0.987-0.449-0.987-0.216-1.892c0.017-0.065,0.03-0.13,0.047-0.196
		c0.229-0.229,0.458-0.458,0.709-0.709c0.263,0,0.549-0.008,0.832,0.001c0.753,0.025,1.457-0.006,1.791-0.876
		c0.083-0.215,0.33-0.375,0.522-0.538c0.487-0.413,0.892-0.908,1.2-1.452c0.177-0.313,0.396-0.562,0.628-0.817
		c0.045-0.048,0.069-0.114,0.076-0.127c0-0.327,0-0.608,0-0.852c-0.276-0.382-0.624-0.34-0.978-0.277
		c-0.484,0.486-0.888,1.148-1.471,1.412c-0.939,0.427-1.731,1.047-2.572,1.597c-0.809,0.529-1.702,0.974-2.268,1.851
		c-0.148,0.551-0.399,1.135-0.177,1.771c0.198,0.566,0.538,1.08,0.614,1.689c0.28,0.279,0.543,0.582,0.845,0.835
		c0.384,0.321,0.604,0.762,0.913,1.136c0.345,0.416,1,0.243,1.408,0.808c0.098,0.355,0.245,0.817,0.594,1.231
		c0.425,0.506,0.757,1.122,0.915,1.77c0.111,0.458,0.385,0.902,0.259,1.408c0.491,0.962,0.047,1.839-0.181,2.764
		c-0.097,0.394-0.289,0.618-0.524,0.867c-0.382,0.401-0.728,0.776-0.847,1.387c-0.082,0.416-0.296,0.901-0.725,1.26
		c-0.483,0-1.013,0-1.504,0c-0.953,0.941-2.076,1.321-3.051,1.054c-0.128-0.128-0.254-0.256-0.395-0.395
		c-0.88-0.155-1.81,0.646-2.615-0.074c-0.349-0.361-0.188-0.909-0.654-1.236c-0.403,0-0.861,0-1.142,0
		c-0.32-0.243-0.518-0.395-0.693-0.528c0-0.629,0-1.201,0-1.757c-0.444-0.383-0.592-0.976-1.062-1.26
		c-0.011-0.948,0.126-1.883-0.636-2.594c0.134-0.378-0.397-0.654-0.214-0.977c0.344-0.609,0.12-1.241,0.2-1.765
		c-0.395-0.763-0.774-1.435-0.88-2.227c-0.278-0.539-1.023-0.584-1.28-1.167c0.117-0.453,0.117-0.453,0.621-0.911
		c0.669,0.12,1.239-0.259,1.822-0.371c0.475,0.018,0.651,0.479,1.062,0.607c0.43,0.134,0.407,0.79,0.964,0.798
		c0.303-0.099,0.581-0.319,0.716-0.955c0.02-0.673,0.103-1.619-0.525-2.432c-0.242-0.313-0.196-0.709-0.073-1.008
		c0.396-0.968,0.706-1.996,1.58-2.696c0.337-0.268,0.614-0.607,0.923-0.909c0.967-0.951,1.815-2.053,3.198-2.483
		c0.507-0.043,1.049-0.02,1.585-0.049c0.563-0.031,1.06,0.39,1.661,0.186c0.15-0.15,0.33-0.327,0.469-0.463c0-0.358,0-0.673,0-0.994
		c-0.621-0.353-1.283-0.609-1.688-1.239c0-0.259,0-0.547,0-0.833c0.053-0.053,0.118-0.095,0.152-0.155
		c0.458-0.793,0.724-0.872,1.632-0.664c0.439,0.1,0.912,0.06,1.385,0.083c0.113-0.293,0.483-0.352,0.507-0.78
		c-0.069-0.6-0.563-0.99-0.981-1.389c-0.634-0.112-0.634-0.114-0.766-0.754c0.313-0.307,0.684-0.629,0.832-1.111
		c-0.194-0.184-0.173-0.572-0.466-0.716c-0.729-0.141-1.375,0.173-2.052,0.275c-0.679,0.103-1.106,0.795-1.835,0.801
		c-0.111-0.104-0.213-0.201-0.334-0.315c0-0.298,0-0.612,0-0.91c0.221-0.22,0.423-0.423,0.528-0.529
		c-0.165-0.229-0.33-0.457-0.499-0.691c-1.405,0.428-2.646,1.077-3.849,1.805c-0.435,0.262-0.817,0.69-1.282,0.802
		c-0.547,0.132-0.971,0.461-1.472,0.63c-0.603,0.204-1.069,0.736-1.761,0.705c-0.468,0.482-1.196,0.454-1.699,0.844
		c-1.065,0.826-2.044,1.749-2.899,2.69c-0.186,0.655-0.23,1.296-0.813,1.629c-1.053,0.164-2.031-0.421-3.035-0.16
		c-0.43,0.386-0.839,0.766-0.931,1.247c0.207,0.269,0.378,0.491,0.443,0.575c0.667,0.242,1.066-0.324,1.585-0.097
		c0.226,0.059,0.326,0.295,0.56,0.42c0.547,0.292,1.18,0.595,1.443,1.158c0.25,0.538,0.65,0.786,1.117,0.968
		c0.502,0.196,0.887,0.47,1.092,1.152c0,0.399,0,0.974,0,1.567c-1.187,1.134-2.215,2.507-3.945,2.959
		c-0.619-0.63-1.193-1.312-2.131-0.671c-0.252-0.241-0.606-0.257-0.812-0.556c0-0.357,0-0.743,0-1.112
		c0.444-0.493,1.275-0.466,1.509-1.259c-0.116-0.342-0.217-0.738-0.589-0.998c-1.793,0-3.591,0-5.38,0
		c-0.206-0.259-0.54-0.291-0.769-0.533c-0.83-0.875-1.968-1.193-3.089-1.369c-0.983-0.154-2.021-0.123-3.014,0.002
		c-0.581,0.073-1.204,0.276-1.521,0.996c-0.475,1.078-0.536,1.05-1.63,1.665c-0.092,0.051-0.161,0.141-0.223,0.197
		c0,0.391,0,0.75,0,1.107c0.181,0.181,0.359,0.359,0.538,0.537c0.216,0,0.432,0,0.624,0c0.457-0.323,0.666-0.794,0.854-1.27
		c0.525-0.035,1.002-0.225,1.433-0.471c0.469-0.269,0.998-0.325,1.407-0.149c0.358,0.153,0.676,0.137,1.014,0.156
		c0.518,0.031,1.022,0.103,1.536,0.188c1.348,0.223,2.418,0.866,3.19,1.923c0.453,0.621,0.965,1.363,0.418,2.232
		c0.079,0.22,0.29,0.397,0.197,0.735c-0.228,0.207-0.383,0.617-0.972,0.528c-0.459-0.508-1.092-0.962-1.435-1.723
		c-0.658,0.052-1.331-0.141-1.802,0.275c-0.217,0.426-0.381,0.751-0.598,1.178c0.404,0.346,0.309,0.852,0.283,1.332
		c-0.031,0.586,0.113,1.074,0.509,1.526c0.29,0.332,0.466,0.759,0.333,1.233c-0.344,0.43-0.904,0.434-1.429,0.694
		c0.063,0.341-0.25,0.545-0.297,0.921c-0.067,0.541-0.333,1.079-0.836,1.366c-0.95,0.543-1.607,1.396-2.329,2.166
		c-0.546,0.582-1.114,1.254-0.885,2.194c0.654,0.486,0.654,0.486,1.396,0.533c0.102,0.103,0.208,0.2,0.305,0.306
		c0.836,0.911,1.96,0.539,2.4-0.424c0.389-0.851,0.832-1.655,1.08-2.58c0.383-1.436,1.195-2.329,2.466-2.924
		c0.329-0.155,0.684-0.354,0.996-0.237c0.317-0.283,0.585-0.521,0.845-0.755c0-0.378,0-0.734,0-1.006
		c0.361-0.669,0.602-1.338,1.203-1.659c0.261,0,0.469,0,0.648,0c0.49,0.454,0.857,0.993,1.608,1.269
		c0.431,0,1.005,0.018,1.577-0.005c0.535-0.02,0.903,0.256,1.275,0.587c0.195,0.174,0.112,0.493,0.375,0.605
		c0,0.215,0,0.431,0,0.592c-0.546,0.841-1.228,1.518-1.692,2.376c-0.781,1.44-0.613,2.413,0.613,3.181
		c0.276,0.172,0.479,0.382,0.703,0.652c-0.756,1.101-1.01,2.23-0.131,3.419c0.278-0.017,0.403,0.355,0.606,0.447
		c0.363,0,0.644,0,1.001,0C36.127,52.186,36.422,51.613,35.946,51.035z M36.376,67.68c-0.539,0.315-1.013,0.717-1.612,0.216
		c-0.363,0.088-0.622-0.305-0.986-0.216c-0.478-0.511-1.001-0.142-1.421,0.03c-0.427,0.176-0.98,0.34-1.152,0.964
		c0.715,0.296,1.391,0.58,2.172,0.524c0.939-0.066,1.872-0.025,2.82-0.182c1.082-0.178,2.216-0.014,3.326-0.059
		c0.292-0.012,0.394,0.312,0.681,0.229c0.215-0.386,0.647-0.099,0.921-0.279c0.354-0.169,0.314-0.446,0.219-0.771
		c-0.503-0.046-0.987-0.031-1.497,0.17c-0.427,0.17-0.893,0.404-1.42,0.193c-0.257-0.263-0.532-0.543-0.806-0.82
		C37.184,67.68,36.754,67.68,36.376,67.68z M43.456,68.433c0.304-0.388,0.785-0.218,1.073-0.512c0.62,0.454,0.99-0.029,1.503-0.401
		c-0.891-0.158-1.627,0.375-2.367,0.15C43.498,67.883,43.248,67.974,43.456,68.433z M47.6,67.272
		c0.237-0.177,0.589-0.143,0.738-0.425c-0.127-0.276-0.24-0.492-0.396-0.479c-0.255,0.281-0.429,0.475-0.602,0.665
		C47.385,67.075,47.487,67.169,47.6,67.272z M20.985,38.736c-0.154,0.146-0.158,0.29,0.007,0.434
		c0.099-0.017,0.216,0.044,0.315-0.128C21.354,38.834,21.278,38.698,20.985,38.736z"/>
	<path fill="currentColor" d="M35.946,51.035c0.477,0.578,0.181,1.15,0.29,1.715c-0.358,0-0.639,0-1.001,0
		c-0.204-0.092-0.328-0.464-0.606-0.447c-0.878-1.188-0.625-2.318,0.131-3.419c-0.224-0.271-0.427-0.48-0.703-0.652
		c-1.226-0.768-1.394-1.74-0.613-3.181c0.464-0.858,1.146-1.535,1.692-2.376c0-0.161,0-0.377,0-0.592
		c-0.262-0.112-0.179-0.432-0.375-0.605c-0.372-0.331-0.74-0.606-1.275-0.587c-0.572,0.022-1.146,0.005-1.577,0.005
		c-0.751-0.275-1.118-0.814-1.608-1.269c-0.179,0-0.387,0-0.648,0c-0.601,0.321-0.842,0.99-1.203,1.659c0,0.271,0,0.628,0,1.006
		c-0.26,0.233-0.528,0.472-0.845,0.755c-0.312-0.116-0.667,0.082-0.996,0.237c-1.271,0.595-2.083,1.488-2.466,2.924
		c-0.248,0.925-0.69,1.729-1.08,2.58c-0.44,0.963-1.564,1.335-2.4,0.424c-0.098-0.105-0.203-0.203-0.305-0.306
		c-0.743-0.047-0.743-0.047-1.396-0.533c-0.229-0.94,0.339-1.612,0.885-2.194c0.722-0.77,1.379-1.623,2.329-2.166
		c0.503-0.287,0.769-0.825,0.836-1.366c0.047-0.376,0.36-0.58,0.297-0.921c0.525-0.261,1.085-0.265,1.429-0.694
		c0.132-0.475-0.043-0.901-0.333-1.233c-0.396-0.452-0.54-0.94-0.509-1.526c0.025-0.48,0.121-0.986-0.283-1.332
		c0.217-0.427,0.381-0.752,0.598-1.178c0.471-0.416,1.145-0.224,1.802-0.275c0.342,0.761,0.976,1.215,1.435,1.723
		c0.589,0.089,0.745-0.321,0.972-0.528c0.093-0.338-0.118-0.516-0.197-0.735c0.546-0.869,0.035-1.611-0.418-2.232
		c-0.772-1.057-1.843-1.7-3.19-1.923c-0.514-0.085-1.019-0.157-1.536-0.188c-0.337-0.02-0.655-0.003-1.014-0.156
		c-0.409-0.176-0.938-0.12-1.407,0.149c-0.431,0.247-0.908,0.436-1.433,0.471c-0.188,0.476-0.397,0.947-0.854,1.27
		c-0.192,0-0.408,0-0.624,0c-0.178-0.178-0.356-0.356-0.538-0.537c0-0.357,0-0.716,0-1.107c0.062-0.056,0.131-0.146,0.223-0.197
		c1.094-0.615,1.156-0.587,1.63-1.665c0.316-0.72,0.939-0.923,1.521-0.996c0.992-0.125,2.03-0.156,3.014-0.002
		c1.121,0.175,2.259,0.494,3.089,1.369c0.229,0.243,0.563,0.274,0.769,0.533c1.79,0,3.587,0,5.38,0
		c0.372,0.26,0.473,0.656,0.589,0.998c-0.234,0.792-1.065,0.766-1.509,1.259c0,0.369,0,0.755,0,1.112
		c0.206,0.299,0.56,0.315,0.812,0.556c0.938-0.641,1.512,0.041,2.131,0.671c1.73-0.452,2.759-1.825,3.945-2.959
		c0-0.593,0-1.168,0-1.567c-0.205-0.683-0.59-0.956-1.092-1.152c-0.467-0.183-0.866-0.43-1.117-0.968
		c-0.263-0.563-0.896-0.866-1.443-1.158c-0.234-0.125-0.334-0.361-0.56-0.42c-0.52-0.227-0.918,0.339-1.585,0.097
		c-0.065-0.084-0.237-0.306-0.443-0.575c0.092-0.481,0.501-0.861,0.931-1.247c1.004-0.261,1.982,0.323,3.035,0.16
		c0.582-0.333,0.627-0.975,0.813-1.629c0.855-0.941,1.834-1.865,2.899-2.69c0.503-0.391,1.231-0.362,1.699-0.844
		c0.691,0.032,1.158-0.501,1.761-0.705c0.501-0.168,0.925-0.498,1.472-0.63c0.465-0.111,0.848-0.54,1.282-0.802
		c1.202-0.728,2.443-1.377,3.849-1.805c0.169,0.234,0.334,0.463,0.499,0.691c-0.105,0.106-0.308,0.309-0.528,0.529
		c0,0.298,0,0.611,0,0.91c0.121,0.114,0.223,0.211,0.334,0.315c0.729-0.006,1.156-0.698,1.835-0.801
		c0.677-0.103,1.323-0.416,2.052-0.275c0.293,0.144,0.271,0.532,0.466,0.716c-0.148,0.482-0.52,0.804-0.832,1.111
		c0.132,0.64,0.132,0.642,0.766,0.754c0.419,0.398,0.912,0.789,0.981,1.389c-0.023,0.428-0.394,0.487-0.507,0.78
		c-0.473-0.023-0.945,0.017-1.385-0.083c-0.908-0.208-1.174-0.129-1.632,0.664c-0.034,0.06-0.1,0.103-0.152,0.155
		c0,0.286,0,0.574,0,0.833c0.404,0.63,1.066,0.886,1.688,1.239c0,0.321,0,0.636,0,0.994c-0.139,0.136-0.318,0.313-0.469,0.463
		c-0.602,0.205-1.098-0.216-1.661-0.186c-0.536,0.029-1.078,0.006-1.585,0.049c-1.383,0.43-2.231,1.532-3.198,2.483
		c-0.309,0.302-0.586,0.641-0.923,0.909c-0.874,0.7-1.185,1.728-1.58,2.696c-0.123,0.299-0.169,0.695,0.073,1.008
		c0.628,0.813,0.545,1.758,0.525,2.432c-0.135,0.636-0.413,0.856-0.716,0.955c-0.557-0.008-0.534-0.664-0.964-0.798
		c-0.41-0.128-0.587-0.59-1.062-0.607c-0.583,0.112-1.153,0.491-1.822,0.371c-0.504,0.458-0.504,0.458-0.621,0.911
		c0.257,0.583,1.002,0.628,1.28,1.167c0.105,0.792,0.485,1.464,0.88,2.227c-0.08,0.523,0.144,1.155-0.2,1.765
		c-0.184,0.322,0.348,0.599,0.214,0.977c0.762,0.711,0.625,1.646,0.636,2.594c0.47,0.284,0.617,0.877,1.062,1.26
		c0,0.556,0,1.128,0,1.757c0.176,0.134,0.373,0.285,0.693,0.528c0.28,0,0.738,0,1.142,0c0.466,0.327,0.306,0.875,0.654,1.236
		c0.806,0.72,1.735-0.081,2.615,0.074c0.141,0.139,0.267,0.267,0.395,0.395c0.975,0.268,2.098-0.112,3.051-1.054
		c0.491,0,1.021,0,1.504,0c0.429-0.358,0.643-0.844,0.725-1.26c0.119-0.61,0.465-0.985,0.847-1.387
		c0.235-0.249,0.428-0.474,0.524-0.867c0.228-0.925,0.672-1.802,0.181-2.764c0.126-0.506-0.147-0.95-0.259-1.408
		c-0.158-0.647-0.49-1.264-0.915-1.77c-0.349-0.414-0.496-0.876-0.594-1.231c-0.408-0.564-1.063-0.392-1.408-0.808
		c-0.31-0.374-0.529-0.814-0.913-1.136c-0.302-0.253-0.564-0.556-0.845-0.835c-0.076-0.609-0.416-1.124-0.614-1.689
		c-0.223-0.636,0.028-1.22,0.177-1.771c0.565-0.876,1.459-1.322,2.268-1.851c0.841-0.55,1.633-1.17,2.572-1.597
		c0.583-0.264,0.986-0.926,1.471-1.412c0.354-0.063,0.701-0.104,0.978,0.277c0,0.244,0,0.524,0,0.852
		c-0.007,0.013-0.031,0.079-0.076,0.127c-0.231,0.255-0.451,0.503-0.628,0.817c-0.309,0.544-0.713,1.039-1.2,1.452
		c-0.192,0.162-0.439,0.322-0.522,0.538c-0.334,0.87-1.038,0.901-1.791,0.876c-0.283-0.009-0.569-0.001-0.832-0.001
		c-0.251,0.251-0.48,0.48-0.709,0.709c-0.017,0.066-0.03,0.131-0.047,0.196c-0.233,0.905-0.234,0.905,0.216,1.892
		c0.112,0.247,0.31,0.468,0.229,0.733c0.42,0.67,1.169,0.936,1.649,1.497c0.234,0.274,0.671-0.011,0.823,0.373
		c1.308,0.126,1.803,1.142,2.238,2.15c0.112,0.261,0.218,0.558,0.323,0.836c0.195,0.514,0.259,1.054,0.388,1.574
		c0.236,0.95,0.13,1.891,0.183,2.758c-0.597,1.304-1.316,2.475-1.704,3.813c-0.361,0.351-0.761,0.668-1.075,1.055
		c-1.049,1.291-2.614,1.646-4.024,2.284c-0.644-0.141-1.211,0.277-1.855,0.232c-0.655-0.046-1.277,0.271-1.963,0.226
		c-0.529-0.036-1.008-0.174-1.478-0.362c-0.836-0.331-1.682-0.639-2.508-0.985c-0.426-0.178-0.945-0.313-1.182-0.876
		c-0.211-0.503-0.71-0.83-1.032-1.293c-0.486-0.697-1.074-1.322-1.431-2.112c-0.057-0.123-0.198-0.208-0.314-0.324
		c0.018-1.043-0.168-2.023-1.079-2.784c-0.765,0.705-1.918,0.602-2.584,1.464c0,0.22,0,0.461,0,0.758
		c1.164,0.427,1.88,1.418,2.766,2.252c0,0.192,0,0.401,0,0.709c-0.146,0.082-0.368,0.206-0.591,0.33
		c-0.496,0.318-1.012,0.068-1.498-0.257C36.039,50.038,36.359,50.745,35.946,51.035z"/>
	<path fill="currentColor" d="M20.985,38.736c0.293-0.038,0.369,0.098,0.322,0.306
		c-0.099,0.172-0.216,0.111-0.315,0.128C20.828,39.026,20.832,38.883,20.985,38.736z"/>
</g>
</svg>
