<?xml version="1.0" encoding="iso-8859-1"?>
<!-- Generator: Adobe Illustrator 16.0.0, SVG Export Plug-In . SVG Version: 6.00 Build 0)  -->
<!DOCTYPE svg PUBLIC "-//W3C//DTD SVG 1.1//EN" "http://www.w3.org/Graphics/SVG/1.1/DTD/svg11.dtd">
<svg version="1.1" id="Layer_1" xmlns="http://www.w3.org/2000/svg" xmlns:xlink="http://www.w3.org/1999/xlink" x="0px" y="0px"
	 width="72.18px" height="70.921px" viewBox="0 0 72.18 70.921" style="enable-background:new 0 0 72.18 70.921;"
	 xml:space="preserve">
<g>
	
	<path fill="currentColor" d="M50.904,50.877c-0.287,0.469-0.458,0.912-0.992,1.087
		c-0.274,0.09-0.556,0.395-0.677,0.671c-0.254,0.587-0.71,0.911-1.308,1.211c-1.212,0-2.505,0-3.856,0
		c-0.127-0.157-0.283-0.352-0.584-0.724c-0.128-0.257,0.372-0.627,0.29-1.081c0.64-0.75,1.385-1.368,2.342-1.849
		c0.338,0,0.769,0,1.206,0c0.649-0.585,1.11-1.317,1.607-2.036c0.092-0.851,0.102-1.683-0.768-2.293
		c-0.19-0.083-0.468,0.077-0.746-0.11c-0.353-0.238-0.766-0.42-1.18-0.525c-0.811-0.207-1.412-0.64-1.822-1.369
		c-0.118-0.21-0.311-0.392-0.5-0.546c-0.616-0.501-0.979-1.131-1.002-1.837c-0.013-0.396-0.029-0.794,0.003-1.188
		c0.059-0.714-0.322-1.204-0.824-1.599c-0.506-0.397-1.077-0.623-1.691-0.169c-0.959-0.012-1.651,0.627-2.334,1.118
		c-1.036,0.742-2.101,1.137-3.358,1.043c-0.107-0.009-0.215-0.002-0.368-0.002c-0.681,0.834-0.647,2.03-1.364,2.927
		c-0.024,0.608,0.097,1.284-0.168,1.952c-0.244,0.206-0.489,0.414-0.718,0.608c0.161,0.399-0.085,0.721-0.247,0.897
		c-0.743,0.816-0.861,1.777-0.808,2.782c-1.293,1.023-2.455,2.143-3.485,3.412c-0.213,0.263-0.547,0.575-1.009,0.612
		c-0.343,0.028-0.673,0.442-1.013-0.01c-0.441,0.145-0.783-0.267-1.204-0.22c-0.405,0.045-0.768,0.219-1.139,0.377
		c-0.185,0.078-0.415,0.051-0.646,0.072c-0.231-0.268-0.463-0.537-0.779-0.903c0-0.19,0-0.546,0-0.976
		c0.557-0.396,0.962-1.009,1.222-1.679c0.17-0.438,0.563-0.62,0.771-1.009c0.81,0.087,1.63-0.17,2.398,0.227
		c1.481-0.436,1.705-1.457,1.833-2.533c0.094-0.784,0.175-1.554,0.417-2.314c0.13-0.411-0.07-0.966,0.27-1.283
		c0.364-0.339-0.026-0.878,0.415-1.136c-0.053-0.724,0.166-1.479-0.295-2.199c-0.265,0-0.58,0-0.916,0
		c-0.495,0.655-0.234,1.455-0.313,2.249c-0.235,0.218-0.498,0.46-0.789,0.731c-0.295,0.007-0.596,0.014-0.917-0.27
		c-0.427-0.378-0.946-0.664-1.423-0.988c-0.357-0.244-0.79-0.357-1.33-0.063c-0.923,0.502-1.994,0.517-3.044,0.473
		c-0.231-0.01-0.313-0.305-0.558-0.226c-0.266-0.601-0.945-0.312-1.369-0.624c-0.182-0.134-0.638-0.119-0.82,0.021
		c-0.341,0.266-0.683,0.111-1.006,0.176c-0.272,0.146-0.528,0.31-0.806,0.423c-0.677,0.279-1.324,0.612-1.755,1.218
		c-0.204,0.287-0.595,0.24-0.758,0.528c-0.174,0.309-0.607,0.306-0.747,0.646c-0.141,0.343-0.478,0.514-0.706,0.822
		c-0.371,0-0.757,0-1.167,0c-0.488-0.374-0.636-1.072-1.314-1.458c-0.198,0-0.512,0-0.732,0C7.259,43.239,7.52,42.226,7.487,41.3
		c0.142-0.499,0.523-0.814,0.864-1.159c0.101-0.102,0.206-0.201,0.305-0.306c0.727-0.764,0.745-1.067,0.111-2.1
		c0.047-1.604,0.283-3.156,1.7-4.223c0.218-0.889-0.207-1.492-0.799-1.985c-0.069-0.583-0.389-1.096-0.18-1.763
		c0.104-0.166,0.155-0.49,0.463-0.716c0.268,0,0.581,0,0.917,0c0.31,0.31,0.641,0.642,1.01,1.01c0.271,0,0.587,0,0.93,0
		c0.683-0.485,0.905-1.315,1.126-2.072c0.213-0.727,0.604-1.296,1.072-1.823c0.507-0.57,1.093-1.06,1.218-1.878
		c0.053-0.349,0.405-0.545,0.547-0.851c0.25-0.544,0.47-1.101,0.72-1.695c0.274-0.135,0.601-0.297,0.927-0.459
		c0.363,0.295,0.999,0.364,0.972,1.013c0.321,0.053,0.558,0.059,0.733-0.184c0.083-0.115,0.256-0.188,0.293-0.31
		c0.439-1.425,1.367-2.6,2.113-3.992c0.604-0.246,1.343-0.486,2.154-0.469c0.124-0.413,0.247-0.83,0.371-1.246
		c0.19-0.271,0.53-0.294,0.771-0.471c0.563,0.167,0.932,0.521,1.104,1.147c-0.476,0.721-1.247,0.81-2.058,0.802
		c-0.435,0.686-0.454,1.534-0.897,2.226c-0.148,0.232-0.063,0.614-0.088,0.958c0.534,0.163,0.901-0.117,1.217-0.405
		c0.609-0.559,1.173-1.168,1.765-1.748c0.335-0.328,0.478-0.734,0.533-1.184c0.598-0.421,1.281-0.25,2.047-0.287
		c0.084,0.154,0.206,0.378,0.327,0.602c0.278,0.658-0.062,1.345-0.243,2.087c0.158,0.405,0.601,0.474,0.873,0.318
		c0.962-0.551,2.111-0.79,2.878-1.694c0.276,0,0.561,0,0.843,0c0.531,0.201,0.543,0.761,0.757,1.17
		c0.158,0.303,0.041,0.677-0.181,0.974c-0.394,0.53-0.26,1.078,0.112,1.497c0.852,0.959,1.783,1.841,3.084,2.182
		c0.095,0.024,0.21,0.055,0.27,0.124c0.338,0.384,0.804,0.518,1.266,0.596c0.874,0.148,1.524,0.703,2.211,1.173
		c0.385,0.264,0.796,0.408,1.212,0.46c0.561,0.071,1.234,0.175,1.686-0.063c0.506-0.267,1.062,0.128,1.508-0.311
		c0.124-0.122,0.499-0.024,0.787,0.075c0.797,0.273,1.593,0.619,2.452,0.575c0.641,0.104,0.844,0.806,1.438,0.988
		c0.51,0.156,0.99,0.409,1.616,0.521c0.595,0.709,1.447,1.216,2.429,1.69c0.814-0.083,1.674,0.148,2.588,0.41
		c0.866-0.333,1.534-0.108,2.426,0.882c-0.161,0.434-0.313,0.893-0.247,1.392c0.053,0.395,0.201,0.8,0.533,0.952
		c0.875,0.403,1.564,1.07,2.38,1.552c0.527,0.312,0.64,0.883,0.747,1.41c0.094,0.469-0.202,0.85-0.524,1.177
		c-0.176,0.181-0.354,0.357-0.488,0.491c-0.235,0.589,0.216,1.044,0.167,1.592c0.632,0.406,0.913,1.134,1.441,1.656
		c0.33,0.327,0.336,0.819,0.261,1.353c-0.261,0.829-1.235,1.137-1.705,2.012c0,0.355-0.021,0.82,0.006,1.283
		c0.03,0.531-0.215,1-0.312,1.5c-0.043,0.221-0.132,0.551-0.431,0.68c-0.808,0.352-1.463,0.872-1.887,1.664
		c-0.065,0.122-0.186,0.216-0.22,0.253c-0.529,0.149-0.925-0.019-1.241-0.278c-0.397-0.326-0.832-0.683-0.871-1.247
		c-0.022-0.319-0.231-0.551-0.271-0.877c-0.04-0.318-0.257-0.753-0.627-0.907c-0.942-0.39-1.037-1.185-1.059-2.034
		c-0.002-0.107,0-0.217,0-0.34c-0.201-0.188-0.411-0.385-0.595-0.557c-0.023-0.107-0.052-0.173-0.052-0.239
		c-0.003-0.971,0.053-1.947-0.019-2.914c-0.057-0.753,0.227-1.444,0.242-2.18c0.01-0.438-0.096-0.835-0.369-1.142
		c-0.345-0.385-0.382-0.855-0.596-1.467c-0.259-0.268-0.583-0.726-1.245-0.851c-0.206,0.116-0.562,0.169-0.803,0.486
		c0,0.615,0,1.257,0,1.903c-0.824,0.986-1.479,2.086-2.336,3.039c-0.302,0.337-0.348,0.819-0.241,1.384
		c0.121,0.092,0.32,0.241,0.52,0.393c0.422,0.229,0.786-0.056,1.191-0.23c0.519-0.223,0.968-0.682,1.628-0.508
		c0.212,0.212,0.441,0.442,0.701,0.7c0,0.426,0,0.885,0,1.25c-0.22,0.609-0.582,1.047-0.658,1.661
		c-0.043,0.349-0.129,0.784-0.461,1.104c-0.292,0.279-0.392,0.697-0.372,1.137c0.028,0.629-0.205,1.225-0.576,1.694
		C51.001,49.835,50.85,50.353,50.904,50.877z M12.507,40.542c-0.789-0.274-1.202,0.21-1.596,0.535
		c-0.442,0.366-0.522,0.943-0.305,1.577C11.595,42.269,12.281,41.652,12.507,40.542z M36.216,35.848c0-0.388,0-0.745,0-0.911
		c-0.243-0.338-0.407-0.565-0.639-0.888c-0.167,0.312-0.402,0.35-0.609,0.432c-0.093,0.218-0.184,0.429-0.263,0.614
		c0.195,0.369,0.378,0.715,0.555,1.049C35.764,36.135,35.762,36.126,36.216,35.848z M11.028,36.32c0.5-0.05,0.24,0.336,0.419,0.442
		c0.402,0.157,0.649-0.185,0.998-0.263c-0.003-0.334,0.077-0.68-0.053-1.001c-0.268,0-0.482,0-0.697,0
		C11.317,35.61,11.467,36.093,11.028,36.32z"/>
	
	
	
</g>
</svg>
