<svg xmlns="http://www.w3.org/2000/svg" xml:space="preserve" width="72px" height="72px" viewBox="0 0 72 72">
    <path fill="currentColor" d="M14.925 54.288h.583c.242.068.356.313.487.418.529 1.129.825 2.262 1.033 3.415.256.099.5.054.723.037.454-.189.196-.743.536-.976-.33-.948-.343-1.892.052-2.861h.979c.666.689.483 1.773 1.022 2.558l.383.001c.674-.759 1.065-1.685 2.004-2.218.608-.347.924-1.036 1.216-1.74a16.6 16.6 0 0 1 1.62-3.002c.339-.494.705-.956 1.151-1.348v-.655c-.069-.101-.17-.122-.28-.107-.202.027-.39-.002-.605.104-.863.429-1.786.745-2.621 1.219-.304.172-.638.208-.939.357-.404.198-.951.07-1.32-.221-.328-.886.291-1.541.449-2.297.012-.06.134-.117.125-.158-.205-.97.364-1.812.459-2.736.063-.624.364-1.215.51-1.839.055-.234.116-.467.111-.701-.014-.733.19-1.428.493-2.064.154-.32.141-.585.129-.887-.246-.128-.494-.053-.783-.056-.294.613-.76 1.145-.982 1.846-.087.273-.138.53-.143.799-.015.791-.005 1.583-.005 2.439l-.639.502h-1.401c-.732-.339-1.272-.855-1.2-1.793-.359-.533-.484-1.125-.449-1.495.244-.865.958-1.214.879-1.981.354-.338.717-.685 1.069-1.019v-.911c-.231-.528-.821-.532-1.263-.757-.167-.085-.369-.112-.562-.208-1.168-.584-1.216-.549-2.854-.253-.484.087-.997.013-1.474.013-.516-.73-.429-1.064.473-1.946.349.162.554-.246.881-.22.322.026.647.006.949-.023.87-.213 1.439-.839 1.992-1.461.561-.631 1.307-1.083 1.706-1.88a1.96 1.96 0 0 1 .832-.828c.531-.265.845-.734 1.271-1.076.192-.963-.911-1.583-.575-2.68.221-.427.549-.92 1.169-1.192.276-.121.571-.4.675-.676.3-.796 1.019-.935 1.667-1.187.353-.137.701-.257.987-.582-.313-.448-.263-.971-.231-1.493.411-.292.473-.866 1-1.152.502-.018 1.071-.09 1.435-.726l-1.043-.562c-.37-.618.32-1.101.046-1.711l-1.002-1.001c-.097-.53.086-.959.493-1.409.468-.062 1.066.114 1.539-.234.63-.462 1.487-.58 1.925-1.292.876.072 1.503-.42 2.2-.85a6.86 6.86 0 0 1 3.916.846c.878.482 1.34 1.23 1.577 2.165.108.42.248.833.375 1.257.697-.095.928-.556 1.14-1.031-.149-.311-.271-.625-.442-.909-.296-.492-.486-1.041-.923-1.463-.251-.242-.353-.639-.563-1.046v-1.042c.233-.209.645.126.711-.31 1.124.173 1.711 1.17 2.793 1.508.646-.479 1.558-.751 2.176-1.476.872-.084 1.7.005 2.521.386.414.192.902.369 1.242.264 1.006.258 1.261 1.114 1.845 1.68h1.991l.498.713v.739c-.328.329-.637.688-.995.985-.772.638-1.194 1.484-1.521 2.397-.021.063-.05.131-.047.195.034.547-.53.805-.627 1.248a5 5 0 0 1-.476 1.317c-.293.554-.757.998-1.56 1.283-.453-.005-1.144-.099-1.698.612.369 1.261 1.463 2.114 2.203 3.279.01.16-.108.443.387.566-.463.296-.38.712-.559 1.052-.159.303-.033.755-.033 1.143.762.183 1.3-.235 1.802-.61a4.6 4.6 0 0 0 1.514-1.954c.146-.361.553-.539.573-.975l.682-.335c.136.036.241.047.331.09.24.116.464.272.712.366.95.361 1.425 1.124 1.706 2.028.156.502.478 1.001.031 1.563-.141.176-.022.558-.022.841-.08.08-.183.144-.229.235-.38.745-1.054 1.049-1.762 1.432-.793.429-1.605.827-2.399 1.256-.638.344-.881 1.042-.647 1.745.034.1.065.193.068.295q.003.32.001.658c-.327.311-.693.583-1.173.523-.261-.032-.404.147-.549.244-.562.377-1.075.212-1.5-.143-.245-.205-.568-.265-.759-.505-.753-.149-1.433.374-2.126.19l-.799.754v2.165c.133.221.342.332.445.593.265.675.653 1.29 1.238 1.754.172.136.191.351.274.532.422.92.738 1.91 1.554 2.601.152.129.267.313.389.477.343.461.649.924 1.318 1.112.589.166 1.073.696 1.608 1.067.203.344.059.596-.223.811-.879.194-1.533-.449-2.329-.616-.378.198-.799.37-1.043.781-.103.289.417.337.19.633.678.195 1.352.256 1.748.865v.839c-.552.641-1.32 1.092-1.531 1.977-.62.523-.899 1.28-1.346 1.912-.417.594-.583 1.227-.751 1.856-.092.348-.154.764-.287 1.074-.286.673-.215 1.258.087 1.886.87.284 1.693-.427 2.522-.127.398-.229.624-.521.759-.891.234-.637.732-.949 1.419-1.142.258.245.57.397.664.847.108.511.537.798 1.119.93.487-.311.762-.76.942-1.309.159-.484.399-.955.83-1.272.413-.305.425-.852.762-1.213l.001-1.496c.201-.2.37-.474.737-.297.364.11.272.608.764.815.189.029.539.123.837-.281v-.839c.366-.469.898-.405 1.233-.592.354.009.373.283.584.337-.189.368-.344.663-.493.952.081.316.397.415.525.666.389-.068.764.1 1.14-.196.177-.14.441-.2.493-.448a.5.5 0 0 1 .234-.333c.696-.427 1.353-.895 1.803-1.596.367-.032.459-.298.621-.585.215-.385.607-.655 1.133-.747.346.035.661.225.95.529v1.082c-.172.35-.331.759-.835.887-.267.067-.243.399-.369.599-.266.419-.444.895-.643 1.314-.591.291-1.302.205-1.682.778-.226.341-.441.705-.31 1.215l.88.813c.417.687-.126 1.052-.042 1.52-.486.59-1.14.987-1.761 1.423-.026.019-.08.005-.097.024-.833 1.065-2.014 1.688-3.092 2.442-.365.254-.705.549-1.089.767-.35.196-.626.42-.725.85a15.2 15.2 0 0 0-3.296 1.374c-.383.214-.778.158-1.163.338-.656.306-1.37.493-2.026.842-.562.298-1.164.554-1.845.499-.56-.045-.99.403-1.549.438-.518.031-1.063-.198-1.558.142-.077.053-.196.061-.297.06-.832-.012-1.617.307-2.417.389-.886.092-1.834.264-2.725-.142-.149-.069-.351-.02-.528-.029-.765-.042-1.547.131-2.289-.21-.192-.089-.324.085-.501.273-.407-.559-1.057-.223-1.621-.449-.804-.323-1.731-.36-2.612-.459-.236-.027-.401-.148-.545-.251-.316-.225-.759-.096-1.02-.416-.609.07-1.072-.201-1.466-.63-1.399-.378-2.486-1.426-3.908-1.789a2.64 2.64 0 0 1-1.363-.879c-.305-.376-.785-.536-1.166-.815-.75-.551-1.535-1.056-2.222-1.696-.367-.344-.493-.882-.914-1.129-.403-.235-.727-.537-1.047-.856-.621-.619-.891-1.248-.954-2.191.377-.678 1.197-.854 1.609-1.459m22.371-.757v-2.594c.396-.384.737-.784.936-1.336.188-.526.272-1.141.78-1.448v-.808l-.516-.627h-.839c-.544-.356-1.06-.557-1.665-.356.091.718.092.719.542.772l.624.456c.395.801-.322 1.016-.378 1.468-.254.114-.494.229-.741.328-.34.135-.722.201-1.019.397-.323.215-.575.539-.848.826-.304.319-.684.436-1.111.456-.5.529-1.063.958-1.714 1.316-.681.373-.879 1.263-1.55 1.689-.645.14-.819.195-1.164.57-.551.599-1.306 1.051-1.505 1.926.622.309 1.125-.099 1.663-.135.599-.04 1.124.436 1.663.225.556-.339.621-1.01 1.156-1.29.098 0 .206.004.313-.001 1.012-.033 1.874.264 2.614 1.001.572.569 1.23.875 2.264.031.309-.778-.34-1.493-.117-2.259q.307-.301.612-.607m-.214-35.855q.106.15.214 0-.108-.15-.214 0M12.266 54.637l-.449-.447c.008-.241-.068-.49.065-.747.089.004.204-.024.279.018.329.186.259.619.701.867z"/>
</svg>
