<svg xmlns="http://www.w3.org/2000/svg" xml:space="preserve" width="72px" height="72px" viewBox="0 0 72 72">
    <path fill="currentColor" d="M25.614 65.586a26 26 0 0 0-1.647-.725c-1.118-.435-2.051-1.259-3.202-1.654-.731-.856-1.767-1.266-2.688-1.847-.403-.255-.661-.736-1.144-.895-.381-.126-.702-.5-1.011-.296-1.661-1.025-2.588-2.549-3.679-4.037.099-.345-.073-.765.155-1.241.179-.376.218-.975-.088-1.423-.12-.177-.118-.393-.057-.506.541-.98-.226-1.836-.266-2.761-.015-.335-.262-.771-.595-.908-.079-.579.229-.722.585-.827.055-.535.487-1.047.209-1.594-.272-.537-.078-1.288-.781-1.592v-1.146c.263-.692.802-1.113 1.293-1.559.734-.667 1.264-1.672 1.269-2.593.002-.359 0-.718 0-1.069.135-.135.286-.246.383-.394.09-.137.053-.348.277-.452-.02-.375.083-.832-.09-1.126-.216-.365-.061-.695-.176-1.13l.857-.708c.161-.479-.206-.68-.22-.99-.193-.156-.5.066-.671-.224-.072-.124-.154-.216-.148-.374.012-.341.126-.433.744-.543l.454.428c.547-.58 1.193-1.066 1.473-1.876.095-.275.399-.579.674-.672.637-.216.911-.746 1.171-1.246.165-.316.292-.468.65-.539.397-.078.815-.282 1.009-.661.42-.818 1.144-1.354 1.786-1.947.511-.473 1.191-.771 1.797-1.127.51-.301.681-.703.894-1.232.525.179.951-.332 1.531-.166.486-.543 1.112-.96 1.428-1.744v-1.424c-.285-.193-.387-.631-.906-.528.167-.675.319-1.255.318-1.986l-.178-.143c-.192.064-.264.363-.537.394-.206.001-.259-.215-.422-.316l.89-.78c.157-.032.418.023.608.345l.029.646c.081.116.116.091.185.017.293-.314.468-.672.456-1.109 1.489-1.489 1.489-1.489 1.527-2.607.791-1.076 1.35-2.319 2.364-3.235.334-.302.664-.568 1.093-.756a5.5 5.5 0 0 0 1.764-1.223c.849-.885 1.813-1.637 2.783-2.386.359-.277.816-.349 1.111-.642.945-.264 1.821.155 2.728.204.448.024.947.327 1.313.713.471.497.964.971 1.48 1.487-.003.819.374 1.526.899 2.203-.081.343.057.697-.188 1.092-.226.363.116.88.241 1.273.249.782.566 1.568 1.09 2.249.347.451.58 1.013.567 1.592-.032 1.443.363 2.752 1.088 3.982.152.258.173.587.436.811 0 .272.034.563-.008.843-.061.403.029.81.247 1.081.246.308.146.597.208.91l-1.306 1.271v1.089c.284.226.218.701.702.805-.403.379-.761.704-.894 1.268.206.66.424 1.427 1.234 1.909h.38c.346.689.927 1.208 1.498 1.723.25.225.469.546.487.766.063.712.497 1.137.959 1.554q.517.467.802 1.076c.199.429.296.895.854 1.044.185.05.322.273.355.304.433 1.977.307 3.826.299 5.671-.002.335.314.522.249.886-.05.282.005.585.128.905.16.419.122.941-.043 1.438-.31.928-.027 1.825.312 2.746-.152.531-.59 1.158-.374 1.696.281.698-.127 1.58.605 2.107 0 .161.009.306-.002.448a5.26 5.26 0 0 0 .418 2.528c.157.363.294.762.241 1.2-.07.592.412.977.637 1.554v.916c-.62 1.321-1.889 1.875-2.89 2.712-.238.199-.661-.015-.976.253-.274.234-.684.288-.936.6-.454.561-1.287.412-1.776.919-.367-.077-.552.229-.822.365-1.071.535-2.193.962-3.264 1.511-.395.202-.979.032-1.546.032-.277-.178-.688-.309-.962-.771.048-.38-.045-.837.183-1.327.188-.404-.058-.873-.4-1.208v-1.296l.537-.537h1.727c.213.235.536.272.792.431.426.263.849.462 1.111.986.263.526.84.818 1.543.735l.751-.858c-.019-.267.182-.716-.326-1.079-.213 0-.496-.023-.775.004-.748.074-1.409-.203-2.065-.493-.608-.27-1.182-.598-1.813-.84-.914-.35-1.604-.208-2.285.506h-1.66c.297.458.363.892.274 1.326.411.455.949.802.879 1.611l-1.087.944c.04.596.397 1.026.151 1.671-.269.269-.644.649-1.026 1.023-.549.536-1.204.697-1.901.395a1.63 1.63 0 0 0-1.137-.07c-.727.24-1.379.228-2.107-.002-.458-.146-1-.027-1.503-.027-.396 0-.792-.003-1.188.001-.348.004-.697-.139-.977-.251-1.215-.483-2.55-.535-3.736-1.154-.505-.262-1.159-.448-1.693-.327m12.01-37.631c.647-.084 1.044-.375 1.455-.707.309-.249.719-.545 1.168-.526 1.051.044 2.037-.256 3.037-.488.102-.486.625-.725.705-1.202.028-1.069.103-2.118.169-3.167.092-1.429.249-2.893-.143-4.336-.145-.536-.023-1.144-.023-1.719-.165-.543-.545-.968-.689-1.555-.19-.769-.121-1.563-.367-2.32-.091-.278-.353-.51-.251-.877.126-.462-.157-.842-.348-1.25-.297-.639-.882-.977-1.216-1.414-.727-.187-.929.394-.942.684-.031.654-.466 1.045-.723 1.611 0 1.448.005 2.958-.004 4.468-.002.24.078.493-.071.724-.422.653-.375 1.39-.354 2.117.024.844-.191 1.625-.662 2.313-.22.32-.407.583-.468 1.008-.044.311-.088.673-.201.983-.462 1.264-1.015 2.5-1.055 3.877-.558.629.005 1.063.222 1.532.28.151.631-.029.761.244M23.487 48.507c.489-.864 1.336-1.468 1.03-2.454-.203-.365-.454-.354-.681-.335-.738.553-1.113 1.23-1.027 2.175.063.691-.292 1.3-.571 1.787v1.372c.653.317.725-.551 1.092-.442.794-.73-.054-1.424.157-2.103m4.508-.923c0 .277.052.575-.009.846-.209.928-.205.92-.026 1.678.12.511.128 1.031-.204 1.493.427.224.052.884.612.995.085-.322.271-.592.316-.953.086-.69.366-1.354.508-2.04.182-.879.286-1.768-.199-2.575-.54-.129-.71.298-.998.556m12.541 2.594c.293.105.575.14.877-.035a6 6 0 0 1 .809-.38c.617-.239 1.209-.642 1.919-.175.146.096.482.115.688-.056v-1.367l-.632-.276c-.493.268-1.022.377-1.503.604-.21.1-.462.272-.755.256-.656-.036-1.065.361-1.402.779zm-4.659 10.445H34.81c-.175.248-.529.369-.554.745.516.4 1.091.38 1.667.303.369-.319.447-.638-.046-1.048m9.385-7.453c-.627.234-1.163.411-1.677.641-.164.074-.377.251-.156.533.611.072 1.199-.035 1.729-.397.22-.152.119-.38.104-.777m-23.918.537c.615.044.544-.527.841-.758-.057-.387.081-.811-.136-1.268-.896.532-.747 1.286-.705 2.026m-3.512-10.186h1.255c.145-.168.336-.251.28-.472-.24-.417-.614-.401-1.011-.319-.154.23-.47.334-.524.791m15.148.565c.109.106.183.268.382.301-.038-.29.362-.427.261-.688l-.314-.357c-.255.193-.418.413-.329.744m12.035 12.768c.449.229.569-.078.699-.341.019-.038-.043-.116-.08-.204-.321-.039-.471.153-.619.545"/>
</svg>
