<?xml version="1.0" encoding="iso-8859-1"?>
<!-- Generator: Adobe Illustrator 16.0.0, SVG Export Plug-In . SVG Version: 6.00 Build 0)  -->
<!DOCTYPE svg PUBLIC "-//W3C//DTD SVG 1.1//EN" "http://www.w3.org/Graphics/SVG/1.1/DTD/svg11.dtd">
<svg version="1.1" id="Layer_1" xmlns="http://www.w3.org/2000/svg" xmlns:xlink="http://www.w3.org/1999/xlink" x="0px" y="0px"
	 width="72.18px" height="70.921px" viewBox="0 0 72.18 70.921" style="enable-background:new 0 0 72.18 70.921;"
	 xml:space="preserve">
<g>
	<path style="fill-rule:evenodd;clip-rule:evenodd;fill:none;" d="M-6.983-6.839c28.799,0,57.599,0,86.399,0
		c0,28.296,0,56.59,0,84.887c-28.8,0-57.6,0-86.399,0C-6.983,49.751-6.983,21.457-6.983-6.839z M44.244,56.474
		c0.537-0.372,1.086-0.603,1.638-0.649c0.733-0.062,1.265-0.425,1.835-0.812c0.53-0.358,0.913-0.916,1.445-1.202
		c0.673-0.362,0.933-0.957,1.261-1.536c0.195-0.346,0.297-0.744,0.486-1.092c0.558-1.019,1.037-2.09,1.959-2.864
		c0.325-0.273,0.638-0.532,1.087-0.508c0.334,0.019,0.581-0.188,0.83-0.337c0.778-0.462,1.546-0.934,2.235-1.124
		c1.13,0.166,2.059,0.434,3.064,0.376c0.896-0.849,1.356-1.913,1.431-3.157c0.382-0.382,0.789-0.741,1.139-1.15
		c0.486-0.568,0.463-0.97-0.001-1.511c-0.366,0-0.724,0-0.98,0c-0.621,0.312-1.164,0.572-1.693,0.855
		c-0.555,0.297-1.21,0.18-1.763,0.437c-0.597,0.275-1.226,0.184-1.84,0.214c-0.472,0.707-1.275,0.75-1.932,0.814
		c-0.906,0.089-1.688,0.473-2.519,0.689c-0.144-0.112-0.279-0.22-0.357-0.28c0-0.515,0-0.942,0-1.308
		c0.276-0.408,0.396-0.889,0.98-1.026c0.224,0.17,0.591,0.17,0.828,0.446c1.024,0.117,2.004-0.43,3.012-0.167
		c0.182-0.271,0.454-0.39,0.572-0.677c0.178-0.431,0.475-0.815,0.62-1.253c0.097-0.292,0.019-0.643,0.019-0.966
		c0-0.36,0.049-0.729-0.016-1.077c-0.055-0.3,0.291-0.404,0.231-0.669c-0.073-0.114-0.194-0.224-0.207-0.343
		c-0.027-0.322-0.068-0.663,0.006-0.968c0.098-0.396-0.288-0.621-0.24-0.995c0.097-0.77-0.197-1.503-0.456-2.182
		c-0.314-0.823-0.671-1.709-1.679-2.172c-0.431,0-0.962,0-1.462,0c-0.134-0.17-0.328-0.25-0.264-0.444
		c0.063-0.566,0.602-0.26,0.848-0.493c0.504-0.461,0.573-1.114,0.398-1.65c-0.291-0.898-0.452-1.791-0.393-2.685
		c-0.45-0.304-0.498-0.829-0.894-1.103c-0.386-0.265-0.818-0.304-1.042-0.301c-0.704-0.485-0.353-1.113-0.616-1.637
		c-0.231-0.459-0.048-1.126-0.048-1.605c-0.24-0.573-0.584-0.96-0.988-1.271c-0.301,0-0.586,0-0.854,0
		c-0.873,0.558-1.555,1.369-2.578,1.675c-0.429,0.031-0.86,0.036-1.293,0.241c-0.391,0.187-0.848,0.238-1.001,0.679
		c0.146,0.402,0.556,0.36,0.78,0.647c0.666-0.2,1.294,0.429,1.992,0.149c0.406-0.447,0.876-0.692,1.578-0.549
		c-0.277,0.324,0.243,0.336,0.204,0.611c-0.284,0.307-0.123,0.828-0.541,1.077c-0.355,0.211-0.741,0.392-0.989,0.816
		c0.234,0.313-0.241,0.498-0.206,0.831c0.035,0.353,0.007,0.712,0.007,1.049c-0.38,0.333-0.346,0.822-0.555,1.203
		c-0.25,0.458,0.032,0.979-0.135,1.424c-0.16,0.182-0.391,0.233-0.522,0.35c-0.19,0.172-0.507,0.09-0.629,0.354
		c-0.115,0.24-0.152,0.556-0.329,0.721c-0.899,0.832-0.682,1.672-0.092,2.54c0.037,0.055,0.069,0.115,0.103,0.173
		c0,0.396,0.007,0.792-0.002,1.188c-0.007,0.317,0.014,0.645-0.059,0.949c-0.157,0.663-0.383,1.308-0.374,2.003
		c0.01,0.756,0.003,1.512,0.003,2.268c-0.643,1.045-0.805,2.136-0.532,3.561c0.864,0,1.728,0,2.402,0
		c0.629-0.178,0.939-0.54,1.248-0.85c0.567,0.398,0.686,0.946,0.758,1.487c0.061,0.439-0.221,0.774-0.521,1.094
		c-0.457,0-0.932-0.057-1.385,0.016c-0.421,0.067-0.814,0.287-1.229,0.413c-0.76,0.229-1.469,0.51-2.019,1.145
		c-0.303,0.351-0.751,0.574-0.941,0.714c-0.552,0.17-0.655-0.093-0.788-0.255c0.19-0.658,0.342-1.31,0.629-1.916
		c0.435-0.918,0.396-0.922,0.442-1.655c0.061-0.942-0.166-1.888,0.183-2.836c0.218-0.593-0.037-4.037-0.198-4.758
		c-0.02-0.091-0.188-0.171-0.181-0.243c0.076-0.587-0.502-0.945-0.481-1.542c0.025-0.747-0.216-1.447-0.577-2.129
		c-0.356-0.673-0.751-1.37-0.709-2.141c-0.266-0.285-0.509-0.547-0.746-0.803c-0.667,0-1.313,0-1.956,0
		c-0.089-0.257-0.396-0.132-0.493-0.271c-0.079-0.303-0.028-0.517,0.187-0.708c0.34-0.3,0.573-0.648,0.668-1.129
		c0.071-0.366,0.229-0.714,0.192-1.103c-0.039-0.421,0.229-0.77,0.246-1.205c0.034-0.821-0.323-1.588-0.24-2.395
		c0.072-0.72-0.223-1.337-0.481-1.963c-0.166-0.399-0.513-0.751-0.58-1.157c-0.126-0.744-0.664-0.955-1.226-1.054
		c-0.431-0.076-0.771-0.238-1.096-0.462c-0.46-1.716-1.251-3.328-1.175-5.075c-0.283-0.33-0.609-0.429-0.952-0.55
		c-0.541,0.127-1.034,0.476-1.637,0.452c-0.712-0.028-1.335,0.153-1.888,0.673c-0.311,0.293-0.744,0.695-1.253,0.194
		c-0.054-0.054-0.242-0.052-0.311,0c-0.507,0.376-1.095,0.127-1.573,0.219c-0.523,0.347-1.147,0.46-1.443,1.021
		c-0.072,0.479,0.309,0.664,0.603,0.938c0.91-0.151,1.756,0.176,2.586,0.43c0.947-0.569,1.98-0.56,2.958-0.694
		c0.388,0.534,0.388,0.534-0.199,2.585c-0.686,0.21-1.286-0.365-1.949-0.167c-0.187,0.176-0.37,0.349-0.542,0.511
		c-0.053,0.553,0.175,1.011,0.385,1.479c0.421,0.938,0.145,1.84-0.171,2.735c-0.144,0.409-0.311,0.81-0.427,1.226
		c-0.25,0.901-0.53,1.799-0.958,2.625c-0.354,0.683-0.684,1.339-0.553,2.084c-0.486,0.546-1.229,0.553-1.708,1.066
		c0,0.43,0,0.888,0,1.268c0.34,0.705,0.693,1.337,0.616,2.086c-0.049,0.472,0.139,0.894,0.322,1.272
		c0.221,0.455,0.068,0.786-0.127,1.223c0.356,0.123,0.236,0.438,0.241,0.711c0.008,0.576-0.062,1.16,0.02,1.726
		c0.086,0.588-0.292,1.068-0.248,1.642c0.026,0.334,0.15,0.714-0.114,1.024c-0.237,0.277,0.11,0.737-0.304,0.953
		c0.039,0.667-0.659,1.164-0.432,1.873c-0.312,0.422-0.159,1.012-0.491,1.413c-0.186,0.226-0.195,0.427-0.089,0.689
		c0.382,0,0.768,0,1.153,0c0.579-0.276,1.122-0.608,1.796-0.643c0.373-0.018,0.599,0.321,0.995,0.253
		c0.355-0.061,0.725-0.033,1.112,0.16c0.328,0.162,0.828,0.119,1.178-0.255c0.184,0.442,0.624,0.157,0.901,0.468
		c0.251,0.256,0.501,0.662,0.336,1.059c-0.245,0.586-0.136,1.172-0.204,1.754c-0.054,0.467-0.112,0.954-0.534,1.33
		c-0.252,0-0.604,0.104-0.805-0.024c-0.302-0.194-0.604-0.247-0.894-0.176c-0.396,0.095-0.621-0.279-0.995-0.242
		c-1.003,0.098-1.771-0.414-2.497-1.057c-0.604-0.014-0.588-0.065-1.072-0.217c-0.934-0.292-1.48-1.02-2.042-1.722
		c-0.481-0.601-0.619-1.427-1.197-1.962c-1.07-0.011-1.43-0.15-2.051-0.788c0-1.437,0.058-1.563,1.064-2.333
		c0.058-1.158,0.087-2.304-0.628-3.306c-0.034-0.048,0.021-0.153-0.008-0.211c-0.281-0.557-0.167-1.21-0.431-1.766
		c-0.419-0.882-0.119-1.814-0.213-2.719c0.481-0.308,0.085-0.846,0.342-1.27c0.208-0.345,0.083-0.891,0.1-1.209
		c-0.319-0.357-0.557-0.623-0.765-0.857c-0.257,0-0.468,0-0.574,0c-0.259,0.214-0.452,0.373-0.648,0.535
		c0.179,0.608-0.185,1.083-0.246,1.607c-0.197,0-0.34,0-0.481,0c-0.37-0.641-0.569-1.372-1.021-1.905c-0.366,0-0.678,0-1,0
		c-0.151,0.255-0.29,0.488-0.45,0.756c-0.065,0.554,0.097,1.168-0.08,1.756c-0.198,0.659-0.414,1.305-0.369,2.01
		c0.015,0.23-0.004,0.45-0.132,0.7c-0.193,0.378-0.282,0.85-0.277,1.28c0.014,1.087-0.194,2.193,0.324,3.456
		c0.106,0.171,0.469,0.372,0.96,0.592c0.158,0,0.449-0.034,0.728,0.009c0.309,0.049,0.521-0.156,0.779-0.211
		c0.307-0.064,0.651-0.065,0.87,0.359c-0.087,0.753,0.212,1.615-0.299,2.414c-0.228,0-0.47,0-0.696,0
		c-0.641-0.664-1.541-0.907-2.156-1.467c-0.335,0-0.617,0-0.873,0c-0.33,0.33-0.635,0.636-0.926,0.926
		c-0.161,0.791,0.22,1.327,0.724,1.869c0.655,0.706,1.482,1.198,2.147,1.887c0.251,0.261,0.508,0.586,0.525,0.855
		c0.03,0.459,0.065,0.937,0.281,1.295c0.243,0.403,0.081,0.87,0.375,1.264c0.137,0.184,0.133,0.626-0.048,0.915
		c-0.21,0.335-0.108,0.602,0,0.965c0.389,1.297,1.205,2.229,2.29,2.953c0.811,0.541,1.661,1.022,2.509,1.539
		c0.944-0.107,1.866-0.051,2.665,0.563c0.163,0.126,0.397,0.119,0.499,0.041c0.402-0.309,0.724-0.161,1.146-0.018
		c0.24,0.083,0.485,0.291,0.759,0.252c1.032-0.147,2.017,0.343,3.042,0.215c0.403-0.051,0.735,0.135,1.1,0.218
		c0.424,0.097,0.769-0.314,1.207-0.216c0.136,0.031,0.327-0.054,0.423,0.015c0.52,0.361,1.097,0.171,1.646,0.199
		c0.611,0.031,1.225-0.023,1.834,0.017c0.535,0.035,1.066-0.038,1.518-0.254c0.345-0.164,0.659-0.183,1.003-0.186
		c0.432-0.006,0.87,0.043,1.294-0.015c0.476-0.063,0.847,0.251,1.316,0.247C42.366,56.674,43.314,56.243,44.244,56.474z
		 M35.461,67.686c-0.637,0.541-1.294,0.543-1.999,0.164c-0.45-0.242-0.961-0.535-1.448-0.356c-0.44,0.162-1.047,0.221-1.199,0.845
		c0.063,0.438,0.558,0.362,0.732,0.604c0.641,0.132,1.283-0.124,1.889,0.232c0.184,0.109,0.574,0.11,0.722-0.016
		c0.331-0.28,0.677-0.167,1.013-0.176c0.827-0.021,1.655-0.007,2.482-0.007c0.252,0,0.55-0.088,0.749,0.016
		c0.962,0.494,1.77,0.141,2.582-0.382c-0.006-0.254-0.214-0.354-0.264-0.403c-1.168-0.408-2.103,0.34-3.135,0.348
		c-0.297-0.313-0.567-0.599-0.822-0.868C36.308,67.686,35.878,67.686,35.461,67.686z M41.685,68.543c0.558,0,1.019,0.132,1.31-0.035
		c0.318-0.179,0.6-0.189,0.9-0.172c0.64,0.037,1.199-0.17,1.766-0.432c0.613-0.281,1.25-0.534,1.978-0.426
		c0.081-0.331,0.485-0.372,0.46-0.74c-0.108-0.129-0.22-0.26-0.288-0.341c-0.436,0-0.791,0-1.157,0
		c-0.29,0.479-0.868,0.521-1.247,0.821C44.1,67.317,42.839,67.481,41.685,68.543z"/>
	<path fill="currentColor" d="M44.244,56.474c-0.93-0.23-1.878,0.2-2.864,0.209
		c-0.47,0.004-0.841-0.311-1.316-0.247c-0.424,0.058-0.862,0.009-1.294,0.015c-0.344,0.003-0.658,0.021-1.003,0.186
		c-0.452,0.216-0.983,0.289-1.518,0.254c-0.609-0.04-1.224,0.015-1.834-0.017c-0.549-0.028-1.125,0.162-1.646-0.199
		c-0.097-0.068-0.287,0.017-0.423-0.015c-0.438-0.099-0.782,0.313-1.207,0.216c-0.364-0.083-0.696-0.269-1.1-0.218
		c-1.024,0.128-2.009-0.362-3.042-0.215c-0.274,0.039-0.52-0.169-0.759-0.252c-0.421-0.144-0.744-0.291-1.146,0.018
		c-0.102,0.078-0.336,0.085-0.499-0.041c-0.798-0.613-1.721-0.67-2.665-0.563c-0.848-0.517-1.698-0.998-2.509-1.539
		c-1.085-0.724-1.9-1.656-2.29-2.953c-0.109-0.363-0.21-0.63,0-0.965c0.181-0.289,0.185-0.731,0.048-0.915
		c-0.294-0.394-0.132-0.86-0.375-1.264c-0.216-0.358-0.251-0.836-0.281-1.295c-0.017-0.27-0.274-0.595-0.525-0.855
		c-0.666-0.688-1.493-1.181-2.147-1.887c-0.503-0.542-0.885-1.078-0.724-1.869c0.291-0.29,0.596-0.596,0.926-0.926
		c0.256,0,0.538,0,0.873,0c0.615,0.56,1.515,0.803,2.156,1.467c0.227,0,0.468,0,0.696,0c0.512-0.799,0.212-1.661,0.299-2.414
		c-0.218-0.425-0.563-0.424-0.87-0.359c-0.258,0.055-0.47,0.26-0.779,0.211c-0.279-0.043-0.569-0.009-0.728-0.009
		c-0.491-0.22-0.854-0.421-0.96-0.592c-0.518-1.263-0.31-2.368-0.324-3.456c-0.005-0.43,0.084-0.902,0.277-1.28
		c0.128-0.25,0.147-0.469,0.132-0.7c-0.045-0.705,0.171-1.352,0.369-2.01c0.177-0.587,0.015-1.202,0.08-1.756
		c0.16-0.268,0.298-0.501,0.45-0.756c0.322,0,0.635,0,1,0c0.451,0.534,0.651,1.265,1.021,1.905c0.141,0,0.284,0,0.481,0
		c0.062-0.523,0.425-0.999,0.246-1.607c0.196-0.162,0.389-0.321,0.648-0.535c0.105,0,0.317,0,0.574,0
		c0.208,0.234,0.446,0.5,0.765,0.857c-0.016,0.318,0.109,0.864-0.1,1.209c-0.257,0.423,0.139,0.962-0.342,1.27
		c0.094,0.904-0.206,1.836,0.213,2.719c0.263,0.556,0.15,1.209,0.431,1.766c0.029,0.058-0.026,0.163,0.008,0.211
		c0.716,1.002,0.686,2.147,0.628,3.306c-1.006,0.77-1.064,0.896-1.064,2.333c0.621,0.638,0.981,0.777,2.051,0.788
		c0.578,0.535,0.715,1.361,1.197,1.962c0.562,0.702,1.108,1.43,2.042,1.722c0.484,0.151,0.468,0.203,1.072,0.217
		c0.725,0.643,1.493,1.154,2.497,1.057c0.374-0.037,0.6,0.337,0.995,0.242c0.291-0.071,0.592-0.019,0.894,0.176
		c0.201,0.129,0.553,0.024,0.805,0.024c0.421-0.376,0.479-0.863,0.534-1.33c0.068-0.582-0.041-1.168,0.204-1.754
		c0.165-0.396-0.085-0.803-0.336-1.059c-0.278-0.311-0.717-0.025-0.901-0.468c-0.35,0.374-0.85,0.417-1.178,0.255
		c-0.387-0.193-0.756-0.221-1.112-0.16c-0.396,0.068-0.622-0.271-0.995-0.253c-0.674,0.034-1.217,0.366-1.796,0.643
		c-0.385,0-0.771,0-1.153,0c-0.106-0.263-0.097-0.464,0.089-0.689c0.333-0.401,0.179-0.991,0.491-1.413
		c-0.228-0.709,0.471-1.206,0.432-1.873c0.414-0.216,0.067-0.676,0.304-0.953c0.264-0.311,0.14-0.69,0.114-1.024
		c-0.044-0.573,0.334-1.054,0.248-1.642c-0.082-0.565-0.012-1.15-0.02-1.726c-0.004-0.273,0.116-0.588-0.241-0.711
		c0.195-0.437,0.348-0.768,0.127-1.223c-0.184-0.378-0.371-0.8-0.322-1.272c0.077-0.749-0.275-1.381-0.616-2.086
		c0-0.38,0-0.838,0-1.268c0.478-0.513,1.222-0.52,1.708-1.066c-0.131-0.745,0.199-1.401,0.553-2.084
		c0.428-0.826,0.708-1.724,0.958-2.625c0.116-0.416,0.283-0.817,0.427-1.226c0.315-0.896,0.592-1.797,0.171-2.735
		c-0.209-0.467-0.438-0.925-0.385-1.479c0.172-0.162,0.354-0.335,0.542-0.511c0.663-0.198,1.263,0.376,1.949,0.167
		c0.587-2.051,0.587-2.051,0.199-2.585c-0.979,0.134-2.011,0.125-2.958,0.694c-0.83-0.254-1.676-0.581-2.586-0.43
		c-0.294-0.273-0.675-0.458-0.603-0.938c0.296-0.562,0.92-0.675,1.443-1.021c0.478-0.092,1.065,0.157,1.573-0.219
		c0.069-0.052,0.257-0.054,0.311,0c0.509,0.501,0.942,0.1,1.253-0.194c0.553-0.52,1.176-0.701,1.888-0.673
		c0.603,0.024,1.096-0.324,1.637-0.452c0.342,0.121,0.668,0.22,0.952,0.55c-0.077,1.748,0.714,3.359,1.175,5.075
		c0.325,0.224,0.665,0.387,1.096,0.462c0.562,0.099,1.1,0.31,1.226,1.054c0.067,0.406,0.414,0.758,0.58,1.157
		c0.259,0.626,0.554,1.243,0.481,1.963c-0.083,0.807,0.274,1.573,0.24,2.395c-0.018,0.436-0.285,0.784-0.246,1.205
		c0.036,0.388-0.121,0.737-0.192,1.103c-0.095,0.481-0.328,0.83-0.668,1.129c-0.215,0.191-0.266,0.405-0.187,0.708
		c0.098,0.139,0.404,0.014,0.493,0.271c0.644,0,1.289,0,1.956,0c0.237,0.255,0.48,0.518,0.746,0.803
		c-0.042,0.771,0.353,1.468,0.709,2.141c0.361,0.682,0.603,1.382,0.577,2.129c-0.021,0.597,0.558,0.956,0.481,1.542
		c-0.008,0.072,0.161,0.152,0.181,0.243c0.161,0.721,0.416,4.166,0.198,4.758c-0.349,0.948-0.122,1.894-0.183,2.836
		c-0.047,0.733-0.008,0.737-0.442,1.655c-0.287,0.606-0.438,1.258-0.629,1.916c0.133,0.162,0.236,0.425,0.788,0.255
		c0.19-0.14,0.639-0.363,0.941-0.714c0.55-0.635,1.259-0.915,2.019-1.145c0.414-0.126,0.808-0.346,1.229-0.413
		c0.453-0.072,0.928-0.016,1.385-0.016c0.301-0.319,0.582-0.654,0.521-1.094c-0.072-0.541-0.19-1.089-0.758-1.487
		c-0.309,0.31-0.619,0.672-1.248,0.85c-0.675,0-1.538,0-2.402,0c-0.272-1.425-0.11-2.516,0.532-3.561
		c0-0.756,0.007-1.512-0.003-2.268c-0.009-0.695,0.217-1.34,0.374-2.003c0.072-0.304,0.052-0.632,0.059-0.949
		c0.009-0.395,0.002-0.791,0.002-1.188c-0.033-0.058-0.065-0.118-0.103-0.173c-0.59-0.868-0.808-1.708,0.092-2.54
		c0.177-0.165,0.214-0.48,0.329-0.721c0.122-0.264,0.438-0.183,0.629-0.354c0.132-0.117,0.362-0.168,0.522-0.35
		c0.167-0.445-0.115-0.966,0.135-1.424c0.209-0.381,0.175-0.87,0.555-1.203c0-0.337,0.028-0.697-0.007-1.049
		c-0.035-0.333,0.44-0.519,0.206-0.831c0.248-0.424,0.634-0.605,0.989-0.816c0.418-0.249,0.257-0.77,0.541-1.077
		c0.039-0.275-0.481-0.288-0.204-0.611c-0.702-0.143-1.172,0.102-1.578,0.549c-0.698,0.28-1.326-0.349-1.992-0.149
		c-0.225-0.287-0.634-0.245-0.78-0.647c0.153-0.441,0.61-0.493,1.001-0.679c0.433-0.206,0.864-0.21,1.293-0.241
		c1.023-0.306,1.705-1.117,2.578-1.675c0.268,0,0.553,0,0.854,0c0.404,0.311,0.748,0.698,0.988,1.271
		c0,0.479-0.184,1.146,0.048,1.605c0.264,0.523-0.088,1.152,0.616,1.637c0.224-0.003,0.656,0.036,1.042,0.301
		c0.396,0.274,0.443,0.799,0.894,1.103c-0.06,0.894,0.102,1.787,0.393,2.685c0.175,0.536,0.105,1.189-0.398,1.65
		c-0.246,0.233-0.785-0.073-0.848,0.493c-0.064,0.194,0.13,0.274,0.264,0.444c0.5,0,1.031,0,1.462,0
		c1.008,0.463,1.364,1.349,1.679,2.172c0.259,0.679,0.553,1.413,0.456,2.182c-0.048,0.375,0.338,0.6,0.24,0.995
		c-0.074,0.305-0.033,0.646-0.006,0.968c0.013,0.119,0.134,0.229,0.207,0.343c0.06,0.265-0.286,0.369-0.231,0.669
		c0.064,0.349,0.016,0.717,0.016,1.077c0,0.323,0.078,0.674-0.019,0.966c-0.146,0.438-0.442,0.822-0.62,1.253
		c-0.118,0.287-0.391,0.405-0.572,0.677c-1.008-0.263-1.987,0.284-3.012,0.168c-0.237-0.277-0.604-0.277-0.828-0.447
		c-0.585,0.138-0.704,0.618-0.98,1.026c0,0.365,0,0.793,0,1.308c0.078,0.061,0.214,0.168,0.357,0.28
		c0.83-0.217,1.612-0.601,2.519-0.689c0.656-0.064,1.46-0.107,1.932-0.814c0.614-0.03,1.243,0.062,1.84-0.214
		c0.553-0.257,1.208-0.14,1.763-0.437c0.529-0.283,1.072-0.544,1.693-0.855c0.257,0,0.614,0,0.98,0
		c0.464,0.541,0.487,0.942,0.001,1.511c-0.35,0.409-0.757,0.769-1.139,1.15c-0.074,1.244-0.535,2.309-1.431,3.157
		c-1.006,0.058-1.935-0.21-3.064-0.376c-0.689,0.19-1.457,0.662-2.235,1.124c-0.249,0.148-0.496,0.355-0.83,0.337
		c-0.449-0.024-0.762,0.234-1.087,0.508c-0.922,0.774-1.401,1.846-1.959,2.864c-0.189,0.348-0.291,0.746-0.486,1.092
		c-0.328,0.579-0.588,1.174-1.261,1.536c-0.532,0.286-0.915,0.844-1.445,1.202c-0.57,0.387-1.102,0.75-1.835,0.812
		C45.33,55.871,44.781,56.102,44.244,56.474z M35.074,44.802c-0.607,0.729-0.634,1.549-0.591,2.392
		c0.028,0.535,0.005,1.072,0.005,1.591c0.27,0.213,0.23,0.619,0.562,0.732c0.544,0.193,1.003-0.218,1.528-0.201
		c0.571,0.019,1.142,0.005,1.678,0.005c0.416-0.382,0.875-0.471,1.378-0.435c0.215,0.015,0.434,0.025,0.646-0.003
		c0.52-0.067,0.783-0.347,0.913-0.959c-0.361-0.361-0.703-0.787-1.126-1.105c-0.669-0.505-1.27-1.135-2.149-1.313
		c-0.393-0.078-0.854-0.025-1.161-0.308C36.228,44.714,35.622,44.761,35.074,44.802z M35.143,28.04
		c0.584,0.691,1.034,0.168,1.567-0.015c-0.253-0.531-0.65-0.73-1.168-0.734c-0.135-0.001-0.29-0.053-0.398,0.103
		C35.143,27.597,35.143,27.812,35.143,28.04z M48.629,30.289c0.096-0.069,0.328,0.126,0.525-0.061c0-0.233,0-0.475,0-0.781
		c-0.368,0.085-0.645-0.153-0.946-0.237c-0.12,0.191-0.337,0.247-0.327,0.541C48.063,29.881,48.292,30.046,48.629,30.289z
		 M32.007,28.152c0.153-0.146,0.157-0.29-0.007-0.433c-0.1,0.016-0.217-0.045-0.315,0.128C31.638,28.054,31.714,28.19,32.007,28.152
		z"/>
	<path style="fill-rule:evenodd;clip-rule:evenodd;fill:none;" d="M35.074,44.802c0.548-0.041,1.154-0.088,1.683,0.396
		c0.307,0.282,0.768,0.229,1.161,0.308c0.88,0.178,1.48,0.808,2.149,1.313c0.423,0.318,0.765,0.744,1.126,1.105
		c-0.13,0.612-0.394,0.892-0.913,0.959c-0.212,0.028-0.431,0.018-0.646,0.003c-0.503-0.036-0.962,0.053-1.378,0.435
		c-0.536,0-1.107,0.014-1.678-0.005c-0.525-0.017-0.984,0.395-1.528,0.201c-0.332-0.113-0.292-0.52-0.562-0.732
		c0-0.519,0.023-1.056-0.005-1.591C34.439,46.351,34.466,45.531,35.074,44.802z"/>
	<path style="fill-rule:evenodd;clip-rule:evenodd;fill:none;" d="M35.143,28.04c0-0.228,0-0.443,0-0.647
		c0.109-0.155,0.264-0.104,0.398-0.103c0.518,0.004,0.916,0.204,1.168,0.734C36.177,28.208,35.727,28.731,35.143,28.04z"/>
	<path style="fill-rule:evenodd;clip-rule:evenodd;fill:none;" d="M48.629,30.289c-0.338-0.243-0.566-0.408-0.748-0.538
		c-0.01-0.294,0.207-0.35,0.327-0.541c0.302,0.084,0.578,0.323,0.946,0.237c0,0.306,0,0.547,0,0.781
		C48.958,30.415,48.725,30.22,48.629,30.289z"/>
	<path style="fill-rule:evenodd;clip-rule:evenodd;fill:none;" d="M32.007,28.152c-0.293,0.038-0.369-0.098-0.322-0.305
		c0.098-0.174,0.216-0.112,0.315-0.128C32.165,27.862,32.16,28.006,32.007,28.152z"/>
</g>
</svg>
