<?xml version="1.0" encoding="iso-8859-1"?>
<!-- Generator: Adobe Illustrator 16.0.0, SVG Export Plug-In . SVG Version: 6.00 Build 0)  -->
<!DOCTYPE svg PUBLIC "-//W3C//DTD SVG 1.1//EN" "http://www.w3.org/Graphics/SVG/1.1/DTD/svg11.dtd">
<svg version="1.1" id="Layer_1" xmlns="http://www.w3.org/2000/svg" xmlns:xlink="http://www.w3.org/1999/xlink" x="0px" y="0px"
	 width="72.36px" height="71.459px" viewBox="0 0 72.36 71.459" style="enable-background:new 0 0 72.36 71.459;"
	 xml:space="preserve">
<g>
	
	<path fill="currentColor" d="M56.283,36.792c0.739,0.412,1.306,1.039,1.758,1.806
		c0.481,0.815,1.075,1.565,1.542,2.388c0.716,1.264,1.234,2.604,1.031,4.102c-0.044,0.322-0.232,0.622-0.33,0.939
		c-0.247,0.811-0.565,1.607-0.537,2.478c-0.444,0.717-0.886,1.048-1.765,1.156c-0.296,0.037-0.539,0.179-0.739,0.303
		c-0.732,0.456-1.491,0.696-2.327,0.564c-0.126,0.127-0.321,0.234-0.315,0.329c0.049,0.704-0.388,1.21-0.659,1.786
		c-0.059,0.124-0.128,0.235-0.188,0.354c-0.296,0.584-0.416,1.248-1.13,1.581c-0.602,0.28-1.116,0.706-1.753,0.98
		c-0.816,0.352-1.679,0.654-2.431,1.191c-0.416,0.297-0.97,0.433-1.517,0.497c-1.211,0.144-2.379-0.31-3.583-0.224
		c-0.035,0.003-0.081,0.013-0.104-0.005c-0.809-0.568-1.735-0.398-2.632-0.43c-0.666-0.024-1.304,0.035-1.887,0.405
		c-0.104,0.067-0.276,0.027-0.472,0.041c-0.322,0.521-0.937,0.711-1.578,1.069c-0.018,0-0.158-0.01-0.296,0.001
		c-1.273,0.104-2.453-0.094-3.545-0.843c-0.389-0.267-0.9-0.518-1.423-0.44c-0.298,0.045-0.467-0.164-0.656-0.256
		c-0.538-0.263-1.069-0.431-1.669-0.41c-0.712,0.024-1.39-0.1-1.865-0.696c-0.167-0.21-0.493-0.111-0.6-0.365
		c-0.691-0.106-1.419,0.175-2.075-0.229c-0.466,0.257-1.044,0.267-1.448,0.676c-0.464-0.215-0.76-0.516-0.697-1.276
		c-0.313,0.469-0.659,0.582-1.02,0.803c-0.283,0-0.639,0-1.053,0c-0.526-0.592-1.241-1.079-1.583-1.833
		c-0.279-0.169-0.534-0.066-0.774-0.101c-0.178-0.178-0.356-0.356-0.526-0.525c-0.001-1.12-0.451-2.167-0.46-3.265
		c-0.482-0.788-1.438-1.472-2.234-1.606c-0.332,0.142-0.295,0.545-0.551,0.747c0,0.28,0,0.567,0,0.839
		c-0.351,0.498-0.963,0.759-1.141,1.383c-0.578,0.394-1.141,0.347-1.741-0.095c-0.425-0.927-0.983-1.836-1.351-2.85
		c-0.11-0.303-0.063-0.599-0.167-0.898c-0.158-0.46-0.492-0.801-0.651-1.245c-0.078-0.217-0.366-0.43-0.334-0.604
		c0.181-1.012-0.468-1.872-0.465-2.849c0.001-0.475-0.229-0.918-0.221-1.422c0.027-1.691,0.846-3.01,2.086-3.978
		c0.884-0.69,1.752-1.38,2.539-2.173c0.582-0.058,1.133-0.145,1.63-0.519c0.279-0.21,0.673-0.283,1.028-0.371
		c0.492-0.122,0.951-0.255,1.405-0.534c0.517-0.319,1.16-0.431,1.763-0.327c0.498-0.371,1.059-0.5,1.605-0.651
		c0.487-0.135,0.946-0.266,1.4-0.546c0.582-0.361,1.295-0.509,1.948-0.757c0.47-0.179,1-0.156,1.445-0.433
		c0.277,0.109,0.5,0.384,0.796,0.208c0.682,0.851,0.753,1.896,1.379,2.732c0,0.231-0.022,0.517,0.004,0.798
		c0.065,0.677-0.168,1.259-0.406,1.885c-0.334,0.879-0.869,1.65-1.188,2.533c-0.176,0.486-0.115,1.004-0.332,1.482
		c-0.09,0.199-0.158,0.444-0.213,0.662c-0.136,0.528-0.293,1.056-0.258,1.633c0.054,0.871,0.125,1.768-0.206,2.606
		c-0.255,0.645-0.259,1.311-0.19,1.963c0.058,0.551-0.096,1.077-0.28,1.514c-0.185,0.438-0.145,0.787-0.124,1.171
		c0.316,0.131,0.405-0.125,0.582-0.261c0-0.556,0-1.126,0-1.673c0.56-0.687,0.88-1.511,0.883-2.258
		c0.002-0.54-0.019-1.081,0.006-1.619c0.026-0.578,0.205-1.122,0.422-1.659c0.4-0.987,0.771-1.993,1.048-3.016
		c0.105-0.388,0.298-0.61,0.545-0.896c0.328,0,0.681,0,1.104,0c0.384,0.151,0.72,0.415,0.956,0.886
		c0.194,0.387,0.44,0.782,0.811,1.075c0.404,0.319,0.553,0.777,0.512,1.296c-0.014,0.175-0.002,0.352-0.002,0.45
		c0.141,0.167,0.233,0.276,0.313,0.372c0.704,0.074,1.171-0.75,1.907-0.409c0.67,0.349,0.85,1.167,1.353,1.513
		c0.392,0.761,0.358,1.472,0.304,2.163c-0.09,1.141,0.292,2.155,0.727,3.16c0.182,0.421,0.213,0.971,0.808,1.135
		c0.199,0.015,0.247-0.213,0.393-0.298c0.086-0.528,0.058-1.045-0.193-1.52c-0.242-0.456-0.212-0.939-0.211-1.425
		c0-0.684,0-1.368,0-2.056c0.178-0.175,0.357-0.351,0.542-0.531c0.332-0.126,0.571,0.163,0.893,0.253
		c0.159,0.498,0.663,0.929,0.498,1.542c0.277,0.277,0.531,0.53,0.786,0.786c0.28,0,0.566,0,0.851,0
		c0.224-0.281,0.699-0.215,0.787-0.63c0.398,0,0.754,0,1.209,0c0.231,0.257,0.517,0.572,0.812,0.897
		c0.952-0.191,1.877-0.954,2.874,0.021c-0.104,0.455,0.406,0.92,0.226,1.403c-0.181,0.485-0.173,0.95-0.183,1.256
		c0.237,0.328,0.402,0.557,0.492,0.68c0.44,0.156,0.615-0.215,0.927-0.166c0.271-0.653,0.718-1.327,0.485-2.035
		c-0.182-0.554-0.249-1.12-0.371-1.673c-0.121-0.55-0.026-1.146-0.026-1.813c0.169-0.134,0.39-0.307,0.674-0.53
		c0.844-0.181,1.773-0.454,2.691-0.817c0.204,0.29,0.55,0.137,0.85,0.173c0.306,0.306,0.611,0.611,0.973,0.973
		c-0.163,0.448,0.254,0.846,0.22,1.345c-0.033,0.479-0.08,0.979,0.342,1.353c0.069-0.006,0.14-0.012,0.244-0.021
		c0.165-1.076,0.071-2.121-0.39-3.125c-0.356-0.776-0.266-2.101,0.207-2.769c0.26-0.366,0.483-0.754,0.829-1.066
		c0.644-0.579,1.088-1.278,1.388-2.121C55.219,37.493,55.497,36.884,56.283,36.792z M23.049,53.212
		c0.699-0.603,1.048-1.203,0.738-2.112C22.921,51.6,23.039,52.344,23.049,53.212z"/>
	<path fill="currentColor" d="M40.536,26.727c0.619-1.017,0.884-2.035,0.43-3.146
		c-0.206-0.504-0.396-1.036-1.026-1.177c-0.03-0.006-0.048-0.057-0.078-0.073c-1.363-0.717-1.396-0.727-2.726,0.202
		c-0.294,0.205-0.65,0.284-0.937,0.326c-0.577,0.085-1.16,0.126-1.744,0.234c-0.805,0.148-1.562,0.277-1.896,1.374
		c0.118,0.751-0.165,1.67-0.266,2.62c-0.455,0.455-0.934,0.934-1.423,1.423c-0.392-0.051-0.68,0.215-1.077,0.414
		c-0.977,0.058-2.055,0.201-2.742-0.843c-0.155,0-0.273,0.027-0.369-0.006c-0.124-0.044-0.23-0.138-0.345-0.209
		c-0.612,0.194-1.214,0.444-1.872,0.43c-0.852-0.019-1.569,0.261-2.297,0.724c-0.806,0.513-1.731,0.844-2.621,1.216
		c-0.869,0.364-1.793,0.629-2.462,1.337c-0.183,0.194-0.448,0.298-0.616,0.339c-0.682,0.165-1.245,0.495-1.787,0.916
		c-0.591,0.459-1.325,0.636-2.02,0.846c-0.449,0.135-0.814,0.33-1.186,0.651c-0.415,0-0.872,0-1.32,0
		c-0.104-0.16-0.31-0.222-0.295-0.443c0.012-0.177,0.04-0.369-0.177-0.447c0.318-0.89,0.719-1.73,0.838-2.666
		c0.032-0.253,0.189-0.495,0.305-0.734c0.296-0.612,0.625-1.225,0.537-1.931c-0.046-0.375,0.39-0.61,0.231-0.972
		c0.254-0.392,0.684-0.601,0.876-1.058c0.161-0.384,0.546-0.611,1.115-0.791c0.297,0.032,0.756-0.039,1.246,0.178
		c0.533,0.235,1.051-0.146,1.457-0.389c0.264-0.037,0.409,0.007,0.556,0.147c0.113,0.108,0.346,0.05,0.42,0.217
		c0.726,0.222,1.39-0.085,2.071-0.177c0.25-0.034,0.52-0.182,0.708-0.356c0.411-0.383,0.868-0.53,1.42-0.5
		c0.411,0.022,0.813,0.021,1.213-0.195c0.424-0.229,0.919-0.275,1.414-0.233c0.453,0.038,0.904,0.028,1.329-0.318
		c-0.012-0.136,0.026-0.336-0.053-0.465c-0.188-0.307-0.549-0.445-0.863-0.49c-0.544-0.079-1.159,0.098-1.623-0.251
		c-0.487-0.367-1.099-0.013-1.576-0.397c-0.152-0.123-0.488-0.02-0.72-0.02c-0.632-0.375-0.386-1.265-0.989-1.612
		c0-0.24-0.086-0.521,0.017-0.655c0.243-0.314,0.154-0.752,0.409-1.021c0.768-0.809,1.162-1.917,2.134-2.584
		c-0.069-0.43,0.312-0.747,0.263-1.179c0.437-0.4,0.782-0.91,1.375-1.12c0.666-0.224,1.262,0.385,1.905,0.143
		c0.291,0.289,0.546,0.542,0.799,0.793c0,0.437,0,0.868,0,1.371c0.507,0.024,1.017,0.17,1.494-0.216
		c0.447,0.323,1.028,0.398,1.384,0.861c0.723,0.192,1.197-0.343,1.874-0.612c0.681,0,1.472,0,2.264,0
		c0.256,0.229,0.443,0.553,0.826,0.628c0.571,0,1.141,0,1.752,0c0.288-0.143,0.608-0.309,0.958-0.44
		c0.604-0.227,1.249-0.481,1.56-1.16c0.063-0.135,0.197-0.283,0.395-0.331c0.158-0.038,0.318-0.115,0.449-0.213
		c0.998-0.744,2.15-0.662,3.297-0.651c0.441,0.004,0.703,0.4,1.205,0.447c0.29-0.139,0.648-0.311,0.966-0.462
		c0.637-0.618,0.574-1.635,1.398-2.157c0.842,0.234,1.749,0.343,2.474,1.008c0.276,0.253,0.785,0.245,1.08,0.487
		c1.254,1.027,2.675,1.822,3.877,2.935c0.803,0.744,1.538,1.589,2.423,2.215c1.141,0.808,1.699,2.039,2.547,3.053
		c0.267,0.319,0.412,0.774,0.397,1.23c0.375,0.414,0.865,0.73,1.071,1.511c0,0.206,0,0.637,0,1.09
		c-0.092,0.083-0.198,0.179-0.351,0.316c-0.488-0.077-1.031,0.1-1.586-0.189c-0.237-0.124-0.635-0.077-0.991,0.159
		c-0.633,0.417-1.379,0.625-2.196,0.407c-0.598-0.594-1.215-1.219-1.936-1.74c-0.461-0.333-0.941-0.401-1.515-0.358
		c-0.433,0.533-0.587,1.318-1.3,1.716c-0.313,0-0.673,0-1.005,0c-0.552-0.434-1.22-0.61-1.767-1.04
		c-0.477-0.375-1.152-0.496-1.711-0.718c-0.354,0.164-0.698,0.231-0.949,0.552c0,0.821,0,1.678,0,2.581
		c0.269,0.587,0.608,1.194,0.868,1.851c0.214,0.542,0.2,0.97-0.117,1.49c-0.319,0.239-0.76,0.237-1.214,0.269
		c-0.507,0.035-0.999,0.169-1.374,0.592c-0.229,0.257-0.468,0.51-0.782,0.701c-0.624,0.378-1.275,0.511-2.111,0.379
		c-0.075-0.106-0.219-0.311-0.479-0.682c0-0.478-0.005-1.19,0.001-1.903c0.007-0.732,0.556-1.209,0.862-1.889
		C40.536,27.54,40.536,27.108,40.536,26.727z"/>
	<path fill="currentColor" d="M38.511,24.184c0.47,1.479-0.638,2.293-1.2,3.376
		c-0.082,0.338,0.04,0.748-0.207,1.15c-0.202,0.328,0.161,0.836-0.219,1.205c-0.073,0.071-0.035,0.276-0.019,0.416
		c0.13,1.099-0.301,2.152-0.233,3.254c0.067,1.11,0.016,2.227,0.012,3.341c0,0.063-0.043,0.125-0.066,0.188
		c-0.371,0.163-0.55-0.15-0.822-0.286c-0.694-0.348-1.088-0.903-1.35-1.593c-0.188-0.497-0.396-0.987-0.563-1.492
		c-0.273-0.828-0.21-0.823-0.034-1.875c0.105-0.628,0.02-1.288,0.02-1.927c-0.689-0.863-1.207-1.755-0.646-2.905
		c0.101-0.207,0.055-0.466,0.106-0.705c0.312-1.465,1.463-1.915,2.657-2.358C36.877,23.626,37.751,23.621,38.511,24.184z"/>
	<path fill="currentColor" d="M63.196,42.872c-0.243,0.352-0.59,0.36-0.792,0.522
		c-0.757-0.046-0.934-0.647-1.115-1.165c-0.814-2.325-1.115-2.881-2.592-4.524c-0.09-0.1-0.195-0.172-0.242-0.331
		c-0.323-1.083-1.203-1.94-1.287-3.125c-0.431-0.458-0.108-1.021-0.218-1.451c0.226-0.422,0.384-0.821,0.864-1.044
		c0.26,0,0.618,0,0.941,0c0.79,0.551,1.131,1.472,1.864,2.031c-0.048,0.543,0.169,1.006,0.375,1.471
		c0.176,0.394,0.346,0.791,0.533,1.178c0.218,0.449,0.414,0.916,0.692,1.326c0.291,0.428-0.09,0.996,0.348,1.365
		c-0.067,0.446,0.22,0.762,0.383,1.134c0.239,0.548,0.529,1.096,0.488,1.738C63.417,42.346,63.084,42.585,63.196,42.872z"/>
	<path fill="currentColor" d="M63.216,33.373c-0.255,0.201-0.22,0.6-0.572,0.763
		c-0.28-0.034-0.498-0.285-0.776-0.371c-0.479-0.147-0.699-0.491-0.899-0.906c-0.508-1.047-0.957-2.127-1.646-3.075
		c-0.225-0.31-0.135-0.736-0.441-1.016c0.248-0.321,0.134-0.809,0.542-1.098c0.389,0,0.813,0,1.328,0
		c0.249,0.381,0.762,0.503,1.239,0.777c0.386,0.667,0.583,1.441,0.793,2.21c0.035,0.131-0.056,0.281,0.065,0.403
		c0.475,0.479,0.357,1.091,0.367,1.672C63.219,32.948,63.216,33.162,63.216,33.373z"/>
	<path fill="currentColor" d="M38.295,38.664c-0.358-0.283-0.863-0.373-1.004-0.857
		c0.17-0.543,0.75-0.604,1.099-0.996c-0.115-0.622-0.505-1.283,0.171-2.046c0.484-0.307,1.166-0.349,1.927,0.085
		c0.265,0.519,0.487,1.111,0.063,1.762c-0.066,0.101-0.026,0.282-0.013,0.423c0.072,0.782-0.261,1.319-1.093,1.629
		C39.132,38.664,38.701,38.664,38.295,38.664z"/>
	<path fill="currentColor" d="M14.846,20.726c-0.308-0.237-0.505-0.388-0.662-0.509
		c0-0.678,0.912-1.47,1.809-1.64c0.491-0.339,0.702-0.969,1.178-1.271c0.49-0.311,0.781-0.804,1.279-1.104
		c0.281,0.019,0.625-0.095,0.879,0.307c0,0.244,0,0.557,0,0.936c-0.696,0.531-1.171,1.416-2.067,1.834
		c-0.258,0.841-1.083,0.917-1.694,1.297C15.284,20.752,15.036,20.693,14.846,20.726z"/>
	<path fill="currentColor" d="M41.53,37.592c-0.5-0.698-0.295-1.379-0.353-2.019
		c0.289-0.422,0.688-0.664,1.223-0.814c0.3,0.112,0.665,0.199,0.912,0.546c0.163,0.663-0.075,1.324-0.208,2.032
		c0.306,0,0.546,0,0.75,0c0.213,0.214,0.39,0.391,0.563,0.563c0.06,0.31-0.017,0.563-0.304,0.74c-0.299,0-0.611,0-0.95,0
		C42.838,37.931,42.347,37.464,41.53,37.592z"/>
	<path fill="currentColor" d="M41.003,10.873c0.116-0.116,0.191-0.192,0.268-0.268
		c0.834-0.104,1.586,0.008,2.076,0.798c-0.599,0.784-1.173,0.892-2.344,0.425C41.003,11.535,41.003,11.221,41.003,10.873z"/>
	<path fill="currentColor" d="M30.06,14.258c0.101,0.07,0.101,0.142,0,0.212
		C29.959,14.4,29.959,14.328,30.06,14.258z"/>
	
</g>
</svg>
