<?xml version="1.0" encoding="iso-8859-1"?>
<!-- Generator: Adobe Illustrator 16.0.0, SVG Export Plug-In . SVG Version: 6.00 Build 0)  -->
<!DOCTYPE svg PUBLIC "-//W3C//DTD SVG 1.1//EN" "http://www.w3.org/Graphics/SVG/1.1/DTD/svg11.dtd">
<svg version="1.1" id="Layer_1" xmlns="http://www.w3.org/2000/svg" xmlns:xlink="http://www.w3.org/1999/xlink" x="0px" y="0px"
	 width="72.36px" height="72.18px" viewBox="0 0 72.36 72.18" style="enable-background:new 0 0 72.36 72.18;" xml:space="preserve"
	>
<g>
	
	<path fill="currentColor" d="M17.185,29.003c-0.381-0.678-0.662-1.35-0.632-2.14
		c0.034-0.898-0.013-1.8,0.015-2.699c0.021-0.692,0.399-1.384,0.188-2.063c-0.215-0.694-0.153-1.382-0.202-2.076
		c-0.047-0.676,0.155-1.227,0.736-1.688c-0.48-0.555-0.75-1.167-0.745-1.875c0.191-0.184,0.373-0.357,0.559-0.537
		c0.672-0.107,1.399,0.175,2.029-0.216c0.583,0.173,1.131,0.379,1.524,1.019c-0.13,0.772,0.458,1.288,1.061,1.84
		c0,0.36,0,0.747,0,1.092c0.208,0.223,0.394,0.49,0.657,0.344c0.603-0.333,1.24-0.151,1.86-0.207
		c0.241-0.021,0.497,0.083,0.724-0.074c0.109-0.326-0.166-0.419-0.331-0.57c-0.307-0.072-0.431,0.479-0.821,0.253
		c-0.153-0.197-0.305-0.394-0.475-0.613c0.077-0.128,0.11-0.35,0.163-0.571c0.052-0.216,0.25-0.424,0.563-0.369
		c0.262,0.045,0.343-0.215,0.508-0.333c0.14-0.1,0.203-0.3,0.368-0.313c0.324,0.012,0.38,0.333,0.611,0.414
		c0.317-0.234,0.346-0.683,0.685-0.906c0.299-0.196,0.693-0.278,0.776-0.743c0.021-0.118,0.337-0.269,0.511-0.261
		c0.794,0.039,1.625-0.212,2.38,0.267c0.175,0.541,0.326,1.098,0.281,1.703c-0.043,0.59-0.008,1.186-0.09,1.771
		c0.056,0.239,0.106,0.553,0.43,0.789c0.953-0.363,2.01-0.169,2.995-0.236c0.41-0.279,0.433-0.675,0.279-0.977
		c-0.196-0.387-0.208-0.667,0.004-1.052c0.121-0.218,0.022-0.558,0.022-0.873c1.127-1,2.397-1.578,3.98-1.38
		c0.212,0.147,0.543,0.19,0.772,0.507c0,1.124,0,2.302,0,3.441c0.14,0.14,0.241,0.241,0.343,0.343
		c1.079,0.001,2.159,0.001,3.288,0.001c0.252-1.333-0.22-2.739,0.291-4.027c0.938-0.51,1.836-0.292,2.787-0.001
		c0.376,0.859,1.186,1.364,1.957,1.9c0,0.717,0,1.391,0,2.096c1.143,0,2.248,0,3.372,0c0.072-0.125,0.262-0.181,0.3-0.387
		c0.271-1.481,0.275-1.48,1.414-2.619c0.336,0.1,0.697,0.4,1.145,0.165c0-0.192,0-0.4,0-0.678c0.198-0.154,0.42-0.326,0.703-0.545
		c0.314,0,0.744,0,1.168,0c0.083,0.083,0.203,0.147,0.228,0.238c0.116,0.422,0.288,0.85,0.293,1.278
		c0.026,2.519,0.002,5.038,0.026,7.557c0.004,0.337-0.353,0.555-0.224,0.88c0.184,0.462-0.5,0.825-0.066,1.371
		c0.271,0.343-0.072,0.948,0.261,1.398c0.103,0.14,0.016,0.42,0.016,0.636c0,1.152,0.004,2.303-0.001,3.455
		c-0.003,0.551,0.1,1.131-0.36,1.576c-0.128,0.124-0.112,0.316-0.06,0.396c0.392,0.592,0.114,1.239,0.215,1.827
		c-0.23,0.23-0.434,0.434-0.665,0.666c0.214,0.179,0.428,0.358,0.655,0.549c0,0.564,0.03,1.1-0.009,1.629
		c-0.04,0.553,0.085,1.099-0.134,1.668c-0.192,0.5,0.248,1.044,0.15,1.609c-0.099,0.577,0.157,1.195-0.213,1.752
		c-0.058,0.086-0.023,0.316,0.055,0.392c0.253,0.246,0.144,0.538,0.146,0.808c0.011,1.511,0.005,3.022,0.005,4.637
		c-0.192,0.155-0.442,0.356-0.698,0.562c0.13,0.416,0.479,0.58,0.691,0.864c-0.063,1.44,0.357,2.864,0.231,4.323
		c-0.056,0.652-0.014,0.656-0.44,1.548c0.291,0.661,0.31,1.33,0.102,2.021c-0.108,0.359-0.337,0.653-0.626,0.807
		c-0.444,0.236-0.861,0.464-1.111,0.92c-0.033,0.061-0.093,0.137-0.151,0.149c-0.74,0.157-1.15,0.833-1.798,1.136
		c-0.603,0.282-1.194,0.591-1.804,0.858c-0.61,0.269-1.173,0.626-1.784,0.902c-0.736,0.333-1.51,0.529-2.246,0.836
		c-0.717,0.298-1.464,0.47-2.208,0.674c-0.675,0.185-1.391,0.245-2.032,0.558c-0.059,0.028-0.129,0.062-0.19,0.056
		c-0.99-0.088-1.937,0.265-2.935,0.249c-1.298-0.021-2.596,0.313-3.903,0.178c-1.085-0.113-2.163-0.278-3.258-0.208
		c-0.394-0.3-0.897-0.25-1.342-0.404c-0.886-0.308-1.83-0.45-2.745-0.678c-1.106-0.275-2.267-0.422-3.147-1.262
		c-0.836-0.198-1.454-0.813-2.218-1.16c-1.481-0.673-2.816-1.599-4.124-2.567c-0.445-0.329-0.925-0.587-1.116-1.31
		c0.186-0.565-0.374-1.243-0.063-2.036c0.265-0.674-0.201-1.419-0.212-2.163c-0.013-0.786,0.411-1.502,0.233-2.261
		c0.201-0.344,0.421-0.647,0.455-0.962c-0.018-0.365-0.315-0.442-0.454-0.676c0.109-0.407-0.156-0.876,0.21-1.304
		c0.125-0.146,0.114-0.546,0.002-0.729c-0.31-0.501-0.188-1.026-0.191-1.541c-0.016-1.942-0.007-3.886-0.007-5.887
		c0.25-0.225,0.498-0.508,0.58-0.941c-0.16-0.261-0.436-0.581-0.565-0.953c-0.225-0.643-0.45-1.306-0.047-1.991
		c0.095-0.161,0.031-0.419,0.031-0.632c0.002-0.828-0.014-1.656,0.008-2.483c0.009-0.336-0.048-0.657,0.171-1.012
		c0.212-0.344-0.15-0.769-0.282-1.143c-0.059-0.167-0.171-0.357-0.101-0.486c0.271-0.496,0.215-0.922,0.021-1.458
		C16.367,30.011,16.695,29.418,17.185,29.003z M36.45,30.398c-0.788-0.098-1.018,0.735-1.64,0.851
		c-0.741,0.815-1.615,1.5-2.273,2.399c-0.702,0.959-1.358,1.948-1.994,2.951c-0.483,0.762-0.719,1.653-1.235,2.4
		c-0.034,0.049,0.026,0.172-0.009,0.208c-0.343,0.343-0.156,0.835-0.403,1.242c-0.519,0.854-0.634,1.867-0.646,2.844
		c-0.008,0.675-0.121,1.331-0.324,1.928c-0.323,0.946-0.389,1.874-0.332,2.785c0.132,0.132,0.209,0.209,0.306,0.306
		c0.803,0,1.632-0.056,2.449,0.017c0.738,0.065,1.464-0.605,2.195-0.017c0.827,0,1.653,0,2.48,0s1.653,0,2.48,0
		c0.826,0,1.653,0,2.479,0c0.791,0,1.582,0,2.372,0c0.819,0,1.638,0,2.433,0c0.078-0.221,0.063-0.416,0.266-0.514
		c-0.254-0.204-0.191-0.486-0.198-0.753c-0.016-0.624-0.03-1.231-0.184-1.859c-0.176-0.718-0.508-1.417-0.465-2.186
		c0.058-1.028-0.197-1.963-0.85-2.777c-0.011-0.693-0.08-1.353-0.588-1.921c-0.142-0.158-0.291-0.43-0.31-0.73
		c-0.016-0.247-0.149-0.546-0.331-0.712c-0.625-0.57-0.779-1.491-1.511-1.972c-0.047-0.031-0.054-0.119-0.083-0.179
		c-0.389-0.775-0.902-1.458-1.52-2.067C38.213,31.85,37.453,31.01,36.45,30.398z M47.34,49.823
		c-0.263-0.052-0.364,0.171-0.519,0.302c0.46,0.549,0.09,1.004-0.176,1.463c-0.043,0.075-0.074,0.104,0.021,0.155
		c0.241,0,0.481,0,0.706,0c0.321-0.52,0.336-1.062,0.27-1.616C47.542,50.025,47.441,49.925,47.34,49.823z M17.856,49.846
		c0,0.193-0.044,0.333,0.007,0.404c0.326,0.454,0.24,0.892,0,1.341c-0.017,0.031,0.061,0.112,0.103,0.184
		c0.173-0.185,0.343-0.367,0.507-0.543c0-0.45,0-0.908,0-1.386C18.271,49.846,18.102,49.846,17.856,49.846z M18.857,30.341
		c-0.238-0.252-0.135-0.92-0.837-0.767C18.166,30.025,18.429,30.261,18.857,30.341z M47.117,47.454
		c-0.066,0.484-0.066,0.484,0.244,0.874c0.077-0.193,0.351-0.249,0.303-0.518C47.523,47.632,47.414,47.401,47.117,47.454z
		 M29.019,23.202c0.425,0,0.781,0,1.191,0C29.632,22.725,29.632,22.725,29.019,23.202z M25.434,50.669
		c-0.068-0.28,0.061-0.544-0.089-0.827c-0.095,0-0.191,0-0.378,0c0.068,0.28-0.062,0.544,0.089,0.827
		C25.151,50.669,25.247,50.669,25.434,50.669z M30.365,61.505c-0.305-0.05-0.44,0.006-0.405,0.316
		c0.087,0.083,0.21,0.199,0.405,0.384C30.365,61.888,30.365,61.723,30.365,61.505z M25.311,47.231
		c0.154-0.146,0.158-0.29-0.006-0.434c-0.099,0.017-0.217-0.045-0.29,0.084c-0.06,0.131-0.047,0.253,0.083,0.35
		C25.167,47.231,25.238,47.231,25.311,47.231z M45.69,51.785c0.034,0.188,0.052,0.283,0.07,0.384
		c0.209-0.061,0.302-0.184,0.423-0.384C45.982,51.785,45.888,51.785,45.69,51.785z M30.818,22.932c-0.146-0.157-0.291-0.157-0.437,0
		C30.528,23.088,30.672,23.088,30.818,22.932z M36.446,27.03c-0.199-0.133-0.338-0.199-0.42,0.04
		C36.161,27.177,36.28,27.185,36.446,27.03z M45.618,40.117c0.132-0.199,0.198-0.337-0.04-0.42
		C45.47,39.832,45.463,39.951,45.618,40.117z"/>
	
	
	
	
	
	
	
	
	
	
	
	
	
</g>
</svg>
