<?xml version="1.0" encoding="iso-8859-1"?>
<!-- Generator: Adobe Illustrator 16.0.0, SVG Export Plug-In . SVG Version: 6.00 Build 0)  -->
<!DOCTYPE svg PUBLIC "-//W3C//DTD SVG 1.1//EN" "http://www.w3.org/Graphics/SVG/1.1/DTD/svg11.dtd">
<svg version="1.1" id="Layer_1" xmlns="http://www.w3.org/2000/svg" xmlns:xlink="http://www.w3.org/1999/xlink" x="0px" y="0px"
	 width="72.36px" height="72.18px" viewBox="0 0 72.36 72.18" style="enable-background:new 0 0 72.36 72.18;" xml:space="preserve"
	>
<g>
	<path style="fill-rule:evenodd;clip-rule:evenodd;fill:none;" d="M-6.984,79.631c0-28.871,0-57.743,0-86.615
		c28.8,0,57.6,0,86.399,0c0,28.872,0,57.744,0,86.615C50.616,79.631,21.816,79.631-6.984,79.631z M25.614,65.586
		c0.535-0.121,1.188,0.065,1.693,0.329c1.186,0.619,2.521,0.671,3.736,1.154c0.28,0.112,0.629,0.255,0.977,0.251
		c0.396-0.004,0.792-0.001,1.188-0.001c0.504,0,1.045-0.118,1.503,0.027c0.728,0.229,1.38,0.242,2.107,0.002
		c0.32-0.106,0.744-0.101,1.137,0.07c0.697,0.303,1.353,0.142,1.901-0.395c0.383-0.374,0.758-0.755,1.026-1.023
		c0.246-0.645-0.111-1.075-0.151-1.671c0.352-0.306,0.754-0.654,1.087-0.944c0.07-0.81-0.468-1.156-0.879-1.611
		c0.089-0.435,0.022-0.868-0.274-1.326c0.639,0,1.168,0,1.66,0c0.681-0.714,1.371-0.855,2.285-0.506
		c0.631,0.242,1.204,0.57,1.813,0.84c0.656,0.29,1.317,0.567,2.065,0.493c0.279-0.027,0.563-0.004,0.775-0.004
		c0.508,0.363,0.308,0.813,0.326,1.079c-0.305,0.349-0.539,0.616-0.751,0.858c-0.703,0.083-1.28-0.209-1.543-0.735
		c-0.263-0.524-0.686-0.724-1.111-0.986c-0.256-0.158-0.579-0.195-0.792-0.431c-0.576,0-1.152,0-1.727,0
		c-0.18,0.18-0.357,0.357-0.537,0.537c0,0.431,0,0.861,0,1.296c0.343,0.335,0.588,0.804,0.4,1.208
		c-0.228,0.49-0.135,0.947-0.183,1.327c0.273,0.462,0.685,0.593,0.962,0.771c0.567,0,1.151,0.17,1.546-0.032
		c1.07-0.549,2.192-0.976,3.264-1.511c0.271-0.136,0.455-0.442,0.822-0.365c0.489-0.507,1.322-0.358,1.776-0.919
		c0.252-0.312,0.661-0.365,0.936-0.6c0.314-0.268,0.737-0.054,0.976-0.253c1.001-0.837,2.27-1.391,2.89-2.712
		c0-0.292,0-0.651,0-0.916c-0.225-0.577-0.707-0.962-0.637-1.554c0.053-0.438-0.084-0.837-0.241-1.2
		c-0.354-0.817-0.482-1.651-0.418-2.528c0.011-0.143,0.002-0.287,0.002-0.448c-0.732-0.527-0.324-1.409-0.605-2.107
		c-0.216-0.538,0.222-1.165,0.374-1.696c-0.339-0.921-0.621-1.818-0.312-2.746c0.165-0.497,0.203-1.02,0.043-1.438
		c-0.123-0.32-0.178-0.623-0.128-0.905c0.065-0.363-0.251-0.551-0.249-0.886c0.008-1.845,0.134-3.694-0.299-5.671
		c-0.033-0.03-0.171-0.254-0.355-0.304c-0.559-0.149-0.655-0.615-0.854-1.044c-0.188-0.406-0.459-0.765-0.802-1.076
		c-0.462-0.417-0.896-0.842-0.959-1.554c-0.019-0.22-0.237-0.541-0.487-0.766c-0.571-0.515-1.152-1.034-1.498-1.723
		c-0.188,0-0.33,0-0.38,0c-0.811-0.481-1.028-1.249-1.234-1.909c0.133-0.564,0.49-0.888,0.894-1.268
		c-0.484-0.104-0.418-0.579-0.702-0.805c0-0.354,0-0.712,0-1.089c0.425-0.414,0.862-0.84,1.306-1.271
		c-0.062-0.313,0.038-0.603-0.208-0.91c-0.218-0.271-0.308-0.678-0.247-1.081c0.042-0.279,0.008-0.57,0.008-0.843
		c-0.263-0.224-0.283-0.553-0.436-0.811c-0.725-1.23-1.12-2.539-1.088-3.982c0.013-0.579-0.221-1.141-0.567-1.592
		c-0.523-0.681-0.841-1.466-1.09-2.249c-0.125-0.393-0.467-0.91-0.241-1.273c0.245-0.396,0.107-0.75,0.188-1.092
		c-0.525-0.676-0.902-1.384-0.899-2.203c-0.517-0.516-1.01-0.99-1.48-1.487c-0.365-0.386-0.864-0.688-1.313-0.713
		c-0.906-0.049-1.782-0.468-2.728-0.204c-0.295,0.293-0.752,0.364-1.111,0.642c-0.97,0.749-1.934,1.5-2.783,2.386
		c-0.508,0.53-1.108,0.936-1.764,1.223c-0.429,0.188-0.758,0.454-1.093,0.756c-1.014,0.916-1.573,2.159-2.363,3.235
		c-0.039,1.118-0.039,1.118-1.527,2.607c0.012,0.437-0.163,0.795-0.456,1.109c-0.069,0.075-0.104,0.099-0.185-0.017
		c-0.009-0.198-0.02-0.44-0.029-0.646c-0.19-0.322-0.451-0.376-0.608-0.345c-0.357,0.313-0.622,0.545-0.89,0.78
		c0.163,0.102,0.217,0.318,0.422,0.316c0.273-0.03,0.345-0.33,0.537-0.394c0.124,0.099,0.233,0.188,0.178,0.143
		c0,0.731-0.151,1.311-0.318,1.986c0.52-0.103,0.622,0.335,0.906,0.528c0,0.504,0,1.008,0,1.424
		c-0.316,0.784-0.942,1.201-1.428,1.744c-0.58-0.166-1.006,0.344-1.531,0.166c-0.213,0.529-0.383,0.931-0.894,1.232
		c-0.606,0.356-1.286,0.654-1.797,1.127c-0.642,0.594-1.365,1.129-1.786,1.947c-0.194,0.378-0.612,0.583-1.009,0.661
		c-0.358,0.07-0.485,0.222-0.65,0.539c-0.261,0.5-0.534,1.03-1.171,1.246c-0.275,0.093-0.579,0.397-0.674,0.672
		c-0.28,0.81-0.926,1.296-1.473,1.876c-0.153-0.145-0.306-0.289-0.454-0.428c-0.618,0.11-0.732,0.202-0.744,0.543
		c-0.006,0.158,0.076,0.25,0.148,0.374c0.171,0.29,0.478,0.068,0.671,0.223c0.014,0.311,0.381,0.512,0.22,0.991
		c-0.234,0.193-0.563,0.465-0.857,0.708c0.115,0.435-0.04,0.765,0.176,1.13c0.174,0.294,0.071,0.751,0.09,1.126
		c-0.225,0.104-0.188,0.315-0.277,0.452c-0.097,0.147-0.248,0.259-0.383,0.394c0,0.352,0.001,0.71,0,1.069
		c-0.005,0.921-0.535,1.926-1.269,2.593c-0.491,0.445-1.03,0.866-1.293,1.559c0,0.333,0,0.72,0,1.146
		c0.703,0.304,0.509,1.055,0.781,1.592c0.278,0.547-0.154,1.059-0.209,1.594c-0.355,0.105-0.664,0.248-0.585,0.827
		c0.333,0.138,0.58,0.573,0.595,0.908c0.04,0.925,0.807,1.78,0.266,2.761c-0.062,0.113-0.063,0.329,0.057,0.506
		c0.306,0.448,0.267,1.047,0.088,1.423c-0.228,0.477-0.056,0.896-0.155,1.241c1.09,1.488,2.018,3.012,3.679,4.037
		c0.31-0.204,0.63,0.17,1.011,0.296c0.483,0.158,0.74,0.64,1.144,0.895c0.921,0.581,1.956,0.99,2.688,1.847
		c1.151,0.396,2.084,1.22,3.202,1.654C24.5,65.069,25.01,65.302,25.614,65.586z M61.807,31.482c-0.311,0.185-0.365,0.444-0.308,0.75
		c0.245,0.301,0.611,0.394,0.798,0.498c0.303-0.216,0.531-0.379,0.67-0.478c0.1-0.404-0.049-0.59-0.282-0.77
		C62.403,31.482,62.091,31.482,61.807,31.482z"/>
	<path fill="currentColor" d="M25.614,65.586c-0.604-0.284-1.113-0.517-1.647-0.725
		c-1.118-0.435-2.051-1.259-3.202-1.654c-0.731-0.856-1.767-1.266-2.688-1.847c-0.403-0.255-0.661-0.736-1.144-0.895
		c-0.381-0.126-0.702-0.5-1.011-0.296c-1.661-1.025-2.588-2.549-3.679-4.037c0.099-0.345-0.073-0.765,0.155-1.241
		c0.179-0.376,0.218-0.975-0.088-1.423c-0.12-0.177-0.118-0.393-0.057-0.506c0.541-0.98-0.226-1.836-0.266-2.761
		c-0.015-0.335-0.262-0.771-0.595-0.908c-0.079-0.579,0.229-0.722,0.585-0.827c0.055-0.535,0.487-1.047,0.209-1.594
		c-0.272-0.537-0.078-1.288-0.781-1.592c0-0.426,0-0.813,0-1.146c0.263-0.692,0.802-1.113,1.293-1.559
		c0.734-0.667,1.264-1.672,1.269-2.593c0.002-0.359,0-0.718,0-1.069c0.135-0.135,0.286-0.246,0.383-0.394
		c0.09-0.137,0.053-0.348,0.277-0.452c-0.02-0.375,0.083-0.832-0.09-1.126c-0.216-0.365-0.061-0.695-0.176-1.13
		c0.294-0.243,0.623-0.515,0.857-0.708c0.161-0.479-0.206-0.68-0.22-0.99c-0.193-0.156-0.5,0.066-0.671-0.224
		c-0.072-0.124-0.154-0.216-0.148-0.374c0.012-0.341,0.126-0.433,0.744-0.543c0.147,0.139,0.301,0.284,0.454,0.428
		c0.547-0.58,1.193-1.066,1.473-1.876c0.095-0.275,0.399-0.579,0.674-0.672c0.637-0.216,0.911-0.746,1.171-1.246
		c0.165-0.316,0.292-0.468,0.65-0.539c0.397-0.078,0.815-0.282,1.009-0.661c0.42-0.818,1.144-1.354,1.786-1.947
		c0.511-0.473,1.191-0.771,1.797-1.127c0.51-0.301,0.681-0.703,0.894-1.232c0.525,0.179,0.951-0.332,1.531-0.166
		c0.486-0.543,1.112-0.96,1.428-1.744c0-0.416,0-0.92,0-1.424c-0.285-0.193-0.387-0.631-0.906-0.528
		c0.167-0.675,0.319-1.255,0.318-1.986c0.056,0.045-0.054-0.043-0.178-0.143c-0.192,0.064-0.264,0.363-0.537,0.394
		c-0.206,0.001-0.259-0.215-0.422-0.316c0.268-0.235,0.532-0.467,0.89-0.78c0.157-0.032,0.418,0.023,0.608,0.345
		c0.009,0.206,0.02,0.448,0.029,0.646c0.081,0.116,0.116,0.091,0.185,0.017c0.293-0.314,0.468-0.672,0.456-1.109
		c1.489-1.489,1.489-1.489,1.527-2.607c0.791-1.076,1.35-2.319,2.364-3.235c0.334-0.302,0.664-0.568,1.093-0.756
		c0.655-0.287,1.255-0.692,1.764-1.223c0.849-0.885,1.813-1.637,2.783-2.386c0.359-0.277,0.816-0.349,1.111-0.642
		c0.945-0.264,1.821,0.155,2.728,0.204c0.448,0.024,0.947,0.327,1.313,0.713c0.471,0.497,0.964,0.971,1.48,1.487
		c-0.003,0.819,0.374,1.526,0.899,2.203c-0.081,0.343,0.057,0.697-0.188,1.092c-0.226,0.363,0.116,0.88,0.241,1.273
		c0.249,0.782,0.566,1.568,1.09,2.249c0.347,0.451,0.58,1.013,0.567,1.592c-0.032,1.443,0.363,2.752,1.088,3.982
		c0.152,0.258,0.173,0.587,0.436,0.811c0,0.272,0.034,0.563-0.008,0.843c-0.061,0.403,0.029,0.81,0.247,1.081
		c0.246,0.308,0.146,0.597,0.208,0.91c-0.443,0.432-0.881,0.857-1.306,1.271c0,0.377,0,0.735,0,1.089
		c0.284,0.226,0.218,0.701,0.702,0.805c-0.403,0.379-0.761,0.704-0.894,1.268c0.206,0.66,0.424,1.427,1.234,1.909
		c0.05,0,0.191,0,0.38,0c0.346,0.689,0.927,1.208,1.498,1.723c0.25,0.225,0.469,0.546,0.487,0.766
		c0.063,0.712,0.497,1.137,0.959,1.554c0.343,0.311,0.613,0.67,0.802,1.076c0.199,0.429,0.296,0.895,0.854,1.044
		c0.185,0.05,0.322,0.273,0.355,0.304c0.433,1.977,0.307,3.826,0.299,5.671c-0.002,0.335,0.314,0.522,0.249,0.886
		c-0.05,0.282,0.005,0.585,0.128,0.905c0.16,0.419,0.122,0.941-0.043,1.438c-0.31,0.928-0.027,1.825,0.312,2.746
		c-0.152,0.531-0.59,1.158-0.374,1.696c0.281,0.698-0.127,1.58,0.605,2.107c0,0.161,0.009,0.306-0.002,0.448
		c-0.064,0.877,0.064,1.711,0.418,2.528c0.157,0.363,0.294,0.762,0.241,1.2c-0.07,0.592,0.412,0.977,0.637,1.554
		c0,0.265,0,0.624,0,0.916c-0.62,1.321-1.889,1.875-2.89,2.712c-0.238,0.199-0.661-0.015-0.976,0.253
		c-0.274,0.234-0.684,0.288-0.936,0.6c-0.454,0.561-1.287,0.412-1.776,0.919c-0.367-0.077-0.552,0.229-0.822,0.365
		c-1.071,0.535-2.193,0.962-3.264,1.511c-0.395,0.202-0.979,0.032-1.546,0.032c-0.277-0.178-0.688-0.309-0.962-0.771
		c0.048-0.38-0.045-0.837,0.183-1.327c0.188-0.404-0.058-0.873-0.4-1.208c0-0.435,0-0.865,0-1.296
		c0.18-0.18,0.357-0.357,0.537-0.537c0.574,0,1.15,0,1.727,0c0.213,0.235,0.536,0.272,0.792,0.431
		c0.426,0.263,0.849,0.462,1.111,0.986c0.263,0.526,0.84,0.818,1.543,0.735c0.212-0.242,0.446-0.51,0.751-0.858
		c-0.019-0.267,0.182-0.716-0.326-1.079c-0.213,0-0.496-0.023-0.775,0.004c-0.748,0.074-1.409-0.203-2.065-0.493
		c-0.608-0.27-1.182-0.598-1.813-0.84c-0.914-0.35-1.604-0.208-2.285,0.506c-0.492,0-1.021,0-1.66,0
		c0.297,0.458,0.363,0.892,0.274,1.326c0.411,0.455,0.949,0.802,0.879,1.611c-0.333,0.29-0.735,0.639-1.087,0.944
		c0.04,0.596,0.397,1.026,0.151,1.671c-0.269,0.269-0.644,0.649-1.026,1.023c-0.549,0.536-1.204,0.697-1.901,0.395
		c-0.394-0.171-0.817-0.177-1.137-0.07c-0.727,0.24-1.379,0.228-2.107-0.002c-0.458-0.146-1-0.027-1.503-0.027
		c-0.396,0-0.792-0.003-1.188,0.001c-0.348,0.004-0.697-0.139-0.977-0.251c-1.215-0.483-2.55-0.535-3.736-1.154
		C26.802,65.651,26.148,65.465,25.614,65.586z M37.624,27.955c0.647-0.084,1.044-0.375,1.455-0.707
		c0.309-0.249,0.719-0.545,1.168-0.526c1.051,0.044,2.037-0.256,3.037-0.488c0.102-0.486,0.625-0.725,0.705-1.202
		c0.028-1.069,0.103-2.118,0.169-3.167c0.092-1.429,0.249-2.893-0.143-4.336c-0.145-0.536-0.023-1.144-0.023-1.719
		c-0.165-0.543-0.545-0.968-0.689-1.555c-0.19-0.769-0.121-1.563-0.367-2.32c-0.091-0.278-0.353-0.51-0.251-0.877
		c0.126-0.462-0.157-0.842-0.348-1.25c-0.297-0.639-0.882-0.977-1.216-1.414c-0.727-0.187-0.929,0.394-0.942,0.684
		c-0.031,0.654-0.466,1.045-0.723,1.611c0,1.448,0.005,2.958-0.004,4.468c-0.002,0.24,0.078,0.493-0.071,0.724
		c-0.422,0.653-0.375,1.39-0.354,2.117c0.024,0.844-0.191,1.625-0.662,2.313c-0.22,0.32-0.407,0.583-0.468,1.008
		c-0.044,0.311-0.088,0.673-0.201,0.983c-0.462,1.264-1.015,2.5-1.055,3.877c-0.558,0.629,0.005,1.063,0.222,1.532
		C37.143,27.862,37.494,27.682,37.624,27.955z M23.487,48.507c0.489-0.864,1.336-1.468,1.03-2.454
		c-0.203-0.365-0.454-0.354-0.681-0.335c-0.738,0.553-1.113,1.23-1.027,2.175c0.063,0.691-0.292,1.3-0.571,1.787
		c0,0.548,0,0.997,0,1.372c0.653,0.317,0.725-0.551,1.092-0.442C24.124,49.88,23.276,49.186,23.487,48.507z M27.995,47.584
		c0,0.277,0.052,0.575-0.009,0.846c-0.209,0.928-0.205,0.92-0.026,1.678c0.12,0.511,0.128,1.031-0.204,1.493
		c0.427,0.224,0.052,0.884,0.612,0.995c0.085-0.322,0.271-0.592,0.316-0.953c0.086-0.69,0.366-1.354,0.508-2.04
		c0.182-0.879,0.286-1.768-0.199-2.575C28.453,46.899,28.283,47.326,27.995,47.584z M40.536,50.178
		c0.293,0.105,0.575,0.14,0.877-0.035c0.256-0.149,0.531-0.272,0.809-0.38c0.617-0.239,1.209-0.642,1.919-0.175
		c0.146,0.096,0.482,0.115,0.688-0.056c0-0.474,0-0.93,0-1.367c-0.241-0.105-0.454-0.198-0.632-0.276
		c-0.493,0.268-1.022,0.377-1.503,0.604c-0.21,0.1-0.462,0.272-0.755,0.256c-0.656-0.036-1.065,0.361-1.402,0.779
		C40.536,49.789,40.536,49.969,40.536,50.178z M35.877,60.623c-0.345,0-0.704,0-1.067,0c-0.175,0.248-0.529,0.369-0.554,0.745
		c0.516,0.4,1.091,0.38,1.667,0.303C36.292,61.352,36.37,61.033,35.877,60.623z M45.262,53.17c-0.627,0.234-1.163,0.411-1.677,0.641
		c-0.164,0.074-0.377,0.251-0.156,0.533c0.611,0.072,1.199-0.035,1.729-0.397C45.378,53.795,45.277,53.567,45.262,53.17z
		 M21.344,53.707c0.615,0.044,0.544-0.527,0.841-0.758c-0.057-0.387,0.081-0.811-0.136-1.268
		C21.153,52.213,21.302,52.967,21.344,53.707z M17.832,43.521c0.467,0,0.877,0,1.255,0c0.145-0.168,0.336-0.251,0.28-0.472
		c-0.24-0.417-0.614-0.401-1.011-0.319C18.202,42.96,17.886,43.064,17.832,43.521z M32.98,44.086
		c0.109,0.106,0.183,0.268,0.382,0.301c-0.038-0.29,0.362-0.427,0.261-0.688c-0.131-0.148-0.224-0.255-0.314-0.357
		C33.054,43.535,32.891,43.755,32.98,44.086z M45.015,56.854c0.449,0.229,0.569-0.078,0.699-0.341
		c0.019-0.038-0.043-0.116-0.08-0.204C45.313,56.27,45.163,56.462,45.015,56.854z"/>
	<path style="fill-rule:evenodd;clip-rule:evenodd;fill:none;" d="M37.624,27.955c-0.13-0.273-0.48-0.092-0.761-0.244
		c-0.217-0.468-0.78-0.903-0.222-1.532c0.041-1.377,0.593-2.613,1.055-3.877c0.113-0.31,0.157-0.672,0.201-0.983
		c0.061-0.425,0.248-0.688,0.468-1.008c0.471-0.688,0.687-1.468,0.662-2.313c-0.021-0.727-0.068-1.464,0.354-2.117
		c0.149-0.231,0.069-0.484,0.071-0.724c0.009-1.51,0.004-3.02,0.004-4.468c0.257-0.566,0.691-0.957,0.723-1.611
		c0.014-0.29,0.216-0.87,0.942-0.684c0.334,0.437,0.919,0.775,1.216,1.414c0.19,0.409,0.474,0.789,0.348,1.25
		c-0.102,0.368,0.16,0.6,0.251,0.877c0.246,0.757,0.177,1.551,0.367,2.32c0.145,0.586,0.524,1.012,0.689,1.555
		c0,0.575-0.121,1.184,0.023,1.719c0.392,1.443,0.234,2.907,0.143,4.336c-0.066,1.048-0.141,2.098-0.169,3.167
		c-0.08,0.478-0.604,0.716-0.705,1.202c-1,0.232-1.986,0.532-3.037,0.488c-0.449-0.019-0.859,0.277-1.168,0.526
		C38.667,27.58,38.271,27.87,37.624,27.955z"/>
	<path style="fill-rule:evenodd;clip-rule:evenodd;fill:none;" d="M23.487,48.507c-0.211,0.679,0.636,1.373-0.158,2.103
		c-0.367-0.108-0.439,0.76-1.092,0.442c0-0.375,0-0.824,0-1.372c0.279-0.487,0.634-1.096,0.571-1.787
		c-0.085-0.944,0.29-1.622,1.027-2.175c0.227-0.019,0.478-0.03,0.681,0.335C24.824,47.039,23.976,47.643,23.487,48.507z"/>
	<path style="fill-rule:evenodd;clip-rule:evenodd;fill:none;" d="M27.995,47.584c0.288-0.258,0.458-0.685,0.998-0.557
		c0.484,0.808,0.381,1.696,0.199,2.575c-0.143,0.687-0.422,1.35-0.508,2.04c-0.045,0.361-0.231,0.631-0.316,0.953
		c-0.56-0.111-0.185-0.771-0.612-0.995c0.333-0.462,0.324-0.982,0.204-1.493c-0.178-0.758-0.183-0.75,0.026-1.678
		C28.047,48.159,27.995,47.861,27.995,47.584z"/>
	<path style="fill-rule:evenodd;clip-rule:evenodd;fill:none;" d="M40.536,50.178c0-0.209,0-0.389,0-0.649
		c0.337-0.418,0.746-0.815,1.402-0.779c0.293,0.017,0.545-0.156,0.755-0.256c0.48-0.228,1.01-0.337,1.503-0.604
		c0.178,0.078,0.391,0.171,0.632,0.276c0,0.438,0,0.894,0,1.367c-0.205,0.171-0.541,0.151-0.688,0.056
		c-0.71-0.467-1.302-0.064-1.919,0.175c-0.277,0.107-0.553,0.23-0.809,0.38C41.111,50.317,40.829,50.283,40.536,50.178z"/>
	<path style="fill-rule:evenodd;clip-rule:evenodd;fill:none;" d="M35.877,60.623c0.493,0.41,0.416,0.729,0.046,1.048
		c-0.576,0.077-1.151,0.098-1.667-0.303c0.025-0.376,0.379-0.497,0.554-0.745C35.173,60.623,35.532,60.623,35.877,60.623z"/>
	<path style="fill-rule:evenodd;clip-rule:evenodd;fill:none;" d="M45.262,53.17c0.015,0.397,0.116,0.625-0.104,0.776
		c-0.529,0.362-1.117,0.47-1.729,0.397c-0.221-0.282-0.008-0.459,0.156-0.533C44.099,53.581,44.635,53.404,45.262,53.17z"/>
	<path style="fill-rule:evenodd;clip-rule:evenodd;fill:none;" d="M21.344,53.707c-0.042-0.74-0.191-1.494,0.705-2.025
		c0.217,0.457,0.08,0.881,0.136,1.268C21.889,53.18,21.959,53.751,21.344,53.707z"/>
	<path style="fill-rule:evenodd;clip-rule:evenodd;fill:none;" d="M17.832,43.521c0.054-0.457,0.37-0.562,0.524-0.791
		c0.397-0.082,0.771-0.098,1.011,0.319c0.056,0.221-0.136,0.304-0.28,0.472C18.709,43.521,18.299,43.521,17.832,43.521z"/>
	<path style="fill-rule:evenodd;clip-rule:evenodd;fill:none;" d="M32.98,44.086c-0.089-0.331,0.074-0.551,0.329-0.745
		c0.09,0.103,0.183,0.209,0.314,0.357c0.101,0.262-0.299,0.398-0.261,0.688C33.163,44.354,33.089,44.192,32.98,44.086z"/>
	<path style="fill-rule:evenodd;clip-rule:evenodd;fill:none;" d="M45.015,56.854c0.147-0.392,0.298-0.584,0.619-0.545
		c0.037,0.088,0.099,0.166,0.08,0.204C45.584,56.775,45.464,57.082,45.015,56.854z"/>
</g>
</svg>
