<?xml version="1.0" encoding="iso-8859-1"?>
<!-- Generator: Adobe Illustrator 16.0.0, SVG Export Plug-In . SVG Version: 6.00 Build 0)  -->
<!DOCTYPE svg PUBLIC "-//W3C//DTD SVG 1.1//EN" "http://www.w3.org/Graphics/SVG/1.1/DTD/svg11.dtd">
<svg version="1.1" id="Layer_1" xmlns="http://www.w3.org/2000/svg" xmlns:xlink="http://www.w3.org/1999/xlink" x="0px" y="0px"
	 width="72.36px" height="72.18px" viewBox="0 0 72.36 72.18" style="enable-background:new 0 0 72.36 72.18;" xml:space="preserve"
	>
<g>
	<path style="fill-rule:evenodd;clip-rule:evenodd;fill:none;" d="M-6.984,79.631c0-28.871,0-57.743,0-86.615
		c28.8,0,57.6,0,86.399,0c0,28.872,0,57.744,0,86.615C50.616,79.631,21.816,79.631-6.984,79.631z M48.651,34.727
		c2.139,0.807,3.912,2.004,6.123,2.44c0.258,0.247,0.563,0.643,1.102,0.787c0.731-0.149,1.335,0.263,1.994,0.554
		c0.469,0.206,0.753,0.674,1.314,0.748c0.662,0.088,1.258,0.424,1.855,0.721c0.687,0.34,1.387,0.651,2.066,1.003
		c0.15,0.078,0.298,0.15,0.448,0.221c0.714,0.337,1.45,0.138,2.192,0.212c0.105-0.296,0.486-0.348,0.494-0.722
		c-0.063-0.092-0.172-0.193-0.212-0.315c-0.328-1-1.087-1.612-2.008-1.917c-1.016-0.335-1.832-0.974-2.744-1.465
		c-0.733-0.395-1.392-0.955-2.221-1.148c-0.823-0.192-1.568-0.554-2.318-0.922c-1.167-0.573-2.419-0.971-3.495-1.729
		c-0.193-0.136-0.421-0.184-0.659-0.24c-0.55-0.13-1.168-0.137-1.627-0.486c-0.87-0.661-1.775-1.215-2.861-1.446
		c-0.317-0.067-0.484-0.368-0.67-0.594c0.121-0.25,0.223-0.46,0.311-0.641c0.49-0.227,0.944-0.445,1.479-0.132
		c0.963,0.563,2,0.882,3.179,0.705c0.813,1.618,2.324,2.247,3.937,2.916c0.095-0.368,0.608-0.121,0.682-0.646
		c0.036-0.256,0.425-0.462,0.654-0.691c0.254-0.254,0.509-0.509,0.763-0.764c0.049-0.474,0.367-0.887,0.224-1.424
		c0.374-0.374,0.727-0.726,1.087-1.084c0-0.39,0-0.816,0-1.231c-1.309-1.146-2.137-2.598-2.812-4.249
		c-0.525,0.246-0.878-0.078-1.275-0.266c0-0.432,0-0.862,0-1.282c-0.502-0.505-0.417-1.281-0.908-1.802
		c-0.512-0.544-1.237-0.823-1.675-1.464c0.047-0.404-0.248-0.744-0.275-1.009c-0.372-0.4-0.664-0.713-0.905-0.973
		c-0.515-0.148-0.964-0.26-1.393-0.472c-0.77-0.38-1.203-0.336-1.72,0.321c-0.298,0.378-0.703,0.606-0.969,0.933
		c-0.417,0-0.804,0-1.19,0c-0.406-0.039-0.107-0.521-0.354-0.602c-0.461,0-0.89,0-1.234,0c-0.758,0.303-1.152,0.917-1.701,1.401
		c0.229,0.657-0.435,0.658-0.725,0.935c-0.529,0-1.059,0-1.576,0c-0.054-0.156-0.098-0.281-0.135-0.391
		c-0.34-0.07-0.59,0.021-0.818,0.378c0.092,0.063,0.203,0.142,0.315,0.219c0.123,0.085,0.388-0.026,0.355,0.382
		c-0.115,0.158-0.32,0.419-0.493,0.628c-0.162,0.197-0.489,0.35-0.711,0.567c-0.231,0.226-0.435,0.491-0.694,0.676
		c-0.236,0.168-0.479,0.377-0.788,0.386c-0.356-0.469-0.343-0.924-0.122-1.427c0.22-0.499,0.42-1.008,0.03-1.56
		c-0.097-0.136-0.009-0.451,0.064-0.702c0.213-0.726,0.8-1.245,1.005-2.008c-0.117-0.131-0.251-0.28-0.233-0.518
		c0.026-0.358,0.004-0.719,0.007-1.079c0.01-0.976-0.278-1.822-1.023-2.493c-0.37-0.333-0.707-0.702-1.027-1.022
		c-0.89-0.015-1.677-0.007-2.495-0.389c-0.821-0.383-1.64-0.829-2.621-1.098c0.169,0.483,0.32,0.914,0.47,1.344
		c-0.443,0.7-1.251,0.756-1.928,1.089c-0.559,2.037-2.363,2.613-3.988,3.394c-0.294-0.257,0.044-0.648-0.244-0.861
		c-0.117,0.108-0.223,0.205-0.328,0.301c0.049,0.175-0.07,0.363,0.089,0.516c0.242,0.233,0.207,0.582,0.097,0.789
		c-0.288,0.539-0.479,1.197-1.055,1.499c-0.949,0.497-1.414,1.537-2.404,1.934c0.397,0.779,0.366,1.497,0.023,2.162
		c-0.172,0.333-0.289,0.682-0.445,1.003c-0.28,0.577-0.413,1.282-1.189,1.569c-0.38,0.141-0.676,0.58-0.857,1.021
		c-0.276,0.675-0.772,1.138-1.5,1.266c-0.292,0.051-0.405,0.205-0.532,0.427c-0.299,0.521-0.711,0.924-1.267,1.189
		c-0.573,0.273-1.034,0.678-1.326,1.263c-0.076,0.152-0.205,0.299-0.346,0.393c-0.733,0.491-1.38,1.119-2.193,1.48
		c-0.313,0.139-0.56,0.338-0.682,0.606c-0.34,0.745-0.943,1.211-1.635,1.531c-0.276,0.127-0.574,0.282-0.638,0.491
		c-0.211,0.689-0.865,0.877-1.326,1.253c-0.729,0.594-1.027,1.368-0.488,2.069c0.441,0.574,0.807,1.165,1.063,1.894
		c-0.235,0.286-0.427,0.641-0.68,0.972c-0.59,0.769-1.316,1.573-0.51,2.642c0.723,0.03,0.723,0.03,1.384,0.533
		c0.02,1.109,0.02,1.109,0.991,2.057c0.364,0,0.722,0,1.248,0c0.049-0.089,0.154-0.282,0.225-0.411
		c0.392-0.064,0.621,0.049,0.768,0.324c-0.357,0.318-0.289,0.801-0.167,1.095c0.297,0.722,0.094,1.458,0.215,2.159
		c0.242,0.242,0.448,0.503,0.708,0.69c0.21,0.151,0.524,0.165,0.721,0.326c0.304,0.251,0.591,0.078,0.875,0.151
		c0.038-0.255,0.001-0.485,0.098-0.583c0.314-0.317,0.262-0.789,0.13-1.001c-0.463-0.749-0.063-1.331,0.264-1.899
		c0.239-0.416,0.642-0.737,0.917-1.043c0.366-0.066,0.579,0.027,0.766,0.293c0,0.27,0,0.583,0,0.896
		c-0.086,0.405-0.438,0.611-0.676,0.907c-0.286,0.356-0.476,0.769-0.364,1.241c0.222,0.935,0.171,0.923,0.047,1.681
		c-0.093,0.568-0.133,1.143,0.103,1.748c0.359,0.925,0.641,1.901,0.487,2.931c-0.016,0.105-0.002,0.215-0.002,0.18
		c0.327,1.02,0.989,1.562,2.011,1.997c0.813,0.181,1.583-0.565,2.49-0.732c0.736-0.982,0.574-1.456,0.01-2.224
		c-0.161-0.219-0.327-0.438-0.456-0.675c-0.662-1.214-1.333-2.427-1.246-3.834c0.362-0.377,0.423-0.276,0.914-0.566
		c0.529-0.313,1.2,0.013,1.661-0.539c0.087-0.617-0.153-1.346,0.285-1.973c0.328-0.037,0.571-0.421,0.954-0.235
		c0.532,0.845,0.171,1.791,0.315,2.691c0.193,0.193,0.396,0.396,0.638,0.638c0,0.708,0,1.454,0,2.155
		c0.42,0.445,0.88,0.786,1.085,1.411c0,0.505,0,1.075,0,1.656c0.579,0.347,0.732,0.984,1.054,1.504
		c0.543,0.879,0.988,1.856,2.274,1.802c0.104-0.004,0.166,0.232,0.447,0.187c0.341-0.352,0.741-0.792,1.443-0.908
		c-0.281-0.374,0.142-0.562,0.182-0.922c-0.338-0.092-0.225-0.374-0.241-0.647c-0.803-0.62-1.205-1.581-1.454-2.487
		c-0.244-0.883-0.651-1.683-0.918-2.542c-0.125-0.404-0.332-0.761-0.666-1.016c-0.291-0.223-0.378-0.575-0.607-0.859
		c-0.026-1.04-0.026-1.04,0.715-1.815c1.251-0.033,1.251-0.033,2.367-1.5c0.757,0,1.502,0,2.277,0
		c0.193,0.472,0.576,0.857,0.398,1.43c-0.242,0.782-0.19,0.802,0.038,1.682c0.185,0.715,0.495,1.46-0.05,2.176
		c0.555,0.953,0.971,1.912,0.929,2.98c0.528,0.64,0.527,1.336,0.325,2.069c-0.219,0.797-0.219,1.567,0.352,2.345
		c0,0.447,0,0.978,0,1.467c0.267,0.268,0.496,0.496,0.64,0.641c1.328,0.562,2.498,0.254,3.544-0.161
		c0.467-0.642,0.181-1.389,0.661-1.914c0.488,0,0.992,0,1.481,0c0.615-0.549,1.538-0.563,2.077-1.205
		c-0.313-0.955-1.112-1.568-1.482-2.343c-0.191-1.211,0.282-2.417-0.471-3.548c0-0.353,0-0.783,0-1.215
		c0.112-0.515,0.601-0.749,0.82-1.049c0.188-0.837-0.425-1.514-0.113-2.258c0.379-0.273,0.414-0.805,0.752-0.988
		c0.232-0.75-0.399-1.348-0.14-1.966c0.71-0.801,0.902-1.778,1.27-2.673c0.231-0.565,0.107-1.228,0.44-1.759
		c0.179-0.284,0.21-0.571,0.215-0.887c0.004-0.235,0.079-0.469,0.13-0.694c0.338-1.532,1.491-2.488,2.365-3.645
		C47.188,34.216,47.922,34.861,48.651,34.727z M63.028,32.016c0.065-0.208-0.149-0.36-0.329-0.528c-0.313,0-0.624,0-0.896,0
		c-0.298,0.208-0.382,0.452-0.291,0.756c0.216,0.288,0.579,0.331,0.797,0.483C62.517,32.521,62.714,32.326,63.028,32.016z
		 M30.151,11.143c0.063-0.39,0.001-0.645-0.306-0.831c-0.204,0-0.441,0-0.671,0c-0.097,0.154-0.308,0.208-0.301,0.502
		c0.096,0.048,0.252,0.127,0.408,0.207c-0.037,0.041-0.074,0.081-0.111,0.122C29.478,11.143,29.786,11.143,30.151,11.143z"/>
	<path fill="currentColor" d="M48.651,34.727c-0.729,0.134-1.463-0.511-2.374-0.709
		c-0.874,1.157-2.027,2.113-2.365,3.645c-0.051,0.226-0.126,0.459-0.13,0.694c-0.005,0.315-0.036,0.603-0.215,0.887
		c-0.333,0.531-0.209,1.193-0.44,1.759c-0.367,0.895-0.56,1.872-1.27,2.673c-0.26,0.618,0.372,1.216,0.14,1.966
		c-0.338,0.184-0.373,0.715-0.752,0.988c-0.312,0.744,0.301,1.421,0.113,2.258c-0.22,0.3-0.708,0.534-0.82,1.049
		c0,0.432,0,0.862,0,1.215c0.753,1.131,0.279,2.337,0.471,3.548c0.37,0.774,1.169,1.388,1.482,2.343
		c-0.539,0.642-1.462,0.656-2.077,1.205c-0.489,0-0.993,0-1.481,0c-0.48,0.525-0.194,1.272-0.661,1.914
		c-1.047,0.415-2.217,0.723-3.544,0.161c-0.144-0.145-0.373-0.373-0.64-0.641c0-0.489,0-1.02,0-1.467
		c-0.57-0.777-0.571-1.548-0.352-2.345c0.202-0.733,0.203-1.43-0.325-2.069c0.042-1.068-0.374-2.027-0.929-2.98
		c0.545-0.716,0.235-1.461,0.05-2.176c-0.228-0.88-0.28-0.899-0.038-1.682c0.177-0.572-0.206-0.958-0.398-1.43
		c-0.774,0-1.52,0-2.277,0C28.702,47,28.702,47,27.451,47.033c-0.741,0.775-0.741,0.775-0.715,1.815
		c0.229,0.284,0.317,0.637,0.607,0.859c0.334,0.255,0.541,0.611,0.666,1.016c0.268,0.859,0.675,1.659,0.918,2.542
		c0.25,0.906,0.651,1.867,1.454,2.487c0.016,0.273-0.097,0.556,0.241,0.647c-0.041,0.36-0.463,0.548-0.182,0.922
		c-0.703,0.116-1.102,0.557-1.443,0.908c-0.282,0.046-0.343-0.19-0.447-0.187c-1.286,0.055-1.731-0.923-2.274-1.802
		c-0.322-0.52-0.475-1.157-1.054-1.504c0-0.581,0-1.151,0-1.656c-0.205-0.625-0.665-0.966-1.085-1.411c0-0.701,0-1.447,0-2.155
		c-0.242-0.241-0.445-0.444-0.638-0.638c-0.144-0.9,0.217-1.847-0.315-2.691c-0.382-0.186-0.625,0.198-0.953,0.235
		c-0.438,0.627-0.198,1.355-0.286,1.973c-0.461,0.552-1.132,0.226-1.661,0.539c-0.491,0.29-0.552,0.189-0.914,0.566
		c-0.086,1.407,0.584,2.62,1.246,3.834c0.129,0.237,0.295,0.456,0.456,0.675c0.564,0.768,0.726,1.241-0.01,2.224
		c-0.908,0.167-1.678,0.913-2.49,0.732c-1.022-0.436-1.684-0.978-2.011-1.997c0,0.035-0.014-0.074,0.002-0.18
		c0.153-1.029-0.128-2.006-0.487-2.931c-0.236-0.605-0.196-1.18-0.103-1.748c0.125-0.758,0.175-0.746-0.047-1.681
		c-0.112-0.473,0.078-0.885,0.364-1.241c0.237-0.296,0.589-0.502,0.676-0.907c0-0.313,0-0.627,0-0.896
		c-0.187-0.266-0.4-0.359-0.766-0.293c-0.276,0.306-0.678,0.627-0.917,1.043c-0.327,0.568-0.727,1.15-0.264,1.899
		c0.131,0.212,0.184,0.684-0.13,1.001c-0.097,0.098-0.061,0.328-0.098,0.583c-0.285-0.073-0.571,0.1-0.875-0.151
		c-0.196-0.161-0.511-0.175-0.721-0.326c-0.259-0.188-0.465-0.448-0.708-0.69c-0.121-0.701,0.082-1.438-0.215-2.159
		c-0.122-0.294-0.19-0.776,0.167-1.095c-0.147-0.275-0.376-0.389-0.768-0.324c-0.071,0.129-0.176,0.322-0.225,0.411
		c-0.525,0-0.884,0-1.248,0c-0.972-0.947-0.972-0.947-0.991-2.057c-0.661-0.503-0.661-0.503-1.384-0.533
		c-0.806-1.068-0.08-1.873,0.51-2.642c0.253-0.331,0.445-0.686,0.68-0.972c-0.256-0.729-0.622-1.319-1.063-1.894
		c-0.539-0.701-0.242-1.476,0.488-2.069c0.461-0.375,1.115-0.563,1.326-1.253c0.064-0.209,0.362-0.364,0.638-0.491
		c0.692-0.32,1.295-0.787,1.635-1.531c0.123-0.268,0.369-0.468,0.682-0.606c0.813-0.361,1.459-0.989,2.193-1.48
		c0.141-0.094,0.27-0.241,0.346-0.393c0.292-0.584,0.753-0.989,1.326-1.263c0.556-0.265,0.968-0.667,1.267-1.189
		c0.127-0.222,0.24-0.375,0.532-0.427c0.728-0.128,1.225-0.591,1.5-1.266c0.181-0.441,0.477-0.88,0.857-1.021
		c0.776-0.287,0.909-0.992,1.189-1.569c0.156-0.322,0.273-0.67,0.445-1.003c0.342-0.665,0.374-1.383-0.023-2.162
		c0.99-0.397,1.455-1.437,2.404-1.934c0.576-0.302,0.768-0.96,1.055-1.499c0.11-0.207,0.146-0.555-0.097-0.789
		c-0.159-0.153-0.04-0.341-0.089-0.516c0.105-0.096,0.211-0.193,0.328-0.301c0.289,0.213-0.05,0.604,0.244,0.861
		c1.625-0.781,3.429-1.357,3.988-3.394c0.677-0.333,1.484-0.389,1.928-1.089c-0.15-0.43-0.301-0.861-0.47-1.344
		c0.981,0.269,1.8,0.715,2.621,1.098c0.818,0.382,1.605,0.374,2.495,0.389c0.32,0.32,0.657,0.689,1.027,1.022
		c0.745,0.671,1.033,1.518,1.023,2.493c-0.003,0.36,0.02,0.721-0.007,1.079c-0.018,0.238,0.116,0.386,0.233,0.518
		c-0.205,0.763-0.792,1.282-1.005,2.008c-0.073,0.251-0.161,0.566-0.064,0.702c0.39,0.552,0.189,1.061-0.03,1.56
		c-0.221,0.503-0.234,0.958,0.122,1.427c0.31-0.009,0.552-0.218,0.788-0.386c0.26-0.186,0.463-0.45,0.694-0.676
		c0.222-0.217,0.549-0.37,0.711-0.567c0.173-0.209,0.378-0.47,0.493-0.628c0.032-0.409-0.232-0.297-0.355-0.382
		c-0.112-0.078-0.224-0.156-0.315-0.219c0.229-0.356,0.479-0.448,0.818-0.378c0.037,0.109,0.081,0.235,0.135,0.391
		c0.518,0,1.047,0,1.576,0c0.29-0.277,0.953-0.278,0.725-0.935c0.549-0.483,0.943-1.098,1.701-1.401c0.345,0,0.773,0,1.234,0
		c0.247,0.081-0.052,0.563,0.354,0.602c0.387,0,0.773,0,1.19,0c0.266-0.326,0.671-0.555,0.969-0.933
		c0.517-0.657,0.95-0.701,1.72-0.321c0.429,0.211,0.878,0.323,1.393,0.472c0.241,0.26,0.533,0.573,0.905,0.973
		c0.027,0.266,0.322,0.605,0.275,1.009c0.438,0.641,1.163,0.92,1.675,1.464c0.491,0.521,0.406,1.297,0.908,1.802
		c0,0.419,0,0.85,0,1.282c0.397,0.188,0.75,0.512,1.275,0.266c0.675,1.651,1.503,3.102,2.812,4.249c0,0.415,0,0.841,0,1.231
		c-0.36,0.359-0.713,0.711-1.087,1.084c0.144,0.537-0.175,0.95-0.224,1.424c-0.254,0.254-0.509,0.509-0.763,0.764
		c-0.229,0.229-0.618,0.436-0.654,0.691c-0.073,0.525-0.587,0.278-0.682,0.646c-1.612-0.669-3.123-1.298-3.937-2.916
		c-1.179,0.177-2.216-0.141-3.179-0.705c-0.534-0.313-0.988-0.095-1.479,0.132c-0.088,0.181-0.189,0.391-0.311,0.641
		c0.186,0.227,0.353,0.527,0.67,0.594c1.086,0.23,1.991,0.785,2.861,1.446c0.459,0.349,1.077,0.356,1.627,0.486
		c0.238,0.056,0.466,0.104,0.659,0.24c1.076,0.757,2.328,1.156,3.495,1.729c0.75,0.368,1.495,0.73,2.318,0.922
		c0.829,0.193,1.487,0.753,2.221,1.148c0.912,0.491,1.729,1.13,2.744,1.465c0.921,0.305,1.68,0.917,2.008,1.917
		c0.04,0.122,0.148,0.224,0.212,0.315c-0.008,0.374-0.389,0.426-0.494,0.722c-0.742-0.074-1.479,0.125-2.192-0.212
		c-0.15-0.07-0.298-0.143-0.448-0.221c-0.68-0.352-1.38-0.663-2.066-1.003c-0.598-0.297-1.193-0.633-1.855-0.721
		c-0.562-0.074-0.846-0.542-1.314-0.748c-0.659-0.291-1.263-0.703-1.994-0.554c-0.539-0.145-0.844-0.54-1.102-0.787
		C52.563,36.731,50.79,35.534,48.651,34.727z M35.26,15.264c-0.356,0.291-0.434,0.625-0.551,0.902
		c0.193,0.366,0.375,0.709,0.543,1.029c0.172,0,0.311,0,0.436,0c1.119-1.118,1.163-1.255,0.633-1.931
		C35.967,15.264,35.612,15.264,35.26,15.264z M33.622,19.374c0.229,0.28,0.38,0.466,0.577,0.706
		c0.374-0.748,0.897-1.359,0.851-2.283c-0.304,0.3-0.701,0.227-0.961,0.336C33.707,18.544,33.583,18.952,33.622,19.374z
		 M37.042,47.01c-0.595,0.245-0.339,0.784-0.373,1.047c0.228,0.313,0.368,0.506,0.501,0.689c0.579-0.406,0.244-0.954,0.357-1.399
		C37.361,47.234,37.298,47.034,37.042,47.01z M37.188,51.353c0.14-0.197,0.202-0.334-0.032-0.424
		C37.039,51.056,37.046,51.175,37.188,51.353z"/>
	<path style="fill-rule:evenodd;clip-rule:evenodd;fill:none;" d="M35.26,15.264c0.352,0,0.707,0,1.062,0
		c0.529,0.676,0.485,0.813-0.633,1.931c-0.125,0-0.264,0-0.436,0c-0.169-0.32-0.351-0.663-0.543-1.029
		C34.826,15.888,34.904,15.555,35.26,15.264z"/>
	<path style="fill-rule:evenodd;clip-rule:evenodd;fill:none;" d="M33.622,19.374c-0.039-0.421,0.085-0.83,0.466-1.241
		c0.26-0.109,0.658-0.036,0.961-0.336c0.046,0.923-0.477,1.535-0.851,2.283C34.002,19.839,33.851,19.653,33.622,19.374z"/>
	<path style="fill-rule:evenodd;clip-rule:evenodd;fill:none;" d="M37.042,47.01c0.257,0.024,0.319,0.225,0.486,0.337
		c-0.113,0.445,0.222,0.993-0.357,1.399c-0.134-0.184-0.273-0.377-0.501-0.689C36.703,47.794,36.447,47.255,37.042,47.01z"/>
	<path style="fill-rule:evenodd;clip-rule:evenodd;fill:none;" d="M37.188,51.353c-0.142-0.178-0.149-0.297-0.032-0.424
		C37.39,51.019,37.328,51.155,37.188,51.353z"/>
</g>
</svg>
