<svg xmlns="http://www.w3.org/2000/svg" xml:space="preserve" width="72px" height="72px" viewBox="0 0 72 72">
    <path fill="currentColor" d="M17.185 29.003c-.381-.678-.662-1.35-.632-2.14.034-.898-.013-1.8.015-2.699.021-.692.399-1.384.188-2.063-.215-.694-.153-1.382-.202-2.076-.047-.676.155-1.227.736-1.688-.48-.555-.75-1.167-.745-1.875l.559-.537c.672-.107 1.399.175 2.029-.216.583.173 1.131.379 1.524 1.019-.13.772.458 1.288 1.061 1.84v1.092c.208.223.394.49.657.344.603-.333 1.24-.151 1.86-.207.241-.021.497.083.724-.074.109-.326-.166-.419-.331-.57-.307-.072-.431.479-.821.253l-.475-.613c.077-.128.11-.35.163-.571a.476.476 0 0 1 .563-.369c.262.045.343-.215.508-.333.14-.1.203-.3.368-.313.324.012.38.333.611.414.317-.234.346-.683.685-.906.299-.196.693-.278.776-.743.021-.118.337-.269.511-.261.794.039 1.625-.212 2.38.267.175.541.326 1.098.281 1.703-.043.59-.008 1.186-.09 1.771.056.239.106.553.43.789.953-.363 2.01-.169 2.995-.236.41-.279.433-.675.279-.977-.196-.387-.208-.667.004-1.052.121-.218.022-.558.022-.873 1.127-1 2.397-1.578 3.98-1.38.212.147.543.19.772.507v3.441l.343.343 3.288.001c.252-1.333-.22-2.739.291-4.027.938-.51 1.836-.292 2.787-.001.376.859 1.186 1.364 1.957 1.9v2.096h3.372c.072-.125.262-.181.3-.387.271-1.481.275-1.48 1.414-2.619.336.1.697.4 1.145.165v-.678l.703-.545h1.168c.083.083.203.147.228.238.116.422.288.85.293 1.278.026 2.519.002 5.038.026 7.557.004.337-.353.555-.224.88.184.462-.5.825-.066 1.371.271.343-.072.948.261 1.398.103.14.016.42.016.636 0 1.152.004 2.303-.001 3.455-.003.551.1 1.131-.36 1.576a.34.34 0 0 0-.06.396c.392.592.114 1.239.215 1.827l-.665.666.655.549c0 .564.03 1.1-.009 1.629-.04.553.085 1.099-.134 1.668-.192.5.248 1.044.15 1.609-.099.577.157 1.195-.213 1.752-.058.086-.023.316.055.392.253.246.144.538.146.808.011 1.511.005 3.022.005 4.637l-.698.562c.13.416.479.58.691.864-.063 1.44.357 2.864.231 4.323-.056.652-.014.656-.44 1.548.291.661.31 1.33.102 2.021-.108.359-.337.653-.626.807-.444.236-.861.464-1.111.92-.033.061-.093.137-.151.149-.74.157-1.15.833-1.798 1.136-.603.282-1.194.591-1.804.858-.61.269-1.173.626-1.784.902-.736.333-1.51.529-2.246.836-.717.298-1.464.47-2.208.674-.675.185-1.391.245-2.032.558-.059.028-.129.062-.19.056-.99-.088-1.937.265-2.935.249-1.298-.021-2.596.313-3.903.178-1.085-.113-2.163-.278-3.258-.208-.394-.3-.897-.25-1.342-.404-.886-.308-1.83-.45-2.745-.678-1.106-.275-2.267-.422-3.147-1.262-.836-.198-1.454-.813-2.218-1.16-1.481-.673-2.816-1.599-4.124-2.567-.445-.329-.925-.587-1.116-1.31.186-.565-.374-1.243-.063-2.036.265-.674-.201-1.419-.212-2.163-.013-.786.411-1.502.233-2.261.201-.344.421-.647.455-.962-.018-.365-.315-.442-.454-.676.109-.407-.156-.876.21-1.304.125-.146.114-.546.002-.729-.31-.501-.188-1.026-.191-1.541-.016-1.942-.007-3.886-.007-5.887.25-.225.498-.508.58-.941-.16-.261-.436-.581-.565-.953-.225-.643-.45-1.306-.047-1.991.095-.161.031-.419.031-.632.002-.828-.014-1.656.008-2.483.009-.336-.048-.657.171-1.012.212-.344-.15-.769-.282-1.143-.059-.167-.171-.357-.101-.486.271-.496.215-.922.021-1.458-.226-.624.102-1.217.592-1.632m19.265 1.395c-.788-.098-1.018.735-1.64.851-.741.815-1.615 1.5-2.273 2.399a53 53 0 0 0-1.994 2.951c-.483.762-.719 1.653-1.235 2.4-.034.049.026.172-.009.208-.343.343-.156.835-.403 1.242-.519.854-.634 1.867-.646 2.844a6.3 6.3 0 0 1-.324 1.928c-.323.946-.389 1.874-.332 2.785l.306.306c.803 0 1.632-.056 2.449.017.738.065 1.464-.605 2.195-.017h12.244c.078-.221.063-.416.266-.514-.254-.204-.191-.486-.198-.753-.016-.624-.03-1.231-.184-1.859-.176-.718-.508-1.417-.465-2.186.058-1.028-.197-1.963-.85-2.777-.011-.693-.08-1.353-.588-1.921a1.27 1.27 0 0 1-.31-.73 1.15 1.15 0 0 0-.331-.712c-.625-.57-.779-1.491-1.511-1.972-.047-.031-.054-.119-.083-.179a7.8 7.8 0 0 0-1.52-2.067c-.801-.792-1.561-1.632-2.564-2.244m10.89 19.425c-.263-.052-.364.171-.519.302.46.549.09 1.004-.176 1.463-.043.075-.074.104.021.155h.706c.321-.52.336-1.062.27-1.616zm-29.484.023c0 .193-.044.333.007.404.326.454.24.892 0 1.341-.017.031.061.112.103.184l.507-.543v-1.386zm1.001-19.505c-.238-.252-.135-.92-.837-.767.146.451.409.687.837.767m28.26 17.113c-.066.484-.066.484.244.874.077-.193.351-.249.303-.518-.141-.178-.25-.409-.547-.356M29.019 23.202h1.191c-.578-.477-.578-.477-1.191 0m-3.585 27.467c-.068-.28.061-.544-.089-.827h-.378c.068.28-.062.544.089.827zm4.931 10.836c-.305-.05-.44.006-.405.316l.405.384zm-5.054-14.274c.154-.146.158-.29-.006-.434-.099.017-.217-.045-.29.084-.06.131-.047.253.083.35zm20.379 4.554.07.384c.209-.061.302-.184.423-.384zM30.818 22.932q-.218-.236-.437 0 .22.234.437 0m5.628 4.098c-.199-.133-.338-.199-.42.04.135.107.254.115.42-.04m9.172 13.087c.132-.199.198-.337-.04-.42-.108.135-.115.254.04.42"/>
</svg>
