<svg xmlns="http://www.w3.org/2000/svg" xml:space="preserve" width="72px" height="72px" viewBox="0 0 72 72">
    <g fill="currentColor">
        <path d="M56.283 36.792c.739.412 1.306 1.039 1.758 1.806.481.815 1.075 1.565 1.542 2.388.716 1.264 1.234 2.604 1.031 4.102-.044.322-.232.622-.33.939-.247.811-.565 1.607-.537 2.478-.444.717-.886 1.048-1.765 1.156-.296.037-.539.179-.739.303-.732.456-1.491.696-2.327.564-.126.127-.321.234-.315.329.049.704-.388 1.21-.659 1.786-.059.124-.128.235-.188.354-.296.584-.416 1.248-1.13 1.581-.602.28-1.116.706-1.753.98-.816.352-1.679.654-2.431 1.191-.416.297-.97.433-1.517.497-1.211.144-2.379-.31-3.583-.224-.035.003-.081.013-.104-.005-.809-.568-1.735-.398-2.632-.43-.666-.024-1.304.035-1.887.405-.104.067-.276.027-.472.041-.322.521-.937.711-1.578 1.069-.018 0-.158-.01-.296.001-1.273.104-2.453-.094-3.545-.843-.389-.267-.9-.518-1.423-.44-.298.045-.467-.164-.656-.256-.538-.263-1.069-.431-1.669-.41-.712.024-1.39-.1-1.865-.696-.167-.21-.493-.111-.6-.365-.691-.106-1.419.175-2.075-.229-.466.257-1.044.267-1.448.676-.464-.215-.76-.516-.697-1.276-.313.469-.659.582-1.02.803H20.32c-.526-.592-1.241-1.079-1.583-1.833-.279-.169-.534-.066-.774-.101l-.526-.525c-.001-1.12-.451-2.167-.46-3.265-.482-.788-1.438-1.472-2.234-1.606-.332.142-.295.545-.551.747v.839c-.351.498-.963.759-1.141 1.383-.578.394-1.141.347-1.741-.095-.425-.927-.983-1.836-1.351-2.85-.11-.303-.063-.599-.167-.898-.158-.46-.492-.801-.651-1.245-.078-.217-.366-.43-.334-.604.181-1.012-.468-1.872-.465-2.849.001-.475-.229-.918-.221-1.422.027-1.691.846-3.01 2.086-3.978.884-.69 1.752-1.38 2.539-2.173.582-.058 1.133-.145 1.63-.519.279-.21.673-.283 1.028-.371.492-.122.951-.255 1.405-.534a2.56 2.56 0 0 1 1.763-.327c.498-.371 1.059-.5 1.605-.651.487-.135.946-.266 1.4-.546.582-.361 1.295-.509 1.948-.757.47-.179 1-.156 1.445-.433.277.109.5.384.796.208.682.851.753 1.896 1.379 2.732 0 .231-.022.517.004.798.065.677-.168 1.259-.406 1.885-.334.879-.869 1.65-1.188 2.533-.176.486-.115 1.004-.332 1.482-.09.199-.158.444-.213.662-.136.528-.293 1.056-.258 1.633.054.871.125 1.768-.206 2.606-.255.645-.259 1.311-.19 1.963.058.551-.096 1.077-.28 1.514s-.145.787-.124 1.171c.316.131.405-.125.582-.261v-1.673c.56-.687.88-1.511.883-2.258.002-.54-.019-1.081.006-1.619.026-.578.205-1.122.422-1.659.4-.987.771-1.993 1.048-3.016.105-.388.298-.61.545-.896h1.104c.384.151.72.415.956.886.194.387.44.782.811 1.075.404.319.553.777.512 1.296-.014.175-.002.352-.002.45l.313.372c.704.074 1.171-.75 1.907-.409.67.349.85 1.167 1.353 1.513.392.761.358 1.472.304 2.163-.09 1.141.292 2.155.727 3.16.182.421.213.971.808 1.135.199.015.247-.213.393-.298.086-.528.058-1.045-.193-1.52-.242-.456-.212-.939-.211-1.425v-2.056l.542-.531c.332-.126.571.163.893.253.159.498.663.929.498 1.542l.786.786h.851c.224-.281.699-.215.787-.63h1.209c.231.257.517.572.812.897.952-.191 1.877-.954 2.874.021-.104.455.406.92.226 1.403-.181.485-.173.95-.183 1.256l.492.68c.44.156.615-.215.927-.166.271-.653.718-1.327.485-2.035-.182-.554-.249-1.12-.371-1.673-.121-.55-.026-1.146-.026-1.813l.674-.53a17 17 0 0 0 2.691-.817c.204.29.55.137.85.173l.973.973c-.163.448.254.846.22 1.345-.033.479-.08.979.342 1.353l.244-.021c.165-1.076.071-2.121-.39-3.125-.356-.776-.266-2.101.207-2.769.26-.366.483-.754.829-1.066.644-.579 1.088-1.278 1.388-2.121.169-.493.447-1.102 1.233-1.194m-33.234 16.42c.699-.603 1.048-1.203.738-2.112-.866.5-.748 1.244-.738 2.112"/>
        <path d="M40.536 26.727c.619-1.017.884-2.035.43-3.146-.206-.504-.396-1.036-1.026-1.177-.03-.006-.048-.057-.078-.073-1.363-.717-1.396-.727-2.726.202-.294.205-.65.284-.937.326-.577.085-1.16.126-1.744.234-.805.148-1.562.277-1.896 1.374.118.751-.165 1.67-.266 2.62L30.87 28.51c-.392-.051-.68.215-1.077.414-.977.058-2.055.201-2.742-.843-.155 0-.273.027-.369-.006-.124-.044-.23-.138-.345-.209-.612.194-1.214.444-1.872.43-.852-.019-1.569.261-2.297.724-.806.513-1.731.844-2.621 1.216-.869.364-1.793.629-2.462 1.337a1.3 1.3 0 0 1-.616.339c-.682.165-1.245.495-1.787.916-.591.459-1.325.636-2.02.846-.449.135-.814.33-1.186.651h-1.32c-.104-.16-.31-.222-.295-.443.012-.177.04-.369-.177-.447.318-.89.719-1.73.838-2.666.032-.253.189-.495.305-.734.296-.612.625-1.225.537-1.931-.046-.375.39-.61.231-.972.254-.392.684-.601.876-1.058.161-.384.546-.611 1.115-.791.297.032.756-.039 1.246.178.533.235 1.051-.146 1.457-.389.264-.037.409.007.556.147.113.108.346.05.42.217.726.222 1.39-.085 2.071-.177.25-.034.52-.182.708-.356.411-.383.868-.53 1.42-.5.411.022.813.021 1.213-.195.424-.229.919-.275 1.414-.233.453.038.904.028 1.329-.318-.012-.136.026-.336-.053-.465-.188-.307-.549-.445-.863-.49-.544-.079-1.159.098-1.623-.251-.487-.367-1.099-.013-1.576-.397-.152-.123-.488-.02-.72-.02-.632-.375-.386-1.265-.989-1.612 0-.24-.086-.521.017-.655.243-.314.154-.752.409-1.021.768-.809 1.162-1.917 2.134-2.584-.069-.43.312-.747.263-1.179.437-.4.782-.91 1.375-1.12.666-.224 1.262.385 1.905.143l.799.793v1.371c.507.024 1.017.17 1.494-.216.447.323 1.028.398 1.384.861.723.192 1.197-.343 1.874-.612h2.264c.256.229.443.553.826.628h1.752c.288-.143.608-.309.958-.44.604-.227 1.249-.481 1.56-1.16a.6.6 0 0 1 .395-.331c.158-.038.318-.115.449-.213.998-.744 2.15-.662 3.297-.651.441.004.703.4 1.205.447l.966-.462c.637-.618.574-1.635 1.398-2.157.842.234 1.749.343 2.474 1.008.276.253.785.245 1.08.487 1.254 1.027 2.675 1.822 3.877 2.935.803.744 1.538 1.589 2.423 2.215 1.141.808 1.699 2.039 2.547 3.053.267.319.412.774.397 1.23.375.414.865.73 1.071 1.511v1.09l-.351.316c-.488-.077-1.031.1-1.586-.189-.237-.124-.635-.077-.991.159-.633.417-1.379.625-2.196.407-.598-.594-1.215-1.219-1.936-1.74-.461-.333-.941-.401-1.515-.358-.433.533-.587 1.318-1.3 1.716h-1.005c-.552-.434-1.22-.61-1.767-1.04-.477-.375-1.152-.496-1.711-.718-.354.164-.698.231-.949.552v2.581c.269.587.608 1.194.868 1.851.214.542.2.97-.117 1.49-.319.239-.76.237-1.214.269-.507.035-.999.169-1.374.592-.229.257-.468.51-.782.701-.624.378-1.275.511-2.111.379l-.479-.682c0-.478-.005-1.19.001-1.903.007-.732.556-1.209.862-1.889z"/>
        <path d="M38.511 24.184c.47 1.479-.638 2.293-1.2 3.376-.082.338.04.748-.207 1.15-.202.328.161.836-.219 1.205-.073.071-.035.276-.019.416.13 1.099-.301 2.152-.233 3.254.067 1.11.016 2.227.012 3.341 0 .063-.043.125-.066.188-.371.163-.55-.15-.822-.286-.694-.348-1.088-.903-1.35-1.593-.188-.497-.396-.987-.563-1.492-.273-.828-.21-.823-.034-1.875.105-.628.02-1.288.02-1.927-.689-.863-1.207-1.755-.646-2.905.101-.207.055-.466.106-.705.312-1.465 1.463-1.915 2.657-2.358.93-.347 1.804-.352 2.564.211m24.685 18.688c-.243.352-.59.36-.792.522-.757-.046-.934-.647-1.115-1.165-.814-2.325-1.115-2.881-2.592-4.524-.09-.1-.195-.172-.242-.331-.323-1.083-1.203-1.94-1.287-3.125-.431-.458-.108-1.021-.218-1.451.226-.422.384-.821.864-1.044h.941c.79.551 1.131 1.472 1.864 2.031-.048.543.169 1.006.375 1.471.176.394.346.791.533 1.178.218.449.414.916.692 1.326.291.428-.09.996.348 1.365-.067.446.22.762.383 1.134.239.548.529 1.096.488 1.738-.021.349-.354.588-.242.875m.02-9.499c-.255.201-.22.6-.572.763-.28-.034-.498-.285-.776-.371-.479-.147-.699-.491-.899-.906-.508-1.047-.957-2.127-1.646-3.075-.225-.31-.135-.736-.441-1.016.248-.321.134-.809.542-1.098h1.328c.249.381.762.503 1.239.777.386.667.583 1.441.793 2.21.035.131-.056.281.065.403.475.479.357 1.091.367 1.672.003.216 0 .43 0 .641m-24.921 5.291c-.358-.283-.863-.373-1.004-.857.17-.543.75-.604 1.099-.996-.115-.622-.505-1.283.171-2.046.484-.307 1.166-.349 1.927.085.265.519.487 1.111.063 1.762-.066.101-.026.282-.013.423.072.782-.261 1.319-1.093 1.629zM14.846 20.726l-.662-.509c0-.678.912-1.47 1.809-1.64.491-.339.702-.969 1.178-1.271.49-.311.781-.804 1.279-1.104.281.019.625-.095.879.307v.936c-.696.531-1.171 1.416-2.067 1.834-.258.841-1.083.917-1.694 1.297-.284.176-.532.117-.722.15M41.53 37.592c-.5-.698-.295-1.379-.353-2.019.289-.422.688-.664 1.223-.814.3.112.665.199.912.546.163.663-.075 1.324-.208 2.032h.75l.563.563c.06.31-.017.563-.304.74h-.95c-.325-.709-.816-1.176-1.633-1.048m-.527-26.719.268-.268c.834-.104 1.586.008 2.076.798-.599.784-1.173.892-2.344.425zM30.06 14.258q.151.106 0 .212-.152-.106 0-.212"/>
    </g>
</svg>
