<?xml version="1.0" encoding="iso-8859-1"?>
<!-- Generator: Adobe Illustrator 16.0.0, SVG Export Plug-In . SVG Version: 6.00 Build 0)  -->
<!DOCTYPE svg PUBLIC "-//W3C//DTD SVG 1.1//EN" "http://www.w3.org/Graphics/SVG/1.1/DTD/svg11.dtd">
<svg version="1.1" id="Layer_1" xmlns="http://www.w3.org/2000/svg" xmlns:xlink="http://www.w3.org/1999/xlink" x="0px" y="0px"
	 width="72.18px" height="70.921px" viewBox="0 0 72.18 70.921" style="enable-background:new 0 0 72.18 70.921;"
	 xml:space="preserve">
<g>
	<path style="fill-rule:evenodd;clip-rule:evenodd;fill:none;" d="M79.416,78.048c-28.8,0-57.6,0-86.399,0
		c0-28.297,0-56.591,0-84.887c28.799,0,57.599,0,86.399,0C79.416,21.457,79.416,49.751,79.416,78.048z M53.315,60.769
		c0.78-0.271,1.103-0.975,1.729-1.302c0.8-0.417,1.548-0.913,2.122-1.642c-0.075-0.451,0.4-0.813,0.206-1.242
		c0.504-0.715,1.39-0.631,1.894-1.067c0.303-0.824,1.16-0.975,1.486-1.443c0.294-0.763,0.371-1.412,0.285-2.049
		c-0.112-0.125-0.208-0.23-0.303-0.336c-1.18,0.093-2.244-0.206-3.303-0.855c-0.423,0-0.98,0.144-1.414-0.028
		c-1.113-0.441-2.241-0.75-3.432-0.836c-0.577-0.423-1.237-0.138-1.854-0.213c-0.667-0.082-1.146,0.346-1.682,0.632
		c-0.11,0.06-0.24,0.101-0.362,0.165c-0.457,0.239-0.934,0.433-1.456,0.189c0-0.452,0-0.883-0.001-1.315
		c-0.102-0.102-0.204-0.203-0.294-0.293c-0.368-0.127-0.744,0.072-1.123-0.217c-0.355-0.272-0.765,0.224-1.186,0.188
		c-0.071-0.006-0.165,0.029-0.213-0.005c-0.583-0.408-1.234-0.118-1.696-0.2c-0.591,0.215-0.968,0.561-1.498,0.654
		c-0.144-0.614,0.148-1.068,0.313-1.534c0.074-0.215,0.136-0.405,0.023-0.587c-0.386-0.624-0.391-1.31-0.379-2.007
		c0.004-0.201,0.023-0.4-0.06-0.618c-0.246-0.642-0.409-1.305-0.372-2.009c0.025-0.517-0.005-1.02-0.188-1.537
		c-0.242-0.688-0.295-1.43-0.243-2.171c0.029-0.43,0.009-0.863,0.004-1.296c-0.004-0.447,0.056-0.906-0.214-1.314
		c-0.288-0.438-0.203-0.938-0.219-1.421c-0.017-0.517-0.027-1.017-0.177-1.541c-0.155-0.544-0.405-1.124-0.258-1.736
		c0.023-0.096,0.025-0.248-0.03-0.304c-0.491-0.485-0.092-0.928,0.103-1.322c0.508-1.026,0.853-2.065,0.815-3.235
		c-0.014-0.463-0.178-0.875-0.225-1.314c-0.068-0.619,0.008-1.233-0.195-1.863c-0.157-0.489-0.053-1.07-0.025-1.608
		c0.028-0.564-0.338-1.058-0.234-1.641c0.063-0.348,0.012-0.717,0.012-1.125c0.502-0.231,0.498-0.834,0.817-1.239
		c0.137-0.174,0.134-0.511-0.006-0.705c-0.313-0.432-0.265-0.964-0.126-1.326c0.269-0.704,0.158-1.393,0.17-2.084
		c0.027-1.727,0.01-3.455,0.01-5.184c-0.28-0.247-0.452-0.679-0.801-0.59c-0.324,0.257-0.543,0.432-0.724,0.576
		c0.106,0.727-0.411,1.225-0.419,1.845c-0.008,0.683-0.001,1.366-0.001,1.891c-0.2,0.611-0.517,0.94-0.98,1.087
		c-0.171-0.16-0.355-0.331-0.569-0.531c0.231-0.801-0.353-1.547-0.156-2.379c-0.291-0.118-0.359-0.475-0.604-0.501
		c-0.386,0.385-0.732,0.732-1.177,1.176c-0.235,0.484-0.075,1.253-0.53,1.845c-0.719-0.147-1.085-0.538-1.166-1.24
		c-0.024-0.209,0.02-0.437-0.044-0.631c-0.236-0.721-0.413-1.449-0.387-2.213c0.016-0.457,0.011-0.902-0.303-1.299
		c-0.374,0-0.759,0-1.127,0c-0.198,0.559-0.554,1.013-0.545,1.649c0.008,0.574-0.23,1.144-0.198,1.746
		c0.023,0.452,0.31,0.835,0.241,1.315c-0.066,0.458-0.014,0.934-0.014,1.401c0,0.45,0.039,0.876,0.198,1.321
		c0.332,0.928,0.277,0.939,0.03,2.192c-0.043,0.22-0.093,0.478,0.079,0.717c0.276,0.382,0.369,0.877,0.766,1.196
		c0.346,0.277,0.468,0.671,0.438,1.11c-0.049,0.692,0.083,1.385-0.189,2.08c-0.146,0.375-0.002,0.855-0.033,1.285
		c-0.03,0.417,0.164,0.866-0.11,1.247c-0.316,0.439,0.075,0.779,0.108,1.167c0.017,0.197-0.05,0.396-0.103,0.597
		c-0.2,0.753-0.216,1.552-0.011,2.3c0.173,0.634,0.543,1.212,0.742,1.849c0.02,0.064,0.019,0.136,0.029,0.206
		c-0.289,0.24-0.272,0.587-0.201,0.876c0.098,0.396-0.313,0.621-0.237,0.996c0.108,0.531-0.167,1.001-0.299,1.493
		c-0.112,0.42-0.344,0.846-0.323,1.259c0.079,1.565-0.243,3.107-0.218,4.662c0.013,0.747-0.386,1.43-0.234,2.178
		c-0.44,0.258-0.088,0.777-0.399,1.144c-0.229,0.27,0.022,0.784-0.167,1.214c-0.159,0.362-0.064,0.836-0.083,1.261
		c-0.005,0.104,0,0.214-0.025,0.313c-0.235,0.943-0.174,0.931-0.004,1.781c0.069,0.345,0.483,0.658,0.147,1.116
		c-0.748-0.042-1.435-0.477-2.248-0.473c-0.819,0.003-1.577,0.323-2.395,0.265c-0.792-0.058-1.498,0.458-2.266,0.436
		c-0.516,0.321-0.601,0.976-1.144,1.287c-0.56,0.082-1.086-0.388-1.626-0.22c-0.857-0.586-1.641-0.606-2.34-0.091
		c-0.555,0.222-1.044-0.025-1.54,0.215c-0.411,0.198-0.89,0.22-1.331,0.439c-0.358,0.18-0.799,0.401-1.279,0.308
		c-0.229-0.045-0.478,0.122-0.677,0.151c-0.703,0.104-1.202,0.598-1.834,0.77c-0.006,0.064,0,0.104-0.016,0.134
		c-0.072,0.148-0.15,0.296-0.201,0.396c0.238,0.963,0.859,1.705,1.129,2.607c0.85,0.3,1.696,0.6,2.519,0.892c0,0.452,0,0.81,0,1.148
		c0.194,0.349,0.533,0.536,0.71,0.914c0.184,0.389,0.588,0.757,0.985,0.947c0.819,0.394,1.455,1.013,2.2,1.561
		c0.539,0,1.108,0,1.713,0c0,0.411,0,0.797,0,1.066c0.234,0.273,0.396,0.465,0.547,0.643c0.318,0,0.604,0,0.838,0
		c0.992,0.662,2.124,0.919,3.113,1.485c0.42,0.241,0.865,0.588,1.43,0.451c0.234,0.386,0.662,0.108,0.962,0.282
		c0.863,0.494,1.857,0.391,2.788,0.55c0.605,0.104,1.239,0.072,1.793,0.378c0.179,0.099,0.338,0.08,0.505,0.082
		c0.749,0.009,1.497,0.004,2.189,0.004c0.284-0.285,0.514-0.514,0.743-0.743c0.058-0.401,0.058-0.401,0.405-0.747
		c0.345,0.66,0.795,1.213,1.289,1.404c1.537,0.327,2.747-0.358,4.036-0.347c0.303-0.442,0.827-0.037,1.17-0.302
		c0.387-0.299,0.833-0.018,1.243-0.158c0.042-0.043,0.084-0.117,0.146-0.141c0.719-0.271,1.379-0.667,2.193-0.724
		c0.544-0.038,0.988-0.511,1.547-0.677c0.569-0.172,1.189-0.338,1.581-0.887c0.085-0.12,0.278-0.193,0.437-0.229
		c0.572-0.129,0.996-0.449,1.31-0.949c-0.028-0.351-0.063-0.715,0.369-0.9C52.378,60.769,52.847,60.769,53.315,60.769z"/>
	<path style="fill-rule:evenodd;clip-rule:evenodd;" d="M53.315,60.769c-0.468,0-0.937,0-1.388,0c-0.433,0.186-0.397,0.55-0.369,0.9
		c-0.313,0.5-0.737,0.82-1.31,0.949c-0.158,0.036-0.352,0.109-0.437,0.229c-0.392,0.549-1.012,0.715-1.581,0.887
		c-0.559,0.166-1.003,0.639-1.547,0.677c-0.814,0.057-1.475,0.452-2.193,0.724c-0.062,0.023-0.104,0.098-0.146,0.141
		c-0.41,0.141-0.856-0.141-1.243,0.158c-0.343,0.265-0.867-0.141-1.17,0.302c-1.289-0.012-2.499,0.674-4.036,0.347
		c-0.493-0.191-0.944-0.744-1.289-1.404c-0.347,0.346-0.347,0.346-0.405,0.747c-0.229,0.229-0.458,0.458-0.743,0.743
		c-0.692,0-1.44,0.005-2.189-0.004c-0.167-0.002-0.326,0.017-0.505-0.082c-0.554-0.306-1.188-0.273-1.793-0.378
		c-0.931-0.159-1.924-0.056-2.788-0.55c-0.301-0.174-0.728,0.104-0.962-0.282c-0.564,0.137-1.01-0.21-1.43-0.451
		c-0.989-0.566-2.122-0.823-3.113-1.485c-0.234,0-0.52,0-0.838,0c-0.151-0.178-0.313-0.369-0.547-0.643c0-0.27,0-0.655,0-1.066
		c-0.605,0-1.174,0-1.713,0c-0.746-0.548-1.381-1.167-2.2-1.561c-0.397-0.19-0.802-0.559-0.985-0.947
		c-0.177-0.378-0.516-0.565-0.71-0.914c0-0.339,0-0.696,0-1.148c-0.823-0.292-1.669-0.592-2.519-0.892
		c-0.271-0.902-0.892-1.645-1.129-2.607c0.051-0.101,0.129-0.248,0.201-0.396c0.015-0.029,0.009-0.069,0.016-0.134
		c0.633-0.172,1.132-0.666,1.834-0.77c0.199-0.029,0.448-0.196,0.677-0.151c0.48,0.094,0.921-0.128,1.279-0.308
		c0.441-0.22,0.919-0.241,1.331-0.439c0.496-0.24,0.985,0.007,1.54-0.215c0.699-0.516,1.482-0.495,2.34,0.091
		c0.54-0.168,1.066,0.302,1.626,0.22c0.542-0.312,0.628-0.966,1.144-1.287c0.768,0.022,1.474-0.493,2.266-0.436
		c0.818,0.059,1.576-0.262,2.395-0.265c0.813-0.004,1.5,0.431,2.248,0.473c0.336-0.458-0.078-0.771-0.147-1.116
		c-0.17-0.851-0.231-0.838,0.004-1.781c0.025-0.1,0.021-0.209,0.025-0.313c0.019-0.425-0.077-0.898,0.083-1.261
		c0.188-0.43-0.062-0.944,0.167-1.214c0.312-0.366-0.041-0.886,0.399-1.144c-0.152-0.748,0.247-1.431,0.234-2.178
		c-0.024-1.555,0.297-3.097,0.218-4.662c-0.021-0.414,0.211-0.839,0.323-1.259c0.131-0.492,0.407-0.961,0.299-1.493
		c-0.076-0.375,0.334-0.6,0.237-0.996c-0.071-0.29-0.087-0.637,0.201-0.876c-0.01-0.07-0.009-0.141-0.029-0.206
		c-0.199-0.637-0.568-1.215-0.742-1.849c-0.205-0.748-0.189-1.547,0.011-2.3c0.053-0.201,0.12-0.4,0.103-0.597
		c-0.034-0.388-0.425-0.728-0.108-1.167c0.274-0.38,0.08-0.83,0.11-1.247c0.031-0.429-0.114-0.91,0.033-1.285
		c0.272-0.695,0.141-1.388,0.189-2.08c0.031-0.439-0.092-0.833-0.438-1.11c-0.397-0.318-0.49-0.813-0.766-1.196
		c-0.172-0.239-0.123-0.498-0.079-0.717c0.247-1.252,0.301-1.264-0.03-2.192c-0.159-0.444-0.199-0.871-0.198-1.321
		c0-0.468-0.052-0.943,0.014-1.401c0.069-0.48-0.217-0.864-0.241-1.315c-0.032-0.603,0.207-1.172,0.198-1.746
		c-0.009-0.636,0.347-1.091,0.545-1.649c0.368,0,0.753,0,1.127,0c0.314,0.396,0.319,0.842,0.303,1.299
		c-0.026,0.764,0.151,1.492,0.387,2.213c0.063,0.194,0.02,0.421,0.044,0.631c0.08,0.703,0.446,1.093,1.166,1.24
		c0.455-0.591,0.295-1.361,0.53-1.845c0.445-0.444,0.792-0.792,1.177-1.176c0.246,0.026,0.314,0.383,0.604,0.501
		c-0.197,0.832,0.387,1.578,0.156,2.379c0.214,0.2,0.398,0.371,0.569,0.531c0.464-0.147,0.78-0.476,0.98-1.087
		c0-0.525-0.007-1.208,0.001-1.891c0.008-0.62,0.525-1.118,0.419-1.845c0.181-0.144,0.399-0.318,0.724-0.576
		c0.349-0.089,0.521,0.343,0.801,0.59c0,1.729,0.018,3.457-0.01,5.184c-0.012,0.691,0.099,1.38-0.17,2.084
		c-0.139,0.362-0.188,0.894,0.126,1.326c0.14,0.193,0.143,0.53,0.006,0.705c-0.319,0.404-0.315,1.007-0.817,1.239
		c0,0.408,0.052,0.777-0.012,1.125c-0.104,0.583,0.263,1.077,0.234,1.641c-0.027,0.538-0.132,1.12,0.025,1.608
		c0.203,0.63,0.127,1.245,0.195,1.863c0.047,0.439,0.211,0.852,0.225,1.314c0.037,1.169-0.308,2.209-0.815,3.235
		c-0.194,0.394-0.594,0.836-0.103,1.322c0.056,0.056,0.054,0.208,0.03,0.304c-0.147,0.612,0.103,1.192,0.258,1.736
		c0.149,0.524,0.16,1.024,0.177,1.541c0.016,0.483-0.069,0.983,0.219,1.421c0.27,0.408,0.21,0.867,0.214,1.314
		c0.005,0.433,0.025,0.866-0.004,1.296c-0.052,0.741,0.001,1.483,0.243,2.171c0.183,0.518,0.213,1.021,0.188,1.537
		c-0.037,0.704,0.126,1.367,0.372,2.009c0.083,0.218,0.063,0.417,0.06,0.618c-0.012,0.697-0.007,1.383,0.379,2.007
		c0.112,0.182,0.051,0.372-0.023,0.587c-0.164,0.466-0.456,0.92-0.313,1.534c0.53-0.094,0.907-0.439,1.498-0.654
		c0.462,0.082,1.113-0.208,1.696,0.2c0.048,0.034,0.142-0.001,0.213,0.005c0.421,0.035,0.83-0.461,1.186-0.188
		c0.379,0.289,0.755,0.09,1.123,0.217c0.09,0.09,0.192,0.191,0.294,0.293c0.001,0.433,0.001,0.863,0.001,1.315
		c0.522,0.243,0.999,0.05,1.456-0.189c0.122-0.064,0.252-0.105,0.362-0.165c0.535-0.286,1.015-0.714,1.682-0.632
		c0.617,0.075,1.277-0.21,1.854,0.213c1.19,0.086,2.318,0.395,3.432,0.836c0.434,0.172,0.991,0.028,1.414,0.028
		c1.059,0.649,2.123,0.948,3.303,0.855c0.095,0.105,0.19,0.211,0.303,0.336c0.086,0.637,0.009,1.286-0.285,2.049
		c-0.326,0.469-1.184,0.619-1.486,1.443c-0.504,0.437-1.39,0.353-1.894,1.067c0.194,0.429-0.281,0.791-0.206,1.242
		c-0.574,0.729-1.322,1.225-2.122,1.642C54.417,59.794,54.095,60.497,53.315,60.769z M31.241,54.613
		c0.136-0.426-0.256-0.7-0.258-1.103c-0.001-0.277-0.359-0.315-0.854-0.117c0.231,0.596,0.762,1.031,0.939,1.688
		c-0.332,0.881-1.301,1.185-1.756,1.96c0,0.115,0,0.256,0,0.392c0.154,0.097,0.209,0.31,0.513,0.313
		c0.311-0.502,0.857-0.094,1.306-0.238c0.558-0.398,1.23-0.501,1.842-0.714c0-0.246,0-0.46,0-0.711
		C32.302,55.772,31.843,55.183,31.241,54.613z M42.925,57.12c-0.191-0.587-0.565-0.919-1.104-1.111
		c-0.38-0.136-0.742-0.325-0.963-0.645c-1.018,0.065-1.554,0.445-1.821,1.328c0.733-0.221,1.337,0.359,1.927,0.198
		c0.6,0.217,0.997,0.622,1.606,0.647C42.668,57.425,42.779,57.294,42.925,57.12z M37.343,57.041
		c-0.446-0.425-0.856-0.816-1.272-1.213c-0.337,0.395-0.694,0.847-0.425,1.434c0.156,0.338,0.256,0.861,0.691,0.73
		C36.719,57.631,36.998,57.368,37.343,57.041z M41.627,52.611c-0.426,0.226-0.426,0.226-0.339,0.81
		c0.386,0.055,0.672-0.05,0.785-0.552C41.957,52.803,41.807,52.715,41.627,52.611z M52.566,56.283
		c-0.458-0.035-0.733-0.135-0.979,0.105C51.854,56.396,52.117,56.529,52.566,56.283z"/>
	<path style="fill-rule:evenodd;clip-rule:evenodd;fill:none;" d="M31.241,54.613c0.602,0.569,1.061,1.159,1.733,1.47
		c0,0.251,0,0.465,0,0.711c-0.612,0.213-1.284,0.315-1.842,0.714c-0.448,0.145-0.995-0.264-1.306,0.238
		c-0.304-0.004-0.359-0.217-0.513-0.313c0-0.136,0-0.276,0-0.392c0.455-0.775,1.424-1.079,1.756-1.96
		c-0.177-0.656-0.708-1.092-0.939-1.688c0.495-0.198,0.853-0.16,0.854,0.117C30.985,53.913,31.377,54.188,31.241,54.613z"/>
	<path style="fill-rule:evenodd;clip-rule:evenodd;fill:none;" d="M42.925,57.12c-0.146,0.174-0.257,0.305-0.354,0.418
		c-0.609-0.025-1.007-0.431-1.606-0.647c-0.59,0.161-1.193-0.419-1.927-0.198c0.268-0.883,0.804-1.263,1.821-1.328
		c0.221,0.319,0.583,0.509,0.963,0.645C42.36,56.201,42.734,56.533,42.925,57.12z"/>
	<path style="fill-rule:evenodd;clip-rule:evenodd;fill:none;" d="M37.343,57.041c-0.346,0.327-0.624,0.59-1.005,0.951
		c-0.435,0.131-0.536-0.393-0.691-0.73c-0.27-0.587,0.088-1.039,0.425-1.434C36.487,56.225,36.897,56.616,37.343,57.041z"/>
	<path style="fill-rule:evenodd;clip-rule:evenodd;fill:none;" d="M41.627,52.611c0.18,0.104,0.329,0.191,0.446,0.258
		c-0.113,0.502-0.399,0.606-0.785,0.552C41.202,52.837,41.202,52.837,41.627,52.611z"/>
	<path style="fill-rule:evenodd;clip-rule:evenodd;fill:none;" d="M52.566,56.283c-0.449,0.246-0.712,0.112-0.979,0.105
		C51.833,56.148,52.108,56.248,52.566,56.283z"/>
</g>
</svg>
