<?xml version="1.0" encoding="iso-8859-1"?>
<!-- Generator: Adobe Illustrator 16.0.0, SVG Export Plug-In . SVG Version: 6.00 Build 0)  -->
<!DOCTYPE svg PUBLIC "-//W3C//DTD SVG 1.1//EN" "http://www.w3.org/Graphics/SVG/1.1/DTD/svg11.dtd">
<svg version="1.1" id="Layer_1" xmlns="http://www.w3.org/2000/svg" xmlns:xlink="http://www.w3.org/1999/xlink" x="0px" y="0px"
	 width="72.18px" height="70.921px" viewBox="0 0 72.18 70.921" style="enable-background:new 0 0 72.18 70.921;"
	 xml:space="preserve">
<g>
	
	<path fill="currentColor" d="M27.379,40.831c0-0.216,0-0.427,0-0.686
		c0.264-0.388,0.641-0.771,0.978-1.137c0.315-0.341,0.743-0.686,1.205-0.933c0.731-0.391,1.26-1.02,1.673-1.729
		c0.073-0.125,0.149-0.239,0.249-0.323c1.109-0.933,1.894-2.129,2.653-3.332c0.365-0.579,0.746-1.037,1.435-1.213
		c0.212-0.054,0.466-0.141,0.646-0.445c-0.129-0.708-0.297-1.458-0.979-2.018c-0.257,0-0.546-0.031-0.825,0.008
		c-0.422,0.059-0.705-0.213-1.041-0.364c-0.424-0.19-0.345-0.651-0.531-0.969c-0.225-0.383-0.066-0.728,0.153-1.093
		c-0.196-0.315-0.468-0.571-0.831-0.307c-0.281,0.204-0.55,0.054-0.799,0.157c-0.57-1.238-0.217-2.035,1.08-2.386
		c0.29-0.079,0.521-0.333,0.882-0.243c0.269,0.067,0.568,0.013,0.837,0.013c0.144-0.144,0.271-0.271,0.411-0.411
		c0.229,0,0.47,0,0.688,0c0.274,0.249,0.443,0.474,0.213,0.838c-0.234,0.371-0.489,0.76-0.291,1.241
		c0.248,0.354,0.6,0.302,1.028,0.234c0.063-0.955-0.643-1.951,0.095-2.901c0.983-0.775,2.146-0.439,3.324-0.246
		c0.126-0.816-0.132-1.474-0.386-2.139c-0.12-0.313-0.286-0.614-0.231-0.989c0.088-0.599-0.322-1.089-0.442-1.65
		c-0.063-0.293-0.302-0.588-0.183-0.881c0.188-0.46,0.243-0.981,0.594-1.373c0.57-0.638,0.88-1.474,1.466-2.082
		c0.614-0.638,0.88-1.441,1.266-2.185c0.22-0.425,0.562-0.707,0.843-1.046c0.569-0.052,1.121-0.064,1.613,0.27
		c0.185,0.639-0.097,1.243-0.271,1.805c-0.157,0.506-0.069,0.975-0.115,1.456c-0.045,0.481-0.076,0.994,0.291,1.383
		c0.242,0.259,0.134,0.549,0.119,0.811c-0.03,0.567,0.069,1.106,0.231,1.638c0.288,0.943,0.294,0.941-0.232,1.832
		c0.22,0.639-0.278,1.242-0.206,1.875c-0.422,0.727-1.399,0.691-1.764,1.396c-0.578,0.225-1.021-0.348-1.583-0.147
		c-0.228,0.248-0.65,0.42-0.502,1.061c0.229,0.189,0.56,0.46,0.819,0.674c0.008,0.566,0.364,0.944,0.216,1.371
		c0.535,0.528,1.227,0.607,1.813,0.711c0.738,0.131,1.265,0.494,1.608,1.033c0.193,0.302,0.453,0.52,0.692,0.885
		c0,0.235-0.016,0.554,0.002,0.871c0.04,0.693-0.111,1.394,0.193,2.078c0.118,0.266,0.021,0.628,0.021,0.893
		c-0.398,0.496-1.096,0.434-1.344,0.931c-1.104,0.27-1.871-0.37-2.756-0.928c-0.346-0.416-0.184-1.041-0.231-1.643
		c-0.844,0.124-0.79,1.036-1.615,1.338c-0.439,0.063-1.113-0.034-1.984-0.376c0.508,0.994,0.924,1.782,0.015,2.539
		c-1.081-0.341-1.762,0.606-2.662,0.955c-0.259,0.1-0.223,0.409-0.373,0.602c-0.632,0.81-1.384,1.528-1.853,2.467
		c-0.122,0.242-0.393,0.41-0.581,0.599c-0.009,0.497-0.237,0.86-0.544,1.206c-0.202,0.226-0.428,0.407-0.57,0.731
		c-0.415,0.94-0.795,1.119-2.029,1.208C28.646,41.201,27.989,41.072,27.379,40.831z M35.926,28.291c0.937,0.229,1.53-0.398,2.29-0.6
		c-0.277-0.373-0.619-0.453-0.914-0.626C36.748,27.323,36.236,27.628,35.926,28.291z M40.644,27.064
		c-0.531,0.009-0.489,0.527-0.753,0.802C40.685,27.901,40.759,27.82,40.644,27.064z"/>
	<path fill="currentColor" d="M45.97,27.741c-0.05-0.722-0.163-1.299-0.597-1.806
		c-0.171-0.199-0.379-0.498-0.301-0.837c0.055-0.238-0.136-0.375-0.209-0.561c-0.155-0.398-0.455-0.782-0.044-1.244
		c0.125-0.142,0.042-0.481,0.034-0.73c-0.016-0.454-0.023-0.903,0.287-1.283c0.064-0.079,0.173-0.128,0.148-0.263
		c-0.144-0.78,0.442-1.487,0.204-2.153c0.239-0.465,0.423-0.822,0.656-1.276c0.07-0.8-0.27-1.822,0.656-2.495
		c0-0.672,0-1.318,0-1.958c0.311-0.311,0.615-0.615,0.92-0.92c0.205-0.121,0.518,0.073,0.66-0.23
		c0.244,0.167,0.548,0.224,0.753,0.467c0.587,0.699,1.545,0.918,2.128,1.65c0.243,0.303,0.8,0.135,1.116,0.527
		c0,0.27,0,0.583,0,0.883c-0.42,0.726-0.719,1.476-0.605,2.326c-0.964,1.014-1.403,2.243-1.508,3.591
		c-0.028,0.375-0.23,0.63-0.379,0.926c-0.545,1.094-0.661,2.276-0.318,3.493c0.048,0.172,0.104,0.384-0.013,0.5
		c-0.315,0.311-0.1,0.68-0.174,0.998c-0.204,0.546-0.784,0.516-1.171,0.777c-0.123,0.083-0.365,0.108-0.494-0.03
		c-0.274-0.295-0.617-0.068-0.908-0.161C46.557,27.848,46.344,27.625,45.97,27.741z"/>
	<path fill="currentColor" d="M28.008,43.812c-0.305,0.305-0.61,0.609-0.967,0.965
		c-0.899-0.089-1.51,0.409-1.827,1.25c-0.165,0.438-0.405,0.785-0.73,1.1c-0.172,0.165-0.301,0.344-0.403,0.587
		c-0.366,0.875-1.11,1.367-1.999,1.585c-0.287,0.071-0.39,0.246-0.531,0.328c-0.118,0.423,0.135,0.679,0.269,0.925
		c0.194,0.357,0.163,0.612,0.013,0.97c-0.238,0.568-0.646,1.021-0.953,1.661c0,0.213,0.023,0.535-0.007,0.852
		c-0.025,0.265-0.337,0.461-0.199,0.789c-0.26,0.238-0.523,0.48-0.818,0.752c-0.28-0.012-0.675,0.15-0.918-0.435
		c0-0.564-0.173-1.337,0.042-1.979c0.293-0.879-0.057-1.807,0.377-2.644c0.088-0.17,0.013-0.424,0.013-0.667
		c0.17-0.155,0.355-0.324,0.601-0.548c0.234,0,0.547,0,0.871,0c0.153-0.714-0.088-1.306-0.389-1.879
		c0.104-0.799,0.782-1.107,1.336-1.467c0.566-0.368,1.173-0.65,1.493-1.296c0.061-0.122,0.198-0.206,0.299-0.308
		c0.86-0.869,1.806-1.666,2.262-2.801c0.457,0,0.813,0,1.194,0c0.157,0.516,0.636,0.789,0.973,1.19
		C28.008,43.093,28.008,43.451,28.008,43.812z"/>
	<path fill="currentColor" d="M39.105,42.22c-0.297,1.206-1.192,2.097-1.165,3.335
		c-0.164,0.147-0.351,0.314-0.579,0.519c-0.692,0.153-1.775-0.061-2.424-0.512c0-0.343,0-0.696,0-1.087
		c0.19-0.189,0.347-0.45,0.675-0.564c0.462-0.162,0.54-0.685,0.799-1.032c0.365-0.491,0.641-1.051,1.063-1.402
		c0.162-0.846,0.53-1.482,1.117-1.977c-0.015-0.538,0.38-0.995,0.218-1.456c0.498-0.827,0.825-1.641,0.845-2.528
		c0.009-0.365,0.398-0.606,0.231-0.986c0.255-0.255,0.508-0.509,0.759-0.76c0.508,0,1.01,0,1.43,0
		c0.443,0.208,0.807,0.412,1.054,0.783c0,0.267,0,0.553,0,0.838c-0.177,0.209-0.362,0.39-0.485,0.661
		c-0.118,0.259-0.213,0.575-0.499,0.769c-0.563,0.38-0.832,0.999-1.141,1.569c-0.395,0.73-0.908,1.453-1.064,2.239
		C39.794,41.336,39.512,41.845,39.105,42.22z"/>
	<path fill="currentColor" d="M45.986,36.943c-0.362-0.337-0.709-0.677-0.914-1.251
		c0-0.304,0-0.736,0-1.167c0.186-0.9,1.086-0.81,1.659-1.191c0.258-0.052,0.368,0.315,0.696,0.236c0.3,1.387,0.987,2.68,0.888,4.159
		c-0.041,0.6,0.232,1.136,0.532,1.606c0.161,0.252,0.262,0.565,0.551,0.806c-0.143,1.012,0.34,2.146-0.513,3.139
		c-0.743-0.066-1.522,0.168-2.23-0.271c-0.373-0.745-0.75-1.488-0.892-2.392c0.292-0.542,0.265-1.209,0.082-1.845
		C45.665,38.143,45.63,37.56,45.986,36.943z"/>
	<path fill="currentColor" d="M26.063,35.928c-0.069,0-0.302,0.072-0.418-0.014
		c-0.331-0.244-0.756-0.099-1.062-0.302c-0.198-0.131-0.485-0.118-0.643-0.445c0-0.521,0-1.123,0-1.701
		c-0.247-0.156-0.273-0.359-0.244-0.658c0.202-0.313,0.592-0.412,0.965-0.571c0.398-0.17,0.765-0.425,1.12-0.678
		c0.338-0.241,0.765-0.278,1.094-0.475c0.38-0.227,0.694-0.501,1.172-0.58c0.376-0.062,0.677-0.442,1.171-0.417
		c0.53-0.765,1.42-1.075,2.232-1.502c0.233-0.047,0.289,0.356,0.557,0.219c0.203,0.39,0.501,0.785,0.253,1.238
		c-0.205,0.375-0.374,0.764-0.875,0.952c-0.351,0.132-0.702,0.402-1.022,0.635c-0.417,0.305-1.002,0.434-1.189,1.052
		c-0.065,0.218-0.367,0.362-0.64,0.486c-0.737,0.334-1.28,0.907-1.608,1.669C26.747,35.245,26.594,35.682,26.063,35.928z"/>
	<path fill="currentColor" d="M33.44,46.766c0.193-0.022,0.369-0.023,0.531-0.07
		c0.09-0.026,0.158-0.128,0.293-0.245c0.569,0.644,1.575,0.327,2.158,1.025c0,0.345,0,0.701,0,1.096
		c-0.644,0.689-1.459,1.226-2.195,1.855c-0.344,0.294-0.672,0.692-0.932,1.087c-0.25,0.38-0.437,0.841-0.507,1.288
		c-0.045,0.288-0.158,0.582-0.293,0.738c-0.493,0.569-0.616,1.212-0.599,1.918c0.005,0.216,0,0.432,0,0.636
		c-0.136,0.342-0.541,0.304-0.738,0.552c-0.671,0.068-1.324,0.064-1.84-0.51c0-0.34,0-0.696,0-1.07
		c0.027-0.036,0.058-0.107,0.112-0.144c1.134-0.756,1.393-2.076,2.034-3.149c-0.001-0.681,0.418-1.222,0.743-1.732
		c0.338-0.533,0.333-1.109,0.456-1.645C32.799,47.8,33.066,47.33,33.44,46.766z"/>
	<path fill="currentColor" d="M18.085,42.796c0.005-0.231-0.05-0.39-0.221-0.467
		c-0.058-0.943,0.097-1.802,0.743-2.516c0.063-0.068,0.093-0.179,0.11-0.276c0.158-0.879,0.641-1.543,1.246-2.191
		c0.599-0.641,1.09-1.4,1.518-2.17c0.161-0.289,0.385-0.484,0.566-0.747c0.279,0,0.563,0,0.766,0c0.3,0.315,0.565,0.593,0.877,0.92
		c-0.332,0.567-0.194,1.279-0.223,1.979c-0.215,0.167-0.343,0.433-0.623,0.551c-0.276,0.116-0.583,0.239-0.775,0.451
		c-0.217,0.238-0.398,0.563-0.458,0.879c-0.234,1.222-1.026,2.168-1.54,3.25c-0.086,0.182-0.059,0.432-0.526,0.543
		C18.812,43.07,18.812,43.07,18.085,42.796z"/>
	<path fill="currentColor" d="M21.366,29.6c-0.151-0.482,0.199-0.65,0.186-0.991
		c1.447-0.384,2.935-0.665,4.551-1.242c0.253-0.222,0.565-0.799,1.125-0.892c0.902-0.15,1.6-1.06,2.724-0.592
		c0.005,0.005,0.106,0.107,0.213,0.213c0,0.355,0,0.714,0,1.077c-0.237,0.245-0.474,0.473-0.806,0.63
		c-0.261,0.124-0.496,0.387-0.541,0.728c-0.403,0.243-0.834,0.333-1.289,0.254c-0.907,0.871-2.001,1.457-2.987,2.254
		c-0.494-0.344-0.974-0.44-1.388-0.05C22.391,30.617,21.814,30.124,21.366,29.6z"/>
	<path fill="currentColor" d="M20.352,29.644c0.092,0.114,0.2,0.249,0.309,0.384
		c-0.162,0.47-0.326,0.943-0.538,1.557c-0.128,0.126-0.347,0.36-0.683,0.523c-0.584,0.283-1.047,0.714-1.395,1.327
		c-0.531,0.936-1.262,1.75-1.716,2.748c-0.14,0.308-0.455,0.536-0.694,0.806c-0.252,0-0.493,0-0.77,0c0-0.619,0-1.221,0-1.814
		c0.354-0.651,0.796-1.26,1.161-1.898c0.327-0.573,0.545-1.206,0.913-1.785c0.235-0.371,0.606-0.582,0.724-0.899
		C18.613,30.406,19.307,29.771,20.352,29.644z"/>
	<path fill="currentColor" d="M17.068,44.175c0.302,0.147,0.596,0.292,0.942,0.462
		c0.386,0.57,0.273,1.157,0.021,1.853c-0.318,0.875-0.935,1.613-1.108,2.552c-0.026,0.141-0.161,0.291-0.146,0.473
		c0.06,0.697-0.309,1.16-0.8,1.546c-0.678-0.186-1.088-0.612-1.355-1.309c0.09-0.508-0.077-1.127,0.108-1.767
		c0.157-0.548,0.559-1.005,0.554-1.595c0.463-0.506,1.048-0.905,1.083-1.711C16.381,44.358,16.892,44.395,17.068,44.175z"/>
	<path fill="currentColor" d="M26.476,60.677c0.686-0.593,0.836-1.48,1.5-2.289
		c0.261-0.168,0.734-0.318,1.299-0.16c0.763,0.955,0.521,1.968,0.122,2.985c-0.169,0.433-0.46,0.851-0.5,1.291
		c-0.06,0.683-0.608,0.945-1.017,1.022c-0.558,0.106-1.117,0.431-1.782,0.221C25.873,62.694,26.73,61.737,26.476,60.677z"/>
	<path fill="currentColor" d="M44.996,55.794c-0.218-0.2-0.401-0.368-0.492-0.451
		c-0.273-0.58,0.247-0.934,0.123-1.387c0.663-0.52,1.062-1.184,1.367-1.995c0.687-0.243,1.338-0.731,2.115-0.94
		c0.835,0.574,1.233,1.313,1.031,2.333c-0.163,0.257-0.423,0.372-0.718,0.278c-0.305-0.098-0.369,0.369-0.652,0.237
		c-0.438,0.721-1.006,1.288-1.726,1.748C45.658,55.865,45.31,55.741,44.996,55.794z"/>
	<path fill="currentColor" d="M49.815,48.94c-0.276,0.884-0.988,1.133-1.824,1.266
		c-0.158-0.187-0.317-0.376-0.541-0.64c0.184-1.302-0.955-2.419-0.888-3.639c0.219-0.549,0.444-0.894,0.8-1.143
		c0.418,0,0.847,0,1.275,0c0.152,0.153,0.305,0.305,0.473,0.473c0.14,0.171,0.016,0.398,0.072,0.594
		c0.045,0.155,0.146,0.295,0.209,0.416c0.016,0.251-0.279,0.312-0.229,0.589C49.288,47.556,49.584,48.188,49.815,48.94z"/>
	<path fill="currentColor" d="M14.281,38.775c0.435,0.321,0.31,0.68,0.658,0.803
		c-0.31,0.436-0.227,0.925-0.579,1.256c-0.365,0.342-0.708,0.709-1.067,1.058c-0.221,0.216-0.431,0.434-0.51,0.722
		c-0.353,0.099-0.566-0.072-0.751-0.309c-0.145-1.494,0.628-2.646,1.369-3.871C13.762,38.662,14.085,38.74,14.281,38.775z"/>
	
	
</g>
</svg>
