<svg xmlns="http://www.w3.org/2000/svg" xml:space="preserve" width="72px" height="72px" viewBox="0 0 72 72">
    <g fill="currentColor">
        <path d="m62.547 29.591-.801.801c-.46.111-.631-.317-.859-.568-.586-1.008-.068-2.029-.008-2.96-.463-.486-.917-.677-1.397-.569-.717.485-1.111 1.147-1.429 1.837-.117.255-.363.52-.242.874.137.396-.138.731-.213 1.096-.061.297-.206.528-.553.494-.221-.022-.317.123-.517.322.179 1.088-.332 2.033-.962 2.923-.751.019-1.157-.482-1.596-.936-.065-.679-.5-1.382-.227-2.03.278-.661-.039-1.398.418-1.917-.149-.61-.575-.516-.974-.516-.752-.592-.917-1.462-1.046-2.391-.686.078-.615.748-.918 1.092h-.429c-.5-.4-.471-1.176-1.111-1.49-.084.106-.275.236-.279.373-.039 1.127-.84 1.823-1.391 2.699-.485-.192-.698-.579-1.005-.823.098-.608-.542-.806-.637-1.285v-.771l-.364-.46c-.763.391-1.49.77-2.226.687-.759-.292-1.144-.864-1.653-1.315-.693.061-.397.794-.73 1.098.171.851-.374 1.644-.196 2.497.245.194.215.72.534.709.488-.017.158.565.522.505v1.154l-.557.521h-.816c-.592-.324-.634-1.048-1.075-1.485-.34.383-.34.383-.388 1.632-.563.318-1.058-.209-1.592-.132-.154.109-.142.284-.097.395.344.846.251 1.673.007 2.528-.125.438-.36.553-.781.525-.545-.593-.893-1.368-1.123-2.097-.219-.694-.618-1.123-1.094-1.651-.41.324-.803.596-.944 1.067-1.101.58-2.215 1.061-2.882 2.216-.289.501-1.006.482-1.538.671-.189.067-.423.011-.617.011l-.648.648c-.124 0-.274-.031-.405.006-.444.126-.834-.34-1.196-.193-.413.167-.805.187-1.217.186-1.088-.005-2.186.114-3.37-.351a7.4 7.4 0 0 0-2.591-1.938c-.303-.137-.579-.304-.954-.324-.638-.034-1.115-.522-1.541-.925-.563-.532-1.259-.876-1.689-1.429-.32-.001-.373.215-.583.345.358.438.25.969.261 1.483-1.228.587-1.45.519-2.809-.867v-1.619c0-.035.005-.07.001-.014.37-.829 1.571-.621 1.674-1.605-.236-.64-.977-1.074-.795-1.937l-.59-.503c-.573.463-.248 1.479-1.102 1.888h-.839c-.65-.691-.656-1.407-.24-2.087.439-.44.905-.52 1.434-.485v-.769c.371-.178.415-.571.673-.877 0-.448.029-.95-.007-1.448-.044-.612.143-1.138.424-1.665.089-.167.195-.325.327-.395 1.03-.545 1.649-1.462 2.181-2.435.209-.383.442-.771.791-.946.466-.234.737-.643 1.122-.938.856-.657 1.577-1.472 2.485-2.072.523-.346.879-.881 1.415-1.252a7.6 7.6 0 0 1 1.506-.822c.525-.213.933-.649 1.479-.862.431-.168.859-.361 1.252-.629.486-.331 1.021-.561 1.571-.436.414-.241.745-.486 1.114-.635.464-.187.92-.412 1.471-.095.272.157.753.188 1.028.051.448-.224.887-.13 1.327-.195.569-.083 1.14-.186 1.694-.339.728-.201 1.378-.124 1.904.436a8.8 8.8 0 0 0 1.742 1.423c2.22 0 4.588-.003 6.956.002.384 0 .674-.288 1.101-.239.851.097 1.671.3 2.491.519.09.024.154.146.246.237v.694c-.688.485-1.451.221-2.02.297-.878.239-1.517.926-2.454.487.01-.011-.035.087-.084.089-.621.023-1.201.358-1.824.28-.542-.068-.986.313-1.533.239-.495-.066-1.007 0-1.51-.019-.26-.01-.377.324-.668.227-.224-.075-.307.272-.558.215-.675-.155-1.279.274-1.962.243-.402-.019-.684-.288-1.098-.278-.403.01-.678.351-1.1.262-.342-.072-.711-.015-1.03-.015l-.351.329c.308-.006.48.245.739.338.663.241 1.259.669 2.017.216.212-.126.565-.036.852-.015a.88.88 0 0 0 .663-.219c.247-.077.31.248.563.222 1.706-.168 3.386.319 5.092.213a13 13 0 0 1 1.511.002c.336.018.703-.142 1.007.192.082.09.397.089.515.004.623-.449 1.181-.077 1.726.131.214.082.404.07.606.097 1.171.152 2.311-.21 3.473-.223.264-.003.461-.335.774-.208.344-.396.874-.311 1.191-.18.629.258 1.249.107 1.789.181 1.261.595 2.061 1.578 2.901 2.567.81.952 1.415 2.053 2.278 2.946.254.263.072.596.353.844.459.406.618 1.042 1.054 1.512.388.418.386 1.121.716 1.632.164.254.229.56.455.785.62.616.854 1.383.843 2.24-.007.834.095 1.684-.234 2.444m-6.904-2.112c.16-1.088-.633-2.176.033-3.231l-.319-.32c-.823.537-1.155 1.319-.981 2.259.104.563.027 1.232.581 1.641zM27.605 14.333c.932.218 1.731-.062 2.543-.22l.021-.23c-.795-.477-1.669-.315-2.498-.351-.118.185-.338.24-.306.525zM39.25 27.989c-.066-.681-.068-.68-.613-.807-.066.269-.084.532.012.807zm6.476 14.37c.643.085 1.063.47 1.596.318l.489.488c.339.746-.491 1.17-.35 1.815l.697.337c.548-.575 1.354-.643 2.079-.86.338-.101.541-.28.786-.467.608 0 1.263-.135 1.819.041.487.153.953.132 1.408.182.792.487 1.113 1.091 1.188 2.21l.879.792h.761c.126.177.271.381.521.728 0 .003.074.255-.016.416-.182.323-.31.686-.631.933-.56.43-.971.996-1.214 1.651-.172.464-.563.702-.832 1.034h-1.508c-.473-.387-.983-.522-1.686-.361.514.477.923.947 1.49 1.28.559.327 1.146.632 1.583 1.135.239 1.009-.531 1.889-1.361 2.2-.428.161-.933.155-1.397.274-.198.051-.289.182-.486.328.192.191.378.382.567.566.179.174.396.326.273.731-.36.643-1.231.879-1.709 1.533-1.281.266-2.115 1.403-3.4 1.707-.646.152-1.264.019-1.878.129-.132-.325-.604-.115-.72-.477v-1.188c.52-.592 1.104-1.146 2-.913.231-.303.649-.248.78-.69-.071-.337-.501-.482-.736-.867-.449.18-.813-.219-1.271-.202-.462.017-.926.003-1.35.003l-.296-.295v-1.346l-.587-.374c-.152-.203-.399-.134-.642-.132-.146.104-.128.274-.088.39.332.963.168 1.956.213 2.946l-.565.539c-.434 0-.933.103-1.355-.032-.358-.113-.733-.122-1.075-.264-.062-.025-.106-.09-.159-.137-.76.288-.786.349-1.646-.025-.422-.184-.788-.181-1.16-.17-.543.426-.217 1.49-1.181 1.512-.54-.302-.791-.813-1.114-1.286h-1.168c-.306.293-.675.474-1.115.396-.35-.062-.595.172-.848.303-.208.108-.389.122-.604.137l-1.268 1.292h-1.104c-.244-.238-.528-.446-.612-.816-.134-.588-.64-.732-1.063-.935-.263.134-.096.466-.371.546.465.295-.115.94.422 1.118-.004.306-.218.36-.326.532-.67-.099-1.391.177-2.046-.227-.508.125-.675-.522-1.218-.493-.427.024-.727-.486-1.056-.798a3 3 0 0 0-.66-.483c-.766-.4-1.492-.886-2.037-1.604v-.62l.757-.757c.663.074 1.378-.036 2.095-.286.569.674 1.277 1.068 2.062 1.362.802-.37 2.131-1.365 2.402-2.068l-.271-.271-2.053 1.052c-.201 0-.489-.015-.774.004-.449.029-.792-.182-1.107-.457-.343-.3-.409-.909-.849-1.025-.49-.129-.576-.624-.967-.73v-1.512l.873-.862c.019-.146-.212-.195-.298-.395-.698.091-1.336-.135-2.027-.519l-.304-.604c.152-.705.565-1.167 1.307-1.442.629.021 1.299-.205 2.003-.464-.425-.504-.924-.423-1.394-.413-.87.018-1.717-.006-2.534-.407-.184-.091-.418-.229-.653-.239-.395-.019-.791-.005-1.187-.005-.155.261-.481.371-.689.403-.816.126-1.427.619-2.043 1.065-.485.352-.95.555-1.596.438-.426-.275-.71-.72-.881-1.271-.127-.41-.344-.793-.525-1.186-.525-1.138-.533-1.229-.207-2.328.02-.066.002-.144.002-.237-1.174-1.021-1.545-2.376-1.521-3.911l.359-.299c.786-.184 1.416.391 2.167.589a.46.46 0 0 1 .44-.192c.035-.404.241-.758.31-1.168.068-.401 1.248-.985 1.688-.718.589.359 1.011.018 1.444-.101 1.217-.334 2.023-.237 2.859.586.229.227.506.351.93.54h1.768c.478.393.817.974 1.566 1.107l.328-.415c-.151-.381-.538-.594-.783-.902-.301.044-.53-.01-.547-.035-.293-.442-.146-.698-.242-.956.729-.219 1.376-.762 2.153-.415.253.113.473.087.708.116.406.05.812-.069 1.224.188.205.128.62.124.911-.074.36-.246.764-.046 1.141-.112.516.552 1.053.053 1.54-.044.245-.048.508-.17.783-.171.899-.004 1.8.021 2.699-.008.783-.024 1.478.197 2.216.644.528.017 1.114.064 1.673-.394.616-.505 1.302-.193 1.882.158.258.157.533.291.772.455.836-.349 1.663-.697 2.494-1.038.535-.22 1.057.038 1.502.214.601.238 1.126.256 1.699.039.45-.169.916-.044 1.374-.063.254-.012.494.003.643-.195 1.694.333 3.264 1.084 4.919 1.31.439-.437.904-.505 1.406-.478.323.018.648-.001.972.004.56.009 1.084-.007 1.564-.41.346-.29.831-.331 1.432-.15.566.341.566.341 1.363.313.304-.22.686-.279.865-.658 1.349.138 2.645.729 3.979.428.887.785.887.785.887 2.459-.188.24-.193.595-.535.773-.582.038-1.435-.117-2.015-.38-.574.203-1.121.516-1.765.432-.582-.075-1.208.215-1.676-.204-.818.217-1.486.597-2.104 1.064-1.064.109-2.083-.283-3.152-.241-.704.027-1.357.372-2.068.246-.267-.047-.547.091-.808-.159-.116-.111-.406-.031-.614-.061-.358-.052-.646.499-1.052.099-.301-.297-.759.089-1.094-.227-.299-.28-.726.035-1.103-.211-.382-.249-.963-.207-1.338-.039-.358.16-.682.174-1.013.153-.991-.059-1.938.395-2.934.228-.32.311-.789.134-1.217.319.421.756 1.316.836 1.853 1.646.099.177-.292.694.348 1.038.565.174 1.122-.08 1.625-.586.606-.609 1.399-.937 2.142-1.339.094-.05.172-.123.169-.12m-1.839 4.883c-.198.333-.648.11-.897.431-.411.529-1.027.644-1.67.64-.72-.005-1.44-.031-2.158.007-.856.045-1.657-.045-2.322-.654-.048-.043-.117-.063-.06-.033-.395-.461-.36-.916-.347-1.291.543-.989 1.89-.813 2.461-1.817-.898-.295-1.672.002-2.41.216-.379.11-.798.04-1.167.313-.367.271-.467.628-.632.994-.141.312-.878.604-1.171.535-.646-.154-1.231-.065-1.618.342-.337.354-.806.476-1.191.487-.645.019-1.327.247-1.972-.159-.203-.128-.645-.124-.827.017-.339.262-.678.127-1.013.18-.272.042-.567-.095-.87.122l.91 1.833c-.068.37.138.833-.186 1.211l.522.521c.138-.118.381.131.552-.204-.769-.996.302-1.545.608-2.365 1.898-.396 3.764-.444 5.606.213-.014.385.285.51.453.723v.573c-.327.712-.791 1.089-1.533 1.288-1.302.349-2.585.697-3.959.614-.568.512-.955 1.111-.99 1.905.147.023.221.058.281.041 1.527-.418 3.043-.886 4.624-1.076.459-.351 1.046-.067 1.504-.274.728-.329 1.323-.144 1.947.274.183 0 .399.009.614-.002a4.65 4.65 0 0 1 2.472.544c.345.185.679.068 1.034.103.276-.515.601-.963 1.008-1.253 1.102-.156 2.159-.229 3.047-.886 1.008-.111 2.037.146 3.042-.219.285-.104.681-.111.958.002 1.001.409 2.004.104 3.011.184v-1.55l.92-.812c-.439 0-.793.018-1.143-.006-.234-.016-.378.127-.564.209-.385.169-.729-.217-1.09-.188-.87.069-1.767-.244-2.615.19a.42.42 0 0 1-.487-.105c-.2-.218-.476-.051-.689-.118-.493-.172-.558-.692-.862-1.023-.318-.346-.816-.352-1.131-.677m-10.346-6.027c-.508-.09-.965-.029-1.4.256-.602.395-1.231.57-1.925.16-.107-.063-.442-.146-.495.304.3.116.56.385.997.324.516.685 1.216.972 2.091.876.386-.042.781-.007 1.157-.007.72-.618 1.561-.938 2.432-1.223-1.004-.134-2.074.145-2.857-.69m-18.974 2.553c.252.446.648.494.972.676.088-.077.165-.204.243-.204.622-.001 1.185-.34 1.83-.264.469.056 1.245-.489 1.301-.718v-.938c-.168-.08-.221-.305-.576-.254-.488.318-1.188.54-1.851.588-.867.063-1.4.467-1.919 1.114m23.307-2.795-.825.839h1.247c.093-.156.317-.205.316-.218-.037-.412-.238-.474-.337-.621zm11.522 16.196-.662.528.334.334h.438l.644-.672c-.154-.281-.497-.18-.754-.19"/>
        <path d="M61.453 45.72c-.559 0-1.204-.021-1.848.006-.635.024-1.199-.157-1.759-.432-.534-.262-1.094-.47-1.685-.72-.103-.25-.352-.517-.298-.837.903-1.305 2.427-1.665 3.677-2.554.583 0 1.266-.041 1.942.012.694.053 1.335.253 1.603 1.029.043.122.118.229.137.374.079.637-.151 1.223-.328 1.803-.187.619-.682 1.012-1.441 1.319m-47.268 6.81v-1.304l.311-.311c.296.019.566-.037.883.173a3 3 0 0 0 2.064.466c.175-.022.355-.003.436-.003.762.311 1.166.911 1.696 1.387-.119.366.274.615.257.927-.195.655-.805.513-1.203.681-.353.149-.787.067-1.201.214-.485.171-1.019.006-1.422-.41-.6-.619-1.218-1.218-1.821-1.82m23.657 10.908-.334-.334c.03-.506-.11-1.042.342-1.57.652-.325 1.262-1.09 2.179-1.105.859-.016 1.756-.221 2.589.232.187.442.573.886.078 1.382.044.549-.509.635-.766.699-.491.121-.952.308-1.417.48-.885.327-1.795.166-2.671.216m22.782-14.469v.713c-.256.978-.812 1.539-1.431 2.097-.565-.125-1.236.229-1.764-.252-.118-.704-.036-1.345.277-2.142.278-.436.891-.741 1.654-1.064h.752zm-2.846 4.866c-.282.419-.388 1.001-.957 1.357h-.863c-.248-.567-.699-1.098-.423-2.046.091-.667.986-.584 1.563-.932.201-.121.483-.005.68.291zm-24.89 9.618-.769-.778c-.053-.294.003-.552.317-.739h.57l.839.836c-.008.088.004.234-.041.36-.033.091-.142.153-.217.229-.225.159-.482.004-.699.092"/>
    </g>
</svg>
