<svg xmlns="http://www.w3.org/2000/svg" xml:space="preserve" width="72px" height="72px" viewBox="0 0 72 72">
    <path fill="currentColor" d="M15.34 55.871c-.143-.329-.25-.573-.354-.817-.2-.47-.432-.934-.369-1.467.13-1.1-.341-2.156-.223-3.258.044-.409-.008-.813.205-1.215.169-.32-.065-.721.177-1.117.235-.386.053-.917.238-1.406.281-.743.752-1.45.714-2.3-.002-.049.109-.094.144-.154.674-1.153 1.188-2.386 1.768-3.586.26-.538.735-.911 1.09-1.372.597-.776 1.351-1.436 1.966-2.215.299-.379.655-.708.833-1.171.118-.307.354-.5.63-.658.799-.454 1.216-1.116 1.087-2.044.547-.645 1.64-.835 1.509-2.009h1.139c-.211.258-.497.092-.647.188-.039.247-.14.457.079.638.505-.134.978-.377 1.084-.921.081-.413.577-.53.555-.962a6.9 6.9 0 0 1 2.165-.535c1.232-.092 2.379-.619 3.042-1.697.459-.746 1.113-1.037 1.883-1.368-.035-.378.05-.753-.191-1.169-.211-.364.423-.735.15-1.155.575-.733 1.37-1.204 1.749-2.042-.387-.424-.486-.946-.391-1.521.548-.535.388-1.227.418-1.949.36-.069.615-.343.873-.672-.195-.644.379-1.235.189-1.874.361-.463.985-.439 1.324-.931-.271-.813-1.091-1.594-.386-2.599.466-.182.938-.383 1.233-.843-.12-.4-.302-.762-.641-1.037v-.885c.516-.481.955-1.098 1.662-1.382.133-.053.242-.107.353-.194.645-.506 1.35-.824 2.212-.661l.659.659c.135.43.223.864.407 1.252.151.317.197.714.071.913-.284.447-.18.893-.179 1.333.006 1.423-.141 2.793-.796 4.103-.201.404-.248 1.085-.039 1.456.476.846-.078 1.386-.422 1.945-.281.458-.552.938-.894 1.385a8.3 8.3 0 0 0 .312 3.129h-1.096c-.393.572-.525 1.084-.499 1.907h1.413c.734-.617 1.731-1.031 2.225-2.013v-.968c.5-.964 1.546-1.154 2.154-1.8.064-.519-.235-.831-.423-1.186.254-.749.584-1.451 1.196-1.987h.642c.2-.252.547-.265.765-.526.311-.373.596-.835.394-1.22-.485-.925.012-1.497.626-1.949a5.8 5.8 0 0 1 2.473-1.052c.1-.017.207.01.295.015l.473.473c.017.065.047.13.047.196q.006.755.001 1.511c-.001.176.052.405-.037.52-.457.598.005 1.017.241 1.575-.022.786.43 1.621.153 2.621-.831.537-2.022.837-2.499 2.197v.921c-.831.796-1.575 1.702-2.633 2.328.17.554-.293.993-.181 1.587l-.588.356c.368.394.397.765.349 1.154-.176.203-.449.345-.454.668-.073.121-.202.042-.291.082-1.009.449-1.756 1.179-2.265 2.153-.203.387-.54.675-.676 1.127-.104.352-.457.621-.797.813-.317.18-.659.316-1.037.493-.163.305-.343.65-.314 1.099.037.584-.399.966-.811 1.269-.84.62-1.178 1.428-1.113 2.442.642.654.509 1.664 1.078 2.408-.062.501.065 1.044-.185 1.604-.125.278-.152.732.103 1.119.213.323.124.777.062 1.148-.13.761-.343 1.508-.546 2.255-.024.091-.101.182-.084.286.128.814-.4 1.396-.85 1.902-.46.519-.657 1.111-.86 1.709-.136.397-.237.796-.566 1.059-.78.624-1.232 1.508-1.803 2.287-.398.544-.803 1.028-1.364 1.393-.175.113-.327.265-.479.41-.449.431-.854.89-1.479 1.124-.338.126-.539.58-.869.771-1.082.627-2.102 1.353-3.172 1.991-.965.575-2.022 1.003-3.199.466-.208-.095-.499-.03-.75-.011-1.23.098-2.406-.255-3.596-.455-.408-.069-.792-.351-1.157-.581-1.424-.898-2.723-1.951-3.861-3.198-.112-.122-.192-.314-.411-.305-.035-.001-.07-.003-.133-.003m15.151-16.207c-.322.041-.569-.007-.851.178-.638.419-1.331.795-1.762 1.412a7.4 7.4 0 0 1-.795.954c-.981 1.002-1.977 1.988-2.971 2.977-.349.348-.667.707-.641 1.245.007.141-.08.266-.104.385-.177.89-.882 1.499-1.232 2.456 0 .714.074 1.58-.021 2.426-.094.839-.87 1.422-1.049 2.21.126.245.237.418.487.456.551-.285 1.102-.601 1.677-.862 1.412-.642 2.771-1.352 3.789-2.572.084-.101.172-.198.327-.249.917-.305 1.41-1.132 2.075-1.745a1.1 1.1 0 0 0 .305-.62c.104-.768.502-1.338 1.073-1.825.325-.276.625-.581.807-.751.194-.733.289-1.324.656-1.762.414-.493.576-1.007.521-1.354-.528-1.362-1.455-2.084-2.291-2.959m7.017-9.314c-1.704.29-2.993 1.207-4.354 2.067.476.343.476.343 1.66.343.546-.605 1.281-.389 1.876-.433l.818-.745zm-1.4 10.416c.572-.879.221-1.839.32-2.588l-.496-.639c-.416-.106-.619.076-.813.335.026.702.411 1.389.214 2.11.295.227.232.71.775.782m3.902-14.685-.504.468c-.172.607-.431 1.154.067 1.667h.626c.191-.207.49-.352.601-.834-.316-.311-.337-.887-.79-1.301m-1.968 3.225q-.241.317.004.65c.12-.164.363-.236.336-.453-.048-.23-.193-.205-.34-.197"/>
</svg>
