<svg xmlns="http://www.w3.org/2000/svg" xml:space="preserve" width="72px" height="72px" viewBox="0 0 72 72">
    <path fill="currentColor" d="M53.315 60.769h-1.388c-.433.186-.397.55-.369.9-.313.5-.737.82-1.31.949-.158.036-.352.109-.437.229-.392.549-1.012.715-1.581.887-.559.166-1.003.639-1.547.677-.814.057-1.475.452-2.193.724-.062.023-.104.098-.146.141-.41.141-.856-.141-1.243.158-.343.265-.867-.141-1.17.302-1.289-.012-2.499.674-4.036.347-.493-.191-.944-.744-1.289-1.404-.347.346-.347.346-.405.747l-.743.743c-.692 0-1.44.005-2.189-.004-.167-.002-.326.017-.505-.082-.554-.306-1.188-.273-1.793-.378-.931-.159-1.924-.056-2.788-.55-.301-.174-.728.104-.962-.282-.564.137-1.01-.21-1.43-.451-.989-.566-2.122-.823-3.113-1.485h-.838l-.547-.643v-1.066H19.58c-.746-.548-1.381-1.167-2.2-1.561-.397-.19-.802-.559-.985-.947-.177-.378-.516-.565-.71-.914v-1.148l-2.519-.892c-.271-.902-.892-1.645-1.129-2.607.051-.101.129-.248.201-.396.015-.029.009-.069.016-.134.633-.172 1.132-.666 1.834-.77.199-.029.448-.196.677-.151.48.094.921-.128 1.279-.308.441-.22.919-.241 1.331-.439.496-.24.985.007 1.54-.215.699-.516 1.482-.495 2.34.091.54-.168 1.066.302 1.626.22.542-.312.628-.966 1.144-1.287.768.022 1.474-.493 2.266-.436.818.059 1.576-.262 2.395-.265.813-.004 1.5.431 2.248.473.336-.458-.078-.771-.147-1.116-.17-.851-.231-.838.004-1.781.025-.1.021-.209.025-.313.019-.425-.077-.898.083-1.261.188-.43-.062-.944.167-1.214.312-.366-.041-.886.399-1.144-.152-.748.247-1.431.234-2.178-.024-1.555.297-3.097.218-4.662-.021-.414.211-.839.323-1.259.131-.492.407-.961.299-1.493-.076-.375.334-.6.237-.996-.071-.29-.087-.637.201-.876-.01-.07-.009-.141-.029-.206-.199-.637-.568-1.215-.742-1.849a4.43 4.43 0 0 1 .011-2.3c.053-.201.12-.4.103-.597-.034-.388-.425-.728-.108-1.167.274-.38.08-.83.11-1.247.031-.429-.114-.91.033-1.285.272-.695.141-1.388.189-2.08.031-.439-.092-.833-.438-1.11-.397-.318-.49-.813-.766-1.196-.172-.239-.123-.498-.079-.717.247-1.252.301-1.264-.03-2.192-.159-.444-.199-.871-.198-1.321 0-.468-.052-.943.014-1.401.069-.48-.217-.864-.241-1.315-.032-.603.207-1.172.198-1.746-.009-.636.347-1.091.545-1.649h1.127c.314.396.319.842.303 1.299-.026.764.151 1.492.387 2.213.063.194.02.421.044.631.08.703.446 1.093 1.166 1.24.455-.591.295-1.361.53-1.845l1.177-1.176c.246.026.314.383.604.501-.197.832.387 1.578.156 2.379l.569.531c.464-.147.78-.476.98-1.087 0-.525-.007-1.208.001-1.891.008-.62.525-1.118.419-1.845l.724-.576c.349-.089.521.343.801.59 0 1.729.018 3.457-.01 5.184-.012.691.099 1.38-.17 2.084-.139.362-.188.894.126 1.326.14.193.143.53.006.705-.319.404-.315 1.007-.817 1.239 0 .408.052.777-.012 1.125-.104.583.263 1.077.234 1.641-.027.538-.132 1.12.025 1.608.203.63.127 1.245.195 1.863.047.439.211.852.225 1.314.037 1.169-.308 2.209-.815 3.235-.194.394-.594.836-.103 1.322.056.056.054.208.03.304-.147.612.103 1.192.258 1.736.149.524.16 1.024.177 1.541.016.483-.069.983.219 1.421.27.408.21.867.214 1.314.005.433.025.866-.004 1.296-.052.741.001 1.483.243 2.171.183.518.213 1.021.188 1.537-.037.704.126 1.367.372 2.009.083.218.063.417.06.618-.012.697-.007 1.383.379 2.007.112.182.051.372-.023.587-.164.466-.456.92-.313 1.534.53-.094.907-.439 1.498-.654.462.082 1.113-.208 1.696.2.048.034.142-.001.213.005.421.035.83-.461 1.186-.188.379.289.755.09 1.123.217l.294.293.001 1.315c.522.243.999.05 1.456-.189.122-.064.252-.105.362-.165.535-.286 1.015-.714 1.682-.632.617.075 1.277-.21 1.854.213 1.19.086 2.318.395 3.432.836.434.172.991.028 1.414.028 1.059.649 2.123.948 3.303.855l.303.336c.086.637.009 1.286-.285 2.049-.326.469-1.184.619-1.486 1.443-.504.437-1.39.353-1.894 1.067.194.429-.281.791-.206 1.242-.574.729-1.322 1.225-2.122 1.642-.628.325-.95 1.028-1.73 1.3m-22.074-6.156c.136-.426-.256-.7-.258-1.103-.001-.277-.359-.315-.854-.117.231.596.762 1.031.939 1.688-.332.881-1.301 1.185-1.756 1.96v.392c.154.097.209.31.513.313.311-.502.857-.094 1.306-.238.558-.398 1.23-.501 1.842-.714v-.711c-.671-.311-1.13-.9-1.732-1.47m11.684 2.507c-.191-.587-.565-.919-1.104-1.111-.38-.136-.742-.325-.963-.645-1.018.065-1.554.445-1.821 1.328.733-.221 1.337.359 1.927.198.6.217.997.622 1.606.647.098-.112.209-.243.355-.417m-5.582-.079-1.272-1.213c-.337.395-.694.847-.425 1.434.156.338.256.861.691.73zm4.284-4.43c-.426.226-.426.226-.339.81.386.055.672-.05.785-.552zm10.939 3.672c-.458-.035-.733-.135-.979.105.267.008.53.141.979-.105"/>
</svg>
