<?xml version="1.0" encoding="iso-8859-1"?>
<!-- Generator: Adobe Illustrator 16.0.0, SVG Export Plug-In . SVG Version: 6.00 Build 0)  -->
<!DOCTYPE svg PUBLIC "-//W3C//DTD SVG 1.1//EN" "http://www.w3.org/Graphics/SVG/1.1/DTD/svg11.dtd">
<svg version="1.1" id="Layer_1" xmlns="http://www.w3.org/2000/svg" xmlns:xlink="http://www.w3.org/1999/xlink" x="0px" y="0px"
	 width="72.36px" height="71.459px" viewBox="0 0 72.36 71.459" style="enable-background:new 0 0 72.36 71.459;"
	 xml:space="preserve">
<g>
	
	<path fill="currentColor" d="M54.207,40.221c-0.097,0.097-0.173,0.173-0.247,0.247
		c0.132,0.844,1.141,0.846,1.521,1.888c0.053,0.376-0.413,0.987-0.575,1.668c-0.047,0.197-0.186,0.472-0.086,0.576
		c0.361,0.386,0.087,0.828,0.234,1.294c0.213,0.215,0.171,0.772,0.729,0.781c0.123,0.311,0.324,0.573,0.316,0.954
		c-0.029,1.511-0.013,3.023-0.013,4.459c0.292,0.566,0.552,1.073,0.852,1.656c0.002,0.643,0.125,1.317,0.639,1.917
		c0.184,0.215,0.396,0.591,0.113,1.165c-0.191,0.191-0.572,0.52-0.891,0.899c-0.555,0.663-1.284,0.979-2.076,1.257
		c-0.783,0.274-1.637,0.434-2.243,1.063c-0.459,0.057-0.834-0.443-1.314-0.156c-0.11,0.235,0.063,0.596-0.411,0.771
		c-0.27,0-0.656,0-0.998,0c-0.448,0.381-0.509,0.995-1.003,1.164c-0.035,0.932-0.555,1.433-1.269,1.657
		c-0.608,0.191-1.19,0.439-1.771,0.682c-0.683,0.285-1.326,0.303-2.01-0.023c-0.171,0.152-0.35,0.313-0.53,0.474
		c-0.326-0.17-0.621-0.322-0.967-0.502c-0.426,0.307-0.481,1.021-1.147,1.085c-1.069-0.113-2.119,0.337-3.224,0.266
		c-1.075-0.069-2.158-0.015-3.175-0.015c-0.434-0.23-0.819-0.436-1.272-0.676c-0.259,0.257-0.616,0.325-1.016,0.192
		c-0.47-0.533-0.745-1.199-1.096-1.783c-0.351-0.231-0.731-0.007-1.092-0.18c0-0.296,0-0.609,0-0.859
		c-0.322-0.386-0.502-0.742-0.451-1.189c0.024-0.215-0.147-0.411-0.166-0.569c-0.058-0.479-0.489-0.863-0.264-1.397
		c-0.532,1.635-0.532,1.635,0.209,2.896c0,0.274,0,0.561,0,0.939c0.202,0.162,0.452,0.363,0.649,0.521
		c0.033,0.538-0.176,0.882-0.488,1.199c-0.292,0.021-0.567,0.114-0.882-0.108c-0.198-0.139-0.548-0.062-0.86-0.083
		c-0.61-0.441-1.404-0.518-2.099-0.841c-0.089-0.042-0.251,0.033-0.312-0.021c-0.854-0.766-2.02-0.869-2.986-1.413
		c-0.524-0.295-0.996-0.602-1.401-1.02c-0.193-0.87,0.13-1.596,0.522-2.353c0.492-0.947,1.028-1.829,1.753-2.631
		c0.533-0.589,0.971-1.254,1.689-1.646c0.332-0.182,0.327-0.602,0.606-0.832c0.439-0.363,0.737-0.861,1.201-1.219
		c0.462-0.357,0.898-0.735,1.435-0.98c0.315-0.144,0.279-0.552,0.533-0.764c0-0.346,0-0.704,0-0.98
		c0.435-0.888,0.954-1.663,0.857-2.65c0.521-0.678,1.252-0.8,2.092-0.773c0.441-0.989,0.462-1.961-0.142-3.018
		c0-0.257,0-0.616,0-0.941c0.455-0.666,0.498-1.573,1.293-1.935c0-0.335,0-0.622,0-0.897c0.223-0.302,0.602-0.485,0.728-0.979
		c-0.596,0.18-0.741,0.722-1.232,0.884c-0.403,0.134-0.686,0.554-1.057,0.817c-0.76,0.542-1.635,0.759-2.469,1.094
		c-0.093,0.037-0.258,0.052-0.315-0.002c-0.355-0.334-0.806-0.14-1.161-0.229c-0.608-0.397-1.237-0.701-1.69-1.238
		c-0.321-0.381-0.829-0.444-1.215-0.739c-0.36-0.274-0.704-0.559-1.041-0.86c-0.711-0.635-1.363-1.3-1.922-2.094
		c-0.552-0.783-1.287-1.469-2.047-2.063c-0.885-0.692-1.468-1.617-2.183-2.44c-0.382-0.44-0.371-1.071-0.703-1.55
		c-0.453-0.109-0.82,0.399-1.271,0.182c-0.408,0.407-0.79,0.789-1.177,1.177c-0.024,0.266-0.073,0.519-0.247,0.755
		c-0.954,1.298-1.891,2.608-2.719,3.755C9.71,36.563,8.34,37.004,7.302,35.2c0-0.353,0-0.883,0-1.389
		c0.427-0.63,0.887-1.227,1.256-1.876c0.403-0.709,1.036-1.18,1.637-1.664c0.416-0.335,1.031-0.486,1.309-0.951
		c0.279-0.468,0.77-0.638,1.097-1.027c0.292-0.347,0.338-0.881,0.823-1.074c0.215,0,0.43,0,0.706,0
		c0.079-0.368,0.188-0.73-0.18-1.001c0.393-0.939,0.88-1.735,1.575-2.441c0.399-0.406,0.635-1.029,0.799-1.596
		c0.165-0.571,0.374-1.019,0.996-1.181c0.502-0.102,0.956,0.037,1.451,0.274c0.395,0.189,0.876,0.372,1.424,0.314
		c0.079-0.708,0.637-1.105,1.039-1.528c0.345-1.198,0.977-2.091,2.024-2.637c0-0.179,0-0.322,0-0.53
		c-0.885-0.269-1.301-1.165-2.093-1.646c-0.766-0.466-1.216-1.298-1.61-2.141c0.237-0.798,0.783-1.427,1.247-2.07
		c0.361-0.5,0.717-1.028,1.178-1.474c0.408-0.394,0.833-0.802,1.313-1.026c0.996-0.463,1.875-1.155,2.973-1.432
		c0.55-0.138,1.028-0.558,1.604-0.398c0.721,0.544,1.204,1.248,1.722,1.913c0.5,0.641,0.888,1.371,1.394,2.007
		c0.512,0.644,0.833,1.382,1.161,2.135c0.526-0.069,1.032,0.122,1.469-0.237c0.239,0.125,0.465,0.312,0.766,0.22
		c0.351,0.352,0.466,1.025,0.093,1.384c-0.645,0.621-0.898,1.628-2.152,1.86c0.825,0.431,1.274,0.926,1.438,1.559
		c0.186,0.716,0.491,1.391,0.559,2.162c0.051,0.577,0.173,1.161,0.167,1.75c-0.006,0.709-0.75,1.715-1.417,1.86
		c-0.487,0.106-0.952-0.113-1.373-0.318c-0.604-0.294-1.284-0.489-1.721-1.059c-0.137-0.178-0.379-0.237-0.531-0.276
		c-0.579-0.15-0.945-0.554-1.273-0.876c-0.646-0.212-1.123,0.123-1.495,0.407c-0.561,0.429-1.197,0.601-1.785,0.856
		c-0.762,1.181-1.77,2.014-3.127,2.42c0,0.865,0,1.724,0,2.642c0.462,0.557,0.729,1.303,1.233,1.911
		c0.534,0.645,1.236,0.978,1.991,1.202c0.636,0.189,1.235,0.42,1.661,0.935c0.296,0.358,0.807,0.389,1.05,0.871
		c0.428-0.817,1.206-1.353,1.175-2.311c0.63-0.994,1.243-2.001,2.337-2.58c0.545-0.289,1.148-0.56,1.487-1.076
		c0.696-1.06,1.717-1.865,2.258-3.055c0.219-0.481,0.889-0.741,1.388-0.729c1.208,0.028,2.372-0.462,3.469-0.237
		c0.485-0.485,0.907-0.907,1.343-1.342c-0.342-0.675-0.666-1.432-0.602-2.266c0.025-0.324-0.176-0.512-0.238-0.774
		c-0.137-0.58,0.131-1.107,0.256-1.631c0.098-0.408,0.241-0.812,0.162-1.211c-0.063-0.316,0.396-0.373,0.203-0.664
		c0.624-0.387,1.415-0.387,1.896-0.979c1.024-0.224,1.997-0.84,3.071-0.613c0.438,0.093,0.932,0.116,1.346,0.39
		c0.508,0.337,1.098,0.553,1.521,1.011c0.33,0.356,0.67,0.69,0.945,1.112c0.357,0.548,1.087,0.762,1.487,1.316
		c0.516-0.015,0.502,0.499,0.766,0.788c0,0.318,0,0.674,0,1.055c-0.242,0.25-0.423,0.644-0.869,0.563
		c-0.343,0.344-0.669,0.672-1.053,1.059c0,0.107,0,0.321,0,0.545c0.403,0.571,1.33,0.563,1.584,1.371
		c0.637,0.293,1.328,0.554,1.959,0.919c0.715,0.414,1.466,0.051,2.227,0.258c0.558,0.321,1.166,0.679,1.783,1.02
		c0.082,0.045,0.212,0.006,0.327,0.006c0.639,0.671,1.407,1.253,1.713,2.407c0.279,0.269,0.697,0.662,1.105,1.065
		c0.346,0.343,0.67,0.695,0.933,1.122c0.338,0.549,0.643,1.118,1.082,1.618c0.334,0.381,0.364,0.98,0.636,1.457
		c0.257,0.453,0.39,1.009,0.44,1.533c0.028,0.298,0.137,0.533,0.252,0.768c0.277,0.563,0.502,1.137,0.415,1.768
		c-0.071,0.513,0.098,1.006,0.318,1.38c0.542,0.917,0.364,1.765,0.016,2.646c-0.062,0.155-0.146,0.3-0.235,0.48
		c-0.767,0.489-1.664,0.678-2.558,0.795c-0.412,0.055-0.763,0.329-1.205,0.249c-0.415-0.076-0.813,0.049-1.209,0.195
		c-0.131,0.048-0.244,0.094-0.363,0.171c-0.776,0.506-1.427,0.274-1.982-0.374c-0.529-0.006-1.055,0.052-1.542-0.211
		c-0.082-0.044-0.215,0.017-0.284-0.095C55.181,40.505,54.702,40.378,54.207,40.221z M49.171,37.799
		c0.104,0.211,0.206,0.419,0.31,0.629c0.188-0.022,0.42,0.148,0.559-0.116c0.049-0.273-0.207-0.349-0.323-0.513
		c-0.182,0-0.361,0-0.434,0c-0.29-0.205-0.521-0.367-0.75-0.529c-0.342-0.091-0.784-0.113-1.197-0.336
		c-0.763-0.412-1.52-0.834-2.3-1.21c-0.446-0.215-0.921-0.402-1.403-0.505c-1.051-0.225-1.358-0.538-1.367-1.561
		c-0.006-0.706-0.001-1.412-0.001-2.153c-0.584,0.307-0.668,0.905-1.077,1.227c0,0.506,0,1.008,0,1.573
		c0.605,0.233,0.635,1.036,1.236,1.334c0.684,0.044,0.684,0.044,1.672,0.644c0.728,0.008,0.717,0.032,1.465,0.365
		c0.237,0.105,0.497,0.21,0.731,0.313c0.637,0.279,1.343,0.413,1.948,0.838C48.53,37.799,48.853,37.799,49.171,37.799z
		 M45.504,21.472c0-0.553,0-1.126,0-1.709c-0.273-0.186-0.389-0.582-0.845-0.55c-0.376,0.027-0.485-0.697-0.966-0.391
		c-0.269,0.248-0.531,0.49-0.789,0.727c0.009,0.534,0.373,0.995,0.21,1.494c0.514,0.345,1.108,0.38,1.583,0.713
		C44.974,21.948,45.231,21.816,45.504,21.472z M34.201,50.229c0.553,0.194,0.914,0.482,1.346,0.232c0-0.162,0-0.331,0-0.491
		c-0.122-0.106-0.218-0.215-0.336-0.288c-0.629-0.391-1.254-0.727-1.676-1.43c-0.268-0.448-0.577-0.951-1.019-1.309
		c-0.08-0.065-0.105-0.097-0.156,0.003c-0.076,0.076-0.152,0.152-0.229,0.229c0.486,0.797,0.972,1.595,1.511,2.479
		c0,0.572,0,1.244,0,1.907c0.176,0.1,0.237,0.314,0.567,0.258c0.048-0.067,0.148-0.209,0.261-0.367
		C34.636,51.098,34.336,50.779,34.201,50.229z M34.502,34.36c-0.103,0.689,0.37,1.217,0.12,1.996
		c-0.029,0.02-0.208,0.138-0.362,0.24c0.058,0.289-0.09,0.551,0.139,0.799c0.17-0.187,0.479-0.369,0.479-0.549
		c-0.005-0.715,0.554-0.888,1.042-1.184c0.416-0.107,0.91,0.086,1.429-0.132c-0.459-0.216-0.898-0.009-1.437-0.202
		c-0.259-0.26-0.609-0.61-0.966-0.968C34.839,34.36,34.701,34.36,34.502,34.36z M43.569,49.583c0.167,0.182,0.374,0.096,0.575,0.053
		c0.165-0.126,0.256-0.345,0.521-0.395c0.254,0.269,0.604,0.235,0.959,0.217c0.219-0.258,0.472-0.476,0.622-0.817
		c0.171-0.385,0.327-0.838,0.88-0.93c0.173-0.028,0.301-0.295,0.464-0.435c0.084-0.071,0.099-0.105-0.034-0.172
		c-0.107,0-0.247,0-0.499,0c-0.213,0.259-0.484,0.587-0.646,0.782c-0.912,0.105-1.243,0.88-1.945,1.018
		C44.105,48.975,43.799,49.262,43.569,49.583z M29.742,15.958c-0.511-0.617-0.037-1.41-0.307-2.163
		c-0.793,0.852-0.709,1.954-1.03,2.93c0.127,0.105,0.237,0.196,0.313,0.259C29.02,16.681,29.34,16.361,29.742,15.958z M44.615,60.37
		c-0.441,0.503-0.623,1.047-1.086,1.309c-0.385,0.218-0.595,0.486-0.631,0.946c0.248,0.288,0.181,0.878,0.841,0.882
		c0-0.489,0-0.945,0-1.219c0.254-0.619,0.574-0.976,0.909-1.272C44.638,60.821,44.631,60.683,44.615,60.37z M45.556,25.272
		c-0.684,0-1.285-0.003-1.888,0.007c-0.037,0-0.072,0.106-0.121,0.183c0.09,0.315,0.372,0.475,0.62,0.706
		C44.715,26.077,45.312,26.077,45.556,25.272z M52.848,39.463c-0.633-0.352-0.633-0.352-1.04-0.22
		c0.246,0.291,0.579,0.419,0.872,0.512C52.86,39.674,52.847,39.567,52.848,39.463z M45.823,15.11
		c-0.135,0.189-0.197,0.326,0.061,0.425C45.944,15.399,45.988,15.281,45.823,15.11z M55.548,33.479c0.101-0.071,0.101-0.143,0-0.214
		C55.447,33.336,55.447,33.408,55.548,33.479z"/>
	<path fill="currentColor" d="M31.575,10.368c-0.278,0.026-0.392-0.08-0.297-0.348
		c0.074-0.13,0.192-0.069,0.291-0.085C31.732,10.078,31.729,10.222,31.575,10.368z"/>
	
	
	
	
	
	
	
	
	
	
	
	
</g>
</svg>
