<?xml version="1.0" encoding="iso-8859-1"?>
<!-- Generator: Adobe Illustrator 16.0.0, SVG Export Plug-In . SVG Version: 6.00 Build 0)  -->
<!DOCTYPE svg PUBLIC "-//W3C//DTD SVG 1.1//EN" "http://www.w3.org/Graphics/SVG/1.1/DTD/svg11.dtd">
<svg version="1.1" id="Layer_1" xmlns="http://www.w3.org/2000/svg" xmlns:xlink="http://www.w3.org/1999/xlink" x="0px" y="0px"
	 width="72.36px" height="71.459px" viewBox="0 0 72.36 71.459" style="enable-background:new 0 0 72.36 71.459;"
	 xml:space="preserve">
<g>
	
	<path fill="currentColor" d="M35.458,34.778c-0.081,0.081-0.124,0.15-0.185,0.179
		c-0.09,0.042-0.193,0.055-0.307,0.084c-0.427,1.353-1.588,2.321-2.039,3.669c-0.27,0.631-0.907,0.792-1.442,1.071
		c0.208,0.697,0.911,1.046,1.072,1.705c-0.205,0.489-0.715,0.571-1.064,0.92c0.321,0.558,0.599,1.158,0.986,1.676
		c0.377,0.504,0.481,1.039,0.501,1.635c0.051,1.511,0.216,3.007,0.794,4.422c0.089,0.219,0.057,0.416,0.061,0.62
		c0.014,0.756,0.005,1.512,0.005,2.181c-0.604,1.459-2.227,1.736-3.019,2.949c0.055,0.446-0.384,0.856-0.227,1.376
		c0.14,0.461-0.284,0.836-0.226,1.314c0.059,0.479-0.025,0.975,0.25,1.348c-0.201,0.754-0.651,1.179-1.338,1.431
		c-0.238-0.135-0.5-0.284-0.704-0.4c-0.236-0.277-0.215-0.617-0.118-0.763c0.404-0.606,0.288-1.305,0.146-1.854
		c-0.175-0.675-0.107-1.32-0.163-1.976c-0.021-0.25-0.003-0.502-0.003-0.58c0.544-1.372,1.313-2.438,1.883-3.369
		c0.108-0.416-0.053-0.522-0.131-0.675c-0.678-1.311-0.702-1.314-0.657-2.96c0.018-0.657-0.101-1.306,0.124-1.991
		c0.205-0.625,0.489-1.122,0.922-1.515c0.156-0.394-0.2-0.607-0.224-0.925c-0.536-0.042-1.051-0.688-1.681,0.189
		c-0.002,0.493-0.341,1.073-0.736,1.704c-0.967,1.543-2.104,2.983-2.916,4.618c-0.131,0.265-0.324,0.439-0.471,0.667
		c-0.62,0.96-1.179,1.955-1.747,2.945c-0.283,0.494-0.761,0.88-0.933,1.452c-0.213,0.709-0.629,1.278-1.142,1.799
		c-0.212,0.215-0.354,0.5-0.517,0.737c-0.585,0.169-1.136,0.401-1.772,0.264c-0.562-0.283-1.157-0.583-1.817-0.915
		c-0.035-0.069-0.107-0.22-0.186-0.367c-0.177-0.332-0.441-0.677-0.296-1.053c0.179-0.464,0.209-1.019,0.596-1.369
		c0.885-0.803,1.471-1.827,2.124-2.798c0.881-1.312,1.767-2.628,2.437-4.065c0.168-0.36,0.478-0.58,0.692-0.892
		c0.539-0.786,0.861-1.728,1.614-2.363c0.175-0.147,0.019-0.344,0.152-0.582c0.506-0.395,0.881-1.03,1.2-1.669
		c0.253-0.507,0.591-0.828,1.078-1.048c-0.039-0.525-0.039-0.525-0.808-1.295c0-0.286,0-0.6,0-0.913
		c0.126-0.524,0.564-0.739,1.015-0.961c0-0.474,0-0.933,0-1.355c0.14-0.138,0.242-0.239,0.3-0.297
		c0.864-0.289,1.62,0.252,2.46,0.146c0.365-0.587,0.439-1.307,0.693-1.956c0.257-0.656,0.81-1.015,1.158-1.564
		c0.394-0.619,0.689-1.228,0.832-1.933c0.019-0.092,0.118-0.167,0.183-0.255c-0.133-0.19-0.276-0.424-0.563-0.328
		c-0.454,0.152-0.786-0.212-1.207-0.241c-0.75-0.051-1.432,0.386-2.18,0.235c-0.461,0.418-1.024,0.117-1.558,0.242
		c-0.58,0.552-1.439,0.602-2.133,1.025c-1.042,0.636-2.167,1.104-3.08,1.977c-0.474,0.453-1.012,0.86-1.488,1.325
		c-0.309,0.302-0.585,0.645-0.925,0.905c-0.288,0.22-0.646,0.348-1.031,0.546c-0.114-0.151-0.258-0.344-0.498-0.664
		c-0.118-0.624,0.094-1.389,0.356-2.137c0.149-0.424,0.102-0.852,0.063-1.262c-0.107-1.129,0.398-1.884,1.375-2.32
		c0.345-0.154,0.546-0.41,0.849-0.638c-0.224-0.435-0.438-0.85-0.698-1.355c0-0.252-0.144-0.726,0.031-0.942
		c0.322-0.398,0.002-0.863,0.268-1.193c0.153-0.191,0.116-0.489,0.4-0.619c0.402-0.068,0.784-0.293,1.249-0.312
		c0.435-0.018,0.77,0.337,1.273,0.202c-0.465-0.806-0.87-1.629-0.669-2.627c0.352-0.351,0.715-0.692,1.053-1.057
		c0.366-0.394,0.271-0.907,0.279-1.199c0.276-0.957,1.253-1.242,1.31-2.137c0.311-0.127,0.858-0.018,0.83-0.472
		c-0.056-0.899,0.55-1.281,1.142-1.67c0.3-0.197,0.646-0.416,1.206-0.246c0.236,0.213,0.56,0.603,1.135,0.589
		c0.217,0.002,0.3-0.213,0.458-0.404c-0.362-0.401-0.224-0.908-0.248-1.387c0.442-0.544,0.781-1.17,1.395-1.625
		c0.866-0.188,1.748-0.458,2.319-1.308c0.322,0,0.636,0,0.923,0c0.193,0.176,0.379,0.345,0.543,0.495c0,0.463,0,0.894,0,1.316
		c-0.326,0.315-0.352,0.714-0.446,1.125c-0.388,1.694-0.104,3.402-0.192,5.099c-0.012,0.24,0.118,0.465,0.168,0.679
		c0.216,0.929,0.646,1.832,0.465,2.788c0.482,0.713,1.016,1.336,1.346,2.068c0.196,0,0.338,0,0.492,0
		c0.145-0.44,0.526-0.707,0.869-1.07c0.278,0,0.593,0,0.907,0c0.347-1.088-0.722-1.499-1.008-2.391c0-0.304,0-0.735,0-1.225
		c0.805-0.252,1.149-1.152,1.95-1.471c0.595-0.966,1.662-1.405,2.455-2.162c0.821-0.784,1.678-1.629,2.805-2.042
		c0.031-0.011,0.063-0.034,0.083-0.06c0.809-1.045,2.17-1.444,2.9-2.506c0.356-0.072,0.617-0.017,0.805,0.3c0,0.325,0,0.681,0,1.055
		c-0.418,0.513-0.817,1.06-0.848,1.784c-0.005,0.106-0.041,0.189-0.092,0.287c-0.345,0.65-0.731,1.289-0.773,2.055
		c-0.713,0.64-0.618,1.712-1.271,2.402c-0.08,0.083-0.204,0.326-0.253,0.533c-0.155,0.655-0.31,1.305-0.823,1.827
		c-0.209,0.212-0.195,0.629-0.328,0.934c-0.358,0.826-0.95,1.496-1.475,2.176c-1.243,0.021-1.243,0.021-1.66,0.314
		c0,0.378,0,0.764,0,1.129c0.176,0.156,0.284,0.315,0.554,0.311c1.367-0.023,2.735-0.011,4.104-0.011c0.107,0,0.24,0.042,0.32-0.006
		c1.034-0.619,2.175-0.379,3.28-0.427c0.174-0.008,0.381,0.024,0.514-0.059c0.856-0.535,1.844-0.78,2.718-1.258
		c0.324-0.177,0.63-0.364,0.981-0.503c0.54-0.213,1.042-0.51,1.44-0.97c0.244-0.281,0.472-0.595,0.888-0.716
		c0.205-0.06,0.45-0.321,0.493-0.529c0.075-0.376,0.444-0.441,0.531-0.712c0.771,0.019,1.239-0.671,1.944-0.671
		c0.115,0.111,0.218,0.208,0.354,0.339c0,0.756-0.014,1.543,0.007,2.33c0.008,0.301-0.122,0.63,0.175,0.905
		c0.097,0.09,0.082,0.332-0.019,0.496c-0.054,0.086-0.159,0.174-0.155,0.256c0.044,0.772-0.31,1.472-0.397,2.202
		c-0.07,0.588-0.522,0.873-0.665,1.587c0.181,0.902-0.501,1.918-0.48,3.022c0.457,0.368,0.795,0.807,1.301,1.102
		c0.708,0.413,1.105,1.187,1.583,1.824c0.495,0.661,1.121,1.171,1.656,1.839c0,0.269,0,0.582,0,0.914
		c-1.056,0.511-2.17,0.227-3.248,0.244c-0.556,0.01-1.101-0.267-1.631-0.614c-0.373,0-0.802,0-1.281,0
		c-0.317,0.522-1.016,0.664-1.373,1.188c0,0.441,0,0.871,0,1.256c0.389,0.641,0.845,1.202,0.859,1.962
		c0.001,0.026,0.042,0.054,0.065,0.079c0.528,0.586,0.742,1.353,1.122,2.022c0.4,0.708,1.075,1.12,1.584,1.805
		c0,0.237,0,0.552,0,0.912c-0.413,0.213-0.776,0.812-1.393,0.27c-1.29,0.148-2.344-0.596-3.493-0.961
		c-0.382-0.121-0.783-0.112-1.172-0.296c-0.405-0.191-0.811-0.338-1.116-0.658c-0.252,0-0.494,0-0.722,0
		c-0.356,0.398-0.375,0.888-0.559,1.426c-0.533,0.248-0.563,1.086-1.242,1.36c-0.468,0.188-0.927,0.386-1.43,0.46
		c-0.139,0.192-0.044,0.412-0.08,0.671c0.334,0.509,0.908,0.748,1.478,1.109c0.455,1.449,1.688,2.322,2.849,3.225
		c0,0.32,0,0.608,0,0.93c-0.232,0.095-0.472,0.261-0.725,0.282c-0.977,0.086-1.948,0.022-2.833-0.441
		c-0.192-0.101-0.349-0.193-0.569-0.198c-0.859-0.021-1.694-0.178-2.525-0.411c-0.367-0.103-0.871-0.159-1.165,0.014
		c-0.526,0.31-1.042,0.086-1.544,0.204c-0.166-0.158-0.319-0.305-0.471-0.447c-0.146,0-0.289,0-0.431,0
		c-0.036,0.061-0.093,0.116-0.099,0.177c-0.015,0.143-0.018,0.289-0.003,0.432c0.107,1.059-0.469,1.697-1.341,2.122
		c-0.688,0.335-1.4,0.616-2.154,0.943c-0.248-0.121-0.437-0.365-0.661-0.645c0.404-0.948,0.702-1.927,1.21-2.851
		c0.356-0.648,0.712-1.412,0.567-2.156c0.406-0.771,0.651-1.497,0.65-2.302c-0.001-0.589,0.055-1.164,0.176-1.754
		c0.11-0.532,0.239-1.05,0.386-1.573c0.17-0.61,0.18-1.261-0.02-1.87c-0.055-0.166-0.126-0.323-0.108-0.491
		c0.157-1.516-0.466-2.913-0.666-4.374c-0.096-0.703-1.086-2.709-1.663-3.405C36.062,35.964,35.997,35.27,35.458,34.778z
		 M57.836,36.2c-0.28-0.28-0.524-0.542-0.788-0.783c-0.254-0.231-0.435-0.557-0.76-0.665c-0.37,0.188-0.484,0.448-0.388,0.836
		c0.515,0.395,1.195,0.602,1.657,1.125c0.021,0.025,0.125-0.022,0.192-0.036C57.877,36.562,57.789,36.41,57.836,36.2z M52.01,43.503
		c0.278,0.643,0.901,0.882,1.451,1.203c0.092,0.054,0.195-0.023,0.282-0.186c-0.31-0.387-0.347-0.967-0.795-1.321
		c-0.213,0-0.426,0-0.644,0C52.209,43.298,52.11,43.4,52.01,43.503z M30.752,39.053c-0.364-0.371-0.195-1.159-0.897-1.263
		c-0.195,0.183-0.082,0.372-0.124,0.557C30.052,38.587,30.251,38.993,30.752,39.053z M46.476,52.488
		c-0.197-0.414-0.197-0.414-0.656-0.64C45.782,52.392,45.782,52.409,46.476,52.488z"/>
	
	
	
	
</g>
</svg>
