<svg xmlns="http://www.w3.org/2000/svg" xml:space="preserve" width="72px" height="72px" viewBox="0 0 72 72">
    <path fill="currentColor" d="M35.458 34.778c-.081.081-.124.15-.185.179-.09.042-.193.055-.307.084-.427 1.353-1.588 2.321-2.039 3.669-.27.631-.907.792-1.442 1.071.208.697.911 1.046 1.072 1.705-.205.489-.715.571-1.064.92.321.558.599 1.158.986 1.676.377.504.481 1.039.501 1.635.051 1.511.216 3.007.794 4.422.089.219.057.416.061.62.014.756.005 1.512.005 2.181-.604 1.459-2.227 1.736-3.019 2.949.055.446-.384.856-.227 1.376.14.461-.284.836-.226 1.314.059.479-.025.975.25 1.348-.201.754-.651 1.179-1.338 1.431l-.704-.4c-.236-.277-.215-.617-.118-.763.404-.606.288-1.305.146-1.854-.175-.675-.107-1.32-.163-1.976-.021-.25-.003-.502-.003-.58.544-1.372 1.313-2.438 1.883-3.369.108-.416-.053-.522-.131-.675-.678-1.311-.702-1.314-.657-2.96.018-.657-.101-1.306.124-1.991.205-.625.489-1.122.922-1.515.156-.394-.2-.607-.224-.925-.536-.042-1.051-.688-1.681.189-.002.493-.341 1.073-.736 1.704-.967 1.543-2.104 2.983-2.916 4.618-.131.265-.324.439-.471.667-.62.96-1.179 1.955-1.747 2.945-.283.494-.761.88-.933 1.452-.213.709-.629 1.278-1.142 1.799-.212.215-.354.5-.517.737-.585.169-1.136.401-1.772.264l-1.817-.915c-.035-.069-.107-.22-.186-.367-.177-.332-.441-.677-.296-1.053.179-.464.209-1.019.596-1.369.885-.803 1.471-1.827 2.124-2.798.881-1.312 1.767-2.628 2.437-4.065.168-.36.478-.58.692-.892.539-.786.861-1.728 1.614-2.363.175-.147.019-.344.152-.582.506-.395.881-1.03 1.2-1.669.253-.507.591-.828 1.078-1.048-.039-.525-.039-.525-.808-1.295v-.913c.126-.524.564-.739 1.015-.961V37.08l.3-.297c.864-.289 1.62.252 2.46.146.365-.587.439-1.307.693-1.956.257-.656.81-1.015 1.158-1.564.394-.619.689-1.228.832-1.933.019-.092.118-.167.183-.255-.133-.19-.276-.424-.563-.328-.454.152-.786-.212-1.207-.241-.75-.051-1.432.386-2.18.235-.461.418-1.024.117-1.558.242-.58.552-1.439.602-2.133 1.025-1.042.636-2.167 1.104-3.08 1.977-.474.453-1.012.86-1.488 1.325-.309.302-.585.645-.925.905-.288.22-.646.348-1.031.546l-.498-.664c-.118-.624.094-1.389.356-2.137.149-.424.102-.852.063-1.262-.107-1.129.398-1.884 1.375-2.32.345-.154.546-.41.849-.638l-.698-1.355c0-.252-.144-.726.031-.942.322-.398.002-.863.268-1.193.153-.191.116-.489.4-.619.402-.068.784-.293 1.249-.312.435-.018.77.337 1.273.202-.465-.806-.87-1.629-.669-2.627.352-.351.715-.692 1.053-1.057.366-.394.271-.907.279-1.199.276-.957 1.253-1.242 1.31-2.137.311-.127.858-.018.83-.472-.056-.899.55-1.281 1.142-1.67.3-.197.646-.416 1.206-.246.236.213.56.603 1.135.589.217.002.3-.213.458-.404-.362-.401-.224-.908-.248-1.387.442-.544.781-1.17 1.395-1.625.866-.188 1.748-.458 2.319-1.308h.923l.543.495v1.316c-.326.315-.352.714-.446 1.125-.388 1.694-.104 3.402-.192 5.099-.012.24.118.465.168.679.216.929.646 1.832.465 2.788.482.713 1.016 1.336 1.346 2.068h.492c.145-.44.526-.707.869-1.07h.907c.347-1.088-.722-1.499-1.008-2.391v-1.225c.805-.252 1.149-1.152 1.95-1.471.595-.966 1.662-1.405 2.455-2.162.821-.784 1.678-1.629 2.805-2.042a.2.2 0 0 0 .083-.06c.809-1.045 2.17-1.444 2.9-2.506.356-.072.617-.017.805.3v1.055c-.418.513-.817 1.06-.848 1.784a.7.7 0 0 1-.092.287c-.345.65-.731 1.289-.773 2.055-.713.64-.618 1.712-1.271 2.402-.08.083-.204.326-.253.533-.155.655-.31 1.305-.823 1.827-.209.212-.195.629-.328.934-.358.826-.95 1.496-1.475 2.176-1.243.021-1.243.021-1.66.314v1.129c.176.156.284.315.554.311 1.367-.023 2.735-.011 4.104-.011.107 0 .24.042.32-.006 1.034-.619 2.175-.379 3.28-.427.174-.008.381.024.514-.059.856-.535 1.844-.78 2.718-1.258.324-.177.63-.364.981-.503.54-.213 1.042-.51 1.44-.97.244-.281.472-.595.888-.716.205-.06.45-.321.493-.529.075-.376.444-.441.531-.712.771.019 1.239-.671 1.944-.671l.354.339c0 .756-.014 1.543.007 2.33.008.301-.122.63.175.905.097.09.082.332-.019.496-.054.086-.159.174-.155.256.044.772-.31 1.472-.397 2.202-.07.588-.522.873-.665 1.587.181.902-.501 1.918-.48 3.022.457.368.795.807 1.301 1.102.708.413 1.105 1.187 1.583 1.824.495.661 1.121 1.171 1.656 1.839v.914c-1.056.511-2.17.227-3.248.244-.556.01-1.101-.267-1.631-.614h-1.281c-.317.522-1.016.664-1.373 1.188v1.256c.389.641.845 1.202.859 1.962.001.026.042.054.065.079.528.586.742 1.353 1.122 2.022.4.708 1.075 1.12 1.584 1.805v.912c-.413.213-.776.812-1.393.27-1.29.148-2.344-.596-3.493-.961-.382-.121-.783-.112-1.172-.296-.405-.191-.811-.338-1.116-.658h-.722c-.356.398-.375.888-.559 1.426-.533.248-.563 1.086-1.242 1.36-.468.188-.927.386-1.43.46-.139.192-.044.412-.08.671.334.509.908.748 1.478 1.109.455 1.449 1.688 2.322 2.849 3.225v.93c-.232.095-.472.261-.725.282-.977.086-1.948.022-2.833-.441-.192-.101-.349-.193-.569-.198-.859-.021-1.694-.178-2.525-.411-.367-.103-.871-.159-1.165.014-.526.31-1.042.086-1.544.204-.166-.158-.319-.305-.471-.447h-.431c-.036.061-.093.116-.099.177a2 2 0 0 0-.003.432c.107 1.059-.469 1.697-1.341 2.122-.688.335-1.4.616-2.154.943-.248-.121-.437-.365-.661-.645.404-.948.702-1.927 1.21-2.851.356-.648.712-1.412.567-2.156.406-.771.651-1.497.65-2.302a8.6 8.6 0 0 1 .176-1.754c.11-.532.239-1.05.386-1.573a3.2 3.2 0 0 0-.02-1.87c-.055-.166-.126-.323-.108-.491.157-1.516-.466-2.913-.666-4.374-.096-.703-1.086-2.709-1.663-3.405-.415-.51-.48-1.204-1.019-1.696M57.836 36.2c-.28-.28-.524-.542-.788-.783-.254-.231-.435-.557-.76-.665-.37.188-.484.448-.388.836.515.395 1.195.602 1.657 1.125.021.025.125-.022.192-.036.128-.115.04-.267.087-.477m-5.826 7.303c.278.643.901.882 1.451 1.203.092.054.195-.023.282-.186-.31-.387-.347-.967-.795-1.321h-.644zm-21.258-4.45c-.364-.371-.195-1.159-.897-1.263-.195.183-.082.372-.124.557.321.24.52.646 1.021.706m15.724 13.435c-.197-.414-.197-.414-.656-.64-.038.544-.038.561.656.64"/>
</svg>
