<?xml version="1.0" encoding="iso-8859-1"?>
<!-- Generator: Adobe Illustrator 16.0.0, SVG Export Plug-In . SVG Version: 6.00 Build 0)  -->
<!DOCTYPE svg PUBLIC "-//W3C//DTD SVG 1.1//EN" "http://www.w3.org/Graphics/SVG/1.1/DTD/svg11.dtd">
<svg version="1.1" id="Layer_1" xmlns="http://www.w3.org/2000/svg" xmlns:xlink="http://www.w3.org/1999/xlink" x="0px" y="0px"
	 width="72.36px" height="71.459px" viewBox="0 0 72.36 71.459" style="enable-background:new 0 0 72.36 71.459;"
	 xml:space="preserve">
<g>
	<path style="fill-rule:evenodd;clip-rule:evenodd;fill:none;" d="M79.416,78.839c-28.8,0-57.6,0-86.399,0
		c0-28.584,0-57.167,0-85.751c28.8,0,57.6,0,86.399,0C79.416,21.672,79.416,50.255,79.416,78.839z M35.458,34.778
		c0.539,0.492,0.604,1.187,1.025,1.694c0.577,0.696,1.567,2.702,1.663,3.405c0.2,1.461,0.823,2.858,0.666,4.374
		c-0.018,0.168,0.054,0.325,0.108,0.491c0.199,0.609,0.189,1.26,0.02,1.87c-0.146,0.523-0.275,1.041-0.386,1.573
		c-0.121,0.59-0.177,1.165-0.176,1.754c0.001,0.805-0.244,1.531-0.65,2.302c0.145,0.744-0.211,1.508-0.567,2.156
		c-0.508,0.924-0.806,1.902-1.21,2.851c0.224,0.279,0.413,0.523,0.661,0.645c0.753-0.327,1.466-0.608,2.154-0.943
		c0.872-0.425,1.448-1.063,1.341-2.122c-0.015-0.143-0.012-0.289,0.003-0.432c0.006-0.061,0.063-0.116,0.099-0.177
		c0.142,0,0.284,0,0.431,0c0.151,0.143,0.305,0.289,0.471,0.447c0.502-0.118,1.018,0.105,1.544-0.204
		c0.294-0.173,0.798-0.116,1.165-0.014c0.831,0.233,1.666,0.39,2.525,0.411c0.221,0.005,0.377,0.098,0.569,0.198
		c0.885,0.464,1.856,0.527,2.833,0.441c0.253-0.021,0.492-0.188,0.725-0.282c0-0.321,0-0.609,0-0.93
		c-1.161-0.902-2.394-1.775-2.849-3.225c-0.569-0.361-1.144-0.601-1.478-1.109c0.036-0.259-0.059-0.479,0.08-0.671
		c0.503-0.074,0.962-0.271,1.43-0.46c0.68-0.274,0.709-1.112,1.242-1.36c0.184-0.538,0.202-1.027,0.559-1.426
		c0.228,0,0.47,0,0.722,0c0.306,0.32,0.711,0.467,1.116,0.658c0.389,0.184,0.79,0.175,1.172,0.296
		c1.149,0.365,2.203,1.109,3.493,0.961c0.616,0.542,0.979-0.057,1.393-0.27c0-0.36,0-0.675,0-0.912
		c-0.509-0.685-1.184-1.097-1.584-1.805c-0.38-0.67-0.594-1.437-1.122-2.022c-0.023-0.025-0.064-0.053-0.065-0.079
		c-0.015-0.76-0.471-1.321-0.859-1.962c0-0.385,0-0.814,0-1.256c0.357-0.524,1.056-0.666,1.373-1.188c0.479,0,0.908,0,1.281,0
		c0.53,0.348,1.075,0.624,1.631,0.614c1.078-0.018,2.192,0.267,3.248-0.244c0-0.332,0-0.646,0-0.914
		c-0.535-0.668-1.161-1.178-1.656-1.839c-0.478-0.637-0.875-1.411-1.583-1.824c-0.506-0.295-0.844-0.734-1.301-1.102
		c-0.021-1.104,0.661-2.12,0.48-3.022c0.143-0.714,0.595-1,0.665-1.587c0.088-0.73,0.441-1.43,0.397-2.202
		c-0.004-0.083,0.102-0.17,0.155-0.256c0.101-0.164,0.115-0.406,0.019-0.496c-0.297-0.275-0.167-0.604-0.175-0.905
		c-0.021-0.787-0.007-1.574-0.007-2.33c-0.137-0.13-0.239-0.228-0.354-0.339c-0.705,0-1.173,0.69-1.944,0.671
		c-0.087,0.271-0.456,0.336-0.531,0.712c-0.043,0.208-0.288,0.469-0.493,0.529c-0.416,0.122-0.644,0.436-0.888,0.716
		c-0.398,0.46-0.9,0.756-1.44,0.97c-0.352,0.139-0.657,0.326-0.981,0.503c-0.874,0.478-1.861,0.724-2.718,1.258
		c-0.133,0.083-0.34,0.051-0.514,0.059c-1.105,0.047-2.246-0.192-3.28,0.427c-0.08,0.048-0.213,0.006-0.32,0.006
		c-1.368,0-2.736-0.013-4.104,0.011c-0.27,0.005-0.378-0.155-0.554-0.311c0-0.366,0-0.751,0-1.129
		c0.417-0.292,0.417-0.292,1.66-0.314c0.524-0.68,1.116-1.35,1.475-2.176c0.133-0.305,0.119-0.722,0.328-0.934
		c0.514-0.521,0.668-1.171,0.823-1.827c0.049-0.207,0.173-0.449,0.253-0.533c0.653-0.689,0.559-1.762,1.271-2.402
		c0.042-0.766,0.429-1.404,0.773-2.055c0.051-0.098,0.087-0.181,0.092-0.287c0.03-0.724,0.43-1.271,0.848-1.784
		c0-0.374,0-0.73,0-1.055c-0.188-0.317-0.448-0.372-0.805-0.3c-0.73,1.063-2.092,1.461-2.9,2.506
		c-0.021,0.026-0.052,0.049-0.083,0.06c-1.127,0.413-1.983,1.257-2.805,2.042c-0.793,0.757-1.86,1.196-2.455,2.162
		c-0.801,0.319-1.146,1.219-1.95,1.471c0,0.49,0,0.921,0,1.225c0.286,0.892,1.354,1.303,1.008,2.391c-0.314,0-0.629,0-0.907,0
		c-0.343,0.363-0.724,0.63-0.869,1.07c-0.154,0-0.296,0-0.492,0c-0.33-0.732-0.863-1.355-1.346-2.068
		c0.181-0.956-0.249-1.859-0.465-2.788c-0.05-0.213-0.18-0.439-0.168-0.679c0.089-1.697-0.196-3.405,0.192-5.099
		c0.094-0.411,0.121-0.811,0.446-1.125c0-0.422,0-0.853,0-1.316c-0.165-0.15-0.35-0.318-0.543-0.495c-0.287,0-0.601,0-0.923,0
		c-0.571,0.849-1.453,1.12-2.319,1.308c-0.614,0.456-0.953,1.082-1.395,1.625c0.024,0.479-0.114,0.985,0.248,1.387
		c-0.158,0.191-0.242,0.406-0.458,0.404c-0.575,0.014-0.898-0.375-1.135-0.589c-0.56-0.169-0.906,0.049-1.206,0.246
		c-0.592,0.389-1.198,0.771-1.142,1.67c0.028,0.455-0.519,0.345-0.83,0.472c-0.057,0.895-1.034,1.18-1.31,2.137
		c-0.008,0.292,0.087,0.805-0.279,1.199c-0.338,0.365-0.701,0.706-1.053,1.057c-0.201,0.998,0.204,1.821,0.669,2.627
		c-0.503,0.135-0.838-0.22-1.273-0.202c-0.465,0.019-0.847,0.244-1.249,0.312c-0.284,0.13-0.247,0.427-0.4,0.619
		c-0.265,0.33,0.054,0.795-0.268,1.193c-0.175,0.216-0.031,0.69-0.031,0.942c0.26,0.505,0.474,0.921,0.698,1.355
		c-0.302,0.228-0.503,0.483-0.849,0.638c-0.977,0.436-1.482,1.19-1.375,2.32c0.039,0.411,0.086,0.838-0.063,1.262
		c-0.262,0.748-0.474,1.513-0.356,2.137c0.239,0.32,0.384,0.513,0.498,0.664c0.385-0.198,0.743-0.326,1.031-0.546
		c0.34-0.26,0.616-0.604,0.925-0.905c0.477-0.465,1.015-0.873,1.488-1.325c0.913-0.872,2.038-1.341,3.08-1.977
		c0.693-0.424,1.553-0.474,2.133-1.025c0.533-0.125,1.096,0.177,1.558-0.242c0.748,0.151,1.43-0.286,2.18-0.235
		c0.421,0.029,0.753,0.394,1.207,0.241c0.288-0.097,0.431,0.138,0.563,0.328c-0.065,0.087-0.165,0.163-0.183,0.255
		c-0.143,0.706-0.438,1.314-0.832,1.933c-0.349,0.549-0.901,0.909-1.158,1.564c-0.254,0.649-0.329,1.369-0.693,1.956
		c-0.84,0.105-1.597-0.436-2.46-0.146c-0.058,0.058-0.161,0.159-0.3,0.297c0,0.423,0,0.882,0,1.355
		c-0.451,0.222-0.889,0.437-1.015,0.961c0,0.313,0,0.627,0,0.913c0.77,0.77,0.77,0.77,0.808,1.295
		c-0.487,0.22-0.825,0.541-1.078,1.048c-0.318,0.639-0.694,1.274-1.2,1.669c-0.133,0.238,0.023,0.435-0.152,0.582
		c-0.753,0.636-1.075,1.577-1.614,2.363c-0.214,0.312-0.524,0.531-0.692,0.892c-0.669,1.438-1.555,2.754-2.437,4.065
		c-0.653,0.971-1.239,1.995-2.124,2.798c-0.387,0.351-0.417,0.905-0.596,1.369c-0.145,0.376,0.119,0.721,0.296,1.053
		c0.079,0.147,0.151,0.298,0.186,0.367c0.661,0.332,1.256,0.632,1.817,0.915c0.636,0.138,1.187-0.095,1.772-0.264
		c0.163-0.237,0.305-0.522,0.517-0.737c0.513-0.521,0.928-1.09,1.142-1.799c0.172-0.572,0.65-0.958,0.933-1.452
		c0.568-0.99,1.127-1.985,1.747-2.945c0.147-0.228,0.339-0.402,0.471-0.667c0.812-1.635,1.948-3.075,2.916-4.618
		c0.396-0.631,0.734-1.211,0.736-1.704c0.63-0.878,1.145-0.231,1.681-0.189c0.024,0.317,0.38,0.531,0.224,0.925
		c-0.434,0.393-0.718,0.89-0.922,1.515c-0.225,0.686-0.105,1.334-0.124,1.991c-0.045,1.646-0.021,1.649,0.657,2.96
		c0.079,0.152,0.24,0.259,0.131,0.675c-0.57,0.932-1.339,1.997-1.883,3.369c0,0.078-0.018,0.33,0.003,0.58
		c0.055,0.655-0.012,1.301,0.163,1.976c0.143,0.55,0.258,1.248-0.146,1.854c-0.097,0.146-0.118,0.485,0.118,0.763
		c0.204,0.116,0.466,0.266,0.704,0.4c0.687-0.252,1.137-0.677,1.338-1.431c-0.275-0.373-0.192-0.869-0.25-1.348
		c-0.058-0.479,0.366-0.854,0.226-1.314c-0.157-0.52,0.282-0.93,0.227-1.376c0.792-1.213,2.415-1.49,3.019-2.949
		c0-0.669,0.008-1.425-0.005-2.181c-0.004-0.204,0.029-0.401-0.061-0.62c-0.578-1.415-0.743-2.911-0.794-4.422
		c-0.02-0.596-0.124-1.131-0.501-1.635c-0.387-0.518-0.665-1.118-0.986-1.676c0.349-0.349,0.859-0.431,1.064-0.92
		c-0.161-0.659-0.863-1.008-1.072-1.705c0.535-0.279,1.173-0.44,1.442-1.071c0.451-1.349,1.612-2.316,2.039-3.669
		c0.114-0.03,0.217-0.042,0.307-0.084C35.334,34.928,35.377,34.859,35.458,34.778z M61.5,32.09c0.607,0.45,0.779,0.437,1.296-0.105
		c-0.22-0.281-0.217-0.718-0.605-0.876c-0.334-0.062-0.548,0.089-0.69,0.335C61.5,31.675,61.5,31.887,61.5,32.09z M22.652,57.191
		c0.254,0.085,0.517,0.08,0.728,0.016c0.308-0.222,0.377-0.464,0.263-0.782c-0.254-0.085-0.517-0.08-0.728-0.016
		C22.608,56.63,22.539,56.873,22.652,57.191z"/>
	<path style="fill-rule:evenodd;clip-rule:evenodd;" d="M35.458,34.778c-0.081,0.081-0.124,0.15-0.185,0.179
		c-0.09,0.042-0.193,0.055-0.307,0.084c-0.427,1.353-1.588,2.321-2.039,3.669c-0.27,0.631-0.907,0.792-1.442,1.071
		c0.208,0.697,0.911,1.046,1.072,1.705c-0.205,0.489-0.715,0.571-1.064,0.92c0.321,0.558,0.599,1.158,0.986,1.676
		c0.377,0.504,0.481,1.039,0.501,1.635c0.051,1.511,0.216,3.007,0.794,4.422c0.089,0.219,0.057,0.416,0.061,0.62
		c0.014,0.756,0.005,1.512,0.005,2.181c-0.604,1.459-2.227,1.736-3.019,2.949c0.055,0.446-0.384,0.856-0.227,1.376
		c0.14,0.461-0.284,0.836-0.226,1.314c0.059,0.479-0.025,0.975,0.25,1.348c-0.201,0.754-0.651,1.179-1.338,1.431
		c-0.238-0.135-0.5-0.284-0.704-0.4c-0.236-0.277-0.215-0.617-0.118-0.763c0.404-0.606,0.288-1.305,0.146-1.854
		c-0.175-0.675-0.107-1.32-0.163-1.976c-0.021-0.25-0.003-0.502-0.003-0.58c0.544-1.372,1.313-2.438,1.883-3.369
		c0.108-0.416-0.053-0.522-0.131-0.675c-0.678-1.311-0.702-1.314-0.657-2.96c0.018-0.657-0.101-1.306,0.124-1.991
		c0.205-0.625,0.489-1.122,0.922-1.515c0.156-0.394-0.2-0.607-0.224-0.925c-0.536-0.042-1.051-0.688-1.681,0.189
		c-0.002,0.493-0.341,1.073-0.736,1.704c-0.967,1.543-2.104,2.983-2.916,4.618c-0.131,0.265-0.324,0.439-0.471,0.667
		c-0.62,0.96-1.179,1.955-1.747,2.945c-0.283,0.494-0.761,0.88-0.933,1.452c-0.213,0.709-0.629,1.278-1.142,1.799
		c-0.212,0.215-0.354,0.5-0.517,0.737c-0.585,0.169-1.136,0.401-1.772,0.264c-0.562-0.283-1.157-0.583-1.817-0.915
		c-0.035-0.069-0.107-0.22-0.186-0.367c-0.177-0.332-0.441-0.677-0.296-1.053c0.179-0.464,0.209-1.019,0.596-1.369
		c0.885-0.803,1.471-1.827,2.124-2.798c0.881-1.312,1.767-2.628,2.437-4.065c0.168-0.36,0.478-0.58,0.692-0.892
		c0.539-0.786,0.861-1.728,1.614-2.363c0.175-0.147,0.019-0.344,0.152-0.582c0.506-0.395,0.881-1.03,1.2-1.669
		c0.253-0.507,0.591-0.828,1.078-1.048c-0.039-0.525-0.039-0.525-0.808-1.295c0-0.286,0-0.6,0-0.913
		c0.126-0.524,0.564-0.739,1.015-0.961c0-0.474,0-0.933,0-1.355c0.14-0.138,0.242-0.239,0.3-0.297
		c0.864-0.289,1.62,0.252,2.46,0.146c0.365-0.587,0.439-1.307,0.693-1.956c0.257-0.656,0.81-1.015,1.158-1.564
		c0.394-0.619,0.689-1.228,0.832-1.933c0.019-0.092,0.118-0.167,0.183-0.255c-0.133-0.19-0.276-0.424-0.563-0.328
		c-0.454,0.152-0.786-0.212-1.207-0.241c-0.75-0.051-1.432,0.386-2.18,0.235c-0.461,0.418-1.024,0.117-1.558,0.242
		c-0.58,0.552-1.439,0.602-2.133,1.025c-1.042,0.636-2.167,1.104-3.08,1.977c-0.474,0.453-1.012,0.86-1.488,1.325
		c-0.309,0.302-0.585,0.645-0.925,0.905c-0.288,0.22-0.646,0.348-1.031,0.546c-0.114-0.151-0.258-0.344-0.498-0.664
		c-0.118-0.624,0.094-1.389,0.356-2.137c0.149-0.424,0.102-0.852,0.063-1.262c-0.107-1.129,0.398-1.884,1.375-2.32
		c0.345-0.154,0.546-0.41,0.849-0.638c-0.224-0.435-0.438-0.85-0.698-1.355c0-0.252-0.144-0.726,0.031-0.942
		c0.322-0.398,0.002-0.863,0.268-1.193c0.153-0.191,0.116-0.489,0.4-0.619c0.402-0.068,0.784-0.293,1.249-0.312
		c0.435-0.018,0.77,0.337,1.273,0.202c-0.465-0.806-0.87-1.629-0.669-2.627c0.352-0.351,0.715-0.692,1.053-1.057
		c0.366-0.394,0.271-0.907,0.279-1.199c0.276-0.957,1.253-1.242,1.31-2.137c0.311-0.127,0.858-0.018,0.83-0.472
		c-0.056-0.899,0.55-1.281,1.142-1.67c0.3-0.197,0.646-0.416,1.206-0.246c0.236,0.213,0.56,0.603,1.135,0.589
		c0.217,0.002,0.3-0.213,0.458-0.404c-0.362-0.401-0.224-0.908-0.248-1.387c0.442-0.544,0.781-1.17,1.395-1.625
		c0.866-0.188,1.748-0.458,2.319-1.308c0.322,0,0.636,0,0.923,0c0.193,0.176,0.379,0.345,0.543,0.495c0,0.463,0,0.894,0,1.316
		c-0.326,0.315-0.352,0.714-0.446,1.125c-0.388,1.694-0.104,3.402-0.192,5.099c-0.012,0.24,0.118,0.465,0.168,0.679
		c0.216,0.929,0.646,1.832,0.465,2.788c0.482,0.713,1.016,1.336,1.346,2.068c0.196,0,0.338,0,0.492,0
		c0.145-0.44,0.526-0.707,0.869-1.07c0.278,0,0.593,0,0.907,0c0.347-1.088-0.722-1.499-1.008-2.391c0-0.304,0-0.735,0-1.225
		c0.805-0.252,1.149-1.152,1.95-1.471c0.595-0.966,1.662-1.405,2.455-2.162c0.821-0.784,1.678-1.629,2.805-2.042
		c0.031-0.011,0.063-0.034,0.083-0.06c0.809-1.045,2.17-1.444,2.9-2.506c0.356-0.072,0.617-0.017,0.805,0.3c0,0.325,0,0.681,0,1.055
		c-0.418,0.513-0.817,1.06-0.848,1.784c-0.005,0.106-0.041,0.189-0.092,0.287c-0.345,0.65-0.731,1.289-0.773,2.055
		c-0.713,0.64-0.618,1.712-1.271,2.402c-0.08,0.083-0.204,0.326-0.253,0.533c-0.155,0.655-0.31,1.305-0.823,1.827
		c-0.209,0.212-0.195,0.629-0.328,0.934c-0.358,0.826-0.95,1.496-1.475,2.176c-1.243,0.021-1.243,0.021-1.66,0.314
		c0,0.378,0,0.764,0,1.129c0.176,0.156,0.284,0.315,0.554,0.311c1.367-0.023,2.735-0.011,4.104-0.011c0.107,0,0.24,0.042,0.32-0.006
		c1.034-0.619,2.175-0.379,3.28-0.427c0.174-0.008,0.381,0.024,0.514-0.059c0.856-0.535,1.844-0.78,2.718-1.258
		c0.324-0.177,0.63-0.364,0.981-0.503c0.54-0.213,1.042-0.51,1.44-0.97c0.244-0.281,0.472-0.595,0.888-0.716
		c0.205-0.06,0.45-0.321,0.493-0.529c0.075-0.376,0.444-0.441,0.531-0.712c0.771,0.019,1.239-0.671,1.944-0.671
		c0.115,0.111,0.218,0.208,0.354,0.339c0,0.756-0.014,1.543,0.007,2.33c0.008,0.301-0.122,0.63,0.175,0.905
		c0.097,0.09,0.082,0.332-0.019,0.496c-0.054,0.086-0.159,0.174-0.155,0.256c0.044,0.772-0.31,1.472-0.397,2.202
		c-0.07,0.588-0.522,0.873-0.665,1.587c0.181,0.902-0.501,1.918-0.48,3.022c0.457,0.368,0.795,0.807,1.301,1.102
		c0.708,0.413,1.105,1.187,1.583,1.824c0.495,0.661,1.121,1.171,1.656,1.839c0,0.269,0,0.582,0,0.914
		c-1.056,0.511-2.17,0.227-3.248,0.244c-0.556,0.01-1.101-0.267-1.631-0.614c-0.373,0-0.802,0-1.281,0
		c-0.317,0.522-1.016,0.664-1.373,1.188c0,0.441,0,0.871,0,1.256c0.389,0.641,0.845,1.202,0.859,1.962
		c0.001,0.026,0.042,0.054,0.065,0.079c0.528,0.586,0.742,1.353,1.122,2.022c0.4,0.708,1.075,1.12,1.584,1.805
		c0,0.237,0,0.552,0,0.912c-0.413,0.213-0.776,0.812-1.393,0.27c-1.29,0.148-2.344-0.596-3.493-0.961
		c-0.382-0.121-0.783-0.112-1.172-0.296c-0.405-0.191-0.811-0.338-1.116-0.658c-0.252,0-0.494,0-0.722,0
		c-0.356,0.398-0.375,0.888-0.559,1.426c-0.533,0.248-0.563,1.086-1.242,1.36c-0.468,0.188-0.927,0.386-1.43,0.46
		c-0.139,0.192-0.044,0.412-0.08,0.671c0.334,0.509,0.908,0.748,1.478,1.109c0.455,1.449,1.688,2.322,2.849,3.225
		c0,0.32,0,0.608,0,0.93c-0.232,0.095-0.472,0.261-0.725,0.282c-0.977,0.086-1.948,0.022-2.833-0.441
		c-0.192-0.101-0.349-0.193-0.569-0.198c-0.859-0.021-1.694-0.178-2.525-0.411c-0.367-0.103-0.871-0.159-1.165,0.014
		c-0.526,0.31-1.042,0.086-1.544,0.204c-0.166-0.158-0.319-0.305-0.471-0.447c-0.146,0-0.289,0-0.431,0
		c-0.036,0.061-0.093,0.116-0.099,0.177c-0.015,0.143-0.018,0.289-0.003,0.432c0.107,1.059-0.469,1.697-1.341,2.122
		c-0.688,0.335-1.4,0.616-2.154,0.943c-0.248-0.121-0.437-0.365-0.661-0.645c0.404-0.948,0.702-1.927,1.21-2.851
		c0.356-0.648,0.712-1.412,0.567-2.156c0.406-0.771,0.651-1.497,0.65-2.302c-0.001-0.589,0.055-1.164,0.176-1.754
		c0.11-0.532,0.239-1.05,0.386-1.573c0.17-0.61,0.18-1.261-0.02-1.87c-0.055-0.166-0.126-0.323-0.108-0.491
		c0.157-1.516-0.466-2.913-0.666-4.374c-0.096-0.703-1.086-2.709-1.663-3.405C36.062,35.964,35.997,35.27,35.458,34.778z
		 M57.836,36.2c-0.28-0.28-0.524-0.542-0.788-0.783c-0.254-0.231-0.435-0.557-0.76-0.665c-0.37,0.188-0.484,0.448-0.388,0.836
		c0.515,0.395,1.195,0.602,1.657,1.125c0.021,0.025,0.125-0.022,0.192-0.036C57.877,36.562,57.789,36.41,57.836,36.2z M52.01,43.503
		c0.278,0.643,0.901,0.882,1.451,1.203c0.092,0.054,0.195-0.023,0.282-0.186c-0.31-0.387-0.347-0.967-0.795-1.321
		c-0.213,0-0.426,0-0.644,0C52.209,43.298,52.11,43.4,52.01,43.503z M30.752,39.053c-0.364-0.371-0.195-1.159-0.897-1.263
		c-0.195,0.183-0.082,0.372-0.124,0.557C30.052,38.587,30.251,38.993,30.752,39.053z M46.476,52.488
		c-0.197-0.414-0.197-0.414-0.656-0.64C45.782,52.392,45.782,52.409,46.476,52.488z"/>
	<path style="fill-rule:evenodd;clip-rule:evenodd;fill:none;" d="M57.836,36.2c-0.048,0.209,0.041,0.362-0.086,0.478
		c-0.067,0.014-0.171,0.062-0.192,0.036c-0.462-0.523-1.143-0.731-1.657-1.125c-0.097-0.389,0.018-0.648,0.388-0.836
		c0.325,0.108,0.506,0.434,0.76,0.665C57.312,35.658,57.556,35.92,57.836,36.2z"/>
	<path style="fill-rule:evenodd;clip-rule:evenodd;fill:none;" d="M52.01,43.503c0.1-0.104,0.199-0.205,0.295-0.304
		c0.218,0,0.431,0,0.644,0c0.448,0.354,0.485,0.935,0.795,1.321c-0.087,0.162-0.19,0.239-0.282,0.186
		C52.912,44.385,52.289,44.146,52.01,43.503z"/>
	<path style="fill-rule:evenodd;clip-rule:evenodd;fill:none;" d="M30.752,39.053c-0.5-0.061-0.7-0.466-1.021-0.706
		c0.042-0.185-0.071-0.374,0.124-0.557C30.557,37.894,30.388,38.682,30.752,39.053z"/>
	<path style="fill-rule:evenodd;clip-rule:evenodd;fill:none;" d="M46.476,52.488c-0.694-0.079-0.694-0.096-0.656-0.64
		C46.279,52.074,46.279,52.074,46.476,52.488z"/>
</g>
</svg>
