<?xml version="1.0" encoding="iso-8859-1"?>
<!-- Generator: Adobe Illustrator 16.0.0, SVG Export Plug-In . SVG Version: 6.00 Build 0)  -->
<!DOCTYPE svg PUBLIC "-//W3C//DTD SVG 1.1//EN" "http://www.w3.org/Graphics/SVG/1.1/DTD/svg11.dtd">
<svg version="1.1" id="Layer_1" xmlns="http://www.w3.org/2000/svg" xmlns:xlink="http://www.w3.org/1999/xlink" x="0px" y="0px"
	 width="72.36px" height="71.459px" viewBox="0 0 72.36 71.459" style="enable-background:new 0 0 72.36 71.459;"
	 xml:space="preserve">
<g>
	<path style="fill-rule:evenodd;clip-rule:evenodd;fill:none;" d="M-6.984,78.839c0-28.584,0-57.167,0-85.751
		c28.8,0,57.6,0,86.399,0c0,28.584,0,57.167,0,85.751C50.616,78.839,21.816,78.839-6.984,78.839z M46.616,65.015
		c0.138,0,0.487,0.107,0.699-0.019c0.838-0.495,1.752-0.825,2.603-1.283c0.33-0.177,0.639-0.339,1.004-0.454
		c0.396-0.125,0.8-0.298,1.18-0.555c0.419-0.283,0.697-0.792,1.242-0.883c0.636-0.105,0.996-0.594,1.427-0.992
		c0.477-0.442,0.958-0.824,1.625-1.035c0.593-0.188,1.226-0.525,1.585-1.108c0.829-1.347,2.029-2.382,2.99-3.617
		c0.286-0.366,0.655-0.667,0.986-0.998c0.327-0.326,0.323-0.805,0.543-1.177c0.063-0.106,0.018-0.237,0.074-0.291
		c0.391-0.368,0.578-0.812,0.702-1.337c0.111-0.476,0.433-0.89,0.624-1.357c0.264-0.642,0.377-1.362,0.854-1.92
		c0-0.79,0-1.575,0-2.236c0.24-0.521,0.732-0.564,0.982-0.857c0.172-0.506,0.375-0.987,0.462-1.458
		c0.082-0.449-0.085-1.005-0.504-1.314c-0.28-0.01-0.45,0.102-0.64,0.174c-0.411,0.155-0.686,0.536-1.171,0.577
		c-0.532,0.045-0.948,0.312-0.979,0.949c-0.007,0.151-0.142,0.298-0.224,0.457c-0.39,0-0.785-0.021-1.178,0.005
		c-0.605,0.038-1.227,0.213-1.5,0.759c-0.32,0.64-0.861,1.035-1.343,1.481c-0.352,0.326-0.87,0.601-1.375,0.155
		c-0.365,0.227-0.828,0.259-1.137,0.644c-0.292,0.365-0.392,0.918-0.925,1.064c-0.146-0.03-0.302,0.059-0.41-0.089
		c-0.083-0.629,0.773-0.89,0.609-1.551c-0.102-0.102-0.203-0.204-0.271-0.272c-0.636,0-1.238,0-1.802,0
		c-0.112,0.113-0.188,0.189-0.269,0.269c-0.103,0.919,0.021,1.732,1.07,2.171c-0.215,0.278,0.24,0.321,0.217,0.61
		c-0.057,0.703,0.396,1.234,0.893,1.546c0.65,0.407,0.877,1.144,1.474,1.554c0.037,0.696,0.685,0.871,1.084,1.263
		c0.023,0.764-0.523,1.172-0.986,1.622c-0.411,0.029-0.569-0.15-0.771-0.523c-0.678-1.249-1.522-2.377-2.691-2.689
		c-0.947-0.96-1.29-1.927-1.646-2.916c-0.195-0.545-0.35-1.153-0.694-1.62c-0.554-0.093-0.658-0.585-0.93-0.922
		c-0.27-0.335-0.599-0.622-0.91-0.922c-0.327-0.316-0.622-0.647-0.677-1.106c0.308-0.688,0.223-1.432,0.439-2.114
		c0.028-0.087-0.004-0.21-0.046-0.3c-0.217-0.466-0.304-0.957-0.414-1.455c-0.121-0.55-0.097-1.014-0.01-1.563
		c0.103-0.647,0.261-1.258,0.479-1.865c-0.275-0.494-0.931-0.427-1.274-0.885c0-0.208,0-0.45,0-0.738
		c0.34-0.324,0.702-0.671,0.998-0.954c0.112-0.237-0.014-0.419,0.145-0.581c0.226-0.229,0.219-0.604,0.078-0.779
		c-0.247-0.306-0.127-0.61-0.162-0.912c-0.06-0.512,0.126-1.049-0.207-1.539c-0.084-0.123-0.089-0.42,0.001-0.52
		c0.341-0.378,0.191-0.814,0.194-1.218c0.016-2.556,0.008-5.112,0.008-7.677c-0.342-0.375-0.796-0.681-0.863-1.252
		c0.347-0.755,0.331-1.248-0.234-1.768c-0.499-0.46-0.811-1.059-1.285-1.527c-0.253-0.249-0.432-0.536-0.424-0.904
		c0.01-0.402-0.111-0.765-0.424-1.007c-0.241-0.188-0.378-0.5-0.409-0.692c-0.171-1.045-0.844-1.9-0.963-2.877
		c-0.486-0.438-1.068-0.425-1.621-0.785c0.076,0.521-0.333,0.209-0.467,0.45c-0.052,0.47,0.034,0.926,0.427,1.286
		c0,0.362,0,0.722,0,1.078c-0.08,0.113-0.245,0.168-0.216,0.346c0.165,0.295,0.356,0.581,0.522,0.867
		c0.278,0.482,0.711,1.053,0.509,1.583c-0.151,0.396-0.101,0.744-0.174,1.106c0.514,0.314,0.442,0.914,0.711,1.338
		c0.306,0.482,0.986,0.542,1.24,1.088c-0.088,0.853,0.342,1.5,0.819,2.088c-0.304,0.588-0.224,1.143,0.056,1.679
		c-0.053,0.071-0.124,0.123-0.129,0.182c-0.104,1.072-0.32,2.154,0.191,3.188c0.044,0.089,0.143,0.135,0.146,0.266
		c0.027,0.941-0.019,1.861-0.43,2.74c-0.289,0.62-0.531,1.265-0.442,1.978c0.007,0.06-0.037,0.127-0.057,0.19
		c-0.19,0.247-0.475,0.33-0.748,0.435c-0.075-0.233-0.324-0.114-0.488-0.278c0-0.639,0.003-1.317-0.001-1.996
		c-0.002-0.211,0.031-0.444-0.044-0.629c-0.409-1.012-0.154-1.951,0.25-2.854c-0.217-0.726-0.441-1.426-0.633-2.136
		c-0.167-0.619-0.379-1.232-0.022-1.882c0.095-0.174,0.054-0.474-0.04-0.721c-0.242-0.644-0.432-1.301-0.377-2.005
		c0.021-0.287,0.038-0.581-0.004-0.863c-0.079-0.531-0.176-1.164-0.574-1.453c-0.344-0.25-0.594-0.58-0.979-0.809
		c0.241-0.575,0.34-1.149,0.235-1.746c-0.25-0.199-0.346-0.514-0.511-0.766c-0.532-0.807-1.119-1.604-1.393-2.547
		c-0.16-0.551-0.479-1.033-0.607-1.584c-0.09-0.382-0.345-0.697-0.638-0.767c-0.415-0.098-0.427-0.408-0.579-0.656
		c-0.142-0.231-0.196-0.523-0.494-0.687c-0.201,0.091-0.465-0.083-0.759,0.151c0.206,0.371-0.168,0.838,0.223,1.271
		c0.126,0.14,0.122,0.534,0.017,0.722c-0.298,0.538-0.155,1.098-0.206,1.669c0.97,0.61,0.819,1.812,1.377,2.652
		c0.344,0.519,0.033,1.114,0.166,1.678c0.589,0.824,1.31,1.616,1.023,2.747c0.314,0.315,0.595,0.595,0.897,0.897
		c0,0.478,0.052,0.985-0.014,1.478c-0.072,0.547,0.089,1.067,0.267,1.518c0.191,0.482,0.28,0.982,0.363,1.461
		c0.092,0.537,0.425,1.044,0.271,1.479c0.224,0.614,0.726,1.047,0.201,1.617c-0.065,1.099-0.51,2.148-0.436,3.242
		c0.404,0.696,0.404,0.696,0.303,1.194c-0.266,0.045-0.356-0.193-0.523-0.322c0-0.246-0.01-0.498,0.005-0.748
		c0.008-0.135-0.108-0.175-0.146-0.265c-0.313-0.735-0.723-1.451-0.883-2.219c-0.106-0.512-0.498-0.886-0.495-1.426
		c0.004-0.766-0.014-1.521-0.17-2.294c-0.16-0.797,0.029-1.665-0.47-2.405c0.048-0.873-0.089-1.692-0.391-2.536
		c-0.193-0.543-0.387-1.012-0.807-1.395c-0.213,0-0.428,0-0.642,0c-0.18-0.181-0.358-0.359-0.613-0.614
		c0.882,0.018,1.41-0.374,1.589-1.191c-0.331-0.154-0.143-0.509-0.257-0.71c-0.896-0.958-2.042-1.701-2.124-3.221
		c-0.21-0.174-0.456-0.379-0.645-0.536c0-0.213,0.038-0.342-0.006-0.426c-0.373-0.71-0.754-1.417-1.151-2.115
		c-0.063-0.11-0.201-0.221-0.322-0.249c-0.724-0.165-1.036-0.698-1.213-1.409c-0.35,0.032-0.515-0.308-0.792-0.327
		c-0.395,0.119-0.344,0.535-0.593,0.728c-0.17,0.91,0.313,1.573,0.849,2.237c0,0.341,0,0.698,0,1.044
		c0.292,0.291,0.572,0.571,0.852,0.851c0,0.36,0,0.72,0,1.006c0.335,0.659,0.66,1.251,1.08,1.813c0,0.48,0.037,0.986-0.009,1.484
		c-0.071,0.777,0.32,1.361,0.666,1.999c0.284,0.522,0.877,0.828,0.996,1.417c0.095,0.476,0.331,0.877,0.52,1.3
		c0.179,0.401,0.417,0.75,0.447,1.229c0.019,0.303,0.218,0.642,0.549,0.901c0.193,0,0.435,0,0.621,0
		c0.313,0.23,0.396,0.473,0.27,0.778c-0.371,0.071-0.579,0.362-0.818,0.612c0,1.08,0.007,2.16-0.002,3.24
		c-0.006,0.664,0.333,1.282,0.239,1.954c0.404,0.47,0.148,1.027,0.175,1.541c0.013,0.234-0.188,0.481-0.281,0.699
		c-0.187,0-0.328,0-0.523,0c-0.06-0.366-0.174-0.75-0.488-0.964c-0.403-0.274,0.02-0.796-0.375-1.04
		c0.013-0.746-0.323-1.354-0.65-2.002c-0.19-0.378-0.239-0.837-0.568-1.168c-0.065-0.065-0.101-0.177-0.115-0.273
		c-0.092-0.616-0.293-1.212-0.233-1.855c0.028-0.298-0.017-0.607-0.086-0.924c-0.21-0.961-0.682-1.879-0.545-2.835
		c-0.271-0.41-0.784-0.597-0.842-1.016c-0.088-0.631-0.496-1.014-0.804-1.329c0.095-0.648,0.567-1.111,0.138-1.718
		c-0.474-0.671-0.859-1.414-1.765-1.743c-0.288,0-0.641,0-0.971,0c-0.457-0.529-1.035-0.836-1.542-1.183
		c-0.396-0.377-0.216-0.86-0.284-1.335c-0.432-0.152-0.364-0.748-0.768-0.935c-0.769-0.356-1.322-0.989-1.994-1.462
		c-0.26-0.184-0.456-0.495-0.85-0.55c-0.325-0.046-0.878-0.042-1.088,0.167c0,0.335,0,0.65,0,0.922
		c0.574,0.701,1.028,1.705,1.102,2.404c0.28,0.28,0.549,0.572,0.842,0.838c0.908,0.824,1.351,1.496,2.162,3.425
		c0.16,0.381,0.251,0.927,0.671,1.109c0.453,0.196,0.687,0.579,0.933,0.76c0.293,0.889,0.544,1.653,0.862,2.615
		c0.026,0.023,0.227,0.178,0.395,0.362c0.616,0.672,0.951,1.521,0.734,2.365c-0.164,0.639-0.098,1.248-0.186,1.878
		c0.411,0.203,0.523,0.646,0.761,0.979c0.931,1.299,1.453,2.743,1.435,4.377c-0.004,0.377-0.289,0.624-0.247,0.991
		c0.043,0.375,0.041,0.731,0.196,1.109c0.16,0.389-0.331,0.707-0.4,1.106c-0.024,0.14-0.004,0.287-0.004,0.431
		c0,0.392,0,0.784,0,1.142c-0.293,0.313-0.602,0.502-1,0.559c-0.294-0.472-0.598-0.894-0.986-1.254
		c-0.406-0.377-0.756-0.817-1.347-0.93c-0.088-0.017-0.167-0.13-0.233-0.212c-0.266-0.337-0.563-0.634-0.892-0.917
		c-0.362-0.312-0.645-0.741-0.902-1.135c-0.453-0.691-1.104-1.301-1.181-2.207c-0.011-0.127-0.142-0.244-0.187-0.317
		c-0.289,0.078-0.449,0.066-0.625,0.135c-0.403,0.155-0.849,0.499-1.252,0.317c-0.66-0.298-1.296-0.115-1.922-0.208
		c-0.117,0.492,0.019,0.78,0.263,1.137c0.41,0.599,0.998,1.183,0.753,1.985c0.238,0.36,0.712,0.323,0.857,0.669
		c0.287,0.684,1.037,0.883,1.444,1.435c0.169,0.229,0.439,0.313,0.63,0.574c0.492,0.677,1.197,1.186,1.657,1.913
		c0.222,0.352,0.742,0.367,0.906,0.705c0.292,0,0.502,0,0.682,0c0.459-0.33,0.276-0.937,0.619-1.233c0.339,0,0.653,0,1.076,0
		c-0.354,0.897-0.194,1.816-0.496,2.596c0.217,0.491,0.672,0.611,1.138,0.87c0.096-0.292,0.347-0.275,0.679-0.264
		c0.289,0.3,0.616,0.664,1.254,0.869c0.41,0.037,0.991-0.03,1.479-0.233c0.314,0.289,0.578,0.531,0.828,0.761
		c-0.046,0.581,0.073,1.161,0.569,1.374c0.442,0.19,0.787,0.518,1.171,0.712c0.409-0.065,0.707-0.216,0.95-0.447
		c0.531,0.269,0.794,0.757,1.074,1.253c0.302,0.534,0.531,1.037,0.08,1.595c0.354,0.182,0.194,0.524,0.282,0.704
		c0.487,0.601,1.09,0.938,1.603,1.237c0.594,0.799,0.256,1.474-0.124,2.108c0.128,0.628,0.896,0.243,1.088,0.836
		c0,0.339-0.073,0.786,0.021,1.194c0.087,0.379,0.198,0.769,0.389,1.134c0.116,0.223,0.123,0.645-0.017,0.828
		c-0.258,0.34-0.038,0.733-0.2,1.001c-0.204,0.337-0.208,0.664-0.183,1.003c0.018,0.245-0.319,0.31-0.258,0.472
		c0.479,0.987,0.883,1.897,0.655,2.876c0.607,1.041,0.607,1.041,0.616,1.619c-0.226,0.284-0.566,0.357-0.936,0.52
		c-0.509-0.416-1.169-0.173-1.81-0.286c0-0.7,0-1.374,0-2.012c-0.404-0.377-0.351-0.921-0.627-1.302
		c0.192-0.298,0.309-0.673,0.62-0.86c0-0.445,0-0.842,0-1.237s-0.106-0.833,0.028-1.177c0.149-0.385-0.066-0.682-0.032-1.021
		c0.08-0.773-0.196-1.35-1.147-1.644c-0.781,0-1.752-0.007-2.723,0.005c-0.235,0.002-0.461-0.04-0.708,0.12
		c-0.302,0.196-0.708,0.146-1.066,0.281c-0.423,0.158-0.85-0.158-1.258-0.306c-0.626-0.228-1.28-0.485-1.91-0.286
		c-0.487,0.153-0.95,0.17-1.463,0.188c-0.255,0.417-0.82,0.464-1.06,0.843c-0.296,0.068-0.566-0.091-0.878,0.256
		c-0.342,0.548-0.208,1.368-0.573,2.089c0.784,0.063,1.435,0.354,2.146,0.277c0.228-0.025,0.498-0.113,0.729,0.111
		c-1.568,0.805-3.247,0.438-4.582,0.519c-0.854-0.133-1.043-0.647-1.34-1.064c-1.3-0.113-2.252,0.637-3.317,1.292
		c-0.476-0.169-0.934,0.213-1.454,0.211c-0.391-0.512-1.002-0.021-1.483-0.344c-0.39-0.262-0.921-0.312-1.389-0.454
		c-0.057,0.244-0.414,0.045-0.517,0.35c0.125,0.493,0.406,0.947,0.804,1.341c0.563,0.557,1.142,1.1,1.675,1.684
		c0.757,0.831,1.708,1.373,2.709,1.812c0.652,0.285,1.279,0.588,1.866,1.019c0.473-0.034,0.989-0.058,1.361,0.304
		c0.647,0.629,1.481,0.626,2.385,0.844c0.491,0.333,0.591,1.244,1.412,1.438c0.322,0,0.645,0,0.967,0
		c0.36,0,0.764-0.103,1.068,0.027c0.336,0.146,0.765,0.072,1.021,0.405c0.351-0.161,0.557,0.248,0.882,0.219
		c1.312-0.117,2.608,0.095,3.905,0.222c1.248,0.122,2.453-0.284,3.69-0.225c0.952,0.046,1.867-0.371,2.827-0.221
		c0.059,0.01,0.153-0.02,0.184-0.063c0.204-0.291,0.571-0.123,0.851-0.329c0.233-0.172,0.694-0.03,1.054-0.037
		c0.205-0.004,0.412-0.105,0.584-0.132C45.688,65.661,46.007,65.226,46.616,65.015z M23.117,30.672
		c0.565-0.371,0.678-1.086,1.188-1.372c0.145-0.604-0.186-0.987-0.41-1.428c0.138-0.979-0.396-1.821-0.659-2.794
		c0.207-0.403,0.435-0.847,0.669-1.303c0-0.488-0.02-0.993,0.005-1.495c0.026-0.521-0.143-0.946-0.523-1.306
		c-0.378,0-0.763,0-0.896,0c-0.378,0.244-0.589,0.381-0.765,0.495c0,0.433,0,0.787,0,1.116c-0.343,0.449-0.985,0.398-1.29,0.889
		c0.167,0.938-0.343,1.845-0.205,2.803c0.015,0.105-0.042,0.189-0.09,0.286c-0.369,0.735-0.407,1.52-0.313,2.301
		c0.095,0.095,0.171,0.171,0.285,0.285c0.273,0,0.588,0,0.797,0c0.519,0.255,0.369,0.653,0.409,0.986
		c0.18,0.181,0.356,0.36,0.532,0.537C22.25,30.672,22.645,30.672,23.117,30.672z M51.127,42.652
		c-0.08,0.643,0.429,1.034,0.604,1.503c1.295,0.451,2.442,1.226,3.827,0.954c0.238-0.145,0.469-0.284,0.693-0.419
		c0.18-0.587-0.078-1.016-0.438-1.465c-0.36,0.023-0.678-0.168-1.052-0.354c0.32-0.292,0.63-0.574,0.881-0.803
		c0-0.524,0-0.95,0-1.367c-0.963-0.702-2.207-0.556-2.891,0.315c-0.098,0.125-0.094,0.248-0.129,0.38
		c-0.088,0.324-0.198,0.647-0.513,0.907C51.776,42.301,51.448,42.461,51.127,42.652z M32.625,52.453
		c1.294,0.171,2.525-0.129,3.789-0.365c-0.48,0.216-0.794-0.188-1.194-0.262c-0.454-0.084-0.932-0.841-0.698-1.165
		c0.326-0.453,0.073-0.892,0.197-1.29c-0.134-0.135-0.235-0.235-0.339-0.339c-0.769,0.067-1.485-0.192-2.169-0.471
		c-0.442-0.18-0.899-0.286-1.347-0.372c-0.615-0.117-0.993,0.36-1.335,0.743c-0.102,0.86,0.446,1.32,0.967,1.827
		c0.262,0,0.633,0.115,0.813-0.022c0.435-0.333,0.889-0.128,1.327-0.19c0.274-0.039,0.424,0.128,0.433,0.147
		c0.017,0.752-0.569,0.92-0.748,1.323C32.345,52.282,32.553,52.337,32.625,52.453z M17.695,49.389
		c0.421-0.121,0.84-0.358,1.241-0.332c0.727,0.049,1.309-0.355,1.975-0.477c0.29-0.053,0.499-0.351,0.635-0.618
		c-0.125-0.241-0.232-0.448-0.303-0.585c-0.58-0.421-1.19-0.257-1.772-0.295c-0.129-0.129-0.256-0.256-0.405-0.405
		c-0.291,0-0.604,0-0.913,0c-0.449,0.488-1.027,0.869-1.174,1.631c0.021,0.293,0.346,0.543,0.225,0.895
		C17.456,49.237,17.625,49.271,17.695,49.389z M57.736,31.284c0.521-1.445,0.593-2.823-0.949-3.848
		c-0.302,0-0.682-0.089-0.898,0.332c-0.151,0.538,0.233,0.944,0.454,1.472c-0.389,0.243-0.309,0.781-0.661,1.083
		c0,0.314,0,0.628,0,0.744c0.236,0.334,0.379,0.538,0.472,0.668C56.793,31.789,57.309,31.766,57.736,31.284z M12.826,41.255
		c-0.854,0.219-1.176,0.616-1.243,1.229c0.142,0.339,0.231,0.711,0.601,0.951c0.276-0.102,0.607,0.083,0.952-0.112
		c0.171-0.571,0.697-0.901,1.029-1.349c0.171-0.395-0.122-0.536-0.337-0.719C13.433,41.255,13.039,41.255,12.826,41.255z
		 M23.266,44.277c-0.079-0.823-0.601-1.088-1.225-1.238c-0.153,0.211-0.569,0.137-0.707,0.471c0,0.448,0,0.902,0,1.327
		c0.445,0.56,0.981,0.209,1.369,0.285C23.085,44.871,23.041,44.499,23.266,44.277z M59.615,24.155c0.356,0,0.669,0,0.938,0
		c0.188-0.188,0.339-0.339,0.496-0.497c0-0.135,0-0.276,0-0.45c-0.239-0.222-0.499-0.463-0.788-0.731
		c-0.291-0.014-0.66-0.116-0.912,0.307c0,0.345,0,0.728,0,1.105C59.429,23.97,59.505,24.045,59.615,24.155z M57.483,44.537
		c-0.12,0.334-0.499,0.068-0.729,0.254c0,0.301,0,0.611,0,0.865c0.195,0.218,0.36,0.401,0.515,0.572
		c0.751-0.13,0.849-0.191,1.411-0.87C58.507,44.77,57.917,44.758,57.483,44.537z M13.898,22.285c-0.353,0-0.667,0-0.958,0
		c-0.381,0.439-0.412,0.833,0.032,1.237c0.364,0,0.749,0,1.004,0c0.46-0.16,0.443-0.449,0.415-0.741
		C14.214,22.603,14.037,22.425,13.898,22.285z M63.615,31.607c-0.26-0.166-0.401-0.637-0.929-0.49
		c-0.19,0.199-0.485,0.347-0.577,0.732c0.195,0.175,0.4,0.359,0.605,0.543c0.204,0,0.415,0,0.586,0
		C63.542,32.227,63.706,32.05,63.615,31.607z M24.395,50.596c0.173,0.226,0.32,0.417,0.57,0.741
		c-0.036-0.516,0.36-0.243,0.461-0.507c-0.071-0.136,0.08-0.333-0.125-0.508C24.997,50.366,24.61,50.193,24.395,50.596z
		 M26.74,19.304c-0.315-0.098-0.361-0.531-0.756-0.517c-0.142,0.584-0.142,0.584,0.41,0.863
		C26.496,19.548,26.598,19.446,26.74,19.304z"/>
	<path style="fill-rule:evenodd;clip-rule:evenodd;" d="M46.616,65.015c-0.608,0.211-0.928,0.646-1.479,0.73
		c-0.172,0.026-0.379,0.128-0.584,0.132c-0.359,0.007-0.82-0.135-1.054,0.037c-0.279,0.206-0.646,0.038-0.851,0.329
		c-0.03,0.044-0.125,0.073-0.184,0.063c-0.96-0.15-1.875,0.267-2.827,0.221c-1.237-0.06-2.442,0.347-3.69,0.225
		c-1.297-0.127-2.594-0.339-3.905-0.222c-0.326,0.029-0.531-0.38-0.882-0.219c-0.256-0.333-0.685-0.26-1.021-0.405
		c-0.304-0.13-0.708-0.027-1.068-0.027c-0.322,0-0.645,0-0.967,0c-0.821-0.194-0.921-1.105-1.412-1.438
		c-0.904-0.218-1.738-0.215-2.385-0.844c-0.373-0.361-0.888-0.338-1.361-0.304c-0.587-0.431-1.214-0.733-1.866-1.019
		c-1.001-0.438-1.952-0.98-2.709-1.812c-0.533-0.584-1.112-1.127-1.675-1.684c-0.398-0.394-0.68-0.848-0.804-1.341
		c0.103-0.305,0.46-0.105,0.517-0.35c0.467,0.143,0.999,0.192,1.389,0.454c0.481,0.323,1.092-0.168,1.483,0.344
		c0.52,0.002,0.978-0.38,1.454-0.211c1.065-0.655,2.018-1.405,3.317-1.292c0.296,0.417,0.486,0.932,1.34,1.064
		c1.335-0.081,3.014,0.286,4.582-0.519c-0.231-0.225-0.501-0.137-0.729-0.111c-0.712,0.077-1.363-0.215-2.146-0.277
		c0.364-0.721,0.23-1.541,0.573-2.089c0.313-0.347,0.582-0.188,0.878-0.256c0.24-0.379,0.805-0.426,1.06-0.843
		c0.514-0.018,0.977-0.034,1.463-0.188c0.63-0.199,1.284,0.059,1.91,0.286c0.408,0.147,0.835,0.464,1.258,0.306
		c0.358-0.135,0.765-0.085,1.066-0.281c0.247-0.16,0.473-0.118,0.708-0.12c0.97-0.012,1.941-0.005,2.723-0.005
		c0.951,0.294,1.228,0.87,1.147,1.644c-0.034,0.339,0.182,0.636,0.032,1.021c-0.135,0.344-0.028,0.781-0.028,1.177s0,0.792,0,1.237
		c-0.312,0.188-0.428,0.563-0.62,0.86c0.276,0.381,0.223,0.925,0.627,1.302c0,0.638,0,1.312,0,2.012
		c0.641,0.113,1.301-0.13,1.81,0.286c0.369-0.162,0.71-0.235,0.936-0.52c-0.009-0.578-0.009-0.578-0.616-1.619
		c0.228-0.979-0.177-1.889-0.655-2.876c-0.062-0.162,0.275-0.227,0.258-0.472c-0.025-0.339-0.021-0.666,0.183-1.003
		c0.162-0.268-0.058-0.661,0.2-1.001c0.14-0.184,0.133-0.605,0.017-0.828c-0.19-0.365-0.302-0.755-0.389-1.134
		c-0.095-0.408-0.021-0.855-0.021-1.194c-0.191-0.593-0.96-0.208-1.088-0.836c0.38-0.635,0.718-1.31,0.124-2.108
		c-0.513-0.299-1.115-0.637-1.603-1.237c-0.088-0.18,0.072-0.522-0.282-0.704c0.451-0.558,0.222-1.061-0.08-1.595
		c-0.28-0.496-0.543-0.984-1.074-1.253c-0.243,0.231-0.541,0.382-0.95,0.447c-0.384-0.194-0.729-0.521-1.171-0.712
		c-0.496-0.213-0.615-0.793-0.569-1.374c-0.25-0.229-0.513-0.472-0.828-0.761c-0.488,0.203-1.068,0.271-1.479,0.233
		c-0.638-0.205-0.966-0.569-1.254-0.869c-0.333-0.012-0.583-0.028-0.679,0.264c-0.466-0.259-0.921-0.379-1.138-0.87
		c0.302-0.779,0.142-1.698,0.496-2.596c-0.423,0-0.737,0-1.076,0c-0.343,0.297-0.16,0.903-0.619,1.233c-0.18,0-0.39,0-0.682,0
		c-0.165-0.338-0.684-0.354-0.906-0.705c-0.46-0.728-1.165-1.236-1.657-1.913c-0.19-0.262-0.461-0.345-0.63-0.574
		c-0.407-0.552-1.157-0.751-1.444-1.435c-0.146-0.346-0.619-0.31-0.857-0.669c0.245-0.802-0.343-1.387-0.753-1.985
		c-0.244-0.356-0.38-0.645-0.263-1.137c0.626,0.093,1.263-0.09,1.922,0.208c0.403,0.182,0.849-0.162,1.252-0.317
		c0.176-0.068,0.336-0.057,0.625-0.135c0.045,0.073,0.176,0.189,0.187,0.317c0.078,0.906,0.728,1.516,1.181,2.207
		c0.257,0.394,0.541,0.823,0.902,1.135c0.329,0.283,0.626,0.58,0.892,0.917c0.065,0.083,0.145,0.196,0.233,0.212
		c0.591,0.113,0.941,0.553,1.347,0.93c0.388,0.36,0.692,0.782,0.986,1.254c0.398-0.057,0.707-0.246,1-0.559c0-0.358,0-0.75,0-1.142
		c0-0.144-0.021-0.292,0.004-0.431c0.069-0.399,0.56-0.717,0.4-1.106c-0.155-0.377-0.153-0.734-0.196-1.109
		c-0.042-0.367,0.242-0.614,0.247-0.991c0.018-1.634-0.504-3.079-1.435-4.377c-0.238-0.333-0.35-0.776-0.761-0.979
		c0.087-0.631,0.022-1.24,0.186-1.878c0.217-0.844-0.119-1.692-0.734-2.365c-0.168-0.184-0.369-0.338-0.395-0.362
		c-0.317-0.962-0.569-1.726-0.862-2.615c-0.246-0.181-0.48-0.563-0.933-0.76c-0.42-0.182-0.511-0.728-0.671-1.109
		c-0.811-1.929-1.253-2.602-2.162-3.425c-0.293-0.266-0.562-0.558-0.842-0.838c-0.074-0.7-0.527-1.704-1.102-2.404
		c0-0.272,0-0.586,0-0.922c0.21-0.209,0.764-0.213,1.088-0.167c0.394,0.056,0.589,0.367,0.85,0.55
		c0.672,0.473,1.225,1.106,1.994,1.462c0.404,0.187,0.336,0.783,0.768,0.935c0.068,0.475-0.112,0.958,0.284,1.335
		c0.507,0.347,1.085,0.654,1.542,1.183c0.33,0,0.683,0,0.971,0c0.906,0.329,1.292,1.072,1.765,1.743
		c0.429,0.607-0.042,1.07-0.138,1.718c0.308,0.315,0.715,0.697,0.804,1.329c0.059,0.419,0.572,0.606,0.842,1.016
		c-0.137,0.957,0.335,1.874,0.545,2.835c0.069,0.317,0.115,0.626,0.086,0.924c-0.061,0.643,0.141,1.239,0.233,1.855
		c0.014,0.096,0.05,0.208,0.115,0.273c0.329,0.331,0.377,0.79,0.568,1.168c0.327,0.648,0.663,1.256,0.65,2.002
		c0.395,0.244-0.029,0.766,0.375,1.04c0.314,0.214,0.428,0.598,0.488,0.964c0.195,0,0.337,0,0.523,0
		c0.094-0.218,0.294-0.465,0.281-0.699c-0.027-0.513,0.229-1.07-0.175-1.541c0.093-0.672-0.245-1.29-0.239-1.954
		c0.009-1.08,0.002-2.16,0.002-3.24c0.239-0.25,0.447-0.541,0.818-0.612c0.126-0.305,0.043-0.548-0.27-0.778
		c-0.186,0-0.428,0-0.621,0c-0.331-0.26-0.53-0.598-0.549-0.901c-0.03-0.478-0.268-0.827-0.447-1.229
		c-0.189-0.423-0.424-0.824-0.52-1.3c-0.119-0.589-0.712-0.895-0.996-1.417c-0.346-0.638-0.737-1.222-0.666-1.999
		c0.046-0.498,0.009-1.004,0.009-1.484c-0.42-0.562-0.745-1.154-1.08-1.813c0-0.286,0-0.646,0-1.006
		c-0.28-0.28-0.56-0.56-0.852-0.851c0-0.346,0-0.703,0-1.044c-0.535-0.664-1.019-1.328-0.849-2.237
		c0.249-0.193,0.198-0.609,0.593-0.728c0.277,0.02,0.442,0.359,0.792,0.327c0.177,0.71,0.489,1.244,1.213,1.409
		c0.122,0.027,0.259,0.138,0.322,0.249c0.396,0.698,0.778,1.404,1.151,2.115c0.044,0.084,0.006,0.213,0.006,0.426
		c0.188,0.157,0.435,0.361,0.645,0.536c0.082,1.52,1.228,2.263,2.124,3.221c0.114,0.202-0.074,0.557,0.257,0.71
		c-0.179,0.818-0.707,1.209-1.589,1.191c0.255,0.255,0.433,0.433,0.613,0.614c0.213,0,0.429,0,0.642,0
		c0.42,0.383,0.613,0.852,0.807,1.395c0.302,0.843,0.438,1.663,0.391,2.536c0.499,0.741,0.31,1.608,0.47,2.405
		c0.156,0.773,0.174,1.528,0.17,2.294c-0.003,0.54,0.389,0.914,0.495,1.426c0.16,0.768,0.57,1.484,0.883,2.219
		c0.038,0.09,0.154,0.13,0.146,0.265c-0.015,0.25-0.005,0.502-0.005,0.748c0.167,0.129,0.258,0.367,0.523,0.322
		c0.102-0.498,0.102-0.498-0.303-1.194c-0.074-1.094,0.37-2.144,0.436-3.242c0.524-0.569,0.022-1.003-0.201-1.617
		c0.154-0.435-0.179-0.941-0.271-1.479c-0.083-0.479-0.172-0.979-0.363-1.461c-0.178-0.451-0.339-0.971-0.267-1.518
		c0.065-0.492,0.014-1,0.014-1.478c-0.303-0.303-0.583-0.583-0.897-0.897c0.286-1.13-0.435-1.923-1.023-2.747
		c-0.133-0.564,0.178-1.159-0.166-1.678c-0.558-0.841-0.407-2.042-1.377-2.652c0.051-0.571-0.092-1.132,0.206-1.669
		c0.105-0.188,0.109-0.583-0.017-0.722c-0.392-0.433-0.018-0.9-0.223-1.271c0.294-0.234,0.558-0.06,0.759-0.151
		c0.298,0.164,0.353,0.456,0.494,0.687c0.152,0.249,0.164,0.558,0.579,0.656c0.293,0.069,0.548,0.385,0.638,0.767
		c0.128,0.552,0.447,1.034,0.607,1.584c0.273,0.943,0.86,1.741,1.393,2.547c0.165,0.251,0.261,0.567,0.512,0.766
		c0.104,0.596,0.005,1.17-0.236,1.745c0.385,0.229,0.635,0.559,0.979,0.809c0.398,0.289,0.495,0.922,0.574,1.453
		c0.042,0.282,0.025,0.576,0.004,0.863c-0.055,0.704,0.135,1.361,0.377,2.005c0.094,0.247,0.135,0.547,0.04,0.721
		c-0.356,0.65-0.145,1.263,0.022,1.882c0.191,0.709,0.416,1.41,0.633,2.136c-0.404,0.903-0.659,1.843-0.25,2.854
		c0.075,0.186,0.042,0.418,0.044,0.629c0.004,0.679,0.001,1.357,0.001,1.996c0.164,0.164,0.413,0.045,0.488,0.278
		c0.273-0.105,0.558-0.188,0.748-0.435c0.02-0.063,0.063-0.13,0.057-0.19c-0.089-0.713,0.153-1.358,0.442-1.978
		c0.411-0.879,0.457-1.799,0.43-2.74c-0.004-0.131-0.103-0.176-0.146-0.266c-0.512-1.034-0.295-2.115-0.191-3.188
		c0.005-0.059,0.076-0.11,0.129-0.182c-0.279-0.536-0.359-1.09-0.056-1.679c-0.478-0.588-0.907-1.235-0.819-2.088
		c-0.254-0.546-0.935-0.606-1.24-1.088c-0.269-0.424-0.197-1.024-0.711-1.338c0.073-0.363,0.022-0.71,0.174-1.106
		c0.202-0.529-0.23-1.101-0.509-1.583c-0.166-0.286-0.357-0.572-0.522-0.867c-0.029-0.178,0.136-0.233,0.216-0.346
		c0-0.356,0-0.716,0-1.078c-0.393-0.36-0.479-0.816-0.427-1.286c0.134-0.241,0.543,0.071,0.467-0.45
		c0.553,0.36,1.135,0.348,1.621,0.785c0.119,0.977,0.792,1.832,0.963,2.877c0.031,0.192,0.168,0.505,0.409,0.692
		c0.313,0.242,0.434,0.605,0.424,1.007c-0.008,0.368,0.171,0.655,0.424,0.904c0.475,0.469,0.786,1.067,1.285,1.527
		c0.565,0.52,0.581,1.013,0.234,1.768c0.067,0.571,0.521,0.878,0.863,1.252c0,2.565,0.008,5.121-0.008,7.677
		c-0.003,0.404,0.146,0.84-0.194,1.218c-0.09,0.1-0.085,0.396-0.001,0.52c0.333,0.489,0.147,1.026,0.207,1.539
		c0.035,0.302-0.085,0.606,0.162,0.912c0.141,0.174,0.147,0.549-0.078,0.779c-0.158,0.161-0.032,0.343-0.145,0.581
		c-0.296,0.283-0.658,0.629-0.998,0.954c0,0.289,0,0.53,0,0.738c0.344,0.458,0.999,0.391,1.274,0.885
		c-0.219,0.607-0.377,1.218-0.479,1.865c-0.087,0.55-0.111,1.014,0.01,1.563c0.11,0.498,0.197,0.989,0.414,1.455
		c0.042,0.09,0.074,0.213,0.046,0.3c-0.217,0.683-0.132,1.426-0.439,2.114c0.055,0.459,0.35,0.79,0.677,1.106
		c0.312,0.3,0.641,0.587,0.91,0.922c0.271,0.337,0.376,0.829,0.93,0.922c0.345,0.467,0.499,1.075,0.694,1.62
		c0.355,0.989,0.698,1.956,1.646,2.916c1.169,0.313,2.014,1.44,2.691,2.689c0.202,0.373,0.36,0.553,0.771,0.523
		c0.463-0.45,1.01-0.858,0.986-1.622c-0.399-0.392-1.047-0.566-1.084-1.263c-0.597-0.41-0.823-1.146-1.474-1.554
		c-0.497-0.312-0.949-0.843-0.893-1.546c0.023-0.289-0.432-0.332-0.217-0.61c-1.049-0.438-1.173-1.252-1.07-2.171
		c0.08-0.079,0.156-0.155,0.269-0.269c0.563,0,1.166,0,1.802,0c0.068,0.068,0.17,0.171,0.271,0.272
		c0.164,0.661-0.692,0.922-0.609,1.551c0.108,0.147,0.265,0.059,0.41,0.089c0.533-0.146,0.633-0.699,0.925-1.064
		c0.309-0.385,0.771-0.417,1.137-0.644c0.505,0.445,1.023,0.171,1.375-0.155c0.481-0.446,1.022-0.842,1.343-1.481
		c0.273-0.546,0.895-0.721,1.5-0.759c0.393-0.025,0.788-0.005,1.178-0.005c0.082-0.159,0.217-0.306,0.224-0.457
		c0.03-0.638,0.446-0.904,0.979-0.949c0.485-0.041,0.76-0.422,1.171-0.577c0.189-0.072,0.359-0.184,0.64-0.174
		c0.419,0.31,0.586,0.865,0.504,1.314c-0.087,0.471-0.29,0.952-0.462,1.458c-0.25,0.293-0.742,0.336-0.982,0.857
		c0,0.661,0,1.446,0,2.236c-0.478,0.558-0.591,1.278-0.854,1.92c-0.191,0.468-0.513,0.882-0.624,1.357
		c-0.124,0.525-0.312,0.969-0.702,1.337c-0.057,0.054-0.011,0.185-0.074,0.291c-0.22,0.372-0.216,0.851-0.543,1.177
		c-0.331,0.331-0.7,0.632-0.986,0.998c-0.961,1.235-2.161,2.271-2.99,3.617c-0.359,0.583-0.992,0.92-1.585,1.108
		c-0.667,0.211-1.148,0.593-1.625,1.035c-0.431,0.398-0.791,0.887-1.427,0.992c-0.545,0.091-0.823,0.6-1.242,0.883
		c-0.38,0.257-0.783,0.43-1.18,0.555c-0.365,0.115-0.674,0.277-1.004,0.454c-0.851,0.458-1.765,0.788-2.603,1.283
		C47.103,65.123,46.753,65.015,46.616,65.015z M49.914,54.833c0.229,0.065,0.43-0.047,0.558,0.139
		c0.127,0.186,0.437,0.05,0.517,0.296c0.534,1.085,0.534,1.085,1.447,1.521c0.28-0.283,0.551-0.555,0.822-0.828
		c0-0.185,0-0.394,0-0.576c-0.334-0.4-0.82-0.354-1.218-0.521c-0.504-0.211-0.949-0.421-1.207-1
		c-0.175-0.394-0.235-0.868-0.517-1.179c-0.329-0.362-0.329-0.808-0.474-1.211c-0.064-0.18-0.141-0.321-0.273-0.423
		c-0.398-0.305-0.603-0.76-0.949-1.21c-0.423,0.258-0.736-0.135-1.057-0.21c-0.576-0.755-1.116-1.463-1.65-2.161
		c-0.229,0.144-0.171,0.297-0.195,0.43c-0.14,0.747,0.25,1.439,0.217,2.173c-0.037,0.781-0.026,1.529,0.628,2.125
		c0.074,0.067,0.26,0.303,0.241,0.532c-0.029,0.368,0.205,0.633,0.396,0.911c0.071,0.104,0.476,1.103,0.462,1.207
		c-0.06,0.443,0.195,0.773,0.358,1.146c0.105,0.24,0.334,0.441,0.285,0.796c-0.351,0.601-0.189,1.282-0.176,1.961
		c0.294,0,0.509,0,0.75,0c0.123-0.24,0.437-0.339,0.535-0.701c-0.512-0.479-0.488-1.136-0.438-1.813
		C49.417,55.897,49.705,55.437,49.914,54.833z M44.552,38.016c-0.184,0.159-0.431,0.298-0.341,0.598
		c0.184,0.614,0.104,1.313,0.452,1.854c0.201,0.313,0.164,0.591,0.198,0.959c-0.135,0.107-0.302,0.24-0.449,0.356
		c0,0.476,0,0.903,0,1.317c-0.394,0.477-0.997,0.406-1.49,0.625c0.308,0.481,0.616,0.962,0.885,1.382c0.391,0,0.705,0,1.125,0
		c-0.16-0.785-0.443-1.52-0.241-2.282c0.787-0.665,0.992-1.668,1.399-2.314c0.125-0.417-0.018-0.533-0.188-0.688
		c0-0.424,0-0.881,0-1.339c-0.153-0.338-0.455-0.296-0.682-0.237C44.918,38.323,44.826,37.928,44.552,38.016z M44.59,36.499
		c-0.845,0.062-1.477-0.364-1.964-0.564c-1.079,0.075-1.82,0.52-2.499,1.073c0,0.397,0,0.781,0,1.147
		c0.408,0.283,0.406,0.291,0.973,0.269c0.182-0.357,0.275-0.767,0.636-1.063c0.835,0.045,1.715-0.124,2.506,0.247
		C44.704,37.344,44.685,36.97,44.59,36.499z M37.476,42.414c-0.202-0.248-0.469-0.506-0.811-0.611
		c-0.432-0.95-0.432-0.95-1.088-0.891c-0.092,0.728,0.454,1.106,0.859,1.539c-0.063,0.396,0.202,0.654,0.316,0.967
		C36.995,43.122,37.622,43.173,37.476,42.414z M29.935,19.301c-0.203,0.301-0.455,0.372-0.406,0.699
		c0.1,0.088,0.224,0.164,0.406,0.004C29.935,19.845,29.935,19.68,29.935,19.301z M31.14,21.814c-0.157,0.146-0.157,0.29,0,0.436
		C31.297,22.104,31.297,21.96,31.14,21.814z M46.32,59.463c-0.104,0.055-0.287-0.214-0.354,0.081
		C46.096,59.649,46.216,59.657,46.32,59.463z M38.052,56.806c0.101-0.07,0.101-0.143,0-0.213
		C37.951,56.664,37.951,56.736,38.052,56.806z"/>
	<path style="fill-rule:evenodd;clip-rule:evenodd;" d="M23.117,30.672c-0.472,0-0.867,0-1.266,0
		c-0.176-0.177-0.353-0.356-0.532-0.537c-0.04-0.333,0.11-0.73-0.409-0.986c-0.209,0-0.523,0-0.797,0
		c-0.114-0.114-0.19-0.19-0.285-0.285c-0.094-0.781-0.056-1.565,0.313-2.301c0.048-0.097,0.105-0.181,0.09-0.286
		c-0.138-0.958,0.372-1.865,0.205-2.803c0.305-0.491,0.947-0.44,1.29-0.889c0-0.329,0-0.683,0-1.116
		c0.175-0.114,0.387-0.25,0.765-0.495c0.134,0,0.519,0,0.896,0c0.381,0.36,0.549,0.785,0.523,1.306
		c-0.025,0.502-0.005,1.006-0.005,1.495c-0.234,0.456-0.463,0.9-0.669,1.303c0.263,0.973,0.797,1.815,0.659,2.794
		c0.224,0.44,0.555,0.824,0.41,1.428C23.794,29.586,23.682,30.301,23.117,30.672z"/>
	<path style="fill-rule:evenodd;clip-rule:evenodd;" d="M51.127,42.652c0.32-0.19,0.648-0.351,0.984-0.349
		c0.314-0.26,0.425-0.583,0.513-0.907c0.035-0.132,0.031-0.255,0.129-0.38c0.684-0.871,1.928-1.018,2.891-0.315
		c0,0.417,0,0.843,0,1.367c-0.251,0.229-0.561,0.511-0.881,0.803c0.374,0.187,0.691,0.378,1.052,0.354
		c0.359,0.449,0.617,0.878,0.438,1.465c-0.225,0.135-0.455,0.274-0.693,0.419c-1.385,0.271-2.532-0.503-3.827-0.954
		C51.556,43.686,51.047,43.294,51.127,42.652z"/>
	<path style="fill-rule:evenodd;clip-rule:evenodd;" d="M32.625,52.453c-0.073-0.115-0.281-0.171-0.307-0.436
		c0.179-0.403,0.765-0.571,0.748-1.323c-0.008-0.02-0.159-0.187-0.433-0.147c-0.438,0.063-0.892-0.143-1.327,0.19
		c-0.179,0.138-0.551,0.022-0.813,0.022c-0.521-0.507-1.069-0.967-0.967-1.827c0.343-0.383,0.72-0.86,1.335-0.743
		c0.448,0.086,0.905,0.192,1.347,0.372c0.684,0.278,1.4,0.538,2.169,0.471c0.104,0.104,0.205,0.204,0.339,0.339
		c-0.124,0.398,0.129,0.837-0.197,1.29c-0.233,0.324,0.244,1.081,0.698,1.165c0.4,0.073,0.713,0.478,1.194,0.262
		C35.151,52.324,33.92,52.624,32.625,52.453z"/>
	<path style="fill-rule:evenodd;clip-rule:evenodd;" d="M17.695,49.389c-0.069-0.118-0.239-0.152-0.491-0.187
		c0.121-0.352-0.204-0.602-0.225-0.895c0.147-0.762,0.725-1.143,1.174-1.631c0.309,0,0.622,0,0.913,0
		c0.149,0.149,0.276,0.276,0.405,0.405c0.582,0.038,1.192-0.126,1.772,0.295c0.07,0.137,0.178,0.344,0.303,0.585
		c-0.136,0.268-0.345,0.565-0.635,0.618c-0.666,0.121-1.248,0.525-1.975,0.477C18.535,49.031,18.116,49.268,17.695,49.389z"/>
	<path style="fill-rule:evenodd;clip-rule:evenodd;" d="M57.736,31.284c-0.427,0.481-0.942,0.505-1.583,0.45
		c-0.093-0.13-0.235-0.334-0.472-0.668c0-0.116,0-0.43,0-0.744c0.353-0.301,0.272-0.839,0.661-1.083
		c-0.221-0.527-0.605-0.934-0.454-1.472c0.217-0.421,0.597-0.332,0.898-0.332C58.329,28.461,58.257,29.839,57.736,31.284z"/>
	<path style="fill-rule:evenodd;clip-rule:evenodd;" d="M12.826,41.255c0.212,0,0.607,0,1.001,0
		c0.215,0.183,0.508,0.324,0.337,0.719c-0.332,0.447-0.858,0.777-1.029,1.349c-0.345,0.195-0.676,0.011-0.952,0.112
		c-0.37-0.24-0.459-0.612-0.601-0.951C11.65,41.872,11.972,41.474,12.826,41.255z"/>
	<path style="fill-rule:evenodd;clip-rule:evenodd;" d="M23.266,44.277c-0.226,0.222-0.181,0.594-0.563,0.845
		c-0.387-0.076-0.924,0.274-1.369-0.285c0-0.425,0-0.879,0-1.327c0.138-0.334,0.554-0.26,0.707-0.471
		C22.666,43.189,23.188,43.454,23.266,44.277z"/>
	<path style="fill-rule:evenodd;clip-rule:evenodd;" d="M59.615,24.155c-0.109-0.109-0.186-0.185-0.266-0.266
		c0-0.377,0-0.76,0-1.105c0.252-0.423,0.621-0.32,0.912-0.307c0.289,0.269,0.549,0.51,0.788,0.731c0,0.174,0,0.315,0,0.45
		c-0.157,0.157-0.309,0.309-0.496,0.497C60.284,24.155,59.971,24.155,59.615,24.155z"/>
	<path style="fill-rule:evenodd;clip-rule:evenodd;" d="M57.483,44.537c0.434,0.222,1.024,0.233,1.197,0.821
		c-0.563,0.679-0.66,0.74-1.411,0.87c-0.154-0.171-0.319-0.354-0.515-0.572c0-0.254,0-0.564,0-0.865
		C56.984,44.605,57.363,44.871,57.483,44.537z"/>
	<path style="fill-rule:evenodd;clip-rule:evenodd;" d="M13.898,22.285c0.139,0.14,0.316,0.317,0.494,0.496
		c0.028,0.292,0.045,0.581-0.415,0.741c-0.255,0-0.64,0-1.004,0c-0.444-0.403-0.413-0.797-0.032-1.237
		C13.23,22.285,13.545,22.285,13.898,22.285z"/>
	<path style="fill-rule:evenodd;clip-rule:evenodd;" d="M63.615,31.607c0.091,0.443-0.073,0.62-0.314,0.785
		c-0.171,0-0.382,0-0.586,0c-0.205-0.184-0.41-0.368-0.605-0.543c0.092-0.385,0.387-0.533,0.577-0.732
		C63.213,30.97,63.355,31.441,63.615,31.607z"/>
	<path style="fill-rule:evenodd;clip-rule:evenodd;fill:none;" d="M49.914,54.833c-0.209,0.604-0.497,1.063-0.938,1.404
		c-0.05,0.677-0.073,1.333,0.438,1.813c-0.099,0.362-0.412,0.461-0.535,0.701c-0.241,0-0.456,0-0.75,0
		c-0.014-0.679-0.175-1.36,0.176-1.961c0.049-0.354-0.18-0.556-0.285-0.796c-0.163-0.372-0.418-0.702-0.358-1.146
		c0.014-0.104-0.391-1.103-0.462-1.207c-0.19-0.278-0.425-0.543-0.396-0.911c0.019-0.229-0.167-0.465-0.241-0.532
		c-0.654-0.596-0.665-1.344-0.628-2.125c0.033-0.733-0.356-1.426-0.217-2.173c0.024-0.133-0.034-0.286,0.195-0.43
		c0.534,0.698,1.074,1.406,1.65,2.161c0.32,0.075,0.634,0.468,1.057,0.21c0.347,0.45,0.551,0.905,0.949,1.21
		c0.133,0.102,0.209,0.243,0.273,0.423c0.145,0.403,0.145,0.849,0.474,1.211c0.281,0.311,0.342,0.785,0.517,1.179
		c0.258,0.579,0.703,0.789,1.207,1c0.397,0.167,0.884,0.12,1.218,0.521c0,0.183,0,0.392,0,0.576
		c-0.271,0.273-0.542,0.545-0.822,0.828c-0.913-0.437-0.913-0.437-1.447-1.521c-0.08-0.246-0.39-0.11-0.517-0.296
		C50.343,54.787,50.143,54.899,49.914,54.833z M49.621,53.461c-0.319,0.273-0.206,0.498-0.224,0.696
		c-0.011,0.12,0.012,0.123,0.459,0.45C49.751,54.23,49.953,53.845,49.621,53.461z"/>
	<path style="fill-rule:evenodd;clip-rule:evenodd;fill:none;" d="M44.552,38.016c0.273-0.088,0.366,0.307,0.669,0.229
		c0.227-0.059,0.528-0.101,0.682,0.237c0,0.458,0,0.915,0,1.339c0.17,0.155,0.313,0.271,0.188,0.688
		c-0.407,0.646-0.612,1.649-1.399,2.314c-0.202,0.763,0.081,1.497,0.241,2.282c-0.42,0-0.734,0-1.125,0
		c-0.269-0.42-0.577-0.9-0.885-1.382c0.493-0.219,1.097-0.148,1.49-0.625c0-0.414,0-0.842,0-1.317
		c0.147-0.116,0.314-0.249,0.449-0.356c-0.034-0.368,0.003-0.646-0.198-0.959c-0.349-0.54-0.269-1.239-0.452-1.854
		C44.122,38.314,44.369,38.175,44.552,38.016z"/>
	<path style="fill-rule:evenodd;clip-rule:evenodd;fill:none;" d="M44.59,36.499c0.095,0.472,0.113,0.846-0.349,1.109
		c-0.791-0.371-1.671-0.202-2.506-0.247c-0.36,0.296-0.454,0.705-0.636,1.063c-0.566,0.022-0.564,0.015-0.973-0.269
		c0-0.366,0-0.75,0-1.147c0.679-0.554,1.42-0.998,2.499-1.073C43.114,36.134,43.746,36.56,44.59,36.499z"/>
	<path style="fill-rule:evenodd;clip-rule:evenodd;fill:none;" d="M37.476,42.414c0.146,0.76-0.481,0.708-0.724,1.004
		c-0.115-0.313-0.38-0.571-0.316-0.967c-0.405-0.433-0.951-0.812-0.859-1.539c0.657-0.06,0.657-0.06,1.088,0.891
		C37.007,41.908,37.274,42.166,37.476,42.414z"/>
	<path style="fill-rule:evenodd;clip-rule:evenodd;fill:none;" d="M29.935,19.301c0,0.379,0,0.544,0,0.704
		c-0.182,0.159-0.306,0.084-0.406-0.004C29.48,19.672,29.732,19.602,29.935,19.301z"/>
	<path style="fill-rule:evenodd;clip-rule:evenodd;fill:none;" d="M31.14,21.814c0.157,0.146,0.157,0.29,0,0.436
		C30.983,22.104,30.983,21.96,31.14,21.814z"/>
	<path style="fill-rule:evenodd;clip-rule:evenodd;fill:none;" d="M46.32,59.463c-0.104,0.193-0.224,0.186-0.354,0.081
		C46.033,59.25,46.216,59.518,46.32,59.463z"/>
	<path style="fill-rule:evenodd;clip-rule:evenodd;fill:none;" d="M38.052,56.806c-0.102-0.07-0.102-0.143,0-0.213
		C38.153,56.664,38.153,56.736,38.052,56.806z"/>
	<path style="fill-rule:evenodd;clip-rule:evenodd;" d="M49.621,53.461c0.332,0.384,0.131,0.769,0.235,1.146
		c-0.447-0.327-0.47-0.33-0.459-0.45C49.415,53.959,49.301,53.735,49.621,53.461z"/>
</g>
</svg>
