<svg xmlns="http://www.w3.org/2000/svg" xml:space="preserve" width="72px" height="72px" viewBox="0 0 72 72">
    <g fill="currentColor">
        <path d="M46.616 65.015c-.608.211-.928.646-1.479.73-.172.026-.379.128-.584.132-.359.007-.82-.135-1.054.037-.279.206-.646.038-.851.329-.03.044-.125.073-.184.063-.96-.15-1.875.267-2.827.221-1.237-.06-2.442.347-3.69.225-1.297-.127-2.594-.339-3.905-.222-.326.029-.531-.38-.882-.219-.256-.333-.685-.26-1.021-.405-.304-.13-.708-.027-1.068-.027h-.967c-.821-.194-.921-1.105-1.412-1.438-.904-.218-1.738-.215-2.385-.844-.373-.361-.888-.338-1.361-.304-.587-.431-1.214-.733-1.866-1.019-1.001-.438-1.952-.98-2.709-1.812-.533-.584-1.112-1.127-1.675-1.684-.398-.394-.68-.848-.804-1.341.103-.305.46-.105.517-.35.467.143.999.192 1.389.454.481.323 1.092-.168 1.483.344.52.002.978-.38 1.454-.211 1.065-.655 2.018-1.405 3.317-1.292.296.417.486.932 1.34 1.064 1.335-.081 3.014.286 4.582-.519-.231-.225-.501-.137-.729-.111-.712.077-1.363-.215-2.146-.277.364-.721.23-1.541.573-2.089.313-.347.582-.188.878-.256.24-.379.805-.426 1.06-.843.514-.018.977-.034 1.463-.188.63-.199 1.284.059 1.91.286.408.147.835.464 1.258.306.358-.135.765-.085 1.066-.281.247-.16.473-.118.708-.12.97-.012 1.941-.005 2.723-.005.951.294 1.228.87 1.147 1.644-.034.339.182.636.032 1.021-.135.344-.028.781-.028 1.177v1.237c-.312.188-.428.563-.62.86.276.381.223.925.627 1.302v2.012c.641.113 1.301-.13 1.81.286.369-.162.71-.235.936-.52-.009-.578-.009-.578-.616-1.619.228-.979-.177-1.889-.655-2.876-.062-.162.275-.227.258-.472-.025-.339-.021-.666.183-1.003.162-.268-.058-.661.2-1.001.14-.184.133-.605.017-.828-.19-.365-.302-.755-.389-1.134-.095-.408-.021-.855-.021-1.194-.191-.593-.96-.208-1.088-.836.38-.635.718-1.31.124-2.108-.513-.299-1.115-.637-1.603-1.237-.088-.18.072-.522-.282-.704.451-.558.222-1.061-.08-1.595-.28-.496-.543-.984-1.074-1.253-.243.231-.541.382-.95.447-.384-.194-.729-.521-1.171-.712-.496-.213-.615-.793-.569-1.374l-.828-.761a3.3 3.3 0 0 1-1.479.233c-.638-.205-.966-.569-1.254-.869-.333-.012-.583-.028-.679.264-.466-.259-.921-.379-1.138-.87.302-.779.142-1.698.496-2.596h-1.076c-.343.297-.16.903-.619 1.233h-.682c-.165-.338-.684-.354-.906-.705-.46-.728-1.165-1.236-1.657-1.913-.19-.262-.461-.345-.63-.574-.407-.552-1.157-.751-1.444-1.435-.146-.346-.619-.31-.857-.669.245-.802-.343-1.387-.753-1.985-.244-.356-.38-.645-.263-1.137.626.093 1.263-.09 1.922.208.403.182.849-.162 1.252-.317.176-.068.336-.057.625-.135.045.073.176.189.187.317.078.906.728 1.516 1.181 2.207.257.394.541.823.902 1.135.329.283.626.58.892.917.065.083.145.196.233.212.591.113.941.553 1.347.93.388.36.692.782.986 1.254.398-.057.707-.246 1-.559v-1.142c0-.144-.021-.292.004-.431.069-.399.56-.717.4-1.106-.155-.377-.153-.734-.196-1.109-.042-.367.242-.614.247-.991.018-1.634-.504-3.079-1.435-4.377-.238-.333-.35-.776-.761-.979.087-.631.022-1.24.186-1.878.217-.844-.119-1.692-.734-2.365-.168-.184-.369-.338-.395-.362l-.862-2.615c-.246-.181-.48-.563-.933-.76-.42-.182-.511-.728-.671-1.109-.811-1.929-1.253-2.602-2.162-3.425-.293-.266-.562-.558-.842-.838-.074-.7-.527-1.704-1.102-2.404v-.922c.21-.209.764-.213 1.088-.167.394.056.589.367.85.55.672.473 1.225 1.106 1.994 1.462.404.187.336.783.768.935.068.475-.112.958.284 1.335.507.347 1.085.654 1.542 1.183h.971c.906.329 1.292 1.072 1.765 1.743.429.607-.042 1.07-.138 1.718.308.315.715.697.804 1.329.059.419.572.606.842 1.016-.137.957.335 1.874.545 2.835.069.317.115.626.086.924-.061.643.141 1.239.233 1.855.014.096.05.208.115.273.329.331.377.79.568 1.168.327.648.663 1.256.65 2.002.395.244-.029.766.375 1.04.314.214.428.598.488.964h.523c.094-.218.294-.465.281-.699-.027-.513.229-1.07-.175-1.541.093-.672-.245-1.29-.239-1.954.009-1.08.002-2.16.002-3.24.239-.25.447-.541.818-.612.126-.305.043-.548-.27-.778h-.621c-.331-.26-.53-.598-.549-.901-.03-.478-.268-.827-.447-1.229-.189-.423-.424-.824-.52-1.3-.119-.589-.712-.895-.996-1.417-.346-.638-.737-1.222-.666-1.999.046-.498.009-1.004.009-1.484-.42-.562-.745-1.154-1.08-1.813v-1.006l-.852-.851v-1.044c-.535-.664-1.019-1.328-.849-2.237.249-.193.198-.609.593-.728.277.02.442.359.792.327.177.71.489 1.244 1.213 1.409a.56.56 0 0 1 .322.249q.593 1.048 1.151 2.115c.044.084.006.213.006.426l.645.536c.082 1.52 1.228 2.263 2.124 3.221.114.202-.074.557.257.71-.179.818-.707 1.209-1.589 1.191l.613.614h.642c.42.383.613.852.807 1.395.302.843.438 1.663.391 2.536.499.741.31 1.608.47 2.405.156.773.174 1.528.17 2.294-.003.54.389.914.495 1.426.16.768.57 1.484.883 2.219.038.09.154.13.146.265-.015.25-.005.502-.005.748.167.129.258.367.523.322.102-.498.102-.498-.303-1.194-.074-1.094.37-2.144.436-3.242.524-.569.022-1.003-.201-1.617.154-.435-.179-.941-.271-1.479-.083-.479-.172-.979-.363-1.461-.178-.451-.339-.971-.267-1.518.065-.492.014-1 .014-1.478l-.897-.897c.286-1.13-.435-1.923-1.023-2.747-.133-.564.178-1.159-.166-1.678-.558-.841-.407-2.042-1.377-2.652.051-.571-.092-1.132.206-1.669.105-.188.109-.583-.017-.722-.392-.433-.018-.9-.223-1.271.294-.234.558-.06.759-.151.298.164.353.456.494.687.152.249.164.558.579.656.293.069.548.385.638.767.128.552.447 1.034.607 1.584.273.943.86 1.741 1.393 2.547.165.251.261.567.512.766.104.596.005 1.17-.236 1.745.385.229.635.559.979.809.398.289.495.922.574 1.453.042.282.025.576.004.863-.055.704.135 1.361.377 2.005.094.247.135.547.04.721-.356.65-.145 1.263.022 1.882.191.709.416 1.41.633 2.136-.404.903-.659 1.843-.25 2.854.075.186.042.418.044.629.004.679.001 1.357.001 1.996.164.164.413.045.488.278.273-.105.558-.188.748-.435.02-.063.063-.13.057-.19-.089-.713.153-1.358.442-1.978.411-.879.457-1.799.43-2.74-.004-.131-.103-.176-.146-.266-.512-1.034-.295-2.115-.191-3.188.005-.059.076-.11.129-.182-.279-.536-.359-1.09-.056-1.679-.478-.588-.907-1.235-.819-2.088-.254-.546-.935-.606-1.24-1.088-.269-.424-.197-1.024-.711-1.338.073-.363.022-.71.174-1.106.202-.529-.23-1.101-.509-1.583-.166-.286-.357-.572-.522-.867-.029-.178.136-.233.216-.346v-1.078c-.393-.36-.479-.816-.427-1.286.134-.241.543.071.467-.45.553.36 1.135.348 1.621.785.119.977.792 1.832.963 2.877a1.2 1.2 0 0 0 .409.692c.313.242.434.605.424 1.007-.008.368.171.655.424.904.475.469.786 1.067 1.285 1.527.565.52.581 1.013.234 1.768.067.571.521.878.863 1.252 0 2.565.008 5.121-.008 7.677-.003.404.146.84-.194 1.218-.09.1-.085.396-.001.52.333.489.147 1.026.207 1.539.035.302-.085.606.162.912.141.174.147.549-.078.779-.158.161-.032.343-.145.581l-.998.954v.738c.344.458.999.391 1.274.885a10 10 0 0 0-.479 1.865c-.087.55-.111 1.014.01 1.563.11.498.197.989.414 1.455.042.09.074.213.046.3-.217.683-.132 1.426-.439 2.114.055.459.35.79.677 1.106.312.3.641.587.91.922.271.337.376.829.93.922.345.467.499 1.075.694 1.62.355.989.698 1.956 1.646 2.916 1.169.313 2.014 1.44 2.691 2.689.202.373.36.553.771.523.463-.45 1.01-.858.986-1.622-.399-.392-1.047-.566-1.084-1.263-.597-.41-.823-1.146-1.474-1.554-.497-.312-.949-.843-.893-1.546.023-.289-.432-.332-.217-.61-1.049-.438-1.173-1.252-1.07-2.171l.269-.269h1.802l.271.272c.164.661-.692.922-.609 1.551.108.147.265.059.41.089.533-.146.633-.699.925-1.064.309-.385.771-.417 1.137-.644.505.445 1.023.171 1.375-.155.481-.446 1.022-.842 1.343-1.481.273-.546.895-.721 1.5-.759.393-.025.788-.005 1.178-.005.082-.159.217-.306.224-.457.03-.638.446-.904.979-.949.485-.041.76-.422 1.171-.577.189-.072.359-.184.64-.174.419.31.586.865.504 1.314-.087.471-.29.952-.462 1.458-.25.293-.742.336-.982.857v2.236c-.478.558-.591 1.278-.854 1.92-.191.468-.513.882-.624 1.357-.124.525-.312.969-.702 1.337-.057.054-.011.185-.074.291-.22.372-.216.851-.543 1.177-.331.331-.7.632-.986.998-.961 1.235-2.161 2.271-2.99 3.617-.359.583-.992.92-1.585 1.108-.667.211-1.148.593-1.625 1.035-.431.398-.791.887-1.427.992-.545.091-.823.6-1.242.883-.38.257-.783.43-1.18.555-.365.115-.674.277-1.004.454-.851.458-1.765.788-2.603 1.283-.218.134-.568.026-.705.026m3.298-10.182c.229.065.43-.047.558.139.127.186.437.05.517.296.534 1.085.534 1.085 1.447 1.521l.822-.828v-.576c-.334-.4-.82-.354-1.218-.521-.504-.211-.949-.421-1.207-1-.175-.394-.235-.868-.517-1.179-.329-.362-.329-.808-.474-1.211-.064-.18-.141-.321-.273-.423-.398-.305-.603-.76-.949-1.21-.423.258-.736-.135-1.057-.21l-1.65-2.161c-.229.144-.171.297-.195.43-.14.747.25 1.439.217 2.173-.037.781-.026 1.529.628 2.125.074.067.26.303.241.532-.029.368.205.633.396.911.071.104.476 1.103.462 1.207-.06.443.195.773.358 1.146.105.24.334.441.285.796-.351.601-.189 1.282-.176 1.961h.75c.123-.24.437-.339.535-.701-.512-.479-.488-1.136-.438-1.813.441-.34.729-.8.938-1.404m-5.362-16.817c-.184.159-.431.298-.341.598.184.614.104 1.313.452 1.854.201.313.164.591.198.959l-.449.356V43.1c-.394.477-.997.406-1.49.625l.885 1.382h1.125c-.16-.785-.443-1.52-.241-2.282.787-.665.992-1.668 1.399-2.314.125-.417-.018-.533-.188-.688v-1.339c-.153-.338-.455-.296-.682-.237-.302.076-.394-.319-.668-.231m.038-1.517c-.845.062-1.477-.364-1.964-.564-1.079.075-1.82.52-2.499 1.073v1.147c.408.283.406.291.973.269.182-.357.275-.767.636-1.063.835.045 1.715-.124 2.506.247.462-.264.443-.638.348-1.109m-7.114 5.915c-.202-.248-.469-.506-.811-.611-.432-.95-.432-.95-1.088-.891-.092.728.454 1.106.859 1.539-.063.396.202.654.316.967.243-.296.87-.245.724-1.004m-7.541-23.113c-.203.301-.455.372-.406.699.1.088.224.164.406.004zm1.205 2.513q-.236.218 0 .436.236-.218 0-.436m15.18 37.649c-.104.055-.287-.214-.354.081.13.105.25.113.354-.081m-8.268-2.657q.152-.106 0-.213-.151.107 0 .213"/>
        <path d="M23.117 30.672h-1.266l-.532-.537c-.04-.333.11-.73-.409-.986h-.797l-.285-.285c-.094-.781-.056-1.565.313-2.301.048-.097.105-.181.09-.286-.138-.958.372-1.865.205-2.803.305-.491.947-.44 1.29-.889v-1.116l.765-.495h.896c.381.36.549.785.523 1.306-.025.502-.005 1.006-.005 1.495l-.669 1.303c.263.973.797 1.815.659 2.794.224.44.555.824.41 1.428-.511.286-.623 1.001-1.188 1.372m28.01 11.98c.32-.19.648-.351.984-.349.314-.26.425-.583.513-.907.035-.132.031-.255.129-.38.684-.871 1.928-1.018 2.891-.315v1.367l-.881.803c.374.187.691.378 1.052.354.359.449.617.878.438 1.465l-.693.419c-1.385.271-2.532-.503-3.827-.954-.177-.469-.686-.861-.606-1.503m-18.502 9.801c-.073-.115-.281-.171-.307-.436.179-.403.765-.571.748-1.323-.008-.02-.159-.187-.433-.147-.438.063-.892-.143-1.327.19-.179.138-.551.022-.813.022-.521-.507-1.069-.967-.967-1.827.343-.383.72-.86 1.335-.743.448.086.905.192 1.347.372.684.278 1.4.538 2.169.471l.339.339c-.124.398.129.837-.197 1.29-.233.324.244 1.081.698 1.165.4.073.713.478 1.194.262-1.26.236-2.491.536-3.786.365m-14.93-3.064c-.069-.118-.239-.152-.491-.187.121-.352-.204-.602-.225-.895.147-.762.725-1.143 1.174-1.631h.913l.405.405c.582.038 1.192-.126 1.772.295l.303.585c-.136.268-.345.565-.635.618-.666.121-1.248.525-1.975.477-.401-.025-.82.212-1.241.333m40.041-18.105c-.427.481-.942.505-1.583.45l-.472-.668v-.744c.353-.301.272-.839.661-1.083-.221-.527-.605-.934-.454-1.472.217-.421.597-.332.898-.332 1.543 1.026 1.471 2.404.95 3.849m-44.91 9.971h1.001c.215.183.508.324.337.719-.332.447-.858.777-1.029 1.349-.345.195-.676.011-.952.112-.37-.24-.459-.612-.601-.951.068-.612.39-1.01 1.244-1.229m10.44 3.022c-.226.222-.181.594-.563.845-.387-.076-.924.274-1.369-.285V43.51c.138-.334.554-.26.707-.471.625.15 1.147.415 1.225 1.238m36.349-20.122-.266-.266v-1.105c.252-.423.621-.32.912-.307l.788.731v.45l-.496.497zm-2.132 20.382c.434.222 1.024.233 1.197.821-.563.679-.66.74-1.411.87l-.515-.572v-.865c.23-.186.609.08.729-.254M13.898 22.285l.494.496c.028.292.045.581-.415.741h-1.004c-.444-.403-.413-.797-.032-1.237zm49.717 9.322c.091.443-.073.62-.314.785h-.586l-.605-.543c.092-.385.387-.533.577-.732.526-.147.668.324.928.49M49.621 53.461c.332.384.131.769.235 1.146-.447-.327-.47-.33-.459-.45.018-.198-.096-.422.224-.696"/>
    </g>
</svg>
