<svg xmlns="http://www.w3.org/2000/svg" xml:space="preserve" width="72px" height="72px" viewBox="0 0 72 72">
    <g fill="currentColor">
        <path d="M41.166 11.016c1.761 0 3.63-.003 5.498.004.201 0 .395.045.6.106 1.436.43 2.692 1.188 3.921 2.009.504.336 1.055.614 1.542.948a7.1 7.1 0 0 1 1.813 1.827c.262.387.754.638.807 1.167 1.011.981 1.251 2.358 1.807 3.571.109.237.016.566.016.768.646 1.217 1.019 2.41.832 3.786-.081.156-.372.238-.412.571.395.303.564.809.915 1.203.271.304.402.769.397 1.23-.012 1.006-.004 2.012-.004 2.977-.531.71-.748 1.543-1.265 2.232-.365.486-.734 1.012-1.213 1.293-.532.313-.75.724-.989 1.22-.384.797-.785 1.604-1.75 1.879-.123.035-.227.155-.327.248-.158.147-.307.304-.481.479v1c-.245.421-.41.849-.828 1.071-.176.036-.259-.091-.361-.192-.043.039-.109.069-.126.117-.156.45-.416.751-.823 1.068-.854.664-1.636 1.454-2.218 2.455.389.461.177 1.044.239 1.596-.245.244-.527.444-.776.657-.228.194-.351.525-.703.648a.7.7 0 0 0-.375.373c-.2.521-.65.82-1.005 1.202-.381.409-.834.759-1.064 1.288-.218.5-.591.888-1.007 1.19-.419.306-.444.889-1.028 1.113-.46.178-.779.723-1.194 1.138.257 1.024-.5 1.847-.653 2.813-.433.433-.861.869-1.299 1.297-.355.347-.642.724-.623 1.307-.728.124-1.207.702-1.756 1.129-.47.364-.92.696-1.478.891-.712.249-1.249.791-1.889 1.165-.45.262-.846.499-1.383.601-.471.089-.983.24-1.414.47-.29.154-.542.094-.878.155-.103-.882-.802-1.283-1.583-1.747-.361-.045-.808.038-1.26.282-.443.238-.928.411-1.465.377-.525-.033-1.054-.007-1.58-.007v-.321c.307-.11.559-.39.969-.32l.776-.864c.804.074 1.207-.494 1.693-.962v-.91l-.485-.302c.238-.642-.167-1.102-.151-1.626.014-.502.003-1.005.003-1.495-.319-.341-.7-.612-.864-1.068v-.317c-.016-.827.101-1.662-.402-2.432-.095-.146-.248-.4-.246-.647v-.863c-.156-.673-.908-.943-1.028-1.806.094-.871.796-1.772.847-2.895.019-.415.302-.885.64-1.233.097-.1.224-.184.17-.436-.27-.195-.636-.019-.971-.096-.458-.279-.266-.749-.307-1.163.222-.259.543-.017.812-.162.205-.123.249-.377.357-.586.13-.253.438-.186.606-.376.274-.313.582-.584.768-.979.385-.814.389-.829 1.052-1.267.434-.286.705-.672.948-1.106.101-.181.261-.328.398-.496v-1.086c-.604.731-1.245 1.193-1.994 1.411-.177-.102-.125-.221-.137-.315.077-.162.252-.087.421-.197-.123-.469.257-.712.556-1.004h.861c.036-.059.089-.112.103-.174.202-.932.388-1.901.182-2.817-.179-.794-.248-1.681-.887-2.371h-.97c-.406.908-1.599 1.406-1.562 2.672l-.637.585v.944c-.181.366-.479.613-.718.909-1.03 1.278-2.224 2.398-3.358 3.577-.297.31-.498.713-.735 1.063.484.427.809-.251 1.201-.074.988-.893 2.322-1.366 2.979-2.619.487.122.869-.046 1.164-.26.465.396.465.396.542.829-.493.492-.984 1.015-1.51 1.501-.474.438-1.072.693-1.636.996a3.4 3.4 0 0 0-1.071.875 1.07 1.07 0 0 0-1.054.22c-.556.546-1.302.732-1.917 1.161-.606.422-1.201.879-1.83 1.28-.549.352-.946.925-1.524 1.281-.693.427-1.351.911-2.028 1.365-.167.111-.387.112-.524.304-.356.496-.938.504-1.544.691-.546.762-1.544 1.063-2.344 1.674-.267-.466.096-.783.283-1.111.203-.356.689-.511.753-.985.513-.038.564-.538.827-.826.073-.08.139-.192.23-.223.651-.216.984-.839 1.562-1.175a40 40 0 0 0 3.242-2.1c.778-.56 1.4-1.258 2.13-1.926-.598-.257-1.004.138-1.347.373-.921.63-1.898 1.148-3.012 1.705-.147 0-.436.034-.713-.008-.423-.064-.783.135-1.024.378-.308.311-.623.278-.972.27-.096-.144-.298-.205-.322-.47.241-.247.56-.376 1.018-.425l.735-.829c.29.285.601.212.896.22.455-.285.749-.797 1.175-1.042.52-.3.79-.808 1.285-1.111.708.052 1.085-.613 1.853-.856.527.075 1.053-.216 1.614-.646.512-.393.923-.928 1.55-1.186.375-.153.449-.602.688-.896.521-.644 1.017-1.306 1.533-1.954a5.3 5.3 0 0 1 .658-.691c.65-.571 1.19-1.246 1.255-2.169.025-.363.426-.477.484-.894.054-.395.182-.79.148-1.23-.697-.569-1.237-1.289-1.716-2.236v-1.38c-.281-.427-.639-.358-.993-.313-.198.177-.118.454-.192.673-.169.503-.591 1.024-.126 1.632.137.179.021.552.021.817-.534.275-1.142.39-1.32 1.068-.033.126-.219.244-.388.331-.678.352-1.114.988-1.628 1.521-.21.218-.235.614-.358.971-.035.064-.187.049-.228.097-.572.674-1.444.943-2.065 1.547a.6.6 0 0 1-.252.168c-.895.225-1.593.846-2.422 1.194-.429.18-1.009.094-1.357.35-.605.446-1.238.399-1.893.4-.059 0-.117-.061-.226-.122.25-.468.596-.791 1.073-1.054.233-.129.492-.001.678-.2.246-.263.507-.511.761-.766.475.001.823-.246 1.19-.524.885-.669 1.871-1.182 2.878-1.645.088-.04.204-.02.277-.025.395-.338.658-.785 1.161-.936.486-.776 1.349-1.292 1.538-2.28.067-.355.567-.543.447-1 .517-.619.656-1.395.818-2.14.088-.402.336-.477.595-.583.317-.807.271-1.798 1.304-2.17.133-.048.214-.242.298-.405.32-.623.485-1.334.94-1.875.243-.289.092-.599.191-.896.206-.619.597-1.126.895-1.679.225-.417.536-.775.591-1.273.009-.084.143-.154.257-.269h1.041c.748-.555 1.615-.721 2.269-1.295.156-.138.393-.266.565-.426.38-.353.708-.772 1.25-.896.229-.052.367-.24.474-.404.539-.826 1.547-.823 2.265-1.324.445.167.776-.299 1.206-.216.257-.44.859.008 1.116-.432.878.037 1.712-.409 2.483-.21.454-.24.81-.424 1.262-.656M39.725 42.98c.608-.117.866.739 1.487.662.742-.426 1.024-1.253 1.563-1.712h1.355c.244.285.628.455.5.92-.338.595-1.085.718-1.514 1.254-.444.555-.979 1.038-1.474 1.552l-.931.966c.129.602.392 1.024.854 1.346h1.052c.379.117.623.423.952.753.254-.316.497-.563.739-.607.329-.383.332-.803.821-1.065.57-.307.976-.921 1.452-1.401-.088-.386.615-.43.353-.945-1.077.03-1.972.793-2.918.816l-.697-.49c.169-.611.504-1.048.938-1.312 1.172-.714 1.903-1.775 2.543-2.934.117-.21.269-.404.201-.731l-.555-.565-.898.464c-.327-.036-.793.191-1.169-.4v-1.447c-.522.758-1.161 1.076-1.881 1.265-.022.422-.359.583-.598.818-.247-.062-.515.104-.715-.114v-.917c.676-.391.894-1.219 1.518-1.674-.044-.197.073-.392-.156-.574a3.22 3.22 0 0 0-1.588 1.352 7.4 7.4 0 0 1-1.305 1.623c-.739.681-1.353 1.464-1.771 2.393-.062.136-.196.307-.415.279-.435-.212-.585-.652-.821-1.023-.057-.889.153-1.698.723-2.398.064-.08.158-.134.143-.266-.064-.563.388-1.051.202-1.581.45-.499 1.004-.857 1.108-1.623h-1.576c-.517-.39-.754-.899-1.384-.952-.189-.016-.519-.32-.525-.724-.007-.46-.356-.544-.739-.5-.328.151-.291.555-.544.751.226.102.168.368.305.521 1.115.177 1.295 1.367 2.052 1.829v.57l-.53.683c-.263.07-.544-.181-.747.071v.858c-.336.312-.299.866-.691 1.117-.833.531-1.559 1.141-1.91 2.109-.056.153-.226.275-.364.387-.742.593-1.464 1.219-2.438 1.535.093.345-.521.606-.089 1.014a1.94 1.94 0 0 0 1.051-.626h1.17c.091.277.479.331.462.812l-.688 1.42c.359.242.738.022 1.092.182v.904c-.465.698-.551 1.546-1.063 2.261h.642c.196-.217.408-.655.733-.77.737-.259 1.199-.746 1.521-1.373.881-.064 1.409.313 1.664 1.128-.057.07-.154.14-.179.229-.226.822-.662 1.447-1.422 1.903-.38.228-.889.527-.787 1.156-.386.362-.357.915-.614 1.337.264.198.19.704.723.725.3-.369.729-.659 1.141-.905.11-.225-.06-.478.155-.654l.942-.484c.091-.778.554-1.218 1.139-1.648.721-.53 1.437-1.117 1.745-2.082-.32-.524-.521-1.078-.513-1.732a2.6 2.6 0 0 0-.257-1.064c-.128-.265-.152-.676-.63-.746-.228-.033-.414-.348-.571-.491V43.5c.245-.164.35-.48.664-.519.248.198.589.229.81.541l.035.673c.166.136.263.369.573.288q.26-.723.544-1.503m-.75-15.112c.378 0 .907-.16 1.221.033.686.421 1.121.074 1.56-.309.191-.167.498-.103.609-.369.782.042 1.413-.398 2.107-.646.543-.195.977-.477 1.178-.938-.235-.878-.853-1.401-1.418-1.967-.174-.175-.537-.118-.587-.382-.094-.493-.521-.592-.894-.826-.485 0-1.025-.009-1.565.002-.638.014-1.174.222-1.672.669-.688.619-1.46 1.147-2.21 1.694-.072.053-.186.057-.157-.021-.191.795.076 1.344.186 1.865.402.616 1.041.84 1.642 1.195m16.249 4.826-.001-.402 1.033-1.03.522-2.011c-1.13-.567-2.299-.193-3.328-.305-.468.275-.596.686-.807 1.009-.075.634.156 1.284-.165 1.744.175.872.341 1.662.931 2.237.718-.308 1.374-.602 1.815-1.242m-16.95 18.708c-.671.671-1.27 1.484-2.063 2.002-.774.505-1.104 1.274-1.646 1.914-.065.077-.097.104-.008.156l.261.261c.448-.016.944-.075 1.351.272.212.385.26.82.324 1.315.512-.254.959-.431 1.234-.867-.097-.716.748-1.058.678-1.728.409-.429.865-.772 1.027-1.262v-1.104c-.679-.799-.783-.887-1.158-.959m13.247-25.036c-1.064-.105-1.864.316-2.562.965-.498.463-.965.96-1.448 1.44-.438.437-.961.835-1.518.991-.427.12-.651.353-.922.605.016.309.225 1.068.324 1.167.102 0 .209.01.314-.002.135-.016.286.063.397-.059.709-1.043.787-1.134 1.887-1.648.155-.072.309-.123.437-.243.199-.187.486-.324.636-.488.191-.211.351-.495.568-.714.044-.044.118-.058.178-.085h.54c.171.231.185.604.617.653.625-.351.405-1.147.783-1.657.214-.286-.198-.552-.231-.925m-1.142 2.951c-.816.331-.927 1.272-1.545 1.586l-.522 1.591c.269.184.187.611.516.744h.914l.305-.305c-.051-.843.023-1.717.38-2.562.126-.298.11-.676-.048-1.054M29.417 49.464c.355-.479.444-.663.217-1.031-.093-.152.02-.474-.395-.484-.082.139-.381.158-.362.614.061.241.195.582.54.901m-.441-3.029c.331-.272.489-.633.545-1.048.017-.122-.039-.197-.187-.261l-.675.335v.657zm5.419 12.091c-.331.054-.672-.084-1.001.103.324.338.661.529 1.083.558.126.008.186-.052.191-.064.09-.314-.115-.381-.273-.597M50.679 39.06c.327.022.614.122.926-.097-.109-.252-.217-.448-.483-.519-.245.069-.421.203-.443.616M30.402 54.031c.187-.052.307.018.381-.11.022-.191.119-.398-.08-.574-.092.026-.212-.043-.302.111zm.648-15.636.458-.247c-.202-.167-.321-.17-.458-.05zm10.719 12.669c-.325-.067-.325-.067-.284.456z"/>
        <path d="M16.354 52.462c-.133-.785.241-1.481.695-2.045a53 53 0 0 0 2.252-2.959c.422-.604.897-1.107 1.513-1.518.398-.266.601-.816.951-1.079.542-.404.986-.894 1.483-1.333.108-.095.204-.202.323-.321.387.031.839-.176 1.196.337 0 .143.073.389-.012.555-.44.862-.836 1.769-1.421 2.525-.315.408-.792.867-1.264 1.055-.877.347-1.348 1.095-2.018 1.615.04.63-.524.943-.699 1.458-.168.5-.269 1.05-.639 1.457-.364.401-.314 1.041-.761 1.36-.712-.03-.356-.803-.77-1.003-.271-.181-.566-.001-.829-.104m-.01.064v.987c-.429 1.029-.877 1.883-1.692 2.462l-.058.528c-.07.121-.188.078-.288.091-.042-.056-.115-.106-.117-.161-.018-.521.065-1.02.18-1.534.114-.51.384-.854.665-1.244.227-.316.328-.723.502-1.129zm6.464-1.254v1.092c-.148.482-.571.804-.931 1.182h-.529c-.184-.767.392-1.357.42-2.062.325-.067.553-.444 1.04-.212m7.042 11.805c.145.146.257.209.289.301.044.129.028.277.038.426-.439.557-1.026.63-1.664.544-.133-.255-.055-.503-.064-.747.385-.384.831-.608 1.401-.524m-5.531-6.913v.773c-.239.179-.496.018-.712.109-.211-.233-.193-.438-.034-.67.171-.251.41-.226.746-.212M21.3 34.609c.361-.073.629-.084.91.031-.081.443-.415.587-.6.789-.298-.015-.356-.223-.501-.316.105-.168.348-.261.191-.504m-2.026 20.686c.308-.002.361.215.492.295l-.261.543c-.261.016-.537.107-.804-.089.048-.413.407-.537.573-.749m-5.306-15.443v.455c-.283.139-.568.117-.869.008.276-.556.276-.556.869-.463m8.734-5.715c-.234-.401.098-.466.244-.667.234.402-.098.467-.244.667m-2.007 1.584c-.205.158-.297.444-.611.323-.122-.186.1-.202.153-.293.078-.133.214-.141.458-.03m7.067-19.936h.494c-.122.201-.214.324-.423.384zm11.909 27.194c-.356.022-.713.042-.878-.432.176-.888.724-1.57 1.452-2.155h1.039c.307.643.307.643.288 1.23-.476.353-1.12.188-1.619.58-.043.236-.359.439-.282.777m4.085-1.795.597-.858c.398.173.333.546.548.787l-.633.592c-.328-.098-.545-.276-.512-.521"/>
    </g>
</svg>
