<svg xmlns="http://www.w3.org/2000/svg" xml:space="preserve" width="72px" height="72px" viewBox="0 0 72 72">
    <path fill="currentColor" d="M23.675 50.34c.143-.716-.052-1.445-.291-2.113-.271-.757-.079-1.328.295-1.96h1.238l.911.916c.063.744.645 1.221.85 1.839.198.596.465 1.201.475 1.825.754.88 1.625 1.6 2.534 2.287.153-.027.349.078.493-.124-.019-.405-.4-.554-.629-.806-.372-.408-.774-.769-.926-1.349-.115-.44-.494-.746-.823-1.061-.286-.273-.561-.559-.874-.872 0-.501-.049-1.042.01-1.571.119-1.068-.395-2.084-.208-3.125-.308-.435-.699-.693-1.252-.826-.867.278-1.451.994-1.993 1.708-.713.939-1.89.927-2.622.001-.579-.733-.966-1.717-2.051-1.927-.295-.407-.771-.592-1.129-.919-.924-.844-1.101-1.612-.69-2.88.291-.896.314-1.03-.012-1.976-.126-.366-.265-.72-.197-1.101.083-.473-.291-.842-.234-1.317.055-.461.02-.934.01-1.402-.015-.7.244-1.357.251-2.069.009-.924-.123-1.824-.5-2.611-.372-.776-.396-1.777-1.282-2.202.112-.45-.161-.736-.231-1.067-.086-.407-.441-.744-.404-1.233.034-.445-.362-.838-.207-1.313.111-.34-.24-.537-.241-.882-.003-.672.186-1.289.362-1.912.192-.679.349-1.368.546-2.042.205-.704.5-1.398 1.048-1.94.515-.509.96-1.012 1.187-1.779.309-1.044 1.108-1.83 2.091-2.339.389-.202.676-.485.972-.777a10.65 10.65 0 0 1 4.226-2.571c.25-.083.473-.251.771-.415h2.319c.471-.515.683-1.314 1.494-1.522.105 0 .211-.009.315.001 1.349.138 2.664-.358 4.013-.218 1.279-.478 2.607-.056 3.907-.263.2.414.615.473.934.7.533-.323 1.211-.408 1.684-.126.578.345 1.248.258 1.801.632.49.332 1.119.462 1.603.801.754.527 1.67.823 2.271 1.576.123.153.295.266.488.371.895.487 1.452 1.348 2.107 2.088.429.484.713 1.095 1.189 1.552.428.409.62.978.985 1.428-.146.609.297 1.144.218 1.746-.018.139-.002.282-.002.385.261.286.298.685.648.855 0 .491-.077 1.006.294 1.388.189.194.128.394.134.596.012.431-.012.864.008 1.295.019.374-.113.767.198 1.111.089.099-.011.352.019.527.063.381-.487.681-.061 1.152.24.264.165.79.349 1.137.171.324.133.716.492 1.005.272.22.428.699.462 1.078.093 1.028.156 2.077-.018 3.094-.16.939-.302 2.837.087 3.612.651 1.298.956 2.705 1.388 4.065.271.857.668 1.725.553 2.699-.072.614-.256 1.197-.368 1.798-.058.312-.106.567.041.886a9.2 9.2 0 0 1 .662 1.984c.209 1.017.268 2.125-.208 3.092-.345.699-.461 1.47-.822 2.144-.366.683-.785 1.336-.834 2.139-.652.745-.875 1.763-1.594 2.475-.458.455-.686 1.076-1.002 1.632-.529.93-1.05 1.873-1.908 2.555-.593.471-.859 1.135-1.171 1.833-.469.058-.817.545-1.384.495-.303.416-.836.653-.978 1.211-.668.301-1.4.459-2.034.92-.702-.082-1.412.18-2.127.277-.656.089-1.36.359-1.973.667-.457.229-.987-.057-1.382.344-.072.073-.215.156-.354.246-.548-.14-1.183.221-1.718-.231-.82.124-1.313-.496-1.909-.862-.585-.358-1.139-.743-1.463-1.419-.207-.433-.695-.646-1.157-.767a2.68 2.68 0 0 0-1.205-1.266c-.264-.139-.521-.347-.589-.574-.082-.275-.261-.414-.428-.579-.92-.916-1.54-2.087-2.515-2.955-.411-.953-1.148-1.786-.985-2.945.069-.491.012-1.001.012-1.425-.329-.523-.43-1.177-.946-1.4-.506-.222-.71-.617-1.014-1.135m11.029-20.295c0 .108-.078.393.014.602.348.792.75 1.559 1.161 2.394 1.337.224 2.472 1.013 3.59 1.666 1.797.342 3.531.471 4.951.102l1.479-1.432-.409-.75c.188-.863-.27-1.692-.234-2.583.017-.425-.235-.921-.506-1.28-.351-.465-.616-.982-.973-1.463v-.612l-.753-.766h-1.471c-.771.496-1.751.533-2.268 1.38-.59-.557-1.081-.258-1.554.025a9 9 0 0 0-1.087.757c-.679.565-1.569.912-1.94 1.96m-2.887 20.74c-.416.506-.403.975-.303 1.491 1.109.394 1.295 1.311 1.25 2.269l.319.319c.354 0 .793.113 1.122-.029.39-.169.684.107 1.005.032.687.387.67 1.299 1.365 1.718h1.006l.82-.516c-.168-.571-.476-1.002-.46-1.528l.396-.396c.836-.454 1.578-.344 2.233-.36.69-.357 1.271-.813 1.912-.663l.628-.493c.075-.813-.077-1.562-.451-2.139-.389-.598-.697-1.159-.627-1.805-.688-.724-1.099.188-1.661.129l-1.258-.45c-.379.164-.738.272-1.041.467-.187.118-.34.2-.565.209-.897.032-1.701.363-2.515.833-.854.031-1.062.11-1.712.676h-1.067c-.114.148-.247.252-.396.236M20.88 33.53c.324.95.729 1.555.652 2.317-.049.493.113.915.343 1.369.282.556.728 1.066.741 1.779l1.033.972c.268-.211.434.191.707.208.339-.136.647-.331.995-.465.434-.167.902-.349 1.176-.881.26-.506.606-1.013 1.079-1.395.157-.127.37-.244.4-.477.092-.708.465-1.353.438-2.087-.018-.502-.003-1.005-.003-1.399-.194-.352-.255-.686-.547-.857h-1.722c-.363-.396-.829-.46-1.333-.435-.359.018-.765.112-1.07-.018-.794-.337-1.592-.115-2.227-.192l-.662.517zm28.079 12.422c0-.021-.007.017.002.049.019.064.031.138.072.185.462.537.456 1.103.11 1.69-.319.544-.49 1.116-.365 1.777h.566c.19-.409.518-.752.74-1.181.316-.611.206-1.334.584-1.917.05-.076.036-.212.015-.313-.145-.694-.299-1.386-.466-2.149-.983-.628-1.451-1.742-2.099-2.854.048-.627-.407-1.328-.23-2.068-.453-.195-.822-.374-1.26-.27-.283-.584-.918-.673-1.245-1.083h-1.2c-.561.232-.378.63-.396.983.557.426.854 1.052 1.237 1.626.616.924 1.34 1.776 2.123 2.57.25.254.405.561.497.872.08.273.264.576.032.903-.083.116-.014.34-.014.466.328.454.871.301 1.297.714m-14.036-3.737c.397-.366.632-.684.634-1.068.006-.806.284-1.471.852-1.923v-.907c-.226-.226-.413-.448-.635-.628-.697-.567-1.394-1.086-2.398-.989-.598.058-1.184-.213-1.736-.405l-.562.282c-.377.917-1.017 1.895-.594 2.879.387.899.391 2.032 1.261 2.618h.926c.321-.52.427-1.068.873-1.495.414.171.976-.234 1.38.385zm9.052-30.455c-.615-.698-1.458-1.222-2.384-1.345a9.6 9.6 0 0 1-2.076-.497c-.561-.208-1.227-.148-1.71-.659-1.215.241-2.415-.337-3.619-.176l-.459.426c-.24.466-.003.654.256.889h1.713c.346.294.426.67.614 1.073.306-.108.641.072.99-.12.288-.158.624-.228.881-.317.653.139.713.921 1.486 1.109.096-.133.217-.362.393-.533.407-.396.974-.532 1.443-.337.451.187.992.229 1.358.646.194.221.49.358.804.389.098.01.219.05.31-.1zm.019 37.744.295.536c.599.299 1.179.332 1.786.272.328-.679.367-1.479.81-2.122.495-.722.486-1.451.016-2.198-.535.063-1.027.368-1.643.206-.425 1.159-1.01 2.168-1.264 3.306m6.262-15.7V35.1c0 .396.014.792-.006 1.188-.011.233-.158.453-.243.652a2.3 2.3 0 0 0-.165 1.171c.113.131.206.237.29.332.539-.394.913-.984.946-1.547.065-1.094.284-2.252-.368-3.282-.031-.05-.099-.079-.148-.117z"/>
</svg>
