<?xml version="1.0" encoding="iso-8859-1"?>
<!-- Generator: Adobe Illustrator 16.0.0, SVG Export Plug-In . SVG Version: 6.00 Build 0)  -->
<!DOCTYPE svg PUBLIC "-//W3C//DTD SVG 1.1//EN" "http://www.w3.org/Graphics/SVG/1.1/DTD/svg11.dtd">
<svg version="1.1" id="Layer_1" xmlns="http://www.w3.org/2000/svg" xmlns:xlink="http://www.w3.org/1999/xlink" x="0px" y="0px"
	 width="72.36px" height="71.459px" viewBox="0 0 72.36 71.459" style="enable-background:new 0 0 72.36 71.459;"
	 xml:space="preserve">
<g>
	
	<path fill="currentColor" d="M23.675,50.34c0.143-0.716-0.052-1.445-0.291-2.113
		c-0.271-0.757-0.079-1.328,0.295-1.96c0.41,0,0.796,0,1.238,0c0.278,0.28,0.606,0.609,0.911,0.916
		c0.063,0.744,0.645,1.221,0.85,1.839c0.198,0.596,0.465,1.201,0.475,1.825c0.754,0.88,1.625,1.6,2.534,2.287
		c0.153-0.027,0.349,0.078,0.493-0.124c-0.019-0.405-0.4-0.554-0.629-0.806c-0.372-0.408-0.774-0.769-0.926-1.349
		c-0.115-0.44-0.494-0.746-0.823-1.061c-0.286-0.273-0.561-0.559-0.874-0.872c0-0.501-0.049-1.042,0.01-1.571
		c0.119-1.068-0.395-2.084-0.208-3.125c-0.308-0.435-0.699-0.693-1.252-0.826c-0.867,0.278-1.451,0.994-1.993,1.708
		c-0.713,0.939-1.89,0.927-2.622,0.001c-0.579-0.733-0.966-1.717-2.051-1.927c-0.295-0.407-0.771-0.592-1.129-0.919
		c-0.924-0.844-1.101-1.612-0.69-2.88c0.291-0.896,0.314-1.03-0.012-1.976c-0.126-0.366-0.265-0.72-0.197-1.101
		c0.083-0.473-0.291-0.842-0.234-1.317c0.055-0.461,0.02-0.934,0.01-1.402c-0.015-0.7,0.244-1.357,0.251-2.069
		c0.009-0.924-0.123-1.824-0.5-2.611c-0.372-0.776-0.396-1.777-1.282-2.202c0.112-0.45-0.161-0.736-0.231-1.067
		c-0.086-0.407-0.441-0.744-0.404-1.233c0.034-0.445-0.362-0.838-0.207-1.313c0.111-0.34-0.24-0.537-0.241-0.882
		c-0.003-0.672,0.186-1.289,0.362-1.912c0.192-0.679,0.349-1.368,0.546-2.042c0.205-0.704,0.5-1.398,1.048-1.94
		c0.515-0.509,0.96-1.012,1.187-1.779c0.309-1.044,1.108-1.83,2.091-2.339c0.389-0.202,0.676-0.485,0.972-0.777
		c1.205-1.194,2.617-2.04,4.226-2.571c0.25-0.083,0.473-0.251,0.771-0.415c0.712,0,1.501,0,2.319,0
		c0.471-0.515,0.683-1.314,1.494-1.522c0.105,0,0.211-0.009,0.315,0.001c1.349,0.138,2.664-0.358,4.013-0.218
		c1.279-0.478,2.607-0.056,3.907-0.263c0.2,0.414,0.615,0.473,0.934,0.7c0.533-0.323,1.211-0.408,1.684-0.126
		c0.578,0.345,1.248,0.258,1.801,0.632c0.49,0.332,1.119,0.462,1.603,0.801c0.754,0.527,1.67,0.823,2.271,1.576
		c0.123,0.153,0.295,0.266,0.488,0.371c0.895,0.487,1.452,1.348,2.107,2.088c0.429,0.484,0.713,1.095,1.189,1.552
		c0.428,0.409,0.62,0.978,0.985,1.428c-0.146,0.609,0.297,1.144,0.218,1.746c-0.018,0.139-0.002,0.282-0.002,0.385
		c0.261,0.286,0.298,0.685,0.648,0.855c0,0.491-0.077,1.006,0.294,1.388c0.189,0.194,0.128,0.394,0.134,0.596
		c0.012,0.431-0.012,0.864,0.008,1.295c0.019,0.374-0.113,0.767,0.198,1.111c0.089,0.099-0.011,0.352,0.019,0.527
		c0.063,0.381-0.487,0.681-0.061,1.152c0.24,0.264,0.165,0.79,0.349,1.137c0.171,0.324,0.133,0.716,0.492,1.005
		c0.272,0.22,0.428,0.699,0.462,1.078c0.093,1.028,0.156,2.077-0.018,3.094c-0.16,0.939-0.302,2.837,0.087,3.612
		c0.651,1.298,0.956,2.705,1.388,4.065c0.271,0.857,0.668,1.725,0.553,2.699c-0.072,0.614-0.256,1.197-0.368,1.798
		c-0.058,0.312-0.106,0.567,0.041,0.886c0.294,0.633,0.526,1.32,0.662,1.984c0.209,1.017,0.268,2.125-0.208,3.092
		c-0.345,0.699-0.461,1.47-0.822,2.144c-0.366,0.683-0.785,1.336-0.834,2.139c-0.652,0.745-0.875,1.763-1.594,2.475
		c-0.458,0.455-0.686,1.076-1.002,1.632c-0.529,0.93-1.05,1.873-1.908,2.555c-0.593,0.471-0.859,1.135-1.171,1.833
		c-0.469,0.058-0.817,0.545-1.384,0.495c-0.303,0.416-0.836,0.653-0.978,1.211c-0.668,0.301-1.4,0.459-2.034,0.92
		c-0.702-0.082-1.412,0.18-2.127,0.277c-0.656,0.089-1.36,0.359-1.973,0.667c-0.457,0.229-0.987-0.057-1.382,0.344
		c-0.072,0.073-0.215,0.156-0.354,0.246c-0.548-0.14-1.183,0.221-1.718-0.231c-0.82,0.124-1.313-0.496-1.909-0.862
		c-0.585-0.358-1.139-0.743-1.463-1.419c-0.207-0.433-0.695-0.646-1.157-0.767c-0.264-0.567-0.672-0.984-1.205-1.266
		c-0.264-0.139-0.521-0.347-0.589-0.574c-0.082-0.275-0.261-0.414-0.428-0.579c-0.92-0.916-1.54-2.087-2.515-2.955
		c-0.411-0.953-1.148-1.786-0.985-2.945c0.069-0.491,0.012-1.001,0.012-1.425c-0.329-0.523-0.43-1.177-0.946-1.4
		C24.183,51.253,23.979,50.858,23.675,50.34z M34.704,30.045c0,0.108-0.078,0.393,0.014,0.602c0.348,0.792,0.75,1.559,1.161,2.394
		c1.337,0.224,2.472,1.013,3.59,1.666c1.797,0.342,3.531,0.471,4.951,0.102c0.607-0.588,1.037-1.004,1.479-1.432
		c-0.107-0.195-0.251-0.459-0.409-0.75c0.188-0.863-0.27-1.692-0.234-2.583c0.017-0.425-0.235-0.921-0.506-1.28
		c-0.351-0.465-0.616-0.982-0.973-1.463c0-0.191,0-0.407,0-0.612c-0.257-0.262-0.509-0.518-0.753-0.766c-0.515,0-1.018,0-1.471,0
		c-0.771,0.496-1.751,0.533-2.268,1.38c-0.59-0.557-1.081-0.258-1.554,0.025c-0.378,0.227-0.749,0.476-1.087,0.757
		C35.965,28.65,35.075,28.997,34.704,30.045z M31.817,50.785c-0.416,0.506-0.403,0.975-0.303,1.491
		c1.109,0.394,1.295,1.311,1.25,2.269c0.131,0.131,0.208,0.207,0.319,0.319c0.354,0,0.793,0.113,1.122-0.029
		c0.39-0.169,0.684,0.107,1.005,0.032c0.687,0.387,0.67,1.299,1.365,1.718c0.378,0,0.807,0,1.006,0
		c0.379-0.238,0.619-0.39,0.82-0.516c-0.168-0.571-0.476-1.002-0.46-1.528c0.179-0.179,0.356-0.356,0.396-0.396
		c0.836-0.454,1.578-0.344,2.233-0.36c0.69-0.357,1.271-0.813,1.912-0.663c0.288-0.227,0.483-0.38,0.628-0.493
		c0.075-0.813-0.077-1.562-0.451-2.139c-0.389-0.598-0.697-1.159-0.627-1.805c-0.688-0.724-1.099,0.188-1.661,0.129
		c-0.413-0.147-0.852-0.305-1.258-0.45c-0.379,0.164-0.738,0.272-1.041,0.467c-0.187,0.118-0.34,0.2-0.565,0.209
		c-0.897,0.032-1.701,0.363-2.515,0.833c-0.854,0.031-1.062,0.11-1.712,0.676c-0.354,0-0.712,0-1.067,0
		C32.099,50.697,31.966,50.801,31.817,50.785z M20.88,33.53c0.324,0.95,0.729,1.555,0.652,2.317
		c-0.049,0.493,0.113,0.915,0.343,1.369c0.282,0.556,0.728,1.066,0.741,1.779c0.317,0.298,0.656,0.617,1.033,0.972
		c0.268-0.211,0.434,0.191,0.707,0.208c0.339-0.136,0.647-0.331,0.995-0.465c0.434-0.167,0.902-0.349,1.176-0.881
		c0.26-0.506,0.606-1.013,1.079-1.395c0.157-0.127,0.37-0.244,0.4-0.477c0.092-0.708,0.465-1.353,0.438-2.087
		c-0.018-0.502-0.003-1.005-0.003-1.399c-0.194-0.352-0.255-0.686-0.547-0.857c-0.571,0-1.146,0-1.722,0
		c-0.363-0.396-0.829-0.46-1.333-0.435c-0.359,0.018-0.765,0.112-1.07-0.018c-0.794-0.337-1.592-0.115-2.227-0.192
		c-0.306,0.239-0.502,0.393-0.662,0.517C20.88,32.949,20.88,33.345,20.88,33.53z M48.959,45.952c0-0.021-0.007,0.017,0.002,0.049
		c0.019,0.064,0.031,0.138,0.072,0.185c0.462,0.537,0.456,1.103,0.11,1.69c-0.319,0.544-0.49,1.116-0.365,1.777
		c0.188,0,0.358,0,0.566,0c0.19-0.409,0.518-0.752,0.74-1.181c0.316-0.611,0.206-1.334,0.584-1.917
		c0.05-0.076,0.036-0.212,0.015-0.313c-0.145-0.694-0.299-1.386-0.466-2.149c-0.983-0.628-1.451-1.742-2.099-2.854
		c0.048-0.627-0.407-1.328-0.23-2.068c-0.453-0.195-0.822-0.374-1.26-0.27c-0.283-0.584-0.918-0.673-1.245-1.083
		c-0.466,0-0.893,0-1.2,0c-0.561,0.232-0.378,0.63-0.396,0.983c0.557,0.426,0.854,1.052,1.237,1.626
		c0.616,0.924,1.34,1.776,2.123,2.57c0.25,0.254,0.405,0.561,0.497,0.872c0.08,0.273,0.264,0.576,0.032,0.903
		c-0.083,0.116-0.014,0.34-0.014,0.466C47.99,45.692,48.533,45.539,48.959,45.952z M34.923,42.215
		c0.397-0.366,0.632-0.684,0.634-1.068c0.006-0.806,0.284-1.471,0.852-1.923c0-0.368,0-0.649,0-0.907
		c-0.226-0.226-0.413-0.448-0.635-0.628c-0.697-0.567-1.394-1.086-2.398-0.989c-0.598,0.058-1.184-0.213-1.736-0.405
		c-0.192,0.097-0.37,0.186-0.562,0.282c-0.377,0.917-1.017,1.895-0.594,2.879c0.387,0.899,0.391,2.032,1.261,2.618
		c0.382,0,0.693,0,0.926,0c0.321-0.52,0.427-1.068,0.873-1.495c0.414,0.171,0.976-0.234,1.38,0.385
		C34.923,41.283,34.923,41.667,34.923,42.215z M43.975,11.76c-0.615-0.698-1.458-1.222-2.384-1.345
		c-0.724-0.097-1.413-0.251-2.076-0.497c-0.561-0.208-1.227-0.148-1.71-0.659C36.59,9.5,35.39,8.922,34.186,9.083
		c-0.206,0.19-0.389,0.361-0.459,0.426c-0.24,0.466-0.003,0.654,0.256,0.889c0.559,0,1.161,0,1.713,0
		c0.346,0.294,0.426,0.67,0.614,1.073c0.306-0.108,0.641,0.072,0.99-0.12c0.288-0.158,0.624-0.228,0.881-0.317
		c0.653,0.139,0.713,0.921,1.486,1.109c0.096-0.133,0.217-0.362,0.393-0.533c0.407-0.396,0.974-0.532,1.443-0.337
		c0.451,0.187,0.992,0.229,1.358,0.646c0.194,0.221,0.49,0.358,0.804,0.389c0.098,0.01,0.219,0.05,0.31-0.1
		C43.975,12.099,43.975,11.959,43.975,11.76z M43.994,49.504c0.113,0.205,0.224,0.406,0.295,0.536
		c0.599,0.299,1.179,0.332,1.786,0.272c0.328-0.679,0.367-1.479,0.81-2.122c0.495-0.722,0.486-1.451,0.016-2.198
		c-0.535,0.063-1.027,0.368-1.643,0.206C44.833,47.357,44.248,48.366,43.994,49.504z M50.256,33.804c0,0.433,0,0.865,0,1.296
		c0,0.396,0.014,0.792-0.006,1.188c-0.011,0.233-0.158,0.453-0.243,0.652c-0.173,0.409-0.206,0.793-0.165,1.171
		c0.113,0.131,0.206,0.237,0.29,0.332c0.539-0.394,0.913-0.984,0.946-1.547c0.065-1.094,0.284-2.252-0.368-3.282
		c-0.031-0.05-0.099-0.079-0.148-0.117C50.484,33.576,50.408,33.652,50.256,33.804z"/>
	
	
	
	
	
	
	
	
</g>
</svg>
