<?xml version="1.0" encoding="iso-8859-1"?>
<!-- Generator: Adobe Illustrator 16.0.0, SVG Export Plug-In . SVG Version: 6.00 Build 0)  -->
<!DOCTYPE svg PUBLIC "-//W3C//DTD SVG 1.1//EN" "http://www.w3.org/Graphics/SVG/1.1/DTD/svg11.dtd">
<svg version="1.1" id="Layer_1" xmlns="http://www.w3.org/2000/svg" xmlns:xlink="http://www.w3.org/1999/xlink" x="0px" y="0px"
	 width="72.36px" height="71.459px" viewBox="0 0 72.36 71.459" style="enable-background:new 0 0 72.36 71.459;"
	 xml:space="preserve">
<g>
	<path style="fill-rule:evenodd;clip-rule:evenodd;fill:none;" d="M-6.984,78.839c0-28.584,0-57.167,0-85.751
		c28.8,0,57.6,0,86.399,0c0,28.584,0,57.167,0,85.751C50.616,78.839,21.816,78.839-6.984,78.839z M59.567,33.039
		c-0.566-0.157-1.161,0.377-1.84,0.225c-0.306,0.442-0.789,0.134-1.181,0.276c-1.146,0.416-2.367,0.546-3.558,0.786
		c-0.437,0.088-0.843,0.228-1.251,0.376c-0.845,0.307-1.644,0.731-2.525,0.946c-0.253,0.062-0.507,0.195-0.71,0.358
		c-0.199,0.16-0.426,0.206-0.632,0.306c-0.779,0.377-1.635,0.624-2.325,1.152c-0.276,0.212-0.564,0.397-0.863,0.539
		c-0.59,0.279-1.127,0.623-1.616,1.047c-0.568,0.492-1.216,0.882-1.918,1.098c-0.394,0.12-0.811,0.271-1.081,0.492
		c-0.363,0.298-0.805,0.352-1.172,0.604c-0.438,0.301-0.812,0.655-1.197,1.009c-0.729,0.667-1.371,1.415-2.177,2.017
		c-0.605,0.451-1.292,0.822-1.811,1.36c-0.668,0.691-1.519,1.16-2.144,1.891c-0.086,0.101-0.205,0.163-0.335,0.228
		c-0.986,0.491-1.986,0.967-2.922,1.542c-1.29,0.793-2.706,1.303-4.089,1.861c-0.888,0.358-1.805,0.82-2.696,0.696
		c-0.57,0.275-1.073,0.426-1.459,0.728c-0.62,0.484-1.292,0.758-2.059,0.764c-0.299,0.002-0.458,0.287-0.776,0.244
		c-0.268-0.036-0.604-0.139-0.827,0.056c-0.264,0.229-0.542,0.138-0.809,0.134c-0.293-0.004-0.463,0.268-0.775,0.24
		c-0.536-0.048-1.082,0.024-1.617-0.023c-0.573-0.052-1.06,0.36-1.641,0.232c-0.328-0.073-0.539,0.249-0.83,0.315
		c0,0.294,0,0.581,0,0.871c0.459,0.431,0.845,0.947,1.44,1.176c0.166,0.965,0.607,1.612,1.616,1.747
		c0.147,0.02,0.274,0.199,0.401,0.298c0,0.238,0,0.453,0,0.675c0.894,0.96,1.986,1.447,3.311,1.394
		c0.288-0.013,0.648-0.11,0.848,0.022c0.336,0.224,0.672,0.223,1.004,0.179c0.409-0.056,0.724,0.19,1.097,0.247
		c0.485,0.072,0.866-0.235,1.316-0.234c0.972,0.001,1.943-0.007,2.915,0.002c0.947,0.008,1.855-0.408,2.68-0.211
		c0.937-0.479,1.73-0.874,2.701-0.909c0.415-0.016,0.896-0.079,1.303-0.213c0.907-0.296,1.836-0.442,2.763-0.631
		c0.512-0.104,1.087-0.059,1.513-0.246c0.474-0.209,0.898-0.148,1.335-0.151c0.462-0.002,0.831-0.303,1.316-0.252
		c0.712,0.075,1.438,0.021,2.157,0.019c0.286,0,0.638,0.098,0.846-0.032c0.579-0.361,1.183-0.156,1.764-0.162
		c0.579-0.005,1.208-0.234,1.746,0.195c0.502-0.114,0.91,0.287,1.423,0.232c0.583-0.063,1.167-0.034,1.751,0.183
		c0.629,0.233,1.331,0.224,1.975,0.447c0.639,0.222,1.299,0.354,1.955,0.507c0.774,0.181,1.525,0.353,2.328,0.378
		c0.637,0.021,1.157-0.242,1.604-0.563c0.632-0.454,1.003-1.213,1.683-1.644c0.719-1.263,1.746-2.296,2.582-3.469
		c0.566-0.797,1.098-1.649,0.962-2.581c0.339-0.629,1.038-0.664,1.288-1.215c0-0.145-0.038-0.301,0.006-0.43
		c0.229-0.66,0.433-1.335,0.73-1.964c0.579-1.221,1.143-2.438,1.211-3.817c0.431-0.374,0.017-0.945,0.253-1.292
		c0.31-0.457,0.076-0.891,0.187-1.285c-0.243-0.244-0.447-0.447-0.723-0.723c0.324-0.273,0.647-0.547,0.928-0.783
		c0-2.022-0.007-3.966,0.005-5.909c0.003-0.458,0-0.899-0.247-1.25c-0.367-0.185-0.694-0.35-1.07-0.539
		c-0.751,0.073-1.542,0.05-2.229-0.484C60.794,32.424,60.229,32.707,59.567,33.039z M7.476,49.969
		c0.358,0.395,0.633,0.822,0.88,1.273c0.263,0.479,0.763,0.734,1.219,0.568c0.77-0.279,1.534-0.125,2.297-0.188
		c0.174-0.015,0.356,0,0.52-0.05c0.689-0.208,1.38-0.393,2.108-0.383c0.18,0.003,0.381,0.054,0.537-0.008
		c0.888-0.357,1.857-0.341,2.761-0.632c1.334-0.431,2.794-0.456,4.018-1.255c0.104-0.067,0.323,0.017,0.4-0.059
		c0.184-0.182,0.564-0.089,0.621-0.437c-0.104-0.313-0.615-0.166-0.618-0.598c1.053-0.53,2.204-0.479,3.177-0.467
		c0.783-0.37,1.476-0.571,2.019-1.034c0.541-0.462,1.283-0.669,1.74-1.381c-0.29-0.153-0.321-0.423-0.275-0.755
		c1.306-0.504,2.382-1.453,3.637-2.1c0.259-0.134,0.274-0.393,0.256-0.547c-0.248-0.512-0.63-0.695-1.092-0.804
		c0.407-0.077,0.793-0.076,1.179-0.077c0.098,0,1.45-0.37,1.548-0.433c1.052-0.672,2.102-1.346,3.124-2
		c-0.186-0.929-0.334-0.997-2.034-1.045c-0.283-0.153-0.507-0.356-0.757-0.398c-1.522-0.253-2.813-1.035-4.146-1.731
		c-0.304-0.159-0.488-0.461-0.851-0.555c-0.943-0.242-1.782-0.738-2.641-1.181c-1.098-0.566-2.166-1.152-3.043-2.071
		c-0.357-0.375-0.855-0.665-1.307-0.972c-1.456-0.992-2.861-2.061-4.16-3.255c-0.286-0.262-0.615-0.424-0.934-0.62
		c-1.072-0.657-2.323-1.056-3.07-2.094c-0.228-0.134-0.443-0.104-0.638-0.155c-1.327-0.351-2.48-1.276-3.933-1.202
		c-0.496-0.482-0.948-0.085-1.412,0.07c-0.013,0.031-0.019,0.066-0.039,0.092C7.666,24.685,7.3,26.138,6.74,27.484
		c-0.391,0.939-0.55,1.988-0.96,2.95c-0.127,0.299-0.02,0.698-0.02,1.016c0.176,0.165,0.308,0.288,0.43,0.402
		c0,0.158,0,0.301,0,0.442c-0.282,0.283-0.563,0.563-0.797,0.797c-0.39,0.926-0.103,1.889-0.323,2.745
		c-0.249,0.962-0.253,1.921-0.125,2.83c0.128,0.911,0.12,1.813,0.211,2.689c0.088,0.619,0.699,0.712,1.034,1.086
		c0,0.141,0,0.284,0,0.518c-0.12,0.088-0.292,0.215-0.419,0.308c0,0.572,0,1.073,0,1.498c0.164,0.299,0.401,0.536,0.397,0.77
		c-0.006,0.369,0.25,0.621,0.272,0.988c0.032,0.529,0.196,1.121,0.727,1.397c0.186,0.097,0.356,0.191,0.497,0.316
		C7.326,48.794,7.572,49.407,7.476,49.969z M53.019,30.789c0.722-0.145,0.741-0.181,1.131,0.018c0.253,0.129,0.51,0.124,0.72,0.066
		c0.863-0.235,1.744-0.331,2.621-0.472c0.799-0.128,1.591-0.353,2.395-0.404c0.263-0.254,0.606-0.314,0.894-0.458
		c0.404-0.572,0.243-1.207,0.28-1.805c-1.152-0.554-2.276-1.06-3.369-1.628c-1.096-0.569-2.271-1.043-2.94-2.13
		c-0.497,0-0.929,0-1.207,0c-0.852-0.395-1.559-0.781-2.309-1.052c-0.597-0.216-1.199-0.468-1.861-0.465
		c-0.234,0.001-0.47-0.081-0.693-0.128c-1.036-0.221-2.058-0.614-3.141-0.507c-0.835,0.083-1.656-0.096-2.521,0.148
		c-0.801,0.226-1.668,0.332-2.507,0.46c-0.92,0.141-1.76,0.409-2.596,0.793c-0.42,0.193-0.869,0.433-1.392,0.301
		c-0.272,0.507-0.876,0.514-1.31,0.887c-0.699-0.114-1.341,0.219-1.992,0.51c-0.213,0.095-0.395,0.286-0.613,0.339
		c-1.206,0.297-2.404,0.604-3.456,1.305c-0.902,0.082-1.499,0.738-2.218,1.145c0,0.173,0,0.315,0,0.47
		c0.55,0.683,1.418,1.031,1.952,1.75c0.078,0.104,0.209,0.049,0.283,0.098c0.804,0.535,1.713,0.635,2.617,0.662
		c0.428,0.224,0.305,0.613,0.33,0.955c0.438,0.503,1.014,0.832,1.585,1.129c0.586,0.304,1.23,0.513,1.869,0.693
		c0.639,0.18,1.257-0.431,1.876-0.154c0.304,0.534-0.279,0.684-0.377,0.968c0.073,0.507,0.567,0.433,0.775,0.72
		c1.079-0.146,1.972,0.367,2.873,0.853c0.072,0,0.144,0,0.216,0c0.54,0,1.094,0.073,1.615-0.023
		c0.414-0.077,0.723-0.465,1.121-0.664c0.289-0.145,0.616-0.293,0.849-0.579c0.214-0.262,0.551-0.36,0.877-0.475
		c0.559-0.196,1.205-0.226,1.725-0.891c-0.275-0.275-0.562-0.562-0.846-0.845c2.01,0.204,4.012-0.247,6.111-0.699
		C52.652,31.506,52.857,31.142,53.019,30.789z M33.751,67.773c3.228,0.255,6.378-0.433,9.551-1.097
		c0.41-0.437,0.41-0.437,0.431-0.948c-0.67-0.447-1.426-0.254-2.149-0.275c-0.752-0.022-1.505-0.005-2.244-0.005
		c-0.088-0.148-0.297-0.196-0.251-0.433c0.945,0,1.879,0.04,2.807-0.015c0.541-0.032,1.049,0.1,1.518,0.266
		c0.305,0.108,0.59,0.14,0.893,0.187c0.962,0.151,1.87-0.306,2.764-0.23c0.578-0.3,1.086-0.693,1.653-0.821
		c0.557-0.126,0.888-0.479,1.316-0.754c0.448-0.288,0.823-0.601,1.123-1.006c-0.159-0.223-0.321-0.329-0.485-0.452
		c-0.386-0.291-0.836-0.074-1.202-0.238c-0.862-0.386-1.817-0.471-2.671-0.845c-0.378-0.166-0.73-0.209-1.106-0.189
		c-1.731,0.091-3.477-0.217-5.202,0.193c-0.27,0.064-0.585,0.067-0.908-0.137c-0.439-0.279-0.923,0.078-1.391,0.151
		c-1.006,0.157-2.015,0.289-3.039,0.222c-0.171-0.012-0.321,0.051-0.489,0.118c-0.907,0.361-1.857,0.61-2.823,0.727
		c-0.615,0.074-1.185,0.255-1.775,0.404c-0.717,0.183-1.426,0.415-2.176,0.517c-0.428,0.058-0.912,0.053-1.301,0.218
		c-0.826,0.35-1.667,0.416-2.536,0.392c-0.359-0.01-0.73,0.053-1.076-0.016c-0.419-0.082-0.697,0.338-1.102,0.237
		c-0.032-0.008-0.089,0.088-0.122,0.122c0,0.154,0,0.295,0,0.425c0.433,0.417,0.856,0.777,1.421,1.034
		c0.705,0.319,1.445,0.52,2.165,0.761c0.887,0.298,1.765,0.72,2.744,0.675c0.372,0.367,0.898,0.268,1.342,0.398
		c0.496,0.146,1.069,0.033,1.608,0.033c0.18,0,0.359,0,0.469,0c0.474-0.254,0.866-0.547,1.391-0.403
		C33.193,67.242,33.237,67.749,33.751,67.773z M25.959,19.224c0.191-0.381,0.383-0.763,0.564-1.124
		c-0.217-0.329-0.46-0.483-0.645-0.417c-0.386,0.344-0.649,0.579-0.878,0.783c-0.117,0.381,0.096,0.57,0.315,0.758
		C25.529,19.224,25.743,19.224,25.959,19.224z M23.875,20.313c0.176,0.356,0.456,0.55,0.765,0.404
		c0.32-0.15,0.521-0.459,0.255-0.833C24.504,19.864,24.1,19.772,23.875,20.313z"/>
	<path fill="currentColor" d="M59.567,33.039c0.662-0.332,1.228-0.615,1.836-0.919
		c0.687,0.534,1.478,0.557,2.229,0.484c0.376,0.189,0.703,0.354,1.07,0.539c0.247,0.351,0.25,0.792,0.247,1.25
		c-0.012,1.943-0.005,3.887-0.005,5.909c-0.28,0.236-0.604,0.51-0.928,0.783c0.275,0.275,0.479,0.479,0.723,0.723
		c-0.11,0.395,0.123,0.828-0.187,1.285c-0.236,0.347,0.178,0.918-0.253,1.292c-0.068,1.38-0.632,2.597-1.211,3.817
		c-0.298,0.629-0.502,1.304-0.73,1.964c-0.044,0.129-0.006,0.285-0.006,0.43c-0.25,0.551-0.949,0.586-1.288,1.215
		c0.136,0.932-0.396,1.784-0.962,2.581c-0.836,1.173-1.863,2.206-2.582,3.469c-0.68,0.431-1.051,1.189-1.683,1.644
		c-0.446,0.321-0.967,0.584-1.604,0.563c-0.803-0.025-1.554-0.197-2.328-0.378c-0.656-0.153-1.316-0.285-1.955-0.507
		c-0.644-0.224-1.346-0.214-1.975-0.447c-0.584-0.217-1.168-0.246-1.751-0.183c-0.513,0.055-0.921-0.347-1.423-0.232
		c-0.538-0.43-1.167-0.2-1.746-0.195c-0.581,0.006-1.185-0.199-1.764,0.162c-0.208,0.13-0.56,0.032-0.846,0.032
		c-0.72,0.002-1.445,0.057-2.157-0.019c-0.485-0.051-0.854,0.25-1.316,0.252c-0.437,0.003-0.861-0.058-1.335,0.151
		c-0.425,0.188-1.001,0.142-1.513,0.246c-0.927,0.188-1.856,0.335-2.763,0.631c-0.407,0.134-0.888,0.197-1.303,0.213
		c-0.971,0.035-1.765,0.431-2.701,0.909c-0.825-0.197-1.733,0.219-2.68,0.211c-0.972-0.009-1.943-0.001-2.915-0.002
		c-0.45-0.001-0.831,0.307-1.316,0.234c-0.374-0.057-0.688-0.303-1.097-0.247c-0.333,0.044-0.668,0.045-1.004-0.179
		c-0.2-0.133-0.56-0.035-0.848-0.022c-1.324,0.054-2.417-0.434-3.311-1.394c0-0.222,0-0.437,0-0.675
		c-0.127-0.099-0.254-0.278-0.401-0.298c-1.009-0.135-1.451-0.782-1.616-1.747c-0.595-0.229-0.981-0.745-1.44-1.176
		c0-0.29,0-0.577,0-0.871c0.291-0.066,0.502-0.389,0.83-0.315c0.581,0.128,1.068-0.284,1.641-0.232
		c0.535,0.048,1.082-0.024,1.617,0.023c0.313,0.027,0.482-0.244,0.775-0.24c0.267,0.004,0.545,0.096,0.809-0.134
		c0.223-0.194,0.559-0.092,0.827-0.056c0.318,0.043,0.478-0.242,0.776-0.244c0.768-0.006,1.439-0.279,2.059-0.764
		c0.386-0.302,0.889-0.452,1.459-0.728c0.892,0.124,1.809-0.338,2.696-0.696c1.384-0.559,2.8-1.068,4.089-1.861
		c0.937-0.575,1.937-1.051,2.922-1.542c0.13-0.064,0.249-0.127,0.335-0.228c0.625-0.73,1.476-1.199,2.144-1.891
		c0.52-0.538,1.206-0.909,1.811-1.36c0.807-0.602,1.449-1.35,2.177-2.017c0.386-0.354,0.759-0.708,1.197-1.009
		c0.367-0.253,0.809-0.307,1.172-0.604c0.271-0.222,0.688-0.372,1.081-0.492c0.702-0.216,1.35-0.605,1.918-1.098
		c0.489-0.424,1.026-0.768,1.616-1.047c0.299-0.142,0.587-0.327,0.863-0.539c0.69-0.528,1.546-0.774,2.325-1.152
		c0.206-0.1,0.433-0.146,0.632-0.306c0.203-0.163,0.457-0.297,0.71-0.358c0.882-0.214,1.681-0.639,2.525-0.946
		c0.408-0.148,0.814-0.289,1.251-0.376c1.19-0.24,2.411-0.37,3.558-0.786c0.392-0.142,0.875,0.166,1.181-0.276
		C58.406,33.416,59,32.882,59.567,33.039z M33.208,54.136c0.763,0.126,1.265,0.151,1.695-0.318c-0.431,0-0.835,0-1.24,0
		c0.031,0.043,0.063,0.086,0.094,0.128C33.63,53.99,33.504,54.034,33.208,54.136z M54.833,41.828
		c0.263,0.029,0.541,0.158,0.885-0.055C55.357,41.651,55.094,41.656,54.833,41.828z M35.792,49.561
		c-0.17-0.125-0.289-0.146-0.406-0.024c-0.083,0.085-0.167,0.169-0.259,0.262c0.17,0.125,0.289,0.146,0.406,0.024
		C35.616,49.738,35.7,49.654,35.792,49.561z"/>
	<path fill="currentColor" d="M7.476,49.969c0.097-0.563-0.15-1.175,0.188-1.733
		c-0.141-0.125-0.311-0.22-0.497-0.316c-0.531-0.276-0.695-0.868-0.727-1.397c-0.022-0.367-0.279-0.619-0.272-0.988
		c0.004-0.233-0.233-0.471-0.397-0.77c0-0.425,0-0.926,0-1.498c0.126-0.093,0.299-0.22,0.419-0.308c0-0.233,0-0.377,0-0.518
		c-0.334-0.374-0.946-0.467-1.034-1.086c-0.091-0.877-0.083-1.778-0.211-2.689c-0.128-0.909-0.124-1.868,0.125-2.83
		c0.221-0.856-0.066-1.819,0.323-2.745c0.234-0.234,0.515-0.514,0.797-0.797c0-0.141,0-0.284,0-0.442
		c-0.122-0.115-0.253-0.237-0.43-0.402c0-0.317-0.107-0.716,0.02-1.016c0.41-0.961,0.569-2.01,0.96-2.95
		c0.56-1.346,0.926-2.799,1.827-3.995c0.02-0.025,0.026-0.061,0.039-0.092c0.464-0.155,0.916-0.553,1.412-0.07
		c1.453-0.074,2.606,0.852,3.933,1.202c0.195,0.051,0.411,0.021,0.638,0.155c0.748,1.038,1.998,1.437,3.07,2.094
		c0.319,0.196,0.648,0.357,0.934,0.62c1.299,1.195,2.704,2.264,4.16,3.255c0.451,0.307,0.949,0.598,1.307,0.972
		c0.877,0.919,1.945,1.505,3.043,2.071c0.859,0.442,1.698,0.938,2.641,1.181c0.363,0.093,0.546,0.396,0.851,0.555
		c1.333,0.696,2.624,1.478,4.146,1.731c0.25,0.042,0.474,0.245,0.757,0.398c1.7,0.048,1.848,0.116,2.034,1.045
		c-1.021,0.654-2.072,1.328-3.124,2c-0.099,0.063-1.45,0.433-1.548,0.433c-0.386,0.001-0.772,0-1.179,0.077
		c0.461,0.108,0.844,0.292,1.092,0.804c0.018,0.154,0.003,0.413-0.256,0.547c-1.255,0.646-2.331,1.596-3.637,2.1
		c-0.046,0.332-0.015,0.602,0.275,0.755c-0.458,0.712-1.199,0.919-1.74,1.381c-0.542,0.463-1.235,0.664-2.019,1.034
		c-0.973-0.013-2.124-0.063-3.177,0.467c0.003,0.432,0.514,0.284,0.618,0.598c-0.057,0.348-0.438,0.255-0.621,0.437
		c-0.077,0.075-0.297-0.009-0.4,0.059c-1.223,0.799-2.683,0.824-4.018,1.255c-0.904,0.291-1.873,0.274-2.761,0.632
		c-0.155,0.062-0.356,0.011-0.537,0.008c-0.728-0.01-1.419,0.175-2.108,0.383c-0.164,0.05-0.346,0.035-0.52,0.05
		c-0.763,0.063-1.527-0.092-2.297,0.188c-0.456,0.166-0.956-0.09-1.219-0.568C8.108,50.792,7.833,50.364,7.476,49.969z M9.41,32.22
		c-0.428,0-0.833,0-1.185,0c0.088,0.114,0.187,0.241,0.276,0.356c0.291,0,0.598,0,0.909,0C9.41,32.44,9.41,32.344,9.41,32.22z
		 M13.459,48.114c0.025-0.036,0.051-0.072,0.077-0.108c-0.72,0-1.44,0-2.16,0c-0.001,0.036-0.002,0.072-0.004,0.108
		C12.068,48.114,12.764,48.114,13.459,48.114z M18.036,48.131c-0.484-0.14-0.97-0.256-1.437,0
		C17.079,48.131,17.558,48.131,18.036,48.131z M9.175,48.131c-0.405-0.126-0.823-0.259-1.221,0
		C8.361,48.131,8.768,48.131,9.175,48.131z"/>
	<path fill="currentColor" d="M53.019,30.789c-0.162,0.354-0.367,0.717-0.633,0.893
		c-2.1,0.452-4.102,0.902-6.111,0.699c0.284,0.284,0.57,0.57,0.846,0.845c-0.52,0.665-1.166,0.695-1.725,0.891
		c-0.326,0.114-0.663,0.213-0.877,0.475c-0.232,0.285-0.56,0.434-0.849,0.579c-0.398,0.198-0.707,0.586-1.121,0.664
		c-0.521,0.097-1.075,0.023-1.615,0.023c-0.072,0-0.144,0-0.216,0c-0.901-0.486-1.794-0.999-2.873-0.853
		c-0.208-0.287-0.702-0.212-0.775-0.72c0.098-0.284,0.681-0.434,0.377-0.968c-0.62-0.277-1.237,0.333-1.876,0.154
		c-0.639-0.18-1.283-0.389-1.869-0.693c-0.571-0.297-1.148-0.625-1.585-1.129c-0.025-0.342,0.098-0.731-0.33-0.955
		c-0.904-0.027-1.813-0.126-2.617-0.662c-0.073-0.049-0.205,0.005-0.283-0.098c-0.534-0.719-1.402-1.066-1.952-1.75
		c0-0.155,0-0.297,0-0.47c0.719-0.407,1.316-1.063,2.218-1.145c1.052-0.701,2.25-1.008,3.456-1.305
		c0.219-0.054,0.4-0.245,0.613-0.339c0.651-0.291,1.293-0.624,1.992-0.51c0.433-0.373,1.038-0.379,1.31-0.887
		c0.523,0.132,0.972-0.108,1.392-0.301c0.836-0.385,1.676-0.652,2.596-0.793c0.839-0.128,1.706-0.235,2.507-0.46
		c0.864-0.244,1.686-0.065,2.521-0.148c1.083-0.107,2.104,0.286,3.141,0.507c0.224,0.048,0.459,0.129,0.693,0.128
		c0.662-0.003,1.265,0.25,1.861,0.465c0.75,0.271,1.457,0.657,2.309,1.052c0.278,0,0.71,0,1.207,0
		c0.669,1.086,1.845,1.561,2.94,2.13c1.093,0.568,2.217,1.075,3.369,1.628c-0.037,0.598,0.124,1.233-0.28,1.805
		c-0.287,0.144-0.631,0.204-0.894,0.458c-0.804,0.051-1.596,0.275-2.395,0.404c-0.877,0.142-1.758,0.237-2.621,0.472
		c-0.21,0.057-0.467,0.063-0.72-0.066C53.76,30.608,53.741,30.644,53.019,30.789z"/>
	<path fill="currentColor" d="M33.751,67.773c-0.514-0.024-0.558-0.531-0.855-0.785
		c-0.524-0.144-0.917,0.149-1.391,0.403c-0.11,0-0.289,0-0.469,0c-0.54,0-1.112,0.113-1.608-0.033
		c-0.443-0.131-0.97-0.031-1.342-0.398c-0.979,0.045-1.856-0.377-2.744-0.675c-0.72-0.241-1.46-0.441-2.165-0.761
		c-0.565-0.257-0.988-0.617-1.421-1.034c0-0.13,0-0.271,0-0.425c0.033-0.034,0.09-0.13,0.122-0.122
		c0.405,0.101,0.683-0.319,1.102-0.237c0.346,0.068,0.717,0.006,1.076,0.016c0.87,0.024,1.71-0.042,2.536-0.392
		c0.389-0.165,0.873-0.16,1.301-0.218c0.75-0.102,1.459-0.334,2.176-0.517c0.59-0.149,1.16-0.33,1.775-0.404
		c0.966-0.116,1.917-0.365,2.823-0.727c0.168-0.067,0.318-0.13,0.489-0.118c1.024,0.067,2.033-0.064,3.039-0.222
		c0.468-0.073,0.951-0.431,1.391-0.151c0.323,0.204,0.639,0.201,0.908,0.137c1.726-0.41,3.471-0.103,5.202-0.193
		c0.376-0.02,0.729,0.023,1.106,0.189c0.854,0.374,1.809,0.459,2.671,0.845c0.366,0.164,0.816-0.053,1.202,0.238
		c0.164,0.123,0.326,0.229,0.485,0.452c-0.3,0.405-0.675,0.718-1.123,1.006c-0.429,0.275-0.76,0.628-1.316,0.754
		c-0.567,0.128-1.075,0.521-1.653,0.821c-0.894-0.075-1.802,0.382-2.764,0.23c-0.303-0.047-0.588-0.078-0.893-0.187
		C42.944,65.1,42.436,64.968,41.895,65c-0.928,0.055-1.861,0.015-2.807,0.015c-0.046,0.236,0.163,0.284,0.251,0.433
		c0.739,0,1.492-0.018,2.244,0.005c0.724,0.021,1.479-0.172,2.149,0.275c-0.021,0.512-0.021,0.512-0.431,0.948
		C40.129,67.34,36.979,68.028,33.751,67.773z"/>
	<path style="fill-rule:evenodd;clip-rule:evenodd;fill:none;" d="M33.208,54.136c0.295-0.103,0.422-0.146,0.549-0.19
		c-0.031-0.042-0.063-0.085-0.094-0.128c0.404,0,0.809,0,1.24,0C34.473,54.288,33.971,54.262,33.208,54.136z"/>
	<path style="fill-rule:evenodd;clip-rule:evenodd;fill:none;" d="M54.833,41.828c0.261-0.172,0.523-0.177,0.885-0.055
		C55.375,41.986,55.096,41.857,54.833,41.828z"/>
	<path style="fill-rule:evenodd;clip-rule:evenodd;fill:none;" d="M35.792,49.561c-0.092,0.093-0.177,0.177-0.259,0.262
		c-0.117,0.121-0.235,0.101-0.406-0.024c0.092-0.093,0.177-0.177,0.259-0.262C35.504,49.416,35.622,49.436,35.792,49.561z"/>
	<path style="fill-rule:evenodd;clip-rule:evenodd;fill:none;" d="M9.41,32.22c0,0.125,0,0.221,0,0.356c-0.312,0-0.619,0-0.909,0
		c-0.089-0.115-0.188-0.242-0.276-0.356C8.577,32.22,8.982,32.22,9.41,32.22z"/>
	<path style="fill-rule:evenodd;clip-rule:evenodd;fill:none;" d="M13.459,48.114c-0.696,0-1.392,0-2.087,0
		c0.001-0.036,0.003-0.072,0.004-0.108c0.72,0,1.44,0,2.16,0C13.511,48.042,13.485,48.078,13.459,48.114z"/>
	<path style="fill-rule:evenodd;clip-rule:evenodd;fill:none;" d="M18.036,48.131c-0.479,0-0.958,0-1.437,0
		C17.066,47.875,17.552,47.992,18.036,48.131z"/>
	<path style="fill-rule:evenodd;clip-rule:evenodd;fill:none;" d="M9.175,48.131c-0.407,0-0.814,0-1.221,0
		C8.353,47.873,8.77,48.005,9.175,48.131z"/>
</g>
</svg>
