<svg xmlns="http://www.w3.org/2000/svg" xml:space="preserve" width="72px" height="72px" viewBox="0 0 72 72">
    <g fill="currentColor">
        <path d="m59.567 33.039 1.836-.919c.687.534 1.478.557 2.229.484l1.07.539c.247.351.25.792.247 1.25-.012 1.943-.005 3.887-.005 5.909l-.928.783.723.723c-.11.395.123.828-.187 1.285-.236.347.178.918-.253 1.292-.068 1.38-.632 2.597-1.211 3.817-.298.629-.502 1.304-.73 1.964-.044.129-.006.285-.006.43-.25.551-.949.586-1.288 1.215.136.932-.396 1.784-.962 2.581-.836 1.173-1.863 2.206-2.582 3.469-.68.431-1.051 1.189-1.683 1.644-.446.321-.967.584-1.604.563-.803-.025-1.554-.197-2.328-.378-.656-.153-1.316-.285-1.955-.507-.644-.224-1.346-.214-1.975-.447-.584-.217-1.168-.246-1.751-.183-.513.055-.921-.347-1.423-.232-.538-.43-1.167-.2-1.746-.195-.581.006-1.185-.199-1.764.162-.208.13-.56.032-.846.032-.72.002-1.445.057-2.157-.019-.485-.051-.854.25-1.316.252-.437.003-.861-.058-1.335.151-.425.188-1.001.142-1.513.246-.927.188-1.856.335-2.763.631a5 5 0 0 1-1.303.213c-.971.035-1.765.431-2.701.909-.825-.197-1.733.219-2.68.211-.972-.009-1.943-.001-2.915-.002-.45-.001-.831.307-1.316.234-.374-.057-.688-.303-1.097-.247-.333.044-.668.045-1.004-.179-.2-.133-.56-.035-.848-.022-1.324.054-2.417-.434-3.311-1.394v-.675c-.127-.099-.254-.278-.401-.298-1.009-.135-1.451-.782-1.616-1.747-.595-.229-.981-.745-1.44-1.176v-.871c.291-.066.502-.389.83-.315.581.128 1.068-.284 1.641-.232.535.048 1.082-.024 1.617.023.313.027.482-.244.775-.24.267.004.545.096.809-.134.223-.194.559-.092.827-.056.318.043.478-.242.776-.244.768-.006 1.439-.279 2.059-.764.386-.302.889-.452 1.459-.728.892.124 1.809-.338 2.696-.696 1.384-.559 2.8-1.068 4.089-1.861.937-.575 1.937-1.051 2.922-1.542.13-.064.249-.127.335-.228.625-.73 1.476-1.199 2.144-1.891.52-.538 1.206-.909 1.811-1.36.807-.602 1.449-1.35 2.177-2.017.386-.354.759-.708 1.197-1.009.367-.253.809-.307 1.172-.604.271-.222.688-.372 1.081-.492.702-.216 1.35-.605 1.918-1.098a7 7 0 0 1 1.616-1.047c.299-.142.587-.327.863-.539.69-.528 1.546-.774 2.325-1.152.206-.1.433-.146.632-.306.203-.163.457-.297.71-.358.882-.214 1.681-.639 2.525-.946a8.5 8.5 0 0 1 1.251-.376c1.19-.24 2.411-.37 3.558-.786.392-.142.875.166 1.181-.276.681.153 1.275-.381 1.842-.224M33.208 54.136c.763.126 1.265.151 1.695-.318h-1.24l.094.128zm21.625-12.308c.263.029.541.158.885-.055-.361-.122-.624-.117-.885.055m-19.041 7.733c-.17-.125-.289-.146-.406-.024l-.259.262c.17.125.289.146.406.024z"/>
        <path d="M7.476 49.969c.097-.563-.15-1.175.188-1.733a2.4 2.4 0 0 0-.497-.316c-.531-.276-.695-.868-.727-1.397-.022-.367-.279-.619-.272-.988.004-.233-.233-.471-.397-.77v-1.498l.419-.308v-.518c-.334-.374-.946-.467-1.034-1.086-.091-.877-.083-1.778-.211-2.689-.128-.909-.124-1.868.125-2.83.221-.856-.066-1.819.323-2.745l.797-.797v-.442l-.43-.402c0-.317-.107-.716.02-1.016.41-.961.569-2.01.96-2.95.56-1.346.926-2.799 1.827-3.995.02-.025.026-.061.039-.092.464-.155.916-.553 1.412-.07 1.453-.074 2.606.852 3.933 1.202.195.051.411.021.638.155.748 1.038 1.998 1.437 3.07 2.094.319.196.648.357.934.62 1.299 1.195 2.704 2.264 4.16 3.255.451.307.949.598 1.307.972.877.919 1.945 1.505 3.043 2.071.859.442 1.698.938 2.641 1.181.363.093.546.396.851.555 1.333.696 2.624 1.478 4.146 1.731.25.042.474.245.757.398 1.7.048 1.848.116 2.034 1.045-1.021.654-2.072 1.328-3.124 2-.099.063-1.45.433-1.548.433-.386.001-.772 0-1.179.077.461.108.844.292 1.092.804.018.154.003.413-.256.547-1.255.646-2.331 1.596-3.637 2.1-.046.332-.015.602.275.755-.458.712-1.199.919-1.74 1.381-.542.463-1.235.664-2.019 1.034-.973-.013-2.124-.063-3.177.467.003.432.514.284.618.598-.057.348-.438.255-.621.437-.077.075-.297-.009-.4.059-1.223.799-2.683.824-4.018 1.255-.904.291-1.873.274-2.761.632-.155.062-.356.011-.537.008-.728-.01-1.419.175-2.108.383-.164.05-.346.035-.52.05-.763.063-1.527-.092-2.297.188-.456.166-.956-.09-1.219-.568a6.5 6.5 0 0 0-.88-1.277M9.41 32.22H8.225l.276.356h.909zm4.049 15.894.077-.108h-2.16l-.004.108zm4.577.017c-.484-.14-.97-.256-1.437 0zm-8.861 0c-.405-.126-.823-.259-1.221 0zm43.844-17.342c-.162.354-.367.717-.633.893-2.1.452-4.102.902-6.111.699l.846.845c-.52.665-1.166.695-1.725.891-.326.114-.663.213-.877.475-.232.285-.56.434-.849.579-.398.198-.707.586-1.121.664-.521.097-1.075.023-1.615.023h-.216c-.901-.486-1.794-.999-2.873-.853-.208-.287-.702-.212-.775-.72.098-.284.681-.434.377-.968-.62-.277-1.237.333-1.876.154s-1.283-.389-1.869-.693c-.571-.297-1.148-.625-1.585-1.129-.025-.342.098-.731-.33-.955-.904-.027-1.813-.126-2.617-.662-.073-.049-.205.005-.283-.098-.534-.719-1.402-1.066-1.952-1.75v-.47c.719-.407 1.316-1.063 2.218-1.145 1.052-.701 2.25-1.008 3.456-1.305.219-.054.4-.245.613-.339.651-.291 1.293-.624 1.992-.51.433-.373 1.038-.379 1.31-.887.523.132.972-.108 1.392-.301a9.6 9.6 0 0 1 2.596-.793c.839-.128 1.706-.235 2.507-.46.864-.244 1.686-.065 2.521-.148 1.083-.107 2.104.286 3.141.507.224.048.459.129.693.128.662-.003 1.265.25 1.861.465.75.271 1.457.657 2.309 1.052h1.207c.669 1.086 1.845 1.561 2.94 2.13 1.093.568 2.217 1.075 3.369 1.628-.037.598.124 1.233-.28 1.805-.287.144-.631.204-.894.458-.804.051-1.596.275-2.395.404-.877.142-1.758.237-2.621.472a1 1 0 0 1-.72-.066c-.39-.201-.409-.165-1.131-.02M33.751 67.773c-.514-.024-.558-.531-.855-.785-.524-.144-.917.149-1.391.403h-.469c-.54 0-1.112.113-1.608-.033-.443-.131-.97-.031-1.342-.398-.979.045-1.856-.377-2.744-.675-.72-.241-1.46-.441-2.165-.761-.565-.257-.988-.617-1.421-1.034v-.425c.033-.034.09-.13.122-.122.405.101.683-.319 1.102-.237.346.068.717.006 1.076.016.87.024 1.71-.042 2.536-.392.389-.165.873-.16 1.301-.218.75-.102 1.459-.334 2.176-.517.59-.149 1.16-.33 1.775-.404a11.2 11.2 0 0 0 2.823-.727c.168-.067.318-.13.489-.118 1.024.067 2.033-.064 3.039-.222.468-.073.951-.431 1.391-.151.323.204.639.201.908.137 1.726-.41 3.471-.103 5.202-.193.376-.02.729.023 1.106.189.854.374 1.809.459 2.671.845.366.164.816-.053 1.202.238.164.123.326.229.485.452-.3.405-.675.718-1.123 1.006-.429.275-.76.628-1.316.754-.567.128-1.075.521-1.653.821-.894-.075-1.802.382-2.764.23-.303-.047-.588-.078-.893-.187-.467-.165-.975-.297-1.516-.265-.928.055-1.861.015-2.807.015-.046.236.163.284.251.433.739 0 1.492-.018 2.244.005.724.021 1.479-.172 2.149.275-.021.512-.021.512-.431.948-3.172.664-6.322 1.352-9.55 1.097"/>
    </g>
</svg>
