<svg xmlns="http://www.w3.org/2000/svg" xml:space="preserve" width="72px" height="72px" viewBox="0 0 72 72">
    <g fill="currentColor">
        <path d="M20.48 46.224c-.612 0-1.229-.048-1.835.01-1.318.125-2.597-.282-3.908-.234-.349.013-.715-.149-.881-.447-.538-.964-1.344-1.689-2.051-2.507a5.6 5.6 0 0 1-.668-1.006c-.333-.618-.664-1.244-1.03-1.849-.482-.796-.684-1.728-.935-2.638-.233-.848-.109-1.7-.34-2.546-.22-.804-.021-1.716-.055-2.579-.028-.706.149-1.36.373-2.01.132-.384.015-.776.071-1.159.081-.552-.158-1.116.144-1.669.267-.488-.166-1.131.284-1.608-.066-.511.168-1.064-.216-1.531.015-.066.015-.141.048-.195.28-.461.115-1.116.612-1.472.451-.323.547-.86.822-1.286.285-.443.43-.974.687-1.438.166-.299.421-.547.639-.817.547-.677 1.04-1.396 1.659-2.018.189-.19.38-.149.636-.165.812-1.039 2.03-1.699 2.901-2.726-.15-.499-.597-.888-.413-1.483.352-.546 1.005-.754 1.513-1.149.52-.405.981-.897 1.645-1.305h1.237c.49.486 1.274.339 1.909.662.621.519 1.139 1.201 1.998 1.438.528.084 1.067.003 1.632.206.397.142.983.227 1.408-.174 1.037.029 2.104-.165 3.051.426.225.069.27-.203.46-.213.632-.035 1.232.134 1.787.383 1.25.56 2.533 1.068 3.638 1.903.229.173.594-.038.741.3.939-.142 1.645.613 2.535.667.118.007.226.141.344.207.56.311 1.094.697 1.783.646.136-.01.18.096.258.161.558.454 1.188.723 1.877.951.654.217 1.255.642 1.827 1.048.336.239.705.476 1.061.565a2.93 2.93 0 0 1 1.627 1.029c.322.397.804.521 1.215.733.458.235.828.451 1.138.907.266.39.573.785.864 1.169.303.399.354.864.093 1.422-.335.712-.84 1.422-.656 2.297.435.459.986.831 1.214 1.443.198.535.794.884.708 1.543.446.315.501.884.864 1.351-.154.74.304 1.483.231 2.307-.072.822.01 1.656-.027 2.482-.018.399.168.752.271 1.085.153.489.175.955.166 1.437a7.7 7.7 0 0 0 .42 2.635c.109.323.039.716.013 1.073-.046.636.115 1.217.328 1.811.274.762.572 1.531.541 2.368-.007.179.094.325.139.479.269.918.58 1.842.502 2.815-.085 1.065.386 2.085.224 3.15.306.439.2.94.217 1.426-.653.565-.668 1.33-.649 2.104.432.444.143.888.003 1.334-.021.065-.003.144-.003.242-.495.448-.891 1.061-1.646 1.207-1.061-.536-1.978-1.29-3.036-1.814A6.1 6.1 0 0 0 50.573 57c-.961-.139-1.904-.42-2.845-.682-.555-.154-1.095-.446-1.676-.356-.396.062-.62-.295-.995-.248-.334.042-.659-.056-1.001-.163-.492-.154-1.068-.04-1.6-.04l-1.226-.639c-.721.007-1.44-.301-2.193-.502-1.071-.285-2.073-.912-3.235-.793-.375.039-.633-.215-.987-.261-.806-.104-1.597-.314-2.414-.423-.96-.128-1.901-.427-2.835-.702-.38-.112-.724-.319-1.067-.571a7.6 7.6 0 0 0-2.037-1.056c-.911-.311-1.666-.866-2.464-1.351-.946-.574-1.652-1.438-2.438-2.203-.3-.29-.548-.646-1.08-.786m1.639-16.564c-1.325-.64-2.551-1.34-3.397-2.504v-1.984c-.686-.939-1.454-1.836-1.354-3.083-.137-.372-.429-.259-.593-.268l-.632-.521c-.087-.583.315-.747.569-1.02h.904c.445-.608.875-1.233 1.343-1.826.459-.582 1.089-.987 1.7-1.373.611-.385 1.405-.443 1.989-1.026-.451-.167-.945.057-1.333-.275-.099-.084-.307.034-.477.115-1.244.594-2.326 1.414-3.366 2.303-.341.292-.663.604-1.027.879-.616.465-1.311.977-1.421 1.962.567.5 1.033 1.123 1.108 1.857-.291.566-.759.836-1.213 1.081-.771.414-1.078 1.007-.959 1.663.491 1.302 1.655 1.708 2.385 2.55v1.227l-.847.836.437.908c.673.508 1.334.828 1.766 1.423.51.099.738.202 1.204.539.075.594.067 1.163-.311 1.683-.171.236-.155.54-.015.793.508.921.916 1.929 2.029 2.403.749-.052 1.508.329 2.331.242.795-.084 1.567-.405 2.171-.252.789-.174 1.078-.698 1.5-1.054h.86l.5.499c.211 1.587-.316 3.072-.407 4.562.345.345.64.66.958.952.315.289.386.721.624 1.034.331.436.726.902 1.327.918.262.007.336.259.575.24.225-.121.495-.373.742-.19.416.308.959.086 1.321.479.458-.26.887-.459 1.266-.729 1.016-.725 1.179-1.871 1.401-2.978.026-.129.021-.311-.051-.404-.3-.388-.275-.928-.117-1.21.243-.433.102-.828.172-1.229.048-.275-.072-.566.038-.795l.288-.288c.733 0 1.486.015 2.239-.007a.72.72 0 0 1 .635.289c.182.932-.195 1.91.272 2.843-.233.235-.574.441-.429.883.621.382 1.368.668 1.7 1.401.301.665.751 1.252.897 2.009.124.633.652 1.063 1.277 1.195.273.058.471.283.77.25.283-.031.572-.007.848-.007.265-.31.69-.299.956-.537.017-.391.378-.509.524-.72h.933c.274.52.446 1.021.786 1.463.336.437.592.884 1.14 1.141.549.257.719.933 1.154 1.341.026.024.047.063.077.074.754.281 1.438.768 2.306.705.271-.02.586-.129.829.066.295.237.583.121.919.097.249-.497.56-.954.708-1.46.18-.616.458-1.26.341-1.902-.238-1.305-.797-2.515-1.881-3.299-.604-.438-.962-.908-1.061-1.577.08-.78.421-1.503.387-2.317-.014-.304-.225-.485-.258-.771-.037-.325.197-.51.241-.773-.203-.236-.229-.583-.51-.745-.754-.4-1.769-.247-2.311-1.093.033-.478.04-.929-.303-1.349h-.808c-.688-.357-1.18-.817-1.877-.976-.734-.167-.718-.239-1.092-.882.252-.086.12-.396.305-.49.95-.695 1.889.179 2.786-.042.461.421 1.051.396 1.464.689 1.715-1.046 1.715-1.046 1.675-2.682-.229-.443-.436-.827-.629-1.216-.515-1.041-1.299-1.627-2.509-1.539-.356.026-.716.004-1.056.004l-.287-.286v-1.206c.44-.248.875-.418 1.37-.465.938-.951.915-1.094.35-2.306-.165-.355-.399-.432-.655-.57-.534-.291-1.115-.694-1.698-.528-.562.159-1.097.151-1.726.183-.057-.071-.137-.192-.237-.292-.473-.469-.96-.916-.911-1.683.013-.194-.194-.353-.492-.428l-.223.443-.116-.115-.041.723-.416.371c1.717 1.552 1.478 1.973.906 3.498.314.524.395.622 1 .933 1.063.546 1.299 1.726.15 2.55-.249.179-.476.391-.732.56-.248.165-.266.4-.218.635.174.498.739.511 1.067.919-.012.748-.343 1.443-.644 2.155-.142.334-.354.684-.189 1.103.546.487 1.377.138 1.979.653.563.481 1.471.224 2.066.792v1.269c-.36-.324-.364.229-.734.149-.207-.331-.71-.137-.99-.448-.203.158-.412.246-.416.494l.406.771c-.235.084-.144.319-.248.45-.391.22-.832.26-1.231.315-.318.454-.248 1.118-.924 1.25-.358.009-.624-.287-.963-.392-.282.513-.237 1.239-1.005 1.48a1.9 1.9 0 0 1-1.188-.766c-.138-.624.023-1.198-.195-1.811-.184-.512-.45-1.097-.262-1.646l-.76-.76c-.273 0-.669-.119-.824.023-.377.348-.855.141-1.269.368-.358.196-.91.041-1.229.041-.726-.32-.779-.978-1.091-1.461-.237-.367-.403-.737-.982-.693l-1.375 1.379c-.718.317-1.143-.145-1.626-.081-.893.119-1.7-.205-2.52-.447-.68-.202-1.095-.656-1.074-1.416.002-.104.023-.217-.092-.287-.2.03-.327-.09-.444-.231h-1.708c-.64-.583-1.344-.972-2.111-.875-.595-.327-.635-.939-1.035-1.183-.044-.518.393-.855.154-1.336m-1.84-5.816c.137.575.481.987.644 1.521.273.893.77 1.696 1.681 2.215.669.38 1.406.669 2.002 1.159.584.48 1.19.914 1.875 1.301.652-.174 1.253.23 1.908.257.884.717 1.972.657 3.009.82.587.092 1.071-.316 1.64-.235.045.007.103-.077.15-.115.087-.329-.07-.55-.324-.741-.505.01-1.037-.099-1.454.229l-.81-.765c0-.165-.011-.311.003-.453.017-.169-.075-.359.067-.492.893-.595.964-.712 1.011-1.646.38-.423.92-.769.863-1.462.626-1.344 2.105-2.364 3.851-1.162v1.13a.85.85 0 0 1-.559.356c-.254.432-.349.891-.245 1.329.273.402.385.876.901.996.463.108.906.344 1.327.083l.558-.379c0-.282.015-.464-.005-.642-.021-.201.175-.33.187-.458.063-.688.159-1.403-.408-1.968-.251-.249-.433-.535-.421-.904.017-.492-.259-.83-.567-1.17-.638-.706-1.46-1.244-1.918-2.116a.5.5 0 0 0-.329-.237c-.602-.161-.97-.652-1.41-1.018-1.278-.566-2.715-.721-3.972-1.571-.854.096-1.803-.122-2.748.194-.346.116-.824.158-1.225-.126-.146-.104-.463-.133-.608-.043-.433.267-1.004.217-1.375.635-.512-.022-1.034-.036-1.451.369-.607.589-1.282 1.151-1.651 1.908-.273.56-.597 1.231-.419 1.847.129.45.144.878.222 1.354m2.573 21.219c.042.043.108.085.142.146.618 1.098 1.696 1.688 2.635 2.439.469.376 1.096.361 1.528.742a2.6 2.6 0 0 0 1.254.602c.491.082.813.514 1.326.481.229-.015.39.214.664.224.891.031 1.705.35 2.486.822.32.144.768-.182 1.06.239.439-.089.788.155 1.172.295.44.16.868.336 1.362.378.596.051 1.188.231 1.777.366 1.223.278 2.4.837 3.689.725.492.07.705.594 1.259.648.469.047.937.198 1.425.186.133-.003.262-.001.407.054.643.24 1.299.437 2.003.377.176-.015.425-.064.52.026.346.334.788.042 1.107.205.403.207.805.222 1.214.189.539-.043 1.01.154 1.473.36.725.322 1.469.523 2.195.522.524.253.664 1.045 1.437.805v-1.996l-.467-.764c-.567 0-1.136-.008-1.705.003-.522.01-1.083-.115-1.46-.363-.887-.583-1.885-.851-2.824-1.274a1 1 0 0 0-.394-.092c-.483-.012-.978.066-1.421-.216-.405-.259-.9-.259-1.343-.395-.735-.225-1.499-.474-2.29-.466-.87.01-1.714-.172-2.51-.461-.62-.226-1.199-.511-1.879-.407-.158.024-.267-.131-.368-.142-.647-.063-1.218-.422-1.846-.493-1.05-.12-2.036-.46-3.044-.731-.623-.168-1.241-.626-1.854-.12-.624-.113-.943-.547-1.308-.891-.198 0-.403.058-.553-.009-.852-.375-1.591-.998-2.545-1.147-.831-.687-1.675-1.357-2.486-2.065-.481-.42-.911-.899-1.336-1.325l-.501.032zm-2.54-3.597c-.676.14-1.463-.249-2.186.222-1.495.093-2.908-.07-4.007-1.251-.355-.382-.678-.792-1.012-1.188-.603-.712-.85-1.617-1.428-2.325-.136-.167-.069-.336-.086-.504a1.14 1.14 0 0 0-.631-.949c.277 1.115.584 2.214.654 3.145l1.787 3.284c.523.613 1.463 1.417 2.75 1.942.678-.082 1.423.173 2.204.451.654-.545 1.616-.273 2.306-.779.01-.439-.088-.871.264-1.177-.248-.285-.271-.63-.615-.871m20.834-20.44v-1.381c-.766-.276-1.345-.813-1.926-1.345-.269.268-.563.419-.641.745.144.227.295.366.566.434.247.062.562.238.654.448.166.375.458.609.71.893.229.257.417.542.454.89.048.462.335.567.738.539.139-.142.364-.225.342-.585-.391-.003-.584-.354-.897-.638m-3.136-1.764c-.323-.275-.684-.486-.904-.796-.244-.343-.359-.777-.503-1.106-.843-.473-1.62-1.128-2.633-.303.488.587 1.146.59 1.986.748l1.622 1.621c.053-.013.205.074.432-.164m-18.079-5.89c.409-.521 1.082-.6 1.649-1.027h-2.348c-.413.483-.408.486.002 1.027zm11.877 2.382c-.111.44-.633.042-.796.393.098.342.379.502.601.708.319-.05.648.087.929-.102v-.767c-.313.193-.381-.188-.734-.232m-2.936.194h1.482l-.556-.36h-1.287c.086.084.175.174.361.36"/>
        <path d="M45.751 40.709c.24-.456.764-.216 1.019-.535.308.168.623.307.987.184.474.605 1.113.969 1.748 1.295.265.135.54.275.642.494.232.504.632.846 1.02 1.189.507.45.744 1.169 1.306 1.494.617.357.663 1.085 1.216 1.461v1.572c-.273.16-.417.518-.608.837-.201.336-.635.269-.788.57-.918-.311-1.547-.894-2.146-1.53-.428-.454-.566-1.079-.97-1.544-.546-.63-.832-1.477-1.604-1.917-.103-.059-.094-.168-.132-.26-.314-.762-.851-1.382-1.322-2.043-.282-.394-.536-.801-.368-1.267m-14.479 2.275c-.778-.31-1.225-.767-1.536-1.527 0-.065.014-.278-.002-.488-.051-.693.147-1.253.637-1.79.424-.464.693-1.071 1.083-1.587.524-.692.708-.873 1.579-1.102.572.376.785.97.802 1.639.024.931-.025 1.864.015 2.793.038.872-1.284 2.125-1.994 2.065-.215-.019-.431-.003-.584-.003m19.869-12.215c-.696.506-.953 1.709-2.328 1.367-.477-.756-1.386-.85-2.246-1.026-.666-.136-1.005-.288-1.463-.746-.127-.432.048-.772.262-1.159.356-.27.833-.272 1.321-.264.788.014 1.576.001 2.364.004 1.094.004 1.775.578 2.09 1.824m-25.078 3.602v.729c-.458.538-1.183.762-1.554 1.361-.843.16-1.707-.149-2.571.247-.198-.207-.566-.147-.86-.323-.359-.214-.038-.715-.417-.9.194-.688.595-1.049 1.34-1.181.372-.066.811-.222 1.165-.57.347-.342.895-.365 1.405-.051.446.276.957.447 1.492.688m21.058-8.451h-1.426l-1.152-.598c-.291-.186.088-.625-.275-.722-.018-.06-.039-.099-.03-.109.123-.129.229-.301.38-.372.72-.336 1.35-.937 2.311-.768.227.072.271.56.644.412.594.894.221 1.531-.452 2.157m3.58 14.688h-.792l-.319-.429h-.52c-.299-.307-.6-.614-1.069-1.097-.023-.027.292-.411-.17-.512.251-.138.269-.315.304-.485.416-.324.895-.324 1.361-.268.591.493 1.598.407 1.828 1.36v.918zm-8.126 1.314h1.079c.729.134.812 1.011 1.407 1.343v1.15l-.613.493h-.753c-.745-.41-.896-1.283-1.332-1.952-.224-.343-.178-.733.212-1.034m-22.35-11.833v.895c-.151.355-.518.409-.772.521-.3.132-.754.137-1.049 0-.416-.193-.977-.21-1.193-.814-.034-.379-.022-.825.331-1.288 1.012-.638 1.83-.025 2.683.686m-2.407-4.068c-.17.368-.592.229-.674.531-.651.083-1.26.001-1.63-.518-.322-.452-.421-1.008.276-1.751.326-.265.889-.121 1.391.429.169.186.479.127.637.457z"/>
    </g>
</svg>
