<?xml version="1.0" encoding="iso-8859-1"?>
<!-- Generator: Adobe Illustrator 16.0.0, SVG Export Plug-In . SVG Version: 6.00 Build 0)  -->
<!DOCTYPE svg PUBLIC "-//W3C//DTD SVG 1.1//EN" "http://www.w3.org/Graphics/SVG/1.1/DTD/svg11.dtd">
<svg version="1.1" id="Layer_1" xmlns="http://www.w3.org/2000/svg" xmlns:xlink="http://www.w3.org/1999/xlink" x="0px" y="0px"
	 width="72.36px" height="71.459px" viewBox="0 0 72.36 71.459" style="enable-background:new 0 0 72.36 71.459;"
	 xml:space="preserve">
<g>
	<path style="fill-rule:evenodd;clip-rule:evenodd;fill:none;" d="M-6.984,78.839c0-28.584,0-57.167,0-85.751
		c28.8,0,57.6,0,86.399,0c0,28.584,0,57.167,0,85.751C50.616,78.839,21.816,78.839-6.984,78.839z M48.092,66.528
		c-0.457,0-0.917,0-1.386,0c-0.195,0.224-0.505,0.363-0.582,0.763c0.116,0.098,0.246,0.208,0.452,0.383
		c0.223-0.419,0.637-0.235,1-0.297c0.161-0.257,0.548-0.354,0.506-0.852c0.375,0.073,0.559-0.237,0.962-0.321
		C48.503,65.993,48.24,66.13,48.092,66.528z M31.911,24.624c-0.156,0.301-0.309,0.596-0.458,0.884
		c0.188,0.263,0.228,0.595,0.517,0.804c0.284,0.007,0.564,0.12,0.886,0.302c0.176-0.492,0.619-0.141,0.972-0.335
		c0.159-0.167,0.357-0.376,0.542-0.571c0.164,0,0.307,0,0.454,0c0.096,0.196,0.19,0.391,0.292,0.601
		c-0.291,0.186-0.55,0.351-0.819,0.523c0,0.397,0,0.783,0,1.162c0.246,0.221,0.288,0.536,0.457,0.861
		c-0.249,0.2-0.499,0.4-0.634,0.509c-0.178,0.594,0.074,0.941,0.232,1.254c0.459,0.19,0.933,0.569,1.265-0.259
		c-0.364-0.398-0.164-1.032-0.498-1.5c0.34-0.384,0.87-0.441,1.152-1.1c0.267-0.343-0.371-0.775-0.248-1.376
		c0.424,0.018,0.598-0.353,0.865-0.619c0-0.301,0-0.583,0-0.919c0.518,0.102,0.777-0.245,1.09-0.593
		c-0.242-0.303,0.184-0.462,0.183-0.741c0-0.321,0-0.642,0-0.915c0.129-0.142,0.225-0.248,0.32-0.353
		c0.109,0.11,0.212,0.212,0.352,0.352c0,0.708,0,1.454,0,2.158c0.357,0.382,0.78,0.498,1.221,0.574
		c0.069,0.328,0.291,0.589,0.282,0.969c-0.035,1.578-0.015,3.157-0.015,4.612c-0.371,0.717-0.831,1.306-0.628,2.024
		c0.139,0.487,0.556,0.824,1.025,0.966c1.061-0.271,1.401-1.29,2.101-1.941c0.163,0.275,0.067,0.528,0.091,0.77
		c-0.051,0.051-0.115,0.094-0.15,0.154c-0.482,0.818-1.084,1.559-1.611,2.346c-0.452,0.674-0.749,1.325-0.952,2.105
		c-0.146,0.559,0.047,0.909,0.142,1.137c0.491,0.506,0.953,0.41,1.373,0.361c0.37-0.08,0.618-0.32,0.85-0.572
		c0.319,0,0.633,0,0.941,0c0.104,0.264,0.058,0.508,0.049,0.643c-0.563,0.678-0.526,1.63-1.308,2.021
		c0.179,0.394-0.18,0.607-0.21,0.925c-0.048,0.5-0.155,0.993-0.547,1.393c-0.402,0.411-0.302,0.972-0.297,1.49
		c0,0.06,0.055,0.119,0.084,0.179c0.197,0.264,0.547,0.261,0.785,0.452c0.262-0.305,0.84-0.068,0.978-0.471
		c0.191-0.561,0.718-0.704,1.062-1.062c0.372-0.387,0.797-0.654,1.286-0.822c0.558-0.19,0.94-0.655,1.514-0.94
		c0.298,0.543,0.329,1.191,0.756,1.517c0.055,0.499-0.369,0.714-0.354,1.085c0.196,0.274,0.529,0.31,0.822,0.51
		c0.212-0.364,0.688-0.134,0.975-0.468c0.275-0.321,0.415-0.694,0.563-0.982c0.508-0.376,1.034-0.33,1.65-0.3
		c0.163-0.204,0.364-0.454,0.473-0.59c0.899-0.288,0.739,0.604,1.173,0.787c0.909,0.136,1.291-1.038,2.035-0.882
		c0.354-0.335,0.611-0.578,0.896-0.846c0.032-0.105-0.117-0.31,0.114-0.405c1.763,0.854,1.889,1.118,4.027,1.07
		c0.318,0.166,0.585,0.306,0.84,0.438c0.433-0.266,0.896-0.65,1.341-0.416c0.497,0.262,0.938,0.112,1.284,0.175
		c0.403-0.494,0.433-0.961,0.321-1.496c-0.398-0.368-1.077-0.12-1.42-0.524c-0.262-0.9,0.548-1.589,0.359-2.478
		c-0.513-0.27-0.703-0.832-1.024-1.277c-0.236-0.327-0.475-0.77-0.066-1.238c0.087-0.101,0.258-0.313,0.262-0.523
		c-0.093-0.358-0.419-0.613-0.441-0.964c0.133-0.139,0.231-0.243,0.33-0.347c0.492,0.505,0.964,1.042,1.763,0.832
		c0.426-0.399,0.563-0.881,0.506-1.406c0.242-0.225,0.452-0.42,0.644-0.598c0-0.244,0-0.458,0-0.706
		c-0.326-0.286-0.804-0.408-1.1-0.913c0-0.208,0-0.522,0-0.838c-0.546-0.081-0.727-0.554-1.038-0.78
		c-0.175-0.772-0.229-0.997-0.597-1.228c-0.735-0.461-1.388-1.126-2.352-1.075c-0.793-0.787-1.618-1.545-1.645-2.723
		c-0.297-0.296-0.551-0.55-0.814-0.814c0-0.276,0-0.562,0-0.899c-0.22-0.188-0.463-0.396-0.668-0.57c0-0.438,0-0.795,0-1.233
		c-0.332,0.062-0.532-0.217-0.824-0.301c0.018-0.286-0.191-0.502-0.276-0.751c-0.198-0.58-0.434-1.14-1.065-1.507
		c-0.513-0.298-1.18-0.446-1.492-1.046c-0.039-0.167,0.111-0.244,0.162-0.364c0.064-0.147,0.043-0.331,0.047-0.37
		c-0.211-0.47-0.692-0.395-0.866-0.757c0.027-0.927,0.021-1.853-0.359-2.751c-0.164-0.386-0.419-0.604-0.722-0.876
		c-0.409,0.195-0.822,0.264-1.075,0.642c0.022,0.585-0.106,1.192,0.252,1.689c-0.443,1.156-1.195,2.077-1.647,3.141
		c-0.236,0-0.451,0-0.733,0c-0.171-0.536-0.864-0.55-1.124-1.007c-0.267-0.468-0.72-0.705-1.089-1.027
		c-0.407-0.355-0.486-1.015-0.995-1.177c-0.597-0.189-0.511-0.944-1.041-1.093c-0.569-0.16-0.769-0.702-1.14-0.943
		c-0.204-0.932-0.449-1.747-1.246-2.292c-0.206-0.011-0.447-0.025-0.675-0.038c-0.233-0.574,0.319-0.888,0.36-1.261
		c-0.274-0.85-0.627-1.573-1.133-2.13c-0.446,0-0.832,0-1.246,0c-0.358,0.705-0.707,1.39-1.068,2.101
		c0,0.365-0.044,0.767,0.012,1.155c0.057,0.388-0.111,0.743-0.307,0.946c-0.368,0.383-0.421,0.854-0.548,1.295
		c-0.068,0.238-0.228,0.342-0.343,0.508c-0.218,0-0.434,0-0.693,0c-0.484,0.487-0.99,0.996-1.496,1.504c-0.208,0-0.422,0-0.561,0
		c-0.821-0.561-1.452-1.218-1.933-2.042c0-0.387,0-0.774,0-1.179c-0.419-0.054-0.941,0.157-1.058-0.553
		c0.323-0.631,0.377-1.312-0.188-1.93c-0.392-0.197-0.763-0.482-1.368-0.244c-0.662,1.152-1.13,2.445-1.052,3.874
		c-0.054,0.498-0.541,0.562-0.824,0.889c-0.14,0.744,0.407,1.445,0.189,2.201c0.258,0.233,0.471,0.425,0.658,0.594
		c0,0.182,0,0.324,0,0.298c-0.152,0.55-0.736,0.403-0.822,0.781c-0.182,0.798-0.988,1.209-1.175,2.002
		c-0.036,0.15-0.229,0.38-0.581,0.224c0-0.662,0-1.364,0-2.058c-0.992-0.05-0.992-0.05-1.734-0.569c0-0.215-0.096-0.525,0.017-0.696
		c0.454-0.688,0.077-1.35-0.048-1.986c-0.092-0.468-0.311-0.98-0.72-1.311c-0.375-0.302-0.825-0.451-1.294-0.451
		c-0.522,0.451-0.603,1.019-0.547,1.542c0.253,0.49,0.467,0.906,0.666,1.293c-0.58,1.12-1.147,2.189-2.171,2.905
		c0,0.436,0,0.866,0,1.292c0.298,0.147,0.588,0.292,0.834,0.413c0.128,0.46-0.181,0.639-0.399,0.861
		c-0.677,0.694-1.459,1.31-1.738,2.304c0.181,0.515,0.771,0.563,1.074,0.94c-0.022,0.169,0.073,0.353-0.07,0.517
		c-1.309,0.75-1.765,1.928-1.644,3.386c0.246,0.209,0.272,0.536,0.459,0.828c-0.211,0.178-0.349,0.455-0.82,0.318
		c-0.493-0.663-1.544-0.897-1.882-1.876c-0.317-0.103-0.599-0.32-1.003-0.257c-0.263-0.29-0.526-0.58-0.795-0.876
		c-0.503,0.125-0.67-0.294-0.988-0.599c0.47-0.5,0.195-1.11,0.256-1.52c-0.338-0.357-0.581-0.615-0.814-0.862
		c-0.205,0-0.414,0-0.445,0c-0.318,0.231-0.52,0.377-0.74,0.537c0.277,0.459-0.196,0.752-0.142,1.136
		c0.053,0.377-0.108,0.756,0.111,1.143c0.18,0.318,0.161,0.746,0.524,0.917c0,0.333,0,0.619,0,0.747
		c-0.453,0.906-1.12,1.529-1.29,2.435c-0.037,0.199-0.167,0.396-0.268,0.529c-0.294,0.392-0.497,0.775-0.627,1.264
		C9.046,31.93,9,32.428,9.004,32.946c0.147,0.098,0.209,0.3,0.413,0.318c0.508-0.109,0.781-0.264,1.307-0.754
		c0.158-0.147,0.295-0.162,0.438,0.009c-0.485,1.554-1.646,2.654-2.548,3.837c0,0.444,0,0.828,0,1.16
		c0.362,0.398,0.809,0.459,1.295,0.593c-0.263,0.294,0.212,0.304,0.174,0.536c-0.782,2.288-2.375,4.121-3.436,6.251
		c0,0.558,0,1.128,0,1.531c0.229,0.309,0.376,0.509,0.474,0.641c0.311,0,0.521,0,0.712,0c0.325-0.325,0.603-0.666,0.943-0.926
		c0.351-0.269,0.415-0.73,0.762-0.994c0.208,0,0.423,0,0.643,0c0.205,0.116,0.283,0.413,0.564,0.433
		c0.588-0.392,1.179-0.77,1.619-1.323c0.192-0.241,0.418-0.214,0.665-0.161c0.321,0.511,0.299,1.175,0.759,1.631
		c0.529,0.525,1.162,0.552,1.882,0.458c0.518-0.604,0.095-1.36,0.281-2.052c0.078-0.078,0.18-0.18,0.282-0.282
		c0.241,0.022,0.494-0.072,0.777,0.017c0.633,0.633,1.266,1.265,1.935,1.935c0.46,0.101,0.576-0.3,0.723-0.627
		c0.326,0,0.641,0,0.92,0c0.261,0.261,0.612,0.455,0.688,0.728c0.101,0.357,0.395,0.486,0.566,0.747c0.285,0,0.571,0,0.866,0
		c0.29-0.23,0.545-0.502,0.66-0.897c0.655,0.288,1.241,0.634,1.938,0.701c0.095-0.108,0.19-0.216,0.301-0.343
		c0-0.354,0-0.739,0-1.133c-0.648-0.396-1.284-0.782-1.872-1.141c-0.119-0.38-0.027-0.623,0.314-0.865
		c0.403,0.168,0.765-0.118,1.11-0.309c0.376-0.845,1.157-1.391,1.417-2.255c0.252-0.011,0.498-0.07,0.776,0.06
		c-0.013,0.575,0.584,0.86,0.736,1.453c0.261-0.096,0.489,0.034,0.594,0.101c0.927-0.051,0.791-0.803,1.075-1.262
		c-0.239-0.19-0.278-0.424-0.238-0.684c-0.346-0.389-0.802-0.69-0.985-1.21c-0.213-0.604-0.604-1.074-1.066-1.504
		c-0.418-0.389-0.812-0.805-1.088-1.081c-0.401-1.284,0.448-2.411-0.056-3.625c0.625-0.491,1.351-0.988,1.892-1.685
		c0-0.281,0-0.567,0-0.854c-0.133-0.741-0.954-0.844-1.333-1.337c0.43-0.557,0.184-1.146,0.274-1.688
		c0.158-0.129,0.267-0.285,0.518-0.322c0.911-0.136,1.707-0.492,2.054-1.435c0.197-0.537,0.543-0.955,0.879-1.457
		c0.314,0.314,0.559,0.558,0.747,0.746C31.608,24.624,31.752,24.624,31.911,24.624z M37.484,61.911
		c0.196,0.407,0.369,0.767,0.483,1.005c0.925,0.706,1.911,0.592,2.726,0.586c0.565-0.197,0.668-0.641,0.923-1.012
		c0-0.816,0.01-1.679-0.002-2.541c-0.013-0.906-0.724-1.607-1.633-1.628c-0.358-0.008-0.717-0.001-1.043-0.001
		c-0.563,0.437-0.915,1.023-0.964,1.661C37.923,60.647,37.726,61.242,37.484,61.911z M29.736,56.051
		c0,0.235-0.012,0.417,0.003,0.595c0.018,0.194-0.178,0.356-0.17,0.459c0.037,0.536-0.47,1.022-0.245,1.512
		c0.38,0.829,0.804,1.682,1.926,1.893c0.944-0.655,2.141-1.022,2.794-2.127c0-0.276,0-0.561,0-0.821
		c-0.433-0.827-1.148-1.372-1.787-1.973c-0.177-0.166-0.493-0.349-0.84-0.302c-0.314,0.043-0.638,0.009-0.924,0.009
		C30.231,55.557,30.002,55.786,29.736,56.051z M31.682,46.071c0.327,0.488,0.43,1.058,0.835,1.321c0,0.307,0,0.514,0,0.776
		c-0.277,0.248-0.568,0.509-0.826,0.739c0,0.336,0,0.62,0,0.861c0.533,0.748,1.261,0.858,1.991,0.762
		c0.951-0.423,1.386-1.079,1.16-2.35c-0.14-0.136-0.441-0.429-0.789-0.766c0.309-0.188,0.429-0.59,0.632-0.898
		c0-0.453,0-0.878,0-1.276c-0.463-0.502-1.036-0.886-1.096-1.603c-0.275,0-0.488,0-0.751,0
		C32.262,44.354,31.53,45.025,31.682,46.071z M38.752,43.037c-0.289-0.124-0.551,0.041-0.814-0.157c0-0.429,0-0.887,0-1.351
		c-0.479-0.26-0.606-0.78-0.973-1.151c-0.584,0.13-1.259-0.23-1.805,0.278c-0.044,0.653-0.019,1.216,0.366,1.804
		c0.276,0.42,0.454,0.836,0.928,1.111c0.618,0.358,0.864,1.096,1.329,1.535c0.584,0,1.114,0,1.59,0
		c0.494-0.365,0.211-0.812,0.305-1.145C39.31,43.594,39.005,43.289,38.752,43.037z M40.104,52.817c0-0.44-0.03-0.872,0.008-1.297
		c0.042-0.463-0.402-0.827-0.203-1.275c-0.924-1.064-1.72-1.5-2.815-0.24c-0.008,0.741-0.43,1.426-0.107,2.38
		c0.478,0.905,1.486,1.045,2.564,0.955C39.748,53.154,39.928,52.982,40.104,52.817z M29.962,39.215
		c0.233,0.829,0.922,1.194,0.857,1.918c0.255,0.263,0.506,0.52,0.749,0.769c0.371,0,0.73,0,1.086,0
		c0.18-0.18,0.357-0.357,0.477-0.477c0.236-0.537-0.028-1.011-0.208-1.341c-0.255-0.471-0.036-0.908-0.145-1.205
		c-0.313-0.354-0.55-0.62-0.757-0.854c-1.156-0.231-1.156-0.231-1.622,0.004C29.845,38.542,29.948,39,29.962,39.215z M34.268,62.956
		c0.04-0.612-0.024-1.224-0.443-1.729c-0.481-0.578-1.149-0.578-1.717-0.53c-0.585,0.236-0.965,0.587-1.281,0.988
		c0,0.37,0,0.727,0,1c0.23,0.514,0.729,0.625,1.018,1.038c0.427,0.61,1.196,0.557,1.813,0.082
		C33.947,63.581,34.014,63.217,34.268,62.956z M31.241,68.573c0.115,0.115,0.221,0.308,0.318,0.304
		c0.598-0.021,1.128,0.305,1.743,0.261c0.931-0.067,1.871-0.003,2.806-0.025c0.371-0.008,0.729,0.065,1.12-0.174
		c0.287-0.176,0.837-0.165,1.151-0.006c0.557,0.283,1.098,0.115,1.603,0.194c0.235-0.265,0.627-0.237,0.75-0.566
		c-0.704-0.396-1.427-0.415-2.188-0.16c-0.396,0.133-0.847,0.18-1.22-0.035c-0.215-0.123-0.404-0.104-0.605-0.105
		c-1.724-0.007-3.448-0.004-5.101-0.004C31.458,68.39,31.349,68.482,31.241,68.573z M30.823,31.002
		c0.144,0.31,0.543,0.276,0.722,0.5c0.405,0,0.789,0,1.045,0c0.882-0.922,0.062-1.536-0.31-2.215
		c0.342-0.172,0.633-0.32,0.901-0.455c0-0.318,0-0.602,0-0.816c-0.203-0.23-0.368-0.417-0.509-0.577c-0.256,0-0.469,0-0.682,0
		c-0.16,0.234-0.461,0.346-0.56,0.718c0.307,0.208,0.332,0.582,0.499,0.894C30.99,29.432,30.734,30.121,30.823,31.002z
		 M38.419,53.784c-0.58,0.121-0.927,0.567-1.323,0.956c-0.07,0.662,0.032,1.283,0.484,1.832c0.382,0,0.765,0,1.148,0
		c0.634-0.095,0.745-0.634,0.942-1.097C39.314,54.867,39.096,54.156,38.419,53.784z M39.565,64.58
		c-0.62,0.032-1.261-0.123-1.808,0.299c0.031,0.287-0.351,0.44-0.229,0.801c0.185,0.377,0.342,0.835,0.768,1.046
		c0.462,0,0.884,0,1.151,0c0.296-0.225,0.494-0.374,0.647-0.49c0-0.422,0-0.774,0-1.103C39.907,64.936,39.735,64.756,39.565,64.58z
		 M33.95,35.638c-0.178,0.179-0.354,0.355-0.534,0.535c-0.016,0.545-0.08,1.102,0.173,1.447c0.531,0.394,0.988,0.479,1.342,0.392
		c0.285-0.231,0.477-0.387,0.625-0.508c0.042-0.62,0.042-1.168-0.319-1.601C34.854,35.551,34.391,35.655,33.95,35.638z
		 M29.201,34.691c0.226,0.026,0.41,0.292,0.642,0.514c0.392-0.046,0.855,0.182,1.161-0.298c0.063-0.571,0.107-1.149-0.237-1.556
		c-0.55-0.366-1.068-0.325-1.586-0.288c-0.101,0.101-0.202,0.202-0.283,0.283C28.839,33.818,28.809,34.268,29.201,34.691z
		 M33.276,31.755c-0.542,0.533-0.193,1.123-0.307,1.607c0.313,0.327,0.619,0.529,1.02,0.562c0.336-0.158,0.72-0.227,0.924-0.567
		c0-0.368,0-0.724,0-1.078c-0.253-0.091-0.136-0.391-0.314-0.524C34.174,31.755,33.746,31.755,33.276,31.755z M46.059,67.391
		c-0.577,0-1.009,0.058-1.418-0.015c-0.484-0.085-0.869,0.19-1.311,0.247c-0.271,0.034-0.528,0.221-0.359,0.611
		c0.68,0,1.352,0,2.023,0C45.431,68.131,45.642,67.769,46.059,67.391z M54.309,63.333c-0.764,0.203-1.356,0.731-2.109,0.873
		c0.029,0.217-0.066,0.4,0.103,0.596C53.302,64.817,53.709,63.923,54.309,63.333z M25.416,16.74
		c0.133,0.177,0.326,0.083,0.543,0.119c0.176-0.176,0.372-0.372,0.532-0.532c0.033-0.414-0.052-0.691-0.321-0.751
		c-0.273,0.253-0.495,0.459-0.753,0.699C25.416,16.382,25.416,16.561,25.416,16.74z M57.957,60.714
		c-0.886,0.054-0.886,0.054-0.94,0.625C57.437,61.377,57.558,60.983,57.957,60.714z M58.677,59.941
		c-0.094-0.128-0.244-0.164-0.346-0.069c-0.097,0.091-0.299,0.148-0.254,0.353C58.414,60.366,58.502,60.064,58.677,59.941z"/>
	<path style="fill-rule:evenodd;clip-rule:evenodd;" d="M31.833,24.639c-0.082-0.015-0.226-0.015-0.477-0.015
		c-0.188-0.188-0.433-0.432-0.747-0.746c-0.336,0.502-0.683,0.92-0.879,1.457c-0.347,0.943-1.143,1.299-2.054,1.435
		c-0.251,0.038-0.36,0.193-0.518,0.322c-0.09,0.542,0.156,1.132-0.274,1.688c0.379,0.493,1.199,0.596,1.333,1.337
		c0,0.286,0,0.572,0,0.854c-0.541,0.697-1.266,1.194-1.892,1.685c0.503,1.214-0.346,2.34,0.056,3.625
		c0.276,0.276,0.669,0.692,1.088,1.081c0.462,0.43,0.854,0.899,1.066,1.504c0.184,0.52,0.64,0.821,0.985,1.21
		c-0.04,0.26-0.001,0.493,0.238,0.684c-0.284,0.459-0.148,1.211-1.075,1.262c-0.104-0.066-0.333-0.196-0.594-0.101
		c-0.151-0.593-0.749-0.878-0.736-1.453c-0.278-0.13-0.524-0.07-0.776-0.06c-0.26,0.864-1.041,1.41-1.417,2.255
		c-0.346,0.19-0.707,0.477-1.11,0.309c-0.341,0.242-0.434,0.485-0.314,0.865c0.587,0.358,1.223,0.745,1.872,1.141
		c0,0.394,0,0.779,0,1.133c-0.111,0.127-0.206,0.234-0.301,0.343c-0.698-0.067-1.283-0.413-1.938-0.701
		c-0.115,0.396-0.37,0.667-0.66,0.897c-0.294,0-0.581,0-0.866,0c-0.171-0.261-0.465-0.39-0.566-0.747
		c-0.077-0.272-0.428-0.467-0.688-0.728c-0.28,0-0.594,0-0.92,0c-0.147,0.327-0.263,0.728-0.723,0.627
		c-0.669-0.67-1.302-1.302-1.935-1.935c-0.283-0.089-0.536,0.006-0.777-0.017c-0.102,0.103-0.204,0.204-0.282,0.282
		c-0.186,0.691,0.237,1.448-0.281,2.052c-0.72,0.094-1.353,0.067-1.882-0.458c-0.46-0.456-0.438-1.12-0.759-1.632
		c-0.247-0.052-0.473-0.079-0.665,0.162c-0.44,0.554-1.03,0.932-1.619,1.323c-0.282-0.02-0.359-0.316-0.564-0.433
		c-0.22,0-0.434,0-0.643,0c-0.348,0.264-0.411,0.726-0.762,0.994c-0.34,0.26-0.619,0.601-0.943,0.926c-0.191,0-0.401,0-0.712,0
		c-0.097-0.132-0.245-0.332-0.474-0.641c0-0.403,0-0.974,0-1.531c1.06-2.13,2.653-3.963,3.436-6.251
		c0.039-0.232-0.437-0.242-0.174-0.536c-0.486-0.134-0.933-0.194-1.295-0.593c0-0.332,0-0.716,0-1.16
		c0.903-1.183,2.063-2.284,2.548-3.837c-0.142-0.171-0.28-0.156-0.438-0.009c-0.526,0.49-0.799,0.645-1.307,0.754
		c-0.203-0.019-0.265-0.22-0.412-0.318C9,32.428,9.046,31.93,9.184,31.412c0.13-0.489,0.333-0.873,0.627-1.264
		c0.1-0.133,0.23-0.33,0.268-0.529c0.169-0.905,0.836-1.529,1.29-2.435c0-0.128,0-0.414,0-0.747c-0.363-0.171-0.344-0.6-0.524-0.917
		c-0.219-0.387-0.058-0.766-0.111-1.143c-0.054-0.384,0.419-0.677,0.142-1.136c0.22-0.159,0.421-0.306,0.74-0.537
		c0.032,0,0.24,0,0.445,0c0.233,0.247,0.477,0.504,0.814,0.862c-0.061,0.41,0.214,1.02-0.256,1.52
		c0.318,0.305,0.485,0.724,0.988,0.599c0.269,0.296,0.532,0.586,0.795,0.876c0.405-0.063,0.686,0.154,1.003,0.257
		c0.338,0.979,1.389,1.214,1.882,1.876c0.471,0.137,0.609-0.14,0.82-0.318c-0.187-0.292-0.213-0.619-0.459-0.828
		c-0.121-1.458,0.335-2.635,1.644-3.386c0.143-0.164,0.047-0.348,0.07-0.518c-0.302-0.376-0.893-0.425-1.074-0.94
		c0.279-0.995,1.061-1.61,1.738-2.304c0.218-0.223,0.527-0.401,0.399-0.861c-0.246-0.122-0.536-0.266-0.834-0.413
		c0-0.426,0-0.856,0-1.292c1.024-0.716,1.592-1.786,2.171-2.905c-0.199-0.387-0.413-0.803-0.666-1.293
		c-0.056-0.523,0.025-1.091,0.547-1.542c0.469,0,0.919,0.148,1.294,0.451c0.409,0.331,0.628,0.843,0.72,1.311
		c0.125,0.636,0.502,1.298,0.048,1.986c-0.113,0.171-0.017,0.48-0.017,0.696c0.742,0.519,0.742,0.519,1.734,0.569
		c0,0.693,0,1.396,0,2.058c0.351,0.157,0.545-0.073,0.581-0.224c0.187-0.793,0.993-1.205,1.175-2.002
		c0.086-0.378,0.67-0.231,0.822-0.781c0,0.026,0-0.116,0-0.298c-0.187-0.169-0.399-0.36-0.658-0.594
		c0.218-0.756-0.329-1.458-0.189-2.201c0.283-0.327,0.77-0.391,0.824-0.889c-0.078-1.429,0.39-2.722,1.052-3.874
		c0.605-0.239,0.977,0.046,1.368,0.244c0.566,0.618,0.511,1.299,0.188,1.93c0.117,0.709,0.639,0.499,1.058,0.553
		c0,0.405,0,0.792,0,1.179c0.48,0.825,1.111,1.481,1.933,2.042c0.139,0,0.352,0,0.561,0c0.505-0.508,1.011-1.018,1.496-1.504
		c0.259,0,0.476,0,0.693,0c0.115-0.166,0.275-0.27,0.343-0.508c0.126-0.442,0.18-0.913,0.548-1.295
		c0.195-0.203,0.363-0.559,0.307-0.946c-0.056-0.388-0.012-0.79-0.012-1.155c0.361-0.711,0.71-1.396,1.068-2.101
		c0.414,0,0.8,0,1.246,0c0.506,0.557,0.858,1.28,1.133,2.13c-0.041,0.374-0.594,0.687-0.36,1.261
		c0.228,0.013,0.469,0.026,0.675,0.038c0.797,0.545,1.042,1.36,1.246,2.292c0.371,0.241,0.57,0.783,1.14,0.943
		c0.53,0.149,0.444,0.904,1.041,1.093c0.509,0.162,0.588,0.822,0.995,1.177c0.369,0.322,0.822,0.559,1.089,1.027
		c0.26,0.457,0.953,0.471,1.124,1.007c0.282,0,0.497,0,0.733,0c0.452-1.063,1.204-1.984,1.647-3.141
		c-0.358-0.498-0.229-1.104-0.252-1.689c0.253-0.377,0.666-0.447,1.075-0.642c0.303,0.272,0.558,0.491,0.722,0.876
		c0.381,0.898,0.387,1.825,0.359,2.751c0.174,0.363,0.655,0.288,0.866,0.757c-0.004,0.039,0.018,0.222-0.047,0.37
		c-0.051,0.12-0.201,0.197-0.162,0.364c0.313,0.6,0.979,0.748,1.492,1.046c0.632,0.367,0.867,0.927,1.065,1.507
		c0.085,0.249,0.294,0.465,0.276,0.751c0.292,0.083,0.492,0.362,0.824,0.301c0,0.438,0,0.795,0,1.233
		c0.205,0.175,0.448,0.383,0.668,0.57c0,0.337,0,0.623,0,0.899c0.264,0.264,0.518,0.518,0.814,0.814
		c0.026,1.177,0.852,1.936,1.645,2.723c0.964-0.051,1.616,0.614,2.352,1.075c0.367,0.231,0.422,0.455,0.597,1.228
		c0.312,0.226,0.492,0.699,1.038,0.78c0,0.316,0,0.63,0,0.838c0.296,0.505,0.773,0.627,1.1,0.913c0,0.248,0,0.462,0,0.706
		c-0.191,0.178-0.401,0.373-0.644,0.598c0.058,0.525-0.08,1.007-0.506,1.406c-0.799,0.21-1.271-0.327-1.763-0.832
		c-0.099,0.104-0.197,0.208-0.33,0.347c0.022,0.351,0.349,0.606,0.441,0.964c-0.004,0.21-0.175,0.422-0.262,0.523
		c-0.408,0.469-0.17,0.912,0.066,1.238c0.321,0.445,0.512,1.008,1.024,1.277c0.188,0.889-0.621,1.577-0.359,2.478
		c0.343,0.404,1.021,0.156,1.42,0.524c0.111,0.535,0.082,1.002-0.321,1.496c-0.346-0.063-0.787,0.087-1.284-0.175
		c-0.444-0.234-0.908,0.15-1.341,0.416c-0.255-0.132-0.521-0.271-0.84-0.438c-2.139,0.048-2.265-0.216-4.027-1.07
		c-0.231,0.096-0.082,0.3-0.114,0.405c-0.284,0.268-0.541,0.511-0.896,0.846c-0.744-0.156-1.126,1.018-2.035,0.882
		c-0.434-0.184-0.273-1.075-1.173-0.787c-0.108,0.136-0.31,0.386-0.473,0.59c-0.616-0.03-1.143-0.076-1.65,0.3
		c-0.147,0.288-0.287,0.661-0.563,0.982c-0.286,0.334-0.763,0.104-0.975,0.468c-0.293-0.2-0.626-0.235-0.822-0.51
		c-0.015-0.371,0.409-0.586,0.354-1.085c-0.427-0.325-0.458-0.974-0.756-1.517c-0.573,0.285-0.956,0.75-1.514,0.94
		c-0.489,0.168-0.914,0.436-1.286,0.822c-0.344,0.357-0.87,0.501-1.062,1.062c-0.138,0.402-0.716,0.166-0.978,0.471
		c-0.238-0.191-0.588-0.188-0.785-0.452c-0.029-0.06-0.084-0.119-0.084-0.179c-0.005-0.519-0.105-1.079,0.297-1.49
		c0.392-0.399,0.499-0.893,0.547-1.393c0.03-0.317,0.389-0.531,0.21-0.925c0.781-0.391,0.745-1.343,1.308-2.021
		c0.009-0.135,0.055-0.379-0.049-0.643c-0.309,0-0.622,0-0.941,0c-0.231,0.252-0.479,0.492-0.85,0.572
		c-0.42,0.049-0.882,0.145-1.373-0.361c-0.095-0.228-0.287-0.578-0.142-1.137c0.203-0.781,0.5-1.432,0.952-2.105
		c0.527-0.787,1.129-1.528,1.611-2.346c0.035-0.06,0.1-0.103,0.15-0.154c-0.023-0.241,0.072-0.494-0.091-0.77
		c-0.699,0.652-1.04,1.671-2.101,1.941c-0.47-0.142-0.887-0.479-1.025-0.966c-0.203-0.718,0.257-1.307,0.628-2.024
		c0-1.455-0.021-3.034,0.015-4.612c0.009-0.38-0.213-0.641-0.282-0.969c-0.44-0.077-0.863-0.192-1.221-0.574c0-0.705,0-1.45,0-2.158
		c-0.14-0.14-0.242-0.242-0.352-0.352c-0.096,0.105-0.191,0.211-0.32,0.353c0,0.273,0,0.594,0,0.915
		c0.001,0.279-0.425,0.438-0.183,0.741c-0.313,0.349-0.572,0.695-1.09,0.593c0,0.336,0,0.618,0,0.919
		c-0.268,0.266-0.441,0.637-0.865,0.619c-0.124,0.601,0.514,1.033,0.248,1.376c-0.282,0.659-0.812,0.715-1.152,1.1
		c0.334,0.468,0.134,1.102,0.498,1.5c-0.332,0.828-0.805,0.449-1.265,0.259c-0.159-0.313-0.41-0.661-0.232-1.254
		c0.135-0.108,0.385-0.309,0.634-0.509c-0.168-0.325-0.211-0.64-0.457-0.861c0-0.379,0-0.765,0-1.162
		c0.27-0.172,0.528-0.337,0.819-0.523c-0.102-0.209-0.196-0.404-0.292-0.601c-0.146,0-0.29,0-0.454,0
		c-0.185,0.195-0.383,0.403-0.542,0.571c-0.353,0.194-0.795-0.157-0.972,0.335c-0.322-0.183-0.602-0.295-0.886-0.302
		c-0.289-0.208-0.329-0.541-0.517-0.804C31.602,25.22,31.755,24.925,31.833,24.639c0.351-0.066,0.679,0.094,0.923-0.111
		c0.028-0.319-0.192-0.401-0.328-0.54C32.249,24.166,32.072,24.341,31.833,24.639z M20.938,41.255
		c-0.45-0.541-0.505-1.275-1.056-1.746c-0.16,0.071-0.357-0.066-0.496,0.107c0.33,0.564,0.324,1.345,1.052,1.639
		c0.155,0,0.299,0,0.442,0c-0.078,0.494,0.364,0.613,0.532,0.841c0.369,0.085,0.561-0.049,0.716-0.255c0-0.339,0-0.674,0-1.14
		C21.71,41.063,21.241,41.005,20.938,41.255z M27.144,24.966c0-0.273,0.006-0.523-0.001-0.774c-0.024-0.816,0.085-1.563,0.738-2.175
		c0.215-0.202,0.405-0.548,0.319-1.066c0.18-0.148,0.534-0.306,0.642-0.565c0.11-0.264,0.525-0.617-0.001-1.021
		c-0.391,0.449-0.924,0.739-1.083,1.216c-0.658,0.613-1.401,0.249-2.086,0.412c-0.067,0.35-0.045,0.646,0.158,0.978
		c0.184,0.299,0.367,0.668,0.272,0.897c-0.267,0.322-0.426,0.513-0.494,0.595c-0.422,0.165-0.754-0.029-1.11,0.203
		c0.476,0.942,1.482,1.112,2.233,1.663C26.87,25.207,26.973,25.117,27.144,24.966z M46.564,25.357
		c0.194,0.696,0.599,1.127,1.102,1.46c0.866-0.472,0.669-1.513,1.301-2.09c-0.071-0.73,0.179-1.516-0.298-2.17
		c-0.363-0.465-0.968-0.156-1.354-0.485c-0.47,0.374-0.525,0.87-0.521,1.409C46.797,24.134,46.932,24.809,46.564,25.357z
		 M19.438,37.403c0.361,0.143,0.656,0.469,1.106,0.397c0.594-0.51,0.953-1.101,0.708-1.885c-0.315-0.477-0.814-0.15-1.194-0.333
		c-0.389-0.521-1.07-0.694-1.451-1.256c-0.141,0.205-0.354,0.267-0.322,0.484C18.829,35.555,19.298,36.325,19.438,37.403z
		 M34.02,21.904c0.04,0.969,0.37,1.795,0.934,2.47c0.457,0,0.841,0,1.242,0c0-0.417,0-0.799,0-1.183
		c-0.093-0.302-0.409-0.242-0.552-0.342c-0.238-0.399-0.352-0.782-0.285-1.168C34.867,21.455,34.51,21.703,34.02,21.904z
		 M43.372,25.151c0.538-0.223,0.752-0.604,1.095-0.879c-0.361-0.648-0.401-1.4-0.808-2.015c-0.106,0.106-0.208,0.208-0.287,0.287
		C43.372,23.378,43.372,24.191,43.372,25.151z M49.608,32.805c-0.138-0.348-0.397-0.469-0.759-0.403
		c-0.099,0.099-0.2,0.201-0.293,0.293c0,0.468,0,0.925,0,1.407c0.197,0,0.367,0,0.603,0C49.117,33.611,49.691,33.339,49.608,32.805z
		 M56.113,30.817c0.346-0.185,0.346-0.185,0.361-0.731c-0.217-0.287-0.572-0.332-0.852-0.499c-0.19,0.104-0.363,0.213-0.386,0.355
		C55.542,30.246,55.812,30.516,56.113,30.817z M15.83,32.88c0.208,0.42,0.375,0.745,0.802,0.813
		c0.096,0.015,0.199-0.014,0.306-0.023c-0.006-0.292,0.336-0.438,0.247-0.79C16.796,32.88,16.393,32.88,15.83,32.88z M22.616,32.514
		c-0.302-0.28-0.556-0.673-1.119-0.659c0.138,0.524,0.641,0.732,0.921,1.115c0.064,0.087,0.102,0.099,0.177-0.038
		C22.6,32.841,22.606,32.705,22.616,32.514z M42.798,26.352c-0.257-0.051-0.356,0.169-0.534,0.32c0,0.184-0.008,0.392,0.005,0.599
		c0.004,0.056,0.07,0.107,0.108,0.161C42.794,27.175,42.895,26.917,42.798,26.352z M25.597,20.713
		c0.174-0.444-0.16-0.705-0.333-1.015C25.25,20.065,25.028,20.494,25.597,20.713z M47.152,20.933
		c0.148-0.167,0.077-0.353,0.068-0.515c-0.005-0.079-0.131-0.155-0.21-0.224c-0.038-0.033-0.095-0.047-0.161-0.078
		c-0.073,0.28-0.092,0.542,0.011,0.817C46.97,20.933,47.066,20.933,47.152,20.933z M51.686,17.478c0.12-0.21,0.12-0.402,0-0.612
		c-0.086,0-0.183,0-0.269,0c-0.12,0.21-0.12,0.402,0,0.612C51.503,17.478,51.6,17.478,51.686,17.478z M25.209,32.086
		c0.105,0.102,0.214,0.208,0.349,0.339c0.102-0.24,0.09-0.362-0.038-0.458C25.425,31.982,25.311,31.924,25.209,32.086z
		 M23.903,23.004c-0.071-0.101-0.143-0.101-0.213,0C23.76,23.104,23.832,23.104,23.903,23.004z"/>
	<path style="fill-rule:evenodd;clip-rule:evenodd;" d="M37.484,61.911c0.242-0.669,0.439-1.264,0.49-1.93
		c0.049-0.638,0.401-1.225,0.964-1.661c0.326,0,0.685-0.007,1.043,0.001c0.909,0.021,1.62,0.722,1.633,1.628
		c0.012,0.862,0.002,1.725,0.002,2.541c-0.255,0.371-0.357,0.814-0.923,1.012c-0.814,0.006-1.801,0.12-2.726-0.586
		C37.853,62.677,37.68,62.318,37.484,61.911z"/>
	<path style="fill-rule:evenodd;clip-rule:evenodd;" d="M29.736,56.051c0.266-0.266,0.495-0.494,0.756-0.756
		c0.287,0,0.61,0.034,0.924-0.009c0.347-0.047,0.663,0.136,0.84,0.302c0.639,0.601,1.354,1.146,1.787,1.973c0,0.261,0,0.545,0,0.821
		c-0.653,1.104-1.85,1.472-2.794,2.127c-1.122-0.211-1.545-1.063-1.926-1.893c-0.225-0.489,0.282-0.976,0.245-1.512
		c-0.007-0.103,0.188-0.265,0.17-0.459C29.724,56.468,29.736,56.287,29.736,56.051z"/>
	<path style="fill-rule:evenodd;clip-rule:evenodd;" d="M31.682,46.071c-0.151-1.046,0.58-1.717,1.157-2.433
		c0.263,0,0.476,0,0.751,0c0.06,0.717,0.633,1.101,1.096,1.603c0,0.398,0,0.823,0,1.276c-0.203,0.309-0.323,0.711-0.632,0.898
		c0.348,0.337,0.649,0.63,0.789,0.766c0.226,1.271-0.209,1.927-1.16,2.35c-0.73,0.097-1.458-0.014-1.991-0.762
		c0-0.241,0-0.525,0-0.861c0.258-0.23,0.549-0.491,0.826-0.739c0-0.263,0-0.47,0-0.776C32.111,47.128,32.008,46.559,31.682,46.071z"
		/>
	<path style="fill-rule:evenodd;clip-rule:evenodd;" d="M38.752,43.037c0.253,0.252,0.558,0.558,0.925,0.925
		c-0.094,0.333,0.189,0.779-0.305,1.145c-0.476,0-1.006,0-1.59,0c-0.465-0.439-0.711-1.177-1.329-1.535
		c-0.475-0.275-0.652-0.691-0.928-1.111c-0.385-0.588-0.41-1.15-0.366-1.804c0.546-0.509,1.221-0.148,1.805-0.278
		c0.367,0.371,0.494,0.892,0.973,1.151c0,0.464,0,0.922,0,1.351C38.202,43.078,38.463,42.913,38.752,43.037z"/>
	<path style="fill-rule:evenodd;clip-rule:evenodd;" d="M40.104,52.817c-0.176,0.165-0.356,0.337-0.554,0.522
		c-1.078,0.09-2.086-0.05-2.564-0.955c-0.323-0.954,0.099-1.639,0.107-2.38c1.096-1.26,1.892-0.824,2.815,0.24
		c-0.199,0.448,0.245,0.813,0.203,1.275C40.074,51.945,40.104,52.376,40.104,52.817z"/>
	<path style="fill-rule:evenodd;clip-rule:evenodd;" d="M29.962,39.215c-0.014-0.216-0.117-0.673,0.438-1.186
		c0.466-0.235,0.466-0.235,1.622-0.004c0.207,0.233,0.443,0.5,0.757,0.854c0.109,0.297-0.11,0.734,0.145,1.205
		c0.18,0.33,0.443,0.804,0.208,1.341c-0.119,0.119-0.297,0.297-0.477,0.477c-0.356,0-0.715,0-1.086,0
		c-0.243-0.249-0.493-0.506-0.749-0.769C30.884,40.41,30.195,40.044,29.962,39.215z"/>
	<path style="fill-rule:evenodd;clip-rule:evenodd;" d="M34.268,62.956c-0.253,0.262-0.321,0.625-0.611,0.849
		c-0.617,0.475-1.385,0.528-1.813-0.082c-0.289-0.413-0.788-0.524-1.018-1.038c0-0.273,0-0.63,0-1
		c0.316-0.401,0.696-0.752,1.281-0.988c0.568-0.048,1.236-0.048,1.717,0.53C34.243,61.732,34.308,62.343,34.268,62.956z"/>
	<path style="fill-rule:evenodd;clip-rule:evenodd;" d="M30.823,31.002c-0.089-0.881,0.167-1.57,1.105-1.951
		c-0.167-0.312-0.192-0.686-0.499-0.894c0.099-0.373,0.4-0.484,0.56-0.718c0.213,0,0.426,0,0.682,0
		c0.141,0.16,0.306,0.347,0.509,0.577c0,0.215,0,0.498,0,0.816c-0.268,0.135-0.559,0.283-0.901,0.455
		c0.372,0.679,1.192,1.292,0.31,2.215c-0.256,0-0.64,0-1.045,0C31.366,31.279,30.967,31.312,30.823,31.002z"/>
	<path style="fill-rule:evenodd;clip-rule:evenodd;" d="M38.419,53.784c0.677,0.372,0.895,1.083,1.253,1.691
		c-0.198,0.463-0.31,1.002-0.943,1.097c-0.384,0-0.767,0-1.148,0c-0.452-0.549-0.555-1.17-0.484-1.832
		C37.493,54.351,37.839,53.905,38.419,53.784z"/>
	<path style="fill-rule:evenodd;clip-rule:evenodd;" d="M39.565,64.58c0.17,0.177,0.342,0.356,0.53,0.553c0,0.328,0,0.681,0,1.103
		c-0.153,0.116-0.352,0.266-0.647,0.49c-0.268,0-0.689,0-1.151,0c-0.426-0.211-0.583-0.669-0.768-1.046
		c-0.122-0.36,0.26-0.514,0.229-0.801C38.304,64.457,38.945,64.612,39.565,64.58z"/>
	<path style="fill-rule:evenodd;clip-rule:evenodd;" d="M33.95,35.638c0.441,0.017,0.904-0.086,1.288,0.265
		c0.361,0.433,0.362,0.981,0.319,1.601c-0.149,0.121-0.341,0.276-0.625,0.508c-0.354,0.088-0.811,0.002-1.342-0.392
		c-0.253-0.346-0.189-0.902-0.173-1.447C33.595,35.993,33.771,35.816,33.95,35.638z"/>
	<path style="fill-rule:evenodd;clip-rule:evenodd;" d="M29.201,34.691c-0.392-0.423-0.362-0.874-0.303-1.345
		c0.081-0.081,0.182-0.182,0.283-0.283c0.518-0.037,1.036-0.078,1.586,0.288c0.344,0.406,0.3,0.985,0.237,1.556
		c-0.306,0.479-0.77,0.252-1.161,0.298C29.611,34.984,29.426,34.718,29.201,34.691z"/>
	<path style="fill-rule:evenodd;clip-rule:evenodd;" d="M33.276,31.755c0.469,0,0.898,0,1.322,0
		c0.179,0.134,0.062,0.434,0.314,0.524c0,0.354,0,0.709,0,1.078c-0.204,0.34-0.587,0.409-0.924,0.567
		c-0.401-0.032-0.707-0.235-1.02-0.562C33.083,32.878,32.734,32.288,33.276,31.755z"/>
	<path style="fill-rule:evenodd;clip-rule:evenodd;" d="M25.416,16.74c0-0.179,0-0.358,0-0.465c0.258-0.239,0.48-0.445,0.753-0.699
		c0.269,0.06,0.354,0.337,0.321,0.751c-0.16,0.16-0.356,0.356-0.532,0.532C25.742,16.823,25.549,16.917,25.416,16.74z"/>
	<path style="fill-rule:evenodd;clip-rule:evenodd;fill:none;" d="M27.144,24.966c-0.171,0.15-0.274,0.24-0.413,0.362
		c-0.75-0.551-1.757-0.721-2.233-1.663c0.355-0.231,0.688-0.038,1.11-0.203c0.068-0.082,0.227-0.273,0.494-0.595
		c0.095-0.229-0.088-0.598-0.272-0.897c-0.204-0.332-0.226-0.628-0.158-0.978c0.685-0.163,1.428,0.201,2.086-0.412
		c0.16-0.477,0.692-0.767,1.083-1.216c0.526,0.405,0.111,0.758,0.001,1.021c-0.108,0.26-0.462,0.417-0.642,0.565
		c0.086,0.518-0.104,0.864-0.319,1.066c-0.653,0.611-0.762,1.358-0.738,2.175C27.15,24.443,27.144,24.693,27.144,24.966z"/>
	<path style="fill-rule:evenodd;clip-rule:evenodd;fill:none;" d="M46.564,25.357c0.368-0.548,0.233-1.223,0.229-1.876
		c-0.004-0.54,0.052-1.035,0.521-1.409c0.387,0.329,0.991,0.02,1.354,0.485c0.477,0.655,0.227,1.44,0.298,2.17
		c-0.632,0.577-0.435,1.618-1.301,2.09C47.163,26.484,46.758,26.053,46.564,25.357z"/>
	<path style="fill-rule:evenodd;clip-rule:evenodd;fill:none;" d="M19.438,37.403c-0.141-1.078-0.61-1.848-1.152-2.593
		c-0.032-0.217,0.181-0.279,0.322-0.484c0.381,0.562,1.062,0.735,1.451,1.256c0.38,0.183,0.879-0.144,1.194,0.333
		c0.245,0.785-0.114,1.375-0.708,1.885C20.095,37.872,19.8,37.545,19.438,37.403z"/>
	<path style="fill-rule:evenodd;clip-rule:evenodd;fill:none;" d="M34.02,21.904c0.49-0.202,0.847-0.45,1.339-0.223
		c-0.067,0.386,0.046,0.769,0.285,1.168c0.143,0.101,0.458,0.041,0.552,0.342c0,0.383,0,0.766,0,1.183c-0.4,0-0.785,0-1.242,0
		C34.39,23.699,34.06,22.874,34.02,21.904z"/>
	<path style="fill-rule:evenodd;clip-rule:evenodd;fill:none;" d="M43.372,25.151c0-0.959,0-1.772,0-2.606
		c0.079-0.08,0.181-0.181,0.287-0.287c0.406,0.614,0.446,1.366,0.808,2.015C44.124,24.546,43.91,24.928,43.372,25.151z"/>
	<path style="fill-rule:evenodd;clip-rule:evenodd;fill:none;" d="M49.608,32.805c0.083,0.534-0.491,0.806-0.449,1.297
		c-0.235,0-0.405,0-0.603,0c0-0.481,0-0.939,0-1.407c0.093-0.092,0.194-0.194,0.293-0.293C49.21,32.336,49.47,32.457,49.608,32.805z
		"/>
	<path style="fill-rule:evenodd;clip-rule:evenodd;fill:none;" d="M20.88,41.255c0.361-0.25,0.831-0.192,1.248-0.554
		c0,0.466,0,0.801,0,1.14c-0.156,0.206-0.347,0.34-0.716,0.255C21.244,41.869,20.802,41.75,20.88,41.255z"/>
	<path style="fill-rule:evenodd;clip-rule:evenodd;fill:none;" d="M20.938,41.255c-0.201,0-0.345,0-0.5,0
		c-0.728-0.294-0.722-1.074-1.052-1.639c0.139-0.174,0.336-0.036,0.496-0.107C20.432,39.98,20.488,40.714,20.938,41.255z"/>
	<path style="fill-rule:evenodd;clip-rule:evenodd;fill:none;" d="M56.113,30.817c-0.301-0.301-0.571-0.571-0.876-0.875
		c0.022-0.142,0.195-0.25,0.386-0.355c0.279,0.167,0.635,0.212,0.852,0.499C56.458,30.632,56.458,30.632,56.113,30.817z"/>
	<path style="fill-rule:evenodd;clip-rule:evenodd;fill:none;" d="M15.83,32.88c0.563,0,0.966,0,1.354,0
		c0.089,0.352-0.252,0.498-0.247,0.79c-0.107,0.009-0.21,0.038-0.306,0.023C16.205,33.625,16.039,33.3,15.83,32.88z"/>
	<path style="fill-rule:evenodd;clip-rule:evenodd;fill:none;" d="M22.616,32.514c-0.009,0.19-0.016,0.327-0.02,0.417
		c-0.075,0.137-0.113,0.125-0.177,0.038c-0.281-0.383-0.783-0.591-0.921-1.115C22.06,31.841,22.313,32.234,22.616,32.514z"/>
	<path style="fill-rule:evenodd;clip-rule:evenodd;fill:none;" d="M42.798,26.352c0.097,0.564-0.004,0.823-0.421,1.08
		c-0.038-0.053-0.104-0.105-0.108-0.161c-0.013-0.207-0.005-0.415-0.005-0.599C42.442,26.521,42.542,26.301,42.798,26.352z"/>
	<path style="fill-rule:evenodd;clip-rule:evenodd;fill:none;" d="M31.756,24.653c0.316-0.313,0.493-0.487,0.673-0.666
		c0.135,0.139,0.355,0.221,0.328,0.54C32.512,24.733,32.185,24.572,31.756,24.653z"/>
	<path style="fill-rule:evenodd;clip-rule:evenodd;fill:none;" d="M25.597,20.713c-0.569-0.219-0.347-0.648-0.333-1.015
		C25.437,20.009,25.771,20.269,25.597,20.713z"/>
	<path style="fill-rule:evenodd;clip-rule:evenodd;fill:none;" d="M47.152,20.933c-0.086,0-0.182,0-0.292,0
		c-0.103-0.275-0.084-0.537-0.011-0.817c0.066,0.031,0.123,0.044,0.161,0.078c0.079,0.069,0.205,0.146,0.21,0.224
		C47.229,20.581,47.3,20.766,47.152,20.933z"/>
	<path style="fill-rule:evenodd;clip-rule:evenodd;fill:none;" d="M51.686,17.478c-0.086,0-0.183,0-0.269,0
		c-0.12-0.21-0.12-0.402,0-0.612c0.086,0,0.183,0,0.269,0C51.806,17.076,51.806,17.268,51.686,17.478z"/>
	<path style="fill-rule:evenodd;clip-rule:evenodd;fill:none;" d="M25.209,32.086c0.102-0.162,0.216-0.104,0.311-0.119
		c0.128,0.096,0.14,0.218,0.038,0.458C25.423,32.294,25.314,32.188,25.209,32.086z"/>
	<path style="fill-rule:evenodd;clip-rule:evenodd;fill:none;" d="M23.903,23.004c-0.071,0.101-0.143,0.101-0.213,0
		C23.76,22.903,23.832,22.903,23.903,23.004z"/>
</g>
</svg>
