<svg xmlns="http://www.w3.org/2000/svg" xml:space="preserve" width="72px" height="72px" viewBox="0 0 72 72">
    <g fill="currentColor">
        <path d="M31.833 24.639c-.082-.015-.226-.015-.477-.015l-.747-.746c-.336.502-.683.92-.879 1.457-.347.943-1.143 1.299-2.054 1.435-.251.038-.36.193-.518.322-.09.542.156 1.132-.274 1.688.379.493 1.199.596 1.333 1.337v.854c-.541.697-1.266 1.194-1.892 1.685.503 1.214-.346 2.34.056 3.625.276.276.669.692 1.088 1.081.462.43.854.899 1.066 1.504.184.52.64.821.985 1.21-.04.26-.001.493.238.684-.284.459-.148 1.211-1.075 1.262-.104-.066-.333-.196-.594-.101-.151-.593-.749-.878-.736-1.453-.278-.13-.524-.07-.776-.06-.26.864-1.041 1.41-1.417 2.255-.346.19-.707.477-1.11.309-.341.242-.434.485-.314.865l1.872 1.141v1.133l-.301.343c-.698-.067-1.283-.413-1.938-.701-.115.396-.37.667-.66.897h-.866c-.171-.261-.465-.39-.566-.747-.077-.272-.428-.467-.688-.728h-.92c-.147.327-.263.728-.723.627l-1.935-1.935c-.283-.089-.536.006-.777-.017l-.282.282c-.186.691.237 1.448-.281 2.052-.72.094-1.353.067-1.882-.458-.46-.456-.438-1.12-.759-1.632-.247-.052-.473-.079-.665.162-.44.554-1.03.932-1.619 1.323-.282-.02-.359-.316-.564-.433h-.643c-.348.264-.411.726-.762.994-.34.26-.619.601-.943.926h-.712l-.474-.641v-1.531c1.06-2.13 2.653-3.963 3.436-6.251.039-.232-.437-.242-.174-.536-.486-.134-.933-.194-1.295-.593v-1.16c.903-1.183 2.063-2.284 2.548-3.837-.142-.171-.28-.156-.438-.009-.526.49-.799.645-1.307.754-.203-.019-.265-.22-.412-.318a5.6 5.6 0 0 1 .178-1.532 3.5 3.5 0 0 1 .627-1.264c.1-.133.23-.33.268-.529.169-.905.836-1.529 1.29-2.435v-.747c-.363-.171-.344-.6-.524-.917-.219-.387-.058-.766-.111-1.143-.054-.384.419-.677.142-1.136l.74-.537h.445l.814.862c-.061.41.214 1.02-.256 1.52.318.305.485.724.988.599l.795.876c.405-.063.686.154 1.003.257.338.979 1.389 1.214 1.882 1.876.471.137.609-.14.82-.318-.187-.292-.213-.619-.459-.828-.121-1.458.335-2.635 1.644-3.386.143-.164.047-.348.07-.518-.302-.376-.893-.425-1.074-.94.279-.995 1.061-1.61 1.738-2.304.218-.223.527-.401.399-.861l-.834-.413v-1.292c1.024-.716 1.592-1.786 2.171-2.905l-.666-1.293c-.056-.523.025-1.091.547-1.542.469 0 .919.148 1.294.451.409.331.628.843.72 1.311.125.636.502 1.298.048 1.986-.113.171-.017.48-.017.696.742.519.742.519 1.734.569v2.058c.351.157.545-.073.581-.224.187-.793.993-1.205 1.175-2.002.086-.378.67-.231.822-.781v-.298l-.658-.594c.218-.756-.329-1.458-.189-2.201.283-.327.77-.391.824-.889-.078-1.429.39-2.722 1.052-3.874.605-.239.977.046 1.368.244.566.618.511 1.299.188 1.93.117.709.639.499 1.058.553v1.179c.48.825 1.111 1.481 1.933 2.042h.561c.505-.508 1.011-1.018 1.496-1.504h.693c.115-.166.275-.27.343-.508.126-.442.18-.913.548-1.295.195-.203.363-.559.307-.946-.056-.388-.012-.79-.012-1.155l1.068-2.101h1.246c.506.557.858 1.28 1.133 2.13-.041.374-.594.687-.36 1.261l.675.038c.797.545 1.042 1.36 1.246 2.292.371.241.57.783 1.14.943.53.149.444.904 1.041 1.093.509.162.588.822.995 1.177.369.322.822.559 1.089 1.027.26.457.953.471 1.124 1.007h.733c.452-1.063 1.204-1.984 1.647-3.141-.358-.498-.229-1.104-.252-1.689.253-.377.666-.447 1.075-.642.303.272.558.491.722.876.381.898.387 1.825.359 2.751.174.363.655.288.866.757-.004.039.018.222-.047.37-.051.12-.201.197-.162.364.313.6.979.748 1.492 1.046.632.367.867.927 1.065 1.507.085.249.294.465.276.751.292.083.492.362.824.301v1.233l.668.57v.899l.814.814c.026 1.177.852 1.936 1.645 2.723.964-.051 1.616.614 2.352 1.075.367.231.422.455.597 1.228.312.226.492.699 1.038.78v.838c.296.505.773.627 1.1.913v.706l-.644.598c.058.525-.08 1.007-.506 1.406-.799.21-1.271-.327-1.763-.832l-.33.347c.022.351.349.606.441.964-.004.21-.175.422-.262.523-.408.469-.17.912.066 1.238.321.445.512 1.008 1.024 1.277.188.889-.621 1.577-.359 2.478.343.404 1.021.156 1.42.524.111.535.082 1.002-.321 1.496-.346-.063-.787.087-1.284-.175-.444-.234-.908.15-1.341.416l-.84-.438c-2.139.048-2.265-.216-4.027-1.07-.231.096-.082.3-.114.405l-.896.846c-.744-.156-1.126 1.018-2.035.882-.434-.184-.273-1.075-1.173-.787l-.473.59c-.616-.03-1.143-.076-1.65.3-.147.288-.287.661-.563.982-.286.334-.763.104-.975.468-.293-.2-.626-.235-.822-.51-.015-.371.409-.586.354-1.085-.427-.325-.458-.974-.756-1.517-.573.285-.956.75-1.514.94a3.2 3.2 0 0 0-1.286.822c-.344.357-.87.501-1.062 1.062-.138.402-.716.166-.978.471-.238-.191-.588-.188-.785-.452-.029-.06-.084-.119-.084-.179-.005-.519-.105-1.079.297-1.49.392-.399.499-.893.547-1.393.03-.317.389-.531.21-.925.781-.391.745-1.343 1.308-2.021.009-.135.055-.379-.049-.643h-.941c-.231.252-.479.492-.85.572-.42.049-.882.145-1.373-.361-.095-.228-.287-.578-.142-1.137.203-.781.5-1.432.952-2.105.527-.787 1.129-1.528 1.611-2.346.035-.06.1-.103.15-.154-.023-.241.072-.494-.091-.77-.699.652-1.04 1.671-2.101 1.941-.47-.142-.887-.479-1.025-.966-.203-.718.257-1.307.628-2.024 0-1.455-.021-3.034.015-4.612.009-.38-.213-.641-.282-.969-.44-.077-.863-.192-1.221-.574v-2.158l-.352-.352-.32.353v.915c.001.279-.425.438-.183.741-.313.349-.572.695-1.09.593v.919c-.268.266-.441.637-.865.619-.124.601.514 1.033.248 1.376-.282.659-.812.715-1.152 1.1.334.468.134 1.102.498 1.5-.332.828-.805.449-1.265.259-.159-.313-.41-.661-.232-1.254l.634-.509c-.168-.325-.211-.64-.457-.861v-1.162l.819-.523-.292-.601h-.454l-.542.571c-.353.194-.795-.157-.972.335-.322-.183-.602-.295-.886-.302-.289-.208-.329-.541-.517-.804.156-.287.309-.582.387-.868.351-.066.679.094.923-.111.028-.319-.192-.401-.328-.54-.179.178-.356.353-.595.651M20.938 41.255c-.45-.541-.505-1.275-1.056-1.746-.16.071-.357-.066-.496.107.33.564.324 1.345 1.052 1.639h.442c-.078.494.364.613.532.841.369.085.561-.049.716-.255v-1.14c-.418.362-.887.304-1.19.554m6.206-16.289c0-.273.006-.523-.001-.774-.024-.816.085-1.563.738-2.175.215-.202.405-.548.319-1.066.18-.148.534-.306.642-.565.11-.264.525-.617-.001-1.021-.391.449-.924.739-1.083 1.216-.658.613-1.401.249-2.086.412-.067.35-.045.646.158.978.184.299.367.668.272.897l-.494.595c-.422.165-.754-.029-1.11.203.476.942 1.482 1.112 2.233 1.663zm19.42.391c.194.696.599 1.127 1.102 1.46.866-.472.669-1.513 1.301-2.09-.071-.73.179-1.516-.298-2.17-.363-.465-.968-.156-1.354-.485-.47.374-.525.87-.521 1.409.003.653.138 1.328-.23 1.876M19.438 37.403c.361.143.656.469 1.106.397.594-.51.953-1.101.708-1.885-.315-.477-.814-.15-1.194-.333-.389-.521-1.07-.694-1.451-1.256-.141.205-.354.267-.322.484.544.745 1.013 1.515 1.153 2.593M34.02 21.904c.04.969.37 1.795.934 2.47h1.242v-1.183c-.093-.302-.409-.242-.552-.342-.238-.399-.352-.782-.285-1.168-.492-.226-.849.022-1.339.223m9.352 3.247c.538-.223.752-.604 1.095-.879-.361-.648-.401-1.4-.808-2.015l-.287.287zm6.236 7.654c-.138-.348-.397-.469-.759-.403l-.293.293v1.407h.603c-.042-.491.532-.763.449-1.297m6.505-1.988c.346-.185.346-.185.361-.731-.217-.287-.572-.332-.852-.499-.19.104-.363.213-.386.355zM15.83 32.88c.208.42.375.745.802.813.096.015.199-.014.306-.023-.006-.292.336-.438.247-.79zm6.786-.366c-.302-.28-.556-.673-1.119-.659.138.524.641.732.921 1.115.064.087.102.099.177-.038zm20.182-6.162c-.257-.051-.356.169-.534.32 0 .184-.008.392.005.599.004.056.07.107.108.161.417-.257.518-.515.421-1.08m-17.201-5.639c.174-.444-.16-.705-.333-1.015-.014.367-.236.796.333 1.015m21.555.22c.148-.167.077-.353.068-.515-.005-.079-.131-.155-.21-.224-.038-.033-.095-.047-.161-.078-.073.28-.092.542.011.817zm4.534-3.455a.56.56 0 0 0 0-.612h-.269a.56.56 0 0 0 0 .612zM25.209 32.086l.349.339c.102-.24.09-.362-.038-.458-.095.015-.209-.043-.311.119m-1.306-9.082q-.107-.152-.213 0 .106.15.213 0m13.581 38.907c.242-.669.439-1.264.49-1.93.049-.638.401-1.225.964-1.661.326 0 .685-.007 1.043.001.909.021 1.62.722 1.633 1.628.012.862.002 1.725.002 2.541-.255.371-.357.814-.923 1.012-.814.006-1.801.12-2.726-.586zm-7.748-5.86.756-.756c.287 0 .61.034.924-.009.347-.047.663.136.84.302.639.601 1.354 1.146 1.787 1.973v.821c-.653 1.104-1.85 1.472-2.794 2.127-1.122-.211-1.545-1.063-1.926-1.893-.225-.489.282-.976.245-1.512-.007-.103.188-.265.17-.459-.014-.177-.002-.358-.002-.594"/>
        <path d="M31.682 46.071c-.151-1.046.58-1.717 1.157-2.433h.751c.06.717.633 1.101 1.096 1.603v1.276c-.203.309-.323.711-.632.898l.789.766c.226 1.271-.209 1.927-1.16 2.35-.73.097-1.458-.014-1.991-.762v-.861l.826-.739v-.776c-.407-.265-.51-.834-.836-1.322m7.07-3.034.925.925c-.094.333.189.779-.305 1.145h-1.59c-.465-.439-.711-1.177-1.329-1.535-.475-.275-.652-.691-.928-1.111-.385-.588-.41-1.15-.366-1.804.546-.509 1.221-.148 1.805-.278.367.371.494.892.973 1.151v1.351c.265.197.526.032.815.156m1.352 9.78c-.176.165-.356.337-.554.522-1.078.09-2.086-.05-2.564-.955-.323-.954.099-1.639.107-2.38 1.096-1.26 1.892-.824 2.815.24-.199.448.245.813.203 1.275-.037.426-.007.857-.007 1.298M29.962 39.215c-.014-.216-.117-.673.438-1.186.466-.235.466-.235 1.622-.004l.757.854c.109.297-.11.734.145 1.205.18.33.443.804.208 1.341l-.477.477h-1.086l-.749-.769c.064-.723-.625-1.089-.858-1.918m4.306 23.741c-.253.262-.321.625-.611.849-.617.475-1.385.528-1.813-.082-.289-.413-.788-.524-1.018-1.038v-1c.316-.401.696-.752 1.281-.988.568-.048 1.236-.048 1.717.53.419.505.484 1.116.444 1.729m-3.445-31.954c-.089-.881.167-1.57 1.105-1.951-.167-.312-.192-.686-.499-.894.099-.373.4-.484.56-.718h.682l.509.577v.816l-.901.455c.372.679 1.192 1.292.31 2.215h-1.045c-.178-.223-.577-.19-.721-.5m7.596 22.782c.677.372.895 1.083 1.253 1.691-.198.463-.31 1.002-.943 1.097h-1.148c-.452-.549-.555-1.17-.484-1.832.396-.389.742-.835 1.322-.956m1.146 10.796.53.553v1.103l-.647.49h-1.151c-.426-.211-.583-.669-.768-1.046-.122-.36.26-.514.229-.801.546-.422 1.187-.267 1.807-.299M33.95 35.638c.441.017.904-.086 1.288.265.361.433.362.981.319 1.601l-.625.508c-.354.088-.811.002-1.342-.392-.253-.346-.189-.902-.173-1.447q.266-.269.533-.535m-4.749-.947c-.392-.423-.362-.874-.303-1.345l.283-.283c.518-.037 1.036-.078 1.586.288.344.406.3.985.237 1.556-.306.479-.77.252-1.161.298-.232-.221-.417-.487-.642-.514m4.075-2.936h1.322c.179.134.062.434.314.524v1.078c-.204.34-.587.409-.924.567-.401-.032-.707-.235-1.02-.562.115-.484-.234-1.074.308-1.607m-7.86-15.015v-.465l.753-.699c.269.06.354.337.321.751l-.532.532c-.216-.036-.409.058-.542-.119"/>
    </g>
</svg>
