<?xml version="1.0" encoding="iso-8859-1"?>
<!-- Generator: Adobe Illustrator 16.0.0, SVG Export Plug-In . SVG Version: 6.00 Build 0)  -->
<!DOCTYPE svg PUBLIC "-//W3C//DTD SVG 1.1//EN" "http://www.w3.org/Graphics/SVG/1.1/DTD/svg11.dtd">
<svg version="1.1" id="Layer_1" xmlns="http://www.w3.org/2000/svg" xmlns:xlink="http://www.w3.org/1999/xlink" x="0px" y="0px"
	 width="72.36px" height="71.459px" viewBox="0 0 72.36 71.459" style="enable-background:new 0 0 72.36 71.459;"
	 xml:space="preserve">
<g>
	<path style="fill-rule:evenodd;clip-rule:evenodd;fill:none;" d="M-6.984,78.839c0-28.584,0-57.167,0-85.751
		c28.8,0,57.6,0,86.399,0c0,28.584,0,57.167,0,85.751C50.616,78.839,21.816,78.839-6.984,78.839z M17.396,60.352
		c-0.018,0.285,0.179,0.47,0.399,0.548c0.435,0.154,0.749,0.463,1.114,0.712c0.887,0.605,1.775,1.31,2.772,1.626
		c1.128,0.359,2.154,0.899,3.22,1.363c0.952,0.413,1.936,0.725,2.914,1.043c1.049,0.341,2.188,0.226,3.271,0.443
		c0.333,0.066,0.658,0.085,0.999,0.194c0.911,0.291,1.843,0.531,2.836,0.476c1.112-0.062,2.23-0.014,3.347-0.014
		c0.216,0,0.545,0.089,0.626-0.016c0.31-0.398,0.791-0.094,1.165-0.381c0.306-0.234,0.845,0.021,1.305-0.217
		c0.341-0.177,0.854,0.016,1.276-0.047c0.581-0.087,1.148-0.273,1.748-0.204c0.372-0.436,0.925-0.099,1.375-0.335
		c0.494-0.261,1.066-0.382,1.616-0.522c0.587-0.15,1.088-0.496,1.657-0.7c0.864-0.31,1.726-0.731,2.52-1.197
		c1.032-0.605,2.099-1.221,2.884-2.181c0.107-0.131,0.287-0.182,0.424-0.267c0.81-0.505,1.582-1.091,2.316-1.681
		c1.21-0.974,2.305-2.121,3.211-3.401c0.292-0.413,0.604-0.837,0.833-1.273c0.222-0.424,0.488-0.891,0.479-1.418
		c0.505-0.318,0.451-0.917,0.58-1.374c0.122-0.435,0.281-0.817,0.488-1.208c0.157-0.299,0.423-0.47,0.624-0.712
		c0.269-0.321,0.507-0.652,0.465-1.134c-0.09-0.077-0.199-0.17-0.334-0.285c-0.344,0-0.729,0-1.161,0
		c-0.253,0.278-0.518,0.569-0.775,0.852c-0.312,0-0.597,0-0.865,0c-0.729,0.595-0.804,1.745-1.762,2.01
		c-0.188,0.395-0.305,0.751-0.608,1.003c-0.216,0-0.432,0-0.627,0c-0.228-0.238-0.617-0.221-0.774-0.555
		c-0.036-0.22,0.064-0.475-0.052-0.678c-0.686-0.419-1.423,0.657-2.094-0.16c-0.031-0.592-0.121-1.222,0.416-1.738
		c0-1.062-0.012-2.14,0.005-3.217c0.007-0.488-0.18-0.867-0.52-1.185c-0.317,0-0.631,0-0.73,0c-0.348,0.239-0.554,0.381-0.699,0.48
		c0,0.713,0.082,1.339-0.021,1.933c-0.121,0.691,0.534,1.126,0.489,1.496c-0.297,0.406-0.463,0.634-0.634,0.869
		c-0.522-0.275-0.966-0.651-1.5-0.68c-0.435-0.023-0.789-0.156-1.079-0.325c-0.178-0.393-0.384-0.73-0.269-1.079
		c0.124-0.142,0.219-0.248,0.313-0.356c0.341-0.175,0.515,0.198,0.863,0.237c0.155-0.286,0.635-0.391,0.52-1.008
		c-0.148-0.109-0.375-0.277-0.655-0.484c-0.673-0.182-1.418-0.64-2.141-0.457c-0.66,0.336-1.207,0.585-1.815,0.657
		c-0.111-0.114-0.212-0.218-0.325-0.334c0-0.269,0-0.554,0-0.926c1.109-0.625,0.829-1.743,0.849-2.669
		c-0.338-0.678-1.047-0.674-1.526-1.183c0.148-0.422-0.001-0.896-0.214-1.313c-0.205-0.404-0.196-0.802-0.197-1.215
		c-0.003-1.764-0.011-3.528,0.005-5.292c0.005-0.514-0.094-1.03,0.182-1.545c0.115-0.214,0.144-0.619-0.104-0.904
		c-0.184-0.211-0.048-0.48-0.083-0.712c-0.182-0.182-0.359-0.359-0.582-0.582c-0.767,0-1.585,0-2.448,0
		c0.067-0.43-0.266-0.688-0.497-0.756c-0.446-0.134-0.871-0.43-1.352-0.282c-0.732-1.69-0.398-1.243-1.912-2.182
		c-0.698,0.625-1.016,1.481-1.373,2.264c0.296,0.563,0.322,1.191,0.646,1.691c-0.574,0.467-0.578,0.466-1,0.173
		c-0.386-0.268-0.83-0.477-0.983-1.291c0-0.624,0-1.559,0-2.5c-0.533-0.47-0.775-1.048-0.621-1.764
		c0.204-0.204,0.407-0.407,0.614-0.614c0-0.644,0-1.291,0-1.956c-0.171-0.163-0.353-0.336-0.477-0.454
		c-0.953-0.259-1.833,0.075-2.9,0.158c0.407-0.502-0.251-0.724-0.064-1.068c0.367-0.675,0.119-1.388,0.206-1.994
		c-0.461-1.037-1.088-1.842-2.101-2.353c-0.497-0.008-1.063-0.086-1.542,0.29c-0.099,0.329-0.202,0.651-0.5,0.93
		c0,0.278,0,0.593,0,0.895c-0.152,0.052-0.163,0.261-0.343,0.207c-0.098-0.107-0.191-0.21-0.326-0.358
		c0.477-0.452,0.226-1.088,0.455-1.642c0.224-0.54-0.213-1.101-0.399-1.648c0.301-0.451,0.402-0.89-0.163-1.303
		c-0.984,0.255-1.965-0.284-2.795-0.193c-0.566,0.22-0.912,0.443-1.143,0.807c-0.102,0.708,0.37,1.356,0.216,2.07
		c-0.115,0.536,0.239,1.021,0.198,1.529c-0.048,0.595,0.314,1.03,0.476,1.513c-0.291,0.303-0.534,0.592-1.021,0.677
		c0.348,0.728,0.646,1.354,0.952,1.994c-0.809,0.977-0.289,1.973,0.107,2.913c-0.419,0.413-0.778,0.767-1.141,1.124
		c0.042,0.408-0.182,0.871,0.408,1.251c0.359,0,0.841,0,1.382,0c-0.501,1.282-0.174,2.535-0.292,3.633
		c-0.258,0.733-0.899,1.082-1.069,1.742c0.279,0.305,0.126,0.828,0.545,1.069c0.359,0.207,0.732,0.401,0.968,0.779
		c0.101,1.127-0.894,1.857-1.057,2.975c0.543,0.805,0.431,1.945,1.06,2.876c-0.076,0.56,0.149,1.204-0.217,1.794
		c-0.439,0.708-0.409,1.554-0.634,2.326c-0.06,0.203-0.062,0.459,0.088,0.711c0.235,0.396,0.447,0.84,0.523,1.287
		c0.089,0.525,0.021,1.076,0.021,1.616c0,0.144-0.057,0.35,0.016,0.419c0.382,0.367,0.032,0.865,0.221,1.208
		c0.244,0.443,0.184,0.881,0.191,1.326c0.013,0.827,0.013,1.655-0.002,2.483c-0.004,0.236,0.107,0.5-0.1,0.718
		c-0.392,0.012-0.496-0.371-0.75-0.535c-0.053-0.482,0.136-0.997-0.216-1.396c0.57-1.446-0.066-2.854-0.027-4.214
		c-0.382-0.607-0.938-0.228-1.328-0.345c-0.233,0.209-0.42,0.377-0.591,0.53c0,0.313,0,0.599,0,1.065
		c0.162,0.112,0.427,0.296,0.585,0.406c0.194,0.664-0.327,1.088-0.171,1.526c-0.292,0.463-0.772,0.438-1.117,0.769
		c0,0.407,0,0.863,0,1.353c-0.611-0.106-0.688-0.586-0.805-0.986c-0.246-0.838-0.433-1.692-0.642-2.54
		c-0.088-0.358-0.326-0.672-0.247-1.098c0.11-0.586-0.136-1.133-0.308-1.696c-0.294-0.961-0.836-1.863-0.772-2.824
		c-0.225-0.437-0.409-0.794-0.629-1.22c-0.061-0.516,0.126-1.141-0.083-1.716c-0.17-0.466-0.298-0.943-0.649-1.36
		c-0.307-0.363-0.145-0.998-0.553-1.384c-0.058-0.055-0.038-0.192-0.065-0.363c-0.337,0.19-0.448-0.314-0.794-0.213
		c-0.291,0.168-0.581,0.337-0.86,0.499c0,0.5,0,0.958,0,1.159c0.3,0.87,1.066,0.783,1.445,1.245c0.108,0.54,0.202,1.085,0.307,1.614
		c0.111,0.56,0.101,1.23,0.601,1.674c-0.109,0.109-0.21,0.211-0.313,0.313c-0.413-0.378-0.99-0.381-1.455-0.638
		c-0.404,0.282-0.901,0.396-1.07,1.015c-0.141,0.519-0.204,1.002-0.168,1.424c0.664,0.733,0.724,1.752,1.54,2.212
		c-0.151,0.56,0.19,0.931,0.228,1.22c0.168,0.471,0.625,0.36,0.809,0.767c0.022,0.567-0.098,1.243,0.292,1.889
		c-0.278,0.224-0.527,0.424-0.771,0.619c0,0.37,0,0.683,0,0.962c-0.363,0.128-0.595-0.001-0.822-0.294c0-0.984,0-2.019,0-3.013
		c-0.14-0.14-0.268-0.227-0.338-0.347c-0.168-0.287-0.329-0.583-0.458-0.889c-0.188-0.444-0.686-0.289-0.971-0.533
		c-0.054-0.047-0.102-0.102-0.163-0.162c0-0.563,0-1.137,0-1.711c-0.235-0.207-0.374-0.525-0.702-0.579
		c-0.228,0.207-0.434,0.395-0.626,0.57c0,0.401,0,0.755,0,1.364c-0.194,0.167-0.515,0.44-0.833,0.714
		c0.317,0.517,0.437,1.209,1.145,1.438c0.058,0.019,0.107,0.094,0.142,0.153c0.616,1.066,1.294,2.113,1.099,3.173
		c-0.284,0.395-0.448,0.624-0.627,0.873c-0.591-0.383-1.194-0.637-1.627-1.116c-0.328,0-0.642,0-0.917,0
		c-0.7,0.57,0.019,1.106-0.063,1.666c1.404,1.129,2.418,2.618,3.693,3.862C16.046,59.635,16.653,59.994,17.396,60.352z
		 M57.609,49.463c1.202-0.716,1.152-1.739,1.017-2.834c-0.383,0.06-0.475,0.277-0.62,0.535c-0.145,0.256-0.153,0.672-0.497,0.758
		c-0.646,0.161-0.648,0.699-0.774,1.082C56.895,49.574,57.293,49.452,57.609,49.463z M62.81,32.781
		c-0.28-0.41-0.439-0.641-0.548-0.8c-0.648-0.082-0.777,0.36-0.979,0.583c0.209,0.286,0.373,0.511,0.502,0.686
		c0.282,0,0.492,0,0.624,0C62.714,33.091,62.829,32.891,62.81,32.781z M29.34,13.757c0.219,0.096,0.435,0.166,0.609-0.065
		c0.047-0.279-0.204-0.35-0.317-0.516C29.5,13.353,29.198,13.437,29.34,13.757z"/>
	<path fill="currentColor" d="M17.396,60.352c-0.743-0.358-1.35-0.717-1.872-1.227
		c-1.275-1.244-2.289-2.733-3.693-3.862c0.081-0.56-0.637-1.096,0.063-1.666c0.276,0,0.59,0,0.917,0
		c0.433,0.479,1.036,0.733,1.627,1.116c0.179-0.249,0.344-0.479,0.627-0.873c0.195-1.06-0.483-2.106-1.099-3.173
		c-0.034-0.06-0.083-0.135-0.142-0.153c-0.708-0.229-0.828-0.922-1.145-1.438c0.319-0.273,0.639-0.547,0.833-0.714
		c0-0.609,0-0.963,0-1.364c0.193-0.176,0.399-0.363,0.626-0.57c0.329,0.054,0.467,0.372,0.702,0.579c0,0.574,0,1.147,0,1.711
		c0.061,0.061,0.108,0.115,0.163,0.162c0.285,0.244,0.782,0.089,0.971,0.533c0.13,0.306,0.29,0.602,0.458,0.889
		c0.071,0.12,0.199,0.207,0.338,0.347c0,0.994,0,2.028,0,3.013c0.227,0.293,0.459,0.422,0.822,0.294c0-0.279,0-0.592,0-0.962
		c0.244-0.195,0.493-0.396,0.771-0.619c-0.39-0.646-0.27-1.321-0.292-1.889c-0.184-0.406-0.641-0.296-0.809-0.767
		c-0.037-0.289-0.379-0.66-0.228-1.22c-0.816-0.46-0.875-1.479-1.54-2.212c-0.036-0.422,0.027-0.905,0.168-1.424
		c0.169-0.618,0.666-0.732,1.07-1.016c0.465,0.258,1.042,0.261,1.455,0.639c0.102-0.102,0.204-0.203,0.313-0.313
		c-0.5-0.443-0.49-1.114-0.601-1.674c-0.105-0.529-0.198-1.074-0.307-1.614c-0.379-0.462-1.145-0.375-1.445-1.245
		c0-0.201,0-0.659,0-1.159c0.28-0.162,0.57-0.331,0.86-0.499c0.347-0.102,0.458,0.403,0.794,0.213
		c0.027,0.171,0.007,0.309,0.065,0.363c0.408,0.386,0.246,1.021,0.553,1.384c0.352,0.417,0.479,0.895,0.649,1.36
		c0.21,0.575,0.022,1.2,0.083,1.716c0.22,0.426,0.404,0.783,0.629,1.22c-0.064,0.961,0.478,1.863,0.772,2.824
		c0.172,0.563,0.418,1.11,0.308,1.696c-0.08,0.426,0.158,0.739,0.247,1.098c0.208,0.848,0.396,1.702,0.642,2.54
		c0.117,0.4,0.194,0.88,0.805,0.986c0-0.489,0-0.945,0-1.353c0.344-0.33,0.824-0.306,1.117-0.769
		c-0.155-0.438,0.365-0.862,0.171-1.526c-0.159-0.11-0.424-0.294-0.585-0.406c0-0.467,0-0.753,0-1.065
		c0.171-0.153,0.358-0.321,0.591-0.53c0.39,0.117,0.946-0.263,1.328,0.345c-0.039,1.36,0.597,2.768,0.027,4.214
		c0.352,0.398,0.164,0.913,0.216,1.396c0.254,0.164,0.359,0.547,0.75,0.535c0.207-0.218,0.096-0.481,0.1-0.718
		c0.016-0.828,0.016-1.656,0.002-2.483c-0.007-0.445,0.053-0.883-0.191-1.326c-0.188-0.343,0.162-0.841-0.221-1.208
		c-0.073-0.069-0.016-0.275-0.016-0.419c0-0.54,0.068-1.091-0.021-1.616c-0.076-0.447-0.288-0.891-0.523-1.287
		c-0.149-0.252-0.147-0.508-0.088-0.711c0.225-0.772,0.195-1.618,0.634-2.326c0.366-0.59,0.141-1.234,0.217-1.794
		c-0.628-0.931-0.517-2.071-1.06-2.876c0.164-1.117,1.158-1.848,1.057-2.975c-0.235-0.378-0.609-0.572-0.968-0.779
		c-0.419-0.242-0.266-0.765-0.545-1.069c0.17-0.66,0.812-1.008,1.069-1.742c0.119-1.098-0.208-2.351,0.292-3.633
		c-0.541,0-1.022,0-1.382,0c-0.59-0.38-0.366-0.844-0.408-1.251c0.363-0.357,0.722-0.711,1.141-1.124
		c-0.396-0.94-0.917-1.937-0.107-2.913c-0.306-0.64-0.604-1.267-0.952-1.994c0.488-0.085,0.73-0.374,1.021-0.677
		c-0.162-0.483-0.524-0.917-0.476-1.513c0.042-0.507-0.313-0.993-0.198-1.529c0.154-0.714-0.318-1.362-0.217-2.07
		c0.231-0.363,0.577-0.586,1.144-0.807c0.831-0.091,1.811,0.448,2.795,0.193c0.565,0.413,0.464,0.852,0.163,1.303
		c0.186,0.547,0.623,1.108,0.399,1.648c-0.229,0.554,0.021,1.19-0.455,1.642c0.134,0.148,0.228,0.251,0.326,0.358
		c0.181,0.054,0.191-0.155,0.343-0.207c0-0.302,0-0.617,0-0.895c0.298-0.279,0.401-0.602,0.5-0.93
		c0.479-0.376,1.045-0.298,1.542-0.29c1.013,0.511,1.639,1.316,2.101,2.353c-0.087,0.606,0.161,1.318-0.206,1.994
		c-0.187,0.344,0.471,0.566,0.064,1.068c1.068-0.083,1.948-0.417,2.9-0.158c0.124,0.118,0.306,0.291,0.477,0.454
		c0,0.665,0,1.312,0,1.956c-0.207,0.207-0.41,0.41-0.614,0.614c-0.154,0.715,0.088,1.293,0.621,1.764c0,0.942,0,1.876,0,2.5
		c0.153,0.814,0.598,1.023,0.983,1.291c0.422,0.293,0.426,0.294,1-0.173c-0.324-0.5-0.351-1.128-0.646-1.691
		c0.357-0.782,0.675-1.639,1.373-2.264c1.514,0.939,1.18,0.492,1.912,2.182c0.48-0.148,0.905,0.147,1.352,0.282
		c0.231,0.069,0.564,0.327,0.497,0.756c0.863,0,1.682,0,2.448,0c0.223,0.222,0.4,0.4,0.582,0.582
		c0.035,0.232-0.101,0.501,0.083,0.712c0.247,0.285,0.219,0.69,0.104,0.904c-0.275,0.515-0.177,1.031-0.182,1.545
		c-0.016,1.764-0.008,3.527-0.005,5.292c0.001,0.413-0.008,0.811,0.197,1.215c0.213,0.418,0.362,0.892,0.214,1.313
		c0.479,0.509,1.188,0.505,1.526,1.183c-0.02,0.926,0.261,2.044-0.849,2.669c0,0.372,0,0.657,0,0.926
		c0.113,0.116,0.214,0.22,0.325,0.334c0.608-0.072,1.155-0.321,1.815-0.657c0.723-0.183,1.468,0.275,2.141,0.457
		c0.28,0.207,0.507,0.375,0.655,0.484c0.115,0.617-0.364,0.722-0.52,1.008c-0.349-0.039-0.522-0.412-0.863-0.237
		c-0.095,0.108-0.189,0.215-0.313,0.356c-0.115,0.349,0.091,0.687,0.269,1.079c0.29,0.169,0.645,0.302,1.079,0.325
		c0.534,0.028,0.978,0.404,1.5,0.68c0.171-0.235,0.337-0.463,0.634-0.869c0.045-0.37-0.61-0.805-0.489-1.496
		c0.104-0.594,0.021-1.22,0.021-1.933c0.146-0.1,0.352-0.241,0.699-0.48c0.1,0,0.413,0,0.73,0c0.34,0.317,0.526,0.696,0.52,1.185
		c-0.017,1.077-0.005,2.155-0.005,3.217c-0.537,0.517-0.447,1.146-0.416,1.738c0.671,0.817,1.408-0.259,2.094,0.16
		c0.116,0.203,0.016,0.458,0.052,0.678c0.157,0.334,0.547,0.316,0.774,0.555c0.195,0,0.411,0,0.627,0
		c0.304-0.252,0.421-0.608,0.608-1.003c0.958-0.265,1.033-1.415,1.762-2.01c0.269,0,0.554,0,0.865,0
		c0.258-0.282,0.522-0.573,0.775-0.852c0.433,0,0.817,0,1.161,0c0.135,0.115,0.244,0.208,0.334,0.285
		c0.042,0.481-0.196,0.813-0.465,1.134c-0.201,0.242-0.467,0.413-0.624,0.712c-0.207,0.391-0.366,0.773-0.488,1.208
		c-0.129,0.457-0.075,1.056-0.58,1.374c0.009,0.527-0.258,0.994-0.479,1.418c-0.229,0.437-0.541,0.86-0.833,1.273
		c-0.906,1.28-2.001,2.428-3.211,3.401c-0.734,0.59-1.507,1.176-2.316,1.681c-0.137,0.085-0.316,0.136-0.424,0.267
		c-0.785,0.96-1.852,1.575-2.884,2.181c-0.794,0.466-1.655,0.888-2.52,1.197c-0.569,0.204-1.07,0.55-1.657,0.7
		c-0.55,0.141-1.122,0.262-1.616,0.522c-0.45,0.236-1.003-0.101-1.375,0.335c-0.6-0.069-1.167,0.117-1.748,0.204
		c-0.423,0.063-0.936-0.13-1.276,0.047c-0.46,0.237-0.999-0.018-1.305,0.217c-0.374,0.287-0.855-0.018-1.165,0.381
		c-0.081,0.104-0.41,0.016-0.626,0.016c-1.116,0-2.234-0.048-3.347,0.014c-0.993,0.056-1.925-0.185-2.836-0.476
		c-0.341-0.109-0.666-0.128-0.999-0.194c-1.084-0.218-2.222-0.103-3.271-0.443c-0.978-0.318-1.962-0.63-2.914-1.043
		c-1.066-0.464-2.092-1.004-3.22-1.363c-0.998-0.316-1.885-1.021-2.772-1.626c-0.366-0.249-0.679-0.558-1.114-0.712
		C17.575,60.822,17.378,60.637,17.396,60.352z M38.206,49.833c-0.122-0.734-0.509-1.183-1.104-1.458
		c-0.855,0.294-1.184,0.881-1.106,1.743c0.053,0.59-0.373,1.13-0.211,1.739c-0.365,0.619-0.285,1.356-0.583,2.02
		c-0.326,0.725-0.232,1.6-0.497,2.375c0.095,0.139,0.292,0.229,0.211,0.465c0.749,0.313,1.479,0.703,2.481,0.423
		c0.177-0.198,0.437-0.489,0.683-0.765c0.236,0.006,0.414,0.015,0.61,0.17c0.167,0.132,0.469,0.081,0.776-0.019
		c-0.108-0.994,0.121-1.938,0.669-2.749c-0.248-0.438-0.529-0.793-0.663-1.197c-0.21-0.635-0.321-1.303-0.475-1.956
		C38.743,50.371,38.489,50.117,38.206,49.833z M47.79,52.937c0.742-0.185,1.363,0.311,2.066,0.423
		c0.443,0.071,0.347,0.666,0.71,0.838c0.104,0.049,0.113,0.278,0.292,0.18c0.395-0.647,0.359-0.82-0.22-1.023
		c-0.666-0.235-1.095-0.676-1.297-1.292c0.624-0.894,1.476-1.206,2.4-1.355c0.026-0.2,0.07-0.372-0.021-0.538
		c-0.239-0.108-0.484-0.052-0.884-0.032c-0.125,0.158-0.322,0.407-0.515,0.65c-0.533,0-1.029,0-1.514,0
		c-0.211,0.531-0.41,1.038-0.911,1.281c-0.247-0.038-0.339-0.37-0.598-0.187C47.281,52.412,47.281,52.412,47.79,52.937z
		 M29.898,26.242c0.152,0.932,0.546,1.665,0.879,2.409c0.611,0.096,1.124,0.481,1.772,0.217c-0.042-0.633,0.139-1.302-0.327-1.854
		c-0.5-0.122-0.876-0.404-1.19-0.781c0.091-0.376-0.197-0.631-0.305-0.951C30.335,25.49,30.361,26.027,29.898,26.242z
		 M32.607,42.521c-0.146-0.432-0.398-0.727-0.102-1.196c0.234-0.372,0.027-0.938-0.26-1.335c-0.326,0-0.639,0-0.897,0
		c-0.413,0.319-0.644,0.69-0.765,1.216c0.399,0.661,0.324,1.592,0.999,2.23c0.152-0.084,0.347,0.069,0.534-0.132
		C32.368,43.165,32.348,42.801,32.607,42.521z M30.521,34.547c0.394,0.854,0.387,1.96,1.724,1.958
		c0.481-0.604,0.667-1.336,0.477-2.032c-0.125-0.461-0.393-1.087-1.151-0.991C31.254,33.804,30.929,34.133,30.521,34.547z
		 M31.483,47.087c0.114,0.388-0.218,0.663-0.25,1.014c0.103,0.234,0.195,0.444,0.288,0.658c0.267,0.017,0.435,0.319,0.856,0.253
		c0.272-0.225,0.951-0.195,0.814-0.925c-0.334-0.345-0.654-0.675-0.969-1C31.998,47.087,31.785,47.087,31.483,47.087z
		 M42.291,46.336c-0.693,0.58-1.078,1.164-0.816,1.983c0.161,0.363,0.439,0.311,0.548,0.283c0.382-0.334,0.646-0.564,0.876-0.766
		c0-0.326,0-0.606,0-0.824C42.698,46.791,42.533,46.607,42.291,46.336z M41.832,37.649c0.478-0.384,0.857-0.76,0.866-1.196
		c-0.284-0.331-0.482-0.562-0.726-0.844c-0.431,0.331-0.498,0.911-0.715,1.199C41.461,37.107,41.635,37.362,41.832,37.649z
		 M42.932,42.411c-0.238-0.294-0.414-0.51-0.565-0.696c-0.401-0.102-0.64,0.048-0.732,0.332c-0.101,0.423,0.233,0.619,0.277,0.91
		c0.249,0,0.489,0,0.688,0C42.861,42.771,42.961,42.562,42.932,42.411z M18.698,48.253c-0.208-0.27-0.522-0.335-0.792-0.46
		c-0.104,0.105-0.18,0.181-0.239,0.24c0.146,0.376,0.458,0.655,0.421,1.12c-0.026,0.337,0.186,0.567,0.609,0.514
		C18.697,49.164,18.697,48.708,18.698,48.253z M54.43,52.584c0.332-0.604-0.036-0.841-0.314-1.085
		c-0.196-0.172-0.435-0.178-0.665,0.097C53.685,51.983,54.007,52.273,54.43,52.584z M20.103,53.864
		c-0.214-0.333-0.336-0.541-0.626-0.513c-0.2,0.164-0.089,0.373-0.083,0.565c0.1,0.1,0.198,0.197,0.249,0.249
		C19.784,54.073,19.926,53.98,20.103,53.864z M17.103,46.007c0.154-0.146,0.158-0.29-0.006-0.433
		c-0.099,0.016-0.217-0.045-0.29,0.083c-0.06,0.132-0.047,0.254,0.083,0.35C16.959,46.007,17.03,46.007,17.103,46.007z
		 M47.34,48.169c-0.102,0.07-0.102,0.143,0,0.212C47.441,48.312,47.441,48.24,47.34,48.169z"/>
	<path fill="currentColor" d="M57.609,49.463c-0.315-0.012-0.714,0.11-0.875-0.459
		c0.126-0.383,0.129-0.921,0.774-1.082c0.344-0.086,0.353-0.502,0.497-0.758c0.146-0.258,0.237-0.476,0.62-0.535
		C58.761,47.724,58.811,48.748,57.609,49.463z"/>
	<path fill="currentColor" d="M29.34,13.757c-0.142-0.32,0.16-0.405,0.292-0.581
		c0.113,0.166,0.364,0.237,0.317,0.516C29.775,13.923,29.559,13.853,29.34,13.757z"/>
	<path style="fill-rule:evenodd;clip-rule:evenodd;fill:none;" d="M38.206,49.833c0.283,0.283,0.537,0.537,0.791,0.791
		c0.153,0.653,0.265,1.321,0.475,1.956c0.134,0.404,0.415,0.76,0.663,1.197c-0.548,0.811-0.777,1.755-0.669,2.749
		c-0.308,0.1-0.609,0.15-0.776,0.019c-0.196-0.155-0.374-0.164-0.61-0.17c-0.246,0.275-0.506,0.566-0.683,0.765
		c-1.002,0.28-1.732-0.109-2.481-0.423c0.081-0.236-0.116-0.326-0.211-0.465c0.265-0.775,0.171-1.65,0.497-2.375
		c0.298-0.663,0.218-1.4,0.583-2.02c-0.162-0.609,0.264-1.149,0.211-1.739c-0.078-0.862,0.25-1.449,1.106-1.743
		C37.697,48.651,38.083,49.099,38.206,49.833z"/>
	<path style="fill-rule:evenodd;clip-rule:evenodd;fill:none;" d="M47.79,52.937c-0.509-0.525-0.509-0.525-0.489-1.056
		c0.259-0.184,0.351,0.148,0.598,0.187c0.501-0.243,0.7-0.75,0.911-1.281c0.484,0,0.98,0,1.514,0c0.192-0.243,0.39-0.492,0.515-0.65
		c0.399-0.02,0.645-0.076,0.884,0.032c0.091,0.166,0.047,0.338,0.021,0.538c-0.925,0.149-1.776,0.462-2.4,1.355
		c0.202,0.616,0.631,1.057,1.297,1.292c0.579,0.203,0.614,0.376,0.22,1.023c-0.179,0.099-0.188-0.131-0.292-0.18
		c-0.363-0.172-0.267-0.767-0.71-0.838C49.153,53.248,48.532,52.752,47.79,52.937z"/>
	<path style="fill-rule:evenodd;clip-rule:evenodd;fill:none;" d="M29.898,26.242c0.463-0.214,0.437-0.751,0.829-0.959
		c0.108,0.32,0.396,0.574,0.305,0.951c0.314,0.377,0.689,0.659,1.19,0.781c0.465,0.551,0.285,1.22,0.327,1.854
		c-0.648,0.265-1.161-0.121-1.772-0.217C30.444,27.906,30.05,27.173,29.898,26.242z"/>
	<path style="fill-rule:evenodd;clip-rule:evenodd;fill:none;" d="M32.607,42.521c-0.259,0.28-0.239,0.644-0.49,0.783
		c-0.188,0.201-0.382,0.048-0.534,0.132c-0.675-0.639-0.6-1.569-0.999-2.23c0.121-0.525,0.352-0.896,0.765-1.216
		c0.258,0,0.571,0,0.897,0c0.287,0.397,0.494,0.963,0.26,1.335C32.209,41.794,32.461,42.089,32.607,42.521z"/>
	<path style="fill-rule:evenodd;clip-rule:evenodd;fill:none;" d="M30.521,34.547c0.408-0.414,0.733-0.744,1.05-1.065
		c0.758-0.096,1.025,0.53,1.151,0.991c0.189,0.696,0.004,1.428-0.477,2.032C30.909,36.508,30.916,35.401,30.521,34.547z"/>
	<path style="fill-rule:evenodd;clip-rule:evenodd;fill:none;" d="M31.483,47.087c0.301,0,0.514,0,0.738,0
		c0.315,0.325,0.635,0.655,0.969,1c0.137,0.729-0.542,0.7-0.814,0.925c-0.421,0.066-0.589-0.236-0.856-0.253
		c-0.093-0.214-0.186-0.424-0.288-0.658C31.265,47.75,31.597,47.475,31.483,47.087z"/>
	<path style="fill-rule:evenodd;clip-rule:evenodd;fill:none;" d="M42.291,46.336c0.242,0.271,0.407,0.454,0.607,0.677
		c0,0.218,0,0.498,0,0.824c-0.23,0.201-0.494,0.432-0.876,0.766c-0.108,0.027-0.387,0.08-0.548-0.283
		C41.212,47.5,41.597,46.917,42.291,46.336z"/>
	<path style="fill-rule:evenodd;clip-rule:evenodd;fill:none;" d="M41.832,37.649c-0.196-0.287-0.37-0.542-0.574-0.842
		c0.217-0.288,0.284-0.868,0.715-1.199c0.243,0.283,0.441,0.513,0.726,0.844C42.689,36.889,42.309,37.265,41.832,37.649z"/>
	<path style="fill-rule:evenodd;clip-rule:evenodd;fill:none;" d="M42.932,42.411c0.029,0.151-0.071,0.36-0.332,0.546
		c-0.199,0-0.439,0-0.688,0c-0.044-0.291-0.378-0.487-0.277-0.91c0.093-0.284,0.331-0.434,0.732-0.332
		C42.518,41.901,42.694,42.117,42.932,42.411z"/>
	<path style="fill-rule:evenodd;clip-rule:evenodd;fill:none;" d="M18.697,48.253c0,0.455,0,0.91,0,1.414
		c-0.423,0.054-0.635-0.177-0.609-0.514c0.037-0.465-0.275-0.744-0.421-1.12c0.059-0.06,0.135-0.135,0.239-0.24
		C18.176,47.918,18.49,47.984,18.697,48.253z"/>
	<path style="fill-rule:evenodd;clip-rule:evenodd;fill:none;" d="M54.43,52.584c-0.423-0.312-0.745-0.602-0.979-0.988
		c0.23-0.274,0.469-0.269,0.665-0.097C54.394,51.744,54.762,51.981,54.43,52.584z"/>
	<path style="fill-rule:evenodd;clip-rule:evenodd;fill:none;" d="M20.103,53.864c-0.177,0.116-0.319,0.209-0.461,0.302
		c-0.051-0.052-0.149-0.149-0.249-0.249c-0.005-0.192-0.117-0.401,0.084-0.564C19.767,53.323,19.889,53.531,20.103,53.864z"/>
	<path style="fill-rule:evenodd;clip-rule:evenodd;fill:none;" d="M17.103,46.007c-0.073,0-0.143,0-0.213,0
		c-0.13-0.096-0.143-0.218-0.083-0.35c0.073-0.128,0.19-0.067,0.29-0.083C17.261,45.717,17.256,45.862,17.103,46.007z"/>
	<path style="fill-rule:evenodd;clip-rule:evenodd;fill:none;" d="M47.34,48.169c0.101,0.07,0.101,0.143,0,0.212
		C47.239,48.312,47.239,48.24,47.34,48.169z"/>
</g>
</svg>
