<?xml version="1.0" encoding="iso-8859-1"?>
<!-- Generator: Adobe Illustrator 16.0.0, SVG Export Plug-In . SVG Version: 6.00 Build 0)  -->
<!DOCTYPE svg PUBLIC "-//W3C//DTD SVG 1.1//EN" "http://www.w3.org/Graphics/SVG/1.1/DTD/svg11.dtd">
<svg version="1.1" id="Layer_1" xmlns="http://www.w3.org/2000/svg" xmlns:xlink="http://www.w3.org/1999/xlink" x="0px" y="0px"
	 width="72.36px" height="72.18px" viewBox="0 0 72.36 72.18" style="enable-background:new 0 0 72.36 72.18;" xml:space="preserve"
	>
<g>
	
	<path fill="currentColor" d="M16.257,48.089c-0.112,0.105-0.21,0.197-0.345,0.323
		c0,1.223-0.056,2.48,0.018,3.73c0.061,1.034-0.307,2.012-0.266,3.044c0.013,0.333-0.218,0.708-0.185,1.097
		c0.015,0.172,0.037,0.318,0.125,0.49c0.327,0.641,0.304,0.652,0.298,1.414c-0.813,0.265-1.317-0.314-1.759-0.778
		c-0.505-0.53-0.994-1.09-1.456-1.659c-0.707-0.872-1.307-1.829-1.959-2.744c-0.489-0.688-0.866-1.444-1.319-2.147
		c-0.443-0.688-0.665-1.459-1.045-2.165c-0.458-0.849-0.791-1.756-1.143-2.656c-0.227-0.578-0.047-1.116-0.168-1.593
		c0.387-0.386,0.74-0.738,0.932-0.93c0.243-0.53,0.136-0.868,0.34-1.208c0.319-0.53,0.542-1.135,0.699-1.759
		c0.099-0.392,0.259-0.826,0.794-0.966c0.229-0.06,0.554-0.136,0.682-0.449c0.09-0.852-0.188-1.751,0.304-2.56
		c0.645-1.078,1.742-1.59,3.068-2.083c0.141,0,0.5,0,0.847,0c0.33,0.153,0.294,0.555,0.584,0.782c0,0.716,0,1.462,0,2.21
		c0.395,0.113,0.554-0.282,0.886-0.313c0.265-0.527,0.497-1.089,0.817-1.594c0.25-0.395,0.063-0.859,0.242-1.194
		c0.233-0.436,0.178-0.731-0.019-1.145c-0.222-0.467,0.175-0.932,0.217-1.513c0.183-0.147,0.433-0.348,0.608-0.489
		c0.202-1.126,0.202-1.126,0.805-1.716c0.206-0.013,0.408,0.042,0.59-0.16c0.089-0.098,0.325-0.062,0.499-0.087
		c0.142-0.231,0.041-0.485,0.078-0.792c-0.136-0.106-0.304-0.238-0.494-0.386c0.381-0.829,0.249-1.68,0.275-2.518
		c0.002-0.057,0.077-0.11,0.11-0.168c0.25-0.436,0.602-0.846,0.722-1.315c0.139-0.544,0.54-0.866,0.782-1.303
		c0.558-1.007,1.287-1.899,1.831-2.91c0.044-0.082-0.01-0.213,0.1-0.282c0.521-0.325,0.582-0.901,0.798-1.424
		c0.282-0.1,0.533-0.381,0.922-0.315c0.639-0.658,1.448-1.154,1.948-2.009c0.368,0.181,0.695,0.342,1.081,0.532
		c0.492-0.688,0.96-1.374,1.01-2.288c1.356-1.458,1.916-1.866,2.908-2.084c0.519-0.519,1.079-1.072,1.631-1.634
		c0.36-0.366,0.778-0.564,1.299-0.513c0.42,0.288,0.821,0.612,1.266,0.855c0.673,0.369,1.117,0.929,1.461,1.583
		c0.186,0.352,0.313,0.734,0.489,1.092c0.137,0.277,0.372,0.414,0.782,0.339c0.058-0.341,0.349-0.582,0.591-0.816
		c1.113-0.229,1.89,0.428,2.588,1.056c1.16,1.044,2.415,1.995,3.437,3.189c0.56,0.655,1.062,1.345,1.021,2.319
		c0.499,0.439,0.992,0.939,1.186,1.623c0.188,0.667,0.809,0.769,1.274,1.068c0.676,0.435,1.227,0.952,1.696,1.634
		c0.775,1.126,1.421,2.358,2.423,3.317c0.163,0.155,0.05,0.44,0.317,0.532c0,0.494,0,0.993,0,1.472
		c0.329,0.424,0.722,0.792,0.663,1.371c-0.017,0.159,0.097,0.249,0.148,0.372c0.444,1.041,0.78,2.106,0.724,3.265
		c-0.026,0.549-0.1,1.123,0.296,1.635c0.628,0.077,1.318-0.154,1.907,0.378c0.029-0.072,0.059-0.144,0.087-0.216
		c0.186,0.217,0.348,0.46,0.56,0.646c0.558,0.491,0.812,1.176,0.568,1.793c-0.467,1.187-0.334,2.474-0.795,3.663
		c-0.217,0.557-0.037,1.267-0.037,1.962c0.262-0.134,0.47-0.217,0.649-0.34c0.146-0.1,0.258-0.249,0.424-0.414
		c0-0.347,0-0.732,0-1.08c0.19-0.19,0.343-0.344,0.521-0.521c0.397,0,0.823,0,1.276,0c0.607,0.546,1.072,1.373,1.236,2.239
		c0.452,0.435,0.917,0.882,1.414,1.361c0.326,0.003,0.631,0.233,0.961,0.326c0.467,0.718,0.531,1.381,0.279,2.188
		c-0.176,0.563-0.352,1.062-0.688,1.561c-0.347,0.515-0.319,1.252-0.876,1.682c-0.211,0.871-0.923,1.476-1.205,2.309
		c-0.101,0.245-0.371,0.181-0.545,0.284c-0.547,0.325-1.048,0.639-1.158,1.355c-0.015,0.099-0.017,0.437-0.284,0.494
		c-0.438-0.372-0.465-0.438-0.509-1.224c-0.381-0.123-0.744-0.166-1.047,0.239c0,0.834,0,1.692,0,2.574
		c-0.285,0.335-0.584,0.661-0.838,1.036c-0.863,1.275-2.132,2.106-3.352,3.017c-1.556,1.159-3.23,2.077-4.953,2.921
		c-0.774,0.38-1.593,0.674-2.363,1.072c-0.231,0.119-0.533,0.095-0.794,0.166c-0.546,0.151-1.086,0.313-1.606,0.554
		c-0.4,0.185-0.89,0.151-1.299,0.263c-0.949,0.259-1.976,0.139-2.871,0.613c-0.748-0.152-1.429,0.279-2.179,0.231
		c-0.932-0.061-1.87,0-2.805-0.021c-0.454-0.011-0.926,0.12-1.359-0.1c-0.469-0.238-1.059,0.101-1.428-0.178
		c-0.415-0.313-0.914,0.083-1.292-0.33c-0.132-0.145-0.551-0.057-0.833-0.027c-0.299,0.031-0.464-0.315-0.776-0.226
		c-0.433,0.125-0.871-0.104-1.179-0.266c-0.653-0.344-1.327-0.487-2.026-0.584c-0.22-0.03-0.377-0.175-0.543-0.256
		c-0.366-0.178-0.739-0.304-1.112-0.45c-0.389-0.153-0.796-0.329-1.168-0.579c-0.574-0.385-1.264-0.584-1.885-0.909
		c-1.231-0.645-2.316-1.514-3.503-2.224c-0.503-0.301-0.644-0.891-0.855-1.371c-0.121-0.272-0.245-0.659-0.234-0.973
		c0.059-1.777-0.381-3.527-0.252-5.31c0.028-0.389,0.268-0.688,0.251-1.098c-0.041-1.019-0.338-2.009-0.271-3.044
		C16.539,48.739,16.386,48.386,16.257,48.089z M23.903,56.576c0.029-0.896,0.059-1.761,0.172-2.638
		c0.138-1.063,0.013-2.161-0.128-3.257c-0.229-1.785-0.035-3.602-0.212-5.416c-0.202-2.067-0.035-4.17-0.055-6.257
		c-0.005-0.559,0.397-1.055,0.235-1.518c-0.861-1.446-0.624-2.936-0.659-4.409c0.479-0.315,0.524-0.924,0.865-1.347
		c-0.024-1.006,0.665-1.626,1.266-2.278c0.239-0.259,0.47-0.514,0.596-0.837c0.104-0.267,0.257-0.48,0.462-0.673
		c0.428-0.401,0.855-0.765,1.397-1.051c0.75-0.396,1.374-1.027,2.066-1.538c0.409-0.301,0.848-0.559,1.269-0.844
		c0.723-0.491,1.388-1.08,2.285-1.265c0.189-0.039,0.406-0.129,0.53-0.268c0.528-0.593,1.196-0.652,1.945-0.566
		c0.124,0.259,0.382,0.424,0.541,0.723c0.217,0.41,0.461,0.787,0.375,1.245c-0.092,0.483,0.242,0.861,0.23,1.316
		c-0.056,2.313,0.365,4.611,0.218,6.928c-0.031,0.502,0.018,1.009-0.01,1.511c-0.036,0.669,0.251,1.27,0.349,1.904
		c0.114,0.746,0.61,1.463,0.122,2.292c-0.149,0.252-0.176,0.771,0.083,1.117c0.1,0.133,0.113,0.258,0.097,0.393
		c-0.106,0.867,0.236,1.767-0.202,2.615c-0.074,0.142-0.087,0.425,0.003,0.521c0.318,0.344,0.195,0.739,0.196,1.111
		c0.01,3.311,0,6.621,0.014,9.932c0.002,0.369-0.064,0.726,0.171,1.121c0.178,0.3,0.139,0.825-0.156,1.102
		c-0.039,0.215,0.14,0.253,0.14,0.335c0.011,1.609,0.008,3.218,0.008,4.827c-0.022,0.445-0.547,0.603-0.625,1.01
		c0.188,0.25,0.418,0.178,0.596,0.105c0.645-0.26,1.299-0.414,1.999-0.393c0.646,0.02,1.297-0.02,1.942,0.016
		c0.276,0.016,0.438-0.176,0.692-0.234c0.229,0.243,0.542,0.23,0.856,0.225c0.322-0.006,0.646-0.001,0.954-0.001
		c0.118-0.098,0.226-0.166,0.354-0.229c0.744-0.369,1.513-0.775,1.957-1.479c0.257-0.407,0.567-0.647,1.021-0.896
		c1.099,0.067,2.286,0.124,3.211-0.785c0.354-0.328,0.228-0.764,0.271-1.173c0.059-0.548-0.131-1.092,0.176-1.657
		c0.177-0.326,0.078-0.852-0.012-1.261c-0.216-0.981-0.161-1.674,0.002-2.764c0.131-0.871,0.189-1.801-0.052-2.653
		c-0.111-0.396-0.206-0.83-0.087-1.118c0.26-0.629,0.094-1.254,0.195-1.866c0.07-0.419-0.272-0.685-0.25-1.102
		c0.062-1.112-0.04-2.233,0.038-3.344c0.08-1.141-0.379-2.222-0.238-3.235c-0.237-0.462-0.422-0.819-0.639-1.24
		c0-0.28,0-0.639,0-1.104c0.188-0.152,0.438-0.353,0.613-0.494c0-0.603,0.115-1.138-0.025-1.594
		c-0.263-0.854-0.628-1.685-1.036-2.482c-0.467-0.912-1.136-1.701-1.768-2.506c-0.15-0.191-0.338-0.389-0.552-0.485
		c-0.407-0.182-0.765-0.477-0.877-0.846c-0.124-0.406-0.652-0.191-0.671-0.568c-0.021-0.431-0.364-0.64-0.631-0.805
		c-0.487-0.304-0.875-0.696-1.271-1.091c-0.56-0.558-1.112-1.123-1.657-1.674c-0.386,0-0.744,0-1.102,0
		c-0.094-0.245-0.385-0.147-0.485-0.266c-0.146-0.582,0.08-1.154-0.151-1.734c-0.423,0.149-0.594,0.491-0.878,0.707
		c-0.347,0-0.706,0-0.841,0c-1.087-0.434-2.091-0.587-2.821-1.293c-0.717,0-1.437,0-2.156-0.001c-0.638,0.438-1.267,0.865-2,1.167
		c-0.707,0.292-1.328,0.792-1.987,1.2c-0.586,0.316-0.794-0.555-1.328-0.424c-0.946,0.514-0.865,1.417-0.843,2.266
		c-0.506,0.506-1.004,0.976-1.469,1.477c-0.423,0.456-0.786,0.968-1.218,1.415c-0.533,0.55-0.854,1.248-1.332,1.841
		c-0.361,0.448-0.813,0.987-0.911,1.542c-0.163,0.916-0.756,1.567-1.115,2.485c0,0.734,0,1.597,0,2.479
		c0.319,0.337,0.717,0.64,0.863,1.161c-0.035,0.347,0.008,0.705-0.198,1.083c-0.242,0.447-0.268,0.988-0.246,1.518
		c0.029,0.719,0.007,1.439,0.007,2.159c0,0.18,0.031,0.366-0.005,0.539c-0.287,1.382-0.208,1.917-0.03,3.281
		c0.089,0.683,0.289,1.349,0.278,2.065c-0.018,1.191-0.232,2.408,0.188,3.581c-0.117,1.49,0.179,2.962,0.199,4.444
		c0.01,0.735,0.273,1.257,0.821,1.666c0.171-0.012,0.308-0.021,0.428-0.03C24.47,57.451,24.22,57.046,23.903,56.576z M31.22,37.47
		c0-2.825,0-5.578,0-8.311c-0.164-0.12-0.231-0.327-0.521-0.276c-0.337,0.298-0.552,0.69-0.535,1.214
		c0.019,0.573-0.024,1.149,0.012,1.72c0.048,0.761-0.188,1.544,0.197,2.283c0.07,0.135,0.064,0.422-0.028,0.507
		c-0.266,0.243-0.166,0.528-0.172,0.796c-0.014,0.605-0.004,1.21-0.004,1.661c0.23,0.296,0.378,0.486,0.536,0.688
		C30.831,37.532,31.003,37.503,31.22,37.47z M30.922,51.917c-0.548,1.423-0.214,2.814-0.329,4.174
		c-0.117,1.38,0.294,2.713,0.229,4.103c0.179-0.016,0.277-0.024,0.426-0.038c0-0.692-0.002-1.368,0-2.044
		c0.002-0.588,0.005-0.588,0.409-1.319c0.091,0.647-0.156,1.349,0.378,1.888c0.788-0.009,0.788-0.009,1.431-0.476
		c-0.344-0.379-0.803-0.69-0.917-1.219c-0.118-0.547-0.537-0.868-0.869-1.225c0-0.141,0.04-0.271-0.006-0.353
		c-0.387-0.688-0.495-1.429-0.418-2.195C31.299,52.775,31.139,52.408,30.922,51.917z M16.554,44.963
		c0.267-0.915,1.229-1.849,1.016-3.206c-0.52,0.21-0.78,0.715-1.364,0.724c0.012-0.33-0.317-0.136-0.391-0.297
		c-0.524-0.368-0.264-0.906-0.356-1.354c-0.16-0.103-0.215-0.321-0.555-0.283c-0.038,0.075-0.119,0.235-0.2,0.396
		c-0.088,0.272-0.206,0.686-0.067,0.978c0.485,1.017,0.38,2.129,0.61,3.183c0.075,0.345,0.278,0.566,0.342,0.837
		C15.91,45.616,16.18,45.342,16.554,44.963z M34.488,47.851c0-0.82,0.024-1.573-0.008-2.323c-0.024-0.582,0.107-1.163-0.173-1.757
		c-0.129-0.274-0.155-0.737,0.093-1.116c0.219-0.335,0.03-0.765,0.093-1.144c0.066-0.398-0.189-0.643-0.316-0.98
		c-0.38,0.335-0.423,0.803-0.735,0.958c-0.134,0.748,0.046,1.392-0.21,2.069c-0.234,0.62,0.11,1.391-0.259,2.042
		c0.493,0.719,1.082,1.379,1.143,2.289C34.264,47.873,34.333,47.866,34.488,47.851z M34.028,51.472
		c0.164,1.351-0.164,2.728,0.22,4.096c0.153,0.546-0.098,1.159-0.154,1.734c-0.104,1.069-0.163,2.174,0.202,3.229
		c0.016,0.045,0.113,0.063,0.177,0.095c0.218,0.021,0.27-0.201,0.448-0.311c0-0.19,0.004-0.401-0.001-0.612
		c-0.003-0.103-0.013-0.207-0.039-0.306c-0.231-0.868-0.22-0.865,0.013-1.89c0.062-0.271,0.137-0.652,0.003-0.833
		c-0.298-0.401-0.175-0.814-0.184-1.218c-0.024-1.074-0.008-2.149-0.008-3.225c0-0.251,0.036-0.509-0.014-0.749
		c-0.029-0.138-0.199-0.244-0.307-0.367C34.274,51.226,34.198,51.302,34.028,51.472z M30.157,41.288
		c0.148,0.114,0.236,0.235,0.233,0.438c-0.015,0.971,0.051,1.946-0.022,2.911c-0.076,0.998,0.28,1.943,0.242,2.928
		c0.102,0.102,0.204,0.203,0.312,0.312c0.106-0.313,0.338-0.558,0.335-0.929c-0.018-2.116-0.009-4.231-0.009-6.445
		c-0.309,0.1-0.58-0.074-0.843,0.112C30.362,40.853,30.456,41.131,30.157,41.288z M27.719,48.093
		c0.144-0.245-0.02-0.483,0.182-0.653c0.229-0.193,0.181-0.562,0.084-0.689c-0.273-0.361-0.156-0.739-0.193-1.111
		c-0.018-0.172,0.02-0.382-0.066-0.508c-0.295-0.431-0.25-0.958-0.116-1.327c0.316-0.874,0.085-1.725,0.199-2.563
		c-0.249-0.117-0.333-0.416-0.665-0.183c0,0.561-0.002,1.163,0,1.766c0.003,0.588,0.023,1.16,0.191,1.746
		c0.162,0.563-0.273,1.122-0.206,1.734c0.065,0.59,0.014,1.193,0.014,1.788C27.389,48.093,27.532,48.093,27.719,48.093z
		 M26.701,33.942c0.071,0.605-0.16,1.246,0.105,1.801c0.295,0.618,0.36,1.245,0.337,1.831c0.136,0.16,0.227,0.268,0.318,0.376
		c0.115-0.115,0.217-0.217,0.337-0.337c-0.052-0.582,0.137-1.211-0.09-1.777c-0.146-0.362-0.222-0.634,0.016-0.965
		c0.154-0.215,0.146-0.543,0.048-0.715c-0.291-0.515-0.121-1.089-0.243-1.644C26.982,32.886,27.189,33.604,26.701,33.942z
		 M27.754,53.35c0-0.74,0-1.361,0-1.994c-0.134,0-0.23,0-0.359,0c0,0.57,0,1.12,0,1.635C27.506,53.102,27.581,53.177,27.754,53.35z
		 M34.003,32.25c-0.486,0.947-0.236,1.808,0,2.668C34.003,34.058,34.003,33.198,34.003,32.25z M34.285,37.061
		c-0.064-0.385,0.163-0.814-0.41-1.039c0,0.354,0,0.687,0,1.039C34.006,37.061,34.103,37.061,34.285,37.061z M59.954,53.045
		c0.001-0.288,0.101-0.564-0.079-0.865c-0.283,0.381-0.283,0.381-0.259,0.865C59.71,53.045,59.806,53.045,59.954,53.045z"/>
	
	
	
	
	
	
	
	
	
	
	
	
	
	<path fill="currentColor" d="M43.827,29.791c0.478-0.536,1.277-0.849,1.73-1.571
		c0.653,0.007,1.257,0.037,1.491,0.792c0.916,0.686,1.304,1.81,2.128,2.572c-0.104,0.863,0.609,1.403,0.805,2.147
		c0.135,0.929,0.068,1.855-0.47,2.667c-0.166,0.25-0.184,0.529-0.101,0.699c0.331,0.671,0.285,1.407,0.46,2.085
		c0.201,0.782,0.117,1.534,0.158,2.297c0.017,0.296,0.12,0.621-0.181,0.902c-0.108,0.102-0.062,0.42-0.018,0.625
		c0.227,1.053,0.145,1.042,0.025,2.199c-0.077,0.748-0.188,1.541,0.118,2.309c0.124,0.31,0.146,0.729,0.049,1.046
		c-0.376,1.223-0.139,2.464-0.188,3.693c-0.02,0.476-0.088,0.956,0.182,1.435c0.138,0.246,0.075,0.644,0.015,0.955
		c-0.272,1.425-0.271,1.42,0,2.631c0.1,0.444-0.206,0.771-0.447,1.146c-0.523,0-1.053,0-1.633,0c-0.235-0.324-0.648-0.46-1.099-0.66
		c-0.04,1.405-0.741,2.394-1.673,3.295c-0.119,0-0.26-0.003-0.4,0c-0.676,0.017-1.409-0.122-2.012,0.097
		c-0.605,0.22-1.259-0.113-1.816,0.316c-0.157,0.121-0.591,0.123-0.721-0.003c-0.354-0.343-0.755-0.098-1.098-0.214
		c-0.352-0.256-0.563-0.612-0.739-0.994c-0.083-0.254,0.232-0.361,0.214-0.654c-0.183-2.78,0.292-5.546,0.206-8.326
		c-0.047-1.521,0.361-3.022,0.211-4.55c0.421-1.209,0.14-2.459,0.21-3.688c0.033-0.574-0.026-1.153,0.016-1.726
		c0.041-0.557-0.138-1.116,0.113-1.677c0.238-0.53,0.027-1.126,0.097-1.687c0.101-0.816-0.269-1.572-0.253-2.394
		c0.015-0.779,0.477-1.488,0.24-2.15c0.557-1.078,0.938-2.151,2.106-2.57c0.273-0.165,0.308,0.417,0.608,0.163
		c0.14,0.402,0.482,0.665,0.285,1.098c0.256,0,0.396,0,0.548,0C43.506,31.456,43.593,30.646,43.827,29.791z M44.601,41.183
		c-0.3,0.304-0.404,0.663-0.4,1.092c0.018,1.544,0.007,3.088,0.007,4.633c0,0.215,0.092,0.533-0.016,0.628
		c-0.47,0.42-0.016,0.756,0.046,1.121c0.006,0.038,0.112,0.059,0.197,0.1c0.182-0.016,0.255-0.206,0.396-0.308
		c0.122-1.111-0.001-2.226,0.194-3.354c0.205-1.179,0.046-2.422,0.046-3.604C44.885,41.363,44.823,41.149,44.601,41.183z
		 M44.16,51.768c-0.289,0.035-0.072,0.39-0.315,0.486c-0.147,0.059-0.059,0.257-0.066,0.392c-0.043,0.76-0.016,1.508-0.178,2.277
		c-0.177,0.848-0.04,1.76-0.04,2.568c0.149,0.149,0.226,0.226,0.304,0.305c0.201-0.181,0.401-0.36,0.506-0.455
		c0.289-1.318,0.463-2.51,0.072-3.705c0.398-0.494,0.111-1.063,0.204-1.557C44.449,51.938,44.382,51.729,44.16,51.768z
		 M45.396,34.919c-0.382,0.697-0.246,1.514-0.527,2.241c-0.119,0.309,0.009,0.623,0.35,0.783c0.472-0.139,0.871-0.377,1.111-0.735
		c0.105-0.65,0.006-1.216-0.165-1.789C46.037,34.987,45.784,34.883,45.396,34.919z"/>
	
	
	
</g>
</svg>
