<?xml version="1.0" encoding="iso-8859-1"?>
<!-- Generator: Adobe Illustrator 16.0.0, SVG Export Plug-In . SVG Version: 6.00 Build 0)  -->
<!DOCTYPE svg PUBLIC "-//W3C//DTD SVG 1.1//EN" "http://www.w3.org/Graphics/SVG/1.1/DTD/svg11.dtd">
<svg version="1.1" id="Layer_1" xmlns="http://www.w3.org/2000/svg" xmlns:xlink="http://www.w3.org/1999/xlink" x="0px" y="0px"
	 width="72.36px" height="72.18px" viewBox="0 0 72.36 72.18" style="enable-background:new 0 0 72.36 72.18;" xml:space="preserve"
	>
<g>
	<path style="fill-rule:evenodd;clip-rule:evenodd;fill:none;" d="M-6.984,79.631c0-28.871,0-57.743,0-86.615
		c28.8,0,57.6,0,86.399,0c0,28.872,0,57.744,0,86.615C50.616,79.631,21.816,79.631-6.984,79.631z M52.982,62.556
		c0.095-0.189,0.321-0.148,0.437-0.249c1.424-1.239,2.975-2.324,4.331-3.648c0.56-0.545,0.955-1.217,1.516-1.755
		c0.803-0.77,1.336-1.751,2.024-2.608c0.377-0.468,0.495-1.035,0.811-1.505c0.677-1.006,1.342-2.011,1.831-3.13
		c0.468-1.068,1.081-2.075,1.29-3.246c0.368-0.257,0.093-0.692,0.336-1.057c0.533-0.796,0.459-1.815,0.678-2.733
		c0.033-0.136,0.065-0.359-0.006-0.418c-0.33-0.273-0.047-0.939-0.594-1.006c-0.411-0.05-0.753-0.294-1.206-0.253
		c-0.813,0.072-1.639,0.021-2.432,0.021c-0.372-0.772-0.76-1.451-1.578-1.757c0-0.415,0-0.801,0-1.187
		c-0.155-0.434-0.573-0.641-0.792-0.985c-0.748-1.18-1.894-1.912-2.921-2.797c-0.923-0.794-2.094-1.399-2.563-2.648
		c-0.578-0.506-0.699-1.161-0.654-1.892c0.038-0.632-0.16-1.185-0.524-1.73c-0.203-0.303-0.362-0.718-0.341-1.151
		c0.028-0.575,0.008-1.151,0.007-1.728c-0.551-0.683-0.858-1.459-0.857-2.341c0-0.201-0.178-0.331-0.188-0.458
		c-0.025-0.344-0.366-0.431-0.456-0.682c-0.091-0.25-0.085-0.536-0.137-0.799c-0.126-0.636-0.389-1.158-0.811-1.612
		c-0.146-0.158-0.073-0.361-0.156-0.475c-0.297-0.408-0.157-0.925-0.407-1.349c-0.252-0.428-0.409-0.955-0.694-1.317
		c-0.396-0.503-0.683-1.06-0.791-1.62c-0.126-0.655-0.709-1.095-0.687-1.776c-0.35-0.303-0.051-0.829-0.388-1.135
		c-0.263-0.239-0.336-0.577-0.484-0.879c-0.358-0.732-0.896-1.345-1.659-1.628c-0.522-0.194-0.868-0.545-1.257-0.885
		c-0.339-0.297-0.651-0.616-1.024-0.89c-0.985-0.727-2.141-0.743-3.227-0.803c-2.188-0.121-4.39-0.068-6.584-0.017
		c-0.702,0.017-1.405,0.251-2.103,0.358c-0.878,0.136-1.693,0.609-2.54,0.487c-1.221,0.671-2.259,1.47-3.173,2.441
		c-0.379,0.401-0.694,0.895-1.272,1.087c-0.196,0.065-0.242,0.308-0.316,0.508c-0.312,0.842-0.657,1.671-1.007,2.499
		c-0.208,0.492-0.468,0.957-0.672,1.449c-0.104,0.251-0.248,0.467-0.225,0.776c0.078,1.026-0.407,1.897-0.853,2.915
		c0.084,0.809-0.259,1.605-0.882,2.326c0,0.552,0,1.123,0,1.594c-0.229,0.443-0.415,0.8-0.636,1.229
		c0.173,0.768-0.38,1.559-0.211,2.416c0.168,0.853-0.369,1.641-0.2,2.48c-0.415,0.242-0.444,0.738-0.799,0.994
		c-0.637,0.46-0.698,1.368-1.375,1.804c0.044,0.882-0.674,1.444-0.966,2.192c-0.288,0.739-0.969,1.325-1.48,1.977
		c-0.018,0.023-0.058,0.032-0.09,0.04c-0.654,0.156-1.088,0.633-1.472,1.117c-0.384,0.485-1.12,0.596-1.298,1.274
		c-1.012,1.132-1.935,2.33-2.749,3.612c-0.253,0.399-0.478,0.821-0.769,1.19c-0.698,0.886-0.785,1.479-0.544,2.577
		c0.145,0.66,0.428,1.314,0.468,1.953c0.056,0.89,0.62,1.58,0.696,2.427c0.478,0.23,0.47,0.759,0.614,1.148
		c0.169,0.46,0.48,0.813,0.708,1.217c0.914,1.622,1.86,3.236,3.247,4.343c0.327,0.183,0.598-0.025,0.79,0.163
		c0.039,0.123,0.047,0.235,0.103,0.313c0.4,0.556,0.896,1.063,1.195,1.668c0.333,0.674,0.876,1.149,1.42,1.547
		c0.713,0.521,1.364,1.122,2.13,1.594c1.062,0.652,2.082,1.377,3.202,1.932c1.133,0.562,2.268,1.129,3.438,1.604
		c0.711,0.289,1.436,0.697,2.249,0.546c0.366-0.068,0.627,0.143,0.867,0.266c0.3,0.154,0.511,0.399,0.917,0.425
		c0.358,0.021,0.706,0.236,1.101,0.194c0.206-0.021,0.435-0.022,0.627,0.044c1.11,0.386,2.279,0.434,3.425,0.581
		c0.708,0.091,1.438,0.021,2.157,0.016c0.483-0.005,0.945-0.029,1.432-0.186c0.65-0.208,1.353-0.331,2.062-0.25
		c0.208,0.023,0.502,0.068,0.619-0.042c0.291-0.275,0.615-0.178,0.909-0.153c0.372,0.03,0.616-0.355,0.992-0.233
		c0.472,0.153,0.863-0.197,1.309-0.253c0.19-0.023,0.513-0.085,0.649-0.205c0.262-0.231,0.545-0.109,0.793-0.198
		c0.827-0.297,1.703-0.55,2.033-1.51c0.538,0.007,1,0.426,1.525,0.167c1.13-0.711,2.347-1.303,3.227-2.331
		C52.411,62.556,52.696,62.556,52.982,62.556z M61.418,33.288c0.406-0.171,0.677-0.285,0.923-0.389
		c0.125-0.579-0.305-0.756-0.552-0.995c-0.614-0.074-0.742,0.367-0.94,0.595C61.057,32.787,61.22,33.014,61.418,33.288z"/>
	<path fill="currentColor" d="M52.982,62.556c-0.286,0-0.571,0-0.886,0
		c-0.88,1.028-2.097,1.62-3.227,2.331c-0.525,0.259-0.987-0.16-1.525-0.167c-0.33,0.96-1.206,1.213-2.033,1.51
		c-0.248,0.089-0.531-0.033-0.793,0.198c-0.137,0.12-0.459,0.182-0.649,0.205c-0.445,0.056-0.837,0.406-1.309,0.253
		c-0.376-0.122-0.62,0.264-0.992,0.233c-0.294-0.024-0.618-0.122-0.909,0.153c-0.117,0.11-0.411,0.065-0.619,0.042
		c-0.709-0.081-1.411,0.042-2.062,0.25c-0.486,0.156-0.948,0.181-1.432,0.186c-0.72,0.006-1.449,0.075-2.157-0.016
		c-1.146-0.147-2.315-0.195-3.425-0.581c-0.192-0.066-0.421-0.065-0.627-0.044c-0.395,0.042-0.742-0.173-1.101-0.194
		c-0.406-0.025-0.617-0.271-0.917-0.425c-0.24-0.123-0.501-0.334-0.867-0.266c-0.813,0.151-1.538-0.257-2.249-0.546
		c-1.17-0.476-2.305-1.043-3.438-1.604c-1.12-0.555-2.141-1.279-3.202-1.932c-0.767-0.472-1.417-1.073-2.13-1.594
		c-0.544-0.397-1.087-0.873-1.42-1.547c-0.299-0.605-0.795-1.112-1.195-1.668c-0.056-0.077-0.064-0.189-0.103-0.313
		c-0.192-0.188-0.463,0.02-0.79-0.163c-1.387-1.106-2.333-2.721-3.247-4.343c-0.227-0.403-0.538-0.757-0.708-1.217
		c-0.144-0.39-0.136-0.918-0.614-1.148c-0.077-0.847-0.64-1.537-0.696-2.427c-0.041-0.639-0.323-1.293-0.468-1.953
		c-0.241-1.099-0.153-1.691,0.544-2.577c0.291-0.369,0.516-0.791,0.769-1.19c0.814-1.282,1.737-2.48,2.749-3.612
		c0.178-0.679,0.914-0.789,1.298-1.274c0.384-0.484,0.818-0.961,1.472-1.117c0.032-0.008,0.072-0.017,0.09-0.04
		c0.511-0.651,1.192-1.237,1.48-1.977c0.292-0.749,1.01-1.31,0.966-2.192c0.677-0.436,0.738-1.343,1.375-1.804
		c0.355-0.256,0.384-0.752,0.799-0.994c-0.168-0.84,0.369-1.628,0.2-2.48c-0.169-0.857,0.384-1.647,0.211-2.416
		c0.222-0.428,0.407-0.786,0.636-1.229c0-0.471,0-1.042,0-1.594c0.623-0.721,0.966-1.518,0.882-2.326
		c0.446-1.018,0.931-1.889,0.853-2.915c-0.023-0.31,0.12-0.525,0.225-0.776c0.205-0.492,0.464-0.957,0.672-1.449
		c0.35-0.827,0.695-1.656,1.007-2.499c0.074-0.2,0.12-0.443,0.316-0.508c0.579-0.193,0.894-0.686,1.272-1.087
		c0.914-0.971,1.952-1.77,3.173-2.441c0.847,0.122,1.661-0.351,2.54-0.487c0.698-0.107,1.401-0.342,2.103-0.358
		c2.194-0.052,4.396-0.104,6.584,0.017c1.086,0.06,2.241,0.076,3.227,0.803c0.373,0.274,0.686,0.593,1.024,0.89
		c0.389,0.34,0.734,0.691,1.257,0.885c0.764,0.283,1.301,0.896,1.659,1.628c0.148,0.302,0.222,0.64,0.484,0.879
		c0.337,0.306,0.038,0.832,0.388,1.135c-0.022,0.681,0.561,1.121,0.687,1.776c0.108,0.561,0.396,1.117,0.791,1.62
		c0.285,0.363,0.442,0.89,0.694,1.317c0.25,0.424,0.11,0.941,0.407,1.349c0.083,0.114,0.01,0.317,0.156,0.475
		c0.422,0.454,0.685,0.976,0.811,1.612c0.052,0.263,0.046,0.549,0.137,0.799c0.09,0.251,0.431,0.337,0.456,0.682
		c0.01,0.126,0.188,0.257,0.188,0.458c-0.001,0.882,0.307,1.658,0.858,2.341c0,0.576,0.021,1.153-0.008,1.728
		c-0.021,0.433,0.138,0.848,0.341,1.151c0.364,0.545,0.563,1.098,0.524,1.73c-0.045,0.731,0.076,1.385,0.654,1.892
		c0.469,1.25,1.64,1.854,2.563,2.648c1.027,0.885,2.173,1.617,2.921,2.797c0.219,0.345,0.637,0.552,0.792,0.985
		c0,0.386,0,0.771,0,1.187c0.818,0.306,1.206,0.984,1.578,1.757c0.793,0,1.618,0.052,2.432-0.021
		c0.453-0.041,0.795,0.203,1.206,0.253c0.547,0.066,0.264,0.732,0.594,1.006c0.071,0.059,0.039,0.282,0.006,0.418
		c-0.219,0.918-0.145,1.938-0.678,2.733c-0.243,0.364,0.032,0.8-0.336,1.057c-0.209,1.171-0.822,2.178-1.29,3.246
		c-0.489,1.119-1.154,2.124-1.831,3.13c-0.315,0.47-0.434,1.037-0.811,1.505c-0.688,0.857-1.222,1.839-2.024,2.608
		c-0.561,0.538-0.956,1.21-1.516,1.755c-1.356,1.324-2.907,2.409-4.331,3.648C53.303,62.407,53.077,62.366,52.982,62.556z
		 M34.189,22.824c-0.502,0.354-0.847,0.838-1.363,1.181c-0.534,0.354-0.989,0.88-1.379,1.449c-0.858,1.253-1.545,2.579-2.198,3.949
		c-0.423,0.887-0.464,1.894-1.021,2.711c-0.034,0.049,0.006,0.143-0.006,0.212c-0.086,0.484-0.262,0.911-0.542,1.337
		c-0.327,0.496-0.577,1.043-0.561,1.716c0.021,0.867,0.202,1.757-0.175,2.616c-0.106,0.241-0.135,0.669,0.007,0.837
		c0.378,0.446-0.029,1.061,0.398,1.471c0.058,0.056,0.02,0.304-0.056,0.39c-0.314,0.352-0.225,0.816-0.114,1.115
		c0.167,0.451,0.172,0.879,0.18,1.328c0.002,0.106-0.04,0.263,0.014,0.313c0.389,0.36,0.203,0.821,0.18,1.216
		c-0.027,0.475,0.247,0.847,0.26,1.314c0.059,2.094-0.164,4.186,0.157,6.286c0.206,1.348,0.1,2.741,0.219,4.118
		c0.22,2.55-0.172,5.126,0.23,7.684c0.079,0.503,0.17,0.94,0.537,1.284c0.892,0.158,1.594-0.201,2.299-0.7
		c0.288-0.204,0.541-0.537,0.943-0.572c0.441-0.039,0.759-0.292,1.048-0.597c0.146-0.153,0.293-0.251,0.533-0.289
		c0.283-0.045,0.565-0.184,0.809-0.389c0.227-0.19,0.503-0.388,0.783-0.437c0.515-0.089,0.876-0.366,1.22-0.716
		c0.275-0.279,0.524-0.623,0.858-0.797c0.693-0.363,1.25-0.87,1.787-1.417c0.555-0.565,1.121-1.118,1.677-1.682
		c0.587-0.595,1.254-1.09,1.963-1.521c1.028-0.625,1.911-1.414,2.744-2.323c0.417,0.127,0.768-0.124,1.123-0.269
		c0.211-0.384,0.237-0.786,0.292-1.198c0.073-0.554-0.279-1-0.246-1.532c0.036-0.574,0.006-1.151,0.009-1.728
		c0.003-0.379,0.001-0.736,0.196-1.107c0.206-0.392-0.27-0.759-0.207-1.197c0.044-0.303-0.076-0.594-0.164-0.894
		c-0.104-0.353-0.044-0.791,0.095-1.223c0.144-0.448,0.671-0.994,0.088-1.522c0.117-0.837-0.228-1.531-0.643-2.22
		c-0.095-0.158-0.014-0.424-0.014-0.64c0-1.835,0.031-3.671-0.015-5.505c-0.019-0.73-0.211-1.454-0.839-1.941
		c-0.864,0.537-1.228,1.487-2.045,1.975c-0.07,0.042-0.079,0.179-0.127,0.267c-0.1,0.185-0.238,0.301-0.442,0.401
		c-0.482,0.236-0.932,0.54-1.455,0.853c-0.673-0.158-1.347,0.4-2.11,0.186c-0.087-0.2-0.357-0.138-0.509-0.278
		c0.108-0.286-0.249-0.373-0.251-0.658c-0.005-0.962,0.521-1.662,1.18-2.199c0.413-0.335,1.029-0.444,1.524-0.724
		c0.55-0.31,1.156-0.197,1.775-0.222c0.295-0.571,0.901-0.665,1.46-0.865c0.126,0.1,0.224,0.283,0.194,0.292
		c0.343-0.214,0.493-0.308,0.556-0.348c0.056-0.291-0.146-0.351-0.168-0.467c-0.094-0.498-0.519-0.855-0.491-1.434
		c0.017-0.363-0.522-0.689-0.575-1.031c-0.096-0.627-0.57-0.993-0.78-1.522c-0.231-0.582-0.6-1.069-1.048-1.518
		c-0.199-0.199-0.344-0.434-0.604-0.596c-0.269-0.166-0.48-0.432-0.693-0.675c-0.787-0.899-1.806-1.507-2.806-2.105
		c-0.428-0.255-1.032-0.513-1.576-0.271c-0.576,0.257-1.311,0.191-1.724,0.816C34.539,22.881,34.308,22.824,34.189,22.824z
		 M27.459,21.396c-0.517,0.372-0.742,0.685-0.889,1.037c-0.396,0.951-0.799,1.901-1.13,2.875c-0.107,0.315-0.148,0.761,0.369,0.945
		c0.2-0.798,0.687-1.468,0.886-2.237C26.904,23.211,27.075,22.397,27.459,21.396z M23.056,38.151
		c0.232,0.016,0.352,0.026,0.421-0.157c0.345-0.916,0.481-1.879,0.626-2.836c0.034-0.224,0.162-0.408,0.192-0.63
		c-0.358,0.02,0.015-0.454-0.392-0.429c0.061,0.546-0.385,1.012-0.218,1.5c-0.237,0.456-0.436,0.838-0.629,1.21
		C23.056,37.237,23.056,37.661,23.056,38.151z"/>
	<path style="fill-rule:evenodd;clip-rule:evenodd;fill:none;" d="M31.207,27.905c3.102-5.081,3.332-5.024,3.376-5.09
		c0.413-0.625,1.147-0.559,1.724-0.816c0.544-0.242,1.148,0.016,1.576,0.271c1,0.598,2.019,1.206,2.806,2.105
		c0.213,0.243,0.425,0.509,0.693,0.675c0.261,0.162,0.405,0.397,0.604,0.596c0.448,0.449,0.816,0.936,1.048,1.518
		c0.21,0.529,0.685,0.896,0.78,1.522c0.053,0.342,0.592,0.668,0.575,1.031c-0.027,0.579,0.397,0.936,0.491,1.434
		c0.021,0.116,0.224,0.176,0.168,0.467c-0.063,0.04-0.213,0.133-0.556,0.348c0.029-0.009-0.068-0.192-0.194-0.292
		c-0.559,0.2-1.165,0.294-1.46,0.865c-0.619,0.025-1.226-0.088-1.775,0.222c-0.495,0.279-1.111,0.388-1.524,0.724
		c-0.659,0.537-1.185,1.236-1.18,2.199c0.002,0.285,0.359,0.373,0.251,0.658c0.151,0.14,0.422,0.078,0.509,0.278
		c0.764,0.214,1.438-0.344,2.11-0.186c0.523-0.313,0.973-0.617,1.455-0.853c0.204-0.1,0.343-0.217,0.442-0.401
		c0.048-0.087,0.057-0.225,0.127-0.267c0.817-0.487,1.181-1.438,2.045-1.975c0.628,0.488,0.82,1.211,0.839,1.941
		c0.046,1.834,0.015,3.67,0.015,5.505c0,0.216-0.081,0.481,0.014,0.64c0.415,0.688,0.76,1.383,0.643,2.22
		c0.583,0.528,0.056,1.074-0.088,1.522c-0.139,0.432-0.199,0.87-0.095,1.223c0.088,0.3,0.208,0.591,0.164,0.894
		c-0.063,0.438,0.413,0.806,0.207,1.197c-0.195,0.371-0.193,0.729-0.196,1.107c-0.003,0.576,0.027,1.153-0.009,1.728
		c-0.033,0.532,0.319,0.979,0.246,1.532c-0.055,0.412-0.081,0.814-0.292,1.198c-0.355,0.145-0.706,0.396-1.123,0.269
		c-0.833,0.909-1.716,1.698-2.744,2.323c-0.709,0.431-1.376,0.926-1.963,1.521c-0.556,0.563-1.122,1.116-1.677,1.682
		c-0.537,0.547-1.094,1.054-1.787,1.417c-0.334,0.174-0.583,0.518-0.858,0.797c-0.344,0.35-0.705,0.627-1.22,0.716
		c-0.28,0.049-0.556,0.246-0.783,0.437c-0.244,0.205-0.526,0.344-0.809,0.389c-0.24,0.038-0.387,0.136-0.533,0.289
		c-0.29,0.305-0.607,0.558-1.048,0.597c-0.403,0.035-0.655,0.368-0.943,0.572c-0.705,0.499-1.407,0.858-2.299,0.7
		c-0.367-0.344-0.458-0.781-0.537-1.284c-0.403-2.558-0.01-5.134-0.23-7.684c-0.119-1.377-0.013-2.771-0.219-4.118
		c-0.321-2.101-0.098-4.192-0.157-6.286c-0.013-0.468-0.288-0.84-0.26-1.314c0.023-0.395,0.208-0.855-0.18-1.216
		c-0.054-0.05-0.012-0.206-0.014-0.313c-0.008-0.449-0.012-0.877-0.18-1.328c-0.111-0.299-0.2-0.764,0.114-1.115
		c0.076-0.086,0.113-0.334,0.056-0.39c-0.427-0.41-0.02-1.024-0.398-1.471c-0.142-0.168-0.113-0.596-0.007-0.837
		c0.376-0.859,0.196-1.75,0.175-2.616c-0.016-0.673,0.234-1.22,0.561-1.716c0.28-0.426,0.456-0.854,0.542-1.337
		c0.013-0.069-0.027-0.163,0.006-0.212c0.557-0.818,0.598-1.824,1.021-2.711c0.653-1.37,1.34-2.696,2.198-3.949
		c0.39-0.569,0.845-1.095,1.379-1.449C33.343,23.662,33.688,23.178,31.207,27.905c-2.982,5.178-2.982,5.501-2.982,5.824
		c0.163,0.305,0.302,0.664,0.614,0.814c0.583,0.281,1.063,0.711,1.621,1.027c0.419,0.237,0.831,0.491,1.104,0.862
		c0.372,0,0.758-0.115,1.005,0.022c0.616,0.342,1.236,0.104,1.843,0.206c0.533-0.587,0.181-1.259,0.306-1.836
		c-0.483-0.484-0.94-0.941-1.422-1.423c-0.479,0.06-0.949-0.033-1.29-0.436c-0.162-0.19-0.409-0.129-0.553-0.224
		c-0.524-0.347-1.099-0.11-1.842-0.271c-0.114,0.017-0.267-0.345-0.592-0.362C28.72,32.29,28.411,32.451,31.207,27.905z"/>
	<path style="fill-rule:evenodd;clip-rule:evenodd;fill:none;" d="M27.459,21.396c-0.385,1.001-0.556,1.816-0.764,2.62
		c-0.199,0.77-0.686,1.439-0.886,2.237c-0.517-0.184-0.477-0.63-0.369-0.945c0.331-0.974,0.734-1.924,1.13-2.875
		C26.717,22.08,26.942,21.767,27.459,21.396z"/>
	<path style="fill-rule:evenodd;clip-rule:evenodd;fill:none;" d="M23.056,38.151c0-0.49,0-0.914,0-1.342
		c0.194-0.372,0.393-0.755,0.629-1.21c-0.167-0.488,0.278-0.954,0.218-1.5c0.406-0.025,0.034,0.449,0.392,0.429
		c-0.03,0.223-0.158,0.406-0.192,0.63c-0.145,0.957-0.281,1.92-0.626,2.836C23.408,38.178,23.289,38.167,23.056,38.151z"/>
	<path fill="currentColor" d="M28.224,32.986c0.187-0.535,0.496-0.696,0.793-0.876
		c0.325,0.017,0.478,0.379,0.592,0.362c0.743,0.16,1.318-0.076,1.842,0.271c0.144,0.095,0.391,0.034,0.553,0.224
		c0.341,0.402,0.81,0.495,1.29,0.436c0.482,0.482,0.939,0.939,1.422,1.423c-0.125,0.577,0.227,1.249-0.306,1.836
		c-0.607-0.102-1.227,0.136-1.843-0.206c-0.247-0.137-0.634-0.022-1.005-0.022c-0.273-0.371-0.684-0.625-1.104-0.862
		c-0.557-0.315-1.037-0.746-1.621-1.027c-0.312-0.15-0.451-0.509-0.614-0.814C28.224,33.406,28.224,33.083,28.224,32.986z"/>
</g>
</svg>
