<svg xmlns="http://www.w3.org/2000/svg" xml:space="preserve" width="72px" height="72px" viewBox="0 0 72 72">
    <g fill="currentColor">
        <path d="M35.047 41.803c-.291.094-.447-.188-.565-.28-.798-.626-1.617-1.253-2.287-2.006-.291-.326-.579-.687-.872-1.026-1.496-1.743-2.552-3.693-3.132-5.941a13 13 0 0 1-.404-3.391c.002-.201.095-.434-.124-.594-.146-.106-.072-.261-.087-.396-.042-.388.292-.69.226-1.1-.062-.375.076-.731.184-1.102.252-.87.549-1.727.706-2.633.122-.703.619-1.324 1.01-1.947.504-.801.969-1.638 1.562-2.369a15 15 0 0 1 2.12-2.103c.689-.568 1.519-.925 2.175-1.559.333-.322.897-.41 1.361-.593.741-.293 1.481-.595 2.233-.859.639-.225 1.305-.346 1.97-.477.48-.094.949-.201 1.43-.167.558.039 1.131-.164 1.676.115.466.238 1.054-.089 1.492.308.975-.027 1.865.374 2.743.678 1.993.692 3.852 1.646 5.374 3.197 1.063 1.083 1.99 2.269 2.961 3.423.047.055.14.098.146.154.174 1.417 1.198 2.545 1.329 3.993.051.545.336 1.076.451 1.644.188.935.238 1.74-.018 2.762a1.3 1.3 0 0 0-.025.42c.083.846-.221 1.619-.432 2.412-.294 1.1-.644 2.169-1.205 3.175-.231.416-.501.806-.874 1.013-.479.265-.877.644-1.361.876-.339.163-.63.41-.773.693-.269.527-.72.857-1.095 1.27-.289.319-.607.613-.913.919-.279.28-.657.515-.814.851-.193.414-.612.496-.858.809-.393.498-.924.756-1.548.948-.845.262-1.626.738-2.463.569l-1.21.624c-.734-.015-1.495.287-2.314.265-.966-.027-1.786-.359-2.571-.852a4.2 4.2 0 0 1-1.166-1.104c-.398-.534-1.055-.876-1.594-1.308s-1.065-.212-1.484.137c-.307.252-.675.307-.96.552"/>
        <path d="M45.612 58.17c-.244.308-.723.234-.796.638-.402.017-.749.096-1.02-.267a1.06 1.06 0 0 0-.599-.353c-.521-.101-.873-.435-1.176-.808-.76-.936-1.625-1.737-2.732-2.234-.163-.594.045-1.048.422-1.434.655-.667 1.289-1.326 1.498-2.302.053-.25.329-.533.688-.58.853-.114 1.248-.849 1.819-1.345.284-.972 1.139-1.484 1.785-2.232.031-.81-.171-1.716.652-2.38.713-.575 1.489-.844 2.433-.721.196.185.568.157.778.587v1.229c.282.104.172.402.343.535.102-.002.216.05.292-.063l.459-.679c.074-.504-.161-1.059.27-1.518.659-.511.953-1.378 1.654-1.892-.048-.463.396-.821.232-1.299.308-.433.771-.711.994-1.217.119-.271.411-.545.688-.644.268-.095.398-.281.574-.438.818-.729 1.562-1.562 2.45-2.187.994-.698 1.702-1.725 2.833-2.267.45-.216.867-.69 1.09-1.148.333-.686.764-1.206 1.508-1.547h1.529c.575.21.927.548 1.287.966-.076.378.319.691.271 1.128.826.181.854 1.141 1.447 1.438.451 1.511.169 2.975.25 4.42-.503 1.163-.284 2.493-.854 3.644-.071.145-.033.358-.006.534.069.432-.099.817-.227 1.205-.146.445-.486.829-.606 1.256-.116.411-.078.878-.239 1.31-.048.13-.116.241-.169.362-.2.456-.62.817-.563 1.396.017.163-.143.41-.294.51-.819.537-.827 1.553-1.363 2.251.073.697-.462 1.13-.79 1.609-.68.994-1.433 1.941-2.171 2.896-.68.878-1.482 1.618-2.238 2.412-.921.967-2.025 1.724-3.041 2.582-.201.171-.502.29-.827.346-.61.102-1.319.141-1.539.951-.034.127-.194.276-.393.326-.608.153-.978.641-1.399 1.054-.288.091-.577-.005-.893.203-.635.421-1.384.601-2.108.443l-1.195-.616h-.798c-.423.474-.956.752-1.761.599-.353-.356-.775-.838-1.489-.84l-.359-.729c.311-.509.369-1.231 1.226-1.209.874-.708 1.43-1.627 1.685-2.749.641-.605 1.49-.762 2.313-.889.52-.081.91-.409 1.42-.521.444-.096.993-.199 1.354-.631.248-.297.736-.104 1.006-.433.186-.289.225-.693.369-.996.43-.905.882-1.86 1.976-2.194.065-.02.143-.002.263-.002.431-.457.9-.839 1.644-.895.728-.054 1.184-.797 1.225-1.632-.26-.244-.358.085-.532.151a12.4 12.4 0 0 0-3.152 1.753c-.762.581-1.536 1.215-1.902 2.199-.231.619-.702 1.076-1.317 1.386-.749.375-1.419.933-2.317.922-.127-.001-.196.063-.267.141-.443.481-1.01.568-1.595.509"/>
        <path d="M6.624 45.952c-.086-.431-.524-.622-.663-1.03a3.6 3.6 0 0 1-.195-1.533c.081-.785-.174-1.492-.464-2.188-.358-.855-.463-1.849-.181-2.546.06-.149.225-.256.305-.344.656-.075.995.382 1.416.647.878.553 1.767 1.097 2.455 1.902.319.374.703.62 1.224.701.417.065.74.475 1.226.444.682.868 1.739 1.335 2.372 2.197.443.672-.579.951-.336 1.566.46.68 1.325.374 1.791.756.351-.026.404-.239.553-.332v-.628c.147-.341.549-.306.756-.566.133 0 .277.015.417-.003 1.094-.136 2.082.099 2.855.915.279.295.609.067.888.217.663.354 1.396.49 2.128.585.258.033.481.179.634.285.436.305.832.699 1.153 1.126.552.734.161 1.772-.739 2.054-.365.115-.755.225-.952.551-.5.827-1.213 1.421-1.982 1.968-.057.041-.103.1-.164.162-.011.258-.109.535.098.805.967-.431 1.604-1.242 2.353-1.954h1.752c.42.448.884.905 1.64.868.2-.01.459.158.609.319.572.619 1.397.849 2.06 1.377 1.254-.036 2.477.299 3.684.673a6.4 6.4 0 0 1 1.536.709c.284.182.651.237.788.119.434-.37.901-.087 1.214-.18.788.262 1.296.782 1.903 1.151.208.127.394.106.641.146.969 1.259 2.442 2.023 3.627 3.236-.443.392-.723.872-1.253 1.007-.54.137-.75.679-1.259.878-.432.168-.842.34-1.291.257a18 18 0 0 1-1.854-.473c-.152-.047-.259-.242-.367-.351h-1.261c.389.506.837.658 1.375.617.896.727 1.871 1.327 2.958 1.717.299.106.533.322.62.534.115.282.314.451.485.663.419.521.991.71 1.652.77.16.286.041.613.087.949-.282.111-.495.404-.743.485-.282.09-.558.274-.857.274-1.307.002-2.593.377-3.906.221-.37-.045-.723.024-1.121-.167-.325-.153-.908-.238-1.291.172-1.258.067-2.498-.03-3.685-.485-.154-.06-.259-.246-.409-.396-.729.208-1.389-.476-2.092-.153-.341-.305-.481-.528-.25-.95.416-.763.361-.811 1.189-1.243.372-.194.535-.629.999-.72.569-.11.994-.55 1.505-.792a12 12 0 0 0 1.413-.772c.378-.247.912-.247 1.242-.636-.239-.316-.592-.436-.969-.575-.967.331-1.758.978-2.583 1.552-.656.457-1.394.643-2.339 1.014-.38.315-.791 1.025-1.581 1.162l-.8.8c-.571.145-1.072-.024-1.584-.396-.195 0-.446-.014-.694.002-.684.045-1.327-.019-1.81-.591-.036-.042-.126-.036-.188-.06-1.299-.478-2.412-1.302-3.625-1.938-.53-.277-.873-.763-1.382-1.081-1.817-1.136-3.265-2.716-4.694-4.28-.56-.612-1.045-1.344-1.542-2.032-.56-.777-1.046-1.604-1.637-2.352-.285-.359-.197-.873-.654-1.152-.388-.237-.4-.754-.568-1.156-.083-.199-.118-.461-.354-.615-.27-.174-.378-.513-.399-.793-.036-.479-.249-.823-.5-1.208-.209-.319-.405-.703-.386-1.132.01-.251.001-.5.001-.75"/>
        <path d="M34.595 54.069c-.335-.314-.634-.718-1.188-.863-.368.188-.783.403-1.258.648h-.854c-.995-.471-1.893-.84-2.737-1.306-.857-.475-1.661-1.043-2.474-1.562-.056-.623-.034-1.184.33-1.716.223-.327.04-.763.083-1.083-.714-.729-1.394-1.421-2.078-2.117h-1.378c-.755-.312-1.313-.781-2.093-.895-.391-.409-.821-.878-1.536-.828-.064.005-.149-.005-.194-.045-.813-.719-1.803-.614-2.753-.595l-.551-.552v-1.074c.397-.388.792-.744 1.313-1 .458-.225.801-.69 1.18-1.065 1.114-1.104 1.358-1.249 3.063-1.989.761-.331 1.466-.761 1.853-1.617.581-.435 1.304-.219 1.992-.274.725.736 1.26 1.633 2.06 2.29.157.128.282.259.513.33.779.242 1.447.598 1.919 1.389.326.546.686 1.216 1.419 1.419.07.578-.107 1.165.316 1.655.438.112.706.586 1.236.675 1.031-.481 2.123-.975 2.87-1.91h1.543c.757.388 1.235 1.067 1.832 1.612.14 1.118 1.103 1.646 1.734 2.403-.097.347.101.546.333.728.455.08.829-.4 1.346-.16v.958c-.218.268-.54.521-.728.923-.315.68-.894 1.176-1.443 1.664-.428.381-.784.844-.994 1.323-.328.751-.934 1.21-1.441 1.777-.354.396-.862.348-1.316.48-.624.184-1.227.412-1.919.377"/>
    </g>
</svg>
