<svg xmlns="http://www.w3.org/2000/svg" xml:space="preserve" width="72px" height="72px" viewBox="0 0 72 72">
    <g fill="currentColor">
        <path d="M65.14 43.732c.139.813-.145 1.517-.466 2.2-.074.158-.154.289-.168.473-.041.545-.281 1.032-.509 1.515-.469.994-.912 2.006-1.458 2.958-.812 1.414-1.605 2.852-2.745 4.043-.246.257-.297.617-.593.848-.233.182-.394.465-.57.72-.668.965-1.656 1.544-2.791 1.807-.243.057-.409.251-.661.243-.287-.009-.575-.002-.863-.002-1.198.002-2.375.359-3.582.216-.81.32-1.691.226-2.521.432-.098.024-.197.044-.295.07-.523.146-.978.59-1.615.176-.222-.144-.704-.157-1.01.086-.168.134-.332.09-.501.099-.979.052-1.968-.116-2.939.201-.318.104-.7.017-.993.017l-.299-.299c-.104-.663.148-1.395-.301-2.024-.294-.149-.533-.057-.768.246v1.294c-.508 1.499-1.582 1.188-2.527 1.209-.027-.027-.059-.049-.077-.079-.252-.406-.798-.474-1.042-.849-.23-.356-.28-.828-.508-1.188-.326-.514-.618-1.041-.792-1.616-.09-.296-.321-.446-.464-.676-.319-.511-.682-1.019-.864-1.581-.142-.44-.414-.903-.222-1.381-.256-.392-.588-.631-1.031-.783l-.279.26c.542.979 1.034 1.987 1.602 2.965.362.624.658 1.309.994 1.958.4.775.837 1.539 1.347 2.244.197.272.159.57.33.848.465.759.407.795 1.039 1.195.404-.119.844.114 1.305-.201.332-.227.91.156 1.294-.246.576.16 1.069-.267 1.639-.226.573.042 1.151.007 1.727.011.902.006 1.81.055 2.635-.418.675.111 1.273-.304 1.957-.244 1.45.125 2.88-.361 4.337-.203.554-.291 1.146-.232 1.719-.197l.305.286c.153.375-.203.593-.221.929-.861.274-1.593.826-2.366 1.286-1.069.636-2.155 1.208-3.342 1.583-.033.011-.081-.013-.106.004-1.045.688-2.232.57-3.4.687-.836.084-1.695.034-2.498.211-.81.18-1.624.036-2.396.203-1.412.305-2.848-.007-4.229.228-1.743.297-3.476.067-5.207.188-.606.042-1.155-.118-1.703-.327-.577-.522-.414-1.219-.439-1.875-.8-1.195-.367-2.467-.192-3.673-.185-.34-.496-.432-.788-.555-.51.362-1.131.051-1.753.188l-.271.315c.026 1.234-.321 2.45-.668 3.659l-.656.333c-.858-.506-1.776-.948-2.578-1.548-.794-.594-1.872-.828-2.379-1.825 0-1.889-.136-3.808.043-5.697.141-1.488.125-2.966.18-4.48-.554-.196-1.004-.021-1.447.381-.853-.244-1.678.36-2.599.168-.332-.479-.798-.938-.296-1.629.103-.142.015-.422.015-.638q-.002-2.267.001-4.535c.001-.696-.086-1.403.293-2.116l.812-.767c.39-.068.96-.216 1.428-.523.475-.312.945-.389 1.474-.338.169.226.458.24.744.434 0-1.085-.011-2.12.006-3.154.006-.373-.11-.761.193-1.113.103-.12.042-.421-.008-.624-.24-.979-.238-.974-.014-1.897.058-.236.037-.494.037-.741.003-1.583-.004-3.167.006-4.751.002-.303-.159-.661.242-.817-.4-.833-.333-1.6-.023-2.367.746-.373 1.551-.321 2.351-.318 1.007.004 2.016-.005 3.023.005.271.003.498-.037.667-.46 0-.803-.024-1.771.012-2.738.015-.399-.358-.692-.228-1.098-.511-.742-.022-1.447.1-2.16.019-.113.117-.233.118-.379.007-.839-.085-1.688.214-2.502-.084-1.812.342-3.601.228-5.418-.062-.979.067-1.11.942-1.643.142.066.236.203.433.214.14.009.234.266.44.196.56 1.013 1.087 2.021 1.809 2.942.46.586.865 1.265 1.224 1.959.458.888.821 1.882 1.62 2.571 0 .11-.047.264.007.318.663.665.885 1.665 1.684 2.196.114.906.647 1.584 1.166 2.236.39.49.57 1.004.594 1.594.023.539.05 1.084-.004 1.619-.127 1.246.126 2.471.274 3.685.093.767.167 1.528.154 2.292-.011.67.069 1.304.343 1.926.173-.71.495-1.425.289-2.135-.131-.448-.266-.893-.173-1.32.449-2.049.035-4.12.249-6.213.311-.298.614-.699 1.093-.875.75-.275 1.395-.802 2.264-.971.805-.805 1.258-1.03 2.776-1.718 1.003-.455 1.937-1.059 2.906-1.587a78 78 0 0 1 2.574-1.353 30 30 0 0 0 2.807-1.556c.314-.2.637-.244.99-.2.359.356.473.784.549 1.291.181 1.198.281 2.407.461 3.596.155 1.024.192 2.098.586 3.091.074.187.032.43.007.643-.142 1.208.141 2.398.275 3.576.116 1.021.193 2.084.552 3.1.162.461.222 1.112-.146 1.638-.085.121-.076.339.023.501.822-.027 1.918-.364 2.664-.823.84.085 1.616-.122 2.326-.603.428-.289.977-.373 1.43-.421.689-.072 1.345-.475 2.095-.224.507.419.854.974.713 1.702-.12.618.249 1.151.229 1.748-.021.611-.143 1.265.025 1.827.306 1.017.027 2.14.614 3.09.032.053.011.143.003.213-.152 1.422.373 2.809.195 4.229-.239.396-.678.566-1.164.852.481.125.729.394.946.651m-19.854 4.307c-.024-.79.124-1.479-.214-2.139.147-1.351-.323-2.663-.228-4.016.063-.894.012-1.796.012-2.693-.155-.513-.607-.705-1.001-.96-.733-.476-1.563-.743-2.352-1.1-.151-.069-.257-.229-.46-.197-.483.076-.86-.244-1.207-.458-.403-.249-.895-.069-1.254-.392-.059-.052-.165-.11-.251-.163-.442-.269-.847-.588-1.144-.93h-.728c-.821 1.312-2.476 1.883-3.267 3.432.043.654-.081 1.413.149 2.174-.002-.594.218-1.056.578-1.514.209-.267.37-.593.641-.801.322-.246.458-.621.652-.93.268-.426.609-.742.894-1.065.359 0 .652.035.935-.006.709-.104 1.251.266 1.81.593.118.07.202.248.319.267.665.106 1.145.591 1.714.822.604.247 1.245.468 1.868.704.124.047.222.163.346.208.708.261.924.901 1.09 1.519.109.403.063.864.01 1.289-.061.475.259.846.246 1.316-.018.654-.185 1.342.197 1.962-.117.92.164 1.803.254 2.708zm-14.778 1.922c.396-1.135-.863-1.611-.774-2.55-.393-.417-.877-.776-.879-1.462-.001-.204-.205-.413-.332-.608-.055-.084-.152-.14-.204-.186-.362-.085-.57.087-.743.331-.061.371.188.639.274.85 1.421.855 1.765 2.386 2.658 3.625m24.525.582c-.133 0-.349-.002-.564.004-.026 0-.051.047-.126.123.132.791-.236 1.692.347 2.453h.661l.308-.642c-.492-.561.109-1.424-.626-1.938m-15.244 1.299c-.318.235-.661.673-.51 1.051.203.507.098 1.018.208 1.478.563.345.563.345 1.016-.056.222-.776-.339-1.438-.17-2.154-.184-.116-.238-.33-.544-.319m18.683.751c-.083-.758.209-1.586-.335-2.252-.381-.071-.597.078-.736.313-.116.87.16 1.599.547 2.275.302-.028.365-.229.524-.336M36.437 42.458c-.032-.634.118-1.279-.309-1.832-.168-.012-.342-.068-.502.029-.267.652-.267.652-.242 1.387.263.2.196.695.697.729zm5.62 5.427c.187.072.249.365.531.282l.295-.296v-1.576c-.164-.122-.233-.329-.56-.27l-.267.331zm-1.723-5.757c.779-.103.831-.146.848-.71.01-.314.002-.63.002-.961-.185-.051-.211-.298-.459-.283-.184-.002-.236.21-.391.306zM23.228 28.205c-.244-.701-.832-.938-1.6-1.302.317.932 1.043 1.015 1.6 1.302m14.991 12.411c-.11.396-.15.777.268 1.072l.283-.578c-.288-.045-.028-.522-.551-.494M31.14 51.221c.157-.276.138-.469 0-.705-.146.256-.146.447 0 .705m-7.344-22.494q.152-.107 0-.214-.151.106 0 .214"/>
        <path d="M11.592 53.473v-.607c.222-.569.824-.704 1.256-.767.747-.108 1.47-.225 2.195-.451.426-.133.927-.024 1.395-.024h1.537l.53.58v.365c0 1.87-.009 3.739.006 5.608.004.546-.058 1.041-.551 1.421-.389.148-.741-.125-.977-.348-1.228-1.16-2.453-2.33-3.58-3.585-.62-.689-1.079-1.527-1.811-2.192"/>
    </g>
</svg>
