<?xml version="1.0" encoding="iso-8859-1"?>
<!-- Generator: Adobe Illustrator 16.0.0, SVG Export Plug-In . SVG Version: 6.00 Build 0)  -->
<!DOCTYPE svg PUBLIC "-//W3C//DTD SVG 1.1//EN" "http://www.w3.org/Graphics/SVG/1.1/DTD/svg11.dtd">
<svg version="1.1" id="Layer_1" xmlns="http://www.w3.org/2000/svg" xmlns:xlink="http://www.w3.org/1999/xlink" x="0px" y="0px"
	 width="72.36px" height="72.18px" viewBox="0 0 72.36 72.18" style="enable-background:new 0 0 72.36 72.18;" xml:space="preserve"
	>
<g>
	
	<path fill="currentColor" d="M52.982,62.556c-0.286,0-0.571,0-0.886,0
		c-0.88,1.028-2.097,1.62-3.227,2.331c-0.525,0.259-0.987-0.16-1.525-0.167c-0.33,0.96-1.206,1.213-2.033,1.51
		c-0.248,0.089-0.531-0.033-0.793,0.198c-0.137,0.12-0.459,0.182-0.649,0.205c-0.445,0.056-0.837,0.406-1.309,0.253
		c-0.376-0.122-0.62,0.264-0.992,0.233c-0.294-0.024-0.618-0.122-0.909,0.153c-0.117,0.11-0.411,0.065-0.619,0.042
		c-0.709-0.081-1.411,0.042-2.062,0.25c-0.486,0.156-0.948,0.181-1.432,0.186c-0.72,0.006-1.449,0.075-2.157-0.016
		c-1.146-0.147-2.315-0.195-3.425-0.581c-0.192-0.066-0.421-0.065-0.627-0.044c-0.395,0.042-0.742-0.173-1.101-0.194
		c-0.406-0.025-0.617-0.271-0.917-0.425c-0.24-0.123-0.501-0.334-0.867-0.266c-0.813,0.151-1.538-0.257-2.249-0.546
		c-1.17-0.476-2.305-1.043-3.438-1.604c-1.12-0.555-2.141-1.279-3.202-1.932c-0.767-0.472-1.417-1.073-2.13-1.594
		c-0.544-0.397-1.087-0.873-1.42-1.547c-0.299-0.605-0.795-1.112-1.195-1.668c-0.056-0.077-0.064-0.189-0.103-0.313
		c-0.192-0.188-0.463,0.02-0.79-0.163c-1.387-1.106-2.333-2.721-3.247-4.343c-0.227-0.403-0.538-0.757-0.708-1.217
		c-0.144-0.39-0.136-0.918-0.614-1.148c-0.077-0.847-0.64-1.537-0.696-2.427c-0.041-0.639-0.323-1.293-0.468-1.953
		c-0.241-1.099-0.153-1.691,0.544-2.577c0.291-0.369,0.516-0.791,0.769-1.19c0.814-1.282,1.737-2.48,2.749-3.612
		c0.178-0.679,0.914-0.789,1.298-1.274c0.384-0.484,0.818-0.961,1.472-1.117c0.032-0.008,0.072-0.017,0.09-0.04
		c0.511-0.651,1.192-1.237,1.48-1.977c0.292-0.749,1.01-1.31,0.966-2.192c0.677-0.436,0.738-1.343,1.375-1.804
		c0.355-0.256,0.384-0.752,0.799-0.994c-0.168-0.84,0.369-1.628,0.2-2.48c-0.169-0.857,0.384-1.647,0.211-2.416
		c0.222-0.428,0.407-0.786,0.636-1.229c0-0.471,0-1.042,0-1.594c0.623-0.721,0.966-1.518,0.882-2.326
		c0.446-1.018,0.931-1.889,0.853-2.915c-0.023-0.31,0.12-0.525,0.225-0.776c0.205-0.492,0.464-0.957,0.672-1.449
		c0.35-0.827,0.695-1.656,1.007-2.499c0.074-0.2,0.12-0.443,0.316-0.508c0.579-0.193,0.894-0.686,1.272-1.087
		c0.914-0.971,1.952-1.77,3.173-2.441c0.847,0.122,1.661-0.351,2.54-0.487c0.698-0.107,1.401-0.342,2.103-0.358
		c2.194-0.052,4.396-0.104,6.584,0.017c1.086,0.06,2.241,0.076,3.227,0.803c0.373,0.274,0.686,0.593,1.024,0.89
		c0.389,0.34,0.734,0.691,1.257,0.885c0.764,0.283,1.301,0.896,1.659,1.628c0.148,0.302,0.222,0.64,0.484,0.879
		c0.337,0.306,0.038,0.832,0.388,1.135c-0.022,0.681,0.561,1.121,0.687,1.776c0.108,0.561,0.396,1.117,0.791,1.62
		c0.285,0.363,0.442,0.89,0.694,1.317c0.25,0.424,0.11,0.941,0.407,1.349c0.083,0.114,0.01,0.317,0.156,0.475
		c0.422,0.454,0.685,0.976,0.811,1.612c0.052,0.263,0.046,0.549,0.137,0.799c0.09,0.251,0.431,0.337,0.456,0.682
		c0.01,0.126,0.188,0.257,0.188,0.458c-0.001,0.882,0.307,1.658,0.858,2.341c0,0.576,0.021,1.153-0.008,1.728
		c-0.021,0.433,0.138,0.848,0.341,1.151c0.364,0.545,0.563,1.098,0.524,1.73c-0.045,0.731,0.076,1.385,0.654,1.892
		c0.469,1.25,1.64,1.854,2.563,2.648c1.027,0.885,2.173,1.617,2.921,2.797c0.219,0.345,0.637,0.552,0.792,0.985
		c0,0.386,0,0.771,0,1.187c0.818,0.306,1.206,0.984,1.578,1.757c0.793,0,1.618,0.052,2.432-0.021
		c0.453-0.041,0.795,0.203,1.206,0.253c0.547,0.066,0.264,0.732,0.594,1.006c0.071,0.059,0.039,0.282,0.006,0.418
		c-0.219,0.918-0.145,1.938-0.678,2.733c-0.243,0.364,0.032,0.8-0.336,1.057c-0.209,1.171-0.822,2.178-1.29,3.246
		c-0.489,1.119-1.154,2.124-1.831,3.13c-0.315,0.47-0.434,1.037-0.811,1.505c-0.688,0.857-1.222,1.839-2.024,2.608
		c-0.561,0.538-0.956,1.21-1.516,1.755c-1.356,1.324-2.907,2.409-4.331,3.648C53.303,62.407,53.077,62.366,52.982,62.556z
		 M34.189,22.824c-0.502,0.354-0.847,0.838-1.363,1.181c-0.534,0.354-0.989,0.88-1.379,1.449c-0.858,1.253-1.545,2.579-2.198,3.949
		c-0.423,0.887-0.464,1.894-1.021,2.711c-0.034,0.049,0.006,0.143-0.006,0.212c-0.086,0.484-0.262,0.911-0.542,1.337
		c-0.327,0.496-0.577,1.043-0.561,1.716c0.021,0.867,0.202,1.757-0.175,2.616c-0.106,0.241-0.135,0.669,0.007,0.837
		c0.378,0.446-0.029,1.061,0.398,1.471c0.058,0.056,0.02,0.304-0.056,0.39c-0.314,0.352-0.225,0.816-0.114,1.115
		c0.167,0.451,0.172,0.879,0.18,1.328c0.002,0.106-0.04,0.263,0.014,0.313c0.389,0.36,0.203,0.821,0.18,1.216
		c-0.027,0.475,0.247,0.847,0.26,1.314c0.059,2.094-0.164,4.186,0.157,6.286c0.206,1.348,0.1,2.741,0.219,4.118
		c0.22,2.55-0.172,5.126,0.23,7.684c0.079,0.503,0.17,0.94,0.537,1.284c0.892,0.158,1.594-0.201,2.299-0.7
		c0.288-0.204,0.541-0.537,0.943-0.572c0.441-0.039,0.759-0.292,1.048-0.597c0.146-0.153,0.293-0.251,0.533-0.289
		c0.283-0.045,0.565-0.184,0.809-0.389c0.227-0.19,0.503-0.388,0.783-0.437c0.515-0.089,0.876-0.366,1.22-0.716
		c0.275-0.279,0.524-0.623,0.858-0.797c0.693-0.363,1.25-0.87,1.787-1.417c0.555-0.565,1.121-1.118,1.677-1.682
		c0.587-0.595,1.254-1.09,1.963-1.521c1.028-0.625,1.911-1.414,2.744-2.323c0.417,0.127,0.768-0.124,1.123-0.269
		c0.211-0.384,0.237-0.786,0.292-1.198c0.073-0.554-0.279-1-0.246-1.532c0.036-0.574,0.006-1.151,0.009-1.728
		c0.003-0.379,0.001-0.736,0.196-1.107c0.206-0.392-0.27-0.759-0.207-1.197c0.044-0.303-0.076-0.594-0.164-0.894
		c-0.104-0.353-0.044-0.791,0.095-1.223c0.144-0.448,0.671-0.994,0.088-1.522c0.117-0.837-0.228-1.531-0.643-2.22
		c-0.095-0.158-0.014-0.424-0.014-0.64c0-1.835,0.031-3.671-0.015-5.505c-0.019-0.73-0.211-1.454-0.839-1.941
		c-0.864,0.537-1.228,1.487-2.045,1.975c-0.07,0.042-0.079,0.179-0.127,0.267c-0.1,0.185-0.238,0.301-0.442,0.401
		c-0.482,0.236-0.932,0.54-1.455,0.853c-0.673-0.158-1.347,0.4-2.11,0.186c-0.087-0.2-0.357-0.138-0.509-0.278
		c0.108-0.286-0.249-0.373-0.251-0.658c-0.005-0.962,0.521-1.662,1.18-2.199c0.413-0.335,1.029-0.444,1.524-0.724
		c0.55-0.31,1.156-0.197,1.775-0.222c0.295-0.571,0.901-0.665,1.46-0.865c0.126,0.1,0.224,0.283,0.194,0.292
		c0.343-0.214,0.493-0.308,0.556-0.348c0.056-0.291-0.146-0.351-0.168-0.467c-0.094-0.498-0.519-0.855-0.491-1.434
		c0.017-0.363-0.522-0.689-0.575-1.031c-0.096-0.627-0.57-0.993-0.78-1.522c-0.231-0.582-0.6-1.069-1.048-1.518
		c-0.199-0.199-0.344-0.434-0.604-0.596c-0.269-0.166-0.48-0.432-0.693-0.675c-0.787-0.899-1.806-1.507-2.806-2.105
		c-0.428-0.255-1.032-0.513-1.576-0.271c-0.576,0.257-1.311,0.191-1.724,0.816C34.539,22.881,34.308,22.824,34.189,22.824z
		 M27.459,21.396c-0.517,0.372-0.742,0.685-0.889,1.037c-0.396,0.951-0.799,1.901-1.13,2.875c-0.107,0.315-0.148,0.761,0.369,0.945
		c0.2-0.798,0.687-1.468,0.886-2.237C26.904,23.211,27.075,22.397,27.459,21.396z M23.056,38.151
		c0.232,0.016,0.352,0.026,0.421-0.157c0.345-0.916,0.481-1.879,0.626-2.836c0.034-0.224,0.162-0.408,0.192-0.63
		c-0.358,0.02,0.015-0.454-0.392-0.429c0.061,0.546-0.385,1.012-0.218,1.5c-0.237,0.456-0.436,0.838-0.629,1.21
		C23.056,37.237,23.056,37.661,23.056,38.151z"/>
	
	
	
	<path fill="currentColor" d="M28.224,32.986c0.187-0.535,0.496-0.696,0.793-0.876
		c0.325,0.017,0.478,0.379,0.592,0.362c0.743,0.16,1.318-0.076,1.842,0.271c0.144,0.095,0.391,0.034,0.553,0.224
		c0.341,0.402,0.81,0.495,1.29,0.436c0.482,0.482,0.939,0.939,1.422,1.423c-0.125,0.577,0.227,1.249-0.306,1.836
		c-0.607-0.102-1.227,0.136-1.843-0.206c-0.247-0.137-0.634-0.022-1.005-0.022c-0.273-0.371-0.684-0.625-1.104-0.862
		c-0.557-0.315-1.037-0.746-1.621-1.027c-0.312-0.15-0.451-0.509-0.614-0.814C28.224,33.406,28.224,33.083,28.224,32.986z"/>
</g>
</svg>
