<?xml version="1.0" encoding="iso-8859-1"?>
<!-- Generator: Adobe Illustrator 16.0.0, SVG Export Plug-In . SVG Version: 6.00 Build 0)  -->
<!DOCTYPE svg PUBLIC "-//W3C//DTD SVG 1.1//EN" "http://www.w3.org/Graphics/SVG/1.1/DTD/svg11.dtd">
<svg version="1.1" id="Layer_1" xmlns="http://www.w3.org/2000/svg" xmlns:xlink="http://www.w3.org/1999/xlink" x="0px" y="0px"
	 width="72.36px" height="71.459px" viewBox="0 0 72.36 71.459" style="enable-background:new 0 0 72.36 71.459;"
	 xml:space="preserve">
<g>
	<path style="fill-rule:evenodd;clip-rule:evenodd;fill:none;" d="M-6.984,78.839c0-28.584,0-57.167,0-85.751
		c28.8,0,57.6,0,86.399,0c0,28.584,0,57.167,0,85.751C50.616,78.839,21.816,78.839-6.984,78.839z M65.14,43.732
		c-0.217-0.257-0.465-0.526-0.95-0.656c0.486-0.285,0.925-0.456,1.164-0.852c0.178-1.42-0.348-2.807-0.195-4.229
		c0.008-0.07,0.029-0.16-0.003-0.213c-0.587-0.95-0.309-2.073-0.614-3.09c-0.168-0.562-0.046-1.215-0.025-1.827
		c0.021-0.597-0.349-1.129-0.229-1.748c0.142-0.728-0.206-1.283-0.713-1.702c-0.75-0.251-1.405,0.151-2.095,0.224
		c-0.453,0.048-1.002,0.132-1.43,0.421c-0.71,0.481-1.486,0.688-2.326,0.603c-0.746,0.458-1.842,0.796-2.664,0.823
		c-0.1-0.162-0.108-0.38-0.023-0.501c0.368-0.526,0.309-1.177,0.146-1.638c-0.358-1.016-0.436-2.078-0.552-3.1
		c-0.135-1.178-0.417-2.368-0.275-3.576c0.025-0.213,0.067-0.457-0.007-0.643c-0.394-0.993-0.431-2.066-0.586-3.091
		c-0.18-1.189-0.28-2.398-0.461-3.596c-0.076-0.507-0.189-0.935-0.549-1.291c-0.354-0.044-0.676,0-0.99,0.2
		c-0.903,0.575-1.842,1.079-2.807,1.556c-0.862,0.427-1.722,0.889-2.574,1.353c-0.97,0.528-1.903,1.132-2.906,1.587
		c-1.519,0.688-1.972,0.913-2.776,1.718c-0.869,0.169-1.514,0.696-2.264,0.971c-0.479,0.176-0.782,0.577-1.093,0.875
		c-0.214,2.093,0.2,4.165-0.249,6.213c-0.093,0.427,0.042,0.872,0.173,1.32c0.206,0.71-0.115,1.425-0.289,2.135
		c-0.274-0.622-0.354-1.256-0.343-1.926c0.012-0.764-0.062-1.525-0.154-2.292c-0.147-1.214-0.401-2.438-0.274-3.685
		c0.054-0.534,0.027-1.08,0.004-1.619c-0.024-0.59-0.204-1.104-0.594-1.594c-0.519-0.651-1.052-1.33-1.166-2.236
		c-0.798-0.532-1.021-1.531-1.684-2.196c-0.054-0.054-0.007-0.208-0.007-0.318c-0.799-0.689-1.162-1.684-1.62-2.571
		c-0.358-0.695-0.763-1.373-1.224-1.959c-0.722-0.92-1.25-1.929-1.809-2.942c-0.207,0.069-0.3-0.188-0.44-0.196
		c-0.197-0.011-0.292-0.148-0.433-0.214c-0.875,0.533-1.003,0.664-0.942,1.643c0.114,1.818-0.312,3.606-0.228,5.418
		c-0.299,0.814-0.207,1.663-0.214,2.502c-0.001,0.146-0.099,0.267-0.118,0.379c-0.122,0.713-0.61,1.418-0.1,2.16
		c-0.131,0.406,0.242,0.699,0.228,1.098c-0.036,0.967-0.012,1.935-0.012,2.738c-0.168,0.423-0.396,0.463-0.667,0.46
		c-1.007-0.01-2.016-0.001-3.023-0.005c-0.8-0.003-1.604-0.055-2.351,0.318c-0.311,0.767-0.377,1.534,0.023,2.367
		c-0.401,0.156-0.24,0.514-0.242,0.817c-0.01,1.584-0.003,3.167-0.006,4.751c0,0.248,0.021,0.505-0.037,0.741
		c-0.224,0.923-0.227,0.918,0.014,1.897c0.05,0.202,0.11,0.504,0.008,0.624c-0.303,0.353-0.187,0.74-0.193,1.113
		c-0.017,1.034-0.006,2.069-0.006,3.154c-0.287-0.193-0.575-0.208-0.744-0.434c-0.528-0.051-0.999,0.026-1.474,0.338
		c-0.467,0.308-1.038,0.455-1.428,0.523c-0.363,0.343-0.62,0.586-0.812,0.767c-0.379,0.713-0.292,1.42-0.293,2.116
		c-0.003,1.512-0.001,3.023-0.001,4.535c0,0.216,0.088,0.496-0.015,0.638c-0.502,0.691-0.036,1.15,0.296,1.629
		c0.921,0.192,1.746-0.412,2.599-0.168c0.442-0.402,0.893-0.577,1.447-0.381c-0.055,1.515-0.039,2.992-0.18,4.48
		c-0.179,1.89-0.043,3.809-0.043,5.697c0.507,0.997,1.585,1.231,2.379,1.825c0.801,0.6,1.719,1.042,2.578,1.548
		c0.231-0.117,0.439-0.223,0.656-0.333c0.347-1.209,0.694-2.425,0.668-3.659c0.12-0.14,0.213-0.248,0.271-0.315
		c0.622-0.137,1.243,0.175,1.753-0.188c0.292,0.123,0.603,0.215,0.788,0.555c-0.175,1.206-0.608,2.478,0.192,3.673
		c0.025,0.656-0.138,1.353,0.439,1.875c0.548,0.209,1.097,0.369,1.703,0.327c1.731-0.121,3.464,0.108,5.207-0.188
		c1.381-0.234,2.817,0.077,4.229-0.228c0.772-0.167,1.587-0.023,2.396-0.203c0.803-0.177,1.662-0.127,2.498-0.211
		c1.168-0.116,2.355,0.002,3.4-0.687c0.025-0.017,0.073,0.007,0.106-0.004c1.187-0.375,2.272-0.947,3.342-1.583
		c0.773-0.46,1.505-1.012,2.366-1.286c0.018-0.336,0.374-0.554,0.221-0.929c-0.084-0.079-0.188-0.177-0.305-0.286
		c-0.572-0.035-1.165-0.094-1.719,0.197c-1.457-0.158-2.887,0.328-4.337,0.203c-0.684-0.06-1.282,0.355-1.957,0.244
		c-0.825,0.473-1.732,0.424-2.635,0.418c-0.575-0.004-1.153,0.031-1.727-0.011c-0.569-0.041-1.063,0.386-1.639,0.226
		c-0.384,0.402-0.962,0.02-1.294,0.246c-0.461,0.315-0.9,0.082-1.305,0.201c-0.631-0.4-0.573-0.437-1.039-1.195
		c-0.17-0.277-0.133-0.575-0.33-0.848c-0.51-0.705-0.946-1.469-1.347-2.244c-0.336-0.649-0.631-1.334-0.994-1.958
		c-0.568-0.978-1.061-1.986-1.602-2.965c0.13-0.121,0.228-0.212,0.279-0.26c0.443,0.152,0.775,0.392,1.031,0.783
		c-0.192,0.478,0.08,0.94,0.222,1.381c0.182,0.563,0.545,1.07,0.864,1.581c0.143,0.229,0.374,0.38,0.464,0.676
		c0.174,0.575,0.466,1.103,0.792,1.616c0.228,0.359,0.277,0.831,0.508,1.188c0.243,0.375,0.79,0.442,1.042,0.849
		c0.019,0.03,0.05,0.052,0.077,0.079c0.945-0.021,2.02,0.29,2.527-1.209c0-0.286,0-0.816,0-1.294
		c0.234-0.303,0.474-0.396,0.768-0.246c0.449,0.63,0.197,1.361,0.301,2.024c0.089,0.089,0.165,0.165,0.299,0.299
		c0.293,0,0.675,0.088,0.993-0.017c0.972-0.317,1.96-0.149,2.939-0.201c0.169-0.009,0.333,0.035,0.501-0.099
		c0.306-0.243,0.788-0.229,1.01-0.086c0.638,0.414,1.092-0.03,1.615-0.176c0.098-0.026,0.197-0.046,0.295-0.07
		c0.829-0.206,1.711-0.111,2.521-0.432c1.207,0.144,2.384-0.214,3.582-0.216c0.288,0,0.576-0.007,0.863,0.002
		c0.252,0.008,0.418-0.187,0.661-0.243c1.135-0.263,2.123-0.842,2.791-1.807c0.177-0.255,0.337-0.538,0.57-0.72
		c0.296-0.23,0.347-0.591,0.593-0.848c1.14-1.191,1.934-2.629,2.745-4.043c0.546-0.952,0.989-1.964,1.458-2.958
		c0.228-0.482,0.468-0.97,0.509-1.515c0.014-0.184,0.094-0.314,0.168-0.473C64.996,45.249,65.279,44.544,65.14,43.732z
		 M11.592,53.473c0.731,0.665,1.19,1.503,1.81,2.192c1.127,1.255,2.353,2.425,3.58,3.585c0.235,0.223,0.587,0.496,0.977,0.348
		c0.493-0.38,0.556-0.875,0.551-1.421c-0.016-1.869-0.006-3.738-0.006-5.608c0-0.141,0-0.282,0-0.365
		c-0.205-0.225-0.374-0.409-0.53-0.58c-0.53,0-1.033,0-1.537,0c-0.467,0-0.968-0.108-1.395,0.024
		c-0.725,0.227-1.448,0.343-2.195,0.451c-0.432,0.063-1.034,0.197-1.256,0.767C11.592,53.045,11.592,53.225,11.592,53.473z"/>
	<path style="fill-rule:evenodd;clip-rule:evenodd;" d="M65.14,43.732c0.139,0.813-0.145,1.517-0.466,2.2
		c-0.074,0.158-0.154,0.289-0.168,0.473c-0.041,0.545-0.281,1.032-0.509,1.515c-0.469,0.994-0.912,2.006-1.458,2.958
		c-0.812,1.414-1.605,2.852-2.745,4.043c-0.246,0.257-0.297,0.617-0.593,0.848c-0.233,0.182-0.394,0.465-0.57,0.72
		c-0.668,0.965-1.656,1.544-2.791,1.807c-0.243,0.057-0.409,0.251-0.661,0.243c-0.287-0.009-0.575-0.002-0.863-0.002
		c-1.198,0.002-2.375,0.359-3.582,0.216c-0.81,0.32-1.691,0.226-2.521,0.432c-0.098,0.024-0.197,0.044-0.295,0.07
		c-0.523,0.146-0.978,0.59-1.615,0.176c-0.222-0.144-0.704-0.157-1.01,0.086c-0.168,0.134-0.332,0.09-0.501,0.099
		c-0.979,0.052-1.968-0.116-2.939,0.201c-0.318,0.104-0.7,0.017-0.993,0.017c-0.134-0.134-0.21-0.21-0.299-0.299
		c-0.104-0.663,0.148-1.395-0.301-2.024c-0.294-0.149-0.533-0.057-0.768,0.246c0,0.478,0,1.008,0,1.294
		c-0.508,1.499-1.582,1.188-2.527,1.209c-0.027-0.027-0.059-0.049-0.077-0.079c-0.252-0.406-0.798-0.474-1.042-0.849
		c-0.23-0.356-0.28-0.828-0.508-1.188c-0.326-0.514-0.618-1.041-0.792-1.616c-0.09-0.296-0.321-0.446-0.464-0.676
		c-0.319-0.511-0.682-1.019-0.864-1.581c-0.142-0.44-0.414-0.903-0.222-1.381c-0.256-0.392-0.588-0.631-1.031-0.783
		c-0.052,0.048-0.149,0.139-0.279,0.26c0.542,0.979,1.034,1.987,1.602,2.965c0.362,0.624,0.658,1.309,0.994,1.958
		c0.4,0.775,0.837,1.539,1.347,2.244c0.197,0.272,0.159,0.57,0.33,0.848c0.465,0.759,0.407,0.795,1.039,1.195
		c0.404-0.119,0.844,0.114,1.305-0.201c0.332-0.227,0.91,0.156,1.294-0.246c0.576,0.16,1.069-0.267,1.639-0.226
		c0.573,0.042,1.151,0.007,1.727,0.011c0.902,0.006,1.81,0.055,2.635-0.418c0.675,0.111,1.273-0.304,1.957-0.244
		c1.45,0.125,2.88-0.361,4.337-0.203c0.554-0.291,1.146-0.232,1.719-0.197c0.116,0.109,0.221,0.207,0.305,0.286
		c0.153,0.375-0.203,0.593-0.221,0.929c-0.861,0.274-1.593,0.826-2.366,1.286c-1.069,0.636-2.155,1.208-3.342,1.583
		c-0.033,0.011-0.081-0.013-0.106,0.004c-1.045,0.688-2.232,0.57-3.4,0.687c-0.836,0.084-1.695,0.034-2.498,0.211
		c-0.81,0.18-1.624,0.036-2.396,0.203c-1.412,0.305-2.848-0.007-4.229,0.228c-1.743,0.297-3.476,0.067-5.207,0.188
		c-0.606,0.042-1.155-0.118-1.703-0.327c-0.577-0.522-0.414-1.219-0.439-1.875c-0.8-1.195-0.367-2.467-0.192-3.673
		c-0.185-0.34-0.496-0.432-0.788-0.555c-0.51,0.362-1.131,0.051-1.753,0.188c-0.058,0.067-0.151,0.176-0.271,0.315
		c0.026,1.234-0.321,2.45-0.668,3.659c-0.216,0.11-0.424,0.216-0.656,0.333c-0.858-0.506-1.776-0.948-2.578-1.548
		c-0.794-0.594-1.872-0.828-2.379-1.825c0-1.889-0.136-3.808,0.043-5.697c0.141-1.488,0.125-2.966,0.18-4.48
		c-0.554-0.196-1.004-0.021-1.447,0.381c-0.853-0.244-1.678,0.36-2.599,0.168c-0.332-0.479-0.798-0.938-0.296-1.629
		c0.103-0.142,0.015-0.422,0.015-0.638c0-1.512-0.002-3.023,0.001-4.535c0.001-0.696-0.086-1.403,0.293-2.116
		c0.192-0.181,0.449-0.424,0.812-0.767c0.39-0.068,0.96-0.216,1.428-0.523c0.475-0.312,0.945-0.389,1.474-0.338
		c0.169,0.226,0.458,0.24,0.744,0.434c0-1.085-0.011-2.12,0.006-3.154c0.006-0.373-0.11-0.761,0.193-1.113
		c0.103-0.12,0.042-0.421-0.008-0.624c-0.24-0.979-0.238-0.974-0.014-1.897c0.058-0.236,0.037-0.494,0.037-0.741
		c0.003-1.583-0.004-3.167,0.006-4.751c0.002-0.303-0.159-0.661,0.242-0.817c-0.4-0.833-0.333-1.6-0.023-2.367
		c0.746-0.373,1.551-0.321,2.351-0.318c1.007,0.004,2.016-0.005,3.023,0.005c0.271,0.003,0.498-0.037,0.667-0.46
		c0-0.803-0.024-1.771,0.012-2.738c0.015-0.399-0.358-0.692-0.228-1.098c-0.511-0.742-0.022-1.447,0.1-2.16
		c0.019-0.113,0.117-0.233,0.118-0.379c0.007-0.839-0.085-1.688,0.214-2.502c-0.084-1.812,0.342-3.601,0.228-5.418
		c-0.062-0.979,0.067-1.11,0.942-1.643c0.142,0.066,0.236,0.203,0.433,0.214c0.14,0.009,0.234,0.266,0.44,0.196
		c0.56,1.013,1.087,2.021,1.809,2.942c0.46,0.586,0.865,1.265,1.224,1.959c0.458,0.888,0.821,1.882,1.62,2.571
		c0,0.11-0.047,0.264,0.007,0.318c0.663,0.665,0.885,1.665,1.684,2.196c0.114,0.906,0.647,1.584,1.166,2.236
		c0.39,0.49,0.57,1.004,0.594,1.594c0.023,0.539,0.05,1.084-0.004,1.619c-0.127,1.246,0.126,2.471,0.274,3.685
		c0.093,0.767,0.167,1.528,0.154,2.292c-0.011,0.67,0.069,1.304,0.343,1.926c0.173-0.71,0.495-1.425,0.289-2.135
		c-0.131-0.448-0.266-0.893-0.173-1.32c0.449-2.049,0.035-4.12,0.249-6.213c0.311-0.298,0.614-0.699,1.093-0.875
		c0.75-0.275,1.395-0.802,2.264-0.971c0.805-0.805,1.258-1.03,2.776-1.718c1.003-0.455,1.937-1.059,2.906-1.587
		c0.853-0.463,1.712-0.926,2.574-1.353c0.965-0.477,1.903-0.981,2.807-1.556c0.314-0.2,0.637-0.244,0.99-0.2
		c0.359,0.356,0.473,0.784,0.549,1.291c0.181,1.198,0.281,2.407,0.461,3.596c0.155,1.024,0.192,2.098,0.586,3.091
		c0.074,0.187,0.032,0.43,0.007,0.643c-0.142,1.208,0.141,2.398,0.275,3.576c0.116,1.021,0.193,2.084,0.552,3.1
		c0.162,0.461,0.222,1.112-0.146,1.638c-0.085,0.121-0.076,0.339,0.023,0.501c0.822-0.027,1.918-0.364,2.664-0.823
		c0.84,0.085,1.616-0.122,2.326-0.603c0.428-0.289,0.977-0.373,1.43-0.421c0.689-0.072,1.345-0.475,2.095-0.224
		c0.507,0.419,0.854,0.974,0.713,1.702c-0.12,0.618,0.249,1.151,0.229,1.748c-0.021,0.611-0.143,1.265,0.025,1.827
		c0.306,1.017,0.027,2.14,0.614,3.09c0.032,0.053,0.011,0.143,0.003,0.213c-0.152,1.422,0.373,2.809,0.195,4.229
		c-0.239,0.396-0.678,0.566-1.164,0.852C64.675,43.206,64.923,43.475,65.14,43.732z M45.286,48.039
		c-0.024-0.79,0.124-1.479-0.214-2.139c0.147-1.351-0.323-2.663-0.228-4.016c0.063-0.894,0.012-1.796,0.012-2.693
		c-0.155-0.513-0.607-0.705-1.001-0.96c-0.733-0.476-1.563-0.743-2.352-1.1c-0.151-0.069-0.257-0.229-0.46-0.197
		c-0.483,0.076-0.86-0.244-1.207-0.458c-0.403-0.249-0.895-0.069-1.254-0.392c-0.059-0.052-0.165-0.11-0.251-0.163
		c-0.442-0.269-0.847-0.588-1.144-0.93c-0.271,0-0.451,0-0.728,0c-0.821,1.312-2.476,1.883-3.267,3.432
		c0.043,0.654-0.081,1.413,0.149,2.174c-0.002-0.594,0.218-1.056,0.578-1.514c0.209-0.267,0.37-0.593,0.641-0.801
		c0.322-0.246,0.458-0.621,0.652-0.93c0.268-0.426,0.609-0.742,0.894-1.065c0.359,0,0.652,0.035,0.935-0.006
		c0.709-0.104,1.251,0.266,1.81,0.593c0.118,0.07,0.202,0.248,0.319,0.267c0.665,0.106,1.145,0.591,1.714,0.822
		c0.604,0.247,1.245,0.468,1.868,0.704c0.124,0.047,0.222,0.163,0.346,0.208c0.708,0.261,0.924,0.901,1.09,1.519
		c0.109,0.403,0.063,0.864,0.01,1.289c-0.061,0.475,0.259,0.846,0.246,1.316c-0.018,0.654-0.185,1.342,0.197,1.962
		c-0.117,0.92,0.164,1.803,0.254,2.708C44.99,47.76,45.088,47.853,45.286,48.039z M30.508,49.961
		c0.396-1.135-0.863-1.611-0.774-2.55c-0.393-0.417-0.877-0.776-0.879-1.462c-0.001-0.204-0.205-0.413-0.332-0.608
		c-0.055-0.084-0.152-0.14-0.204-0.186c-0.362-0.085-0.57,0.087-0.743,0.331c-0.061,0.371,0.188,0.639,0.274,0.85
		C29.271,47.191,29.615,48.722,30.508,49.961z M55.033,50.543c-0.133,0-0.349-0.002-0.564,0.004c-0.026,0-0.051,0.047-0.126,0.123
		c0.132,0.791-0.236,1.692,0.347,2.453c0.243,0,0.455,0,0.661,0c0.106-0.223,0.208-0.434,0.308-0.642
		C55.167,51.92,55.768,51.057,55.033,50.543z M39.789,51.842c-0.318,0.235-0.661,0.673-0.51,1.051
		c0.203,0.507,0.098,1.018,0.208,1.478c0.563,0.345,0.563,0.345,1.016-0.056c0.222-0.776-0.339-1.438-0.17-2.154
		C40.149,52.045,40.095,51.831,39.789,51.842z M58.472,52.593c-0.083-0.758,0.209-1.586-0.335-2.252
		c-0.381-0.071-0.597,0.078-0.736,0.313c-0.116,0.87,0.16,1.599,0.547,2.275C58.25,52.901,58.313,52.7,58.472,52.593z
		 M36.437,42.458c-0.032-0.634,0.118-1.279-0.309-1.832c-0.168-0.012-0.342-0.068-0.502,0.029c-0.267,0.652-0.267,0.652-0.242,1.387
		c0.263,0.2,0.196,0.695,0.697,0.729C36.157,42.704,36.26,42.613,36.437,42.458z M42.057,47.885
		c0.187,0.072,0.249,0.365,0.531,0.282c0.102-0.102,0.203-0.203,0.295-0.296c0-0.539,0-1.068,0-1.576
		c-0.164-0.122-0.233-0.329-0.56-0.27c-0.055,0.068-0.163,0.203-0.267,0.331C42.057,46.86,42.057,47.361,42.057,47.885z
		 M40.334,42.128c0.779-0.103,0.831-0.146,0.848-0.71c0.01-0.314,0.002-0.63,0.002-0.961c-0.185-0.051-0.211-0.298-0.459-0.283
		c-0.184-0.002-0.236,0.21-0.391,0.306C40.334,40.997,40.334,41.519,40.334,42.128z M23.228,28.205
		c-0.244-0.701-0.832-0.938-1.6-1.302C21.945,27.835,22.671,27.918,23.228,28.205z M38.219,40.616
		c-0.11,0.396-0.15,0.777,0.268,1.072c0.095-0.193,0.188-0.386,0.283-0.578C38.482,41.065,38.742,40.588,38.219,40.616z
		 M31.14,51.221c0.157-0.276,0.138-0.469,0-0.705C30.994,50.772,30.994,50.963,31.14,51.221z M23.796,28.727
		c0.101-0.071,0.101-0.143,0-0.214C23.695,28.583,23.695,28.656,23.796,28.727z"/>
	<path style="fill-rule:evenodd;clip-rule:evenodd;" d="M11.592,53.473c0-0.248,0-0.428,0-0.607
		c0.222-0.569,0.824-0.704,1.256-0.767c0.747-0.108,1.47-0.225,2.195-0.451c0.426-0.133,0.927-0.024,1.395-0.024
		c0.503,0,1.006,0,1.537,0c0.156,0.171,0.325,0.355,0.53,0.58c0,0.083,0,0.225,0,0.365c0,1.87-0.009,3.739,0.006,5.608
		c0.004,0.546-0.058,1.041-0.551,1.421c-0.389,0.148-0.741-0.125-0.977-0.348c-1.228-1.16-2.453-2.33-3.58-3.585
		C12.783,54.976,12.324,54.138,11.592,53.473z"/>
	<path style="fill-rule:evenodd;clip-rule:evenodd;fill:none;" d="M45.286,48.039c-0.197-0.186-0.296-0.278-0.392-0.369
		c-0.09-0.905-0.371-1.788-0.254-2.708c-0.382-0.62-0.215-1.308-0.197-1.962c0.013-0.471-0.307-0.842-0.246-1.316
		c0.054-0.425,0.1-0.886-0.01-1.289c-0.166-0.617-0.382-1.258-1.09-1.519c-0.124-0.045-0.222-0.161-0.346-0.208
		c-0.623-0.236-1.264-0.457-1.868-0.704c-0.569-0.231-1.049-0.716-1.714-0.822c-0.117-0.019-0.201-0.196-0.319-0.267
		c-0.559-0.328-1.101-0.697-1.81-0.593c-0.282,0.041-0.575,0.006-0.935,0.006c-0.285,0.323-0.625,0.64-0.894,1.065
		c-0.194,0.309-0.331,0.684-0.652,0.93c-0.271,0.208-0.432,0.534-0.641,0.801c-0.359,0.458-0.58,0.92-0.578,1.514
		c-0.23-0.761-0.106-1.52-0.149-2.174c0.791-1.549,2.446-2.12,3.267-3.432c0.277,0,0.457,0,0.728,0
		c0.297,0.342,0.701,0.661,1.144,0.93c0.086,0.053,0.192,0.11,0.251,0.163c0.359,0.322,0.851,0.143,1.254,0.392
		c0.347,0.214,0.724,0.535,1.207,0.458c0.203-0.032,0.309,0.128,0.46,0.197c0.789,0.356,1.618,0.624,2.352,1.1
		c0.394,0.255,0.846,0.447,1.001,0.96c0,0.897,0.051,1.8-0.012,2.693c-0.096,1.353,0.375,2.665,0.228,4.016
		C45.41,46.559,45.261,47.249,45.286,48.039z"/>
	<path style="fill-rule:evenodd;clip-rule:evenodd;fill:none;" d="M30.508,49.961c-0.893-1.239-1.238-2.771-2.658-3.625
		c-0.087-0.211-0.335-0.479-0.274-0.849c0.173-0.245,0.381-0.417,0.743-0.332c0.052,0.046,0.149,0.102,0.204,0.186
		c0.127,0.195,0.331,0.404,0.332,0.608c0.002,0.686,0.486,1.045,0.879,1.462C29.646,48.35,30.904,48.827,30.508,49.961z"/>
	<path style="fill-rule:evenodd;clip-rule:evenodd;fill:none;" d="M55.033,50.543c0.735,0.514,0.134,1.377,0.625,1.938
		c-0.1,0.208-0.201,0.419-0.308,0.642c-0.206,0-0.418,0-0.661,0c-0.583-0.761-0.215-1.662-0.347-2.453
		c0.075-0.076,0.1-0.123,0.126-0.123C54.684,50.542,54.9,50.543,55.033,50.543z"/>
	<path style="fill-rule:evenodd;clip-rule:evenodd;fill:none;" d="M39.789,51.842c0.307-0.012,0.36,0.203,0.544,0.318
		c-0.169,0.716,0.392,1.378,0.17,2.154c-0.452,0.4-0.452,0.4-1.016,0.056c-0.11-0.46-0.005-0.971-0.208-1.478
		C39.127,52.515,39.47,52.078,39.789,51.842z"/>
	<path style="fill-rule:evenodd;clip-rule:evenodd;fill:none;" d="M58.472,52.593c-0.159,0.106-0.222,0.308-0.524,0.337
		c-0.387-0.677-0.663-1.405-0.547-2.275c0.14-0.235,0.355-0.385,0.736-0.313C58.681,51.007,58.389,51.835,58.472,52.593z"/>
	<path style="fill-rule:evenodd;clip-rule:evenodd;fill:none;" d="M36.437,42.458c-0.177,0.154-0.28,0.245-0.357,0.313
		c-0.501-0.033-0.434-0.528-0.697-0.729c-0.024-0.734-0.024-0.734,0.242-1.387c0.161-0.098,0.334-0.041,0.502-0.029
		C36.554,41.179,36.405,41.825,36.437,42.458z"/>
	<path style="fill-rule:evenodd;clip-rule:evenodd;fill:none;" d="M42.057,47.885c0-0.524,0-1.025,0-1.528
		c0.104-0.128,0.212-0.263,0.267-0.331c0.326-0.06,0.396,0.147,0.56,0.27c0,0.508,0,1.037,0,1.576
		c-0.092,0.093-0.193,0.194-0.295,0.296C42.306,48.25,42.244,47.958,42.057,47.885z"/>
	<path style="fill-rule:evenodd;clip-rule:evenodd;fill:none;" d="M40.334,42.128c0-0.609,0-1.132,0-1.648
		c0.154-0.096,0.207-0.308,0.391-0.306c0.248-0.015,0.274,0.232,0.459,0.283c0,0.331,0.008,0.646-0.002,0.961
		C41.166,41.982,41.114,42.026,40.334,42.128z"/>
	<path style="fill-rule:evenodd;clip-rule:evenodd;fill:none;" d="M23.228,28.205c-0.557-0.287-1.283-0.37-1.6-1.302
		C22.396,27.267,22.984,27.504,23.228,28.205z"/>
	<path style="fill-rule:evenodd;clip-rule:evenodd;fill:none;" d="M38.219,40.616c0.522-0.027,0.263,0.449,0.551,0.494
		c-0.095,0.192-0.188,0.385-0.283,0.578C38.069,41.393,38.109,41.012,38.219,40.616z"/>
	<path style="fill-rule:evenodd;clip-rule:evenodd;fill:none;" d="M31.14,51.221c-0.146-0.258-0.146-0.449,0-0.705
		C31.277,50.752,31.296,50.945,31.14,51.221z"/>
	<path style="fill-rule:evenodd;clip-rule:evenodd;fill:none;" d="M23.796,28.727c-0.101-0.071-0.101-0.143,0-0.214
		C23.896,28.583,23.896,28.656,23.796,28.727z"/>
</g>
</svg>
