<svg xmlns="http://www.w3.org/2000/svg" xml:space="preserve" width="72px" height="72px" viewBox="0 0 72 72">
    <g fill="currentColor">
        <path d="m16.257 48.089-.345.323c0 1.223-.056 2.48.018 3.73.061 1.034-.307 2.012-.266 3.044.013.333-.218.708-.185 1.097.015.172.037.318.125.49.327.641.304.652.298 1.414-.813.265-1.317-.314-1.759-.778a28 28 0 0 1-1.456-1.659c-.707-.872-1.307-1.829-1.959-2.744-.489-.688-.866-1.444-1.319-2.147-.443-.688-.665-1.459-1.045-2.165-.458-.849-.791-1.756-1.143-2.656-.227-.578-.047-1.116-.168-1.593l.932-.93c.243-.53.136-.868.34-1.208.319-.53.542-1.135.699-1.759.099-.392.259-.826.794-.966.229-.06.554-.136.682-.449.09-.852-.188-1.751.304-2.56.645-1.078 1.742-1.59 3.068-2.083h.847c.33.153.294.555.584.782v2.21c.395.113.554-.282.886-.313.265-.527.497-1.089.817-1.594.25-.395.063-.859.242-1.194.233-.436.178-.731-.019-1.145-.222-.467.175-.932.217-1.513l.608-.489c.202-1.126.202-1.126.805-1.716.206-.013.408.042.59-.16.089-.098.325-.062.499-.087.142-.231.041-.485.078-.792l-.494-.386c.381-.829.249-1.68.275-2.518.002-.057.077-.11.11-.168.25-.436.602-.846.722-1.315.139-.544.54-.866.782-1.303.558-1.007 1.287-1.899 1.831-2.91.044-.082-.01-.213.1-.282.521-.325.582-.901.798-1.424.282-.1.533-.381.922-.315.639-.658 1.448-1.154 1.948-2.009l1.081.532c.492-.688.96-1.374 1.01-2.288 1.356-1.458 1.916-1.866 2.908-2.084.519-.519 1.079-1.072 1.631-1.634.36-.366.778-.564 1.299-.513.42.288.821.612 1.266.855.673.369 1.117.929 1.461 1.583.186.352.313.734.489 1.092.137.277.372.414.782.339.058-.341.349-.582.591-.816 1.113-.229 1.89.428 2.588 1.056 1.16 1.044 2.415 1.995 3.437 3.189.56.655 1.062 1.345 1.021 2.319.499.439.992.939 1.186 1.623.188.667.809.769 1.274 1.068a5.8 5.8 0 0 1 1.696 1.634c.775 1.126 1.421 2.358 2.423 3.317.163.155.05.44.317.532v1.472c.329.424.722.792.663 1.371-.017.159.097.249.148.372.444 1.041.78 2.106.724 3.265-.026.549-.1 1.123.296 1.635.628.077 1.318-.154 1.907.378l.087-.216c.186.217.348.46.56.646.558.491.812 1.176.568 1.793-.467 1.187-.334 2.474-.795 3.663-.217.557-.037 1.267-.037 1.962.262-.134.47-.217.649-.34.146-.1.258-.249.424-.414v-1.08l.521-.521h1.276c.607.546 1.072 1.373 1.236 2.239l1.414 1.361c.326.003.631.233.961.326.467.718.531 1.381.279 2.188-.176.563-.352 1.062-.688 1.561-.347.515-.319 1.252-.876 1.682-.211.871-.923 1.476-1.205 2.309-.101.245-.371.181-.545.284-.547.325-1.048.639-1.158 1.355-.015.099-.017.437-.284.494-.438-.372-.465-.438-.509-1.224-.381-.123-.744-.166-1.047.239v2.574c-.285.335-.584.661-.838 1.036-.863 1.275-2.132 2.106-3.352 3.017-1.556 1.159-3.23 2.077-4.953 2.921-.774.38-1.593.674-2.363 1.072-.231.119-.533.095-.794.166-.546.151-1.086.313-1.606.554-.4.185-.89.151-1.299.263-.949.259-1.976.139-2.871.613-.748-.152-1.429.279-2.179.231-.932-.061-1.87 0-2.805-.021-.454-.011-.926.12-1.359-.1-.469-.238-1.059.101-1.428-.178-.415-.313-.914.083-1.292-.33-.132-.145-.551-.057-.833-.027-.299.031-.464-.315-.776-.226-.433.125-.871-.104-1.179-.266-.653-.344-1.327-.487-2.026-.584-.22-.03-.377-.175-.543-.256-.366-.178-.739-.304-1.112-.45-.389-.153-.796-.329-1.168-.579-.574-.385-1.264-.584-1.885-.909-1.231-.645-2.316-1.514-3.503-2.224-.503-.301-.644-.891-.855-1.371-.121-.272-.245-.659-.234-.973.059-1.777-.381-3.527-.252-5.31.028-.389.268-.688.251-1.098-.041-1.019-.338-2.009-.271-3.044.015-.215-.138-.568-.267-.865m7.646 8.487c.029-.896.059-1.761.172-2.638.138-1.063.013-2.161-.128-3.257-.229-1.785-.035-3.602-.212-5.416-.202-2.067-.035-4.17-.055-6.257-.005-.559.397-1.055.235-1.518-.861-1.446-.624-2.936-.659-4.409.479-.315.524-.924.865-1.347-.024-1.006.665-1.626 1.266-2.278.239-.259.47-.514.596-.837.104-.267.257-.48.462-.673.428-.401.855-.765 1.397-1.051.75-.396 1.374-1.027 2.066-1.538.409-.301.848-.559 1.269-.844.723-.491 1.388-1.08 2.285-1.265.189-.039.406-.129.53-.268.528-.593 1.196-.652 1.945-.566.124.259.382.424.541.723.217.41.461.787.375 1.245-.092.483.242.861.23 1.316-.056 2.313.365 4.611.218 6.928-.031.502.018 1.009-.01 1.511-.036.669.251 1.27.349 1.904.114.746.61 1.463.122 2.292-.149.252-.176.771.083 1.117.1.133.113.258.097.393-.106.867.236 1.767-.202 2.615-.074.142-.087.425.003.521.318.344.195.739.196 1.111.01 3.311 0 6.621.014 9.932.002.369-.064.726.171 1.121.178.3.139.825-.156 1.102-.039.215.14.253.14.335.011 1.609.008 3.218.008 4.827-.022.445-.547.603-.625 1.01.188.25.418.178.596.105.645-.26 1.299-.414 1.999-.393.646.02 1.297-.02 1.942.016.276.016.438-.176.692-.234.229.243.542.23.856.225.322-.006.646-.001.954-.001.118-.098.226-.166.354-.229.744-.369 1.513-.775 1.957-1.479.257-.407.567-.647 1.021-.896 1.099.067 2.286.124 3.211-.785.354-.328.228-.764.271-1.173.059-.548-.131-1.092.176-1.657.177-.326.078-.852-.012-1.261-.216-.981-.161-1.674.002-2.764.131-.871.189-1.801-.052-2.653-.111-.396-.206-.83-.087-1.118.26-.629.094-1.254.195-1.866.07-.419-.272-.685-.25-1.102.062-1.112-.04-2.233.038-3.344.08-1.141-.379-2.222-.238-3.235l-.639-1.24v-1.104l.613-.494c0-.603.115-1.138-.025-1.594a15.5 15.5 0 0 0-1.036-2.482c-.467-.912-1.136-1.701-1.768-2.506-.15-.191-.338-.389-.552-.485-.407-.182-.765-.477-.877-.846-.124-.406-.652-.191-.671-.568-.021-.431-.364-.64-.631-.805-.487-.304-.875-.696-1.271-1.091-.56-.558-1.112-1.123-1.657-1.674H41.5c-.094-.245-.385-.147-.485-.266-.146-.582.08-1.154-.151-1.734-.423.149-.594.491-.878.707h-.841c-1.087-.434-2.091-.587-2.821-1.293l-2.156-.001c-.638.438-1.267.865-2 1.167-.707.292-1.328.792-1.987 1.2-.586.316-.794-.555-1.328-.424-.946.514-.865 1.417-.843 2.266-.506.506-1.004.976-1.469 1.477-.423.456-.786.968-1.218 1.415-.533.55-.854 1.248-1.332 1.841-.361.448-.813.987-.911 1.542-.163.916-.756 1.567-1.115 2.485v2.479c.319.337.717.64.863 1.161-.035.347.008.705-.198 1.083-.242.447-.268.988-.246 1.518.029.719.007 1.439.007 2.159 0 .18.031.366-.005.539-.287 1.382-.208 1.917-.03 3.281.089.683.289 1.349.278 2.065-.018 1.191-.232 2.408.188 3.581-.117 1.49.179 2.962.199 4.444.01.735.273 1.257.821 1.666l.428-.03c.2-.561-.05-.966-.367-1.436M31.22 37.47v-8.311c-.164-.12-.231-.327-.521-.276-.337.298-.552.69-.535 1.214.019.573-.024 1.149.012 1.72.048.761-.188 1.544.197 2.283.07.135.064.422-.028.507-.266.243-.166.528-.172.796-.014.605-.004 1.21-.004 1.661l.536.688c.126-.22.298-.249.515-.282m-.298 14.447c-.548 1.423-.214 2.814-.329 4.174-.117 1.38.294 2.713.229 4.103l.426-.038c0-.692-.002-1.368 0-2.044.002-.588.005-.588.409-1.319.091.647-.156 1.349.378 1.888.788-.009.788-.009 1.431-.476-.344-.379-.803-.69-.917-1.219-.118-.547-.537-.868-.869-1.225 0-.141.04-.271-.006-.353-.387-.688-.495-1.429-.418-2.195.043-.438-.117-.805-.334-1.296m-14.368-6.954c.267-.915 1.229-1.849 1.016-3.206-.52.21-.78.715-1.364.724.012-.33-.317-.136-.391-.297-.524-.368-.264-.906-.356-1.354-.16-.103-.215-.321-.555-.283l-.2.396c-.088.272-.206.686-.067.978.485 1.017.38 2.129.61 3.183.075.345.278.566.342.837zm17.934 2.888c0-.82.024-1.573-.008-2.323-.024-.582.107-1.163-.173-1.757a1.2 1.2 0 0 1 .093-1.116c.219-.335.03-.765.093-1.144.066-.398-.189-.643-.316-.98-.38.335-.423.803-.735.958-.134.748.046 1.392-.21 2.069-.234.62.11 1.391-.259 2.042.493.719 1.082 1.379 1.143 2.289zm-.46 3.621c.164 1.351-.164 2.728.22 4.096.153.546-.098 1.159-.154 1.734-.104 1.069-.163 2.174.202 3.229.016.045.113.063.177.095.218.021.27-.201.448-.311 0-.19.004-.401-.001-.612a1.4 1.4 0 0 0-.039-.306c-.231-.868-.22-.865.013-1.89.062-.271.137-.652.003-.833-.298-.401-.175-.814-.184-1.218-.024-1.074-.008-2.149-.008-3.225 0-.251.036-.509-.014-.749-.029-.138-.199-.244-.307-.367zm-3.871-10.184c.148.114.236.235.233.438-.015.971.051 1.946-.022 2.911-.076.998.28 1.943.242 2.928l.312.312c.106-.313.338-.558.335-.929-.018-2.116-.009-4.231-.009-6.445-.309.1-.58-.074-.843.112-.043.238.051.516-.248.673m-2.438 6.805c.144-.245-.02-.483.182-.653.229-.193.181-.562.084-.689-.273-.361-.156-.739-.193-1.111-.018-.172.02-.382-.066-.508-.295-.431-.25-.958-.116-1.327.316-.874.085-1.725.199-2.563-.249-.117-.333-.416-.665-.183 0 .561-.002 1.163 0 1.766.003.588.023 1.16.191 1.746.162.563-.273 1.122-.206 1.734.065.59.014 1.193.014 1.788zm-1.018-14.151c.071.605-.16 1.246.105 1.801.295.618.36 1.245.337 1.831l.318.376.337-.337c-.052-.582.137-1.211-.09-1.777-.146-.362-.222-.634.016-.965a.73.73 0 0 0 .048-.715c-.291-.515-.121-1.089-.243-1.644-.547.374-.34 1.092-.828 1.43m1.053 19.408v-1.994h-.359v1.635zm6.249-21.1c-.486.947-.236 1.808 0 2.668zm.282 4.811c-.064-.385.163-.814-.41-1.039v1.039zm25.669 15.984c.001-.288.101-.564-.079-.865-.283.381-.283.381-.259.865z"/>
        <path d="M43.827 29.791c.478-.536 1.277-.849 1.73-1.571.653.007 1.257.037 1.491.792.916.686 1.304 1.81 2.128 2.572-.104.863.609 1.403.805 2.147.135.929.068 1.855-.47 2.667-.166.25-.184.529-.101.699.331.671.285 1.407.46 2.085.201.782.117 1.534.158 2.297.017.296.12.621-.181.902-.108.102-.062.42-.018.625.227 1.053.145 1.042.025 2.199-.077.748-.188 1.541.118 2.309.124.31.146.729.049 1.046-.376 1.223-.139 2.464-.188 3.693-.02.476-.088.956.182 1.435.138.246.075.644.015.955-.272 1.425-.271 1.42 0 2.631.1.444-.206.771-.447 1.146H47.95c-.235-.324-.648-.46-1.099-.66-.04 1.405-.741 2.394-1.673 3.295-.119 0-.26-.003-.4 0-.676.017-1.409-.122-2.012.097-.605.22-1.259-.113-1.816.316-.157.121-.591.123-.721-.003-.354-.343-.755-.098-1.098-.214-.352-.256-.563-.612-.739-.994-.083-.254.232-.361.214-.654-.183-2.78.292-5.546.206-8.326-.047-1.521.361-3.022.211-4.55.421-1.209.14-2.459.21-3.688.033-.574-.026-1.153.016-1.726.041-.557-.138-1.116.113-1.677.238-.53.027-1.126.097-1.687.101-.816-.269-1.572-.253-2.394.015-.779.477-1.488.24-2.15.557-1.078.938-2.151 2.106-2.57.273-.165.308.417.608.163.14.402.482.665.285 1.098h.548c.513-.64.6-1.45.834-2.305m.774 11.392c-.3.304-.404.663-.4 1.092.018 1.544.007 3.088.007 4.633 0 .215.092.533-.016.628-.47.42-.016.756.046 1.121.006.038.112.059.197.1.182-.016.255-.206.396-.308.122-1.111-.001-2.226.194-3.354.205-1.179.046-2.422.046-3.604-.186-.128-.248-.342-.47-.308m-.441 10.585c-.289.035-.072.39-.315.486-.147.059-.059.257-.066.392-.043.76-.016 1.508-.178 2.277-.177.848-.04 1.76-.04 2.568l.304.305.506-.455c.289-1.318.463-2.51.072-3.705.398-.494.111-1.063.204-1.557-.198-.141-.265-.35-.487-.311m1.236-16.849c-.382.697-.246 1.514-.527 2.241-.119.309.009.623.35.783.472-.139.871-.377 1.111-.735.105-.65.006-1.216-.165-1.789-.128-.432-.381-.536-.769-.5"/>
    </g>
</svg>
