<?xml version="1.0" encoding="iso-8859-1"?>
<!-- Generator: Adobe Illustrator 16.0.0, SVG Export Plug-In . SVG Version: 6.00 Build 0)  -->
<!DOCTYPE svg PUBLIC "-//W3C//DTD SVG 1.1//EN" "http://www.w3.org/Graphics/SVG/1.1/DTD/svg11.dtd">
<svg version="1.1" id="Layer_1" xmlns="http://www.w3.org/2000/svg" xmlns:xlink="http://www.w3.org/1999/xlink" x="0px" y="0px"
	 width="72.36px" height="71.459px" viewBox="0 0 72.36 71.459" style="enable-background:new 0 0 72.36 71.459;"
	 xml:space="preserve">
<g>
	<path style="fill-rule:evenodd;clip-rule:evenodd;fill:none;" d="M79.416,78.839c-28.8,0-57.6,0-86.399,0
		c0-28.584,0-57.167,0-85.751c28.8,0,57.6,0,86.399,0C79.416,21.672,79.416,50.255,79.416,78.839z M27.862,32.247
		c-0.144,0.302-0.258,0.542-0.37,0.777c-0.384,0.079-0.704,0.254-0.974,0.536c-0.337,0.352-0.699,0.667-1.115,0.941
		c-0.322,0.211-0.575,0.509-0.674,1.009c-0.198,1.001-0.681,1.603-1.47,2.402c0,0.506,0,1.01,0,1.497
		c0.411,0.457,0.511,0.979,0.397,1.554c-0.382,0.382-0.764,0.764-1.173,1.174c-0.583-0.184-1.112,0.283-1.729,0.198
		c-0.421,0.611-1.174,0.606-1.607,0.837c-0.557,0.753-1.165,1.279-1.471,2.021c-0.062,0.148-0.332,0.296-0.505,0.297
		c-0.606,0.002-1.098,0.333-1.619,0.541c-0.412,0.165-0.805,0.214-1.215,0.184c-0.54-0.039-1.001,0.175-1.474,0.362
		c-0.278,0.111-0.544,0.251-0.742,0.345c-0.436,0.574-0.288,1.185-0.306,1.636c0.341,0.786,1.056,1.23,1.084,2.117
		c-0.75,0.514-1.015,1.259-0.834,2.204c0.248,0.085,0.299,0.47,0.64,0.474c0.21-0.114,0.414-0.225,0.622-0.337
		c0-0.143,0-0.285,0-0.424c0.334-0.391,0.795-0.511,1.194-0.585c0.357-0.211,0.325-0.581,0.535-0.803
		c-0.274-0.531-0.263-1.269-1.018-1.354c-0.194-0.405-0.367-0.765-0.541-1.126c1.047-0.904,2.413-0.893,3.488-1.453
		c0.304,0.305,0.556,0.556,0.858,0.858c0.016,0.148-0.041,0.455,0.087,0.616c0.215,0.272,0.104,0.543,0.136,0.759
		c0.309,0.514,0.792,0.7,1.172,0.856c0.793,0.758-0.111,1.499,0.055,1.939c0.453,0.454,0.726,0.727,0.941,0.943
		c0.139-0.14,0.337-0.338,0.626-0.626c-0.112-0.692,0.64-1.358,0.672-2.116c-0.48-0.769-1.34-1.02-1.705-1.774
		c-0.255-0.86,0.527-1.552,0.408-2.389c0.489-0.557,1.103-0.991,1.462-1.667c0.122-0.229,0.353-0.372,0.688-0.42
		c0.447-0.065,0.854-0.367,1.299-0.492c0.476-0.133,0.915-0.492,1.495-0.285c0.276,0.432,0.493,0.971,1.1,1.112
		c0,0.513,0,1.015,0,1.626c-0.188,0.151-0.438,0.353-0.632,0.508c-0.083,0.701,0.209,1.15,0.629,1.551
		c0.379,0.361,0.748,0.734,0.631,1.355c-0.28,0.268-0.565,0.541-0.836,0.8c0,0.31,0,0.597,0,1.016
		c0.177,0.144,0.426,0.345,0.77,0.622c-0.422,0.47-0.343,1.036-0.342,1.609c-0.143,0.144-0.301,0.288-0.443,0.448
		c-0.084,0.095-0.191,0.065-0.286,0.098c-1.208,0.409-1.481,0.842-1.354,2.125c0.077,0.077,0.153,0.153,0.238,0.238
		c0.565,0,1.139,0,1.545,0c0.359,0.362,0.629,0.636,0.954,0.964c-0.189,0.193-0.431,0.441-0.67,0.687c0,0.376,0,0.732,0,1.067
		c-0.499,0.364-1.135,0.252-1.628,0.558c-0.515,0.319-1.07,0.409-1.669,0.412c-1.334,0.007-2.681-0.141-4.078,0.3
		c-0.162,0.405-0.566,0.792-0.25,1.294c0.138,0.208,0.276,0.416,0.366,0.551c2.444,0.058,4.813-0.252,7.023,0.725
		c0.082,0.354,0.346,0.62,0.265,0.918c0.212,0.212,0.365,0.364,0.518,0.518c0.56,0.044,1.123,0.036,1.631-0.216
		c0.496-0.245,0.959-0.555,1.698-0.988c-0.553,1.07-0.37,1.975-0.409,2.871c0.192,0.081,0.24,0.313,0.47,0.295
		c0.46-0.068,0.833-0.291,1.137-0.642c0.47-0.541,1.05-0.781,1.771-0.64c0.246,0.235,0.448,0.59,0.923,0.339
		c0.09-0.274,0.174-0.594,0.392-0.839c0.877,0.465,1.198,1.304,1.638,1.98c0.279,0,0.494,0,0.798,0
		c0.145-0.414,0.4-0.813,0.446-1.267c-0.244-0.5-0.472-0.968-0.716-1.469c0.854-0.048,0.839-0.025,1.508,0.4
		c0.449,0.286,0.915,0.739,1.464,0.583c0.464-0.132,0.936-0.156,1.467-0.218c-0.215-0.583-0.533-0.883-1.015-0.859
		c-0.456-0.347-0.771-0.715-0.961-1.189c0.073-0.074,0.176-0.177,0.264-0.265c1.313,0.584,2.836,0.738,3.776,1.962
		c0.342-0.242,0.723-0.279,0.898-0.619c0.027-0.394-0.076-0.706-0.542-0.721c-0.353-0.011-0.476-0.226-0.551-0.495
		c0.257-0.43,0.672-0.507,1.009-0.308c0.249,0.148,0.463,0.129,0.699,0.149c0.988,0.082,1.903-0.152,2.748-0.664
		c1.022-0.618,2.136-0.877,3.321-0.845c0.637,0.017,1.229-0.095,1.707-0.494c0-0.277,0-0.519,0-0.766
		c-0.706-0.218-1.39-0.596-2.094-0.436c-0.445,0.102-0.873,0.178-1.322,0.181c-0.54,0.003-1.08-0.008-1.62,0.006
		c-0.169,0.004-0.347-0.068-0.513,0.063c-0.314,0.248-0.633,0.255-0.954-0.009c-0.149-0.123-0.4-0.119-0.493-0.026
		c-0.296,0.295-0.76,0.093-0.956,0.434c-0.496-0.246-1.025-0.632-1.379-0.419c-0.384,0.231-0.792,0.091-1.174,0.341
		c-0.328,0.214-0.912,0.085-1.374,0.029c-0.291-0.035-0.414,0.258-0.668,0.231c-0.197-0.148-0.406-0.263-0.666-0.217
		c-0.571,0.1-1.081-0.156-1.612-0.283c-0.09-0.021-0.123-0.165-0.262-0.151c-0.917,0.087-1.785-0.424-2.6-0.202
		c-0.483-0.253-0.869-0.454-1.263-0.659c-0.675,0-1.362-0.04-2.042,0.016c-0.389,0.031-0.774-0.12-0.936-0.319
		c-0.324-0.399-0.736-0.7-1.045-1.066c-0.311-0.366-0.651-0.721-0.95-1.105c-0.188-0.636,0.178-1.217,0.233-1.838
		c0.052-0.576,0.56-1.042,0.918-1.52c0.426,0.409,0.905,0.129,1.26,0.217c0.52-0.215,0.237-0.759,0.557-0.984
		c-0.647-0.918-1.301-1.824-2.129-2.576c0-0.369,0-0.729,0-1.167c-0.126-0.096-0.297-0.225-0.491-0.372
		c0.166-0.246-0.077-0.525,0.172-0.735c0.365,0.061,0.731-0.082,1.116,0.188c0.23,0.161,0.71,0.118,0.898-0.275
		c0-0.398,0-0.785,0-1.028c-0.902-0.662-1.468-1.548-2.331-1.954c-0.043-0.731,0.165-1.445-0.651-1.775c0-0.211,0-0.425,0-0.662
		c0.423-0.408,0.861-0.832,1.282-1.239c0-0.256,0-0.47,0-0.565c-0.221-0.286-0.392-0.508-0.575-0.744
		c-0.6,0.276-1.167,0.383-1.759,0.226c0.038-0.307-0.361-0.455-0.256-0.775c0.211-0.695,0.708-1.222,1.088-1.815
		c0.383-0.598,1.018-0.94,1.504-1.414c0.551-0.537,1.381-0.493,1.814-1.089c0.329,0,0.644,0,0.933,0
		c0.316,0.593-0.275,1.092-0.099,1.632c0.18,0.549,0.388,1.087,0.388,1.678c0.607,0.667,1.229,1.325,2.138,1.598
		c0.624,0.186,1.376-0.271,1.978,0.369c-0.733,0.515-0.977,1.209-0.89,1.988c-0.457,0.111-0.792,0.266-1.049,0.563
		c-0.04,0.352-0.114,0.713,0.292,0.975c0.351,0,0.736,0,1.122,0c0.692-0.165,1.111-0.694,1.577-1.158
		c0.004-0.673,0.004-0.673-0.203-1.093c0.234-0.097,0.154-0.377,0.313-0.528c0.135,0,0.276,0,0.435,0
		c0.453,0.415,0.861,0.884,1.223,1.409c0.379,0.549,1.13,0.712,1.44,1.31c0.272,0.348-0.207,0.492-0.176,0.78
		c0.157,0.229,0.321,0.456,0.139,0.813c-0.61,0.16-0.82,0.792-1.199,1.221c0,0.521,0,1.02,0,1.536
		c0.707,0.438,1.484,0.518,2.297,0.479c0.577,0.656,0.067,1.476,0.375,2.198c0.601,0.198,0.979,0.659,1.198,1.271
		c-0.486,0.765-0.165,1.546,0.015,2.298c0.17,0.712,0.082,1.511,0.624,2.115c0.51,0.568,0.529,1.493,1.303,1.862
		c0.241-0.131,0.445-0.241,0.649-0.353c0.358-0.97,0.172-1.529-0.826-2.557c-0.511-1.971-0.46-3.903-0.069-5.859
		c-0.364-0.206-0.066-0.646-0.261-0.973c-0.468-0.258-0.966-0.458-1.538-0.429c-0.321-0.29-0.576-0.661-1.13-0.819
		c0.416-0.417,0.736-0.736,1.141-1.142c-0.502-0.678-0.976-1.378-0.77-2.188c-0.329-0.526-0.463-1.098-0.937-1.426
		c-0.568-0.394-0.954-0.964-1.435-1.441c-0.345-0.342-0.705-0.663-0.879-1.148c-0.185-0.519-0.6-0.969-1.069-1.086
		c-0.623-0.154-1.023-0.533-1.43-0.924c-0.537,0-1.036,0-1.661,0c0.327-0.363-0.228-0.374-0.131-0.747
		c0.222-0.125,0.226-0.465,0.38-0.667c0.16-0.681-0.212-1.393,0.218-1.925c1.033-0.398,1.802,0.412,2.61,0.347
		c0.273-0.224,0.49-0.4,0.632-0.517c0-0.389,0-0.67,0-1.002c-0.204-0.175-0.422-0.361-0.613-0.524c0-0.255,0-0.469,0-0.691
		c0.358-0.353,0.717-0.706,1.06-1.043c0.107-1.042-0.418-2.023-0.157-3.076c0.641-0.485,0.641-0.485,2.45-0.513
		c0.727-0.428,0.727-0.428,1.801-0.378c0.219,0.818-0.53,1.356-0.66,2.153c0.267,0.14,0.173,0.533,0.525,0.758
		c1.478,0.546,2.164,1.929,2.94,3.213c0.142,0.923-0.079,1.772-0.627,2.529c-0.223,0.307-0.275,0.62-0.133,1.08
		c0.447,0.086,0.792,0.587,1.459,0.276c0.594-0.277,0.752-0.722,0.872-1.342c0.65-0.439,0.994-1.253,1.565-1.777
		c0.502,0,0.929,0,1.341,0c0.113,0.12,0.211,0.223,0.293,0.31c0.071,0.291-0.328,0.4-0.212,0.691
		c0.172,0.433,0.297,0.888,0.504,1.302c0.177,0.354,0.56,0.54,0.901,0.671c0.267,0.102,0.598,0.095,0.891-0.163
		c0.119-0.105,0.477-0.105,0.748,0.084c-0.185,0.417,0.398,0.755,0.185,1.161c-0.357,0.681-0.113,1.39-0.214,2.069
		c0.188,0.188,0.368,0.364,0.549,0.543c0.344,0.001,0.724,0.106,0.975-0.354c0-1.051-0.01-2.163,0.005-3.275
		c0.006-0.472-0.073-0.895-0.479-1.259c-0.615,0.013-1.07-0.691-1.612-0.533c-0.318-0.223-0.551-0.385-0.741-0.518
		c0.146-0.654,0.145-0.656,0.773-0.755c0.232,0.264,0.566,0.471,0.634,0.838c1.115,0.456,2.366,0.462,3.282,1.315
		c0.351,0,0.803,0.136,1.045-0.031c0.389-0.269,0.601-0.075,0.934,0.026c0.93,0.281,1.884,0.454,2.834-0.059
		c0-0.302,0-0.615,0-0.918c-0.387-0.372-0.712-0.796-1.275-0.958c-0.712,0.116-1.394-0.242-2.119-0.274
		c-0.34-0.391-0.625-0.029-0.927,0.068c-0.532-0.199-0.963-0.592-1.564-0.684c-0.231-0.036-0.569-0.198-0.773-0.473
		c-0.213-0.286-0.48-0.54-0.76-0.763c-0.233-0.186-0.518-0.434-0.78-0.435c-1.088-0.003-2.193-0.178-3.257,0.198
		c-0.221,0.078-0.402,0.274-0.756,0.191c-0.208-0.227-0.563-0.47-0.707-0.804c-0.298-0.69-0.817-1.232-1.149-1.898
		c-0.145-0.29-0.441-0.542-0.68-0.592c-0.504-0.438-0.194-1.056-0.597-1.447c0.471-0.508,0.248-1.03-0.038-1.426
		c-0.342-0.475-0.596-1.045-1.168-1.374c-1.109,0-2.261,0-3.41,0c-0.104-0.104-0.206-0.206-0.291-0.291c0-0.332,0-0.645,0-0.953
		c0.133-0.099,0.248-0.259,0.354-0.253c0.613,0.037,1.011-0.316,1.472-0.647c0.544-0.39,1.108-0.767,1.699-1.097
		c1.149-0.644,1.583-1.688,1.646-2.878c-0.483-0.543-1.034-0.901-1.287-1.62c-0.033-0.983,0.203-1.62,0.935-2.398
		c0.098-0.105,0.265-0.189,0.295-0.309c0.188-0.77,0.812-1.199,1.311-1.73c0-0.383,0-0.769,0-1.045
		C48,9.978,47.421,9.922,47.13,9.51c-0.813,0.028-1.216-0.598-1.738-1.088c-0.765,0.042-1.611-0.208-2.242,0.521
		c-0.045,0.785-0.167,1.555-0.453,2.294c-0.168,0.436-0.505,0.802-0.454,1.334c0.019,0.193-0.155,0.467-0.322,0.605
		c-0.636,0.524-0.985,1.29-1.598,1.83c0,0.431,0,0.862,0,1.313c0.504,0.409,0.853,1.014,1.503,1.288
		c0.273,0.115,0.24,0.402,0.214,0.638c-1.357,0.521-2.557,1.274-3.612,2.29c-0.49,0-0.989,0-1.482,0
		c-0.163,0.244-0.478,0.349-0.518,0.632c0.123,1.087,1.102,1.626,1.45,2.442c-0.281,0.642-0.963,0.752-1.338,1.229
		c-0.602-0.089-1.13,0.383-1.64,0.222c-0.461,0.215-0.831,0.41-1.049,0.763c0,0.23,0,0.443,0,0.646
		c0.087,0.087,0.152,0.181,0.242,0.237c1.089,0.684,1.381,1.445,1.058,2.616c-0.063,0.229-0.265,0.375-0.252,0.664
		c0.015,0.331-0.32,0.629-0.583,0.653c-0.386,0.036-0.683,0.303-1.097,0.264c-0.678-0.063-1.366-0.017-2.05-0.017
		c-0.327-0.192-0.487-0.565-0.907-0.684c-0.907-0.256-1.644-0.883-2.525-1.289c-0.974,0.712-2.076,1.299-2.384,2.65
		c-0.562-0.151-1.181,0.24-1.652-0.346c-0.072-0.648,0.174-1.397-0.514-2.015c-0.317,0.091-0.593-0.256-0.959-0.274
		c-0.231,0.105-0.443,0.201-0.65,0.294c-0.093,0.216-0.185,0.43-0.254,0.593c0.24,0.488,0.459,0.934,0.668,1.36
		c-0.293,0.327-0.537,0.503-0.938,0.224c-0.324-0.225-0.715-0.351-1.072-0.519c-0.193,0.078-0.331,0.338-0.563,0.215
		c-0.701-0.368-1.436-0.146-2.098-0.216c-0.684,0.647-0.136,1.115,0.114,1.786c0.049,0.442-0.029,1.01-0.557,1.461
		c-0.444-0.569-1.04-0.753-1.591-0.654c-1.042,0.599-1.32,1.668-2.056,2.373c-0.74,0.708-1.506,1.398-2.059,2.349
		c0.018,0.166-0.08,0.419,0.018,0.582c0.235,0.34,0.582,0.35,0.891,0.596c0.16-0.338,0.661-0.216,0.784-0.594
		c0.107-0.329,0.408-0.616,0.422-0.893c0.026-0.515,0.502-0.498,0.718-0.765c0.436-0.538,0.696-1.182,1.007-1.561
		c0.9-0.418,1.567,0.267,2.164,0.096c0.494-0.494,0.898-0.897,1.334-1.333c-0.069-0.52,0.037-1.046,0.507-1.46
		c0.53-0.225,0.996,0.162,1.638,0.201c0.202,0.247,0.473,0.577,0.704,0.858c0.53,0,0.958,0,1.599,0
		c0.198,0.202,0.494,0.503,0.809,0.823c0.14-0.071,0.349-0.176,0.444-0.225c0.349-0.411,0.37-0.822,0.336-1.25
		C25.621,32.837,26.466,31.948,27.862,32.247z M61.979,31.903c-0.404-0.404-0.661-0.661-0.915-0.915
		c-0.177,0.247-0.55,0.426-0.708,0.832c0.221,0.208,0.421,0.396,0.608,0.573c0.226,0,0.436,0,0.633,0
		C61.848,32.205,62,31.987,61.979,31.903z M26.264,16.844c-0.43,0.017-0.809-0.098-1.013,0.273c0,0.428,0,0.833,0,1.239
		c0.19,0,0.331,0,0.396,0c0.251-0.208,0.463-0.383,0.617-0.51C26.264,17.478,26.264,17.2,26.264,16.844z M41.385,64.816
		c0.018,0.509,0.395,0.621,0.571,0.852c0.894-0.057,0.938-0.102,0.868-0.852C42.375,64.816,41.924,64.816,41.385,64.816z
		 M25.425,19.323c-0.267-0.179-0.372-0.486-0.742-0.553c-0.101,0.101-0.257,0.202-0.333,0.346c-0.103,0.194-0.479-0.02-0.447,0.335
		c0,0.202,0.212,0.255,0.302,0.399c0.239,0,0.478,0,0.694,0C25.072,19.675,25.223,19.525,25.425,19.323z M52.308,23.761
		c-0.101,0.071-0.101,0.143,0,0.214C52.409,23.904,52.409,23.832,52.308,23.761z"/>
	<path fill="currentColor" d="M27.862,32.247c-1.396-0.299-2.241,0.59-3.317,1.027
		c0.033,0.427,0.013,0.838-0.336,1.25c-0.096,0.048-0.304,0.154-0.444,0.225c-0.315-0.32-0.611-0.622-0.809-0.823
		c-0.64,0-1.069,0-1.599,0c-0.231-0.281-0.502-0.611-0.704-0.858c-0.642-0.039-1.108-0.426-1.638-0.201
		c-0.47,0.414-0.576,0.94-0.507,1.46c-0.437,0.436-0.84,0.839-1.334,1.333c-0.597,0.17-1.264-0.514-2.164-0.096
		c-0.311,0.378-0.572,1.022-1.007,1.561c-0.216,0.267-0.692,0.25-0.718,0.765c-0.014,0.276-0.315,0.563-0.422,0.893
		c-0.123,0.378-0.624,0.256-0.784,0.594c-0.309-0.246-0.656-0.256-0.891-0.596c-0.098-0.163,0-0.416-0.018-0.582
		c0.553-0.95,1.318-1.64,2.059-2.349c0.736-0.704,1.014-1.773,2.056-2.373c0.551-0.099,1.147,0.085,1.591,0.654
		c0.528-0.452,0.606-1.02,0.557-1.461c-0.25-0.671-0.798-1.139-0.114-1.786c0.663,0.07,1.397-0.152,2.098,0.216
		c0.232,0.123,0.37-0.138,0.563-0.215c0.357,0.168,0.749,0.294,1.072,0.519c0.401,0.279,0.644,0.104,0.938-0.224
		c-0.209-0.426-0.428-0.872-0.668-1.36c0.07-0.163,0.162-0.376,0.254-0.593c0.208-0.094,0.419-0.189,0.65-0.294
		c0.366,0.018,0.643,0.365,0.959,0.274c0.688,0.617,0.442,1.367,0.514,2.015c0.471,0.586,1.09,0.195,1.652,0.346
		c0.308-1.351,1.41-1.938,2.384-2.65c0.881,0.406,1.618,1.033,2.525,1.289c0.42,0.119,0.58,0.492,0.907,0.683
		c0.684,0,1.372-0.046,2.05,0.017c0.415,0.039,0.711-0.228,1.097-0.264c0.264-0.024,0.599-0.322,0.583-0.653
		c-0.013-0.289,0.189-0.434,0.252-0.664c0.323-1.171,0.031-1.932-1.058-2.616c-0.089-0.056-0.155-0.15-0.242-0.237
		c0-0.202,0-0.415,0-0.646c0.218-0.353,0.588-0.548,1.049-0.763c0.51,0.161,1.038-0.311,1.64-0.222
		c0.375-0.476,1.057-0.586,1.338-1.229c-0.348-0.816-1.327-1.355-1.45-2.442c0.04-0.283,0.354-0.388,0.518-0.632
		c0.493,0,0.992,0,1.482,0c1.056-1.016,2.255-1.769,3.612-2.29c0.026-0.236,0.06-0.522-0.214-0.638
		c-0.65-0.274-0.999-0.879-1.503-1.288c0-0.451,0-0.883,0-1.313c0.612-0.541,0.962-1.306,1.598-1.83
		c0.167-0.139,0.341-0.412,0.322-0.605c-0.051-0.533,0.286-0.898,0.454-1.334c0.286-0.739,0.408-1.51,0.453-2.294
		c0.631-0.729,1.478-0.478,2.242-0.521c0.522,0.49,0.926,1.116,1.738,1.088c0.291,0.412,0.87,0.468,1.157,1.024
		c0,0.277,0,0.662,0,1.045c-0.499,0.532-1.122,0.961-1.311,1.73c-0.03,0.12-0.197,0.204-0.295,0.309
		c-0.731,0.779-0.968,1.415-0.935,2.398c0.253,0.719,0.804,1.077,1.287,1.62c-0.063,1.191-0.497,2.234-1.646,2.878
		c-0.591,0.331-1.155,0.707-1.699,1.097c-0.461,0.331-0.858,0.684-1.472,0.647c-0.106-0.006-0.222,0.154-0.354,0.253
		c0,0.309,0,0.622,0,0.953c0.085,0.085,0.187,0.187,0.291,0.291c1.149,0,2.301,0,3.41,0c0.572,0.329,0.826,0.899,1.168,1.374
		c0.286,0.396,0.509,0.917,0.038,1.426c0.402,0.392,0.093,1.01,0.597,1.447c0.238,0.051,0.535,0.302,0.68,0.592
		c0.332,0.666,0.852,1.208,1.149,1.898c0.145,0.333,0.499,0.577,0.707,0.804c0.354,0.083,0.535-0.113,0.756-0.191
		c1.063-0.376,2.169-0.201,3.257-0.198c0.263,0,0.547,0.249,0.78,0.435c0.279,0.223,0.547,0.478,0.76,0.763
		c0.204,0.275,0.542,0.437,0.773,0.473c0.602,0.092,1.032,0.484,1.564,0.684c0.302-0.097,0.587-0.459,0.927-0.068
		c0.726,0.032,1.407,0.391,2.119,0.274c0.563,0.162,0.889,0.586,1.275,0.958c0,0.303,0,0.617,0,0.918
		c-0.95,0.512-1.904,0.34-2.834,0.059c-0.333-0.101-0.545-0.295-0.934-0.026c-0.242,0.167-0.694,0.031-1.045,0.031
		c-0.916-0.853-2.167-0.859-3.282-1.315c-0.067-0.367-0.401-0.574-0.634-0.838c-0.629,0.1-0.628,0.101-0.773,0.755
		c0.19,0.133,0.423,0.295,0.741,0.518c0.542-0.158,0.997,0.546,1.612,0.533c0.405,0.365,0.484,0.787,0.479,1.259
		c-0.015,1.112-0.005,2.225-0.005,3.275c-0.251,0.46-0.631,0.354-0.975,0.354c-0.181-0.179-0.36-0.355-0.549-0.543
		c0.101-0.68-0.144-1.389,0.214-2.069c0.214-0.406-0.369-0.745-0.185-1.161c-0.271-0.189-0.629-0.189-0.748-0.084
		c-0.293,0.257-0.624,0.264-0.891,0.163c-0.342-0.131-0.725-0.317-0.901-0.671c-0.207-0.415-0.332-0.87-0.504-1.302
		c-0.116-0.291,0.283-0.401,0.212-0.691c-0.082-0.087-0.18-0.189-0.293-0.31c-0.412,0-0.839,0-1.341,0
		c-0.571,0.523-0.915,1.338-1.565,1.777c-0.12,0.62-0.278,1.064-0.872,1.342c-0.667,0.312-1.012-0.19-1.459-0.276
		c-0.143-0.46-0.09-0.773,0.133-1.08c0.548-0.756,0.769-1.605,0.627-2.529c-0.776-1.284-1.463-2.667-2.94-3.213
		c-0.353-0.226-0.259-0.618-0.525-0.758c0.13-0.796,0.879-1.334,0.66-2.153c-1.074-0.05-1.074-0.05-1.801,0.378
		c-1.81,0.028-1.81,0.028-2.45,0.513c-0.261,1.053,0.265,2.035,0.157,3.076c-0.343,0.337-0.701,0.69-1.06,1.043
		c0,0.222,0,0.436,0,0.691c0.191,0.164,0.409,0.35,0.613,0.524c0,0.332,0,0.613,0,1.002c-0.142,0.116-0.358,0.293-0.632,0.517
		c-0.808,0.065-1.577-0.745-2.61-0.347c-0.43,0.532-0.058,1.245-0.218,1.925c-0.154,0.202-0.158,0.542-0.38,0.667
		c-0.097,0.373,0.458,0.383,0.131,0.747c0.625,0,1.124,0,1.661,0c0.406,0.391,0.807,0.77,1.43,0.924
		c0.47,0.117,0.885,0.567,1.069,1.086c0.174,0.485,0.534,0.807,0.879,1.148c0.48,0.478,0.866,1.048,1.435,1.441
		c0.474,0.328,0.607,0.899,0.937,1.426c-0.206,0.81,0.268,1.51,0.77,2.188c-0.404,0.405-0.725,0.725-1.141,1.142
		c0.554,0.158,0.809,0.529,1.13,0.819c0.572-0.029,1.07,0.171,1.538,0.429c0.194,0.327-0.104,0.767,0.261,0.973
		c-0.391,1.956-0.441,3.889,0.069,5.859c0.998,1.027,1.185,1.587,0.826,2.558c-0.204,0.11-0.408,0.221-0.649,0.352
		c-0.773-0.369-0.793-1.294-1.303-1.862c-0.542-0.604-0.454-1.403-0.624-2.115c-0.18-0.752-0.501-1.533-0.015-2.298
		c-0.22-0.611-0.598-1.072-1.198-1.271c-0.308-0.723,0.202-1.542-0.375-2.198c-0.813,0.039-1.59-0.04-2.297-0.479
		c0-0.517,0-1.016,0-1.536c0.379-0.429,0.589-1.061,1.199-1.221c0.183-0.356,0.019-0.584-0.139-0.813
		c-0.031-0.288,0.448-0.433,0.176-0.78c-0.311-0.598-1.062-0.761-1.44-1.31c-0.361-0.525-0.77-0.994-1.223-1.409
		c-0.158,0-0.3,0-0.435,0c-0.159,0.151-0.079,0.432-0.313,0.528c0.206,0.42,0.206,0.42,0.202,1.093
		c-0.466,0.464-0.885,0.993-1.577,1.158c-0.386,0-0.771,0-1.122,0c-0.407-0.262-0.332-0.623-0.292-0.975
		c0.257-0.297,0.592-0.451,1.049-0.563c-0.087-0.779,0.157-1.474,0.89-1.988c-0.601-0.64-1.354-0.184-1.978-0.369
		c-0.909-0.272-1.531-0.931-2.138-1.598c0-0.591-0.208-1.129-0.388-1.678c-0.176-0.54,0.415-1.039,0.099-1.632
		c-0.29,0-0.604,0-0.933,0c-0.433,0.596-1.263,0.552-1.814,1.089c-0.486,0.474-1.121,0.816-1.504,1.414
		c-0.38,0.594-0.877,1.12-1.088,1.815c-0.105,0.32,0.294,0.469,0.256,0.775c0.592,0.157,1.16,0.051,1.759-0.226
		c0.183,0.236,0.354,0.458,0.575,0.744c0,0.096,0,0.31,0,0.565c-0.421,0.407-0.859,0.831-1.282,1.239c0,0.237,0,0.451,0,0.662
		c0.816,0.33,0.607,1.044,0.651,1.775c0.863,0.406,1.429,1.292,2.331,1.954c0,0.243,0,0.63,0,1.028
		c-0.188,0.394-0.668,0.437-0.898,0.275c-0.385-0.271-0.751-0.128-1.116-0.188c-0.249,0.21-0.006,0.489-0.172,0.735
		c0.194,0.147,0.364,0.276,0.491,0.372c0,0.438,0,0.798,0,1.167c0.829,0.752,1.482,1.658,2.129,2.576
		c-0.32,0.226-0.037,0.77-0.557,0.984c-0.355-0.088-0.834,0.192-1.26-0.217c-0.359,0.478-0.867,0.943-0.918,1.52
		c-0.055,0.621-0.421,1.202-0.233,1.838c0.298,0.385,0.639,0.739,0.95,1.105c0.31,0.366,0.722,0.667,1.045,1.066
		c0.162,0.199,0.546,0.351,0.936,0.319c0.68-0.056,1.367-0.016,2.042-0.016c0.394,0.205,0.779,0.406,1.263,0.659
		c0.815-0.222,1.683,0.289,2.6,0.202c0.139-0.014,0.172,0.13,0.262,0.151c0.531,0.127,1.041,0.383,1.612,0.283
		c0.26-0.046,0.469,0.068,0.666,0.217c0.254,0.026,0.377-0.267,0.668-0.231c0.462,0.056,1.046,0.185,1.374-0.029
		c0.382-0.25,0.79-0.109,1.174-0.341c0.354-0.213,0.883,0.173,1.379,0.419c0.196-0.341,0.66-0.139,0.956-0.434
		c0.093-0.093,0.344-0.097,0.493,0.026c0.321,0.264,0.64,0.257,0.954,0.009c0.166-0.131,0.344-0.059,0.513-0.063
		c0.54-0.014,1.08-0.003,1.62-0.006c0.449-0.003,0.877-0.079,1.322-0.181c0.704-0.16,1.388,0.218,2.094,0.436
		c0,0.247,0,0.488,0,0.766c-0.478,0.399-1.07,0.511-1.707,0.494c-1.186-0.032-2.299,0.227-3.321,0.845
		c-0.845,0.512-1.76,0.746-2.748,0.664c-0.236-0.021-0.45-0.001-0.699-0.149c-0.337-0.199-0.752-0.122-1.009,0.308
		c0.075,0.27,0.198,0.484,0.551,0.495c0.466,0.015,0.569,0.327,0.542,0.721c-0.176,0.34-0.557,0.377-0.898,0.619
		c-0.94-1.224-2.463-1.378-3.776-1.962c-0.088,0.088-0.19,0.19-0.264,0.265c0.19,0.475,0.505,0.843,0.961,1.189
		c0.481-0.023,0.8,0.276,1.015,0.859c-0.531,0.062-1.003,0.086-1.467,0.218c-0.549,0.156-1.015-0.297-1.464-0.583
		c-0.669-0.426-0.654-0.448-1.508-0.4c0.244,0.501,0.472,0.969,0.716,1.469c-0.046,0.454-0.302,0.853-0.446,1.267
		c-0.305,0-0.519,0-0.798,0c-0.44-0.677-0.761-1.516-1.638-1.98c-0.218,0.245-0.302,0.564-0.392,0.839
		c-0.476,0.251-0.677-0.104-0.923-0.339c-0.721-0.142-1.3,0.099-1.771,0.64c-0.304,0.351-0.677,0.573-1.137,0.642
		c-0.229,0.019-0.277-0.214-0.47-0.295c0.039-0.896-0.144-1.801,0.409-2.871c-0.738,0.434-1.202,0.743-1.698,0.988
		c-0.509,0.252-1.072,0.26-1.631,0.216c-0.153-0.153-0.305-0.306-0.518-0.518c0.081-0.298-0.183-0.564-0.265-0.918
		c-2.21-0.977-4.58-0.667-7.023-0.725c-0.09-0.135-0.228-0.343-0.366-0.551c-0.316-0.502,0.088-0.889,0.25-1.294
		c1.397-0.44,2.744-0.293,4.078-0.3c0.599-0.003,1.154-0.093,1.669-0.412c0.493-0.306,1.129-0.193,1.628-0.558
		c0-0.335,0-0.691,0-1.067c0.239-0.245,0.481-0.493,0.67-0.687c-0.325-0.328-0.595-0.602-0.954-0.964c-0.407,0-0.98,0-1.545,0
		c-0.085-0.085-0.161-0.161-0.238-0.238c-0.126-1.283,0.146-1.716,1.354-2.125c0.094-0.032,0.202-0.003,0.286-0.098
		c0.142-0.16,0.3-0.305,0.443-0.448c0-0.573-0.08-1.14,0.342-1.609c-0.344-0.277-0.593-0.479-0.77-0.622c0-0.419,0-0.706,0-1.016
		c0.271-0.259,0.556-0.532,0.836-0.8c0.117-0.621-0.252-0.994-0.631-1.355c-0.42-0.4-0.713-0.85-0.629-1.551
		c0.194-0.155,0.444-0.356,0.632-0.508c0-0.611,0-1.113,0-1.626c-0.607-0.142-0.824-0.681-1.1-1.112
		c-0.58-0.207-1.019,0.152-1.495,0.285c-0.445,0.125-0.852,0.427-1.299,0.492c-0.335,0.048-0.566,0.191-0.688,0.42
		c-0.359,0.676-0.973,1.11-1.462,1.667c0.12,0.837-0.663,1.528-0.408,2.389c0.365,0.755,1.225,1.006,1.705,1.774
		c-0.032,0.758-0.784,1.424-0.672,2.116c-0.289,0.288-0.487,0.486-0.626,0.626c-0.215-0.217-0.488-0.489-0.941-0.943
		c-0.167-0.44,0.738-1.182-0.055-1.939c-0.379-0.156-0.863-0.343-1.172-0.856c-0.032-0.216,0.079-0.486-0.136-0.759
		c-0.127-0.161-0.071-0.468-0.087-0.616c-0.302-0.303-0.554-0.554-0.858-0.858c-1.075,0.561-2.44,0.549-3.488,1.453
		c0.174,0.361,0.346,0.721,0.541,1.126c0.755,0.085,0.744,0.822,1.018,1.354c-0.21,0.222-0.178,0.592-0.535,0.803
		c-0.399,0.074-0.86,0.194-1.194,0.585c0,0.139,0,0.281,0,0.424c-0.208,0.112-0.412,0.223-0.622,0.337
		c-0.341-0.004-0.392-0.389-0.64-0.474c-0.181-0.945,0.084-1.69,0.834-2.204c-0.028-0.887-0.743-1.331-1.084-2.117
		c0.019-0.451-0.13-1.062,0.306-1.636c0.198-0.094,0.464-0.233,0.742-0.345c0.473-0.188,0.935-0.401,1.474-0.362
		c0.41,0.03,0.803-0.019,1.215-0.184c0.521-0.208,1.013-0.539,1.619-0.541c0.174-0.001,0.444-0.148,0.505-0.297
		c0.306-0.742,0.915-1.269,1.471-2.021c0.433-0.23,1.186-0.226,1.607-0.837c0.618,0.085,1.147-0.382,1.729-0.198
		c0.41-0.41,0.792-0.792,1.173-1.174c0.114-0.575,0.013-1.097-0.397-1.554c0-0.487,0-0.991,0-1.497c0.79-0.8,1.272-1.401,1.47-2.402
		c0.099-0.5,0.353-0.798,0.674-1.009c0.417-0.274,0.778-0.589,1.115-0.941c0.271-0.282,0.59-0.457,0.974-0.536
		C27.604,32.789,27.719,32.549,27.862,32.247z"/>
	<path fill="currentColor" d="M41.385,64.816c0.539,0,0.989,0,1.439,0c0.069,0.75,0.025,0.795-0.868,0.852
		C41.78,65.437,41.403,65.325,41.385,64.816z"/>
	<path fill="currentColor" d="M52.308,23.761c0.101,0.071,0.101,0.143,0,0.214
		C52.208,23.904,52.208,23.832,52.308,23.761z"/>
</g>
</svg>
