<?xml version="1.0" encoding="iso-8859-1"?>
<!-- Generator: Adobe Illustrator 16.0.0, SVG Export Plug-In . SVG Version: 6.00 Build 0)  -->
<!DOCTYPE svg PUBLIC "-//W3C//DTD SVG 1.1//EN" "http://www.w3.org/Graphics/SVG/1.1/DTD/svg11.dtd">
<svg version="1.1" id="Layer_1" xmlns="http://www.w3.org/2000/svg" xmlns:xlink="http://www.w3.org/1999/xlink" x="0px" y="0px"
	 width="72.36px" height="72.18px" viewBox="0 0 72.36 72.18" style="enable-background:new 0 0 72.36 72.18;" xml:space="preserve"
	>
<g>
	<path fill="currentColor" d="M47.468,45.035c-0.585,0.123-0.778,0.545-1.096,0.776
		c-0.042,0.266,0.075,0.517-0.086,0.749c-0.241,0.351-0.226,0.748-0.025,1.083c0.169,0.282,0.176,0.605,0.085,0.813
		c-0.328,0.756-0.154,1.53-0.188,2.295c-0.031,0.718-0.071,1.446,0.009,2.157c0.106,0.941,0.247,1.875,0.212,2.827
		c-0.004,0.106,0.146,0.219,0.219,0.321c-0.43,0.597-0.136,1.259-0.245,1.873c-0.333,0.049-0.529,0.309-0.739,0.536
		c-0.431,0.468-0.913,0.803-1.563,0.93c-0.419,0.082-0.791,0.388-1.249,0.36c-0.304-0.019-0.604,0.184-0.712,0.329
		c-0.509,0.69-1.299,0.75-1.999,0.938c-0.397,0.107-0.761,0.23-1.135,0.401c-0.481,0.221-1.004,0.371-1.524,0.483
		c-0.592,0.129-1.134-0.352-1.743-0.206c-0.375-0.354-0.981-0.353-1.262-0.848c-0.369,0-0.724,0-1.084,0
		c-0.415-0.383-0.837-0.7-1.455-0.677c-0.487,0.019-2.194-0.732-2.688-1.058c-0.501-0.33-0.978-0.681-1.396-1.242
		c-0.07-0.66-0.018-1.418-0.184-2.182c-0.131-0.606-0.134-1.291,0.137-1.967c0.226-0.563-0.136-1.198-0.33-1.778
		c-0.071-0.212-0.076-0.379,0.004-0.59c0.174-0.459,0.258-1.079,0.136-1.486c-0.313-1.039-0.171-2.1-0.21-3.156
		c-0.599-0.653-1.032-1.525-2.151-1.633c0.017,0.489,0.268,0.837,0.601,1.122c0.357,0.305,0.354,0.812,0.69,1.138
		c0,0.669,0.039,1.354-0.007,2.034c-0.142,2.103,0.295,4.182,0.223,6.28c0.368,0.993,0.167,2.026,0.216,3.042
		c0.005,0.105-0.005,0.215,0.019,0.316c0.24,0.999,0.242,0.998-0.063,1.758c-0.158,0.181-0.388-0.001-0.592,0.135
		c-0.4,0.267-0.861,0.195-1.299,0.043c-1.353-0.469-2.705-0.941-4.058-1.411c-0.447-0.155-0.731-0.62-1.249-0.649
		c-0.371-0.705-0.728-1.473-0.508-2.251c0.319-1.128,0.17-2.251,0.178-3.373c0.031-3.922,0.012-7.844,0.012-11.765
		c0.128-0.125,0.288-0.23,0.21-0.436c0.082-0.042,0.14-0.097,0.2-0.099c0.417-0.019,0.837-0.028,1.205,0.213
		c0.469,0.309,1.026,0.304,1.538,0.459c0.605,0.184,1.127,0.579,1.766,0.697c0.11,0.021,0.215,0.171,0.371,0.139
		c0.44-0.092,0.837,0.074,1.16,0.317c0.285,0.216,0.55,0.006,0.791,0.149c0.205-0.519,0.429-0.887,0.155-1.488
		c-0.244-0.534-0.051-1.268-0.051-1.886c-0.538-0.809-1.04-1.62-1.784-2.2c-0.555-0.433-1.176-0.791-1.779-1.165
		c-1.086-0.673-2.121-1.428-3.277-1.993c-0.334-0.164-0.579-0.521-0.682-0.892c-0.104-0.376-0.125-0.78,0.313-0.986
		c0.643-0.104,1.049,0.383,1.455,0.671c0.888,0.627,1.824,1.158,2.758,1.702c0.208,0.122,0.359,0.338,0.563,0.47
		c0.577,0.373,1.167,0.725,1.93,0.584c0.149-0.285,0.035-0.611,0.077-0.935c-0.404-0.395-0.813-0.794-1.233-1.205
		c-1.29,0.141-2.282-0.538-3.206-1.318c-0.554-0.469-1.117-0.91-1.729-1.302c-0.355-0.228-0.62-0.597-0.959-0.936
		c0.131-0.37-0.318-0.644-0.212-1.065c0.314-0.505,0.943-0.733,1.245-1.279c-0.166-0.326-0.272-0.691-0.608-0.885
		c0-0.881,0-1.745,0-2.588c0.628-0.787,0.667-1.848,1.305-2.648c-0.174-1.386,0.412-2.515,1.366-3.499
		c0.292-0.301,0.604-0.595,0.563-1.06c-0.021-0.239,0.223-0.323,0.247-0.556c0.018-0.169,0.238-0.366,0.415-0.461
		c0.719-0.386,0.973-1.28,1.693-1.603c0.57-0.255,0.966-0.663,1.376-1.046c1.216-0.288,2.067-1.161,3.101-1.779
		c0.397,0,0.828,0,1.272,0c0.269-0.281,0.541-0.566,0.807-0.845c0.295-0.002,0.583-0.128,0.823,0.095
		c0.187,0.174,0.456,0.156,0.6,0.081c0.711-0.372,1.46-0.135,2.187-0.196c0.322-0.027,0.648,0.012,0.971-0.008
		c0.621-0.039,1.232,0.048,1.865-0.182c0.621-0.226,1.28,0.131,1.912,0.283c0.518,0.125,1.022,0.267,1.51,0.528
		c0.48,0.259,1.062,0.31,1.614,0.226c0.464,0.436,1.044,0.646,1.558,0.955c0.926,0.556,1.986,0.916,2.729,1.786
		c0.605,0.709,1.303,1.342,1.979,1.989c0.192,0.184,0.408,0.349,0.647,0.498c0.588,0.365,0.965,1.02,1.177,1.644
		c0.238,0.704,0.511,1.336,1.062,1.827c0.216,0.192,0.274,0.472,0.485,0.765c-0.1,0.883,0.112,1.75,0.799,2.489
		c0.32,0.345,0.329,0.823,0.271,1.261c-0.171,0.342-0.335,0.669-0.51,1.019c-0.774,0.333-0.774,0.333-1.209,0.95
		c0.379,0.47,0.917,0.372,1.409,0.383c0.318,0.431,0.36,0.906,0.307,1.425c-0.287,0.284-0.628,0.561-0.892,0.898
		c-0.271,0.348-0.813,0.399-0.962,0.767c-0.178,0.44-0.604,0.512-0.879,0.79c-0.278,0.282-0.615,0.582-0.967,0.765
		c-0.386,0.201-0.645,0.518-0.977,0.735c-0.596,0.313-1.232,0.223-1.893,0.237c-0.251,0.498-0.475,1.043-0.975,1.375
		c0,0.305,0,0.591,0,0.882c0.201,0.265,0.438,0.466,0.798,0.284c0.342-0.172,0.649-0.39,0.906-0.683
		c0.577-0.657,1.284-1.099,2.08-1.485c0.729-0.354,1.442-0.891,1.938-1.523c0.417-0.532,0.85-0.616,1.385-0.568
		c0.59,0.052,1,0.534,1.096,1.172c-0.115,0.198-0.436,0.052-0.518,0.306c-0.834-0.072-1.349,0.45-1.858,0.99
		c-0.118,0.125-0.251,0.263-0.405,0.321c-1.054,0.404-1.773,1.282-2.688,1.866c-0.801,0.512-1.237,1.299-1.872,1.929
		c-0.411,0.409-0.494,1.026-0.867,1.547c0.058,0.892-0.278,1.947,0.823,2.656c0.457,0.078,0.914-0.175,1.379-0.371
		c0.256-0.108,0.162-0.366,0.177-0.598c-0.404-0.201-0.817-0.407-1.249-0.622c-0.082-0.186-0.176-0.398-0.277-0.629
		c0.041-0.424,0.271-0.753,0.577-1.047c0.312-0.299,0.645-0.584,0.911-0.92c0.71-0.895,1.72-1.405,2.614-2.056
		c0.351-0.255,0.597-0.597,0.997-0.856c0.499-0.076,1.044-0.086,1.603,0.279c0.399,1.135,0.254,2.329,0.082,3.685
		c0.273,0.311,0.113,0.838,0.137,1.285c-0.3,0.412-0.833,0.401-1.051,1.06c0,0.08,0,0.394,0,0.749c0.31,0,0.623,0,0.838,0
		c0.417,0.189,0.398,0.58,0.658,0.81c-0.156,1.146,0.312,2.267,0.225,3.445c-0.084,1.146-0.153,2.323,0.019,3.448
		c0.185,1.202,0.019,2.412,0.218,3.58c0.163,0.952,0.13,1.888,0.181,2.832c0.024,0.443,0.404,0.833,0.169,1.321
		c-0.279,0.674-0.707,1.22-1.549,1.236c-1.146,0.828-2.625,0.769-3.834,1.431c-0.786,0.015-1.445,0.614-2.248,0.505
		c-0.427-0.391-0.503-0.869-0.553-1.414c-0.099-1.072,0.286-2.09,0.244-3.151c-0.04-1.042,0.007-2.087-0.016-3.13
		c-0.011-0.442,0.059-0.873-0.174-1.333c-0.169-0.334-0.068-0.847,0.017-1.259c0.152-0.745,0.125-0.729-0.02-1.683
		c-0.106-0.703-0.028-1.434-0.032-2.151C47.646,45.937,47.351,45.469,47.468,45.035c0.129,0.042,0.201-0.03,0.196-0.18
		c0.104,0.018,0.169-0.03,0.191-0.129c0.004-0.017-0.047-0.067-0.063-0.063c-0.099,0.022-0.146,0.088-0.128,0.192
		C47.514,44.85,47.443,44.922,47.468,45.035z M29.952,52.736c0.33,0.523,1.063,1.179,1.781,1.628
		c0.177,0.11,0.326,0.269,0.475,0.418c0.622,0.621,1.278,1.21,1.673,1.932c0.329,0.069,0.582-0.072,0.811,0.113
		c0.346,0.279,0.843,0.222,1.117,0.087c0.493-0.242,0.963-0.146,1.441-0.173c0.466-0.026,0.936,0.01,1.403-0.01
		c0.762-0.03,1.373-0.509,2.069-0.737c0.104-0.034,0.189-0.178,0.255-0.317c0.38-0.809,1.04-1.394,1.653-2.018
		c0.199-0.203,0.6-0.148,0.666-0.456c0.094-0.429,0.476-0.595,0.663-0.867c0.128-0.47-0.176-0.969,0.245-1.353
		c0.018-0.017,0.002-0.069,0.002-0.105c-0.392-0.58-0.272-1.238-0.164-1.838c0.178-0.98,0.19-1.042-0.013-2.117
		c-0.087-0.461-0.087-0.951,0.074-1.451c0.255-0.792,0.19-1.585-0.505-2.188c-0.105-0.093-0.255-0.136-0.233-0.125
		c0-0.558,0-0.911,0-1.247c0.275-0.249,0.473-0.555,0.825-0.606c0.063-0.432-0.138-0.883,0.288-1.181
		c-0.529-0.476,0.019-1.185-0.548-1.551c0.121-0.135,0.248-0.21,0.251-0.29c0.021-0.682,0.085-1.372-0.004-2.042
		c-0.041-0.315-0.164-0.796-0.591-0.878c-0.767-0.146-1.488-0.541-2.303-0.438c-1.404,0.85-1.404,0.85-1.305,2.013
		c0.013,0.992,0.969,1.18,1.404,1.758c0.111,0.378-0.093,0.574-0.317,0.755c-0.362,0-0.722,0-1.03,0
		c-0.595-0.574-1.506-0.692-1.878-1.478c0-0.144,0.061-0.335-0.01-0.424c-0.416-0.533,0.009-1.251-0.415-1.779
		c-0.052-0.064-0.045-0.235,0.004-0.312c0.351-0.548,0.562-1.218,1.146-1.57c0.438-0.264,0.857-0.542,1.271-0.843
		c0.601-0.437,1.691-0.632,2.166-0.264c0.662,0.512,1.406,0.778,2.162,1.058c0.225-0.213,0.577-0.23,0.784-0.529
		c0-0.285,0-0.598,0-0.83c-0.345-0.632-1.143-0.761-1.292-1.548c0.465-0.402,0.809-1.023,1.649-0.977
		c0.242,0.348,0.64,0.524,1.125,0.681c0-1.074,0-2.105,0-3.055c0.229-0.381,0.596-0.531,0.715-0.903
		c-0.092-0.664-0.735-1.073-0.859-1.689c-0.136-0.674-0.407-1.349-0.24-1.943c-0.223-0.57-0.489-0.986-0.664-1.468
		c-0.292-0.804-0.786-1.469-1.496-2.019c-0.626-0.484-1.377-0.773-1.933-1.36c-0.766-0.808-0.774-0.821-1.79-1.144
		c-1.271-0.404-2.548-0.811-3.917-0.718c-0.466,0.032-0.936,0.015-1.403,0.003c-0.493-0.013-0.915,0.106-1.375,0.338
		c-0.834,0.419-1.713,0.812-2.718,0.754c-0.417,0.706-1.228,0.949-1.722,1.562c-0.286,0.354-0.63,0.651-1.069,0.802
		c-0.396,0.136-0.668,0.372-0.695,0.805c-0.01,0.164-0.085,0.261-0.192,0.354c-0.685,0.602-1.087,1.402-1.534,2.251
		c-0.069,0.741,0.138,1.58-0.085,2.372c-0.216,0.766-0.318,1.582-0.846,2.248c0.807,0.861,0.528,2.038,0.996,3.007
		c0.615,0,1.217,0,1.802,0c0.431,1.06,0.413,1.155-0.326,1.992c0,0.358,0,0.674,0,0.982c0.14,0.095,0.292,0.263,0.361,0.234
		c0.536-0.221,1.136-0.12,1.671-0.401c0.501-0.264,1.021-0.569,1.65-0.457c0.159,0.028,0.232-0.273,0.459-0.199
		c0.177,0.171,0.396,0.251,0.739,0.194c0.17,0.211,0.371,0.461,0.461,0.575c0.54,0.12,0.927,0.199,1.17,0.499
		c0.341,0.42,0.723,0.855,0.898,1.351c0.2,0.567,0.447,1.166,0.312,1.793c-0.333,0.438-0.558,0.938-0.89,1.376
		c-0.333,0.438-1.097,0.414-1.107,1.082c-0.43,0.095-0.785,0.463-1.21,0.159c-0.346-0.614-0.327-0.937,0.15-1.471
		c0.325-0.364,0.722-0.666,0.896-1.247c-0.062-0.224,0.046-0.55-0.106-0.917c-0.323-0.776-0.995-0.863-1.635-1.009
		c-0.374-0.085-0.783-0.016-1.159-0.016c-0.396,0.428-0.875,0.69-1.366,0.937c-0.012,0.065-0.014,0.137-0.039,0.198
		c-0.026,0.062-0.097,0.108-0.11,0.17c-0.101,0.497-0.41,0.908-0.151,1.526c0.208,0.496,0.39,1.109,0.276,1.729
		c-0.07,0.382-0.013,0.786-0.013,1.127c0.335,0.537,0.987,0.625,1.293,1.154c0,0.4,0,0.832,0,1.282
		c-0.36,0.188-0.419,0.604-0.646,0.902c0,0.468,0,0.936,0,1.403c0,0.504,0.024,1.01-0.007,1.512
		c-0.031,0.496,0.353,0.918,0.223,1.423c0.429,0.519,0.162,1.187,0.386,1.782c0.213,0.567,0.046,1.278,0.046,1.926
		C29.952,52.53,29.952,52.638,29.952,52.736z"/>
	<path fill="currentColor" d="M25.843,40.183c0,0.404,0,0.762,0,1.138
		c-0.461,0.162-0.886,0.585-1.415,0.092c-0.096-0.09-0.348-0.002-0.527-0.015c-0.41-0.03-0.792-0.177-1.131-0.388
		c-0.598-0.37-1.137-0.806-1.85-1.01c-0.578-0.165-1.158-0.472-1.526-1.182c0.094-0.834-0.491-1.76-0.163-2.789
		c0.039-0.039,0.115-0.115,0.218-0.218c0.285,0,0.598,0,0.836,0c0.706,0.45,1.35,0.889,2.021,1.282
		c0.66,0.387,1.286,0.795,1.808,1.371C24.668,39.073,25.282,39.629,25.843,40.183z"/>
	<path fill="currentColor" d="M35.465,19.154c0.29,0,0.576,0,0.842,0c1.387,0.711,1.923,2.249,3.14,3.068
		c0,0.331,0,0.616,0,0.947c-0.849,0.61-1.147,1.819-2.417,2.246c-0.748,0.127-1.607-0.092-2.451-0.427
		c-0.091-0.036-0.197,0.005-0.289-0.087c-0.513-0.516-0.905-1.126-1.273-1.741c-0.121-0.202-0.141-0.554,0.089-0.786
		c0.155-0.156,0.047-0.339,0.094-0.522C34.034,21.032,34.579,19.948,35.465,19.154z"/>
	<path fill="currentColor" d="M39.672,44.47c0,0.251,0,0.431,0,0.713
		c-0.655,0.573-1.402,1.149-2.071,1.815c-0.312,0.311-0.833,0.284-1.292,0.221c-0.233-0.251-0.507-0.461-0.615-0.823
		c-0.16-0.537-0.584-0.794-1.127-0.92c-0.166-0.154-0.009-0.492-0.357-0.532c0.289-0.358,0.259-0.811,0.691-0.957
		c0.382-0.13,0.621-0.407,0.728-0.808c0.15-0.563,0.602-0.777,1.231-0.951C37.903,42.781,38.68,43.8,39.672,44.47z"/>
</g>
</svg>
