<svg xmlns="http://www.w3.org/2000/svg" xml:space="preserve" width="72px" height="72px" viewBox="0 0 72 72">
    <path fill="currentColor" d="M23.859 46.385h-.51c-.544.466-.816 1.253-1.565 1.711-.34 0-.771-.029-1.197.01a1.08 1.08 0 0 1-.772-.23c-.734-.547-1.28-1.221-1.309-2.19-.015-.503-.003-1.007-.028-1.493-.239-1.085-1.215-1.645-1.78-2.502-.22-.334-.348-.775-.775-.988-.049-.439.001-.877-.21-1.311-.339-.698-.375-1.462-.014-2.185.281-.561.208-1.19.396-1.776.115-.359.251-.689.454-1.165-.118-.666.212-1.381.5-2.113.214-.542.656-1.076.167-1.707-.07-.09-.033-.285-.005-.423.093-.469-.056-.908-.234-1.309-.269-.606-.132-1.287-.583-2.061-.166-.17-.577-.476-.688-.973-.044-.203-.164-.306-.285-.423-.577-.561-.831-1.173-.306-1.934.248-.072.467-.353.855-.273.814.577 1.584 1.325 2.696 1.528.124.585.461 1.072 1.03 1.249.463.144.621.559.929.736.073.963 1.052 1.516.886 2.501h.79c.304-.309.598-.663.773-1.2.19-.584.294-1.266.828-1.705-.089-.445.383-.292.546-.505.556-.728 1.367-1.226 1.85-2.042.154-.26.523-.508.82-.543.545-.064.899-.478 1.375-.602.537-.14.683-.568.787-.962.12-.457.317-.822.646-1.14.699-.675 1.321-1.434 1.651-2.337.215-.587.725-.768 1.111-.996.702-.415.952-.937.936-1.684-.01-.467-.002-.936-.002-1.403.161-.256.211-.581.475-.775.158-.124.338-.042.508-.053.532.444.475 1.178.838 1.702.304.06.566.012.77-.337 0-.582.04-1.229-.015-1.868-.033-.387.115-.745.31-.947.466-.483.698-1.155 1.355-1.56h.644l.494.495c0 .348.071.75-.012 1.117-.322 1.417-.171 2.106.801 3.129h1.111c.137.525.149 1.089.415 1.482.46.681.802 1.471 1.516 1.963.122.425.168.88.521 1.193.241.214.32.52.406.802.051.167.05.334.202.458.564.456.77 1.055.667 1.744l.334.334c.423 0 .925-.142 1.27.031.597.299 1.261.595 1.627 1.204.099.165.222.2.315.295.362.367.815.639 1.049 1.168.121.277.309.622.579.837.832.663.759 1.019 1.15 2.552.028.021.22.128.366.28.12.125.188.302.182.292.45.068.506-.155.674-.239v-1.045c.462-.918 1.371-1.486 1.732-2.441 1.459-1.102 2.875-2.271 4.636-2.944l.324.297v.86c-.669 1.3-1.297 2.565-2.132 3.787.045.658-.229 1.333-.37 2.035-.147.734-.061 1.488-.039 2.233.329.24.194.594.18.891-.02.401.306.69.277 1.079.739.553.586 1.363.599 2.027l.615 1.194c.24.691-.025 1.436-.232 2.094-.209.665-.018 1.384-.66 2.22-.722.535-1.206 1.725-2.098 2.572-.03.941.13 1.901-.275 2.862l-.892.893h-1.962c-.594-.226-.994-.778-1.498-1.254h-.695c-.029.075-.079.14-.074.199.082 1.073-.341 1.944-1.077 2.685-.375.378-.63.777-.68 1.348-.032.375-.211.827-.479 1.076-.727.675-1.043 1.609-1.623 2.373-.207.272-.413.561-.657.792-.86.817-1.537 1.737-2.004 2.845-.174.414-.358.87-.714 1.229-.148.149-.32.414-.337.714-.058.98-.684 1.638-1.515 1.916-1.147.383-2.26.979-3.564.806-.777-.103-1.58-.019-2.318-.019-.69-.373-1.319-.768-1.994-1.053-.29-.123-.404-.274-.551-.523-.444-.75-.712-1.596-1.263-2.293-.096-.121-.255-.294-.25-.543.009-.438-.291-.747-.583-1.049-.776-.804-1.294-1.814-2.123-2.586-.274-.255-.405-.689-.607-1.037-.495-.853-1.095-1.631-1.596-2.471-.099-.166-.248-.377-.285-.64-.063-.457-.311-.877-.583-1.263-.302-.428-.478-.893-.477-1.424.004-.446.115-.923-.471-1.301m-4.835-13.168c-.241.629-.025 1.174-.208 1.757-.326 1.039-.649 2.098-.554 3.237.042.492.248.924.289 1.399.305.306.56.766.925.884.872.283 1.31 1.027 1.975 1.564.136-.076.333.081.494-.103v-.497c-.906-.502-1.009-1.748-1.899-2.286-.23-1.049.755-1.448 1.051-2.316.006-.465-.097-1.07.366-1.564.077-.082.059-.264.062-.4.007-.393.003-.786.003-1.219-.764-.494-.208-1.369-.554-2.003-.393-.72.271-1.401.093-2.104-.8-.101-1.139-.889-1.826-1.097l-.359.343c.419.425.428 1.066.214 1.457-.359.656.036 1.025.278 1.71.05.354.015.894-.35 1.238m33.392-3.105c0 .308-.055.678.011 1.024.187.982.112.97.021 1.981-.066.727-.389 1.418-.258 2.172.06.345.01.709.01 1.048.733.685 1.454 1.343 1.729 2.329-.072.113-.136.233-.218.34-.32.412-.457.941-1.031 1.188-.622.268-.508 1.072-.887 1.563-.146.19-.388.511-.218.852.016.03.05.052.071.073.914-.744 1.539-1.832 2.669-2.245.16-.503.622-.708.889-1.095.122-.329-.153-.755.218-1.077.072-.063.077-.326.009-.407-.407-.477-.103-1.031-.238-1.583-.357-.136-.372-.584-.62-.874.041-.935-.169-1.827-.372-2.741-.188-.847-.197-1.79.031-2.646.128-.481.124-.883.041-1.469l-1.105 1.197c-.287-.039-.522-.003-.752.37M38.463 54.846c.596-.19 1.285-.209 1.62-.834v-1.054l-1.357-1.378c-.957-.226-1.719.598-2.644.377-1.155-.659-1.268-.626-2.641.751-.158.543.172.953.269 1.414.282-.093.372.275.657.247.714-.069 1.147.37 1.392.963.101.245.261.465.318.732h.753l.103-.358c.445-.159.615.229.909.159.306-.25.403-.615.621-1.019m8.351-14.795c-.186-.236-.38-.472-.6-.592-.849.206-1.493.832-2.362.629-.664 1.001-2.011.942-2.657 1.868v.6l.519.572h1.317c.07 0 .167-.025.208.011.38.333.723.258 1.124 0 .352-.226.877-.217.942-.784.549-.399.729-1.111 1.291-1.486-.128-.335.121-.541.218-.818m-17.782 3.077c.485-.173.923.251 1.462.25.54 0 .977-.421 1.498-.238l.551-.551v-.412l-2.601-1.759c-.185-.124-2.613-.912-2.921-.948l-.332.656c.634 1.084 1.262 2.189 2.343 3.002m11.846-17.269c-.487.243-.62.807-.959 1.2-.146.169-.279.514-.304.849-.014.172-.069.483-.196.655-.352.475-.906.779-1.155 1.361-.027.064-.313.085-.42.244-.326 0-.65.018-.972-.004-.458-.031-.905-.148-1.076-.632-.093-.263-.287-.407-.464-.56-.895-.768-1.519-1.778-2.363-2.587-.233-.223-.393-.533-.397-.798-.007-.412-.222-.7-.329-.953-.485-.312-.94-.4-1.415-.223-.093.594.405.938.479 1.311.465.332 1.003.524 1.202.898.352.662 1.041.98 1.392 1.582a5.1 5.1 0 0 0 1.409 1.555c.611.439 1.1.985 1.639 1.462h.923c.633-.708 1.22-1.406 1.851-2.061.651-.674 1.05-1.516 1.583-2.268.141-.198.35-.428.313-.73-.013-.102.03-.218-.107-.3zm-3.044 22.504c.471-.177.648-.435.493-.876-.218-.034-.422-.121-.596.063.018.239-.061.485.103.813m6.1-24.952c-.164.25-.379.26-.555.347-.029.195-.114.398.085.591.473-.066.594-.36.47-.938M35.685 48.09c.289-.384.04-.621-.229-.854l-.366.365c.458-.066.065.519.595.489"/>
</svg>
