<?xml version="1.0" encoding="utf-8"?>
<!-- Generator: Adobe Illustrator 16.0.0, SVG Export Plug-In . SVG Version: 6.00 Build 0)  -->
<!DOCTYPE svg PUBLIC "-//W3C//DTD SVG 1.1//EN" "http://www.w3.org/Graphics/SVG/1.1/DTD/svg11.dtd">
<svg version="1.1" id="Layer_1" xmlns="http://www.w3.org/2000/svg" xmlns:xlink="http://www.w3.org/1999/xlink" x="0px" y="0px"
	 width="72px" height="71.998px" viewBox="0 0 72 71.998" enable-background="new 0 0 72 71.998" xml:space="preserve">
<g>
	<path fill="currentColor" d="M58.242,14.27c0,1.299,0.104,2.42-0.021,3.516c-0.325,2.894-0.783,5.772-1.121,8.665c-0.273,2.343-0.387,4.706-0.68,7.046
		c-0.596,4.761-1.629,9.5-1.813,14.273c-0.247,6.451-4.285,10.308-8.672,13.912c-2.73,2.244-5.945,3.896-8.934,5.828
		c-2.398,1.553-4.521,0.08-6.432-0.906c-2.339-1.207-4.351-3.041-6.532-4.564c-2.701-1.887-4.499-4.48-5.88-7.402
		c-0.699-1.479-1.5-2.947-1.924-4.511c-0.469-1.728-0.534-3.562-0.827-5.34c-0.263-1.597-0.718-3.17-0.872-4.774
		c-0.298-3.107-0.401-6.235-0.667-9.347c-0.226-2.632-0.565-5.255-0.861-7.882c-0.306-2.716-0.651-5.429-0.91-8.15
		c-0.069-0.728,0.129-1.384,1.193-1.226c3.578,0.531,6.988-0.146,10.33-1.445c2.876-1.118,5.728-2.54,8.722-3.042
		c2.664-0.446,5.568-0.732,8.265,0.479c2.809,1.261,5.596,2.595,8.479,3.661c1.726,0.637,3.604,0.914,5.439,1.178
		C55.73,14.41,56.977,14.27,58.242,14.27z M32.663,34.907c-0.109,0.166-0.219,0.332-0.329,0.498
		c-0.436-0.086-0.92-0.079-1.301-0.273c-2.31-1.178-4.614-2.369-6.883-3.623c-1.479-0.818-1.982-2.3-1.659-4.136
		c0.053-0.302-0.237-0.881-0.489-0.963c-0.293-0.096-0.912,0.104-1.058,0.363c-1.165,2.058,0.335,6.649,2.857,7.23
		c0.85,0.196,1.622,0.733,2.427,1.12c1.05,0.505,2.066,1.104,3.153,1.508c2.281,0.851,3.286,2.759,2.029,4.927
		c-0.702-0.932-1.211-1.799-1.906-2.476c-0.683-0.665-1.554-1.138-2.343-1.692c0.059,0.756,0.116,1.512,0.178,2.269
		c0.004,0.048,0.059,0.09,0.079,0.14c0.344,0.844-0.082,1.104-0.834,1.053c-2.079-0.138-3.207-0.804-3.444-2.809
		c-0.2-1.689,0.021-2.965-2.311-3.349c-1.407-0.231-2.54-0.217-2.656,1.394c-0.133,1.855-0.067,3.611,1.578,4.991
		c0.744,0.625,1.234,1.624,1.661,2.537c0.392,0.841,0.809,0.985,1.633,0.639c0.824-0.346,1.711-0.739,2.576-0.753
		c1.918-0.032,3.852,0.068,5.754,0.313c0.611,0.078,1.483,0.668,1.655,1.207c1.116,3.498,0.067,6.914-0.801,10.273
		c-0.143,0.555-1.379,0.99-2.178,1.164c-0.872,0.188-1.828-0.066-2.738,0.004c-1.417,0.11-1.979,1.286-1.292,2.479
		c0.453,0.785,0.694,1.729,1.269,2.396c0.771,0.895,1.685,1.764,2.718,2.289c0.438,0.225,1.33-0.461,2.023-0.712
		c0.414-0.149,0.842-0.258,1.366-0.416c-0.023,0.384-0.009,0.543-0.046,0.688c-0.216,0.854-0.794,1.867,0.5,2.285
		c1.229,0.397,2.393,0.264,2.727-1.328c0.256-1.213,0.94-1.01,1.81-0.677c0.55,0.212,1.485,0.474,1.743,0.212
		c1.158-1.169,2.396-2.387,3.109-3.83c0.909-1.838-0.181-3.156-2.223-3.119c-3.359,0.06-4.46-1.125-4.432-4.535
		c0.015-1.492-0.109-3.008-0.371-4.479c-0.453-2.564,1.107-4.257,3.685-3.934c2.543,0.318,5.178-0.209,7.646,0.863
		c0.311,0.137,0.73,0.02,1.013,0.02c0.823-1.669,1.489-3.27,2.378-4.734c0.855-1.418,0.714-2.771,0.176-4.173
		c-0.519-1.351-1.494-0.619-2.355-0.478c-0.659,0.109-1.766-0.088-1.914,0.218c-0.317,0.656-0.305,1.587-0.127,2.335
		c0.189,0.799,0.723,1.527-0.342,2.057c-1.135,0.563-2.232,1.615-3.602,0.43c0.045-0.291,0.169-0.543,0.096-0.705
		c-0.316-0.704-0.691-1.383-1.047-2.069c-0.427,0.535-0.896,1.041-1.268,1.613c-0.344,0.53-0.471,1.243-0.903,1.657
		c-0.282,0.272-1.019,0.33-1.403,0.156c-0.312-0.139-0.672-0.91-0.543-1.152c0.473-0.885,0.967-1.977,1.77-2.422
		c1.934-1.079,4.048-1.832,6.085-2.729c0.481-0.212,0.971-0.433,1.411-0.719c1.594-1.035,2.857-2.272,2.72-4.406
		c-0.047-0.711,0.226-2.025,0.093-2.06c-1.355-0.351-1.068,0.994-1.408,1.638c-0.717,1.352-1.44,2.573-2.996,3.167
		c-2.254,0.862-4.447,1.881-6.683,2.799c-0.296,0.122-0.673,0.044-1.013,0.06c-0.051-0.143-0.102-0.286-0.15-0.43
		c0.545-0.481,1.024-1.075,1.645-1.423c2.14-1.204,4.34-2.299,6.49-3.482c0.787-0.433,1.604-0.936,1.271-2.197
		c-1.479,0.224-3.058,0.139-4.302,0.741c-1.283,0.619-2.243,1.908-3.521,3.065c-0.363-2.326,1.268-4.923,3.038-5.619
		c0.509-0.2,1.205-0.812,1.195-1.221c-0.011-0.497-0.58-1.181-1.082-1.422c-0.789-0.381-1.724-0.46-2.606-0.669
		c-0.099,2.081-2.091,5.785-3.319,6.001c0-2.374,0-4.742,0-6.779c-1.487-0.656-2.58-1.137-3.672-1.619
		c-0.103,0.107-0.206,0.214-0.309,0.322c1.584,2.368,2.855,4.767,0.675,7.574c-0.905-2.164-1.811-4.329-2.817-6.733
		c-0.274,0.167-0.85,0.398-1.265,0.797c-0.8,0.768-1.508,1.63-2.448,2.667c0.116,0.165,0.466,0.662,0.811,1.151
		c0.603-0.343,1.085-0.618,1.478-0.842c0.833,1.463,1.64,2.758,2.303,4.123c0.208,0.429,0.028,1.047,0.026,1.578
		c-0.439-0.233-0.956-0.386-1.301-0.717c-0.656-0.63-1.214-1.362-1.813-2.051c-0.037,0.109-0.073,0.218-0.109,0.327
		c-1.307-0.331-2.614-0.662-4.378-1.108c0.469,0.886,0.613,1.6,1.044,1.897c2.015,1.389,4.134,2.626,6.16,3.999
		C31.451,33.571,32.021,34.292,32.663,34.907z M25.875,14.317c0.912,0.842,1.478,1.364,2.043,1.886
		c0.529-0.58,1.492-1.179,1.466-1.732c-0.026-0.556-0.965-1.274-1.646-1.507C27.397,12.847,26.742,13.657,25.875,14.317z
		 M53.346,24.918c0.805-0.849,1.262-1.332,1.72-1.815c-0.693-0.559-1.33-1.259-2.121-1.591c-0.232-0.098-1.373,0.997-1.279,1.28
		C51.889,23.486,52.589,24.025,53.346,24.918z M51.591,17.51c-1.018-0.729-1.61-1.483-2.098-1.421
		c-0.637,0.082-1.189,0.81-1.777,1.26c0.533,0.59,0.992,1.526,1.623,1.66C49.841,19.117,50.552,18.245,51.591,17.51z M37.115,13.509
		c0.01-0.219,0.02-0.438,0.029-0.657c-0.581-0.392-1.177-1.109-1.74-1.085c-0.581,0.026-1.129,0.774-1.691,1.206
		c0.455,0.539,0.882,1.482,1.373,1.516C35.736,14.533,36.436,13.869,37.115,13.509z M43.067,12.824
		c-0.217,0.015-0.435,0.031-0.649,0.046c-0.295,0.692-0.806,1.384-0.808,2.078c-0.001,0.418,0.784,0.839,1.218,1.259
		c0.563-0.604,1.352-1.132,1.586-1.844C44.522,14.034,43.548,13.348,43.067,12.824z M22.337,19.04
		c0.738-0.724,1.554-1.371,1.486-1.482c-0.436-0.718-1.064-1.32-1.63-1.959c-0.498,0.451-1.461,0.996-1.393,1.333
		C20.936,17.597,21.64,18.148,22.337,19.04z M19.11,22.187c-0.988-0.723-1.526-1.372-2.154-1.477
		c-0.348-0.058-1.289,0.989-1.195,1.2c0.274,0.621,0.854,1.265,1.469,1.51C17.54,23.543,18.186,22.822,19.11,22.187z"/>
	<path fill="currentColor" d="M29.74,61.582c-0.513-0.905-1.007-1.776-1.501-2.649c0.545-0.123,1.084-0.314,1.635-0.353
		c0.66-0.046,1.33,0.026,1.995,0.073c0.406,0.027,0.809,0.101,1.213,0.152c-0.226,0.357-0.376,0.813-0.691,1.053
		C31.664,60.416,30.857,60.868,29.74,61.582z"/>
	<path fill="currentColor" d="M21.93,40.459c-1.633-0.612-2.107-1.659-1.633-3.608C21.963,37.521,22.331,38.335,21.93,40.459z"/>
	<path fill="currentColor" d="M41.565,59.79c-0.921,0.797-1.649,1.429-2.38,2.061c-0.201-0.268-0.632-0.675-0.568-0.776
		c0.504-0.816,1.104-1.575,1.672-2.353C40.628,59.006,40.968,59.291,41.565,59.79z"/>
	<path fill="currentColor" d="M48.355,37.595c1.643,2.063,1.434,2.799-0.564,2.922C47.988,39.497,48.171,38.546,48.355,37.595z"/>
</g>
</svg>
