<svg xmlns="http://www.w3.org/2000/svg" xml:space="preserve" width="72px" height="72px" viewBox="0 0 72 72">
    <g fill="currentColor">
        <path d="M47.668 2.285c1.555-.106 2.274.548 2.528 1.848.659 3.362 1.333 6.721 1.995 10.082.041.209.03.43.041.646q.292 5.68.594 11.357c.011.2.092.396.214.896.229-.501.433-.744.443-.995.168-3.807.284-7.616.487-11.421.036-.701.404-1.385.618-2.071 2.236.714 2.018 2.583 2.29 3.862.641 2.992.818 6.085 1.147 9.141.305 2.833.563 5.67 1 8.545.237-1.948.438-3.903.723-5.847.272-1.865-.776-3.959.806-5.632 2.162.642 2.501 2.486 2.653 4.063.393 4.028.734 8.098.587 12.132-.114 3.173-.82 6.357-1.578 9.463-.607 2.495-1.603 4.91-2.593 7.291-.371.894-1.127 1.688-1.864 2.353-1.415 1.277-2.864 2.55-4.448 3.601-1.445.959-2.583.407-3.588-.961-.694-.946-1.654-2.004-2.697-2.297-.874-.244-2.024.604-3.079.861-1.381.335-2.789.803-4.183.793-3.532-.024-7.067-.234-10.593-.492-.793-.058-1.604-.525-2.31-.962-1.146-.707-2.115-.493-3.026.344-.715.657-1.385 1.363-2.076 2.048-1.042 1.033-2.152 1.042-3.295.19-2.673-1.99-5.373-4.02-6.666-7.217-.858-2.124-1.392-4.387-1.984-6.61-1.481-5.551-.717-11.227-.854-16.85-.041-1.653.007-3.373.43-4.95.295-1.104 1.139-2.199 2.025-2.965.847-.73 1.353.184 1.419.959.103 1.18-.022 2.378.038 3.564.132 2.564.317 5.127.493 7.689.012.176.131.344.201.517l.423-.031c0-.65.016-1.302-.002-1.951-.17-6.085.284-12.094 2.134-17.941.142-.444-.145-1.101.09-1.421.375-.512 1.022-.825 1.556-1.223.287.409.804.808.822 1.229.09 1.996-.045 4.002.064 5.997a75 75 0 0 0 .882 7.975c.086-.296.242-.591.247-.888.026-1.459-.121-2.934.04-4.375.446-3.995.988-7.979 1.545-11.962.286-2.04.721-4.059 1.026-6.097.254-1.695 1.066-2.385 3.187-2.19-.186 2.085-.396 4.183-.549 6.282-.075 1.021-.111 2.051-.043 3.069.074 1.1.36 2.186.43 3.285.213 3.364.22 6.75.59 10.096.282 2.546.963 5.053 1.533 7.563.673 2.963 1.416 5.908 2.143 8.857.074.306.188.63.377.871.253.322.598.573.903.854.146-.364.389-.722.426-1.098.364-3.758.667-7.521 1.047-11.277.299-2.947.675-5.89 1.031-8.832.345-2.839.664-5.684 1.107-8.509.076-.483.662-1.134 1.12-1.238.406-.094 1.013.404 1.431.759.25.212.409.641.438.986.186 2.233.247 4.48.502 6.705.231 2.039.682 4.053.991 6.083q.335 2.204.548 4.423c.224 2.326.386 4.658.596 6.986.147 1.639.311 3.277.521 4.91.028.23.357.582.558.588.204.007.527-.304.614-.541.729-2.024 1.479-4.048 2.096-6.107.542-1.812.943-3.665 1.366-5.51.26-1.131.48-2.274.649-3.423.246-1.67.448-3.347.636-5.024.353-3.165.813-6.325.979-9.5.171-3.288.045-6.593.049-9.89z"/>
        <path d="M28.928 68.987c-2.118-.017-4.379.411-5.86-1.715-.31-.443-.7-1.055-.615-1.504.28-1.479.569-3.016 1.224-4.348.57-1.158 1.839-.856 2.856-.427 1.84.777 3.648 1.633 5.479 2.438 1.947.854 2.501 3.637.967 5.136-.266.259-.752.379-1.146.4-.966.057-1.937.02-2.905.02m13.976.001c-.756 0-1.521-.072-2.267.014-1.858.215-2.637-1.104-2.891-2.444-.203-1.075.379-2.196 1.68-2.756 1.611-.69 3.115-1.625 4.691-2.402 3.038-1.502 4.624-.595 4.948 2.821.291 3.055-.491 4.507-4.382 4.764-.589.038-1.185.004-1.779.003"/>
    </g>
</svg>
