<?xml version="1.0" encoding="utf-8"?>
<!-- Generator: Adobe Illustrator 16.0.0, SVG Export Plug-In . SVG Version: 6.00 Build 0)  -->
<!DOCTYPE svg PUBLIC "-//W3C//DTD SVG 1.1//EN" "http://www.w3.org/Graphics/SVG/1.1/DTD/svg11.dtd">
<svg version="1.1" id="Layer_1" xmlns="http://www.w3.org/2000/svg" xmlns:xlink="http://www.w3.org/1999/xlink" x="0px" y="0px"
	 width="71.98px" height="71.98px" viewBox="0 0 71.98 71.98" enable-background="new 0 0 71.98 71.98" xml:space="preserve">
<g>
	<path fill="currentColor" d="M47.668,2.285c1.555-0.106,2.274,0.548,2.528,1.848c0.659,3.362,1.333,6.721,1.995,10.082
		c0.041,0.209,0.03,0.43,0.041,0.646c0.196,3.786,0.392,7.572,0.594,11.357c0.011,0.2,0.092,0.396,0.214,0.896
		c0.229-0.501,0.433-0.744,0.443-0.995c0.168-3.807,0.284-7.616,0.487-11.421c0.036-0.701,0.404-1.385,0.618-2.071
		c2.236,0.714,2.018,2.583,2.29,3.862c0.641,2.992,0.818,6.085,1.147,9.141c0.305,2.833,0.563,5.67,1,8.545
		c0.237-1.948,0.438-3.903,0.723-5.847c0.272-1.865-0.776-3.959,0.806-5.632c2.162,0.642,2.501,2.486,2.653,4.063
		c0.393,4.028,0.734,8.098,0.587,12.132c-0.114,3.173-0.82,6.357-1.578,9.463c-0.607,2.495-1.603,4.91-2.593,7.291
		c-0.371,0.894-1.127,1.688-1.864,2.353c-1.415,1.277-2.864,2.55-4.448,3.601c-1.445,0.959-2.583,0.407-3.588-0.961
		c-0.694-0.946-1.654-2.004-2.697-2.297c-0.874-0.244-2.024,0.604-3.079,0.861c-1.381,0.335-2.789,0.803-4.183,0.793
		c-3.532-0.024-7.067-0.234-10.593-0.492c-0.793-0.058-1.604-0.525-2.31-0.962c-1.146-0.707-2.115-0.493-3.026,0.344
		c-0.715,0.657-1.385,1.363-2.076,2.048c-1.042,1.033-2.152,1.042-3.295,0.19c-2.673-1.99-5.373-4.02-6.666-7.217
		c-0.858-2.124-1.392-4.387-1.984-6.61c-1.481-5.551-0.717-11.227-0.854-16.85c-0.041-1.653,0.007-3.373,0.43-4.95
		c0.295-1.104,1.139-2.199,2.025-2.965c0.847-0.73,1.353,0.184,1.419,0.959c0.103,1.18-0.022,2.378,0.038,3.564
		c0.132,2.564,0.317,5.127,0.493,7.689c0.012,0.176,0.131,0.344,0.201,0.517c0.141-0.011,0.282-0.021,0.423-0.031
		c0-0.65,0.016-1.302-0.002-1.951c-0.17-6.085,0.284-12.094,2.134-17.941c0.142-0.444-0.145-1.101,0.09-1.421
		c0.375-0.512,1.022-0.825,1.556-1.223c0.287,0.409,0.804,0.808,0.822,1.229c0.09,1.996-0.045,4.002,0.064,5.997
		c0.145,2.644,0.443,5.278,0.882,7.975c0.086-0.296,0.242-0.591,0.247-0.888c0.026-1.459-0.121-2.934,0.04-4.375
		c0.446-3.995,0.988-7.979,1.545-11.962c0.286-2.04,0.721-4.059,1.026-6.097c0.254-1.695,1.066-2.385,3.187-2.19
		c-0.186,2.085-0.396,4.183-0.549,6.282c-0.075,1.021-0.111,2.051-0.043,3.069c0.074,1.1,0.36,2.186,0.43,3.285
		c0.213,3.364,0.22,6.75,0.59,10.096c0.282,2.546,0.963,5.053,1.533,7.563c0.673,2.963,1.416,5.908,2.143,8.857
		c0.074,0.306,0.188,0.63,0.377,0.871c0.253,0.322,0.598,0.573,0.903,0.854c0.146-0.364,0.389-0.722,0.426-1.098
		c0.364-3.758,0.667-7.521,1.047-11.277c0.299-2.947,0.675-5.89,1.031-8.832c0.345-2.839,0.664-5.684,1.107-8.509
		c0.076-0.483,0.662-1.134,1.12-1.238c0.406-0.094,1.013,0.404,1.431,0.759c0.25,0.212,0.409,0.641,0.438,0.986
		c0.186,2.233,0.247,4.48,0.502,6.705c0.231,2.039,0.682,4.053,0.991,6.083c0.224,1.469,0.405,2.944,0.548,4.423
		c0.224,2.326,0.386,4.658,0.596,6.986c0.147,1.639,0.311,3.277,0.521,4.91c0.028,0.23,0.357,0.582,0.558,0.588
		c0.204,0.007,0.527-0.304,0.614-0.541c0.729-2.024,1.479-4.048,2.096-6.107c0.542-1.812,0.943-3.665,1.366-5.51
		c0.26-1.131,0.48-2.274,0.649-3.423c0.246-1.67,0.448-3.347,0.636-5.024c0.353-3.165,0.813-6.325,0.979-9.5
		c0.171-3.288,0.045-6.593,0.049-9.89C47.668,3.321,47.668,2.894,47.668,2.285z"/>
	<path fill="currentColor" d="M28.928,68.987c-2.118-0.017-4.379,0.411-5.86-1.715c-0.31-0.443-0.7-1.055-0.615-1.504
		c0.28-1.479,0.569-3.016,1.224-4.348c0.57-1.158,1.839-0.856,2.856-0.427c1.84,0.777,3.648,1.633,5.479,2.438
		c1.947,0.854,2.501,3.637,0.967,5.136c-0.266,0.259-0.752,0.379-1.146,0.4C30.867,69.024,29.896,68.987,28.928,68.987z"/>
	<path fill="currentColor" d="M42.904,68.988c-0.756,0-1.521-0.072-2.267,0.014c-1.858,0.215-2.637-1.104-2.891-2.444
		c-0.203-1.075,0.379-2.196,1.68-2.756c1.611-0.69,3.115-1.625,4.691-2.402c3.038-1.502,4.624-0.595,4.948,2.821
		c0.291,3.055-0.491,4.507-4.382,4.764C44.094,69.023,43.498,68.989,42.904,68.988z"/>
</g>
</svg>
