<svg xmlns="http://www.w3.org/2000/svg" xml:space="preserve" width="72px" height="72px" viewBox="0 0 72 72">
    <path fill="currentColor" d="M21.498 52.298c.843-.743 1.794-1.401 2.486-2.267.392-.491.357-1.323.514-2.002-.577.029-1.185-.047-1.726.109-1.476.424-2.9 1.043-4.392 1.379-.576.129-1.478-.104-1.884-.515-1.307-1.319-2.452-2.799-3.809-4.394 1.255-.566 2.304-.938 3.239-1.5.572-.344.969-.979 1.444-1.481-.648-.254-1.296-.513-1.948-.757-.094-.035-.215-.006-.322.002-4.471.325-4.469.324-5.874-3.861-.379-1.129-.166-1.752 1.207-1.695.735.031 1.499-.12 2.214-.315.35-.096.621-.481.927-.735-.307-.313-.56-.739-.932-.917-1.092-.523-2.262-.886-3.343-1.428-1.076-.54-1.481-1.475-1.281-2.699.084-.519-.029-1.068-.041-1.604-.02-.855.087-1.444 1.26-1.17.83.193 1.74.037 3.158.037-.708-.892-1.044-1.467-1.518-1.884-1.61-1.42-2.047-4.289-.754-5.944.207-.265.925-.343 1.311-.216 1.168.384 1.927-.019 1.472-1.012-1.441-3.143.577-5.105 2.282-7.086 1.358-1.577 3.039-2.876 4.576-4.3l.35.352c-.973 1.498-2.042 2.942-2.902 4.502-3.91 7.088-2.88 16.522 2.388 22.876 2.82 3.401 6.434 5.416 10.413 6.947.419.161 1.375-.201 1.6-.596.41-.718.872-1.865.566-2.432-.524-.976-1.621-1.642-2.593-2.544.396-1.163 5.583-5.609 7.29-5.944l.229 1.724c.629-.213 1.443-.251 1.631-.614.214-.415-.133-1.116-.24-1.714 1.039-.29 2.251-.742 3.503-.928.588-.087 1.253.34 1.94.552-1.539 1.904-2.898 3.467-4.1 5.145-.386.54-.431 1.376-.479 2.087-.032.451.191.93.342 1.383 1.216 3.674 1.96 4 5.363 2.238 12.125-6.277 14.85-21.69 7.053-31.246-.368-.45-.655-.967-.834-1.709.615.375 1.363.633 1.822 1.147 1.998 2.239 3.965 4.513 5.813 6.874.388.494.294 1.415.302 2.14.008.67-.148 1.342-.26 2.229l2.12-.288c.385 1.154.892 2.327 1.151 3.552.229 1.082.045 2.097-1.133 2.763-.474.268-.682 1.006-1.011 1.53.595.271 1.194.774 1.782.761 1.139-.026 1.365.459 1.389 1.45.081 3.686-.031 3.847-3.594 5.172-.484.181-.835.722-1.248 1.096.473.373.91.803 1.428 1.095.305.171.731.131 1.105.168 1.279.127 1.515.776.982 1.87-.302.619-.521 1.279-.807 1.907-.688 1.507-2.084 2.17-3.691 1.841-.814-.166-1.649-.226-2.433-.326-.54 1.504.517 1.781 1.271 2.217.709.408 1.459.742 2.484 1.255-1.482 1.614-2.642 3.112-4.06 4.304-.584.491-1.769.548-2.604.395-1.176-.219-2.265-.875-3.428-1.219-.436-.129-.975.092-1.465.151.072.442.018.969.24 1.313.466.713 1.045 1.362 1.638 1.979.76.791.787 1.308-.347 1.758-2.383.945-4.733 1.972-7.104 2.953-.85.353-1.383.801-.91 1.83 1.432 3.108 3.358 5.854 5.908 8.146.52.467 1.553.691.779 1.676-.87 1.105-2.266 1.223-3.055.32-.528-.604-.975-1.293-1.563-1.826-.303-.275-.834-.297-1.262-.435-.043.427-.11.853-.119 1.279-.004.204.088.416.16.614.688 1.862-.154 2.961-2.135 2.522-.485-.106-.863-1.127-1.108-1.794-.281-.764.286-2.189-1.154-1.938-.508.088-.819 1.449-1.168 2.252-.254.586-.433 1.731-.626 1.729-1.039-.021-2.121-.211-3.066-.623-.2-.088.141-1.342.175-2.063.025-.534-.043-1.074-.07-1.612-.521.278-1.12.473-1.544.858-.466.422-.748 1.041-1.154 1.539-.67.822-2.36.967-2.97.179-.182-.234-.04-.898.169-1.229 1.227-1.937 2.688-3.742 3.751-5.761 2.442-4.636 2.034-5.222-3.039-6.463-2.072-.507-4.015-1.546-6.017-2.345-.028-.251-.069-.507-.11-.766"/>
</svg>
