<?xml version="1.0" encoding="utf-8"?>
<!-- Generator: Adobe Illustrator 16.0.0, SVG Export Plug-In . SVG Version: 6.00 Build 0)  -->
<!DOCTYPE svg PUBLIC "-//W3C//DTD SVG 1.1//EN" "http://www.w3.org/Graphics/SVG/1.1/DTD/svg11.dtd">
<svg version="1.1" id="Layer_1" xmlns="http://www.w3.org/2000/svg" xmlns:xlink="http://www.w3.org/1999/xlink" x="0px" y="0px"
	 width="72px" height="72px" viewBox="0 0 72 72" enable-background="new 0 0 72 72" xml:space="preserve">
<g>
	<path fill="currentColor" d="M21.498,52.298c0.843-0.743,1.794-1.401,2.486-2.267c0.392-0.491,0.357-1.323,0.514-2.002
		c-0.577,0.029-1.185-0.047-1.726,0.109c-1.476,0.424-2.9,1.043-4.392,1.379c-0.576,0.129-1.478-0.104-1.884-0.515
		c-1.307-1.319-2.452-2.799-3.809-4.394c1.255-0.566,2.304-0.938,3.239-1.5c0.572-0.344,0.969-0.979,1.444-1.481
		c-0.648-0.254-1.296-0.513-1.948-0.757c-0.094-0.035-0.215-0.006-0.322,0.002c-4.471,0.325-4.469,0.324-5.874-3.861
		c-0.379-1.129-0.166-1.752,1.207-1.695c0.735,0.031,1.499-0.12,2.214-0.315c0.35-0.096,0.621-0.481,0.927-0.735
		c-0.307-0.313-0.56-0.739-0.932-0.917c-1.092-0.523-2.262-0.886-3.343-1.428c-1.076-0.54-1.481-1.475-1.281-2.699
		c0.084-0.519-0.029-1.068-0.041-1.604c-0.02-0.855,0.087-1.444,1.26-1.17c0.83,0.193,1.74,0.037,3.158,0.037
		c-0.708-0.892-1.044-1.467-1.518-1.884c-1.61-1.42-2.047-4.289-0.754-5.944c0.207-0.265,0.925-0.343,1.311-0.216
		c1.168,0.384,1.927-0.019,1.472-1.012c-1.441-3.143,0.577-5.105,2.282-7.086c1.358-1.577,3.039-2.876,4.576-4.3
		c0.117,0.118,0.233,0.235,0.35,0.352c-0.973,1.498-2.042,2.942-2.902,4.502c-3.91,7.088-2.88,16.522,2.388,22.876
		c2.82,3.401,6.434,5.416,10.413,6.947c0.419,0.161,1.375-0.201,1.6-0.596c0.41-0.718,0.872-1.865,0.566-2.432
		c-0.524-0.976-1.621-1.642-2.593-2.544c0.396-1.163,5.583-5.609,7.29-5.944c0.062,0.464,0.122,0.924,0.229,1.724
		c0.629-0.213,1.443-0.251,1.631-0.614c0.214-0.415-0.133-1.116-0.24-1.714c1.039-0.29,2.251-0.742,3.503-0.928
		c0.588-0.087,1.253,0.34,1.94,0.552c-1.539,1.904-2.898,3.467-4.1,5.145c-0.386,0.54-0.431,1.376-0.479,2.087
		c-0.032,0.451,0.191,0.93,0.342,1.383c1.216,3.674,1.96,4,5.363,2.238c12.125-6.277,14.85-21.69,7.053-31.246
		c-0.368-0.45-0.655-0.967-0.834-1.709c0.615,0.375,1.363,0.633,1.822,1.147c1.998,2.239,3.965,4.513,5.813,6.874
		c0.388,0.494,0.294,1.415,0.302,2.14c0.008,0.67-0.148,1.342-0.26,2.229c0.805-0.109,1.348-0.183,2.12-0.288
		c0.385,1.154,0.892,2.327,1.151,3.552c0.229,1.082,0.045,2.097-1.133,2.763c-0.474,0.268-0.682,1.006-1.011,1.53
		c0.595,0.271,1.194,0.774,1.782,0.761c1.139-0.026,1.365,0.459,1.389,1.45c0.081,3.686-0.031,3.847-3.594,5.172
		c-0.484,0.181-0.835,0.722-1.248,1.096c0.473,0.373,0.91,0.803,1.428,1.095c0.305,0.171,0.731,0.131,1.105,0.168
		c1.279,0.127,1.515,0.776,0.982,1.87c-0.302,0.619-0.521,1.279-0.807,1.907c-0.688,1.507-2.084,2.17-3.691,1.841
		c-0.814-0.166-1.649-0.226-2.433-0.326c-0.54,1.504,0.517,1.781,1.271,2.217c0.709,0.408,1.459,0.742,2.484,1.255
		c-1.482,1.614-2.642,3.112-4.06,4.304c-0.584,0.491-1.769,0.548-2.604,0.395c-1.176-0.219-2.265-0.875-3.428-1.219
		c-0.436-0.129-0.975,0.092-1.465,0.151c0.072,0.442,0.018,0.969,0.24,1.313c0.466,0.713,1.045,1.362,1.638,1.979
		c0.76,0.791,0.787,1.308-0.347,1.758c-2.383,0.945-4.733,1.972-7.104,2.953c-0.85,0.353-1.383,0.801-0.91,1.83
		c1.432,3.108,3.358,5.854,5.908,8.146c0.52,0.467,1.553,0.691,0.779,1.676c-0.87,1.105-2.266,1.223-3.055,0.32
		c-0.528-0.604-0.975-1.293-1.563-1.826c-0.303-0.275-0.834-0.297-1.262-0.435c-0.043,0.427-0.11,0.853-0.119,1.279
		c-0.004,0.204,0.088,0.416,0.16,0.614c0.688,1.862-0.154,2.961-2.135,2.522c-0.485-0.106-0.863-1.127-1.108-1.794
		c-0.281-0.764,0.286-2.189-1.154-1.938c-0.508,0.088-0.819,1.449-1.168,2.252c-0.254,0.586-0.433,1.731-0.626,1.729
		c-1.039-0.021-2.121-0.211-3.066-0.623c-0.2-0.088,0.141-1.342,0.175-2.063c0.025-0.534-0.043-1.074-0.07-1.612
		c-0.521,0.278-1.12,0.473-1.544,0.858c-0.466,0.422-0.748,1.041-1.154,1.539c-0.67,0.822-2.36,0.967-2.97,0.179
		c-0.182-0.234-0.04-0.898,0.169-1.229c1.227-1.937,2.688-3.742,3.751-5.761c2.442-4.636,2.034-5.222-3.039-6.463
		c-2.072-0.507-4.015-1.546-6.017-2.345C21.58,52.813,21.539,52.557,21.498,52.298z"/>
</g>
</svg>
