<?xml version="1.0" encoding="utf-8"?>
<!-- Generator: Adobe Illustrator 16.0.0, SVG Export Plug-In . SVG Version: 6.00 Build 0)  -->
<!DOCTYPE svg PUBLIC "-//W3C//DTD SVG 1.1//EN" "http://www.w3.org/Graphics/SVG/1.1/DTD/svg11.dtd">
<svg version="1.1" id="Layer_1" xmlns="http://www.w3.org/2000/svg" xmlns:xlink="http://www.w3.org/1999/xlink" x="0px" y="0px"
	 width="72px" height="72px" viewBox="0 0 72 72" enable-background="new 0 0 72 72" xml:space="preserve">
<g>
	<path fill="currentColor" d="M32.34,45.043c-5.245,3.688-9.799,7.745-15.394,10.297c2.533-5.582,6.568-10.141,10.26-15.285
		c-7.945-1.09-15.597-2.139-23.248-3.188c-0.002-0.219-0.004-0.435-0.006-0.652c7.51-1.935,15.269-2.387,23.356-3.402
		c-3.83-5.336-7.977-10.07-10.766-15.688c0.124-0.146,0.249-0.291,0.373-0.436c5.074,3.566,10.147,7.132,15.44,10.853
		c1.118-7.876,1.454-15.709,3.46-23.263c0.15-0.003,0.301-0.006,0.452-0.009c0.603,3.851,1.26,7.695,1.793,11.556
		c0.529,3.836,0.938,7.69,1.438,11.88c5.261-3.715,9.866-7.846,15.405-10.542c0.168,0.145,0.334,0.29,0.503,0.435
		c-3.5,4.984-7,9.967-10.609,15.107c7.759,1.059,15.347,2.094,22.937,3.129c-0.008,0.244-0.018,0.489-0.023,0.733
		c-7.445,1.904-15.154,2.259-22.952,3.379c3.648,5.191,7.13,10.146,10.61,15.1c-0.164,0.17-0.328,0.342-0.492,0.512
		c-5.506-2.69-10.119-6.776-15.257-10.504c-1.097,7.99-2.146,15.656-3.197,23.322c-0.209,0.003-0.418,0.007-0.626,0.01
		C33.851,60.88,33.454,53.117,32.34,45.043z M29.015,36.15c-0.03,3.048,3.783,7.179,6.657,7.211
		c3.075,0.035,7.194-3.926,7.161-6.885c-0.034-3-3.989-7.186-6.73-7.122C33.017,29.425,29.044,33.235,29.015,36.15z"/>
	<path fill="currentColor" d="M55.813,18.563c4.127,4.469,6.199,9.488,6.78,15.424c-1.85-0.269-3.532-0.457-5.186-0.795
		c-0.39-0.08-0.796-0.612-0.986-1.03c-1.168-2.572-2.286-5.167-3.394-7.767c-0.146-0.345-0.314-0.863-0.164-1.122
		C53.744,21.754,54.717,20.289,55.813,18.563z"/>
	<path fill="currentColor" d="M18.123,16.486c4.427-4.068,9.476-6.132,15.401-6.821c-0.251,1.908-0.441,3.647-0.745,5.367
		c-0.053,0.302-0.546,0.656-0.9,0.756c-2.855,0.807-5.602,1.835-8.086,3.505c-0.278,0.187-0.875,0.177-1.176,0.002
		C21.143,18.44,19.72,17.497,18.123,16.486z"/>
	<path fill="currentColor" d="M9.267,38.761c1.891,0.267,3.545,0.444,5.17,0.771c0.38,0.075,0.78,0.603,0.964,1.014c1.143,2.544,2.246,5.106,3.312,7.685
		c0.179,0.436,0.321,1.086,0.124,1.438c-0.837,1.494-1.809,2.914-2.804,4.476C12.015,49.788,9.885,44.759,9.267,38.761z"/>
	<path fill="currentColor" d="M53.666,56.215c-4.346,4.161-9.413,6.124-15.329,6.817c0.261-1.97,0.418-3.622,0.738-5.243
		c0.071-0.364,0.663-0.714,1.091-0.907c2.582-1.171,5.178-2.313,7.79-3.413c0.374-0.158,0.959-0.205,1.284-0.021
		C50.68,54.27,52.059,55.195,53.666,56.215z"/>
	<path fill="currentColor" d="M33.543,63.05c-6.009-0.698-11.058-2.721-15.352-6.806c1.638-1.055,3.096-2.038,4.611-2.926
		c0.263-0.153,0.795,0.027,1.15,0.177c2.659,1.121,5.311,2.261,7.949,3.431c0.349,0.155,0.815,0.479,0.872,0.788
		C33.079,59.391,33.273,61.088,33.543,63.05z"/>
	<path fill="currentColor" d="M38.333,9.679c5.949,0.658,11.008,2.694,15.37,6.803c-1.604,1.015-3.102,2.008-4.656,2.906
		c-0.27,0.155-0.804-0.017-1.16-0.169c-2.601-1.113-5.197-2.236-7.768-3.419c-0.447-0.206-1.002-0.661-1.087-1.085
		C38.715,13.145,38.574,11.541,38.333,9.679z"/>
	<path fill="currentColor" d="M9.291,33.957c0.543-5.926,2.693-10.926,6.761-15.348c1.041,1.648,2.021,3.107,2.875,4.635
		c0.164,0.293-0.097,0.885-0.269,1.294c-1.038,2.471-2.161,4.908-3.136,7.403c-0.333,0.853-0.674,1.367-1.653,1.443
		C12.425,33.495,10.991,33.736,9.291,33.957z"/>
	<path fill="currentColor" d="M55.791,54.141c-1.126-1.813-2.137-3.438-2.896-4.662c1.252-3.179,2.396-6.101,3.563-9.016
		c0.127-0.316,0.335-0.802,0.569-0.844c1.777-0.314,3.57-0.539,5.563-0.82C61.936,44.77,59.9,49.764,55.791,54.141z"/>
	<path fill="currentColor" d="M41.775,36.551c-0.051,2.451-3.553,5.721-6.063,5.659c-2.477-0.062-5.656-3.463-5.655-6.052
		c0.001-2.337,3.688-5.81,6.069-5.716C38.65,30.541,41.829,33.978,41.775,36.551z"/>
</g>
</svg>
