<svg xmlns="http://www.w3.org/2000/svg" xml:space="preserve" width="72px" height="72px" viewBox="0 0 72 72">
    <g fill="currentColor">
        <path d="M32.34 45.043c-5.245 3.688-9.799 7.745-15.394 10.297 2.533-5.582 6.568-10.141 10.26-15.285L3.958 36.867l-.006-.652c7.51-1.935 15.269-2.387 23.356-3.402-3.83-5.336-7.977-10.07-10.766-15.688l.373-.436 15.44 10.853c1.118-7.876 1.454-15.709 3.46-23.263l.452-.009c.603 3.851 1.26 7.695 1.793 11.556.529 3.836.938 7.69 1.438 11.88 5.261-3.715 9.866-7.846 15.405-10.542l.503.435-10.609 15.107 22.937 3.129q-.014.366-.023.733c-7.445 1.904-15.154 2.259-22.952 3.379l10.61 15.1-.492.512c-5.506-2.69-10.119-6.776-15.257-10.504-1.097 7.99-2.146 15.656-3.197 23.322l-.626.01c-1.946-7.507-2.343-15.27-3.457-23.344m-3.325-8.893c-.03 3.048 3.783 7.179 6.657 7.211 3.075.035 7.194-3.926 7.161-6.885-.034-3-3.989-7.186-6.73-7.122-3.086.071-7.059 3.881-7.088 6.796"/>
        <path d="M55.813 18.563c4.127 4.469 6.199 9.488 6.78 15.424-1.85-.269-3.532-.457-5.186-.795-.39-.08-.796-.612-.986-1.03a362 362 0 0 1-3.394-7.767c-.146-.345-.314-.863-.164-1.122.881-1.519 1.854-2.984 2.95-4.71m-37.69-2.077c4.427-4.068 9.476-6.132 15.401-6.821-.251 1.908-.441 3.647-.745 5.367-.053.302-.546.656-.9.756-2.855.807-5.602 1.835-8.086 3.505-.278.187-.875.177-1.176.002-1.474-.855-2.897-1.798-4.494-2.809M9.267 38.761c1.891.267 3.545.444 5.17.771.38.075.78.603.964 1.014a276 276 0 0 1 3.312 7.685c.179.436.321 1.086.124 1.438-.837 1.494-1.809 2.914-2.804 4.476-4.018-4.357-6.148-9.386-6.766-15.384m44.399 17.454c-4.346 4.161-9.413 6.124-15.329 6.817.261-1.97.418-3.622.738-5.243.071-.364.663-.714 1.091-.907a313 313 0 0 1 7.79-3.413c.374-.158.959-.205 1.284-.021 1.44.822 2.819 1.747 4.426 2.767M33.543 63.05c-6.009-.698-11.058-2.721-15.352-6.806 1.638-1.055 3.096-2.038 4.611-2.926.263-.153.795.027 1.15.177a469 469 0 0 1 7.949 3.431c.349.155.815.479.872.788.306 1.677.5 3.374.77 5.336m4.79-53.371c5.949.658 11.008 2.694 15.37 6.803-1.604 1.015-3.102 2.008-4.656 2.906-.27.155-.804-.017-1.16-.169-2.601-1.113-5.197-2.236-7.768-3.419-.447-.206-1.002-.661-1.087-1.085-.317-1.57-.458-3.174-.699-5.036M9.291 33.957c.543-5.926 2.693-10.926 6.761-15.348 1.041 1.648 2.021 3.107 2.875 4.635.164.293-.097.885-.269 1.294-1.038 2.471-2.161 4.908-3.136 7.403-.333.853-.674 1.367-1.653 1.443-1.444.111-2.878.352-4.578.573m46.5 20.184c-1.126-1.813-2.137-3.438-2.896-4.662 1.252-3.179 2.396-6.101 3.563-9.016.127-.316.335-.802.569-.844 1.777-.314 3.57-.539 5.563-.82-.654 5.971-2.69 10.965-6.799 15.342m-14.016-17.59c-.051 2.451-3.553 5.721-6.063 5.659-2.477-.062-5.656-3.463-5.655-6.052.001-2.337 3.688-5.81 6.069-5.716 2.524.099 5.703 3.536 5.649 6.109"/>
    </g>
</svg>
