<?xml version="1.0" encoding="utf-8"?>
<!-- Generator: Adobe Illustrator 16.0.0, SVG Export Plug-In . SVG Version: 6.00 Build 0)  -->
<!DOCTYPE svg PUBLIC "-//W3C//DTD SVG 1.1//EN" "http://www.w3.org/Graphics/SVG/1.1/DTD/svg11.dtd">
<svg version="1.1" id="Layer_1" xmlns="http://www.w3.org/2000/svg" xmlns:xlink="http://www.w3.org/1999/xlink" x="0px" y="0px"
	 width="72px" height="72px" viewBox="0 0 72 72" enable-background="new 0 0 72 72" xml:space="preserve">
<g>
	<path fill="currentColor" d="M10.275,31.947c0.091-7.982,2.201-13.512,6.874-17.991c3.824-3.665,8.176-6.157,13.619-6.156
		c4.522,0.001,8.341,1.989,11.904,4.554c5.26,3.786,9.145,8.819,12.28,14.364c1.753,3.1,2.974,6.551,4.063,9.962
		c0.92,2.873,1.836,5.924,1.813,8.887C60.785,51.1,59.594,56.4,54.708,60.05c-3.871,2.892-8.147,4.575-12.974,4.974
		c-6.147,0.509-11.429-1.599-16.181-5.256c-3.76-2.895-7.003-6.363-9.364-10.453c-1.755-3.041-3.099-6.373-4.206-9.717
		C11.003,36.636,10.603,33.482,10.275,31.947z M21.923,21.841c-0.034,3.932,1.061,7.643,2.345,11.235
		c1.687,4.718,4.137,9.072,7.159,13.121c3.054,4.092,6.644,7.615,11.105,9.994s5.086,3.313,6.89-2.381
		c0.08-0.252,0.146-0.513,0.193-0.773c1.078-6.135-0.484-11.865-2.963-17.353c-2.201-4.88-5.356-9.14-9.313-12.814
		c-3.574-3.319-7.66-5.555-12.429-6.544c-1.389-0.289-2.268,0.277-2.52,1.7C22.168,19.287,22.074,20.569,21.923,21.841z"/>
</g>
</svg>
