<svg xmlns="http://www.w3.org/2000/svg" xml:space="preserve" width="72px" height="72px" viewBox="0 0 72 72">
    <g fill="currentColor" fill-rule="evenodd" clip-rule="evenodd">
        <path d="m15.625 69.666 1.701-2.696-4.824.629c1.044-2.102 4.339-3.34 7.468-3.003 2.718.292 5.465.313 7.824.434.729-.946 1.102-1.59 1.623-2.075 1.9-1.77 2.897-5.034 1.909-7.41-2.206-5.302-5.764-9.443-11.017-11.951-.899-.43-1.91-1.073-2.932.023-1.059 1.139-1.713 2.393-1.338 3.937.477 1.961 1.996 3.036 4.027 3.031.3 0 .6.026 1.003.045-1.111 1-3.062 1.147-4.433.193-2.976-2.068-3.022-4.959-1.913-8.046-2.584-.537-6.106 1.662-6.825 4.769-1.569 6.784 1.635 9.812 8.736 9.44-3.72 2.097-8.896-.076-10.397-3.958-2.677-6.921 2.59-13.986 10.02-13.583 6.057.328 10.646 3.338 14.653 7.557.285.301.563.607 1.271.855 0-3.027.025-6.056-.006-9.084-.035-3.282-1.22-6.214-3.015-8.886-.49-.729-1.778-1.799-2.055-1.634-.922.552-2.004 1.52-2.16 2.47-.139.846.801 1.929 1.409 2.808.227.328.86.374 1.699.701-1.464.611-2.287.04-3.035-.638-1.833-1.662-1.735-3.525.388-7.078-1.66-1.197-3.473-1.287-5.301-.644-2.466.868-3.729 2.9-3.818 5.326-.113 3.077 2.015 4.616 5.084 5.325-2.302.683-5.085-.97-5.964-3.24-1.441-3.724.773-8.279 4.54-9.617 3.809-1.353 6.815.137 9.587 2.498 1.012.862 1.844 1.935 3.016 3.186.088-3.208.12-6.179.27-9.146.101-2.007-.091-3.884-1.53-5.428-.532-.57-.882-1.708-1.995-.749-.981.846-1.112 2.168-.246 2.982.375.353.869.578 1.309.862l-.243.462c-.716-.415-1.685-.661-2.099-1.279-1.026-1.533-.433-3.079.529-4.466-1.844-1.405-4.163-1.057-5.467.938-.465.711-.717 1.714-.67 2.562.043.778.461 1.674 1.001 2.247.568.603 1.477.885 2.172 1.429-1.604.2-2.848-.426-3.68-1.756-1.031-1.647-.994-3.389-.066-5.065 1.625-2.938 5.099-3.829 8.093-2.163 2.468 1.373 3.995 3.552 5.226 6.108.878-1.403 1.597-2.766 2.516-3.977 2.448-3.227 6.146-4.183 9.066-2.447 2.895 1.72 3.479 5.885 1.027 7.989-.702.602-1.736.814-2.675.963.949-.852 2.092-1.571 2.796-2.592.79-1.147.488-2.482-.387-3.613-1.594-2.059-3.638-2.456-5.682-1.019 1.003 1.461 1.646 3.065.507 4.701-.389.558-1.212.813-1.837 1.206l-.241-.428c.458-.329.983-.595 1.359-1 .834-.896.66-2.019-.347-2.809-1.079-.847-1.65-.152-2.167.706-.898 1.493-1.508 2.993-1.285 4.856.313 2.617.328 5.27.472 7.906.028.507.064 1.013.118 1.861 1.146-1.316 1.949-2.452 2.958-3.361 2.847-2.564 6.034-4.264 9.968-2.701 2.631 1.045 4.279 3.105 4.694 5.914.35 2.373-.278 4.559-2.387 5.959-.939.624-2.109.901-3.329 1.044 2.183-.87 4.007-2.135 4.367-4.501.187-1.225-.146-2.737-.756-3.835-1.658-2.987-5.548-3.664-8.472-1.619 1.746 1.956 2.498 4.144 1.078 6.579-.643 1.102-1.796 1.444-3.173 1.079.548-.214.929-.329 1.279-.505 1.687-.846 2.178-2.735 1.112-4.228-1.103-1.547-2.346-1.578-3.433-.06-1.556 2.175-2.721 4.563-2.82 7.25-.14 3.781-.035 7.571-.035 11.357l.571.167c.66-.737 1.303-1.49 1.982-2.208 3.834-4.049 8.333-6.844 14.056-7.1 3.832-.171 6.766 1.632 8.743 4.795 2.098 3.355 1.927 6.889-.033 10.261-1.456 2.507-5.763 4.275-9.209 2.6 6.499.104 9.703-2.699 8.459-9.017-.688-3.488-4.156-5.806-7.188-5.407.974 5.013.41 7.143-2.276 8.614-1.227.671-2.907.531-3.786-.316 2.981-.121 4.262-.961 4.867-3.194.381-1.404-.543-3.719-1.822-4.336-.388-.187-.999-.254-1.37-.08-6.055 2.817-10.106 7.446-11.792 13.894-.703 2.69.803 4.744 2.7 6.811 2.116 2.306 4.296 1.342 6.553 1.178 1.657-.12 3.32-.583 4.955-.482 2.49.151 2.883.496 5.798 2.889-1.911-.224-3.396-.396-5.361-.627l1.439 2.165-.187.347L52.3 66.83v2.269c-2.116-2.566-4.463-1.238-6.495-.806-2.568.547-4.874.132-7.24-.584-1.178-.356-2.236-.986-3.587-.272-3.208 1.694-6.628 1.898-10.117.986-1.556-.407-2.967-.3-4.234 1.197l-.414-1.682c-1.859-.719-2.537 1.533-4.588 1.728"/>
        <path d="M32.875 10.274c.277-2.685-2.122-1.396-3.014-2.227.813-.991 3.377.114 2.942-2.482l1.453-.12.689-3.377c.267.898.566 1.54.63 2.205.12 1.251.694 1.483 1.857.818-.711 3.126 2.089 1.639 3.107 2.707l-3.218.904.264 1.595-1.505-.239-.844 3.149c-1.034-.763.388-3.46-2.361-2.933M5.042 53.262c1.137 1.301 2.199 2.545 3.295 3.759.613.68.854 1.177-.229 1.681-.469.218-.759.822-1.134 1.255-.971-.973-2.175-1.563-2.349-3.34-.117-1.189-.627-1.765.417-3.355m61.695-1.581c1.794 1.667.342 3.652.352 5.117l-1.84 1.789-2.086-1.557zM56.619 35.889l-1.19-.949 1.708-4.437c1.939 1.634 1.84 2.947-.518 5.386M13.88 31.495l1.929 4.514c-.214.164-.663.511-1.115.857-2.398-2.304-2.541-3.205-.814-5.371m.944 22.037c-2.629-3.046-2.805-3.702-1.49-5.252.716.892 1.41 1.83 2.183 2.699 1.276 1.433-.984 1.239-.693 2.553m42.517-1.653c-1.413-.715-1.834-1.436-.301-2.592.614-.464.836-1.449 1.227-2.181 1.579 1.676 1.277 3.28-.926 4.773M23.009 32.642c2.358 2.658 2.358 2.658 1.079 3.703-1.896-1.311-2.094-1.99-1.079-3.703m24.882-.681c1.23 1.388 1.028 2.686-.596 3.912-1.164-.686-1.688-1.376-.271-2.428.419-.31.58-.97.867-1.484M20.547 17.706l2.375 2.886c-.359.292-.75.608-1.13.918-1.395-1.031-2.209-2.063-1.245-3.804m27.381 2.097 1.94-2.508c1.06 1.326.827 2.403-.925 3.622zm3.738 24.296-1.941 2.983-1.456-1.313 3.084-2.078zm-31.337.394 3.051 1.866-1.466 1.291-1.926-2.812zm23.686-27.711c0 .383.114.817-.027 1.137-.196.444-.573.813-.915 1.175-.026.028-.578-.319-.556-.388.121-.386.338-.743.534-1.104.172-.317.359-.625.54-.938zm-14.51 17.63-.85-2.53.655-.222.977 2.477z"/>
    </g>
</svg>
