<?xml version="1.0" encoding="utf-8"?>
<!-- Generator: Adobe Illustrator 16.0.0, SVG Export Plug-In . SVG Version: 6.00 Build 0)  -->
<!DOCTYPE svg PUBLIC "-//W3C//DTD SVG 1.1//EN" "http://www.w3.org/Graphics/SVG/1.1/DTD/svg11.dtd">
<svg version="1.1" id="Layer_1" xmlns="http://www.w3.org/2000/svg" xmlns:xlink="http://www.w3.org/1999/xlink" x="0px" y="0px"
	 width="72.324px" height="72.324px" viewBox="0 0 72.324 72.324" enable-background="new 0 0 72.324 72.324" xml:space="preserve">
<g>
	<path fill="currentColor" fill-rule="evenodd" clip-rule="evenodd" d="M15.625,69.666c0.621-0.984,1.028-1.629,1.701-2.696
		c-1.833,0.239-3.356,0.438-4.824,0.629c1.044-2.102,4.339-3.34,7.468-3.003c2.718,0.292,5.465,0.313,7.824,0.434
		c0.729-0.946,1.102-1.59,1.623-2.075c1.9-1.77,2.897-5.034,1.909-7.41c-2.206-5.302-5.764-9.443-11.017-11.951
		c-0.899-0.43-1.91-1.073-2.932,0.023c-1.059,1.139-1.713,2.393-1.338,3.937c0.477,1.961,1.996,3.036,4.027,3.031
		c0.3,0,0.6,0.026,1.003,0.045c-1.111,1-3.062,1.147-4.433,0.193c-2.976-2.068-3.022-4.959-1.913-8.046
		c-2.584-0.537-6.106,1.662-6.825,4.769c-1.569,6.784,1.635,9.812,8.736,9.44c-3.72,2.097-8.896-0.076-10.397-3.958
		c-2.677-6.921,2.59-13.986,10.02-13.583c6.057,0.328,10.646,3.338,14.653,7.557c0.285,0.301,0.563,0.607,1.271,0.855
		c0-3.027,0.025-6.056-0.006-9.084c-0.035-3.282-1.22-6.214-3.015-8.886c-0.49-0.729-1.778-1.799-2.055-1.634
		c-0.922,0.552-2.004,1.52-2.16,2.47c-0.139,0.846,0.801,1.929,1.409,2.808c0.227,0.328,0.86,0.374,1.699,0.701
		c-1.464,0.611-2.287,0.04-3.035-0.638c-1.833-1.662-1.735-3.525,0.388-7.078c-1.66-1.197-3.473-1.287-5.301-0.644
		c-2.466,0.868-3.729,2.9-3.818,5.326c-0.113,3.077,2.015,4.616,5.084,5.325c-2.302,0.683-5.085-0.97-5.964-3.24
		c-1.441-3.724,0.773-8.279,4.54-9.617c3.809-1.353,6.815,0.137,9.587,2.498c1.012,0.862,1.844,1.935,3.016,3.186
		c0.088-3.208,0.12-6.179,0.27-9.146c0.101-2.007-0.091-3.884-1.53-5.428c-0.532-0.57-0.882-1.708-1.995-0.749
		c-0.981,0.846-1.112,2.168-0.246,2.982c0.375,0.353,0.869,0.578,1.309,0.862c-0.081,0.154-0.162,0.308-0.243,0.462
		c-0.716-0.415-1.685-0.661-2.099-1.279c-1.026-1.533-0.433-3.079,0.529-4.466c-1.844-1.405-4.163-1.057-5.467,0.938
		c-0.465,0.711-0.717,1.714-0.67,2.562c0.043,0.778,0.461,1.674,1.001,2.247c0.568,0.603,1.477,0.885,2.172,1.429
		c-1.604,0.2-2.848-0.426-3.68-1.756c-1.031-1.647-0.994-3.389-0.066-5.065c1.625-2.938,5.099-3.829,8.093-2.163
		c2.468,1.373,3.995,3.552,5.226,6.108c0.878-1.403,1.597-2.766,2.516-3.977c2.448-3.227,6.146-4.183,9.066-2.447
		c2.895,1.72,3.479,5.885,1.027,7.989c-0.702,0.602-1.736,0.814-2.675,0.963c0.949-0.852,2.092-1.571,2.796-2.592
		c0.79-1.147,0.488-2.482-0.387-3.613c-1.594-2.059-3.638-2.456-5.682-1.019c1.003,1.461,1.646,3.065,0.507,4.701
		c-0.389,0.558-1.212,0.813-1.837,1.206c-0.08-0.143-0.16-0.285-0.241-0.428c0.458-0.329,0.983-0.595,1.359-1
		c0.834-0.896,0.66-2.019-0.347-2.809c-1.079-0.847-1.65-0.152-2.167,0.706c-0.898,1.493-1.508,2.993-1.285,4.856
		c0.313,2.617,0.328,5.27,0.472,7.906c0.028,0.507,0.064,1.013,0.118,1.861c1.146-1.316,1.949-2.452,2.958-3.361
		c2.847-2.564,6.034-4.264,9.968-2.701c2.631,1.045,4.279,3.105,4.694,5.914c0.35,2.373-0.278,4.559-2.387,5.959
		c-0.939,0.624-2.109,0.901-3.329,1.044c2.183-0.87,4.007-2.135,4.367-4.501c0.187-1.225-0.146-2.737-0.756-3.835
		c-1.658-2.987-5.548-3.664-8.472-1.619c1.746,1.956,2.498,4.144,1.078,6.579c-0.643,1.102-1.796,1.444-3.173,1.079
		c0.548-0.214,0.929-0.329,1.279-0.505c1.687-0.846,2.178-2.735,1.112-4.228c-1.103-1.547-2.346-1.578-3.433-0.06
		c-1.556,2.175-2.721,4.563-2.82,7.25c-0.14,3.781-0.035,7.571-0.035,11.357c0.19,0.056,0.381,0.111,0.571,0.167
		c0.66-0.737,1.303-1.49,1.982-2.208c3.834-4.049,8.333-6.844,14.056-7.1c3.832-0.171,6.766,1.632,8.743,4.795
		c2.098,3.355,1.927,6.889-0.033,10.261c-1.456,2.507-5.763,4.275-9.209,2.6c6.499,0.104,9.703-2.699,8.459-9.017
		c-0.688-3.488-4.156-5.806-7.188-5.407c0.974,5.013,0.41,7.143-2.276,8.614c-1.227,0.671-2.907,0.531-3.786-0.316
		c2.981-0.121,4.262-0.961,4.867-3.194c0.381-1.404-0.543-3.719-1.822-4.336c-0.388-0.187-0.999-0.254-1.37-0.08
		c-6.055,2.817-10.106,7.446-11.792,13.894c-0.703,2.69,0.803,4.744,2.7,6.811c2.116,2.306,4.296,1.342,6.553,1.178
		c1.657-0.12,3.32-0.583,4.955-0.482c2.49,0.151,2.883,0.496,5.798,2.889c-1.911-0.224-3.396-0.396-5.361-0.627
		c0.665,1,1.052,1.582,1.439,2.165c-0.063,0.116-0.124,0.231-0.187,0.347c-1.336-0.531-2.672-1.062-4.244-1.687
		c0,0.863,0,1.338,0,2.269c-2.116-2.566-4.463-1.238-6.495-0.806c-2.568,0.547-4.874,0.132-7.24-0.584
		c-1.178-0.356-2.236-0.986-3.587-0.272c-3.208,1.694-6.628,1.898-10.117,0.986c-1.556-0.407-2.967-0.3-4.234,1.197
		c-0.174-0.709-0.291-1.184-0.414-1.682C18.354,67.219,17.676,69.471,15.625,69.666z"/>
	<path fill="currentColor" fill-rule="evenodd" clip-rule="evenodd" d="M32.875,10.274c0.277-2.685-2.122-1.396-3.014-2.227
		c0.813-0.991,3.377,0.114,2.942-2.482c0.422-0.035,0.839-0.069,1.453-0.12c0.203-0.995,0.412-2.021,0.689-3.377
		c0.267,0.898,0.566,1.54,0.63,2.205c0.12,1.251,0.694,1.483,1.857,0.818c-0.711,3.126,2.089,1.639,3.107,2.707
		c-1.052,0.296-2.089,0.587-3.218,0.904c0.093,0.564,0.167,1.014,0.264,1.595c-0.557-0.088-0.997-0.159-1.505-0.239
		c-0.294,1.098-0.57,2.129-0.844,3.149C34.202,12.444,35.624,9.747,32.875,10.274z"/>
	<path fill="currentColor" fill-rule="evenodd" clip-rule="evenodd" d="M5.042,53.262c1.137,1.301,2.199,2.545,3.295,3.759
		c0.613,0.68,0.854,1.177-0.229,1.681c-0.469,0.218-0.759,0.822-1.134,1.255c-0.971-0.973-2.175-1.563-2.349-3.34
		C4.508,55.428,3.998,54.852,5.042,53.262z"/>
	<path fill="currentColor" fill-rule="evenodd" clip-rule="evenodd" d="M66.737,51.681c1.794,1.667,0.342,3.652,0.352,5.117
		c-0.759,0.738-1.301,1.265-1.84,1.789c-0.507-0.378-1.113-0.83-2.086-1.557C64.237,55.422,65.487,53.551,66.737,51.681z"/>
	<path fill="currentColor" fill-rule="evenodd" clip-rule="evenodd" d="M56.619,35.889c-0.521-0.416-0.917-0.731-1.19-0.949
		c0.572-1.485,1.149-2.985,1.708-4.437C59.076,32.137,58.977,33.45,56.619,35.889z"/>
	<path fill="currentColor" fill-rule="evenodd" clip-rule="evenodd" d="M13.88,31.495c0.632,1.479,1.223,2.861,1.929,4.514
		c-0.214,0.164-0.663,0.511-1.115,0.857C12.296,34.562,12.153,33.661,13.88,31.495z"/>
	<path fill="currentColor" fill-rule="evenodd" clip-rule="evenodd" d="M14.824,53.532c-2.629-3.046-2.805-3.702-1.49-5.252
		c0.716,0.892,1.41,1.83,2.183,2.699C16.793,52.412,14.533,52.218,14.824,53.532z"/>
	<path fill="currentColor" fill-rule="evenodd" clip-rule="evenodd" d="M57.341,51.879c-1.413-0.715-1.834-1.436-0.301-2.592
		c0.614-0.464,0.836-1.449,1.227-2.181C59.846,48.782,59.544,50.386,57.341,51.879z"/>
	<path fill="currentColor" fill-rule="evenodd" clip-rule="evenodd" d="M23.009,32.642c2.358,2.658,2.358,2.658,1.079,3.703
		C22.192,35.034,21.994,34.355,23.009,32.642z"/>
	<path fill="currentColor" fill-rule="evenodd" clip-rule="evenodd" d="M47.891,31.961c1.23,1.388,1.028,2.686-0.596,3.912
		c-1.164-0.686-1.688-1.376-0.271-2.428C47.443,33.135,47.604,32.475,47.891,31.961z"/>
	<path fill="currentColor" fill-rule="evenodd" clip-rule="evenodd" d="M20.547,17.706c0.794,0.965,1.458,1.772,2.375,2.886
		c-0.359,0.292-0.75,0.608-1.13,0.918C20.397,20.479,19.583,19.447,20.547,17.706z"/>
	<path fill="currentColor" fill-rule="evenodd" clip-rule="evenodd" d="M47.928,19.803c0.716-0.924,1.332-1.721,1.94-2.508
		c1.06,1.326,0.827,2.403-0.925,3.622C48.643,20.587,48.324,20.238,47.928,19.803z"/>
	<path fill="currentColor" fill-rule="evenodd" clip-rule="evenodd" d="M51.666,44.099c-0.64,0.983-1.279,1.967-1.941,2.983
		c-0.568-0.513-0.953-0.859-1.456-1.313c1.039-0.7,2.062-1.389,3.084-2.078C51.457,43.826,51.562,43.963,51.666,44.099z"/>
	<path fill="currentColor" fill-rule="evenodd" clip-rule="evenodd" d="M20.329,44.493c0.987,0.604,1.975,1.208,3.051,1.866
		c-0.5,0.44-0.891,0.784-1.466,1.291c-0.653-0.954-1.29-1.883-1.926-2.812C20.102,44.724,20.215,44.608,20.329,44.493z"/>
	<path fill="currentColor" fill-rule="evenodd" clip-rule="evenodd" d="M44.015,16.782c0,0.383,0.114,0.817-0.027,1.137
		c-0.196,0.444-0.573,0.813-0.915,1.175c-0.026,0.028-0.578-0.319-0.556-0.388c0.121-0.386,0.338-0.743,0.534-1.104
		c0.172-0.317,0.359-0.625,0.54-0.938C43.731,16.703,43.873,16.742,44.015,16.782z"/>
	<path fill="currentColor" fill-rule="evenodd" clip-rule="evenodd" d="M29.505,34.412c-0.283-0.844-0.567-1.687-0.85-2.53
		c0.218-0.074,0.437-0.148,0.655-0.222c0.325,0.826,0.651,1.651,0.977,2.477C30.026,34.229,29.766,34.32,29.505,34.412z"/>
</g>
</svg>
