<?xml version="1.0" encoding="utf-8"?>
<!-- Generator: Adobe Illustrator 16.0.0, SVG Export Plug-In . SVG Version: 6.00 Build 0)  -->
<!DOCTYPE svg PUBLIC "-//W3C//DTD SVG 1.1//EN" "http://www.w3.org/Graphics/SVG/1.1/DTD/svg11.dtd">
<svg version="1.1" id="Layer_1" xmlns="http://www.w3.org/2000/svg" xmlns:xlink="http://www.w3.org/1999/xlink" x="0px" y="0px"
	 width="71.9805px" height="71.9805px" viewBox="-0.0002 -0.0002 71.9805 71.9805"
	 enable-background="new -0.0002 -0.0002 71.9805 71.9805" xml:space="preserve">
<g>
	<path fill="currentColor" fill-rule="evenodd" clip-rule="evenodd" d="M8.1907,10.5256c0-0.0688,0-0.1377,0-0.2065
		c0.3579,0.0122,0.7158,0.0166,1.0728,0.0371c1.2285,0.0718,2.4561,0.1606,3.6846,0.2207c1.1602,0.0562,2.3237,0.1436,3.4824,0.1055
		c0.8706-0.0288,1.6143-0.4512,2.0864-1.2256c0.5688-0.9321,1.043-1.9302,1.6841-2.8086c0.9243-1.2671,2.1191-2.1392,3.7866-2.2686
		c1.6929-0.1309,3.0151,0.6675,3.2778,2.3643c0.1055,0.6807,0.2754,1.3857,0.5874,1.9907c0.3721,0.7212,1.1216,0.7837,1.7954,0.2939
		c0.9678-0.7031,1.8853-1.4956,2.9175-2.0869c1.0767-0.6162,2.2573-1.0542,3.4067-1.5366c0.3066-0.1289,0.4683-0.2734,0.5146-0.6133
		c0.0762-0.5566,0.1807-1.1133,0.3311-1.6543c0.0723-0.2607,0.2754-0.4854,0.4189-0.7266c0.0547,0.0195,0.1084,0.0396,0.1621,0.0591
		c0.0752,0.1875,0.1904,0.3687,0.2188,0.563c0.1924,1.3062,0.4756,2.6108,0.5215,3.9238c0.0781,2.2261,0.002,4.4575-0.0049,6.6865
		c-0.0049,1.2861,0.0283,2.5732-0.0195,3.8579c-0.0156,0.4141,0.1152,0.5698,0.4717,0.6294
		c0.2021,0.0347,0.4072,0.0825,0.6113,0.0859c1.2822,0.0229,2.5645,0.0254,3.8457,0.0522c2.9443,0.0625,5.8877,0.1387,8.8311,0.2026
		c1.9316,0.0415,3.8633,0.0767,5.7949,0.1016c0.3467,0.0044,0.6074,0.1328,0.623,0.4688c0.0166,0.3784-0.2949,0.4521-0.6143,0.4517
		c-0.4922-0.001-0.9834,0-1.5,0c0,0.1348-0.0088,0.2192,0.001,0.3018c0.2051,1.7661,0.3301,3.5464,0.6387,5.2944
		c0.4248,2.4111,0.9658,4.8032,1.5059,7.1929c0.2393,1.0571,0.5908,2.0894,0.9014,3.1299c0.3291,1.1001,0.627,2.2114,1.0146,3.2915
		c0.8193,2.2861,1.6777,4.5596,2.5459,6.8291c0.1836,0.4785,0.3682,0.9932,0.9131,1.2305c0.1162,0.0518,0.1982,0.1826,0.2959,0.2773
		c0,0.1025,0,0.2061,0,0.3096c-0.2598,0.4268-0.6016,0.2773-0.9424,0.1338c-2.1816-0.9131-4.4805-1.4063-6.7842-1.8662
		c-1.2725-0.2549-2.5625-0.4287-3.8477-0.6152c-1.1201-0.1631-2.2432-0.3115-3.3682-0.4287
		c-1.0195-0.1055-2.043-0.1602-3.0654-0.2344c-0.9209-0.0674-1.8428-0.1631-2.7656-0.1895
		c-1.5586-0.0449-3.1201-0.0215-4.6777-0.0801c-0.4346-0.0166-0.5508,0.1289-0.5537,0.502
		c-0.0098,1.0293-0.042,2.0596-0.0264,3.0879c0.0068,0.4531-0.0166,0.9727,0.1904,1.3418c0.4873,0.8711,1.0947,1.6758,1.6699,2.4961
		c1.2246,1.7461,3.0527,1.9873,4.8506,1.376c1.04-0.3545,1.9805-1.0059,2.957-1.5381c0.7988-0.4346,1.5996-0.6787,2.5313-0.4219
		c0.9209,0.2539,1.5654,0.8477,2.0791,1.5732c0.4551,0.6426,0.6865,1.3564,0.5527,2.2188
		c-0.1826,1.1738-0.2715,2.3779-0.2324,3.5645c0.0273,0.8525,0.2188,1.7402,0.5322,2.5342c0.626,1.583,0.1338,3.625-1.1133,4.751
		c-1.6826,1.5195-3.749,2.1709-5.8848,2.6426c-1.1152,0.2471-2.2598,0.4072-3.3994,0.4932
		c-1.9629,0.1484-3.9336,0.207-5.9004,0.3047c-0.7676,0.0381-1.5352,0.0791-2.3027,0.1182c-0.5503,0-1.1001,0-1.6504,0
		c-0.3486-0.0547-0.6958-0.1309-1.0469-0.1602c-1.4233-0.1211-2.8672-0.1211-4.2676-0.3672
		c-1.6128-0.2842-3.2075-0.7188-4.7734-1.2061c-1.6465-0.5117-3.1934-1.2607-4.3315-2.6338
		c-1.0415-1.2568-1.4326-2.6963-1.0098-4.2832c0.5278-1.9824,1.4165-3.8711,1.5024-5.9678c0.0269-0.6475,0.1948-1.248,0.5439-1.8359
		c0.5444-0.915,1.3911-1.4014,2.2734-1.8477c0.354-0.1797,0.792-0.2471,1.1963-0.2617c1.0635-0.04,2.0137,0.4375,2.9004,0.9092
		c0.8989,0.4775,1.7598,0.9307,2.7847,1.0938c1.6304,0.2598,3.0962-0.0176,4.2544-1.2236c0.7671-0.7998,1.3877-1.7373,2.1157-2.5771
		c0.2515-0.2891,0.311-0.5586,0.3101-0.9219c-0.0029-1.043,0.0439-2.0859,0.0747-3.1299c0.0054-0.1826,0.0269-0.3652,0.0415-0.5547
		c-0.1123-0.0313-0.1772-0.0654-0.2412-0.0645c-1.3389,0.0215-2.6797,0.0039-4.0156,0.0811
		c-2.3608,0.1348-4.7207,0.3018-7.0767,0.5039c-1.5205,0.1309-3.0415,0.2998-4.5483,0.5391
		c-1.4326,0.2275-2.8564,0.5303-4.2666,0.8711s-2.7983,0.7725-4.1968,1.1611c-0.2632,0.0732-0.5327,0.1963-0.793,0.1826
		c-0.1616-0.0088-0.3901-0.207-0.4424-0.3672c-0.0425-0.1309,0.0942-0.4424,0.2168-0.4834c0.6045-0.208,1.0039-0.5664,1.2871-1.1572
		c0.6689-1.3955,1.5415-2.708,2.0811-4.1484c0.9434-2.5195,1.7642-5.0898,2.5117-7.6748c0.6421-2.2212,1.1548-4.4834,1.6416-6.7451
		c0.4106-1.9077,0.7012-3.8408,1.0479-5.7622c0.1191-0.6577,0.2632-1.311,0.3682-1.9702c0.0845-0.5342-0.0581-0.6558-0.5928-0.6636
		c-0.3896-0.0054-0.7896-0.0234-1.1611-0.124c-0.145-0.0396-0.2251-0.3198-0.3345-0.4902c0.1675-0.0918,0.3335-0.2583,0.5039-0.2632
		c0.7158-0.0205,1.4341-0.0024,2.1504,0.0195c2.7437,0.083,5.4868,0.1787,8.2305,0.2578c1.8848,0.0547,3.77,0.0952,5.6558,0.1294
		c0.8647,0.0161,1.73,0.0029,2.5728,0.0029c0.083-4.0239,0.1641-7.9692,0.2485-12.0718c-0.731,0.625-1.2827,1.1973-1.6509,1.9209
		c-0.8066,1.5845-0.5225,3.1426,0.1963,4.6587c-0.5703,0-1.1108-0.0757-1.6216,0.0146c-1.3149,0.2324-2.3452,1.0205-3.2876,1.9063
		c-0.8345,0.7837-1.6958,1.4956-2.8262,1.8042c-1.0049,0.2744-2.6567-0.1143-2.9893-1.3477
		c-0.0703-0.2627-0.2227-0.502-0.3179-0.7598c-0.4521-1.2222-1.1685-2.2466-2.2505-2.9907
		c-0.6021-0.4141-1.3018-0.3555-1.7729,0.166c-0.1904,0.2114-0.2813,0.5093-0.4497,0.7441
		c-0.4678,0.6514-0.9009,1.3389-1.4458,1.9204c-0.5371,0.5732-1.4585,0.5-2.0435-0.0283c-0.1743-0.1582-0.3613-0.3237-0.5732-0.4155
		c-1.0986-0.4746-2.2085-0.9219-3.311-1.3872C10.6716,11.5896,9.4324,11.0559,8.1907,10.5256z"/>
</g>
</svg>
