<svg xmlns="http://www.w3.org/2000/svg" xml:space="preserve" width="72px" height="72px" viewBox="0 0 72 72">
    <path fill="currentColor" fill-rule="evenodd" d="M19.643 24.617c-1.706-2.916-2.574-5.99-1.061-9.272 1.088-2.359 3.415-2.999 5.812-3.487-.204.283-.382.59-.617.845-1.375 1.5-1.354 1.982.169 3.25 2.524 2.1 2.859 2.121 5.602.346 4.314-2.791 7.989-2.739 12.083.171 1.742 1.238 4.697.593 5.519-1.347.216-.512-.118-1.409-.463-1.967-.425-.689-1.125-1.208-1.509-2.021 2.69 1.145 5.673 2.085 6.733 5.088 1.05 2.972-.293 5.701-2.019 8.221 0-1.809.028-3.617-.008-5.425-.037-1.823-.961-2.371-2.494-1.392-1.15.734-2.505 1.469-1.723 3.328.135.32-.211.918-.459 1.31-1.439 2.267-2.826 4.577-4.423 6.729-.609.82-1.789 1.194-2.594 1.902-.507.446-1.128 1.131-1.136 1.716a532 532 0 0 0 .024 16.371c.037 2.101.692 2.563 2.842 2.585 2.175.022 3.211.905 3.608 3.259-1.41 0-2.791.023-4.17-.008-1.144-.025-2.296.31-2.21 1.509.043.599 1.396 1.665 1.998 1.564 2.639-.44 4.665 1.448 7.137 1.604.774.049 1.481 1.146 2.22 1.763l-.219.497c-.551.063-1.102.182-1.652.181-2.427-.006-4.856-.12-7.279-.028-.715.026-1.403.615-2.116.917-.65.274-1.3.639-1.98.733-1.363.189-1.918-.474-1.876-1.887.151-5.123.25-10.249.311-15.374.052-4.378.019-8.756.034-13.133.004-1.202-.441-1.903-1.65-2.436-.945-.417-1.694-1.416-2.368-2.282a82 82 0 0 1-3.956-5.498c-.386-.59-.568-1.448-.518-2.161.109-1.54-2.388-3.966-3.869-3.516-.39.118-.849.698-.902 1.114-.182 1.433-.208 2.886-.273 4.333-.028.611-.005 1.225-.005 1.838zm14.045-1.116c1.189.104 2.239.045 3.15.372.26.093.135 1.304.158 2.004.047 1.358 1.314 2.139 2.518 1.538 1.712-.855 3.064-5.038 1.872-6.587-3.025-3.927-6.185-5.923-10.521-1.559-3.214 3.234-2.456 4.26.048 7.527.317.414 1.248.782 1.644.606.509-.226.904-.979 1.092-1.585.182-.588.039-1.276.039-2.316" clip-rule="evenodd"/>
</svg>
