<?xml version="1.0" encoding="utf-8"?>
<!-- Generator: Adobe Illustrator 16.0.0, SVG Export Plug-In . SVG Version: 6.00 Build 0)  -->
<!DOCTYPE svg PUBLIC "-//W3C//DTD SVG 1.1//EN" "http://www.w3.org/Graphics/SVG/1.1/DTD/svg11.dtd">
<svg version="1.1" id="Layer_1" xmlns="http://www.w3.org/2000/svg" xmlns:xlink="http://www.w3.org/1999/xlink" x="0px" y="0px"
	 width="72px" height="72px" viewBox="0 0 72 72" enable-background="new 0 0 72 72" xml:space="preserve">
<g>
	<path fill="currentColor" fill-rule="evenodd" clip-rule="evenodd" d="M19.555,34.335c-0.058-2.471,0.551-5.202,1.729-7.833
		c1.058-2.364,2.473-4.471,4.379-6.218c2.264-2.073,4.861-3.584,7.947-3.962c1.527-0.186,3.088-0.114,4.581,0.528
		c2.93,1.26,5.897,2.435,8.837,3.676c0.259,0.107,0.425,0.441,0.635,0.67c-0.28,0.216-0.531,0.51-0.848,0.636
		c-1.464,0.577-3.007,0.984-4.407,1.684c-2.258,1.132-4.133,2.792-5.712,4.772c-0.63,0.788-1.347,1.526-1.854,2.391
		c-0.812,1.376-1.604,2.786-2.174,4.274c-0.578,1.505-0.963,3.104-1.273,4.692c-0.438,2.246-0.447,4.511,0.18,6.746
		c0.207,0.739,0.32,1.507,0.567,2.229c0.133,0.391,0.097,0.671-0.241,0.807c-0.194,0.078-0.531,0.013-0.707-0.118
		c-1.304-0.973-2.585-1.976-3.873-2.973c-1.357-1.048-2.741-2.064-4.061-3.158c-1.122-0.929-1.97-2.067-2.525-3.453
		C20.091,38.114,19.699,36.47,19.555,34.335z"/>
	<path fill="currentColor" fill-rule="evenodd" clip-rule="evenodd" d="M34.807,45.247c0.214-1.523,0.323-3.07,0.672-4.562
		c0.351-1.488,0.838-2.965,1.449-4.368c1.088-2.493,2.611-4.72,4.518-6.68c1.591-1.638,3.38-3.021,5.4-4.051
		c2.773-1.412,5.75-2.062,8.869-1.767c1.664,0.158,3.29,0.569,4.729,1.482c0.825,0.523,1.602,1.124,2.43,1.646
		c0.442,0.278,0.472,0.678,0.263,1.005c-0.101,0.157-0.578,0.18-0.849,0.115c-0.872-0.207-1.713-0.587-2.596-0.712
		c-1.912-0.27-3.827-0.176-5.637,0.57c-1.271,0.521-2.564,1.051-3.724,1.773c-2.195,1.373-4.126,3.079-5.689,5.165
		c-0.13,0.174-0.169,0.419-0.248,0.632c-0.024,0.067-0.021,0.174-0.067,0.202c-1.043,0.649-1.413,1.786-2.017,2.754
		c-0.149,0.237-0.281,0.49-0.385,0.751c-0.585,1.47-1.165,2.943-1.73,4.421c-0.029,0.077,0.103,0.208,0.146,0.32
		c0.024,0.063,0.058,0.179,0.03,0.2c-0.735,0.604-0.478,1.499-0.641,2.26c-0.114,0.536-0.145,1.104-0.122,1.651
		c0.027,0.656,0.163,1.307,0.228,1.961c0.043,0.439-0.014,0.895,0.073,1.323c0.585,2.949,1.914,5.411,4.686,6.865
		c0.456,0.24,0.667,0.592,0.442,0.995c-0.094,0.169-0.629,0.229-0.9,0.14c-3.035-0.987-5.354-2.912-6.978-5.63
		c-1.387-2.323-2.06-4.888-2.194-7.59c-0.014-0.284-0.026-0.571-0.041-0.854C34.886,45.259,34.846,45.253,34.807,45.247z"/>
	<path fill="currentColor" fill-rule="evenodd" clip-rule="evenodd" d="M5.053,22.39c0.152-3.111,1.5-5.805,4.062-7.895
		c1.497-1.22,3.231-1.927,5.144-1.874c1.043,0.027,2.085,0.454,3.109,0.763c1.103,0.33,2.191,0.712,3.272,1.11
		c0.8,0.292,1.573,0.658,2.367,0.97c0.427,0.168,0.886,0.259,1.302,0.448c0.293,0.132,0.539,0.368,0.805,0.561
		c-0.2,0.27-0.346,0.613-0.606,0.792c-0.559,0.382-1.206,0.636-1.767,1.019c-2.108,1.438-3.691,3.306-4.878,5.595
		c-1.13,2.181-1.747,4.432-1.773,6.86c-0.005,0.525,0.139,1.051,0.163,1.574c0.01,0.253-0.051,0.702-0.164,0.73
		c-0.283,0.072-0.677,0.052-0.912-0.104c-0.696-0.458-1.329-1.017-2.003-1.512c-1.397-1.023-2.8-2.04-4.21-3.048
		c-0.665-0.475-1.416-0.849-2.015-1.393C5.667,25.824,5.084,24.319,5.053,22.39z"/>
	<path fill="currentColor" fill-rule="evenodd" clip-rule="evenodd" d="M64.883,49.678c-0.657,0.13-1.173,0.271-1.047,1.04
		c0.01,0.057-0.364,0.122-0.44,0.253c-0.948,1.598-2.402,2.735-3.703,3.997c-0.629,0.612-1.525,0.95-2.296,1.417
		c-1.47,0.896-3.138,1.183-4.772,1.554c-2.866,0.649-6.554-0.954-8.045-3.506c-0.163-0.28-0.238-0.848-0.072-1.039
		c0.313-0.36,0.743-0.148,1.082,0.178c2.626,2.537,6.423,2.438,9.424,0.876c4.429-2.303,7.197-5.984,8.335-10.825
		c0.339-1.441,0.492-2.975,0.419-4.451c-0.139-2.863-1.359-5.233-3.794-6.884c-0.166-0.11-0.391-0.186-0.48-0.338
		c-0.112-0.19-0.192-0.467-0.14-0.668c0.033-0.131,0.33-0.277,0.508-0.273c1.187,0.02,2.321,0.337,3.246,1.064
		c0.851,0.669,1.602,1.48,2.324,2.294c0.687,0.773,0.666,1.835,0.942,2.773c0.156,0.521,0.333,1.038,0.497,1.557
		c0.016,0.057,0.022,0.151-0.011,0.181c-0.503,0.463,0.054,0.434,0.088,0.536c-0.075,0.263-0.211,0.526-0.214,0.79
		c-0.005,0.638,0.103,1.281,0.063,1.914c-0.031,0.479-0.247,0.943-0.328,1.421c-0.073,0.428-0.041,0.872-0.13,1.293
		c-0.055,0.254-0.296,0.464-0.379,0.717c-0.257,0.79-0.449,1.604-0.73,2.386c-0.139,0.384-0.436,0.711-0.637,1.077
		C64.44,49.284,64.25,49.599,64.883,49.678z"/>
</g>
</svg>
