<?xml version="1.0" encoding="utf-8"?>
<!-- Generator: Adobe Illustrator 16.0.0, SVG Export Plug-In . SVG Version: 6.00 Build 0)  -->
<!DOCTYPE svg PUBLIC "-//W3C//DTD SVG 1.1//EN" "http://www.w3.org/Graphics/SVG/1.1/DTD/svg11.dtd">
<svg version="1.1" id="Layer_1" xmlns="http://www.w3.org/2000/svg" xmlns:xlink="http://www.w3.org/1999/xlink" x="0px" y="0px"
	 width="72px" height="72px" viewBox="0 0 72 72" enable-background="new 0 0 72 72" xml:space="preserve">
<g>
	<path fill="currentColor" fill-rule="evenodd" clip-rule="evenodd" d="M19.643,24.617c-1.706-2.916-2.574-5.99-1.061-9.272
		c1.088-2.359,3.415-2.999,5.812-3.487c-0.204,0.283-0.382,0.59-0.617,0.845c-1.375,1.5-1.354,1.982,0.169,3.25
		c2.524,2.1,2.859,2.121,5.602,0.346c4.314-2.791,7.989-2.739,12.083,0.171c1.742,1.238,4.697,0.593,5.519-1.347
		c0.216-0.512-0.118-1.409-0.463-1.967c-0.425-0.689-1.125-1.208-1.509-2.021c2.69,1.145,5.673,2.085,6.733,5.088
		c1.05,2.972-0.293,5.701-2.019,8.221c0-1.809,0.028-3.617-0.008-5.425c-0.037-1.823-0.961-2.371-2.494-1.392
		c-1.15,0.734-2.505,1.469-1.723,3.328c0.135,0.32-0.211,0.918-0.459,1.31c-1.439,2.267-2.826,4.577-4.423,6.729
		c-0.609,0.82-1.789,1.194-2.594,1.902c-0.507,0.446-1.128,1.131-1.136,1.716c-0.071,5.456-0.073,10.915,0.024,16.371
		c0.037,2.101,0.692,2.563,2.842,2.585c2.175,0.022,3.211,0.905,3.608,3.259c-1.41,0-2.791,0.023-4.17-0.008
		c-1.144-0.025-2.296,0.31-2.21,1.509c0.043,0.599,1.396,1.665,1.998,1.564c2.639-0.44,4.665,1.448,7.137,1.604
		c0.774,0.049,1.481,1.146,2.22,1.763c-0.073,0.166-0.146,0.331-0.219,0.497c-0.551,0.063-1.102,0.182-1.652,0.181
		c-2.427-0.006-4.856-0.12-7.279-0.028c-0.715,0.026-1.403,0.615-2.116,0.917c-0.65,0.274-1.3,0.639-1.98,0.733
		c-1.363,0.189-1.918-0.474-1.876-1.887c0.151-5.123,0.25-10.249,0.311-15.374c0.052-4.378,0.019-8.756,0.034-13.133
		c0.004-1.202-0.441-1.903-1.65-2.436c-0.945-0.417-1.694-1.416-2.368-2.282c-1.387-1.781-2.721-3.61-3.956-5.498
		c-0.386-0.59-0.568-1.448-0.518-2.161c0.109-1.54-2.388-3.966-3.869-3.516c-0.39,0.118-0.849,0.698-0.902,1.114
		c-0.182,1.433-0.208,2.886-0.273,4.333c-0.028,0.611-0.005,1.225-0.005,1.838C20.005,24.577,19.824,24.597,19.643,24.617z
		 M33.688,23.501c1.189,0.104,2.239,0.045,3.15,0.372c0.26,0.093,0.135,1.304,0.158,2.004c0.047,1.358,1.314,2.139,2.518,1.538
		c1.712-0.855,3.064-5.038,1.872-6.587c-3.025-3.927-6.185-5.923-10.521-1.559c-3.214,3.234-2.456,4.26,0.048,7.527
		c0.317,0.414,1.248,0.782,1.644,0.606c0.509-0.226,0.904-0.979,1.092-1.585C33.831,25.229,33.688,24.541,33.688,23.501z"/>
</g>
</svg>
