<svg xmlns="http://www.w3.org/2000/svg" xml:space="preserve" width="72px" height="72px" viewBox="0 0 72 72">
    <g fill="currentColor" fill-rule="evenodd" clip-rule="evenodd">
        <path d="M19.555 34.335c-.058-2.471.551-5.202 1.729-7.833 1.058-2.364 2.473-4.471 4.379-6.218 2.264-2.073 4.861-3.584 7.947-3.962 1.527-.186 3.088-.114 4.581.528 2.93 1.26 5.897 2.435 8.837 3.676.259.107.425.441.635.67-.28.216-.531.51-.848.636-1.464.577-3.007.984-4.407 1.684-2.258 1.132-4.133 2.792-5.712 4.772-.63.788-1.347 1.526-1.854 2.391-.812 1.376-1.604 2.786-2.174 4.274-.578 1.505-.963 3.104-1.273 4.692-.438 2.246-.447 4.511.18 6.746.207.739.32 1.507.567 2.229.133.391.097.671-.241.807-.194.078-.531.013-.707-.118-1.304-.973-2.585-1.976-3.873-2.973-1.357-1.048-2.741-2.064-4.061-3.158a8.5 8.5 0 0 1-2.525-3.453c-.644-1.611-1.036-3.255-1.18-5.39"/>
        <path d="M34.807 45.247c.214-1.523.323-3.07.672-4.562a26 26 0 0 1 1.449-4.368c1.088-2.493 2.611-4.72 4.518-6.68 1.591-1.638 3.38-3.021 5.4-4.051 2.773-1.412 5.75-2.062 8.869-1.767 1.664.158 3.29.569 4.729 1.482.825.523 1.602 1.124 2.43 1.646.442.278.472.678.263 1.005-.101.157-.578.18-.849.115-.872-.207-1.713-.587-2.596-.712-1.912-.27-3.827-.176-5.637.57-1.271.521-2.564 1.051-3.724 1.773-2.195 1.373-4.126 3.079-5.689 5.165-.13.174-.169.419-.248.632-.024.067-.021.174-.067.202-1.043.649-1.413 1.786-2.017 2.754-.149.237-.281.49-.385.751a349 349 0 0 0-1.73 4.421c-.029.077.103.208.146.32.024.063.058.179.03.2-.735.604-.478 1.499-.641 2.26a6.7 6.7 0 0 0-.122 1.651c.027.656.163 1.307.228 1.961.043.439-.014.895.073 1.323.585 2.949 1.914 5.411 4.686 6.865.456.24.667.592.442.995-.094.169-.629.229-.9.14-3.035-.987-5.354-2.912-6.978-5.63-1.387-2.323-2.06-4.888-2.194-7.59l-.041-.854zM5.053 22.39c.152-3.111 1.5-5.805 4.062-7.895 1.497-1.22 3.231-1.927 5.144-1.874 1.043.027 2.085.454 3.109.763 1.103.33 2.191.712 3.272 1.11.8.292 1.573.658 2.367.97.427.168.886.259 1.302.448.293.132.539.368.805.561-.2.27-.346.613-.606.792-.559.382-1.206.636-1.767 1.019-2.108 1.438-3.691 3.306-4.878 5.595-1.13 2.181-1.747 4.432-1.773 6.86-.005.525.139 1.051.163 1.574.01.253-.051.702-.164.73-.283.072-.677.052-.912-.104-.696-.458-1.329-1.017-2.003-1.512q-2.095-1.535-4.21-3.048c-.665-.475-1.416-.849-2.015-1.393-1.282-1.162-1.865-2.667-1.896-4.596"/>
        <path d="M64.883 49.678c-.657.13-1.173.271-1.047 1.04.01.057-.364.122-.44.253-.948 1.598-2.402 2.735-3.703 3.997-.629.612-1.525.95-2.296 1.417-1.47.896-3.138 1.183-4.772 1.554-2.866.649-6.554-.954-8.045-3.506-.163-.28-.238-.848-.072-1.039.313-.36.743-.148 1.082.178 2.626 2.537 6.423 2.438 9.424.876 4.429-2.303 7.197-5.984 8.335-10.825a16.2 16.2 0 0 0 .419-4.451c-.139-2.863-1.359-5.233-3.794-6.884-.166-.11-.391-.186-.48-.338-.112-.19-.192-.467-.14-.668.033-.131.33-.277.508-.273 1.187.02 2.321.337 3.246 1.064.851.669 1.602 1.48 2.324 2.294.687.773.666 1.835.942 2.773.156.521.333 1.038.497 1.557.016.057.022.151-.011.181-.503.463.054.434.088.536-.075.263-.211.526-.214.79-.005.638.103 1.281.063 1.914-.031.479-.247.943-.328 1.421-.073.428-.041.872-.13 1.293-.055.254-.296.464-.379.717-.257.79-.449 1.604-.73 2.386-.139.384-.436.711-.637 1.077-.153.272-.343.587.29.666"/>
    </g>
</svg>
