<svg xmlns="http://www.w3.org/2000/svg" xml:space="preserve" width="72px" height="72px" viewBox="0 0 72 72">
    <path fill="currentColor" d="M17.537 12.144c2.393-.64 5.065-.104 7.556.077-.226 2.391-.468 4.443-.598 6.502-.083 1.316.348 2.431 1.708 2.987 4.785 1.957 9.58 3.889 14.337 5.91 1.666.708 3.229 1.654 4.849 2.479 1.659.847 2.549.305 2.611-1.57.104-3.08.325-6.161.279-9.239-.031-2.265-.41-4.525-.68-7.231 1.629-.091 3.512-.219 5.395-.285.527-.019 1.14.016 1.57.269.353.207.72.79.691 1.178-.154 2.223-.542 4.432-.632 6.655-.116 2.887-.015 5.783-.032 8.675-.018 2.752-.095 5.504-.101 8.258-.015 5.854-.032 11.711.043 17.565.011.903.37 1.872.803 2.687.888 1.672.286 2.903-1.595 2.935-1.782.028-3.569.075-5.346-.029-.684-.04-1.676-.312-1.918-.786-.246-.486.071-1.479.457-2.029 1.447-2.063 1.219-4.368.91-6.59-.102-.722-1.18-1.496-1.984-1.893-2.813-1.381-5.684-2.65-8.565-3.881-3.48-1.484-6.998-2.878-10.493-4.324-1.852-.768-2.299-.576-2.395 1.428-.118 2.479-.056 4.967-.068 7.45-.008 1.566-.149 3.148.03 4.693.129 1.108.713 2.161 1.053 3.251.195.628.596 1.416.376 1.887-.208.446-1.093.771-1.698.803-1.939.1-3.891.109-5.829-.004-.638-.037-1.546-.412-1.785-.9-.227-.463.073-1.436.47-1.904 1.372-1.623 1.046-3.605 1.129-5.398.146-3.139-.196-6.297-.226-9.445-.016-1.711.289-3.424.275-5.135-.023-2.871-.272-5.739-.265-8.608.01-3.548.263-7.096.257-10.644-.001-1.781-.348-3.555-.589-5.794m7.119 19.907c-.169 1.345.269 2.411 1.614 2.958 2.802 1.14 5.623 2.237 8.386 3.466 3.405 1.517 6.759 3.149 10.138 4.726.479.225.963.464 1.472.602 1.016.273 1.496-.12 1.514-1.215.019-1.17.109-2.346.272-3.505.265-1.874-.132-2.819-1.803-3.623-1.581-.761-3.209-1.424-4.81-2.15-2.117-.962-4.226-1.949-6.342-2.914-2.602-1.186-5.231-2.315-7.807-3.555-1.415-.681-2.549-.192-2.622 1.339-.061 1.287-.012 2.58-.012 3.871"/>
</svg>
