<?xml version="1.0" encoding="utf-8"?>
<!-- Generator: Adobe Illustrator 16.0.0, SVG Export Plug-In . SVG Version: 6.00 Build 0)  -->
<!DOCTYPE svg PUBLIC "-//W3C//DTD SVG 1.1//EN" "http://www.w3.org/Graphics/SVG/1.1/DTD/svg11.dtd">
<svg version="1.1" id="Layer_1" xmlns="http://www.w3.org/2000/svg" xmlns:xlink="http://www.w3.org/1999/xlink" x="0px" y="0px"
	 width="72px" height="72px" viewBox="0 0 72 72" enable-background="new 0 0 72 72" xml:space="preserve">
<g>
	<path fill="currentColor" d="M17.537,12.144c2.393-0.64,5.065-0.104,7.556,0.077c-0.226,2.391-0.468,4.443-0.598,6.502
		c-0.083,1.316,0.348,2.431,1.708,2.987c4.785,1.957,9.58,3.889,14.337,5.91c1.666,0.708,3.229,1.654,4.849,2.479
		c1.659,0.847,2.549,0.305,2.611-1.57c0.104-3.08,0.325-6.161,0.279-9.239c-0.031-2.265-0.41-4.525-0.68-7.231
		c1.629-0.091,3.512-0.219,5.395-0.285c0.527-0.019,1.14,0.016,1.57,0.269c0.353,0.207,0.72,0.79,0.691,1.178
		c-0.154,2.223-0.542,4.432-0.632,6.655c-0.116,2.887-0.015,5.783-0.032,8.675c-0.018,2.752-0.095,5.504-0.101,8.258
		c-0.015,5.854-0.032,11.711,0.043,17.565c0.011,0.903,0.37,1.872,0.803,2.687c0.888,1.672,0.286,2.903-1.595,2.935
		c-1.782,0.028-3.569,0.075-5.346-0.029c-0.684-0.04-1.676-0.312-1.918-0.786c-0.246-0.486,0.071-1.479,0.457-2.029
		c1.447-2.063,1.219-4.368,0.91-6.59c-0.102-0.722-1.18-1.496-1.984-1.893c-2.813-1.381-5.684-2.65-8.565-3.881
		c-3.48-1.484-6.998-2.878-10.493-4.324c-1.852-0.768-2.299-0.576-2.395,1.428c-0.118,2.479-0.056,4.967-0.068,7.45
		c-0.008,1.566-0.149,3.148,0.03,4.693c0.129,1.108,0.713,2.161,1.053,3.251c0.195,0.628,0.596,1.416,0.376,1.887
		c-0.208,0.446-1.093,0.771-1.698,0.803c-1.939,0.1-3.891,0.109-5.829-0.004c-0.638-0.037-1.546-0.412-1.785-0.9
		c-0.227-0.463,0.073-1.436,0.47-1.904c1.372-1.623,1.046-3.605,1.129-5.398c0.146-3.139-0.196-6.297-0.226-9.445
		c-0.016-1.711,0.289-3.424,0.275-5.135c-0.023-2.871-0.272-5.739-0.265-8.608c0.01-3.548,0.263-7.096,0.257-10.644
		C18.125,16.157,17.778,14.383,17.537,12.144z M24.656,32.051c-0.169,1.345,0.269,2.411,1.614,2.958
		c2.802,1.14,5.623,2.237,8.386,3.466c3.405,1.517,6.759,3.149,10.138,4.726c0.479,0.225,0.963,0.464,1.472,0.602
		c1.016,0.273,1.496-0.12,1.514-1.215c0.019-1.17,0.109-2.346,0.272-3.505c0.265-1.874-0.132-2.819-1.803-3.623
		c-1.581-0.761-3.209-1.424-4.81-2.15c-2.117-0.962-4.226-1.949-6.342-2.914c-2.602-1.186-5.231-2.315-7.807-3.555
		c-1.415-0.681-2.549-0.192-2.622,1.339C24.607,29.467,24.656,30.76,24.656,32.051z"/>
</g>
</svg>
