<?xml version="1.0" encoding="utf-8"?>
<!-- Generator: Adobe Illustrator 16.0.0, SVG Export Plug-In . SVG Version: 6.00 Build 0)  -->
<!DOCTYPE svg PUBLIC "-//W3C//DTD SVG 1.1//EN" "http://www.w3.org/Graphics/SVG/1.1/DTD/svg11.dtd">
<svg version="1.1" id="Layer_1" xmlns="http://www.w3.org/2000/svg" xmlns:xlink="http://www.w3.org/1999/xlink" x="0px" y="0px"
	 width="72.314px" height="72.314px" viewBox="0 0 72.314 72.314" enable-background="new 0 0 72.314 72.314" xml:space="preserve">
<g>
	<path fill="currentColor" fill-rule="evenodd" clip-rule="evenodd" d="M36.243,70.764c-3.705-3.763-9.299-4.506-14.219-6.705
		c-5.941-2.655-11.443-5.977-13.377-12.887c-0.096-0.343-0.144-0.7-0.229-1.124c1.469,0.377,2.785,0.841,4.138,1.02
		c1.036,0.138,2.191,0.128,3.167-0.196c1.461-0.486,2.705-1.463,2.998-3.117c0.279-1.575-0.602-2.644-1.832-3.51
		c-3.78-2.66-7.155-5.734-9.619-9.696c-2.387-3.838-3.963-7.899-3.051-12.535c0.083-0.425,0.54-1.078,0.869-1.107
		c2.862-0.252,5.722-0.264,8.428,0.941c1.911,0.852,2.999,2.327,3.488,4.366c0.491,2.046,2.067,3.21,4.37,3.464
		c2.094,0.231,4.29-0.74,5.119-2.379c0.274-0.542,0.518-1.294,0.362-1.829c-1.729-5.925,0.657-11.064,3.254-16.029
		c1.426-2.727,3.581-5.073,5.421-7.581c0.684-0.932,1.34-0.795,2.092,0.012c4.672,5.009,7.713,10.881,8.983,17.582
		c0.327,1.729-0.066,3.639-0.362,5.427c-0.249,1.5,0.072,2.644,1.211,3.598c2.988,2.506,7.595,1.215,8.613-2.476
		c0.855-3.097,3.179-4.385,6.011-4.877c1.785-0.311,3.648-0.257,5.471-0.193c0.424,0.015,1.116,0.692,1.188,1.144
		c0.75,4.722-0.583,8.93-3.396,12.712c-0.994,1.336-1.942,2.738-3.124,3.893c-2.075,2.029-4.27,3.943-6.502,5.8
		c-1.141,0.949-2.08,2.103-1.453,3.437c0.543,1.154,1.657,2.261,2.798,2.86c1.759,0.925,3.681,0.3,5.491-0.306
		c0.552-0.185,1.107-0.357,1.819-0.587c-0.318,3.356-2.086,5.785-4.18,8.034c-3.326,3.569-7.564,5.636-12.067,7.254
		c-1.621,0.583-3.315,1.012-4.857,1.757C40.973,68.036,38.787,69.359,36.243,70.764z M36.631,67.102c-0.18,0-0.359,0-0.538,0.001
		c-0.289-1.752-0.196-3.702-0.976-5.198c-0.77-1.476-2.421-2.491-3.687-3.708c0.04-0.092,0.08-0.184,0.12-0.276
		c1.12,0.497,2.24,0.994,3.262,1.446c1.745-4.816-2.442-5.845-5.14-7.824c0.122-0.146,0.244-0.291,0.366-0.437
		c1.55,0.711,3.101,1.423,4.666,2.141c0.706-3.014-0.071-4.698-2.758-6.224c-1.221-0.693-2.425-1.414-3.637-2.122
		c0.096-0.188,0.192-0.378,0.289-0.566c1.99,0.963,3.98,1.925,5.989,2.897c0.689-3.256,0.003-4.688-2.887-6.316
		c-1.646-0.929-3.267-1.9-4.9-2.853c0.093-0.178,0.187-0.354,0.28-0.532c2.593,1.271,5.187,2.541,7.879,3.859
		c0-0.716-0.091-1.267,0.015-1.777c0.6-2.898-0.937-4.562-3.25-5.833c-1.354-0.744-2.672-1.555-4.007-2.332
		c-0.639,0.927-1.367,1.807-1.894,2.794c-0.553,1.035-1.246,2.159-1.292,3.269c-0.103,2.458-0.015,4.954,0.309,7.394
		c0.829,6.257,2.976,12.101,6.198,17.509c1.607,2.697,3.518,5.214,5.396,7.967c0.447-0.531,0.617-0.728,0.781-0.929
		c3.209-3.959,5.716-8.318,7.768-12.986c2.489-5.666,3.902-11.532,3.688-17.719c-0.05-1.458-0.345-3.194-1.191-4.286
		c-2.771-3.57-3.126-7.413-2.139-11.6c0.826-3.504,0.34-6.852-1.35-10.024c-0.404-0.759-0.771-1.553-1.276-2.241
		c-1.93-2.624-3.909-5.212-6.104-8.126c-2.094,2.789-3.993,5.134-5.685,7.619c-2.319,3.404-3.882,7.059-3.347,11.366
		c0.387,3.119,0.552,6.266,0.837,9.643c1.863,0.933,4.179,2.092,6.505,3.257c1.192-3.179,0.375-5.533-2.341-7.129
		c-1.172-0.689-2.308-1.44-3.46-2.163c0.088-0.168,0.177-0.337,0.265-0.505c1.946,0.96,3.892,1.921,5.945,2.934
		c0-1.639,0.564-3.51-0.125-4.555c-1.201-1.819-3.174-3.128-4.823-4.651c0.008-0.073,0.016-0.146,0.024-0.219
		c1.665,0.786,3.33,1.573,5.447,2.573c-0.248-2.107-0.038-3.989-0.757-5.398c-0.697-1.366-2.348-2.245-3.58-3.337
		c0.054-0.09,0.108-0.179,0.163-0.269c1.313,0.612,2.627,1.223,4.316,2.01c0-1.82-0.038-3.366,0.011-4.909
		c0.047-1.484,0.183-2.966,0.28-4.449c0.194,0.006,0.388,0.013,0.582,0.02c0.142,3.035,0.284,6.07,0.435,9.285
		c1.51-0.699,2.815-1.303,4.121-1.907c0.144,0.128,0.288,0.255,0.432,0.383c-3.587,1.767-5.525,4.284-4.159,8.353
		c1.609-0.784,3.225-1.572,4.841-2.359c0.061,0.125,0.122,0.25,0.184,0.375c-1.497,1.174-3.178,2.181-4.442,3.567
		c-1.45,1.589-0.359,3.636-0.676,5.51c2.194-1.082,4.122-2.032,6.05-2.982c0.154,0.175,0.309,0.35,0.463,0.525
		c-3.708,2.068-7.915,3.833-6.045,9.324c2.254-1.131,4.515-2.265,6.774-3.398c0.096,0.175,0.19,0.351,0.286,0.526
		c-1.582,0.965-3.193,1.884-4.738,2.905c-2.658,1.756-3.224,3.627-2.126,6.773c2.5-1.202,5.002-2.405,7.504-3.607
		c0.129,0.49,0.1,0.611,0.024,0.656c-1.658,0.988-3.288,2.031-4.99,2.937c-2.531,1.347-3.29,3.101-2.372,5.976
		c1.946-0.908,3.886-1.813,5.826-2.719c0.069,0.129,0.139,0.259,0.208,0.389c-0.22,0.184-0.425,0.39-0.662,0.546
		c-1.483,0.978-3.045,1.854-4.444,2.939c-1.448,1.123-1.74,3.094-0.953,4.882c1.495-0.689,2.996-1.381,4.496-2.072
		c0.075,0.155,0.15,0.311,0.226,0.466c-1.409,0.947-2.874,1.821-4.212,2.859c-1.664,1.292-1.194,3.118-1.135,5.027
		c1.299-0.554,2.398-1.023,3.499-1.492c-1.166,1.437-2.81,2.46-3.597,3.939C36.891,63.408,36.947,65.354,36.631,67.102z"/>
	<path fill="currentColor" fill-rule="evenodd" clip-rule="evenodd" fill="none" d="M36.631,67.102c0.316-1.747,0.26-3.693,1.054-5.188
		c0.787-1.479,2.431-2.503,3.597-3.939c-1.101,0.469-2.2,0.938-3.499,1.492c-0.06-1.909-0.529-3.735,1.135-5.027
		c1.338-1.038,2.803-1.912,4.212-2.859c-0.075-0.155-0.15-0.311-0.226-0.466c-1.5,0.691-3.001,1.383-4.496,2.072
		c-0.787-1.788-0.495-3.759,0.953-4.882c1.399-1.086,2.961-1.962,4.444-2.939c0.237-0.156,0.442-0.362,0.662-0.546
		c-0.069-0.13-0.139-0.26-0.208-0.389c-1.94,0.905-3.88,1.811-5.826,2.719c-0.918-2.875-0.159-4.629,2.372-5.976
		c1.702-0.905,3.332-1.948,4.99-2.937c0.075-0.045,0.104-0.166-0.024-0.656c-2.502,1.202-5.004,2.405-7.504,3.607
		c-1.098-3.146-0.532-5.017,2.126-6.773c1.545-1.021,3.156-1.94,4.738-2.905c-0.096-0.176-0.19-0.351-0.286-0.526
		c-2.26,1.134-4.521,2.267-6.774,3.398c-1.87-5.491,2.337-7.256,6.045-9.324c-0.154-0.175-0.309-0.35-0.463-0.525
		c-1.928,0.95-3.855,1.9-6.05,2.982c0.316-1.874-0.774-3.92,0.676-5.51c1.265-1.386,2.945-2.393,4.442-3.567
		c-0.062-0.125-0.123-0.25-0.184-0.375c-1.616,0.787-3.231,1.575-4.841,2.359c-1.366-4.069,0.572-6.586,4.159-8.353
		c-0.144-0.128-0.288-0.255-0.432-0.383c-1.306,0.604-2.611,1.208-4.121,1.907c-0.15-3.215-0.293-6.25-0.435-9.285
		c-0.194-0.006-0.388-0.013-0.582-0.02c-0.098,1.483-0.233,2.964-0.28,4.449c-0.049,1.543-0.011,3.089-0.011,4.909
		c-1.689-0.787-3.002-1.398-4.316-2.01c-0.054,0.09-0.108,0.179-0.163,0.269c1.232,1.093,2.883,1.972,3.58,3.337
		c0.719,1.409,0.509,3.291,0.757,5.398c-2.118-1-3.783-1.787-5.447-2.573c-0.008,0.073-0.017,0.146-0.024,0.219
		c1.649,1.523,3.622,2.832,4.823,4.651c0.689,1.045,0.125,2.916,0.125,4.555c-2.053-1.013-3.999-1.974-5.945-2.934
		c-0.088,0.168-0.177,0.336-0.265,0.505c1.152,0.723,2.288,1.474,3.46,2.163c2.716,1.596,3.533,3.95,2.341,7.129
		c-2.326-1.165-4.642-2.324-6.505-3.257c-0.285-3.377-0.45-6.524-0.837-9.643c-0.535-4.307,1.028-7.962,3.347-11.366
		c1.692-2.485,3.591-4.83,5.685-7.619c2.195,2.914,4.175,5.502,6.104,8.126c0.506,0.688,0.872,1.482,1.276,2.241
		c1.689,3.173,2.176,6.521,1.35,10.024c-0.987,4.187-0.632,8.03,2.139,11.6c0.847,1.092,1.142,2.828,1.191,4.286
		c0.214,6.187-1.199,12.053-3.688,17.719c-2.052,4.668-4.559,9.027-7.768,12.986c-0.164,0.201-0.334,0.397-0.781,0.929
		c-1.878-2.753-3.789-5.27-5.396-7.967c-3.222-5.408-5.37-11.252-6.198-17.509c-0.323-2.439-0.412-4.936-0.309-7.394
		c0.046-1.11,0.739-2.234,1.292-3.269c0.527-0.987,1.255-1.867,1.895-2.796c1.334,0.779,2.652,1.589,4.006,2.333
		c2.313,1.272,3.85,2.935,3.25,5.833c-0.105,0.511-0.015,1.062-0.015,1.777c-2.692-1.318-5.286-2.589-7.879-3.859
		c-0.093,0.178-0.187,0.354-0.28,0.532c1.633,0.952,3.254,1.924,4.9,2.853c2.89,1.629,3.576,3.061,2.887,6.316
		c-2.009-0.973-4-1.935-5.989-2.897c-0.096,0.188-0.192,0.378-0.289,0.566c1.212,0.708,2.417,1.429,3.637,2.122
		c2.687,1.525,3.464,3.21,2.758,6.224c-1.565-0.718-3.115-1.43-4.666-2.141c-0.122,0.146-0.244,0.291-0.366,0.437
		c2.698,1.979,6.885,3.008,5.14,7.824c-1.021-0.452-2.142-0.949-3.262-1.446c-0.04,0.093-0.08,0.185-0.12,0.276
		c1.265,1.217,2.917,2.232,3.687,3.708c0.779,1.496,0.687,3.446,0.976,5.198C36.271,67.102,36.451,67.102,36.631,67.102z"/>
</g>
</svg>
