<svg xmlns="http://www.w3.org/2000/svg" width="72.314" height="72.314" xml:space="preserve"><g clip-rule="evenodd"><path fill="currentColor" fill-rule="evenodd" d="M36.243 70.764c-3.705-3.763-9.299-4.506-14.219-6.705-5.941-2.655-11.443-5.977-13.377-12.887-.096-.343-.144-.7-.229-1.124 1.469.377 2.785.841 4.138 1.02 1.036.138 2.191.128 3.167-.196 1.461-.486 2.705-1.463 2.998-3.117.279-1.575-.602-2.644-1.832-3.51-3.78-2.66-7.155-5.734-9.619-9.696-2.387-3.838-3.963-7.899-3.051-12.535.083-.425.54-1.078.869-1.107 2.862-.252 5.722-.264 8.428.941 1.911.852 2.999 2.327 3.488 4.366.491 2.046 2.067 3.21 4.37 3.464 2.094.231 4.29-.74 5.119-2.379.274-.542.518-1.294.362-1.829-1.729-5.925.657-11.064 3.254-16.029 1.426-2.727 3.581-5.073 5.421-7.581.684-.932 1.34-.795 2.092.012 4.672 5.009 7.713 10.881 8.983 17.582.327 1.729-.066 3.639-.362 5.427-.249 1.5.072 2.644 1.211 3.598 2.988 2.506 7.595 1.215 8.613-2.476.855-3.097 3.179-4.385 6.011-4.877 1.785-.311 3.648-.257 5.471-.193.424.015 1.116.692 1.188 1.144.75 4.722-.583 8.93-3.396 12.712-.994 1.336-1.942 2.738-3.124 3.893-2.075 2.029-4.27 3.943-6.502 5.8-1.141.949-2.08 2.103-1.453 3.437.543 1.154 1.657 2.261 2.798 2.86 1.759.925 3.681.3 5.491-.306.552-.185 1.107-.357 1.819-.587-.318 3.356-2.086 5.785-4.18 8.034-3.326 3.569-7.564 5.636-12.067 7.254-1.621.583-3.315 1.012-4.857 1.757-2.293 1.105-4.479 2.428-7.023 3.833zm.388-3.662-.538.001c-.289-1.752-.196-3.702-.976-5.198-.77-1.476-2.421-2.491-3.687-3.708l.12-.276 3.262 1.446c1.745-4.816-2.442-5.845-5.14-7.824l.366-.437 4.666 2.141c.706-3.014-.071-4.698-2.758-6.224-1.221-.693-2.425-1.414-3.637-2.122l.289-.566 5.989 2.897c.689-3.256.003-4.688-2.887-6.316-1.646-.929-3.267-1.9-4.9-2.853l.28-.532 7.879 3.859c0-.716-.091-1.267.015-1.777.6-2.898-.937-4.562-3.25-5.833-1.354-.744-2.672-1.555-4.007-2.332-.639.927-1.367 1.807-1.894 2.794-.553 1.035-1.246 2.159-1.292 3.269a42.795 42.795 0 0 0 .309 7.394c.829 6.257 2.976 12.101 6.198 17.509 1.607 2.697 3.518 5.214 5.396 7.967.447-.531.617-.728.781-.929 3.209-3.959 5.716-8.318 7.768-12.986 2.489-5.666 3.902-11.532 3.688-17.719-.05-1.458-.345-3.194-1.191-4.286-2.771-3.57-3.126-7.413-2.139-11.6.826-3.504.34-6.852-1.35-10.024-.404-.759-.771-1.553-1.276-2.241-1.93-2.624-3.909-5.212-6.104-8.126-2.094 2.789-3.993 5.134-5.685 7.619-2.319 3.404-3.882 7.059-3.347 11.366.387 3.119.552 6.266.837 9.643l6.505 3.257c1.192-3.179.375-5.533-2.341-7.129-1.172-.689-2.308-1.44-3.46-2.163l.265-.505 5.945 2.934c0-1.639.564-3.51-.125-4.555-1.201-1.819-3.174-3.128-4.823-4.651l.024-.219 5.447 2.573c-.248-2.107-.038-3.989-.757-5.398-.697-1.366-2.348-2.245-3.58-3.337l.163-.269 4.316 2.01c0-1.82-.038-3.366.011-4.909.047-1.484.183-2.966.28-4.449l.582.02.435 9.285 4.121-1.907.432.383c-3.587 1.767-5.525 4.284-4.159 8.353l4.841-2.359.184.375c-1.497 1.174-3.178 2.181-4.442 3.567-1.45 1.589-.359 3.636-.676 5.51l6.05-2.982.463.525c-3.708 2.068-7.915 3.833-6.045 9.324l6.774-3.398.286.526c-1.582.965-3.193 1.884-4.738 2.905-2.658 1.756-3.224 3.627-2.126 6.773l7.504-3.607c.129.49.1.611.024.656-1.658.988-3.288 2.031-4.99 2.937-2.531 1.347-3.29 3.101-2.372 5.976l5.826-2.719.208.389c-.22.184-.425.39-.662.546-1.483.978-3.045 1.854-4.444 2.939-1.448 1.123-1.74 3.094-.953 4.882l4.496-2.072.226.466c-1.409.947-2.874 1.821-4.212 2.859-1.664 1.292-1.194 3.118-1.135 5.027l3.499-1.492c-1.166 1.437-2.81 2.46-3.597 3.939-.795 1.494-.739 3.44-1.055 5.188z"/><path fill="none" d="M36.631 67.102c.316-1.747.26-3.693 1.054-5.188.787-1.479 2.431-2.503 3.597-3.939l-3.499 1.492c-.06-1.909-.529-3.735 1.135-5.027 1.338-1.038 2.803-1.912 4.212-2.859l-.226-.466-4.496 2.072c-.787-1.788-.495-3.759.953-4.882 1.399-1.086 2.961-1.962 4.444-2.939.237-.156.442-.362.662-.546l-.208-.389-5.826 2.719c-.918-2.875-.159-4.629 2.372-5.976 1.702-.905 3.332-1.948 4.99-2.937.075-.045.104-.166-.024-.656l-7.504 3.607c-1.098-3.146-.532-5.017 2.126-6.773 1.545-1.021 3.156-1.94 4.738-2.905l-.286-.526-6.774 3.398c-1.87-5.491 2.337-7.256 6.045-9.324l-.463-.525-6.05 2.982c.316-1.874-.774-3.92.676-5.51 1.265-1.386 2.945-2.393 4.442-3.567l-.184-.375-4.841 2.359c-1.366-4.069.572-6.586 4.159-8.353l-.432-.383-4.121 1.907-.435-9.285-.582-.02c-.098 1.483-.233 2.964-.28 4.449-.049 1.543-.011 3.089-.011 4.909l-4.316-2.01-.163.269c1.232 1.093 2.883 1.972 3.58 3.337.719 1.409.509 3.291.757 5.398l-5.447-2.573-.024.219c1.649 1.523 3.622 2.832 4.823 4.651.689 1.045.125 2.916.125 4.555l-5.945-2.934-.265.505c1.152.723 2.288 1.474 3.46 2.163 2.716 1.596 3.533 3.95 2.341 7.129l-6.505-3.257c-.285-3.377-.45-6.524-.837-9.643-.535-4.307 1.028-7.962 3.347-11.366 1.692-2.485 3.591-4.83 5.685-7.619 2.195 2.914 4.175 5.502 6.104 8.126.506.688.872 1.482 1.276 2.241 1.689 3.173 2.176 6.521 1.35 10.024-.987 4.187-.632 8.03 2.139 11.6.847 1.092 1.142 2.828 1.191 4.286.214 6.187-1.199 12.053-3.688 17.719-2.052 4.668-4.559 9.027-7.768 12.986-.164.201-.334.397-.781.929-1.878-2.753-3.789-5.27-5.396-7.967-3.222-5.408-5.37-11.252-6.198-17.509a42.891 42.891 0 0 1-.309-7.394c.046-1.11.739-2.234 1.292-3.269.527-.987 1.255-1.867 1.895-2.796 1.334.779 2.652 1.589 4.006 2.333 2.313 1.272 3.85 2.935 3.25 5.833-.105.511-.015 1.062-.015 1.777l-7.879-3.859-.28.532c1.633.952 3.254 1.924 4.9 2.853 2.89 1.629 3.576 3.061 2.887 6.316-2.009-.973-4-1.935-5.989-2.897l-.289.566c1.212.708 2.417 1.429 3.637 2.122 2.687 1.525 3.464 3.21 2.758 6.224l-4.666-2.141-.366.437c2.698 1.979 6.885 3.008 5.14 7.824l-3.262-1.446-.12.276c1.265 1.217 2.917 2.232 3.687 3.708.779 1.496.687 3.446.976 5.198h.539z"/></g></svg>