<?xml version="1.0" standalone="no"?>
<!DOCTYPE svg PUBLIC "-//W3C//DTD SVG 20010904//EN"
 "http://www.w3.org/TR/2001/REC-SVG-20010904/DTD/svg10.dtd">
<svg version="1.0" xmlns="http://www.w3.org/2000/svg"
 width="45.000000pt" height="50.000000pt" viewBox="0 0 45.000000 50.000000"
 preserveAspectRatio="xMidYMid meet">
<metadata>
Created by potrace 1.10, written by Peter Selinger 2001-2011
</metadata>
<g transform="translate(0.000000,50.000000) scale(0.100000,-0.100000)"
fill="#000000" stroke="none">
<path d="M130 481 c17 -5 26 -15 28 -34 3 -22 -5 -32 -51 -61 -37 -24 -58 -45
-66 -68 -7 -18 -19 -46 -27 -61 -20 -40 -18 -60 11 -87 19 -18 31 -21 55 -16
48 9 138 67 144 92 7 27 31 37 57 24 50 -27 -3 -108 -109 -170 -40 -23 -63
-43 -67 -59 -3 -13 -4 -25 -2 -27 2 -3 28 11 57 31 60 40 75 44 60 14 -11 -19
-9 -20 17 -17 20 2 32 12 43 35 18 39 30 42 30 8 0 -14 4 -25 8 -25 17 0 42
37 42 63 0 34 15 42 33 17 14 -20 14 -20 25 4 8 18 7 30 -4 51 -14 28 -4 60
10 36 4 -6 12 -11 17 -11 18 0 -3 55 -30 77 -26 22 -26 22 -3 23 12 0 22 4 22
8 0 17 -37 42 -63 42 -29 0 -34 9 -15 28 19 19 -32 33 -59 16 -35 -22 -48 -17
-29 11 16 24 15 25 -3 25 -11 0 -27 -10 -35 -22 -12 -17 -16 -18 -16 -7 0 32
-40 69 -73 68 -30 -1 -30 -1 -7 -8z m6 -136 c8 -19 -13 -45 -35 -45 -14 1 -14
2 -1 13 9 7 14 20 12 30 -4 21 16 23 24 2z m-4 -106 c-4 -29 -31 -52 -54 -45
-10 2 -21 0 -24 -5 -3 -5 -12 -9 -20 -9 -10 0 -7 7 8 23 13 12 27 21 31 19 5
-1 6 2 3 7 -7 11 34 43 49 38 5 -2 9 -15 7 -28z m-92 -3 c0 -3 -5 -8 -12 -12
-7 -4 -8 -3 -4 4 7 12 16 16 16 8z"/>
</g>
</svg>
