<svg data-name="Layer 1" xmlns="http://www.w3.org/2000/svg" viewBox="0 0 72 72"><path fill="currentColor" d="M23.7 40.9c2-.6 4.1-1.1 6.1-1.7V39c-4.3 0-9.2.9-12.7-1.8-3.2-2.5-6-5.5-8.4-8.8-2.2-3.1-4.8-6.8-5-10.7-.3-4.9 5.5-2.6 8.2-1.9l-5.7-5.7C4.7 8.6 3.8 7.8 4.5 5.6c1.1.9 2.1 1.8 3.1 2.7.3-1.9-1.6-2.3-2-3.7 2.1-1.2 3.9 1.2 5.2 2.5l2.7 2.7c.7.7 1.5 1.8 2.5 2.1-.7-1.7-1.9-4.6-1.3-6.5.7-2 3.3-1.6 4.9-1.3 1.8.4 4.6 1.5 5.9 2.9.7.7.9 2.2 1.2 3.2.4 1.3.9 2.6 1.4 3.8 0-1.7-.2-3.4-.3-5.4 6.2 4.5 11 9.8 14.4 16.7 2 4 3.7 8.2 5.5 12.4l2.4 5.7c.9 2.1 1.6 4.5 3.1 6.3 3 3.4 6.4 6.5 9.6 9.7l4.7 4.7c1.1 1.2 2.6 2.6 1.6 4.3-2.4 4.1-7.4-2.9-9.1-4.5l-9.6-9.6c-3.4-3.3-8.5-4.8-12.7-6.6-4.6-2-9.6-3.8-13.9-6.3V41z"/></svg>