<svg xmlns="http://www.w3.org/2000/svg" xml:space="preserve" width="72px" height="72px" viewBox="0 0 72 72">
    <path fill="currentColor" d="M39.414 62.15c.074-.791.021-1.621.242-2.371 1.248-4.215 1.701-8.53 1.512-12.895-.447-10.294-4.266-19.055-12.147-25.87-3.418-2.956-4.534-6.657-3.691-11.006.373-1.926 3.191-3.674 5.829-3.862 2.964-.211 4.928 1.434 6.5 3.555 4.271 5.764 7.854 11.994 9.427 18.999.891 3.965.654 8.229.588 12.351-.094 5.722-2.104 10.991-4.564 16.07-.893 1.84-2.092 3.53-3.151 5.289zm-24.462-.16c-2.947-1.944-5.225-4.538-7.05-7.555-2.257-3.729-3.312-7.804-3.736-12.129-.504-5.146-.048-10.192.988-15.217.407-1.974.805-3.955 1.353-5.891.702-2.483 2.737-4.01 4.666-5.383.658-.469 2.568-.014 3.331.665 1.865 1.659 3.542 3.587 5.015 5.612 1.333 1.833 1.229 3.818-.111 5.828-3.387 5.081-5.766 10.65-6.932 16.633-1.042 5.348-.439 10.586 2.184 15.481.288.538.476 1.129.71 1.694q-.211.131-.418.262m45.773-5.72c.627-2.408 1.219-4.828 1.887-7.226 1.394-5.006 2.417-10.044.943-15.204-1.873-6.561-6.297-10.953-12.217-14.013-.095-.049-.209-.058-.305-.103-3.684-1.755-4.809-4.529-3.738-8.619.467-1.78 1.068-3.338 2.98-3.794.797-.19 1.934-.193 2.533.243 4.391 3.193 8.765 6.389 11.795 11.091 2.849 4.417 4.775 9.212 4.977 14.365.128 3.272-.743 6.733-1.848 9.869-1.521 4.313-3.676 8.398-5.586 12.57-.182.396-.551.707-.834 1.058q-.293-.116-.587-.237"/>
</svg>
