<svg data-name="Layer 1" xmlns="http://www.w3.org/2000/svg" viewBox="0 0 72 72"><path fill="currentColor" d="M23.3 2.8h2c.4.1.7.3 1.1.4 5.3 1.4 7.7 4.3 8.1 9.8 0 .2.2.4.4 1 1.9-4 4.6-5.9 8.7-4.5-1.1 1.8-2.2 3.6-3.4 5.4 1.2.8 1.9.5 2.7-.1 2.9-2.4 5.9-3.8 9.5-1.4.6.4 1.3.6 1.9.9.4.2.8.5 1.1.8-1.6 1-3.1 1.9-4.7 2.8 1.5 1.1 2.6 1.9 4.4 1.6 1.6-.2 3.8-.4 4.8.5 1.9 1.6 3.3 4 4.9 6-.1.1-.2.2-.3.4h-5.4c.3 2 1.3 3.1 2.9 3.8 1.3.6 2.9 1.4 3.3 2.6.9 2.4 1.1 5 .8 7.6-1.7-.9-3.3-1.8-5.1-2.7-.7 2.7-.7 2.7.6 4.7.5.8.9 1.6 1.3 2.4.3.7.8 1.5.6 2.1-.7 2.5-1.6 4.9-3.3 7.2-.8-2.4-1.9-4.3-3.8-5.6-1.3 1-1.8 2-1.5 3.7.6 3.2.2 6.3-3.3 8-.4.2-.7.5-1 .7-.8.5-1.6.9-2.5 1.5.2-4.7 0-5.8-1.1-7.2-1.4.3-1.9 1-2.3 2.5-.6 2.2-1.8 4.3-3.2 6.1-.7.9-2.6.8-4 1.1-.3 0-.6.1-.8.1h-3.5c1.5-1.7 2.6-3.3 2.8-5.7-5.9 2.5-11.2 5.4-15.5 10h-.3c0-1.5.1-2.9 0-4.4-.1-3 1.7-4.6 4.1-6 4.7-2.8 9.3-5.8 13.7-9 3.8-2.7 6.9-6 7.9-10.8.4-1.8 0-3.4-1.2-4.8-1.3-1.6-3.5-2.1-5.3-1.4-2.2.9-3 2.3-3 4.7 0 .5-.4 1.1-.8 1.3-5.6 4.2-11.7 7.7-18.2 10.3-3.2 1.3-7-.4-8.2-3.7 0 0 0-.2 0 0 1.2-.1 2.2-.2 3.2-.3 0-.9 0-1.6-.1-2.2.7 1.1 1.4 1.7 2.5.9-.1-.9-.2-1.6-.3-2.4.5.2.6.4.8.7 1 1.6 1.8 1.9 3.5 1.1 1.1-.5 2.1-1 3.1-1.7 2.2-1.5 3.4-2.6 1.2-5.9v-.6c.7.4 1.4.8 2 1.2-.3-2.6-2.3-3.7-4.4-2.6-.8.4-1.6.9-2.3 1.4-2.6 1.8-2.7 1.9-1.5 4.9 0 0 0 .3-.2.9-.7-1-1.2-1.7-1.9-2.5-1.2 1.8-2.3 3.3-3.4 4.9 0 .1.2.5.2.6-1.1 0-2.2-.2-3.5-.3.2.8.3 1.2.5 1.9-.6-.4-.8-.5-1.1-.7-2.2-2.1-2.6-6.1-.6-8.4 1.2-1.5 2.2-3.1 2.8-4.9.5-1.9 1-3.9 1.7-5.7 1.3-3.3 3.2-6.2 7-7.1.5-.1 1.1-.4 1.5-.7 1.9-1.3 3.7-2.7 5.5-4.1 2-1.5 2.7-4 1.8-6.2-1-2.3-3-3.4-5.5-3H21c0-1.6 1.5-1.3 2.2-1.9zm-4.6 26.8c.1.1.3.2.4.4 1.7-1.2 3.5-2.2 5-3.5 1.4-1.3 1.2-3.3 0-4.8-1.1-1.3-1.8-1.3-2.7.1-.6.8-1 1.6-.2 2.6.5.7.8 1.5 1.2 2.3-1.3.9-1.8-.5-2.9-1.1-.2 1.4-.5 2.7-.7 4zm-6.4 6.8c-2.1.7-3 1.7-2.8 3.2.9-1 1.8-2 2.8-3.2z"/></svg>