<?xml version="1.0" encoding="utf-8"?>
<!-- Generator: Adobe Illustrator 16.0.0, SVG Export Plug-In . SVG Version: 6.00 Build 0)  -->
<!DOCTYPE svg PUBLIC "-//W3C//DTD SVG 1.1//EN" "http://www.w3.org/Graphics/SVG/1.1/DTD/svg11.dtd">
<svg version="1.1" id="Layer_1" xmlns="http://www.w3.org/2000/svg" xmlns:xlink="http://www.w3.org/1999/xlink" x="0px" y="0px"
	 width="72px" height="72px" viewBox="0 0 72 72" enable-background="new 0 0 72 72" xml:space="preserve">
<g>
	<path fill="currentColor" d="M72,37.298c-0.493,0.476-1.01,0.931-1.473,1.433c-0.969,1.056-2.221,1.5-3.307,0.569c-2.56-2.198-5.718-2.026-8.712-2.542
		c-1.214-0.209-2.452-0.29-3.653-0.547c-1.748-0.373-3.021,0.218-4.102,1.586c-0.79,1.001-1.665,1.955-2.615,2.805
		c-0.897,0.799-1.045,1.586-0.082,2.266c3.096,2.185,3.758,5.669,4.836,8.91c0.559,1.682,1.379,3.012,3.029,3.766
		c0.905,0.414,1.87,0.902,1.316,2.164c-0.405,0.929-2.147,1.172-2.967,0.212c-1.459-1.707-2.791-3.552-3.946-5.478
		c-0.96-1.6-1.476-3.465-2.433-5.068c-0.334-0.564-1.392-0.699-2.119-1.029c-0.213,0.698-0.7,1.445-0.586,2.086
		c0.271,1.528,0.93,2.984,1.25,4.51c0.558,2.658-0.758,4.41-3.451,4.799c-4.116,0.597-7.323-1.338-8.813-5.449
		c-0.841-2.321-1.688-4.668-2.208-7.074c-0.634-2.936-2.108-5.521-3.822-7.736c-1.918-2.479-4.716-4.276-7.132-6.372
		c-0.189,0.166-0.379,0.332-0.569,0.498c1.151,1.483,2.256,3.005,3.469,4.435c0.8,0.942,1.677,1.856,2.658,2.601
		c1.672,1.27,1.695,2.832,1.208,4.637c-0.801,2.968-1.651,5.932-2.256,8.94c-0.583,2.901-1.012,5.849-1.254,8.796
		c-0.125,1.516,0.245,3.086,0.503,4.611c0.143,0.848,0.681,1.775-0.504,2.18c-1.092,0.372-2.215,0.025-2.506-1.133
		c-0.456-1.813-0.809-3.695-0.853-5.559c-0.058-2.448-0.349-3.35-2.606-4.278c-3.638-1.501-6.689-3.662-8.817-7.038
		c-0.854-1.354-2.021-2.12-3.76-2.074c-1.508,0.039-2.111-1.09-1.342-2.438c1.307-2.291,2.761-4.497,4.106-6.767
		c0.458-0.773,0.773-1.632,1.154-2.451c-0.192-0.155-0.385-0.312-0.577-0.468c-0.646,0.453-1.44,0.789-1.91,1.381
		c-0.965,1.221-1.706,2.617-2.649,3.856c-0.346,0.455-1.004,0.674-1.52,1c-0.364-0.614-1.037-1.228-1.042-1.843
		c-0.021-3.073-0.097-6.175,0.278-9.213c0.586-4.741,1.997-9.288,4.584-13.363c1.902-2.996,4.887-4.479,8.271-4.767
		c5.164-0.439,10.342-0.667,15.375-2.03c1.037-0.28,2.062-0.641,3.046-1.07c4.816-2.102,9.428-1.951,13.829,1.108
		c1.905,1.324,3.786,2.699,5.794,3.851c0.896,0.515,2.354,1.063,3.083,0.685c2.707-1.406,4.554,0.037,6.183,1.648
		c2.002,1.984,3.209,4.474,2.883,7.45c-0.17,1.565,0.44,2.75,1.451,3.946c1.516,1.798,2.782,3.804,4.184,5.7
		c0.304,0.409,0.726,0.729,1.092,1.09C72,35.784,72,36.541,72,37.298z M41.688,54.568c0.479-0.418,1.604-0.971,1.982-1.846
		c0.51-1.181,0.434-2.609,0.625-3.93c0.129-0.878,0.184-1.785,0.455-2.62c0.416-1.282,0.457-2.413-0.596-3.417
		c-1.756-1.676-3.522-3.343-5.213-5.083c-0.33-0.342-0.332-1.005-0.484-1.519c0.492,0.077,1.08,0.009,1.458,0.259
		c1.349,0.89,2.651,1.853,3.921,2.854c1.6,1.262,2.168,1.139,3.287-0.521c0.486-0.723,1.255-1.299,1.99-1.803
		c1.398-0.958,1.438-2.236,0.072-3.238c-3.107-2.28-6.459-4.013-10.164-5.169c-1.229-0.383-2.201-1.605-3.284-2.452
		c-0.54-0.422-1.065-0.862-1.597-1.294c-0.431,0.636-1.042,1.217-1.251,1.919c-0.366,1.23-0.558,2.526-0.686,3.808
		c-0.109,1.1-0.256,2.279,0.017,3.316c0.615,2.333,1.514,4.589,2.236,6.896c1.109,3.545,2.104,7.129,3.273,10.651
		C38.249,52.938,39.128,54.34,41.688,54.568z M9.445,43.236c0.11,0.51,0.152,1.062,0.348,1.553c1.697,4.261,5.037,6.872,9.007,8.797
		c1.041,0.505,1.975,0.132,2.713-0.781c1.976-2.447,1.761-4.818-0.814-7.062c-2.108-1.837-4.521-3.364-6.436-5.374
		c-2.033-2.135-3.521-2.139-4.561,1.57C9.587,42.352,9.534,42.779,9.445,43.236z M22.415,42.79c1.656-0.026,2.355-1.108,1.555-2.104
		c-1.713-2.127-3.511-4.215-5.493-6.087c-1.438-1.358-2.716-1.155-3.602,0.076c-0.769,1.069-0.441,2.09,1.029,3.266
		c1.638,1.311,3.249,2.656,4.911,3.936C21.388,42.316,22.082,42.604,22.415,42.79z M45.661,22.008
		c1.194-0.038,1.668-0.857,0.896-1.847c-1.086-1.389-2.315-2.676-3.576-3.913c-0.433-0.423-1.117-0.658-1.729-0.812
		c-1.331-0.335-2.1,0.482-1.771,1.797C40.021,19.414,43.471,22.078,45.661,22.008z M17.52,26.316
		c-0.063,1.717,0.91,3.274,2.241,3.693C19.948,28.205,18.51,27.504,17.52,26.316z"/>
	<path fill="currentColor" d="M57.624,39.652c0.038,1.117-1.929,3.076-3.024,2.854c-0.375-0.075-0.976-0.937-0.873-1.139
		c0.508-1.021,1.049-2.138,1.895-2.845C56.65,37.663,57.577,38.279,57.624,39.652z"/>
	<path fill="currentColor" d="M66.666,41.611c0.066,1.436-2.715,4.059-3.664,3.767c-0.279-0.086-0.648-0.916-0.546-1.037
		c0.94-1.104,1.94-2.172,3.028-3.13C65.658,41.059,66.354,41.498,66.666,41.611z"/>
</g>
</svg>
