<svg xmlns="http://www.w3.org/2000/svg" xml:space="preserve" width="72px" height="72px" viewBox="0 0 72 72">
    <g fill="currentColor">
        <path d="M72 37.298c-.493.476-1.01.931-1.473 1.433-.969 1.056-2.221 1.5-3.307.569-2.56-2.198-5.718-2.026-8.712-2.542-1.214-.209-2.452-.29-3.653-.547-1.748-.373-3.021.218-4.102 1.586a22.3 22.3 0 0 1-2.615 2.805c-.897.799-1.045 1.586-.082 2.266 3.096 2.185 3.758 5.669 4.836 8.91.559 1.682 1.379 3.012 3.029 3.766.905.414 1.87.902 1.316 2.164-.405.929-2.147 1.172-2.967.212a40.6 40.6 0 0 1-3.946-5.478c-.96-1.6-1.476-3.465-2.433-5.068-.334-.564-1.392-.699-2.119-1.029-.213.698-.7 1.445-.586 2.086.271 1.528.93 2.984 1.25 4.51.558 2.658-.758 4.41-3.451 4.799-4.116.597-7.323-1.338-8.813-5.449-.841-2.321-1.688-4.668-2.208-7.074-.634-2.936-2.108-5.521-3.822-7.736-1.918-2.479-4.716-4.276-7.132-6.372l-.569.498c1.151 1.483 2.256 3.005 3.469 4.435.8.942 1.677 1.856 2.658 2.601 1.672 1.27 1.695 2.832 1.208 4.637-.801 2.968-1.651 5.932-2.256 8.94a77 77 0 0 0-1.254 8.796c-.125 1.516.245 3.086.503 4.611.143.848.681 1.775-.504 2.18-1.092.372-2.215.025-2.506-1.133-.456-1.813-.809-3.695-.853-5.559-.058-2.448-.349-3.35-2.606-4.278-3.638-1.501-6.689-3.662-8.817-7.038-.854-1.354-2.021-2.12-3.76-2.074-1.508.039-2.111-1.09-1.342-2.438 1.307-2.291 2.761-4.497 4.106-6.767.458-.773.773-1.632 1.154-2.451l-.577-.468c-.646.453-1.44.789-1.91 1.381-.965 1.221-1.706 2.617-2.649 3.856-.346.455-1.004.674-1.52 1-.364-.614-1.037-1.228-1.042-1.843-.021-3.073-.097-6.175.278-9.213.586-4.741 1.997-9.288 4.584-13.363 1.902-2.996 4.887-4.479 8.271-4.767 5.164-.439 10.342-.667 15.375-2.03a22 22 0 0 0 3.046-1.07c4.816-2.102 9.428-1.951 13.829 1.108 1.905 1.324 3.786 2.699 5.794 3.851.896.515 2.354 1.063 3.083.685 2.707-1.406 4.554.037 6.183 1.648 2.002 1.984 3.209 4.474 2.883 7.45-.17 1.565.44 2.75 1.451 3.946 1.516 1.798 2.782 3.804 4.184 5.7.304.409.726.729 1.092 1.09q.005 1.132.004 2.268m-30.312 17.27c.479-.418 1.604-.971 1.982-1.846.51-1.181.434-2.609.625-3.93.129-.878.184-1.785.455-2.62.416-1.282.457-2.413-.596-3.417-1.756-1.676-3.522-3.343-5.213-5.083-.33-.342-.332-1.005-.484-1.519.492.077 1.08.009 1.458.259a58 58 0 0 1 3.921 2.854c1.6 1.262 2.168 1.139 3.287-.521.486-.723 1.255-1.299 1.99-1.803 1.398-.958 1.438-2.236.072-3.238-3.107-2.28-6.459-4.013-10.164-5.169-1.229-.383-2.201-1.605-3.284-2.452-.54-.422-1.065-.862-1.597-1.294-.431.636-1.042 1.217-1.251 1.919-.366 1.23-.558 2.526-.686 3.808-.109 1.1-.256 2.279.017 3.316.615 2.333 1.514 4.589 2.236 6.896 1.109 3.545 2.104 7.129 3.273 10.651.52 1.559 1.399 2.961 3.959 3.189M9.445 43.236c.11.51.152 1.062.348 1.553 1.697 4.261 5.037 6.872 9.007 8.797 1.041.505 1.975.132 2.713-.781 1.976-2.447 1.761-4.818-.814-7.062-2.108-1.837-4.521-3.364-6.436-5.374-2.033-2.135-3.521-2.139-4.561 1.57-.115.413-.168.84-.257 1.297m12.97-.446c1.656-.026 2.355-1.108 1.555-2.104-1.713-2.127-3.511-4.215-5.493-6.087-1.438-1.358-2.716-1.155-3.602.076-.769 1.069-.441 2.09 1.029 3.266 1.638 1.311 3.249 2.656 4.911 3.936.573.439 1.267.727 1.6.913m23.246-20.782c1.194-.038 1.668-.857.896-1.847-1.086-1.389-2.315-2.676-3.576-3.913-.433-.423-1.117-.658-1.729-.812-1.331-.335-2.1.482-1.771 1.797.54 2.181 3.99 4.845 6.18 4.775M17.52 26.316c-.063 1.717.91 3.274 2.241 3.693.187-1.804-1.251-2.505-2.241-3.693"/>
        <path d="M57.624 39.652c.038 1.117-1.929 3.076-3.024 2.854-.375-.075-.976-.937-.873-1.139.508-1.021 1.049-2.138 1.895-2.845 1.028-.859 1.955-.243 2.002 1.13m9.042 1.959c.066 1.436-2.715 4.059-3.664 3.767-.279-.086-.648-.916-.546-1.037.94-1.104 1.94-2.172 3.028-3.13.174-.152.87.287 1.182.4"/>
    </g>
</svg>
