<svg xmlns="http://www.w3.org/2000/svg" xml:space="preserve" width="72px" height="72px" viewBox="0 0 72 72">
    <g fill="currentColor">
        <path d="M56.355 43.763c-4.188 0-8.275-.057-12.359.022-2.356.045-4.75.135-6.511 2.147-.888 1.018-1.854.914-2.756-.063-1.501-1.625-3.411-2.101-5.555-2.084-3.836.027-7.672-.024-11.509-.056-.456-.004-.911-.084-1.41-.133.847-2.385 2.249-3.26 4.34-2.573 3.64 1.194 7.369.707 11.063.721 1.573.005 1.839-1.532 1.993-2.694.184-1.374-.001-2.794-.004-4.194q-.004-4.184.012-8.366c.013-4.536.044-9.072.041-13.607-.001-1.447-.869-2.165-2.194-2.58-.518-.162-.911-.718-1.361-1.095.426-.479.817-.996 1.287-1.427.581-.534 1.519-.873 1.79-1.514.742-1.749 2.198-1.478 3.551-1.551 1.214-.066 1.938.498 2.42 1.684.235.581 1.127.885 1.699 1.342.567.454 1.434.859 1.584 1.438.249.952-.607 1.085-1.451 1.192-1.847.233-2.451.989-2.429 3.127.044 3.995.274 7.989.273 11.982-.002 4.145-.23 8.288-.277 12.433-.036 3.132.77 3.892 3.889 3.869 3.214-.022 6.43.221 9.579-.887 1.95-.681 4.159.709 4.295 2.867"/>
        <path d="M42.024 67.75c-3.472 0-6.923-.02-10.375.011-1.085.01-1.204-.598-1.198-1.463.018-3.079.076-6.163-.036-9.239-.087-2.393-.484-4.771-.591-7.166-.052-1.151.147-2.35.472-3.457.07-.24 1.282-.428 1.761-.202.799.377 1.457 1.08 2.129 1.695 1.333 1.219 2.662 1.237 3.951-.045 1.13-1.124 2.242-2.234 4.201-1.796.472 1.473 1.089 2.979.421 4.679-.209.531-.267 1.148-.277 1.729-.082 4.745-.134 9.489-.21 14.235-.007.311-.147.618-.248 1.019"/>
    </g>
</svg>
