<svg xmlns="http://www.w3.org/2000/svg" xml:space="preserve" width="72px" height="72px" viewBox="0 0 72 72">
    <path fill="currentColor" d="M27.399 47.059c-3.007 1.94-11.449-1.478-14.26-5.58-3.672-5.359-3.41-16.468.379-19.269.777 1.93 1.345 4.007 2.396 5.801 1.745 2.974 5.056 4.211 8.086 2.243.489-.317.626-1.177.919-1.79.014-.03-.062-.093-.062-.141.003-2.426-.724-4.392-2.368-6.385-1.202-1.457-1.211-3.904-1.728-5.916-.246-.959-.437-1.933-.701-3.122.517.214.892.275 1.139.486 2.003 1.71 4.055 3.375 5.931 5.218.673.662.809 1.838 1.366 2.659.462.68 1.154 1.22 1.803 1.749.314.256.887.238 1.134.525 1.222 1.414 2.214.884 3.189-.267.139-.164.283-.358.469-.441 1.515-.687 2.647-1.748 2.802-3.451.205-2.268.203-4.585-1.45-6.414-1.496-1.656-3.125-3.194-4.718-4.759-.302-.297-.713-.481-1.073-.718l.227-.508c.536-.053 1.075-.172 1.606-.145 1.207.062 2.409.229 3.615.294 2.976.163 5.7 1.195 8.333 2.462 1.242.598 2.422 1.375 3.523 2.21 2.453 1.857 4.217 4.255 5.506 7.068 1.063 2.316 2.021 4.729 1.609 7.207-.454 2.733-.28 5.656-1.873 8.164-.385.604-.411 1.424-.662 2.123a3.37 3.37 0 0 1-1.165 1.621c-.151-.578-.269-1.172-.464-1.736-.987-2.838-1.834-5.742-3.051-8.48-.904-2.033-3.512-2.437-6.096-1.08-1.607.843-3.06 1.987-4.562 3.023-1.111.766-.978 1.675-.188 2.588 1.404 1.625 2.211 3.456 2.271 5.648.016.611.504 1.238.854 1.811 1.352 2.227 2.734 4.436 4.108 6.648.61.984 1.229 1.963 1.84 2.947q3.053 4.928 6.104 9.861c.533.864.467 1.36-.717 1.467-1.271.115-2.522.479-3.793.56-.479.03-1.201-.298-1.453-.692-2.73-4.275-5.397-8.595-8.067-12.911-1.063-1.717-2.061-3.476-3.152-5.174-.338-.526-.845-.974-1.349-1.36-1.914-1.472-3.531-3.104-3.916-5.659-.182-1.206-1.164-1.599-2.302-.873-1.759 1.122-3.479 2.325-5.079 3.659-.415.347-.658 1.519-.393 1.951 1.053 1.719 2.311 3.317 3.551 4.916.552.703 1.238 1.298 1.882 1.962"/>
</svg>
