<?xml version="1.0" encoding="utf-8"?>
<!-- Generator: Adobe Illustrator 16.0.0, SVG Export Plug-In . SVG Version: 6.00 Build 0)  -->
<!DOCTYPE svg PUBLIC "-//W3C//DTD SVG 1.1//EN" "http://www.w3.org/Graphics/SVG/1.1/DTD/svg11.dtd">
<svg version="1.1" id="Layer_1" xmlns="http://www.w3.org/2000/svg" xmlns:xlink="http://www.w3.org/1999/xlink" x="0px" y="0px"
	 width="72px" height="72px" viewBox="0 0 72 72" enable-background="new 0 0 72 72" xml:space="preserve">
<g>
	<path fill="currentColor" d="M27.399,47.059c-3.007,1.94-11.449-1.478-14.26-5.58c-3.672-5.359-3.41-16.468,0.379-19.269
		c0.777,1.93,1.345,4.007,2.396,5.801c1.745,2.974,5.056,4.211,8.086,2.243c0.489-0.317,0.626-1.177,0.919-1.79
		c0.014-0.03-0.062-0.093-0.062-0.141c0.003-2.426-0.724-4.392-2.368-6.385c-1.202-1.457-1.211-3.904-1.728-5.916
		c-0.246-0.959-0.437-1.933-0.701-3.122c0.517,0.214,0.892,0.275,1.139,0.486c2.003,1.71,4.055,3.375,5.931,5.218
		c0.673,0.662,0.809,1.838,1.366,2.659c0.462,0.68,1.154,1.22,1.803,1.749c0.314,0.256,0.887,0.238,1.134,0.525
		c1.222,1.414,2.214,0.884,3.189-0.267c0.139-0.164,0.283-0.358,0.469-0.441c1.515-0.687,2.647-1.748,2.802-3.451
		c0.205-2.268,0.203-4.585-1.45-6.414c-1.496-1.656-3.125-3.194-4.718-4.759c-0.302-0.297-0.713-0.481-1.073-0.718
		c0.076-0.169,0.151-0.338,0.227-0.508c0.536-0.053,1.075-0.172,1.606-0.145c1.207,0.062,2.409,0.229,3.615,0.294
		c2.976,0.163,5.7,1.195,8.333,2.462c1.242,0.598,2.422,1.375,3.523,2.21c2.453,1.857,4.217,4.255,5.506,7.068
		c1.063,2.316,2.021,4.729,1.609,7.207c-0.454,2.733-0.28,5.656-1.873,8.164c-0.385,0.604-0.411,1.424-0.662,2.123
		c-0.204,0.565-0.498,1.098-1.165,1.621c-0.151-0.578-0.269-1.172-0.464-1.736c-0.987-2.838-1.834-5.742-3.051-8.48
		c-0.904-2.033-3.512-2.437-6.096-1.08c-1.607,0.843-3.06,1.987-4.562,3.023c-1.111,0.766-0.978,1.675-0.188,2.588
		c1.404,1.625,2.211,3.456,2.271,5.648c0.016,0.611,0.504,1.238,0.854,1.811c1.352,2.227,2.734,4.436,4.108,6.648
		c0.61,0.984,1.229,1.963,1.84,2.947c2.036,3.285,4.069,6.573,6.104,9.861c0.533,0.864,0.467,1.36-0.717,1.467
		c-1.271,0.115-2.522,0.479-3.793,0.56c-0.479,0.03-1.201-0.298-1.453-0.692c-2.73-4.275-5.397-8.595-8.067-12.911
		c-1.063-1.717-2.061-3.476-3.152-5.174c-0.338-0.526-0.845-0.974-1.349-1.36c-1.914-1.472-3.531-3.104-3.916-5.659
		c-0.182-1.206-1.164-1.599-2.302-0.873c-1.759,1.122-3.479,2.325-5.079,3.659c-0.415,0.347-0.658,1.519-0.393,1.951
		c1.053,1.719,2.311,3.317,3.551,4.916C26.069,45.8,26.755,46.395,27.399,47.059z"/>
</g>
</svg>
