<?xml version="1.0" encoding="utf-8"?>
<!-- Generator: Adobe Illustrator 16.0.0, SVG Export Plug-In . SVG Version: 6.00 Build 0)  -->
<!DOCTYPE svg PUBLIC "-//W3C//DTD SVG 1.1//EN" "http://www.w3.org/Graphics/SVG/1.1/DTD/svg11.dtd">
<svg version="1.1" id="Layer_1" xmlns="http://www.w3.org/2000/svg" xmlns:xlink="http://www.w3.org/1999/xlink" x="0px" y="0px"
	 width="72px" height="72px" viewBox="0 0 72 72" enable-background="new 0 0 72 72" xml:space="preserve">
<g>
	<path fill="currentColor" d="M59.02,36.68c-1.09-3.41-2.31-6.86-4.069-9.959c-3.13-5.55-7.021-10.58-12.28-14.37c-3.56-2.56-7.38-4.55-11.9-4.55
		c-3.01,0-5.7,0.76-8.14,2.08c2.19-1,4.3-0.87,6.99-1.07c3.32-0.25,9.88,3.31,12.63,5.88c2.75,2.56,9.01,8.55,11.13,12.87
		c3.24,6.64,4.061,10.13,5,14.94c0.93,4.81,1.5,8.31-1.63,12.62c-2.93,4.05-7.15,5.67-7.67,5.86c-0.01,0-0.01,0.01-0.021,0.01
		c-1.13,0.63-2.619-0.391-5.54-1.95c-5.13-2.74-9.26-6.79-12.77-11.49c-3.47-4.649-6.29-9.66-8.23-15.08
		c-1.36-3.82-2.54-7.76-2.68-11.91c0,0-1.11-3.27-0.59-6.06s1.63-3.56,1.85-3.72c-1.39,0.89-2.7,1.97-3.95,3.18
		c-4.67,4.48-6.78,10-6.88,17.99C10.6,33.48,11,36.64,11.98,39.6c1.11,3.341,2.45,6.67,4.21,9.71c2.36,4.091,5.6,7.561,9.36,10.46
		c4.76,3.65,10.04,5.761,16.181,5.25c4.829-0.399,9.109-2.079,12.979-4.97c4.88-3.649,6.08-8.95,6.12-14.479
		C60.85,42.6,59.94,39.55,59.02,36.68z M23.26,13.21c5.48,1.14,10.18,3.71,14.29,7.52c4.55,4.23,8.17,9.12,10.7,14.73
		c2.85,6.31,4.65,12.9,3.41,19.95c-0.05,0.3-0.13,0.6-0.22,0.89c-0.78,2.44-1.36,3.82-2.051,4.46c1.221-0.85,5.221-3.72,6.49-5.88
		c1.5-2.57,3.5-7.57,1-15.439c-2.5-7.88-4.26-11.5-5.939-13.38c-1.69-1.87-5.69-7.94-10.131-10.68c-4.43-2.76-6.729-5.47-11.14-5.51
		c-4.26-0.04-6.79,0.9-7.92,2.34c-0.4,0.5-0.79,1.17-1.08,2C21.14,13.29,22.02,12.95,23.26,13.21z"/>
</g>
</svg>
