<svg xmlns="http://www.w3.org/2000/svg" xml:space="preserve" width="72px" height="72px" viewBox="0 0 72 72">
    <path fill="currentColor" d="M59.02 36.68c-1.09-3.41-2.31-6.86-4.069-9.959-3.13-5.55-7.021-10.58-12.28-14.37-3.56-2.56-7.38-4.55-11.9-4.55-3.01 0-5.7.76-8.14 2.08 2.19-1 4.3-.87 6.99-1.07 3.32-.25 9.88 3.31 12.63 5.88 2.75 2.56 9.01 8.55 11.13 12.87 3.24 6.64 4.061 10.13 5 14.94.93 4.81 1.5 8.31-1.63 12.62-2.93 4.05-7.15 5.67-7.67 5.86-.01 0-.01.01-.021.01-1.13.63-2.619-.391-5.54-1.95-5.13-2.74-9.26-6.79-12.77-11.49-3.47-4.649-6.29-9.66-8.23-15.08-1.36-3.82-2.54-7.76-2.68-11.91 0 0-1.11-3.27-.59-6.06s1.63-3.56 1.85-3.72c-1.39.89-2.7 1.97-3.95 3.18-4.67 4.48-6.78 10-6.88 17.99.33 1.529.73 4.689 1.71 7.649 1.11 3.341 2.45 6.67 4.21 9.71 2.36 4.091 5.6 7.561 9.36 10.46 4.76 3.65 10.04 5.761 16.181 5.25 4.829-.399 9.109-2.079 12.979-4.97 4.88-3.649 6.08-8.95 6.12-14.479.02-2.971-.89-6.021-1.81-8.891M23.26 13.21c5.48 1.14 10.18 3.71 14.29 7.52 4.55 4.23 8.17 9.12 10.7 14.73 2.85 6.31 4.65 12.9 3.41 19.95-.05.3-.13.6-.22.89-.78 2.44-1.36 3.82-2.051 4.46 1.221-.85 5.221-3.72 6.49-5.88 1.5-2.57 3.5-7.57 1-15.439-2.5-7.88-4.26-11.5-5.939-13.38-1.69-1.87-5.69-7.94-10.131-10.68-4.43-2.76-6.729-5.47-11.14-5.51-4.26-.04-6.79.9-7.92 2.34-.4.5-.79 1.17-1.08 2 .471-.921 1.351-1.261 2.591-1.001"/>
</svg>
