<?xml version="1.0" encoding="utf-8"?>
<!-- Generator: Adobe Illustrator 16.0.0, SVG Export Plug-In . SVG Version: 6.00 Build 0)  -->
<!DOCTYPE svg PUBLIC "-//W3C//DTD SVG 1.1//EN" "http://www.w3.org/Graphics/SVG/1.1/DTD/svg11.dtd">
<svg version="1.1" id="Layer_1" xmlns="http://www.w3.org/2000/svg" xmlns:xlink="http://www.w3.org/1999/xlink" x="0px" y="0px"
	 width="72.324px" height="72.324px" viewBox="0 0 72.324 72.324" enable-background="new 0 0 72.324 72.324" xml:space="preserve">
<g>
	<path fill="currentColor" fill-rule="evenodd" clip-rule="evenodd" d="M29.791,69.134c-4.661-0.3-6.85-2.624-6.954-5.87
		c-0.089-2.813,1.243-5.212,3.262-7.076c2.289-2.113,4.855-3.924,7.152-6.028c1.839-1.686,3.913-3.337,3.75-6.293
		c0.138-0.077,0.274-0.154,0.412-0.231c0.389,0.55,0.98,1.05,1.131,1.658c0.497,2.006,0.799,4.06,1.251,6.077
		c0.174,0.773,0.551,1.501,1.181,2.144c0.605-3.295,1.091-6.617,1.844-9.878c1.458-6.315-0.674-11.829-3.574-17.201
		c-1.688-3.126-4.17-5.523-6.936-7.718c-1.899-1.507-3.748-1.438-5.659-0.742c2.614,3.178,5.322,6.221,7.726,9.486
		c1.419,1.927,2.604,4.114,3.455,6.351c1.19,3.132,0.048,6.022-1.516,8.846c-2.138,3.867-5.527,6.556-8.577,9.56
		c-2.7,2.659-5.21,5.441-6.917,8.849c-1.119,2.235-1.628,4.503,0.573,6.719c-5.865-3.34-7.752-8.001-3.791-12.976
		c1.993-2.503,4.707-4.5,7.314-6.429c3.089-2.285,4.521-5.578,5.82-8.896c0.902-2.306,1.274-4.847,1.661-7.317
		c0.423-2.706-0.958-4.872-2.861-6.535c-2.496-2.182-5.224-4.098-7.88-6.15c1.825-1.358,1.833-3.623,2.129-6.038
		c1.615,0.54,3.153,1.053,4.698,1.569c-0.623,0.34-1.328,0.576-1.824,1.038c-0.455,0.422-0.685,1.087-1.014,1.645
		c0.106,0.082,0.213,0.165,0.319,0.247c0.401-0.377,0.86-0.71,1.191-1.142c0.881-1.146,1.942-1.116,3.165-0.668
		c7.182,2.63,12.232,7.563,15.738,14.276c2.536,4.858,3.485,10.188,4.888,15.388c0.051,0.189,0.108,0.376,0.297,1.027
		c0.447-0.888,0.74-1.407,0.976-1.95c0.83-1.911,1.731-3.799,2.415-5.762c0.3-0.86,0.467-2.014,0.143-2.807
		c-3.486-8.513-8.816-15.441-17.354-19.457c-1.789-0.842-3.622-1.634-5.506-2.215c-1.879-0.579-3.849-0.865-5.839-1.536
		c0.761-0.035,1.541-0.192,2.281-0.085c7.673,1.11,14.068,4.83,19.923,9.716c5.057,4.22,8.511,9.467,10.405,15.733
		c0.77,2.547,0.062,5.094-0.993,7.358c-3.501,7.517-9.689,11-17.832,11.244c-1.163,0.034-2.332-0.225-3.499-0.228
		c-2.356-0.005-3.7,1.788-3.146,4.099c0.694,2.897,2.278,5.272,4.646,7.591c-4.167-1.121-7.49-2.821-9.517-6.533
		C27.28,64.041,27.624,65.627,29.791,69.134z"/>
	<path fill="currentColor" fill-rule="evenodd" clip-rule="evenodd" d="M10.434,28.059c2.035,0.757,3.978,1.626,6.005,2.194
		c2.29,0.642,4.999-1.733,4.781-4.083c-0.146-1.574-0.448-3.133-0.695-4.795c0.168,0.023,0.717-0.063,1.046,0.167
		c2.36,1.652,4.909,3.131,6.934,5.134c1.763,1.745,1.833,4.396,1.626,6.811c-0.065,0.761-0.754,1.645-1.408,2.138
		c-0.965,0.727-2.213,1.064-3.232,1.733c-0.971,0.638-1.916,1.39-2.664,2.27c-0.862,1.013-1.706,2.142-2.166,3.367
		c-0.442,1.179-0.32,2.558-0.578,3.822c-0.088,0.429-0.563,1.1-0.88,1.11c-2.889,0.1-5.789,0.192-8.669,0.016
		c-0.779-0.048-1.739-0.868-2.201-1.598c-1.029-1.623-1.715-3.461-2.696-5.12c-0.873-1.478-0.685-2.783,0.342-3.979
		c2.218-2.585,3.458-5.626,4.347-8.851C10.379,28.2,10.45,28.012,10.434,28.059z M12.38,41.045c0.373-0.125,1.034-0.165,1.413-0.512
		c0.692-0.636,0.103-3.505-0.757-4.183c-1.016-0.801-3.566-0.537-4.282,0.443c-1.121,1.534-0.769,5.408,0.573,6.759
		c1.517,1.525,3.369,2.121,5.471,2.355c2.49,0.277,2.584,0.313,3.158-2.112c0.074-0.313,0.068-0.644,0.143-0.956
		c0.868-3.613,2.201-6.893,6.032-8.376c1.237-0.479,3.129-0.669,3.526-1.539c0.453-0.99-0.497-2.581-0.715-3.93
		c-0.303-1.874-1.612-2.67-3.499-3.623c1.39,4.153,0.822,7.472-2.348,10.091c-0.621,0.513-1.15,1.141-1.782,1.638
		c-1.484,1.164-2.259,2.666-2.487,4.531c-0.153,1.253-0.481,2.485-0.748,3.808c-0.943-0.139-1.762-0.143-2.501-0.388
		c-3.695-1.225-5.289-3.063-4.408-6.924c0.157-0.688,1.275-1.302,2.08-1.604c0.234-0.088,1.186,0.962,1.33,1.598
		C12.769,38.959,12.483,39.903,12.38,41.045z"/>
	<path fill="currentColor" fill-rule="evenodd" clip-rule="evenodd" d="M32.251,5.776c-0.629,0.744-1.793,1.643-1.642,2.035
		c0.383,0.994,1.253,1.893,2.129,2.572c0.615,0.477,1.559,0.528,2.376,0.776c0.473-2.501,0.937-3.008,2.916-3.149
		c1.525-0.109,2.877,0.185,3.507,1.982c-0.479,0.024-0.872-0.038-1.202,0.079c-0.56,0.198-1.079,0.509-1.615,0.772
		c0.314,0.532,0.502,1.26,0.966,1.562c1.887,1.224,3.858,2.316,5.896,3.515c0.932-2.225,2.825-2.364,4.721-2.127
		c1.22,0.153,2.069,1.005,2.228,2.587c-0.367-0.23-0.57-0.467-0.771-0.464c-0.828,0.012-1.978-0.221-2.416,0.222
		c-0.832,0.844,0.183,1.554,0.832,2.031c1.691,1.24,3.42,2.435,5.204,3.534c0.487,0.3,1.223,0.271,1.843,0.265
		c0.964-0.01,2-0.383,2.869-0.131c0.879,0.254,1.853,0.928,2.306,1.7c0.45,0.766,0.53,1.924-0.463,2.924
		c-0.258-0.647-0.376-1.151-0.64-1.564c-0.638-1.001-1.556-1.095-2.522-0.536c-0.922,0.532-0.563,1.158-0.109,1.864
		c0.754,1.172,1.311,2.48,2.139,3.591c0.348,0.467,1.159,0.758,1.788,0.816c1.679,0.152,3.396-0.019,5.054,0.231
		c1.444,0.218,2.043,2.229,1.049,3.302c-0.267,0.288-1,0.265-1.488,0.19c-0.56-0.086-1.142-0.636-1.611-0.531
		c-0.521,0.116-1.389,0.92-1.312,1.125c0.665,1.759-0.638,2.232-1.694,2.917c-1.956-2.886-3.918-5.74-5.837-8.623
		c-2.618-3.936-5.838-7.165-9.835-9.805c-4.576-3.023-9.785-4.496-14.603-6.872c-1.802-0.889-3.266-2.705-4.53-4.367
		c-0.966-1.271-0.18-2.431,1.454-2.687C31.333,5.179,31.333,5.179,32.251,5.776z"/>
	<path fill="currentColor" fill-rule="evenodd" clip-rule="evenodd" d="M16.488,26.901c-0.604-0.364-1.146-0.518-1.382-0.873
		c-0.358-0.54-0.746-1.257-0.66-1.831c0.066-0.448,0.777-0.904,1.297-1.161c1.575-0.775,2.989-0.213,4.096,0.919
		c0.989,1.012,0.711,2.289,0.125,3.44c-0.672,1.319-2.48,2.032-4.343,1.79c-3.354-0.437-5.775-4.212-4.498-7.326
		c0.43-1.047,1.43-2,2.398-2.661c3.054-2.084,5.231-4.748,6.08-8.378c0.427-1.825,0.328-3.616-0.727-5.281
		c-0.448-0.707-0.747-1.509-0.9-2.67c0.859,0.232,1.772,0.348,2.566,0.719c1.727,0.807,3.579,1.519,5.016,2.709
		c0.901,0.746,1.39,2.247,1.61,3.489c0.252,1.425-0.884,2.209-2.17,2.541c-1.061,0.273-1.679,0.821-2.162,1.858
		c-1.206,2.588-3.479,4.149-5.85,5.583c-0.956,0.578-1.846,1.271-2.739,1.945c-1.087,0.821-1.563,1.924-1.182,3.254
		C13.38,26.074,14.791,26.869,16.488,26.901z M24.052,11.692c1.817-1.946,0.723-4.625-3.061-6.076
		C22.066,7.75,23.092,9.788,24.052,11.692z"/>
	<path fill="currentColor" fill-rule="evenodd" clip-rule="evenodd" d="M10.536,12.231c0.25-0.496,0.373-0.953,0.656-1.264
		c1.106-1.215,4.145-1.098,5.321,0.165c1.076,1.156,0.937,3.487-0.312,4.643c-0.548,0.507-1.137,0.978-1.75,1.403
		c-2.258,1.563-4.427,3.187-4.677,6.349c-1.824-1.37-2.278-2.606-1.25-4.164c1.106-1.677,2.589-3.102,3.858-4.676
		c0.469-0.582,0.797-1.276,1.189-1.918c-0.781-0.154-1.562-0.309-2.344-0.459C11.077,12.28,10.923,12.273,10.536,12.231z"/>
	<path fill="currentColor" fill-rule="evenodd" clip-rule="evenodd" fill="none" d="M12.38,41.045c0.103-1.142,0.388-2.086,0.199-2.922
		c-0.144-0.636-1.096-1.686-1.33-1.598c-0.804,0.302-1.922,0.916-2.08,1.604c-0.881,3.861,0.713,5.699,4.408,6.924
		c0.739,0.245,1.558,0.249,2.501,0.388c0.266-1.322,0.595-2.555,0.748-3.808c0.228-1.865,1.003-3.367,2.487-4.531
		c0.632-0.497,1.161-1.125,1.782-1.638c3.17-2.619,3.738-5.938,2.348-10.091c1.887,0.953,3.196,1.75,3.499,3.623
		c0.218,1.349,1.168,2.939,0.715,3.93c-0.397,0.869-2.29,1.06-3.526,1.539c-3.831,1.483-5.164,4.763-6.032,8.376
		c-0.075,0.313-0.069,0.644-0.143,0.956c-0.574,2.426-0.668,2.39-3.158,2.112c-2.103-0.234-3.955-0.83-5.471-2.355
		c-1.342-1.351-1.693-5.225-0.573-6.759c0.716-0.98,3.266-1.244,4.282-0.443c0.859,0.678,1.449,3.547,0.757,4.183
		C13.415,40.88,12.753,40.92,12.38,41.045z"/>
	<path fill="currentColor" fill-rule="evenodd" clip-rule="evenodd" fill="none" d="M24.052,11.692c-0.959-1.905-1.985-3.942-3.061-6.076
		C24.774,7.067,25.869,9.747,24.052,11.692z"/>
</g>
</svg>
