<svg xmlns="http://www.w3.org/2000/svg" width="72.324" height="72.324" xml:space="preserve"><g clip-rule="evenodd"><path fill="currentColor" fill-rule="evenodd" d="M29.791 69.134c-4.661-.3-6.85-2.624-6.954-5.87-.089-2.813 1.243-5.212 3.262-7.076 2.289-2.113 4.855-3.924 7.152-6.028 1.839-1.686 3.913-3.337 3.75-6.293l.412-.231c.389.55.98 1.05 1.131 1.658.497 2.006.799 4.06 1.251 6.077a4.404 4.404 0 0 0 1.181 2.144c.605-3.295 1.091-6.617 1.844-9.878 1.458-6.315-.674-11.829-3.574-17.201-1.688-3.126-4.17-5.523-6.936-7.718-1.899-1.507-3.748-1.438-5.659-.742 2.614 3.178 5.322 6.221 7.726 9.486a27.048 27.048 0 0 1 3.455 6.351c1.19 3.132.048 6.022-1.516 8.846-2.138 3.867-5.527 6.556-8.577 9.56-2.7 2.659-5.21 5.441-6.917 8.849-1.119 2.235-1.628 4.503.573 6.719-5.865-3.34-7.752-8.001-3.791-12.976 1.993-2.503 4.707-4.5 7.314-6.429 3.089-2.285 4.521-5.578 5.82-8.896.902-2.306 1.274-4.847 1.661-7.317.423-2.706-.958-4.872-2.861-6.535-2.496-2.182-5.224-4.098-7.88-6.15 1.825-1.358 1.833-3.623 2.129-6.038l4.698 1.569c-.623.34-1.328.576-1.824 1.038-.455.422-.685 1.087-1.014 1.645l.319.247c.401-.377.86-.71 1.191-1.142.881-1.146 1.942-1.116 3.165-.668 7.182 2.63 12.232 7.563 15.738 14.276 2.536 4.858 3.485 10.188 4.888 15.388.051.189.108.376.297 1.027.447-.888.74-1.407.976-1.95.83-1.911 1.731-3.799 2.415-5.762.3-.86.467-2.014.143-2.807-3.486-8.513-8.816-15.441-17.354-19.457-1.789-.842-3.622-1.634-5.506-2.215-1.879-.579-3.849-.865-5.839-1.536.761-.035 1.541-.192 2.281-.085 7.673 1.11 14.068 4.83 19.923 9.716 5.057 4.22 8.511 9.467 10.405 15.733.77 2.547.062 5.094-.993 7.358-3.501 7.517-9.689 11-17.832 11.244-1.163.034-2.332-.225-3.499-.228-2.356-.005-3.7 1.788-3.146 4.099.694 2.897 2.278 5.272 4.646 7.591-4.167-1.121-7.49-2.821-9.517-6.533-1.068 2.047-.724 3.633 1.443 7.14z"/><path fill="currentColor" fill-rule="evenodd" d="M10.434 28.059c2.035.757 3.978 1.626 6.005 2.194 2.29.642 4.999-1.733 4.781-4.083-.146-1.574-.448-3.133-.695-4.795.168.023.717-.063 1.046.167 2.36 1.652 4.909 3.131 6.934 5.134 1.763 1.745 1.833 4.396 1.626 6.811-.065.761-.754 1.645-1.408 2.138-.965.727-2.213 1.064-3.232 1.733-.971.638-1.916 1.39-2.664 2.27-.862 1.013-1.706 2.142-2.166 3.367-.442 1.179-.32 2.558-.578 3.822-.088.429-.563 1.1-.88 1.11-2.889.1-5.789.192-8.669.016-.779-.048-1.739-.868-2.201-1.598-1.029-1.623-1.715-3.461-2.696-5.12-.873-1.478-.685-2.783.342-3.979 2.218-2.585 3.458-5.626 4.347-8.851.053-.195.124-.383.108-.336zm1.946 12.986c.373-.125 1.034-.165 1.413-.512.692-.636.103-3.505-.757-4.183-1.016-.801-3.566-.537-4.282.443-1.121 1.534-.769 5.408.573 6.759 1.517 1.525 3.369 2.121 5.471 2.355 2.49.277 2.584.313 3.158-2.112.074-.313.068-.644.143-.956.868-3.613 2.201-6.893 6.032-8.376 1.237-.479 3.129-.669 3.526-1.539.453-.99-.497-2.581-.715-3.93-.303-1.874-1.612-2.67-3.499-3.623 1.39 4.153.822 7.472-2.348 10.091-.621.513-1.15 1.141-1.782 1.638-1.484 1.164-2.259 2.666-2.487 4.531-.153 1.253-.481 2.485-.748 3.808-.943-.139-1.762-.143-2.501-.388-3.695-1.225-5.289-3.063-4.408-6.924.157-.688 1.275-1.302 2.08-1.604.234-.088 1.186.962 1.33 1.598.19.838-.096 1.782-.199 2.924zM32.251 5.776c-.629.744-1.793 1.643-1.642 2.035.383.994 1.253 1.893 2.129 2.572.615.477 1.559.528 2.376.776.473-2.501.937-3.008 2.916-3.149 1.525-.109 2.877.185 3.507 1.982-.479.024-.872-.038-1.202.079-.56.198-1.079.509-1.615.772.314.532.502 1.26.966 1.562 1.887 1.224 3.858 2.316 5.896 3.515.932-2.225 2.825-2.364 4.721-2.127 1.22.153 2.069 1.005 2.228 2.587-.367-.23-.57-.467-.771-.464-.828.012-1.978-.221-2.416.222-.832.844.183 1.554.832 2.031a78.13 78.13 0 0 0 5.204 3.534c.487.3 1.223.271 1.843.265.964-.01 2-.383 2.869-.131.879.254 1.853.928 2.306 1.7.45.766.53 1.924-.463 2.924-.258-.647-.376-1.151-.64-1.564-.638-1.001-1.556-1.095-2.522-.536-.922.532-.563 1.158-.109 1.864.754 1.172 1.311 2.48 2.139 3.591.348.467 1.159.758 1.788.816 1.679.152 3.396-.019 5.054.231 1.444.218 2.043 2.229 1.049 3.302-.267.288-1 .265-1.488.19-.56-.086-1.142-.636-1.611-.531-.521.116-1.389.92-1.312 1.125.665 1.759-.638 2.232-1.694 2.917-1.956-2.886-3.918-5.74-5.837-8.623a34.344 34.344 0 0 0-9.835-9.805c-4.576-3.023-9.785-4.496-14.603-6.872-1.802-.889-3.266-2.705-4.53-4.367-.966-1.271-.18-2.431 1.454-2.687 2.095-.333 2.095-.333 3.013.264z"/><path fill="currentColor" fill-rule="evenodd" d="M16.488 26.901c-.604-.364-1.146-.518-1.382-.873-.358-.54-.746-1.257-.66-1.831.066-.448.777-.904 1.297-1.161 1.575-.775 2.989-.213 4.096.919.989 1.012.711 2.289.125 3.44-.672 1.319-2.48 2.032-4.343 1.79-3.354-.437-5.775-4.212-4.498-7.326.43-1.047 1.43-2 2.398-2.661 3.054-2.084 5.231-4.748 6.08-8.378.427-1.825.328-3.616-.727-5.281-.448-.707-.747-1.509-.9-2.67.859.232 1.772.348 2.566.719 1.727.807 3.579 1.519 5.016 2.709.901.746 1.39 2.247 1.61 3.489.252 1.425-.884 2.209-2.17 2.541-1.061.273-1.679.821-2.162 1.858-1.206 2.588-3.479 4.149-5.85 5.583-.956.578-1.846 1.271-2.739 1.945-1.087.821-1.563 1.924-1.182 3.254.317 1.107 1.728 1.902 3.425 1.934zm7.564-15.209c1.817-1.946.723-4.625-3.061-6.076l3.061 6.076z"/><path fill="currentColor" fill-rule="evenodd" d="M10.536 12.231c.25-.496.373-.953.656-1.264 1.106-1.215 4.145-1.098 5.321.165 1.076 1.156.937 3.487-.312 4.643-.548.507-1.137.978-1.75 1.403-2.258 1.563-4.427 3.187-4.677 6.349-1.824-1.37-2.278-2.606-1.25-4.164 1.106-1.677 2.589-3.102 3.858-4.676.469-.582.797-1.276 1.189-1.918-.781-.154-1.562-.309-2.344-.459-.15-.03-.304-.037-.691-.079z"/><path fill="none" d="M12.38 41.045c.103-1.142.388-2.086.199-2.922-.144-.636-1.096-1.686-1.33-1.598-.804.302-1.922.916-2.08 1.604-.881 3.861.713 5.699 4.408 6.924.739.245 1.558.249 2.501.388.266-1.322.595-2.555.748-3.808.228-1.865 1.003-3.367 2.487-4.531.632-.497 1.161-1.125 1.782-1.638 3.17-2.619 3.738-5.938 2.348-10.091 1.887.953 3.196 1.75 3.499 3.623.218 1.349 1.168 2.939.715 3.93-.397.869-2.29 1.06-3.526 1.539-3.831 1.483-5.164 4.763-6.032 8.376-.075.313-.069.644-.143.956-.574 2.426-.668 2.39-3.158 2.112-2.103-.234-3.955-.83-5.471-2.355-1.342-1.351-1.693-5.225-.573-6.759.716-.98 3.266-1.244 4.282-.443.859.678 1.449 3.547.757 4.183-.378.345-1.04.385-1.413.51zM24.052 11.692l-3.061-6.076c3.783 1.451 4.878 4.131 3.061 6.076z"/></g></svg>