<svg xmlns="http://www.w3.org/2000/svg" xml:space="preserve" width="72px" height="72px" viewBox="0 0 72 72">
    <path fill="currentColor" d="M35.775 67.463c-1.34-3.736-2.662-7.48-4.049-11.199-.129-.347-.718-.793-1.014-.74-.465.082-1.142.478-1.241.863-.413 1.611-.628 3.272-.952 4.908-.071.355-.292.686-.444 1.025l-.531-.116c.182-1.621.322-3.249.563-4.861.125-.839.5-1.64.638-2.478.249-1.518-.862-2.32-2.29-1.842-2.768.932-5.564 1.777-8.357 2.633-.199.061-.63-.045-.669-.163-.123-.382-.274-.884-.125-1.2 1.063-2.254 2.238-4.456 3.282-6.719.256-.557.155-1.276.219-1.922-.685.025-1.374.009-2.051.089-.91.106-1.812.288-2.717.438l-.176-.591c.733-.276 1.51-.478 2.187-.854.675-.377 1.566-.816 1.796-1.438.378-1.022-.606-1.354-1.439-1.704-3.073-1.293-6.115-2.66-9.176-3.982-.779-.336-1.597-.58-2.375-.916-.439-.19-.835-.482-1.564-.915 1.719-.673 3.06-1.224 4.419-1.724 1.742-.64 3.494-1.253 5.251-1.851.547-.186 1.121-.382 1.688-.4 1.111-.035 2.343-.179 2.054-1.542-.146-.688-1.316-1.237-2.116-1.683-.573-.319-1.298-.365-1.956-.532l.168-.622c1.097.264 2.182.646 3.294.753.848.082 1.729-.186 2.595-.298-.15-.922-.17-1.89-.476-2.757-.638-1.809-1.443-3.559-2.137-5.349-.116-.299-.154-.864.008-.983.297-.217.819-.351 1.164-.244 2.333.719 4.628 1.57 6.974 2.242.689.197 1.505-.049 2.263-.092-.039-.616-.02-1.243-.129-1.847-.271-1.497-.601-2.983-.908-4.474l.658-.265c.348.725.754 1.429 1.027 2.181.251.69.272 1.471.565 2.137.159.362.646.719 1.037.789.23.041.689-.431.827-.763 1.18-2.838 2.281-5.708 3.468-8.543.626-1.495 1.377-2.938 2.167-4.606.383.425.783.678.896 1.024.691 2.125 1.317 4.271 1.964 6.41.721 2.378 1.366 4.783 2.192 7.124.356 1.012 1.243.771 1.797.112.72-.857 1.272-1.851 1.938-2.757.357-.487.799-.914 1.201-1.368l.405.264c-.69 1.346-1.424 2.674-2.051 4.049-.213.467-.161 1.055-.229 1.587.53-.026 1.102.064 1.586-.1 2.051-.695 4.082-1.455 6.11-2.215.938-.352 1.854-.757 2.964-1.212.658.251.877.708.52 1.647-.854 2.234-1.594 4.512-2.321 6.792-.164.512-.323 1.348-.065 1.591.338.318 1.146.377 1.653.225 1.373-.413 2.69-1.01 4.04-1.505.52-.19 1.066-.304 1.602-.452l.27.608-6.934 3.218-.311.803c.4.167.794.354 1.202.499 1.935.687 3.896 1.305 5.804 2.057 2.021.797 4.057 1.599 5.961 2.631 1.055.571.241 1.113-.453 1.368-1.396.513-2.808.983-4.215 1.465-2.344.802-4.705 1.554-7.021 2.431-.532.2-1.188.783-1.261 1.27-.059.396.609.979 1.058 1.359 1.608 1.369 3.259 2.688 4.894 4.027l-.266.485c-.579-.292-1.18-.55-1.734-.882-1.371-.816-2.707-1.696-4.097-2.481-.291-.165-.815-.147-1.108.011-.17.092-.164.651-.11.979.586 3.679 1.183 7.354 1.81 11.026.213 1.252-.441 1.179-1.189.793-2.225-1.146-4.401-2.387-6.646-3.494-.592-.293-1.354-.243-2.038-.352-.087.803-.357 1.639-.219 2.398.189 1.029.693 1.999 1.063 2.994q-.33.139-.654.273c-.506-1.098-.958-2.223-1.536-3.279-.269-.489-.806-1.203-1.173-1.176-.465.033-1.08.637-1.288 1.137-1.019 2.457-1.854 4.99-2.896 7.437-.522 1.226-1.347 2.322-2.034 3.478zm-19.577-32.52.232.818c1.085.058 2.17.164 3.255.159 1.011-.004 2.021-.177 3.033-.188 3.26-.037 6.522-.074 9.781-.006.518.011 1.023.562 1.535.862-.456.346-.887.928-1.374.979-.826.088-1.687-.243-2.535-.254-3.21-.035-6.421-.011-9.632-.014-.97 0-1.941-.058-2.908-.011-.602.028-1.197.202-1.795.312.435.534.765 1.351 1.322 1.559 3.182 1.188 6.427 2.203 9.631 3.336 1.746.617 3.74 1.135 4.334 3.152.716 2.429 1.105 4.953 1.642 7.436.26 1.197.451 2.423.841 3.578.174.517.763.895 1.163 1.334.209-.547.595-1.094.6-1.643.048-4.785.017-9.57.041-14.355.003-.63.109-1.283.31-1.878.116-.341.515-.806.793-.81.303-.006.752.404.883.734.183.464.223 1.032.159 1.535-.252 2.045-.665 4.074-.018 6.129.12.379.034.833-.005 1.248-.161 1.753-.424 3.501-.484 5.257-.042 1.167.191 2.343.316 3.675 1.838-1.027 1.682-2.498 2.005-3.916.752-3.297 1.797-6.533 2.896-9.736.211-.613 1.186-1.006 1.864-1.402.347-.202.831-.148 1.231-.275 1.697-.547 3.36-1.23 5.088-1.652 2.263-.549 4.582-.854 6.854-1.367.522-.118.95-.653 1.421-.997-.552-.306-1.091-.835-1.658-.87-1.279-.078-2.574.146-3.862.145-4.388-.01-8.777-.037-13.165-.14-.574-.014-1.137-.503-1.705-.771.557-.408 1.072-1.066 1.68-1.163.866-.138 1.801.229 2.701.214 1.715-.029 3.432-.294 5.143-.252 3.279.079 6.557.323 9.836.449.463.018.937-.245 1.403-.377l.104-.5c-.633-.398-1.221-.927-1.909-1.167-1.198-.417-2.463-.644-3.693-.972-2.928-.78-5.879-1.491-8.762-2.411-.853-.272-1.979-1.027-2.179-1.775-.953-3.588-1.579-7.262-2.438-10.877-.267-1.122-.899-2.157-1.362-3.232l-.771.095c-.109.932-.301 1.863-.311 2.796-.01 1.122.354 2.281.174 3.36-.635 3.773-.182 7.52.009 11.279.024.507-.115 1.12-.405 1.517-.273.375-.848.53-1.289.781-.18-.463-.521-.93-.513-1.389.051-2.589.191-5.177.288-7.766.012-.319-.074-.641-.078-.962-.01-.942-.1-1.898.021-2.825.295-2.27.693-4.526-.143-6.771-1.287-.231-1.48.746-1.703 1.532-.333 1.175-.457 2.411-.802 3.582-.749 2.544-1.584 5.062-2.378 7.593-.44 1.402-.991 2.745-2.453 3.371-.96.411-1.956.771-2.968 1.021-2.473.612-4.978 1.096-7.44 1.744-.671.173-1.236.749-1.851 1.142m36.906 21.086.396-.557c-.867-3.553-1.722-7.107-2.61-10.656-.188-.754-.582-1-1.521-.924-3.325.267-4.444 2.598-5.198 5.262-.29 1.025.021 1.949 1.172 2.516 1.188.582 2.245 1.428 3.404 2.079 1.426.803 2.901 1.524 4.357 2.28m-3-26.688c.375-.249 1.131-.477 1.375-.962.901-1.798 1.668-3.667 2.41-5.54.168-.431.223-1.171-.023-1.428-.25-.261-.993-.252-1.428-.099-2.445.863-4.855 1.822-7.291 2.713-1.275.466-1.686 1.59-.723 2.603 1.435 1.51 3.303 2.285 5.68 2.713M29.179 49.385l-.316-.355c0-.161.01-.323-.001-.484-.139-1.887-1.662-3.604-3.584-3.71-1.561-.086-2.074 1.286-2.632 2.452-.646 1.346-1.323 2.678-1.901 4.052-.184.438-.099.988-.136 1.487.55.015 1.152.183 1.642.02 1.807-.606 3.605-1.261 5.345-2.031.616-.278 1.06-.944 1.583-1.431M22.67 21.09c-1.597-.01-1.871.295-1.484 1.458.61 1.834 1.229 3.675 2.029 5.429.195.427 1.125.767 1.691.73 2.04-.13 3.273-1.367 3.994-3.239.48-1.249.175-2.014-1.094-2.475-1.044-.379-2.057-.844-3.098-1.232-.788-.294-1.6-.529-2.038-.671"/>
</svg>
