<?xml version="1.0" encoding="utf-8"?>
<!-- Generator: Adobe Illustrator 16.0.0, SVG Export Plug-In . SVG Version: 6.00 Build 0)  -->
<!DOCTYPE svg PUBLIC "-//W3C//DTD SVG 1.1//EN" "http://www.w3.org/Graphics/SVG/1.1/DTD/svg11.dtd">
<svg version="1.1" id="Layer_1" xmlns="http://www.w3.org/2000/svg" xmlns:xlink="http://www.w3.org/1999/xlink" x="0px" y="0px"
	 width="72px" height="72px" viewBox="0 0 72 72" enable-background="new 0 0 72 72" xml:space="preserve">
<g>
	<path fill="currentColor" d="M35.775,67.463c-1.34-3.736-2.662-7.48-4.049-11.199c-0.129-0.347-0.718-0.793-1.014-0.74
		c-0.465,0.082-1.142,0.478-1.241,0.863c-0.413,1.611-0.628,3.272-0.952,4.908c-0.071,0.355-0.292,0.686-0.444,1.025
		c-0.177-0.038-0.354-0.077-0.531-0.116c0.182-1.621,0.322-3.249,0.563-4.861c0.125-0.839,0.5-1.64,0.638-2.478
		c0.249-1.518-0.862-2.32-2.29-1.842c-2.768,0.932-5.564,1.777-8.357,2.633c-0.199,0.061-0.63-0.045-0.669-0.163
		c-0.123-0.382-0.274-0.884-0.125-1.2c1.063-2.254,2.238-4.456,3.282-6.719c0.256-0.557,0.155-1.276,0.219-1.922
		c-0.685,0.025-1.374,0.009-2.051,0.089c-0.91,0.106-1.812,0.288-2.717,0.438c-0.059-0.197-0.117-0.395-0.176-0.591
		c0.733-0.276,1.51-0.478,2.187-0.854c0.675-0.377,1.566-0.816,1.796-1.438c0.378-1.022-0.606-1.354-1.439-1.704
		c-3.073-1.293-6.115-2.66-9.176-3.982c-0.779-0.336-1.597-0.58-2.375-0.916c-0.439-0.19-0.835-0.482-1.564-0.915
		c1.719-0.673,3.06-1.224,4.419-1.724c1.742-0.64,3.494-1.253,5.251-1.851c0.547-0.186,1.121-0.382,1.688-0.4
		c1.111-0.035,2.343-0.179,2.054-1.542c-0.146-0.688-1.316-1.237-2.116-1.683c-0.573-0.319-1.298-0.365-1.956-0.532
		c0.056-0.207,0.112-0.415,0.168-0.622c1.097,0.264,2.182,0.646,3.294,0.753c0.848,0.082,1.729-0.186,2.595-0.298
		c-0.15-0.922-0.17-1.89-0.476-2.757c-0.638-1.809-1.443-3.559-2.137-5.349c-0.116-0.299-0.154-0.864,0.008-0.983
		c0.297-0.217,0.819-0.351,1.164-0.244c2.333,0.719,4.628,1.57,6.974,2.242c0.689,0.197,1.505-0.049,2.263-0.092
		c-0.039-0.616-0.02-1.243-0.129-1.847c-0.271-1.497-0.601-2.983-0.908-4.474c0.219-0.088,0.439-0.177,0.658-0.265
		c0.348,0.725,0.754,1.429,1.027,2.181c0.251,0.69,0.272,1.471,0.565,2.137c0.159,0.362,0.646,0.719,1.037,0.789
		c0.23,0.041,0.689-0.431,0.827-0.763c1.18-2.838,2.281-5.708,3.468-8.543c0.626-1.495,1.377-2.938,2.167-4.606
		c0.383,0.425,0.783,0.678,0.896,1.024c0.691,2.125,1.317,4.271,1.964,6.41c0.721,2.378,1.366,4.783,2.192,7.124
		c0.356,1.012,1.243,0.771,1.797,0.112c0.72-0.857,1.272-1.851,1.938-2.757c0.357-0.487,0.799-0.914,1.201-1.368
		c0.135,0.088,0.271,0.176,0.405,0.264c-0.69,1.346-1.424,2.674-2.051,4.049c-0.213,0.467-0.161,1.055-0.229,1.587
		c0.53-0.026,1.102,0.064,1.586-0.1c2.051-0.695,4.082-1.455,6.11-2.215c0.938-0.352,1.854-0.757,2.964-1.212
		c0.658,0.251,0.877,0.708,0.52,1.647c-0.854,2.234-1.594,4.512-2.321,6.792c-0.164,0.512-0.323,1.348-0.065,1.591
		c0.338,0.318,1.146,0.377,1.653,0.225c1.373-0.413,2.69-1.01,4.04-1.505c0.52-0.19,1.066-0.304,1.602-0.452
		c0.09,0.203,0.18,0.405,0.27,0.608c-2.311,1.072-4.622,2.145-6.934,3.218c-0.104,0.268-0.207,0.536-0.311,0.803
		c0.4,0.167,0.794,0.354,1.202,0.499c1.935,0.687,3.896,1.305,5.804,2.057c2.021,0.797,4.057,1.599,5.961,2.631
		c1.055,0.571,0.241,1.113-0.453,1.368c-1.396,0.513-2.808,0.983-4.215,1.465c-2.344,0.802-4.705,1.554-7.021,2.431
		c-0.532,0.2-1.188,0.783-1.261,1.27c-0.059,0.396,0.609,0.979,1.058,1.359c1.608,1.369,3.259,2.688,4.894,4.027
		c-0.088,0.162-0.177,0.323-0.266,0.485c-0.579-0.292-1.18-0.55-1.734-0.882c-1.371-0.816-2.707-1.696-4.097-2.481
		c-0.291-0.165-0.815-0.147-1.108,0.011c-0.17,0.092-0.164,0.651-0.11,0.979c0.586,3.679,1.183,7.354,1.81,11.026
		c0.213,1.252-0.441,1.179-1.189,0.793c-2.225-1.146-4.401-2.387-6.646-3.494c-0.592-0.293-1.354-0.243-2.038-0.352
		c-0.087,0.803-0.357,1.639-0.219,2.398c0.189,1.029,0.693,1.999,1.063,2.994c-0.219,0.092-0.438,0.184-0.654,0.273
		c-0.506-1.098-0.958-2.223-1.536-3.279c-0.269-0.489-0.806-1.203-1.173-1.176c-0.465,0.033-1.08,0.637-1.288,1.137
		c-1.019,2.457-1.854,4.99-2.896,7.437c-0.522,1.226-1.347,2.322-2.034,3.478C36.11,67.559,35.942,67.51,35.775,67.463z
		 M16.198,34.943c0.077,0.272,0.155,0.545,0.232,0.818c1.085,0.058,2.17,0.164,3.255,0.159c1.011-0.004,2.021-0.177,3.033-0.188
		c3.26-0.037,6.522-0.074,9.781-0.006c0.518,0.011,1.023,0.562,1.535,0.862c-0.456,0.346-0.887,0.928-1.374,0.979
		c-0.826,0.088-1.687-0.243-2.535-0.254c-3.21-0.035-6.421-0.011-9.632-0.014c-0.97,0-1.941-0.058-2.908-0.011
		c-0.602,0.028-1.197,0.202-1.795,0.312c0.435,0.534,0.765,1.351,1.322,1.559c3.182,1.188,6.427,2.203,9.631,3.336
		c1.746,0.617,3.74,1.135,4.334,3.152c0.716,2.429,1.105,4.953,1.642,7.436c0.26,1.197,0.451,2.423,0.841,3.578
		c0.174,0.517,0.763,0.895,1.163,1.334c0.209-0.547,0.595-1.094,0.6-1.643c0.048-4.785,0.017-9.57,0.041-14.355
		c0.003-0.63,0.109-1.283,0.31-1.878c0.116-0.341,0.515-0.806,0.793-0.81c0.303-0.006,0.752,0.404,0.883,0.734
		c0.183,0.464,0.223,1.032,0.159,1.535c-0.252,2.045-0.665,4.074-0.018,6.129c0.12,0.379,0.034,0.833-0.005,1.248
		c-0.161,1.753-0.424,3.501-0.484,5.257c-0.042,1.167,0.191,2.343,0.316,3.675c1.838-1.027,1.682-2.498,2.005-3.916
		c0.752-3.297,1.797-6.533,2.896-9.736c0.211-0.613,1.186-1.006,1.864-1.402c0.347-0.202,0.831-0.148,1.231-0.275
		c1.697-0.547,3.36-1.23,5.088-1.652c2.263-0.549,4.582-0.854,6.854-1.367c0.522-0.118,0.95-0.653,1.421-0.997
		c-0.552-0.306-1.091-0.835-1.658-0.87c-1.279-0.078-2.574,0.146-3.862,0.145c-4.388-0.01-8.777-0.037-13.165-0.14
		c-0.574-0.014-1.137-0.503-1.705-0.771c0.557-0.408,1.072-1.066,1.68-1.163c0.866-0.138,1.801,0.229,2.701,0.214
		c1.715-0.029,3.432-0.294,5.143-0.252c3.279,0.079,6.557,0.323,9.836,0.449c0.463,0.018,0.937-0.245,1.403-0.377
		c0.035-0.167,0.069-0.333,0.104-0.5c-0.633-0.398-1.221-0.927-1.909-1.167c-1.198-0.417-2.463-0.644-3.693-0.972
		c-2.928-0.78-5.879-1.491-8.762-2.411c-0.853-0.272-1.979-1.027-2.179-1.775c-0.953-3.588-1.579-7.262-2.438-10.877
		c-0.267-1.122-0.899-2.157-1.362-3.232c-0.259,0.032-0.516,0.063-0.771,0.095c-0.109,0.932-0.301,1.863-0.311,2.796
		c-0.01,1.122,0.354,2.281,0.174,3.36c-0.635,3.773-0.182,7.52,0.009,11.279c0.024,0.507-0.115,1.12-0.405,1.517
		c-0.273,0.375-0.848,0.53-1.289,0.781c-0.18-0.463-0.521-0.93-0.513-1.389c0.051-2.589,0.191-5.177,0.288-7.766
		c0.012-0.319-0.074-0.641-0.078-0.962c-0.01-0.942-0.1-1.898,0.021-2.825c0.295-2.27,0.693-4.526-0.143-6.771
		c-1.287-0.231-1.48,0.746-1.703,1.532c-0.333,1.175-0.457,2.411-0.802,3.582c-0.749,2.544-1.584,5.062-2.378,7.593
		c-0.44,1.402-0.991,2.745-2.453,3.371c-0.96,0.411-1.956,0.771-2.968,1.021c-2.473,0.612-4.978,1.096-7.44,1.744
		C17.378,33.974,16.813,34.55,16.198,34.943z M53.104,56.029c0.133-0.186,0.264-0.37,0.396-0.557
		c-0.867-3.553-1.722-7.107-2.61-10.656c-0.188-0.754-0.582-1-1.521-0.924c-3.325,0.267-4.444,2.598-5.198,5.262
		c-0.29,1.025,0.021,1.949,1.172,2.516c1.188,0.582,2.245,1.428,3.404,2.079C50.173,54.552,51.648,55.273,53.104,56.029z
		 M50.104,29.341c0.375-0.249,1.131-0.477,1.375-0.962c0.901-1.798,1.668-3.667,2.41-5.54c0.168-0.431,0.223-1.171-0.023-1.428
		c-0.25-0.261-0.993-0.252-1.428-0.099c-2.445,0.863-4.855,1.822-7.291,2.713c-1.275,0.466-1.686,1.59-0.723,2.603
		C45.859,28.138,47.727,28.913,50.104,29.341z M29.179,49.385c-0.105-0.117-0.21-0.236-0.316-0.355c0-0.161,0.01-0.323-0.001-0.484
		c-0.139-1.887-1.662-3.604-3.584-3.71c-1.561-0.086-2.074,1.286-2.632,2.452c-0.646,1.346-1.323,2.678-1.901,4.052
		c-0.184,0.438-0.099,0.988-0.136,1.487c0.55,0.015,1.152,0.183,1.642,0.02c1.807-0.606,3.605-1.261,5.345-2.031
		C28.212,50.538,28.656,49.872,29.179,49.385z M22.67,21.09c-1.597-0.01-1.871,0.295-1.484,1.458
		c0.61,1.834,1.229,3.675,2.029,5.429c0.195,0.427,1.125,0.767,1.691,0.73c2.04-0.13,3.273-1.367,3.994-3.239
		c0.48-1.249,0.175-2.014-1.094-2.475c-1.044-0.379-2.057-0.844-3.098-1.232C23.92,21.467,23.108,21.232,22.67,21.09z"/>
</g>
</svg>
