<svg xmlns="http://www.w3.org/2000/svg" xml:space="preserve" width="72px" height="72px" viewBox="0 0 72 72">
    <g fill="currentColor">
        <path d="M38.294 39.466c-.95.1-1.901.217-2.855.275-.284.02-.666-.037-.853-.217-.635-.609-1.273-1.438-2.176-.695-.493.404-.64 1.23-1.015 2.02-.698.334-1.735.674-2.57 1.287-.559.41-.783 1.25-1.241 1.834-.535.682-1.073 1.412-1.767 1.9-1.267.887-2.428 1.672-3.083 3.273-.403.986-1.806 1.582-2.798 2.303-1.212.877-2.21 1.758-2.873 3.277-.531 1.219-2.138 1.99-3.318 2.895-.858.656-1.798 1.205-2.702 1.803q-.142-.158-.286-.314c1.073-1.471 2.131-2.947 3.223-4.402.81-1.078 1.526-2.094 3.008-2.617 2.083-.74 2.93-2.852 3.779-4.777.172-.391.304-.799.446-1.178 2.475-.051 3.066-.541 4.04-2.992.18-.453.728-.926 1.202-1.064 1.391-.408 2.727-2.385 2.39-3.754-.317-1.29-2.563-2.461-3.949-2.063-.927.269-1.206 1.372-.583 2.237.307.428.575.881 1.082 1.664-2.402-1.279-4.356-2.322-6.694-3.569.81-.382 1.281-.535 1.675-.804 1.222-.832 2.56-1.564 3.578-2.604 1.16-1.187.844-3.271-.561-4.814-.652-.717-1.506-1.25-2.271-1.87-.501 2.178-.824 3.942-1.334 5.651-.251.842-.755 1.65-1.303 2.354-1.501 1.924-1.344 3.608.588 5.141 1.326 1.053 2.394 3.432 2.21 5.58-.643-.924-1.112-1.486-1.453-2.117-.403-.746-.628-1.592-1.051-2.322-.998-1.727-2.292-2.98-4.543-2.613-.512.084-1.084-.199-1.597-.119-.684.109-1.336.41-2.002.627.333.564.531 1.375 1.023 1.643 1.794.969 2.68 2.563 3.391 4.326.168.414.216.879.08 1.551-2.447-4.342-6.486-6.207-11.035-7.316l-.004-.553c.561-.26 1.099-.604 1.688-.769 2.506-.707 4.813-1.781 6.391-3.918 2.429-3.292 2.614-7.337.206-10.692-1.443-2.01-3.393-3.663-5.167-5.423-.356-.353-.949-.466-1.433-.69l.672-.825c.72.367 1.55.607 2.14 1.123 2.136 1.868 4.675 2.855 7.395 3.187 3.374.413 6.238-.926 8.576-3.341 2.971-3.077 2.864-6.716 1.836-10.51-.078-.287-.01-.615-.01-.923l.396-.156c.281.665.673 1.306.823 1.999.611 2.821 2.033 5.1 4.521 6.563 4.34 2.553 9.999 1.902 13.661-1.544.756-.71 1.269-1.679 2.291-2.472 0 .775.08 1.561-.014 2.324-.421 3.43.003 6.717 2.219 9.443 2 2.461 6.975 4.7 10.747 2.881 1.89-.911 4.015-1.337 6.042-1.956.223-.068.501.044.838.083-.109 1.357-1.168 1.282-1.951 1.522-3.201.98-6.182 2.409-8.524 4.822-.739.761-.963 2.022-1.422 3.054l-.581-.162c.195-1.065.395-2.13.615-3.335-3.572.023-4.473 3.101-6.086 5.392-.407-.791-.69-1.341-1.002-1.944-1.703.608-1.729 2.005-1.674 3.224.07 1.589.489 3.145 2.649 4.137l-.403-4.116.399-.258c1.042 3.188 2.438 6.043 6.235 7.18-.306-1.709-.559-3.115-.807-4.506 1.768 2.061 3.249 4.291 5.223 5.938 1.871 1.563 4.256 2.518 6.414 3.738l-.308.549c-1.413-.537-2.881-.967-4.229-1.637-3.914-1.939-6.883.006-9.725 2.309-1.018.826-1.791 1.955-2.65 2.916.045-2.9 2.506-4.113 4.252-5.855.451-.449.75-1.049 1.121-1.578-.539-.367-1.027-.869-1.623-1.08-2.021-.717-3.74-.098-5.313 1.295-2.62 2.32-2.786 5.332-2.354 8.436.097.693.994 1.775 1.571 1.807 1.813.104 1.878 1.488 1.814 2.477-.155 2.438 1.368 4.076 2.354 5.984.148.289.215.621.039 1.115-2.313-2.08-4.621-4.162-6.814-6.137.486-.465 1.551-1.094 1.468-1.477-.231-1.068-.851-2.098-1.486-3.021-.409-.594-1.088-1.037-1.716-1.438-.568-.361-1.232-.576-1.65-.764.354-.779 1.051-1.596.861-2.035-.566-1.336-2.846-2.127-3.902-1.674-.843.361-1.73.615-2.971 1.049.622-1.906 1.777-2.043 3.021-2.15.688-.063 1.359-.354 2.037-.539-.33-.646-.611-1.324-1.01-1.926-.293-.441-.705-.824-1.128-1.154-.821-.646-1.683-.738-2.428.121-.562.645-1.104 1.313-1.565 2.031-.808 1.264-1.002 2.508.368 3.436l-1.131 3.563q.218.146.437.289l2.08-.801c-2.876 1.73-3.816 4.463-3.992 7.762-1.438-.863-.835-1.949-.88-2.859-.042-.832-.073-1.672-.019-2.502.035-.525.161-1.07.372-1.553.794-1.809.691-3.527-.491-5.154 2.313-.709 2.511-1.66 1.128-5.906 1.224.145 2.316.16 3.354.412 1.549.379 2.246-.23 2.372-2.271.551.049 1.171.268 1.632.084.4-.156.758-.736.869-1.193.063-.252-.432-.913-.659-.905-.476.016-1.075.237-1.374.589-.296.338-.298.95-.433 1.448M18.152 22.058l-.013.685c.922.28 1.876.876 2.76.787 5.013-.507 7.655-3.6 8.463-8.758 1.935 2.682 4.068 4.294 7.045 4.617 2.905.314 5.37-.81 7.87-2.363.077.49.163.79.165 1.091.028 3.784 1.751 6.674 4.805 8.756 1.455.992 3.135 1.387 4.858.587.29-.134.642-.516.646-.787.002-.257-.362-.638-.652-.762-4.114-1.764-6.752-4.757-7.628-9.182-.187-.94-.568-1.326-1.513-1.177-1.777.282-3.565.784-5.344.755-2.264-.036-4.541-.398-6.77-.836-1.196-.234-2.4-.771-3.427-1.438-1.629-1.06-2.149 0-2.568 1.171-1.093 3.057-3.473 4.562-6.353 5.574-.828.293-1.563.847-2.344 1.28M11.681 36.83c2.656.193 6.358-2.515 7.098-5.041.881-3.007-.274-6.867-2.689-8.782-.374-.297-.931-.363-1.404-.536-.012.486-.094.982-.023 1.456.363 2.434.761 4.884-.289 7.232-.691 1.543-1.588 2.994-2.36 4.501-.177.345-.22.755-.333 1.17m10.911-11.737-.11.602c.927.485 1.803 1.172 2.79 1.417 2.981.74 5.75-3.713 5.53-6.049-.096-1.018-.971-.86-1.595-.482-.436.263-.678.826-1.088 1.154-1.057.846-2.119 1.697-3.257 2.422-.679.433-1.508.631-2.27.936m14.489-1.262c.922-.237 1.907-.344 2.741-.759.538-.268.851-.988 1.265-1.505-.559-.19-1.106-.507-1.678-.548-2.111-.152-4.304.373-6.275-.905-.228-.148-.903.053-1.1.305-.159.203-.023.808.18 1.093 1.183 1.659 2.703 2.686 4.867 2.319m5.922 14.906c-.355.189-.812.354-1.164.643-1.088.879-1.356 4.115-.356 5.172.203.215 1.112.133 1.358-.129 1-1.063 1.914-2.215 2.755-3.408.229-.324.249-1.234.077-1.322-.787-.413-1.676-.626-2.67-.956m5.699-9.475c-2.164-2.467-4.174-4.761-6.201-7.074-.668 1.82.271 4.716 2.049 6.155 1.174.951 2.505 1.413 4.152.919M43.81 46.493c0 .162-.044.34.008.48.186.5.402.986.607 1.479.33-.426.853-.809.959-1.281.419-1.85 1.552-3.125 2.979-4.244.29-.229.64-.807.536-1.014-.174-.355-.675-.736-1.056-.754-.542-.027-1.271.096-1.621.449-1.322 1.344-2.354 2.889-2.412 4.885M28.256 32.204c-.332-1.238-.305-2.427-1.636-2.345-.465.028-.906 1.157-1.273 1.83a5.8 5.8 0 0 0-.595 1.63c-.126.63-.112 1.291-.158 1.938.618-.144 1.429-.088 1.813-.468.743-.733 1.246-1.709 1.849-2.585m4.196-6.444c-.057-.07-.201-.409-.356-.414-.451-.014-1.013-.039-1.34.201a19.4 19.4 0 0 0-2.482 2.193c-.234.243-.36.844-.221 1.124.143.286.665.509 1.034.532 1.081.066 3.39-2.353 3.365-3.636m14.152 9.13c-.659-.914-1.077-2.102-1.711-2.231-.982-.202-1.484.792-1.508 1.843-.03 1.309.32 2.488 1.764 2.562.391.024.844-1.221 1.455-2.174M33.381 24.854c1.163 2.649 3.227 3.307 4.644 1.877.267-.268.126-.937.175-1.42zm7.286 1.67c-.648 2.151.604 4.29 2.217 4.481.332.039.764-.095 1.016-.307.163-.137.227-.692.092-.834-1.01-1.081-2.079-2.104-3.325-3.34m-2.707 4.009c.096 1.475.607 2.324 1.797 2.371.359.015.746-.634 1.119-.978-.686-.718-1.354-1.452-2.092-2.111-.039-.035-.638.555-.824.718m3.025 2.982c-.605.787-1.304 1.31-1.236 1.703.084.502.785.899 1.223 1.344.395-.432 1.059-.836 1.104-1.301.037-.446-.564-.953-1.091-1.746m-9.028.13-1.384-1.257c-.483.588-.983 1.167-1.407 1.797-.023.033.688.771.87.699.596-.233 1.109-.688 1.921-1.239m5.661-4.042c-.861-.376-1.427-.85-1.822-.736-.463.133-.779.777-1.159 1.2.428.32.913.951 1.271.885.511-.095.931-.697 1.71-1.349m-5.231-.397c-.561.831-1.023 1.29-1.166 1.833-.059.226.72.958.852.896.577-.271 1.056-.75 1.57-1.152-.319-.4-.639-.8-1.256-1.577"/>
        <path d="M35.469 59.382c-1.585 2.338-3.115 4.594-4.898 7.227l-.978-6.311c1.718-.266 3.758-.586 5.876-.916m-4.525-6.717-3.512-2.646c1.938-.104 2.899.632 3.512 2.646"/>
    </g>
</svg>
