<?xml version="1.0" encoding="utf-8"?>
<!-- Generator: Adobe Illustrator 16.0.0, SVG Export Plug-In . SVG Version: 6.00 Build 0)  -->
<!DOCTYPE svg PUBLIC "-//W3C//DTD SVG 1.1//EN" "http://www.w3.org/Graphics/SVG/1.1/DTD/svg11.dtd">
<svg version="1.1" id="Layer_2" xmlns="http://www.w3.org/2000/svg" xmlns:xlink="http://www.w3.org/1999/xlink" x="0px" y="0px"
	 width="72px" height="72px" viewBox="0 0 72 72" enable-background="new 0 0 72 72" xml:space="preserve">
<g>
	<path fill="currentColor" d="M38.294,39.466c-0.95,0.1-1.901,0.217-2.855,0.275c-0.284,0.02-0.666-0.037-0.853-0.217
		c-0.635-0.609-1.273-1.438-2.176-0.695c-0.493,0.404-0.64,1.23-1.015,2.02c-0.698,0.334-1.735,0.674-2.57,1.287
		c-0.559,0.41-0.783,1.25-1.241,1.834c-0.535,0.682-1.073,1.412-1.767,1.9c-1.267,0.887-2.428,1.672-3.083,3.273
		c-0.403,0.986-1.806,1.582-2.798,2.303c-1.212,0.877-2.21,1.758-2.873,3.277c-0.531,1.219-2.138,1.99-3.318,2.895
		c-0.858,0.656-1.798,1.205-2.702,1.803c-0.095-0.104-0.19-0.211-0.286-0.314c1.073-1.471,2.131-2.947,3.223-4.402
		c0.81-1.078,1.526-2.094,3.008-2.617c2.083-0.74,2.93-2.852,3.779-4.777c0.172-0.391,0.304-0.799,0.446-1.178
		c2.475-0.051,3.066-0.541,4.04-2.992c0.18-0.453,0.728-0.926,1.202-1.064c1.391-0.408,2.727-2.385,2.39-3.754
		c-0.317-1.29-2.563-2.461-3.949-2.063c-0.927,0.269-1.206,1.372-0.583,2.237c0.307,0.428,0.575,0.881,1.082,1.664
		c-2.402-1.279-4.356-2.322-6.694-3.569c0.81-0.382,1.281-0.535,1.675-0.804c1.222-0.832,2.56-1.564,3.578-2.604
		c1.16-1.187,0.844-3.271-0.561-4.814c-0.652-0.717-1.506-1.25-2.271-1.87c-0.501,2.178-0.824,3.942-1.334,5.651
		c-0.251,0.842-0.755,1.65-1.303,2.354c-1.501,1.924-1.344,3.608,0.588,5.141c1.326,1.053,2.394,3.432,2.21,5.58
		c-0.643-0.924-1.112-1.486-1.453-2.117c-0.403-0.746-0.628-1.592-1.051-2.322c-0.998-1.727-2.292-2.98-4.543-2.613
		c-0.512,0.084-1.084-0.199-1.597-0.119c-0.684,0.109-1.336,0.41-2.002,0.627c0.333,0.564,0.531,1.375,1.023,1.643
		c1.794,0.969,2.68,2.563,3.391,4.326c0.168,0.414,0.216,0.879,0.08,1.551c-2.447-4.342-6.486-6.207-11.035-7.316
		c-0.001-0.186-0.003-0.367-0.004-0.553c0.561-0.26,1.099-0.604,1.688-0.769c2.506-0.707,4.813-1.781,6.391-3.918
		c2.429-3.292,2.614-7.337,0.206-10.692c-1.443-2.01-3.393-3.663-5.167-5.423c-0.356-0.353-0.949-0.466-1.433-0.69
		c0.224-0.275,0.448-0.55,0.672-0.825c0.72,0.367,1.55,0.607,2.14,1.123c2.136,1.868,4.675,2.855,7.395,3.187
		c3.374,0.413,6.238-0.926,8.576-3.341c2.971-3.077,2.864-6.716,1.836-10.51c-0.078-0.287-0.01-0.615-0.01-0.923
		c0.132-0.052,0.264-0.104,0.396-0.156c0.281,0.665,0.673,1.306,0.823,1.999c0.611,2.821,2.033,5.1,4.521,6.563
		c4.34,2.553,9.999,1.902,13.661-1.544c0.756-0.71,1.269-1.679,2.291-2.472c0,0.775,0.08,1.561-0.014,2.324
		c-0.421,3.43,0.003,6.717,2.219,9.443c2,2.461,6.975,4.7,10.747,2.881c1.89-0.911,4.015-1.337,6.042-1.956
		c0.223-0.068,0.501,0.044,0.838,0.083c-0.109,1.357-1.168,1.282-1.951,1.522c-3.201,0.98-6.182,2.409-8.524,4.822
		c-0.739,0.761-0.963,2.022-1.422,3.054c-0.193-0.054-0.388-0.108-0.581-0.162c0.195-1.065,0.395-2.13,0.615-3.335
		c-3.572,0.023-4.473,3.101-6.086,5.392c-0.407-0.791-0.69-1.341-1.002-1.944c-1.703,0.608-1.729,2.005-1.674,3.224
		c0.07,1.589,0.489,3.145,2.649,4.137c-0.158-1.609-0.28-2.864-0.403-4.116c0.133-0.086,0.268-0.172,0.399-0.258
		c1.042,3.188,2.438,6.043,6.235,7.18c-0.306-1.709-0.559-3.115-0.807-4.506c1.768,2.061,3.249,4.291,5.223,5.938
		c1.871,1.563,4.256,2.518,6.414,3.738c-0.104,0.184-0.205,0.365-0.308,0.549c-1.413-0.537-2.881-0.967-4.229-1.637
		c-3.914-1.939-6.883,0.006-9.725,2.309c-1.018,0.826-1.791,1.955-2.65,2.916c0.045-2.9,2.506-4.113,4.252-5.855
		c0.451-0.449,0.75-1.049,1.121-1.578c-0.539-0.367-1.027-0.869-1.623-1.08c-2.021-0.717-3.74-0.098-5.313,1.295
		c-2.62,2.32-2.786,5.332-2.354,8.436c0.097,0.693,0.994,1.775,1.571,1.807c1.813,0.104,1.878,1.488,1.814,2.477
		c-0.155,2.438,1.368,4.076,2.354,5.984c0.148,0.289,0.215,0.621,0.039,1.115c-2.313-2.08-4.621-4.162-6.814-6.137
		c0.486-0.465,1.551-1.094,1.468-1.477c-0.231-1.068-0.851-2.098-1.486-3.021c-0.409-0.594-1.088-1.037-1.716-1.438
		c-0.568-0.361-1.232-0.576-1.65-0.764c0.354-0.779,1.051-1.596,0.861-2.035c-0.566-1.336-2.846-2.127-3.902-1.674
		c-0.843,0.361-1.73,0.615-2.971,1.049c0.622-1.906,1.777-2.043,3.021-2.15c0.688-0.063,1.359-0.354,2.037-0.539
		c-0.33-0.646-0.611-1.324-1.01-1.926c-0.293-0.441-0.705-0.824-1.128-1.154c-0.821-0.646-1.683-0.738-2.428,0.121
		c-0.562,0.645-1.104,1.313-1.565,2.031c-0.808,1.264-1.002,2.508,0.368,3.436c-0.395,1.242-0.763,2.402-1.131,3.563
		c0.146,0.098,0.291,0.193,0.437,0.289c0.694-0.268,1.386-0.533,2.08-0.801c-2.876,1.73-3.816,4.463-3.992,7.762
		c-1.438-0.863-0.835-1.949-0.88-2.859c-0.042-0.832-0.073-1.672-0.019-2.502c0.035-0.525,0.161-1.07,0.372-1.553
		c0.794-1.809,0.691-3.527-0.491-5.154c2.313-0.709,2.511-1.66,1.128-5.906c1.224,0.145,2.316,0.16,3.354,0.412
		c1.549,0.379,2.246-0.23,2.372-2.271c0.551,0.049,1.171,0.268,1.632,0.084c0.4-0.156,0.758-0.736,0.869-1.193
		c0.063-0.252-0.432-0.913-0.659-0.905c-0.476,0.016-1.075,0.237-1.374,0.589C38.431,38.356,38.429,38.968,38.294,39.466z
		 M18.152,22.058c-0.004,0.228-0.009,0.457-0.013,0.685c0.922,0.28,1.876,0.876,2.76,0.787c5.013-0.507,7.655-3.6,8.463-8.758
		c1.935,2.682,4.068,4.294,7.045,4.617c2.905,0.314,5.37-0.81,7.87-2.363c0.077,0.49,0.163,0.79,0.165,1.091
		c0.028,3.784,1.751,6.674,4.805,8.756c1.455,0.992,3.135,1.387,4.858,0.587c0.29-0.134,0.642-0.516,0.646-0.787
		c0.002-0.257-0.362-0.638-0.652-0.762c-4.114-1.764-6.752-4.757-7.628-9.182c-0.187-0.94-0.568-1.326-1.513-1.177
		c-1.777,0.282-3.565,0.784-5.344,0.755c-2.264-0.036-4.541-0.398-6.77-0.836c-1.196-0.234-2.4-0.771-3.427-1.438
		c-1.629-1.06-2.149,0-2.568,1.171c-1.093,3.057-3.473,4.562-6.353,5.574C19.668,21.071,18.933,21.625,18.152,22.058z M11.681,36.83
		c2.656,0.193,6.358-2.515,7.098-5.041c0.881-3.007-0.274-6.867-2.689-8.782c-0.374-0.297-0.931-0.363-1.404-0.536
		c-0.012,0.486-0.094,0.982-0.023,1.456c0.363,2.434,0.761,4.884-0.289,7.232c-0.691,1.543-1.588,2.994-2.36,4.501
		C11.837,36.005,11.794,36.415,11.681,36.83z M22.592,25.093c-0.037,0.201-0.074,0.401-0.11,0.602
		c0.927,0.485,1.803,1.172,2.79,1.417c2.981,0.74,5.75-3.713,5.53-6.049c-0.096-1.018-0.971-0.86-1.595-0.482
		c-0.436,0.263-0.678,0.826-1.088,1.154c-1.057,0.846-2.119,1.697-3.257,2.422C24.183,24.59,23.354,24.788,22.592,25.093z
		 M37.081,23.831c0.922-0.237,1.907-0.344,2.741-0.759c0.538-0.268,0.851-0.988,1.265-1.505c-0.559-0.19-1.106-0.507-1.678-0.548
		c-2.111-0.152-4.304,0.373-6.275-0.905c-0.228-0.148-0.903,0.053-1.1,0.305c-0.159,0.203-0.023,0.808,0.18,1.093
		C33.397,23.171,34.917,24.198,37.081,23.831z M43.003,38.737c-0.355,0.189-0.812,0.354-1.164,0.643
		c-1.088,0.879-1.356,4.115-0.356,5.172c0.203,0.215,1.112,0.133,1.358-0.129c1-1.063,1.914-2.215,2.755-3.408
		c0.229-0.324,0.249-1.234,0.077-1.322C44.886,39.28,43.997,39.067,43.003,38.737z M48.702,29.262
		c-2.164-2.467-4.174-4.761-6.201-7.074c-0.668,1.82,0.271,4.716,2.049,6.155C45.724,29.294,47.055,29.756,48.702,29.262z
		 M43.81,46.493c0,0.162-0.044,0.34,0.008,0.48c0.186,0.5,0.402,0.986,0.607,1.479c0.33-0.426,0.853-0.809,0.959-1.281
		c0.419-1.85,1.552-3.125,2.979-4.244c0.29-0.229,0.64-0.807,0.536-1.014c-0.174-0.355-0.675-0.736-1.056-0.754
		c-0.542-0.027-1.271,0.096-1.621,0.449C44.9,42.952,43.868,44.497,43.81,46.493z M28.256,32.204
		c-0.332-1.238-0.305-2.427-1.636-2.345c-0.465,0.028-0.906,1.157-1.273,1.83c-0.275,0.503-0.483,1.067-0.595,1.63
		c-0.126,0.63-0.112,1.291-0.158,1.938c0.618-0.144,1.429-0.088,1.813-0.468C27.15,34.056,27.653,33.08,28.256,32.204z
		 M32.452,25.76c-0.057-0.07-0.201-0.409-0.356-0.414c-0.451-0.014-1.013-0.039-1.34,0.201c-0.888,0.651-1.717,1.399-2.482,2.193
		c-0.234,0.243-0.36,0.844-0.221,1.124c0.143,0.286,0.665,0.509,1.034,0.532C30.168,29.462,32.477,27.043,32.452,25.76z
		 M46.604,34.89c-0.659-0.914-1.077-2.102-1.711-2.231c-0.982-0.202-1.484,0.792-1.508,1.843c-0.03,1.309,0.32,2.488,1.764,2.562
		C45.54,37.088,45.993,35.843,46.604,34.89z M33.381,24.854c1.163,2.649,3.227,3.307,4.644,1.877
		c0.267-0.268,0.126-0.937,0.175-1.42C36.706,25.169,35.214,25.028,33.381,24.854z M40.667,26.524
		c-0.648,2.151,0.604,4.29,2.217,4.481c0.332,0.039,0.764-0.095,1.016-0.307c0.163-0.137,0.227-0.692,0.092-0.834
		C42.982,28.783,41.913,27.76,40.667,26.524z M37.96,30.533c0.096,1.475,0.607,2.324,1.797,2.371
		c0.359,0.015,0.746-0.634,1.119-0.978c-0.686-0.718-1.354-1.452-2.092-2.111C38.745,29.78,38.146,30.37,37.96,30.533z
		 M40.985,33.515c-0.605,0.787-1.304,1.31-1.236,1.703c0.084,0.502,0.785,0.899,1.223,1.344c0.395-0.432,1.059-0.836,1.104-1.301
		C42.113,34.815,41.512,34.308,40.985,33.515z M31.957,33.645c-0.677-0.616-1.031-0.938-1.384-1.257
		c-0.483,0.588-0.983,1.167-1.407,1.797c-0.023,0.033,0.688,0.771,0.87,0.699C30.632,34.651,31.145,34.196,31.957,33.645z
		 M37.618,29.603c-0.861-0.376-1.427-0.85-1.822-0.736c-0.463,0.133-0.779,0.777-1.159,1.2c0.428,0.32,0.913,0.951,1.271,0.885
		C36.419,30.857,36.839,30.255,37.618,29.603z M32.387,29.206c-0.561,0.831-1.023,1.29-1.166,1.833
		c-0.059,0.226,0.72,0.958,0.852,0.896c0.577-0.271,1.056-0.75,1.57-1.152C33.324,30.383,33.004,29.983,32.387,29.206z"/>
	<path fill="currentColor" d="M35.469,59.382c-1.585,2.338-3.115,4.594-4.898,7.227c-0.376-2.428-0.695-4.48-0.978-6.311
		C31.311,60.032,33.351,59.712,35.469,59.382z"/>
	<path fill="currentColor" d="M30.944,52.665c-1.261-0.951-2.263-1.705-3.512-2.646C29.37,49.915,30.331,50.651,30.944,52.665z"/>
</g>
</svg>
