<?xml version="1.0" encoding="utf-8"?>
<!-- Generator: Adobe Illustrator 16.0.0, SVG Export Plug-In . SVG Version: 6.00 Build 0)  -->
<!DOCTYPE svg PUBLIC "-//W3C//DTD SVG 1.1//EN" "http://www.w3.org/Graphics/SVG/1.1/DTD/svg11.dtd">
<svg version="1.1" id="Layer_1" xmlns="http://www.w3.org/2000/svg" xmlns:xlink="http://www.w3.org/1999/xlink" x="0px" y="0px"
	 width="71.977px" height="71.907px" viewBox="0 0 71.977 71.907" enable-background="new 0 0 71.977 71.907" xml:space="preserve">
<g>
	<path fill="currentColor" d="M20.108,34.056c0-5.944,0.034-11.889-0.02-17.833c-0.019-1.944,0.672-3.308,2.482-4.088
		c1.472-0.634,2.902-1.365,4.389-1.962c1.342-0.54,1.9-0.114,1.901,1.343c0.006,9.019,0.002,18.038,0.002,27.057
		c0,4.516-0.046,9.033,0.025,13.549c0.024,1.563-0.554,2.137-2.09,2.051c-1.616-0.092-3.247-0.102-4.861,0.004
		c-1.395,0.091-1.881-0.336-1.862-1.803C20.153,46.269,20.108,40.161,20.108,34.056z"/>
	<path fill="currentColor" d="M44.153,9.697c2.297,1.163,4.681,2.188,6.833,3.573c0.638,0.41,0.864,1.832,0.868,2.792
		c0.058,12.15,0.03,24.3,0.048,36.448c0.002,1.158-0.441,1.682-1.628,1.652c-1.727-0.045-3.455-0.033-5.183-0.002
		c-0.844,0.014-1.317-0.215-1.316-1.175c0.016-14.25,0.011-28.501,0.011-42.752C43.908,10.055,44.03,9.876,44.153,9.697z"/>
	<path fill="currentColor" d="M16.866,16.657c0,0.91,0,1.537,0,2.165c0,11.178,0.008,22.354-0.02,33.533c-0.001,0.584-0.3,1.167-0.46,1.75
		c-0.574-0.235-1.295-0.327-1.694-0.733c-0.967-0.988-2.04-2.002-2.61-3.222c-1.44-3.071-3.048-6.097-3.41-9.584
		c-0.561-5.386-0.419-10.637,1.881-15.698c1.299-2.858,2.906-5.443,5.2-7.584C15.988,17.063,16.33,16.952,16.866,16.657z"/>
	<path fill="currentColor" d="M55.475,16.403c0.785,0.619,1.238,0.872,1.556,1.242c3.022,3.521,5.202,7.629,6.043,12.08
		c1.085,5.747,1.163,11.641-1.69,17.107c-1.082,2.074-2.17,4.15-3.393,6.142c-0.333,0.543-1.165,0.778-1.769,1.153
		c-0.248-0.643-0.708-1.285-0.711-1.928c-0.048-9.281-0.035-18.561-0.036-27.841C55.475,21.89,55.475,19.421,55.475,16.403z"/>
	<path fill="currentColor" d="M32.113,32.742c-0.161-0.708-0.311-1.051-0.308-1.392c0.075-6.948,0.214-13.895,0.212-20.843
		c0-1.273,0.369-1.788,1.543-2.086c1.833-0.467,3.634-0.488,5.325,0.322c0.566,0.271,1.241,1.083,1.243,1.651
		c0.019,6.525-0.091,13.051-0.142,19.578c-0.006,0.775,0.145,1.553,0.277,2.898C37.434,30.44,34.856,30.062,32.113,32.742z"/>
	<path fill="currentColor" d="M39.787,39.312c0.201,0.593,0.408,0.921,0.411,1.25c0.021,3.871-0.036,7.743,0.038,11.614
		c0.029,1.527-0.444,2.148-2.036,2.003c-1.446-0.132-2.924-0.126-4.371-0.001c-1.502,0.129-1.86-0.559-1.836-1.883
		c0.059-3.238,0.058-6.479,0.05-9.721c-0.002-0.964-0.106-1.928-0.197-3.464C34.719,41.668,37.236,41.879,39.787,39.312z"/>
	<path fill="currentColor" d="M50.505,5.8c1.405,0.701,2.739,1.265,3.948,2.025c0.425,0.268,0.892,1.178,0.734,1.52
		c-0.382,0.838-1.026,1.809-2.231,1.175c-0.84-0.442-1.601-1.046-2.364-1.62C49.331,7.954,49.288,6.927,50.505,5.8z"/>
	<path fill="currentColor" d="M16.781,8.461c1.259-0.76,2.482-1.588,3.798-2.234c0.362-0.179,1.267,0.032,1.435,0.335
		c0.245,0.439,0.288,1.38-0.007,1.659c-0.952,0.899-2.018,1.813-3.21,2.257c-0.466,0.173-1.393-0.886-2.107-1.384
		C16.719,8.883,16.75,8.672,16.781,8.461z"/>
	<path fill="currentColor" d="M14.309,10.293c0.493,0.626,0.739,0.982,1.028,1.298c0.688,0.752,0.623,1.365-0.227,1.963
		c-0.863,0.609-1.619,1.392-2.533,1.898c-0.395,0.218-1.161,0.084-1.582-0.177c-0.291-0.18-0.531-1.072-0.362-1.264
		C11.708,12.797,12.902,11.687,14.309,10.293z"/>
	<path fill="currentColor" d="M69.737,33.25c0,1.503,0.057,3.01-0.037,4.506c-0.024,0.396-0.626,1.123-0.769,1.078c-0.639-0.201-1.636-0.543-1.72-0.983
		c-0.238-1.252-0.322-2.637-0.001-3.846c0.151-0.573,1.366-0.864,2.1-1.283C69.452,32.899,69.595,33.075,69.737,33.25z"/>
	<path fill="currentColor" d="M69.438,42.383c-0.488,1.537-0.808,2.84-1.354,4.037c-0.129,0.283-1.126,0.422-1.559,0.238
		c-0.438-0.188-0.982-0.898-0.929-1.307c0.145-1.083,0.49-2.171,0.958-3.162c0.169-0.355,0.938-0.648,1.389-0.598
		C68.481,41.657,68.973,42.12,69.438,42.383z"/>
	<path fill="currentColor" d="M67.991,30.712c-0.815-0.729-1.457-1.055-1.694-1.568c-0.393-0.85-0.664-1.815-0.696-2.742
		c-0.015-0.416,0.621-1.131,1.058-1.214c0.513-0.097,1.438,0.186,1.639,0.582c0.521,1.026,0.871,2.188,1.01,3.329
		C69.355,29.501,68.598,30.002,67.991,30.712z"/>
	<path fill="currentColor" d="M63.549,17.117c0.15,0.104,0.488,0.221,0.628,0.455c0.705,1.183,1.446,2.36,1.971,3.625
		c0.134,0.321-0.372,1.13-0.786,1.378c-0.292,0.175-1.127-0.067-1.367-0.387c-0.694-0.921-1.221-1.971-1.792-2.981
		C61.758,18.423,62.483,17.183,63.549,17.117z"/>
	<path fill="currentColor" d="M31.03,4.456c-0.664,0.64-0.973,1.167-1.407,1.311c-1.153,0.382-2.352,0.708-3.554,0.823
		c-0.42,0.04-1.114-0.52-1.293-0.963c-0.138-0.342,0.229-1.243,0.556-1.354c1.343-0.458,2.745-0.792,4.15-0.979
		C29.851,3.245,30.312,3.893,31.03,4.456z"/>
	<path fill="currentColor" d="M10.222,18.447c-0.952,1.534-1.79,2.936-2.712,4.282c-0.077,0.112-0.862-0.038-1.052-0.277
		c-0.32-0.402-0.724-1.103-0.571-1.451c0.53-1.214,1.244-2.357,1.982-3.465c0.156-0.235,0.809-0.388,1.063-0.255
		C9.413,17.531,9.77,18.017,10.222,18.447z"/>
	<path fill="currentColor" d="M34.049,35.907c-0.048-1.332,0.735-1.989,1.926-2.095c1.254-0.111,1.968,0.801,1.981,2.183
		c0.013,1.324-0.78,1.978-1.898,2.208C35.152,38.392,34.04,37.021,34.049,35.907z"/>
	<path fill="currentColor" d="M47.364,4.964c-0.021,1.487-0.697,1.95-1.776,1.606c-0.858-0.274-1.811-0.363-2.571-0.797
		c-0.52-0.295-1.105-1.056-1.085-1.584c0.036-0.884,0.801-1.131,1.687-0.839c0.956,0.314,1.954,0.506,2.892,0.865
		C46.908,4.368,47.198,4.812,47.364,4.964z"/>
	<path fill="currentColor" d="M60.157,16.006c-0.369-0.277-0.678-0.47-0.938-0.713c-0.667-0.622-1.246-1.365-1.987-1.875
		c-0.746-0.513-0.868-1.002-0.36-1.676c0.497-0.66,1.063-1.104,1.854-0.348c0.853,0.812,1.751,1.576,2.566,2.422
		c0.201,0.209,0.329,0.777,0.191,0.966C61.156,15.24,60.651,15.571,60.157,16.006z"/>
	<path fill="currentColor" d="M61.291,53.972c0.955-1.505,1.699-2.849,2.641-4.035c0.23-0.29,1.152-0.194,1.673-0.022
		C65.867,50,66.15,50.702,66.07,51.04C65.493,53.482,64.181,54.34,61.291,53.972z"/>
	<path fill="currentColor" d="M4.905,36.104c0,0.588,0.15,1.232-0.046,1.746c-0.165,0.43-0.719,0.951-1.126,0.977c-0.359,0.021-1.043-0.562-1.083-0.931
		c-0.138-1.269-0.137-2.569-0.005-3.839c0.038-0.363,0.703-0.926,1.07-0.917c0.41,0.009,1.034,0.494,1.159,0.897
		c0.195,0.634,0.052,1.373,0.052,2.067C4.918,36.104,4.912,36.104,4.905,36.104z"/>
	<path fill="currentColor" d="M3.01,42.645c0.5-0.368,0.952-0.893,1.496-1.02c0.266-0.062,0.841,0.559,1.034,0.979c0.393,0.856,0.653,1.778,0.905,2.692
		c0.235,0.85-0.181,1.412-1.021,1.436c-0.406,0.012-1.041-0.271-1.193-0.598C3.764,45.131,3.48,44.043,3.01,42.645z"/>
	<path fill="currentColor" d="M7.214,49.256c0.536,0.466,0.939,0.693,1.165,1.039c0.518,0.791,0.925,1.654,1.421,2.461
		c0.563,0.918,0.138,1.289-0.737,1.341C7.75,54.176,5.58,51.82,5.896,50.554C6.012,50.09,6.674,49.765,7.214,49.256z"/>
	<path fill="currentColor" d="M4.164,30.69c-0.426-0.83-0.936-1.354-0.874-1.799c0.15-1.085,0.49-2.165,0.918-3.179c0.139-0.331,0.934-0.733,1.157-0.61
		c0.468,0.259,1.092,0.876,1.052,1.289c-0.097,1.021-0.467,2.036-0.86,2.999C5.398,29.781,4.894,30.03,4.164,30.69z"/>
	<path fill="currentColor" d="M33.506,2.761c1.452,0,2.908-0.05,4.353,0.045c0.267,0.017,0.763,0.716,0.685,0.938C38.36,4.269,37.957,5.021,37.535,5.1
		c-1.034,0.193-2.181,0.245-3.182-0.022c-0.523-0.14-0.837-1.072-1.246-1.647C33.241,3.208,33.374,2.984,33.506,2.761z"/>
</g>
</svg>
