<?xml version="1.0" encoding="utf-8"?>
<!-- Generator: Adobe Illustrator 16.0.0, SVG Export Plug-In . SVG Version: 6.00 Build 0)  -->
<!DOCTYPE svg PUBLIC "-//W3C//DTD SVG 1.1//EN" "http://www.w3.org/Graphics/SVG/1.1/DTD/svg11.dtd">
<svg version="1.1" id="Layer_1" xmlns="http://www.w3.org/2000/svg" xmlns:xlink="http://www.w3.org/1999/xlink" x="0px" y="0px"
	 width="72px" height="72px" viewBox="0 0 72 72" enable-background="new 0 0 72 72" xml:space="preserve">
<g>
	<path fill="currentColor" d="M6.027,32.998c3.299,1.492,5.571,3.749,7.602,6.258c0.967,1.195,1.709,2.569,2.628,3.807
		c0.244,0.328,0.766,0.451,1.16,0.668c0.14-0.424,0.453-0.875,0.394-1.269c-0.768-5.146-2.431-9.92-5.948-13.896
		c-0.469-0.53-0.919-1.076-1.377-1.615c0.104-0.133,0.209-0.267,0.313-0.399c2.23,1.153,4.631,2.068,6.65,3.516
		c2.912,2.087,5.571,4.534,8.266,6.909c0.277,0.244,0.298,1.225,0.042,1.559c-1.652,2.156-1.498,4.295,0.54,5.729
		c1.762,1.239,4.817,0.521,5.774-1.639c0.623-1.406,1.069-3.139,0.86-4.62c-0.595-4.215-2.519-7.915-5.475-10.998
		c-1.074-1.12-0.985-1.753,0.136-2.853c4.165-4.084,6.374-9.255,7.771-14.827c0.167-0.663,0.473-1.291,0.851-2.301
		c0.892,3.041,1.576,5.636,2.417,8.18c1.146,3.47,2.594,6.796,5.461,9.263c0.887,0.762,0.809,1.387,0.053,2.294
		c-2.865,3.438-4.688,7.432-5.112,11.865c-0.203,2.128,0.235,4.435,2.481,5.729c1.404,0.809,2.838,0.64,3.969-0.487
		c1.217-1.214,1.768-3.091,0.887-4.209c-1.215-1.539-0.932-2.487,0.295-3.953c3.174-3.8,7.076-6.52,11.441-8.687
		c0.125-0.062,0.293-0.042,0.74-0.095c-0.758,1.114-1.367,2.063-2.029,2.973c-2.654,3.638-3.535,7.928-4.471,12.19
		c-0.07,0.313,0.228,0.797,0.496,1.05c0.102,0.094,0.736-0.152,0.908-0.397c1.035-1.483,1.973-3.035,3.009-4.519
		c1.69-2.419,3.97-4.188,6.498-5.653c0.312-0.18,0.724-0.187,1.32-0.33c-1.334,1.788-2.606,3.229-3.581,4.849
		c-2.626,4.369-3.762,9.245-4.602,14.216c-0.106,0.627-0.638,1.521-1.162,1.684c-3.943,1.234-7.885,2.587-11.933,3.361
		c-3.294,0.633-6.739,0.764-10.106,0.682c-6.591-0.161-12.845-1.963-18.794-4.75c-0.643-0.301-1.244-1.248-1.379-1.984
		c-1.069-5.84-2.881-11.352-6.554-16.125C6.274,33.919,6.23,33.555,6.027,32.998z"/>
	<path fill="currentColor" d="M12.189,55.727c0.448,0.129,0.901,0.193,1.295,0.381c4.901,2.332,10.035,3.724,15.405,4.64
		c5.273,0.897,10.411,0.448,15.505-0.513c3.519-0.661,6.881-2.133,10.323-3.209c0.601-0.188,1.255-0.209,1.884-0.307
		c0.09,0.635,0.246,1.268,0.256,1.901c0.057,3.328-2.767,3.522-4.896,4.278c-6.48,2.295-13.193,3.371-20.057,2.899
		c-6.213-0.429-12.183-2.039-17.857-4.646C12.706,60.538,11.846,57.999,12.189,55.727z"/>
</g>
</svg>
