<?xml version="1.0" encoding="utf-8"?>
<!-- Generator: Adobe Illustrator 16.0.0, SVG Export Plug-In . SVG Version: 6.00 Build 0)  -->
<!DOCTYPE svg PUBLIC "-//W3C//DTD SVG 1.1//EN" "http://www.w3.org/Graphics/SVG/1.1/DTD/svg11.dtd">
<svg version="1.1" id="Layer_1" xmlns="http://www.w3.org/2000/svg" xmlns:xlink="http://www.w3.org/1999/xlink" x="0px" y="0px"
	 width="71.907px" height="71.977px" viewBox="0 0 71.907 71.977" enable-background="new 0 0 71.907 71.977" xml:space="preserve">
<g>
	<path fill="currentColor" d="M59.042,59.473c0-1.185,0.004-2.036,0-2.891c-0.006-1.593-0.244-1.746-1.652-1.084c-0.18,0.085-0.379,0.126-0.795,0.259
		c0-1.347-0.154-2.575,0.039-3.748c0.24-1.448,0.098-2.465-1.74-2.587c0.266-0.632,0.384-1.181,0.689-1.59
		c0.61-0.813,0.354-1.397,0.033-2.309c-0.392-1.104-0.224-2.516,0.051-3.714c0.289-1.271,0.942-2.396-0.342-3.53
		c-0.285-0.254-0.201-1.035-0.137-1.555c0.182-1.45-0.67-2.352-1.654-3.126c-0.301-0.236-0.881-0.117-1.332-0.16
		c0.004,0.387,0.021,0.774,0.012,1.163c-0.021,0.878,0.188,1.855-0.131,2.611c-0.703,1.677-1.535,3.334-2.563,4.828
		c-1.732,2.518-1.191,5.016,0.253,7.174c1.192,1.784,0.763,3.431,0.606,5.183c-0.224,2.516-1.725,4.534-2.938,6.592
		c-0.44,0.744-1.991,0.832-3.036,1.22c-0.14-0.202-0.279-0.404-0.419-0.606c0.394-0.555,0.711-1.188,1.194-1.647
		c3.016-2.87,3.59-6.863,1.552-10.433c-0.636-1.114-1.392-1.177-2.221-0.482c-1.548,1.293-3.044,2.654-4.464,4.086
		c-0.305,0.306-0.17,1.029-0.271,1.555c-0.104,0.532-0.089,1.304-0.421,1.521c-0.399,0.263-1.181,0.203-1.655-0.02
		c-0.216-0.102-0.158-0.931-0.115-1.42c0.297-3.49,2.988-5.144,5.42-6.987c1.781-1.354,1.75-1.319,0.343-3.054
		c-0.914-1.124-1.804-2.292-2.522-3.546c-0.629-1.094-1.408-1.545-2.635-1.387c-1.161,0.149-2.331,0.23-3.896,0.381
		c0.647,1.419,1.164,2.552,1.68,3.684c-0.119,0.072-0.238,0.146-0.358,0.221c-0.256-0.28-0.494-0.582-0.774-0.837
		c-0.658-0.6-1.355-0.812-1.832,0.158c-0.383,0.778-0.845,0.985-1.668,0.695c-0.274-0.097-0.825,0.056-0.992,0.282
		c-0.887,1.206-1.49,0.508-2.379-0.078c-1.126-0.742-2.224-2.261-3.917-0.896c-0.179,0.144-0.615,0.031-0.91-0.044
		c-1.441-0.372-2.066,0.021-2.033,1.456c0.036,1.562-0.058,3.193,0.366,4.663c0.737,2.556-0.563,4.128-2.059,5.818
		c-0.537,0.606-0.625,1.6-0.962,2.396c-0.186,0.441-0.396,1.13-0.713,1.204c-0.568,0.132-1.224-0.116-1.843-0.205
		c0.114-0.524,0.06-1.197,0.37-1.548c1.996-2.256,2.456-4.76,1.802-7.677c-0.678-3.023-1.032-6.118-1.614-9.167
		c-0.136-0.712-0.564-1.389-0.947-2.028c-1.219-2.039-1.223-4.266-1.307-6.551c-0.076-2.076-0.598-4.141-0.986-6.198
		c-0.067-0.357-0.449-0.655-0.93-1.318c-0.939,2.213-1.743,4.104-2.601,6.124c-1.604-0.921-2.321-1.824-2.301-3.399
		c0.027-2.194-0.314-4.396-0.247-6.588c0.034-1.114,0.327-2.506,1.05-3.22c0.522-0.517,1.96-0.245,2.961-0.108
		c1.424,0.194,3.044,0.236,4.182,0.967c2.231,1.432,4.192,3.288,6.254,4.98c0.453,0.372,0.802,0.907,1.301,1.176
		c0.948,0.512,2.212-0.177,1.94-1.085c-0.61-2.043,0.723-2.977,1.95-4.021c1.069-0.91,2.433-1.739,2.196-3.345
		c-0.179-1.208-0.659-2.46-1.319-3.492c-1.37-2.14-1.4-2.555,0.522-4.146c0.083-0.068,0.158-0.146,0.243-0.214
		c2.2-1.715,2.016-1.512,4.104,0.371c3.079,2.776,3.231,6.368,3.49,10.018c0.178,2.521,0.428,5.038,0.517,7.563
		c0.042,1.18,0.699,1.306,1.571,1.317c1.243,0.016,2.485,0.033,3.729,0.021c2.312-0.022,4.404,0.626,6.455,1.703
		c1.547,0.811,3.277,1.266,4.92,1.896c1.965,0.755,3.293,2.169,4.686,3.751c1.795,2.04,2.684,4.301,3.279,6.806
		c0.074,0.313,0.281,0.775,0.147,0.928c-1.228,1.412-0.151,2.617,0.368,3.788c1.008,2.271,0.063,4.323-0.459,6.451
		c-0.186,0.748-0.109,1.556-0.239,2.322c-0.235,1.406-0.511,2.811-0.84,4.199C60.106,59.135,59.639,59.208,59.042,59.473z
		 M20.107,52.798c0-1.142,0-2.282,0-3.787C19.082,50.515,18.847,51.656,20.107,52.798z"/>
</g>
</svg>
