<svg xmlns="http://www.w3.org/2000/svg" xml:space="preserve" width="72px" height="72px" viewBox="0 0 72 72">
    <path fill="currentColor" d="M24.8 65.2c1.8.8 3.2.3 4.5-.9.5-.4.9-.9 1.3-1.4l-.2-.3c-.3 0-.7 0-1 .1-1.8.7-3.5.5-5.3.1-.8-.2-1.6-.3-2.3-.1-.5.1-1.2.6-1.4 1.1-.3.7 0 1.5.9 1.8.2 0 .3.2.4.3-.9 1-2.5-.1-2.6-1.8 0-.7.2-1.4.4-2.1q-1.1-.2-3.4 2.8c-.7-1.4.2-3.6 2.1-4 1.4-.4 3-.2 4.5 0 2 .3 3.9.9 5.9 0 1.7-.8 2.8-2.2 3.5-3.8 1.5-3.6.8-7.4.5-11-.2-1.9-2.6-3.1-4.7-2.4-2.4.7-4.8 1.6-7.2 2.5-.5.2-1.2 1-1.2 1.5s.7 1 1.2 1.4c.3.2.7.3 1.1.6-1.9 1-3.9-.3-3.8-2.3 0-.9 0-1.5-.9-2.1-.8-.5-1.3-1.4-.7-2.4.3-.5 1-.7 1.7-1.1v.7c-.2.4-.5.9-.7 1.3.6.2 1.1.7 1.7.7.7 0 1.4-.3 2-.6 3.1-1.5 5.9-3.7 9.6-3.7 0-.1.1-.3.2-.4-.6-.5-1.1-1.3-1.8-1.6-1.9-.7-3.9-1.2-5.9-1.6-1.7-.3-3.5-.3-5.3-.4-.4 0-.9 0-1.3.1-.4.2-1 .6-1.1.9 0 .4.3 1 .6 1.3.3.4.9.6 1.5 1-1.2.5-1.9.1-2.5-.5-.8-.8-1.3-1.7-.8-2.8.1-.3.3-.7.6-.9 1.4-.7 1-1.4.4-2.5-1.2-2.3.1-4.7 2.3-4.7.5 0 1 .3 1.7.5-.4.3-.5.4-.6.4-1.1 0-2.2-.1-2.5 1.2-.3 1.2.5 2.7 1.8 3.1 1.1.3 2.2.4 3.4.5 2.2.2 4.5 0 6.7.4 1.5.3 2.9 1.2 4.3 1.9.4.2.7.4 1.2.7.3-2-.3-3.5-1.5-4.5-3-2.6-6.2-4.9-9.3-7.3-.5-.4-1.3-.6-1.8-.5-.5 0-1 .7-1.4 1.1.4.4.7.9 1.2 1.2.3.2.7.2 1 .2v.6c-.8-.1-1.7 0-2.3-.4-.9-.5-1.2-1.6-.9-2.6.7-2.1 2.5-2.1 4.5-2q-.15-1.05-.3-1.8c-.4-2.1 1.1-3.9 3-3.5 1.5.3 2.3 1.9 1.4 2.9-.2-.4-.3-1-.6-1.2-.4-.3-1.1-.7-1.6-.6-.3 0-.7.9-.7 1.3 0 2.6 1.7 4.2 3.6 5.6 1.7 1.2 3.4 2.3 5.2 3.4.9.6 1.3.5 1.3-.6V17.3c0-2.1-.7-2.6-2.7-2.4-.1 0-.3 0-.5-.1.6-1.3 2-1.7 3.1-1 .4.2.7.5 1 .9.7 1 1.3.9 2.1 0 1.4-1.7 2.9-1.6 4 .3-.2 0-.4.1-.6 0-1.6-.3-2.4.1-2.5 1.8v11.1c0 .6.4 1.3 1.1.8 2.9-1.9 6.4-3.1 8.2-6.4.4-.7.6-1.5.8-2.3s-.1-1.5-1.1-1.6c-.9 0-1.5.4-1.6 1.3 0 .2 0 .3-.1.5h-.4c0-.5-.2-1.1 0-1.6.5-1 1.4-1.6 2.6-1.4 1.3.2 2 1.1 2.2 2.3.2 1.3 1.4 2.9 2.5 3.4 1.9.8 2.5 2.4 1.4 3.9-.8 1.1-2 1.2-3.1.3.5 0 .9 0 1.2-.2.5-.4.8-.9 1.2-1.4-.5-.3-1-.9-1.4-.9-1.1.3-2.2.7-3.1 1.3-2.7 2-5.5 3.9-8 6.1-.9.8-1.3 2.2-1.7 3.4-.3 1 .7 1 1.2.6 3.3-2.6 7.1-2.3 10.8-2.2 1 0 2.1 0 3.2-.2 1.4-.2 2.5-1.6 2.3-2.8-.1-1.2-.7-2-2-1.9h-.8c1.2-1.2 3.2-.8 3.8.7.5 1.1.7 2.3 0 3.4-.8 1-.5 1.6.3 2.4.6.6.9 1.7.8 2.5-.1 1.1-1.1 1.7-2.3 1.8q-.3 0-.9-.3c.5-.3.9-.5 1.2-.8s.9-.9.8-1.2c-.2-.5-.7-.9-1.2-1.2-.4-.2-.9-.3-1.4-.3-2.9.2-5.9.3-8.8.8-1.3.2-2.5 1.2-3.7 1.9-.2.1-.4.5-.4.6.1.2.4.5.7.5 3.1.2 5.6 2 8.2 3.4.9.4 1.7.9 2.7 1.1.6.1 1.3-.2 1.9-.4-.2-.6-.4-1.1-.6-1.8.6-.4 1.3 0 1.5.7.2.6.2 1.8-.2 2.1-1.1.8-1.4 1.6-1.4 3 0 .6-.9 1.5-1.6 1.9-.6.4-1.5.7-2.4-.3.5-.2.9-.2 1.2-.4.5-.3 1.2-.7 1.2-1.1 0-.5-.4-1.3-.8-1.6-.9-.6-1.9-.9-2.9-1.2-1.6-.6-3.3-1.2-5-1.7-2.4-.7-4.5.6-4.6 3.2-.1 2.5-.4 5 0 7.5.6 4.6 3.8 8 8.9 7 1.5-.3 3-.4 4.4-.4 2.3 0 4 1.9 3.9 4.7-1.2-1.4-1.6-3.7-4.2-3.3.9 1.5 1.3 2.9-.2 4-.4.3-1.1.4-1.8.6.1-.5 0-.6.1-.6.8-.4 1.5-.8 1.4-1.8-.2-1.1-1.1-1.4-2.1-1.5-.6 0-1.1 0-1.7.1-2.2.5-4.3.4-6.4-.5 0 .1-.2.3-.3.4.5.5.9 1 1.5 1.5.7.5 1.4 1 2.1 1.2s1.5 0 2.3 0c0 .1.1.2.2.3-.3.3-.6.6-1 .8-.6.2-1.3.4-1.9.2-1.5-.3-2.7-.6-3.6 1.1-.2.4-1.3.4-1.9.6 0-.1 0-.2-.1-.4.2-.2.5-.3.7-.5.8-.7 1-1.7.2-2.5-1-1.1-2.1-2.2-3.3-3.2-.2-.2-1 0-1.3.2-.7.6-1.3 1.4-2.1 2-1.7 1.4-1.7 2.5 0 3.8 0 0 .1.2.2.3-1.5.4-2 .2-2.8-1.1-.4-.7-.8-.8-1.6-.6-2.1.6-3.4.2-4.1-1.3Zm38.5-30.1c.5.6 1.1 1.2 1.6 1.8q1.4 1.8.1 3.7c-.2.3-.5.6-.7 1-.6.7-1.2.7-1.7 0q-2.3-2.8.8-6.3Zm-1.2-11.7c-.9 1-1.8 2.1-2.7 3.1 0 0-.8-.2-1.1-.5-2.2-2.4-2.2-3.4 0-5.6.2-.2 1.1-.3 1.3-.1.8.8 1.4 1.7 2.1 2.5.1.2.2.4.3.7ZM38.8 6.9c-.2.3-.5.5-.7.8-.3.3-.6.7-.8 1q-1.5 1.8-3 0c-.2-.3-.5-.6-.7-.9q-.9-.9 0-1.8c.6-.6 1.1-1.3 1.5-2 .4-.6.9-.7 1.4-.2.8.9 1.4 1.8 2.1 2.7 0 0 0 .2.1.5Zm11.1 1.8c.2.2.5.3.7.5.6.8 1.3 1.5 1.9 2.4.2.3.2.9 0 1.2-.5.8-1.1 1.4-1.7 2.1-.5.6-1 .7-1.5 0-.7-.8-1.3-1.6-1.9-2.5-.1-.2-.2-.5-.1-.6.7-1 1.5-2 2.3-3 0 0 .2 0 .4-.2Zm-25.2 3.2c-.7.9-1.2 1.7-1.9 2.5-1.1 1.3-1.1 1.3-2.2 0q-1.8-2.2-.2-4.4t2.8 0c.5.6 1 1.2 1.5 1.9m-9.1 10.8c-.5.6-.8 1.1-1.2 1.6-.4.4-.7.9-1.1 1.3q-.75 1.05-1.5 0c-2.2-2.5-2.2-3.4.3-5.7.2-.2.8-.4.9-.3.9 1 1.7 2 2.7 3.1Zm-4.2 15.4c-.1.3-.2.5-.3.7-.4.5-.7 1-1.1 1.4q-1.7 1.8-3.1-.3t.1-3.3 3.3 0c.4.5.7 1 1.1 1.4Z"/>
</svg>
