<svg xmlns="http://www.w3.org/2000/svg" xml:space="preserve" width="72px" height="72px" viewBox="0 0 72 72">
    <path fill="currentColor" d="M34.525 44.152c-5.436-1.59-10.189-.524-14.372 2.908-.171-.145-.308-.205-.31-.27-.135-3.652-1.865-5.932-5.498-7.091-1.102-.353-2.275-.479-3.383-.816-.337-.104-.864-.694-.799-.844 1.38-3.163-.48-5.453-2.11-7.74-.918-1.288-2.103-2.386-3.488-3.926 1.464-.373 2.813-.934 4.194-1.032 5.066-.36 10.044.353 14.965 1.548 1.021.248 1.417.74 1.625 1.83.52 2.711 1.092 5.519 2.951 7.653 1.043 1.196 2.638 1.907 3.966 2.864.476.343 1.116.678 1.298 1.16.424 1.122.615 2.331.961 3.756m3.01.028c.406-1.619.705-2.961 1.105-4.271.084-.275.516-.549.836-.633 3.965-1.029 5.449-4.183 6.529-7.645.346-1.109.376-2.32.752-3.416.174-.501.777-1.1 1.279-1.203 3.131-.643 6.271-1.364 9.443-1.648 2.494-.223 5.045.088 7.563.286.795.063 1.561.526 2.16.742-1.605 2.052-3.307 3.837-4.523 5.907-.916 1.558-1.969 3.333-.889 5.389.491.933-.184 1.145-1.023 1.248-3.067.379-5.791 1.575-7.604 4.142-.736 1.044-.91 2.485-1.385 3.877-4.007-3.244-8.723-4.439-14.243-2.775"/>
</svg>
