<svg xmlns="http://www.w3.org/2000/svg" xml:space="preserve" width="72px" height="72px" viewBox="0 0 72 72">
    <path fill="currentColor" d="M59.042 59.473c0-1.185.004-2.036 0-2.891-.006-1.593-.244-1.746-1.652-1.084-.18.085-.379.126-.795.259 0-1.347-.154-2.575.039-3.748.24-1.448.098-2.465-1.74-2.587.266-.632.384-1.181.689-1.59.61-.813.354-1.397.033-2.309-.392-1.104-.224-2.516.051-3.714.289-1.271.942-2.396-.342-3.53-.285-.254-.201-1.035-.137-1.555.182-1.45-.67-2.352-1.654-3.126-.301-.236-.881-.117-1.332-.16.004.387.021.774.012 1.163-.021.878.188 1.855-.131 2.611-.703 1.677-1.535 3.334-2.563 4.828-1.732 2.518-1.191 5.016.253 7.174 1.192 1.784.763 3.431.606 5.183-.224 2.516-1.725 4.534-2.938 6.592-.44.744-1.991.832-3.036 1.22l-.419-.606c.394-.555.711-1.188 1.194-1.647 3.016-2.87 3.59-6.863 1.552-10.433-.636-1.114-1.392-1.177-2.221-.482a65 65 0 0 0-4.464 4.086c-.305.306-.17 1.029-.271 1.555-.104.532-.089 1.304-.421 1.521-.399.263-1.181.203-1.655-.02-.216-.102-.158-.931-.115-1.42.297-3.49 2.988-5.144 5.42-6.987 1.781-1.354 1.75-1.319.343-3.054-.914-1.124-1.804-2.292-2.522-3.546-.629-1.094-1.408-1.545-2.635-1.387-1.161.149-2.331.23-3.896.381l1.68 3.684-.358.221c-.256-.28-.494-.582-.774-.837-.658-.6-1.355-.812-1.832.158-.383.778-.845.985-1.668.695-.274-.097-.825.056-.992.282-.887 1.206-1.49.508-2.379-.078-1.126-.742-2.224-2.261-3.917-.896-.179.144-.615.031-.91-.044-1.441-.372-2.066.021-2.033 1.456.036 1.562-.058 3.193.366 4.663.737 2.556-.563 4.128-2.059 5.818-.537.606-.625 1.6-.962 2.396-.186.441-.396 1.13-.713 1.204-.568.132-1.224-.116-1.843-.205.114-.524.06-1.197.37-1.548 1.996-2.256 2.456-4.76 1.802-7.677-.678-3.023-1.032-6.118-1.614-9.167-.136-.712-.564-1.389-.947-2.028-1.219-2.039-1.223-4.266-1.307-6.551-.076-2.076-.598-4.141-.986-6.198-.067-.357-.449-.655-.93-1.318l-2.601 6.124c-1.604-.921-2.321-1.824-2.301-3.399.027-2.194-.314-4.396-.247-6.588.034-1.114.327-2.506 1.05-3.22.522-.517 1.96-.245 2.961-.108 1.424.194 3.044.236 4.182.967 2.231 1.432 4.192 3.288 6.254 4.98.453.372.802.907 1.301 1.176.948.512 2.212-.177 1.94-1.085-.61-2.043.723-2.977 1.95-4.021 1.069-.91 2.433-1.739 2.196-3.345a9.2 9.2 0 0 0-1.319-3.492c-1.37-2.14-1.4-2.555.522-4.146.083-.068.158-.146.243-.214 2.2-1.715 2.016-1.512 4.104.371 3.079 2.776 3.231 6.368 3.49 10.018.178 2.521.428 5.038.517 7.563.042 1.18.699 1.306 1.571 1.317 1.243.016 2.485.033 3.729.021 2.312-.022 4.404.626 6.455 1.703 1.547.811 3.277 1.266 4.92 1.896 1.965.755 3.293 2.169 4.686 3.751 1.795 2.04 2.684 4.301 3.279 6.806.074.313.281.775.147.928-1.228 1.412-.151 2.617.368 3.788 1.008 2.271.063 4.323-.459 6.451-.186.748-.109 1.556-.239 2.322a64 64 0 0 1-.84 4.199c-.042.172-.509.245-1.106.51m-38.935-6.675v-3.787c-1.025 1.504-1.26 2.645 0 3.787"/>
</svg>
