<svg xmlns="http://www.w3.org/2000/svg" xml:space="preserve" width="72px" height="72px" viewBox="0 0 72 72">
    <g fill="currentColor">
        <path d="M51.269 33.987c.541.624 1.178 1.189 1.605 1.882 2.334 3.771 4.641 7.558 6.873 11.388.194.334-.072 1.377-.367 1.496-6.463 2.619-9.633 7.94-11.672 14.158-.381 1.159-1.047 1.307-2.041 1.295-7.719-.095-15.437-.184-23.154-.232-1.193-.008-1.497-.701-1.799-1.648-1.215-3.822-2.821-7.474-5.834-10.238-1.327-1.217-2.887-2.25-4.493-3.068-1.339-.684-1.836-1.13-1.085-2.729 2.079-4.42 4.911-8.303 7.993-12.034.214-.259.577-.397.742-.506-.289 2.946-.789 5.886-.817 8.829-.049 4.926 2.049 9.129 5.072 12.896.773.964 1.395.574 1.688-.459.468-1.645.812-3.329 1.355-4.948.363-1.082.981-2.079 1.518-3.181 2.456 2.283 3.258 2.479 4.627 1.25 1.821-1.633 2.164-4.545.658-6.395-.6-.736-1.414-1.299-2.232-2.031 1.443-1.604 2.692-3.068 4.051-4.424.219-.218 1.096-.134 1.371.126.895.847 1.576 1.917 2.478 2.755 1.016.942.927 1.559-.096 2.465-2.032 1.801-2.313 4.556-.858 6.688 1.345 1.973 2.739 1.986 4.095.043.154-.221.301-.445.58-.859 1.645 2.283 2.405 4.605 2.887 7.045.053.264-.026.564.063.804.22.578.504 1.131.763 1.692.564-.353 1.277-.586 1.672-1.074 4.74-5.891 6.018-12.51 4.051-19.788-.082-.297-.012-.636-.012-.955.104-.083.213-.163.318-.243M30.825 56.365c.489 1.672.773 3.27 1.422 4.699.817 1.803 2.575 1.995 3.751.604 2-2.362 2.162-7.763.309-10.313-1.204-1.656-3.125-1.652-3.969.176-.699 1.513-1.02 3.205-1.513 4.834"/>
        <path d="M46.5 42.305c-1.683-2.952-3.125-6.02-5.067-8.73-1.644-2.296-3.845-4.198-5.837-6.238-.747-.764-1.513-.536-2.275.122-4.669 4.035-8.493 8.662-10.424 14.645-.09.278-.312.515-.834.707.12-.999.119-2.031.38-2.992 1.961-7.232 5.843-13.298 11.376-18.307.293-.265 1.285-.23 1.585.053 5.705 5.387 10.024 11.583 11.091 19.601.049.39.005.792.005 1.139M35.385 7.239c.424.875.968 1.715 1.236 2.636.227.778-1.181 2.667-1.556 2.375-.722-.562-1.643-1.401-1.685-2.168-.05-.913.738-1.872 1.163-2.81zm-11.479 3.223c.368.659 1.012 1.305 1.031 1.969.027.942-.344 1.922-.708 2.82-.054.135-1.137.097-1.492-.182-.858-.674-.845-3.413-.063-4.134.206-.19.558-.224 1.232-.473M5.414 35.024c-.296-.608-.941-1.435-1.078-2.338-.178-1.168.955-2.364 1.834-2.243 1.439.198 1.54 1.57 1.482 2.425-.055.804-.057 2.32-2.238 2.156M46.63 16.086c-.401-.871-.971-1.708-1.161-2.624-.207-.995 1.065-2.516 1.843-2.435 1.441.152 1.173 1.547 1.441 2.369.336 1.027-.856 2.464-2.123 2.69m-30.42 4.827c-.656.751-1.15 1.674-1.92 2.097-.708.388-1.977-1.015-1.706-2.126.219-.896.148-2.319 1.652-2.436 1.759-.136 1.018 1.584 1.974 2.465m40.823 2.952c-1.375-.067-1.396-1.298-1.566-2.208-.213-1.142.844-2.582 1.664-2.529 1.468.092 1.271 1.424 1.522 2.297.235.812-.943 2.412-1.62 2.44m8.522 11.154c-.935 1.018-1.593 1.732-2.249 2.449-.566-.75-1.582-1.5-1.581-2.25.001-.827.935-1.652 1.461-2.478z"/>
    </g>
</svg>
