<svg xmlns="http://www.w3.org/2000/svg" xml:space="preserve" width="72px" height="72px" viewBox="0 0 72 72">
    <g fill="currentColor">
        <path d="M6.027 32.998c3.299 1.492 5.571 3.749 7.602 6.258.967 1.195 1.709 2.569 2.628 3.807.244.328.766.451 1.16.668.14-.424.453-.875.394-1.269-.768-5.146-2.431-9.92-5.948-13.896-.469-.53-.919-1.076-1.377-1.615l.313-.399c2.23 1.153 4.631 2.068 6.65 3.516 2.912 2.087 5.571 4.534 8.266 6.909.277.244.298 1.225.042 1.559-1.652 2.156-1.498 4.295.54 5.729 1.762 1.239 4.817.521 5.774-1.639.623-1.406 1.069-3.139.86-4.62-.595-4.215-2.519-7.915-5.475-10.998-1.074-1.12-.985-1.753.136-2.853 4.165-4.084 6.374-9.255 7.771-14.827.167-.663.473-1.291.851-2.301.892 3.041 1.576 5.636 2.417 8.18 1.146 3.47 2.594 6.796 5.461 9.263.887.762.809 1.387.053 2.294-2.865 3.438-4.688 7.432-5.112 11.865-.203 2.128.235 4.435 2.481 5.729 1.404.809 2.838.64 3.969-.487 1.217-1.214 1.768-3.091.887-4.209-1.215-1.539-.932-2.487.295-3.953 3.174-3.8 7.076-6.52 11.441-8.687.125-.062.293-.042.74-.095-.758 1.114-1.367 2.063-2.029 2.973-2.654 3.638-3.535 7.928-4.471 12.19-.07.313.228.797.496 1.05.102.094.736-.152.908-.397 1.035-1.483 1.973-3.035 3.009-4.519 1.69-2.419 3.97-4.188 6.498-5.653.312-.18.724-.187 1.32-.33-1.334 1.788-2.606 3.229-3.581 4.849-2.626 4.369-3.762 9.245-4.602 14.216-.106.627-.638 1.521-1.162 1.684-3.943 1.234-7.885 2.587-11.933 3.361-3.294.633-6.739.764-10.106.682-6.591-.161-12.845-1.963-18.794-4.75-.643-.301-1.244-1.248-1.379-1.984-1.069-5.84-2.881-11.352-6.554-16.125-.192-.255-.236-.619-.439-1.176"/>
        <path d="M12.189 55.727c.448.129.901.193 1.295.381 4.901 2.332 10.035 3.724 15.405 4.64 5.273.897 10.411.448 15.505-.513 3.519-.661 6.881-2.133 10.323-3.209.601-.188 1.255-.209 1.884-.307.09.635.246 1.268.256 1.901.057 3.328-2.767 3.522-4.896 4.278-6.48 2.295-13.193 3.371-20.057 2.899-6.213-.429-12.183-2.039-17.857-4.646-1.341-.613-2.201-3.152-1.858-5.424"/>
    </g>
</svg>
