<svg xmlns="http://www.w3.org/2000/svg" xml:space="preserve" width="72px" height="72px" viewBox="0 0 72 72">
    <g fill="currentColor">
        <path d="m31.361 43.125-.872-1.746c.898-.265 1.689-.498 2.479-.729l.057-.601c-1.047-.256-2.095-.721-3.144-.723-1.843-.005-2.648-1.326-3.492-2.503-.639-.889-.438-1.867.825-2.227.457-.131 1.001-.049 1.401-.261.56-.297 1.021-.778 1.525-1.182-.391-.437-.711-.979-1.186-1.285-.98-.637-2.203-.98-3.024-1.762-.747-.709-1.154-1.812-1.602-2.789-.482-1.057-.933-2.146-1.227-3.267-.438-1.664-.737-3.365-1.066-5.058-.131-.675-.19-1.363-.271-2.047-.241-2.066-.558-4.128-.658-6.2-.026-.536.63-1.105.972-1.66.495.348 1.227.589 1.437 1.063.444 1 .644 2.115.896 3.192.743 3.162.997 6.542 2.317 9.438 1.46 3.204 2.055 6.929 4.771 9.485.517.484 1.497.939 2.103.783 2.645-.681 4.86.534 7.281 1.125 3.407.833 6.142 3.048 9.446 4.005.979.283 2.142 1.414 2.745 1.136.731-.339.849-1.841 1.438-2.697.685-.995 1.523-1.91 2.419-2.726 1.042-.95 2.127-1.751 2.143-3.396.006-.612.421-1.398.905-1.791 1.095-.887 1.295-1.936 1.346-3.263.051-1.292.494-2.583.868-3.845.315-1.063 1.218-1.479 2.166-1.06.947.42 1.342 1.294 1.012 2.427-1.154 3.956-2.67 7.746-4.991 11.173-1.438 2.125-2.943 4.204-4.367 6.337-.303.45-.588 1.07-.532 1.574.351 3.182-.282 6.234-.928 9.313-.479 2.29-.451 4.711-1.122 6.93-1.084 3.583-2.49 7.08-6.128 9.009-2.394 1.271-4.929.741-7.426.709-2.317-.028-4.251-1.133-6.269-2.142-2.167-1.085-4.637-1.577-6.77-2.716-2.314-1.235-4.685-2.575-5.858-5.209-.249-.558-.842-.956-1.259-1.441-.708-.825-.439-1.362.579-1.729.96-.348 2.071-.751 2.683-1.489 1.456-1.76 3.366-2.179 5.42-2.347.381-.031.979.194 1.157.494.604 1.015 1.44 1.052 2.483 1.016 1.104-.039 2.298.004 3.309.391 1.093.419 1.813.209 2.608-.485 1.163-1.015 2.433-1.914 3.535-2.988.36-.351.655-1.274.449-1.621-1.521-2.558-7.405-5.449-9.844-4.891-.199.049-.39.146-.739.276"/>
        <path d="M39.059 29.869c-2.16-1.119-4.119-3.804-3.644-5.271.603-1.853-.199-4.308 2.192-5.361-.075-.212-.081-.355-.149-.399-.688-.443-1.874-.773-1.983-1.323-.245-1.215.025-2.54.135-3.815.087-1.007.293-2.003.371-3.011.143-1.869.179-3.747.377-5.609.045-.42.532-1.057.891-1.113.477-.073 1.244.18 1.491.554.354.531.492 1.306.471 1.969-.143 4.46-.365 8.917-.52 13.376-.02.507.177 1.05.379 1.532 1.171 2.788.283 5.513-.011 8.471m13.624-19.338c-.538 3.643-1.023 7.295-1.638 10.925a64 64 0 0 1-1.454 6.532c-.292 1.048-.863 2.056-1.49 2.956-.296.425-1.044.781-1.543.729-.321-.031-.838-.893-.788-1.329.194-1.726.542-3.438.902-5.141.518-2.437 1.031-4.878 1.68-7.282.232-.861.876-1.607 1.275-2.434.143-.292.282-.856.147-.971-1.591-1.347-.366-2.933-.413-4.395-.017-.524.188-1.053.24-1.584.082-.839.374-1.619 1.332-1.376.59.15 1.264.716 1.51 1.27.261.585.059 1.376.059 2.077q.092.013.181.023M17.142 53.353c-1.326-.932-2.694-1.808-3.969-2.805a321 321 0 0 1-8.14-6.566c-.416-.348-.539-1.044-.797-1.579.562-.197 1.122-.547 1.685-.549.597-.004 1.29.188 1.774.528 2.543 1.789 5.174 3.495 7.492 5.549 1.449 1.282 2.214 3.197 2.367 5.171z"/>
    </g>
</svg>
