<?xml version="1.0" encoding="utf-8"?>
<!-- Generator: Adobe Illustrator 16.0.0, SVG Export Plug-In . SVG Version: 6.00 Build 0)  -->
<!DOCTYPE svg PUBLIC "-//W3C//DTD SVG 1.1//EN" "http://www.w3.org/Graphics/SVG/1.1/DTD/svg11.dtd">
<svg version="1.1" id="Layer_1" xmlns="http://www.w3.org/2000/svg" xmlns:xlink="http://www.w3.org/1999/xlink" x="0px" y="0px"
	 width="71.98px" height="71.98px" viewBox="0 0 71.98 71.98" enable-background="new 0 0 71.98 71.98" xml:space="preserve">
<g>
	<path fill="currentColor" d="M31.361,43.125c-0.313-0.626-0.569-1.14-0.872-1.746c0.898-0.265,1.689-0.498,2.479-0.729
		c0.02-0.2,0.037-0.399,0.057-0.601c-1.047-0.256-2.095-0.721-3.144-0.723c-1.843-0.005-2.648-1.326-3.492-2.503
		c-0.639-0.889-0.438-1.867,0.825-2.227c0.457-0.131,1.001-0.049,1.401-0.261c0.56-0.297,1.021-0.778,1.525-1.182
		c-0.391-0.437-0.711-0.979-1.186-1.285c-0.98-0.637-2.203-0.98-3.024-1.762c-0.747-0.709-1.154-1.812-1.602-2.789
		c-0.482-1.057-0.933-2.146-1.227-3.267c-0.438-1.664-0.737-3.365-1.066-5.058c-0.131-0.675-0.19-1.363-0.271-2.047
		c-0.241-2.066-0.558-4.128-0.658-6.2c-0.026-0.536,0.63-1.105,0.972-1.66c0.495,0.348,1.227,0.589,1.437,1.063
		c0.444,1,0.644,2.115,0.896,3.192c0.743,3.162,0.997,6.542,2.317,9.438c1.46,3.204,2.055,6.929,4.771,9.485
		c0.517,0.484,1.497,0.939,2.103,0.783c2.645-0.681,4.86,0.534,7.281,1.125c3.407,0.833,6.142,3.048,9.446,4.005
		c0.979,0.283,2.142,1.414,2.745,1.136c0.731-0.339,0.849-1.841,1.438-2.697c0.685-0.995,1.523-1.91,2.419-2.726
		c1.042-0.95,2.127-1.751,2.143-3.396c0.006-0.612,0.421-1.398,0.905-1.791c1.095-0.887,1.295-1.936,1.346-3.263
		c0.051-1.292,0.494-2.583,0.868-3.845c0.315-1.063,1.218-1.479,2.166-1.06c0.947,0.42,1.342,1.294,1.012,2.427
		c-1.154,3.956-2.67,7.746-4.991,11.173c-1.438,2.125-2.943,4.204-4.367,6.337c-0.303,0.45-0.588,1.07-0.532,1.574
		c0.351,3.182-0.282,6.234-0.928,9.313c-0.479,2.29-0.451,4.711-1.122,6.93c-1.084,3.583-2.49,7.08-6.128,9.009
		c-2.394,1.271-4.929,0.741-7.426,0.709c-2.317-0.028-4.251-1.133-6.269-2.142c-2.167-1.085-4.637-1.577-6.77-2.716
		c-2.314-1.235-4.685-2.575-5.858-5.209c-0.249-0.558-0.842-0.956-1.259-1.441c-0.708-0.825-0.439-1.362,0.579-1.729
		c0.96-0.348,2.071-0.751,2.683-1.489c1.456-1.76,3.366-2.179,5.42-2.347c0.381-0.031,0.979,0.194,1.157,0.494
		c0.604,1.015,1.44,1.052,2.483,1.016c1.104-0.039,2.298,0.004,3.309,0.391c1.093,0.419,1.813,0.209,2.608-0.485
		c1.163-1.015,2.433-1.914,3.535-2.988c0.36-0.351,0.655-1.274,0.449-1.621c-1.521-2.558-7.405-5.449-9.844-4.891
		C31.901,42.898,31.71,42.995,31.361,43.125z"/>
	<path fill="currentColor" d="M39.059,29.869c-2.16-1.119-4.119-3.804-3.644-5.271c0.603-1.853-0.199-4.308,2.192-5.361
		c-0.075-0.212-0.081-0.355-0.149-0.399c-0.688-0.443-1.874-0.773-1.983-1.323C35.23,16.3,35.5,14.975,35.61,13.7
		c0.087-1.007,0.293-2.003,0.371-3.011c0.143-1.869,0.179-3.747,0.377-5.609c0.045-0.42,0.532-1.057,0.891-1.113
		c0.477-0.073,1.244,0.18,1.491,0.554c0.354,0.531,0.492,1.306,0.471,1.969c-0.143,4.46-0.365,8.917-0.52,13.376
		c-0.02,0.507,0.177,1.05,0.379,1.532C40.241,24.186,39.353,26.911,39.059,29.869z"/>
	<path fill="currentColor" d="M52.683,10.531c-0.538,3.643-1.023,7.295-1.638,10.925c-0.37,2.198-0.856,4.385-1.454,6.532
		c-0.292,1.048-0.863,2.056-1.49,2.956c-0.296,0.425-1.044,0.781-1.543,0.729c-0.321-0.031-0.838-0.893-0.788-1.329
		c0.194-1.726,0.542-3.438,0.902-5.141c0.518-2.437,1.031-4.878,1.68-7.282c0.232-0.861,0.876-1.607,1.275-2.434
		c0.143-0.292,0.282-0.856,0.147-0.971c-1.591-1.347-0.366-2.933-0.413-4.395c-0.017-0.524,0.188-1.053,0.24-1.584
		c0.082-0.839,0.374-1.619,1.332-1.376c0.59,0.15,1.264,0.716,1.51,1.27c0.261,0.585,0.059,1.376,0.059,2.077
		C52.563,10.517,52.624,10.524,52.683,10.531z"/>
	<path fill="currentColor" d="M17.142,53.353c-1.326-0.932-2.694-1.808-3.969-2.805c-2.747-2.146-5.465-4.332-8.14-6.566
		c-0.416-0.348-0.539-1.044-0.797-1.579c0.562-0.197,1.122-0.547,1.685-0.549c0.597-0.004,1.29,0.188,1.774,0.528
		c2.543,1.789,5.174,3.495,7.492,5.549c1.449,1.282,2.214,3.197,2.367,5.171C17.417,53.186,17.28,53.269,17.142,53.353z"/>
</g>
</svg>
