<svg xmlns="http://www.w3.org/2000/svg" xml:space="preserve" width="72px" height="72px" viewBox="0 0 72 72">
    <path fill="currentColor" d="M26.026 19.124c1.924 0 3.852.07 5.771-.031.87-.046 1.81-.271 2.564-.69 2.173-1.205 2.126-2.803.007-4.13-.853-.534-1.819-1.025-2.431-1.781-1.735-2.146-1.504-4.5.445-6.494 2.363-2.417 6.79-2.405 9.151.026 2.198 2.261 1.708 5.892-1.031 7.624a8 8 0 0 1-.843.478c-1.158.531-2.385 1.532-1.862 2.623.503 1.048 1.938 1.995 3.134 2.286 1.854.452 3.854.294 5.789.428.447.031.887.198 1.312.667-2.323.314-4.643.665-6.971.933-2.084.238-3.211 1.417-3.108 3.49.42 8.507.84 17.013 1.305 25.516.224 4.068 3.311 6.102 7.082 4.602 1.476-.587 2.875-1.443 4.161-2.382.632-.461 1.22-1.348 1.316-2.106.255-2.007 1.194-3.459 2.718-4.72 2.035-1.684 3.921-3.548 5.968-5.217.438-.356 1.29-.208 1.952-.293.044.629.313 1.354.094 1.869-1.232 2.898-2.514 5.784-3.938 8.594-.426.838-1.273 1.56-2.088 2.084a92 92 0 0 1-6.467 3.831c-2.442 1.305-4.923 2.564-7.474 3.635-2.121.892-4.151 1.799-5.35 3.887-.621 1.083-1.182.935-1.747.007-1.116-1.828-2.749-2.944-4.75-3.622-3.577-1.212-6.878-2.928-9.914-5.213-1.396-1.052-3.126-1.651-4.584-2.634-.876-.591-1.778-1.4-2.222-2.326-1.338-2.792-2.507-5.671-3.618-8.563-.208-.54-.067-1.482.298-1.913.642-.756 1.305-.168 1.901.382 2.22 2.05 4.542 3.994 6.674 6.13.772.772 1.168 1.95 1.643 2.985.193.42.091.964.206 1.432.509 2.067 5.643 4.889 8.327 4.597 2.377-.259 4.072-2.482 4.282-5.443.496-6.979 1.044-13.954 1.565-20.931.12-1.608.235-3.217.319-4.828.076-1.443-1.498-3.001-3.094-3.166a213 213 0 0 1-5.586-.656c-.35-.045-.68-.23-1.019-.353q.059-.31.113-.614M37.009 5.495c-2.243.004-4.207 1.294-4.771 3.159-.436 1.433.264 2.563 1.199 3.456.382.366 1.226.313 1.862.333 1.054.03 2.173-.267 3.147 0 1.061.29 1.734.221 2.345-.692.807-1.204 1.074-2.482.404-3.787-.859-1.669-2.29-2.498-4.186-2.469M19.075 21.393c-1.565-.287-2.485-.918-2.451-2.13.033-1.174.897-1.84 2.197-1.797 1.266.042 2.257.842 2.194 1.84-.046.734-1.251 1.394-1.94 2.087m36.089-.311c-1.325-.011-2.599-.261-2.604-1.498-.005-1.053.979-1.782 2.261-1.778 1.216.002 2.063.593 2.089 1.708.024 1.052-.741 1.726-1.746 1.568"/>
</svg>
