<?xml version="1.0" encoding="utf-8"?>
<!-- Generator: Adobe Illustrator 16.0.0, SVG Export Plug-In . SVG Version: 6.00 Build 0)  -->
<!DOCTYPE svg PUBLIC "-//W3C//DTD SVG 1.1//EN" "http://www.w3.org/Graphics/SVG/1.1/DTD/svg11.dtd">
<svg version="1.1" id="Layer_1" xmlns="http://www.w3.org/2000/svg" xmlns:xlink="http://www.w3.org/1999/xlink" x="0px" y="0px"
	 width="71.964px" height="71.964px" viewBox="0 0 71.964 71.964" enable-background="new 0 0 71.964 71.964" xml:space="preserve">
<g>
	<path fill="currentColor" d="M51.269,33.987c0.541,0.624,1.178,1.189,1.605,1.882c2.334,3.771,4.641,7.558,6.873,11.388
		c0.194,0.334-0.072,1.377-0.367,1.496c-6.463,2.619-9.633,7.94-11.672,14.158c-0.381,1.159-1.047,1.307-2.041,1.295
		c-7.719-0.095-15.437-0.184-23.154-0.232c-1.193-0.008-1.497-0.701-1.799-1.648c-1.215-3.822-2.821-7.474-5.834-10.238
		c-1.327-1.217-2.887-2.25-4.493-3.068c-1.339-0.684-1.836-1.13-1.085-2.729c2.079-4.42,4.911-8.303,7.993-12.034
		c0.214-0.259,0.577-0.397,0.742-0.506c-0.289,2.946-0.789,5.886-0.817,8.829c-0.049,4.926,2.049,9.129,5.072,12.896
		c0.773,0.964,1.395,0.574,1.688-0.459c0.468-1.645,0.812-3.329,1.355-4.948c0.363-1.082,0.981-2.079,1.518-3.181
		c2.456,2.283,3.258,2.479,4.627,1.25c1.821-1.633,2.164-4.545,0.658-6.395c-0.6-0.736-1.414-1.299-2.232-2.031
		c1.443-1.604,2.692-3.068,4.051-4.424c0.219-0.218,1.096-0.134,1.371,0.126c0.895,0.847,1.576,1.917,2.478,2.755
		c1.016,0.942,0.927,1.559-0.096,2.465c-2.032,1.801-2.313,4.556-0.858,6.688c1.345,1.973,2.739,1.986,4.095,0.043
		c0.154-0.221,0.301-0.445,0.58-0.859c1.645,2.283,2.405,4.605,2.887,7.045c0.053,0.264-0.026,0.564,0.063,0.804
		c0.22,0.578,0.504,1.131,0.763,1.692c0.564-0.353,1.277-0.586,1.672-1.074c4.74-5.891,6.018-12.51,4.051-19.788
		c-0.082-0.297-0.012-0.636-0.012-0.955C51.055,34.147,51.164,34.067,51.269,33.987z M30.825,56.365
		c0.489,1.672,0.773,3.27,1.422,4.699c0.817,1.803,2.575,1.995,3.751,0.604c2-2.362,2.162-7.763,0.309-10.313
		c-1.204-1.656-3.125-1.652-3.969,0.176C31.639,53.044,31.318,54.736,30.825,56.365z"/>
	<path fill="currentColor" d="M46.5,42.305c-1.683-2.952-3.125-6.02-5.067-8.73c-1.644-2.296-3.845-4.198-5.837-6.238
		c-0.747-0.764-1.513-0.536-2.275,0.122c-4.669,4.035-8.493,8.662-10.424,14.645c-0.09,0.278-0.312,0.515-0.834,0.707
		c0.12-0.999,0.119-2.031,0.38-2.992c1.961-7.232,5.843-13.298,11.376-18.307c0.293-0.265,1.285-0.23,1.585,0.053
		c5.705,5.387,10.024,11.583,11.091,19.601C46.544,41.556,46.5,41.958,46.5,42.305z"/>
	<path fill="currentColor" d="M35.385,7.239c0.424,0.875,0.968,1.715,1.236,2.636c0.227,0.778-1.181,2.667-1.556,2.375
		c-0.722-0.562-1.643-1.401-1.685-2.168c-0.05-0.913,0.738-1.872,1.163-2.81C34.823,7.261,35.104,7.25,35.385,7.239z"/>
	<path fill="currentColor" d="M23.906,10.462c0.368,0.659,1.012,1.305,1.031,1.969c0.027,0.942-0.344,1.922-0.708,2.82
		c-0.054,0.135-1.137,0.097-1.492-0.182c-0.858-0.674-0.845-3.413-0.063-4.134C22.88,10.745,23.232,10.711,23.906,10.462z"/>
	<path fill="currentColor" d="M5.414,35.024c-0.296-0.608-0.941-1.435-1.078-2.338c-0.178-1.168,0.955-2.364,1.834-2.243
		c1.439,0.198,1.54,1.57,1.482,2.425C7.597,33.672,7.595,35.188,5.414,35.024z"/>
	<path fill="currentColor" d="M46.63,16.086c-0.401-0.871-0.971-1.708-1.161-2.624c-0.207-0.995,1.065-2.516,1.843-2.435
		c1.441,0.152,1.173,1.547,1.441,2.369C49.089,14.423,47.897,15.86,46.63,16.086z"/>
	<path fill="currentColor" d="M16.21,20.913c-0.656,0.751-1.15,1.674-1.92,2.097c-0.708,0.388-1.977-1.015-1.706-2.126
		c0.219-0.896,0.148-2.319,1.652-2.436C15.995,18.312,15.254,20.032,16.21,20.913z"/>
	<path fill="currentColor" d="M57.033,23.865c-1.375-0.067-1.396-1.298-1.566-2.208c-0.213-1.142,0.844-2.582,1.664-2.529
		c1.468,0.092,1.271,1.424,1.522,2.297C58.888,22.237,57.71,23.837,57.033,23.865z"/>
	<path fill="currentColor" d="M65.555,35.019c-0.935,1.018-1.593,1.732-2.249,2.449c-0.566-0.75-1.582-1.5-1.581-2.25
		c0.001-0.827,0.935-1.652,1.461-2.478C63.88,33.408,64.574,34.076,65.555,35.019z"/>
</g>
</svg>
