<svg xmlns="http://www.w3.org/2000/svg" xml:space="preserve" width="72px" height="72px" viewBox="0 0 72 72">
    <path fill="currentColor" d="M46.417 27.684c1.713.862 2.116.728 3.286-1.244 1.547-2.604 3.214-5.145 4.597-7.832.507-.986.352-2.314.479-3.343l3.081-2.134c.076.345.213.579.15.737-.829 2.138.404 3.552 1.546 5.161 2.591 3.649 2.474 9.455-.011 12.351-1.983 2.313-4.421 3.295-7.283 2.051-1.854-.809-2.662.189-3.562 1.376-4.263 5.625-8.27 11.47-12.863 16.809-3.731 4.334-8.466 7.642-14.425 8.252-2.265.231-4.604-.277-6.909-.448l-.063-.673c1.513-.681 3.064-1.284 4.527-2.057 3.372-1.78 5.785-4.309 6.372-8.292.093-.63.73-1.45 1.321-1.696 8.199-3.432 15.021-8.566 19.874-16.081.441-.681-.056-1.966-.117-2.937m6.618 4.481c.616-.126 1.282-.144 1.844-.396 4.255-1.916 5.212-8.64 2.858-11.864-.822-1.128-1.235-1.089-1.837.205-1.48 3.195-2.942 6.398-4.421 9.596-.866 1.876-.558 2.356 1.556 2.459"/>
</svg>
