<svg xmlns="http://www.w3.org/2000/svg" xml:space="preserve" width="72px" height="72px" viewBox="0 0 72 72">
    <path fill="currentColor" d="M20.108 34.056c0-5.944.034-11.889-.02-17.833-.019-1.944.672-3.308 2.482-4.088 1.472-.634 2.902-1.365 4.389-1.962 1.342-.54 1.9-.114 1.901 1.343.006 9.019.002 18.038.002 27.057 0 4.516-.046 9.033.025 13.549.024 1.563-.554 2.137-2.09 2.051a40 40 0 0 0-4.861.004c-1.395.091-1.881-.336-1.862-1.803.079-6.105.034-12.213.034-18.318M44.153 9.697c2.297 1.163 4.681 2.188 6.833 3.573.638.41.864 1.832.868 2.792.058 12.15.03 24.3.048 36.448.002 1.158-.441 1.682-1.628 1.652a118 118 0 0 0-5.183-.002c-.844.014-1.317-.215-1.316-1.175.016-14.25.011-28.501.011-42.752zm-27.287 6.96v2.165c0 11.178.008 22.354-.02 33.533-.001.584-.3 1.167-.46 1.75-.574-.235-1.295-.327-1.694-.733-.967-.988-2.04-2.002-2.61-3.222-1.44-3.071-3.048-6.097-3.41-9.584-.561-5.386-.419-10.637 1.881-15.698 1.299-2.858 2.906-5.443 5.2-7.584.235-.221.577-.332 1.113-.627m38.609-.254c.785.619 1.238.872 1.556 1.242 3.022 3.521 5.202 7.629 6.043 12.08 1.085 5.747 1.163 11.641-1.69 17.107-1.082 2.074-2.17 4.15-3.393 6.142-.333.543-1.165.778-1.769 1.153-.248-.643-.708-1.285-.711-1.928-.048-9.281-.035-18.561-.036-27.841zM32.113 32.742c-.161-.708-.311-1.051-.308-1.392.075-6.948.214-13.895.212-20.843 0-1.273.369-1.788 1.543-2.086 1.833-.467 3.634-.488 5.325.322.566.271 1.241 1.083 1.243 1.651.019 6.525-.091 13.051-.142 19.578-.006.775.145 1.553.277 2.898-2.829-2.43-5.407-2.808-8.15-.128m7.674 6.57c.201.593.408.921.411 1.25.021 3.871-.036 7.743.038 11.614.029 1.527-.444 2.148-2.036 2.003a25 25 0 0 0-4.371-.001c-1.502.129-1.86-.559-1.836-1.883.059-3.238.058-6.479.05-9.721-.002-.964-.106-1.928-.197-3.464 2.873 2.558 5.39 2.769 7.941.202M50.505 5.8c1.405.701 2.739 1.265 3.948 2.025.425.268.892 1.178.734 1.52-.382.838-1.026 1.809-2.231 1.175-.84-.442-1.601-1.046-2.364-1.62-1.261-.946-1.304-1.973-.087-3.1M16.781 8.461c1.259-.76 2.482-1.588 3.798-2.234.362-.179 1.267.032 1.435.335.245.439.288 1.38-.007 1.659-.952.899-2.018 1.813-3.21 2.257-.466.173-1.393-.886-2.107-1.384q.044-.316.091-.633m-2.472 1.832c.493.626.739.982 1.028 1.298.688.752.623 1.365-.227 1.963-.863.609-1.619 1.392-2.533 1.898-.395.218-1.161.084-1.582-.177-.291-.18-.531-1.072-.362-1.264 1.075-1.214 2.269-2.324 3.676-3.718M69.737 33.25c0 1.503.057 3.01-.037 4.506-.024.396-.626 1.123-.769 1.078-.639-.201-1.636-.543-1.72-.983-.238-1.252-.322-2.637-.001-3.846.151-.573 1.366-.864 2.1-1.283zm-.299 9.133c-.488 1.537-.808 2.84-1.354 4.037-.129.283-1.126.422-1.559.238-.438-.188-.982-.898-.929-1.307.145-1.083.49-2.171.958-3.162.169-.355.938-.648 1.389-.598.538.066 1.03.529 1.495.792m-1.447-11.671c-.815-.729-1.457-1.055-1.694-1.568-.393-.85-.664-1.815-.696-2.742-.015-.416.621-1.131 1.058-1.214.513-.097 1.438.186 1.639.582a10.2 10.2 0 0 1 1.01 3.329c.047.402-.71.903-1.317 1.613m-4.442-13.595c.15.104.488.221.628.455.705 1.183 1.446 2.36 1.971 3.625.134.321-.372 1.13-.786 1.378-.292.175-1.127-.067-1.367-.387-.694-.921-1.221-1.971-1.792-2.981-.445-.784.28-2.024 1.346-2.09M31.03 4.456c-.664.64-.973 1.167-1.407 1.311-1.153.382-2.352.708-3.554.823-.42.04-1.114-.52-1.293-.963-.138-.342.229-1.243.556-1.354a22 22 0 0 1 4.15-.979c.369-.049.83.599 1.548 1.162M10.222 18.447c-.952 1.534-1.79 2.936-2.712 4.282-.077.112-.862-.038-1.052-.277-.32-.402-.724-1.103-.571-1.451.53-1.214 1.244-2.357 1.982-3.465.156-.235.809-.388 1.063-.255.481.25.838.736 1.29 1.166m23.827 17.46c-.048-1.332.735-1.989 1.926-2.095 1.254-.111 1.968.801 1.981 2.183.013 1.324-.78 1.978-1.898 2.208-.906.189-2.018-1.182-2.009-2.296M47.364 4.964c-.021 1.487-.697 1.95-1.776 1.606-.858-.274-1.811-.363-2.571-.797-.52-.295-1.105-1.056-1.085-1.584.036-.884.801-1.131 1.687-.839.956.314 1.954.506 2.892.865.397.153.687.597.853.749m12.793 11.042c-.369-.277-.678-.47-.938-.713-.667-.622-1.246-1.365-1.987-1.875-.746-.513-.868-1.002-.36-1.676.497-.66 1.063-1.104 1.854-.348.853.812 1.751 1.576 2.566 2.422.201.209.329.777.191.966-.327.458-.832.789-1.326 1.224m1.134 37.966c.955-1.505 1.699-2.849 2.641-4.035.23-.29 1.152-.194 1.673-.022.262.085.545.787.465 1.125-.577 2.442-1.889 3.3-4.779 2.932M4.905 36.104c0 .588.15 1.232-.046 1.746-.165.43-.719.951-1.126.977-.359.021-1.043-.562-1.083-.931a18.3 18.3 0 0 1-.005-3.839c.038-.363.703-.926 1.07-.917.41.009 1.034.494 1.159.897.195.634.052 1.373.052 2.067zM3.01 42.645c.5-.368.952-.893 1.496-1.02.266-.062.841.559 1.034.979.393.856.653 1.778.905 2.692.235.85-.181 1.412-1.021 1.436-.406.012-1.041-.271-1.193-.598-.467-1.003-.751-2.091-1.221-3.489m4.204 6.611c.536.466.939.693 1.165 1.039.518.791.925 1.654 1.421 2.461.563.918.138 1.289-.737 1.341-1.313.079-3.483-2.277-3.167-3.543.116-.464.778-.789 1.318-1.298M4.164 30.69c-.426-.83-.936-1.354-.874-1.799.15-1.085.49-2.165.918-3.179.139-.331.934-.733 1.157-.61.468.259 1.092.876 1.052 1.289-.097 1.021-.467 2.036-.86 2.999-.159.391-.663.64-1.393 1.3M33.506 2.761c1.452 0 2.908-.05 4.353.045.267.017.763.716.685.938-.184.525-.587 1.277-1.009 1.356-1.034.193-2.181.245-3.182-.022-.523-.14-.837-1.072-1.246-1.647q.201-.335.399-.67"/>
</svg>
