<svg xmlns="http://www.w3.org/2000/svg" xml:space="preserve" width="72px" height="72px" viewBox="0 0 72 72">
    <path fill="currentColor" d="M22.776 37.332c2.493-.093 3.505-1.784 4.36-3.286a41.7 41.7 0 0 0 3.266-7.343c1.291-3.853 2.292-7.801 3.402-11.713.129-.456.043-1.012.274-1.387.249-.403.754-.648 1.147-.962.225.414.698.873.632 1.233-.25 1.382-.716 2.723-1.016 4.098-.203.927-.241 1.889-.39 2.829-.15.945-.075 2.069-.571 2.789-1.667 2.414-.968 5.287-1.789 7.84-.205.64-.385 1.324-.751 1.87-1.949 2.905-3.956 5.771-5.928 8.661-.099.146-.051.393-.124 1.086.914-.586 1.658-.869 2.126-1.396 1.63-1.838 2.99-3.949 4.776-5.607 2.821-2.62 3.581-5.934 4.187-9.498.551-3.236 1.611-6.384 2.319-9.599.285-1.295.434-2.691.274-3.995-.166-1.354.135-2.358 1.212-3.064 1.177-.771 2.396-1.511 3.689-2.047.332-.138 1.189.415 1.484.862 1.116 1.694.766 4.116 2.697 5.459.251.174.299.795.266 1.195-.255 3.038.723 5.784 1.932 8.482 1.518 3.392 2.92 6.841 4.59 10.154 1.049 2.081 2.521 3.946 3.742 5.944.246.402.223.971.322 1.463-.441.073-.886.141-1.326.222-1.611.295-3.264.462-4.815.947-.783.244-1.386 1.065-2.07 1.627l.261.421c.353.039.713.148 1.057.106 1.771-.222 3.535-.628 5.311-.688 1.854-.062 3.563.555 4.817 2.059.136.162.243.353.385.511.552.623 1.11 1.237 1.668 1.855-.683.354-1.412.641-2.032 1.079-.441.313-.865.774-1.078 1.266-.947 2.18-1.81 2.639-3.762 1.312-2.175-1.479-4.076-1.401-6.221-.036-.91.58-2.236.512-3.131 1.105-1.329.881-2.42 2.117-3.658 3.143-.491.406-1.543 1.001-1.607.92-.625-.773-1.246-1.608-.582-2.737.375-.639.551-1.395.816-2.098l-.533-.422c-.535.46-1.229.828-1.566 1.404-.471.795-.992 1.117-1.912 1.111-2.24-.012-4.537.419-6.458-1.277-.234-.207-.75-.096-1.135-.13.065.426-.027 1.024.22 1.25 1.489 1.351 3.063 2.604 4.591 3.914.352.302.633.686.945 1.03l-.246.372c-.371-.104-.757-.175-1.111-.32-2.016-.829-3.897-.558-5.559.802-1.046.854-1.997.909-3.248.412-3.008-1.192-5.347-3.364-7.97-5.123-1.678-1.125-3.363-2.363-5.229-3.04-1.042-.378-2.458.313-3.714.465-.39.047-.804-.101-1.207-.159.164-.342.236-.807.506-1.005 1.626-1.197 3.319-2.304 4.94-3.507.585-.436 1.172-.978 1.518-1.603a618 618 0 0 0 5.963-11.086 174 174 0 0 0 3.275-6.547c.405-.854.628-1.796.93-2.699 1.086-3.251 2.142-6.514 3.285-9.745.17-.481.747-.818 1.434-1.047-2.041 7.536-2.973 15.372-7.88 21.868"/>
</svg>
