<svg xmlns="http://www.w3.org/2000/svg" xml:space="preserve" width="72px" height="72px" viewBox="0 0 72 72">
    <g fill="currentColor">
        <path d="M40.336 48.125c3.351.043 2.383-2.236 2.422-3.865.054-2.266.021-4.534.012-6.803-.002-.428.082-.951-.124-1.265-.862-1.305-.494-2.219.845-2.931l-.845-1.549c1.758-.574 2.866-1.531 2.3-3.551-.064-.231.275-.747.537-.85.239-.094.684.125.939.329.511.406.955.896 1.232 1.164.947-1.871 1.561-3.782 2.732-5.241 1.939-2.413 4.734-3.786 7.515-5.094 1.396-.657 2.71-1.48 4.104-2.141.408-.193.959-.087 1.445-.118-.184.529-.207 1.313-.576 1.547-2.664 1.687-5.418 3.234-8.104 4.889-.933.575-1.756 1.328-2.629 2l.245.362c2.658-1.515 5.32-3.027 7.979-4.547.648-.372 1.252-.856 1.941-1.117.331-.125.813.15 1.227.244-.115.404-.104 1.014-.369 1.179-2.172 1.349-4.401 2.605-6.6 3.914-.477.284-.895.665-1.34 1.001q.143.256.283.511c1.84-.904 3.683-1.802 5.516-2.717.48-.24.907-.613 1.407-.783.401-.138.878-.062 1.321-.081-.164.458-.191 1.128-.517 1.335-1.302.832-2.731 1.464-4.048 2.275a108 108 0 0 0-5.468 3.607c-.323.227-.544.816-.552 1.242-.078 4.346-.143 8.692-.133 13.039.014 6.421.082 12.841.147 19.261.01.965-.253 1.518-1.354 1.539-2.582.049-5.162.209-7.744.268-1.571.035-1.937-.497-1.61-1.963.172-.775.254-1.586.261-2.383.03-3.707-.029-7.416.049-11.121.04-1.771-1.194-1.391-2.446-1.586m6.689 14.436.735-.006v-31l-1.877 1.617c1.75 1.181 1.734 1.175 1.113 2.927-.138.388-.175.83-.166 1.246.051 2.588.172 5.175.185 7.763.028 5.816.01 11.637.01 17.453M18.837 24.537c-.818-.624-1.589-1.326-2.464-1.857-2.616-1.59-5.297-3.074-7.89-4.699-.46-.289-.616-1.06-.913-1.609.619.041 1.335-.107 1.84.154 2.798 1.442 5.55 2.972 8.307 4.494 2.468 1.362 4.426 3.121 5.05 6.071.304 1.436.807 1.5 1.957.606.303-.235.923-.51 1.088-.378.304.242.567.798.516 1.178-.219 1.62.378 2.453 2.04 2.556.286.018.814.497.785.562-.247.548-.598 1.05-.991 1.685 1.062.729.868 1.753.42 2.971-.28.761-.091 1.696-.084 2.556.018 2.321.032 4.646.086 6.967.018.754.059 1.453 1.155 1.615.59.088 1.617.911 1.55 1.129-.37 1.209-1.193.219-1.844.191-.104-.004-.208.018-.43.039-.162 1.227-.445 2.477-.47 3.732-.063 3.187-.014 6.375 0 9.563.001.266.043.538.116.794.652 2.295.466 2.552-1.962 2.437-2.125-.102-4.249-.379-6.37-.357-1.476.016-1.882-.609-1.876-1.914.015-3.459-.026-6.918-.021-10.377.009-6.861.005-13.725.072-20.587.018-1.843-.957-2.798-2.455-3.545-2.392-1.192-4.771-2.417-7.101-3.727-.638-.359-1.08-1.068-1.611-1.616l.306-.577c.682.209 1.408.329 2.039.642 2.715 1.346 5.402 2.748 8.099 4.129l.277-.453c-1.132-.761-2.228-1.583-3.404-2.268-1.937-1.128-3.928-2.162-5.888-3.25-.231-.128-.487-.308-.602-.53-.199-.387-.297-.827-.438-1.245.474-.016 1.046-.214 1.405-.019 3.151 1.719 6.263 3.508 9.387 5.276zm4.724 39.076.545.083c.172-.688.49-1.378.486-2.064-.008-1.396-.297-2.789-.28-4.18.032-2.668.293-5.332.283-7.998-.016-4.149-.16-8.302-.306-12.449-.018-.51-.384-1.006-.589-1.509l-.636.099zm-3.682-43.644c1.229.147 2.257 2.185 3.738.306-.266-.923-.479-1.828-2.042-1.528-1.465.28-1.843-.358-1.31-1.786.057-.151.128-.297.189-.447 1.028-2.524.958-2.456 2.882-.474.443.457 1.555.264 2.58.399-.397-1.695-.769-2.743-2.452-2.551-.471.054-.994-.363-1.708-.651 1.587-1.937 1.969-4.511 4.262-5.023.819-.974 1.329-1.939 2.128-2.462 2.132-1.396 4.293-2.448 7.118-2.286 1.652.095 3.229-.017 4.779.689 1.727.786 3.133 1.874 4.584 3.147 1.412 1.238 2.654 2.515 3.681 4.019.403.592.401 1.46.584 2.202-.595.135-1.192.399-1.782.38-1.473-.048-1.563.961-1.757 1.947 1.503 1.123 2.354.458 3.062-.898.196-.377.676-.869.994-.849.325.021.659.58.906.957.23.355.359.779.523 1.177.896 2.183.518 2.602-1.856 2.531-.582-.017-1.188.746-1.83 1.181 2.37 2.621 3.115-.607 5.136-.962-.32.919-.416 1.947-.75 2.032-2.094.534-2.41 2.744-3.854 3.848-.228.173-.31.536-.458.81l-.557-.136c-.306-.867-.631-1.728-.912-2.603-.608-1.898-1.012-3.891-1.861-5.671-.469-.979-1.93-1.462-2.479-2.431-.599-1.049-1.346-1.654-2.39-1.977-2.403-.743-4.637-1.119-7.175.246-1.883 1.011-3.027 2.611-4.565 3.861-.558.453-.708 1.464-.936 2.253-.403 1.396-.682 2.83-1.095 4.223-.183.615-.434 1.387-.906 1.676-.304.186-1.186-.25-1.595-.635-.638-.599-1.078-1.404-1.637-2.094-.208-.256-.557-.399-.764-.656-.365-.453-.669-.953-1-1.433zM34.386 8.407l-.033-.037.578 1.645c.528-.36 1.127-.648 1.567-1.094.901-.912.248-1.897-.117-2.771-.134-.321-.826-.651-1.18-.577-.424.089-.854.547-1.104.955-.273.445-.343 1.014-.53 1.622zm9.585-.018c-1.299.744-2.963.902-2.42 2.839.088.31.769.694 1.123.648 2.28-.293 1.428-1.916 1.297-3.487m-17.011.176c.204 1.23-1.523 2.708.878 3.256.729.167 1.415.417 1.62-.61.383-1.914-1.172-2.032-2.498-2.646"/>
        <path d="M35.181 40.372c0-1.473-.288-3.019.069-4.396.492-1.901-.446-3.325-.948-4.929-.493-1.579-.911-3.18-1.361-4.771l.457-.133c-.487-.329-1.153-.557-1.413-1.016-.288-.508-.475-1.384-.222-1.82.492-.849 1.356-1.474 1.993-2.252.263-.322.409-.785.483-1.205.101-.579-.107-1.294.165-1.739.323-.528.971-.999 1.567-1.154.264-.069.755.692 1.119 1.098.101.112.184.31.16.45-.321 1.996.941 3.157 2.164 4.43 1.033 1.076.271 2.565-1.555 3.236.104 1.786.523 3.647-.992 5.132-.099.097-.113.3-.129.458-.277 2.603-.541 5.208-.829 7.807-.031.285-.189.557-.29.834a13 13 0 0 0-.438-.03m-2.583 4.016c.521.481 1.041.965 1.586 1.47 1.628-1.138 1.628-1.138 3.35.291l1.682-1.814.443.256c-1.498 2.199-1.443 4.438-.296 6.701l-.356.342-1.685-1.746c-2.099 2.455-.686 5.604-1.951 8.285-.114-.508-.309-1.012-.323-1.521-.019-.695-.006-1.424.178-2.087.601-2.164-.024-3.847-1.745-5.239-.376-.304-.843-1.082-.705-1.334.691-1.267.509-2.295-.755-3.229q.288-.19.577-.375"/>
        <path d="M34.413 50.719c-.821.6-1.356 1.035-1.948 1.371-.087.05-.446-.381-.679-.59.488-.5.953-1.028 1.491-1.467.08-.066.511.3 1.136.686m-.027-42.312c.17-.419.234-1.034.541-1.199.287-.154.884.088 1.235.321.132.088-.03.932-.08.934-.574.024-1.151-.046-1.728-.091z"/>
    </g>
</svg>
