<?xml version="1.0" encoding="utf-8"?>
<!-- Generator: Adobe Illustrator 16.0.0, SVG Export Plug-In . SVG Version: 6.00 Build 0)  -->
<!DOCTYPE svg PUBLIC "-//W3C//DTD SVG 1.1//EN" "http://www.w3.org/Graphics/SVG/1.1/DTD/svg11.dtd">
<svg version="1.1" id="Layer_1" xmlns="http://www.w3.org/2000/svg" xmlns:xlink="http://www.w3.org/1999/xlink" x="0px" y="0px"
	 width="71.98px" height="71.98px" viewBox="0 0 71.98 71.98" enable-background="new 0 0 71.98 71.98" xml:space="preserve">
<g>
	<path fill="currentColor" d="M26.026,19.124c1.924,0,3.852,0.07,5.771-0.031c0.87-0.046,1.81-0.271,2.564-0.69c2.173-1.205,2.126-2.803,0.007-4.13
		c-0.853-0.534-1.819-1.025-2.431-1.781c-1.735-2.146-1.504-4.5,0.445-6.494c2.363-2.417,6.79-2.405,9.151,0.026
		c2.198,2.261,1.708,5.892-1.031,7.624c-0.272,0.172-0.551,0.343-0.843,0.478c-1.158,0.531-2.385,1.532-1.862,2.623
		c0.503,1.048,1.938,1.995,3.134,2.286c1.854,0.452,3.854,0.294,5.789,0.428c0.447,0.031,0.887,0.198,1.312,0.667
		c-2.323,0.314-4.643,0.665-6.971,0.933c-2.084,0.238-3.211,1.417-3.108,3.49c0.42,8.507,0.84,17.013,1.305,25.516
		c0.224,4.068,3.311,6.102,7.082,4.602c1.476-0.587,2.875-1.443,4.161-2.382c0.632-0.461,1.22-1.348,1.316-2.106
		c0.255-2.007,1.194-3.459,2.718-4.72c2.035-1.684,3.921-3.548,5.968-5.217c0.438-0.356,1.29-0.208,1.952-0.293
		c0.044,0.629,0.313,1.354,0.094,1.869c-1.232,2.898-2.514,5.784-3.938,8.594c-0.426,0.838-1.273,1.56-2.088,2.084
		c-2.104,1.357-4.258,2.651-6.467,3.831c-2.442,1.305-4.923,2.564-7.474,3.635c-2.121,0.892-4.151,1.799-5.35,3.887
		c-0.621,1.083-1.182,0.935-1.747,0.007c-1.116-1.828-2.749-2.944-4.75-3.622c-3.577-1.212-6.878-2.928-9.914-5.213
		c-1.396-1.052-3.126-1.651-4.584-2.634c-0.876-0.591-1.778-1.4-2.222-2.326c-1.338-2.792-2.507-5.671-3.618-8.563
		c-0.208-0.54-0.067-1.482,0.298-1.913c0.642-0.756,1.305-0.168,1.901,0.382c2.22,2.05,4.542,3.994,6.674,6.13
		c0.772,0.772,1.168,1.95,1.643,2.985c0.193,0.42,0.091,0.964,0.206,1.432c0.509,2.067,5.643,4.889,8.327,4.597
		c2.377-0.259,4.072-2.482,4.282-5.443c0.496-6.979,1.044-13.954,1.565-20.931c0.12-1.608,0.235-3.217,0.319-4.828
		c0.076-1.443-1.498-3.001-3.094-3.166c-1.865-0.191-3.728-0.416-5.586-0.656c-0.35-0.045-0.68-0.23-1.019-0.353
		C25.953,19.53,25.989,19.327,26.026,19.124z M37.009,5.495c-2.243,0.004-4.207,1.294-4.771,3.159
		c-0.436,1.433,0.264,2.563,1.199,3.456c0.382,0.366,1.226,0.313,1.862,0.333c1.054,0.03,2.173-0.267,3.147,0
		c1.061,0.29,1.734,0.221,2.345-0.692c0.807-1.204,1.074-2.482,0.404-3.787C40.336,6.295,38.905,5.466,37.009,5.495z"/>
	<path fill="currentColor" d="M19.075,21.393c-1.565-0.287-2.485-0.918-2.451-2.13c0.033-1.174,0.897-1.84,2.197-1.797
		c1.266,0.042,2.257,0.842,2.194,1.84C20.969,20.04,19.764,20.7,19.075,21.393z"/>
	<path fill="currentColor" d="M55.164,21.082c-1.325-0.011-2.599-0.261-2.604-1.498c-0.005-1.053,0.979-1.782,2.261-1.778
		c1.216,0.002,2.063,0.593,2.089,1.708C56.934,20.566,56.169,21.24,55.164,21.082z"/>
</g>
</svg>
