<?xml version="1.0" encoding="utf-8"?>
<!-- Generator: Adobe Illustrator 16.0.0, SVG Export Plug-In . SVG Version: 6.00 Build 0)  -->
<!DOCTYPE svg PUBLIC "-//W3C//DTD SVG 1.1//EN" "http://www.w3.org/Graphics/SVG/1.1/DTD/svg11.dtd">
<svg version="1.1" id="Layer_1" xmlns="http://www.w3.org/2000/svg" xmlns:xlink="http://www.w3.org/1999/xlink" x="0px" y="0px"
	 width="72px" height="72px" viewBox="0 0 72 72" enable-background="new 0 0 72 72" xml:space="preserve">
<g>
	<path fill="currentColor" d="M27.724,65.391c0.204-0.511,0.548-1.014,0.579-1.535c0.045-0.737-0.14-1.489-0.227-2.237
		c-0.652,0.103-1.345,0.096-1.95,0.321c-1.807,0.682-3.542,1.582-5.386,2.117c-0.706,0.205-1.642-0.312-2.453-0.563
		c-0.691-0.217-1.353-0.521-2.229-0.87c1.104-0.906,2.167-1.672,3.087-2.582c0.446-0.438,0.625-1.149,0.924-1.739
		c-0.685-0.298-1.369-0.598-2.055-0.893c-0.046-0.021-0.112,0.013-0.16-0.006c-2.14-0.744-4.292-0.92-6.474,0.234
		c-0.033-0.148-0.065-0.3-0.097-0.449c0.131-0.193,0.233-0.42,0.398-0.58c1.435-1.393,2.902-2.75,4.293-4.184
		c0.162-0.166,0.057-0.93-0.148-1.059c-0.875-0.547-1.803-1.045-2.771-1.396c-0.944-0.345-1.958-0.505-2.947-0.718
		c-1.016-0.218-2.039-0.401-3.14-0.617c0.829-1.558,1.838-3.452,2.94-5.524c0.328,0.166,0.814,0.554,1.349,0.64
		c0.555,0.089,1.157-0.114,1.739-0.188c-0.164-0.554-0.159-1.377-0.525-1.605c-1.018-0.633-2.208-0.98-3.296-1.512
		c-1.688-0.819-3.347-1.696-4.974-2.813c1.56-0.801,2.508-2.601,4.691-1.746c0.605,0.237,2.165-0.571,2.454-1.253
		c0.401-0.945,0.049-2.227-0.069-3.355c-0.019-0.178-0.526-0.466-0.772-0.433c-1.244,0.165-2.468,0.489-3.713,0.611
		c-0.659,0.065-1.347-0.166-2.022-0.264c0.195-0.583,0.229-1.329,0.62-1.713c0.705-0.692,1.58-1.255,2.473-1.687
		c0.327-0.158,1.017,0.084,1.356,0.366c1.887,1.566,2.056,1.528,3.141-0.634c0.457-0.911,1.673-1.504,1.236-2.768
		c-0.175-0.505-0.749-1.361-0.893-1.313c-1.758,0.586-2.593-1.675-4.662-0.981c1.15-1.342,2.189-1.414,3.311-1.38
		c0.743,0.022,1.571,0.069,2.218-0.217c1.184-0.525,2.164-0.551,3.333,0.107c0.54,0.303,1.531,0.177,2.127-0.128
		c0.385-0.198,0.422-1.072,0.615-1.643c-0.529-0.117-1.055-0.248-1.587-0.345c-0.354-0.065-0.716-0.083-1.074-0.122
		c0.199-0.336,0.354-0.713,0.612-0.996c0.208-0.228,0.572-0.307,0.812-0.515c0.217-0.188,0.358-0.463,0.533-0.7
		c-0.277-0.203-0.528-0.519-0.835-0.589c-1.442-0.332-2.195-1.375-2.067-3.215c0.782,0.633,1.507,1.157,2.16,1.759
		c1.575,1.455,2.991,1.294,4.287-0.47c0.231-0.315,0.667-0.561,1.054-0.662c0.581-0.151,1.361,0.063,1.774-0.251
		c0.834-0.634,0.811-1.569,0.238-2.461c-0.076-0.118-0.075-0.285,0.094-0.61c0.412,0.458,0.747,1.045,1.253,1.344
		c0.736,0.435,1.156,1.841,2.388,0.986c0.975-0.677,1.152-2.299,0.497-3.497c-0.256-0.468-0.417-0.988-0.623-1.484
		c0.122-0.104,0.244-0.207,0.365-0.311c1.027,0.68,2.075,1.329,3.076,2.044c3.121,2.229,4.08,2.163,7.269-0.058
		c1.091-0.759,2.468-1.107,4.219-1.86c-0.484,1.613-0.906,2.786-1.172,3.993c-0.133,0.604-0.191,1.682,0.087,1.827
		c0.677,0.351,1.638,0.516,2.362,0.314c0.768-0.213,1.393-0.937,2.177-1.507c0.19,0.097,0.463,0.339,0.747,0.357
		c0.561,0.035,1.313,0.146,1.635-0.153c0.301-0.28,0.168-1.048,0.188-1.603c0.018-0.508-0.052-1.022,0.013-1.522
		c0.008-0.063,0.77-0.183,0.852-0.059c0.276,0.42,0.565,0.94,0.563,1.419c-0.018,1.688-0.111,3.378-0.262,5.061
		c-0.131,1.455,0.854,1.334,1.685,1.179c1.825-0.342,3.625-0.815,5.327-1.209c0.909,0.838,1.746,1.609,2.688,2.478
		c-0.818,0.468-1.649,0.833-2.352,1.371c-0.777,0.597-1.055,1.281,0.21,1.739c0.315,0.114,0.55,0.434,0.849,0.614
		c0.525,0.315,1.094,0.857,1.604,0.813c0.454-0.039,1.063-0.67,1.229-1.165c0.34-1.024,0.826-1.548,2.103-1.313
		c-0.673,1.16-1.181,2.32-1.937,3.286c-1.563,1.998-1.363,3.22,0.897,4.389c0.14,0.072,0.271,0.155,0.522,0.3
		c-1.449,1.053-2.649,1.69-4.353,0.854c-0.589-0.29-1.653,0.161-2.394,0.506c-0.332,0.156-0.4,0.88-0.59,1.346
		c0.424,0.107,0.869,0.358,1.268,0.298c1.921-0.293,3.191,0.985,4.629,1.844c0.193,0.116,0.188,0.575,0.26,0.879
		c0.393,1.668,0.682,3.383,2.52,4.202c0.26,0.114,0.412,0.465,0.98,1.141c-1.107,0-1.803,0.064-2.48-0.014
		c-1.305-0.153-3.248,1.16-3.193,2.418c0.021,0.526,0.629,1.25,1.15,1.496c1.673,0.789,3.43,1.395,5.257,2.109
		c-0.683,0.905-1.279,1.139-2.275,0.443c-1.434-0.994-2.948-0.715-3.907,0.755c-0.275,0.421-0.113,1.334,0.155,1.862
		c0.527,1.039,1.147,2.092,1.97,2.897c0.647,0.638,1.652,0.912,2.529,1.362c-0.559,0.729-1.396,0.902-2.396,0.428
		c-0.853-0.404-1.534-0.332-2.321,0.335c-1.218,1.026-1.912,0.729-2.981-0.624c-0.328-0.417-1.139-0.454-1.728-0.665
		c0.073,0.556-0.032,1.239,0.256,1.644c1.379,1.938,2.896,3.776,4.271,5.719c0.147,0.208-0.336,1.23-0.48,1.223
		c-1.09-0.074-2.264-0.104-3.225-0.553c-1.531-0.714-2.896-1.992-4.461-0.25c-2.435-2.659-2.627-2.732-4.393-1.536
		c0.732,0.672,1.867,1.228,1.999,1.959c0.147,0.827-0.604,1.813-1.002,2.823c-1.294-0.381-2.45-0.784-3.642-1.036
		c-0.536-0.114-1.139,0.076-1.711,0.128c0.093,0.527,0.146,1.066,0.289,1.581c0.092,0.331,0.321,0.623,0.287,1.157
		c-0.398-0.28-0.8-0.565-1.201-0.846c-1.967-1.363-3.325-0.965-4.319,1.217c-0.349,0.764-0.793,1.479-1.101,2.043
		c-1.621-1.332-2.962-2.977-4.693-3.725c-2.16-0.933-3.254,1.721-4.962,2.51C27.98,65.614,27.852,65.503,27.724,65.391z
		 M44.839,37.396c-0.228-2.181-0.63-4.579-0.696-6.985c-0.123-4.46-1.188-8.67-3.229-12.583c-1.104-2.114-2.264-4.362-5.375-4.258
		c-1.79,0.059-2.845,0.876-3.816,2.188c-1.297,1.753-1.213,2.057,0.163,3.678c1.159,1.365,2.289,2.861,2.977,4.491
		c0.866,2.052-0.658,3.827-2.628,3.262c-0.763-0.219-1.365-0.971-2.07-1.434c-0.501-0.33-1.16-0.912-1.553-0.784
		c-0.451,0.148-0.896,0.922-0.982,1.481c-0.634,4.08-1.31,8.171-0.145,12.278c0.085,0.302,0.098,0.646,0.048,0.957
		c-0.813,5.002,0.302,9.595,2.872,13.902c0.364,0.61,0.64,1.348,0.706,2.049c0.179,1.92,2.208,3.887,4.125,4.057
		c3.083,0.271,4.446-1.908,5.592-4.057C43.818,50.032,44.32,43.829,44.839,37.396z M26.666,59.032
		c-0.128-0.319-0.174-0.474-0.249-0.612c-0.448-0.836-2.882-1.585-3.447-0.84c-0.742,0.977-1.021,2.309-1.471,3.498
		c-0.028,0.074,0.161,0.293,0.292,0.357c1.645,0.815,2.417-1.05,3.758-1.271C25.987,60.096,26.324,59.398,26.666,59.032z
		 M60.173,49.214c-0.438-1.612-1.097-2.579-2.424-2.914c-0.356-0.09-0.955-0.11-1.104,0.091c-0.201,0.269-0.146,0.797-0.066,1.188
		c0.107,0.547,0.413,1.058,0.503,1.604c0.151,0.935,0.61,1.643,1.563,1.354C59.26,50.35,59.717,49.628,60.173,49.214z
		 M57.913,23.362c-0.94-0.845-1.519-1.47-2.22-1.879c-0.111-0.066-0.786,0.831-1.201,1.284c0.581,0.518,1.104,1.15,1.771,1.495
		C56.507,24.387,57.104,23.825,57.913,23.362z"/>
	<path fill="currentColor" d="M69.407,35.073c-0.696-0.51-1.222-0.816-1.648-1.226c-0.571-0.55-1.141-1.132-1.565-1.793
		c-0.248-0.383-0.213-0.949-0.305-1.433c0.623,0.006,1.326-0.17,1.853,0.061c0.851,0.376,1.655,0.942,2.34,1.58
		c0.394,0.367,0.757,1.075,0.675,1.55C70.68,34.243,69.982,34.566,69.407,35.073z"/>
	<path fill="currentColor" d="M6.398,20.096c0.191-1.237,0.043-2.303,0.465-2.625c1.302-0.997,2.822-1.71,4.257-2.534
		c0.052,0.408,0.303,0.991,0.124,1.196c-0.887,1.014-1.852,1.971-2.866,2.86C7.902,19.41,7.253,19.63,6.398,20.096z"/>
	<path fill="currentColor" d="M55.891,63.771c-1.66,1.94-3.17,2.063-4.132,0.418c-0.229-0.395-0.284-1.313-0.065-1.459
		c0.521-0.352,1.346-0.652,1.886-0.479C54.389,62.516,55.064,63.202,55.891,63.771z"/>
	<path fill="currentColor" d="M4.056,44.302c0.729,0.681,1.251,1.165,1.772,1.651c-0.479,0.355-1.014,1.059-1.423,0.99
		c-0.795-0.131-1.519-0.692-2.272-1.077C2.694,45.409,3.256,44.952,4.056,44.302z"/>
	<path fill="currentColor" d="M33.148,6.753c-0.884-0.834-1.605-1.514-2.326-2.193c0.307-0.276,0.812-0.839,0.89-0.785
		c0.814,0.563,1.566,1.217,2.291,1.893C34.026,5.689,33.567,6.225,33.148,6.753z"/>
	<path fill="currentColor" d="M54.466,11.817c0.2-0.831,0.401-1.661,0.603-2.491c0.449,0.144,0.897,0.289,1.349,0.433
		c-0.306,0.79-0.606,1.58-0.913,2.369C55.157,12.024,54.813,11.92,54.466,11.817z"/>
	<path fill="currentColor" d="M61.906,13.213c0,1.248,0,1.981,0,2.89c-0.657-0.395-1.244-0.747-2.206-1.323C60.477,14.229,61.039,13.829,61.906,13.213z"
		/>
	<path fill="currentColor" fill="#FFFFFF" d="M57.913,23.362c-0.81,0.463-1.406,1.025-1.647,0.9c-0.67-0.345-1.19-0.977-1.771-1.495
		c0.415-0.453,1.09-1.35,1.201-1.284C56.396,21.892,56.973,22.517,57.913,23.362z"/>
</g>
</svg>
