<svg xmlns="http://www.w3.org/2000/svg" xml:space="preserve" width="72px" height="72px" viewBox="0 0 72 72">
    <path fill="currentColor" d="m25.622 4.561 3.267 4.983c.233.355.414.763.707 1.058.485.489 1.042.907 1.569 1.355.301-.65.69-1.276.879-1.957.188-.679.175-1.413.25-2.123l.444-.051c.437 1.32 1.026 2.613 1.266 3.968.215 1.222.97 1.723 1.938 1.758.953.034 1.789-.361 2.107-1.564.387-1.452 1.057-2.829 1.604-4.239l.543-.034.885 3.862c.932.262 1.393-.009 1.867-1.038.9-1.956 2.13-3.761 3.629-5.554-.09 1.06-.227 2.119-.254 3.18-.038 1.431-.049 2.867.041 4.293.059.933-.057 1.639-.938 2.184a16.5 16.5 0 0 0-2.547 1.969c-.341.318-.442.893-.651 1.351 1.939.651.621 3.354 2.561 4.085.266.101.304.961.341 1.477.054.75.099 1.521-.017 2.259-.104.664-.243 1.661-.68 1.874-1.885.923-1.918 2.704-1.912 4.244.013 2.784.399 5.568.683 8.346.124 1.22.428 2.422.56 3.642.58 5.375 1.08 10.76 1.729 16.125.126 1.041.677 2.078 1.216 3.01.595 1.031.51 2.539-.54 3.092-.918.48-1.958.83-2.98.988-1.959.306-3.941.551-5.92.602-1.875.048-3.759-.145-5.632-.309-1.432-.123-2.89-.229-4.272-.584-2.619-.677-3.064-2.187-1.449-4.364.249-.334.506-.731.564-1.128.292-2.012.553-4.03.764-6.053.389-3.728.697-7.463 1.109-11.187.442-3.989 1.2-7.962 1.325-11.958.043-1.387.041-3.487-1.982-4.357-.406-.175-.725-.925-.788-1.445-.121-1.01-.067-2.048-.012-3.07.021-.407.115-.977.39-1.173.963-.687 1.488-1.485 1.284-2.707-.029-.175.21-.437.384-.596 1.283-1.172 1.314-1.856-.276-2.565-2.468-1.1-3.76-2.516-3.121-5.474.386-1.826.065-3.809.065-6.175"/>
</svg>
