<?xml version="1.0" encoding="utf-8"?>
<!-- Generator: Adobe Illustrator 16.0.0, SVG Export Plug-In . SVG Version: 6.00 Build 0)  -->
<!DOCTYPE svg PUBLIC "-//W3C//DTD SVG 1.1//EN" "http://www.w3.org/Graphics/SVG/1.1/DTD/svg11.dtd">
<svg version="1.1" id="Layer_1" xmlns="http://www.w3.org/2000/svg" xmlns:xlink="http://www.w3.org/1999/xlink" x="0px" y="0px"
	 width="72px" height="72px" viewBox="0 0 72 72" enable-background="new 0 0 72 72" xml:space="preserve">
<g>
	<path fill="currentColor" d="M37.123,8.834c0.382,1.856,0.753,3.714,1.145,5.568c0.728,3.439,1.467,6.875,2.195,10.314
		c0.354,1.67,0.714,3.34,1.021,5.019c0.063,0.339,0.035,0.834-0.168,1.061c-1.498,1.655-3.051,3.26-4.778,5.083
		c0-9.198,0-18.124,0-27.05C36.732,8.83,36.93,8.832,37.123,8.834z"/>
	<path fill="currentColor" d="M35.227,65.156c-0.388-2.244-0.706-4.502-1.177-6.729c-1.003-4.747-2.055-9.483-3.157-14.21
		c-0.264-1.129-0.055-1.938,0.753-2.763c1.192-1.218,2.269-2.545,3.395-3.826c0.17,0.124,0.341,0.248,0.511,0.372
		c0,9.049,0,18.1,0,27.148C35.444,65.15,35.335,65.154,35.227,65.156z"/>
	<path fill="currentColor" d="M8.525,35.587c2.075-0.401,4.155-0.779,6.225-1.208c4.333-0.898,8.68-1.742,12.981-2.774
		c1.83-0.439,3.069-0.09,4.114,1.488c0.484,0.731,1.341,1.208,1.983,1.846c0.238,0.237,0.348,0.603,0.516,0.911
		c-0.316,0.155-0.633,0.449-0.947,0.445c-5.606-0.076-11.21-0.223-16.816-0.276c-2.447-0.023-4.896,0.135-7.345,0.189
		c-0.235,0.006-0.474-0.139-0.712-0.213C8.525,35.859,8.525,35.724,8.525,35.587z"/>
	<path fill="currentColor" d="M63.413,37.748c-2.067,0.395-4.138,0.779-6.203,1.184c-4.448,0.869-8.957,1.526-13.313,2.734
		c-1.666,0.462-2.254-0.07-3.178-1.02c-0.965-0.992-2.102-1.814-3.162-2.713c0.137-0.207,0.273-0.416,0.41-0.623
		c8.453,0,16.906,0,25.359,0C63.355,37.456,63.385,37.604,63.413,37.748z"/>
	<path fill="currentColor" d="M48.252,25.978c-0.968,1.188-1.913,2.396-2.928,3.543c-0.153,0.173-0.641,0.093-0.958,0.042
		c-0.06-0.01-0.165-0.543-0.062-0.651c1.116-1.151,2.271-2.265,3.416-3.389C47.896,25.674,48.075,25.826,48.252,25.978z"/>
	<path fill="currentColor" d="M29.002,29.04c-1.354-1.305-2.442-2.354-3.764-3.627C27.382,25.607,29.08,27.123,29.002,29.04z"/>
	<path fill="currentColor" d="M43.602,44.607c1.248,1.25,2.353,2.358,3.633,3.643C44.652,47.766,42.99,46.17,43.602,44.607z"/>
	<path fill="currentColor" d="M28.174,44.072c-1.163,1.084-2.19,2.041-3.53,3.289C25.447,44.611,26.432,43.688,28.174,44.072z"/>
</g>
</svg>
