<svg xmlns="http://www.w3.org/2000/svg" xml:space="preserve" width="72px" height="72px" viewBox="0 0 72 72">
    <path fill="currentColor" d="M37.123 8.834c.382 1.856.753 3.714 1.145 5.568.728 3.439 1.467 6.875 2.195 10.314.354 1.67.714 3.34 1.021 5.019.063.339.035.834-.168 1.061-1.498 1.655-3.051 3.26-4.778 5.083V8.829zm-1.896 56.322c-.388-2.244-.706-4.502-1.177-6.729a700 700 0 0 0-3.157-14.21c-.264-1.129-.055-1.938.753-2.763 1.192-1.218 2.269-2.545 3.395-3.826l.511.372v27.148zM8.525 35.587c2.075-.401 4.155-.779 6.225-1.208 4.333-.898 8.68-1.742 12.981-2.774 1.83-.439 3.069-.09 4.114 1.488.484.731 1.341 1.208 1.983 1.846.238.237.348.603.516.911-.316.155-.633.449-.947.445-5.606-.076-11.21-.223-16.816-.276-2.447-.023-4.896.135-7.345.189-.235.006-.474-.139-.712-.213zm54.888 2.161c-2.067.395-4.138.779-6.203 1.184-4.448.869-8.957 1.526-13.313 2.734-1.666.462-2.254-.07-3.178-1.02-.965-.992-2.102-1.814-3.162-2.713l.41-.623h25.359zm-15.161-11.77c-.968 1.188-1.913 2.396-2.928 3.543-.153.173-.641.093-.958.042-.06-.01-.165-.543-.062-.651 1.116-1.151 2.271-2.265 3.416-3.389zm-19.25 3.062-3.764-3.627c2.144.194 3.842 1.71 3.764 3.627m14.6 15.567c1.248 1.25 2.353 2.358 3.633 3.643-2.583-.484-4.245-2.08-3.633-3.643m-15.428-.535-3.53 3.289c.803-2.75 1.788-3.673 3.53-3.289"/>
</svg>
