<?xml version="1.0" encoding="utf-8"?>
<!-- Generator: Adobe Illustrator 16.0.0, SVG Export Plug-In . SVG Version: 6.00 Build 0)  -->
<!DOCTYPE svg PUBLIC "-//W3C//DTD SVG 1.1//EN" "http://www.w3.org/Graphics/SVG/1.1/DTD/svg11.dtd">
<svg version="1.1" id="Layer_1" xmlns="http://www.w3.org/2000/svg" xmlns:xlink="http://www.w3.org/1999/xlink" x="0px" y="0px"
	 width="71.907px" height="71.977px" viewBox="0 0 71.907 71.977" enable-background="new 0 0 71.907 71.977" xml:space="preserve">
<g>
	<path fill="currentColor" fill-rule="evenodd" clip-rule="evenodd" d="M53.008,55.606c0,0.022,0,0.044,0,0.066c-0.018,0.007-0.05,0.011-0.052,0.021
		c-0.009,0.04,0.021,0.046,0.052,0.044c0,0.109,0,0.219,0,0.329c-0.221,0.157-0.473,0.273-0.65,0.489
		c-0.008,0.232-0.222,0.434-0.107,0.698c0.2,0,0.405,0,0.595,0c0.146,0.108,0.088,0.243,0.094,0.355
		c-0.064,0.089-0.185,0.128-0.188,0.229c-0.007,0.173-0.132,0.278-0.207,0.408c-0.078,0.134-0.113,0.283-0.183,0.421
		c0.084,0.052,0.056,0.146,0.056,0.229c0.001,0.821,0.001,1.643,0,2.464c0,0.065,0.024,0.148-0.007,0.193
		c-0.113,0.161-0.065,0.341-0.045,0.501c0.011,0.083,0.052,0.176,0.052,0.27c0.001,0.449,0.001,0.897,0,1.347
		c0,0.064,0.014,0.139-0.013,0.191c-0.111,0.229-0.021,0.469-0.053,0.701c0.141,0.172,0.051,0.333-0.021,0.494
		c-0.094,0.043-0.195,0.064-0.272,0.14c-0.043,0.041-0.753,0.336-0.813,0.33c-0.105-0.012-0.198,0.041-0.256,0.095
		c-0.183,0.169-0.425,0.197-0.634,0.299c-0.291,0.143-0.604,0.237-0.887,0.397c-0.12,0-0.241,0-0.373,0
		c-0.148,0.169-0.335,0.296-0.56,0.367c-0.144,0.046-0.295,0.089-0.422,0.167c-0.101,0.061-0.212,0.084-0.306,0.134
		c-0.149,0.078-0.323,0.082-0.456,0.168c-0.178,0.115-0.363,0.175-0.567,0.222c-0.238,0.056-0.502,0.083-0.636,0.318
		c-0.068,0.015-0.122-0.013-0.171,0.033c-0.083,0.079-0.215,0.073-0.293,0.164c-0.265-0.01-0.453,0.173-0.68,0.262
		c-0.05,0.02-0.081,0.066-0.135,0.071c-0.313,0.026-0.609,0.145-0.931,0.136c-0.58-0.015-1.161-0.004-1.741-0.004
		c-0.065,0-0.153-0.027-0.193,0.005c-0.119,0.098-0.237,0.072-0.359,0.034c-0.13-0.041-0.265-0.076-0.333-0.211
		c-0.024-0.286,0.022-0.572-0.062-0.861c-0.079-0.268-0.085-0.555-0.134-0.831c-0.017-0.093-0.102-0.156-0.075-0.269
		c0.042-0.18-0.045-0.356-0.077-0.527c-0.041-0.222-0.105-0.44-0.121-0.638c-0.186-0.374-0.358-0.729-0.613-1.022
		c-0.261-0.301-0.326-0.736-0.693-0.983c-0.025-0.075-0.053-0.176-0.127-0.244c-0.032-0.105,0.016-0.208-0.046-0.317
		c-0.118-0.209-0.18-0.446-0.155-0.688c0.033-0.336-0.097-0.658-0.068-0.991c0.001-0.011,0.005-0.026-0.001-0.032
		c-0.119-0.13-0.064-0.29-0.06-0.434c0.006-0.163-0.086-0.3-0.078-0.466c0.01-0.198,0.059-0.408-0.059-0.597
		c0.046-0.175-0.075-0.33-0.063-0.498c0.012-0.173-0.055-0.334-0.061-0.499c-0.004-0.112-0.077-0.192-0.076-0.301
		c0.003-0.223-0.031-0.443-0.049-0.664c-0.024-0.286-0.099-0.565-0.092-0.858c0.005-0.185-0.062-0.388-0.218-0.528
		c-0.089,0-0.177,0-0.225,0c-0.223,0.078-0.334,0.239-0.472,0.365c0,0.294,0,0.577,0,0.858c-0.036,0.032-0.068,0.088-0.1,0.087
		c-0.248-0.008-0.5,0.043-0.743-0.027c-0.093-0.026-0.163,0.089-0.248,0.019c-0.136-0.112-0.293-0.024-0.438-0.053
		c-0.129,0.123-0.29,0.065-0.433,0.06c-0.154-0.007-0.276,0.09-0.433,0.078c-0.283-0.021-0.572,0.018-0.833-0.136
		c-0.032-0.019-0.086,0.011-0.119-0.036c0-0.15-0.019-0.307,0.005-0.456c0.026-0.168-0.123-0.3-0.069-0.454
		c-0.145-0.19-0.336-0.297-0.546-0.368c-0.122-0.042-0.21,0.059-0.313,0.104c0,0.264,0,0.525,0,0.785
		c-0.078,0.066-0.112,0.16-0.124,0.247c-0.021,0.155,0.021,0.319-0.07,0.465c0.022,0.344-0.108,0.678-0.068,1.024
		c0.014,0.118,0.002,0.24,0.002,0.359c-0.038,0.064-0.128,0.088-0.134,0.199c0.076,0.042,0.075,0.146,0.126,0.21
		c0,0.116,0,0.225,0,0.324c-0.045,0.046-0.084,0.085-0.131,0.131c0.061,0.139-0.073,0.25-0.062,0.392s0.002,0.285,0.002,0.428
		c0,0.01,0.001,0.022-0.003,0.031c-0.107,0.223-0.083,0.469-0.122,0.703c-0.032,0.192-0.022,0.395-0.002,0.59
		c0.021,0.208-0.052,0.4-0.083,0.596c-0.037,0.233-0.073,0.479-0.244,0.687c-0.168,0.203-0.35,0.408-0.432,0.673
		c-0.006,0.019-0.028,0.033-0.045,0.046c-0.182,0.141-0.25,0.353-0.345,0.545c-0.104,0.004-0.134,0.073-0.175,0.154
		c-0.042,0.083-0.126,0.145-0.19,0.215c0.004,0.189-0.137,0.317-0.196,0.471c-0.02,0.239,0.043,0.479-0.068,0.703
		c0.044,0.164-0.103,0.3-0.068,0.466c0.021,0.101,0.08,0.188,0.074,0.301c-0.006,0.108-0.113,0.186-0.072,0.302
		c0.025,0.072-0.073,0.097-0.067,0.169c0.023,0.312-0.1,0.611-0.068,0.926c0.021,0.223-0.027,0.29-0.193,0.438
		c-0.92,0-1.84,0-2.76,0c0.007-0.042-0.02-0.067-0.052-0.064c-0.134,0.015-0.239-0.049-0.352-0.104
		c-0.08-0.04-0.167-0.073-0.253-0.103c-0.209-0.071-0.422-0.14-0.604-0.289c-0.129-0.106-0.3-0.196-0.462-0.217
		c-0.166-0.021-0.308-0.088-0.423-0.17c-0.166-0.117-0.354-0.155-0.529-0.234c-0.12-0.054-0.276-0.059-0.365-0.141
		c-0.146-0.133-0.322-0.207-0.491-0.243c-0.197-0.042-0.352-0.161-0.538-0.217c-0.102-0.03-0.234-0.021-0.294-0.07
		c-0.095-0.08-0.196-0.115-0.303-0.152c-0.192-0.065-0.283-0.255-0.438-0.361c-0.211-0.003-0.484-0.068-0.741-0.198
		c-0.587-0.298-1.185-0.572-1.791-0.83c-0.162-0.068-0.293-0.182-0.423-0.248c-0.057-0.108-0.104-0.198-0.146-0.276
		c-0.051-0.591,0.051-1.175-0.068-1.757c-0.043-0.21,0.007-0.438-0.011-0.655c-0.019-0.228,0.084-0.434,0.076-0.662
		c-0.02-0.558-0.002-1.116-0.009-1.675c-0.002-0.178,0.041-0.357-0.055-0.535c-0.034-0.064-0.044-0.188,0.034-0.274
		c0.045-0.05,0.02-0.112,0.001-0.177c-0.08-0.291-0.298-0.509-0.401-0.787c-0.009-0.023-0.084,0.003-0.088-0.011
		c0-0.178,0-0.317,0-0.466c0.284,0.05,0.507-0.051,0.709-0.219c-0.058-0.045-0.061-0.104-0.069-0.17
		c-0.029-0.225-0.104-0.433-0.344-0.505c-0.179-0.053-0.292-0.191-0.441-0.282c0-0.131,0-0.263,0-0.394
		c0.041,0.007,0.066-0.02,0.064-0.052c-0.032-0.498,0.114-0.986,0.069-1.485c-0.012-0.13,0.007-0.263-0.004-0.394
		c-0.007-0.083,0.048-0.114,0.095-0.167c0.09,0,0.186,0,0.272,0c0.101,0.067,0.094,0.2,0.194,0.259
		c0.058,0.034,0.015,0.104,0.037,0.147c0.022,0.045,0.075,0.112,0.106,0.107c0.153-0.021,0.217,0.095,0.289,0.18
		c0.235,0.274,0.567,0.448,0.769,0.758c0.037,0.058,0.094,0.102,0.176,0.127c0.177,0.055,0.275,0.202,0.322,0.402
		c0.098-0.077,0.112,0.087,0.213,0.045c0.092-0.152,0.311-0.144,0.422-0.292c0-0.525,0-1.051,0-1.574
		c-0.229-0.3-0.42-0.611-0.39-1.03c0.209-0.081,0.426-0.128,0.577-0.271c0-0.107,0-0.203,0-0.3
		c-0.136-0.345-0.531-0.429-0.721-0.727c0.072-0.172-0.089-0.317-0.06-0.493c0.023-0.138-0.051-0.3,0.028-0.414
		c0.112-0.163-0.039-0.279-0.026-0.418c0.003-0.032-0.01-0.082,0.006-0.095c0.101-0.076,0.056-0.181,0.058-0.272
		c0.006-0.24,0.002-0.479,0.002-0.719c0.096-0.025,0.161-0.114,0.266-0.092c0.219,0.073,0.183,0.309,0.288,0.454
		c0.021,0.002,0.049-0.004,0.062,0.007c0.202,0.175,0.414,0.341,0.6,0.531c0.121,0.124,0.283,0.191,0.395,0.322
		c0.11,0.129,0.216,0.261,0.326,0.39c0.035,0.042,0.071,0.102,0.117,0.112c0.178,0.045,0.261,0.191,0.305,0.331
		c0.05,0.158,0.18,0.196,0.28,0.209c0.237,0.029,0.49,0.049,0.719-0.001c0.266-0.059,0.512-0.088,0.771,0.007
		c0.055,0.02,0.15,0.02,0.186-0.015c0.069-0.067,0.142-0.046,0.213-0.046c0.136,0,0.265,0,0.403,0.056
		c0.193,0.077,0.393-0.049,0.594-0.058c0.205-0.01,0.393-0.059,0.527-0.24c-0.033-0.189,0.049-0.365,0.097-0.545
		c0.037-0.139,0.054-0.268-0.004-0.399c-0.041-0.092-0.027-0.172,0.002-0.27c0.044-0.146,0.149-0.31,0.089-0.448
		c-0.072-0.164-0.053-0.296,0.013-0.418c-0.021-0.187-0.124-0.309-0.247-0.379c-0.232-0.132-0.322-0.369-0.479-0.556
		c0-0.241,0-0.482,0-0.722c0.055-0.056,0.109-0.109,0.163-0.163c0.082-0.018,0.173,0.034,0.245-0.046
		c0.042-0.047,0.117-0.036,0.153-0.017c0.14,0.075,0.297,0.027,0.433,0.068c0.284,0.085,0.556,0.097,0.836-0.004
		c0.058-0.021,0.152-0.03,0.192,0.002c0.188,0.147,0.373,0.021,0.538-0.018c0.18-0.041,0.402-0.032,0.521-0.214
		c0.039-0.436-0.027-0.865,0.063-1.296c0.055-0.263,0.01-0.546,0.01-0.819c0-0.043,0.011-0.095-0.008-0.128
		c-0.095-0.162-0.067-0.312,0.004-0.478c0.062-0.143,0.081-0.302,0.073-0.463c-0.011-0.208-0.003-0.417-0.003-0.625
		c-0.19-0.189,0.045-0.374,0.008-0.571c-0.041-0.217,0.033-0.442,0.047-0.662c0.033-0.479,0.025-0.964,0.006-1.444
		c-0.02-0.487,0.051-0.968,0.071-1.452c0.006-0.146-0.016-0.288,0.053-0.438c0.04-0.086,0.044-0.226-0.023-0.343
		c-0.065-0.114-0.05-0.253-0.006-0.37c0.019-0.05,0.041-0.094,0.041-0.147c0-0.34,0.011-0.68-0.003-1.019
		c-0.014-0.335,0.098-0.655,0.075-0.992c-0.026-0.371-0.013-0.745-0.004-1.117c0.009-0.364,0.01-0.726,0.048-1.091
		c0.054-0.512,0.125-1.029,0.083-1.549c-0.015-0.185-0.007-0.372,0-0.558c0.004-0.092-0.044-0.199,0.055-0.272
		c0.01-0.446,0.038-0.894-0.015-1.337c-0.019-0.157-0.058-0.289,0.015-0.449c0.073-0.159,0.13-0.357,0.06-0.521
		c-0.047-0.109-0.047-0.205-0.049-0.308c-0.004-0.223,0.029-0.443,0.052-0.664c0.041-0.401,0.028-0.81,0.006-1.214
		c-0.021-0.401,0.108-0.789,0.073-1.189c-0.013-0.141-0.002-0.284-0.002-0.427c0-0.219,0.014-0.439-0.004-0.657
		c-0.019-0.228,0.114-0.436,0.071-0.664c-0.005-0.028,0.004-0.063,0.018-0.09c0.097-0.185,0.023-0.382,0.046-0.573
		c-0.11-0.095-0.093-0.245-0.153-0.365c-0.067-0.134-0.225-0.199-0.242-0.359c-0.114-0.011-0.166-0.12-0.26-0.166
		c-0.222-0.109-0.315-0.328-0.39-0.539c-0.043-0.122-0.015-0.264-0.064-0.4c-0.044-0.122,0.002-0.269-0.069-0.399
		c-0.028-0.05-0.032-0.152,0-0.19c0.11-0.128,0.039-0.271,0.061-0.404c0.012-0.073-0.026-0.155,0.022-0.221
		c0.059-0.08,0.067-0.149-0.003-0.226c-0.042-0.045-0.017-0.104-0.018-0.156c-0.002-0.339-0.003-0.679,0-1.019
		c0-0.071,0.01-0.137,0.041-0.212c0.061-0.145,0.045-0.311-0.048-0.445c0.024-0.058,0.079-0.083,0.073-0.148
		c-0.011-0.125-0.018-0.244-0.057-0.37c-0.046-0.15-0.014-0.325-0.01-0.49c0.004-0.16-0.119-0.299-0.068-0.436
		c-0.058-0.127-0.111-0.229-0.203-0.295c0-0.1,0-0.186,0-0.272c-0.066-0.063-0.129-0.123-0.191-0.182c0-0.07,0-0.135,0-0.205
		c-0.106-0.062-0.167-0.176-0.187-0.278c-0.028-0.144-0.115-0.239-0.178-0.356c-0.068-0.127-0.21-0.217-0.22-0.366
		c-0.011-0.154-0.111-0.262-0.163-0.394c-0.073-0.187-0.229-0.323-0.349-0.478c-0.103-0.132-0.176-0.259-0.144-0.418
		c0.035-0.04,0.063-0.072,0.088-0.101c0.185-0.018,0.294,0.106,0.423,0.207c0.152-0.071,0.279,0.068,0.452,0.054
		c0.052,0.063,0.114,0.139,0.149,0.181c0.214,0.028,0.341,0.141,0.531,0.215c0.153-0.06,0.322,0.098,0.519,0.068
		c0.345-0.053,0.678,0.103,1.024,0.065c0.091-0.01,0.179,0.127,0.26,0.051c0.088-0.083,0.194-0.014,0.27-0.067
		c0.156-0.109,0.298-0.04,0.439,0.022c0.063-0.089,0.192-0.065,0.248-0.201c-0.07-0.355,0.064-0.733,0.059-1.119
		c0.111-0.154,0.069-0.333,0.061-0.499c-0.008-0.174,0.093-0.321,0.076-0.499c-0.021-0.221-0.011-0.443,0.051-0.665
		c0.02-0.071,0.087-0.119,0.076-0.2c-0.047-0.324,0.093-0.634,0.068-0.958c-0.017-0.218-0.005-0.438-0.002-0.657
		c0.001-0.063-0.028-0.135,0.018-0.188c0.131-0.152,0.001-0.279-0.076-0.354c-0.201-0.196-0.332-0.451-0.549-0.632
		c-0.054-0.045-0.106-0.092-0.125-0.178c-0.016-0.072-0.118-0.109-0.136-0.207c-0.018-0.098-0.141-0.079-0.203-0.139
		c-0.167-0.162-0.359-0.297-0.447-0.533c-0.057-0.151-0.149-0.293-0.247-0.422c-0.16-0.209-0.188-0.446-0.204-0.626
		c0.138-0.162,0.245-0.151,0.39-0.091c0.125,0.052,0.285,0.006,0.431-0.048c0.127-0.047,0.28,0.061,0.395,0.043
		c0.145-0.022,0.288-0.048,0.436-0.05c0.042,0,0.081-0.005,0.12,0.029c0.072,0.063,0.159,0.033,0.227,0.027
		c0.185-0.125,0.262-0.313,0.364-0.506c0-0.109-0.045-0.267,0.011-0.365c0.07-0.121,0.042-0.229,0.053-0.341
		c0.012-0.125-0.025-0.257,0.077-0.356c-0.121-0.129-0.054-0.277-0.077-0.41c-0.024-0.135,0.068-0.236,0.088-0.36
		c0.02-0.125,0.173-0.05,0.242-0.118c0.005-0.005,0-0.021,0-0.032c0.088,0,0.175,0,0.263,0c0.012,0.108,0.097,0.048,0.205,0.084
		c0,0,0.034,0.042,0.064,0.086c0.176,0.252,0.537,0.451,0.897,0.422c0.097-0.007,0.197-0.011,0.293,0.001
		c0.236,0.028,0.466-0.019,0.685-0.084c0.249-0.075,0.459-0.25,0.716-0.323c0.062-0.018,0.146-0.092,0.163-0.186
		c0.109,0,0.22,0,0.329,0c0.067,0.09,0.201,0.147,0.192,0.273c-0.014,0.216,0.043,0.421,0.067,0.63
		c0.025,0.209-0.041,0.429,0.068,0.63c-0.043,0.28,0.104,0.541,0.075,0.732c0.113,0.193,0.246,0.165,0.371,0.165
		c0.23,0.001,0.461,0.012,0.69-0.003c0.222-0.014,0.453,0.069,0.665-0.057c0.075,0.102,0.267,0.012,0.311,0.222
		c-0.076,0.172-0.154,0.382-0.261,0.577c-0.088,0.163-0.204,0.304-0.215,0.505c-0.005,0.082-0.067,0.178-0.132,0.237
		c-0.401,0.367-0.721,0.809-1.11,1.185c0,0.187,0,0.373,0,0.559c0,0.055-0.015,0.116,0.005,0.162
		c0.11,0.258,0.148,0.528,0.123,0.802c-0.029,0.314,0.107,0.613,0.069,0.926c-0.001,0.011-0.004,0.023,0,0.033
		c0.126,0.299,0.142,0.613,0.132,0.931c-0.012,0.376,0.112,0.744,0.065,1.123c-0.002,0.021-0.005,0.046,0.003,0.064
		c0.106,0.232,0.121,0.482,0.138,0.744c0.197,0.101,0.404,0.201,0.632,0.203c0.232,0.002,0.462,0.017,0.699-0.049
		c0.203-0.057,0.436-0.02,0.653-0.009c0.164,0.007,0.305-0.053,0.448-0.112c0.188-0.077,0.365-0.171,0.564-0.224
		c0.185-0.049,0.374-0.117,0.528-0.224c0.139-0.096,0.288-0.155,0.431-0.25c0.098,0.055,0.188,0.105,0.291,0.086
		c0.057,0.218-0.024,0.414-0.126,0.544c-0.226,0.289-0.316,0.641-0.502,0.948c-0.19,0.317-0.368,0.652-0.507,1.002
		c-0.104,0.264-0.279,0.494-0.376,0.765c-0.057,0.158-0.125,0.305-0.117,0.477c0.004,0.098,0.007,0.198-0.001,0.295
		c-0.008,0.1,0.07,0.165,0.076,0.268c0.014,0.24-0.083,0.461-0.075,0.696c0.01,0.342-0.033,0.688,0.066,1.024c0,0.81,0,1.62,0,2.439
		c-0.432,0.349-0.738,0.797-0.99,1.342c0.041,0.543-0.02,1.135,0.058,1.73c0.085,0.652-0.033,1.316,0.069,1.977
		c0.072,0.466-0.009,0.942,0.061,1.419c0.065,0.451,0.019,0.918,0.013,1.378c-0.006,0.453,0.109,0.898,0.067,1.353
		c-0.044,0.475,0.055,0.945,0.065,1.418c0.001,0.031-0.002,0.07,0.014,0.092c0.112,0.154,0.041,0.298-0.006,0.403
		c0.065,0.154,0.094,0.279,0.029,0.397c-0.051,0.095-0.048,0.178-0.009,0.269c0.062,0.144,0.026,0.31,0.103,0.45
		c-0.102,0.19-0.02,0.378-0.015,0.57c0.006,0.291,0.082,0.571,0.083,0.859c0,0.113-0.019,0.223,0.054,0.34
		c0.049,0.078,0.045,0.235-0.004,0.316c-0.096,0.159-0.036,0.317-0.049,0.473c-0.014,0.163-0.037,0.338,0.009,0.488
		c0.03,0.104,0.07,0.206,0.048,0.304c-0.029,0.131,0.082,0.22,0.07,0.336c-0.021,0.221,0.049,0.446-0.059,0.665
		c-0.038,0.08-0.045,0.224,0.003,0.286c0.079,0.105,0.063,0.209,0.052,0.308c-0.016,0.126,0.076,0.215,0.073,0.335
		c-0.008,0.307,0.017,0.614-0.008,0.919c-0.025,0.315,0.075,0.614,0.077,0.926c0.004,0.407-0.024,0.813,0.046,1.224
		c0.067,0.397,0.013,0.813,0.072,1.22c0.059,0.402-0.029,0.813,0.063,1.223c0.052,0.229,0.008,0.479,0.011,0.721
		c0.001,0.054-0.044,0.069-0.049,0.077c0.084,0.183,0.029,0.358,0.049,0.525c0.021,0.179-0.024,0.355,0.04,0.541
		c0.052,0.15,0.058,0.324,0.112,0.494c0.019,0.003,0.056-0.002,0.078,0.014c0.235,0.174,0.478,0.16,0.744,0.07
		c0.112-0.038,0.228-0.11,0.365-0.076c0.304,0.075,0.304,0.068,0.603,0.004c0.052-0.012,0.117-0.02,0.162,0.001
		c0.193,0.092,0.371,0.069,0.574,0.008c0.177-0.054,0.362,0.044,0.54,0.134c0,0.135-0.042,0.286,0.01,0.39
		c0.105,0.213,0.021,0.421,0.062,0.621c-0.272,0.118-0.428,0.245-0.729,0.587c0,0.052,0.004,0.107,0,0.161
		c-0.045,0.541,0.121,1.073,0.059,1.604c0.16,0.162,0.161,0.39,0.29,0.565c0.117,0.019,0.251-0.033,0.362,0.064
		c0.031,0.027,0.125,0.027,0.157,0c0.126-0.104,0.269-0.056,0.403-0.059c0.146-0.003,0.29-0.022,0.436,0.057
		c0.14,0.075,0.28-0.069,0.43-0.061c0.044,0.003,0.11-0.018,0.128,0.004c0.088,0.108,0.203,0.053,0.305,0.06
		c0.07,0.005,0.14,0.013,0.214-0.041c0.074-0.055,0.197-0.048,0.279-0.009c0.313,0.147,0.549-0.001,0.761-0.194
		c0.18-0.164,0.333-0.362,0.505-0.531c0.234-0.23,0.494-0.432,0.684-0.709c0.091-0.134,0.209-0.273,0.349-0.343
		c0.188-0.093,0.284-0.237,0.355-0.412c0.022-0.056,0.071-0.079,0.099-0.123c0.067,0,0.133,0,0.201,0
		c0.052,0.053,0.105,0.107,0.152,0.155c0.054,0.543-0.05,1.084,0.069,1.622c0.044,0.198,0.007,0.414,0.007,0.62
		c-0.143,0.21-0.28,0.424-0.529,0.513c-0.082,0.083-0.165,0.166-0.263,0.264c-0.023,0.22,0.149,0.356,0.3,0.506
		c0.131,0,0.263,0,0.394,0c0.031,0.031,0.063,0.063,0.096,0.096c0,0.063,0,0.128,0,0.201c-0.098,0.11-0.244,0.201-0.259,0.376
		c-0.015,0.173-0.19,0.259-0.212,0.441c-0.013,0.107-0.051,0.221-0.052,0.336c-0.001,0.164-0.012,0.33,0.005,0.492
		c0.008,0.068-0.064,0.084-0.046,0.159c0.055,0.232,0.086,0.47,0.129,0.718c0.1,0.142,0.307,0.012,0.398,0.146
		c0.321-0.09,0.493-0.379,0.843-0.519c0.045-0.047,0.143-0.15,0.251-0.266c0.024-0.166,0.068-0.223,0.226-0.274
		c0.2-0.066,0.298-0.139,0.453-0.319c0.195-0.228,0.457-0.396,0.605-0.665c0.064,0,0.13,0,0.212,0
		c0.236,0.356,0.108,0.766,0.149,1.154c0.116,0.107,0.134,0.249,0.127,0.402c-0.006,0.12-0.003,0.241,0,0.361
		C52.945,55.589,52.967,55.614,53.008,55.606z"/>
	<path fill="currentColor" fill-rule="evenodd" clip-rule="evenodd" d="M34.475,60.101c-0.129-0.379-0.071-0.703,0.104-1.02
		c0.159-0.287,0.316-0.573,0.703-0.715c0.125,0,0.318,0.035,0.494-0.007c0.494-0.117,0.991-0.02,1.486-0.066
		c0.157,0.162,0.253,0.365,0.426,0.517c0.151,0.134,0.18,0.362,0.202,0.566c0.012,0.108-0.039,0.248,0.013,0.321
		c0.061,0.085,0.018,0.19,0.098,0.26c0.055,0.048,0.022,0.124,0.021,0.186c-0.007,0.308,0.013,0.609,0.131,0.899
		c0.016,0.037,0.008,0.087,0.001,0.13c-0.044,0.271,0.044,0.534,0.083,0.792c0.048,0.312,0.045,0.642,0.181,0.938
		c0.004,0.01,0.002,0.022,0,0.033c-0.05,0.346,0.076,0.679,0.076,1.023c0,0.2,0.033,0.411,0.106,0.608
		c0.028,0.077,0.025,0.173,0.012,0.256c-0.016,0.096,0.099,0.14,0.072,0.237c-0.014,0.048,0,0.098,0.031,0.15
		c0.057,0.094,0.062,0.201-0.034,0.287c0.016,0.016,0.044,0.03,0.045,0.046c0.004,0.2,0.117,0.387,0.084,0.589
		c-0.029,0.177,0.093,0.323,0.072,0.499c-0.02,0.173-0.049,0.366,0.006,0.521c0.102,0.292,0.122,0.602,0.235,0.888
		c0.025,0.064,0.01,0.127,0.021,0.217c-0.055,0.04-0.124,0.091-0.226,0.164c-0.525,0-1.105,0.004-1.686-0.003
		c-0.123-0.001-0.262,0.055-0.369-0.062c-0.01-0.011-0.044-0.008-0.063,0c-0.346,0.13-0.705,0.033-1.057,0.065
		c-0.156,0.015-0.324-0.054-0.467,0.063c-0.013,0.011-0.044,0.007-0.064,0.001c-0.434-0.139-0.88-0.032-1.319-0.064
		c-0.055-0.004-0.111-0.008-0.164,0c-0.133,0.021-0.245-0.033-0.361-0.088c0-0.16-0.055-0.352,0.014-0.474
		c0.087-0.153-0.046-0.333,0.102-0.453c-0.02-0.182,0.042-0.353,0.071-0.528c0.021-0.125-0.041-0.256,0.043-0.377
		c0.073-0.105-0.041-0.262,0.087-0.358c0.005-0.004,0.002-0.021,0-0.031c-0.044-0.313,0.072-0.615,0.066-0.926
		c-0.005-0.274-0.01-0.549,0.125-0.802c0.005-0.009,0.007-0.021,0.005-0.03c-0.049-0.239,0.091-0.459,0.067-0.695
		c-0.023-0.225,0.033-0.437,0.115-0.642c0.026-0.065,0.013-0.128,0.015-0.191c0.003-0.196-0.007-0.395,0.003-0.591
		c0.012-0.228,0.049-0.453,0.118-0.673c0.012-0.039,0.013-0.085,0.011-0.127c-0.012-0.182,0.013-0.356,0.108-0.514
		c0.045-0.073,0.029-0.149,0.021-0.22c-0.022-0.195,0.068-0.368,0.095-0.554C34.438,60.133,34.461,60.118,34.475,60.101z"/>
</g>
</svg>
