<?xml version="1.0" encoding="utf-8"?>
<!-- Generator: Adobe Illustrator 16.0.0, SVG Export Plug-In . SVG Version: 6.00 Build 0)  -->
<!DOCTYPE svg PUBLIC "-//W3C//DTD SVG 1.1//EN" "http://www.w3.org/Graphics/SVG/1.1/DTD/svg11.dtd">
<svg version="1.1" id="Layer_1" xmlns="http://www.w3.org/2000/svg" xmlns:xlink="http://www.w3.org/1999/xlink" x="0px" y="0px"
	 width="72px" height="72px" viewBox="0 0 72 72" enable-background="new 0 0 72 72" xml:space="preserve">
<g>
	<path fill="currentColor" d="M25.622,4.561c1.202,1.833,2.235,3.408,3.267,4.983c0.233,0.355,0.414,0.763,0.707,1.058
		c0.485,0.489,1.042,0.907,1.569,1.355c0.301-0.65,0.69-1.276,0.879-1.957c0.188-0.679,0.175-1.413,0.25-2.123
		c0.148-0.017,0.296-0.034,0.444-0.051c0.437,1.32,1.026,2.613,1.266,3.968c0.215,1.222,0.97,1.723,1.938,1.758
		c0.953,0.034,1.789-0.361,2.107-1.564c0.387-1.452,1.057-2.829,1.604-4.239c0.182-0.011,0.363-0.022,0.543-0.034
		c0.291,1.27,0.582,2.54,0.885,3.862c0.932,0.262,1.393-0.009,1.867-1.038c0.9-1.956,2.13-3.761,3.629-5.554
		c-0.09,1.06-0.227,2.119-0.254,3.18c-0.038,1.431-0.049,2.867,0.041,4.293c0.059,0.933-0.057,1.639-0.938,2.184
		c-0.909,0.562-1.765,1.239-2.547,1.969c-0.341,0.318-0.442,0.893-0.651,1.351c1.939,0.651,0.621,3.354,2.561,4.085
		c0.266,0.101,0.304,0.961,0.341,1.477c0.054,0.75,0.099,1.521-0.017,2.259c-0.104,0.664-0.243,1.661-0.68,1.874
		c-1.885,0.923-1.918,2.704-1.912,4.244c0.013,2.784,0.399,5.568,0.683,8.346c0.124,1.22,0.428,2.422,0.56,3.642
		c0.58,5.375,1.08,10.76,1.729,16.125c0.126,1.041,0.677,2.078,1.216,3.01c0.595,1.031,0.51,2.539-0.54,3.092
		c-0.918,0.48-1.958,0.83-2.98,0.988c-1.959,0.306-3.941,0.551-5.92,0.602c-1.875,0.048-3.759-0.145-5.632-0.309
		c-1.432-0.123-2.89-0.229-4.272-0.584c-2.619-0.677-3.064-2.187-1.449-4.364c0.249-0.334,0.506-0.731,0.564-1.128
		c0.292-2.012,0.553-4.03,0.764-6.053c0.389-3.728,0.697-7.463,1.109-11.187c0.442-3.989,1.2-7.962,1.325-11.958
		c0.043-1.387,0.041-3.487-1.982-4.357c-0.406-0.175-0.725-0.925-0.788-1.445c-0.121-1.01-0.067-2.048-0.012-3.07
		c0.021-0.407,0.115-0.977,0.39-1.173c0.963-0.687,1.488-1.485,1.284-2.707c-0.029-0.175,0.21-0.437,0.384-0.596
		c1.283-1.172,1.314-1.856-0.276-2.565c-2.468-1.1-3.76-2.516-3.121-5.474C25.943,8.91,25.622,6.927,25.622,4.561z"/>
</g>
</svg>
