<?xml version="1.0" encoding="utf-8"?>
<!-- Generator: Adobe Illustrator 16.0.0, SVG Export Plug-In . SVG Version: 6.00 Build 0)  -->
<!DOCTYPE svg PUBLIC "-//W3C//DTD SVG 1.1//EN" "http://www.w3.org/Graphics/SVG/1.1/DTD/svg11.dtd">
<svg version="1.1" id="Layer_1" xmlns="http://www.w3.org/2000/svg" xmlns:xlink="http://www.w3.org/1999/xlink" x="0px" y="0px"
	 width="71.907px" height="71.976px" viewBox="0 0 71.907 71.976" enable-background="new 0 0 71.907 71.976" xml:space="preserve">
<g>
	<path fill="currentColor" fill-rule="evenodd" clip-rule="evenodd" d="M28.634,27.413c-0.475-0.667-1.233-1.404-1.58-2.3
		c-0.464-1.201-1.183-1.925-2.319-2.499c-3.984-2.013-5.539-5.792-6.481-9.777c-0.441-1.866-0.251-3.94-0.015-5.88
		c0.119-0.977,0.981-1.862,1.625-2.995c0.433,1.869,0.643,3.331,1.122,4.699c0.61,1.745,1.834,2.987,3.592,3.738
		c0.617,0.263,1.417,0.875,1.486,1.412c0.061,0.474-0.737,1.106-1.234,1.588c-0.368,0.356-0.861,0.582-1.335,0.889
		c1.211,0.888,2.385,0.754,3.422-0.727c0.875-1.25,1.777-1.179,2.887-0.684c3.722,1.663,7.746,2.816,10.77,5.724
		c2.609,2.508,3.705,5.914,4.784,9.241c1.041,3.211,1.771,6.522,2.755,9.753c0.799,2.624,2.079,4.963,4.205,6.841
		c1.854,1.637,1.591,3.083-0.835,3.632c-3.337,0.754-6.78,1.05-10.185,1.492c-2.02,0.263-4.063,0.36-6.073,0.675
		c-0.674,0.105-1.278,0.655-1.914,1.001c0.011,0.179,0.022,0.357,0.033,0.536c0.611,0.141,1.214,0.341,1.833,0.413
		c5.556,0.645,10.725-0.764,15.594-3.261c2.544-1.305,4.611-1.409,7.021,0.437c2.979,2.281,6.293,4.124,9.448,6.177
		c1.253,0.815,1.415,1.722,0.049,2.598c-1.34,0.858-2.649,1.786-4.065,2.501c-2.012,1.015-4.141,1.796-6.159,2.8
		c-1.998,0.994-4.015,1.572-6.238,0.987c-2.999-0.789-5.88-0.836-8.849,0.464c-1.274,0.558-3.035,0.493-4.443,0.157
		c-3.304-0.787-6.523-0.575-9.769,0.118c-2.546,0.544-4.707-0.248-6.878-1.586c-2.086-1.286-4.426-2.151-6.609-3.29
		c-1.658-0.864-3.313-1.767-4.844-2.833c-1.546-1.076-2.961-2.348-4.391-3.582c-1.364-1.179-1.356-1.917,0.228-2.615
		c2.506-1.104,5.108-1.991,7.666-2.977c1.606-0.618,3.231-1.197,4.803-1.893c1.063-0.471,1.86-1.115,2.663-2.171
		c1.283-1.686,3.227-3.127,5.656-3.293c0.297-0.021,0.691-0.051,0.864-0.238c3.599-3.926,8.381-4.017,13.167-4.109
		c0.211-0.004,0.421-0.03,0.634-0.046c-0.008-0.137,0.021-0.311-0.025-0.333c-1.823-0.884-3.645-1.772-5.484-2.622
		c-2.037-0.941-3.391-0.666-4.937,0.992c-1.124,1.206-2.215,2.442-3.496,3.563c0.091-3.131,0.755-6.09,2.099-8.823
		c1.017-2.066,2.358-3.974,3.562-5.948c0.223-0.366,0.618-0.693,0.675-1.076c0.078-0.52,0.094-1.297-0.211-1.557
		c-0.293-0.249-1.319-0.184-1.519,0.098C30.458,24.141,29.705,25.58,28.634,27.413z"/>
</g>
</svg>
