<svg xmlns="http://www.w3.org/2000/svg" xml:space="preserve" width="72px" height="72px" viewBox="0 0 72 72">
    <g fill="currentColor">
        <path d="M27.724 65.391c.204-.511.548-1.014.579-1.535.045-.737-.14-1.489-.227-2.237-.652.103-1.345.096-1.95.321-1.807.682-3.542 1.582-5.386 2.117-.706.205-1.642-.312-2.453-.563-.691-.217-1.353-.521-2.229-.87 1.104-.906 2.167-1.672 3.087-2.582.446-.438.625-1.149.924-1.739q-1.027-.449-2.055-.893c-.046-.021-.112.013-.16-.006-2.14-.744-4.292-.92-6.474.234q-.05-.224-.097-.449c.131-.193.233-.42.398-.58 1.435-1.393 2.902-2.75 4.293-4.184.162-.166.057-.93-.148-1.059-.875-.547-1.803-1.045-2.771-1.396-.944-.345-1.958-.505-2.947-.718-1.016-.218-2.039-.401-3.14-.617l2.94-5.524c.328.166.814.554 1.349.64.555.089 1.157-.114 1.739-.188-.164-.554-.159-1.377-.525-1.605-1.018-.633-2.208-.98-3.296-1.512-1.688-.819-3.347-1.696-4.974-2.813 1.56-.801 2.508-2.601 4.691-1.746.605.237 2.165-.571 2.454-1.253.401-.945.049-2.227-.069-3.355-.019-.178-.526-.466-.772-.433-1.244.165-2.468.489-3.713.611-.659.065-1.347-.166-2.022-.264.195-.583.229-1.329.62-1.713.705-.692 1.58-1.255 2.473-1.687.327-.158 1.017.084 1.356.366 1.887 1.566 2.056 1.528 3.141-.634.457-.911 1.673-1.504 1.236-2.768-.175-.505-.749-1.361-.893-1.313-1.758.586-2.593-1.675-4.662-.981 1.15-1.342 2.189-1.414 3.311-1.38.743.022 1.571.069 2.218-.217 1.184-.525 2.164-.551 3.333.107.54.303 1.531.177 2.127-.128.385-.198.422-1.072.615-1.643-.529-.117-1.055-.248-1.587-.345-.354-.065-.716-.083-1.074-.122.199-.336.354-.713.612-.996.208-.228.572-.307.812-.515.217-.188.358-.463.533-.7-.277-.203-.528-.519-.835-.589-1.442-.332-2.195-1.375-2.067-3.215.782.633 1.507 1.157 2.16 1.759 1.575 1.455 2.991 1.294 4.287-.47.231-.315.667-.561 1.054-.662.581-.151 1.361.063 1.774-.251.834-.634.811-1.569.238-2.461-.076-.118-.075-.285.094-.61.412.458.747 1.045 1.253 1.344.736.435 1.156 1.841 2.388.986.975-.677 1.152-2.299.497-3.497-.256-.468-.417-.988-.623-1.484l.365-.311c1.027.68 2.075 1.329 3.076 2.044 3.121 2.229 4.08 2.163 7.269-.058 1.091-.759 2.468-1.107 4.219-1.86-.484 1.613-.906 2.786-1.172 3.993-.133.604-.191 1.682.087 1.827.677.351 1.638.516 2.362.314.768-.213 1.393-.937 2.177-1.507.19.097.463.339.747.357.561.035 1.313.146 1.635-.153.301-.28.168-1.048.188-1.603.018-.508-.052-1.022.013-1.522.008-.063.77-.183.852-.059.276.42.565.94.563 1.419a64 64 0 0 1-.262 5.061c-.131 1.455.854 1.334 1.685 1.179 1.825-.342 3.625-.815 5.327-1.209l2.688 2.478c-.818.468-1.649.833-2.352 1.371-.777.597-1.055 1.281.21 1.739.315.114.55.434.849.614.525.315 1.094.857 1.604.813.454-.039 1.063-.67 1.229-1.165.34-1.024.826-1.548 2.103-1.313-.673 1.16-1.181 2.32-1.937 3.286-1.563 1.998-1.363 3.22.897 4.389.14.072.271.155.522.3-1.449 1.053-2.649 1.69-4.353.854-.589-.29-1.653.161-2.394.506-.332.156-.4.88-.59 1.346.424.107.869.358 1.268.298 1.921-.293 3.191.985 4.629 1.844.193.116.188.575.26.879.393 1.668.682 3.383 2.52 4.202.26.114.412.465.98 1.141-1.107 0-1.803.064-2.48-.014-1.305-.153-3.248 1.16-3.193 2.418.021.526.629 1.25 1.15 1.496 1.673.789 3.43 1.395 5.257 2.109-.683.905-1.279 1.139-2.275.443-1.434-.994-2.948-.715-3.907.755-.275.421-.113 1.334.155 1.862.527 1.039 1.147 2.092 1.97 2.897.647.638 1.652.912 2.529 1.362-.559.729-1.396.902-2.396.428-.853-.404-1.534-.332-2.321.335-1.218 1.026-1.912.729-2.981-.624-.328-.417-1.139-.454-1.728-.665.073.556-.032 1.239.256 1.644 1.379 1.938 2.896 3.776 4.271 5.719.147.208-.336 1.23-.48 1.223-1.09-.074-2.264-.104-3.225-.553-1.531-.714-2.896-1.992-4.461-.25-2.435-2.659-2.627-2.732-4.393-1.536.732.672 1.867 1.228 1.999 1.959.147.827-.604 1.813-1.002 2.823-1.294-.381-2.45-.784-3.642-1.036-.536-.114-1.139.076-1.711.128.093.527.146 1.066.289 1.581.092.331.321.623.287 1.157-.398-.28-.8-.565-1.201-.846-1.967-1.363-3.325-.965-4.319 1.217-.349.764-.793 1.479-1.101 2.043-1.621-1.332-2.962-2.977-4.693-3.725-2.16-.933-3.254 1.721-4.962 2.51a21 21 0 0 1-.393-.337m17.115-27.995c-.228-2.181-.63-4.579-.696-6.985-.123-4.46-1.188-8.67-3.229-12.583-1.104-2.114-2.264-4.362-5.375-4.258-1.79.059-2.845.876-3.816 2.188-1.297 1.753-1.213 2.057.163 3.678 1.159 1.365 2.289 2.861 2.977 4.491.866 2.052-.658 3.827-2.628 3.262-.763-.219-1.365-.971-2.07-1.434-.501-.33-1.16-.912-1.553-.784-.451.148-.896.922-.982 1.481-.634 4.08-1.31 8.171-.145 12.278.085.302.098.646.048.957-.813 5.002.302 9.595 2.872 13.902.364.61.64 1.348.706 2.049.179 1.92 2.208 3.887 4.125 4.057 3.083.271 4.446-1.908 5.592-4.057 2.99-5.606 3.492-11.809 4.011-18.242M26.666 59.032c-.128-.319-.174-.474-.249-.612-.448-.836-2.882-1.585-3.447-.84-.742.977-1.021 2.309-1.471 3.498-.028.074.161.293.292.357 1.645.815 2.417-1.05 3.758-1.271.438-.068.775-.766 1.117-1.132m33.507-9.818c-.438-1.612-1.097-2.579-2.424-2.914-.356-.09-.955-.11-1.104.091-.201.269-.146.797-.066 1.188.107.547.413 1.058.503 1.604.151.935.61 1.643 1.563 1.354.615-.187 1.072-.909 1.528-1.323m-2.26-25.852c-.94-.845-1.519-1.47-2.22-1.879-.111-.066-.786.831-1.201 1.284.581.518 1.104 1.15 1.771 1.495.244.125.841-.437 1.65-.9m11.494 11.711c-.696-.51-1.222-.816-1.648-1.226-.571-.55-1.141-1.132-1.565-1.793-.248-.383-.213-.949-.305-1.433.623.006 1.326-.17 1.853.061.851.376 1.655.942 2.34 1.58.394.367.757 1.075.675 1.55-.077.431-.775.754-1.35 1.261M6.398 20.096c.191-1.237.043-2.303.465-2.625 1.302-.997 2.822-1.71 4.257-2.534.052.408.303.991.124 1.196a31 31 0 0 1-2.866 2.86c-.476.417-1.125.637-1.98 1.103"/>
        <path d="M55.891 63.771c-1.66 1.94-3.17 2.063-4.132.418-.229-.395-.284-1.313-.065-1.459.521-.352 1.346-.652 1.886-.479.809.265 1.484.951 2.311 1.52M4.056 44.302c.729.681 1.251 1.165 1.772 1.651-.479.355-1.014 1.059-1.423.99-.795-.131-1.519-.692-2.272-1.077zM33.148 6.753 30.822 4.56c.307-.276.812-.839.89-.785.814.563 1.566 1.217 2.291 1.893.023.021-.436.557-.855 1.085m21.318 5.064q.3-1.246.603-2.491l1.349.433c-.306.79-.606 1.58-.913 2.369zm7.44 1.396v2.89L59.7 14.78zm-3.993 10.149c-.81.463-1.406 1.025-1.647.9-.67-.345-1.19-.977-1.771-1.495.415-.453 1.09-1.35 1.201-1.284.7.409 1.277 1.034 2.217 1.879"/>
    </g>
</svg>
