<svg xmlns="http://www.w3.org/2000/svg" xml:space="preserve" width="72px" height="72px" viewBox="0 0 72 72">
    <path fill="currentColor" fill-rule="evenodd" d="M28.634 27.413c-.475-.667-1.233-1.404-1.58-2.3-.464-1.201-1.183-1.925-2.319-2.499-3.984-2.013-5.539-5.792-6.481-9.777-.441-1.866-.251-3.94-.015-5.88.119-.977.981-1.862 1.625-2.995.433 1.869.643 3.331 1.122 4.699.61 1.745 1.834 2.987 3.592 3.738.617.263 1.417.875 1.486 1.412.061.474-.737 1.106-1.234 1.588-.368.356-.861.582-1.335.889 1.211.888 2.385.754 3.422-.727.875-1.25 1.777-1.179 2.887-.684 3.722 1.663 7.746 2.816 10.77 5.724 2.609 2.508 3.705 5.914 4.784 9.241 1.041 3.211 1.771 6.522 2.755 9.753.799 2.624 2.079 4.963 4.205 6.841 1.854 1.637 1.591 3.083-.835 3.632-3.337.754-6.78 1.05-10.185 1.492-2.02.263-4.063.36-6.073.675-.674.105-1.278.655-1.914 1.001l.033.536c.611.141 1.214.341 1.833.413 5.556.645 10.725-.764 15.594-3.261 2.544-1.305 4.611-1.409 7.021.437 2.979 2.281 6.293 4.124 9.448 6.177 1.253.815 1.415 1.722.049 2.598-1.34.858-2.649 1.786-4.065 2.501-2.012 1.015-4.141 1.796-6.159 2.8-1.998.994-4.015 1.572-6.238.987-2.999-.789-5.88-.836-8.849.464-1.274.558-3.035.493-4.443.157-3.304-.787-6.523-.575-9.769.118-2.546.544-4.707-.248-6.878-1.586-2.086-1.286-4.426-2.151-6.609-3.29-1.658-.864-3.313-1.767-4.844-2.833-1.546-1.076-2.961-2.348-4.391-3.582-1.364-1.179-1.356-1.917.228-2.615 2.506-1.104 5.108-1.991 7.666-2.977 1.606-.618 3.231-1.197 4.803-1.893 1.063-.471 1.86-1.115 2.663-2.171 1.283-1.686 3.227-3.127 5.656-3.293.297-.021.691-.051.864-.238 3.599-3.926 8.381-4.017 13.167-4.109.211-.004.421-.03.634-.046-.008-.137.021-.311-.025-.333-1.823-.884-3.645-1.772-5.484-2.622-2.037-.941-3.391-.666-4.937.992-1.124 1.206-2.215 2.442-3.496 3.563.091-3.131.755-6.09 2.099-8.823 1.017-2.066 2.358-3.974 3.562-5.948.223-.366.618-.693.675-1.076.078-.52.094-1.297-.211-1.557-.293-.249-1.319-.184-1.519.098-.931 1.317-1.684 2.756-2.755 4.589" clip-rule="evenodd"/>
</svg>
