<?xml version="1.0" encoding="utf-8"?>
<!-- Generator: Adobe Illustrator 16.0.0, SVG Export Plug-In . SVG Version: 6.00 Build 0)  -->
<!DOCTYPE svg PUBLIC "-//W3C//DTD SVG 1.1//EN" "http://www.w3.org/Graphics/SVG/1.1/DTD/svg11.dtd">
<svg version="1.1" id="Layer_1" xmlns="http://www.w3.org/2000/svg" xmlns:xlink="http://www.w3.org/1999/xlink" x="0px" y="0px"
	 width="72px" height="72px" viewBox="0 0 72 72" enable-background="new 0 0 72 72" xml:space="preserve">
<g>
	<path fill="currentColor" d="M34.525,44.152c-5.436-1.59-10.189-0.524-14.372,2.908c-0.171-0.145-0.308-0.205-0.31-0.27
		c-0.135-3.652-1.865-5.932-5.498-7.091c-1.102-0.353-2.275-0.479-3.383-0.816c-0.337-0.104-0.864-0.694-0.799-0.844
		c1.38-3.163-0.48-5.453-2.11-7.74c-0.918-1.288-2.103-2.386-3.488-3.926C6.029,26,7.378,25.439,8.759,25.341
		c5.066-0.36,10.044,0.353,14.965,1.548c1.021,0.248,1.417,0.74,1.625,1.83c0.52,2.711,1.092,5.519,2.951,7.653
		c1.043,1.196,2.638,1.907,3.966,2.864c0.476,0.343,1.116,0.678,1.298,1.16C33.988,41.518,34.179,42.727,34.525,44.152z"/>
	<path fill="currentColor" d="M37.535,44.18c0.406-1.619,0.705-2.961,1.105-4.271c0.084-0.275,0.516-0.549,0.836-0.633
		c3.965-1.029,5.449-4.183,6.529-7.645c0.346-1.109,0.376-2.32,0.752-3.416c0.174-0.501,0.777-1.1,1.279-1.203
		c3.131-0.643,6.271-1.364,9.443-1.648c2.494-0.223,5.045,0.088,7.563,0.286c0.795,0.063,1.561,0.526,2.16,0.742
		c-1.605,2.052-3.307,3.837-4.523,5.907c-0.916,1.558-1.969,3.333-0.889,5.389c0.491,0.933-0.184,1.145-1.023,1.248
		c-3.067,0.379-5.791,1.575-7.604,4.142c-0.736,1.044-0.91,2.485-1.385,3.877C47.771,43.711,43.055,42.516,37.535,44.18z"/>
</g>
</svg>
