<?xml version="1.0" encoding="utf-8"?>
<!-- Generator: Adobe Illustrator 16.0.0, SVG Export Plug-In . SVG Version: 6.00 Build 0)  -->
<!DOCTYPE svg PUBLIC "-//W3C//DTD SVG 1.1//EN" "http://www.w3.org/Graphics/SVG/1.1/DTD/svg11.dtd">
<svg version="1.1" id="Layer_1" xmlns="http://www.w3.org/2000/svg" xmlns:xlink="http://www.w3.org/1999/xlink" x="0px" y="0px"
	 width="72px" height="72px" viewBox="0 0 72 72" enable-background="new 0 0 72 72" xml:space="preserve">
<g>
	<path fill="currentColor" d="M45.857,69.673c-1.431,0-2.494,0-3.727,0c0.547-1.344,1.867-2.209,0.194-3.416c-0.563-0.405-0.429-1.784-0.579-2.551
		c-0.954-0.062-1.944-0.038-2.881-0.252c-0.189-0.044-0.23-0.979-0.227-1.504c0.002-0.181,0.551-0.433,0.516-0.522
		c-0.854-2.224,2.236-3.705,1.123-5.984c-0.088-0.183,0.174-0.614,0.371-0.844c1.369-1.58,1.16-3.328,0.605-5.131
		c1.395-0.994,1.605-2.246,1.352-3.961c-0.321-2.171-0.362-4.41-0.119-6.639c0.152-1.387,0.029-2.803,0.029-4.335
		c-0.34-0.137-0.832-0.335-0.875-0.352c0.155-1.721,0.481-3.164,0.354-4.566c-0.111-1.21,0.278-2.651-1.3-3.58
		c-0.473-0.277-0.225-1.952-0.131-2.971c0.113-1.234-0.18-2.084-1.436-2.25c0.387-2.1,0.528-3.984-0.98-5.717
		c-0.494-0.567-0.475-1.581-0.689-2.391c-0.15-0.055-0.301-0.111-0.451-0.166c-0.797,2.236-1.594,4.472-2.433,6.824
		c-0.155-0.478-0.292-0.9-0.538-1.653c-0.948,2.498,0.896,5.401-1.842,7.152c-0.025,0.833,1.141,2.292-1.072,2.566
		c0.458,0.085,0.917,0.17,1.758,0.327c-0.257,0.396-0.412,0.902-0.745,1.09c-0.75,0.423-0.929,0.858-0.323,1.497
		c0.668,0.704,0.79,1.333,0.151,2.206c-0.653,0.893-0.128,3.51,0.678,4.2c-0.759,0.514-2.088,0.596-1.394,2.152
		c0.137,0.309-0.516,0.968-0.798,1.453c1.784,1.494,2.008,2.765,0.951,4.806c-0.436-0.077-0.951-0.328-1.213-0.167
		c-0.241,0.148-0.21,0.738,0.049,1.324c0.317-0.209,0.635-0.42,0.998-0.658c0.45,0.479,0.843,0.896,1.465,1.559
		c-0.843,0.262-1.452,0.449-2.302,0.713c0.22,0.283,0.37,0.682,0.636,0.786c1.203,0.478,1.467,1.347,1.435,2.558
		c-0.023,0.869,0.392,1.742,0.455,2.623c0.054,0.744,0.848,1.565-0.126,2.291c-0.055,0.041,0.251,0.565,0.39,0.865
		c0.203-0.052,0.406-0.104,0.609-0.154c-0.078,0.809-0.156,1.617-0.254,2.625c2.444,0.324,1.287,3.834,3.518,4.941
		c-0.348,0.436-0.64,0.805-1.276,1.605c1.075,0.048,1.847,0.078,2.616,0.117c0.261,0.013,0.526,0.016,0.775,0.076
		c0.199,0.051,0.371,0.245,0.567,0.268c0.674,0.076,1.932,0.052,1.94,0.158c0.104,1.16,0.014,2.34-0.023,3.513
		c-0.004,0.138,0,0.274,0,0.5c-1.977,0-3.928-0.036-5.876,0.019c-0.796,0.021-1.66,0.563-2.177-0.524
		c-0.03-0.063-0.243-0.122-0.268-0.095c-1.541,1.739-2.839-0.041-4.24-0.283c-0.103-0.018-0.209-0.051-0.311-0.043
		c-1.707,0.149-1.707,0.15-2.117-1.559c-0.448,0.4-0.797,0.713-1.008,0.901c-0.877-0.267-1.695-0.513-2.513-0.761
		c-0.101,0.14-0.202,0.279-0.302,0.418c-0.214-0.615-0.429-1.23-0.495-1.42c-2.179-0.936-4.106-1.734-6.002-2.604
		c-0.288-0.132-0.417-0.591-0.642-0.88c-0.431-0.554-0.793-1.21-1.338-1.615c-0.865-0.644-1.857-1.116-2.755-1.638
		c-0.127-0.362-0.217-1.227-0.486-1.285c-1.549-0.343-1.936-1.682-2.647-2.755c-0.516-0.776-1.045-1.544-1.725-2.547
		c0.393-0.608,0.23-1.188-0.559-2.255c-1.509-2.038-3.464-4.082-3.267-6.991c0.019-0.269,0.196-0.524,0.129-0.356
		c-0.317-1.209-0.68-2.105-0.764-3.029c-0.118-1.293-0.06-2.606-0.023-3.91c0.09-3.172,0.117-6.352,0.368-9.513
		c0.099-1.246,0.7-2.459,1.125-3.668c0.291-0.83,0.671-1.627,1.052-2.536c0.305-0.026,0.724-0.063,0.992-0.086
		c1.123-2.446,2.201-4.793,3.317-7.224c1.557,0.75,2.04,0.24,1.917-1.18c-0.059-0.677,1.812-2.593,2.496-2.564
		c1.08,0.045,1.54-0.281,1.01-1.367c1.38-0.809,3.435-0.117,4.17-2.108c0.042-0.115,0.996,0.108,1.375,0.155
		c-0.365,0.697-0.649,1.284-0.975,1.847c-0.208,0.358-0.404,0.83-0.733,0.99c-0.935,0.457-1.954,0.738-2.897,1.18
		c-0.313,0.147-0.539,0.549-0.729,0.878c-0.298,0.52-0.533,1.076-0.794,1.616c-0.193-0.438-0.38-0.88-0.586-1.313
		c-0.041-0.085-0.161-0.132-0.24-0.194c-0.964,1.531,0.062,4.248-2.375,4.562C9.808,18.391,9.033,19.54,8,21.07
		c0.858-0.097,1.236-0.207,1.598-0.168c1.113,0.122,1.698,1.495,1.411,3.146c-0.146,0.836-0.109,1.729-0.394,2.508
		c-0.15,0.411-0.814,0.634-1.428,1.071c0.769,0.373,1.604,0.777,2.501,1.213c-1.136,1.182-2.051,0.222-2.699-0.161
		c-0.281,1.145-0.564,2.294-0.732,2.979c0,1.829-0.015,3.259,0.01,4.688c0.007,0.378,0.027,0.835,0.232,1.117
		c0.654,0.895,1.445,1.691,2.058,2.611c0.1,0.148-0.436,0.722-0.886,1.425c1.008-0.156,2.066-0.126,2.892-0.55
		c0.299-0.153,0.352-1.659-0.018-2.09c-1.617-1.887-0.612-4.034-0.837-6.042c-0.149-1.331,0.205-2.514,1.424-3.356
		c0.44-0.304,0.31-2.805,0.577-3.559c0.498-1.406,0.358-2.746,0.244-4.126c-0.042-0.509-0.204-1.008-0.264-1.517
		c-0.136-1.16-0.388-2.338-0.268-3.474c0.034-0.321,1.192-0.523,1.835-0.78c0.107,0.158,0.214,0.315,0.321,0.473
		c-0.489,0.573-0.979,1.146-1.576,1.844c1.428,1.979,3.393-0.214,4.921,0.537c-0.243-2.094-0.469-4.033-0.715-6.154
		c2.104-0.207,1.972,2.159,3.428,2.981c0.149-1.16,0.276-2.179,0.413-3.196c0.162-1.204,0.699-1.954,2.072-1.798
		c0.804,0.091,1.43,0.008,1.542-1.109c0.143-1.43,1.263-0.687,1.934-0.563c0.527,0.097,0.983,0.583,1.355,0.821
		c-0.499,0.798-0.991,1.598-1.5,2.387c-0.115,0.178-0.265,0.359-0.442,0.468c-0.445,0.27-1.34,0.59-1.31,0.731
		c0.303,1.412,0.621,2.854,1.222,4.155c0.328,0.71,1.724,0.237,1.931-0.636c0.278-1.176,0.668-2.217,1.937-2.698
		c0.292-0.111,0.476-0.513,0.703-0.786c0.968-1.16,0.002-2.702,0.787-3.986c0.203-0.332-0.666-1.317-1.072-2.056
		c0.503-1.199,1.042-2.485,1.633-3.893c0.725,1.009,1.361,1.896,2.06,2.869c-0.357,0.293-0.773,0.634-1.486,1.218
		c0.861,0,1.375,0,1.875,0c0.146,2.804,0.597,3.857,2.064,4.425c-0.28-1.354-0.533-2.571-0.873-4.199
		c1.022,0.699,1.619,1.202,2.298,1.535c0.343,0.167,0.834,0.027,1.259,0.026C39.871,9.014,39.745,8.6,39.52,8.249
		c-0.136-0.213-0.424-0.329-0.769-0.577c1.938-1.637-0.829-2.541-0.396-3.798c0.883,0.174,1.764,0.347,2.287,0.45
		c0.692,0.93,1.541,1.603,1.732,2.428c0.346,1.49,0.738,3.214,0.301,4.579c-0.564,1.757,0.865,2.415,1.256,3.592
		c0.217,0.656,1.008,1.166,1.629,1.621c0.215,0.159,0.84,0.082,1.02-0.118c0.184-0.205,0.204-0.854,0.023-1.03
		c-0.82-0.799-1.011-1.477-0.67-2.718c0.27-0.984-0.521-2.251-0.804-3.401c-0.06-0.241-0.026-0.723,0.065-0.75
		c0.845-0.253,1.712-0.43,2.758-0.536c-1.467,1.542-1.044,2.508,0.398,3.678c0.887,0.72,2.359,1.785,1.035,3.459
		c-0.158,0.2,0.029,0.897,0.274,1.155c1.034,1.081,0.606,1.911-0.45,2.77c1.6,1.238-0.133,2.204-0.299,3.278
		c1.459,0.965,2.361,0.627,3.037-0.842c0.173-0.378,0.883-0.6,1.387-0.714c0.725-0.165,1.871,0.228,1.193-1.261
		c-0.084-0.185,0.066-0.511,0.173-0.741c0.694-1.507,0.556-1.734-1.052-1.725c-0.715-2.294-0.58-4.442,1.326-6.776
		c0.209,0.883,0.393,1.369,0.43,1.866c0.064,0.863-0.195,1.824,0.097,2.583c0.831,2.166,1.871,4.251,2.88,6.479
		c-0.729,0.372-1.467,0.747-2.175,1.107c1.536,0.776,2.964-0.379,3.29-2.71c2.152-0.267,2.52-0.036,2.42,1.975
		c-0.082,1.675-0.451,3.336-0.564,5.012c-0.035,0.511,0.354,1.051,0.551,1.584c0.652-0.714,1.117-1.665,1.752-1.797
		c0.68-0.141,1.52,0.488,2.563,0.885c-0.316-1.03,0.697-2.426-0.759-2.675c-0.431-1.25-0.742-2.225-1.101-3.183
		c-0.463-1.245-0.866-2.525-1.473-3.7c-0.51-0.989-1.113-2.046-1.961-2.71c-0.898-0.704-1.777-1.25-2.373-2.332
		c-0.506-0.921-1.527-1.558-2.312-2.33c-0.065-0.063-0.062-0.196-0.134-0.45c0.353-0.041,0.83-0.24,0.99-0.092
		c1.496,1.372,2.938,2.801,4.395,4.216c0.607,0.591,1.279,1.133,1.8,1.794c0.495,0.63,0.786,1.417,1.253,2.075
		c0.234,0.331,0.689,0.497,0.99,0.793c0.242,0.24,0.623,0.622,0.564,0.842c-0.426,1.631,0.48,2.63,1.541,3.604
		c0.746,0.687,1.674,1.353,0.43,2.443c-0.186,0.162-0.156,0.926-0.109,0.938c1.41,0.349,1.296,1.502,1.469,2.557
		c0.079,0.483,0.438,0.919,0.228,1.318c-0.294,0.885-0.726,1.758-0.804,2.662c-0.025,0.296,0.867,0.671,1.516,1.134
		c-0.021,0.305-2.686,0.899,0.204,1.375c-0.494,0.531-0.839,0.901-1.229,1.32c0.688,1.136-0.507,3.17,2.221,3.826
		c-1.844,0.516-2.604,1.086-1.922,2.551c0.092,0.194,0.607,1.533-0.688,1.576c0.203,0.543,0.405,1.088,0.683,1.825
		c-0.568-0.065-1.164-0.133-2.061-0.235c1.135,1.338,0.372,2.273,0.018,3.433c-0.521,1.7-1.396,3.035-2.512,4.313
		c-0.154,0.176-0.168,0.486-0.214,0.741c-0.128,0.712-0.126,1.16-1.165,1.53c-0.857,0.305-1.21,2.077-1.741,3.221
		c-0.125,0.271-0.071,0.622-0.103,0.947c-1.939-0.484-2.074-0.393-2.258,1.575c-0.472,0.065-0.97,0.138-1.629,0.231
		c0.254,0.439,0.443,0.769,0.771,1.334c-0.578,0-1.186,0.135-1.276-0.025c-0.258-0.452-0.305-1.024-0.483-1.754
		c-2.608,0.029-0.844,2.832-2.068,3.854c-0.324-0.374-0.658-0.759-1.145-1.319c-0.155,0.647-0.264,1.094-0.389,1.613
		c-0.641,0.041-1.332,0.084-2.206,0.141c0.273,0.358,0.464,0.609,0.903,1.188c-1.592,0.42-3.021,0.99-4.48,1.089
		c-0.584,0.039-1.266-0.934-1.834-1.514c-0.097-0.099,0.077-0.695,0.258-0.78c0.317-0.148,0.738-0.091,1.115-0.1
		c0.455-0.012,1.266,0.119,1.314-0.024c0.622-1.778,2.257-1.624,3.788-2.005c0-1.133,0-2.262,0-3.39
		c-0.209-0.044-0.418-0.087-0.628-0.13c-0.246,0.664-0.493,1.326-0.844,2.267c0.041-0.003-0.347,0.024-0.381,0.026
		c-0.218-1.313-0.41-2.481-0.578-3.502c0.358-0.514,0.764-0.969,0.981-1.5c0.047-0.112-0.579-0.504-0.862-0.739
		c1.887-1.149,1.91-1.444,0.065-5.165c-0.111,0.718-0.353,1.277-0.195,1.43c0.841,0.813,0.537,1.199-0.278,1.84
		c-0.799,0.625-1.328,1.594-2.008,2.452c0.711,0.513,1.248,0.898,1.784,1.284c-0.024,0.143-0.05,0.284-0.075,0.426
		c-1.113-0.213-2.226-0.426-3.597-0.688c0.308-1.122,0.688-2.37,0.987-3.639c0.308-1.307,0.431-2.664,0.834-3.937
		c0.271-0.851,0.572-1.608,0.619-2.562c0.086-1.742,0.642-3.455,0.855-5.197c0.094-0.745-0.176-1.535-0.307-2.5
		c0.668-0.336,0.908-0.993,0.4-2.032c-0.141-0.285,0.461-0.933,0.75-1.468c-0.217-0.025-0.781-0.094-1.312-0.155
		c0.155-1.359,0.327-2.652,0.437-3.951c0.027-0.338-0.027-0.819-0.242-1.02c-1.086-1.011-0.729-2.372-0.983-3.582
		c-0.17-0.804-0.431-1.588-0.619-2.389c-0.233-0.996-1.583-1.697-0.767-3.021c0.082-0.131-0.641-0.757-0.988-1.153
		c-0.165,0.041-0.33,0.083-0.496,0.124c0.209,1.269,0.068,2.756,0.698,3.76c1.315,2.094,0.53,4.349,0.646,6.432
		c0.068,1.217-0.291,1.934,1.045,2.384c0.064,0.022,0.075,0.628-0.074,0.795c-1.022,1.136-1.047,1.931-0.014,3.058
		c0.413,0.451,0.57,4.303,0.021,4.818c-1.35,1.264-0.662,2.944-0.963,4.391c-0.284,1.361,0.263,2.873-0.895,4.107
		c-0.173,0.186,0.133,0.816,0.241,1.371c-0.369,0.934-1.065,2.014-1.173,3.148c-0.105,1.127-0.229,1.981-1.295,2.557
		c-0.133,0.07-0.092,0.863,0.117,1.064c0.281,0.271,1.107,0.498,1.177,0.396c1.362-2.045,2.356,0.043,3.515,0.34
		c-0.525,0.104-1.052,0.206-1.727,0.339c0.572,1.327,0.246,2.202-1.086,2.605c-0.221,0.066-0.582,0.371-0.553,0.455
		c0.447,1.309-1.342,3.096,0.871,4.062C45.63,68.423,45.661,69.104,45.857,69.673z M26.037,67.057
		c0.866-0.117,1.585-0.354,2.269-0.273c1.135,0.131,2.248,0.465,3.37,0.713c0.038-0.156,0.077-0.313,0.115-0.471
		c-1.215-0.406-2.579-0.668-2.556-2.11c1.391,0,2.673,0.022,3.954-0.013c0.385-0.012,0.766-0.18,1.149-0.275
		c-0.292-0.244-0.549-0.559-0.881-0.718c-0.646-0.31-1.334-0.533-2.116-0.835c0.328-0.473,0.562-0.809,0.629-0.905
		c-0.331-0.94-0.602-1.651-0.826-2.375c-0.108-0.349-0.063-0.752-0.198-1.084c-0.674-1.655-1.237-3.384-2.125-4.921
		c-0.923-1.598,0.331-4.313-2.83-4.684c0.873-0.586,1.418-0.951,1.93-1.295c-0.484-0.645-1.174-1.139-1.193-1.656
		c-0.125-3.432-0.138-6.867-0.109-10.302c0.007-0.824,0.349-1.64,0.461-2.47c0.192-1.424,0.398-2.854,0.418-4.285
		c0.004-0.281-0.778-0.7-1.255-0.816c-0.326-0.079-0.752,0.259-1.075,0.387c0.373,0.514,0.761,1.049,0.965,1.33
		c-0.741,0.543-1.268,0.93-1.795,1.317c0.449,0.585,0.898,1.171,1.211,1.58c-0.482,0.505-1.169,0.899-1.16,1.275
		c0.03,1.207,0.419,2.403,0.477,3.612c0.061,1.272-0.1,2.558-0.18,4.145c0.095,0.233,0.706,0.997,0.525,1.433
		c-0.431,1.033-1.055,1.861,0.535,2.389c0.124,0.04,0.173,0.482,0.158,0.732c-0.071,1.224-0.196,2.443-0.247,3.668
		c-0.009,0.215,0.259,0.433,0.375,0.662c0.346,0.687,0.814,1.347,0.993,2.074c0.417,1.701,0.62,3.455,1.052,5.151
		c0.283,1.108,0.815,2.153,1.26,3.291c-0.008,0.001-0.458,0.2-0.73,0.059c-0.62-0.323-1.117-0.88-1.735-1.208
		c-0.31-0.164-0.774-0.037-1.168-0.043c0.162,0.413,0.217,0.963,0.518,1.198c0.273,0.213,0.814,0.084,1.493,0.119
		c-0.245,0.422-0.5,1.05-0.612,1.024c-0.609-0.135-1.183-0.43-2.199-0.846c0,1.139,0,2.104,0,3.088
		c-0.587-0.336-1.102-0.63-1.617-0.924c-0.132,0.089-0.263,0.18-0.395,0.27c0.204,0.893,0.408,1.785,0.612,2.677
		C24.423,67.068,25.722,65.664,26.037,67.057z M58.313,38.406c1.168,1.623,2.254,1.875,3.938,1.184
		c0.89-0.365,1.845-0.572,2.985-0.916c-0.1,0.66-0.051,0.992-0.192,1.159c-0.603,0.701-1.465,1.194-0.981,2.448
		c0.07,0.187-0.193,2.283-1.979,1.888c-0.505-0.112-1.559,0.383-1.686,0.804c-0.307,1.01-0.42,2.192,0.793,3.326
		c0-1.003,0-1.652,0-2.859c0.875,0.543,1.479,0.918,2.195,1.361c0.434-1.865,3.324-2.127,3.233-4.598
		c1.749-0.844,0.276-1.553-0.196-2.346c1.189-1.24,1.268-2.681,1.159-4.324c-0.11-1.686-0.632-3.354-0.356-5.073
		c0.022-0.144-0.365-0.354-0.834-0.778C66.074,34.867,63.268,37.605,58.313,38.406z M17.224,61.404
		c0.276-0.137,0.552-0.271,0.828-0.407c-0.167-0.591-0.308-1.19-0.507-1.771c-0.438-1.275-0.979-2.521-1.344-3.817
		c-0.406-1.445-0.662-2.935-1.074-4.813c-0.932,0.883-1.59,1.506-2.375,2.25c-0.026-0.402-0.108-1-0.094-1.594
		c0.022-0.979-1.226-3.07-2.174-3.195c-0.505-0.068-1.555,0.457-1.555,0.715c0,1.137,0.163,2.316,0.524,3.396
		c0.246,0.737,0.942,1.317,1.39,1.999c0.809,1.229,1.583,2.48,2.514,3.949c0.384-0.115,0.925-0.277,1.486-0.446
		C15.521,58.73,16.372,60.068,17.224,61.404z M58.225,53.154c0,1.726,0,3.533,0,5.441c0.27,0,0.653,0,1.082,0
		c0.032-0.621,0.061-1.146,0.064-1.236c1.033-0.732,2.061-1.111,2.455-1.836c0.441-0.807,0.316-1.924,0.412-2.91
		c0.011-0.116-0.12-0.321-0.231-0.362c-1.026-0.38-2.09-0.676-3.089-1.115c-0.555-0.243-1.093-0.644-1.486-1.104
		c-0.472-0.552-0.781-1.243-1.162-1.873c-0.246,0.094-0.494,0.188-0.74,0.282c0.115,0.719,0.232,1.437,0.396,2.445
		c-0.024,0.023-0.401,0.357-0.901,0.803C56.131,52.197,57.123,52.65,58.225,53.154z M14.141,31.649
		c-0.15,0.004-0.301,0.009-0.452,0.013c0.212,3.351,2.469,5.395,4.689,7.545c0.96-2.077,0.525-3.187-1.102-3.062
		c-0.277-3.445-0.841-4.434-1.987-5.374c0-0.702,0-1.389,0-2.194C14.856,29.734,14.499,30.692,14.141,31.649z M19.901,22.481
		c-0.546-0.408-0.955-0.825-1.451-1.029c-0.196-0.08-0.838,0.3-0.848,0.493c-0.074,1.423-0.04,2.853-0.04,4.261
		c0.957,0,1.703,0,2.99,0c-0.765-1.113-1.327-1.931-1.925-2.801C18.908,23.203,19.282,22.931,19.901,22.481z M18.252,46.366
		c-0.397-1.245-0.694-2.291-1.08-3.304c-0.094-0.246-0.544-0.584-0.718-0.527c-0.335,0.107-0.747,0.416-0.846,0.73
		C15.372,44.016,17.065,46.102,18.252,46.366z M28.42,27.499c0.554-1.363-2.55-1.827-0.137-3.535
		c-0.957,0.252-1.775,0.291-1.827,0.511c-0.226,0.959-0.229,1.971-0.318,3.024C26.818,27.499,27.606,27.499,28.42,27.499z
		 M23.569,22.401c-0.169,0.134-0.339,0.268-0.508,0.402c0.449,0.718,0.899,1.437,1.349,2.155c0.402-0.41,1.14-0.814,1.146-1.229
		C25.572,22.409,24.491,22.449,23.569,22.401z M46.58,18.921c0.093-0.183,0.186-0.365,0.277-0.548
		c-0.736-0.51-1.447-1.068-2.229-1.501c-0.26-0.145-0.697,0.031-1.055,0.061c0.082,0.412,0.049,1.096,0.266,1.187
		C44.712,18.487,45.66,18.67,46.58,18.921z M50.881,49.742c-0.538,2.052-0.013,3.513,1.279,3.861
		c-0.096-0.614-0.465-1.375-0.232-1.828C52.561,50.535,52.128,50.038,50.881,49.742z M7.683,25.612
		c0.292-0.048,0.633-0.105,0.975-0.162c-0.402-1.31,1.315-2.766-0.628-4.335C7.905,22.742,7.802,24.069,7.683,25.612z
		 M20.938,33.025c-0.118,3.033,0.175,3.571,1.932,3.358C22.244,35.296,21.659,34.278,20.938,33.025z M44.186,61.135
		c-1.115,0-1.955,0-2.795,0c-0.056,0.182-0.111,0.361-0.166,0.543c0.776,0.309,1.555,0.616,2.535,1.006
		C43.913,62.124,44.042,61.654,44.186,61.135z M7.222,50.32c0.108-0.062,0.217-0.123,0.326-0.187
		c0.191-0.896,0.382-1.792,0.636-2.977c-0.767,0.403-1.212,0.64-1.753,0.925C6.718,48.896,6.97,49.607,7.222,50.32z"/>
	<path fill="currentColor" d="M26.251,5.729c1.118,0.788,2.236,1.577,3.354,2.364c-0.036,0.132-0.072,0.263-0.108,0.394
		c-0.82-0.056-1.827,0.157-2.409-0.245c-0.586-0.405-0.75-1.421-1.099-2.17C26.076,5.958,26.164,5.844,26.251,5.729z"/>
</g>
</svg>
