<svg xmlns="http://www.w3.org/2000/svg" xml:space="preserve" width="72px" height="72px" viewBox="0 0 72 72">
    <g fill="currentColor">
        <path d="M45.857 69.673H42.13c.547-1.344 1.867-2.209.194-3.416-.563-.405-.429-1.784-.579-2.551-.954-.062-1.944-.038-2.881-.252-.189-.044-.23-.979-.227-1.504.002-.181.551-.433.516-.522-.854-2.224 2.236-3.705 1.123-5.984-.088-.183.174-.614.371-.844 1.369-1.58 1.16-3.328.605-5.131 1.395-.994 1.605-2.246 1.352-3.961a26 26 0 0 1-.119-6.639c.152-1.387.029-2.803.029-4.335l-.875-.352c.155-1.721.481-3.164.354-4.566-.111-1.21.278-2.651-1.3-3.58-.473-.277-.225-1.952-.131-2.971.113-1.234-.18-2.084-1.436-2.25.387-2.1.528-3.984-.98-5.717-.494-.567-.475-1.581-.689-2.391l-.451-.166-2.433 6.824-.538-1.653c-.948 2.498.896 5.401-1.842 7.152-.025.833 1.141 2.292-1.072 2.566l1.758.327c-.257.396-.412.902-.745 1.09-.75.423-.929.858-.323 1.497.668.704.79 1.333.151 2.206-.653.893-.128 3.51.678 4.2-.759.514-2.088.596-1.394 2.152.137.309-.516.968-.798 1.453 1.784 1.494 2.008 2.765.951 4.806-.436-.077-.951-.328-1.213-.167-.241.148-.21.738.049 1.324.317-.209.635-.42.998-.658l1.465 1.559-2.302.713c.22.283.37.682.636.786 1.203.478 1.467 1.347 1.435 2.558-.023.869.392 1.742.455 2.623.054.744.848 1.565-.126 2.291-.055.041.251.565.39.865l.609-.154-.254 2.625c2.444.324 1.287 3.834 3.518 4.941-.348.436-.64.805-1.276 1.605 1.075.048 1.847.078 2.616.117.261.013.526.016.775.076.199.051.371.245.567.268.674.076 1.932.052 1.94.158.104 1.16.014 2.34-.023 3.513-.004.138 0 .274 0 .5-1.977 0-3.928-.036-5.876.019-.796.021-1.66.563-2.177-.524-.03-.063-.243-.122-.268-.095-1.541 1.739-2.839-.041-4.24-.283-.103-.018-.209-.051-.311-.043-1.707.149-1.707.15-2.117-1.559l-1.008.901c-.877-.267-1.695-.513-2.513-.761l-.302.418-.495-1.42c-2.179-.936-4.106-1.734-6.002-2.604-.288-.132-.417-.591-.642-.88-.431-.554-.793-1.21-1.338-1.615-.865-.644-1.857-1.116-2.755-1.638-.127-.362-.217-1.227-.486-1.285-1.549-.343-1.936-1.682-2.647-2.755-.516-.776-1.045-1.544-1.725-2.547.393-.608.23-1.188-.559-2.255-1.509-2.038-3.464-4.082-3.267-6.991.019-.269.196-.524.129-.356-.317-1.209-.68-2.105-.764-3.029-.118-1.293-.06-2.606-.023-3.91.09-3.172.117-6.352.368-9.513.099-1.246.7-2.459 1.125-3.668.291-.83.671-1.627 1.052-2.536l.992-.086 3.317-7.224c1.557.75 2.04.24 1.917-1.18-.059-.677 1.812-2.593 2.496-2.564 1.08.045 1.54-.281 1.01-1.367 1.38-.809 3.435-.117 4.17-2.108.042-.115.996.108 1.375.155-.365.697-.649 1.284-.975 1.847-.208.358-.404.83-.733.99-.935.457-1.954.738-2.897 1.18-.313.147-.539.549-.729.878-.298.52-.533 1.076-.794 1.616-.193-.438-.38-.88-.586-1.313-.041-.085-.161-.132-.24-.194-.964 1.531.062 4.248-2.375 4.562C9.808 18.391 9.033 19.54 8 21.07c.858-.097 1.236-.207 1.598-.168 1.113.122 1.698 1.495 1.411 3.146-.146.836-.109 1.729-.394 2.508-.15.411-.814.634-1.428 1.071l2.501 1.213c-1.136 1.182-2.051.222-2.699-.161l-.732 2.979c0 1.829-.015 3.259.01 4.688.007.378.027.835.232 1.117.654.895 1.445 1.691 2.058 2.611.1.148-.436.722-.886 1.425 1.008-.156 2.066-.126 2.892-.55.299-.153.352-1.659-.018-2.09-1.617-1.887-.612-4.034-.837-6.042-.149-1.331.205-2.514 1.424-3.356.44-.304.31-2.805.577-3.559.498-1.406.358-2.746.244-4.126-.042-.509-.204-1.008-.264-1.517-.136-1.16-.388-2.338-.268-3.474.034-.321 1.192-.523 1.835-.78l.321.473-1.576 1.844c1.428 1.979 3.393-.214 4.921.537l-.715-6.154c2.104-.207 1.972 2.159 3.428 2.981.149-1.16.276-2.179.413-3.196.162-1.204.699-1.954 2.072-1.798.804.091 1.43.008 1.542-1.109.143-1.43 1.263-.687 1.934-.563.527.097.983.583 1.355.821-.499.798-.991 1.598-1.5 2.387-.115.178-.265.359-.442.468-.445.27-1.34.59-1.31.731.303 1.412.621 2.854 1.222 4.155.328.71 1.724.237 1.931-.636.278-1.176.668-2.217 1.937-2.698.292-.111.476-.513.703-.786.968-1.16.002-2.702.787-3.986.203-.332-.666-1.317-1.072-2.056l1.633-3.893 2.06 2.869-1.486 1.218h1.875c.146 2.804.597 3.857 2.064 4.425-.28-1.354-.533-2.571-.873-4.199 1.022.699 1.619 1.202 2.298 1.535.343.167.834.027 1.259.026-.166-.387-.292-.801-.517-1.152-.136-.213-.424-.329-.769-.577 1.938-1.637-.829-2.541-.396-3.798l2.287.45c.692.93 1.541 1.603 1.732 2.428.346 1.49.738 3.214.301 4.579-.564 1.757.865 2.415 1.256 3.592.217.656 1.008 1.166 1.629 1.621.215.159.84.082 1.02-.118.184-.205.204-.854.023-1.03-.82-.799-1.011-1.477-.67-2.718.27-.984-.521-2.251-.804-3.401-.06-.241-.026-.723.065-.75.845-.253 1.712-.43 2.758-.536-1.467 1.542-1.044 2.508.398 3.678.887.72 2.359 1.785 1.035 3.459-.158.2.029.897.274 1.155 1.034 1.081.606 1.911-.45 2.77 1.6 1.238-.133 2.204-.299 3.278 1.459.965 2.361.627 3.037-.842.173-.378.883-.6 1.387-.714.725-.165 1.871.228 1.193-1.261-.084-.185.066-.511.173-.741.694-1.507.556-1.734-1.052-1.725-.715-2.294-.58-4.442 1.326-6.776.209.883.393 1.369.43 1.866.064.863-.195 1.824.097 2.583.831 2.166 1.871 4.251 2.88 6.479l-2.175 1.107c1.536.776 2.964-.379 3.29-2.71 2.152-.267 2.52-.036 2.42 1.975-.082 1.675-.451 3.336-.564 5.012-.035.511.354 1.051.551 1.584.652-.714 1.117-1.665 1.752-1.797.68-.141 1.52.488 2.563.885-.316-1.03.697-2.426-.759-2.675-.431-1.25-.742-2.225-1.101-3.183-.463-1.245-.866-2.525-1.473-3.7-.51-.989-1.113-2.046-1.961-2.71-.898-.704-1.777-1.25-2.373-2.332-.506-.921-1.527-1.558-2.312-2.33-.065-.063-.062-.196-.134-.45.353-.041.83-.24.99-.092 1.496 1.372 2.938 2.801 4.395 4.216.607.591 1.279 1.133 1.8 1.794.495.63.786 1.417 1.253 2.075.234.331.689.497.99.793.242.24.623.622.564.842-.426 1.631.48 2.63 1.541 3.604.746.687 1.674 1.353.43 2.443-.186.162-.156.926-.109.938 1.41.349 1.296 1.502 1.469 2.557.079.483.438.919.228 1.318-.294.885-.726 1.758-.804 2.662-.025.296.867.671 1.516 1.134-.021.305-2.686.899.204 1.375l-1.229 1.32c.688 1.136-.507 3.17 2.221 3.826-1.844.516-2.604 1.086-1.922 2.551.092.194.607 1.533-.688 1.576.203.543.405 1.088.683 1.825l-2.061-.235c1.135 1.338.372 2.273.018 3.433-.521 1.7-1.396 3.035-2.512 4.313-.154.176-.168.486-.214.741-.128.712-.126 1.16-1.165 1.53-.857.305-1.21 2.077-1.741 3.221-.125.271-.071.622-.103.947-1.939-.484-2.074-.393-2.258 1.575-.472.065-.97.138-1.629.231.254.439.443.769.771 1.334-.578 0-1.186.135-1.276-.025-.258-.452-.305-1.024-.483-1.754-2.608.029-.844 2.832-2.068 3.854l-1.145-1.319c-.155.647-.264 1.094-.389 1.613-.641.041-1.332.084-2.206.141l.903 1.188c-1.592.42-3.021.99-4.48 1.089-.584.039-1.266-.934-1.834-1.514-.097-.099.077-.695.258-.78.317-.148.738-.091 1.115-.1.455-.012 1.266.119 1.314-.024.622-1.778 2.257-1.624 3.788-2.005v-3.39l-.628-.13c-.246.664-.493 1.326-.844 2.267l-.381.026q-.327-1.97-.578-3.502c.358-.514.764-.969.981-1.5.047-.112-.579-.504-.862-.739 1.887-1.149 1.91-1.444.065-5.165-.111.718-.353 1.277-.195 1.43.841.813.537 1.199-.278 1.84-.799.625-1.328 1.594-2.008 2.452.711.513 1.248.898 1.784 1.284l-.075.426-3.597-.688c.308-1.122.688-2.37.987-3.639.308-1.307.431-2.664.834-3.937.271-.851.572-1.608.619-2.562.086-1.742.642-3.455.855-5.197.094-.745-.176-1.535-.307-2.5.668-.336.908-.993.4-2.032-.141-.285.461-.933.75-1.468-.217-.025-.781-.094-1.312-.155.155-1.359.327-2.652.437-3.951.027-.338-.027-.819-.242-1.02-1.086-1.011-.729-2.372-.983-3.582-.17-.804-.431-1.588-.619-2.389-.233-.996-1.583-1.697-.767-3.021.082-.131-.641-.757-.988-1.153l-.496.124c.209 1.269.068 2.756.698 3.76 1.315 2.094.53 4.349.646 6.432.068 1.217-.291 1.934 1.045 2.384.064.022.075.628-.074.795-1.022 1.136-1.047 1.931-.014 3.058.413.451.57 4.303.021 4.818-1.35 1.264-.662 2.944-.963 4.391-.284 1.361.263 2.873-.895 4.107-.173.186.133.816.241 1.371-.369.934-1.065 2.014-1.173 3.148-.105 1.127-.229 1.981-1.295 2.557-.133.07-.092.863.117 1.064.281.271 1.107.498 1.177.396 1.362-2.045 2.356.043 3.515.34l-1.727.339c.572 1.327.246 2.202-1.086 2.605-.221.066-.582.371-.553.455.447 1.309-1.342 3.096.871 4.062.287.125.318.806.514 1.375m-19.82-2.616c.866-.117 1.585-.354 2.269-.273 1.135.131 2.248.465 3.37.713l.115-.471c-1.215-.406-2.579-.668-2.556-2.11 1.391 0 2.673.022 3.954-.013.385-.012.766-.18 1.149-.275-.292-.244-.549-.559-.881-.718-.646-.31-1.334-.533-2.116-.835l.629-.905c-.331-.94-.602-1.651-.826-2.375-.108-.349-.063-.752-.198-1.084-.674-1.655-1.237-3.384-2.125-4.921-.923-1.598.331-4.313-2.83-4.684l1.93-1.295c-.484-.645-1.174-1.139-1.193-1.656-.125-3.432-.138-6.867-.109-10.302.007-.824.349-1.64.461-2.47.192-1.424.398-2.854.418-4.285.004-.281-.778-.7-1.255-.816-.326-.079-.752.259-1.075.387l.965 1.33-1.795 1.317 1.211 1.58c-.482.505-1.169.899-1.16 1.275.03 1.207.419 2.403.477 3.612.061 1.272-.1 2.558-.18 4.145.095.233.706.997.525 1.433-.431 1.033-1.055 1.861.535 2.389.124.04.173.482.158.732-.071 1.224-.196 2.443-.247 3.668-.009.215.259.433.375.662.346.687.814 1.347.993 2.074.417 1.701.62 3.455 1.052 5.151.283 1.108.815 2.153 1.26 3.291-.008.001-.458.2-.73.059-.62-.323-1.117-.88-1.735-1.208-.31-.164-.774-.037-1.168-.043.162.413.217.963.518 1.198.273.213.814.084 1.493.119-.245.422-.5 1.05-.612 1.024-.609-.135-1.183-.43-2.199-.846v3.088l-1.617-.924q-.198.134-.395.27l.612 2.677c.919.326 2.218-1.078 2.533.315m32.276-28.651c1.168 1.623 2.254 1.875 3.938 1.184.89-.365 1.845-.572 2.985-.916-.1.66-.051.992-.192 1.159-.603.701-1.465 1.194-.981 2.448.07.187-.193 2.283-1.979 1.888-.505-.112-1.559.383-1.686.804-.307 1.01-.42 2.192.793 3.326V45.44l2.195 1.361c.434-1.865 3.324-2.127 3.233-4.598 1.749-.844.276-1.553-.196-2.346 1.189-1.24 1.268-2.681 1.159-4.324-.11-1.686-.632-3.354-.356-5.073.022-.144-.365-.354-.834-.778-.318 5.185-3.124 7.923-8.079 8.724M17.224 61.404l.828-.407c-.167-.591-.308-1.19-.507-1.771-.438-1.275-.979-2.521-1.344-3.817-.406-1.445-.662-2.935-1.074-4.813l-2.375 2.25c-.026-.402-.108-1-.094-1.594.022-.979-1.226-3.07-2.174-3.195-.505-.068-1.555.457-1.555.715 0 1.137.163 2.316.524 3.396.246.737.942 1.317 1.39 1.999.809 1.229 1.583 2.48 2.514 3.949l1.486-.446c.678 1.06 1.529 2.398 2.381 3.734m41.001-8.25v5.441h1.082c.032-.621.061-1.146.064-1.236 1.033-.732 2.061-1.111 2.455-1.836.441-.807.316-1.924.412-2.91.011-.116-.12-.321-.231-.362-1.026-.38-2.09-.676-3.089-1.115a4.3 4.3 0 0 1-1.486-1.104c-.472-.552-.781-1.243-1.162-1.873l-.74.282c.115.719.232 1.437.396 2.445-.024.023-.401.357-.901.803 1.106.508 2.098.961 3.2 1.465M14.141 31.649l-.452.013c.212 3.351 2.469 5.395 4.689 7.545.96-2.077.525-3.187-1.102-3.062-.277-3.445-.841-4.434-1.987-5.374v-2.194zm5.76-9.168c-.546-.408-.955-.825-1.451-1.029-.196-.08-.838.3-.848.493-.074 1.423-.04 2.853-.04 4.261h2.99l-1.925-2.801c.281-.202.655-.474 1.274-.924m-1.649 23.885c-.397-1.245-.694-2.291-1.08-3.304-.094-.246-.544-.584-.718-.527-.335.107-.747.416-.846.73-.236.751 1.457 2.837 2.644 3.101M28.42 27.499c.554-1.363-2.55-1.827-.137-3.535-.957.252-1.775.291-1.827.511-.226.959-.229 1.971-.318 3.024zm-4.851-5.098-.508.402 1.349 2.155c.402-.41 1.14-.814 1.146-1.229.016-1.32-1.065-1.28-1.987-1.328m23.011-3.48q.14-.274.277-.548c-.736-.51-1.447-1.068-2.229-1.501-.26-.145-.697.031-1.055.061.082.412.049 1.096.266 1.187.873.367 1.821.55 2.741.801m4.301 30.821c-.538 2.052-.013 3.513 1.279 3.861-.096-.614-.465-1.375-.232-1.828.633-1.24.2-1.737-1.047-2.033M7.683 25.612l.975-.162c-.402-1.31 1.315-2.766-.628-4.335zm13.255 7.413c-.118 3.033.175 3.571 1.932 3.358zm23.248 28.11h-2.795l-.166.543c.776.309 1.555.616 2.535 1.006.153-.56.282-1.03.426-1.549M7.222 50.32l.326-.187.636-2.977c-.767.403-1.212.64-1.753.925z"/>
        <path d="m26.251 5.729 3.354 2.364-.108.394c-.82-.056-1.827.157-2.409-.245-.586-.405-.75-1.421-1.099-2.17z"/>
    </g>
</svg>
