<?xml version="1.0" encoding="utf-8"?>
<!-- Generator: Adobe Illustrator 16.0.0, SVG Export Plug-In . SVG Version: 6.00 Build 0)  -->
<!DOCTYPE svg PUBLIC "-//W3C//DTD SVG 1.1//EN" "http://www.w3.org/Graphics/SVG/1.1/DTD/svg11.dtd">
<svg version="1.1" id="Layer_1" xmlns="http://www.w3.org/2000/svg" xmlns:xlink="http://www.w3.org/1999/xlink" x="0px" y="0px"
	 width="72px" height="71.998px" viewBox="0 0 72 71.998" enable-background="new 0 0 72 71.998" xml:space="preserve">
<g>
	<path fill="currentColor" fill-rule="evenodd" clip-rule="evenodd" d="M37.816,64.211c-0.285,0-0.569,0-0.854,0c-0.972-0.444-1.958-0.859-2.906-1.349
		c-0.361-0.186-0.704-0.498-0.928-0.836c-0.31-0.466-0.513-0.788-1.224-0.672c-1.41,0.232-2.621-0.396-3.054-1.378
		c-0.609-1.38-0.638-1.422-2.043-0.886c-0.828,0.315-1.183,0.015-1.388-0.752c-0.108-0.403-0.231-0.85-0.489-1.157
		c-0.603-0.716-1.358-1.309-1.923-2.049c-0.428-0.562-0.955-1.306-0.893-1.913c0.067-0.654-0.16-0.949-0.479-1.36
		c-0.404-0.52-1.025-1.064-1.064-1.631c-0.067-1.001-0.543-2.192,0.592-3.009c0.095-0.068,0.131-0.393,0.055-0.495
		c-0.635-0.86-1.309-1.692-1.958-2.542c-0.232-0.306-0.676-0.731-0.597-0.945c0.368-0.999-0.376-1.268-0.936-1.682
		c0-1.496,0-2.992,0-4.488c0.095-0.126,0.236-0.239,0.279-0.381c0.187-0.62,0.258-1.296,0.553-1.855
		c0.145-0.274,0.72-0.509,1.039-0.447c0.276,0.053,0.533,0.523,0.678,0.86c0.23,0.539,0.351,1.123,0.537,1.681
		c0.087,0.26,0.283,0.496,0.317,0.757c0.095,0.719,0.13,1.445,0.184,2.108c0.601,0,0.98,0,1.52,0
		c-0.281-0.532-0.506-0.956-0.747-1.413c0.081-0.282,0.305-0.64,0.248-0.944c-0.198-1.056-0.499-2.093-0.75-3.14
		c-0.154-0.642-0.36-1.283-0.408-1.935c-0.038-0.506,0.132-1.027,0.21-1.541c-0.088-0.017-0.177-0.033-0.265-0.049
		c0.217-0.397,0.531-0.771,0.631-1.197c0.241-1.012,0.579-2.062,0.511-3.072c-0.085-1.271,0.089-2.45,0.432-3.64
		c0.009-0.032-0.017-0.085,0-0.104c0.567-0.627,1.107-1.285,1.738-1.84c0.098-0.086,0.766,0.219,0.904,0.482
		c0.54,1.029,0.979,2.111,1.439,3.18c0.079,0.183,0.185,0.469,0.103,0.586c-0.446,0.646-0.087,1.08,0.353,1.469
		c0.748,0.661,1.527,1.286,2.292,1.927c0.022-0.231-0.164-0.385-0.161-0.537c0.014-0.971,0.066-1.941,0.113-2.911
		c0.01-0.222,0.049-0.443,0.073-0.665c0.141-1.313,0.166-2.654,0.463-3.931c0.2-0.856,0.973-1.586,1.138-2.441
		c0.136-0.705,0.408-1.002,0.976-1.298c0.768-0.4,1.653-0.775,1.453-1.944c-0.023-0.136,0.133-0.313,0.226-0.458
		c0.633-0.988,1.268-1.976,1.914-2.956c0.069-0.104,0.203-0.186,0.324-0.233c1.502-0.594,2.134-2.204,3.484-2.973
		c0.356,0,0.713,0,1.069,0c-0.186,0.658-0.333,1.33-0.567,1.97c-0.204,0.56-0.603,0.958-0.455,1.729
		c0.106,0.553,0.195,1.326,0.084,1.838c-0.381,1.748-0.116,3.431,0.061,5.14c0.033,0.326-0.18,0.821-0.024,0.966
		c0.642,0.597,0.573,1.153-0.017,1.751c0.411,0.39,0.788,0.668,1.063,1.025c0.351,0.455,0.841,0.956,0.877,1.465
		c0.082,1.164,0.559,1.918,1.717,2.414c0.172-0.347,0.331-0.679,0.499-1.006c0.176-0.342,0.41-0.985,0.53-0.965
		c0.466,0.078,1.031,0.256,1.313,0.599c0.841,1.02,1.544,2.153,2.345,3.208c0.395,0.52,0.881,0.971,1.333,1.447
		c0.432,0.454,0.794,1.069,1.325,1.313c1.167,0.534,1.897,1.462,1.893,2.727c-0.001,0.226,0.113,0.488,0.254,0.672
		c1.055,1.376,1.41,2.838,0.653,4.479c-0.612,1.328-0.066,3.113,1.223,4.066c0,0.783,0,1.567,0,2.351
		c-1.102,0.847-2.865,1.019-2.77,2.971c0.053,0.439-0.001,0.899-0.025,1.36c-0.015,0.278-0.045,0.578,0.036,0.836
		c0.666,2.105-1.194,3.202-1.887,4.762c-0.033,0.073-0.184,0.096-0.28,0.141c-1.114,0.524-2.014,1.488-3.378,1.53
		c-0.337,0.011-0.696,0.453-0.971,0.764c-0.125,0.141-0.176,0.558-0.075,0.654c0.703,0.673,0.191,1.044-0.306,1.421
		c-0.743,0.566-1.824,0.748-2.056,1.904c-0.029,0.148-0.473,0.229-0.733,0.313c-0.601,0.192-1.249,0.286-1.801,0.568
		C39.544,63.093,38.693,63.677,37.816,64.211z M48.771,34.285c-0.152,0.482-0.249,0.668-0.266,0.862
		c-0.104,1.191-0.25,1.278-1.419,1.072c-0.26-0.046-0.617,0.154-0.854,0.337c-0.832,0.645-1.623,1.355-2.828,1.02
		c-0.094-1.495-0.183-2.917-0.277-4.444c-0.55-0.204-1.255-0.479-1.176-1.46c0.012-0.154-0.197-0.34-0.331-0.487
		c-0.707-0.778-1.439-1.534-2.125-2.331c-0.195-0.227-0.353-0.56-0.37-0.854c-0.096-1.662-2.334-3.075-3.799-2.336
		c0.168,0.3,0.444,0.586,0.486,0.904c0.208,1.551,0.325,3.104,1.216,4.486c0.178,0.275,0.014,0.813-0.074,1.21
		c-0.335,1.505-0.732,2.989-0.31,4.561c0.085,0.317-0.147,0.8-0.38,1.088c-0.13,0.161-0.68,0.211-0.833,0.075
		c-0.281-0.249-0.438-0.659-0.59-1.025c-0.138-0.332-0.095-0.795-0.314-1.027c-0.766-0.807-0.844-1.759-0.766-2.771
		c0.068-0.875,0.153-1.748,0.24-2.725c-0.318,0-0.684,0.103-0.928-0.026c-0.304-0.159-0.734-0.529-0.713-0.774
		c0.08-0.947-0.618-1.252-1.044-1.767c-0.364,0.563-0.655,1.015-0.967,1.498c0.718,0.943,0.666,1.461-0.312,2.431
		c-0.554,0.55-0.649,1.059-0.347,1.885c0.251,0.685-0.052,1.594-0.208,2.384c-0.022,0.114-0.661,0.258-0.901,0.146
		c-0.562-0.263-1.055-0.673-1.567-1.018c0.488-0.858,0.298-1.408-0.525-1.87c-0.794-0.445-1.062,0.306-1.091,0.685
		c-0.085,1.11-0.743,1.56-1.556,1.724c0.092,1.047,0.239,1.983,0.227,2.917c-0.005,0.397-0.526,0.806-0.496,1.184
		c0.107,1.338,0.23,2.698,0.593,3.98c0.189,0.667,0.164,1.163-0.296,1.503c-0.733,0.54-0.425,0.871,0.043,1.335
		c0.47,0.467,1.12,0.961,1.232,1.532c0.18,0.913,0.663,1.61,1.011,2.406c0.177,0.404-0.195,1.082-0.399,1.604
		c-0.087,0.223-0.38,0.364-0.714,0.663c1.089,0.844,2.074,1.605,3.145,2.435c0.166-0.078,0.445-0.226,0.735-0.347
		c1.382-0.578,1.829-0.338,2.989,0.631c0.776,0.649,1.867,1.254,2.829,1.271c1.481,0.029,3.062,0.249,4.476-0.774
		c0.66-0.478,1.336-0.728,1.199-1.647c0.712-0.457,1.304-0.423,2.02-0.007c0.769,0.446,1.705,1.095,2.395-0.219
		c0.063-0.12,0.307-0.184,0.475-0.203c1.827-0.205,2.409-1.682,2.619-3.07c0.122-0.814,0.245-1.606,0.465-2.408
		c0.182-0.658,0.157-1.375,0.233-2.174c-0.378,0.266-0.677,0.596-1.039,0.699c-0.432,0.124-0.921,0.027-1.38,0.073
		c-0.496,0.05-0.639,0.319-0.491,0.819c0.374,1.276-0.631,2.201-0.926,3.311c-0.027,0.104-0.519,0.144-0.785,0.118
		c-1.291-0.122-2.608-0.151-3.857-0.456c-1.097-0.268-2.093-0.914-2.465-2.101c-0.131-0.416,0.152-1.029-0.063-1.338
		c-0.489-0.702-0.306-1.212,0.234-1.654c0.499-0.407,1.056-0.94,1.637-1.013c1.521-0.187,3.034-0.009,4.439,0.749
		c0.98,0.528,1.358,0.186,1.466-0.902c0.116-1.191,0.44-2.362,0.689-3.538c0.027-0.128,0.131-0.268,0.24-0.344
		c1.164-0.818,2.298-1.689,3.519-2.412c0.779-0.461,1.326-1.188,0.915-1.754C50.202,35.844,49.533,35.164,48.771,34.285z"/>
	<path fill="currentColor" fill-rule="evenodd" clip-rule="evenodd" d="M30.103,44.771c1.618,0.126,2.742,0.167,3.847,0.336
		c0.252,0.038,0.604,0.503,0.623,0.789c0.054,0.862-0.09,1.736-0.053,2.601c0.038,0.877-0.372,1.289-1.132,1.625
		c-0.792,0.35-1.522,0.854-2.248,1.337c-0.943,0.628-1.932,0.113-2.786-0.06c-0.874-0.177-1.592-1.017-1.649-2.127
		c-0.02-0.378-0.193-0.747-0.226-1.126c-0.034-0.393-0.121-0.871,0.054-1.175C27.423,45.421,28.621,44.361,30.103,44.771z"/>
	<path fill="currentColor" fill-rule="evenodd" clip-rule="evenodd" d="M36.404,54.586c-0.508,0.899-1.222,0.79-1.916,0.537
		c-0.382-0.14-0.609-1.578-0.426-2.079c0.249-0.678,0.39-1.404,0.712-2.042c0.183-0.363,0.611-0.782,0.972-0.826
		c0.345-0.041,0.799,0.312,1.105,0.599c0.434,0.404,0.925,0.853,1.118,1.382c0.261,0.715,0.514,1.6,0.313,2.275
		C38.009,55.348,37.161,55.016,36.404,54.586z"/>
</g>
</svg>
