<svg xmlns="http://www.w3.org/2000/svg" xml:space="preserve" width="72px" height="72px" viewBox="0 0 72 72">
    <path fill="currentColor" fill-rule="evenodd" d="M37.9 6.37h.671c.271.083.594.099.802.262.428.337.869.704 1.165 1.15.292.44.313 1.071.627 1.485.726.958.366 2.067.56 3.092.169.892.139 1.82.26 2.723.23 1.713.547 3.415.747 5.13.118 1.011.036 2.043.125 3.059.141 1.593.465 3.178.49 4.77.019 1.101-.452 2.205-.486 3.313-.029.946-.1 1.882.467 2.864.673 1.167.952 2.59 1.251 3.937.204.921.144 1.899.214 2.852.063.851.129 1.702.221 2.55.05.462.156.918.239 1.388.297-.644.48-1.128.735-1.57.231-.402.712-.73.784-1.144.244-1.402.675-1.968 2.091-2.223.773-.14 1.646.012 2.333-.291 1.058-.464 1.495.316 1.738.856.721 1.599.589 3.455 1.447 5.063.331.621.35 1.458.348 2.196-.003 1.273.569 2.154 2.178 2.666-.082-.93-.138-1.729-.226-2.522-.085-.775-.217-1.546-.303-2.321-.115-1.032-.149-2.077-.323-3.099-.171-1.004-.561-1.974-.693-2.98-.128-.978.238-2.107-.125-2.949-.774-1.795-.326-3.259.563-4.791.302-.521.427-1.06.305-1.819-.197-1.23-1.101-2.294-.735-3.692.194-.747-.298-1.65-.218-2.457.089-.896-.495-2.064.742-2.636.859-.397 1.721-.844 2.631-1.054.351-.081 1.148.376 1.204.687.164.909.059 1.866.059 2.574l1.837 4.624c-.035.49.079.954.154 1.424.037.24-.021.494.01.736.039.309.063.645.204.912.356.675.905 1.276 1.138 1.984.399 1.215.631 2.486.905 3.74.284 1.296.489 2.611.821 3.895.129.499.508.934.773 1.397v2.012c-.135.169-.328.317-.395.51-.535 1.559-.822 3.252-1.617 4.66a41.3 41.3 0 0 1-4.23 6.133c-1.654 1.982-3.614 3.695-5.907 4.984-1.094.614-2.059 1.473-3.177 2.028-1.31.65-2.699 1.17-4.098 1.604-1.504.467-3.059.768-4.591 1.142l-3.49.854h-2.907c-.915-.209-1.828-.428-2.746-.62-.169-.035-.363.065-.542.052-.915-.065-1.873.002-2.73-.259-1.42-.432-2.732-1.274-4.168-1.591-2.16-.477-3.933-1.639-5.683-2.817-2.554-1.722-4.646-3.972-6.787-6.187-1.861-1.925-2.841-4.362-4.399-6.443-.111-.147-.029-.428-.071-.64-.07-.351-.122-.715-.263-1.038-.324-.741-1.073-1.347-.655-2.316.042-.099-.229-.332-.355-.503v-2.235c.154-.432.38-.851.448-1.295.157-1.021.178-2.063.361-3.077.237-1.312.656-2.594.853-3.91.242-1.621.187-3.284.869-4.836.197-.447.109-1.014.277-1.48.148-.414.384-.912.731-1.117 1.122-.66 3.388.381 3.599 1.671.212 1.304.218 2.641.375 3.957.145 1.222.329 2.442.569 3.649.214 1.073.741 2.124.752 3.188.023 2.062-.228 4.125-.346 6.188-.037.644.21 1.412-.063 1.911-.525.959.137 1.326.52 1.948.133-.143.233-.205.225-.246-.319-1.577.979-2.356 1.732-3.374.179-.242.874-.304 1.233-.175 1.229.441 2.442.949 3.602 1.546.556.286 1.123.681.765 1.604-.126.324.398.901.7 1.513.183-1.068.352-1.815.43-2.571.119-1.158.179-2.323.254-3.485.04-.624.038-1.251.093-1.873.078-.879.233-1.753.278-2.633.046-.899-.045-1.808.004-2.707.047-.861.242-1.714.296-2.575.11-1.773.159-3.55.251-5.324.048-.939.101-1.88.212-2.813.153-1.29-.154-2.583.514-3.89.388-.761 1.047-1.897.145-2.721.203-.974.228-1.887.594-2.632.363-.737.189-1.402.225-2.112.054-1.072.383-2.145.336-3.205-.073-1.66 1.363-3.225 2.752-2.755.903.306 1.774.705 2.775 1.108-.38 1.037.903 1.865.397 3.153-.272.692.259 1.671.316 2.528.084 1.265.125 2.54.08 3.806-.051 1.432-.103 2.839.665 4.132.063.105.025.281.009.42-.051.441-.174.883-.163 1.322.034 1.305.13 2.608.18 3.913.021.555.154 1.184-.053 1.652-.45 1.017-1.146 1.896-.874 3.152.177.815.064 1.691.115 2.538.055.917.164 1.832.22 2.75.034.552.088 1.12.001 1.659-.145.891-.458 1.756-.582 2.647-.073.526.039 1.093.141 1.628.183.966.663 1.946.564 2.873-.094.886.14 1.205.736 1.417 1.726-.578 1.383-2.067 1.646-3.273q.064-.305.081-.617c.033-.58.095-1.163.071-1.742-.036-.882-.191-1.762-.19-2.642.001-.813.291-1.645.185-2.432-.16-1.176-.248-2.274-.039-3.49.218-1.271-.164-2.641-.255-3.97-.054-.78-.093-1.566-.063-2.347.035-.876.179-1.748.229-2.625.037-.633.032-1.273-.012-1.906-.064-.908-.339-1.83-.234-2.711.121-1.013.631-1.974.833-2.986.149-.748.14-1.545.087-2.313-.094-1.371-.37-2.734-.383-4.103-.009-.968.563-1.994.379-2.893-.194-.96-.162-1.585.633-2.128" clip-rule="evenodd"/>
</svg>
