<?xml version="1.0" encoding="utf-8"?>
<!-- Generator: Adobe Illustrator 16.0.0, SVG Export Plug-In . SVG Version: 6.00 Build 0)  -->
<!DOCTYPE svg PUBLIC "-//W3C//DTD SVG 1.1//EN" "http://www.w3.org/Graphics/SVG/1.1/DTD/svg11.dtd">
<svg version="1.1" id="Layer_1" xmlns="http://www.w3.org/2000/svg" xmlns:xlink="http://www.w3.org/1999/xlink" x="0px" y="0px"
	 width="72px" height="71.998px" viewBox="0 0 72 71.998" enable-background="new 0 0 72 71.998" xml:space="preserve">
<g>
	<path fill="currentColor" fill-rule="evenodd" clip-rule="evenodd" d="M47.024,7.734c0.313,0,0.625,0,0.938,0c0.911,0.693,1.822,1.387,2.736,2.075
		c0.119,0.089,0.256,0.198,0.394,0.213c1.867,0.213,3.181,1.45,4.427,2.622c2.287,2.152,4.395,4.494,6.607,6.727
		c0.782,0.79,0.268,1.599,0.09,2.356c-0.167,0.715-0.683,1.148-1.562,1.075c-1.636-0.136-3.281-0.239-4.922-0.235
		c-2.005,0.004-3.019,1.259-2.531,3.199c0.377,1.504,0.973,2.954,1.479,4.452c0.813,0,1.654,0.237,2.233-0.052
		c1.048-0.522,1.728-0.047,2.365,0.541c0.616,0.568,1.453,1.249,1.544,1.962c0.187,1.479,0.488,3.025-0.098,4.529
		c-0.259,0.665-0.502,1.38-0.529,2.081c-0.076,1.979,0.017,3.964-0.073,5.94c-0.027,0.608-0.331,1.279-0.713,1.757
		c-0.131,0.163-0.91-0.124-1.355-0.3c-0.427-0.169-0.789-0.494-1.209-0.69c-0.971-0.453-1.82-0.257-2.685,0.395
		c-2.19,1.651-4.418,3.255-6.677,4.81c-0.293,0.201-0.904,0.103-1.284-0.058c-0.176-0.074-0.177-0.626-0.21-0.966
		c-0.069-0.723,0.003-1.479-0.187-2.165c-0.274-0.993-0.213-1.804,0.78-2.271c0.674-0.316,1.411-0.5,2.124-0.731
		c0.466-0.151,0.952-0.247,1.403-0.432c0.463-0.188,0.87-0.56,1.343-0.662c1.191-0.26,1.883-0.919,2.065-2.267
		c-1.53-0.495-3.089-0.938-4.599-1.513c-0.838-0.319-1.447-0.211-2.111,0.366c-0.479,0.416-1.085,0.688-1.646,1.003
		c-0.441,0.248-0.974,0.383-1.332,0.714c-0.331,0.306-0.385,0.945-0.734,1.192c-1.526,1.079-2.979,2.298-4.964,2.556
		c-0.569,0.073-1.435,0.492-1.545,0.914c-0.206,0.786,0.049,1.69,0.102,2.546c0.067,1.073,0.24,2.189-0.541,3.09
		c-0.677,0.779-1.46,1.466-2.138,2.245c-0.166,0.191-0.248,0.713-0.118,0.855c0.383,0.423,0.863,0.984,1.355,1.039
		c1.706,0.187,2.657,1.431,3.811,2.41c0.222,0.188,0.463,0.478,0.709,0.494c1.48,0.095,2.522,0.924,3.479,1.935
		c0.859,0.908,0.759,1.501-0.456,1.815c-1.933,0.5-3.786,0.268-5.396-1.029c-0.674-0.543-1.396-0.695-2.094-0.545
		c0.222,0.646,0.727,1.384,0.533,1.743c-0.239,0.442-1.038,0.667-1.637,0.807c-0.657,0.154-1.364,0.079-2.045,0.149
		c-1.386,0.145-3.295-1.007-3.391-2.369c-0.09-1.268-0.838-1.94-1.575-2.725c-1.046-1.114-2.498-1.85-3.142-3.339
		c-0.101-0.234-0.303-0.583-0.214-0.717c0.641-0.964,0.856-2.041,0.953-3.156c0.067-0.773,0.386-1.705,0.074-2.289
		c-0.47-0.882-1.431-1.487-2.11-2.273c-0.603-0.698-1.199-1.433-1.62-2.243c-0.294-0.566-0.237-1.304-0.431-1.935
		c-0.187-0.607-0.344-1.451-0.786-1.694c-0.539-0.295-1.363-0.069-2.072-0.069c0.171,2.242,0.229,2.409,0.869,3.517
		c0.244,0.422,0.41,0.889,0.617,1.331c0.238,0.507,0.374,1.115,0.743,1.495c1.593,1.64,1.839,3.316,0.667,5.251
		c-0.077,0.128-0.156,0.272-0.172,0.416c-0.162,1.424-1.015,2.473-1.93,3.463c-0.21,0.227-0.652,0.239-0.988,0.35
		c-0.111-0.418-0.333-0.847-0.295-1.251c0.027-0.293,0.395-0.559,0.62-0.828c0.239-0.287,0.513-2.468,0.316-2.747
		c-0.084-0.119-0.225-0.212-0.358-0.281c-1.076-0.562-1.61-1.584-1.508-2.9c0.055-0.694-0.98-1.522-1.715-1.351
		c0.016,0.11-0.009,0.257,0.054,0.329c0.325,0.372,0.477,0.771-0.01,1.075c-0.26,0.162-0.774,0.297-0.925,0.163
		c-0.239-0.211-0.278-0.655-0.385-1.007c-0.131-0.431-0.221-0.876-0.376-1.297c-0.132-0.357-0.538-0.742-0.467-1.024
		c0.329-1.303-0.654-1.952-1.25-2.797c-0.22-0.312-0.723-0.699-0.654-0.896c0.408-1.16-0.509-1.74-0.96-2.524
		c0-0.078,0-0.156,0-0.234c1.277-1.85,2.663-3.544,5.257-3.216c1.209,0.153,2.548-0.386,3.602,0.69
		c0.227,0.231,0.618,0.31,0.942,0.435c0.882,0.342,1.846-0.015,2.502-0.725c0.964-1.044,1.998-2.026,3.043-2.99
		c0.226-0.208,0.626-0.229,0.948-0.33c0.534-0.167,1.076-0.31,1.603-0.497c0.318-0.114,0.601-0.331,0.92-0.434
		c1.347-0.432,2.736-0.752,4.042-1.283c0.909-0.369,1.661-1.331,2.563-1.457c1.225-0.17,1.954-0.828,2.696-1.608
		c0.13-0.136,0.118-0.405,0.172-0.613c-1.73,1.144-3.442,0.814-5.13,0.726c-0.015-0.095-0.029-0.191-0.043-0.286
		c0.906-0.899,1.813-1.798,2.719-2.697c-0.072-0.12-0.144-0.24-0.216-0.36c-0.429,0.151-0.877,0.263-1.284,0.461
		c-0.762,0.372-1.444,0.449-2.096-0.338c0.352-0.246,0.646-0.45,1.183-0.825c-0.553-0.24-0.934-0.562-1.247-0.506
		c-0.557,0.099-1.151,0.184-1.219-0.437c-0.075-0.674,0.537-0.808,1.171-0.958c0.715-0.168,1.349-0.678,2.018-1.04
		c-0.027-0.106-0.055-0.213-0.082-0.319c-1.094-0.188-2.46,0.202-3.067-1.41c0.544-0.233,1.046-0.618,1.559-0.632
		c1.115-0.032,2.034-0.353,2.946-1.014c1.1-0.798,1.205-0.87,0.585-2.125c0.484-0.372,1.021-0.704,1.44-1.146
		c0.182-0.191,0.273-0.698,0.148-0.909c-0.34-0.574-0.817-1.067-1.456-1.859c0.877,0,1.701-0.247,2,0.044
		c1.097,1.066,2.234,0.405,3.301,0.216c0.813-0.144,1.553-0.691,2.307-1.05c-0.198-0.275-0.5-0.694-0.991-1.375
		c1.03,0,1.781-0.178,2.378,0.049c0.631,0.239,1.048,0.087,1.295-0.336C46.591,9.111,46.771,8.401,47.024,7.734z M53.521,36.231
		c0.929,0,1.621,0,2.246,0c0-0.355,0.009-0.681-0.003-1.007c-0.008-0.205-0.046-0.408-0.07-0.612c-0.229,0.083-0.5,0.114-0.68,0.259
		C54.563,35.235,54.15,35.651,53.521,36.231z"/>
</g>
</svg>
