<svg xmlns="http://www.w3.org/2000/svg" xml:space="preserve" width="72px" height="72px" viewBox="0 0 72 72">
    <path fill="currentColor" fill-rule="evenodd" d="M47.024 7.734h.938q1.366 1.041 2.736 2.075c.119.089.256.198.394.213 1.867.213 3.181 1.45 4.427 2.622 2.287 2.152 4.395 4.494 6.607 6.727.782.79.268 1.599.09 2.356-.167.715-.683 1.148-1.562 1.075-1.636-.136-3.281-.239-4.922-.235-2.005.004-3.019 1.259-2.531 3.199.377 1.504.973 2.954 1.479 4.452.813 0 1.654.237 2.233-.052 1.048-.522 1.728-.047 2.365.541.616.568 1.453 1.249 1.544 1.962.187 1.479.488 3.025-.098 4.529-.259.665-.502 1.38-.529 2.081-.076 1.979.017 3.964-.073 5.94-.027.608-.331 1.279-.713 1.757-.131.163-.91-.124-1.355-.3-.427-.169-.789-.494-1.209-.69-.971-.453-1.82-.257-2.685.395a191 191 0 0 1-6.677 4.81c-.293.201-.904.103-1.284-.058-.176-.074-.177-.626-.21-.966-.069-.723.003-1.479-.187-2.165-.274-.993-.213-1.804.78-2.271.674-.316 1.411-.5 2.124-.731.466-.151.952-.247 1.403-.432.463-.188.87-.56 1.343-.662 1.191-.26 1.883-.919 2.065-2.267-1.53-.495-3.089-.938-4.599-1.513-.838-.319-1.447-.211-2.111.366-.479.416-1.085.688-1.646 1.003-.441.248-.974.383-1.332.714-.331.306-.385.945-.734 1.192-1.526 1.079-2.979 2.298-4.964 2.556-.569.073-1.435.492-1.545.914-.206.786.049 1.69.102 2.546.067 1.073.24 2.189-.541 3.09-.677.779-1.46 1.466-2.138 2.245-.166.191-.248.713-.118.855.383.423.863.984 1.355 1.039 1.706.187 2.657 1.431 3.811 2.41.222.188.463.478.709.494 1.48.095 2.522.924 3.479 1.935.859.908.759 1.501-.456 1.815-1.933.5-3.786.268-5.396-1.029-.674-.543-1.396-.695-2.094-.545.222.646.727 1.384.533 1.743-.239.442-1.038.667-1.637.807-.657.154-1.364.079-2.045.149-1.386.145-3.295-1.007-3.391-2.369-.09-1.268-.838-1.94-1.575-2.725-1.046-1.114-2.498-1.85-3.142-3.339-.101-.234-.303-.583-.214-.717.641-.964.856-2.041.953-3.156.067-.773.386-1.705.074-2.289-.47-.882-1.431-1.487-2.11-2.273-.603-.698-1.199-1.433-1.62-2.243-.294-.566-.237-1.304-.431-1.935-.187-.607-.344-1.451-.786-1.694-.539-.295-1.363-.069-2.072-.069.171 2.242.229 2.409.869 3.517.244.422.41.889.617 1.331.238.507.374 1.115.743 1.495 1.593 1.64 1.839 3.316.667 5.251-.077.128-.156.272-.172.416-.162 1.424-1.015 2.473-1.93 3.463-.21.227-.652.239-.988.35-.111-.418-.333-.847-.295-1.251.027-.293.395-.559.62-.828.239-.287.513-2.468.316-2.747a1 1 0 0 0-.358-.281c-1.076-.562-1.61-1.584-1.508-2.9.055-.694-.98-1.522-1.715-1.351.016.11-.009.257.054.329.325.372.477.771-.01 1.075-.26.162-.774.297-.925.163-.239-.211-.278-.655-.385-1.007-.131-.431-.221-.876-.376-1.297-.132-.357-.538-.742-.467-1.024.329-1.303-.654-1.952-1.25-2.797-.22-.312-.723-.699-.654-.896.408-1.16-.509-1.74-.96-2.524v-.234c1.277-1.85 2.663-3.544 5.257-3.216 1.209.153 2.548-.386 3.602.69.227.231.618.31.942.435.882.342 1.846-.015 2.502-.725.964-1.044 1.998-2.026 3.043-2.99.226-.208.626-.229.948-.33.534-.167 1.076-.31 1.603-.497.318-.114.601-.331.92-.434 1.347-.432 2.736-.752 4.042-1.283.909-.369 1.661-1.331 2.563-1.457 1.225-.17 1.954-.828 2.696-1.608.13-.136.118-.405.172-.613-1.73 1.144-3.442.814-5.13.726l-.043-.286 2.719-2.697-.216-.36c-.429.151-.877.263-1.284.461-.762.372-1.444.449-2.096-.338l1.183-.825c-.553-.24-.934-.562-1.247-.506-.557.099-1.151.184-1.219-.437-.075-.674.537-.808 1.171-.958.715-.168 1.349-.678 2.018-1.04l-.082-.319c-1.094-.188-2.46.202-3.067-1.41.544-.233 1.046-.618 1.559-.632 1.115-.032 2.034-.353 2.946-1.014 1.1-.798 1.205-.87.585-2.125.484-.372 1.021-.704 1.44-1.146.182-.191.273-.698.148-.909-.34-.574-.817-1.067-1.456-1.859.877 0 1.701-.247 2 .044 1.097 1.066 2.234.405 3.301.216.813-.144 1.553-.691 2.307-1.05l-.991-1.375c1.03 0 1.781-.178 2.378.049.631.239 1.048.087 1.295-.336.353-.604.533-1.314.786-1.981m6.497 28.497h2.246c0-.355.009-.681-.003-1.007-.008-.205-.046-.408-.07-.612-.229.083-.5.114-.68.259-.451.364-.864.78-1.493 1.36" clip-rule="evenodd"/>
</svg>
