<?xml version="1.0" encoding="utf-8"?>
<!-- Generator: Adobe Illustrator 16.0.0, SVG Export Plug-In . SVG Version: 6.00 Build 0)  -->
<!DOCTYPE svg PUBLIC "-//W3C//DTD SVG 1.1//EN" "http://www.w3.org/Graphics/SVG/1.1/DTD/svg11.dtd">
<svg version="1.1" id="Layer_1" xmlns="http://www.w3.org/2000/svg" xmlns:xlink="http://www.w3.org/1999/xlink" x="0px" y="0px"
	 width="72px" height="71.998px" viewBox="0 0 72 71.998" enable-background="new 0 0 72 71.998" xml:space="preserve">
<g>
	<path fill="currentColor" d="M38.648,12.044c0.015,0.69,0.436,0.634,0.944,0.585c0.368-0.035,0.753,0.106,1.132,0.17
		c0.258,0.043,0.517,0.113,0.776,0.127c0.991,0.054,2.013-0.027,2.96,0.197c0.325,0.077,0.438,0.924,0.712,1.38
		c0.416,0.689,0.888,1.345,1.341,2.012c0.131,0.194,0.34,0.357,0.409,0.569c0.394,1.187,1.331,1.925,2.154,2.777
		c0.298,0.309,0.346,0.858,0.508,1.298c-0.211,0.044-0.429,0.146-0.633,0.123c-0.531-0.06-1.46,0.554-1.54,1.063
		c-0.118,0.75,0.352,1.205,1.131,1.414c0.813,0.218,1.594,0.596,2.346,0.986c0.186,0.096,0.185,0.521,0.305,0.778
		c0.125,0.264,0.238,0.596,0.459,0.737c0.313,0.202,0.731,0.227,1.084,0.38c0.953,0.414,1.451,1.226,1.091,2.105
		c-0.126,0.308-0.865,0.547-1.289,0.5c-0.474-0.052-0.933-0.554-0.985,0.38c-0.003,0.065-0.139,0.188-0.187,0.176
		c-0.673-0.167-1.332-0.468-2.009-0.507c-1.252-0.074-1.117-0.938-1.152-1.744c-0.008-0.168-0.059-0.376,0.02-0.499
		c0.322-0.513,0.197-0.763-0.166-1.31c-0.443-0.669-0.746-0.635-1.427-0.787c-0.911-0.203-1.837-1.159-2.005-2.227
		c-0.184-1.163-1.064-1.797-1.589-2.69c-0.095-0.162-0.56-0.107-0.853-0.152c-0.008,0.288-0.139,0.678,0,0.846
		c0.61,0.738,1.533,1.298,1.166,2.488c0.698,0.527,0.367,1.39,0.659,2.005c0.218,0.459,0.857,0.749,1.354,1.033
		c0.328,0.188,0.736,0.233,1.109,0.342c-0.147,0.263-0.295,0.525-0.441,0.789c-0.051,0.091-0.16,0.239-0.137,0.268
		c0.713,0.824,0.008,1.221-0.424,1.797c-0.183,0.244-0.002,0.874,0.18,1.248c0.369,0.759,0.76,1.412,0.314,2.34
		c-0.207,0.433-0.533,1.228,0.313,1.641c0.078,0.039,0.097,0.458,0.033,0.491c-0.774,0.405-0.467,1.154-0.324,1.604
		c0.361,1.145,0.199,2.074-0.582,2.947c-0.061,0.066-0.021,0.348,0.052,0.389c0.676,0.378,1.297,0.885,2.196,0.506
		c0.384-0.161,0.897-0.029,1.351,0.003c0.455,0.032,0.937,0.147,0.647-0.606c-0.059-0.154-0.107-0.379-0.039-0.5
		c0.686-1.201,0.498-2.453,0.283-3.717c-0.168-0.984,0.955-0.763,1.264-1.313c0.033-0.058,0.216-0.012,0.3-0.063
		c0.216-0.13,0.415-0.288,0.621-0.435c-0.286,0.005-0.613-0.078-0.851,0.032c-0.855,0.397-3.006-0.539-3.193-1.473
		c-0.036-0.181,0.197-0.482,0.386-0.617c0.121-0.086,0.56,0.022,0.562,0.059c0.037,0.654,0.486,0.39,0.775,0.333
		c0.407-0.082,0.811-0.22,1.192-0.386c0.505-0.219,1.147-0.816,1.45-0.67c0.773,0.372,1.418,1.042,2.041,1.665
		c0.074,0.074-0.273,0.846-0.453,0.857c-0.897,0.055-0.711,0.965-1.174,1.329c0.349,0.428,0.64,0.927,1.061,1.265
		c0.48,0.386,1.201,0.519,1.586,0.96c0.391,0.448,0.541,1.129,0.719,1.73c0.35,1.197-0.675,2.625-1.893,2.522
		c-0.896-0.075-1.771-0.405-2.65-0.644c-0.421-0.114-0.705-0.271-0.68,0.447c0.025,0.74,0.303,1.367,0.917,1.843
		c0.646,0.499,1.128,0.595,1.712-0.069c0.137-0.154,0.822-0.089,0.826-0.063c0.113,0.783,0.461,0.82,1.031,0.396
		c0.072-0.054,0.322,0.001,0.384,0.084c0.601,0.812,1.45,0.709,2.288,0.661c0.388-0.021,0.773-0.079,1.162-0.092
		c0.199-0.008,0.408,0.029,0.604,0.08c0.535,0.142,1.068,0.291,1.598,0.453c0.512,0.158,0.629,0.408,0.181,0.808
		c-0.933,0.833-1.818,1.269-3.21,0.786c-0.914-0.316-2.094,0.102-3.145,0.255c-0.158,0.022-0.406,0.435-0.367,0.61
		c0.164,0.754-0.272,1.194-0.813,1.424c-0.235,0.1-0.701-0.249-1.021-0.461c-0.642-0.422-1.254-0.223-1.278,0.787
		c-0.031,1.363-1.173,1.553-1.816,2.261c-0.067,0.073-0.216,0.083-0.267,0.161c-0.104,0.162-0.217,0.35-0.219,0.527
		c-0.002,0.07,0.271,0.19,0.432,0.213c0.841,0.114,1.688,0.194,2.525,0.318c0.113,0.018,0.31,0.266,0.283,0.316
		c-0.52,1.07,0.524,0.531,0.743,0.731c-0.063,0.54-0.086,1.046-0.19,1.532c-0.055,0.25-0.201,0.552-0.402,0.688
		c-0.816,0.55-1.646,1.094-2.521,1.535c-0.354,0.178-0.849,0.129-1.273,0.108c-0.934-0.045-1.874-0.259-2.793-0.179
		c-1.1,0.096-1.118-0.935-1.676-1.383c-0.332-0.267-0.332-0.772,0.287-0.949c0.065-0.021,0.112-0.246,0.104-0.372
		c-0.04-0.558-0.207-1.124,0.553-1.398c0.457-0.166,0.854-0.491,1.299-0.7c0.377-0.177,0.804-0.248,1.168-0.44
		c0.186-0.099,0.283-0.361,0.42-0.552c-0.25-0.096-0.496-0.198-0.748-0.28c-0.039-0.013-0.107,0.08-0.168,0.116
		c-1.264,0.791-1.816,0.63-2.021-0.795c-0.123-0.861-0.376-0.721-0.924-0.436c-0.714,0.373-1.435,0.77-2.199,1.001
		c-0.757,0.229-1.569,0.272-2.36,0.384c-0.17,0.023-0.442-0.092-0.508-0.013c-0.738,0.902-1.561-0.008-2.334,0.095
		c-0.17,0.022-0.412-0.512-0.621-0.789c0.691-0.483-0.017-0.912-0.086-1.354c-0.022-0.146-0.356-0.28-0.572-0.353
		c-0.392-0.132-0.802-0.207-1.201-0.316c-0.06-0.018-0.109-0.141-0.153-0.137c-0.497,0.063-1.016,0.262-1.48,0.172
		c-0.378-0.072-0.749-0.752-1.021-0.692c-0.553,0.119-0.805-0.034-1.168-0.392c-0.228-0.223-0.703-0.315-1.043-0.274
		c-0.833,0.101-1.424-0.16-1.803-0.899c-0.217-0.424-0.45-0.588-0.896-0.228c-0.18,0.146-0.5,0.19-0.74,0.16
		c-0.166-0.021-0.313-0.242-0.455-0.388c-0.614-0.625-1.195-1.278-1.273-2.205c-0.012-0.146,0.109-0.362,0.235-0.449
		c0.587-0.403,0.852-0.813,0.239-1.43c-0.077-0.078,0.073-0.573,0.165-0.59c0.274-0.043,0.662-0.048,0.845,0.114
		c0.771,0.681,1.378,0.654,2.077-0.162c0.131-0.151,0.331-0.243,0.488-0.377c0.132-0.11,0.358-0.25,0.351-0.364
		c-0.044-0.682,0.009-1.435-0.277-2.011c-0.189-0.381-0.205-0.544-0.054-0.89c0.09-0.205-0.023-0.508-0.066-0.764
		c-0.063-0.371-0.273-1.026-0.197-1.061c0.483-0.216,1.107-0.526,1.539-0.378c1.531,0.524,1.601,0.557,2.343-0.822
		c0.041-0.076,0.132-0.157,0.212-0.173c0.702-0.135,1.405-0.264,2.111-0.376c0.155-0.024,0.323,0.026,0.484,0.045
		c0.512,0.063,1.023,0.137,1.537,0.187c0.396,0.039,0.794,0.069,1.19,0.064c0.293-0.003,0.635,0.014,0.868-0.125
		c0.55-0.327,0.983-0.442,1.441,0.158c0.147,0.195,0.51,0.234,0.78,0.325c0.277,0.092,0.582,0.122,0.84,0.249
		c0.193,0.096,0.332,0.303,0.494,0.46c0.238-0.323,0.477-0.645,0.715-0.967c-0.852-0.489-0.149-1.244-0.156-1.783
		c-0.014-1.146-0.104-2.213-0.548-3.264c-0.042-0.101,0.013-0.31,0.097-0.385c0.498-0.443,0.434-0.714-0.091-1.152
		c-0.25-0.209-0.047-0.889-0.216-1.283c-0.219-0.509-0.051-0.761,0.303-1.083c0.128-0.117,0.16-0.545,0.05-0.686
		c-0.69-0.879-1.471-1.69-2.142-2.582c-0.278-0.37-0.344-0.23-0.684-0.1c-0.383,0.148-1.035,0.276-1.154-0.554
		c-0.032-0.229-0.405-0.488-0.676-0.584c-0.439-0.157-0.979-0.37-1.375-0.243c-1.082,0.347-2.04-0.689-3.202-0.055
		c-0.868,0.474-1.991,0.545-3.015,0.65c-0.895,0.092-1.092,0.889-1.309,1.379c-0.373,0.844-1.064,1.155-1.726,1.472
		c-0.905,0.434-1.08,0.733-0.637,1.62c0.088,0.176-0.024,0.597-0.187,0.726c-0.423,0.336-0.583,0.575-0.258,1.128
		c0.402,0.686-0.396,0.976-0.708,0.916c-0.429-0.083-0.835-0.528-1.139-0.908c-0.13-0.163,0.012-0.552,0.05-0.836
		c0.006-0.043,0.17-0.09,0.166-0.108c-0.236-0.831-0.005-1.479,0.72-1.96c0.02-0.013-0.134-0.283-0.203-0.436
		c-0.081-0.18-0.269-0.48-0.221-0.525c0.992-0.932,0.59-2.857,2.335-3.268c0.2-0.047,0.318-0.438,0.474-0.669
		c-0.328-0.016-0.679-0.111-0.978-0.024c-0.278,0.081-0.479,0.397-0.751,0.536c-0.397,0.202-0.91,0.682-1.048-0.274
		c-0.014-0.096-0.348-0.124-0.508-0.224c-0.215-0.135-0.41-0.304-0.605-0.47c-0.146-0.124-0.279-0.264-0.417-0.397
		c-0.01,0.188-0.102,0.436-0.016,0.552c0.388,0.53,0.052,0.824-0.277,1.174c-0.155,0.165-0.353,0.532-0.283,0.627
		c0.603,0.828,0.444,1.653,0.105,2.505c-0.049,0.123-0.097,0.321-0.037,0.402c0.505,0.668,0.37,1.175-0.278,1.672
		c-0.242,0.186,0.326,1.806,0.585,2.028c0.127,0.109,0.195,0.528,0.167,0.541c-0.788,0.365-1.566,0.803-2.495,0.569
		c-0.499-0.125-0.747-0.259-0.627-0.933c0.117-0.661-0.14-1.39-0.245-2.087c-0.021-0.135-0.18-0.337-0.14-0.381
		c0.719-0.769,0.201-1.732,0.372-2.59c0.148-0.744,0.365-1.673-0.317-2.436c-0.253-0.283-0.363-0.763-0.389-1.164
		c-0.038-0.582,0.603-0.939,1.173-0.722c0.829,0.315,2.291-0.227,2.657-1.001c0.061-0.129,0.1-0.343,0.035-0.445
		c-0.523-0.82-0.021-1.215,0.6-1.608c0.175-0.111,0.398-0.498,0.376-0.519c-0.874-0.812,0.1-0.906,0.477-1.12
		c0.273-0.155,0.673-0.17,1-0.126c0.546,0.073,1.142,0.39,1.206-0.557c0.005-0.065,0.148-0.171,0.229-0.172
		c1.098-0.014,2.195-0.01,3.292-0.019c0.308-0.002,0.666,0.064,0.911-0.068c0.412-0.222,0.714-0.394,1.078,0.074
		c0.08,0.103,0.422,0.017,0.641-0.007c0.801-0.086,1.617-0.118,2.398-0.293c0.852-0.191,1.673-0.521,2.507-0.791
		C38.227,12.044,38.438,12.044,38.648,12.044z M37.313,15.107c-0.539,0.356-0.918,0.607-1.297,0.858
		c0.38,0.455,0.686,1.094,1.17,1.291c0.268,0.109,0.836-0.526,1.27-0.826C38.094,16.013,37.732,15.595,37.313,15.107z
		 M33.991,37.054c0.352,0.352,0.67,0.771,1.087,1.034c0.174,0.11,0.556-0.104,0.843-0.173c-0.123-0.213-0.235-0.434-0.371-0.637
		c-0.17-0.256-0.328-0.532-0.551-0.734c-0.167-0.15-0.441-0.285-0.642-0.254C34.239,36.307,34.17,36.658,33.991,37.054z
		 M32.982,17.984c0.038-0.094,0.075-0.188,0.113-0.281c-0.156-0.083-0.356-0.129-0.461-0.255c-0.551-0.654-1.17-0.117-1.751-0.104
		c-0.158,0.004-0.31,0.238-0.464,0.366c0.169,0.087,0.33,0.223,0.509,0.251c0.488,0.078,0.982,0.128,1.476,0.152
		C32.593,18.124,32.789,18.031,32.982,17.984z M37.859,38.401c-0.104-0.174-0.137-0.297-0.215-0.34
		c-0.064-0.035-0.194-0.006-0.271,0.037c-0.484,0.272-0.957,0.57-1.448,0.834c-0.343,0.186-0.709,0.326-1.065,0.486
		c0.487-0.02,1.015,0.073,1.452-0.086C36.863,39.132,37.341,38.726,37.859,38.401z M29.655,18.337
		c-0.578,0.156-1.087,0.253-1.558,0.445c-0.128,0.052-0.139,0.391-0.204,0.598c0.226,0.031,0.49,0.152,0.671,0.076
		c0.401-0.169,0.769-0.425,1.131-0.674c0.083-0.056,0.122-0.228,0.115-0.342C29.807,18.384,29.653,18.337,29.655,18.337z
		 M34.134,35.891c-0.004-0.063-0.009-0.125-0.014-0.188c-0.425,0-0.852-0.022-1.273,0.017c-0.098,0.009-0.176,0.23-0.263,0.354
		c0.144,0.08,0.31,0.25,0.425,0.222C33.394,36.2,33.761,36.032,34.134,35.891z"/>
	<path fill="currentColor" d="M40.346,60.376c0.139-0.564-0.332-1.425,0.756-1.551c0.065-0.008,0.1-0.35,0.137-0.536
		c0.047-0.224,0.008-0.511,0.135-0.661c0.338-0.4,0.889-0.727,0.113-1.213c0.109-0.168,0.289-0.493,0.32-0.479
		c0.432,0.186,1.076,0.32,1.219,0.657c0.427,1.015,1.334,1.392,2.121,1.947c0.133,0.095,0.233,0.239,0.351,0.36
		c-0.149,0.115-0.284,0.27-0.453,0.34c-0.925,0.39-1.858,0.759-2.789,1.134C41.617,60.376,40.98,60.376,40.346,60.376z"/>
	<path fill="currentColor" d="M65.359,37.906c-0.816,0.765-1.971,0.702-2.502,0.087c-0.687-0.794-1.838-0.328-2.319-1.227
		c-0.128-0.235-0.263-0.469-0.394-0.703c0.348-0.186,0.785-0.607,1.024-0.514c0.828,0.321,1.542,0.263,2.326-0.113
		c0.454-0.218,1.198,0.579,1.296,1.135c0.059,0.325,0.37,0.608,0.566,0.909C65.359,37.624,65.359,37.765,65.359,37.906z"/>
	<path fill="currentColor" d="M7.064,34.727c0.822-0.403,1.643-0.821,2.461,0.012c0.125,0.127,0.27,0.234,0.405,0.351
		c-0.163,0.167-0.307,0.363-0.494,0.497c-0.27,0.192-0.555,0.404-0.864,0.483c-0.26,0.066-0.598,0.022-0.84-0.097
		c-0.26-0.127-0.448-0.4-0.667-0.61C7.064,35.15,7.064,34.938,7.064,34.727z"/>
	<path fill="currentColor" d="M8.012,41.365c0.271-1.882,1.257-3.179,2.854-4.08c1.018-0.576,2.291-0.851,2.848-2.033
		c0.321-0.681,0.468-1.441,0.735-2.15c0.06-0.159,0.286-0.347,0.449-0.361c1.028-0.088,1.88-0.503,2.573-1.261
		c0.768-0.84,1.647-1.102,2.745-0.643c0.252,0.105,0.627-0.098,0.948-0.137c0.36-0.043,0.724-0.061,1.085-0.089
		c-0.182,0.294-0.35,0.6-0.55,0.882c-0.607,0.855-1.758,0.918-2.426,1.547c-0.561,0.528-1.831,0.742-1.483,2.047
		c0.028,0.105-0.717,0.62-1.068,0.585c-1.099-0.109-1.201,1.082-1.995,1.388c-0.36,0.141,0.232,1.838,0.692,2.166
		c0.271,0.192,0.503,0.457,0.702,0.726c0.054,0.073-0.084,0.411-0.118,0.407c-1.333-0.096-2.323,0.801-3.485,1.152
		c-1.221,0.37-1.502,1.473-2.249,2.195c-0.162,0.157-0.363,0.497-0.453,0.468c-0.454-0.147-1.099-0.282-1.263-0.622
		C8.226,42.878,8.169,42.069,8.012,41.365z"/>
	<path fill="currentColor" d="M10.904,26.938c-0.093-0.891-0.186-1.574-0.222-2.261c-0.009-0.173,0.194-0.347,0.241-0.536
		c0.075-0.303,0.127-0.616,0.143-0.928c0.05-0.989-0.008-1.995,0.166-2.959c0.057-0.317,0.671-0.667,1.079-0.745
		c0.328-0.063,0.739,0.246,1.096,0.423c0.405,0.202,0.964,0.353,1.137,0.69c0.176,0.343-0.029,0.886-0.077,1.341
		c-0.113,1.063-0.234,2.126-0.346,3.19c-0.024,0.23-0.066,0.471-0.025,0.693c0.131,0.7,0.457,1.33-0.082,2.091
		c-0.235,0.333-0.018,1.134,0.214,1.617c0.467,0.976-0.063,1.45-0.758,1.874c-0.577,0.354-1.061,0.597-0.618,1.474
		c0.154,0.304-0.348,0.973-0.623,1.432c-0.053,0.088-0.581,0.06-0.646-0.054c-0.34-0.596-0.603-1.237-0.892-1.862
		c1.092-0.755-0.224-1.529,0.008-2.301c0.039-0.129-0.207-0.443-0.181-0.46c1.175-0.771-0.315-1.911,0.385-2.734
		C10.944,26.876,10.944,26.794,10.904,26.938z"/>
	<path fill="currentColor" d="M61.943,22.846c-0.342,0.869-0.324,1.615,0.287,2.313c0.127,0.144,0.162,0.525,0.063,0.683
		c-0.5,0.784-0.564,1.527-0.043,2.331c0.09,0.139-0.066,0.432-0.098,0.656c-0.033,0.259-0.074,0.52-0.074,0.78
		c0.001,0.165,0.148,0.445,0.099,0.478c-0.764,0.512-0.411,1.105-0.351,1.812c0.059,0.679-0.521,1.416-0.84,2.118
		c-0.019,0.04-0.196,0.015-0.299,0.006c-0.492-0.04-0.981-0.115-1.474-0.12c-0.729-0.008-1.386-1.094-0.935-1.708
		c0.353-0.48,0.597-0.853,0.16-1.385c-0.074-0.091-0.111-0.334-0.054-0.393c0.669-0.667,0.05-1.383,0.048-2.057
		c-0.004-0.579-0.316-1.137,0.278-1.614c0.086-0.069,0.089-0.372,0.013-0.492c-0.539-0.855-0.512-1.746-0.242-2.669
		c0.025-0.089-0.021-0.204-0.047-0.303c-0.274-1.024-0.104-1.37,0.885-1.731c0.119-0.044,0.361-0.065,0.382-0.022
		c0.444,1,1.489,0.476,2.155,0.877C61.955,22.463,61.925,22.73,61.943,22.846z"/>
	<path fill="currentColor" d="M18.229,42.862c0.429-1.178,1.279-1.6,2.089-1.934c0.409-0.168,0.684-0.253,0.477-0.652
		c-0.49-0.942,0.598-0.838,0.842-1.289c0.051-0.096,0.59-0.012,0.848,0.109c0.512,0.24,1.833-0.287,1.967-0.842
		c0.117-0.484,0.25-0.97,0.328-1.462c0.027-0.173-0.036-0.418-0.151-0.546c-0.75-0.832-1.232-1.671-0.342-2.713
		c0.08-0.093,0.073-0.356-0.001-0.469c-0.452-0.685-0.341-1.113,0.447-1.459c0.381-0.168,0.681-0.804,1.086-0.184
		c0.252,0.386,0.98,0.875,0.038,1.44c-0.223,0.134-0.277,0.882-0.135,1.237c0.553,1.373,0.377,2.757,0.264,4.156
		c-0.033,0.41,0.033,0.828,0.043,1.243c0.005,0.228-0.012,0.452-0.019,0.679c-0.295-0.033-0.665,0.035-0.872-0.117
		c-0.864-0.636-1.18-0.609-1.89,0.097c-0.409,0.405-0.914,0.741-1.428,1.011c-0.404,0.212-0.901,0.256-0.842,0.887
		c0.004,0.053-0.066,0.147-0.118,0.16C20.042,42.422,19.222,42.62,18.229,42.862z"/>
	<path fill="currentColor" d="M17.268,36.979c0.186-0.228,0.418-0.643,0.771-0.876c0.148-0.099,0.604,0.125,0.828,0.313
		c0.434,0.365,0.779,0.326,1.225,0.02c0.693-0.477,1.416-0.92,2.163-1.304c0.211-0.109,0.553,0.036,0.835,0.065
		c-0.047,0.283-0.01,0.623-0.157,0.839c-0.367,0.542-0.827,1.02-1.229,1.538c-0.335,0.433-0.641,0.515-0.997,0.024
		c-0.288-0.396-0.545-0.367-0.94-0.037c-0.442,0.369-0.994,0.627-1.531,0.86C17.579,38.708,17.249,38.267,17.268,36.979z"/>
	<path fill="currentColor" d="M26.565,52.767c-0.239,0.119-0.443,0.264-0.67,0.324c-0.412,0.111-0.839,0.248-1.257,0.238
		c-0.443-0.01-0.896-0.297-1.319-0.246c-0.54,0.064-0.82,0.012-1.04-0.544c-0.221-0.562-0.073-0.851,0.413-1.095
		c0.61-0.309,1.207-0.644,1.816-0.953c0.082-0.042,0.257-0.053,0.296-0.004C25.339,51.158,25.856,51.842,26.565,52.767z"/>
	<path fill="currentColor" d="M16.668,44.028c-0.325-0.492-0.608-0.863-0.799-1.277c-0.026-0.057,0.545-0.518,0.618-0.467
		c0.398,0.271,0.727,0.646,1.08,0.984C17.316,43.479,17.065,43.692,16.668,44.028z"/>
</g>
</svg>
