<?xml version="1.0" encoding="utf-8"?>
<!-- Generator: Adobe Illustrator 16.0.0, SVG Export Plug-In . SVG Version: 6.00 Build 0)  -->
<!DOCTYPE svg PUBLIC "-//W3C//DTD SVG 1.1//EN" "http://www.w3.org/Graphics/SVG/1.1/DTD/svg11.dtd">
<svg version="1.1" id="Layer_1" xmlns="http://www.w3.org/2000/svg" xmlns:xlink="http://www.w3.org/1999/xlink" x="0px" y="0px"
	 width="72px" height="71.998px" viewBox="0 0 72 71.998" enable-background="new 0 0 72 71.998" xml:space="preserve">
<g>
	<path fill="currentColor" fill-rule="evenodd" clip-rule="evenodd" d="M48.55,11.218c-0.986,0.43-1.971,0.864-2.96,1.287
		c-0.368,0.158-0.666,0.083-0.899-0.282c-0.102-0.159-0.309-0.369-0.458-0.36c-0.853,0.045-1.703,0.148-2.554,0.232
		c-0.025,0.082-0.051,0.163-0.076,0.245c0.226,0.167,0.456,0.48,0.678,0.474c0.912-0.025,1.45,0.61,1.975,0.968
		c0.163,0.919,0.288,1.733,0.458,2.537c0.084,0.4,0.112,0.757-0.176,1.087c-0.091,0.103-0.201,0.228-0.217,0.353
		c-0.14,1.178-1.034,1.733-1.884,2.333c-0.368,0.261-0.748,0.518-1.067,0.833c-0.373,0.371-0.693,0.49-1.199,0.197
		c-0.302-0.175-0.727-0.186-1.097-0.184c-0.524,0.003-1.047,0.096-1.572,0.133c-0.908,0.065-1.79,0.087-2.686-0.27
		c-0.543-0.217-1.212-0.396-1.823-0.003c-0.108,0.069-0.267,0.069-0.405,0.083c-0.538,0.053-0.648-0.729-1.337-0.589
		c-0.563,0.114-0.817-0.517-1.031-1.022c-0.102-0.241-0.34-0.44-0.552-0.616c-0.864-0.718-1.274-1.618-1.182-2.746
		c0.014-0.17-0.021-0.349-0.057-0.519c-0.216-0.994,0.159-1.639,1.153-1.78c1.436-0.204,2.882-0.233,4.333-0.096
		c0.359,0.034,0.737-0.105,1.104-0.177c0.203-0.041,0.406-0.17,0.601-0.153c1.192,0.103,2.296-0.464,3.477-0.443
		c0.107,0.001,0.218-0.144,0.377-0.256c-0.318-0.46-0.699-0.495-1.104-0.28c-0.313,0.165-0.571,0.221-0.865-0.026
		c-0.097-0.081-0.271-0.133-0.393-0.109c-1.115,0.218-2.221-0.064-3.328-0.035c-0.478,0.013-0.945,0.244-1.426,0.324
		c-0.445,0.074-0.902,0.08-1.378,0.118c-0.088-0.219-0.162-0.403-0.23-0.574c-0.848-0.184-1.667-0.01-2.487,0.006
		c-1.128,0.022-2.377,0.318-3.421-0.525c-0.257-0.207-0.642-0.255-0.967-0.376c0-0.141,0-0.281,0-0.422
		c1.072-1.094,2.282-1.9,3.882-1.977c0.514-0.024,1.078-0.064,1.521-0.289c1.013-0.513,2.084-0.461,3.155-0.565
		c1.23-0.12,2.449-0.357,3.673-0.544c0.07,0,0.141,0,0.211,0c0.261,0.146,0.563,0.458,0.775,0.405
		c0.558-0.139,1.092-0.013,1.626-0.042c1.274-0.07,2.444,0.345,3.655,0.567c0.261,0.048,0.537,0.314,0.75,0.259
		c0.51-0.131,0.877,0.13,1.29,0.291c0.579,0.224,1.21,0.363,1.72,0.692c0.326,0.21,0.582,0.426,0.995,0.461
		c0.243,0.021,0.48,0.222,0.698,0.374c0.254,0.175,0.483,0.385,0.724,0.579C48.55,10.937,48.55,11.077,48.55,11.218z"/>
	<path fill="currentColor" fill-rule="evenodd" clip-rule="evenodd" d="M35.473,65.21c-0.42-0.103-0.836-0.242-1.263-0.296
		c-0.518-0.065-1.112,0.091-1.553-0.111c-0.997-0.458-1.992-0.045-2.958-0.178c-1.247-0.172-2.723,0.013-3.448-1.569
		c0.408-0.787,1.29-0.923,2.007-1.285c0.461-0.232,1.021-0.317,1.416-0.624c0.638-0.495,1.389-0.633,2.104-0.892
		c0.129-0.047,0.278-0.089,0.41-0.073c0.782,0.093,1.561,0.203,2.341,0.31c0.069,0.009,0.143,0.055,0.204,0.04
		c1.128-0.276,2.265,0.062,3.383-0.043c1.023-0.097,2.023-0.432,3.042-0.61c0.354-0.062,0.8-0.09,1.09,0.071
		c0.995,0.555,2.097,0.414,3.146,0.552c0.56,0.073,1.01,0.152,1.374,0.598c0.176,0.214,0.419,0.37,0.618,0.566
		c0.338,0.333,0.536,0.723,0.484,1.121c-0.521,0.288-0.963,0.532-1.405,0.774c-0.061,0.034-0.12,0.08-0.187,0.094
		c-1.192,0.25-2.412,0.409-3.573,0.762c-2.024,0.614-4.118,0.227-6.153,0.561c-0.226,0.037-0.438,0.153-0.657,0.233
		C35.754,65.21,35.614,65.21,35.473,65.21z"/>
	<path fill="currentColor" fill-rule="evenodd" clip-rule="evenodd" d="M33.505,34.132c-0.969,0.668-2.071,0.633-3.13,0.697
		c-0.645,0.04-1.028-0.58-0.888-1.237c0.043-0.205,0.114-0.405,0.177-0.605c0.126-0.405,0.256-0.809,0.213-1.288
		c0.514-0.544,1.243-1.008,1.486-1.654c0.284-0.755,1.294-0.79,1.333-1.65c-0.3-0.239-0.603-0.479-0.973-0.773
		c-0.373,0.179-0.373,0.179-1.982-0.451c-0.106-0.819-0.121-1.63,0.181-2.418c0.221-0.576,0.365-1.197,0.679-1.716
		c0.198-0.326,0.619-0.648,0.988-0.717c1.368-0.254,2.72-0.685,4.141-0.557c0.208,0.019,0.46,0.077,0.62-0.012
		c0.634-0.351,1.143-0.02,1.677,0.229c0.742,0.346,0.755,0.375,0.487,1.365c-0.846-0.048-1.585,0.327-2.308,0.754
		c-0.855,0.505-0.917,0.627-0.843,1.805c1.358-0.319,2.645-0.789,3.738-1.675c0.266-0.216,0.459-0.528,0.663-0.812
		c0.822-1.144,2.205-1.314,3.147-0.333c0.188,0.195,0.252,0.569,0.255,0.862c0.003,0.266-0.143,0.539-0.244,0.8
		c-0.401,1.037-0.847,2.045-1.55,2.932c-0.228,0.287-0.261,0.727-0.368,1.051c-0.617,0.397-1.253,0.8-1.88,1.215
		c-0.292,0.193-0.562,0.417-0.849,0.618c-0.551,0.385-0.59,0.495-0.407,1.482c0.368-0.277,0.675-0.508,1.029-0.775
		c0.178,0.062,0.402,0.139,0.622,0.215c0.614-0.374,1.212-0.77,1.842-1.107c0.467-0.25,1.64,0.181,1.706,0.674
		c0.175,1.312,0.317,2.637,0.32,3.957c0,0.409-0.44,0.866-0.769,1.217c-0.688,0.738-1.444,1.413-2.157,2.128
		c-0.269,0.27-0.491,0.585-0.742,0.873c-0.159,0.183-0.302,0.443-0.505,0.513c-0.789,0.271-1.31,0.991-2.204,1.145
		c-0.528,0.091-0.969,0.659-1.463,0.991c-0.449,0.302-0.711,0.893-1.36,0.89c-0.03,0-0.078,0.026-0.089,0.052
		c-0.573,1.396-1.926,0.643-2.876,1.004c-0.477,0.182-0.647-0.207-0.854-0.784c-0.263-0.734-0.27-1.467-0.204-2.204
		c0.039-0.433,0.175-0.884,0.378-1.269c0.354-0.674,0.794-1.303,1.197-1.951c0.037-0.059,0.103-0.13,0.092-0.184
		c-0.193-0.978,0.705-1.287,1.182-1.812c0.255-0.282,0.803-0.298,1.336-0.472c-0.253-0.116-0.524-0.162-0.651-0.322
		C33.563,34.656,33.566,34.379,33.505,34.132z M37.729,32.146c-0.075-0.076-0.149-0.153-0.225-0.23
		c-0.332,0.15-0.689,0.261-0.991,0.458c-0.464,0.302-0.859,0.721-1.341,0.982c-0.582,0.314-0.736,0.688-0.391,1.36
		c1.102-0.294,1.565-1.472,2.55-1.919C37.522,32.708,37.599,32.369,37.729,32.146z"/>
	<path fill="currentColor" fill-rule="evenodd" clip-rule="evenodd" d="M31.283,52.229c-1.015-1.028-0.814-2.169-0.261-3.342
		c0.086-0.183,0.194-0.411,0.154-0.587c-0.146-0.642,0.293-0.971,0.649-1.345c0.545-0.572,1.029-1.251,1.68-1.664
		c0.799-0.506,1.247-1.536,2.345-1.589c0.098-0.005,0.241-0.046,0.283-0.117c0.623-1.053,2.089-0.854,2.741-1.856
		c0.63,0.168,0.811-0.382,1.11-0.716c0.173-0.192,0.283-0.442,0.406-0.675c0.238-0.454,0.397-1.064,1.035-1.01
		c0.61,0.052,1.261,0.165,1.458,0.962c0.109,0.437,0.39,0.837,0.052,1.287c-0.057,0.076-0.096,0.205-0.074,0.293
		c0.274,1.086,0.037,2.095-0.386,3.1c-0.085,0.202,0.071,0.507,0.132,0.848c-0.159,0.139-0.37,0.311-0.565,0.498
		c-0.694,0.666-1.649,1.053-2.087,2.002c-0.089,0.193-0.371,0.306-0.577,0.435c-1.328,0.832-2.644,1.688-3.998,2.476
		c-0.75,0.435-1.541,0.848-2.367,1.082C32.482,52.46,31.854,52.268,31.283,52.229z"/>
	<path fill="currentColor" fill-rule="evenodd" clip-rule="evenodd" d="M32.228,56.104c0.969-0.604,1.928-1.07,2.596-1.947
		c0.276-0.362,0.308-0.338,1.283-0.137c-0.018-0.715,0.265-1.386,0.86-1.677c0.719-0.351,1.042-1.299,2.039-1.25
		c0.069-0.211,0.142-0.43,0.144-0.436c0.626-0.429,1.113-0.732,1.567-1.079c0.775-0.595,2.115-0.069,2.279,0.912
		c0.109,0.654,0.353,1.322,0.291,1.961c-0.098,1.023,0.116,2.149-0.856,2.981c-0.43,0.367-0.703,0.957-0.948,1.49
		c-0.383,0.833-1.078,1.133-1.89,1.334c-0.535,0.133-1.062,0.314-1.577,0.511c-1.104,0.421-2.233,0.47-3.392,0.343
		c-0.44-0.049-0.897-0.035-1.335,0.029c-0.502,0.073-0.703-0.143-0.98-0.546C31.723,57.746,32.095,56.945,32.228,56.104z"/>
</g>
</svg>
