<?xml version="1.0" encoding="utf-8"?>
<!-- Generator: Adobe Illustrator 16.0.0, SVG Export Plug-In . SVG Version: 6.00 Build 0)  -->
<!DOCTYPE svg PUBLIC "-//W3C//DTD SVG 1.1//EN" "http://www.w3.org/Graphics/SVG/1.1/DTD/svg11.dtd">
<svg version="1.1" id="Layer_1" xmlns="http://www.w3.org/2000/svg" xmlns:xlink="http://www.w3.org/1999/xlink" x="0px" y="0px"
	 width="72px" height="71.998px" viewBox="0 0 72 71.998" enable-background="new 0 0 72 71.998" xml:space="preserve">
<g>
	<path fill="currentColor" fill-rule="evenodd" clip-rule="evenodd" d="M44.687,6.067c0.313,0,0.626,0,0.939,0c-0.053,0.213-0.075,0.439-0.162,0.637
		c-0.635,1.44-1.864,2.638-1.347,4.519c0.161,0.588-0.12,1.223,0.666,1.557c0.099,0.042,0.014,0.516,0.014,0.805
		c0.943,0.15,1.852,0.351,2.771,0.428c1.244,0.104,1.883-0.948,2.754-1.559c0.227-0.159,0.609-0.354,0.78-0.264
		c0.201,0.105,0.375,0.521,0.337,0.768c-0.063,0.4-0.243,0.82-0.487,1.146c-0.512,0.687-1.098,1.318-1.548,1.849
		c0.515,0.742,0.817,1.373,1.293,1.82c0.825,0.775,3.537,0.021,4.361-0.847c0.738-0.778,1.808-1.244,2.73-1.846
		c0.147,0.153,0.296,0.306,0.443,0.458c-0.808,1.16-1.615,2.32-2.481,3.563c0.829,0.41,0.076,1.103-0.115,1.777
		c0.31,0.15,0.614,0.21,0.781,0.395c0.86,0.948,1.59,0.788,2.607,0.085c0.729-0.503,1.798-0.604,2.732-0.687
		c0.636-0.056,0.989,0.375,0.345,0.937c-0.472,0.412-1.074,0.69-1.494,1.143c-0.436,0.468-1.141,1.286-0.992,1.582
		c0.425,0.847,1.093,1.827,1.907,2.155c0.944,0.381,2.239,0.43,2.904-0.881c0.07-0.138,0.311-0.189,0.517-0.307
		c0.325,0.488,0.616,0.923,0.906,1.359c-0.111-0.01-0.224-0.021-0.335-0.031c-0.283,0.937-0.639,1.859-0.82,2.815
		c-0.104,0.545,0.003,1.164,0.15,1.713c0.11,0.414,0.406,0.792,0.673,1.145c0.215,0.285,0.509,0.51,0.768,0.762
		c0,0.235,0,0.47,0,0.705c-0.942,0.378-1.898,0.73-2.818,1.157c-0.202,0.094-0.386,0.456-0.392,0.698
		c-0.019,0.837,0.6,1.268,1.112,1.852c0.856,0.975,1.414,2.21,2.098,3.335c0,0.548,0,1.096,0,1.644
		c-0.876,0.293-1.615,0.196-2.375-0.452c-0.823-0.702-1.765-1.305-2.741-1.77c-0.413-0.196-1.048,0.071-1.582,0.129
		c0.08,0.502-0.015,1.175,0.275,1.472c0.654,0.669,1.502,1.148,2.266,1.712c0.229,0.169,0.573,0.325,0.638,0.552
		c0.303,1.061,0.438,2.176,0.804,3.212c0.372,1.052-0.655,1.072-1.019,1.566c-0.028,0.038-0.695-0.257-0.914-0.521
		c-0.913-1.109-1.788-1.153-2.84-0.046c0.487,0.929,1.136,1.825,1.416,2.823c0.181,0.643-0.178,1.438-0.295,2.163
		c-0.569-0.113-1.176-0.141-1.696-0.367c-0.4-0.175-0.651-0.668-1.041-0.897c-0.45-0.264-0.971-0.462-1.481-0.528
		c-0.114-0.015-0.318,0.635-0.477,0.981c-0.125,0.273-0.243,0.551-0.387,0.877c1.432,0.765,2.755,1.573,2.349,3.728
		c-1.849,0.033-3.046-2.177-4.999-1.714c-0.312,1.696,1.069,2.472,1.842,3.59c-0.203,0.282-0.45,0.542-0.602,0.85
		c-0.427,0.869-1.849,1.443-2.735,1.139c-0.924-0.317-1.86-0.631-2.816-0.811c-1.723-0.323-2.141,0.095-2.001,1.717
		c0.574,0.295,1.104,0.566,1.64,0.842c-0.581,1.548-1.974,1.604-3.069,2.063c-1.524,0.642-3.41,0.262-4.686,1.637
		c-0.235,0-0.47,0-0.704,0c-0.409-0.239-0.817-0.479-1.385-0.811c-0.18-0.636,0.203-1.084,1.002-1.331
		c0.316-0.098,0.623-0.286,0.884-0.496c0.72-0.582,1.413-1.197,2.203-1.873c-0.503-0.742,0.555-0.56,0.851-0.948
		c1.493-1.958,3.699-3.035,5.457-4.65c0.818-0.751,1.677-1.458,2.527-2.173c0.344-0.29,0.78-0.493,1.06-0.831
		c0.621-0.75,1.24-1.519,1.727-2.357c0.536-0.925,1.069-1.905,1.287-2.929c0.066-0.313-0.91-0.851-1.415-1.278
		c-0.235-0.2-0.466-0.422-0.734-0.564c-0.403-0.213-0.838-0.365-1.127-0.487c-0.262,0.654-0.35,1.159-0.627,1.517
		c-0.946,1.218-1.992,0.548-3.006,0.063c-1.046-0.499-2.084-1.015-3.135-1.503c-0.166-0.077-0.384-0.067-0.576-0.063
		c-0.899,0.021-1.828-0.08-2.688,0.119c-0.833,0.194-1.599,0.691-2.379,1.084c-0.087,0.044-0.094,0.28-0.107,0.43
		c-0.071,0.809,0.571,1.344,1.615,1.422c0.309,0.022,0.674,0.118,0.896,0.314c0.382,0.337,0.672,0.778,1.09,1.284
		c-0.233,0.39-0.517,0.86-0.805,1.34c-0.515-0.355-0.866-0.635-1.251-0.856c-0.967-0.556-2.415,0.22-3.125-1.126
		c-0.056-0.104-0.444-0.021-0.675-0.049c-0.34-0.043-0.676-0.121-1.016-0.162c-0.707-0.085-1.545-0.412-2.076-0.142
		c-0.352,0.179-0.242,1.227-0.378,1.878c-0.247,1.181,0.78,0.985,1.441,1.251c-0.332,0.715-0.372,1.12,0.608,1.301
		c0.661,0.121,1.212,0.835,1.998,1.422c-2.324,0.56-4.179,0.406-5.915-0.369c-1.269-0.566-2.531-1.14-3.986-0.924
		c-0.262,0.038-0.562,0.014-0.81-0.077c-1.067-0.39-1.953-0.505-1.835,1.134c-1.317-0.216-2.532-0.41-3.744-0.618
		c-0.103-0.018-0.22-0.104-0.28-0.191c-1.097-1.605-2.792-2.391-4.447-3.206c-1.011-0.499-1.312-1.268-1.388-2.332
		c-0.049-0.691,0.53-1.508-0.284-2.095c-0.438-0.316-0.882-0.624-1.283-0.907c0.236-0.463,0.491-0.964,0.828-1.623
		c0.462,0.107,1.056,0.225,1.636,0.393c0.271,0.078,0.513,0.256,0.768,0.389c0.149-0.375,0.374-0.74,0.423-1.129
		c0.035-0.269-0.172-0.567-0.275-0.866c1.874-0.16,1.874-0.16,2.337,0.971c0.336-0.667,0.599-1.128,0.806-1.613
		c0.324-0.76,0.453-1.647,1.518-1.804c1.094-0.16,2.18-0.377,2.965-0.515c0.315-0.532,0.433-1.017,0.68-1.095
		c0.784-0.249,1.643-0.556,2.424-0.457c1.493,0.188,1.652-0.571,1.582-1.678c-0.933-0.617-1.848-0.788-2.895-0.334
		c-1.302,0.563-2.686,0.684-4.075,0.357c-0.263-0.062-0.471-0.354-0.705-0.541c0.229-0.144,0.451-0.395,0.691-0.415
		c1.57-0.134,2.529-1.163,3.572-2.256c-1.483-0.98-2.98-0.453-3.954,0.297c-1.188,0.914-2.536,1.093-3.793,1.627
		c-0.58,0.247-1.221,0.256-1.342-0.288c0.484-0.538,0.738-1.331,1.281-1.725c1.16-0.842,2.475-1.468,3.708-2.213
		c0.096-0.058,0.051-0.35,0.115-0.925c-0.922,0.359-1.634,0.63-2.34,0.914c-0.241,0.096-0.508,0.366-0.696,0.313
		c-1.315-0.363-1.933,0.633-2.686,1.333c-0.834,0.776-1.595,1.634-2.444,2.393c-0.538,0.48-1.363,0.725-1.733,1.289
		c-0.664,1.012-1.525,0.965-2.448,0.773c-0.398-0.083-0.744-0.424-1.189-0.694C7.81,37.09,7.668,37.594,7.576,37.92
		c0.347,0.382,0.663,0.629,0.846,0.95c0.571,1.006,1.775,1.167,2.405,0.286c0.54-0.753,4.053-1.933,4.902-1.612
		c0.271,0.103,0.492,0.339,1.09,0.768c-0.53,0.192-0.896,0.324-1.262,0.457c0.001,0.149,0.002,0.298,0.003,0.447
		c0.409,0.218,0.819,0.435,1.357,0.721c-1.064,0.354-1.858,0.12-2.688-0.554c-0.212-0.172-0.5-0.252-0.752-0.374
		c-0.061,0.239-0.167,0.479-0.174,0.719c-0.024,0.858-0.531,1.159-1.338,0.844c-0.272-0.106-0.714-0.127-0.914,0.027
		c-0.2,0.154-0.281,0.581-0.259,0.878c0.033,0.444,0.201,0.878,0.311,1.316c-0.093,0.106-0.185,0.213-0.278,0.319
		c-0.9-0.576-1.911-1.036-2.668-1.76c-0.785-0.751-1.325-1.759-1.971-2.653c0-1.331,0-2.661,0-3.991
		c0.095-0.198,0.222-0.387,0.279-0.595c0.311-1.137,0.269-2.613,0.987-3.335c0.894-0.898,1.376-1.945,2.059-2.914
		c0.067-0.095,0.629-0.015,0.646,0.059c0.103,0.43,0.055,0.897,0.17,1.322c0.087,0.32,0.28,0.709,0.542,0.849
		c0.177,0.094,0.756-0.134,0.81-0.319c0.189-0.643,0.226-1.329,0.324-1.999c0.096-0.663,0.049-1.395,0.327-1.971
		c0.53-1.104,1.22-2.135,1.903-3.157c0.18-0.268,0.598-0.563,0.871-0.532c0.283,0.033,0.668,0.405,0.753,0.702
		c0.39,1.354,0.374,2.658-0.96,3.601c1.698,0.876,1.675,0.843,2.61-0.666c0.398-0.642,1.018-1.146,1.538-1.713
		c0.134,0.075,0.269,0.15,0.404,0.226c0.131-1.672,0.263-3.344,0.402-5.127c0.389-0.088,0.971-0.221,1.667-0.379
		c0.417,1.056-0.4,2.601,1.027,3.093c0.695-0.363,1.28-0.669,1.897-0.991c0.264-0.843,0.52-1.789,0.856-2.706
		c0.46-1.252,0.314-2.482,0.036-3.736c-0.092-0.417-0.22-0.99-0.02-1.267c0.274-0.38,0.844-0.546,1.517-0.937
		c-0.102,0.758-0.15,1.115-0.155,1.152c0.849,0.752,1.5,1.329,2.186,1.937c-0.132,0.349-0.247,0.653-0.398,1.054
		c1.003,0.151,2.022,0.337,2.551-0.516c0.396-0.639,1.395-1.271,0.676-2.264c0.265-0.253,0.507-0.485,0.75-0.717
		c-0.27-0.617-0.243-1.171-0.281-1.722c-0.023-0.331-0.125-0.663-0.233-0.98c-0.146-0.43-0.397-0.834-0.473-1.272
		c-0.043-0.251,0.173-0.548,0.272-0.824c0.23,0.097,0.46,0.195,0.691,0.291c0.35,0.146,0.701,0.292,1.051,0.437
		c-0.091,0.05-0.181,0.1-0.272,0.15c0.262,0.563,0.518,1.129,0.788,1.687c0.204,0.421,0.667,0.881,0.595,1.238
		c-0.19,0.947,0.464,1.059,0.984,1.05c1.929-0.032,3.343-1.209,4.709-2.382c0.932-0.8,1.767-1.713,2.632-2.589
		C43.51,7.329,44.093,6.693,44.687,6.067z M42.575,23c-0.873-1.008-1.132,0.118-1.634,0.286c-1.582,0.53-3.008,1.666-4.851,1.159
		c-0.212-0.059-0.533,0.114-0.75,0.261c-0.886,0.598-1.724,0.781-2.536-0.124c-0.206-0.229-0.443-0.478-0.718-0.582
		c-0.225-0.086-0.757,0.013-0.76,0.056c-0.061,0.911-0.847,0.576-1.287,0.833c-0.858,0.5-1.99,1.042-2.29,1.838
		c-0.275,0.731-0.583,1.164-1.163,1.545c-0.085,0.057-0.124,0.185-0.178,0.271c0.176,0.309,0.341,0.599,0.534,0.938
		c-0.591,0.367-1.273,0.847-0.473,1.4c0.659,0.456,1.549,0.588,2.352,0.809c0.109,0.03,0.303-0.262,0.463-0.399
		c0.195-0.168,0.395-0.331,0.592-0.495c0.514-0.429,1.141-0.778,1.514-1.306c0.436-0.617,0.641-1.394,0.964-2.092
		c0.277-0.598,0.651-1.05,1.35-0.84c0.197,0.795,0.403,1.495,0.536,2.208c0.143,0.772,1.229,1.707,1.9,1.374
		c1.697-0.842,3.891-0.812,5.015-2.711c-0.381-0.745-0.896-0.736-1.585-0.476c-0.557,0.21-1.188,0.294-1.783,0.281
		c-0.155-0.004-0.473-0.819-0.418-0.859c0.704-0.521,1.221-1.479,2.402-0.961c0.767,0.337,2.472-0.338,2.693-0.957
		c-0.158-0.229-0.332-0.48-0.528-0.765C42.152,23.458,42.351,23.243,42.575,23z M37.989,16.05c-0.569,0.417-0.965,0.679-1.326,0.98
		c-0.271,0.227-0.499,0.506-0.746,0.761c-0.295-0.287-0.59-0.573-0.858-0.834c0.608-0.562,1.082-0.949,1.488-1.397
		c0.183-0.202,0.229-0.526,0.338-0.795c-0.311-0.1-0.615-0.257-0.933-0.289c-1.349-0.133-2.19,0.997-3.336,1.384
		c-0.063,0.021-0.12,0.1-0.154,0.166c-0.504,0.97-1.005,1.943-1.5,2.903c0.641,0.833,1.261,0.421,1.969,0.12
		c0.352-0.15,0.859,0.063,1.296,0.111c-0.151,0.316-0.306,0.631-0.45,0.951c-0.046,0.102-0.065,0.216-0.142,0.481
		c0.215,0.114,0.488,0.258,0.559,0.295c-0.313,0.512-0.532,0.87-0.75,1.229c0.488,0.126,0.99,0.392,1.459,0.343
		c0.625-0.066,1.224-0.378,1.773-0.564c0-0.867-0.006-1.659,0.008-2.452c0.002-0.099,0.097-0.208,0.172-0.292
		c0.598-0.672,1.207-1.334,1.803-2.008c1.02-1.151,2.031-2.309,3.013-3.425c0-0.495,0-1.049,0-1.629
		C40.681,11.884,38.062,14.704,37.989,16.05z M43.47,35.315c0-0.099,0-0.197,0-0.296c-0.358-0.073-0.775-0.301-1.064-0.191
		c-1.206,0.457-1.531-0.863-2.378-1.089c0.104-0.233,0.221-0.674,0.309-0.668c0.715,0.048,1.435,0.137,2.134,0.296
		c0.67,0.153,1.326,0.601,1.975,0.576c1.758-0.067,3.518-0.257,5.254-0.538c0.419-0.068,0.751-0.676,1.337-1.242
		c-0.595-0.065-0.778-0.105-0.961-0.103c-1.64,0.024-3.28,0.095-4.919,0.068c-0.96-0.016-1.918-0.281-2.873-0.258
		c-0.853,0.02-1.646,0.157-1.895-0.912c-2.199,0.724-2.199,0.724-2.458,2.452c-0.165,1.1,0.774,3.186,1.695,3.592
		c0.219,0.097,0.596-0.09,0.868-0.215c0.184-0.084,0.285-0.348,0.469-0.43C41.789,35.991,42.632,35.66,43.47,35.315z M45.893,43.762
		c-0.137-0.167-0.173-0.244-0.233-0.28c-1.245-0.754-2.503-1.488-3.738-2.258c-0.645-0.401-1.219-0.921-1.883-1.28
		c-1.073-0.579-2.201-1.056-3.289-1.61c-0.18-0.091-0.333-0.339-0.393-0.545c-0.21-0.727-0.61-0.679-1.151-0.369
		c-0.261,0.15-0.602,0.167-0.855,0.326c-0.37,0.233-0.834,0.479-0.99,0.836c-0.106,0.245,0.146,0.83,0.41,1.016
		c0.64,0.447,1.402,0.716,2.073,1.125c0.389,0.237,1.046,0.717,0.989,0.898c-0.503,1.576,0.787,1.217,1.459,1.575
		c0.588-1.567,1.527-1.84,2.594-0.847c0.568,0.528,1.099,1.133,1.754,1.524c0.904,0.54,1.913,1.706,2.872,0.008
		C45.55,43.81,45.721,43.812,45.893,43.762z M30.027,51.9c1.087-1.146,0.008-1.944-0.251-2.824c-0.381-1.292-1.396-2.17-2.546-2.768
		c-1.556-0.808-3.369-1.18-4.415-2.792c-0.083-0.127-0.25-0.328-0.328-0.308c-0.273,0.072-0.701,0.174-0.756,0.358
		c-0.37,1.242,0.384,2.214,1.212,2.817c1.245,0.908,2.464,2.144,4.286,1.651c0.474,1.065,0.975,2.01,1.316,3.01
		C28.86,51.97,29.394,52.137,30.027,51.9z M54.998,24.646c-0.763,0-1.427-0.064-2.072,0.017c-0.681,0.085-1.347,0.297-2.014,0.476
		c-0.647,0.173-1.412,0.11-1.651,1.041c-0.064,0.252-0.596,0.388-0.916,0.57c-0.325,0.185-0.67,0.341-0.979,0.549
		c-0.436,0.293-0.847,0.622-1.267,0.937c-0.39,0.292-0.776,0.587-1.263,0.955c0.385,0.349,0.61,0.618,0.893,0.8
		c1.604,1.032,2.632,0.678,3.357-1.026c0.311-0.73,0.456-1.751,1.687-1.598c0.168,0.021,0.428-0.195,0.547-0.369
		c0.804-1.174,1.958-1.613,3.283-1.369c0.98,0.181,1.347-0.441,1.759-1.023c0.109-0.155-0.045-0.743-0.175-0.779
		c-0.456-0.125-0.954-0.097-1.479-0.129C54.82,24.063,54.894,24.302,54.998,24.646z M19.738,49.16
		c-0.042,0.731-0.084,1.223-0.092,1.716c-0.003,0.212-0.006,0.528,0.118,0.613c0.187,0.128,0.553,0.213,0.725,0.113
		c1.761-1.023,3.27-0.24,4.734,0.657c1.128,0.69,1.689,0.676,2.829-0.317c-0.35-0.707-0.555-1.361-1.682-1.401
		c-0.989-0.035-2.152-0.416-2.893-1.048C22.125,48.339,20.922,48.445,19.738,49.16z M50.883,41.089
		c1.526,0.74,2.994,1.451,4.461,2.162c0.064-0.104,0.13-0.207,0.194-0.311c-0.166-0.192-0.295-0.459-0.505-0.563
		c-0.777-0.386-1.29-1.003-1.891-1.599c-1.281-1.268-2.984-2.246-4.684-2.908c-1.198-0.467-2.675-0.227-4.028-0.279
		c-0.118-0.005-0.243,0.163-0.565,0.395c0.521,0.569,1.021,1.563,1.485,1.546c1.852-0.064,3.645,0.973,5.514,0.269
		c0.146-0.055,0.391,0.155,0.662,0.274C51.306,40.423,51.133,40.695,50.883,41.089z M24.753,25.666
		c-0.032,0.633-0.075,1.167-0.079,1.703c-0.001,0.242,0.038,0.5,0.132,0.719c0.038,0.088,0.362,0.167,0.401,0.12
		c0.156-0.184,0.269-0.411,0.362-0.637c0.23-0.557,0.348-1.529,0.676-1.603c0.823-0.185,1.075-0.891,1.639-1.25
		c1.02-0.647,0.917-1.695,0.493-2.327c-0.723-1.078-0.756-2.254-1.128-3.817c-0.386,0.593-0.682,0.913-0.823,1.291
		c-0.393,1.05,0.423,2.482-1.016,3.218c-0.055,0.028-0.009,0.227-0.039,0.337C25.158,24.211,24.937,25,24.753,25.666z
		 M44.491,14.967c-0.531-0.848-1.002-0.863-1.575,0.367c-0.443,0.951-1.513,1.41-1.681,2.665c-0.093,0.689-1.17,1.246-1.873,1.932
		c0.538,0.563,0.975,1.032,2.03,0.311c0.726-0.495,0.749-1.168,1.128-1.732c0.259-0.385,0.489-0.789,0.809-1.309
		c0.208-0.175,0.652-0.421,0.899-0.797C44.426,16.104,44.382,15.646,44.491,14.967z M28.062,33.114
		c0.093,0.403,0.242,0.706,0.215,0.991c-0.107,1.149,0.715,1.041,1.377,0.984c0.638-0.055,1.261-0.292,1.891-0.449
		c0.213-0.419,0.531-0.667,0.8-0.958c0.279-0.303,0.592-0.617,0.737-0.986c0.136-0.344,0.07-0.767,0.094-1.155
		c-0.413,0.057-0.863,0.027-1.232,0.185c-1.068,0.458-1.862,1.659-3.284,1.155C28.528,32.833,28.317,33.008,28.062,33.114z
		 M20.085,44.381c-0.647,0.283-1.178,0.646-1.753,0.741c-1.496,0.249-1.537,1.577-1.923,2.573c-0.127,0.327,0.407,0.911,0.708,1.516
		c-0.062,0.09-0.24,0.347-0.417,0.604c0.104,0.1,0.207,0.199,0.311,0.3c0.268-0.289,0.573-0.551,0.796-0.871
		c0.456-0.652,0.809-1.385,1.317-1.99c0.378-0.451,0.931-0.756,1.331-1.067C20.318,45.521,20.201,44.947,20.085,44.381z
		 M29.493,40.73c0.505,0.997,1.325,2.267,2.591,3.093c0.459,0.3,1.229,0.122,1.858,0.163c-0.197-0.411-0.361-0.843-0.596-1.23
		c-0.673-1.111-2.119-1.722-2.122-3.289c0-0.106-0.42-0.309-0.631-0.291c-0.212,0.019-0.46,0.216-0.593,0.405
		C29.822,39.834,29.738,40.154,29.493,40.73z M25.582,40.385c-0.175,0.552-0.312,0.992-0.455,1.431
		c-0.231,0.705-0.009,1.213,0.747,1.226c0.814,0.015,1.282,0.188,1.467,1.104c0.057,0.28,0.976,0.649,1.375,0.537
		c0.637-0.181,0.825-0.794,0.221-1.345c-0.484-0.441-1.01-0.838-1.491-1.282c-0.218-0.202-0.509-0.462-0.531-0.715
		C26.84,40.477,26.308,40.37,25.582,40.385z M49.063,21.038c0.271-0.635,0.476-1.112,0.796-1.862
		c-0.953,0.093-1.802,0.166-2.646,0.271c-0.12,0.015-0.262,0.168-0.322,0.292c-0.235,0.479-0.442,0.971-0.762,1.687
		C47.181,22.581,48.154,20.634,49.063,21.038z M9.126,34.149c0.169-0.946,1.779-1.295,0.723-2.429
		c-0.517-0.556-1.154-0.71-1.709-0.135C8.092,31.984,7.883,32.33,7.821,32.7c-0.048,0.289-0.015,0.707,0.164,0.888
		C8.235,33.842,8.654,33.932,9.126,34.149z M54.208,32.874c-1.051-0.251-1.939-0.463-2.828-0.676
		c-0.023,0.113-0.047,0.227-0.069,0.339C52.131,33.383,53.039,33.53,54.208,32.874z M21.64,30.398c0.979-0.65,0.924-1.69,0-2.938
		C21.64,28.406,21.64,29.307,21.64,30.398z"/>
</g>
</svg>
