<svg xmlns="http://www.w3.org/2000/svg" xml:space="preserve" width="72px" height="72px" viewBox="0 0 72 72">
    <path fill="currentColor" fill-rule="evenodd" d="M44.687 6.067h.939c-.053.213-.075.439-.162.637-.635 1.44-1.864 2.638-1.347 4.519.161.588-.12 1.223.666 1.557.099.042.014.516.014.805.943.15 1.852.351 2.771.428 1.244.104 1.883-.948 2.754-1.559.227-.159.609-.354.78-.264.201.105.375.521.337.768-.063.4-.243.82-.487 1.146-.512.687-1.098 1.318-1.548 1.849.515.742.817 1.373 1.293 1.82.825.775 3.537.021 4.361-.847.738-.778 1.808-1.244 2.73-1.846l.443.458-2.481 3.563c.829.41.076 1.103-.115 1.777.31.15.614.21.781.395.86.948 1.59.788 2.607.085.729-.503 1.798-.604 2.732-.687.636-.056.989.375.345.937-.472.412-1.074.69-1.494 1.143-.436.468-1.141 1.286-.992 1.582.425.847 1.093 1.827 1.907 2.155.944.381 2.239.43 2.904-.881.07-.138.311-.189.517-.307l.906 1.359-.335-.031c-.283.937-.639 1.859-.82 2.815-.104.545.003 1.164.15 1.713.11.414.406.792.673 1.145.215.285.509.51.768.762v.705c-.942.378-1.898.73-2.818 1.157-.202.094-.386.456-.392.698-.019.837.6 1.268 1.112 1.852.856.975 1.414 2.21 2.098 3.335v1.644c-.876.293-1.615.196-2.375-.452a12.6 12.6 0 0 0-2.741-1.77c-.413-.196-1.048.071-1.582.129.08.502-.015 1.175.275 1.472.654.669 1.502 1.148 2.266 1.712.229.169.573.325.638.552.303 1.061.438 2.176.804 3.212.372 1.052-.655 1.072-1.019 1.566-.028.038-.695-.257-.914-.521-.913-1.109-1.788-1.153-2.84-.046.487.929 1.136 1.825 1.416 2.823.181.643-.178 1.438-.295 2.163-.569-.113-1.176-.141-1.696-.367-.4-.175-.651-.668-1.041-.897a4 4 0 0 0-1.481-.528c-.114-.015-.318.635-.477.981-.125.273-.243.551-.387.877 1.432.765 2.755 1.573 2.349 3.728-1.849.033-3.046-2.177-4.999-1.714-.312 1.696 1.069 2.472 1.842 3.59-.203.282-.45.542-.602.85-.427.869-1.849 1.443-2.735 1.139-.924-.317-1.86-.631-2.816-.811-1.723-.323-2.141.095-2.001 1.717l1.64.842c-.581 1.548-1.974 1.604-3.069 2.063-1.524.642-3.41.262-4.686 1.637h-.704l-1.385-.811c-.18-.636.203-1.084 1.002-1.331.316-.098.623-.286.884-.496.72-.582 1.413-1.197 2.203-1.873-.503-.742.555-.56.851-.948 1.493-1.958 3.699-3.035 5.457-4.65.818-.751 1.677-1.458 2.527-2.173.344-.29.78-.493 1.06-.831.621-.75 1.24-1.519 1.727-2.357.536-.925 1.069-1.905 1.287-2.929.066-.313-.91-.851-1.415-1.278-.235-.2-.466-.422-.734-.564-.403-.213-.838-.365-1.127-.487-.262.654-.35 1.159-.627 1.517-.946 1.218-1.992.548-3.006.063-1.046-.499-2.084-1.015-3.135-1.503-.166-.077-.384-.067-.576-.063-.899.021-1.828-.08-2.688.119-.833.194-1.599.691-2.379 1.084-.087.044-.094.28-.107.43-.071.809.571 1.344 1.615 1.422.309.022.674.118.896.314.382.337.672.778 1.09 1.284-.233.39-.517.86-.805 1.34-.515-.355-.866-.635-1.251-.856-.967-.556-2.415.22-3.125-1.126-.056-.104-.444-.021-.675-.049-.34-.043-.676-.121-1.016-.162-.707-.085-1.545-.412-2.076-.142-.352.179-.242 1.227-.378 1.878-.247 1.181.78.985 1.441 1.251-.332.715-.372 1.12.608 1.301.661.121 1.212.835 1.998 1.422-2.324.56-4.179.406-5.915-.369-1.269-.566-2.531-1.14-3.986-.924a1.7 1.7 0 0 1-.81-.077c-1.067-.39-1.953-.505-1.835 1.134-1.317-.216-2.532-.41-3.744-.618a.5.5 0 0 1-.28-.191c-1.097-1.605-2.792-2.391-4.447-3.206-1.011-.499-1.312-1.268-1.388-2.332-.049-.691.53-1.508-.284-2.095-.438-.316-.882-.624-1.283-.907l.828-1.623c.462.107 1.056.225 1.636.393.271.078.513.256.768.389.149-.375.374-.74.423-1.129.035-.269-.172-.567-.275-.866 1.874-.16 1.874-.16 2.337.971.336-.667.599-1.128.806-1.613.324-.76.453-1.647 1.518-1.804 1.094-.16 2.18-.377 2.965-.515.315-.532.433-1.017.68-1.095.784-.249 1.643-.556 2.424-.457 1.493.188 1.652-.571 1.582-1.678-.933-.617-1.848-.788-2.895-.334a6.4 6.4 0 0 1-4.075.357c-.263-.062-.471-.354-.705-.541.229-.144.451-.395.691-.415 1.57-.134 2.529-1.163 3.572-2.256-1.483-.98-2.98-.453-3.954.297-1.188.914-2.536 1.093-3.793 1.627-.58.247-1.221.256-1.342-.288.484-.538.738-1.331 1.281-1.725 1.16-.842 2.475-1.468 3.708-2.213.096-.058.051-.35.115-.925-.922.359-1.634.63-2.34.914-.241.096-.508.366-.696.313-1.315-.363-1.933.633-2.686 1.333-.834.776-1.595 1.634-2.444 2.393-.538.48-1.363.725-1.733 1.289-.664 1.012-1.525.965-2.448.773-.398-.083-.744-.424-1.189-.694-.172.6-.314 1.104-.406 1.43.347.382.663.629.846.95.571 1.006 1.775 1.167 2.405.286.54-.753 4.053-1.933 4.902-1.612.271.103.492.339 1.09.768l-1.262.457.003.447 1.357.721c-1.064.354-1.858.12-2.688-.554-.212-.172-.5-.252-.752-.374-.061.239-.167.479-.174.719-.024.858-.531 1.159-1.338.844-.272-.106-.714-.127-.914.027s-.281.581-.259.878c.033.444.201.878.311 1.316l-.278.319c-.9-.576-1.911-1.036-2.668-1.76-.785-.751-1.325-1.759-1.971-2.653v-3.991c.095-.198.222-.387.279-.595.311-1.137.269-2.613.987-3.335.894-.898 1.376-1.945 2.059-2.914.067-.095.629-.015.646.059.103.43.055.897.17 1.322.087.32.28.709.542.849.177.094.756-.134.81-.319.189-.643.226-1.329.324-1.999.096-.663.049-1.395.327-1.971.53-1.104 1.22-2.135 1.903-3.157.18-.268.598-.563.871-.532.283.033.668.405.753.702.39 1.354.374 2.658-.96 3.601 1.698.876 1.675.843 2.61-.666.398-.642 1.018-1.146 1.538-1.713l.404.226.402-5.127 1.667-.379c.417 1.056-.4 2.601 1.027 3.093l1.897-.991c.264-.843.52-1.789.856-2.706.46-1.252.314-2.482.036-3.736-.092-.417-.22-.99-.02-1.267.274-.38.844-.546 1.517-.937l-.155 1.152 2.186 1.937-.398 1.054c1.003.151 2.022.337 2.551-.516.396-.639 1.395-1.271.676-2.264l.75-.717c-.27-.617-.243-1.171-.281-1.722-.023-.331-.125-.663-.233-.98-.146-.43-.397-.834-.473-1.272-.043-.251.173-.548.272-.824l.691.291 1.051.437-.272.15c.262.563.518 1.129.788 1.687.204.421.667.881.595 1.238-.19.947.464 1.059.984 1.05 1.929-.032 3.343-1.209 4.709-2.382.932-.8 1.767-1.713 2.632-2.589.606-.617 1.189-1.253 1.783-1.879M42.575 23c-.873-1.008-1.132.118-1.634.286-1.582.53-3.008 1.666-4.851 1.159-.212-.059-.533.114-.75.261-.886.598-1.724.781-2.536-.124-.206-.229-.443-.478-.718-.582-.225-.086-.757.013-.76.056-.061.911-.847.576-1.287.833-.858.5-1.99 1.042-2.29 1.838-.275.731-.583 1.164-1.163 1.545-.085.057-.124.185-.178.271l.534.938c-.591.367-1.273.847-.473 1.4.659.456 1.549.588 2.352.809.109.03.303-.262.463-.399q.294-.25.592-.495c.514-.429 1.141-.778 1.514-1.306.436-.617.641-1.394.964-2.092.277-.598.651-1.05 1.35-.84.197.795.403 1.495.536 2.208.143.772 1.229 1.707 1.9 1.374 1.697-.842 3.891-.812 5.015-2.711-.381-.745-.896-.736-1.585-.476-.557.21-1.188.294-1.783.281-.155-.004-.473-.819-.418-.859.704-.521 1.221-1.479 2.402-.961.767.337 2.472-.338 2.693-.957l-.528-.765zm-4.586-6.95c-.569.417-.965.679-1.326.98-.271.227-.499.506-.746.761l-.858-.834c.608-.562 1.082-.949 1.488-1.397.183-.202.229-.526.338-.795-.311-.1-.615-.257-.933-.289-1.349-.133-2.19.997-3.336 1.384-.063.021-.12.1-.154.166-.504.97-1.005 1.943-1.5 2.903.641.833 1.261.421 1.969.12.352-.15.859.063 1.296.111-.151.316-.306.631-.45.951-.046.102-.065.216-.142.481l.559.295-.75 1.229c.488.126.99.392 1.459.343.625-.066 1.224-.378 1.773-.564 0-.867-.006-1.659.008-2.452.002-.099.097-.208.172-.292.598-.672 1.207-1.334 1.803-2.008 1.02-1.151 2.031-2.309 3.013-3.425v-1.629c-.991-.205-3.61 2.615-3.683 3.961m5.481 19.265v-.296c-.358-.073-.775-.301-1.064-.191-1.206.457-1.531-.863-2.378-1.089.104-.233.221-.674.309-.668.715.048 1.435.137 2.134.296.67.153 1.326.601 1.975.576a43 43 0 0 0 5.254-.538c.419-.068.751-.676 1.337-1.242-.595-.065-.778-.105-.961-.103-1.64.024-3.28.095-4.919.068-.96-.016-1.918-.281-2.873-.258-.853.02-1.646.157-1.895-.912-2.199.724-2.199.724-2.458 2.452-.165 1.1.774 3.186 1.695 3.592.219.097.596-.09.868-.215.184-.084.285-.348.469-.43.826-.366 1.669-.697 2.507-1.042m2.423 8.447c-.137-.167-.173-.244-.233-.28-1.245-.754-2.503-1.488-3.738-2.258-.645-.401-1.219-.921-1.883-1.28-1.073-.579-2.201-1.056-3.289-1.61-.18-.091-.333-.339-.393-.545-.21-.727-.61-.679-1.151-.369-.261.15-.602.167-.855.326-.37.233-.834.479-.99.836-.106.245.146.83.41 1.016.64.447 1.402.716 2.073 1.125.389.237 1.046.717.989.898-.503 1.576.787 1.217 1.459 1.575.588-1.567 1.527-1.84 2.594-.847.568.528 1.099 1.133 1.754 1.524.904.54 1.913 1.706 2.872.008.038-.071.209-.069.381-.119M30.027 51.9c1.087-1.146.008-1.944-.251-2.824-.381-1.292-1.396-2.17-2.546-2.768-1.556-.808-3.369-1.18-4.415-2.792-.083-.127-.25-.328-.328-.308-.273.072-.701.174-.756.358-.37 1.242.384 2.214 1.212 2.817 1.245.908 2.464 2.144 4.286 1.651.474 1.065.975 2.01 1.316 3.01.315.926.849 1.093 1.482.856m24.971-27.254c-.763 0-1.427-.064-2.072.017-.681.085-1.347.297-2.014.476-.647.173-1.412.11-1.651 1.041-.064.252-.596.388-.916.57-.325.185-.67.341-.979.549-.436.293-.847.622-1.267.937-.39.292-.776.587-1.263.955.385.349.61.618.893.8 1.604 1.032 2.632.678 3.357-1.026.311-.73.456-1.751 1.687-1.598.168.021.428-.195.547-.369.804-1.174 1.958-1.613 3.283-1.369.98.181 1.347-.441 1.759-1.023.109-.155-.045-.743-.175-.779-.456-.125-.954-.097-1.479-.129.112.365.186.604.29.948M19.738 49.16c-.042.731-.084 1.223-.092 1.716-.003.212-.006.528.118.613.187.128.553.213.725.113 1.761-1.023 3.27-.24 4.734.657 1.128.69 1.689.676 2.829-.317-.35-.707-.555-1.361-1.682-1.401-.989-.035-2.152-.416-2.893-1.048-1.352-1.154-2.555-1.048-3.739-.333m31.145-8.071 4.461 2.162.194-.311c-.166-.192-.295-.459-.505-.563-.777-.386-1.29-1.003-1.891-1.599-1.281-1.268-2.984-2.246-4.684-2.908-1.198-.467-2.675-.227-4.028-.279-.118-.005-.243.163-.565.395.521.569 1.021 1.563 1.485 1.546 1.852-.064 3.645.973 5.514.269.146-.055.391.155.662.274zm-26.13-15.423c-.032.633-.075 1.167-.079 1.703-.001.242.038.5.132.719.038.088.362.167.401.12.156-.184.269-.411.362-.637.23-.557.348-1.529.676-1.603.823-.185 1.075-.891 1.639-1.25 1.02-.647.917-1.695.493-2.327-.723-1.078-.756-2.254-1.128-3.817-.386.593-.682.913-.823 1.291-.393 1.05.423 2.482-1.016 3.218-.055.028-.009.227-.039.337-.213.791-.434 1.58-.618 2.246m19.738-10.699c-.531-.848-1.002-.863-1.575.367-.443.951-1.513 1.41-1.681 2.665-.093.689-1.17 1.246-1.873 1.932.538.563.975 1.032 2.03.311.726-.495.749-1.168 1.128-1.732.259-.385.489-.789.809-1.309.208-.175.652-.421.899-.797.198-.3.154-.758.263-1.437M28.062 33.114c.093.403.242.706.215.991-.107 1.149.715 1.041 1.377.984.638-.055 1.261-.292 1.891-.449.213-.419.531-.667.8-.958.279-.303.592-.617.737-.986.136-.344.07-.767.094-1.155-.413.057-.863.027-1.232.185-1.068.458-1.862 1.659-3.284 1.155-.132-.048-.343.127-.598.233m-7.977 11.267c-.647.283-1.178.646-1.753.741-1.496.249-1.537 1.577-1.923 2.573-.127.327.407.911.708 1.516l-.417.604.311.3c.268-.289.573-.551.796-.871.456-.652.809-1.385 1.317-1.99.378-.451.931-.756 1.331-1.067zm9.408-3.651c.505.997 1.325 2.267 2.591 3.093.459.3 1.229.122 1.858.163-.197-.411-.361-.843-.596-1.23-.673-1.111-2.119-1.722-2.122-3.289 0-.106-.42-.309-.631-.291s-.46.216-.593.405c-.178.253-.262.573-.507 1.149m-3.911-.345c-.175.552-.312.992-.455 1.431-.231.705-.009 1.213.747 1.226.814.015 1.282.188 1.467 1.104.057.28.976.649 1.375.537.637-.181.825-.794.221-1.345-.484-.441-1.01-.838-1.491-1.282-.218-.202-.509-.462-.531-.715-.075-.864-.607-.971-1.333-.956m23.481-19.347.796-1.862c-.953.093-1.802.166-2.646.271-.12.015-.262.168-.322.292-.235.479-.442.971-.762 1.687 1.052 1.155 2.025-.792 2.934-.388M9.126 34.149c.169-.946 1.779-1.295.723-2.429-.517-.556-1.154-.71-1.709-.135-.048.399-.257.745-.319 1.115-.048.289-.015.707.164.888.25.254.669.344 1.141.561m45.082-1.275-2.828-.676-.069.339c.82.846 1.728.993 2.897.337M21.64 30.398c.979-.65.924-1.69 0-2.938z" clip-rule="evenodd"/>
</svg>
