<?xml version="1.0" encoding="utf-8"?>
<!-- Generator: Adobe Illustrator 16.0.0, SVG Export Plug-In . SVG Version: 6.00 Build 0)  -->
<!DOCTYPE svg PUBLIC "-//W3C//DTD SVG 1.1//EN" "http://www.w3.org/Graphics/SVG/1.1/DTD/svg11.dtd">
<svg version="1.1" id="Layer_1" xmlns="http://www.w3.org/2000/svg" xmlns:xlink="http://www.w3.org/1999/xlink" x="0px" y="0px"
	 width="72px" height="71.998px" viewBox="0 0 72 71.998" enable-background="new 0 0 72 71.998" xml:space="preserve">
<g>
	<path fill="currentColor" fill-rule="evenodd" clip-rule="evenodd" d="M7.655,32.745c0-0.14,0-0.28,0-0.42c0.846,0.233,1.713,0.41,2.531,0.718
		c0.569,0.214,1.052,0.648,1.611,0.901c0.197,0.089,0.598,0.023,0.747-0.128c0.776-0.789,1.502-1.628,2.244-2.451
		c0.409-0.455,0.338-0.872-0.087-1.279c-0.378-0.361-0.772-0.714-1.097-1.12c-0.343-0.428-0.351-0.879,0.027-1.185
		c0.875,0.24,1.63,0.59,2.397,0.617c0.729,0.025,1.469-0.287,2.408-0.496c-0.155,0.5-0.208,0.728-0.296,0.942
		c-0.279,0.686-0.73,1.347-0.813,2.054c-0.086,0.729-0.461,1.018-0.996,1.32c-0.391,0.221-0.804,0.463-1.084,0.798
		c-0.181,0.216-0.214,0.624-0.187,0.934c0.063,0.708,0.401,1.452,0.258,2.101c-0.153,0.698-0.192,1.424-0.521,2.15
		c-0.437,0.964-0.48,2.256-0.26,3.317c0.155,0.744,0.358,1.322-0.031,2.033c-0.409,0.748,0.026,1.385,0.536,1.868
		c0.523,0.496,0.977,1.169,1.967,0.769c1.263-0.511,2.599-0.841,3.9-1.258c0.041-0.013,0.053-0.115,0.12-0.273
		c-0.974-0.793-1.522-1.877-1.704-3.154c-0.037-0.259-0.215-0.512-0.201-0.761c0.043-0.799,0.143-1.596,0.226-2.393
		c0.037-0.353,0.088-0.703,0.133-1.055c0.382,0.065,0.763,0.14,1.147,0.192c0.249,0.034,0.502,0.036,0.754,0.053
		c-0.002-0.287,0.095-0.635-0.032-0.847c-0.189-0.315-0.512-0.574-0.825-0.789c-0.618-0.425-0.568-0.874-0.169-1.416
		c0.667-0.905,2.493-0.904,3.478-0.014c0.64,0.579,1.299,1.143,2.002,1.64c0.272,0.192,0.689,0.18,1.04,0.261
		c0.052-0.114,0.104-0.228,0.156-0.341c-0.648-0.66-1.291-1.325-1.945-1.978c-0.516-0.515-1.088-0.982-1.549-1.542
		c-0.173-0.211-0.239-0.691-0.119-0.933c0.541-1.094,1.236-1.269,2.279-0.666c0.242,0.14,0.518,0.247,0.714,0.436
		c0.554,0.53,1.149,0.481,1.674,0.319c-0.211-0.744-0.404-1.42-0.6-2.109c1.208-0.356,2.056-0.87,3.204-0.814
		c1.677,0.081,3.183,0.378,4.551,1.365c0.44,0.317,1.012,0.456,1.438,0.786c0.727,0.562,1.45,1.154,2.05,1.841
		c0.421,0.482,0.615,1.156,0.946,1.723c0.445,0.764,1.122,1.43,0.883,2.447c-0.036,0.15,0.059,0.343,0.124,0.503
		c0.476,1.161,0.538,2.308,0.042,3.496c-0.338,0.81,0.084,1.537,0.88,1.439c0.76-0.092,1.248,0.127,1.762,0.627
		c0.186,0.181,0.707,0.25,0.912,0.118c0.261-0.169,0.527-0.621,0.483-0.902c-0.069-0.445-0.304-0.947-0.63-1.254
		c-0.873-0.821-1.107-1.867-1.343-2.942c1.271-0.413,1.324-0.274,2.053,0.587c0.465,0.549,1.251,0.923,1.964,1.133
		c0.55,0.162,1.216-0.021,1.821-0.112c0.5-0.076,0.912,0.058,0.931,0.549c0.009,0.265-0.318,0.647-0.592,0.797
		c-0.711,0.39-1.64,0.491-1.639,1.619c0,0.33-0.339,0.77-0.215,0.965c0.176,0.278,0.619,0.427,0.977,0.544
		c0.6,0.196,1.222,0.323,1.934,0.505c0.017-0.024,0.194-0.168,0.183-0.294c-0.082-0.851-0.232-1.696-0.3-2.548
		c-0.038-0.469-0.137-1.081,0.102-1.396c0.671-0.889,1.446-1.585,1.049-2.938c-0.257-0.877-0.541-1.721-1.405-1.687
		c-1.737,0.07-3.062-0.751-4.335-1.727c-0.231-0.177-0.271-0.605-0.397-0.917c0.34-0.058,0.853-0.287,0.99-0.147
		c0.782,0.797,1.827,0.739,2.773,0.919c0.346,0.065,0.791-0.303,1.157-0.528c0.062-0.038,0.021-0.428-0.089-0.529
		c-0.813-0.749-1.623-1.51-2.5-2.18c-0.709-0.541-1.846-0.491-2.178-1.572c-0.014-0.047-0.114-0.096-0.177-0.098
		c-0.983-0.036-1.496-0.75-2.127-1.362c-0.486-0.471-1.128-0.844-1.767-1.084c-1.932-0.728-3.896-1.369-5.847-2.043
		c-0.003-0.13-0.006-0.26-0.01-0.39c1.122-0.923,2.569,0.042,3.845-0.322c-0.272-0.814-0.449-1.555-1.521-1.581
		c-0.48-0.012-0.654-0.451-0.438-0.953c0.3-0.695,0.997-0.995,1.614-0.563c0.76,0.534,1.44,1.18,2.164,1.767
		c0.479,0.389,0.874,0.985,1.769,0.761c-0.129-0.419-0.215-0.785-0.354-1.128c-0.296-0.731-0.848-1.443-0.877-2.179
		c-0.039-0.973-0.571-1.395-1.205-1.894c-0.203-0.16-0.246-0.526-0.362-0.798c0.064-0.047,0.129-0.094,0.193-0.141
		c1.252,0.435,2.504,0.869,4.078,1.416c0.603-0.069,1.246-1.664,2.775-0.516c-0.302,0.168-0.481,0.265-0.658,0.367
		c-0.576,0.335-0.554,0.839-0.172,1.226c0.408,0.412,0.26,0.738,0.177,1.205c-0.166,0.923-0.866,1.957,0.303,2.763
		c0.094,0.065,0.028,0.334,0.076,0.497c0.136,0.462,0.211,0.967,0.457,1.366c0.422,0.687,0.893,1.369,1.46,1.936
		c0.529,0.53,1.158,1.065,1.845,1.298c0.436,0.148,1.101-0.176,1.572-0.446c0.157-0.09,0.186-0.824,0.009-1.005
		c-0.931-0.951-1.639-2.207-3.172-2.409c-0.437-0.058-1.011-0.254-0.913-0.909c0.088-0.583,0.737-0.829,1.441-0.585
		c0.396,0.137,0.77,0.339,1.17,0.458c0.748,0.222,1.058-0.354,1.398-0.837c0.329-0.467,0.142-0.837-0.218-1.2
		c-0.574-0.58-1.133-1.089-2.06-1.056c-0.852,0.03-1.105-0.4-0.968-1.243c0.042-0.261-0.005-0.55-0.067-0.813
		c-0.344-1.451-1.529-2.237-2.579-3.084c-0.537-0.434-1.205-0.601-2.038-0.435c-0.795,0.158-1.705-0.158-2.545-0.352
		c-1.138-0.262-2.253-0.625-3.389-0.897c-0.247-0.059-0.553,0.052-0.813,0.138c-0.724,0.238-1.436,0.515-2.159,0.755
		c-0.992,0.331-2.518,1.94-2.312,2.738c0.324,1.26-0.421,2.183-0.723,3.24c-0.157,0.549-0.842,0.653-1.131,0.22
		c-0.102-0.152-0.086-0.395-0.096-0.597c-0.053-1.202-0.305-1.396-1.483-1.019c-0.48,0.154-0.913,0.451-1.385,0.635
		c-0.314,0.122-0.661,0.159-1.237,0.29c0.548-1.326,1.31-2.095,2.18-2.795c1.087-0.876,2.236-1.683,2.766-3.092
		c0.188-0.501,0.108-0.738-0.324-0.881c-1.27-0.42-2.582-0.42-3.741,0.204c-0.844,0.454-1.667,0.66-2.58,0.615
		c-0.962-0.048-1.925-0.126-2.882-0.242c-0.185-0.022-0.502-0.319-0.478-0.425c0.063-0.274,0.234-0.667,0.449-0.734
		c0.588-0.181,1.266-0.406,1.826-0.272c1.109,0.264,2.088-0.012,3.074-0.378c0.685-0.254,1.345-0.579,2.006-0.893
		c1.232-0.586,2.581-0.498,3.7-0.026c0.841,0.354,1.573,0.539,2.45,0.485c1.259-0.078,1.692-0.698,1.739-1.947
		c0.021-0.563,0.645-1.143,1.098-1.616c0.093-0.097,0.646,0.249,1.027,0.406c-0.807,1.159-0.803,1.154,0.074,2.016
		c0.373,0.366,0.679,0.814,1.093,1.119c0.406,0.298,0.896,0.506,1.378,0.668c0.416,0.141,0.871,0.187,1.313,0.225
		c0.222,0.019,0.531-0.002,0.657-0.138c0.112-0.122,0.063-0.432,0.024-0.649c-0.058-0.323-0.187-0.632-0.252-0.954
		c-0.405-2.002-0.725-2.865-3.025-3.147c-0.604-0.074-1.088-0.271-1.043-1.012c0.21,0,0.42,0,0.63,0
		c0.291,0.157,0.622,0.496,0.865,0.441c1.332-0.299,2.259,0.776,3.448,0.828c0.032,0.438-0.066,0.87,0.105,1.106
		c0.609,0.841,1.311,1.615,2.171,2.646c0.084-0.676,0.129-1.179,0.215-1.674c0.045-0.258,0.159-0.505,0.242-0.757
		c0.28,0.094,0.625,0.12,0.822,0.304c0.169,0.156,0.16,0.497,0.245,0.751c0.162,0.49,0.292,0.998,0.515,1.459
		c0.222,0.458,0.54,0.871,0.845,1.348c0.936-0.211,1.017-0.317,1.947-1.657c0.192-0.276,0.665-0.358,1.008-0.53
		c0.083,0.33,0.257,0.667,0.23,0.988c-0.062,0.735,0.253,0.947,1.027,1.038c1.066,0.124,2.11,0.453,3.16,0.71
		c0.044,0.011,0.052,0.175,0.1,0.356c-0.959,0-1.871,0-2.783,0c-0.925,0-1.851,0-3.04,0c1.105,1.009,0.542,1.884,0.165,2.735
		c-0.21,0.471-0.273,0.852,0.137,1.225c0.749,0.679,1.477,1.384,2.249,2.035c0.266,0.224,0.642,0.317,0.965,0.47
		c0.734-1.557,1.956-2.375,3.287-3.132c0.164,0.987,0.196,1.891,0.218,2.795c0.002,0.058-0.064,0.122-0.109,0.175
		c-0.617,0.738-1.173,1.545-1.878,2.188c-0.445,0.407-0.609,0.676-0.479,1.305c0.146,0.705-0.035,1.47,0.002,2.205
		c0.019,0.36,0.21,0.711,0.323,1.066c0.274-0.2,0.608-0.353,0.812-0.61c0.563-0.712,1.307-0.932,1.877-0.342
		c0.586,0.605,1.123,0.465,1.805,0.286c0.402-0.105,0.899,0.066,1.332,0.189c0.256,0.072,0.479,0.28,0.702,0.447
		c0.19,0.144,0.359,0.317,0.538,0.478c-0.302,0.077-0.678,0.308-0.894,0.205c-1.217-0.581-2.034,0.166-2.879,0.793
		c-0.809,0.6-1.529,1.331-2.38,1.857c-0.685,0.423-0.927,0.922-0.997,1.69c-0.083,0.901,0.264,1.882-0.428,2.71
		c-0.076,0.091,0.111,0.564,0.29,0.675c0.516,0.321,1.089,0.547,1.821,0.896c-0.253,0.46-0.495,0.97-0.799,1.439
		c-0.439,0.678-0.937,1.318-1.385,1.991c-0.308,0.461-0.272,0.855,0.32,1.069c0.643,0.231,0.788,0.624,0.41,1.214
		c-0.679,1.059-0.405,2.217-0.162,3.292c0.174,0.764,0.711,1.445,1.031,2.06c0.366-0.27,0.706-0.57,1.092-0.793
		c0.734-0.425,1.333-0.953,1.332-1.859c-0.002-1.042-0.349-2.111,0.399-3.065c0.088-0.111-0.009-0.399-0.07-0.59
		c-0.256-0.8-0.53-1.595-0.801-2.397c0.412-0.169,0.709-0.269,0.986-0.408c0.906-0.458,0.964-0.697,0.425-1.577
		c-0.268-0.436-0.579-0.857-0.77-1.326c-0.199-0.49-0.284-1.028-0.404-1.549c-0.051-0.218-0.065-0.445-0.097-0.668
		c0.254,0.008,0.561-0.073,0.749,0.042c0.504,0.307,0.965,0.688,1.429,1.057c0.505,0.4,0.903,0.287,1.394-0.098
		c0.736-0.578,0.675-1.247,0.335-1.988c1.417-0.084,1.941,0.589,1.484,1.741c-0.365,0.918-0.563,1.929-1.068,2.756
		C62.814,37.4,62.975,38,62.893,38.627c-0.118,0.902-0.627,1.768-0.084,2.715c0.095,0.165-0.135,0.575-0.297,0.817
		c-0.585,0.872-1.534,1.615-0.865,2.874c0.066,0.125-0.046,0.339-0.056,0.512c-0.049,0.805,0.244,1.432,0.983,1.806
		c0.607,0.307,1.223,0.6,1.97,0.965c-0.449,0.722-0.999,1.313-1.213,2.007c-0.65,2.107-2.255,3.521-3.643,5.04
		c-1.494,1.635-3.378,2.908-4.921,4.504c-1.447,1.498-3.334,2.189-5.107,2.984c-1.973,0.886-4.193,1.204-6.274,1.871
		c-2.15,0.688-4.353,0.764-6.57,0.794c-1.322,0.018-2.605-0.043-3.911-0.46c-1.334-0.426-2.798-0.425-4.173-0.746
		c-0.975-0.228-1.888-0.709-2.845-1.025c-2.159-0.713-4.189-1.687-6.012-3.039c-0.805-0.598-1.504-1.343-2.219-2.055
		c-1.508-1.503-3.06-2.971-4.462-4.568c-0.751-0.855-1.719-1.634-1.845-2.939c-0.067-0.707,0.093-1.033,0.817-1.146
		c1.104-0.172,1.116-0.176,0.817-1.215c-0.094-0.328-0.316-0.62-0.404-0.948c-0.157-0.588-0.315-1.187-0.366-1.789
		c-0.102-1.213,0.068-2.438-0.538-3.604c-0.438-0.842-0.539-1.771,0.123-2.633c0.599-0.779,0.643-1.831,0.105-2.449
		C10.609,35.408,9.086,34.116,7.655,32.745z M24.17,49.028c0.13-0.002,0.261-0.003,0.391-0.005c-0.487-1.057,0.19-1.27,0.814-1.557
		c0.686-0.315,1.218-0.761,1.037-1.809c-0.419,0.183-0.847,0.241-1.061,0.486c-0.563,0.646-1.229,0.851-2.046,0.798
		c-0.203-0.014-0.559,0.107-0.593,0.234c-0.06,0.224-0.01,0.579,0.143,0.738C23.251,48.327,23.727,48.662,24.17,49.028z
		 M34.683,45.011c-0.315,0.804-0.315,0.804,0.452,0.888c-0.514-1.02,0.22-1.439,0.842-1.948c0.2-0.164,0.289-0.464,0.428-0.701
		c-0.292-0.147-0.578-0.396-0.878-0.415c-0.323-0.021-0.657,0.184-0.989,0.277c-0.953,0.268-1.059,0.567-0.445,1.352
		C34.24,44.65,34.445,44.793,34.683,45.011z M32.711,44.677c-0.05-0.048-0.101-0.095-0.151-0.143
		c-0.777,0.172-1.554,0.343-2.357,0.521c0.241,0.576,0.456,1.093,0.769,1.841C31.601,46.093,32.156,45.385,32.711,44.677z
		 M52.705,52.791c0.058,0.092,0.114,0.183,0.171,0.274c0.276-0.227,0.665-0.398,0.807-0.689c0.371-0.766,0.759-1.279,1.742-0.948
		c0.492,0.165,0.981-0.032,1.307-0.556C54.217,50.327,54.27,50.518,52.705,52.791z M47.682,50.621
		c0.061,0.091,0.121,0.182,0.182,0.272c0.434-0.204,0.888-0.376,1.291-0.629c0.145-0.091,0.167-0.378,0.246-0.575
		c-0.218-0.027-0.51-0.157-0.639-0.063C48.368,49.911,48.037,50.283,47.682,50.621z M46.658,54.405
		c-0.29-0.543-0.484-0.908-0.679-1.272c-0.06,0.005-0.118,0.01-0.178,0.015c-0.085,0.444-0.169,0.889-0.284,1.488
		C45.974,54.544,46.249,54.488,46.658,54.405z M50.429,53.726c-0.03-0.109-0.062-0.218-0.092-0.327
		c-0.258,0.094-0.515,0.188-0.771,0.283c0.037,0.101,0.074,0.201,0.112,0.302C49.928,53.897,50.179,53.812,50.429,53.726z
		 M28.729,31.732c-0.047,0.077-0.094,0.154-0.141,0.231c0.179,0.09,0.358,0.181,0.538,0.271c0.034-0.066,0.068-0.132,0.103-0.199
		C29.062,31.934,28.895,31.833,28.729,31.732z M46.438,11.74c-0.071,0.045-0.144,0.09-0.215,0.135
		c0.102,0.177,0.204,0.354,0.307,0.53c0.079-0.057,0.231-0.153,0.225-0.165C46.661,12.067,46.547,11.905,46.438,11.74z
		 M37.532,42.649c0.015,0.075,0.03,0.151,0.046,0.227c0.117-0.026,0.24-0.04,0.347-0.091c0.022-0.011-0.019-0.155-0.03-0.238
		C37.773,42.581,37.652,42.615,37.532,42.649z"/>
</g>
</svg>
