<svg xmlns="http://www.w3.org/2000/svg" xml:space="preserve" width="72px" height="72px" viewBox="0 0 72 72">
    <path fill="currentColor" fill-rule="evenodd" d="M7.655 32.745v-.42c.846.233 1.713.41 2.531.718.569.214 1.052.648 1.611.901.197.089.598.023.747-.128.776-.789 1.502-1.628 2.244-2.451.409-.455.338-.872-.087-1.279-.378-.361-.772-.714-1.097-1.12-.343-.428-.351-.879.027-1.185.875.24 1.63.59 2.397.617.729.025 1.469-.287 2.408-.496-.155.5-.208.728-.296.942-.279.686-.73 1.347-.813 2.054-.086.729-.461 1.018-.996 1.32-.391.221-.804.463-1.084.798-.181.216-.214.624-.187.934.063.708.401 1.452.258 2.101-.153.698-.192 1.424-.521 2.15-.437.964-.48 2.256-.26 3.317.155.744.358 1.322-.031 2.033-.409.748.026 1.385.536 1.868.523.496.977 1.169 1.967.769 1.263-.511 2.599-.841 3.9-1.258.041-.013.053-.115.12-.273-.974-.793-1.522-1.877-1.704-3.154-.037-.259-.215-.512-.201-.761.043-.799.143-1.596.226-2.393.037-.353.088-.703.133-1.055.382.065.763.14 1.147.192.249.034.502.036.754.053-.002-.287.095-.635-.032-.847-.189-.315-.512-.574-.825-.789-.618-.425-.568-.874-.169-1.416.667-.905 2.493-.904 3.478-.014.64.579 1.299 1.143 2.002 1.64.272.192.689.18 1.04.261l.156-.341c-.648-.66-1.291-1.325-1.945-1.978-.516-.515-1.088-.982-1.549-1.542-.173-.211-.239-.691-.119-.933.541-1.094 1.236-1.269 2.279-.666.242.14.518.247.714.436.554.53 1.149.481 1.674.319l-.6-2.109c1.208-.356 2.056-.87 3.204-.814 1.677.081 3.183.378 4.551 1.365.44.317 1.012.456 1.438.786.727.562 1.45 1.154 2.05 1.841.421.482.615 1.156.946 1.723.445.764 1.122 1.43.883 2.447-.036.15.059.343.124.503.476 1.161.538 2.308.042 3.496-.338.81.084 1.537.88 1.439.76-.092 1.248.127 1.762.627.186.181.707.25.912.118.261-.169.527-.621.483-.902-.069-.445-.304-.947-.63-1.254-.873-.821-1.107-1.867-1.343-2.942 1.271-.413 1.324-.274 2.053.587.465.549 1.251.923 1.964 1.133.55.162 1.216-.021 1.821-.112.5-.076.912.058.931.549.009.265-.318.647-.592.797-.711.39-1.64.491-1.639 1.619 0 .33-.339.77-.215.965.176.278.619.427.977.544.6.196 1.222.323 1.934.505.017-.024.194-.168.183-.294-.082-.851-.232-1.696-.3-2.548-.038-.469-.137-1.081.102-1.396.671-.889 1.446-1.585 1.049-2.938-.257-.877-.541-1.721-1.405-1.687-1.737.07-3.062-.751-4.335-1.727-.231-.177-.271-.605-.397-.917.34-.058.853-.287.99-.147.782.797 1.827.739 2.773.919.346.065.791-.303 1.157-.528.062-.038.021-.428-.089-.529-.813-.749-1.623-1.51-2.5-2.18-.709-.541-1.846-.491-2.178-1.572-.014-.047-.114-.096-.177-.098-.983-.036-1.496-.75-2.127-1.362-.486-.471-1.128-.844-1.767-1.084-1.932-.728-3.896-1.369-5.847-2.043l-.01-.39c1.122-.923 2.569.042 3.845-.322-.272-.814-.449-1.555-1.521-1.581-.48-.012-.654-.451-.438-.953.3-.695.997-.995 1.614-.563.76.534 1.44 1.18 2.164 1.767.479.389.874.985 1.769.761-.129-.419-.215-.785-.354-1.128-.296-.731-.848-1.443-.877-2.179-.039-.973-.571-1.395-1.205-1.894-.203-.16-.246-.526-.362-.798l.193-.141 4.078 1.416c.603-.069 1.246-1.664 2.775-.516-.302.168-.481.265-.658.367-.576.335-.554.839-.172 1.226.408.412.26.738.177 1.205-.166.923-.866 1.957.303 2.763.094.065.028.334.076.497.136.462.211.967.457 1.366.422.687.893 1.369 1.46 1.936.529.53 1.158 1.065 1.845 1.298.436.148 1.101-.176 1.572-.446.157-.09.186-.824.009-1.005-.931-.951-1.639-2.207-3.172-2.409-.437-.058-1.011-.254-.913-.909.088-.583.737-.829 1.441-.585.396.137.77.339 1.17.458.748.222 1.058-.354 1.398-.837.329-.467.142-.837-.218-1.2-.574-.58-1.133-1.089-2.06-1.056-.852.03-1.105-.4-.968-1.243.042-.261-.005-.55-.067-.813-.344-1.451-1.529-2.237-2.579-3.084-.537-.434-1.205-.601-2.038-.435-.795.158-1.705-.158-2.545-.352-1.138-.262-2.253-.625-3.389-.897-.247-.059-.553.052-.813.138-.724.238-1.436.515-2.159.755-.992.331-2.518 1.94-2.312 2.738.324 1.26-.421 2.183-.723 3.24-.157.549-.842.653-1.131.22-.102-.152-.086-.395-.096-.597-.053-1.202-.305-1.396-1.483-1.019-.48.154-.913.451-1.385.635-.314.122-.661.159-1.237.29.548-1.326 1.31-2.095 2.18-2.795 1.087-.876 2.236-1.683 2.766-3.092.188-.501.108-.738-.324-.881-1.27-.42-2.582-.42-3.741.204-.844.454-1.667.66-2.58.615a41 41 0 0 1-2.882-.242c-.185-.022-.502-.319-.478-.425.063-.274.234-.667.449-.734.588-.181 1.266-.406 1.826-.272 1.109.264 2.088-.012 3.074-.378.685-.254 1.345-.579 2.006-.893 1.232-.586 2.581-.498 3.7-.026.841.354 1.573.539 2.45.485 1.259-.078 1.692-.698 1.739-1.947.021-.563.645-1.143 1.098-1.616.093-.097.646.249 1.027.406-.807 1.159-.803 1.154.074 2.016.373.366.679.814 1.093 1.119.406.298.896.506 1.378.668.416.141.871.187 1.313.225.222.019.531-.002.657-.138.112-.122.063-.432.024-.649-.058-.323-.187-.632-.252-.954-.405-2.002-.725-2.865-3.025-3.147-.604-.074-1.088-.271-1.043-1.012h.63c.291.157.622.496.865.441 1.332-.299 2.259.776 3.448.828.032.438-.066.87.105 1.106.609.841 1.311 1.615 2.171 2.646.084-.676.129-1.179.215-1.674.045-.258.159-.505.242-.757.28.094.625.12.822.304.169.156.16.497.245.751.162.49.292.998.515 1.459.222.458.54.871.845 1.348.936-.211 1.017-.317 1.947-1.657.192-.276.665-.358 1.008-.53.083.33.257.667.23.988-.062.735.253.947 1.027 1.038 1.066.124 2.11.453 3.16.71.044.011.052.175.1.356h-5.823c1.105 1.009.542 1.884.165 2.735-.21.471-.273.852.137 1.225.749.679 1.477 1.384 2.249 2.035.266.224.642.317.965.47.734-1.557 1.956-2.375 3.287-3.132.164.987.196 1.891.218 2.795.002.058-.064.122-.109.175-.617.738-1.173 1.545-1.878 2.188-.445.407-.609.676-.479 1.305.146.705-.035 1.47.002 2.205.019.36.21.711.323 1.066.274-.2.608-.353.812-.61.563-.712 1.307-.932 1.877-.342.586.605 1.123.465 1.805.286.402-.105.899.066 1.332.189.256.072.479.28.702.447.19.144.359.317.538.478-.302.077-.678.308-.894.205-1.217-.581-2.034.166-2.879.793-.809.6-1.529 1.331-2.38 1.857-.685.423-.927.922-.997 1.69-.083.901.264 1.882-.428 2.71-.076.091.111.564.29.675.516.321 1.089.547 1.821.896-.253.46-.495.97-.799 1.439-.439.678-.937 1.318-1.385 1.991-.308.461-.272.855.32 1.069.643.231.788.624.41 1.214-.679 1.059-.405 2.217-.162 3.292.174.764.711 1.445 1.031 2.06.366-.27.706-.57 1.092-.793.734-.425 1.333-.953 1.332-1.859-.002-1.042-.349-2.111.399-3.065.088-.111-.009-.399-.07-.59-.256-.8-.53-1.595-.801-2.397.412-.169.709-.269.986-.408.906-.458.964-.697.425-1.577-.268-.436-.579-.857-.77-1.326-.199-.49-.284-1.028-.404-1.549-.051-.218-.065-.445-.097-.668.254.008.561-.073.749.042.504.307.965.688 1.429 1.057.505.4.903.287 1.394-.098.736-.578.675-1.247.335-1.988 1.417-.084 1.941.589 1.484 1.741-.365.918-.563 1.929-1.068 2.756-.393.649-.232 1.249-.314 1.876-.118.902-.627 1.768-.084 2.715.095.165-.135.575-.297.817-.585.872-1.534 1.615-.865 2.874.066.125-.046.339-.056.512-.049.805.244 1.432.983 1.806.607.307 1.223.6 1.97.965-.449.722-.999 1.313-1.213 2.007-.65 2.107-2.255 3.521-3.643 5.04-1.494 1.635-3.378 2.908-4.921 4.504-1.447 1.498-3.334 2.189-5.107 2.984-1.973.886-4.193 1.204-6.274 1.871-2.15.688-4.353.764-6.57.794-1.322.018-2.605-.043-3.911-.46-1.334-.426-2.798-.425-4.173-.746-.975-.228-1.888-.709-2.845-1.025-2.159-.713-4.189-1.687-6.012-3.039-.805-.598-1.504-1.343-2.219-2.055-1.508-1.503-3.06-2.971-4.462-4.568-.751-.855-1.719-1.634-1.845-2.939-.067-.707.093-1.033.817-1.146 1.104-.172 1.116-.176.817-1.215-.094-.328-.316-.62-.404-.948-.157-.588-.315-1.187-.366-1.789-.102-1.213.068-2.438-.538-3.604-.438-.842-.539-1.771.123-2.633.599-.779.643-1.831.105-2.449-1.294-1.492-2.817-2.784-4.248-4.155M24.17 49.028l.391-.005c-.487-1.057.19-1.27.814-1.557.686-.315 1.218-.761 1.037-1.809-.419.183-.847.241-1.061.486-.563.646-1.229.851-2.046.798-.203-.014-.559.107-.593.234-.06.224-.01.579.143.738.396.414.872.749 1.315 1.115m10.513-4.017c-.315.804-.315.804.452.888-.514-1.02.22-1.439.842-1.948.2-.164.289-.464.428-.701-.292-.147-.578-.396-.878-.415-.323-.021-.657.184-.989.277-.953.268-1.059.567-.445 1.352.147.186.352.329.59.547m-1.972-.334-.151-.143-2.357.521.769 1.841zm19.994 8.114.171.274c.276-.227.665-.398.807-.689.371-.766.759-1.279 1.742-.948.492.165.981-.032 1.307-.556-2.515-.545-2.462-.354-4.027 1.919m-5.023-2.17.182.272c.434-.204.888-.376 1.291-.629.145-.091.167-.378.246-.575-.218-.027-.51-.157-.639-.063-.394.285-.725.657-1.08.995m-1.024 3.784-.679-1.272-.178.015-.284 1.488zm3.771-.679-.092-.327-.771.283.112.302zm-21.7-21.994-.141.231.538.271.103-.199zM46.438 11.74l-.215.135.307.53c.079-.057.231-.153.225-.165-.094-.173-.208-.335-.317-.5m-8.906 30.909.046.227c.117-.026.24-.04.347-.091.022-.011-.019-.155-.03-.238z" clip-rule="evenodd"/>
</svg>
