<?xml version="1.0" encoding="utf-8"?>
<!-- Generator: Adobe Illustrator 16.0.0, SVG Export Plug-In . SVG Version: 6.00 Build 0)  -->
<!DOCTYPE svg PUBLIC "-//W3C//DTD SVG 1.1//EN" "http://www.w3.org/Graphics/SVG/1.1/DTD/svg11.dtd">
<svg version="1.1" id="Layer_1" xmlns="http://www.w3.org/2000/svg" xmlns:xlink="http://www.w3.org/1999/xlink" x="0px" y="0px"
	 width="72px" height="71.998px" viewBox="0 0 72 71.998" enable-background="new 0 0 72 71.998" xml:space="preserve">
<g>
	<path fill="currentColor" fill-rule="evenodd" clip-rule="evenodd" d="M14.02,62.627c-0.335,0-0.67,0-1.005,0c-0.112-0.819-0.336-1.642-0.315-2.458
		c0.054-2.074,0.236-4.146,0.332-6.219c0.188-4.065,0.388-8.132,0.506-12.2c0.046-1.6,0.244-3.298-1.265-4.508
		c-0.187-0.149-0.183-0.532-0.277-0.804c-0.172-0.499-0.25-1.067-0.546-1.479c-0.825-1.152-1.072-2.406-0.995-3.786
		c0.027-0.48-0.13-0.97-0.204-1.455c0-0.502,0-1.005,0-1.507c0.382-2.566,0.796-5.128,1.13-7.701
		c0.139-1.072,0.211-2.083,1.522-2.398c0.245-0.059,0.577-0.324,0.625-0.546c0.282-1.317,1.27-1.993,2.247-2.736
		c0.754-0.573,1.454-0.987,2.38-0.446c0.939,0.549,1.296,1.324,1.102,2.422c-0.2,1.126-0.401,2.277-0.359,3.408
		c0.016,0.441,0.693,0.858,1.069,1.287c0.255-0.458,0.706-0.906,0.733-1.378c0.122-2.086,0.18-4.18,0.14-6.269
		c-0.02-1.016,0.342-1.589,1.283-1.842c0.886-0.238,1.776-0.463,2.664-0.692c1.386-0.357,2.942,0.802,2.986,2.249
		c0.032,1.069-0.005,2.141,0.026,3.21c0.079,2.655,0.327,2.904,2.898,2.616c0.38-0.042,0.968-0.57,1.006-0.922
		c0.166-1.53,0.134-3.079,0.233-4.617c0.072-1.119,0.035-2.315,0.454-3.306c0.179-0.423,1.392-0.409,2.134-0.597
		c0.036-0.009,0.064-0.052,0.096-0.08c1.089,0,2.177,0,3.266,0c2.118,0.719,2.091,0.806,1.962,3.137
		c-0.095,1.693,0.005,3.406,0.138,5.102c0.102,1.288,0.684,1.604,2.189,1.533c1.132-0.053,1.798-0.479,1.8-1.73
		c0.004-1.543,0.089-3.085,0.153-4.627c0.067-1.587,0.982-2.538,2.579-2.369c1.177,0.125,2.333,0.559,3.46,0.962
		c0.321,0.115,0.681,0.579,0.728,0.923c0.141,1.024,0.136,2.068,0.186,3.104c0.058,1.167,0.023,2.348,0.214,3.492
		c0.075,0.456,0.646,0.828,0.992,1.238c0.219-0.445,0.618-0.888,0.623-1.335c0.015-1.409-0.176-2.818-0.176-4.228
		c-0.001-1.106,0.891-1.711,1.969-1.436c1.61,0.412,2.928,1.154,3.502,2.881c0.148,0.444,0.675,0.756,1.006,1.147
		c0.374,0.442,0.984,0.875,1.041,1.365c0.417,3.572,1.271,7.075,1.397,10.708c0.057,1.605,0.236,2.95-0.827,4.292
		c-0.607,0.768-0.971,1.745-1.356,2.664c-0.254,0.604-0.536,1.288-0.49,1.913c0.354,4.809,0.813,9.609,1.163,14.418
		c0.051,0.688-0.086,1.81-0.508,2.033c-1.172,0.624-2.421,1.65-3.936,0.609c-0.252-0.173-0.799-0.171-1.075-0.014
		c-2.76,1.561-5.879,0.151-8.703,1.093c-0.031,0.01-0.077-0.025-0.117-0.033c-1.8-0.34-3.469,0.258-5.166,0.698
		c-0.499,0.13-1.085,0.283-1.543,0.142c-1.142-0.352-2.118-0.206-3.253,0.2c-1.364,0.488-2.885,0.558-4.346,0.75
		c-1.172,0.155-2.424,0.017-3.518,0.379c-1.676,0.555-3.251,1.386-5.08,0.698c-0.095-0.036-0.236,0.044-0.353,0.079
		c-2.16,0.659-4.329,1.292-6.476,1.994C15.352,61.889,14.699,62.298,14.02,62.627z M38.777,42.69
		c-0.042-0.003-0.084-0.005-0.126-0.008c0.018-0.291,0.013-0.587,0.056-0.874c0.211-1.393-0.16-2.617-0.96-3.762
		c-0.615-0.881-1.448-0.914-2.337-0.685c-0.85,0.219-1.695,0.455-1.722,1.634c-0.058,2.488-0.27,4.976-0.25,7.463
		c0.022,2.766,0.104,2.765,2.856,3.013c0.083,0.008,0.167,0.011,0.25,0.021c1.094,0.122,1.805-0.294,1.894-1.448
		C38.574,46.262,38.666,44.475,38.777,42.69z M22.15,44.891c-0.034-0.003-0.068-0.005-0.102-0.007c0-1.58,0.068-3.165-0.041-4.737
		c-0.034-0.482-0.466-1.054-0.882-1.354c-0.286-0.206-1.15-0.169-1.253,0.026c-0.469,0.887-1.035,1.86-1.063,2.816
		c-0.072,2.559,0.114,5.124,0.197,7.687c0.024,0.747,0.101,1.48,1.09,1.496c0.906,0.015,1.673-0.208,1.745-1.325
		C21.942,47.959,22.048,46.425,22.15,44.891z M52.668,43.644c0.144-0.034,0.288-0.068,0.433-0.103
		c-0.396-1.485-0.751-2.983-1.204-4.451c-0.208-0.674-0.603-1.455-1.485-1.167c-0.823,0.271-0.905,1.036-0.807,1.872
		c0.208,1.757,0.309,3.526,0.465,5.289c0.121,1.364,0.235,2.731,0.401,4.091c0.094,0.765,0.541,1.188,1.371,1.123
		c0.835-0.065,1.322-0.458,1.336-1.33c0.007-0.456,0.033-0.917-0.018-1.368C53.015,46.278,52.834,44.962,52.668,43.644z"/>
</g>
</svg>
