<svg xmlns="http://www.w3.org/2000/svg" xml:space="preserve" width="72px" height="72px" viewBox="0 0 72 72">
    <path fill="currentColor" fill-rule="evenodd" d="M14.02 62.627h-1.005c-.112-.819-.336-1.642-.315-2.458.054-2.074.236-4.146.332-6.219.188-4.065.388-8.132.506-12.2.046-1.6.244-3.298-1.265-4.508-.187-.149-.183-.532-.277-.804-.172-.499-.25-1.067-.546-1.479-.825-1.152-1.072-2.406-.995-3.786.027-.48-.13-.97-.204-1.455v-1.507c.382-2.566.796-5.128 1.13-7.701.139-1.072.211-2.083 1.522-2.398.245-.059.577-.324.625-.546.282-1.317 1.27-1.993 2.247-2.736.754-.573 1.454-.987 2.38-.446.939.549 1.296 1.324 1.102 2.422-.2 1.126-.401 2.277-.359 3.408.016.441.693.858 1.069 1.287.255-.458.706-.906.733-1.378.122-2.086.18-4.18.14-6.269-.02-1.016.342-1.589 1.283-1.842.886-.238 1.776-.463 2.664-.692 1.386-.357 2.942.802 2.986 2.249.032 1.069-.005 2.141.026 3.21.079 2.655.327 2.904 2.898 2.616.38-.042.968-.57 1.006-.922.166-1.53.134-3.079.233-4.617.072-1.119.035-2.315.454-3.306.179-.423 1.392-.409 2.134-.597.036-.009.064-.052.096-.08h3.266c2.118.719 2.091.806 1.962 3.137-.095 1.693.005 3.406.138 5.102.102 1.288.684 1.604 2.189 1.533 1.132-.053 1.798-.479 1.8-1.73.004-1.543.089-3.085.153-4.627.067-1.587.982-2.538 2.579-2.369 1.177.125 2.333.559 3.46.962.321.115.681.579.728.923.141 1.024.136 2.068.186 3.104.058 1.167.023 2.348.214 3.492.075.456.646.828.992 1.238.219-.445.618-.888.623-1.335.015-1.409-.176-2.818-.176-4.228-.001-1.106.891-1.711 1.969-1.436 1.61.412 2.928 1.154 3.502 2.881.148.444.675.756 1.006 1.147.374.442.984.875 1.041 1.365.417 3.572 1.271 7.075 1.397 10.708.057 1.605.236 2.95-.827 4.292-.607.768-.971 1.745-1.356 2.664-.254.604-.536 1.288-.49 1.913.354 4.809.813 9.609 1.163 14.418.051.688-.086 1.81-.508 2.033-1.172.624-2.421 1.65-3.936.609-.252-.173-.799-.171-1.075-.014-2.76 1.561-5.879.151-8.703 1.093-.031.01-.077-.025-.117-.033-1.8-.34-3.469.258-5.166.698-.499.13-1.085.283-1.543.142-1.142-.352-2.118-.206-3.253.2-1.364.488-2.885.558-4.346.75-1.172.155-2.424.017-3.518.379-1.676.555-3.251 1.386-5.08.698-.095-.036-.236.044-.353.079-2.16.659-4.329 1.292-6.476 1.994-.713.234-1.366.643-2.045.972M38.777 42.69l-.126-.008c.018-.291.013-.587.056-.874.211-1.393-.16-2.617-.96-3.762-.615-.881-1.448-.914-2.337-.685-.85.219-1.695.455-1.722 1.634-.058 2.488-.27 4.976-.25 7.463.022 2.766.104 2.765 2.856 3.013.083.008.167.011.25.021 1.094.122 1.805-.294 1.894-1.448.136-1.782.228-3.569.339-5.354M22.15 44.891l-.102-.007c0-1.58.068-3.165-.041-4.737-.034-.482-.466-1.054-.882-1.354-.286-.206-1.15-.169-1.253.026-.469.887-1.035 1.86-1.063 2.816-.072 2.559.114 5.124.197 7.687.024.747.101 1.48 1.09 1.496.906.015 1.673-.208 1.745-1.325.101-1.534.207-3.068.309-4.602m30.518-1.247.433-.103c-.396-1.485-.751-2.983-1.204-4.451-.208-.674-.603-1.455-1.485-1.167-.823.271-.905 1.036-.807 1.872.208 1.757.309 3.526.465 5.289.121 1.364.235 2.731.401 4.091.094.765.541 1.188 1.371 1.123.835-.065 1.322-.458 1.336-1.33.007-.456.033-.917-.018-1.368-.145-1.322-.326-2.638-.492-3.956" clip-rule="evenodd"/>
</svg>
