<?xml version="1.0" encoding="utf-8"?>
<!-- Generator: Adobe Illustrator 16.0.0, SVG Export Plug-In . SVG Version: 6.00 Build 0)  -->
<!DOCTYPE svg PUBLIC "-//W3C//DTD SVG 1.1//EN" "http://www.w3.org/Graphics/SVG/1.1/DTD/svg11.dtd">
<svg version="1.1" id="Layer_1" xmlns="http://www.w3.org/2000/svg" xmlns:xlink="http://www.w3.org/1999/xlink" x="0px" y="0px"
	 width="72px" height="71.998px" viewBox="0 0 72 71.998" enable-background="new 0 0 72 71.998" xml:space="preserve">
<g>
	<path fill="currentColor" fill-rule="evenodd" clip-rule="evenodd" d="M18.361,42.901c0-0.146,0-0.292,0-0.438c0.458-0.465,0.886-0.94,1.646-0.933
		c0.239,0.003,0.481-0.312,0.747-0.498c-0.543-0.706-1.066-1.247-1.411-1.885c-0.207-0.383-0.222-0.928-0.157-1.377
		c0.034-0.238,0.423-0.423,0.646-0.639c0.179-0.173,0.399-0.328,0.516-0.538c0.439-0.793,1.175-1.249,1.886-1.734
		c1.493-1.021,1.442-1.991,0.217-3.109c-0.292-0.266-0.604-0.511-0.873-0.798c-0.544-0.582-1.066-1.187-1.605-1.792
		c0.084-0.379,0.169-0.762,0.285-1.282c0.431-0.225,0.909-0.609,1.444-0.723c0.84-0.179,1.317-0.674,1.77-1.439
		c-0.513-0.606-1.018-1.202-1.559-1.842c0.08-0.399,0.178-0.884,0.293-1.455c0.236-0.206,0.532-0.464,0.722-0.629
		c1.203,0.114,2.264,0.215,3.292,0.313c0.359-0.762-0.522-0.632-0.592-1.086c0.162-0.473,0.337-0.982,0.537-1.563
		c0.842-0.397,1.777-0.5,2.718-0.538c0.542-0.021,1.022-0.08,1.19-0.643c-0.405-1.379-1.778-1.769-2.525-2.566
		c0.143-0.644,0.191-1.181,0.385-1.66c0.29-0.716,0.681-1.351,1.616-1.41c0.361-0.023,0.735-0.25,1.053-0.46
		c0.39-0.258,0.727-0.595,1.089-0.9c0.963,0.271,1.72-0.097,2.488-0.636c-0.12-0.371-0.228-0.704-0.375-1.159
		c0.384-0.111,0.755-0.206,1.118-0.327c0.4-0.133,0.793-0.29,1.189-0.436c0.146,0,0.292,0,0.438,0
		c0.419,0.444,0.876,0.858,1.247,1.338c0.49,0.636,1.021,1.05,1.873,0.647c0.557,0.458,1.083,0.891,1.587,1.305
		c-0.073,0.379-0.128,0.658-0.193,0.993c1.275,0.837,0.695,2.353,1.244,3.459c0.324,0.128,0.617,0.245,0.945,0.375
		c-0.031,0.24-0.057,0.436-0.077,0.594c0.858,0.348,1.689,0.685,2.487,1.008c0.028,0.443-0.054,0.851,0.094,1.143
		c0.355,0.704,0.788,1.369,1.449,1.859c0.433,0.321,0.812,0.715,1.22,1.082c-0.264,0.877,0.311,1.827-0.538,2.521
		c0.688,0.958,1.35,1.877,1.975,2.745c-0.144,0.442-0.252,0.778-0.357,1.105c0.262,0.273,0.48,0.501,0.685,0.715
		c-0.09,0.937-0.176,1.821-0.256,2.651c0.62,0.399,1.364,0.39,1.723,0.983c-0.315,0.883-1.185,1.044-1.915,1.583
		c0.867,0.567,1.835,0.806,2.383,1.654c-0.456,0.708-1.025,1.342-1.077,2.341c0.519,0.089,1.054,0.068,1.468,0.282
		c0.462,0.238,0.813,0.691,1.08,0.933c0.096,0.831,0.172,1.499,0.256,2.229c-0.138,0.128-0.319,0.296-0.518,0.479
		c0.18,0.234,0.346,0.452,0.533,0.696c-0.216,0.297-0.403,0.555-0.603,0.83c-0.354-0.104-0.663-0.196-1.018-0.301
		c-0.453,0.256-0.91,0.515-1.425,0.806c0.687,1.03,2.339,1.164,1.99,2.666c0.39,0.119,0.717,0.219,1.237,0.377
		c-0.292,0.35-0.429,0.603-0.641,0.741c-0.259,0.169-0.581,0.241-0.896,0.363c0.05,0.372,0.087,0.651,0.138,1.033
		c-0.287,0.148-0.576,0.299-0.872,0.452c-0.243-0.395-0.346-0.769-0.585-0.912c-1.097-0.656-1.627-1.725-2.219-2.808
		c0.169-0.354,0.337-0.705,0.486-1.018c-0.521-0.199-1.019-0.389-1.531-0.584c-0.802,0.722-2.101,0.471-3.057-0.685
		c-0.389,1.269,0.18,2.714-0.903,3.682c-0.481,0.292-0.963,0.583-1.498,0.907c-0.244-0.092-0.544-0.204-0.799-0.3
		c-0.304-0.807,0.739-0.772,0.739-1.45c-0.17-0.097-0.376-0.217-0.586-0.331c-0.187-0.101-0.475-0.145-0.549-0.297
		c-0.406-0.83-1.204-0.828-2.132-1.081c-0.351,0.415-0.808,0.847-1.126,1.362c-0.308,0.499-1.018,0.699-0.973,1.467
		c0.236-0.197,0.472-0.395,0.737-0.617c0.408,0.116,0.797,0.227,1.187,0.337c-0.434,0.475-0.937,0.649-1.282,0.986
		c-0.37,0.361-0.582,0.882-0.879,1.322c-0.363,0.541-0.796,1.045-0.523,1.786c0.067,0.184,0.029,0.446-0.048,0.637
		c-0.598,1.467-0.26,2.854,0.372,4.324c-0.215,0.133-0.46,0.285-0.777,0.48c0.763,0.69,0.524,1.503,0.589,2.223
		c0.103,1.138,0.027,2.292,0.027,3.417c-0.366,0.171-0.68,0.317-0.993,0.464c-0.292,0-0.584,0-0.876,0
		c-0.263-0.43-0.525-0.86-0.811-1.327c0.104-0.271,0.219-0.569,0.314-0.817c-0.893-1.812-0.882-1.81-0.427-3.745
		c0.059-0.251-0.102-0.545-0.11-0.819c-0.013-0.42-0.046-0.855,0.048-1.257c0.095-0.404,0.335-0.773,0.535-1.208
		c0.331-0.208,0.716-0.449,1.136-0.713c-0.367-0.578-0.753-0.998-0.676-1.659c0.058-0.494-0.382-0.805-0.837-0.859
		c-0.909-0.107-1.557-0.517-1.876-1.454c-0.673,0.188-1.282,0.359-1.96,0.55c-0.13,0.227-0.289,0.502-0.445,0.774
		c-0.581,0.053-1.147,0.469-1.681-0.165c0-0.75,0-1.541,0-2.453c-0.625-0.132-1.244-0.262-1.674-0.352
		c-1.126,0.721-1.78,1.852-3.183,1.674c-0.244-0.317-0.48-0.627-0.689-0.898c0.235-0.502,0.427-0.91,0.654-1.395
		c-1.028-0.17-1.742,0.228-2.385,0.714c-0.894-0.582-1.182-1.114-1.008-1.795c0.187-0.729,1.121-1.4,1.935-1.396
		c0.447,0.002,0.887-0.015,1.04-0.607c-0.271-0.361-0.552-0.734-0.724-0.964C20.518,43.312,19.44,43.106,18.361,42.901z
		 M26.722,33.625c-0.017,0.111-0.034,0.222-0.05,0.333c0.259,0.121,0.508,0.297,0.781,0.353c0.487,0.099,0.989,0.125,1.485,0.182
		c0.272,0.031,0.544,0.062,0.81,0.091c0.167-0.73,0.197-1.418,0.48-1.978c0.45-0.891,0.132-1.6-0.274-2.446
		c-0.406,0-0.815,0-1.347,0c-0.108,0.906-0.21,1.753-0.316,2.641C27.789,33.064,27.255,33.345,26.722,33.625z M34.547,44.496
		c-0.1-0.081-0.21-0.244-0.31-0.238c-1.101,0.063-2.192,0.069-3.259-0.282c-0.116-0.038-0.302,0.02-0.41,0.097
		c-0.484,0.348-0.952,0.719-1.419,1.076c0.537,1.028,1.822,1.484,2.608,0.934c0.558-0.391,1.085-0.824,1.611-1.227
		C33.769,44.756,34.276,45.132,34.547,44.496z M45.356,42.91c0.619,0.595,1.251,0.536,1.897,0.563
		c0.176-0.454,0.33-0.851,0.574-1.479c0.225,0.547,0.352,0.855,0.402,0.98c0.928,0.311,1.688,0.586,2.463,0.806
		c0.145,0.041,0.354-0.143,0.433-0.178c-0.231-0.507-0.429-0.94-0.65-1.429c-0.896-0.565-1.833-1.095-2.908-0.227
		c-0.069,0.056-0.21,0.03-0.317,0.03C46.51,41.979,45.989,42.41,45.356,42.91z M39.815,41.841c1.068,1.406,1.749,1.414,2.813,0.969
		c0.131-0.323,0.259-0.66,0.401-0.991c0.138-0.32,0.445-0.613,0.14-0.988C41.838,40.367,40.7,40.555,39.815,41.841z M32.727,28.199
		c1.106-0.013,1.624-0.798,2.405-1.083c-0.245-0.657-0.455-1.218-0.705-1.889c-0.509-0.089-1.068-0.188-1.628-0.278
		c-0.025-0.004-0.063,0.073-0.107,0.128c0.18,0.068,0.342,0.13,0.546,0.207c-0.235,0.419-0.463,0.826-0.693,1.237
		c0.147,0.207,0.272,0.382,0.397,0.557C32.889,27.356,32.835,27.635,32.727,28.199z M38.94,17.993
		c-0.051-0.123-0.103-0.246-0.153-0.369c-0.299,0.02-0.601,0.022-0.896,0.064c-0.355,0.05-0.706,0.19-1.059,0.191
		c-1.05,0.002-1.386,0.829-2.032,1.49c0.644,0.34,1.133,0.598,1.657,0.875c0.086-0.257,0.153-0.456,0.156-0.464
		C37.48,19.114,38.211,18.554,38.94,17.993z M35.872,25.169c1.044,0.293,2.093-0.143,2.798-1.136
		c-0.356-0.057-0.824-0.257-0.942-0.13C37.221,24.447,36.236,24.266,35.872,25.169z M31.185,25.41
		c-0.052-0.053-0.104-0.107-0.155-0.16c-0.542,0.31-1.083,0.621-1.644,0.942c0.223,0.059,0.456,0.121,0.673,0.179
		c0.062,0.349,0.116,0.654,0.192,1.086c0.34-0.205,0.593-0.357,0.847-0.509c-0.184-0.304-0.31-0.513-0.424-0.703
		C30.863,25.934,31.024,25.672,31.185,25.41z M47.285,39.725c0.127-0.275,0.252-0.548,0.488-1.061
		c-0.469,0.14-0.722,0.215-1.044,0.311c0.218,0.503,0.365,0.885,0.556,1.246c0.034,0.064,0.24,0.04,0.492,0.073
		C47.56,40.042,47.432,39.895,47.285,39.725z M47.514,37.381c0.434,0.292,0.724,0.497,0.993-0.042
		C48.219,36.866,47.94,36.859,47.514,37.381z"/>
	<path fill="currentColor" fill-rule="evenodd" clip-rule="evenodd" d="M43.476,50.833c0.752-0.787,1.453-1.521,2.136-2.234
		c0.525,0.119,0.938,0.212,1.393,0.314c0.023,0.396,0.045,0.748,0.067,1.111c0.337,0.249,1.05-0.026,1.012,0.71
		c-0.96,0.474-1.906,0.959-2.87,1.408c-0.629,0.293-0.978,0.155-1.334-0.475C43.723,51.393,43.602,51.097,43.476,50.833z"/>
</g>
</svg>
