<svg xmlns="http://www.w3.org/2000/svg" xml:space="preserve" width="72px" height="72px" viewBox="0 0 72 72">
    <g fill="currentColor" fill-rule="evenodd" clip-rule="evenodd">
        <path d="M30.076 9.567c.258.177.667.562.751.5.819-.597 1.322.162 1.94.388.139.051.261.225.388.223 2.524-.038 3.563 2.191 5.225 3.448a20.5 20.5 0 0 1 2.896 2.683c.942 1.054 1.75 2.233 2.565 3.393.163.231.079.627.141.941.053.265.072.612.245.764.979.854 1.458 1.931 1.607 3.193.021.17.116.363.238.485.919.923 1.64 1.862 1.622 3.322-.011.903.604 1.795.764 2.723.219 1.269.335 2.461 1.344 3.507.395.408.001 1.584-.052 2.409-.011.172-.167.352-.139.507.236 1.322-.242 2.033-1.458 2.751-1.408.832-2.708 1.848-4.087 2.806.832.762 1.942.97 3.188.691.915-.204 1.83-.418 2.754-.575 1.614-.274 2.796.612 3.012 2.241.092.69.252 1.401.174 2.08-.268 2.324-2.39 2.281-3.937 2.959-2.716 1.191-5.663.836-8.472.922-1.577.049-3.037.621-4.601.52-1.196-.078-2.41.114-3.604.023-.891-.068-1.753-.454-2.645-.597-1.845-.295-3.711-.47-5.55-.796-1.302-.23-2.021-1.308-2.619-2.339-.428-.738.358-1.93 1.258-2.801.761-.737 1.346-1.678 1.915-2.588.616-.986 1.014-2.125 1.713-3.04.536-.701 1.373-1.186 2.108-1.722 1.257-.915 1.549-2.371 1.986-3.689.504-1.523.7-3.146 1.125-4.7.107-.39.53-.893.893-.976 1.144-.262 2.331-.686 3.443.271.211.182.808-.084 1.236-.146-.541-.839-.942-1.607-1.49-2.249-.27-.316-.8-.432-1.232-.581-.416-.143-.902-.126-1.277-.329-.76-.411-1.253-.819-1.206-1.992.066-1.641-.556-3.3-.75-4.967-.063-.537.187-1.207.519-1.646.135-.179.887.032 1.325.172.952.304 1.882.676 2.858 1.034.441-.613.262-1.463-.513-1.902-.887-.502-1.817-.937-2.658-1.506-1.091-.738-2.134-.524-3.037.169-1.156.888-2.319.988-3.681.66-.654-.158-1.5-.165-2.073.126-1.16.59-2.022.02-2.813-.553-.229-.166-.145-1.235.155-1.547.479-.501 1.28-.678 1.903-1.059a70 70 0 0 0 3.604-2.333c.306-.214.454-.654.501-.727l1.584-.553q.459.003.914.002"/>
        <path d="M7.062 49.899c.266-.319.479-.72.814-.928.24-.149.736-.178.954-.024 2.49 1.748 5.261 2.549 8.279 2.569.15.001.338.023.447-.053 2.098-1.449 3.777-.257 5.43.886 1.893 1.308 4.039 1.522 6.238 1.651 1.363.081 2.729.241 4.075.472 2.02.347 3.992.944 6.097.487.825-.18 1.736.08 2.597.006 1.309-.112 2.611-.315 3.908-.529 1.194-.196 2.429-.32 3.555-.727 1.216-.438 2.681-.489 3.45-1.857.17-.302.674-.556 1.043-.582 1.388-.101 2.792-.019 4.175-.152 1.855-.179 3.362-1.25 4.887-2.202.855-.534 1.604-.424 2.385.071v.912c-.306 1.044-.667 2.076-.907 3.135-.521 2.289-2.051 4.039-3.881 5.039-2.274 1.244-4.908 2.035-7.48 2.471-2.399.407-4.708 1.377-7.292 1.052-1.737-.22-3.57.328-5.36.524-.224.024-.452 0-.679-.005-.811-.018-1.622-.042-2.433-.054-.599-.009-1.197-.002-1.795-.002-.327-.028-.627.268-.964.316a29 29 0 0 1-3.245.305c-.587.02-1.218-.048-1.763-.252-.76-.285-1.42-.869-2.19-1.085-1.21-.34-2.037-1.012-2.603-2.108-.565-1.095-1.204-1.28-2.234-.629-.469.296-.821.771-1.278 1.093-.318.223-.739.479-1.089.445-1.059-.099-2.104-.466-3.158-.481-1.928-.029-3.441-1.098-4.812-2.115-1.193-.885-1.917-2.415-2.805-3.691-.547-.787-1.006-1.637-1.515-2.451-.271-.434-.566-.853-.85-1.278z"/>
    </g>
</svg>
