<svg xmlns="http://www.w3.org/2000/svg" xml:space="preserve" width="72px" height="72px" viewBox="0 0 72 72">
    <g fill="currentColor" fill-rule="evenodd" clip-rule="evenodd">
        <path d="M62.068 52.413c-1.168.597-2.344 1.182-3.503 1.799-.519.275-1.006.613-1.503.929-1.021.647-2.142.604-3.299.599-2.959-.018-5.918.079-8.877.107-2.323.022-4.646.008-6.971.018-.319.001-.639.049-.959.07-.819.057-1.481.286-1.389 1.286-.942.101-1.316-.148-1.67-1.161-.662 0-1.387-.093-2.078.02-1.459.236-2.488-.536-3.564-1.298-.781-.553-1.619-1.025-2.426-1.541-.205-.131-.544-.277-.558-.439-.054-.63-.65-.681-.937-1.024-1.291-1.551-3.086-1.478-4.784-1.472-1.648.006-2.651-.694-3.285-2.118-.072-.16-.171-.309-.251-.466-.012-.024.012-.068.034-.172 1.44-.337 3.131 1.263 4.618-.416-.274-.156-.398-.291-.502-.276-.763.107-1.392-.167-1.93-.664-1.29-1.191-2.972-1.578-4.499-2.297-1.184-.558-2.192-1.49-3.302-2.272.427-.69.776-.714 1.333-.421 1.059.558 2.172 1.009 3.261 1.51.288.133.572.273.846.434.438.256.84.693 1.3.761.828.122 1.688.03 2.535.022.857-.009 1.618.217 2.315.819-.63.69-1.081.223-1.624-.163l-.469 1.54 1.613.322.759-1.257c.853.186 1.214.783 1.356 1.482.25 1.234 1.59 2.41 2.6 3.014 1.435.855 3.103.667 4.535 1.392.438.221 1.046.074 1.56.179 1.053.214 2.084.587 3.145.703 1.116.123 2.258.068 3.384.002.681-.04 1.203-.306 1.115-1.213-.103-1.057.012-2.135-.092-3.192-.104-1.052-.341-1.057-1.396-.997-1.678.096-3.366-.007-5.048.04-1.396.039-3.019-.235-4.121.381-1.083.605-2.422.337-3.215 1.413-.65-.527-.697-.908-.274-1.517.773-1.112 1.336-2.378 2.161-3.445.55-.712.508-1.763 1.396-2.249.127-.069.254-.306.235-.445-.088-.681.371-1.1.655-1.624.427-.788.667-1.678 1.087-2.47.4-.755.952-1.427 1.396-2.16.359-.591.66-1.218.982-1.831.474-.9.957-1.796 1.41-2.707.188-.38.381-.783.443-1.194.077-.518.328-.819.672-1.211.558-.636.836-1.518 1.339-2.505l2.146.221c.063-1.373.136-2.671.178-3.971.02-.58-.333-.833-.884-.837-.822-.007-1.645-.014-2.467-.005-.17.001-.36.032-.506.112-.819.449-1.626.917-2.438 1.378l-.276-.129c.05-.324.076-.653.157-.969.109-.426.391-.848.372-1.261-.07-1.496.405-2.861.858-4.239.043-.129.113-.286.219-.353.592-.372.56-.854.179-1.442l.828-.656c1.161 1.257 3.957 1.408 5.323.199l.862 1.533h2.806l1.599 1.249c-.613.85-.728 1.859-.316 2.976.962-.353.331-1.66 1.359-1.827.888-.144 1.356.049 1.804.842.6-.094.6-.094 1.285-1.011l1.834 1.671q-.062.112-.122.225c.42 0 .842-.027 1.259.005 1.205.093 1.743.795 1.678 1.962-.032.586.148 1.183.222 1.776.084.687.157 1.375.233 2.048.141.498.534 1.134.358 1.479-.186.364-.916.449-1.399.652-.643-1.464-2.205-2.394-3.547-1.863l.676.862c-.069.157-.129.317-.209.466-.371.692-.208 1.002.553 1.18.815.19 1.611.467 2.43.644.577.125 1.18.132 1.767.222.284.043.558.157.833.446l-.968.421c.048 1.243.095 2.441.138 3.639.009.247.086.541-.016.733-.345.65-.117 1.082.255 1.283v1.794c.001.499.01.997-.001 1.496-.003.138-.139.324-.086.405.815 1.249.452 2.682.585 4.021.12 1.21.373 2.432.126 3.684-.171.868-.124 1.78-.18 2.779-.513.473-1.062.539-1.66-.097-.795-.844-1.898-.628-2.894-.727-.153-.015-.431.348-.501.581-.109.366-.071.773-.131 1.157-.075.485-.185.965-.308 1.593.849.361 1.892.484 2.979.488 1.446.005 2.892.091 4.338.135.591.018 1.184-.004 1.773.028.446.024.889.107 1.333.165q.006.104.005.212m-18.649-5.65c-.253.39-.654.747-.719 1.158-.138.867-.23 1.781-.103 2.641.21 1.417.289 1.402 1.788 1.287.174-.014.352.044.528.049 1.092.032 2.183.063 3.274.083.601.011 1.045-.181 1.072-.886.041-1.06.111-2.117.128-3.176.003-.171-.179-.373-.321-.514-.44-.436-2.376-.827-2.84-.46-.905.717-1.697.282-2.807-.182m-1.525-21.408c.811.603 1.472.45 2.155.137.266-.122.602-.267.859-.205 1.23.294 2.45.638 3.663 1 .505.15.759.014.799-.503.024-.32.02-.643.04-.963.047-.695-.294-.966-.966-.948-.785.022-1.574.038-2.357-.012-.321-.021-.692-.147-.936-.352-.622-.523-1.144-1.173-1.789-1.661-.322-.244-.881-.408-1.235-.296-.243.076-.449.688-.446 1.059.007.953.139 1.908.213 2.744m-.637-17.142.625 1.191-.539 1.792-.277-.023c-.663-.91-.134-1.977-.238-2.961zm-3.219 56c-.268-.316-.52-.472-.991-.273-.46.193-.994.168-1.208-.742.926 0 1.82-.128 2.651.046.547.114.374.644-.023.97z"/>
        <path d="M36.419 22.633c.042.473.174.795.071.998-.411.807-.897 1.575-1.35 2.361-.118.206-.213.426-.32.638l-.597 1.187c-.359.716-.712 1.435-1.078 2.148-.22.43-.446.858-.688 1.276-.617 1.064-1.271 2.108-1.861 3.188-.522.954-1.434.572-2.188.695-1.1.18-2.294-.285-3.301.618-.254.228-.829.068-1.24.159-.677.149-1.341.355-2.01.543-.271.076-.532.199-.807.246-.445.073-.946-.013-1.126.588-.03.101-.22.169-.348.222-.83.341-1.745.552-2.475 1.039-.841.563-1.528 1.358-2.266 2.068-.4.386-.386.401-1.096.073 1.132-1.708 2.699-2.979 4.182-4.334.961-.878 1.854-1.831 2.813-2.709.986-.903 2.029-1.743 3.025-2.635 1.155-1.033 2.273-2.109 3.44-3.13.305-.267.743-.376 1.093-.599 1.284-.815 2.729-1.474 3.789-2.52 1.24-1.223 2.867-1.223 4.338-2.12m19.623 34.846c-.717.17-1.426.395-2.152.492-.699.094-1.424.504-2.129-.159-.155-.146-.706.128-1.211.239-1.225-.276-2.603-.698-3.916.256-.129.094-.34.106-.512.106q-4.233.012-8.466.003c-.125-.001-.249-.081-.374-.125l-.027-.228c.446-.074.892-.211 1.338-.211 1.404.002 2.774-.195 4.162-.378 1.367-.179 2.719-.618 4.136-.576 2.319.07 4.644-.001 6.965.031.72.01 1.438.16 2.157.247zm-17.884 3.523c-2.039.315-3.875 1.331-5.842.208.615-.513 5.042-.913 5.842-.208m4.193.559c-1.237.411-1.658.318-2.296-.584l2.35.283q-.028.15-.054.301m-.511 1.847c-.369.327-.738.622-1.243-.218l1.213-.063q.014.141.03.281m.366-.287 1.253.193c-.612.778-.938.354-1.288.142zm-2.807-1.905h-.986l-.011-.331.947-.062zm-7.577-2.653-.667.255-.133-.297.612-.332zm9.574-46.899.05.674-.339.049-.135-.663zm9.338 4.944-.488-.443.186-.249.559.362zm-17.25 41.745h-.73l-.012-.231.721-.077z"/>
    </g>
</svg>
