<?xml version="1.0" encoding="utf-8"?>
<!-- Generator: Adobe Illustrator 16.0.0, SVG Export Plug-In . SVG Version: 6.00 Build 0)  -->
<!DOCTYPE svg PUBLIC "-//W3C//DTD SVG 1.1//EN" "http://www.w3.org/Graphics/SVG/1.1/DTD/svg11.dtd">
<svg version="1.1" id="Layer_1" xmlns="http://www.w3.org/2000/svg" xmlns:xlink="http://www.w3.org/1999/xlink" x="0px" y="0px"
	 width="72px" height="71.998px" viewBox="0 0 72 71.998" enable-background="new 0 0 72 71.998" xml:space="preserve">
<g>
	<path fill="currentColor" fill-rule="evenodd" clip-rule="evenodd" d="M62.398,43.813c0,0.142,0,0.282,0,0.423c-1.434-0.028-1.572,0.104-1.664,1.533
		c-0.013,0.202-0.036,0.457-0.16,0.59c-1.797,1.938-3.605,3.864-5.438,5.769c-0.112,0.116-0.569,0.118-0.655,0.009
		c-0.874-1.12-1.777-0.387-2.413,0.125c-1.03,0.83-1.865,1.902-2.786,2.877c-1.036-0.764-1.036-0.764-2.291-0.074
		c-0.754,0.413-1.545,0.772-2.246,1.261c-0.337,0.234-0.539,0.693-0.74,1.082c-0.237,0.459-0.317,1.031-0.642,1.399
		c-0.182,0.206-0.721,0.141-1.095,0.12c-0.331-0.018-0.727-0.299-0.971-0.189c-0.787,0.352-1.583,0.746-2.254,1.278
		c-1.134,0.899-1.05,1.947,0.11,2.777c0.216,0.155,0.428,0.317,0.734,0.546c-0.296,0.221-0.508,0.379-0.721,0.538
		c-0.141,0-0.281,0-0.423,0c-0.262-0.063-0.522-0.141-0.788-0.185c-1.359-0.226-1.992-1.333-2.454-2.376
		c-0.203-0.456,0.278-1.347,0.656-1.897c0.544-0.793,1.269-1.465,1.934-2.173c0.77-0.819,1.52-1.663,2.349-2.419
		c0.555-0.504,1.233-0.871,1.856-1.3c0.397-0.275,0.771-0.598,1.195-0.819c2.06-1.069,4.218-1.977,6.171-3.21
		c1.428-0.902,2.61-2.201,3.851-3.379c0.154-0.147,0.103-0.846-0.045-0.923c-1.112-0.581-2.295-1.365-3.563-0.695
		c-0.962,0.508-1.69,1.508-2.979,1.015c-0.04-0.016-0.126,0.057-0.177,0.104c-0.626,0.588-1.249,1.18-2.036,1.924
		c-0.641,0-1.611,0.032-2.579-0.009c-1.116-0.046-1.888,0.401-2.234,1.195c0.141,0.574,0.327,0.959,0.276,1.31
		c-0.021,0.141-0.56,0.288-0.863,0.291c-0.929,0.009-1.865-0.131-2.785-0.052c-0.5,0.043-1.22-0.394-1.52,0.511
		c-0.19,0.577-0.807,1.089-0.814,1.636c-0.015,1.17-0.615,1.148-1.428,0.99c-0.483-0.094-0.964-0.207-1.452-0.269
		c-1.489-0.188-2.85,0.287-4.285,0.669c0.201,0.613,0.337,1.03,0.587,1.797c-0.86-0.321-1.47-0.493-2.029-0.769
		c-1.847-0.907-2.601-0.583-3.076,1.372c-0.038,0.156-0.091,0.308-0.21,0.709c-1.424-1.559-2.378-3.429-4.285-4.057
		c-0.265,0.963-0.365,1.804-0.74,2.496c-0.202,0.372-0.876,0.489-1.337,0.721c-0.08-0.449-0.188-0.897-0.229-1.351
		c-0.021-0.227,0.125-0.466,0.121-0.698c-0.025-1.448-0.001-2.904-0.148-4.342c-0.051-0.5-0.542-0.954-0.833-1.43
		c-0.241,0.423-0.494,0.839-0.721,1.27c-0.335,0.633-0.652,1.276-1.021,2.001c-1.216-1.36-1.296-2.234-0.672-3.622
		c0.494-1.098,0.9-2.238,1.288-3.38c0.077-0.226-0.026-0.68-0.193-0.777c-0.192-0.111-0.595-0.019-0.818,0.124
		c-0.277,0.178-0.444,0.516-0.692,0.751c-0.558,0.531-1.128,1.066-2.001,0.661c0-0.281,0-0.563,0-0.845
		c0.644-0.776,1.198-1.655,1.95-2.306c1.12-0.97,2.417-1.732,3.556-2.683c0.356-0.299,0.487-0.907,0.623-1.4
		c0.032-0.118-0.356-0.515-0.506-0.492c-0.637,0.098-1.261,0.292-1.882,0.479c-0.433,0.129-0.843,0.347-1.282,0.438
		c-0.192,0.04-0.521-0.08-0.617-0.233c-0.076-0.121,0.045-0.48,0.189-0.604c0.368-0.312,0.821-0.52,1.199-0.822
		c1.489-1.192,3.109-2.074,4.979-2.574c2.36-0.631,4.675-1.432,7.006-2.172c1.384-0.439,2.766-0.888,4.139-1.362
		c0.792-0.273,1.569-0.59,2.341-0.917c1.202-0.508,2.363-1.136,3.598-1.542c2.387-0.785,3.508-4.183,2.156-6.258
		c-0.659-1.012-1.66-1.332-2.547-1.876c-0.684-0.419-1.53-0.572-2.333-0.854c0.323,0.597,0.544,1.064,0.818,1.499
		c1.287,2.043,1.267,2.27-0.437,3.903c-0.025,0.024-0.034,0.067-0.062,0.084c-1.079,0.662-2.095,1.487-3.256,1.938
		c-1.183,0.458-2.512,0.535-3.771,0.803c-0.545,0.116-1.075,0.305-1.617,0.438c-0.635,0.155-1.276,0.282-1.914,0.427
		c-0.43,0.098-0.867,0.175-1.284,0.314c-1.835,0.61-3.664,1.239-5.495,1.861c-0.104-0.122-0.207-0.244-0.311-0.366
		c0.218-0.439,0.483-0.862,0.645-1.321c0.293-0.829,0.737-1.01,1.614-0.763c0.502,0.142,1.174-0.119,1.708-0.345
		c0.514-0.218,0.914-0.697,1.423-0.931c0.755-0.346,1.766-0.265,2.022-1.361c0.02-0.084,0.252-0.201,0.35-0.173
		c1.11,0.31,1.41-0.553,1.865-1.233c0.636-0.952,1.277-1.037,2.179-0.308c0.496,0.401,0.864,0.372,1.166-0.224
		c0.307-0.607,0.671-1.187,0.956-1.804c0.133-0.29,0.283-0.844,0.172-0.923c-0.34-0.244-0.797-0.344-1.222-0.447
		c-0.462-0.112-1.015-0.038-1.393-0.268c-0.771-0.468-1.124-0.533-1.284,0.539c-0.192,1.281-0.615,1.432-1.718,0.878
		c-0.147-0.074-0.335-0.065-0.474-0.09c-0.628,0.514-0.303,2.073-1.758,1.467c-0.6,1.273-0.6,1.273-2.365,0.895
		c-0.483,0.524-0.86,1.286-1.347,1.365c-0.531,0.086-1.164-0.461-1.839-0.772c-0.309,0.645-0.531,1.27-0.894,1.8
		c-0.21,0.308-0.687,0.696-0.972,0.646c-1.166-0.206-1.687-1.116-1.465-2.276c0.031-0.164,0.037-0.346,0.001-0.508
		c-0.279-1.248,0.193-2.266,1.16-2.928c1.897-1.299,3.825-2.578,5.569-4.065c0.828-0.706,1.231-1.894,1.889-2.819
		c0.351-0.493,0.835-0.892,1.444-1.526c0.1,0.64,0.145,0.925,0.199,1.271c1.41,0.01,2.357-0.865,3.274-1.653
		c0.9-0.773,1.646-1.729,2.439-2.622c0.31-0.35,0.564-0.75,0.844-1.127c0.141,0,0.282,0,0.422,0c0.597,0.354,0.858,2.075,0.44,2.748
		c-0.267,0.43-0.486,0.889-0.813,1.495c0.498,0.031,0.826,0.105,1.137,0.063c1.671-0.228,3.117-0.974,4.408-2.029
		c1.074-0.878,2.017-1.995,3.557-2.004c0.343-0.002,0.688,0.226,1.03,0.348c-0.184,0.311-0.313,0.678-0.563,0.921
		c-0.912,0.889-1.885,1.715-2.779,2.621c-0.133,0.135-0.028,0.6,0.093,0.852c0.066,0.139,0.428,0.259,0.6,0.205
		c1.684-0.533,3.38-1.043,5.022-1.686c1.018-0.398,1.933-1.052,2.931-1.509c0.286-0.131,0.702,0.024,1.059,0.047
		c-0.116,0.285-0.15,0.677-0.361,0.836c-1.321,0.997-2.682,1.941-4.092,2.948c0.073,0.672,0.577,1.061,1.327,0.986
		c0.715-0.072,1.406-0.348,2.119-0.463c1.081-0.174,2.169-0.317,3.259-0.414c0.682-0.061,1.373-0.011,2.061-0.011
		c0.063,0.142,0.127,0.284,0.191,0.425c-0.629,0.475-1.235,0.984-1.893,1.417c-1.075,0.708-2.502,0.926-3.181,2.29
		c0.172,0.12,0.3,0.238,0.45,0.308c1.552,0.72,3.097,1.457,4.665,2.14c1.672,0.728,1.929,2.251,2.181,3.833
		c-0.396-0.131-0.673-0.597-0.924-0.584c-1.207,0.065-1.977-0.807-2.906-1.282c-0.755-0.387-1.139-0.282-1.448,0.366
		c0.297,0.38,0.498,0.867,0.855,1.054c1.407,0.737,2.182,1.988,2.909,3.3c0.464,0.837,0.405,1.972-0.176,2.177
		c-0.932,0.327-1.261-0.514-1.73-1.041c-0.395-0.442-0.777-0.894-1.279-1.473c-0.571,1.068,0.049,1.675,0.285,2.316
		c0.308,0.833,0.759,1.611,1.077,2.441c0.199,0.521-0.686,1.743-1.192,1.594c-0.273-0.08-0.491-0.704-0.547-1.108
		c-0.17-1.215-1.329-2.637-2.41-2.926c-0.564,1.514-1.125,3.02-1.784,4.79c-0.387-0.463-0.611-0.658-0.743-0.904
		c-0.468-0.871-0.944-0.98-1.68-0.37c-0.932,0.773-1.842,1.578-2.827,2.276c-0.319,0.226-1.062,0.372-1.239,0.19
		c-0.705-0.718-1.416-0.754-2.187-0.281c-0.991,0.609-2.057,1.144-2.645,2.244c-0.088,0.164-0.3,0.262-0.524,0.449
		c-0.137-0.274-0.271-0.473-0.338-0.691c-0.269-0.862-0.911-0.938-1.473-0.488c-0.802,0.643-1.521,1.412-2.17,2.213
		c-0.443,0.545-0.821,1.021-1.599,0.862c-0.117-1.517-0.278-1.599-1.575-0.834c-0.211,0.125-0.42,0.257-0.612,0.408
		c-0.883,0.696-0.973,1.561,0.011,2.072c0.994,0.517,0.599,1.045,0.366,1.853c-0.541-0.148-1.067-0.259-1.569-0.438
		c-0.841-0.301-1.363-0.019-1.487,0.849c-0.103,0.726,1.239,2.496,2.086,2.661c1.613,0.315,4.539-0.393,5.236-1.998
		c0.509-1.174,1.245-1.152,2.11-0.196c0.187,0.206,0.506,0.469,0.726,0.438c0.934-0.133,1.875-0.291,2.289-1.372
		c0.142-0.371,0.528-0.641,0.725-1c0.47-0.859,0.929-0.439,1.413-0.037c0.229,0.19,0.524,0.564,0.696,0.517
		c1.161-0.322,2.608-0.099,3.22-1.568c0.119-0.287,0.301-0.561,0.505-0.795c0.238-0.275,0.532-0.501,0.803-0.748
		c0.189,0.346,0.377,0.692,0.572,1.036c0.032,0.057,0.1,0.095,0.203,0.19c0.331,0,0.715,0.02,1.097-0.004
		c0.814-0.05,1.461-0.289,1.802-1.171c0.441-1.145,0.785-1.172,1.722-0.31c0.869,0.8,2.596,0.547,3.327-0.356
		c1.48-1.828,2.854-3.819,5.362-4.41c0.579-0.137,1.158-0.273,1.737-0.41c0.099,0.137,0.197,0.273,0.296,0.41
		c-0.899,1.069-1.799,2.137-2.699,3.207c0.057,0.098,0.112,0.195,0.168,0.293c0.427-0.035,0.855-0.055,1.279-0.109
		c0.618-0.08,1.251-0.324,1.847-0.25c1.116,0.139,2.201,0.516,3.316,0.677c0.769,0.11,0.843,0.548,0.868,1.099
		c-1.057,0-2.06,0-3.374,0C59.949,41.252,61.174,42.532,62.398,43.813z M16.983,21.255c3.912,0.653,5.355-0.611,6.904-4.405
		c-0.702-0.059-1.329-0.418-1.987,0.242c-0.48,0.482-1.164,0.755-1.685,1.206C19.165,19.204,18.164,20.168,16.983,21.255z"/>
</g>
</svg>
