<svg xmlns="http://www.w3.org/2000/svg" xml:space="preserve" width="72px" height="72px" viewBox="0 0 72 72">
    <path fill="currentColor" d="m69.976 23.206.083 2.458-.111 1.449q-.826.444-.997 1.142a10 10 0 0 1-.524 1.491q-.128.128-.397.333c-.269.205-.321.27-.427.396q-.159.38-.159.65t-.063.587q-.317.412-.603.603-.283.19-.635.444-.41.285-.412.824-.001.54-.284 1.11-.223.507-.698.666-.096.127-.38.19a.7.7 0 0 0-.444.286q-.478.095-.745.428-.27.335-.651.65a4.6 4.6 0 0 1-.841.206 6 6 0 0 0-.902.205 3.2 3.2 0 0 0-.889.763q-.348.443-.951.603a2.3 2.3 0 0 1-.696.143 2 2 0 0 0-.667.142c-.17.087-.327.18-.476.287q-.222.156-.507.38-.192.094-.461.27c-.269.176-.386.186-.618.206q-.57.16-1.284.078a5.6 5.6 0 0 0-1.603.081 2.1 2.1 0 0 0-.745.365q-.301.237-.554.427-.351.317-.603.539a1.04 1.04 0 0 1-.604.254 1.8 1.8 0 0 1-.554-.017q-.238-.047-.27-.333-.192-.445.157-.633.348-.19.478-.508.346-.285.476-.556.126-.27.411-.522.348-.317.667-.46a.96.96 0 0 0 .476-.491 2.6 2.6 0 0 0 .253-.556q.095-.301.35-.649.127-.253.363-.492.238-.237.524-.618.19-.539.188-2.093 0-.602.191-1.046.19-.444.255-1.046a1.38 1.38 0 0 0-.049-.983q-.206-.475-.397-1.079-.062-1.046-.221-1.633-.158-.586-.666-1.125-.127-.126-.349-.333a2 2 0 0 1-.286-.301 4 4 0 0 1-.586-.238 31 31 0 0 1-.618-.301 3.2 3.2 0 0 1-.713-.666 1.04 1.04 0 0 0-.841-.413q-.698 0-1.047.729a6.3 6.3 0 0 1-.729 1.205q-.064.19-.302.365-.239.174-.333.238-.413.825-.855 1.776a6 6 0 0 0-.508.761 1.3 1.3 0 0 0-.206.301 1.4 1.4 0 0 1-.237.333q-.16.285-.223.571-.065.285-.253.539a.7.7 0 0 1-.302.38 2 2 0 0 0-.429.381 1.2 1.2 0 0 1-.316.459 1.4 1.4 0 0 0-.35.523 9 9 0 0 1-.602.856q-.35.444-.666.919-.064.159-.081.507-.014.349-.27.729a8 8 0 0 1-.476.428q-.316.27-.57.554-.284.572-.349 1.667-.063 1.093.443 1.537.286.35.873.507.586.158.841.414.125.38-.111.839-.238.46-.364.872-.065.445-.365.666a.68.68 0 0 0-.302.571q-.127.444.238.824.364.381.429.887.062.351.11.651.046.302.237.65l.508.507q.318.317.411.604a35 35 0 0 0 .73 1.362q.192.351.476.603.288.255.476.604.159.222.206.586t.206.588q.128.348.365.57t.619.602q.253.445.602.825.254.349.683.667.426.317.586.792.157.19.27.443.11.254.175.318.222.41.492.618.268.205.333.521.347.192.38.476.031.286.128.446.219.474.633.855.41.38.762.698.063.314.159.617.093.302.412.586a.87.87 0 0 0 .364.429q.269.175.427.397.128.253.238.586.114.334.206.586.382.54.825.872.443.335.571.873 0 .6-.443.825-.446.22-.604.696a1.43 1.43 0 0 0-.523.588q-.206.397-.522.522-.255.032-.667-.159a7 7 0 0 0-.603-.253 2.4 2.4 0 0 1-.522-.762 2.7 2.7 0 0 0-.492-.76 2.8 2.8 0 0 0-.508-.508 1.4 1.4 0 0 1-.443-.635q-.127-.096-.238-.411a28 28 0 0 1-.174-.508 2.6 2.6 0 0 0-.507-.635 77 77 0 0 1-.635-.571q-.128-.284-.333-.666a7 7 0 0 0-.429-.696 13 13 0 0 0-.569-.539 3 3 0 0 1-.478-.539 2.2 2.2 0 0 1-.206-.54q-.08-.317-.206-.475a.94.94 0 0 0-.348-.429 10 10 0 0 0-.444-.271 2.4 2.4 0 0 1-.46-.823 4.2 4.2 0 0 0-.365-.825 22 22 0 0 1-.682-.65 1.8 1.8 0 0 1-.459-.776.96.96 0 0 1-.095-.429 6 6 0 0 0-.032-.555 1.4 1.4 0 0 0-.396-.507 3 3 0 0 0-.587-.38q-.19-.476-.429-1.017a4.8 4.8 0 0 0-.523-.92 2 2 0 0 0-.332-.443 6 6 0 0 0-.46-.443 2.3 2.3 0 0 1-.27-.476q-.144-.317-.27-.444l-.698-.762q-.38-.41-.729-.571-.256-.22-.714-.284a7 7 0 0 0-1.015-.063q-.555 0-1.047.063c-.492.063-.618.137-.872.284q-.222.096-.825.667-.254.255-.46.396a.8.8 0 0 0-.301.396 6 6 0 0 1-.238.413 7 7 0 0 0-.238.412q-.255.32-.46.49a1.2 1.2 0 0 0-.301.365q-.285.383-.539.92-.254.54-.508 1.017a5 5 0 0 0-.507.362q-.253.209-.317.365a1.6 1.6 0 0 0-.111.539 3 3 0 0 1-.08.571 1.8 1.8 0 0 1-.428.618q-.302.301-.714.651-.223.444-.364.888a1.9 1.9 0 0 1-.46.76.62.62 0 0 1-.381.461 1.17 1.17 0 0 0-.507.429q-.063.157-.159.427-.095.269-.285.556a49 49 0 0 1-.666.841q-.35.427-.729.934a2 2 0 0 0-.27.446 2.1 2.1 0 0 1-.365.537 2.7 2.7 0 0 1-.349.35 1.06 1.06 0 0 0-.317.476.92.92 0 0 0-.27.508.9.9 0 0 1-.27.507 1.56 1.56 0 0 1-.396.604q-.27.252-.522.507a4 4 0 0 0-.587.809 3.5 3.5 0 0 1-.587.777 3 3 0 0 0-.539.221q-.316.159-.603.032-.318 0-.507-.333a1.6 1.6 0 0 0-.54-.555q-.158-.38-.634-.73-.476-.348-.413-.919.126-.507.587-.841.459-.332.84-.872.063-.252.174-.586t.238-.586q.253-.318.492-.476a.87.87 0 0 0 .333-.382q.19-.254.254-.476.063-.222.222-.476.064-.284.412-.571.35-.282.54-.635.316-.252.459-.713.143-.458.365-.777.221-.318.507-.521.285-.208.507-.429.063-.253.143-.508.078-.253.301-.476.16-.411.428-.649c.268-.238.386-.333.619-.524q.222-.284.412-.618a1.5 1.5 0 0 1 .413-.492q.38-.379.666-.617.285-.238.349-.682.126-.253.206-.524a5 5 0 0 1 .174-.49q.19-.348.46-.557a2.4 2.4 0 0 0 .492-.521q.253-.383.412-.888.158-.508.38-.73.19-.349.429-.571.238-.22.586-.411.476-.538.618-1.302a3.8 3.8 0 0 0-.047-1.584 7 7 0 0 1-.539-1.158q-.222-.618.095-1.378a.92.92 0 0 1 .571-.715q.475-.205.856-.587.38-.569.317-1.585-.064-1.015-.349-1.745a8 8 0 0 0-.603-.601 4.8 4.8 0 0 1-.666-.762q-.063-.063-.063-.285c0-.222-.011-.318-.032-.507a1.8 1.8 0 0 0-.396-.651 2.6 2.6 0 0 1-.46-.682 3.6 3.6 0 0 1-.507-.618 5 5 0 0 0-.507-.65 1.46 1.46 0 0 0-.507-.587q-.316-.206-.507-.681a10 10 0 0 1-.222-.54 1.5 1.5 0 0 0-.254-.444q-.35-.475-.65-.936a4.3 4.3 0 0 1-.46-.904 3.5 3.5 0 0 1-.301-.619 1.8 1.8 0 0 0-.206-.428q-.095-.222-.365-.491a6 6 0 0 0-.428-.396q-.316-.538-.618-1.173-.302-.634-.999-.634-.476 0-.809.365t-.65.682q-.286.159-.634.333a2.6 2.6 0 0 1-.666.238 7 7 0 0 0-.634.555q-.381.364-.698.714-.159.475-.175 1.078c-.016.603-.079.814-.206 1.236a2.7 2.7 0 0 1-.174.856q-.143.35-.143.888.063.444.175.84.111.397.143.809.19.73.095 1.363-.094.636.222 1.205.063.445.444.649.38.208.507.557.254.347.412.776.159.428.381.777.221.19.444.302.221.11.507.301.19.254.349.522.159.27.35.461.19.127.586.427.396.303.333.747-.126.444-.824.411-.444 0-.729-.223a6 6 0 0 1-.555-.49q-.27-.27-.603-.507a2.6 2.6 0 0 0-.713-.365 5.6 5.6 0 0 0-1.602-.081 3.3 3.3 0 0 1-1.284-.078 1.34 1.34 0 0 1-.618-.206 7 7 0 0 1-.396-.27 39 39 0 0 1-.587-.38 2.8 2.8 0 0 0-.586-.287 1.7 1.7 0 0 0-.587-.142 2.6 2.6 0 0 1-.682-.143q-.19-.127-.412-.286a6 6 0 0 0-.507-.316 2 2 0 0 1-.396-.365 2.3 2.3 0 0 0-.396-.365 2.3 2.3 0 0 0-.873-.206 5 5 0 0 1-.904-.11q-.475-.317-.713-.697c-.238-.38-.396-.422-.714-.507q-.444-.38-.888-.428t-.761-.714a3.5 3.5 0 0 1-.11-.792 1.75 1.75 0 0 0-.302-.888q-.286-.475-.697-.666a1.86 1.86 0 0 1-.729-.634 18 18 0 0 0-.127-.587 3 3 0 0 0-.253-.65 4 4 0 0 0-.381-.396 1.5 1.5 0 0 1-.349-.492 8 8 0 0 1-.603-1.395 1.9 1.9 0 0 0-.856-1.079l-.218-.948.042-2.25c.084.063-.064-1.062.042-1.083.105-.021-.055-1.31.135-1.205q.095-1.014.302-1.95.205-.936.364-2.077.158-.602.159-1.173c.001-.571.211-.57.634-.57q.507 0 .697.57t.476 1.079a.87.87 0 0 1 .38.349q.126.221.413.476.19.064.57.127a.92.92 0 0 1 .603.349q.348.285.603.698.253.412.761.603.317.127 1.031.127h1.538q.73 0 1.316-.048a3.3 3.3 0 0 0 1.031-.238q.285-.158.634-.476.348-.316.603-.603.476-.411.761-.666.285-.253.539-.571.126-.349.111-.792-.017-.444.238-.92.19-.476.539-.714a4.4 4.4 0 0 0 .729-.649q.221-.316.38-.619c.159-.303.18-.47.222-.809q0-.443-.174-.761a1.7 1.7 0 0 0-.476-.54 9 9 0 0 1-.507-.396 1.25 1.25 0 0 1-.333-.46 4.3 4.3 0 0 1-.285-1.268 4.3 4.3 0 0 0-.381-1.427q-.064-.349-.364-.729a4 4 0 0 1-.492-.793 3 3 0 0 0-.412-.777 1.36 1.36 0 0 1-.254-.904 4 4 0 0 1 .19-.396q.126-.237.476-.333.507-.062.92.349.411.412.634.888.411.38.825.746.412.364.697.65.285.317.634.793.348.476.603.793.475.508.745.919.27.413.492.856.38.191 1.11.793.38.697.793 1.079.348.19 1.078.428t1.205.238q.222 0 .555-.095t.713-.159q.349-.127.698-.031.348.095.761.031.444-.126.92-.27.475-.142.825-.016.317.095.428.333t.111.603-.016.777q-.016.413-.016.666a6 6 0 0 0-.064.919v.983q-.063.95-.476 1.681a3.2 3.2 0 0 0-.428.46q-.27.333-.364.618-.318.667-.349 1.633-.031.968.126 1.538.221.57.634.904.412.333.729.84.126.19.126.476c0 .286.032.392.095.603q.095.222.349.476.253.253.317.507.285.285.412.523c.127.238.201.354.349.586q.094.286.127.603.031.316.127.507.317.57.713.936.396.365.682.935.094.318.079.587-.017.27.048.555.19.476.492.792.301.318.618.666.158.413.349.888t.444.761q.476.444 1.411.444t1.411-.35q.318-.285.491-.761.173-.475.429-.952.316-.444.57-.729t.444-.761q.096-.254.11-.539.016-.285.049-.571.284-.538.681-.936.398-.396.745-.999.127-.285.175-.603.047-.317.237-.666.253-.57.635-1.015.38-.445.667-1.015l.063-.507q.031-.253.094-.412.349-.507.651-.777.301-.268.554-.618.191-.348.255-.872.062-.523.062-1.03.001-.507-.11-1.015c-.111-.508-.163-.613-.27-.825q-.284-.413-.571-.761a5 5 0 0 1-.57-.919q-.127-.476-.126-1.11v-1.76q0-.301-.031-.682l-.064-.555a.93.93 0 0 1 .064-.491q.22-.761.95-.586t1.363.301q.286 0 .588-.063.3-.063.618.063.444 0 .792.127t.666.127q.507 0 1.333-.238.822-.238 1.047-.555.22-.063.411-.428c.128-.243.273-.449.444-.618q.253-.222.49-.365.24-.142.492-.492a5 5 0 0 0 .38-.586q.192-.333.476-.619a.5.5 0 0 1 .128-.206q.064-.047.254-.206.444-.38.697-.825.255-.444.539-.825a3.1 3.1 0 0 1 .681-.666q.399-.285.841-.697.097-.159.238-.381.142-.222.429-.507.508-.508 1.078-.253c.57.255.496.624.349 1.363q-.158.57-.618 1.078-.46.507-.777 1.396-.065.254-.174.666a4 4 0 0 1-.237.666 4.8 4.8 0 0 1-.255 1.395 1.7 1.7 0 0 1-.855.825q-.57.253-.635 1.015-.064.603.206 1.063c.27.46.365.555.556.745q.189.35.459.523c.27.173.313.217.396.301a.97.97 0 0 0 .255.507q.22.476.157.793-.065.317.096.761.063.38.476.65.412.27.793.65.315.285.618.634.3.35.745.507.412.286 1.094.286h1.254q.6 0 1.284.048.68.047 1.189-.175.442-.158.681-.587t.714-.713q.285-.285.571-.333.285-.047.57-.111a3.6 3.6 0 0 1 .365-.46q.267-.301.555-.65.252-.602.46-1.046.206-.445.682-.349.381 0 .522.285.144.285.144.634.157 1.522.412 2.569.253 1.046.349 2.378z"/>
</svg>
