<?xml version="1.0" encoding="utf-8"?>
<!-- Generator: Adobe Illustrator 16.0.0, SVG Export Plug-In . SVG Version: 6.00 Build 0)  -->
<!DOCTYPE svg PUBLIC "-//W3C//DTD SVG 1.1//EN" "http://www.w3.org/Graphics/SVG/1.1/DTD/svg11.dtd">
<svg version="1.1" id="Layer_1" xmlns="http://www.w3.org/2000/svg" xmlns:xlink="http://www.w3.org/1999/xlink" x="0px" y="0px"
	 width="72px" height="72px" viewBox="0 0 72 72" enable-background="new 0 0 72 72" xml:space="preserve">
<path fill="currentColor" d="M69.976,23.206l0.083,2.458l-0.111,1.449c-0.55,0.296-0.884,0.677-0.997,1.142c-0.118,0.465-0.293,0.962-0.524,1.491
	c-0.085,0.085-0.218,0.196-0.397,0.333s-0.321,0.27-0.427,0.396c-0.106,0.253-0.159,0.471-0.159,0.65
	c0,0.18-0.021,0.376-0.063,0.587c-0.212,0.275-0.412,0.476-0.603,0.603c-0.189,0.126-0.4,0.275-0.635,0.444
	c-0.273,0.19-0.412,0.465-0.412,0.824c0,0.36-0.096,0.73-0.284,1.11c-0.148,0.338-0.382,0.56-0.698,0.666
	c-0.063,0.085-0.191,0.148-0.38,0.19c-0.191,0.043-0.339,0.138-0.444,0.286c-0.318,0.063-0.567,0.206-0.745,0.428
	c-0.18,0.223-0.396,0.44-0.651,0.65c-0.316,0.106-0.598,0.174-0.841,0.206c-0.241,0.031-0.543,0.101-0.902,0.205
	c-0.359,0.214-0.655,0.467-0.889,0.763c-0.232,0.296-0.549,0.496-0.951,0.603c-0.232,0.084-0.465,0.133-0.696,0.143
	c-0.234,0.011-0.455,0.058-0.667,0.142c-0.17,0.087-0.327,0.18-0.476,0.287c-0.147,0.104-0.318,0.231-0.507,0.38
	c-0.128,0.063-0.281,0.153-0.461,0.27s-0.386,0.186-0.618,0.206c-0.38,0.106-0.809,0.133-1.284,0.078
	c-0.476-0.052-1.011-0.026-1.603,0.081c-0.296,0.084-0.543,0.206-0.745,0.365c-0.2,0.157-0.386,0.301-0.554,0.427
	c-0.234,0.211-0.435,0.391-0.603,0.539c-0.169,0.147-0.371,0.233-0.604,0.254c-0.211,0.021-0.396,0.016-0.554-0.017
	c-0.159-0.031-0.249-0.142-0.27-0.333c-0.128-0.296-0.075-0.508,0.157-0.633c0.233-0.127,0.391-0.296,0.478-0.508
	c0.231-0.19,0.389-0.376,0.476-0.556c0.084-0.18,0.221-0.354,0.411-0.522c0.232-0.211,0.455-0.365,0.667-0.46
	c0.21-0.096,0.368-0.259,0.476-0.491c0.104-0.17,0.188-0.354,0.253-0.556c0.063-0.2,0.18-0.418,0.35-0.649
	c0.084-0.169,0.206-0.333,0.363-0.492c0.159-0.158,0.333-0.364,0.524-0.618c0.127-0.359,0.188-1.057,0.188-2.093
	c0-0.401,0.064-0.75,0.191-1.046c0.127-0.296,0.212-0.645,0.255-1.046c0.104-0.338,0.088-0.666-0.049-0.983
	c-0.137-0.317-0.27-0.676-0.397-1.079c-0.041-0.697-0.116-1.242-0.221-1.633c-0.106-0.391-0.327-0.766-0.666-1.125
	c-0.085-0.084-0.2-0.195-0.349-0.333c-0.147-0.137-0.243-0.238-0.286-0.301c-0.148-0.042-0.343-0.122-0.586-0.238
	c-0.244-0.116-0.449-0.216-0.618-0.301c-0.255-0.169-0.492-0.392-0.713-0.666c-0.223-0.275-0.504-0.413-0.841-0.413
	c-0.466,0-0.814,0.244-1.047,0.729c-0.233,0.486-0.476,0.888-0.729,1.205c-0.043,0.127-0.143,0.249-0.302,0.365
	c-0.159,0.116-0.27,0.196-0.333,0.238c-0.275,0.55-0.56,1.142-0.855,1.776c-0.171,0.211-0.339,0.465-0.508,0.761
	c-0.063,0.063-0.133,0.164-0.206,0.301c-0.074,0.138-0.153,0.249-0.237,0.333c-0.107,0.19-0.18,0.38-0.223,0.571
	c-0.043,0.19-0.128,0.37-0.253,0.539c-0.043,0.148-0.145,0.275-0.302,0.38c-0.159,0.106-0.301,0.233-0.429,0.381
	c-0.063,0.169-0.168,0.322-0.316,0.459c-0.147,0.138-0.266,0.312-0.35,0.523c-0.169,0.275-0.369,0.561-0.602,0.856
	c-0.233,0.296-0.455,0.602-0.666,0.919c-0.043,0.106-0.069,0.275-0.081,0.507c-0.009,0.232-0.099,0.476-0.27,0.729
	c-0.104,0.105-0.264,0.248-0.476,0.428c-0.211,0.18-0.4,0.365-0.57,0.554c-0.189,0.382-0.306,0.937-0.349,1.667
	c-0.043,0.728,0.106,1.241,0.443,1.537c0.191,0.233,0.481,0.402,0.873,0.507c0.391,0.106,0.67,0.243,0.841,0.414
	c0.084,0.253,0.046,0.533-0.111,0.839c-0.158,0.307-0.28,0.597-0.364,0.872c-0.043,0.296-0.165,0.519-0.365,0.666
	c-0.2,0.148-0.302,0.339-0.302,0.571c-0.084,0.296-0.006,0.571,0.238,0.824c0.243,0.254,0.386,0.55,0.429,0.887
	c0.041,0.234,0.078,0.451,0.11,0.651c0.031,0.201,0.11,0.418,0.237,0.65c0.128,0.127,0.296,0.296,0.508,0.507
	c0.211,0.212,0.35,0.412,0.411,0.604c0.128,0.252,0.267,0.519,0.414,0.791c0.148,0.275,0.253,0.467,0.316,0.571
	c0.128,0.234,0.286,0.435,0.476,0.603c0.191,0.171,0.351,0.371,0.476,0.604c0.106,0.147,0.174,0.344,0.206,0.586
	c0.031,0.243,0.101,0.439,0.206,0.588c0.084,0.231,0.208,0.423,0.365,0.57c0.159,0.148,0.364,0.349,0.619,0.602
	c0.169,0.298,0.369,0.571,0.602,0.825c0.17,0.232,0.396,0.455,0.683,0.667c0.285,0.211,0.479,0.476,0.586,0.792
	c0.105,0.127,0.195,0.274,0.27,0.443c0.073,0.17,0.132,0.275,0.175,0.318c0.147,0.273,0.313,0.479,0.492,0.618
	c0.178,0.136,0.29,0.311,0.333,0.521c0.232,0.128,0.357,0.287,0.38,0.476c0.021,0.191,0.063,0.339,0.128,0.446
	c0.146,0.316,0.357,0.601,0.633,0.855c0.274,0.253,0.527,0.486,0.762,0.698c0.041,0.209,0.096,0.415,0.159,0.617
	c0.062,0.201,0.2,0.397,0.412,0.586c0.063,0.171,0.185,0.313,0.364,0.429c0.179,0.116,0.322,0.249,0.427,0.397
	c0.085,0.168,0.165,0.365,0.238,0.586c0.075,0.223,0.145,0.417,0.206,0.586c0.255,0.359,0.529,0.651,0.825,0.872
	c0.296,0.223,0.485,0.514,0.571,0.873c0,0.4-0.147,0.676-0.443,0.825c-0.298,0.146-0.498,0.38-0.604,0.696
	c-0.211,0.128-0.386,0.322-0.523,0.588c-0.137,0.265-0.312,0.438-0.522,0.522c-0.171,0.021-0.392-0.031-0.667-0.159
	c-0.275-0.125-0.476-0.211-0.603-0.253c-0.232-0.233-0.406-0.486-0.522-0.762c-0.118-0.275-0.281-0.528-0.492-0.76
	c-0.148-0.191-0.316-0.359-0.508-0.508c-0.19-0.147-0.339-0.359-0.443-0.635c-0.084-0.063-0.165-0.202-0.238-0.411
	c-0.074-0.212-0.133-0.382-0.174-0.508c-0.147-0.255-0.318-0.466-0.507-0.635c-0.191-0.17-0.402-0.359-0.635-0.571
	c-0.084-0.19-0.197-0.411-0.333-0.666c-0.137-0.253-0.281-0.486-0.429-0.696c-0.189-0.191-0.381-0.371-0.569-0.539
	c-0.191-0.171-0.351-0.351-0.478-0.539c-0.084-0.148-0.153-0.328-0.206-0.54c-0.053-0.211-0.122-0.37-0.206-0.475
	c-0.084-0.191-0.2-0.334-0.348-0.429c-0.148-0.096-0.296-0.186-0.444-0.271c-0.211-0.252-0.365-0.527-0.46-0.823
	c-0.096-0.298-0.218-0.571-0.365-0.825c-0.232-0.212-0.459-0.428-0.682-0.65c-0.221-0.223-0.374-0.48-0.459-0.776
	c-0.063-0.128-0.095-0.27-0.095-0.429c0-0.157-0.012-0.343-0.032-0.555c-0.084-0.19-0.217-0.359-0.396-0.507
	c-0.181-0.148-0.377-0.275-0.587-0.38c-0.127-0.318-0.27-0.655-0.429-1.017c-0.159-0.358-0.333-0.665-0.523-0.92
	c-0.063-0.127-0.175-0.273-0.332-0.443c-0.159-0.169-0.313-0.316-0.46-0.443c-0.085-0.105-0.175-0.265-0.27-0.476
	c-0.096-0.212-0.186-0.359-0.27-0.444c-0.212-0.231-0.444-0.486-0.698-0.762c-0.253-0.273-0.496-0.464-0.729-0.571
	c-0.171-0.147-0.408-0.241-0.714-0.284c-0.307-0.043-0.646-0.063-1.015-0.063c-0.37,0-0.719,0.021-1.047,0.063
	s-0.618,0.137-0.872,0.284c-0.148,0.064-0.423,0.287-0.825,0.667c-0.169,0.17-0.323,0.302-0.46,0.396
	c-0.138,0.096-0.238,0.227-0.301,0.396c-0.042,0.086-0.122,0.223-0.238,0.413c-0.116,0.189-0.195,0.328-0.238,0.412
	c-0.17,0.212-0.323,0.377-0.46,0.49c-0.138,0.118-0.238,0.238-0.301,0.365c-0.19,0.255-0.37,0.562-0.539,0.92
	c-0.169,0.361-0.339,0.698-0.508,1.017c-0.169,0.104-0.338,0.227-0.507,0.362c-0.169,0.139-0.274,0.261-0.317,0.365
	c-0.063,0.148-0.101,0.328-0.111,0.539c-0.011,0.212-0.037,0.403-0.08,0.571c-0.084,0.212-0.227,0.418-0.428,0.618
	c-0.201,0.202-0.439,0.417-0.714,0.651c-0.148,0.296-0.27,0.592-0.364,0.888c-0.095,0.296-0.249,0.548-0.46,0.76
	c-0.043,0.212-0.169,0.365-0.381,0.461c-0.211,0.095-0.38,0.237-0.507,0.429c-0.042,0.104-0.095,0.247-0.159,0.427
	c-0.063,0.18-0.158,0.364-0.285,0.556c-0.211,0.273-0.434,0.554-0.666,0.841c-0.233,0.284-0.476,0.597-0.729,0.934
	c-0.105,0.128-0.196,0.275-0.27,0.446c-0.074,0.168-0.196,0.348-0.365,0.537c-0.084,0.106-0.201,0.223-0.349,0.35
	c-0.148,0.128-0.253,0.285-0.317,0.476c-0.148,0.148-0.238,0.316-0.27,0.508c-0.031,0.19-0.122,0.359-0.27,0.507
	c-0.084,0.232-0.217,0.433-0.396,0.604c-0.18,0.168-0.354,0.337-0.522,0.507c-0.233,0.253-0.429,0.522-0.587,0.809
	c-0.159,0.285-0.354,0.543-0.587,0.777c-0.148,0.041-0.328,0.116-0.539,0.221c-0.211,0.106-0.412,0.116-0.603,0.032
	c-0.212,0-0.381-0.11-0.507-0.333c-0.127-0.222-0.307-0.406-0.54-0.555c-0.105-0.255-0.317-0.496-0.634-0.73
	c-0.317-0.231-0.455-0.539-0.413-0.919c0.084-0.339,0.28-0.618,0.587-0.841c0.306-0.221,0.586-0.513,0.84-0.872
	c0.042-0.169,0.1-0.363,0.174-0.586c0.074-0.221,0.153-0.418,0.238-0.586c0.169-0.212,0.333-0.371,0.492-0.476
	c0.159-0.106,0.27-0.234,0.333-0.382c0.127-0.169,0.211-0.328,0.254-0.476c0.042-0.148,0.116-0.307,0.222-0.476
	c0.042-0.189,0.18-0.38,0.412-0.571c0.233-0.188,0.413-0.4,0.54-0.635c0.211-0.168,0.364-0.406,0.459-0.713
	c0.095-0.305,0.217-0.565,0.365-0.777c0.147-0.211,0.317-0.386,0.507-0.521c0.19-0.139,0.359-0.281,0.507-0.429
	c0.042-0.169,0.089-0.338,0.143-0.508c0.052-0.169,0.153-0.327,0.301-0.476c0.106-0.275,0.249-0.49,0.428-0.649
	s0.386-0.333,0.619-0.524c0.148-0.189,0.285-0.395,0.412-0.618c0.127-0.223,0.264-0.385,0.413-0.492
	c0.253-0.253,0.475-0.458,0.666-0.617c0.19-0.159,0.306-0.386,0.349-0.682c0.084-0.169,0.153-0.343,0.206-0.524
	c0.053-0.178,0.111-0.343,0.174-0.49c0.127-0.232,0.28-0.418,0.46-0.557c0.179-0.137,0.343-0.311,0.492-0.521
	c0.169-0.255,0.306-0.551,0.412-0.888c0.105-0.339,0.232-0.582,0.38-0.73c0.127-0.232,0.27-0.423,0.429-0.571
	c0.158-0.147,0.354-0.284,0.586-0.411c0.317-0.359,0.523-0.792,0.618-1.302c0.095-0.507,0.08-1.035-0.047-1.584
	c-0.211-0.359-0.392-0.746-0.539-1.158c-0.148-0.412-0.117-0.871,0.095-1.378c0.064-0.339,0.254-0.577,0.571-0.715
	c0.317-0.137,0.602-0.332,0.856-0.587c0.253-0.38,0.359-0.907,0.317-1.585c-0.042-0.676-0.159-1.259-0.349-1.745
	c-0.169-0.189-0.37-0.39-0.603-0.601c-0.233-0.212-0.455-0.466-0.666-0.762c-0.042-0.042-0.063-0.137-0.063-0.285
	s-0.011-0.318-0.032-0.507c-0.064-0.211-0.196-0.429-0.396-0.651c-0.202-0.222-0.354-0.449-0.46-0.682
	c-0.211-0.211-0.38-0.417-0.507-0.618c-0.126-0.201-0.296-0.417-0.507-0.65c-0.126-0.253-0.296-0.449-0.507-0.587
	c-0.211-0.137-0.38-0.364-0.507-0.681c-0.084-0.19-0.159-0.37-0.222-0.54c-0.064-0.169-0.148-0.317-0.254-0.444
	c-0.233-0.317-0.45-0.629-0.65-0.936c-0.201-0.306-0.354-0.608-0.46-0.904c-0.148-0.254-0.249-0.46-0.301-0.619
	c-0.053-0.158-0.122-0.301-0.206-0.428c-0.063-0.147-0.186-0.312-0.365-0.491c-0.18-0.179-0.323-0.312-0.428-0.396
	c-0.211-0.359-0.417-0.75-0.618-1.173c-0.202-0.423-0.534-0.634-0.999-0.634c-0.317,0-0.587,0.122-0.809,0.365
	c-0.222,0.243-0.439,0.471-0.65,0.682c-0.19,0.106-0.402,0.217-0.634,0.333c-0.233,0.117-0.455,0.196-0.666,0.238
	c-0.169,0.127-0.381,0.312-0.634,0.555c-0.254,0.243-0.487,0.481-0.698,0.714c-0.106,0.316-0.164,0.677-0.175,1.078
	s-0.079,0.814-0.206,1.236c-0.021,0.338-0.079,0.624-0.174,0.856c-0.095,0.233-0.143,0.529-0.143,0.888
	c0.042,0.296,0.1,0.576,0.175,0.84c0.074,0.265,0.122,0.534,0.143,0.809c0.127,0.487,0.159,0.941,0.095,1.363
	c-0.063,0.424,0.011,0.825,0.222,1.205c0.042,0.297,0.19,0.513,0.444,0.649c0.253,0.139,0.422,0.324,0.507,0.557
	c0.169,0.231,0.307,0.49,0.412,0.776c0.106,0.285,0.233,0.545,0.381,0.777c0.148,0.127,0.295,0.227,0.444,0.302
	c0.147,0.072,0.317,0.174,0.507,0.301c0.127,0.169,0.243,0.343,0.349,0.522c0.106,0.18,0.222,0.333,0.35,0.461
	c0.126,0.084,0.322,0.227,0.586,0.427c0.264,0.202,0.375,0.451,0.333,0.747c-0.084,0.296-0.359,0.433-0.824,0.411
	c-0.296,0-0.539-0.074-0.729-0.223c-0.19-0.147-0.375-0.311-0.555-0.49c-0.18-0.18-0.38-0.35-0.603-0.507
	c-0.222-0.159-0.459-0.281-0.713-0.365c-0.592-0.107-1.126-0.133-1.602-0.081c-0.476,0.055-0.904,0.028-1.284-0.078
	c-0.233-0.021-0.439-0.09-0.618-0.206c-0.18-0.116-0.312-0.206-0.396-0.27c-0.233-0.148-0.428-0.275-0.587-0.38
	c-0.159-0.107-0.354-0.2-0.586-0.287c-0.19-0.084-0.386-0.131-0.587-0.142c-0.201-0.01-0.428-0.059-0.682-0.143
	c-0.126-0.084-0.265-0.18-0.412-0.286c-0.148-0.105-0.317-0.21-0.507-0.316c-0.148-0.105-0.281-0.227-0.396-0.365
	c-0.117-0.137-0.249-0.259-0.396-0.365c-0.275-0.125-0.566-0.194-0.873-0.206c-0.307-0.009-0.608-0.047-0.904-0.11
	c-0.317-0.212-0.554-0.443-0.713-0.697s-0.396-0.422-0.714-0.507c-0.296-0.254-0.592-0.396-0.888-0.428
	c-0.296-0.032-0.55-0.27-0.761-0.714C6.396,34.46,6.359,34.196,6.349,33.9c-0.011-0.296-0.111-0.591-0.302-0.888
	c-0.19-0.317-0.423-0.539-0.697-0.666c-0.275-0.127-0.519-0.338-0.729-0.634c-0.042-0.211-0.085-0.407-0.127-0.587
	c-0.042-0.179-0.127-0.396-0.253-0.65c-0.106-0.127-0.233-0.259-0.381-0.396c-0.148-0.137-0.264-0.302-0.349-0.492
	c-0.253-0.465-0.455-0.93-0.603-1.395c-0.148-0.465-0.434-0.825-0.856-1.079l-0.218-0.948l0.042-2.25
	c0.084,0.063-0.064-1.062,0.042-1.083c0.105-0.021-0.055-1.31,0.135-1.205c0.063-0.676,0.164-1.326,0.302-1.95
	c0.137-0.624,0.258-1.316,0.364-2.077c0.105-0.401,0.159-0.793,0.159-1.173s0.211-0.57,0.634-0.57c0.338,0,0.571,0.19,0.697,0.57
	c0.127,0.38,0.286,0.74,0.476,1.079c0.169,0.084,0.296,0.201,0.38,0.349c0.084,0.148,0.222,0.306,0.413,0.476
	c0.127,0.043,0.317,0.085,0.57,0.127c0.254,0.042,0.455,0.158,0.603,0.349c0.232,0.19,0.433,0.423,0.603,0.698
	c0.169,0.275,0.422,0.476,0.761,0.603c0.211,0.085,0.555,0.127,1.031,0.127s0.988,0,1.538,0c0.486,0,0.925-0.016,1.316-0.048
	c0.391-0.032,0.734-0.111,1.031-0.238c0.19-0.105,0.401-0.264,0.634-0.476c0.232-0.211,0.433-0.412,0.603-0.603
	c0.317-0.274,0.571-0.496,0.761-0.666c0.19-0.169,0.37-0.359,0.539-0.571c0.084-0.232,0.121-0.497,0.111-0.792
	c-0.011-0.296,0.068-0.603,0.238-0.92c0.127-0.317,0.306-0.555,0.539-0.714c0.232-0.158,0.476-0.375,0.729-0.649
	c0.148-0.211,0.274-0.417,0.38-0.619s0.18-0.47,0.222-0.809c0-0.296-0.058-0.549-0.174-0.761c-0.117-0.211-0.275-0.391-0.476-0.54
	c-0.201-0.147-0.37-0.28-0.507-0.396c-0.138-0.116-0.249-0.27-0.333-0.46c-0.147-0.359-0.243-0.782-0.285-1.268
	c-0.043-0.486-0.169-0.962-0.381-1.427c-0.042-0.232-0.164-0.476-0.364-0.729c-0.201-0.254-0.365-0.518-0.492-0.793
	c-0.084-0.254-0.222-0.512-0.412-0.777c-0.19-0.264-0.275-0.565-0.254-0.904c0.042-0.105,0.105-0.238,0.19-0.396
	c0.084-0.158,0.243-0.269,0.476-0.333c0.338-0.042,0.645,0.075,0.92,0.349c0.274,0.275,0.486,0.571,0.634,0.888
	c0.274,0.254,0.549,0.502,0.825,0.746c0.274,0.243,0.507,0.459,0.697,0.65c0.19,0.211,0.401,0.476,0.634,0.793
	c0.232,0.317,0.433,0.582,0.603,0.793c0.317,0.338,0.565,0.645,0.745,0.919c0.179,0.275,0.344,0.561,0.492,0.856
	c0.253,0.127,0.623,0.392,1.11,0.793c0.254,0.465,0.518,0.824,0.793,1.079c0.232,0.126,0.592,0.269,1.078,0.428
	c0.486,0.159,0.888,0.238,1.205,0.238c0.148,0,0.333-0.032,0.555-0.095c0.222-0.063,0.459-0.116,0.713-0.159
	c0.233-0.084,0.465-0.095,0.698-0.031c0.232,0.063,0.486,0.074,0.761,0.031c0.296-0.084,0.603-0.174,0.92-0.27
	c0.317-0.095,0.591-0.1,0.825-0.016c0.211,0.063,0.354,0.174,0.428,0.333c0.074,0.159,0.111,0.36,0.111,0.603
	c0,0.243-0.005,0.502-0.016,0.777c-0.011,0.275-0.016,0.497-0.016,0.666c-0.043,0.275-0.064,0.582-0.064,0.919
	c0,0.338,0,0.666,0,0.983c-0.042,0.634-0.201,1.194-0.476,1.681c-0.106,0.085-0.249,0.238-0.428,0.46
	c-0.18,0.222-0.301,0.428-0.364,0.618c-0.212,0.444-0.328,0.989-0.349,1.633c-0.021,0.645,0.021,1.158,0.126,1.538
	c0.147,0.38,0.359,0.682,0.634,0.904c0.274,0.222,0.518,0.502,0.729,0.84c0.084,0.127,0.126,0.285,0.126,0.476
	s0.032,0.392,0.095,0.603c0.063,0.148,0.18,0.307,0.349,0.476c0.169,0.169,0.274,0.338,0.317,0.507
	c0.19,0.19,0.328,0.364,0.412,0.523s0.201,0.354,0.349,0.586c0.063,0.191,0.105,0.392,0.127,0.603
	c0.021,0.211,0.063,0.38,0.127,0.507c0.211,0.38,0.449,0.693,0.713,0.936c0.264,0.243,0.491,0.555,0.682,0.935
	c0.063,0.212,0.089,0.408,0.079,0.587c-0.011,0.18,0.005,0.365,0.048,0.555c0.127,0.317,0.29,0.582,0.492,0.792
	c0.201,0.212,0.407,0.434,0.618,0.666c0.105,0.275,0.222,0.571,0.349,0.888c0.127,0.317,0.274,0.571,0.444,0.761
	c0.317,0.296,0.788,0.444,1.411,0.444c0.623,0,1.094-0.116,1.411-0.35c0.212-0.19,0.375-0.444,0.491-0.761
	c0.115-0.317,0.258-0.634,0.429-0.952c0.211-0.296,0.4-0.539,0.57-0.729c0.169-0.19,0.316-0.444,0.444-0.761
	c0.063-0.169,0.101-0.349,0.11-0.539c0.011-0.19,0.026-0.38,0.049-0.571c0.188-0.359,0.417-0.671,0.681-0.936
	c0.265-0.264,0.514-0.597,0.745-0.999c0.085-0.19,0.143-0.391,0.175-0.603c0.031-0.211,0.11-0.433,0.237-0.666
	c0.169-0.38,0.38-0.718,0.635-1.015c0.253-0.296,0.476-0.635,0.667-1.015c0.021-0.169,0.041-0.338,0.063-0.507
	c0.021-0.169,0.052-0.306,0.094-0.412c0.233-0.338,0.449-0.597,0.651-0.777c0.2-0.179,0.386-0.385,0.554-0.618
	c0.128-0.232,0.212-0.523,0.255-0.872c0.041-0.349,0.062-0.692,0.062-1.03c0-0.338-0.035-0.676-0.11-1.015s-0.163-0.613-0.27-0.825
	c-0.189-0.275-0.38-0.529-0.571-0.761c-0.188-0.232-0.38-0.539-0.57-0.919c-0.085-0.317-0.126-0.688-0.126-1.11s0-0.845,0-1.269
	c0-0.127,0-0.29,0-0.491c0-0.201-0.011-0.428-0.031-0.682c-0.022-0.19-0.044-0.375-0.064-0.555c-0.022-0.179,0-0.343,0.064-0.491
	c0.147-0.507,0.464-0.703,0.95-0.586c0.487,0.116,0.94,0.217,1.363,0.301c0.191,0,0.386-0.021,0.588-0.063
	c0.2-0.042,0.406-0.021,0.618,0.063c0.296,0,0.56,0.042,0.792,0.127c0.233,0.084,0.454,0.127,0.666,0.127
	c0.339,0,0.782-0.079,1.333-0.238c0.549-0.159,0.896-0.343,1.047-0.555c0.146-0.042,0.284-0.185,0.411-0.428
	c0.128-0.243,0.273-0.449,0.444-0.618c0.168-0.148,0.333-0.27,0.49-0.365c0.159-0.095,0.324-0.258,0.492-0.492
	c0.128-0.169,0.255-0.364,0.38-0.586c0.128-0.222,0.287-0.428,0.476-0.619c0.043-0.105,0.085-0.174,0.128-0.206
	c0.043-0.032,0.127-0.1,0.254-0.206c0.296-0.254,0.528-0.528,0.697-0.825c0.17-0.296,0.35-0.571,0.539-0.825
	c0.19-0.254,0.417-0.476,0.681-0.666c0.267-0.19,0.545-0.423,0.841-0.697c0.063-0.106,0.145-0.233,0.238-0.381
	c0.095-0.148,0.237-0.317,0.429-0.507c0.339-0.338,0.698-0.423,1.078-0.253s0.496,0.624,0.349,1.363
	c-0.105,0.38-0.312,0.74-0.618,1.078c-0.308,0.338-0.565,0.804-0.777,1.396c-0.043,0.169-0.101,0.391-0.174,0.666
	c-0.075,0.275-0.153,0.497-0.237,0.666c-0.022,0.507-0.107,0.973-0.255,1.395c-0.189,0.381-0.476,0.656-0.855,0.825
	c-0.38,0.169-0.592,0.507-0.635,1.015c-0.043,0.402,0.026,0.756,0.206,1.063s0.365,0.555,0.556,0.745
	c0.126,0.233,0.279,0.407,0.459,0.523s0.313,0.217,0.396,0.301c0.043,0.211,0.128,0.38,0.255,0.507
	c0.146,0.317,0.2,0.582,0.157,0.793c-0.043,0.211-0.012,0.465,0.096,0.761c0.043,0.253,0.2,0.471,0.476,0.65
	c0.274,0.18,0.539,0.396,0.793,0.65c0.21,0.19,0.416,0.402,0.618,0.634c0.2,0.233,0.449,0.402,0.745,0.507
	c0.275,0.19,0.639,0.286,1.094,0.286s0.872,0,1.254,0c0.4,0,0.829,0.016,1.284,0.048c0.453,0.031,0.851-0.027,1.189-0.175
	c0.295-0.105,0.521-0.301,0.681-0.587c0.159-0.285,0.397-0.523,0.714-0.713c0.19-0.19,0.38-0.301,0.571-0.333
	c0.19-0.031,0.38-0.068,0.57-0.111c0.063-0.105,0.186-0.258,0.365-0.46c0.178-0.201,0.363-0.417,0.555-0.65
	c0.168-0.401,0.321-0.75,0.46-1.046c0.137-0.296,0.365-0.413,0.682-0.349c0.253,0,0.429,0.095,0.522,0.285
	c0.096,0.19,0.144,0.402,0.144,0.634c0.105,1.015,0.242,1.871,0.412,2.569c0.169,0.697,0.285,1.49,0.349,2.378L69.976,23.206z"/>
</svg>
