<svg xmlns="http://www.w3.org/2000/svg" xml:space="preserve" width="72px" height="72px" viewBox="0 0 72 72">
    <path fill="currentColor" d="M33.625 4.347a19 19 0 0 0-1.828.283c-.424.094-.955.2-1.18.247-.223.036-.813.165-1.296.295s-1.321.33-1.864.46c-1.45.354-3.467 1.238-4.173 1.851-.342.284-.66.52-.72.52-.318 0-2.04.813-2.854 1.344a64 64 0 0 1-1.32.849c-.201.117-.625.412-.943.636-.72.52-1.333.555-1.935.106-1.568-1.19-4.988-2.546-9.316-3.702-1.591-.425-3.479-.437-4.493-.047-.389.153-.754.377-.813.483-.354.649.695 1.285 2.594 1.568 1.981.295 5.247 1.486 6.828 2.489 1.168.743 2.594 2.028 2.677 2.405.117.531-.248 1.192-1.746 3.077-1.414 1.806-2.44 3.315-3.019 4.447-.188.365-.483.802-.66.967-.436.4-.684.93-1.003 2.122-.14.555-.353 1.192-.47 1.427-.119.224-.272.731-.343 1.12a17 17 0 0 1-.306 1.286c-.307.99-.778 4.045-.897 5.766-.13 1.992.035 5.094.354 6.616a31 31 0 0 1 .354 1.969c.294 2.134 1.521 5.6 2.229 6.26.141.143.519.71.813 1.274.295.567.743 1.286.991 1.593.247.319.59.838.766 1.168.165.318.46.742.637.943.188.188.483.554.672.79 1.875 2.452 2.83 3.549 3.986 4.575.26.236.802.779 1.203 1.203.413.437 1.037.955 1.391 1.156s.85.542 1.109.742c.849.672 2.087 1.368 2.889 1.615.436.142 1.308.485 1.934.78 1.922.896 3.066 1.273 6.627 2.181 1.308.33 3.267.507 5.66.507 3.184.012 5.47-.295 7.37-.955a32 32 0 0 1 1.899-.567c.59-.14 1.38-.424 1.768-.624.377-.19.908-.413 1.168-.496s.742-.33 1.072-.542c1.298-.861 2.832-1.203 3.586-.814.79.413 3.29 1.133 4.352 1.25 1.474.177 2.38.012 3.809-.684 1.579-.766 4.232-2.782 4.668-3.56.142-.237.543-.721.909-1.074.79-.766 1.273-1.674 1.945-3.609.59-1.72.65-1.957.885-3.867.117-1.027.282-1.769.483-2.241.52-1.226.613-1.627.696-2.96.036-.719.154-2.358.248-3.656.188-2.747.223-7.582.035-8.218a1.5 1.5 0 0 0-.495-.744c-.211-.153-.614-.47-.908-.695a8 8 0 0 0-1.132-.731c-.707-.366-.909-.672-1.108-1.616a13 13 0 0 0-.98-2.865 5.5 5.5 0 0 1-.436-1.356c-.083-.413-.212-.92-.295-1.132-.093-.213-.295-.897-.471-1.522-.165-.648-.472-1.426-.706-1.803-.214-.367-.508-.92-.64-1.215-.411-.967-2.97-4.646-4.126-5.931a23 23 0 0 1-.8-1.003c-1.334-1.804-5.91-5.224-7.667-5.73-.624-.178-1.356-.626-2.429-1.475a5 5 0 0 0-1.12-.649 22 22 0 0 1-1.321-.542 10 10 0 0 0-1.532-.507 30 30 0 0 1-1.652-.39c-.483-.13-1.25-.306-1.709-.377-.448-.082-1.191-.212-1.651-.306-1.038-.2-4.835-.307-6.25-.165m2.924 1.934c.473.365 1.037 1.674 1.416 3.279.26 1.107-.355 1.496-1.286.825-.696-.507-.778-.65-.943-1.781-.083-.578-.26-1.286-.39-1.569-.117-.283-.247-.59-.282-.695-.177-.554.802-.578 1.485-.06m-3.407-.118c.53.224.837.648 1.143 1.58.142.437.413 1.097.602 1.462.26.507.33.767.27 1.026-.105.519-.447.566-1.095.165-.661-.4-.92-.884-1.84-3.372-.248-.684-.248-.696-.024-.861.295-.212.448-.212.944 0m6.662.295c.413.412.46.518.531 1.309.047.471.189 1.19.318 1.58.284.907.284 1.215 0 1.368-.39.2-.72.13-1.072-.212-.331-.33-.402-.52-.768-2.029a38 38 0 0 0-.353-1.403c-.213-.802-.095-1.073.47-1.073.32 0 .52.106.874.46m2.536.176c.683.284.895.684.895 1.675 0 .483.06 1.238.143 1.687.129.753.116.849-.083 1.072-.473.519-1.238.118-1.463-.755a6 6 0 0 1-.13-1.108 5 5 0 0 0-.176-1.156c-.236-.778-.225-1.308.036-1.45.27-.165.317-.153.778.035m-11.757.201c.106.094.495.778.85 1.521.364.743.765 1.498.883 1.675.413.625.07 1.06-.684.872-.342-.082-.979-.73-1.25-1.261-.13-.237-.519-.838-.885-1.345-.707-.99-.813-1.415-.377-1.592.342-.153 1.215-.07 1.463.13m14.41.507c.177.094.518.389.754.649l.425.47-.07 1.57c-.072 1.71-.19 2.098-.685 2.098-.153 0-.424-.13-.613-.282-.319-.272-.319-.284-.412-2.312-.072-1.45-.06-2.087.034-2.205.165-.189.165-.189.567.012m-17.3.802c.52.354.826.672 1.039 1.05.165.306.471.706.684.907.388.366.495.837.27 1.191-.117.19-.837.2-1.18.024-.117-.071-.553-.554-.966-1.085a72 72 0 0 0-1.19-1.486c-.52-.6-.508-.59-.248-.885.307-.34.778-.258 1.591.284m-2.795.849c.213.094.46.295.543.448.083.141.542.684 1.026 1.18.731.754.86.954.802 1.19-.083.354-.637.602-1.12.496-.224-.048-.566-.33-.98-.79-.954-1.074-1.19-1.321-1.497-1.521-.4-.248-.259-.768.26-.991.471-.213.484-.213.966-.012m23.526.4c.366.461.389.744.13 1.534-.142.4-.248.955-.248 1.25 0 .837-.484 1.144-1.084.66-.366-.282-.449-.625-.32-1.38.059-.306.155-.955.224-1.438.06-.484.178-.944.248-1.026.165-.212.743 0 1.05.4m2.406 1.086c.27.306.424.59.424.802 0 .341-.625 2.983-.755 3.196-.094.141-.648.176-.848.035-.2-.118-.637-.884-.637-1.085 0-.094.13-.495.294-.884.189-.46.294-.944.294-1.357 0-.719.237-1.18.578-1.18.119 0 .413.213.65.473m-27.794.318c.33.318.837.778 1.144 1.05.436.377.542.553.542.849 0 .766-.99.955-1.65.318-.178-.165-.838-.66-1.487-1.096-1.262-.85-1.45-1.144-.966-1.486.176-.13.518-.19 1.036-.19.767 0 .791.012 1.38.555m30.482.885c.366.306.802 1.014.802 1.32 0 .165-.153.59-.353.932a6.8 6.8 0 0 0-.543 1.38c-.201.814-.307.943-.732.943-.306 0-1.085-.696-1.085-.979 0-.094.177-.507.39-.92.21-.413.459-1.096.542-1.52.082-.425.2-.885.26-1.039.118-.282.435-.342.72-.117m-33.63.4c.164.118.483.366.707.579.223.2.66.518.955.683.66.377 1.179.955 1.084 1.215-.082.235-.53.4-1.073.4-.79 0-3.112-1.638-3.277-2.31-.165-.66.907-1.027 1.603-.566m20.518.2c1.497.32 3.137.756 3.513.956.201.106.78.318 1.286.483a8.7 8.7 0 0 1 1.627.72c.39.236 1.015.613 1.38.825.92.52 1.72 1.074 2.24 1.533.236.213.672.484.967.625 1.227.531 3.538 2.807 4.811 4.729.932 1.415 1.864 3.113 1.864 3.42 0 .095.14.471.305.825.296.637.99 3.196.99 3.656 0 .13-.104.342-.234.471-.212.212-.39.225-2.748.212-1.391 0-2.57.024-2.63.06-.058.036-.6.141-1.203.247-2.676.46-3.701 1.722-4.727 5.837-.532 2.123-.79 2.701-1.439 3.338-.496.483-.65.566-1.038.566-1.285 0-3.29-1.533-4.988-3.798-.507-.683-1.144-1.391-1.403-1.58a4 4 0 0 1-.815-.79c-.187-.26-.624-.672-.966-.908-.531-.366-3.113-3.148-3.726-4.01-.154-.223-.201-.53-.201-1.508v-1.215l-.484-.46c-.271-.247-.837-.955-1.273-1.58-.837-1.203-1.957-2.429-5.082-5.577-1.745-1.758-1.934-1.91-2.571-2.112-.672-.211-1.144-.53-1.144-.778 0-.366 1.404-1.368 2.948-2.098.425-.2 1.144-.543 1.593-.767.46-.213 1.167-.484 1.591-.59a25 25 0 0 0 1.533-.413c1.415-.412 3.373-.577 6.368-.542 1.91.035 3.042.106 3.656.224m15.92 1.64c.364.602.306 1.226-.19 2.052-.236.377-.566.99-.72 1.344-.424.943-.577 1.003-1.108.484-.436-.436-.448-.931-.059-1.675.165-.294.436-.908.614-1.356.176-.448.4-.908.495-1.026.284-.33.707-.247.967.177m1.908 1.828c.273.318.484 1.073.39 1.427-.047.177-.282.59-.542.931-.247.33-.566.826-.696 1.085-.33.625-.506.755-.932.66-.812-.176-.873-.86-.14-1.934a9 9 0 0 0 .789-1.461c.154-.402.354-.755.436-.814.235-.153.507-.106.695.106m-42.828.495c.365.354.543.837.424 1.132-.13.353-1.827.154-2.134-.26-.26-.33-.212-.825.083-1.025.141-.106.495-.19.778-.19.413 0 .578.072.85.343m44.562 1.947c.401.423.448 1.107.106 1.567-.14.2-.424.59-.624.86-.743 1.039-1.014 1.298-1.345 1.298-.448 0-.6-.2-.6-.778 0-.447.082-.59.66-1.25.365-.413.79-1.025.944-1.367.305-.685.47-.744.859-.33m-46.13.187c.506.272.814.354 1.32.354.378 0 .732.06.814.141.236.236.166.626-.176.944-.685.625-1.085.708-1.746.306-.307-.176-.708-.27-1.309-.306-1.085-.07-1.273-.26-.86-.92.26-.424.848-.872 1.143-.872.082 0 .449.153.813.353m-1.403 2.029c.294.13.801.271 1.132.306.766.071.896.177.896.755 0 .931-.885 1.309-1.887.802a2.5 2.5 0 0 0-1.026-.236c-.742 0-1.144-.212-1.191-.613-.059-.448.153-.766.66-1.026.566-.307.779-.307 1.416.012m49.29 0c.2.26.271.86.141 1.215-.07.188-.412.636-.765.99a55 55 0 0 0-.944 1.038c-.223.27-.413.389-.66.389-.401 0-.578-.271-.578-.885 0-.341.107-.542.566-1.037.318-.343.697-.802.862-1.027.517-.766 1.084-1.037 1.379-.683M17.54 22.225c.07 1.06.094 1.155.53 1.77.247.353.649.954.873 1.343.59 1.002 2.252 3.09 3.29 4.14 1.132 1.13 1.662 1.792 2.134 2.593.672 1.144 1.014 1.392 2.181 1.58.26.036.601.118.767.188.401.155 1.887 1.793 2.288 2.524.413.78 2.559 3.586 3.714 4.907.26.295.768 1.025 1.132 1.627 1.156 1.933 1.781 2.758 2.642 3.525a11.3 11.3 0 0 1 1.438 1.592c.66.955.99 1.38 2.242 2.854a47 47 0 0 1 1.343 1.65c.26.343.66.85.884 1.133.236.283.732.92 1.121 1.403.377.483.896 1.097 1.132 1.356q.831.885.566 1.38c-.153.295-1.545.943-2.688 1.262-.473.129-1.71.4-2.76.613-1.698.319-2.145.365-4.092.377-3.525.012-6.261-.543-9.458-1.91-.624-.259-1.213-.484-1.296-.484s-.342-.154-.567-.342a7.4 7.4 0 0 0-.942-.602 6 6 0 0 1-.885-.53 9 9 0 0 0-.943-.566 10 10 0 0 1-1.298-.826c-1.202-.92-3.985-3.738-4.681-4.74-.837-1.191-1.958-3.137-2.17-3.76a8 8 0 0 0-.448-.957c-.365-.624-.495-1.132-.72-2.877-.105-.813-.27-1.698-.365-1.97-.212-.636-.33-2.405-.319-5.058 0-1.804.048-2.358.307-3.655.177-.85.366-1.934.425-2.418.082-.66.283-1.285.814-2.476.377-.873.79-1.887.908-2.24.117-.355.353-.861.53-1.12s.472-.756.649-1.098c.424-.79 1.321-1.639 1.509-1.45.083.082.177.648.213 1.262m-6.829.73c.284.13.873.248 1.333.296.648.047.861.106 1.026.318.307.377.271.555-.2 1.026-.412.413-.425.424-1.097.318a20 20 0 0 0-1.733-.106c-1.427 0-1.568-.118-1.156-.967.177-.365.978-1.097 1.226-1.097.048 0 .32.095.601.213m52.205-.01c.294.235.425.895.317 1.485-.058.306-.33.625-1.368 1.533-.707.624-1.379 1.144-1.485 1.144-.27 0-.637-.342-.637-.579 0-.471.65-1.485 1.652-2.593.6-.65 1.13-1.192 1.178-1.192s.2.095.343.201m-51.178 3.23c.754.271.696.896-.142 1.403-.318.2-.6.236-1.686.236-.72 0-1.486.059-1.686.13-.449.153-.955-.012-.955-.307 0-.106.27-.483.6-.825l.603-.637 1.143-.047a35 35 0 0 0 1.439-.06c.165-.011.471.037.684.107m52.38.118c.213.212.236.33.177.743-.106.66-.319.944-.979 1.32a6.6 6.6 0 0 0-.978.696c-.59.555-.872.672-1.227.531-.388-.141-.495-.601-.295-1.143.13-.32.332-.532.755-.779.33-.189.897-.625 1.263-.98.364-.352.754-.636.848-.636.106 0 .294.107.436.248M11.16 28.935c.872.447.047 1.52-1.144 1.485-.319-.012-1.108.071-1.769.177s-1.285.165-1.391.118c-.094-.036-.177-.19-.177-.354 0-.907.59-1.297 2.252-1.462 1.64-.165 1.852-.153 2.23.036m53.76.129c.236.165.271.271.212.707-.07.72-.353 1.085-1.06 1.415q-1.134.531-1.629.036c-.4-.4-.258-.826.391-1.18a4.8 4.8 0 0 0 .883-.6c.307-.283.732-.555.861-.567.036 0 .19.083.342.189m-54.256 2.358c.579.402.166 1.474-.648 1.64-.177.035-1.002.224-1.828.424-.825.2-1.615.33-1.745.283-.318-.106-.306-.578.036-1.238l.259-.53.826-.084c.46-.046 1.25-.211 1.768-.377l1.002-.294c.036-.012.189.07.33.176m51.155 1.027c.53.165 1.38.366 1.886.436.519.071 1.203.26 1.545.413.33.153.896.33 1.238.4.968.201 1.817.744 1.982 1.263.128.377.118.459-.083.73-.295.401-1.286.802-2.866 1.168-1.072.248-1.403.284-2.522.212-1.451-.083-3.043-.39-4.258-.814a14.5 14.5 0 0 0-1.815-.47 25 25 0 0 1-2.171-.555c-.93-.283-1.274-.46-1.687-.838-.647-.601-.754-.955-.4-1.332s1.298-.766 2.17-.885c.39-.059 1.91-.082 3.372-.07 2.465.035 2.725.059 3.61.342m-51.25 1.731c.13.13.237.318.237.413 0 .306-.343.86-.555.931-.118.036-.743.2-1.392.366-.778.212-1.38.447-1.78.72-.637.435-.956.506-1.062.223-.106-.259.413-1.698.66-1.828.13-.07.65-.188 1.156-.283.507-.094 1.18-.294 1.51-.46.707-.377.92-.389 1.226-.082m-.024 2.853c.083.083.142.342.142.578 0 .625-.413 1.073-1.238 1.332-.365.107-1.05.413-1.51.673-.99.53-1.296.566-1.556.177-.235-.365-.07-1.085.318-1.45.154-.13.932-.473 1.746-.743.813-.284 1.556-.542 1.651-.602.235-.13.282-.13.447.035m.26 2.865c.166.202.095 1.04-.106 1.287-.07.083-.472.317-.884.53-.449.224-1.097.708-1.545 1.143-.437.414-.885.755-1.002.755-.33 0-.59-.46-.59-1.025 0-.802.165-1.062.908-1.428a56 56 0 0 0 1.687-.883c1.084-.59 1.308-.649 1.533-.379m.944 2.666c.318.578-.165 1.415-1.333 2.311-.4.307-.931.79-1.191 1.062-.33.376-.543.507-.79.507-.896 0-.696-1.557.283-2.181.272-.177.849-.684 1.274-1.132.683-.708.848-.815 1.214-.815.295 0 .448.072.543.248m.637 2.89c.105.093.188.27.188.388 0 .377-.578 1.368-.943 1.604-.2.13-.684.59-1.073 1.026-.4.448-.814.802-.932.802-.33 0-.59-.46-.59-1.05 0-.519.036-.554 1.156-1.626 1.415-1.37 1.781-1.558 2.194-1.145m.908 2.629c.247.2.259.248.13.695-.084.26-.379.791-.661 1.179-.295.39-.602.873-.708 1.062-.365.696-1.226.99-1.486.507-.341-.65 0-1.438 1.156-2.666 1.002-1.06 1.132-1.13 1.569-.777m1.25 1.993c.235.153.4.742.317 1.155-.046.284-.223.52-.542.779-.271.201-.66.66-.872 1.002-.472.72-.767.92-1.097.754-.484-.26-.507-1.096-.035-1.698.176-.223.554-.731.837-1.108.743-.955 1.002-1.132 1.391-.884m1.791 2.194c.083.093.165.34.201.565.06.307-.012.495-.27.86-.19.26-.555.874-.803 1.357-.566 1.096-.731 1.298-1.073 1.298-.354 0-.649-.449-.72-1.097-.047-.45-.011-.555.425-1.11.271-.33.59-.848.72-1.143.141-.294.318-.612.424-.72.224-.223.92-.234 1.096-.01m1.805 1.92c.342.319.283 1.133-.154 1.84a9.4 9.4 0 0 0-.66 1.511c-.283.848-.33.93-.625.93-.354 0-.742-.364-.932-.86-.2-.518-.152-.766.236-1.333.201-.294.52-.883.72-1.32s.413-.826.495-.873c.225-.153.696-.106.92.106m2.1 1.746c.33.39.27 1.132-.166 2.277-.237.612-.46 1.402-.495 1.769-.13 1.12-.59 1.203-1.168.211-.165-.283-.306-.696-.318-.908-.012-.377.577-2.264.931-2.96.26-.542.92-.754 1.215-.389m2.463 1.592c.496.508.579 1.062.271 1.946-.306.896-.495 1.815-.495 2.453 0 .565-.153.79-.553.79-.33 0-1.121-.696-1.369-1.192-.165-.34-.153-.435.106-1.178.153-.448.284-.979.284-1.19 0-.427.365-1.534.6-1.817.237-.283.767-.201 1.156.188m2.465 1.769c.248.366.271.483.189 1.002-.048.318-.094 1.133-.106 1.793 0 1.085-.036 1.238-.26 1.462-.247.248-.27.259-.565.06-.626-.413-.92-1.51-.65-2.43.071-.225.178-.778.224-1.215.06-.436.178-.884.26-.978.224-.271.601-.154.908.306m21.227.555c.152.093.423.413.588.72.306.53.672.93 1.415 1.591.59.53.484 1.096-.235 1.25-.566.13-1.026-.083-1.521-.696a59 59 0 0 0-1.074-1.25c-.495-.542-.683-.838-.683-1.085 0-.778.719-1.026 1.51-.53m-18.986.295c.589.625.778 1.19.6 1.885-.081.39-.105.944-.058 1.581.082.967.082.99-.2 1.12-.236.106-.378.083-.732-.082-.777-.366-.873-.649-.86-2.784.011-1.58.047-1.885.2-1.98.342-.2.672-.118 1.05.26m16.496 1.048c.237.143.602.555.826.92.236.365.625.872.873 1.133.248.259.496.613.566.79.106.282.082.352-.153.519-.637.412-1.804-.248-2.525-1.427-.199-.331-.517-.743-.719-.933-.412-.4-.483-.884-.165-1.19.237-.235.707-.164 1.297.188m-13.785.272c.485.518.638.967.603 1.663-.013.187.023.79.07 1.309.082.908.082.966-.153 1.038-.731.235-1.392-.391-1.568-1.475-.06-.412-.165-1.049-.225-1.414-.165-.908-.141-1.18.083-1.428.318-.353.672-.259 1.19.307m2.56.26c.318.318.53.836.695 1.721.095.472.26 1.097.354 1.38.236.636.236 1.144.024 1.227-.39.152-1.18-.261-1.533-.803-.107-.153-.318-.955-.483-1.77-.355-1.744-.343-1.532-.107-1.755.236-.248.802-.237 1.05 0m8.715.212c.27.2.471.495.588.86.106.32.425.861.72 1.215.412.495.53.731.508 1.003-.036.317-.083.353-.508.388-.683.047-1.143-.306-1.804-1.321-1.333-2.122-1.344-2.122-1.05-2.416.225-.236 1.086-.082 1.546.27m-3.55-.154c.543.283 1.06.908 1.508 1.816.248.52.59 1.132.755 1.344.354.484.342.72-.07.92s-1.12 0-1.51-.436c-.165-.177-.435-.66-.59-1.073-.153-.413-.423-.943-.601-1.168-.507-.66-.612-.908-.47-1.167.188-.366.553-.448.978-.236m-2.394.307c.306.283.377.46.483 1.156.095.683.212.967.696 1.71.33.494.59.978.59 1.084 0 .272-.284.343-.732.19-1.002-.342-1.45-.909-1.97-2.43-.317-.93-.317-1.486-.01-1.792.318-.32.518-.295.943.082"/>
</svg>
