<?xml version="1.0" encoding="utf-8"?>
<!-- Generator: Adobe Illustrator 16.0.0, SVG Export Plug-In . SVG Version: 6.00 Build 0)  -->
<!DOCTYPE svg PUBLIC "-//W3C//DTD SVG 1.1//EN" "http://www.w3.org/Graphics/SVG/1.1/DTD/svg11.dtd">
<svg version="1.1" id="Layer_1" xmlns="http://www.w3.org/2000/svg" xmlns:xlink="http://www.w3.org/1999/xlink" x="0px" y="0px"
	 width="72px" height="72px" viewBox="0 0 72 72" enable-background="new 0 0 72 72" xml:space="preserve">
<g id="Fellowship">
</g>
<g id="Lore">
</g>
<g id="Leadership">
</g>
<g id="Tactics">
</g>
<g id="Spirit">
</g>
<g transform="translate(0.000000,620.000000) scale(0.100000,-0.100000)">
	<path fill="currentColor" d="M336.245,6156.533c-5.771-0.591-14.028-1.885-18.276-2.832c-4.243-0.942-9.551-2.007-11.792-2.476
		c-2.236-0.356-8.135-1.65-12.969-2.949c-4.839-1.294-13.208-3.301-18.638-4.595c-14.502-3.545-34.668-12.383-41.733-18.516
		c-3.418-2.832-6.606-5.19-7.197-5.19c-3.184,0-20.4-8.14-28.54-13.442c-5.186-3.423-11.084-7.188-13.203-8.491
		c-2.012-1.177-6.25-4.121-9.429-6.367c-7.197-5.19-13.33-5.547-19.346-1.06c-15.679,11.909-49.883,25.469-93.159,37.026
		c-15.913,4.248-34.79,4.365-44.932,0.469c-3.887-1.528-7.539-3.77-8.13-4.834c-3.54-6.484,6.953-12.847,25.942-15.679
		c19.81-2.949,52.471-14.858,68.276-24.883c11.68-7.432,25.942-20.283,26.772-24.058c1.172-5.308-2.48-11.914-17.456-30.771
		c-14.146-18.052-24.409-33.145-30.19-44.463c-1.885-3.657-4.834-8.018-6.602-9.668c-4.36-4.009-6.841-9.312-10.029-21.226
		c-1.406-5.547-3.535-11.914-4.712-14.272c-1.177-2.236-2.71-7.31-3.418-11.201c-0.713-3.774-2.124-9.551-3.066-12.852
		c-3.066-9.907-7.778-40.449-8.965-57.661c-1.299-19.927,0.352-50.947,3.54-66.162c1.294-5.771,2.827-14.736,3.535-19.688
		c2.944-21.338,15.215-56.006,22.29-62.607c1.416-1.426,5.19-7.09,8.135-12.734c2.949-5.674,7.427-12.861,9.907-15.928
		c2.471-3.193,5.894-8.379,7.661-11.68c1.65-3.184,4.6-7.422,6.367-9.434c1.885-1.875,4.834-5.537,6.724-7.891
		c18.75-24.531,28.301-35.498,39.858-45.762c2.593-2.354,8.018-7.783,12.026-12.031c4.131-4.365,10.376-9.541,13.916-11.553
		c3.54-2.002,8.496-5.42,11.084-7.422c8.491-6.719,20.874-13.682,28.892-16.152c4.36-1.416,13.086-4.844,19.341-7.793
		c19.219-8.965,30.659-12.734,66.27-21.816c13.086-3.301,32.671-5.068,56.602-5.068c31.836-0.117,54.707,2.949,73.701,9.551
		c4.482,1.543,13.086,4.131,18.984,5.664c5.898,1.406,13.799,4.248,17.686,6.24c3.77,1.895,9.082,4.131,11.68,4.961
		c2.598,0.83,7.422,3.301,10.723,5.42c12.979,8.613,28.311,12.031,35.859,8.145c7.891-4.131,32.9-11.328,43.516-12.5
		c14.736-1.777,23.809-0.127,38.086,6.836c15.791,7.666,42.324,27.822,46.689,35.605c1.416,2.363,5.43,7.207,9.082,10.732
		c7.9,7.666,12.734,16.748,19.453,36.094c5.898,17.207,6.494,19.57,8.848,38.672c1.172,10.264,2.822,17.686,4.834,22.412
		c5.195,12.256,6.133,16.27,6.963,29.59c0.352,7.197,1.533,23.584,2.471,36.563c1.885,27.471,2.236,75.82,0.352,82.188
		c-0.703,2.715-2.705,5.659-4.951,7.432c-2.109,1.533-6.133,4.712-9.072,6.958c-2.949,2.354-8.027,5.659-11.328,7.31
		c-7.07,3.652-9.082,6.719-11.074,16.152c-1.777,8.96-6.016,21.108-9.795,28.657c-1.65,3.179-3.662,9.316-4.365,13.56
		c-0.83,4.131-2.119,9.194-2.949,11.318c-0.938,2.124-2.949,8.965-4.717,15.215c-1.65,6.484-4.717,14.263-7.061,18.037
		c-2.139,3.662-5.078,9.204-6.387,12.148c-4.121,9.673-29.717,46.46-41.27,59.312c-1.768,2.007-5.313,6.489-8.008,10.029
		c-13.33,18.037-59.082,52.241-76.66,57.305c-6.24,1.772-13.564,6.255-24.287,14.746c-3.066,2.476-8.135,5.303-11.211,6.484
		c-3.057,1.06-8.945,3.535-13.203,5.42c-4.238,1.885-11.084,4.126-15.322,5.073c-4.248,0.825-11.67,2.593-16.514,3.892
		c-4.834,1.299-12.5,3.066-17.09,3.774c-4.482,0.825-11.914,2.119-16.514,3.066C388.369,6156.889,350.4,6157.949,336.245,6156.533z
		 M365.488,6137.192c4.727-3.657,10.371-16.743,14.16-32.788c2.598-11.079-3.545-14.966-12.861-8.252
		c-6.958,5.073-7.778,6.494-9.429,17.808c-0.83,5.781-2.598,12.856-3.892,15.688c-1.177,2.827-2.48,5.894-2.827,6.953
		C348.867,6142.143,358.662,6142.377,365.488,6137.192z M331.416,6138.374c5.303-2.241,8.369-6.484,11.431-15.806
		c1.421-4.365,4.131-10.967,6.021-14.619c2.593-5.073,3.301-7.666,2.71-10.259c-1.06-5.186-4.478-5.664-10.962-1.65
		c-6.606,4.004-9.199,8.843-18.398,33.721c-2.48,6.841-2.48,6.958-0.234,8.613C324.927,6140.493,326.46,6140.493,331.416,6138.374z
		 M398.037,6135.424c4.131-4.126,4.6-5.186,5.313-13.091c0.469-4.717,1.885-11.904,3.184-15.801c2.832-9.077,2.832-12.148,0-13.687
		c-3.896-1.992-7.197-1.294-10.723,2.129c-3.311,3.301-4.023,5.19-7.676,20.283c-0.938,4.248-2.588,10.493-3.535,14.033
		c-2.129,8.018-0.947,10.732,4.707,10.732C392.5,6140.024,394.502,6138.959,398.037,6135.424z M423.398,6133.657
		c6.836-2.837,8.955-6.841,8.955-16.748c0-4.829,0.596-12.383,1.426-16.865c1.289-7.539,1.162-8.491-0.83-10.728
		c-4.727-5.186-12.383-1.177-14.629,7.549c-0.703,2.944-1.299,7.896-1.299,11.084c0,3.184-0.82,8.374-1.758,11.558
		c-2.363,7.783-2.256,13.086,0.352,14.502C418.32,6135.659,418.789,6135.542,423.398,6133.657z M305.83,6131.645
		c1.06-0.938,4.951-7.773,8.491-15.205c3.647-7.427,7.661-14.98,8.838-16.748c4.131-6.25,0.708-10.61-6.841-8.726
		c-3.418,0.825-9.785,7.31-12.495,12.617c-1.294,2.363-5.19,8.374-8.848,13.447c-7.075,9.907-8.135,14.146-3.774,15.918
		C294.619,6134.482,303.35,6133.657,305.83,6131.645z M449.932,6126.582c1.768-0.947,5.176-3.892,7.539-6.489l4.248-4.712
		l-0.703-15.688c-0.713-17.095-1.895-20.986-6.846-20.986c-1.533,0-4.238,1.294-6.133,2.827c-3.184,2.715-3.184,2.832-4.121,23.115
		c-0.713,14.502-0.596,20.874,0.342,22.046C445.908,6128.588,445.908,6128.588,449.932,6126.582z M276.934,6118.559
		c5.19-3.535,8.257-6.724,10.381-10.498c1.65-3.062,4.717-7.065,6.841-9.072c3.887-3.662,4.951-8.374,2.705-11.909
		c-1.172-1.895-8.369-2.007-11.792-0.244c-1.177,0.718-5.537,5.547-9.668,10.854c-4.121,5.303-9.551,12.021-11.909,14.858
		c-5.186,6.011-5.073,5.894-2.471,8.848C264.087,6124.809,268.799,6123.984,276.934,6118.559z M248.984,6110.073
		c2.129-0.947,4.604-2.949,5.43-4.482c0.825-1.416,5.42-6.841,10.254-11.792c7.314-7.554,8.608-9.551,8.022-11.914
		c-0.83-3.535-6.372-6.011-11.206-4.951c-2.236,0.479-5.654,3.301-9.785,7.9c-9.551,10.737-11.909,13.208-14.976,15.21
		c-4.004,2.48-2.593,7.671,2.598,9.907C244.033,6112.08,244.155,6112.08,248.984,6110.073z M484.238,6106.064
		c3.662-4.604,3.887-7.432,1.299-15.332c-1.416-4.009-2.48-9.556-2.48-12.5c0-8.374-4.834-11.44-10.84-6.602
		c-3.652,2.822-4.482,6.245-3.193,13.799c0.586,3.062,1.543,9.546,2.236,14.38c0.605,4.839,1.777,9.438,2.48,10.264
		C475.391,6112.192,481.172,6110.073,484.238,6106.064z M508.301,6095.214c2.705-3.066,4.238-5.898,4.238-8.022
		c0-3.413-6.25-29.829-7.549-31.958c-0.938-1.416-6.484-1.768-8.477-0.352c-2.012,1.182-6.377,8.843-6.377,10.85
		c0,0.942,1.299,4.951,2.949,8.843c1.885,4.6,2.939,9.438,2.939,13.564c0,7.188,2.363,11.792,5.781,11.792
		C502.988,6099.931,505.928,6097.807,508.301,6095.214z M230.356,6092.026c3.301-3.179,8.374-7.778,11.44-10.493
		c4.365-3.77,5.425-5.537,5.425-8.491c0-7.666-9.907-9.551-16.509-3.184c-1.772,1.65-8.374,6.602-14.858,10.967
		c-12.622,8.491-14.502,11.44-9.668,14.858c1.768,1.294,5.186,1.89,10.366,1.89C224.224,6097.573,224.463,6097.456,230.356,6092.026
		z M535.185,6083.183c3.652-3.066,8.018-10.142,8.018-13.208c0-1.65-1.533-5.894-3.535-9.312c-1.895-3.423-4.365-9.551-5.43-13.799
		c-2.012-8.14-3.066-9.434-7.314-9.434c-3.066,0-10.85,6.963-10.85,9.785c0,0.942,1.768,5.073,3.896,9.199
		c2.109,4.131,4.59,10.967,5.42,15.215c0.82,4.243,2.002,8.843,2.598,10.376C529.17,6084.833,532.344,6085.429,535.185,6083.183z
		 M198.872,6079.174c1.65-1.177,4.834-3.652,7.075-5.781c2.236-2.002,6.606-5.186,9.551-6.836
		c6.602-3.77,11.792-9.551,10.845-12.144c-0.82-2.358-5.303-4.009-10.728-4.009c-7.896,0-31.128,16.387-32.778,23.11
		C181.187,6080.117,191.914,6083.779,198.872,6079.174z M404.062,6077.172c14.971-3.184,31.367-7.554,35.127-9.551
		c2.012-1.064,7.793-3.184,12.861-4.834c5.068-1.543,12.383-4.844,16.27-7.197c3.896-2.358,10.146-6.128,13.799-8.252
		c9.199-5.19,17.207-10.737,22.402-15.332c2.363-2.124,6.719-4.834,9.668-6.245c12.266-5.313,35.381-28.066,48.115-47.29
		c9.316-14.15,18.633-31.133,18.633-34.194c0-0.952,1.406-4.717,3.057-8.257c2.959-6.367,9.902-31.958,9.902-36.558
		c0-1.294-1.045-3.418-2.344-4.712c-2.119-2.124-3.896-2.246-27.48-2.124c-13.916,0-25.703-0.239-26.299-0.596
		c-0.586-0.356-6.006-1.411-12.031-2.471c-26.758-4.595-37.012-17.217-47.275-58.369c-5.313-21.23-7.9-27.012-14.385-33.379
		c-4.961-4.834-6.494-5.664-10.381-5.664c-12.852,0-32.9,15.332-49.883,37.979c-5.068,6.836-11.436,13.916-14.033,15.801
		c-2.588,1.768-6.25,5.308-8.145,7.9c-1.875,2.598-6.24,6.724-9.658,9.082c-5.313,3.657-31.128,31.479-37.266,40.093
		c-1.533,2.236-2.007,5.303-2.007,15.093v12.144l-4.839,4.604c-2.71,2.471-8.369,9.551-12.729,15.801
		c-8.374,12.026-19.575,24.282-50.82,55.771c-17.456,17.573-19.346,19.102-25.713,21.113c-6.719,2.114-11.436,5.308-11.436,7.778
		c0,3.662,14.038,13.682,29.482,20.986c4.243,2.007,11.436,5.43,15.923,7.671c4.595,2.124,11.67,4.834,15.913,5.894
		c4.238,0.947,11.079,2.837,15.332,4.131c14.146,4.121,33.726,5.771,63.677,5.425
		C386.602,6079.062,397.92,6078.349,404.062,6077.172z M563.252,6060.781c3.652-6.021,3.066-12.266-1.885-20.518
		c-2.363-3.774-5.664-9.907-7.207-13.447c-4.238-9.429-5.771-10.024-11.084-4.834c-4.355,4.36-4.473,9.312-0.586,16.743
		c1.65,2.949,4.365,9.082,6.143,13.564c1.758,4.482,3.994,9.077,4.951,10.264C556.416,6065.854,560.654,6065.024,563.252,6060.781z
		 M582.344,6042.504c2.725-3.184,4.834-10.732,3.896-14.272c-0.469-1.772-2.822-5.894-5.42-9.316
		c-2.471-3.301-5.664-8.252-6.963-10.85c-3.301-6.245-5.059-7.544-9.316-6.602c-8.125,1.763-8.73,8.608-1.406,19.341
		c2.822,4.126,6.357,10.728,7.891,14.619c1.543,4.014,3.545,7.544,4.365,8.14C577.744,6045.092,580.459,6044.624,582.344,6042.504z
		 M154.062,6037.553c3.652-3.54,5.425-8.374,4.238-11.323c-1.294-3.535-18.271-1.538-21.338,2.593
		c-2.593,3.301-2.119,8.252,0.825,10.259c1.416,1.06,4.956,1.89,7.783,1.89C149.702,6040.971,151.353,6040.263,154.062,6037.553z
		 M599.678,6018.085c4.014-4.238,4.482-11.079,1.064-15.679c-1.406-2.002-4.238-5.898-6.24-8.604
		c-7.432-10.381-10.146-12.974-13.447-12.974c-4.482,0-6.006,2.007-6.006,7.783c0,4.473,0.82,5.898,6.602,12.5
		c3.652,4.126,7.9,10.254,9.434,13.672C594.141,6021.63,595.791,6022.216,599.678,6018.085z M138.374,6016.206
		c5.068-2.715,8.145-3.535,13.208-3.535c3.774,0,7.314-0.596,8.14-1.416c2.358-2.358,1.655-6.255-1.763-9.434
		c-6.846-6.255-10.854-7.08-17.461-3.066c-3.066,1.768-7.075,2.71-13.086,3.066c-10.85,0.708-12.734,2.593-8.608,9.199
		c2.598,4.243,8.486,8.716,11.436,8.716C131.064,6019.736,134.727,6018.208,138.374,6016.206z M124.346,5995.922
		c2.944-1.294,8.018-2.715,11.323-3.066c7.661-0.708,8.96-1.763,8.96-7.544c0-9.316-8.848-13.091-18.867-8.018
		c-2.71,1.411-6.958,2.358-10.264,2.358c-7.422,0-11.436,2.119-11.909,6.128c-0.586,4.482,1.533,7.661,6.602,10.264
		C115.854,5999.111,117.979,5999.111,124.346,5995.922z M617.256,5995.922c2.002-2.593,2.705-8.608,1.406-12.148
		c-0.693-1.885-4.121-6.367-7.656-9.902c-3.428-3.657-7.666-8.374-9.434-10.381c-2.236-2.705-4.131-3.887-6.602-3.887
		c-4.014,0-5.781,2.71-5.781,8.843c0,3.418,1.074,5.425,5.664,10.376c3.174,3.423,6.963,8.018,8.613,10.264
		C608.643,5996.748,614.307,5999.462,617.256,5995.922z M175.405,5977.763c0.713-10.61,0.947-11.553,5.308-17.695
		c2.471-3.535,6.484-9.546,8.726-13.442c5.898-10.02,22.52-30.889,32.9-41.387c11.318-11.318,16.626-17.925,21.343-25.942
		c6.719-11.436,10.142-13.916,21.812-15.801c2.598-0.352,6.011-1.177,7.666-1.88c4.014-1.543,18.872-17.93,22.881-25.239
		c4.126-7.793,25.586-35.859,37.144-49.063c2.598-2.949,7.671-10.254,11.313-16.27c11.563-19.336,17.813-27.588,26.421-35.254
		c4.717-4.121,11.084-11.328,14.385-15.918c6.602-9.551,9.902-13.799,22.412-28.545c4.824-5.664,10.85-13.086,13.438-16.504
		c2.598-3.418,6.602-8.496,8.838-11.318c2.363-2.832,7.314-9.209,11.211-14.033c3.77-4.834,8.955-10.967,11.318-13.564
		c5.537-5.889,7.432-10.498,5.664-13.799c-1.533-2.949-15.459-9.424-26.885-12.617c-4.727-1.289-17.109-4.004-27.598-6.133
		c-16.982-3.184-21.455-3.652-40.923-3.77c-35.249-0.117-62.612,5.43-94.575,19.102c-6.245,2.588-12.134,4.844-12.964,4.844
		c-0.825,0-3.423,1.533-5.669,3.418c-2.236,1.758-6.479,4.473-9.424,6.016c-2.954,1.406-6.846,3.77-8.848,5.303
		c-1.88,1.416-6.255,4.004-9.434,5.654c-3.301,1.65-9.077,5.303-12.974,8.262c-12.026,9.199-39.854,37.383-46.812,47.402
		c-8.374,11.914-19.575,31.367-21.699,37.607c-0.938,2.598-2.949,6.846-4.478,9.561c-3.657,6.24-4.951,11.318-7.197,28.77
		c-1.06,8.135-2.71,16.982-3.657,19.697c-2.114,6.367-3.301,24.053-3.184,50.586c0,18.037,0.474,23.584,3.066,36.553
		c1.768,8.491,3.657,19.341,4.248,24.18c0.82,6.602,2.827,12.847,8.14,24.761c3.774,8.721,7.896,18.867,9.082,22.402
		c1.172,3.54,3.53,8.608,5.298,11.201c1.772,2.598,4.722,7.549,6.489,10.972c4.243,7.896,13.213,16.387,15.093,14.502
		C174.111,5989.555,175.049,5983.896,175.405,5977.763z M107.124,5970.454c2.837-1.299,8.73-2.476,13.33-2.949
		c6.479-0.474,8.608-1.069,10.259-3.184c3.062-3.774,2.71-5.547-2.007-10.264c-4.121-4.131-4.243-4.238-10.962-3.179
		c-3.657,0.474-11.44,0.938-17.339,1.06c-14.263,0-15.679,1.182-11.558,9.668c1.768,3.657,9.785,10.972,12.266,10.972
		C101.592,5972.578,104.302,5971.625,107.124,5970.454z M629.17,5970.566c2.939-2.358,4.248-8.96,3.174-14.854
		c-0.586-3.062-3.301-6.25-13.682-15.332c-7.07-6.245-13.789-11.436-14.854-11.436c-2.705,0-6.367,3.418-6.367,5.781
		c0,4.717,6.494,14.858,16.514,25.938c6.006,6.489,11.309,11.914,11.787,11.914S627.744,5971.625,629.17,5970.566z
		 M117.388,5938.256c7.544-2.71,6.958-8.96-1.416-14.028c-3.179-2.007-6.011-2.363-16.86-2.363c-7.197,0-14.858-0.581-16.865-1.294
		c-4.482-1.533-9.551,0.117-9.551,3.066c0,1.064,2.71,4.829,6.011,8.252l6.021,6.367l11.436,0.474
		c6.25,0.122,12.734,0.474,14.385,0.591C112.197,5939.443,115.264,5938.964,117.388,5938.256z M641.191,5937.08
		c2.129-2.124,2.363-3.301,1.768-7.427c-1.055-6.602-3.184-9.438-9.785-13.208c-3.174-1.768-7.549-4.951-9.785-6.953
		c-5.898-5.547-8.721-6.724-12.266-5.313c-3.887,1.416-4.951,6.011-2.949,11.436c1.299,3.188,3.311,5.313,7.549,7.783
		c3.301,1.89,8.965,6.255,12.627,9.795c3.643,3.53,7.539,6.367,8.477,6.367C637.891,5939.56,639.775,5938.491,641.191,5937.08z
		 M111.611,5910.664c8.721-4.473,0.469-15.21-11.44-14.858c-3.188,0.122-11.084-0.708-17.69-1.768
		c-6.602-1.055-12.847-1.65-13.911-1.177c-0.942,0.356-1.772,1.89-1.772,3.54c0,9.072,5.898,12.969,22.524,14.619
		C105.713,5912.67,107.837,5912.553,111.611,5910.664z M649.209,5909.37c2.363-1.65,2.715-2.715,2.119-7.075
		c-0.703-7.197-3.525-10.85-10.605-14.15c-7.549-3.535-12.979-3.657-16.279-0.356c-4.004,4.009-2.588,8.257,3.906,11.797
		c3.174,1.65,7.061,4.36,8.828,6.011c3.076,2.827,7.324,5.547,8.613,5.664C646.152,5911.259,647.685,5910.429,649.209,5909.37z
		 M106.655,5885.786c5.781-4.014,1.655-14.741-6.484-16.392c-1.772-0.352-10.024-2.246-18.281-4.248
		c-8.252-2.002-16.152-3.301-17.446-2.827c-3.188,1.064-3.066,5.781,0.352,12.383l2.593,5.303l8.257,0.83
		c4.595,0.469,12.505,2.119,17.686,3.774c5.19,1.528,9.673,2.827,10.02,2.944C103.706,5887.67,105.239,5886.845,106.655,5885.786z
		 M618.203,5875.522c5.303-1.65,13.789-3.657,18.857-4.36c5.186-0.713,12.031-2.598,15.449-4.131
		c3.301-1.533,8.965-3.301,12.383-3.999c9.678-2.012,18.164-7.437,19.814-12.627c1.289-3.77,1.182-4.595-0.83-7.305
		c-2.949-4.014-12.852-8.018-28.652-11.675c-10.723-2.48-14.033-2.842-25.225-2.129c-14.512,0.83-30.43,3.906-42.578,8.14
		c-4.482,1.533-12.734,3.774-18.154,4.712c-5.547,1.069-15.215,3.545-21.709,5.547c-9.307,2.827-12.734,4.6-16.865,8.374
		c-6.475,6.011-7.539,9.551-3.994,13.325c3.535,3.779,12.969,7.661,21.689,8.848c3.896,0.586,19.102,0.82,33.721,0.703
		C606.758,5878.588,609.355,5878.354,618.203,5875.522z M105.713,5858.193c1.299-1.299,2.363-3.184,2.363-4.131
		c0-3.066-3.423-8.608-5.547-9.312c-1.177-0.356-7.432-2.007-13.916-3.657c-7.783-2.124-13.794-4.478-17.803-7.197
		c-6.367-4.355-9.556-5.068-10.62-2.236c-1.055,2.588,4.131,16.978,6.606,18.281c1.299,0.703,6.494,1.88,11.553,2.827
		c5.073,0.938,11.797,2.944,15.098,4.595C100.522,5861.137,102.651,5861.259,105.713,5858.193z M105.474,5829.658
		c0.83-0.83,1.416-3.418,1.416-5.781c0-6.25-4.126-10.732-12.378-13.32c-3.652-1.064-10.493-4.131-15.093-6.729
		c-9.907-5.293-12.974-5.654-15.566-1.768c-2.358,3.652-0.708,10.85,3.179,14.502c1.538,1.299,9.321,4.727,17.461,7.432
		c8.13,2.832,15.557,5.42,16.509,6.016C103.35,5831.308,103.823,5831.308,105.474,5829.658z M108.076,5801.005
		c1.65-2.012,0.942-10.391-1.064-12.861c-0.708-0.83-4.717-3.174-8.843-5.303c-4.487-2.246-10.972-7.08-15.449-11.436
		c-4.37-4.131-8.848-7.549-10.024-7.549c-3.301,0-5.898,4.6-5.898,10.254c0,8.018,1.65,10.615,9.082,14.277
		c3.774,1.885,11.318,5.771,16.865,8.828C103.589,5803.125,105.83,5803.71,108.076,5801.005z M117.51,5774.345
		c3.179-5.771-1.655-14.141-13.33-23.105c-4.009-3.066-9.312-7.9-11.914-10.625c-3.301-3.76-5.425-5.068-7.896-5.068
		c-8.965,0-6.958,15.576,2.827,21.816c2.72,1.768,8.491,6.836,12.744,11.318c6.831,7.08,8.481,8.145,12.139,8.145
		C115.029,5776.826,116.562,5776.113,117.51,5774.345z M123.877,5745.458c1.055-0.938,1.885-2.705,1.885-3.887
		c0-3.77-5.781-13.682-9.434-16.045c-2.007-1.289-6.841-5.889-10.732-10.254c-4.004-4.482-8.135-8.018-9.312-8.018
		c-3.306,0-5.903,4.6-5.903,10.488c0,5.195,0.356,5.547,11.558,16.27C116.094,5747.705,119.751,5749.589,123.877,5745.458z
		 M132.959,5719.16c2.466-1.992,2.588-2.48,1.294-6.953c-0.83-2.598-3.779-7.91-6.606-11.787c-2.944-3.896-6.016-8.73-7.075-10.625
		c-3.657-6.953-12.261-9.902-14.858-5.068c-3.418,6.494,0,14.385,11.558,26.66C127.29,5721.992,128.589,5722.695,132.959,5719.16z
		 M145.454,5699.228c2.358-1.533,4.009-7.422,3.179-11.553c-0.464-2.832-2.231-5.186-5.425-7.783
		c-2.71-2.012-6.602-6.602-8.721-10.02c-4.717-7.197-7.666-9.199-10.967-7.539c-4.839,2.588-5.073,10.957-0.352,16.973
		c1.763,2.236,5.537,7.314,8.369,11.084C138.97,5699.941,141.558,5701.708,145.454,5699.228z M163.374,5677.294
		c0.83-0.938,1.65-3.408,2.007-5.654c0.591-3.066-0.117-4.951-2.71-8.604c-1.89-2.598-5.542-8.74-8.018-13.564
		c-5.664-10.967-7.314-12.979-10.732-12.979c-3.54,0-6.489,4.482-7.197,10.967c-0.469,4.492-0.117,5.547,4.248,11.094
		c2.71,3.301,5.894,8.486,7.197,11.436c1.411,2.939,3.184,6.123,4.243,7.197C154.653,5679.423,161.602,5679.531,163.374,5677.294z
		 M181.421,5658.085c3.418-3.184,2.832-11.328-1.538-18.398c-1.88-3.193-4.951-10.029-6.602-15.107
		c-2.832-8.477-3.301-9.307-6.25-9.307c-3.54,0-7.422,3.652-9.316,8.613c-2.002,5.176-1.528,7.656,2.358,13.32
		c2.007,2.949,5.19,8.838,7.197,13.213c2.002,4.365,4.131,8.252,4.951,8.721C174.468,5660.673,179.18,5660.205,181.421,5658.085z
		 M202.412,5640.625c3.301-3.887,2.705-11.318-1.65-22.764c-2.368-6.123-4.6-14.023-4.956-17.686
		c-1.294-11.201-5.898-12.031-11.675-2.119c-1.65,2.832-3.066,6.963-3.184,9.082c-0.117,3.77,5.776,22.637,9.316,29.6
		C192.861,5642.158,199.463,5644.277,202.412,5640.625z M227.051,5624.707c4.956-5.078,5.786-10.615,2.71-19.453
		c-3.066-8.965-4.951-18.154-4.951-24.531c0-5.654-1.528-7.9-5.532-7.9c-3.306,0-11.211,6.953-13.687,11.914
		c-1.65,3.408-1.528,4.355,1.06,11.787c1.533,4.473,2.837,9.785,2.837,11.904c0,4.258,3.652,15.332,6.011,18.164
		C217.861,5629.423,223.159,5628.603,227.051,5624.707z M251.699,5607.021c2.48-3.662,2.715-4.834,1.89-10.02
		c-0.479-3.184-0.942-11.328-1.06-17.93c0-10.85-0.356-12.383-2.603-14.619c-2.471-2.48-2.705-2.588-5.649-0.596
		c-6.26,4.121-9.204,15.098-6.489,24.287c0.703,2.256,1.772,7.783,2.236,12.158c0.591,4.355,1.772,8.838,2.598,9.775
		C244.858,5612.792,248.633,5611.621,251.699,5607.021z M463.965,5601.474c1.523-0.938,4.238-4.131,5.889-7.197
		c3.057-5.303,6.719-9.316,14.141-15.918c5.908-5.303,4.844-10.957-2.344-12.5c-5.664-1.299-10.264,0.83-15.215,6.963
		c-2.246,2.715-7.07,8.369-10.732,12.5c-4.951,5.42-6.836,8.379-6.836,10.85C448.867,5603.955,456.055,5606.425,463.965,5601.474z
		 M274.106,5598.525c5.894-6.25,7.783-11.914,6.011-18.857c-0.82-3.896-1.06-9.434-0.586-15.811c0.82-9.668,0.82-9.902-2.002-11.201
		c-2.363-1.055-3.779-0.83-7.319,0.82c-7.773,3.662-8.726,6.494-8.604,27.842c0.117,15.801,0.474,18.857,2.002,19.805
		C267.031,5603.125,270.332,5602.304,274.106,5598.525z M439.072,5588.037c2.363-1.426,6.016-5.547,8.262-9.199
		c2.354-3.652,6.25-8.721,8.721-11.328c2.48-2.588,4.961-6.133,5.664-7.9c1.064-2.822,0.82-3.525-1.533-5.186
		c-6.367-4.121-18.037,2.48-25.244,14.268c-1.992,3.311-5.176,7.432-7.188,9.326c-4.121,4.004-4.834,8.838-1.65,11.895
		C428.467,5592.275,433.174,5591.562,439.072,5588.037z M301.221,5585.322c4.844-5.186,6.377-9.668,6.025-16.631
		c-0.122-1.875,0.234-7.9,0.698-13.086c0.83-9.082,0.83-9.668-1.528-10.381c-7.31-2.354-13.916,3.906-15.679,14.746
		c-0.596,4.121-1.65,10.488-2.246,14.141c-1.65,9.082-1.416,11.797,0.83,14.277C292.5,5591.923,296.04,5590.976,301.221,5585.322z
		 M326.811,5582.724c3.188-3.184,5.313-8.369,6.963-17.217c0.942-4.717,2.593-10.967,3.535-13.789
		c2.358-6.367,2.358-11.445,0.239-12.275c-3.896-1.523-11.792,2.607-15.332,8.027c-1.064,1.533-3.179,9.551-4.829,17.695
		c-3.545,17.441-3.423,15.322-1.069,17.559C318.682,5585.205,324.341,5585.087,326.811,5582.724z M413.965,5580.605
		c2.705-2.002,4.717-4.951,5.889-8.604c1.055-3.193,4.248-8.613,7.197-12.148c4.121-4.951,5.303-7.314,5.078-10.029
		c-0.361-3.174-0.83-3.535-5.078-3.887c-6.836-0.469-11.436,3.066-18.037,13.213c-13.33,21.221-13.447,21.221-10.508,24.16
		C400.762,5585.673,409.365,5584.13,413.965,5580.605z M378.467,5582.138c5.43-2.832,10.605-9.082,15.088-18.154
		c2.471-5.195,5.898-11.328,7.549-13.447c3.535-4.834,3.418-7.197-0.703-9.199c-4.131-2.012-11.201,0-15.098,4.365
		c-1.65,1.768-4.355,6.602-5.898,10.723c-1.533,4.131-4.238,9.434-6.016,11.68c-5.068,6.602-6.123,9.082-4.707,11.67
		C370.566,5583.437,374.219,5584.257,378.467,5582.138z M354.531,5579.072c3.057-2.832,3.77-4.6,4.829-11.563
		c0.952-6.826,2.119-9.668,6.958-17.09c3.301-4.951,5.898-9.785,5.898-10.85c0-2.715-2.832-3.428-7.314-1.895
		c-10.024,3.418-14.502,9.082-19.697,24.297c-3.179,9.307-3.179,14.863-0.107,17.92
		C348.276,5583.085,350.278,5582.841,354.531,5579.072z"/>
</g>
</svg>
