<?xml version="1.0" encoding="utf-8"?>
<!-- Generator: Adobe Illustrator 16.0.0, SVG Export Plug-In . SVG Version: 6.00 Build 0)  -->
<!DOCTYPE svg PUBLIC "-//W3C//DTD SVG 1.1//EN" "http://www.w3.org/Graphics/SVG/1.1/DTD/svg11.dtd">
<svg version="1.1" id="Layer_1" xmlns="http://www.w3.org/2000/svg" xmlns:xlink="http://www.w3.org/1999/xlink" x="0px" y="0px"
	 width="72px" height="72px" viewBox="0 0 72 72" enable-background="new 0 0 72 72" xml:space="preserve">
<g id="Fellowship">
</g>
<g id="Baggins">
</g>
<g id="Lore">
</g>
<g id="Leadership">
</g>
<g id="Tactics">
</g>
<path fill="currentColor" d="M32.625,0.961h5.901h2.349c0.561,0,1.46-0.007,1.626,0.005c0.166,0.013,0.923,0.319,0.937,0.408
	c0.014,0.09,0.491-0.031,0.505,0.123c0.013,0.153,0.171,0.344,0.479,0.574c0.638,0.562,1.365,1.008,2.181,1.339
	c0.817,0.332,1.686,0.613,2.603,0.842c0.92,0.23,1.824,0.447,2.718,0.65c0.893,0.205,1.722,0.485,2.488,0.842
	c0.791,0.332,1.543,0.695,2.257,1.091c0.714,0.396,1.468,0.785,2.26,1.167c0.356,0.153,0.731,0.332,1.128,0.536
	c0.396,0.205,0.797,0.357,1.206,0.459c0.383,0.052,0.657,0.224,0.822,0.517c0.166,0.293,0.255,0.645,0.269,1.052
	c0.012,0.409-0.007,0.842-0.058,1.301c-0.052,0.459-0.076,0.868-0.076,1.225v18.677v7.999v4.096c0,0.535-0.039,0.887-0.114,1.053
	c-0.077,0.166-0.192,0.28-0.346,0.344c-0.152,0.064-0.313,0.153-0.479,0.269c-0.166,0.114-0.313,0.389-0.439,0.822
	c-0.384,0.995-0.855,1.945-1.416,2.852c-0.562,0.906-1.155,1.786-1.78,2.641s-1.264,1.723-1.914,2.603s-1.243,1.767-1.778,2.66
	c-1.021,1.531-2.298,2.94-3.827,4.229c-1.532,1.288-2.998,2.507-4.401,3.656c-0.689,0.612-1.366,1.186-2.029,1.722
	c-0.664,0.535-1.364,1.033-2.105,1.492c-0.663,0.434-1.204,0.843-1.626,1.225c-0.421,0.383-0.722,0.919-0.899,1.607h-3.176
	c-0.562,0-0.913-0.013-1.053-0.038s-0.191-0.09-0.152-0.191s0.057-0.224,0.057-0.363c0-0.141-0.128-0.313-0.382-0.517
	c-0.588-0.46-1.212-0.836-1.875-1.13c-0.665-0.292-1.277-0.593-1.837-0.899c-1.455-0.943-2.781-1.938-3.981-2.984
	c-1.2-1.046-2.411-2.143-3.636-3.292c-1.276-1.225-2.54-2.507-3.789-3.846c-1.25-1.34-2.399-2.762-3.444-4.268
	c-0.511-0.74-1.065-1.486-1.665-2.239c-0.6-0.753-1.116-1.498-1.55-2.239c-0.255-0.408-0.542-0.803-0.861-1.187
	c-0.319-0.383-0.625-0.745-0.918-1.09c-0.293-0.345-0.549-0.689-0.766-1.033c-0.217-0.345-0.326-0.709-0.326-1.092V25.647v-9.606
	V12.06c0-0.433-0.013-0.79-0.038-1.071c-0.025-0.28-0.032-0.542-0.018-0.785c0.011-0.242,0.095-0.427,0.249-0.555
	c0.152-0.127,0.382-0.293,0.689-0.498c0.483-0.127,0.911-0.313,1.281-0.555c0.371-0.242,0.734-0.503,1.091-0.785
	c0.637-0.357,1.256-0.625,1.856-0.803s1.181-0.434,1.741-0.766c0.332-0.153,0.708-0.35,1.13-0.593
	c0.42-0.243,0.847-0.491,1.281-0.747c0.434-0.254,0.862-0.465,1.283-0.631c0.42-0.166,0.835-0.261,1.243-0.287
	c0.384-0.026,0.779-0.026,1.188,0c0.408,0.025,0.765-0.039,1.072-0.192c0.305-0.127,0.548-0.249,0.727-0.364
	c0.178-0.114,0.369-0.229,0.575-0.344c0.203-0.115,0.42-0.223,0.65-0.325c0.229-0.102,0.522-0.153,0.879-0.153
	c0.23,0,0.568-0.025,1.015-0.077c0.446-0.051,0.887-0.166,1.321-0.345c0.434-0.178,0.803-0.357,1.11-0.536
	C30.336,1.472,32.625,1.243,32.625,0.961z M30.451,5.746c-0.868,0.153-1.748,0.243-2.642,0.268
	c-0.893,0.025-1.785,0.204-2.678,0.535c-0.817,0.256-1.685,0.46-2.602,0.613c-0.919,0.153-1.749,0.421-2.487,0.803
	c-0.64,0.307-1.329,0.575-2.067,0.804c-0.741,0.229-1.448,0.498-2.124,0.804c-0.677,0.306-1.27,0.708-1.78,1.206
	c-0.511,0.497-0.893,1.18-1.148,2.047c-0.154,0.893-0.217,1.779-0.192,2.66c0.026,0.88,0.097,1.767,0.211,2.66
	c0.114,0.893,0.223,1.793,0.326,2.698c0.102,0.906,0.152,1.806,0.152,2.698c0,0.741-0.077,1.506-0.229,2.297
	c-0.152,0.791-0.166,1.556-0.037,2.296c0.102,0.435,0.242,0.76,0.42,0.976c0.178,0.217,0.42,0.358,0.728,0.421
	c0.305,0.064,0.625,0.09,0.956,0.077c0.332-0.013,0.689-0.02,1.072-0.02h11.022c0.969,0,1.844,0.013,2.621,0.038
	c0.779,0.026,1.403-0.063,1.875-0.268c0.472-0.204,0.824-0.586,1.053-1.147c0.23-0.562,0.332-1.416,0.307-2.564
	c-0.103-1.99-0.148-3.98-0.134-5.971c0.012-1.99,0.019-4.005,0.019-6.047c0-0.663,0.07-1.499,0.21-2.507
	c0.14-1.008,0.179-1.945,0.115-2.813c-0.064-0.867-0.307-1.556-0.728-2.067C32.27,5.733,31.523,5.567,30.451,5.746z M39.1,33.417
	c-0.126,0.306-0.21,0.65-0.248,1.034c-0.038,0.383-0.031,0.759,0.021,1.128c0.05,0.371,0.095,0.766,0.133,1.186
	c0.039,0.422,0.058,0.798,0.058,1.13v6.735c0,2.45-0.007,4.875-0.019,7.272c-0.014,2.399-0.007,4.822,0.019,7.271
	c0,0.357-0.019,0.747-0.058,1.167c-0.038,0.422-0.083,0.862-0.133,1.32c-0.052,0.46-0.052,0.899,0,1.321
	c0.05,0.421,0.139,0.771,0.267,1.053c0.23,0.459,0.542,0.656,0.938,0.593c0.396-0.064,0.812-0.236,1.245-0.518
	c0.434-0.28,0.828-0.612,1.186-0.994c0.357-0.383,0.625-0.612,0.804-0.688c1.327-0.894,2.615-1.851,3.866-2.871
	c1.249-1.02,2.321-2.258,3.214-3.712c0.307-0.562,0.714-1.097,1.226-1.607c0.51-0.511,0.957-1.072,1.339-1.685
	c0.485-0.791,0.964-1.601,1.436-2.43c0.471-0.83,0.963-1.717,1.474-2.661c0.586-0.943,1.046-1.837,1.378-2.679
	c0.331-0.841,0.579-1.709,0.747-2.603c0.164-0.893,0.292-1.799,0.382-2.717c0.089-0.919,0.171-1.914,0.248-2.986
	c0.025-0.407,0.038-0.854,0.038-1.34c0-0.483-0.045-0.924-0.133-1.32c-0.091-0.395-0.262-0.728-0.518-0.995
	c-0.255-0.268-0.676-0.415-1.263-0.44c-1.021-0.077-2.066-0.083-3.139-0.019c-1.071,0.063-2.117,0.095-3.139,0.095
	c-1.249,0-2.456-0.005-3.616-0.019c-1.161-0.013-2.342-0.006-3.54,0.019c-0.331,0-0.701-0.019-1.109-0.057
	c-0.409-0.038-0.804-0.058-1.188-0.058c-0.382,0-0.74,0.083-1.071,0.249C39.61,32.76,39.33,33.035,39.1,33.417z"/>
</svg>
