<svg xmlns="http://www.w3.org/2000/svg" xml:space="preserve" width="72px" height="72px" viewBox="0 0 72 72">
    <path fill="currentColor" d="M32.625.961h8.25c.561 0 1.46-.007 1.626.005s.923.319.937.408c.014.09.491-.031.505.123q.018.23.479.574a7.6 7.6 0 0 0 2.181 1.339q1.227.498 2.603.842 1.378.345 2.718.65 1.34.307 2.488.842a23 23 0 0 1 2.257 1.091 45 45 0 0 0 2.26 1.167q.533.23 1.128.536a5.5 5.5 0 0 0 1.206.459q.575.078.822.517.249.44.269 1.052.018.613-.058 1.301-.077.689-.076 1.225v30.772q0 .803-.114 1.053a.65.65 0 0 1-.346.344 2.6 2.6 0 0 0-.479.269q-.25.172-.439.822a17 17 0 0 1-1.416 2.852q-.843 1.359-1.78 2.641c-.937 1.282-1.264 1.723-1.914 2.603s-1.243 1.767-1.778 2.66q-1.533 2.296-3.827 4.229a445 445 0 0 1-4.401 3.656 57 57 0 0 1-2.029 1.722 21 21 0 0 1-2.105 1.492q-.994.651-1.626 1.225-.633.575-.899 1.607h-3.176q-.843 0-1.053-.038c-.21-.038-.191-.09-.152-.191s.057-.224.057-.363q0-.211-.382-.517a9 9 0 0 0-1.875-1.13 24 24 0 0 1-1.837-.899 35 35 0 0 1-3.981-2.984 135 135 0 0 1-3.636-3.292 98 98 0 0 1-3.789-3.846 38 38 0 0 1-3.444-4.268 41 41 0 0 0-1.665-2.239 19 19 0 0 1-1.55-2.239 11 11 0 0 0-.861-1.187 147 147 0 0 0-.918-1.09 9 9 0 0 1-.766-1.033 2 2 0 0 1-.326-1.092V12.06q0-.65-.038-1.071a5.4 5.4 0 0 1-.018-.785q.017-.363.249-.555a9 9 0 0 1 .689-.498 4.3 4.3 0 0 0 1.281-.555q.556-.362 1.091-.785.956-.536 1.856-.803c.9-.267 1.181-.434 1.741-.766q.498-.229 1.13-.593.63-.364 1.281-.747a9 9 0 0 1 1.283-.631 4.1 4.1 0 0 1 1.243-.287 9 9 0 0 1 1.188 0q.612.037 1.072-.192.458-.191.727-.364.266-.171.575-.344.305-.172.65-.325.343-.153.879-.153.345 0 1.015-.077a5 5 0 0 0 1.321-.345 9 9 0 0 0 1.11-.536c.298-.176 2.587-.405 2.587-.687m-2.174 4.785a18 18 0 0 1-2.642.268 8.3 8.3 0 0 0-2.678.535q-1.226.384-2.602.613a8.4 8.4 0 0 0-2.487.803q-.96.46-2.067.804-1.11.344-2.124.804a6.2 6.2 0 0 0-1.78 1.206q-.766.746-1.148 2.047a13.4 13.4 0 0 0-.192 2.66q.04 1.32.211 2.66t.326 2.698q.152 1.36.152 2.698 0 1.111-.229 2.297a6.3 6.3 0 0 0-.037 2.296q.153.652.42.976.267.326.728.421.459.096.956.077.498-.02 1.072-.02h11.022q1.455 0 2.621.038 1.168.04 1.875-.268.709-.306 1.053-1.147.345-.843.307-2.564-.155-2.985-.134-5.971.018-2.984.019-6.047 0-.995.21-2.507t.115-2.813q-.096-1.3-.728-2.067-.63-.765-2.239-.497M39.1 33.417q-.19.459-.248 1.034t.021 1.128q.075.556.133 1.186.058.633.058 1.13v6.735q0 3.676-.019 7.272-.02 3.598.019 7.271 0 .536-.058 1.167-.057.633-.133 1.32a5.6 5.6 0 0 0 0 1.321q.075.63.267 1.053.344.688.938.593.595-.096 1.245-.518a6.3 6.3 0 0 0 1.186-.994q.535-.574.804-.688a53 53 0 0 0 3.866-2.871q1.874-1.53 3.214-3.712a7 7 0 0 1 1.226-1.607 9.5 9.5 0 0 0 1.339-1.685q.728-1.186 1.436-2.43.707-1.245 1.474-2.661.88-1.415 1.378-2.679.496-1.262.747-2.603.247-1.34.382-2.717.133-1.378.248-2.986.038-.61.038-1.34a6 6 0 0 0-.133-1.32 2.1 2.1 0 0 0-.518-.995q-.383-.402-1.263-.44a23 23 0 0 0-3.139-.019 54 54 0 0 1-3.139.095q-1.875.001-3.616-.019a111 111 0 0 0-3.54.019q-.497 0-1.109-.057a13 13 0 0 0-1.188-.058q-.574 0-1.071.249-.501.253-.845.826"/>
</svg>
