<svg xmlns="http://www.w3.org/2000/svg" xml:space="preserve" width="72px" height="72px" viewBox="0 0 72 72">
    <g fill="currentColor">
        <path d="M25.664 69.808q.035.18-.139.168l-.121-.01h-4.562q-.033-.001-.045-.019-.021-.035-.003-.098c.009-.032-.01-.063-.042-.073l-.013-.002a23 23 0 0 1-1.292-.085 2 2 0 0 1-.413-.094 4.6 4.6 0 0 0-.857-.182 3 3 0 0 1-.474-.083 26 26 0 0 0-.714-.182.4.4 0 0 1-.07-.022 17 17 0 0 1-.72-.308 7 7 0 0 1-.689-.372 64 64 0 0 1-1.537-.98 31 31 0 0 1-1.379-.946 52 52 0 0 1-3.048-2.438 1 1 0 0 0-.14-.108.5.5 0 0 1-.13-.109 6 6 0 0 0-.535-.582 14 14 0 0 1-.443-.433 6 6 0 0 1-.402-.472 10 10 0 0 0-.541-.676 22 22 0 0 1-.855-1.076l-.656-.859a27.4 27.4 0 0 1-3.795-7.005 4 4 0 0 1-.182-.67 58 58 0 0 0-.14-.723 3 3 0 0 1-.068-.66q.012-.441.107-.953.086-.46.172-1.33.022-.225.062-.415l.06-.269q.03-.131.042-.276.045-.452.148-.894.095-.407.137-.665.075-.457.134-.666.07-.245.106-.419.08-.38.09-.42a25.6 25.6 0 0 1 1.656-4.436q.495-1.022.981-2.052a57 57 0 0 1 3.856-6.878q.34-.518.591-.905a62 62 0 0 1 3.911-5.353q.239-.293.698-.827.396-.464.788-.932.483-.579.697-.826a69 69 0 0 1 4.878-5.037 84 84 0 0 1 4.414-3.887l.833-.679a54 54 0 0 1 5.077-3.668q.382-.244.919-.568a86 86 0 0 1 1.689-1.001q.562-.314.925-.524.531-.306.929-.513.674-.35 1.827-.959.361-.191.789-.365.51-.207.801-.336.596-.261 1.208-.481.06-.022.421-.175.139-.06.289-.101.155-.043.285-.104a3 3 0 0 1 .349-.142q.175-.06.351-.133.206-.084.417-.139.187-.05.37-.13.213-.095.44-.156.25-.066 1.199-.333.25-.069.438-.111.365-.079.439-.099.669-.175.876-.2.275-.032.431-.066l.224-.048a15.6 15.6 0 0 1 5.063-.02q.239.038 1.376.264.131.026.742.115.267.04.528.103.375.093.522.125.401.087.795.204.07.02.41.109.208.053.405.135.122.049.301.087.16.035.297.103.234.117.425.161.168.04.319.116a4 4 0 0 0 .497.222q.075.03.194.097.128.07.264.12.168.06.268.111.136.07.276.134.123.057.367.186.12.063.248.118.155.063.248.116 1.25.695 1.965 1.215.487.354 1.669 1.328.526.433.815.709.652.622 1.211 1.33.382.483.655.851.213.287.406.589.081.125.381.607a15 15 0 0 1 1.376 2.766q.276.755.556 1.936.032.138.136.465.071.233.113.473.042.249.132.486.068.184.115.465.044.272.101.467.148.521.163.729.026.36.082.714.076.462.093.713.14 1.938.101 3.881a5 5 0 0 1-.028.413l-.045.411a3 3 0 0 1-.091.435 2.2 2.2 0 0 0-.098.436 1.8 1.8 0 0 1-.092.481l-.085.252q-.218.735-.475 1.457a13 13 0 0 0-.181.582q-.057.196-.127.387l-.139.382a53 53 0 0 1-1.942 4.923 69 69 0 0 1-1.03 2.135q-.26.518-.502.96a82 82 0 0 1-2.719 4.563 69 69 0 0 1-3.655 5.23 4 4 0 0 1-.245.285l-.172.184a3 3 0 0 0-.157.194q-.468.653-1.043 1.217-.076.075-.271.358a3 3 0 0 1-.278.355q-.913 1.015-1.833 2.023a71 71 0 0 1-3.333 3.385q-.363.346-.631.574a6 6 0 0 0-.459.431 7 7 0 0 1-.688.651q-.468.36-.614.507a7 7 0 0 1-.699.617l-.606.471a54 54 0 0 1-2.062 1.601q-.737.542-1.04.771-.473.353-.959.693l-.855.601a27 27 0 0 1-1.061.71q-.694.442-.91.584a36 36 0 0 1-3.287 1.882q-.222.111-.785.374-.394.184-.785.38a3 3 0 0 1-.265.109 1 1 0 0 0-.175.079q-.109.059-.172.083-.35.142-.696.285l-.218.074q-.1.031-.212.093a2.7 2.7 0 0 1-.482.188 2 2 0 0 0-.29.117 2 2 0 0 1-.293.117 4 4 0 0 0-.396.136 2.5 2.5 0 0 1-.447.136 2 2 0 0 0-.175.064q-.222.102-.454.176-.38.124-.46.153a20 20 0 0 1-1.21.391q-.182.052-.47.149a6 6 0 0 1-.474.141q-.126.032-.473.141a3 3 0 0 1-.484.106 2 2 0 0 0-.317.094 2 2 0 0 1-.318.085q-.476.091-.941.222a3 3 0 0 1-.438.083q-.404.04-.808.087-.022.004-.021.028zm9.469-27.183a82 82 0 0 0 2.031-1.957l.646-.65a121 121 0 0 0 2.982-3.088q.44-.473.852-.972.13-.158.444-.488.63-.663 1.362-1.54l.694-.83q.611-.722 1.207-1.455l.396-.512q.188-.243.416-.496a4 4 0 0 0 .308-.388l.287-.405a78 78 0 0 0 4.076-5.971q.278-.45.551-.93a73 73 0 0 0 2.706-5.207q.276-.595.59-1.561.06-.178.236-.641.11-.292.218-.648.284-.963.348-1.158.057-.177.096-.359.043-.21.094-.357.179-.522.192-.734.019-.29.092-.568.068-.258.118-.521.03-.159.076-.528.032-.259.074-.518.053-.315.065-.519.087-1.181-.028-2.361a4 4 0 0 0-.059-.376q-.036-.186-.067-.373a2 2 0 0 0-.087-.331 3 3 0 0 1-.102-.329 1 1 0 0 0-.186-.407 3 3 0 0 1-.097-.143.36.36 0 0 0-.13-.118q-.122-.065-.176.051a.07.07 0 0 0-.004.052q.056.284.152.558.06.174.095.579.02.22.078.581.098.627 0 1.252l-.099.605q-.062.425-.176.841a5 5 0 0 0-.104.503q-.038.256-.104.506-.052.211-.126.565-.064.302-.173.563a2.4 2.4 0 0 0-.114.335l-.076.307q-.21.695-.391 1.399a17 17 0 0 1-.317.939q-.084.234-.16.401a7 7 0 0 0-.174.391q-.47 1.283-.822 1.958-.556 1.067-1.108 2.137a26 26 0 0 1-.669 1.209q-.005.005-.519.902-.283.493-.703 1.131a403 403 0 0 1-3.168 4.745q-.321.467-.624.883a68 68 0 0 1-4.088 5.06q-.272.306-.71.815-.383.444-.78.875a9 9 0 0 0-.44.531 7 7 0 0 1-.457.522l-.358.369a31 31 0 0 1-.643.67q-.454.433-.888.891-.459.48-.755.774a79 79 0 0 0-1.692 1.731 40 40 0 0 1-1.672 1.653 16 16 0 0 1-1.019.88q-.428.338-.432.339a819 819 0 0 1-3.422 2.734 39 39 0 0 1-1.974 1.487q-.127.087-.672.505a8 8 0 0 1-.695.475 79 79 0 0 0-2.906 1.847c-.347.229-.651.425-.915.576a82 82 0 0 1-3.569 1.949q-1.136.588-1.849.888-.003.003-.187.065a.8.8 0 0 0-.214.111.8.8 0 0 1-.251.119 2 2 0 0 0-.167.043q-.362.112-.73.214a6 6 0 0 0-.451.141 3 3 0 0 1-.433.113q-.333.062-.652.174a2 2 0 0 1-.342.089 3.5 3.5 0 0 0-.474.1 10 10 0 0 1-.464.125q-.385.086-.763.192a3 3 0 0 1-.555.115 104 104 0 0 0-1.237.151l-.938.1q-.497.051-.996.153a.17.17 0 0 0-.14.125q-.062.188.138.251a.8.8 0 0 0 .269.038q.67-.018 1.35.131l.201.051q.428.105.918.078.615-.033 1.085-.134.317-.066.884-.146a6 6 0 0 0 .65-.137q.37-.099.748-.164.12-.023.286-.093.21-.09.537-.141.181-.027.351-.094.25-.098.511-.16.146-.033.279-.106.17-.095.279-.123.456-.128.893-.309l.813-.341q.622-.243 1.108-.469a49 49 0 0 0 5.108-2.773 58 58 0 0 0 3.624-2.431 94 94 0 0 0 3.499-2.678q.392-.312.825-.697 1.426-1.261 2.872-2.499.237-.196.783-.709M61.771 7.068l-.173-.188a1 1 0 0 1-.106-.136l-.087-.139q-.29-.361-.56-.737l-.081-.096a2 2 0 0 1-.145-.212.5.5 0 0 0-.254-.188.25.25 0 0 0-.172-.013q-.123.044-.049.213.069.154.171.283.184.227.185.231.122.17.258.327c.136.157.172.215.248.331q.209.322.427.558.391.42.778.844.238.26.513.479l.312.25.303.256q.16.133.464.332.548.359.929.842.757.963.97 1.152.154.135.1.307-.065.201-.258.165a.28.28 0 0 1-.164-.101 2 2 0 0 1-.123-.155q-.512-.709-1.015-1.424a.6.6 0 0 0-.126-.139.24.24 0 0 0-.189-.044q-.189.039-.133.222.052.168.079.333a.8.8 0 0 1-.02.335l-.083.358a9 9 0 0 0-.077.36.7.7 0 0 0 .131.499q.059.084.26.305.135.151.305.265.065.045.245.2a.43.43 0 0 0 .383.114c.098-.02.196-.086.302-.2q.177-.193.31-.402a1 1 0 0 1 .138-.173 1 1 0 0 1 .145-.123q.102-.056.211.025.179.134.319.362l.142.232q.445.68.946 1.691.085.176.13.302.1.277.113.307.193.425.222.561.022.105.051.166l.039.091q.082.233.123.478.024.135.187.279l.157.139q.031.03.034-.012a3.5 3.5 0 0 0-.194-1.365 6 6 0 0 1-.16-.633 2.3 2.3 0 0 0-.159-.455 3 3 0 0 1-.117-.334 1.5 1.5 0 0 0-.121-.298 2.4 2.4 0 0 1-.132-.289 4 4 0 0 0-.146-.315 15 15 0 0 0-.452-.817 1.7 1.7 0 0 0-.236-.291 20 20 0 0 1-1.456-1.676 4 4 0 0 0-.267-.286 1.6 1.6 0 0 1-.336-.491.7.7 0 0 1-.048-.283q-.001-.25-.044-.434a.7.7 0 0 0-.168-.303.33.33 0 0 0-.216-.116q-.166-.01-.226.189-.057.202-.254.201a.1.1 0 0 1-.048-.016q-.79-.539-1.189-.911a60 60 0 0 0-.665-.612 2 2 0 0 1-.181-.177m-10.378 4.759q.17-.039.319.101.144.136.282.061.1-.057.127-.202a.5.5 0 0 0-.027-.281.42.42 0 0 1-.002-.364q.05-.111.106-.219a.54.54 0 0 0 .067-.226q.028-.574-.619-.502a.32.32 0 0 1-.286-.106 2 2 0 0 1-.193-.256 8 8 0 0 1-.131-.256 1.8 1.8 0 0 0-.219-.323.8.8 0 0 1-.147-.302 1 1 0 0 0-.097-.246 1.4 1.4 0 0 1-.144-.334 2 2 0 0 0-.173-.49 1.3 1.3 0 0 1-.077-.329 1.2 1.2 0 0 0-.098-.314 7 7 0 0 1-.142-.316 1 1 0 0 1-.063-.254 2 2 0 0 0-.057-.26.2.2 0 0 1-.001-.072q.043-.185.121-.317.135-.226.137-.237.04-.165-.124-.263a.1.1 0 0 0-.051-.012q-.357.03-.402.367l-.025.145a.4.4 0 0 0-.003.151q.022.173.021.215a3.1 3.1 0 0 0 .224 1.248q.137.344.459.842.224.345.306.817.064.366.06.474-.012.293-.299.427l-.155.073q-.289.165-.495.432a.39.39 0 0 0-.067.363.11.11 0 0 0 .098.078.5.5 0 0 0 .337-.104l.117-.125a.47.47 0 0 1 .251-.144.22.22 0 0 1 .214.05.35.35 0 0 1 .114.219l.021.137q.095.427.147.865.018.162.329.985.05.134.218.206a.13.13 0 0 0 .124-.011q.176-.113.164-.302a1.4 1.4 0 0 0-.149-.543l-.108-.152a.38.38 0 0 1-.043-.357q.005-.033.034-.037m-3.804-1.499a7 7 0 0 1-.132-.667 2.4 2.4 0 0 0-.092-.384 3 3 0 0 1-.112-.38 1.8 1.8 0 0 0-.227-.68.34.34 0 0 1-.044-.153 6.2 6.2 0 0 0-.258-1.532.7.7 0 0 1-.025-.296.44.44 0 0 0-.095-.343.06.06 0 0 0-.043-.024q-.182-.022-.2.163-.024.215.015.689a1 1 0 0 0 .055.267q.06.172.074.259.094.555.237 1.096.045.169.094.469.036.238.112.466.082.251.101.333a5 5 0 0 1 .066.341q.033.21.114.404.048.118.097.282.046.156.127.277.202.302.528.506a.45.45 0 0 1 .172.166q.106.206.063.448a3 3 0 0 1-.129.537.9.9 0 0 0-.061.449q.042.38.141.749.101.386.298.693.314.495.776.871.264.218.689.201.402-.015.662-.232.132-.11.254-.279a1.5 1.5 0 0 0 .182-.337q.175-.442.021-.85a2 2 0 0 0-.155-.264 1.3 1.3 0 0 1-.139-.277 1.4 1.4 0 0 0-.077-.185l-.097-.177a.9.9 0 0 0-.279-.305.3.3 0 0 0-.195-.052.6.6 0 0 0-.205.048.5.5 0 0 0-.142.111 1 1 0 0 1-.139.123q-.129.094-.184.322a.14.14 0 0 0 .011.1q.154.308.452.139.278-.158.433.076.126.19.175.47.026.156-.034.289a.9.9 0 0 1-.492.474.6.6 0 0 1-.297.052.44.44 0 0 1-.279-.154 2.3 2.3 0 0 1-.287-.416 7 7 0 0 0-.223-.384q-.164-.255-.273-.536a1.6 1.6 0 0 1-.106-.564 3.1 3.1 0 0 1 .423-1.571.28.28 0 0 0 .022-.277q-.063-.144-.235-.082a1 1 0 0 0-.224.154l-.057.053q-.13.122-.28.023a1.5 1.5 0 0 1-.392-.394.7.7 0 0 1-.066-.137.4.4 0 0 0-.089-.128.07.07 0 0 1-.03-.04m-.818 1.282a4 4 0 0 0-.187-.123q-.065-.041-.185-.121-.314-.213-.618-.005a4 4 0 0 1-.231.156q-.179.055-.286-.164a2.4 2.4 0 0 1-.172-.456q-.33-1.22-.681-2.435a4.6 4.6 0 0 1-.181-1.296q0-.133.071-.239a.06.06 0 0 1 .043-.027.31.31 0 0 1 .325.133q.05.069.082.128a.4.4 0 0 0 .087.123q.092.074.155-.029a.24.24 0 0 0 .03-.132.5.5 0 0 0-.07-.229 1.4 1.4 0 0 1-.106-.198 1.2 1.2 0 0 0-.267-.415 2 2 0 0 1-.104-.128.4.4 0 0 0-.128-.109q-.187-.096-.313.067a1.33 1.33 0 0 0-.268.623q-.078.502.007 1.23.03.264.128.511.094.234.164.475.094.32.252.616.09.165.111.412.03.295.195.978a.45.45 0 0 1-.054.367.43.43 0 0 1-.182.132 1.02 1.02 0 0 0-.463.422 1 1 0 0 1-.085.123l-.091.12a.43.43 0 0 1-.158.15q-.172.074-.331-.085-.422-.429-.708.081a2.3 2.3 0 0 0-.156.362q0 .006-.091.208a.57.57 0 0 0 .013.497q.112.245.149.51.026.195.096.326a.39.39 0 0 1 .02.334 1 1 0 0 1-.125.214 4 4 0 0 1-.154.189.57.57 0 0 1-.248.162.24.24 0 0 1-.15.006.26.26 0 0 1-.133-.091l-.098-.194q-.202-.398-.222-.483a.5.5 0 0 1 .044-.375q.183-.327.301-.641.038-.106.079-.181l.089-.178a.2.2 0 0 0-.003-.202q-.116-.205-.306-.147-.107.032-.221.185-.179.244-.364.481a1.3 1.3 0 0 1-.263.256.7.7 0 0 1-.331.142q-.4.054-.637-.336a40 40 0 0 0-.404-.626 1.3 1.3 0 0 1-.129-.255 4 4 0 0 0-.114-.264 4 4 0 0 1-.161-.399 5 5 0 0 0-.287-.687q-.068-.133-.21-.09a.16.16 0 0 0-.118.128.6.6 0 0 0-.014.161.3.3 0 0 0 .056.161l.098.133q.056.11.089.232.043.157.079.234.05.107.104.21.047.095.08.217.05.184.124.36.132.317.228.649.095.34-.108.709-.28.504-.882.722-.06.024-.236.058a1.4 1.4 0 0 0-.234.072 2.8 2.8 0 0 0-.85.577 6 6 0 0 0-.206.209 1.3 1.3 0 0 0-.166.247q-.243.447-.384.838a3 3 0 0 0-.078.324 1.3 1.3 0 0 1-.113.318q-.109.213-.061.378.037.13.167.171a.22.22 0 0 0 .208-.035.4.4 0 0 0 .161-.258q.043-.203.145-.379a.3.3 0 0 1 .121-.124q.093-.043.19.022.134.089.271.277a1 1 0 0 0 .111.123q.06.06.109.126.122.167.149.199l.125.142a.5.5 0 0 0 .138.109q.08.038.164.064a.4.4 0 0 0 .256-.009 1.4 1.4 0 0 0 .448-.257 1.6 1.6 0 0 0 .239-.287q.108-.154.229-.299l.174-.217q.182-.227.392-.321.287-.128.546-.306.136-.091.235-.02.057.042.104.173a5 5 0 0 1 .206.771q.032.207.095.374.114.307.125.352.043.183.063.372.026.235.052.37.11.551.126.857.028.564-.055 1.541-.023.272.157.414.021.015.05.014.282-.014.307-.333.072-.986.077-1.473a3.4 3.4 0 0 0-.071-.74 11 11 0 0 1-.106-.56 10 10 0 0 0-.231-1.099.3.3 0 0 1-.012-.062 4 4 0 0 0-.091-.538 7 7 0 0 0-.162-.52 6 6 0 0 0-.416-.925 1.6 1.6 0 0 1-.142-.335 3.6 3.6 0 0 0-.269-.655q-.018-.03-.015-.11.002-.028-.004-.111-.007-.139.104-.198a.24.24 0 0 1 .225-.01q.048.022.175.117a.9.9 0 0 1 .33.479q.042.155.098.262.089.181.208.504.136.36.201.619.08.309.123.45.102.307.112.455.023.296.126.568.084.217.115.364.087.398.224.782.059.165.074.34.034.424.132.836.092.408.054.826a1.3 1.3 0 0 1-.099.327q-.087.209-.082.564.006.163.048.245.095.18.317.003.086-.068.109-.212.034-.214.039-.228.064-.235.133-.466a2 2 0 0 0 .077-.447q.03-.637-.024-.948-.121-.7-.566-2.136a3 3 0 0 1-.12-.541 9 9 0 0 0-.058-.431 2.2 2.2 0 0 0-.143-.413.47.47 0 0 1-.018-.391q.043-.11.234-.277l.39-.339q.138-.12.414-.196.152-.042.281-.116a.9.9 0 0 1 .301-.123q.223-.031.424-.125.083-.037.14-.056l.145-.043q.09-.026.22-.044a4 4 0 0 0 .423-.088q.16-.044.418-.098.248-.052.408-.144.282-.167.175-.466a2 2 0 0 0-.198-.383 1.1 1.1 0 0 1-.163-.327 2.2 2.2 0 0 1-.054-.497q-.005-.37.271-.557a.22.22 0 0 1 .223-.024.57.57 0 0 1 .322.291c.063.141.136.279.21.414q.07.12.07.234 0 .175-.036.349a.34.34 0 0 0 .11.338q.196.181.392.017.262-.22.162-.564a3 3 0 0 1-.081-.345.9.9 0 0 0-.089-.256l-.106-.197q-.15-.299-.459-.512m3.632-5.283q-.045.237-.032.515.003.127.066.197.102.111.236.042a.4.4 0 0 0 .142-.146.6.6 0 0 0 .089-.188.5.5 0 0 0-.289-.524q-.174-.09-.212.104M18.667 22.856q.363-.428.73-.854.296-.345.726-.801.441-.47 1.053-1.143a55 55 0 0 1 3.865-3.842l.369-.327q.414-.364.793-.766a19 19 0 0 1 1.591-1.491q.906-.751 1.803-1.51.546-.462.817-.677.21-.167.305-.248l.296-.256a.4.4 0 0 0 .091-.113l.066-.131q.053-.114-.069-.082a1.7 1.7 0 0 0-.433.187q-.499.302-.974.636a53 53 0 0 0-3.211 2.448q-.529.436-.837.685-1.2.97-2.762 2.291a42 42 0 0 0-3.802 3.633q-.662.722-.672.73a36 36 0 0 0-1.418 1.61 237 237 0 0 0-3.833 4.817 40 40 0 0 0-2.088 2.928q-.972 1.521-1.941 3.044a47 47 0 0 0-3.171 5.88l-.312.684a30 30 0 0 0-.677 1.623 90 90 0 0 0-.679 1.821 5 5 0 0 0-.129.425q-.047.171-.123.431a15 15 0 0 0-.344 1.46 2 2 0 0 1-.088.31 3.3 3.3 0 0 0-.146.632l-.081.598q-.184 1.114-.216 2.243a9 9 0 0 0 .154 1.915q.077.405.116.813.025.265.146.495.083.16.224.152.147-.006.154-.152a7 7 0 0 0-.01-.791 11 11 0 0 1-.027-1.054q.011-.514.057-1.055.047-.578.158-1.324.183-1.238.354-1.991.073-.318.196-.618.061-.15.142-.497.097-.42.376-1.224.102-.292.322-.822.143-.345.329-.821.435-1.116 1.063-2.386l.9-1.821q.257-.519.5-.957a84 84 0 0 1 4.535-7.35q.304-.438.633-.875a100 100 0 0 1 2.453-3.129q1.034-1.267 2.045-2.548.355-.45.681-.835m40.239 2.436a1 1 0 0 1 .066.311q.015.188.122.825.014.078.039.159l.048.157q.005.015.055.238.033.16.13.393.309.766.777 1.318a1.5 1.5 0 0 0 .411.366.96.96 0 0 0 .912-.004q.21-.102.316-.197.223-.2.706-.708a3 3 0 0 0 .386-.479q.153-.252.271-.556a1.6 1.6 0 0 0 .103-.399l.041-.355q.063-.339.109-.679.003-.007.052-.288a1.33 1.33 0 0 0-.177-.967 1.2 1.2 0 0 1-.146-.297q-.11-.473.467-.473.027 0 .049.016a.93.93 0 0 1 .324.417 1 1 0 0 1 .048.193l.03.198q.022.146.066.292.073.23.137.463.067.24.142.46.1.287.188.578l.127.355q.067.188.096.389.053.375.129.746.084.409.116.827.036.438.1.875.103.763.105.766.132 1.029.29 2.051.018.113.103.353.077.215.278.214.143-.002.183-.11a.4.4 0 0 0 .002-.188 145 145 0 0 0-.163-1.176q-.091-.624-.11-1.253a3.3 3.3 0 0 0-.087-.566 12 12 0 0 1-.103-.5 5 5 0 0 1-.064-.505q-.032-.667-.065-.812a9 9 0 0 1-.206-1.108l-.016-.191a1.3 1.3 0 0 0-.051-.271 6 6 0 0 1-.176-.806 11 11 0 0 0-.119-.704q-.097-.449-.182-.901a4 4 0 0 0-.102-.385 4 4 0 0 1-.103-.387 3 3 0 0 0-.132-.466 68 68 0 0 1-.803-2.219 9 9 0 0 1-.13-.431 8 8 0 0 0-.126-.431.4.4 0 0 1-.016-.22q.043-.14.199-.152a.7.7 0 0 1 .209.042q.114.039.209.059.13.028.246-.023a.5.5 0 0 0 .181-.151q.199-.27.051-.6a.72.72 0 0 0-.421-.392 1 1 0 0 0-.256-.042 1.2 1.2 0 0 1-.258-.053q-.154-.05-.08-.237a.62.62 0 0 0-.013-.498q-.109-.243-.354-.172-.026.008-.039.03a3 3 0 0 0-.144.262q-.05.112-.112.145-.102.06-.206-.016a.55.55 0 0 1-.187-.272 8 8 0 0 0-.098-.266 14 14 0 0 0-.503-1.053 4.4 4.4 0 0 1-.482-1.25 1 1 0 0 0-.043-.15q-.026-.075-.048-.15l-.049-.146a.38.38 0 0 1 .074-.393.45.45 0 0 1 .185-.102q.351-.125.263-.544a.8.8 0 0 0-.123-.287 9 9 0 0 0-.308-.434l-.125-.174a1.1 1.1 0 0 0-.259-.269.27.27 0 0 0-.211-.053.33.33 0 0 0-.174.104 2.2 2.2 0 0 0-.471.706 3 3 0 0 1-.134.273q-.086.155-.119.35a7.4 7.4 0 0 0-.018 2.435l.046.325q.028.198.085.39.122.405.142.499.046.208.124.541.143.618.237 1.368.093.726.204 1.083c.06.183.031.328-.079.436a.5.5 0 0 1-.186.083q-.251.066-.267.318-.005.06.05.267a.9.9 0 0 1 .027.276 1.2 1.2 0 0 1-.121.381 21 21 0 0 1-.866 1.663q-.114.193-.274.126-.095-.039-.149-.181-.141-.36-.146-.491a6.4 6.4 0 0 0-.292-1.692 19 19 0 0 0-.421-1.231 2.6 2.6 0 0 1-.2-1.014 2.4 2.4 0 0 0-.012-.317 7 7 0 0 1-.024-.315q-.027-.435.491-.366.102.012.186.068.503.332.116.738l-.185.193a.8.8 0 0 0-.146.26q-.062.227.161.404.213.172.379.041.015-.011.221-.243.25-.282.374-.633a.95.95 0 0 0 .047-.498 1.7 1.7 0 0 0-.17-.486 1.1 1.1 0 0 0-.435-.464l-.217-.129q-.346-.206-.714.059a2.05 2.05 0 0 0-.607.665 1.86 1.86 0 0 0-.146 1.528q.101.314.175.636.198.878.445 1.743l.088.385q.054.235.172.454a.7.7 0 0 1 .079.218q.047.226.116.445.095.309.12.441.097.574.014 1.15a3 3 0 0 1-.107.396 2.5 2.5 0 0 0-.093.404 1.4 1.4 0 0 1-.167.477 1.6 1.6 0 0 0-.202.677.8.8 0 0 0 .027.258.6.6 0 0 0 .116.237q.417.489.592.828a.99.99 0 0 1-.042.968q-.1.171-.249.344a.3.3 0 0 1-.21.116.24.24 0 0 1-.187-.077.6.6 0 0 1-.123-.175 1.6 1.6 0 0 1-.181-.69q0-.024.044-.353.041-.295-.071-.582-.07-.183-.232-.173-.166.01-.209.175a1 1 0 0 0-.026.101 12 12 0 0 0-.19.623 1.7 1.7 0 0 1-.106.288q-.07.138-.142.273a.53.53 0 0 0-.055.304.8.8 0 0 0 .1.282q.121.23.316.627.183.372.304.713.041.12.233.737.244.789.42 1.595.014.066.113.289.065.146.1.293.22.982.449 1.96.017.078.05.331.02.155.059.33.12.554.171 1.118.07.781-.04 1.558a7 7 0 0 0-.061.865q-.018 1.127-.015 1.791 0 .148-.032.308-.029.154-.052.307l-.017.089c-.021.094.002.158.061.19q.133.079.181-.072a2 2 0 0 1 .125-.31q.09-.177.141-.366a2.5 2.5 0 0 0 .056-.388q.026-.28.059-.555a9 9 0 0 0 .048-.555c.019-.341.035-.622.057-.845q.072-.8.1-1.446.002-.004.03-.484a4 4 0 0 0 .002-.511l-.03-.552a13 13 0 0 0-.049-.791 4 4 0 0 0-.074-.477 10 10 0 0 1-.178-1.149 2.6 2.6 0 0 0-.088-.497 12 12 0 0 0-.202-.659q-.253-.618-.268-.787a1.3 1.3 0 0 0-.096-.324 4 4 0 0 1-.139-.547 1.3 1.3 0 0 0-.071-.222 5 5 0 0 1-.087-.219q-.055-.142-.001-.247a.5.5 0 0 1 .167-.151q.292-.195.424-.295 1.101-.822.512-2.063a3 3 0 0 1-.085-.197l-.073-.203a2 2 0 0 0-.138-.292 3 3 0 0 1-.25-.599 2 2 0 0 1-.061-.458 5.5 5.5 0 0 0-.089-.847q-.04-.221.014-.309.107-.174.267-.136.125.03.179.172M36.113 14.653a.7.7 0 0 0 .233.124.26.26 0 0 0 .228-.025q.034-.022.159-.144.186-.18.274-.424a.22.22 0 0 0-.002-.162.74.74 0 0 0-.347-.403.3.3 0 0 0-.203-.038.21.21 0 0 0-.165.162l-.045.17q-.084.14-.339.181a.13.13 0 0 0-.101.095q-.04.175.106.301zM22.706 30.201q.764 1.05 1.463 2.14.163.255.337.624.259.547.59 1.103.16.271.38.667.084.154.269.455.164.268.25.466.108.248.224.398.035.045.108.21.036.08.114.205.063.102.107.213.079.201.089.222.111.237.225.472.073.15.288.21a.07.07 0 0 0 .079-.034.4.4 0 0 0 .045-.132.3.3 0 0 0-.022-.135 6 6 0 0 1-.087-.259.25.25 0 0 0-.066-.107.1.1 0 0 1-.031-.043 3 3 0 0 0-.223-.45 3 3 0 0 1-.161-.301 4 4 0 0 0-.153-.306 2 2 0 0 1-.102-.223 1.2 1.2 0 0 0-.117-.218 2 2 0 0 1-.163-.272 2.5 2.5 0 0 0-.172-.334.5.5 0 0 1-.075-.141 2 2 0 0 0-.054-.148 43 43 0 0 0-.545-.981 23 23 0 0 1-.541-.933 27 27 0 0 0-.533-.937 76 76 0 0 1-.995-1.702l-.107-.158a.47.47 0 0 1-.04-.48 1 1 0 0 1 .363-.43.4.4 0 0 1 .244-.072q.137.009.258.074.17.093.256.181.129.131.064.34a.2.2 0 0 1-.05.081 1.7 1.7 0 0 0-.247.31.37.37 0 0 0-.062.244q.018.133.116.243.108.119.263.076a.45.45 0 0 0 .252-.181 2 2 0 0 0 .323-.76.9.9 0 0 0-.019-.441 1.6 1.6 0 0 0-.281-.53.54.54 0 0 1-.111-.501l.036-.154a.6.6 0 0 1 .056-.15l.206-.379q.062-.114.113-.184.098-.132.158-.151.208-.072.319.107.211.339.219.741a1 1 0 0 0 .067.327q.094.24.094.244.104.32.205.643.092.295.217.578.215.486.252.561.19.374.484.598.323.246 1.016.593a.5.5 0 0 0 .094.034q.075.018.097.033a.9.9 0 0 0 .32.141.46.46 0 0 0 .274-.026q.858-.33 1.271-1.134.223-.435.25-.482.213-.37.314-.611.192-.456.169-.973a3 3 0 0 0-.126-.746 2.6 2.6 0 0 0-.334-.688 1.95 1.95 0 0 1-.297-1.483q.055-.304.363-.309.181-.003.361-.021a.7.7 0 0 0 .505-.273l.065-.103q.107-.17.273-.096a.16.16 0 0 1 .083.087q.093.246.175.45.049.122.209.434.091.18.208.449.221.502.307.991.07.393.104 1.026.033.623-.06 1.244a4 4 0 0 0-.036.344.3.3 0 0 0 .037.187q.068.101.196.087.169-.02.199-.186l.021-.106q.11-.416.172-.84.07-.475-.024-.946-.06-.297-.188-1.241a2.4 2.4 0 0 0-.09-.401q-.061-.196-.125-.393a3 3 0 0 0-.208-.483 13 13 0 0 1-.209-.399 4 4 0 0 0-.225-.39q-.23-.352-.458-.705a13 13 0 0 1-.425-.723 23 23 0 0 0-.488-.841 4 4 0 0 1-.161-.326.9.9 0 0 0-.23-.319q-.158-.137-.144-.306.009-.102.123-.186.22-.156.47-.26a.8.8 0 0 0 .23-.144q.476-.426.819-.964a3 3 0 0 0 .144-.281q.06-.13.148-.281.127-.212.157-.479.022-.19.019-.226a.36.36 0 0 0-.111-.212.09.09 0 0 0-.093-.02.4.4 0 0 0-.166.113q-.036.043-.053.18a1.9 1.9 0 0 1-.177.57 3 3 0 0 1-.911 1.136 4 4 0 0 1-.328.229 1.3 1.3 0 0 1-.375.147.25.25 0 0 1-.232-.063 2.2 2.2 0 0 1-.569-.868 3 3 0 0 0-.167-.387 6 6 0 0 1-.248-.527 3 3 0 0 1-.173-.633l-.121-.67a.82.82 0 0 1 .13-.614.9.9 0 0 1 .31-.297.54.54 0 0 1 .401-.052.95.95 0 0 1 .389.188.4.4 0 0 1 .108.13l.088.149a.29.29 0 0 1-.013.341q-.082.114-.183.116a.8.8 0 0 1-.179-.07.45.45 0 0 0-.238-.042.11.11 0 0 0-.101.095.465.465 0 0 0 .216.491q.268.177.525.007.214-.143.39-.378.09-.121.12-.224a.46.46 0 0 0 .007-.26 1.35 1.35 0 0 0-.353-.567q-.361-.371-.476-.417a1.13 1.13 0 0 0-.653-.06 1 1 0 0 0-.47.264q-.298.278-.486.645a1 1 0 0 0-.08.282.7.7 0 0 1-.091.285 5 5 0 0 0-.261.43l-.166.319a1 1 0 0 0-.073.36q-.01.665.045 1.243.018.193.08.335.115.266.161.503.031.173.111.326l.142.272q.105.232.161.298.185.217.287.564.106.358-.001.662a9 9 0 0 0-.218.705q-.068.258-.193.493-.085.162-.279.141a2 2 0 0 0-.244-.014.17.17 0 0 0-.149.082 5.3 5.3 0 0 1-.953 1.114 42 42 0 0 0-.5.445 8 8 0 0 1-.508.438.4.4 0 0 1-.297.091.45.45 0 0 1-.254-.134 3.5 3.5 0 0 1-.503-.6 2.4 2.4 0 0 1-.201-.343 1 1 0 0 1-.072-.359 5.7 5.7 0 0 0-.155-1.083 3 3 0 0 1-.046-.224q-.017-.115-.036-.229a2.4 2.4 0 0 1-.032-.344 84 84 0 0 1-.019-1.122.8.8 0 0 1 .058-.313q.15-.342.413-.608a.37.37 0 0 1 .191-.115q.16-.024.216.15.098.303-.156.435a.5.5 0 0 0-.133.088.5.5 0 0 0-.088.139.27.27 0 0 0 .007.224.64.64 0 0 0 .46.369.1.1 0 0 0 .052-.003.6.6 0 0 0 .229-.129q.204-.242.415-.477a.4.4 0 0 0 .111-.274.5.5 0 0 0-.102-.255 15 15 0 0 0-.62-.855.45.45 0 0 0-.146-.132.23.23 0 0 0-.209-.003 5 5 0 0 0-.218.156q-.165.12-.302.27a9 9 0 0 0-.264.304 2.1 2.1 0 0 0-.485 1.138 10 10 0 0 1-.06.393 1.5 1.5 0 0 0-.006.454q.108.806.292 1.596.045.195.097.581.072.532.337 1.028.001.004.125.201.128.205.156.437.025.202-.076.496-.106.307-.239.604a.4.4 0 0 1-.146.184.5.5 0 0 1-.239.067 1 1 0 0 0-.517.164.55.55 0 0 0-.164.17.44.44 0 0 0-.076.23.55.55 0 0 1-.132.357.21.21 0 0 1-.195.078.65.65 0 0 0-.336.049.13.13 0 0 0-.07.078.66.66 0 0 0-.03.303.5.5 0 0 1-.057.349 3 3 0 0 1-.212.261 1.5 1.5 0 0 1-.334.286 1.4 1.4 0 0 0-.259.199 2.2 2.2 0 0 0-.302.436q-.133.256-.27.511a1 1 0 0 0-.076.191l-.053.201a1.5 1.5 0 0 1-.109.287 7 7 0 0 0-.117.253q-.078.176-.155.22-.16.088-.4-.086a3 3 0 0 0-.194-.128q-.089-.053-.181.031a.6.6 0 0 0-.11.13.4.4 0 0 0-.044.201l.013.825a.6.6 0 0 1-.013.14q-.05.233-.262.293l-.121.034a1 1 0 0 1-.158.046q-.49.08-.595.527-.093.407-.455.359a1.4 1.4 0 0 0-.202-.018.3.3 0 0 0-.189.095q-.075.081-.082.261a4 4 0 0 0 .01.431l.041.23a.38.38 0 0 1-.042.279q-.121.186-.284.041a1 1 0 0 1-.194-.254 3 3 0 0 0-.167-.269q-.394-.53-.787-1.064l-.539-.7a9 9 0 0 1-.726-1.101l-.244-.436a9 9 0 0 1-.341-.628.68.68 0 0 0-.317-.344q-.22-.108-.311.106a.1.1 0 0 0-.005.052.9.9 0 0 0 .106.308q.295.444.559.906.111.195.236.381t.244.374q.145.228.376.556.13.184.25.375.14.224.251.375.541.737.658.933.237.399.495.649.193.188.28.296.45.572.862.92.358.306.542.743a.38.38 0 0 0 .153.183q.103.06.219.021a.32.32 0 0 0 .212-.232.58.58 0 0 0-.058-.433 1 1 0 0 1-.041-.087l-.037-.089a.6.6 0 0 0-.075-.121 2.5 2.5 0 0 1-.334-.58 3 3 0 0 1-.127-.47q-.047-.24-.102-.477a.63.63 0 0 1-.006-.33q.094-.29.444-.242.062.007.147.055.06.033.144.07.15.069.242.201l.148.217a1 1 0 0 1 .148.253.54.54 0 0 1 .018.306q-.04.174-.156.221l-.171.007a.18.18 0 0 0-.151.084.25.25 0 0 0-.031.154q.031.424.424.457a.43.43 0 0 0 .306-.086.77.77 0 0 0 .308-.437q.07-.255.038-.62-.006-.081-.176-.389l-.124-.273a.6.6 0 0 0-.186-.244 2 2 0 0 1-.197-.164 1 1 0 0 0-.104-.091.4.4 0 0 1-.096-.104.22.22 0 0 1-.036-.191q.04-.133.215-.115a.42.42 0 0 1 .318.186q.117.165.206.345a.2.2 0 0 0 .063.078 1 1 0 0 0 .089.054l.137.064a.43.43 0 0 0 .289.03q.096-.023.102-.023.131-.025.201-.048.26-.088.53-.095a.5.5 0 0 1 .305.08.9.9 0 0 1 .287.3l.095.161q.487.738.611.962.174.322.278.484.056.09.102.181a3 3 0 0 0 .101.183q.11.18.154.269.435.865.891 1.719l.146.272a.63.63 0 0 0 .245.205q.156.074.222-.084a.33.33 0 0 0 .018-.201.6.6 0 0 0-.096-.166 2.3 2.3 0 0 1-.204-.35 98 98 0 0 1-.832-1.764q-.183-.398-.783-1.406a93 93 0 0 0-.708-1.138 3 3 0 0 0-.266-.347 3 3 0 0 1-.265-.351 9 9 0 0 0-.258-.382l-.278-.366-.167-.223a.55.55 0 0 1-.068-.279q0-.161.162-.176a.27.27 0 0 1 .199.056.6.6 0 0 1 .118.156q.16.266.374.491.17.18.389.278.128.056.254.021a.74.74 0 0 0 .3-.166 1.5 1.5 0 0 0 .426-.699q.04-.132.151-.165a.21.21 0 0 1 .192.034.4.4 0 0 1 .128.168q.209.475.585 1.116.327.557.635 1.123l.34.681q.156.314.366.668.21.353.433.612l.108.148a.45.45 0 0 0 .156.137q.207.115.226-.063a.6.6 0 0 0-.09-.396l-.083-.131-.375-.672a3 3 0 0 0-.127-.194 1.2 1.2 0 0 1-.112-.206l-.12-.279a71 71 0 0 0-.647-1.254 10 10 0 0 0-.257-.456l-.266-.448a13 13 0 0 0-.414-.666 19 19 0 0 0-1.119-1.501.5.5 0 0 1-.063-.097l-.055-.102a1 1 0 0 0-.097-.142q-.298-.387-.064-.786.108-.186.174-.263a.28.28 0 0 1 .334-.09c.084.023.164.095.245.206m10.027-8.632c.161-.058.237-.254.17-.439s-.251-.286-.412-.228-.237.254-.17.438c.068.185.251.287.412.229M34.061 40.8q.732-.715 1.456-1.441.974-.98 1.955-1.951a36 36 0 0 0 1.633-1.733l.656-.747a98 98 0 0 0 1.745-2.042 121 121 0 0 0 3.36-4.198 40 40 0 0 0 1.633-2.298 56 56 0 0 0 2.099-3.496q.493-.885.626-1.066a.8.8 0 0 0 .163-.361.1.1 0 0 0-.012-.051.3.3 0 0 0-.244-.15.54.54 0 0 0-.248.079 6 6 0 0 1-.63.27q-.309.117-.476.173a1.4 1.4 0 0 0-.266.131 1.4 1.4 0 0 1-.274.13l-.344.119a31 31 0 0 1-.722.29q-.532.207-1.039.47-.641.331-1.278.667a34 34 0 0 0-4.765 3.033q-.828.63-.989.741a3.3 3.3 0 0 0-.453.37 6 6 0 0 1-.729.607 3 3 0 0 0-.376.312 8 8 0 0 1-.574.538q-.526.43-1.012.906a72 72 0 0 0-1.601 1.618 38 38 0 0 0-2.814 3.285l-.402.512a9 9 0 0 0-.384.525l-.493.725q-.501.717-.956 1.462a53 53 0 0 0-2.152 3.904q-.142.284-.662 1.51l-.257.594a19 19 0 0 0-.698 1.884q-.253.817-.573 1.696a.5.5 0 0 1-.045.09 1 1 0 0 0-.121.266q-.033.116.015.188.064.095.205.084a.67.67 0 0 0 .37-.148l.082-.067a4 4 0 0 1 .489-.317q.489-.27.508-.279a42 42 0 0 0 4.338-3.024 59 59 0 0 0 2.416-2.044q.631-.563 1.153-1.081zm21.097-15.328q.252.21.406.33.215.163.281.189.196.075.366-.121.302-.342.576-.887l.09-.153a.6.6 0 0 0 .084-.271.5.5 0 0 0-.046-.23 2 2 0 0 0-.104-.213 56 56 0 0 1-.483-.813.32.32 0 0 0-.262-.173q-.209-.017-.237.169l-.003.095q-.008.161-.168.17l-.101.005q-.32.051-.306.354a.6.6 0 0 0 .037.158q.03.077.051.158.054.2.056.215a.21.21 0 0 1-.055.162.7.7 0 0 1-.12.106 1 1 0 0 1-.14.085q-.271.147-.12.443.052.098.198.222m-34.065 1.841q.258.187.446.443.188.25.464.126a.1.1 0 0 0 .039-.034 2.6 2.6 0 0 0 .268-.596q.046-.15-.066-.281a5 5 0 0 0-.29-.318q-.308-.294-.659.042a.5.5 0 0 1-.161.103q-.086.033-.138.196-.064.2.097.319m31.47 1.901q.308.235.619.466.006.004.153.138a.5.5 0 0 0 .203.111.36.36 0 0 0 .319-.049q.061-.044.197-.227.235-.309.361-.682.135-.399.314-.778a.35.35 0 0 0-.02-.328 1.1 1.1 0 0 0-.194-.259 2 2 0 0 1-.194-.196 4 4 0 0 0-.359-.386.64.64 0 0 0-.245-.155q-.227-.061-.277.218l-.012.146q-.027.335-.388.22a.3.3 0 0 0-.246.027 1 1 0 0 0-.198.129.27.27 0 0 0-.098.209q0 .058.069.203.12.254-.124.369-.174.08-.197.116-.07.095-.037.251.027.133.091.216.012.014.127.126.066.061.136.115m-32.569.922a.085.085 0 0 1 .054-.108l.222-.071q.138-.04.18-.119.072-.131-.031-.282a.86.86 0 0 0-.688-.395.2.2 0 0 1-.071-.017l-.064-.038a.5.5 0 0 0-.099-.051q-.203-.062-.208.182a.6.6 0 0 0 .023.168q.033.109-.063.144a.7.7 0 0 0-.245.135q-.146.137 0 .272.278.261.584.484a.5.5 0 0 0 .207.103q.162.027.228-.125a.2.2 0 0 0 .007-.14 1 1 0 0 0-.036-.142m30.916 8.295q.12.209.187.437.076.258.079.38a.39.39 0 0 1-.198.366q-.073.045-.144.098-.22.161-.198.355a.64.64 0 0 0 .157.319.35.35 0 0 0 .387.122.76.76 0 0 0 .315-.194q.384-.357.57-.882a1.73 1.73 0 0 0-.017-1.267 3.5 3.5 0 0 1-.18-.569 2 2 0 0 0-.072-.262.7.7 0 0 1-.056-.269.52.52 0 0 1 .3-.461.1.1 0 0 1 .051-.007.55.55 0 0 1 .31.164l.113.12q.563.513 1.217.9a.7.7 0 0 1 .178.146 1 1 0 0 1 .131.193q.19.502.268 1.029.04.28.08.477.046.237.077.478l.089.671q.134.877.147 1.185.074 1.529-.086 3.053a2 2 0 0 1-.031.162 1 1 0 0 0-.03.164q-.04.31.243.359.026.005.05-.01a.38.38 0 0 0 .152-.256q.13-.77.173-1.379c.046-.664.087-1.324.127-1.988a18 18 0 0 0-.205-3.974 5 5 0 0 0-.194-.758 3 3 0 0 1-.107-.441 4 4 0 0 0-.184-.68 2 2 0 0 1-.085-.385 1.8 1.8 0 0 0-.093-.381 10 10 0 0 1-.164-.487 2 2 0 0 0-.138-.316 1.5 1.5 0 0 1-.124-.327 2 2 0 0 0-.068-.193.7.7 0 0 1-.045-.203.34.34 0 0 1 .056-.232q.079-.106.212-.052.08.032.142.129.09.143.162.293.027.058.095.294.105.391.511.527a.1.1 0 0 0 .052.002 5 5 0 0 0 .394-.115.45.45 0 0 1 .496.111q.118.115.501.757.054.091.131.493.022.112.063.217.043.106.083.212.061.156.077.328.036.335.064.669.03.303.078.667a21 21 0 0 1 .128 4.735 56 56 0 0 0-.108 1.392q-.02.327.068.571a.25.25 0 0 0 .089.128q.085.06.172.021c.059-.023.103-.078.132-.157a1 1 0 0 0 .054-.4 7 7 0 0 1 .043-.731q.031-.33.047-.73.03-.819.153-1.631.097-.64.115-.958.04-.786-.001-1.571a7 7 0 0 0-.099-.829 20 20 0 0 1-.163-1.068 5 5 0 0 0-.092-.471 5 5 0 0 1-.101-.471 6 6 0 0 0-.104-.55q-.116-.485-.129-.546l-.105-.531a14 14 0 0 0-.123-.526 7 7 0 0 1-.112-.536 2 2 0 0 0-.148-.479 1 1 0 0 1-.073-.28 7 7 0 0 0-.188-.855 1.3 1.3 0 0 1-.046-.293 7 7 0 0 0-.02-.298l-.021-.32a1.5 1.5 0 0 0-.364-.902.25.25 0 0 0-.128-.087.4.4 0 0 0-.163-.002q-.091.021-.171.126a1 1 0 0 0-.118.188 1.2 1.2 0 0 1-.451.644q-.358.263-.423.32a5 5 0 0 0-.657.716q-.177.228-.263.413-.103.226-.155.468a4 4 0 0 1-.112.44 1.7 1.7 0 0 1-.241.403 4 4 0 0 1-.29.273q-.3.272-.422.663-.12.398-.33.736a2.2 2.2 0 0 1-.327.386 4 4 0 0 0-.475.558q-.23.345-.472.554a7 7 0 0 1-.928.658q-.324.195-.412.437a1 1 0 0 1-.113.245.18.18 0 0 1-.144.093q-.123.01-.167-.121a84 84 0 0 1-.323-.967 16 16 0 0 1-.488-1.897 13 13 0 0 1-.148-1.069q-.08-.726-.164-1.451a7 7 0 0 0-.108-.612 4 4 0 0 1-.09-.616q-.015-.32.067-.595a3.4 3.4 0 0 1 .306-.686l.106-.158q.259-.393-.184-.592a.1.1 0 0 0-.053-.003.6.6 0 0 0-.28.158q-.2.213-.319.561-.059.169-.121.337a3 3 0 0 0-.1.342 5 5 0 0 1-.079.326 2 2 0 0 0-.07.327q-.07.603.061 1.243.136.667.278 1.178.044.153.063.347.019.177.057.351.076.35.097.521.048.39.118.777.046.258.103.418l.079.222q.126.421.208.633.313.825.411 1.705a.9.9 0 0 1-.021.385 1.2 1.2 0 0 1-.182.354q-.15.2-.175.236l-.155.251a1 1 0 0 1-.466.404 3.3 3.3 0 0 0-.543.301 1.22 1.22 0 0 0-.494.657.83.83 0 0 1-.21.361.1.1 0 0 1-.048.019 2 2 0 0 1-.253.002.45.45 0 0 0-.414.142 3.4 3.4 0 0 0-.532.79 7 7 0 0 0-.315.74q-.152.416-.242.514a1.4 1.4 0 0 1-.229.217q-.422.245-.667.65a5 5 0 0 0-.197.36 2.3 2.3 0 0 0-.15.384 5 5 0 0 1-.122.358l-.059.182a.6.6 0 0 1-.225.31q-.093.069-.25 0a.5.5 0 0 0-.406-.014l-.132.052a.5.5 0 0 0-.176.104q-.311.3-.445.708a4 4 0 0 1-.13.344 1.8 1.8 0 0 0-.134.479q-.032.236-.081.315a.39.39 0 0 1-.364.188.5.5 0 0 1-.229-.08 1.2 1.2 0 0 0-.242-.105.3.3 0 0 0-.222.004.6.6 0 0 0-.188.138 1 1 0 0 0-.257.404q-.06.202-.089.263a4 4 0 0 0-.216.568q-.124.417-.552.269a.5.5 0 0 0-.304-.026q-.508.125-.715.633a3 3 0 0 1-.177.362 2.4 2.4 0 0 1-.215.339q-.171.171-.465.047a.21.21 0 0 0-.21.024 2 2 0 0 1-.239.153q-.129.073-.224.019-.063-.034-.124-.157a.7.7 0 0 1-.08-.213 7 7 0 0 0-.172-.91 14 14 0 0 1-.3-1.338 4.3 4.3 0 0 1-.027-1.229q.073-.609.199-1.205.05-.238.139-.373a.7.7 0 0 0 .08-.172q.058-.202-.028-.293-.068-.073-.197-.046a.36.36 0 0 0-.189.115 4 4 0 0 0-.288.372.3.3 0 0 0-.041.087 10 10 0 0 1-.217.695q-.06.172-.075.355a7 7 0 0 1-.065.525 4 4 0 0 0-.055.526q-.013.5.008.654.085.632.277 1.235.056.172.096.353.04.178.089.354.088.309.12.533.082.557.08.674 0 .125.043.295.065.247.15.841.07.485.248.944.112.282.015.514-.082.195-.279.41-.19.21-.282.257-.21.107-.427-.107a1.4 1.4 0 0 1-.41-.739.6.6 0 0 1-.009-.231.5.5 0 0 1 .098-.222 1.8 1.8 0 0 1 .309-.272q.282-.21.083-.511-.182-.276-.45-.239-.187.027-.382.231a1.8 1.8 0 0 0-.395.632 2.64 2.64 0 0 0 .03 1.92q.081.207.307.493.22.275.365.379a.555.555 0 0 0 .638-.007q.096-.07.179-.157.102-.109.216-.21.004-.006.129-.126a.64.64 0 0 1 .336-.172q.153-.03.181.123a1 1 0 0 1-.002.336 1 1 0 0 0-.004.303l.021.181q.128 1.63.241 3.263a7.3 7.3 0 0 1-.069 1.62q-.039.255-.099.731a.64.64 0 0 0 .03.3.32.32 0 0 0 .175.197q.172.073.292-.137a.5.5 0 0 0 .068-.229l.022-.234q.133-.736.194-1.479.033-.414.098-.826.018-.115.023-.387.002-.063.034-.383a2 2 0 0 0-.004-.433 70 70 0 0 1-.192-2.147 11 11 0 0 0-.125-.995 32 32 0 0 1-.156-1.015q-.04-.298-.147-.813a5 5 0 0 1-.109-.882.64.64 0 0 1 .139-.383c.041-.055.077-.108.111-.168a1 1 0 0 1 .121-.166.43.43 0 0 1 .245-.155q.2-.032.274.218a.3.3 0 0 1 .011.097q-.049.566-.041 1.07c.002.196.052.377.147.535q.088.143.213.181.19.058.295-.146a.4.4 0 0 0 .039-.182 24 24 0 0 1 .011-1.93q.02-.41.112-.604a.95.95 0 0 1 .456-.452.45.45 0 0 1 .339-.035q.23.075.313.335.033.11.032.334-.002.315-.005.333a.5.5 0 0 1-.183.313 1 1 0 0 1-.302.176.9.9 0 0 0-.248.117.53.53 0 0 0-.19.474c.005.063.021.19.049.39q.03.22.099.306.104.132.277.063a.6.6 0 0 0 .209-.157 6 6 0 0 0 .584-.676 2.83 2.83 0 0 0 .497-1.715 6 6 0 0 1-.004-.536 9 9 0 0 0 .011-.799.73.73 0 0 1 .106-.433.36.36 0 0 1 .141-.133.2.2 0 0 1 .209.014q.229.156.478.461.183.223.218.283.132.237-.102.393a1.2 1.2 0 0 1-.228.085.56.56 0 0 0-.287.218 4 4 0 0 0-.16.258q-.102.17.005.323a.3.3 0 0 0 .295.141q.296-.036.525-.213.21-.16.371-.4.22-.329.214-.753a64 64 0 0 1-.003-2.138.7.7 0 0 1 .066-.305q.157-.312.447-.574a.46.46 0 0 1 .198-.115.22.22 0 0 1 .204.051.53.53 0 0 1 .196.527.8.8 0 0 0-.011.245q.062.428.191.841.026.08.041.212a1 1 0 0 0 .047.213q.046.137.13.186.131.078.265-.071a.6.6 0 0 0 .133-.271.9.9 0 0 1 .196-.348l.184-.215q.075-.09.185-.213.304-.34.531.034.25.41.417.862.124.331.207.854.101.647.118.876.063.932-.028 1.865a18 18 0 0 1-.343 2.097q-.033.137-.232.828a8 8 0 0 0-.196.841l-.035.164q-.089.414.347.331a.1.1 0 0 0 .044-.026q.235-.269.275-.624l.031-.271a1.6 1.6 0 0 1 .085-.325q.12-.282.152-.585.017-.167.032-.236.037-.184.061-.23.126-.241.173-.637.03-.246.192-.716a1.5 1.5 0 0 0 .079-.367c.031-.379.057-.757.069-1.137a4 4 0 0 0-.025-.59 9 9 0 0 1-.041-.59 4 4 0 0 0-.039-.473q-.037-.234-.077-.468-.054-.309-.115-.703a19 19 0 0 0-.267-1.387l-.055-.187q-.119-.412.24-.612.416-.233.681-.521a2.6 2.6 0 0 0 .262-.402q.294-.54.763-.954.223-.196.431-.406.136-.135.282-.062.097.048.145.196.096.306.127.629.025.273.063.463.111.548.139 1.177.06 1.498.025 2.717a2.5 2.5 0 0 1-.127.706 5 5 0 0 0-.13.497l-.149.822a9 9 0 0 0-.113.824q-.064.691-.196 1.288-.03.144-.021.27a.33.33 0 0 0 .109.234q.113.099.257.032a.46.46 0 0 0 .174-.159.9.9 0 0 0 .183-.487q.031-.514.121-.914l.117-.527.32-1.71q.027-.149.043-.356c.011-.121.022-.239.041-.36q.05-.333.055-.539.022-1.185-.038-2.362a12 12 0 0 1-.009-.475 9 9 0 0 0-.017-.474q-.03-.496-.033-.712a29 29 0 0 0-.041-1.057l-.022-.665a6 6 0 0 0-.081-.793 59 59 0 0 1-.129-.78 11 11 0 0 0-.183-.98 6 6 0 0 1-.06-.312.9.9 0 0 0-.097-.305.34.34 0 0 1-.021-.351q.08-.162.229-.062a.55.55 0 0 1 .232.315q.19.652.313 1.317.009.048.062.232c.046.156.133.26.257.303q.131.044.271-.054.327-.226.325-.594a6 6 0 0 0-.07-.76 3 3 0 0 0-.115-.437 2.5 2.5 0 0 1-.132-1.055q.041-.412.345-.793.002-.006.073-.104.108-.154.27-.118c.077.012.135.061.183.145m-34.771 2.142q.202-.068.336.102.296.379.644.707.374.357.686.769.031.039.128.153.067.076.119.162l.141.238q.383.56.976 1.48.382.593.962 1.411.07.099.152.255a4 4 0 0 0 .154.259c.045.066.1.182.162.336q.027.07.139.267c.04.068.076.162.111.272q.071.237.214.44a.32.32 0 0 0 .333.144q.151-.024.15-.178a.8.8 0 0 0-.086-.354 31 31 0 0 0-.756-1.373q-.225-.385-.529-.829-.277-.407-.558-.811a30 30 0 0 0-.51-.712 43 43 0 0 1-.511-.713l-.07-.119a1 1 0 0 0-.151-.188q-.116-.12-.501-.675-.167-.245-1.047-1.115a3 3 0 0 1-.229-.259 1.5 1.5 0 0 0-.247-.249l-.202-.159q-.327-.283-.653-.571a3.3 3.3 0 0 1-.377-.384.47.47 0 0 1-.109-.254.6.6 0 0 1 .043-.284l.083-.203a1 1 0 0 1 .121-.217q.072-.091.078-.146.012-.111-.101-.161a.05.05 0 0 0-.049.003.54.54 0 0 0-.222.2 7 7 0 0 1-.304.479 1 1 0 0 0-.134.28 2 2 0 0 1-.122.283 6 6 0 0 0-.188.39 9 9 0 0 0-.132.321 1.5 1.5 0 0 0-.065.344 1.1 1.1 0 0 1-.095.36l-.116.265a4.8 4.8 0 0 1-.536.992 3 3 0 0 0-.372.696l-.149.414a1 1 0 0 0-.062.312 9 9 0 0 1-.024.331.4.4 0 0 1-.058.196.32.32 0 0 1-.184.123.455.455 0 0 0-.361.396q-.032.195-.017.646.005.194.003.306a.4.4 0 0 1-.076.222 2.3 2.3 0 0 1-.31.358.74.74 0 0 0-.248.538q0 .092.047.303.057.238.055.301a.42.42 0 0 1-.18.362l-.126.089q-.362.323-.216.776.056.172.045.258-.03.275-.309.182a.22.22 0 0 0-.161.007q-.207.084-.163.272.03.14-.087.24a.05.05 0 0 1-.047.01.75.75 0 0 1-.356-.266l-.085-.117a3 3 0 0 0-.318-.337 386 386 0 0 1-1.326-1.229q-.34-.313-.851-.969a1 1 0 0 1-.084-.136.6.6 0 0 0-.095-.131 2 2 0 0 1-.148-.183l-.123-.193a.3.3 0 0 0-.135-.122q-.166-.06-.168.177a.4.4 0 0 0 .076.252q.086.12.107.173.16.373.452.699.606.674 1.043 1.136.133.141.367.354.188.173.366.355.312.321.545.536.343.314.892.837a7 7 0 0 1 1.278 1.62q.003.007.111.156.09.127.046.275-.042.152-.183.177a.4.4 0 0 1-.223-.038 1.1 1.1 0 0 1-.578-.51.24.24 0 0 1-.016-.208q.094-.261-.083-.4a4 4 0 0 1-.171-.136.5.5 0 0 0-.3-.128.26.26 0 0 0-.199.058.34.34 0 0 0-.115.191.7.7 0 0 0-.018.205.7.7 0 0 0 .049.204q.165.42.419.72.116.135.229.301.22.321.557.51a1 1 0 0 0 .473.136q.258.004.497-.094.228-.094.276-.121a.5.5 0 0 0 .206-.234q.03-.065.083-.232a.4.4 0 0 1 .094-.182q.087-.076.228-.024a1.1 1.1 0 0 1 .27.135q.514.343 1.01.706.291.215.611.385.088.047.157.101.073.06.146.117.105.085.221.057a.4.4 0 0 0 .181-.095q.092-.083.047-.223a.4.4 0 0 0-.134-.194l-.192-.125-1.738-1.112-.306-.188a7.3 7.3 0 0 1-1.81-1.586q-.12-.145-.246-.287-.208-.233-.228-.303-.085-.312.2-.261a.1.1 0 0 1 .046.023q.6.572.96.827.219.157.361-.057a.1.1 0 0 0 .015-.05.39.39 0 0 0-.181-.32q-.109-.071-.113-.076a3.8 3.8 0 0 1-.653-.651.9.9 0 0 1-.133-.259 2.4 2.4 0 0 0-.219-.462.2.2 0 0 1-.021-.152.74.74 0 0 1 .354-.454q.155-.093.276 0 .123.095.133.101.144.092.292.27.142.172.081.326a1 1 0 0 1-.178.186q-.25.224-.031.477a.6.6 0 0 0 .193.138q.108.05.219.099a.1.1 0 0 0 .052.006q.402-.076.406-.481a1.12 1.12 0 0 0-.291-.751 2 2 0 0 1-.129-.166 3 3 0 0 0-.187-.253 2.6 2.6 0 0 1-.313-.479 66 66 0 0 0-.357-.697q-.08-.154.031-.308.173-.243.446-.13a.63.63 0 0 1 .242.208q.087.11.206.22.14.127.239.295.116.195-.072.306-.33.196-.121.451a.5.5 0 0 0 .152.115q.085.047.164.102.075.05.154.004.24-.147.37-.383a.5.5 0 0 0 .066-.302.64.64 0 0 0-.114-.299l-.254-.366a.3.3 0 0 0-.079-.076 1.4 1.4 0 0 1-.196-.141 4 4 0 0 0-.186-.154.76.76 0 0 1-.284-.495 2.8 2.8 0 0 1-.049-.593.33.33 0 0 1 .111-.232c.06-.054.135-.071.224-.061a.94.94 0 0 1 .497.254q.327.293.346.659l.023.413q.016.266.065.408.106.312.357.54.091.087.183-.002a.47.47 0 0 0 .158-.439 3 3 0 0 1-.037-.25q.024-.273.352-.175a.1.1 0 0 1 .043.028q.086.09.269.221.463.326 1.007.839.003.005.137.115a.7.7 0 0 1 .158.19.7.7 0 0 0 .117.127q.06.053.107.13a1 1 0 0 0 .114.149q.094.102.124.141.263.348.519.702.028.038.076.134a.6.6 0 0 0 .086.129l.134.152q.197.27.387.544.03.04.177.224.105.127.143.249a.6.6 0 0 0 .157.261.24.24 0 0 0 .249.052q.175-.063.174-.26a.34.34 0 0 0-.092-.21q-.36-.428-.714-.861a3 3 0 0 1-.272-.393 5 5 0 0 0-.5-.697 18 18 0 0 1-.449-.552q-.218-.28-.447-.553a5 5 0 0 0-.371-.372l-.927-.873a3 3 0 0 0-.42-.333 1.4 1.4 0 0 0-.272-.12.95.95 0 0 1-.355-.216 6 6 0 0 1-.568-.635 3 3 0 0 1-.275-.453l-.097-.155a.45.45 0 0 1-.047-.387q.05-.159.217-.133c.016.002.029.016.034.03q.174.606.8.739a.7.7 0 0 0 .572-.137q.266-.19.433-.377a.9.9 0 0 0 .161-.276 1 1 0 0 0 .042-.273q.01-.202.054-.276.15-.255.294-.516a2 2 0 0 0 .139-.308q.061-.178.1-.325a.5.5 0 0 0 0-.268.5.5 0 0 1 .036-.384c0-.014.014-.026.03-.032m-5.694 2.618q.087.064.451.263a.5.5 0 0 0 .284.081.36.36 0 0 0 .271-.182q.12-.187.206-.31.003-.007.136-.156.148-.172.047-.354a6 6 0 0 0-.201-.25 4 4 0 0 1-.209-.268q-.19-.282-.411-.163a.9.9 0 0 0-.269.252.95.95 0 0 0-.181.422.4.4 0 0 1-.094.203 2 2 0 0 0-.132.16q-.074.175.102.302m30.017 2.641a.16.16 0 0 0 .182.014.74.74 0 0 0 .294-.28q.248-.39.616-.669a.7.7 0 0 0 .206-.269.52.52 0 0 0 .037-.323 1.3 1.3 0 0 0-.138-.398 6 6 0 0 1-.198-.424q0-.004-.077-.239-.147-.448-.628-.169a.16.16 0 0 1-.084.02q-.367-.015-.346.354.017.286-.228.343l-.168.037q-.26.104-.206.391.066.326.376 1.098a.5.5 0 0 0 .059.102q.033.044.055.102.066.18.248.31m-6.764 6.457a.2.2 0 0 0 .042-.042q.374-.52.723-1.058a.5.5 0 0 0 .08-.24 1.2 1.2 0 0 0-.033-.315 3 3 0 0 0-.232-.644q-.071-.142-.151-.182-.114-.057-.264.008a.62.62 0 0 1-.485.005 1 1 0 0 0-.16-.051.247.247 0 0 0-.276.236q-.019.163.081.275a.5.5 0 0 1 .152.356q-.002.106-.072.151-.083.054-.196 0-.256-.117-.453.014a.34.34 0 0 0-.161.261.5.5 0 0 0 .079.327q.192.314.412.612.003.002.109.166a.66.66 0 0 0 .299.255q.267.11.46-.101zM22.381 64.444a.9.9 0 0 0 .221.206q.149.095.275.01.104-.075.108-.074a1.8 1.8 0 0 0 .532-.461.8.8 0 0 0 .181-.481q.011-.599-.341-1.126a.43.43 0 0 1-.072-.23.37.37 0 0 1 .07-.217q.141-.207.332-.371.006-.004.096-.092a.5.5 0 0 1 .227-.127q.204-.06.316.106.138.206.14.321a6.7 6.7 0 0 0 .273 1.839q.1.266.308.475.317.32.655.617.331.291.833.261.553-.033.828-.105.97-.25 1.544-1.022.16-.213.346-.542.16-.28.284-.582a.28.28 0 0 0 .009-.188q-.337-1.056-1.281-1.573a.56.56 0 0 0-.325-.081.7.7 0 0 0-.341.132q-.408.289-.752.651a.5.5 0 0 0-.121.191.6.6 0 0 0-.042.229q.021.301.294.53.227.188.453.099.132-.054.323-.232.148-.14.253-.315.194-.324.434-.138a.43.43 0 0 1 .147.461 1.7 1.7 0 0 1-.344.642 6 6 0 0 1-.399.414q-.209.197-.452.355a1 1 0 0 1-.764.156 2 2 0 0 1-.444-.147 1.3 1.3 0 0 1-.375-.265 2.2 2.2 0 0 1-.431-.593.7.7 0 0 1-.071-.319c.004-.245.013-.494.027-.739q.033-.584.061-.735.14-.718.797-1.138 1.05-.668 1.995-1.479.414-.352.703-.805.2-.31.337-.545.161-.276.268-.584a.77.77 0 0 0-.017-.594q-.14-.303-.418-.11a.1.1 0 0 0-.032.042 9 9 0 0 0-.228.601 5 5 0 0 1-.234.598 3.58 3.58 0 0 1-2.021 1.788 10 10 0 0 0-.474.182l-.466.2a.4.4 0 0 1-.092.022.4.4 0 0 0-.091.015.27.27 0 0 1-.276-.059q-.167-.155-.202-.258-.166-.47-.111-1.105.046-.516.03-1.979a1.8 1.8 0 0 1 .056-.521q.081-.24.251-.472.249-.339.494-.552a.45.45 0 0 1 .229-.112.55.55 0 0 1 .264.002.7.7 0 0 1 .305.22.7.7 0 0 1 .172.322q.06.278-.135.556-.143.208-.33.123a.6.6 0 0 1-.123-.101 1 1 0 0 0-.124-.101.26.26 0 0 0-.22-.051q-.147.038-.153.221a.64.64 0 0 0 .055.281q.086.2.101.262l.049.196q.03.121.07.188.209.361.593.061.073-.057.256-.187.257-.183.417-.497.149-.294.164-.608.029-.555-.352-.993a1 1 0 0 1-.094-.125.6.6 0 0 0-.107-.117l-.142-.117a.64.64 0 0 0-.346-.158 3 3 0 0 0-.308-.014.7.7 0 0 0-.295.063 1.9 1.9 0 0 0-.585.483q-.358.43-.557.694a2 2 0 0 0-.255.442q-.098.248-.139.497-.02.121-.07.506-.01.068-.05.509-.03.297-.096.593-.09.386-.042.782a1.5 1.5 0 0 1-.01.313q-.017.141.019.345.045.26.048.341.022.628-.321 1.183-.375.609-.954.982a.1.1 0 0 1-.05.014 4 4 0 0 1-.346-.051.8.8 0 0 0-.256-.021.6.6 0 0 0-.244.104q-.117.083-.245.149-.36.183-.501.552-.018.045-.051.207a.5.5 0 0 1-.079.204.2.2 0 0 1-.217.091.7.7 0 0 1-.191-.095q-.096-.06-.193-.115a.33.33 0 0 0-.209-.045.75.75 0 0 0-.297.111q-.07.044-.379.31-.08.071-.21.046a.5.5 0 0 1-.183-.087c-.044-.028-.089-.06-.135-.085a.24.24 0 0 0-.147-.042.65.65 0 0 0-.299.087 3 3 0 0 0-.627.495q-.168.173-.248.185a46 46 0 0 0-.891.143.76.76 0 0 1-.666-.182l-.363-.317a.44.44 0 0 0-.159-.095.24.24 0 0 0-.192.028q-.061.038-.158.194-.108.174-.229.343-.104.142-.344.182l-2.094.335q-.263.043-.336.089-.33.211-.122.535.271.418.718.655.132.069.261.164.113.082.261.17.362.212.726.545.214.196.503.077a.34.34 0 0 1 .228-.01q.09.029.156.142.06.1.116.198a.8.8 0 0 0 .133.184q.138.122.302.045a.3.3 0 0 0 .167-.205.4.4 0 0 0-.019-.29 15 15 0 0 1-.684-1.706q-.057-.176-.032-.258.048-.15.297-.125a.28.28 0 0 1 .166.076q.28.262.523.613.165.238.257.354.22.278.263.348.35.573.341 1.199-.002.178.036.315a.3.3 0 0 0 .109.178q.104.076.233.016a.2.2 0 0 0 .127-.176q.037-.309.046-.6.007-.223.064-.317a.4.4 0 0 1 .296-.192 1 1 0 0 0 .222-.053 23 23 0 0 1 1.499-.619q.486-.172.989-.28a.42.42 0 0 0 .287-.2.32.32 0 0 0-.012-.37 1.5 1.5 0 0 0-.203-.23 4 4 0 0 1-.446-.556q-.22-.312-.054-.694a.2.2 0 0 1 .168-.129.3.3 0 0 1 .183.051q.207.122.398.267.195.148.305.357.08.155.136.302t.077.323q.049.449.216.975.053.163.083.501.019.201.079.385.162.498.186.778.027.333.229.731.08.156.211.185.137.027.215-.094a.35.35 0 0 0 .04-.272 2 2 0 0 0-.072-.255 1.6 1.6 0 0 1-.074-.251 30 30 0 0 0-.24-1.18 422 422 0 0 0-.4-1.809 3 3 0 0 1-.07-.48l-.033-.483q-.03-.485.363-.635a.4.4 0 0 1 .288 0q.291.104.478.378a.36.36 0 0 1 .037.378.1.1 0 0 1-.036.037q-.134.075-.276.129a.55.55 0 0 0-.234.146.34.34 0 0 0-.045.338.8.8 0 0 0 .16.263c.067.064.129.141.195.226m-1.674-3.251q.13.025.242-.047.151-.097.188-.115a.6.6 0 0 0 .202-.165.92.92 0 0 0 .191-.74 8 8 0 0 1-.084-.907.37.37 0 0 0-.106-.259q-.093-.094-.241-.064a.5.5 0 0 0-.269.141.17.17 0 0 1-.187.045q-.237-.073-.293.131l-.033.115a3 3 0 0 1-.103.238.22.22 0 0 1-.119.111.6.6 0 0 0-.169.1 2 2 0 0 0-.144.131.24.24 0 0 0-.065.219.4.4 0 0 0 .102.189q.33.394.691.757.106.104.197.12m-4.14.864q.245.008.261-.312a.25.25 0 0 0-.028-.131 2.5 2.5 0 0 0-.307-.478.24.24 0 0 0-.242-.091.27.27 0 0 0-.187.133q-.08.143 0 .317.114.248.295.449a.3.3 0 0 0 .208.113m-.752.978q.587.22 1.196.081a.7.7 0 0 0 .287-.14q.27-.21.337-.313.141-.22-.042-.359a.07.07 0 0 0-.049-.015.42.42 0 0 0-.287.116 1.2 1.2 0 0 1-.281.22.7.7 0 0 1-.337.081 1.7 1.7 0 0 1-.635-.146.34.34 0 0 0-.227-.004.24.24 0 0 0-.162.132.21.21 0 0 0 .025.232.4.4 0 0 0 .175.115"/>
        <path d="M64.365 11.556q.085-.043.178.01.046.03.112.117.17.229.371.434.058.06.061.184.001.11-.065.166-.092.08-.219-.004a1.4 1.4 0 0 1-.288-.295l-.143-.152a.4.4 0 0 1-.104-.283q.004-.13.097-.177m-20.035.838q.223-.285.471-.098.089.066.166.206.076.136.109.247a.4.4 0 0 0 .057.114q.062.085.068.102.089.226-.1.403a6 6 0 0 1-.291.22q-.19.136-.351.054-.11-.057-.188-.244a1.4 1.4 0 0 1-.104-.349.85.85 0 0 1 .163-.655m-1.179 1.705a.6.6 0 0 1-.139-.299 2.7 2.7 0 0 0-.125-.509q-.083-.244.078-.376.092-.072.189-.047a.36.36 0 0 1 .182.121q.247.284.453.668.082.15.026.293-.115.31-.396.293a.36.36 0 0 1-.268-.144m18.305 5.128a.82.82 0 0 1-.338-.475 15 15 0 0 0-.168-.563 6 6 0 0 1-.086-.369 1.4 1.4 0 0 0-.146-.394q-.057-.099-.173-.532l-.113-.334a2.4 2.4 0 0 1-.094-.432q-.112-.848-.137-1.149a1 1 0 0 1 .087-.472.05.05 0 0 1 .038-.03q.159-.033.202.114l.03.1q.036.095.064.191a.7.7 0 0 0 .078.182c.058.091.106.186.153.282q.077.163.146.282.23.387.383.812.037.108.137.32.078.166.109.332.032.16.093.293.113.25.124.28.107.3.141.366.093.177.121.331a.56.56 0 0 1-.05.335 1.6 1.6 0 0 1-.361.523q-.097.102-.24.007M39.46 15.868q-.356-.288-.164-.709a1 1 0 0 1 .155-.244.26.26 0 0 1 .146-.095.16.16 0 0 1 .18.081q.197.344.312.726.107.358-.242.38a.56.56 0 0 1-.387-.139m-1.137-.212q.077.104.098.238.035.231.04.248a1 1 0 0 0 .118.253q.125.18.173.289.104.26-.007.449a1.6 1.6 0 0 1-.16.222q-.31.347-.632.216-.175-.071-.415-.393-.285-.385-.354-.549a.26.26 0 0 1 .02-.241q.012-.02.141-.176.306-.369.722-.608.152-.088.256.052m-9.61 5.694q-.125-.07-.16-.165l-.028-.075a5 5 0 0 1-.284-.721 2 2 0 0 0-.125-.317 1.8 1.8 0 0 1-.172-.57l-.025-.199a23 23 0 0 1-.089-.649.6.6 0 0 1 .015-.221q.048-.178.207-.18.138-.002.168.136.053.254.124.487.087.28.132.484.068.314.136.5.143.401.432.934a.4.4 0 0 1 .058.242.4.4 0 0 1-.213.313.17.17 0 0 1-.176.001m34.152 1.642-.051-.079a4.2 4.2 0 0 1-.396-.892 16 16 0 0 0-.324-.85l-.101-.205a.9.9 0 0 1-.075-.512.5.5 0 0 1 .107-.258q.214-.247.438-.004.572.613.856 1.455.142.422.207.633.001.008.085.195a.32.32 0 0 1-.016.293q-.142.266-.354.335-.237.08-.376-.111M60.714 28a1.1 1.1 0 0 1-.283-.314 2.5 2.5 0 0 1-.134-.33 5 5 0 0 0-.135-.333 2 2 0 0 1-.125-.498 1.8 1.8 0 0 0-.095-.37 3 3 0 0 1-.159-.511 5 5 0 0 1-.046-.571q-.007-.15-.045-.476-.033-.3.01-.48.04-.162.072-.326a1.4 1.4 0 0 1 .101-.317q.2-.441.463-.849a.8.8 0 0 1 .206-.22q.172-.13.251-.17a.68.68 0 0 0 .355-.443.5.5 0 0 1 .115-.206.24.24 0 0 1 .204-.084q.156.013.192.196.048.239.111.4.072.185.083.272a.8.8 0 0 1-.006.288q-.097.383-.225.761a2 2 0 0 1-.223.452 2 2 0 0 0-.195.356 1 1 0 0 0-.088.389q-.011.51.271.947.206.319.622.474.212.078.253.274.027.13-.061.33-.07.159-.151.313l-.144.284a1.95 1.95 0 0 1-.697.767.4.4 0 0 1-.497-.005m-30.7-3.622a1.3 1.3 0 0 1-.288-.465l-.079-.231a.8.8 0 0 0-.108-.214 1.8 1.8 0 0 1-.276-.784 1.5 1.5 0 0 1 .021-.537l.051-.206a.24.24 0 0 1 .162-.16q.187-.054.276.159.13.314.349.564.291.333.309.356.171.232.321.479.194.32.197.327.082.215-.129.41a2.5 2.5 0 0 1-.492.346q-.179.1-.314-.044m-3.134 1.128q.195-.26.438-.445a.28.28 0 0 1 .213-.056.5.5 0 0 0 .218-.017.5.5 0 0 0 .169-.125q.389-.41.652-.846.087-.145.138-.332.043-.164.111-.22.117-.095.238.015a.5.5 0 0 1 .115.179q.178.41.275.845.048.218.03.468-.022.294-.054.588a.54.54 0 0 1-.169.346.5.5 0 0 1-.219.094 1 1 0 0 0-.267.101l-.201.1a1 1 0 0 0-.375.342q-.163.236-.007.46.058.081.161.174.089.08.202.115.322.102.636.052.197-.031.365-.02a.42.42 0 0 1 .29.12q.12.12.145.307a3.23 3.23 0 0 1-.46 2.194 2 2 0 0 1-.375.476q-.358.314-.483.383a.49.49 0 0 1-.463.021l-.191-.092a2.23 2.23 0 0 1-.936-.696 16 16 0 0 1-.27-.352 3.2 3.2 0 0 1-.46-.874l-.181-.529a1.8 1.8 0 0 1-.082-.394 5 5 0 0 0-.114-.68q-.078-.329-.069-.459a.9.9 0 0 1 .152-.454q.081-.123.354-.34.129-.102.254-.207.105-.088.22-.242"/>
        <path d="M61.957 25.16q-.199-.203-.101-.491a.05.05 0 0 1 .036-.032q.309-.068.441.227.074.17-.021.292a.21.21 0 0 1-.166.082.24.24 0 0 1-.189-.078m-40.363 7.996a.5.5 0 0 1-.167-.157l-.091-.146a1.5 1.5 0 0 1-.206-.338 1.3 1.3 0 0 1-.086-.315 11 11 0 0 1-.054-.325.7.7 0 0 1 .071-.443q.104-.175.266-.121a.5.5 0 0 1 .198.157q.288.336.517.716a.6.6 0 0 1 .094.244.55.55 0 0 1-.039.268 7 7 0 0 1-.111.239.53.53 0 0 1-.164.21.19.19 0 0 1-.228.011m33.379.713a2.4 2.4 0 0 1-.409-.558.95.95 0 0 1-.084-.681q.064-.279.262-.809.08-.21.244-.207.114.001.23.132.395.444.525 1.034l.101.474q.043.206.025.306a.42.42 0 0 1-.163.278 1.3 1.3 0 0 1-.196.103q-.121.055-.212.055c-.091 0-.12-.01-.18-.029a.4.4 0 0 1-.143-.098m-35.17 1.194a.53.53 0 0 1-.163-.498q.022-.138.014-.276l-.041-.209a.43.43 0 0 1 .042-.296q.078-.14.213-.1a.4.4 0 0 1 .161.122q.252.284.485.586.171.221.057.432a.56.56 0 0 1-.201.197 1 1 0 0 1-.262.121.3.3 0 0 1-.305-.079m33.364 1.41a4.4 4.4 0 0 1-.542-.647.19.19 0 0 1-.021-.196q.087-.213.239-.376a.25.25 0 0 1 .136-.081.4.4 0 0 1 .111.001.17.17 0 0 1 .093.057q.246.293.332.67a.8.8 0 0 0 .107.256.34.34 0 0 1 .057.2.3.3 0 0 1-.07.182q-.098.122-.25.068a.5.5 0 0 1-.192-.134M15.134 41.68a11 11 0 0 1-.723-.725.35.35 0 0 1-.069-.406l.066-.158q.095-.283.183-.57.064-.214.126-.28.107-.113.263-.051a.5.5 0 0 1 .19.15q.215.246.356.544a.9.9 0 0 1 .077.327q.014.23.039.459.03.279-.019.406a.63.63 0 0 1-.284.327q-.11.064-.205-.023m32.149 1.806a.8.8 0 0 1-.313-.394 1.1 1.1 0 0 1-.051-.451.8.8 0 0 1 .106-.317q.131-.227.264-.451.12-.202.186-.426a.5.5 0 0 1 .194-.264.15.15 0 0 1 .145-.018q.133.06.171.222c.033.142.055.281.063.425q.013.246.039.425.034.256.034.518-.002.113.025.244.026.12.035.243.024.3-.266.333a1.5 1.5 0 0 1-.552-.052.3.3 0 0 1-.08-.037m-33.609-.541a.23.23 0 0 1-.159-.215 1.55 1.55 0 0 1 .355-1.124q.083-.1.162-.113.116-.022.208.093.286.351.56.714a.6.6 0 0 1 .118.271.76.76 0 0 1-.077.421.8.8 0 0 1-.112.184.3.3 0 0 1-.214.083.57.57 0 0 1-.292-.059 5 5 0 0 0-.549-.255m32.058 2.549a.6.6 0 0 1-.234-.238 2.4 2.4 0 0 1-.218-.959q-.011-.332.135-.541a11 11 0 0 0 .381-.587q.056-.093.116-.109a.17.17 0 0 1 .155.022.07.07 0 0 1 .029.041 1 1 0 0 1 .021.35q-.017.217.137.508.306.585-.017 1.131l-.095.183a.42.42 0 0 1-.281.222.16.16 0 0 1-.129-.023m-1.955 1.347a.49.49 0 0 1-.118-.435 3.2 3.2 0 0 1 .449-1.171.25.25 0 0 1 .146-.111q.192-.055.247.06.007.013.038.206c.053.307.105.545.159.705q.081.244.25.44.15.17-.01.313-.112.1-.281.047a.44.44 0 0 0-.339.024.5.5 0 0 1-.296.052.4.4 0 0 1-.245-.13M18.521 64.887a1.7 1.7 0 0 1-.252-.355.4.4 0 0 1-.043-.261.6.6 0 0 1 .126-.26q.103-.12.205-.191.224-.152.45.114.283.334.437.644.06.121.03.213a.3.3 0 0 1-.156.18q-.247.134-.5.089a.56.56 0 0 1-.297-.173m-1.265.621q-.11-.081-.186-.178a2 2 0 0 1-.146-.21.7.7 0 0 1-.107-.375q0-.227.173-.296.13-.049.285.039.262.15.375.432.044.11.107.211c.063.101.078.141.104.216s.023.142-.008.202a.24.24 0 0 1-.14.117.25.25 0 0 1-.198-.014l-.121-.062a.7.7 0 0 1-.138-.082m-3.724.012q-.155-.113-.314-.224a1 1 0 0 1-.224-.198q-.143-.204.077-.34a.5.5 0 0 1 .263-.06q.113 0 .292-.006.245-.005.411.145a.8.8 0 0 1 .221.334q.068.22-.121.424-.13.14-.334.085-.069-.016-.271-.16"/>
    </g>
</svg>
