<svg xmlns="http://www.w3.org/2000/svg" xml:space="preserve" width="72px" height="72px" viewBox="0 0 72 72">
    <path fill="currentColor" d="M58.858 6.246a18 18 0 0 1 5.602 3.788q2.395 2.396 3.788 5.617t1.392 6.88q0 7.155-3.447 12.32t-8.548 9.891a666 666 0 0 1-10.943 9.906Q40.857 59.831 36 67.146q-5.115-7.35-10.991-12.449a448 448 0 0 1-10.911-9.762q-5.035-4.661-8.386-9.826-3.35-5.164-3.351-12.579-.001-3.691 1.393-6.896 1.391-3.206 3.787-5.601c2.396-2.395 3.465-2.86 5.602-3.788s4.436-1.393 6.896-1.393q2.947 0 5.649 1.264c2.702 1.264 3.448 1.91 4.938 3.205l-5.148 8.158 14.731 8.418-8.418 21.013 23.118-25.221-14.7-8.418 4.08-6.119a17.5 17.5 0 0 1 3.674-1.667 13 13 0 0 1 3.999-.632q3.692 0 6.896 1.393"/>
</svg>
