<?xml version="1.0" encoding="utf-8"?>
<!-- Generator: Adobe Illustrator 16.0.0, SVG Export Plug-In . SVG Version: 6.00 Build 0)  -->
<!DOCTYPE svg PUBLIC "-//W3C//DTD SVG 1.1//EN" "http://www.w3.org/Graphics/SVG/1.1/DTD/svg11.dtd">
<svg version="1.1" id="Layer_1" xmlns="http://www.w3.org/2000/svg" xmlns:xlink="http://www.w3.org/1999/xlink" x="0px" y="0px"
	 width="72px" height="72px" viewBox="0 0 72 72" enable-background="new 0 0 72 72" xml:space="preserve">
<g id="Fellowship">
</g>
<g id="Baggins">
</g>
<g id="Lore">
</g>
<g id="Leadership">
</g>
<g id="Tactics">
</g>
<g>
	<path fill="currentColor" d="M58.858,6.246c2.138,0.928,4.004,2.191,5.602,3.788c1.597,1.597,2.859,3.47,3.788,5.617
		c0.928,2.147,1.392,4.441,1.392,6.88c0,4.77-1.148,8.877-3.447,12.32c-2.299,3.444-5.148,6.739-8.548,9.891
		c-3.399,3.15-7.047,6.453-10.943,9.906C42.805,58.104,39.238,62.268,36,67.146c-3.41-4.9-7.074-9.049-10.991-12.449
		c-3.917-3.398-7.555-6.652-10.911-9.762c-3.357-3.107-6.152-6.383-8.386-9.826c-2.233-3.443-3.351-7.636-3.351-12.579
		c0-2.461,0.463-4.759,1.393-6.896c0.928-2.137,2.189-4.004,3.787-5.601s3.465-2.86,5.602-3.788s4.436-1.393,6.896-1.393
		c1.964,0,3.848,0.422,5.649,1.264s3.448,1.91,4.938,3.205l-5.148,8.158l14.731,8.418L31.791,46.91l23.118-25.221l-14.7-8.418
		l4.08-6.119c1.144-0.69,2.368-1.246,3.674-1.667c1.307-0.421,2.64-0.632,3.999-0.632C54.423,4.853,56.722,5.318,58.858,6.246z"/>
</g>
</svg>
