<svg xmlns="http://www.w3.org/2000/svg" xml:space="preserve" width="72px" height="72px" viewBox="0 0 72 72">
    <path fill="currentColor" d="M27.054 3.673c0 1.061.02 1.941-.011 2.831-.009.191-.134.458-.287.535-1.195.669-1.31 1.808-1.3 2.964.02 2.936.104 5.861.096 8.797-.011 1.768-.145 3.537-.22 5.305-.039.938.364 1.605 1.195 2.057.526.287 1.013.258 1.415-.115 1.854-1.75 3.7-3.527 5.525-5.314.229-.221.354-.565.497-.861.555-1.07 1.101-2.15 1.654-3.231.048-.086.124-.163.152-.249.459-1.51.956-3.012 1.357-4.541.249-.938.363-1.912.507-2.868.115-.754-.22-1.396-.66-1.96-.162-.201-.516-.239-.755-.411-.201-.143-.44-.325-.497-.535-.162-.583-.421-1.167-.058-1.816.21-.373.421-.497.822-.497 2.142.009 4.293 0 6.435-.009.449 0 .899-.039 1.357-.077 1.224-.105 1.291.22 1.367 1.233.067.889-.21 1.693-1.156 2.122-.306.144-.524.536-.707.86-.535.965-.335 2.065-.479 3.106-.134.938-.286 1.836-.785 2.688-.304.525-.19 1.281-.4 1.883-.573 1.635-.976 3.327-2.122 4.732-.508.631-.842 1.415-1.186 2.16-.488 1.072-1.109 2.008-1.95 2.851-1.224 1.214-2.294 2.571-3.528 3.776-.937.918-1.998 1.711-3.039 2.505-1.082.812-2.219 1.56-3.328 2.343-.928.659-1.318 1.596-1.348 2.697a119 119 0 0 0-.01 4.542c0 .323.096.658.182.973.104.402.371.584.812.64.794.107 1.539.155 2.199-.467.21-.202.573-.325.869-.334 1.444-.049 2.629-.765 3.806-1.473 1.577-.947 3.27-1.778 4.684-2.937 2.639-2.149 5.068-4.54 7.019-7.36.191-.268.447-.488.677-.736.146-.152.337-.287.441-.469 1.195-2.17 2.85-4.072 3.48-6.559.325-1.262 1.023-2.43 1.406-3.682.555-1.768.754-3.613.745-5.468 0-1.539-.018-3.069 0-4.609.01-.621-.161-1.119-.678-1.481-.879-.622-1.156-1.424-.765-2.925.162-.612.593-.66 1.09-.641 1.769.039 3.538.086 5.307.096.764 0 1.529-.115 2.295-.133 1.031-.03 1.291.22 1.367 1.233.047.564.047 1.138.095 1.712.039.525-.19.841-.687.927-.604.095-.842.411-.879 1.033-.106 1.893-.213 3.795-.45 5.679-.153 1.233-.544 2.429-.831 3.643-.104.459-.277.918-.288 1.376-.057 2.046-.831 3.862-1.681 5.67-.412.87-.786 1.759-1.206 2.62-.181.383-.439.736-.66 1.109-.478.793-.937 1.586-1.423 2.371-.612.975-1.225 1.959-1.865 2.906-.278.401-.688.707-.977 1.108-.287.411-.458.908-.745 1.319-.43.603-.86 1.233-1.407 1.72-2.475 2.218-4.789 4.646-7.744 6.254-2.608 1.413-5.266 2.725-7.944 4.006-.669.314-1.472.362-2.227.496-1.358.239-2.64.641-3.575 1.72-.191.221-.334.557-.334.842-.049 3.978-.115 7.945-.049 11.922.01.574.584 1.215 1.052 1.665.421.399.708.745.679 1.338-.028.632 0 1.252 0 1.979h-.649c-2.103 0-4.216-.009-6.32.01-.688.011-1.376.096-2.056.125-1.052.039-1.424-.326-1.424-1.377 0-.219.02-.43 0-.649-.039-.459.124-.716.545-.985 1.176-.725 1.749-1.824 1.738-3.212v-.651c-.019-17.025-.057-34.053-.038-51.071 0-1.54-.431-2.676-1.778-3.423-.439-.239-.582-.592-.555-1.07.029-.468.01-.946.039-1.416.037-.516.363-.783.859-.793 3.072-.074 6.13-.074 9.296-.074"/>
</svg>
