<?xml version="1.0" encoding="utf-8"?>
<!-- Generator: Adobe Illustrator 16.0.0, SVG Export Plug-In . SVG Version: 6.00 Build 0)  -->
<!DOCTYPE svg PUBLIC "-//W3C//DTD SVG 1.1//EN" "http://www.w3.org/Graphics/SVG/1.1/DTD/svg11.dtd">
<svg version="1.1" id="Layer_1" xmlns="http://www.w3.org/2000/svg" xmlns:xlink="http://www.w3.org/1999/xlink" x="0px" y="0px"
	 width="72px" height="72px" viewBox="0 0 72 72" enable-background="new 0 0 72 72" xml:space="preserve">

			<path fill="currentColor" d="M27.054,3.673c0,1.061,0.02,1.941-0.011,2.831c-0.009,0.191-0.134,0.458-0.287,0.535
				c-1.195,0.669-1.31,1.808-1.3,2.964c0.02,2.936,0.104,5.861,0.096,8.797c-0.011,1.768-0.145,3.537-0.22,5.305
				c-0.039,0.938,0.364,1.605,1.195,2.057c0.526,0.287,1.013,0.258,1.415-0.115c1.854-1.75,3.7-3.527,5.525-5.314
				c0.229-0.221,0.354-0.565,0.497-0.861c0.555-1.07,1.101-2.15,1.654-3.231c0.048-0.086,0.124-0.163,0.152-0.249
				c0.459-1.51,0.956-3.012,1.357-4.541c0.249-0.938,0.363-1.912,0.507-2.868c0.115-0.754-0.22-1.396-0.66-1.96
				c-0.162-0.201-0.516-0.239-0.755-0.411c-0.201-0.143-0.44-0.325-0.497-0.535c-0.162-0.583-0.421-1.167-0.058-1.816
				c0.21-0.373,0.421-0.497,0.822-0.497c2.142,0.009,4.293,0,6.435-0.009c0.449,0,0.899-0.039,1.357-0.077
				c1.224-0.105,1.291,0.22,1.367,1.233c0.067,0.889-0.21,1.693-1.156,2.122c-0.306,0.144-0.524,0.536-0.707,0.86
				c-0.535,0.965-0.335,2.065-0.479,3.106c-0.134,0.938-0.286,1.836-0.785,2.688c-0.304,0.525-0.19,1.281-0.4,1.883
				c-0.573,1.635-0.976,3.327-2.122,4.732c-0.508,0.631-0.842,1.415-1.186,2.16c-0.488,1.072-1.109,2.008-1.95,2.851
				c-1.224,1.214-2.294,2.571-3.528,3.776c-0.937,0.918-1.998,1.711-3.039,2.505c-1.082,0.812-2.219,1.56-3.328,2.343
				c-0.928,0.659-1.318,1.596-1.348,2.697c-0.039,1.509-0.029,3.029-0.01,4.542c0,0.323,0.096,0.658,0.182,0.973
				c0.104,0.402,0.371,0.584,0.812,0.64c0.794,0.107,1.539,0.155,2.199-0.467c0.21-0.202,0.573-0.325,0.869-0.334
				c1.444-0.049,2.629-0.765,3.806-1.473c1.577-0.947,3.27-1.778,4.684-2.937c2.639-2.149,5.068-4.54,7.019-7.36
				c0.191-0.268,0.447-0.488,0.677-0.736c0.146-0.152,0.337-0.287,0.441-0.469c1.195-2.17,2.85-4.072,3.48-6.559
				c0.325-1.262,1.023-2.43,1.406-3.682c0.555-1.768,0.754-3.613,0.745-5.468c0-1.539-0.018-3.069,0-4.609
				c0.01-0.621-0.161-1.119-0.678-1.481c-0.879-0.622-1.156-1.424-0.765-2.925c0.162-0.612,0.593-0.66,1.09-0.641
				c1.769,0.039,3.538,0.086,5.307,0.096c0.764,0,1.529-0.115,2.295-0.133c1.031-0.03,1.291,0.22,1.367,1.233
				c0.047,0.564,0.047,1.138,0.095,1.712c0.039,0.525-0.19,0.841-0.687,0.927c-0.604,0.095-0.842,0.411-0.879,1.033
				c-0.106,1.893-0.213,3.795-0.45,5.679c-0.153,1.233-0.544,2.429-0.831,3.643c-0.104,0.459-0.277,0.918-0.288,1.376
				c-0.057,2.046-0.831,3.862-1.681,5.67c-0.412,0.87-0.786,1.759-1.206,2.62c-0.181,0.383-0.439,0.736-0.66,1.109
				c-0.478,0.793-0.937,1.586-1.423,2.371c-0.612,0.975-1.225,1.959-1.865,2.906c-0.278,0.401-0.688,0.707-0.977,1.108
				c-0.287,0.411-0.458,0.908-0.745,1.319c-0.43,0.603-0.86,1.233-1.407,1.72c-2.475,2.218-4.789,4.646-7.744,6.254
				c-2.608,1.413-5.266,2.725-7.944,4.006c-0.669,0.314-1.472,0.362-2.227,0.496c-1.358,0.239-2.64,0.641-3.575,1.72
				c-0.191,0.221-0.334,0.557-0.334,0.842c-0.049,3.978-0.115,7.945-0.049,11.922c0.01,0.574,0.584,1.215,1.052,1.665
				c0.421,0.399,0.708,0.745,0.679,1.338c-0.028,0.632,0,1.252,0,1.979c-0.238,0-0.449,0-0.649,0c-2.103,0-4.216-0.009-6.32,0.01
				c-0.688,0.011-1.376,0.096-2.056,0.125c-1.052,0.039-1.424-0.326-1.424-1.377c0-0.219,0.02-0.43,0-0.649
				c-0.039-0.459,0.124-0.716,0.545-0.985c1.176-0.725,1.749-1.824,1.738-3.212c0-0.22,0-0.431,0-0.651
				c-0.019-17.025-0.057-34.053-0.038-51.071c0-1.54-0.431-2.676-1.778-3.423c-0.439-0.239-0.582-0.592-0.555-1.07
				c0.029-0.468,0.01-0.946,0.039-1.416c0.037-0.516,0.363-0.783,0.859-0.793C20.83,3.673,23.888,3.673,27.054,3.673z"/>
</svg>
