<svg xmlns="http://www.w3.org/2000/svg" xml:space="preserve" width="72px" height="72px" viewBox="0 0 72 72">
    <path fill="currentColor" d="M12.964 56.207c-1.12-.046-2.239-.069-3.351-.153-1.004-.076-2.001-.237-2.998-.329-.859-.085-1.733-.093-2.592-.191-.882-.107-1.418-.698-1.472-1.58-.031-.437-.054-.896.053-1.318.438-1.656.936-3.297 1.38-4.953.177-.651.284-1.319.36-1.986.169-1.487.299-2.982 1.066-4.324.054-.092.054-.207.077-.314.199-1.05.314-2.123.621-3.144.322-1.059.667-2.101.66-3.22 0-.253.023-.506.045-.751.069-.66.161-1.296.552-1.879.238-.345.391-.79.445-1.211.069-.522-.023-1.066-.007-1.603.015-.56-.008-1.143.145-1.671.153-.529.514-.989.751-1.495.1-.223.161-.476.177-.721.046-.851.061-1.702.1-2.553.007-.184.061-.383.161-.529.299-.445.598-.889.951-1.288.191-.214.567-.529.729-.46.245.1.375.483.544.751.031.046.031.123.023.184-.053.875-.015 1.771-.192 2.623-.153.758-.613 1.441-.813 2.192a26 26 0 0 0-.613 3.052c-.184 1.327-.192 2.683-.445 3.987-.498 2.53-1.334 4.991-1.35 7.614-.007.536-.184 1.088-.391 1.594-.438 1.066-.338 2.201-.529 3.297-.276 1.61-.713 3.19-1.02 4.801-.138.713-.161 1.457-.153 2.192.008.482.36.744.843.806.406.053.813.115 1.219.137 1.035.063 2.07.124 3.113.162.13.008.268-.107.399-.169-.062-.138-.1-.3-.199-.406-.162-.169-.36-.307-.552-.444-.575-.415-1.166-.813-1.733-1.242-.122-.093-.26-.269-.26-.399.023-1.594.054-3.182.13-4.776.015-.376.192-.751.33-1.12.123-.313.368-.604.414-.92.146-.98.299-1.97.322-2.959.031-1.757.046-3.496.568-5.199.161-.521.161-1.089.214-1.633.176-1.694.276-3.396.529-5.076.414-2.775.943-5.528.882-8.357-.016-.537.123-1.096.314-1.602.238-.637.981-.989 1.641-.82.215.054.468.298.529.506.115.383.153.813.115 1.211-.131 1.564-.307 3.136-.46 4.701-.054.567-.099 1.126-.176 1.694-.261 2.032-.591 4.056-.79 6.096-.276 2.76-.421 5.528-.69 8.288-.23 2.339-.544 4.662-.828 6.993-.092.736-.245 1.465-.284 2.193-.031.683.353 1.042.951 1.157.537.101 1.066.254 1.595.398.774.215 1.533.46 2.315.645.238.054.514-.061.882-.115-.276-.36-.452-.598-.636-.827-.437-.529-.675-1.112-.621-1.825.077-.974.092-1.956.13-2.929.054-1.403.092-2.808.154-4.21.091-1.986.222-3.965.283-5.949.054-1.81.008-3.627.038-5.437.008-.361.162-.729.269-1.082.084-.284.276-.552.284-.835.084-1.971.153-3.941.176-5.912.016-1.641-.061-3.282-.053-4.915 0-.721.03-1.45.575-2.047.1-.115.053-.453-.039-.636-.284-.591-.89-.713-1.442-.736-.237-.008-.506.353-.736.575-.176.177-.33.383-.467.599-.353.56-.836.905-1.503.92-.598.015-.974.345-1.211.844-.214.452-.575.583-1.027.613-.422.023-.851.038-1.272.107-.552.1-1.066.376-1.196.951-.307 1.303-.651 2.606-.767 3.933-.138 1.671-.337 3.32-.82 4.93-.636 2.14-1.396 4.24-1.741 6.472-.276 1.771-.683 3.527-1.073 5.275-.338 1.487-.805 2.944-1.081 4.447-.369 1.955-.836 3.872-1.519 5.743-.375 1.027-.552 2.131-.736 3.213-.061.375.023.843.214 1.165.253.429.392.843.399 1.326.016.806.215 1.035 1.028.981 1.15-.077 2.285-.237 3.435-.322a30 30 0 0 1 2.5-.068c.299 0 .606.191.905.191.629-.008 1.257-.107 1.886-.13.629-.017 1.257.007 1.878.053.368.031.736.223 1.089.207a72 72 0 0 0 3.627-.321c.253-.023.49-.146.736-.216-.008-.076-.023-.153-.031-.237-1.948-.098-3.919-.182-5.882-.275m10.827.055c-.299.029-.591.115-.89.168v.139c.207.061.406.145.613.176.981.146 1.955.299 2.937.406.353.039.721 0 1.066-.084.23-.062.421-.269.629-.414-.208-.115-.399-.284-.622-.345-1.226-.346-2.483-.185-3.733-.046m47.023-5.038c-.03-.23-.146-.567-.314-.628-.567-.23-.674-.652-.674-1.174 0-.269 0-.537-.031-.806-.146-1.418-.084-2.875-.867-4.162-.099-.162-.099-.399-.084-.599.069-.736.185-1.472.23-2.209.015-.29-.107-.597-.191-.896-.063-.215-.178-.422-.216-.645-.13-.697-.199-1.402-.359-2.085-.415-1.733-.798-3.465-.867-5.252a20 20 0 0 0-.168-1.787c-.054-.429-.177-.858-.237-1.288-.161-1.119-.262-2.254-.477-3.366-.115-.583-.49-1.112-.659-1.695-.452-1.564-.674-3.167-.735-4.799-.054-1.357-.476-1.741-1.833-1.794-.107-.008-.223-.008-.329-.008-.752-.015-.937-.184-.967-.958-.022-.476-.022-.943-.046-1.418-.022-.406-.261-.545-.598-.33-.515.33-1.051.651-1.504 1.058-.551.506-.521 1.065-.099 1.694.207.315.414.698.444 1.058.138 1.756.215 3.52.322 5.283.107 1.809.199 3.619.345 5.428.169 2.024.491 4.041.56 6.073.076 2.101.345 4.171.645 6.249.246 1.672.506 3.335.33 5.037-.115 1.104-.46 1.41-1.526 1.633-1.127.23-2.354.101-3.328.897-.061.054-.184.038-.275.038-1.289.093-2.576.184-3.872.276-.437.03-.874.068-1.318.1 0 .046-.009.093-.009.138.315.077.63.223.943.215a40 40 0 0 0 3.021-.153c1.02-.092 2.024-.314 3.044-.368 1.825-.092 3.657-.076 5.481-.146 1.174-.046 1.703-.575 1.672-1.764-.03-1.097-.153-2.2-.33-3.289-.283-1.726-.781-3.427-.927-5.16-.153-1.817-.438-3.588-.76-5.375-.307-1.671-.514-3.358-.721-5.045-.092-.705-.03-1.426-.138-2.124-.215-1.396-.498-2.783-.744-4.171a84 84 0 0 1-.521-3.313c-.084-.636.275-1.065.92-1.234.422-.115.836.123 1.088.698.17.368.307.767.369 1.166.091.575.061 1.166.16 1.741.177 1.02.437 2.032.599 3.059.184 1.181.276 2.377.444 3.565.33 2.323.767 4.639.997 6.969.16 1.649.198 3.297.56 4.922.314 1.449.636 2.891.874 4.355.184 1.165.238 2.347.36 3.527.084.844.245 1.687.269 2.53.023.882-.491 1.426-1.365 1.51a16 16 0 0 1-2.17.054c-1.372-.054-2.737-.237-4.109-.23-2.361.009-4.731.107-7.092.17-1.197.03-2.4.021-3.589.13-1.327.131-2.646.368-3.972.567a.3.3 0 0 0-.169.069c-.721.513-1.541.49-2.361.398-.161-.016-.307-.108-.506-.185.1-.106.138-.176.199-.222.567-.399 1.104-.844 1.71-1.174.468-.261 1.012-.376 1.525-.551.215-.077.438-.139.659-.216q.002-.104-.007-.206c-.323-.086-.652-.254-.959-.223a5.3 5.3 0 0 0-1.403.359c-.452.177-.851.515-1.304.652-1.096.337-1.993.981-2.913 1.626-.659.468-1.402.827-2.14 1.165-.222.1-.552-.023-.827-.046.038-.299.038-.605.122-.897.054-.184.199-.36.346-.499.467-.443.912-.92 1.433-1.295.944-.689 1.917-1.326 2.892-1.971 1.211-.805 2.522-1.311 4.002-1.411 1.304-.084 2.592-.329 3.888-.506 1.717-.237 3.427-.482 5.145-.705.875-.115 1.764-.1 2.622-.275.975-.192 1.342-.744 1.342-1.726 0-.476-.022-.943-.061-1.418-.139-1.504-.315-3.014-.431-4.517-.084-1.111-.046-2.239-.145-3.351-.169-1.963-.422-3.918-.591-5.881-.237-2.729-.123-5.482-.56-8.204-.169-1.051-.131-2.14-.207-3.205-.039-.544-.092-1.073-.499-1.533-.49-.552-.559-1.211-.307-1.91.093-.253.199-.521.192-.774-.008-.246-.1-.537-.269-.698-.077-.077-.43.046-.613.153-1.119.637-2.186 1.396-3.351 1.932-1.917.882-3.888 1.633-5.851 2.416-.291.115-.613.207-.92.207-.997.007-1.84.406-2.622.958-.605.429-1.181.897-1.732 1.388-.645.56-1.227 1.181-1.887 1.725-.858.713-1.503.606-2.154-.292-.3-.406-.568-.835-.866-1.242-.354-.475-.767-.889-1.419-.928-.077-.007-.161-.077-.23-.13-.368-.276-.72-.583-1.112-.82-.452-.276-.936-.506-1.418-.743-.429-.208-.866-.422-1.319-.568-.797-.268-1.764-.054-2.4-.805-.03-.038-.115-.038-.176-.038-1.127-.046-2.154-.46-3.144-.951-1.396-.697-2.63-1.572-3.197-3.128-.039-.1-.1-.199-.169-.284-.299-.36-.56-.353-.805.038-.298.483-.567.989-.866 1.465-.383.605-.598 1.242-.537 1.971.054.628.061 1.265.138 1.886.269 2.231.238 4.462.108 6.709-.115 1.971-.169 3.941-.23 5.904-.054 1.718-.062 3.435-.13 5.145-.016.407-.215.813-.345 1.212-.115.353-.36.69-.368 1.035-.023 1.388.031 2.775.031 4.163 0 1.418 0 2.837-.039 4.248-.031 1.02-.169 2.048-.191 3.066-.023.951.452 1.449 1.403 1.572.375.046.759.122 1.127.092 1.817-.138 3.581.245 5.336.605.613.123 1.242.276 1.787.567 1.012.537 1.963 1.181 2.944 1.779.36.214.782.36 1.073.652.544.544 1.027 1.149 1.511 1.755.398.498.283.805-.337.936-.713.146-1.373.031-1.933-.49-.713-.676-1.525-1.144-2.553-1.258.299.33.721.591.744.874.046.599.399.905.774 1.227.751.645 1.58 1.22 2.277 1.909.767.76 1.633.981 2.661.858.438-.053.92.023.974-.62.008-.054.069-.108.108-.153 1.227-1.297 2.53-2.5 4.086-3.412 2.453-1.434 5.067-2.301 7.936-2.301 4.7 0 9.408-.007 14.107.008.676 0 1.35.122 2.024.153.89.038 1.787.084 2.677.031.536-.031 1.065-.262 1.603-.369.904-.176 1.356-.659 1.402-1.571.025-.317.056-.699.009-1.075m-33.821 3.135c-.021.23-.068.3-.198.491-.276.406-.169.82-.445 1.227-.068.1-.214.1-.238-.046-.138-.897-.353-1.817-.406-2.73-.038-.628.008-1.279.008-1.916l.046-7.637c.008-1.648-.046-3.313.031-4.961.077-1.725.307-3.458.468-5.175.168-1.84.33-3.688.498-5.529-.007-.054.008-.115.069-.145.269-.131.514-.322.774-.453.275-.131.989-1.173 1.272-1.242.43-.092.146 1.166.561 1.296.053.015.091.092.091.153l-.252 6.019c-.062 1.396-.115 2.783-.177 4.178-.031.721.038 1.564-.092 2.271-.047.23-.177.451-.261.659-.254.59 0 1.181-.254 1.771-.13.3-.429.897-.475 1.098.022-.093 0 .099 0 .13l-.023.368c-.153 2.476-.299 4.945-.452 7.421-.054.936-.452 1.856-.545 2.752"/>
</svg>
