<?xml version="1.0" encoding="utf-8"?>
<!-- Generator: Adobe Illustrator 16.0.0, SVG Export Plug-In . SVG Version: 6.00 Build 0)  -->
<!DOCTYPE svg PUBLIC "-//W3C//DTD SVG 1.1//EN" "http://www.w3.org/Graphics/SVG/1.1/DTD/svg11.dtd">
<svg version="1.1" id="Layer_1" xmlns="http://www.w3.org/2000/svg" xmlns:xlink="http://www.w3.org/1999/xlink" x="0px" y="0px"
	 width="72px" height="72px" viewBox="0 0 72 72" enable-background="new 0 0 72 72" xml:space="preserve">
<g id="Fellowship">
</g>
<g id="Baggins">
</g>
<g id="Lore">
	<g>
		<path fill="currentColor" d="M12.964,56.207c-1.12-0.046-2.239-0.069-3.351-0.153c-1.004-0.076-2.001-0.237-2.998-0.329
			c-0.859-0.085-1.733-0.093-2.592-0.191c-0.882-0.107-1.418-0.698-1.472-1.58c-0.031-0.437-0.054-0.896,0.053-1.318
			c0.438-1.656,0.936-3.297,1.38-4.953c0.177-0.651,0.284-1.319,0.36-1.986c0.169-1.487,0.299-2.982,1.066-4.324
			c0.054-0.092,0.054-0.207,0.077-0.314c0.199-1.05,0.314-2.123,0.621-3.144c0.322-1.059,0.667-2.101,0.66-3.22
			c0-0.253,0.023-0.506,0.045-0.751c0.069-0.66,0.161-1.296,0.552-1.879c0.238-0.345,0.391-0.79,0.445-1.211
			c0.069-0.522-0.023-1.066-0.007-1.603c0.015-0.56-0.008-1.143,0.145-1.671c0.153-0.529,0.514-0.989,0.751-1.495
			c0.1-0.223,0.161-0.476,0.177-0.721c0.046-0.851,0.061-1.702,0.1-2.553c0.007-0.184,0.061-0.383,0.161-0.529
			c0.299-0.445,0.598-0.889,0.951-1.288c0.191-0.214,0.567-0.529,0.729-0.46c0.245,0.1,0.375,0.483,0.544,0.751
			c0.031,0.046,0.031,0.123,0.023,0.184c-0.053,0.875-0.015,1.771-0.192,2.623c-0.153,0.758-0.613,1.441-0.813,2.192
			c-0.268,1.005-0.467,2.024-0.613,3.052c-0.184,1.327-0.192,2.683-0.445,3.987c-0.498,2.53-1.334,4.991-1.35,7.614
			c-0.007,0.536-0.184,1.088-0.391,1.594c-0.438,1.066-0.338,2.201-0.529,3.297c-0.276,1.61-0.713,3.19-1.02,4.801
			c-0.138,0.713-0.161,1.457-0.153,2.192c0.008,0.482,0.36,0.744,0.843,0.806c0.406,0.053,0.813,0.115,1.219,0.137
			c1.035,0.063,2.07,0.124,3.113,0.162c0.13,0.008,0.268-0.107,0.399-0.169c-0.062-0.138-0.1-0.3-0.199-0.406
			c-0.162-0.169-0.36-0.307-0.552-0.444c-0.575-0.415-1.166-0.813-1.733-1.242c-0.122-0.093-0.26-0.269-0.26-0.399
			c0.023-1.594,0.054-3.182,0.13-4.776c0.015-0.376,0.192-0.751,0.33-1.12c0.123-0.313,0.368-0.604,0.414-0.92
			c0.146-0.98,0.299-1.97,0.322-2.959c0.031-1.757,0.046-3.496,0.568-5.199c0.161-0.521,0.161-1.089,0.214-1.633
			c0.176-1.694,0.276-3.396,0.529-5.076c0.414-2.775,0.943-5.528,0.882-8.357c-0.016-0.537,0.123-1.096,0.314-1.602
			c0.238-0.637,0.981-0.989,1.641-0.82c0.215,0.054,0.468,0.298,0.529,0.506c0.115,0.383,0.153,0.813,0.115,1.211
			c-0.131,1.564-0.307,3.136-0.46,4.701c-0.054,0.567-0.099,1.126-0.176,1.694c-0.261,2.032-0.591,4.056-0.79,6.096
			c-0.276,2.76-0.421,5.528-0.69,8.288c-0.23,2.339-0.544,4.662-0.828,6.993c-0.092,0.736-0.245,1.465-0.284,2.193
			c-0.031,0.683,0.353,1.042,0.951,1.157c0.537,0.101,1.066,0.254,1.595,0.398c0.774,0.215,1.533,0.46,2.315,0.645
			c0.238,0.054,0.514-0.061,0.882-0.115c-0.276-0.36-0.452-0.598-0.636-0.827c-0.437-0.529-0.675-1.112-0.621-1.825
			c0.077-0.974,0.092-1.956,0.13-2.929c0.054-1.403,0.092-2.808,0.154-4.21c0.091-1.986,0.222-3.965,0.283-5.949
			c0.054-1.81,0.008-3.627,0.038-5.437c0.008-0.361,0.162-0.729,0.269-1.082c0.084-0.284,0.276-0.552,0.284-0.835
			c0.084-1.971,0.153-3.941,0.176-5.912c0.016-1.641-0.061-3.282-0.053-4.915c0-0.721,0.03-1.45,0.575-2.047
			c0.1-0.115,0.053-0.453-0.039-0.636c-0.284-0.591-0.89-0.713-1.442-0.736c-0.237-0.008-0.506,0.353-0.736,0.575
			c-0.176,0.177-0.33,0.383-0.467,0.599c-0.353,0.56-0.836,0.905-1.503,0.92c-0.598,0.015-0.974,0.345-1.211,0.844
			c-0.214,0.452-0.575,0.583-1.027,0.613c-0.422,0.023-0.851,0.038-1.272,0.107c-0.552,0.1-1.066,0.376-1.196,0.951
			c-0.307,1.303-0.651,2.606-0.767,3.933c-0.138,1.671-0.337,3.32-0.82,4.93c-0.636,2.14-1.396,4.24-1.741,6.472
			c-0.276,1.771-0.683,3.527-1.073,5.275c-0.338,1.487-0.805,2.944-1.081,4.447c-0.369,1.955-0.836,3.872-1.519,5.743
			c-0.375,1.027-0.552,2.131-0.736,3.213c-0.061,0.375,0.023,0.843,0.214,1.165c0.253,0.429,0.392,0.843,0.399,1.326
			c0.016,0.806,0.215,1.035,1.028,0.981c1.15-0.077,2.285-0.237,3.435-0.322c0.828-0.062,1.664-0.076,2.5-0.068
			c0.299,0,0.606,0.191,0.905,0.191c0.629-0.008,1.257-0.107,1.886-0.13c0.629-0.017,1.257,0.007,1.878,0.053
			c0.368,0.031,0.736,0.223,1.089,0.207c1.211-0.068,2.416-0.191,3.627-0.321c0.253-0.023,0.49-0.146,0.736-0.216
			c-0.008-0.076-0.023-0.153-0.031-0.237C16.898,56.384,14.927,56.3,12.964,56.207z"/>
		<path fill="currentColor" d="M23.791,56.262c-0.299,0.029-0.591,0.115-0.89,0.168c0,0.046,0,0.092,0,0.139
			c0.207,0.061,0.406,0.145,0.613,0.176c0.981,0.146,1.955,0.299,2.937,0.406c0.353,0.039,0.721,0,1.066-0.084
			c0.23-0.062,0.421-0.269,0.629-0.414c-0.208-0.115-0.399-0.284-0.622-0.345C26.298,55.962,25.041,56.123,23.791,56.262z"/>
		<path fill="currentColor" d="M70.814,51.224c-0.03-0.23-0.146-0.567-0.314-0.628c-0.567-0.23-0.674-0.652-0.674-1.174
			c0-0.269,0-0.537-0.031-0.806c-0.146-1.418-0.084-2.875-0.867-4.162c-0.099-0.162-0.099-0.399-0.084-0.599
			c0.069-0.736,0.185-1.472,0.23-2.209c0.015-0.29-0.107-0.597-0.191-0.896c-0.063-0.215-0.178-0.422-0.216-0.645
			c-0.13-0.697-0.199-1.402-0.359-2.085c-0.415-1.733-0.798-3.465-0.867-5.252c-0.022-0.598-0.092-1.188-0.168-1.787
			c-0.054-0.429-0.177-0.858-0.237-1.288c-0.161-1.119-0.262-2.254-0.477-3.366c-0.115-0.583-0.49-1.112-0.659-1.695
			c-0.452-1.564-0.674-3.167-0.735-4.799c-0.054-1.357-0.476-1.741-1.833-1.794c-0.107-0.008-0.223-0.008-0.329-0.008
			c-0.752-0.015-0.937-0.184-0.967-0.958c-0.022-0.476-0.022-0.943-0.046-1.418c-0.022-0.406-0.261-0.545-0.598-0.33
			c-0.515,0.33-1.051,0.651-1.504,1.058c-0.551,0.506-0.521,1.065-0.099,1.694c0.207,0.315,0.414,0.698,0.444,1.058
			c0.138,1.756,0.215,3.52,0.322,5.283c0.107,1.809,0.199,3.619,0.345,5.428c0.169,2.024,0.491,4.041,0.56,6.073
			c0.076,2.101,0.345,4.171,0.645,6.249c0.246,1.672,0.506,3.335,0.33,5.037c-0.115,1.104-0.46,1.41-1.526,1.633
			c-1.127,0.23-2.354,0.101-3.328,0.897c-0.061,0.054-0.184,0.038-0.275,0.038c-1.289,0.093-2.576,0.184-3.872,0.276
			c-0.437,0.03-0.874,0.068-1.318,0.1c0,0.046-0.009,0.093-0.009,0.138c0.315,0.077,0.63,0.223,0.943,0.215
			c1.005-0.016,2.018-0.061,3.021-0.153c1.02-0.092,2.024-0.314,3.044-0.368c1.825-0.092,3.657-0.076,5.481-0.146
			c1.174-0.046,1.703-0.575,1.672-1.764c-0.03-1.097-0.153-2.2-0.33-3.289c-0.283-1.726-0.781-3.427-0.927-5.16
			c-0.153-1.817-0.438-3.588-0.76-5.375c-0.307-1.671-0.514-3.358-0.721-5.045c-0.092-0.705-0.03-1.426-0.138-2.124
			c-0.215-1.396-0.498-2.783-0.744-4.171c-0.191-1.104-0.375-2.208-0.521-3.313c-0.084-0.636,0.275-1.065,0.92-1.234
			c0.422-0.115,0.836,0.123,1.088,0.698c0.17,0.368,0.307,0.767,0.369,1.166c0.091,0.575,0.061,1.166,0.16,1.741
			c0.177,1.02,0.437,2.032,0.599,3.059c0.184,1.181,0.276,2.377,0.444,3.565c0.33,2.323,0.767,4.639,0.997,6.969
			c0.16,1.649,0.198,3.297,0.56,4.922c0.314,1.449,0.636,2.891,0.874,4.355c0.184,1.165,0.238,2.347,0.36,3.527
			c0.084,0.844,0.245,1.687,0.269,2.53c0.023,0.882-0.491,1.426-1.365,1.51c-0.72,0.069-1.448,0.084-2.17,0.054
			c-1.372-0.054-2.737-0.237-4.109-0.23c-2.361,0.009-4.731,0.107-7.092,0.17c-1.197,0.03-2.4,0.021-3.589,0.13
			c-1.327,0.131-2.646,0.368-3.972,0.567c-0.062,0.007-0.123,0.03-0.169,0.069c-0.721,0.513-1.541,0.49-2.361,0.398
			c-0.161-0.016-0.307-0.108-0.506-0.185c0.1-0.106,0.138-0.176,0.199-0.222c0.567-0.399,1.104-0.844,1.71-1.174
			c0.468-0.261,1.012-0.376,1.525-0.551c0.215-0.077,0.438-0.139,0.659-0.216c0-0.069,0-0.138-0.007-0.206
			c-0.323-0.086-0.652-0.254-0.959-0.223c-0.476,0.046-0.958,0.184-1.403,0.359c-0.452,0.177-0.851,0.515-1.304,0.652
			c-1.096,0.337-1.993,0.981-2.913,1.626c-0.659,0.468-1.402,0.827-2.14,1.165c-0.222,0.1-0.552-0.023-0.827-0.046
			c0.038-0.299,0.038-0.605,0.122-0.897c0.054-0.184,0.199-0.36,0.346-0.499c0.467-0.443,0.912-0.92,1.433-1.295
			c0.944-0.689,1.917-1.326,2.892-1.971c1.211-0.805,2.522-1.311,4.002-1.411c1.304-0.084,2.592-0.329,3.888-0.506
			c1.717-0.237,3.427-0.482,5.145-0.705c0.875-0.115,1.764-0.1,2.622-0.275c0.975-0.192,1.342-0.744,1.342-1.726
			c0-0.476-0.022-0.943-0.061-1.418c-0.139-1.504-0.315-3.014-0.431-4.517c-0.084-1.111-0.046-2.239-0.145-3.351
			c-0.169-1.963-0.422-3.918-0.591-5.881c-0.237-2.729-0.123-5.482-0.56-8.204c-0.169-1.051-0.131-2.14-0.207-3.205
			c-0.039-0.544-0.092-1.073-0.499-1.533c-0.49-0.552-0.559-1.211-0.307-1.91c0.093-0.253,0.199-0.521,0.192-0.774
			c-0.008-0.246-0.1-0.537-0.269-0.698c-0.077-0.077-0.43,0.046-0.613,0.153c-1.119,0.637-2.186,1.396-3.351,1.932
			c-1.917,0.882-3.888,1.633-5.851,2.416c-0.291,0.115-0.613,0.207-0.92,0.207c-0.997,0.007-1.84,0.406-2.622,0.958
			c-0.605,0.429-1.181,0.897-1.732,1.388c-0.645,0.56-1.227,1.181-1.887,1.725c-0.858,0.713-1.503,0.606-2.154-0.292
			c-0.3-0.406-0.568-0.835-0.866-1.242c-0.354-0.475-0.767-0.889-1.419-0.928c-0.077-0.007-0.161-0.077-0.23-0.13
			c-0.368-0.276-0.72-0.583-1.112-0.82c-0.452-0.276-0.936-0.506-1.418-0.743c-0.429-0.208-0.866-0.422-1.319-0.568
			c-0.797-0.268-1.764-0.054-2.4-0.805c-0.03-0.038-0.115-0.038-0.176-0.038c-1.127-0.046-2.154-0.46-3.144-0.951
			c-1.396-0.697-2.63-1.572-3.197-3.128c-0.039-0.1-0.1-0.199-0.169-0.284c-0.299-0.36-0.56-0.353-0.805,0.038
			c-0.298,0.483-0.567,0.989-0.866,1.465c-0.383,0.605-0.598,1.242-0.537,1.971c0.054,0.628,0.061,1.265,0.138,1.886
			c0.269,2.231,0.238,4.462,0.108,6.709c-0.115,1.971-0.169,3.941-0.23,5.904c-0.054,1.718-0.062,3.435-0.13,5.145
			c-0.016,0.407-0.215,0.813-0.345,1.212c-0.115,0.353-0.36,0.69-0.368,1.035c-0.023,1.388,0.031,2.775,0.031,4.163
			c0,1.418,0,2.837-0.039,4.248c-0.031,1.02-0.169,2.048-0.191,3.066c-0.023,0.951,0.452,1.449,1.403,1.572
			c0.375,0.046,0.759,0.122,1.127,0.092c1.817-0.138,3.581,0.245,5.336,0.605c0.613,0.123,1.242,0.276,1.787,0.567
			c1.012,0.537,1.963,1.181,2.944,1.779c0.36,0.214,0.782,0.36,1.073,0.652c0.544,0.544,1.027,1.149,1.511,1.755
			c0.398,0.498,0.283,0.805-0.337,0.936c-0.713,0.146-1.373,0.031-1.933-0.49c-0.713-0.676-1.525-1.144-2.553-1.258
			c0.299,0.33,0.721,0.591,0.744,0.874c0.046,0.599,0.399,0.905,0.774,1.227c0.751,0.645,1.58,1.22,2.277,1.909
			c0.767,0.76,1.633,0.981,2.661,0.858c0.438-0.053,0.92,0.023,0.974-0.62c0.008-0.054,0.069-0.108,0.108-0.153
			c1.227-1.297,2.53-2.5,4.086-3.412c2.453-1.434,5.067-2.301,7.936-2.301c4.7,0,9.408-0.007,14.107,0.008
			c0.676,0,1.35,0.122,2.024,0.153c0.89,0.038,1.787,0.084,2.677,0.031c0.536-0.031,1.065-0.262,1.603-0.369
			c0.904-0.176,1.356-0.659,1.402-1.571C70.83,51.982,70.861,51.6,70.814,51.224z M36.993,54.359c-0.021,0.23-0.068,0.3-0.198,0.491
			c-0.276,0.406-0.169,0.82-0.445,1.227c-0.068,0.1-0.214,0.1-0.238-0.046c-0.138-0.897-0.353-1.817-0.406-2.73
			c-0.038-0.628,0.008-1.279,0.008-1.916c0.015-2.546,0.031-5.091,0.046-7.637c0.008-1.648-0.046-3.313,0.031-4.961
			c0.077-1.725,0.307-3.458,0.468-5.175c0.168-1.84,0.33-3.688,0.498-5.529c-0.007-0.054,0.008-0.115,0.069-0.145
			c0.269-0.131,0.514-0.322,0.774-0.453c0.275-0.131,0.989-1.173,1.272-1.242c0.43-0.092,0.146,1.166,0.561,1.296
			c0.053,0.015,0.091,0.092,0.091,0.153c-0.084,2.009-0.168,4.01-0.252,6.019c-0.062,1.396-0.115,2.783-0.177,4.178
			c-0.031,0.721,0.038,1.564-0.092,2.271c-0.047,0.23-0.177,0.451-0.261,0.659c-0.254,0.59,0,1.181-0.254,1.771
			c-0.13,0.3-0.429,0.897-0.475,1.098c0.022-0.093,0,0.099,0,0.13c-0.007,0.122-0.016,0.245-0.023,0.368
			c-0.153,2.476-0.299,4.945-0.452,7.421C37.484,52.543,37.086,53.463,36.993,54.359z"/>
	</g>
</g>
<g id="Leadership">
</g>
<g id="Tactics">
</g>
<g id="Spirit">
</g>
</svg>
