<svg xmlns="http://www.w3.org/2000/svg" xml:space="preserve" width="72px" height="72px" viewBox="0 0 72 72">
    <g fill="currentColor">
        <path d="M40.419 1.92c-.262.047-.821.178-1.25.286-.63.178-.856.19-1.272.07-1.192-.309-2.06-.118-2.406.549-.094.178-.13 2.368-.13 7.391 0 7.797 0 7.785.69 8.512.714.76 1.964 1.118 3.13.916 1.25-.215 1.893-.369 1.893-.488 0-.048-.25-.202-.548-.334-.856-.38-2.13-1.285-2.654-1.868-.56-.644-.964-1.453-.964-1.953 0-.487.381-1.202.845-1.594.452-.382 2-1.179 3.071-1.584 1.393-.524 1.404-.535 1.488-1.31.286-2.665.19-6.474-.19-7.796-.215-.75-.715-.976-1.703-.797m5.929.833c-.715.345-1.822 1.416-1.822 1.762 0 .071-.048.226-.107.345-.333.667-.464 1.095-.62 2.166a63 63 0 0 1-.225 1.43 21 21 0 0 0-.203 1.462c-.083 1.072.06 1.239.596.655.285-.309.606-.5 1.202-.678.44-.13.952-.333 1.12-.429.284-.154 1.559-.737 2.64-1.214.227-.095.537-.238.692-.31.154-.07.559-.13.916-.13.571-.012.69.036 1.06.405.452.428.833 1.13 1.607 2.94.524 1.261 1.428 2.892 1.595 2.892.106 0 .06-.452-.227-1.868-.344-1.727-1.952-5.464-3.142-7.297-1.512-2.322-3.214-3.048-5.082-2.131m-15.308.012c-.179.06-.63.298-1.012.524-.797.488-1.191.595-2.464.714-1.619.13-1.988.488-2 1.94-.012.94.036 1.155.75 2.928.607 1.488.82 2.453 1.07 4.738.228 2.047.442 3.166.74 3.868.713 1.643 1.964 2.155 3.797 1.56 2.154-.702 2.535-1.286 2.51-3.797-.01-1.06-.094-1.822-.546-4.821-.12-.714-.19-2.036-.19-3.286 0-2.582-.108-3.237-.631-3.773-.68-.714-1.25-.88-2.025-.595m-9.772 3.654c-.38.321-.869.655-1.071.727-1.476.559-1.667.773-1.655 1.904 0 .916.25 1.512 1.214 2.916 1.036 1.524 1.381 2.333 1.607 3.75.512 3.19.928 4.13 2.035 4.595.524.213 1.977.213 2.68 0 1.498-.465 1.57-.596 1.142-2.298-.429-1.69-.643-2.345-.976-3.107-.155-.345-.286-.702-.286-.797 0-.084-.048-.19-.107-.226s-.131-.215-.167-.393c-.024-.19-.131-.631-.226-.988-.107-.358-.25-1.143-.333-1.726-.226-1.56-.417-2.226-.917-3.238-.607-1.214-1.107-1.702-1.75-1.702-.428 0-.606.095-1.19.583"/>
        <path d="M50.108 8.264c-.237.084-.677.322-.988.524-.31.214-.583.381-.606.381s-.274.155-.56.333c-.285.19-.917.464-1.404.607-1.083.322-2.464.881-3 1.202-.214.132-.512.238-.667.238-.262 0-1.238.429-4.047 1.739-1.202.57-1.452.868-1.452 1.761 0 .535.88 1.738 1.583 2.143 1.393.821 3.785 1.155 6.035.857 1.893-.262 4.452-1.535 5.643-2.798.356-.369.666-.487.666-.238 0 .393-.44 1.56-.786 2.095-.761 1.155-1.786 1.869-3.535 2.488-.476.167-.964.345-1.095.405-.13.071-.56.202-.953.31s-.868.225-1.07.285c-.715.19-3.334 1.107-3.929 1.369-.19.083-.595.25-.892.369-.286.119-.893.416-1.358.666-.452.25-.833.452-.857.452-.154 0-2.249 1.44-2.832 1.953-1.679 1.44-3.12 3.345-3.702 4.856-.12.322-.262.572-.31.572-.13 0-.13-.274 0-.62.06-.154.167-.487.239-.749.773-2.56 3.475-6.416 4.927-7.023.452-.19.833-.678.774-.988-.047-.274-.714-.357-3.75-.452-3.166-.108-3.357-.06-5.154 1.19-.226.166-.511.297-.619.297-.107.013-.238.06-.273.131-.036.06-.5.12-1.024.12-1.571 0-2.5-.584-3.214-2a20 20 0 0 0-.571-1.024c-.286-.429-1.072-2.857-1.084-3.333 0-.214-.178-.833-.964-3.285-.369-1.143-1.012-2.453-1.357-2.738-.143-.119-.297-.071-.928.333-1.072.715-2.024 1.679-2.416 2.488-.31.63-.346.798-.334 1.88.024 1.381.393 2.786 1.381 5.214 1.404 3.5 1.714 4.917 1.393 6.524-.167.833-.155 5.392.011 6.475.31 1.988.608 3.059 1.144 4.12.57 1.142 1.392 1.82 2.737 2.27 1.5.49 4.13.323 5.143-.331.44-.285.44-.108 0 .226-.382.297-1.19.655-2.179.975-.762.238-3.166.453-3.559.31-.179-.072-.607-.13-.952-.13-.727 0-.929.154-1.143.904-.167.56-.095 3.703.12 5.404.059.559.166 1.416.237 1.905.535 4.166.429 7.416-.476 14.164-.131.964-.31 2.382-.476 3.81-.203 1.643-.357 2.797-.429 3.12l-.071.331h15.902c8.75 0 15.903-.035 15.903-.094 0-.048-.297-.619-.666-1.275a38 38 0 0 1-1.167-2.273 32 32 0 0 0-.964-1.844c-.964-1.645-2.166-5.25-3.095-9.274-.31-1.345-.321-1.427-.262-4.462.047-2.55.107-3.3.31-4.227.143-.62.298-1.37.37-1.666.059-.299.166-.738.237-.988a25 25 0 0 1 .82-2.643c.049-.13.262-.607.477-1.047.227-.441.37-.834.333-.869-.035-.037-.344.094-.69.297-.666.37-1.262.584-2.356.846-.81.19-4.262.19-5.214 0-1.583-.323-2.083-.453-2.833-.776a66 66 0 0 0-.822-.344c-.678-.285-1.868-1.166-2.357-1.761-.976-1.203-2.226-3.238-2.083-3.38.036-.036.274.273.536.69 1.631 2.582 5.583 4.617 8.951 4.617 2.583 0 5.952-1.177 8.857-3.07.892-.596 1.344-1.119 2.523-2.916 1.547-2.357 2.166-2.976 3.44-3.417 1.345-.475 2.536-1.166 3.082-1.809 1.132-1.321 1.667-3.702 1.251-5.547-.31-1.405-.37-1.642-.464-1.869-.048-.13-.167-.428-.25-.655-.262-.714-.81-1.892-1.833-3.927-1.036-2.083-1.714-3.607-2.024-4.583a11 11 0 0 0-.298-.833c-.06-.131-.214-.62-.344-1.072-.358-1.226-1.072-2.107-1.715-2.083a5 5 0 0 0-.572.167"/>
    </g>
</svg>
