<?xml version="1.0" encoding="utf-8"?>
<!-- Generator: Adobe Illustrator 16.0.0, SVG Export Plug-In . SVG Version: 6.00 Build 0)  -->
<!DOCTYPE svg PUBLIC "-//W3C//DTD SVG 1.1//EN" "http://www.w3.org/Graphics/SVG/1.1/DTD/svg11.dtd">
<svg version="1.1" id="Layer_1" xmlns="http://www.w3.org/2000/svg" xmlns:xlink="http://www.w3.org/1999/xlink" x="0px" y="0px"
	 width="72px" height="72px" viewBox="0 0 72 72" enable-background="new 0 0 72 72" xml:space="preserve">
<g id="Fellowship">
</g>
<g id="Baggins">
</g>
<g id="Lore">
</g>
<g id="Leadership">
</g>
<g id="Tactics">
</g>
<g transform="translate(0.000000,620.000000) scale(0.100000,-0.100000)">
	<path fill="currentColor" d="M404.189,6180.8c-2.617-0.474-8.213-1.782-12.49-2.856c-6.309-1.782-8.574-1.904-12.734-0.713
		c-11.914,3.096-20.596,1.191-24.053-5.479c-0.947-1.782-1.309-23.687-1.309-73.916c0-77.969,0-77.847,6.904-85.112
		c7.139-7.612,19.639-11.187,31.309-9.165c12.5,2.148,18.926,3.691,18.926,4.883c0,0.479-2.5,2.021-5.479,3.335
		c-8.564,3.809-21.309,12.856-26.543,18.687c-5.596,6.431-9.639,14.521-9.639,19.521c0,4.878,3.809,12.021,8.447,15.947
		c4.521,3.813,20,11.787,30.713,15.835c13.926,5.239,14.043,5.356,14.883,13.096c2.852,26.66,1.895,64.751-1.904,77.964
		C419.072,6180.327,414.072,6182.587,404.189,6180.8z"/>
	<path fill="currentColor" d="M463.477,6172.47c-7.148-3.452-18.213-14.165-18.213-17.617c0-0.713-0.479-2.266-1.074-3.452
		c-3.33-6.67-4.639-10.952-6.191-21.665c-0.596-4.282-1.66-10.713-2.256-14.287c-0.713-3.564-1.553-10.229-2.031-14.634
		c-0.83-10.718,0.596-12.383,5.957-6.548c2.852,3.091,6.064,4.995,12.021,6.782c4.404,1.309,9.521,3.33,11.191,4.287
		c2.852,1.543,15.596,7.378,26.416,12.139c2.266,0.952,5.361,2.383,6.914,3.096c1.543,0.713,5.586,1.309,9.16,1.309
		c5.713,0.117,6.904-0.356,10.596-4.048c4.521-4.287,8.33-11.304,16.074-29.399c5.234-12.617,14.277-28.926,15.947-28.926
		c1.064,0,0.596,4.521-2.266,18.687c-3.447,17.266-19.521,54.639-31.426,72.969C499.18,6174.375,482.158,6181.635,463.477,6172.47z"
		/>
	<path fill="currentColor" d="M310.391,6172.348c-1.777-0.596-6.299-2.974-10.107-5.234c-7.979-4.883-11.914-5.952-24.648-7.144
		c-16.182-1.309-19.873-4.883-19.99-19.399c-0.127-9.409,0.352-11.548,7.5-29.282c6.064-14.883,8.203-24.526,10.703-47.378
		c2.266-20.474,4.414-31.665,7.383-38.682c7.139-16.431,19.648-21.548,37.979-15.596c21.543,7.021,25.352,12.852,25.107,37.969
		c-0.117,10.596-0.947,18.213-5.469,48.208c-1.191,7.144-1.904,20.356-1.904,32.856c0,25.825-1.074,32.373-6.309,37.734
		C323.848,6173.54,318.135,6175.209,310.391,6172.348z"/>
	<path fill="currentColor" d="M212.671,6135.81c-3.809-3.213-8.691-6.548-10.713-7.266c-14.761-5.591-16.665-7.734-16.543-19.043
		c0-9.165,2.495-15.117,12.134-29.165c10.356-15.234,13.813-23.33,16.074-37.495c5.117-31.899,9.282-41.304,20.352-45.947
		c5.239-2.139,19.766-2.139,26.787,0c14.99,4.644,15.713,5.952,11.426,22.974c-4.287,16.904-6.426,23.447-9.756,31.069
		c-1.553,3.452-2.861,7.021-2.861,7.974c0,0.835-0.479,1.904-1.074,2.261s-1.309,2.144-1.665,3.931
		c-0.239,1.904-1.313,6.309-2.261,9.878c-1.074,3.574-2.5,11.431-3.335,17.261c-2.261,15.596-4.165,22.261-9.165,32.378
		c-6.069,12.139-11.069,17.021-17.495,17.021C220.288,6141.64,218.506,6140.688,212.671,6135.81z"/>
	<path fill="currentColor" d="M501.084,6117.358c-2.373-0.835-6.777-3.218-9.883-5.239c-3.096-2.144-5.83-3.809-6.064-3.809
		c-0.234,0-2.734-1.548-5.596-3.335c-2.852-1.904-9.17-4.639-14.043-6.069c-10.83-3.213-24.639-8.809-30-12.021
		c-2.139-1.313-5.117-2.378-6.67-2.378c-2.617,0-12.373-4.287-40.469-17.383c-12.021-5.713-14.521-8.687-14.521-17.617
		c0-5.352,8.809-17.378,15.83-21.426c13.936-8.213,37.852-11.548,60.352-8.569c18.926,2.622,44.521,15.352,56.426,27.974
		c3.564,3.691,6.66,4.878,6.66,2.383c0-3.931-4.404-15.596-7.852-20.952c-7.617-11.543-17.861-18.687-35.352-24.878
		c-4.766-1.665-9.639-3.452-10.947-4.048c-1.309-0.713-5.605-2.021-9.531-3.096s-8.682-2.256-10.713-2.852
		c-7.139-1.909-33.33-11.074-39.277-13.691c-1.904-0.835-5.957-2.5-8.926-3.691c-2.861-1.191-8.926-4.165-13.574-6.665
		c-4.521-2.5-8.33-4.521-8.574-4.521c-1.543,0-22.49-14.404-28.32-19.521c-16.787-14.404-31.191-33.452-37.021-48.569
		c-1.191-3.213-2.617-5.713-3.096-5.713c-1.309,0-1.309,2.739,0,6.191c0.596,1.548,1.67,4.878,2.383,7.495
		c7.734,25.596,34.756,64.16,49.277,70.229c4.521,1.904,8.33,6.787,7.734,9.883c-0.469,2.739-7.139,3.569-37.49,4.521
		c-31.67,1.074-33.574,0.596-51.543-11.904c-2.266-1.66-5.117-2.969-6.191-2.969c-1.074-0.127-2.383-0.596-2.734-1.313
		c-0.361-0.596-5-1.191-10.239-1.191c-15.713,0-25,5.835-32.139,20c-1.548,3.091-4.165,7.617-5.713,10.234
		c-2.856,4.287-10.713,28.569-10.835,33.33c0,2.144-1.782,8.33-9.639,32.852c-3.691,11.431-10.122,24.526-13.574,27.378
		c-1.426,1.191-2.969,0.713-9.282-3.33c-10.713-7.144-20.234-16.787-24.16-24.878c-3.096-6.309-3.457-7.979-3.335-18.809
		c0.239-13.804,3.931-27.852,13.809-52.134c14.043-35,17.139-49.165,13.926-65.234c-1.665-8.33-1.548-53.921,0.117-64.751
		c3.096-19.883,6.074-30.591,11.431-41.196c5.713-11.426,13.921-18.203,27.373-22.715c15-4.883,41.309-3.223,51.431,3.32
		c4.395,2.852,4.395,1.074,0-2.266c-3.818-2.969-11.909-6.543-21.787-9.746c-7.622-2.383-31.665-4.531-35.591-3.105
		c-1.787,0.723-6.069,1.309-9.526,1.309c-7.261,0-9.282-1.543-11.426-9.043c-1.665-5.605-0.952-37.031,1.191-54.043
		c0.596-5.586,1.665-14.16,2.378-19.043c5.356-41.66,4.287-74.16-4.761-141.641c-1.309-9.648-3.096-23.828-4.756-38.105
		c-2.031-16.426-3.574-27.969-4.287-31.191l-0.718-3.32h159.028c87.49,0,159.023,0.352,159.023,0.938
		c0,0.488-2.969,6.191-6.66,12.754c-3.691,6.543-8.926,16.777-11.67,22.734c-2.852,5.938-7.139,14.16-9.639,18.438
		c-9.639,16.445-21.66,52.5-30.947,92.734c-3.096,13.457-3.213,14.277-2.617,44.629c0.469,25.488,1.064,32.988,3.096,42.266
		c1.426,6.191,2.979,13.691,3.691,16.66c0.596,2.988,1.67,7.383,2.383,9.883c0.596,2.383,1.66,6.191,2.256,8.34
		c1.074,4.043,4.404,14.16,5.947,18.086c0.479,1.309,2.617,6.074,4.766,10.469c2.266,4.414,3.691,8.34,3.33,8.691
		c-0.352,0.371-3.447-0.938-6.904-2.969c-6.66-3.691-12.617-5.84-23.564-8.457c-8.096-1.895-42.617-1.895-52.139,0
		c-15.83,3.223-20.83,4.531-28.33,7.754c-1.904,0.82-5.596,2.363-8.213,3.438c-6.787,2.852-18.682,11.66-23.574,17.617
		c-9.756,12.031-22.256,32.378-20.83,33.804c0.361,0.356,2.744-2.734,5.361-6.904c16.309-25.825,55.83-46.177,89.512-46.177
		c25.83,0,59.521,11.777,88.564,30.703c8.926,5.957,13.447,11.191,25.234,29.165c15.469,23.569,21.66,29.756,34.404,34.165
		c13.447,4.756,25.352,11.665,30.82,18.091c11.318,13.213,16.67,37.021,12.51,55.469c-3.105,14.048-3.701,16.426-4.648,18.691
		c-0.479,1.309-1.67,4.282-2.5,6.548c-2.617,7.139-8.096,18.926-18.33,39.277c-10.352,20.83-17.139,36.069-20.234,45.83
		c-1.074,3.33-2.383,7.017-2.979,8.33c-0.596,1.309-2.139,6.191-3.447,10.713c-3.574,12.261-10.713,21.069-17.148,20.83
		C505.967,6118.906,503.467,6118.193,501.084,6117.358z"/>
</g>
</svg>
