<?xml version="1.0" encoding="utf-8"?>
<!-- Generator: Adobe Illustrator 16.0.0, SVG Export Plug-In . SVG Version: 6.00 Build 0)  -->
<!DOCTYPE svg PUBLIC "-//W3C//DTD SVG 1.1//EN" "http://www.w3.org/Graphics/SVG/1.1/DTD/svg11.dtd">
<svg version="1.1" id="Layer_1" xmlns="http://www.w3.org/2000/svg" xmlns:xlink="http://www.w3.org/1999/xlink" x="0px" y="0px"
	 width="72px" height="72px" viewBox="0 0 72 72"
	 enable-background="new -0.0002 -0.0002 71.9805 71.9805" xml:space="preserve">
<path fill="currentColor" d="M35.99,64.4255c-13.3174,0-24.1221-12.834-24.1221-28.6611S22.6726,7.1028,35.99,7.1028
	c13.3164,0,24.1123,12.8345,24.1123,28.6616S49.3064,64.4255,35.99,64.4255 M35.99,2.4426
	c-18.3984,0-33.3213,14.9238-33.3213,33.3218c0,18.3984,14.9229,33.3213,33.3213,33.3213c18.3975,0,33.3213-14.9229,33.3213-33.3213
	C69.3113,17.3665,54.3875,2.4426,35.99,2.4426"/>
<path fill="currentColor" d="M31.6111,35.7644c0,11.7295,3.8057,21.2402,4.3789,21.2402c0.4316,0,4.3779-9.5107,4.3779-21.2402
	c0-11.73-4.0664-21.2505-4.3779-21.2505C35.5281,14.5139,31.6111,24.0344,31.6111,35.7644"/>
</svg>
