<?xml version="1.0" encoding="utf-8"?>
<!-- Generator: Adobe Illustrator 16.0.0, SVG Export Plug-In . SVG Version: 6.00 Build 0)  -->
<!DOCTYPE svg PUBLIC "-//W3C//DTD SVG 1.1//EN" "http://www.w3.org/Graphics/SVG/1.1/DTD/svg11.dtd">
<svg version="1.1" id="Layer_1" xmlns="http://www.w3.org/2000/svg" xmlns:xlink="http://www.w3.org/1999/xlink" x="0px" y="0px"
	 width="72px" height="72px" viewBox="0 0 72 72" enable-background="new 0 0 72 72" xml:space="preserve">
	<path fill="currentColor" d="M40.324,43.535c-0.176,1.2-0.271,2.297-0.509,3.354c-0.564,2.544-0.93,5.096-1.105,7.704
		c-0.095,1.503-0.453,3.004-0.795,4.483c-0.373,1.605-0.517,3.22-0.564,4.857c-0.024,0.882-0.127,1.765-0.271,2.631
		c-0.182,1.089-0.452,2.162-0.699,3.244c-0.063,0.278-0.19,0.532-0.286,0.803c-0.048,0.008-0.103,0.008-0.151,0.016
		c-0.111-0.206-0.246-0.397-0.326-0.611c-0.485-1.24-0.453-2.561-0.572-3.863c-0.104-1.105-0.254-2.203-0.381-3.3
		c-0.088-0.764-0.159-1.527-0.271-2.282c-0.223-1.519-0.501-3.028-0.708-4.539c-0.23-1.63-0.406-3.268-0.612-4.904
		c-0.063-0.486-0.103-0.979-0.238-1.448c-0.318-1.112-0.381-2.241-0.477-3.386c-0.063-0.819-0.334-1.622-0.517-2.425
		c-0.104-0.462-0.438-0.564-0.827-0.405c-1.829,0.755-3.681,1.438-5.446,2.313c-1.646,0.811-3.243,1.749-5.064,2.042
		c-1.089,0.176-2.035,0.541-2.941,1.105c-0.612,0.382-1.224,0.755-1.868,1.081c-0.358,0.184-0.755,0.287-1.145,0.414
		c-0.819,0.271-1.63,0.604-2.464,0.778c-1.01,0.216-1.884,0.652-2.775,1.152c-0.755,0.43-1.653,0.629-2.488,0.907
		c-0.127,0.047-0.294,0.017-0.437-0.008c-0.381-0.072-0.485-0.326-0.199-0.572c0.708-0.604,1.447-1.177,2.17-1.766
		c0.223-0.174,0.43-0.373,0.645-0.549c0.572-0.46,1.104-0.984,1.733-1.359c1.63-0.961,3.068-2.153,4.436-3.458
		c0.708-0.676,1.59-1.176,2.393-1.757c0.056-0.039,0.104-0.079,0.151-0.127c0.405-0.357,0.779-0.755,1.216-1.058
		c1.622-1.104,3.172-2.289,4.659-3.585c0.875-0.755,1.868-1.367,2.83-2.02c0.596-0.405,0.875-0.35,1.383,0.144
		c0.827,0.803,1.288,1.836,1.844,2.814c0.612,1.081,1.304,2.106,2.02,3.124c0.143,0.206,0.533,0.325,0.819,0.342
		c1.161,0.04,2.321,0.008,3.474,0.023C37.351,43.464,38.75,43.504,40.324,43.535z"/>
	<path fill="currentColor" d="M37.231,28.414c-1.582,0-3.164-0.015-4.746,0.008c-0.461,0.008-0.627-0.167-0.58-0.604
		c0.135-1.248,0.167-2.504,0.62-3.704c0.151-0.397,0.071-0.875,0.111-1.312c0.199-2.067,0.389-4.126,0.627-6.193
		c0.056-0.485,0.318-0.946,0.485-1.415c0.032-0.087,0.096-0.175,0.096-0.27c0.024-2.226,0.676-4.349,0.969-6.535
		c0.215-1.583,0.255-3.188,0.414-4.778c0.063-0.612,0.223-1.216,0.381-1.813c0.048-0.167,0.287-0.421,0.397-0.405
		c0.184,0.024,0.438,0.223,0.477,0.389c0.191,0.819,0.39,1.654,0.461,2.489c0.119,1.542,0.111,3.101,0.231,4.651
		c0.03,0.445,0.317,0.866,0.468,1.312c0.111,0.318,0.255,0.644,0.287,0.978c0.15,1.431,0.246,2.862,0.413,4.292
		c0.104,0.891,0.294,1.773,0.43,2.655c0.397,2.552,0.795,5.096,1.176,7.647c0.088,0.581,0.096,1.169,0.159,1.757
		c0.048,0.429-0.15,0.667-0.548,0.723c-0.772,0.104-1.56,0.175-2.33,0.255C37.239,28.502,37.231,28.462,37.231,28.414z"/>
	<path fill="currentColor" d="M44.816,35.347c-0.231-0.143-0.47-0.223-0.597-0.389c-0.343-0.453-0.668-0.922-0.938-1.423
		c-0.302-0.557-0.5-1.176-0.811-1.725c-0.374-0.667-0.803-1.304-1.24-1.924c-0.263-0.374-0.517-0.724-0.342-1.208
		c0.184-0.509,0.564-0.731,1.081-0.771c0.096-0.008,0.19-0.04,0.278-0.072c0.922-0.374,1.836-0.747,2.759-1.113
		c0.746-0.294,1.494-0.58,2.241-0.858c1.63-0.62,3.268-1.216,4.89-1.868c0.723-0.286,1.398-0.7,2.122-1.01
		c0.525-0.223,1.09-0.35,1.622-0.557c0.405-0.159,0.827-0.326,1.169-0.573c0.866-0.627,1.876-0.818,2.862-1.097
		c0.484-0.135,0.984-0.239,1.462-0.397c0.31-0.104,0.645-0.215,0.874-0.414c0.971-0.85,2.171-1.081,3.355-1.391
		c0.127-0.032,0.373-0.008,0.39,0.048c0.048,0.135,0.031,0.326-0.039,0.453c-0.104,0.199-0.248,0.389-0.414,0.541
		c-0.278,0.254-0.564,0.493-0.875,0.716c-1.915,1.391-3.863,2.734-5.756,4.165c-1.128,0.859-2.146,1.861-3.259,2.751
		c-0.787,0.636-1.638,1.184-2.465,1.773c-0.079,0.056-0.159,0.111-0.229,0.175c-0.986,0.803-1.948,1.63-2.95,2.409
		c-1.432,1.113-2.894,2.187-4.349,3.267C45.412,35.029,45.117,35.172,44.816,35.347z"/>
	<path fill="currentColor" d="M65.366,53.456c-0.311-0.159-0.597-0.271-0.843-0.437c-1.526-1.002-3.109-1.988-4.913-2.227
		c-1.543-0.206-2.822-0.843-4.118-1.573c-0.771-0.438-1.59-0.7-2.473-0.867c-0.85-0.158-1.717-0.484-2.44-0.946
		c-0.771-0.492-1.59-0.715-2.432-0.961c-0.462-0.136-0.875-0.405-1.321-0.597c-0.803-0.35-1.612-0.684-2.424-1.018
		c-0.58-0.239-1.193-0.421-1.749-0.708c-0.557-0.286-1.081-0.604-1.732-0.619c-0.405-0.008-0.478-0.256-0.295-0.564
		c0.168-0.278,0.382-0.525,0.565-0.804c0.309-0.478,0.604-0.954,0.897-1.438c0.39-0.637,0.779-1.272,1.16-1.908
		c0.119-0.199,0.208-0.405,0.295-0.612c0.214-0.509,0.438-1.018,0.636-1.542c0.159-0.405,0.421-0.477,0.771-0.278
		c0.485,0.271,0.979,0.541,1.416,0.874c0.58,0.445,1.113,0.962,1.677,1.432c1.186,0.979,2.386,1.932,3.57,2.909
		c0.787,0.644,1.558,1.296,2.337,1.94c0.405,0.333,0.803,0.668,1.224,0.985c2.536,1.956,5.072,3.911,7.616,5.858
		c0.803,0.613,1.622,1.209,2.433,1.806c0.159,0.119,0.343,0.206,0.47,0.357c0.135,0.159,0.35,0.438,0.293,0.54
		C65.883,53.242,65.604,53.321,65.366,53.456z"/>
	<path fill="currentColor" d="M31.531,28.812c-0.087,0.175-0.167,0.39-0.286,0.581c-0.788,1.256-1.583,2.512-2.385,3.76
		c-0.342,0.533-0.715,1.049-1.057,1.59c-0.39,0.604-0.724,0.644-1.248,0.143c-0.048-0.047-0.088-0.096-0.143-0.135
		c-1.583-1.208-3.172-2.401-4.746-3.617c-0.739-0.573-1.431-1.192-2.17-1.757c-2.106-1.606-4.238-3.18-6.344-4.778
		c-0.676-0.517-1.352-1.041-1.956-1.637c-1.089-1.073-2.417-1.781-3.665-2.607C7.03,20.02,6.585,19.598,6.14,19.192
		c-0.112-0.103-0.175-0.326-0.144-0.469c0.016-0.079,0.278-0.167,0.422-0.151c0.723,0.103,1.462,0.167,2.059,0.684
		c0.199,0.167,0.429,0.318,0.668,0.405c1.16,0.438,2.321,0.858,3.49,1.28c1.375,0.509,2.822,0.883,4.11,1.559
		c0.875,0.461,1.868,0.477,2.695,1.025c0.819,0.533,1.709,0.962,2.583,1.391c0.302,0.151,0.652,0.238,0.986,0.247
		c1.018,0.032,1.916,0.366,2.767,0.891c0.612,0.373,1.208,0.787,1.853,1.097c0.493,0.23,1.049,0.326,1.574,0.485
		c0.334,0.104,0.684,0.199,0.994,0.358C30.641,28.231,31.054,28.518,31.531,28.812z"/>
	<path fill="currentColor" d="M42.073,20.552c-0.017-0.724,0.286-1.264,0.73-1.844c0.589-0.763,1.464-0.859,2.194-1.272
		c0.089-0.048,0.223-0.032,0.335-0.024c1.344,0.127,2.869,1.646,3.036,2.973c0.127,1.034-0.326,1.789-1.113,2.354
		c-1.431,1.018-3.441,1.153-4.69-0.58c-0.317-0.437-0.421-1.034-0.619-1.55C41.994,20.583,42.033,20.568,42.073,20.552z"/>
	<path fill="currentColor" d="M21.475,36.182c0.032,1.343-1.32,2.679-2.83,2.694c-1.415,0.017-2.552-0.587-3.347-1.78
		c-0.087-0.136-0.151-0.294-0.183-0.445c-0.207-1.113,0.652-2.885,1.701-3.315C19.09,32.397,21.308,33.852,21.475,36.182z"/>
	<path fill="currentColor" d="M30.402,20.536c-0.008,1.868-2.297,3.363-3.975,2.679c-0.62-0.247-1.193-0.604-1.773-0.938
		c-0.127-0.072-0.262-0.238-0.286-0.374c-0.103-0.66-0.254-1.328-0.199-1.98c0.032-0.405,0.342-0.818,0.604-1.176
		c0.501-0.676,1.249-1.01,2.011-1.304c0.104-0.04,0.223-0.047,0.334-0.04c1.335,0.072,2.902,1.368,3.204,2.663
		C30.379,20.258,30.387,20.457,30.402,20.536z"/>
	<path fill="currentColor" d="M27.573,54.212c-1.161,0.23-1.892-0.51-2.608-1.186c-1.28-1.208-1.28-2.082-0.032-3.354
		c0.978-0.994,2.083-1.551,3.521-1.042c1.407,0.493,2.155,1.892,1.789,3.427c-0.087,0.342-0.223,0.684-0.374,1.001
		c-0.366,0.763-0.946,1.185-1.821,1.146C27.891,54.212,27.724,54.212,27.573,54.212z"/>
	<path fill="currentColor" d="M53.688,38.806c-0.317-0.08-0.811-0.144-1.256-0.335c-1.447-0.619-2.067-2.727-1.064-3.943
		c1.2-1.447,3.091-1.979,4.642-0.357c0.397,0.413,0.906,0.779,0.866,1.463c-0.047,0.866-0.23,1.702-0.826,2.353
		C55.484,38.622,54.666,38.709,53.688,38.806z"/>
	<path fill="currentColor" d="M45.214,48.822c1.438-0.144,2.161,0.73,2.694,1.859c0.023,0.049,0.04,0.088,0.056,0.136
		c0.311,1.121-1.009,3.331-2.162,3.49c-0.509,0.07-1.073-0.04-1.566-0.208c-1.176-0.412-2.122-1.788-2.146-2.964
		c-0.016-0.883,0.596-1.727,1.438-1.973c0.557-0.159,1.113-0.31,1.679-0.46C45.206,48.743,45.206,48.782,45.214,48.822z"/>
	<path fill="currentColor" d="M33.313,41.293c-0.358-0.532-0.342-1.001,0.016-1.375c0.445-0.485,0.699-1.018,0.85-1.653
		c0.167-0.7,0.668-0.867,1.312-0.572c0.271,0.127,0.39,0.302,0.239,0.58c-0.19,0.342-0.358,0.707-0.604,1.001
		C34.544,39.949,33.94,40.594,33.313,41.293z"/>
	<path fill="currentColor" d="M33.313,30.871c0.23,0.127,0.477,0.199,0.612,0.365c0.556,0.716,1.097,1.456,1.614,2.21
		c0.23,0.342,0.04,0.795-0.366,0.803c-0.326,0-0.803-0.087-0.954-0.318c-0.556-0.827-0.954-1.741-0.969-2.767
		C33.233,31.102,33.264,31.038,33.313,30.871z"/>
	<path fill="currentColor" d="M36.978,33.359c0.016-0.056,0.031-0.255,0.135-0.382c0.453-0.58,0.914-1.145,1.406-1.693
		c0.112-0.12,0.335-0.135,0.51-0.199c0.024,0.183,0.104,0.381,0.056,0.541c-0.223,0.731-0.469,1.455-0.739,2.17
		c-0.135,0.366-0.445,0.596-0.835,0.517C37.088,34.234,36.978,33.876,36.978,33.359z"/>
	<path fill="currentColor" d="M39.155,40.522c-0.119,0.032-0.167,0.063-0.207,0.055c-0.715-0.103-1.86-1.304-1.884-2.034
		c-0.008-0.231,0.04-0.502,0.151-0.7c0.143-0.254,0.445-0.445,0.684-0.167C38.575,38.487,38.996,39.433,39.155,40.522z"/>
	<path fill="currentColor" d="M39.473,36.659c-0.206-0.024-0.437-0.009-0.619-0.097c-0.184-0.087-0.445-0.253-0.454-0.413
		c-0.015-0.223,0.097-0.533,0.256-0.676c0.588-0.509,2.059-0.35,2.591,0.223c0.199,0.215,0.224,0.421-0.079,0.524
		c-0.549,0.191-1.105,0.333-1.662,0.5C39.489,36.706,39.481,36.683,39.473,36.659z"/>
	<path fill="currentColor" d="M32.295,36.5c-0.43-0.08-0.755-0.104-1.058-0.215c-0.286-0.103-0.389-0.333-0.063-0.532
		c0.763-0.469,1.606-0.636,2.488-0.525c0.214,0.023,0.429,0.23,0.572,0.414c0.048,0.063-0.111,0.413-0.23,0.445
		C33.416,36.261,32.812,36.38,32.295,36.5z"/>
</svg>
