<?xml version="1.0" encoding="utf-8"?>
<!-- Generator: Adobe Illustrator 16.0.0, SVG Export Plug-In . SVG Version: 6.00 Build 0)  -->
<!DOCTYPE svg PUBLIC "-//W3C//DTD SVG 1.1//EN" "http://www.w3.org/Graphics/SVG/1.1/DTD/svg11.dtd">
<svg version="1.1" id="Layer_1" xmlns="http://www.w3.org/2000/svg" xmlns:xlink="http://www.w3.org/1999/xlink" x="0px" y="0px"
	 width="72px" height="72px" viewBox="0 0 72 72" enable-background="new 0 0 72 72" xml:space="preserve">
<g id="Fellowship">
</g>
<g id="Baggins">
</g>
<g id="Lore">
</g>
<g id="Leadership">
</g>
<g id="Tactics">
	<g>
		<g>
			<path fill="currentColor" d="M32.62,1.579c1.855,0,3.603-1.171,5.758-0.027c0.835,0.444,1.58,0.24,2.14,0.985
				c0.63,0.852,1.295,1.668,1.605,2.716c0.063,0.222,0.169,0.461,0.319,0.629c0.516,0.595,0.568,1.26,0.444,2.005
				c-0.399,2.369-1.526,4.348-3.133,6.087c-0.07,0.08-0.159,0.178-0.257,0.204c-0.595,0.16-0.897,0.595-1.064,1.136
				c-0.231,0.746-0.568,1.49-0.213,2.28c0.354,0.79,0.701,1.597,1.162,2.333c0.798,1.26,0.311,2.831-1.074,3.346
				c-0.479,0.177-0.905,0.506-1.357,0.772c-0.888,0.541-1.775,1.073-2.635,1.642c-0.187,0.124-0.284,0.399-0.417,0.603
				c0.212,0.089,0.461,0.302,0.621,0.249c1.047-0.355,2.103-0.692,3.087-1.18c0.568-0.284,0.985-0.861,1.509-1.26
				c0.541-0.408,0.79-0.319,0.968,0.347c0.23,0.843,0.053,1.65-0.479,2.325c-0.169,0.213-0.532,0.275-0.808,0.381
				c-0.204,0.08-0.418,0.115-0.621,0.186c-0.063,0.018-0.116,0.089-0.169,0.133c-0.799,0.71-1.597,1.429-2.493,2.228
				c0.816,0.071,1.464-0.044,2.103-0.337c0.568-0.257,1.092-0.568,1.456-1.1c0.026-0.044,0.071-0.089,0.115-0.115
				c0.301-0.143,0.603-0.275,0.904-0.417c0.054,0.292,0.143,0.585,0.15,0.878c0.027,0.843-0.274,1.571-0.896,2.157
				c-0.71,0.666-1.429,1.269-2.369,1.624c-0.896,0.337-1.739,0.825-2.6,1.26c-0.115,0.053-0.275,0.239-0.248,0.301
				c0.054,0.133,0.187,0.284,0.32,0.32c0.585,0.177,1.17,0.204,1.765-0.054c0.515-0.23,1.066-0.381,1.571-0.621
				c0.436-0.212,0.834-0.506,1.242-0.763c0.382-0.24,0.737-0.648,1.226-0.399c0.522,0.257,0.416,0.807,0.407,1.269
				c-0.035,1.323-0.496,2.396-1.713,3.097c-0.993,0.577-1.943,1.207-2.901,1.845c-0.275,0.188-0.506,0.444-0.754,0.666
				c0.009,0.071,0.026,0.143,0.035,0.222c0.275,0.027,0.577,0.133,0.825,0.071c1.056-0.266,2.13-0.515,2.77-1.562
				c0.194-0.311,0.532-0.551,0.852-0.754c0.514-0.319,1.037-0.045,1.021,0.568c-0.027,0.646-0.125,1.304-0.267,1.941
				c-0.116,0.568-0.16,1.084,0.018,1.66c0.115,0.373,0,0.86-0.134,1.251c-0.239,0.719-0.585,1.402-0.843,2.121
				c-0.159,0.452,0.009,0.879,0.338,1.198c0.957,0.94,2.05,1.614,3.442,1.694c1.286,0.08,2.556,0.205,3.78,0.746
				c0.745,0.327,1.615,0.435,2.44,0.541c1.26,0.16,2.422,0.496,3.558,1.117c1.446,0.799,3.062,1.029,4.721,0.71
				c0.418-0.08,0.852-0.062,1.366-0.098c-0.142,0.408-0.222,0.719-0.346,1.021c-0.691,1.687-1.34,3.39-2.111,5.041
				c-0.764,1.642-2.076,2.901-3.319,4.179c-0.097,0.106-0.23,0.187-0.354,0.258c-0.391,0.239-0.621,0.098-0.71-0.32
				c-0.035-0.195-0.053-0.399-0.063-0.594c-0.045-0.657-0.062-1.314-0.134-1.961c-0.069-0.666-0.3-1.278-0.798-1.758
				c-0.115-0.114-0.257-0.222-0.328-0.363c-0.781-1.525-2.13-2.271-3.674-2.813c-1.064-0.373-2.13-0.169-3.194-0.116
				c-1.126,0.063-1.811,0.808-2.537,1.545c-0.771,0.78-1.154,1.649-1.082,2.742c0.062,0.966,0.088,1.934,0.069,2.9
				c-0.035,2.591-0.105,5.183-0.133,7.773c-0.009,0.471,0.116,0.94,0.187,1.402c0.107,0.754-0.045,0.957-0.799,1.021
				c-0.194,0.017-0.399,0.017-0.603,0.025c-0.053,0-0.098-0.034-0.213-0.07c0-0.195,0-0.418,0-0.63
				c-0.009-3.984-0.018-7.96-0.018-11.944c0-1.021-0.462-1.872-1.021-2.662c-0.169-0.23-0.56-0.487-0.79-0.443
				c-0.222,0.044-0.479,0.462-0.507,0.737c-0.114,1.082-0.158,2.183-0.212,3.274c-0.124,2.51-0.257,5.03-0.355,7.542
				c-0.044,1.146-0.026,2.289-0.018,3.442c0.009,0.498-0.204,0.772-0.692,0.799c-1.127,0.063-2.253,0.124-3.381,0.133
				c-0.683,0.01-0.808-0.187-0.816-0.869c-0.036-1.898-0.106-3.798-0.097-5.697c0.009-1.605,0.15-3.212,0.177-4.809
				c0.009-0.577-0.106-1.162-0.177-1.739c-0.08-0.648-0.195-1.295-0.249-1.952c-0.097-1.322-1.047-2.192-2.369-2.36
				c-1.127-0.143-2.228-0.088-3.345-0.01c-2.156,0.16-4.463,2.14-4.907,4.278c-0.195,0.94-0.373,1.889-0.586,2.83
				c-0.053,0.257-0.204,0.497-0.301,0.719c-0.098,0-0.142,0.018-0.16,0c-1.543-1.5-3.105-2.991-4.144-4.916
				c-0.213-0.391-0.275-0.86-0.443-1.277c-0.479-1.118-0.976-2.228-1.474-3.337c-0.115-0.266-0.311-0.496-0.417-0.763
				c-0.142-0.346-0.017-0.612,0.391-0.551c0.381,0.063,0.825,0.151,1.109,0.382c0.452,0.372,0.932,0.479,1.428,0.347
				c1.491-0.391,3.044-0.692,4.437-1.322c1.056-0.471,2.085-0.808,3.222-0.86c0.212-0.01,0.461-0.071,0.621-0.196
				c0.577-0.452,1.251-0.416,1.925-0.47c0.622-0.054,1.225-0.284,1.837-0.391c0.55-0.088,1.119-0.16,1.678-0.16
				c1.739-0.017,2.857-0.79,3.221-2.288c0.257-1.075,0.213-2.112-0.515-3.018c-0.488-0.604-0.453-1.341-0.488-2.04
				c-0.107-2.13-0.275-4.269-0.231-6.398c0.044-2.281,0.311-4.552,0.444-6.824c0.063-1.109,0.036-2.227,0.071-3.336
				c0.035-0.852,0.053-1.686,0.674-2.414c0.258-0.302,0.24-0.861,0.302-1.313c0.089-0.657,0.249-1.26,0.612-1.837
				c0.967-1.517,0.808-3.203-0.612-4.401c-0.391-0.329-0.763-0.684-1.145-1.021c-0.524-0.461-0.87-1.003-0.968-1.722
				c-0.044-0.311-0.266-0.647-0.497-0.887c-0.435-0.452-0.559-0.985-0.692-1.562c-0.355-1.536,0.151-2.839,0.843-4.162
				c0.408-0.772,0.825-1.482,1.544-2.005C32.265,2.351,32.389,1.96,32.62,1.579z M31.387,7.506c0.089,0.542,0.195,1.269,0.328,1.979
				c0.036,0.187,0.142,0.373,0.257,0.532c0.355,0.506,0.843,0.728,1.456,0.675c0.852-0.08,1.703-0.151,2.404,0.55
				c0.133,0.133,0.55,0.168,0.692,0.062c0.799-0.621,1.721-0.621,2.652-0.629c1.092,0,2.192-1.473,1.802-2.502
				c-0.274-0.719-0.249-1.411-0.239-2.138c0.009-0.364-0.204-0.736-0.346-1.101c-0.063-0.16-0.24-0.293-0.275-0.461
				C40.02,4.019,39.7,3.886,39.31,3.886c-0.318,0-0.655,0.044-0.966,0.142c-0.621,0.195-1.145,0.213-1.607-0.381
				c-0.31-0.399-0.824-0.39-1.02-0.009c-0.24,0.488-0.603,0.515-1.047,0.444c-0.32-0.054-0.648-0.098-0.967-0.187
				C33.09,3.717,32.656,3.93,32.265,4.4C31.564,5.252,31.484,6.29,31.387,7.506z M36.746,20.088
				c-1.34,0.116-1.588,0.284-1.917,1.296c-0.151,0.452,0,0.719,0.479,0.754c0.79,0.053,1.492-0.195,1.979-0.825
				c0.178-0.231,0.248-0.639,0.187-0.932C37.438,20.239,36.994,20.177,36.746,20.088z M36.054,42.449
				c0,0.629,0.639,1.145,1.021,0.932c0.701-0.399,1.464-0.746,1.925-1.473c0.276-0.436,0.223-0.746-0.283-0.844
				c-0.239-0.044-0.594,0.062-0.771,0.23c-0.418,0.399-0.825,0.737-1.438,0.799C36.312,42.121,36.151,42.369,36.054,42.449z"/>
		</g>
	</g>
</g>
<g id="Spirit">
</g>
</svg>
