<svg xmlns="http://www.w3.org/2000/svg" xml:space="preserve" width="72px" height="72px" viewBox="0 0 72 72">
    <path fill="currentColor" d="M32.62 1.579c1.855 0 3.603-1.171 5.758-.027.835.444 1.58.24 2.14.985.63.852 1.295 1.668 1.605 2.716.063.222.169.461.319.629.516.595.568 1.26.444 2.005-.399 2.369-1.526 4.348-3.133 6.087-.07.08-.159.178-.257.204-.595.16-.897.595-1.064 1.136-.231.746-.568 1.49-.213 2.28.354.79.701 1.597 1.162 2.333.798 1.26.311 2.831-1.074 3.346-.479.177-.905.506-1.357.772-.888.541-1.775 1.073-2.635 1.642-.187.124-.284.399-.417.603.212.089.461.302.621.249 1.047-.355 2.103-.692 3.087-1.18.568-.284.985-.861 1.509-1.26.541-.408.79-.319.968.347.23.843.053 1.65-.479 2.325-.169.213-.532.275-.808.381-.204.08-.418.115-.621.186-.063.018-.116.089-.169.133-.799.71-1.597 1.429-2.493 2.228.816.071 1.464-.044 2.103-.337.568-.257 1.092-.568 1.456-1.1a.35.35 0 0 1 .115-.115c.301-.143.603-.275.904-.417.054.292.143.585.15.878.027.843-.274 1.571-.896 2.157-.71.666-1.429 1.269-2.369 1.624-.896.337-1.739.825-2.6 1.26-.115.053-.275.239-.248.301.054.133.187.284.32.32.585.177 1.17.204 1.765-.054.515-.23 1.066-.381 1.571-.621.436-.212.834-.506 1.242-.763.382-.24.737-.648 1.226-.399.522.257.416.807.407 1.269-.035 1.323-.496 2.396-1.713 3.097-.993.577-1.943 1.207-2.901 1.845-.275.188-.506.444-.754.666.009.071.026.143.035.222.275.027.577.133.825.071 1.056-.266 2.13-.515 2.77-1.562.194-.311.532-.551.852-.754.514-.319 1.037-.045 1.021.568a11 11 0 0 1-.267 1.941c-.116.568-.16 1.084.018 1.66.115.373 0 .86-.134 1.251-.239.719-.585 1.402-.843 2.121-.159.452.009.879.338 1.198.957.94 2.05 1.614 3.442 1.694 1.286.08 2.556.205 3.78.746.745.327 1.615.435 2.44.541 1.26.16 2.422.496 3.558 1.117 1.446.799 3.062 1.029 4.721.71.418-.08.852-.062 1.366-.098-.142.408-.222.719-.346 1.021-.691 1.687-1.34 3.39-2.111 5.041-.764 1.642-2.076 2.901-3.319 4.179-.097.106-.23.187-.354.258-.391.239-.621.098-.71-.32a5 5 0 0 1-.063-.594c-.045-.657-.062-1.314-.134-1.961-.069-.666-.3-1.278-.798-1.758-.115-.114-.257-.222-.328-.363-.781-1.525-2.13-2.271-3.674-2.813-1.064-.373-2.13-.169-3.194-.116-1.126.063-1.811.808-2.537 1.545-.771.78-1.154 1.649-1.082 2.742.062.966.088 1.934.069 2.9-.035 2.591-.105 5.183-.133 7.773-.009.471.116.94.187 1.402.107.754-.045.957-.799 1.021-.194.017-.399.017-.603.025-.053 0-.098-.034-.213-.07v-.63c-.009-3.984-.018-7.96-.018-11.944 0-1.021-.462-1.872-1.021-2.662-.169-.23-.56-.487-.79-.443-.222.044-.479.462-.507.737-.114 1.082-.158 2.183-.212 3.274-.124 2.51-.257 5.03-.355 7.542-.044 1.146-.026 2.289-.018 3.442.009.498-.204.772-.692.799a71 71 0 0 1-3.381.133c-.683.01-.808-.187-.816-.869-.036-1.898-.106-3.798-.097-5.697.009-1.605.15-3.212.177-4.809.009-.577-.106-1.162-.177-1.739-.08-.648-.195-1.295-.249-1.952-.097-1.322-1.047-2.192-2.369-2.36-1.127-.143-2.228-.088-3.345-.01-2.156.16-4.463 2.14-4.907 4.278-.195.94-.373 1.889-.586 2.83-.053.257-.204.497-.301.719-.098 0-.142.018-.16 0-1.543-1.5-3.105-2.991-4.144-4.916-.213-.391-.275-.86-.443-1.277a211 211 0 0 0-1.474-3.337c-.115-.266-.311-.496-.417-.763-.142-.346-.017-.612.391-.551.381.063.825.151 1.109.382.452.372.932.479 1.428.347 1.491-.391 3.044-.692 4.437-1.322 1.056-.471 2.085-.808 3.222-.86.212-.01.461-.071.621-.196.577-.452 1.251-.416 1.925-.47.622-.054 1.225-.284 1.837-.391.55-.088 1.119-.16 1.678-.16 1.739-.017 2.857-.79 3.221-2.288.257-1.075.213-2.112-.515-3.018-.488-.604-.453-1.341-.488-2.04-.107-2.13-.275-4.269-.231-6.398.044-2.281.311-4.552.444-6.824.063-1.109.036-2.227.071-3.336.035-.852.053-1.686.674-2.414.258-.302.24-.861.302-1.313.089-.657.249-1.26.612-1.837.967-1.517.808-3.203-.612-4.401-.391-.329-.763-.684-1.145-1.021-.524-.461-.87-1.003-.968-1.722-.044-.311-.266-.647-.497-.887-.435-.452-.559-.985-.692-1.562-.355-1.536.151-2.839.843-4.162.408-.772.825-1.482 1.544-2.005.285-.194.409-.585.64-.966m-1.233 5.927c.089.542.195 1.269.328 1.979.036.187.142.373.257.532.355.506.843.728 1.456.675.852-.08 1.703-.151 2.404.55.133.133.55.168.692.062.799-.621 1.721-.621 2.652-.629 1.092 0 2.192-1.473 1.802-2.502-.274-.719-.249-1.411-.239-2.138.009-.364-.204-.736-.346-1.101-.063-.16-.24-.293-.275-.461-.098-.454-.418-.587-.808-.587-.318 0-.655.044-.966.142-.621.195-1.145.213-1.607-.381-.31-.399-.824-.39-1.02-.009-.24.488-.603.515-1.047.444-.32-.054-.648-.098-.967-.187-.613-.178-1.047.035-1.438.505-.701.852-.781 1.89-.878 3.106m5.359 12.582c-1.34.116-1.588.284-1.917 1.296-.151.452 0 .719.479.754.79.053 1.492-.195 1.979-.825.178-.231.248-.639.187-.932-.036-.142-.48-.204-.728-.293m-.692 22.361c0 .629.639 1.145 1.021.932.701-.399 1.464-.746 1.925-1.473.276-.436.223-.746-.283-.844a1.02 1.02 0 0 0-.771.23c-.418.399-.825.737-1.438.799-.196.028-.357.276-.454.356"/>
</svg>
