<svg xmlns="http://www.w3.org/2000/svg" xml:space="preserve" width="72px" height="72px" viewBox="0 0 72 72">
    <path fill="currentColor" d="M33.563 1.401h4.813c0 .08 2.012.253 2 .412-.014.159 1.788.237 1.813.343q0 .159.397.277.396.12.714.278.397.159.734.218.339.06.693.139.755.12 1.647.119.892 0 1.448.318.477.08.694.417.218.337.655.575.318.2.654.219c.336.019.482.033.773.06q.119.08.377.099c.258.019.377.086.616.218q.436.12.732.516.298.397.734.714.397.08.734.198.338.12.575.397.318.08.635.457c.317.377.397.416.556.496q.278.08.575.179.298.1.576.179.277.08.495.496c.218.416.364.523.654.734q.24.239.556.317.318.08.517.238.04.198.218.376.178.179.259.337.198.16.356.317.157.16.238.238a3.1 3.1 0 0 1 .653.694q.219.339.576.734.08.16.378.238.297.08.535.356.199.279.357.556.157.278.436.476l.536.536q.257.257.417.615.197.08.237.377t.118.615q.318.238.577.476a2.2 2.2 0 0 1 .416.516l.298.754q.138.357.298.714.277.436.714.714.435.279.596.675.119.318.119.753 0 .437.196.714.158.715.597 1.072.435.357.595.952.238.437.277.992.04.556.04 1.111 0 .992.397 1.944.117.317.317.495.197.179.317.337.237.438.396.992a3.1 3.1 0 0 1 .059 1.07 4.6 4.6 0 0 0 .062 1.27v5.357a15 15 0 0 0-.04 1.944q.038.993-.021 1.944c-.059.951-.099 1.224-.178 1.767q-.12.813-.516 1.367-.278.478-.517 1.013a3.1 3.1 0 0 0-.277 1.012v1.389q-.239.279-.277.535-.04.26-.158.616a5 5 0 0 0-.438.495q-.196.26-.436.536a7 7 0 0 1-.199.516 4 4 0 0 0-.196.596 2.8 2.8 0 0 0-.119.714q-.001.278-.16.675-.038.317-.218.456a3 3 0 0 0-.456.496 3 3 0 0 0-.755.933q-.276.536-.515.932a15 15 0 0 1-.457.438q-.218.198-.416.595-.08.157-.198.516c-.118.359-.198.437-.358.596q-.197.237-.436.495a3 3 0 0 0-.356.457q-.28.279-.456.476a.9.9 0 0 0-.219.477 1.3 1.3 0 0 1-.557.496.8.8 0 0 0-.436.416 1.3 1.3 0 0 0-.516.456 7 7 0 0 1-.396.536q-.238.318-.535.476-.3.159-.378.438a4 4 0 0 0-.536.555q-.218.28-.417.357-.158.199-.495.237a1.3 1.3 0 0 0-.575.199 3 3 0 0 0-.536.417 1.9 1.9 0 0 0-.377.575l-.733.218a1.7 1.7 0 0 0-.655.377 5.4 5.4 0 0 0-.813.635q-.377.357-.933.635-.197.12-.476.159a6 6 0 0 0-.595.119.9.9 0 0 0-.358.297 8 8 0 0 0-.276.457q-.318.12-.497.198a6 6 0 0 0-.337.159 1.93 1.93 0 0 1-1.092.317q-.613 0-1.09.118-.438.318-.894.754a1.9 1.9 0 0 1-1.091.517 3 3 0 0 1-.833.198q-.436.039-.834.079-.793 0-1.646.06c-.853.06-1.077.111-1.527.219q-.476.198-.893.377a2.2 2.2 0 0 1-.854.178q-.595 0-1.17-.02a33 33 0 0 0-1.211-.021q-.517 0-1.031-.099c-.514-.099-.688-.206-1.031-.416q-.953.634-2.183.515a22 22 0 0 1-2.38-.357 9 9 0 0 0-1.21-.218 17 17 0 0 1-1.051-.139 6.4 6.4 0 0 0-1.25-.039q-.655.038-1.33-.079a2.7 2.7 0 0 1-1.17-.695 5 5 0 0 0-1.052-.813 5.5 5.5 0 0 0-1.21-.118q-.694 0-1.329-.12a2.4 2.4 0 0 1-.854-.614 8 8 0 0 0-.694-.694 3.7 3.7 0 0 0-.813-.298 3 3 0 0 1-.773-.298 1.9 1.9 0 0 1-.595-.515 1.2 1.2 0 0 0-.595-.438.73.73 0 0 0-.396-.258l-.556-.139a5.6 5.6 0 0 1-.635-.655 53 53 0 0 1-.516-.654 4.3 4.3 0 0 1-1.151-.595A149 149 0 0 0 11.772 61a11.8 11.8 0 0 1-1.766-2.023 1.3 1.3 0 0 0-.436-.457 1.5 1.5 0 0 1-.437-.416q-.193-.321-.333-.579t-.496-.615a8 8 0 0 1-.556-.377 1.06 1.06 0 0 1-.357-.495 3.5 3.5 0 0 1-.297-.675 3.7 3.7 0 0 1-.139-.675.64.64 0 0 0-.298-.317.6.6 0 0 1-.257-.197 3.4 3.4 0 0 1-.636-1.092 7 7 0 0 0-.515-1.132 1.9 1.9 0 0 0-.457-.772 3 3 0 0 1-.457-.575q-.278-.635-.297-1.171a7 7 0 0 0-.139-1.131q-.08-.634-.635-1.171-.556-.534-.714-1.17-.238-.833-.199-1.527.04-.695-.079-1.528 0-.715-.06-1.508a4.2 4.2 0 0 0-.376-1.469 7 7 0 0 1-.219-1.526q-.02-.734.02-1.527a7 7 0 0 0-.04-1.667 11 11 0 0 1-.119-1.547q0-.675.357-1.151t.436-.992q.118-1.032.079-2.182c-.039-1.15.014-1.494.12-2.182q.08-.755.555-1.23.476-.476.714-1.073.278-.673.297-1.408.02-.735.179-1.25.197-.556.635-.913.437-.358.714-.993.158-.277.179-.714t.178-.635q.08-.357.318-.615.237-.258.595-.655.118-.278.337-.694.218-.417.496-.496.119-.317.357-.456.238-.14.595-.457.118-.357.337-.674.217-.317.536-.754.555-.635 1.111-1.349t1.151-1.389q.356-.238.635-.615.277-.376.555-.576.277-.238.576-.356a4 4 0 0 1 .654-.199 6 6 0 0 0 .595-.596 1.4 1.4 0 0 1 .516-.396q.238-.316.496-.417.258-.099.695-.298.396-.158.655-.595.257-.437.535-.793.277-.12.714-.119.436 0 .714-.08.515-.317.873-.793.357-.476.992-.714.317-.079.773-.04.457.04.813-.079.476-.158.933-.635a2 2 0 0 1 1.131-.595q.515-.317 1.27-.258.753.06 1.508-.179.475-.08 1.15-.337t.833-.575c.105-.105 1.432-.401 1.379-.56-.05-.157 2.814-.114 2.814-.193M12.43 31.993q-.675.237-1.369.178a1.95 1.95 0 0 0-1.25.298q-.516.12-.853.654-.338.535-1.012.616a2 2 0 0 1-.694.04 1.7 1.7 0 0 0-.813.118q-.436.08-.893.456-.456.379-.893.696-.437.357-.873.635-.437.278-.437.833 0 .398.238.635c.238.237.343.265.555.317q.317.08.714.138.396.06.714.258.357.16.615.417.258.26.734.497.079.158.536.237c.457.079.576.093.813.12h.536q.178-.001.416.118.635.16 1.092.615.455.457.893.813.436.12.773.06.338-.06.734.06.832.08 1.29.653.456.577 1.051.814.476.198 1.072.079.595-.118.873-.437.396-.555.219-1.25a7 7 0 0 1-.219-1.369q0-1.705-.039-2.935-.04-1.23.039-2.938.04-.793.159-1.527.12-.734-.356-1.091-.318-.237-.913-.258-.594-.02-.952.14-.993.078-1.389.555t-1.111.755m-.159-18.49q-.039.635.377.952.417.318.655 1.032.119.278.08.655-.04.378.119.853.238.595.694.972t.734.972q.12.476.159 1.25c.039.774.105.933.238 1.25q.158.278.417.517.257.238.417.555.357.356.476 1.19.158.159.079.437a2.3 2.3 0 0 0-.079.635q.238.476.595.913t.833.595q.119.12.575.199t.774-.04q.515-.158.694-.774.18-.615.576-1.09a1.7 1.7 0 0 1 .357-.397q.198-.159.317-.317a7 7 0 0 0 1.131-1.171 5.2 5.2 0 0 1 1.25-1.17.83.83 0 0 1 .377-.317q.258-.119.496-.278.238-.158.456-.496c.218-.338.323-.377.536-.457q.316-.436.753-.635.436-.198.396-.793 0-.396-.257-.635a1.7 1.7 0 0 0-.615-.357 2.8 2.8 0 0 0-.734-.139 2.8 2.8 0 0 1-.733-.139 4.4 4.4 0 0 1-.992-.714q-.516-.476-1.111-.595h-1.428a3.25 3.25 0 0 1-1.012-.833q-.417-.515-.813-.635a3 3 0 0 0-1.508-.258q-.834.06-1.388-.258-.476-.158-.596-.595-.119-.437-.635-.675H13.78q-.357 0-.912.159-.557.155-.597.632m4.366 34.48q-.08.357-.08.694 0 .338-.079.654-.08.676-.536 1.131a2.6 2.6 0 0 0-.654 1.092.67.67 0 0 0-.119.416q0 .259-.04.614-.12.359-.258.715a5 5 0 0 1-.298.635q-.08.238-.356.497a2.3 2.3 0 0 0-.437.535 12 12 0 0 0-.476 1.566 9 9 0 0 1-.595 1.727 7 7 0 0 1-.219.615q-.178.457-.06.496.158.397.675.516a2.7 2.7 0 0 0 1.032.04q.595-.158.992-.596.396-.435.873-.516.475-.119.912-.119.436 0 .595-.277.675-.079 1.052-.557.377-.474.972-.635.277-.198.516-.157.239.038.516.039.396-.079.813-.179.415-.099.733-.218.277-.279.536-.497.257-.218.655-.377.198-.197 1.031-.436.396-.08.754.02.357.1.793-.139.515-.278.615-.715.099-.435-.04-.893a3 3 0 0 0-.436-.872 6 6 0 0 0-.575-.695 3 3 0 0 0-.536-.119 1.03 1.03 0 0 1-.536-.237q-.436-.158-.655-.556c-.219-.398-.311-.463-.496-.595q-.516-.397-.912-.557a27 27 0 0 1-.456-.654q-.26-.376-.536-.495a4.7 4.7 0 0 1-1.032-1.27 8.4 8.4 0 0 1-.337-1.112q-.139-.594-1.17-.476-1.705.401-2.141 1.947m15.95-28.568a3.9 3.9 0 0 0-1.131.555 5 5 0 0 1-1.131.596 3.1 3.1 0 0 1-.992.218 4 4 0 0 0-.992.178 5 5 0 0 1-.596.656q-.357.338-.793.495-.16.12-.437.179a1.5 1.5 0 0 0-.516.218 5 5 0 0 0-.615.535q-.337.338-.694.774a1.4 1.4 0 0 0-.575.297 1.5 1.5 0 0 0-.377.457 1.27 1.27 0 0 0-.536.555q-.178.357-.457.635-.198.318-.476.595a2.3 2.3 0 0 0-.436.595q-.12.319-.12.595c0 .276-.039.345-.119.477a3.7 3.7 0 0 1-.754 1.05 4 4 0 0 0-.754 1.012q-.159.477-.198 1.231a5 5 0 0 1-.238 1.348q-.08.636-.317 1.271c-.237.635-.238.82-.238 1.19v1.427q0 .358-.02.637-.02.277.02.635 0 .516.258 1.031.257.518.456 1.23.158.674.139 1.407a4.5 4.5 0 0 0 .179 1.409q.158.279.476.477t.556.476q.277.398.457.834.178.436.416.872a1.2 1.2 0 0 0 .397.535 1.4 1.4 0 0 1 .397.457q.238.357.377.715.138.356.218.595.317.318.615.495.298.18.576.457a.72.72 0 0 0 .417.198q.257.039.456.159.277.278.516.555.238.28.476.477.357.238.754.397.396.157.674.516.316.118.576.477.257.356.575.436.515.08 1.091.06.575-.02 1.011.1l.873.476q.437.239.754.317.873.438 2.044.557 1.17.117 2.241 0a4.3 4.3 0 0 0 1.487-.338q.696-.297 1.409-.616.596-.356 1.587-.415t1.589-.22q.276-.197.533-.515.26-.317.656-.397.356-.277.733-.396t.813-.437q.158-.118.397-.377.238-.257.396-.377.28-.317.595-.516.319-.198.557-.437.157-.157.258-.397.099-.236.259-.436.276-.199.535-.377.258-.179.535-.377.158-.317.279-.675.118-.356.396-.635.317-.317.595-.575.279-.258.397-.616.118-.157.14-.495.018-.336.178-.694.199-.555.516-.991.318-.436.674-.953.319-.833.319-1.805c0-.972.012-1.315.039-2.004a71 71 0 0 0 .02-2.937q-.021-1.626-.298-2.737a2.14 2.14 0 0 0-.516-1.111q-.437-.515-.555-.992-.12-.358-.22-.714a39 39 0 0 0-.218-.754q-.08-.277-.396-.555-.318-.278-.595-.515-.319-.358-.497-.754a6 6 0 0 0-.337-.675 2.7 2.7 0 0 1-.396-.397 2 2 0 0 0-.396-.357 7 7 0 0 0-.734-.833 13 13 0 0 1-.733-.754.8.8 0 0 1-.398-.298 1.3 1.3 0 0 0-.355-.337 4 4 0 0 0-.675-.375 3 3 0 0 1-.755-.497 8 8 0 0 1-.515-.577q-.28-.336-.595-.376-.399-.12-.755-.119c-.356.001-.464-.053-.675-.158q-.636-.16-1.111-.437a15 15 0 0 1-.952-.595 8 8 0 0 0-.575-.06 1.8 1.8 0 0 1-.575-.139q-1.746-.277-3.849-.159-.675 0-1.448.059-.775.058-1.251.098m4.642 48.248q.158-.079.338-.218.178-.14.297-.337.079-.356.258-.734.18-.377.179-.734.08-.278.079-.556 0-.277.04-.515.197-.635.694-1.132.495-.495.694-.972.039-.358 0-.694a1.6 1.6 0 0 1 .04-.615l.198-.595q.079-.238.237-.278.199-.355.497-.555.296-.2.455-.397.08-.357.08-.714 0-.358.158-.715.08-.514.397-.952.316-.435.276-1.111a1.8 1.8 0 0 0-.853-.635 3.2 3.2 0 0 0-1.21-.178q-.675.02-1.309.139a8 8 0 0 1-1.191.158h-2.221q-1.191 0-2.262-.178a12.6 12.6 0 0 0-2.063-.179q-.714.08-1.051.555-.339.476-.179 1.191.238.555.575.853t.576.774q.119.198.218.476.099.279.258.596.119.357.119.693 0 .339.079.694.12.358.337.497a.7.7 0 0 1 .298.377q.396.475.515 1.15a.92.92 0 0 1 .139.574q-.021.338.06.734.158.635.714 1.052.555.416.753 1.052.04.278.04.496v.456q.119.357.119.496 0 .138.119.456.12.475.278.913.158.435.516.714.514-.357.912-.992.401-.634.797-1.11M34.61 5.091a3.4 3.4 0 0 1-.357 1.349q-.278.397-.516.635c-.238.238-.264.384-.317.675a1.6 1.6 0 0 0-.258.556l-.178.635a1.3 1.3 0 0 0-.04.576q.04.337-.039.694a3.1 3.1 0 0 1-.715.992q-.159.199-.357.377c-.198.178-.225.285-.278.496q-.2.357-.099.694.098.338-.02.734a2.8 2.8 0 0 1-.813 1.27q-.576.516-.734 1.19-.516 1.985 1.548 1.904.634-.158 1.369-.317a23 23 0 0 1 1.567-.277 4.8 4.8 0 0 1 1.19-.238q.596-.04.992-.04.872 0 1.688.258a15 15 0 0 0 1.606.417q.595.159 1.368-.02c.773-.179.827-.324.932-.615q.04-.476-.157-.773a2.5 2.5 0 0 1-.317-.774 3.5 3.5 0 0 1-.239-.893 7 7 0 0 0-.158-.813 1 1 0 0 0-.298-.476 2.3 2.3 0 0 1-.415-.515q-.439-.476-.478-1.032a1.4 1.4 0 0 1-.139-.655 1.2 1.2 0 0 0-.099-.576 4.3 4.3 0 0 0-.437-1.389 2.3 2.3 0 0 0-.477-.556q-.318-.277-.396-.555-.238-.753-.238-1.19a2 2 0 0 1-.179-.615 1.04 1.04 0 0 0-.178-.496 1.55 1.55 0 0 0-.358-.674 12 12 0 0 0-.595-.637q-.357-.357-.654-.635-.298-.277-.813-.277-.675.08-.734.575c-.059.495-.1.668-.18 1.011m20.712 9.087a2.8 2.8 0 0 1-.834.099 4 4 0 0 0-.832.06 3.1 3.1 0 0 0-1.012.714q-.457.476-1.051.555-.676.28-1.211.317a3.7 3.7 0 0 0-1.052.238 10 10 0 0 1-.635.496 3 3 0 0 1-.675.376q-.356.317-.933.377t-1.012.258q-.634.476-.377 1.131.258.654.735 1.011.316.238.595.596.277.358.595.516.198.04.396.1.197.06.477.138.356.277.535.655c.179.378.283.484.497.695q.397.238.693.396.297.16.496.438.158.356.298.595.138.238.218.396.358.358.576.536t.297.377q.356.475.575.911.219.438.814.477.395.12.675-.118.277-.239.436-.635c.159-.396.199-.53.278-.794s.171-.515.276-.754a1.1 1.1 0 0 1 .438-.476q.278-.158.437-.555.039-.317.04-.576-.001-.257.079-.693.198-.24.276-.576l.12-.497q.197-.196.476-.436a1.35 1.35 0 0 0 .397-.556q.12-.356.198-.674.08-.317.118-.714.12-.238.119-.655 0-.417.16-.655.277-.634.635-.873.355-.238.674-.873.079-.317.179-1.032c.1-.715.032-.859-.099-1.151q-.08-.476-.635-.595a3 3 0 0 0-1.073-.04q-.436 0-.793.198a1.8 1.8 0 0 0-.555.457q-.2.258-.457.476a1.5 1.5 0 0 1-.572.339m-3.253 32.971-.913.952q-.197.239-.317.596a8 8 0 0 1-.238.635 7 7 0 0 1-.773.596q-.417.278-.813.675a5 5 0 0 0-.417.356 2.1 2.1 0 0 0-.417.516q-.398.158-.834.338c-.436.18-.555.245-.793.377q-.279.396-.615 1.15-.337.753-.218 1.229a.67.67 0 0 0 .356.536q.318.178.715.278c.397.1.548.104.853.119q.456.019.854.059.317.12.615.219.297.098.417.298.277.278.475.396.199.12.596.278.476.357 1.171.415.695.06 1.289.299.277.118.556.476.277.357.596.477.594.278 1.209.277c.615-.001.841.093 1.291.278q.395.356.714.832.316.476.951.477.556 0 .774-.456t.277-.992c.059-.536.047-.733.021-1.13a8 8 0 0 0-.12-.992 11 11 0 0 1-.555-.517 2.4 2.4 0 0 1-.438-.635 4 4 0 0 1-.476-1.229 1.5 1.5 0 0 1-.138-.615 2.1 2.1 0 0 0-.18-.734.82.82 0 0 0-.317-.397q-.198-.117-.317-.476a2.6 2.6 0 0 1-.297-.477 3 3 0 0 1-.219-.595 6 6 0 0 1-.039-.694q0-.376-.198-.693-.279-.675-.695-1.071-.416-.397-.693-1.112-.16-.554-.397-1.229-.238-.674-.872-.437a1.1 1.1 0 0 0-.794.517 6.5 6.5 0 0 1-.637.83m2.539-14.958q.157.516.555 1.349.08.198.08.377c0 .179.025.272.079.457q.158.635.338 1.07.178.438.178 1.072-.038.674-.377.912c-.339.238-.43.436-.614.834q-.041.237.119.635.157.397.039.675-.158.554-.396.893-.239.337-.04.893c.025.555.352.886.972.991q.932.16 1.767-.197.435-.319.733-.656a2.2 2.2 0 0 1 .735-.535q.555-.198 1.229-.198.675 0 1.27-.159.396-.277.653-.614.26-.337.656-.535.278-.08.436-.139a2.4 2.4 0 0 0 .357-.179q.475-.04.854-.04.377 0 .575-.158.754-.357 1.032-.735.277-.377.951-.614a3.8 3.8 0 0 1 1.151-.14q.595.02 1.031-.257-.001-.158.08-.397a2 2 0 0 0 .079-.277q0-.675-.555-.854a2.4 2.4 0 0 1-.993-.614 2.3 2.3 0 0 1-.693-.536 3.7 3.7 0 0 0-.576-.537 3.7 3.7 0 0 0-1.39-.197 3.7 3.7 0 0 1-1.229-.12 2.56 2.56 0 0 1-.972-.656 2.06 2.06 0 0 0-.813-.574q-.556-.238-.992-.199a2.5 2.5 0 0 1-.952-.12q-.636-.077-.953-.595a1.85 1.85 0 0 0-.911-.754q-.359-.197-1.251-.236-.893-.04-1.289 0-.595.158-.893.574t-.06 1.09"/>
</svg>
