<?xml version="1.0" encoding="utf-8"?>
<!-- Generator: Adobe Illustrator 16.0.0, SVG Export Plug-In . SVG Version: 6.00 Build 0)  -->
<!DOCTYPE svg PUBLIC "-//W3C//DTD SVG 1.1//EN" "http://www.w3.org/Graphics/SVG/1.1/DTD/svg11.dtd">
<svg version="1.1" id="Layer_1" xmlns="http://www.w3.org/2000/svg" xmlns:xlink="http://www.w3.org/1999/xlink" x="0px" y="0px"
	 width="72px" height="72px" viewBox="0 0 72 72" enable-background="new 0 0 72 72" xml:space="preserve">
<g id="Fellowship">
</g>
<g id="Baggins">
</g>
<g id="Lore">
</g>
<g id="Leadership">
</g>
<g id="Tactics">
</g>
<path fill="currentColor" d="M33.563,1.401h4.813c0,0.08,2.012,0.253,2,0.412c-0.014,0.159,1.788,0.237,1.813,0.343c0,0.106,0.133,0.198,0.397,0.277
	c0.264,0.08,0.502,0.172,0.714,0.278c0.264,0.106,0.51,0.178,0.734,0.218c0.226,0.04,0.457,0.086,0.693,0.139
	c0.504,0.08,1.052,0.119,1.647,0.119c0.595,0,1.077,0.106,1.448,0.318c0.317,0.053,0.55,0.192,0.694,0.417
	c0.146,0.225,0.363,0.416,0.655,0.575c0.212,0.133,0.43,0.206,0.654,0.219s0.482,0.033,0.773,0.06
	c0.079,0.053,0.205,0.086,0.377,0.099s0.377,0.086,0.616,0.218c0.29,0.079,0.535,0.252,0.732,0.516
	c0.199,0.265,0.443,0.502,0.734,0.714c0.264,0.053,0.51,0.119,0.734,0.198c0.226,0.08,0.417,0.212,0.575,0.397
	c0.212,0.053,0.423,0.205,0.635,0.457s0.397,0.416,0.556,0.496c0.185,0.054,0.377,0.113,0.575,0.179
	c0.199,0.066,0.391,0.126,0.576,0.179c0.185,0.053,0.35,0.218,0.495,0.496s0.364,0.523,0.654,0.734
	c0.16,0.159,0.345,0.265,0.556,0.317c0.212,0.053,0.384,0.133,0.517,0.238c0.025,0.132,0.1,0.257,0.218,0.376
	c0.119,0.119,0.205,0.232,0.259,0.337c0.131,0.106,0.251,0.212,0.356,0.317c0.104,0.106,0.185,0.186,0.238,0.238
	c0.291,0.238,0.509,0.47,0.653,0.694c0.146,0.226,0.338,0.47,0.576,0.734c0.053,0.106,0.179,0.186,0.378,0.238
	c0.197,0.053,0.377,0.172,0.535,0.356c0.132,0.186,0.252,0.371,0.357,0.556c0.104,0.185,0.25,0.344,0.436,0.476
	c0.185,0.186,0.364,0.363,0.536,0.536c0.171,0.172,0.311,0.376,0.417,0.615c0.131,0.053,0.211,0.179,0.237,0.377
	c0.026,0.198,0.066,0.403,0.118,0.615c0.213,0.159,0.403,0.317,0.577,0.476c0.171,0.159,0.31,0.331,0.416,0.516
	c0.105,0.265,0.204,0.516,0.298,0.754c0.092,0.238,0.191,0.476,0.298,0.714c0.185,0.291,0.422,0.529,0.714,0.714
	c0.291,0.186,0.488,0.411,0.596,0.675c0.079,0.212,0.119,0.463,0.119,0.753c0,0.292,0.065,0.529,0.196,0.714
	c0.105,0.476,0.305,0.834,0.597,1.072c0.29,0.238,0.488,0.555,0.595,0.952c0.158,0.291,0.252,0.622,0.277,0.992
	c0.026,0.371,0.04,0.741,0.04,1.111c0,0.661,0.133,1.31,0.397,1.944c0.078,0.211,0.184,0.377,0.317,0.495
	c0.131,0.119,0.237,0.232,0.317,0.337c0.158,0.292,0.29,0.622,0.396,0.992c0.08,0.317,0.099,0.675,0.059,1.07
	c-0.04,0.398-0.019,0.821,0.062,1.27v2.619v2.738c-0.055,0.635-0.068,1.284-0.04,1.944c0.025,0.662,0.019,1.31-0.021,1.944
	s-0.099,1.224-0.178,1.767c-0.08,0.542-0.252,0.997-0.516,1.367c-0.185,0.319-0.358,0.656-0.517,1.013
	c-0.158,0.358-0.252,0.695-0.277,1.012v1.389c-0.159,0.186-0.252,0.364-0.277,0.535c-0.027,0.174-0.08,0.377-0.158,0.616
	c-0.159,0.158-0.305,0.323-0.438,0.495c-0.131,0.173-0.276,0.352-0.436,0.536c-0.054,0.159-0.119,0.331-0.199,0.516
	c-0.078,0.186-0.145,0.384-0.196,0.596c-0.08,0.291-0.119,0.529-0.119,0.714c0,0.186-0.055,0.41-0.16,0.675
	c-0.025,0.212-0.098,0.363-0.218,0.456c-0.119,0.094-0.271,0.259-0.456,0.496c-0.317,0.265-0.569,0.575-0.755,0.933
	c-0.185,0.357-0.355,0.669-0.515,0.932c-0.159,0.159-0.312,0.305-0.457,0.438c-0.146,0.132-0.283,0.33-0.416,0.595
	c-0.053,0.105-0.119,0.277-0.198,0.516s-0.198,0.437-0.358,0.596c-0.132,0.158-0.276,0.323-0.436,0.495
	c-0.159,0.173-0.278,0.325-0.356,0.457c-0.187,0.186-0.338,0.344-0.456,0.476c-0.119,0.133-0.193,0.292-0.219,0.477
	c-0.158,0.238-0.345,0.403-0.557,0.496c-0.211,0.093-0.356,0.231-0.436,0.416c-0.212,0.105-0.384,0.258-0.516,0.456
	c-0.134,0.199-0.265,0.377-0.396,0.536c-0.158,0.212-0.338,0.37-0.535,0.476c-0.199,0.106-0.326,0.252-0.378,0.438
	c-0.213,0.185-0.391,0.371-0.536,0.555c-0.146,0.187-0.283,0.305-0.417,0.357c-0.105,0.132-0.271,0.212-0.495,0.237
	c-0.225,0.027-0.416,0.094-0.575,0.199c-0.212,0.133-0.392,0.271-0.536,0.417c-0.146,0.145-0.272,0.338-0.377,0.575
	c-0.266,0.08-0.509,0.151-0.733,0.218c-0.226,0.065-0.443,0.192-0.655,0.377c-0.291,0.186-0.562,0.397-0.813,0.635
	c-0.251,0.238-0.563,0.45-0.933,0.635c-0.132,0.08-0.29,0.133-0.476,0.159c-0.185,0.026-0.384,0.066-0.595,0.119
	c-0.159,0.079-0.278,0.179-0.358,0.297c-0.078,0.119-0.171,0.271-0.276,0.457c-0.213,0.079-0.377,0.146-0.497,0.198
	c-0.119,0.053-0.231,0.104-0.337,0.159c-0.317,0.211-0.682,0.317-1.092,0.317c-0.409,0-0.772,0.039-1.09,0.118
	c-0.292,0.212-0.59,0.463-0.894,0.754c-0.305,0.291-0.668,0.463-1.091,0.517c-0.265,0.105-0.542,0.171-0.833,0.198
	c-0.292,0.025-0.568,0.053-0.834,0.079c-0.529,0-1.077,0.021-1.646,0.06s-1.077,0.111-1.527,0.219
	c-0.317,0.132-0.615,0.257-0.893,0.377c-0.278,0.118-0.562,0.178-0.854,0.178c-0.396,0-0.787-0.007-1.17-0.02
	c-0.384-0.014-0.787-0.021-1.211-0.021c-0.345,0-0.688-0.032-1.031-0.099s-0.688-0.206-1.031-0.416
	c-0.635,0.422-1.363,0.595-2.183,0.515c-0.82-0.078-1.614-0.197-2.38-0.357c-0.423-0.105-0.828-0.178-1.21-0.218
	c-0.384-0.039-0.734-0.086-1.051-0.139c-0.397-0.053-0.813-0.066-1.25-0.039c-0.437,0.025-0.88,0-1.33-0.079
	c-0.45-0.133-0.84-0.364-1.17-0.695c-0.332-0.331-0.682-0.602-1.052-0.813c-0.344-0.079-0.748-0.118-1.21-0.118
	c-0.462,0-0.906-0.04-1.329-0.12c-0.317-0.132-0.602-0.337-0.854-0.614c-0.251-0.278-0.483-0.51-0.694-0.694
	c-0.265-0.133-0.536-0.232-0.813-0.298c-0.277-0.066-0.536-0.165-0.773-0.298c-0.238-0.132-0.437-0.305-0.595-0.515
	c-0.159-0.213-0.357-0.357-0.595-0.438c-0.106-0.132-0.238-0.218-0.396-0.258c-0.159-0.039-0.344-0.086-0.556-0.139
	c-0.265-0.238-0.476-0.456-0.635-0.655c-0.159-0.197-0.331-0.417-0.516-0.654c-0.45-0.158-0.833-0.357-1.151-0.595
	c-0.714-0.661-1.382-1.27-2.004-1.825c-0.621-0.557-1.209-1.23-1.766-2.023c-0.106-0.186-0.251-0.338-0.436-0.457
	c-0.186-0.118-0.331-0.258-0.437-0.416C9.004,57.89,8.893,57.697,8.8,57.525c-0.093-0.171-0.258-0.377-0.496-0.615
	c-0.212-0.132-0.397-0.257-0.556-0.377c-0.159-0.118-0.278-0.283-0.357-0.495c-0.132-0.237-0.232-0.463-0.297-0.675
	c-0.066-0.212-0.112-0.437-0.139-0.675c-0.079-0.158-0.179-0.263-0.298-0.317c-0.119-0.053-0.205-0.119-0.257-0.197
	c-0.292-0.345-0.503-0.708-0.636-1.092c-0.132-0.383-0.304-0.76-0.515-1.132c-0.106-0.317-0.258-0.574-0.457-0.772
	c-0.198-0.199-0.351-0.391-0.457-0.575c-0.185-0.423-0.285-0.814-0.297-1.171c-0.014-0.357-0.06-0.734-0.139-1.131
	c-0.053-0.423-0.265-0.813-0.635-1.171c-0.371-0.356-0.609-0.746-0.714-1.17c-0.159-0.556-0.225-1.064-0.199-1.527
	c0.026-0.464,0-0.972-0.079-1.528c0-0.477-0.02-0.979-0.06-1.508c-0.04-0.529-0.165-1.019-0.376-1.469
	c-0.133-0.527-0.206-1.037-0.219-1.526c-0.013-0.49-0.007-0.998,0.02-1.527c0.053-0.556,0.04-1.112-0.04-1.667
	c-0.079-0.556-0.119-1.072-0.119-1.547c0-0.45,0.119-0.833,0.357-1.151c0.238-0.317,0.383-0.648,0.436-0.992
	c0.079-0.688,0.105-1.415,0.079-2.182s0.014-1.494,0.12-2.182c0.053-0.502,0.238-0.914,0.555-1.23
	c0.317-0.318,0.556-0.674,0.714-1.073c0.185-0.449,0.284-0.918,0.297-1.408c0.013-0.49,0.073-0.907,0.179-1.25
	c0.132-0.37,0.343-0.675,0.635-0.913c0.291-0.239,0.529-0.569,0.714-0.993c0.105-0.185,0.165-0.423,0.179-0.714
	c0.013-0.291,0.072-0.502,0.178-0.635c0.053-0.238,0.159-0.443,0.318-0.615c0.159-0.172,0.356-0.39,0.595-0.655
	c0.079-0.185,0.191-0.417,0.337-0.694c0.145-0.278,0.311-0.443,0.496-0.496c0.079-0.211,0.198-0.364,0.357-0.456
	c0.159-0.093,0.357-0.245,0.595-0.457c0.079-0.238,0.191-0.462,0.337-0.674c0.145-0.211,0.323-0.463,0.536-0.754
	c0.37-0.423,0.74-0.873,1.111-1.349c0.37-0.477,0.754-0.938,1.151-1.389c0.238-0.159,0.449-0.363,0.635-0.615
	c0.185-0.251,0.37-0.443,0.555-0.576c0.185-0.159,0.377-0.277,0.576-0.356c0.198-0.08,0.416-0.146,0.654-0.199
	c0.238-0.211,0.437-0.41,0.595-0.596c0.159-0.184,0.33-0.317,0.516-0.396c0.159-0.211,0.324-0.35,0.496-0.417
	c0.172-0.066,0.403-0.165,0.695-0.298c0.264-0.105,0.482-0.304,0.655-0.595c0.171-0.291,0.35-0.556,0.535-0.793
	c0.185-0.08,0.423-0.119,0.714-0.119c0.291,0,0.529-0.026,0.714-0.08c0.343-0.211,0.635-0.476,0.873-0.793
	c0.238-0.317,0.569-0.556,0.992-0.714c0.211-0.053,0.469-0.065,0.773-0.04c0.304,0.027,0.576,0,0.813-0.079
	c0.317-0.105,0.628-0.317,0.933-0.635c0.304-0.317,0.681-0.516,1.131-0.595c0.343-0.211,0.767-0.298,1.27-0.258
	c0.502,0.04,1.005-0.02,1.508-0.179c0.317-0.053,0.7-0.165,1.15-0.337c0.449-0.171,0.727-0.363,0.833-0.575
	c0.105-0.105,1.432-0.401,1.379-0.56C30.699,1.437,33.563,1.48,33.563,1.401z M12.43,31.993c-0.45,0.158-0.906,0.218-1.369,0.178
	c-0.463-0.039-0.879,0.06-1.25,0.298c-0.344,0.079-0.629,0.298-0.853,0.654c-0.225,0.357-0.563,0.562-1.012,0.616
	c-0.186,0.052-0.417,0.065-0.694,0.04c-0.278-0.027-0.549,0.013-0.813,0.118c-0.291,0.053-0.588,0.205-0.893,0.456
	c-0.304,0.253-0.602,0.484-0.893,0.696c-0.291,0.237-0.582,0.45-0.873,0.635c-0.292,0.185-0.437,0.463-0.437,0.833
	c0,0.265,0.08,0.477,0.238,0.635s0.343,0.265,0.555,0.317c0.211,0.054,0.45,0.099,0.714,0.138c0.264,0.04,0.502,0.127,0.714,0.258
	c0.238,0.106,0.443,0.246,0.615,0.417c0.172,0.174,0.417,0.338,0.734,0.497c0.053,0.105,0.231,0.185,0.536,0.237
	s0.576,0.093,0.813,0.12c0.238,0,0.417,0,0.536,0c0.119,0,0.257,0.038,0.416,0.118c0.423,0.106,0.787,0.312,1.092,0.615
	c0.303,0.305,0.601,0.575,0.893,0.813c0.291,0.079,0.548,0.1,0.773,0.06c0.225-0.04,0.47-0.02,0.734,0.06
	c0.555,0.053,0.985,0.271,1.29,0.653c0.304,0.385,0.655,0.656,1.051,0.814c0.317,0.132,0.675,0.158,1.072,0.079
	c0.396-0.079,0.688-0.224,0.873-0.437c0.264-0.37,0.337-0.787,0.219-1.25c-0.119-0.462-0.192-0.919-0.219-1.369
	c0-1.136-0.013-2.115-0.039-2.935c-0.027-0.82-0.014-1.799,0.039-2.938c0.026-0.528,0.08-1.038,0.159-1.527
	c0.08-0.489-0.039-0.853-0.356-1.091c-0.212-0.158-0.516-0.244-0.913-0.258c-0.396-0.013-0.714,0.034-0.952,0.14
	c-0.662,0.052-1.125,0.237-1.389,0.555C13.277,31.557,12.907,31.808,12.43,31.993z M12.271,13.503
	c-0.026,0.423,0.1,0.741,0.377,0.952c0.278,0.212,0.496,0.556,0.655,1.032c0.08,0.185,0.105,0.404,0.08,0.655
	c-0.027,0.252,0.013,0.536,0.119,0.853c0.159,0.396,0.39,0.721,0.694,0.972c0.303,0.252,0.549,0.575,0.734,0.972
	c0.08,0.317,0.132,0.734,0.159,1.25s0.105,0.933,0.238,1.25c0.105,0.186,0.244,0.357,0.417,0.517
	c0.171,0.158,0.311,0.344,0.417,0.555c0.238,0.237,0.396,0.635,0.476,1.19c0.105,0.106,0.132,0.251,0.079,0.437
	c-0.053,0.185-0.079,0.397-0.079,0.635c0.159,0.317,0.356,0.622,0.595,0.913c0.238,0.292,0.516,0.489,0.833,0.595
	c0.079,0.08,0.271,0.146,0.575,0.199c0.304,0.053,0.562,0.04,0.774-0.04c0.343-0.105,0.575-0.363,0.694-0.774
	c0.12-0.409,0.311-0.774,0.576-1.09c0.105-0.159,0.225-0.291,0.357-0.397c0.132-0.105,0.238-0.212,0.317-0.317
	c0.396-0.319,0.773-0.708,1.131-1.171c0.356-0.461,0.773-0.853,1.25-1.17c0.08-0.132,0.205-0.238,0.377-0.317
	c0.172-0.08,0.337-0.171,0.496-0.278c0.159-0.105,0.311-0.271,0.456-0.496s0.323-0.377,0.536-0.457
	c0.211-0.291,0.462-0.502,0.753-0.635c0.291-0.132,0.423-0.396,0.396-0.793c0-0.264-0.086-0.476-0.257-0.635
	c-0.172-0.159-0.377-0.277-0.615-0.357c-0.238-0.079-0.483-0.125-0.734-0.139c-0.251-0.013-0.496-0.06-0.733-0.139
	c-0.317-0.159-0.649-0.397-0.992-0.714c-0.344-0.317-0.714-0.516-1.111-0.595h-1.428c-0.397-0.211-0.734-0.489-1.012-0.833
	c-0.278-0.343-0.549-0.555-0.813-0.635c-0.451-0.211-0.953-0.298-1.508-0.258c-0.556,0.039-1.018-0.046-1.388-0.258
	c-0.317-0.105-0.516-0.304-0.596-0.595c-0.079-0.292-0.291-0.516-0.635-0.675h-1.151c-0.238,0-0.542,0.053-0.912,0.159
	C12.497,12.974,12.298,13.186,12.271,13.503z M16.637,47.983c-0.053,0.238-0.08,0.47-0.08,0.694c0,0.226-0.026,0.443-0.079,0.654
	c-0.053,0.45-0.232,0.828-0.536,1.131c-0.304,0.305-0.523,0.669-0.654,1.092c-0.08,0.105-0.119,0.245-0.119,0.416
	c0,0.173-0.014,0.377-0.04,0.614c-0.08,0.239-0.166,0.478-0.258,0.715c-0.093,0.239-0.192,0.451-0.298,0.635
	c-0.053,0.159-0.172,0.324-0.356,0.497c-0.186,0.172-0.332,0.35-0.437,0.535c-0.159,0.396-0.317,0.919-0.476,1.566
	c-0.159,0.649-0.357,1.225-0.595,1.727c-0.027,0.106-0.1,0.312-0.219,0.615c-0.119,0.305-0.139,0.47-0.06,0.496
	c0.105,0.265,0.331,0.436,0.675,0.516c0.344,0.079,0.688,0.093,1.032,0.04c0.397-0.105,0.727-0.304,0.992-0.596
	c0.264-0.29,0.555-0.462,0.873-0.516c0.317-0.079,0.621-0.119,0.912-0.119c0.291,0,0.489-0.092,0.595-0.277
	c0.45-0.053,0.8-0.238,1.052-0.557c0.251-0.317,0.575-0.527,0.972-0.635c0.184-0.132,0.357-0.185,0.516-0.157
	c0.159,0.025,0.331,0.039,0.516,0.039c0.264-0.053,0.535-0.112,0.813-0.179c0.277-0.065,0.521-0.139,0.733-0.218
	c0.185-0.186,0.363-0.351,0.536-0.497c0.171-0.145,0.39-0.271,0.655-0.377c0.131-0.131,0.476-0.277,1.031-0.436
	c0.264-0.053,0.516-0.046,0.754,0.02c0.238,0.065,0.502,0.021,0.793-0.139c0.343-0.186,0.549-0.423,0.615-0.715
	c0.065-0.29,0.053-0.588-0.04-0.893c-0.093-0.303-0.238-0.595-0.436-0.872c-0.199-0.278-0.391-0.51-0.575-0.695
	c-0.159-0.052-0.337-0.092-0.536-0.119c-0.198-0.025-0.377-0.105-0.536-0.237c-0.291-0.105-0.509-0.291-0.655-0.556
	s-0.311-0.463-0.496-0.595c-0.344-0.265-0.648-0.45-0.912-0.557c-0.133-0.184-0.285-0.402-0.456-0.654
	c-0.173-0.251-0.352-0.416-0.536-0.495c-0.212-0.186-0.403-0.384-0.576-0.596c-0.172-0.212-0.324-0.437-0.456-0.674
	c-0.132-0.345-0.245-0.715-0.337-1.112c-0.093-0.396-0.482-0.555-1.17-0.476C17.642,46.304,16.927,46.952,16.637,47.983z
	 M32.587,19.415c-0.371,0.106-0.748,0.291-1.131,0.555c-0.384,0.265-0.761,0.463-1.131,0.596c-0.344,0.132-0.675,0.205-0.992,0.218
	c-0.317,0.014-0.649,0.073-0.992,0.178c-0.159,0.213-0.357,0.431-0.596,0.656c-0.238,0.225-0.502,0.39-0.793,0.495
	c-0.106,0.08-0.252,0.14-0.437,0.179c-0.186,0.04-0.357,0.113-0.516,0.218c-0.185,0.132-0.391,0.312-0.615,0.535
	c-0.225,0.226-0.456,0.483-0.694,0.774c-0.212,0.054-0.403,0.152-0.575,0.297c-0.172,0.146-0.297,0.298-0.377,0.457
	c-0.238,0.132-0.417,0.316-0.536,0.555c-0.119,0.238-0.271,0.45-0.457,0.635c-0.132,0.212-0.291,0.41-0.476,0.595
	c-0.186,0.185-0.331,0.384-0.436,0.595c-0.08,0.213-0.12,0.41-0.12,0.595s-0.039,0.345-0.119,0.477
	c-0.212,0.423-0.463,0.774-0.754,1.05c-0.292,0.279-0.543,0.616-0.754,1.012c-0.106,0.318-0.172,0.729-0.198,1.231
	c-0.027,0.502-0.106,0.952-0.238,1.348c-0.053,0.424-0.159,0.848-0.317,1.271s-0.238,0.82-0.238,1.19c0,0.265,0,0.509,0,0.734
	c0,0.225,0,0.457,0,0.693c0,0.239-0.007,0.451-0.02,0.637c-0.014,0.185-0.007,0.396,0.02,0.635c0,0.343,0.085,0.688,0.258,1.031
	c0.171,0.345,0.324,0.755,0.456,1.23c0.105,0.449,0.152,0.919,0.139,1.407c-0.013,0.489,0.046,0.961,0.179,1.409
	c0.105,0.187,0.264,0.344,0.476,0.477c0.211,0.133,0.397,0.29,0.556,0.476c0.185,0.265,0.337,0.543,0.457,0.834
	c0.119,0.29,0.257,0.582,0.416,0.872c0.08,0.212,0.211,0.391,0.397,0.535c0.185,0.146,0.317,0.298,0.397,0.457
	c0.159,0.238,0.284,0.477,0.377,0.715c0.092,0.237,0.165,0.436,0.218,0.595c0.211,0.212,0.417,0.377,0.615,0.495
	c0.199,0.12,0.39,0.272,0.576,0.457c0.105,0.106,0.244,0.172,0.417,0.198c0.171,0.026,0.324,0.079,0.456,0.159
	c0.185,0.185,0.357,0.371,0.516,0.555c0.159,0.187,0.317,0.345,0.476,0.477c0.238,0.158,0.489,0.292,0.754,0.397
	c0.264,0.105,0.489,0.277,0.674,0.516c0.211,0.079,0.403,0.237,0.576,0.477c0.171,0.237,0.363,0.383,0.575,0.436
	c0.344,0.054,0.707,0.073,1.091,0.06c0.383-0.013,0.72,0.02,1.011,0.1c0.291,0.158,0.582,0.317,0.873,0.476
	c0.292,0.159,0.542,0.265,0.754,0.317c0.582,0.292,1.263,0.477,2.044,0.557c0.78,0.078,1.527,0.078,2.241,0
	c0.529-0.027,1.025-0.14,1.487-0.338c0.464-0.199,0.933-0.402,1.409-0.616c0.397-0.237,0.927-0.376,1.587-0.415
	c0.661-0.04,1.19-0.112,1.589-0.22c0.184-0.131,0.362-0.303,0.533-0.515c0.174-0.211,0.392-0.344,0.656-0.397
	c0.237-0.184,0.482-0.317,0.733-0.396c0.252-0.079,0.522-0.225,0.813-0.437c0.105-0.079,0.238-0.204,0.397-0.377
	c0.159-0.172,0.29-0.297,0.396-0.377c0.186-0.211,0.385-0.383,0.595-0.516c0.213-0.132,0.398-0.277,0.557-0.437
	c0.105-0.105,0.191-0.237,0.258-0.397c0.066-0.157,0.152-0.303,0.259-0.436c0.184-0.132,0.363-0.259,0.535-0.377
	c0.172-0.119,0.351-0.245,0.535-0.377c0.105-0.211,0.199-0.437,0.279-0.675c0.078-0.237,0.211-0.449,0.396-0.635
	c0.211-0.212,0.41-0.402,0.595-0.575c0.186-0.172,0.318-0.377,0.397-0.616c0.079-0.105,0.125-0.269,0.14-0.495
	c0.012-0.224,0.072-0.455,0.178-0.694c0.132-0.37,0.305-0.7,0.516-0.991c0.212-0.291,0.437-0.608,0.674-0.953
	c0.212-0.555,0.319-1.157,0.319-1.805s0.012-1.315,0.039-2.004c0.026-0.874,0.033-1.851,0.02-2.937
	c-0.015-1.084-0.113-1.997-0.298-2.737c-0.054-0.398-0.225-0.769-0.516-1.111c-0.291-0.343-0.477-0.675-0.555-0.992
	c-0.08-0.239-0.153-0.476-0.22-0.714c-0.066-0.238-0.139-0.49-0.218-0.754c-0.053-0.185-0.186-0.37-0.396-0.555
	c-0.212-0.185-0.41-0.357-0.595-0.515c-0.213-0.239-0.378-0.49-0.497-0.754s-0.231-0.49-0.337-0.675
	c-0.186-0.159-0.316-0.29-0.396-0.397c-0.079-0.105-0.213-0.224-0.396-0.357c-0.265-0.343-0.51-0.621-0.734-0.833
	c-0.226-0.212-0.47-0.462-0.733-0.754c-0.159-0.053-0.293-0.151-0.398-0.298c-0.105-0.144-0.225-0.257-0.355-0.337
	c-0.186-0.132-0.411-0.257-0.675-0.375c-0.265-0.12-0.516-0.285-0.755-0.497c-0.159-0.16-0.33-0.351-0.515-0.577
	c-0.186-0.224-0.385-0.349-0.595-0.376c-0.266-0.08-0.517-0.119-0.755-0.119s-0.464-0.053-0.675-0.158
	c-0.424-0.106-0.794-0.252-1.111-0.437s-0.635-0.383-0.952-0.595c-0.185-0.026-0.377-0.046-0.575-0.06
	c-0.197-0.013-0.39-0.06-0.575-0.139c-1.164-0.185-2.447-0.238-3.849-0.159c-0.45,0-0.932,0.02-1.448,0.059
	C33.321,19.355,32.905,19.389,32.587,19.415z M37.229,67.663c0.105-0.053,0.218-0.125,0.338-0.218
	c0.118-0.094,0.218-0.205,0.297-0.337c0.052-0.238,0.139-0.482,0.258-0.734c0.12-0.252,0.179-0.495,0.179-0.734
	c0.054-0.186,0.079-0.37,0.079-0.556c0-0.185,0.013-0.356,0.04-0.515c0.131-0.424,0.363-0.8,0.694-1.132
	c0.33-0.33,0.562-0.654,0.694-0.972c0.026-0.238,0.026-0.47,0-0.694c-0.026-0.224-0.014-0.431,0.04-0.615
	c0.08-0.238,0.146-0.436,0.198-0.595s0.132-0.251,0.237-0.278c0.133-0.237,0.298-0.422,0.497-0.555
	c0.197-0.133,0.349-0.265,0.455-0.397c0.053-0.237,0.08-0.477,0.08-0.714c0-0.238,0.053-0.477,0.158-0.715
	c0.054-0.343,0.185-0.66,0.397-0.952c0.211-0.29,0.303-0.66,0.276-1.111c-0.21-0.29-0.495-0.501-0.853-0.635
	c-0.356-0.131-0.761-0.19-1.21-0.178c-0.45,0.014-0.886,0.06-1.309,0.139s-0.821,0.133-1.191,0.158h-2.221
	c-0.794,0-1.548-0.06-2.262-0.178c-0.714-0.119-1.402-0.179-2.063-0.179c-0.476,0.054-0.827,0.237-1.051,0.555
	c-0.226,0.317-0.285,0.715-0.179,1.191c0.159,0.37,0.35,0.654,0.575,0.853c0.224,0.199,0.417,0.457,0.576,0.774
	c0.079,0.132,0.152,0.291,0.218,0.476c0.066,0.186,0.152,0.384,0.258,0.596c0.079,0.237,0.119,0.47,0.119,0.693
	c0,0.226,0.026,0.457,0.079,0.694c0.08,0.239,0.192,0.404,0.337,0.497c0.146,0.092,0.245,0.218,0.298,0.377
	c0.264,0.317,0.436,0.7,0.515,1.15c0.105,0.159,0.152,0.351,0.139,0.574c-0.014,0.226,0.006,0.47,0.06,0.734
	c0.105,0.423,0.344,0.774,0.714,1.052c0.37,0.278,0.621,0.628,0.753,1.052c0.026,0.185,0.04,0.351,0.04,0.496
	c0,0.145,0,0.297,0,0.456c0.079,0.238,0.119,0.403,0.119,0.496c0,0.092,0.04,0.244,0.119,0.456c0.08,0.317,0.172,0.621,0.278,0.913
	c0.105,0.29,0.278,0.528,0.516,0.714c0.343-0.238,0.647-0.569,0.912-0.992C36.7,68.351,36.965,67.98,37.229,67.663z M34.61,5.091
	c-0.026,0.476-0.146,0.926-0.357,1.349c-0.185,0.265-0.357,0.476-0.516,0.635S33.473,7.459,33.42,7.75
	c-0.106,0.133-0.192,0.318-0.258,0.556c-0.066,0.238-0.126,0.45-0.178,0.635c-0.054,0.159-0.066,0.351-0.04,0.576
	c0.026,0.225,0.014,0.456-0.039,0.694c-0.186,0.397-0.423,0.728-0.715,0.992c-0.106,0.133-0.225,0.258-0.357,0.377
	s-0.225,0.285-0.278,0.496c-0.133,0.238-0.166,0.47-0.099,0.694c0.065,0.225,0.059,0.47-0.02,0.734
	c-0.159,0.503-0.431,0.926-0.813,1.27c-0.384,0.344-0.629,0.741-0.734,1.19c-0.344,1.323,0.172,1.958,1.548,1.904
	c0.423-0.105,0.879-0.211,1.369-0.317c0.489-0.105,1.012-0.198,1.567-0.277c0.396-0.132,0.793-0.211,1.19-0.238
	c0.397-0.026,0.728-0.04,0.992-0.04c0.581,0,1.144,0.086,1.688,0.258c0.541,0.172,1.077,0.312,1.606,0.417
	c0.396,0.106,0.853,0.099,1.368-0.02s0.827-0.324,0.932-0.615c0.026-0.317-0.025-0.575-0.157-0.773
	c-0.133-0.199-0.238-0.457-0.317-0.774c-0.105-0.238-0.186-0.536-0.239-0.893c-0.053-0.356-0.105-0.627-0.158-0.813
	c-0.053-0.184-0.152-0.343-0.298-0.476c-0.146-0.131-0.284-0.303-0.415-0.515c-0.293-0.318-0.451-0.661-0.478-1.032
	c-0.106-0.238-0.153-0.456-0.139-0.655c0.014-0.199-0.019-0.39-0.099-0.576c-0.054-0.449-0.199-0.912-0.437-1.389
	c-0.106-0.185-0.265-0.37-0.477-0.556c-0.211-0.184-0.345-0.37-0.396-0.555c-0.159-0.502-0.238-0.899-0.238-1.19
	c-0.105-0.238-0.166-0.442-0.179-0.615c-0.014-0.171-0.072-0.337-0.178-0.496c-0.054-0.238-0.174-0.462-0.358-0.674
	C37.4,4.84,37.203,4.629,36.991,4.417c-0.238-0.238-0.456-0.45-0.654-0.635c-0.199-0.185-0.47-0.277-0.813-0.277
	c-0.45,0.053-0.694,0.245-0.734,0.575S34.69,4.748,34.61,5.091z M55.322,14.178c-0.317,0.079-0.595,0.113-0.834,0.099
	c-0.236-0.013-0.515,0.007-0.832,0.06c-0.371,0.159-0.709,0.397-1.012,0.714c-0.304,0.317-0.655,0.502-1.051,0.555
	c-0.451,0.186-0.854,0.292-1.211,0.317c-0.357,0.027-0.708,0.106-1.052,0.238c-0.186,0.159-0.396,0.324-0.635,0.496
	c-0.238,0.172-0.463,0.297-0.675,0.376c-0.238,0.212-0.548,0.337-0.933,0.377c-0.384,0.04-0.722,0.126-1.012,0.258
	c-0.423,0.317-0.548,0.694-0.377,1.131c0.172,0.436,0.417,0.773,0.735,1.011c0.211,0.159,0.409,0.357,0.595,0.596
	c0.185,0.238,0.382,0.411,0.595,0.516c0.132,0.027,0.264,0.06,0.396,0.1c0.132,0.04,0.29,0.085,0.477,0.138
	c0.237,0.185,0.416,0.403,0.535,0.655s0.283,0.484,0.497,0.695c0.265,0.159,0.495,0.29,0.693,0.396
	c0.198,0.107,0.364,0.253,0.496,0.438c0.105,0.237,0.205,0.436,0.298,0.595c0.092,0.158,0.165,0.291,0.218,0.396
	c0.238,0.239,0.431,0.417,0.576,0.536c0.146,0.12,0.243,0.244,0.297,0.377c0.238,0.316,0.429,0.621,0.575,0.911
	c0.146,0.292,0.417,0.451,0.814,0.477c0.264,0.08,0.488,0.04,0.675-0.118c0.185-0.16,0.33-0.37,0.436-0.635s0.199-0.53,0.278-0.794
	s0.171-0.515,0.276-0.754c0.105-0.211,0.252-0.37,0.438-0.476c0.185-0.105,0.331-0.291,0.437-0.555
	c0.025-0.212,0.04-0.403,0.04-0.576c0-0.171,0.025-0.403,0.079-0.693c0.132-0.159,0.224-0.352,0.276-0.576
	c0.054-0.225,0.094-0.39,0.12-0.497c0.132-0.131,0.29-0.276,0.476-0.436c0.185-0.159,0.318-0.344,0.397-0.556
	c0.08-0.238,0.146-0.462,0.198-0.674c0.053-0.211,0.093-0.45,0.118-0.714c0.08-0.159,0.119-0.377,0.119-0.655
	c0-0.278,0.053-0.496,0.16-0.655c0.185-0.423,0.396-0.714,0.635-0.873c0.237-0.159,0.461-0.449,0.674-0.873
	c0.052-0.211,0.113-0.556,0.179-1.032s0.032-0.859-0.099-1.151c-0.054-0.317-0.265-0.516-0.635-0.595
	c-0.371-0.08-0.729-0.092-1.073-0.04c-0.29,0-0.555,0.066-0.793,0.198c-0.237,0.133-0.423,0.285-0.555,0.457
	c-0.133,0.172-0.285,0.331-0.457,0.476S55.533,14.098,55.322,14.178z M52.069,47.149l-0.913,0.952
	c-0.132,0.16-0.237,0.357-0.317,0.596c-0.079,0.238-0.159,0.45-0.238,0.635c-0.238,0.213-0.496,0.411-0.773,0.596
	c-0.278,0.186-0.549,0.41-0.813,0.675c-0.106,0.078-0.246,0.198-0.417,0.356c-0.174,0.159-0.312,0.331-0.417,0.516
	c-0.265,0.105-0.544,0.219-0.834,0.338s-0.555,0.245-0.793,0.377c-0.187,0.265-0.39,0.647-0.615,1.15
	c-0.225,0.502-0.297,0.912-0.218,1.229c0.026,0.239,0.146,0.417,0.356,0.536c0.212,0.118,0.45,0.212,0.715,0.278
	s0.548,0.104,0.853,0.119c0.304,0.013,0.589,0.032,0.854,0.059c0.212,0.079,0.416,0.153,0.615,0.219
	c0.198,0.065,0.337,0.165,0.417,0.298c0.185,0.185,0.343,0.317,0.475,0.396c0.133,0.079,0.331,0.173,0.596,0.278
	c0.318,0.237,0.707,0.377,1.171,0.415c0.463,0.04,0.893,0.14,1.289,0.299c0.185,0.078,0.37,0.238,0.556,0.476
	c0.185,0.238,0.383,0.397,0.596,0.477c0.396,0.186,0.799,0.277,1.209,0.277s0.841,0.093,1.291,0.278
	c0.264,0.237,0.501,0.515,0.714,0.832c0.211,0.317,0.528,0.477,0.951,0.477c0.37,0,0.629-0.151,0.774-0.456
	c0.146-0.304,0.237-0.635,0.277-0.992s0.047-0.733,0.021-1.13c-0.028-0.397-0.068-0.728-0.12-0.992
	c-0.213-0.186-0.396-0.357-0.555-0.517c-0.159-0.158-0.305-0.37-0.438-0.635c-0.211-0.344-0.37-0.753-0.476-1.229
	c-0.079-0.158-0.126-0.363-0.138-0.615c-0.014-0.251-0.074-0.495-0.18-0.734c-0.078-0.184-0.185-0.317-0.317-0.397
	c-0.132-0.078-0.237-0.237-0.317-0.476c-0.106-0.132-0.204-0.29-0.297-0.477c-0.093-0.184-0.165-0.383-0.219-0.595
	c-0.026-0.211-0.039-0.442-0.039-0.694c0-0.251-0.066-0.481-0.198-0.693c-0.186-0.45-0.417-0.807-0.695-1.071
	c-0.276-0.265-0.509-0.635-0.693-1.112c-0.106-0.37-0.239-0.779-0.397-1.229c-0.158-0.449-0.45-0.595-0.872-0.437
	c-0.345,0.054-0.609,0.225-0.794,0.517C52.519,46.607,52.307,46.887,52.069,47.149z M54.608,32.191
	c0.105,0.344,0.29,0.794,0.555,1.349c0.054,0.133,0.08,0.257,0.08,0.377s0.025,0.272,0.079,0.457c0.105,0.423,0.218,0.78,0.338,1.07
	c0.119,0.292,0.178,0.649,0.178,1.072c-0.025,0.449-0.152,0.753-0.377,0.912s-0.43,0.436-0.614,0.834
	c-0.027,0.158,0.012,0.37,0.119,0.635c0.104,0.265,0.118,0.489,0.039,0.675c-0.106,0.37-0.237,0.667-0.396,0.893
	c-0.159,0.225-0.173,0.522-0.04,0.893c0.025,0.555,0.352,0.886,0.972,0.991c0.621,0.107,1.211,0.04,1.767-0.197
	c0.29-0.212,0.535-0.432,0.733-0.656c0.199-0.224,0.442-0.402,0.735-0.535c0.37-0.132,0.78-0.198,1.229-0.198
	c0.45,0,0.873-0.053,1.27-0.159c0.264-0.185,0.482-0.389,0.653-0.614c0.174-0.224,0.392-0.403,0.656-0.535
	c0.186-0.053,0.33-0.1,0.436-0.139c0.105-0.04,0.225-0.101,0.357-0.179c0.317-0.027,0.601-0.04,0.854-0.04
	c0.251,0,0.443-0.053,0.575-0.158c0.503-0.239,0.847-0.482,1.032-0.735c0.185-0.251,0.501-0.456,0.951-0.614
	c0.371-0.105,0.754-0.152,1.151-0.14c0.396,0.014,0.741-0.072,1.031-0.257c0-0.105,0.025-0.238,0.08-0.397
	c0.053-0.159,0.079-0.251,0.079-0.277c0-0.45-0.185-0.734-0.555-0.854c-0.373-0.118-0.703-0.323-0.993-0.614
	c-0.265-0.133-0.496-0.312-0.693-0.536c-0.199-0.225-0.392-0.403-0.576-0.537c-0.476-0.158-0.939-0.224-1.39-0.197
	c-0.449,0.026-0.859-0.014-1.229-0.12c-0.396-0.159-0.722-0.377-0.972-0.656c-0.251-0.276-0.522-0.468-0.813-0.574
	c-0.371-0.159-0.701-0.225-0.992-0.199c-0.291,0.027-0.608-0.013-0.952-0.12c-0.424-0.051-0.741-0.25-0.953-0.595
	c-0.211-0.343-0.516-0.595-0.911-0.754c-0.239-0.131-0.656-0.21-1.251-0.236c-0.595-0.027-1.025-0.027-1.289,0
	c-0.397,0.105-0.694,0.297-0.893,0.574C54.47,31.378,54.449,31.742,54.608,32.191z"/>
</svg>
