<?xml version="1.0" encoding="iso-8859-1"?>
<!-- Generator: Adobe Illustrator 16.0.0, SVG Export Plug-In . SVG Version: 6.00 Build 0)  -->
<!DOCTYPE svg PUBLIC "-//W3C//DTD SVG 1.1//EN" "http://www.w3.org/Graphics/SVG/1.1/DTD/svg11.dtd">
<svg version="1.1" id="Layer_1" xmlns="http://www.w3.org/2000/svg" xmlns:xlink="http://www.w3.org/1999/xlink" x="0px" y="0px"
	 width="72.18px" height="70.921px" viewBox="0 0 72.18 70.921" style="enable-background:new 0 0 72.18 70.921;"
	 xml:space="preserve">
<g>
	<path style="fill-rule:evenodd;clip-rule:evenodd;fill:none;" d="M-6.983-6.839c28.799,0,57.599,0,86.399,0
		c0,28.296,0,56.59,0,84.887c-28.8,0-57.6,0-86.399,0C-6.983,49.751-6.983,21.457-6.983-6.839z M49.678,28.271
		c-0.251-0.441,0.068-0.719,0.148-1.042c-0.241-0.518-0.828-0.885-0.634-1.544c-0.33-0.33-0.646-0.626-0.938-0.944
		c-0.211-0.229-0.492-0.393-0.597-0.724c-0.226-0.714-0.569-1.368-1.073-1.931c-0.042-0.048-0.06-0.118-0.076-0.152
		c-1.62-0.655-2.744-1.905-3.927-3.075c-0.223,0-0.437,0-0.822,0c-0.121-0.164-0.311-0.422-0.474-0.643c-0.243,0-0.423,0-0.664,0
		c-0.104,0.134-0.234,0.303-0.333,0.43c-0.421-0.001-0.783,0.076-1.024-0.256c-0.324,0.327-0.69,0.223-1.03,0.262
		c-0.623,0.071-1.244-0.122-1.882,0.145c-0.438,0.184-0.863,0.33-1.262,0.618c-0.366,0.264-0.912,0.279-1.272,0.548
		c-0.498,0.373-0.992,0.69-1.595,0.861c-0.182,0.051-0.302,0.299-0.464,0.44c-0.365,0.319-0.622,0.764-1.126,0.93
		c-0.153,0.05-0.339,0.225-0.372,0.373c-0.141,0.635-0.653,1.028-0.976,1.538c-0.468,0.741-0.825,1.569-1.361,2.234
		c-0.598,0.742-0.605,1.581-0.755,2.394c-0.121,0.662,0,1.365-0.035,2.047c-0.018,0.334,0.122,0.596,0.263,0.938
		c-0.317,0.264-0.646,0.537-0.933,0.775c0.121,0.436-0.051,0.652-0.24,0.8c-0.776,0.257-1.285-0.597-2.02-0.363
		c-0.524,0.765-0.212,1.636-0.307,2.441c0.55,0.96,1.414,1.61,2.165,2.355c0.183,0.184,0.511,0.286,0.805,0.385
		c0.596,0.199,1.286,0.262,1.683,0.854c0.521,0,1.06-0.117,1.517,0.024c0.835,0.262,1.669,0.474,2.532,0.378
		c0.827-0.091,1.643,0.076,2.381,0.282c0.933,0.259,1.83,0.049,2.732,0.166c0.389-0.315,0.944-0.115,1.332-0.438
		c0.696,0.503,1.293,0.141,1.889-0.21c0.471,0,1.017,0.152,1.388-0.037c0.499-0.256,0.969-0.092,1.44-0.182
		c0.473-0.09,0.921-0.28,1.424-0.222c0.355,0.042,0.718,0.009,0.863,0.009c0.642-0.266,1.108-0.447,1.564-0.652
		c0.354-0.158,0.714-0.203,1.1-0.229c0.394-0.025,0.678-0.405,1.115-0.435c0.251-0.017,0.47-0.28,0.786-0.204
		c0.434-0.664,1.234-0.911,1.638-1.426c0.519-0.123,0.899-0.249,1.221-0.595c0-0.356,0-0.742,0-1.147
		c-0.329-0.163-0.359-0.566-0.609-0.82c-0.017-0.748-0.017-0.748-0.312-1.167c-0.307,0-0.621,0-1.188,0
		c-0.014,0.051-0.073,0.28-0.099,0.37c-0.35,0.106-0.367-0.243-0.584-0.176c-0.28,0.148-0.613,0.208-0.714,0.602
		c-0.067,0.261-0.405,0.341-0.59,0.359c-0.48,0.046-0.816,0.367-1.16,0.59c-0.472,0.307-0.929,0.494-1.465,0.663
		c-0.502,0.158-0.965,0.139-1.439,0.148c-0.522,0.009-0.949,0.156-1.293,0.535c-0.119,0.13-0.204,0.292-0.321,0.465
		c-0.936-0.625-1.956-0.077-2.817-0.551c-0.055-0.03-0.178-0.035-0.208,0.001c-0.316,0.363-0.733,0.156-1.104,0.212
		c-0.168,0.026-0.33-0.025-0.514,0.062c-0.521,0.248-1.047,0.207-1.602,0.005c-0.493-0.18-1.024-0.133-1.481,0.161
		c-0.135-0.085-0.248-0.216-0.364-0.219c-0.424-0.01-0.979-0.14-1.247,0.074c-0.5,0.4-0.779-0.218-1.166-0.086
		c-0.032,0.011-0.091-0.014-0.104,0.004c-0.308,0.389-0.73,0.143-1.082,0.22c-0.388-0.494-0.945-0.619-1.479-0.633
		c-0.607-0.016-1.145-0.139-1.659-0.448c-0.284-0.171-0.594-0.299-0.894-0.447c-0.293,0.27-0.627,0.275-0.979,0.188
		c-0.121-0.157-0.376-0.246-0.23-0.598c0.377,0,0.79,0,1.144,0c0.185-0.25-0.017-0.511,0.23-0.673
		c0.737,0.12,1.522-0.17,2.274,0.212c0.218,0.112,0.53,0.031,0.783-0.176c0.084-0.068,0.25-0.192,0.413-0.206
		c0.119,0.267,0.494,0.118,0.604,0.399c0.58,0.013,1.191-0.103,1.676,0.37c0.145,0.141,0.378,0.11,0.506,0.049
		c0.496-0.238,0.967-0.298,1.447,0.014c1.047-0.117,2.124,0.247,3.154-0.207c0.15-0.066,0.44-0.085,0.521,0.004
		c0.404,0.453,0.838,0.136,1.108-0.047c0.318-0.215,0.603-0.171,0.905-0.176c0.762-0.011,1.473-0.232,2.2-0.422
		c0.687-0.179,1.284-0.56,1.944-0.709c0.464-1.048,0.285-2.066-0.029-3.255c-0.112-0.095-0.358-0.3-0.575-0.482
		c0-0.483-0.011-0.915,0.003-1.347c0.014-0.426-0.148-0.857-0.371-1.133c-0.487-0.605-0.563-1.223-0.45-1.924
		c0.112-0.011,0.182-0.017,0.313-0.028c0.247,0.563,0.345,1.245,0.931,1.638c0.051,0.034-0.023,0.217,0.013,0.313
		c0.206,0.562,0.435,1.116,0.641,1.678c0.207,0.562,0.286,1.192,0.668,1.661c0.3,0.368,0.306,0.82,0.147,1.084
		c-0.236,0.395-0.089,0.748-0.176,1.093c0.186,0.109,0.233,0.335,0.452,0.318c0.427-0.365,0.948-0.151,1.315-0.222
		c0.774-0.312,1.169-0.927,1.688-1.381C50.325,29.334,50.181,28.751,49.678,28.271z M51.425,50.851
		c-1.474-0.163-1.479,1.056-1.906,1.926c-0.337,0-0.769,0.129-1.027-0.028c-0.452-0.274-0.892-0.174-1.332-0.179
		c-0.851-0.011-1.094,0.24-1.461,1.144c-0.075,0.185-0.105,0.472-0.354,0.576c-0.448-0.097-0.454-0.088-0.764-0.386
		c-1.232-0.32-1.765,0.68-2.414,1.233c-0.558,0.08-0.825-0.336-1.267-0.426c-0.158,0.141-0.336,0.3-0.439,0.392
		c-0.836,0.164-1.548-0.049-2.269-0.169c-0.783-0.131-1.501,0.388-2.433,0.16c-0.109-0.136-0.311-0.386-0.486-0.604
		c-0.642,0-1.213,0-1.683,0c-0.77-0.395-1.522-0.606-2.089-1.089c-0.423,0.205-0.799,0.368-1.054,0.723
		c-0.247-0.274-0.668-0.154-0.777-0.622c-0.072-0.304-0.437-0.542-0.617-0.748c-0.489,0-0.843,0-1.21,0
		c-0.17-0.268-0.335-0.525-0.537-0.842c-0.535,0.064-1.002-0.389-1.518-0.212c-0.232-0.211-0.418-0.379-0.594-0.539
		c0-0.598,0-1.171,0-1.615c-0.31-0.813-1.02-1.22-1.159-1.975c-0.966,0.226-1.467,0.568-2.507,1.68c0,0.324-0.114,0.711,0.024,0.959
		c0.286,0.512,0.187,1.03,0.18,1.542c-0.008,0.548,0.155,1.117-0.188,1.648c-0.09,0.14-0.059,0.476,0.053,0.602
		c0.207,0.23,0.121,0.468,0.146,0.702c0.063,0.583-0.141,1.188,0.2,1.756c0.079,0.132,0.06,0.396-0.052,0.609
		c-0.311,0.598-0.193,1.264-0.104,1.872c0.083,0.565,0.435,1.08,1.027,1.416c0.23-0.217,0.376,0.104,0.583,0.166
		c0.185-0.248,0.554-0.188,0.724-0.562c0-1.595,0-3.275,0-4.934c0.139-0.122,0.231-0.252,0.354-0.298
		c0.124-0.047,0.279-0.011,0.371-0.011c0.739,1.16,1.743,1.675,2.995,1.511c0.459,0.268,0.7,0.656,1.108,0.906
		c0.343,0.21,0.702,0.032,1.146,0.378c-0.014-0.021,0.086,0.127,0.166,0.246c0.636,0,1.207,0,1.778,0
		c0.463,0.152,0.719,0.554,1.012,0.813c1.345,0.161,2.649-0.11,3.959,0.217c0.721,0.181,1.515-0.03,2.282-0.147
		c0.949-0.145,1.94-0.075,2.908-0.022c0.898,0.048,1.7-0.21,2.423-0.673c0.72-0.463,1.46-0.738,2.242-0.632
		c0.801-0.781,1.741-1.211,2.636-1.682c0.291-0.152,0.594-0.364,0.886-0.445c0.368-0.103,0.702-0.223,1.015-0.429
		c0.113-0.072,0.327,0.006,0.357-0.155c0.104-0.556,0.68-0.462,1.004-0.714c0.215-0.169,0.701-0.122,0.963,0.342
		c-0.086,1.008-0.01,2.066,0.504,3.051c0.269-0.068,0.376,0.309,0.605,0.255c0.379-0.188,0.418-0.565,0.604-0.846
		c0-1.151,0-2.303,0-3.454c0-0.288,0-0.576,0-0.863c0-0.246-0.167-0.451-0.25-0.652c-0.168-0.41-0.17-0.807-0.182-1.167
		c-0.479-0.744-0.659-1.65-1.43-2.074c-0.326,0-0.607,0-0.91,0c-0.184,0.553-0.363,1.091-0.563,1.688
		C51.927,50.348,51.699,50.577,51.425,50.851z M40.531,6.393c-0.462-0.376-1.055-0.433-1.618-0.475
		c-0.786-0.057-1.581-0.019-2.373-0.01c-0.202,0.002-0.391,0.053-0.594,0.121c-0.601,0.202-1.045,0.632-1.573,0.906
		c-0.568,0.295-0.643,0.721-0.771,1.191c0.255,0.368,0.756,0.469,0.847,0.906c-0.671,0.967-1.897,1.418-2.273,2.558
		c-0.458,0.289-0.962,0.375-1.224,0.769c-0.607,0.134-1.03-0.156-1.396-0.471c0-0.427,0-0.813,0-1.253
		c0.889,0.172,1.512-0.226,2.012-0.849c0.167,0,0.309,0,0.308,0c0.478-0.478,0.881-0.88,1.324-1.323
		c0.07-0.62-0.559-0.595-0.893-0.85c-0.839,0.427-1.549,1.037-2.426,1.122c-1.518,1.221-2.545,2.842-3.931,4.073
		c-0.207,0.034-0.364,0.025-0.542,0.1c-0.375,0.157-0.578,0.523-0.903,0.688c-0.869,0.442-1.63,1.01-2.321,1.69
		c-0.408,0.401-1.023,0.276-1.506,0.533c-0.203,0.108-0.518-0.08-0.775-0.149c-0.573-0.152-1.172-0.501-1.805-0.177
		c0,0.386,0,0.771,0,1.129c0.127,0.127,0.225,0.234,0.331,0.33c0.784,0.705,1.601,1.082,2.703,0.636
		c1.08-0.438,2.09-1.023,3.189-1.419c0.978-0.352,1.774-1.061,2.741-1.458c0.438-0.181,0.774-0.289,1.144,0.146
		c0.007,0.361,0.128,0.768-0.168,1.129c0.28,0.065,0.082,0.422,0.294,0.494c0.386,0,0.743,0,1.096,0
		c0.923-1.013,2.204-1.52,3.306-2.371c0.072,0,0.215,0,0.355,0c0.283-0.284,0.563-0.563,0.88-0.88
		c0.384,0.229,0.635-0.377,1.127-0.159c0.188-0.225,0.393-0.471,0.598-0.716c0.589-0.191,1.164-0.258,1.75-0.145
		c0.158,0.159,0.312,0.312,0.508,0.507c-0.126,0.784,0.101,1.601-0.182,2.456c-0.205,0.62-0.177,1.409,0.489,1.943
		c0.436,0,0.893,0,1.327,0c0.327-0.328,0.633-0.633,0.913-0.914c0.191-2.328-0.215-4.648,0.247-6.945
		C40.938,8.303,40.457,7.388,40.531,6.393z M51.097,56.881c-0.493,0.016-1.081-0.047-1.653,0.207
		c-0.636,0.284-1.225,0.688-1.961,0.759c-0.167,0.017-0.457,0.113-0.609,0.348c-0.109,0.168-0.29,0.32-0.473,0.404
		c-0.422,0.197-0.898,0.292-1.288,0.532c-0.414,0.256-0.376,0.873-0.818,1.216c-0.115-0.162-0.236-0.33-0.317-0.442
		c-0.455,0-0.814,0-1.174,0c-0.51,0.199-0.839,0.611-1.198,1.004c0,0.498,0,0.999,0,1.482c-0.112,0.117-0.212,0.22-0.313,0.324
		c-0.272-0.589-0.257-0.586-0.118-1.295c0.037-0.192,0.073-0.422-0.012-0.546c-0.244-0.336-0.567-0.49-0.83-0.509
		c-0.357-0.025-0.651-0.197-1.085-0.299c-0.277,0.281-0.576,0.583-0.918,0.928c-0.495-0.277-1.023-0.607-1.654-0.791
		c-0.516-0.152-0.873,0.006-1.249,0.191c-0.241,0.118-0.405,0.395-0.605,0.602c-0.35-0.435-1.017-0.517-1.154-1.146
		c-0.015-0.069-0.18-0.094-0.246-0.165c-0.466-0.515-1.058,0.051-1.578-0.196c-0.288-0.136-0.521,0.252-0.817,0.313
		c0,0.513,0,1.015,0,1.434c-0.173,0.334-0.311,0.602-0.502,0.973c0.474,0.315,0.213,0.849,0.313,1.271
		c0.365,0.184,0.693,0.348,0.986,0.495c0.78,0.22,1.438-0.338,2.039-0.199c0.69-0.356,0.427-1.152,0.996-1.501
		c0.121,0.875,0.566,1.469,1.342,1.836c0.31,0.146,0.582,0.16,0.881,0.006c0.414-0.215,0.834-0.417,1.273-0.635
		c0.103-0.151-0.098-0.412,0.133-0.551c0.222,0,0.437,0,0.65,0c0.125,0.381,0.363,0.663,0.655,0.838c0.262,0,0.472,0,0.532,0
		c0.435-0.169,0.514-0.564,0.912-0.642c0.162,0.141,0.344,0.299,0.516,0.448c1.538,0,1.82-0.066,2.778-0.646
		c0.428,0,0.858,0,1.256,0c0.895-0.598,1.867-0.842,2.882-0.898c0.267-0.269,0.538-0.509,0.771-0.78
		c0.213-0.249,0.536-0.458,0.774-0.452c0.678,0.015,1.047-0.467,1.527-0.769c0.12-0.075,0.19-0.255,0.313-0.294
		c0.701-0.221,0.795-0.768,0.797-1.386c0-0.236-0.059-0.474,0.164-0.695c0.121-0.123,0.112-0.394-0.069-0.571
		c-0.212-0.209-0.051-0.478-0.104-0.729c-0.217-0.195-0.357-0.51-0.71-0.571C51.733,56.048,51.706,56.604,51.097,56.881z
		 M25.64,49.158c0.341,0.362,0.659,0.701,0.956,1.018c0.32,0,0.605,0,0.882,0c0.149-0.159,0.084-0.43,0.314-0.53
		c0-0.646,0-1.292,0-1.905c0.265-0.424,0.515-0.825,0.765-1.227c0.902-0.013,1.823-0.063,2.467,0.751
		c0.081,1.608-0.26,3.245,0.617,4.928c0.222,0.211,0.545,0.637,1.018,0.782c0.901,0.108,1.547-0.146,1.792-0.916
		c0.147-1.079-0.173-2.083,0.257-3.042c-0.403-0.223-0.165-0.638-0.274-0.957c-0.398-1.169-0.44-1.985-0.036-3.045
		c0.18-0.47,0.003-0.788-0.139-1.13c0.448-0.571,0.114-1.203,0.258-1.823c-0.228-0.211-0.435-0.481-0.708-0.633
		c-0.253-0.141-0.541-0.474-0.826-0.3c-0.536,0.325-1.099,0.125-1.64,0.212c-0.102,0.103-0.204,0.204-0.315,0.315
		c0.003,0.541,0.13,1.15-0.305,1.577c-0.43,0.421-0.738,0.929-1.132,1.37c-0.067,0.075-0.155,0.131-0.186,0.157
		c-0.343,0-0.624,0-0.969,0c-0.2-1.106-0.712-2.134-0.644-3.288c0.026-0.438-0.104-0.813-0.429-1.116
		c-0.184-0.172-0.357-0.355-0.535-0.533c-0.347,0-0.727-0.111-0.93,0.291c-0.195,0.4,0.045,0.73,0.152,0.946
		c-0.255,0.539-0.176,1.054-0.415,1.469c-0.03,0.053-0.029,0.17,0.008,0.205c0.275,0.268,0.244,0.492,0.058,0.832
		c-0.134,0.241-0.155,0.693-0.01,0.906c0.216,0.316,0.118,0.611,0.153,0.912c0.06,0.512-0.109,1.039,0.198,1.54
		c0.092,0.15,0.031,0.443-0.084,0.698C25.739,48.113,25.514,48.637,25.64,49.158z M43.453,44.784c0.127,0.127,0.2,0.17,0.226,0.23
		c0.242,0.579-0.083,1.255,0.31,1.813c0.034,0.049,0.005,0.141,0.005,0.213c0,0.071,0.03,0.18-0.005,0.209
		c-0.38,0.313-0.193,0.732-0.204,1.102c-0.024,0.861-0.008,1.726-0.008,2.266c0.194,0.833,0.61,1.16,0.985,1.505
		c0.295,0,0.581,0,0.762,0c0.385-0.384,0.711-0.709,1.039-1.036c0.334-0.49,0.396-1.132,0.194-1.593
		c-0.25-0.575-0.079-1.112-0.176-1.653c-0.061-0.344,0.147-0.615,0.305-0.84c0.249-0.355,0.562-0.696,1-0.797
		c0.052-0.727-0.613-0.889-0.869-1.346c0.064-1.312-0.294-2.588-0.466-3.887c-0.397-0.381-0.737-0.844-1.336-0.938
		c-0.765,0.464-0.765,0.464-1.222,1.191c0,0.527-0.005,1.065,0.001,1.604c0.006,0.504,0.024,1.009-0.592,1.454
		c0.012-0.604-0.511-0.777-0.594-1.161c-0.629-0.32-1.222-0.621-1.846-0.938c-0.24,0.131-0.503,0.274-0.744,0.406
		c-0.372-0.191-0.748-0.383-1.068-0.547c-0.605,0.226-1.069,0.701-1.747,0.584c-0.502,0.548-1.206,0.396-1.832,0.453
		c0,0.437,0,0.795,0,1.176c0.169,0.158,0.352,0.33,0.565,0.53c0.169,0,0.384-0.018,0.595,0.005c0.208,0.023,0.326-0.187,0.454-0.196
		c0.38-0.028,0.812-0.156,1.142,0.063c0.315,0.206,0.698,0.216,0.904,0.101c0.55-0.304,1.1-0.116,1.546-0.186
		c0.44,0.227,0.797,0.41,1.236,0.636C42.486,45.271,43.026,45.237,43.453,44.784z M48.756,39.915
		c-0.114,0.798,0.44,1.583,0.183,2.362c-0.255,0.768-0.146,1.525-0.199,2.288c-0.023,0.337,0.099,0.678-0.187,1.011
		c-0.116,0.137-0.104,0.519,0.127,0.782c0.311,0.356,0.313,0.823,0.282,1.281c-0.016,0.245-0.003,0.493-0.003,0.727
		c0.287,0.131,0.155,0.488,0.41,0.616c0.091,0.045,0.152,0.146,0.378,0.099c0.119-0.146,0.298-0.361,0.504-0.609
		c-0.022-0.388,0.331-0.77,0.226-1.247c-0.113-0.514,0.198-0.912,0.314-1.122c0.368-0.973-0.355-1.735,0.105-2.511
		c0.076-0.127-0.124-0.271-0.127-0.364c-0.009-0.481-0.499-0.942-0.249-1.367c0.294-0.496-0.034-1.031,0.193-1.429
		c0.28-0.49,0.122-0.945,0.19-1.352c-0.206-0.277-0.406-0.401-0.776-0.321C49.827,39.24,49.168,39.413,48.756,39.915z
		 M27.264,57.743c-0.227,0-0.441,0-0.662,0c-0.172,0.176-0.346,0.354-0.509,0.521c-0.03,0.392,0.069,0.864-0.12,1.136
		c-0.239,0.345-0.019,0.726-0.299,1.082c-0.208,0.265-0.041,0.826-0.041,1.209c0.323,0.588,0.923,0.845,1.431,0.975
		c0.703,0.181,1.365,0.691,2.168,0.445c0.385-0.267,0.383-0.652,0.193-1.01c-0.09-0.17-0.173-0.344-0.109-0.484
		c0.205-0.452,0.279-0.848,0.061-1.357c-0.179-0.418-0.111-0.94-0.553-1.376C28.226,58.78,27.777,58.3,27.264,57.743z M35.469,67.68
		c-0.655,0.55-1.308,0.541-2.014,0.165c-0.448-0.237-0.966-0.546-1.444-0.343c-0.43,0.18-1.064,0.197-1.205,0.896
		c0.224,0.337,0.581,0.54,0.994,0.566c0.589,0.038,1.178-0.013,1.75,0.215c0.182,0.072,0.507,0.086,0.618-0.024
		c0.288-0.282,0.606-0.165,0.907-0.173c0.863-0.02,1.727-0.007,2.591-0.007c0.252,0,0.55-0.088,0.747,0.016
		c0.965,0.498,1.766,0.126,2.558-0.369c0.02-0.285-0.208-0.367-0.249-0.409c-1.175-0.43-2.104,0.357-3.159,0.335
		c-0.282-0.306-0.549-0.595-0.8-0.868C36.333,67.68,35.937,67.68,35.469,67.68z M41.791,68.446c0.757,0.296,1.338-0.161,1.952-0.106
		c0.79,0.067,1.478-0.214,2.158-0.526c0.538-0.246,1.082-0.415,1.662-0.341c0.174-0.261,0.484-0.367,0.54-0.649
		c-0.029-0.234-0.233-0.292-0.327-0.438c-0.36,0-0.719,0-1.092,0c-0.328,0.469-0.916,0.546-1.285,0.818
		C44.067,67.356,42.808,67.474,41.791,68.446z"/>
	<path style="fill-rule:evenodd;clip-rule:evenodd;" d="M49.678,28.271c0.503,0.48,0.646,1.063,0.566,1.736
		c-0.519,0.454-0.913,1.069-1.688,1.381c-0.367,0.071-0.889-0.143-1.315,0.222c-0.219,0.017-0.267-0.209-0.452-0.318
		c0.087-0.345-0.061-0.699,0.176-1.093c0.158-0.264,0.152-0.716-0.147-1.084c-0.382-0.469-0.461-1.1-0.668-1.661
		c-0.206-0.562-0.435-1.116-0.641-1.678c-0.036-0.096,0.038-0.279-0.013-0.313c-0.586-0.394-0.684-1.076-0.931-1.638
		c-0.131,0.012-0.2,0.018-0.313,0.028c-0.113,0.701-0.037,1.319,0.45,1.924c0.223,0.276,0.385,0.707,0.371,1.133
		c-0.014,0.432-0.003,0.864-0.003,1.347c0.217,0.182,0.463,0.387,0.575,0.482c0.314,1.188,0.493,2.207,0.029,3.255
		c-0.66,0.149-1.258,0.53-1.944,0.709c-0.728,0.189-1.438,0.411-2.2,0.422c-0.303,0.005-0.587-0.039-0.905,0.176
		c-0.271,0.183-0.704,0.5-1.108,0.047c-0.081-0.089-0.371-0.07-0.521-0.004c-1.03,0.454-2.107,0.09-3.154,0.207
		c-0.48-0.312-0.951-0.252-1.447-0.014c-0.127,0.061-0.361,0.091-0.506-0.049c-0.485-0.473-1.097-0.357-1.676-0.37
		c-0.111-0.281-0.486-0.132-0.604-0.399c-0.163,0.013-0.329,0.137-0.413,0.206c-0.252,0.207-0.564,0.289-0.783,0.176
		c-0.752-0.382-1.537-0.092-2.274-0.212c-0.247,0.162-0.045,0.423-0.23,0.673c-0.354,0-0.767,0-1.144,0
		c-0.146,0.352,0.11,0.44,0.23,0.598c0.352,0.088,0.686,0.082,0.979-0.188c0.299,0.147,0.61,0.276,0.894,0.447
		c0.515,0.309,1.052,0.433,1.659,0.448c0.533,0.015,1.091,0.139,1.479,0.633c0.352-0.077,0.774,0.169,1.082-0.22
		c0.013-0.018,0.072,0.007,0.104-0.004c0.387-0.132,0.667,0.486,1.166,0.086c0.268-0.214,0.823-0.083,1.247-0.074
		c0.116,0.003,0.229,0.133,0.364,0.219c0.457-0.294,0.988-0.341,1.481-0.161c0.555,0.202,1.08,0.243,1.602-0.005
		c0.184-0.086,0.346-0.036,0.514-0.062c0.371-0.056,0.788,0.15,1.104-0.212c0.03-0.036,0.153-0.032,0.208-0.001
		c0.861,0.474,1.882-0.074,2.817,0.551c0.117-0.173,0.202-0.335,0.321-0.465c0.344-0.379,0.771-0.526,1.293-0.535
		c0.475-0.01,0.938,0.009,1.439-0.148c0.536-0.168,0.993-0.356,1.465-0.663c0.344-0.223,0.68-0.543,1.16-0.59
		c0.185-0.019,0.522-0.099,0.59-0.359c0.101-0.394,0.434-0.454,0.714-0.602c0.217-0.067,0.234,0.282,0.584,0.176
		c0.025-0.09,0.085-0.319,0.099-0.37c0.567,0,0.882,0,1.188,0c0.295,0.419,0.295,0.419,0.312,1.167
		c0.25,0.254,0.28,0.658,0.609,0.82c0,0.405,0,0.791,0,1.147c-0.321,0.346-0.702,0.472-1.221,0.595
		c-0.403,0.515-1.204,0.762-1.638,1.426c-0.316-0.076-0.535,0.188-0.786,0.204c-0.438,0.029-0.722,0.409-1.115,0.435
		c-0.386,0.025-0.746,0.07-1.1,0.229c-0.456,0.205-0.923,0.387-1.564,0.652c-0.146,0-0.508,0.033-0.863-0.009
		c-0.503-0.059-0.951,0.132-1.424,0.222c-0.472,0.09-0.941-0.074-1.44,0.182c-0.371,0.189-0.917,0.037-1.388,0.037
		c-0.596,0.351-1.192,0.713-1.889,0.21c-0.388,0.323-0.943,0.123-1.332,0.438c-0.902-0.117-1.799,0.093-2.732-0.166
		c-0.739-0.206-1.555-0.373-2.381-0.282c-0.862,0.096-1.697-0.116-2.532-0.378c-0.458-0.142-0.996-0.024-1.517-0.024
		c-0.397-0.593-1.087-0.655-1.683-0.854c-0.294-0.099-0.622-0.201-0.805-0.385c-0.751-0.745-1.615-1.395-2.165-2.355
		c0.095-0.805-0.217-1.676,0.307-2.441c0.735-0.234,1.244,0.62,2.02,0.363c0.189-0.148,0.361-0.364,0.24-0.8
		c0.288-0.239,0.616-0.511,0.933-0.775c-0.142-0.341-0.281-0.603-0.263-0.938c0.036-0.682-0.086-1.385,0.035-2.047
		c0.15-0.813,0.158-1.651,0.755-2.394c0.536-0.665,0.893-1.493,1.361-2.234c0.323-0.51,0.835-0.902,0.976-1.538
		c0.033-0.148,0.219-0.323,0.372-0.373c0.505-0.166,0.761-0.61,1.126-0.93c0.162-0.142,0.283-0.39,0.464-0.44
		c0.603-0.171,1.097-0.489,1.595-0.861c0.36-0.269,0.906-0.285,1.272-0.548c0.399-0.288,0.823-0.434,1.262-0.618
		c0.638-0.267,1.259-0.074,1.882-0.145c0.34-0.039,0.706,0.065,1.03-0.262c0.241,0.332,0.604,0.254,1.024,0.256
		c0.099-0.127,0.229-0.296,0.333-0.43c0.241,0,0.421,0,0.664,0c0.163,0.221,0.353,0.479,0.474,0.643c0.386,0,0.6,0,0.822,0
		c1.183,1.17,2.307,2.42,3.927,3.075c0.017,0.034,0.034,0.104,0.076,0.152c0.504,0.563,0.848,1.217,1.073,1.931
		c0.104,0.331,0.386,0.494,0.597,0.724c0.292,0.318,0.607,0.614,0.938,0.944c-0.194,0.659,0.393,1.026,0.634,1.544
		C49.747,27.553,49.427,27.83,49.678,28.271z M30.168,29.094c0,0.462,0,1.11,0,1.759c0.494,0.477,0.494,0.477,1.196,0.748
		c0.164-1.106,0.152-1.314-0.116-2.03c0.385-0.304,0.208-0.729,0.206-1.098c-0.004-0.675,0.163-1.348,0.577-1.802
		c0.431-0.474,0.566-1.116,1.043-1.524c0.241-0.206-0.026-0.572,0.297-0.75c0.236-0.129,0.54-0.171,0.678-0.456
		c-0.022-0.164,0.073-0.348-0.027-0.463c-0.618,0.618-1.238,1.238-1.862,1.862c-0.163,0.628-0.721,1.139-0.87,1.757
		C31.105,27.871,30.404,28.228,30.168,29.094z M39.999,27.088c0.047-0.095,0.095-0.152,0.103-0.215
		c0.153-1.17-0.301-2.305-0.213-3.472c-0.329-0.292-0.049-0.943-0.64-1.082c-0.216-0.008-0.271,0.208-0.418,0.301
		c-0.045,0.414-0.027,0.799,0.178,1.201c0.256,0.498,0.387,1.111,0.191,1.614c-0.122,0.313-0.147,0.588-0.167,0.909
		C39.37,26.562,39.535,27.02,39.999,27.088z M40.289,28.872c-0.236-0.196-0.418-0.435-0.519-0.748
		c-0.181,0.078-0.376-0.056-0.535,0.145c0.076,0.944-0.146,1.868-0.438,2.822c0.323,0.103,0.154,0.407,0.245,0.612
		c0.071,0.161,0.219,0.378,0.497,0.335c0.196-0.182,0.399-0.369,0.598-0.553C39.92,30.598,40.451,29.812,40.289,28.872z"/>
	<path style="fill-rule:evenodd;clip-rule:evenodd;" d="M51.425,50.851c0.273-0.273,0.502-0.503,0.681-0.681
		c0.199-0.598,0.379-1.136,0.563-1.688c0.303,0,0.584,0,0.91,0c0.771,0.424,0.95,1.33,1.43,2.074
		c0.012,0.36,0.014,0.757,0.182,1.167c0.083,0.201,0.25,0.406,0.25,0.652c0,0.287,0,0.575,0,0.863c0,1.151,0,2.303-0.001,3.454
		c-0.185,0.28-0.224,0.657-0.603,0.846c-0.229,0.054-0.337-0.323-0.605-0.255c-0.514-0.984-0.59-2.043-0.504-3.051
		c-0.262-0.464-0.748-0.511-0.963-0.342c-0.324,0.252-0.9,0.158-1.004,0.714c-0.03,0.161-0.244,0.083-0.357,0.155
		c-0.313,0.206-0.646,0.326-1.015,0.429c-0.292,0.081-0.595,0.293-0.886,0.445c-0.895,0.471-1.835,0.9-2.636,1.682
		c-0.782-0.106-1.522,0.169-2.242,0.632c-0.723,0.463-1.524,0.721-2.423,0.673c-0.968-0.053-1.959-0.122-2.908,0.022
		c-0.768,0.117-1.562,0.328-2.282,0.147c-1.311-0.327-2.615-0.056-3.959-0.217c-0.293-0.259-0.549-0.66-1.012-0.813
		c-0.571,0-1.143,0-1.778,0c-0.08-0.119-0.18-0.267-0.166-0.246c-0.443-0.346-0.803-0.168-1.146-0.378
		c-0.408-0.25-0.649-0.639-1.108-0.906c-1.252,0.164-2.255-0.351-2.995-1.511c-0.092,0-0.247-0.036-0.371,0.011
		c-0.124,0.046-0.215,0.176-0.354,0.298c0,1.658,0,3.339,0,4.934c-0.17,0.374-0.539,0.313-0.724,0.562
		c-0.206-0.062-0.353-0.383-0.583-0.166c-0.593-0.336-0.945-0.851-1.027-1.416c-0.089-0.608-0.208-1.274,0.104-1.872
		c0.112-0.214,0.131-0.478,0.052-0.609c-0.341-0.568-0.137-1.173-0.2-1.756c-0.025-0.234,0.062-0.472-0.146-0.702
		c-0.111-0.126-0.143-0.462-0.053-0.602c0.343-0.531,0.18-1.101,0.188-1.648c0.007-0.512,0.105-1.03-0.18-1.542
		c-0.138-0.248-0.024-0.635-0.024-0.959c1.04-1.111,1.541-1.454,2.507-1.68c0.14,0.755,0.85,1.162,1.159,1.975
		c0,0.444,0,1.018,0,1.615c0.176,0.16,0.362,0.328,0.594,0.539c0.516-0.177,0.982,0.276,1.518,0.212
		c0.202,0.316,0.366,0.574,0.537,0.842c0.367,0,0.721,0,1.21,0c0.18,0.206,0.544,0.444,0.617,0.748
		c0.109,0.468,0.531,0.348,0.777,0.622c0.255-0.354,0.631-0.518,1.054-0.723c0.567,0.482,1.32,0.694,2.089,1.089
		c0.469,0,1.041,0,1.683,0c0.176,0.218,0.377,0.468,0.486,0.604c0.932,0.228,1.65-0.291,2.433-0.16
		c0.721,0.12,1.433,0.333,2.269,0.169c0.104-0.092,0.281-0.251,0.439-0.392c0.441,0.09,0.709,0.506,1.267,0.426
		c0.649-0.554,1.182-1.554,2.414-1.233c0.31,0.298,0.315,0.289,0.764,0.386c0.249-0.104,0.279-0.392,0.354-0.576
		c0.367-0.903,0.61-1.154,1.461-1.144c0.44,0.005,0.88-0.096,1.332,0.179c0.259,0.157,0.69,0.028,1.027,0.028
		C49.946,51.906,49.952,50.688,51.425,50.851z"/>
	<path style="fill-rule:evenodd;clip-rule:evenodd;" d="M40.531,6.393c-0.074,0.995,0.407,1.91,0.216,2.863
		c-0.462,2.296-0.056,4.617-0.247,6.945c-0.28,0.281-0.586,0.586-0.913,0.914c-0.435,0-0.892,0-1.327,0
		c-0.666-0.534-0.694-1.323-0.489-1.943c0.282-0.855,0.056-1.672,0.182-2.456c-0.196-0.196-0.35-0.349-0.508-0.507
		c-0.586-0.114-1.161-0.046-1.75,0.145c-0.205,0.246-0.41,0.491-0.598,0.716c-0.493-0.218-0.744,0.389-1.127,0.159
		c-0.317,0.317-0.597,0.596-0.88,0.88c-0.14,0-0.283,0-0.355,0c-1.102,0.851-2.383,1.358-3.306,2.371c-0.353,0-0.71,0-1.096,0
		c-0.212-0.072-0.014-0.429-0.294-0.494c0.296-0.361,0.175-0.768,0.168-1.129c-0.37-0.435-0.707-0.327-1.144-0.146
		c-0.967,0.397-1.763,1.106-2.741,1.458c-1.099,0.396-2.109,0.981-3.189,1.419c-1.102,0.446-1.919,0.069-2.703-0.636
		c-0.106-0.096-0.204-0.203-0.331-0.33c0-0.359,0-0.744,0-1.13c0.633-0.323,1.232,0.025,1.805,0.178
		c0.258,0.069,0.573,0.257,0.775,0.149c0.483-0.257,1.099-0.132,1.506-0.533c0.691-0.681,1.452-1.248,2.321-1.69
		c0.325-0.165,0.529-0.531,0.903-0.688c0.177-0.075,0.335-0.065,0.542-0.1c1.386-1.231,2.413-2.852,3.931-4.073
		c0.877-0.085,1.587-0.694,2.426-1.122c0.334,0.255,0.962,0.23,0.893,0.85c-0.443,0.443-0.846,0.846-1.324,1.323
		c0.001,0-0.141,0-0.308,0c-0.5,0.623-1.123,1.021-2.012,0.849c0,0.44,0,0.827,0,1.253c0.365,0.315,0.788,0.604,1.396,0.471
		c0.262-0.394,0.766-0.48,1.224-0.769c0.376-1.14,1.602-1.591,2.273-2.558c-0.091-0.437-0.591-0.538-0.847-0.906
		c0.128-0.47,0.203-0.896,0.771-1.191c0.528-0.274,0.972-0.704,1.573-0.906c0.203-0.068,0.393-0.119,0.594-0.121
		c0.792-0.009,1.586-0.047,2.373,0.01C39.476,5.96,40.069,6.017,40.531,6.393z M37.125,7.693c-0.161,1.034,0.05,1.985,0.257,2.941
		c0.191,0.251,0.435,0.325,0.691,0.197c0.496-1.099,0.231-2.229,0.309-3.27c-0.209-0.352-0.47-0.408-0.768-0.35
		C37.435,7.389,37.256,7.565,37.125,7.693z"/>
	<path style="fill-rule:evenodd;clip-rule:evenodd;" d="M51.097,56.881c0.608-0.277,0.636-0.833,1.035-1.098
		c0.353,0.062,0.493,0.376,0.71,0.571c0.054,0.252-0.107,0.521,0.104,0.729c0.182,0.178,0.19,0.448,0.069,0.571
		c-0.223,0.222-0.164,0.459-0.164,0.695c-0.002,0.618-0.096,1.165-0.797,1.386c-0.122,0.039-0.192,0.219-0.313,0.294
		c-0.48,0.302-0.85,0.783-1.527,0.769c-0.238-0.006-0.562,0.203-0.774,0.452c-0.233,0.271-0.505,0.512-0.771,0.78
		c-1.015,0.057-1.987,0.301-2.882,0.898c-0.397,0-0.828,0-1.256,0c-0.958,0.58-1.24,0.646-2.778,0.646
		c-0.172-0.149-0.354-0.308-0.516-0.448c-0.398,0.077-0.478,0.473-0.912,0.642c-0.061,0-0.271,0-0.532,0
		c-0.292-0.175-0.53-0.457-0.655-0.838c-0.214,0-0.429,0-0.65,0c-0.23,0.139-0.03,0.399-0.133,0.551
		c-0.439,0.218-0.859,0.42-1.273,0.635c-0.299,0.154-0.571,0.141-0.881-0.006c-0.776-0.367-1.222-0.961-1.342-1.836
		c-0.569,0.349-0.305,1.145-0.996,1.501c-0.601-0.139-1.259,0.419-2.039,0.199c-0.293-0.147-0.621-0.312-0.986-0.495
		c-0.1-0.423,0.16-0.956-0.313-1.271c0.191-0.371,0.33-0.639,0.502-0.973c0-0.419,0-0.921,0-1.434
		c0.296-0.062,0.529-0.449,0.817-0.313c0.52,0.247,1.112-0.318,1.578,0.196c0.066,0.071,0.23,0.096,0.246,0.165
		c0.137,0.629,0.805,0.711,1.154,1.146c0.2-0.207,0.364-0.483,0.605-0.602c0.376-0.186,0.733-0.344,1.249-0.191
		c0.631,0.184,1.159,0.514,1.654,0.791c0.342-0.345,0.641-0.646,0.918-0.928c0.434,0.102,0.728,0.273,1.085,0.299
		c0.263,0.019,0.586,0.173,0.83,0.509c0.085,0.124,0.049,0.354,0.012,0.546c-0.139,0.709-0.154,0.706,0.118,1.295
		c0.101-0.104,0.2-0.207,0.313-0.324c0-0.483,0-0.984,0-1.482c0.359-0.393,0.688-0.805,1.198-1.004c0.359,0,0.719,0,1.174,0
		c0.081,0.112,0.202,0.28,0.317,0.442c0.442-0.343,0.404-0.96,0.818-1.216c0.39-0.24,0.866-0.335,1.288-0.532
		c0.183-0.084,0.363-0.236,0.473-0.404c0.152-0.234,0.442-0.331,0.609-0.348c0.736-0.071,1.325-0.475,1.961-0.759
		C50.016,56.834,50.604,56.896,51.097,56.881z"/>
	<path style="fill-rule:evenodd;clip-rule:evenodd;" d="M25.64,49.158c-0.125-0.521,0.1-1.045,0.319-1.535
		c0.115-0.255,0.176-0.548,0.084-0.698c-0.308-0.501-0.138-1.028-0.198-1.54c-0.036-0.301,0.063-0.596-0.153-0.912
		c-0.145-0.213-0.124-0.665,0.01-0.906c0.186-0.34,0.218-0.564-0.058-0.832c-0.037-0.035-0.038-0.152-0.008-0.205
		c0.239-0.415,0.16-0.93,0.415-1.469c-0.107-0.216-0.347-0.546-0.152-0.946c0.203-0.402,0.583-0.291,0.93-0.291
		c0.178,0.178,0.351,0.361,0.535,0.533c0.325,0.304,0.456,0.679,0.429,1.116c-0.068,1.154,0.443,2.182,0.644,3.288
		c0.345,0,0.625,0,0.969,0c0.031-0.026,0.119-0.082,0.186-0.157c0.394-0.441,0.702-0.949,1.132-1.37
		c0.436-0.427,0.308-1.036,0.305-1.577c0.111-0.111,0.213-0.213,0.315-0.315c0.542-0.087,1.104,0.113,1.64-0.212
		c0.286-0.174,0.573,0.159,0.826,0.3c0.273,0.151,0.48,0.422,0.708,0.633c-0.144,0.62,0.19,1.252-0.258,1.823
		c0.143,0.342,0.319,0.66,0.139,1.13c-0.405,1.06-0.362,1.876,0.036,3.045c0.109,0.319-0.129,0.734,0.274,0.957
		c-0.43,0.959-0.11,1.963-0.257,3.042c-0.245,0.771-0.891,1.024-1.792,0.916c-0.472-0.146-0.795-0.571-1.018-0.782
		c-0.877-1.683-0.536-3.319-0.617-4.928c-0.645-0.813-1.565-0.764-2.467-0.751c-0.25,0.401-0.5,0.803-0.765,1.227
		c0,0.613,0,1.259,0,1.905c-0.229,0.101-0.164,0.371-0.313,0.53c-0.277,0-0.562,0-0.882,0C26.298,49.859,25.98,49.521,25.64,49.158z
		"/>
	<path style="fill-rule:evenodd;clip-rule:evenodd;" d="M43.453,44.784c-0.427,0.453-0.967,0.486-1.438,0.422
		c-0.439-0.226-0.796-0.409-1.236-0.636c-0.446,0.069-0.996-0.118-1.546,0.186c-0.206,0.115-0.589,0.105-0.904-0.101
		c-0.33-0.219-0.762-0.091-1.142-0.063c-0.128,0.01-0.246,0.22-0.454,0.196c-0.211-0.022-0.426-0.005-0.595-0.005
		c-0.213-0.2-0.396-0.372-0.565-0.53c0-0.381,0-0.739,0-1.176c0.625-0.057,1.33,0.095,1.832-0.453
		c0.678,0.117,1.142-0.358,1.747-0.584c0.32,0.164,0.696,0.355,1.068,0.547c0.241-0.132,0.504-0.275,0.744-0.406
		c0.624,0.317,1.217,0.618,1.846,0.938c0.083,0.384,0.605,0.558,0.594,1.161c0.616-0.445,0.598-0.95,0.592-1.454
		c-0.006-0.538-0.001-1.076-0.001-1.604c0.457-0.728,0.457-0.728,1.222-1.191c0.599,0.094,0.938,0.557,1.336,0.938
		c0.172,1.299,0.53,2.575,0.466,3.887c0.256,0.457,0.921,0.619,0.869,1.346c-0.438,0.101-0.751,0.441-1,0.797
		c-0.157,0.225-0.365,0.496-0.305,0.84c0.097,0.541-0.074,1.078,0.176,1.653c0.201,0.461,0.14,1.103-0.194,1.593
		c-0.328,0.327-0.654,0.652-1.039,1.036c-0.181,0-0.467,0-0.762,0c-0.375-0.345-0.791-0.672-0.985-1.505
		c0-0.54-0.017-1.404,0.008-2.266c0.011-0.369-0.176-0.788,0.204-1.102c0.035-0.029,0.005-0.138,0.005-0.209
		c0-0.072,0.029-0.164-0.005-0.213c-0.393-0.558-0.067-1.233-0.31-1.813C43.653,44.954,43.58,44.911,43.453,44.784z"/>
	<path style="fill-rule:evenodd;clip-rule:evenodd;" d="M48.756,39.915c0.412-0.502,1.07-0.675,1.372-1.156
		c0.37-0.08,0.57,0.044,0.776,0.321c-0.068,0.406,0.09,0.861-0.19,1.352c-0.228,0.397,0.101,0.933-0.193,1.429
		c-0.25,0.425,0.24,0.886,0.249,1.367c0.003,0.093,0.203,0.237,0.127,0.364c-0.461,0.775,0.263,1.538-0.105,2.511
		c-0.116,0.21-0.428,0.608-0.314,1.122c0.105,0.478-0.248,0.859-0.226,1.247c-0.206,0.248-0.385,0.464-0.504,0.609
		c-0.226,0.048-0.287-0.054-0.378-0.099c-0.255-0.128-0.123-0.485-0.41-0.616c0-0.233-0.013-0.481,0.003-0.727
		c0.03-0.458,0.028-0.925-0.282-1.281c-0.23-0.264-0.243-0.646-0.127-0.782c0.285-0.333,0.163-0.674,0.187-1.011
		c0.053-0.763-0.056-1.521,0.199-2.288C49.197,41.498,48.642,40.713,48.756,39.915z"/>
	<path style="fill-rule:evenodd;clip-rule:evenodd;" d="M27.264,57.743c0.514,0.557,0.962,1.037,1.56,1.141
		c0.442,0.436,0.374,0.958,0.553,1.376c0.218,0.51,0.144,0.905-0.061,1.357c-0.063,0.141,0.019,0.314,0.109,0.484
		c0.189,0.357,0.192,0.743-0.193,1.01c-0.803,0.246-1.465-0.265-2.168-0.445c-0.507-0.13-1.107-0.387-1.431-0.975
		c0-0.383-0.167-0.944,0.041-1.209c0.281-0.356,0.061-0.737,0.299-1.082c0.188-0.271,0.09-0.744,0.12-1.136
		c0.163-0.167,0.337-0.346,0.509-0.521C26.823,57.743,27.037,57.743,27.264,57.743z"/>
	<path style="fill-rule:evenodd;clip-rule:evenodd;fill:none;" d="M30.168,29.094c0.236-0.866,0.937-1.223,1.123-1.996
		c0.148-0.618,0.707-1.128,0.87-1.757c0.624-0.624,1.245-1.244,1.862-1.862c0.1,0.115,0.004,0.299,0.027,0.463
		c-0.139,0.285-0.442,0.326-0.678,0.456c-0.323,0.178-0.056,0.544-0.297,0.75c-0.478,0.408-0.612,1.05-1.043,1.524
		c-0.414,0.455-0.582,1.127-0.577,1.802c0.002,0.369,0.179,0.793-0.206,1.098c0.268,0.716,0.28,0.924,0.116,2.03
		c-0.702-0.271-0.702-0.271-1.196-0.748C30.168,30.204,30.168,29.556,30.168,29.094z"/>
	<path style="fill-rule:evenodd;clip-rule:evenodd;fill:none;" d="M39.999,27.088c-0.464-0.068-0.629-0.526-0.966-0.743
		c0.02-0.321,0.045-0.596,0.167-0.909c0.195-0.503,0.064-1.116-0.191-1.614c-0.205-0.402-0.223-0.787-0.178-1.201
		c0.147-0.093,0.202-0.31,0.418-0.301c0.591,0.138,0.311,0.79,0.64,1.081c-0.088,1.167,0.366,2.302,0.213,3.472
		C40.093,26.936,40.045,26.993,39.999,27.088z"/>
	<path style="fill-rule:evenodd;clip-rule:evenodd;fill:none;" d="M40.289,28.872c0.162,0.94-0.368,1.726-0.152,2.614
		c-0.198,0.184-0.401,0.371-0.598,0.553c-0.278,0.043-0.426-0.174-0.497-0.335c-0.091-0.205,0.078-0.51-0.245-0.612
		c0.292-0.954,0.515-1.878,0.438-2.822c0.159-0.201,0.354-0.067,0.535-0.145C39.871,28.438,40.052,28.676,40.289,28.872z"/>
	<path style="fill-rule:evenodd;clip-rule:evenodd;fill:none;" d="M37.125,7.693c0.131-0.128,0.31-0.304,0.489-0.482
		c0.298-0.058,0.559-0.002,0.768,0.35c-0.077,1.041,0.188,2.171-0.309,3.27c-0.257,0.128-0.5,0.054-0.691-0.197
		C37.175,9.679,36.964,8.728,37.125,7.693z"/>
</g>
</svg>
