<svg xmlns="http://www.w3.org/2000/svg" xml:space="preserve" width="72px" height="72px" viewBox="0 0 72 72">
    <g fill="currentColor">
        <path d="M28.656 42.267v.608l-.315.314h-1.748l-.309.382c-.669.239-1.236-.357-1.667-.198-.897.375-1.308 1.026-1.894 1.533-.58.096-1.135.005-1.604-.498v-1.329c.134-.452.564-.773.91-1.14.778-.262 1.496.348 2.239.155.184-.309-.042-.491-.199-.543-.396-.133-.615-.45-.894-.7-.914-.248-1.523.465-2.297.686 0 .383-.02.741.006 1.097.024.327-.387.531-.214.887l-.583.553c-.89-.223-1.638.639-2.511.403-.686.563-1.579.632-2.179 1.285h-1.078c-.328.32-.638.707-1.265.882-.792-.116-1.693.471-2.755.125l-.161-.161c-.185-.207.056-.53-.127-.776-.237-.543-1.062.07-1.258-.847-.017-.188.744-.261.441-.721.314-.624 1.008-.785 1.332-1.251-.069-.362-.452-.134-.503-.405-.405.258-.859.126-1.287.164-.353-.226-.76-.363-1.013-.783V40.91l.306-.306c.827.146 1.644-.36 2.534-.216.381.062.57-.348.999-.353l.451.516v1.104l-.635.554c-.032.447.142.612.525.805.852.428 1.784.79 2.298 1.664.228-.033.298-.197.416-.308.077-.495-.482-.896-.131-1.417-.399-.37-.745-.711-.951-1.282v-1.603c-.408-.521-1.223-.688-1.305-1.589.049-.387.408-.737.496-1.227.081-.444.766-.529 1.135-.991l-1.153-.622c-.993 0-2.071.023-3.148-.01a2 2 0 0 0-1.329.432c-.109-.152-.252-.239-.404-.231-.715-.988-.923-2.083-.693-3.521.093-.305.57-.632.961-1.069.083-.749.273-1.489.793-2.113.368.12.65.41 1.051.226.833-.818 1.688-1.655 2.732-2.356.142-.007.375.064.506-.182.617.324 1.27.473 1.944.393l.795.722c.486-.424-.028-.722-.021-1.099h-.93c-.486-.605-1.134-.938-1.791-1.328-.703-.25-1.376.367-2.139.175-.323-.233-.534-.592-.74-1.013v-1.229c.164-.308.536-.315.773-.537.496-.03 1.037.115 1.57-.361l.25-.492c-.409-.661-.128-1.386-.229-2.049.465-.507.869-.974.912-1.719.02-.344.333-.755.764-.994h.582c.471-.357.52-.938.901-1.479.23-.019.566-.164.846-.284.461-.845.921-1.62 1.74-2.134.508.027.997-.011 1.454-.359.459-.35 1.031-.352 1.59-.254.404.382.584.847.501 1.377.452.507 1.263.318 1.62 1.041.76-.354 1.617-.117 2.388-.488.156-.075.389.054.585.105.815.214 1.574.713 2.359.533.539.184.266.7.579.925-.092.203-.231.397-.179.641-1.025 1.078-1.057 1.479-.616 2.671.767.321 1.503.688 2 1.372.383 0 .745-.019 1.103.005.372.025.734-.069 1.119.179.25.162.772.15 1.039-.008.779-.463 1.608-.429 2.433-.378a3.6 3.6 0 0 0 2.251-.582 1.93 1.93 0 0 1 1.172-.308c.787.041 1.578.012 2.357.012.303.427.878.489 1.173 1.033-.089.262-.011.608-.136 1.006-.227.725-.174 1.532.513 2.109.082.069.146.163.231.227.45.333.359.939.684 1.338.32.395.916.456 1.117 1.031.107.309.454.534.695.8h.716l.573.721c.679.194 1.421.07 2.006.588.323-.066.67-.022 1.063-.156.549-.186 1.205-.05 1.815-.06.723-.012 1.226.266 1.552.955.152.323.26.729.583.839.202.452-.254.628-.175.935-.418.188-.824.23-1.217.325-1.23.298-2.479.045-3.691.22-.768.111-1.522.19-2.291.179-.342-.005-.6.197-.812.377-.58.492-1.026 1.151-1.82 1.358h-1.292c-.211.248-.54.272-.814.457-.338-.119-.683-.245-1.031-.361-.564-.189-1.251-.062-1.451.426-.312.757-.905 1.292-1.383 1.896-.311.393-.835.715-1.446.843-1.106.232-2.203.551-3.277 1.054-.482-.133-.67-.706-1.189-.919a4.9 4.9 0 0 1-1.313-.775c-.283-.241-.587-.387-.748-.772-.102-.243-.395-.407-.566-.572-.179-.444-.011-.787.187-1.095-.167-.188-.246-.411-.531-.401-.222.142-.154.524-.447.622a1.18 1.18 0 0 1-1.155-.277c-.478-.454-1.076-.559-1.637-.766-.521-.192-.967-.378-1.254-.934-.244-.472-.747-.791-.885-1.367-.042-.179-.263-.389-.446-.447-.477-.15-.691-.57-1.021-.816l-.46-2.606c.486-.31.773.222 1.157.111.459-.277.237-.905.722-1.293.305.013.724.021 1.159-.384.114-.209.341-.564.172-1.081-.483-.463-1.202-.723-1.798-1.123-.22-.347.071-.758-.169-1.042-.278-.329-.026-.694-.164-1.009-.199-.416-.58-.326-.951-.33l-.739-.798c.049-.221-.092-.491.127-.765.368-.461.354-.962.104-1.524-.119-.267-.293-.516-.377-.847-.53.218-.709.634-.726 1.141-.017.503.07 1.021-.019 1.509-.169.926-.139 1.905-.634 2.784-.003.221.243.36.24.641-.003.277-.212.433-.234.667-.021.214.008.433-.008.647-.018.236.087.491-.145.698-.186.166.069.514-.233.656.271.738.502 1.493.825 2.208.302.668.679 1.308 1.073 1.929.119.188.192.342.223.562.064.469.15.919.736 1.094.38.114.45.601.665.904.264.374.52.664.924.897.904.521 1.707 1.205 2.664 1.655.336.158.585.506.867.775.35.335.685.625 1.208.748.621.146 1.228.444 1.615 1.036.704-.059 1.267.278 1.774.668.85.652 2.218 1.27 3.26 1.529.517.128 1.072.144 1.513.462l1.081-.549c.079-.243.383-.481.31-.886l.876-.776c.322 0 .788-.019 1.251.006.52.026.945-.14 1.303-.513.312-.325.612-.678 1.077-.786.56-.13.599-.727 1.021-1.09.548.101 1.188-.188 1.774.216.073.05.254.053.313 0 .399-.368.883-.137 1.384-.234.229-.312.597-.557.809-.997.26-.537.885-.705 1.417-.684 1.279.05 2.519-.402 3.799-.238a.78.78 0 0 0 .677-.204c.078-.072.319-.07.414-.002.648.461 1.469-.063 2.111.386.051.035.133.025.268.047l.53-.659h.744c.175.262.501.455.839.605.183.081.418.041.642.057l1.016 1.069c.046.231-.045.504-.443.662-.828-.201-1.673-.588-2.586-.44-.67.108-1.35.159-2.008.358-.295.089-.632.027-.945.07-.581.08-1.209-.219-1.747.211-1.196-.045-1.937.664-2.587 1.543-.096.13.041.407-.241.396-.175-.007-.245.117-.35.208-1.233-.037-2.438.439-3.647.191l-1.115 1.117c-.312 0-.635.01-.957-.003-.598-.023-1.124.151-1.667.413-.504.243-1.088.374-1.648.429-.324.031-.582.183-.855.248-.426.001-.677-.344-1.033-.439-.188-.031-.206.181-.413.229.17.668.885.795 1.151 1.291.447-.026.852-.017 1.238.203.543.308 1.154.229 1.743.216.502-.012.966.046 1.356.428h1.08l.784.852h1.688c.562.293 1.066.552 1.567.82.237.127.486.063.729.062.932-.005 1.769.224 2.423.93.191.207.558.147.687.499v.437l-.594.504-.221.011c-.377.016-.729.042-1.108.192-.942.373-2.177.227-3.595.06-.889-.104-1.836-.214-2.738.121-.189.069-.414.055-.623.058-.612.006-1.228.044-1.835-.008-.854-.074-1.666.186-2.564.262-.198.186-.427.402-.587.741-.278.59-.748 1.022-1.315 1.411a6.7 6.7 0 0 0-1.746 1.74c-.297.442-.62.665-1.068.828-.093.034-.163.131-.252.206-.464.043-.935-.034-1.418.195-.415.197-.985-.154-1.41.242-.852-.14-1.646.398-2.567.176l-.275.418c-.829.208-1.53-.593-2.177.066-.266-.076-.436-.308-.594-.262l-1.761 1.762c-.488 0-.844-.002-1.2 0-.412.001-.806.185-.952.517-.153.349-.524.517-.618.821-.274.891-1.102 1-1.761 1.21-.446.142-.897.253-1.32.473-.861.448-1.754.773-2.754.654-.211-.024-.428-.003-.627-.003-.472-.473-.97-.898-1.377-1.398-.389-.478-1.172-.543-1.27-1.302-.147-.585-.011-1.133.37-1.524l-.621-.615v-1.358l.691-.492c.406.232.708.74 1.142 1.063h.428c.661-.679 1.424-1.266 1.613-2.262.554-.383 1.329-.333 1.785-.913.033-.042.127-.058.19-.052.78.075 1.185-.404 1.51-1.007.017-.031.048-.053.068-.075.493-.075.818.305 1.292.453.539-.713 1.325-1.125 2.339-1.538h.722c.206-.518.394-1 .946-1.315.219-.063.338.507.718.142l.099.225c.066-.129.156-.251.193-.388.162-.598.619-.784 1.158-.811.37-.018.621-.243.92-.394.893-.447 1.821-.767 2.795-.694.896-.611 1.321-1.603 2.109-2.27-.457-.43-.833-.972-1.758-.997-.067.098-.277.286-.335.513-.241.94-1.063 1.238-1.764 1.68-.282-.188-.641-.208-.897-.509.018-.036-.03-.102-.128-.124-.017-.004-.067.047-.063.063.021.099.086.147.191.061m10.386-12.466c-.45.107-.993-.174-1.482.207-.135.104-.454.088-.628.003-.707-.344-1.439-.143-2.17-.215l-.811.877c-.461-.445-.846-.959-1.502-1.088-.234.195-.435.395-.311.807l.419.334c-.093.619.136 1.064.54 1.475.745-.178 1.385.162 2.019.507.391.213.768.453 1.244.304.418-.292.307-.888.747-1.21.438-.321.864-.543 1.551-.464l.615-.68c.273.404.849.047 1.169.432.375-.427.885-.068 1.282-.249.564-.147.859-.531.979-1.104-.325-.324-.332-.863-.729-1.189-.581-.162-1.234.166-1.799-.216-.441.402-.438 1.107-1.133 1.469m-5.4-3.591c.25.521.701.239.987.403.439.252.795.191 1.266.007.349-.137.75-.381 1.185-.267.063.017.123.049.164.066.269.164.3.401.274.596l.501.606h1.633c.227-.626.682-.997 1.316-1.116-.04-.36.439-.627.19-.905-.32-.358-.095-.752-.206-1.082-.572-.438-1.136-.428-1.689-.005.251.39.515.791.39 1.306-.476.578-1.066.88-1.838.728-.282-.255-.398-.48-.172-.9.28-.516.64-.88 1.154-1.121.006-.348.119-.727-.312-.958-.602-.061-1.229-.111-1.731.407-.318 0-.645.029-.964-.008-.35-.041-.555.239-.833.3-.261.783-.68 1.441-1.315 1.943m-16.169 9.243c-.257-.136-.503-.245-.726-.389-.255-.165-.183-.596-.537-.694-.418.293-.256.966-.764 1.191-.47.208-.947.396-1.251.847.13.167.428.057.522.313.39 0 .784.005 1.178-.002.425-.008.833.158 1.123.394.326.265.62.275.905.239.562-.715 1.119-1.391 1.19-2.302-.623-.264-1.035.251-1.64.403m11.513-11.051c.082-.082.18-.146.229-.236.144-.262.103-.583.291-.848.084-.119.014-.347.014-.521l-.575-.575c-.787.095-1.607.076-2.331-.477-.108.7-.108.7.53 1.037-.313.348-.723.624-.819 1.057l.474.563zm-12.493 6.675c.541.201.96.665 1.556.395v-.938c-.73-.51-1.434-.672-1.704-.403v.225l-.532.749h-.681c-.045.177-.346.206-.288.557l.836.79c.502-.372.32-1.024.813-1.375m3.057 3.637c.208.666.848.364 1.089.73.443-.218.851-.399 1.119-.831-.09-.193.086-.454-.102-.683h-1.218zm10.295-5.121c-.625-.014-1.264.091-1.752-.216l-.66.613c.415.509 1.007.81 1.828.656.099-.44.713-.324.889-.749zm-4.892 9.796c-.62-.599-.796-.681-1.43-.655v1.871h.459c.425-.327.769-.71.971-1.216m1.552 3.098c-.065-.238.075-.501-.072-.76-.395-.113-.67-.004-.814.396.152.389.422.51.886.364m11.862-.856c.067-.449-.064-.719-.465-.814-.18.116-.359.216-.393.466.142.366.412.482.858.348m-4.341.16c.274.168.467.137.706.009-.251-.155-.442-.145-.706-.009"/>
        <path d="m20.499 61.56-.69-.524c-.034-.323.188-.377.289-.538h.851l.773-.859h2.726c.166-.562.434-1.063.345-1.442q.346-.502.481-.701c.466-.141.675.279 1.149.135.308-.359.776-.706 1.472-.584l.553-.667h2.562l.318.423c.336.036.486-.172.551-.342.083-.217-.08-.525.253-.69h1.185c.175-.355.038-.721.1-1.021l.319-.32c.745.1 1.523-.085 2.31-.209.135-.021.258-.05.391-.098.928-.337.933-.326 1.807-.097.543-.543 1.138-1.104 1.694-1.702.745-.802 1.714-1.201 2.708-1.548.185-.064.291-.176.462-.308v-.875l.369-.369c.342.079.657.411 1.074.195.35-.258.389-.801.943-1.034.824 0 1.759.017 2.692-.008.369-.01.733.095 1.12-.177.241-.169.793-.168 1.035.001.387.27.751.164 1.121.176.826.026 1.655.021 2.482 0 .239-.007.396.093.557.225.594-.096 1.114-.777 1.805-.2.541-.285.834-.804 1.122-1.334 1.797.131 3.526-.098 5.211-.446l.56.56c.065.403.007.771-.245 1.092-.559.531-1.341.304-2.024.503-.662.193-1.426.042-2.139.042-.115-.084-.173-.248-.407-.205-.039.031-.142.079-.193.16-.205.32-.37.669-.727.904h-.84l-.544.591c-.407.123-.736.094-1.031-.162-.36.17-.751.297-1.075.521-.338.233-.554.635-.987.761h-1.172l-.096-.622c-.514-.037-.603.48-.944.624-.267-.341-.883-.087-.999-.619h-.913l-.533.485c-.619-.282-1.169-.331-1.808-.096-.472.174-1.059.034-1.562.034-.24.238.115.662-.406.734.217.352.319.669.344.972l1.369.874c.646.073 1.372-.154 2.021.306v1.122c-.18.304-.439.359-.746.298-.175-.226-.15-.637-.629-.634-.179.531-.671.833-1.039 1.262-.708.134-1.439-.057-2.167.214-.361.134-.856.1-1.329-.115-.396-.18-.939-.122-1.437.043-.509.169-1.03.384-1.698.314l-.544.65c-.509.071-.802-.278-1.237-.449-.842.614-1.757-.267-2.717.091l-.789.789c-.67.068-1.25-.266-1.957-.437-.1.275-.405.527-.305.87.125.428.343.833.787 1.073.739-.271.886-.235 1.981.521v1.139l-.299.3c-.988-.177-1.984.352-3.038.203l-1.072 1.099c-.386-.17-.621.28-.997.22-.313-.051-.64-.011-.94-.011l-.288.288v.902l-.144-.105-.513.72c-.458-.287-.565-.725-.742-1.115-.502-.176-.816.225-1.118.353l-1.373-1.374c-.777-.046-1.432-.151-1.986-.618-.415-.355-.949-.602-1.453-.134m5.37-1.815c.453.282.929.417 1.438.254.128-.154.317-.237.257-.5-.363-.425-.842-.609-1.399-.513-.292.208-.376.454-.296.759m36.207-26.831-1.394-.71c-.586.332-1.26.15-1.996.209l-.307-.449c-.381-.003-.46.294-.678.43h-.63c-.228-.17-.139-.504-.441-.662l.606-.59c.431-.187.635.244 1.089.152.242-.271.652-.49 1.205-.478.038.058.246.043.456.084.316.061.474-.258.772-.24.284.017.433.332.773.242.389-.103.804.054 1.213-.205.229-.146.628-.026 1.001-.026l.562.678h.788c.079.133.082.229.016.343-.214.13-.468.03-.709.06-.597.756-1.657.511-2.326 1.162m-8.302 9.592c-.38-.36-.573-.816-.469-1.426.399.019.727-.319 1.158-.257.348.052.588-.459 1.058-.089.273.216.819.087 1.208.111.9-.551 1.57-.723 2.278-.186.858.48 1.525-.475 2.221.202.069.392.166.799-.34 1.041-.21-.002-.397.003-.582-.178-.097-.095-.322-.087-.418-.237-.539.306-1.008.514-1.715.296-.662-.203-1.392-.463-2.242-.269-.526.557-1.105 1.263-2.157.992M47.78 62.92l.983-.513c.47.192.438.555.394 1.015l-.616.5c-.093-.022-.266.067-.432-.072-.269-.224-.575-.179-.869-.029a5 5 0 0 1-2.688.539c-.398-.231-.56-.658-.777-1.049-.017-.212.193-.401.284-.396.651.038 1.058-.414 1.604-.704h1.54c.156.194.358.441.577.709m-6.117-1.408c.666.217 1.192-.259 1.689-.067l.659.445c-.068.864-.673 1.27-1.169 1.792-.456-.147-.519-.648-.806-.945-.296-.308-.486-.653-.373-1.225M14.392 48.395c.06.553.836.762.618 1.442-.29.014-.32-.339-.658-.387-.469.426-1.033.829-1.815.634l-.265-.265v-1.254c.733.229 1.368-.242 2.12-.17m28.196 16.189.298.298v.969h-.92a2.9 2.9 0 0 1-1.201-.962v-.415c.083-.143.224-.14.297-.1.484.269 1.009.201 1.526.21m12.198-27.207v.321l-.532.532c-.844.151-.719-.788-1.21-.977.18-.705.18-.705.863-.747zm7.89 1.501c.224.232.472.379.378.531-.064.194-.065.241-.087.255-.171.104-.4.104-.532.313l-1.455-.544c.433-.701 1.081-.529 1.696-.555M10.5 49.696h.564l.526.507c.021.332-.205.415-.34.554-.271.035-.507.003-.665-.246-.145-.227-.042-.482-.085-.815m25.054-18.263c.167-.154.286-.147.42-.04-.082.239-.221.173-.42.04"/>
    </g>
</svg>
