<?xml version="1.0" encoding="iso-8859-1"?>
<!-- Generator: Adobe Illustrator 16.0.0, SVG Export Plug-In . SVG Version: 6.00 Build 0)  -->
<!DOCTYPE svg PUBLIC "-//W3C//DTD SVG 1.1//EN" "http://www.w3.org/Graphics/SVG/1.1/DTD/svg11.dtd">
<svg version="1.1" id="Layer_1" xmlns="http://www.w3.org/2000/svg" xmlns:xlink="http://www.w3.org/1999/xlink" x="0px" y="0px"
	 width="72.36px" height="71.459px" viewBox="0 0 72.36 71.459" style="enable-background:new 0 0 72.36 71.459;"
	 xml:space="preserve">
<g>
	
	<path fill="currentColor" d="M28.656,42.267c0,0.249,0,0.429,0,0.608
		c-0.102,0.102-0.204,0.204-0.315,0.314c-0.564,0-1.137,0-1.748,0c-0.1,0.123-0.212,0.262-0.309,0.382
		c-0.669,0.239-1.236-0.357-1.667-0.198c-0.897,0.375-1.308,1.026-1.894,1.533c-0.58,0.096-1.135,0.005-1.604-0.498
		c0-0.398,0-0.824,0-1.329c0.134-0.452,0.564-0.773,0.91-1.14c0.778-0.262,1.496,0.348,2.239,0.155
		c0.184-0.309-0.042-0.491-0.199-0.543c-0.396-0.133-0.615-0.45-0.894-0.7c-0.914-0.248-1.523,0.465-2.297,0.686
		c0,0.383-0.02,0.741,0.006,1.097c0.024,0.327-0.387,0.531-0.214,0.887c-0.184,0.175-0.367,0.348-0.583,0.553
		c-0.89-0.223-1.638,0.639-2.511,0.403c-0.686,0.563-1.579,0.632-2.179,1.285c-0.318,0-0.67,0-1.078,0
		c-0.328,0.32-0.638,0.707-1.265,0.882c-0.792-0.116-1.693,0.471-2.755,0.125c0.02,0.02-0.056-0.057-0.161-0.161
		c-0.185-0.207,0.056-0.53-0.127-0.776c-0.237-0.543-1.062,0.07-1.258-0.847c-0.017-0.188,0.744-0.261,0.441-0.721
		c0.314-0.624,1.008-0.785,1.332-1.251c-0.069-0.362-0.452-0.134-0.503-0.405c-0.405,0.258-0.859,0.126-1.287,0.164
		c-0.353-0.226-0.76-0.363-1.013-0.783c0-0.33,0-0.715,0-1.079c0.098-0.098,0.174-0.174,0.306-0.306
		c0.827,0.146,1.644-0.36,2.534-0.216c0.381,0.062,0.57-0.348,0.999-0.353c0.089,0.103,0.251,0.288,0.451,0.516
		c0,0.288,0,0.646,0,1.104c-0.182,0.158-0.423,0.368-0.635,0.554c-0.032,0.447,0.142,0.612,0.525,0.805
		c0.852,0.428,1.784,0.79,2.298,1.664c0.228-0.033,0.298-0.197,0.416-0.308c0.077-0.495-0.482-0.896-0.131-1.417
		c-0.399-0.37-0.745-0.711-0.951-1.282c0-0.451,0-1.027,0-1.603c-0.408-0.521-1.223-0.688-1.305-1.589
		c0.049-0.387,0.408-0.737,0.496-1.227c0.081-0.444,0.766-0.529,1.135-0.991c-0.402-0.216-0.741-0.399-1.153-0.622
		c-0.993,0-2.071,0.023-3.148-0.01c-0.513-0.016-0.936,0.131-1.329,0.432c-0.109-0.152-0.252-0.239-0.404-0.231
		c-0.715-0.988-0.923-2.083-0.693-3.521c0.093-0.305,0.57-0.632,0.961-1.069c0.083-0.749,0.273-1.489,0.793-2.113
		c0.368,0.12,0.65,0.41,1.051,0.226c0.833-0.818,1.688-1.655,2.732-2.356c0.142-0.007,0.375,0.064,0.506-0.182
		c0.617,0.324,1.27,0.473,1.944,0.393c0.273,0.249,0.53,0.481,0.795,0.722c0.486-0.424-0.028-0.722-0.021-1.099
		c-0.31,0-0.622,0-0.93,0c-0.486-0.605-1.134-0.938-1.791-1.328c-0.703-0.25-1.376,0.367-2.139,0.175
		c-0.323-0.233-0.534-0.592-0.74-1.013c0-0.372,0-0.803,0-1.229c0.164-0.308,0.536-0.315,0.773-0.537
		c0.496-0.03,1.037,0.115,1.57-0.361c0.04-0.079,0.146-0.287,0.25-0.492c-0.409-0.661-0.128-1.386-0.229-2.049
		c0.465-0.507,0.869-0.974,0.912-1.719c0.02-0.344,0.333-0.755,0.764-0.994c0.158,0,0.373,0,0.582,0
		c0.471-0.357,0.52-0.938,0.901-1.479c0.23-0.019,0.566-0.164,0.846-0.284c0.461-0.845,0.921-1.62,1.74-2.134
		c0.508,0.027,0.997-0.011,1.454-0.359c0.459-0.35,1.031-0.352,1.59-0.254c0.404,0.382,0.584,0.847,0.501,1.377
		c0.452,0.507,1.263,0.318,1.62,1.041c0.76-0.354,1.617-0.117,2.388-0.488c0.156-0.075,0.389,0.054,0.585,0.105
		c0.815,0.214,1.574,0.713,2.359,0.533c0.539,0.184,0.266,0.7,0.579,0.925c-0.092,0.203-0.231,0.397-0.179,0.641
		c-1.025,1.078-1.057,1.479-0.616,2.671c0.767,0.321,1.503,0.688,2,1.372c0.383,0,0.745-0.019,1.103,0.005
		c0.372,0.025,0.734-0.069,1.119,0.179c0.25,0.162,0.772,0.15,1.039-0.008c0.779-0.463,1.608-0.429,2.433-0.378
		c0.83,0.051,1.558-0.136,2.251-0.582c0.344-0.221,0.731-0.331,1.172-0.308c0.787,0.041,1.578,0.012,2.357,0.012
		c0.303,0.427,0.878,0.489,1.173,1.033c-0.089,0.262-0.011,0.608-0.136,1.006c-0.227,0.725-0.174,1.532,0.513,2.109
		c0.082,0.069,0.146,0.163,0.231,0.227c0.45,0.333,0.359,0.939,0.684,1.338c0.32,0.395,0.916,0.456,1.117,1.031
		c0.107,0.309,0.454,0.534,0.695,0.8c0.221,0,0.433,0,0.716,0c0.174,0.219,0.374,0.47,0.573,0.721
		c0.679,0.194,1.421,0.07,2.006,0.588c0.323-0.066,0.67-0.022,1.063-0.156c0.549-0.186,1.205-0.05,1.815-0.06
		c0.723-0.012,1.226,0.266,1.552,0.955c0.152,0.323,0.26,0.729,0.583,0.839c0.202,0.452-0.254,0.628-0.175,0.935
		c-0.418,0.188-0.824,0.23-1.217,0.325c-1.23,0.298-2.479,0.045-3.691,0.22c-0.768,0.111-1.522,0.19-2.291,0.179
		c-0.342-0.005-0.6,0.197-0.812,0.377c-0.58,0.492-1.026,1.151-1.82,1.358c-0.432,0-0.862,0-1.292,0
		c-0.211,0.248-0.54,0.272-0.814,0.457c-0.338-0.119-0.683-0.245-1.031-0.361c-0.564-0.189-1.251-0.062-1.451,0.426
		c-0.312,0.757-0.905,1.292-1.383,1.896c-0.311,0.393-0.835,0.715-1.446,0.843c-1.106,0.232-2.203,0.551-3.277,1.054
		c-0.482-0.133-0.67-0.706-1.189-0.919c-0.448-0.184-0.908-0.43-1.313-0.775c-0.283-0.241-0.587-0.387-0.748-0.772
		c-0.102-0.243-0.395-0.407-0.566-0.572c-0.179-0.444-0.011-0.787,0.187-1.095c-0.167-0.188-0.246-0.411-0.531-0.401
		c-0.222,0.142-0.154,0.524-0.447,0.622c-0.445,0.14-0.886-0.021-1.155-0.277c-0.478-0.454-1.076-0.559-1.637-0.766
		c-0.521-0.192-0.967-0.378-1.254-0.934c-0.244-0.472-0.747-0.791-0.885-1.367c-0.042-0.179-0.263-0.389-0.446-0.447
		c-0.477-0.15-0.691-0.57-1.021-0.816c-0.162-0.914-0.314-1.779-0.46-2.606c0.486-0.31,0.773,0.222,1.157,0.111
		c0.459-0.277,0.237-0.905,0.722-1.293c0.305,0.013,0.724,0.021,1.159-0.384c0.114-0.209,0.341-0.564,0.172-1.081
		c-0.483-0.463-1.202-0.723-1.798-1.123c-0.22-0.347,0.071-0.758-0.169-1.042c-0.278-0.329-0.026-0.694-0.164-1.009
		c-0.199-0.416-0.58-0.326-0.951-0.33c-0.234-0.252-0.478-0.516-0.739-0.798c0.049-0.221-0.092-0.491,0.127-0.765
		c0.368-0.461,0.354-0.962,0.104-1.524c-0.119-0.267-0.293-0.516-0.377-0.847c-0.53,0.218-0.709,0.634-0.726,1.141
		c-0.017,0.503,0.07,1.021-0.019,1.509c-0.169,0.926-0.139,1.905-0.634,2.784c-0.003,0.221,0.243,0.36,0.24,0.641
		c-0.003,0.277-0.212,0.433-0.234,0.667c-0.021,0.214,0.008,0.433-0.008,0.647c-0.018,0.236,0.087,0.491-0.145,0.698
		c-0.186,0.166,0.069,0.514-0.233,0.656c0.271,0.738,0.502,1.493,0.825,2.208c0.302,0.668,0.679,1.308,1.073,1.929
		c0.119,0.188,0.192,0.342,0.223,0.562c0.064,0.469,0.15,0.919,0.736,1.094c0.38,0.114,0.45,0.601,0.665,0.904
		c0.264,0.374,0.52,0.664,0.924,0.897c0.904,0.521,1.707,1.205,2.664,1.655c0.336,0.158,0.585,0.506,0.867,0.775
		c0.35,0.335,0.685,0.625,1.208,0.748c0.621,0.146,1.228,0.444,1.615,1.036c0.704-0.059,1.267,0.278,1.774,0.668
		c0.85,0.652,2.218,1.27,3.26,1.529c0.517,0.128,1.072,0.144,1.513,0.462c0.379-0.192,0.704-0.357,1.081-0.549
		c0.079-0.243,0.383-0.481,0.31-0.886c0.254-0.225,0.521-0.461,0.876-0.776c0.322,0,0.788-0.019,1.251,0.006
		c0.52,0.026,0.945-0.14,1.303-0.513c0.312-0.325,0.612-0.678,1.077-0.786c0.56-0.13,0.599-0.727,1.021-1.09
		c0.548,0.101,1.188-0.188,1.774,0.216c0.073,0.05,0.254,0.053,0.313,0c0.399-0.368,0.883-0.137,1.384-0.234
		c0.229-0.312,0.597-0.557,0.809-0.997c0.26-0.537,0.885-0.705,1.417-0.684c1.279,0.05,2.519-0.402,3.799-0.238
		c0.255,0.033,0.472-0.016,0.677-0.204c0.078-0.072,0.319-0.07,0.414-0.002c0.648,0.461,1.469-0.063,2.111,0.386
		c0.051,0.035,0.133,0.025,0.268,0.047c0.176-0.219,0.377-0.468,0.53-0.659c0.286,0,0.466,0,0.744,0
		c0.175,0.262,0.501,0.455,0.839,0.605c0.183,0.081,0.418,0.041,0.642,0.057c0.308,0.323,0.627,0.659,1.016,1.069
		c0.046,0.231-0.045,0.504-0.443,0.662c-0.828-0.201-1.673-0.588-2.586-0.44c-0.67,0.108-1.35,0.159-2.008,0.358
		c-0.295,0.089-0.632,0.027-0.945,0.07c-0.581,0.08-1.209-0.219-1.747,0.211c-1.196-0.045-1.937,0.664-2.587,1.543
		c-0.096,0.13,0.041,0.407-0.241,0.396c-0.175-0.007-0.245,0.117-0.35,0.208c-1.233-0.037-2.438,0.439-3.647,0.191
		c-0.392,0.393-0.748,0.75-1.115,1.117c-0.312,0-0.635,0.01-0.957-0.003c-0.598-0.023-1.124,0.151-1.667,0.413
		c-0.504,0.243-1.088,0.374-1.648,0.429c-0.324,0.031-0.582,0.183-0.855,0.248c-0.426,0.001-0.677-0.344-1.033-0.439
		c-0.188-0.031-0.206,0.181-0.413,0.229c0.17,0.668,0.885,0.795,1.151,1.291c0.447-0.026,0.852-0.017,1.238,0.203
		c0.543,0.308,1.154,0.229,1.743,0.216c0.502-0.012,0.966,0.046,1.356,0.428c0.342,0,0.699,0,1.08,0
		c0.26,0.282,0.526,0.572,0.784,0.852c0.609,0,1.18,0,1.688,0c0.562,0.293,1.066,0.552,1.567,0.82
		c0.237,0.127,0.486,0.063,0.729,0.062c0.932-0.005,1.769,0.224,2.423,0.93c0.191,0.207,0.558,0.147,0.687,0.499
		c0,0.099,0,0.24,0,0.437c-0.154,0.131-0.345,0.293-0.594,0.504c-0.012,0.001-0.116,0.007-0.221,0.011
		c-0.377,0.016-0.729,0.042-1.108,0.192c-0.942,0.373-2.177,0.227-3.595,0.06c-0.889-0.104-1.836-0.214-2.738,0.121
		c-0.189,0.069-0.414,0.055-0.623,0.058c-0.612,0.006-1.228,0.044-1.835-0.008c-0.854-0.074-1.666,0.186-2.564,0.262
		c-0.198,0.186-0.427,0.402-0.587,0.741c-0.278,0.59-0.748,1.022-1.315,1.411c-0.671,0.46-1.293,1.067-1.746,1.74
		c-0.297,0.442-0.62,0.665-1.068,0.828c-0.093,0.034-0.163,0.131-0.252,0.206c-0.464,0.043-0.935-0.034-1.418,0.195
		c-0.415,0.197-0.985-0.154-1.41,0.242c-0.852-0.14-1.646,0.398-2.567,0.176c-0.107,0.164-0.225,0.343-0.275,0.418
		c-0.829,0.208-1.53-0.593-2.177,0.066c-0.266-0.076-0.436-0.308-0.594-0.262c-0.652,0.652-1.232,1.232-1.761,1.762
		c-0.488,0-0.844-0.002-1.2,0c-0.412,0.001-0.806,0.185-0.952,0.517c-0.153,0.349-0.524,0.517-0.618,0.821
		c-0.274,0.891-1.102,1-1.761,1.21c-0.446,0.142-0.897,0.253-1.32,0.473c-0.861,0.448-1.754,0.773-2.754,0.654
		c-0.211-0.024-0.428-0.003-0.627-0.003c-0.472-0.473-0.97-0.898-1.377-1.398c-0.389-0.478-1.172-0.543-1.27-1.302
		c-0.147-0.585-0.011-1.133,0.37-1.524c-0.263-0.261-0.487-0.482-0.621-0.615c0-0.553,0-0.907,0-1.358
		c0.163-0.116,0.393-0.279,0.691-0.492c0.406,0.232,0.708,0.74,1.142,1.063c0.156,0,0.297,0,0.428,0
		c0.661-0.679,1.424-1.266,1.613-2.262c0.554-0.383,1.329-0.333,1.785-0.913c0.033-0.042,0.127-0.058,0.19-0.052
		c0.78,0.075,1.185-0.404,1.51-1.007c0.017-0.031,0.048-0.053,0.068-0.075c0.493-0.075,0.818,0.305,1.292,0.453
		c0.539-0.713,1.325-1.125,2.339-1.538c0.11,0,0.425,0,0.722,0c0.206-0.518,0.394-1,0.946-1.315
		c0.219-0.063,0.338,0.507,0.718,0.142c0.033,0.075,0.066,0.149,0.099,0.225c0.066-0.129,0.156-0.251,0.193-0.388
		c0.162-0.598,0.619-0.784,1.158-0.811c0.37-0.018,0.621-0.243,0.92-0.394c0.893-0.447,1.821-0.767,2.795-0.694
		c0.896-0.611,1.321-1.603,2.109-2.27c-0.457-0.43-0.833-0.972-1.758-0.997c-0.067,0.098-0.277,0.286-0.335,0.513
		c-0.241,0.94-1.063,1.238-1.764,1.68C29.271,42.588,28.912,42.568,28.656,42.267c0.018-0.036-0.03-0.102-0.128-0.124
		c-0.017-0.004-0.067,0.047-0.063,0.063C28.486,42.305,28.551,42.353,28.656,42.267z M39.042,29.801
		c-0.45,0.107-0.993-0.174-1.482,0.207c-0.135,0.104-0.454,0.088-0.628,0.003c-0.707-0.344-1.439-0.143-2.17-0.215
		c-0.284,0.307-0.548,0.592-0.811,0.877c-0.461-0.445-0.846-0.959-1.502-1.088c-0.234,0.195-0.435,0.395-0.311,0.807
		c0.109,0.087,0.276,0.22,0.419,0.334c-0.093,0.619,0.136,1.064,0.54,1.475c0.745-0.178,1.385,0.162,2.019,0.507
		c0.391,0.213,0.768,0.453,1.244,0.304c0.418-0.292,0.307-0.888,0.747-1.21c0.438-0.321,0.864-0.543,1.551-0.464
		c0.167-0.185,0.378-0.418,0.615-0.68c0.273,0.404,0.849,0.047,1.169,0.432c0.375-0.427,0.885-0.068,1.282-0.249
		c0.564-0.147,0.859-0.531,0.979-1.104c-0.325-0.324-0.332-0.863-0.729-1.189c-0.581-0.162-1.234,0.166-1.799-0.216
		C39.734,28.734,39.737,29.439,39.042,29.801z M33.642,26.21c0.25,0.521,0.701,0.239,0.987,0.403
		c0.439,0.252,0.795,0.191,1.266,0.007c0.349-0.137,0.75-0.381,1.185-0.267c0.063,0.017,0.123,0.049,0.164,0.066
		c0.269,0.164,0.3,0.401,0.274,0.596c0.205,0.249,0.384,0.464,0.501,0.606c0.604,0,1.102,0,1.633,0
		c0.227-0.626,0.682-0.997,1.316-1.116c-0.04-0.36,0.439-0.627,0.19-0.905c-0.32-0.358-0.095-0.752-0.206-1.082
		c-0.572-0.438-1.136-0.428-1.689-0.005c0.251,0.39,0.515,0.791,0.39,1.306c-0.476,0.578-1.066,0.88-1.838,0.728
		c-0.282-0.255-0.398-0.48-0.172-0.9c0.28-0.516,0.64-0.88,1.154-1.121c0.006-0.348,0.119-0.727-0.312-0.958
		c-0.602-0.061-1.229-0.111-1.731,0.407c-0.318,0-0.645,0.029-0.964-0.008c-0.35-0.041-0.555,0.239-0.833,0.3
		C34.696,25.05,34.277,25.708,33.642,26.21z M17.473,35.453c-0.257-0.136-0.503-0.245-0.726-0.389
		c-0.255-0.165-0.183-0.596-0.537-0.694c-0.418,0.293-0.256,0.966-0.764,1.191c-0.47,0.208-0.947,0.396-1.251,0.847
		c0.13,0.167,0.428,0.057,0.522,0.313c0.39,0,0.784,0.005,1.178-0.002c0.425-0.008,0.833,0.158,1.123,0.394
		c0.326,0.265,0.62,0.275,0.905,0.239c0.562-0.715,1.119-1.391,1.19-2.302C18.49,34.786,18.078,35.301,17.473,35.453z
		 M28.986,24.402c0.082-0.082,0.18-0.146,0.229-0.236c0.144-0.262,0.103-0.583,0.291-0.848c0.084-0.119,0.014-0.347,0.014-0.521
		c-0.179-0.179-0.355-0.355-0.575-0.575c-0.787,0.095-1.607,0.076-2.331-0.477c-0.108,0.7-0.108,0.7,0.53,1.037
		c-0.313,0.348-0.723,0.624-0.819,1.057c0.181,0.216,0.341,0.406,0.474,0.563C27.565,24.402,28.278,24.402,28.986,24.402z
		 M16.493,31.077c0.541,0.201,0.96,0.665,1.556,0.395c0-0.331,0-0.643,0-0.938c-0.73-0.51-1.434-0.672-1.704-0.403
		c0,0.143,0,0.285,0,0.225c-0.248,0.349-0.41,0.577-0.532,0.749c-0.275,0-0.454,0-0.681,0c-0.045,0.177-0.346,0.206-0.288,0.557
		c0.255,0.241,0.552,0.521,0.836,0.79C16.182,32.08,16,31.428,16.493,31.077z M19.55,34.714c0.208,0.666,0.848,0.364,1.089,0.73
		c0.443-0.218,0.851-0.399,1.119-0.831c-0.09-0.193,0.086-0.454-0.102-0.683c-0.446,0-0.899,0-1.218,0
		C20.093,34.234,19.83,34.467,19.55,34.714z M29.845,29.593c-0.625-0.014-1.264,0.091-1.752-0.216
		c-0.252,0.234-0.456,0.423-0.66,0.613c0.415,0.509,1.007,0.81,1.828,0.656c0.099-0.44,0.713-0.324,0.889-0.749
		C30.073,29.82,29.997,29.744,29.845,29.593z M24.953,39.389c-0.62-0.599-0.796-0.681-1.43-0.655c0,0.625,0,1.248,0,1.871
		c0.193,0,0.334,0,0.459,0C24.407,40.278,24.751,39.895,24.953,39.389z M26.505,42.487c-0.065-0.238,0.075-0.501-0.072-0.76
		c-0.395-0.113-0.67-0.004-0.814,0.396C25.771,42.512,26.041,42.633,26.505,42.487z M38.367,41.631
		c0.067-0.449-0.064-0.719-0.465-0.814c-0.18,0.116-0.359,0.216-0.393,0.466C37.651,41.649,37.921,41.765,38.367,41.631z
		 M34.026,41.791c0.274,0.168,0.467,0.137,0.706,0.009C34.481,41.645,34.29,41.655,34.026,41.791z"/>
	<path fill="currentColor" d="M20.499,61.56c-0.305-0.231-0.529-0.401-0.69-0.524
		c-0.034-0.323,0.188-0.377,0.289-0.538c0.274,0,0.557,0,0.851,0c0.265-0.295,0.527-0.586,0.773-0.859c0.958,0,1.849,0,2.726,0
		c0.166-0.562,0.434-1.063,0.345-1.442c0.23-0.335,0.391-0.568,0.481-0.701c0.466-0.141,0.675,0.279,1.149,0.135
		c0.308-0.359,0.776-0.706,1.472-0.584c0.194-0.234,0.398-0.48,0.553-0.667c0.898,0,1.689,0,2.562,0
		c0.095,0.126,0.223,0.297,0.318,0.423c0.336,0.036,0.486-0.172,0.551-0.342c0.083-0.217-0.08-0.525,0.253-0.69
		c0.386,0,0.772,0,1.185,0c0.175-0.355,0.038-0.721,0.1-1.021c0.106-0.106,0.183-0.183,0.319-0.32c0.745,0.1,1.523-0.085,2.31-0.209
		c0.135-0.021,0.258-0.05,0.391-0.098c0.928-0.337,0.933-0.326,1.807-0.097c0.543-0.543,1.138-1.104,1.694-1.702
		c0.745-0.802,1.714-1.201,2.708-1.548c0.185-0.064,0.291-0.176,0.462-0.308c0-0.286,0-0.6,0-0.875
		c0.141-0.14,0.242-0.242,0.369-0.369c0.342,0.079,0.657,0.411,1.074,0.195c0.35-0.258,0.389-0.801,0.943-1.034
		c0.824,0,1.759,0.017,2.692-0.008c0.369-0.01,0.733,0.095,1.12-0.177c0.241-0.169,0.793-0.168,1.035,0.001
		c0.387,0.27,0.751,0.164,1.121,0.176c0.826,0.026,1.655,0.021,2.482,0c0.239-0.007,0.396,0.093,0.557,0.225
		c0.594-0.096,1.114-0.777,1.805-0.2c0.541-0.285,0.834-0.804,1.122-1.334c1.797,0.131,3.526-0.098,5.211-0.446
		c0.216,0.217,0.395,0.395,0.56,0.56c0.065,0.403,0.007,0.771-0.245,1.092c-0.559,0.531-1.341,0.304-2.024,0.503
		c-0.662,0.193-1.426,0.042-2.139,0.042c-0.115-0.084-0.173-0.248-0.407-0.205c-0.039,0.031-0.142,0.079-0.193,0.16
		c-0.205,0.32-0.37,0.669-0.727,0.904c-0.251,0-0.538,0-0.84,0c-0.189,0.206-0.384,0.417-0.544,0.591
		c-0.407,0.123-0.736,0.094-1.031-0.162c-0.36,0.17-0.751,0.297-1.075,0.521c-0.338,0.233-0.554,0.635-0.987,0.761
		c-0.386,0-0.771,0-1.172,0c-0.033-0.219-0.064-0.418-0.096-0.622c-0.514-0.037-0.603,0.48-0.944,0.624
		c-0.267-0.341-0.883-0.087-0.999-0.619c-0.329,0-0.614,0-0.913,0c-0.167,0.152-0.346,0.314-0.533,0.485
		c-0.619-0.282-1.169-0.331-1.808-0.096c-0.472,0.174-1.059,0.034-1.562,0.034c-0.24,0.238,0.115,0.662-0.406,0.734
		c0.217,0.352,0.319,0.669,0.344,0.972c0.481,0.307,0.91,0.58,1.369,0.874c0.646,0.073,1.372-0.154,2.021,0.306
		c0,0.369,0,0.754,0,1.122c-0.18,0.304-0.439,0.359-0.746,0.298c-0.175-0.226-0.15-0.637-0.629-0.634
		c-0.179,0.531-0.671,0.833-1.039,1.262c-0.708,0.134-1.439-0.057-2.167,0.214c-0.361,0.134-0.856,0.1-1.329-0.115
		c-0.396-0.18-0.939-0.122-1.437,0.043c-0.509,0.169-1.03,0.384-1.698,0.314c-0.163,0.195-0.368,0.44-0.544,0.65
		c-0.509,0.071-0.802-0.278-1.237-0.449c-0.842,0.614-1.757-0.267-2.717,0.091c-0.229,0.229-0.508,0.509-0.789,0.789
		c-0.67,0.068-1.25-0.266-1.957-0.437c-0.1,0.275-0.405,0.527-0.305,0.87c0.125,0.428,0.343,0.833,0.787,1.073
		c0.739-0.271,0.886-0.235,1.981,0.521c0,0.367,0,0.753,0,1.139c-0.077,0.076-0.153,0.153-0.299,0.3
		c-0.988-0.177-1.984,0.352-3.038,0.203c-0.369,0.378-0.72,0.738-1.072,1.099c-0.386-0.17-0.621,0.28-0.997,0.22
		c-0.313-0.051-0.64-0.011-0.94-0.011c-0.097,0.098-0.173,0.174-0.288,0.288c0,0.271,0,0.587,0,0.902
		c-0.048-0.035-0.096-0.07-0.144-0.105c-0.164,0.229-0.328,0.46-0.513,0.72c-0.458-0.287-0.565-0.725-0.742-1.115
		c-0.502-0.176-0.816,0.225-1.118,0.353c-0.473-0.473-0.922-0.924-1.373-1.374c-0.777-0.046-1.432-0.151-1.986-0.618
		C21.537,61.339,21.003,61.092,20.499,61.56z M25.869,59.745c0.453,0.282,0.929,0.417,1.438,0.254
		c0.128-0.154,0.317-0.237,0.257-0.5c-0.363-0.425-0.842-0.609-1.399-0.513C25.873,59.194,25.789,59.44,25.869,59.745z"/>
	<path fill="currentColor" d="M62.076,32.914c-0.547-0.278-0.961-0.489-1.394-0.71
		c-0.586,0.332-1.26,0.15-1.996,0.209c-0.098-0.144-0.219-0.32-0.307-0.449c-0.381-0.003-0.46,0.294-0.678,0.43
		c-0.195,0-0.408,0-0.63,0c-0.228-0.17-0.139-0.504-0.441-0.662c0.271-0.264,0.47-0.457,0.606-0.59
		c0.431-0.187,0.635,0.244,1.089,0.152c0.242-0.271,0.652-0.49,1.205-0.478c0.038,0.058,0.246,0.043,0.456,0.084
		c0.316,0.061,0.474-0.258,0.772-0.24c0.284,0.017,0.433,0.332,0.773,0.242c0.389-0.103,0.804,0.054,1.213-0.205
		c0.229-0.146,0.628-0.026,1.001-0.026c0.18,0.216,0.382,0.461,0.562,0.678c0.33,0,0.57,0,0.788,0
		c0.079,0.133,0.082,0.229,0.016,0.343c-0.214,0.13-0.468,0.03-0.709,0.06C63.805,32.508,62.745,32.263,62.076,32.914z"/>
	<path fill="currentColor" d="M53.774,42.506c-0.38-0.36-0.573-0.816-0.469-1.426
		c0.399,0.019,0.727-0.319,1.158-0.257c0.348,0.052,0.588-0.459,1.058-0.089c0.273,0.216,0.819,0.087,1.208,0.111
		c0.9-0.551,1.57-0.723,2.278-0.186c0.858,0.48,1.525-0.475,2.221,0.202c0.069,0.392,0.166,0.799-0.34,1.041
		c-0.21-0.002-0.397,0.003-0.582-0.178c-0.097-0.095-0.322-0.087-0.418-0.237c-0.539,0.306-1.008,0.514-1.715,0.296
		c-0.662-0.203-1.392-0.463-2.242-0.269C55.405,42.071,54.826,42.777,53.774,42.506z"/>
	<path fill="currentColor" d="M47.78,62.92c0.426-0.223,0.721-0.376,0.983-0.513
		c0.47,0.192,0.438,0.555,0.394,1.015c-0.149,0.122-0.366,0.298-0.616,0.5c-0.093-0.022-0.266,0.067-0.432-0.072
		c-0.269-0.224-0.575-0.179-0.869-0.029c-0.842,0.429-1.734,0.606-2.688,0.539c-0.398-0.231-0.56-0.658-0.777-1.049
		c-0.017-0.212,0.193-0.401,0.284-0.396c0.651,0.038,1.058-0.414,1.604-0.704c0.444,0,0.944,0,1.54,0
		C47.359,62.405,47.561,62.652,47.78,62.92z"/>
	<path fill="currentColor" d="M41.663,61.512c0.666,0.217,1.192-0.259,1.689-0.067
		c0.233,0.157,0.468,0.315,0.659,0.445c-0.068,0.864-0.673,1.27-1.169,1.792c-0.456-0.147-0.519-0.648-0.806-0.945
		C41.74,62.429,41.55,62.084,41.663,61.512z"/>
	<path fill="currentColor" d="M14.392,48.395c0.06,0.553,0.836,0.762,0.618,1.442
		c-0.29,0.014-0.32-0.339-0.658-0.387c-0.469,0.426-1.033,0.829-1.815,0.634c-0.081-0.081-0.183-0.184-0.265-0.265
		c0-0.407,0-0.793,0-1.254C13.005,48.794,13.64,48.323,14.392,48.395z"/>
	<path fill="currentColor" d="M42.588,64.584c0.15,0.15,0.227,0.226,0.298,0.298c0,0.316,0,0.628,0,0.969
		c-0.336,0-0.648,0-0.92,0c-0.513-0.224-0.902-0.558-1.201-0.962c0-0.161,0-0.301,0-0.415c0.083-0.143,0.224-0.14,0.297-0.1
		C41.546,64.643,42.071,64.575,42.588,64.584z"/>
	<path fill="currentColor" d="M54.786,37.377c0,0.048,0,0.188,0,0.321
		c-0.183,0.182-0.357,0.356-0.532,0.532c-0.844,0.151-0.719-0.788-1.21-0.977c0.18-0.705,0.18-0.705,0.863-0.747
		C54.203,36.8,54.472,37.067,54.786,37.377z"/>
	<path fill="currentColor" d="M62.676,38.878c0.224,0.232,0.472,0.379,0.378,0.531
		c-0.064,0.194-0.065,0.241-0.087,0.255c-0.171,0.104-0.4,0.104-0.532,0.313c-0.463-0.173-0.928-0.347-1.455-0.544
		C61.413,38.732,62.061,38.904,62.676,38.878z"/>
	<path fill="currentColor" d="M10.5,49.696c0.228,0,0.367,0,0.564,0c0.163,0.157,0.363,0.35,0.526,0.507
		c0.021,0.332-0.205,0.415-0.34,0.554c-0.271,0.035-0.507,0.003-0.665-0.246C10.44,50.284,10.543,50.029,10.5,49.696z"/>
	
	
	
	
	
	
	
	
	
	
	
	
	
	<path fill="currentColor" d="M35.554,31.433c0.167-0.154,0.286-0.147,0.42-0.04
		C35.892,31.632,35.753,31.566,35.554,31.433z"/>
</g>
</svg>
