<svg xmlns="http://www.w3.org/2000/svg" xml:space="preserve" width="72px" height="72px" viewBox="0 0 72 72">
    <g fill="currentColor">
        <path d="M45.764 43.864c-.269.527-.593.946-.457 1.507-.676.322-1.3.645-1.941.92-.833.356-1.43.921-1.752 1.775-.188.498-.595.896-.653 1.46-.026.268-.206.435-.496.441-.409.011-.708.231-1.017.549v.862l-.272.274a2.3 2.3 0 0 1-1.615-.23c-.279.239-.641.255-.88.565-.838-.498-1.599-.275-2.341.141-.432-.079-.741-.504-1.208-.436-.378.152-.332.615-.682.838h-1.121l-.849-.85c-.557.121-1.181-.187-1.742.205-.085-.067-.159-.17-.323-.2-.464-.087-.963-.158-1.068-.763-.643-.53-.897-1.246-1.085-2.037-.129-.54-.673-.748-1.186-.855-.501-.106-.891-.216-1.222-.74-.275-.44-.831-.787-1.375-1.03-.343-.155-.68-.354-.928-.744v-2.335c-.317-.314-.622-.67-.977-.963-.608-.501-.925-1.239-1.513-1.76-.358-.318-.41-.852-.523-1.283-.128-.491-.255-.964-.446-1.44-.428-1.069-.273-2.181.042-3.248.145-.491.521-.897 1-1.15.583-.307.969-.774 1.086-1.417.037-.201.112-.337.252-.435.302-.21.368-.583.634-.879-.246-1.084.496-1.823 1.071-2.626.028-.595-.357-.955-.736-1.32-.2.139-.304.298-.368.566a3 3 0 0 1-.561 1.163c-.646.788-.618 1.448-.275 2.424-.396.592-1.184.752-1.548 1.41h-.978c-.577-.493-.563-1.263-.692-1.94-.097-.505.399-.898.57-1.4-.005-.006-.071-.053-.078-.108-.168-1.285-.23-2.572.386-3.763.125-.241.171-.445.174-.686.005-.468.001-.936.001-1.384.589-1.106 1.415-2.069 1.839-3.424.314-.34.727-.82 1.386-1.094.285.128.621.341 1.019.192.275-.389.275-.389.305-.947.723-.758 1.453-1.5 2.481-1.839.221-.404.645-.127.962-.289.71-.359 1.46-.644 2.206-.929.915-.351 1.802-.791 2.836-.733.358.02.724-.16 1.093-.228 1.143-.212 1.125-.229 2.096.018.722.183 1.42.51 2.194.444a.58.58 0 0 1 .389.107c.9.581 1.99.776 2.881 1.383.339.231.756.289 1.123.412.437.146.539.7 1.014.683.443-.015.724.336 1.107.465.267.089.448.435.64.637h.478c1.556 1.439 2.37 3.33 3.183 5.185.353.808.763 1.705.549 2.646.329.341.514.709.455 1.146-.059.434.377.753.229 1.209-.094.287.098.617-.178.908-.11.116-.109.444-.028.612.122.253.271.444.146.761-.502 1.252-.227 1.184-.895 1.746-.922.204-1.739-.434-2.332-.236-.837-.087-1.052-.68-1.612-.873-.271-.406-.336-1.067-1.021-1.259-.339.561-.397 1.163-.338 1.857.545.672 1.342.986 2.214.95.916-.038 1.515.554 2.215.927.596.318.825.999 1.145 1.565a.66.66 0 0 1 .019.522c-.352.779-.296 1.649-.616 2.445-.31.769-.528 1.573-.868 2.341-.271.612-.831.998-1.117 1.784-.105.535.272 1.144.493 1.828M21.877 33.631c-.604-.017-.759.57-1.199.792-.979.497-1.36 1.416-1.054 2.369.337 1.05.268 2.154.657 3.144l1.362 1.396h2.877c1.322.395 2.256.965 3.349.429.381.41.877.126 1.331.24.307-.502.821-.803 1.284-1.051.895-.476 1.071-1.245 1.232-2.072l-.812-.791c-.185-.017-.366-.009-.574-.138-.906-.561-1.99-.762-2.878-1.373-.901-.055-1.387-.661-1.827-1.35a1.7 1.7 0 0 0-.774-.65c-.366-.167-.756-.277-1.106-.451-1.079-.54-1.064-.569-1.868-.494m14.265 7.318c.44.297.85.421 1.32.384.62-.05 1.273.128 1.849-.227.318-.196.533.308.926.041.271-.184.768-.024 1.162-.04.235-.009.464-.056.701-.118.731-.192 1.331-.615 1.929-.876.302-.353.294-.775.591-1.033.581-.506 1.044-1.097 1.32-1.928.128-.883-.311-1.637-.863-2.206-1.537-.49-2.994-.254-4.39-.32-.447.331-.966.44-1.329.842a9.2 9.2 0 0 1-2.001 1.646c-.559.351-1.067.595-1.686.536-.528.745-.421 1.468.471 3.299m-2.848-.873c-.315.819-1.28.918-1.557 1.535-.299 1.05-.564 1.995-1.386 2.652.102 1.43.664 2.632 1.542 3.706.157.192.144.203.652.401.491-.66.446-1.428.427-2.185.172-.121.249-.38.558-.314.757.679.5 1.933 1.3 2.598.595-.137.968-.444 1.148-1.158-.219-1.08.753-1.94 1.102-3.017-.393-.626-.769-1.265-1.191-1.871-.128-.186-.272-.468-.559-.439-.454.044-.573-.358-.845-.551v-1.237c-.343-.684-.775-.27-1.191-.12M30.6 36.089v-.473c-.674-.814-1.684-1.217-2.39-1.973v-.867l-.831-.825c-.069-.563-.367-1.058-.24-1.57-.662-.391-.662-.391-1.494.24.029.263-.038.514.095.804.163.354.348.726.332 1.156-.023.643.316 1.077.856 1.411.381.236.796.434 1.025.887.173.345.563.519.92.603.584.138 1.065.518 1.727.607m7.528-2.824c-.588.565-1.056 1.122-1.693 1.473-.642.354-1.224.816-1.921 1.038v.939l.4.188c.771.029.85-.656 1.319-.929a3.46 3.46 0 0 0 1.204-1.205c.251-.432.758-.783.691-1.504m3.927-7.594c-.023-.657-.356-1.095-.837-1.434-.552.225-.678.711-.95 1.203.357.028.168.386.339.521.804.27 1.47.692 1.979 1.345l.331-.366c-.076-.602-.533-.903-.862-1.269m-1.893 18.258c-.293.55-1.03.472-1.337.979.476.504 1.024.604 1.521.516l1.039-.528c.016-.338.45-.599.133-.966zm-12.478.639h-2.362l-.643.67c.038.028.156.191.258.181.975-.092 1.94-.293 2.928-.205.027.003.061-.028.085-.05.023-.024.039-.056.058-.086-.006-.067.009-.151-.025-.202-.057-.087-.147-.155-.299-.308m1.654 2.592c-.27.558-.959.917-.882 1.713.871-.085 1.77-.767 1.666-1.22-.268-.062-.067-.413-.306-.493zm8.61 1.269c-.105-.356.177-.619.232-.937-.177-.115-.235-.322-.437-.333-.224-.008-.278.209-.423.3v.707c.165.114.229.327.628.263m1.075.77c-.28-.089-.314-.585-.8-.517-.1.274-.082.54.109.699q.24.245.474.479c.259-.068.223-.334.217-.661M24.66 20.38c.12-.185.442-.267.284-.589-.22-.086-.438-.167-.605.073-.041.281.21.35.321.516m.784 2.65c.44-.141.713-.271.542-.753-.354.107-.612.221-.542.753m-2.636 27.462.982.981h.828c.394.239.58.619.792.974.282.475.657.765 1.182 1.011.85.399 1.51 1.097 1.995 1.935.105.182.027.346.076.514l-.294.282c-.999.285-1.755-.438-2.755-.624.296.962 1 1.521 1.605 2.146.685.137.685.137 1.225 1.081l-.294.655c-.089.007-.202.047-.292.019-.359-.112-.692-.269-.958-.557-.292-.318-.607-.613-.928-.934h-1.466c-.654-.58-1.387-.893-2.25-.883-.413.006-.809.001-1.214-.193-.391-.188-.834-.32-1.306-.244-.232.037-.45-.026-.69-.155-.208-.112-.497-.181-.752-.254-.256-.074-.576.071-.77-.23-.491.122-.681-.293-.961-.542v-.615l.763-1.196c.156-.086.406-.004.647-.015l.431.431c.765-.167 1.524.223 2.375.233l.326-.432c1.318-.11 2.469-.033 3.071 1.257.7-.036.698-.042.822-.76-.771-.378-1.229-1.076-1.655-1.819-.125-.218-.315-.498-.675-.431-.218.041-.298-.156-.43-.264-.554-.451-1.243-.649-1.859-.985-.227-.123-.484-.05-.97.17-.721-.314-.94-.256-1.97.529-.104.306.079.532.205.762-.01.222-.219.279-.32.438-.854 0-1.716.026-2.576-.008-1.067-.043-2.032-.312-2.518-1.508.256-.239.252-.621.219-1.038h1.422c.519.275 1.008.631 1.693.24.275-.158.695-.061 1.074-.081.274-.21.662-.3.899-.626.189-.26.521-.384.791-.413.503-.055.724-.362.995-.713.446-.575 1.15-.68 1.813-.814.239-.048.496-.007.712-.007.731.598.11 1.243.086 1.887.467.084 1.022.064.874.796m28.527 5.203c-.104.251.222.338.239.445l-.935.932c-.261-.033-.759.193-1.188-.192-.517.142-1.064.166-1.584.44-.395-.364-.905-.19-1.387-.225-.414.372-.731.861-1.461 1.067-.923-.135-1.977.368-3.076.229-1.136.429-2.315.148-3.475.207-.728.038-1.426-.313-2.169-.239-.07.008-.155-.126-.228-.19-.393.166-.803.275-1.017.653h-.887c-.229-.187-.425-.391-.32-.74.466-.327 1.04-.388 1.653-.69.089-.304.468-.568.73-.851a4 4 0 0 1 1.983-.305c.329.034.533-.375.923-.199.265-.471.813-.612 1.179-.989a8 8 0 0 1 1.197-1.01c.391-.271.484-.872.934-1.104.482-.251.822-.646 1.195-.994 1.062-.089 1.92-1.044 2.843-.682.783-.214 1.095-.711 1.502-1.067.535-.005.929-.262 1.273-.632h.965v.764a4.33 4.33 0 0 1-1.871 1.168c-.505.155-.966.56-1.466.602-.614.051-.868.661-1.454.708-.196.015-.37.309-.556.478v2.02c.258.128.504.06.748.058.067-.377.373-.575.619-.839h.621a4.94 4.94 0 0 1 1.769-1.736h.95l.478.302c-.211.814-.831 1.206-1.299 1.738-.02.153-.064.325.036.508.833.172 1.757-.217 2.536.365m-9.916.939h2.276c.459-.474.459-.474.452-1.002-.742-.505-.742-.505-1.801-.294l-.951.894c.007.099.015.237.024.402"/>
        <path d="M41.725 50.182c.557.058.839-.25.97-.745.208-.785.721-1.289 1.425-1.666.408-.218.898-.402.986-.968.32-.091.571-.34.96-.31.324.025.625-.207.987-.218.467-.012.947-.408 1.391-.134.286.179.538.15.805.145.301-.006.639.135.899-.184.059-.073.302-.072.409-.014.578.31 1.303.073 1.84.512.315.258.676.078.993.124.344-.752 1.244-1.233.91-2.323.119-.085.358-.163.393-.296.108-.424.408-.621.769-.738.482-.158.955-.398 1.49-.31a.4.4 0 0 1 .183.077c.537.484 1.289.565 1.918 1.005.765-.088 1.457.093 1.812 1.213.307 1.043-.666 1.667-1.41 2.436h-.686c-.096-.096-.223-.162-.24-.25-.076-.389-.369-.51-.672-.688a1.2 1.2 0 0 0-1.019-.086c-.794.269-1.593.448-2.424.384-.374-.029-.692.087-.984.24-.538.283-1.146.339-1.696.599a1.15 1.15 0 0 1-1.117-.106c-.194-.138-.613-.167-.814-.049-.473.28-.956.188-1.435.185-.808-.005-1.573.384-2.393.225-.232-.045-.472.166-.532.237-.393.47-1.063.606-1.342 1.236-.156.351-.525.646-.952.775-.336.103-.583.346-.803.57-.73-.178-.73-.178-.621-.878m-29.346-4.315c.353-.11.701-.24.959-.58-.056-.425-.511-.551-.693-.877-.646-.257-1.207.399-1.858.111-.203-.173-.416-.371-.244-.724.125-.308.526-.272.7-.494.702-.201 1.296.281 1.982.2.638-.076 1.327-.146 1.928.02.662.183 1.309.14 1.684.169 1.018.284 1.446.886 1.873 1.438.061.314-.044.521-.302.708h-2.957l-.257-.391c-.216-.031-.303.008-.388.159.164.419.591.652.876 1 .262.319.507.65.422 1.188-.843-.078-1.699.211-2.561-.179-.232-.104-.631-.152-.901.115-.026.024-.056.076-.076.072-.745-.144-1.428.334-2.174.204-.265-.414-.387-.87-.291-1.392 1.067-1.097 1.164-1.131 2.278-.747m29.425 15.097c.268-.402.58-.584 1.027-.689.469-.109.788-.626 1.334-.659.055-.004.109-.143.152-.136.955.134 1.82-.276 2.729-.406.399-.059.75-.397 1.261-.193.035.659-.269 1.157-.857 1.445-.478.232-.971.498-1.534.439-1.177-.122-2.209.27-3.197.88-.288-.217-.719-.218-.915-.681m-8.372 1.282c.934-.421 1.667-.782 2.529-.557-.476.481-.976.605-2.529.557M11.457 49.555h.488c.111.181.168.333-.082.413-.268.045-.31-.237-.406-.413"/>
    </g>
</svg>
