<?xml version="1.0" encoding="iso-8859-1"?>
<!-- Generator: Adobe Illustrator 16.0.0, SVG Export Plug-In . SVG Version: 6.00 Build 0)  -->
<!DOCTYPE svg PUBLIC "-//W3C//DTD SVG 1.1//EN" "http://www.w3.org/Graphics/SVG/1.1/DTD/svg11.dtd">
<svg version="1.1" id="Layer_1" xmlns="http://www.w3.org/2000/svg" xmlns:xlink="http://www.w3.org/1999/xlink" x="0px" y="0px"
	 width="72.18px" height="70.921px" viewBox="0 0 72.18 70.921" style="enable-background:new 0 0 72.18 70.921;"
	 xml:space="preserve">
<g>
	
	<path fill="currentColor" d="M45.764,43.864c-0.269,0.527-0.593,0.946-0.457,1.507
		c-0.676,0.322-1.3,0.645-1.941,0.92c-0.833,0.356-1.43,0.921-1.752,1.775c-0.188,0.498-0.595,0.896-0.653,1.46
		c-0.026,0.268-0.206,0.435-0.496,0.441c-0.409,0.011-0.708,0.231-1.017,0.549c0,0.275,0,0.59,0,0.862
		c-0.113,0.115-0.19,0.191-0.272,0.274c-0.551,0.114-1.09,0.057-1.615-0.23c-0.279,0.239-0.641,0.255-0.88,0.565
		c-0.838-0.498-1.599-0.275-2.341,0.141c-0.432-0.079-0.741-0.504-1.208-0.436c-0.378,0.152-0.332,0.615-0.682,0.838
		c-0.338,0-0.724,0-1.121,0c-0.27-0.27-0.549-0.55-0.849-0.85c-0.557,0.121-1.181-0.187-1.742,0.205
		c-0.085-0.067-0.159-0.17-0.323-0.2c-0.464-0.087-0.963-0.158-1.068-0.763c-0.643-0.53-0.897-1.246-1.085-2.037
		c-0.129-0.54-0.673-0.748-1.186-0.855c-0.501-0.106-0.891-0.216-1.222-0.74c-0.275-0.44-0.831-0.787-1.375-1.03
		c-0.343-0.155-0.68-0.354-0.928-0.744c0-0.721,0-1.508,0-2.335c-0.317-0.314-0.622-0.67-0.977-0.963
		c-0.608-0.501-0.925-1.239-1.513-1.76c-0.358-0.318-0.41-0.852-0.523-1.283c-0.128-0.491-0.255-0.964-0.446-1.44
		c-0.428-1.069-0.273-2.181,0.042-3.248c0.145-0.491,0.521-0.897,1-1.15c0.583-0.307,0.969-0.774,1.086-1.417
		c0.037-0.201,0.112-0.337,0.252-0.435c0.302-0.21,0.368-0.583,0.634-0.879c-0.246-1.084,0.496-1.823,1.071-2.626
		c0.028-0.595-0.357-0.955-0.736-1.32c-0.2,0.139-0.304,0.298-0.368,0.566c-0.099,0.411-0.293,0.837-0.561,1.163
		c-0.646,0.788-0.618,1.448-0.275,2.424c-0.396,0.592-1.184,0.752-1.548,1.41c-0.322,0-0.636,0-0.978,0
		c-0.577-0.493-0.563-1.263-0.692-1.94c-0.097-0.505,0.399-0.898,0.57-1.4c-0.005-0.006-0.071-0.053-0.078-0.108
		c-0.168-1.285-0.23-2.572,0.386-3.763c0.125-0.241,0.171-0.445,0.174-0.686c0.005-0.468,0.001-0.936,0.001-1.384
		c0.589-1.106,1.415-2.069,1.839-3.424c0.314-0.34,0.727-0.82,1.386-1.094c0.285,0.128,0.621,0.341,1.019,0.192
		c0.275-0.389,0.275-0.389,0.305-0.947c0.723-0.758,1.453-1.5,2.481-1.839c0.221-0.404,0.645-0.127,0.962-0.289
		c0.71-0.359,1.46-0.644,2.206-0.929c0.915-0.351,1.802-0.791,2.836-0.733c0.358,0.02,0.724-0.16,1.093-0.228
		c1.143-0.212,1.125-0.229,2.096,0.018c0.722,0.183,1.42,0.51,2.194,0.444c0.14-0.012,0.256,0.021,0.389,0.107
		c0.9,0.581,1.99,0.776,2.881,1.383c0.339,0.231,0.756,0.289,1.123,0.412c0.437,0.146,0.539,0.7,1.014,0.683
		c0.443-0.015,0.724,0.336,1.107,0.465c0.267,0.089,0.448,0.435,0.64,0.637c0.212,0,0.352,0,0.478,0
		c1.556,1.439,2.37,3.33,3.183,5.185c0.353,0.808,0.763,1.705,0.549,2.646c0.329,0.341,0.514,0.709,0.455,1.146
		c-0.059,0.434,0.377,0.753,0.229,1.209c-0.094,0.287,0.098,0.617-0.178,0.908c-0.11,0.116-0.109,0.444-0.028,0.612
		c0.122,0.253,0.271,0.444,0.146,0.761c-0.502,1.252-0.227,1.184-0.895,1.746c-0.922,0.204-1.739-0.434-2.332-0.236
		c-0.837-0.087-1.052-0.68-1.612-0.873c-0.271-0.406-0.336-1.067-1.021-1.259c-0.339,0.561-0.397,1.163-0.338,1.857
		c0.545,0.672,1.342,0.986,2.214,0.95c0.916-0.038,1.515,0.554,2.215,0.927c0.596,0.318,0.825,0.999,1.145,1.565
		c0.077,0.137,0.085,0.376,0.019,0.522c-0.352,0.779-0.296,1.649-0.616,2.445c-0.31,0.769-0.528,1.573-0.868,2.341
		c-0.271,0.612-0.831,0.998-1.117,1.784C45.166,42.571,45.543,43.18,45.764,43.864z M21.877,33.631
		c-0.604-0.017-0.759,0.57-1.199,0.792c-0.979,0.497-1.36,1.416-1.054,2.369c0.337,1.05,0.268,2.154,0.657,3.144
		c0.463,0.475,0.914,0.937,1.362,1.396c1.085,0,2.162,0,2.877,0c1.322,0.395,2.256,0.965,3.349,0.429
		c0.381,0.41,0.877,0.126,1.331,0.24c0.307-0.502,0.821-0.803,1.284-1.051c0.895-0.476,1.071-1.245,1.232-2.072
		c-0.289-0.281-0.545-0.531-0.812-0.791c-0.185-0.017-0.366-0.009-0.574-0.138c-0.906-0.561-1.99-0.762-2.878-1.373
		c-0.901-0.055-1.387-0.661-1.827-1.35c-0.184-0.288-0.433-0.496-0.774-0.65c-0.366-0.167-0.756-0.277-1.106-0.451
		C22.666,33.585,22.681,33.556,21.877,33.631z M36.142,40.949c0.44,0.297,0.85,0.421,1.32,0.384c0.62-0.05,1.273,0.128,1.849-0.227
		c0.318-0.196,0.533,0.308,0.926,0.041c0.271-0.184,0.768-0.024,1.162-0.04c0.235-0.009,0.464-0.056,0.701-0.118
		c0.731-0.192,1.331-0.615,1.929-0.876c0.302-0.353,0.294-0.775,0.591-1.033c0.581-0.506,1.044-1.097,1.32-1.928
		c0.128-0.883-0.311-1.637-0.863-2.206c-1.537-0.49-2.994-0.254-4.39-0.32c-0.447,0.331-0.966,0.44-1.329,0.842
		c-0.581,0.643-1.248,1.177-2.001,1.646c-0.559,0.351-1.067,0.595-1.686,0.536C35.143,38.395,35.25,39.118,36.142,40.949z
		 M33.294,40.076c-0.315,0.819-1.28,0.918-1.557,1.535c-0.299,1.05-0.564,1.995-1.386,2.652c0.102,1.43,0.664,2.632,1.542,3.706
		c0.157,0.192,0.144,0.203,0.652,0.401c0.491-0.66,0.446-1.428,0.427-2.185c0.172-0.121,0.249-0.38,0.558-0.314
		c0.757,0.679,0.5,1.933,1.3,2.598c0.595-0.137,0.968-0.444,1.148-1.158c-0.219-1.08,0.753-1.94,1.102-3.017
		c-0.393-0.626-0.769-1.265-1.191-1.871c-0.128-0.186-0.272-0.468-0.559-0.439c-0.454,0.044-0.573-0.358-0.845-0.551
		c0-0.438,0-0.868,0-1.237C34.142,39.512,33.71,39.926,33.294,40.076z M30.6,36.089c0-0.197,0-0.34,0-0.473
		c-0.674-0.814-1.684-1.217-2.39-1.973c0-0.311,0-0.594,0-0.867c-0.292-0.29-0.571-0.568-0.831-0.825
		c-0.069-0.563-0.367-1.058-0.24-1.57c-0.662-0.391-0.662-0.391-1.494,0.24c0.029,0.263-0.038,0.514,0.095,0.804
		c0.163,0.354,0.348,0.726,0.332,1.156c-0.023,0.643,0.316,1.077,0.856,1.411c0.381,0.236,0.796,0.434,1.025,0.887
		c0.173,0.345,0.563,0.519,0.92,0.603C29.457,35.62,29.938,36,30.6,36.089z M38.128,33.265c-0.588,0.565-1.056,1.122-1.693,1.473
		c-0.642,0.354-1.224,0.816-1.921,1.038c0,0.335,0,0.649,0,0.939c0.202,0.095,0.375,0.176,0.4,0.188
		c0.771,0.029,0.85-0.656,1.319-0.929c0.479-0.278,0.926-0.726,1.204-1.205C37.688,34.337,38.195,33.986,38.128,33.265z
		 M42.055,25.671c-0.023-0.657-0.356-1.095-0.837-1.434c-0.552,0.225-0.678,0.711-0.95,1.203c0.357,0.028,0.168,0.386,0.339,0.521
		c0.804,0.27,1.47,0.692,1.979,1.345c0.16-0.178,0.253-0.28,0.331-0.366C42.841,26.338,42.384,26.037,42.055,25.671z M40.162,43.929
		c-0.293,0.55-1.03,0.472-1.337,0.979c0.476,0.504,1.024,0.604,1.521,0.516c0.416-0.211,0.737-0.375,1.039-0.528
		c0.016-0.338,0.45-0.599,0.133-0.966C41.1,43.929,40.676,43.929,40.162,43.929z M27.684,44.568c-0.862,0-1.723,0-2.362,0
		c-0.289,0.301-0.469,0.488-0.643,0.67c0.038,0.028,0.156,0.191,0.258,0.181c0.975-0.092,1.94-0.293,2.928-0.205
		c0.027,0.003,0.061-0.028,0.085-0.05c0.023-0.024,0.039-0.056,0.058-0.086c-0.006-0.067,0.009-0.151-0.025-0.202
		C27.926,44.789,27.836,44.721,27.684,44.568z M29.338,47.16c-0.27,0.558-0.959,0.917-0.882,1.713
		c0.871-0.085,1.77-0.767,1.666-1.22c-0.268-0.062-0.067-0.413-0.306-0.493C29.71,47.16,29.604,47.16,29.338,47.16z M37.948,48.429
		c-0.105-0.356,0.177-0.619,0.232-0.937c-0.177-0.115-0.235-0.322-0.437-0.333c-0.224-0.008-0.278,0.209-0.423,0.3
		c0,0.241,0,0.483,0,0.707C37.485,48.28,37.549,48.493,37.948,48.429z M39.023,49.199c-0.28-0.089-0.314-0.585-0.8-0.517
		c-0.1,0.274-0.082,0.54,0.109,0.699c0.16,0.162,0.319,0.324,0.474,0.479C39.065,49.792,39.029,49.526,39.023,49.199z M24.66,20.38
		c0.12-0.185,0.442-0.267,0.284-0.589c-0.22-0.086-0.438-0.167-0.605,0.073C24.298,20.145,24.549,20.214,24.66,20.38z M25.444,23.03
		c0.44-0.141,0.713-0.271,0.542-0.753C25.632,22.384,25.374,22.498,25.444,23.03z"/>
	<path fill="currentColor" d="M22.808,50.492c0.366,0.365,0.671,0.671,0.982,0.981
		c0.281,0,0.567,0,0.828,0c0.394,0.239,0.58,0.619,0.792,0.974c0.282,0.475,0.657,0.765,1.182,1.011
		c0.85,0.399,1.51,1.097,1.995,1.935c0.105,0.182,0.027,0.346,0.076,0.514c-0.105,0.102-0.209,0.201-0.294,0.282
		c-0.999,0.285-1.755-0.438-2.755-0.624c0.296,0.962,1,1.521,1.605,2.146c0.685,0.137,0.685,0.137,1.225,1.081
		c-0.094,0.21-0.189,0.422-0.294,0.655c-0.089,0.007-0.202,0.047-0.292,0.019c-0.359-0.112-0.692-0.269-0.958-0.557
		c-0.292-0.318-0.607-0.613-0.928-0.934c-0.484,0-0.984,0-1.466,0c-0.654-0.58-1.387-0.893-2.25-0.883
		c-0.413,0.006-0.809,0.001-1.214-0.193c-0.391-0.188-0.834-0.32-1.306-0.244c-0.232,0.037-0.45-0.026-0.69-0.155
		c-0.208-0.112-0.497-0.181-0.752-0.254c-0.256-0.074-0.576,0.071-0.77-0.23c-0.491,0.122-0.681-0.293-0.961-0.542
		c0-0.216,0-0.432,0-0.615c0.25-0.392,0.485-0.761,0.763-1.196c0.156-0.086,0.406-0.004,0.647-0.015
		c0.127,0.128,0.255,0.255,0.431,0.431c0.765-0.167,1.524,0.223,2.375,0.233c0.118-0.156,0.247-0.327,0.326-0.432
		c1.318-0.11,2.469-0.033,3.071,1.257c0.7-0.036,0.698-0.042,0.822-0.76c-0.771-0.378-1.229-1.076-1.655-1.819
		c-0.125-0.218-0.315-0.498-0.675-0.431c-0.218,0.041-0.298-0.156-0.43-0.264c-0.554-0.451-1.243-0.649-1.859-0.985
		c-0.227-0.123-0.484-0.05-0.97,0.17c-0.721-0.314-0.94-0.256-1.97,0.529c-0.104,0.306,0.079,0.532,0.205,0.762
		c-0.01,0.222-0.219,0.279-0.32,0.438c-0.854,0-1.716,0.026-2.576-0.008c-1.067-0.043-2.032-0.312-2.518-1.508
		c0.256-0.239,0.252-0.621,0.219-1.038c0.495,0,0.953,0,1.422,0c0.519,0.275,1.008,0.631,1.693,0.24
		c0.275-0.158,0.695-0.061,1.074-0.081c0.274-0.21,0.662-0.3,0.899-0.626c0.189-0.26,0.521-0.384,0.791-0.413
		c0.503-0.055,0.724-0.362,0.995-0.713c0.446-0.575,1.15-0.68,1.813-0.814c0.239-0.048,0.496-0.007,0.712-0.007
		c0.731,0.598,0.11,1.243,0.086,1.887C22.401,49.78,22.956,49.76,22.808,50.492z"/>
	<path fill="currentColor" d="M51.335,55.695c-0.104,0.251,0.222,0.338,0.239,0.445
		c-0.313,0.312-0.563,0.561-0.935,0.932c-0.261-0.033-0.759,0.193-1.188-0.192c-0.517,0.142-1.064,0.166-1.584,0.44
		c-0.395-0.364-0.905-0.19-1.387-0.225c-0.414,0.372-0.731,0.861-1.461,1.067c-0.923-0.135-1.977,0.368-3.076,0.229
		c-1.136,0.429-2.315,0.148-3.475,0.207c-0.728,0.038-1.426-0.313-2.169-0.239c-0.07,0.008-0.155-0.126-0.228-0.19
		c-0.393,0.166-0.803,0.275-1.017,0.653c-0.313,0-0.601,0-0.887,0c-0.229-0.187-0.425-0.391-0.32-0.74
		c0.466-0.327,1.04-0.388,1.653-0.69c0.089-0.304,0.468-0.568,0.73-0.851c0.669-0.277,1.317-0.375,1.983-0.305
		c0.329,0.034,0.533-0.375,0.923-0.199c0.265-0.471,0.813-0.612,1.179-0.989c0.366-0.375,0.76-0.707,1.197-1.01
		c0.391-0.271,0.484-0.872,0.934-1.104c0.482-0.251,0.822-0.646,1.195-0.994c1.062-0.089,1.92-1.044,2.843-0.682
		c0.783-0.214,1.095-0.711,1.502-1.067c0.535-0.005,0.929-0.262,1.273-0.632c0.309,0,0.622,0,0.965,0c0,0.231,0,0.439,0,0.764
		c-0.477,0.499-1.096,0.931-1.871,1.168c-0.505,0.155-0.966,0.56-1.466,0.602c-0.614,0.051-0.868,0.661-1.454,0.708
		c-0.196,0.015-0.37,0.309-0.556,0.478c0,0.68,0,1.354,0,2.02c0.258,0.128,0.504,0.06,0.748,0.058
		c0.067-0.377,0.373-0.575,0.619-0.839c0.203,0,0.415,0,0.621,0c0.442-0.738,1.036-1.303,1.769-1.736c0.351,0,0.709,0,0.95,0
		c0.22,0.138,0.368,0.232,0.478,0.302c-0.211,0.814-0.831,1.206-1.299,1.738c-0.02,0.153-0.064,0.325,0.036,0.508
		C49.632,55.502,50.556,55.113,51.335,55.695z M41.419,56.634c0.766,0,1.507,0,2.276,0c0.459-0.474,0.459-0.474,0.452-1.002
		c-0.742-0.505-0.742-0.505-1.801-0.294c-0.374,0.352-0.652,0.612-0.951,0.894C41.402,56.331,41.41,56.469,41.419,56.634z"/>
	<path fill="currentColor" d="M41.725,50.182c0.557,0.058,0.839-0.25,0.97-0.745
		c0.208-0.785,0.721-1.289,1.425-1.666c0.408-0.218,0.898-0.402,0.986-0.968c0.32-0.091,0.571-0.34,0.96-0.31
		c0.324,0.025,0.625-0.207,0.987-0.218c0.467-0.012,0.947-0.408,1.391-0.134c0.286,0.179,0.538,0.15,0.805,0.145
		c0.301-0.006,0.639,0.135,0.899-0.184c0.059-0.073,0.302-0.072,0.409-0.014c0.578,0.31,1.303,0.073,1.84,0.512
		c0.315,0.258,0.676,0.078,0.993,0.124c0.344-0.752,1.244-1.233,0.91-2.323c0.119-0.085,0.358-0.163,0.393-0.296
		c0.108-0.424,0.408-0.621,0.769-0.738c0.482-0.158,0.955-0.398,1.49-0.31c0.063,0.011,0.137,0.035,0.183,0.077
		c0.537,0.484,1.289,0.565,1.918,1.005c0.765-0.088,1.457,0.093,1.812,1.213c0.307,1.043-0.666,1.667-1.41,2.436
		c-0.223,0-0.464,0-0.686,0c-0.096-0.096-0.223-0.162-0.24-0.25c-0.076-0.389-0.369-0.51-0.672-0.688
		c-0.353-0.206-0.723-0.188-1.019-0.086c-0.794,0.269-1.593,0.448-2.424,0.384c-0.374-0.029-0.692,0.087-0.984,0.24
		c-0.538,0.283-1.146,0.339-1.696,0.599c-0.269,0.127-0.735,0.165-1.117-0.106c-0.194-0.138-0.613-0.167-0.814-0.049
		c-0.473,0.28-0.956,0.188-1.435,0.185c-0.808-0.005-1.573,0.384-2.393,0.225c-0.232-0.045-0.472,0.166-0.532,0.237
		c-0.393,0.47-1.063,0.606-1.342,1.236c-0.156,0.351-0.525,0.646-0.952,0.775c-0.336,0.103-0.583,0.346-0.803,0.57
		C41.616,50.882,41.616,50.882,41.725,50.182z"/>
	<path fill="currentColor" d="M12.379,45.867c0.353-0.11,0.701-0.24,0.959-0.58
		c-0.056-0.425-0.511-0.551-0.693-0.877c-0.646-0.257-1.207,0.399-1.858,0.111c-0.203-0.173-0.416-0.371-0.244-0.724
		c0.125-0.308,0.526-0.272,0.7-0.494c0.702-0.201,1.296,0.281,1.982,0.2c0.638-0.076,1.327-0.146,1.928,0.02
		c0.662,0.183,1.309,0.14,1.684,0.169c1.018,0.284,1.446,0.886,1.873,1.438c0.061,0.314-0.044,0.521-0.302,0.708
		c-0.919,0-1.879,0-2.957,0c-0.069-0.104-0.187-0.283-0.257-0.391c-0.216-0.031-0.303,0.008-0.388,0.159
		c0.164,0.419,0.591,0.652,0.876,1c0.262,0.319,0.507,0.65,0.422,1.188c-0.843-0.078-1.699,0.211-2.561-0.179
		c-0.232-0.104-0.631-0.152-0.901,0.115c-0.026,0.024-0.056,0.076-0.076,0.072c-0.745-0.144-1.428,0.334-2.174,0.204
		c-0.265-0.414-0.387-0.87-0.291-1.392C11.168,45.517,11.265,45.483,12.379,45.867z"/>
	<path fill="currentColor" d="M41.804,60.964c0.268-0.402,0.58-0.584,1.027-0.689
		c0.469-0.109,0.788-0.626,1.334-0.659c0.055-0.004,0.109-0.143,0.152-0.136c0.955,0.134,1.82-0.276,2.729-0.406
		c0.399-0.059,0.75-0.397,1.261-0.193c0.035,0.659-0.269,1.157-0.857,1.445c-0.478,0.232-0.971,0.498-1.534,0.439
		c-1.177-0.122-2.209,0.27-3.197,0.88C42.431,61.428,42,61.427,41.804,60.964z"/>
	<path fill="currentColor" d="M33.432,62.246c0.934-0.421,1.667-0.782,2.529-0.557
		C35.485,62.17,34.985,62.294,33.432,62.246z"/>
	<path fill="currentColor" d="M11.457,49.555c0.166,0,0.331,0,0.488,0
		c0.111,0.181,0.168,0.333-0.082,0.413C11.595,50.013,11.553,49.731,11.457,49.555z"/>
	
	
	
	
	
	
	
	
	
	
	
	
	
	
</g>
</svg>
