<?xml version="1.0" encoding="iso-8859-1"?>
<!-- Generator: Adobe Illustrator 16.0.0, SVG Export Plug-In . SVG Version: 6.00 Build 0)  -->
<!DOCTYPE svg PUBLIC "-//W3C//DTD SVG 1.1//EN" "http://www.w3.org/Graphics/SVG/1.1/DTD/svg11.dtd">
<svg version="1.1" id="Layer_1" xmlns="http://www.w3.org/2000/svg" xmlns:xlink="http://www.w3.org/1999/xlink" x="0px" y="0px"
	 width="72.18px" height="70.921px" viewBox="0 0 72.18 70.921" style="enable-background:new 0 0 72.18 70.921;"
	 xml:space="preserve">
<g>
	
	<path fill="currentColor" d="M25.115,58.607c-0.393-0.281-0.593-0.68-0.821-1.115
		c0.292-0.303,0.481-0.723,1.017-0.615c0.155-0.373,0.605-0.081,0.823-0.374c0.182-0.246,0.467-0.39,0.728-0.563
		c0.649-0.432,1.299-0.861,1.954-1.287c0.588-0.38,1.13-0.83,1.6-1.362c0.374-0.424,0.811-0.686,1.42-0.76
		c0.518-0.064,0.995-0.378,1.406-0.765c1.199-1.127,2.667-1.843,4.104-2.601c0.299-0.158,0.63-0.004,0.987-0.091
		c0.115-0.537,0.086-1.049-0.393-1.537c-0.613,0.651-1.419,0.756-2.064,0.71c-0.816,0.195-1.08,0.886-1.705,1.068
		c-0.431,0-0.862,0-1.334,0c-0.22,0.317,0.166,0.914-0.332,1.035c-0.448,0.209-0.667-0.142-0.977-0.188
		c-0.332-0.05-0.501,0.23-0.849,0.243c-0.651-0.021-1-0.831-1.781-0.884c-0.167,0.976,0.813,1.768,0.182,3.007
		c-0.38,0.576-1.147,1.115-2.288,1.118c-0.101,0.128-0.233,0.296-0.333,0.425c-0.431,0-0.791,0-1.148,0
		c-0.112-0.081-0.168-0.246-0.346-0.216c-0.605,0.281-1.134,0.767-1.937,0.629c0.187,0.368,0.331,0.651,0.481,0.948
		c-0.124,0.369-0.218,0.734-0.562,0.979c-0.91,0.221-1.583-0.177-2.201-0.84c-0.667-0.714-1.369-1.391-1.827-2.271
		c-0.031-0.061-0.097-0.105-0.15-0.153c-1.188-1.085-1.958-2.493-2.937-3.738c-0.773-0.982-1.426-2.087-2.408-2.905
		c-0.517-0.431-0.773-1.08-1.289-1.524c-0.366-0.315-0.227-0.906-0.591-1.243c0.18-0.311,0.333-0.572,0.521-0.896
		c0.532,0.103,0.899-0.335,1.389-0.468c0.169-0.349,0.344-0.709,0.562-1.16c-0.133-0.066-0.296-0.147-0.458-0.229
		c-0.609-0.143-1.124,0.683-2.017,0.185c0.057,0.058-0.02-0.019-0.13-0.13c0-0.349,0-0.735,0-1.15
		c0.43-0.43,0.888-0.888,1.357-1.357c0.13,0,0.271,0,0.442,0c0.735-0.889,1.675-1.481,2.867-1.797
		c0.999-0.986,1.999-2.076,3.275-2.862c0.328-0.203,0.567-0.548,0.85-0.831c0.026-0.395,0.062-0.712,0.602-0.807
		c0.702-0.124,1.298-0.577,1.833-1.019c0.431-0.356,1.057-0.542,1.236-1.185c0.033-0.121,0.177-0.263,0.298-0.299
		c0.86-0.255,1.405-0.923,1.934-1.556c0.278-0.332,0.638-0.187,0.935-0.412c0.537-0.406,1.013-0.864,1.504-1.333
		c0.347,0,0.705,0,1.075,0c0.126,0.14,0.307,0.228,0.347,0.482c0.062,0.388-0.105,0.784-0.305,0.945
		c-0.925,0.745-1.674,1.699-2.706,2.311c-0.657,0.391-1.279,0.813-1.812,1.371c-0.184,0.192-0.146,0.382-0.16,0.613
		c0.252,0.229,0.518,0.47,0.822,0.747c0.217,0,0.504,0,0.819,0c0.283-0.415,0.84-0.629,0.99-1.223
		c0.002-0.002,0.024-0.044,0.054-0.051c0.892-0.205,1.329-0.991,1.971-1.529c0.301-0.063,0.596,0.015,0.717,0.305
		c0.43,1.025,1.126,1.982,0.853,3.203c0.773,0.898,1.055,1.932,0.902,2.924c0.208,0.624,0.628,0.946,0.736,1.489
		c0.043,0.221,0.14,0.463,0.123,0.693c-0.06,0.78,0.321,1.364,0.745,1.966c0.464,0.657,1.183,1.175,1.232,2.079
		c0.628,0.646,0.813,1.543,1.285,2.272c0.305,0.471,0.757,0.847,1.208,1.339c0.173-0.874,0.006-1.607-0.334-2.323
		c-0.057-0.119-0.096-0.25-0.145-0.372c-0.272-0.68-0.671-1.286-0.818-2.046c-0.141-0.727-0.55-1.42-0.932-2.092
		c-0.139-0.242-0.343-0.499-0.299-0.851c0.075-0.597-0.127-1.148-0.426-1.653c-0.602-1.016-0.762-2.204-1.292-3.245
		c0.087-0.49-0.296-0.828-0.467-1.21c-0.246-0.551-0.108-1.135-0.376-1.683c-0.54-1.104-0.788-2.333-1.321-3.447
		c-0.115-0.242-0.233-0.513-0.428-0.681c-0.596-0.516-0.715-1.169-0.64-1.886c-0.782-1.152-0.72-2.572-1.304-3.797
		c-0.554-1.159-1.143-2.309-1.582-3.76c-0.486,1.191-1.375,1.667-2.084,2.266c0,0.192,0,0.334,0,0.499
		c0.771,0.375,1.312-0.614,2.128-0.298c0.042,0.598,0.148,1.249-0.42,1.79c0.363,0.959,0.745,1.918,1.088,2.891
		c0.228,0.645,0.204,0.653,0.014,1.148c-0.962,0.763-1.989,1.169-3.128,1.018c-0.582,0.487-0.526,1.221-0.838,1.714
		c-1.211,0.751-0.997,0.27-2.567,2.775c-0.36,0.076-0.738,0.167-1.041-0.297c0.098-0.565-0.194-1.216,0.221-1.794
		c-0.352-0.693-0.267-1.388-0.089-2.154c-0.158-0.294-0.273-0.763-0.893-0.708c-0.163,0.014-0.357-0.324-0.542-0.504
		c0.015-1.121,0.993-1.347,1.684-1.835c0.396,0.11,0.578-0.199,0.797-0.42c0.738-0.745,1.546-1.403,2.419-1.983
		c0.272-0.181,0.282-0.529,0.489-0.751c-0.192-0.318-0.643-0.284-0.835-0.628c-0.054-0.476,0.134-0.958,0.529-1.132
		c0.398-0.175,0.488-0.491,0.521-0.758c0.067-0.547,0.411-0.862,0.765-1.224c0.484,0,0.984,0,1.519,0
		c0.101-0.341,0.459-0.59,0.293-1.048c-0.478-0.233-0.887,0.39-1.448,0.085c-0.155-0.155-0.384-0.384-0.668-0.668
		c0.075-0.616-0.207-1.144-0.708-1.574c-0.345-0.296-0.64-0.636-0.808-1.083c0.053-0.521,0.434-0.85,0.799-1.162
		c0.546-0.466,0.712-1.148,1.066-1.728c0.696-0.564,1.354-0.531,2,0.106c0.162,0.159,0.403,0.236,0.646,0.373
		c0.209-0.108,0.454-0.216,0.681-0.354c0.455-0.278,0.908-0.468,1.522,0.111c0.14,0.227,0.321,0.67,0.103,1.291
		c-0.028,0.024-0.165,0.14-0.309,0.262c0,0.329,0,0.643,0,0.986c0.378,0.644,0.378,0.644,0.361,1.294
		c-0.553,0.651-1.641,0.389-2.071,1.308c0.275,0.401,1.037,0.243,1.212,0.794c0.154,0.695,0.396,1.283,0.943,1.785
		c-0.337,0.936,0.328,1.762,0.417,2.688c0.031,0.322,0.364,0.609,0.49,0.979c0.097,0.283,0.052,0.553,0.139,0.805
		c0.087,0.252,0.395,0.351,0.465,0.677c0.038,0.172,0.138,0.362,0.183,0.567c0.208,0.965,0.607,1.849,1.282,2.729
		c-0.168,0.78,0.252,1.562,0.518,2.358c0.139,0.416,0.042,0.912,0.36,1.249c0.323,0.343,0.403,0.781,0.514,1.192
		c0.168,0.625,0.384,1.202,0.761,1.743c0.451,0.646,0.502,1.416,0.432,2.241c0.291,0.21,0.466,0.543,0.658,0.971
		c-0.146,0.589,0.176,1.165,0.424,1.773c0.467,1.139,0.893,2.295,1.288,3.461c0.067,0.194,0.147,0.371,0.229,0.555
		c0.468,1.066,0.972,2.115,1.359,3.218c0.175,0.498,0.573,0.918,1,1.347c-0.146-1.095-0.291-2.189-0.443-3.333
		c-0.266-0.2-0.423-0.548-0.599-0.951c0.11-0.3,0.247-0.675,0.408-1.117c-0.513-0.499,0.013-1.277-0.404-1.915
		c-0.359-0.548-0.55-1.208-0.876-1.959c0.089-0.812-0.111-1.685-0.805-2.421c-0.171-0.182-0.001-0.56-0.282-0.741
		c0.149-0.569-0.223-1.012-0.456-1.428c-0.573-1.024-0.884-2.163-1.477-3.174c-0.112-0.191-0.269-0.318-0.418-0.521
		c0-0.348,0-0.733,0-1.121c0.38-0.287,0.818-0.337,1.278-0.299c0.854,0.07,1.615-0.195,2.383-0.686
		c0.297,0.362,0.735,0.236,1.181,0.255c0.673-0.865,1.886-0.771,2.728-1.389c-0.169-0.366-0.236-0.711-0.56-0.963
		c-0.635-0.153-1.282,0.082-1.844,0.333c-0.882,0.396-1.759,0.583-2.691,0.49c-0.468,0.508-1.152,0.393-1.698,0.651
		c-0.201,0.096-0.449,0.093-0.681,0.172c-0.537,0.183-1.098,0.073-1.515-0.361c-0.212-0.188-0.12-0.42-0.109-0.619
		c0.012-0.214-0.229-0.265-0.227-0.463c0.102-0.238,0.322-0.455,0.211-0.772c0.379-0.202,0.727-0.139,1.048,0.114
		c0.457-0.126,0.854-0.435,1.339-0.431c0.987,0.007,1.821-0.444,2.806-0.86c0.832,0.166,1.676-0.285,2.561-0.529
		c0.088-0.024,0.145-0.142,0.271-0.128c0.893,0.091,1.662-0.275,2.364-0.668c1.091,0.346,0.729,0.316,2.497-0.628
		c0.809,0.034,1.651-0.009,2.462-0.412c0.416-0.207,0.923-0.36,1.41-0.225c0.394,0.109,0.62-0.292,0.995-0.236
		c0.353,0.051,0.718,0.01,1.07,0.01c0.392-0.204,0.778-0.405,1.244-0.648c0.407,0,0.91-0.02,1.41,0.006
		c0.512,0.025,0.999-0.04,1.315-0.46c0.173-0.229,0.522-0.071,0.576-0.362c0.566-0.159,1.142,0.107,1.668-0.249
		c0.325-0.219,0.586,0.427,0.926,0.188c0.674,0.364,0.678,1.164,1.243,1.611c0,0.427,0,0.884,0,1.323
		c0.853,0.697,1.169,1.568,1.359,2.615c0.167,0.922,0.301,1.865,0.112,2.715c-0.191,0.858-0.248,1.717-0.104,2.505
		c0.128,0.705,0.057,1.396,0.173,2.078c0.088,0.519-0.297,0.918-0.24,1.426c0.055,0.498,0.146,1.058-0.023,1.497
		c-0.193,0.503-0.115,0.879,0.004,1.354c0.082,0.327,0.032,0.721-0.105,1.121c-0.188,0.547-0.097,1.2-0.072,1.806
		c0.029,0.704-0.194,1.35-0.338,2.021c-0.129,0.598-0.344,1.187-0.32,1.813c-0.179,0.179-0.356,0.356-0.536,0.536
		c-0.286,0-0.574,0-0.863,0c-0.385-0.294-0.435-0.883-0.937-1.078c-0.241-0.072-0.375,0.172-0.541,0.251
		c-0.313,0.147-0.519,0.259-0.844,0.038c-0.273-0.185-0.62-0.048-0.871-0.063c-0.283,0.158-0.519,0.29-0.791,0.44
		c-0.397-0.347-0.902-0.216-1.438-0.237c-0.134-0.162-0.294-0.353-0.512-0.613c-0.005-0.137-0.016-0.378-0.025-0.577
		c-0.082-0.112-0.175-0.104-0.176-0.011c-0.005,0.387-0.316,0.633-0.553,0.72c-0.401,0.147-0.577,0.503-0.885,0.691
		c-0.229,0-0.442,0-0.647,0c-0.136-0.136-0.264-0.264-0.39-0.391c-0.268-0.093-0.58-0.013-1.247,0.316
		c-0.27,0.235-0.295,0.599-0.482,0.937c-0.554,0.074-0.946-0.24-1.303-0.613c-0.354,0.131-0.576,0.395-0.76,0.707
		c-0.189,0.321-0.571,0.364-0.855,0.571c-0.244-0.168-0.574-0.19-0.759-0.407c-0.457-0.137-0.906,0.115-1.357-0.222
		c-0.296-0.219-0.725,0.053-1.086,0.252c-0.17,0.404-0.393,0.879-0.767,1.131c-0.377,0.256-0.536,0.539-0.614,0.916
		c0.065,0.342,0.377,0.447,0.527,0.673c0.445,0.139,0.849-0.044,1.164-0.272c0.433-0.314,0.879-0.351,1.372-0.356
		c0.408-0.005,0.848,0.135,1.213-0.2c0.059-0.055,0.221-0.039,0.316-0.004c0.973,0.351,1.791-0.153,2.677-0.402
		c0.537-0.15,1.103-0.479,1.776-0.068c0.5,0.304,1.174-0.039,1.716-0.211c0.522-0.167,1.022-0.179,1.541-0.186
		c0.468-0.006,0.936,0.004,1.404-0.004c0.172-0.003,0.401,0.028,0.506-0.065c0.504-0.453,1.104-0.363,1.691-0.362
		c0.693,0.002,1.324-0.272,1.972-0.464c0.378,0.185,0.736,0.357,1.104,0.537c0.383,0.568,0.338,1.131-0.097,1.72
		c-0.638,0.298-1.265,0.67-1.978,0.896c-0.395,0.123-0.724,0.129-1.102,0.035c-0.56-0.138-1.102-0.44-1.69-0.335
		c-0.362,0.065-0.551-0.311-0.886-0.232c-0.398,0.094-0.815-0.136-1.228,0.184c-0.271,0.21-0.702,0.033-1.098,0.202
		c-0.434,0.186-0.961,0.353-1.512,0.28c-0.564-0.074-1.146-0.017-1.7-0.017c-0.796,0.72-1.768,0.302-2.637,0.47
		c-0.729,1.033-0.7,1.327,0.262,2.348c0.323-0.097,0.673,0.066,1.069-0.176c0.396-0.24,0.812,0.205,1.229,0.313
		c0.098,0.026,0.189,0.064,0.313,0.107c0.255,0.39,0.375,0.846,0.277,1.376c0.52,0.239,0.606,0.816,0.628,1.218
		c0.039,0.807,0.16,1.597,0.253,2.394c0.086,0.737-0.279,1.324-0.727,1.854c-0.276,0.327-0.603,0.611-0.779,0.789
		c-1.025,0.461-1.951,0.287-2.871,0.329c-0.37,0.151-0.479,0.738-0.889,0.667c-0.344-0.346-0.616-0.62-0.997-1.004
		c0-0.288,0-0.79,0-1.216c-0.293-0.568-0.554-1.074-0.852-1.654c0-0.342,0-0.771,0-1.211c0.306-0.354,0.623-0.715,1.063-0.879
		c0.02-0.161-0.007-0.257-0.107-0.323c-0.305-0.038-0.406,0.241-0.625,0.409c-0.354,0-0.74,0-1.12,0
		c-0.082-0.082-0.158-0.16-0.267-0.269c0-0.351,0-0.736,0-1.183c0.552-0.398,1.188-0.686,1.937-0.688c0.414,0,0.85,0.096,1.178-0.38
		c0.007-0.251,0.355-0.538,0.296-1.041c-0.49-0.419-0.89-1.059-1.681-1.378c-0.438-0.042-0.943-0.035-1.376,0.355
		c-0.435,0.393-0.985,0.265-1.495,0.289c-0.365-0.142-0.5-0.604-0.868-0.681c-0.159,0.085-0.234,0.198-0.179,0.284
		c0.438,0.678,0.59,1.434,0.644,2.22c0.007,0.101-0.015,0.196,0.065,0.298c0.566,0.719,0.824,1.631,1.451,2.34
		c0,0.479,0,0.981,0,1.403c0.294,0.571,0.555,1.078,0.857,1.667c-0.054,0.776,0.146,1.556,0.847,2.055
		c0.403,1.579,0.26,1.707-0.513,2.497c-0.348,0-0.705,0-1.145,0c-0.488-0.818-1.277-1.518-1.364-2.622
		c-0.017-0.214-0.189-0.412-0.224-0.665c-0.027-0.201-0.219-0.45-0.534-0.356c-0.36,0.298,0.163,0.399,0.134,0.637
		c-0.032,0.247-0.008,0.501-0.008,0.749c0.506,0.465,0.438,1.072,0.428,1.771c-0.962,0.767-2.071,1.454-3.366,1.551
		c-2.351,0.173-3.693-0.204-5.688-2.448c0-0.558,0-1.131,0-1.724c0.25-0.247,0.451-0.516,0.909-0.596
		c0.415-0.072,0.975-0.273,0.913-0.991c-0.034-0.455-0.708-0.957-0.014-1.546c0.492-0.059,0.983-0.058,1.381,0.28
		c0.328,0.279,0.689,0.03,0.989,0.158c0.389-0.39,0.745-0.745,1.104-1.104c0.303,0.099,0.526-0.098,0.754-0.211
		c0.25-0.031,0.266,0.427,0.544,0.185c0.157,0.4,0.425,0.709,0.251,1.306c-0.362,0.64-1.552,0.619-1.891,1.607
		c0.203,0.267,0.511,0.08,0.787,0.148c0.298-0.488,0.893-0.642,1.268-1.075c0.297,0.018,0.639-0.144,0.87,0.195
		c0.104-0.059,0.135-0.155,0.112-0.262c-0.141-0.697-0.285-1.394-0.43-2.09c-0.081-0.396-0.339-0.716-0.468-1.105
		c-0.21-0.631-0.242-1.319-0.595-1.913c-0.091-0.152-0.204-0.273-0.302-0.421c-0.052,0.027-0.111,0.043-0.149,0.08
		c-0.485,0.466-0.707,1.186-1.452,1.408c-0.627,0.187-1.074,0.778-1.644,0.977c-0.702,0.242-1.188,0.765-1.833,1.057
		c-0.299,0.136-0.722,0.045-0.901,0.438c-0.144,0.318-0.507,0.425-0.759,0.503c-0.391,0.119-0.548,0.431-0.814,0.646
		c-0.505,0.406-1.112,0.616-1.68,0.901c-0.8,0.401-1.602,0.781-1.996,1.673c-0.061,0.139-0.23,0.224-0.411,0.292
		c-0.404,0.152-0.774,0.396-1.209,0.631C25.813,58.607,25.452,58.607,25.115,58.607z M25.417,51.481
		c-0.019,0.103,0.029,0.168,0.127,0.19c0.017,0.004,0.067-0.047,0.063-0.063c-0.022-0.098-0.087-0.146-0.192-0.129
		c0.005-0.149-0.067-0.221-0.348-0.215c-0.278-0.275-0.621-0.617-0.953-0.946c0.182,0.484,0.49,0.86,1.084,0.946
		C25.195,51.413,25.267,51.486,25.417,51.481z M28.224,44.136c0,0.143-0.044,0.305,0.008,0.426c0.329,0.764,0.698,1.515,1.208,2.171
		c0.271,0.349,0.682,0.549,1.089,0.39c-0.344-1.31-1.616-1.879-2.313-2.927C28.307,43.5,27.948,43,27.601,42.57
		c-0.732-0.906-0.948-2.08-1.663-2.979c-0.133-0.169-0.044-0.343-0.093-0.502c-0.161-0.521-0.355-1.026-0.819-1.391
		c0.036,0.211-0.052,0.383,0.045,0.609c0.325,0.762,0.512,1.587,0.882,2.324c0.165,0.328-0.03,0.677,0.259,0.979
		c0.344,0.362,0.496,0.91,1.149,0.989C27.291,43.34,27.694,43.778,28.224,44.136z M51.97,22.201
		c-0.536-0.26-0.914-0.001-1.239,0.212c-0.403,0.265-0.806,0.388-1.265,0.336c-0.783-0.088-1.483,0.18-2.173,0.486
		c-0.469,0.207-0.93,0.45-1.459,0.375c-0.443-0.063-0.802,0.125-1.171,0.306c-0.001,0.75,0.045,0.861,0.633,1.484
		c0.454-0.228,0.907-0.567,1.41-0.677c0.548-0.12,1.144-0.027,1.653-0.027c0.914-0.526,1.82-0.837,2.835-0.88
		c0.561-0.024,1.147-0.114,1.635-0.454C52.661,22.803,52.241,22.484,51.97,22.201z M21.873,34.179
		c-0.746-0.004-1.035,0.686-1.581,0.96c-0.363,0.183-0.367,0.727-0.718,0.902c0.034,0.291-0.047,0.509,0.14,0.814
		c0.049,0.228,0.333,0.143,0.623,0.152c0.692-0.793,1.734-1.114,2.593-1.724c0.521-0.031,1.036-0.026,1.458,0.368
		c0.121,0.113,0.254,0.083,0.423-0.091c-0.392-0.325-0.185-0.849-0.447-1.288c-0.245-0.41-0.41-0.857-0.799-1.145
		c-0.226,0-0.439,0-0.664,0C22.551,33.487,22.199,33.846,21.873,34.179z M18.7,39.206c-0.242-0.995-0.555-1.58-1.368-1.781
		c-0.116,0.116-0.313,0.237-0.398,0.412c-0.234,0.481-0.634,0.753-1.042,1.07c-0.415,0.324-1.043,0.545-1.052,1.21
		c0.248,0.379,0.629,0.549,0.949,0.744c0.424-0.218,0.838-0.43,1.205-0.618c0.642,0.194,0.973,0.707,1.495,1.149
		C18.918,40.567,18.618,39.734,18.7,39.206z M55.345,21.484c-0.357,0.253-0.587,0.416-0.738,0.522
		c-0.124,0.398,0.088,0.553,0.352,0.797c0.593-0.144,1.259-0.3,1.939-0.325c0.025,0,0.052-0.069,0.076-0.069
		c0.695,0.021,1.226-0.515,1.927-0.555c0.293-0.017,0.74-0.166,0.873-0.657c-0.074-0.375-0.547-0.324-0.753-0.589
		c-0.411-0.029-0.793,0.07-1.196,0.157c-0.475,0.103-0.807,0.581-1.31,0.466C56,21.114,55.594,21.504,55.345,21.484z M54.734,37.667
		c0.19-0.711,0.675-1.345,0.431-2.143c-0.335-0.113-0.431,0.161-0.589,0.328c-0.007,0.412,0.085,0.842-0.403,1.285
		C54.701,37.12,54.454,37.521,54.734,37.667z M24.421,24.649c-0.168-0.34-0.294-0.592-0.406-0.817c-0.172,0-0.277,0-0.458,0
		c-0.079,0.286-0.572,0.317-0.503,0.817C23.456,24.649,23.86,24.649,24.421,24.649z M28.054,48.737
		c-0.209-0.331-0.364-0.707-0.937-0.716c0.073,0.519,0.398,0.695,0.673,0.906C27.9,48.85,27.954,48.811,28.054,48.737z M31.5,48.096
		c0.26,0.239,0.179,0.896,0.803,0.767C32.123,48.251,32.123,48.25,31.5,48.096z M22.579,48.48c0.179,0.262,0.385,0.437,0.67,0.717
		c0.024-0.525-0.276-0.703-0.319-0.936C22.696,48.215,22.645,48.296,22.579,48.48z M35.541,57.898
		c-0.441,0.141-0.713,0.271-0.542,0.752C35.352,58.544,35.61,58.431,35.541,57.898z M45.125,26.663
		c-0.13,0.364-0.071,0.643,0.324,0.818C45.582,27.117,45.522,26.838,45.125,26.663z M54.252,26.846c-0.17,0.226-0.17,0.442,0,0.668
		C54.421,27.288,54.421,27.072,54.252,26.846z"/>
	<path fill="currentColor" d="M30.268,15.812c-0.176-0.167-0.357-0.34-0.569-0.542
		c0.142-0.301,0.25-0.621,0.53-0.9c0.238-0.117,0.533-0.057,0.803-0.032c1.133,0.103,2.223-0.426,3.381-0.187
		c0.4,0.255,0.829,0.529,1.282,0.818c0.254,0,0.541,0,0.833,0c0.372-0.358,0.768-0.693,1.343-0.64
		c1.336,0.122,2.618-0.093,3.83-0.656c0.501-0.232,1.014-0.203,1.354-0.208c0.284,0.29,0.48,0.489,0.735,0.749
		c0.033,0.269-0.149,0.512-0.517,0.536c-0.474,0.031-0.609,0.281-0.576,0.7c1.408,1.124,2.703,2.337,3.303,4.091
		c-0.153,0.162-0.25,0.264-0.37,0.389c-0.709,0.008-1.433,0.054-1.963,0.661c-0.504,0-1.008,0-1.513,0
		c-0.116,0.165-0.382,0.243-0.319,0.513c0.063,0.271-0.153,0.375-0.306,0.548c-0.338,0-0.692,0-1.094,0
		c-0.479-0.192-0.83-0.817-1.545-0.596c-0.222,0.288-0.239,0.745-0.628,1.042c-0.679,0.038-1.426-0.105-2.165,0.173
		c-0.201,0.25-0.401,0.499-0.559,0.696c-0.691-0.019-1.154,0.465-1.832,0.426c-0.113-0.151-0.263-0.35-0.493-0.656
		c0-0.333,0-0.831,0-1.506c-0.055-0.034-0.236-0.101-0.354-0.227c-0.623-0.668-0.707-1.047-0.276-1.827
		c0.133-0.24,0.197-0.425,0.143-0.678c-0.228-0.143-0.482-0.05-0.724-0.066c-0.215-0.015-0.432-0.003-0.647-0.003
		c-0.178-0.178-0.356-0.356-0.537-0.537c0-0.213,0-0.428,0-0.586c0.357-0.805,1.386-0.512,1.777-1.241c0.607,0,1.208,0,1.733,0
		c0.168-0.145,0.275-0.236,0.385-0.332c-0.543-0.359-1.008,0.083-1.505,0.1c-0.484,0.017-0.948-0.033-1.43-0.185
		C31.297,15.499,30.804,16.007,30.268,15.812z M40.521,16.169c0.199,0.132,0.339,0.199,0.421-0.039
		C40.807,16.023,40.688,16.015,40.521,16.169z"/>
	<path fill="currentColor" d="M56.524,16.952c0.384-0.369,0.809-0.234,1.194-0.229
		c0.227,0.178,0.386,0.36,0.277,0.771c-0.136,0.097-0.364,0.261-0.724,0.517c-0.695,0.056-1.535-0.309-2.409-0.419
		c-0.58-0.073-1.125-0.328-1.739-0.253c-0.566,0.068-1.146,0.015-1.721,0.015c-0.139,0-0.278,0-0.391,0
		c-0.154-0.155-0.281-0.281-0.433-0.433c-0.223,0-0.473-0.017-0.719,0.003c-0.702,0.057-1.36-0.13-2.004-0.362
		c-0.317-0.114-0.629-0.079-0.938-0.064c-0.512,0.023-0.956-0.086-1.354-0.483c-0.104-0.233-0.076-0.501-0.008-0.838
		c0.542,0.109,1.114-0.196,1.619,0.227c0.042,0.036,0.141,0.013,0.211,0.004c1.166-0.151,2.29,0.269,3.43,0.238
		c0.144,0.144,0.27,0.27,0.41,0.412c0.451,0,0.917,0.02,1.38-0.004c1.116-0.058,2.17,0.337,3.265,0.438
		C56.145,16.515,56.221,16.821,56.524,16.952z"/>
	<path fill="currentColor" d="M15.591,33.845c-0.181-1.259-0.173-1.286,0.468-2.278
		c0.108-0.167,0.215-0.342,0.277-0.528c0.043-0.127,0.008-0.279,0.008-0.402c0.22-0.221,0.423-0.423,0.654-0.654
		c-0.061-0.576,0.105-1.085,0.476-1.596c0.327-0.451,0.626-0.87,1.166-1.07c0.084,0.084,0.186,0.186,0.319,0.319
		c-0.074,0.817-0.511,1.56-0.691,2.373c-0.625,0.191-0.877,0.696-1.115,1.332c-0.096,0.123-0.408,0.072-0.546,0.346
		C16.533,32.482,16.307,33.245,15.591,33.845z"/>
	<path fill="currentColor" d="M13.453,37.015c-0.131-0.112-0.262-0.224-0.322-0.275
		c-0.098-0.383,0.38-0.439,0.173-0.721c0.3-0.128,0.539-0.23,0.761-0.324c0.227,0.26,0.039,0.524,0.112,0.672
		C13.928,36.589,13.721,36.775,13.453,37.015z"/>
	
	
	
	
	
	
	
	
	
	
	
	
	
	
	
	
	
	
</g>
</svg>
