<?xml version="1.0" encoding="iso-8859-1"?>
<!-- Generator: Adobe Illustrator 16.0.0, SVG Export Plug-In . SVG Version: 6.00 Build 0)  -->
<!DOCTYPE svg PUBLIC "-//W3C//DTD SVG 1.1//EN" "http://www.w3.org/Graphics/SVG/1.1/DTD/svg11.dtd">
<svg version="1.1" id="Layer_1" xmlns="http://www.w3.org/2000/svg" xmlns:xlink="http://www.w3.org/1999/xlink" x="0px" y="0px"
	 width="72.18px" height="70.921px" viewBox="0 0 72.18 70.921" style="enable-background:new 0 0 72.18 70.921;"
	 xml:space="preserve">
<g>
	
	<path fill="currentColor" d="M50.078,17.803c0.315,0,0.598,0,0.925,0
		c0.146,0.062,0.404,0.374,0.766,0.974c0,0.233,0.019,0.519-0.005,0.801c-0.027,0.304,0.259,0.474,0.281,0.774
		c1.144,0,2.288,0,3.392,0c1.311,0.741,1.311,0.741,1.755,1.898c-0.217,0.385-0.22,1.011-0.968,0.934
		c-0.391-0.226-0.424-0.671-0.64-1.025c-0.208-0.047-0.411-0.162-0.565-0.323c-0.489,0.354-0.946,0.726-1.032,1.221
		c-0.101,0.582-0.546,0.947-0.682,1.449c-0.139,0.506-0.45,0.896-0.628,1.364c-0.235,1.081,0.637,1.795,0.894,2.756
		c0.601-0.174,0.751-0.631,0.774-1.11c0.014-0.287,0.11-0.47,0.362-0.672c0.539,0.152,1.069,0.526,1.739,0.438
		c0.201,0.548,0.021,0.997-0.371,1.438c0.183,0.712-0.324,1.393-0.188,2.146c0.093,0.093,0.195,0.195,0.285,0.286
		c1.22-0.591,1.858-1.699,2.521-2.818c-0.043-0.472-0.339-0.859-0.568-1.259c-0.217-0.375-0.067-0.591,0.211-0.844
		c0.398,0,0.825,0,1.324,0c0.182,0.205,0.442,0.441,0.774,0.533c0.366,0.101,0.573,0.382,0.838,0.629
		c0,0.203-0.025,0.421,0.005,0.631c0.133,0.891-0.427,1.547-0.759,2.279c-0.041,0.092-0.137,0.175-0.226,0.228
		c-0.892,0.527-1.518,1.311-2.14,2.115c-0.213,0.276-0.339,0.592-0.556,0.861c0.049,0.261,0.26,0.45,0.237,0.771
		c-0.054,0.788-0.003,1.583-0.022,2.374c-0.013,0.507,0.043,0.971,0.441,1.331c0.266,0.239,0.35,0.571,0.463,0.9
		c0.223,0.142,0.479,0.036,0.742,0.07c0.301-0.594,0.533-1.191,0.094-1.832c-0.018-1.143-0.147-2.312,0.679-3.274
		c0.125-0.146,0.165-0.283,0.187-0.467c0.044-0.388,0.3-0.532,0.754-0.451c0.122,0.11,0.302,0.271,0.504,0.455
		c1.278-0.666,2.169,0,3.036,0.907c-0.083,0.322,0.219,0.585,0.248,0.879c-0.157,0.563-0.367,1.018-0.953,1.167
		c-0.313,0-0.627,0-0.83,0c-0.523-0.146-0.266-0.669-0.607-0.933c-0.671,1.259-1.09,2.489-0.82,3.779
		c-0.33,0.509-0.631,0.921-0.876,1.365c-0.24,0.438-0.424,0.906-0.657,1.415c0.212,0.714,0.379,0.976-0.062,2.75
		c-0.67,0.278-0.67,0.278-1.111,0.269c-0.729-0.156-1.005-0.532-1.318-0.832c-0.402-0.065-0.771-0.006-1.053,0.236
		c-0.422-0.14-0.742-0.306-1.023-0.575c-0.402-0.386-0.781-0.784-1.259-1.106c-0.394-0.265-0.593-0.814-0.896-1.225
		c-0.146-0.197-0.3-0.465-0.505-0.533c-1.034-0.343-1.635-1.156-2.156-2.005c-0.196-0.317-0.475-0.436-0.705-0.652
		c-0.771-0.727-1.413-1.597-2.346-2.15c-0.141-0.084-0.259-0.247-0.327-0.4c-0.208-0.478-0.593-0.871-0.992-1.071
		c-0.545-0.273-0.893-0.713-1.243-1.126c-0.308-0.362-0.536-0.75-0.995-0.976c-0.296-0.145-0.616-0.4-0.794-0.625
		c-0.209-0.263-0.529-0.496-0.633-0.801c-0.233-0.683-0.804-0.751-1.387-0.905c-0.443-0.67-0.813-1.448-1.505-1.936
		c-0.343-0.241-0.674-0.481-0.972-0.776c-0.584-0.578-1.003-1.307-1.732-1.758c-0.438-0.27-0.444-0.814-0.551-1.274
		c-0.041-0.175,0.141-0.227,0.21-0.342c-0.1-0.101-0.202-0.202-0.305-0.306c-1.028,0.765-2.222,0.643-3.379,0.624
		c-0.367,0.222-0.777,0.351-1.041,0.797c0,0.275,0,0.629,0,0.946c-0.415,0.679-0.744,1.363-1.307,1.813
		c-0.04,0.23,0.064,0.425-0.12,0.559c-0.052,0.051-0.096,0.135-0.154,0.147c-0.825,0.17-1.247,0.83-1.633,1.455
		c-0.321,0.521-0.67,0.935-1.215,1.221c-0.228,0.12-0.448,0.331-0.566,0.61c-0.229,0.544-0.705,0.905-1.138,1.246
		c-1.543,1.217-2.335,2.034-3.165,3.541c-0.091,0.165-0.195,0.333-0.327,0.394c-0.944,0.434-1.425,1.318-2.024,2.074
		c-0.163,0.206-0.172,0.498-0.522,0.56c-0.142,0.024-0.335,0.202-0.364,0.341c-0.126,0.594-0.544,0.967-0.959,1.328
		c-0.378,0.331-0.623,0.766-1.032,1.086c-0.647,0.505-1.177,1.16-1.779,1.728c-0.147,0.138-0.073,0.341-0.202,0.44
		c-0.334,0-0.649,0-0.908,0c-0.543-0.299-0.217-0.86-0.505-1.255c-0.272-0.372,0.088-0.864,0.197-1.289
		c0.234-0.911,0.259-0.905-0.009-1.609c-0.794-0.575-1.66-0.949-2.537-1.418c-1.63,0.084-2.642-0.746-3.06-2.397
		c0.262-0.609,0.388-1.374,1.2-1.699c0.132,0.16,0.289,0.352,0.489,0.596c-0.157,0.447,0.414,0.88,0.214,1.418
		c0.196,0.188,0.379,0.36,0.571,0.545c0.286-0.009,0.559,0.014,0.875-0.179c0.371-0.225,0.799-0.371,1.337-0.066
		c0.469,0.266,1.104,0.411,1.716,0.202c0.067-0.066,0.143-0.143,0.23-0.229c-0.239-0.243-0.065-0.611-0.194-0.839
		c-0.287-0.503-0.114-1.178-0.627-1.579c0.122-0.444-0.47-0.823-0.034-1.359c0.218-0.27-0.226-0.733-0.31-1.129
		c-0.018-0.087-0.1-0.175-0.066-0.434c0.449-0.944,0.868-2.052,0.854-3.229c-0.285-0.269-0.542-0.512-0.899-0.849
		c-0.253,0-0.68,0-0.975,0c-1.089-0.309-1.306-1.158-1.578-1.99c0.154-0.252,0.223-0.604,0.518-0.832c0.204,0,0.418,0,0.646,0
		c0.398,0.267,0.428,0.872,0.98,1.096c0.374-0.202,0.905-0.116,1.258-0.527c0.066-0.231,0.129-0.539-0.013-0.7
		c-0.203-0.23-0.18-0.46-0.16-0.695c0.054-0.643-0.043-1.252-0.446-1.759c-0.448-0.564-0.482-1.278-0.591-1.905
		c-0.116-0.67-0.446-1.345-0.202-2.198c0.022-0.021,0.146-0.141,0.248-0.239c0.733,0.126,1.252,0.502,1.682,1.027
		c0.244,0.299,0.541,0.538,0.963,0.656c0.032,0.65,0.413,1.134,0.705,1.748c-0.059,0.279,0.179,0.693-0.197,1.014
		c-0.054,0.045-0.051,0.234-0.002,0.311c0.375,0.586,0.132,1.238,0.222,1.853c0.753,0.696,0.916,1.649,1.05,2.584
		c0.091,0.634,0.018,1.292,0.017,1.94c-0.339,0.347-0.741,0.646-0.831,1.307c0.065,0.167,0.326,0.343,0.565,0.547
		c0.341-0.168,0.669-0.331,0.934-0.461c0.682,0.092,1.074,0.485,1.254,0.997c0.149,0.422,0.42,0.597,0.873,0.862
		c-0.111-0.955,0.275-1.726,0.249-2.576c-0.021-0.647-0.233-1.131-0.682-1.563c-0.227-0.218-0.558-0.388-0.62-0.71
		c-0.06-0.311-0.484-0.371-0.437-0.68c0.076-0.507-0.345-0.909-0.237-1.426c0.064-0.311,0.012-0.646,0.012-1.084
		c0.15-0.08,0.375-0.199,0.601-0.317c-0.041-0.052-0.083-0.104-0.124-0.156c0.313,0,0.626,0,0.962,0
		c0.445,0.343,0.396,0.96,0.697,1.419c0.288,0.437,0.636,0.853,0.759,1.367c0.129-0.019,0.198-0.028,0.288-0.041
		c0.225-1.188-0.016-2.341-0.395-3.45c-0.222-0.649-0.675-1.196-1.354-1.49c-0.214-0.093-0.434-0.207-0.602-0.364
		c-0.406-0.376-0.831-0.743-0.836-1.379c-0.006-0.819,0.069-1.597,0.773-2.141c0.485,0,0.954,0,1.532,0
		c0.092,0.142,0.229,0.351,0.46,0.705c-0.146,0.509,0.327,1.05,0.722,1.509c0.525,0.609,0.83,1.322,1.264,2.059
		c0.084,0.459-0.059,1.004,0.181,1.566c0.152,0.356,0.18,0.901-0.103,1.328c-0.125,0.188-0.128,0.393,0.009,0.583
		c0.238,0.328,0.342,0.722,0.594,1.056c0.32,0.424,0.651,0.86,0.837,1.375c0.128,0.354,0.398,0.466,0.778,0.396
		c0.17-0.286,0.045-0.614,0.092-0.944c-0.43-0.35-0.548-0.965-1.087-1.273c0-0.572,0.127-1.18-0.027-1.705
		c-0.299-1.019-0.125-2.036-0.187-3.05c-0.006-0.101,0.016-0.204,0.022-0.271c0.212-0.302,0.557-0.329,0.825-0.555
		c0.303,0.227,0.652,0.345,1.046,0.193c0.091-0.241,0.05-0.485,0.027-0.745c-0.341-0.221-0.524-0.621-0.974-0.768
		c-0.326-0.107-0.442-0.539-0.496-0.85c-0.082-0.483-0.331-0.82-0.663-1.143c0-0.424,0-0.855,0-1.28
		c-0.431-0.376-0.57-0.979-1.074-1.277c0-0.23,0-0.443,0-0.716c0.152-0.127,0.344-0.288,0.597-0.499c0.114,0,0.326,0,0.58,0
		c0.254,0.392,0.877,0.422,1.086,0.88c0.217,0.472,0.603,0.737,0.979,1.206c0.796-1.062,0.968-2.319,1.706-3.262
		c0-0.509,0-1.011,0-1.537c0.255-0.234,0.52-0.476,0.857-0.785c0.593,0.107,1.077,0.533,1.532,1.007c0,0.437,0,0.867,0,1.293
		c0.107,0.106,0.208,0.208,0.312,0.312c0.484-0.339,0.322-0.935,0.531-1.393c0.187-0.167,0.373-0.333,0.597-0.534
		c0.153,0,0.366,0,0.605,0c0.308,0.602,0.626,1.222,0.975,1.902c0,0.14,0,0.356,0,0.572c-0.255,0.254-0.509,0.509-0.764,0.763
		c-0.248,0.618-0.27,1.351-0.773,1.833c-0.506,0.483-0.875,1.123-1.569,1.411c-0.172,0.072-0.311,0.235-0.367,0.478
		c-0.057,0.251-0.25,0.472-0.413,0.755c-0.028,0.463,0.064,0.926,0.35,1.412c0.376,0.643,0.649,1.367,0.455,2.27
		c-0.102,0.08-0.298,0.233-0.618,0.484c-0.712,0.063-1.367-0.467-2.026-0.905c-0.341-0.227-0.646-0.494-1.096-0.633
		c-0.203,0.361-0.021,0.76-0.103,1.102c0.3,0.595,0.733,1.12,0.265,1.828c-0.132,0.199-0.021,0.559-0.021,0.89
		c0.413,0.162,0.359,0.783,0.888,0.988c0.466-0.285,0.544-1.045,1.298-1.108c0.68,0.597,1.448-0.075,2.287-0.004
		c-0.035-0.693,0.527-1.119,0.777-1.701c0.039-0.092,0.136-0.202,0.226-0.224c1.009-0.245,1.867-0.998,3.012-0.885
		c0.246-0.253,0.639-0.427,0.568-0.908c-0.143-0.432-0.646-0.333-0.854-0.709c-0.66,0.737-1.517,0.876-2.239,1.205
		c-1.201-0.52-1.226-0.562-1.226-2.078c-0.317-0.194-0.447-0.591-0.65-0.947c0.193-0.274,0.202-0.659,0.574-0.875
		c0.228,0,0.513,0,0.784,0c0.569,0.447,1.137,0.892,1.734,1.361c0.349-0.454-0.051-0.79-0.143-1.07
		c-0.142-0.429-0.151-0.774-0.022-1.185c0.211-0.673,0.375-1.359,0.566-2.072c0.192-0.172,0.455-0.025,0.712-0.076
		c0.362,0.383,0.731,0.773,1.187,1.256c-0.112,1.406,0.802,2.771,0.657,4.251c0.777,0.839,1.656,0.256,2.557,0.338
		c0.091,0.107,0.229,0.271,0.37,0.432c0.456,0.519,0.767,1.061,0.381,1.769c-0.159,0.294-0.05,0.629-0.062,0.945
		c-0.016,0.429-0.005,0.859-0.005,1.3c0.243,0.12,0.283-0.129,0.393-0.213c0.171-0.13,0.31-0.299,0.464-0.452
		c0.126-0.127,0.318-0.234,0.367-0.386c0.102-0.317,0.346-0.573,0.304-0.963c-0.059-0.534-0.015-1.078-0.015-1.618
		c-0.414-0.742-0.813-1.483-1.387-2.133c-0.345-0.39-0.527-0.925-0.768-1.402c-0.042-0.086-0.051-0.249,0.001-0.315
		c0.346-0.436,0.147-0.949,0.229-1.412c0.104-0.107,0.204-0.21,0.304-0.313c0.448,0.436,0.839,0.946,1.552,1.124
		c0.099,0.215,0.222,0.486,0.348,0.763c0.292,0.026,0.489,0.397,1.002,0.177c0.831-1.162,2.389-1.605,3.643-2.528
		c0.126-0.383,0.039-0.733-0.208-1.125c0.473-0.42,0.827-1.017,1.647-1.017c0.204,0.262,0.422,0.545,0.708,0.913
		c-0.031,0.153,0.216,0.396,0.296,0.723c-0.163,0.661-0.825,1.178-0.658,1.964c-1.227,0.842-2.434,1.671-3.646,2.503
		c-0.16,1.265,0.14,2.552-0.21,3.927c0.094,0.236,0.309,0.597,0.366,0.981c0.048,0.319,0.07,0.651-0.165,1.006
		c-0.324,0.488-0.467,1.097-0.695,1.675c0.092,0.101,0.186,0.204,0.292,0.323c0.635-0.288,0.772-1.027,1.35-1.443
		c0.251,0,0.565,0,0.867,0c0.325,0.227,0.575,0.54,0.681,0.898c0.096,0.322,0.151,0.676,0.338,0.938
		c0.247,0.347,0.597,0.621,0.902,0.926c0.471-0.512,0.287-1.274,0.744-1.826c0.397-0.479,0.632-1.095,0.91-1.601
		c-0.063-0.736-0.577-1.086-0.977-1.515c-0.305,0.019-0.584-0.049-0.894,0.186c-0.458,0.347-1.016,0.355-1.605-0.119
		c-0.12-0.184,0.1-0.518-0.031-0.813c0.911-0.838,1.755-1.684,1.535-3.023C49.384,19.178,49.966,18.625,50.078,17.803z
		 M55.621,38.834c0.074,0.257-0.063,0.449,0.164,0.533c0.145-0.149,0.127-0.287-0.209-0.363c0.31-0.535-0.159-0.899-0.14-1.354
		c0.02-0.498,0.004-0.997,0.004-1.496c0-0.106,0.04-0.237-0.007-0.317c-0.218-0.374-0.076-0.931-0.651-1.235
		c-0.306,0.979-0.458,1.963-1.066,2.759c0.188,0.121,0.245,0.24,0.209,0.395C54.517,38.09,55.198,38.298,55.621,38.834z
		 M49.39,33.227c0.404-1.029,0.125-1.949,0.224-2.806c-0.137-0.131-0.235-0.225-0.335-0.319c-0.162,0.15-0.076,0.433-0.349,0.542
		c0.27,0.682-0.324,1.315-0.171,1.953C48.968,32.805,49.121,32.957,49.39,33.227z M18.654,34.641c0.26-0.817-0.453-1.292-0.42-1.951
		c-0.191-0.004-0.298-0.011-0.395,0.14C18.191,33.366,17.962,34.168,18.654,34.641z M51.798,21.223
		c-0.035-0.188-0.053-0.284-0.071-0.384c-0.209,0.06-0.302,0.183-0.422,0.384C51.505,21.223,51.6,21.223,51.798,21.223z"/>
	<path fill="currentColor" d="M36.763,47.172c0.438-0.106,0.979,0.225,1.403-0.358
		c-0.129-0.692,0.193-1.463-0.2-2.219c-0.134-0.255-0.072-0.646-0.013-0.959c0.274-1.435,0.28-1.542-0.001-2.847
		c-0.045-0.208-0.007-0.432-0.007-0.646c0-1.367-0.022-2.735,0.008-4.102c0.017-0.739-0.136-1.427-0.38-2.113
		c-0.066-0.191-0.134-0.47-0.046-0.613c0.372-0.602,0.163-1.245,0.187-1.865c0.018-0.458,0.038-0.893,0.282-1.294
		c0.298-0.04,0.514-0.353,0.854-0.275c1.124,0.971,2.208,1.989,3.312,2.98c1.085,0.974,2.116,1.998,3.176,2.996
		c0.391,0.367,0.655,0.836,1.115,1.154c0.454,0.313,0.824,0.739,1.279,1.076c0.435,0.321,0.704,0.857,1.091,1.256
		c0.951,0.982,1.911,1.958,2.901,2.899c0.555,0.524,0.949,1.18,1.295,1.959c-0.11,0.267-0.191,0.554-0.484,0.778
		c-0.338,0-0.785,0.12-1.093-0.035c-0.284-0.143-0.539-0.1-0.8-0.166c-0.412-0.107-0.701,0.247-1.099,0.238
		c-0.367-0.008-0.791-0.185-1.105,0.182c-0.627-0.032-1.245,0.016-1.886-0.087c-1.418-0.23-2.858-0.237-4.262,0.194
		c-0.09,0.029-0.153,0.146-0.23,0.223c-0.012,0.903-0.012,0.903,0.301,1.645c0.392-0.089,0.831,0.148,1.208-0.142
		c0.139-0.106,0.158,0.02,0.235,0.044c0.371,0.115,0.729,0.184,1.098-0.056c0.282-0.184,0.669-0.155,0.931-0.055
		c1.006,0.387,2.032,0.067,2.992,0.224c0.176-0.176,0.303-0.304,0.433-0.434c0.74-0.184,1.422,0.357,2.162,0.188
		c0.201,0.276,0.498,0.215,0.774,0.216c0.791,0.003,1.593,0.071,2.372-0.026c0.437-0.056,0.84-0.389,1.283-0.608
		c0.756,0.248,1.526,0.73,2.397,0.21c0.078-0.047,0.268-0.052,0.311,0.001c0.388,0.475,0.754,0.029,1.057-0.023
		c0.633,0.149,1.065,0.434,1.232,1.149c0,0.158-0.379,0.33-0.217,0.655c-0.316,0.425-0.7,0.77-1.263,0.998
		c0.08,0.423-0.286,0.733-0.247,1.26c-1.088,0.701-1.865,1.875-3.245,2.434c-0.399,0-0.905-0.029-1.406,0.01
		c-0.399,0.03-0.744-0.096-1.1-0.223c-0.063-0.022-0.164-0.033-0.211,0.001c-0.558,0.399-1.247,0.04-1.813,0.321
		c-0.44,0.219-0.946,0.007-1.392,0.303c-0.247,0.164-0.517-0.357-0.868-0.196c-0.401-0.346-0.826-0.312-1.247-0.058
		c-0.141,0.086-0.276,0.063-0.409,0.053c-0.599-0.047-1.167,0.094-1.749,0.202c-0.336,0.063-0.608,0.359-0.987,0.237
		c-0.364-0.116-0.659,0.182-0.99,0.199c-0.384,0.021-0.575,0.354-0.899,0.446c-0.576,0-1.151,0-1.725,0
		c-0.112,0.081-0.168,0.245-0.374,0.211c-0.605-0.37-1.246-0.687-1.982-0.237c-0.054,0.032-0.137,0.032-0.204,0.024
		c-1.027-0.124-2.01,0.347-3.042,0.229c-0.296-0.035-0.61-0.088-0.901,0.183c-0.111,0.104-0.459,0.067-0.707-0.048
		c-0.563-0.26-1.133-0.216-1.786,0.06c-0.245-0.139-0.577-0.296-0.982-0.171c-0.714,0.221-0.716,0.192-1.677-0.015
		c-0.275-0.059-0.58-0.063-0.856-0.011c-0.871,0.164-0.868,0.179-1.766-0.008c-0.034-0.008-0.072,0.003-0.108-0.001
		c-0.388-0.039-0.669,0.327-1.102,0.238c-0.322-0.066-0.687-0.088-1.037,0.073c-0.661,0.307-1.267,0.107-1.878-0.311
		c-0.313,0.072-0.666-0.06-1.062,0.181c-0.383,0.233-0.896-0.035-1.215-0.358c-0.562-0.571-1.243-0.826-2.007-0.894
		c-0.296-0.026-0.468-0.251-0.732-0.329c-0.477-0.139-0.856-0.496-1.387-0.58c-0.236-0.037-0.547-0.227-0.774-0.467
		c-0.473-0.501-0.92-1.014-1.634-1.26c-0.485-0.168-0.777-0.765-0.937-1.205c-0.302-0.833-0.931-1.303-1.597-1.671
		c-0.489-0.271-0.629-0.652-0.869-1.055c0.158-0.379,0.293-0.722,0.479-0.912c0.884-0.313,1.605,0.187,2.376,0.126
		c0.036-0.004,0.086-0.017,0.106,0.001c0.749,0.689,1.677,0.446,2.521,0.403c0.895-0.046,1.726,0.297,2.611,0.252
		c0.861-0.042,1.728,0.005,2.59-0.017c0.301-0.007,0.586-0.015,0.908-0.144c0.631-0.254,1.256,0.097,1.843,0.369
		c0.555-0.3,1.108-0.369,1.69-0.006c0.744-0.098,1.462-0.762,2.299-0.228c0.883-0.105,1.743,0.415,2.595,0.2
		c0.591-0.149,1.164-0.157,1.608-0.182c0.515-0.204,0.862-0.429,1.097-0.769c0-0.228,0-0.44,0-0.656
		c-0.455-0.413-0.883-0.641-1.55-0.334c-0.528,0.242-1.163,0.524-1.763,0.055c-1.105-0.031-2.211-0.076-3.315,0.028
		c-0.084,0.008-0.159,0.118-0.241,0.184c-0.641-0.481-1.147-0.012-1.72,0.181c-1.26-0.467-2.598-0.683-3.899-0.175
		c-0.685,0.268-1.091,0.063-1.537-0.346c-0.08-0.072-0.16-0.144-0.222-0.2c0-0.317,0-0.604,0-0.888
		c0.848-1.344,2.134-2.648,3.334-3.583c0.459-0.358,0.953-0.744,1.204-1.325c0.054-0.122,0.172-0.216,0.26-0.324
		c1.19-1.473,2.564-2.769,3.894-4.109c0.152-0.153,0.378-0.278,0.445-0.462c0.328-0.893,1.009-1.445,1.753-1.957
		c0.564-0.387,0.819-1.044,1.291-1.52c0.467-0.47,1.036-0.852,1.319-1.5c0.094-0.215,0.313-0.428,0.527-0.527
		c0.568-0.263,0.909-0.768,1.399-1.187c0.268,0,0.581,0,0.959,0c0.624,0.932,0.747,2.005,0.645,3.126
		c-0.009,0.099-0.179,0.109-0.091,0.314c0.193,0.448,0.273,0.934-0.075,1.382c-0.053,0.069-0.049,0.219-0.015,0.312
		c0.29,0.781,0.056,1.63,0.256,2.385c0.159,0.603,0.146,1.173,0.159,1.758c0.009,0.404,0.045,0.799-0.168,1.225
		c-0.17,0.339-0.149,0.903,0.024,1.249c0.181,0.359,0.113,0.681,0.153,1.019c0.056,0.477-0.115,0.976,0.207,1.431
		c0.085,0.119,0.044,0.357,0.007,0.529c-0.288,1.38-0.287,2.416-0.002,3.711c0.045,0.206,0.028,0.432,0.002,0.646
		C36.395,46.884,36.604,46.983,36.763,47.172z"/>
	<path fill="currentColor" d="M52.838,56.556c0.061,0.259-0.136,0.338-0.243,0.47
		c-0.603,0.313-1.129-0.261-1.622-0.152c-0.347,0.347-0.646,0.646-0.81,0.81c-0.718,0.168-1.022-0.265-1.465-0.381
		c-0.444,0.322-0.938,0.521-1.523,0.448c-0.233-0.027-0.452,0.075-0.685,0.154c-0.649,0.223-1.254-0.129-1.864-0.384
		c-0.524,0.222-0.999,0.728-1.672,0.245c-0.182-0.13-0.63-0.103-0.814,0.037c-0.278,0.21-0.54,0.15-0.807,0.15
		c-0.892,0.003-1.785-0.018-2.677-0.045c-0.081-0.003-0.158-0.119-0.252-0.195c-0.247,0.135-0.48,0.262-0.714,0.393
		c-0.197,0.11-0.382,0.104-0.586-0.007c-0.428-0.232-0.853-0.229-1.275,0.094c-0.378-0.261-0.961-0.144-1.188-0.63
		c-0.666-0.197-1.113,0.344-1.731,0.468c-0.175-0.241-0.341-0.469-0.58-0.797c0,0.033,0-0.11,0-0.253
		c0.361-0.178,0.719-0.354,1.077-0.533c0.372-0.185,0.71-0.386,1.148-0.066c0.247,0.179,0.623,0.106,0.926,0.036
		c0.972-0.228,0.959-0.184,1.896-0.017c0.729,0.132,1.505,0.155,2.221-0.034c0.271-0.071,0.533-0.126,0.801-0.129
		c1.438-0.012,2.875,0.011,4.312-0.014c0.549-0.01,1.086,0.042,1.652-0.163c0.385-0.137,0.981-0.265,1.412,0.162
		c0.056,0.054,0.236,0.051,0.311,0.002c0.553-0.363,1.165-0.158,1.749-0.205c0.177-0.014,0.319-0.039,0.483-0.146
		c0.154-0.101,0.478-0.15,0.601-0.058C51.499,56.255,52.281,56.152,52.838,56.556z"/>
	<path fill="currentColor" d="M23.365,57.743c-0.452-0.511-1.389-0.376-1.688-1.304
		c0.479,0.079,0.9-0.182,1.251,0.22c0.34-0.41,0.804-0.125,1.202-0.212c0.486,0.521,0.998,0.075,1.413-0.066
		c0.499-0.17,0.951-0.25,1.388-0.016c0.362,0.194,0.577-0.025,0.848-0.136c0.544,0.176,0.999,0.769,1.689,0.242
		c0.205-0.155,0.628-0.024,0.997-0.024c0.324,0.35,0.931,0.319,1.212,0.783c0.051,0.238-0.149,0.314-0.263,0.459
		c-0.69,0.208-1.469-0.188-2.127,0.276c-0.36-0.21-0.758-0.336-0.947-0.646c-0.306-0.022-0.467,0.063-0.659,0.184
		c-0.312,0.196-0.683,0.266-1.083,0.252C25.521,57.721,24.443,57.743,23.365,57.743z"/>
	<path fill="currentColor" d="M42.47,61.07c0,0.143,0,0.285,0,0.477c-0.163,0.128-0.359,0.284-0.593,0.467
		c-0.514,0-1.153,0.129-1.706-0.033c-0.682-0.2-1.336-0.235-1.885,0.111c-0.468,0.297-0.893,0.09-1.333,0.209
		c-0.166-0.329-0.054-0.655-0.094-0.96c0.236-0.37,0.601-0.571,1.108-0.806c0.533-0.148,1.131,0.329,1.813,0.249
		c0.639-0.075,1.294-0.002,1.94-0.022C42.031,60.753,42.173,61.069,42.47,61.07z"/>
	<path fill="currentColor" d="M43.785,17.12c-0.225,0-0.364,0-0.589,0c-0.104-0.145-0.247-0.35-0.475-0.67
		c0.097-0.858-0.532-1.605-1.079-2.543c0-0.165,0-0.479,0-0.787c0.173-0.286,0.436-0.362,0.738-0.301
		c0.375,0.076,0.782,0.213,0.935,0.551c0.091,0.201,0.188,0.376,0.34,0.5c0.181,0.146,0.034,0.451,0.322,0.507
		c0.022,0.644,0.129,1.279-0.406,1.776C43.893,16.385,43.747,16.727,43.785,17.12z"/>
	<path fill="currentColor" d="M46.044,60.769c-0.896,0.58-1.729,0.743-2.623,0.617
		c0.221-0.294,0.555-0.556,0.738-0.688c0.377-0.269,0.68-0.184,1.045,0.052C45.375,60.859,45.675,60.769,46.044,60.769z"/>
	
	
	
	
	
</g>
</svg>
