<?xml version="1.0" encoding="iso-8859-1"?>
<!-- Generator: Adobe Illustrator 16.0.0, SVG Export Plug-In . SVG Version: 6.00 Build 0)  -->
<!DOCTYPE svg PUBLIC "-//W3C//DTD SVG 1.1//EN" "http://www.w3.org/Graphics/SVG/1.1/DTD/svg11.dtd">
<svg version="1.1" id="Layer_1" xmlns="http://www.w3.org/2000/svg" xmlns:xlink="http://www.w3.org/1999/xlink" x="0px" y="0px"
	 width="72.18px" height="70.921px" viewBox="0 0 72.18 70.921" style="enable-background:new 0 0 72.18 70.921;"
	 xml:space="preserve">
<g>
	
	<path fill="currentColor" d="M42.067,46.614c-0.21,0.619-0.452,0.949-0.828,1.2
		c-0.89-0.046-1.498-0.572-2.03-1.281c0.977-1.455,0.869-2.971,0.203-4.764c0.024,0.137,0.075,0.046,0.164-0.02
		c0.104-0.075,0.098-0.18,0.096-0.285c0-0.18,0.074-0.414-0.013-0.53c-0.351-0.469-0.081-1.031-0.276-1.51
		c-0.075-0.185-0.164-0.392-0.31-0.513c-0.204-0.169-0.2-0.545-0.378-0.577c-0.226-0.041-0.338-0.251-0.504-0.263
		c-0.379,0.178-0.75,0.279-1.034,0.497c-0.753,0.577-1.143,1.376-1.151,2.321C35.987,42.871,36,44.851,36,46.718
		c-0.218,0.6-0.571,0.935-1.142,1.099c-0.521-0.42-1.242-0.539-1.829-0.895c-0.037-0.827-0.006-0.911,0.606-1.703
		c-0.209-0.248-0.375-0.646-0.205-0.848c0.427-0.504,0.054-0.932-0.043-1.348c-0.205-0.873-0.249-0.862-0.006-1.78
		c0.026-0.101,0.067-0.254,0.019-0.307c-0.426-0.456-0.097-0.896,0.01-1.23c-0.324-0.327-0.596-0.602-1.013-1.021
		c-0.418-0.091-0.518,0.609-0.911,0.751c-0.045,0.837-0.287,1.554-0.524,2.251c-0.145,0.428-0.225,0.795-0.006,1.173
		c0.124,0.214,0.139,0.482,0.058,0.608c-0.428,0.673-0.041,1.224,0.182,1.815c0.093,0.247,0.152,0.509,0.244,0.762
		c0.186,0.516-0.034,1.103-0.489,1.739c-0.839,0.152-1.581-0.328-2.454-0.431c-0.232-0.661-0.484-1.351-0.497-2.115
		c-0.008-0.515,0.081-1.023-0.182-1.544c-0.154-0.305-0.054-0.747,0.186-1.087c0.159-0.226,0.343-0.495,0.21-0.768
		c-0.346-0.71-0.172-1.454-0.197-2.183c-0.009-0.262-0.103-0.461-0.243-0.692c0.365-0.445,0.251-0.993,0.218-1.504
		c-0.035-0.538,0.331-0.979,0.248-1.533c-0.079-0.528-0.017-1.078-0.017-1.487c0.233-0.661,0.673-1.02,1.068-1.415
		c-0.094-1.176,0.56-2.045,1.401-2.634c0.706-0.493,1.14-1.037,1.3-1.858c0.53-0.253,1.175-0.27,1.498-0.813
		c0.474,0,0.935-0.065,1.399,0.362c0.124,0.29,0.496,0.691,0.1,1.188c-0.1,1.148-0.228,2.299,0.247,3.403
		c0.039,0.093,0.146,0.156,0.22,0.231c1.231-0.392,1.517-1.04,1.4-2.497c0.685-0.51,1.131-1.629,2.385-0.969
		c0.393-0.237,0.843-0.346,1.258-0.109c0.214,0.123,0.441,0.173,0.595,0.102c0.499-0.235,0.937-0.205,1.46-0.018
		c0.302,0.108,0.725,0.12,1.113-0.134c0.255-0.165,0.696-0.045,1.053-0.048c0.433-0.003,0.864-0.001,1.294-0.001
		c0.317-0.185,0.371-0.467,0.365-0.81c-0.004-0.211-0.218-0.272-0.227-0.451c-0.02-0.424,0.025-0.864-0.07-1.271
		c-0.089-0.383-0.322-0.734-0.383-1.152c0.601-0.954,1.692-1.38,2.368-2.245c0-0.161,0-0.331,0-0.576
		c-0.403,0.083-0.706,0.274-1.015,0.457c-0.249,0.093-0.278-0.387-0.538-0.188c-0.295-0.401-0.369-0.816-0.376-1.279
		c-0.01-0.584,0.114-1.168-0.175-1.761c-0.165-0.339-0.018-0.802,0.178-1.197c0.236-0.481,0.218-1.097,0.823-1.41
		c1.009-0.033,1.254,0.811,1.551,1.55c0.177,0.441,0.278,0.917,0.236,1.418c-0.052,0.627,0.17,1.202,0.451,1.757
		c0.752,0.044,1.484,0.067,2.017,0.669c0.482,0.026,0.903,0.222,1.336,0.426c0.375,0.177,0.777,0.3,1.022,0.648
		c0.177,0.252,0.533,0.184,0.684,0.446c0.908-0.078,1.14,0.753,1.588,1.247c0.258,0.283,0.368,0.749,0.213,1.203
		c-0.282,0.354-0.678,0.658-0.834,1.239c0.102,0.222,0.226,0.524,0.228,0.889c0.005,0.547-0.191,1.131,0.192,1.644
		c0.052,0.069,0.045,0.231-0.001,0.314c-0.099,0.18-0.226,0.324-0.216,0.563c0.023,0.64,0.008,1.281,0.008,1.905
		c0.294,0.107,0.537,0.07,0.779,0.046c0.33-0.721,0.665-1.438,0.464-2.251c-0.096-0.378-0.359-0.651-0.586-0.85
		c-0.048-0.462,0.12-0.637,0.473-0.781c0.577-0.236,1.162-0.185,1.765-0.203c0.158-0.338,0.36-0.666,0.695-0.855
		c0.316-0.18,0.665-0.301,0.991-0.443c1.383,0.242,2.216,1.171,2.993,2.226c0.428,0.579,0.99,1.057,1.257,1.91
		c-0.032,0.21,0.148,0.588-0.16,0.952c-0.116,0.136-0.136,0.513,0.046,0.696c0.192,0.194,0.079,0.407,0.146,0.594
		c0.137,0.389-0.272,0.62-0.241,0.995c0.024,0.291-0.026,0.596-0.111,0.911c-0.211,0.784-0.268,1.684-0.017,2.429
		c0.369,1.101,0.346,2.191,0.364,3.302c0.006,0.405-0.178,0.721-0.438,1.019c0,0.854,0,1.717,0,2.582
		c-0.41,0.379-0.698,0.828-0.867,1.368c-0.226,0.725-0.909,0.773-1.491,0.876c-0.489,0.086-1.008,0.048-1.508,0.007
		c-0.279-0.023-0.437,0.184-0.684,0.23c-0.376-0.19-0.763-0.389-1.251-0.636c-0.699-0.129-1.575,0.205-2.376-0.302
		c0-0.295,0-0.608,0-0.929c0.24-0.205,0.271-0.526,0.4-0.76c-0.37-0.369-0.724-0.723-1.005-1.003c-0.259-0.999,0.138-1.84,0.171-2.7
		c-0.234-0.175-0.533-0.217-0.674-0.482c0-0.714,0-1.435,0-2.157c-0.171-0.201-0.405-0.112-0.602-0.096
		c-0.243,0.021-0.307-0.325-0.609-0.207c-0.372,0.34-0.488,0.856-0.503,1.349c-0.03,1.107-0.149,2.236,0.403,3.284
		c0.062,0.114,0.034,0.322-0.053,0.506c-0.314,0.668-0.774,1.251-1.109,1.912c-0.162,0.319-0.626,0.51-0.986,0.691
		c-0.203,0.103-0.318,0.271-0.521,0.42c-0.314,0-0.667,0-1.083,0c-0.375-0.262-0.831-0.435-1.38-0.418
		c-0.619,0.017-1.268,0.142-1.86-0.22c-0.233-0.457-0.469-0.924-0.639-1.436c-0.129-0.393-0.198-0.745-0.05-1.098
		c0.174-0.413,0.192-0.77-0.015-1.179c-0.26-0.513,0.15-1.004,0.132-1.502c-0.016-0.465-0.359-0.909-0.145-1.401
		c0.053-0.12,0.225-0.188,0.177-0.292c-0.191-1.351-1.354-1.32-2.154-1.778c-0.975,0.705-1.327,1.626-1.315,2.723
		c0.003,0.396,0.02,0.794-0.006,1.188c-0.021,0.337-0.025,0.659-0.151,1.013c-0.147,0.414-0.209,0.973,0.082,1.431
		c0.17,0.27,0.151,0.625,0.052,0.823C41.897,45.455,42.143,46.164,42.067,46.614z M51.174,28.489c0.234,0.35,0.25,0.658,0.027,0.991
		c-0.148,0.222-0.068,0.413,0.048,0.663c0.343,0.739,1.055,1.104,1.457,1.66c0.305,0,0.513,0,0.708,0
		c0.457-0.645,0.666-1.022,0.494-1.304c-0.266-0.436-0.193-0.876-0.189-1.318c0.004-0.78-0.277-1.447-0.691-2.087
		c-0.268,0-0.508,0-0.755,0C51.887,27.541,51.362,27.869,51.174,28.489z M48.084,26.849c0.15,1.009-0.263,2.164,0.283,3.232
		c0.231-0.027,0.363,0.08,0.456,0.198c0.407,0,0.792,0,1.13,0c0.31-0.227,0.358-0.551,0.534-0.831
		c-0.395-0.442-0.252-0.997-0.213-1.502c0.043-0.577-0.339-1.066-0.238-1.632c-0.181-0.18-0.357-0.357-0.535-0.536
		c-0.216,0-0.432,0-0.628,0C48.517,26.035,48.302,26.392,48.084,26.849z M58.708,29.67c-0.142,0.822,0.56,1.157,0.718,1.737
		c0.684-0.154,0.684-0.154,0.751-0.732c-0.337-0.356-0.652-0.69-0.949-1.005C59.055,29.67,58.916,29.67,58.708,29.67z M55.55,35.496
		c0.114-0.166,0.374-0.241,0.367-0.278c-0.487-0.488-0.835-0.835-1.209-1.209c-0.158,0.065-0.37,0.178-0.35,0.491
		C54.86,34.707,55.167,35.145,55.55,35.496z M43.771,31.059c0.225,0.414,0.225,0.414,0.861,0.766c0.177,0.028,0.222-0.2,0.342-0.206
		c0.217-0.011,0.345-0.056,0.301-0.385C44.78,31.261,44.349,30.737,43.771,31.059z M53.553,34.074
		c-0.287-0.615-0.758-0.737-1.283-0.729c0.273,0.287,0.532,0.559,0.814,0.855c0.059,0,0.166,0.004,0.273-0.003
		C53.387,34.196,53.415,34.164,53.553,34.074z M32.004,35.496c-0.616,0.33-0.616,0.33-0.706,0.911
		c0.388-0.183,0.789-0.221,1.012-0.605C32.207,35.698,32.105,35.597,32.004,35.496z M32.256,31.802
		c0.32-0.325,0.576-0.585,0.838-0.852c-0.472,0.12-0.886,0.35-1.188,0.789C32.054,31.885,32.24,31.799,32.256,31.802z
		 M45.262,34.692c0.304,0.572,0.304,0.572,0.925,0.474C46.074,34.714,45.81,34.548,45.262,34.692z M46.859,32.049
		c0.146-0.023,0.263,0.036,0.342-0.091c0.063-0.127,0.046-0.249-0.06-0.336C46.823,31.561,46.747,31.697,46.859,32.049z
		 M59.652,33.55c-0.157,0.146-0.157,0.29,0,0.437C59.809,33.84,59.809,33.696,59.652,33.55z"/>
	<path fill="currentColor" d="M36.936,28.549c-0.141-0.143-0.317-0.321-0.5-0.506c0-0.277,0-0.563,0-0.854
		c0.235-0.245,0.441-0.538,0.831-0.612c0.116-0.337,0.234-0.683,0.354-1.033c0.269-0.218,0.542-0.388,0.91-0.425
		c0.378-0.039,0.653-0.319,0.694-0.676c0.071-0.619,0.495-0.97,0.88-1.366c-0.021-1.204,0.185-2.449-0.658-3.479
		c0.146-0.414,0.317-0.783,0.657-1.05c0-1.005-0.048-2.014,0.016-3.015c0.05-0.804-0.182-1.482-0.603-2.117
		c0.17-0.742,0.608-1.407,0.593-2.234c0.163-0.146,0.35-0.313,0.571-0.512c0.451-0.074,0.896,0.044,1.263,0.423
		c0.319,0.331,0.546,0.696,0.539,1.18c-0.005,0.342,0.229,0.623,0.241,0.987c0.01,0.301,0.27,0.595,0.389,0.832
		c-0.304,1.407-0.372,2.755,0.093,4.062c0.116,0.325,0.23,0.673,0.055,0.867c-0.396,0.437-0.039,0.821,0.125,1.022
		c0.355,0.433,0.521,0.95,0.819,1.36c0.022,0.256,0.002,0.462-0.198,0.586c-0.106,0.693,0.056,1.376-0.195,2.085
		c-0.241,0.682,0.136,1.419,0.286,2.12c0.171,0.8,0.207,1.569-0.179,2.398c-1.16,0.315-2.413,0.272-3.557,0.462
		c-0.464-0.242-0.85-0.443-1.315-0.687C38.398,28.217,37.72,28.768,36.936,28.549z"/>
	<path fill="currentColor" d="M31.798,28.352c-0.261,0-0.543,0-0.917,0
		c-0.098-0.143-0.241-0.349-0.507-0.735c0.037,0.185,0.011,0.119,0.012,0.053c0.019-0.901-0.007-1.785-0.394-2.64
		c-0.135-0.298-0.175-0.803-0.009-1.038c0.305-0.432,0.009-0.989,0.45-1.335c0.239-0.177,0.535-0.262,0.647-0.681
		c0.158-0.582,0.635-0.941,1.2-1.171c1.08-0.439,1.764-1.313,2.393-2.236c0.54-0.792,0.683-1.667,0.707-2.627
		c0.025-1.019,0.445-1.922,1.485-2.371c0.091-0.039,0.183-0.091,0.28-0.103c0.141-0.018,0.286-0.004,0.423-0.004
		c0.532,0.208,0.508,0.784,0.775,1.165c0.051,0.074,0.062,0.219,0.026,0.306c-0.433,1.062-0.104,2.171-0.213,3.252
		c-0.023,0.235,0.043,0.458-0.109,0.711c-0.218,0.364-0.176,0.827-0.028,1.215c0.291,0.765,0.104,1.544,0.119,2.312
		c0.006,0.34-0.214,0.692-0.36,1.026c-0.134,0.304-0.333,0.608-0.421,0.9c-0.164,0.546-0.302,0.988-0.978,1.004
		c-0.109,0.003-0.208,0.173-0.322,0.252c-0.248,0.172-0.503,0.4-0.809,0.37c-0.386-0.04-0.656,0.17-0.951,0.32
		c-0.633,0.321-1.125,0.858-1.788,1.146C32.143,27.604,32.137,28.103,31.798,28.352z"/>
	<path fill="currentColor" d="M19.177,41.954c-0.203-0.334-0.344-0.566-0.493-0.813
		c-0.508,0-1.004,0-1.589,0c-0.415,0.321-0.694,0.766-0.776,1.407c-0.058,0.442-0.367,0.851-0.622,1.4
		c0,0.209-0.003,0.567,0.001,0.925c0.003,0.345-0.07,0.707,0.226,0.965c-0.304,0.712-0.449,1.487-1.248,1.95
		c-0.256,0.041-0.604,0.102-0.859-0.241c-0.041-0.654-0.041-0.654,0.303-1.271c-0.329-1.113-0.045-2.212-0.181-3.374
		c-0.063-0.066-0.182-0.19-0.314-0.332c-0.431,0.158-0.608,0.543-0.951,0.785c0,0.629-0.02,1.272,0.006,1.915
		c0.022,0.548-0.087,1.029-0.527,1.437c-0.216,0-0.457,0-0.69,0c-0.161-0.162-0.313-0.314-0.521-0.521
		c0.113-1.312-0.243-2.694,0.303-4.166c0.68-0.896,1.719-1.358,2.958-1.593c0.546-0.104,1.14-0.127,1.666-0.389
		c0.475-0.238,0.978-0.424,1.449-0.669c0.15-0.078,0.252-0.214,0.458-0.206c0.762,0.028,1.474-0.211,2.2-0.41
		c0.432-0.118,0.897-0.029,1.26,0.238c0.102,0.204,0.192,0.382,0.29,0.576c-0.009,0.045-0.006,0.12-0.037,0.178
		c-0.224,0.424-0.432,0.859-0.387,1.349c0.101,1.079-0.29,2.006-0.823,2.918c0.184,0.358,0.377,0.735,0.602,1.174
		c0,0.427,0,0.931,0,1.434c-0.202,0.2-0.371,0.473-0.853,0.212c-0.169-0.222-0.6-0.438-0.726-0.921
		c-0.219-0.833-0.448-1.664-0.354-2.541C19.392,42.946,19.019,42.407,19.177,41.954z"/>
	<path fill="currentColor" d="M25.463,47.962c-0.372,0.075-0.669,0.03-0.859,0.283
		c-0.271-0.048-0.462-0.357-0.79-0.213c-0.396-0.406-0.794-0.815-1.202-1.235c0-0.261,0-0.547,0-0.826
		c0.71-1.188,0.8-1.983,0.46-3.436c-0.079-0.34-0.159-0.791-0.001-1.048c0.255-0.417,0.124-0.819,0.187-1.223
		c0.052-0.332-0.115-0.681,0.188-1.012c0.107-0.116,0.122-0.521-0.115-0.782c-0.352-0.39-0.326-0.888-0.276-1.31
		c0.451-0.749,0.648-1.597,1.428-2.091c0.236,0,0.521,0,0.843,0c0.147,0.164,0.314,0.349,0.523,0.58
		c0,0.074-0.013,0.217,0.002,0.355c0.072,0.617-0.158,1.252,0.194,1.861c0.124,0.216,0.116,0.611,0.002,0.843
		c-0.385,0.786-0.144,1.601-0.188,2.397c-0.046,0.824-0.114,1.67,0.025,2.472c0.097,0.563,0.147,0.993-0.184,1.495
		c-0.203,0.31-0.197,0.83-0.016,1.126C26.104,46.889,25.705,47.368,25.463,47.962z"/>
	<path fill="currentColor" d="M28.909,61.266c0.521-0.266,1.251-0.322,1.41-0.809
		c0.332-1.016,1.503-1.712,1.029-3.173c-0.049-0.094-0.205-0.388-0.36-0.682c0.455-1.074,0.896-2.112,1.371-3.229
		c-0.286-0.238-0.451-0.612-0.683-0.959c0.118-0.345,0.239-0.697,0.538-0.919c0.373-0.181,0.578,0.252,0.901,0.202
		c0.591-0.118,0.957-0.623,1.593-0.863c0.17,0,0.457,0,0.794,0c0.129,0.322,0.05,0.668,0.053,1.031
		c-0.539,0.266-0.941,0.621-1.098,1.242c-0.088,0.35-0.609,0.308-0.837,0.66c0.047,0.924-0.069,1.868-0.581,2.719
		c-0.124,0.206-0.057,0.416-0.06,0.621c-0.012,0.824-0.005,1.65-0.005,2.475c-0.563,0.448-0.628,1.2-1.072,1.715
		c-0.434,0.503-1.216,0.531-1.543,1.143c-0.798,0.051-0.798,0.051-1.451-0.208C28.909,61.938,28.909,61.622,28.909,61.266z"/>
	<path fill="currentColor" d="M22.667,55.599c0.42-0.493,1.096-0.519,1.646-0.61
		c0.647-0.107,1.019-0.524,1.53-0.758c-0.065-0.186-0.322-0.248-0.187-0.467c-0.347-0.18-0.673-0.347-1.075-0.554
		c-0.574,0.174-1.092-0.23-1.655-0.461c-0.216-0.093,0.048-0.48-0.422-0.441c0.204-0.171,0.312-0.26,0.449-0.373
		c0.58-0.059,1.132,0.022,1.724,0.369c0.557,0.326,1.229,0.604,1.917,0.462c0.232,0.231,0.436,0.436,0.653,0.652
		c0.559-0.127,1.017,0.369,1.605,0.198c0.012,0.228,0.019,0.365,0.028,0.558c-0.641,0.6-1.189,1.346-2.011,1.842
		c-0.245,0-0.492,0.021-0.734-0.004c-0.636-0.063-1.234,0.074-1.801,0.34c-0.273,0.126-0.586,0.188-0.791,0.032
		c-0.433-0.33-0.785-0.144-1.144,0.068c-0.58,0.34-1.182,0.544-1.875,0.394c-0.088-0.088-0.19-0.188-0.252-0.25
		c-0.299-0.944,0.576-0.787,0.942-0.972C21.955,55.246,22.055,55.321,22.667,55.599z"/>
	<path fill="currentColor" d="M13.005,50.157c0.345,0.034,0.583-0.015,0.668,0.078
		c0.583,0.633,1.382,0.674,2.139,0.801c0.291,0.048,0.423,0.191,0.53,0.406c0.086,0.406-0.38,0.716-0.202,1.097
		c0.15,0.325,0.255,0.634,0.186,1.014c-0.156,0.153-0.335,0.328-0.539,0.526C14.459,53.131,13.374,52.006,13.005,50.157z"/>
	<path fill="currentColor" d="M42.496,55.535c-0.107,0.738-0.446,1.274-0.452,1.9
		c0.64,0.265,1.242,0.573,1.61,1.355c-1.131-0.068-2.119,0.396-3.169,0.235c-0.376,0.24-0.741,0.475-1.106,0.708
		c-0.065-0.104-0.103-0.159-0.137-0.213c-0.021-0.12,0.031-0.205,0.117-0.277c0.785-0.651,1.326-1.475,1.756-2.393
		C41.423,56.189,41.566,56.091,42.496,55.535z"/>
	<path fill="currentColor" d="M51.23,54.517c-0.104-0.249-0.38-0.174-0.514-0.308c0-0.183,0-0.352,0-0.505
		c0.461-0.229,0.819,0.066,1.208,0.189c1.474-0.832,3.038-1.29,4.685-1.35c0.209,0.172,0.09,0.365,0.129,0.531
		c-0.337,0.402-0.7,0.771-1.315,0.997c-0.193,0-0.517,0.02-0.836-0.005c-0.701-0.053-1.351,0.148-1.996,0.371
		C52.139,54.595,51.677,54.446,51.23,54.517z"/>
	<path fill="currentColor" d="M51.501,49.046c0.083-0.323,0.344-0.59,0.294-0.945
		c0.24-0.162,0.497-0.014,0.708-0.093c0.208,0.158,0.096,0.354,0.132,0.529c-0.342,0.552-1.184,0.622-1.285,1.399
		c-0.437,0-0.823,0-1.171,0c-0.166,0.165-0.292,0.293-0.425,0.424c-1.646,0.198-3.198-0.113-4.728-0.96
		c0.604-0.092,1.125-0.512,1.688-0.244c0.393,0.187,0.821,0.249,1.2,0.499c0.838,0.553,1.671,0.353,2.486-0.143
		C50.738,49.309,51.132,49.199,51.501,49.046z"/>
	<path fill="currentColor" d="M45.923,54.834c-0.227-0.163-0.454-0.327-0.723-0.521
		c0.492-0.569,1.093-0.438,1.604-0.458c0.277,0.294,0.53,0.563,0.827,0.876C47.002,54.586,46.469,55.111,45.923,54.834z"/>
	<path fill="currentColor" d="M43.234,54.51c0.306,0,0.592,0,0.872,0c0.188,0.188,0.149,0.654-0.112,0.725
		c-0.408,0.11-0.769,0.455-1.313,0.301C42.765,55.156,42.891,54.828,43.234,54.51z"/>
	<path fill="currentColor" d="M20.1,52.128c-0.208-0.297-0.529-0.404-0.526-0.747
		c0.285-0.25,0.624-0.017,0.95-0.172c0.191,0.214,0.371,0.415,0.547,0.613c-0.1,0.104-0.2,0.206-0.295,0.306
		C20.553,52.128,20.339,52.128,20.1,52.128z"/>
	<path fill="currentColor" d="M37.125,50.987c-0.118-0.302-0.049-0.545,0.266-0.771
		c0.171-0.1,0.421-0.005,0.664-0.034c0.209,0.205,0.088,0.465,0.098,0.698c0.007,0.194-0.174,0.179-0.313,0.165
		C37.6,51.025,37.351,51.112,37.125,50.987z"/>
	<path fill="currentColor" d="M30.604,53.617c-0.169,0-0.379,0-0.621,0c0-0.189,0-0.358,0-0.54
		c0.188-0.095,0.396-0.2,0.59-0.299c0.195-0.031,0.237,0.16,0.361,0.209c0.092,0.035,0.217-0.032,0.315,0.136
		C31.07,53.26,30.878,53.407,30.604,53.617z"/>
	<path fill="currentColor" d="M43.146,49.493c-0.092-0.336,0.173-0.409,0.263-0.587
		c0.252,0,0.49,0,0.714,0c0.136,0.173,0.381,0.262,0.267,0.601C43.986,49.55,43.556,49.568,43.146,49.493z"/>
	<path fill="currentColor" d="M45.769,59.259c0.592-0.035,0.979,0.249,1.335,0.628
		c-0.219,0.31-0.413,0.205-0.618,0.241C46.275,59.872,46.049,59.599,45.769,59.259z"/>
	<path fill="currentColor" d="M42.197,50.581c-0.29,0-0.528,0-0.74,0c-0.163-0.3,0.077-0.397,0.227-0.578
		c0.236,0,0.497,0,0.74,0C42.586,50.302,42.346,50.4,42.197,50.581z"/>
	<path fill="currentColor" d="M17.706,51.065c0.246,0,0.482,0,0.713,0c0.106,0.183,0.413,0.231,0.25,0.571
		c-0.194,0.14-0.468,0.042-0.729,0.039C17.83,51.5,17.539,51.441,17.706,51.065z"/>
	<path fill="currentColor" d="M55.008,47.266c0,0.073,0,0.144,0,0.213
		c-0.097,0.131-0.219,0.143-0.349,0.084c-0.13-0.074-0.069-0.191-0.086-0.291C54.718,47.107,54.862,47.111,55.008,47.266z"/>
	
	
	
	
	
	
	
	
	
	
	
</g>
</svg>
