<?xml version="1.0" encoding="iso-8859-1"?>
<!-- Generator: Adobe Illustrator 16.0.0, SVG Export Plug-In . SVG Version: 6.00 Build 0)  -->
<!DOCTYPE svg PUBLIC "-//W3C//DTD SVG 1.1//EN" "http://www.w3.org/Graphics/SVG/1.1/DTD/svg11.dtd">
<svg version="1.1" id="Layer_1" xmlns="http://www.w3.org/2000/svg" xmlns:xlink="http://www.w3.org/1999/xlink" x="0px" y="0px"
	 width="72.18px" height="70.921px" viewBox="0 0 72.18 70.921" style="enable-background:new 0 0 72.18 70.921;"
	 xml:space="preserve">
<g>
	<path style="fill-rule:evenodd;clip-rule:evenodd;fill:none;" d="M-6.983-6.839c28.799,0,57.599,0,86.399,0
		c0,28.296,0,56.59,0,84.887c-28.8,0-57.6,0-86.399,0C-6.983,49.751-6.983,21.457-6.983-6.839z M42.067,46.614
		c0.076-0.45-0.17-1.159,0.174-1.842c0.1-0.198,0.118-0.554-0.052-0.823c-0.291-0.458-0.229-1.017-0.082-1.431
		c0.126-0.354,0.13-0.676,0.151-1.013c0.025-0.395,0.009-0.792,0.006-1.188c-0.012-1.097,0.341-2.018,1.315-2.723
		c0.8,0.458,1.963,0.428,2.154,1.778c0.048,0.104-0.124,0.172-0.177,0.292c-0.215,0.492,0.129,0.937,0.145,1.401
		c0.019,0.498-0.392,0.989-0.132,1.502c0.207,0.409,0.188,0.766,0.015,1.179c-0.148,0.353-0.079,0.705,0.05,1.098
		c0.17,0.512,0.405,0.979,0.639,1.436c0.593,0.361,1.241,0.236,1.86,0.22c0.549-0.017,1.005,0.156,1.38,0.418
		c0.416,0,0.769,0,1.083,0c0.203-0.149,0.318-0.317,0.521-0.42c0.36-0.182,0.824-0.372,0.986-0.691
		c0.335-0.661,0.795-1.244,1.109-1.912c0.087-0.184,0.114-0.392,0.053-0.506c-0.553-1.048-0.434-2.177-0.403-3.284
		c0.015-0.492,0.131-1.009,0.503-1.349c0.303-0.118,0.366,0.228,0.609,0.207c0.196-0.017,0.431-0.105,0.602,0.096
		c0,0.723,0,1.443,0,2.157c0.141,0.266,0.439,0.308,0.674,0.482c-0.033,0.86-0.43,1.701-0.171,2.7
		c0.281,0.28,0.635,0.634,1.005,1.003c-0.129,0.233-0.16,0.555-0.4,0.76c0,0.32,0,0.634,0,0.929
		c0.801,0.507,1.677,0.173,2.376,0.302c0.488,0.247,0.875,0.445,1.251,0.636c0.247-0.047,0.404-0.254,0.684-0.23
		c0.5,0.041,1.019,0.079,1.508-0.007c0.582-0.103,1.266-0.151,1.491-0.876c0.169-0.54,0.457-0.989,0.867-1.368
		c0-0.865,0-1.729,0-2.582c0.26-0.298,0.443-0.613,0.438-1.019c-0.019-1.11,0.005-2.201-0.364-3.302
		c-0.251-0.745-0.194-1.645,0.017-2.429c0.085-0.315,0.136-0.62,0.111-0.911c-0.031-0.375,0.378-0.606,0.241-0.995
		c-0.067-0.188,0.046-0.4-0.146-0.594c-0.182-0.183-0.162-0.56-0.046-0.696c0.309-0.363,0.128-0.741,0.16-0.952
		c-0.267-0.853-0.829-1.331-1.257-1.91c-0.777-1.054-1.61-1.984-2.993-2.226c-0.326,0.143-0.675,0.264-0.991,0.443
		c-0.335,0.189-0.537,0.517-0.695,0.855c-0.603,0.018-1.188-0.033-1.765,0.203c-0.353,0.144-0.521,0.319-0.473,0.781
		c0.227,0.199,0.49,0.472,0.586,0.85c0.201,0.813-0.134,1.53-0.464,2.251c-0.242,0.024-0.485,0.062-0.779-0.046
		c0-0.624,0.016-1.266-0.008-1.905c-0.01-0.239,0.117-0.383,0.216-0.563c0.046-0.083,0.053-0.245,0.001-0.314
		c-0.384-0.513-0.188-1.097-0.192-1.644c-0.002-0.364-0.126-0.667-0.228-0.889c0.156-0.581,0.552-0.885,0.834-1.239
		c0.155-0.454,0.045-0.92-0.213-1.203c-0.448-0.494-0.68-1.325-1.588-1.247c-0.15-0.262-0.507-0.194-0.684-0.446
		c-0.245-0.348-0.647-0.471-1.022-0.648c-0.433-0.204-0.854-0.4-1.336-0.426c-0.532-0.602-1.265-0.625-2.017-0.669
		c-0.281-0.556-0.503-1.13-0.451-1.757c0.042-0.501-0.06-0.977-0.236-1.418c-0.297-0.74-0.542-1.583-1.551-1.55
		c-0.605,0.313-0.587,0.928-0.823,1.41c-0.195,0.396-0.343,0.858-0.178,1.197c0.289,0.593,0.165,1.176,0.175,1.761
		c0.007,0.463,0.081,0.877,0.376,1.279c0.26-0.199,0.289,0.28,0.538,0.188c0.309-0.182,0.611-0.374,1.015-0.457
		c0,0.246,0,0.416,0,0.576c-0.676,0.864-1.768,1.291-2.368,2.245c0.061,0.418,0.294,0.769,0.383,1.152
		c0.096,0.407,0.051,0.846,0.07,1.271c0.009,0.178,0.223,0.239,0.227,0.451c0.006,0.343-0.048,0.625-0.365,0.81
		c-0.43,0-0.861-0.002-1.294,0.001c-0.356,0.003-0.798-0.117-1.053,0.048c-0.389,0.254-0.812,0.242-1.113,0.134
		c-0.523-0.188-0.961-0.218-1.46,0.018c-0.153,0.071-0.381,0.021-0.595-0.102c-0.415-0.237-0.865-0.128-1.258,0.109
		c-1.254-0.661-1.7,0.459-2.385,0.969c0.116,1.457-0.169,2.104-1.4,2.497c-0.074-0.075-0.181-0.139-0.22-0.231
		c-0.475-1.104-0.347-2.255-0.247-3.403c0.396-0.497,0.024-0.898-0.1-1.188c-0.465-0.427-0.925-0.362-1.399-0.362
		c-0.322,0.544-0.967,0.561-1.498,0.813c-0.161,0.821-0.595,1.365-1.3,1.858c-0.841,0.589-1.496,1.458-1.401,2.634
		c-0.395,0.395-0.834,0.753-1.068,1.415c0,0.41-0.062,0.959,0.017,1.487c0.083,0.554-0.282,0.995-0.248,1.533
		c0.033,0.511,0.147,1.059-0.218,1.504c0.141,0.231,0.234,0.431,0.243,0.692c0.024,0.729-0.149,1.473,0.197,2.183
		c0.133,0.272-0.051,0.542-0.21,0.768c-0.239,0.34-0.339,0.782-0.186,1.087c0.263,0.521,0.173,1.029,0.182,1.544
		c0.013,0.765,0.264,1.454,0.497,2.115c0.873,0.103,1.615,0.583,2.454,0.431c0.456-0.637,0.675-1.224,0.489-1.739
		c-0.091-0.253-0.15-0.515-0.244-0.762c-0.223-0.592-0.61-1.143-0.182-1.815c0.081-0.126,0.066-0.395-0.058-0.608
		c-0.219-0.378-0.139-0.745,0.006-1.173c0.237-0.697,0.479-1.414,0.524-2.251c0.393-0.142,0.493-0.842,0.911-0.751
		c0.417,0.42,0.688,0.694,1.013,1.021c-0.107,0.335-0.436,0.774-0.01,1.23c0.049,0.053,0.008,0.206-0.019,0.307
		c-0.243,0.918-0.198,0.907,0.006,1.78c0.097,0.416,0.47,0.844,0.043,1.348c-0.17,0.201-0.004,0.6,0.205,0.848
		c-0.612,0.792-0.643,0.876-0.606,1.703c0.586,0.355,1.307,0.475,1.829,0.895c0.571-0.164,0.924-0.499,1.142-1.099
		c0-1.867-0.013-3.847,0.005-5.827c0.009-0.945,0.398-1.744,1.151-2.321c0.284-0.218,0.655-0.319,1.034-0.497
		c0.166,0.012,0.278,0.222,0.504,0.263c0.178,0.032,0.174,0.408,0.378,0.577c0.146,0.121,0.234,0.328,0.31,0.513
		c0.195,0.479-0.074,1.041,0.276,1.51c0.087,0.116,0.013,0.351,0.013,0.53c0.002,0.105,0.008,0.21-0.096,0.285
		c-0.089,0.065-0.14,0.156-0.164,0.02c0.666,1.793,0.773,3.309-0.203,4.764c0.532,0.709,1.141,1.235,2.03,1.281
		C41.615,47.563,41.857,47.233,42.067,46.614z M36.936,28.549c0.784,0.219,1.462-0.332,2.11-0.184
		c0.466,0.244,0.852,0.444,1.315,0.687c1.144-0.19,2.396-0.147,3.557-0.462c0.386-0.83,0.35-1.598,0.179-2.398
		c-0.15-0.701-0.527-1.438-0.286-2.12c0.251-0.708,0.089-1.392,0.195-2.085c0.2-0.125,0.221-0.331,0.198-0.586
		c-0.299-0.41-0.464-0.928-0.819-1.36c-0.164-0.201-0.521-0.585-0.125-1.022c0.176-0.193,0.062-0.542-0.055-0.867
		c-0.465-1.307-0.396-2.655-0.093-4.062c-0.119-0.236-0.379-0.53-0.389-0.832c-0.012-0.365-0.246-0.645-0.241-0.987
		c0.007-0.483-0.22-0.849-0.539-1.18c-0.366-0.379-0.812-0.497-1.263-0.423c-0.222,0.199-0.408,0.366-0.571,0.512
		c0.016,0.828-0.423,1.492-0.593,2.234c0.421,0.635,0.652,1.313,0.603,2.117c-0.063,1.001-0.016,2.01-0.016,3.015
		c-0.34,0.267-0.511,0.636-0.657,1.05c0.843,1.031,0.638,2.276,0.658,3.479c-0.385,0.396-0.809,0.747-0.88,1.366
		c-0.041,0.357-0.316,0.638-0.694,0.676c-0.368,0.037-0.642,0.207-0.91,0.425c-0.12,0.35-0.238,0.696-0.354,1.033
		c-0.389,0.075-0.596,0.367-0.831,0.612c0,0.291,0,0.577,0,0.854C36.619,28.228,36.795,28.406,36.936,28.549z M31.798,28.352
		c0.339-0.249,0.345-0.748,0.711-0.908c0.663-0.288,1.155-0.825,1.788-1.146c0.295-0.15,0.565-0.36,0.951-0.32
		c0.305,0.03,0.561-0.198,0.809-0.37c0.114-0.079,0.213-0.25,0.322-0.252c0.676-0.017,0.813-0.458,0.978-1.004
		c0.088-0.292,0.287-0.597,0.421-0.9c0.146-0.333,0.366-0.686,0.36-1.026c-0.016-0.768,0.172-1.547-0.119-2.312
		c-0.147-0.389-0.189-0.851,0.028-1.215c0.152-0.253,0.086-0.476,0.109-0.711c0.108-1.081-0.22-2.19,0.213-3.252
		c0.035-0.086,0.024-0.231-0.026-0.306c-0.268-0.381-0.243-0.957-0.775-1.165c-0.137,0-0.282-0.013-0.423,0.004
		c-0.097,0.012-0.188,0.063-0.28,0.103c-1.04,0.448-1.459,1.352-1.485,2.371c-0.024,0.959-0.167,1.834-0.707,2.627
		c-0.629,0.924-1.313,1.797-2.393,2.236c-0.565,0.23-1.042,0.589-1.2,1.171c-0.113,0.419-0.408,0.504-0.647,0.681
		c-0.44,0.347-0.145,0.904-0.45,1.335c-0.166,0.234-0.125,0.74,0.009,1.038c0.387,0.855,0.412,1.738,0.394,2.64
		c-0.001,0.066,0.025,0.132-0.012-0.053c0.266,0.386,0.409,0.592,0.507,0.735C31.254,28.352,31.537,28.352,31.798,28.352z
		 M19.177,41.954c-0.158,0.453,0.215,0.992-0.229,1.414c-0.094,0.877,0.134,1.708,0.354,2.541c0.126,0.483,0.557,0.699,0.726,0.921
		c0.482,0.261,0.651-0.012,0.853-0.211c0-0.504,0-1.008,0-1.435c-0.225-0.438-0.418-0.815-0.602-1.174
		c0.533-0.912,0.924-1.839,0.823-2.918c-0.045-0.489,0.163-0.925,0.387-1.349c0.031-0.058,0.028-0.133,0.037-0.178
		c-0.097-0.194-0.188-0.372-0.29-0.576c-0.363-0.268-0.829-0.356-1.26-0.238c-0.726,0.199-1.438,0.438-2.2,0.41
		c-0.206-0.008-0.308,0.128-0.458,0.206c-0.471,0.245-0.974,0.431-1.449,0.669c-0.525,0.262-1.12,0.284-1.666,0.389
		c-1.239,0.234-2.278,0.696-2.958,1.593c-0.546,1.472-0.19,2.854-0.303,4.166c0.207,0.207,0.359,0.359,0.521,0.521
		c0.233,0,0.475,0,0.69,0c0.44-0.407,0.549-0.889,0.527-1.437c-0.026-0.643-0.006-1.286-0.006-1.915
		c0.343-0.242,0.521-0.627,0.951-0.785c0.133,0.142,0.251,0.266,0.314,0.332c0.136,1.162-0.148,2.261,0.181,3.374
		c-0.343,0.617-0.343,0.617-0.303,1.271c0.256,0.343,0.604,0.282,0.859,0.241c0.799-0.463,0.944-1.238,1.248-1.95
		c-0.295-0.258-0.223-0.62-0.226-0.965c-0.004-0.357-0.001-0.716-0.001-0.925c0.255-0.55,0.564-0.958,0.622-1.4
		c0.083-0.642,0.362-1.086,0.776-1.407c0.585,0,1.082,0,1.589,0C18.833,41.388,18.974,41.62,19.177,41.954z M25.463,47.962
		c0.242-0.594,0.64-1.073,0.221-1.762c-0.181-0.296-0.187-0.816,0.016-1.126c0.331-0.502,0.281-0.933,0.184-1.495
		c-0.139-0.802-0.072-1.647-0.025-2.472c0.044-0.797-0.197-1.611,0.188-2.397c0.114-0.231,0.122-0.627-0.002-0.843
		c-0.352-0.609-0.123-1.244-0.194-1.861c-0.016-0.139-0.002-0.281-0.002-0.355c-0.208-0.231-0.375-0.417-0.523-0.58
		c-0.322,0-0.607,0-0.843,0c-0.78,0.494-0.978,1.342-1.428,2.091c-0.05,0.422-0.076,0.92,0.276,1.31
		c0.237,0.262,0.223,0.666,0.115,0.782c-0.303,0.331-0.136,0.68-0.188,1.012c-0.063,0.403,0.069,0.806-0.187,1.223
		c-0.157,0.257-0.078,0.708,0.001,1.048c0.34,1.452,0.25,2.248-0.46,3.436c0,0.279,0,0.565,0,0.826
		c0.408,0.42,0.806,0.829,1.202,1.235c0.328-0.145,0.52,0.165,0.79,0.213C24.794,47.992,25.091,48.037,25.463,47.962z
		 M28.909,61.266c0,0.356,0,0.672,0,0.966c0.653,0.259,0.653,0.259,1.451,0.208c0.327-0.611,1.109-0.64,1.543-1.143
		c0.444-0.515,0.51-1.267,1.072-1.715c0-0.824-0.006-1.65,0.005-2.475c0.003-0.205-0.064-0.415,0.06-0.621
		c0.512-0.851,0.628-1.795,0.581-2.719c0.228-0.353,0.749-0.311,0.837-0.66c0.157-0.621,0.559-0.977,1.098-1.242
		c-0.003-0.363,0.076-0.709-0.053-1.031c-0.337,0-0.625,0-0.794,0c-0.636,0.24-1.002,0.745-1.593,0.861
		c-0.323,0.052-0.528-0.381-0.901-0.2c-0.299,0.222-0.42,0.574-0.538,0.919c0.231,0.347,0.397,0.721,0.683,0.959
		c-0.474,1.117-0.916,2.155-1.371,3.229c0.155,0.294,0.311,0.588,0.36,0.682c0.474,1.461-0.697,2.157-1.029,3.173
		C30.16,60.943,29.43,61,28.909,61.266z M22.667,55.599c-0.612-0.277-0.711-0.353-1.453,0.025c-0.366,0.185-1.241,0.027-0.942,0.972
		c0.062,0.062,0.164,0.162,0.252,0.25c0.694,0.15,1.295-0.054,1.875-0.394c0.359-0.212,0.711-0.398,1.144-0.068
		c0.205,0.156,0.518,0.094,0.791-0.032c0.567-0.266,1.165-0.403,1.801-0.34c0.243,0.024,0.49,0.004,0.734,0.004
		c0.821-0.496,1.37-1.242,2.011-1.842c-0.009-0.192-0.016-0.33-0.028-0.558c-0.588,0.171-1.046-0.325-1.605-0.198
		c-0.217-0.217-0.421-0.421-0.653-0.652c-0.688,0.143-1.36-0.136-1.917-0.462c-0.592-0.347-1.144-0.428-1.724-0.369
		c-0.138,0.113-0.245,0.202-0.449,0.373c0.47-0.039,0.206,0.349,0.422,0.441c0.563,0.23,1.082,0.635,1.655,0.461
		c0.402,0.207,0.728,0.374,1.075,0.554c-0.136,0.219,0.121,0.281,0.187,0.467c-0.512,0.233-0.883,0.65-1.53,0.758
		C23.763,55.08,23.087,55.105,22.667,55.599z M31.54,68.944c0.669,0.121,1.275-0.124,1.846,0.229
		c0.182,0.113,0.571,0.119,0.729-0.003c0.396-0.304,0.815-0.174,1.221-0.188c0.791-0.024,1.584,0.018,2.375-0.014
		c0.775-0.031,1.496,0.436,2.33,0.17c0.216-0.256,0.699-0.228,0.926-0.526c0.011-0.276-0.206-0.33-0.278-0.446
		c-1.091-0.315-2.044,0.301-3.035,0.41c-0.313-0.312-0.593-0.592-0.899-0.898c-0.624,0.03-1.308-0.146-1.863,0.361
		c-0.133,0.122-0.27,0.046-0.404,0.072c-0.405,0.079-0.713-0.175-1.063-0.298c-0.469-0.164-0.941-0.531-1.451-0.293
		c-0.431,0.2-1.052,0.217-1.155,0.861C30.931,68.74,31.344,68.693,31.54,68.944z M13.005,50.157
		c0.369,1.849,1.454,2.974,2.782,3.922c0.204-0.198,0.382-0.373,0.539-0.526c0.07-0.38-0.035-0.688-0.186-1.014
		c-0.178-0.381,0.288-0.69,0.202-1.097c-0.107-0.215-0.239-0.358-0.53-0.406c-0.757-0.127-1.556-0.168-2.139-0.801
		C13.588,50.143,13.35,50.191,13.005,50.157z M42.496,55.535c-0.93,0.556-1.072,0.654-1.381,1.316
		c-0.43,0.918-0.971,1.741-1.756,2.393c-0.086,0.072-0.139,0.157-0.117,0.277c0.034,0.054,0.071,0.109,0.137,0.213
		c0.365-0.233,0.73-0.468,1.106-0.708c1.05,0.16,2.038-0.304,3.169-0.235c-0.368-0.782-0.971-1.091-1.61-1.355
		C42.049,56.81,42.388,56.273,42.496,55.535z M51.23,54.517c0.447-0.07,0.909,0.078,1.36-0.078c0.646-0.223,1.295-0.424,1.996-0.371
		c0.319,0.024,0.643,0.005,0.836,0.005c0.615-0.227,0.979-0.595,1.315-0.997c-0.039-0.166,0.08-0.359-0.129-0.531
		c-1.646,0.06-3.211,0.518-4.685,1.35c-0.389-0.123-0.747-0.418-1.208-0.189c0,0.153,0,0.322,0,0.505
		C50.85,54.343,51.125,54.268,51.23,54.517z M41.821,68.413c0.141,0.19,0.297,0.104,0.429,0.132c0.572,0.121,1.066-0.308,1.637-0.22
		c0.676,0.104,1.28-0.165,1.864-0.438c0.594-0.278,1.189-0.494,1.882-0.411c0.081-0.319,0.478-0.364,0.465-0.799
		c-0.088-0.075-0.219-0.188-0.33-0.282c-0.382,0-0.738,0-1.111,0c-0.281,0.479-0.866,0.516-1.248,0.822
		C44.105,67.314,42.844,67.49,41.821,68.413z M51.501,49.046c-0.369,0.153-0.764,0.263-1.101,0.467
		c-0.815,0.495-1.648,0.695-2.486,0.143c-0.379-0.25-0.808-0.313-1.2-0.499c-0.563-0.268-1.083,0.152-1.688,0.244
		c1.529,0.847,3.081,1.158,4.728,0.96c0.133-0.131,0.259-0.259,0.425-0.424c0.348,0,0.734,0,1.171,0
		c0.102-0.777,0.943-0.848,1.285-1.399c-0.036-0.176,0.076-0.371-0.132-0.529c-0.211,0.079-0.468-0.069-0.708,0.093
		C51.845,48.456,51.584,48.723,51.501,49.046z M45.923,54.834c0.546,0.277,1.079-0.248,1.708-0.103
		c-0.297-0.313-0.55-0.582-0.827-0.876c-0.511,0.02-1.111-0.111-1.604,0.458C45.469,54.507,45.697,54.671,45.923,54.834z
		 M43.234,54.51c-0.343,0.318-0.469,0.646-0.554,1.025c0.545,0.154,0.905-0.19,1.313-0.301c0.262-0.07,0.3-0.537,0.112-0.725
		C43.826,54.51,43.54,54.51,43.234,54.51z M20.1,52.128c0.239,0,0.453,0,0.675,0c0.096-0.1,0.195-0.202,0.295-0.306
		c-0.176-0.198-0.356-0.399-0.547-0.613c-0.326,0.155-0.665-0.078-0.95,0.172C19.571,51.724,19.892,51.831,20.1,52.128z
		 M37.125,50.987c0.227,0.125,0.476,0.038,0.715,0.059c0.139,0.014,0.319,0.029,0.313-0.165c-0.01-0.233,0.111-0.493-0.098-0.698
		c-0.243,0.029-0.493-0.065-0.664,0.034C37.076,50.442,37.006,50.686,37.125,50.987z M30.604,53.617
		c0.273-0.21,0.466-0.357,0.645-0.494c-0.098-0.168-0.223-0.101-0.315-0.136c-0.124-0.049-0.166-0.24-0.361-0.209
		c-0.194,0.099-0.402,0.204-0.59,0.299c0,0.182,0,0.351,0,0.54C30.226,53.617,30.435,53.617,30.604,53.617z M43.146,49.493
		c0.41,0.075,0.84,0.057,1.243,0.014c0.114-0.339-0.131-0.428-0.267-0.601c-0.224,0-0.462,0-0.714,0
		C43.319,49.084,43.054,49.157,43.146,49.493z M45.769,59.259c0.28,0.34,0.506,0.613,0.717,0.869
		c0.205-0.036,0.399,0.068,0.618-0.241C46.749,59.508,46.361,59.224,45.769,59.259z M42.197,50.581
		c0.149-0.181,0.39-0.279,0.227-0.578c-0.243,0-0.504,0-0.74,0c-0.149,0.181-0.39,0.278-0.227,0.578
		C41.668,50.581,41.907,50.581,42.197,50.581z M17.706,51.065c-0.167,0.376,0.124,0.435,0.233,0.61
		c0.261,0.003,0.535,0.101,0.729-0.039c0.163-0.34-0.144-0.389-0.25-0.571C18.188,51.065,17.952,51.065,17.706,51.065z
		 M55.008,47.266c-0.146-0.154-0.29-0.158-0.435,0.006c0.017,0.1-0.044,0.217,0.086,0.291c0.13,0.059,0.252,0.047,0.349-0.083
		C55.008,47.409,55.008,47.339,55.008,47.266z"/>
	<path style="fill-rule:evenodd;clip-rule:evenodd;" d="M42.067,46.614c-0.21,0.619-0.452,0.949-0.828,1.2
		c-0.89-0.046-1.498-0.572-2.03-1.281c0.977-1.455,0.869-2.971,0.203-4.764c0.024,0.137,0.075,0.046,0.164-0.02
		c0.104-0.075,0.098-0.18,0.096-0.285c0-0.18,0.074-0.414-0.013-0.53c-0.351-0.469-0.081-1.031-0.276-1.51
		c-0.075-0.185-0.164-0.392-0.31-0.513c-0.204-0.169-0.2-0.545-0.378-0.577c-0.226-0.041-0.338-0.251-0.504-0.263
		c-0.379,0.178-0.75,0.279-1.034,0.497c-0.753,0.577-1.143,1.376-1.151,2.321C35.987,42.871,36,44.851,36,46.718
		c-0.218,0.6-0.571,0.935-1.142,1.099c-0.521-0.42-1.242-0.539-1.829-0.895c-0.037-0.827-0.006-0.911,0.606-1.703
		c-0.209-0.248-0.375-0.646-0.205-0.848c0.427-0.504,0.054-0.932-0.043-1.348c-0.205-0.873-0.249-0.862-0.006-1.78
		c0.026-0.101,0.067-0.254,0.019-0.307c-0.426-0.456-0.097-0.896,0.01-1.23c-0.324-0.327-0.596-0.602-1.013-1.021
		c-0.418-0.091-0.518,0.609-0.911,0.751c-0.045,0.837-0.287,1.554-0.524,2.251c-0.145,0.428-0.225,0.795-0.006,1.173
		c0.124,0.214,0.139,0.482,0.058,0.608c-0.428,0.673-0.041,1.224,0.182,1.815c0.093,0.247,0.152,0.509,0.244,0.762
		c0.186,0.516-0.034,1.103-0.489,1.739c-0.839,0.152-1.581-0.328-2.454-0.431c-0.232-0.661-0.484-1.351-0.497-2.115
		c-0.008-0.515,0.081-1.023-0.182-1.544c-0.154-0.305-0.054-0.747,0.186-1.087c0.159-0.226,0.343-0.495,0.21-0.768
		c-0.346-0.71-0.172-1.454-0.197-2.183c-0.009-0.262-0.103-0.461-0.243-0.692c0.365-0.445,0.251-0.993,0.218-1.504
		c-0.035-0.538,0.331-0.979,0.248-1.533c-0.079-0.528-0.017-1.078-0.017-1.487c0.233-0.661,0.673-1.02,1.068-1.415
		c-0.094-1.176,0.56-2.045,1.401-2.634c0.706-0.493,1.14-1.037,1.3-1.858c0.53-0.253,1.175-0.27,1.498-0.813
		c0.474,0,0.935-0.065,1.399,0.362c0.124,0.29,0.496,0.691,0.1,1.188c-0.1,1.148-0.228,2.299,0.247,3.403
		c0.039,0.093,0.146,0.156,0.22,0.231c1.231-0.392,1.517-1.04,1.4-2.497c0.685-0.51,1.131-1.629,2.385-0.969
		c0.393-0.237,0.843-0.346,1.258-0.109c0.214,0.123,0.441,0.173,0.595,0.102c0.499-0.235,0.937-0.205,1.46-0.018
		c0.302,0.108,0.725,0.12,1.113-0.134c0.255-0.165,0.696-0.045,1.053-0.048c0.433-0.003,0.864-0.001,1.294-0.001
		c0.317-0.185,0.371-0.467,0.365-0.81c-0.004-0.211-0.218-0.272-0.227-0.451c-0.02-0.424,0.025-0.864-0.07-1.271
		c-0.089-0.383-0.322-0.734-0.383-1.152c0.601-0.954,1.692-1.38,2.368-2.245c0-0.161,0-0.331,0-0.576
		c-0.403,0.083-0.706,0.274-1.015,0.457c-0.249,0.093-0.278-0.387-0.538-0.188c-0.295-0.401-0.369-0.816-0.376-1.279
		c-0.01-0.584,0.114-1.168-0.175-1.761c-0.165-0.339-0.018-0.802,0.178-1.197c0.236-0.481,0.218-1.097,0.823-1.41
		c1.009-0.033,1.254,0.811,1.551,1.55c0.177,0.441,0.278,0.917,0.236,1.418c-0.052,0.627,0.17,1.202,0.451,1.757
		c0.752,0.044,1.484,0.067,2.017,0.669c0.482,0.026,0.903,0.222,1.336,0.426c0.375,0.177,0.777,0.3,1.022,0.648
		c0.177,0.252,0.533,0.184,0.684,0.446c0.908-0.078,1.14,0.753,1.588,1.247c0.258,0.283,0.368,0.749,0.213,1.203
		c-0.282,0.354-0.678,0.658-0.834,1.239c0.102,0.222,0.226,0.524,0.228,0.889c0.005,0.547-0.191,1.131,0.192,1.644
		c0.052,0.069,0.045,0.231-0.001,0.314c-0.099,0.18-0.226,0.324-0.216,0.563c0.023,0.64,0.008,1.281,0.008,1.905
		c0.294,0.107,0.537,0.07,0.779,0.046c0.33-0.721,0.665-1.438,0.464-2.251c-0.096-0.378-0.359-0.651-0.586-0.85
		c-0.048-0.462,0.12-0.637,0.473-0.781c0.577-0.236,1.162-0.185,1.765-0.203c0.158-0.338,0.36-0.666,0.695-0.855
		c0.316-0.18,0.665-0.301,0.991-0.443c1.383,0.242,2.216,1.171,2.993,2.226c0.428,0.579,0.99,1.057,1.257,1.91
		c-0.032,0.21,0.148,0.588-0.16,0.952c-0.116,0.136-0.136,0.513,0.046,0.696c0.192,0.194,0.079,0.407,0.146,0.594
		c0.137,0.389-0.272,0.62-0.241,0.995c0.024,0.291-0.026,0.596-0.111,0.911c-0.211,0.784-0.268,1.684-0.017,2.429
		c0.369,1.101,0.346,2.191,0.364,3.302c0.006,0.405-0.178,0.721-0.438,1.019c0,0.854,0,1.717,0,2.582
		c-0.41,0.379-0.698,0.828-0.867,1.368c-0.226,0.725-0.909,0.773-1.491,0.876c-0.489,0.086-1.008,0.048-1.508,0.007
		c-0.279-0.023-0.437,0.184-0.684,0.23c-0.376-0.19-0.763-0.389-1.251-0.636c-0.699-0.129-1.575,0.205-2.376-0.302
		c0-0.295,0-0.608,0-0.929c0.24-0.205,0.271-0.526,0.4-0.76c-0.37-0.369-0.724-0.723-1.005-1.003c-0.259-0.999,0.138-1.84,0.171-2.7
		c-0.234-0.175-0.533-0.217-0.674-0.482c0-0.714,0-1.435,0-2.157c-0.171-0.201-0.405-0.112-0.602-0.096
		c-0.243,0.021-0.307-0.325-0.609-0.207c-0.372,0.34-0.488,0.856-0.503,1.349c-0.03,1.107-0.149,2.236,0.403,3.284
		c0.062,0.114,0.034,0.322-0.053,0.506c-0.314,0.668-0.774,1.251-1.109,1.912c-0.162,0.319-0.626,0.51-0.986,0.691
		c-0.203,0.103-0.318,0.271-0.521,0.42c-0.314,0-0.667,0-1.083,0c-0.375-0.262-0.831-0.435-1.38-0.418
		c-0.619,0.017-1.268,0.142-1.86-0.22c-0.233-0.457-0.469-0.924-0.639-1.436c-0.129-0.393-0.198-0.745-0.05-1.098
		c0.174-0.413,0.192-0.77-0.015-1.179c-0.26-0.513,0.15-1.004,0.132-1.502c-0.016-0.465-0.359-0.909-0.145-1.401
		c0.053-0.12,0.225-0.188,0.177-0.292c-0.191-1.351-1.354-1.32-2.154-1.778c-0.975,0.705-1.327,1.626-1.315,2.723
		c0.003,0.396,0.02,0.794-0.006,1.188c-0.021,0.337-0.025,0.659-0.151,1.013c-0.147,0.414-0.209,0.973,0.082,1.431
		c0.17,0.27,0.151,0.625,0.052,0.823C41.897,45.455,42.143,46.164,42.067,46.614z M51.174,28.489c0.234,0.35,0.25,0.658,0.027,0.991
		c-0.148,0.222-0.068,0.413,0.048,0.663c0.343,0.739,1.055,1.104,1.457,1.66c0.305,0,0.513,0,0.708,0
		c0.457-0.645,0.666-1.022,0.494-1.304c-0.266-0.436-0.193-0.876-0.189-1.318c0.004-0.78-0.277-1.447-0.691-2.087
		c-0.268,0-0.508,0-0.755,0C51.887,27.541,51.362,27.869,51.174,28.489z M48.084,26.849c0.15,1.009-0.263,2.164,0.283,3.232
		c0.231-0.027,0.363,0.08,0.456,0.198c0.407,0,0.792,0,1.13,0c0.31-0.227,0.358-0.551,0.534-0.831
		c-0.395-0.442-0.252-0.997-0.213-1.502c0.043-0.577-0.339-1.066-0.238-1.632c-0.181-0.18-0.357-0.357-0.535-0.536
		c-0.216,0-0.432,0-0.628,0C48.517,26.035,48.302,26.392,48.084,26.849z M58.708,29.67c-0.142,0.822,0.56,1.157,0.718,1.737
		c0.684-0.154,0.684-0.154,0.751-0.732c-0.337-0.356-0.652-0.69-0.949-1.005C59.055,29.67,58.916,29.67,58.708,29.67z M55.55,35.496
		c0.114-0.166,0.374-0.241,0.367-0.278c-0.487-0.488-0.835-0.835-1.209-1.209c-0.158,0.065-0.37,0.178-0.35,0.491
		C54.86,34.707,55.167,35.145,55.55,35.496z M43.771,31.059c0.225,0.414,0.225,0.414,0.861,0.766c0.177,0.028,0.222-0.2,0.342-0.206
		c0.217-0.011,0.345-0.056,0.301-0.385C44.78,31.261,44.349,30.737,43.771,31.059z M53.553,34.074
		c-0.287-0.615-0.758-0.737-1.283-0.729c0.273,0.287,0.532,0.559,0.814,0.855c0.059,0,0.166,0.004,0.273-0.003
		C53.387,34.196,53.415,34.164,53.553,34.074z M32.004,35.496c-0.616,0.33-0.616,0.33-0.706,0.911
		c0.388-0.183,0.789-0.221,1.012-0.605C32.207,35.698,32.105,35.597,32.004,35.496z M32.256,31.802
		c0.32-0.325,0.576-0.585,0.838-0.852c-0.472,0.12-0.886,0.35-1.188,0.789C32.054,31.885,32.24,31.799,32.256,31.802z
		 M45.262,34.692c0.304,0.572,0.304,0.572,0.925,0.474C46.074,34.714,45.81,34.548,45.262,34.692z M46.859,32.049
		c0.146-0.023,0.263,0.036,0.342-0.091c0.063-0.127,0.046-0.249-0.06-0.336C46.823,31.561,46.747,31.697,46.859,32.049z
		 M59.652,33.55c-0.157,0.146-0.157,0.29,0,0.437C59.809,33.84,59.809,33.696,59.652,33.55z"/>
	<path style="fill-rule:evenodd;clip-rule:evenodd;" d="M36.936,28.549c-0.141-0.143-0.317-0.321-0.5-0.506c0-0.277,0-0.563,0-0.854
		c0.235-0.245,0.441-0.538,0.831-0.612c0.116-0.337,0.234-0.683,0.354-1.033c0.269-0.218,0.542-0.388,0.91-0.425
		c0.378-0.039,0.653-0.319,0.694-0.676c0.071-0.619,0.495-0.97,0.88-1.366c-0.021-1.204,0.185-2.449-0.658-3.479
		c0.146-0.414,0.317-0.783,0.657-1.05c0-1.005-0.048-2.014,0.016-3.015c0.05-0.804-0.182-1.482-0.603-2.117
		c0.17-0.742,0.608-1.407,0.593-2.234c0.163-0.146,0.35-0.313,0.571-0.512c0.451-0.074,0.896,0.044,1.263,0.423
		c0.319,0.331,0.546,0.696,0.539,1.18c-0.005,0.342,0.229,0.623,0.241,0.987c0.01,0.301,0.27,0.595,0.389,0.832
		c-0.304,1.407-0.372,2.755,0.093,4.062c0.116,0.325,0.23,0.673,0.055,0.867c-0.396,0.437-0.039,0.821,0.125,1.022
		c0.355,0.433,0.521,0.95,0.819,1.36c0.022,0.256,0.002,0.462-0.198,0.586c-0.106,0.693,0.056,1.376-0.195,2.085
		c-0.241,0.682,0.136,1.419,0.286,2.12c0.171,0.8,0.207,1.569-0.179,2.398c-1.16,0.315-2.413,0.272-3.557,0.462
		c-0.464-0.242-0.85-0.443-1.315-0.687C38.398,28.217,37.72,28.768,36.936,28.549z"/>
	<path style="fill-rule:evenodd;clip-rule:evenodd;" d="M31.798,28.352c-0.261,0-0.543,0-0.917,0
		c-0.098-0.143-0.241-0.349-0.507-0.735c0.037,0.185,0.011,0.119,0.012,0.053c0.019-0.901-0.007-1.785-0.394-2.64
		c-0.135-0.298-0.175-0.803-0.009-1.038c0.305-0.432,0.009-0.989,0.45-1.335c0.239-0.177,0.535-0.262,0.647-0.681
		c0.158-0.582,0.635-0.941,1.2-1.171c1.08-0.439,1.764-1.313,2.393-2.236c0.54-0.792,0.683-1.667,0.707-2.627
		c0.025-1.019,0.445-1.922,1.485-2.371c0.091-0.039,0.183-0.091,0.28-0.103c0.141-0.018,0.286-0.004,0.423-0.004
		c0.532,0.208,0.508,0.784,0.775,1.165c0.051,0.074,0.062,0.219,0.026,0.306c-0.433,1.062-0.104,2.171-0.213,3.252
		c-0.023,0.235,0.043,0.458-0.109,0.711c-0.218,0.364-0.176,0.827-0.028,1.215c0.291,0.765,0.104,1.544,0.119,2.312
		c0.006,0.34-0.214,0.692-0.36,1.026c-0.134,0.304-0.333,0.608-0.421,0.9c-0.164,0.546-0.302,0.988-0.978,1.004
		c-0.109,0.003-0.208,0.173-0.322,0.252c-0.248,0.172-0.503,0.4-0.809,0.37c-0.386-0.04-0.656,0.17-0.951,0.32
		c-0.633,0.321-1.125,0.858-1.788,1.146C32.143,27.604,32.137,28.103,31.798,28.352z"/>
	<path style="fill-rule:evenodd;clip-rule:evenodd;" d="M19.177,41.954c-0.203-0.334-0.344-0.566-0.493-0.813
		c-0.508,0-1.004,0-1.589,0c-0.415,0.321-0.694,0.766-0.776,1.407c-0.058,0.442-0.367,0.851-0.622,1.4
		c0,0.209-0.003,0.567,0.001,0.925c0.003,0.345-0.07,0.707,0.226,0.965c-0.304,0.712-0.449,1.487-1.248,1.95
		c-0.256,0.041-0.604,0.102-0.859-0.241c-0.041-0.654-0.041-0.654,0.303-1.271c-0.329-1.113-0.045-2.212-0.181-3.374
		c-0.063-0.066-0.182-0.19-0.314-0.332c-0.431,0.158-0.608,0.543-0.951,0.785c0,0.629-0.02,1.272,0.006,1.915
		c0.022,0.548-0.087,1.029-0.527,1.437c-0.216,0-0.457,0-0.69,0c-0.161-0.162-0.313-0.314-0.521-0.521
		c0.113-1.312-0.243-2.694,0.303-4.166c0.68-0.896,1.719-1.358,2.958-1.593c0.546-0.104,1.14-0.127,1.666-0.389
		c0.475-0.238,0.978-0.424,1.449-0.669c0.15-0.078,0.252-0.214,0.458-0.206c0.762,0.028,1.474-0.211,2.2-0.41
		c0.432-0.118,0.897-0.029,1.26,0.238c0.102,0.204,0.192,0.382,0.29,0.576c-0.009,0.045-0.006,0.12-0.037,0.178
		c-0.224,0.424-0.432,0.859-0.387,1.349c0.101,1.079-0.29,2.006-0.823,2.918c0.184,0.358,0.377,0.735,0.602,1.174
		c0,0.427,0,0.931,0,1.434c-0.202,0.2-0.371,0.473-0.853,0.212c-0.169-0.222-0.6-0.438-0.726-0.921
		c-0.219-0.833-0.448-1.664-0.354-2.541C19.392,42.946,19.019,42.407,19.177,41.954z"/>
	<path style="fill-rule:evenodd;clip-rule:evenodd;" d="M25.463,47.962c-0.372,0.075-0.669,0.03-0.859,0.283
		c-0.271-0.048-0.462-0.357-0.79-0.213c-0.396-0.406-0.794-0.815-1.202-1.235c0-0.261,0-0.547,0-0.826
		c0.71-1.188,0.8-1.983,0.46-3.436c-0.079-0.34-0.159-0.791-0.001-1.048c0.255-0.417,0.124-0.819,0.187-1.223
		c0.052-0.332-0.115-0.681,0.188-1.012c0.107-0.116,0.122-0.521-0.115-0.782c-0.352-0.39-0.326-0.888-0.276-1.31
		c0.451-0.749,0.648-1.597,1.428-2.091c0.236,0,0.521,0,0.843,0c0.147,0.164,0.314,0.349,0.523,0.58
		c0,0.074-0.013,0.217,0.002,0.355c0.072,0.617-0.158,1.252,0.194,1.861c0.124,0.216,0.116,0.611,0.002,0.843
		c-0.385,0.786-0.144,1.601-0.188,2.397c-0.046,0.824-0.114,1.67,0.025,2.472c0.097,0.563,0.147,0.993-0.184,1.495
		c-0.203,0.31-0.197,0.83-0.016,1.126C26.104,46.889,25.705,47.368,25.463,47.962z"/>
	<path style="fill-rule:evenodd;clip-rule:evenodd;" d="M28.909,61.266c0.521-0.266,1.251-0.322,1.41-0.809
		c0.332-1.016,1.503-1.712,1.029-3.173c-0.049-0.094-0.205-0.388-0.36-0.682c0.455-1.074,0.896-2.112,1.371-3.229
		c-0.286-0.238-0.451-0.612-0.683-0.959c0.118-0.345,0.239-0.697,0.538-0.919c0.373-0.181,0.578,0.252,0.901,0.202
		c0.591-0.118,0.957-0.623,1.593-0.863c0.17,0,0.457,0,0.794,0c0.129,0.322,0.05,0.668,0.053,1.031
		c-0.539,0.266-0.941,0.621-1.098,1.242c-0.088,0.35-0.609,0.308-0.837,0.66c0.047,0.924-0.069,1.868-0.581,2.719
		c-0.124,0.206-0.057,0.416-0.06,0.621c-0.012,0.824-0.005,1.65-0.005,2.475c-0.563,0.448-0.628,1.2-1.072,1.715
		c-0.434,0.503-1.216,0.531-1.543,1.143c-0.798,0.051-0.798,0.051-1.451-0.208C28.909,61.938,28.909,61.622,28.909,61.266z"/>
	<path style="fill-rule:evenodd;clip-rule:evenodd;" d="M22.667,55.599c0.42-0.493,1.096-0.519,1.646-0.61
		c0.647-0.107,1.019-0.524,1.53-0.758c-0.065-0.186-0.322-0.248-0.187-0.467c-0.347-0.18-0.673-0.347-1.075-0.554
		c-0.574,0.174-1.092-0.23-1.655-0.461c-0.216-0.093,0.048-0.48-0.422-0.441c0.204-0.171,0.312-0.26,0.449-0.373
		c0.58-0.059,1.132,0.022,1.724,0.369c0.557,0.326,1.229,0.604,1.917,0.462c0.232,0.231,0.436,0.436,0.653,0.652
		c0.559-0.127,1.017,0.369,1.605,0.198c0.012,0.228,0.019,0.365,0.028,0.558c-0.641,0.6-1.189,1.346-2.011,1.842
		c-0.245,0-0.492,0.021-0.734-0.004c-0.636-0.063-1.234,0.074-1.801,0.34c-0.273,0.126-0.586,0.188-0.791,0.032
		c-0.433-0.33-0.785-0.144-1.144,0.068c-0.58,0.34-1.182,0.544-1.875,0.394c-0.088-0.088-0.19-0.188-0.252-0.25
		c-0.299-0.944,0.576-0.787,0.942-0.972C21.955,55.246,22.055,55.321,22.667,55.599z"/>
	<path style="fill-rule:evenodd;clip-rule:evenodd;" d="M13.005,50.157c0.345,0.034,0.583-0.015,0.668,0.078
		c0.583,0.633,1.382,0.674,2.139,0.801c0.291,0.048,0.423,0.191,0.53,0.406c0.086,0.406-0.38,0.716-0.202,1.097
		c0.15,0.325,0.255,0.634,0.186,1.014c-0.156,0.153-0.335,0.328-0.539,0.526C14.459,53.131,13.374,52.006,13.005,50.157z"/>
	<path style="fill-rule:evenodd;clip-rule:evenodd;" d="M42.496,55.535c-0.107,0.738-0.446,1.274-0.452,1.9
		c0.64,0.265,1.242,0.573,1.61,1.355c-1.131-0.068-2.119,0.396-3.169,0.235c-0.376,0.24-0.741,0.475-1.106,0.708
		c-0.065-0.104-0.103-0.159-0.137-0.213c-0.021-0.12,0.031-0.205,0.117-0.277c0.785-0.651,1.326-1.475,1.756-2.393
		C41.423,56.189,41.566,56.091,42.496,55.535z"/>
	<path style="fill-rule:evenodd;clip-rule:evenodd;" d="M51.23,54.517c-0.104-0.249-0.38-0.174-0.514-0.308c0-0.183,0-0.352,0-0.505
		c0.461-0.229,0.819,0.066,1.208,0.189c1.474-0.832,3.038-1.29,4.685-1.35c0.209,0.172,0.09,0.365,0.129,0.531
		c-0.337,0.402-0.7,0.771-1.315,0.997c-0.193,0-0.517,0.02-0.836-0.005c-0.701-0.053-1.351,0.148-1.996,0.371
		C52.139,54.595,51.677,54.446,51.23,54.517z"/>
	<path style="fill-rule:evenodd;clip-rule:evenodd;" d="M51.501,49.046c0.083-0.323,0.344-0.59,0.294-0.945
		c0.24-0.162,0.497-0.014,0.708-0.093c0.208,0.158,0.096,0.354,0.132,0.529c-0.342,0.552-1.184,0.622-1.285,1.399
		c-0.437,0-0.823,0-1.171,0c-0.166,0.165-0.292,0.293-0.425,0.424c-1.646,0.198-3.198-0.113-4.728-0.96
		c0.604-0.092,1.125-0.512,1.688-0.244c0.393,0.187,0.821,0.249,1.2,0.499c0.838,0.553,1.671,0.353,2.486-0.143
		C50.738,49.309,51.132,49.199,51.501,49.046z"/>
	<path style="fill-rule:evenodd;clip-rule:evenodd;" d="M45.923,54.834c-0.227-0.163-0.454-0.327-0.723-0.521
		c0.492-0.569,1.093-0.438,1.604-0.458c0.277,0.294,0.53,0.563,0.827,0.876C47.002,54.586,46.469,55.111,45.923,54.834z"/>
	<path style="fill-rule:evenodd;clip-rule:evenodd;" d="M43.234,54.51c0.306,0,0.592,0,0.872,0c0.188,0.188,0.149,0.654-0.112,0.725
		c-0.408,0.11-0.769,0.455-1.313,0.301C42.765,55.156,42.891,54.828,43.234,54.51z"/>
	<path style="fill-rule:evenodd;clip-rule:evenodd;" d="M20.1,52.128c-0.208-0.297-0.529-0.404-0.526-0.747
		c0.285-0.25,0.624-0.017,0.95-0.172c0.191,0.214,0.371,0.415,0.547,0.613c-0.1,0.104-0.2,0.206-0.295,0.306
		C20.553,52.128,20.339,52.128,20.1,52.128z"/>
	<path style="fill-rule:evenodd;clip-rule:evenodd;" d="M37.125,50.987c-0.118-0.302-0.049-0.545,0.266-0.771
		c0.171-0.1,0.421-0.005,0.664-0.034c0.209,0.205,0.088,0.465,0.098,0.698c0.007,0.194-0.174,0.179-0.313,0.165
		C37.6,51.025,37.351,51.112,37.125,50.987z"/>
	<path style="fill-rule:evenodd;clip-rule:evenodd;" d="M30.604,53.617c-0.169,0-0.379,0-0.621,0c0-0.189,0-0.358,0-0.54
		c0.188-0.095,0.396-0.2,0.59-0.299c0.195-0.031,0.237,0.16,0.361,0.209c0.092,0.035,0.217-0.032,0.315,0.136
		C31.07,53.26,30.878,53.407,30.604,53.617z"/>
	<path style="fill-rule:evenodd;clip-rule:evenodd;" d="M43.146,49.493c-0.092-0.336,0.173-0.409,0.263-0.587
		c0.252,0,0.49,0,0.714,0c0.136,0.173,0.381,0.262,0.267,0.601C43.986,49.55,43.556,49.568,43.146,49.493z"/>
	<path style="fill-rule:evenodd;clip-rule:evenodd;" d="M45.769,59.259c0.592-0.035,0.979,0.249,1.335,0.628
		c-0.219,0.31-0.413,0.205-0.618,0.241C46.275,59.872,46.049,59.599,45.769,59.259z"/>
	<path style="fill-rule:evenodd;clip-rule:evenodd;" d="M42.197,50.581c-0.29,0-0.528,0-0.74,0c-0.163-0.3,0.077-0.397,0.227-0.578
		c0.236,0,0.497,0,0.74,0C42.586,50.302,42.346,50.4,42.197,50.581z"/>
	<path style="fill-rule:evenodd;clip-rule:evenodd;" d="M17.706,51.065c0.246,0,0.482,0,0.713,0c0.106,0.183,0.413,0.231,0.25,0.571
		c-0.194,0.14-0.468,0.042-0.729,0.039C17.83,51.5,17.539,51.441,17.706,51.065z"/>
	<path style="fill-rule:evenodd;clip-rule:evenodd;" d="M55.008,47.266c0,0.073,0,0.144,0,0.213
		c-0.097,0.131-0.219,0.143-0.349,0.084c-0.13-0.074-0.069-0.191-0.086-0.291C54.718,47.107,54.862,47.111,55.008,47.266z"/>
	<path style="fill-rule:evenodd;clip-rule:evenodd;fill:none;" d="M51.174,28.489c0.188-0.621,0.713-0.949,1.099-1.395
		c0.247,0,0.487,0,0.755,0c0.414,0.64,0.695,1.308,0.691,2.087c-0.004,0.441-0.076,0.882,0.189,1.318
		c0.172,0.282-0.037,0.659-0.494,1.304c-0.195,0-0.403,0-0.708,0c-0.402-0.556-1.114-0.921-1.457-1.66
		c-0.116-0.25-0.196-0.441-0.048-0.663C51.424,29.147,51.409,28.839,51.174,28.489z"/>
	<path style="fill-rule:evenodd;clip-rule:evenodd;fill:none;" d="M48.084,26.849c0.218-0.457,0.433-0.813,0.789-1.072
		c0.196,0,0.412,0,0.628,0c0.178,0.178,0.354,0.356,0.535,0.536c-0.101,0.566,0.281,1.055,0.238,1.632
		c-0.039,0.506-0.182,1.061,0.213,1.502c-0.176,0.28-0.225,0.604-0.534,0.831c-0.338,0-0.723,0-1.13,0
		c-0.093-0.118-0.225-0.225-0.456-0.198C47.822,29.012,48.235,27.857,48.084,26.849z"/>
	<path style="fill-rule:evenodd;clip-rule:evenodd;fill:none;" d="M58.708,29.67c0.208,0,0.348,0,0.52,0
		c0.297,0.315,0.612,0.648,0.949,1.005c-0.067,0.579-0.067,0.579-0.751,0.732C59.267,30.827,58.566,30.492,58.708,29.67z"/>
	<path style="fill-rule:evenodd;clip-rule:evenodd;fill:none;" d="M55.55,35.496c-0.383-0.352-0.69-0.79-1.191-0.997
		c-0.021-0.313,0.191-0.426,0.35-0.491c0.374,0.374,0.722,0.722,1.209,1.209C55.924,35.255,55.665,35.331,55.55,35.496z"/>
	<path style="fill-rule:evenodd;clip-rule:evenodd;fill:none;" d="M43.771,31.059c0.578-0.322,1.009,0.202,1.504,0.175
		c0.044,0.33-0.084,0.374-0.301,0.385c-0.12,0.006-0.165,0.234-0.343,0.205C43.996,31.473,43.996,31.473,43.771,31.059z"/>
	<path style="fill-rule:evenodd;clip-rule:evenodd;fill:none;" d="M53.553,34.074c-0.139,0.09-0.166,0.123-0.195,0.124
		c-0.107,0.007-0.215,0.003-0.273,0.003c-0.282-0.296-0.541-0.568-0.814-0.855C52.795,33.337,53.266,33.458,53.553,34.074z"/>
	<path style="fill-rule:evenodd;clip-rule:evenodd;fill:none;" d="M32.004,35.496c0.101,0.101,0.202,0.202,0.306,0.306
		c-0.223,0.384-0.624,0.422-1.012,0.605C31.389,35.826,31.389,35.826,32.004,35.496z"/>
	<path style="fill-rule:evenodd;clip-rule:evenodd;fill:none;" d="M32.256,31.802c-0.016-0.003-0.202,0.083-0.35-0.063
		c0.302-0.438,0.716-0.669,1.188-0.789C32.832,31.217,32.576,31.477,32.256,31.802z"/>
	<path style="fill-rule:evenodd;clip-rule:evenodd;fill:none;" d="M45.262,34.692c0.548-0.145,0.812,0.021,0.925,0.474
		C45.566,35.264,45.566,35.264,45.262,34.692z"/>
	<path style="fill-rule:evenodd;clip-rule:evenodd;fill:none;" d="M46.859,32.049c-0.112-0.352-0.036-0.488,0.282-0.427
		c0.105,0.087,0.123,0.209,0.06,0.336C47.122,32.084,47.005,32.026,46.859,32.049z"/>
	<path style="fill-rule:evenodd;clip-rule:evenodd;fill:none;" d="M59.652,33.55c0.157,0.146,0.157,0.29,0,0.437
		C59.495,33.84,59.495,33.696,59.652,33.55z"/>
</g>
</svg>
