<svg xmlns="http://www.w3.org/2000/svg" xml:space="preserve" width="72px" height="72px" viewBox="0 0 72 72">
    <g fill="currentColor">
        <path d="M22.359 29.021c.258-.042.371-.212.493-.458-.256-.859-.87-1.681-.661-2.676-.247-.208-.51-.111-.746-.103-.571.021-1.071-.09-1.563-.419a1.53 1.53 0 0 0-.977-.249c-.5.046-1.007-.002-1.51.015-.564.02-1.053-.188-1.568-.386-.599-.229-.886-.671-.974-1.209-.094-.581.251-.927.759-1.299.881-.648 1.864-1.09 2.801-1.616.216-.123.368-.305.743-.436h1.728c.276-.209.628-.219.852-.64.015-.05-.194-.06-.232-.172-.677-.254-1.297.004-1.895.242-.404.16-.732.226-1.068-.185v-.885c.297-.656.734-1.142 1.517-1.199.287-.021.334-.478.686-.427 1.057-1.042 2.365-1.691 3.803-2.365-.028.001.076-.003.18-.011a9.5 9.5 0 0 1 4.728.838c.7.315 1.503.403 2.304.052.282-.124.616-.399.976-.235.321.148.754.097.967.246.39.273.762.083 1.086.209 1.056.338 1.05 1.174.984 2.05-.358.24-.451.656-.762 1.099.654.018 1.166.18 1.691.27 1.034.177 1.944.532 2.542 1.633.347.64.764 1.229 1.298 1.72-.041.269-.011.505.21.675.055.273-.17.477-.277.637-.206.311-.466.596-.578.955-.158.501-.613.688-.992.848-1.415.601-2.178 1.723-2.621 3.105-.125.392-.065.843-.093 1.314-.417.652-1.097 1.057-1.903 1.433-.333 0-.767.036-1.194-.008-.684-.07-1.315.065-1.866.45-.358.25-.729.185-1 .203-.744-.085-.847-.746-1.253-1.076-.376-.061-.688.124-.947.323a2.5 2.5 0 0 1-1.615.541c-.504-.004-1.008-.001-1.512 0-.45 0-.875.052-1.321.194-.896.287-1.834.435-2.746.678-.442.118-.951.127-1.246.538-.06.542.624 1.075-.157 1.617-.769-.036-1.62-.045-2.495-.18-1.055-.164-2.153-.039-3.28-.039-.864-.662-1.931-1.148-2.462-2.262-.22-.904.157-1.6.848-2.188.67-.57 1.159-1.343 1.973-1.756.361-.183.355-.734.828-.827.699-.137 1.313-.475 1.922-.832.456-.267.993-.204 1.438-.072.661.196 1.301.383 2 .389.485.003.844.202 1.143.687.273.44.467 1.024 1.014 1.249m2.852-4.936h-1.395c-.617.226-.992.742-1.433 1.158.038.2-.07.395.075.502 1.016-.381 2.186-.478 2.753-1.66m6.361 2.555c-.241.284-.666.464-.583.783l.552.704h.729c.018-.301.346-.476.268-.767-.068-.252-.194-.488-.291-.72zm3.193-2.151c-.61.248-1.189.482-1.833.745.16.151-.105.388.132.51l1.22-.632h.888l.46-.332c-.378.049-.494-.346-.867-.291m-7.916-.713.765.916q.496-.203.39-.759c-.405-.113-.793-.651-1.155-.157m12.91 13.416c-.581-.499-1.609-.287-1.614-1.271l1.288-1.287v-.744c-.334-.566-1.309-.363-1.288-1.254.199-.229.362-.498.687-.598.286-.087.409-.365.613-.542-.146-.333-.543-.48-.756-.499-.725-.063-1.017-.619-1.377-1.059-.397-.483-.348-1.113.125-1.577.471-.462.848-1.019 1.486-1.339.425-.212.716-.692 1.02-1.004.938-.106 1.831.119 2.817-.198.268.194.704.238 1.158.137.323-.375-.177-.623-.148-.961.029-.355.006-.715.006-.991l.817-.817c.232.041.433-.079.64-.218.767-.515 1.622-.683 2.536-.655.791.023 1.583.004 2.343.004.809.436 1.441 1.037 1.835 1.825.199.399.587.706.662 1.122.095.523.023 1.076.023 1.644.456.803 1.653.84 2.004 1.837.382.316.876.274 1.331.266.283.197.407.433.333.754-.052.036-.105.106-.161.107-.647.008-1.296.015-1.943 0-.27-.005-.52.021-.802-.159-.269-.172-.694-.142-.98.301.435.049.784.25 1.206.323.406.07.828.198 1.196.502.459.38 1.01.664 1.554.923.493.236.811.576 1.063 1.06.358.687.961 1.228 1.265 2.016-.297.449-.457 1.003-.885 1.432-.649.652-1.419.933-2.311.948-.539.011-1.08-.012-1.618.009a.62.62 0 0 1-.533-.248c-.494.21-.901.596-1.52.419-.446-.498-.968-.95-1.732-1.14-.315-.078-.713-.205-.899-.09-.716.44-1.317-.043-1.952-.149-.198-.033-.409-.146-.585-.052-.687.367-1.331.194-1.974-.103-.754-.349-1.608-.469-2.33-1-.609-.097-1.192-.001-1.635.575.146.283.286.55.422.811.682.235 1.477.306 1.577 1.244-.591.753-1.468.812-2.238 1.129-.276-.542-.5-.987-.726-1.433m4.061-7.005c-1.187.253-1.878 1.323-2.865 1.925.05.38-.065.705.117 1.048l1.151.592.687-.585c-.051-.52.16-.964.549-1.354.377-.381.834-.445 1.334-.423.381.017.765.003 1.293.003-.748-.611-1.383-1.042-2.266-1.206m5.959.202c.499-.201 1.021.181 1.386-.586-.5.201-1.022-.181-1.386.586m-4.471-3.912c-.359.097-.497-.442-.851-.207.156.57.159.567.795.514z"/>
        <path d="M47.241 46.503h.762c.373-.414.919-.749 1.102-1.337.28-.902.943-1.398 1.746-1.714.698-.274 1.357-.802 2.28-.549-.19.158-.302.318-.447.357a1.02 1.02 0 0 0-.685.604c-.44 1.104-1.155 2.043-1.742 3.032-.024.25.199.302.305.474 1.479-.125 2.61.727 3.774 1.331.094.372-.291.478-.218.753-.315.109-.573.397-.957.302-.2.218-.051.481-.102.733.474.628 1.513.8 1.518 1.894-.104.247-.359.426-.588.617-.97-.365-1.777-.979-2.669-1.439-.535-.276-1.149-.351-1.657-.709-.126-.09-.363-.142-.407-.28-.211-.664-.841-.88-1.29-1.289-.208-.188-.484-.243-.637-.575-.194-.429-.661-.703-1.115-.896-.508-.213-.952-.423-1.211-1.002-.188-.419-.644-.723-1.28-.739-.251.231-.661.403-.595.929.442.701 1.13.964 1.887 1.06.292.342.533.672.484 1.192-.951.329-1.85.787-1.983 1.462-.396 1.403.17 2.305.041 3.192.451.712.614 1.538 1.294 1.98v1.111c-.25.093-.14.39-.311.523-.102-.002-.195.024-.296-.058-.362-.296-.521-.76-.647-1.137-.287-.854-.639-1.62-1.241-2.305-.271-.307-.504-.786-.489-1.178.023-.647-.318-1.231-.235-1.854.059-.448-.349-.766-.234-1.21.101-.391-.295-.683-.227-1.099.061-.368-.08-.737-.159-1.105-.091-.418-.401-.563-.556-.842-.585-.062-.826.261-1.01.736-.144.372-.384.707-.598 1.048-.093.15-.228.274-.269.321-.467.185-.68-.174-1.005-.197l-.449-1.198c-.001-.138.412-.262.146-.498.378-.762 1.438-.853 1.544-1.847-.131-.843-.803-1.222-1.576-1.516-.535-1.073-1.13-2.117-1.484-3.263-1.391-.676-2.783-1.322-4.139-2.035-.345-.182-.701-.473-.806-.93-.024-.104-.866-.927-.959-.989-.133.149-.35.229-.335.494.019.323.026.65-.003.971-.023.266-.338.461-.189.813-1.555 1.26-2.59 2.895-3.278 4.716.23.939 1.053 1.35 1.457 1.902.25.45-.13.612-.153.897-.073.919.192 1.705.833 2.357.415.422.723.901.971 1.519l-.83.577h-.427c-1.047-1.053-2.274-3.114-2.064-4.656-.285-.171-.174-.629-.664-.734-.629.302-.637.952-.616 1.598.633.735.507 1.615.36 2.412-.084.458-.243.82.033 1.264.115.185.081.478-.023.74h-1.119c-.801-.259-1.078-.892-.966-1.771.639-1.124.602-1.35-.426-2.394v-1.116l1.266-1.778c.188-.636-.407-1.313-.143-2.176 1.581-1.057 2.763-2.672 4.029-4.188v-.903c-.218-.186-.405-.409-.695-.573-.599-.338-1.241-.621-1.633-1.293-.2-.343-.264-.622-.224-1.06.301 0 .62-.038.927.008.785.117 1.515-.247 2.288-.228.756.018 1.54.129 2.259-.033.666-.15 1.312-.142 1.97-.184.846-.053 1.619.258 2.389.501.67.211 1.12.767 1.372 1.453-.083.301-.345.37-.592.497-.208.107-.355.334-.54.519.112.822.889.951 1.36 1.328.451.359 1.079.498 1.648.741.078.291.354.54.292.931-.054.349-.012.714-.012 1 1.064 1.39 1.837 2.984 3.795 3.619H43.6c.798.427 1.527.857 2.433.877.484.427.975.876 1.208 1.492"/>
        <path d="M25.447 51.313c.574-.182.997.089 1.479.45-.015.57.123 1.19-.367 1.705-.397.418-.854.694-1.504.581-.382-.966.434-1.788.392-2.736m13.262-.481h-.441c-.214-.108.021-.479-.309-.473.104-.217.188-.393.275-.571.354-.133.601.019.814.354zm7.443-.82c.026-.162-.073-.352.11-.476.269-.074.341.189.522.281v.706c-.098.098-.098.098-.632-.511"/>
    </g>
</svg>
