<svg xmlns="http://www.w3.org/2000/svg" xml:space="preserve" width="72px" height="72px" viewBox="0 0 72 72">
    <path fill="currentColor" d="M11.162 45.616c.131-.866-.399-1.666-.682-2.525-.061-.184-.197-.35-.185-.569.04-.698-.111-1.358-.397-1.994a.66.66 0 0 1-.031-.31c.066-.917-.161-1.82-.276-2.709-.114-.879-.113-1.745-.154-2.617-.023-.503-.004-1.007-.004-1.511.485-.333.137-.899.38-1.359.245-.465.158-1.142.229-1.723.107-.894.285-1.755.722-2.513.151-.263.074-.546.263-.761.289-.328.024-.804.337-1.162.257-.294.378-.685.479-1.096.109-.444.464-.836.754-1.05.213-.594.275-1.08.625-1.511.374-.461.576-1.054.896-1.572.271-.437.79-.697.877-1.248.953-1.003 1.759-2.148 2.83-3.033 1.315-1.087 2.527-2.302 3.931-3.279.546-.38 1.177-.636 1.748-.983.431-.263.877-.56 1.313-.742.979-.41 1.866-1.073 2.959-1.19.124-.013.18-.09.267-.143.802-.486 1.704-.632 2.614-.718.37-.035.641-.206.94-.439 1.918.089 3.85-.386 5.807-.22.179.015.368.039.537-.004.513-.131.936.216 1.424.234.439.016.863-.02 1.331.157.536.202 1.206.047 1.808.047l1.668.863h1.14c.823.382 1.58.729 2.333 1.082.634.296 1.249.637 1.898.89.639.248.916.955 1.572 1.155.65.85 1.652 1.229 2.499 1.803.543.368.959.88 1.549 1.189.324.17.559.493.899.692.346.202.561.59.794.945.485.739.924 1.508 1.489 2.201.55.675.902 1.506 1.429 2.204.701.929.906 2.077 1.474 3.065.564.981.844 2.095 1.254 3.149.115.297-.104.653.211.883.08 1.095.604 2.099.535 3.247-.066 1.113.242 2.228.219 3.363-.009.409.381.905.106 1.273-.305.409.085.912-.332 1.29-.144.129-.058.556-.017.837.126.855-.313 1.654-.223 2.502-.566 1.14-.524 2.479-1.269 3.583-.436.646-.643 1.458-.88 2.218-.213.683-.532 1.294-.908 1.894-.32.511-.676.998-.937 1.553-.339.722-.923 1.287-1.444 1.881s-1.126 1.113-1.666 1.691c-.456.488-1.047.797-1.542 1.219-1.1.937-2.348 1.66-3.479 2.54a11 11 0 0 1-1.798 1.146c-.368.185-.715.35-1.117.44-.554.127-.979.551-1.549.69-.938.23-1.835.597-2.726.974-.317.134-.683.076-1.019.12-.916.122-1.77.471-2.689.599-1.131.156-2.247.134-3.371.17-.378.013-.695.383-1.096.213-.708-.3-1.499-.04-2.165-.257s-1.364-.314-2.029-.561c-.568-.21-1.275-.043-1.825-.043-.648-.35-1.222-.653-1.884-.638-.384.009-.628-.234-.93-.372-1.451-.667-2.923-1.295-4.337-2.033-.808-.421-1.521-1.023-2.269-1.558-.063-.045-.056-.188-.073-.253-.648-.431-1.463-.591-1.811-1.389-.045-.104-.175-.189-.32-.251-.393-.164-.645-.497-.882-.85-.287-.426-.496-.918-.914-1.24-.707-.547-1.15-1.324-1.563-2.059-.451-.803-1.047-1.494-1.492-2.292-.342-.612-.925-1.096-.993-1.855-.424-.328-.533-.863-.862-1.37m43.017-13.802-1.014 1.023h-2.73l-1.23.634c-.572-.168-1.162.405-1.847.198-.516.584-1.198 1.008-1.449 1.875.381-.009.104.415.347.518.19.046.359-.036.531.094.461.35.917.722 1.426.988 1.157.606 2.211 1.533 3.509 1.314.559-.262.968-.503 1.408-.65 1.045-.35 2.065-.745 3.042-1.264.406-.216.867-.417 1.316-.452.885-.07 1.779-.021 2.549-.021.361.228.406.46.364.755-.544.664-1.31.937-2.15.959-.527.014-.929.203-1.289.537-.106.68.432 1.283.154 2.013l-.505.505c-2.061-.391-4.118-.364-6.259.283.404.437.362.888.316 1.335l-.302.309h-1.137c-.074-.405-.521-.37-.781-.604-.603-.543-1.123-1.157-1.42-1.9-.495-1.24-1.53-1.627-2.688-1.802-.719-.108-1.453.043-2.184-.208-.603-.207-1.225.121-1.806.3-.474.146-1.119.342-1.24.827-.182.724-.71 1.22-.957 1.872.608.834-.149 1.383-.434 2.277-.023.21.023.635.211 1.069.208.482-.313.914-.205 1.417.015.068-.028.166.007.212.381.504.133 1.093.229 1.634.094.102.149.216.21.345.386.813.581 1.696 1.032 2.494.207.367.479.939.231 1.392-.338.621-.099 1.233-.164 1.57.442 1.057 1.355 1.498 1.56 2.45.293.3.595.607.864.884 1.086.065 1.508 1.011 2.218 1.539.606.063 1.114-.249 1.657-.432l.341.243c.324-.3.76-.258 1.125-.445.68-.349 1.311-.811 2.092-.95.186-.033.38-.162.518-.301.725-.727 1.771-1.149 2.097-2.297-.341-.891-1.022-1.349-1.999-1.216-.613-.384-1.15-.74-1.445-1.381-.113-.245-.37-.434-.587-.618-.26-.221-.63-.29-.805-.596-.567 0-1.107.001-1.647-.001-.033 0-.066-.012-.097-.019-.37-.492-.329-.966-.012-1.482.169-.275.421-.552.342-.995l-.635-.53v-.754l.307-.308c1.156-.016 1.156-.016 2.489 1.422-.025.421.218.717.38 1.006.715.353 1.354.734 1.924 1.229.176 0 .368.041.533-.008.643-.189.999-.82 1.72-1.07h.967c.093.147.301.203.322.409-.108.419-.542.725-.434 1.182.524.464 1.054.372 1.63.144.851-.336 1.776-.484 2.386-1.302.31-.416.519-.868.728-1.323.446-.973 1.145-1.817 1.465-2.848.179-.575.383-1.136.594-1.698.175-.466.524-.907.515-1.396-.011-.539.364-.988.248-1.532-.043-.201.078-.383.155-.579.281-.713.454-1.5.189-2.231-.258-.713-.214-1.438-.103-2.097.329-1.942.243-2.977-.68-4.559.105-.927-.434-1.829-.187-2.737a2.5 2.5 0 0 1-.476-.953c-.252-.968-.629-1.9-1.097-2.781-.179-.335-.294-.67-.431-1.012-.21-.524-.507-1.141-.952-1.407-.497-.297-.732-.682-.961-1.13-.426-.833-.774-1.709-1.651-2.222-.287-.168-.496-.466-.634-.808-.07-.176-.074-.42-.29-.527-.849-.425-1.376-1.211-2.042-1.839a8 8 0 0 0-1.934-1.333c-.625-.314-1.272-.601-1.841-1.046-.604-.473-1.291-.944-2.031-1.059-1.046-.161-1.986-.759-3.074-.683-.299-.396-.758-.083-1.089-.237-.604-.282-1.25-.301-1.875-.444-.698-.159-1.381-.169-2.077-.185-.21-.005-.469.042-.619-.06-.436-.298-.97-.259-1.329-.117-.705.279-1.396.09-2.085.192-.262.21-.592.297-.888.445-.508.252-1.045.067-1.524.238-.799.287-1.563.691-2.451.597-.139-.015-.19.156-.259.145-.523-.082-.772.399-1.173.569-.396.168-.834.217-1.206.493-.315.234-.714.422-1.15.289-.764.912-1.653 1.628-2.72 2.086a4.4 4.4 0 0 0-1.5 1.075c-.443.472-.854 1.007-1.383 1.359-1.043.695-1.652 1.767-2.475 2.648-.41.438-.769.972-.99 1.526a16 16 0 0 1-.93 1.993c-.075.132-.032.332-.042.481.286.154.607-.007.802.32.179.301.57.345.88.459 1.295.478 2.112 1.369 2.508 2.694.038.126.001.557.463.487l.403-.824h.917l.708.708c.196 1.018-.577 1.706-.846 2.564.167.19.259.405.216.665.866 1.088 2.147 1.506 3.532 2.092.333.037.936-.193 1.376.081.578.359.963-.291 1.49-.109.48.166 1.004-.054 1.543.193.436.199 1.036.041 1.56.041v-.539c-.379-.402-.694-.919-1.093-1.245-.668-.543-1.417-.992-2.009-1.637-.036-.04-.133-.017-.198-.036-.957-.28-1.567-1.067-2.149-1.745-.707-.822-1.438-1.712-1.686-2.85-.047-.219-.197-.431-.343-.61-.545-.667-.857-1.402-.722-2.225-.19-.279-.304-.549-.502-.721-.667-.579-.948-1.273-.76-2.161.641-.684 1.173.006 1.772.167l.334-.307v-.771c.385-.727.627-1.394 1.283-1.738.452.121.795.4 1.107.77 0 .513-.008 1.051.002 1.589.012.596-.042 1.134-.408 1.675-.318.469-.334 1.042-.105 1.669.164.449.377.966.302 1.501-.005.038.088.09.13.129h.434c.4-1.11 1.371-1.688 2.228-2.352.519-.401 1.069-.752 1.551-1.211a5.7 5.7 0 0 0 1.276-1.792h.995l.722.721v1.066c-.164.229-.355.403-.479.678-.236.525-.583.987-1.177 1.237-.369.155-.761.428-.966.759-.381.615-.948 1.04-1.388 1.583-.402.495-.811 1.002-.974 1.599.442 1.388 1.625 1.679 2.778 2.074l1.252-.645h.88l.507.507c0 .27-.035.561.009.84.048.309-.167.521-.21.778a1.6 1.6 0 0 0 .192 1.101c.252.429.491.879.646 1.35.289.877.907 1.485 1.556 2.219.395-.723.845-1.271 1.296-1.823.486-.595 1.036-1.247.821-2.129-.08-.33.205-.504.214-.606-.339-1.13-1.006-1.907-1.514-2.776-.238-.407-.496-.772-.671-1.237-.306-.814-.079-1.613-.179-2.408.351-.442.214-1.329 1.021-1.259l.718.529c-.105.639.28 1.124.225 1.711-.081.856-.138 1.75.608 2.525l.82.387c.135-.157.294-.242.284-.462-.02-.395-.005-.792-.006-1.188-.004-.899-.009-1.768-.393-2.646-.243-.558-.601-1.161-.471-1.826l-.892-.883c.24-.835-.289-1.626-.205-2.48.021-.208-.333-.424-.189-.658.266-.433.224-.999.626-1.363.263-.239.383-.546.45-.895.057-.292.625-.734.954-.734.025.303.382.117.495.329.175.267.437.596.243.848-.209.271-.182.522-.186.794-.009.753-.003 1.507-.003 2.266.64.384.526 1.393 1.452 1.634.141-.167.281-.38.466-.545 1.126-1.006 2.327-1.845 3.957-1.654.104.012.208.013.312.019.629.111.754.64.941 1.116-.231.375-.372.937-.823.994a1.23 1.23 0 0 0-.992.702c-.447.972-1.334 1.057-2.228 1.324-.329.311-.798.653-.905 1.168-.18.867-.526 1.699-.467 2.626.067 1.076-.011 2.16.029 3.238.015.372-.065.728-.249.977-.383.52-.449 1.07-.415 1.671.014.25.002.502.002.744.22.279.487.489.813.254.29-.21.667-.311.937-.322.919-.037 1.326-.562 1.568-1.332.315.03.458-.168.569-.392.268-.538.36-1.183.689-1.649.436-.619.692-1.305 1.051-1.947.74-1.323 1.36-2.694 2.697-3.644 1.122-.797 2.803-1.471 3.95-1.444.353.008.766.081 1.046-.07.494-.265.978-.093 1.457-.114.121-.005.348.172.539.267-.073.327.183.567.265.927-.352-.008-.168.32-.25.402-.638.439-1.285.348-1.903.309-1.165-.073-2.021.515-2.844 1.159 0 .124-.017.201.003.268.116.408-.267.688-.265 1.09.001.304-.435.287-.655.451-.95.708-.956.699-1.463 2.08a.6.6 0 0 1-.2.239c-.262.208-.3.453-.142.782.304-.018.677.067.919-.074.757-.44 1.658-.527 2.38-1.044.446-.319.915-.57 1.172-1.119.149-.321.423-.681.826-.495l.854.675c.181 1.066-.405 2.006-.145 2.971m-36.58 19.092c.236.241.232.588.336.938.577.335 1.245.584 1.65 1.224v.411c.312.215.481.609.878.736.482.155.823.498 1.16.851.148.155.282.367.467.436 1.143.42 1.927 1.381 2.977 1.938.147.078.224.269.445.235.427-.063.811.149 1.162.315.359.171.789.22 1.004.065.381-.271.763-.064 1.116-.197.952-.521 1.509-1.332 1.816-2.362.19-.638.334-1.313.873-1.839-.263-1.267.496-1.982 1.48-2.524.048-.376-.104-.757.275-.978-.198-.283-.324-.523-.282-.776-.431-.742-1.472-.859-1.603-1.451.178-1.799.712-3.164 1.407-4.503 0-.293-.124-.697.025-.924.336-.514-.014-1.105.221-1.53.294-.531.086-1.041.21-1.569-.912-.642-1.417-1.622-1.986-2.437-1.238-.179-2.327.292-3.469.203-1.073-.084-2.073.288-3.021.771-.625.318-1.229.681-1.861.984-.622.3-1.108.766-1.333 1.377-.419 1.143-1.119 2.05-2.007 2.844-.103.092-.161.235-.176.258h-1.117c-.468-.458-.434-.96-.3-1.432.279-.297.788-.2.959-.637l-.235-.234c-.509-.189-.959.015-1.417.201-.909-.545-1.912-.949-2.22-2.079.396-.417.887-.742 1.328-.527.811.396 1.43-.001 2.124-.238.938-.32 1.607-1.028 2.345-1.619.305-.244.826-.273.916-.77-.171-.529-.736-.605-1.069-.947-.754-.773-1.506-1.549-2.299-2.282-.246-.228-.466-.547-.484-.766-.041-.512-.304-.913-.521-1.306-.374-.678-.529-1.384-.599-2.131a3 3 0 0 0-.118-.596c-.358-1.191-.968-2.196-1.949-2.967-.436.463-.855.94-1.203 1.527-.707 1.192-.828 2.543-1.233 3.812-.079.247-.249.485-.248.764.001.54-.023 1.081.007 1.62.031.565-.332 1.057-.236 1.641.069.42-.01.863.021 1.293.026.371-.057.725.169 1.121.186.325.038.842.038 1.273.272.795 1.023 1.494.448 2.459-.087.146-.052.457.05.609.282.422.35.978.813 1.256v1.31c.312.267.303.692.548.978.826.965 1.899 1.622 2.913 2.354.109.079.231.211.342.206.598-.027 1.133.285 1.748.251.697-.039 1.352-.192 2.019-.357.56-.139 1.142-.493 1.697-.286.528.197 1.108.198 1.615.552.323.226.779.372 1.172.537.648.272 1.361.357 1.936.676.186.604-.247.748-.599.904v.774l1.48 1.48v.805c-.484.168-.885.473-1.447.097-.61-.408-1.287-.76-1.675-1.371-.272-.429-.625-.749-.946-1.112-.19-.216-.489-.374-.592-.62-.263-.625-.764-.949-1.318-1.238-.144 0-.291.019-.432-.003-.886-.131-1.52.262-2.136.867-.48.472-.745 1.108-1.289 1.495-.23.104-.501-.105-.77.16"/>
</svg>
