<?xml version="1.0" encoding="iso-8859-1"?>
<!-- Generator: Adobe Illustrator 16.0.0, SVG Export Plug-In . SVG Version: 6.00 Build 0)  -->
<!DOCTYPE svg PUBLIC "-//W3C//DTD SVG 1.1//EN" "http://www.w3.org/Graphics/SVG/1.1/DTD/svg11.dtd">
<svg version="1.1" id="Layer_1" xmlns="http://www.w3.org/2000/svg" xmlns:xlink="http://www.w3.org/1999/xlink" x="0px" y="0px"
	 width="72.36px" height="71.459px" viewBox="0 0 72.36 71.459" style="enable-background:new 0 0 72.36 71.459;"
	 xml:space="preserve">
<g>
	
	<path fill="currentColor" d="M11.162,45.616c0.131-0.866-0.399-1.666-0.682-2.525
		c-0.061-0.184-0.197-0.35-0.185-0.569c0.04-0.698-0.111-1.358-0.397-1.994c-0.041-0.09-0.039-0.207-0.031-0.31
		c0.066-0.917-0.161-1.82-0.276-2.709c-0.114-0.879-0.113-1.745-0.154-2.617c-0.023-0.503-0.004-1.007-0.004-1.511
		c0.485-0.333,0.137-0.899,0.38-1.359c0.245-0.465,0.158-1.142,0.229-1.723c0.107-0.894,0.285-1.755,0.722-2.513
		c0.151-0.263,0.074-0.546,0.263-0.761c0.289-0.328,0.024-0.804,0.337-1.162c0.257-0.294,0.378-0.685,0.479-1.096
		c0.109-0.444,0.464-0.836,0.754-1.05c0.213-0.594,0.275-1.08,0.625-1.511c0.374-0.461,0.576-1.054,0.896-1.572
		c0.271-0.437,0.79-0.697,0.877-1.248c0.953-1.003,1.759-2.148,2.83-3.033c1.315-1.087,2.527-2.302,3.931-3.279
		c0.546-0.38,1.177-0.636,1.748-0.983c0.431-0.263,0.877-0.56,1.313-0.742c0.979-0.41,1.866-1.073,2.959-1.19
		c0.124-0.013,0.18-0.09,0.267-0.143c0.802-0.486,1.704-0.632,2.614-0.718c0.37-0.035,0.641-0.206,0.94-0.439
		c1.918,0.089,3.85-0.386,5.807-0.22c0.179,0.015,0.368,0.039,0.537-0.004c0.513-0.131,0.936,0.216,1.424,0.234
		c0.439,0.016,0.863-0.02,1.331,0.157c0.536,0.202,1.206,0.047,1.808,0.047c0.542,0.281,1.077,0.557,1.668,0.863
		c0.359,0,0.791,0,1.14,0c0.823,0.382,1.58,0.729,2.333,1.082c0.634,0.296,1.249,0.637,1.898,0.89
		c0.639,0.248,0.916,0.955,1.572,1.155c0.65,0.85,1.652,1.229,2.499,1.803c0.543,0.368,0.959,0.88,1.549,1.189
		c0.324,0.17,0.559,0.493,0.899,0.692c0.346,0.202,0.561,0.59,0.794,0.945c0.485,0.739,0.924,1.508,1.489,2.201
		c0.55,0.675,0.902,1.506,1.429,2.204c0.701,0.929,0.906,2.077,1.474,3.065c0.564,0.981,0.844,2.095,1.254,3.149
		c0.115,0.297-0.104,0.653,0.211,0.883c0.08,1.095,0.604,2.099,0.535,3.247c-0.066,1.113,0.242,2.228,0.219,3.363
		c-0.009,0.409,0.381,0.905,0.106,1.273c-0.305,0.409,0.085,0.912-0.332,1.29c-0.144,0.129-0.058,0.556-0.017,0.837
		c0.126,0.855-0.313,1.654-0.223,2.502c-0.566,1.14-0.524,2.479-1.269,3.583c-0.436,0.646-0.643,1.458-0.88,2.218
		c-0.213,0.683-0.532,1.294-0.908,1.894c-0.32,0.511-0.676,0.998-0.937,1.553c-0.339,0.722-0.923,1.287-1.444,1.881
		s-1.126,1.113-1.666,1.691c-0.456,0.488-1.047,0.797-1.542,1.219c-1.1,0.937-2.348,1.66-3.479,2.54
		c-0.575,0.447-1.152,0.821-1.798,1.146c-0.368,0.185-0.715,0.35-1.117,0.44c-0.554,0.127-0.979,0.551-1.549,0.69
		c-0.938,0.23-1.835,0.597-2.726,0.974c-0.317,0.134-0.683,0.076-1.019,0.12c-0.916,0.122-1.77,0.471-2.689,0.599
		c-1.131,0.156-2.247,0.134-3.371,0.17c-0.378,0.013-0.695,0.383-1.096,0.213c-0.708-0.3-1.499-0.04-2.165-0.257
		s-1.364-0.314-2.029-0.561c-0.568-0.21-1.275-0.043-1.825-0.043c-0.648-0.35-1.222-0.653-1.884-0.638
		c-0.384,0.009-0.628-0.234-0.93-0.372c-1.451-0.667-2.923-1.295-4.337-2.033c-0.808-0.421-1.521-1.023-2.269-1.558
		c-0.063-0.045-0.056-0.188-0.073-0.253c-0.648-0.431-1.463-0.591-1.811-1.389c-0.045-0.104-0.175-0.189-0.32-0.251
		c-0.393-0.164-0.645-0.497-0.882-0.85c-0.287-0.426-0.496-0.918-0.914-1.24c-0.707-0.547-1.15-1.324-1.563-2.059
		c-0.451-0.803-1.047-1.494-1.492-2.292c-0.342-0.612-0.925-1.096-0.993-1.855C11.6,46.658,11.491,46.123,11.162,45.616z
		 M54.179,31.814c-0.362,0.365-0.688,0.694-1.014,1.023c-0.942,0-1.877,0-2.73,0c-0.424,0.218-0.781,0.403-1.23,0.634
		c-0.572-0.168-1.162,0.405-1.847,0.198c-0.516,0.584-1.198,1.008-1.449,1.875c0.381-0.009,0.104,0.415,0.347,0.518
		c0.19,0.046,0.359-0.036,0.531,0.094c0.461,0.35,0.917,0.722,1.426,0.988c1.157,0.606,2.211,1.533,3.509,1.314
		c0.559-0.262,0.968-0.503,1.408-0.65c1.045-0.35,2.065-0.745,3.042-1.264c0.406-0.216,0.867-0.417,1.316-0.452
		c0.885-0.07,1.779-0.021,2.549-0.021c0.361,0.228,0.406,0.46,0.364,0.755c-0.544,0.664-1.31,0.937-2.15,0.959
		c-0.527,0.014-0.929,0.203-1.289,0.537c-0.106,0.68,0.432,1.283,0.154,2.013c-0.131,0.132-0.31,0.31-0.505,0.505
		c-2.061-0.391-4.118-0.364-6.259,0.283c0.404,0.437,0.362,0.888,0.316,1.335c-0.104,0.105-0.204,0.208-0.302,0.309
		c-0.364,0-0.724,0-1.137,0c-0.074-0.405-0.521-0.37-0.781-0.604c-0.603-0.543-1.123-1.157-1.42-1.9
		c-0.495-1.24-1.53-1.627-2.688-1.802c-0.719-0.108-1.453,0.043-2.184-0.208c-0.603-0.207-1.225,0.121-1.806,0.3
		c-0.474,0.146-1.119,0.342-1.24,0.827c-0.182,0.724-0.71,1.22-0.957,1.872c0.608,0.834-0.149,1.383-0.434,2.277
		c-0.023,0.21,0.023,0.635,0.211,1.069c0.208,0.482-0.313,0.914-0.205,1.417c0.015,0.068-0.028,0.166,0.007,0.212
		c0.381,0.504,0.133,1.093,0.229,1.634c0.094,0.102,0.149,0.216,0.21,0.345c0.386,0.813,0.581,1.696,1.032,2.494
		c0.207,0.367,0.479,0.939,0.231,1.392c-0.338,0.621-0.099,1.233-0.164,1.57c0.442,1.057,1.355,1.498,1.56,2.45
		c0.293,0.3,0.595,0.607,0.864,0.884c1.086,0.065,1.508,1.011,2.218,1.539c0.606,0.063,1.114-0.249,1.657-0.432
		c0.109,0.078,0.219,0.156,0.341,0.243c0.324-0.3,0.76-0.258,1.125-0.445c0.68-0.349,1.311-0.811,2.092-0.95
		c0.186-0.033,0.38-0.162,0.518-0.301c0.725-0.727,1.771-1.149,2.097-2.297c-0.341-0.891-1.022-1.349-1.999-1.216
		c-0.613-0.384-1.15-0.74-1.445-1.381c-0.113-0.245-0.37-0.434-0.587-0.618c-0.26-0.221-0.63-0.29-0.805-0.596
		c-0.567,0-1.107,0.001-1.647-0.001c-0.033,0-0.066-0.012-0.097-0.019c-0.37-0.492-0.329-0.966-0.012-1.482
		c0.169-0.275,0.421-0.552,0.342-0.995c-0.204-0.171-0.45-0.376-0.635-0.53c0-0.324,0-0.54,0-0.754
		c0.104-0.104,0.205-0.205,0.307-0.308c1.156-0.016,1.156-0.016,2.489,1.422c-0.025,0.421,0.218,0.717,0.38,1.006
		c0.715,0.353,1.354,0.734,1.924,1.229c0.176,0,0.368,0.041,0.533-0.008c0.643-0.189,0.999-0.82,1.72-1.07c0.246,0,0.605,0,0.967,0
		c0.093,0.147,0.301,0.203,0.322,0.409c-0.108,0.419-0.542,0.725-0.434,1.182c0.524,0.464,1.054,0.372,1.63,0.144
		c0.851-0.336,1.776-0.484,2.386-1.302c0.31-0.416,0.519-0.868,0.728-1.323c0.446-0.973,1.145-1.817,1.465-2.848
		c0.179-0.575,0.383-1.136,0.594-1.698c0.175-0.466,0.524-0.907,0.515-1.396c-0.011-0.539,0.364-0.988,0.248-1.532
		c-0.043-0.201,0.078-0.383,0.155-0.579c0.281-0.713,0.454-1.5,0.189-2.231c-0.258-0.713-0.214-1.438-0.103-2.097
		c0.329-1.942,0.243-2.977-0.68-4.559c0.105-0.927-0.434-1.829-0.187-2.737c-0.249-0.32-0.386-0.608-0.476-0.953
		c-0.252-0.968-0.629-1.9-1.097-2.781c-0.179-0.335-0.294-0.67-0.431-1.012c-0.21-0.524-0.507-1.141-0.952-1.407
		c-0.497-0.297-0.732-0.682-0.961-1.13c-0.426-0.833-0.774-1.709-1.651-2.222c-0.287-0.168-0.496-0.466-0.634-0.808
		c-0.07-0.176-0.074-0.42-0.29-0.527c-0.849-0.425-1.376-1.211-2.042-1.839c-0.581-0.547-1.219-0.973-1.934-1.333
		c-0.625-0.314-1.272-0.601-1.841-1.046c-0.604-0.473-1.291-0.944-2.031-1.059c-1.046-0.161-1.986-0.759-3.074-0.683
		c-0.299-0.396-0.758-0.083-1.089-0.237c-0.604-0.282-1.25-0.301-1.875-0.444c-0.698-0.159-1.381-0.169-2.077-0.185
		c-0.21-0.005-0.469,0.042-0.619-0.06c-0.436-0.298-0.97-0.259-1.329-0.117c-0.705,0.279-1.396,0.09-2.085,0.192
		c-0.262,0.21-0.592,0.297-0.888,0.445c-0.508,0.252-1.045,0.067-1.524,0.238c-0.799,0.287-1.563,0.691-2.451,0.597
		c-0.139-0.015-0.19,0.156-0.259,0.145c-0.523-0.082-0.772,0.399-1.173,0.569c-0.396,0.168-0.834,0.217-1.206,0.493
		c-0.315,0.234-0.714,0.422-1.15,0.289c-0.764,0.912-1.653,1.628-2.72,2.086c-0.589,0.253-1.069,0.615-1.5,1.075
		c-0.443,0.472-0.854,1.007-1.383,1.359c-1.043,0.695-1.652,1.767-2.475,2.648c-0.41,0.438-0.769,0.972-0.99,1.526
		c-0.274,0.686-0.567,1.351-0.93,1.993c-0.075,0.132-0.032,0.332-0.042,0.481c0.286,0.154,0.607-0.007,0.802,0.32
		c0.179,0.301,0.57,0.345,0.88,0.459c1.295,0.478,2.112,1.369,2.508,2.694c0.038,0.126,0.001,0.557,0.463,0.487
		c0.125-0.255,0.267-0.546,0.403-0.824c0.321,0,0.635,0,0.917,0c0.259,0.258,0.488,0.487,0.708,0.708
		c0.196,1.018-0.577,1.706-0.846,2.564c0.167,0.19,0.259,0.405,0.216,0.665c0.866,1.088,2.147,1.506,3.532,2.092
		c0.333,0.037,0.936-0.193,1.376,0.081c0.578,0.359,0.963-0.291,1.49-0.109c0.48,0.166,1.004-0.054,1.543,0.193
		c0.436,0.199,1.036,0.041,1.56,0.041c0-0.248,0-0.391,0-0.539c-0.379-0.402-0.694-0.919-1.093-1.245
		c-0.668-0.543-1.417-0.992-2.009-1.637c-0.036-0.04-0.133-0.017-0.198-0.036c-0.957-0.28-1.567-1.067-2.149-1.745
		c-0.707-0.822-1.438-1.712-1.686-2.85c-0.047-0.219-0.197-0.431-0.343-0.61c-0.545-0.667-0.857-1.402-0.722-2.225
		c-0.19-0.279-0.304-0.549-0.502-0.721c-0.667-0.579-0.948-1.273-0.76-2.161c0.641-0.684,1.173,0.006,1.772,0.167
		c0.094-0.086,0.196-0.18,0.334-0.307c0-0.284,0-0.598,0-0.771c0.385-0.727,0.627-1.394,1.283-1.738
		c0.452,0.121,0.795,0.4,1.107,0.77c0,0.513-0.008,1.051,0.002,1.589c0.012,0.596-0.042,1.134-0.408,1.675
		c-0.318,0.469-0.334,1.042-0.105,1.669c0.164,0.449,0.377,0.966,0.302,1.501c-0.005,0.038,0.088,0.09,0.13,0.129
		c0.143,0,0.284,0,0.434,0c0.4-1.11,1.371-1.688,2.228-2.352c0.519-0.401,1.069-0.752,1.551-1.211
		c0.563-0.535,0.987-1.153,1.276-1.792c0.402,0,0.717,0,0.995,0c0.263,0.262,0.492,0.492,0.722,0.721c0,0.359,0,0.719,0,1.066
		c-0.164,0.229-0.355,0.403-0.479,0.678c-0.236,0.525-0.583,0.987-1.177,1.237c-0.369,0.155-0.761,0.428-0.966,0.759
		c-0.381,0.615-0.948,1.04-1.388,1.583c-0.402,0.495-0.811,1.002-0.974,1.599c0.442,1.388,1.625,1.679,2.778,2.074
		c0.409-0.211,0.825-0.425,1.252-0.645c0.287,0,0.602,0,0.88,0c0.186,0.186,0.338,0.338,0.507,0.507c0,0.27-0.035,0.561,0.009,0.84
		c0.048,0.309-0.167,0.521-0.21,0.778c-0.063,0.371-0.017,0.745,0.192,1.101c0.252,0.429,0.491,0.879,0.646,1.35
		c0.289,0.877,0.907,1.485,1.556,2.219c0.395-0.723,0.845-1.271,1.296-1.823c0.486-0.595,1.036-1.247,0.821-2.129
		c-0.08-0.33,0.205-0.504,0.214-0.606c-0.339-1.13-1.006-1.907-1.514-2.776c-0.238-0.407-0.496-0.772-0.671-1.237
		c-0.306-0.814-0.079-1.613-0.179-2.408c0.351-0.442,0.214-1.329,1.021-1.259c0.299,0.22,0.525,0.387,0.718,0.529
		c-0.105,0.639,0.28,1.124,0.225,1.711c-0.081,0.856-0.138,1.75,0.608,2.525c0.2,0.094,0.515,0.243,0.82,0.387
		c0.135-0.157,0.294-0.242,0.284-0.462c-0.02-0.395-0.005-0.792-0.006-1.188c-0.004-0.899-0.009-1.768-0.393-2.646
		c-0.243-0.558-0.601-1.161-0.471-1.826c-0.304-0.301-0.585-0.58-0.892-0.883c0.24-0.835-0.289-1.626-0.205-2.48
		c0.021-0.208-0.333-0.424-0.189-0.658c0.266-0.433,0.224-0.999,0.626-1.363c0.263-0.239,0.383-0.546,0.45-0.895
		c0.057-0.292,0.625-0.734,0.954-0.734c0.025,0.303,0.382,0.117,0.495,0.329c0.175,0.267,0.437,0.596,0.243,0.848
		c-0.209,0.271-0.182,0.522-0.186,0.794c-0.009,0.753-0.003,1.507-0.003,2.266c0.64,0.384,0.526,1.393,1.452,1.634
		c0.141-0.167,0.281-0.38,0.466-0.545c1.126-1.006,2.327-1.845,3.957-1.654c0.104,0.012,0.208,0.013,0.312,0.019
		c0.629,0.111,0.754,0.64,0.941,1.116c-0.231,0.375-0.372,0.937-0.823,0.994c-0.515,0.064-0.844,0.377-0.992,0.702
		c-0.447,0.972-1.334,1.057-2.228,1.324c-0.329,0.311-0.798,0.653-0.905,1.168c-0.18,0.867-0.526,1.699-0.467,2.626
		c0.067,1.076-0.011,2.16,0.029,3.238c0.015,0.372-0.065,0.728-0.249,0.977c-0.383,0.52-0.449,1.07-0.415,1.671
		c0.014,0.25,0.002,0.502,0.002,0.744c0.22,0.279,0.487,0.489,0.813,0.254c0.29-0.21,0.667-0.311,0.937-0.322
		c0.919-0.037,1.326-0.562,1.568-1.332c0.315,0.03,0.458-0.168,0.569-0.392c0.268-0.538,0.36-1.183,0.689-1.649
		c0.436-0.619,0.692-1.305,1.051-1.947c0.74-1.323,1.36-2.694,2.697-3.644c1.122-0.797,2.803-1.471,3.95-1.444
		c0.353,0.008,0.766,0.081,1.046-0.07c0.494-0.265,0.978-0.093,1.457-0.114c0.121-0.005,0.348,0.172,0.539,0.267
		c-0.073,0.327,0.183,0.567,0.265,0.927c-0.352-0.008-0.168,0.32-0.25,0.402c-0.638,0.439-1.285,0.348-1.903,0.309
		c-1.165-0.073-2.021,0.515-2.844,1.159c0,0.124-0.017,0.201,0.003,0.268c0.116,0.408-0.267,0.688-0.265,1.09
		c0.001,0.304-0.435,0.287-0.655,0.451c-0.95,0.708-0.956,0.699-1.463,2.08c-0.034,0.092-0.12,0.175-0.2,0.239
		c-0.262,0.208-0.3,0.453-0.142,0.782c0.304-0.018,0.677,0.067,0.919-0.074c0.757-0.44,1.658-0.527,2.38-1.044
		c0.446-0.319,0.915-0.57,1.172-1.119c0.149-0.321,0.423-0.681,0.826-0.495c0.304,0.24,0.606,0.479,0.854,0.675
		C54.505,29.909,53.919,30.849,54.179,31.814z M17.599,50.906c0.236,0.241,0.232,0.588,0.336,0.938
		c0.577,0.335,1.245,0.584,1.65,1.224c0,0.108,0,0.252,0,0.411c0.312,0.215,0.481,0.609,0.878,0.736
		c0.482,0.155,0.823,0.498,1.16,0.851c0.148,0.155,0.282,0.367,0.467,0.436c1.143,0.42,1.927,1.381,2.977,1.938
		c0.147,0.078,0.224,0.269,0.445,0.235c0.427-0.063,0.811,0.149,1.162,0.315c0.359,0.171,0.789,0.22,1.004,0.065
		c0.381-0.271,0.763-0.064,1.116-0.197c0.952-0.521,1.509-1.332,1.816-2.362c0.19-0.638,0.334-1.313,0.873-1.839
		c-0.263-1.267,0.496-1.982,1.48-2.524c0.048-0.376-0.104-0.757,0.275-0.978c-0.198-0.283-0.324-0.523-0.282-0.776
		c-0.431-0.742-1.472-0.859-1.603-1.451c0.178-1.799,0.712-3.164,1.407-4.503c0-0.293-0.124-0.697,0.025-0.924
		c0.336-0.514-0.014-1.105,0.221-1.53c0.294-0.531,0.086-1.041,0.21-1.569c-0.912-0.642-1.417-1.622-1.986-2.437
		c-1.238-0.179-2.327,0.292-3.469,0.203c-1.073-0.084-2.073,0.288-3.021,0.771c-0.625,0.318-1.229,0.681-1.861,0.984
		c-0.622,0.3-1.108,0.766-1.333,1.377c-0.419,1.143-1.119,2.05-2.007,2.844c-0.103,0.092-0.161,0.235-0.176,0.258
		c-0.501,0-0.857,0-1.117,0c-0.468-0.458-0.434-0.96-0.3-1.432c0.279-0.297,0.788-0.2,0.959-0.637
		c-0.095-0.095-0.171-0.171-0.235-0.234c-0.509-0.189-0.959,0.015-1.417,0.201c-0.909-0.545-1.912-0.949-2.22-2.079
		c0.396-0.417,0.887-0.742,1.328-0.527c0.811,0.396,1.43-0.001,2.124-0.238c0.938-0.32,1.607-1.028,2.345-1.619
		c0.305-0.244,0.826-0.273,0.916-0.77c-0.171-0.529-0.736-0.605-1.069-0.947c-0.754-0.773-1.506-1.549-2.299-2.282
		c-0.246-0.228-0.466-0.547-0.484-0.766c-0.041-0.512-0.304-0.913-0.521-1.306c-0.374-0.678-0.529-1.384-0.599-2.131
		c-0.019-0.202-0.057-0.393-0.118-0.596c-0.358-1.191-0.968-2.196-1.949-2.967c-0.436,0.463-0.855,0.94-1.203,1.527
		c-0.707,1.192-0.828,2.543-1.233,3.812c-0.079,0.247-0.249,0.485-0.248,0.764c0.001,0.54-0.023,1.081,0.007,1.62
		c0.031,0.565-0.332,1.057-0.236,1.641c0.069,0.42-0.01,0.863,0.021,1.293c0.026,0.371-0.057,0.725,0.169,1.121
		c0.186,0.325,0.038,0.842,0.038,1.273c0.272,0.795,1.023,1.494,0.448,2.459c-0.087,0.146-0.052,0.457,0.05,0.609
		c0.282,0.422,0.35,0.978,0.813,1.256c0,0.464,0,0.893,0,1.31c0.312,0.267,0.303,0.692,0.548,0.978
		c0.826,0.965,1.899,1.622,2.913,2.354c0.109,0.079,0.231,0.211,0.342,0.206c0.598-0.027,1.133,0.285,1.748,0.251
		c0.697-0.039,1.352-0.192,2.019-0.357c0.56-0.139,1.142-0.493,1.697-0.286c0.528,0.197,1.108,0.198,1.615,0.552
		c0.323,0.226,0.779,0.372,1.172,0.537c0.648,0.272,1.361,0.357,1.936,0.676c0.186,0.604-0.247,0.748-0.599,0.904
		c0,0.25,0,0.463,0,0.774c0.462,0.462,0.967,0.968,1.48,1.48c0,0.246,0,0.529,0,0.805c-0.484,0.168-0.885,0.473-1.447,0.097
		c-0.61-0.408-1.287-0.76-1.675-1.371c-0.272-0.429-0.625-0.749-0.946-1.112c-0.19-0.216-0.489-0.374-0.592-0.62
		c-0.263-0.625-0.764-0.949-1.318-1.238c-0.144,0-0.291,0.019-0.432-0.003c-0.886-0.131-1.52,0.262-2.136,0.867
		c-0.48,0.472-0.745,1.108-1.289,1.495C18.139,50.85,17.868,50.641,17.599,50.906z"/>
	
	
</g>
</svg>
