<?xml version="1.0" encoding="iso-8859-1"?>
<!-- Generator: Adobe Illustrator 16.0.0, SVG Export Plug-In . SVG Version: 6.00 Build 0)  -->
<!DOCTYPE svg PUBLIC "-//W3C//DTD SVG 1.1//EN" "http://www.w3.org/Graphics/SVG/1.1/DTD/svg11.dtd">
<svg version="1.1" id="Layer_1" xmlns="http://www.w3.org/2000/svg" xmlns:xlink="http://www.w3.org/1999/xlink" x="0px" y="0px"
	 width="72.18px" height="70.921px" viewBox="0 0 72.18 70.921" style="enable-background:new 0 0 72.18 70.921;"
	 xml:space="preserve">
<g>
	
	<path fill="currentColor" d="M41.057,59.3c0.052,0.501,0.374,0.731,0.652,1.024
		c0.796,0.137,1.549-0.433,2.353-0.179c0.532,0.162,0.289,0.643,0.389,0.982c0.076,0.026,0.146,0.081,0.2,0.066
		c0.604-0.157,0.976,0.473,1.551,0.445c0.55-0.025,1.121-0.099,1.632,0.279c0.103,0.211,0.039,0.457,0.032,0.705
		c-0.781,0.679-1.625,1.169-2.729,0.911c-0.438-0.305-0.233-1.052-0.932-1.25c-0.119,0-0.334,0-0.544,0
		c-0.284,0.285-0.564,0.565-0.851,0.853c-0.424,0-0.854,0-1.268,0c-0.419,0.412-0.825,0.813-1.233,1.214c0,0.15,0,0.291,0,0.476
		c-0.534,0-1.063,0-1.571,0c-0.131-0.089-0.276-0.188-0.363-0.246c0-0.418,0.253-0.545,0.999-0.6
		c0.195-0.167,0.382-0.336,0.268-0.732c-0.15-0.111-0.378-0.278-0.676-0.495c-0.005,0.002-0.166-0.066-0.351,0.026
		c-0.921,0.463-1.797,1.017-2.8,1.318c-0.631,0.189-0.969,0.794-1.437,1.2c-1.128,0.072-2.138-0.316-3.213-0.746
		c0.37-0.588,0.83-1.08,0.935-1.718c0.105-0.638,0.758-1.063,0.642-1.823c-0.85-0.16-1.569,0.456-2.467,0.402
		c-0.3,0.469-0.826,0.858-1.326,1.027c-0.525,0.178-1.094,0.313-1.677,0.499c-0.193-0.23-0.397-0.476-0.551-0.659
		c-0.762,0-1.409,0-2.062,0c-0.098-0.102-0.198-0.204-0.308-0.318c-0.117-0.319,0.401-0.509,0.158-0.92
		c-0.052-0.047-0.159-0.142-0.286-0.256c-0.817-0.184-1.604,0.301-2.46,0.22c-0.575-0.055-1.045-0.178-1.523-0.524
		c-0.535-0.387-1.174-0.627-1.828-0.961c-0.194-0.831-0.995-1.311-1.389-2.074c0.18-0.234,0.214-0.564,0.519-0.778
		c0.68-0.037,1.427,0.103,2.293-0.37c0.086-0.097,0.325-0.362,0.614-0.684c0-0.555,0.019-1.201-0.005-1.846
		c-0.022-0.584,0.275-0.996,0.681-1.336c0.5-0.418,1.138-0.561,1.746-0.728c0.553-0.152,0.934,0.339,1.411,0.491
		c0.148,0.048,0.249,0.249,0.357,0.365c0.606,0,1.181,0,1.717,0c0.339,0.254,0.835,0.31,0.85,0.847c0.155,0,0.294,0,0.47,0
		c0.205-0.103,0.122-0.426,0.397-0.603c-0.378-0.319-0.426-0.853-0.246-1.145c0.323-0.521,0.141-0.931-0.046-1.35
		c-0.258-0.573-0.185-1.161-0.207-1.734c0.155-0.333,0.555-0.3,0.723-0.511c0.574-0.213,1.036,0.191,1.56,0.176
		c0.502-0.014,1.005-0.003,1.5-0.003c0.95,1,1.047,1.442,0.967,3.16c0.15,0.104,0.355,0.246,0.561,0.388
		c0.897,0.301,1.47-0.357,1.91-0.987c0.402-0.577,1.048-1.012,1.123-1.808c-0.047-1.446,0.926-2.482,1.596-3.882
		c0-0.451-0.068-1.142,0.021-1.812c0.073-0.546,0.229-1.077,0.205-1.642c-0.008-0.204-0.102-0.318-0.185-0.406
		c0.22-0.646,0.665-1.037,1.295-1.22c0.475,0.102,0.397,0.546,0.46,0.845c0.134,0.628,0.641,1.223,0.168,1.938
		c-0.133,0.2-0.024,0.562-0.019,0.849c0.005,0.25-0.212,0.396-0.238,0.665c-0.103,1.043,0.527,1.685,1.257,2.148
		c0.418,0.266,0.686,0.581,0.857,0.964c0.348,0.773,0.915,1.059,1.688,1.013c0.404-0.384,0.566-0.812,0.544-1.331
		c-0.024-0.574-0.006-1.151-0.006-1.933c-0.009,0.003,0.204-0.027,0.242-0.126c0.219-0.569,0.655-0.831,1.209-0.976
		c0.807-0.211,1.455-0.871,2.352-0.838c0.239-0.33,0.589-0.182,0.891-0.188c0.972-0.018,1.944-0.006,2.99-0.006
		c0.152-0.166,0.341-0.37,0.532-0.578c-0.021-0.384-0.421-0.455-0.521-0.711c-0.703-0.086-1.236,0.287-1.819,0.443
		c-0.368,0.097-0.715,0.231-1.103,0.197c-1.134-0.098-2.244,0.134-3.338,0.25c-0.206-0.212-0.382-0.392-0.563-0.577
		c-0.078-0.649,0.078-1.218,0.587-1.688c0.194-0.179,0.312-0.442,0.484-0.695c0-0.256,0.037-0.548-0.008-0.825
		c-0.152-0.963,0.187-1.881,0.24-2.826c0.043-0.716-0.358-1.352-0.244-2.072c0.081-0.508-0.02-1.021,0.204-1.539
		c0.183-0.425-0.155-0.987,0.24-1.412c-0.103-0.763,0.009-1.522-0.137-2.308c-0.196-1.069-0.271-2.212,0.328-3.266
		c0.243-0.427,0.444-0.927,0.092-1.459c-0.262-0.395,0.041-0.789,0.188-1.167c-0.15-0.291-0.287-0.558-0.464-0.902
		c-0.036-0.43,0.03-0.922,0.19-1.435c0.385-1.231,0.31-1.615,0.026-2.841c-0.063-0.27-0.086-0.61,0.025-0.846
		c0.386-0.815,0.427-1.666,0.391-2.594c0.166-0.131,0.362-0.285,0.655-0.516c0.398,0.061,0.92-0.033,1.49,0.168
		c0.678,0.239,1.337-0.184,1.863-0.634c0.543-0.464,1.021-1.003,1.5-1.483c0.778-0.095,0.879,0.707,1.244,0.827
		c0.447,0.81,0.386,1.547,0.386,2.28c0,0.201-0.024,0.39,0.117,0.602c0.194,0.293,0.196,0.703,0.003,0.994
		c-0.164,0.247-0.161,0.493-0.105,0.704c0.067,0.258,0.214,0.479,0.207,0.779c-0.025,1.079,0.164,2.196-0.057,3.229
		c-0.243,1.142-0.119,2.254-0.147,3.376c-0.014,0.562,0.204,1.129,0.32,1.693c0.104,0.513,0.224,1.033-0.056,1.521
		c-0.121,0.212-0.132,0.477-0.054,0.609c0.339,0.569,0.146,1.172,0.197,1.757c0.03,0.34-0.059,0.684,0.2,1.005
		c0.101,0.125,0.087,0.494-0.023,0.606c-0.252,0.256-0.124,0.536-0.18,0.8c-0.108,0.522,0.604,1.033,0.019,1.556
		c-0.004,0.538-0.011,1.076-0.014,1.614c-0.002,0.576,0.026,1.153-0.007,1.727c-0.039,0.705,0.197,1.347,0.358,2.012
		c0.121,0.495,0.115,0.992-0.052,1.53c-0.196,0.636-0.6,1.235-0.508,2.008c0.8,0.325,1.589,0.736,2.058,1.413
		c0.439,1.204,0.276,2.375,0.317,3.539c0.246,0.192,0.208,0.596,0.54,0.749c0.203,0,0.417,0,0.638,0
		c0.165-0.221,0.431-0.346,0.548-0.628c0.33-0.791,0.865-1.404,1.65-1.781c0.505-0.244,0.423-0.843,0.744-1.242
		c-0.688-0.738,0.304-1.508-0.057-2.253c0.548-0.552,1.049-1.122,1.9-0.5c0.376,1.258,0.762,2.165,0.295,2.974
		c0.184,0.359,0.34,0.733,0.558,1.065c0.403,0.62,0.405,1.199-0.07,1.769c0.351,0.582,0.036,0.988-0.327,1.419
		c-0.725,0.859-1.415,1.756-1.876,2.785c-0.294,0.654-0.429,1.387-1.247,1.622c-0.061,0.46-0.574,0.612-0.696,1.006
		c-0.073,0.231-0.239,0.341-0.374,0.493c-0.354,0.4-0.859,0.613-1.155,1.119c-0.282,0.48-0.777,0.837-1.165,1.232
		c-0.295-0.049-0.521,0.008-0.714,0.227c-0.291-0.159-0.659-0.184-0.897-0.58c0-0.125,0-0.334,0-0.612
		c-0.198-0.151-0.422-0.323-0.714-0.547c-0.591,0-1.309,0-1.903,0c-1.063,0.513-2.182,0.64-3.006,1.365
		c-0.084,0.367,0.016,0.635,0.357,0.789c2.203-0.444,2.133-0.606,4.111-0.201c0.223,0.883-0.462,1.351-0.894,1.93
		c-0.453,0-0.888,0.038-1.313-0.007c-1.317-0.143-2.597,0.236-3.905,0.259c-0.414,0.008-0.854,0.225-1.292,0.157
		c-0.182-0.182-0.358-0.359-0.54-0.541c-0.063-1.006,0.801-1.214,1.47-1.613c0-0.321,0-0.636,0-0.986
		c-0.17-0.372-0.643-0.161-0.878-0.326c-0.3-0.209-0.72-0.049-0.921-0.392c-0.234,0.259-0.587,0.339-0.838,0.6
		c-0.659,0.682-0.726,0.682-1.758,0.695C42.083,58.449,41.2,58.49,41.057,59.3z M37.067,53.719c0.382-0.285,0.716-0.409,1.075-0.533
		c0.53-0.182,1.112-0.273,1.535-0.729c0.85-0.914,1.995-1.074,3.022-1.219c0.632,0.387,1.075,0.566,1.733,0.284
		c0.499-0.215,1.037-0.548,1.637-0.468c0.448,0.06,0.8-0.135,1.161-0.327c0-0.147,0-0.292,0-0.444
		c-0.234-0.115-0.472-0.233-0.699-0.346c-0.184,0.182-0.352,0.272-0.587,0.254c-0.322-0.026-0.767-0.143-0.947,0.02
		c-0.452,0.4-0.981,0.002-1.413,0.269c-0.493,0.305-1.043,0.12-1.563,0.121c-0.528,0-1.051,0.05-1.521,0.246
		c-0.575,0.241-1.136,0.475-1.77,0.414c-0.205-0.021-0.314,0.158-0.458,0.194c-0.538,0.135-0.844,0.572-1.106,0.947
		c-0.735,1.047-1.624,1.894-2.723,2.537c-0.462,0.27-0.71,0.694-0.851,1.258c1.031,0,1.993,0,2.982,0
		c0.073-0.073,0.175-0.175,0.304-0.304C36.701,55.172,37.187,54.491,37.067,53.719z M48.495,52.449
		c0.91,0.528,1.871,0.395,2.783,0.246c0.701-0.114,1.369-0.437,2.086-0.322c0.687,0.159,0.936,0.765,1.284,1.259
		c0.232,0,0.444,0,0.678,0c0.464-0.438,0.993-0.854,0.985-1.572c-0.258-0.385-0.625-0.584-1.055-0.795
		c-0.322,0-0.719,0.019-1.111-0.008c-0.276-0.018-0.561,0.094-0.833-0.064c-0.386-0.223-0.75-0.11-1.172-0.015
		c-0.628,0.143-1.278,0.138-1.956-0.045c-0.58-0.157-0.938-0.676-1.559-0.738c-0.08,0.098-0.172,0.206-0.291,0.35
		C48.911,51.227,48.69,51.845,48.495,52.449z M33.429,56.565c-0.252-0.184-0.463-0.194-0.688,0.006
		c-0.586,0.521-1.321,0.806-2.004,1.154c-0.659,0.337-1.305,0.691-1.91,1.108c-0.348,0.24-0.77,0.479-0.833,1.025
		c0.683,0.102,1.315,0.116,1.88-0.183c0.652-0.346,1.443-0.347,2.023-0.852c0.287-0.251,0.648-0.274,0.986-0.206
		c0.379,0.077,0.741,0.238,1.117,0.365c0.184-0.246,0.694-0.167,0.707-0.691c-0.105-0.083-0.242-0.191-0.476-0.377
		c-0.18,0-0.493,0-0.748,0C32.899,57.441,33.326,56.993,33.429,56.565z M49.872,24.969c-0.32,1.125,0.645,2.251-0.143,3.396
		c0.35,0.209,0.248,0.694,0.742,0.857c0-0.368-0.013-0.717,0.005-1.065c0.011-0.204-0.069-0.414,0.063-0.616
		c0.339-0.521,0.059-1.104,0.148-1.652c-0.453-0.268,0.051-0.963-0.561-1.162C50.055,24.795,49.958,24.888,49.872,24.969z
		 M50.274,35.674c0.183-0.265,0.281-0.409,0.412-0.598c0.076-0.586-0.117-1.221-0.195-1.871c-0.084-0.704-0.02-1.427-0.02-2.142
		c0-0.036,0.009-0.075-0.001-0.107c-0.02-0.063-0.05-0.123-0.079-0.19c-0.094,0-0.191,0-0.339,0
		c-0.053,0.554,0.11,1.132-0.333,1.645c0.427,0.514,0.662,1.069,0.549,1.531c-0.226,0.504-0.5,0.787-0.441,1.224
		C49.926,35.28,50.041,35.409,50.274,35.674z M50.436,20.388c0-0.462,0-0.867,0-1.283c-0.602-0.131-0.325,0.511-0.692,0.621
		C50.1,19.864,49.874,20.383,50.436,20.388z"/>
	<path fill="currentColor" d="M27.74,32.68c0.658,0.054,1.376,0.03,2.034-0.355
		c0.27-0.157,0.558-0.045,0.836-0.063c0.393-0.024,0.789-0.006,1.177-0.006c0.454,0.438,0.833,0.963,1.506,1.08
		c0.663,0.89,1.876,1.11,2.498,2.137c-0.046,0.632-0.788,0.333-1.087,0.673c-0.222,0.023-0.278-0.308-0.56-0.228
		c-0.528,0.153-1.003-0.187-1.513-0.261c-0.834-0.121-0.821-0.197-1.682,0.027c-0.567,0.147-1.057-0.226-1.599-0.269
		c-0.1-0.008-0.213-0.154-0.37-0.137c-1.165,0.12-2.193-0.426-3.271-0.711c-0.186-0.049-0.374-0.143-0.581-0.151
		c-0.362-0.015-0.739-0.136-0.881-0.441c-0.234-0.501-0.677-0.795-1.002-1.215c0.041-0.545,0.444-1.047,0.06-1.811
		c0,0-0.22-0.127-0.439-0.255c-0.672-0.159-1.445-0.305-2.139-0.667c-0.408-0.213-0.886-0.085-1.255-0.363
		c-0.958,0.153-1.86-0.399-2.456-0.263c-1.173-0.098-1.097-0.979-1.59-1.409c-0.335-0.087-0.688-0.218-1.052-0.262
		c-0.388-0.046-0.786-0.011-1.161-0.042c-0.505-0.155-0.794-0.569-1.169-0.917c0-0.411,0-0.837,0-1.297
		c-0.237-0.199-0.482-0.405-0.667-0.56c0-0.47,0-0.831,0-1.233c-0.325-0.193-0.906,0.159-1.077-0.48
		c0.039-0.638,0.772-0.739,1.076-1.218c-0.049-0.727,0.452-1.406,0.18-2.094c0.606-0.803,0.994-1.657,1.643-2.319
		c0.227,0,0.442,0,0.702,0c0.558,0.735,0.806,1.67,1.368,2.511c-0.092,0.853,0.157,1.675,0.543,2.507
		c0.237,0.511,0.222,1.153-0.049,1.731c-0.084,0.181-0.063,0.41-0.085,0.583c0.416,0.798,1.042,1.365,1.64,1.948
		c0.49,0.014,0.911,0.23,1.311,0.421c0.536-0.141,1.048-0.35,1.573-0.39c0.359-0.027,0.612-0.259,0.988-0.269
		c0.89-0.023,1.674,0.297,2.482,0.555c0.836,0.267,1.61,0.646,2.318,1.189c0.686,0.528,0.747,0.729,0.581,1.584
		c-0.109,0.567-0.427,1.11-0.252,1.781c0.165,0.169,0.32,0.438,0.651,0.544C27.221,32.346,27.443,32.516,27.74,32.68z"/>
	<path fill="currentColor" d="M16.793,31.226c0.126-0.104,0.206-0.169,0.312-0.255
		c0.306-0.129,0.492,0.414,0.894,0.164c0.33,1.26,1.215,2.053,2.232,2.679c-0.044,1.018,0.431,1.71,1.233,2.33
		c1.251-0.222,2.459,0.7,3.767,0.404c0.349,0.212,0.493,0.461,0.353,0.856c-0.441,0-0.9,0-1.37,0
		c-0.123,0.42-0.236,0.806-0.38,1.295c-0.18,0.162-0.446,0.401-0.759,0.683c-0.347-0.317-0.912-0.139-1.366-0.412
		c-0.133-0.08-0.411-0.095-0.6,0.074c-0.274,0.242-0.695,0.217-0.902,0.095c-0.446-0.261-0.893-0.205-1.33-0.171
		c-0.54,0.041-1.019-0.177-1.56-0.254c-0.601-0.335-0.676-1.035-0.963-1.673c-0.597,0.005-1.105-0.183-1.576-0.593
		c-0.456-0.397-0.424-1.106-0.97-1.392c-0.367,0.056-0.468,0.304-0.536,0.622c-0.375,0-0.762,0-1.065,0
		c-1.146-0.45-2.094-1.154-3.234-1.493c-0.715-0.213-1.2-0.765-1.493-1.484c0.172-0.253,0.213-0.545,0.242-0.862
		c0.023-0.254,0.122-0.593,0.236-0.748c0.231-0.314,0.138-0.608,0.175-0.91c0.017-0.14-0.044-0.33,0.028-0.417
		c0.49-0.59-0.009-1.011-0.193-1.533c0.199-0.358,0.301-0.886,0.91-0.935c0.574,0,1.148,0,1.763,0
		c0.068,0.084,0.159,0.195,0.252,0.31c-0.149,0.179-0.132,0.489-0.361,0.639c-0.096,0.877-0.063,1.707,0.722,2.256
		c1.317,0.058,2.605,0.374,3.918,0.244C15.662,31.13,16.349,30.758,16.793,31.226z M16.699,36.554
		c0.339-0.226,0.542-0.362,0.73-0.487c-0.137-0.152-0.233-0.258-0.355-0.393c-0.304,0.13-0.599,0.303-0.914,0.285
		c0,0.237,0,0.405,0,0.596C16.401,36.554,16.611,36.554,16.699,36.554z"/>
	<path fill="currentColor" d="M22.263,45.217c-0.258,0-0.547,0.021-0.832-0.005
		c-0.706-0.063-1.45-0.035-2.05,0.258c-0.601,0.294-1.067,0.086-1.562-0.052C17.094,45.215,16.382,44.99,15.62,45
		c-0.288,0.003-0.576-0.011-0.863,0.002c-0.729,0.035-1.449-0.044-2.185,0.187c-0.648,0.2-1.372-0.074-2.072,0.214
		c-0.399,0.164-0.923,0.029-1.376,0.029c-0.599-0.477-0.894-1.072-0.75-1.868c0.161-0.341,0.708-0.259,0.843-0.677
		c-0.203-0.634-0.73-1.141-0.672-1.889c0.022-0.291-0.58-0.8-1.23-1.234c0-0.281,0-0.596,0-0.962
		c0.189-0.079,0.435-0.27,0.676-0.263c0.439,0.014,0.896-0.176,1.336,0.16c0.183,0.14,0.568,0.09,0.836,0.022
		c0.361-0.089,0.718,0.106,0.859,0.255c0.639,0.669,1.46,1.116,2.069,1.808c0.035,0.04,0.004,0.137,0.004,0.202
		c0.287,0.257,0.712,0.247,0.966,0.543c0.984-0.03,1.933,0.378,2.925,0.231c0.946,0.468,1.959,0.055,2.984,0.276
		c0.174,0.179-0.043,0.497,0.087,0.774c0.322,0,0.635,0,0.958,0c0.263-0.321,0.621-0.509,1.097-0.64
		c0.299,0.274,0.807,0.133,1.123,0.527c1.027-0.783,2.104-1.243,3.446-1.142c0.34,0.748,0.831,1.458,1.518,1.985
		c0.002,0.595,0.002,0.595-0.261,0.99c-0.828,0.02-1.622,0.359-2.479,0.271c-0.225-0.023-0.488,0.193-0.712,0.334
		c-0.148,0.094-0.249,0.261-0.387,0.373c-0.499,0.408-1.037,0.485-1.596,0.132C22.588,45.531,22.442,45.371,22.263,45.217z"/>
	<path fill="currentColor" d="M27.105,36.857c0.697,0.497,1.304,0.329,1.876,0.373
		c0.24,0.186,0.409,0.4,0.316,0.735c-0.277,0.071-0.464,0.374-0.799,0.338c-0.066-0.011-0.177,0-0.193-0.035
		C28.062,37.747,27.218,37.79,27.105,36.857z"/>
	<path fill="currentColor" d="M22.4,32.24c-0.395,0-0.703,0-1.011,0c-0.039-0.625,0.056-0.815,0.411-0.848
		C22.189,31.356,22.304,31.504,22.4,32.24z"/>
	<path fill="currentColor" d="M20.684,32.56c-0.118,0.118-0.216,0.216-0.316,0.316
		c-0.192,0.013-0.399,0.114-0.566-0.076c-0.036-0.292,0.177-0.412,0.372-0.544C20.439,32.21,20.488,32.491,20.684,32.56z"/>
	
	
	
	
	
	
	
</g>
</svg>
