<?xml version="1.0" encoding="iso-8859-1"?>
<!-- Generator: Adobe Illustrator 16.0.0, SVG Export Plug-In . SVG Version: 6.00 Build 0)  -->
<!DOCTYPE svg PUBLIC "-//W3C//DTD SVG 1.1//EN" "http://www.w3.org/Graphics/SVG/1.1/DTD/svg11.dtd">
<svg version="1.1" id="Layer_1" xmlns="http://www.w3.org/2000/svg" xmlns:xlink="http://www.w3.org/1999/xlink" x="0px" y="0px"
	 width="72.18px" height="70.921px" viewBox="0 0 72.18 70.921" style="enable-background:new 0 0 72.18 70.921;"
	 xml:space="preserve">
<g>
	<path style="fill-rule:evenodd;clip-rule:evenodd;fill:none;" d="M-6.983,78.048c0-28.297,0-56.591,0-84.887
		c28.799,0,57.599,0,86.399,0c0,28.296,0,56.59,0,84.887C50.616,78.048,21.816,78.048-6.983,78.048z M24.526,52.423
		c-0.069-0.085-0.141-0.188-0.202-0.319c-0.557-1.187-0.554-1.2-1.712-1.908c-0.345-0.212-0.657-0.476-0.835-0.786
		c-0.123-0.213-0.261-0.399-0.417-0.579c-0.788-0.901-1.491-1.849-2.014-2.944c-0.246-0.514-0.106-1.067-0.387-1.571
		c-0.225-0.406-0.297-0.91-0.248-1.411c0.042-0.424,0.009-0.854,0.009-1.21c0.101-0.149,0.173-0.229,0.214-0.321
		c0.375-0.846,0.739-1.698,1.498-2.294c0.181-0.143,0.188-0.344,0.252-0.546c0.164-0.522,0.454-0.952,1.027-1.184
		c1.175-0.478,2.105-1.356,3.134-2.068c1.15-0.796,2.29-1.516,3.713-1.751c0.788-0.13,1.573-0.42,2.148-1.057
		c0.215,0,0.431,0,0.661,0c0.641-0.769,1.582-1.074,2.481-1.258c0.991-0.202,1.82-0.663,2.768-1.11
		c0.734-0.014,0.956-0.076,1.782-0.438c1.493-0.655,2.982-1.317,4.489-1.937c0.63-0.259,1.172-0.652,1.749-0.99
		c0.611-0.357,1.307-0.505,1.922-0.837c0.624-0.337,1.23-0.703,1.827-1.095c0.616-0.405,1.177-0.838,1.701-1.342
		c0.12-0.117,0.298-0.201,0.406-0.299c0.595-0.533,1.51-0.678,1.85-1.521c0.049-0.121,0.236-0.138,0.337-0.206
		c0.29-0.199,0.609-0.425,0.773-0.721c0.583-1.052,1.131-2.123,1.687-3.188c0.152-0.292,0.292-0.638,0.283-0.955
		c-0.032-1.3,0.215-2.62-0.235-3.903c-0.45-0.451-0.908-0.909-1.331-1.332c-0.351,0-0.663,0-0.998,0
		c-0.515,0.957-0.692,1.995-0.844,3.017c-0.06,0.411-0.268,0.764-0.27,1.202c-0.006,0.98-0.397,1.843-1.076,2.57
		c-0.723,0.776-1.576,1.426-2.156,2.343c-0.149,0.238-0.453,0.404-0.71,0.582c-0.672,0.465-1.371,0.84-2.097,1.209
		c-0.773,0.393-1.457,0.96-2.314,1.198c-0.03,0.009-0.056,0.046-0.076,0.075c-0.431,0.643-1.14,0.856-1.796,1.14
		c-0.625,0.27-1.237,0.628-1.934,0.436c-0.647,0.515-1.341,0.845-2.09,1.086c-0.572-0.438-1.079-0.162-1.567,0.19
		c-0.926,0.669-1.837,1.364-3.027,1.103c-0.632,0.6-1.413,0.79-2.066,1.197c-0.173,0.108-0.327,0.11-0.496,0.108
		c-0.91-0.011-1.714,0.34-2.51,0.722c-0.333,0.16-0.655,0.302-1.031,0.392c-0.706,0.167-1.495,0.219-2.01,0.895
		c-0.145,0.191-0.451,0.312-0.703,0.359c-0.686,0.129-1.257,0.466-1.819,0.875c-0.197,0-0.413,0-0.652,0
		c-0.449,0.632-1.121,0.977-1.813,1.302c-0.272,0.127-0.664,0.176-0.768,0.459c-0.281,0.759-1.044,0.769-1.354,0.977
		c-0.607,0.857-1.229,1.375-1.704,2.013c-0.531,0.713-1.005,1.466-1.474,2.211c-0.326,0.52-0.745,1.062-0.744,1.735
		c0.001,0.44-0.102,0.816-0.356,1.054c-0.416,1.805-0.419,3.541,0.001,5.342c0.161,0.307,0.424,0.672,0.553,1.081
		c0.484,1.528,1.42,2.766,2.606,3.765c0.907,0.766,1.876,1.456,2.705,2.313c0.146,0.152,0.289,0.349,0.474,0.416
		c0.601,0.221,0.67,0.698,0.73,1.413c-0.114,0.047-0.322,0.134-0.456,0.19c0,0.57,0.017,1.039-0.004,1.507
		c-0.024,0.534,0.254,0.902,0.583,1.276c0.174,0.199,0.494,0.11,0.604,0.37c0.754-0.551,1.554-1.055,2.184-1.752
		c0.64-0.706,0.845-1.675,1.343-2.431C24.943,54.304,24.566,53.388,24.526,52.423z M24.904,49.358c0.503,0,1.034,0,1.6,0
		c0,0.496,0,0.954,0,1.344c0.284,0.369,0.587,0.595,1.208,0.791c0.302,0.041,0.9,0.05,1.255-0.457
		c0.409-0.584,0.995-1.019,1.356-1.602c0.251-0.403,0.56-0.719,0.884-1.023c0.343-0.322,0.557-0.788,1.163-0.85
		c0.433-0.046,0.588-0.69,1.051-0.826c0.196-0.058,0.328-0.204,0.552-0.246c0.452-0.084,0.959-0.199,1.299-0.478
		c0.587-0.479,1.223-0.59,1.939-0.588c0.203-0.344,0.572-0.526,0.914-0.621c0.94-0.262,1.865-0.537,2.678-1.1
		c0.085-0.059,0.165-0.182,0.246-0.18c0.832,0.01,1.417-0.623,2.145-0.813c0.578-0.151,0.976-0.474,1.241-0.889
		c0.529-0.822,1.305-1.394,1.928-2.13c-0.024-0.223,0.074-0.477-0.074-0.723c-0.135,0-0.274,0-0.484,0
		c-0.594,0.884-1.834,0.905-2.577,1.717c-0.827-0.059-1.521,0.187-2.141,0.811c-0.417,0.419-0.978,0.732-1.645,0.704
		c-0.2-0.01-0.399-0.017-0.617,0.063c-0.728,0.264-1.396,0.633-2.116,0.993c-0.55,0.085-1.17-0.112-1.752,0.096
		c-0.531,0.191-1.026,0.482-1.558,0.67c-0.409,0.144-0.803,0.383-1.268,0.33c-0.223-0.025-0.387,0.133-0.567,0.188
		c-0.488,0.152-0.845,0.44-1.19,0.786c-0.405,0.406-0.873,0.658-1.53,0.48c0.134-0.372,0.158-0.854,0.399-1.019
		c0.439-0.3,0.613-0.805,1.05-1.086c0.272,0,0.56,0,0.87,0c0.325-0.517,0.863-0.806,1.409-0.971
		c0.706-0.216,1.364-0.541,2.063-0.761c0.77-0.244,1.649-0.283,2.082-1.046c0.712-0.067,1.35-0.205,1.929-0.478
		c0.395-0.187,0.782-0.363,1.199-0.497c0.418-0.134,0.836-0.271,1.135-0.668c0.272-0.363,0.686-0.575,1.168-0.544
		c0.324,0.021,0.531-0.368,0.879-0.229c0.665-0.668,1.497-1.026,2.377-1.302c0.061-0.019,0.097-0.105,0.154-0.147
		c0.94-0.693,1.821-1.441,2.579-2.345c0.691-0.824,0.76-0.956,0.305-2.001c-0.314,0-0.629,0-0.936,0
		c-0.103,0.128-0.202,0.229-0.274,0.348c-0.375,0.621-1.049,1.324-1.63,1.566c-0.679,0.281-1.229,0.813-1.987,0.951
		c-0.18,0.032-0.468,0.113-0.609,0.351c-0.066,0.109-0.163,0.236-0.339,0.215c-0.731-0.09-1.146,0.411-1.625,0.896
		c-0.427-0.119-0.903-0.077-1.263,0.204c-0.638,0.498-1.41,0.498-2.125,0.593c-0.623,0.082-1.136,0.232-1.57,0.696
		c-1.021-0.171-1.992,0.405-2.887,0.208c-0.595,0.219-0.932,0.605-1.466,0.728c-0.654,0.149-1.239,0.527-1.661,0.969
		c-0.436,0-0.79,0-1.125,0c-0.122-0.188-0.062-0.362-0.055-0.548c0.755-0.703,1.615-1.219,2.849-1.428
		c0.165-0.195,0.439-0.521,0.714-0.848c0.417,0.181,0.7-0.105,1.031-0.176c1.051-0.223,2.058-0.557,3.028-1.031
		c0.571-0.279,1.172-0.561,1.853-0.483c0.172,0.02,0.33-0.079,0.485-0.119c0.675-0.172,1.196-0.61,1.768-0.95
		c0.579-0.345,1.11-0.749,1.799-0.88c0.457-0.088,0.919-0.296,1.291-0.514c1.101-0.644,2.197-1.288,3.336-1.863
		c0.392-0.198,0.708-0.539,1.087-0.771c0.669-0.413,1.116-1.11,1.763-1.494c0.508-0.304,0.621-0.746,0.887-1.153
		c0.3-0.459,0.422-0.931,0.348-1.273c-0.246-0.327-0.39-0.52-0.588-0.784c-0.107,0.479-0.451,0.2-0.649,0.342
		c-0.509,0.509-1.022,1.013-1.524,1.53c-0.195,0.203-0.421,0.337-0.673,0.464c-0.635,0.317-1.377,0.472-1.802,1.133
		c-0.091,0.142-0.317,0.177-0.445,0.21c-1.236,0.317-2.365,0.903-3.549,1.346c-0.346,0.129-0.693,0.236-1.118,0.456
		c-1.047-0.097-2.055,0.526-3.165,0.693c-0.242,0.036-0.521,0.318-0.805,0.378c-1.119,0.237-2.214,0.564-3.306,0.894
		c-0.568,0.172-1.224,0.14-1.738,0.65c-0.56-0.129-1.162,0.024-1.615,0.357c-0.896,0.656-1.905,0.839-2.951,0.972
		c-0.254,0.254-0.465,0.606-0.772,0.745c-0.799,0.358-1.4,0.989-2.115,1.429c-0.824,0.507-1.135,1.408-1.871,1.936
		c-0.084,0.554-0.799,0.719-0.827,1.272c-0.028,0.563-0.455,0.832-0.735,1.156c0,0.704,0.013,1.353-0.003,2
		c-0.014,0.565,0.197,1.061,0.437,1.548c0.263,0.535,0.698,0.866,1.292,0.863c0.404-0.001,0.724,0.161,1.072,0.322
		c0,0.496,0,0.998,0,1.464C23.944,48.82,24.563,48.889,24.904,49.358z M35.479,67.68c-0.97,0.555-1.133,0.564-2.026,0.152
		c-1.173-0.541-1.887-0.399-2.639,0.526c0.09,0.193,0.246,0.296,0.429,0.412c0.721,0.456,1.594-0.036,2.319,0.407
		c0.151,0.091,0.5,0.082,0.612-0.028c0.289-0.285,0.608-0.159,0.909-0.167c0.899-0.02,1.799-0.007,2.698-0.007
		c0.217,0,0.473-0.076,0.641,0.013c0.962,0.51,1.758,0.107,2.544-0.352c0.022-0.311-0.211-0.385-0.242-0.417
		c-1.187-0.45-2.112,0.374-3.187,0.322c-0.27-0.3-0.532-0.592-0.775-0.862C36.324,67.68,35.928,67.68,35.479,67.68z M46.671,66.403
		c-0.444,0.492-1.014,0.784-1.614,0.819c-0.765,0.045-1.466,0.3-2.184,0.484c-0.382,0.098-0.82,0.314-1.007,0.765
		c0.117,0.135,0.274,0.036,0.404,0.074c0.509,0.143,0.93-0.268,1.42-0.219c0.816,0.085,1.536-0.192,2.259-0.536
		c0.488-0.233,1.015-0.433,1.58-0.31c0.207-0.251,0.535-0.384,0.584-0.744c-0.106-0.111-0.204-0.214-0.317-0.334
		C47.458,66.403,47.104,66.403,46.671,66.403z"/>
	<path fill="currentColor" d="M24.526,52.423c0.041,0.965,0.417,1.881,0.2,2.859
		c-0.498,0.756-0.703,1.725-1.343,2.431c-0.63,0.697-1.43,1.201-2.184,1.752c-0.11-0.26-0.43-0.171-0.604-0.37
		c-0.329-0.374-0.607-0.742-0.583-1.276c0.021-0.468,0.004-0.937,0.004-1.507c0.134-0.057,0.342-0.144,0.456-0.19
		c-0.06-0.715-0.13-1.192-0.73-1.413c-0.185-0.067-0.327-0.264-0.474-0.416c-0.829-0.857-1.798-1.548-2.705-2.313
		c-1.186-0.999-2.123-2.236-2.606-3.765c-0.129-0.409-0.393-0.774-0.553-1.081c-0.42-1.801-0.417-3.537-0.001-5.342
		c0.255-0.237,0.358-0.613,0.356-1.054c-0.001-0.674,0.418-1.216,0.744-1.735c0.469-0.745,0.943-1.498,1.474-2.211
		c0.475-0.638,1.097-1.156,1.704-2.013c0.31-0.208,1.073-0.218,1.354-0.977c0.104-0.284,0.496-0.332,0.768-0.459
		c0.692-0.325,1.363-0.67,1.813-1.302c0.239,0,0.455,0,0.652,0c0.562-0.409,1.133-0.745,1.819-0.875
		c0.252-0.047,0.559-0.168,0.703-0.359c0.515-0.676,1.304-0.728,2.01-0.895c0.375-0.09,0.698-0.232,1.031-0.392
		c0.796-0.381,1.6-0.732,2.51-0.722c0.169,0.002,0.323,0,0.496-0.108c0.654-0.407,1.434-0.597,2.066-1.197
		c1.189,0.261,2.101-0.434,3.027-1.103c0.488-0.353,0.996-0.629,1.567-0.19c0.749-0.242,1.442-0.572,2.09-1.086
		c0.696,0.193,1.309-0.166,1.934-0.436c0.656-0.283,1.365-0.497,1.796-1.14c0.021-0.029,0.046-0.066,0.076-0.075
		c0.857-0.238,1.541-0.806,2.314-1.198c0.726-0.369,1.425-0.744,2.097-1.209c0.257-0.178,0.561-0.344,0.71-0.582
		c0.58-0.917,1.434-1.567,2.156-2.343c0.679-0.727,1.07-1.59,1.076-2.57c0.002-0.438,0.21-0.791,0.27-1.202
		c0.151-1.022,0.329-2.06,0.844-3.017c0.335,0,0.647,0,0.998,0c0.423,0.423,0.881,0.881,1.331,1.332
		c0.45,1.284,0.203,2.603,0.235,3.903c0.009,0.317-0.131,0.663-0.283,0.955c-0.556,1.065-1.104,2.136-1.687,3.188
		c-0.164,0.296-0.483,0.522-0.773,0.721c-0.101,0.068-0.288,0.084-0.337,0.206c-0.34,0.843-1.255,0.988-1.85,1.521
		c-0.108,0.098-0.286,0.182-0.406,0.299c-0.524,0.504-1.085,0.937-1.701,1.342c-0.597,0.392-1.203,0.758-1.827,1.095
		c-0.615,0.332-1.311,0.48-1.922,0.837c-0.577,0.337-1.119,0.731-1.749,0.99c-1.507,0.62-2.996,1.282-4.489,1.937
		c-0.826,0.363-1.048,0.425-1.782,0.438c-0.948,0.447-1.777,0.908-2.768,1.11c-0.9,0.184-1.841,0.489-2.481,1.258
		c-0.229,0-0.445,0-0.661,0c-0.575,0.637-1.361,0.927-2.148,1.057c-1.423,0.235-2.563,0.955-3.713,1.751
		c-1.029,0.712-1.959,1.59-3.134,2.068c-0.574,0.231-0.864,0.661-1.027,1.184c-0.064,0.202-0.071,0.403-0.252,0.546
		c-0.758,0.596-1.123,1.448-1.498,2.294c-0.041,0.093-0.113,0.172-0.214,0.321c0,0.355,0.033,0.786-0.009,1.21
		c-0.05,0.501,0.022,1.005,0.248,1.411c0.28,0.504,0.141,1.058,0.387,1.571c0.523,1.096,1.227,2.043,2.014,2.944
		c0.156,0.18,0.294,0.366,0.417,0.579c0.178,0.311,0.49,0.574,0.835,0.786c1.158,0.708,1.155,0.722,1.712,1.908
		C24.385,52.234,24.457,52.338,24.526,52.423z"/>
	<path fill="currentColor" d="M24.904,49.358c-0.341-0.47-0.96-0.538-1.226-1.074c0-0.466,0-0.968,0-1.464
		c-0.349-0.161-0.668-0.323-1.072-0.322c-0.595,0.003-1.029-0.328-1.292-0.863c-0.24-0.487-0.451-0.982-0.437-1.548
		c0.016-0.647,0.003-1.296,0.003-2c0.28-0.324,0.707-0.594,0.735-1.156c0.027-0.554,0.743-0.719,0.827-1.272
		c0.736-0.527,1.047-1.429,1.871-1.936c0.715-0.439,1.316-1.07,2.115-1.429c0.307-0.139,0.518-0.491,0.772-0.745
		c1.046-0.133,2.055-0.315,2.951-0.972c0.454-0.333,1.055-0.486,1.615-0.357c0.514-0.51,1.169-0.478,1.738-0.65
		c1.091-0.33,2.187-0.657,3.306-0.894c0.283-0.06,0.563-0.342,0.805-0.378c1.11-0.167,2.118-0.791,3.165-0.693
		c0.425-0.22,0.772-0.327,1.118-0.456c1.184-0.443,2.313-1.029,3.549-1.346c0.128-0.033,0.354-0.068,0.445-0.21
		c0.425-0.662,1.167-0.816,1.802-1.133c0.252-0.126,0.478-0.261,0.673-0.464c0.502-0.517,1.016-1.021,1.524-1.53
		c0.198-0.142,0.542,0.137,0.649-0.342c0.198,0.264,0.342,0.457,0.588,0.784c0.074,0.342-0.048,0.813-0.348,1.273
		c-0.266,0.407-0.379,0.849-0.887,1.153c-0.646,0.384-1.094,1.081-1.763,1.494c-0.379,0.232-0.695,0.573-1.087,0.771
		c-1.139,0.576-2.235,1.22-3.336,1.863c-0.372,0.218-0.834,0.426-1.291,0.514c-0.688,0.132-1.22,0.536-1.799,0.88
		c-0.571,0.34-1.093,0.777-1.768,0.95c-0.155,0.04-0.313,0.139-0.485,0.119c-0.681-0.078-1.281,0.204-1.853,0.483
		c-0.97,0.475-1.978,0.809-3.028,1.031c-0.331,0.07-0.614,0.356-1.031,0.176c-0.274,0.326-0.549,0.652-0.714,0.848
		c-1.233,0.209-2.094,0.725-2.849,1.428c-0.007,0.186-0.067,0.36,0.055,0.548c0.336,0,0.69,0,1.125,0
		c0.422-0.441,1.007-0.819,1.661-0.969c0.534-0.122,0.871-0.509,1.466-0.728c0.895,0.197,1.866-0.379,2.887-0.208
		c0.435-0.464,0.947-0.614,1.57-0.696c0.715-0.095,1.487-0.095,2.125-0.593c0.359-0.281,0.836-0.323,1.263-0.204
		c0.479-0.484,0.894-0.985,1.625-0.896c0.176,0.021,0.272-0.105,0.339-0.215c0.142-0.238,0.43-0.319,0.609-0.351
		c0.759-0.138,1.309-0.67,1.987-0.951c0.581-0.242,1.255-0.945,1.63-1.566c0.072-0.119,0.172-0.22,0.274-0.348
		c0.307,0,0.621,0,0.936,0c0.455,1.045,0.387,1.178-0.305,2.001c-0.758,0.904-1.639,1.652-2.579,2.345
		c-0.058,0.042-0.094,0.129-0.154,0.147c-0.88,0.275-1.712,0.634-2.377,1.302c-0.348-0.14-0.555,0.25-0.879,0.229
		c-0.482-0.031-0.896,0.181-1.168,0.544c-0.299,0.396-0.717,0.534-1.135,0.668c-0.417,0.134-0.805,0.311-1.199,0.497
		c-0.579,0.272-1.217,0.41-1.929,0.478c-0.433,0.763-1.313,0.802-2.082,1.046c-0.7,0.22-1.357,0.545-2.063,0.761
		c-0.546,0.165-1.084,0.454-1.409,0.971c-0.31,0-0.597,0-0.87,0c-0.438,0.281-0.611,0.786-1.05,1.086
		c-0.241,0.164-0.265,0.646-0.399,1.019c0.658,0.178,1.125-0.074,1.53-0.48c0.345-0.346,0.702-0.634,1.19-0.786
		c0.18-0.056,0.344-0.214,0.567-0.188c0.464,0.053,0.859-0.187,1.268-0.33c0.531-0.188,1.026-0.479,1.558-0.67
		c0.582-0.208,1.202-0.011,1.752-0.096c0.72-0.36,1.389-0.729,2.116-0.993c0.218-0.08,0.417-0.073,0.617-0.063
		c0.667,0.028,1.228-0.285,1.645-0.704c0.62-0.624,1.313-0.869,2.141-0.811c0.743-0.812,1.983-0.833,2.577-1.717
		c0.21,0,0.35,0,0.484,0c0.148,0.246,0.05,0.5,0.074,0.723c-0.623,0.736-1.398,1.308-1.928,2.13
		c-0.266,0.415-0.663,0.737-1.241,0.889c-0.728,0.19-1.313,0.823-2.145,0.813c-0.081-0.002-0.161,0.121-0.246,0.18
		c-0.813,0.563-1.737,0.838-2.678,1.1c-0.342,0.095-0.711,0.277-0.914,0.621c-0.716-0.002-1.353,0.109-1.939,0.588
		c-0.34,0.278-0.848,0.394-1.299,0.478c-0.225,0.042-0.356,0.188-0.552,0.246c-0.463,0.136-0.618,0.78-1.051,0.826
		c-0.606,0.062-0.82,0.527-1.163,0.85c-0.324,0.305-0.632,0.62-0.884,1.023c-0.361,0.583-0.947,1.018-1.356,1.602
		c-0.355,0.507-0.953,0.498-1.255,0.457c-0.621-0.196-0.925-0.422-1.208-0.791c0-0.39,0-0.848,0-1.344
		C25.938,49.358,25.407,49.358,24.904,49.358z"/>
</g>
</svg>
