<?xml version="1.0" encoding="iso-8859-1"?>
<!-- Generator: Adobe Illustrator 16.0.0, SVG Export Plug-In . SVG Version: 6.00 Build 0)  -->
<!DOCTYPE svg PUBLIC "-//W3C//DTD SVG 1.1//EN" "http://www.w3.org/Graphics/SVG/1.1/DTD/svg11.dtd">
<svg version="1.1" id="Layer_1" xmlns="http://www.w3.org/2000/svg" xmlns:xlink="http://www.w3.org/1999/xlink" x="0px" y="0px"
	 width="72.18px" height="70.921px" viewBox="0 0 72.18 70.921" style="enable-background:new 0 0 72.18 70.921;"
	 xml:space="preserve">
<g>
	
	<path fill="currentColor" d="M24.526,52.423c0.041,0.965,0.417,1.881,0.2,2.859
		c-0.498,0.756-0.703,1.725-1.343,2.431c-0.63,0.697-1.43,1.201-2.184,1.752c-0.11-0.26-0.43-0.171-0.604-0.37
		c-0.329-0.374-0.607-0.742-0.583-1.276c0.021-0.468,0.004-0.937,0.004-1.507c0.134-0.057,0.342-0.144,0.456-0.19
		c-0.06-0.715-0.13-1.192-0.73-1.413c-0.185-0.067-0.327-0.264-0.474-0.416c-0.829-0.857-1.798-1.548-2.705-2.313
		c-1.186-0.999-2.123-2.236-2.606-3.765c-0.129-0.409-0.393-0.774-0.553-1.081c-0.42-1.801-0.417-3.537-0.001-5.342
		c0.255-0.237,0.358-0.613,0.356-1.054c-0.001-0.674,0.418-1.216,0.744-1.735c0.469-0.745,0.943-1.498,1.474-2.211
		c0.475-0.638,1.097-1.156,1.704-2.013c0.31-0.208,1.073-0.218,1.354-0.977c0.104-0.284,0.496-0.332,0.768-0.459
		c0.692-0.325,1.363-0.67,1.813-1.302c0.239,0,0.455,0,0.652,0c0.562-0.409,1.133-0.745,1.819-0.875
		c0.252-0.047,0.559-0.168,0.703-0.359c0.515-0.676,1.304-0.728,2.01-0.895c0.375-0.09,0.698-0.232,1.031-0.392
		c0.796-0.381,1.6-0.732,2.51-0.722c0.169,0.002,0.323,0,0.496-0.108c0.654-0.407,1.434-0.597,2.066-1.197
		c1.189,0.261,2.101-0.434,3.027-1.103c0.488-0.353,0.996-0.629,1.567-0.19c0.749-0.242,1.442-0.572,2.09-1.086
		c0.696,0.193,1.309-0.166,1.934-0.436c0.656-0.283,1.365-0.497,1.796-1.14c0.021-0.029,0.046-0.066,0.076-0.075
		c0.857-0.238,1.541-0.806,2.314-1.198c0.726-0.369,1.425-0.744,2.097-1.209c0.257-0.178,0.561-0.344,0.71-0.582
		c0.58-0.917,1.434-1.567,2.156-2.343c0.679-0.727,1.07-1.59,1.076-2.57c0.002-0.438,0.21-0.791,0.27-1.202
		c0.151-1.022,0.329-2.06,0.844-3.017c0.335,0,0.647,0,0.998,0c0.423,0.423,0.881,0.881,1.331,1.332
		c0.45,1.284,0.203,2.603,0.235,3.903c0.009,0.317-0.131,0.663-0.283,0.955c-0.556,1.065-1.104,2.136-1.687,3.188
		c-0.164,0.296-0.483,0.522-0.773,0.721c-0.101,0.068-0.288,0.084-0.337,0.206c-0.34,0.843-1.255,0.988-1.85,1.521
		c-0.108,0.098-0.286,0.182-0.406,0.299c-0.524,0.504-1.085,0.937-1.701,1.342c-0.597,0.392-1.203,0.758-1.827,1.095
		c-0.615,0.332-1.311,0.48-1.922,0.837c-0.577,0.337-1.119,0.731-1.749,0.99c-1.507,0.62-2.996,1.282-4.489,1.937
		c-0.826,0.363-1.048,0.425-1.782,0.438c-0.948,0.447-1.777,0.908-2.768,1.11c-0.9,0.184-1.841,0.489-2.481,1.258
		c-0.229,0-0.445,0-0.661,0c-0.575,0.637-1.361,0.927-2.148,1.057c-1.423,0.235-2.563,0.955-3.713,1.751
		c-1.029,0.712-1.959,1.59-3.134,2.068c-0.574,0.231-0.864,0.661-1.027,1.184c-0.064,0.202-0.071,0.403-0.252,0.546
		c-0.758,0.596-1.123,1.448-1.498,2.294c-0.041,0.093-0.113,0.172-0.214,0.321c0,0.355,0.033,0.786-0.009,1.21
		c-0.05,0.501,0.022,1.005,0.248,1.411c0.28,0.504,0.141,1.058,0.387,1.571c0.523,1.096,1.227,2.043,2.014,2.944
		c0.156,0.18,0.294,0.366,0.417,0.579c0.178,0.311,0.49,0.574,0.835,0.786c1.158,0.708,1.155,0.722,1.712,1.908
		C24.385,52.234,24.457,52.338,24.526,52.423z"/>
	<path fill="currentColor" d="M24.904,49.358c-0.341-0.47-0.96-0.538-1.226-1.074c0-0.466,0-0.968,0-1.464
		c-0.349-0.161-0.668-0.323-1.072-0.322c-0.595,0.003-1.029-0.328-1.292-0.863c-0.24-0.487-0.451-0.982-0.437-1.548
		c0.016-0.647,0.003-1.296,0.003-2c0.28-0.324,0.707-0.594,0.735-1.156c0.027-0.554,0.743-0.719,0.827-1.272
		c0.736-0.527,1.047-1.429,1.871-1.936c0.715-0.439,1.316-1.07,2.115-1.429c0.307-0.139,0.518-0.491,0.772-0.745
		c1.046-0.133,2.055-0.315,2.951-0.972c0.454-0.333,1.055-0.486,1.615-0.357c0.514-0.51,1.169-0.478,1.738-0.65
		c1.091-0.33,2.187-0.657,3.306-0.894c0.283-0.06,0.563-0.342,0.805-0.378c1.11-0.167,2.118-0.791,3.165-0.693
		c0.425-0.22,0.772-0.327,1.118-0.456c1.184-0.443,2.313-1.029,3.549-1.346c0.128-0.033,0.354-0.068,0.445-0.21
		c0.425-0.662,1.167-0.816,1.802-1.133c0.252-0.126,0.478-0.261,0.673-0.464c0.502-0.517,1.016-1.021,1.524-1.53
		c0.198-0.142,0.542,0.137,0.649-0.342c0.198,0.264,0.342,0.457,0.588,0.784c0.074,0.342-0.048,0.813-0.348,1.273
		c-0.266,0.407-0.379,0.849-0.887,1.153c-0.646,0.384-1.094,1.081-1.763,1.494c-0.379,0.232-0.695,0.573-1.087,0.771
		c-1.139,0.576-2.235,1.22-3.336,1.863c-0.372,0.218-0.834,0.426-1.291,0.514c-0.688,0.132-1.22,0.536-1.799,0.88
		c-0.571,0.34-1.093,0.777-1.768,0.95c-0.155,0.04-0.313,0.139-0.485,0.119c-0.681-0.078-1.281,0.204-1.853,0.483
		c-0.97,0.475-1.978,0.809-3.028,1.031c-0.331,0.07-0.614,0.356-1.031,0.176c-0.274,0.326-0.549,0.652-0.714,0.848
		c-1.233,0.209-2.094,0.725-2.849,1.428c-0.007,0.186-0.067,0.36,0.055,0.548c0.336,0,0.69,0,1.125,0
		c0.422-0.441,1.007-0.819,1.661-0.969c0.534-0.122,0.871-0.509,1.466-0.728c0.895,0.197,1.866-0.379,2.887-0.208
		c0.435-0.464,0.947-0.614,1.57-0.696c0.715-0.095,1.487-0.095,2.125-0.593c0.359-0.281,0.836-0.323,1.263-0.204
		c0.479-0.484,0.894-0.985,1.625-0.896c0.176,0.021,0.272-0.105,0.339-0.215c0.142-0.238,0.43-0.319,0.609-0.351
		c0.759-0.138,1.309-0.67,1.987-0.951c0.581-0.242,1.255-0.945,1.63-1.566c0.072-0.119,0.172-0.22,0.274-0.348
		c0.307,0,0.621,0,0.936,0c0.455,1.045,0.387,1.178-0.305,2.001c-0.758,0.904-1.639,1.652-2.579,2.345
		c-0.058,0.042-0.094,0.129-0.154,0.147c-0.88,0.275-1.712,0.634-2.377,1.302c-0.348-0.14-0.555,0.25-0.879,0.229
		c-0.482-0.031-0.896,0.181-1.168,0.544c-0.299,0.396-0.717,0.534-1.135,0.668c-0.417,0.134-0.805,0.311-1.199,0.497
		c-0.579,0.272-1.217,0.41-1.929,0.478c-0.433,0.763-1.313,0.802-2.082,1.046c-0.7,0.22-1.357,0.545-2.063,0.761
		c-0.546,0.165-1.084,0.454-1.409,0.971c-0.31,0-0.597,0-0.87,0c-0.438,0.281-0.611,0.786-1.05,1.086
		c-0.241,0.164-0.265,0.646-0.399,1.019c0.658,0.178,1.125-0.074,1.53-0.48c0.345-0.346,0.702-0.634,1.19-0.786
		c0.18-0.056,0.344-0.214,0.567-0.188c0.464,0.053,0.859-0.187,1.268-0.33c0.531-0.188,1.026-0.479,1.558-0.67
		c0.582-0.208,1.202-0.011,1.752-0.096c0.72-0.36,1.389-0.729,2.116-0.993c0.218-0.08,0.417-0.073,0.617-0.063
		c0.667,0.028,1.228-0.285,1.645-0.704c0.62-0.624,1.313-0.869,2.141-0.811c0.743-0.812,1.983-0.833,2.577-1.717
		c0.21,0,0.35,0,0.484,0c0.148,0.246,0.05,0.5,0.074,0.723c-0.623,0.736-1.398,1.308-1.928,2.13
		c-0.266,0.415-0.663,0.737-1.241,0.889c-0.728,0.19-1.313,0.823-2.145,0.813c-0.081-0.002-0.161,0.121-0.246,0.18
		c-0.813,0.563-1.737,0.838-2.678,1.1c-0.342,0.095-0.711,0.277-0.914,0.621c-0.716-0.002-1.353,0.109-1.939,0.588
		c-0.34,0.278-0.848,0.394-1.299,0.478c-0.225,0.042-0.356,0.188-0.552,0.246c-0.463,0.136-0.618,0.78-1.051,0.826
		c-0.606,0.062-0.82,0.527-1.163,0.85c-0.324,0.305-0.632,0.62-0.884,1.023c-0.361,0.583-0.947,1.018-1.356,1.602
		c-0.355,0.507-0.953,0.498-1.255,0.457c-0.621-0.196-0.925-0.422-1.208-0.791c0-0.39,0-0.848,0-1.344
		C25.938,49.358,25.407,49.358,24.904,49.358z"/>
</g>
</svg>
