<svg xmlns="http://www.w3.org/2000/svg" xml:space="preserve" width="72px" height="72px" viewBox="0 0 72 72">
    <path fill="currentColor" d="m20.443 43.76-.867-1.359c.159-.987-.251-1.896-.626-2.844.768-1.913.256-3.952.454-5.977.629-.644.828-1.492.852-2.295.256-.581.769-.943.625-1.58.246-.125.179-.437.374-.604.344-.295.614-.65.858-1.042.249-.4.607-.688.802-1.183.183-.467.702-.869 1.195-1.177.606-.378 1.263-1.099 1.564-1.656.408-.346.907-.279 1.259-.282 1.154-.559 2.033-1.319 2.884-1.921.299-.061.344.123.491.191h1.291c.26-.488.866-.492 1.271-.843.583-.122 1.23.153 1.83-.217.153-.094.445-.037.697.099.366.198.828.177 1.215.007.283-.124.462-.08.751.014.805.259 1.6.663 2.491.505.343-.061.625.141.842.302.5.372 1.06.561 1.612.812.884.401 1.758.862 2.504 1.528.549.49 1.11.975 1.682 1.43.354.281.521.68.871.944.37.279.671.65 1.002.981s.679.647.982 1.001c.099.115.065.338.271.446-.127.763.207 1.398.66 1.968.503.634.618 1.404.837 2.139.403 1.355.73 2.72.665 4.158-.023.508-.142 1.041.181 1.544.093.144.061.447-.084.7-.314.549-.389 1.175-.324 1.806.087.859-.265 1.54-.852 2.174v1.033c-.229.217-.396.459-.713.598-.553.244-.603.864-.807 1.351-.315.75-.523 1.589-1.212 2.077-.634.448-1.051 1.025-1.433 1.666-.106.18-.273.395-.455.448-.873.258-1.477.941-2.249 1.352-.058.03-.167.001-.196.04-.544.733-1.384.947-2.149 1.328-.56.279-1.142.421-1.713.55-.626.141-1.238.333-1.862.478-.86.198-.841.207-1.783.025-.519-.1-1.101-.147-1.596-.008-.42.118-.718.118-1.137.004-.396-.109-.773-.204-1.131-.415-.354-.209-.791-.198-1.158-.332-.969-.356-1.917-.765-2.92-1.035-.31-.084-.573-.353-.849-.549-.115-.083-.191-.26-.311-.29-1.123-.286-1.791-1.167-2.551-1.923-.879-.875-1.816-1.704-2.512-2.74-.45-.671-.944-1.313-1.321-2.04-.248-.48-.154-.95-.202-1.387m6.611.565c.55.43.959.918 1.247 1.464.257.488.618.8 1.074 1.044.441.235.9.665 1.331.641.716-.04 1.253.341 1.864.514.338.097.662.206.999.172.585-.06 1.079.13 1.498.433.228.038.284-.126.438-.236.987.226 1.968-.246 2.99-.196.446-.391.746-.593 1.246-.625.439-.027.693-.432 1.115-.446.521-.674 1.352-.966 1.914-1.635s1.083-1.386 1.709-2.01c.194-.193.317-.49.396-.803.154-.615.299-1.263.841-1.701.032-.834.042-1.661.185-2.501.161-.943.037-1.936.037-2.681-.62-1.613-1.083-3.086-2-4.143l-.672.258c.221.869.746 1.46 1.144 2.168.271 1.36-.951 1.863-1.633 2.733H41.28c-.28.381.089.557.13.895-.479.345-.123.873-.232 1.289l.321.35c.474.081.848-.39 1.287-.194.644.397.817 1.173 1.406 1.565.05.795.099 1.553-.563 2.16-.134.122-.067.465-.075.535l-.727.89h-1.359c-.379-.578-1.103-.741-1.45-1.267h-.684l-.396.396c-.387.114-.879-.18-1.171.309-.131 1.04-.016 2.074.175 2.909l-.508.691c-.554 0-1.089-.147-1.476.028-1.092.498-1.913.032-2.791-.535.192-.522-.39-.965-.167-1.415.212-.431.08-.905.366-1.248-.43-.465-.939-.528-1.386-.513-.36-.371-.415-.884-.852-1.021-.464.152-.599.569-.869.849-.319.329-.66.628-1.067.822-.351.168-.741.255-1.132.385-.249-.167-.384-.556-.772-.611zm-.651-10.841c-.773.571-.848 1.504-1.187 2.289-.115.265-.298.524-.25.877.05.364-.054.728-.161 1.106-.242.85.065 1.75.28 2.563.195.738.57 1.54 1.411 2.039 0-.35.02-.664-.005-.975-.027-.325.387-.529.221-.872.693-.811 1.561-1.314 2.598-1.481v-1.373c.28-.118.21-.454.413-.658-.443-.44-1.071-.413-1.584-.656-.613-.291-.917-.871-1.448-1.239.138-.58-.141-1.079-.288-1.62m6.789-1.502c0-.253.037-.408-.006-.536-.323-.964-.32-2.112.103-2.901.137-.255.175-.437.021-.681-.389 0-.782.015-1.174-.004-.421-.021-.755.401-1.201.182-.268.277-.651.497-.733.799-.126.46-.662.358-.779.739-.755.126-1.133.755-1.616 1.178-.105.374.071.586.313.777.278 0 .565.015.851-.003.447-.028.791.175 1.104.454.161.143.29.324.461.45.3.221.609.444 1.014.396.255-.147.353-.405.367-.436.429-.455.809-.453 1.275-.414m6.502.814c.443.128.663-.049.837-.288.338-.463.846-.741 1.288-.994.493-.282 1.021-.096 1.562-.264-.222-.724-.927-1.032-1.265-1.639-.218-.392-.806-.578-1.271-.884-.466-.004-1.007.072-1.411-.349-.447-.464-.996-.583-1.61-.502-.094.144-.299.203-.311.409.432.812.432.812.432 1.755v1.819l.317.317h.927c.168.208.37.455.505.62m-2.18 3.016c-.365-.59-.951-.693-1.417-1.009h-1.896c-1.006.71-1.478 1.728-2.088 2.736 0 .133.02.348-.003.559-.073.649.2 1.148.671 1.554.421.363.938.611 1.28 1.069.131.177.434.056.52.305 1.559.028 1.791-.034 2.705-.729-.01-.17.069-.349-.092-.561-.972-.026-1.993.583-3.24-.234-.401-.551-1.086-1.327-.972-2.448.455-.551 1.103-.815 1.643-1.179h1.409l1.333.669c.256-.244.092-.511.147-.732m-3.659-8.287c.173.332.544.371.818.555.394 0 .788.01 1.181-.002.406-.013.822.06 1.249-.067-.292-.396-.794-.412-.993-.79h-1.952zm12.967 4.357c.424.211.627.018.854-.26-.084-.283.1-.635-.084-.915h-.988v.948zm-22.72 11.954c-.33.04-.581-.057-.792.066v1.248c.293-.036.545.061.792-.084zm14.244-4.965c.09-.214.045-.458.147-.682.268-.588.023-1.091-.516-1.222v1.887zm-9.747-12.942c-.45-.067-.718.067-.814.467.118.178.216.36.467.391.366-.143.483-.413.347-.858m-5.981 12.046c-.188-.348-.441-.544-.872-.298.062.47.062.47.472.771.181-.096.344-.208.4-.473m6.486 11.818c-.055-.435-.314-.585-.716-.542-.058.007-.109.07-.165.107.037.164-.07.35.081.511.258.019.529.098.8-.076m17.737-5.609c-.028.413-.128.701.053.958.351.017.462-.191.551-.396.029-.198-.122-.261-.215-.352-.065-.065-.167-.094-.389-.21m-10.584 7.584c-.112-.361-.241-.579-.573-.585-.129.186-.445.269-.286.608.253.085.514.078.859-.023m6.301-25.002c-.142-.255.011-.448-.148-.597-.2-.02-.409-.124-.594.096.08.144-.073.336.104.501zm-.589 22.499c.143.255-.01.448.149.598.2.02.409.124.594-.097-.08-.144.072-.336-.104-.501zM26.496 32.94c.414-.197.414-.197.64-.656-.545-.038-.561-.038-.64.656m-2.376-1.731c-.146-.154-.29-.158-.433.006.016.099-.045.217.083.29.132.06.254.047.35-.083zm-3.759-5.505c.255.278.528.517.726.807.185.271.29.596.44.92-.173.229-.223.527-.273.898h-2.019c.382.517.575.997.974 1.343v.932c-.602.169-1.066.735-1.786.528-.326-.327-.689-.625-.971-.987-.681-.874-1.764-1.246-2.495-2.049-.279.092-.402-.205-.653-.256-.771-.158-1.393-.646-2.011-1.113-.374-.282-.362-.802-.685-1.126-.021-1.096-.021-1.096.424-2.175.205-.104.403-.246.623-.307.389-.107.69-.586 1.104-.421.645.257 1.417.231 1.897.897.579.803 1.432 1.312 2.26 1.817.266.163.565.356.955.306.459-.059.931-.014 1.49-.014m-3.169 1.661c.323.02.482.302.778.29.204-.009.344-.033.308-.371-.339-.006-.577-.493-1.036-.21zm35.541 3.087h-1.064c-.242-.276-.675-.448-.544-.959l-1.271-1.214c-.074-.404.091-.789-.343-1.059.44-.241.166-.765.666-1.064.839.202 1.604-.641 2.556-.436.221-.318.817-.22.763-.775.737-.297 1.342-.8 1.934-1.303.318-.27.69-.449 1.007-.726.339-.298.833-.285 1.285-.222a5 5 0 0 1 1.821 1.825v1.071c-.634.686-1.345 1.251-2.214 1.652-.43.198-.736.661-1.112 1.018-1.328.282-1.837.607-2.803 1.726-.172.197-.445.307-.681.466M33.191 11.583c.43-.503.789-1.049 1.464-1.408h1.463c.452.132.772.562 1.135.905.299.985.509 1.951-.174 2.883l-.001 1.483c-.21.133-.235.336-.202.69l.636.36c0 .754-.012 1.29.003 1.825.013.479.367.912.193 1.386l-.699.602c-.488.026-.842-.368-1.244-.78v-.92l-.372-.029v1.377l-.403.347c-.776.019-1.578-.024-1.992-.961-.125-.723.111-1.407.34-2.086.034-.1.066-.193.067-.294.002-1.077.128-2.175-.042-3.225-.117-.736-.134-1.454-.172-2.155m1.443 44.182.768.773 1.004-1.006h.828l.508.713c-.048-.181-.018-.116-.016-.051.036 1.075.066 2.149-.646 3.104.022.656-.152 1.377.432 1.938v3.238l-1.183 1.162h-1.544l-1.377-1.378c0-.092.042-.227-.007-.299-.262-.381-.214-.72-.004-1.123.368-.711.187-1.507.239-2.258.564-.648.512-1.25.018-1.935-.393-.544-.698-1.183-.3-1.891.167-.296-.126-.739.408-.989.205.002.517.002.872.002m16.95-8.455c-.652-.822-.676-.89-.676-1.847l.319-.319c.235 0 .486.017.734-.004.522-.042.938.155 1.297.521.528.538 1.065 1.068 1.637 1.64h.648l.811.812c1.068.16 1.911.796 2.723 1.448.519.416.598 1.449.145 2.032-.366.471-.548 1.158-1.293 1.269-.789.178-1.424-.075-2.053-.645-.467-.423-1.213-.573-1.49-1.195-.13-.293-.409-.387-.497-.695-.481.067-.866-.135-1.272-.32-.513-.233-1.011-.513-1.606-.554-.505-.034-.869-.38-1.154-.717-.119-.438.036-.783.277-1.185.357-.285.883-.257 1.45-.241m.56.286 1.221 1.22.383-.029c-.413-.546-.934-.792-1.604-1.191m-37.847 5.107h-.991c-1.224-.524-1.678-1.408-1.458-2.701.757-1.319 2.279-2.234 4.702-2.757.264-.79 1.075-1.19 1.5-1.925.204-.351.731-.491 1.238-.366.263.237.489.567.493.939.004.36-.323.688-.16 1.107.275.112.542.362.864.311l.631.727c.06.366-.422.653-.466 1.15-.772.293-1.576.556-2.457.491-1.257 1.063-2.616 2-3.896 3.024m1.892-3.476c.325-.18.673-.166 1.054-.287-.272-.3.406-.381.075-.782-.521.16-1.019.355-1.129 1.069"/>
</svg>
