<svg xmlns="http://www.w3.org/2000/svg" xml:space="preserve" width="72px" height="72px" viewBox="0 0 72 72">
    <g fill="currentColor">
        <path d="M41.057 59.3c.052.501.374.731.652 1.024.796.137 1.549-.433 2.353-.179.532.162.289.643.389.982.076.026.146.081.2.066.604-.157.976.473 1.551.445.55-.025 1.121-.099 1.632.279.103.211.039.457.032.705-.781.679-1.625 1.169-2.729.911-.438-.305-.233-1.052-.932-1.25h-.544l-.851.853h-1.268l-1.233 1.214v.476h-1.571l-.363-.246c0-.418.253-.545.999-.6.195-.167.382-.336.268-.732l-.676-.495c-.005.002-.166-.066-.351.026-.921.463-1.797 1.017-2.8 1.318-.631.189-.969.794-1.437 1.2-1.128.072-2.138-.316-3.213-.746.37-.588.83-1.08.935-1.718s.758-1.063.642-1.823c-.85-.16-1.569.456-2.467.402-.3.469-.826.858-1.326 1.027-.525.178-1.094.313-1.677.499l-.551-.659h-2.062l-.308-.318c-.117-.319.401-.509.158-.92l-.286-.256c-.817-.184-1.604.301-2.46.22-.575-.055-1.045-.178-1.523-.524-.535-.387-1.174-.627-1.828-.961-.194-.831-.995-1.311-1.389-2.074.18-.234.214-.564.519-.778.68-.037 1.427.103 2.293-.37l.614-.684c0-.555.019-1.201-.005-1.846-.022-.584.275-.996.681-1.336.5-.418 1.138-.561 1.746-.728.553-.152.934.339 1.411.491.148.048.249.249.357.365h1.717c.339.254.835.31.85.847h.47c.205-.103.122-.426.397-.603-.378-.319-.426-.853-.246-1.145.323-.521.141-.931-.046-1.35-.258-.573-.185-1.161-.207-1.734.155-.333.555-.3.723-.511.574-.213 1.036.191 1.56.176.502-.014 1.005-.003 1.5-.003.95 1 1.047 1.442.967 3.16l.561.388c.897.301 1.47-.357 1.91-.987.402-.577 1.048-1.012 1.123-1.808-.047-1.446.926-2.482 1.596-3.882 0-.451-.068-1.142.021-1.812.073-.546.229-1.077.205-1.642a.58.58 0 0 0-.185-.406c.22-.646.665-1.037 1.295-1.22.475.102.397.546.46.845.134.628.641 1.223.168 1.938-.133.2-.024.562-.019.849.005.25-.212.396-.238.665-.103 1.043.527 1.685 1.257 2.148.418.266.686.581.857.964.348.773.915 1.059 1.688 1.013.404-.384.566-.812.544-1.331-.024-.574-.006-1.151-.006-1.933-.009.003.204-.027.242-.126.219-.569.655-.831 1.209-.976.807-.211 1.455-.871 2.352-.838.239-.33.589-.182.891-.188.972-.018 1.944-.006 2.99-.006l.532-.578c-.021-.384-.421-.455-.521-.711-.703-.086-1.236.287-1.819.443-.368.097-.715.231-1.103.197-1.134-.098-2.244.134-3.338.25l-.563-.577c-.078-.649.078-1.218.587-1.688.194-.179.312-.442.484-.695 0-.256.037-.548-.008-.825-.152-.963.187-1.881.24-2.826.043-.716-.358-1.352-.244-2.072.081-.508-.02-1.021.204-1.539.183-.425-.155-.987.24-1.412-.103-.763.009-1.522-.137-2.308-.196-1.069-.271-2.212.328-3.266.243-.427.444-.927.092-1.459-.262-.395.041-.789.188-1.167l-.464-.902c-.036-.43.03-.922.19-1.435.385-1.231.31-1.615.026-2.841-.063-.27-.086-.61.025-.846.386-.815.427-1.666.391-2.594l.655-.516c.398.061.92-.033 1.49.168.678.239 1.337-.184 1.863-.634.543-.464 1.021-1.003 1.5-1.483.778-.095.879.707 1.244.827.447.81.386 1.547.386 2.28 0 .201-.024.39.117.602a.92.92 0 0 1 .003.994.83.83 0 0 0-.105.704c.067.258.214.479.207.779-.025 1.079.164 2.196-.057 3.229-.243 1.142-.119 2.254-.147 3.376-.014.562.204 1.129.32 1.693.104.513.224 1.033-.056 1.521-.121.212-.132.477-.054.609.339.569.146 1.172.197 1.757.03.34-.059.684.2 1.005.101.125.087.494-.023.606-.252.256-.124.536-.18.8-.108.522.604 1.033.019 1.556l-.014 1.614c-.002.576.026 1.153-.007 1.727-.039.705.197 1.347.358 2.012a2.8 2.8 0 0 1-.052 1.53c-.196.636-.6 1.235-.508 2.008.8.325 1.589.736 2.058 1.413.439 1.204.276 2.375.317 3.539.246.192.208.596.54.749h.638c.165-.221.431-.346.548-.628.33-.791.865-1.404 1.65-1.781.505-.244.423-.843.744-1.242-.688-.738.304-1.508-.057-2.253.548-.552 1.049-1.122 1.9-.5.376 1.258.762 2.165.295 2.974.184.359.34.733.558 1.065.403.62.405 1.199-.07 1.769.351.582.036.988-.327 1.419-.725.859-1.415 1.756-1.876 2.785-.294.654-.429 1.387-1.247 1.622-.061.46-.574.612-.696 1.006-.073.231-.239.341-.374.493-.354.4-.859.613-1.155 1.119-.282.48-.777.837-1.165 1.232-.295-.049-.521.008-.714.227-.291-.159-.659-.184-.897-.58v-.612l-.714-.547h-1.903c-1.063.513-2.182.64-3.006 1.365-.084.367.016.635.357.789 2.203-.444 2.133-.606 4.111-.201.223.883-.462 1.351-.894 1.93-.453 0-.888.038-1.313-.007-1.317-.143-2.597.236-3.905.259-.414.008-.854.225-1.292.157l-.54-.541c-.063-1.006.801-1.214 1.47-1.613v-.986c-.17-.372-.643-.161-.878-.326-.3-.209-.72-.049-.921-.392-.234.259-.587.339-.838.6-.659.682-.726.682-1.758.695-.494.486-1.377.527-1.52 1.337m-3.99-5.581c.382-.285.716-.409 1.075-.533.53-.182 1.112-.273 1.535-.729.85-.914 1.995-1.074 3.022-1.219.632.387 1.075.566 1.733.284.499-.215 1.037-.548 1.637-.468.448.06.8-.135 1.161-.327v-.444l-.699-.346c-.184.182-.352.272-.587.254-.322-.026-.767-.143-.947.02-.452.4-.981.002-1.413.269-.493.305-1.043.12-1.563.121-.528 0-1.051.05-1.521.246-.575.241-1.136.475-1.77.414-.205-.021-.314.158-.458.194-.538.135-.844.572-1.106.947-.735 1.047-1.624 1.894-2.723 2.537-.462.27-.71.694-.851 1.258h2.982l.304-.304c-.177-.721.309-1.402.189-2.174m11.428-1.27c.91.528 1.871.395 2.783.246.701-.114 1.369-.437 2.086-.322.687.159.936.765 1.284 1.259h.678c.464-.438.993-.854.985-1.572-.258-.385-.625-.584-1.055-.795-.322 0-.719.019-1.111-.008-.276-.018-.561.094-.833-.064-.386-.223-.75-.11-1.172-.015a4 4 0 0 1-1.956-.045c-.58-.157-.938-.676-1.559-.738-.08.098-.172.206-.291.35.577.482.356 1.1.161 1.704m-15.066 4.116c-.252-.184-.463-.194-.688.006-.586.521-1.321.806-2.004 1.154-.659.337-1.305.691-1.91 1.108-.348.24-.77.479-.833 1.025.683.102 1.315.116 1.88-.183.652-.346 1.443-.347 2.023-.852.287-.251.648-.274.986-.206.379.077.741.238 1.117.365.184-.246.694-.167.707-.691l-.476-.377h-.748c-.584-.473-.157-.921-.054-1.349m16.443-31.596c-.32 1.125.645 2.251-.143 3.396.35.209.248.694.742.857 0-.368-.013-.717.005-1.065.011-.204-.069-.414.063-.616.339-.521.059-1.104.148-1.652-.453-.268.051-.963-.561-1.162zm.402 10.705.412-.598c.076-.586-.117-1.221-.195-1.871-.084-.704-.02-1.427-.02-2.142 0-.036.009-.075-.001-.107-.02-.063-.05-.123-.079-.19h-.339c-.053.554.11 1.132-.333 1.645.427.514.662 1.069.549 1.531-.226.504-.5.787-.441 1.224zm.162-15.286v-1.283c-.602-.131-.325.511-.692.621.356.138.13.657.692.662"/>
        <path d="M27.74 32.68c.658.054 1.376.03 2.034-.355.27-.157.558-.045.836-.063.393-.024.789-.006 1.177-.006.454.438.833.963 1.506 1.08.663.89 1.876 1.11 2.498 2.137-.046.632-.788.333-1.087.673-.222.023-.278-.308-.56-.228-.528.153-1.003-.187-1.513-.261-.834-.121-.821-.197-1.682.027-.567.147-1.057-.226-1.599-.269-.1-.008-.213-.154-.37-.137-1.165.12-2.193-.426-3.271-.711-.186-.049-.374-.143-.581-.151-.362-.015-.739-.136-.881-.441-.234-.501-.677-.795-1.002-1.215.041-.545.444-1.047.06-1.811l-.439-.255c-.672-.159-1.445-.305-2.139-.667-.408-.213-.886-.085-1.255-.363-.958.153-1.86-.399-2.456-.263-1.173-.098-1.097-.979-1.59-1.409-.335-.087-.688-.218-1.052-.262-.388-.046-.786-.011-1.161-.042-.505-.155-.794-.569-1.169-.917v-1.297l-.667-.56v-1.233c-.325-.193-.906.159-1.077-.48.039-.638.772-.739 1.076-1.218-.049-.727.452-1.406.18-2.094.606-.803.994-1.657 1.643-2.319h.702c.558.735.806 1.67 1.368 2.511-.092.853.157 1.675.543 2.507.237.511.222 1.153-.049 1.731-.084.181-.063.41-.085.583.416.798 1.042 1.365 1.64 1.948.49.014.911.23 1.311.421.536-.141 1.048-.35 1.573-.39.359-.027.612-.259.988-.269.89-.023 1.674.297 2.482.555.836.267 1.61.646 2.318 1.189.686.528.747.729.581 1.584-.109.567-.427 1.11-.252 1.781.165.169.32.438.651.544.251.081.473.251.77.415m-10.947-1.454.312-.255c.306-.129.492.414.894.164.33 1.26 1.215 2.053 2.232 2.679-.044 1.018.431 1.71 1.233 2.33 1.251-.222 2.459.7 3.767.404.349.212.493.461.353.856h-1.37l-.38 1.295-.759.683c-.347-.317-.912-.139-1.366-.412a.55.55 0 0 0-.6.074c-.274.242-.695.217-.902.095-.446-.261-.893-.205-1.33-.171-.54.041-1.019-.177-1.56-.254-.601-.335-.676-1.035-.963-1.673-.597.005-1.105-.183-1.576-.593-.456-.397-.424-1.106-.97-1.392-.367.056-.468.304-.536.622h-1.065c-1.146-.45-2.094-1.154-3.234-1.493-.715-.213-1.2-.765-1.493-1.484.172-.253.213-.545.242-.862.023-.254.122-.593.236-.748.231-.314.138-.608.175-.91.017-.14-.044-.33.028-.417.49-.59-.009-1.011-.193-1.533.199-.358.301-.886.91-.935h1.763l.252.31c-.149.179-.132.489-.361.639-.096.877-.063 1.707.722 2.256 1.317.058 2.605.374 3.918.244.49.385 1.177.013 1.621.481m-.094 5.328.73-.487-.355-.393c-.304.13-.599.303-.914.285v.596zm5.564 8.663c-.258 0-.547.021-.832-.005-.706-.063-1.45-.035-2.05.258-.601.294-1.067.086-1.562-.052-.725-.203-1.437-.428-2.199-.418-.288.003-.576-.011-.863.002-.729.035-1.449-.044-2.185.187-.648.2-1.372-.074-2.072.214-.399.164-.923.029-1.376.029-.599-.477-.894-1.072-.75-1.868.161-.341.708-.259.843-.677-.203-.634-.73-1.141-.672-1.889.022-.291-.58-.8-1.23-1.234v-.962c.189-.079.435-.27.676-.263.439.014.896-.176 1.336.16.183.14.568.09.836.022.361-.089.718.106.859.255.639.669 1.46 1.116 2.069 1.808.035.04.004.137.004.202.287.257.712.247.966.543.984-.03 1.933.378 2.925.231.946.468 1.959.055 2.984.276.174.179-.043.497.087.774h.958c.263-.321.621-.509 1.097-.64.299.274.807.133 1.123.527 1.027-.783 2.104-1.243 3.446-1.142.34.748.831 1.458 1.518 1.985.002.595.002.595-.261.99-.828.02-1.622.359-2.479.271-.225-.023-.488.193-.712.334-.148.094-.249.261-.387.373-.499.408-1.037.485-1.596.132-.176-.109-.322-.269-.501-.423m4.842-8.36c.697.497 1.304.329 1.876.373.24.186.409.4.316.735-.277.071-.464.374-.799.338-.066-.011-.177 0-.193-.035-.243-.521-1.087-.478-1.2-1.411"/>
        <path d="M22.4 32.24h-1.011c-.039-.625.056-.815.411-.848.389-.036.504.112.6.848m-1.716.32-.316.316c-.192.013-.399.114-.566-.076-.036-.292.177-.412.372-.544.265-.046.314.235.51.304"/>
    </g>
</svg>
