<?xml version="1.0" encoding="iso-8859-1"?>
<!-- Generator: Adobe Illustrator 16.0.0, SVG Export Plug-In . SVG Version: 6.00 Build 0)  -->
<!DOCTYPE svg PUBLIC "-//W3C//DTD SVG 1.1//EN" "http://www.w3.org/Graphics/SVG/1.1/DTD/svg11.dtd">
<svg version="1.1" id="Layer_1" xmlns="http://www.w3.org/2000/svg" xmlns:xlink="http://www.w3.org/1999/xlink" x="0px" y="0px"
	 width="72.36px" height="71.459px" viewBox="0 0 72.36 71.459" style="enable-background:new 0 0 72.36 71.459;"
	 xml:space="preserve">
<g>
	<path style="fill-rule:evenodd;clip-rule:evenodd;fill:none;" d="M-6.984,78.839c0-28.584,0-57.167,0-85.751
		c28.8,0,57.6,0,86.399,0c0,28.584,0,57.167,0,85.751C50.616,78.839,21.816,78.839-6.984,78.839z M42.48,44.064
		c0-0.179,0.012-0.358-0.007-0.535c-0.006-0.056-0.101-0.098-0.141-0.155c-0.116-0.168-0.308-0.125-0.461-0.186
		c-0.907-0.354-1.832-0.518-2.79-0.391c-0.21,0.573,0.217,0.991,0.21,1.347c0.534,0.444,1.111,0.489,1.61,0.754
		c0.273-0.277,0.549-0.558,0.82-0.834c0.258,0,0.508,0,0.758-0.108c0,0.36,0,0.612,0,0.938c-0.128,0.1-0.297,0.231-0.424,0.331
		c-0.096,0.739,0.37,1.203,0.606,1.797c0,0.263,0,0.577,0,0.814c-0.443,0.601-0.736,1.292-1.595,1.187
		c-0.208-0.361-0.417-0.723-0.301-1.14c-0.198-0.198-0.376-0.376-0.553-0.553c-0.612-0.225-1.179,0.38-1.859,0.122
		c0.165-0.542-0.265-0.739-0.551-1.012c-0.202,0-0.382,0-0.584,0c-0.213,0.199-0.496,0.358-0.57,0.621
		c0.201,0.471,0.395,0.876,0.847,1.127c0.246,0,0.528,0,0.806,0c0.081,0.346,0.386,0.599,0.335,0.841
		c0.456,0.457,0.858,0.858,1.282,1.283c0.4,0.281,0.699-0.366,1.206-0.176c0.182,0.188,0.478,0.387,0.609,0.663
		c0.157,0.327,0.533,0.633,0.169,1.114c-0.188,0.247-0.145,0.663,0.026,1.002c0.234,0.466,0.19,0.99,0.043,1.435
		c-0.078,0.237-0.161,0.465-0.133,0.693c0.072,0.588-0.15,1.074-0.461,1.531c0.24,0.558,0.729,1.03,0.255,1.707
		c-0.199,0.285,0.073,0.658,0.223,0.941c-0.63,0.873,0.024,1.594,0.218,2.324c-0.197,0.411-0.466,0.544-0.827,0.401
		c-0.43-0.413-0.536-0.906-0.502-1.467c-0.247,0.029-0.4-0.036-0.499-0.185c-0.604,0.167-0.921,0.703-1.328,1.026
		c-0.29,0.073-0.558-0.094-0.758,0.129c-0.064,0.49,0.307,0.818,0.446,1.279c-0.324,0.239-0.504,0.604-0.699,1.064
		c0.357,0.191,0.41,0.645,0.717,0.933c0.314,0.296,0.634,0.591,0.911,0.92c0.191,0.229,0.408,0.257,0.624,0.234
		c0.454-0.241,0.546-0.799,1.022-0.979c0.465-0.175,0.342-0.957,0.971-0.979c0.444,0.807,0.743,1.67,1.28,2.424
		c0.755-0.169,1.388-0.462,1.809-1.036c0.295-0.477-0.28-0.795-0.167-1.223c0.127-0.478-0.25-0.86-0.22-1.315
		c-0.544-0.573-0.459-1.292-0.421-1.98c0.028-0.511-0.117-1.019,0.171-1.549c0.178-0.329,0.149-0.903-0.022-1.251
		c-0.158-0.324-0.146-0.607-0.152-0.909c-0.021-0.787-0.007-1.575-0.007-2.346c0.344-0.257,0.495-0.604,0.647-0.949
		c-0.262-0.577-0.232-0.611-0.141-1.065c0.122-0.599,0.371-1.172,0.358-1.798c-0.008-0.392-0.002-0.783-0.002-1.141
		c0.161-0.16,0.288-0.288,0.433-0.432c0-0.629,0.004-1.274-0.001-1.92c-0.006-0.677,0.153-1.291,0.66-1.794c0-0.347,0-0.704,0-1.081
		c0.171-0.05,0.201-0.299,0.402-0.285c0.486,0.087,0.413,0.634,0.74,0.835c0.606,0.231,1.016-0.297,1.319-0.371
		c0.519-0.068,0.682,0.241,0.954,0.26c0.096,0.521-0.027,0.965-0.403,1.336c0,0.428,0,0.86,0,1.306
		c-0.453,0.367-0.857,0.91-0.614,1.43c0.423,0.903,0.027,1.613-0.349,2.296c-0.551,1-0.66,2.003-0.38,3.156
		c0.224,0.92,0.718,1.609,1.311,2.144c0.034,0.537-0.051,1.013,0.115,1.373c0.229,0.499,0.234,1.054,0.081,1.437
		c-0.159,0.396-0.128,0.749-0.156,1.12c-0.033,0.429-0.008,0.861-0.008,1.309c0.609,0.491,1.021,1.264,1.88,1.397
		c0.823-0.416,0.838-0.411,1.132-1.291c0.063-0.191,0.182-0.302,0.305-0.411c0.345-0.306,0.386-0.345,0.549-0.818
		c-0.33-0.423-0.952-0.402-1.273-0.844c0-0.284,0.112-0.646-0.021-0.847c-0.464-0.703-0.06-1.156,0.325-1.628
		c0.593-0.086,1.035,0.154,1.42,0.523c0.139,0.573-0.521,0.898-0.412,1.547c0.151,0.128,0.364,0.309,0.596,0.504
		c0.099,0,0.239,0,0.291,0c0.801-0.748,0.176-1.402-0.078-2.069c0.188-0.384,0.364-0.741,0.562-1.143
		c0.679-0.115,1.114-0.788,1.9-0.951c-0.254-0.321,0.283-0.365,0.121-0.646c-0.132-0.556-0.589-1.102-0.359-1.66
		c0.409-0.998,0.019-1.85-0.21-2.772c-0.108-0.436-0.346-0.652-0.62-0.92c-0.506,0-1.004,0-1.493,0
		c-0.169-0.393-0.289-0.789-0.621-1.062c-0.719,0-1.438,0-2.158-0.001c-0.102-0.103-0.204-0.204-0.306-0.306
		c-0.164-0.888,0.433-1.65,0.415-2.514c0.44-0.447,0.449-1.125,0.791-1.544c0.388-0.321,0.908-0.295,1.129-0.735
		c-0.417-0.729-0.515-1.062-0.352-1.536c0.235-0.688,0.458-1.371,0.367-2.091c0.729-0.794,0.318-1.766,0.467-2.639
		c0.623-0.731,0.871-1.653,1.309-2.579c-0.155-0.099-0.336-0.213-0.443-0.281c0-0.43,0-0.743,0-1.005
		c0.156-0.286,0.451-0.262,0.622-0.434c-0.042-0.259,0.052-0.455,0.201-0.676c0.183-0.273-0.146-0.503-0.206-0.761
		c0.395-0.431,0.152-0.936,0.269-1.625c-0.132-0.04-0.354-0.107-0.503-0.152c0.058-0.391,0.343-0.478,0.417-0.622
		c0.139-0.579-0.115-1.106,0.226-1.622c0.129-0.195,0.117-0.614-0.078-0.91c-0.212-0.321-0.116-0.672-0.063-1.015
		c0.013-0.083,0.193-0.083,0.111-0.23c-0.371-0.672-0.034-1.4-0.193-2.146c-0.092-0.153-0.389-0.231-0.398-0.439
		c0.174-0.483,0.32-0.89,0.385-1.069c0.08-0.413-0.078-0.476-0.148-0.591c-0.413-0.677-0.747-1.344-0.712-2.208
		c0.018-0.44-0.093-1.124-0.78-1.244c-0.25-0.692-0.712-1.239-1.145-1.85c0-0.322,0-0.674,0-1.005
		c-1.08-0.914-1.421-2.157-1.816-3.573c-0.28-0.365-0.962-0.519-1.269-1.023c-0.429,0-0.783,0-1.12,0
		c-0.095,0.094-0.171,0.17-0.247,0.247c-0.246,0.57,0.145,1.065,0.185,1.563c0.331,0.507,0.858,0.743,1.294,1.095
		c0.008,0.467-0.408,0.851-0.257,1.208c0.591,0.757,0.892,1.521,0.562,2.3c-0.237,0.563-0.023,0.929,0.211,1.328
		c0.137,0.234,0.385,0.402,0.557,0.574c-0.007,0.287-0.255,0.378-0.247,0.627c0.019,0.557,0.407,1.057,0.235,1.64
		c-0.015,0.047,0.038,0.131,0.083,0.176c0.215,0.216,0.19,0.436,0.025,0.672c-0.213,0-0.505,0.091-0.629-0.016
		c-0.602-0.512-1.293-0.432-1.987-0.399c-0.279,0.28-0.56,0.56-0.843,0.843c-0.212,0-0.427,0-0.63,0
		c-0.186,0.185-0.362,0.363-0.588,0.588c0,0.329,0,0.716,0,1.12c-0.147,0.121-0.286,0.234-0.412,0.338c0,0.459,0,0.889,0,1.298
		c-0.271,0.309-0.467,0.624-0.426,1.036c0.386,0.513,0.71,1.051,0.983,1.643c0.281,0.608,1.094,0.749,1.472,1.317
		c0.518,0,1.02,0,1.523,0c0.198,0.24,0.527,0.373,0.59,0.836c-0.292,0.24-0.621,0.511-0.912,0.751c0,0.658,0,1.229,0,1.762
		c-0.363,0.418-0.366,1.022-0.853,1.284c0,0.317,0,0.604,0,0.873c-0.437,0.47-0.394,1.151-0.774,1.629
		C47.06,36.609,47,37.005,46.75,36.933c-0.28-0.251-0.612-0.269-0.994-0.163c-0.308,0.459-0.632,0.933-0.698,1.533
		c0.226,0.163,0.521,0.209,0.607,0.37c0.169,0.544-0.073,0.897-0.238,1.243c-0.568,0.249-1.116,0.489-1.641,0.719
		c0.006,0.312-0.125,0.618,0.064,0.782c0.639,0.555,0.536,1.369,0.814,2.012c-0.312,0.557-0.863,0.705-1.35,0.976
		c0.186,0.479,0.52,0.969-0.09,1.376c-0.422-0.36-0.474-0.753-0.104-1.185C42.944,44.42,42.766,44.242,42.48,44.064z M14.795,41.593
		c0-0.328,0-0.643,0-0.915c-0.113-0.113-0.19-0.189-0.276-0.276c-0.347,0-0.704,0-1.141,0c-0.176-0.466-0.699-0.583-1.039-0.87
		c-0.421-0.86-0.305-1.744-0.315-2.613c0.602-0.916-0.177-1.812-0.038-2.721c-0.404-0.497-0.175-1.008,0.058-1.446
		c0.201-0.378,0.292-0.653,0.059-1.055c-0.171-0.294-0.2-0.717,0.029-0.993c0.185-0.223-0.026-0.511,0.222-0.684
		c0.095,0.104,0.19,0.209,0.319,0.351c0,0.166-0.017,0.38,0.004,0.591c0.021,0.204-0.153,0.315-0.191,0.46
		c-0.071,0.269-0.145,0.666-0.005,0.834c0.305,0.37,0.133,0.75,0.193,1.118c0.027,0.169-0.02,0.329,0.066,0.513
		c0.439,0.941,0.71,1.926,0.575,2.935c0.377,0.377,0.708,0.708,1.038,1.04c0.022,0.022,0.032,0.058,0.006,0.009
		c0.189,0.398-0.164,0.578-0.174,0.773c0.09,0.47,0.449,0.673,0.672,0.961c0.346,0.448,0.08,0.901,0.227,1.315
		c0.153,0.479,0.536,0.792,0.829,1.089c0,0.264,0,0.443,0,0.637c-0.14,0.147-0.286,0.301-0.428,0.451c0,0.363,0,0.723,0,1.078
		c0.472,0.364,0.472,0.364,0.952,0.115c0.928,0.396,1.142,1.284,1.395,2.099c0.113,0.364,0.172,0.723,0.429,1.002
		c0.083,0.499,0.069,0.987-0.271,1.383c-0.139,0.162-0.132,0.315-0.133,0.488c-0.001,0.395,0,0.789,0,1.171
		c-0.325,0.337-0.695,0.617-0.809,1.092c-0.164,0.848-0.252,1.707-0.622,2.545c-0.308,0.695-0.425,1.502-0.493,2.271
		c-0.076,0.863-0.125,1.753,0.282,2.586c0.704,0.148,0.792,0.841,1.127,1.364c0.222-0.109,0.487,0.078,0.719-0.122
		c0.06-0.572-0.102-1.184,0.229-1.729c-0.147-1.029,0.428-2.007,0.178-3.041c0.403-0.203,0.455-0.625,0.695-0.932
		c-0.067-0.616,0.026-1.214,0.353-1.816c0.234,0.115,0.45,0.208,0.502,0.488c-0.129,0.379-0.453,0.666-0.441,1.117
		c0.015,0.588,0.104,1.189-0.198,1.751c-0.06,0.111-0.07,0.337,0.001,0.418c0.328,0.373,0.195,0.808,0.2,1.216
		c0.015,1.188,0.033,2.376-0.01,3.563c-0.014,0.386,0.226,0.636,0.3,0.963c0.295-0.041,0.439,0.365,0.953,0.188
		c0.116-0.067,0.406-0.235,0.611-0.354c0.23-1.414,0.364-2.742,0.318-4.087c-0.034-1.006-0.02-2.016,0.001-3.022
		c0.007-0.336-0.063-0.661,0.17-1.015c0.166-0.251,0.175-0.795,0.007-1.034c-0.272-0.386-0.149-0.75-0.177-1.12
		c-0.032-0.429-0.007-0.862-0.007-1.056c-0.179-0.742-0.723-1.027-0.805-1.587c0.779-1.24,1.275-2.681,2.544-3.579
		c-0.072-0.734-0.02-1.415,0.58-1.933c0.09-0.077,0.093-0.247,0.16-0.36c0.491-0.838,0.783-1.781,1.393-2.562
		c0.143-0.183,0.212-0.477,0.269-0.754c0.082-0.407,0.041-0.947,0.581-1.236c0,0.51,0,0.968,0,1.587
		c-0.151,0.12-0.401,0.319-0.667,0.53c0.261,0.947-0.379,1.808-0.117,2.829c-0.301,0.257-0.626,0.533-0.972,0.828
		c0.279,0.641-0.325,1.134-0.144,1.722c-0.779,0.203-1.264,0.638-1.548,1.379c0,0.369,0,0.795,0,1.222
		c-0.219,0.208-0.426,0.406-0.646,0.615c0.111,0.432-0.168,0.919,0.225,1.322c0.067,0.068,0.021,0.277-0.014,0.412
		c-0.253,0.984-0.253,0.983-0.01,1.896c0.036,0.133,0.087,0.329,0.023,0.41c-0.409,0.518-0.114,1.082-0.218,1.611
		c0.431,0.224,0.458,0.644,0.689,0.977c-0.134,0.15-0.271,0.299-0.25,0.537c0.061,0.691,0.33,1.357,0.233,2.07
		c-0.014,0.103,0.147,0.221,0.201,0.343c0.419,0.941,0.587,1.938,0.666,2.922c-0.165,0.165-0.292,0.293-0.436,0.436
		c-0.12,0.689,0.255,1.33,0.277,2.018c0.002,0.078,0.143,0.152,0.23,0.24c0.302,0,0.616,0,0.928,0
		c0.475-0.588,0.729-1.233,0.367-1.92c-0.248-0.471-0.054-0.896,0.159-1.148c0.39-0.463,0.55-1.005,0.727-1.454
		c0.513-0.444,1.221-0.318,1.507-0.855c0.252,0,0.432,0,0.627,0c0.208,0.211,0.505,0.361,0.54,0.508
		c0.016,0.619-0.541,0.445-0.66,0.872c-0.091,0.326-0.533,0.555-0.805,0.813c-0.055,0.604-0.064,1.152,0.416,1.589
		c0.68,0.486,1.256,0.343,1.929-0.16c0.542-0.406,1.048-0.866,1.62-1.235c0.406,0.292,0.637,0.699,0.821,1.234
		c-0.242,0.201-0.487,0.406-0.714,0.596c0.114,0.907-0.788,1.178-0.98,1.812c-0.459,0.122-0.613-0.224-0.801-0.372
		c-0.438,0-0.824,0-1.207,0c-0.234,0.376-0.51,0.693-0.456,1.147c0.387,0.522,1.098,0.266,1.567,0.668
		c0.291,0.249,0.755,0.045,0.971,0.074c0.628-0.19,1.033-0.48,1.517-0.654c0.991-0.356,1.69-1.005,1.793-2.162
		c0.041-0.455,0.261-0.894,0.395-1.328c-0.229-0.531-0.452-1.054-0.42-1.664c0.029-0.551,0.04-1.101-0.193-1.644
		c-0.201-0.467-0.428-0.797-0.981-0.74c-0.454-0.43-0.825-0.967-1.5-1.082c-0.292-0.74-0.94-0.647-1.5-0.646
		c-0.511-0.401-1.006-0.618-1.562-0.292c-0.258-0.125-0.497-0.247-0.741-0.354c-0.061-0.026-0.142-0.004-0.295-0.004
		c-0.261,0.108-0.423,0.665-0.923,0.384c-0.212-0.524-0.609-0.952-0.91-1.391c-0.027-0.39,0.054-0.798-0.098-1.082
		c-0.245-0.458-0.244-0.97-0.105-1.334c0.255-0.669,0.143-1.32,0.171-1.977c0.033-0.754,0.008-1.512,0.008-2.267
		c0.335-0.35,0.729-0.654,0.877-1.205c-0.213-0.599,0.288-1.167,0.203-1.801c0.25-0.35,0.589-0.585,0.996-0.737
		c0.275,0.359,0.813,0.438,1.077,0.845c0.972-0.032,1.817-0.258,2.45-0.986c0.228-0.263,0.515-0.39,0.82-0.502
		c0.174,0.311,0.196,0.674,0.539,0.969c0.237-0.083,0.349,0.301,0.652,0.284c0.489-0.251,0.415-0.652,0.334-1.022
		c-0.377-0.377-0.822-0.442-1.258-0.58c-0.048-1.04,0.65-2.106-0.099-3.131c-1.02-0.235-1.843-0.879-2.694-1.394
		c-0.096-0.61,0.324-1.012,0.476-1.485c0.143-0.445-0.027-1.112,0.595-1.368c0.01-0.309,0.236-0.538,0.233-0.882
		c-0.029-3.02-0.017-6.041-0.017-8.944c-0.237-0.459-0.421-0.817-0.672-1.304c-0.098-0.282,0.167-0.73-0.166-1.184
		c-0.28-0.382,0.258-0.833,0.192-1.295c-0.02-0.14,0.048-0.348-0.025-0.416c-0.323-0.3-0.174-0.67-0.187-1.006
		c-0.024-0.608-0.007-1.217-0.007-1.811c-0.44-0.602-0.864-1.182-1.309-1.79c0-0.322,0-0.679,0-1.043
		c-0.64-0.551-1.215-1.135-1.398-2.012c-0.079-0.377-0.357-0.662-0.662-0.852c-0.313,0-0.596,0-0.891,0
		c-0.067,0.169-0.303,0.214-0.284,0.441c0.035,0.384,0.25,0.689,0.452,1.026c-0.114,0.694,0.077,1.362,0.431,1.954
		c0.538,0.897,0.74,1.843,0.64,2.87c-0.01,0.103,0.01,0.208,0.016,0.3c0.264,0.209,0.311,0.539,0.527,0.78
		c0.233,0.26,0.46,0.669,0.301,1.038c-0.161,0.372-0.266,0.636-0.009,1.034c0.147,0.229,0.147,0.706,0.001,0.938
		c-0.301,0.479-0.153,0.961-0.185,1.438c-0.029,0.43-0.004,0.864-0.008,1.295c0,0.066-0.029,0.131-0.052,0.231
		c-0.187,0.176-0.396,0.374-0.59,0.557c0,0.454,0,0.885,0,1.404c0.125,0.09,0.297,0.216,0.41,0.298c0,0.298,0,0.509,0,0.592
		c-0.313,0.725-1.046,0.961-1.247,1.608c0.411,0.546,0.099,1.062-0.086,1.633c0.26,0.217,0.305,0.564,0.56,0.943
		c-0.442,0.15-0.463,0.615-0.74,0.955c0,0.332,0,0.686,0,1.041c-0.081,0.379-0.395,0.574-0.629,0.827c0,0.36,0,0.72,0,0.998
		c-0.197,0.407-0.461,0.689-0.668,0.998c-0.387,0.577-0.977,1.097-0.844,1.913c-0.295,0.346-0.057,0.995-0.649,1.18
		c-0.688-0.327-0.845-1.121-1.44-1.54c-0.863,0.179-1.689-0.434-2.619-0.143c-0.242,0.243-0.521,0.524-0.799,0.805
		c-0.103-0.104-0.205-0.205-0.324-0.324c0-0.448-0.051-0.921,0.012-1.378c0.092-0.675-0.198-1.242-0.553-1.713
		c-0.384-0.508-0.425-1.071-0.521-1.624c-0.094-0.54,0.143-1.026,0.602-1.534c0,0.518,0,0.904,0,1.252
		c0.14,0.14,0.242,0.242,0.343,0.344c0.17-0.018,0.352,0.072,0.47-0.026c0.304-0.27,0.41-0.592,0.523-0.918
		c-0.465-0.263-0.104-0.527-0.009-0.789c-0.168-0.296-0.241-0.65-0.548-0.847c-0.219,0-0.434,0-0.637,0
		c-0.282,0.134-0.297,0.452-0.479,0.657c-0.31-0.151-0.658-0.214-0.889-0.512c-0.053-0.888-0.404-1.753-0.25-2.635
		c-0.248-0.242-0.453-0.443-0.655-0.641c0-0.366,0-0.726,0.001-1.085c0.251-0.198,0.217-0.6,0.546-0.752c0.78,0,1.571,0,2.341,0
		c0.831-0.866,2.042-1.151,2.877-2.031c0.042-0.457,0.478-0.884,0.104-1.494c-0.195-0.318-0.142-0.895,0.191-1.226
		c-0.21-0.616-0.797-0.901-1.02-1.377c-0.42-0.898-1.32-1.216-1.953-1.844c-0.167-0.166-0.512-0.299-0.863-0.251
		c-0.447,0.06-0.908,0.015-1.359,0.015c0-0.466,0-0.825,0-1.328c0.233-0.225,0.539-0.521,0.861-0.832
		c-0.084-0.719,0.403-1.182,0.879-1.628c0-0.242,0-0.454,0-0.658c0.451-0.44,0.92-0.857,0.84-1.569
		c-0.38-0.03-0.784,0.058-0.987-0.105c-0.364-0.292-0.544,0.359-0.85,0.053c-0.402,0.642-1.174,0.875-1.629,1.465
		c0,0.299,0,0.582,0,0.901c-0.263,0-0.504,0-0.701,0c-0.584,0.499-0.812,1.228-1.438,1.616c0,0.406,0.08,0.821-0.019,1.188
		c-0.152,0.566-0.014,1.4-1.005,1.39c-0.076-0.001-0.152,0.143-0.267,0.257c0,0.346,0,0.733,0,1.05
		c-0.514,0.624-0.46,1.406-0.862,1.997c-0.05,0.074-0.05,0.241,0,0.314c0.404,0.586,0.116,1.235,0.224,1.851
		c-0.368,0.18-0.4,0.582-0.676,0.87c0.18,0.532-0.213,1.025-0.216,1.588c-0.003,0.583,0.188,1.204-0.203,1.746
		c0.299,0.361,0.217,0.784,0.185,1.415c-0.05,0.021-0.257,0.109-0.487,0.207c0.141,0.428,0.219,0.792,0.519,1.063
		c0,0.612-0.01,1.224,0.005,1.835c0.005,0.205-0.051,0.407,0.062,0.621c0.314,0.598,0.089,1.25,0.137,1.877
		c-0.549,0.614,0.036,1.064,0.225,1.565c0.026,0.658-0.138,1.354,0.417,1.862c-0.347,0.325-0.143,0.74-0.206,1.105
		c0.717,0.46,0.38,1.487,1.085,1.926c0.009,0.459,0.059,0.913-0.287,1.308c0.401,0.222,0.909-0.096,1.164,0.602
		c0.043,0.534-0.21,1.348,0.41,1.977c-0.048,0.126-0.199,0.167-0.211,0.34c-0.059,0.847,0.34,1.646,0.249,2.497
		c-0.008,0.072,0.179,0.158,0.181,0.24c0.014,0.516,0.516,1.027,0.016,1.555c-0.054,0.058-0.026,0.213-0.004,0.316
		c0.106,0.509-0.142,0.958-0.313,1.385c-0.166,0.413-0.138,0.682,0.077,1.057c0.291,0.509,0.568,1.008,1.061,1.418
		c0.516-0.381,1.219-0.465,1.619-1.202c-0.569-0.695-0.295-1.414,0.218-2.165c-0.397-0.14-0.287-0.451-0.289-0.726
		c-0.005-0.936,0.006-1.872-0.006-2.808c-0.003-0.27,0.122-0.582-0.182-0.786c-0.022-0.931-0.652-1.752-0.47-2.727
		c0.064-0.345-0.127-0.65-0.396-0.861c-0.273-0.215-0.468-0.446-0.461-0.812c0.007-0.355,0.002-0.711,0.002-0.985
		c-0.442-0.663-0.635-1.337-0.884-1.97c0.133-0.132,0.234-0.234,0.338-0.337c0.152,0.144,0.305,0.288,0.451,0.427
		C14.194,41.883,14.54,41.997,14.795,41.593z M62.975,51.333c0.089-0.414,0.054-0.739,0.171-1.096
		c0.229-0.688,0.142-1.481-0.302-2.08c-0.382-0.517-0.515-1.027-0.501-1.637c0.009-0.372,0.089-0.752-0.194-1.108
		c-0.209-0.263,0.19-0.488,0.208-0.784c-0.594-0.801-1.003-1.724-1.524-2.715c0.239-0.863-0.377-1.796-0.2-2.646
		c0.175-0.38,0.505-0.305,0.648-0.535c0-0.416,0-0.845,0-1.272c0.413-0.324,0.283-0.907,0.62-1.259
		c0.357-0.374,0.497-0.809,0.456-1.325c-0.028-0.357-0.005-0.718-0.005-1.077c-0.15-0.094-0.206-0.303-0.477-0.329
		c-0.374,0.214-0.725,0.56-1.121,0.808c-0.798,0.499-1.37,1.129-1.729,1.982c-0.077,0.184-0.169,0.38-0.308,0.517
		c-0.444,0.44-0.732,0.986-1.06,1.507c-0.034,0.055-0.04,0.127-0.079,0.261c0.276,0.093,0.246,0.348,0.235,0.599
		c-0.57,0.728-1.012,1.52-1.069,2.465c-0.016,0.267-0.217,0.347-0.333,0.511c-0.29,0-0.577,0-0.919,0
		c0.032,0.361-0.348,0.11-0.457,0.288c0,0.331,0,0.646,0,0.946c0.406,0.156,0.765,0.38,1.161,0.268
		c0.427,0.57,0.314,1.178,0.32,1.764c0.007,0.609,0.002,1.219,0.002,1.828c-0.115,0.354-0.509,0.589-0.417,1.097
		c0.115,0.085,0.288,0.212,0.433,0.318c-0.067,1.049,0.035,1.971,0.556,2.857c0.219,0.372,0.283,0.889,0.317,1.383
		c0.07,1.035-0.31,2.02-0.238,3.042c0.036,0.521-0.14,0.945-0.513,1.3c-0.323,0.117-0.7-0.103-1.023,0.157
		c0.076,0.163-0.064,0.361,0.062,0.463c0.7,0.3,1.107-0.403,1.698-0.376c0.311,0.016,0.343,0.469,0.685,0.434
		c0.401-0.177,0.544-0.805,1.138-0.641c0.177-0.183,0.351-0.364,0.544-0.563c0-0.907-0.007-1.841,0.001-2.775
		c0.01-0.947-0.384-1.864-0.217-2.823c0.026-0.156-0.12-0.265-0.136-0.371c-0.108-0.751-0.083-1.519-0.296-2.256
		c-0.01-0.033-0.016-0.083,0.001-0.106c0.382-0.507,0.143-1.08,0.225-1.611c-0.778-0.839-1.09-1.775-0.797-2.874
		c0.587,0.202,1.038,0.4,1.11,0.649c0.112,0.386,0.358,0.73,0.33,1.164c-0.028,0.43-0.006,0.862-0.006,1.294
		c0.635,0.739,0.809,1.636,0.619,2.531c-0.14,0.667-0.32,1.246,0.23,1.8c0.072,0.072,0.074,0.347,0.004,0.408
		c-0.374,0.327-0.128,0.741-0.163,0.881c0.239,0.344,0.4,0.575,0.512,0.734c0.444,0.106,0.64-0.232,0.893-0.27
		C62.412,52.485,62.395,51.771,62.975,51.333z M44.208,14.484c0-0.011-0.025-0.098,0.005-0.153c0.378-0.689,0.387-1.484,0.617-2.217
		c0.156-0.499-0.036-1.064-0.589-1.297c-0.288-0.121-0.558-0.324-0.62-0.529c-0.255-0.827-0.939-1.279-1.458-1.864
		c-0.803,0-1.592,0-2.402,0c-0.184,0.345-0.565,0.429-0.905,0.627c-0.096-0.295-0.344-0.182-0.546-0.192
		c-0.244-0.012-0.489-0.003-0.689-0.003c-0.425,0.426-0.806,0.806-1.001,1.002c-0.458,0.807,0.125,1.308,0.047,1.926
		c-0.08,0.636-0.018,1.289-0.018,1.959c0.603,0.458,0.994,1.18,1.74,1.496c0.539,0.228,1.05,0.498,1.372,0.947
		c0.271,0,0.482,0,0.665,0c0.229-0.142,0.305-0.449,0.789-0.406c0.252,0.372,0.743,0.185,1.148,0.189
		C42.94,15.404,43.761,15.301,44.208,14.484z M34.267,55.646c0.053,0.672-0.756,1.109-0.341,1.79
		c0.232,0.383,0.756,0.111,0.966,0.488c0.275-0.176,0.505-0.341,0.813-0.225c0.633,0.517,0.468,1.684,1.452,1.87
		c0.428-0.164,0.771-0.389,0.987-0.729c0-0.236,0-0.448,0-0.705c-1.058-0.396-1.426-1.387-1.811-2.159
		c-0.499-0.552-1.174-0.311-1.626-0.747c-0.032-0.304,0.091-0.672-0.17-0.912c0.217-0.454,0.764-0.488,1.025-0.865
		c0-0.222,0-0.437,0-0.646c-0.107-0.106-0.208-0.208-0.314-0.314c-0.499,0-1.001,0-1.501,0c-0.158-0.149-0.312-0.296-0.468-0.444
		c-0.289,0-0.575,0-0.898,0c-0.127-0.602-1.027-0.22-1.158-0.945c0.399-0.282,0.371-0.801,0.58-1.298
		c0.717,0.306,1.493,0.353,1.909,0.921c0.799,0.164,1.08-0.78,1.776-0.596c0.161,0.393,0.409,0.744,0.292,1.132
		c0.206,0.223,0.376,0.406,0.531,0.573c0.243,0,0.457,0,0.667,0c0.57-0.593,0.663-0.771,0.724-1.329
		c-0.352-0.787-1.271-0.354-1.691-0.924c-0.086-0.612,0.247-1.114,0.423-1.657c-0.324-0.714-0.794-1.271-1.585-1.486
		c-0.282,0.256-0.715,0.291-0.892,0.658c-0.315,0-0.601,0-0.885,0c-0.068,0.385-0.412,0.559-0.604,0.84
		c-0.245,0.358-0.798,0.089-0.961,0.5c-0.124,0.42,0.066,0.85-0.117,1.248c-0.68-0.297-0.996-0.294-1.714-0.004
		c-0.264-0.089-0.328-0.493-0.603-0.351c-0.23,0.164-0.459,0.328-0.689,0.492c-0.091,0.383,0.189,0.51,0.367,0.708
		c0.227,0.011,0.469,0.021,0.72,0.032c0.367,0.499,0.851,0.845,1.346,1.14c0,0.25,0,0.466,0,0.68
		c-0.104,0.104-0.205,0.205-0.276,0.275c-0.419,0.184-0.664-0.162-0.984-0.243c-0.08-0.417-0.375-0.633-0.705-0.841
		c-0.573,0.473-0.956,0.969-0.823,1.672c0.212,0.122,0.389,0.314,0.558,0.307c0.612-0.027,1.022,0.291,1.482,0.629
		c0.291,0.213,0.723,0.43,1.228,0.128c0.345-0.17,0.065-0.61,0.28-1.03c0.491-0.006,0.739-0.537,1.092-0.79
		c0.592-0.061,0.711,0.377,1.012,0.579c-0.406,0.498-0.224,1.007-0.213,1.443C33.517,55.074,34.041,55.285,34.267,55.646z
		 M36.156,24.376c0.326-0.496,1.037-0.456,1.331-0.936c0.292-0.478,0.477-1.021,0.687-1.49c-0.164-0.681-0.712-1.14-0.693-1.729
		c-0.409-0.664-1.051-0.942-1.566-1.351c-0.355-0.282-0.843-0.657-1.39-0.501c-0.721,0.207-1.5,0.427-1.888,1.122
		c-0.251,0.451-0.633,0.74-0.939,1.136c-0.011,0.224-0.117,0.511,0.05,0.697c0.453,0.502,0.357,1.1,0.365,1.618
		C33.106,24.398,34.545,24.516,36.156,24.376z M33.151,32.821c-0.471,0.059-0.943-0.159-1.272,0.377c0,0.394,0,0.851,0,1.259
		c-0.149,0.192-0.337,0.287-0.417,0.495c0.544,0.298,0.992,0.582,1.226,1.131c0.104,0.245,0.356,0.479,0.599,0.604
		c0.633,0.321,1.101,0.905,1.862,1.092c0.292,0,0.645,0,1.01,0c0.036-0.361,0.307-0.545,0.521-0.769
		c0.216-0.227,0.529-0.405,0.357-0.885c0.306-0.254,0.634-0.526,0.853-0.707c0.135-0.572-0.049-0.86-0.338-1.178
		c-0.265-0.291-0.316-0.736-0.243-1.165c-0.739-0.278-1.133-0.891-1.635-1.311c-0.613,0-1.184,0-1.763,0
		C33.683,32.118,33.217,32.278,33.151,32.821z M58.826,28.941c0.439,0.579,0.549,1.355,1.318,1.487c0.588,0,1.156,0,1.695,0
		c1.79-1.79,1.79-1.79,1.775-2.63c-0.565-0.874-1.097-1.693-1.642-2.533c-1.321-0.237-1.321-0.237-2.194,0.438
		c-0.533-0.246-0.533-0.246-1.305,0.092c0,0.423,0,0.852,0,1.306c-0.229,0.204-0.469,0.416-0.651,0.578c0,0.384,0,0.669,0,0.948
		c0.108,0.109,0.211,0.21,0.314,0.314C58.35,28.941,58.565,28.941,58.826,28.941z M38.153,28.738
		c-0.149-0.515,0.491-1.07,0.176-1.656c-0.671-0.821-1.637-0.996-2.492-1.37c-0.112-0.049-0.304-0.032-0.407,0.035
		c-0.387,0.254-0.955,0.239-1.154,0.754c-0.03,0.491,0.117,0.996-0.263,1.403c0.313,0.226,0.274,0.521,0.254,0.795
		c-0.036,0.519,0.143,0.942,0.509,1.289C36.078,30.116,37.352,30.176,38.153,28.738z M63.222,38.548
		c-0.067,1.108,0.257,2.084,0.9,2.916c0.637,0.054,1.098-0.132,1.466-0.531c0-0.298,0-0.584,0-0.836
		c-0.338-0.503-0.856-0.75-1.312-1.104c0.075-0.166-0.064-0.355,0.128-0.552c0.507,0.075,0.979-0.087,1.381-0.514
		c0-0.289,0-0.603,0-0.908c-0.269-0.229-0.439-0.601-0.878-0.516c-0.444,0.202-0.738,0.636-0.791,1.023
		C64.034,38.135,63.66,38.333,63.222,38.548z M19.497,39.058c0.44,0,0.897,0,1.268,0c0.387-0.521-0.21-0.882-0.097-1.331
		c0.115-0.459,0.354-0.9,0.16-1.376c-0.166-0.242-0.384-0.323-0.66-0.275c-0.326,0.202-0.559,0.49-0.704,0.896
		c-0.373,0-0.759,0-1.04,0c-0.495,0.284-0.334,0.649-0.321,0.974C18.553,38.364,18.909,38.858,19.497,39.058z M39.997,53.135
		c-0.487,0.014-1.031-0.148-1.271,0.42c-0.419,0-0.775,0-1.049,0c-0.396-0.212-0.687-0.473-1.153-0.413
		c-0.096,0.089-0.222,0.206-0.37,0.344c0.189,0.331,0.355,0.622,0.553,0.971c0.646-0.119,1.323,0.18,1.905-0.256
		c0.545,0.248,0.545,0.248,1.619,0.183c0.469-0.399,1.106-0.629,1.168-1.347c-0.392-0.309-0.392-0.309-1.023-0.283
		C40.25,52.881,40.123,53.009,39.997,53.135z M40.096,33.747c0.037,0.298-0.061,0.55,0.098,0.816
		c0.737,0.487,1.583,0.472,2.402,0.406c0.406-0.266,0.329-0.624,0.303-0.885c-0.282-0.314-0.518-0.578-0.729-0.813
		c-0.472,0-0.897,0-1.269,0C40.626,33.433,40.395,33.57,40.096,33.747z M38.538,42.334c0-0.403,0-0.811,0-1.107
		c-0.19-0.251-0.34-0.449-0.435-0.574c-0.392,0-0.7,0-0.978,0c-0.399,0.442-0.441,1.056-0.865,1.329c0,0.368,0,0.678,0,0.97
		C37.155,43.181,37.678,42.269,38.538,42.334z M40.754,37.875c-0.029-0.361,0.104-0.769-0.17-1.068
		c0.216-0.375,0.719-0.278,0.852-0.842c0.098-0.206-0.167-0.363-0.383-0.537c-0.337-0.099-0.542,0.09-0.732,0.321
		c0,0.139,0,0.281,0,0.542c-0.254,0.227-0.569,0.508-0.847,0.755c0,0.407,0,0.76,0,1.125c0.17,0.064,0.211,0.301,0.44,0.275
		C40.157,38.277,40.49,38.247,40.754,37.875z M44.592,38.588c0.168-0.551-0.187-0.889-0.195-1.313
		c-0.003-0.184-0.27-0.351-0.572-0.355c-0.376-0.006-0.604,0.257-0.908,0.35c0,0.44,0,0.867,0,1.29
		c0.181,0.181,0.357,0.357,0.534,0.535c0.214,0,0.428,0,0.635,0C44.265,38.916,44.441,38.74,44.592,38.588z M58.159,33.696
		c-0.308,0-0.595,0-0.912,0c-0.241,0.48-0.846,0.563-1.16,0.986c0.108,0.646,0.108,0.646,0.756,0.743
		c0.389-0.38,0.744-0.806,1.335-0.922c0.123-0.024,0.307-0.188,0.284-0.461C58.4,33.972,58.31,33.869,58.159,33.696z M55.81,38.706
		c-0.491-0.16-0.839,0.096-1.21,0.258c0,0.24,0,0.48,0,0.721c0.043-0.034,0.085-0.068,0.128-0.103
		c0.215,0.28,0.43,0.562,0.645,0.842c0.354,0.132,0.486-0.144,0.67-0.31C56.196,39.625,56.048,39.176,55.81,38.706z M34.68,43.5
		c-0.558-0.416-0.669-0.416-1.22-0.022c0,0.422,0,0.828,0,1.205c0.362,0,0.672,0,0.969,0C34.571,44.279,34.814,43.928,34.68,43.5z
		 M29.557,46.903c0,0.396,0,0.708,0,0.992c0.136,0.119,0.238,0.208,0.339,0.297c0.405-0.202,0.782-0.39,1.147-0.572
		c-0.141-0.604-0.411-0.964-0.698-0.964C30.028,46.543,29.886,46.952,29.557,46.903z M8.697,37.567
		c-0.212,0.273-0.668,0.422-0.55,1.008c0.27,0.177,0.411,0.624,0.983,0.5c0.098-0.218,0.454-0.299,0.512-0.558
		C9.336,38.209,9.069,37.941,8.697,37.567z M44.664,30.152c0.174,0.269,0.421,0.363,0.599,0.17c0.252-0.139,0.504-0.277,0.906-0.499
		c-0.528-0.209-0.375-0.69-0.88-0.896c-0.173-0.051-0.409,0.056-0.625,0.322C44.664,29.531,44.664,29.843,44.664,30.152z
		 M44.705,35.625c0.516-0.264,0.368-0.656,0.335-0.975c-0.304-0.411-0.652-0.317-0.972-0.269c-0.363,0.273-0.324,0.619-0.261,0.959
		C44.048,35.74,44.417,35.646,44.705,35.625z M40.783,41.857c-0.386-0.396-0.343-1-0.842-1.251c-0.62,0.142-0.62,0.142-0.685,0.777
		C39.666,41.792,40.133,42.006,40.783,41.857z M35.812,60.053c-0.285,0.221-0.506,0.392-0.647,0.501
		c-0.091,0.394,0.044,0.587,0.285,0.769c0.209,0,0.45,0,0.642,0c0.186-0.079,0.085-0.213,0.129-0.3
		c0.06-0.118,0.239-0.166,0.21-0.351c-0.102-0.2-0.207-0.407-0.315-0.619C35.977,60.053,35.834,60.053,35.812,60.053z
		 M47.919,33.517c-0.486,0-0.894,0-1.312,0c0.065,0.256-0.188,0.356-0.188,0.367c0.225,0.29,0.367,0.474,0.491,0.633
		C47.299,34.269,47.765,34.141,47.919,33.517z M42.419,26.979c0.106-0.402,0.161-0.771-0.25-1.038c-0.228,0-0.465,0-0.709,0
		c-0.105,0.402-0.161,0.771,0.251,1.038C41.938,26.979,42.175,26.979,42.419,26.979z M45.667,21.564
		c0.188-0.403-0.032-0.622-0.24-0.792c-0.354,0-0.663,0-0.95,0c-0.189,0.403,0.031,0.622,0.239,0.792
		C45.07,21.564,45.379,21.564,45.667,21.564z M37.555,55.577c-0.143,0.327,0.146,0.388,0.279,0.599
		c0.304-0.081,0.65,0.083,0.964-0.098c0.052-0.318,0.004-0.577-0.314-0.764c-0.199,0-0.437,0-0.667,0
		C37.71,55.421,37.611,55.52,37.555,55.577z M55.852,36.435c-0.236,0.184-0.663-0.178-0.615,0.419
		c0.219,0.116,0.411,0.124,0.615-0.001C55.852,36.765,55.852,36.668,55.852,36.435z M54.811,44.781
		c0.236-0.184,0.663,0.178,0.615-0.419c-0.219-0.117-0.41-0.125-0.615,0.001C54.811,44.451,54.811,44.546,54.811,44.781z
		 M44.327,24.183c0.102-0.105,0.208-0.214,0.339-0.349c-0.24-0.102-0.362-0.09-0.458,0.038
		C44.222,23.967,44.165,24.081,44.327,24.183z M44.642,17.604c-0.146-0.157-0.29-0.157-0.437,0
		C44.352,17.761,44.496,17.761,44.642,17.604z M64.942,35.964c-0.07-0.101-0.142-0.101-0.212,0
		C64.8,36.064,64.872,36.064,64.942,35.964z"/>
	<path fill="currentColor" d="M14.795,41.593c-0.255,0.403-0.601,0.29-0.921,0.312
		c-0.146-0.139-0.299-0.283-0.451-0.427c-0.104,0.103-0.205,0.205-0.338,0.337c0.249,0.633,0.442,1.307,0.884,1.97
		c0,0.274,0.005,0.63-0.002,0.985c-0.007,0.365,0.188,0.597,0.461,0.812c0.269,0.211,0.46,0.517,0.396,0.861
		c-0.182,0.975,0.448,1.796,0.47,2.727c0.304,0.204,0.179,0.517,0.182,0.786c0.012,0.936,0.001,1.872,0.006,2.808
		c0.002,0.274-0.109,0.586,0.289,0.726c-0.513,0.751-0.788,1.47-0.218,2.165c-0.4,0.737-1.103,0.821-1.619,1.202
		c-0.493-0.41-0.77-0.909-1.061-1.418c-0.215-0.375-0.243-0.644-0.077-1.057c0.171-0.427,0.418-0.876,0.313-1.385
		c-0.022-0.104-0.05-0.259,0.004-0.316c0.5-0.527-0.002-1.039-0.016-1.555c-0.002-0.082-0.189-0.168-0.181-0.24
		c0.091-0.851-0.307-1.65-0.249-2.497c0.012-0.173,0.163-0.214,0.211-0.34c-0.62-0.629-0.367-1.442-0.41-1.977
		c-0.255-0.697-0.763-0.38-1.164-0.602c0.346-0.395,0.296-0.849,0.287-1.308c-0.705-0.438-0.368-1.466-1.085-1.926
		c0.063-0.365-0.141-0.78,0.206-1.105c-0.554-0.509-0.391-1.204-0.417-1.862c-0.188-0.501-0.774-0.951-0.225-1.565
		c-0.048-0.627,0.177-1.279-0.137-1.877c-0.113-0.214-0.057-0.417-0.062-0.621c-0.015-0.611-0.005-1.223-0.006-1.835
		c-0.299-0.271-0.377-0.635-0.518-1.063c0.229-0.098,0.437-0.185,0.487-0.207c0.032-0.631,0.114-1.054-0.185-1.415
		c0.391-0.542,0.2-1.163,0.203-1.746c0.003-0.563,0.396-1.056,0.216-1.588c0.275-0.288,0.308-0.689,0.676-0.87
		c-0.108-0.616,0.18-1.265-0.224-1.851c-0.05-0.073-0.05-0.241,0-0.314c0.402-0.59,0.349-1.373,0.862-1.997c0-0.317,0-0.704,0-1.05
		c0.115-0.114,0.191-0.258,0.267-0.257c0.992,0.011,0.854-0.824,1.005-1.39c0.098-0.367,0.019-0.782,0.019-1.188
		c0.626-0.388,0.854-1.117,1.438-1.616c0.197,0,0.438,0,0.701,0c0-0.32,0-0.602,0-0.901c0.455-0.591,1.227-0.823,1.629-1.465
		c0.305,0.307,0.486-0.345,0.85-0.053c0.203,0.163,0.607,0.075,0.987,0.105c0.08,0.712-0.389,1.129-0.84,1.569
		c0,0.204,0,0.416,0,0.658c-0.476,0.446-0.963,0.91-0.879,1.628c-0.322,0.311-0.628,0.606-0.861,0.832c0,0.502,0,0.862,0,1.328
		c0.451,0,0.912,0.045,1.359-0.015c0.351-0.048,0.696,0.085,0.863,0.251c0.632,0.628,1.533,0.946,1.953,1.844
		c0.223,0.477,0.81,0.762,1.02,1.377c-0.333,0.332-0.386,0.908-0.191,1.226c0.374,0.609-0.062,1.037-0.104,1.494
		c-0.835,0.88-2.046,1.166-2.877,2.031c-0.77,0-1.561,0-2.341,0c-0.329,0.153-0.294,0.554-0.546,0.752c0,0.359,0,0.719,0,1.085
		c0.202,0.198,0.408,0.399,0.655,0.641c-0.154,0.882,0.197,1.747,0.25,2.635c0.23,0.298,0.579,0.361,0.889,0.512
		c0.182-0.205,0.197-0.522,0.479-0.657c0.203,0,0.418,0,0.637,0c0.307,0.197,0.38,0.551,0.548,0.847
		c-0.095,0.262-0.456,0.526,0.009,0.789c-0.113,0.326-0.219,0.648-0.523,0.918c-0.118,0.098-0.3,0.008-0.47,0.026
		c-0.102-0.102-0.204-0.204-0.343-0.344c0-0.348,0-0.734,0-1.252c-0.459,0.508-0.696,0.995-0.602,1.534
		c0.096,0.552,0.138,1.116,0.521,1.624c0.355,0.471,0.645,1.038,0.553,1.713c-0.063,0.457-0.012,0.93-0.012,1.378
		c0.119,0.119,0.221,0.221,0.324,0.324c0.279-0.28,0.558-0.562,0.799-0.805c0.929-0.291,1.755,0.321,2.619,0.143
		c0.595,0.419,0.752,1.213,1.44,1.54c0.592-0.185,0.354-0.834,0.649-1.18c-0.133-0.816,0.457-1.336,0.844-1.913
		c0.207-0.309,0.471-0.591,0.668-0.998c0-0.278,0-0.638,0-0.998c0.234-0.253,0.548-0.447,0.629-0.827c0-0.355,0-0.709,0-1.041
		c0.277-0.339,0.298-0.805,0.74-0.955c-0.255-0.378-0.3-0.726-0.56-0.943c0.185-0.572,0.497-1.087,0.086-1.633
		c0.201-0.647,0.934-0.883,1.247-1.608c0-0.083,0-0.294,0-0.592c-0.113-0.082-0.286-0.208-0.41-0.298c0-0.519,0-0.95,0-1.404
		c0.194-0.183,0.403-0.38,0.59-0.557c0.023-0.1,0.051-0.166,0.052-0.231c0.004-0.432-0.021-0.865,0.008-1.295
		c0.032-0.478-0.116-0.959,0.185-1.438c0.146-0.232,0.146-0.709-0.001-0.938c-0.257-0.398-0.152-0.663,0.009-1.034
		c0.159-0.369-0.068-0.777-0.301-1.038c-0.216-0.241-0.263-0.571-0.527-0.78c-0.006-0.093-0.026-0.198-0.016-0.3
		c0.101-1.027-0.102-1.972-0.64-2.87c-0.354-0.592-0.545-1.26-0.431-1.954c-0.202-0.336-0.417-0.642-0.452-1.026
		c-0.019-0.228,0.217-0.272,0.284-0.441c0.295,0,0.578,0,0.891,0c0.305,0.19,0.583,0.475,0.662,0.852
		c0.184,0.876,0.758,1.46,1.398,2.012c0,0.364,0,0.721,0,1.043c0.445,0.608,0.869,1.188,1.309,1.79c0,0.593-0.017,1.203,0.007,1.811
		c0.013,0.336-0.136,0.707,0.187,1.006c0.073,0.068,0.005,0.275,0.025,0.416c0.066,0.462-0.472,0.914-0.192,1.295
		c0.333,0.453,0.068,0.902,0.166,1.184c0.251,0.487,0.435,0.844,0.672,1.304c0,2.903-0.013,5.924,0.017,8.944
		c0.003,0.345-0.223,0.573-0.233,0.882c-0.622,0.256-0.452,0.923-0.595,1.368c-0.151,0.474-0.571,0.875-0.476,1.485
		c0.851,0.515,1.674,1.158,2.694,1.394c0.749,1.024,0.05,2.091,0.099,3.131c0.437,0.138,0.881,0.203,1.258,0.58
		c0.08,0.37,0.155,0.771-0.335,1.022c-0.303,0.017-0.415-0.367-0.651-0.284c-0.342-0.295-0.364-0.658-0.539-0.969
		c-0.305,0.112-0.592,0.239-0.82,0.502c-0.633,0.729-1.479,0.954-2.45,0.986c-0.264-0.406-0.802-0.485-1.077-0.845
		c-0.407,0.152-0.746,0.388-0.996,0.737c0.085,0.634-0.416,1.202-0.203,1.801c-0.148,0.551-0.542,0.855-0.877,1.204
		c0,0.756,0.025,1.514-0.008,2.268c-0.028,0.656,0.084,1.308-0.171,1.977c-0.139,0.364-0.139,0.876,0.105,1.334
		c0.152,0.284,0.071,0.692,0.098,1.082c0.301,0.438,0.698,0.866,0.91,1.391c0.5,0.281,0.662-0.275,0.923-0.384
		c0.153,0,0.235-0.022,0.295,0.004c0.245,0.106,0.483,0.229,0.741,0.354c0.556-0.326,1.051-0.109,1.562,0.292
		c0.56-0.001,1.208-0.094,1.5,0.646c0.675,0.115,1.046,0.652,1.5,1.082c0.554-0.057,0.781,0.273,0.981,0.74
		c0.233,0.543,0.222,1.093,0.193,1.644c-0.032,0.61,0.19,1.133,0.42,1.664c-0.134,0.435-0.354,0.873-0.395,1.328
		c-0.103,1.157-0.802,1.806-1.793,2.162c-0.483,0.174-0.888,0.464-1.517,0.654c-0.215-0.029-0.68,0.175-0.971-0.074
		c-0.47-0.402-1.181-0.146-1.567-0.668c-0.055-0.454,0.221-0.771,0.456-1.147c0.383,0,0.769,0,1.207,0
		c0.188,0.148,0.342,0.494,0.801,0.372c0.193-0.634,1.095-0.904,0.98-1.812c0.227-0.189,0.472-0.395,0.714-0.596
		c-0.185-0.535-0.415-0.942-0.821-1.234c-0.572,0.369-1.078,0.829-1.62,1.235c-0.673,0.503-1.249,0.646-1.929,0.16
		c-0.48-0.437-0.471-0.984-0.416-1.589c0.272-0.259,0.714-0.487,0.805-0.813c0.119-0.427,0.675-0.253,0.66-0.872
		c-0.034-0.146-0.331-0.297-0.54-0.508c-0.195,0-0.375,0-0.627,0c-0.286,0.537-0.994,0.411-1.507,0.855
		c-0.177,0.449-0.336,0.991-0.727,1.454c-0.213,0.253-0.407,0.678-0.159,1.148c0.362,0.687,0.108,1.332-0.367,1.92
		c-0.313,0-0.626,0-0.928,0c-0.087-0.088-0.228-0.162-0.23-0.24c-0.022-0.688-0.397-1.328-0.277-2.018
		c0.143-0.143,0.271-0.271,0.436-0.436c-0.079-0.984-0.246-1.98-0.666-2.922c-0.054-0.122-0.215-0.24-0.201-0.343
		c0.097-0.713-0.173-1.379-0.233-2.07c-0.021-0.238,0.116-0.387,0.25-0.537c-0.231-0.333-0.258-0.753-0.689-0.977
		c0.104-0.529-0.191-1.094,0.218-1.611c0.064-0.081,0.012-0.277-0.023-0.41c-0.243-0.912-0.243-0.911,0.01-1.896
		c0.035-0.135,0.081-0.344,0.014-0.412c-0.394-0.403-0.114-0.891-0.225-1.322c0.219-0.209,0.427-0.407,0.646-0.615
		c0-0.427,0-0.853,0-1.222c0.284-0.741,0.769-1.176,1.548-1.379c-0.181-0.588,0.423-1.081,0.144-1.722
		c0.346-0.295,0.67-0.571,0.972-0.828c-0.263-1.021,0.378-1.882,0.117-2.829c0.266-0.211,0.515-0.41,0.667-0.53
		c0-0.619,0-1.077,0-1.587c-0.54,0.289-0.499,0.829-0.581,1.236c-0.056,0.277-0.125,0.571-0.269,0.754
		c-0.609,0.78-0.902,1.724-1.393,2.562c-0.067,0.113-0.07,0.283-0.16,0.36c-0.6,0.518-0.651,1.198-0.58,1.933
		c-1.269,0.898-1.765,2.339-2.544,3.579c0.082,0.56,0.625,0.845,0.805,1.587c0,0.193-0.024,0.627,0.007,1.056
		c0.027,0.37-0.095,0.734,0.177,1.12c0.168,0.239,0.159,0.783-0.007,1.034c-0.232,0.354-0.163,0.679-0.17,1.015
		c-0.021,1.007-0.035,2.017-0.001,3.022c0.045,1.345-0.088,2.673-0.318,4.087c-0.205,0.119-0.495,0.287-0.611,0.354
		c-0.513,0.178-0.657-0.229-0.953-0.188c-0.074-0.327-0.314-0.577-0.3-0.963c0.043-1.187,0.025-2.375,0.01-3.563
		c-0.005-0.408,0.127-0.843-0.2-1.216c-0.071-0.081-0.062-0.307-0.001-0.418c0.302-0.562,0.213-1.163,0.198-1.751
		c-0.012-0.451,0.312-0.738,0.441-1.117c-0.053-0.28-0.268-0.373-0.502-0.488c-0.326,0.603-0.419,1.2-0.353,1.816
		c-0.24,0.307-0.292,0.729-0.695,0.932c0.25,1.034-0.325,2.012-0.178,3.041c-0.331,0.545-0.168,1.156-0.229,1.729
		c-0.231,0.2-0.497,0.013-0.719,0.122c-0.335-0.523-0.423-1.216-1.127-1.364c-0.407-0.833-0.357-1.723-0.282-2.586
		c0.068-0.77,0.185-1.576,0.493-2.271c0.37-0.838,0.458-1.697,0.622-2.545c0.114-0.475,0.484-0.755,0.809-1.092
		c0-0.382-0.001-0.776,0-1.171c0.001-0.173-0.006-0.326,0.133-0.488c0.34-0.396,0.353-0.884,0.271-1.383
		c-0.257-0.279-0.316-0.638-0.429-1.002c-0.253-0.814-0.467-1.703-1.395-2.099c-0.48,0.249-0.48,0.249-0.952-0.115
		c0-0.355,0-0.715,0-1.078c0.142-0.15,0.289-0.304,0.428-0.451c0-0.193,0-0.373,0-0.637c-0.293-0.297-0.676-0.61-0.829-1.089
		c-0.146-0.414,0.12-0.867-0.227-1.315c-0.223-0.288-0.582-0.491-0.672-0.961c0.011-0.195,0.363-0.375,0.174-0.773
		c0.025,0.049,0.016,0.014-0.006-0.009c-0.33-0.332-0.661-0.663-1.038-1.04c0.135-1.009-0.136-1.994-0.575-2.935
		c-0.086-0.184-0.039-0.344-0.066-0.513c-0.06-0.369,0.111-0.749-0.193-1.118c-0.139-0.168-0.065-0.565,0.005-0.834
		c0.038-0.145,0.211-0.256,0.191-0.46c-0.021-0.211-0.004-0.425-0.004-0.591c-0.129-0.142-0.224-0.247-0.319-0.351
		c-0.249,0.173-0.037,0.46-0.222,0.684c-0.229,0.276-0.2,0.699-0.029,0.993c0.232,0.401,0.142,0.676-0.059,1.055
		c-0.232,0.438-0.462,0.949-0.058,1.446c-0.139,0.909,0.64,1.805,0.038,2.721c0.01,0.869-0.106,1.753,0.315,2.613
		c0.339,0.287,0.862,0.404,1.039,0.87c0.438,0,0.794,0,1.141,0c0.086,0.087,0.163,0.163,0.276,0.276
		C14.795,40.951,14.795,41.265,14.795,41.593z M17.877,24.227c-0.119-0.243-0.219-0.449-0.347-0.71
		c-0.286,0.268-0.368-0.417-0.761-0.083c0.112,0.587,0.615,0.653,1.055,0.617c0.166,1.074-0.682,1.477-1.083,2.057
		c0.179,0.435,0.457,0.511,0.853,0.439c0.159-0.656,1.025-0.85,1.142-1.578C18.463,24.693,18.213,24.442,17.877,24.227z
		 M18.228,42.258c0.522,0.996,1.113,1.723,2.185,1.863c0.166,0.648-0.304,1.015-0.632,1.372c0.113,0.47,0.113,0.47,0.526,0.73
		c0.4-0.203,0.38-0.745,0.849-0.976c-0.334-0.737,0.346-1.395,0.119-2.193c-0.658-0.673-1.366-1.372-2.327-1.384
		C18.643,41.919,18.45,42.078,18.228,42.258z M13.968,24.352c0,0.38,0,0.811,0,1.213c0.27,0.345,0.321,0.936,0.958,0.788
		c0.376,0.436,0.879,0.11,1.292,0.234c0.12-0.12,0.222-0.221,0.314-0.314c0-0.179,0-0.348,0-0.57
		c-0.804-0.364-1.621-0.74-1.761-1.713C14.433,23.943,14.199,23.98,13.968,24.352z M12.581,28.048
		c0.125-0.541,0.107-0.898,0.058-1.245c-0.368-0.063-0.479,0.165-0.622,0.362C12.159,27.401,12.17,27.718,12.581,28.048z
		 M27.143,37.692c-0.071-0.101-0.143-0.101-0.214,0C27,37.792,27.072,37.792,27.143,37.692z"/>
	<path fill="currentColor" d="M42.48,43.956c0.286,0.286,0.464,0.465,0.641,0.641
		c-0.369,0.432-0.317,0.824,0.104,1.185c0.609-0.407,0.275-0.896,0.09-1.376c0.486-0.271,1.038-0.419,1.35-0.976
		c-0.278-0.643-0.176-1.457-0.814-2.012c-0.189-0.164-0.059-0.471-0.064-0.782c0.524-0.229,1.072-0.47,1.641-0.719
		c0.165-0.346,0.407-0.699,0.238-1.243c-0.086-0.161-0.382-0.207-0.607-0.37c0.066-0.601,0.391-1.074,0.698-1.533
		c0.382-0.105,0.714-0.088,0.994,0.163c0.25,0.072,0.311-0.324,0.567-0.213c0.381-0.478,0.338-1.159,0.774-1.629
		c0-0.27,0-0.556,0-0.873c0.486-0.262,0.489-0.866,0.853-1.284c0-0.532,0-1.104,0-1.762c0.291-0.24,0.62-0.511,0.912-0.751
		c-0.063-0.463-0.392-0.597-0.59-0.836c-0.504,0-1.006,0-1.523,0c-0.378-0.568-1.19-0.709-1.472-1.317
		c-0.273-0.592-0.598-1.13-0.983-1.643c-0.041-0.413,0.155-0.728,0.426-1.036c0-0.409,0-0.838,0-1.298
		c0.126-0.104,0.265-0.217,0.412-0.338c0-0.404,0-0.791,0-1.12c0.226-0.225,0.402-0.403,0.588-0.588c0.203,0,0.418,0,0.63,0
		c0.283-0.283,0.563-0.563,0.843-0.843c0.694-0.033,1.386-0.113,1.987,0.399c0.124,0.106,0.416,0.016,0.629,0.016
		c0.165-0.236,0.189-0.456-0.025-0.672c-0.045-0.044-0.098-0.129-0.083-0.176c0.172-0.583-0.217-1.083-0.235-1.64
		c-0.008-0.25,0.24-0.341,0.247-0.627c-0.172-0.172-0.42-0.34-0.557-0.574c-0.234-0.399-0.448-0.765-0.211-1.328
		c0.33-0.779,0.029-1.543-0.562-2.3c-0.151-0.357,0.265-0.741,0.257-1.208c-0.436-0.353-0.963-0.588-1.294-1.095
		c-0.04-0.498-0.431-0.993-0.185-1.563c0.076-0.077,0.152-0.153,0.247-0.247c0.337,0,0.691,0,1.12,0
		c0.307,0.504,0.988,0.658,1.269,1.023c0.396,1.416,0.736,2.66,1.816,3.573c0,0.331,0,0.684,0,1.005
		c0.433,0.611,0.895,1.158,1.145,1.85c0.688,0.121,0.798,0.804,0.78,1.244c-0.035,0.865,0.299,1.532,0.712,2.208
		c0.07,0.115,0.229,0.178,0.148,0.591c-0.064,0.179-0.211,0.586-0.385,1.069c0.01,0.208,0.307,0.287,0.398,0.439
		c0.159,0.746-0.178,1.474,0.193,2.146c0.082,0.147-0.099,0.147-0.111,0.23c-0.054,0.342-0.149,0.694,0.063,1.015
		c0.195,0.296,0.207,0.715,0.078,0.91c-0.341,0.515-0.087,1.043-0.226,1.622c-0.074,0.145-0.359,0.231-0.417,0.622
		c0.148,0.045,0.371,0.112,0.503,0.152c-0.116,0.689,0.126,1.194-0.269,1.625c0.061,0.258,0.389,0.488,0.206,0.761
		c-0.149,0.221-0.243,0.417-0.202,0.676c-0.17,0.172-0.465,0.148-0.621,0.434c0,0.262,0,0.576,0,1.005
		c0.107,0.068,0.288,0.183,0.443,0.281c-0.438,0.926-0.686,1.848-1.309,2.579c-0.148,0.873,0.263,1.845-0.467,2.639
		c0.091,0.72-0.132,1.403-0.367,2.091c-0.163,0.475-0.065,0.808,0.352,1.536c-0.221,0.44-0.741,0.414-1.129,0.735
		c-0.342,0.419-0.351,1.097-0.791,1.544c0.018,0.863-0.579,1.626-0.415,2.514c0.102,0.102,0.204,0.203,0.306,0.306
		c0.72,0.001,1.439,0.001,2.158,0.001c0.332,0.272,0.452,0.669,0.621,1.062c0.489,0,0.987,0,1.493,0
		c0.274,0.268,0.512,0.484,0.62,0.92c0.229,0.923,0.619,1.774,0.21,2.772c-0.229,0.559,0.228,1.104,0.359,1.66
		c0.162,0.28-0.375,0.324-0.121,0.646c-0.786,0.163-1.222,0.836-1.9,0.951c-0.197,0.401-0.373,0.759-0.562,1.143
		c0.254,0.667,0.879,1.321,0.078,2.069c-0.052,0-0.192,0-0.291,0c-0.231-0.195-0.444-0.376-0.596-0.504
		c-0.109-0.648,0.551-0.974,0.412-1.547c-0.385-0.369-0.827-0.609-1.42-0.523c-0.385,0.472-0.789,0.925-0.325,1.628
		c0.133,0.201,0.021,0.563,0.021,0.847c0.321,0.441,0.943,0.421,1.273,0.844c-0.163,0.474-0.204,0.513-0.549,0.818
		c-0.123,0.109-0.241,0.22-0.305,0.411c-0.294,0.88-0.309,0.875-1.132,1.291c-0.859-0.134-1.271-0.906-1.88-1.397
		c0-0.447-0.025-0.88,0.008-1.309c0.028-0.371-0.003-0.724,0.156-1.12c0.153-0.383,0.148-0.938-0.081-1.437
		c-0.166-0.36-0.081-0.836-0.115-1.373c-0.593-0.534-1.087-1.224-1.311-2.144c-0.28-1.153-0.171-2.156,0.38-3.156
		c0.376-0.683,0.771-1.393,0.349-2.296c-0.243-0.52,0.161-1.063,0.614-1.43c0-0.445,0-0.878,0-1.306
		c0.376-0.371,0.499-0.815,0.403-1.336c-0.272-0.019-0.436-0.328-0.954-0.26c-0.304,0.074-0.713,0.603-1.319,0.37
		c-0.327-0.2-0.254-0.747-0.74-0.834c-0.201-0.014-0.231,0.235-0.402,0.285c0,0.377,0,0.734,0,1.081
		c-0.507,0.503-0.666,1.117-0.66,1.794c0.005,0.646,0.001,1.291,0.001,1.92c-0.145,0.144-0.271,0.271-0.433,0.432
		c0,0.357-0.006,0.749,0.002,1.141c0.013,0.626-0.236,1.199-0.358,1.798c-0.092,0.454-0.121,0.488,0.141,1.065
		c-0.152,0.346-0.304,0.692-0.647,0.949c0,0.771-0.014,1.559,0.007,2.346c0.007,0.302-0.006,0.585,0.152,0.909
		c0.172,0.348,0.2,0.922,0.022,1.251c-0.288,0.53-0.143,1.038-0.171,1.549c-0.038,0.688-0.123,1.407,0.421,1.98
		c-0.03,0.455,0.347,0.838,0.22,1.315c-0.113,0.428,0.462,0.746,0.167,1.223c-0.421,0.574-1.054,0.867-1.809,1.036
		c-0.537-0.754-0.836-1.617-1.28-2.424c-0.629,0.021-0.506,0.804-0.971,0.979c-0.477,0.18-0.568,0.737-1.022,0.979
		c-0.216,0.022-0.433-0.006-0.624-0.234c-0.277-0.329-0.597-0.624-0.911-0.92c-0.307-0.288-0.359-0.741-0.717-0.933
		c0.195-0.46,0.375-0.825,0.699-1.064c-0.14-0.461-0.511-0.789-0.446-1.279c0.2-0.223,0.468-0.056,0.758-0.129
		c0.407-0.323,0.725-0.859,1.328-1.026c0.099,0.148,0.252,0.214,0.499,0.185c-0.034,0.561,0.072,1.054,0.502,1.467
		c0.361,0.143,0.63,0.01,0.827-0.401c-0.193-0.73-0.848-1.451-0.218-2.324c-0.149-0.283-0.422-0.656-0.223-0.941
		c0.474-0.677-0.015-1.149-0.255-1.707c0.311-0.457,0.533-0.943,0.461-1.531c-0.028-0.229,0.055-0.456,0.133-0.693
		c0.147-0.444,0.191-0.969-0.043-1.435c-0.171-0.339-0.214-0.755-0.026-1.002c0.364-0.481-0.012-0.787-0.169-1.114
		c-0.132-0.276-0.428-0.475-0.609-0.663c-0.507-0.19-0.806,0.457-1.206,0.176c-0.424-0.425-0.826-0.826-1.282-1.283
		c0.051-0.242-0.254-0.495-0.335-0.841c-0.277,0-0.56,0-0.806,0c-0.452-0.251-0.646-0.656-0.847-1.127
		c0.074-0.263,0.357-0.422,0.57-0.621c0.202,0,0.382,0,0.584,0c0.286,0.272,0.716,0.47,0.551,1.012
		c0.681,0.258,1.247-0.347,1.859-0.122c0.177,0.177,0.354,0.354,0.553,0.553c-0.116,0.417,0.093,0.778,0.301,1.14
		c0.858,0.105,1.151-0.586,1.595-1.187c0-0.237,0-0.552,0-0.814c-0.236-0.594-0.702-1.058-0.606-1.797
		c0.127-0.1,0.296-0.231,0.424-0.331C42.48,44.568,42.48,44.316,42.48,43.956z M52.816,32.365c0.403-0.553,0.386-1.201,0.68-1.729
		c-0.411-0.578-0.126-1.224-0.222-1.793c0.171-0.171,0.298-0.298,0.425-0.426c0.034-0.514,0.078-1.031-0.256-1.316
		c-0.489-0.252-0.631,0.041-0.823,0.274c0,0.63,0,1.274,0,1.884c-0.357,0.415-0.362,1.02-0.872,1.292
		c0.152,0.756-0.222,1.342-0.594,1.917c-0.525,0.812-1.014,1.624-0.903,2.651c0.021,0.2-0.101,0.412-0.126,0.584
		c-0.082,0.553-0.521,0.869-0.701,1.38c0,0.264,0,0.578,0,0.848c0.288,0.384,0.636,0.324,0.955,0.273
		c0.447-0.234,0.177-0.86,0.788-1.092c0.241,0,0.627,0,1.007,0c0.041-1.33,0.041-1.33,0.458-2.011c0-0.359,0-0.719,0-1.098
		c0.34-0.19,0.437-0.563,0.594-0.852C53.092,32.895,52.968,32.657,52.816,32.365z M47.791,41.401
		c-0.131,0.505-0.503,0.739-0.796,1.074c0.098,0.211-0.079,0.474,0.105,0.703c0.167,0.021,0.384,0.102,0.495-0.033
		c0.387-0.469,0.689,0.087,1.034,0.055c0.053,0.448,0.455,0.395,0.737,0.516c0.302,0.13,0.579,0.3,0.77,0.559
		c0.582-0.405,0.212-0.97,0.381-1.402c0.129-0.472,0.502-0.747,0.785-1.042c0-0.918,0-1.807,0-2.659
		c-0.11-0.11-0.186-0.187-0.287-0.287c-0.698-0.032-1.442,0.102-2.11-0.259c-0.136,0.128-0.238,0.226-0.357,0.34
		c0,0.298,0,0.61,0,0.925c0.4,0.311,0.675,0.7,0.877,1.244c-0.325,0.033-0.156,0.379-0.346,0.544
		C48.665,41.692,48.241,41.764,47.791,41.401z M51.58,53.051c0.348-0.779,1.046-1.363,1.306-2.282
		c-0.89-0.053-1.597,0.325-2.346,0.478c-0.11,0.021-0.279,0.208-0.269,0.3c0.051,0.433-0.341,0.744-0.25,1.206
		c0.087,0.444,0.019,0.92,0.019,1.309c0.18,0.297,0.319,0.527,0.474,0.781c0.32,0,0.633,0,0.897,0
		c0.688,0.648,1.481,0.398,2.186,0.458c0.35-0.332,0.568-0.669,0.556-0.931c-0.106-0.765-0.689-0.589-1.021-0.76
		c-0.359-0.187-0.89-0.042-1.346-0.042C51.802,53.291,51.714,53.149,51.58,53.051z M49.591,27.875
		c1.06-0.35,1.286-1.233,1.271-2.046c-0.016-0.898-0.777-1.357-1.555-1.661c-0.143,0.143-0.244,0.244-0.414,0.414
		c0.304,0.295,0.607,0.591,0.916,0.891c-0.078,0.884-1.045,1.042-1.527,1.697C48.744,27.419,49.157,27.642,49.591,27.875z"/>
	<path fill="currentColor" d="M62.975,51.333c-0.58,0.438-0.563,1.152-0.904,1.727
		c-0.253,0.037-0.448,0.376-0.893,0.27c-0.111-0.159-0.272-0.391-0.512-0.734c0.035-0.14-0.211-0.554,0.163-0.881
		c0.07-0.062,0.068-0.336-0.004-0.408c-0.551-0.554-0.37-1.133-0.23-1.8c0.189-0.896,0.016-1.792-0.619-2.531
		c0-0.432-0.022-0.864,0.006-1.294c0.028-0.434-0.218-0.778-0.33-1.164c-0.072-0.249-0.523-0.447-1.11-0.649
		c-0.293,1.099,0.019,2.035,0.797,2.874c-0.082,0.531,0.157,1.104-0.225,1.611c-0.017,0.023-0.011,0.073-0.001,0.106
		c0.213,0.737,0.188,1.505,0.296,2.256c0.016,0.106,0.162,0.215,0.136,0.371c-0.167,0.959,0.227,1.876,0.217,2.823
		c-0.008,0.935-0.001,1.868-0.001,2.775c-0.193,0.199-0.367,0.381-0.544,0.563c-0.594-0.164-0.736,0.464-1.138,0.641
		c-0.342,0.035-0.374-0.418-0.685-0.434c-0.591-0.027-0.998,0.676-1.698,0.376c-0.126-0.102,0.015-0.3-0.062-0.463
		c0.323-0.26,0.7-0.04,1.023-0.158c0.373-0.354,0.549-0.778,0.513-1.299c-0.071-1.022,0.309-2.007,0.238-3.042
		c-0.034-0.494-0.099-1.011-0.317-1.383c-0.521-0.887-0.623-1.809-0.556-2.857c-0.145-0.106-0.317-0.233-0.433-0.318
		c-0.092-0.508,0.302-0.742,0.417-1.097c0-0.609,0.005-1.219-0.002-1.828c-0.006-0.586,0.106-1.193-0.32-1.764
		c-0.396,0.112-0.755-0.111-1.161-0.268c0-0.301,0-0.615,0-0.946c0.109-0.178,0.489,0.073,0.457-0.288c0.342,0,0.629,0,0.919,0
		c0.116-0.164,0.317-0.244,0.333-0.511c0.058-0.945,0.499-1.737,1.069-2.465c0.011-0.251,0.041-0.506-0.235-0.599
		c0.039-0.134,0.045-0.206,0.079-0.261c0.327-0.521,0.615-1.066,1.06-1.507c0.139-0.137,0.23-0.333,0.308-0.517
		c0.358-0.854,0.931-1.484,1.729-1.982c0.396-0.248,0.747-0.593,1.121-0.808c0.271,0.025,0.326,0.234,0.477,0.329
		c0,0.359-0.023,0.72,0.005,1.077c0.041,0.516-0.099,0.951-0.456,1.325c-0.337,0.352-0.207,0.935-0.62,1.259
		c0,0.428,0,0.856,0,1.272c-0.144,0.23-0.474,0.155-0.648,0.535c-0.177,0.85,0.439,1.782,0.2,2.646
		c0.521,0.991,0.931,1.914,1.524,2.715c-0.018,0.296-0.417,0.521-0.208,0.784c0.283,0.356,0.203,0.736,0.194,1.108
		c-0.014,0.609,0.119,1.12,0.501,1.637c0.443,0.599,0.53,1.392,0.302,2.08C63.029,50.593,63.064,50.918,62.975,51.333z
		 M59.039,40.21c-0.396,0.082-0.277,0.539-0.575,0.717c0,0.454-0.01,0.916,0.003,1.378c0.013,0.439-0.061,0.889,0.061,1.34
		c0.421-0.308,0.633-0.693,0.803-1.114c-0.286-0.274-0.154-0.647-0.23-0.972c-0.098-0.411,0.401-0.675,0.2-1.088
		C59.206,40.377,59.105,40.277,59.039,40.21z"/>
	<path fill="currentColor" d="M44.208,14.484c-0.446,0.817-1.268,0.919-1.845,1.486
		c-0.405-0.004-0.896,0.183-1.148-0.189c-0.484-0.043-0.561,0.264-0.789,0.406c-0.183,0-0.394,0-0.665,0
		c-0.322-0.449-0.833-0.719-1.372-0.947c-0.746-0.315-1.138-1.038-1.74-1.496c0-0.671-0.062-1.324,0.018-1.959
		c0.078-0.619-0.506-1.119-0.047-1.926c0.196-0.196,0.577-0.576,1.001-1.002c0.2,0,0.445-0.009,0.689,0.003
		c0.202,0.01,0.45-0.103,0.546,0.192c0.34-0.199,0.722-0.283,0.905-0.627c0.811,0,1.6,0,2.402,0
		c0.519,0.585,1.203,1.037,1.458,1.864c0.063,0.205,0.332,0.408,0.62,0.529c0.553,0.233,0.745,0.799,0.589,1.297
		c-0.23,0.733-0.239,1.528-0.617,2.217C44.182,14.387,44.208,14.473,44.208,14.484z M39.567,13.067
		c0.742-0.811,1.587-0.021,2.373-0.109c0.443-0.422,0.627-0.877,0.509-1.433c-0.263-0.287-0.577-0.475-0.936-0.521
		c-0.911,0.318-1.914,0.373-2.483,1.245C38.966,12.591,39.118,12.806,39.567,13.067z"/>
	<path fill="currentColor" d="M34.267,55.646c-0.227-0.361-0.75-0.572-0.802-1.136
		c-0.01-0.437-0.192-0.945,0.213-1.443c-0.301-0.202-0.419-0.64-1.012-0.579c-0.353,0.253-0.601,0.784-1.092,0.79
		c-0.215,0.42,0.065,0.86-0.28,1.03c-0.505,0.302-0.938,0.085-1.228-0.128c-0.46-0.338-0.87-0.656-1.482-0.629
		c-0.168,0.008-0.346-0.185-0.558-0.307c-0.133-0.703,0.25-1.199,0.823-1.672c0.33,0.208,0.625,0.424,0.705,0.841
		c0.32,0.081,0.565,0.427,0.984,0.243c0.071-0.07,0.172-0.172,0.276-0.275c0-0.214,0-0.43,0-0.68
		c-0.495-0.295-0.979-0.641-1.346-1.14c-0.251-0.011-0.493-0.021-0.72-0.032c-0.178-0.198-0.458-0.325-0.367-0.708
		c0.23-0.164,0.459-0.328,0.689-0.492c0.275-0.143,0.339,0.262,0.603,0.351c0.719-0.29,1.034-0.293,1.714,0.004
		c0.183-0.398-0.007-0.828,0.117-1.248c0.163-0.411,0.716-0.142,0.961-0.5c0.192-0.281,0.536-0.455,0.604-0.84
		c0.284,0,0.57,0,0.885,0c0.177-0.367,0.61-0.402,0.892-0.658c0.791,0.215,1.261,0.772,1.585,1.486
		c-0.176,0.543-0.509,1.045-0.423,1.657c0.42,0.57,1.34,0.137,1.691,0.924c-0.061,0.558-0.153,0.736-0.724,1.329
		c-0.209,0-0.424,0-0.667,0c-0.154-0.167-0.325-0.351-0.531-0.573c0.117-0.388-0.132-0.739-0.292-1.132
		c-0.696-0.185-0.977,0.76-1.776,0.596c-0.416-0.568-1.192-0.615-1.909-0.921c-0.209,0.497-0.181,1.016-0.58,1.298
		c0.131,0.726,1.03,0.344,1.158,0.945c0.323,0,0.609,0,0.898,0c0.157,0.148,0.311,0.295,0.468,0.444c0.5,0,1.003,0,1.501,0
		c0.106,0.106,0.208,0.208,0.314,0.314c0,0.21,0,0.425,0,0.646c-0.261,0.377-0.809,0.411-1.025,0.865
		c0.261,0.24,0.138,0.608,0.17,0.912c0.452,0.437,1.128,0.195,1.626,0.747c0.385,0.772,0.753,1.763,1.811,2.159
		c0,0.257,0,0.469,0,0.705c-0.216,0.34-0.56,0.564-0.987,0.729c-0.984-0.187-0.819-1.354-1.452-1.87
		c-0.309-0.116-0.539,0.049-0.813,0.225c-0.21-0.377-0.733-0.105-0.966-0.488C33.511,56.755,34.32,56.318,34.267,55.646z"/>
	<path fill="currentColor" d="M36.156,24.376c-1.611,0.14-3.05,0.022-4.044-1.433
		c-0.008-0.518,0.088-1.115-0.365-1.618c-0.167-0.186-0.062-0.473-0.05-0.697c0.306-0.396,0.688-0.685,0.939-1.136
		c0.388-0.695,1.167-0.916,1.888-1.122c0.547-0.156,1.035,0.219,1.39,0.501c0.516,0.409,1.157,0.687,1.566,1.351
		c-0.019,0.589,0.529,1.048,0.693,1.729c-0.21,0.468-0.395,1.012-0.687,1.49C37.193,23.92,36.482,23.88,36.156,24.376z M35.261,21.6
		c-0.386,0-0.74-0.005-1.092,0.007c-0.04,0.001-0.075,0.102-0.115,0.159c-0.022,0.255,0.212,0.332,0.338,0.482
		c0.357,0,0.711,0.005,1.063-0.007c0.04-0.001,0.075-0.102,0.112-0.156C35.609,21.865,35.407,21.795,35.261,21.6z"/>
	<path fill="currentColor" d="M33.151,32.821c0.066-0.543,0.532-0.704,0.76-1.056c0.58,0,1.15,0,1.763,0
		c0.501,0.42,0.896,1.033,1.635,1.311c-0.073,0.429-0.021,0.874,0.243,1.165c0.289,0.317,0.473,0.605,0.338,1.178
		c-0.219,0.181-0.547,0.452-0.853,0.707c0.172,0.48-0.141,0.659-0.357,0.885c-0.214,0.224-0.485,0.407-0.521,0.769
		c-0.365,0-0.718,0-1.01,0c-0.762-0.187-1.229-0.771-1.862-1.092c-0.243-0.125-0.495-0.359-0.599-0.604
		c-0.234-0.549-0.681-0.833-1.226-1.131c0.08-0.208,0.268-0.303,0.417-0.495c0-0.408,0-0.865,0-1.259
		C32.208,32.662,32.68,32.88,33.151,32.821z M33.536,34.173c0.218,0.411,0.315,0.777,0.623,1.029
		c0.242-0.016,0.493,0.071,0.743-0.07c0-0.164,0-0.333,0-0.481C34.56,34.292,34.195,34.062,33.536,34.173z"/>
	<path fill="currentColor" d="M58.826,28.941c-0.261,0-0.476,0-0.688,0
		c-0.104-0.104-0.206-0.206-0.314-0.314c0-0.278,0-0.564,0-0.948c0.183-0.162,0.422-0.374,0.651-0.578c0-0.454,0-0.883,0-1.306
		c0.771-0.337,0.771-0.337,1.305-0.092c0.873-0.675,0.873-0.675,2.194-0.438c0.545,0.84,1.076,1.659,1.642,2.533
		c0.015,0.84,0.015,0.84-1.775,2.63c-0.539,0-1.107,0-1.695,0C59.375,30.296,59.265,29.521,58.826,28.941z M61.272,27.913
		c-0.356-0.082-0.714-0.065-1.18,0.001c0.207,0.359,0.36,0.646,0.538,0.918c0.046,0.07,0.166,0.092,0.309,0.165
		c0.105-0.143,0.206-0.28,0.333-0.451C61.272,28.393,61.272,28.183,61.272,27.913z"/>
	<path fill="currentColor" d="M38.153,28.738c-0.801,1.438-2.075,1.377-3.376,1.25
		c-0.366-0.347-0.545-0.77-0.509-1.289c0.02-0.274,0.059-0.569-0.254-0.795c0.38-0.407,0.233-0.913,0.263-1.403
		c0.199-0.516,0.767-0.5,1.154-0.754c0.103-0.067,0.294-0.084,0.407-0.035c0.855,0.375,1.821,0.549,2.492,1.37
		C38.644,27.668,38.003,28.224,38.153,28.738z"/>
	<path fill="currentColor" d="M63.222,38.548c0.438-0.215,0.812-0.413,0.895-1.021
		c0.053-0.387,0.347-0.821,0.791-1.023c0.438-0.085,0.609,0.288,0.878,0.516c0,0.306,0,0.619,0,0.908
		c-0.402,0.427-0.874,0.589-1.381,0.514c-0.192,0.196-0.053,0.386-0.128,0.552c0.455,0.354,0.974,0.601,1.312,1.104
		c0,0.252,0,0.538,0,0.836c-0.368,0.399-0.829,0.585-1.466,0.531C63.479,40.632,63.155,39.657,63.222,38.548z"/>
	<path fill="currentColor" d="M19.497,39.058c-0.588-0.2-0.944-0.694-1.394-1.113
		c-0.014-0.324-0.174-0.689,0.321-0.974c0.281,0,0.667,0,1.04,0c0.145-0.405,0.377-0.693,0.704-0.896
		c0.276-0.047,0.494,0.033,0.66,0.275c0.193,0.476-0.045,0.917-0.16,1.376c-0.113,0.449,0.484,0.811,0.097,1.331
		C20.394,39.058,19.937,39.058,19.497,39.058z"/>
	<path fill="currentColor" d="M39.997,53.135c0.126-0.126,0.253-0.254,0.38-0.381
		c0.632-0.026,0.632-0.026,1.023,0.282c-0.062,0.718-0.699,0.947-1.168,1.347c-1.074,0.065-1.074,0.065-1.619-0.183
		c-0.582,0.436-1.26,0.137-1.905,0.256c-0.198-0.349-0.364-0.64-0.553-0.971c0.148-0.138,0.274-0.255,0.37-0.344
		c0.467-0.06,0.757,0.201,1.153,0.413c0.273,0,0.63,0,1.049,0C38.965,52.987,39.509,53.149,39.997,53.135z"/>
	<path fill="currentColor" d="M42.48,44.064c-0.25,0-0.5,0-0.758,0c-0.271,0.276-0.547,0.557-0.82,0.834
		c-0.499-0.265-1.076-0.31-1.61-0.754c0.007-0.355-0.42-0.773-0.21-1.347c0.958-0.127,1.883,0.037,2.79,0.391
		c0.153,0.061,0.345,0.018,0.461,0.186c0.04,0.058,0.135,0.1,0.141,0.155C42.492,43.706,42.48,43.885,42.48,44.064z"/>
	<path fill="currentColor" d="M40.096,33.747c0.299-0.177,0.53-0.313,0.805-0.476c0.371,0,0.797,0,1.269,0
		c0.212,0.236,0.447,0.5,0.729,0.813c0.026,0.261,0.104,0.619-0.303,0.885c-0.819,0.066-1.665,0.082-2.402-0.406
		C40.036,34.297,40.133,34.045,40.096,33.747z"/>
	<path fill="currentColor" d="M38.538,42.334c-0.859-0.065-1.383,0.847-2.277,0.617
		c0-0.292,0-0.602,0-0.97c0.424-0.273,0.465-0.887,0.865-1.329c0.277,0,0.586,0,0.978,0c0.095,0.125,0.244,0.323,0.435,0.574
		C38.538,41.524,38.538,41.931,38.538,42.334z"/>
	<path fill="currentColor" d="M40.754,37.875c-0.265,0.371-0.598,0.401-0.84,0.572
		c-0.229,0.025-0.271-0.211-0.44-0.275c0-0.365,0-0.718,0-1.125c0.277-0.247,0.593-0.529,0.847-0.755c0-0.261,0-0.404,0-0.542
		c0.19-0.231,0.396-0.42,0.732-0.321c0.216,0.173,0.48,0.331,0.383,0.537c-0.133,0.563-0.636,0.467-0.852,0.842
		C40.858,37.107,40.725,37.514,40.754,37.875z"/>
	<path fill="currentColor" d="M44.592,38.588c-0.151,0.151-0.327,0.327-0.507,0.507
		c-0.207,0-0.421,0-0.635-0.001c-0.177-0.177-0.354-0.354-0.534-0.534c0-0.423,0-0.85,0-1.29c0.304-0.093,0.532-0.355,0.908-0.35
		c0.303,0.005,0.569,0.172,0.572,0.355C44.406,37.7,44.76,38.038,44.592,38.588z"/>
	<path fill="currentColor" d="M58.159,33.696c0.151,0.173,0.241,0.276,0.303,0.346
		c0.022,0.273-0.161,0.437-0.284,0.461c-0.591,0.116-0.946,0.542-1.335,0.922c-0.647-0.096-0.647-0.096-0.756-0.743
		c0.314-0.424,0.919-0.506,1.16-0.986C57.564,33.696,57.851,33.696,58.159,33.696z"/>
	<path fill="currentColor" d="M55.81,38.706c0.238,0.471,0.386,0.919,0.232,1.408
		c-0.184,0.166-0.316,0.441-0.67,0.31c-0.215-0.28-0.43-0.562-0.645-0.842c-0.043,0.034-0.085,0.068-0.128,0.103
		c0-0.24,0-0.48,0-0.721C54.971,38.801,55.319,38.545,55.81,38.706z"/>
	<path fill="currentColor" d="M34.68,43.5c0.135,0.429-0.109,0.779-0.25,1.183c-0.297,0-0.607,0-0.969,0
		c0-0.377,0-0.783,0-1.205C34.01,43.083,34.122,43.083,34.68,43.5z"/>
	<path fill="currentColor" d="M29.557,46.903c0.329,0.049,0.471-0.359,0.788-0.247
		c0.288,0,0.558,0.359,0.698,0.964c-0.365,0.183-0.742,0.37-1.147,0.572c-0.101-0.089-0.204-0.178-0.339-0.297
		C29.557,47.611,29.557,47.298,29.557,46.903z"/>
	<path fill="currentColor" d="M8.697,37.567c0.372,0.374,0.64,0.643,0.945,0.95
		c-0.058,0.259-0.415,0.34-0.512,0.558c-0.572,0.124-0.714-0.323-0.983-0.5C8.028,37.989,8.484,37.84,8.697,37.567z"/>
	<path fill="currentColor" d="M44.664,30.152c0-0.309,0-0.621,0-0.902
		c0.216-0.266,0.452-0.374,0.625-0.322c0.505,0.205,0.352,0.687,0.88,0.896c-0.402,0.222-0.654,0.36-0.906,0.499
		C45.084,30.515,44.837,30.421,44.664,30.152z"/>
	<path fill="currentColor" d="M44.705,35.625c-0.287,0.021-0.656,0.114-0.897-0.285
		c-0.063-0.34-0.103-0.686,0.261-0.959c0.319-0.048,0.668-0.143,0.972,0.269C45.073,34.969,45.22,35.362,44.705,35.625z"/>
	<path fill="currentColor" d="M40.783,41.857c-0.649,0.149-1.117-0.065-1.526-0.474
		c0.064-0.636,0.064-0.636,0.685-0.777C40.44,40.857,40.397,41.46,40.783,41.857z"/>
	<path fill="currentColor" d="M35.812,60.053c0.022,0,0.165,0,0.304,0
		c0.108,0.212,0.213,0.419,0.315,0.619c0.029,0.185-0.15,0.232-0.21,0.351c-0.044,0.087,0.056,0.221-0.129,0.3
		c-0.192,0-0.433,0-0.642,0c-0.24-0.182-0.375-0.375-0.285-0.769C35.306,60.445,35.527,60.274,35.812,60.053z"/>
	<path fill="currentColor" d="M47.919,33.517c-0.154,0.624-0.62,0.751-1.009,1
		c-0.124-0.16-0.267-0.344-0.491-0.633c0-0.011,0.254-0.111,0.188-0.367C47.026,33.517,47.433,33.517,47.919,33.517z"/>
	<path fill="currentColor" d="M42.419,26.979c-0.244,0-0.481,0-0.708,0
		c-0.412-0.267-0.356-0.636-0.251-1.038c0.244,0,0.481,0,0.709,0C42.581,26.208,42.526,26.577,42.419,26.979z"/>
	<path fill="currentColor" d="M45.667,21.564c-0.288,0-0.598,0-0.951,0
		c-0.208-0.17-0.429-0.389-0.239-0.792c0.287,0,0.597,0,0.95,0C45.635,20.942,45.856,21.161,45.667,21.564z"/>
	<path fill="currentColor" d="M37.555,55.577c0.056-0.057,0.155-0.155,0.262-0.263c0.23,0,0.468,0,0.667,0
		c0.318,0.187,0.366,0.445,0.314,0.764c-0.313,0.181-0.66,0.017-0.964,0.098C37.701,55.964,37.413,55.904,37.555,55.577z"/>
	<path fill="currentColor" d="M55.852,36.435c0,0.233,0,0.33,0,0.418
		c-0.204,0.125-0.396,0.117-0.615,0.001C55.189,36.257,55.616,36.619,55.852,36.435z"/>
	<path fill="currentColor" d="M54.811,44.781c0-0.234,0-0.33,0-0.418c0.205-0.126,0.396-0.118,0.615-0.001
		C55.474,44.958,55.047,44.597,54.811,44.781z"/>
	<path fill="currentColor" d="M44.327,24.183c-0.162-0.102-0.104-0.216-0.119-0.311
		c0.096-0.128,0.218-0.14,0.458-0.038C44.535,23.969,44.428,24.078,44.327,24.183z"/>
	<path fill="currentColor" d="M44.642,17.604c-0.146,0.157-0.29,0.157-0.437,0
		C44.352,17.447,44.496,17.447,44.642,17.604z"/>
	<path fill="currentColor" d="M64.942,35.964c-0.07,0.101-0.142,0.101-0.212,0
		C64.8,35.863,64.872,35.863,64.942,35.964z"/>
	<path style="fill-rule:evenodd;clip-rule:evenodd;fill:none;" d="M18.228,42.258c0.222-0.181,0.415-0.339,0.719-0.587
		c0.961,0.012,1.669,0.711,2.327,1.384c0.227,0.799-0.453,1.456-0.119,2.193c-0.469,0.23-0.448,0.772-0.849,0.976
		c-0.413-0.261-0.413-0.261-0.526-0.73c0.328-0.357,0.797-0.724,0.632-1.372C19.341,43.981,18.75,43.254,18.228,42.258z"/>
	<path style="fill-rule:evenodd;clip-rule:evenodd;fill:none;" d="M13.968,24.352c0.23-0.372,0.465-0.409,0.803-0.363
		c0.14,0.973,0.957,1.349,1.761,1.713c0,0.222,0,0.391,0,0.57c-0.093,0.093-0.194,0.194-0.314,0.314
		c-0.413-0.124-0.915,0.202-1.292-0.234c-0.637,0.148-0.688-0.443-0.958-0.788C13.968,25.163,13.968,24.732,13.968,24.352z"/>
	<path style="fill-rule:evenodd;clip-rule:evenodd;fill:none;" d="M17.824,24.051c0.389,0.391,0.639,0.643,0.913,0.917
		c-0.117,0.728-0.983,0.922-1.142,1.578c-0.396,0.072-0.674-0.004-0.853-0.439C17.143,25.528,17.99,25.125,17.824,24.051z"/>
	<path style="fill-rule:evenodd;clip-rule:evenodd;fill:none;" d="M12.581,28.048c-0.411-0.33-0.422-0.646-0.564-0.883
		c0.142-0.198,0.254-0.426,0.622-0.362C12.688,27.149,12.706,27.507,12.581,28.048z"/>
	<path style="fill-rule:evenodd;clip-rule:evenodd;fill:none;" d="M17.877,24.227c-0.493-0.14-0.996-0.206-1.108-0.793
		c0.393-0.333,0.475,0.352,0.761,0.083C17.658,23.778,17.758,23.984,17.877,24.227z"/>
	<path style="fill-rule:evenodd;clip-rule:evenodd;fill:none;" d="M27.143,37.692c-0.071,0.101-0.143,0.101-0.214,0
		C27,37.591,27.072,37.591,27.143,37.692z"/>
	<path style="fill-rule:evenodd;clip-rule:evenodd;fill:none;" d="M52.816,32.365c0.152,0.292,0.276,0.53,0.409,0.785
		c-0.157,0.289-0.254,0.662-0.594,0.852c0,0.379,0,0.739,0,1.098c-0.417,0.681-0.417,0.681-0.458,2.011c-0.38,0-0.766,0-1.007,0
		c-0.611,0.231-0.341,0.857-0.788,1.092c-0.319,0.051-0.667,0.11-0.955-0.273c0-0.27,0-0.584,0-0.848
		c0.18-0.511,0.619-0.827,0.701-1.38c0.025-0.172,0.147-0.384,0.126-0.584c-0.11-1.028,0.378-1.84,0.903-2.651
		c0.372-0.574,0.746-1.161,0.594-1.917c0.51-0.272,0.515-0.877,0.872-1.292c0-0.61,0-1.254,0-1.884
		c0.192-0.233,0.334-0.526,0.823-0.274c0.334,0.286,0.29,0.803,0.256,1.316c-0.127,0.127-0.254,0.254-0.425,0.426
		c0.096,0.569-0.189,1.215,0.222,1.793C53.202,31.164,53.219,31.812,52.816,32.365z"/>
	<path style="fill-rule:evenodd;clip-rule:evenodd;fill:none;" d="M47.791,41.401c0.45,0.363,0.874,0.291,1.288,0.276
		c0.189-0.165,0.021-0.511,0.346-0.544c-0.202-0.544-0.477-0.934-0.877-1.244c0-0.314,0-0.627,0-0.925
		c0.119-0.114,0.222-0.212,0.357-0.34c0.668,0.36,1.412,0.227,2.11,0.259c0.102,0.101,0.177,0.177,0.287,0.287
		c0,0.853,0,1.741,0,2.659c-0.283,0.295-0.656,0.57-0.785,1.042c-0.169,0.433,0.201,0.997-0.381,1.402
		c-0.19-0.259-0.468-0.429-0.77-0.559c-0.282-0.121-0.685-0.067-0.737-0.516c-0.345,0.032-0.647-0.523-1.034-0.055
		c-0.111,0.135-0.328,0.054-0.495,0.033c-0.185-0.229-0.008-0.492-0.105-0.703C47.288,42.14,47.66,41.906,47.791,41.401z"/>
	<path style="fill-rule:evenodd;clip-rule:evenodd;fill:none;" d="M51.58,53.051c0.135,0.098,0.223,0.239,0.206,0.517
		c0.456,0,0.986-0.145,1.346,0.042c0.331,0.171,0.914-0.005,1.021,0.76c0.013,0.262-0.206,0.599-0.556,0.931
		c-0.704-0.06-1.497,0.19-2.186-0.458c-0.265,0-0.577,0-0.897,0c-0.154-0.254-0.294-0.484-0.474-0.781
		c0-0.389,0.068-0.864-0.019-1.309c-0.091-0.462,0.301-0.773,0.25-1.206c-0.011-0.092,0.158-0.278,0.269-0.3
		c0.749-0.152,1.456-0.53,2.346-0.478C52.625,51.688,51.927,52.272,51.58,53.051z"/>
	<path style="fill-rule:evenodd;clip-rule:evenodd;fill:none;" d="M49.591,27.875c-0.435-0.234-0.848-0.456-1.309-0.705
		c0.482-0.655,1.449-0.813,1.527-1.697c-0.309-0.3-0.612-0.596-0.916-0.891c0.17-0.17,0.271-0.271,0.414-0.414
		c0.777,0.304,1.539,0.763,1.555,1.661C50.877,26.642,50.651,27.525,49.591,27.875z"/>
	<path style="fill-rule:evenodd;clip-rule:evenodd;fill:none;" d="M59.039,40.21c0.066,0.066,0.167,0.167,0.261,0.261
		c0.201,0.413-0.298,0.677-0.2,1.088c0.076,0.324-0.056,0.697,0.23,0.972c-0.17,0.421-0.382,0.807-0.803,1.114
		c-0.121-0.451-0.048-0.9-0.061-1.34c-0.013-0.462-0.003-0.924-0.003-1.378C58.761,40.75,58.643,40.292,59.039,40.21z"/>
	<path style="fill-rule:evenodd;clip-rule:evenodd;fill:none;" d="M39.567,13.067c-0.449-0.261-0.601-0.476-0.537-0.819
		c0.569-0.872,1.572-0.927,2.483-1.245c0.358,0.047,0.673,0.235,0.936,0.521c0.118,0.556-0.065,1.011-0.509,1.433
		C41.154,13.046,40.309,12.256,39.567,13.067z"/>
	<path style="fill-rule:evenodd;clip-rule:evenodd;fill:none;" d="M35.261,21.6c0.146,0.195,0.349,0.265,0.307,0.485
		c-0.037,0.054-0.073,0.154-0.112,0.156c-0.353,0.012-0.706,0.007-1.063,0.007c-0.126-0.15-0.361-0.227-0.338-0.482
		c0.04-0.058,0.075-0.158,0.115-0.159C34.521,21.595,34.875,21.6,35.261,21.6z"/>
	<path style="fill-rule:evenodd;clip-rule:evenodd;fill:none;" d="M33.536,34.173c0.66-0.111,1.024,0.119,1.365,0.478
		c0,0.148,0,0.318,0,0.481c-0.25,0.141-0.501,0.054-0.743,0.069C33.851,34.951,33.753,34.584,33.536,34.173z"/>
	<path style="fill-rule:evenodd;clip-rule:evenodd;fill:none;" d="M61.272,27.913c0,0.27,0,0.48,0,0.633
		c-0.127,0.171-0.228,0.309-0.333,0.451c-0.143-0.073-0.263-0.094-0.309-0.165c-0.178-0.271-0.331-0.559-0.538-0.918
		C60.558,27.848,60.916,27.831,61.272,27.913z"/>
</g>
</svg>
