<svg xmlns="http://www.w3.org/2000/svg" xml:space="preserve" width="72px" height="72px" viewBox="0 0 72 72">
    <g fill="currentColor">
        <path d="M25.439 21.526c-.2-1.662.68-2.929 1.329-4.292.289-.04.471-.313.701-.527h.866l.755.773v.718c.253.74.794 1.093 1.204 1.562.374-.101.632-.351.72-.622.217-.679.723-1.104 1.202-1.552.494-.462.757-1.035.98-1.65.136-.375.312-.735.472-1.106.828-.345.828-.345 1.627-.03l.92 2.15c-.245 1.249.485 2.412.969 3.639.184.464.479.867.588 1.386.054.252.134.821.691.779.396.458 1.092.58 1.313 1.263.09.277.42.478.617.688.755-.085 1.246.263 1.673.791-.116.493.188 1.056-.233 1.518.175.645.186 1.343.644 1.894.143.173.329.078.498.12.446-.252.419-.907 1.146-1.087.277.005.275.013.672.251.165 1.769 1.032 3.24 2.021 4.635.26.142.51.06.752.071.407-.408.812-.818 1.223-1.221.393-.383 1.003-.16 1.435-.5 1.151.621 2.129-.173 3.213-.469.299-.666.396-1.444.798-2.116.391-.653.592-.81 1.487-.872.903.569.779 1.584 1.207 2.699.313.421 1.044.887 1.479 1.644.344.597.779 1.132.702 1.869-.025.24.183.348.24.554a8.4 8.4 0 0 0 1.109 2.451c.134.199.336.43.548.482.283.072.412.275.57.445.763.816.748 1.317.044 2.141-.187.219-.404.41-.608.614-.027.02-.054.059-.082.06-.286.004-.572.002-.801.002l-2.071-1.195c-.377-1.069-1.125-2.152-1.13-3.387-.219-.453-.401-.831-.839-1.058-.578.231-1.204.397-1.826.023-.57-.343-.626-1.059-1.063-1.502h-.655c-.438.619-.673 1.431-1.768 1.719.074 0-.104-.011-.281.001-.821.059-1.168.322-1.448 1.103-.112.313-.206.635-.309.954a1.98 1.98 0 0 1-1.271.327c-.229-.018-.464-.063-.706.117-.396.297-.838.043-1.145-.162-.441-.295-.948-.678-1.122-1.138-.263-.698-.897-1.201-.963-1.981-.008-.086-.124-.161-.186-.245-.535-.749-1.069-1.499-1.635-2.29-.536.328-1.046.631-1.74.468-.642-.564-1.303-1.209-2.098-1.738-.713-.475-1.453-1.058-1.913-1.871h-.696c-.498.235-.702.786-.858 1.28-.207.649-.564 1.062-1.188 1.29-.812-.19-.939-1.061-1.506-1.602-.32.313-.584.516-.719.992-.177.625-.593 1.208-1 1.736-.967 1.256-2.024 2.43-3.328 3.367-.461.332-.852.777-1.225 1.215-.785.921-1.772 1.283-2.944 1.194-.196-.18-.445-.358-.31-.634.28-.57.403-1.295.922-1.653a4.34 4.34 0 0 0 1.663-2.118c.125-.332.49-.41.747-.519.811-.344 1.48-.853 2.094-1.467.25-.25.43-.537.573-.875-.205-.261-.438-.423-.85-.172-.598.365-1.176.764-1.842 1.023-.276.107-.583.401-.671.675-.18.559-.513.895-.994 1.203-.596.383-.943 1.031-1.384 1.576-.441.544-.954 1.031-1.416 1.554-.588.668-.918 1.694-1.995 1.856-.734.953-1.973.998-2.893 1.612-.21.139-.406.094-.607.1-.468.014-.937.005-1.478.005l-.497-.66v-.94c.298-.554.919-.776 1.469-.963.701-.237 1.343-.588 2.021-.863.744-.3 1.335-.858 1.887-1.437.339-.355.703-.659 1.205-.783a4.74 4.74 0 0 1 1.64-1.695c.181-.111.3-.241.409-.435.295-.53.743-.955 1.241-1.282.388-.254.68-.534.926-.933.237-.387.572-.77.957-.995.532-.31.946-.662 1.209-1.224.101-.215.344-.363.522-.541l2.806-2.805c.308.091.664-.104 1.047.163.389.271.777-.088 1.129-.2.349-.713.866-1.161 1.652-1.272.377.253.494.624.605 1.033.252.929.604 1.206 1.285 1.944.681.74 1.595 1.072 2.346 1.665.269.212.537.083.843.121.515-.927 1.287-1.759 1.112-2.99h-.727c-.519.225-.563.971-1.128 1.263h-.876c-.421-.629-1.024-1.151-1.164-1.996a1.3 1.3 0 0 0-.474-.771c-1.004-.759-1.395-1.914-1.958-3.023h-.977c-.313 1.101-1.401 1.306-2.329 1.655-.306.115-.567.215-.793.436-.446.436-.856.89-1.474 1.135a1.46 1.46 0 0 0-.831.897c-.03.093-.13.161-.188.247-.586.873-1.334 1.636-1.759 2.619-.139.321-.55.285-.749.535h-1.08l-.526-.526c-.132-.977.305-1.698.866-2.459.501-.681 1.012-1.409 1.097-2.354.045-.499.226-1.056.639-1.504"/>
        <path d="m31.14 39.816-.537-.538v-.846l1.296-1.289c.003-.129-.213-.185-.295-.314-.809.118-.856 1.035-1.448 1.374-.624.355-1.084.889-1.594 1.38-.892.114-1.426-.288-1.643-1.19.097-.504.378-.885.899-1.09.389-.153.61-.453.873-.793.486-.63 1.021-1.266 1.759-1.669.487-.266.705-.89 1.299-1.053h1.527c.65-.566.929-1.571 1.935-1.748.291-.141.389.315.694.206.056.373.353.576.609.85h.972c.72.266 1.12.818 1.61 1.281.248.06.551 0 .757.286.495-.398 1.076-.195 1.642-.257.56.517.976 1.155 1.347 1.807.159.28.346.51.553.739.399.44.805.867 1.174 1.34.546.699 1.261 1.286 2.246 1.307.219.004.283.374.581.221a11 11 0 0 0 1.282-.743c.453-.309.988-.547 1.265-1.161.248-.551.894-.832 1.445-1.128.184-.098.326-.267.508-.421h1.278c.322.288.592.667 1.042.824.854.297 1.441.875 1.903 1.653.248.42.692.724 1.05 1.08v.867l-.545.539c-.78-.018-1.572.065-2.325-.355-.278-.155-.691-.076-1.185-.114l-.289-.566c-.109-.295-.479-.613-.429-1.078-.773-.247-1.322.272-1.666.741-.294.403-.688.696-.976 1.166-.704-.07-1.409.037-2.148-.192-.61-.188-1.259.163-1.91.383-.688-.23-1.334-.647-2.015-1.009-.705-.374-1.414-.694-1.913-1.323-.635-.108-1.144.055-1.643.466-.632.522-1.4.731-2.359.521l-.211-.298c-1.205-.268-2.223.201-3.283.157-1.043-.048-2.088-.013-3.132-.013m4.619-2.904c.2.085.249.356.652.29.251-.173.82-.139.901-.801h-1.288c.006.232-.073.378-.265.511M11.043 34.48c.222-.594.6-1.096.539-1.727-.036-.37.284-.622.234-.991-.042-.317-.088-.673.01-.963.169-.502.325-1.049 1.02-1.151.329-.048.622-.311.953-.176.615-.406.716-1.018.849-1.678l.757-.721c.785-.06 1.353.282 1.668 1.048.113.277.23.557.385.811.133.216.332.379.754.265.514-.263.594-1.255 1.654-1.237 1.023.383 1.617 1.512 2.519 2.215v.685c-.152.157-.432.078-.528.313-.233-.321-.57-.194-.873-.204l-.536.531v.97c-.883.914-1.618 2.078-2.942 2.644-.437.187-.773.291-1.149-.15v-.857l-.962-.962h-.487c-.304.764-.202 1.668-.926 2.232.011.521-.399.978-.253 1.373-.469 1.234-1.428 1.594-2.495 1.845-.168.04-.497.081-.604.352-2.265.086-3.48-.69-3.133-2.85.358-.614.735-1.142.987-1.724.237-.548.622-.808 1.166-.806.541.001.985.232 1.152.813.005.017.057.024.241.1m25.34 9.211-.602.544c.05.48-.204.805-.442 1.118-1.077.358-2.141.586-3.266.528-.43-.022-.84.282-1.312.206-.404-.065-.807.027-1.215-.202-.341-.191-.849.176-1.198-.222-.985.111-1.832-.658-2.833-.447-.838-.398-1.735-.127-2.477-.222-.488-.209-.851-.411-1.069-.8v-.629c.691-.66 1.522-.62 2.34-.402.318.085.574.121.883.015.902-.312 1.804-.594 2.789-.577.451.009.917-.188 1.354-.352.218-.079.482-.121.61-.039.427.271.924.066 1.311.227.459.19.814-.146 1.238-.045.438.102.834-.318 1.31-.206.328.078.68-.091 1.01.187.149.125.584.138.713.016.433-.411.995-.081 1.482-.369.374-.221 1.021.081 1.474-.071.768-.258 1.527-.138 2.307-.196.205.226.594.17.791.622v.834c-.313.258-.66.521-1.154.5-.537-.02-1.08.033-1.614-.018-.344-.031-.587.396-.873.216-.499-.317-1.025-.147-1.557-.216m-.401 18.166a7.4 7.4 0 0 0-1.868-.683c-1.626-.35-3.258-.099-4.882-.197a1.07 1.07 0 0 0-.758.22c-.251.053-.294-.298-.579-.226-.475.121-.799-.345-1.223-.406-.456-.068-.957.065-1.383-.064-.571-.175-1.136-.438-1.573-.891-.35-.363-.711-.715-1.087-1.091v-.908c.978-.673 1.956-.046 2.872-.052.539.318 1.079.533 1.503.969.163.169.49.347.837.305.354-.042.719-.015 1.079-.008.342.008.66.061 1.003.176.399.135.823.328 1.303.271.447-.051.926.026 1.274-.313.246-.24.655-.008.829-.353.616.188 1.214.439 1.875.435.936-.009 1.872.024 2.808-.01.989-.036 1.939.381 2.935.224.545.368 1.222.345 1.731.174.782-.264 1.538-.072 2.031-.147l.937.633c-.777.547-1.364 1.173-2.337 1.078-.534-.052-1.108-.117-1.609.023-.444.123-.924.132-1.354.377-.218.124-.564.041-.852.019-.704-.055-1.358.148-2.013.36-.524.171-1.062.006-1.499.085M46.917 45c-.273-.194-.409-.425-.331-.746.457-.618 1.211-.566 1.842-.733.381-.101.756-.322 1.197-.26.388.055.79.012 1.185.012.792 0 1.588-.056 2.373.014.998.087 1.938-.412 3.034-.183.894.689 2.045.635 3.222.587l.512.593v.825c-.294.491-.733.259-1.227.368l-.326.542-.124-.098v.94c.125.127.253.253.362.363.247.561-.191 1.019-.175 1.563l-.789.737c-.624-.063-1.229.437-2.019.158-.422.02-.663-.971-1.394-.397-.088-.246-.59-.02-.551-.439.035-.121.103-.155.224-.183.406-.092.665.502 1.336-.047.192-.346 1.266-.179 1.395-1.213-.522-.485-1.43-.234-2.042-.674-.057-.402-.144-.753.309-1.087h1.435c-.443-.58-.994-.802-1.514-.616-.735.263-1.458.154-2.187.184a32 32 0 0 1-1.942.002 8 8 0 0 1-1.323-.16c-.471-.089-.984-.562-1.559-.078-.187.161-.622.026-.923.026m-30.798 5.616c-.711-.031-1.522.188-2.129-.528v-.687c.646-.465 1.371-.237 1.968-.303.968-.555 1.912-.931 2.963-.848.747.059 1.427-.3 2.174-.24.713.058 1.436-.003 2.153.021.334.012.709-.146 1 .198.06.071.295.056.416.003.951-.413 1.894-.185 2.84.006.199.041 1.392.027 1.519-.054.118-.073.203-.177.366-.164.215.016.431.004.688.004l.513.593v.386c-.413.414-.805.911-1.497 1.181-.437 0-.994-.088-1.51.017-1.653.337-3.318.16-4.976.184-.334.005-.538.302-.881.242-.279-.049-.573-.016-.86-.009-.762.018-1.487-.05-2.222-.357-.458-.192-1.056-.105-1.582-.059-.285.026-.55.233-.943.414m30.023-21.455c.154-1.072 1.009-1.662 1.431-2.507.161-.323.378-.625.535-.967.444-.973 1.125-1.819 1.519-2.826.085-.215.343-.362.521-.54.486.069.486.069.967.534.053.686-.158 1.41.314 2.046h1.056c.387.36.717.694.897 1.244.153.468.089.79-.104 1.154-.27.507-.673.928-.939 1.444-.11.212-.432.315-.655.468-.477.111-.962-.056-1.455.134a4.9 4.9 0 0 0-1.559.934c-.373.335-.791.559-1.341.444-.449-.44-.983-.853-1.187-1.562M12.023 41.61c1.651 1.017 1.756 1.211 1.257 2.459-.425.216-.791-.126-1.176-.126-.354 0-.688.29-1.046.188l-.417.418c-.859.068-1.708.116-2.064-1.146v-.874c.232-.346.584-.562 1.04-.75.721.059 1.475-.441 2.406-.169m19.52 27.335c-.189-.241-.597-.199-.739-.584.041-.314.372-.446.561-.68 1.53-.338 1.379-.172 2.571.418.493.062.961.021 1.386-.278.454-.317.97-.018 1.401-.176l.921.921c.991-.091 1.942-.722 3.045-.395.062.098.271.154.281.363-.024.063-.031.16-.074.182-.302.143-.641.212-.84.409-.87.294-1.622-.212-2.436-.161-.789.05-1.583-.006-2.374.018-.371.012-.756-.131-1.116.188-.141.126-.544.115-.727.003-.571-.351-1.176-.117-1.86-.228m-9.564-12.709c-1.177-.056-2.381.161-3.649-.333l-.5-.615c-.073-.313.303-.483.566-.793.318.104.719-.169 1.049.187.037.039.151.061.193.033.66-.422 1.446-.026 2.118-.334.53-.243 1.004-.061 1.451.196.212.122.401.33.235.646-.277.534-.885.665-1.463 1.013m32.679-4.786c.338-.175.724-.377 1.126-.587h.931v.704c-.18.35-.56.53-1.042.767-.45-.098-1.062.219-1.611-.182-.285.28-.646.203-.979.183-.335-.02-.696.142-1.008-.19-.101-.106-.501-.108-.614 0-.418.394-.891.101-1.313.216-.1-.276-.401-.16-.532-.335.005-.101-.043-.208.063-.292.134-.107.247-.205.43-.269 1.034-.353 2.09-.516 3.171-.404.424.043.833.23 1.378.389m-7.325 16c-.412-.036-.972.161-1.545.43-.61.286-1.256.527-1.971.457a1.4 1.4 0 0 0-.797.153c-.306.156-.754.035-1.196.035.282-.487.683-.718 1.134-.839.72-.19 1.422-.43 2.189-.464.569-.024 1.066-.394 1.56-.814h1.091c.092.146.309.2.297.495zm.524-16.12c.439-.146.688-.017.877.271-.242.229-.522.012-.8.13z"/>
    </g>
</svg>
