<?xml version="1.0" encoding="iso-8859-1"?>
<!-- Generator: Adobe Illustrator 16.0.0, SVG Export Plug-In . SVG Version: 6.00 Build 0)  -->
<!DOCTYPE svg PUBLIC "-//W3C//DTD SVG 1.1//EN" "http://www.w3.org/Graphics/SVG/1.1/DTD/svg11.dtd">
<svg version="1.1" id="Layer_1" xmlns="http://www.w3.org/2000/svg" xmlns:xlink="http://www.w3.org/1999/xlink" x="0px" y="0px"
	 width="72.36px" height="71.459px" viewBox="0 0 72.36 71.459" style="enable-background:new 0 0 72.36 71.459;"
	 xml:space="preserve">
<g>
	
	<path fill="currentColor" d="M33.847,15.828c-0.073-1.221,0.273-2.331,0.644-3.438
		c-0.14-0.61-0.662-1.011-0.869-1.589c0.053-0.313,0.39-0.396,0.503-0.636c1.38-0.158,2.108,0.729,2.603,1.736
		c0.369,0.751,0.704,1.514,1.198,2.241c-0.116,1.277,0.701,2.256,1.104,3.352c0.312,0,0.526,0,0.813,0
		c0.464-1.035,1.622-1.747,1.563-3.111c0.582-0.734,1.398-1.268,1.896-2.112c0.246-0.416,0.711-0.646,1.247-0.609
		c0.213,0.015,0.428,0.002,0.628,0.002c0.167,0.167,0.319,0.32,0.477,0.477c0.305,1.23-0.428,2.471-0.11,3.646
		c0.324,1.198-0.156,2.457,0.448,3.623c0.196,0,0.403,0,0.686,0c0.326-0.353,0.855-0.555,1.248-0.966
		c0.36-0.378,0.883-0.336,1.375-0.282c0.381,0.397,0.837,0.743,0.982,1.363c-0.454,1.1-0.811,2.245-0.653,3.503
		c0.419,0.344,0.438,0.941,0.694,1.412c0.28,0.513,0.824,0.604,1.105,1.04c0.209,0,0.423,0,0.709,0
		c0.358-0.372,0.768-0.774,1.153-1.199c0.5-0.552,1.076-0.875,1.846-0.711c0.563,0.502,0.563,1.157,0.499,1.826
		c-0.155,0.229-0.277,0.484-0.466,0.673c-0.667,0.668-0.676,1.401-0.466,2.288c0.228,0.958,0.598,1.79,1.234,2.521
		c0.301,0,0.585,0,0.968,0c0.152-0.189,0.353-0.439,0.505-0.628c0.53,0,0.96,0,1.342,0c0.441,0.275,0.571,0.72,0.843,1.073
		c-0.18,0.462-0.359,0.88-0.273,1.348c0.092,0.496-0.058,0.97-0.227,1.417c-0.137,0.364-0.253,0.717-0.2,1.103
		c0.105,0.781-0.305,1.5-0.234,2.288c0.07,0.786-0.054,1.59,0.03,2.372c0.145,1.342,0.248,2.71,1.07,3.946
		c-0.173,0.476,0.076,1.001,0.258,1.438c0.171,0.412,0.085,0.871,0.361,1.261c0.136,0.191,0.023,0.56,0.023,0.847
		c0,0.576,0.024,1.153-0.005,1.728c-0.074,1.446-0.689,2.661-1.789,3.567c-0.891,0.733-1.897,1.323-2.827,2.012
		c-0.173,0.128-0.353,0.202-0.532,0.29c-0.628,0.307-1.211,0.669-1.638,1.226c-0.445-0.086-0.785,0.334-1.291,0.182
		c-0.478,0.733-1.436,0.863-2.026,1.522c-0.073,0.082-0.294,0.271-0.537,0.244c-0.434-0.049-0.766,0.173-1.133,0.394
		c-0.378,0.226-0.86,0.49-1.325,0.041c-0.073-0.07-0.273-0.01-0.419-0.01c-0.447,1.414-1.558,1.582-2.811,1.505
		c-0.15,0.362-0.565,0.377-0.809,0.625c-0.524-0.219-0.661,0.488-1.104,0.462c-0.67,0.705-1.574,0.707-2.443,0.891
		c-0.769,0.163-1.527,0.146-2.291,0.203c-0.389,0.03-0.739-0.115-0.943-0.321c-0.697-0.702-1.626-0.958-2.445-1.421
		c-0.117-0.066-0.229-0.144-0.34-0.214c-0.843,0.329-1.72,0.402-2.513-0.021c-0.779-0.416-1.533-0.768-2.293-0.634
		c-0.785-0.253-1.124-0.984-1.859-1.078c-0.804-0.797-1.821-1.025-2.901-1.072c-0.13-0.006-0.176-0.105-0.266-0.145
		c-0.616-0.268-1.263-0.33-1.931-0.298c-0.536,0.026-1.075,0.006-1.595-0.025c-0.505-0.155-0.795-0.569-1.169-0.917
		c0-0.227,0-0.468,0-0.695c0.399-0.321,0.847-0.32,1.303-0.303c0.324,0.012,0.651-0.028,0.971,0.008
		c0.992,0.112,1.893-0.272,2.827-0.482c0.228-0.383,0.642-0.09,0.969-0.278c0.539-0.311,1.082-0.579,1.445-1.09
		c-0.781-0.829-1.14-1.982-2.106-2.746c0.022-0.347-0.129-0.7-0.336-0.992c-0.842-1.187-1.43-2.487-1.917-3.853
		c-0.177-0.495-0.245-0.934-0.009-1.389c0.127-0.245,0.155-0.586,0.053-0.708c-0.429-0.512-0.352-1.245-0.819-1.735
		c-0.091-0.618-0.004-1.227,0.187-1.832c0.112-0.354,0.614-0.53,0.448-1.003c0.271-0.162,0.204-0.429,0.204-0.671
		c0.003-1.004,0.001-2.009,0.001-3.056c-1.27,0-2.519,0-3.768,0c-0.389,0.375-0.801,0.772-1.197,1.153
		c-0.034,0.521,0.238,0.866,0.552,1.203c0.312,0.336,0.766,0.531,1.031,0.859c0.281,0.35,0.553,0.71,0.869,1.033
		c0.025,0.025,0.051,0.051,0.107,0.106c0,0.282,0,0.596,0,0.926c-0.087,0.086-0.188,0.188-0.301,0.3
		c-0.309,0.022-0.521-0.366-0.867-0.232c-0.3-0.401-0.878-0.542-1.107-0.931c-0.631-1.072-1.612-1.654-2.657-2.188
		c-0.03-0.016-0.051-0.05-0.077-0.075c-0.899-0.173-1.923,0.281-2.716-0.557c0-0.219,0-0.46,0-0.769
		c0.89-0.335,1.719-0.855,2.668-1.076c0.312-0.073,0.594-0.198,0.805-0.394c0.448-0.415,0.952-0.546,1.525-0.47
		c0.711-0.614,1.481-1.029,2.431-0.863c0.327-0.458,0.826-0.589,1.273-0.627c0.332-0.028,0.567-0.274,0.879-0.245
		c0.353,0.033,0.431-0.383,0.687-0.423c0.622-0.097,0.72-1.04,1.476-0.877c0.521-0.307,0.999-0.673,1.557-0.932
		c0.517-0.24,0.956-0.675,1.452-0.939c0.516-0.275,1.023-0.608,1.634-0.75c0.469-0.108,0.917-0.429,1.302-0.745
		c0.782-0.644,1.714-0.953,2.657-1.139c0.666-0.132,1.29-0.444,1.975-0.459c0.719-0.017,1.439,0.004,2.159-0.006
		c0.454-0.007,0.908-0.022,1.313,0.221c0.414,0.249,0.866,0.224,1.316,0.211c0.517-0.015,0.974,0.438,1.433,0.22
		c0.173-0.14,0.281-0.228,0.384-0.311c-0.246-0.458-0.744-0.35-1.103-0.528c-0.345-0.171-0.746-0.282-1.127-0.4
		c-0.52-0.162-1.045-0.299-1.615-0.292c-0.762,0.01-1.521,0.083-2.297-0.165c-0.527-0.168-1.142-0.077-1.689,0.307
		c-0.465,0.326-1.049,0.563-1.613,0.091c-0.572,0.067-0.879,0.521-1.274,0.881c-0.562-0.125-1.082,0.091-1.583,0.303
		c-1.227,0.52-2.451,1.044-3.737,1.406c-0.066,0.019-0.173-0.029-0.21,0.007c-0.788,0.763-1.904,0.799-2.823,1.277
		c-0.667,0.346-1.366,0.584-1.896,1.181c-0.329,0.37-0.898,0.465-1.38,0.53c-0.267,0.036-0.375,0.374-0.661,0.249
		c-0.528,0.615-1.493,0.55-1.97,1.28c-0.08,0.122-0.5-0.082-0.599,0.238c-1.716-0.297-2.067,0.222-3.042,1.033
		c-0.589,0.146-1.115,0.37-1.741,0.222c-0.311-0.194-0.535-0.538-0.731-1.053c0.063-0.269-0.01-0.668,0.084-1.099
		c0.311-1.423,1.463-1.839,2.562-2.348c0.546-0.253,1.206-0.171,1.704-0.581c0.209-0.171,0.427-0.375,0.675-0.449
		c0.773-0.228,1.451-0.665,2.198-0.955c0.742-0.288,1.384-0.821,2.102-1.184c0.472-0.239,0.958-0.56,1.516-0.493
		c0.457,0.055,0.544-0.604,1.01-0.445c0.603-0.46,1.438-0.35,2.105-0.864c0.75,0.097,1.453-0.23,2.164-0.642
		c0.347-0.058,0.772,0.127,1.11-0.099c0.34-0.228,0.694-0.036,0.861-0.092c1.105-0.582,2.082-0.987,3.176-1.129
		c0.7-0.09,1.355-0.463,2.091-0.415c0.565-0.556,1.129-0.033,1.623,0.095c0.888,0.229,1.738,0.575,2.681,0.561
		c0.442-0.007,0.836,0.375,1.271,0.189c0.623,0.272,1.109,0.785,1.825,0.667c0.794,0.432,1.602,0.837,2.372,1.307
		c0.294,0.179,0.559,0.353,0.905,0.431c1.026,0.231,1.895,0.819,2.798,1.32c0.182,0.101,0.344,0.276,0.456,0.455
		c0.371,0.588,0.757,1.133,1.504,1.296c0.124,0.027,0.291,0.188,0.296,0.406c0.002,0.085,0.092,0.222,0.168,0.244
		c0.841,0.247,0.92,1.142,1.434,1.664c0.203,0.207,0.18,0.435-0.014,0.685c-0.393-0.111-0.381-0.493-0.596-0.808
		c-0.955-0.743-2.236-1.185-3.04-2.256c-0.169,0-0.371,0.062-0.445-0.01c-0.752-0.721-1.787-0.932-2.635-1.479
		c-0.27-0.174-0.607-0.285-0.982-0.243c-0.458,0.052-0.926,0.012-1.416,0.012c0.58,0.752,0.981,1.05,1.741,1.293
		c0.097,0.031,0.234-0.009,0.302,0.047c0.998,0.823,2.416,0.953,3.279,1.985c0.133,0.158,0.311,0.132,0.459,0.211
		c0.339,0.18,0.636,0.344,0.752,0.761c0.148,0.533,0.639,0.82,0.984,1.226c0,0.129,0,0.273,0,0.417
		c-0.133,0.185-0.328,0.08-0.533,0.116c-0.465-0.465-0.956-0.936-1.421-1.43c-0.246-0.261-0.566-0.474-0.869-0.498
		c-0.771-0.061-1.411-0.434-2.079-0.733c-0.374-0.168-0.718-0.324-1.138-0.397c-0.588-0.103-1.13-0.417-1.618-0.824
		c-0.483,0-0.984,0-1.506,0c-0.369-0.345-0.687-0.784-1.321-0.889c-1.155,0.699-2.391-0.249-3.722,0.071
		c-0.19,0.211-0.453,0.503-0.702,0.78c-0.478,0-0.904,0-1.271,0c-0.442,0.231-0.828,0.433-1.278,0.667c-0.279,0-0.637,0-0.998,0
		c-0.338,0.299-0.593,0.701-1.075,0.815c-0.376,0.122-0.807-0.044-1.189,0.251c-0.126,0.098-0.338,0.174-0.396,0.308
		c-0.216,0.504-0.6,0.786-1.054,1.072c-0.458,0.289-0.795,0.782-0.929,1.325c-0.141,0.566-0.399,1.073-0.698,1.546
		c-0.91,1.437-1.116,1.988-1.5,3.488c-0.133,0.52-0.187,1.018-0.189,1.537c-0.005,0.936-0.008,1.871,0.001,2.807
		c0.006,0.641-0.094,1.32,0.089,1.91c0.165,0.531,0.434,1.042,0.561,1.6c0.021,0.093,0.09,0.195,0.167,0.251
		c0.297,0.212,0.302,0.613,0.599,0.843c0.285,0.22-0.109,0.726,0.309,0.944c0.299,1.148,0.642,1.647,1.512,2.384
		c0.32,0.271,0.709,0.526,0.852,0.937c0.179,0.517,0.525,0.824,0.97,1.099c0.522,0.321,1.022,0.683,1.5,1.067
		c0.367,0.295,0.785,0.394,1.222,0.441c0.901,0.098,1.688,0.433,2.397,0.997c0.709,0.565,1.448,1.021,2.415,0.525
		c0.955-0.49,1.847-0.126,2.714,0.299c0.09,0.044,0.148,0.153,0.238,0.134c0.72-0.006,1.034-0.688,1.621-0.871
		c0.503,0,1.007-0.004,1.511,0.001c0.73,0.008,1.398-0.233,2.045-0.536c0.814-0.381,1.671-0.663,2.454-1.123
		c0.244-0.144,0.616-0.069,0.831-0.087c0.707-0.262,1.074-0.802,1.563-1.254c0.325,0,0.679,0,0.979,0
		c0.459-0.213,0.675-0.591,0.82-0.961c0.18-0.46,0.495-0.792,0.883-0.991c0.768-0.395,1.034-1.159,1.487-1.788
		c0.14-0.194,0.125-0.463,0.049-0.613c-0.325-0.641-0.158-1.415-0.593-2.027c-0.104-0.146-0.038-0.415-0.049-0.616
		c0.462-0.563,0.847-1.155,1.094-1.668c0.002-0.464-0.279-0.556-0.429-0.743c-0.236-0.299-0.377-0.614-0.457-1.003
		c-0.154-0.751-0.413-1.48-0.648-2.289c0.177-0.369,0.379-0.789,0.609-1.271c-0.474-1.155-1.854-1.679-2.322-2.886
		c0.017-0.233,0.222-0.292,0.31-0.427c1.047-0.215,1.805,0.44,2.484,0.995c0.703,0.574,1.489,1.078,2.05,1.788
		c0.293,0.054,0.388-0.179,0.539-0.301c0.086-0.726-0.057-1.333-0.55-1.936c-0.364-0.446-0.574-1.085-0.503-1.72
		c0.048-0.422-0.146-0.762-0.38-1.028c-0.346-0.393-0.595-0.821-0.863-1.261c-0.259-0.425-0.606-0.841-0.896-1.264
		c-0.137-0.198-0.297-0.376-0.442-0.564c-0.407-0.528-1.003-0.873-1.33-1.499c-0.306-0.586-1.04-0.854-1.279-1.524
		c-0.962-0.569-1.508-1.651-2.438-2.179c-1.071-0.608-1.95-1.473-3.185-2.055c-0.141,0-0.427-0.023-0.708,0.004
		c-0.678,0.066-1.263-0.15-1.884-0.413c-0.983-0.417-1.97-0.875-3.087-0.905c-0.422-0.011-0.834-0.237-1.259-0.332
		c-0.461-0.103-0.881-0.4-1.389-0.3c-0.427,0.083-0.762-0.294-1.208-0.228c-0.423,0.063-0.863,0.028-1.293,0.003
		c-0.118-0.007-0.229-0.134-0.343-0.206c-0.605,0.227-1.193,0.479-1.874,0.447c-0.407-0.019-0.848-0.158-1.238,0.123
		c-0.35,0.251-0.867-0.148-1.177,0.292c-0.012,0.017-0.07,0.008-0.104,0.001c-0.784-0.152-1.505,0.278-2.236,0.236
		c-0.599,0.441-1.282,0.528-1.944,0.607c-0.289,0.035-0.55,0.088-0.767,0.244c-0.589,0.425-1.361,0.361-1.913,0.704
		c-0.292,0.302-0.376,0.633-0.518,0.982c-0.654,0-1.329,0-1.858,0c-0.487,0.251-0.844,0.437-1.306,0.676
		c-0.636-0.126-1.312,0.121-1.92,0.519c-0.399,0.261-0.794,0.403-1.26,0.352c-0.642-0.071-1.167,0.326-1.721,0.447
		c-0.367-0.044-0.533-0.313-0.689-0.523c-0.407-0.548-0.361-1.148,0.095-1.679c0.257-0.299,0.573-0.548,0.832-0.847
		c0.56-0.644,1.148-1.272,1.455-2.095c0.204-0.548,0.625-0.885,1.249-1.137c0.5-0.059,1.014,0.105,1.509,0.521
		c0.542,0.456,1.316,0.454,1.939,0.778c0.562-0.208,1.208-0.21,1.68-0.708c0.134-0.205-0.084-0.573,0.257-0.716
		c-0.258-1.022-0.67-1.987-0.235-3.098c0.382-0.974,0.877-1.873,1.262-2.799c0.401,0,0.683,0,1.02,0
		c0.186,0.17,0.487,0.32,0.548,0.66c0.161,0.896,0.704,1.659,0.879,2.555c0.077,0.391,0.418,0.567,0.953,0.651
		c0.258-0.382,0.367-0.795,0.337-1.262c-0.029-0.466-0.006-0.936-0.006-1.403c0-0.144,0.022-0.292-0.004-0.431
		c-0.092-0.489-0.397-0.931-0.088-1.482c0.234-0.418,0.59-0.747,0.694-1.219c0.47,0,0.856,0,1.269,0
		c0.127,0.127,0.28,0.28,0.433,0.433c0.158,0.733,0.505,1.389,0.935,1.983c0.162,0.224,0.378,0.515,0.4,0.694
		c0.13,1.037,0.89,1.507,1.63,2.016c0.595,0.089,1.175,0.033,1.75-0.177C33.466,16.245,33.634,16.061,33.847,15.828z M57.6,45.125
		c0-0.583-0.012-1.085,0.003-1.586c0.015-0.522-0.391-0.982-0.217-1.444c-0.728-0.922-0.996-2.09-1.831-2.769
		c-0.588-0.089-0.735,0.326-0.929,0.503c-0.183,0.643,0.323,1.064,0.178,1.502c0.67,0.887,1.654,1.314,2.137,2.271
		c0,0.312,0,0.667,0,1.006c-0.113,0.117-0.213,0.22-0.348,0.357c-0.354,0-0.74,0-1.152,0c-0.253,0.431-0.544,0.821-0.401,1.423
		c0.282,0.274,0.62,0.595,0.947,0.925c0.345,0.348,0.184,0.944,0.624,1.266c0.227,0,0.467,0,0.697,0
		c0.408-0.8,0.365-0.716-0.153-3.125C57.298,45.347,57.47,45.221,57.6,45.125z M54.557,49.399c0.041,0.706,0.514,1.065,0.763,1.534
		c0.225,0.422,0.087,0.647-0.196,0.898c-0.601,0.109-1.13-0.383-1.766-0.17c-0.17,0.216-0.57,0.18-0.759,0.585
		c0,0.298,0,0.684,0,1.052c-0.647,0.261-1.029-0.604-1.634-0.332c-0.505,0.806-0.245,1.569,0.024,2.324
		c0.56,0.047,0.979-0.127,1.367-0.464c0.462-0.401,0.945-0.777,1.488-1.079c0.73-0.407,1.461-0.837,1.731-1.718
		c0.01-0.031,0.049-0.052,0.114-0.117c0.387-0.147,0.893-0.169,1.239-0.596c0-0.357,0-0.742,0-1.076
		c-0.349-0.506-0.443-1.143-1.065-1.448C55.451,48.979,54.889,48.917,54.557,49.399z M40.646,57.243
		c-0.717,0.664-0.441,1.631-0.961,2.277c0.102,0.103,0.203,0.204,0.32,0.32c0.971-0.083,1.758-0.522,2.342-1.314
		c0.37,0.172,0.572-0.237,0.899-0.212c0.321,0.025,0.712-0.109,0.957,0.029c0.547,0.311,1.099,0.121,1.621,0.202
		c0.214-0.273,0.617-0.232,0.719-0.505c-0.212-0.676-0.767-1.014-1.155-1.467c-0.958-0.016-0.823,1.146-1.66,1.298
		c-0.39,0-0.89,0-1.431,0c-0.088-0.416-0.563-0.349-0.786-0.629C41.227,57.243,40.94,57.243,40.646,57.243z M33.405,56.637
		c-0.354-0.215-0.613-0.467-0.969-0.473c-0.936-0.016-1.871-0.006-2.806-0.002c-0.025,0-0.05,0.049-0.062,0.062
		c-0.269,0.207-0.36,0.446-0.205,0.752c0.298,0.305,0.663,0.421,1.09,0.495c0.848,0.148,1.655,0.466,2.44,0.823
		c0.075-0.265,0.41-0.093,0.511-0.302C33.405,57.555,33.405,57.125,33.405,56.637z M50.44,55.551
		c-0.803-0.225-1.608-0.624-2.49-0.436c-0.439,0.796-0.377,1.548,0.005,2.317c0.229,0,0.471,0,0.703,0
		c0.313-0.313,0.625-0.61,0.92-0.924C49.867,56.204,50.339,56.078,50.44,55.551z M39.258,59.855
		c-0.277-0.238-0.599-0.514-0.896-0.769c0.101-0.559-0.25-0.952-0.266-1.414c-0.267,0-0.48,0-0.694,0.001
		c-0.101,0.101-0.202,0.201-0.302,0.301c0,0.742,0,1.483,0,2.249c0.561,0.484,1.226,0.148,1.81,0.271
		C39.022,60.326,39.224,60.265,39.258,59.855z"/>
	<path fill="currentColor" d="M50.906,47.839c-0.578,0.601-1.229,1.137-1.538,1.955
		c-0.069,0.185-0.281,0.325-0.448,0.459c-0.239,0.192-0.488,0.374-0.749,0.534c-0.291,0.179-0.312,0.526-0.514,0.77
		c-0.201,0.24-0.483,0.369-0.698,0.415c-0.792,0.171-1.455,0.674-2.288,0.769c-0.424,0.049-0.848,0.421-1.221,0.832
		c-1.147-0.148-2.232,0.468-3.428,0.445c-1.188-0.022-2.308-0.454-3.431-0.464c-0.399-0.206-0.756-0.391-1.219-0.629
		c-0.775,0.116-1.537-0.178-2.313-0.626c-0.567-0.328-1.242-0.468-1.798-0.873c-0.166-0.121-0.329-0.249-0.481-0.384
		c-0.659-0.583-1.171-1.329-1.971-1.758c-0.121-0.065-0.264-0.182-0.298-0.303c-0.204-0.71-0.759-1.144-1.225-1.655
		c-0.396-0.435-1.598-2.879-1.641-3.415c-0.054-0.679,0.016-1.367-0.02-2.049c-0.048-0.917,0.104-1.769,0.562-2.578
		c0.313-0.554,0.358-1.182,0.313-1.67c0.186-0.567,0.509-0.884,0.836-1.199c0.223-0.215,0.39-0.465,0.553-0.738
		c0.65-1.087,1.736-1.818,2.428-2.882c0.415-0.639,1.194-0.786,1.754-1.246c0.718-0.591,1.595-0.78,2.473-0.644
		c1.37-1.014,2.824-1.097,4.424-0.615c0.396,0.43,0.921,0.691,1.61,0.865c0.894,0.225,1.808,0.482,2.671,0.83
		c0.677,0.273,1.291,0.704,1.933,1.065c0.919,0.516,1.666,1.287,2.614,1.763c0.184,0.092,0.345,0.275,0.456,0.453
		c0.474,0.756,1.042,1.464,1.611,2.12c0.755,0.868,0.899,1.768,0.828,2.807c-0.02,0.275,0.087,0.521,0.18,0.785
		c0.166,0.473,0.17,1.031,0.293,1.507c0.172,0.669,0.162,1.315,0.161,1.973c-0.001,0.449,0.155,0.935-0.121,1.347
		c-0.244,0.365,0.107,0.828-0.275,1.197C50.786,47.14,50.906,47.552,50.906,47.839z M32.825,49.46
		c0.592,0.427,1.265,0.539,1.724,1.029c0.78,0.832,1.837,1.218,2.897,1.314c1.534,0.14,3.097,0.111,4.636-0.001
		c0.631-0.047,1.403-0.131,1.758-0.956c0.128-0.297,0.524-0.53,0.836-0.765c0.576-0.433,1.325-0.612,1.77-1.23
		c0.415-0.577,0.993-1.072,1.127-1.798c0.111-0.604,0.335-1.19,0.312-1.819c-0.012-0.31,0.099-0.593,0.182-0.891
		c0.293-1.061,0.555-2.162-0.172-3.184c0.063-0.427-0.335-0.764-0.231-1.201c0.054-0.227-0.098-0.379-0.198-0.566
		c-0.175-0.327-0.288-0.689-0.24-1.091c0.042-0.352,0.009-0.712,0.009-1.012c-0.134-0.15-0.229-0.258-0.318-0.358
		c-0.374,0-0.733,0-1.042,0c-0.29-0.27-0.552-0.515-0.8-0.747c0-0.098-0.006-0.17,0.001-0.242c0.028-0.303-0.331-0.437-0.316-0.779
		c-1.122,0.256-2.113-0.113-3.063-0.644c-0.118-0.066-0.198-0.167-0.358-0.185c-0.471-0.051-0.742-0.324-0.801-0.806
		c-0.049-0.398-0.313-0.516-0.678-0.482c-0.059,0.033-0.117,0.064-0.175,0.1c-1.18,0.73-1.589,0.744-2.444-0.042
		c-0.2-0.184-0.321-0.488-0.633-0.495c-0.393,0.149-0.344,0.614-0.514,0.722c-0.356,0.238-0.708,0.012-0.867,0.367
		c-0.15-0.371-0.508-0.184-0.755-0.305c-0.232-0.114-0.412-0.383-0.785-0.34c-0.059,0.07-0.178,0.166-0.239,0.29
		c-0.23,0.468,0.244,0.848,0.181,1.323c-0.325,0.31-0.662,0.63-1.063,1.013c-0.587,0-1.261,0-1.922,0
		c-0.168,0.541,0.288,0.841,0.386,1.253c0.11,0.462-0.215,0.847-0.292,1.307c-0.487,0.278-0.939,0.723-1.574,0.227
		c-0.072-0.057-0.439-0.176-0.522,0.261c0.21,0.29,0.497,0.562,0.771,0.659c0.441,0.541,0.329,1.066,0.312,1.565
		c-0.268,0.218-0.278,0.568-0.544,0.781c-0.25,0.201-0.711,0.181-0.736,0.65c0.085,0.258,0.395,0.301,0.56,0.356
		c0.575,0.193,0.716,0.647,0.715,1.11c-0.001,0.462-0.146,0.904-0.716,1.109c-0.216,0.077-0.529,0.157-0.695,0.417
		c-0.065,0.102-0.073,0.19-0.08,0.31c0.23,0.114,0.466,0.232,0.698,0.348c0.259-0.314,0.59-0.231,0.9-0.241
		c1.078,1.065,1.375,1.855,1.053,2.659C31.163,49.542,31.998,49.482,32.825,49.46z"/>
	<path fill="currentColor" d="M12.688,45.236c0.102-0.102,0.203-0.203,0.308-0.309
		c0.499,0,1.004,0.031,1.503-0.007c0.608-0.047,1.079,0.177,1.473,0.609c0.472,0.165,0.965-0.051,1.455,0.135
		c0.548,0.208,1.031,0.491,1.478,0.854c0.137,0.11,0.244,0.299,0.396,0.343c1.103,0.318,1.771,1.192,2.538,1.941
		c0.077,0.075,0.151,0.153,0.229,0.229c0.673,0.651,1.241,1.436,2.125,1.631c0.34,0.696,0.405,1.307,0.351,1.941
		c-0.095,0.096-0.197,0.197-0.292,0.292c-0.56-0.229-1.181-0.418-1.553-0.886c-0.757-0.95-1.771-1.554-2.698-2.287
		c-0.917-0.725-1.866-1.349-2.933-1.792c-0.861-0.358-1.669-0.911-2.668-0.844c-0.218,0.015-0.338-0.185-0.552-0.237
		C12.893,46.612,12.699,46.299,12.688,45.236z"/>
	<path fill="currentColor" d="M20.557,53.531c-0.321-0.165-0.654-0.343-0.906-0.645
		c-0.406-0.486-1.064-0.359-1.586-0.587c-0.331-0.146-0.778-0.023-1.173-0.029c-0.377-0.005-0.678-0.395-1.058-0.185
		c-0.416-0.416-0.796-0.797-1.198-1.197c0-0.364,0-0.749,0-1.121c0.166-0.165,0.318-0.317,0.495-0.495c0.326,0,0.679,0,1.093,0
		c0.569,0.451,1.355,0.548,2.065,0.823c0.572,0.221,1.14,0.398,1.592,0.844c0.294,0.29,0.645,0.515,1.112,0.467
		c0.446,0.507,1.08,0.885,1.185,1.653c0.03,0.22-0.139,0.308-0.286,0.472C21.472,53.531,21.014,53.531,20.557,53.531z"/>
	<path fill="currentColor" d="M20.659,43.751c0,0.291,0,0.576,0,0.852
		c-0.184,0.186-0.359,0.364-0.548,0.556c-0.598-0.088-1.188-0.234-1.668-0.629c-0.299-0.246-0.611-0.439-0.993-0.457
		c-0.225-0.012-0.433-0.164-0.536-0.249c-0.879-0.726-1.984-0.945-2.981-1.395c-0.449-0.202-1.014-0.127-1.417-0.579
		c-0.143-0.299-0.008-0.641-0.064-0.914c0.14-0.141,0.216-0.217,0.31-0.311c0.623,0,1.263,0,1.926,0
		c0.833,0.502,1.802,0.822,2.583,1.459C18.512,42.014,19.646,42.678,20.659,43.751z"/>
	
	
	
	
	
	
	
	<path fill="currentColor" d="M43.558,40.904c-1.02-2.049-2.364-3.311-4.66-3.084
		c-0.114-0.127-0.211-0.303-0.358-0.384c-0.378-0.208-0.779-0.374-1.178-0.56c-0.083-0.166-0.174-0.344-0.282-0.559
		c0-0.375,0.402-0.841,1.204-1.322c0.76-0.098,1.518,0.291,2.334,0.25c0.331-0.016,0.693,0.378,1.022,0.613
		c0.787,0.559,1.631,1.037,2.3,1.763c0.403,0.437,0.759,0.873,1.001,1.425c0.12,0.274,0.147,0.738,0.649,0.697
		c0.082,0.286,0.407,0.485,0.34,0.814c-0.125,0.613,0.067,1.211,0.257,1.734c0.281,0.778,0.224,1.551,0.144,2.294
		c-0.069,0.636-0.394,1.28-0.738,1.838c-0.3,0.484-0.757,0.89-1.169,1.291c-0.499,0.487-1.11,0.86-1.795,1.115
		c-0.683,0.254-1.399,0.415-2.041,0.819c-0.283,0.178-0.775,0-1.168,0.037c-0.548,0.051-1.112-0.167-1.653,0.186
		c-0.174,0.113-0.5,0.025-0.784-0.146c-0.598-0.359-1.25-0.628-1.861-0.981c-0.359-0.208-0.743-0.438-1.156-0.586
		c-0.817-0.291-1.147-1.016-1.415-1.755c-0.25-0.69-0.387-1.415-0.62-2.116c-0.151-0.453-0.392-0.849-0.573-1.276
		c-0.12-0.285-0.2-0.624-0.064-0.791c0.338-0.417,0.291-0.973,0.607-1.368c-0.35-0.779-0.325-0.915,0.315-1.754
		c0.213,0,0.428,0,0.681,0c0.127,0.135,0.271,0.296,0.424,0.447c0.598,0.592,1.038,1.198,0.538,2.1
		c-0.134,0.241-0.026,0.58-0.214,0.884c-0.241,0.392,0.299,0.76,0.178,1.21c0.742,0.557,0.976,1.518,1.687,2.099
		c0.684,0.56,1.572,0.742,2.393,1.249c1.165,0.055,2.336-0.229,3.428-0.857c0.079-0.045,0.213-0.002,0.278-0.107
		c0.401-0.645,1.008-1.127,1.39-1.797c0.214-0.374,0.102-0.781,0.32-1.169C43.727,42.432,43.537,41.58,43.558,40.904z"/>
	<path fill="currentColor" d="M39.887,40.48c0,0.457,0,0.888,0,1.186c-0.343,0.973-0.996,1.216-1.942,1.06
		c-0.51-0.918-1.558-1.534-1.969-2.658c-0.089-0.245-0.355-0.478-0.599-0.604c-0.814-0.421-1.035-1.286-1.547-1.931
		c-0.229-0.287-0.198-0.578-0.206-0.892c0.15-0.189,0.28-0.416,0.731-0.321c0.916,0.717,2.064,1.326,3.009,2.261
		C38.083,39.295,38.992,39.82,39.887,40.48z"/>
</g>
</svg>
