<?xml version="1.0" encoding="iso-8859-1"?>
<!-- Generator: Adobe Illustrator 16.0.0, SVG Export Plug-In . SVG Version: 6.00 Build 0)  -->
<!DOCTYPE svg PUBLIC "-//W3C//DTD SVG 1.1//EN" "http://www.w3.org/Graphics/SVG/1.1/DTD/svg11.dtd">
<svg version="1.1" id="Layer_1" xmlns="http://www.w3.org/2000/svg" xmlns:xlink="http://www.w3.org/1999/xlink" x="0px" y="0px"
	 width="72.18px" height="70.921px" viewBox="0 0 72.18 70.921" style="enable-background:new 0 0 72.18 70.921;"
	 xml:space="preserve">
<g>
	<path style="fill-rule:evenodd;clip-rule:evenodd;fill:none;" d="M79.416,78.048c-28.8,0-57.6,0-86.399,0
		c0-28.297,0-56.591,0-84.887c28.799,0,57.599,0,86.399,0C79.416,21.457,79.416,49.751,79.416,78.048z M25.439,21.526
		c-0.413,0.448-0.594,1.005-0.638,1.502c-0.085,0.945-0.596,1.673-1.097,2.354c-0.561,0.762-0.999,1.482-0.866,2.459
		c0.17,0.17,0.348,0.348,0.526,0.526c0.36,0,0.719,0,1.08,0c0.198-0.25,0.609-0.214,0.749-0.535
		c0.425-0.982,1.173-1.746,1.759-2.619c0.058-0.086,0.157-0.153,0.188-0.247c0.142-0.43,0.466-0.752,0.831-0.897
		c0.618-0.245,1.028-0.699,1.474-1.135c0.226-0.22,0.487-0.321,0.793-0.436c0.928-0.349,2.016-0.554,2.329-1.655
		c0.399,0,0.713,0,0.977,0c0.563,1.109,0.953,2.264,1.958,3.023c0.262,0.198,0.432,0.519,0.474,0.771
		c0.139,0.844,0.743,1.366,1.164,1.996c0.328,0,0.615,0,0.876,0c0.565-0.292,0.609-1.038,1.128-1.263c0.278,0,0.486,0,0.727,0
		c0.175,1.23-0.598,2.063-1.112,2.99c-0.306-0.038-0.574,0.091-0.843-0.121c-0.751-0.593-1.665-0.925-2.346-1.665
		c-0.681-0.738-1.032-1.015-1.285-1.944c-0.111-0.409-0.229-0.78-0.605-1.033c-0.786,0.112-1.303,0.56-1.652,1.272
		c-0.352,0.112-0.74,0.47-1.129,0.2c-0.384-0.266-0.739-0.072-1.047-0.163c-0.973,0.973-1.89,1.889-2.806,2.805
		c-0.178,0.178-0.421,0.326-0.522,0.541c-0.263,0.562-0.677,0.914-1.209,1.224c-0.385,0.225-0.719,0.608-0.957,0.995
		c-0.246,0.399-0.538,0.679-0.926,0.933c-0.498,0.327-0.945,0.751-1.241,1.282c-0.108,0.194-0.228,0.324-0.409,0.435
		c-0.697,0.428-1.242,1.006-1.64,1.695c-0.502,0.124-0.866,0.427-1.205,0.783c-0.552,0.579-1.143,1.137-1.887,1.437
		c-0.678,0.275-1.32,0.626-2.021,0.863c-0.55,0.187-1.171,0.409-1.469,0.963c0,0.395,0,0.749,0,0.94
		c0.229,0.304,0.379,0.503,0.497,0.66c0.542,0,1.01,0.009,1.478-0.005c0.201-0.006,0.396,0.039,0.607-0.1
		c0.92-0.614,2.159-0.659,2.893-1.612c1.077-0.162,1.407-1.188,1.995-1.856c0.461-0.523,0.974-1.01,1.416-1.554
		c0.441-0.545,0.789-1.193,1.384-1.576c0.48-0.308,0.813-0.644,0.994-1.203c0.088-0.274,0.395-0.568,0.671-0.675
		c0.667-0.259,1.245-0.658,1.842-1.023c0.412-0.25,0.645-0.088,0.85,0.172c-0.143,0.337-0.323,0.624-0.573,0.875
		c-0.614,0.614-1.284,1.123-2.094,1.467c-0.256,0.108-0.622,0.187-0.747,0.519c-0.333,0.883-0.866,1.569-1.663,2.118
		c-0.519,0.358-0.642,1.083-0.922,1.653c-0.135,0.275,0.114,0.454,0.31,0.634c1.172,0.089,2.16-0.273,2.944-1.194
		c0.373-0.438,0.763-0.883,1.225-1.215c1.304-0.937,2.36-2.11,3.328-3.367c0.406-0.529,0.822-1.112,1-1.736
		c0.135-0.477,0.399-0.68,0.719-0.992c0.566,0.541,0.694,1.412,1.506,1.602c0.623-0.229,0.981-0.641,1.188-1.29
		c0.156-0.494,0.36-1.045,0.858-1.28c0.263,0,0.472,0,0.696,0c0.46,0.813,1.2,1.396,1.913,1.871
		c0.795,0.529,1.456,1.174,2.098,1.738c0.694,0.164,1.204-0.14,1.74-0.468c0.565,0.792,1.1,1.542,1.635,2.29
		c0.062,0.084,0.178,0.159,0.186,0.245c0.065,0.78,0.7,1.283,0.963,1.981c0.174,0.46,0.681,0.843,1.122,1.138
		c0.307,0.205,0.749,0.459,1.145,0.162c0.242-0.181,0.477-0.135,0.706-0.117c0.471,0.035,0.887-0.076,1.271-0.327
		c0.103-0.319,0.196-0.641,0.309-0.954c0.28-0.781,0.627-1.044,1.448-1.103c0.177-0.012,0.355-0.001,0.281-0.001
		c1.095-0.289,1.33-1.1,1.768-1.719c0.22,0,0.434,0,0.655,0c0.438,0.443,0.493,1.159,1.063,1.502
		c0.622,0.374,1.248,0.208,1.826-0.023c0.438,0.227,0.62,0.604,0.839,1.058c0.005,1.234,0.753,2.317,1.13,3.387
		c0.746,0.431,1.384,0.8,2.071,1.195c0.229,0,0.515,0.002,0.801-0.002c0.028-0.001,0.055-0.04,0.082-0.06
		c0.204-0.204,0.422-0.396,0.608-0.614c0.704-0.823,0.719-1.324-0.044-2.141c-0.158-0.17-0.287-0.373-0.57-0.445
		c-0.212-0.053-0.414-0.283-0.548-0.482c-0.505-0.752-0.867-1.582-1.109-2.451c-0.058-0.206-0.266-0.314-0.24-0.554
		c0.077-0.737-0.358-1.272-0.702-1.869c-0.435-0.757-1.165-1.222-1.479-1.644c-0.428-1.115-0.304-2.13-1.207-2.699
		c-0.896,0.063-1.097,0.219-1.487,0.872c-0.401,0.672-0.499,1.45-0.798,2.116c-1.084,0.296-2.062,1.09-3.213,0.469
		c-0.432,0.34-1.042,0.116-1.435,0.5c-0.411,0.402-0.815,0.813-1.223,1.221c-0.242-0.011-0.492,0.071-0.752-0.071
		c-0.988-1.395-1.855-2.867-2.021-4.635c-0.396-0.238-0.395-0.246-0.672-0.251c-0.728,0.18-0.7,0.835-1.146,1.087
		c-0.169-0.042-0.355,0.053-0.498-0.12c-0.458-0.551-0.469-1.25-0.644-1.894c0.421-0.461,0.117-1.025,0.233-1.518
		c-0.427-0.528-0.918-0.876-1.673-0.791c-0.197-0.211-0.527-0.412-0.617-0.688c-0.221-0.683-0.916-0.805-1.313-1.263
		c-0.558,0.042-0.638-0.527-0.691-0.779c-0.109-0.519-0.404-0.922-0.588-1.386c-0.484-1.227-1.214-2.39-0.969-3.639
		c-0.35-0.817-0.638-1.491-0.92-2.15c-0.799-0.315-0.799-0.315-1.627,0.03c-0.16,0.372-0.335,0.732-0.472,1.106
		c-0.223,0.615-0.486,1.188-0.98,1.65c-0.479,0.447-0.985,0.873-1.202,1.552c-0.087,0.271-0.346,0.521-0.72,0.622
		c-0.41-0.469-0.951-0.821-1.204-1.562c0-0.156,0-0.444,0-0.718c-0.258-0.265-0.509-0.521-0.755-0.773c-0.294,0-0.582,0-0.866,0
		c-0.229,0.214-0.412,0.487-0.701,0.527C26.119,18.597,25.239,19.864,25.439,21.526z M31.141,39.816c1.043,0,2.089-0.035,3.13,0.01
		c1.06,0.044,2.079-0.425,3.283-0.157c0.043,0.06,0.166,0.235,0.211,0.298c0.959,0.211,1.728,0.002,2.359-0.521
		c0.499-0.411,1.008-0.574,1.643-0.466c0.499,0.629,1.208,0.949,1.913,1.323c0.681,0.361,1.327,0.778,2.015,1.009
		c0.651-0.22,1.3-0.571,1.91-0.383c0.739,0.229,1.444,0.122,2.148,0.192c0.288-0.47,0.682-0.763,0.976-1.166
		c0.344-0.469,0.893-0.988,1.666-0.741c-0.051,0.465,0.319,0.783,0.429,1.078c0.116,0.229,0.233,0.456,0.289,0.566
		c0.493,0.038,0.906-0.041,1.185,0.114c0.753,0.421,1.545,0.338,2.325,0.355c0.188-0.188,0.368-0.364,0.545-0.539
		c0-0.292,0-0.58-0.001-0.867c-0.356-0.356-0.801-0.66-1.049-1.08c-0.462-0.778-1.05-1.356-1.903-1.653
		c-0.45-0.157-0.72-0.536-1.042-0.824c-0.447,0-0.877,0-1.278,0c-0.182,0.154-0.324,0.323-0.508,0.421
		c-0.552,0.296-1.197,0.577-1.445,1.128c-0.276,0.614-0.812,0.853-1.265,1.161c-0.4,0.274-0.851,0.526-1.282,0.743
		c-0.298,0.153-0.362-0.217-0.581-0.221c-0.985-0.021-1.7-0.607-2.246-1.307c-0.369-0.473-0.774-0.899-1.174-1.34
		c-0.207-0.229-0.394-0.459-0.553-0.739c-0.371-0.652-0.787-1.29-1.347-1.807c-0.565,0.063-1.146-0.141-1.642,0.257
		c-0.206-0.286-0.509-0.227-0.757-0.286c-0.49-0.463-0.891-1.015-1.61-1.281c-0.288,0-0.642,0-0.972,0
		c-0.257-0.274-0.553-0.477-0.609-0.85c-0.306,0.109-0.403-0.347-0.694-0.206c-1.005,0.177-1.284,1.182-1.935,1.748
		c-0.529,0-1.028,0-1.527,0c-0.594,0.164-0.812,0.787-1.299,1.053c-0.738,0.403-1.272,1.039-1.759,1.669
		c-0.262,0.34-0.483,0.64-0.873,0.793c-0.521,0.205-0.802,0.586-0.899,1.09c0.217,0.902,0.751,1.305,1.643,1.19
		c0.51-0.491,0.97-1.024,1.594-1.38c0.592-0.339,0.64-1.256,1.448-1.374c0.082,0.13,0.298,0.186,0.295,0.314
		c-0.495,0.492-0.948,0.942-1.296,1.289c0,0.419,0,0.634,0,0.846C30.784,39.46,30.962,39.639,31.141,39.816z M11.043,34.48
		c-0.184-0.076-0.236-0.083-0.242-0.104c-0.167-0.581-0.612-0.811-1.152-0.813c-0.543-0.002-0.928,0.258-1.166,0.806
		c-0.252,0.582-0.629,1.109-0.987,1.724c-0.347,2.159,0.868,2.936,3.133,2.85c0.108-0.271,0.437-0.312,0.604-0.352
		c1.067-0.251,2.026-0.61,2.495-1.845c-0.146-0.395,0.264-0.852,0.253-1.373c0.724-0.564,0.622-1.468,0.926-2.232
		c0.158,0,0.327,0,0.487,0c0.315,0.314,0.62,0.62,0.962,0.962c0,0.276,0,0.589,0,0.857c0.376,0.441,0.713,0.337,1.149,0.15
		c1.324-0.566,2.059-1.729,2.942-2.644c0-0.392,0-0.68,0-0.97c0.178-0.176,0.356-0.353,0.536-0.531
		c0.303,0.01,0.64-0.117,0.873,0.203c0.096-0.233,0.376-0.154,0.528-0.312c0-0.207,0-0.42,0-0.685
		c-0.902-0.704-1.496-1.832-2.519-2.215c-1.061-0.018-1.141,0.975-1.654,1.237c-0.422,0.114-0.621-0.049-0.754-0.265
		c-0.155-0.254-0.272-0.534-0.385-0.811c-0.315-0.767-0.883-1.108-1.668-1.048c-0.279,0.266-0.539,0.513-0.757,0.721
		c-0.133,0.661-0.234,1.272-0.849,1.678c-0.331-0.135-0.625,0.128-0.953,0.176c-0.694,0.102-0.85,0.649-1.02,1.151
		c-0.098,0.29-0.052,0.646-0.01,0.963c0.05,0.37-0.27,0.621-0.234,0.991C11.643,33.384,11.265,33.886,11.043,34.48z M36.383,43.691
		c0.532,0.068,1.058-0.102,1.557,0.215c0.286,0.181,0.529-0.247,0.873-0.216c0.534,0.051,1.077-0.002,1.614,0.018
		c0.494,0.021,0.841-0.242,1.154-0.5c0-0.351,0-0.663,0-0.834c-0.197-0.452-0.586-0.396-0.791-0.622
		c-0.779,0.059-1.539-0.062-2.307,0.196c-0.453,0.152-1.101-0.149-1.474,0.071c-0.488,0.288-1.05-0.042-1.482,0.369
		c-0.129,0.122-0.564,0.109-0.713-0.016c-0.33-0.277-0.682-0.108-1.01-0.187c-0.476-0.112-0.872,0.308-1.31,0.206
		c-0.424-0.101-0.779,0.235-1.238,0.045c-0.387-0.16-0.884,0.045-1.311-0.227c-0.128-0.082-0.393-0.04-0.61,0.039
		c-0.437,0.163-0.903,0.36-1.354,0.352c-0.985-0.017-1.887,0.266-2.789,0.577c-0.309,0.106-0.564,0.07-0.883-0.015
		c-0.817-0.218-1.649-0.258-2.34,0.402c0,0.223,0,0.435,0,0.629c0.218,0.389,0.581,0.591,1.069,0.8
		c0.742,0.095,1.639-0.177,2.477,0.222c1.001-0.211,1.847,0.559,2.833,0.447c0.349,0.397,0.856,0.03,1.198,0.222
		c0.408,0.229,0.812,0.137,1.215,0.202c0.472,0.076,0.882-0.229,1.312-0.206c1.125,0.058,2.189-0.17,3.266-0.528
		c0.238-0.313,0.492-0.638,0.442-1.118C35.954,44.08,36.139,43.912,36.383,43.691z M35.982,61.857
		c0.438-0.079,0.975,0.086,1.498-0.085c0.654-0.212,1.309-0.415,2.013-0.36c0.287,0.022,0.634,0.105,0.852-0.019
		c0.431-0.245,0.91-0.254,1.354-0.377c0.501-0.141,1.075-0.075,1.609-0.023c0.973,0.095,1.56-0.531,2.337-1.078
		c-0.319-0.216-0.554-0.374-0.937-0.633c-0.493,0.075-1.249-0.116-2.031,0.147c-0.51,0.171-1.187,0.194-1.731-0.174
		c-0.995,0.157-1.945-0.26-2.935-0.224c-0.936,0.034-1.872,0.001-2.808,0.01c-0.661,0.005-1.259-0.247-1.875-0.435
		c-0.174,0.345-0.583,0.112-0.829,0.353c-0.348,0.339-0.828,0.262-1.274,0.313c-0.48,0.057-0.904-0.137-1.303-0.271
		c-0.343-0.115-0.661-0.168-1.003-0.176c-0.36-0.007-0.725-0.034-1.079,0.008c-0.347,0.042-0.674-0.136-0.837-0.305
		c-0.424-0.436-0.964-0.65-1.503-0.969c-0.916,0.006-1.894-0.621-2.872,0.052c0,0.301,0,0.615,0,0.908
		c0.375,0.376,0.737,0.728,1.087,1.091c0.437,0.453,1.002,0.716,1.573,0.891c0.427,0.13,0.927-0.004,1.383,0.064
		c0.424,0.062,0.749,0.527,1.223,0.406c0.285-0.072,0.328,0.278,0.579,0.226c0.214-0.167,0.46-0.237,0.758-0.22
		c1.624,0.099,3.256-0.152,4.882,0.197C34.759,61.314,35.336,61.526,35.982,61.857z M46.917,45c0.301,0,0.735,0.135,0.923-0.025
		c0.574-0.483,1.088-0.011,1.559,0.078c0.442,0.084,0.878,0.149,1.323,0.16c0.647,0.014,1.296,0.023,1.942-0.002
		c0.729-0.029,1.451,0.079,2.187-0.184c0.52-0.186,1.07,0.036,1.514,0.616c-0.568,0-1.056,0-1.435,0
		c-0.452,0.334-0.365,0.685-0.309,1.087c0.612,0.439,1.52,0.188,2.042,0.674c-0.129,1.034-1.202,0.867-1.395,1.213
		c-0.671,0.549-0.93-0.045-1.336,0.047c-0.121,0.027-0.188,0.062-0.224,0.183c-0.039,0.42,0.463,0.193,0.551,0.439
		c0.73-0.573,0.972,0.417,1.394,0.397c0.79,0.278,1.395-0.221,2.019-0.158c0.281-0.264,0.543-0.508,0.789-0.737
		c-0.017-0.545,0.422-1.003,0.175-1.563c-0.109-0.11-0.237-0.236-0.362-0.363c0-0.315,0-0.628,0-0.94
		c0.041,0.032,0.083,0.065,0.124,0.098c0.13-0.217,0.26-0.433,0.326-0.542c0.493-0.109,0.933,0.123,1.227-0.368
		c0-0.263,0-0.576,0-0.825c-0.193-0.224-0.356-0.412-0.512-0.593c-1.177,0.048-2.328,0.103-3.222-0.587
		c-1.097-0.229-2.036,0.27-3.034,0.183c-0.785-0.069-1.581-0.014-2.373-0.014c-0.395,0-0.797,0.043-1.185-0.012
		c-0.441-0.063-0.816,0.159-1.197,0.26c-0.631,0.167-1.385,0.115-1.842,0.733C46.508,44.575,46.644,44.806,46.917,45z
		 M16.119,50.616c0.394-0.182,0.659-0.389,0.94-0.415c0.526-0.047,1.124-0.134,1.582,0.059c0.734,0.308,1.459,0.375,2.222,0.357
		c0.287-0.007,0.581-0.04,0.86,0.009c0.343,0.06,0.546-0.237,0.881-0.242c1.658-0.023,3.323,0.153,4.976-0.184
		c0.517-0.104,1.073-0.017,1.51-0.017c0.691-0.27,1.084-0.767,1.497-1.181c0-0.186,0-0.325,0-0.386
		c-0.206-0.238-0.369-0.427-0.513-0.593c-0.257,0-0.473,0.012-0.688-0.004c-0.163-0.013-0.248,0.091-0.366,0.164
		c-0.127,0.081-1.32,0.095-1.519,0.054c-0.946-0.19-1.889-0.419-2.84-0.006c-0.121,0.053-0.356,0.068-0.416-0.003
		c-0.291-0.345-0.666-0.187-1-0.198c-0.717-0.023-1.439,0.037-2.153-0.021c-0.747-0.06-1.427,0.299-2.174,0.24
		c-1.051-0.083-1.995,0.293-2.963,0.848c-0.597,0.065-1.321-0.162-1.968,0.303c0,0.225,0,0.466,0,0.687
		C14.596,50.804,15.407,50.585,16.119,50.616z M46.142,29.161c0.204,0.709,0.738,1.123,1.186,1.561
		c0.55,0.115,0.968-0.108,1.341-0.444c0.46-0.413,0.974-0.709,1.559-0.934c0.493-0.19,0.979-0.023,1.455-0.134
		c0.224-0.152,0.545-0.255,0.655-0.468c0.267-0.517,0.67-0.937,0.939-1.444c0.193-0.364,0.258-0.686,0.104-1.154
		c-0.181-0.55-0.511-0.884-0.897-1.244c-0.352,0-0.709,0-1.056,0c-0.473-0.636-0.262-1.36-0.314-2.046
		c-0.48-0.464-0.48-0.464-0.967-0.534c-0.178,0.178-0.436,0.325-0.521,0.54c-0.394,1.007-1.074,1.854-1.519,2.826
		c-0.157,0.343-0.374,0.644-0.535,0.967C47.151,27.499,46.296,28.088,46.142,29.161z M12.023,41.61
		c-0.931-0.272-1.685,0.228-2.408,0.168c-0.455,0.188-0.807,0.404-1.04,0.75c0,0.369,0,0.727,0,0.874
		c0.355,1.263,1.205,1.215,2.064,1.146c0.127-0.127,0.254-0.255,0.417-0.418c0.359,0.103,0.693-0.188,1.046-0.188
		c0.385,0,0.751,0.342,1.176,0.126C13.779,42.821,13.674,42.627,12.023,41.61z M31.543,68.945c0.684,0.11,1.289-0.123,1.86,0.229
		c0.182,0.112,0.585,0.123,0.727-0.003c0.36-0.319,0.745-0.177,1.116-0.188c0.791-0.023,1.585,0.032,2.374-0.018
		c0.813-0.051,1.565,0.455,2.436,0.161c0.199-0.197,0.538-0.267,0.84-0.409c0.043-0.021,0.05-0.119,0.074-0.183
		c-0.011-0.208-0.22-0.265-0.281-0.362c-1.103-0.327-2.054,0.304-3.045,0.395c-0.315-0.314-0.595-0.595-0.921-0.921
		c-0.431,0.158-0.947-0.142-1.401,0.176c-0.425,0.299-0.894,0.34-1.386,0.278c-1.192-0.59-1.041-0.756-2.571-0.418
		c-0.188,0.233-0.52,0.365-0.561,0.68C30.946,68.746,31.354,68.704,31.543,68.945z M21.979,56.236
		c0.578-0.349,1.186-0.479,1.462-1.013c0.166-0.316-0.023-0.524-0.235-0.646c-0.446-0.257-0.92-0.439-1.451-0.196
		c-0.671,0.308-1.458-0.088-2.118,0.334c-0.042,0.027-0.156,0.006-0.193-0.033c-0.33-0.355-0.73-0.082-1.049-0.187
		c-0.264,0.31-0.639,0.479-0.566,0.793c0.244,0.299,0.419,0.516,0.5,0.615C19.599,56.397,20.802,56.181,21.979,56.236z
		 M54.658,51.45c-0.545-0.159-0.954-0.346-1.38-0.39c-1.081-0.111-2.137,0.052-3.171,0.404c-0.183,0.063-0.296,0.161-0.43,0.269
		c-0.106,0.084-0.059,0.191-0.063,0.292c0.131,0.175,0.433,0.059,0.532,0.335c0.423-0.115,0.896,0.178,1.313-0.216
		c0.113-0.108,0.514-0.106,0.614,0c0.312,0.332,0.673,0.171,1.008,0.19c0.333,0.021,0.694,0.098,0.979-0.183
		c0.55,0.4,1.161,0.084,1.611,0.182c0.482-0.236,0.862-0.417,1.042-0.767c0-0.253,0-0.463,0-0.704c-0.334,0-0.648,0-0.931,0
		C55.381,51.073,54.996,51.275,54.658,51.45z M47.333,67.45c0.352-0.252,0.581-0.418,0.762-0.547
		c0.012-0.295-0.205-0.35-0.297-0.495c-0.386,0-0.77,0-1.091,0c-0.493,0.421-0.99,0.79-1.56,0.814
		c-0.768,0.034-1.47,0.273-2.189,0.464c-0.451,0.121-0.852,0.352-1.134,0.839c0.442,0,0.891,0.121,1.196-0.035
		c0.282-0.144,0.534-0.179,0.797-0.153c0.715,0.07,1.36-0.171,1.971-0.457C46.361,67.611,46.92,67.414,47.333,67.45z M40.947,52.776
		c-0.301,0-0.517,0-0.728,0c-0.179,0.178-0.355,0.354-0.484,0.483c0.167,0.214,0.335,0.432,0.49,0.631
		c0.278-0.127,0.489-0.223,0.722-0.33C40.947,53.334,40.947,53.093,40.947,52.776z M16.084,44.33
		c-0.259-0.179-0.402-0.278-0.608-0.422c-0.259-0.034-0.527,0.07-0.646,0.438c0.096,0.383,0.375,0.465,0.772,0.435
		C15.7,44.689,15.826,44.572,16.084,44.33z M47.857,51.33c0.028,0.142,0.046,0.237,0.077,0.4c0.277-0.118,0.558,0.1,0.8-0.13
		C48.545,51.313,48.296,51.184,47.857,51.33z"/>
	<path fill="currentColor" d="M25.439,21.526c-0.2-1.662,0.68-2.929,1.329-4.292
		c0.289-0.04,0.471-0.313,0.701-0.527c0.284,0,0.572,0,0.866,0c0.246,0.252,0.497,0.509,0.755,0.773c0,0.273,0,0.562,0,0.718
		c0.253,0.74,0.794,1.093,1.204,1.562c0.374-0.101,0.632-0.351,0.72-0.622c0.217-0.679,0.723-1.104,1.202-1.552
		c0.494-0.462,0.757-1.035,0.98-1.65c0.136-0.375,0.312-0.735,0.472-1.106c0.828-0.345,0.828-0.345,1.627-0.03
		c0.282,0.66,0.57,1.333,0.92,2.15c-0.245,1.249,0.485,2.412,0.969,3.639c0.184,0.464,0.479,0.867,0.588,1.386
		c0.054,0.252,0.134,0.821,0.691,0.779c0.396,0.458,1.092,0.58,1.313,1.263c0.09,0.277,0.42,0.478,0.617,0.688
		c0.755-0.085,1.246,0.263,1.673,0.791c-0.116,0.493,0.188,1.056-0.233,1.518c0.175,0.645,0.186,1.343,0.644,1.894
		c0.143,0.173,0.329,0.078,0.498,0.12c0.446-0.252,0.419-0.907,1.146-1.087c0.277,0.005,0.275,0.013,0.672,0.251
		c0.165,1.769,1.032,3.24,2.021,4.635c0.26,0.142,0.51,0.06,0.752,0.071c0.407-0.408,0.812-0.818,1.223-1.221
		c0.393-0.383,1.003-0.16,1.435-0.5c1.151,0.621,2.129-0.173,3.213-0.469c0.299-0.666,0.396-1.444,0.798-2.116
		c0.391-0.653,0.592-0.81,1.487-0.872c0.903,0.569,0.779,1.584,1.207,2.699c0.313,0.421,1.044,0.887,1.479,1.644
		c0.344,0.597,0.779,1.132,0.702,1.869c-0.025,0.24,0.183,0.348,0.24,0.554c0.242,0.869,0.604,1.699,1.109,2.451
		c0.134,0.199,0.336,0.43,0.548,0.482c0.283,0.072,0.412,0.275,0.57,0.445c0.763,0.816,0.748,1.317,0.044,2.141
		c-0.187,0.219-0.404,0.41-0.608,0.614c-0.027,0.02-0.054,0.059-0.082,0.06c-0.286,0.004-0.572,0.002-0.801,0.002
		c-0.688-0.396-1.325-0.765-2.071-1.195c-0.377-1.069-1.125-2.152-1.13-3.387c-0.219-0.453-0.401-0.831-0.839-1.058
		c-0.578,0.231-1.204,0.397-1.826,0.023c-0.57-0.343-0.626-1.059-1.063-1.502c-0.222,0-0.436,0-0.655,0
		c-0.438,0.619-0.673,1.431-1.768,1.719c0.074,0-0.104-0.011-0.281,0.001c-0.821,0.059-1.168,0.322-1.448,1.103
		c-0.112,0.313-0.206,0.635-0.309,0.954c-0.385,0.251-0.801,0.362-1.271,0.327c-0.229-0.018-0.464-0.063-0.706,0.117
		c-0.396,0.297-0.838,0.043-1.145-0.162c-0.441-0.295-0.948-0.678-1.122-1.138c-0.263-0.698-0.897-1.201-0.963-1.981
		c-0.008-0.086-0.124-0.161-0.186-0.245c-0.535-0.749-1.069-1.499-1.635-2.29c-0.536,0.328-1.046,0.631-1.74,0.468
		c-0.642-0.564-1.303-1.209-2.098-1.738c-0.713-0.475-1.453-1.058-1.913-1.871c-0.224,0-0.433,0-0.696,0
		c-0.498,0.235-0.702,0.786-0.858,1.28c-0.207,0.649-0.564,1.062-1.188,1.29c-0.812-0.19-0.939-1.061-1.506-1.602
		c-0.32,0.313-0.584,0.516-0.719,0.992c-0.177,0.625-0.593,1.208-1,1.736c-0.967,1.256-2.024,2.43-3.328,3.367
		c-0.461,0.332-0.852,0.777-1.225,1.215c-0.785,0.921-1.772,1.283-2.944,1.194c-0.196-0.18-0.445-0.358-0.31-0.634
		c0.28-0.57,0.403-1.295,0.922-1.653c0.797-0.549,1.33-1.235,1.663-2.118c0.125-0.332,0.49-0.41,0.747-0.519
		c0.811-0.344,1.48-0.853,2.094-1.467c0.25-0.25,0.43-0.537,0.573-0.875c-0.205-0.261-0.438-0.423-0.85-0.172
		c-0.598,0.365-1.176,0.764-1.842,1.023c-0.276,0.107-0.583,0.401-0.671,0.675c-0.18,0.559-0.513,0.895-0.994,1.203
		c-0.596,0.383-0.943,1.031-1.384,1.576c-0.441,0.544-0.954,1.031-1.416,1.554c-0.588,0.668-0.918,1.694-1.995,1.856
		c-0.734,0.953-1.973,0.998-2.893,1.612c-0.21,0.139-0.406,0.094-0.607,0.1c-0.468,0.014-0.937,0.005-1.478,0.005
		c-0.118-0.157-0.268-0.356-0.497-0.66c0-0.191,0-0.546,0-0.94c0.298-0.554,0.919-0.776,1.469-0.963
		c0.701-0.237,1.343-0.588,2.021-0.863c0.744-0.3,1.335-0.858,1.887-1.437c0.339-0.355,0.703-0.659,1.205-0.783
		c0.397-0.689,0.943-1.268,1.64-1.695c0.181-0.111,0.3-0.241,0.409-0.435c0.295-0.53,0.743-0.955,1.241-1.282
		c0.388-0.254,0.68-0.534,0.926-0.933c0.237-0.387,0.572-0.77,0.957-0.995c0.532-0.31,0.946-0.662,1.209-1.224
		c0.101-0.215,0.344-0.363,0.522-0.541c0.917-0.916,1.833-1.833,2.806-2.805c0.308,0.091,0.664-0.104,1.047,0.163
		c0.389,0.271,0.777-0.088,1.129-0.2c0.349-0.713,0.866-1.161,1.652-1.272c0.377,0.253,0.494,0.624,0.605,1.033
		c0.252,0.929,0.604,1.206,1.285,1.944c0.681,0.74,1.595,1.072,2.346,1.665c0.269,0.212,0.537,0.083,0.843,0.121
		c0.515-0.927,1.287-1.759,1.112-2.99c-0.24,0-0.448,0-0.727,0c-0.519,0.225-0.563,0.971-1.128,1.263c-0.261,0-0.548,0-0.876,0
		c-0.421-0.629-1.024-1.151-1.164-1.996c-0.042-0.252-0.212-0.573-0.474-0.771c-1.004-0.759-1.395-1.914-1.958-3.023
		c-0.264,0-0.578,0-0.977,0c-0.313,1.101-1.401,1.306-2.329,1.655c-0.306,0.115-0.567,0.215-0.793,0.436
		c-0.446,0.436-0.856,0.89-1.474,1.135c-0.365,0.145-0.689,0.467-0.831,0.897c-0.03,0.093-0.13,0.161-0.188,0.247
		c-0.586,0.873-1.334,1.636-1.759,2.619c-0.139,0.321-0.55,0.285-0.749,0.535c-0.36,0-0.72,0-1.08,0
		c-0.178-0.178-0.356-0.356-0.526-0.526c-0.132-0.977,0.305-1.698,0.866-2.459c0.501-0.681,1.012-1.409,1.097-2.354
		C24.845,22.531,25.026,21.974,25.439,21.526z"/>
	<path fill="currentColor" d="M31.14,39.816c-0.178-0.178-0.356-0.356-0.537-0.538
		c0-0.212,0-0.427,0-0.846c0.348-0.347,0.801-0.797,1.296-1.289c0.003-0.129-0.213-0.185-0.295-0.314
		c-0.809,0.118-0.856,1.035-1.448,1.374c-0.624,0.355-1.084,0.889-1.594,1.38c-0.892,0.114-1.426-0.288-1.643-1.19
		c0.097-0.504,0.378-0.885,0.899-1.09c0.389-0.153,0.61-0.453,0.873-0.793c0.486-0.63,1.021-1.266,1.759-1.669
		c0.487-0.266,0.705-0.89,1.299-1.053c0.499,0,0.998,0,1.527,0c0.65-0.566,0.929-1.571,1.935-1.748
		c0.291-0.141,0.389,0.315,0.694,0.206c0.056,0.373,0.353,0.576,0.609,0.85c0.33,0,0.684,0,0.972,0
		c0.72,0.266,1.12,0.818,1.61,1.281c0.248,0.06,0.551,0,0.757,0.286c0.495-0.398,1.076-0.195,1.642-0.257
		c0.56,0.517,0.976,1.155,1.347,1.807c0.159,0.28,0.346,0.51,0.553,0.739c0.399,0.44,0.805,0.867,1.174,1.34
		c0.546,0.699,1.261,1.286,2.246,1.307c0.219,0.004,0.283,0.374,0.581,0.221c0.432-0.217,0.882-0.469,1.282-0.743
		c0.453-0.309,0.988-0.547,1.265-1.161c0.248-0.551,0.894-0.832,1.445-1.128c0.184-0.098,0.326-0.267,0.508-0.421
		c0.401,0,0.831,0,1.278,0c0.322,0.288,0.592,0.667,1.042,0.824c0.854,0.297,1.441,0.875,1.903,1.653
		c0.248,0.42,0.692,0.724,1.05,1.08c0,0.287,0,0.575,0,0.867c-0.177,0.175-0.356,0.352-0.545,0.539
		c-0.78-0.018-1.572,0.065-2.325-0.355c-0.278-0.155-0.691-0.076-1.185-0.114c-0.056-0.11-0.173-0.338-0.289-0.566
		c-0.109-0.295-0.479-0.613-0.429-1.078c-0.773-0.247-1.322,0.272-1.666,0.741c-0.294,0.403-0.688,0.696-0.976,1.166
		c-0.704-0.07-1.409,0.037-2.148-0.192c-0.61-0.188-1.259,0.163-1.91,0.383c-0.688-0.23-1.334-0.647-2.015-1.009
		c-0.705-0.374-1.414-0.694-1.913-1.323c-0.635-0.108-1.144,0.055-1.643,0.466c-0.632,0.522-1.4,0.731-2.359,0.521
		c-0.045-0.063-0.168-0.238-0.211-0.298c-1.205-0.268-2.223,0.201-3.283,0.157C33.229,39.781,32.184,39.816,31.14,39.816z
		 M35.759,36.912c0.2,0.085,0.249,0.356,0.652,0.29c0.251-0.173,0.82-0.139,0.901-0.801c-0.466,0-0.876,0-1.288,0
		C36.03,36.633,35.951,36.779,35.759,36.912z"/>
	<path fill="currentColor" d="M11.043,34.48c0.222-0.594,0.6-1.096,0.539-1.727
		c-0.036-0.37,0.284-0.622,0.234-0.991c-0.042-0.317-0.088-0.673,0.01-0.963c0.169-0.502,0.325-1.049,1.02-1.151
		c0.329-0.048,0.622-0.311,0.953-0.176c0.615-0.406,0.716-1.018,0.849-1.678c0.218-0.208,0.478-0.455,0.757-0.721
		c0.785-0.06,1.353,0.282,1.668,1.048c0.113,0.277,0.23,0.557,0.385,0.811c0.133,0.216,0.332,0.379,0.754,0.265
		c0.514-0.263,0.594-1.255,1.654-1.237c1.023,0.383,1.617,1.512,2.519,2.215c0,0.265,0,0.479,0,0.685
		c-0.152,0.157-0.432,0.078-0.528,0.313c-0.233-0.321-0.57-0.194-0.873-0.204c-0.18,0.179-0.358,0.355-0.536,0.531
		c0,0.29,0,0.578,0,0.97c-0.883,0.914-1.618,2.078-2.942,2.644c-0.437,0.187-0.773,0.291-1.149-0.15c0-0.268,0-0.582,0-0.857
		c-0.343-0.343-0.647-0.648-0.962-0.962c-0.16,0-0.329,0-0.487,0c-0.304,0.764-0.202,1.668-0.926,2.232
		c0.011,0.521-0.399,0.978-0.253,1.373c-0.469,1.234-1.428,1.594-2.495,1.845c-0.168,0.04-0.497,0.081-0.604,0.352
		c-2.265,0.086-3.48-0.69-3.133-2.85c0.358-0.614,0.735-1.142,0.987-1.724c0.237-0.548,0.622-0.808,1.166-0.806
		c0.541,0.001,0.985,0.232,1.152,0.813C10.807,34.397,10.859,34.404,11.043,34.48z"/>
	<path fill="currentColor" d="M36.383,43.691c-0.244,0.221-0.429,0.389-0.602,0.544
		c0.05,0.48-0.204,0.805-0.442,1.118c-1.077,0.358-2.141,0.586-3.266,0.528c-0.43-0.022-0.84,0.282-1.312,0.206
		c-0.404-0.065-0.807,0.027-1.215-0.202c-0.341-0.191-0.849,0.176-1.198-0.222c-0.985,0.111-1.832-0.658-2.833-0.447
		c-0.838-0.398-1.735-0.127-2.477-0.222c-0.488-0.209-0.851-0.411-1.069-0.8c0-0.194,0-0.406,0-0.629
		c0.691-0.66,1.522-0.62,2.34-0.402c0.318,0.085,0.574,0.121,0.883,0.015c0.902-0.312,1.804-0.594,2.789-0.577
		c0.451,0.009,0.917-0.188,1.354-0.352c0.218-0.079,0.482-0.121,0.61-0.039c0.427,0.271,0.924,0.066,1.311,0.227
		c0.459,0.19,0.814-0.146,1.238-0.045c0.438,0.102,0.834-0.318,1.31-0.206c0.328,0.078,0.68-0.091,1.01,0.187
		c0.149,0.125,0.584,0.138,0.713,0.016c0.433-0.411,0.995-0.081,1.482-0.369c0.374-0.221,1.021,0.081,1.474-0.071
		c0.768-0.258,1.527-0.138,2.307-0.196c0.205,0.226,0.594,0.17,0.791,0.622c0,0.171,0,0.483,0,0.834
		c-0.313,0.258-0.66,0.521-1.154,0.5c-0.537-0.02-1.08,0.033-1.614-0.018c-0.344-0.031-0.587,0.396-0.873,0.216
		C37.441,43.59,36.915,43.76,36.383,43.691z"/>
	<path fill="currentColor" d="M35.982,61.857c-0.646-0.331-1.223-0.543-1.868-0.683
		c-1.626-0.35-3.258-0.099-4.882-0.197c-0.298-0.018-0.544,0.053-0.758,0.22c-0.251,0.053-0.294-0.298-0.579-0.226
		c-0.475,0.121-0.799-0.345-1.223-0.406c-0.456-0.068-0.957,0.065-1.383-0.064c-0.571-0.175-1.136-0.438-1.573-0.891
		c-0.35-0.363-0.711-0.715-1.087-1.091c0-0.293,0-0.607,0-0.908c0.978-0.673,1.956-0.046,2.872-0.052
		c0.539,0.318,1.079,0.533,1.503,0.969c0.163,0.169,0.49,0.347,0.837,0.305c0.354-0.042,0.719-0.015,1.079-0.008
		c0.342,0.008,0.66,0.061,1.003,0.176c0.399,0.135,0.823,0.328,1.303,0.271c0.447-0.051,0.926,0.026,1.274-0.313
		c0.246-0.24,0.655-0.008,0.829-0.353c0.616,0.188,1.214,0.439,1.875,0.435c0.936-0.009,1.872,0.024,2.808-0.01
		c0.989-0.036,1.939,0.381,2.935,0.224c0.545,0.368,1.222,0.345,1.731,0.174c0.782-0.264,1.538-0.072,2.031-0.147
		c0.383,0.259,0.617,0.417,0.937,0.633c-0.777,0.547-1.364,1.173-2.337,1.078c-0.534-0.052-1.108-0.117-1.609,0.023
		c-0.444,0.123-0.924,0.132-1.354,0.377c-0.218,0.124-0.564,0.041-0.852,0.019c-0.704-0.055-1.358,0.148-2.013,0.36
		C36.957,61.943,36.419,61.778,35.982,61.857z"/>
	<path fill="currentColor" d="M46.917,45c-0.273-0.194-0.409-0.425-0.331-0.746
		c0.457-0.618,1.211-0.566,1.842-0.733c0.381-0.101,0.756-0.322,1.197-0.26c0.388,0.055,0.79,0.012,1.185,0.012
		c0.792,0,1.588-0.056,2.373,0.014c0.998,0.087,1.938-0.412,3.034-0.183c0.894,0.689,2.045,0.635,3.222,0.587
		c0.155,0.181,0.318,0.369,0.512,0.593c0,0.249,0,0.563,0,0.825c-0.294,0.491-0.733,0.259-1.227,0.368
		c-0.066,0.109-0.196,0.325-0.326,0.542c-0.041-0.032-0.083-0.065-0.124-0.098c0,0.313,0,0.625,0,0.94
		c0.125,0.127,0.253,0.253,0.362,0.363c0.247,0.561-0.191,1.019-0.175,1.563c-0.246,0.229-0.508,0.474-0.789,0.737
		c-0.624-0.063-1.229,0.437-2.019,0.158c-0.422,0.02-0.663-0.971-1.394-0.397c-0.088-0.246-0.59-0.02-0.551-0.439
		c0.035-0.121,0.103-0.155,0.224-0.183c0.406-0.092,0.665,0.502,1.336-0.047c0.192-0.346,1.266-0.179,1.395-1.213
		c-0.522-0.485-1.43-0.234-2.042-0.674c-0.057-0.402-0.144-0.753,0.309-1.087c0.379,0,0.866,0,1.435,0
		c-0.443-0.58-0.994-0.802-1.514-0.616c-0.735,0.263-1.458,0.154-2.187,0.184c-0.646,0.025-1.295,0.016-1.942,0.002
		c-0.445-0.011-0.881-0.076-1.323-0.16c-0.471-0.089-0.984-0.562-1.559-0.078C47.653,45.135,47.218,45,46.917,45z"/>
	<path fill="currentColor" d="M16.119,50.616c-0.711-0.031-1.522,0.188-2.129-0.528
		c0-0.221,0-0.462,0-0.687c0.646-0.465,1.371-0.237,1.968-0.303c0.968-0.555,1.912-0.931,2.963-0.848
		c0.747,0.059,1.427-0.3,2.174-0.24c0.713,0.058,1.436-0.003,2.153,0.021c0.334,0.012,0.709-0.146,1,0.198
		c0.06,0.071,0.295,0.056,0.416,0.003c0.951-0.413,1.894-0.185,2.84,0.006c0.199,0.041,1.392,0.027,1.519-0.054
		c0.118-0.073,0.203-0.177,0.366-0.164c0.215,0.016,0.431,0.004,0.688,0.004c0.144,0.166,0.307,0.354,0.513,0.593
		c0,0.061,0,0.2,0,0.386c-0.413,0.414-0.805,0.911-1.497,1.181c-0.437,0-0.994-0.088-1.51,0.017
		c-1.653,0.337-3.318,0.16-4.976,0.184c-0.334,0.005-0.538,0.302-0.881,0.242c-0.279-0.049-0.573-0.016-0.86-0.009
		c-0.762,0.018-1.487-0.05-2.222-0.357c-0.458-0.192-1.056-0.105-1.582-0.059C16.777,50.228,16.512,50.435,16.119,50.616z"/>
	<path fill="currentColor" d="M46.142,29.161c0.154-1.072,1.009-1.662,1.431-2.507
		c0.161-0.323,0.378-0.625,0.535-0.967c0.444-0.973,1.125-1.819,1.519-2.826c0.085-0.215,0.343-0.362,0.521-0.54
		c0.486,0.069,0.486,0.069,0.967,0.534c0.053,0.686-0.158,1.41,0.314,2.046c0.347,0,0.704,0,1.056,0
		c0.387,0.36,0.717,0.694,0.897,1.244c0.153,0.468,0.089,0.79-0.104,1.154c-0.27,0.507-0.673,0.928-0.939,1.444
		c-0.11,0.212-0.432,0.315-0.655,0.468c-0.477,0.111-0.962-0.056-1.455,0.134c-0.585,0.224-1.099,0.521-1.559,0.934
		c-0.373,0.335-0.791,0.559-1.341,0.444C46.88,30.283,46.346,29.87,46.142,29.161z"/>
	<path fill="currentColor" d="M12.023,41.61c1.651,1.017,1.756,1.211,1.257,2.459
		c-0.425,0.216-0.791-0.126-1.176-0.126c-0.354,0-0.688,0.29-1.046,0.188c-0.164,0.163-0.291,0.291-0.417,0.418
		c-0.859,0.068-1.708,0.116-2.064-1.146c0-0.147,0-0.505,0-0.874c0.232-0.346,0.584-0.562,1.04-0.75
		C10.338,41.838,11.092,41.338,12.023,41.61z"/>
	<path fill="currentColor" d="M31.543,68.945c-0.189-0.241-0.597-0.199-0.739-0.584
		c0.041-0.314,0.372-0.446,0.561-0.68c1.53-0.338,1.379-0.172,2.571,0.418c0.493,0.062,0.961,0.021,1.386-0.278
		c0.454-0.317,0.97-0.018,1.401-0.176c0.326,0.326,0.605,0.606,0.921,0.921c0.991-0.091,1.942-0.722,3.045-0.395
		c0.062,0.098,0.271,0.154,0.281,0.363c-0.024,0.063-0.031,0.16-0.074,0.182c-0.302,0.143-0.641,0.212-0.84,0.409
		c-0.87,0.294-1.622-0.212-2.436-0.161c-0.789,0.05-1.583-0.006-2.374,0.018c-0.371,0.012-0.756-0.131-1.116,0.188
		c-0.141,0.126-0.544,0.115-0.727,0.003C32.832,68.822,32.227,69.056,31.543,68.945z"/>
	<path fill="currentColor" d="M21.979,56.236c-1.177-0.056-2.381,0.161-3.649-0.333
		c-0.081-0.1-0.257-0.316-0.5-0.615c-0.073-0.313,0.303-0.483,0.566-0.793c0.318,0.104,0.719-0.169,1.049,0.187
		c0.037,0.039,0.151,0.061,0.193,0.033c0.66-0.422,1.446-0.026,2.118-0.334c0.53-0.243,1.004-0.061,1.451,0.196
		c0.212,0.122,0.401,0.33,0.235,0.646C23.165,55.757,22.557,55.888,21.979,56.236z"/>
	<path fill="currentColor" d="M54.658,51.45c0.338-0.175,0.724-0.377,1.126-0.587c0.282,0,0.597,0,0.931,0
		c0,0.241,0,0.451,0,0.704c-0.18,0.35-0.56,0.53-1.042,0.767c-0.45-0.098-1.062,0.219-1.611-0.182
		c-0.285,0.28-0.646,0.203-0.979,0.183c-0.335-0.02-0.696,0.142-1.008-0.19c-0.101-0.106-0.501-0.108-0.614,0
		c-0.418,0.394-0.891,0.101-1.313,0.216c-0.1-0.276-0.401-0.16-0.532-0.335c0.005-0.101-0.043-0.208,0.063-0.292
		c0.134-0.107,0.247-0.205,0.43-0.269c1.034-0.353,2.09-0.516,3.171-0.404C53.704,51.104,54.113,51.291,54.658,51.45z"/>
	<path fill="currentColor" d="M47.333,67.45c-0.412-0.036-0.972,0.161-1.545,0.43
		c-0.61,0.286-1.256,0.527-1.971,0.457c-0.263-0.025-0.515,0.01-0.797,0.153c-0.306,0.156-0.754,0.035-1.196,0.035
		c0.282-0.487,0.683-0.718,1.134-0.839c0.72-0.19,1.422-0.43,2.189-0.464c0.569-0.024,1.066-0.394,1.56-0.814
		c0.321,0,0.705,0,1.091,0c0.092,0.146,0.309,0.2,0.297,0.495C47.914,67.032,47.684,67.198,47.333,67.45z"/>
	<path fill="currentColor" d="M47.857,51.33c0.439-0.146,0.688-0.017,0.877,0.271
		c-0.242,0.229-0.522,0.012-0.8,0.13C47.903,51.567,47.885,51.472,47.857,51.33z"/>
	<path style="fill-rule:evenodd;clip-rule:evenodd;fill:none;" d="M35.759,36.912c0.192-0.133,0.271-0.279,0.265-0.511
		c0.412,0,0.822,0,1.288,0c-0.081,0.662-0.649,0.628-0.901,0.801C36.008,37.269,35.959,36.997,35.759,36.912z"/>
</g>
</svg>
