<svg xmlns="http://www.w3.org/2000/svg" xml:space="preserve" width="72px" height="72px" viewBox="0 0 72 72">
    <g fill="currentColor">
        <path d="M22.108 60.532c-.51-.669-.677-1.302-.844-1.968-.146-.581-.519-1.146-.746-1.735a4.2 4.2 0 0 1-.252-1.072c-.062-.623-.45-1.049-.669-1.698.068-.841-.395-1.637-.872-2.564a3.03 3.03 0 0 0-.801-2.449c-.439-.48-.255-1.13-.288-1.722-.464-.821-.926-1.653-.867-2.625-.444-.676-.864-1.312-.886-2.158-.007-.279-.291-.58-.425-.892-.49-1.146-.553-1.16-.178-2.112.244-.621.405-1.312 1.019-1.746.208-.147.423-.427.448-.664.093-.903.666-1.39 1.379-1.793.061-.035.104-.1.167-.165a2.94 2.94 0 0 1-.947-1.542c-.091-.358-.191-.625-.011-.966.171-.322.158-.687.015-1.01-.211-.476-.232-.922.013-1.391.155-.295.047-.629.06-.945.015-.396.003-.792.003-1.31l.56-.354-.085-.121h1.313c.169-.108.16-.216.153-.391-.422-.146-.884-.02-1.375-.084a1.88 1.88 0 0 1-1.198-1.24c-.06-.192-.197-.281-.287-.423-.486-.768-.782-1.52-.398-2.483.424-1.067.952-1.931 2.084-2.362.234-.089.444-.167.684-.169.54-.005 1.08-.001 1.585-.001.444-.226.847-.565 1.282-.613.451-.049.838-.303 1.312-.27.392.027.708-.161.938-.576.271-.487.826-.736 1.383-1.107h.894c.397-.238.806-.368 1.083-.836-.117-.366.207-.75.24-1.216.68-.949 1.705-1.394 2.788-1.752 1.577-.521 3.726.618 4.099 2.21.084.361.083.732.185 1.107.104.387.325.6.563.875h.834c.605.585 1.423.865 1.991 1.496.122.136.492-.029.645.244.67-.028 1.075.411 1.496.854 1.104-.077 1.744.807 2.521 1.241 1.216.175 2.361.385 3.527.286.729.441 1.463-.204 2.21.033.192.226.515.26.78.4.207.11.452.188.606.351.581.607 1.258 1.076 1.953 1.539.453.3.869.652 1.344.935.358.213.729.529.909.892.234.471.587.727 1.003.969.486.284.905.651 1.291 1.063.114.121.232.232.407.313.838.388 1.448 1.021 1.956 1.8.259.396.605.792 1.081.993.31.13.566.378.692.636.31.629.815 1.026 1.388 1.34.475.262.827.641 1.201 1.006.361.352.701.725 1.072 1.064.62.568 1.173 1.18 1.488 2.147.016.076-.388.131-.251.4l-1.066.54c-.787-.396-1.589-.756-2.46-.845-.271-.026-.452-.182-.651-.267-.519-.225-.973-.597-1.567-.655-.087-.009-.167-.116-.246-.182-.619-.511-1.393-.632-2.123-.874-.725-.239-1.416-.579-2.135-.839-.503-.181-1.021-.384-1.546-.426-.666-.053-1.241-.297-1.821-.573-.901-.427-1.753-.982-2.753-1.168-.161-.03-.242-.12-.351-.204-.106-.084-.17-.201-.331-.244-1.063-.289-2.015-.904-3.119-1.067-.354-.052-.61-.264-.907-.425-.457-.25-.954-.42-1.326-.037-.416.098-.577-.247-.85-.239l-.308-.613c.333-.282.224-.716.238-1.127-.608-.736-1.006-1.604-1.53-2.388-.27-.402-.222-.685.024-.987-.149-.619-.739-.512-1.104-.636a7.9 7.9 0 0 1-2.458-1.354c-.458-.373-.901-.756-1.445-.961-.753-.284-1.276-.828-1.783-1.388H33.3l-.616-.629h-1.085c-.314.201-.723.338-1.002.803v2.124c-.869.358-1.726.645-2.482 1.153-.395.266-.857.23-1.083.223-.741.202-1.06.568-1.182 1.106.071.073.986.541 1.253.633.302-.14.621-.352.97-.431.374-.084.894.104 1.142-.09.451-.355.709.069 1.056.093.333.711 1.027 1.125 1.506 1.706h.661c.146-.097.031-.152-.017-.234-.391-.679-.861-1.153-1.475-1.489-.561-.688-.316-1.379-.068-2.112.709-.205 1.309.057 1.796.625.269.314.607.545.796.963.166.369.531.724.896.911 1.156.592 1.512 1.545 1.413 2.737l.347.347c.582-.163 1.135.126 1.712.218.144.023.257.239.407.39h1.872c.27.211.609.243.847.578-.083.612.219 1.132.716 1.562.081.07.146.21.23.22 1.352.161 1.657 1.36 2.234 2.271.126.2.208.435.399.585.675.532 1.068 1.308 1.665 1.911.271.274.433.678.583 1.047.251.605.617 1.128 1.034 1.623.419.499.717 1.084 1.104 1.608.451.612 1.008 1.129 1.451 1.751.554.778 1.017 1.598 1.493 2.415.29.503.567 1.014.991 1.427.247.241.524.464.571.861.017.369.234.828-.255 1.152h-1.097c-.695-.799-1.731-1.239-2.613-1.89-.441-.325-.844-.747-1.439-.941-.522-.17-.872-.86-1.396-1.047-1.008-.361-1.498-1.317-2.384-1.807-.857-.475-1.705-1.012-2.438-1.659-.862-.761-1.94-1.242-2.673-2.14h-.359c-.557-.268-.825-.9-1.434-1.177-.389-.177-.725-.441-1.164-.588-.463-.153-.839-.585-1.236-.914-.221-.183-.408-.405-.615-.606-.378-.367-.709-.744-.719-1.326-.007-.445-.439-.831-.024-1.359.193-.245.033-.766.033-1.163v-1.185c.234-.099.163-.375.346-.561h1.575v-.733c-.709-.827-1.6-1.521-2.69-2.144-.198.908-.032 1.753-.111 2.592-.243.273-.495.472-.883.171-.522-.404-1.22-.555-1.524-1.278-.155-.369-.584-.622-.89-.927-.18-.111-.438.083-.573-.143-.31-.264-.298-.69-.546-.968h-.436c-.203.215-.173.612-.08.694.539.471.582 1.146.777 1.743.183.56.534.956.931 1.337v.524c-.306.856-.857 1.083-1.631 1.129-.618.036-1.23.305-1.823.526-.283.106-.535.086-.832.054-.535-.857-.494-1.778-.208-2.57-.381-.581-1.118-.306-1.33-.911v-1.1c-.24-.361-.688-.333-.868-.676v-.426c.163-.236.387-.024.526-.119.383.346.446.865.873 1.059.694-.423.675-1.203 1.044-1.879h-1.065c-.139.224-.483.182-.667.396-.647-.127-1.037-.756-1.727-.896-.323.151-.679.269-.973.624 1.033 1.447.609 3.136.69 4.756-.295.441-.155.948-.23 1.42-.07.438-.334.845-.095 1.427.354.274.676.755.842 1.333.579.341 1.251.522 1.657 1.339.148.656-.272 1.265-.878 1.76v.66c.526.361.716.962.883 1.606.105.409.347.802.597 1.151.454.634.711 1.316.678 2.096-.021.494.165 1.047-.096 1.466-.258.417.126.949-.334 1.271 0 .721.003 1.44-.001 2.16-.003.414-.035.803-.193 1.215-.362.942-.319 2.378-.038 3.491.025.101.05.229.011.315-.441.953-.143 1.958-.198 2.937-.041.731-.428 1.421-.211 2.133-.354.354-.343.875-.717 1.159-.48.22-.847-.093-1.096-.179M45.479 40.38c-.259-.626-.727-1.101-1.144-1.582-.502-.579-.967-1.145-1.215-1.877a1.8 1.8 0 0 0-.365-.6c-.364-.396-.761-.762-1.137-1.149-.362-.374-.781-.697-.996-1.203-.205-.482-.707-.693-1.051-1.053-.441-.461-.899-.905-1.307-1.311-.405.006-.454.432-.862.436-.346-.422-.827-.735-1.472-.645-.045.007-.08.085-.12.128.238.188.2.591.538.73.276 0 .596-.081.843.02.368.15.9.066 1.09.454.327.666 1.029.99 1.366 1.59.38.673.992 1.092 1.476 1.646.16.184.386.311.5.4-.04.834.394 1.306.877 1.601.93.563 1.522 1.4 2.139 2.236.145.195.14.199.64.378.052-.049.102-.1.2-.199M18.167 24.666h1.988l.275-.275v-1.33c-.505-.583-1.164-.559-1.806-.514-.433.367-.825.751-.986 1.311.175.242.202.575.529.808m12.945-6.213c.517-.478.929-.969.748-1.702-.356-.127-.687-.211-.935-.475h-.85l.113.112-.641.367v.726c.436.464.834.904 1.565.972m-6.754 3.92c-.594-.085-.896-.75-1.547-.701l-.652.625c.343.571.166 1.337.796 1.748h.653c.343-.489.683-.988.75-1.672m13.818 13.119c-.395-.964-1.014-1.782-2.133-2.201v1.113c.682.304 1.2.847 1.861 1.212.669.369 1.045 1.2 1.953 1.435-.17-.751-.749-1.095-1.153-1.56zM28.26 21.964c-.339-.722-.623-1.38-1.276-1.81-.284-.071-.509.071-.68.306v1.209l.486.638h1.116zm5.796-2.304c-.03.398.09.649.542.726.616.106 1.149.381 1.562.891.285.352.598.714 1.118.741.071-.114.241-.159.231-.417-.083-.252-.515-.38-.512-.764-.924-.269-1.608-.88-2.155-1.52-.426-.08-.635.078-.786.343M17.874 32.413c.296-.015.441.334.729.271.387-.324.668-.697.738-.982l-.284-.558a1.64 1.64 0 0 0-1.184.555zm26.205-5.984c-.278.491.069.856.204 1.26.245.059.532-.035.707.229l.333-.36c-.216-.603-.525-1.08-1.244-1.129M41.724 23.4c-.102.226-.368.168-.512.296v.526c.419.086.791.113 1.043-.291zM19.773 38.235c.097-.494-.027-.869-.396-1.197.193.485-.255.821-.23 1.269.007.132.064.182.135.203.254.049.322-.153.491-.275m5.426-8.247c0 .322.215.375.307.523.146-.133.371-.208.332-.566l-.317-.276zm-5.587 4.568.63.274c-.007-.429-.226-.556-.478-.638-.125.046-.205.1-.152.364m.189 4.687c-.023.309.153.434.33.54.121-.106.222-.196.349-.31-.227-.083-.291-.437-.679-.23m1.638 1.187c-.188.252-.192.467-.021.684.105-.016.223.046.329-.142-.009-.104-.014-.271-.046-.434-.008-.035-.114-.05-.262-.108m-2.641 1.318c-.167.415-.065.674.28.855.17-.356.063-.611-.28-.855m2.869 2.219c.08-.852.08-.852-.061-.882-.087.142-.296.193-.296.172zM48.25 26.673c.072-.223-.1-.311-.2-.392-.105-.083-.146-.308-.381-.222-.029.404.206.535.581.614"/>
        <path d="M25.632 35.239c.306-.601.886-.834 1.365-.946.669-.155 1.025-.56 1.401-1.022.045-.056.097-.105.14-.15h.79c.413.195.72.406.999.676.236.229.538.443.907.399.434-.052.658.326.978.356.405 1.046-.377 1.672-.599 2.438-.558.152-.874-.389-1.322-.427-.207.17-.085.365-.131.558l.601.534c.068 0 .233.05.346-.007.68-.34 1.297-.057 1.918.168.659.235 1.185.596 1.524 1.269.201.397.638.674 1.019 1.055 0 .445.028.944-.008 1.44-.036.499.377.901.212 1.37.887.636.885.637 1.092 1.744.129.695.525 1.294.74 1.965.096.301.042.605.177.894.226.489.46.968.816 1.471-.176.578.193 1.152.206 1.774.003.121.084.183.127.273.305.63.767 1.149.79 1.958.02.653.523 1.279.727 1.945.169.553.194 1.151.7 1.546-.063.495.154.964.293 1.393.154.469.217.83-.081 1.237-.069.216-.446-.027-.435.337-.738-.439-1.35-.913-1.729-1.658-.141-.274-.444-.466-.673-.693-.178-.179-.452-.327-.518-.541-.275-.899-1.075-1.359-1.609-2.036-.445-.565-.927-1.102-1.334-1.704a4 4 0 0 0-.775-.876c-.804-.652-1.457-1.487-1.948-2.411-.282-.529-.852-.809-1.063-1.395-.195-.539-.736-.842-1.045-1.297-.688-1.017-1.766-1.678-2.389-2.763-.322-.563-.874-.994-1.305-1.501-.519-.61-.949-1.273-1.404-1.919-.274-.389-.544-.795-.221-1.408.224-.423.072-1.05.069-1.585-.003-.489.009-.944.337-1.378.24-.314.433-.712.315-1.083m4.751 6.088c.019-.104-.029-.169-.127-.191-.017-.004-.067.047-.063.063.022.099.087.146.21.037-.079.518.101.858.379 1.193.214-.027.324-.209.455-.353-.25-.25-.498-.5-.854-.749m-1.62-1.939c.258-.063.56.116.815-.197-.299-.448-.723-.755-1.034-1.112l-.452.026c-.145.185-.061.364-.075.506zm2.68-1.283c.076.342-.091.639.332 1.015.061-.405.351-.605.335-1.015z"/>
    </g>
</svg>
