<svg xmlns="http://www.w3.org/2000/svg" xml:space="preserve" width="72px" height="72px" viewBox="0 0 72 72">
    <g fill="currentColor">
        <path d="M33.847 15.828c-.073-1.221.273-2.331.644-3.438-.14-.61-.662-1.011-.869-1.589.053-.313.39-.396.503-.636 1.38-.158 2.108.729 2.603 1.736.369.751.704 1.514 1.198 2.241-.116 1.277.701 2.256 1.104 3.352h.813c.464-1.035 1.622-1.747 1.563-3.111.582-.734 1.398-1.268 1.896-2.112.246-.416.711-.646 1.247-.609.213.015.428.002.628.002l.477.477c.305 1.23-.428 2.471-.11 3.646.324 1.198-.156 2.457.448 3.623h.686c.326-.353.855-.555 1.248-.966.36-.378.883-.336 1.375-.282.381.397.837.743.982 1.363-.454 1.1-.811 2.245-.653 3.503.419.344.438.941.694 1.412.28.513.824.604 1.105 1.04h.709c.358-.372.768-.774 1.153-1.199.5-.552 1.076-.875 1.846-.711.563.502.563 1.157.499 1.826-.155.229-.277.484-.466.673-.667.668-.676 1.401-.466 2.288.228.958.598 1.79 1.234 2.521h.968l.505-.628h1.342c.441.275.571.72.843 1.073-.18.462-.359.88-.273 1.348.092.496-.058.97-.227 1.417-.137.364-.253.717-.2 1.103.105.781-.305 1.5-.234 2.288.07.786-.054 1.59.03 2.372.145 1.342.248 2.71 1.07 3.946-.173.476.076 1.001.258 1.438.171.412.085.871.361 1.261.136.191.023.56.023.847 0 .576.024 1.153-.005 1.728-.074 1.446-.689 2.661-1.789 3.567-.891.733-1.897 1.323-2.827 2.012-.173.128-.353.202-.532.29-.628.307-1.211.669-1.638 1.226-.445-.086-.785.334-1.291.182-.478.733-1.436.863-2.026 1.522-.073.082-.294.271-.537.244-.434-.049-.766.173-1.133.394-.378.226-.86.49-1.325.041-.073-.07-.273-.01-.419-.01-.447 1.414-1.558 1.582-2.811 1.505-.15.362-.565.377-.809.625-.524-.219-.661.488-1.104.462-.67.705-1.574.707-2.443.891-.769.163-1.527.146-2.291.203-.389.03-.739-.115-.943-.321-.697-.702-1.626-.958-2.445-1.421-.117-.066-.229-.144-.34-.214-.843.329-1.72.402-2.513-.021-.779-.416-1.533-.768-2.293-.634-.785-.253-1.124-.984-1.859-1.078-.804-.797-1.821-1.025-2.901-1.072-.13-.006-.176-.105-.266-.145-.616-.268-1.263-.33-1.931-.298-.536.026-1.075.006-1.595-.025-.505-.155-.795-.569-1.169-.917v-.695c.399-.321.847-.32 1.303-.303.324.012.651-.028.971.008.992.112 1.893-.272 2.827-.482.228-.383.642-.09.969-.278.539-.311 1.082-.579 1.445-1.09-.781-.829-1.14-1.982-2.106-2.746.022-.347-.129-.7-.336-.992-.842-1.187-1.43-2.487-1.917-3.853-.177-.495-.245-.934-.009-1.389.127-.245.155-.586.053-.708-.429-.512-.352-1.245-.819-1.735-.091-.618-.004-1.227.187-1.832.112-.354.614-.53.448-1.003.271-.162.204-.429.204-.671.003-1.004.001-2.009.001-3.056h-3.768l-1.197 1.153c-.034.521.238.866.552 1.203.312.336.766.531 1.031.859.281.35.553.71.869 1.033l.107.106v.926l-.301.3c-.309.022-.521-.366-.867-.232-.3-.401-.878-.542-1.107-.931-.631-1.072-1.612-1.654-2.657-2.188-.03-.016-.051-.05-.077-.075-.899-.173-1.923.281-2.716-.557v-.769c.89-.335 1.719-.855 2.668-1.076.312-.073.594-.198.805-.394.448-.415.952-.546 1.525-.47.711-.614 1.481-1.029 2.431-.863.327-.458.826-.589 1.273-.627.332-.028.567-.274.879-.245.353.033.431-.383.687-.423.622-.097.72-1.04 1.476-.877.521-.307.999-.673 1.557-.932.517-.24.956-.675 1.452-.939.516-.275 1.023-.608 1.634-.75.469-.108.917-.429 1.302-.745.782-.644 1.714-.953 2.657-1.139.666-.132 1.29-.444 1.975-.459.719-.017 1.439.004 2.159-.006.454-.007.908-.022 1.313.221.414.249.866.224 1.316.211.517-.015.974.438 1.433.22l.384-.311c-.246-.458-.744-.35-1.103-.528-.345-.171-.746-.282-1.127-.4-.52-.162-1.045-.299-1.615-.292-.762.01-1.521.083-2.297-.165-.527-.168-1.142-.077-1.689.307-.465.326-1.049.563-1.613.091-.572.067-.879.521-1.274.881-.562-.125-1.082.091-1.583.303-1.227.52-2.451 1.044-3.737 1.406-.066.019-.173-.029-.21.007-.788.763-1.904.799-2.823 1.277-.667.346-1.366.584-1.896 1.181-.329.37-.898.465-1.38.53-.267.036-.375.374-.661.249-.528.615-1.493.55-1.97 1.28-.08.122-.5-.082-.599.238-1.716-.297-2.067.222-3.042 1.033-.589.146-1.115.37-1.741.222-.311-.194-.535-.538-.731-1.053.063-.269-.01-.668.084-1.099.311-1.423 1.463-1.839 2.562-2.348.546-.253 1.206-.171 1.704-.581.209-.171.427-.375.675-.449.773-.228 1.451-.665 2.198-.955.742-.288 1.384-.821 2.102-1.184.472-.239.958-.56 1.516-.493.457.055.544-.604 1.01-.445.603-.46 1.438-.35 2.105-.864.75.097 1.453-.23 2.164-.642.347-.058.772.127 1.11-.099.34-.228.694-.036.861-.092 1.105-.582 2.082-.987 3.176-1.129.7-.09 1.355-.463 2.091-.415.565-.556 1.129-.033 1.623.095.888.229 1.738.575 2.681.561.442-.007.836.375 1.271.189.623.272 1.109.785 1.825.667.794.432 1.602.837 2.372 1.307.294.179.559.353.905.431 1.026.231 1.895.819 2.798 1.32.182.101.344.276.456.455.371.588.757 1.133 1.504 1.296.124.027.291.188.296.406.002.085.092.222.168.244.841.247.92 1.142 1.434 1.664.203.207.18.435-.014.685-.393-.111-.381-.493-.596-.808-.955-.743-2.236-1.185-3.04-2.256-.169 0-.371.062-.445-.01-.752-.721-1.787-.932-2.635-1.479a1.5 1.5 0 0 0-.982-.243c-.458.052-.926.012-1.416.012.58.752.981 1.05 1.741 1.293.097.031.234-.009.302.047.998.823 2.416.953 3.279 1.985.133.158.311.132.459.211.339.18.636.344.752.761.148.533.639.82.984 1.226v.417c-.133.185-.328.08-.533.116-.465-.465-.956-.936-1.421-1.43-.246-.261-.566-.474-.869-.498-.771-.061-1.411-.434-2.079-.733-.374-.168-.718-.324-1.138-.397-.588-.103-1.13-.417-1.618-.824H40.01c-.369-.345-.687-.784-1.321-.889-1.155.699-2.391-.249-3.722.071l-.702.78h-1.271l-1.278.667h-.998c-.338.299-.593.701-1.075.815-.376.122-.807-.044-1.189.251-.126.098-.338.174-.396.308-.216.504-.6.786-1.054 1.072-.458.289-.795.782-.929 1.325-.141.566-.399 1.073-.698 1.546-.91 1.437-1.116 1.988-1.5 3.488a6.2 6.2 0 0 0-.189 1.537c-.005.936-.008 1.871.001 2.807.006.641-.094 1.32.089 1.91.165.531.434 1.042.561 1.6.021.093.09.195.167.251.297.212.302.613.599.843.285.22-.109.726.309.944.299 1.148.642 1.647 1.512 2.384.32.271.709.526.852.937.179.517.525.824.97 1.099.522.321 1.022.683 1.5 1.067.367.295.785.394 1.222.441a4.55 4.55 0 0 1 2.397.997c.709.565 1.448 1.021 2.415.525.955-.49 1.847-.126 2.714.299.09.044.148.153.238.134.72-.006 1.034-.688 1.621-.871.503 0 1.007-.004 1.511.001.73.008 1.398-.233 2.045-.536.814-.381 1.671-.663 2.454-1.123.244-.144.616-.069.831-.087.707-.262 1.074-.802 1.563-1.254h.979c.459-.213.675-.591.82-.961.18-.46.495-.792.883-.991.768-.395 1.034-1.159 1.487-1.788a.63.63 0 0 0 .049-.613c-.325-.641-.158-1.415-.593-2.027-.104-.146-.038-.415-.049-.616a8.7 8.7 0 0 0 1.094-1.668c.002-.464-.279-.556-.429-.743a2.3 2.3 0 0 1-.457-1.003c-.154-.751-.413-1.48-.648-2.289l.609-1.271c-.474-1.155-1.854-1.679-2.322-2.886.017-.233.222-.292.31-.427 1.047-.215 1.805.44 2.484.995.703.574 1.489 1.078 2.05 1.788.293.054.388-.179.539-.301.086-.726-.057-1.333-.55-1.936a2.36 2.36 0 0 1-.503-1.72c.048-.422-.146-.762-.38-1.028-.346-.393-.595-.821-.863-1.261-.259-.425-.606-.841-.896-1.264-.137-.198-.297-.376-.442-.564-.407-.528-1.003-.873-1.33-1.499-.306-.586-1.04-.854-1.279-1.524-.962-.569-1.508-1.651-2.438-2.179-1.071-.608-1.95-1.473-3.185-2.055-.141 0-.427-.023-.708.004-.678.066-1.263-.15-1.884-.413-.983-.417-1.97-.875-3.087-.905-.422-.011-.834-.237-1.259-.332-.461-.103-.881-.4-1.389-.3-.427.083-.762-.294-1.208-.228-.423.063-.863.028-1.293.003-.118-.007-.229-.134-.343-.206-.605.227-1.193.479-1.874.447-.407-.019-.848-.158-1.238.123-.35.251-.867-.148-1.177.292-.012.017-.07.008-.104.001-.784-.152-1.505.278-2.236.236-.599.441-1.282.528-1.944.607-.289.035-.55.088-.767.244-.589.425-1.361.361-1.913.704-.292.302-.376.633-.518.982h-1.858l-1.306.676c-.636-.126-1.312.121-1.92.519-.399.261-.794.403-1.26.352-.642-.071-1.167.326-1.721.447-.367-.044-.533-.313-.689-.523-.407-.548-.361-1.148.095-1.679.257-.299.573-.548.832-.847.56-.644 1.148-1.272 1.455-2.095.204-.548.625-.885 1.249-1.137.5-.059 1.014.105 1.509.521.542.456 1.316.454 1.939.778.562-.208 1.208-.21 1.68-.708.134-.205-.084-.573.257-.716-.258-1.022-.67-1.987-.235-3.098.382-.974.877-1.873 1.262-2.799h1.02c.186.17.487.32.548.66.161.896.704 1.659.879 2.555.077.391.418.567.953.651a1.95 1.95 0 0 0 .337-1.262c-.029-.466-.006-.936-.006-1.403 0-.144.022-.292-.004-.431-.092-.489-.397-.931-.088-1.482.234-.418.59-.747.694-1.219h1.269l.433.433c.158.733.505 1.389.935 1.983.162.224.378.515.4.694.13 1.037.89 1.507 1.63 2.016a3.5 3.5 0 0 0 1.75-.177c.17-.191.338-.375.551-.608M57.6 45.125c0-.583-.012-1.085.003-1.586.015-.522-.391-.982-.217-1.444-.728-.922-.996-2.09-1.831-2.769-.588-.089-.735.326-.929.503-.183.643.323 1.064.178 1.502.67.887 1.654 1.314 2.137 2.271v1.006c-.113.117-.213.22-.348.357h-1.152c-.253.431-.544.821-.401 1.423.282.274.62.595.947.925.345.348.184.944.624 1.266h.697c.408-.8.365-.716-.153-3.125.143-.107.315-.233.445-.329m-3.043 4.274c.041.706.514 1.065.763 1.534.225.422.087.647-.196.898-.601.109-1.13-.383-1.766-.17-.17.216-.57.18-.759.585v1.052c-.647.261-1.029-.604-1.634-.332-.505.806-.245 1.569.024 2.324.56.047.979-.127 1.367-.464.462-.401.945-.777 1.488-1.079.73-.407 1.461-.837 1.731-1.718.01-.031.049-.052.114-.117.387-.147.893-.169 1.239-.596V50.24c-.349-.506-.443-1.143-1.065-1.448-.412.187-.974.125-1.306.607m-13.911 7.844c-.717.664-.441 1.631-.961 2.277l.32.32c.971-.083 1.758-.522 2.342-1.314.37.172.572-.237.899-.212.321.025.712-.109.957.029.547.311 1.099.121 1.621.202.214-.273.617-.232.719-.505-.212-.676-.767-1.014-1.155-1.467-.958-.016-.823 1.146-1.66 1.298h-1.431c-.088-.416-.563-.349-.786-.629zm-7.241-.606c-.354-.215-.613-.467-.969-.473-.936-.016-1.871-.006-2.806-.002-.025 0-.05.049-.062.062-.269.207-.36.446-.205.752.298.305.663.421 1.09.495.848.148 1.655.466 2.44.823.075-.265.41-.093.511-.302zm17.035-1.086c-.803-.225-1.608-.624-2.49-.436-.439.796-.377 1.548.005 2.317h.703c.313-.313.625-.61.92-.924.289-.304.761-.43.862-.957m-11.182 4.304-.896-.769c.101-.559-.25-.952-.266-1.414l-.694.001-.302.301v2.249c.561.484 1.226.148 1.81.271.112-.168.314-.229.348-.639"/>
        <path d="M50.906 47.839c-.578.601-1.229 1.137-1.538 1.955-.069.185-.281.325-.448.459a7 7 0 0 1-.749.534c-.291.179-.312.526-.514.77-.201.24-.483.369-.698.415-.792.171-1.455.674-2.288.769-.424.049-.848.421-1.221.832-1.147-.148-2.232.468-3.428.445-1.188-.022-2.308-.454-3.431-.464l-1.219-.629c-.775.116-1.537-.178-2.313-.626-.567-.328-1.242-.468-1.798-.873a6 6 0 0 1-.481-.384c-.659-.583-1.171-1.329-1.971-1.758-.121-.065-.264-.182-.298-.303-.204-.71-.759-1.144-1.225-1.655-.396-.435-1.598-2.879-1.641-3.415-.054-.679.016-1.367-.02-2.049-.048-.917.104-1.769.562-2.578.313-.554.358-1.182.313-1.67.186-.567.509-.884.836-1.199.223-.215.39-.465.553-.738.65-1.087 1.736-1.818 2.428-2.882.415-.639 1.194-.786 1.754-1.246.718-.591 1.595-.78 2.473-.644 1.37-1.014 2.824-1.097 4.424-.615.396.43.921.691 1.61.865.894.225 1.808.482 2.671.83.677.273 1.291.704 1.933 1.065.919.516 1.666 1.287 2.614 1.763.184.092.345.275.456.453.474.756 1.042 1.464 1.611 2.12.755.868.899 1.768.828 2.807-.02.275.087.521.18.785.166.473.17 1.031.293 1.507.172.669.162 1.315.161 1.973-.001.449.155.935-.121 1.347-.244.365.107.828-.275 1.197-.143.138-.023.55-.023.837M32.825 49.46c.592.427 1.265.539 1.724 1.029.78.832 1.837 1.218 2.897 1.314 1.534.14 3.097.111 4.636-.001.631-.047 1.403-.131 1.758-.956.128-.297.524-.53.836-.765.576-.433 1.325-.612 1.77-1.23.415-.577.993-1.072 1.127-1.798.111-.604.335-1.19.312-1.819-.012-.31.099-.593.182-.891.293-1.061.555-2.162-.172-3.184.063-.427-.335-.764-.231-1.201.054-.227-.098-.379-.198-.566-.175-.327-.288-.689-.24-1.091.042-.352.009-.712.009-1.012l-.318-.358h-1.042l-.8-.747c0-.098-.006-.17.001-.242.028-.303-.331-.437-.316-.779-1.122.256-2.113-.113-3.063-.644-.118-.066-.198-.167-.358-.185-.471-.051-.742-.324-.801-.806-.049-.398-.313-.516-.678-.482q-.088.048-.175.1c-1.18.73-1.589.744-2.444-.042-.2-.184-.321-.488-.633-.495-.393.149-.344.614-.514.722-.356.238-.708.012-.867.367-.15-.371-.508-.184-.755-.305-.232-.114-.412-.383-.785-.34-.059.07-.178.166-.239.29-.23.468.244.848.181 1.323l-1.063 1.013h-1.922c-.168.541.288.841.386 1.253.11.462-.215.847-.292 1.307-.487.278-.939.723-1.574.227-.072-.057-.439-.176-.522.261.21.29.497.562.771.659.441.541.329 1.066.312 1.565-.268.218-.278.568-.544.781-.25.201-.711.181-.736.65.085.258.395.301.56.356.575.193.716.647.715 1.11-.001.462-.146.904-.716 1.109-.216.077-.529.157-.695.417-.065.102-.073.19-.08.31l.698.348c.259-.314.59-.231.9-.241 1.078 1.065 1.375 1.855 1.053 2.659.283 1.092 1.118 1.032 1.945 1.01m-20.137-4.224.308-.309c.499 0 1.004.031 1.503-.007.608-.047 1.079.177 1.473.609.472.165.965-.051 1.455.135a5.3 5.3 0 0 1 1.478.854c.137.11.244.299.396.343 1.103.318 1.771 1.192 2.538 1.941l.229.229c.673.651 1.241 1.436 2.125 1.631.34.696.405 1.307.351 1.941l-.292.292c-.56-.229-1.181-.418-1.553-.886-.757-.95-1.771-1.554-2.698-2.287-.917-.725-1.866-1.349-2.933-1.792-.861-.358-1.669-.911-2.668-.844-.218.015-.338-.185-.552-.237-.955-.237-1.149-.55-1.16-1.613m7.869 8.295c-.321-.165-.654-.343-.906-.645-.406-.486-1.064-.359-1.586-.587-.331-.146-.778-.023-1.173-.029-.377-.005-.678-.395-1.058-.185-.416-.416-.796-.797-1.198-1.197v-1.121l.495-.495h1.093c.569.451 1.355.548 2.065.823.572.221 1.14.398 1.592.844.294.29.645.515 1.112.467.446.507 1.08.885 1.185 1.653.03.22-.139.308-.286.472zm.102-9.78v.852l-.548.556c-.598-.088-1.188-.234-1.668-.629-.299-.246-.611-.439-.993-.457-.225-.012-.433-.164-.536-.249-.879-.726-1.984-.945-2.981-1.395-.449-.202-1.014-.127-1.417-.579-.143-.299-.008-.641-.064-.914l.31-.311h1.926c.833.502 1.802.822 2.583 1.459 1.241-.07 2.375.594 3.388 1.667"/>
        <path d="M43.558 40.904c-1.02-2.049-2.364-3.311-4.66-3.084-.114-.127-.211-.303-.358-.384-.378-.208-.779-.374-1.178-.56l-.282-.559c0-.375.402-.841 1.204-1.322.76-.098 1.518.291 2.334.25.331-.016.693.378 1.022.613.787.559 1.631 1.037 2.3 1.763.403.437.759.873 1.001 1.425.12.274.147.738.649.697.082.286.407.485.34.814-.125.613.067 1.211.257 1.734.281.778.224 1.551.144 2.294-.069.636-.394 1.28-.738 1.838-.3.484-.757.89-1.169 1.291-.499.487-1.11.86-1.795 1.115-.683.254-1.399.415-2.041.819-.283.178-.775 0-1.168.037-.548.051-1.112-.167-1.653.186-.174.113-.5.025-.784-.146-.598-.359-1.25-.628-1.861-.981-.359-.208-.743-.438-1.156-.586-.817-.291-1.147-1.016-1.415-1.755-.25-.69-.387-1.415-.62-2.116-.151-.453-.392-.849-.573-1.276-.12-.285-.2-.624-.064-.791.338-.417.291-.973.607-1.368-.35-.779-.325-.915.315-1.754h.681c.127.135.271.296.424.447.598.592 1.038 1.198.538 2.1-.134.241-.026.58-.214.884-.241.392.299.76.178 1.21.742.557.976 1.518 1.687 2.099.684.56 1.572.742 2.393 1.249 1.165.055 2.336-.229 3.428-.857.079-.045.213-.002.278-.107.401-.645 1.008-1.127 1.39-1.797.214-.374.102-.781.32-1.169.408-.725.218-1.577.239-2.253"/>
        <path d="M39.887 40.48v1.186c-.343.973-.996 1.216-1.942 1.06-.51-.918-1.558-1.534-1.969-2.658-.089-.245-.355-.478-.599-.604-.814-.421-1.035-1.286-1.547-1.931-.229-.287-.198-.578-.206-.892.15-.189.28-.416.731-.321.916.717 2.064 1.326 3.009 2.261.719.714 1.628 1.239 2.523 1.899"/>
    </g>
</svg>
