<svg xmlns="http://www.w3.org/2000/svg" xml:space="preserve" width="72px" height="72px" viewBox="0 0 72 72">
    <g fill="currentColor">
        <path d="M14.795 41.593c-.255.403-.601.29-.921.312l-.451-.427-.338.337c.249.633.442 1.307.884 1.97 0 .274.005.63-.002.985-.007.365.188.597.461.812.269.211.46.517.396.861-.182.975.448 1.796.47 2.727.304.204.179.517.182.786.012.936.001 1.872.006 2.808.002.274-.109.586.289.726-.513.751-.788 1.47-.218 2.165-.4.737-1.103.821-1.619 1.202-.493-.41-.77-.909-1.061-1.418-.215-.375-.243-.644-.077-1.057.171-.427.418-.876.313-1.385-.022-.104-.05-.259.004-.316.5-.527-.002-1.039-.016-1.555-.002-.082-.189-.168-.181-.24.091-.851-.307-1.65-.249-2.497.012-.173.163-.214.211-.34-.62-.629-.367-1.442-.41-1.977-.255-.697-.763-.38-1.164-.602.346-.395.296-.849.287-1.308-.705-.438-.368-1.466-1.085-1.926.063-.365-.141-.78.206-1.105-.554-.509-.391-1.204-.417-1.862-.188-.501-.774-.951-.225-1.565-.048-.627.177-1.279-.137-1.877-.113-.214-.057-.417-.062-.621-.015-.611-.005-1.223-.006-1.835-.299-.271-.377-.635-.518-1.063l.487-.207c.032-.631.114-1.054-.185-1.415.391-.542.2-1.163.203-1.746.003-.563.396-1.056.216-1.588.275-.288.308-.689.676-.87-.108-.616.18-1.265-.224-1.851-.05-.073-.05-.241 0-.314.402-.59.349-1.373.862-1.997v-1.05c.115-.114.191-.258.267-.257.992.011.854-.824 1.005-1.39.098-.367.019-.782.019-1.188.626-.388.854-1.117 1.438-1.616h.701v-.901c.455-.591 1.227-.823 1.629-1.465.305.307.486-.345.85-.053.203.163.607.075.987.105.08.712-.389 1.129-.84 1.569v.658c-.476.446-.963.91-.879 1.628l-.861.832v1.328c.451 0 .912.045 1.359-.015.351-.048.696.085.863.251.632.628 1.533.946 1.953 1.844.223.477.81.762 1.02 1.377-.333.332-.386.908-.191 1.226.374.609-.062 1.037-.104 1.494-.835.88-2.046 1.166-2.877 2.031H15.38c-.329.153-.294.554-.546.752v1.085l.655.641c-.154.882.197 1.747.25 2.635.23.298.579.361.889.512.182-.205.197-.522.479-.657h.637c.307.197.38.551.548.847-.095.262-.456.526.009.789-.113.326-.219.648-.523.918-.118.098-.3.008-.47.026l-.343-.344V34.68c-.459.508-.696.995-.602 1.534.096.552.138 1.116.521 1.624.355.471.645 1.038.553 1.713-.063.457-.012.93-.012 1.378l.324.324.799-.805c.929-.291 1.755.321 2.619.143.595.419.752 1.213 1.44 1.54.592-.185.354-.834.649-1.18-.133-.816.457-1.336.844-1.913.207-.309.471-.591.668-.998v-.998c.234-.253.548-.447.629-.827v-1.041c.277-.339.298-.805.74-.955-.255-.378-.3-.726-.56-.943.185-.572.497-1.087.086-1.633.201-.647.934-.883 1.247-1.608v-.592l-.41-.298v-1.404l.59-.557c.023-.1.051-.166.052-.231.004-.432-.021-.865.008-1.295.032-.478-.116-.959.185-1.438.146-.232.146-.709-.001-.938-.257-.398-.152-.663.009-1.034.159-.369-.068-.777-.301-1.038-.216-.241-.263-.571-.527-.78-.006-.093-.026-.198-.016-.3a4.54 4.54 0 0 0-.64-2.87c-.354-.592-.545-1.26-.431-1.954-.202-.336-.417-.642-.452-1.026-.019-.228.217-.272.284-.441h.891c.305.19.583.475.662.852.184.876.758 1.46 1.398 2.012v1.043l1.309 1.79c0 .593-.017 1.203.007 1.811.013.336-.136.707.187 1.006.073.068.005.275.025.416.066.462-.472.914-.192 1.295.333.453.068.902.166 1.184l.672 1.304c0 2.903-.013 5.924.017 8.944.003.345-.223.573-.233.882-.622.256-.452.923-.595 1.368-.151.474-.571.875-.476 1.485.851.515 1.674 1.158 2.694 1.394.749 1.024.05 2.091.099 3.131.437.138.881.203 1.258.58.08.37.155.771-.335 1.022-.303.017-.415-.367-.651-.284-.342-.295-.364-.658-.539-.969-.305.112-.592.239-.82.502-.633.729-1.479.954-2.45.986-.264-.406-.802-.485-1.077-.845a2.1 2.1 0 0 0-.996.737c.085.634-.416 1.202-.203 1.801-.148.551-.542.855-.877 1.204 0 .756.025 1.514-.008 2.268-.028.656.084 1.308-.171 1.977-.139.364-.139.876.105 1.334.152.284.071.692.098 1.082.301.438.698.866.91 1.391.5.281.662-.275.923-.384.153 0 .235-.022.295.004.245.106.483.229.741.354.556-.326 1.051-.109 1.562.292.56-.001 1.208-.094 1.5.646.675.115 1.046.652 1.5 1.082.554-.057.781.273.981.74.233.543.222 1.093.193 1.644-.032.61.19 1.133.42 1.664-.134.435-.354.873-.395 1.328-.103 1.157-.802 1.806-1.793 2.162-.483.174-.888.464-1.517.654-.215-.029-.68.175-.971-.074-.47-.402-1.181-.146-1.567-.668-.055-.454.221-.771.456-1.147h1.207c.188.148.342.494.801.372.193-.634 1.095-.904.98-1.812l.714-.596c-.185-.535-.415-.942-.821-1.234-.572.369-1.078.829-1.62 1.235-.673.503-1.249.646-1.929.16-.48-.437-.471-.984-.416-1.589.272-.259.714-.487.805-.813.119-.427.675-.253.66-.872-.034-.146-.331-.297-.54-.508h-.627c-.286.537-.994.411-1.507.855-.177.449-.336.991-.727 1.454-.213.253-.407.678-.159 1.148.362.687.108 1.332-.367 1.92h-.928c-.087-.088-.228-.162-.23-.24-.022-.688-.397-1.328-.277-2.018l.436-.436c-.079-.984-.246-1.98-.666-2.922-.054-.122-.215-.24-.201-.343.097-.713-.173-1.379-.233-2.07-.021-.238.116-.387.25-.537-.231-.333-.258-.753-.689-.977.104-.529-.191-1.094.218-1.611.064-.081.012-.277-.023-.41-.243-.912-.243-.911.01-1.896.035-.135.081-.344.014-.412-.394-.403-.114-.891-.225-1.322l.646-.615v-1.222c.284-.741.769-1.176 1.548-1.379-.181-.588.423-1.081.144-1.722l.972-.828c-.263-1.021.378-1.882.117-2.829l.667-.53v-1.587c-.54.289-.499.829-.581 1.236-.056.277-.125.571-.269.754-.609.78-.902 1.724-1.393 2.562-.067.113-.07.283-.16.36-.6.518-.651 1.198-.58 1.933-1.269.898-1.765 2.339-2.544 3.579.082.56.625.845.805 1.587 0 .193-.024.627.007 1.056.027.37-.095.734.177 1.12.168.239.159.783-.007 1.034-.232.354-.163.679-.17 1.015a55 55 0 0 0-.001 3.022c.045 1.345-.088 2.673-.318 4.087l-.611.354c-.513.178-.657-.229-.953-.188-.074-.327-.314-.577-.3-.963.043-1.187.025-2.375.01-3.563-.005-.408.127-.843-.2-1.216-.071-.081-.062-.307-.001-.418.302-.562.213-1.163.198-1.751-.012-.451.312-.738.441-1.117-.053-.28-.268-.373-.502-.488a3 3 0 0 0-.353 1.816c-.24.307-.292.729-.695.932.25 1.034-.325 2.012-.178 3.041-.331.545-.168 1.156-.229 1.729-.231.2-.497.013-.719.122-.335-.523-.423-1.216-1.127-1.364-.407-.833-.357-1.723-.282-2.586.068-.77.185-1.576.493-2.271.37-.838.458-1.697.622-2.545.114-.475.484-.755.809-1.092v-1.171c.001-.173-.006-.326.133-.488.34-.396.353-.884.271-1.383-.257-.279-.316-.638-.429-1.002-.253-.814-.467-1.703-1.395-2.099-.48.249-.48.249-.952-.115v-1.078l.428-.451v-.637c-.293-.297-.676-.61-.829-1.089-.146-.414.12-.867-.227-1.315-.223-.288-.582-.491-.672-.961.011-.195.363-.375.174-.773.025.049.016.014-.006-.009l-1.038-1.04c.135-1.009-.136-1.994-.575-2.935-.086-.184-.039-.344-.066-.513-.06-.369.111-.749-.193-1.118-.139-.168-.065-.565.005-.834.038-.145.211-.256.191-.46-.021-.211-.004-.425-.004-.591l-.319-.351c-.249.173-.037.46-.222.684-.229.276-.2.699-.029.993.232.401.142.676-.059 1.055-.232.438-.462.949-.058 1.446-.139.909.64 1.805.038 2.721.01.869-.106 1.753.315 2.613.339.287.862.404 1.039.87h1.141l.276.276zm3.082-17.366-.347-.71c-.286.268-.368-.417-.761-.083.112.587.615.653 1.055.617.166 1.074-.682 1.477-1.083 2.057.179.435.457.511.853.439.159-.656 1.025-.85 1.142-1.578-.273-.276-.523-.527-.859-.742m.351 18.031c.522.996 1.113 1.723 2.185 1.863.166.648-.304 1.015-.632 1.372.113.47.113.47.526.73.4-.203.38-.745.849-.976-.334-.737.346-1.395.119-2.193-.658-.673-1.366-1.372-2.327-1.384-.305.249-.498.408-.72.588m-4.26-17.906v1.213c.27.345.321.936.958.788.376.436.879.11 1.292.234l.314-.314v-.57c-.804-.364-1.621-.74-1.761-1.713-.338-.047-.572-.01-.803.362m-1.387 3.696c.125-.541.107-.898.058-1.245-.368-.063-.479.165-.622.362.142.236.153.553.564.883m14.562 9.644q-.107-.152-.214 0 .107.15.214 0m15.337 6.264.641.641c-.369.432-.317.824.104 1.185.609-.407.275-.896.09-1.376.486-.271 1.038-.419 1.35-.976-.278-.643-.176-1.457-.814-2.012-.189-.164-.059-.471-.064-.782l1.641-.719c.165-.346.407-.699.238-1.243-.086-.161-.382-.207-.607-.37.066-.601.391-1.074.698-1.533.382-.105.714-.088.994.163.25.072.311-.324.567-.213.381-.478.338-1.159.774-1.629v-.873c.486-.262.489-.866.853-1.284v-1.762l.912-.751c-.063-.463-.392-.597-.59-.836h-1.523c-.378-.568-1.19-.709-1.472-1.317a9 9 0 0 0-.983-1.643c-.041-.413.155-.728.426-1.036v-1.298l.412-.338v-1.12l.588-.588h.63l.843-.843c.694-.033 1.386-.113 1.987.399.124.106.416.016.629.016.165-.236.189-.456-.025-.672-.045-.044-.098-.129-.083-.176.172-.583-.217-1.083-.235-1.64-.008-.25.24-.341.247-.627-.172-.172-.42-.34-.557-.574-.234-.399-.448-.765-.211-1.328.33-.779.029-1.543-.562-2.3-.151-.357.265-.741.257-1.208-.436-.353-.963-.588-1.294-1.095-.04-.498-.431-.993-.185-1.563l.247-.247h1.12c.307.504.988.658 1.269 1.023.396 1.416.736 2.66 1.816 3.573v1.005c.433.611.895 1.158 1.145 1.85.688.121.798.804.78 1.244-.035.865.299 1.532.712 2.208.07.115.229.178.148.591l-.385 1.069c.01.208.307.287.398.439.159.746-.178 1.474.193 2.146.082.147-.099.147-.111.23-.054.342-.149.694.063 1.015.195.296.207.715.078.91-.341.515-.087 1.043-.226 1.622-.074.145-.359.231-.417.622l.503.152c-.116.689.126 1.194-.269 1.625.061.258.389.488.206.761-.149.221-.243.417-.202.676-.17.172-.465.148-.621.434v1.005l.443.281c-.438.926-.686 1.848-1.309 2.579-.148.873.263 1.845-.467 2.639.091.72-.132 1.403-.367 2.091-.163.475-.065.808.352 1.536-.221.44-.741.414-1.129.735-.342.419-.351 1.097-.791 1.544.018.863-.579 1.626-.415 2.514l.306.306 2.158.001c.332.272.452.669.621 1.062h1.493c.274.268.512.484.62.92.229.923.619 1.774.21 2.772-.229.559.228 1.104.359 1.66.162.28-.375.324-.121.646-.786.163-1.222.836-1.9.951l-.562 1.143c.254.667.879 1.321.078 2.069h-.291l-.596-.504c-.109-.648.551-.974.412-1.547-.385-.369-.827-.609-1.42-.523-.385.472-.789.925-.325 1.628.133.201.021.563.021.847.321.441.943.421 1.273.844-.163.474-.204.513-.549.818-.123.109-.241.22-.305.411-.294.88-.309.875-1.132 1.291-.859-.134-1.271-.906-1.88-1.397 0-.447-.025-.88.008-1.309.028-.371-.003-.724.156-1.12.153-.383.148-.938-.081-1.437-.166-.36-.081-.836-.115-1.373-.593-.534-1.087-1.224-1.311-2.144-.28-1.153-.171-2.156.38-3.156.376-.683.771-1.393.349-2.296-.243-.52.161-1.063.614-1.43v-1.306c.376-.371.499-.815.403-1.336-.272-.019-.436-.328-.954-.26-.304.074-.713.603-1.319.37-.327-.2-.254-.747-.74-.834-.201-.014-.231.235-.402.285v1.081c-.507.503-.666 1.117-.66 1.794.005.646.001 1.291.001 1.92l-.433.432c0 .357-.006.749.002 1.141.013.626-.236 1.199-.358 1.798-.092.454-.121.488.141 1.065-.152.346-.304.692-.647.949 0 .771-.014 1.559.007 2.346.007.302-.006.585.152.909.172.348.2.922.022 1.251-.288.53-.143 1.038-.171 1.549-.038.688-.123 1.407.421 1.98-.03.455.347.838.22 1.315-.113.428.462.746.167 1.223-.421.574-1.054.867-1.809 1.036-.537-.754-.836-1.617-1.28-2.424-.629.021-.506.804-.971.979-.477.18-.568.737-1.022.979-.216.022-.433-.006-.624-.234-.277-.329-.597-.624-.911-.92-.307-.288-.359-.741-.717-.933.195-.46.375-.825.699-1.064-.14-.461-.511-.789-.446-1.279.2-.223.468-.056.758-.129.407-.323.725-.859 1.328-1.026.099.148.252.214.499.185-.034.561.072 1.054.502 1.467.361.143.63.01.827-.401-.193-.73-.848-1.451-.218-2.324-.149-.283-.422-.656-.223-.941.474-.677-.015-1.149-.255-1.707.311-.457.533-.943.461-1.531-.028-.229.055-.456.133-.693.147-.444.191-.969-.043-1.435-.171-.339-.214-.755-.026-1.002.364-.481-.012-.787-.169-1.114-.132-.276-.428-.475-.609-.663-.507-.19-.806.457-1.206.176l-1.282-1.283c.051-.242-.254-.495-.335-.841h-.806c-.452-.251-.646-.656-.847-1.127.074-.263.357-.422.57-.621h.584c.286.272.716.47.551 1.012.681.258 1.247-.347 1.859-.122l.553.553c-.116.417.093.778.301 1.14.858.105 1.151-.586 1.595-1.187v-.814c-.236-.594-.702-1.058-.606-1.797l.424-.331zm10.336-11.591c.403-.553.386-1.201.68-1.729-.411-.578-.126-1.224-.222-1.793l.425-.426c.034-.514.078-1.031-.256-1.316-.489-.252-.631.041-.823.274v1.884c-.357.415-.362 1.02-.872 1.292.152.756-.222 1.342-.594 1.917-.525.812-1.014 1.624-.903 2.651.021.2-.101.412-.126.584-.082.553-.521.869-.701 1.38v.848c.288.384.636.324.955.273.447-.234.177-.86.788-1.092h1.007c.041-1.33.041-1.33.458-2.011v-1.098c.34-.19.437-.563.594-.852zm-5.025 9.036c-.131.505-.503.739-.796 1.074.098.211-.079.474.105.703.167.021.384.102.495-.033.387-.469.689.087 1.034.055.053.448.455.395.737.516.302.13.579.3.77.559.582-.405.212-.97.381-1.402.129-.472.502-.747.785-1.042v-2.659l-.287-.287c-.698-.032-1.442.102-2.11-.259-.136.128-.238.226-.357.34v.925c.4.311.675.7.877 1.244-.325.033-.156.379-.346.544-.414.013-.838.085-1.288-.278m3.789 11.65c.348-.779 1.046-1.363 1.306-2.282-.89-.053-1.597.325-2.346.478-.11.021-.279.208-.269.3.051.433-.341.744-.25 1.206.087.444.019.92.019 1.309l.474.781h.897c.688.648 1.481.398 2.186.458.35-.332.568-.669.556-.931-.106-.765-.689-.589-1.021-.76-.359-.187-.89-.042-1.346-.042.016-.277-.072-.419-.206-.517m-1.989-25.176c1.06-.35 1.286-1.233 1.271-2.046-.016-.898-.777-1.357-1.555-1.661l-.414.414.916.891c-.078.884-1.045 1.042-1.527 1.697z"/>
        <path d="M62.975 51.333c-.58.438-.563 1.152-.904 1.727-.253.037-.448.376-.893.27l-.512-.734c.035-.14-.211-.554.163-.881.07-.062.068-.336-.004-.408-.551-.554-.37-1.133-.23-1.8.189-.896.016-1.792-.619-2.531 0-.432-.022-.864.006-1.294.028-.434-.218-.778-.33-1.164-.072-.249-.523-.447-1.11-.649-.293 1.099.019 2.035.797 2.874-.082.531.157 1.104-.225 1.611-.017.023-.011.073-.001.106.213.737.188 1.505.296 2.256.016.106.162.215.136.371-.167.959.227 1.876.217 2.823-.008.935-.001 1.868-.001 2.775l-.544.563c-.594-.164-.736.464-1.138.641-.342.035-.374-.418-.685-.434-.591-.027-.998.676-1.698.376-.126-.102.015-.3-.062-.463.323-.26.7-.04 1.023-.158.373-.354.549-.778.513-1.299-.071-1.022.309-2.007.238-3.042-.034-.494-.099-1.011-.317-1.383-.521-.887-.623-1.809-.556-2.857l-.433-.318c-.092-.508.302-.742.417-1.097 0-.609.005-1.219-.002-1.828-.006-.586.106-1.193-.32-1.764-.396.112-.755-.111-1.161-.268v-.946c.109-.178.489.073.457-.288h.919c.116-.164.317-.244.333-.511.058-.945.499-1.737 1.069-2.465.011-.251.041-.506-.235-.599.039-.134.045-.206.079-.261.327-.521.615-1.066 1.06-1.507.139-.137.23-.333.308-.517.358-.854.931-1.484 1.729-1.982.396-.248.747-.593 1.121-.808.271.025.326.234.477.329 0 .359-.023.72.005 1.077.041.516-.099.951-.456 1.325-.337.352-.207.935-.62 1.259v1.272c-.144.23-.474.155-.648.535-.177.85.439 1.782.2 2.646.521.991.931 1.914 1.524 2.715-.018.296-.417.521-.208.784.283.356.203.736.194 1.108-.014.609.119 1.12.501 1.637.443.599.53 1.392.302 2.08-.118.356-.083.681-.172 1.096M59.039 40.21c-.396.082-.277.539-.575.717 0 .454-.01.916.003 1.378.013.439-.061.889.061 1.34.421-.308.633-.693.803-1.114-.286-.274-.154-.647-.23-.972-.098-.411.401-.675.2-1.088zM44.208 14.484c-.446.817-1.268.919-1.845 1.486-.405-.004-.896.183-1.148-.189-.484-.043-.561.264-.789.406h-.665c-.322-.449-.833-.719-1.372-.947-.746-.315-1.138-1.038-1.74-1.496 0-.671-.062-1.324.018-1.959.078-.619-.506-1.119-.047-1.926.196-.196.577-.576 1.001-1.002.2 0 .445-.009.689.003.202.01.45-.103.546.192.34-.199.722-.283.905-.627h2.402c.519.585 1.203 1.037 1.458 1.864.063.205.332.408.62.529.553.233.745.799.589 1.297-.23.733-.239 1.528-.617 2.217-.031.055-.005.141-.005.152m-4.641-1.417c.742-.811 1.587-.021 2.373-.109.443-.422.627-.877.509-1.433-.263-.287-.577-.475-.936-.521-.911.318-1.914.373-2.483 1.245-.064.342.088.557.537.818m-5.3 42.579c-.227-.361-.75-.572-.802-1.136-.01-.437-.192-.945.213-1.443-.301-.202-.419-.64-1.012-.579-.353.253-.601.784-1.092.79-.215.42.065.86-.28 1.03-.505.302-.938.085-1.228-.128-.46-.338-.87-.656-1.482-.629-.168.008-.346-.185-.558-.307-.133-.703.25-1.199.823-1.672.33.208.625.424.705.841.32.081.565.427.984.243l.276-.275v-.68c-.495-.295-.979-.641-1.346-1.14l-.72-.032c-.178-.198-.458-.325-.367-.708l.689-.492c.275-.143.339.262.603.351.719-.29 1.034-.293 1.714.004.183-.398-.007-.828.117-1.248.163-.411.716-.142.961-.5.192-.281.536-.455.604-.84h.885c.177-.367.61-.402.892-.658.791.215 1.261.772 1.585 1.486-.176.543-.509 1.045-.423 1.657.42.57 1.34.137 1.691.924-.061.558-.153.736-.724 1.329h-.667l-.531-.573c.117-.388-.132-.739-.292-1.132-.696-.185-.977.76-1.776.596-.416-.568-1.192-.615-1.909-.921-.209.497-.181 1.016-.58 1.298.131.726 1.03.344 1.158.945h.898l.468.444h1.501l.314.314v.646c-.261.377-.809.411-1.025.865.261.24.138.608.17.912.452.437 1.128.195 1.626.747.385.772.753 1.763 1.811 2.159v.705c-.216.34-.56.564-.987.729-.984-.187-.819-1.354-1.452-1.87-.309-.116-.539.049-.813.225-.21-.377-.733-.105-.966-.488-.412-.68.397-1.117.344-1.789m1.889-31.27c-1.611.14-3.05.022-4.044-1.433-.008-.518.088-1.115-.365-1.618-.167-.186-.062-.473-.05-.697.306-.396.688-.685.939-1.136.388-.695 1.167-.916 1.888-1.122.547-.156 1.035.219 1.39.501.516.409 1.157.687 1.566 1.351-.019.589.529 1.048.693 1.729-.21.468-.395 1.012-.687 1.49-.293.479-1.004.439-1.33.935m-.895-2.776c-.386 0-.74-.005-1.092.007-.04.001-.075.102-.115.159-.022.255.212.332.338.482.357 0 .711.005 1.063-.007.04-.001.075-.102.112-.156.042-.22-.16-.29-.306-.485m-2.11 11.221c.066-.543.532-.704.76-1.056h1.763c.501.42.896 1.033 1.635 1.311-.073.429-.021.874.243 1.165.289.317.473.605.338 1.178-.219.181-.547.452-.853.707.172.48-.141.659-.357.885-.214.224-.485.407-.521.769h-1.01c-.762-.187-1.229-.771-1.862-1.092-.243-.125-.495-.359-.599-.604-.234-.549-.681-.833-1.226-1.131.08-.208.268-.303.417-.495v-1.259c.329-.537.801-.319 1.272-.378m.385 1.352c.218.411.315.777.623 1.029.242-.016.493.071.743-.07v-.481c-.342-.359-.707-.589-1.366-.478m25.29-5.232h-.688l-.314-.314v-.948l.651-.578v-1.306c.771-.337.771-.337 1.305-.092.873-.675.873-.675 2.194-.438l1.642 2.533c.015.84.015.84-1.775 2.63h-1.695c-.771-.132-.881-.907-1.32-1.487m2.446-1.028c-.356-.082-.714-.065-1.18.001.207.359.36.646.538.918.046.07.166.092.309.165l.333-.451zm-23.119.825c-.801 1.438-2.075 1.377-3.376 1.25a1.55 1.55 0 0 1-.509-1.289c.02-.274.059-.569-.254-.795.38-.407.233-.913.263-1.403.199-.516.767-.5 1.154-.754a.5.5 0 0 1 .407-.035c.855.375 1.821.549 2.492 1.37.314.586-.327 1.142-.177 1.656m25.069 9.81c.438-.215.812-.413.895-1.021.053-.387.347-.821.791-1.023.438-.085.609.288.878.516v.908c-.402.427-.874.589-1.381.514-.192.196-.053.386-.128.552.455.354.974.601 1.312 1.104v.836c-.368.399-.829.585-1.466.531a4.23 4.23 0 0 1-.901-2.917m-43.725.51c-.588-.2-.944-.694-1.394-1.113-.014-.324-.174-.689.321-.974h1.04c.145-.405.377-.693.704-.896.276-.047.494.033.66.275.193.476-.045.917-.16 1.376-.113.449.484.811.097 1.331z"/>
        <path d="m39.997 53.135.38-.381c.632-.026.632-.026 1.023.282-.062.718-.699.947-1.168 1.347-1.074.065-1.074.065-1.619-.183-.582.436-1.26.137-1.905.256l-.553-.971.37-.344c.467-.06.757.201 1.153.413h1.049c.238-.567.782-.405 1.27-.419m2.483-9.071h-.758l-.82.834c-.499-.265-1.076-.31-1.61-.754.007-.355-.42-.773-.21-1.347.958-.127 1.883.037 2.79.391.153.061.345.018.461.186.04.058.135.1.141.155.018.177.006.356.006.535m-2.384-10.317.805-.476h1.269l.729.813c.026.261.104.619-.303.885-.819.066-1.665.082-2.402-.406-.158-.266-.061-.518-.098-.816m-1.558 8.587c-.859-.065-1.383.847-2.277.617v-.97c.424-.273.465-.887.865-1.329h.978l.435.574zm2.216-4.459c-.265.371-.598.401-.84.572-.229.025-.271-.211-.44-.275v-1.125l.847-.755v-.542c.19-.231.396-.42.732-.321.216.173.48.331.383.537-.133.563-.636.467-.852.842.274.299.141.706.17 1.067m3.838.713-.507.507-.635-.001-.534-.534v-1.29c.304-.093.532-.355.908-.35.303.005.569.172.572.355.01.425.364.763.196 1.313m13.567-4.892.303.346c.022.273-.161.437-.284.461-.591.116-.946.542-1.335.922-.647-.096-.647-.096-.756-.743.314-.424.919-.506 1.16-.986zm-2.349 5.01c.238.471.386.919.232 1.408-.184.166-.316.441-.67.31l-.645-.842-.128.103v-.721c.372-.163.72-.419 1.211-.258M34.68 43.5c.135.429-.109.779-.25 1.183h-.969v-1.205c.549-.395.661-.395 1.219.022m-5.123 3.403c.329.049.471-.359.788-.247.288 0 .558.359.698.964l-1.147.572-.339-.297zm-20.86-9.336.945.95c-.058.259-.415.34-.512.558-.572.124-.714-.323-.983-.5-.119-.586.337-.735.55-1.008m35.967-7.415v-.902c.216-.266.452-.374.625-.322.505.205.352.687.88.896l-.906.499c-.179.192-.426.098-.599-.171m.041 5.473c-.287.021-.656.114-.897-.285-.063-.34-.103-.686.261-.959.319-.048.668-.143.972.269.032.319.179.712-.336.975m-3.922 6.232c-.649.149-1.117-.065-1.526-.474.064-.636.064-.636.685-.777.498.251.455.854.841 1.251m-4.971 18.196h.304l.315.619c.029.185-.15.232-.21.351-.044.087.056.221-.129.3h-.642c-.24-.182-.375-.375-.285-.769zm12.107-26.536c-.154.624-.62.751-1.009 1l-.491-.633c0-.011.254-.111.188-.367zm-5.5-6.538h-.708c-.412-.267-.356-.636-.251-1.038h.709c.412.267.357.636.25 1.038m3.248-5.415h-.951c-.208-.17-.429-.389-.239-.792h.95c.208.17.429.389.24.792m-8.112 34.013.262-.263h.667c.318.187.366.445.314.764-.313.181-.66.017-.964.098-.133-.212-.421-.272-.279-.599m18.297-19.142v.418c-.204.125-.396.117-.615.001-.048-.597.379-.235.615-.419m-1.041 8.346v-.418c.205-.126.396-.118.615-.001.048.596-.379.235-.615.419M44.327 24.183c-.162-.102-.104-.216-.119-.311.096-.128.218-.14.458-.038zm.315-6.579q-.218.236-.437 0 .22-.236.437 0m20.3 18.36q-.106.151-.212 0 .106-.151.212 0"/>
    </g>
</svg>
