<?xml version="1.0" encoding="iso-8859-1"?>
<!-- Generator: Adobe Illustrator 16.0.0, SVG Export Plug-In . SVG Version: 6.00 Build 0)  -->
<!DOCTYPE svg PUBLIC "-//W3C//DTD SVG 1.1//EN" "http://www.w3.org/Graphics/SVG/1.1/DTD/svg11.dtd">
<svg version="1.1" id="Layer_1" xmlns="http://www.w3.org/2000/svg" xmlns:xlink="http://www.w3.org/1999/xlink" x="0px" y="0px"
	 width="72.18px" height="70.921px" viewBox="0 0 72.18 70.921" style="enable-background:new 0 0 72.18 70.921;"
	 xml:space="preserve">
<g>
	
	<path fill="currentColor" d="M22.108,60.532c-0.51-0.669-0.677-1.302-0.844-1.968
		c-0.146-0.581-0.519-1.146-0.746-1.735c-0.132-0.341-0.218-0.729-0.252-1.072c-0.062-0.623-0.45-1.049-0.669-1.698
		c0.068-0.841-0.395-1.637-0.872-2.564c0.091-0.842-0.118-1.704-0.801-2.449c-0.439-0.48-0.255-1.13-0.288-1.722
		c-0.464-0.821-0.926-1.653-0.867-2.625c-0.444-0.676-0.864-1.312-0.886-2.158c-0.007-0.279-0.291-0.58-0.425-0.892
		c-0.49-1.146-0.553-1.16-0.178-2.112c0.244-0.621,0.405-1.312,1.019-1.746c0.208-0.147,0.423-0.427,0.448-0.664
		c0.093-0.903,0.666-1.39,1.379-1.793c0.061-0.035,0.104-0.1,0.167-0.165c-0.472-0.417-0.783-0.9-0.947-1.542
		c-0.091-0.358-0.191-0.625-0.011-0.966c0.171-0.322,0.158-0.687,0.015-1.01c-0.211-0.476-0.232-0.922,0.013-1.391
		c0.155-0.295,0.047-0.629,0.06-0.945c0.015-0.396,0.003-0.792,0.003-1.31c0.137-0.086,0.348-0.22,0.56-0.354
		c-0.029-0.041-0.057-0.081-0.085-0.121c0.458,0,0.917,0,1.313,0c0.169-0.108,0.16-0.216,0.153-0.391
		c-0.422-0.146-0.884-0.02-1.375-0.084c-0.567-0.204-1.004-0.621-1.198-1.24c-0.06-0.192-0.197-0.281-0.287-0.423
		c-0.486-0.768-0.782-1.52-0.398-2.483c0.424-1.067,0.952-1.931,2.084-2.362c0.234-0.089,0.444-0.167,0.684-0.169
		c0.54-0.005,1.08-0.001,1.585-0.001c0.444-0.226,0.847-0.565,1.282-0.613c0.451-0.049,0.838-0.303,1.312-0.27
		c0.392,0.027,0.708-0.161,0.938-0.576c0.271-0.487,0.826-0.736,1.383-1.107c0.233,0,0.586,0,0.894,0
		c0.397-0.238,0.806-0.368,1.083-0.836c-0.117-0.366,0.207-0.75,0.24-1.216c0.68-0.949,1.705-1.394,2.788-1.752
		c1.577-0.521,3.726,0.618,4.099,2.21c0.084,0.361,0.083,0.732,0.185,1.107c0.104,0.387,0.325,0.6,0.563,0.875
		c0.269,0,0.553,0,0.834,0c0.605,0.585,1.423,0.865,1.991,1.496c0.122,0.136,0.492-0.029,0.645,0.244
		c0.67-0.028,1.075,0.411,1.496,0.854c1.104-0.077,1.744,0.807,2.521,1.241c1.216,0.175,2.361,0.385,3.527,0.286
		c0.729,0.441,1.463-0.204,2.21,0.033c0.192,0.226,0.515,0.26,0.78,0.4c0.207,0.11,0.452,0.188,0.606,0.351
		c0.581,0.607,1.258,1.076,1.953,1.539c0.453,0.3,0.869,0.652,1.344,0.935c0.358,0.213,0.729,0.529,0.909,0.892
		c0.234,0.471,0.587,0.727,1.003,0.969c0.486,0.284,0.905,0.651,1.291,1.063c0.114,0.121,0.232,0.232,0.407,0.313
		c0.838,0.388,1.448,1.021,1.956,1.8c0.259,0.396,0.605,0.792,1.081,0.993c0.31,0.13,0.566,0.378,0.692,0.636
		c0.31,0.629,0.815,1.026,1.388,1.34c0.475,0.262,0.827,0.641,1.201,1.006c0.361,0.352,0.701,0.725,1.072,1.064
		c0.62,0.568,1.173,1.18,1.488,2.147c0.016,0.076-0.388,0.131-0.251,0.4c-0.356,0.181-0.714,0.361-1.066,0.54
		c-0.787-0.396-1.589-0.756-2.46-0.845c-0.271-0.026-0.452-0.182-0.651-0.267c-0.519-0.225-0.973-0.597-1.567-0.655
		c-0.087-0.009-0.167-0.116-0.246-0.182c-0.619-0.511-1.393-0.632-2.123-0.874c-0.725-0.239-1.416-0.579-2.135-0.839
		c-0.503-0.181-1.021-0.384-1.546-0.426c-0.666-0.053-1.241-0.297-1.821-0.573c-0.901-0.427-1.753-0.982-2.753-1.168
		c-0.161-0.03-0.242-0.12-0.351-0.204c-0.106-0.084-0.17-0.201-0.331-0.244c-1.063-0.289-2.015-0.904-3.119-1.067
		c-0.354-0.052-0.61-0.264-0.907-0.425c-0.457-0.25-0.954-0.42-1.326-0.037c-0.416,0.098-0.577-0.247-0.85-0.239
		c-0.093-0.185-0.182-0.363-0.308-0.613c0.333-0.282,0.224-0.716,0.238-1.127c-0.608-0.736-1.006-1.604-1.53-2.388
		c-0.27-0.402-0.222-0.685,0.024-0.987c-0.149-0.619-0.739-0.512-1.104-0.636c-0.911-0.311-1.732-0.763-2.458-1.354
		c-0.458-0.373-0.901-0.756-1.445-0.961c-0.753-0.284-1.276-0.828-1.783-1.388c-0.162,0-0.306,0-0.455,0
		c-0.199-0.203-0.4-0.409-0.616-0.629c-0.344,0-0.699,0-1.085,0c-0.314,0.201-0.723,0.338-1.002,0.803c0,0.644,0,1.391,0,2.124
		c-0.869,0.358-1.726,0.645-2.482,1.153c-0.395,0.266-0.857,0.23-1.083,0.223c-0.741,0.202-1.06,0.568-1.182,1.106
		c0.071,0.073,0.986,0.541,1.253,0.633c0.302-0.14,0.621-0.352,0.97-0.431c0.374-0.084,0.894,0.104,1.142-0.09
		c0.451-0.355,0.709,0.069,1.056,0.093c0.333,0.711,1.027,1.125,1.506,1.706c0.237,0,0.453,0,0.661,0
		c0.146-0.097,0.031-0.152-0.017-0.234c-0.391-0.679-0.861-1.153-1.475-1.489c-0.561-0.688-0.316-1.379-0.068-2.112
		c0.709-0.205,1.309,0.057,1.796,0.625c0.269,0.314,0.607,0.545,0.796,0.963c0.166,0.369,0.531,0.724,0.896,0.911
		c1.156,0.592,1.512,1.545,1.413,2.737c0.118,0.117,0.219,0.219,0.347,0.347c0.582-0.163,1.135,0.126,1.712,0.218
		c0.144,0.023,0.257,0.239,0.407,0.39c0.617,0,1.26,0,1.872,0c0.27,0.211,0.609,0.243,0.847,0.578
		c-0.083,0.612,0.219,1.132,0.716,1.562c0.081,0.07,0.146,0.21,0.23,0.22c1.352,0.161,1.657,1.36,2.234,2.271
		c0.126,0.2,0.208,0.435,0.399,0.585c0.675,0.532,1.068,1.308,1.665,1.911c0.271,0.274,0.433,0.678,0.583,1.047
		c0.251,0.605,0.617,1.128,1.034,1.623c0.419,0.499,0.717,1.084,1.104,1.608c0.451,0.612,1.008,1.129,1.451,1.751
		c0.554,0.778,1.017,1.598,1.493,2.415c0.29,0.503,0.567,1.014,0.991,1.427c0.247,0.241,0.524,0.464,0.571,0.861
		c0.017,0.369,0.234,0.828-0.255,1.152c-0.325,0-0.68,0-1.097,0c-0.695-0.799-1.731-1.239-2.613-1.89
		c-0.441-0.325-0.844-0.747-1.439-0.941c-0.522-0.17-0.872-0.86-1.396-1.047c-1.008-0.361-1.498-1.317-2.384-1.807
		c-0.857-0.475-1.705-1.012-2.438-1.659c-0.862-0.761-1.94-1.242-2.673-2.14c-0.121,0-0.229,0-0.359,0
		c-0.557-0.268-0.825-0.9-1.434-1.177c-0.389-0.177-0.725-0.441-1.164-0.588c-0.463-0.153-0.839-0.585-1.236-0.914
		c-0.221-0.183-0.408-0.405-0.615-0.606c-0.378-0.367-0.709-0.744-0.719-1.326c-0.007-0.445-0.439-0.831-0.024-1.359
		c0.193-0.245,0.033-0.766,0.033-1.163c0-0.396,0-0.791,0-1.185c0.234-0.099,0.163-0.375,0.346-0.561c0.493,0,1.022,0,1.575,0
		c0-0.247,0-0.457,0-0.733c-0.709-0.827-1.6-1.521-2.69-2.144c-0.198,0.908-0.032,1.753-0.111,2.592
		c-0.243,0.273-0.495,0.472-0.883,0.171c-0.522-0.404-1.22-0.555-1.524-1.278c-0.155-0.369-0.584-0.622-0.89-0.927
		c-0.18-0.111-0.438,0.083-0.573-0.143c-0.31-0.264-0.298-0.69-0.546-0.968c-0.146,0-0.289,0-0.436,0
		c-0.203,0.215-0.173,0.612-0.08,0.694c0.539,0.471,0.582,1.146,0.777,1.743c0.183,0.56,0.534,0.956,0.931,1.337
		c0,0.222,0,0.438,0,0.524c-0.306,0.856-0.857,1.083-1.631,1.129c-0.618,0.036-1.23,0.305-1.823,0.526
		c-0.283,0.106-0.535,0.086-0.832,0.054c-0.535-0.857-0.494-1.778-0.208-2.57c-0.381-0.581-1.118-0.306-1.33-0.911
		c0-0.386,0-0.771,0-1.1c-0.24-0.361-0.688-0.333-0.868-0.676c0-0.135,0-0.278,0-0.426c0.163-0.236,0.387-0.024,0.526-0.119
		c0.383,0.346,0.446,0.865,0.873,1.059c0.694-0.423,0.675-1.203,1.044-1.879c-0.416,0-0.731,0-1.065,0
		c-0.139,0.224-0.483,0.182-0.667,0.396c-0.647-0.127-1.037-0.756-1.727-0.896c-0.323,0.151-0.679,0.269-0.973,0.624
		c1.033,1.447,0.609,3.136,0.69,4.756c-0.295,0.441-0.155,0.948-0.23,1.42c-0.07,0.438-0.334,0.845-0.095,1.427
		c0.354,0.274,0.676,0.755,0.842,1.333c0.579,0.341,1.251,0.522,1.657,1.339c0.148,0.656-0.272,1.265-0.878,1.76
		c0,0.217,0,0.397,0,0.66c0.526,0.361,0.716,0.962,0.883,1.606c0.105,0.409,0.347,0.802,0.597,1.151
		c0.454,0.634,0.711,1.316,0.678,2.096c-0.021,0.494,0.165,1.047-0.096,1.466c-0.258,0.417,0.126,0.949-0.334,1.271
		c0,0.721,0.003,1.44-0.001,2.16c-0.003,0.414-0.035,0.803-0.193,1.215c-0.362,0.942-0.319,2.378-0.038,3.491
		c0.025,0.101,0.05,0.229,0.011,0.315c-0.441,0.953-0.143,1.958-0.198,2.937c-0.041,0.731-0.428,1.421-0.211,2.133
		c-0.354,0.354-0.343,0.875-0.717,1.159C22.724,60.931,22.357,60.618,22.108,60.532z M45.479,40.38
		c-0.259-0.626-0.727-1.101-1.144-1.582c-0.502-0.579-0.967-1.145-1.215-1.877c-0.074-0.218-0.21-0.43-0.365-0.6
		c-0.364-0.396-0.761-0.762-1.137-1.149c-0.362-0.374-0.781-0.697-0.996-1.203c-0.205-0.482-0.707-0.693-1.051-1.053
		c-0.441-0.461-0.899-0.905-1.307-1.311c-0.405,0.006-0.454,0.432-0.862,0.436c-0.346-0.422-0.827-0.735-1.472-0.645
		c-0.045,0.007-0.08,0.085-0.12,0.128c0.238,0.188,0.2,0.591,0.538,0.73c0.276,0,0.596-0.081,0.843,0.02
		c0.368,0.15,0.9,0.066,1.09,0.454c0.327,0.666,1.029,0.99,1.366,1.59c0.38,0.673,0.992,1.092,1.476,1.646
		c0.16,0.184,0.386,0.311,0.5,0.4c-0.04,0.834,0.394,1.306,0.877,1.601c0.93,0.563,1.522,1.4,2.139,2.236
		c0.145,0.195,0.14,0.199,0.64,0.378C45.331,40.53,45.381,40.479,45.479,40.38z M18.167,24.666c0.684,0,1.353,0,1.988,0
		c0.107-0.107,0.183-0.183,0.275-0.275c0-0.436,0-0.89,0-1.33c-0.505-0.583-1.164-0.559-1.806-0.514
		c-0.433,0.367-0.825,0.751-0.986,1.311C17.813,24.1,17.84,24.433,18.167,24.666z M31.112,18.453
		c0.517-0.478,0.929-0.969,0.748-1.702c-0.356-0.127-0.687-0.211-0.935-0.475c-0.278,0-0.564,0-0.85,0
		c0.038,0.038,0.075,0.075,0.113,0.112c-0.249,0.143-0.498,0.285-0.641,0.367c0,0.348,0,0.555,0,0.726
		C29.983,17.945,30.381,18.385,31.112,18.453z M24.358,22.373c-0.594-0.085-0.896-0.75-1.547-0.701
		c-0.22,0.211-0.439,0.421-0.652,0.625c0.343,0.571,0.166,1.337,0.796,1.748c0.201,0,0.416,0,0.653,0
		C23.951,23.556,24.291,23.057,24.358,22.373z M38.176,35.492c-0.395-0.964-1.014-1.782-2.133-2.201c0,0.402,0,0.741,0,1.113
		c0.682,0.304,1.2,0.847,1.861,1.212c0.669,0.369,1.045,1.2,1.953,1.435c-0.17-0.751-0.749-1.095-1.153-1.56
		C38.545,35.492,38.403,35.492,38.176,35.492z M28.26,21.964c-0.339-0.722-0.623-1.38-1.276-1.81
		c-0.284-0.071-0.509,0.071-0.68,0.306c0,0.463,0,0.917,0,1.209c0.228,0.3,0.377,0.495,0.486,0.638c0.432,0,0.784,0,1.116,0
		C28.023,22.193,28.125,22.095,28.26,21.964z M34.056,19.66c-0.03,0.398,0.09,0.649,0.542,0.726
		c0.616,0.106,1.149,0.381,1.562,0.891c0.285,0.352,0.598,0.714,1.118,0.741c0.071-0.114,0.241-0.159,0.231-0.417
		c-0.083-0.252-0.515-0.38-0.512-0.764c-0.924-0.269-1.608-0.88-2.155-1.52C34.416,19.237,34.207,19.395,34.056,19.66z
		 M17.874,32.413c0.296-0.015,0.441,0.334,0.729,0.271c0.387-0.324,0.668-0.697,0.738-0.982c-0.143-0.28-0.224-0.44-0.284-0.558
		c-0.531,0.032-0.875,0.228-1.184,0.555C17.874,31.92,17.874,32.159,17.874,32.413z M44.079,26.429
		c-0.278,0.491,0.069,0.856,0.204,1.26c0.245,0.059,0.532-0.035,0.707,0.229c0.122-0.132,0.217-0.234,0.333-0.36
		C45.107,26.955,44.798,26.478,44.079,26.429z M41.724,23.4c-0.102,0.226-0.368,0.168-0.512,0.296c0,0.179,0,0.348,0,0.526
		c0.419,0.086,0.791,0.113,1.043-0.291C42.08,23.756,41.902,23.578,41.724,23.4z M19.773,38.235
		c0.097-0.494-0.027-0.869-0.396-1.197c0.193,0.485-0.255,0.821-0.23,1.269c0.007,0.132,0.064,0.182,0.135,0.203
		C19.536,38.559,19.604,38.357,19.773,38.235z M25.199,29.988c0,0.322,0.215,0.375,0.307,0.523c0.146-0.133,0.371-0.208,0.332-0.566
		c-0.067-0.059-0.193-0.167-0.317-0.276C25.403,29.785,25.302,29.887,25.199,29.988z M19.612,34.556
		c0.175,0.076,0.385,0.168,0.63,0.274c-0.007-0.429-0.226-0.556-0.478-0.638C19.639,34.238,19.559,34.292,19.612,34.556z
		 M19.801,39.243c-0.023,0.309,0.153,0.434,0.33,0.54c0.121-0.106,0.222-0.196,0.349-0.31C20.253,39.39,20.189,39.036,19.801,39.243
		z M21.439,40.43c-0.188,0.252-0.192,0.467-0.021,0.684c0.105-0.016,0.223,0.046,0.329-0.142c-0.009-0.104-0.014-0.271-0.046-0.434
		C21.693,40.503,21.587,40.488,21.439,40.43z M18.798,41.748c-0.167,0.415-0.065,0.674,0.28,0.855
		C19.248,42.247,19.141,41.992,18.798,41.748z M21.667,43.967c0.08-0.852,0.08-0.852-0.061-0.882
		c-0.087,0.142-0.296,0.193-0.296,0.172C21.47,43.576,21.556,43.745,21.667,43.967z M48.25,26.673c0.072-0.223-0.1-0.311-0.2-0.392
		c-0.105-0.083-0.146-0.308-0.381-0.222C47.64,26.463,47.875,26.594,48.25,26.673z"/>
	<path fill="currentColor" d="M25.632,35.239c0.306-0.601,0.886-0.834,1.365-0.946
		c0.669-0.155,1.025-0.56,1.401-1.022c0.045-0.056,0.097-0.105,0.14-0.15c0.3,0,0.588,0,0.79,0c0.413,0.195,0.72,0.406,0.999,0.676
		c0.236,0.229,0.538,0.443,0.907,0.399c0.434-0.052,0.658,0.326,0.978,0.356c0.405,1.046-0.377,1.672-0.599,2.438
		c-0.558,0.152-0.874-0.389-1.322-0.427c-0.207,0.17-0.085,0.365-0.131,0.558c0.177,0.157,0.364,0.323,0.601,0.534
		c0.068,0,0.233,0.05,0.346-0.007c0.68-0.34,1.297-0.057,1.918,0.168c0.659,0.235,1.185,0.596,1.524,1.269
		c0.201,0.397,0.638,0.674,1.019,1.055c0,0.445,0.028,0.944-0.008,1.44c-0.036,0.499,0.377,0.901,0.212,1.37
		c0.887,0.636,0.885,0.637,1.092,1.744c0.129,0.695,0.525,1.294,0.74,1.965c0.096,0.301,0.042,0.605,0.177,0.894
		c0.226,0.489,0.46,0.968,0.816,1.471c-0.176,0.578,0.193,1.152,0.206,1.774c0.003,0.121,0.084,0.183,0.127,0.273
		c0.305,0.63,0.767,1.149,0.79,1.958c0.02,0.653,0.523,1.279,0.727,1.945c0.169,0.553,0.194,1.151,0.7,1.546
		c-0.063,0.495,0.154,0.964,0.293,1.393c0.154,0.469,0.217,0.83-0.081,1.237c-0.069,0.216-0.446-0.027-0.435,0.337
		c-0.738-0.439-1.35-0.913-1.729-1.658c-0.141-0.274-0.444-0.466-0.673-0.693c-0.178-0.179-0.452-0.327-0.518-0.541
		c-0.275-0.899-1.075-1.359-1.609-2.036c-0.445-0.565-0.927-1.102-1.334-1.704c-0.202-0.3-0.452-0.613-0.775-0.876
		c-0.804-0.652-1.457-1.487-1.948-2.411c-0.282-0.529-0.852-0.809-1.063-1.395c-0.195-0.539-0.736-0.842-1.045-1.297
		c-0.688-1.017-1.766-1.678-2.389-2.763c-0.322-0.563-0.874-0.994-1.305-1.501c-0.519-0.61-0.949-1.273-1.404-1.919
		c-0.274-0.389-0.544-0.795-0.221-1.408c0.224-0.423,0.072-1.05,0.069-1.585c-0.003-0.489,0.009-0.944,0.337-1.378
		C25.557,36.008,25.75,35.61,25.632,35.239z M30.383,41.327c0.019-0.104-0.029-0.169-0.127-0.191
		c-0.017-0.004-0.067,0.047-0.063,0.063c0.022,0.099,0.087,0.146,0.21,0.037c-0.079,0.518,0.101,0.858,0.379,1.193
		c0.214-0.027,0.324-0.209,0.455-0.353C30.987,41.826,30.739,41.576,30.383,41.327z M28.763,39.388
		c0.258-0.063,0.56,0.116,0.815-0.197c-0.299-0.448-0.723-0.755-1.034-1.112c-0.203,0.012-0.338,0.02-0.452,0.026
		c-0.145,0.185-0.061,0.364-0.075,0.506C28.275,38.879,28.521,39.135,28.763,39.388z M31.443,38.105
		c0.076,0.342-0.091,0.639,0.332,1.015c0.061-0.405,0.351-0.605,0.335-1.015C31.873,38.105,31.706,38.105,31.443,38.105z"/>
	
	
	
	
	
	
	
	
	
	
	
	
	
	
	
	
	
	
	
	
	
	
</g>
</svg>
