<?xml version="1.0" encoding="iso-8859-1"?>
<!-- Generator: Adobe Illustrator 16.0.0, SVG Export Plug-In . SVG Version: 6.00 Build 0)  -->
<!DOCTYPE svg PUBLIC "-//W3C//DTD SVG 1.1//EN" "http://www.w3.org/Graphics/SVG/1.1/DTD/svg11.dtd">
<svg version="1.1" id="Layer_1" xmlns="http://www.w3.org/2000/svg" xmlns:xlink="http://www.w3.org/1999/xlink" x="0px" y="0px"
	 width="72.36px" height="71.459px" viewBox="0 0 72.36 71.459" style="enable-background:new 0 0 72.36 71.459;"
	 xml:space="preserve">
<g>
	
	<path fill="currentColor" d="M14.795,41.593c-0.255,0.403-0.601,0.29-0.921,0.312
		c-0.146-0.139-0.299-0.283-0.451-0.427c-0.104,0.103-0.205,0.205-0.338,0.337c0.249,0.633,0.442,1.307,0.884,1.97
		c0,0.274,0.005,0.63-0.002,0.985c-0.007,0.365,0.188,0.597,0.461,0.812c0.269,0.211,0.46,0.517,0.396,0.861
		c-0.182,0.975,0.448,1.796,0.47,2.727c0.304,0.204,0.179,0.517,0.182,0.786c0.012,0.936,0.001,1.872,0.006,2.808
		c0.002,0.274-0.109,0.586,0.289,0.726c-0.513,0.751-0.788,1.47-0.218,2.165c-0.4,0.737-1.103,0.821-1.619,1.202
		c-0.493-0.41-0.77-0.909-1.061-1.418c-0.215-0.375-0.243-0.644-0.077-1.057c0.171-0.427,0.418-0.876,0.313-1.385
		c-0.022-0.104-0.05-0.259,0.004-0.316c0.5-0.527-0.002-1.039-0.016-1.555c-0.002-0.082-0.189-0.168-0.181-0.24
		c0.091-0.851-0.307-1.65-0.249-2.497c0.012-0.173,0.163-0.214,0.211-0.34c-0.62-0.629-0.367-1.442-0.41-1.977
		c-0.255-0.697-0.763-0.38-1.164-0.602c0.346-0.395,0.296-0.849,0.287-1.308c-0.705-0.438-0.368-1.466-1.085-1.926
		c0.063-0.365-0.141-0.78,0.206-1.105c-0.554-0.509-0.391-1.204-0.417-1.862c-0.188-0.501-0.774-0.951-0.225-1.565
		c-0.048-0.627,0.177-1.279-0.137-1.877c-0.113-0.214-0.057-0.417-0.062-0.621c-0.015-0.611-0.005-1.223-0.006-1.835
		c-0.299-0.271-0.377-0.635-0.518-1.063c0.229-0.098,0.437-0.185,0.487-0.207c0.032-0.631,0.114-1.054-0.185-1.415
		c0.391-0.542,0.2-1.163,0.203-1.746c0.003-0.563,0.396-1.056,0.216-1.588c0.275-0.288,0.308-0.689,0.676-0.87
		c-0.108-0.616,0.18-1.265-0.224-1.851c-0.05-0.073-0.05-0.241,0-0.314c0.402-0.59,0.349-1.373,0.862-1.997c0-0.317,0-0.704,0-1.05
		c0.115-0.114,0.191-0.258,0.267-0.257c0.992,0.011,0.854-0.824,1.005-1.39c0.098-0.367,0.019-0.782,0.019-1.188
		c0.626-0.388,0.854-1.117,1.438-1.616c0.197,0,0.438,0,0.701,0c0-0.32,0-0.602,0-0.901c0.455-0.591,1.227-0.823,1.629-1.465
		c0.305,0.307,0.486-0.345,0.85-0.053c0.203,0.163,0.607,0.075,0.987,0.105c0.08,0.712-0.389,1.129-0.84,1.569
		c0,0.204,0,0.416,0,0.658c-0.476,0.446-0.963,0.91-0.879,1.628c-0.322,0.311-0.628,0.606-0.861,0.832c0,0.502,0,0.862,0,1.328
		c0.451,0,0.912,0.045,1.359-0.015c0.351-0.048,0.696,0.085,0.863,0.251c0.632,0.628,1.533,0.946,1.953,1.844
		c0.223,0.477,0.81,0.762,1.02,1.377c-0.333,0.332-0.386,0.908-0.191,1.226c0.374,0.609-0.062,1.037-0.104,1.494
		c-0.835,0.88-2.046,1.166-2.877,2.031c-0.77,0-1.561,0-2.341,0c-0.329,0.153-0.294,0.554-0.546,0.752c0,0.359,0,0.719,0,1.085
		c0.202,0.198,0.408,0.399,0.655,0.641c-0.154,0.882,0.197,1.747,0.25,2.635c0.23,0.298,0.579,0.361,0.889,0.512
		c0.182-0.205,0.197-0.522,0.479-0.657c0.203,0,0.418,0,0.637,0c0.307,0.197,0.38,0.551,0.548,0.847
		c-0.095,0.262-0.456,0.526,0.009,0.789c-0.113,0.326-0.219,0.648-0.523,0.918c-0.118,0.098-0.3,0.008-0.47,0.026
		c-0.102-0.102-0.204-0.204-0.343-0.344c0-0.348,0-0.734,0-1.252c-0.459,0.508-0.696,0.995-0.602,1.534
		c0.096,0.552,0.138,1.116,0.521,1.624c0.355,0.471,0.645,1.038,0.553,1.713c-0.063,0.457-0.012,0.93-0.012,1.378
		c0.119,0.119,0.221,0.221,0.324,0.324c0.279-0.28,0.558-0.562,0.799-0.805c0.929-0.291,1.755,0.321,2.619,0.143
		c0.595,0.419,0.752,1.213,1.44,1.54c0.592-0.185,0.354-0.834,0.649-1.18c-0.133-0.816,0.457-1.336,0.844-1.913
		c0.207-0.309,0.471-0.591,0.668-0.998c0-0.278,0-0.638,0-0.998c0.234-0.253,0.548-0.447,0.629-0.827c0-0.355,0-0.709,0-1.041
		c0.277-0.339,0.298-0.805,0.74-0.955c-0.255-0.378-0.3-0.726-0.56-0.943c0.185-0.572,0.497-1.087,0.086-1.633
		c0.201-0.647,0.934-0.883,1.247-1.608c0-0.083,0-0.294,0-0.592c-0.113-0.082-0.286-0.208-0.41-0.298c0-0.519,0-0.95,0-1.404
		c0.194-0.183,0.403-0.38,0.59-0.557c0.023-0.1,0.051-0.166,0.052-0.231c0.004-0.432-0.021-0.865,0.008-1.295
		c0.032-0.478-0.116-0.959,0.185-1.438c0.146-0.232,0.146-0.709-0.001-0.938c-0.257-0.398-0.152-0.663,0.009-1.034
		c0.159-0.369-0.068-0.777-0.301-1.038c-0.216-0.241-0.263-0.571-0.527-0.78c-0.006-0.093-0.026-0.198-0.016-0.3
		c0.101-1.027-0.102-1.972-0.64-2.87c-0.354-0.592-0.545-1.26-0.431-1.954c-0.202-0.336-0.417-0.642-0.452-1.026
		c-0.019-0.228,0.217-0.272,0.284-0.441c0.295,0,0.578,0,0.891,0c0.305,0.19,0.583,0.475,0.662,0.852
		c0.184,0.876,0.758,1.46,1.398,2.012c0,0.364,0,0.721,0,1.043c0.445,0.608,0.869,1.188,1.309,1.79c0,0.593-0.017,1.203,0.007,1.811
		c0.013,0.336-0.136,0.707,0.187,1.006c0.073,0.068,0.005,0.275,0.025,0.416c0.066,0.462-0.472,0.914-0.192,1.295
		c0.333,0.453,0.068,0.902,0.166,1.184c0.251,0.487,0.435,0.844,0.672,1.304c0,2.903-0.013,5.924,0.017,8.944
		c0.003,0.345-0.223,0.573-0.233,0.882c-0.622,0.256-0.452,0.923-0.595,1.368c-0.151,0.474-0.571,0.875-0.476,1.485
		c0.851,0.515,1.674,1.158,2.694,1.394c0.749,1.024,0.05,2.091,0.099,3.131c0.437,0.138,0.881,0.203,1.258,0.58
		c0.08,0.37,0.155,0.771-0.335,1.022c-0.303,0.017-0.415-0.367-0.651-0.284c-0.342-0.295-0.364-0.658-0.539-0.969
		c-0.305,0.112-0.592,0.239-0.82,0.502c-0.633,0.729-1.479,0.954-2.45,0.986c-0.264-0.406-0.802-0.485-1.077-0.845
		c-0.407,0.152-0.746,0.388-0.996,0.737c0.085,0.634-0.416,1.202-0.203,1.801c-0.148,0.551-0.542,0.855-0.877,1.204
		c0,0.756,0.025,1.514-0.008,2.268c-0.028,0.656,0.084,1.308-0.171,1.977c-0.139,0.364-0.139,0.876,0.105,1.334
		c0.152,0.284,0.071,0.692,0.098,1.082c0.301,0.438,0.698,0.866,0.91,1.391c0.5,0.281,0.662-0.275,0.923-0.384
		c0.153,0,0.235-0.022,0.295,0.004c0.245,0.106,0.483,0.229,0.741,0.354c0.556-0.326,1.051-0.109,1.562,0.292
		c0.56-0.001,1.208-0.094,1.5,0.646c0.675,0.115,1.046,0.652,1.5,1.082c0.554-0.057,0.781,0.273,0.981,0.74
		c0.233,0.543,0.222,1.093,0.193,1.644c-0.032,0.61,0.19,1.133,0.42,1.664c-0.134,0.435-0.354,0.873-0.395,1.328
		c-0.103,1.157-0.802,1.806-1.793,2.162c-0.483,0.174-0.888,0.464-1.517,0.654c-0.215-0.029-0.68,0.175-0.971-0.074
		c-0.47-0.402-1.181-0.146-1.567-0.668c-0.055-0.454,0.221-0.771,0.456-1.147c0.383,0,0.769,0,1.207,0
		c0.188,0.148,0.342,0.494,0.801,0.372c0.193-0.634,1.095-0.904,0.98-1.812c0.227-0.189,0.472-0.395,0.714-0.596
		c-0.185-0.535-0.415-0.942-0.821-1.234c-0.572,0.369-1.078,0.829-1.62,1.235c-0.673,0.503-1.249,0.646-1.929,0.16
		c-0.48-0.437-0.471-0.984-0.416-1.589c0.272-0.259,0.714-0.487,0.805-0.813c0.119-0.427,0.675-0.253,0.66-0.872
		c-0.034-0.146-0.331-0.297-0.54-0.508c-0.195,0-0.375,0-0.627,0c-0.286,0.537-0.994,0.411-1.507,0.855
		c-0.177,0.449-0.336,0.991-0.727,1.454c-0.213,0.253-0.407,0.678-0.159,1.148c0.362,0.687,0.108,1.332-0.367,1.92
		c-0.313,0-0.626,0-0.928,0c-0.087-0.088-0.228-0.162-0.23-0.24c-0.022-0.688-0.397-1.328-0.277-2.018
		c0.143-0.143,0.271-0.271,0.436-0.436c-0.079-0.984-0.246-1.98-0.666-2.922c-0.054-0.122-0.215-0.24-0.201-0.343
		c0.097-0.713-0.173-1.379-0.233-2.07c-0.021-0.238,0.116-0.387,0.25-0.537c-0.231-0.333-0.258-0.753-0.689-0.977
		c0.104-0.529-0.191-1.094,0.218-1.611c0.064-0.081,0.012-0.277-0.023-0.41c-0.243-0.912-0.243-0.911,0.01-1.896
		c0.035-0.135,0.081-0.344,0.014-0.412c-0.394-0.403-0.114-0.891-0.225-1.322c0.219-0.209,0.427-0.407,0.646-0.615
		c0-0.427,0-0.853,0-1.222c0.284-0.741,0.769-1.176,1.548-1.379c-0.181-0.588,0.423-1.081,0.144-1.722
		c0.346-0.295,0.67-0.571,0.972-0.828c-0.263-1.021,0.378-1.882,0.117-2.829c0.266-0.211,0.515-0.41,0.667-0.53
		c0-0.619,0-1.077,0-1.587c-0.54,0.289-0.499,0.829-0.581,1.236c-0.056,0.277-0.125,0.571-0.269,0.754
		c-0.609,0.78-0.902,1.724-1.393,2.562c-0.067,0.113-0.07,0.283-0.16,0.36c-0.6,0.518-0.651,1.198-0.58,1.933
		c-1.269,0.898-1.765,2.339-2.544,3.579c0.082,0.56,0.625,0.845,0.805,1.587c0,0.193-0.024,0.627,0.007,1.056
		c0.027,0.37-0.095,0.734,0.177,1.12c0.168,0.239,0.159,0.783-0.007,1.034c-0.232,0.354-0.163,0.679-0.17,1.015
		c-0.021,1.007-0.035,2.017-0.001,3.022c0.045,1.345-0.088,2.673-0.318,4.087c-0.205,0.119-0.495,0.287-0.611,0.354
		c-0.513,0.178-0.657-0.229-0.953-0.188c-0.074-0.327-0.314-0.577-0.3-0.963c0.043-1.187,0.025-2.375,0.01-3.563
		c-0.005-0.408,0.127-0.843-0.2-1.216c-0.071-0.081-0.062-0.307-0.001-0.418c0.302-0.562,0.213-1.163,0.198-1.751
		c-0.012-0.451,0.312-0.738,0.441-1.117c-0.053-0.28-0.268-0.373-0.502-0.488c-0.326,0.603-0.419,1.2-0.353,1.816
		c-0.24,0.307-0.292,0.729-0.695,0.932c0.25,1.034-0.325,2.012-0.178,3.041c-0.331,0.545-0.168,1.156-0.229,1.729
		c-0.231,0.2-0.497,0.013-0.719,0.122c-0.335-0.523-0.423-1.216-1.127-1.364c-0.407-0.833-0.357-1.723-0.282-2.586
		c0.068-0.77,0.185-1.576,0.493-2.271c0.37-0.838,0.458-1.697,0.622-2.545c0.114-0.475,0.484-0.755,0.809-1.092
		c0-0.382-0.001-0.776,0-1.171c0.001-0.173-0.006-0.326,0.133-0.488c0.34-0.396,0.353-0.884,0.271-1.383
		c-0.257-0.279-0.316-0.638-0.429-1.002c-0.253-0.814-0.467-1.703-1.395-2.099c-0.48,0.249-0.48,0.249-0.952-0.115
		c0-0.355,0-0.715,0-1.078c0.142-0.15,0.289-0.304,0.428-0.451c0-0.193,0-0.373,0-0.637c-0.293-0.297-0.676-0.61-0.829-1.089
		c-0.146-0.414,0.12-0.867-0.227-1.315c-0.223-0.288-0.582-0.491-0.672-0.961c0.011-0.195,0.363-0.375,0.174-0.773
		c0.025,0.049,0.016,0.014-0.006-0.009c-0.33-0.332-0.661-0.663-1.038-1.04c0.135-1.009-0.136-1.994-0.575-2.935
		c-0.086-0.184-0.039-0.344-0.066-0.513c-0.06-0.369,0.111-0.749-0.193-1.118c-0.139-0.168-0.065-0.565,0.005-0.834
		c0.038-0.145,0.211-0.256,0.191-0.46c-0.021-0.211-0.004-0.425-0.004-0.591c-0.129-0.142-0.224-0.247-0.319-0.351
		c-0.249,0.173-0.037,0.46-0.222,0.684c-0.229,0.276-0.2,0.699-0.029,0.993c0.232,0.401,0.142,0.676-0.059,1.055
		c-0.232,0.438-0.462,0.949-0.058,1.446c-0.139,0.909,0.64,1.805,0.038,2.721c0.01,0.869-0.106,1.753,0.315,2.613
		c0.339,0.287,0.862,0.404,1.039,0.87c0.438,0,0.794,0,1.141,0c0.086,0.087,0.163,0.163,0.276,0.276
		C14.795,40.951,14.795,41.265,14.795,41.593z M17.877,24.227c-0.119-0.243-0.219-0.449-0.347-0.71
		c-0.286,0.268-0.368-0.417-0.761-0.083c0.112,0.587,0.615,0.653,1.055,0.617c0.166,1.074-0.682,1.477-1.083,2.057
		c0.179,0.435,0.457,0.511,0.853,0.439c0.159-0.656,1.025-0.85,1.142-1.578C18.463,24.693,18.213,24.442,17.877,24.227z
		 M18.228,42.258c0.522,0.996,1.113,1.723,2.185,1.863c0.166,0.648-0.304,1.015-0.632,1.372c0.113,0.47,0.113,0.47,0.526,0.73
		c0.4-0.203,0.38-0.745,0.849-0.976c-0.334-0.737,0.346-1.395,0.119-2.193c-0.658-0.673-1.366-1.372-2.327-1.384
		C18.643,41.919,18.45,42.078,18.228,42.258z M13.968,24.352c0,0.38,0,0.811,0,1.213c0.27,0.345,0.321,0.936,0.958,0.788
		c0.376,0.436,0.879,0.11,1.292,0.234c0.12-0.12,0.222-0.221,0.314-0.314c0-0.179,0-0.348,0-0.57
		c-0.804-0.364-1.621-0.74-1.761-1.713C14.433,23.943,14.199,23.98,13.968,24.352z M12.581,28.048
		c0.125-0.541,0.107-0.898,0.058-1.245c-0.368-0.063-0.479,0.165-0.622,0.362C12.159,27.401,12.17,27.718,12.581,28.048z
		 M27.143,37.692c-0.071-0.101-0.143-0.101-0.214,0C27,37.792,27.072,37.792,27.143,37.692z"/>
	<path fill="currentColor" d="M42.48,43.956c0.286,0.286,0.464,0.465,0.641,0.641
		c-0.369,0.432-0.317,0.824,0.104,1.185c0.609-0.407,0.275-0.896,0.09-1.376c0.486-0.271,1.038-0.419,1.35-0.976
		c-0.278-0.643-0.176-1.457-0.814-2.012c-0.189-0.164-0.059-0.471-0.064-0.782c0.524-0.229,1.072-0.47,1.641-0.719
		c0.165-0.346,0.407-0.699,0.238-1.243c-0.086-0.161-0.382-0.207-0.607-0.37c0.066-0.601,0.391-1.074,0.698-1.533
		c0.382-0.105,0.714-0.088,0.994,0.163c0.25,0.072,0.311-0.324,0.567-0.213c0.381-0.478,0.338-1.159,0.774-1.629
		c0-0.27,0-0.556,0-0.873c0.486-0.262,0.489-0.866,0.853-1.284c0-0.532,0-1.104,0-1.762c0.291-0.24,0.62-0.511,0.912-0.751
		c-0.063-0.463-0.392-0.597-0.59-0.836c-0.504,0-1.006,0-1.523,0c-0.378-0.568-1.19-0.709-1.472-1.317
		c-0.273-0.592-0.598-1.13-0.983-1.643c-0.041-0.413,0.155-0.728,0.426-1.036c0-0.409,0-0.838,0-1.298
		c0.126-0.104,0.265-0.217,0.412-0.338c0-0.404,0-0.791,0-1.12c0.226-0.225,0.402-0.403,0.588-0.588c0.203,0,0.418,0,0.63,0
		c0.283-0.283,0.563-0.563,0.843-0.843c0.694-0.033,1.386-0.113,1.987,0.399c0.124,0.106,0.416,0.016,0.629,0.016
		c0.165-0.236,0.189-0.456-0.025-0.672c-0.045-0.044-0.098-0.129-0.083-0.176c0.172-0.583-0.217-1.083-0.235-1.64
		c-0.008-0.25,0.24-0.341,0.247-0.627c-0.172-0.172-0.42-0.34-0.557-0.574c-0.234-0.399-0.448-0.765-0.211-1.328
		c0.33-0.779,0.029-1.543-0.562-2.3c-0.151-0.357,0.265-0.741,0.257-1.208c-0.436-0.353-0.963-0.588-1.294-1.095
		c-0.04-0.498-0.431-0.993-0.185-1.563c0.076-0.077,0.152-0.153,0.247-0.247c0.337,0,0.691,0,1.12,0
		c0.307,0.504,0.988,0.658,1.269,1.023c0.396,1.416,0.736,2.66,1.816,3.573c0,0.331,0,0.684,0,1.005
		c0.433,0.611,0.895,1.158,1.145,1.85c0.688,0.121,0.798,0.804,0.78,1.244c-0.035,0.865,0.299,1.532,0.712,2.208
		c0.07,0.115,0.229,0.178,0.148,0.591c-0.064,0.179-0.211,0.586-0.385,1.069c0.01,0.208,0.307,0.287,0.398,0.439
		c0.159,0.746-0.178,1.474,0.193,2.146c0.082,0.147-0.099,0.147-0.111,0.23c-0.054,0.342-0.149,0.694,0.063,1.015
		c0.195,0.296,0.207,0.715,0.078,0.91c-0.341,0.515-0.087,1.043-0.226,1.622c-0.074,0.145-0.359,0.231-0.417,0.622
		c0.148,0.045,0.371,0.112,0.503,0.152c-0.116,0.689,0.126,1.194-0.269,1.625c0.061,0.258,0.389,0.488,0.206,0.761
		c-0.149,0.221-0.243,0.417-0.202,0.676c-0.17,0.172-0.465,0.148-0.621,0.434c0,0.262,0,0.576,0,1.005
		c0.107,0.068,0.288,0.183,0.443,0.281c-0.438,0.926-0.686,1.848-1.309,2.579c-0.148,0.873,0.263,1.845-0.467,2.639
		c0.091,0.72-0.132,1.403-0.367,2.091c-0.163,0.475-0.065,0.808,0.352,1.536c-0.221,0.44-0.741,0.414-1.129,0.735
		c-0.342,0.419-0.351,1.097-0.791,1.544c0.018,0.863-0.579,1.626-0.415,2.514c0.102,0.102,0.204,0.203,0.306,0.306
		c0.72,0.001,1.439,0.001,2.158,0.001c0.332,0.272,0.452,0.669,0.621,1.062c0.489,0,0.987,0,1.493,0
		c0.274,0.268,0.512,0.484,0.62,0.92c0.229,0.923,0.619,1.774,0.21,2.772c-0.229,0.559,0.228,1.104,0.359,1.66
		c0.162,0.28-0.375,0.324-0.121,0.646c-0.786,0.163-1.222,0.836-1.9,0.951c-0.197,0.401-0.373,0.759-0.562,1.143
		c0.254,0.667,0.879,1.321,0.078,2.069c-0.052,0-0.192,0-0.291,0c-0.231-0.195-0.444-0.376-0.596-0.504
		c-0.109-0.648,0.551-0.974,0.412-1.547c-0.385-0.369-0.827-0.609-1.42-0.523c-0.385,0.472-0.789,0.925-0.325,1.628
		c0.133,0.201,0.021,0.563,0.021,0.847c0.321,0.441,0.943,0.421,1.273,0.844c-0.163,0.474-0.204,0.513-0.549,0.818
		c-0.123,0.109-0.241,0.22-0.305,0.411c-0.294,0.88-0.309,0.875-1.132,1.291c-0.859-0.134-1.271-0.906-1.88-1.397
		c0-0.447-0.025-0.88,0.008-1.309c0.028-0.371-0.003-0.724,0.156-1.12c0.153-0.383,0.148-0.938-0.081-1.437
		c-0.166-0.36-0.081-0.836-0.115-1.373c-0.593-0.534-1.087-1.224-1.311-2.144c-0.28-1.153-0.171-2.156,0.38-3.156
		c0.376-0.683,0.771-1.393,0.349-2.296c-0.243-0.52,0.161-1.063,0.614-1.43c0-0.445,0-0.878,0-1.306
		c0.376-0.371,0.499-0.815,0.403-1.336c-0.272-0.019-0.436-0.328-0.954-0.26c-0.304,0.074-0.713,0.603-1.319,0.37
		c-0.327-0.2-0.254-0.747-0.74-0.834c-0.201-0.014-0.231,0.235-0.402,0.285c0,0.377,0,0.734,0,1.081
		c-0.507,0.503-0.666,1.117-0.66,1.794c0.005,0.646,0.001,1.291,0.001,1.92c-0.145,0.144-0.271,0.271-0.433,0.432
		c0,0.357-0.006,0.749,0.002,1.141c0.013,0.626-0.236,1.199-0.358,1.798c-0.092,0.454-0.121,0.488,0.141,1.065
		c-0.152,0.346-0.304,0.692-0.647,0.949c0,0.771-0.014,1.559,0.007,2.346c0.007,0.302-0.006,0.585,0.152,0.909
		c0.172,0.348,0.2,0.922,0.022,1.251c-0.288,0.53-0.143,1.038-0.171,1.549c-0.038,0.688-0.123,1.407,0.421,1.98
		c-0.03,0.455,0.347,0.838,0.22,1.315c-0.113,0.428,0.462,0.746,0.167,1.223c-0.421,0.574-1.054,0.867-1.809,1.036
		c-0.537-0.754-0.836-1.617-1.28-2.424c-0.629,0.021-0.506,0.804-0.971,0.979c-0.477,0.18-0.568,0.737-1.022,0.979
		c-0.216,0.022-0.433-0.006-0.624-0.234c-0.277-0.329-0.597-0.624-0.911-0.92c-0.307-0.288-0.359-0.741-0.717-0.933
		c0.195-0.46,0.375-0.825,0.699-1.064c-0.14-0.461-0.511-0.789-0.446-1.279c0.2-0.223,0.468-0.056,0.758-0.129
		c0.407-0.323,0.725-0.859,1.328-1.026c0.099,0.148,0.252,0.214,0.499,0.185c-0.034,0.561,0.072,1.054,0.502,1.467
		c0.361,0.143,0.63,0.01,0.827-0.401c-0.193-0.73-0.848-1.451-0.218-2.324c-0.149-0.283-0.422-0.656-0.223-0.941
		c0.474-0.677-0.015-1.149-0.255-1.707c0.311-0.457,0.533-0.943,0.461-1.531c-0.028-0.229,0.055-0.456,0.133-0.693
		c0.147-0.444,0.191-0.969-0.043-1.435c-0.171-0.339-0.214-0.755-0.026-1.002c0.364-0.481-0.012-0.787-0.169-1.114
		c-0.132-0.276-0.428-0.475-0.609-0.663c-0.507-0.19-0.806,0.457-1.206,0.176c-0.424-0.425-0.826-0.826-1.282-1.283
		c0.051-0.242-0.254-0.495-0.335-0.841c-0.277,0-0.56,0-0.806,0c-0.452-0.251-0.646-0.656-0.847-1.127
		c0.074-0.263,0.357-0.422,0.57-0.621c0.202,0,0.382,0,0.584,0c0.286,0.272,0.716,0.47,0.551,1.012
		c0.681,0.258,1.247-0.347,1.859-0.122c0.177,0.177,0.354,0.354,0.553,0.553c-0.116,0.417,0.093,0.778,0.301,1.14
		c0.858,0.105,1.151-0.586,1.595-1.187c0-0.237,0-0.552,0-0.814c-0.236-0.594-0.702-1.058-0.606-1.797
		c0.127-0.1,0.296-0.231,0.424-0.331C42.48,44.568,42.48,44.316,42.48,43.956z M52.816,32.365c0.403-0.553,0.386-1.201,0.68-1.729
		c-0.411-0.578-0.126-1.224-0.222-1.793c0.171-0.171,0.298-0.298,0.425-0.426c0.034-0.514,0.078-1.031-0.256-1.316
		c-0.489-0.252-0.631,0.041-0.823,0.274c0,0.63,0,1.274,0,1.884c-0.357,0.415-0.362,1.02-0.872,1.292
		c0.152,0.756-0.222,1.342-0.594,1.917c-0.525,0.812-1.014,1.624-0.903,2.651c0.021,0.2-0.101,0.412-0.126,0.584
		c-0.082,0.553-0.521,0.869-0.701,1.38c0,0.264,0,0.578,0,0.848c0.288,0.384,0.636,0.324,0.955,0.273
		c0.447-0.234,0.177-0.86,0.788-1.092c0.241,0,0.627,0,1.007,0c0.041-1.33,0.041-1.33,0.458-2.011c0-0.359,0-0.719,0-1.098
		c0.34-0.19,0.437-0.563,0.594-0.852C53.092,32.895,52.968,32.657,52.816,32.365z M47.791,41.401
		c-0.131,0.505-0.503,0.739-0.796,1.074c0.098,0.211-0.079,0.474,0.105,0.703c0.167,0.021,0.384,0.102,0.495-0.033
		c0.387-0.469,0.689,0.087,1.034,0.055c0.053,0.448,0.455,0.395,0.737,0.516c0.302,0.13,0.579,0.3,0.77,0.559
		c0.582-0.405,0.212-0.97,0.381-1.402c0.129-0.472,0.502-0.747,0.785-1.042c0-0.918,0-1.807,0-2.659
		c-0.11-0.11-0.186-0.187-0.287-0.287c-0.698-0.032-1.442,0.102-2.11-0.259c-0.136,0.128-0.238,0.226-0.357,0.34
		c0,0.298,0,0.61,0,0.925c0.4,0.311,0.675,0.7,0.877,1.244c-0.325,0.033-0.156,0.379-0.346,0.544
		C48.665,41.692,48.241,41.764,47.791,41.401z M51.58,53.051c0.348-0.779,1.046-1.363,1.306-2.282
		c-0.89-0.053-1.597,0.325-2.346,0.478c-0.11,0.021-0.279,0.208-0.269,0.3c0.051,0.433-0.341,0.744-0.25,1.206
		c0.087,0.444,0.019,0.92,0.019,1.309c0.18,0.297,0.319,0.527,0.474,0.781c0.32,0,0.633,0,0.897,0
		c0.688,0.648,1.481,0.398,2.186,0.458c0.35-0.332,0.568-0.669,0.556-0.931c-0.106-0.765-0.689-0.589-1.021-0.76
		c-0.359-0.187-0.89-0.042-1.346-0.042C51.802,53.291,51.714,53.149,51.58,53.051z M49.591,27.875
		c1.06-0.35,1.286-1.233,1.271-2.046c-0.016-0.898-0.777-1.357-1.555-1.661c-0.143,0.143-0.244,0.244-0.414,0.414
		c0.304,0.295,0.607,0.591,0.916,0.891c-0.078,0.884-1.045,1.042-1.527,1.697C48.744,27.419,49.157,27.642,49.591,27.875z"/>
	<path fill="currentColor" d="M62.975,51.333c-0.58,0.438-0.563,1.152-0.904,1.727
		c-0.253,0.037-0.448,0.376-0.893,0.27c-0.111-0.159-0.272-0.391-0.512-0.734c0.035-0.14-0.211-0.554,0.163-0.881
		c0.07-0.062,0.068-0.336-0.004-0.408c-0.551-0.554-0.37-1.133-0.23-1.8c0.189-0.896,0.016-1.792-0.619-2.531
		c0-0.432-0.022-0.864,0.006-1.294c0.028-0.434-0.218-0.778-0.33-1.164c-0.072-0.249-0.523-0.447-1.11-0.649
		c-0.293,1.099,0.019,2.035,0.797,2.874c-0.082,0.531,0.157,1.104-0.225,1.611c-0.017,0.023-0.011,0.073-0.001,0.106
		c0.213,0.737,0.188,1.505,0.296,2.256c0.016,0.106,0.162,0.215,0.136,0.371c-0.167,0.959,0.227,1.876,0.217,2.823
		c-0.008,0.935-0.001,1.868-0.001,2.775c-0.193,0.199-0.367,0.381-0.544,0.563c-0.594-0.164-0.736,0.464-1.138,0.641
		c-0.342,0.035-0.374-0.418-0.685-0.434c-0.591-0.027-0.998,0.676-1.698,0.376c-0.126-0.102,0.015-0.3-0.062-0.463
		c0.323-0.26,0.7-0.04,1.023-0.158c0.373-0.354,0.549-0.778,0.513-1.299c-0.071-1.022,0.309-2.007,0.238-3.042
		c-0.034-0.494-0.099-1.011-0.317-1.383c-0.521-0.887-0.623-1.809-0.556-2.857c-0.145-0.106-0.317-0.233-0.433-0.318
		c-0.092-0.508,0.302-0.742,0.417-1.097c0-0.609,0.005-1.219-0.002-1.828c-0.006-0.586,0.106-1.193-0.32-1.764
		c-0.396,0.112-0.755-0.111-1.161-0.268c0-0.301,0-0.615,0-0.946c0.109-0.178,0.489,0.073,0.457-0.288c0.342,0,0.629,0,0.919,0
		c0.116-0.164,0.317-0.244,0.333-0.511c0.058-0.945,0.499-1.737,1.069-2.465c0.011-0.251,0.041-0.506-0.235-0.599
		c0.039-0.134,0.045-0.206,0.079-0.261c0.327-0.521,0.615-1.066,1.06-1.507c0.139-0.137,0.23-0.333,0.308-0.517
		c0.358-0.854,0.931-1.484,1.729-1.982c0.396-0.248,0.747-0.593,1.121-0.808c0.271,0.025,0.326,0.234,0.477,0.329
		c0,0.359-0.023,0.72,0.005,1.077c0.041,0.516-0.099,0.951-0.456,1.325c-0.337,0.352-0.207,0.935-0.62,1.259
		c0,0.428,0,0.856,0,1.272c-0.144,0.23-0.474,0.155-0.648,0.535c-0.177,0.85,0.439,1.782,0.2,2.646
		c0.521,0.991,0.931,1.914,1.524,2.715c-0.018,0.296-0.417,0.521-0.208,0.784c0.283,0.356,0.203,0.736,0.194,1.108
		c-0.014,0.609,0.119,1.12,0.501,1.637c0.443,0.599,0.53,1.392,0.302,2.08C63.029,50.593,63.064,50.918,62.975,51.333z
		 M59.039,40.21c-0.396,0.082-0.277,0.539-0.575,0.717c0,0.454-0.01,0.916,0.003,1.378c0.013,0.439-0.061,0.889,0.061,1.34
		c0.421-0.308,0.633-0.693,0.803-1.114c-0.286-0.274-0.154-0.647-0.23-0.972c-0.098-0.411,0.401-0.675,0.2-1.088
		C59.206,40.377,59.105,40.277,59.039,40.21z"/>
	<path fill="currentColor" d="M44.208,14.484c-0.446,0.817-1.268,0.919-1.845,1.486
		c-0.405-0.004-0.896,0.183-1.148-0.189c-0.484-0.043-0.561,0.264-0.789,0.406c-0.183,0-0.394,0-0.665,0
		c-0.322-0.449-0.833-0.719-1.372-0.947c-0.746-0.315-1.138-1.038-1.74-1.496c0-0.671-0.062-1.324,0.018-1.959
		c0.078-0.619-0.506-1.119-0.047-1.926c0.196-0.196,0.577-0.576,1.001-1.002c0.2,0,0.445-0.009,0.689,0.003
		c0.202,0.01,0.45-0.103,0.546,0.192c0.34-0.199,0.722-0.283,0.905-0.627c0.811,0,1.6,0,2.402,0
		c0.519,0.585,1.203,1.037,1.458,1.864c0.063,0.205,0.332,0.408,0.62,0.529c0.553,0.233,0.745,0.799,0.589,1.297
		c-0.23,0.733-0.239,1.528-0.617,2.217C44.182,14.387,44.208,14.473,44.208,14.484z M39.567,13.067
		c0.742-0.811,1.587-0.021,2.373-0.109c0.443-0.422,0.627-0.877,0.509-1.433c-0.263-0.287-0.577-0.475-0.936-0.521
		c-0.911,0.318-1.914,0.373-2.483,1.245C38.966,12.591,39.118,12.806,39.567,13.067z"/>
	<path fill="currentColor" d="M34.267,55.646c-0.227-0.361-0.75-0.572-0.802-1.136
		c-0.01-0.437-0.192-0.945,0.213-1.443c-0.301-0.202-0.419-0.64-1.012-0.579c-0.353,0.253-0.601,0.784-1.092,0.79
		c-0.215,0.42,0.065,0.86-0.28,1.03c-0.505,0.302-0.938,0.085-1.228-0.128c-0.46-0.338-0.87-0.656-1.482-0.629
		c-0.168,0.008-0.346-0.185-0.558-0.307c-0.133-0.703,0.25-1.199,0.823-1.672c0.33,0.208,0.625,0.424,0.705,0.841
		c0.32,0.081,0.565,0.427,0.984,0.243c0.071-0.07,0.172-0.172,0.276-0.275c0-0.214,0-0.43,0-0.68
		c-0.495-0.295-0.979-0.641-1.346-1.14c-0.251-0.011-0.493-0.021-0.72-0.032c-0.178-0.198-0.458-0.325-0.367-0.708
		c0.23-0.164,0.459-0.328,0.689-0.492c0.275-0.143,0.339,0.262,0.603,0.351c0.719-0.29,1.034-0.293,1.714,0.004
		c0.183-0.398-0.007-0.828,0.117-1.248c0.163-0.411,0.716-0.142,0.961-0.5c0.192-0.281,0.536-0.455,0.604-0.84
		c0.284,0,0.57,0,0.885,0c0.177-0.367,0.61-0.402,0.892-0.658c0.791,0.215,1.261,0.772,1.585,1.486
		c-0.176,0.543-0.509,1.045-0.423,1.657c0.42,0.57,1.34,0.137,1.691,0.924c-0.061,0.558-0.153,0.736-0.724,1.329
		c-0.209,0-0.424,0-0.667,0c-0.154-0.167-0.325-0.351-0.531-0.573c0.117-0.388-0.132-0.739-0.292-1.132
		c-0.696-0.185-0.977,0.76-1.776,0.596c-0.416-0.568-1.192-0.615-1.909-0.921c-0.209,0.497-0.181,1.016-0.58,1.298
		c0.131,0.726,1.03,0.344,1.158,0.945c0.323,0,0.609,0,0.898,0c0.157,0.148,0.311,0.295,0.468,0.444c0.5,0,1.003,0,1.501,0
		c0.106,0.106,0.208,0.208,0.314,0.314c0,0.21,0,0.425,0,0.646c-0.261,0.377-0.809,0.411-1.025,0.865
		c0.261,0.24,0.138,0.608,0.17,0.912c0.452,0.437,1.128,0.195,1.626,0.747c0.385,0.772,0.753,1.763,1.811,2.159
		c0,0.257,0,0.469,0,0.705c-0.216,0.34-0.56,0.564-0.987,0.729c-0.984-0.187-0.819-1.354-1.452-1.87
		c-0.309-0.116-0.539,0.049-0.813,0.225c-0.21-0.377-0.733-0.105-0.966-0.488C33.511,56.755,34.32,56.318,34.267,55.646z"/>
	<path fill="currentColor" d="M36.156,24.376c-1.611,0.14-3.05,0.022-4.044-1.433
		c-0.008-0.518,0.088-1.115-0.365-1.618c-0.167-0.186-0.062-0.473-0.05-0.697c0.306-0.396,0.688-0.685,0.939-1.136
		c0.388-0.695,1.167-0.916,1.888-1.122c0.547-0.156,1.035,0.219,1.39,0.501c0.516,0.409,1.157,0.687,1.566,1.351
		c-0.019,0.589,0.529,1.048,0.693,1.729c-0.21,0.468-0.395,1.012-0.687,1.49C37.193,23.92,36.482,23.88,36.156,24.376z M35.261,21.6
		c-0.386,0-0.74-0.005-1.092,0.007c-0.04,0.001-0.075,0.102-0.115,0.159c-0.022,0.255,0.212,0.332,0.338,0.482
		c0.357,0,0.711,0.005,1.063-0.007c0.04-0.001,0.075-0.102,0.112-0.156C35.609,21.865,35.407,21.795,35.261,21.6z"/>
	<path fill="currentColor" d="M33.151,32.821c0.066-0.543,0.532-0.704,0.76-1.056c0.58,0,1.15,0,1.763,0
		c0.501,0.42,0.896,1.033,1.635,1.311c-0.073,0.429-0.021,0.874,0.243,1.165c0.289,0.317,0.473,0.605,0.338,1.178
		c-0.219,0.181-0.547,0.452-0.853,0.707c0.172,0.48-0.141,0.659-0.357,0.885c-0.214,0.224-0.485,0.407-0.521,0.769
		c-0.365,0-0.718,0-1.01,0c-0.762-0.187-1.229-0.771-1.862-1.092c-0.243-0.125-0.495-0.359-0.599-0.604
		c-0.234-0.549-0.681-0.833-1.226-1.131c0.08-0.208,0.268-0.303,0.417-0.495c0-0.408,0-0.865,0-1.259
		C32.208,32.662,32.68,32.88,33.151,32.821z M33.536,34.173c0.218,0.411,0.315,0.777,0.623,1.029
		c0.242-0.016,0.493,0.071,0.743-0.07c0-0.164,0-0.333,0-0.481C34.56,34.292,34.195,34.062,33.536,34.173z"/>
	<path fill="currentColor" d="M58.826,28.941c-0.261,0-0.476,0-0.688,0
		c-0.104-0.104-0.206-0.206-0.314-0.314c0-0.278,0-0.564,0-0.948c0.183-0.162,0.422-0.374,0.651-0.578c0-0.454,0-0.883,0-1.306
		c0.771-0.337,0.771-0.337,1.305-0.092c0.873-0.675,0.873-0.675,2.194-0.438c0.545,0.84,1.076,1.659,1.642,2.533
		c0.015,0.84,0.015,0.84-1.775,2.63c-0.539,0-1.107,0-1.695,0C59.375,30.296,59.265,29.521,58.826,28.941z M61.272,27.913
		c-0.356-0.082-0.714-0.065-1.18,0.001c0.207,0.359,0.36,0.646,0.538,0.918c0.046,0.07,0.166,0.092,0.309,0.165
		c0.105-0.143,0.206-0.28,0.333-0.451C61.272,28.393,61.272,28.183,61.272,27.913z"/>
	<path fill="currentColor" d="M38.153,28.738c-0.801,1.438-2.075,1.377-3.376,1.25
		c-0.366-0.347-0.545-0.77-0.509-1.289c0.02-0.274,0.059-0.569-0.254-0.795c0.38-0.407,0.233-0.913,0.263-1.403
		c0.199-0.516,0.767-0.5,1.154-0.754c0.103-0.067,0.294-0.084,0.407-0.035c0.855,0.375,1.821,0.549,2.492,1.37
		C38.644,27.668,38.003,28.224,38.153,28.738z"/>
	<path fill="currentColor" d="M63.222,38.548c0.438-0.215,0.812-0.413,0.895-1.021
		c0.053-0.387,0.347-0.821,0.791-1.023c0.438-0.085,0.609,0.288,0.878,0.516c0,0.306,0,0.619,0,0.908
		c-0.402,0.427-0.874,0.589-1.381,0.514c-0.192,0.196-0.053,0.386-0.128,0.552c0.455,0.354,0.974,0.601,1.312,1.104
		c0,0.252,0,0.538,0,0.836c-0.368,0.399-0.829,0.585-1.466,0.531C63.479,40.632,63.155,39.657,63.222,38.548z"/>
	<path fill="currentColor" d="M19.497,39.058c-0.588-0.2-0.944-0.694-1.394-1.113
		c-0.014-0.324-0.174-0.689,0.321-0.974c0.281,0,0.667,0,1.04,0c0.145-0.405,0.377-0.693,0.704-0.896
		c0.276-0.047,0.494,0.033,0.66,0.275c0.193,0.476-0.045,0.917-0.16,1.376c-0.113,0.449,0.484,0.811,0.097,1.331
		C20.394,39.058,19.937,39.058,19.497,39.058z"/>
	<path fill="currentColor" d="M39.997,53.135c0.126-0.126,0.253-0.254,0.38-0.381
		c0.632-0.026,0.632-0.026,1.023,0.282c-0.062,0.718-0.699,0.947-1.168,1.347c-1.074,0.065-1.074,0.065-1.619-0.183
		c-0.582,0.436-1.26,0.137-1.905,0.256c-0.198-0.349-0.364-0.64-0.553-0.971c0.148-0.138,0.274-0.255,0.37-0.344
		c0.467-0.06,0.757,0.201,1.153,0.413c0.273,0,0.63,0,1.049,0C38.965,52.987,39.509,53.149,39.997,53.135z"/>
	<path fill="currentColor" d="M42.48,44.064c-0.25,0-0.5,0-0.758,0c-0.271,0.276-0.547,0.557-0.82,0.834
		c-0.499-0.265-1.076-0.31-1.61-0.754c0.007-0.355-0.42-0.773-0.21-1.347c0.958-0.127,1.883,0.037,2.79,0.391
		c0.153,0.061,0.345,0.018,0.461,0.186c0.04,0.058,0.135,0.1,0.141,0.155C42.492,43.706,42.48,43.885,42.48,44.064z"/>
	<path fill="currentColor" d="M40.096,33.747c0.299-0.177,0.53-0.313,0.805-0.476c0.371,0,0.797,0,1.269,0
		c0.212,0.236,0.447,0.5,0.729,0.813c0.026,0.261,0.104,0.619-0.303,0.885c-0.819,0.066-1.665,0.082-2.402-0.406
		C40.036,34.297,40.133,34.045,40.096,33.747z"/>
	<path fill="currentColor" d="M38.538,42.334c-0.859-0.065-1.383,0.847-2.277,0.617
		c0-0.292,0-0.602,0-0.97c0.424-0.273,0.465-0.887,0.865-1.329c0.277,0,0.586,0,0.978,0c0.095,0.125,0.244,0.323,0.435,0.574
		C38.538,41.524,38.538,41.931,38.538,42.334z"/>
	<path fill="currentColor" d="M40.754,37.875c-0.265,0.371-0.598,0.401-0.84,0.572
		c-0.229,0.025-0.271-0.211-0.44-0.275c0-0.365,0-0.718,0-1.125c0.277-0.247,0.593-0.529,0.847-0.755c0-0.261,0-0.404,0-0.542
		c0.19-0.231,0.396-0.42,0.732-0.321c0.216,0.173,0.48,0.331,0.383,0.537c-0.133,0.563-0.636,0.467-0.852,0.842
		C40.858,37.107,40.725,37.514,40.754,37.875z"/>
	<path fill="currentColor" d="M44.592,38.588c-0.151,0.151-0.327,0.327-0.507,0.507
		c-0.207,0-0.421,0-0.635-0.001c-0.177-0.177-0.354-0.354-0.534-0.534c0-0.423,0-0.85,0-1.29c0.304-0.093,0.532-0.355,0.908-0.35
		c0.303,0.005,0.569,0.172,0.572,0.355C44.406,37.7,44.76,38.038,44.592,38.588z"/>
	<path fill="currentColor" d="M58.159,33.696c0.151,0.173,0.241,0.276,0.303,0.346
		c0.022,0.273-0.161,0.437-0.284,0.461c-0.591,0.116-0.946,0.542-1.335,0.922c-0.647-0.096-0.647-0.096-0.756-0.743
		c0.314-0.424,0.919-0.506,1.16-0.986C57.564,33.696,57.851,33.696,58.159,33.696z"/>
	<path fill="currentColor" d="M55.81,38.706c0.238,0.471,0.386,0.919,0.232,1.408
		c-0.184,0.166-0.316,0.441-0.67,0.31c-0.215-0.28-0.43-0.562-0.645-0.842c-0.043,0.034-0.085,0.068-0.128,0.103
		c0-0.24,0-0.48,0-0.721C54.971,38.801,55.319,38.545,55.81,38.706z"/>
	<path fill="currentColor" d="M34.68,43.5c0.135,0.429-0.109,0.779-0.25,1.183c-0.297,0-0.607,0-0.969,0
		c0-0.377,0-0.783,0-1.205C34.01,43.083,34.122,43.083,34.68,43.5z"/>
	<path fill="currentColor" d="M29.557,46.903c0.329,0.049,0.471-0.359,0.788-0.247
		c0.288,0,0.558,0.359,0.698,0.964c-0.365,0.183-0.742,0.37-1.147,0.572c-0.101-0.089-0.204-0.178-0.339-0.297
		C29.557,47.611,29.557,47.298,29.557,46.903z"/>
	<path fill="currentColor" d="M8.697,37.567c0.372,0.374,0.64,0.643,0.945,0.95
		c-0.058,0.259-0.415,0.34-0.512,0.558c-0.572,0.124-0.714-0.323-0.983-0.5C8.028,37.989,8.484,37.84,8.697,37.567z"/>
	<path fill="currentColor" d="M44.664,30.152c0-0.309,0-0.621,0-0.902
		c0.216-0.266,0.452-0.374,0.625-0.322c0.505,0.205,0.352,0.687,0.88,0.896c-0.402,0.222-0.654,0.36-0.906,0.499
		C45.084,30.515,44.837,30.421,44.664,30.152z"/>
	<path fill="currentColor" d="M44.705,35.625c-0.287,0.021-0.656,0.114-0.897-0.285
		c-0.063-0.34-0.103-0.686,0.261-0.959c0.319-0.048,0.668-0.143,0.972,0.269C45.073,34.969,45.22,35.362,44.705,35.625z"/>
	<path fill="currentColor" d="M40.783,41.857c-0.649,0.149-1.117-0.065-1.526-0.474
		c0.064-0.636,0.064-0.636,0.685-0.777C40.44,40.857,40.397,41.46,40.783,41.857z"/>
	<path fill="currentColor" d="M35.812,60.053c0.022,0,0.165,0,0.304,0
		c0.108,0.212,0.213,0.419,0.315,0.619c0.029,0.185-0.15,0.232-0.21,0.351c-0.044,0.087,0.056,0.221-0.129,0.3
		c-0.192,0-0.433,0-0.642,0c-0.24-0.182-0.375-0.375-0.285-0.769C35.306,60.445,35.527,60.274,35.812,60.053z"/>
	<path fill="currentColor" d="M47.919,33.517c-0.154,0.624-0.62,0.751-1.009,1
		c-0.124-0.16-0.267-0.344-0.491-0.633c0-0.011,0.254-0.111,0.188-0.367C47.026,33.517,47.433,33.517,47.919,33.517z"/>
	<path fill="currentColor" d="M42.419,26.979c-0.244,0-0.481,0-0.708,0
		c-0.412-0.267-0.356-0.636-0.251-1.038c0.244,0,0.481,0,0.709,0C42.581,26.208,42.526,26.577,42.419,26.979z"/>
	<path fill="currentColor" d="M45.667,21.564c-0.288,0-0.598,0-0.951,0
		c-0.208-0.17-0.429-0.389-0.239-0.792c0.287,0,0.597,0,0.95,0C45.635,20.942,45.856,21.161,45.667,21.564z"/>
	<path fill="currentColor" d="M37.555,55.577c0.056-0.057,0.155-0.155,0.262-0.263c0.23,0,0.468,0,0.667,0
		c0.318,0.187,0.366,0.445,0.314,0.764c-0.313,0.181-0.66,0.017-0.964,0.098C37.701,55.964,37.413,55.904,37.555,55.577z"/>
	<path fill="currentColor" d="M55.852,36.435c0,0.233,0,0.33,0,0.418
		c-0.204,0.125-0.396,0.117-0.615,0.001C55.189,36.257,55.616,36.619,55.852,36.435z"/>
	<path fill="currentColor" d="M54.811,44.781c0-0.234,0-0.33,0-0.418c0.205-0.126,0.396-0.118,0.615-0.001
		C55.474,44.958,55.047,44.597,54.811,44.781z"/>
	<path fill="currentColor" d="M44.327,24.183c-0.162-0.102-0.104-0.216-0.119-0.311
		c0.096-0.128,0.218-0.14,0.458-0.038C44.535,23.969,44.428,24.078,44.327,24.183z"/>
	<path fill="currentColor" d="M44.642,17.604c-0.146,0.157-0.29,0.157-0.437,0
		C44.352,17.447,44.496,17.447,44.642,17.604z"/>
	<path fill="currentColor" d="M64.942,35.964c-0.07,0.101-0.142,0.101-0.212,0
		C64.8,35.863,64.872,35.863,64.942,35.964z"/>
	
	
	
	
	
	
	
	
	
	
	
	
	
	
	
</g>
</svg>
