<?xml version="1.0" encoding="iso-8859-1"?>
<!-- Generator: Adobe Illustrator 16.0.0, SVG Export Plug-In . SVG Version: 6.00 Build 0)  -->
<!DOCTYPE svg PUBLIC "-//W3C//DTD SVG 1.1//EN" "http://www.w3.org/Graphics/SVG/1.1/DTD/svg11.dtd">
<svg version="1.1" id="Layer_1" xmlns="http://www.w3.org/2000/svg" xmlns:xlink="http://www.w3.org/1999/xlink" x="0px" y="0px"
	 width="72.18px" height="70.921px" viewBox="0 0 72.18 70.921" style="enable-background:new 0 0 72.18 70.921;"
	 xml:space="preserve">
<g>
	<path style="fill-rule:evenodd;clip-rule:evenodd;fill:none;" d="M79.416,78.048c-28.8,0-57.6,0-86.399,0
		c0-28.297,0-56.591,0-84.887c28.799,0,57.599,0,86.399,0C79.416,21.457,79.416,49.751,79.416,78.048z M22.108,60.532
		c0.249,0.086,0.615,0.398,1.096,0.179c0.374-0.284,0.363-0.805,0.717-1.159c-0.217-0.712,0.17-1.401,0.211-2.133
		c0.055-0.979-0.244-1.983,0.198-2.937c0.039-0.087,0.014-0.215-0.011-0.315c-0.282-1.113-0.324-2.549,0.038-3.491
		c0.158-0.412,0.19-0.801,0.193-1.215c0.004-0.72,0.001-1.439,0.001-2.16c0.46-0.321,0.076-0.854,0.334-1.271
		c0.261-0.419,0.075-0.972,0.096-1.466c0.033-0.779-0.224-1.462-0.678-2.096c-0.25-0.35-0.491-0.742-0.597-1.151
		c-0.167-0.645-0.357-1.245-0.883-1.606c0-0.263,0-0.443,0-0.66c0.605-0.495,1.026-1.104,0.878-1.76
		c-0.406-0.817-1.078-0.999-1.657-1.339c-0.166-0.577-0.487-1.058-0.842-1.333c-0.24-0.582,0.024-0.988,0.095-1.427
		c0.076-0.473-0.065-0.979,0.23-1.42c-0.082-1.62,0.342-3.309-0.69-4.756c0.294-0.355,0.65-0.473,0.973-0.624
		c0.689,0.14,1.08,0.769,1.727,0.896c0.184-0.215,0.528-0.173,0.667-0.396c0.334,0,0.649,0,1.065,0
		c-0.37,0.677-0.351,1.457-1.044,1.879c-0.427-0.194-0.49-0.713-0.873-1.059c-0.14,0.095-0.364-0.117-0.526,0.119
		c0,0.147,0,0.291,0,0.426c0.181,0.344,0.628,0.315,0.868,0.676c0,0.329,0,0.714,0,1.1c0.212,0.604,0.949,0.33,1.33,0.911
		c-0.285,0.792-0.327,1.712,0.208,2.57c0.297,0.033,0.549,0.053,0.832-0.054c0.593-0.222,1.206-0.49,1.823-0.526
		c0.773-0.046,1.325-0.273,1.631-1.129c0-0.086,0-0.302,0-0.524c-0.396-0.381-0.748-0.777-0.931-1.337
		c-0.195-0.597-0.238-1.272-0.777-1.743c-0.093-0.082-0.123-0.479,0.08-0.694c0.146,0,0.29,0,0.436,0
		c0.248,0.278,0.236,0.705,0.546,0.968c0.135,0.227,0.394,0.032,0.573,0.143c0.305,0.305,0.735,0.558,0.89,0.927
		c0.305,0.724,1.002,0.874,1.524,1.278c0.388,0.301,0.641,0.103,0.883-0.171c0.079-0.839-0.087-1.685,0.111-2.592
		c1.09,0.623,1.981,1.317,2.69,2.144c0,0.276,0,0.486,0,0.733c-0.553,0-1.082,0-1.575,0c-0.183,0.187-0.112,0.462-0.346,0.561
		c0,0.394,0,0.79,0,1.185c0,0.396,0.16,0.918-0.033,1.163c-0.415,0.528,0.017,0.914,0.024,1.359c0.01,0.583,0.341,0.959,0.719,1.326
		c0.207,0.201,0.394,0.424,0.615,0.606c0.397,0.329,0.773,0.761,1.236,0.914c0.439,0.146,0.775,0.411,1.164,0.588
		c0.608,0.276,0.877,0.909,1.434,1.177c0.131,0,0.238,0,0.359,0c0.732,0.897,1.811,1.379,2.673,2.14
		c0.732,0.647,1.58,1.185,2.438,1.659c0.886,0.489,1.376,1.445,2.384,1.807c0.523,0.187,0.873,0.877,1.396,1.047
		c0.596,0.194,0.998,0.616,1.439,0.941c0.882,0.65,1.918,1.091,2.613,1.89c0.417,0,0.771,0,1.097,0
		c0.489-0.324,0.271-0.783,0.255-1.152c-0.047-0.397-0.324-0.62-0.571-0.861c-0.424-0.413-0.701-0.924-0.991-1.427
		c-0.477-0.817-0.939-1.637-1.493-2.415c-0.443-0.622-1-1.139-1.451-1.751c-0.387-0.524-0.685-1.109-1.104-1.608
		c-0.417-0.495-0.783-1.018-1.034-1.623c-0.15-0.369-0.312-0.772-0.583-1.047c-0.597-0.604-0.99-1.379-1.665-1.911
		c-0.191-0.151-0.273-0.385-0.399-0.585c-0.577-0.91-0.883-2.11-2.234-2.271c-0.084-0.01-0.149-0.149-0.23-0.22
		c-0.497-0.429-0.799-0.949-0.716-1.562c-0.237-0.334-0.577-0.367-0.847-0.578c-0.612,0-1.255,0-1.872,0
		c-0.15-0.15-0.264-0.367-0.407-0.39c-0.577-0.092-1.13-0.381-1.712-0.218c-0.128-0.128-0.229-0.23-0.347-0.347
		c0.1-1.191-0.256-2.145-1.413-2.737c-0.366-0.187-0.73-0.542-0.896-0.911c-0.189-0.418-0.527-0.649-0.796-0.963
		c-0.487-0.568-1.086-0.831-1.796-0.625c-0.248,0.733-0.493,1.424,0.068,2.112c0.613,0.336,1.084,0.81,1.475,1.489
		c0.048,0.082,0.163,0.137,0.017,0.234c-0.208,0-0.424,0-0.661,0c-0.479-0.58-1.173-0.995-1.506-1.706
		c-0.347-0.023-0.605-0.448-1.056-0.093c-0.248,0.194-0.768,0.005-1.142,0.09c-0.349,0.079-0.668,0.291-0.97,0.431
		c-0.267-0.093-1.182-0.56-1.253-0.633c0.123-0.538,0.441-0.904,1.182-1.106c0.226,0.007,0.689,0.043,1.083-0.223
		c0.756-0.508,1.613-0.795,2.482-1.153c0-0.733,0-1.479,0-2.124c0.28-0.465,0.688-0.603,1.002-0.803c0.387,0,0.741,0,1.085,0
		c0.216,0.22,0.417,0.426,0.616,0.629c0.149,0,0.293,0,0.455,0c0.507,0.561,1.03,1.104,1.783,1.388
		c0.543,0.205,0.987,0.588,1.445,0.961c0.725,0.591,1.546,1.043,2.458,1.354c0.364,0.124,0.954,0.017,1.104,0.636
		c-0.246,0.303-0.294,0.585-0.024,0.987c0.524,0.784,0.922,1.651,1.53,2.388c-0.015,0.411,0.095,0.845-0.238,1.127
		c0.126,0.25,0.215,0.428,0.308,0.613c0.272-0.008,0.434,0.337,0.85,0.239c0.372-0.383,0.869-0.214,1.326,0.037
		c0.297,0.162,0.554,0.373,0.907,0.425c1.104,0.164,2.057,0.779,3.119,1.067c0.161,0.043,0.225,0.16,0.331,0.244
		c0.108,0.084,0.189,0.174,0.351,0.204c1,0.187,1.852,0.741,2.753,1.168c0.58,0.275,1.155,0.52,1.821,0.573
		c0.524,0.042,1.043,0.245,1.546,0.426c0.719,0.26,1.41,0.6,2.135,0.839c0.73,0.242,1.504,0.363,2.123,0.874
		c0.079,0.065,0.159,0.173,0.246,0.182c0.595,0.059,1.049,0.431,1.567,0.655c0.199,0.085,0.381,0.24,0.651,0.267
		c0.871,0.089,1.673,0.448,2.46,0.845c0.353-0.179,0.71-0.359,1.066-0.54c-0.137-0.27,0.267-0.324,0.251-0.4
		c-0.315-0.967-0.868-1.579-1.488-2.147c-0.371-0.34-0.711-0.712-1.072-1.064c-0.374-0.365-0.727-0.744-1.201-1.006
		c-0.572-0.314-1.078-0.71-1.388-1.34c-0.126-0.258-0.383-0.506-0.692-0.636c-0.476-0.201-0.822-0.597-1.081-0.993
		c-0.508-0.779-1.118-1.412-1.956-1.8c-0.175-0.081-0.293-0.192-0.407-0.313c-0.386-0.412-0.805-0.779-1.291-1.063
		c-0.416-0.243-0.769-0.499-1.003-0.969c-0.181-0.362-0.551-0.678-0.909-0.892c-0.475-0.282-0.891-0.635-1.344-0.935
		c-0.695-0.463-1.372-0.932-1.953-1.539c-0.154-0.163-0.399-0.24-0.606-0.351c-0.266-0.141-0.588-0.175-0.78-0.4
		c-0.747-0.237-1.48,0.408-2.21-0.033c-1.166,0.099-2.312-0.111-3.527-0.286c-0.776-0.434-1.416-1.318-2.521-1.241
		c-0.421-0.443-0.826-0.882-1.496-0.854c-0.152-0.273-0.522-0.108-0.645-0.244c-0.568-0.631-1.386-0.91-1.991-1.496
		c-0.282,0-0.565,0-0.834,0c-0.238-0.274-0.459-0.487-0.563-0.875c-0.102-0.375-0.1-0.747-0.185-1.107
		c-0.374-1.593-2.522-2.732-4.099-2.21c-1.083,0.358-2.108,0.803-2.788,1.752c-0.033,0.466-0.357,0.85-0.24,1.216
		c-0.277,0.468-0.687,0.598-1.083,0.836c-0.308,0-0.661,0-0.894,0c-0.557,0.372-1.111,0.62-1.383,1.107
		c-0.23,0.415-0.546,0.603-0.938,0.576c-0.474-0.033-0.861,0.22-1.312,0.27c-0.435,0.047-0.838,0.387-1.282,0.613
		c-0.506,0-1.045-0.004-1.585,0.001c-0.24,0.002-0.45,0.081-0.684,0.169c-1.132,0.431-1.66,1.295-2.084,2.362
		c-0.383,0.963-0.088,1.715,0.398,2.483c0.09,0.142,0.227,0.23,0.287,0.423c0.194,0.619,0.631,1.036,1.198,1.24
		c0.492,0.064,0.953-0.062,1.375,0.084c0.007,0.175,0.016,0.283-0.153,0.391c-0.396,0-0.854,0-1.313,0
		c0.028,0.04,0.057,0.081,0.085,0.121c-0.211,0.133-0.423,0.267-0.56,0.354c0,0.518,0.012,0.915-0.003,1.31
		c-0.012,0.315,0.095,0.649-0.06,0.945c-0.245,0.469-0.224,0.915-0.013,1.391c0.144,0.323,0.157,0.688-0.015,1.01
		c-0.181,0.341-0.081,0.608,0.011,0.966c0.164,0.641,0.476,1.125,0.947,1.542c-0.064,0.065-0.107,0.13-0.167,0.165
		c-0.713,0.403-1.286,0.89-1.379,1.793c-0.025,0.237-0.24,0.517-0.448,0.664c-0.614,0.435-0.774,1.125-1.019,1.746
		c-0.375,0.952-0.312,0.967,0.178,2.112c0.134,0.312,0.418,0.612,0.425,0.892c0.022,0.847,0.442,1.482,0.886,2.158
		c-0.059,0.972,0.403,1.804,0.867,2.625c0.033,0.592-0.151,1.241,0.288,1.722c0.684,0.745,0.893,1.607,0.801,2.449
		c0.477,0.928,0.94,1.724,0.872,2.564c0.219,0.649,0.608,1.075,0.669,1.698c0.034,0.343,0.121,0.731,0.252,1.072
		c0.228,0.59,0.6,1.154,0.746,1.735C21.432,59.23,21.599,59.863,22.108,60.532z M25.632,35.239c0.118,0.371-0.075,0.769-0.313,1.083
		c-0.328,0.434-0.34,0.889-0.337,1.378c0.003,0.535,0.154,1.162-0.069,1.585c-0.323,0.613-0.053,1.02,0.221,1.408
		c0.456,0.646,0.885,1.309,1.404,1.919c0.431,0.507,0.982,0.938,1.305,1.501c0.623,1.085,1.7,1.746,2.389,2.763
		c0.309,0.455,0.85,0.758,1.045,1.297c0.212,0.586,0.782,0.865,1.063,1.395c0.492,0.924,1.144,1.759,1.948,2.411
		c0.323,0.263,0.573,0.576,0.775,0.876c0.407,0.603,0.889,1.139,1.334,1.704c0.534,0.677,1.334,1.137,1.609,2.036
		c0.065,0.214,0.34,0.362,0.518,0.541c0.229,0.228,0.532,0.419,0.673,0.693c0.38,0.745,0.991,1.219,1.729,1.658
		c-0.012-0.364,0.365-0.121,0.435-0.337c0.298-0.407,0.235-0.769,0.081-1.237c-0.139-0.429-0.355-0.897-0.293-1.393
		c-0.506-0.395-0.531-0.993-0.7-1.546c-0.203-0.666-0.707-1.292-0.727-1.945c-0.023-0.809-0.485-1.328-0.79-1.958
		c-0.043-0.091-0.124-0.152-0.127-0.273c-0.013-0.622-0.382-1.196-0.206-1.774c-0.356-0.503-0.591-0.981-0.816-1.471
		c-0.135-0.288-0.081-0.593-0.177-0.894c-0.215-0.671-0.611-1.27-0.74-1.965c-0.207-1.107-0.206-1.108-1.092-1.744
		c0.165-0.469-0.248-0.871-0.212-1.37c0.036-0.496,0.008-0.995,0.008-1.44c-0.381-0.381-0.818-0.657-1.019-1.055
		c-0.339-0.673-0.866-1.033-1.524-1.269c-0.622-0.225-1.239-0.508-1.918-0.168c-0.112,0.057-0.278,0.007-0.346,0.007
		c-0.236-0.211-0.424-0.377-0.601-0.534c0.046-0.192-0.075-0.388,0.131-0.558c0.448,0.038,0.764,0.579,1.322,0.427
		c0.222-0.765,1.004-1.392,0.599-2.438c-0.32-0.031-0.544-0.409-0.978-0.356c-0.369,0.044-0.671-0.17-0.907-0.399
		c-0.279-0.27-0.586-0.481-0.999-0.676c-0.202,0-0.49,0-0.79,0c-0.042,0.045-0.094,0.094-0.14,0.15
		c-0.376,0.462-0.732,0.867-1.401,1.022C26.518,34.405,25.938,34.638,25.632,35.239z"/>
	<path style="fill-rule:evenodd;clip-rule:evenodd;" d="M22.108,60.532c-0.51-0.669-0.677-1.302-0.844-1.968
		c-0.146-0.581-0.519-1.146-0.746-1.735c-0.132-0.341-0.218-0.729-0.252-1.072c-0.062-0.623-0.45-1.049-0.669-1.698
		c0.068-0.841-0.395-1.637-0.872-2.564c0.091-0.842-0.118-1.704-0.801-2.449c-0.439-0.48-0.255-1.13-0.288-1.722
		c-0.464-0.821-0.926-1.653-0.867-2.625c-0.444-0.676-0.864-1.312-0.886-2.158c-0.007-0.279-0.291-0.58-0.425-0.892
		c-0.49-1.146-0.553-1.16-0.178-2.112c0.244-0.621,0.405-1.312,1.019-1.746c0.208-0.147,0.423-0.427,0.448-0.664
		c0.093-0.903,0.666-1.39,1.379-1.793c0.061-0.035,0.104-0.1,0.167-0.165c-0.472-0.417-0.783-0.9-0.947-1.542
		c-0.091-0.358-0.191-0.625-0.011-0.966c0.171-0.322,0.158-0.687,0.015-1.01c-0.211-0.476-0.232-0.922,0.013-1.391
		c0.155-0.295,0.047-0.629,0.06-0.945c0.015-0.396,0.003-0.792,0.003-1.31c0.137-0.086,0.348-0.22,0.56-0.354
		c-0.029-0.041-0.057-0.081-0.085-0.121c0.458,0,0.917,0,1.313,0c0.169-0.108,0.16-0.216,0.153-0.391
		c-0.422-0.146-0.884-0.02-1.375-0.084c-0.567-0.204-1.004-0.621-1.198-1.24c-0.06-0.192-0.197-0.281-0.287-0.423
		c-0.486-0.768-0.782-1.52-0.398-2.483c0.424-1.067,0.952-1.931,2.084-2.362c0.234-0.089,0.444-0.167,0.684-0.169
		c0.54-0.005,1.08-0.001,1.585-0.001c0.444-0.226,0.847-0.565,1.282-0.613c0.451-0.049,0.838-0.303,1.312-0.27
		c0.392,0.027,0.708-0.161,0.938-0.576c0.271-0.487,0.826-0.736,1.383-1.107c0.233,0,0.586,0,0.894,0
		c0.397-0.238,0.806-0.368,1.083-0.836c-0.117-0.366,0.207-0.75,0.24-1.216c0.68-0.949,1.705-1.394,2.788-1.752
		c1.577-0.521,3.726,0.618,4.099,2.21c0.084,0.361,0.083,0.732,0.185,1.107c0.104,0.387,0.325,0.6,0.563,0.875
		c0.269,0,0.553,0,0.834,0c0.605,0.585,1.423,0.865,1.991,1.496c0.122,0.136,0.492-0.029,0.645,0.244
		c0.67-0.028,1.075,0.411,1.496,0.854c1.104-0.077,1.744,0.807,2.521,1.241c1.216,0.175,2.361,0.385,3.527,0.286
		c0.729,0.441,1.463-0.204,2.21,0.033c0.192,0.226,0.515,0.26,0.78,0.4c0.207,0.11,0.452,0.188,0.606,0.351
		c0.581,0.607,1.258,1.076,1.953,1.539c0.453,0.3,0.869,0.652,1.344,0.935c0.358,0.213,0.729,0.529,0.909,0.892
		c0.234,0.471,0.587,0.727,1.003,0.969c0.486,0.284,0.905,0.651,1.291,1.063c0.114,0.121,0.232,0.232,0.407,0.313
		c0.838,0.388,1.448,1.021,1.956,1.8c0.259,0.396,0.605,0.792,1.081,0.993c0.31,0.13,0.566,0.378,0.692,0.636
		c0.31,0.629,0.815,1.026,1.388,1.34c0.475,0.262,0.827,0.641,1.201,1.006c0.361,0.352,0.701,0.725,1.072,1.064
		c0.62,0.568,1.173,1.18,1.488,2.147c0.016,0.076-0.388,0.131-0.251,0.4c-0.356,0.181-0.714,0.361-1.066,0.54
		c-0.787-0.396-1.589-0.756-2.46-0.845c-0.271-0.026-0.452-0.182-0.651-0.267c-0.519-0.225-0.973-0.597-1.567-0.655
		c-0.087-0.009-0.167-0.116-0.246-0.182c-0.619-0.511-1.393-0.632-2.123-0.874c-0.725-0.239-1.416-0.579-2.135-0.839
		c-0.503-0.181-1.021-0.384-1.546-0.426c-0.666-0.053-1.241-0.297-1.821-0.573c-0.901-0.427-1.753-0.982-2.753-1.168
		c-0.161-0.03-0.242-0.12-0.351-0.204c-0.106-0.084-0.17-0.201-0.331-0.244c-1.063-0.289-2.015-0.904-3.119-1.067
		c-0.354-0.052-0.61-0.264-0.907-0.425c-0.457-0.25-0.954-0.42-1.326-0.037c-0.416,0.098-0.577-0.247-0.85-0.239
		c-0.093-0.185-0.182-0.363-0.308-0.613c0.333-0.282,0.224-0.716,0.238-1.127c-0.608-0.736-1.006-1.604-1.53-2.388
		c-0.27-0.402-0.222-0.685,0.024-0.987c-0.149-0.619-0.739-0.512-1.104-0.636c-0.911-0.311-1.732-0.763-2.458-1.354
		c-0.458-0.373-0.901-0.756-1.445-0.961c-0.753-0.284-1.276-0.828-1.783-1.388c-0.162,0-0.306,0-0.455,0
		c-0.199-0.203-0.4-0.409-0.616-0.629c-0.344,0-0.699,0-1.085,0c-0.314,0.201-0.723,0.338-1.002,0.803c0,0.644,0,1.391,0,2.124
		c-0.869,0.358-1.726,0.645-2.482,1.153c-0.395,0.266-0.857,0.23-1.083,0.223c-0.741,0.202-1.06,0.568-1.182,1.106
		c0.071,0.073,0.986,0.541,1.253,0.633c0.302-0.14,0.621-0.352,0.97-0.431c0.374-0.084,0.894,0.104,1.142-0.09
		c0.451-0.355,0.709,0.069,1.056,0.093c0.333,0.711,1.027,1.125,1.506,1.706c0.237,0,0.453,0,0.661,0
		c0.146-0.097,0.031-0.152-0.017-0.234c-0.391-0.679-0.861-1.153-1.475-1.489c-0.561-0.688-0.316-1.379-0.068-2.112
		c0.709-0.205,1.309,0.057,1.796,0.625c0.269,0.314,0.607,0.545,0.796,0.963c0.166,0.369,0.531,0.724,0.896,0.911
		c1.156,0.592,1.512,1.545,1.413,2.737c0.118,0.117,0.219,0.219,0.347,0.347c0.582-0.163,1.135,0.126,1.712,0.218
		c0.144,0.023,0.257,0.239,0.407,0.39c0.617,0,1.26,0,1.872,0c0.27,0.211,0.609,0.243,0.847,0.578
		c-0.083,0.612,0.219,1.132,0.716,1.562c0.081,0.07,0.146,0.21,0.23,0.22c1.352,0.161,1.657,1.36,2.234,2.271
		c0.126,0.2,0.208,0.435,0.399,0.585c0.675,0.532,1.068,1.308,1.665,1.911c0.271,0.274,0.433,0.678,0.583,1.047
		c0.251,0.605,0.617,1.128,1.034,1.623c0.419,0.499,0.717,1.084,1.104,1.608c0.451,0.612,1.008,1.129,1.451,1.751
		c0.554,0.778,1.017,1.598,1.493,2.415c0.29,0.503,0.567,1.014,0.991,1.427c0.247,0.241,0.524,0.464,0.571,0.861
		c0.017,0.369,0.234,0.828-0.255,1.152c-0.325,0-0.68,0-1.097,0c-0.695-0.799-1.731-1.239-2.613-1.89
		c-0.441-0.325-0.844-0.747-1.439-0.941c-0.522-0.17-0.872-0.86-1.396-1.047c-1.008-0.361-1.498-1.317-2.384-1.807
		c-0.857-0.475-1.705-1.012-2.438-1.659c-0.862-0.761-1.94-1.242-2.673-2.14c-0.121,0-0.229,0-0.359,0
		c-0.557-0.268-0.825-0.9-1.434-1.177c-0.389-0.177-0.725-0.441-1.164-0.588c-0.463-0.153-0.839-0.585-1.236-0.914
		c-0.221-0.183-0.408-0.405-0.615-0.606c-0.378-0.367-0.709-0.744-0.719-1.326c-0.007-0.445-0.439-0.831-0.024-1.359
		c0.193-0.245,0.033-0.766,0.033-1.163c0-0.396,0-0.791,0-1.185c0.234-0.099,0.163-0.375,0.346-0.561c0.493,0,1.022,0,1.575,0
		c0-0.247,0-0.457,0-0.733c-0.709-0.827-1.6-1.521-2.69-2.144c-0.198,0.908-0.032,1.753-0.111,2.592
		c-0.243,0.273-0.495,0.472-0.883,0.171c-0.522-0.404-1.22-0.555-1.524-1.278c-0.155-0.369-0.584-0.622-0.89-0.927
		c-0.18-0.111-0.438,0.083-0.573-0.143c-0.31-0.264-0.298-0.69-0.546-0.968c-0.146,0-0.289,0-0.436,0
		c-0.203,0.215-0.173,0.612-0.08,0.694c0.539,0.471,0.582,1.146,0.777,1.743c0.183,0.56,0.534,0.956,0.931,1.337
		c0,0.222,0,0.438,0,0.524c-0.306,0.856-0.857,1.083-1.631,1.129c-0.618,0.036-1.23,0.305-1.823,0.526
		c-0.283,0.106-0.535,0.086-0.832,0.054c-0.535-0.857-0.494-1.778-0.208-2.57c-0.381-0.581-1.118-0.306-1.33-0.911
		c0-0.386,0-0.771,0-1.1c-0.24-0.361-0.688-0.333-0.868-0.676c0-0.135,0-0.278,0-0.426c0.163-0.236,0.387-0.024,0.526-0.119
		c0.383,0.346,0.446,0.865,0.873,1.059c0.694-0.423,0.675-1.203,1.044-1.879c-0.416,0-0.731,0-1.065,0
		c-0.139,0.224-0.483,0.182-0.667,0.396c-0.647-0.127-1.037-0.756-1.727-0.896c-0.323,0.151-0.679,0.269-0.973,0.624
		c1.033,1.447,0.609,3.136,0.69,4.756c-0.295,0.441-0.155,0.948-0.23,1.42c-0.07,0.438-0.334,0.845-0.095,1.427
		c0.354,0.274,0.676,0.755,0.842,1.333c0.579,0.341,1.251,0.522,1.657,1.339c0.148,0.656-0.272,1.265-0.878,1.76
		c0,0.217,0,0.397,0,0.66c0.526,0.361,0.716,0.962,0.883,1.606c0.105,0.409,0.347,0.802,0.597,1.151
		c0.454,0.634,0.711,1.316,0.678,2.096c-0.021,0.494,0.165,1.047-0.096,1.466c-0.258,0.417,0.126,0.949-0.334,1.271
		c0,0.721,0.003,1.44-0.001,2.16c-0.003,0.414-0.035,0.803-0.193,1.215c-0.362,0.942-0.319,2.378-0.038,3.491
		c0.025,0.101,0.05,0.229,0.011,0.315c-0.441,0.953-0.143,1.958-0.198,2.937c-0.041,0.731-0.428,1.421-0.211,2.133
		c-0.354,0.354-0.343,0.875-0.717,1.159C22.724,60.931,22.357,60.618,22.108,60.532z M45.479,40.38
		c-0.259-0.626-0.727-1.101-1.144-1.582c-0.502-0.579-0.967-1.145-1.215-1.877c-0.074-0.218-0.21-0.43-0.365-0.6
		c-0.364-0.396-0.761-0.762-1.137-1.149c-0.362-0.374-0.781-0.697-0.996-1.203c-0.205-0.482-0.707-0.693-1.051-1.053
		c-0.441-0.461-0.899-0.905-1.307-1.311c-0.405,0.006-0.454,0.432-0.862,0.436c-0.346-0.422-0.827-0.735-1.472-0.645
		c-0.045,0.007-0.08,0.085-0.12,0.128c0.238,0.188,0.2,0.591,0.538,0.73c0.276,0,0.596-0.081,0.843,0.02
		c0.368,0.15,0.9,0.066,1.09,0.454c0.327,0.666,1.029,0.99,1.366,1.59c0.38,0.673,0.992,1.092,1.476,1.646
		c0.16,0.184,0.386,0.311,0.5,0.4c-0.04,0.834,0.394,1.306,0.877,1.601c0.93,0.563,1.522,1.4,2.139,2.236
		c0.145,0.195,0.14,0.199,0.64,0.378C45.331,40.53,45.381,40.479,45.479,40.38z M18.167,24.666c0.684,0,1.353,0,1.988,0
		c0.107-0.107,0.183-0.183,0.275-0.275c0-0.436,0-0.89,0-1.33c-0.505-0.583-1.164-0.559-1.806-0.514
		c-0.433,0.367-0.825,0.751-0.986,1.311C17.813,24.1,17.84,24.433,18.167,24.666z M31.112,18.453
		c0.517-0.478,0.929-0.969,0.748-1.702c-0.356-0.127-0.687-0.211-0.935-0.475c-0.278,0-0.564,0-0.85,0
		c0.038,0.038,0.075,0.075,0.113,0.112c-0.249,0.143-0.498,0.285-0.641,0.367c0,0.348,0,0.555,0,0.726
		C29.983,17.945,30.381,18.385,31.112,18.453z M24.358,22.373c-0.594-0.085-0.896-0.75-1.547-0.701
		c-0.22,0.211-0.439,0.421-0.652,0.625c0.343,0.571,0.166,1.337,0.796,1.748c0.201,0,0.416,0,0.653,0
		C23.951,23.556,24.291,23.057,24.358,22.373z M38.176,35.492c-0.395-0.964-1.014-1.782-2.133-2.201c0,0.402,0,0.741,0,1.113
		c0.682,0.304,1.2,0.847,1.861,1.212c0.669,0.369,1.045,1.2,1.953,1.435c-0.17-0.751-0.749-1.095-1.153-1.56
		C38.545,35.492,38.403,35.492,38.176,35.492z M28.26,21.964c-0.339-0.722-0.623-1.38-1.276-1.81
		c-0.284-0.071-0.509,0.071-0.68,0.306c0,0.463,0,0.917,0,1.209c0.228,0.3,0.377,0.495,0.486,0.638c0.432,0,0.784,0,1.116,0
		C28.023,22.193,28.125,22.095,28.26,21.964z M34.056,19.66c-0.03,0.398,0.09,0.649,0.542,0.726
		c0.616,0.106,1.149,0.381,1.562,0.891c0.285,0.352,0.598,0.714,1.118,0.741c0.071-0.114,0.241-0.159,0.231-0.417
		c-0.083-0.252-0.515-0.38-0.512-0.764c-0.924-0.269-1.608-0.88-2.155-1.52C34.416,19.237,34.207,19.395,34.056,19.66z
		 M17.874,32.413c0.296-0.015,0.441,0.334,0.729,0.271c0.387-0.324,0.668-0.697,0.738-0.982c-0.143-0.28-0.224-0.44-0.284-0.558
		c-0.531,0.032-0.875,0.228-1.184,0.555C17.874,31.92,17.874,32.159,17.874,32.413z M44.079,26.429
		c-0.278,0.491,0.069,0.856,0.204,1.26c0.245,0.059,0.532-0.035,0.707,0.229c0.122-0.132,0.217-0.234,0.333-0.36
		C45.107,26.955,44.798,26.478,44.079,26.429z M41.724,23.4c-0.102,0.226-0.368,0.168-0.512,0.296c0,0.179,0,0.348,0,0.526
		c0.419,0.086,0.791,0.113,1.043-0.291C42.08,23.756,41.902,23.578,41.724,23.4z M19.773,38.235
		c0.097-0.494-0.027-0.869-0.396-1.197c0.193,0.485-0.255,0.821-0.23,1.269c0.007,0.132,0.064,0.182,0.135,0.203
		C19.536,38.559,19.604,38.357,19.773,38.235z M25.199,29.988c0,0.322,0.215,0.375,0.307,0.523c0.146-0.133,0.371-0.208,0.332-0.566
		c-0.067-0.059-0.193-0.167-0.317-0.276C25.403,29.785,25.302,29.887,25.199,29.988z M19.612,34.556
		c0.175,0.076,0.385,0.168,0.63,0.274c-0.007-0.429-0.226-0.556-0.478-0.638C19.639,34.238,19.559,34.292,19.612,34.556z
		 M19.801,39.243c-0.023,0.309,0.153,0.434,0.33,0.54c0.121-0.106,0.222-0.196,0.349-0.31C20.253,39.39,20.189,39.036,19.801,39.243
		z M21.439,40.43c-0.188,0.252-0.192,0.467-0.021,0.684c0.105-0.016,0.223,0.046,0.329-0.142c-0.009-0.104-0.014-0.271-0.046-0.434
		C21.693,40.503,21.587,40.488,21.439,40.43z M18.798,41.748c-0.167,0.415-0.065,0.674,0.28,0.855
		C19.248,42.247,19.141,41.992,18.798,41.748z M21.667,43.967c0.08-0.852,0.08-0.852-0.061-0.882
		c-0.087,0.142-0.296,0.193-0.296,0.172C21.47,43.576,21.556,43.745,21.667,43.967z M48.25,26.673c0.072-0.223-0.1-0.311-0.2-0.392
		c-0.105-0.083-0.146-0.308-0.381-0.222C47.64,26.463,47.875,26.594,48.25,26.673z"/>
	<path style="fill-rule:evenodd;clip-rule:evenodd;" d="M25.632,35.239c0.306-0.601,0.886-0.834,1.365-0.946
		c0.669-0.155,1.025-0.56,1.401-1.022c0.045-0.056,0.097-0.105,0.14-0.15c0.3,0,0.588,0,0.79,0c0.413,0.195,0.72,0.406,0.999,0.676
		c0.236,0.229,0.538,0.443,0.907,0.399c0.434-0.052,0.658,0.326,0.978,0.356c0.405,1.046-0.377,1.672-0.599,2.438
		c-0.558,0.152-0.874-0.389-1.322-0.427c-0.207,0.17-0.085,0.365-0.131,0.558c0.177,0.157,0.364,0.323,0.601,0.534
		c0.068,0,0.233,0.05,0.346-0.007c0.68-0.34,1.297-0.057,1.918,0.168c0.659,0.235,1.185,0.596,1.524,1.269
		c0.201,0.397,0.638,0.674,1.019,1.055c0,0.445,0.028,0.944-0.008,1.44c-0.036,0.499,0.377,0.901,0.212,1.37
		c0.887,0.636,0.885,0.637,1.092,1.744c0.129,0.695,0.525,1.294,0.74,1.965c0.096,0.301,0.042,0.605,0.177,0.894
		c0.226,0.489,0.46,0.968,0.816,1.471c-0.176,0.578,0.193,1.152,0.206,1.774c0.003,0.121,0.084,0.183,0.127,0.273
		c0.305,0.63,0.767,1.149,0.79,1.958c0.02,0.653,0.523,1.279,0.727,1.945c0.169,0.553,0.194,1.151,0.7,1.546
		c-0.063,0.495,0.154,0.964,0.293,1.393c0.154,0.469,0.217,0.83-0.081,1.237c-0.069,0.216-0.446-0.027-0.435,0.337
		c-0.738-0.439-1.35-0.913-1.729-1.658c-0.141-0.274-0.444-0.466-0.673-0.693c-0.178-0.179-0.452-0.327-0.518-0.541
		c-0.275-0.899-1.075-1.359-1.609-2.036c-0.445-0.565-0.927-1.102-1.334-1.704c-0.202-0.3-0.452-0.613-0.775-0.876
		c-0.804-0.652-1.457-1.487-1.948-2.411c-0.282-0.529-0.852-0.809-1.063-1.395c-0.195-0.539-0.736-0.842-1.045-1.297
		c-0.688-1.017-1.766-1.678-2.389-2.763c-0.322-0.563-0.874-0.994-1.305-1.501c-0.519-0.61-0.949-1.273-1.404-1.919
		c-0.274-0.389-0.544-0.795-0.221-1.408c0.224-0.423,0.072-1.05,0.069-1.585c-0.003-0.489,0.009-0.944,0.337-1.378
		C25.557,36.008,25.75,35.61,25.632,35.239z M30.383,41.327c0.019-0.104-0.029-0.169-0.127-0.191
		c-0.017-0.004-0.067,0.047-0.063,0.063c0.022,0.099,0.087,0.146,0.21,0.037c-0.079,0.518,0.101,0.858,0.379,1.193
		c0.214-0.027,0.324-0.209,0.455-0.353C30.987,41.826,30.739,41.576,30.383,41.327z M28.763,39.388
		c0.258-0.063,0.56,0.116,0.815-0.197c-0.299-0.448-0.723-0.755-1.034-1.112c-0.203,0.012-0.338,0.02-0.452,0.026
		c-0.145,0.185-0.061,0.364-0.075,0.506C28.275,38.879,28.521,39.135,28.763,39.388z M31.443,38.105
		c0.076,0.342-0.091,0.639,0.332,1.015c0.061-0.405,0.351-0.605,0.335-1.015C31.873,38.105,31.706,38.105,31.443,38.105z"/>
	<path style="fill-rule:evenodd;clip-rule:evenodd;fill:none;" d="M45.479,40.38c-0.098,0.099-0.148,0.15-0.2,0.2
		c-0.5-0.179-0.495-0.183-0.64-0.378c-0.616-0.836-1.209-1.673-2.139-2.236c-0.483-0.295-0.917-0.767-0.877-1.601
		c-0.114-0.089-0.34-0.217-0.5-0.4c-0.483-0.554-1.096-0.973-1.476-1.646c-0.337-0.6-1.039-0.924-1.366-1.59
		c-0.189-0.387-0.722-0.304-1.09-0.454c-0.247-0.101-0.567-0.02-0.843-0.02c-0.338-0.139-0.3-0.543-0.538-0.73
		c0.04-0.043,0.075-0.122,0.12-0.128c0.645-0.09,1.126,0.223,1.472,0.645c0.408-0.004,0.457-0.43,0.862-0.436
		c0.407,0.406,0.865,0.85,1.307,1.311c0.344,0.359,0.846,0.57,1.051,1.053c0.215,0.505,0.634,0.829,0.996,1.203
		c0.376,0.387,0.772,0.752,1.137,1.149c0.155,0.17,0.291,0.382,0.365,0.6c0.248,0.732,0.713,1.298,1.215,1.877
		C44.752,39.279,45.22,39.754,45.479,40.38z"/>
	<path style="fill-rule:evenodd;clip-rule:evenodd;fill:none;" d="M18.167,24.666c-0.327-0.232-0.354-0.565-0.529-0.808
		c0.161-0.56,0.553-0.944,0.986-1.311c0.643-0.045,1.301-0.069,1.806,0.514c0,0.439,0,0.894,0,1.33
		c-0.093,0.093-0.168,0.168-0.275,0.275C19.52,24.666,18.851,24.666,18.167,24.666z"/>
	<path style="fill-rule:evenodd;clip-rule:evenodd;fill:none;" d="M31.112,18.453c-0.731-0.068-1.129-0.508-1.564-0.971
		c0-0.171,0-0.378,0-0.726c0.143-0.082,0.392-0.224,0.641-0.367c-0.038-0.038-0.076-0.075-0.113-0.112c0.286,0,0.572,0,0.85,0
		c0.248,0.264,0.579,0.348,0.935,0.475C32.041,17.483,31.629,17.975,31.112,18.453z"/>
	<path style="fill-rule:evenodd;clip-rule:evenodd;fill:none;" d="M24.358,22.373c-0.067,0.685-0.407,1.184-0.75,1.673
		c-0.238,0-0.452,0-0.653,0c-0.631-0.411-0.454-1.177-0.796-1.748c0.212-0.204,0.432-0.414,0.652-0.625
		C23.461,21.622,23.764,22.288,24.358,22.373z"/>
	<path style="fill-rule:evenodd;clip-rule:evenodd;fill:none;" d="M38.176,35.492c0.227,0,0.369,0,0.527,0
		c0.404,0.464,0.983,0.809,1.153,1.56c-0.908-0.235-1.284-1.066-1.953-1.435c-0.661-0.365-1.179-0.909-1.861-1.212
		c0-0.373,0-0.711,0-1.113C37.163,33.71,37.782,34.528,38.176,35.492z"/>
	<path style="fill-rule:evenodd;clip-rule:evenodd;fill:none;" d="M28.26,21.964c-0.135,0.131-0.237,0.229-0.354,0.344
		c-0.332,0-0.684,0-1.116,0c-0.109-0.143-0.258-0.338-0.486-0.638c0-0.293,0-0.747,0-1.209c0.171-0.235,0.396-0.377,0.68-0.306
		C27.637,20.583,27.921,21.242,28.26,21.964z"/>
	<path style="fill-rule:evenodd;clip-rule:evenodd;fill:none;" d="M34.056,19.66c0.151-0.265,0.359-0.423,0.786-0.342
		c0.547,0.639,1.23,1.25,2.155,1.52c-0.003,0.383,0.429,0.512,0.512,0.764c0.01,0.258-0.16,0.303-0.231,0.417
		c-0.52-0.027-0.833-0.389-1.118-0.741c-0.413-0.51-0.946-0.785-1.562-0.891C34.146,20.309,34.026,20.058,34.056,19.66z"/>
	<path style="fill-rule:evenodd;clip-rule:evenodd;fill:none;" d="M17.874,32.413c0-0.254,0-0.493,0-0.714
		c0.309-0.327,0.653-0.523,1.184-0.555c0.06,0.118,0.141,0.278,0.284,0.558c-0.07,0.286-0.352,0.659-0.738,0.982
		C18.315,32.748,18.17,32.398,17.874,32.413z"/>
	<path style="fill-rule:evenodd;clip-rule:evenodd;fill:none;" d="M44.079,26.429c0.72,0.049,1.028,0.526,1.244,1.13
		c-0.116,0.126-0.211,0.228-0.333,0.36c-0.175-0.265-0.462-0.17-0.707-0.229C44.148,27.285,43.8,26.919,44.079,26.429z"/>
	<path style="fill-rule:evenodd;clip-rule:evenodd;fill:none;" d="M41.724,23.4c0.178,0.178,0.355,0.355,0.531,0.531
		c-0.252,0.404-0.624,0.376-1.043,0.291c0-0.178,0-0.347,0-0.526C41.356,23.568,41.623,23.626,41.724,23.4z"/>
	<path style="fill-rule:evenodd;clip-rule:evenodd;fill:none;" d="M19.773,38.235c-0.169,0.122-0.237,0.323-0.491,0.274
		c-0.071-0.021-0.127-0.071-0.135-0.203c-0.025-0.447,0.423-0.783,0.23-1.269C19.746,37.366,19.87,37.741,19.773,38.235z"/>
	<path style="fill-rule:evenodd;clip-rule:evenodd;fill:none;" d="M25.199,29.988c0.103-0.102,0.204-0.203,0.321-0.319
		c0.125,0.108,0.25,0.217,0.317,0.276c0.039,0.358-0.186,0.433-0.332,0.566C25.415,30.364,25.199,30.31,25.199,29.988z"/>
	<path style="fill-rule:evenodd;clip-rule:evenodd;fill:none;" d="M19.612,34.556c-0.053-0.264,0.026-0.318,0.152-0.364
		c0.252,0.082,0.471,0.209,0.478,0.638C19.998,34.724,19.787,34.632,19.612,34.556z"/>
	<path style="fill-rule:evenodd;clip-rule:evenodd;fill:none;" d="M19.801,39.243c0.388-0.207,0.452,0.146,0.678,0.23
		c-0.127,0.113-0.228,0.203-0.349,0.31C19.954,39.677,19.778,39.552,19.801,39.243z"/>
	<path style="fill-rule:evenodd;clip-rule:evenodd;fill:none;" d="M21.439,40.43c0.148,0.059,0.254,0.073,0.261,0.108
		c0.033,0.162,0.038,0.329,0.046,0.434c-0.106,0.188-0.224,0.126-0.329,0.142C21.247,40.896,21.25,40.682,21.439,40.43z"/>
	<path style="fill-rule:evenodd;clip-rule:evenodd;fill:none;" d="M18.798,41.748c0.343,0.244,0.45,0.499,0.28,0.855
		C18.732,42.422,18.63,42.163,18.798,41.748z"/>
	<path style="fill-rule:evenodd;clip-rule:evenodd;fill:none;" d="M21.667,43.967c-0.111-0.222-0.197-0.391-0.357-0.71
		c0,0.021,0.209-0.03,0.296-0.172C21.748,43.115,21.748,43.115,21.667,43.967z"/>
	<path style="fill-rule:evenodd;clip-rule:evenodd;fill:none;" d="M48.25,26.673c-0.376-0.079-0.61-0.21-0.581-0.614
		c0.235-0.086,0.275,0.139,0.381,0.222C48.151,26.362,48.323,26.45,48.25,26.673z"/>
	<path style="fill-rule:evenodd;clip-rule:evenodd;fill:none;" d="M28.763,39.388c-0.242-0.253-0.488-0.509-0.745-0.777
		c0.014-0.142-0.07-0.321,0.075-0.506c0.114-0.007,0.25-0.015,0.452-0.026c0.311,0.357,0.735,0.664,1.034,1.112
		C29.323,39.504,29.021,39.325,28.763,39.388z"/>
	<path style="fill-rule:evenodd;clip-rule:evenodd;fill:none;" d="M30.402,41.236c0.337,0.34,0.585,0.59,0.834,0.841
		c-0.131,0.144-0.241,0.325-0.455,0.353C30.503,42.095,30.323,41.754,30.402,41.236z"/>
	<path style="fill-rule:evenodd;clip-rule:evenodd;fill:none;" d="M31.443,38.105c0.263,0,0.43,0,0.667,0
		c0.015,0.409-0.275,0.609-0.335,1.015C31.352,38.744,31.519,38.447,31.443,38.105z"/>
	<path style="fill-rule:evenodd;clip-rule:evenodd;fill:none;" d="M30.383,41.327c-0.104,0.019-0.168-0.029-0.191-0.128
		c-0.004-0.017,0.046-0.067,0.063-0.063C30.354,41.158,30.402,41.224,30.383,41.327z"/>
</g>
</svg>
