<svg xmlns="http://www.w3.org/2000/svg" xml:space="preserve" width="72px" height="72px" viewBox="0 0 72 72">
    <g fill="currentColor">
        <path d="M21.42 38.088h-.886c-.542-.676-1.312-1.161-1.751-1.963-.116-.211-.507-.266-.643-.477-.351-.543-.456-1.14.001-1.755-.677-.494-1.433-.507-2.155-.594-.333-.208-.261-.755-.824-.841-.299.412-.358 1.078-.993 1.321-.881-.123-1.477-.681-1.922-1.505v-1.261c1.004-1.325 2.116-2.52 3.954-2.646.322-.458.86-.062 1.271-.333.316-.209.773-.208 1.166-.292.447-.097.932-.039 1.398-.018.58.026 1.125.21 1.714.408.648-.305 1.436-.524 1.678-1.415-.348-.272-.102-.695-.178-1.041.648-.67 1.254-1.323 1.765-2.096.542-.821 1.21-1.563 1.725-2.419.123-.203.499-.331.719-.562h1.075c.735.902.765 1.756.031 2.553-.266.289-.422.612-.582 1.014.293.158.579.138.872.007.958-.427 1.868-.946 2.674-1.614.34-.282.638-.615.877-1.03.288-.501.627-1.015 1.118-1.377.608-.447.849-1.214 1.511-1.693.19-.065.51.038.685-.245.454.123.819.369 1.128.762.074.287-.105.679.238.922-.371.967-.732 1.919-1.384 3.009.732-.504 1.426-.495 2.01-.808.587-.314 1.184-.555 1.833-.417.945-.731 2.019-1.148 3.129-1.723h1.145c.551-.449 1.101-.823 1.821-.894.251-.025.508-.172.727-.318.863-.575 1.896-.643 2.849-.94.438-.136.977-.108 1.47.328.267.392.251.943.206 1.465-.444.652-1.177.925-1.688 1.47-.19.202-.104.692-.58.614-.188.475-.702.412-1.054.59-1.336.679-1.418.696-2.304 1.688l-.496.562c-.597-.379-1.25-.382-1.782-.224-.704.21-1.394.095-2.08.189-.894.121-1.734-.233-2.61-.236-.11 0-.22-.146-.316-.216-.604.234-1.219.4-1.583 1.172-.021.104.252.173.334.351.776 0 1.536-.047 2.286.014.689.056 1.403.393 2.063.175.985-.325 1.968-.071 3.02-.236.242-.149.623-.255.847-.601.72 0 1.445-.062 2.154.015.932.101 1.815-.175 2.717-.268.634-.066 1.274-.386 1.829-.801.445-.024.992.097 1.337-.113.423-.259.959.134 1.275-.34.021-.033.137-.005.209-.004 1.951.024 3.886-.424 5.874-.159.065.1.272.158.29.487-.817.487-1.564 1.196-2.42 1.722-.857.526-1.696 1.046-2.397 1.794-.884.075-1.74.34-2.403.922-.548.479-1.1.7-1.799.636-.178-.017-.359-.002-.607-.002-.231.326-.7.509-.798 1.058a4 4 0 0 1-1.504-.163c-.494-.146-1.064-.031-1.582-.031-.211.244-.022.51-.155.775.994.614 1.74 1.471 2.55 2.262.074.073.151.182.24.196.885.14 1.148.905 1.465 1.547.188.384.688.638.558 1.171.271.162.239.438.197.669-.094.509.176.947.224 1.424.05.479-.088.961.198 1.434.169.278-.228 2.95-.496 3.447-.302.562-.63 1.113-.992 1.64-.363.527-.924.863-1.455 1.178-.285.168-.477.392-.708.579-.054.851.212 1.632.377 2.562-.237.185-.208.59-.152.959.138.899-.179 1.734-.487 2.505-.346.867-1.089 1.516-1.933 1.99-.237.133-.483.042-.729.068-.492-.529-1.131-.952-1.224-1.664-.639-.601-1.42-.634-2.132-.908-.441.195-.442.186-.949.202-.481.014-.945-.01-1.436.182-.463.181-.856.387-1.216.721-.808.751-1.718 1.371-2.622 2-.372.259-.805.326-1.2.502-.674.301-1.271-.164-1.805-.485a2.3 2.3 0 0 1-.916-1.006c-.207-.461-.628-.619-1.096-.613-.408.005-.799.032-1.22.166-.556.176-1.21.043-1.859.043-.942.741-2.139 1.002-3.241 1.474-.187.079-.405.102-.583-.08-.208-.211-.478-.049-.755-.108-1.148-1.087-1.268-2.513-1.165-3.961-.274-.28-.304-.684-.632-.846v-1.407l.783-.477c.714.079 1.532-.169 2.3.222 1.296 0 2.62.164 3.88-.047 1.245-.209 2.468-.097 3.698-.163.682-.036 1.367-.005 2.052-.007.416-.002.837-.042 1.183.288.583-.314 1.116-.662 1.754-.555.488.019.677-.441 1.042-.634.515-.27.735-.93.749-1.485.022-.866.21-1.76-.175-2.616-.093-.207-.014-.492-.014-.682-.36-.492-.516-1.016-.631-1.53-.07-.318-.2-.614-.395-.805-.655-.639-1.197-1.402-2.028-1.859-.211-.117-.359-.301-.645-.285-.194.011-.445-.16-.523-.254-.642-.767-1.627-1.084-2.291-1.811-.112-.123-.205-.264-.411-.309-.851-.183-1.521-.886-2.452-.863-.125.003-.165-.237-.342-.209-.431.357-.941.163-1.361.22-.687-.475-1.341-.612-2.058-.24.149.614.695.297.908.483.308.268.829.039.978.542-.316.695-.126 1.525-.363 2.315l-.732.585c-1.48-.155-2.287-1.359-3.187-2.55v-.606c.223-.353.766-.285.857-.822-.435-.433-1.113-.298-1.626-.574-1.099.143-2.155-.378-3.277-.186l-.297.297c.651.61 1.458.542 2.251.536.315.231.53.535.703.884.052.104.102.206.068.292-.305.801-.203 1.687-.526 2.482-.041.089-.151.152-.227.228m20.205-2.748c-.197-.555-.44-.887-.792-1.146h-.629c-.132-.165-.364-.26-.311-.557.56-.443.871-1.109 1.373-1.683-.559-.271-1.04-.152-1.439.098-.755.473-1.547.711-2.473.623-.16.379-.665.51-.724 1 .499.212.958.429 1.306.834.301.35.684.572 1.115.557.47.238.627.667.839 1.059.16.295.242.632.516.867.979.843 1.433 1.947 1.664 3.195.062.336.076.777.4 1.008.331.234.15.651.421.923.148.148-.105.434-.17.653-.095.326-.127.761.016 1.052.508 1.042-.204 1.906-.314 2.854-.589.635-.891 1.494-1.599 2.036-.044.034-.049.121-.072.183.059.218.206.35.412.425.368.104.607-.38.993-.211.202-.205.4-.413.606-.613.96-.927 1.464-2.047 1.445-3.391-.009-.576-.002-1.151-.002-1.658l.425-.799c-.153-.426-.25-.821-.434-1.171-.299-.567-.343-1.234-.664-1.771-.391-.651-.073-1.323-.19-1.974-.012-.067-.014-.137-.029-.296-.32-.076-.546-.437-.963-.427-.302.006-.387-.211-.53-.421-.305-.452-.169-.946-.196-1.249m-5.553-7.109c-.598-.198-.975.075-1.321.417q-.877.864-1.74 1.744c-.039.04-.024.131-.038.213.208.211.362.498.738.599 1.034-.459 2.161-.52 3.114-.465l.809-.603h-1.055c-.546-.552-1.148-1.038-.507-1.905m-1.33-2.639c-.653-.07-1.214-.112-1.576.338-.521.646-1.339.821-1.935 1.348-.69.61-1.544 1.031-2.006 1.9-.132.25-.179.432-.067.672.248.041.549.128.718-.027.455-.416 1.13-.604 1.36-1.244.054-.152.142-.282.244-.322.625-.246.948-.83 1.433-1.229.161-.131.254-.328.483-.396.549-.16.946-.541 1.346-1.04m5.801 3.048c-.233-.921-.832-1.102-2.59-.815-.037.349.026.661.191.986.166.327-.164.634-.227.967.287.146.598.194.817.046.602-.404 1.41-.508 1.809-1.184"/>
        <path d="M63.212 41.655c-.545.598-.77 1.338-.849 2.121-.03.292-.191.506-.303.74-.374.781-.815 1.532-1.202 2.308-.252.505-.406 1.051-.643 1.569-.352.772-.774 1.455-1.455 2.002-.491.029-.948-.083-1.44-.344-.94-.5-1.835-1.019-2.621-1.761-.532-.501-1.205-.874-1.857-1.226-.643-.346-1.087-.81-1.313-1.525.086-.363.234-.711.546-.947.294-.223.515-.569.525-.853.022-.628.324-1.101.62-1.588.354-.582.457-1.25.692-1.872.193-.512-.127-1.011-.275-1.493-.234-.764-.222-1.491.04-2.14-.135-.874-.632-1.527-.871-2.303-.192-.62-.644-1.197-1.157-1.677-.512-.479-1.054-.939-1.375-1.585-.028-.059-.015-.138-.021-.208.057-.613.451-.981.971-1.184.25-.097.502-.2.725-.331.736-.432 1.46-.432 2.271-.185.8.243 1.62.396 2.422.667.58.197 1.28.039 1.951.039.158.332.53.402.878.629h1.399c.417.336.929.441 1.321.804.589.546.877 1.221 1.004 1.961.066.393.18.72.451 1.06v4.152c0 .311-.046.588-.199.89-.36.713-.209 1.51-.235 2.28m-31.716-1.407c.985.56 2.133.669 2.776 1.677v1.101c-.397-.014-.746.038-1.185-.125-.505-.188-1.145-.138-1.701-.044-1.351.23-1.333.144-2.633.024-.917-.085-1.873-.2-2.835.131-.522.181-1.086.383-1.644.455-.672.088-1.364.031-2.048.019-.939-.019-1.862.035-2.742.417-.121.053-.282.017-.424.017-.36.003-.835-.141-1.05.036-.278.23-.66.022-.847.334-.843.093-1.688.139-2.526-.029-.599-.12-1.167-.412-1.801-.338-.292.034-.521-.085-.779-.209-1.773-.851-1.766-.849-2.597-2.459-.499-.968-.885-1.946-.62-3.113l.301-.301c1.303.194 1.799 1.468 2.833 2.182.552.076 1.212-.068 1.864.195.296.121.771.188 1.098-.165.051-.055.225-.055.308-.014.809.405 1.624.249 2.411-.018.721-.245 1.449-.211 2.18-.199.836.014 1.649-.047 2.427-.398.18-.082.42-.038.631-.038 1.763-.002 3.526.02 5.288-.017.41-.007.741.139 1.07.298 1.175.568 1.169.581 2.245.581m-2.565-4.644.535-.536c1.104.211 1.244.283 2.096 1.295.173.206.423.2.61.364.609.537 1.036 1.174 1.193 2.073l-.243.556H31.33c-.519-.52-1.031-1.071-1.586-1.576-.634-.573-1.06-1.209-.813-2.176m3.613 8.869c.261-.363.729-.369.926-.748h1.139c.744.198 1.053 1.206 1.943 1.288.361.533.458 1.065-.011 1.66-.212.084-.488.374-.848.263-.392-.122-.618.254-.988.239-1.008-.041-2.134-1.105-2.16-2.114-.006-.211-.001-.422-.001-.588m-6.253.788v-.784c.492-.521 1.234-.133 1.692-.573 1.238.479 1.626 1.613 2.199 2.583l-.316.65c-.73.063-1.457.073-2.277-.29-.447-.332-.837-.916-1.298-1.586m-4.322 1.682c-.828-.309-1.168-.841-1.081-1.626l.521-.522a3.65 3.65 0 0 1 1.649.205c.356.129.494.502.863.711-.104.383.179.829-.367 1.232z"/>
    </g>
</svg>
